<svg id="U01E6" viewBox="0 0 728 1000"><path transform="translate(0, 900) scale(1,-1)" d="M407 297L407 377L654 377L654 27Q596 8 537-1Q478-10 403-10L403-10Q292-10 216 34.50Q140 79 100.50 161.50Q61 244 61 357L61 357Q61 469 105 551Q149 633 231.50 678.50Q314 724 431 724L431 724Q491 724 544.50 713Q598 702 644 682L644 682L610 604Q572 621 524.50 633Q477 645 426 645L426 645Q298 645 226.50 568Q155 491 155 357L155 357Q155 272 182.50 206.50Q210 141 269 104.50Q328 68 424 68L424 68Q471 68 504 73Q537 78 564 85L564 85L564 297L407 297ZM449 784L359 784Q346 807 324 833.50Q302 860 278 886Q254 912 236 931L236 931L236 944L296 944Q322 927 350 903Q378 879 403 852L403 852Q430 879 458 903Q486 927 512 944L512 944L574 944L574 931Q555 912 530.50 886Q506 860 483.50 833.50Q461 807 449 784L449 784Z"/></svg>