<svg id="U0169" viewBox="0 0 618 1000"><path transform="translate(0, 900) scale(1,-1)" d="M445 536L533 536L533 0L461 0L448 71L444 71Q418 29 372 9.50Q326-10 274-10L274-10Q177-10 128 36.50Q79 83 79 185L79 185L79 536L168 536L168 191Q168 63 287 63L287 63Q376 63 410.50 113Q445 163 445 257L445 257L445 536ZM177 606L126 606Q132 665 160.50 699.50Q189 734 236 734L236 734Q266 734 292.50 719.50Q319 705 343 691Q367 677 388 677L388 677Q411 677 423.50 691.50Q436 706 443 735L443 735L493 735Q487 677 459 642Q431 607 384 607L384 607Q356 607 329.50 621Q303 635 278.50 649.50Q254 664 232 664L232 664Q208 664 196 649.50Q184 635 177 606L177 606Z"/></svg>