<svg id="U0128" viewBox="0 0 339 1000"><path transform="translate(0, 900) scale(1,-1)" d="M298 52L298 0L40 0L40 52L124 71L124 642L40 662L40 714L298 714L298 662L214 642L214 71L298 52ZM38 784L-13 784Q-7 843 21.50 877.50Q50 912 97 912L97 912Q127 912 153.50 897.50Q180 883 204 869Q228 855 249 855L249 855Q272 855 284.50 869.50Q297 884 304 913L304 913L354 913Q348 855 320 820Q292 785 245 785L245 785Q217 785 190.50 799Q164 813 139.50 827.50Q115 842 93 842L93 842Q69 842 57 827.50Q45 813 38 784L38 784Z"/></svg>