<svg id="U01C8" viewBox="0 0 782 1000"><path transform="translate(0, 900) scale(1,-1)" d="M499 0L97 0L97 714L187 714L187 80L499 80L499 0ZM602 681L602 681Q602 710 617 723.50Q632 737 654 737L654 737Q674 737 689.50 723.50Q705 710 705 681L705 681Q705 653 689.50 639Q674 625 654 625L654 625Q632 625 617 639Q602 653 602 681ZM546-240L546-240Q521-240 502-236.50Q483-233 469-228L469-228L469-157Q484-161 500-164Q516-167 535-167L535-167Q567-167 588-149.50Q609-132 609-83L609-83L609 536L697 536L697-80Q697-155 661-197.50Q625-240 546-240Z"/></svg>