<svg id="U0214" viewBox="0 0 731 1000"><path transform="translate(0, 900) scale(1,-1)" d="M640 714L640 252Q640 178 610 118.50Q580 59 518.50 24.50Q457-10 362-10L362-10Q229-10 159.50 62.50Q90 135 90 254L90 254L90 714L180 714L180 251Q180 164 226.50 116Q273 68 367 68L367 68Q464 68 507.50 119.50Q551 171 551 252L551 252L551 714L640 714ZM318 944L415 944Q431 910 455.50 867.50Q480 825 501 796L501 796L501 784L451 784Q429 802 402 830.50Q375 859 352 888Q329 917 318 934L318 934L318 944ZM142 944L239 944Q255 910 279.50 867.50Q304 825 325 796L325 796L325 784L275 784Q253 802 226 830.50Q199 859 176 888Q153 917 142 934L142 934L142 944Z"/></svg>