<svg id="U0284" viewBox="0 0 258 1000"><path transform="translate(0, 900) scale(1,-1)" d="M41-240L41-240Q19-240 0.50-235.50Q-18-231-29-224L-29-224L-29-157Q-21-161-5.50-164.50Q10-168 23-168L23-168Q54-168 69.50-149.50Q85-131 85-72L85-72L85 248L10 248L10 319L85 319L85 598Q85 664 103 700Q121 736 151.50 750.50Q182 765 217 765L217 765Q239 765 258 760.50Q277 756 287 749L287 749L287 682Q279 686 264 689.50Q249 693 235 693L235 693Q204 693 188.50 674.50Q173 656 173 597L173 597L173 319L248 319L248 248L173 248L173-73Q173-138 155-174.50Q137-211 107-225.50Q77-240 41-240Z"/></svg>