<svg id="U03D1" viewBox="0 0 623 1000"><path transform="translate(0, 900) scale(1,-1)" d="M273-10L273-10Q202-10 161.50 15.50Q121 41 105 81.50Q89 122 89 167L89 167Q89 208 96 246.50Q103 285 103 310L103 310Q103 333 94.50 341.50Q86 350 70 350L70 350Q58 350 45.50 346Q33 342 25 337L25 337L6 399Q24 407 48.50 413.50Q73 420 99 420L99 420Q149 420 168.50 394Q188 368 188 329L188 329Q188 295 181 254.50Q174 214 174 169L174 169Q174 127 197.50 94Q221 61 276 61L276 61Q365 61 411 134.50Q457 208 457 356L457 356Q457 367 456.50 381.50Q456 396 455 406L455 406Q331 408 256 436Q181 464 147.50 511Q114 558 114 616L114 616Q114 679 155.50 722Q197 765 288 765L288 765Q398 765 459 688Q520 611 538 479L538 479L608 479L608 406L544 406Q545 395 545.50 381.50Q546 368 546 353L546 353Q546 248 516.50 166Q487 84 426.50 37Q366-10 273-10ZM449 479L449 479Q436 582 392 637.50Q348 693 285 693L285 693Q242 693 220.50 671Q199 649 199 611L199 611Q199 574 223 544.50Q247 515 302 497.50Q357 480 449 479Z"/></svg>