<svg id="U04A9" viewBox="0 0 642 1000"><path transform="translate(0, 900) scale(1,-1)" d="M289 546L289 546Q318 546 338.50 542.50Q359 539 373 534L373 534L354 463Q344 466 326 469Q308 472 288 472L288 472Q208 472 176.50 417Q145 362 145 261L145 261Q145 204 160.50 159Q176 114 211 88.50Q246 63 303 63L303 63Q320 63 332 65.50Q344 68 347 69L347 69Q319 101 300.50 144.50Q282 188 282 246L282 246Q282 338 327 381Q372 424 439 424L439 424Q504 424 546.50 382.50Q589 341 589 246L589 246Q589 178 560.50 129.50Q532 81 493 54L493 54Q503 50 518 46Q533 42 548 42L548 42Q578 42 605 49L605 49L605-21Q593-25 575.50-27Q558-29 541-29L541-29Q504-29 470-18.50Q436-8 407 10L407 10Q386 2 361-4Q336-10 299-10L299-10Q220-10 165.50 27Q111 64 83 126Q55 188 55 263L55 263Q55 391 114 468.50Q173 546 289 546ZM439 355L439 355Q405 355 387.50 325.50Q370 296 370 243L370 243Q370 194 388 156.50Q406 119 431 98L431 98Q463 118 483 155.50Q503 193 503 245L503 245Q503 296 487.50 325.50Q472 355 439 355Z"/></svg>