<svg id="U0549" viewBox="0 0 634 1000"><path transform="translate(0, 900) scale(1,-1)" d="M536 77L536-1Q447 2 361.50 32.50Q276 63 197.50 114.50Q119 166 50 231L50 231L102 291Q140 254 184 220Q228 186 276 159L276 159Q378 236 431.50 311Q485 386 485 465L485 465Q485 546 442 598Q399 650 319 650L319 650Q231 650 191.50 603Q152 556 152 482L152 482L152 470L62 470L62 487Q62 595 128.50 660.50Q195 726 319 726L319 726Q401 726 458 693.50Q515 661 545 603Q575 545 575 468L575 468Q575 376 515 286.50Q455 197 352 121L352 121Q397 102 443.50 90.50Q490 79 536 77L536 77Z"/></svg>