<svg id="U056E" viewBox="0 0 589 1000"><path transform="translate(0, 900) scale(1,-1)" d="M196 655L196 655L331 770L378 711L312 654Q349 615 380 575.50Q411 536 436 497L436 497L573 497L573 427L475 427Q497 382 508.50 336.50Q520 291 520 246L520 246Q520 160 490 102.50Q460 45 408 16.50Q356-12 289-12L289-12Q217-12 165.50 20Q114 52 86.50 108.50Q59 165 59 238L59 238Q59 309 87.50 368Q116 427 175 462Q234 497 326 497L326 497L336 497Q308 536 273 575.50Q238 615 196 655ZM379 427L331 427Q269 427 228.50 402Q188 377 169 333.50Q150 290 150 234L150 234Q150 158 183.50 109.50Q217 61 289 61L289 61Q351 61 390 102Q429 143 429 240L429 240Q429 332 379 427L379 427Z"/></svg>