<svg id="U07DD" viewBox="0 0 733 1000"><path transform="translate(0, 900) scale(1,-1)" d="M289 0L88 0L88 303Q88 455 249 455L249 455L361 455L361 537Q361 619 404 666.50Q447 714 527 714L527 714Q576 714 611 692Q646 670 665 633Q684 596 684 550L684 550Q684 477 636 427Q588 377 487 377L487 377L450 377L450 152Q450 0 289 0L289 0ZM522 636L522 636Q450 636 450 545L450 545L450 455L490 455Q532 455 554.50 468.50Q577 482 586 504Q595 526 595 552L595 552Q595 591 576 613.50Q557 636 522 636ZM361 159L361 159L361 377L242 377Q205 377 191 355.50Q177 334 177 296L177 296L177 78L296 78Q333 78 347 100Q361 122 361 159Z"/></svg>