<svg id="U077B" viewBox="0 0 942 1000"><path transform="translate(0, 900) scale(1,-1)" d="M160 489L160 489L114 491Q114 499 113 523.50Q112 548 110 581Q108 614 103.50 648Q99 682 91 709L91 709L132 720L145 665Q150 651 157 647Q164 643 171 643L171 643Q183 643 185.50 655.50Q188 668 192 713L192 713L232 710L228 661Q227 651 233.50 647Q240 643 245 643L245 643Q253 643 259.50 649Q266 655 266 665L266 665Q266 674 262.50 691Q259 708 255 718L255 718L293 733Q303 715 307 692.50Q311 670 311 658L311 658Q311 631 294 615.50Q277 600 254 600L254 600Q241 600 232 605Q223 610 217 617L217 617Q213 609 205 603.50Q197 598 182 598L182 598Q167 598 156 604L156 604Q159 565 159.50 535.50Q160 506 160 489ZM471-21L471-21Q246-21 139 19Q32 59 32 137L32 137Q32 174 51 203Q70 232 95.50 256Q121 280 141 300L141 300Q166 326 183 353Q200 380 214.50 402.50Q229 425 245.50 439Q262 453 285 453L285 453Q318 453 346 428Q374 403 398 361.50Q422 320 443 269L443 269L376 224Q358 268 333 311Q308 354 279 379L279 379Q277 369 261 332Q245 295 206 251L206 251Q182 223 160.50 206.50Q139 190 126 176.50Q113 163 113 145L113 145Q113 110 201 85.50Q289 61 472 61L472 61Q626 61 739 74Q852 87 907 95L907 95L893 17Q866 10 820 3Q774-4 716-9.50Q658-15 595-18Q532-21 471-21Z"/></svg>