<svg id="U08AB" viewBox="0 0 447 1000"><path transform="translate(0, 900) scale(1,-1)" d="M70-231L70-231Q61-231 58-231Q55-231 46-230L46-230L40-152Q106-150 159.50-136Q213-122 250-89.50Q287-57 303 3L303 3Q284-3 263.50-5.50Q243-8 223-8L223-8Q147-8 105.50 23.50Q64 55 64 119L64 119Q64 157 76 195.50Q88 234 110 266Q132 298 163 317.50Q194 337 232 337L232 337Q286 337 321.50 302Q357 267 374.50 210.50Q392 154 392 91L392 91Q392-60 308-145.50Q224-231 70-231ZM143 139L143 139Q143 108 163 89.50Q183 71 232 71L232 71Q275 71 314 83L314 83Q314 90 314 97L314 97Q314 139 303 175Q292 211 272 233Q252 255 224 255L224 255Q201 255 182.50 237.50Q164 220 153.50 193Q143 166 143 139ZM100-120L100-120Q79-120 64.50-105.50Q50-91 50-71L50-71Q50-51 64.50-36Q79-21 100-21L100-21Q120-21 134.50-36Q149-51 149-71L149-71Q149-91 134.50-105.50Q120-120 100-120Z"/></svg>