<svg id="U08C1" viewBox="0 0 1527 2048"><path transform="translate(0, 1843.2) scale(1,-1)" d="M1462-870L1462-870Q1462-874 1413.50-894Q1365-914 1291-941Q1217-968 1139-994Q1061-1020 1001-1037Q941-1054 921-1054L921-1054Q761-1054 607.50-1027.50Q454-1001 331-935.50Q208-870 135-755Q62-640 62-463L62-463Q62-192 201.50 10Q341 212 573 345L573 345Q551 361 504 369Q457 377 411.50 380Q366 383 348 383L348 383Q299 383 238.50 374.50Q178 366 131 351L131 351Q131 358 137 385Q143 412 150.50 440.50Q158 469 161 481L161 481Q164 497 202.50 518Q241 539 299 554.50Q357 570 416 570L416 570Q502 570 587 555.50Q672 541 757.50 527Q843 513 928 513L928 513Q994 513 1062 521Q1130 529 1204 529L1204 529Q1212 529 1221 526.50Q1230 524 1230 513L1230 513Q1230 506 1214 474Q1198 442 1180 412.50Q1162 383 1156 383L1156 383Q1107 374 1037.50 364Q968 354 906 345L906 345Q817 331 714 294.50Q611 258 510.50 199.50Q410 141 327 61.50Q244-18 194.50-116.50Q145-215 145-332L145-332Q145-468 198-563.50Q251-659 341-722Q431-785 544-820.50Q657-856 778-870.50Q899-885 1012-885L1012-885Q1084-885 1168-877Q1252-869 1327-861Q1402-853 1446-853L1446-853Q1462-853 1462-870ZM964 1092L964 1092Q964 1088 963.50 1072Q963 1056 963 1042L963 1042Q963 1003 953 996L953 996Q933 982 894 944Q855 906 820 851Q785 796 776 729L776 729Q775 722 767 722L767 722Q759 722 758 729L758 729Q721 839 673.50 895.50Q626 952 590.50 973Q555 994 552 994L552 994Q547 996 547.50 1021Q548 1046 551.50 1070.50Q555 1095 558 1094L558 1094Q580 1090 622 1062Q664 1034 705.50 980.50Q747 927 766 845L766 845Q780 926 821 982.50Q862 1039 903.50 1069Q945 1099 959 1099L959 1099Q964 1099 964 1092ZM894-415L894-415Q894-419 881.50-441Q869-463 851.50-489Q834-515 818.50-534.50Q803-554 796-554L796-554Q792-554 771.50-541.50Q751-529 726-511.50Q701-494 682.50-478.50Q664-463 664-457L664-457Q664-452 677.50-429.50Q691-407 709-380.50Q727-354 743-334.50Q759-315 763-315L763-315Q769-315 789.50-328.50Q810-342 834-360.50Q858-379 876-395Q894-411 894-415ZM995-127L995-127Q995-132 982.50-154.50Q970-177 952.50-204Q935-231 920-250.50Q905-270 899-270L899-270Q896-270 877.50-257Q859-244 835.50-226.50Q812-209 794.50-195Q777-181 775-180L775-180Q769-175 764-175L764-175Q759-175 754-180L754-180Q752-182 733-210Q714-238 693.50-265.50Q673-293 667-293L667-293Q663-293 642.50-280Q622-267 597.50-249Q573-231 555-215.50Q537-200 537-195L537-195Q537-189 550.50-167Q564-145 581.50-118.50Q599-92 614-72.50Q629-53 632-53L632-53Q641-53 669-74Q697-95 723-116.50Q749-138 751-141L751-141Q760-150 764-150L764-150Q770-150 777-139L777-139Q779-136 798.50-108.50Q818-81 838.50-54Q859-27 863-27L863-27Q868-27 888.50-41Q909-55 934-73.50Q959-92 977-108Q995-124 995-127Z"/></svg>