<svg id="U09FD" viewBox="0 0 426 1000"><path transform="translate(0, 900) scale(1,-1)" d="M213 229L213 229Q172 229 138 247Q104 265 84 296.50Q64 328 64 369L64 369Q64 407 82.50 438.50Q101 470 135 489Q169 508 213 508L213 508Q256 508 289 489.50Q322 471 341.50 440Q361 409 361 369L361 369Q361 330 341.50 298Q322 266 289 247.50Q256 229 213 229ZM213 295L213 295Q248 295 269.50 315.50Q291 336 291 369L291 369Q291 401 269.50 421.50Q248 442 213 442L213 442Q176 442 155 420.50Q134 399 134 369L134 369Q134 336 156.50 315.50Q179 295 213 295Z"/></svg>