<svg id="U0990" viewBox="0 0 873 1000"><path transform="translate(0, 900) scale(1,-1)" d="M511 628L511 628Q552 628 579.50 619.50Q607 611 626 594L626 594Q645 578 656 554.50Q667 531 667 490L667 490L667 454Q700 470 726.50 498Q753 526 753 573L753 573Q753 598 744.50 616.50Q736 635 720 649L720 649Q701 665 670.50 675.50Q640 686 586 693L586 693L482 707Q389 720 347 759.50Q305 799 305 875L305 875Q305 884 306.50 896Q308 908 309 917L309 917L383 913Q382 906 381 896Q380 886 380 878L380 878Q380 838 400 814L400 814Q421 790 474 783L474 783L605 765Q671 756 712 741Q753 726 779 702L779 702Q804 679 817.50 646.50Q831 614 831 575L831 575Q831 523 808.50 485.50Q786 448 748.50 421Q711 394 667 374L667 374L667 0L592 0Q579 45 552.50 66Q526 87 481 87L481 87Q445 87 414 83Q383 79 349.50 74.50Q316 70 272 70L272 70Q238 70 199 77.50Q160 85 125 106Q90 127 68 168.50Q46 210 46 278L46 278Q46 302 50 328.50Q54 355 58 377L58 377L135 366Q131 351 127.50 330Q124 309 124 280L124 280Q124 221 146.50 192Q169 163 204 153.50Q239 144 276 144L276 144Q326 144 367.50 152.50Q409 161 461 161L461 161Q504 161 536 148.50Q568 136 590 106L590 106L590 463Q590 500 585 516Q580 532 569 542L569 542Q551 557 514 557L514 557Q478 557 445.50 541Q413 525 387.50 500Q362 475 347.50 446.50Q333 418 333 393L333 393Q333 378 343.50 361.50Q354 345 392 345L392 345Q412 345 434 348L434 348L441 278Q419 270 376 270L376 270Q327 270 290.50 300Q254 330 254 392L254 392Q254 432 274.50 473.50Q295 515 331 550Q367 585 413.50 606.50Q460 628 511 628Z"/></svg>