<svg id="U09E3" viewBox="0 0 1000 1000"><path transform="translate(500, 900) scale(1,-1)" d="M-449-208L-449-208Q-395-208-368-231Q-341-254-341-289L-341-289Q-341-301-345.50-314Q-350-327-363-339L-363-339Q-303-331-279-313.50Q-255-296-255-268L-255-268Q-255-251-263.50-238Q-272-225-296.50-212Q-321-199-369-185L-369-185Q-420-169-447-152.50Q-474-136-474-103L-474-103Q-474-86-464-68L-464-68L-408-81Q-412-89-412-97L-412-97Q-412-107-397.50-114Q-383-121-334-136L-334-136Q-274-154-242-173.50Q-210-193-198.50-216Q-187-239-187-266L-187-266Q-187-313-219-341.50Q-251-370-302.50-382Q-354-394-415-394L-415-394L-439-394L-451-345Q-424-337-412-324.50Q-400-312-400-295L-400-295Q-400-280-411-270.50Q-422-261-447-261L-447-261Q-487-261-487-285L-487-285Q-487-294-480-308L-480-308L-540-319Q-551-299-551-276L-551-276Q-551-247-525.50-227.50Q-500-208-449-208ZM-142-127L-142-127Q-88-127-61-150Q-34-173-34-208L-34-208Q-34-220-38.50-233Q-43-246-56-258L-56-258Q4-250 28-232.50Q52-215 52-187L52-187Q52-170 43.50-157Q35-144 10.50-131Q-14-118-62-104L-62-104Q-113-88-140-71.50Q-167-55-167-22L-167-22Q-167-5-157 13L-157 13L-101 0Q-105-8-105-16L-105-16Q-105-26-90.50-33Q-76-40-27-55L-27-55Q33-73 65-92.50Q97-112 108.50-135Q120-158 120-185L120-185Q120-232 88-260.50Q56-289 4.50-301Q-47-313-108-313L-108-313L-132-313L-144-264Q-117-256-105-243.50Q-93-231-93-214L-93-214Q-93-199-104-189.50Q-115-180-140-180L-140-180Q-180-180-180-204L-180-204Q-180-213-173-227L-173-227L-233-238Q-244-218-244-195L-244-195Q-244-166-218.50-146.50Q-193-127-142-127Z"/></svg>