<svg id="U0A28" viewBox="0 0 648 1000"><path transform="translate(0, 900) scale(1,-1)" d="M245 73L240 0Q181 0 142 19Q103 38 80.50 68Q58 98 48.50 131.50Q39 165 39 194L39 194Q39 271 98.50 338Q158 405 284 438L284 438L284 551L-7 551L-7 622L655 622L655 551L364 551L364 438Q491 405 550 338Q609 271 609 194L609 194Q609 165 600 131.50Q591 98 568.50 68Q546 38 507 19Q468 0 409 0L409 0L404 73Q471 73 500 107Q529 141 529 195L529 195Q529 257 477 305Q425 353 324 378L324 378Q223 353 171 305Q119 257 119 195L119 195Q119 141 148.50 107Q178 73 245 73L245 73Z"/></svg>