<svg id="U0A19" viewBox="0 0 579 1000"><path transform="translate(0, 900) scale(1,-1)" d="M496 13L418-8Q411 9 402.50 27.50Q394 46 383 65L383 65Q351 52 314.50 44.50Q278 37 236 37L236 37Q136 37 89 71.50Q42 106 42 164L42 164Q42 208 78.50 240.50Q115 273 188 273L188 273Q262 273 315 241Q368 209 407 161L407 161Q461 208 461 275L461 275Q461 293 455 309Q449 325 436 335L436 335Q425 344 410.50 350Q396 356 370.50 359Q345 362 301 362L301 362L119 362L89 391L89 551L-7 551L-7 622L586 622L586 551L170 551L170 433L323 433Q394 433 433.50 421.50Q473 410 499 386L499 386Q542 346 542 278L542 278Q542 228 517.50 182.50Q493 137 449 103L449 103Q463 79 475 56Q487 33 496 13L496 13ZM123 160L123 160Q123 106 238 106L238 106Q295 106 342 123L342 123Q313 157 275 179.50Q237 202 188 202L188 202Q123 202 123 160Z"/></svg>