<svg id="U0A10" viewBox="0 0 742 1000"><path transform="translate(0, 900) scale(1,-1)" d="M653 0L572 0L572 353Q488 331 425 285L425 285Q423 207 402.50 157.50Q382 108 341 108L341 108Q320 108 306 120.50Q292 133 292 166L292 166Q292 204 310.50 246Q329 288 356 317L356 317Q355 357 346 398.50Q337 440 324 465L324 465Q285 451 248.50 430.50Q212 410 188 391L188 391Q186 310 166 261Q146 212 104 212L104 212Q83 212 69.50 224.50Q56 237 56 271L56 271Q56 308 74 349.50Q92 391 118 419L118 419Q115 473 104.50 505.50Q94 538 84 551L84 551L-7 551L-7 622L144 622Q156 595 169 552.50Q182 510 185 468L185 468Q202 483 232.50 500Q263 517 300 531.50Q337 546 374 554L374 554Q386 534 396 502Q406 470 413 433.50Q420 397 423 365L423 365Q450 384 488.50 401.50Q527 419 572 430L572 430L572 622L749 622L749 551L653 551L653 0ZM625 598L583 577Q546 639 494 662.50Q442 686 368 686L368 686L349 686L344 759Q349 760 355 760Q361 760 365 760L365 760Q438 760 491.50 735.50Q545 711 584 663L584 663Q554 752 505 787Q456 822 383 822L383 822L368 822L364 896L383 896Q496 896 563 830Q630 764 659 615L659 615L618 612Q621 605 625 598L625 598Z"/></svg>