<svg id="U0A68" viewBox="0 0 551 1000"><path transform="translate(0, 900) scale(1,-1)" d="M200 148L200 148Q144 148 104.50 162.50Q65 177 65 214L65 214Q65 237 84 251Q103 265 143 265L143 265Q176 265 205.50 256Q235 247 266 230L266 230Q326 249 361.50 294Q397 339 397 402L397 402Q397 476 355 517.50Q313 559 228 559L228 559Q181 559 142 549Q103 539 71 524L71 524L43 590Q86 610 132 621Q178 632 235 632L235 632Q354 632 416.50 570Q479 508 479 404L479 404Q479 320 438.50 261Q398 202 331 173L331 173Q373 145 419 108Q465 71 501 35L501 35L443-18Q396 29 342.50 72.50Q289 116 235 150L235 150Q218 148 200 148Z"/></svg>