<svg id="U0B8E" viewBox="0 0 801 1000"><path transform="translate(0, 900) scale(1,-1)" d="M249-12L249-12Q196-12 152 14Q108 40 82.50 95.50Q57 151 57 239L57 239Q57 316 82 373Q107 430 150 468L150 468Q197 511 268 532.50Q339 554 451 554L451 554L784 554L784 482L614 482L614 0L528 0L528 482L439 482Q375 482 332 474.50Q289 467 261.50 454Q234 441 214 423L214 423Q156 372 141 291L141 291Q167 308 197.50 318Q228 328 261 328L261 328Q333 328 377.50 284Q422 240 422 165L422 165Q422 82 375.50 35Q329-12 249-12ZM247 258L247 258Q216 258 188.50 245.50Q161 233 136 212L136 212Q140 126 173 91Q206 56 253 56L253 56Q294 56 317 81.50Q340 107 340 155L340 155Q340 205 314 231.50Q288 258 247 258Z"/></svg>