<svg id="U0BC6" viewBox="0 0 901 1000"><path transform="translate(0, 900) scale(1,-1)" d="M400-12L400-12Q300-12 222.50 38.50Q145 89 101 180Q57 271 57 393L57 393Q57 505 93.50 589Q130 673 190.50 729.50Q251 786 325 814.50Q399 843 475 843L475 843Q555 843 611 823Q667 803 707 768L707 768Q745 735 768 689.50Q791 644 802 578Q813 512 813 415L813 415L813 0L727 0L727 365Q727 502 710.50 582.50Q694 663 648 709L648 709Q591 768 475 768L475 768Q424 768 366 748Q308 728 257.50 683Q207 638 175 565Q143 492 143 385L143 385Q143 276 180.50 202.50Q218 129 278 92L278 92Q268 113 262.50 137.50Q257 162 257 192L257 192Q257 234 276 269.50Q295 305 334 327Q373 349 432 349L432 349Q505 349 553.50 303Q602 257 602 173L602 173Q602 108 574.50 67Q547 26 501.50 7Q456-12 400-12ZM335 171L335 171Q335 141 343 113Q351 85 368 61L368 61Q389 58 411 58L411 58Q462 58 492.50 86.50Q523 115 523 173L523 173Q523 218 498.50 247.50Q474 277 430 277L430 277Q387 277 361 249Q335 221 335 171Z"/></svg>