<svg id="U0C6B" viewBox="0 0 711 1000"><path transform="translate(0, 900) scale(1,-1)" d="M255-12L255-12Q180-12 123.50 8.50Q67 29 20 59L20 59L60 134Q98 105 144.50 86Q191 67 240 67L240 67Q292 67 334.50 90Q377 113 402 167.50Q427 222 427 314L427 314Q427 433 377.50 493.50Q328 554 240 554L240 554Q193 554 146 535.50Q99 517 60 487L60 487L20 563Q72 596 126.50 614.50Q181 633 249 633L249 633Q314 633 370.50 603.50Q427 574 464 513Q501 452 509 357L509 357Q547 360 567 385.50Q587 411 587 448L587 448Q587 483 570 517.50Q553 552 514 582L514 582L582 632Q672 556 672 458L672 458Q672 400 645.50 365.50Q619 331 575 310L575 310Q622 289 647 253Q672 217 672 163L672 163Q672 111 647 67Q622 23 581-12L581-12L514 39Q552 69 569.50 102Q587 135 587 170L587 170Q587 207 568 232Q549 257 509 261L509 261Q497 130 428.50 59Q360-12 255-12Z"/></svg>