<svg id="U0C1E" viewBox="0 0 979 1000"><path transform="translate(0, 900) scale(1,-1)" d="M300-12L300-12Q192-12 142.50 27Q93 66 93 132L93 132Q93 195 144 232Q195 269 292 269L292 269Q374 269 436.50 240Q499 211 540 167L540 167Q571 215 571 286L571 286Q571 359 542 390Q513 421 469 421L469 421Q425 421 399.50 391Q374 361 366 318L366 318L288 318Q270 425 184 425L184 425Q147 425 129.50 407.50Q112 390 112 364L112 364Q112 348 116.50 331.50Q121 315 126 305L126 305L50 283Q42 300 35.50 321.50Q29 343 29 372L29 372Q29 411 49.50 439.50Q70 468 104.50 484Q139 500 181 500L181 500Q232 500 266.50 479.50Q301 459 327 414L327 414Q357 465 396 482.50Q435 500 476 500L476 500Q538 500 583.50 462.50Q629 425 645 357L645 357L742 357L735 500L828 500L821 357L948 357L948 285L653 285Q653 225 635.50 179.50Q618 134 586 99L586 99Q609 51 609 0L609 0Q609-25 605-49.50Q601-74 591-97L591-97L518-82Q525-65 528.50-44Q532-23 532 4L532 4Q532 28 526 50L526 50Q483 21 429 4.50Q375-12 300-12ZM176 132L176 132Q176 99 206 81Q236 63 302 63L302 63Q359 63 408 76Q457 89 491 115L491 115Q461 151 410 172.50Q359 194 292 194L292 194Q235 194 205.50 177.50Q176 161 176 132Z"/></svg>