<svg id="U0CEA" viewBox="0 0 688 1000"><path transform="translate(0, 900) scale(1,-1)" d="M361-12L361-12Q274-12 233 26Q192 64 192 119L192 119Q192 147 203 171Q214 195 240 211L240 211Q146 245 92 312Q38 379 38 484L38 484Q38 547 62 596Q86 645 131.50 673.50Q177 702 240 702L240 702Q279 702 311 689Q343 676 362 648.50Q381 621 381 576L381 576Q381 538 364.50 506.50Q348 475 311.50 456.50Q275 438 213 438L213 438Q191 438 167 442Q143 446 124 454L124 454Q128 415 149.50 375Q171 335 222.50 304Q274 273 368 259L368 259Q463 285 512.50 339.50Q562 394 562 460L562 460Q562 514 533.50 556Q505 598 444 632L444 632L498 702Q538 682 572.50 648Q607 614 628.50 568.50Q650 523 650 467L650 467Q650 403 624.50 355Q599 307 558.50 273Q518 239 472 218L472 218Q496 203 513.50 179.50Q531 156 531 119L531 119Q531 58 486 23Q441-12 361-12ZM234 629L234 629Q190 629 163 602Q136 575 127 528L127 528Q146 520 165 516Q184 512 202 512L202 512Q252 512 273.50 530.50Q295 549 295 578L295 578Q295 604 277.50 616.50Q260 629 234 629ZM361 62L361 62Q403 62 425.50 78.50Q448 95 448 123L448 123Q448 150 424 167Q400 184 362 191L362 191Q326 187 300.50 168.50Q275 150 275 122L275 122Q275 99 294 80.50Q313 62 361 62Z"/></svg>