<svg id="U0C34" viewBox="0 0 812 1000"><path transform="translate(0, 900) scale(1,-1)" d="M572-12L572-12Q521-12 480 4.50Q439 21 406 74L406 74Q373 21 332.50 4.50Q292-12 243-12L243-12Q174-12 129 19.50Q84 51 61.50 106.50Q39 162 39 232L39 232Q39 325 69.50 384Q100 443 147.50 471.50Q195 500 245 500L245 500Q310 500 346 466Q382 432 382 373L382 373Q382 312 344.50 273.50Q307 235 227 235L227 235Q196 235 168.50 244.50Q141 254 119 268L119 268Q118 255 118 242L118 242L118 234Q118 193 128 154.50Q138 116 165.50 91.50Q193 67 243 67L243 67Q305 67 333 98.50Q361 130 367 185L367 185L445 185Q450 133 478.50 100Q507 67 569 67L569 67Q621 67 647.50 91.50Q674 116 684 154.50Q694 193 694 234L694 234L694 242Q694 255 693 268L693 268Q671 254 643.50 244.50Q616 235 585 235L585 235Q505 235 467.50 273.50Q430 312 430 373L430 373Q430 432 466.50 466Q503 500 567 500L567 500Q618 500 665 471.50Q712 443 742.50 384Q773 325 773 232L773 232Q773 162 751 107Q729 52 684.50 20Q640-12 572-12ZM509 369L509 369Q509 339 529.50 322Q550 305 590 305L590 305Q619 305 641.50 314Q664 323 680 335L680 335Q665 381 635 405Q605 429 568 429L568 429Q541 429 525 413.50Q509 398 509 369ZM244 429L244 429Q207 429 177 405Q147 381 132 335L132 335Q148 323 170.50 314Q193 305 222 305L222 305Q262 305 282.50 322Q303 339 303 369L303 369Q303 398 287 413.50Q271 429 244 429Z"/></svg>