<svg id="U0D01" viewBox="0 0 1000 1000"><path transform="translate(500, 900) scale(1,-1)" d="M-278 652L-278 652Q-362 652-407 692.50Q-452 733-452 807L-452 807Q-452 836-444 862L-444 862L-376 848Q-379 838-380 827.50Q-381 817-381 809L-381 809Q-381 773-366.50 753Q-352 733-328 725Q-304 717-278 717L-278 717Q-237 717-206 738Q-175 759-175 811L-175 811Q-175 819-176 828.50Q-177 838-180 848L-180 848L-111 862Q-108 850-106 835Q-104 820-104 807L-104 807Q-104 734-150.50 693Q-197 652-278 652ZM-279 759L-279 759Q-301 759-315 773Q-329 787-329 810L-329 810Q-329 831-315 845.50Q-301 860-279 860L-279 860Q-257 860-242.50 845.50Q-228 831-228 810L-228 810Q-228 787-242.50 773Q-257 759-279 759Z"/></svg>