<svg id="U0D8A" viewBox="0 0 702 1000"><path transform="translate(0, 900) scale(1,-1)" d="M341-11L341-11Q197-11 116.50 64.50Q36 140 36 277L36 277Q36 360 68 417Q100 474 157.50 513Q215 552 289 579L289 579Q329 602 363.50 631Q398 660 435 702Q472 744 518 805L518 805L578 766Q538 711 505.50 674Q473 637 444 611.50Q415 586 385 566L385 566Q467 564 530 531Q593 498 629.50 436Q666 374 666 283L666 283Q666 190 626 124Q586 58 513.50 23.50Q441-11 341-11ZM375 717L375 717Q375 675 349.50 650.50Q324 626 282 626L282 626Q235 626 211 652Q187 678 187 715L187 715Q187 753 212.50 779Q238 805 281 805L281 805Q324 805 349.50 781.50Q375 758 375 717ZM323 716L323 716Q323 733 312.50 744.50Q302 756 282 756L282 756Q263 756 251.50 745Q240 734 240 714L240 714Q240 701 249.50 688.50Q259 676 281 676L281 676Q300 676 311.50 686.50Q323 697 323 716ZM710 622L710 622Q710 580 684.50 555.50Q659 531 617 531L617 531Q570 531 546 557Q522 583 522 620L522 620Q522 658 547.50 684Q573 710 616 710L616 710Q659 710 684.50 686Q710 662 710 622ZM658 622L658 622Q658 638 647.50 649.50Q637 661 617 661L617 661Q598 661 586.50 650Q575 639 575 619L575 619Q575 606 584 593.50Q593 581 615 581L615 581Q634 581 646 592Q658 603 658 622ZM109 279L109 279Q109 215 133.50 165.50Q158 116 210 88Q262 60 343 60L343 60Q430 60 485 89Q540 118 566.50 168Q593 218 593 281L593 281Q593 388 527.50 447Q462 506 349 506L349 506Q328 506 304.50 503.50Q281 501 258 497L258 497Q198 469 166 434.50Q134 400 121.50 360.50Q109 321 109 279Z"/></svg>