<svg id="U0D7D" viewBox="0 0 1198 1000"><path transform="translate(0, 900) scale(1,-1)" d="M731 566L731 566Q787 566 838 558.50Q889 551 932 533L932 533Q960 559 981 588Q1002 617 1002 651L1002 651Q1002 678 984 699Q966 720 924 720L924 720Q902 720 882 717Q862 714 849 709L849 709L830 778Q847 783 876 787.50Q905 792 938 792L938 792Q998 792 1030.50 770.50Q1063 749 1076 720Q1089 691 1089 668L1089 668Q1089 619 1065 579.50Q1041 540 1000 500L1000 500Q1082 453 1120.50 379.50Q1159 306 1159 221L1159 221Q1159 112 1107 50Q1055-12 957-12L957-12Q862-12 810.50 47.50Q759 107 759 217L759 217Q759 294 791 357.50Q823 421 877 476L877 476Q813 494 730 494L730 494Q693 494 657.50 490Q622 486 589 476L589 476Q643 433 677 367Q711 301 711 219L711 219Q711 112 658 50Q605-12 507-12L507-12Q409-12 356 50.50Q303 113 303 219L303 219Q303 309 341.50 376Q380 443 444 486L444 486Q424 493 404 495Q384 497 359 497L359 497Q284 497 232.50 467.50Q181 438 154.50 387.50Q128 337 128 273L128 273Q128 195 161 142Q194 89 250 54L250 54L200-9Q157 16 120.50 55.50Q84 95 61.50 150.50Q39 206 39 277L39 277Q39 359 75.50 424.50Q112 490 181.50 528Q251 566 351 566L351 566Q398 566 438 557Q478 548 517 528L517 528Q564 549 616.50 557.50Q669 566 731 566ZM391 221L391 221Q391 157 407.50 121.50Q424 86 450.50 72Q477 58 507 58L507 58Q538 58 564.50 71.50Q591 85 607 120.50Q623 156 623 221L623 221Q623 290 594 350Q565 410 518 447L518 447Q461 416 426 360.50Q391 305 391 221ZM847 215L847 215Q847 154 862.50 119.50Q878 85 903.50 71.50Q929 58 958 58L958 58Q1070 58 1070 215L1070 215Q1070 290 1040.50 349.50Q1011 409 949 446L949 446Q896 395 871.50 336Q847 277 847 215Z"/></svg>