<svg id="U0D58" viewBox="0 0 1223 1000"><path transform="translate(0, 900) scale(1,-1)" d="M606-12L606-12Q500-12 440 76L440 76Q414 35 376.50 11.50Q339-12 278-12L278-12Q207-12 153 21.50Q99 55 69 116.50Q39 178 39 262L39 262Q39 335 58.50 389.50Q78 444 112 486Q146 528 189 563L189 563L247 499Q198 465 162.50 409Q127 353 127 262L127 262Q127 200 147 154.50Q167 109 200.50 84.50Q234 60 276 60L276 60Q344 60 375 114L375 114Q389 138 393 174Q397 210 397 262L397 262L397 554L483 554L483 246Q483 184 491.50 151Q500 118 519 97L519 97Q533 80 557 70Q581 60 606 60L606 60Q666 60 695 94L695 94Q714 115 721.50 148.50Q729 182 729 237L729 237L729 554L815 554L815 262Q815 203 819 171.50Q823 140 835 117L835 117Q867 60 940 60L940 60Q1007 60 1049.50 120.50Q1092 181 1092 320L1092 320Q1092 414 1066.50 495.50Q1041 577 986 638.50Q931 700 841.50 735Q752 770 623 770L623 770Q550 770 490 762.50Q430 755 380 741L380 741L367 814Q424 829 487.50 836Q551 843 624 843L624 843Q770 843 875 804.50Q980 766 1047 696Q1114 626 1146.50 530.50Q1179 435 1179 322L1179 322Q1179 147 1116 67.50Q1053-12 941-12L941-12Q886-12 845.50 8Q805 28 772 76L772 76Q749 35 708.50 11.50Q668-12 606-12Z"/></svg>