<svg id="U0D5B" viewBox="0 0 958 1000"><path transform="translate(0, 900) scale(1,-1)" d="M617-12L617-12Q518-12 453 26.50Q388 65 355.50 129.50Q323 194 323 273L323 273Q323 345 346 395Q369 445 402 484L402 484L158 484L158 0L71 0L71 554L491 554L525 495Q496 475 470 446Q444 417 428 377Q412 337 412 283L412 283Q412 218 436 167.50Q460 117 507 88.50Q554 60 621 60L621 60Q687 60 734 89.50Q781 119 805.50 169Q830 219 830 281L830 281Q830 359 797 412.50Q764 466 708 500L708 500L758 563Q801 539 837.50 499Q874 459 896.50 403.50Q919 348 919 277L919 277Q919 195 884 129.50Q849 64 782 26Q715-12 617-12Z"/></svg>