<svg id="U0D83" viewBox="0 0 318 1000"><path transform="translate(0, 900) scale(1,-1)" d="M288 424L288 424Q288 367 253 333.50Q218 300 160 300L160 300Q96 300 63 335.50Q30 371 30 421L30 421Q30 474 65 509Q100 544 158 544L158 544Q217 544 252.50 511.50Q288 479 288 424ZM224 423L224 423Q224 449 207.50 466.50Q191 484 159 484L159 484Q130 484 112 467.50Q94 451 94 420L94 420Q94 398 109 379Q124 360 157 360L157 360Q186 360 205 376Q224 392 224 423ZM288 124L288 124Q288 67 253 33.50Q218 0 160 0L160 0Q96 0 63 35Q30 70 30 121L30 121Q30 174 65 209Q100 244 158 244L158 244Q217 244 252.50 211Q288 178 288 124ZM224 124L224 124Q224 149 207.50 166.50Q191 184 159 184L159 184Q130 184 112 167.50Q94 151 94 120L94 120Q94 98 109 79Q124 60 157 60L157 60Q186 60 205 76.50Q224 93 224 124Z"/></svg>