<svg id="U0D47" viewBox="0 0 595 1000"><path transform="translate(0, 900) scale(1,-1)" d="M364-12L364-12Q300-12 241.50 5Q183 22 137.50 57.50Q92 93 65.50 148.50Q39 204 39 281L39 281Q39 355 66 409Q93 463 139.50 498Q186 533 244.50 549.50Q303 566 366 566L366 566Q465 566 511.50 528Q558 490 558 431L558 431Q558 388 539 359Q520 330 488.50 315Q457 300 421 300L421 300Q368 300 336 318.50Q304 337 290.50 367.50Q277 398 277 432L277 432Q277 452 282.50 468.50Q288 485 292 495L292 495Q214 477 171 421.50Q128 366 128 280L128 280Q128 197 171 138Q214 79 287 61L287 61Q281 72 276 89Q271 106 271 126L271 126Q271 160 285 189Q299 218 330 236.50Q361 255 412 255L412 255Q450 255 482 240.50Q514 226 533.50 197Q553 168 553 125L553 125Q553 66 506.50 27Q460-12 364-12ZM348 434L348 434Q348 412 363.50 388.50Q379 365 417 365L417 365Q450 365 465 384.50Q480 404 480 429L480 429Q480 467 452.50 485Q425 503 389 503L389 503Q385 503 380.50 503Q376 503 372 503L372 503Q348 473 348 434ZM342 121L342 121Q342 80 368 51L368 51Q374 51 380 51L380 51Q418 51 446.50 69.50Q475 88 475 127L475 127Q475 152 460 171Q445 190 411 190L411 190Q373 190 357.50 167Q342 144 342 121Z"/></svg>