<svg id="U0E03" viewBox="0 0 549 1000"><path transform="translate(0, 900) scale(1,-1)" d="M272-10L272-10Q178-10 128 36Q78 82 78 173L78 173L78 236Q78 275 88 302Q98 329 114 349.50Q130 370 147 389L147 389Q163 406 174.50 420.50Q186 435 187 450L187 450L184 452Q173 444 158.50 438.50Q144 433 126 433L126 433Q90 433 67 457.50Q44 482 44 527L44 527L44 548L122 548Q122 491 154 491L154 491Q165 491 177 495Q189 499 199 507L199 507L218 548L267 548L267 503Q267 474 265 452Q263 430 254 409.50Q245 389 224 362L224 362Q209 343 196 327Q183 311 175 290Q167 269 167 234L167 234L167 178Q167 131 182 106Q197 81 221 72Q245 63 272 63L272 63Q324 63 352 86.50Q380 110 380 159L380 159L380 548L468 548L468 154Q468 77 417.50 33.50Q367-10 272-10Z"/></svg>