<svg id="U0FA3" viewBox="0 0 1000 1000"><path transform="translate(500, 900) scale(1,-1)" d="M82 245L573 245L553 159L390 159Q404 130 413.50 96.50Q423 63 427 29L427 29Q467-7 494-70.50Q521-134 535.50-233Q550-332 553-472L553-472L507-440Q496-303 475.50-217.50Q455-132 422-84L422-84Q404-151 351-188Q298-225 219-225L219-225Q128-225 84-182.50Q40-140 40-77L40-77Q40-4 94.50 40Q149 84 252 84L252 84Q282 84 309 80Q336 76 360 68L360 68Q344 115 312 159L312 159L62 159L82 245ZM100-92L100-92Q100-132 129-155Q158-178 219-178L219-178Q288-178 330-143Q372-108 376-37L376-37Q349-19 316-12Q283-5 243-5L243-5Q172-5 136-28.50Q100-52 100-92Z"/></svg>