<svg id="U0F32" viewBox="0 0 675 1000"><path transform="translate(0, 900) scale(1,-1)" d="M371 696L371 696Q408 696 435.50 681.50Q463 667 480 642L480 642Q497 645 515 645L515 645Q577 645 611 606.50Q645 568 645 514L645 514Q645 471 625 437.50Q605 404 559 363L559 363L565 343Q522 318 474 303Q426 288 384 288L384 288Q355 288 328 295Q301 302 283 315L283 315L283 357Q346 380 384.50 426Q423 472 423 528L423 528Q423 546 420 560L420 560Q406 550 389 534L389 534L204 363Q204 282 209.50 209.50Q215 137 227 60L227 60L184 52Q171 118 162 182.50Q153 247 151 313L151 313L63 232L30 268L150 379Q153 535 214 615.50Q275 696 371 696ZM207 432L352 566Q375 587 396 602L396 602Q375 619 341 619L341 619Q288 619 252 574Q216 529 207 432L207 432ZM506 550L506 550Q506 486 475 445Q444 404 382 370L382 370Q401 365 422 365L422 365Q449 365 479 369Q509 373 537 382L537 382L528 393Q566 429 579.50 456Q593 483 593 514L593 514Q593 551 572.50 572Q552 593 515 593L515 593Q508 593 501 593L501 593Q506 572 506 550Z"/></svg>