<svg id="U0F3C" viewBox="0 0 713 1000"><path transform="translate(0, 900) scale(1,-1)" d="M50-472L50-472L30-434Q85-417 122-396Q159-375 182.50-341Q206-307 219-252.50Q232-198 237.50-115.50Q243-33 244 86L244 86Q246 229 259.50 322Q273 415 303 471Q333 527 382 557.50Q431 588 503 605L503 605Q496 639 496 671L496 671Q496 756 529 804Q562 852 634 879L634 879Q692 901 724 920.50Q756 940 770.50 966.50Q785 993 792 1034L792 1034L833 1024Q824 933 791.50 880.50Q759 828 683 798L683 798Q638 780 611 754Q584 728 572.50 685.50Q561 643 561 576L561 576Q513 563 476.50 544.50Q440 526 414.50 494.50Q389 463 373 412Q357 361 349 283Q341 205 340 93L340 93Q339-31 330-119.50Q321-208 301.50-268Q282-328 249-366.50Q216-405 167-429.50Q118-454 50-472Z"/></svg>