<svg id="U0FCC" viewBox="0 0 780 1000"><path transform="translate(0, 900) scale(1,-1)" d="M390-12L390-12Q318-12 254.50 15Q191 42 142.50 90.50Q94 139 67 202.50Q40 266 40 338L40 338Q40 410 67 473.50Q94 537 142.50 585.50Q191 634 254.50 661Q318 688 390 688L390 688Q462 688 525.50 661Q589 634 637.50 585.50Q686 537 713 473.50Q740 410 740 338L740 338Q740 266 713 202.50Q686 139 637.50 90.50Q589 42 525.50 15Q462-12 390-12ZM213 507L213 507Q280 507 326.50 474Q373 441 404 370L404 370Q460 395 484.50 429Q509 463 509 515L509 515Q509 570 475.50 604Q442 638 390 638L390 638Q305 638 234.50 594Q164 550 126 480L126 480Q162 507 213 507ZM567 219L567 219Q622 219 656 252.50Q690 286 690 338L690 338Q690 423 646 493.50Q602 564 532 602L532 602Q559 566 559 515L559 515Q559 448 526 401.50Q493 355 422 324L422 324Q447 268 481 243.50Q515 219 567 219ZM410 571L410 571Q431 571 445.50 556.50Q460 542 460 521L460 521Q460 500 445.50 485.50Q431 471 410 471L410 471Q389 471 374.50 485.50Q360 500 360 521L360 521Q360 542 374.50 556.50Q389 571 410 571ZM90 338L90 338Q90 253 134 182.50Q178 112 248 74L248 74Q221 110 221 161L221 161Q221 228 254 274.50Q287 321 358 352L358 352Q333 408 299 432.50Q265 457 213 457L213 457Q158 457 124 423.50Q90 390 90 338ZM157 358L157 358Q157 379 171.50 393.50Q186 408 207 408L207 408Q228 408 242.50 393.50Q257 379 257 358L257 358Q257 337 242.50 322.50Q228 308 207 308L207 308Q186 308 171.50 322.50Q157 337 157 358ZM523 318L523 318Q523 339 537.50 353.50Q552 368 573 368L573 368Q594 368 608.50 353.50Q623 339 623 318L623 318Q623 297 608.50 282.50Q594 268 573 268L573 268Q552 268 537.50 282.50Q523 297 523 318ZM390 38L390 38Q475 38 545.50 82Q616 126 654 196L654 196Q618 169 567 169L567 169Q500 169 453.50 202Q407 235 376 306L376 306Q320 281 295.50 247Q271 213 271 161L271 161Q271 106 304.50 72Q338 38 390 38ZM370 205L370 205Q391 205 405.50 190.50Q420 176 420 155L420 155Q420 134 405.50 119.50Q391 105 370 105L370 105Q349 105 334.50 119.50Q320 134 320 155L320 155Q320 176 334.50 190.50Q349 205 370 205Z"/></svg>