<svg id="U102EE" viewBox="0 0 855 1000"><path transform="translate(0, 900) scale(1,-1)" d="M45 31L45 31L16 87Q132 148 204 202.50Q276 257 309.50 312Q343 367 343 427L343 427Q343 484 319 518.50Q295 553 265 583L265 583L327 647Q348 627 373 597Q398 567 415.50 525.50Q433 484 433 429L433 429Q433 356 390 289Q347 222 252 159L252 159Q344 185 419.50 215.50Q495 246 549.50 288Q604 330 634 390Q664 450 664 534L664 534Q664 616 635 661L635 661L710 710Q754 643 754 534L754 534Q754 437 720 366Q686 295 629.50 246Q573 197 503.50 164Q434 131 361.50 110.50Q289 90 224.50 77Q160 64 112 54Q64 44 45 31Z"/></svg>