<svg id="U1032F" viewBox="0 0 598 1000"><path transform="translate(0, 900) scale(1,-1)" d="M323 246L323 246Q434 219 479 183.50Q524 148 524 119L524 119Q524 87 437.50 48Q351 9 171-16L171-16L117 8L117 707L168 728Q288 712 367 685.50Q446 659 485 631Q524 603 524 581L524 581Q524 552 479 522Q434 492 323 462L323 462Q411 442 460.50 411Q510 380 510 352L510 352Q510 325 460.50 295.50Q411 266 323 246ZM415 575L415 575Q415 589 360 608Q305 627 203 645L203 645L203 479Q286 505 332 523Q378 541 396.50 553.50Q415 566 415 575ZM405 352L405 352Q405 362 386 374Q367 386 336.50 398.50Q306 411 270.50 422Q235 433 203 441L203 441L203 264Q235 272 270.50 283Q306 294 336.50 306.50Q367 319 386 331Q405 343 405 352ZM203 228L203 61Q304 79 359.50 98Q415 117 415 130L415 130Q415 139 396.50 153Q378 167 332 186Q286 205 203 228L203 228Z"/></svg>