<svg id="U109BE" viewBox="0 0 452 1000"><path transform="translate(0, 900) scale(1,-1)" d="M289 643L289 643Q289 651 292 663Q295 675 301.50 685Q308 695 319 695L319 695Q327 695 338.50 687Q350 679 361 669Q372 659 377 651L377 651Q394 629 403 602Q412 575 412 542L412 542Q412 491 392 457Q372 423 338.50 403Q305 383 263.50 373Q222 363 180 359L180 359Q180 297 171.50 234.50Q163 172 150.50 120Q138 68 126 37L126 37Q119 18 109.50 5Q100-8 76-8L76-8Q60-8 55-2.50Q50 3 50 10L50 10Q50 18 54 28Q58 38 61 47L61 47Q82 104 95 182.50Q108 261 108 352L108 352Q108 454 101 517.50Q94 581 86.50 615Q79 649 79 659L79 659Q79 670 83.50 675Q88 680 101 680L101 680Q126 680 136.50 668.50Q147 657 151 640L151 640Q165 580 171 530.50Q177 481 179 428L179 428L193 429Q269 435 304.50 465.50Q340 496 340 545L340 545Q340 574 327.50 592.50Q315 611 298 626L298 626Q289 635 289 643Z"/></svg>