<svg id="U10AD1" viewBox="0 0 1047 1000"><path transform="translate(0, 900) scale(1,-1)" d="M632 313L632 313Q610 313 590.50 329Q571 345 571 367L571 367Q571 389 583 405Q595 421 617 421L617 421Q640 421 659.50 405Q679 389 679 367L679 367Q679 345 667 329Q655 313 632 313ZM931-171L146-171Q97-171 70.50-151.50Q44-132 44-99L44-99Q44-77 56-59.50Q68-42 99-42L99-42Q114-42 127.50-49Q141-56 154-65L154-65Q168-75 185-82.50Q202-90 224-90L224-90L847-90Q874-90 883.50-85.50Q893-81 893-71L893-71Q893-62 886-43Q879-24 869-1.50Q859 21 848 40Q837 59 828 68L828 68Q809 61 789.50 58Q770 55 753 55L753 55Q710 55 678 78.50Q646 102 646 154L646 154Q646 209 675.50 231.50Q705 254 744 254L744 254Q783 254 814 235Q845 216 884 163L884 163Q896 147 911.50 117.50Q927 88 943 52Q959 16 972.50-19.50Q986-55 994.50-83.50Q1003-112 1003-126L1003-126Q1003-151 983-161Q963-171 931-171L931-171Z"/></svg>