<svg id="U100B" viewBox="0 0 666 1000"><path transform="translate(0, 900) scale(1,-1)" d="M333-10L333-10Q251-10 190 27Q129 64 95.50 127Q62 190 62 269L62 269Q62 350 95.50 412.50Q129 475 190 510.50Q251 546 333 546L333 546Q418 546 483 502Q548 458 575 383L575 383L505 347Q480 409 435.50 440.50Q391 472 332 472L332 472Q251 472 202 416.50Q153 361 153 270L153 270Q153 175 201.50 119.50Q250 64 332 64L332 64Q391 64 435.50 95.50Q480 127 505 189L505 189L575 153L575-83Q526-119 462.50-141.50Q399-164 332-164L332-164Q289-164 248-155.50Q207-147 169-132L169-132L169-218Q204-231 242.50-237.50Q281-244 332-244L332-244Q397-244 457.50-227.50Q518-211 575-181L575-181L575-399L700-399L700-467L487-467L487-296Q414-318 332-318L332-318Q205-318 91-265L91-265L91 0Q141-40 204.50-65Q268-90 332-90L332-90Q416-90 487-49L487-49L487 42Q457 15 420.50 2.50Q384-10 333-10Z"/></svg>