<svg id="U10AC7" viewBox="0 0 451 1000"><path transform="translate(0, 900) scale(1,-1)" d="M377-45L377-45Q366-45 355.50-29.50Q345-14 329 15L329 15Q319 34 304.50 55Q290 76 273.50 90.50Q257 105 238 105L238 105Q216 105 206.50 86Q197 67 192 46L192 46Q186 23 181.50 13Q177 3 163 3L163 3Q145 3 126.50 17.50Q108 32 93 53.50Q78 75 68.50 98Q59 121 59 138L59 138Q59 173 76 206.50Q93 240 120 262Q147 284 176 284L176 284Q210 284 238.50 264.50Q267 245 290.50 215Q314 185 332 152Q350 119 361.50 90.50Q373 62 377 48L377 48Q382 32 387 13.50Q392-5 392-20L392-20Q392-45 377-45Z"/></svg>