<svg id="U1089C" viewBox="0 0 483 1000"><path transform="translate(0, 900) scale(1,-1)" d="M135-163L135-163Q106-163 98-151Q90-139 90-112L90-112L90 499Q90 526 97.50 538Q105 550 133 550L133 550Q162 550 170 538Q178 526 178 499L178 499L178 458L288 520Q299 526 308 530Q317 534 326 534L326 534Q340 534 349 518.50Q358 503 358 485L358 485Q358 473 350 466.50Q342 460 323 449L323 449L178 368L178 260L363 361Q374 367 383 371Q392 375 401 375L401 375Q415 375 424 359.50Q433 344 433 326L433 326Q433 314 425 307.50Q417 301 398 290L398 290L178 170L178-112Q178-139 171-151Q164-163 135-163Z"/></svg>