<svg id="U10D35" viewBox="0 0 778 1000"><path transform="translate(0, 900) scale(1,-1)" d="M593 78L593 0L392 0Q298 0 224 45.50Q150 91 107.50 170Q65 249 65 351L65 351Q65 473 131 570.50Q197 668 323 732L323 732L366 664Q154 557 154 350L154 350Q154 270 183.50 209.50Q213 149 266.50 115Q320 81 392 78L392 78L392 113Q392 238 428.50 316.50Q465 395 548 446L548 446Q515 460 494.50 490.50Q474 521 474 557L474 557Q474 593 493 622.50Q512 652 544 669.50Q576 687 615 687L615 687Q675 687 714 652Q753 617 753 563L753 563Q753 522 730.50 489Q708 456 659 427L659 427L643 417Q593 386 561.50 357.50Q530 329 512.50 296.50Q495 264 488 220Q481 176 481 113L481 113L481 78L593 78ZM614 499L614 499Q639 499 654.50 514.50Q670 530 670 555L670 555Q670 580 654.50 596.50Q639 613 615 613L615 613Q590 613 574 596.50Q558 580 558 554L558 554Q558 529 573.50 514Q589 499 614 499Z"/></svg>