<svg id="U10A97" viewBox="0 0 733 1000"><path transform="translate(0, 900) scale(1,-1)" d="M490-15L490-15Q478-15 462-4L462-4Q442 9 442 26L442 26Q442 34 447 42Q452 50 459 60L459 60Q509 121 536 157.50Q563 194 574 219Q585 244 585 270L585 270Q585 298 576 322Q567 346 551 366L551 366L396 161Q390 153 382 145.50Q374 138 363 138L363 138Q351 138 335 149L335 149Q315 162 315 179L315 179Q315 187 320 195Q325 203 332 213L332 213L493 423Q477 435 460 446.50Q443 458 426 469L426 469Q422 471 421 472L421 472L264 265Q258 257 250 249.50Q242 242 231 242L231 242Q219 242 203 253L203 253Q183 266 183 283L183 283Q183 291 188 299Q193 307 200 317L200 317L351 514Q331 525 311.50 535Q292 545 274 553L274 553L135 371Q129 364 121 356Q113 348 102 348L102 348Q90 348 74 359L74 359Q54 372 54 389L54 389Q54 397 59 405Q64 413 71 423L71 423L196 584Q167 595 138.50 602Q110 609 81 615L81 615Q60 620 50 627Q40 634 40 655L40 655Q40 690 68 690L68 690Q82 690 96.50 688Q111 686 127 682L127 682Q183 669 263.50 641Q344 613 428 563L428 563Q557 487 615 418Q673 349 673 266L673 266Q673 243 666.50 221.50Q660 200 644 173Q628 146 598.50 106.50Q569 67 523 8L523 8Q515-2 508-8.50Q501-15 490-15Z"/></svg>