<svg id="U1048F" viewBox="0 0 460 1000"><path transform="translate(0, 900) scale(1,-1)" d="M109 0L20 0L36 164Q51 313 192 313L192 313Q218 313 242.50 308.50Q267 304 287 293L287 293L297 397Q280 389 260.50 384Q241 379 218 379L218 379Q152 379 114 412.50Q76 446 76 513L76 513Q76 519 76 526Q76 533 77 540L77 540L95 714L185 714L170 563Q169 555 168.50 546.50Q168 538 168 530L168 530Q168 502 180 480Q192 458 232 458L232 458Q272 458 290.50 479Q309 500 313 540L313 540L332 714L421 714L346 0L256 0L274 172Q274 201 255 218Q236 235 195 235L195 235Q161 235 146 214Q131 193 126 153L126 153L109 0Z"/></svg>