<svg id="U10505" viewBox="0 0 616 1000"><path transform="translate(0, 900) scale(1,-1)" d="M485 0L131 0Q99 0 89.50 13Q80 26 80 51L80 51L80 364Q80 377 94.50 383.50Q109 390 125 390L125 390Q142 390 156 383.50Q170 377 170 364L170 364L170 60L446 60L446 724Q446 737 460.50 743.50Q475 750 491 750L491 750Q508 750 522 743.50Q536 737 536 724L536 724L536 51Q536 26 526.50 13Q517 0 485 0L485 0ZM125 465L125 465Q103 465 88 480Q73 495 73 517L73 517Q73 539 88 554.50Q103 570 125 570L125 570Q147 570 162.50 554.50Q178 539 178 517L178 517Q178 495 162.50 480Q147 465 125 465Z"/></svg>