<svg id="U1007" viewBox="0 0 684 1000"><path transform="translate(0, 900) scale(1,-1)" d="M336-10L336-10Q240-10 178 29Q116 68 85.50 132Q55 196 55 269L55 269Q55 350 90.50 412.50Q126 475 189 510.50Q252 546 336 546L336 546Q409 546 466.50 527Q524 508 558 469Q592 430 592 370L592 370Q592 359 591 342.50Q590 326 589 311.50Q588 297 588 291L588 291Q588 259 605.50 248.50Q623 238 663 238L663 238L663 165L645 165Q584 165 552 193.50Q520 222 517 270L517 270Q494 259 460 259L460 259Q406 259 369.50 293Q333 327 333 378L333 378Q333 408 346 431Q359 454 379 469L379 469Q356 472 335 472L335 472Q279 472 236 447.50Q193 423 169.50 379Q146 335 146 277L146 277Q146 180 192 122Q238 64 341 64L341 64Q447 64 506 119L506 119L565 59Q530 30 471.50 10Q413-10 336-10ZM459 324L459 324Q482 324 498.50 340Q515 356 515 379L515 379Q515 402 498.50 418Q482 434 459 434L459 434Q437 434 420.50 418Q404 402 404 379L404 379Q404 356 420.50 340Q437 324 459 324Z"/></svg>