<svg id="U109AD" viewBox="0 0 670 1000"><path transform="translate(0, 900) scale(1,-1)" d="M254 439L254 439Q349 439 414.50 446Q480 453 515 459.50Q550 466 554 466L554 466Q565 466 570.50 456Q576 446 576 432L576 432Q576 425 574 414Q572 403 562 401L562 401Q534 394 483.50 387Q433 380 372.50 375.50Q312 371 255 371L255 371Q209 371 168.50 372.50Q128 374 94 376L94 376Q97 262 125 194.50Q153 127 210.50 97.50Q268 68 359 68L359 68Q412 68 460.50 76Q509 84 548 95Q587 106 611.50 114Q636 122 642 122L642 122Q650 122 655 113Q660 104 660 91L660 91Q660 79 655.50 68.50Q651 58 640 54L640 54Q605 42 558 29.50Q511 17 460 8.50Q409 0 360 0L360 0Q237 0 166 40Q95 80 64 164.50Q33 249 30 382L30 382L30 398Q30 420 34.50 434Q39 448 52 448L52 448Q60 448 80.50 445.50Q101 443 142.50 441Q184 439 254 439Z"/></svg>