<svg id="U10D0E" viewBox="0 0 667 1000"><path transform="translate(0, 900) scale(1,-1)" d="M10 16L10 16L10 78L173 78Q201 78 225 83L225 83Q175 148 175 251L175 251L175 557Q175 636 212 680Q249 724 315 724L315 724Q381 724 417 680.50Q453 637 453 557L453 557L453 289Q453 155 383 80L383 80Q396 78 410 78L410 78L465 78Q518 78 543 107.50Q568 137 568 199L568 199L568 227L657 227L657 199Q657 102 608.50 51Q560 0 465 0L465 0L414 0Q350 0 300 23L300 23Q243 0 169 0L169 0L78 0Q64 0 42.50 5Q21 10 10 16ZM264 557L264 251Q264 166 305 121L305 121Q364 173 364 289L364 289L364 557Q364 646 315 646L315 646Q264 646 264 557L264 557Z"/></svg>