<svg id="U104F" viewBox="0 0 1137 1000"><path transform="translate(0, 900) scale(1,-1)" d="M1046 0L958 0L958 329Q958 415 942 471.50Q926 528 893 564.50Q860 601 807 626L807 626Q727 665 689.50 713Q652 761 652 830L652 830Q652 879 677.50 918Q703 957 746.50 980Q790 1003 843 1003L843 1003Q918 1003 967 971Q1016 939 1039 882L1039 882L974 848Q939 937 851 937L851 937Q819 937 793 922Q767 907 752 883Q737 859 737 832L737 832Q737 786 762 756Q787 726 848 696L848 696Q928 657 971 600.50Q1014 544 1030 470Q1046 396 1046 303L1046 303L1046 0ZM326-10L326-10Q243-10 182 26Q121 62 88 125Q55 188 55 267L55 267Q55 349 88.50 411.50Q122 474 183 510Q244 546 326 546L326 546Q389 546 439.50 524.50Q490 503 525 465L525 465Q545 503 581 524.50Q617 546 666 546L666 546Q749 546 795.50 495Q842 444 842 362L842 362L842 0L754 0L754 363Q754 413 731.50 442.50Q709 472 664 472L664 472Q632 472 606.50 449.50Q581 427 576 382L576 382Q527 349 467 325.50Q407 302 341 302L341 302Q281 302 236.50 318Q192 334 160 357L160 357Q153 340 149.50 316Q146 292 146 266L146 266Q146 243 150 219.50Q154 196 160 179L160 179Q192 202 236.50 218Q281 234 341 234L341 234Q407 234 467 210.50Q527 187 576 154L576 154Q547 81 483 35.50Q419-10 326-10ZM344 372L344 372Q374 372 409.50 381Q445 390 477 410L477 410Q427 472 325 472L325 472Q274 472 243 457Q212 442 194 419L194 419Q220 399 254.50 385.50Q289 372 344 372ZM325 64L325 64Q427 64 477 126L477 126Q445 146 409.50 155Q374 164 344 164L344 164Q289 164 254.50 151Q220 138 194 117L194 117Q212 94 243 79Q274 64 325 64Z"/></svg>