<svg id="U1071F" viewBox="0 0 945 1000"><path transform="translate(0, 900) scale(1,-1)" d="M440 24L322-76L278-27L310 0L245 0L245 217L140 217Q130 174 125 128Q120 82 120 33L120 33L120 0L50 0L50 30Q50 123 67.50 208Q85 293 114 364.50Q143 436 177.50 490.50Q212 545 245 577L245 577L245 632L149 632L149 695L245 695L245 800L315 800L315 695L411 695L411 632L315 632L315 577Q351 542 388.50 480.50Q426 419 456 337.50Q486 256 500 160L500 160L760 380L756 380Q680 380 630.50 399.50Q581 419 552 449.50Q523 480 511 516Q499 552 499 585L499 585Q499 618 511 655.50Q523 693 552 725.50Q581 758 631 779Q681 800 756 800L756 800L845 800L845 0L775 0L775 310L508 82Q509 69 509.50 56Q510 43 510 30L510 30L510 0L440 0L440 24ZM745 443L745 443L775 443L775 737L745 737Q706 737 665.50 720.50Q625 704 597 670.50Q569 637 569 585L569 585Q569 533 597 501.50Q625 470 665.50 456.50Q706 443 745 443ZM157 280L157 280L245 280L245 474Q219 434 196.50 385Q174 336 157 280ZM315 474L315 280L403 280Q386 336 363.50 385Q341 434 315 474L315 474ZM315 217L315 4L437 107Q434 136 430 163.50Q426 191 420 217L420 217L315 217Z"/></svg>