<svg id="U106AC" viewBox="0 0 676 1000"><path transform="translate(0, 900) scale(1,-1)" d="M484 0L199 0L199 44Q199 90 184.50 122.50Q170 155 149 179.50Q128 204 107 226.50Q86 249 71.50 275Q57 301 57 336L57 336Q57 383 86.50 433.50Q116 484 168 523L168 523Q163 522 158 522Q153 522 148 522L148 522Q105 522 77.50 551Q50 580 50 620L50 620Q50 661 77.50 690.50Q105 720 148 720L148 720Q153 720 158 719.50Q163 719 167 719L167 719L161 740L161 800L522 800L522 740L463 556Q512 531 548.50 494Q585 457 605.50 416Q626 375 626 336L626 336Q626 301 611.50 275Q597 249 576 226.50Q555 204 534 179.50Q513 155 498.50 122.50Q484 90 484 44L484 44L484 0ZM262 63L262 63L421 63Q421 113 434.50 146Q448 179 468.50 201.50Q489 224 509 243.50Q529 263 542.50 284Q556 305 556 336L556 336Q556 367 541 400.50Q526 434 490.50 466Q455 498 394 523L394 523L394 564L449 737L234 737L289 564L289 523Q228 498 192.50 466Q157 434 142 400.50Q127 367 127 336L127 336Q127 305 140.50 284Q154 263 174 243.50Q194 224 214.50 201.50Q235 179 248.50 146Q262 113 262 63ZM149 575L149 575Q164 575 180.50 577.50Q197 580 211 584L211 584L185 663Q176 665 166.50 666Q157 667 149 667L149 667Q130 667 117 653.50Q104 640 104 620L104 620Q104 601 117 588Q130 575 149 575Z"/></svg>