<svg id="U100CF" viewBox="0 0 825 1000"><path transform="translate(0, 900) scale(1,-1)" d="M66 397L66 397Q66 469 93 531.50Q120 594 167.50 641.50Q215 689 278 716Q341 743 413 743L413 743Q485 743 547.50 716Q610 689 657.50 641.50Q705 594 732 531.50Q759 469 759 397L759 397Q759 325 732 262.50Q705 200 657.50 152.50Q610 105 547.50 78Q485 51 413 51L413 51Q341 51 278 78Q215 105 167.50 152.50Q120 200 93 262.50Q66 325 66 397ZM413 678L413 678Q392 678 374 675L374 675Q376 648 386 628Q396 608 413 608L413 608Q430 608 440.50 629Q451 650 452 675L452 675Q433 678 413 678ZM675 484L675 484Q654 546 608 594Q562 642 500 663L500 663Q497 625 482.50 595.50Q468 566 442 555L442 555L442 430L573 430Q585 453 612 466.50Q639 480 675 484ZM325 663L325 663Q264 642 217 594Q170 546 150 484L150 484Q185 481 212 467Q239 453 251 430L251 430L378 430L378 558Q355 570 341.50 598Q328 626 325 663ZM136 397L136 397Q136 387 136.50 377.50Q137 368 138 358L138 358Q163 360 182 370.50Q201 381 201 397L201 397Q201 413 182 423Q163 433 138 435L138 435Q137 426 136.50 416.50Q136 407 136 397ZM689 397L689 397Q689 417 686 435L686 435Q662 433 643 423Q624 413 624 397L624 397Q624 381 643 370.50Q662 360 686 358L686 358Q689 378 689 397ZM499 130L499 130Q561 152 608 200Q655 248 675 311L675 311Q638 314 610.50 328Q583 342 572 367L572 367L442 367L442 238Q468 228 482.50 198.50Q497 169 499 130ZM149 311L149 311Q169 248 216 200.50Q263 153 324 131L324 131Q327 167 341 195Q355 223 378 235L378 235L378 367L253 367Q242 342 214 328Q186 314 149 311ZM413 116L413 116Q433 116 452 119L452 119Q451 145 440.50 165.50Q430 186 413 186L413 186Q396 186 386 165.50Q376 145 374 119L374 119Q392 116 413 116Z"/></svg>