<svg id="U1063A" viewBox="0 0 607 1000"><path transform="translate(0, 900) scale(1,-1)" d="M346 0L261 0Q250 44 239 115.50Q228 187 220 273.50Q212 360 208 449L208 449Q130 469 90 516.50Q50 564 50 627L50 627Q50 680 78.50 722.50Q107 765 163.50 790Q220 815 303 815L303 815Q387 815 443.50 790Q500 765 528.50 722.50Q557 680 557 627L557 627Q557 564 517 516.50Q477 469 398 449L398 449Q395 360 386.50 273.50Q378 187 367.50 115.50Q357 44 346 0L346 0ZM303 77L303 77Q318 191 327 308Q336 425 336 552L336 552L336 669L401 669L401 554Q401 544 400.50 532.50Q400 521 399 510L399 510Q446 526 469.50 557.50Q493 589 493 627L493 627Q493 681 447 719.50Q401 758 303 758L303 758Q203 758 158.50 719.50Q114 681 114 627L114 627Q114 588 136.50 556.50Q159 525 208 509L208 509Q208 516 207 529.50Q206 543 206 554L206 554L206 669L271 669L271 552Q271 426 280 308.50Q289 191 303 77Z"/></svg>