<svg id="U10D77" viewBox="0 0 64 64"><path transform="translate(0, 57.6) scale(1,-1)" d="M0 52L0-4L64-4L64 52ZM8 48L16 48L16 44L20 44L20 32L16 32L16 28L8 28L8 32L16 32L16 44L8 44L8 32L4 32L4 44L8 44ZM32 48L36 48L36 32L40 32L40 28L28 28L28 32L32 32L32 40L28 40L28 44L32 44ZM48 48L56 48L56 44L60 44L60 32L56 32L56 28L48 28L48 32L56 32L56 44L48 44L48 32L44 32L44 44L48 44ZM4 20L16 20L16 16L8 16L8 4L16 4L16 16L20 16L20 4L16 4L16 0L4 0ZM24 20L40 20L40 12L36 12L36 8L32 8L32 0L28 0L28 8L32 8L32 12L36 12L36 16L24 16ZM44 20L60 20L60 12L56 12L56 8L52 8L52 0L48 0L48 8L52 8L52 12L56 12L56 16L44 16Z"/></svg>