<svg id="U10F54" viewBox="0 0 1618 1000"><path transform="translate(0, 900) scale(1,-1)" d="M429 14L436 61Q457 86 464.50 114.50Q472 143 472 169L472 169Q472 206 456.50 237Q441 268 409.50 287Q378 306 329 306L329 306Q279 306 238.50 280Q198 254 175 206Q152 158 152 92L152 92Q152-9 202-80Q252-151 339-188Q426-225 538-225L538-225Q561-225 585.50-224Q610-223 633-220L633-220L633-294Q604-298 576-300Q548-302 522-302L522-302Q408-302 322-271.50Q236-241 179-187Q122-133 93.50-63Q65 7 65 86L65 86Q65 175 100 243Q135 311 196 350Q257 389 333 389L333 389Q398 389 445.50 363Q493 337 519 290Q545 243 545 181L545 181Q545 155 539.50 131Q534 107 519 76L519 76L557 76Q619 76 660 107Q701 138 703 199L703 199Q696 243 692 288.50Q688 334 687 382L687 382L751 382L772 269Q793 154 814 99.50Q835 45 875 45L875 45Q916 45 932 98.50Q948 152 961 254L961 254L977 382L1043 382Q1043 342 1042.50 301.50Q1042 261 1038 217L1038 217Q1040 161 1062 130.50Q1084 100 1118 88Q1152 76 1189 76L1189 76L1274 76Q1280 76 1298 75.50Q1316 75 1338.50 74.50Q1361 74 1381.50 73.50Q1402 73 1414 72L1414 72L1414 78Q1380 98 1343.50 132.50Q1307 167 1273 207.50Q1239 248 1212.50 287Q1186 326 1174 353L1174 353L1245 391Q1262 363 1285 329.50Q1308 296 1336 262L1336 262Q1378 303 1424.50 338Q1471 373 1509 394L1509 394L1550 334Q1514 313 1469.50 279Q1425 245 1384 209L1384 209Q1410 182 1440.50 151.50Q1471 121 1500 97.50Q1529 74 1548 65L1548 65L1548 0L1198 0Q1117 0 1072 20Q1027 40 1010 75L1010 75Q994 31 959.50 0.50Q925-30 866-30L866-30Q817-30 786.50-5.50Q756 19 733 74L733 74Q699 34 649 16Q599-2 543-2L543-2Q531-2 510-0.50Q489 1 467 4.50Q445 8 429 14L429 14Z"/></svg>