<svg id="U10643" viewBox="0 0 619 1000"><path transform="translate(0, 900) scale(1,-1)" d="M556 753L381 684L358 741L533 815L556 753ZM201 434L201 434L177 488Q218 499 245.50 534Q273 569 273 614L273 614Q273 662 242 698.50Q211 735 166 743L166 743L180 799Q225 791 260.50 764.50Q296 738 316.50 699.50Q337 661 337 614L337 614Q337 550 298.50 500.50Q260 451 201 434ZM569 586L379 586L379 649L569 649L569 586ZM130 198L60 198L60 563L130 563L130 198ZM556 482L533 420L358 494L381 551L556 482ZM556 313L381 244L358 301L533 375L556 313ZM158 10L158 10L148 68Q181 69 210.50 85.50Q240 102 258 131.50Q276 161 276 199L276 199Q276 237 255 269.50Q234 302 200 318L200 318L234 372Q284 348 312 302Q340 256 340 202L340 202Q340 146 314.50 103.50Q289 61 248 36.50Q207 12 158 10ZM569 146L379 146L379 209L569 209L569 146ZM556 42L533-20L358 54L381 111L556 42Z"/></svg>