<svg id="U10FF6" viewBox="0 0 786 1000"><path transform="translate(0, 900) scale(1,-1)" d="M384 70L384 70Q442 70 471 103Q500 136 505 186.50Q510 237 496 290L496 290L479 348Q460 413 472 464Q484 515 524 544Q564 573 628 573L628 573Q644 573 656 570L656 570L645 484Q635 486 627 486L627 486Q578 486 560.50 453.50Q543 421 556 378L556 378L577 310Q593 246 590.50 188.50Q588 131 566 86Q544 41 501 15.50Q458-10 392-10L392-10Q307-10 251.50 30Q196 70 169 137Q142 204 142 284L142 284Q142 310 146 347Q150 384 157.50 424Q165 464 174 502.50Q183 541 192 570L192 570L292 570Q274 525 261.50 470Q249 415 243 364Q237 313 237 279L237 279Q237 228 251.50 180Q266 132 298.50 101Q331 70 384 70Z"/></svg>