<svg id="U10D1" viewBox="0 0 606 1000"><path transform="translate(0, 900) scale(1,-1)" d="M360 541L360 541Q446 524 498.50 454Q551 384 551 269L551 269Q551 136 483.50 63Q416-10 301-10L301-10Q230-10 174.50 22.50Q119 55 87 117.50Q55 180 55 269L55 269Q55 394 114 465Q173 536 276 545L276 545Q281 554 284.50 566.50Q288 579 288 595L288 595Q288 614 278.50 626.50Q269 639 255 650L255 650Q234 667 214 690.50Q194 714 194 760L194 760L282 760Q282 737 293 721Q304 705 320 691L320 691Q340 674 357 653.50Q374 633 374 601L374 601Q374 567 360 541ZM303 63L303 63Q384 63 422 118.50Q460 174 460 269L460 269Q460 364 422 418Q384 472 302 472L302 472Q220 472 183 418Q146 364 146 269L146 269Q146 174 183.50 118.50Q221 63 303 63Z"/></svg>