<svg id="U10B8A" viewBox="0 0 544 1000"><path transform="translate(0, 900) scale(1,-1)" d="M216-12L216-12Q172-12 130-7Q88-2 58.50 3.50Q29 9 23 10L23 10Q13 13 6.50 24.50Q0 36 0 52L0 52Q0 68 5.50 81Q11 94 23 94L23 94Q30 94 64 88L64 88Q79 86 104 82Q129 78 158 75Q187 72 213 72L213 72Q284 72 327.50 81Q371 90 391 114Q411 138 411 183L411 183Q411 217 389 233.50Q367 250 338.50 255.50Q310 261 288 261L288 261Q256 261 235.50 257.50Q215 254 204 250L204 250Q184 243 172 243L172 243Q153 243 148.50 262Q144 281 144 300L144 300Q144 339 146.50 385.50Q149 432 153 476Q157 520 161 554Q165 588 167 602L167 602Q169 613 182.50 619Q196 625 212 625L212 625Q229 625 242 619.50Q255 614 255 602L255 602Q255 587 249 543L249 543Q245 514 240.50 476Q236 438 232.50 399.50Q229 361 228 328L228 328Q244 333 267.50 337.50Q291 342 319 342L319 342Q379 342 419 321Q459 300 479.50 264.50Q500 229 500 187L500 187Q500 109 462.50 66Q425 23 360.50 5.50Q296-12 216-12Z"/></svg>