<svg id="U10ACC" viewBox="0 0 538 1000"><path transform="translate(0, 900) scale(1,-1)" d="M194 669L194 669Q172 669 152 685Q132 701 132 723L132 723Q132 745 144.50 761Q157 777 179 777L179 777Q202 777 221.50 761Q241 745 241 723L241 723Q241 701 229 685Q217 669 194 669ZM355 669L355 669Q333 669 313.50 685Q294 701 294 723L294 723Q294 745 306 761Q318 777 340 777L340 777Q363 777 382.50 761Q402 745 402 723L402 723Q402 701 390 685Q378 669 355 669ZM266-10L266-10Q203-10 162.50 5.50Q122 21 99.50 45.50Q77 70 68 98.50Q59 127 59 153L59 153Q59 199 74.50 242.50Q90 286 112 314Q134 342 153 342L153 342Q166 342 182 336.50Q198 331 209.50 321.50Q221 312 221 298L221 298Q221 286 213 275.50Q205 265 194 253L194 253Q177 235 163 213.50Q149 192 149 164L149 164Q149 126 176.50 101Q204 76 270 76L270 76Q320 76 345 84Q370 92 378 106.50Q386 121 386 143L386 143Q386 157 376.50 185.50Q367 214 354 246Q341 278 330 300L330 300Q313 337 293.50 381Q274 425 256.50 467.50Q239 510 228 544.50Q217 579 217 597L217 597Q217 611 225.50 618Q234 625 256 625L256 625Q307 625 332 615Q357 605 365.50 593Q374 581 374 573L374 573Q374 566 370 560Q366 554 361 548L361 548Q356 541 351.50 533Q347 525 347 515L347 515Q347 505 356 476.50Q365 448 381 408.50Q397 369 417 325L417 325Q427 303 441.50 267.50Q456 232 467.50 196.50Q479 161 479 138L479 138Q479 120 472 95Q465 70 444 46Q423 22 380.50 6Q338-10 266-10Z"/></svg>