<svg id="U10312" viewBox="0 0 708 1000"><path transform="translate(0, 900) scale(1,-1)" d="M398-50L308-50L308 142Q245 152 188.50 187Q132 222 96.50 281Q61 340 61 420L61 420Q61 483 85 534Q109 585 150.50 621Q192 657 244.50 676Q297 695 355 695L355 695Q409 695 461 677Q513 659 555 624Q597 589 622 537.50Q647 486 647 420L647 420Q647 340 612 281Q577 222 520 186.50Q463 151 398 142L398 142L398-50ZM354 212L354 212Q408 212 454 237.50Q500 263 528 310Q556 357 556 420L556 420Q556 484 528 528.50Q500 573 454 597Q408 621 353 621L353 621Q299 621 253 597Q207 573 179.50 528.50Q152 484 152 420L152 420Q152 357 180 310Q208 263 254 237.50Q300 212 354 212Z"/></svg>