<svg id="U10A26" viewBox="0 0 630 1000"><path transform="translate(0, 900) scale(1,-1)" d="M390-15L390-15L318 20Q381 149 416 247.50Q451 346 464.50 421.50Q478 497 478 556L478 556Q478 579 469 599.50Q460 620 436 620L436 620Q408 620 395.50 603Q383 586 372 551L372 551Q355 496 322 464.50Q289 433 228 433L228 433Q197 433 167.50 446.50Q138 460 118.50 495.50Q99 531 99 596L99 596Q99 630 106 663Q113 696 130 729L130 729L208 708Q198 681 190.50 652Q183 623 183 594L183 594Q183 552 193 531.50Q203 511 230 511L230 511Q253 511 268 527.50Q283 544 293 582L293 582Q302 613 316.50 640Q331 667 359.50 683.50Q388 700 439 700L439 700Q508 700 536 663.50Q564 627 564 556L564 556Q564 490 548 407Q532 324 494 220Q456 116 390-15Z"/></svg>