<svg id="U10A96" viewBox="0 0 787 1000"><path transform="translate(0, 900) scale(1,-1)" d="M285-15L285-15Q256-15 248-3Q240 9 240 36L240 36L240 526L111 358Q104 348 96.50 341.50Q89 335 78 335L78 335Q66 335 50 346L50 346Q30 359 30 376L30 376Q30 384 35 392Q40 400 47 410L47 410L230 645Q239 657 249 661Q259 665 274 665L274 665L643 665Q653 665 660 659.50Q667 654 667 644L667 644L667 36Q667 9 660-3Q653-15 624-15L624-15Q595-15 587-3Q579 9 579 36L579 36L579 585L328 585L328 36Q328 9 321-3Q314-15 285-15Z"/></svg>