<svg id="U104C7" viewBox="0 0 768 1000"><path transform="translate(0, 900) scale(1,-1)" d="M728-173L657-229Q623-204 608-162Q593-120 593-65L593-65Q593-19 600.50 20.50Q608 60 615 101.50Q622 143 622 194L622 194Q622 286 559.50 335Q497 384 389 384L389 384Q380 384 372 384Q364 384 356 383L356 383Q433 351 474 309Q515 267 515 191L515 191Q515 127 484.50 82.50Q454 38 399 14Q344-10 272-10L272-10Q238-10 199-0.50Q160 9 126.50 32.50Q93 56 71.50 97Q50 138 50 202L50 202Q50 260 74.50 307Q99 354 143 388L143 388Q108 416 90.50 453Q73 490 73 542L73 542Q73 599 102 639.50Q131 680 182.50 702Q234 724 301 724L301 724Q360 724 409 713Q458 702 498 684L498 684L470 607Q433 623 389.50 634Q346 645 299 645L299 645Q232 645 198 616.50Q164 588 164 541L164 541Q164 504 179.50 479.50Q195 455 232 435L232 435Q269 448 311.50 455Q354 462 403 462L403 462Q498 462 568.50 429.50Q639 397 678 337.50Q717 278 717 197L717 197Q717 150 710 106Q703 62 695.50 22.50Q688-17 688-53L688-53Q688-90 696-120.50Q704-151 728-173L728-173ZM275 68L275 68Q346 68 385.50 99Q425 130 425 183L425 183Q425 225 404.50 249.50Q384 274 346.50 292Q309 310 257 330L257 330Q247 334 240.50 335.50Q234 337 221 343L221 343Q184 320 162.50 284.50Q141 249 141 202L141 202Q141 142 175.50 105Q210 68 275 68Z"/></svg>