<svg id="U11712" viewBox="0 0 944 1000"><path transform="translate(0, 900) scale(1,-1)" d="M180-10L180-10Q164-10 149-4.50Q134 1 134 15L134 15L134 336Q134 341 131.50 358Q129 375 119.50 397Q110 419 90 440.50Q70 462 36 477L36 477Q20 483 20 499L20 499Q20 511 27 525.50Q34 540 45 550Q56 560 66 560L66 560Q96 560 123 540Q150 520 171.50 489.50Q193 459 206 427L206 427Q214 437 224 447Q234 457 244 467L244 467Q290 554 333 608Q376 662 414 690.50Q452 719 482 729.50Q512 740 531 740L531 740Q548 740 566.50 729.50Q585 719 585 692L585 692Q585 660 563.50 646.50Q542 633 523 633L523 633Q516 633 509 633.50Q502 634 495 635L495 635Q479 638 463 638L463 638Q454 638 436 631.50Q418 625 393 604Q368 583 338 539L338 539Q377 560 410 560L410 560Q436 560 458.50 550.50Q481 541 497 515.50Q513 490 520 442L520 442Q545 470 577.50 497Q610 524 644.50 542Q679 560 710 560L710 560Q741 560 767 546Q793 532 808.50 492.50Q824 453 824 377L824 377L824 15Q824-3 810.50-6.50Q797-10 781-10L781-10Q763-10 748.50-5Q734 0 734 15L734 15L734 353Q734 424 720 451Q706 478 673 478L673 478Q655 478 629.50 462Q604 446 576.50 420Q549 394 524 362L524 362L524 15Q524 2 510-4Q496-10 479-10L479-10Q462-10 448-4Q434 2 434 15L434 15L434 353Q434 424 420 451Q406 478 373 478L373 478Q355 478 329 462Q303 446 275.50 420.50Q248 395 224 364L224 364L224 15Q224 2 211-4Q198-10 180-10Z"/></svg>