<svg id="U11094" viewBox="0 0 697 1000"><path transform="translate(0, 900) scale(1,-1)" d="M614 0L533 0L533 431Q533 483 517 519.50Q501 556 453 556L453 556Q417 556 397 526.50Q377 497 377 441L377 441L377 224Q377 142 335 94Q293 46 221 46L221 46Q155 46 109.50 92Q64 138 64 233L64 233L64 622L145 622L145 228Q145 170 163 143.50Q181 117 216 117L216 117Q297 117 297 229L297 229L297 446Q297 534 334.50 580.50Q372 627 448 627L448 627Q501 627 538 598.50Q575 570 594.50 524.50Q614 479 614 426L614 426L614 0Z"/></svg>