<svg id="U1128A" viewBox="0 0 831 1000"><path transform="translate(0, 900) scale(1,-1)" d="M184-15L184-15Q126-15 90 7.50Q54 30 37 65.50Q20 101 20 140L20 140Q20 190 45 240Q70 290 121 320L121 320L170 255Q137 233 122.50 202Q108 171 108 145L108 145Q108 111 127 88Q146 65 184 65L184 65Q243 65 282 116.50Q321 168 361 264L361 264L428 427Q466 521 526 575.50Q586 630 684 630L684 630Q727 630 767.50 624.50Q808 619 851 609L851 609L829 531Q795 540 760 545Q725 550 689 550L689 550Q622 550 580.50 505.50Q539 461 510 392L510 392L432 204Q406 140 372 90.50Q338 41 292.50 13Q247-15 184-15Z"/></svg>