<svg id="U1159C" viewBox="0 0 862 1000"><path transform="translate(0, 900) scale(1,-1)" d="M716 496L716 171Q716 119 744.50 62.50Q773 6 842-62L842-62L819-88Q723-7 674.50 65.50Q626 138 626 221L626 221L626 549Q626 584 608 603Q590 622 561 622L561 622Q506 622 472 571.50Q438 521 438 432L438 432L438-5L423-11L348 42L348 499Q348 534 330 553Q312 572 283 572L283 572Q228 572 194 521.50Q160 471 160 382L160 382L160 45L145 39L70 92L70 416Q70 524 112 584.50Q154 645 233 645L233 645Q264 645 293 632Q322 619 356 590L356 590Q361 586 365 583L365 583Q383 637 420 666Q457 695 511 695L511 695Q542 695 571 682Q600 669 634 640L634 640Q678 603 697 567.50Q716 532 716 496L716 496Z"/></svg>