<svg id="U111F1" viewBox="0 0 945 1000"><path transform="translate(0, 900) scale(1,-1)" d="M36 315L36 315Q36 414 75 480Q114 546 181 579Q248 612 332 612L332 612Q337 612 344 611L344 611Q354 613 362 613L362 613Q379 613 398 612Q417 611 428 608L428 608L417 544Q410 546 398.50 546Q387 546 378 546L378 546Q334 546 314.50 531Q295 516 295 490L295 490Q295 471 304 456L304 456Q361 486 434 486L434 486Q448 486 460 485Q472 484 484 482L484 482L476 417Q463 419 453.50 419Q444 419 430 419L430 419Q383 419 344 400.50Q305 382 282.50 346Q260 310 260 255L260 255Q260 197 288 153Q316 109 377 84.50Q438 60 537 60L537 60Q641 60 705.50 85Q770 110 800 152.50Q830 195 830 249L830 249Q830 326 782 359L782 359Q738 389 647 389L647 389L560 389L560 430Q560 509 601 558L601 558Q500 572 454.50 614Q409 656 409 722L409 722Q409 796 467 838.50Q525 881 626 881L626 881Q715 881 770 849.50Q825 818 856 772L856 772Q853 791 852.50 809Q852 827 852 850L852 850L852 875L922 875L922 610L854 610Q850 665 825 711Q800 757 750.50 784.50Q701 812 622 812L622 812Q550 812 515.50 786.50Q481 761 481 720L481 720Q481 685 503.50 661.50Q526 638 579.50 626Q633 614 725 612L725 612Q734 612 745 611.50Q756 611 764 609L764 609L758 543Q754 544 743.50 545Q733 546 724 546L724 546Q685 546 659 524Q633 502 631 455L631 455L647 455Q778 455 840.50 402Q903 349 903 251L903 251Q903 130 813.50 59.50Q724-11 540-11L540-11Q437-11 368.50 11.50Q300 34 260.50 72Q221 110 204 157Q187 204 187 253L187 253Q187 305 204.50 346.50Q222 388 252 418L252 418Q240 432 232.50 450Q225 468 225 491L225 491Q225 514 234 534L234 534Q173 508 141 452.50Q109 397 109 312L109 312Q109 258 122.50 209Q136 160 165 119L165 119L99 83Q73 126 54.50 185.50Q36 245 36 315Z"/></svg>