<svg id="U11086" viewBox="0 0 518 1000"><path transform="translate(0, 900) scale(1,-1)" d="M447-147L382-174Q364-127 344.50-82.50Q325-38 304 1L304 1Q276-5 244-5L244-5Q197-5 154.50 11Q112 27 85.50 56Q59 85 59 125L59 125Q59 163 86 191Q113 219 159 219L159 219Q212 219 256 182.50Q300 146 335 90L335 90Q356 103 368.50 124Q381 145 381 174L381 174Q381 207 362 229Q343 251 312.50 268.50Q282 286 248 303.50Q214 321 183.50 342.50Q153 364 134 395.50Q115 427 115 472L115 472Q115 528 151.50 565.50Q188 603 255 618L255 618Q211 647 180 686.50Q149 726 149 772L149 772Q149 809 167 834Q185 859 214.50 871.50Q244 884 277 884L277 884Q321 884 357 867Q393 850 418 827L418 827L385 782Q369 792 344 802.50Q319 813 292 813L292 813Q263 813 246 798Q229 783 229 758L229 758Q229 714 265 681Q301 648 348 625L348 625L355 556Q280 556 238 532Q196 508 196 465L196 465Q196 435 215 413Q234 391 264.50 373Q295 355 329 337Q363 319 393.50 296.50Q424 274 443 243Q462 212 462 169L462 169Q462 120 437 84Q412 48 372 25L372 25Q394-18 412.50-62.50Q431-107 447-147L447-147ZM239 66L239 66Q246 66 252.50 66Q259 66 266 67L266 67Q242 102 218 123Q194 144 169 144L169 144Q154 144 146.50 135Q139 126 139 115L139 115Q139 98 154 87Q169 76 192.50 71Q216 66 239 66Z"/></svg>