<svg id="U11FC7" viewBox="0 0 1305 1000"><path transform="translate(0, 900) scale(1,-1)" d="M49 152L49 152Q49 204 75.50 242.50Q102 281 160 303L160 303L160 554L683 554L683 482L496 482L496 328Q623 325 711.50 297.50Q800 270 846.50 212.50Q893 155 893 61L893 61Q893 30 888-2L888-2Q911-18 936-26.50Q961-35 993-35L993-35Q1062-35 1104 24.50Q1146 84 1146 215L1146 215Q1146 295 1115 372Q1084 449 1022 515L1022 515L1093 566Q1165 487 1200 398Q1235 309 1235 215L1235 215Q1235 58 1175.50-24.50Q1116-107 1002-107L1002-107Q959-107 925-94.50Q891-82 864-63L864-63Q841-103 800-125.50Q759-148 702-148L702-148Q633-148 590-111.50Q547-75 548-14L548-14Q549 45 587 81Q625 117 689 117L689 117Q736 117 769 97.50Q802 78 823 52L823 52Q819 159 736.50 208.50Q654 258 496 258L496 258L496 226Q496 159 484.50 121Q473 83 452 57L452 57Q421 19 372.50 3.50Q324-12 261-12L261-12Q201-12 153 7Q105 26 77 63Q49 100 49 152ZM239 482L239 322Q281 328 332 328L332 328L411 328L411 482L239 482ZM135 153L135 153Q135 107 173 83.50Q211 60 269 60L269 60Q313 60 344.50 73.50Q376 87 393.50 120.50Q411 154 411 213L411 213L411 258L325 258Q274 258 238.50 252Q203 246 178 232L178 232Q135 207 135 153ZM620-16L620-16Q620-47 643-66.50Q666-86 705-86L705-86Q746-86 773.50-65.50Q801-45 812-17L812-17Q781 16 752.50 34.50Q724 53 693 53L693 53Q658 53 639 33Q620 13 620-16Z"/></svg>