<svg id="U1134B" viewBox="0 0 2082 1000"><path transform="translate(0, 900) scale(1,-1)" d="M400-14L400-14Q302-14 227.50 37Q153 88 111.50 179.50Q70 271 70 393L70 393Q70 505 103.50 589Q137 673 195.50 729.50Q254 786 329.50 814.50Q405 843 488 843L488 843Q651 843 738.50 733Q826 623 826 425L826 425L826-12L740-12L740 365Q740 492 716 582.50Q692 673 637 722Q582 771 488 771L488 771Q429 771 370.50 750.50Q312 730 263.50 685.50Q215 641 185.50 569.50Q156 498 156 395L156 395Q156 299 187 224.50Q218 150 273 108L273 108Q262 137 262 171L262 171Q262 219 283 259.50Q304 300 345 324.50Q386 349 445 349L445 349Q494 349 534 329.50Q574 310 598 272Q622 234 622 178L622 178Q622 113 590.50 70Q559 27 508 6.50Q457-14 400-14ZM348 171L348 171Q348 141 356 113Q364 85 381 61L381 61Q402 58 423 58L423 58Q482 58 509 88Q536 118 536 171L536 171Q536 221 511.50 249Q487 277 443 277L443 277Q400 277 374 249Q348 221 348 171ZM1145 462L1145 462Q1135 462 1128 469Q1121 476 1121 486L1121 486Q1121 496 1128 503Q1135 510 1145 510L1145 510Q1155 510 1162 503Q1169 496 1169 486L1169 486Q1169 476 1162 469Q1155 462 1145 462ZM1048 438L1048 438Q1038 438 1031 445Q1024 452 1024 462L1024 462Q1024 472 1031 479Q1038 486 1048 486L1048 486Q1058 486 1065 479Q1072 472 1072 462L1072 462Q1072 452 1065 445Q1058 438 1048 438ZM1242 438L1242 438Q1232 438 1225 445Q1218 452 1218 462L1218 462Q1218 472 1225 479Q1232 486 1242 486L1242 486Q1252 486 1259 479Q1266 472 1266 462L1266 462Q1266 452 1259 445Q1252 438 1242 438ZM977 368L977 368Q967 368 960 375Q953 382 953 392L953 392Q953 402 960 409Q967 416 977 416L977 416Q987 416 994 409Q1001 402 1001 392L1001 392Q1001 382 994 375Q987 368 977 368ZM1312 366L1312 366Q1302 366 1295 373Q1288 380 1288 390L1288 390Q1288 400 1295 407Q1302 414 1312 414L1312 414Q1322 414 1329 407Q1336 400 1336 390L1336 390Q1336 380 1329 373Q1322 366 1312 366ZM951 267L951 267Q941 267 934 274Q927 281 927 291L927 291Q927 301 934 308Q941 315 951 315L951 315Q961 315 968 308Q975 301 975 291L975 291Q975 281 968 274Q961 267 951 267ZM1342 267L1342 267Q1332 267 1325 274Q1318 281 1318 291L1318 291Q1318 301 1325 308Q1332 315 1342 315L1342 315Q1352 315 1359 308Q1366 301 1366 291L1366 291Q1366 281 1359 274Q1352 267 1342 267ZM1314 173L1314 173Q1304 173 1297 180Q1290 187 1290 197L1290 197Q1290 207 1297 214Q1304 221 1314 221L1314 221Q1324 221 1331 214Q1338 207 1338 197L1338 197Q1338 187 1331 180Q1324 173 1314 173ZM975 172L975 172Q965 172 958 179Q951 186 951 196L951 196Q951 206 958 213Q965 220 975 220L975 220Q985 220 992 213Q999 206 999 196L999 196Q999 186 992 179Q985 172 975 172ZM1243 101L1243 101Q1233 101 1226 108Q1219 115 1219 125L1219 125Q1219 135 1226 142Q1233 149 1243 149L1243 149Q1253 149 1260 142Q1267 135 1267 125L1267 125Q1267 115 1260 108Q1253 101 1243 101ZM1048 100L1048 100Q1038 100 1031 107Q1024 114 1024 124L1024 124Q1024 134 1031 141Q1038 148 1048 148L1048 148Q1058 148 1065 141Q1072 134 1072 124L1072 124Q1072 114 1065 107Q1058 100 1048 100ZM1145 73L1145 73Q1135 73 1128 80Q1121 87 1121 97L1121 97Q1121 107 1128 114Q1135 121 1145 121L1145 121Q1155 121 1162 114Q1169 107 1169 97L1169 97Q1169 87 1162 80Q1155 73 1145 73ZM1573 0L1487 0L1487 566L2022 566L2022 494L1852 494L1852 0L1766 0L1766 494L1573 494L1573 0Z"/></svg>