<svg id="U11D10" viewBox="0 0 897 1000"><path transform="translate(0, 900) scale(1,-1)" d="M70 75L70 75L125 140Q163 107 205.50 87.50Q248 68 305 68L305 68Q374 68 410 95Q446 122 446 171L446 171Q446 193 437.50 212.50Q429 232 405.50 249Q382 266 335 279L335 279L268 298Q220 312 181.50 333Q143 354 121 386.50Q99 419 99 467L99 467Q99 547 156.50 591Q214 635 305 635L305 635Q368 635 420 611Q472 587 500 558L500 558L453 495Q424 520 387.50 538Q351 556 305 556L305 556Q253 556 221.50 533Q190 510 190 469L190 469Q190 432 214 410Q238 388 296 371L296 371L346 357L887 357L887 281L485 281Q536 241 536 174L536 174Q536 89 475.50 39.50Q415-10 305-10L305-10Q220-10 161.50 16.50Q103 43 70 75ZM557 480L557 480Q557 517 575 532Q593 547 618 547L618 547Q644 547 662.50 532Q681 517 681 480L681 480Q681 444 662.50 428Q644 412 618 412L618 412Q593 412 575 428Q557 444 557 480Z"/></svg>