<svg id="U11608" viewBox="0 0 660 1000"><path transform="translate(0, 900) scale(1,-1)" d="M245 59L188 10Q155 44 126 90.50Q97 137 78.50 189Q60 241 60 290L60 290Q60 336 78 373.50Q96 411 129.50 433.50Q163 456 211 456L211 456Q240 456 273 443Q306 430 330 400L330 400Q366 444 426 453L426 453L426 551L0 551L0 622L670 622L670 551L506 551L506 448Q545 435 572.50 402.50Q600 370 600 322L600 322Q600 279 587 249Q574 219 555 197Q536 175 516.50 157.50Q497 140 484 123Q471 106 471 86L471 86Q471 55 491 42.50Q511 30 527 30L527 30Q547 30 567 33.50Q587 37 600 43L600 43L617-22Q598-30 576.50-35Q555-40 532-40L532-40Q481-40 450-22Q419-4 405 24Q391 52 391 82L391 82Q391 113 404 136Q417 159 436 178Q455 197 474.50 216.50Q494 236 507 260.50Q520 285 520 318L520 318Q520 349 500 366Q480 383 455 383L455 383Q442 383 422.50 377.50Q403 372 386.50 354Q370 336 364 300L364 300L296 300Q289 346 264 364.50Q239 383 213 383L213 383Q179 383 159.50 356.50Q140 330 140 289L140 289Q140 252 156 210Q172 168 196 129Q220 90 245 59L245 59Z"/></svg>