<svg id="U11460" viewBox="0 0 629 1000"><path transform="translate(0, 900) scale(1,-1)" d="M560 572L359 324L582 50L582 0L47 0L47 51L265 319L57 571L57 622L560 622L560 572ZM207 509L313 377L420 511Q428 522 438 533.50Q448 545 455 552L455 552Q442 551 425.50 551Q409 551 389 551L389 551L237 551Q215 551 198.50 551Q182 551 169 552L169 552Q177 545 185.50 535Q194 525 207 509L207 509ZM432 114L310 266L194 119Q183 105 171.50 92Q160 79 151 70L151 70Q165 71 179.50 71Q194 71 214 71L214 71L394 71Q422 71 439.50 71Q457 71 470 70L470 70Q463 78 452.50 90Q442 102 432 114L432 114Z"/></svg>