<svg id="U11219" viewBox="0 0 682 1000"><path transform="translate(0, 900) scale(1,-1)" d="M557 13L557 13Q553 4 540.50-1Q528-6 516-6L516-6Q498-6 481 4.50Q464 15 464 28L464 28Q464 38 473.50 66Q483 94 495.50 136.50Q508 179 517.50 232Q527 285 527 345L527 345Q527 416 512 443.50Q497 471 457 471L457 471Q423 471 380 438Q337 405 298.50 329Q260 253 238 124L238 124Q235 106 232 94L232 94Q229 81 215 75.50Q201 70 187 70L187 70Q165 70 148 81.50Q131 93 130 108L130 108Q150 185 160 242Q170 299 170 339L170 339Q170 389 153 425Q136 461 99 476L99 476Q86 481 77 488Q68 495 68 510L68 510Q68 532 82.50 545.50Q97 559 113 559L113 559Q159 559 200 507L200 507Q234 465 233 379L233 379Q256 426 288.50 466Q321 506 361.50 530.50Q402 555 449 555L449 555Q510 555 545.50 523Q581 491 596.50 440.50Q612 390 612 333L612 333Q612 271 602.50 207.50Q593 144 580.50 92Q568 40 557 13Z"/></svg>