<svg id="U11291" viewBox="0 0 559 1000"><path transform="translate(0, 900) scale(1,-1)" d="M300-15L300-15Q206-15 146 24.50Q86 64 58 127.50Q30 191 30 264L30 264Q30 344 59.50 410.50Q89 477 141 526.50Q193 576 261 603Q329 630 407 630L407 630Q450 630 495 621L495 621L480 545Q462 548 445.50 549Q429 550 412 550L412 550Q342 550 287 525Q232 500 194.50 459Q157 418 137.50 369Q118 320 118 271L118 271Q118 194 149.50 141.50Q181 89 243 72L243 72Q228 116 228 169L228 169Q228 212 243 251.50Q258 291 292.50 316Q327 341 383 341L383 341Q435 341 467 318.50Q499 296 514 261.50Q529 227 529 191L529 191Q529 124 498 78Q467 32 415 8.50Q363-15 300-15ZM332 68L332 68Q379 76 410 103.50Q441 131 441 186L441 186Q441 215 427.50 238Q414 261 385 261L385 261Q348 261 332.50 233Q317 205 317 165L317 165Q317 140 321 115Q325 90 332 68Z"/></svg>