<svg id="U1120C" viewBox="0 0 826 1000"><path transform="translate(0, 900) scale(1,-1)" d="M609 555L609 555Q670 555 701.50 523Q733 491 744.50 440.50Q756 390 756 333L756 333Q756 271 746.50 207.50Q737 144 724 93Q711 42 700 17L700 17Q694 3 682.50-1.50Q671-6 659-6L659-6Q641-6 624 4Q607 14 607 33L607 33Q607 41 617 68Q627 95 639.50 137Q652 179 662 232Q672 285 672 345L672 345Q672 416 658.50 442.50Q645 469 619 469L619 469Q598 469 581.50 451Q565 433 549 391Q533 349 513 276L513 276Q489 189 460.50 126Q432 63 388 29Q344-5 273-5L273-5Q219-5 176.50 19.50Q134 44 110 85.50Q86 127 86 177L86 177Q86 222 102.50 256.50Q119 291 150 315L150 315Q106 334 80.50 371.50Q55 409 55 454L55 454Q55 487 63.50 508.50Q72 530 86 546L86 546L31 546Q18 546 11.50 556Q5 566 5 579L5 579Q5 594 12.50 607.50Q20 621 33 621L33 621L350 621Q370 621 384 603Q398 585 398 566L398 566Q398 559 392.50 552.50Q387 546 375 546L375 546L218 546Q184 531 161 509.50Q138 488 138 446L138 446Q138 412 160.50 388.50Q183 365 215 365L215 365Q227 365 237.50 366.50Q248 368 258 370L258 370Q269 372 280 374Q291 376 304 376L304 376Q320 376 328.50 361.50Q337 347 337 328L337 328Q337 315 332 306Q327 297 317 296L317 296Q284 293 251.50 282.50Q219 272 197.50 247.50Q176 223 176 177L176 177Q176 134 198 107Q220 80 257 80L257 80Q301 80 332 103Q363 126 388 181Q413 236 438 330L438 330Q468 443 505 499Q542 555 609 555Z"/></svg>