<svg id="U1160B" viewBox="0 0 756 1000"><path transform="translate(0, 900) scale(1,-1)" d="M0 551L0 622L595 622L573 749Q550 739 520.50 732Q491 725 460 725L460 725Q424 725 375 738.50Q326 752 282 799L282 799L331 847Q356 825 388.50 810Q421 795 455 795L455 795Q504 795 537.50 809Q571 823 587 836L587 836L636 819L674 622L766 622L766 551L676 551L676 282Q676 223 665.50 170Q655 117 630.50 76.50Q606 36 564 13Q522-10 460-10L460-10Q412-10 372 8.50Q332 27 304 57.50Q276 88 263 124L263 124L250 124Q222 124 188 134Q154 144 121.50 167.50Q89 191 63.50 232Q38 273 26 335L26 335L99 350Q110 297 130 266.50Q150 236 173 221Q196 206 216.50 202Q237 198 250 198L250 198Q303 198 322.50 219.50Q342 241 342 266L342 266Q342 278 337.50 292.50Q333 307 318.50 319Q304 331 273 333L273 333L263 333L263 398Q302 399 317.50 421.50Q333 444 333 470L333 470Q333 493 317.50 511.50Q302 530 270 530L270 530Q229 530 200.50 509.50Q172 489 151 468L151 468L102 525Q109 532 116.50 538.50Q124 545 132 551L132 551L0 551ZM461 63L461 63Q499 63 529.50 81.50Q560 100 578 148Q596 196 596 282L596 282L596 551L385 551Q413 514 413 468L413 468Q413 409 368 369L368 369Q397 348 410 319.50Q423 291 423 268L423 268Q423 229 403.50 194.50Q384 160 341 141L341 141Q355 110 388 86.50Q421 63 461 63Z"/></svg>