<svg id="U11112" viewBox="0 0 880 1000"><path transform="translate(0, 900) scale(1,-1)" d="M290 30L290 30Q231 30 178.50 56.50Q126 83 93 135Q60 187 60 264L60 264Q60 347 94 401.50Q128 456 185.50 488Q243 520 315 533Q387 546 464 546L464 546Q555 546 620 532.50Q685 519 732 500Q779 481 814 466L814 466L814 399Q726 444 638.50 461.50Q551 479 450 479L450 479Q433 479 415.50 478.50Q398 478 380 476L380 476Q449 448 484.50 393.50Q520 339 520 270L520 270Q520 211 492.50 155.50Q465 100 413.50 65Q362 30 290 30ZM150 264L150 264Q150 192 185.50 144.50Q221 97 290 97L290 97Q339 97 369.50 121.50Q400 146 415 185Q430 224 430 267L430 267Q430 327 407.50 364.50Q385 402 347.50 422Q310 442 265 447L265 447Q216 426 183 382.50Q150 339 150 264ZM655-10L655-10Q600-10 563 21.50Q526 53 526 101L526 101Q526 133 543.50 160.50Q561 188 592.50 204.50Q624 221 666 221L666 221Q689 221 712 216L712 216Q699 231 678 239.50Q657 248 625 248L625 248L497 248L497 315L646 315Q723 315 771.50 274.50Q820 234 820 161L820 161Q820 111 797.50 72.50Q775 34 738 12Q701-10 655-10ZM612 102L612 102Q612 84 624 70.50Q636 57 662 57L662 57Q678 57 694 64Q710 71 721 90.50Q732 110 732 145L732 145Q704 158 678 158L678 158Q645 158 628.50 141Q612 124 612 102Z"/></svg>