<svg id="U11FD7" viewBox="0 0 1248 1000"><path transform="translate(0, 900) scale(1,-1)" d="M37-175L37-175Q37-84 143-84L143-84L785-84Q793-55 795-15.50Q797 24 797 70L797 70L797 482L623 482L623 0L537 0L537 407Q503 448 459.50 470Q416 492 355 492L355 492Q267 492 210.50 435.50Q154 379 140 290L140 290Q166 307 197 317.50Q228 328 261 328L261 328Q333 328 377.50 284Q422 240 422 165L422 165Q422 82 375.50 35Q329-12 249-12L249-12Q196-12 152 14.50Q108 41 82.50 97Q57 153 57 243L57 243Q57 325 81.50 385.50Q106 446 149 486Q192 526 246 546Q300 566 358 566L358 566Q422 566 467 548.50Q512 531 549 502L549 502L549 554L1033 554L1033 482L883 482L883 80Q883 42 880.50-3.50Q878-49 871-84L871-84L1074-84L1074 554L1160 554L1160-156L850-156Q792-252 671-296.50Q550-341 387-341L387-341L381-341Q279-341 201.50-322.50Q124-304 80.50-267Q37-230 37-175ZM137 212L137 212Q142 126 174.50 91Q207 56 253 56L253 56Q294 56 317 81.50Q340 107 340 155L340 155Q340 205 314 231.50Q288 258 247 258L247 258Q216 258 188.50 245.50Q161 233 137 212ZM120-180L120-180Q120-217 186-242.50Q252-268 379-268L379-268L389-268Q517-268 608.50-242.50Q700-217 753-156L753-156L155-156Q143-156 131.50-159.50Q120-163 120-180Z"/></svg>