<svg id="U11D1A" viewBox="0 0 838 1000"><path transform="translate(0, 900) scale(1,-1)" d="M90 143L90 143L90 404Q90 512 149 573.50Q208 635 322 635L322 635Q434 635 494 573Q554 511 554 404L554 404L554 357L828 357L828 281L459 281L459 403Q459 483 422 520Q385 557 322 557L322 557Q259 557 222 520Q185 483 185 403L185 403L185 269Q199 276 217 280Q235 284 255 284L255 284Q321 284 359.50 244Q398 204 398 139L398 139Q398 69 358 29.50Q318-10 247-10L247-10Q169-10 129.50 32Q90 74 90 143ZM185 188L185 135Q185 101 201 84.50Q217 68 245 68L245 68Q268 68 285.50 84.50Q303 101 303 137L303 137Q303 170 286 188Q269 206 242 206L242 206Q214 206 185 188L185 188Z"/></svg>