<svg id="U1160E" viewBox="0 0 655 1000"><path transform="translate(0, 900) scale(1,-1)" d="M0 551L0 622L665 622L665 551L556 551Q522 454 508.50 374.50Q495 295 492 239L492 239Q540 227 571.50 201.50Q603 176 619 145Q635 114 635 85L635 85Q635 72 627 49Q619 26 597.50 8Q576-10 533-10L533-10Q475-10 444 38.50Q413 87 411 178L411 178Q352 177 302 162Q252 147 217 109Q182 71 165 0L165 0L88 0Q89 7 93 16L93 16Q101 46 105.50 77.50Q110 109 110 131L110 131Q110 166 99.50 196.50Q89 227 75 257.50Q61 288 50.50 321.50Q40 355 40 395L40 395Q40 438 54 473Q68 508 101 551L101 551L0 551ZM413 248L413 248Q417 292 425.50 344Q434 396 446.50 449.50Q459 503 474 551L474 551L199 551Q150 503 135 468.50Q120 434 120 402L120 402Q120 360 133.50 324Q147 288 163 252Q179 216 186 175L186 175Q228 213 285 230Q342 247 413 248ZM560 89L560 89Q560 106 544.50 130Q529 154 491 167L491 167Q493 103 505.50 81.50Q518 60 534 60L534 60Q548 60 554 71.50Q560 83 560 89Z"/></svg>