<svg id="U1118C" viewBox="0 0 798 1000"><path transform="translate(0, 900) scale(1,-1)" d="M374-12L374-12Q310-12 266 20.50Q222 53 222 117L222 117Q222 151 238 176Q254 201 279 220.50Q304 240 330 255L330 255Q370 278 393.50 297Q417 316 417 347L417 347Q417 372 399.50 384Q382 396 356 396L356 396Q326 396 303 386Q280 376 259 359L259 359L222 415Q239 431 261.50 444Q284 457 314 464L314 464L314 550L159 550L159 0L74 0L74 550L24 550L24 625L740 625L740 553Q740 487 700 451.50Q660 416 607 416L607 416Q551 416 511.50 450.50Q472 485 472 544L472 544L472 550L399 550L399 466Q424 461 447 447Q470 433 485 409Q500 385 500 350L500 350Q500 311 484 284Q468 257 443.50 238Q419 219 393 204L393 204Q350 179 327.50 161Q305 143 305 118L305 118Q305 92 324 77.50Q343 63 374 63L374 63Q415 63 446 78Q477 93 507 114L507 114L546 57Q536 48 511 31.50Q486 15 451 1.50Q416-12 374-12ZM609 481L609 481Q634 481 651 497.50Q668 514 668 544L668 544L668 550L544 550L544 544Q544 514 563 497.50Q582 481 609 481Z"/></svg>