<svg id="U110E6" viewBox="0 0 454 1000"><path transform="translate(0, 900) scale(1,-1)" d="M400 0L44 0L44 49L253 382Q293 446 316.50 496.50Q340 547 340 609L340 609Q340 655 327 683.50Q314 712 294 726.50Q274 741 252 746.50Q230 752 213 752L213 752Q190 752 174.50 747Q159 742 151 737L151 737Q199 737 230 707.50Q261 678 261 622L261 622Q261 570 231 536Q201 502 153 502L153 502Q105 502 72.50 536Q40 570 40 635L40 635Q40 715 90 764.50Q140 814 222 814L222 814Q307 814 360.50 761Q414 708 414 608L414 608Q414 553 386.50 487.50Q359 422 321 363L321 363L126 60L400 60L400 0ZM153 560L153 560Q176 560 189.50 577.50Q203 595 203 622L203 622Q203 649 189.50 666.50Q176 684 153 684L153 684Q131 684 117.50 666.50Q104 649 104 622L104 622Q104 595 117.50 577.50Q131 560 153 560Z"/></svg>