<svg id="U112D9" viewBox="0 0 545 1000"><path transform="translate(0, 900) scale(1,-1)" d="M505 29L426-10Q399 43 360 93Q321 143 272 178Q223 213 165 219L165 219L25 219L40 294L243 294Q284 294 323 302Q362 310 387 336.50Q412 363 412 418L412 418Q412 460 397 483.50Q382 507 357.50 518Q333 529 303 532Q273 535 243 535L243 535L75 535L90 610L244 610Q281 610 324.50 605.50Q368 601 407.50 584Q447 567 472 529Q497 491 497 424L497 424Q497 336 452.50 289Q408 242 335 227L335 227Q394 195 433 145Q472 95 505 29L505 29Z"/></svg>