<svg id="U1110F" viewBox="0 0 800 1000"><path transform="translate(0, 900) scale(1,-1)" d="M308-9L308-9Q254-9 205.50 2Q157 13 120 28.50Q83 44 60 55L60 55L87 125Q130 140 169 166Q208 192 233.50 231Q259 270 259 324L259 324Q259 376 233.50 410.50Q208 445 155 445L155 445Q124 445 89 433L89 433L89 495Q134 511 176 511L176 511Q226 511 265 488.50Q304 466 326.50 426Q349 386 349 332L349 332Q349 278 326.50 232.50Q304 187 265.50 150.50Q227 114 180 85L180 85Q200 76 232.50 67Q265 58 306 58L306 58Q371 58 428 88Q485 118 520.50 176.50Q556 235 556 322L556 322L556 342Q520 350 493 368.50Q466 387 447.50 408Q429 429 419 444L419 444L484 507Q495 487 512.50 464.50Q530 442 554 426.50Q578 411 606 411L606 411Q644 411 668.50 440Q693 469 704 507L704 507L790 530Q787 495 770 457Q753 419 721.50 388.50Q690 358 646 345L646 345L646 320Q646 209 599.50 136Q553 63 476.50 27Q400-9 308-9Z"/></svg>