<svg id="U11087" viewBox="0 0 502 1000"><path transform="translate(0, 900) scale(1,-1)" d="M280-5L280-5Q230-5 191 13Q152 31 122 59Q92 87 70.50 117Q49 147 34 172L34 172L84 205Q104 176 130 143.50Q156 111 190.50 88.50Q225 66 270 66L270 66Q298 66 323.50 78Q349 90 365.50 114Q382 138 382 173L382 173Q382 213 364.50 246.50Q347 280 304 311L304 311Q273 299 240.50 291Q208 283 176 277L176 277L154 343Q212 355 257.50 368.50Q303 382 329 407.50Q355 433 355 480L355 480Q355 511 334.50 536Q314 561 269 561L269 561Q235 561 207.50 547.50Q180 534 147 512L147 512L111 570Q146 595 182 611Q218 627 263 627L263 627Q316 627 355 606Q394 585 415 549Q436 513 436 468L436 468Q436 423 415.50 392Q395 361 362 339L362 339Q411 304 437 262Q463 220 463 164L463 164Q463 113 438.50 75Q414 37 372.50 16Q331-5 280-5Z"/></svg>