<svg id="U12391" viewBox="0 0 1647 1000"><path transform="translate(0, 900) scale(1,-1)" d="M499-118L499-118Q505-88 508.50-59.50Q512-31 512-5L512-5Q512 21 508.50 47Q505 73 499 98L499 98Q507 95 516.50 92.50Q526 90 537 87L537 87Q496 122 470 140Q444 158 423 171L423 171Q348 163 280.50 147.50Q213 132 165 117Q117 102 100 94L100 94Q102 111 104 139.50Q106 168 106 198L106 198Q106 223 104.50 246Q103 269 100 283L100 283Q117 276 161 259.50Q205 243 273 226.50Q341 210 428 203L428 203Q453 220 485 246Q517 272 567 317L567 317Q515 364 482 389Q449 414 423 431L423 431Q348 423 280.50 407.50Q213 392 165 377Q117 362 100 354L100 354Q102 371 104 399.50Q106 428 106 458L106 458Q106 483 104.50 506Q103 529 100 543L100 543Q117 536 161.50 519.50Q206 503 274 486.50Q342 470 429 463L429 463Q451 477 478 495.50Q505 514 550 554L550 554Q535 551 522 548Q509 545 499 542L499 542Q505 572 508.50 600.50Q512 629 512 655L512 655Q512 681 508.50 707Q505 733 499 758L499 758Q535 746 604 733.50Q673 721 765 709.50Q857 698 961.50 688Q1066 678 1171.50 670.50Q1277 663 1374 658.50Q1471 654 1547 654L1547 654L1547 622Q1469 622 1369.50 619Q1270 616 1161 610.50Q1052 605 945 597Q838 589 745 580Q652 571 585 560L585 560Q573 542 559.50 519.50Q546 497 535 477Q524 457 518 446L518 446Q524 435 537.50 412Q551 389 567.50 363.50Q584 338 597 320L597 320Q584 302 567.50 274.50Q551 247 537.50 222Q524 197 518 186L518 186Q526 170 544.50 137.50Q563 105 582 78L582 78Q639 68 717.50 57.50Q796 47 886 37.50Q976 28 1069.50 20Q1163 12 1252 6.50Q1341 1 1417-2.50Q1493-6 1547-6L1547-6L1547-38Q1494-38 1419-40Q1344-42 1256-46Q1168-50 1075-56Q982-62 893-68.50Q804-75 725.50-83Q647-91 588.50-100Q530-109 499-118ZM1247 50L1231 50Q1224 163 1217.50 241Q1211 319 1204.50 374Q1198 429 1190 472L1190 472Q1164 426 1140 390Q1116 354 1099 323L1099 323Q1112 297 1140 256.50Q1168 216 1206 165L1206 165L1188 153Q1122 211 1076.50 248.50Q1031 286 993 316L993 316Q947 305 902 292.50Q857 280 823 268Q789 256 773 244L773 244Q775 261 776.50 277.50Q778 294 778 311L778 311Q717 295 670 278Q623 261 602 244L602 244Q604 263 605.50 281Q607 299 607 318L607 318Q607 357 600 393L600 393Q620 378 670 362Q720 346 778 335L778 335L772 393Q786 382 822 370.50Q858 359 904 349Q950 339 993 333L993 333Q1015 351 1047.50 378Q1080 405 1115.50 438.50Q1151 472 1182 508L1182 508Q1178 528 1173.50 548Q1169 568 1163 590L1163 590Q1195 581 1229 581L1229 581Q1261 581 1300 590L1300 590Q1288 550 1279.50 504Q1271 458 1265 397.50Q1259 337 1254.50 252.50Q1250 168 1247 50L1247 50ZM1534 338L1523 328Q1496 354 1480 369Q1464 384 1452 394.50Q1440 405 1422 416L1422 416Q1434 426 1446.50 436Q1459 446 1477 462Q1495 478 1523 504L1523 504L1534 496Q1521 474 1511 455Q1501 436 1491 416L1491 416Q1501 399 1511 379.50Q1521 360 1534 338L1534 338ZM1269 271L1269 271Q1271 285 1272.50 298Q1274 311 1274 324L1274 324Q1274 338 1272.50 351.50Q1271 365 1269 380L1269 380Q1310 363 1365.50 350Q1421 337 1508 332L1508 332L1508 318Q1448 312 1407 306.50Q1366 301 1334.50 293Q1303 285 1269 271ZM1534 157L1523 147Q1496 173 1480 188Q1464 203 1452 213.50Q1440 224 1422 235L1422 235Q1434 245 1446.50 255.50Q1459 266 1477 281.50Q1495 297 1523 322L1523 322L1534 314Q1521 292 1511 273Q1501 254 1491 235L1491 235Q1501 217 1511 198Q1521 179 1534 157L1534 157Z"/></svg>