<svg id="U12540" viewBox="0 0 1900 1000"><path transform="translate(0, 900) scale(1,-1)" d="M204-219L204-219Q216-168 216-114L216-114Q216-60 204-3L204-3Q262-19 377-35Q492-51 637-64L637-64Q636 20 629.50 129Q623 238 613 350L613 350Q450 340 348.50 319Q247 298 191 273L191 273Q197 296 199.50 319.50Q202 343 202 367L202 367Q202 391 199.50 414.50Q197 438 191 463L191 463Q239 443 297.50 428Q356 413 432 403Q508 393 609 387L609 387Q601 473 591 553Q581 633 569 701Q557 769 544 816L544 816Q595 804 649 804L649 804Q703 804 760 816L760 816Q749 777 738.50 714Q728 651 718 573.50Q708 496 699.50 410.50Q691 325 684 239Q677 153 673 74.50Q669-4 667-67L667-67Q774-76 888.50-83Q1003-90 1116.50-94Q1230-98 1334-98L1334-98L1677-98Q1677-31 1673 56.50Q1669 144 1661.50 241Q1654 338 1644.50 434.50Q1635 531 1622.50 617Q1610 703 1596 768L1596 768L1417 768Q1235 768 1106 756.50Q977 745 893 726.50Q809 708 760 686L760 686Q766 709 768.50 732.50Q771 756 771 780L771 780Q771 804 768.50 827.50Q766 851 760 876L760 876Q815 861 874.50 846.50Q934 832 1007.50 819.50Q1081 807 1177.50 800Q1274 793 1403 793L1403 793L1590 793L1584 816Q1635 804 1689 804L1689 804Q1743 804 1800 816L1800 816Q1789 774 1777.50 706Q1766 638 1755.50 554Q1745 470 1736 378Q1727 286 1720.50 196Q1714 106 1710.50 26.50Q1707-53 1707-112L1707-112L1703-112L1703-124L1352-124Q1250-124 1137-128Q1024-132 909.50-138.50Q795-145 687-154Q579-163 484.50-174Q390-185 318-196Q246-207 204-219ZM887-26L887-26Q889-11 890.50 3.50Q892 18 892 34L892 34Q892 48 890.50 63.50Q889 79 887 94L887 94Q895 91 903 89Q911 87 920 85L920 85Q920 101 919.50 116Q919 131 918 146L918 146Q867 142 828.50 134Q790 126 748 113L748 113Q750 129 751.50 140.50Q753 152 753 164L753 164Q753 182 750 203L750 203L748 203Q748 207 749 208L749 208Q748 210 748 213L748 213L749 212Q751 224 752 234.50Q753 245 753 255L753 255Q753 264 752 273.50Q751 283 750 294L750 294L748 294Q748 297 749 298L749 298Q748 300 748 303L748 303L749 303Q752 324 752 343L752 343Q752 360 749 384L749 384L748 384Q748 387 749 389L749 389Q748 390 748 394L748 394L749 393Q752 417 752 435L752 435Q752 446 751 458Q750 470 748 484L748 484Q785 472 818.50 464.50Q852 457 894 453L894 453Q890 477 884.50 501Q879 525 872 548L872 548Q887 546 902 545Q917 544 932 544L932 544Q947 544 962 545Q977 546 992 548L992 548Q986 526 980.50 501Q975 476 971 448L971 448Q998 447 1030 446.50Q1062 446 1101 446L1101 446L1101 421Q1061 421 1028 421Q995 421 967 419L967 419L959 358Q989 357 1023.50 356.50Q1058 356 1101 356L1101 356L1101 331Q1057 331 1021.50 330.50Q986 330 957 329L957 329L952 268Q982 267 1018.50 266.50Q1055 266 1101 266L1101 266L1101 241Q1010 241 950 238L950 238Q949 223 949 208Q949 193 948 178L948 178Q979 177 1016.50 176.50Q1054 176 1101 176L1101 176L1101 151Q1053 151 1015.50 150.50Q978 150 946 148L946 148L945 80Q1019 65 1103.50 58Q1188 51 1275.50 49Q1363 47 1445 46L1445 46Q1445 73 1444.50 101.50Q1444 130 1444 161L1444 161Q1386 157 1343.50 149Q1301 141 1257 127L1257 127Q1261 152 1261 175L1261 175Q1261 185 1260 195Q1259 205 1257 217L1257 217L1257 226Q1259 238 1260.50 248.50Q1262 259 1262 269L1262 269Q1262 278 1261 287.50Q1260 297 1258 307L1258 307L1257 307L1257 317Q1259 328 1260.50 338.50Q1262 349 1262 359L1262 359Q1262 368 1261 377.50Q1260 387 1258 398L1258 398L1257 398L1257 407Q1259 419 1260 429Q1261 439 1261 449L1261 449Q1261 460 1260 472Q1259 484 1257 498L1257 498Q1298 485 1338 477Q1378 469 1430 465L1430 465Q1427 500 1423.50 532.50Q1420 565 1415 594L1415 594Q1327 593 1234.50 588.50Q1142 584 1060 574Q978 564 920 548L920 548Q922 562 923.50 577Q925 592 925 607L925 607Q925 622 923.50 637.50Q922 653 920 667L920 667Q989 648 1070 638Q1151 628 1238 624.50Q1325 621 1410 620L1410 620Q1408 634 1404.50 647.50Q1401 661 1398 674L1398 674Q1412 672 1427 670.50Q1442 669 1457 669L1457 669Q1472 669 1487 670.50Q1502 672 1517 674L1517 674Q1513 658 1509.50 640.50Q1506 623 1502 603L1502 603L1502 595L1501 595Q1497 566 1493 532Q1489 498 1486 462L1486 462Q1514 461 1546.50 460.50Q1579 460 1618 460L1618 460L1618 435Q1578 435 1545 435Q1512 435 1484 433L1484 433Q1483 418 1481.50 403Q1480 388 1479 371L1479 371Q1508 370 1542.50 370Q1577 370 1618 370L1618 370L1618 345Q1576 345 1541.50 344.50Q1507 344 1478 343L1478 343Q1475 312 1475 282L1475 282Q1505 281 1540 280.50Q1575 280 1618 280L1618 280L1618 255Q1575 255 1539 254.50Q1503 254 1474 253L1474 253L1471 192Q1502 190 1538 189.50Q1574 189 1618 189L1618 189L1618 165Q1531 165 1471 162L1471 162Q1470 131 1470 102Q1470 73 1470 46L1470 46L1470 21Q1397 21 1316.50 19Q1236 17 1157 12Q1078 7 1008-2.50Q938-12 887-26ZM1437 374L1437 374L1434 430Q1386 427 1348.50 420.50Q1311 414 1273 403L1273 403Q1311 392 1349.50 385Q1388 378 1437 374ZM906 362L906 362Q905 376 903 389Q901 402 899 415L899 415Q861 411 829.50 405Q798 399 764 389L764 389Q799 379 832 372.50Q865 366 906 362ZM1441 284L1441 284L1439 340Q1389 337 1350.50 330Q1312 323 1273 312L1273 312Q1312 301 1351 294Q1390 287 1441 284ZM913 271L913 271Q913 285 912 298.50Q911 312 909 326L909 326Q867 322 833 315.50Q799 309 764 298L764 298Q800 288 834.50 281.50Q869 275 913 271ZM185-206L161-206Q161-88 153.50-0.50Q146 87 132.50 154Q119 221 100 277L100 277Q136 271 173 271L173 271Q210 271 246 277L246 277Q228 221 214 154Q200 87 192.50-0.50Q185-88 185-206L185-206ZM1443 194L1443 194L1443 251Q1391 247 1351.50 240Q1312 233 1273 222L1273 222Q1312 211 1351.50 204Q1391 197 1443 194ZM917 180L917 180Q917 194 917 208Q917 222 916 236L916 236Q870 232 835.50 225.50Q801 219 764 208L764 208Q801 198 836.50 191Q872 184 917 180Z"/></svg>