<svg id="U120D2" viewBox="0 0 1462 1000"><path transform="translate(0, 900) scale(1,-1)" d="M317-350L294-350Q294-292 288.50-232Q283-172 275-114L275-114Q160-129 100-146L100-146Q112-95 112-41L112-41Q112 13 100 70L100 70Q126 63 163 56Q200 49 246 42L246 42Q233 98 220.50 141Q208 184 198 205L198 205Q227 201 255.50 198Q284 195 313 195L313 195Q360 195 408 204L408 204L408 205Q409 205 409.50 204.50Q410 204 411 204L411 204Q412 204 412.50 204.50Q413 205 414 205L414 205L413 204Q440 200 467.50 197.50Q495 195 523 195L523 195Q548 195 573.50 197.50Q599 200 624 205L624 205Q614 182 599 129Q584 76 569 6L569 6Q677-3 792-10Q907-17 1021.50-20.50Q1136-24 1240-25L1240-25Q1236 166 1220.50 314.50Q1205 463 1183 574L1183 574Q1011 569 852 561.50Q693 554 558 544.50Q423 535 321 522.50Q219 510 160 494L160 494Q172 551 172 605L172 605Q172 659 160 710L160 710Q253 684 400.50 667Q548 650 744 637Q940 624 1176 609L1176 609Q1169 644 1161.50 676Q1154 708 1146 736L1146 736Q1197 724 1251 724L1251 724Q1305 724 1362 736L1362 736Q1339 653 1317 533.50Q1295 414 1281 254Q1267 94 1267-112L1267-112L1241-112Q1241-96 1240.50-81Q1240-66 1240-51L1240-51Q1134-51 1016.50-55Q899-59 780.50-66Q662-73 552-83L552-83Q542-147 534.50-216Q527-285 527-350L527-350L504-350Q504-286 498-219.50Q492-153 481-90L481-90L339-105Q329-165 323-228Q317-291 317-350L317-350ZM801 182L801 182Q787 204 766 224Q745 244 725 256L725 256Q744 267 760 274.50Q776 282 794 292.50Q812 303 837 322L837 322Q788 318 743 312Q698 306 666.50 300.50Q635 295 623 289L623 289Q625 304 626 319.50Q627 335 627 350L627 350Q627 365 626 378.50Q625 392 623 405L623 405Q637 398 670 391Q703 384 748 378Q793 372 842 366L842 366Q815 387 796 398Q777 409 761 417Q745 425 725 436L725 436Q745 448 766 468Q787 488 801 510L801 510Q812 490 821.50 472.50Q831 455 848 431.50Q865 408 896 369L896 369Q922 392 955 422Q988 452 1031 493L1031 493L1041 487Q1004 447 976 415.50Q948 384 926 358L926 358Q974 354 1015.50 351.50Q1057 349 1084 349L1084 349L1084 337Q1060 337 1019 335Q978 333 930 329L930 329Q952 304 979 273.50Q1006 243 1041 205L1041 205L1031 199Q988 240 955 270Q922 300 896 322L896 322Q865 284 848 260Q831 236 821.50 219Q812 202 801 182ZM462 16L462 16Q449 78 435.50 125.50Q422 173 411 198L411 198Q402 174 389.50 129.50Q377 85 364 26L364 26Q387 24 411.50 21Q436 18 462 16Z"/></svg>