<svg id="U1246A" viewBox="0 0 876 1000"><path transform="translate(0, 900) scale(1,-1)" d="M574-125L547-145Q486-86 443-47.50Q400-9 367 18.50Q334 46 302.50 69Q271 92 232 120L232 120Q250 133 266.50 144.50Q283 156 298 168L298 168Q261 203 234.50 227Q208 251 186.50 268Q165 285 144.50 300Q124 315 100 333L100 333Q129 353 151.50 370.50Q174 388 199.50 409.50Q225 431 260 463L260 463Q257 465 253.50 467.50Q250 470 247 473L247 473Q276 493 298.50 510.50Q321 528 346.50 549.50Q372 571 407 603L407 603Q404 605 400.50 607.50Q397 610 394 613L394 613Q420 631 441 647Q462 663 484.50 681.50Q507 700 535.50 725.50Q564 751 604 790L604 790L621 776Q589 726 566.50 688.50Q544 651 520 613L520 613Q543 576 565.50 539Q588 502 619 453L619 453Q645 476 677 506Q709 536 749 575L749 575L776 553Q727 478 693.50 421Q660 364 625 308L625 308L776 63L749 43Q688 102 645.50 140Q603 178 570.50 205Q538 232 505 256L505 256Q483 220 463 187Q443 154 423 120L423 120L574-125ZM462 328L462 328Q500 355 532 379.50Q564 404 602 438L602 438Q562 477 533.50 502.50Q505 528 483 546Q461 564 439 580L439 580Q420 551 405 525Q390 499 373 473L373 473Q394 439 414.50 405Q435 371 462 328ZM318 183L318 183Q348 206 379 232.50Q410 259 451 296L451 296L434 308L440 312Q387 362 354.50 390Q322 418 292 440L292 440Q273 411 258 385Q243 359 226 333L226 333Q248 298 269 262.50Q290 227 318 183Z"/></svg>