<svg id="U120F4" viewBox="0 0 2111 1000"><path transform="translate(0, 900) scale(1,-1)" d="M624-199L624-199Q605-83 546 2L546 2L573 5L565 123Q454 111 373.50 98Q293 85 228.50 67.50Q164 50 100 24L100 24Q110 74 110 129L110 129Q110 182 100 239L100 239Q180 206 291.50 184.50Q403 163 563 154L563 154Q556 246 550 314.50Q544 383 536 437L536 437Q435 426 360 413Q285 400 223 383Q161 366 100 341L100 341Q110 391 110 446L110 446Q110 499 100 556L100 556Q176 525 279.50 503.50Q383 482 531 472L531 472Q525 513 517.50 548.50Q510 584 500 619L500 619Q517 615 535 613Q553 611 572 611L572 611Q591 611 610 613Q629 615 648 619L648 619Q632 562 621 483Q610 404 603 289Q596 174 591 8L591 8Q672 21 786.50 52Q901 83 1040.50 126Q1180 169 1338 220Q1496 271 1664 324L1664 324Q1485 381 1317.50 434Q1150 487 1004.50 531Q859 575 744 604Q629 633 555 641L555 641Q614 727 633 842L633 842Q674 811 752 769Q830 727 935.50 676.50Q1041 626 1165 570Q1289 514 1423 456Q1557 398 1692 341L1692 341Q1726 370 1772 412Q1818 454 1869 505Q1920 556 1967 610L1967 610L1995 595Q1947 509 1913 442Q1879 375 1847 322L1847 322Q1870 283 1911.50 221.50Q1953 160 2011 84L2011 84L1985 63Q1888 149 1819.50 205.50Q1751 262 1692 305L1692 305Q1557 248 1422 189.50Q1287 131 1161.50 75Q1036 19 929.50-32Q823-83 744-125.50Q665-168 624-199Z"/></svg>