<svg id="U122DF" viewBox="0 0 1737 1000"><path transform="translate(0, 900) scale(1,-1)" d="M597 585L597 585Q591 606 582 627L582 627Q552 648 506.50 674.50Q461 701 410 726.50Q359 752 309 768L309 768Q323 784 335 801.50Q347 819 355 838L355 838Q380 810 416 777.50Q452 745 491.50 715Q531 685 563 662L563 662L563 663Q588 666 618 674Q648 682 681 692L681 692Q658 738 641.50 758.50Q625 779 612 789.50Q599 800 584 815L584 815Q604 820 621 827.50Q638 835 657 848L657 848Q656 848 656 849L656 849Q692 856 728 883L728 883Q730 863 731 843.50Q732 824 739.50 795.50Q747 767 768 721L768 721Q806 735 845 750.50Q884 766 920 782L920 782Q931 806 938 828L938 828Q984 791 1046.50 754.50Q1109 718 1177 685Q1245 652 1306 624L1306 624L1300 609Q1254 630 1200.50 652.50Q1147 675 1092.50 695.50Q1038 716 989 731Q940 746 903 751L903 751L905 754Q823 718 739.50 675.50Q656 633 597 585ZM693 695L693 695L757 717Q733 765 716 787Q699 809 685.50 820.50Q672 832 658 846L658 846Q659 827 660 808.50Q661 790 668 763.50Q675 737 693 695ZM1637-113L1613-127Q1582-99 1556.50-75Q1531-51 1508-29L1508-29L1505-112L1479-112Q1477-80 1475-50.50Q1473-21 1471 7L1471 7Q1443 36 1417 59.50Q1391 83 1365 102L1365 102Q1382 116 1406.50 136Q1431 156 1460 181L1460 181Q1453 288 1446 367Q1439 446 1430.50 508Q1422 570 1411 624Q1400 678 1384 736L1384 736Q1435 724 1489 724L1489 724Q1543 724 1600 736L1600 736Q1584 682 1572 631.50Q1560 581 1551 524Q1542 467 1535 397.50Q1528 328 1522 237L1522 237Q1545 258 1568 281.50Q1591 305 1613 330L1613 330L1637 317Q1597 247 1569 198Q1541 149 1515 105L1515 105Q1515 104 1514.50 102.50Q1514 101 1514 99L1514 99Q1540 56 1568.50 7Q1597-42 1637-113L1637-113ZM597-24L597-24Q594-13 591-3.50Q588 6 583 16L583 16Q552 37 507 64Q462 91 410.50 116.50Q359 142 309 158L309 158Q323 174 335 191.50Q347 209 355 228L355 228Q380 200 416.50 167.50Q453 135 492.50 104.50Q532 74 564 51L564 51Q563 52 563 53L563 53Q588 56 618 64Q648 72 682 82L682 82Q659 128 642.50 148.50Q626 169 612.50 180Q599 191 584 206L584 206Q614 212 640 228L640 228Q624 241 608.50 248.50Q593 256 574 261L574 261Q589 275 603 287.50Q617 300 634.50 322Q652 344 676 387L676 387Q634 362 602 336L602 336L602 337L601 336Q567 358 517 391.50Q467 425 409 461.50Q351 498 292.50 532.50Q234 567 184 593Q134 619 100 629L100 629Q114 645 126 662.50Q138 680 147 699L147 699Q165 677 204.50 644.50Q244 612 295 573Q346 534 401 495Q456 456 506.50 421.50Q557 387 594 362L594 362Q584 387 570 414L570 414Q613 420 670.50 437.50Q728 455 791 478.50Q854 502 912 526L912 526Q919 539 923.50 552Q928 565 932 578L932 578Q966 550 1015.50 520.50Q1065 491 1121.50 462Q1178 433 1233.50 407Q1289 381 1335 360L1335 360L1328 344Q1282 365 1223.50 389.50Q1165 414 1104.50 437Q1044 460 990.50 477.50Q937 495 899 501L899 501Q872 489 844.50 476.50Q817 464 790 450L790 450Q766 401 756 369Q746 337 743.50 315Q741 293 738 272L738 272Q720 286 703.50 295.50Q687 305 666 309L666 309Q682 324 697 336.50Q712 349 730 372Q748 395 773 441L773 441Q733 422 695 399L695 399Q674 355 664.50 324.50Q655 294 652 272.50Q649 251 646 232L646 232L657 239Q656 239 656 240L656 240Q692 247 728 274L728 274Q730 254 731 234.50Q732 215 739.50 186.50Q747 158 768 111L768 111Q807 125 845.50 140.50Q884 156 920 172L920 172Q931 196 938 218L938 218Q984 181 1046.50 144.50Q1109 108 1177 75Q1245 42 1306 14L1306 14L1300-1Q1254 20 1200.50 42.50Q1147 65 1092.50 85.50Q1038 106 989 121Q940 136 903 141L903 141L906 146Q823 109 739.50 66.50Q656 24 597-24ZM693 85L693 85L757 107Q733 156 716 178Q699 200 685.50 211.50Q672 223 658 237L658 237Q659 218 660 199.50Q661 181 668 154.50Q675 128 693 85ZM645-385L645-385Q612-359 574-349L574-349Q589-334 603-322Q617-310 634.50-287.50Q652-265 676-222L676-222Q656-235 637.50-247.50Q619-260 602-274L602-274L602-273L601-274Q567-252 517-218.50Q467-185 409-148.50Q351-112 292.50-77.50Q234-43 184-17Q134 9 100 19L100 19Q114 35 126 52.50Q138 70 147 89L147 89Q165 67 204.50 34.50Q244 2 295-37Q346-76 401-115Q456-154 506.50-188.50Q557-223 594-248L594-248Q584-223 570-196L570-196Q613-189 670.50-172Q728-155 791-131.50Q854-108 912-83L912-83Q919-71 923.50-58Q928-45 932-32L932-32Q966-60 1015.50-89.50Q1065-119 1121.50-148Q1178-177 1233.50-203Q1289-229 1335-250L1335-250L1328-266Q1282-245 1223.50-220Q1165-195 1104.50-172Q1044-149 990.50-131.50Q937-114 899-108L899-108Q872-121 844.50-133.50Q817-146 790-160L790-160Q766-208 756-240Q746-272 743.50-294.50Q741-317 738-338L738-338Q720-324 703.50-314.50Q687-305 666-301L666-301Q682-286 697-273Q712-260 730-237Q748-214 773-168L773-168L695-210Q672-257 662.50-288.50Q653-320 650.50-342.50Q648-365 645-385Z"/></svg>