<svg id="U122A4" viewBox="0 0 1546 1000"><path transform="translate(0, 900) scale(1,-1)" d="M766-86L750-111L644-42Q643-60 643-77Q643-94 643-110L643-110L613-110Q613-89 612.50-67Q612-45 611-21L611-21Q573 3 533 27.50Q493 52 453 75L453 75Q450-13 450-110L450-110L420-110Q420-54 419.50-3.50Q419 47 417 95L417 95Q334 142 253 181.50Q172 221 100 243L100 243Q145 292 173 352L173 352Q159 381 140.50 409Q122 437 100 461L100 461Q186 488 255 518Q324 548 390.50 586Q457 624 535 674L535 674L520 736Q571 724 625 724L625 724Q679 724 736 736L736 736Q728 706 719.50 665Q711 624 703 575L703 575Q723 569 742.50 564.50Q762 560 781 555L781 555Q781 576 777 593L777 593Q789 586 819.50 578.50Q850 571 886 567L886 567L883 579Q896 575 915 575L915 575Q933 575 949 579L949 579Q946 572 943.50 559.50Q941 547 939 530L939 530L974 526Q972 547 969 563Q966 579 963 590L963 590Q955 588 947 585Q939 582 930 579L930 579Q936 603 936 626L936 626Q936 648 930 675L930 675Q947 669 964.50 664.50Q982 660 1008.50 656Q1035 652 1077 649Q1119 646 1183 643L1183 643Q1182 644 1182 647L1182 647Q1201 643 1218.50 642.50Q1236 642 1252 642L1252 642Q1247 668 1241 691.50Q1235 715 1230 736L1230 736Q1281 724 1335 724L1335 724Q1389 724 1446 736L1446 736Q1432 686 1418.50 607.50Q1405 529 1393.50 434.50Q1382 340 1372.50 241.50Q1363 143 1358 52Q1353-39 1353-110L1353-110L1323-110Q1323-5 1314 127L1314 127Q1201 127 1091 121.50Q981 116 882 103.50Q783 91 703 69L703 69Q709 105 709 142L709 142Q709 179 703 215L703 215Q845 175 994.50 166Q1144 157 1312 157L1312 157Q1306 239 1297 323.50Q1288 408 1277 487L1277 487Q1271 487 1265.50 486.50Q1260 486 1254 486L1254 486Q1251 442 1248.50 384.50Q1246 327 1244 253L1244 253L1228 253L1225 295Q1139 289 1086.50 283.50Q1034 278 1002.50 273Q971 268 951 262.50Q931 257 910 250L910 250Q916 284 915 302.50Q914 321 910 346L910 346L912 345L906 422Q864 420 827.50 411Q791 402 777 394L777 394Q779 402 780 410Q781 418 781 426L781 426Q781 431 780.50 436.50Q780 442 779 447L779 447Q742 440 703 429L703 429Q709 464 709 499L709 499Q709 537 703 573L703 573Q689 488 677.50 387.50Q666 287 657.50 185Q649 83 645-5L645-5Q677-27 707.50-47Q738-67 766-86L766-86ZM610 19L610 19Q607 93 600.50 174.50Q594 256 585.50 338.50Q577 421 566 498.50Q555 576 542 642L542 642Q431 567 347 499.50Q263 432 192 352L192 352Q232 310 289.50 260.50Q347 211 414 160L414 160Q410 245 397.50 325.50Q385 406 362 491L362 491Q398 485 435 485L435 485Q472 485 508 491L508 491Q486 411 473.50 320.50Q461 230 455 129L455 129Q493 101 532 73Q571 45 610 19ZM1206 517L1206 517Q1198 585 1190 620L1190 620Q1100 613 1054.50 607.50Q1009 602 983 595L983 595Q991 595 998.50 595Q1006 595 1014 596L1014 596Q1013 597 1013 599L1013 599L1019 597L1027 599Q1026 598 1026 596L1026 596Q1031 595 1036 594.50Q1041 594 1046 594L1046 594Q1051 594 1056.50 594.50Q1062 595 1067 596L1067 596Q1066 597 1066 599L1066 599L1073 597L1080 599Q1079 598 1079 596L1079 596Q1084 595 1089 594.50Q1094 594 1099 594L1099 594Q1104 594 1109 594.50Q1114 595 1119 596L1119 596Q1118 597 1118 599L1118 599L1125 597L1132 599Q1131 598 1131 596L1131 596Q1136 595 1140 595Q1144 595 1148 595L1148 595Q1157 595 1166 596Q1175 597 1184 599L1184 599Q1180 589 1177 568Q1174 547 1171 518L1171 518Q1179 518 1188 517.50Q1197 517 1206 517ZM1257 517L1257 517L1273 517L1264 579Q1262 566 1260.50 550Q1259 534 1257 517ZM1066 520L1066 520L1080 520L1073 570Q1071 560 1069.50 547.50Q1068 535 1066 520ZM1132 518L1132 518Q1131 534 1129 547Q1127 560 1125 570L1125 570Q1123 560 1121.50 547Q1120 534 1118 519L1118 519Q1122 519 1125.50 518.50Q1129 518 1132 518ZM1020 568L1014 523L1027 523Q1026 536 1024 547.50Q1022 559 1020 568L1020 568ZM834 544L892 535L889 553Q859 550 834 544L834 544ZM1159 315L1224 312Q1220 366 1216.50 409Q1213 452 1210 486L1210 486Q1199 486 1188.50 485.50Q1178 485 1168 485L1168 485Q1165 450 1163 407Q1161 364 1159 315L1159 315ZM1151 315L1151 315Q1147 366 1143.50 408.50Q1140 451 1136 484L1136 484Q1131 484 1125.50 484Q1120 484 1115 483L1115 483Q1113 449 1111 407Q1109 365 1107 317L1107 317Q1117 317 1128.50 316.50Q1140 316 1151 315ZM1054 321L1097 318Q1094 368 1091 408.50Q1088 449 1084 482L1084 482Q1079 482 1073.50 482Q1068 482 1063 481L1063 481Q1060 448 1058 407.50Q1056 367 1054 321L1054 321ZM1002 326L1044 321Q1038 417 1032 479L1032 479Q1026 479 1020.50 478.50Q1015 478 1010 478L1010 478Q1008 446 1006 408Q1004 370 1002 326L1002 326ZM992 327L992 327Q989 371 986 408Q983 445 980 476L980 476L933 471Q931 444 929 411.50Q927 379 925 341L925 341Q949 333 992 327ZM905 431L905 431L901 467Q874 464 848.50 460Q823 456 798 451L798 451Q818 444 846 438.50Q874 433 905 431Z"/></svg>