<svg id="U120EB" viewBox="0 0 1462 1000"><path transform="translate(0, 900) scale(1,-1)" d="M317-350L294-350Q294-292 288.50-232Q283-172 275-114L275-114Q160-129 100-146L100-146Q112-95 112-41L112-41Q112 13 100 70L100 70Q126 63 163 56Q200 49 246 42L246 42Q233 98 220.50 141Q208 184 198 205L198 205Q227 201 255.50 198Q284 195 313 195L313 195Q360 195 408 204L408 204L408 205Q409 205 409.50 204.50Q410 204 411 204L411 204Q412 204 412.50 204.50Q413 205 414 205L414 205L413 204Q440 200 467.50 198Q495 196 523 196L523 196Q546 196 568 197.50Q590 199 613 203L613 203Q644 241 663 296L663 296Q652 326 638.50 350.50Q625 375 607 397L607 397Q647 403 680 407.50Q713 412 750.50 423Q788 434 841 457L841 457Q830 473 818.50 488Q807 503 794 521L794 521Q824 523 853.50 532Q883 541 915 556L915 556Q916 521 916 492.50Q916 464 917.50 434.50Q919 405 925.50 366.50Q932 328 945 274L945 274Q958 270 970 268.50Q982 267 995 266L995 266Q975 239 958 215.50Q941 192 925.50 166Q910 140 893.50 103.50Q877 67 857 13L857 13L843 18Q859 81 865 124L865 124Q806 151 765.50 163.50Q725 176 691.50 182Q658 188 619 193L619 193Q609 166 596 117Q583 68 569 6L569 6Q677-3 792-10Q907-17 1021.50-20.50Q1136-24 1240-25L1240-25Q1236 166 1220.50 314.50Q1205 463 1183 574L1183 574Q1011 569 852 561.50Q693 554 558 544.50Q423 535 321 522.50Q219 510 160 494L160 494Q172 551 172 605L172 605Q172 659 160 710L160 710Q253 684 400.50 667Q548 650 744 637Q940 624 1176 609L1176 609Q1169 644 1161.50 676Q1154 708 1146 736L1146 736Q1197 724 1251 724L1251 724Q1305 724 1362 736L1362 736Q1339 653 1317 533.50Q1295 414 1281 254Q1267 94 1267-112L1267-112L1241-112Q1241-96 1240.50-81Q1240-66 1240-51L1240-51Q1134-51 1016.50-55Q899-59 780.50-66Q662-73 552-83L552-83Q542-147 534.50-216Q527-285 527-350L527-350L504-350Q504-286 498-219.50Q492-153 481-90L481-90L339-105Q329-165 323-228Q317-291 317-350L317-350ZM868 142L868 142Q873 186 873 221Q873 256 874 301L874 301Q903 288 928 279L928 279Q906 338 888 375Q870 412 852 440L852 440Q806 412 777.50 388.50Q749 365 727 343Q705 321 678 296L678 296Q706 269 729.50 246Q753 223 784.50 198.50Q816 174 868 142ZM462 16L462 16Q449 78 435.50 125.50Q422 173 411 198L411 198Q402 174 389.50 129.50Q377 85 364 26L364 26Q387 24 411.50 21Q436 18 462 16Z"/></svg>