<svg id="U12035" viewBox="0 0 1477 1000"><path transform="translate(0, 900) scale(1,-1)" d="M1294-112L1268-112Q1258 46 1248.50 160.50Q1239 275 1230.50 359Q1222 443 1211 508L1211 508Q1178 451 1149 406.50Q1120 362 1097 324L1097 324Q1117 290 1152.50 237.50Q1188 185 1237 120L1237 120L1216 102Q1130 177 1071 226Q1012 275 961 312L961 312Q757 194 629 104.50Q501 15 439-44L439-44Q428-3 411 28Q394 59 372 86L372 86L392 92L392 314Q329 308 289.50 302Q250 296 221.50 288.50Q193 281 165.50 270Q138 259 100 244L100 244Q104 265 106 285.50Q108 306 108 327L108 327Q108 347 106 369Q104 391 100 414L100 414Q131 401 158 389.50Q185 378 216 368Q247 358 289 350.50Q331 343 392 340L392 340L392 566Q387 568 382 570Q377 572 372 573L372 573Q394 600 411 631.50Q428 663 439 703L439 703Q501 643 631.50 553Q762 463 969 343L969 343Q998 367 1037.50 400.50Q1077 434 1120.50 474Q1164 514 1203 556L1203 556Q1194 603 1184 646.50Q1174 690 1161 736L1161 736Q1212 724 1266 724L1266 724Q1320 724 1377 736L1377 736Q1363 686 1352 630.50Q1341 575 1332 507Q1323 439 1316 351.50Q1309 264 1303.50 150Q1298 36 1294-112L1294-112ZM427 554L427 104L482 125L482 533Q468 539 454.50 544.50Q441 550 427 554L427 554ZM517 519L517 426Q545 437 563 444Q581 451 595.50 458Q610 465 626 474L626 474Q596 487 569 498Q542 509 517 519L517 519ZM815 269L815 269L947 330Q849 374 771 409.50Q693 445 630 472L630 472Q635 451 640 425Q645 399 659 349L659 349Q692 362 712.50 370Q733 378 748.50 385.50Q764 393 782 404L782 404Q788 381 793.50 353Q799 325 815 269ZM658 199L658 199L802 264Q788 287 775 304.50Q762 322 750 340L750 340Q728 338 705.50 337.50Q683 337 656 333L656 333L655 336L651 333Q637 357 623.50 375Q610 393 597 412L597 412Q578 410 559 409.50Q540 409 517 407L517 407L517 270Q546 281 564 288.50Q582 296 597 303Q612 310 629 320L629 320Q634 298 639.50 272.50Q645 247 658 199ZM517 251L517 139Q545 150 576 163.50Q607 177 641 192L641 192Q630 210 619 225Q608 240 597 256L597 256Q578 254 559 253.50Q540 253 517 251L517 251Z"/></svg>