<svg id="U1216B" viewBox="0 0 1839 1000"><path transform="translate(0, 900) scale(1,-1)" d="M754-112L728-112L728-71Q643-30 544 12Q445 54 355 89L355 89L349-15L330-15Q330 5 329 35Q328 65 326 100L326 100Q240 134 178 156Q116 178 100 179L100 179Q122 205 139.50 241Q157 277 169 308L169 308Q157 340 139.50 376Q122 412 100 437L100 437Q112 438 150.50 451Q189 464 246.50 485.50Q304 507 372.50 534Q441 561 513 592Q585 623 653 654L653 654Q648 676 643 696.50Q638 717 633 736L633 736Q684 724 738 724L738 724Q792 724 849 736L849 736Q841 707 833 673Q825 639 817 601L817 601Q835 597 879.50 591Q924 585 986.50 578.50Q1049 572 1122.50 565.50Q1196 559 1274 553.50Q1352 548 1427 544Q1502 540 1567 538L1567 538Q1557 597 1545.50 646Q1534 695 1523 736L1523 736Q1574 724 1628 724L1628 724Q1682 724 1739 736L1739 736Q1716 653 1694 533.50Q1672 414 1658 254Q1644 94 1644-112L1644-112L1618-112Q1618-53 1616.50 2Q1615 57 1613 109L1613 109Q1557 108 1479 104.50Q1401 101 1314.50 95Q1228 89 1143 82Q1058 75 986.50 67.50Q915 60 867.50 54Q820 48 809 43L809 43Q812 62 814.50 84Q817 106 817 129L817 129Q817 167 809 202L809 202Q820 197 871 190Q922 183 996 175L996 175Q989 198 975 217L975 217L996 221Q995 253 991.50 291.50Q988 330 984 362.50Q980 395 975 408L975 408Q989 405 1001 405Q1013 405 1023 406L1023 406Q1010 410 997.50 412.50Q985 415 975 416L975 416Q983 428 989.50 441.50Q996 455 1000 471L1000 471Q925 464 872.50 457Q820 450 809 445L809 445Q812 464 814.50 486Q817 508 817 531L817 531Q817 545 816 557.50Q815 570 813 583L813 583Q790 467 773 310Q756 153 754-53L754-53Q773-63 790-72.50Q807-82 822-90L822-90L810-111Q797-104 783-97Q769-90 754-83L754-83L754-112ZM364 203L364 203Q378 220 388.50 237.50Q399 255 409 280L409 280L408 280Q427 300 439 319.50Q451 339 464 367L464 367Q463 367 462.50 367.50Q462 368 461 368L461 368Q481 389 493 408.50Q505 428 518 458L518 458Q533 437 565 408Q597 379 636.50 349Q676 319 710 293L710 293L699 393Q655 416 608.50 433.50Q562 451 519 458L519 458Q539 479 551 498.50Q563 518 576 548L576 548Q593 523 626 493Q659 463 693 434L693 434Q686 486 678 532.50Q670 579 661 619L661 619Q601 583 535 542Q469 501 406.50 460.50Q344 420 294 386L294 386Q314 382 335 382L335 382Q359 382 392 388L392 388Q383 366 376 314.50Q369 263 364 203ZM1571 326L1571 326Q1543 353 1529.50 367Q1516 381 1496 394L1496 394Q1511 406 1528 420Q1545 434 1579 464L1579 464L1572 510Q1516 509 1446.50 505Q1377 501 1302 496Q1227 491 1153.50 484.50Q1080 478 1015 472L1015 472Q1050 448 1118 412.50Q1186 377 1271 337L1271 337Q1270 347 1269.50 356.50Q1269 366 1267 374L1267 374Q1292 366 1341 355.50Q1390 345 1451 337Q1512 329 1571 326ZM1611 135L1611 135Q1607 224 1599.50 302Q1592 380 1582 447L1582 447Q1574 433 1567.50 420Q1561 407 1553 394L1553 394Q1562 380 1570.50 362Q1579 344 1589 326L1589 326L1589 315Q1579 296 1570.50 280Q1562 264 1553 248L1553 248Q1562 234 1570.50 218Q1579 202 1589 183L1589 183L1580 175Q1557 196 1544 208.50Q1531 221 1521 230Q1511 239 1496 248L1496 248Q1510 259 1525.50 273Q1541 287 1572 315L1572 315Q1508 314 1447.50 303Q1387 292 1340 279Q1293 266 1267 257L1267 257Q1269 265 1270 275Q1271 285 1272 296L1272 296Q1196 261 1132.50 228Q1069 195 1031 171L1031 171Q1098 165 1174 158.50Q1250 152 1328 147Q1406 142 1478.50 139Q1551 136 1611 135ZM1026 392L1026 392Q1040 390 1051.50 390.50Q1063 391 1075 392L1075 392L1030 405Q1028 400 1026 392ZM1058 237L1058 237Q1101 250 1155 268.50Q1209 287 1272 311L1272 311L1272 323Q1217 345 1168.50 361.50Q1120 378 1080 390L1080 390Q1072 368 1067 324Q1062 280 1058 237ZM1007 223L1007 223L1045 233Q1043 262 1040 293Q1037 324 1033.50 350Q1030 376 1025 389L1025 389Q1018 359 1014.50 311.50Q1011 264 1007 223ZM317 215L317 215Q312 267 305 312Q298 357 288 382L288 382Q252 358 225 338.50Q198 319 184 308L184 308Q201 294 236 270Q271 246 317 215ZM720 159L720 159Q719 185 717 210.50Q715 236 713 261L713 261Q676 283 631.50 305Q587 327 544 344Q501 361 467 367L467 367Q481 349 511.50 322Q542 295 579.50 265Q617 235 654.50 207Q692 179 720 159ZM726 31L726 31Q725 57 724 82.50Q723 108 721 132L721 132Q691 150 649.50 173.50Q608 197 563 219.50Q518 242 477.50 258.50Q437 275 410 280L410 280Q421 264 448.50 239.50Q476 215 513.50 186Q551 157 591 127.50Q631 98 667 73Q703 48 726 31ZM727-38L727-38Q727-27 727-15.50Q727-4 726 6L726 6Q704 20 668.50 40.50Q633 61 590.50 84Q548 107 505 128Q462 149 424.50 165Q387 181 362 187L362 187L362 186Q419 150 482.50 110Q546 70 609 32Q672-6 727-38Z"/></svg>