<svg id="U1226D" viewBox="0 0 810 1000"><path transform="translate(0, 900) scale(1,-1)" d="M446-393L446-393Q426-367 406-349.50Q386-332 360-318L360-318L370-312Q335-280 296.50-246.50Q258-213 221-182.50Q184-152 152.50-129Q121-106 100-96L100-96Q135-76 165-45L165-45Q135-14 100 6L100 6Q121 16 152 38.50Q183 61 220 91.50Q257 122 295 155.50Q333 189 368 221L368 221Q366 223 364 224Q362 225 360 226L360 226Q397 246 427 279L427 279Q412 296 396 308.50Q380 321 360 332L360 332L370 337Q335 369 296.50 403Q258 437 221 467.50Q184 498 152.50 521Q121 544 100 554L100 554Q135 574 165 605L165 605Q135 636 100 656L100 656Q121 666 152 688.50Q183 711 220 741.50Q257 772 295 805.50Q333 839 368 871L368 871Q366 873 364 874Q362 875 360 876L360 876Q408 903 446 951L446 951Q453 934 474.50 902.50Q496 871 526 831.50Q556 792 589.50 750.50Q623 709 654 671Q685 633 708 604L708 604L710 604Q685 572 648.50 528Q612 484 574.50 437.50Q537 391 505.50 349Q474 307 457 279L457 279Q474 251 505.50 209Q537 167 574.50 120Q612 73 648.50 29.50Q685-14 710-46L710-46Q687-75 655.50-113Q624-151 590.50-192.50Q557-234 526.50-273Q496-312 474.50-343.50Q453-375 446-393ZM393 352L393 352Q396 354 399.50 356Q403 358 406 361L406 361Q405 418 400 481.50Q395 545 386 607.50Q377 670 363 723L363 723Q376 721 389.50 719.50Q403 718 416 718L416 718Q430 718 443.50 719.50Q457 721 470 723L470 723Q445 634 436.50 545Q428 456 426 376L426 376Q467 407 514.50 447.50Q562 488 607.50 529.50Q653 571 688 604L688 604Q658 633 619 668Q580 703 539 739Q498 775 460 806Q422 837 392 857L392 857Q357 815 318.50 767.50Q280 720 248 677Q216 634 198 605L198 605Q216 576 248.50 532.50Q281 489 319.50 442Q358 395 393 352ZM393-298L393-298L406-289Q405-232 400-168Q395-104 386-41.50Q377 21 363 73L363 73Q376 71 389.50 69.50Q403 68 416 68L416 68Q430 68 443.50 69.50Q457 71 470 73L470 73Q445-15 436.50-104.50Q428-194 426-274L426-274Q467-243 514.50-202.50Q562-162 607.50-120.50Q653-79 688-46L688-46Q658-17 619 18Q580 53 539 89Q498 125 460 156Q422 187 392 207L392 207Q357 165 318.50 117.50Q280 70 248 27Q216-16 198-45L198-45Q216-74 248.50-117Q281-160 319.50-208Q358-256 393-298Z"/></svg>