<svg id="U1218E" viewBox="0 0 1168 1000"><path transform="translate(0, 900) scale(1,-1)" d="M502-191L496-197Q482-184 452.50-158Q423-132 385.50-98.50Q348-65 308.50-30Q269 5 233 35.50Q197 66 170.50 86Q144 106 134 109L134 109Q170 135 193 165L193 165L165 188Q176 192 215.50 225Q255 258 309 307L309 307L304 306Q306 323 308.50 343.50Q311 364 314 405L314 405Q291 387 268.50 369Q246 351 226 337L226 337L220 343Q240 366 264 395.50Q288 425 311.50 456Q335 487 350 512L350 512Q320 489 289 463Q258 437 231 414.50Q204 392 185 378L185 378L179 384Q197 404 226.50 438.50Q256 473 287.50 511.50Q319 550 344 583L344 583Q306 552 267.50 518.50Q229 485 197 458Q165 431 146 417L146 417L140 423Q153 438 177.50 465.50Q202 493 232 527Q262 561 292 596.50Q322 632 347 663L347 663Q313 634 277 602.50Q241 571 207.50 542Q174 513 147.50 490.50Q121 468 107 457L107 457L100 463Q113 478 139 507Q165 536 198.50 573.50Q232 611 267 650.50Q302 690 332.50 726Q363 762 383.50 788Q404 814 407 824L407 824Q431 789 462 765L462 765Q477 780 486 793L486 793Q490 783 523 743Q556 703 604 650L604 650L603 655Q614 654 626.50 652Q639 650 658 648L658 648L609 677Q637 694 660.50 717.50Q684 741 703 771L703 771Q723 736 750 697.50Q777 659 816.50 610.50Q856 562 912.50 499.50Q969 437 1047 354L1047 354L1037 344Q986 388 944 424.50Q902 461 867 490L867 490L809 425Q855 376 890 338.50Q925 301 937 287L937 287Q947 302 956 318Q965 334 974 350L974 350Q1008 295 1068 256L1068 256Q1034 236 995 208.50Q956 181 908 141.50Q860 102 797.50 45.50Q735-11 652-89L652-89L641-78Q686-27 722 15Q758 57 787 91L787 91Q760 114 720 151Q680 188 634 229L634 229L632 227L633 227Q637 207 642.50 190.50Q648 174 652 157L652 157Q668 153 684.50 147.50Q701 142 722 138L722 138L721 127Q691 126 673.50 125Q656 124 643 123Q630 122 613 118L613 118Q615 135 617.50 155.50Q620 176 623 216L623 216Q616 208 608.50 199.50Q601 191 594 183L594 183Q599 164 603.50 148Q608 132 612 117L612 117Q628 113 645 108Q662 103 682 98L682 98L682 89Q652 87 634 86Q616 85 603 84Q590 83 573 79L573 79Q575 96 577.50 115Q580 134 584 170L584 170Q555 136 535.50 111.50Q516 87 513 77L513 77L503 90Q527 53 561 8.50Q595-36 621-71L621-71L615-78Q593-58 563-34Q533-10 502.50 13Q472 36 447 52L447 52Q471 23 496-8Q521-39 543.50-66Q566-93 580-112L580-112L574-119Q554-101 519.50-71.50Q485-42 447-10Q409 22 376 46L376 46Q407 9 440-29.50Q473-68 500.50-100Q528-132 542-151L542-151L535-158Q520-144 492.50-120Q465-96 431-66Q397-36 361.50-6Q326 24 295 49L295 49Q324 15 355.50-21Q387-57 416-90.50Q445-124 468-150Q491-176 502-191L502-191ZM458 682L458 682L467 693Q451 706 440 713.50Q429 721 422 725L422 725L417 721Q435 700 458 682ZM585 560L585 560L602 575Q568 606 538 632.50Q508 659 483 680L483 680Q497 661 524 629.50Q551 598 585 560ZM440 587L440 587L451 600Q418 627 405 632L405 632L398 627Q408 615 419 605Q430 595 440 587ZM718 607L718 607Q711 613 703.50 618.50Q696 624 688 629L688 629L671 624L662 613Q673 612 686 610.50Q699 609 718 607ZM679 567L689 555L726 589Q713 586 702.50 582.50Q692 579 682 576L682 576L679 567ZM703 540L742 498L797 548Q783 559 770.50 569Q758 579 746 588L746 588L703 540ZM531 509L531 509L543 521L466 588Q486 560 531 509ZM423 491L423 491Q427 495 430.50 499Q434 503 437 507L437 507Q402 535 390 540L390 540Q395 544 401 549Q407 554 413 559L413 559L379 534Q390 522 401 511Q412 500 423 491ZM635 505L635 505L649 518L649 533L624 556L622 545L612 546L611 556L600 543Q617 524 635 505ZM755 483L792 443L855 501Q827 523 806 541L806 541L755 483ZM653 484L687 447L715 473L676 509L653 484ZM549 488L580 453L599 471L563 503L549 488ZM477 460L477 460L485 467L449 498Q454 491 461 481Q468 471 477 460ZM705 427L737 393L770 423L732 457L705 427ZM382 384L391 381L425 411Q407 425 394 434.50Q381 444 375 446L375 446L389 456L365 441Q369 425 373.50 411.50Q378 398 382 384L382 384ZM602 428L631 396L656 419L622 450L602 428ZM500 434L525 403L541 418L510 445L500 434ZM343 343L348 342L352 346L344 344Q346 361 348 379.50Q350 398 352 432L352 432L324 412Q328 392 333.50 375.50Q339 359 343 343L343 343ZM894 225L894 225Q905 241 915.50 256Q926 271 936 286L936 286L930 280Q915 291 877.50 325Q840 359 791 404L791 404L759 369Q800 326 835.50 288.50Q871 251 894 225ZM654 371L681 341L711 369L679 398L654 371ZM552 373L576 346L599 367L569 393L552 373ZM423 348L461 344L482 363L456 385Q452 381 447.50 376Q443 371 439 366L439 366L452 364L451 352L425 351L423 348ZM845 162L845 162Q856 176 866 188Q876 200 885 212L885 212Q859 235 820.50 270Q782 305 738 345L738 345L708 312Q752 263 789 223.50Q826 184 845 162ZM278 185L278 185Q300 202 338.50 235Q377 268 423 309L423 309L418 343L403 327L414 325L413 314L390 313Q358 277 329 244Q300 211 278 185ZM604 315L625 292L654 317L627 341L604 315ZM531 305L531 305L540 313L522 328L508 325L493 309Q501 308 510 307Q519 306 531 305ZM658 255L797 103L838 152Q816 170 775.50 207Q735 244 686 288L686 288L658 255ZM463 154L463 154Q483 168 518 197.50Q553 227 595 264L595 264L574 282Q543 246 514 213Q485 180 463 154ZM368 167L368 167Q384 178 410 199.50Q436 221 467 249L467 249L466 278Q459 271 452 263.50Q445 256 439 248L439 248L437 240L431 240Q413 220 397.50 201.50Q382 183 368 167ZM233 124L237 120Q248 129 258 139.50Q268 150 276 160L276 160Q273 162 270 164Q267 166 265 168L265 168Q239 137 233 124L233 124ZM325 108L331 101Q353 120 371 143L371 143L358 154Q345 138 336 126Q327 114 325 108L325 108ZM401 113L424 82Q449 102 467 125L467 125L452 139Q439 122 430 110Q421 98 419 92L419 92L401 113Z"/></svg>