<svg id="U1223B" viewBox="0 0 1355 1000"><path transform="translate(0, 900) scale(1,-1)" d="M716-183L704-183L698-106L696-113L669-105L674-90Q652-19 618.50 70Q585 159 547 250L547 250Q486 245 427.50 239.50Q369 234 316 227L316 227Q308 133 303 45.50Q298-42 298-110L298-110L268-110Q268-42 264 43Q260 128 252 219L252 219Q205 212 166 205.50Q127 199 100 191L100 191Q112 242 112 296L112 296Q112 350 100 407L100 407Q123 401 157.50 394.50Q192 388 236 382L236 382Q224 485 208.50 577.50Q193 670 175 736L175 736Q226 724 280 724L280 724Q334 724 391 736L391 736L379 689Q463 704 540 748L540 748Q542 705 549.50 641Q557 577 570 501.50Q583 426 599 346L599 346Q652 342 706 338Q760 334 812 330L812 330Q823 375 830.50 414Q838 453 839 482L839 482Q871 464 894.50 455Q918 446 954 440L954 440Q938 419 920.50 390Q903 361 885 326L885 326L1053 318Q1040 438 1023 549Q1006 660 985 736L985 736Q1036 724 1090 724L1090 724Q1144 724 1201 736L1201 736Q1189 692 1177 626Q1165 560 1154 480Q1143 400 1134 315L1134 315Q1157 314 1179 314Q1201 314 1218 314L1218 314L1218 284Q1200 284 1178 284Q1156 284 1131 283L1131 283Q1130 279 1129.50 270.50Q1129 262 1127 244L1127 244Q1153 204 1188 157.50Q1223 111 1253 72L1253 72L1249 69L1255 66Q1230 52 1189.50 15.50Q1149-21 1109-61L1109-61Q1108-73 1108-86Q1108-99 1108-110L1108-110L1078-110L1078-92L1059-112L1060-113L1051-121L1043-113L1043-112Q1019-86 988.50-55.50Q958-25 927.50 3Q897 31 872 49L872 49Q863 13 856-41.50Q849-96 846-183L846-183L834-183Q833-179 833-176Q833-173 833-169L833-169Q826-68 811.50-9Q797 50 783 91L783 91Q790 89 797 88Q804 87 811 86L811 86Q809 104 807 120.50Q805 137 803 151L803 151Q782 104 761.50 54Q741 4 721-46L721-46Q720-77 718.50-111Q717-145 716-183L716-183ZM503 354L503 354Q469 431 434 501.50Q399 572 367 628L367 628Q347 515 330 371L330 371Q371 367 414 362.50Q457 358 503 354ZM1055 236L1055 236L1060 239Q1059 253 1058.50 261Q1058 269 1057 280L1057 280Q1044 280 1032 279.50Q1020 279 1006 278L1006 278Q1017 266 1028 256.50Q1039 247 1055 236ZM860 86L860 86L881 90Q905 122 929.50 157Q954 192 973 224.50Q992 257 1000 278L1000 278Q966 277 930.50 275Q895 273 857 271L857 271L840 235Q861 235 885 241L885 241Q878 221 871.50 182.50Q865 144 860 86ZM692-43L692-43L693-39Q684 74 674 140.50Q664 207 653 241L653 241Q677 235 703 235L703 235Q728 235 755 241L755 241Q740 198 728 60L728 60Q744 105 758.50 149Q773 193 785 234L785 234L783 241L787 240Q789 247 791.50 254Q794 261 795 268L795 268L618 256Q635 174 654 97Q673 20 692-43ZM1051-101L1051-101L1077-64Q1077-14 1074 41L1074 41Q1046 38 1025 35.50Q1004 33 1001 31L1001 31Q1003 42 1004 56.50Q1005 71 1001 80L1001 80Q1004 79 1024.50 76Q1045 73 1072 70L1072 70Q1072 80 1071.50 90Q1071 100 1070 110L1070 110Q1044 107 1024 104Q1004 101 1001 99L1001 99Q1003 110 1004 125Q1005 140 1001 149L1001 149Q1004 147 1023.50 144.50Q1043 142 1068 139L1068 139L1061 225L1055 229Q1032 214 1013 198.50Q994 183 972 162.50Q950 142 918 111L918 111Q928 89 950.50 52Q973 15 1000.50-26Q1028-67 1051-101ZM1177 129L1177 129Q1163 143 1149 155Q1135 167 1122 178L1122 178Q1121 168 1120 157Q1119 146 1118 134L1118 134Q1148 132 1177 129ZM1160 62L1160 62Q1182 100 1188 119L1188 119Q1202 99 1225 85L1225 85L1185 122Q1168 121 1151 119Q1134 117 1117 115L1117 115L1114 66Q1126 65 1138 64.50Q1150 64 1160 62ZM1113 45L1110-16Q1121 1 1132 17.50Q1143 34 1152 49L1152 49Q1143 48 1133.50 47.50Q1124 47 1113 45L1113 45Z"/></svg>