<svg id="U12076" viewBox="0 0 1405 1000"><path transform="translate(0, 900) scale(1,-1)" d="M621-86L621-112Q587-89 549.50-73.50Q512-58 464-47L464-47L503-3Q466 25 431.50 50.50Q397 76 371 92L371 92Q332 57 294.50 22.50Q257-12 230-40Q203-68 194-83L194-83Q179-56 164.50-26.50Q150 3 124 26L124 26Q129 27 138 29.50Q147 32 158 36L158 36Q149 217 134.50 340Q120 463 100 527L100 527Q129 520 158 520L158 520Q174 520 189 522Q204 524 219 527L219 527Q210 473 203 407.50Q196 342 190.50 254Q185 166 178 44L178 44Q211 58 255.50 78Q300 98 343 120L343 120Q366 137 389 155.50Q412 174 430 199L430 199Q436 180 466.50 134.50Q497 89 535 37L535 37Q549 57 564 80.50Q579 104 595 131L595 131Q594 131 593 130.50Q592 130 591 130L591 130Q595 151 597 171.50Q599 192 599 213L599 213Q599 233 597 255Q595 277 591 300L591 300Q614 291 660.50 282.50Q707 274 769.50 267Q832 260 901.50 254Q971 248 1040.50 243.50Q1110 239 1170 236L1170 236Q1163 320 1156 385Q1149 450 1140.50 503Q1132 556 1122 603L1122 603Q958 597 808 590Q658 583 530.50 573.50Q403 564 306.50 551.50Q210 539 153 524L153 524Q165 581 165 635L165 635Q165 689 153 740L153 740Q243 715 382.50 698.50Q522 682 706.50 669.50Q891 657 1113 642L1113 642Q1108 665 1102 688Q1096 711 1089 736L1089 736Q1140 724 1194 724L1194 724Q1248 724 1305 736L1305 736Q1288 676 1275 607Q1262 538 1252.50 448Q1243 358 1236 233L1236 233Q1242 232 1247.50 232Q1253 232 1259 232L1259 232L1259 210L1234 207Q1230 140 1227 60.50Q1224-19 1222-112L1222-112L1196-112Q1190-18 1184 60Q1178 138 1173 202L1173 202Q1111 197 1040.50 191.50Q970 186 899.50 179.50Q829 173 765.50 165.50Q702 158 655 148L655 148Q638 81 630.50 30Q623-21 621-73L621-73L627-80L621-86Z"/></svg>