<svg id="U1215A" viewBox="0 0 1839 1000"><path transform="translate(0, 900) scale(1,-1)" d="M754-112L728-112L728-71Q643-30 544 12Q445 54 355 89L355 89L349-15L330-15Q330 5 329 35Q328 65 326 100L326 100Q240 134 178 156Q116 178 100 179L100 179Q122 205 139.50 241Q157 277 169 308L169 308Q157 340 139.50 376Q122 412 100 437L100 437Q112 438 150.50 451Q189 464 246.50 485.50Q304 507 372.50 534Q441 561 513 592Q585 623 653 654L653 654Q648 676 643 696.50Q638 717 633 736L633 736Q684 724 738 724L738 724Q792 724 849 736L849 736Q841 707 833 673Q825 639 817 601L817 601Q836 596 883 590Q930 584 997 577Q1064 570 1142 563.50Q1220 557 1301.50 551.50Q1383 546 1459 542L1459 542Q1470 550 1476.50 557.50Q1483 565 1490 576L1490 576Q1492 570 1495.50 563.50Q1499 557 1503 550L1503 550L1517 562L1523 556Q1520 552 1516.50 548.50Q1513 545 1510 540L1510 540Q1525 539 1539 538.50Q1553 538 1567 538L1567 538Q1557 597 1545.50 646Q1534 695 1523 736L1523 736Q1574 724 1628 724L1628 724Q1682 724 1739 736L1739 736Q1716 653 1694 533.50Q1672 414 1658 254Q1644 94 1644-112L1644-112L1618-112Q1618-53 1616.50 2Q1615 57 1613 109L1613 109Q1594 109 1572.50 108.50Q1551 108 1528 107L1528 107Q1514 95 1499 82.50Q1484 70 1470 59L1470 59L1464 65L1502 106Q1438 103 1365 98.50Q1292 94 1217.50 88Q1143 82 1074.50 75.50Q1006 69 949.50 63Q893 57 856 52Q819 47 809 43L809 43Q812 62 814.50 84Q817 106 817 129L817 129Q817 167 809 202L809 202Q818 198 849 193L849 193Q848 202 847.50 211Q847 220 845 228L845 228Q836 226 827 222.50Q818 219 810 216L810 216Q812 227 813 237.50Q814 248 814 259L814 259Q814 282 810 305L810 305Q815 303 821 300.50Q827 298 834 296L834 296Q833 303 830 310Q827 317 825 324L825 324Q840 321 851.50 321Q863 321 881 324L881 324Q877 316 874.50 307Q872 298 870 287L870 287L903 281Q899 302 891 324L891 324Q906 321 917.50 321Q929 321 946 324L946 324Q939 305 934 277L934 277L963 274Q963 279 963 283.50Q963 288 962 292L962 292Q976 286 988.50 281.50Q1001 277 1013 272L1013 272Q1012 282 1009.50 290.50Q1007 299 1004 307L1004 307Q1019 308 1042.50 311.50Q1066 315 1094 319L1094 319Q1066 324 1042.50 327.50Q1019 331 1004 332L1004 332Q1007 340 1009.50 348.50Q1012 357 1013 366L1013 366L962 347Q963 353 963 359.50Q963 366 963 372L963 372Q915 366 878 358Q841 350 810 338L810 338Q812 348 813 358.50Q814 369 814 380L814 380Q814 391 813 402.50Q812 414 810 427L810 427Q835 416 874 408Q913 400 962 395L962 395Q959 416 953 436L953 436Q979 432 1007 430Q1035 428 1073 428L1073 428Q1106 428 1148.50 429.50Q1191 431 1247 435L1247 435L1235 483Q1246 481 1256.50 479.50Q1267 478 1278 478L1278 478Q1289 478 1300.50 479.50Q1312 481 1324 483L1324 483Q1315 450 1308 409Q1301 368 1297 307Q1293 246 1290 150L1290 150Q1334 147 1378 144.50Q1422 142 1463 140L1463 140Q1465 143 1468.50 147Q1472 151 1475 155L1475 155L1456 171Q1449 165 1442.50 159Q1436 153 1433 150L1433 150L1429 154L1448 178L1430 194L1408 174L1404 179Q1412 187 1422 200L1422 200Q1416 205 1410 210Q1404 215 1399 220L1399 220L1380 204L1376 207L1391 226Q1367 246 1346 261Q1325 276 1311 283L1311 283Q1325 291 1334 300Q1343 309 1355 327L1355 327Q1360 315 1375.50 295Q1391 275 1411 251L1411 251Q1420 262 1428 272.50Q1436 283 1441 291L1441 291L1431 296L1445 306Q1439 309 1429 318L1429 318Q1434 320 1439 322.50Q1444 325 1449 328L1449 328Q1432 342 1410 359.50Q1388 377 1374 383L1374 383Q1357 362 1351 346L1351 346Q1341 360 1332.50 369Q1324 378 1307 390L1307 390Q1341 410 1379.50 441.50Q1418 473 1454 505L1454 505Q1378 501 1293.50 495Q1209 489 1127.50 482Q1046 475 978 468Q910 461 865 455Q820 449 809 445L809 445Q812 464 814.50 486Q817 508 817 531L817 531Q817 545 816 557.50Q815 570 813 583L813 583Q790 467 773 310Q756 153 754-53L754-53Q773-63 790-72.50Q807-82 822-90L822-90L810-111Q797-104 783-97Q769-90 754-83L754-83L754-112ZM726 31L726 31Q725 57 724 82.50Q723 108 721 132L721 132Q691 150 649.50 173.50Q608 197 562.50 219.50Q517 242 476.50 258.50Q436 275 408 280L408 280Q427 300 439 319.50Q451 339 464 367L464 367Q463 367 462.50 367.50Q462 368 461 368L461 368Q481 389 493 408.50Q505 428 518 458L518 458Q533 437 565 408Q597 379 636.50 349Q676 319 710 293L710 293L699 393Q655 416 608.50 433.50Q562 451 519 458L519 458Q539 479 551 498.50Q563 518 576 548L576 548Q593 523 626 493Q659 463 693 434L693 434Q686 486 678 532.50Q670 579 661 619L661 619Q601 583 535 542Q469 501 406.50 460.50Q344 420 294 386L294 386Q314 382 335 382L335 382Q359 382 392 388L392 388Q383 366 376 314.50Q369 263 364 203L364 203Q378 220 388.50 237Q399 254 409 279L409 279Q420 264 448 240Q476 216 513.50 187Q551 158 591 128.50Q631 99 667 73.50Q703 48 726 31ZM1581 450L1581 450L1572 510Q1562 510 1553 510Q1544 510 1533 509L1533 509Q1544 495 1556 480Q1568 465 1581 450ZM1456 332L1456 332L1482 351Q1461 368 1436.50 388Q1412 408 1401 412L1401 412Q1409 417 1414.50 423.50Q1420 430 1426 438L1426 438L1426 437Q1431 427 1451 402Q1471 377 1489 357L1489 357L1509 372Q1488 390 1463 411Q1438 432 1426 437L1426 437Q1433 442 1438.50 448.50Q1444 455 1450 463L1450 463L1450 462Q1458 467 1463.50 473Q1469 479 1475 487L1475 487Q1478 480 1489.50 465Q1501 450 1516 433Q1531 416 1543 401L1543 401L1577 431Q1554 452 1530 472Q1506 492 1486 507L1486 507L1481 507Q1454 476 1425 444Q1396 412 1376 386L1376 386Q1387 393 1398 410L1398 410Q1403 399 1421.50 374.50Q1440 350 1456 332ZM1517 379L1517 379L1537 395Q1516 413 1490 434Q1464 455 1451 461L1451 461Q1457 450 1478 424.50Q1499 399 1517 379ZM1579 199L1579 199Q1595 222 1601 236L1601 236Q1602 234 1603 232.50Q1604 231 1605 229L1605 229Q1601 282 1596 331Q1591 380 1585 424L1585 424Q1578 415 1570 406Q1562 397 1555 388L1555 388L1563 379L1560 376L1550 383L1532 361Q1534 360 1535.50 358Q1537 356 1538 355L1538 355L1535 352L1528 356L1510 334Q1511 333 1512 332Q1513 331 1514 330L1514 330L1510 327Q1509 327 1507 329L1507 329Q1498 319 1492 308L1492 308Q1508 284 1531 257Q1554 230 1579 199ZM1150 329L1150 329L1261 350Q1258 370 1255.50 387.50Q1253 405 1250 420L1250 420Q1166 405 1116.50 393.50Q1067 382 1031 371L1031 371Q1051 363 1082 352Q1113 341 1150 329ZM317 215L317 215Q312 267 305 312Q298 357 288 382L288 382Q252 358 225 338.50Q198 319 184 308L184 308Q201 294 236 270Q271 246 317 215ZM720 159L720 159Q719 185 717 210.50Q715 236 713 261L713 261Q676 283 631.50 305Q587 327 544 344Q501 361 467 367L467 367Q481 349 511.50 322Q542 295 579.50 265Q617 235 654.50 207Q692 179 720 159ZM1267 295L1267 295L1262 343L1183 320Q1203 313 1224.50 307Q1246 301 1267 295ZM1273 214L1273 214L1267 288Q1236 293 1206.50 299Q1177 305 1150 310L1150 310Q1113 298 1081.50 287Q1050 276 1030 267L1030 267Q1055 260 1085.50 252Q1116 244 1161 235Q1206 226 1273 214ZM1422 239L1438 220Q1463 250 1473 270L1473 270L1468 274Q1460 270 1447.50 260Q1435 250 1422 239L1422 239ZM1529 137L1529 137Q1555 166 1572 189L1572 189Q1548 210 1525 229.50Q1502 249 1481 265L1481 265Q1490 255 1499 248L1499 248L1500 249Q1504 242 1510 236Q1516 230 1524 224L1524 224L1525 225Q1531 211 1549 198L1549 198Q1541 195 1525.50 183.50Q1510 172 1494 158L1494 158L1513 138Q1517 138 1521 137.50Q1525 137 1529 137ZM1278 151L1278 151L1274 201Q1201 207 1150.50 209.50Q1100 212 1064 212L1064 212Q1030 212 1004 210Q978 208 953 204L953 204Q956 215 958.50 227Q961 239 962 250L962 250Q954 249 946 248.50Q938 248 930 246L930 246Q929 232 927.50 216Q926 200 925 183L925 183Q993 176 1085.50 167Q1178 158 1278 151ZM1447 209L1461 194Q1473 208 1483.50 222.50Q1494 237 1498 246L1498 246Q1490 243 1475.50 232Q1461 221 1447 209L1447 209ZM860 191L915 184L909 243Q897 241 885.50 238.50Q874 236 863 233L863 233L860 191ZM1471 184L1486 167Q1497 182 1508 197Q1519 212 1523 222L1523 222Q1514 218 1499.50 207Q1485 196 1471 184L1471 184ZM727-38L727-38Q727-27 727-15.50Q727-4 726 6L726 6Q704 20 668.50 40.50Q633 61 590.50 84Q548 107 505 128Q462 149 424.50 165Q387 181 362 187L362 187L362 185Q419 149 482.50 109Q546 69 609 31.50Q672-6 727-38ZM1611 135L1611 135Q1611 144 1610.50 153Q1610 162 1609 171L1609 171Q1599 164 1587 155Q1575 146 1563 136L1563 136Q1575 136 1587.50 135.50Q1600 135 1611 135ZM1494 138L1494 138L1482 148L1472 139Q1477 139 1482.50 139Q1488 139 1494 138Z"/></svg>