<svg id="U12348" viewBox="0 0 1450 1000"><path transform="translate(0, 900) scale(1,-1)" d="M195-217L195-217Q207-166 207-112L207-112Q207-58 195-1L195-1Q233-11 300-21.50Q367-32 454-41.50Q541-51 636-59L636-59Q635 22 629 126.50Q623 231 613 339L613 339Q553 335 485 323.50Q417 312 353.50 296.50Q290 281 242 265L242 265Q225 210 212 144Q199 78 192-7.50Q185-93 185-206L185-206L161-206Q161-88 153.50-0.50Q146 87 132.50 154Q119 221 100 277L100 277Q119 273 137.50 271.50Q156 270 175 270L175 270Q181 270 187 270Q193 270 200 271L200 271Q204 291 205.50 311Q207 331 207 352L207 352Q207 407 195 464L195 464Q226 451 274.50 437Q323 423 380 409.50Q437 396 496.50 386.50Q556 377 610 373L610 373Q602 461 592 544Q582 627 570 697Q558 767 544 816L544 816Q595 804 649 804L649 804Q702 804 759 816L759 816Q748 777 737.50 714.50Q727 652 717.50 575Q708 498 699.50 413Q691 328 684.50 243Q678 158 673.50 79.50Q669 1 668-62L668-62Q772-70 876-77Q980-84 1071-88Q1162-92 1227-93L1227-93Q1226-22 1221.50 71Q1217 164 1209.50 266Q1202 368 1191 468.50Q1180 569 1166.50 655.50Q1153 742 1137 802L1137 802Q1012 796 916.50 781Q821 766 754 744L754 744Q760 780 760 817L760 817Q760 854 754 890L754 890Q838 862 966.50 845.50Q1095 829 1272 829L1272 829L1272 805Q1291 806 1310.50 809Q1330 812 1350 816L1350 816Q1339 774 1327.50 706Q1316 638 1305.50 554Q1295 470 1286 378Q1277 286 1270.50 196Q1264 106 1260.50 26.50Q1257-53 1257-112L1257-112L1257-124Q1198-124 1111-127Q1024-130 921.50-136Q819-142 712-150Q605-158 505.50-168.50Q406-179 325.50-191Q245-203 195-217ZM1214 804L1214 804Q1228 803 1242.50 803.50Q1257 804 1271 805L1271 805Q1257 805 1242.50 805Q1228 805 1214 804ZM940 154L924 154Q924 177 923 202Q922 227 920 254L920 254Q877 247 839.50 238Q802 229 776 219L776 219Q782 248 782 278L782 278Q782 307 776 343L776 343Q797 334 834 325.50Q871 317 915 309L915 309Q913 332 910.50 355.50Q908 379 905 401L905 401Q866 394 832.50 386Q799 378 776 369L776 369Q782 398 782 428L782 428Q782 457 776 493L776 493Q795 485 826 477.50Q857 470 895 463L895 463Q889 492 883 516.50Q877 541 870 558L870 558Q899 552 929 552L929 552Q958 552 994 558L994 558Q987 542 980 514.50Q973 487 967 452L967 452Q1014 446 1061 442.50Q1108 439 1150 439L1150 439L1150 423Q1106 423 1057 419.50Q1008 416 961 410L961 410Q957 385 953.50 358Q950 331 948 304L948 304Q998 297 1051 293Q1104 289 1150 289L1150 289L1150 273Q1102 273 1048.50 269Q995 265 944 257L944 257Q942 229 941 203Q940 177 940 154L940 154Z"/></svg>