<svg id="U12110" viewBox="0 0 2149 1000"><path transform="translate(0, 900) scale(1,-1)" d="M732-247L732-247Q717-196 692-151Q667-106 624-60L624-60Q637-56 652-52Q667-48 683-43L683-43Q681-19 679 8.50Q677 36 675 65L675 65Q498 46 348 20Q198-6 100-46L100-46Q105-20 107.50 9Q110 38 110 69L110 69Q110 98 107.50 128.50Q105 159 100 189L100 189Q141 172 203.50 156.50Q266 141 342.50 128Q419 115 504 106Q589 97 674 92L674 92Q669 164 663.50 241.50Q658 319 651.50 392.50Q645 466 637 527L637 527Q472 509 332.50 484Q193 459 100 421L100 421Q105 447 107.50 476Q110 505 110 536L110 536Q110 565 107.50 595.50Q105 626 100 656L100 656Q151 635 235 616Q319 597 422 583Q525 569 632 562L632 562Q627 599 621 627.50Q615 656 608 672L608 672Q629 668 650 666Q671 664 693 664L693 664Q718 664 745 667L745 667Q709 679 678.50 688.50Q648 698 624 704L624 704Q667 750 692 795Q717 840 732 891L732 891Q791 831 890 759Q989 687 1114 607.50Q1239 528 1374 445L1374 445Q1380 487 1380 535L1380 535Q1380 565 1377.50 595.50Q1375 626 1370 656L1370 656Q1422 635 1506.50 616Q1591 597 1694.50 583Q1798 569 1906 562L1906 562Q1900 609 1893 645.50Q1886 682 1878 702L1878 702Q1899 698 1919.50 696Q1940 694 1962 694L1962 694Q1982 694 2004 696Q2026 698 2049 702L2049 702Q2040 680 2032 626.50Q2024 573 2017 500Q2010 427 2004.50 345Q1999 263 1994.50 182Q1990 101 1986.50 32Q1983-37 1981-83L1981-83L1959-83Q1956-54 1953-16Q1950 22 1947 65L1947 65Q1769 46 1618.50 20Q1468-6 1370-46L1370-46Q1375-20 1377.50 9Q1380 38 1380 69L1380 69Q1380 98 1377.50 128.50Q1375 159 1370 189L1370 189Q1411 172 1473.50 156.50Q1536 141 1613 128Q1690 115 1775 106Q1860 97 1946 92L1946 92Q1941 162 1935.50 238.50Q1930 315 1924 389.50Q1918 464 1910 528L1910 528Q1756 511 1623.50 488Q1491 465 1397 431L1397 431L1554 336L1536 322L1554 308Q1429 232 1305.50 156.50Q1182 81 1071.50 9Q961-63 873.50-127.50Q786-192 732-247ZM714-33L714-33Q788-10 883 26.50Q978 63 1086.50 109Q1195 155 1309 209Q1423 263 1533 322L1533 322Q1433 375 1330 424.50Q1227 474 1128 517Q1029 560 938.50 595.50Q848 631 774 657L774 657Q765 626 757.50 566.50Q750 507 743.50 430.50Q737 354 731.50 271Q726 188 721.50 109Q717 30 714-33Z"/></svg>