<svg id="U122F1" viewBox="0 0 1837 1000"><path transform="translate(0, 900) scale(1,-1)" d="M1644-158L1614-158Q1614-40 1601 65Q1588 170 1566.50 255Q1545 340 1521 398L1521 398Q1541 393 1561.50 390.50Q1582 388 1603 386L1603 386Q1592 509 1571 627.50Q1550 746 1521 848L1521 848Q1572 836 1626 836L1626 836Q1680 836 1737 848L1737 848Q1721 790 1705.50 715.50Q1690 641 1677 557.50Q1664 474 1655 387L1655 387Q1675 388 1695.50 391Q1716 394 1737 398L1737 398Q1717 340 1695.50 255Q1674 170 1659 65Q1644-40 1644-158L1644-158ZM1089-203L1074-203Q1074-165 1071-128L1071-128Q1031-149 1001.50-167Q972-185 959-197L959-197Q951-156 938.50-124Q926-92 909-63L909-63Q916-63 924.50-62.50Q933-62 943-61L943-61Q740-61 580.50-75Q421-89 302-111Q183-133 100-156L100-156Q112-105 112-51L112-51Q112 3 100 60L100 60Q184 37 303 15Q422-7 582.50-21Q743-35 948-35L948-35L948-60Q971-57 999.50-51Q1028-45 1061-38L1061-38Q1054 12 1044.50 51.50Q1035 91 1026 110L1026 110Q1040 108 1055 107Q1070 106 1084 106L1084 106Q1098 106 1111.50 107Q1125 108 1137 110L1137 110Q1127 89 1118 52.50Q1109 16 1102-28L1102-28L1186-6Q1179 33 1171.50 63.50Q1164 94 1156 110L1156 110Q1170 108 1185 107Q1200 106 1214 106L1214 106Q1228 106 1241.50 107Q1255 108 1267 110L1267 110Q1251 77 1238 8L1238 8Q1303 27 1367 46.50Q1431 66 1484 82L1484 82Q1429 99 1363.50 118.50Q1298 138 1229.50 156.50Q1161 175 1098.50 189.50Q1036 204 986.50 213Q937 222 909 221L909 221Q934 265 950 319L950 319Q934 373 909 417L909 417Q932 416 972 423Q1012 430 1061 442L1061 442Q1054 492 1044.50 531.50Q1035 571 1026 590L1026 590Q1040 588 1055 587Q1070 586 1084 586L1084 586Q1098 586 1111.50 587Q1125 588 1137 590L1137 590Q1127 569 1118 532.50Q1109 496 1102 451L1102 451L1186 474Q1179 513 1171.50 543.50Q1164 574 1156 590L1156 590Q1170 588 1185 587Q1200 586 1214 586L1214 586Q1228 586 1241.50 587Q1255 588 1267 590L1267 590Q1251 557 1238 488L1238 488Q1303 507 1367 526.50Q1431 546 1484 562L1484 562Q1429 579 1363.50 598.50Q1298 618 1229.50 636.50Q1161 655 1098.50 669.50Q1036 684 986.50 693Q937 702 909 701L909 701Q926 730 938.50 762.50Q951 795 959 835L959 835Q976 819 1020 794.50Q1064 770 1125.50 740.50Q1187 711 1258 679Q1329 647 1401.50 617Q1474 587 1538 562L1538 562Q1474 538 1391.50 503Q1309 468 1229 430L1229 430Q1224 393 1221.50 354Q1219 315 1219 277L1219 277L1204 277Q1204 310 1201.50 345Q1199 380 1195 414L1195 414Q1167 401 1141 388Q1115 375 1092 362L1092 362Q1089 320 1089 278L1089 278Q1150 248 1225.50 213.50Q1301 179 1382 145Q1463 111 1538 82L1538 82Q1474 58 1391.50 23Q1309-12 1229-50L1229-50Q1224-87 1221.50-126Q1219-165 1219-203L1219-203L1204-203Q1204-169 1201.50-134.50Q1199-100 1195-66L1195-66Q1167-79 1141-92Q1115-105 1092-117L1092-117Q1089-160 1089-203L1089-203ZM100 574L100 574Q112 625 112 679L112 679Q112 733 100 790L100 790Q184 767 303 745Q422 723 582.50 709Q743 695 948 695L948 695L948 669Q743 669 583 655Q423 641 303.50 619Q184 597 100 574ZM100 334L100 334Q112 385 112 439L112 439Q112 493 100 550L100 550Q184 527 303 505Q422 483 582.50 469Q743 455 948 455L948 455L948 429Q743 429 583 415Q423 401 303.50 379Q184 357 100 334ZM1074 286L1074 286Q1074 319 1071 352L1071 352L1013 319Q1026 312 1041.50 303.50Q1057 295 1074 286ZM100 84L100 84Q112 135 112 189L112 189Q112 243 100 300L100 300Q184 277 303 255Q422 233 582.50 219Q743 205 948 205L948 205L948 179Q743 179 583 165Q423 151 303.50 129Q184 107 100 84Z"/></svg>