<svg id="U12021" viewBox="0 0 1558 1000"><path transform="translate(0, 900) scale(1,-1)" d="M479-120L479-120Q468-78 451.50-45.50Q435-13 415 16L415 16Q430 17 460.50 25Q491 33 533 46L533 46Q532 69 531 96.50Q530 124 528 155L528 155L381 141Q377 107 374 77.50Q371 48 368 28L368 28L358 28L346 138L260 131L248 28L238 28L227 128Q180 124 145 119Q110 114 100 110L100 110Q102 124 104 139Q106 154 106 168L106 168Q106 192 100 217L100 217Q109 213 141.50 208.50Q174 204 220 199L220 199Q215 246 209 290Q203 334 198 366.50Q193 399 189 409L189 409Q215 403 239 403L239 403Q250 403 261.50 404.50Q273 406 284 407L284 407Q286 421 288 435.50Q290 450 290 464L290 464Q290 488 284 513L284 513Q297 508 332.50 500.50Q368 493 414 486Q460 479 504 473L504 473Q497 558 486.50 625.50Q476 693 465 721L465 721Q488 717 510 715Q532 713 552 713L552 713Q573 713 593.50 715Q614 717 635 721L635 721Q622 690 612 631Q602 572 594 497Q586 422 579 342Q572 262 566.50 187Q561 112 556 54L556 54Q590 66 629.50 80Q669 94 712 110L712 110Q709 167 704.50 237.50Q700 308 694 382Q688 456 680.50 524Q673 592 664 644Q655 696 645 721L645 721Q668 717 690 715Q712 713 732 713L732 713Q753 713 773.50 715Q794 717 815 721L815 721Q807 702 800.50 673Q794 644 788 608L788 608Q825 586 878 559L878 559L878 561Q904 555 927 555L927 555Q941 555 956 557Q971 559 985 561L985 561Q982 555 979.50 542.50Q977 530 974 513L974 513Q981 510 987.50 507.50Q994 505 1000 502L1000 502Q997 523 993.50 538.50Q990 554 988 561L988 561Q1014 555 1037 555L1037 555Q1051 555 1066 557Q1081 559 1095 561L1095 561Q1091 551 1087 526Q1083 501 1078 467L1078 467Q1114 451 1151 435.50Q1188 420 1224 405L1224 405Q1217 461 1210.50 504.50Q1204 548 1199 561L1199 561Q1226 555 1251 555L1251 555Q1259 555 1267.50 555.50Q1276 556 1284 557L1284 557Q1275 604 1265 647Q1255 690 1242 736L1242 736Q1293 724 1347 724L1347 724Q1401 724 1458 736L1458 736Q1444 686 1433 630.50Q1422 575 1413 507Q1404 439 1397 351.50Q1390 264 1384.50 150Q1379 36 1375-112L1375-112L1349-112Q1339 30 1331.50 135.50Q1324 241 1316 322L1316 322Q1306 318 1295 312.50Q1284 307 1272 301L1272 301Q1268 265 1264.50 233.50Q1261 202 1258 180L1258 180L1248 180L1237 285Q1173 254 1096 216Q1019 178 938 137Q857 96 780.50 55.50Q704 15 640.50-20Q577-55 534-81Q491-107 479-120ZM1280 382L1311 370Q1307 407 1303 439Q1299 471 1294 499L1294 499Q1290 475 1286.50 445Q1283 415 1280 382L1280 382ZM858 313L916 307Q912 344 907 383Q902 422 897 457L897 457Q862 465 829.50 472Q797 479 771 483L771 483Q769 467 767.50 450.50Q766 434 764 417L764 417Q772 416 780 415.50Q788 415 797 415L797 415Q802 415 807.50 415.50Q813 416 819 417L819 417Q816 409 812 380.50Q808 352 804 319L804 319L836 316Q833 346 829.50 375.50Q826 405 822.50 427.50Q819 450 816 457L816 457Q825 456 834 455.50Q843 455 852 455L852 455Q857 455 863 455.50Q869 456 875 457L875 457Q873 451 870 428Q867 405 864 374.50Q861 344 858 313L858 313ZM527 170L527 170Q523 234 518 305Q513 376 507 444L507 444Q408 431 358.50 422.50Q309 414 296 409L296 409Q292 398 286.50 365Q281 332 276 287Q271 242 266 194L266 194L341 187Q336 236 330.50 282.50Q325 329 319.50 363.50Q314 398 309 409L309 409Q335 403 358 403L358 403Q372 403 387 405Q402 407 416 409L416 409Q411 398 405.50 363Q400 328 395 280.50Q390 233 385 183L385 183Q427 179 463.50 176Q500 173 527 170ZM947 291L947 291Q965 295 984.50 300Q1004 305 1025 310L1025 310L1011 428L964 440Q960 405 956 366Q952 327 947 291ZM1071 411L1061 318Q1108 329 1152.50 340.50Q1197 352 1229 359L1229 359Q1228 360 1228 363L1228 363L1228 366Q1191 377 1151.50 388.50Q1112 400 1071 411L1071 411ZM738 120L738 120Q815 149 894 180L894 180Q890 208 881 231Q872 254 860 277L860 277L864 277Q880 277 918 285L918 285Q918 291 917 293L917 293L856 286L852 240L843 240Q842 248 841 259.50Q840 271 839 284L839 284L800 278L796 236L787 236L783 275Q763 272 757 269L757 269Q758 278 758.50 287Q759 296 759 305L759 305Q759 310 759 316Q759 322 757 328L757 328Q759 327 764.50 326Q770 325 777 323L777 323Q773 349 769.50 372Q766 395 763 408L763 408Q756 333 750 258Q744 183 738 120ZM1274 332L1274 332Q1282 335 1289 338Q1296 341 1302 344L1302 344L1276 352Q1276 347 1275.50 342Q1275 337 1274 332ZM1052 242L1052 242L1234 316L1231 343Q1197 327 1149.50 305Q1102 283 1054 260L1054 260Q1054 256 1053.50 251.50Q1053 247 1052 242ZM908 185L908 185L1033 234L1031 249Q991 230 958 213Q925 196 908 185Z"/></svg>