<svg id="U1223E" viewBox="0 0 1262 1000"><path transform="translate(0, 900) scale(1,-1)" d="M718-88L718-88L705-76Q674-47 628.50-4Q583 39 531.50 86Q480 133 429.50 176.50Q379 220 338 252Q297 284 274 296L274 296Q302 311 322 329L322 329Q273 315 214.50 279Q156 243 100 204L100 204Q112 267 112 342L112 342Q112 414 100 486L100 486Q166 440 234 409Q302 378 354 374L354 374L347 381Q373 413 407.50 455Q442 497 478.50 542Q515 587 548.50 630Q582 673 605.50 708Q629 743 636 762L636 762Q656 737 675.50 719Q695 701 718 687L718 687Q762 715 799 762L799 762Q806 742 829.50 707.50Q853 673 886.50 630Q920 587 957 542Q994 497 1028.50 455Q1063 413 1089 381L1089 381L1076 369L1069 375Q1111 324 1162 296L1162 296Q1139 284 1096.50 251Q1054 218 1002 172.50Q950 127 896.50 78Q843 29 796-15Q749-59 718-88ZM716-61L716-61Q750-20 801 40Q852 100 904 162L904 162Q820 159 767.50 151Q715 143 684.50 133.50Q654 124 637 117L637 117Q640 132 642 147Q644 162 644 178L644 178Q644 202 638 227L638 227L637 227L637 230Q643 259 643 288L643 288Q643 300 642 312Q641 324 638 337L638 337L637 337L637 340Q643 369 643 398L643 398Q643 410 642 422Q641 434 638 447L638 447L637 447L637 450Q643 479 643 508L643 508Q643 534 637 561L637 561Q654 554 685.50 543.50Q717 533 772.50 524.50Q828 516 918 513L918 513Q862 563 808 606Q754 649 718 670L718 670Q687 652 643 617.50Q599 583 550 540.50Q501 498 454 456Q407 414 370 379L370 379Q377 362 399 330.50Q421 299 452.50 258.50Q484 218 521 173.50Q558 129 594.50 85Q631 41 663 3.50Q695-34 716-61ZM1041 402L1041 402Q1018 423 992.50 446.50Q967 470 940 494L940 494Q846 492 787.50 484Q729 476 695 466.50Q661 457 642 449L642 449Q664 441 719 430.50Q774 420 856 411.50Q938 403 1041 402ZM1007 292L1007 292Q1053 351 1065 379L1065 379L1060 384Q952 384 866 376Q780 368 722.50 357.50Q665 347 642 339L642 339Q673 327 764 310.50Q855 294 1007 292ZM921 183L921 183L994 274Q848 272 760.50 256Q673 240 642 229L642 229Q660 222 692 212Q724 202 779.50 194Q835 186 921 183Z"/></svg>