<svg id="U13249" viewBox="0 0 1228 1000"><path transform="translate(0, 900) scale(1,-1)" d="M1179-154L58-154L58-134L170-134L170-51L58-51L58-32L170-32L170 51L58 51L58 71L594 71L594 205Q560 227 530 254Q500 281 480 302.50Q460 324 455 329L455 329L283 329Q279 323 263 308Q247 293 221 280.50Q195 268 161 267L161 267Q126 267 104 279Q82 291 70 309.50Q58 328 53.50 346.50Q49 365 49 376L49 376Q49 426 67.50 462.50Q86 499 127 499L127 499Q148 499 170.50 487Q193 475 214.50 457Q236 439 252.50 422Q269 405 277 394L277 394L519 394Q525 403 537 409.50Q549 416 569 417L569 417L624 421Q631 465 632.50 476Q634 487 634 491L634 491Q634 517 626 547.50Q618 578 607 611L607 611L523 559Q486 535 450.50 528.50Q415 522 371 534L371 534Q352 539 336.50 551Q321 563 312 574.50Q303 586 302 587L302 587L519 749Q515 757 512.50 765Q510 773 510 783L510 783L510 833Q510 842 509 853Q508 864 492 864L492 864Q482 864 476.50 859Q471 854 470 852L470 852L452 852L452 869Q452 892 462 904.50Q472 917 482 925L482 925L500 940Q503 948 520.50 959.50Q538 971 580 971L580 971Q630 971 654.50 946Q679 921 696 883L696 883L713 874L942 1054Q944 1053 952 1041Q960 1029 967.50 1011Q975 993 975 973L975 973Q975 928 959.50 895.50Q944 863 911 832L911 832L826 754Q837 739 848 723.50Q859 708 869 694L869 694L1025 445L944 394L1174 394L1174 329L768 329Q776 316 785 295.50Q794 275 794 255L794 255Q794 220 771.50 194Q749 168 692 168L692 168Q683 168 673 170Q663 172 653 175L653 175L653 71L1179 71L1179 51L1069 51L1069-32L1179-32L1179-51L1069-51L1069-134L1179-134L1179-154ZM814 771L814 771L897 847Q926 873 941 903.50Q956 934 956 973L956 973Q956 990 949.50 1004.50Q943 1019 938 1026L938 1026L896 993Q899 987 903 975Q907 963 907 949L907 949Q907 924 893 901.50Q879 879 850 853L850 853L791 800Q797 793 802.50 785.50Q808 778 814 771ZM779 815L779 815L837 867Q887 911 887 949L887 949Q887 959 884.50 967Q882 975 880 980L880 980L731 864Q733 863 734.50 862Q736 861 737 861L737 861Q747 851 758 839.50Q769 828 779 815ZM666 404L666 394L785 394L785 404Q774 406 760 406.50Q746 407 737 407L737 407L737 490Q748 488 758.50 482Q769 476 775 471L775 471L775 577Q803 577 822 564Q841 551 853 535Q865 519 871 508L871 508L929 404L1003 451L853 687Q822 728 788.50 774.50Q755 821 721 852L721 852Q719 853 705 860.50Q691 868 679 875L679 875Q663 910 643.50 931.50Q624 953 580 953L580 953Q539 953 527.50 944.50Q516 936 516 933L516 933L496 914Q489 907 480.50 899Q472 891 470 876L470 876Q472 881 482.50 889.50Q493 898 506 898L506 898Q518 898 528 888L528 888Q530 888 533 888.50Q536 889 536 892L536 892Q536 895 535 896L535 896Q529 896 524 900.50Q519 905 519 912L519 912Q519 918 524 923Q529 928 537 928L537 928L565 928Q584 928 596.50 917Q609 906 609 888L609 888Q609 870 592.50 858.50Q576 847 566 842L566 842Q564 841 559.50 841Q555 841 554 845L554 845L549 845L549 838L539 838Q539 844 536 856Q533 868 524.50 878Q516 888 501 888L501 888Q497 888 493 885Q489 882 486 880L486 880Q488 880 489.50 880.50Q491 881 492 881L492 881Q514 881 521.50 865Q529 849 529 833L529 833L529 783Q529 758 550 736.50Q571 715 587 692L587 692Q607 668 629 642.50Q651 617 668 599L668 599Q702 563 713 530.50Q724 498 722 475L722 475L717 407Q707 407 692 406.50Q677 406 666 404L666 404ZM546 859L546 859Q546 861 545.50 862.50Q545 864 545 865L545 865Q545 873 550 878.50Q555 884 563 884L563 884Q571 884 575.50 878Q580 872 580 867L580 867Q580 863 579 862L579 862Q585 866 590 872.50Q595 879 595 888L595 888Q595 901 585.50 910Q576 919 562 919L562 919L551 919Q553 915 553 912L553 912Q553 903 545 898L545 898Q546 897 547.50 894Q549 891 547 887L547 887Q546 882 536 880L536 880Q543 870 546 859ZM536 905L536 905Q542 905 542 912L542 912Q542 919 536 919L536 919Q528 919 528 912L528 912Q528 905 536 905ZM563 854L563 854Q569 854 569 864L569 864Q569 867 567.50 870.50Q566 874 563 874L563 874Q555 874 555 864L555 864Q555 854 563 854ZM418 612L418 612Q437 607 459.50 614Q482 621 510 638L510 638L572 679L563 691Q556 702 546.50 712Q537 722 529 732L529 732L389 627Q394 624 401 619.50Q408 615 418 612ZM376 553L376 553Q414 543 447.50 549Q481 555 514 575L514 575L600 630L593 651Q591 654 588.50 657.50Q586 661 583 664L583 664L521 622Q489 601 463 594Q437 587 413 594L413 594Q399 598 388.50 604.50Q378 611 373 616L373 616L330 584Q335 577 347.50 567.50Q360 558 376 553ZM644 421L644 421L662 422L675 496Q682 495 690 491.50Q698 488 705 484L705 484Q706 502 696 528.50Q686 555 655 589L655 589Q648 597 640 605.50Q632 614 624 624L624 624Q634 593 643.50 559Q653 525 653 491L653 491Q653 488 652.50 483Q652 478 650.50 464.50Q649 451 644 421ZM833 394L833 394L914 394L854 503Q847 517 829.50 536.50Q812 556 792 556L792 556L792 438Q785 446 773 455.50Q761 465 752 466L752 466L752 425Q763 424 778.50 422.50Q794 421 803 418L803 418Q814 415 821.50 407.50Q829 400 833 394ZM221 394L221 394L252 394Q239 410 217 429.50Q195 449 171.50 464Q148 479 127 479L127 479Q107 479 93 465L93 465Q102 469 118 469L118 469Q133 469 154 455Q175 441 194 423Q213 405 221 394ZM678 422L678 422L703 425L706 463Q702 465 698 468Q694 471 687 472L687 472Q686 465 683 449.50Q680 434 678 422ZM99 394L99 394L195 394Q187 404 172.50 417.50Q158 431 142 441.50Q126 452 112 452L112 452Q103 452 95.50 448Q88 444 88 432L88 432Q88 420 92 410Q96 400 99 394ZM161 287L161 287Q195 287 219 301.50Q243 316 256 329L256 329L230 329Q223 320 208 310.50Q193 301 167 301L167 301Q143 301 123 318Q103 335 90 360.50Q77 386 71 411L71 411Q70 401 69.50 391.50Q69 382 69 374L69 374Q71 336 97 311Q123 286 161 287ZM595 404L595 394L599 394Q602 397 605.50 400.50Q609 404 613 406L613 406L595 404ZM566 394L566 394L585 394L585 403Q580 403 575 400Q570 397 566 394ZM638 394L638 394L654 394L654 403Q648 403 644.50 400Q641 397 638 394ZM540 394L540 394L551 394Q553 396 555.50 398Q558 400 560 402L560 402Q546 402 540 394ZM796 402L796 394L813 394Q809 397 805 399Q801 401 796 402L796 402ZM611 394L611 394L623 394Q625 396 627 398Q629 400 632 402L632 402Q624 402 619 399.50Q614 397 611 394ZM122 348L122 348L1155 348L1155 374L104 374Q107 369 112.50 361.50Q118 354 122 348ZM774 263L774 263Q770 283 759.50 302.50Q749 322 745 329L745 329L710 329Q728 316 746 297.50Q764 279 774 263ZM706 222L706 222Q729 220 746 224.50Q763 229 763 239L763 239Q763 250 750 266.50Q737 283 717 300Q697 317 674 329L674 329L653 329L653 245Q682 225 706 222ZM633 259L633 259L633 329L614 329L614 273Q619 269 623.50 265.50Q628 262 633 259ZM594 290L594 290L594 329L553 329Q561 321 571 311Q581 301 594 290ZM692 188L692 188Q740 188 760 211L760 211Q749 206 734 204Q719 202 706 203L706 203Q683 205 655 220Q627 235 600 256Q573 277 552.50 297Q532 317 524 329L524 329L488 329Q503 314 526 290.50Q549 267 576.50 243.50Q604 220 634 204Q664 188 692 188ZM167 321L167 321Q187 321 200 329L200 329L140 329Q151 321 167 321ZM614 193L614 71L633 71L633 183Q629 185 624 187.50Q619 190 614 193L614 193ZM849 51L849-32L1049-32L1049 51L849 51ZM629 51L629-32L830-32L830 51L629 51ZM410 51L410-32L610-32L610 51L410 51ZM190 51L190-32L390-32L390 51L190 51ZM849-51L849-134L1049-134L1049-51L849-51ZM629-51L629-134L830-134L830-51L629-51ZM410-51L410-134L610-134L610-51L410-51ZM190-51L190-134L390-134L390-51L190-51Z"/></svg>