<svg id="U13214" viewBox="0 0 1084 1000"><path transform="translate(0, 900) scale(1,-1)" d="M470-164L470-164Q360-164 278-144.50Q196-125 143-106L143-106Q121-98 99.50-86Q78-74 63.50-60.50Q49-47 49-35L49-35Q49-16 66-2Q83 12 126 33L126 33Q147 43 182.50 62.50Q218 82 257.50 113Q297 144 332 189.50Q367 235 389.50 297Q412 359 412 440L412 440Q412 504 406.50 548Q401 592 393 629L393 629L1036 629L1036 528Q1036 433 1016 335Q996 237 954 147.50Q912 58 845.50-12Q779-82 685.50-123Q592-164 470-164ZM470-144L470-144Q587-144 677-104.50Q767-65 831 3Q895 71 936 158Q977 245 996.50 340Q1016 435 1016 528L1016 528L1016 610L417 610Q423 579 427.50 540Q432 501 432 440L432 440Q432 353 408 287.50Q384 222 347 174.50Q310 127 268.50 95Q227 63 190.50 44Q154 25 134 15L134 15Q97-2 84-13Q71-24 71-35L71-35Q71-46 96.50-61.50Q122-77 150-87L150-87Q202-106 284.50-125Q367-144 470-144Z"/></svg>