<svg id="U13302" viewBox="0 0 431 1000"><path transform="translate(0, 900) scale(1,-1)" d="M216-34L216-34Q209-34 195.50-29.50Q182-25 182 0L182 0L182 426Q168 433 158 446.50Q148 460 146 480L146 480L144 497Q143 511 135 522Q127 533 113 533L113 533Q105 533 95.50 527.50Q86 522 75 522L75 522Q69 522 59 526Q49 530 49 543L49 543Q49 558 69 575L69 575Q78 582 91.50 589.50Q105 597 122 604L122 604Q124 618 128.50 649.50Q133 681 138 722Q143 763 146.50 806Q150 849 150 885L150 885Q150 922 145.50 947.50Q141 973 135 1001L135 1001L301 1001Q295 973 290.50 947.50Q286 922 286 885L286 885Q286 848 289.50 804Q293 760 298.50 718.50Q304 677 308.50 645.50Q313 614 315 602L315 602Q330 595 341.50 588Q353 581 361 575L361 575Q382 557 382 543L382 543Q382 530 372 526Q362 522 355 522L355 522Q345 522 335.50 527.50Q326 533 317 533L317 533Q304 533 296 522Q288 511 287 497L287 497L285 480Q284 460 274 447Q264 434 250 426L250 426L250 0Q250-25 236.50-29.50Q223-34 216-34ZM293 608L293 608Q290 626 286 658Q282 690 277.50 729.50Q273 769 270 809.50Q267 850 267 885L267 885Q267 924 271 947.50Q275 971 278 981L278 981L159 981Q161 971 165.50 947.50Q170 924 170 885L170 885Q170 850 167 810Q164 770 159.50 731Q155 692 150.50 660Q146 628 143 610L143 610Q175 619 215 619L215 619Q238 619 257.50 616Q277 613 293 608ZM215 438L215 438Q232 438 248 448Q264 458 266 480L266 480L267 500Q269 523 281.50 538Q294 553 313 553L313 553Q327 553 336 547.50Q345 542 355 542L355 542Q362 542 362 545L362 545Q362 548 349 560L349 560Q333 574 299 587Q265 600 215 600L215 600Q165 600 132 587Q99 574 82 560L82 560Q68 549 68 545L68 545Q68 544 71 543Q74 542 75 542L75 542Q85 542 95 547.50Q105 553 118 553L118 553Q138 553 150 538Q162 523 164 500L164 500L165 480Q167 458 182.50 448Q198 438 215 438ZM216-15L216-15Q219-15 224.50-12.50Q230-10 230 0L230 0L230 419Q226 418 222.50 418Q219 418 215 418L215 418Q211 418 208 418.50Q205 419 202 419L202 419L202 0Q202-10 207.50-12.50Q213-15 216-15Z"/></svg>