<svg id="U1330F" viewBox="0 0 524 1000"><path transform="translate(0, 900) scale(1,-1)" d="M420-14L420-14Q398-14 382 2.50Q366 19 366 41L366 41Q366 68 387 84L387 84L387 709Q380 716 362 727Q344 738 314 747.50Q284 757 241 757L241 757Q195 757 161 743.50Q127 730 107 714.50Q87 699 82 694L82 694Q75 703 62 739Q49 775 49 834L49 834Q49 893 62 929Q75 965 82 974L82 974Q87 969 107 953.50Q127 938 161 924.50Q195 911 241 911L241 911Q283 911 312.50 920Q342 929 361 940.50Q380 952 387 958L387 958L387 967Q387 992 400.50 996.50Q414 1001 420 1001L420 1001Q427 1001 440.50 996.50Q454 992 454 967L454 967L454 84Q475 68 475 41L475 41Q475 19 459 2.50Q443-14 420-14ZM420 6L420 6Q435 6 445.50 16Q456 26 456 41L456 41Q456 64 435 73L435 73L435 967Q435 977 429 979.50Q423 982 420 982L420 982Q418 982 412 979.50Q406 977 406 967L406 967L406 73Q385 64 385 41L385 41Q385 26 395.50 16Q406 6 420 6ZM88 725L88 725Q98 734 119 746Q140 758 171 767.50Q202 777 241 777L241 777Q297 777 333 762Q369 747 387 733L387 733L387 934Q369 921 333 906Q297 891 241 891L241 891Q202 891 171 900.50Q140 910 119 922.50Q98 935 88 943L88 943Q83 931 75.50 904Q68 877 68 834L68 834Q68 791 75.50 764Q83 737 88 725Z"/></svg>