<svg id="U133C3" viewBox="0 0 1024 1000"><path transform="translate(0, 900) scale(1,-1)" d="M381 0L159 0L159 24Q177 41 196.50 65.50Q216 90 229 117Q242 144 242 166L242 166Q242 183 236 215.50Q230 248 220 290.50Q210 333 199 378L199 378Q190 416 181 458.50Q172 501 164.50 541.50Q157 582 152.50 614Q148 646 148 662L148 662Q148 683 151 699L151 699L130 699Q100 699 87 684.50Q74 670 71.50 654Q69 638 69 633L69 633L69 7L49 7L49 633Q49 639 50.50 653Q52 667 59 682Q66 697 83 708Q100 719 130 719L130 719L157 719Q167 747 188 765.50Q209 784 241 789L241 789L241 816Q241 834 235.50 849.50Q230 865 226 871L226 871L211 871Q199 871 183 876Q167 881 167 900L167 900Q167 920 183 925Q199 930 211 930L211 930L270 992L328 930Q340 930 356.50 925Q373 920 373 900L373 900Q373 881 356.50 876Q340 871 328 871L328 871L313 871Q309 865 304 849.50Q299 834 299 816L299 816L299 789Q342 782 364.50 752.50Q387 723 391 679L391 679Q395 723 417.50 752.50Q440 782 483 789L483 789L483 816Q483 834 478 849.50Q473 865 468 871L468 871L453 871Q442 871 425.50 876Q409 881 409 900L409 900Q409 920 425.50 925Q442 930 453 930L453 930L512 992L570 930Q582 930 598.50 925Q615 920 615 900L615 900Q615 881 598.50 876Q582 871 570 871L570 871L555 871Q551 865 546.50 849.50Q542 834 542 816L542 816L542 789Q585 782 607 752.50Q629 723 633 679L633 679Q637 723 660 752.50Q683 782 726 789L726 789L726 816Q726 834 720.50 849.50Q715 865 710 871L710 871L695 871Q684 871 667.50 876Q651 881 651 900L651 900Q651 920 667.50 925Q684 930 695 930L695 930L754 992L813 930Q824 930 840.50 925Q857 920 857 900L857 900Q857 881 840.50 876Q824 871 813 871L813 871L797 871Q793 865 788.50 849.50Q784 834 784 816L784 816L784 789Q816 784 836.50 765.50Q857 747 867 719L867 719L894 719Q924 719 941 708Q958 697 965 682Q972 667 973.50 653Q975 639 975 633L975 633L975 7L955 7L955 633Q955 639 952.50 655Q950 671 937.50 685Q925 699 894 699L894 699L872 699Q874 691 875 681.50Q876 672 876 662L876 662Q876 646 871.50 614Q867 582 859.50 541.50Q852 501 843 458.50Q834 416 825 378L825 378Q814 333 804 290.50Q794 248 788 215.50Q782 183 782 166L782 166Q782 144 795.50 117Q809 90 828 65.50Q847 41 865 24L865 24L865 0L643 0L643 24Q661 41 680.50 65.50Q700 90 713.50 117Q727 144 727 166L727 166Q727 183 720.50 215.50Q714 248 704.50 290.50Q695 333 684 378L684 378Q674 423 663 474.50Q652 526 644 572.50Q636 619 633 646L633 646Q631 619 623 572.50Q615 526 604.50 474.50Q594 423 583 378L583 378Q572 333 562 290.50Q552 248 546 215.50Q540 183 540 166L540 166Q540 144 553.50 117Q567 90 586 65.50Q605 41 623 24L623 24L623 0L401 0L401 24Q419 41 438.50 65.50Q458 90 471 117Q484 144 484 166L484 166Q484 183 478 215.50Q472 248 462 290.50Q452 333 441 378L441 378Q431 423 420 474.50Q409 526 401.50 572.50Q394 619 391 646L391 646Q389 619 380.50 572.50Q372 526 361.50 474.50Q351 423 340 378L340 378Q330 333 320 290.50Q310 248 303.50 215.50Q297 183 297 166L297 166Q297 144 310.50 117Q324 90 343.50 65.50Q363 41 381 24L381 24L381 0ZM213 890L213 890L326 890Q334 890 343.50 891.50Q353 893 353 900L353 900Q353 905 342 908Q331 911 320 911L320 911L271 966L217 911Q210 911 198 909.50Q186 908 186 900L186 900Q186 893 196 891.50Q206 890 213 890ZM455 890L455 890L568 890Q576 890 585.50 891.50Q595 893 595 900L595 900Q595 905 584.50 908Q574 911 563 911L563 911L513 966L459 911Q452 911 440 909.50Q428 908 428 900L428 900Q428 893 438 891.50Q448 890 455 890ZM697 890L697 890L811 890Q818 890 827.50 891.50Q837 893 837 900L837 900Q837 905 826.50 908Q816 911 805 911L805 911L755 966L701 911Q694 911 682 909.50Q670 908 670 900L670 900Q670 893 680 891.50Q690 890 697 890ZM261 816L261 791L279 791L279 816Q279 832 284 847Q289 862 293 871L293 871L246 871Q251 862 256 847Q261 832 261 816L261 816ZM503 816L503 791L521 791L521 816Q521 832 526 847Q531 862 536 871L536 871L488 871Q493 862 498 847Q503 832 503 816L503 816ZM745 816L745 791L764 791L764 816Q764 832 768.50 847Q773 862 778 871L778 871L730 871Q735 862 740 847Q745 832 745 816L745 816ZM182 20L182 20L358 20Q344 37 325 60Q306 83 292 110Q278 137 278 166L278 166Q278 188 285 222.50Q292 257 302 299Q312 341 321 383L321 383Q329 415 337.50 456.50Q346 498 354 540Q362 582 367 615Q372 648 372 662L372 662Q372 711 347.50 741Q323 771 270 771L270 771Q217 771 192 741Q167 711 167 662L167 662Q167 648 172 615Q177 582 185 540Q193 498 202 456.50Q211 415 218 383L218 383Q228 341 238 299Q248 257 255 222.50Q262 188 262 166L262 166Q262 137 247.50 110Q233 83 214.50 60Q196 37 182 20ZM424 20L424 20L600 20Q586 37 567 60Q548 83 534 110Q520 137 520 166L520 166Q520 188 527 222.50Q534 257 544 299Q554 341 563 383L563 383Q571 415 579.50 456.50Q588 498 596 540Q604 582 609 615Q614 648 614 662L614 662Q614 711 589.50 741Q565 771 512 771L512 771Q459 771 434.50 741Q410 711 410 662L410 662Q410 648 415 615Q420 582 427.50 540Q435 498 444 456.50Q453 415 460 383L460 383Q470 341 480 299Q490 257 497 222.50Q504 188 504 166L504 166Q504 137 490 110Q476 83 457 60Q438 37 424 20ZM666 20L666 20L842 20Q828 37 809 60Q790 83 776 110Q762 137 762 166L762 166Q762 188 769 222.50Q776 257 786 299Q796 341 806 383L806 383Q814 415 822.50 456.50Q831 498 838.50 540Q846 582 851 615Q856 648 856 662L856 662Q856 711 831.50 741Q807 771 754 771L754 771Q702 771 677 741Q652 711 652 662L652 662Q652 648 657 615Q662 582 670 540Q678 498 687 456.50Q696 415 703 383L703 383Q713 341 722.50 299Q732 257 739 222.50Q746 188 746 166L746 166Q746 137 732 110Q718 83 699 60Q680 37 666 20Z"/></svg>