<svg id="U131B7" viewBox="0 0 1281 1000"><path transform="translate(0, 900) scale(1,-1)" d="M1030 172L251 172Q236 172 211.50 174Q187 176 159 184Q131 192 106 210Q81 228 65 258.50Q49 289 49 336L49 336Q49 392 72 424.50Q95 457 128.50 473.50Q162 490 193 496L193 496L193 595Q170 604 158 637L158 637L142 679Q138 690 125 707.50Q112 725 84 734L84 734L84 754Q107 767 140.50 779.50Q174 792 220 792L220 792Q267 792 300.50 779.50Q334 767 356 754L356 754L356 734Q328 725 315.50 707.50Q303 690 298 679L298 679L283 637Q269 604 248 595L248 595L248 501L386 501L386 542Q379 544 369 551Q359 558 359 578L359 578Q359 592 363 619.50Q367 647 374 676.50Q381 706 390.50 726.50Q400 747 411 747L411 747Q422 747 431.50 726.50Q441 706 448 676.50Q455 647 459 619.50Q463 592 463 578L463 578Q463 558 453.50 551Q444 544 436 542L436 542L436 501L613 501L613 595Q590 604 578 637L578 637L563 679Q559 690 546 707.50Q533 725 505 734L505 734L505 754Q527 767 560.50 779.50Q594 792 641 792L641 792Q688 792 721 779.50Q754 767 776 754L776 754L776 734Q749 725 736 707.50Q723 690 719 679L719 679L703 637Q691 604 668 595L668 595L668 501L845 501L845 542Q838 544 828 551Q818 558 818 578L818 578Q818 592 822 619.50Q826 647 833 676.50Q840 706 849.50 726.50Q859 747 870 747L870 747Q881 747 890.50 726.50Q900 706 907 676.50Q914 647 918 619.50Q922 592 922 578L922 578Q922 558 912.50 551Q903 544 895 542L895 542L895 501L1034 501L1034 595Q1011 604 999 637L999 637L983 679Q979 690 966 707.50Q953 725 925 734L925 734L925 754Q948 767 981.50 779.50Q1015 792 1061 792L1061 792Q1108 792 1141.50 779.50Q1175 767 1197 754L1197 754L1197 734Q1169 725 1156.50 707.50Q1144 690 1139 679L1139 679L1124 637Q1110 603 1088 595L1088 595L1088 496Q1120 490 1153 473.50Q1186 457 1209 424.50Q1232 392 1232 336L1232 336Q1232 289 1216 258.50Q1200 228 1175.50 210Q1151 192 1123 184Q1095 176 1070 174Q1045 172 1030 172L1030 172ZM251 191L251 191L1030 191Q1047 191 1077 194.50Q1107 198 1138.50 211.50Q1170 225 1191.50 254.50Q1213 284 1213 336L1213 336Q1213 376 1199 402Q1185 428 1162.50 444Q1140 460 1115 468Q1090 476 1069 479L1069 479L1069 609Q1080 613 1090 621.50Q1100 630 1105 644L1105 644L1121 686Q1125 697 1137.50 716Q1150 735 1175 747L1175 747Q1159 756 1132 764.50Q1105 773 1061 773L1061 773Q1021 773 993 764Q965 755 946 744L946 744Q972 734 984.50 715.50Q997 697 1001 686L1001 686Q1005 676 1009 665.50Q1013 655 1017 644L1017 644Q1022 630 1032 621.50Q1042 613 1053 609L1053 609L1053 480Q1046 481 1040.50 481Q1035 481 1030 481L1030 481L875 481L875 562Q884 561 893.50 564.50Q903 568 903 578L903 578Q903 590 899.50 612.50Q896 635 891 658.50Q886 682 880.50 698.50Q875 715 870 715L870 715Q866 715 860 698.50Q854 682 849 658.50Q844 635 840.50 612.50Q837 590 837 578L837 578Q837 568 846.50 564.50Q856 561 865 562L865 562L865 481L648 481L648 609Q660 613 670 621.50Q680 630 685 644L685 644L700 686Q705 697 717 716Q729 735 754 747L754 747Q738 756 711 764.50Q684 773 641 773L641 773Q598 773 571 764.50Q544 756 527 747L527 747Q552 735 564.50 716Q577 697 581 686L581 686L597 644Q607 617 633 609L633 609L633 481L417 481L417 562Q426 561 435 564.50Q444 568 444 578L444 578Q444 590 440.50 612.50Q437 635 432 658.50Q427 682 421.50 698.50Q416 715 411 715L411 715Q407 715 401 698.50Q395 682 390 658.50Q385 635 381.50 612.50Q378 590 378 578L378 578Q378 568 387.50 564.50Q397 561 406 562L406 562L406 481L251 481Q247 481 241 481Q235 481 228 480L228 480L228 609Q254 617 264 644L264 644Q268 655 272 665.50Q276 676 280 686L280 686Q284 697 296.50 715.50Q309 734 335 744L335 744Q316 755 288.50 764Q261 773 220 773L220 773Q177 773 150 764.50Q123 756 106 747L106 747Q132 735 144.50 716Q157 697 161 686L161 686L176 644Q181 630 191 621.50Q201 613 212 609L212 609L212 479Q191 476 166 468Q141 460 118.50 444Q96 428 82 402Q68 376 68 336L68 336Q68 284 90 254.50Q112 225 143 211.50Q174 198 204.50 194.50Q235 191 251 191ZM1000 227L281 227Q265 227 237 229.50Q209 232 180 242Q151 252 130.50 274Q110 296 110 336L110 336Q110 375 130.50 397Q151 419 180.50 429.50Q210 440 238 443Q266 446 281 446L281 446L1000 446Q1015 446 1043 443Q1071 440 1100.50 429.50Q1130 419 1150.50 397Q1171 375 1171 336L1171 336Q1171 296 1151 274Q1131 252 1101.50 242Q1072 232 1044 229.50Q1016 227 1000 227L1000 227ZM281 246L281 246L1000 246Q1014 246 1039 248Q1064 250 1090 258.50Q1116 267 1134 285Q1152 303 1152 336L1152 336Q1152 368 1133.50 386.50Q1115 405 1088.50 413.50Q1062 422 1037.50 424.50Q1013 427 1000 427L1000 427L281 427Q268 427 243.50 424.50Q219 422 192.50 413.50Q166 405 147.50 386.50Q129 368 129 336L129 336Q129 303 147 285Q165 267 191 258.50Q217 250 242 248Q267 246 281 246Z"/></svg>