<svg id="U131BB" viewBox="0 0 1272 1000"><path transform="translate(0, 900) scale(1,-1)" d="M1179 166L333 166Q288 166 262 190.50Q236 215 236 260L236 260Q236 309 263 332Q290 355 333 355L333 355L1121 355Q1132 355 1143 365Q1154 375 1154 394L1154 394Q1153 408 1144 420.50Q1135 433 1121 433L1121 433L338 433Q325 385 273 368L273 368Q228 353 199 333Q170 313 150.50 288.50Q131 264 114 236L114 236L72 236Q66 265 60.50 308Q55 351 52 395Q49 439 49 468L49 468Q49 498 52 542Q55 586 60.50 629.50Q66 673 72 701L72 701L114 701Q131 673 150.50 648.50Q170 624 199 604Q228 584 273 569L273 569Q325 552 339 503L339 503L1121 503Q1136 503 1160.50 493.50Q1185 484 1204 460.50Q1223 437 1223 394L1223 394Q1223 352 1206 328Q1189 304 1165.50 294.50Q1142 285 1121 285L1121 285L333 285Q324 285 314.50 279.50Q305 274 305 260L305 260Q305 244 315.50 240Q326 236 333 236L333 236L1179 236Q1200 236 1211 226.50Q1222 217 1223 201L1223 201Q1224 180 1211.50 173Q1199 166 1179 166L1179 166ZM86 256L86 256L104 256Q128 297 163.50 330Q199 363 267 387L267 387Q293 396 308.50 417.50Q324 439 324 469L324 469Q324 498 308.50 520Q293 542 267 551L267 551Q202 574 165.50 609Q129 644 104 684L104 684L86 684Q81 658 77 618Q73 578 70.50 537.50Q68 497 68 468L68 468Q68 435 71.50 393.50Q75 352 79.50 315Q84 278 86 256ZM333 185L333 185L1179 185Q1190 185 1196.50 188Q1203 191 1203 200L1203 200Q1203 216 1179 216L1179 216L333 216Q321 216 303 224Q285 232 285 260L285 260Q285 286 301.50 295Q318 304 333 304L333 304L1121 304Q1138 304 1157 312Q1176 320 1189.50 339.50Q1203 359 1203 394L1203 394Q1203 429 1187.50 448.50Q1172 468 1152.50 476Q1133 484 1121 484L1121 484L343 484Q343 480 343.50 476.50Q344 473 344 469L344 469Q344 465 343.50 461Q343 457 343 453L343 453L1121 453Q1142 453 1157 434Q1172 415 1173 395L1173 395Q1175 366 1157 350.50Q1139 335 1121 335L1121 335L333 335Q299 335 277 316.50Q255 298 255 260L255 260Q255 225 276 205Q297 185 333 185Z"/></svg>