<svg id="U13371" viewBox="0 0 413 1000"><path transform="translate(0, 900) scale(1,-1)" d="M207 136L207 136Q134 136 98.50 188.50Q63 241 63 325L63 325Q63 366 74 404Q85 442 100 474.50Q115 507 129 530Q143 553 150 563L150 563Q154 568 166 584Q178 600 194 622L194 622Q170 654 141.50 691.50Q113 729 88 762.50Q63 796 49 814L49 814L64 826Q82 803 107 770Q132 737 158.50 702.50Q185 668 207 639L207 639Q229 668 255 702.50Q281 737 306 770Q331 803 349 826L349 826L364 814Q350 796 324.50 762.50Q299 729 271 691.50Q243 654 219 622L219 622Q232 606 246 586.50Q260 567 263 563L263 563Q270 553 284 530Q298 507 313.50 474.50Q329 442 339.50 404Q350 366 350 325L350 325Q350 241 317 188.50Q284 136 207 136ZM207 155L207 155Q269 155 300 200.50Q331 246 331 325L331 325Q331 364 319.50 403Q308 442 291.50 474.50Q275 507 260.50 530Q246 553 241 560L241 560Q233 570 207 605L207 605Q194 589 185.50 577Q177 565 172 560L172 560Q167 553 152.50 530Q138 507 122 474.50Q106 442 94.50 403Q83 364 83 325L83 325Q83 246 114.50 200.50Q146 155 207 155Z"/></svg>