<svg id="U13102" viewBox="0 0 1161 1000"><path transform="translate(0, 900) scale(1,-1)" d="M168-17L117-17L104-5L67-5L67 13L49 13L49 46L61 79Q60 94 66.50 112Q73 130 87.50 142.50Q102 155 123 155L123 155Q125 155 129.50 155Q134 155 137 154L137 154Q151 156 162 156L162 156Q185 156 218.50 149.50Q252 143 284 136L284 136Q308 130 327 126.50Q346 123 354 123L354 123Q360 123 389.50 126Q419 129 461.50 134Q504 139 551 145Q598 151 639.50 156Q681 161 708 164.50Q735 168 737 168L737 168Q736 179 734 198Q732 217 732 239L732 239Q732 255 740.50 289.50Q749 324 762 365Q775 406 786 439L786 439L720 385L675 366L644 367L608 406L608 428L583 421L509 485L498 526Q510 547 525 573Q540 599 555.50 624Q571 649 582 664L582 664Q602 693 622 715Q642 737 663 753L663 753Q663 762 668.50 778.50Q674 795 687.50 808.50Q701 822 725 822L725 822Q744 822 755 816.50Q766 811 771 803L771 803Q788 813 811 813L811 813Q834 813 851.50 802Q869 791 873 774L873 774Q917 765 959 740Q1001 715 1036 678Q1071 641 1091.50 597Q1112 553 1112 506L1112 506Q1112 454 1092.50 410.50Q1073 367 1050 327L1050 327Q1029 290 1011 250Q993 210 993 163L993 163Q993 150 999.50 131.50Q1006 113 1014 94L1014 94Q1021 75 1027.50 57Q1034 39 1034 25L1034 25Q1034 5 1014.50-5Q995-15 970-14L970-14L342-14L230 16L205 16L168-17ZM681 765L681 765Q698 775 716 781.50Q734 788 753 789L753 789L758 793Q754 798 746.50 802Q739 806 725 806L725 806Q704 806 694 792Q684 778 681 765ZM672 385L672 385L707 401L796 474Q817 497 835 528.50Q853 560 853 597L853 597Q853 604 851 612Q849 620 847 627L847 627Q843 638 840.50 649.50Q838 661 838 674L838 674Q838 685 839.50 692.50Q841 700 845 710L845 710Q850 722 853.50 733.50Q857 745 858 758L858 758Q854 773 842 783Q830 793 807 793L807 793Q797 793 785 788Q773 783 762 770L762 770L761 770Q746 751 745 730L745 730L725 733Q726 742 729.50 751Q733 760 737 769L737 769Q707 763 680 742Q653 721 631.50 696.50Q610 672 597 653L597 653Q578 625 554.50 587Q531 549 517 523L517 523L525 498Q527 515 538 529Q549 543 571 543L571 543L571 523Q555 523 548.50 509Q542 495 543 481L543 481L588 443Q593 445 600 446.50Q607 448 613 450L613 450L666 494L679 479L628 437L628 414L652 386Q657 386 662.50 385.50Q668 385 672 385ZM758 170L758 170Q790 175 801.50 193Q813 211 815 240L815 240Q820 282 832 325Q844 368 863.50 405Q883 442 908.50 464.50Q934 487 964 487L964 487Q984 487 998 474Q1012 461 1020.50 442Q1029 423 1032 405L1032 405L1069 405Q1080 428 1086 453Q1092 478 1092 506L1092 506Q1092 548 1073.50 588.50Q1055 629 1024 663Q993 697 954.50 720.50Q916 744 877 753L877 753Q876 739 872.50 728Q869 717 866 707L866 707Q863 698 860.50 690Q858 682 858 674L858 674Q858 663 860.50 652.50Q863 642 865 633L865 633Q868 623 870 614.50Q872 606 872 597L872 597Q872 556 856 524Q840 492 817 467L817 467Q809 444 797.50 411.50Q786 379 775.50 345Q765 311 758 282.50Q751 254 751 239L751 239Q751 221 753.50 202.50Q756 184 758 170ZM662 602L641 602L670 649L729 649L727 635L710 635L693 613L668 613L662 602ZM116 10L125 3L134 3Q135 22 148.50 37Q162 52 181 53L181 53L182 37Q169 36 160.50 26Q152 16 151 3L151 3L161 3L198 35L231 35L343 6L972 6Q989 4 1001.50 9.50Q1014 15 1014 25L1014 25Q1014 36 1008 53Q1002 70 995 87L995 87Q987 107 980.50 127Q974 147 974 163L974 163Q974 214 992.50 255.50Q1011 297 1034 337L1034 337Q1040 349 1047 361Q1054 373 1060 386L1060 386L1013 386Q1013 404 1008 422.50Q1003 441 992.50 454Q982 467 964 467L964 467Q938 467 916 446Q894 425 877 391Q860 357 849.50 317Q839 277 835 238L835 238Q831 198 814 175Q797 152 746 149L746 149Q724 146 680.50 140.50Q637 135 584.50 128.50Q532 122 482 116.50Q432 111 397 107Q362 103 354 103L354 103Q344 103 323 107.50Q302 112 280 116L280 116Q249 123 215.50 130Q182 137 162 137L162 137Q158 137 150.50 136Q143 135 138 133L138 133Q128 136 123 136L123 136Q107 136 97 125.50Q87 115 83 101L83 101Q97 116 117.50 120.50Q138 125 162 124L162 124L161 107Q136 109 113.50 100.50Q91 92 80 72L80 72L68 42L68 33L72 33Q80 55 100 76.50Q120 98 160 98L160 98L160 82Q126 82 109.50 63Q93 44 86 25L86 25L86 15L100 15Q105 42 124.50 57.50Q144 73 166 74L166 74L167 58Q151 57 136 44.50Q121 32 116 10L116 10Z"/></svg>