<svg id="U133E7" viewBox="0 0 789 1000"><path transform="translate(0, 900) scale(1,-1)" d="M658 0L658 0Q624 0 600 24Q576 48 576 82L576 82Q576 116 600 140Q624 164 658 164L658 164Q693 164 716.50 140Q740 116 740 82L740 82Q740 48 716.50 24Q693 0 658 0ZM131 0L131 0Q97 0 73 24Q49 48 49 82L49 82Q49 116 73 140Q97 164 131 164L131 164Q165 164 189 140Q213 116 213 82L213 82Q213 48 189 24Q165 0 131 0ZM395 0L395 0Q361 0 337 24Q313 48 313 82L313 82Q313 116 337 140Q361 164 395 164L395 164Q429 164 453 140Q477 116 477 82L477 82Q477 48 453 24Q429 0 395 0ZM131 20L131 20Q157 20 175 38Q193 56 193 82L193 82Q193 108 175 126.50Q157 145 131 145L131 145Q105 145 86.50 126.50Q68 108 68 82L68 82Q68 56 86.50 38Q105 20 131 20ZM395 20L395 20Q421 20 439 38Q457 56 457 82L457 82Q457 108 439 126.50Q421 145 395 145L395 145Q368 145 350 126.50Q332 108 332 82L332 82Q332 56 350 38Q368 20 395 20ZM658 20L658 20Q684 20 702.50 38Q721 56 721 82L721 82Q721 108 702.50 126.50Q684 145 658 145L658 145Q632 145 614 126.50Q596 108 596 82L596 82Q596 56 614 38Q632 20 658 20Z"/></svg>