<svg id="U1374" viewBox="0 0 563 1000"><path transform="translate(0, 900) scale(1,-1)" d="M40 628L20 628L54 783L509 783L543 628L523 628Q493 628 469.50 650.50Q446 673 435 710L435 710L128 710Q118 673 94 650.50Q70 628 40 628L40 628ZM172 129L172 129Q93 129 56 178Q19 227 19 307L19 307L19 540L110 540L110 322Q110 268 125 238.50Q140 209 177 209L177 209Q212 209 224 241Q236 273 236 323L236 323L236 410Q236 460 251.50 499Q267 538 301 560.50Q335 583 391 583L391 583Q471 583 507.50 535.50Q544 488 544 408L544 408L544 129L453 129L453 393Q453 447 438.50 476.50Q424 506 386 506L386 506Q352 506 339.50 474Q327 442 327 392L327 392L327 305Q327 256 311.50 216Q296 176 262 152.50Q228 129 172 129ZM35-92L15-92L49 63L514 63L548-92L528-92Q498-92 474.50-69.50Q451-47 440-10L440-10L123-10Q113-47 89-69.50Q65-92 35-92L35-92Z"/></svg>