<svg id="U1313" viewBox="0 0 571 1000"><path transform="translate(0, 900) scale(1,-1)" d="M481 0L390 0L390 111Q390 218 365.50 275Q341 332 286.50 353.50Q232 375 142 375L142 375L123 375Q112 335 87.50 314Q63 293 34 293L34 293L15 293L49 448L144 448Q173 448 199.50 447Q226 446 250 443L250 443L250 447Q250 532 236 573.50Q222 615 195.50 628Q169 641 129 641L129 641L123 641Q112 602 88.50 580.50Q65 559 34 559L34 559L15 559L49 714L124 714Q160 714 198 707Q236 700 268.50 677Q301 654 321 605.50Q341 557 341 474L341 474L341 422Q409 395 445 329.50Q481 264 481 138L481 138L481 0Z"/></svg>