<svg id="U13077" viewBox="0 0 744 1000"><path transform="translate(0, 900) scale(1,-1)" d="M695 0L49 0L49 43Q93 49 138.50 63.50Q184 78 219 95Q254 112 264 125L264 125L264 197Q261 199 258 201Q255 203 253 204L253 204Q243 220 231 240Q219 260 210 278Q201 296 199 305L199 305L191 305Q184 309 169 322Q154 335 140.50 350Q127 365 123 373L123 373Q119 380 116.50 391Q114 402 114 414L114 414Q114 423 116 434Q118 445 127.50 453Q137 461 158 461L158 461L165 458Q167 481 174.50 507.50Q182 534 202.50 558Q223 582 263.50 598.50Q304 615 372 616L372 616Q440 615 480.50 598.50Q521 582 541.50 558Q562 534 570 507.50Q578 481 580 458L580 458L586 461Q608 461 617 453Q626 445 628 434Q630 423 630 414L630 414Q630 402 628 391Q626 380 621 373L621 373Q617 365 603.50 350Q590 335 575.50 322Q561 309 553 305L553 305L545 305Q543 296 534 278Q525 260 513.50 240Q502 220 491 204L491 204L480 197L480 125Q490 112 525 95Q560 78 606 63.50Q652 49 695 43L695 43L695 0ZM186 460L186 460Q203 476 233.50 488Q264 500 327 500L327 500Q337 500 348 499.50Q359 499 372 498L372 498Q385 499 396 499.50Q407 500 417 500L417 500Q479 500 510 488Q541 476 559 460L559 460Q556 482 546.50 505.50Q537 529 517.50 549Q498 569 463 582.50Q428 596 372 597L372 597Q299 595 260 573Q221 551 205.50 520.50Q190 490 186 460ZM336 190L336 190L408 190Q410 190 422.50 194Q435 198 451 204.50Q467 211 477 218L477 218Q488 235 499 255.50Q510 276 518.50 294.50Q527 313 527 324L527 324L549 324Q556 328 568.50 339.50Q581 351 591.50 364Q602 377 604 383L604 383Q610 394 610 414L610 414Q610 422 606.50 431.50Q603 441 591 441L591 441L562 426L562 431L554 438Q544 449 528.50 458.50Q513 468 487 474Q461 480 417 480L417 480Q407 480 396 479.50Q385 479 372 479L372 479Q359 479 348 479.50Q337 480 327 480L327 480Q284 480 257.50 474Q231 468 216 458.50Q201 449 190 438L190 438L183 431L182 431L182 426L153 441Q141 441 137.50 431.50Q134 422 134 414L134 414Q134 394 140 383L140 383Q143 377 153.50 364Q164 351 176 339.50Q188 328 195 324L195 324L217 324Q218 313 226 294.50Q234 276 246 255.50Q258 235 268 218L268 218Q279 210 299.50 202.50Q320 195 336 190ZM405 299L339 299L339 417Q338 420 336.50 423Q335 426 333 429L333 429L294 434L294 446L345 448L358 421L358 319L386 319L386 421L399 448L450 446L450 434L411 429Q410 426 408.50 423Q407 420 405 417L405 417L405 299ZM273 372L273 372Q253 372 238 377.50Q223 383 215 389L215 389L215 402Q224 407 237.50 414.50Q251 422 273 422L273 422Q290 422 304.50 416.50Q319 411 328 403L328 403L328 386Q324 383 309.50 377.50Q295 372 273 372ZM471 372L471 372Q449 372 434.50 377.50Q420 383 417 386L417 386L417 403Q425 411 439.50 416.50Q454 422 471 422L471 422Q494 422 507.50 414.50Q521 407 529 402L529 402L529 389Q521 383 506.50 377.50Q492 372 471 372ZM274 389L274 389Q283 389 283 397L283 397Q283 406 274 406L274 406L273 406Q265 406 265 397L265 397Q265 389 274 389ZM470 389L470 389Q479 389 479 397L479 397Q479 406 471 406L471 406L470 406Q461 406 461 397L461 397Q461 389 470 389ZM255 388L255 388Q253 394 253 397L253 397Q253 399 253.50 401Q254 403 254 405L254 405Q247 404 241.50 401.50Q236 399 232 397L232 397L232 394Q238 393 243 391.50Q248 390 255 388ZM489 388L489 388Q497 390 501.50 391.50Q506 393 512 394L512 394L512 397Q508 399 503 401.50Q498 404 490 405L490 405Q490 403 490.50 401Q491 399 491 397L491 397Q491 394 489 388ZM293 389L293 389Q301 391 306 392.50Q311 394 312 395L312 395L312 397Q310 399 305.50 401Q301 403 293 404L293 404Q294 402 294 397L294 397Q294 392 293 389ZM451 389L451 389Q450 392 450 397L450 397Q450 402 451 404L451 404Q444 403 439.50 401Q435 399 432 397L432 397L432 395Q434 394 439 392.50Q444 391 451 389ZM372 246L372 246Q349 246 328.50 247.50Q308 249 297 250L297 250L297 268Q307 270 316.50 271Q326 272 330 273L330 273Q337 275 344 277Q351 279 357 285L357 285Q364 281 367.50 279.50Q371 278 372 278L372 278Q373 278 376.50 279.50Q380 281 387 285L387 285Q394 279 400.50 277Q407 275 414 273L414 273Q418 272 427.50 271Q437 270 447 268L447 268L447 250Q437 249 416 247.50Q395 246 372 246ZM313 260L372 258L432 260L432 261Q419 262 413.50 262Q408 262 388 267L388 267Q384 264 379.50 263.50Q375 263 372 264L372 264Q369 263 364.50 263.50Q360 264 356 267L356 267Q336 262 331 262Q326 262 313 261L313 261L313 260ZM67 25L67 20L677 20L677 25Q633 31 586.50 46.50Q540 62 505.50 81Q471 100 461 114L461 114L461 188Q448 183 436.50 179Q425 175 417 173L417 173L439 82L439 39L305 39L305 82L327 173Q320 175 307.50 179Q295 183 283 188L283 188L283 114Q274 100 239 81Q204 62 157.50 46.50Q111 31 67 25L67 25ZM325 82L325 59L419 59L419 82L397 170L347 170L325 82Z"/></svg>