<svg id="U1302A" viewBox="0 0 1030 1000"><path transform="translate(0, 900) scale(1,-1)" d="M471 0L471 0Q349 0 267.50 21Q186 42 138 94Q90 146 69.50 236.50Q49 327 49 466L49 466Q49 509 55 588.50Q61 668 83 797L83 797L63 819L64 855L71 862L78 862L78 878L99 878Q103 897 107 916Q111 935 116 954L116 954L135 952Q131 933 126.50 914.50Q122 896 118 878L118 878L136 878L155 865L205 822L302 708L410 767Q427 776 446 776.50Q465 777 482 778L482 778L482 801L439 804L432 855Q427 856 420.50 856.50Q414 857 408 858L408 858L440 927Q438 937 438 947L438 947Q438 967 455.50 984Q473 1001 519 1001L519 1001Q565 1001 588.50 976Q612 951 612 917L612 917Q612 889 592 855L592 855L576 827L576 778Q593 777 613 776.50Q633 776 649 767L649 767L747 708L839 822L889 865L908 878L923 878L915 952L934 954L943 878L966 878L966 862L973 862L979 855L981 819L955 791L952 790Q958 713 962 660.50Q966 608 968 573Q970 538 970.50 513.50Q971 489 971 467L971 467Q971 331 942 240.50Q913 150 853 97Q793 44 698 22Q603 0 471 0ZM539 850L558 833L579 866Q584 874 589 887.50Q594 901 594 914L594 914Q594 939 576 960.50Q558 982 521 982L521 982Q487 982 473 971Q459 960 459 946L459 946Q459 941 459.50 937.50Q460 934 460 932L460 932L525 932Q527 934 530.50 935.50Q534 937 541 937L541 937Q553 937 560 927.50Q567 918 567 907L567 907Q567 890 556 875L556 875L539 850ZM454 702L496 542L591 559L601 704L764 645L877 792L895 809L905 810L903 837L921 858L952 862L952 867L917 866L899 854L856 816L750 686L642 750Q627 758 605.50 759.50Q584 761 561 763L561 763L561 810L519 847L537 877Q540 882 544 891Q548 900 548 904L548 904Q548 909 546 914.50Q544 920 535 920L535 920Q528 920 526 918.50Q524 917 523 915L523 915L451 915L432 870Q435 870 438.50 869Q442 868 445 868L445 868L452 817L499 814L499 763Q475 761 453 760Q431 759 417 750L417 750L299 686L188 816L145 854L127 866L92 867L92 862L123 858L141 837L139 810L149 809L167 792L285 645L454 702ZM476 889L476 889Q469 889 461.50 891Q454 893 454 898L454 898Q454 903 460.50 906Q467 909 474 909L474 909Q482 909 488.50 905.50Q495 902 500 897L500 897Q495 894 489.50 891.50Q484 889 476 889ZM99 803L109 800L126 805L128 833L117 845L79 849L77 826L99 803ZM920 805L937 800L947 803L969 826L967 849L929 845L918 833L920 805ZM255 47L255 47L255 67L321 79Q336 81 341 93.50Q346 106 350 119L350 119L380 236L379 277L393 306L382 306L481 533L440 679L278 622L155 781L144 792L130 793L109 786L101 788Q79 660 73.50 581.50Q68 503 68 466L68 466Q68 349 83 263Q98 177 138.50 123Q179 69 255 47ZM683 36L683 36Q777 61 836.50 109Q896 157 924 243Q952 329 952 467L952 467Q952 497 950 533.50Q948 570 943.50 630Q939 690 931 787L931 787L914 793L900 792L889 781L771 622L618 679L608 552Q631 520 642 495.50Q653 471 653 438L653 438Q653 424 652 418Q651 412 649 392L649 392Q648 382 647.50 374Q647 366 647 358L647 358Q647 350 652 333Q657 316 658 306L658 306Q664 285 671 250.50Q678 216 682.50 175.50Q687 135 687 95L687 95Q687 80 686 65Q685 50 683 36ZM497 525L413 323L636 323Q627 343 627 353L627 353Q627 370 630 392L630 392Q632 409 633 416Q634 423 634 437L634 437Q634 490 590 543L590 543L497 525ZM271 56L271 42L383 42L470 306L412 306L397 275L397 234L366 113Q359 89 349.50 78Q340 67 326 64L326 64L271 56ZM471 20L471 20Q506 20 538.50 21Q571 22 601 24L601 24L538 24L538 67L593 79Q605 81 614 87Q623 93 623 102L623 102Q623 104 623 107Q623 110 622 113L622 113L572 286L567 306L488 306L395 24L364 24Q388 22 415 21Q442 20 471 20ZM557 56L557 42L665 42Q667 56 668 70.50Q669 85 669 100L669 100Q669 138 664 177Q659 216 652 250Q645 284 638 306L638 306L587 306L591 287L640 114Q642 110 642 106.50Q642 103 642 100L642 100Q642 84 628.50 75.50Q615 67 598 64L598 64L557 56Z"/></svg>