<svg id="U13363" viewBox="0 0 750 1000"><path transform="translate(0, 900) scale(1,-1)" d="M615 173L595 170Q593 181 584.50 218.50Q576 256 555.50 307Q535 358 496 407L496 407Q453 462 431.50 502.50Q410 543 403 574.50Q396 606 396 631L396 631Q396 707 441.50 750.50Q487 794 562 794L562 794Q623 794 662 760Q701 726 701 670L701 670Q701 636 685 608Q669 580 641.50 563.50Q614 547 580 547L580 547Q552 547 524.50 559.50Q497 572 481 603L481 603L498 613Q511 586 534.50 576.50Q558 567 580 567L580 567Q623 567 652 597Q681 627 681 670L681 670Q681 714 648.50 744.50Q616 775 562 775L562 775Q497 775 456 737Q415 699 415 631L415 631Q415 603 423 573Q431 543 452 506Q473 469 513 417L513 417Q548 373 568 328Q588 283 599 243Q610 203 615 173L615 173ZM268 173L249 170Q247 181 238.50 218.50Q230 256 209.50 307Q189 358 149 407L149 407Q106 462 84.50 502.50Q63 543 56 574.50Q49 606 49 631L49 631Q49 707 95 750.50Q141 794 215 794L215 794Q276 794 315 760Q354 726 354 670L354 670Q354 636 338 608Q322 580 294.50 563.50Q267 547 233 547L233 547Q205 547 178 559.50Q151 572 134 603L134 603L151 613Q164 586 187.50 576.50Q211 567 233 567L233 567Q277 567 305.50 597Q334 627 334 670L334 670Q334 714 302 744.50Q270 775 215 775L215 775Q150 775 109 737Q68 699 68 631L68 631Q68 603 76 573Q84 543 105 506Q126 469 166 417L166 417Q201 373 221 328Q241 283 252 243Q263 203 268 173L268 173Z"/></svg>