<svg id="U1300A" viewBox="0 0 1079 1000"><path transform="translate(0, 900) scale(1,-1)" d="M240 0L49 0L49 45L130 57L167 68L187 96Q195 128 204 164.50Q213 201 222 235.50Q231 270 237.50 295.50Q244 321 247 331L247 331Q254 354 261.50 370Q269 386 279 396L279 396Q286 402 303.50 407Q321 412 330 412L330 412Q368 412 406.50 396Q445 380 478 356Q511 332 530 306L530 306L535 378L515 465Q472 444 425 438Q378 432 336 434L336 434L313 446Q315 473 327 507Q339 541 356.50 575Q374 609 392 638Q410 667 425 685L425 685Q439 702 466 712.50Q493 723 525 730L525 730L580 743L573 769L533 754L509 817L478 819L527 929L529 942Q537 971 557.50 986Q578 1001 617 1001L617 1001Q653 1001 684 989Q715 977 733.50 955Q752 933 752 902L752 902Q752 874 736 847Q720 820 693 783L693 783L693 745Q722 746 759 739L759 739Q780 735 806.50 728Q833 721 860 714Q887 707 907.50 701.50Q928 696 937 694L937 694Q933 717 931 740.50Q929 764 930 789L930 789Q931 797 933.50 823.50Q936 850 938 872L938 872L905 972L933 981L950 941L957 962L937 1019L969 1031L1004 958L990 912Q995 850 1004.50 775.50Q1014 701 1030 624L1030 624L1015 614Q971 608 913.50 612.50Q856 617 763 632L763 632L721 446L716 337L716 179L749 179L769 86Q774 67 767.50 51Q761 35 750 27L750 27Q743 22 728.50 15.50Q714 9 699 4.50Q684 0 675 0L675 0L661 39L690 54Q699 59 698 65Q697 71 693 78L693 78L677 112L467 29Q427 13 396 6.50Q365 0 348 0L348 0Q313 0 287 20.50Q261 41 261 78L261 78Q261 83 262 86L262 86Q258 80 254.50 74.50Q251 69 249 66L249 66L240 0ZM554 379L547 309L699 341L704 451L750 653Q826 640 876 635Q926 630 958 630.50Q990 631 1008 632L1008 632Q998 693 987.50 768Q977 843 974 914L974 914L988 956L963 1010L956 1007L973 959L958 919L949 917L929 962L922 960L952 875Q951 858 950 838.50Q949 819 948.50 803Q948 787 948 782L948 782Q948 772 949.50 752.50Q951 733 953.50 714Q956 695 958 683L958 683L941 675Q922 678 874.50 693Q827 708 757 722L757 722Q735 727 711 727.50Q687 728 674 726L674 726L674 779L625 820L648 851Q651 856 655 862.50Q659 869 659 873L659 873Q659 876 657 881.50Q655 887 647 887L647 887Q636 887 627 875L627 875L542 923L501 832L521 831L541 776L586 791L601 729L524 713Q505 709 477 698Q449 687 438 673L438 673Q415 644 392 604Q369 564 352 524.50Q335 485 330 457L330 457L342 452Q406 447 467 467Q528 487 578 516L578 516L667 521L667 528L618 528L616 539L647 567L698 570L697 578L638 580L605 550Q550 531 499 515Q448 499 395 496L395 496Q400 508 420 541Q440 574 489 632L489 632L495 632L516 541Q536 546 559 553Q582 560 597 564L597 564L634 596L715 591L716 557L656 554L639 539L683 539L685 509L580 501Q571 497 557 489Q543 481 531 474L531 474L554 379ZM647 825L681 795Q701 823 717.50 850.50Q734 878 734 906L734 906Q734 932 714 949Q694 966 667 974Q640 982 618 982L618 982Q593 982 574 972Q555 962 547 939L547 939L625 895Q630 899 636 902Q642 905 649 905L649 905Q662 905 669 895.50Q676 886 676 875L676 875Q676 868 671 858.50Q666 849 661 843L661 843L647 825ZM566 866L566 866Q555 866 547 869.50Q539 873 531 878L531 878Q536 884 545.50 886Q555 888 558 888L558 888Q578 888 589 868L589 868Q582 867 576.50 866.50Q571 866 566 866ZM425 519L425 519Q436 521 453.50 524.50Q471 528 498 535L498 535L483 600Q450 560 439.50 543.50Q429 527 425 519ZM68 33L68 19L224 19Q225 27 227 41.50Q229 56 230 66L230 66Q242 83 255 110Q268 137 279 163.50Q290 190 296 206L296 206Q307 235 314 262Q321 289 322 315L322 315L333 320Q349 316 367.50 298Q386 280 402 260.50Q418 241 425 230L425 230L515 293Q495 317 465.50 340Q436 363 401.50 378Q367 393 330 393L330 393Q323 393 309 387.50Q295 382 290 377L290 377Q281 368 275 354.50Q269 341 264 321L264 321Q261 312 254.50 287Q248 262 239.50 228Q231 194 221.50 157Q212 120 204 88L204 88L178 54L136 42L68 33ZM324 135L358 86Q433 127 521.50 149.50Q610 172 697 178L697 178L697 322L540 287L324 135ZM282 127L282 127Q289 134 298 141.50Q307 149 319 156L319 156L409 219Q403 228 390.50 243Q378 258 364 272Q350 286 338 292L338 292Q338 266 330 243.50Q322 221 314 199L314 199Q310 189 301.50 169Q293 149 282 127ZM680 31L686 16Q700 21 717 29Q734 37 741 42L741 42Q749 49 752 61.50Q755 74 752 86L752 86L734 160Q636 159 539.50 135.50Q443 112 354 63L354 63L309 122Q280 106 280 77L280 77Q280 51 301 35.50Q322 20 350 20L350 20Q366 20 399 28Q432 36 467 50L467 50L684 136L709 82Q715 69 713.50 58.50Q712 48 705 44L705 44L680 31Z"/></svg>