<svg id="U131EB" viewBox="0 0 1003 1000"><path transform="translate(0, 900) scale(1,-1)" d="M890 46L890 46Q867 46 847.50 56Q828 66 809 79.50Q790 93 769 103L769 103Q742 116 699 129Q656 142 609 154.50Q562 167 521 179Q480 191 456 202L456 202Q432 213 398 236.50Q364 260 325.50 287Q287 314 252 337Q217 360 192 371L192 371Q174 379 150 387.50Q126 396 103 406Q80 416 64.50 430Q49 444 49 464L49 464Q49 488 58.50 501Q68 514 81.50 519Q95 524 105 524L105 524Q130 524 152.50 513.50Q175 503 196.50 489Q218 475 240 465L240 465Q284 452 338 437Q392 422 446 405.50Q500 389 543 370L543 370Q583 353 626.50 322.50Q670 292 714.50 259Q759 226 802 202L802 202Q816 194 841 186Q866 178 892 167.50Q918 157 936 141.50Q954 126 954 102L954 102Q954 78 938 62Q922 46 890 46ZM890 66L890 66Q913 66 924 76Q935 86 935 102L935 102Q935 118 920 130Q905 142 882.50 151Q860 160 836 168Q812 176 795 184L795 184Q774 193 743 215Q712 237 675.50 263.50Q639 290 602.50 314.50Q566 339 536 353L536 353Q464 386 386.50 404Q309 422 234 447L234 447Q214 454 193 467.50Q172 481 150 492.50Q128 504 105 504L105 504Q95 504 81.50 496.50Q68 489 68 464L68 464Q68 451 83 440Q98 429 120 420Q142 411 164 403.50Q186 396 200 389L200 389Q252 364 298.50 330.50Q345 297 387 266.50Q429 236 465 220L465 220Q491 208 532 196Q573 184 620 171Q667 158 709 145Q751 132 778 120L778 120Q795 112 813 99Q831 86 850.50 76Q870 66 890 66Z"/></svg>