<svg id="U13E9" viewBox="0 0 888 1000"><path transform="translate(0, 900) scale(1,-1)" d="M360-11L360-11Q219-11 140.50 83.50Q62 178 62 349L62 349Q62 462 103.50 546.50Q145 631 222 678Q299 725 406 725L406 725Q488 725 542 702Q596 679 623 643Q650 607 650 568L650 568Q650 538 635 519.50Q620 501 592 501L592 501Q567 501 551.50 515Q536 529 536 551L536 551Q536 583 568 598L568 598Q555 624 509 640.50Q463 657 406 657L406 657Q282 657 216 578Q150 499 150 352L150 352Q150 213 207.50 135Q265 57 367 57L367 57Q444 57 496 94Q548 131 560 194L560 194L560 256L473 264L473 312L720 312L720 264L638 256L638 209Q638 59 722 59L722 59Q763 59 783.50 83.50Q804 108 806 162L806 162L806 193L868 193Q869 183 869.50 169Q870 155 870 139L870 139Q870 76 831 37.50Q792-1 727-1L727-1Q669-1 634.50 20.50Q600 42 581 90L581 90Q515-11 360-11Z"/></svg>