<svg id="U13076" viewBox="0 0 690 1000"><path transform="translate(0, 900) scale(1,-1)" d="M190 85L129-4L75 9L104 126L89 173L102 188L91 194L99 234L59 234L49 253L108 428L104 437Q116 497 141.50 532.50Q167 568 201 585.50Q235 603 273 609Q311 615 350 615L350 615Q459 615 523 576Q587 537 614.50 467Q642 397 642 305L642 305L642 68L539 68L539 0L280 0L267 82L190 85ZM521 85L521 85L622 85L622 305Q622 364 610 416.50Q598 469 568 509.50Q538 550 485.50 573.50Q433 597 352 597L352 597Q282 597 237.50 583Q193 569 167 536Q141 503 125 445L125 445L272 445Q316 445 333.50 430.50Q351 416 351 375L351 375L351 337L373 337L373 359Q373 388 386.50 403Q400 418 435 418L435 418Q471 418 483 396Q495 374 495 348L495 348Q495 307 476.50 278.50Q458 250 425 215L425 215Q441 148 471.50 116.50Q502 85 521 85ZM98 22L122 17L181 104L283 99L296 17L520 17L520 68Q493 68 461 102Q429 136 409 205L409 205Q402 199 391 199L391 199Q375 199 362 207.50Q349 216 349 244L349 244L349 273L368 273L368 236Q368 226 374.50 221.50Q381 217 391 217L391 217Q400 217 414 229.50Q428 242 442 261Q456 280 465.50 300.50Q475 321 475 338L475 338Q475 349 473 363.50Q471 378 463 389Q455 400 435 400L435 400Q406 400 399.50 389Q393 378 393 359L393 359L393 320L331 320L331 378Q331 413 315.50 420.50Q300 428 272 428L272 428L127 428L65 251L134 251L134 273L153 277L153 246L142 234L119 234L110 193L172 193L167 176L109 176L122 126L98 22ZM187 328L187 328Q170 328 157 332Q144 336 138 336L138 336Q132 336 120 330L120 330L113 339L125 351Q144 371 154.50 380.50Q165 390 177 390L177 390Q190 390 210 380L210 380L266 356L287 359L291 347L265 341L252 343Q230 336 212.50 332Q195 328 187 328ZM182 343L182 343Q189 343 193.50 348Q198 353 198 359L198 359Q198 365 195 369L195 369Q186 375 180 375L180 375Q172 375 168 369.50Q164 364 164 359L164 359Q164 343 182 343ZM209 345L209 345Q225 348 238 354L238 354L212 363Q213 361 213 358L213 358Q213 354 212 351Q211 348 209 345ZM139 350L151 347Q150 351 149.50 354Q149 357 149 359L149 359L139 350Z"/></svg>