<svg id="U13126" viewBox="0 0 1153 1000"><path transform="translate(0, 900) scale(1,-1)" d="M1007-18L1007-18Q988-18 967.50-6Q947 6 933 27.50Q919 49 919 77L919 77Q919 96 924 116Q929 136 934 156L934 156Q939 176 943.50 196Q948 216 948 237L948 237Q948 265 934 298.50Q920 332 896.50 363Q873 394 843 412L843 412Q831 417 812 418.50Q793 420 777 420L777 420L676 420L609 94L589 94L657 420L512 420L444 94L425 94L492 420L347 420L280 94L260 94L328 420L183 420L115 94L96 94L163 420L49 420L49 440L167 440L242 802L262 802L187 440L332 440L407 802L426 802L351 440L496 440L571 802L591 802L516 440L661 440L736 802L755 802L680 440L774 440Q850 440 905.50 420Q961 400 999.50 367Q1038 334 1061 294.50Q1084 255 1094 216.50Q1104 178 1104 147L1104 147Q1104 94 1089 57Q1074 20 1052 1Q1030-18 1007-18ZM1007 1L1007 1Q1034 1 1059 39Q1084 77 1084 147L1084 147Q1084 195 1062.50 247Q1041 299 997 342.50Q953 386 883 408L883 408Q916 374 942 332Q968 290 968 237L968 237Q968 216 963 194Q958 172 953 151L953 151Q948 133 943.50 113.50Q939 94 939 77L939 77Q939 43 962 22Q985 1 1007 1Z"/></svg>