<svg id="U1332D" viewBox="0 0 1217 1000"><path transform="translate(0, 900) scale(1,-1)" d="M513-70L494-70L494 417L101 762Q79 781 64 796.50Q49 812 49 828L49 828Q49 845 59.50 851Q70 857 79 857L79 857Q91 857 107 853.50Q123 850 150 839L150 839L494 713L494 885Q494 896 496.50 915Q499 934 508 953.50Q517 973 537 987Q557 1001 591 1001L591 1001Q626 1001 646 988.50Q666 976 675 957Q684 938 686.50 917Q689 896 689 878L689 878L689 641L998 528Q1041 512 1079.50 478.50Q1118 445 1143 403.50Q1168 362 1168 321L1168 321Q1168 301 1162.50 281Q1157 261 1141.50 247.50Q1126 234 1095 233L1095 233Q1070 232 1041 246Q1012 260 988 292.50Q964 325 954 379L954 379Q927 369 872.50 353Q818 337 728 337L728 337Q718 337 708 337Q698 337 689 338L689 338L689 259L670 259L670 340Q616 348 578 365Q540 382 513 401L513 401L513-70ZM513 706L670 648L670 878Q670 898 666 922Q662 946 645.50 963.50Q629 981 591 981L591 981Q563 981 547.50 969.50Q532 958 524.50 942Q517 926 515 911.50Q513 897 513 891L513 891L513 706ZM494 442L494 442L494 692L143 821Q119 830 108 833.50Q97 837 92 837.50Q87 838 82 838L82 838Q77 838 72.50 835.50Q68 833 68 828L68 828Q68 818 79 807Q90 796 112 776L112 776Q219 682 288.50 621Q358 560 399 524.50Q440 489 459.50 472Q479 455 485.50 449.50Q492 444 494 442ZM670 360L670 360L670 627L513 685L513 425Q539 406 576.50 387Q614 368 670 360ZM1094 252L1094 252Q1128 254 1138 276Q1148 298 1148 321L1148 321Q1148 349 1131.50 379Q1115 409 1090 435.50Q1065 462 1038.50 482Q1012 502 991 509L991 509L689 620L689 358Q698 357 708 356.50Q718 356 728 356L728 356Q815 356 871 372.50Q927 389 968 405L968 405Q979 347 1000.50 313.50Q1022 280 1047.50 266Q1073 252 1094 252Z"/></svg>