<svg id="U13142" viewBox="0 0 1363 1000"><path transform="translate(0, 900) scale(1,-1)" d="M184-10L184-10Q181 4 181 21Q181 38 189.50 50Q198 62 218 62L218 62Q229 62 236.50 58Q244 54 248 51L248 51Q256 62 274 62L274 62Q286 62 293.50 58Q301 54 305 51L305 51Q313 62 331 62L331 62Q340 62 346.50 59Q353 56 357 54L357 54Q363 61 372.50 65Q382 69 393 67L393 67Q396 81 400 113Q404 145 399 178L399 178Q397 211 384 260Q371 309 352.50 362Q334 415 315 458L315 458Q314 460 296 478Q278 496 253 525Q228 554 203 587.50Q178 621 161.50 653.50Q145 686 145 710L145 710Q145 749 150.50 770.50Q156 792 161.50 804.50Q167 817 167 828L167 828Q167 843 154 853Q141 863 123 863L123 863Q105 863 85 856.50Q65 850 49 837L49 837L49 897Q49 912 62 929.50Q75 947 89 957L89 957Q93 957 102.50 957.50Q112 958 121 959L121 959Q140 964 160 975.50Q180 987 201 996.50Q222 1006 244 1006L244 1006Q290 1006 319 997.50Q348 989 367 963L367 963Q383 943 387 915.50Q391 888 391 861L391 861L391 830Q408 822 443.50 805.50Q479 789 521.50 768Q564 747 603.50 726Q643 705 667 689L667 689Q703 665 743.50 629.50Q784 594 823.50 555Q863 516 897.50 480Q932 444 958.50 418Q985 392 998 383L998 383Q1010 375 1035.50 359.50Q1061 344 1093 325.50Q1125 307 1157 289Q1189 271 1213.50 256Q1238 241 1248 234L1248 234Q1273 217 1293.50 196Q1314 175 1314 162L1314 162Q1314 145 1305 141Q1296 137 1288 137L1288 137Q1281 137 1263.50 144.50Q1246 152 1232 159L1232 159L1101 226Q1128 207 1158 184.50Q1188 162 1215 140L1215 140Q1237 122 1251.50 106Q1266 90 1267 77L1267 77Q1268 71 1262.50 67.50Q1257 64 1252 64L1252 64Q1248 64 1243 65.50Q1238 67 1234 68L1234 68Q1236 62 1236 58L1236 58Q1236 53 1231.50 47.50Q1227 42 1218 42L1218 42Q1208 42 1200 46L1200 46Q1200 43 1200.50 40.50Q1201 38 1201 36L1201 36Q1201 32 1199.50 27.50Q1198 23 1193 23L1193 23Q1188 23 1179.50 25.50Q1171 28 1164 30L1164 30Q1165 26 1165 20L1165 20Q1165 14 1163.50 9Q1162 4 1158 4L1158 4Q1155 4 1141 11.50Q1127 19 1106.50 30Q1086 41 1065 54Q1044 67 1029 77L1029 77Q1014 87 985 108.50Q956 130 921 156.50Q886 183 851.50 209.50Q817 236 792 257L792 257L635 292Q639 280 638.50 252Q638 224 629 195L629 195L587 221L579 185L572 185Q572 174 569.50 148.50Q567 123 567 98Q567 73 572 62L572 62Q574 58 579 56.50Q584 55 597 55L597 55L647 55Q652 59 661 64Q670 69 683 69L683 69Q706 69 715 53.50Q724 38 725 20Q726 2 725-6L725-6Q710 18 690 18L690 18Q682 18 674.50 11.50Q667 5 662-2L662-2L622-2Q608 1 586 4.50Q564 8 547 8L547 8Q528 8 511 4.50Q494 1 485-2L485-2L406-2Q404 5 399 11.50Q394 18 387 18L387 18Q373 18 368 6Q363-6 363-8L363-8Q354-1 353 11L353 11Q349 13 343.50 14Q338 15 330 15L330 15Q319 15 310 6.50Q301-2 297-10L297-10Q296-5 295.50 0.50Q295 6 294 12L294 12Q290 13 285 14Q280 15 273 15L273 15Q262 15 253.50 6.50Q245-2 241-10L241-10Q238 1 238 12L238 12Q234 13 229 14Q224 15 216 15L216 15Q205 15 196.50 6.50Q188-2 184-10ZM1288 156L1288 156Q1294 156 1294 162L1294 162Q1294 170 1276 187Q1258 204 1237 219L1237 219Q1229 225 1204.50 239Q1180 253 1148.50 271Q1117 289 1084 308Q1051 327 1025 342.50Q999 358 987 366L987 366Q974 375 948 401Q922 427 887.50 462.50Q853 498 813.50 537Q774 576 734 611.50Q694 647 656 672L656 672Q635 686 600.50 705Q566 724 526 744Q486 764 445.50 783Q405 802 372 817L372 817L372 861Q372 886 368.50 910Q365 934 351 952L351 952Q335 972 311 979.50Q287 987 247 987L247 987Q226 987 204 977Q182 967 161 956L161 956L162 937Q164 934 170 925Q176 916 180 908L180 908L165 869Q186 853 186 828L186 828Q186 813 180.50 800.50Q175 788 169.50 768Q164 748 164 710L164 710Q164 682 184 647.50Q204 613 232.50 578Q261 543 288.50 514Q316 485 331 470L331 470Q396 402 441.50 337.50Q487 273 509 220L509 220L523 249L567 209Q569 217 571.50 228Q574 239 575 246L575 246L617 223Q621 240 619 264.50Q617 289 609 313L609 313L805 273Q824 273 857.50 281Q891 289 917 299L917 299Q862 310 800.50 319Q739 328 680.50 340Q622 352 574 370L574 370Q554 378 520.50 395.50Q487 413 449.50 438.50Q412 464 378.50 496Q345 528 324 564.50Q303 601 303 641L303 641Q303 664 315 678Q327 692 344.50 699Q362 706 378 706L378 706L524 706L524 686L378 686Q360 686 341.50 675.50Q323 665 323 641L323 641Q323 604 343.50 569Q364 534 396.50 504Q429 474 465 450.50Q501 427 532 411Q563 395 581 389L581 389Q628 371 689 359.50Q750 348 811 337L811 337Q868 328 925 317.50Q982 307 1024 286L1024 286L1241 177Q1254 170 1269 163Q1284 156 1288 156ZM223 920L223 920Q213 920 206.50 926.50Q200 933 200 943L200 943Q200 953 206.50 959.50Q213 966 223 966L223 966Q232 966 239 959.50Q246 953 246 943L246 943Q246 933 239 926.50Q232 920 223 920ZM223 933L223 933Q232 933 232 943L232 943Q232 953 223 953L223 953Q212 953 212 943L212 943Q212 933 223 933ZM151 876L151 876L163 904L144 932L144 947Q133 943 122 940Q111 937 101 937L101 937L104 907L141 907L139 891L100 892L91 878Q108 883 123 883L123 883Q137 883 151 876ZM68 897L68 875L89 901L84 928Q77 921 72.50 913Q68 905 68 897L68 897ZM437 214L444 184L463 215L479 192Q481 197 483.50 205.50Q486 214 487 219L487 219Q468 264 432.50 318.50Q397 373 349 426L349 426Q372 368 391.50 304Q411 240 417 195L417 195L437 214ZM1151 23L1151 23Q1147 27 1146.50 37Q1146 47 1149 49L1149 49Q1154 52 1163 49.50Q1172 47 1180 42L1180 42Q1179 46 1179 49.50Q1179 53 1179 56L1179 56Q1179 59 1180.50 63.50Q1182 68 1189 68L1189 68Q1194 68 1203 65Q1212 62 1217 61L1217 61Q1210 68 1210 78L1210 78Q1210 84 1214.50 87Q1219 90 1223 90L1223 90Q1231 90 1238.50 86Q1246 82 1247 82L1247 82Q1247 82 1247.50 82.50Q1248 83 1249 84L1249 84Q1241 94 1228.50 105Q1216 116 1201 129L1201 129Q1170 156 1131.50 184.50Q1093 213 1061 236.50Q1029 260 1015 271L1015 271Q999 278 981.50 283.50Q964 289 944 293L944 293Q932 285 910.50 277Q889 269 866 263.50Q843 258 824 256L824 256Q889 204 942 162.50Q995 121 1038 92L1038 92Q1075 67 1104 50.50Q1133 34 1151 23ZM419 17L419 17L481 17Q484 19 502 23Q520 27 547 27L547 27Q564 27 586.50 23.50Q609 20 623 17L623 17L650 17Q654 24 663 32Q672 40 685 40L685 40Q690 40 697 36.50Q704 33 705 31L705 31Q702 39 696.50 45.50Q691 52 682 52L682 52Q672 52 662 46Q652 40 647 35L647 35L597 35Q568 35 559.50 48Q551 61 550 80L550 80Q549 108 550.50 136.50Q552 165 555 195L555 195L530 217L518 197Q522 185 524.50 174.50Q527 164 528 154L528 154L528 66Q528 50 518 42Q508 34 491 34L491 34L421 34Q418 39 410.50 44Q403 49 393 49L393 49Q380 49 375.50 41.50Q371 34 369 28L369 28Q372 31 379.50 32.50Q387 34 391 34L391 34Q402 34 409 28Q416 22 419 17ZM447 53L447 53L491 53Q501 53 504.50 57.50Q508 62 508 75L508 75L508 153Q505 172 496 199L496 199L484 163L474 180Q473 175 468.50 158Q464 141 459 119.50Q454 98 450.50 79.50Q447 61 447 53ZM427 55L427 55Q432 81 440.50 119Q449 157 456 182L456 182L439 158L430 189L419 173Q419 169 419.50 164.50Q420 160 420 155L420 155Q420 125 418.50 109.50Q417 94 415 84.50Q413 75 410 63L410 63Q415 63 419.50 60Q424 57 427 55ZM308 25L308 25Q312 27 318 29.50Q324 32 331 32L331 32Q337 32 342.50 30.50Q348 29 351 28L351 28L351 38Q349 40 344 42.50Q339 45 331 45L331 45Q322 45 316 38.50Q310 32 308 25ZM251 25L251 25Q255 27 261 29.50Q267 32 274 32L274 32Q281 32 287 30Q293 28 295 27L295 27L296 36Q296 37 290.50 41Q285 45 274 45L274 45Q265 45 259 38.50Q253 32 251 25ZM195 25L195 25Q199 27 205 29.50Q211 32 217 32L217 32Q225 32 231 30Q237 28 238 27L238 27L240 36Q239 37 233.50 41Q228 45 217 45L217 45Q208 45 202.50 38.50Q197 32 195 25Z"/></svg>