<svg id="U1339D" viewBox="0 0 588 1000"><path transform="translate(0, 900) scale(1,-1)" d="M294 247L132-3L115 11L282 265L200 392Q192 404 179.50 429Q167 454 167 485L167 485Q167 526 189 557Q211 588 245 601L245 601Q211 615 189 647Q167 679 167 720L167 720Q167 728 167.50 735.50Q168 743 170 750L170 750L49 826Q62 864 93.50 904Q125 944 175.50 972Q226 1000 294 1000L294 1000Q363 1000 413 972Q463 944 495 904Q527 864 539 826L539 826L418 751Q422 738 422 719L422 719Q422 679 400 647Q378 615 343 601L343 601Q377 588 399.50 558Q422 528 422 485L422 485Q422 454 409.50 429Q397 404 389 392L389 392L306 265L474 11L457-3L294 247ZM176 770L176 770Q190 804 222 825Q254 846 294 846L294 846Q333 846 365 825Q397 804 412 770L412 770L514 833Q503 865 474 899.50Q445 934 400 957.50Q355 981 294 981L294 981Q233 981 188 957.50Q143 934 114.50 899.50Q86 865 74 833L74 833Q83 828 102.50 816Q122 804 143 791Q164 778 176 770ZM294 610L294 610Q325 610 349.50 625.50Q374 641 388.50 666Q403 691 403 720L403 720Q403 748 388.50 772.50Q374 797 349 812.50Q324 828 294 828L294 828Q265 828 240 813Q215 798 200.50 773.50Q186 749 186 720L186 720Q186 675 217.50 642.50Q249 610 294 610ZM214 404L294 283L375 404Q383 415 393 438Q403 461 403 485L403 485Q403 513 388 537Q373 561 348.50 576Q324 591 294 591L294 591Q266 591 241 577Q216 563 201 539Q186 515 186 485L186 485Q186 461 196.50 438Q207 415 214 404L214 404Z"/></svg>