<svg id="U1338A" viewBox="0 0 1048 1000"><path transform="translate(0, 900) scale(1,-1)" d="M752 654L732 654L732 882Q732 931 768.50 966Q805 1001 866 1001L866 1001Q925 1001 962.50 967Q1000 933 1000 882L1000 882L1000 654L980 654L980 882Q980 924 947 952.50Q914 981 866 981L866 981Q818 981 785 952Q752 923 752 882L752 882L752 654ZM68 654L49 654L49 882Q49 931 85.50 966Q122 1001 183 1001L183 1001Q242 1001 279 967Q316 933 316 882L316 882L316 654L296 654L296 882Q296 924 263 952.50Q230 981 183 981L183 981Q134 981 101 952Q68 923 68 882L68 882L68 654ZM410 654L391 654L391 882Q391 931 427 966Q463 1001 524 1001L524 1001Q583 1001 620.50 967Q658 933 658 882L658 882L658 654L638 654L638 882Q638 924 605 952.50Q572 981 524 981L524 981Q476 981 443 952Q410 923 410 882L410 882L410 654ZM239 166L220 166L220 394Q220 443 256.50 478Q293 513 354 513L354 513Q413 513 450 479Q487 445 487 394L487 394L487 166L467 166L467 394Q467 435 434 464Q401 493 354 493L354 493Q305 493 272 464Q239 435 239 394L239 394L239 166ZM581 166L562 166L562 394Q562 443 598 478Q634 513 695 513L695 513Q754 513 791.50 479Q829 445 829 394L829 394L829 166L809 166L809 394Q809 435 776 464Q743 493 695 493L695 493Q647 493 614 464Q581 435 581 394L581 394L581 166Z"/></svg>