<svg id="U13313" viewBox="0 0 903 1000"><path transform="translate(0, 900) scale(1,-1)" d="M192 280L192 280Q146 280 113.50 300.50Q81 321 67 337L67 337Q49 357 49 379L49 379Q49 393 57.50 407.50Q66 422 87 422L87 422Q104 422 115 415Q126 408 138 396L138 396Q143 392 155.50 383.50Q168 375 184 375L184 375Q207 375 226 387.50Q245 400 257 414Q269 428 271 432L271 432L633 432Q635 428 647 414Q659 400 677.50 387.50Q696 375 719 375L719 375Q735 375 747.50 383.50Q760 392 765 396L765 396Q778 408 789 415Q800 422 816 422L816 422Q837 422 845.50 407.50Q854 393 854 379L854 379Q854 357 836 337L836 337Q822 321 790 300.50Q758 280 711 280L711 280Q684 280 656.50 295.50Q629 311 613 326L613 326L290 326Q286 321 272.50 310Q259 299 238.50 289.50Q218 280 192 280ZM192 300L192 300Q220 300 244.50 315.50Q269 331 281 346L281 346L333 346L333 413L282 413Q277 405 263 391Q249 377 229 366Q209 355 184 355L184 355Q162 355 147 365.50Q132 376 125 382L125 382Q105 402 90 402L90 402Q78 402 73 393.50Q68 385 68 379L68 379Q68 366 82 350L82 350Q95 336 123.50 318Q152 300 192 300ZM353 413L353 346L442 346L442 413L353 413ZM461 413L461 346L550 346L550 413L461 413ZM711 300L711 300Q752 300 780.50 318Q809 336 822 350L822 350Q835 365 835 379L835 379Q835 385 830.50 393.50Q826 402 814 402L814 402Q804 402 796 397Q788 392 778 382L778 382Q772 376 757 365.50Q742 355 719 355L719 355Q695 355 675 366Q655 377 641 391Q627 405 621 413L621 413L570 413L570 346L622 346Q635 331 659.50 315.50Q684 300 711 300Z"/></svg>