<svg id="U132FC" viewBox="0 0 687 1000"><path transform="translate(0, 900) scale(1,-1)" d="M343-31L343-31Q316-31 308-4Q300 23 300 67L300 67Q300 73 300 87Q300 101 301 120L301 120L318 675L49 675Q49 688 53 716.50Q57 745 68 781.50Q79 818 99.50 856.50Q120 895 152 928Q184 961 231.50 981Q279 1001 343 1001L343 1001Q408 1001 455 981Q502 961 534.50 928Q567 895 587.50 856.50Q608 818 619 781.50Q630 745 634 716.50Q638 688 638 675L638 675L368 675L385 120Q386 101 386 87Q386 73 386 67L386 67Q386 23 378-4Q370-31 343-31ZM69 695L69 695L617 695Q616 711 608 745Q600 779 582.50 819Q565 859 534.50 896Q504 933 457 957Q410 981 343 981L343 981Q276 981 229 957Q182 933 151.50 896Q121 859 103.50 819Q86 779 78.50 745Q71 711 69 695ZM343-12L343-12Q359-12 363 10Q367 32 367 67L367 67Q367 78 366 112.50Q365 147 363.50 197Q362 247 360.50 305Q359 363 357 422Q355 481 353.50 533Q352 585 350.50 622.50Q349 660 349 675L349 675L338 675Q338 660 336.50 622Q335 584 333.50 532.50Q332 481 330 422Q328 363 326.50 305Q325 247 323.50 197Q322 147 321 112.50Q320 78 320 67L320 67Q320 32 323.50 10Q327-12 343-12Z"/></svg>