<svg id="U13271" viewBox="0 0 1044 1000"><path transform="translate(0, 900) scale(1,-1)" d="M996-260L49-260L114-133L202-133L202 686Q202 722 177 762Q152 802 90 831L90 831L90 891L955 891L955 831Q893 802 868 762.50Q843 723 843 688L843 688L843-133L931-133L996-260ZM109 871L109 850L935 850L935 871L109 871ZM221 688L221 688L823 688Q825 723 845 761.50Q865 800 914 831L914 831L130 831Q180 800 200 761.50Q220 723 221 688ZM221 668L221-133L368-133L368 386L677 386L677-133L823-133L823 668L221 668ZM387 367L387-133L657-133L657 367L387 367ZM130-152L85-241L959-241L915-152L130-152Z"/></svg>