<svg id="U147F" viewBox="0 0 741 1000"><path transform="translate(0, 900) scale(1,-1)" d="M301-12L301-12Q187-12 127.50 55.50Q68 123 68 255L68 255L68 714L146 714L146 454Q180 480 217 490Q254 500 299 500L299 500Q372 500 424 468Q476 436 504.50 378.50Q533 321 533 242L533 242Q533 121 473 54.50Q413-12 301-12ZM299 59L299 59Q373 59 414 106.50Q455 154 455 238L455 238Q455 330 412.50 380Q370 430 290 430L290 430Q250 430 217 409.50Q184 389 165 353.50Q146 318 146 273L146 273L146 222Q146 176 165.50 139Q185 102 219.50 80.50Q254 59 299 59ZM643 298L643 298Q618 298 600.50 315.50Q583 333 583 357L583 357Q583 382 600.50 399Q618 416 643 416L643 416Q667 416 684.50 399Q702 382 702 357L702 357Q702 333 684.50 315.50Q667 298 643 298Z"/></svg>