<svg id="U145CD" viewBox="0 0 480 1000"><path transform="translate(0, 900) scale(1,-1)" d="M260 0L221 0L122 148Q88 199 69 263.50Q50 328 50 391L50 391Q50 453 69.50 506Q89 559 130 591.50Q171 624 236 624L236 624L245 624Q309 624 350 590.50Q391 557 410.50 503.50Q430 450 430 388L430 388Q430 324 409.50 259.50Q389 195 358 148L358 148L260 0ZM93 287L93 287L377 508Q359 547 325 570.50Q291 594 240 594L240 594Q185 594 149.50 565.50Q114 537 97 490.50Q80 444 80 388L80 388Q80 363 83 337.50Q86 312 93 287ZM121 206L121 206L398 422Q397 437 394.50 451Q392 465 388 478L388 478L101 255Q106 242 111 230Q116 218 121 206ZM150 155L240 22L331 155Q363 202 381.50 263Q400 324 400 385L400 385L135 179L150 155Z"/></svg>