<svg id="U1467E" viewBox="0 0 64 64"><path transform="translate(0, 57.6) scale(1,-1)" d="M0 52L0-4L64-4L64 52ZM8 48L16 48L16 44L20 44L20 32L16 32L16 28L8 28L8 32L16 32L16 44L8 44L8 32L4 32L4 44L8 44ZM32 48L36 48L36 32L40 32L40 28L28 28L28 32L32 32L32 40L28 40L28 44L32 44ZM44 48L48 48L48 40L56 40L56 48L60 48L60 28L56 28L56 36L44 36ZM8 20L16 20L16 16L8 16L8 12L16 12L16 8L20 8L20 4L16 4L16 0L8 0L8 4L16 4L16 8L8 8L8 4L4 4L4 16L8 16ZM24 20L40 20L40 12L36 12L36 8L32 8L32 0L28 0L28 8L32 8L32 12L36 12L36 16L24 16ZM44 20L60 20L60 16L48 16L48 12L56 12L56 8L48 8L48 4L60 4L60 0L44 0Z"/></svg>