<svg id="U144DD" viewBox="0 0 989 1000"><path transform="translate(0, 900) scale(1,-1)" d="M230-10L230-10Q183-10 142 10.50Q101 31 75.50 66Q50 101 50 143L50 143Q50 163 55.50 184.50Q61 206 77 220.50Q93 235 125 235L125 235Q145 235 155.50 219Q166 203 173.50 181.50Q181 160 193 144Q205 128 227 128L227 128Q250 128 266 145Q282 162 282 195L282 195Q282 224 270.50 257.50Q259 291 244 327Q229 363 217.50 399.50Q206 436 206 470L206 470Q206 552 246 614L246 614Q234 634 223.50 653.50Q213 673 213 701L213 701Q213 731 227.50 753Q242 775 269 775L269 775Q276 775 282 774Q288 773 293 771L293 771Q294 800 308.50 820.50Q323 841 349 841L349 841Q373 841 391 825L391 825L391 828Q391 863 401 893Q411 923 435 941.50Q459 960 499 960L499 960Q529 960 548.50 945.50Q568 931 578.50 909.50Q589 888 593 865Q597 842 598 824L598 824Q606 832 616.50 836.50Q627 841 641 841L641 841Q667 841 681.50 820.50Q696 800 697 771L697 771Q702 773 708 774Q714 775 721 775L721 775Q748 775 762.50 753Q777 731 777 701L777 701Q777 674 766.50 654Q756 634 744 614L744 614Q783 556 783 470L783 470Q783 436 771.50 399.50Q760 363 745 327Q730 291 718.50 257.50Q707 224 707 195L707 195Q707 162 723 145Q739 128 762 128L762 128Q785 128 796.50 144Q808 160 815.50 181.50Q823 203 833.50 219Q844 235 864 235L864 235Q896 235 912 220.50Q928 206 933.50 184.50Q939 163 939 143L939 143Q939 101 913.50 66Q888 31 847 10.50Q806-10 759-10L759-10Q726-10 691-2Q656 6 625.50 25Q595 44 576.50 76Q558 108 558 155L558 155Q558 196 572 233Q586 270 604.50 304.50Q623 339 637 372.50Q651 406 651 442L651 442Q651 485 633.50 521Q616 557 581 578.50Q546 600 494 600L494 600Q442 600 407.50 578.50Q373 557 355.50 521Q338 485 338 442L338 442Q338 406 352 372.50Q366 339 384.50 304.50Q403 270 417 233Q431 196 431 155L431 155Q431 108 412.50 76Q394 44 363.50 25Q333 6 298-2Q263-10 230-10ZM447 725L447 725Q470 728 494 728L494 728Q520 728 544 725L544 725Q553 739 560.50 760Q568 781 568 814L568 814Q568 861 551 894.50Q534 928 498 928L498 928Q462 928 441.50 901.50Q421 875 421 831L421 831Q421 803 428.50 775.50Q436 748 447 725ZM339 714L347 699Q363 706 380 711.50Q397 717 415 721L415 721Q407 736 400 758L400 758Q390 778 378 794.50Q366 811 351 811L351 811Q335 811 329 801.50Q323 792 323 769L323 769Q323 750 332 730L332 730L339 714ZM643 699L643 699Q645 703 647.50 706.50Q650 710 651 714L651 714L658 730Q667 750 667 769L667 769Q667 792 661 801.50Q655 811 639 811L639 811Q624 811 611.50 794Q599 777 589 756L589 756Q586 747 582 738Q578 729 573 721L573 721Q613 713 643 699ZM264 637L264 637Q289 667 323 686L323 686Q317 695 311.50 704.50Q306 714 302 724L302 724Q295 733 287 739Q279 745 271 745L271 745Q255 745 249 735.50Q243 726 243 703L243 703Q243 669 264 637ZM727 638L727 638Q736 653 741.50 670Q747 687 747 703L747 703Q747 726 741 735.50Q735 745 719 745L719 745Q711 745 703 739Q695 733 688 724L688 724Q684 714 678.50 705Q673 696 668 687L668 687Q701 667 727 638ZM228 19L228 19Q305 19 352.50 54.50Q400 90 400 164L400 164Q400 202 386 236Q372 270 354 303Q336 336 322 370.50Q308 405 308 444L308 444Q308 498 331.50 540Q355 582 397 606Q439 630 494 630L494 630Q545 630 587.50 608.50Q630 587 655.50 545.50Q681 504 681 444L681 444Q681 405 667 370.50Q653 336 635 303Q617 270 603 236Q589 202 589 164L589 164Q589 90 637 54.50Q685 19 761 19L761 19Q801 19 835.50 33.50Q870 48 891 77.50Q912 107 912 152L912 152Q912 169 903 187Q894 205 867 205L867 205Q854 205 847.50 194Q841 183 837 167Q833 151 825.50 135.50Q818 120 802.50 109Q787 98 759 98L759 98Q725 98 701 122.50Q677 147 677 187L677 187Q677 225 688.50 260.50Q700 296 715 330Q730 364 741.50 398.50Q753 433 753 468L753 468Q753 571 687 634.50Q621 698 494 698L494 698Q376 698 306 638.50Q236 579 236 468L236 468Q236 433 247.50 398.50Q259 364 274 330Q289 296 300.50 260.50Q312 225 312 187L312 187Q312 147 288.50 122.50Q265 98 230 98L230 98Q202 98 186.50 109Q171 120 164 136Q157 152 152.50 167.50Q148 183 141.50 194Q135 205 122 205L122 205Q95 205 86 187Q77 169 77 152L77 152Q77 107 98 77.50Q119 48 153.50 33.50Q188 19 228 19Z"/></svg>