<svg id="U145EA" viewBox="0 0 650 1000"><path transform="translate(0, 900) scale(1,-1)" d="M154-10L154-10Q126-10 102 2Q78 14 64 45Q50 76 50 131L50 131L50 550L80 550L80 217L230 217L230 550L260 550L260 217L390 217L390 550L420 550L420 217L570 217L570 550L600 550L600 140Q600 55 569.50 22.50Q539-10 494-10L494-10Q466-10 442 2Q418 14 404 45Q390 76 390 131L390 131L390 187L260 187L260 140Q260 55 229.50 22.50Q199-10 154-10ZM154 20L154 20Q186 20 208 46Q230 72 230 139L230 139L230 187L80 187L80 131Q80 70 100.50 45Q121 20 154 20ZM494 20L494 20Q526 20 548 46Q570 72 570 139L570 139L570 187L420 187L420 131Q420 70 440.50 45Q461 20 494 20Z"/></svg>