<svg id="U14454" viewBox="0 0 935 1000"><path transform="translate(0, 900) scale(1,-1)" d="M818-9L818-9Q782-9 765 10.50Q748 30 743 59.50Q738 89 737 120.50Q736 152 731 176L731 176Q727 196 708.50 226Q690 256 668 278L668 278Q677 250 684 218.50Q691 187 691 169L691 169Q691 142 673 121Q655 100 623 100L623 100Q596 100 579.50 119Q563 138 552 168Q541 198 529 232Q517 266 498.50 296Q480 326 448.50 345Q417 364 367 364L367 364Q325 364 282 360.50Q239 357 180 357L180 357Q146 357 116.50 361.50Q87 366 68.50 382Q50 398 50 431L50 431Q50 466 72.50 485.50Q95 505 128.50 513Q162 521 196 521L196 521Q252 521 301 511Q350 501 397 488Q444 475 492 465Q540 455 594 455L594 455Q602 455 616 458.50Q630 462 630 469L630 469Q630 492 612 508.50Q594 525 565.50 536.50Q537 548 505 554Q473 560 443.50 563Q414 566 395 566L395 566Q371 566 339.50 564.50Q308 563 276.50 561.50Q245 560 221 560L221 560Q198 560 172 563Q146 566 122.50 574.50Q99 583 84.50 599Q70 615 70 642L70 642Q70 671 88 688Q106 705 135.50 713.50Q165 722 199 724.50Q233 727 264 727L264 727Q380 727 498 700.50Q616 674 719 608L719 608Q772 574 805 527Q838 480 855.50 430.50Q873 381 879 338Q885 295 885 268L885 268L885 129Q885 102 881 69.50Q877 37 863 14Q849-9 818-9ZM822 28L822 28Q839 28 845.50 48Q852 68 853.50 97Q855 126 855 153L855 153L855 269Q855 307 845 351.50Q835 396 816 440Q797 484 768.50 521.50Q740 559 703 582L703 582Q606 643 490 670Q374 697 255 697L255 697Q245 697 220 696Q195 695 167 691Q139 687 119.50 677.50Q100 668 100 651L100 651Q100 630 113 617.50Q126 605 146 599.50Q166 594 186.50 592Q207 590 221 590L221 590Q246 590 278.50 591.50Q311 593 343.50 594.50Q376 596 399 596L399 596Q421 596 454 593.50Q487 591 522.50 584Q558 577 589.50 563.50Q621 550 640.50 529Q660 508 660 477L660 477Q660 455 649 443.50Q638 432 622.50 428.50Q607 425 591 425L591 425Q537 425 491 435Q445 445 400.50 458.50Q356 472 307.50 482Q259 492 200 492L200 492Q179 492 151 488Q123 484 101.50 471Q80 458 80 432L80 432Q80 414 97 404Q114 394 138.50 390.50Q163 387 184 387L184 387Q209 387 241.50 389Q274 391 305.50 392.50Q337 394 359 394L359 394Q417 394 454.50 375Q492 356 515 326Q538 296 551.50 262Q565 228 574 198Q583 168 592.50 149Q602 130 618 130L618 130Q640 130 650.50 142Q661 154 661 172L661 172Q661 191 655 219.50Q649 248 640.50 275.50Q632 303 624 320L624 320L647 333Q675 309 700.50 282.50Q726 256 744 224.50Q762 193 764 154L764 154Q766 123 767 94Q768 65 779 46.50Q790 28 822 28Z"/></svg>