<svg id="U14612" viewBox="0 0 828 1000"><path transform="translate(0, 900) scale(1,-1)" d="M415-6L415-6Q376-6 343 14Q310 34 290 67Q270 100 270 139L270 139L270 149Q233 132 195 132L195 132Q156 132 123 152Q90 172 70 205Q50 238 50 277L50 277Q50 320 72.50 354.50Q95 389 131 407L131 407Q95 425 72.50 459.50Q50 494 50 537L50 537Q50 577 70 610Q90 643 123 662.50Q156 682 195 682L195 682Q250 682 291 646L291 646Q311 677 343.50 696Q376 715 414 715L414 715Q453 715 485.50 696Q518 677 537 646L537 646Q578 682 633 682L633 682Q673 682 705.50 662.50Q738 643 758 610Q778 577 778 537L778 537Q778 494 755.50 459.50Q733 425 697 407L697 407Q733 389 755.50 354.50Q778 320 778 277L778 277Q778 238 758 205Q738 172 705.50 152Q673 132 633 132L633 132Q594 132 560 149L560 149L560 139Q560 100 540.50 67Q521 34 488 14Q455-6 415-6ZM415 24L415 24Q464 24 497 58Q530 92 530 139L530 139Q530 160 524 178L524 178L549 194Q566 177 588.50 169.50Q611 162 633 162L633 162Q665 162 691 177.50Q717 193 732.50 219.50Q748 246 748 277L748 277Q748 326 714 359Q680 392 633 392L633 392L633 422Q665 422 691 437.50Q717 453 732.50 479.50Q748 506 748 537L748 537Q748 586 714 619Q680 652 633 652L633 652Q596 652 567.50 632.50Q539 613 526 581L526 581L501 598Q508 613 516 624L516 624Q502 651 475 668Q448 685 414 685L414 685Q381 685 353.50 668.50Q326 652 312 624L312 624Q320 613 327 598L327 598L302 581Q289 613 260.50 632.50Q232 652 195 652L195 652Q148 652 114 619Q80 586 80 537L80 537Q80 506 95.50 479.50Q111 453 137.50 437.50Q164 422 195 422L195 422L195 392Q148 392 114 359Q80 326 80 277L80 277Q80 246 95.50 219.50Q111 193 137.50 177.50Q164 162 195 162L195 162Q217 162 242.50 170Q268 178 281 194L281 194L306 178Q305 172 302.50 162.50Q300 153 300 139L300 139Q300 108 315.50 81.50Q331 55 357.50 39.50Q384 24 415 24ZM412 247L366 204L346 225L392 267L340 317L292 272L273 293L320 336L268 386L221 342L203 363L248 405L204 447L223 468L268 424L321 473L275 517L294 538L341 492L394 541L346 588L364 609L415 560L466 608L485 588L434 541L487 491L535 536L554 514L507 471L560 421L606 463L624 443L579 402L624 359L604 338L558 382L506 334L552 290L532 270L485 315L432 266L477 223L458 204L412 247ZM633 476L633 476Q608 476 590 494Q572 512 572 537L572 537Q572 563 590 580.50Q608 598 633 598L633 598Q659 598 676.50 580.50Q694 563 694 537L694 537Q694 512 676.50 494Q659 476 633 476ZM195 476L195 476Q170 476 152 494Q134 512 134 537L134 537Q134 563 152 580.50Q170 598 195 598L195 598Q221 598 238.50 580.50Q256 563 256 537L256 537Q256 512 238.50 494Q221 476 195 476ZM633 502L633 502Q647 502 657.50 512.50Q668 523 668 537L668 537Q668 552 657.50 562.50Q647 573 633 573L633 573Q618 573 607.50 562.50Q597 552 597 537L597 537Q597 523 607.50 512.50Q618 502 633 502ZM195 502L195 502Q210 502 220.50 512.50Q231 523 231 537L231 537Q231 552 220.50 562.50Q210 573 195 573L195 573Q181 573 170.50 562.50Q160 552 160 537L160 537Q160 523 170.50 512.50Q181 502 195 502ZM361 473L413 423L466 471L414 522L361 473ZM288 405L340 355L393 404L341 454L288 405ZM434 403L486 353L538 401L486 451L434 403ZM360 335L412 286L465 334L413 384L360 335ZM195 216L195 216Q170 216 152 234Q134 252 134 277L134 277Q134 303 152 320.50Q170 338 195 338L195 338Q221 338 238.50 320.50Q256 303 256 277L256 277Q256 252 238.50 234Q221 216 195 216ZM633 216L633 216Q608 216 590 234Q572 252 572 277L572 277Q572 303 590 320.50Q608 338 633 338L633 338Q659 338 676.50 320.50Q694 303 694 277L694 277Q694 252 676.50 234Q659 216 633 216ZM195 242L195 242Q210 242 220.50 252.50Q231 263 231 277L231 277Q231 292 220.50 302.50Q210 313 195 313L195 313Q181 313 170.50 302.50Q160 292 160 277L160 277Q160 263 170.50 252.50Q181 242 195 242ZM633 242L633 242Q647 242 657.50 252.50Q668 263 668 277L668 277Q668 292 657.50 302.50Q647 313 633 313L633 313Q618 313 607.50 302.50Q597 292 597 277L597 277Q597 263 607.50 252.50Q618 242 633 242ZM415 78L415 78Q390 78 372 96Q354 114 354 139L354 139Q354 165 372 182.50Q390 200 415 200L415 200Q441 200 458.50 182.50Q476 165 476 139L476 139Q476 114 458.50 96Q441 78 415 78ZM415 104L415 104Q430 104 440.50 114.50Q451 125 451 139L451 139Q451 154 440.50 164.50Q430 175 415 175L415 175Q401 175 390.50 164.50Q380 154 380 139L380 139Q380 125 390.50 114.50Q401 104 415 104Z"/></svg>