<svg id="U144AF" viewBox="0 0 630 1000"><path transform="translate(0, 900) scale(1,-1)" d="M376 0L254 0Q232 0 219.50 13.50Q207 27 202 44.50Q197 62 197 74L197 74L197 138Q197 168 186 184.50Q175 201 160.50 211.50Q146 222 135 232Q124 242 124 258L124 258Q127 265 135 275Q143 285 150.50 295Q158 305 158 311L158 311Q158 313 145.50 319.50Q133 326 116 335Q99 344 83 353.50Q67 363 61 372L61 372L64 390Q71 396 89 410Q107 424 123 440Q139 456 139 469L139 469Q139 479 125.50 488.50Q112 498 94.50 510Q77 522 63.50 540Q50 558 50 586L50 586Q50 624 77.50 655Q105 686 141 699L141 699L162 691Q166 681 168 663Q170 645 173 627Q176 609 183.50 596.50Q191 584 207 584L207 584Q227 584 236.50 599.50Q246 615 250 639.50Q254 664 256.50 692Q259 720 264 744.50Q269 769 280.50 784.50Q292 800 315 800L315 800Q338 800 349.50 784.50Q361 769 366 744.50Q371 720 373.50 692Q376 664 380 639.50Q384 615 393.50 599.50Q403 584 423 584L423 584Q439 584 446.50 596.50Q454 609 457 627Q460 645 462 663Q464 681 468 691L468 691L489 699Q525 686 552.50 655Q580 624 580 586L580 586Q580 558 566.50 540Q553 522 535.50 510Q518 498 504.50 488.50Q491 479 491 469L491 469Q491 456 507 440Q523 424 541 410Q559 396 566 390L566 390L569 372Q563 363 547 353.50Q531 344 514 335Q497 326 484.50 319.50Q472 313 472 311L472 311Q472 305 479.50 295Q487 285 495 275Q503 265 506 258L506 258Q506 242 495 232Q484 222 469.50 211.50Q455 201 444 184.50Q433 168 433 138L433 138L433 74Q433 62 428 44.50Q423 27 411 13.50Q399 0 376 0L376 0ZM262 30L262 30L368 30Q392 30 397.50 47Q403 64 403 76L403 76L403 135Q403 164 417 189Q431 214 473 255L473 255Q465 266 454.50 279Q444 292 444 311L444 311Q444 324 460 334Q476 344 497 354.50Q518 365 532 379L532 379Q498 406 479.50 430.50Q461 455 461 469L461 469Q461 486 474.50 498Q488 510 505 522.50Q522 535 535.50 551Q549 567 549 592L549 592Q549 619 532 636Q515 653 492 664L492 664Q490 642 483.50 617Q477 592 463.50 574.50Q450 557 426 557L426 557Q395 557 379.50 578.50Q364 600 357.50 632Q351 664 347.50 695.50Q344 727 337.50 748.50Q331 770 315 770L315 770Q299 770 292.50 748.50Q286 727 282.50 695.50Q279 664 272.50 632Q266 600 250.50 578.50Q235 557 204 557L204 557Q181 557 167.50 574.50Q154 592 147.50 617Q141 642 138 664L138 664Q115 653 98 636Q81 619 81 592L81 592Q81 567 94.50 551Q108 535 125 522.50Q142 510 155.50 498Q169 486 169 469L169 469Q169 455 151 430.50Q133 406 98 379L98 379Q113 365 133.50 354.50Q154 344 170 334Q186 324 186 311L186 311Q186 292 175.50 279Q165 266 157 255L157 255Q199 214 213 189Q227 164 227 135L227 135L227 76Q227 64 232.50 47Q238 30 262 30Z"/></svg>