<svg id="U14528" viewBox="0 0 713 1000"><path transform="translate(0, 900) scale(1,-1)" d="M432 0L106 0Q72 0 61 18.50Q50 37 50 68L50 68L50 652Q50 684 61 702Q72 720 106 720L106 720L432 720Q467 720 477.50 702Q488 684 488 652L488 652L488 490L621 490Q645 490 654 480.50Q663 471 663 446L663 446L663 354Q663 337 655 328.50Q647 320 622 320L622 320L488 320L488 68Q488 37 477.50 18.50Q467 0 432 0L432 0ZM113 30L113 30L425 30Q444 30 451 37.50Q458 45 458 75L458 75L458 320L408 320L408 158Q408 127 397.50 108.50Q387 90 352 90L352 90L186 90Q152 90 141 108.50Q130 127 130 158L130 158L130 572Q130 604 141 622Q152 640 186 640L186 640L352 640Q387 640 397.50 622Q408 604 408 572L408 572L408 490L458 490L458 645Q458 675 451 682.50Q444 690 425 690L425 690L113 690Q94 690 87 682.50Q80 675 80 645L80 645L80 75Q80 45 87 37.50Q94 30 113 30ZM193 120L193 120L345 120Q364 120 371 127.50Q378 135 378 165L378 165L378 320L282 320Q262 320 253.50 328.50Q245 337 245 353L245 353L245 448Q245 471 253.50 480.50Q262 490 284 490L284 490L378 490L378 565Q378 595 371 602.50Q364 610 345 610L345 610L193 610Q174 610 167 602.50Q160 595 160 565L160 565L160 165Q160 135 167 127.50Q174 120 193 120ZM275 442L275 420L633 420L633 443Q633 460 611 460L611 460L296 460Q275 460 275 442L275 442ZM293 350L293 350L612 350Q626 350 629.50 354.50Q633 359 633 369L633 369L633 390L275 390L275 367Q275 350 293 350Z"/></svg>