<svg id="U1456B" viewBox="0 0 661 1000"><path transform="translate(0, 900) scale(1,-1)" d="M504-7L504-7Q438-7 403 16Q368 39 342 74L342 74Q319 31 277 14Q235-3 192-3L192-3Q155-3 122.50 1Q90 5 70 19.50Q50 34 50 64L50 64Q50 114 61.50 166Q73 218 87.50 267Q102 316 113.50 356.50Q125 397 125 423L125 423L125 534Q125 560 113.50 600.50Q102 641 87.50 690Q73 739 61.50 791.50Q50 844 50 893L50 893Q50 924 70 938Q90 952 122.50 956Q155 960 192 960L192 960Q235 960 277 943.50Q319 927 342 883L342 883Q368 918 403 941Q438 964 504 964L504 964Q550 964 580.50 949Q611 934 611 900L611 900Q611 865 593.50 822.50Q576 780 553 735.50Q530 691 512.50 647Q495 603 495 565L495 565L495 392Q495 354 512.50 310Q530 266 553 221.50Q576 177 593.50 134.50Q611 92 611 57L611 57Q611 23 580.50 8Q550-7 504-7ZM506 23L506 23Q531 23 555 33Q579 43 579 57L579 57Q579 90 562 129Q545 168 522 210.50Q499 253 482 298Q465 343 465 388L465 388L465 569Q465 614 482 659Q499 704 522 746.50Q545 789 562 828Q579 867 579 900L579 900Q579 914 555 924Q531 934 506 934L506 934Q442 934 405 904.50Q368 875 350 836L350 836L326 836Q318 892 277.50 911Q237 930 176 930L176 930Q136 930 107.50 921Q79 912 79 891L79 891Q79 846 90.50 798Q102 750 117 702Q132 654 143.50 609Q155 564 155 523L155 523L155 434Q155 394 143.50 348.50Q132 303 117 255Q102 207 90.50 159Q79 111 79 66L79 66Q79 45 107.50 36Q136 27 176 27L176 27Q237 27 277.50 46Q318 65 326 121L326 121L350 121Q368 82 405 52.50Q442 23 506 23ZM403 652L210 652L210 682L403 682L403 652ZM403 552L210 552L210 582L403 582L403 552ZM403 375L210 375L210 405L403 405L403 375ZM403 275L210 275L210 305L403 305L403 275Z"/></svg>