<svg id="U145FE" viewBox="0 0 596 1000"><path transform="translate(0, 900) scale(1,-1)" d="M80 0L50 0Q52 99 62 196.50Q72 294 110 384L110 384Q113 390 120 402.50Q127 415 133 430Q139 445 139 457L139 457Q139 477 129.50 498.50Q120 520 111 541.50Q102 563 102 582L102 582Q102 605 119 620Q136 635 161.50 645Q187 655 212.50 663Q238 671 255 679L255 679Q302 701 319.50 730Q337 759 343 800L343 800L371 793Q362 739 341 708.50Q320 678 272 655L272 655Q263 651 240.50 643.50Q218 636 193 626.50Q168 617 150 606Q132 595 132 583L132 583Q132 571 141 549.50Q150 528 159 504Q168 480 168 458L168 458Q168 435 158.50 411.50Q149 388 137.50 365Q126 342 118 318L118 318Q94 242 88 161Q82 80 80 0L80 0ZM480 0L452 0Q453 11 453 22Q453 33 453 43L453 43Q453 126 438.50 189.50Q424 253 403 301.50Q382 350 360.50 387.50Q339 425 324.50 455Q310 485 310 512L310 512Q310 542 330.50 563.50Q351 585 379 600.50Q407 616 430 626L430 626Q477 648 494.50 677Q512 706 518 747L518 747L546 740Q537 686 516 655.50Q495 625 447 602L447 602Q438 598 420.50 590Q403 582 384.50 570.50Q366 559 353 544.50Q340 530 340 513L340 513Q340 489 354.50 458Q369 427 390.50 388Q412 349 433 300Q454 251 468.50 190.50Q483 130 483 56L483 56Q483 29 480 0L480 0ZM186 0L156 0L156 230L186 230L186 0ZM276 0L246 0L246 230L276 230L276 0ZM366 0L336 0L336 230L366 230L366 0Z"/></svg>