<svg id="U1458A" viewBox="0 0 839 1000"><path transform="translate(0, 900) scale(1,-1)" d="M363-10L363-10Q249-10 180 33.50Q111 77 80.50 152Q50 227 50 321L50 321Q50 369 71 385.50Q92 402 115 402L115 402Q146 402 171 389.50Q196 377 222 360Q248 343 281.50 330.50Q315 318 363 318L363 318Q416 318 449.50 330Q483 342 505 360.50Q527 379 543.50 399.50Q560 420 577.50 438.50Q595 457 620 469Q645 481 684 481L684 481Q725 481 757 463.50Q789 446 789 404L789 404Q789 368 775 350Q761 332 741 323.50Q721 315 700.50 306.50Q680 298 666 281.50Q652 265 652 231L652 231Q652 160 617.50 105.50Q583 51 518.50 20.50Q454-10 363-10ZM363 20L363 20Q448 20 505.50 48Q563 76 592.50 124.50Q622 173 622 232L622 232Q622 270 636 290Q650 310 670.50 320.50Q691 331 711.50 339.50Q732 348 746 362Q760 376 760 404L760 404Q760 426 744 436Q728 446 709.50 449.50Q691 453 682 453L682 453Q650 453 629.50 441Q609 429 593.50 410.50Q578 392 561 370.50Q544 349 519.50 330.50Q495 312 457.50 300Q420 288 363 288L363 288Q310 288 274 300.50Q238 313 213 330Q188 347 166.50 359.50Q145 372 121 372L121 372Q108 372 94 365Q80 358 80 327L80 327Q80 267 93 211.50Q106 156 137.50 113Q169 70 224 45Q279 20 363 20ZM277 100L247 100L247 209L277 209L277 100ZM377 100L347 100L347 209L377 209L377 100ZM477 100L447 100L447 209L477 209L477 100Z"/></svg>