<svg id="U14531" viewBox="0 0 711 1000"><path transform="translate(0, 900) scale(1,-1)" d="M512-9L488-25L360 147Q337 178 324 193.50Q311 209 298.50 219Q286 229 266 242L266 242Q252 251 228.50 260Q205 269 180 277.50Q155 286 135 294.50Q115 303 109 312L109 312Q102 323 99 344Q96 365 96 388L96 388Q96 414 98 437.50Q100 461 100 465L100 465Q100 522 82 561Q64 600 50 634L50 634L73 652Q122 612 178.50 589Q235 566 296 550L296 550Q311 546 328.50 543.50Q346 541 350 530L350 530Q355 517 357.50 494Q360 471 370 434L370 434Q383 388 414 338.50Q445 289 486 241.50Q527 194 572.50 151.50Q618 109 661 76L661 76L644 57Q593 96 539 147.50Q485 199 438.50 259Q392 319 361 384.50Q330 450 325 517L325 517Q264 526 205.50 545Q147 564 95 598L95 598L109 573Q123 548 126.50 516Q130 484 130 459L130 459Q130 454 129.50 439.50Q129 425 128.50 408.50Q128 392 128 380L128 380Q128 364 129.50 350.50Q131 337 135 332L135 332Q144 323 170 313.50Q196 304 225 295Q254 286 270 276L270 276Q288 266 303.50 254.50Q319 243 338 222.50Q357 202 384 164L384 164L512-9Z"/></svg>