<svg id="U158E" viewBox="0 0 1183 1000"><path transform="translate(0, 900) scale(1,-1)" d="M417 322L417 322Q359 322 330.50 356Q302 390 302 466L302 466L302 500L182 500Q118 500 83.50 530.50Q49 561 49 619L49 619Q49 663 83.50 694.50Q118 726 167 726L167 726Q218 726 251 695.50Q284 665 284 619L284 619Q284 587 267 564L267 564L373 564L373 484Q373 446 381 416Q389 386 419 386L419 386Q469 386 469 454L469 454L469 469L539 469L539 454Q539 384 509 353Q479 322 417 322ZM167 565L167 565Q187 565 200 579Q213 593 213 613L213 613Q213 663 167 663L167 663Q147 663 133 649.50Q119 636 119 614L119 614Q119 594 133 579.50Q147 565 167 565ZM697 0L619 0L619 378Q619 492 639 569.50Q659 647 713.50 686.50Q768 726 870 726L870 726Q968 726 1023.50 693.50Q1079 661 1101.50 595Q1124 529 1124 429L1124 429L1124 411L1046 411L1046 429Q1046 518 1028.50 567Q1011 616 972.50 635.50Q934 655 870 655L870 655Q798 655 761 626.50Q724 598 710.50 542Q697 486 697 405L697 405L697 0ZM872 806L872 806Q833 806 805.50 833.50Q778 861 778 899L778 899Q778 939 806 966Q834 993 872 993L872 993Q911 993 938.50 965.50Q966 938 966 899L966 899Q966 860 938.50 833Q911 806 872 806ZM872 851L872 851Q893 851 907 865.50Q921 880 921 899L921 899Q921 920 907 934Q893 948 872 948L872 948Q852 948 837.50 934Q823 920 823 899L823 899Q823 879 837.50 865Q852 851 872 851Z"/></svg>