<svg id="U16E52" viewBox="0 0 858 1000"><path transform="translate(0, 900) scale(1,-1)" d="M224-11L224-11Q134-11 79.50 38.50Q25 88 25 172L25 172Q25 190 27.50 204Q30 218 34 228L34 228L117 210Q113 195 113 177L113 177Q113 117 146.50 91Q180 65 224 65L224 65Q297 65 339 115.50Q381 166 396 248L396 248Q382 240 364 235.50Q346 231 325 231L325 231Q260 231 224.50 266.50Q189 302 189 352L189 352Q189 402 224 437.50Q259 473 320 473L320 473Q346 473 366 468Q386 463 401 455L401 455Q386 558 338.50 604Q291 650 232 650L232 650Q189 650 157 620.50Q125 591 125 535L125 535Q125 518 129 503L129 503L47 485Q43 495 40.50 507.50Q38 520 38 539L38 539Q38 592 61.50 634Q85 676 127.50 700Q170 724 226 724L226 724Q283 724 329 699.50Q375 675 407.50 632Q440 589 453 534L453 534Q464 590 493.50 633Q523 676 567 700Q611 724 663 724L663 724Q723 724 766.50 700.50Q810 677 834 635Q858 593 858 539L858 539Q858 508 849 483.50Q840 459 826 438L826 438L753 473Q772 505 772 542L772 542Q772 592 741.50 621Q711 650 661 650L661 650Q615 650 584.50 626Q554 602 535 561Q516 520 506 469Q496 418 491 365L491 365Q485 298 472.50 231.50Q460 165 432.50 110Q405 55 355 22Q305-11 224-11ZM258 352L258 352Q258 325 278.50 306.50Q299 288 333 288L333 288Q354 288 372.50 293Q391 298 404 306L404 306Q407 336 407 370L407 370Q407 384 406 397L406 397Q393 406 374 411Q355 416 333 416L333 416Q299 416 278.50 397.50Q258 379 258 352Z"/></svg>