<svg id="U16919" viewBox="0 0 737 1000"><path transform="translate(0, 900) scale(1,-1)" d="M172 17L153-26L107-6L126 38L50 71L70 117L145 84L156 108L81 141L101 187L176 154L184 173Q128 209 96 267Q64 325 64 399L64 399Q64 468 92.50 523Q121 578 170 615L170 615L107 747L153 769L214 641Q282 674 369 674L369 674Q412 674 451 665.50Q490 657 523 641L523 641L585 769L631 747L567 615Q617 578 645.50 523Q674 468 674 399L674 399Q674 325 641.50 267Q609 209 553 173L553 173L562 154L636 187L656 141L582 108L592 84L667 117L687 71L612 38L631-6L585-26L566 18L491-15L471 31L546 64L535 88L460 55L440 101L515 134L508 150Q445 124 369 124L369 124Q292 124 229 150L229 150L222 133L297 101L277 55L202 87L192 63L266 31L246-15L172 17ZM386 563L433 453L501 595Q473 609 439.50 616.50Q406 624 369 624L369 624Q295 624 237 595L237 595L304 454L351 563L386 563ZM459 392L533 221Q575 251 599.50 296.50Q624 342 624 399L624 399Q624 452 603 495Q582 538 544 568L544 568L459 392ZM205 221L205 221L277 391L193 567Q156 538 135 495Q114 452 114 399L114 399Q114 342 138 296.50Q162 251 205 221ZM334 393L369 321Q376 335 385 354Q394 373 404 393L404 393L369 475L334 393ZM369 174L369 174Q434 174 488 197L488 197L430 332L386 239L351 239L307 330L249 197Q303 174 369 174Z"/></svg>