<svg id="U16900" viewBox="0 0 644 1000"><path transform="translate(0, 900) scale(1,-1)" d="M467-65L50-65L50-15L233-15L233 724L50 724L50 774L467 774L467 724L283 724L283 689Q348 684 404.50 656.50Q461 629 503.50 583Q546 537 570 478.50Q594 420 594 354L594 354Q594 287 570 228.50Q546 170 503.50 124.50Q461 79 404.50 52Q348 25 283 20L283 20L283-15L467-15L467-65ZM283 144L283 70Q356 76 415 115Q474 154 509 216.50Q544 279 544 354L544 354Q544 429 509 491Q474 553 415 593Q356 633 283 639L283 639L283 564Q336 558 378 528.50Q420 499 445 453.50Q470 408 470 354L470 354Q470 300 445 254.50Q420 209 378 179.50Q336 150 283 144L283 144ZM283 514L283 195Q322 201 353 223.50Q384 246 402 280Q420 314 420 354L420 354Q420 394 402 428Q384 462 353 485Q322 508 283 514L283 514Z"/></svg>