<svg id="U1600" viewBox="0 0 755 1000"><path transform="translate(0, 900) scale(1,-1)" d="M187 354L187 354L187 357Q143 367 117 394Q91 421 80 457.50Q69 494 69 530L69 530Q69 600 97 640Q125 680 177 697Q229 714 300 714L300 714L687 714L687 649L577 392L687 392L687 321L578 321L687 66L687 0L300 0Q228 0 176.50 18.50Q125 37 97 79Q69 121 69 193L69 193Q69 252 94 294.50Q119 337 187 354ZM312 392L312 392L500 392L603 643L312 643Q260 643 223.50 633.50Q187 624 167.50 597.50Q148 571 148 520L148 520Q148 471 169 443Q190 415 227.50 403.50Q265 392 312 392ZM148 198L148 198Q148 146 167 118.50Q186 91 223 81Q260 71 312 71L312 71L603 71L501 321L312 321Q241 321 194.50 294Q148 267 148 198Z"/></svg>