<svg id="U168DE" viewBox="0 0 957 1000"><path transform="translate(0, 900) scale(1,-1)" d="M479 536L326-43L50 30L62 78L290 17L303 66L76 126L88 174L316 114L329 162L101 223L113 271L341 210L377 345L256 447L263 482L438 609Q416 620 402 642Q388 664 388 692L388 692Q388 731 414.50 758Q441 785 480 785L480 785Q519 785 546 758Q573 731 573 692L573 692Q573 664 558 641.50Q543 619 520 608L520 608L708 469L678 429L529 538L616 210L844 271L856 223L629 162L641 114L870 174L882 126L654 66L667 17L895 78L907 30L632-43L479 536ZM480 650L480 650Q498 650 510.50 662Q523 674 523 692L523 692Q523 710 510.50 722.50Q498 735 480 735L480 735Q462 735 450 722.50Q438 710 438 692L438 692Q438 674 450 662Q462 650 480 650ZM319 461L391 399L429 541L319 461Z"/></svg>