<svg id="U16A2D" viewBox="0 0 563 1000"><path transform="translate(0, 900) scale(1,-1)" d="M281-122L281-122Q236-122 199.50-100.50Q163-79 141.50-43Q120-7 120 36L120 36Q120 76 138 109.50Q156 143 186.50 165.50Q217 188 256 194L256 194L256 328Q207 333 159.50 360.50Q112 388 81 441Q50 494 50 575L50 575L50 585L100 585L100 575Q100 512 122.50 470.50Q145 429 181 406.50Q217 384 256 379L256 379L256 534Q217 540 186.50 562Q156 584 138 617.50Q120 651 120 690L120 690Q120 734 141.50 770.50Q163 807 199.50 828.50Q236 850 281 850L281 850Q326 850 362.50 828.50Q399 807 420.50 770.50Q442 734 442 690L442 690Q442 651 424 617.50Q406 584 375.50 562Q345 540 306 534L306 534L306 379Q346 384 381.50 406.50Q417 429 440 470.50Q463 512 463 575L463 575L463 585L513 585L513 575Q513 494 481.50 441Q450 388 402.50 360.50Q355 333 306 328L306 328L306 194Q345 188 375.50 165.50Q406 143 424 109.50Q442 76 442 36L442 36Q442-7 420.50-43Q399-79 362.50-100.50Q326-122 281-122ZM281 582L281 582Q312 582 337 596.50Q362 611 377 636Q392 661 392 690L392 690Q392 720 377 745Q362 770 337 785Q312 800 281 800L281 800Q235 800 202.50 767.50Q170 735 170 690L170 690Q170 646 202.50 614Q235 582 281 582ZM281-72L281-72Q312-72 337-57.50Q362-43 377-18Q392 7 392 36L392 36Q392 66 377 91Q362 116 337 131Q312 146 281 146L281 146Q235 146 202.50 113.50Q170 81 170 36L170 36Q170-8 202.50-40Q235-72 281-72Z"/></svg>