<svg id="U16905" viewBox="0 0 651 1000"><path transform="translate(0, 900) scale(1,-1)" d="M561-56L90-56L90 764L561 764L561-56ZM140 714L140-6L511-6L511 714L140 714ZM325 584L325 584Q306 584 293.50 596.50Q281 609 281 628L281 628Q281 647 293.50 660Q306 673 325 673L325 673Q344 673 357 660Q370 647 370 628L370 628Q370 609 357 596.50Q344 584 325 584ZM325 401L325 401Q306 401 293.50 413.50Q281 426 281 445L281 445Q281 464 293.50 477Q306 490 325 490L325 490Q344 490 357 477Q370 464 370 445L370 445Q370 426 357 413.50Q344 401 325 401ZM325 218L325 218Q306 218 293.50 230.50Q281 243 281 262L281 262Q281 281 293.50 294Q306 307 325 307L325 307Q344 307 357 294Q370 281 370 262L370 262Q370 243 357 230.50Q344 218 325 218ZM325 35L325 35Q306 35 293.50 47.50Q281 60 281 79L281 79Q281 98 293.50 111Q306 124 325 124L325 124Q344 124 357 111Q370 98 370 79L370 79Q370 60 357 47.50Q344 35 325 35Z"/></svg>