<svg id="U161A" viewBox="0 0 918 1000"><path transform="translate(0, 900) scale(1,-1)" d="M146 260L146 0L68 0L68 714L146 714Q147 482 184 337.50Q221 193 299.50 125.50Q378 58 503 58L503 58Q631 58 701 134Q771 210 771 349L771 349Q771 498 714 576.50Q657 655 549 655L549 655Q374 655 374 500L374 500Q374 438 406.50 402.50Q439 367 496 367L496 367Q521 367 544.50 375Q568 383 580 395L580 395L605 328Q590 315 559 305.50Q528 296 495 296L495 296Q404 296 350 352Q296 408 296 502L296 502Q296 608 363 667Q430 726 549 726L549 726Q695 726 772 629Q849 532 849 348L849 348Q849 235 808 154.50Q767 74 689.50 31Q612-12 503-12L503-12Q366-12 278.50 53Q191 118 146 260L146 260Z"/></svg>