<svg id="U16A43" viewBox="0 0 634 1000"><path transform="translate(0, 900) scale(1,-1)" d="M544 0L454 0L454 287Q415 279 371.50 273.50Q328 268 280 268L280 268Q174 268 112 328Q50 388 50 494L50 494Q50 564 81 615.50Q112 667 168 696Q224 725 298 725L298 725Q339 725 382 713.50Q425 702 462 674Q499 646 521.50 598Q544 550 544 478L544 478L544 0ZM145 497L145 497Q145 425 179.50 386.50Q214 348 284 348L284 348Q325 348 371 354.50Q417 361 454 369L454 369L454 479Q454 544 430 580Q406 616 370 630.50Q334 645 298 645L298 645Q228 645 186.50 606.50Q145 568 145 497Z"/></svg>