<svg id="U16F58" viewBox="0 0 393 1000"><path transform="translate(0, 900) scale(1,-1)" d="M206-15L206-15Q146-15 108.50 14.50Q71 44 71 102L71 102Q71 136 84 159Q97 182 116 198L116 198L0 198L0 258L214 258L214 198L207 198Q185 197 169.50 185Q154 173 146 155L146 155Q175 164 208 164L208 164Q245 164 275.50 153Q306 142 324.50 122Q343 102 343 76L343 76Q343 51 324 30Q305 9 274-3Q243-15 206-15ZM208 37L208 37Q237 37 257 47.50Q277 58 277 74L277 74Q277 92 257 102Q237 112 208 112L208 112Q180 112 160 101.50Q140 91 140 74L140 74Q140 58 160 47.50Q180 37 208 37Z"/></svg>