<svg id="U16A7" viewBox="0 0 525 1000"><path transform="translate(0, 900) scale(1,-1)" d="M182 0L97 0L97 714L182 714L182 626Q325 609 400 548Q475 487 475 367L475 367Q475 289 450.50 237.50Q426 186 384 155.50Q342 125 290 109.50Q238 94 182 88L182 88L182 0ZM182 546L182 164Q247 175 291 193.50Q335 212 357.50 251.50Q380 291 380 364L380 364Q380 453 331.50 493.50Q283 534 182 546L182 546ZM276 303L276 303Q254 303 239 317Q224 331 224 359L224 359Q224 388 239 401.50Q254 415 276 415L276 415Q296 415 311.50 401.50Q327 388 327 359L327 359Q327 331 311.50 317Q296 303 276 303Z"/></svg>