<svg id="U16A66" viewBox="0 0 770 1000"><path transform="translate(0, 900) scale(1,-1)" d="M287 267L287 267Q227 267 175.50 294.50Q124 322 92 373Q60 424 60 494L60 494Q60 564 91 615.50Q122 667 178 696Q234 725 308 725L308 725Q334 725 360 720Q386 715 411 704L411 704L375 632Q343 645 308 645L308 645Q238 645 196.50 606.50Q155 568 155 497L155 497Q155 449 176 415.50Q197 382 228.50 364.50Q260 347 291 347L291 347Q331 347 365 363.50Q399 380 410 430L410 430L410 458L500 458L500 206Q500 143 513 106.50Q526 70 575 70L575 70Q620 70 635 98.50Q650 127 651 182L651 182L740 182Q737 88 696.50 39Q656-10 575-10L575-10Q487-10 448.50 47Q410 104 410 207L410 207L410 297Q389 282 360 274.50Q331 267 287 267Z"/></svg>