<svg id="U16F92" viewBox="0 0 834 1000"><path transform="translate(0, 900) scale(1,-1)" d="M784 602L743 602L743 676L670 676L670 717L784 717L784 602ZM625 676L522 676L522 717L625 717L625 676ZM479 676L357 676L357 717L479 717L479 676ZM91 602L50 602L50 717L164 717L164 676L91 676L91 602ZM312 676L209 676L209 717L312 717L312 676ZM422 576L422 576Q405 576 405 593L405 593Q405 609 422 609L422 609Q438 609 438 593L438 593Q438 576 422 576ZM364 564L364 564Q347 564 347 581L347 581Q347 597 364 597L364 597Q380 597 380 581L380 581Q380 564 364 564ZM480 564L480 564Q463 564 463 581L463 581Q463 597 480 597L480 597Q496 597 496 581L496 581Q496 564 480 564ZM314 532L314 532Q297 532 297 549L297 549Q297 565 314 565L314 565Q330 565 330 549L330 549Q330 532 314 532ZM529 531L529 531Q512 531 512 548L512 548Q512 564 529 564L529 564Q545 564 545 548L545 548Q545 531 529 531ZM784 455L743 455L743 557L784 557L784 455ZM91 455L50 455L50 557L91 557L91 455ZM282 481L282 481Q265 481 265 498L265 498Q265 514 282 514L282 514Q298 514 298 498L298 498Q298 481 282 481ZM562 481L562 481Q545 481 545 498L545 498Q545 514 562 514L562 514Q578 514 578 498L578 498Q578 481 562 481ZM270 424L270 424Q253 424 253 441L253 441Q253 457 270 457L270 457Q286 457 286 441L286 441Q286 424 270 424ZM574 424L574 424Q557 424 557 441L557 441Q557 457 574 457L574 457Q590 457 590 441L590 441Q590 424 574 424ZM91 307L50 307L50 409L91 409L91 307ZM784 307L743 307L743 409L784 409L784 307ZM282 366L282 366Q265 366 265 383L265 383Q265 399 282 399L282 399Q298 399 298 383L298 383Q298 366 282 366ZM562 366L562 366Q545 366 545 383L545 383Q545 399 562 399L562 399Q578 399 578 383L578 383Q578 366 562 366ZM314 316L314 316Q297 316 297 333L297 333Q297 349 314 349L314 349Q330 349 330 333L330 333Q330 316 314 316ZM529 316L529 316Q512 316 512 333L512 333Q512 349 529 349L529 349Q545 349 545 333L545 333Q545 316 529 316ZM364 284L364 284Q347 284 347 301L347 301Q347 317 364 317L364 317Q380 317 380 301L380 301Q380 284 364 284ZM480 283L480 283Q463 283 463 300L463 300Q463 316 480 316L480 316Q496 316 496 300L496 300Q496 283 480 283ZM422 272L422 272Q405 272 405 289L405 289Q405 305 422 305L422 305Q438 305 438 289L438 289Q438 272 422 272ZM91 160L50 160L50 262L91 262L91 160ZM784 160L743 160L743 262L784 262L784 160ZM441 77L401 77L401 210L353 210L353 244L489 244L489 210L441 210L441 77ZM164 0L50 0L50 114L91 114L91 42L164 42L164 0ZM784 0L670 0L670 42L743 42L743 114L784 114L784 0ZM625 0L522 0L522 42L625 42L625 0ZM479 0L357 0L357 42L479 42L479 0ZM312 0L209 0L209 42L312 42L312 0Z"/></svg>