<svg id="U16868" viewBox="0 0 862 1000"><path transform="translate(0, 900) scale(1,-1)" d="M322 9L74-56L50-32L132 153Q101 198 84 250Q67 302 67 363L67 363Q67 425 84.50 477.50Q102 530 132 573L132 573L50 759L75 784L321 719L330 686Q271 649 222.50 602Q174 555 145.50 496Q117 437 117 363L117 363Q117 289 144.50 232.50Q172 176 220 130.50Q268 85 331 42L331 42L322 9ZM812-32L787-56L539 9L530 42Q592 83 640 129.50Q688 176 716 233.50Q744 291 744 364L744 364Q744 438 715 497Q686 556 637.50 602.50Q589 649 530 686L530 686L539 719L787 784L812 759L729 573Q758 530 776 478Q794 426 794 364L794 364Q794 302 776.50 250Q759 198 729 155L729 155L812-32ZM122 721L168 618Q185 638 205 655Q225 672 246 688L246 688L122 721ZM694 617L694 617L740 720L615 687Q636 672 656 654.50Q676 637 694 617ZM456 92L406 92L406 192Q361 198 326 224L326 224L254 154L220 190L291 260Q265 294 259 339L259 339L158 339L158 389L259 389Q265 433 291 468L291 468L220 539L256 575L326 504Q343 517 363.50 525.50Q384 534 406 537L406 537L406 637L456 637L456 537Q478 534 498 525.50Q518 517 535 504L535 504L606 575L642 539L571 468Q584 451 592.50 431Q601 411 604 389L604 389L703 389L703 339L604 339Q598 294 572 260L572 260L642 190L606 154L535 224Q500 198 456 192L456 192L456 92ZM431 240L431 240Q466 240 494 256.50Q522 273 539 301.50Q556 330 556 364L556 364Q556 399 539 427Q522 455 494 472Q466 489 431 489L431 489Q397 489 368.50 472Q340 455 323.50 427Q307 399 307 364L307 364Q307 330 323.50 301.50Q340 273 368.50 256.50Q397 240 431 240ZM431 327L431 327Q416 327 405 338Q394 349 394 364L394 364Q394 379 405 390Q416 401 431 401L431 401Q446 401 457 390Q468 379 468 364L468 364Q468 349 457 338Q446 327 431 327ZM613 41L740 8L693 111Q655 70 613 41L613 41ZM167 109L122 7L246 40Q224 56 204 73Q184 90 167 109L167 109Z"/></svg>