<svg id="U160E" viewBox="0 0 886 1000"><path transform="translate(0, 900) scale(1,-1)" d="M438-12L438-12Q251-12 160 79.50Q69 171 69 360L69 360L69 714L147 714L147 364Q147 207 217.50 133Q288 59 438 59L438 59Q587 59 662.50 138Q738 217 738 371L738 371Q738 655 526 655L526 655Q440 655 394 615.50Q348 576 348 500L348 500Q348 430 382 393.50Q416 357 480 357L480 357Q509 357 539.50 366.50Q570 376 588 391L588 391L613 323Q594 307 555.50 296Q517 285 479 285L479 285Q382 285 326 343Q270 401 270 501L270 501Q269 605 337.50 665.50Q406 726 525 726L525 726Q670 726 744 636.50Q818 547 818 371L818 371Q818 184 721 86Q624-12 438-12Z"/></svg>