<svg id="U16E53" viewBox="0 0 946 1000"><path transform="translate(0, 900) scale(1,-1)" d="M227-11L227-11Q172-11 126 11Q80 33 52.50 75Q25 117 25 175L25 175Q25 189 27.50 203.50Q30 218 34 228L34 228L115 210Q113 202 112 193.50Q111 185 111 178L111 178Q111 119 145.50 91Q180 63 236 63L236 63Q308 63 357 120.50Q406 178 425 269L425 269Q385 269 340 268.50Q295 268 263 266L263 266L260 329Q294 331 343 331.50Q392 332 434 332L434 332Q436 355 436 379L436 379Q436 396 435 413L435 413Q393 413 345 412.50Q297 412 263 410L263 410L260 473Q292 475 338.50 475.50Q385 476 426 476L426 476Q408 562 359.50 606Q311 650 248 650L248 650Q196 650 162.50 619Q129 588 129 534L129 534Q129 515 135 500Q141 485 148 473L148 473L73 438Q57 460 49.50 486Q42 512 42 535L42 535Q42 593 68 635Q94 677 138 700.50Q182 724 237 724L237 724Q327 724 389.50 671.50Q452 619 478 535L478 535Q497 586 530 629Q563 672 610.50 698Q658 724 719 724L719 724Q775 724 820.50 702Q866 680 893.50 638.50Q921 597 921 538L921 538Q921 524 918.50 509.50Q916 495 912 485L912 485L831 503Q833 511 834 519.50Q835 528 835 535L835 535Q835 594 800.50 622Q766 650 710 650L710 650Q644 650 597 600Q550 550 528 476L528 476Q558 476 593.50 475.50Q629 475 658 474.50Q687 474 699 473L699 473L702 410Q689 411 656 411.50Q623 412 583.50 412.50Q544 413 514 413L514 413Q510 381 510 348L510 348Q510 340 510 332L510 332Q540 332 579.50 331.50Q619 331 652.50 330.50Q686 330 699 329L699 329L702 266Q689 267 656 267.50Q623 268 584 268.50Q545 269 515 269L515 269Q530 163 580.50 113Q631 63 698 63L698 63Q751 63 784 94Q817 125 817 179L817 179Q817 198 811 213Q805 228 798 240L798 240L873 275Q890 253 897 227Q904 201 904 178L904 178Q904 120 878 78Q852 36 808 12.50Q764-11 709-11L709-11Q619-11 556.50 41.50Q494 94 468 178L468 178Q449 127 416 84Q383 41 335.50 15Q288-11 227-11Z"/></svg>