<svg id="U169ED" viewBox="0 0 607 1000"><path transform="translate(0, 900) scale(1,-1)" d="M483-29L90-29L90 411L205 411L205 489L90 489L90 539L148 539Q189 539 233.50 540.50Q278 542 318 547L318 547Q319 621 338 661Q357 701 384.50 717Q412 733 438 733L438 733Q474 733 495.50 708Q517 683 517 642L517 642Q517 586 474.50 552.50Q432 519 368 504L368 504L368 411L483 411L483-29ZM368 556L368 556Q412 566 439.50 588Q467 610 467 644L467 644Q467 664 457.50 673.50Q448 683 434 683L434 683Q422 683 407.50 672Q393 661 381.50 633.50Q370 606 368 556ZM255 491L255 411L318 411L318 496Q302 495 286.50 493.50Q271 492 255 491L255 491ZM140 361L140 21L433 21L433 361L368 361L368 276L318 276L318 361L255 361L255 276L205 276L205 361L140 361Z"/></svg>