<svg id="U16B43" viewBox="0 0 729 1000"><path transform="translate(0, 900) scale(1,-1)" d="M277-11L277-11Q169-11 124.50 51.50Q80 114 80 233L80 233L80 294L170 294L170 232Q170 183 178 147Q186 111 210.50 91Q235 71 282 71L282 71Q323 71 345.50 88Q368 105 378 134L378 134Q296 149 262 211.50Q228 274 228 371L228 371L228 514L315 514L315 366Q315 310 329 266.50Q343 223 389 210L389 210Q389 215 389.50 220.50Q390 226 390 231L390 231L390 714L480 714L480 514L651 514L651 434L480 434L480 231Q480 227 479.50 222Q479 217 479 212L479 212Q517 223 529 255Q541 287 541 344L541 344L628 344Q628 250 591.50 195.50Q555 141 469 131L469 131Q453 64 407 26.50Q361-11 277-11Z"/></svg>