<svg id="U179F8" viewBox="0 0 1000 1000"><path transform="translate(0, 900) scale(1,-1)" d="M847 574L887 626L965 560Q959 545 938 544L938 544L823 544L823 475Q822 467 790 458L790 458Q777 454 768 454L768 454L758 454L758 544L630 544L630 472Q629 464 597 455L597 455Q584 451 575 451L575 451L565 451L565 544L491 544L489 551L489-56Q488-64 456-73L456-73Q443-77 434-77L434-77L424-77L424 792L525 781Q518 758 489 753L489 753L489 574L565 574L565 672L642 664Q689 705 721 744L721 744L561 744L552 774L728 774L761 813L845 748Q832 733 802 728L802 728Q743 682 630 622L630 622L630 574L758 574L758 659L859 648Q852 625 823 620L823 620L823 574L847 574ZM316 750L316 750Q231 580 105 483L105 483L92 494Q189 611 250 806L250 806L353 765Q346 752 330 750L330 750Q324 749 316 750ZM253 209L253 209Q291 287 320 378L320 378L422 333Q412 320 395 318L395 318Q394 318 390 318L390 318Q384 319 382 319L382 319Q345 228 294 154L294 154Q381 28 369-43L369-43Q364-73 340-78L340-78Q333-79 327-77L327-77Q314-71 301-59L301-59Q293 10 256 102L256 102Q176 1 60-81L60-81L47-68Q151 25 228 163L228 163Q197 226 160 281L160 281Q128 252 87 222L87 222L76 234Q202 366 290 596L290 596L388 552Q379 540 363 538L363 538Q355 538 350 539L350 539Q272 391 176 297L176 297Q220 251 253 209ZM814 218L803 218L803 254L555 254L546 284L803 284L803 378L560 378L551 408L793 408L832 450L912 386Q902 374 871 367L871 367L871 243Q870 234 840 223L840 223Q825 218 814 218L814 218ZM908 125L909-2Q937-16 939-30L939-30Q939-69 850-74L850-74Q840-75 831-75L831-75Q769-75 756-52L756-52Q749-38 749-10L749-10L749 132L647 132L647-54Q646-62 614-71L614-71Q601-75 592-75L592-75L582-75L582 195L606 185L658 162L738 162L774 201L855 140Q841 127 814 121L814 121L814 14Q814-14 818-17L818-17Q821-19 824-19L824-19L825-20Q840-19 846-17L846-17Q856-10 862 4L862 4Q877 40 891 125L891 125L908 125Z"/></svg>