<svg id="U176A" viewBox="0 0 853 1000"><path transform="translate(0, 900) scale(1,-1)" d="M374-1L374-1Q315-1 257.50 16Q200 33 153 66.50Q106 100 78 148.50Q50 197 50 261L50 261Q50 328 80.50 389Q111 450 167.50 498Q224 546 302 574Q380 602 475 602L475 602Q541 602 600 584Q659 566 705 532Q751 498 777 450.50Q803 403 803 343L803 343Q803 281 771.50 220Q740 159 682.50 109Q625 59 546.50 29Q468-1 374-1ZM374 67L374 67Q452 67 516.50 91Q581 115 628 155Q675 195 700.50 244Q726 293 726 342L726 342Q726 402 692 445Q658 488 601.50 511Q545 534 475 534L475 534Q400 534 336.50 512.50Q273 491 226 453.50Q179 416 153 366.50Q127 317 127 261L127 261Q127 213 148.50 177Q170 141 205.50 116.50Q241 92 285 79.50Q329 67 374 67Z"/></svg>