<svg id="U17587" viewBox="0 0 1000 1000"><path transform="translate(0, 900) scale(1,-1)" d="M788 441L838 506L931 427Q925 412 904 411L904 411L544 411L519 390L463 444Q485 456 517 462L517 462L787 619L502 619L493 649L663 649Q712 731 760 830L760 830L862 795Q849 777 822 780L822 780Q771 715 698 649L698 649L789 649L818 686L908 612Q896 600 868 599L868 599L582 441L788 441ZM498 823L509 828Q605 793 621 736L621 736Q630 701 606 685L606 685Q582 670 557 695L557 695Q551 758 498 823L498 823ZM110 776L341 776L380 818L460 754Q450 742 419 735L419 735L419 577Q418 568 388 557L388 557Q373 552 362 552L362 552L351 552L351 582L114 582L105 612L351 612L351 746L119 746L110 776ZM279 102L279 102Q302 123 390 235L390 235Q414 266 433 289L433 289L455 272Q369 159 335 79L335 79Q331 69 329 62L329 62Q317 19 320-7L320-7Q310-33 264-64L264-64Q238-82 223-84L223-84Q224-22 218 35L218 35Q208 126 176 222L176 222Q134 201 86 185L86 185L78 199Q230 287 314 416L314 416Q321 427 327 437L327 437L125 437L116 466L324 466L355 505L442 443Q430 431 402 430L402 430Q341 321 212 243L212 243Q254 178 278 105L278 105Q279 103 279 102ZM750-84L740-84L740 341L841 330Q834 307 805 302L805 302L805-63Q804-71 772-80L772-80Q759-84 750-84L750-84ZM537 232L537 336L636 325Q631 302 604 296L604 296Q602 296 602 296L602 296L602 219Q602 71 528-38L528-38Q508-66 486-88L486-88L473-77Q533 18 537 193L537 193Q537 212 537 232L537 232Z"/></svg>