<svg id="U17BD5" viewBox="0 0 1000 1000"><path transform="translate(0, 900) scale(1,-1)" d="M323 782L323 575Q382 653 418 739L418 739L512 689Q503 676 489 675L489 675Q479 675 474 677L474 677Q431 605 373 543L373 543Q460 499 494 459L494 459Q503 448 504 441L504 441Q449 331 323 231L323 231L323-54Q322-62 290-71L290-71Q277-75 268-75L268-75L258-75L258 185Q155 120 60 91L60 91L53 106Q173 167 258 237L258 237L258 443Q180 387 80 342L80 342L71 357Q174 417 258 501L258 501L258 821L359 810Q352 787 323 782L323 782ZM915 152L916 0Q945-15 947-29L947-29Q946-75 788-75L788-75Q724-75 710-50L710-50Q703-35 703-5L703-5L703 722L598 722L598-54Q597-62 565-71L565-71Q552-75 543-75L543-75L533-75L533 785L557 775L609 752L692 752L728 791L809 730Q795 717 768 711L768 711L768 326Q816 413 846 540L846 540L948 506Q938 493 924 491L924 491Q917 489 911 490L911 490Q858 371 768 290L768 290L768 18Q768-14 777-18L777-18Q780-19 783-19L783-19Q838-19 847-16L847-16Q859-10 866 5L866 5Q880 39 899 152L899 152L915 152ZM157 576L157 576Q153 616 132 655L132 655Q119 681 89 716L89 716L99 726Q157 700 193 667L193 667Q232 629 233 594L233 594Q232 565 204 558L204 558Q199 557 194 557L194 557Q171 560 157 576ZM426 450L426 450Q423 472 367 519L367 519Q362 523 357 527L357 527Q335 505 323 495L323 495L323 299Q389 372 426 450Z"/></svg>