<svg id="U17A94" viewBox="0 0 1000 1000"><path transform="translate(0, 900) scale(1,-1)" d="M288 763L288 763Q212 590 91 485L91 485L78 496Q168 615 219 815L219 815L325 780Q316 766 302 764L302 764Q295 762 288 763ZM808 375L808 375Q747 314 681 272L681 272Q710 207 753 152L753 152Q792 214 821 280L821 280L917 225Q907 213 890 214L890 214Q886 214 878 216L878 216Q842 155 797 102L797 102Q864 35 951-12L951-12L949-23Q907-23 882-74L882-74Q805-16 754 57L754 57Q674-21 562-76L562-76L551-62Q647 5 722 108L722 108Q683 180 662 261L662 261Q629 241 585 221L585 221L575 236Q681 303 768 416L768 416Q737 450 712 484L712 484Q679 459 639 435L639 435L628 448Q658 473 691 514L691 514Q660 560 632 616L632 616Q697 703 732 814L732 814L819 781Q813 767 797 766L797 766Q792 765 782 767L782 767Q742 684 674 611L674 611Q695 579 718 553L718 553Q762 620 790 698L790 698L886 662Q879 650 864 646L864 646Q853 646 847 647L847 647Q804 571 751 518L751 518Q787 484 806 469L806 469Q835 514 860 562L860 562L953 520Q945 507 931 506L931 506Q924 505 914 508L914 508Q885 465 857 431L857 431Q904 397 972 358L972 358L970 347Q924 340 909 295L909 295Q855 331 808 375ZM628 711L325 711L316 741L522 741L568 801L655 727Q649 712 628 711L628 711ZM567 149L567-14Q566-22 534-31L534-31Q521-35 512-35L512-35L502-35L502 149L426 149L426-54Q425-62 393-71L393-71Q380-75 371-75L371-75L361-75L361 149L290 149L281 179L361 179L361 358L296 358L287 388L361 388L361 628L379 621L437 595L491 595L527 634L608 573Q594 560 567 554L567 554L567 388L584 388L616 432L682 374Q676 359 655 358L655 358L567 358L567 179L589 179L620 222L686 165Q680 150 659 149L659 149L567 149ZM208 209L208 209Q238 281 258 350L258 350L361 307Q351 293 334 292L334 292Q332 292 321 292L321 292Q291 215 249 147L249 147Q326 22 310-46L310-46Q303-77 277-79L277-79Q272-79 266-77L266-77Q253-71 241-57L241-57Q238 10 212 91L212 91Q140-6 40-83L40-83L26-71Q119 24 186 161L186 161Q165 215 134 268L134 268Q98 232 65 207L65 207L52 219Q167 349 242 578L242 578L342 537Q333 525 318 523L318 523L305 523Q234 377 149 285L149 285Q178 251 208 209ZM502 565L426 565L426 388L502 388L502 565ZM426 358L426 179L502 179L502 358L426 358Z"/></svg>