<svg id="U17019" viewBox="0 0 1000 1000"><path transform="translate(0, 900) scale(1,-1)" d="M797 759L847 824L940 745Q934 730 913 729L913 729L71 729L62 759L797 759ZM362 641L533 641L579 701L666 627Q660 612 639 611L639 611L371 611L362 641ZM885 218L886-2Q922-14 923-31L923-31Q923-59 887-68L887-68Q855-75 773-75L773-75Q703-75 688-46L688-46Q680-30 680-3L680-3L680 679L784 667Q779 645 747 639L747 639L747 312Q814 381 845 458L845 458L922 401Q914 389 899 388L899 388Q895 388 884 390L884 390Q835 326 747 281L747 281L747 14Q747-13 762-16L762-16Q766-17 770-17L770-17Q804-17 809-15L809-15Q822-10 829 7L829 7Q841 37 869 218L869 218L885 218ZM246 374L273 374L305 417L370 360Q364 345 343 344L343 344L246 344L246-51Q245-59 214-69L214-69Q202-72 193-72L193-72L183-72L183 344L94 344L85 374L183 374L183 600L105 600L96 630L254 630L285 673L350 616Q344 601 323 600L323 600L246 600L246 374ZM463 517L525 517L561 556L642 495Q628 482 601 476L601 476L601-56Q600-64 568-73L568-73Q555-77 546-77L546-77L536-77L536 156L452 156L452-49Q451-57 419-66L419-66Q406-70 397-70L397-70L387-70L387 550L405 542L463 517ZM536 353L536 487L452 487L452 353L536 353ZM452 323L452 186L536 186L536 323L452 323Z"/></svg>