<svg id="U179B" viewBox="0 0 928 1000"><path transform="translate(0, 900) scale(1,-1)" d="M305 519L305 519Q190 519 190 428L190 428L190 219Q236 219 266 194Q296 169 296 113L296 113Q296 61 266 30.50Q236 0 192 0L192 0L164 0Q137 0 117.50 15Q98 30 98 60L98 60L98 428Q98 586 305 586L305 586Q513 586 513 428L513 428L513 158Q513 67 625 67L625 67Q738 67 738 158L738 158L738 394Q707 433 692 451Q677 469 673 477Q669 485 669 491L669 491Q669 497 674 505.50Q679 514 692.50 532.50Q706 551 733 586L733 586L854 586L854 519L733 519L733 518L830 410L830 158Q830 0 625 0L625 0Q421 0 421 158L421 158L421 428Q421 519 305 519ZM190 151L190 67Q234 67 234 112L234 112Q234 150 190 151L190 151Z"/></svg>