<svg id="U17AC0" viewBox="0 0 1000 1000"><path transform="translate(0, 900) scale(1,-1)" d="M247 772L247 772Q195 594 83 478L83 478L69 488Q153 624 177 822L177 822L284 791Q274 776 260 773L260 773Q256 772 247 772ZM539 411L578 462L654 397Q648 382 627 381L627 381L299 381L290 411L419 411L419 518L324 518L315 548L419 548L419 815L520 804Q513 781 484 776L484 776L484 548L514 548L552 599L628 534Q622 519 601 518L601 518L484 518L484 411L539 411ZM921 535L921 535Q960 485 953 445L953 445Q946 415 920 415L920 415Q914 415 910 416L910 416Q894 420 882 435L882 435Q879 462 879 463L879 463L662 463L637 442L581 496Q603 508 635 514L635 514L734 729L626 729L617 759L737 759L764 794L849 722Q837 710 809 709L809 709L750 602Q776 583 802 557L802 557Q822 534 820 510L820 510Q818 499 816 493L816 493L874 493Q859 553 816 612L816 612L828 621Q884 581 921 535ZM512 589L492 597Q517 660 539 742L539 742L641 709Q627 690 601 693L601 693Q561 635 512 589L512 589ZM330 616L330 616Q332 674 295 730L295 730L307 734Q389 700 399 649L399 649Q405 615 380 601L380 601Q354 586 330 616ZM195 218L195 218Q219 282 238 361L238 361L341 320Q331 306 315 304L315 304Q313 304 302 304L302 304Q274 222 237 155L237 155Q319 18 293-49L293-49Q281-81 255-77L255-77Q251-76 248-75L248-75Q234-69 224-55L224-55Q226 10 202 97L202 97Q135-2 44-79L44-79L30-68Q117 30 176 169L176 169Q152 226 118 280L118 280Q88 247 52 217L52 217L40 227Q162 374 218 618L218 618L323 582Q315 568 299 565L299 565L286 565Q228 405 133 296L133 296Q168 255 195 218ZM740 583L690 493L763 493Q758 549 740 583L740 583ZM727 326L797 326L833 365L914 304Q900 291 873 285L873 285L873-58Q872-66 840-75L840-75Q827-79 818-79L818-79L808-79L808 296L716 296L716-53Q715-61 683-70L683-70Q670-74 661-74L661-74L651-74L651 359L665 354L727 326ZM423 282L492 282L528 321L609 260Q595 247 568 241L568 241L568-58Q567-66 535-75L535-75Q522-79 513-79L513-79L503-79L503 252L412 252L412-53Q411-61 379-70L379-70Q366-74 357-74L357-74L347-74L347 315L423 282Z"/></svg>