<svg id="U17B43" viewBox="0 0 1000 1000"><path transform="translate(0, 900) scale(1,-1)" d="M962 575L963 563Q922 544 912 493L912 493Q911 487 910 482L910 482Q663 522 485 697L485 697Q293 523 27 458L27 458L20 474Q290 574 497 820L497 820L583 758Q572 747 558 750L558 750Q549 751 543 754L543 754Q537 748 526 737L526 737Q514 725 509 719L509 719Q693 588 962 575L962 575ZM591 598L672 528Q666 513 645 512L645 512L274 512L265 542L548 542L591 598ZM338 453L606 453L642 492L723 431Q709 418 682 412L682 412L682 242Q681 234 649 225L649 225Q636 221 627 221L627 221L617 221L617 289L495 289L547 241Q534 231 522 235L522 235Q515 237 506 244L506 244Q376 159 234 143L234 143L229 158Q345 188 468 289L468 289L327 289L327 243Q326 235 294 226L294 226Q281 222 272 222L272 222L262 222L262 486L282 476L338 453ZM180 409L180 17Q179 9 147 0L147 0Q134-4 125-4L125-4L115-4L115 448L216 437Q209 414 180 409L180 409ZM765-74L755-74L755 436L856 425Q849 402 820 397L820 397L820-53Q819-61 787-70L787-70Q774-74 765-74L765-74ZM617 385L617 423L327 423L327 385L617 385ZM327 355L327 319L617 319L617 355L327 355ZM691 91L691 91Q681 93 674 99L674 99Q639 76 591 50L591 50Q674 19 698-20L698-20Q715-51 693-68L693-68Q689-70 685-72L685-72Q671-76 654-74L654-74Q603-25 524 17L524 17Q323-71 89-73L89-73L86-56Q279-42 463 46L463 46Q413 67 377 77L377 77Q299 55 221 51L221 51L218 67Q376 93 553 223L553 223Q554 224 555 224L555 224L617 160Q604 152 592 156L592 156Q584 158 576 166L576 166Q490 117 417 90L417 90Q461 84 515 73L515 73Q584 110 648 155L648 155L715 97Q702 87 691 91Z"/></svg>