<svg id="U1723B" viewBox="0 0 1000 1000"><path transform="translate(0, 900) scale(1,-1)" d="M847 729L533 729L524 759L731 759L781 824L874 745Q868 730 847 729L847 729ZM425 565L425 565Q352 441 169 363L169 363Q125 344 78 330L78 330L67 346Q212 402 304 503L304 503Q335 537 351 568L351 568L191 568L167 549L117 611Q127 614 157 619L157 619L332 749L146 749L138 779L328 779L365 821L461 758Q449 746 425 745L425 745L216 598L338 598L375 641L461 578Q449 566 425 565ZM785 573L835 638L928 559Q922 544 901 543L901 543L624 543L624 231Q741 314 798 427L798 427L873 367Q865 355 850 354L850 354Q846 354 835 356L835 356Q758 263 624 210L624 210L624 15Q624-10 643-14L643-14Q652-16 664-16L664-16Q757-16 770-13L770-13Q786-8 793 8L793 8Q806 39 836 219L836 219L852 219L853-1Q889-13 890-30L890-30Q890-54 866-62L866-62Q829-74 652-74L652-74Q581-74 565-45L565-45Q557-29 557-2L557-2L557 543L486 543L477 573L785 573ZM464 313L487 298Q373 90 359 48L359 48Q350 16 362-10L362-10Q352-35 295-64L295-64Q265-80 250-80L250-80Q257 2 255 31L255 31Q247 95 211 172L211 172Q161 140 86 103L86 103L81 124Q248 251 340 390L340 390Q354 412 367 433L367 433L455 362Q448 355 437 353L437 353Q426 351 407 354L407 354Q337 258 243 193L243 193Q309 112 317 83L317 83Q340 111 439 273L439 273Q453 295 464 313L464 313Z"/></svg>