<svg id="U17C25" viewBox="0 0 1000 1000"><path transform="translate(0, 900) scale(1,-1)" d="M510 16L510 16Q505 74 490 141L490 141Q424 26 330-76L330-76L315-65Q403 58 466 224L466 224Q441 299 406 373L406 373Q374 323 356 299L356 299L341 307Q443 501 478 798L478 798L587 775Q580 760 564 754L564 754L551 751Q508 549 418 394L418 394Q456 344 489 290L489 290Q519 386 539 480L539 480L646 450Q636 434 622 430L622 430Q620 429 616 429L616 429Q611 428 609 428L609 428Q598 387 585 351L585 351Q721 435 793 559L793 559L601 559L592 588L717 588Q768 714 799 805L799 805L902 772Q888 753 862 756L862 756Q815 673 744 588L744 588L790 588L821 627L908 565Q896 553 868 552L868 552Q792 423 627 350L627 350Q604 340 577 329L577 329Q558 276 530 217L530 217Q593 90 579 24L579 24Q571-4 548-7L548-7Q540-8 534-5L534-5Q521 0 510 16ZM591 795L603 799Q693 763 705 708L705 708Q713 673 688 658L688 658Q663 643 639 671L639 671Q637 731 591 795L591 795ZM307 522L296 522L296 558L97 558L88 588L296 588L296 713L102 713L93 743L286 743L325 785L405 721Q395 709 364 702L364 702L364 547Q363 538 333 527L333 527Q318 522 307 522L307 522ZM331 386L331 18Q330 10 298 1L298 1Q285-3 276-3L276-3L266-3L266 397L174 397L174-52Q173-60 141-69L141-69Q128-73 119-73L119-73L109-73L109 460L122 455L185 427L255 427L291 466L372 405Q358 392 331 386L331 386ZM798 82L798 82Q875 26 962-4L962-4L962-15Q924-20 906-69L906-69Q905-74 904-77L904-77Q817-29 751 43L751 43Q649-36 517-80L517-80L509-65Q622-7 715 87L715 87Q678 137 652 192L652 192Q611 174 580 163L580 163L571 177Q707 250 817 414L817 414Q824 425 830 434L830 434L917 381Q907 368 893 370L893 370Q884 371 877 374L877 374Q785 263 675 204L675 204Q708 159 748 123L748 123Q804 187 851 264L851 264L940 198Q930 188 913 190L913 190L901 194Q854 132 798 82Z"/></svg>