<svg id="U170B9" viewBox="0 0 1000 1000"><path transform="translate(0, 900) scale(1,-1)" d="M204 367L196 379Q342 466 416 597L416 597L218 597L209 626L336 626Q375 718 411 824L411 824L510 788Q496 770 471 773L471 773Q420 689 367 626L367 626L413 626L444 665L531 603Q519 591 491 590L491 590Q419 468 265 394L265 394Q238 381 204 367L204 367ZM259 678L259 678Q260 739 212 811L212 811L224 815Q318 769 326 710L326 710Q331 675 306 663L306 663Q282 651 259 678ZM570 587L561 617L816 617L816 743L575 743L566 773L806 773L845 815L925 751Q915 739 884 732L884 732L884 576Q883 567 853 556L853 556Q838 551 827 551L827 551L816 551L816 587L570 587ZM156 730L156 12Q155 4 123-5L123-5Q110-9 101-9L101-9L91-9L91 769L192 758Q185 735 156 730L156 730ZM870 163L903 207L971 149Q965 134 944 133L944 133L838 133L838-59Q837-67 805-76L805-76Q792-80 783-80L783-80L773-80L773 133L659 133L659-58Q658-66 626-75L626-75Q613-79 604-79L604-79L594-79L594 133L511 133L502 163L594 163L594 297L532 297L523 327L594 327L594 524L612 516L670 491L762 491L798 530L879 469Q865 456 838 450L838 450L838 327L855 327L888 372L956 313Q950 298 929 297L929 297L838 297L838 163L870 163ZM773 461L659 461L659 327L773 327L773 461ZM407 93L407 93Q484 19 486-32L486-32Q487-69 460-76L460-76Q457-77 455-77L455-77Q441-76 425-66L425-66Q408-7 366 56L366 56Q264-29 130-77L130-77L120-62Q233-2 329 103L329 103Q291 150 247 187L247 187Q220 173 180 158L180 158L171 173Q310 251 423 423L423 423Q434 440 443 455L443 455L531 396Q519 385 506 387L506 387Q497 388 490 391L490 391Q389 263 267 197L267 197Q306 175 357 136L357 136Q410 199 452 273L452 273L543 209Q531 199 516 201L516 201Q510 201 503 204L503 204Q460 144 407 93ZM659 297L659 163L773 163L773 297L659 297Z"/></svg>