<svg id="U1732F" viewBox="0 0 1000 1000"><path transform="translate(0, 900) scale(1,-1)" d="M504 588L495 617L666 617Q716 715 759 823L759 823L860 787Q846 768 820 771L820 771Q764 689 695 617L695 617L796 617L827 656L914 594Q902 582 874 581L874 581Q749 428 423 345L423 345L416 360Q673 453 794 588L794 588L504 588ZM490 808L502 814Q605 774 623 712L623 712Q634 675 611 658L611 658Q588 641 562 666L562 666Q551 736 490 808L490 808ZM401 714L116 714L107 744L310 744L350 797L428 730Q422 715 401 714L401 714ZM451 536L281 536L281-54Q280-62 248-71L248-71Q235-75 226-75L226-75L216-75L216 536L73 536L64 566L360 566L400 619L478 552Q472 537 451 536L451 536ZM733 81L733 81Q835 20 967-3L967-3L966-15Q916-26 897-73L897-73Q896-76 895-78L895-78Q774-37 680 47L680 47Q547-32 377-76L377-76L369-59Q514-7 641 88L641 88Q596 139 558 207L558 207Q480 177 393 159L393 159L386 175Q630 252 840 475L840 475L925 423Q916 411 902 411L902 411Q894 412 884 417L884 417Q743 284 579 216L579 216Q620 162 679 117L679 117Q771 192 858 294L858 294L944 233Q933 223 919 224L919 224Q909 226 904 228L904 228Q825 143 733 81Z"/></svg>