<svg id="U173C9" viewBox="0 0 1000 1000"><path transform="translate(0, 900) scale(1,-1)" d="M833 149L873 202L952 135Q946 120 925 119L925 119L770 119L770-52Q749-70 715-73L715-73L705-73L705 119L536 119L536-54Q535-62 503-71L503-71Q490-75 481-75L481-75L471-75L471 824L572 813Q565 790 536 785L536 785L536 673L768 673L808 730Q847 701 897 658L897 658Q891 643 872 643L872 643L536 643L536 499L695 499L731 538L813 476Q800 462 770 456L770 456L770 323L810 323L850 376L929 309Q923 294 902 293L902 293L770 293L770 149L833 149ZM263 266L263 266Q308 375 341 502L341 502L447 469Q438 454 422 450L422 450Q416 448 409 448L409 448Q370 322 304 207L304 207Q389 71 388-19L388-19Q387-67 358-76L358-76Q353-77 349-77L349-77Q337-75 326-67L326-67Q313 35 265 145L265 145Q188 29 74-79L74-79L59-67Q163 53 236 206L236 206Q183 307 115 386L115 386Q214 572 279 816L279 816L380 773Q372 760 355 760L355 760Q352 761 342 763L342 763Q274 553 153 390L153 390Q208 337 263 266ZM705 323L705 469L536 469L536 323L705 323ZM536 293L536 149L705 149L705 293L536 293Z"/></svg>