<svg id="U17C8A" viewBox="0 0 1000 1000"><path transform="translate(0, 900) scale(1,-1)" d="M854 679L942 604Q936 589 915 588L915 588L713 588L713 529Q712 521 680 512L680 512Q667 508 658 508L658 508L657 508L726 479Q719 463 703 462L703 462L698 462Q695 462 693 463L693 463Q691 463 690 463L690 463Q689 463 687 464L687 464L684 464Q615 356 507 283L507 283Q546 241 598 204L598 204Q655 277 699 364L699 364L793 315Q782 302 769 303L769 303Q762 302 753 305L753 305Q704 228 649 170L649 170Q737 116 836 76L836 76L833 65Q789 62 767 18L767 18Q763 10 761 2L761 2Q673 55 597 122L597 122Q516 53 410 4L410 4Q421-15 454-15L454-15Q764-14 800-11L800-11Q829-9 838 10L838 10Q856 56 876 165L876 165L892 165L893 1Q922-16 924-29L924-29Q924-55 862-64L862-64Q784-75 445-75L445-75Q369-75 349-40L349-40Q337-17 337 27L337 27L337 237L224 237L224-54Q223-62 191-71L191-71Q178-75 169-75L169-75L159-75L159 260Q112 238 81 226L81 226L71 242Q242 336 333 483L333 483Q350 511 363 539L363 539L473 491Q464 478 449 477L449 477Q435 477 427 479L427 479Q342 362 200 282L200 282L235 267L326 267L362 306L443 245Q429 232 402 226L402 226L402 41Q402 29 403 24L403 24Q487 77 560 158L560 158Q496 223 463 281L463 281Q555 383 622 523L622 523L648 512L648 588L318 588L318 523Q317 515 285 506L285 506Q272 502 263 502L263 502L253 502L253 588L74 588L65 618L253 618L253 719L354 708Q347 685 318 680L318 680L318 618L440 618Q542 687 612 755L612 755L208 755L199 785L627 785L660 824L744 759Q731 744 701 739L701 739Q616 680 488 618L488 618L648 618L648 699L749 688Q742 665 713 660L713 660L713 618L808 618L854 679ZM871 376L871 376Q854 377 839 389L839 389Q817 469 757 529L757 529Q753 533 749 537L749 537L759 547Q820 521 862 487L862 487Q905 451 906 414L906 414Q906 382 879 377L879 377Q875 376 871 376ZM199 374L199 374Q176 375 160 395L160 395Q158 430 144 465L144 465Q127 498 108 523L108 523L119 533Q171 510 207 477L207 477Q241 444 240 411L240 411Q239 382 210 375L210 375Q204 374 199 374ZM884 203L884 203Q869 204 853 218L853 218Q837 298 781 364L781 364Q778 368 774 372L774 372L785 381Q844 351 883 314L883 314Q923 275 922 238L922 238Q919 207 893 203L893 203Q888 203 884 203Z"/></svg>