<svg id="U178CF" viewBox="0 0 1000 1000"><path transform="translate(0, 900) scale(1,-1)" d="M379 765L379 765Q267 572 106 475L106 475Q102 473 98 470L98 470L86 482Q223 598 319 823L319 823L418 778Q409 764 394 765L394 765Q388 764 379 765ZM870 716L540 716L531 746L754 746L804 811L897 732Q891 717 870 716L870 716ZM460 320L460 320Q411 225 348 149L348 149Q429 59 428-2L428-2Q428-33 405-41L405-41Q399-42 393-42L393-42Q379-40 364-29L364-29Q344 35 305 102L305 102Q204-4 57-88L57-88L44-74Q173 17 272 155L272 155Q223 224 175 273L175 273Q130 241 87 216L87 216L75 229Q258 370 374 625L374 625L471 578Q461 567 447 566L447 566Q439 566 433 567L433 567Q336 398 194 287L194 287Q252 244 301 198L301 198Q354 279 397 379L397 379L497 333Q489 321 473 319L473 319Q465 319 460 320ZM802 551L852 616L945 537Q939 522 918 521L918 521L508 521L499 551L802 551ZM853 290L853 290Q797 186 723 109L723 109Q811 48 940-10L940-10L937-21Q897-27 875-65L875-65Q871-72 868-79L868-79Q760-24 670 58L670 58Q579-21 462-77L462-77L451-63Q552 2 633 95L633 95Q566 166 523 240L523 240Q620 346 682 490L682 490L775 446Q767 432 751 431L751 431Q748 431 742 432L742 432Q736 434 734 434L734 434Q673 324 575 231L575 231Q618 187 673 144L673 144Q742 237 793 351L793 351L891 301Q882 288 865 289L865 289Q857 289 853 290Z"/></svg>