<svg id="U176F1" viewBox="0 0 1000 1000"><path transform="translate(0, 900) scale(1,-1)" d="M236 685L75 685L66 715L236 715L236 823L337 812Q330 789 301 784L301 784L301 715L446 715L446 827L547 816Q540 793 511 788L511 788L511 715L660 715L660 823L761 812Q754 789 725 784L725 784L725 715L805 715L855 780L948 701Q942 686 921 685L921 685L725 685L725 599Q724 591 692 582L692 582Q679 578 670 578L670 578L660 578L660 685L511 685L511 586Q510 578 478 569L478 569Q465 565 456 565L456 565L446 565L446 685L301 685L301 596Q300 588 268 579L268 579Q255 575 246 575L246 575L236 575L236 685ZM542 309L533 323Q649 408 742 580L742 580L834 528Q822 516 809 517L809 517Q802 517 794 520L794 520Q690 381 551 313L551 313Q547 311 542 309L542 309ZM339 498L326 501Q223 364 90 294L90 294Q80 289 72 285L72 285L62 299Q179 387 273 566L273 566L365 508Q354 496 339 498L339 498ZM757 84L757 84Q846 31 954-4L954-4L953-16Q911-23 890-69L890-69Q886-77 884-84L884-84Q781-33 705 43L705 43Q603-32 479-77L479-77L470-60Q577-5 668 81L668 81Q627 130 601 171L601 171Q560 149 518 133L518 133L518 6Q517-2 485-11L485-11Q472-15 463-15L463-15L453-15L453 227Q445 220 434 221L434 221Q427 220 418 223L418 223Q364 146 302 86L302 86Q392 14 401-34L401-34Q402-41 401-46L401-46Q396-75 371-79L371-79Q366-79 360-78L360-78Q345-72 333-61L333-61Q326 1 283 67L283 67Q182-24 56-81L56-81L46-67Q229 48 365 281L365 281L453 236L453 514L554 503Q547 480 518 475L518 475L518 154Q670 250 799 442L799 442L888 386Q876 375 863 377L863 377Q855 377 847 380L847 380Q744 257 626 186L626 186Q666 147 705 118L705 118Q774 190 828 270L828 270L917 214Q907 202 893 203L893 203Q884 204 877 207L877 207Q816 134 757 84ZM74 115L64 129Q214 229 332 431L332 431Q333 433 334 435Q335 437 336 438L336 438L427 385Q417 373 403 374L403 374Q395 374 387 377L387 377Q252 195 78 117L78 117Q75 116 74 115L74 115Z"/></svg>