<svg id="U179E6" viewBox="0 0 1000 1000"><path transform="translate(0, 900) scale(1,-1)" d="M334 746L334 746Q242 558 103 458L103 458Q97 453 92 450L92 450L80 461Q197 585 268 799L268 799Q269 801 269.50 802Q270 803 270 804L270 804L372 760Q363 748 348 747L348 747Q344 746 334 746ZM856 703L451 703L442 733L747 733L795 795L883 719Q877 704 856 703L856 703ZM896 576L410 576L401 606L787 606L834 668L923 592Q917 577 896 576L896 576ZM255 202L255 202Q300 277 336 366L336 366L435 315Q425 302 408 301L408 301Q404 301 395 303L395 303Q352 221 300 152L300 152Q398 33 392-36L392-36Q390-67 366-73L366-73Q360-74 353-73L353-73Q338-69 326-57L326-57Q310 20 264 107L264 107Q172 0 52-77L52-77L39-64Q147 27 232 162L232 162Q201 210 159 264L159 264Q121 231 69 199L69 199L57 211Q204 342 294 572L294 572L394 525Q385 512 369 512L369 512Q361 512 356 513L356 513Q279 370 175 278L175 278Q221 237 255 202ZM841 442L929 367Q923 352 902 351L902 351L435 351L426 381L654 381Q689 443 735 546L735 546L836 508Q820 489 795 494L795 494Q746 431 690 381L690 381L795 381L841 442ZM491 540L502 545Q595 512 609 457L609 457Q618 422 594 406L594 406Q570 391 544 416L544 416Q539 480 491 540L491 540ZM938 4L939-7Q902-18 894-73L894-73Q893-75 893-77L893-77Q791-42 708 28L708 28Q595-44 453-78L453-78L445-62Q565-17 667 67L667 67Q630 105 598 153L598 153Q572 141 532 128L532 128L524 143Q628 205 721 338L721 338L805 273Q792 262 778 265L778 265L764 270Q691 201 619 164L619 164Q655 127 701 96L701 96Q771 160 825 231L825 231L909 166Q896 155 882 158L882 158L868 163Q819 110 758 63L758 63Q840 21 938 4L938 4ZM463 9L453 9L453 309L554 298Q547 275 518 270L518 270L518 30Q517 22 485 13L485 13Q472 9 463 9L463 9Z"/></svg>