<svg id="U17618" viewBox="0 0 1000 1000"><path transform="translate(0, 900) scale(1,-1)" d="M412 185L279 185L279-54Q278-62 246-71L246-71Q233-75 224-75L224-75L214-75L214 185L90 185L81 215L214 215L214 393Q152 356 90 335L90 335L78 352Q193 404 266 504L266 504Q285 531 297 556L297 556L167 556L143 537L94 599Q104 602 134 607L134 607L275 750L122 750L114 780L267 780L305 821L397 759Q385 747 361 746L361 746L189 586L288 586L325 629L409 566Q397 554 373 553L373 553Q326 468 233 405L233 405L315 396Q308 373 279 368L279 368L279 215L348 215L377 255L439 201Q433 186 412 185L412 185ZM952 570L955 559Q920 549 910 501L910 501Q909 495 908 489L908 489Q751 555 636 690L636 690Q520 565 373 507L373 507L363 521Q511 613 626 799L626 799Q633 811 639 821L639 821L728 756Q715 745 701 748L701 748Q695 748 688 751L688 751L655 712Q783 612 952 570L952 570ZM715 389L765 348L765 461L866 450Q859 427 830 422L830 422L830-54Q829-62 797-71L797-71Q784-75 775-75L775-75L765-75L765 317Q760 318 754 322L754 322Q730 300 701 277L701 277Q732 244 739 219L739 219Q750 180 721 167L721 167Q714 165 707 164L707 164Q691 164 677 172L677 172Q664 202 638 231L638 231Q545 171 454 141L454 141Q507 126 570 99L570 99Q604 129 641 169L641 169L717 99Q706 89 692 93L692 93Q684 95 677 100L677 100Q672 96 634 66L634 66Q713 19 723-28L723-28Q732-62 706-74L706-74Q703-75 700-76L700-76Q685-77 669-72L669-72Q638-20 581 28L581 28Q456-51 328-74L328-74L322-58Q426-20 532 66L532 66Q477 105 420 130L420 130Q391 122 352 114L352 114L345 130Q474 174 597 276L597 276Q571 301 535 330L535 330Q455 287 364 267L364 267L357 283Q426 310 497 359L497 359Q447 395 394 424L394 424Q498 495 590 608L590 608L682 550Q674 537 658 538L658 538L642 542Q573 483 463 428L463 428Q504 408 539 390L539 390Q604 440 673 515L673 515L753 457Q742 446 729 447L729 447Q720 449 712 454L712 454Q648 398 589 361L589 361Q628 336 649 321L649 321Q693 366 715 389L715 389Z"/></svg>