<svg id="U17C79" viewBox="0 0 1000 1000"><path transform="translate(0, 900) scale(1,-1)" d="M808 631L854 692L942 617Q936 602 915 601L915 601L713 601L713 528Q712 520 680 511L680 511Q667 507 658 507L658 507L648 507L648 601L318 601L318 507Q317 499 285 490L285 490Q272 486 263 486L263 486L253 486L253 601L74 601L65 631L253 631L253 721L354 710Q347 687 318 682L318 682L318 631L453 631Q548 694 612 755L612 755L208 755L199 785L627 785L660 824L744 759Q731 744 701 739L701 739Q618 685 502 631L502 631L648 631L648 704L749 693Q742 670 713 665L713 665L713 631L808 631ZM805 534L883 467Q877 452 856 451L856 451L550 451L541 481L765 481L805 534ZM412 520L500 445Q494 430 473 429L473 429L99 429L90 459L366 459L412 520ZM510 355L795 355L835 408L913 341Q907 326 886 325L886 325L653 325L653 117Q736 200 783 301L783 301L866 247Q858 235 843 234L843 234Q839 234 828 236L828 236Q763 158 653 93L653 93L653 11Q653-15 670-19L670-19Q677-21 685-21L685-21Q761-21 774-18L774-18Q790-12 796 2L796 2Q805 25 830 147L830 147L847 147L848-7Q879-18 881-34L881-34Q881-60 850-68L850-68Q813-78 679-78L679-78Q609-78 594-50L594-50Q586-34 586-6L586-6L586 325L519 325L510 355ZM395 71L443 71L474 114L541 57Q535 42 514 41L514 41L395 41L395-54Q394-62 362-71L362-71Q349-75 340-75L340-75L330-75L330 41L227 41L227-53Q226-61 194-70L194-70Q181-74 172-74L172-74L162-74L162 41L70 41L61 71L162 71L162 177L90 177L81 207L162 207L162 375L181 366L238 342L319 342L355 381L436 320Q422 307 395 301L395 301L395 207L427 207L459 250L526 193Q520 178 499 177L499 177L395 177L395 71ZM330 312L227 312L227 207L330 207L330 312ZM227 177L227 71L330 71L330 177L227 177Z"/></svg>