<svg id="U176D4" viewBox="0 0 1000 1000"><path transform="translate(0, 900) scale(1,-1)" d="M236 690L69 690L60 720L236 720L236 822L337 811Q330 788 301 783L301 783L301 720L446 720L446 827L547 816Q540 793 511 788L511 788L511 720L660 720L660 822L761 811Q754 788 725 783L725 783L725 720L801 720L851 785L944 706Q938 691 917 690L917 690L725 690L725 628Q724 620 692 611L692 611Q679 607 670 607L670 607L660 607L660 690L511 690L511 583Q510 575 478 566L478 566Q465 562 456 562L456 562L446 562L446 690L301 690L301 607Q300 599 268 590L268 590Q255 586 246 586L246 586L236 586L236 690ZM775 290L775 290Q848 254 951 216L951 216L948 204Q905 195 889 151L889 151Q791 188 702 248L702 248Q591 191 475 165L475 165L481 158Q468 149 437 150L437 150Q374 16 277-48L277-48Q264-56 254-61L254-61Q200-88 137-81L137-81Q151-51 149-19L149-19Q147 11 140 36L140 36Q97 9 44-15L44-15L37-2Q160 75 267 238L267 238L218 274L203 245L117 300Q135 315 158 318L158 318L312 496L148 496L139 526L309 526L347 560L426 498Q412 481 388 481L388 481L229 305L285 265Q327 334 359 399L359 399L458 361Q449 341 417 349L417 349Q372 275 337 228L337 228L373 202L418 232L460 183Q557 219 656 282L656 282Q618 312 601 328L601 328Q543 302 480 286L480 286L474 302Q520 324 571 358L571 358Q533 398 506 436L506 436Q609 505 662 585L662 585L749 532Q741 521 726 520L726 520Q715 520 705 524L705 524Q636 464 565 432L565 432Q589 409 615 388L615 388Q692 444 753 503L753 503L832 442Q821 432 808 433L808 433Q799 435 790 440L790 440Q716 388 658 357L658 357Q690 336 715 322L715 322Q783 372 840 422L840 422L920 363Q909 352 896 353L896 353Q887 355 878 360L878 360Q828 322 775 290ZM218-5L218-5Q269 22 322 95L322 95Q346 129 365 166L365 166L317 201Q244 106 158 48L158 48Q175 12 188-1L188-1Q202-11 218-5ZM792 138L792 138Q748 95 698 58L698 58Q786 17 903 3L903 3L903-8Q864-21 852-72L852-72Q851-78 850-84L850-84Q732-54 643 19L643 19Q534-52 412-83L412-83L405-66Q509-23 604 54L604 54Q562 98 526 154L526 154L542 173Q585 123 643 87L643 87Q699 137 750 197L750 197L834 143Q822 131 811 132L811 132Q803 133 792 138Z"/></svg>