<svg id="U17670" viewBox="0 0 1000 1000"><path transform="translate(0, 900) scale(1,-1)" d="M839 217L839 217Q791 158 739 111L739 111Q831 44 950-2L950-2L947-13Q904-19 881-61L881-61Q877-69 874-76L874-76Q767-17 686 67L686 67Q572-23 425-74L425-74L416-58Q541 6 646 112L646 112Q592 180 553 256L553 256Q504 234 456 217L456 217L447 232Q574 293 685 402L685 402Q641 443 608 480L608 480Q552 443 484 416L484 416L475 431Q531 464 583 510L583 510Q536 568 502 629L502 629Q607 716 667 827L667 827L756 780Q748 768 733 767L733 767Q729 767 718 769L718 769Q650 686 550 623L550 623Q584 580 620 545L620 545Q693 617 760 718L760 718L849 670Q838 657 826 657L826 657Q815 659 808 662L808 662Q730 569 655 513L655 513Q705 471 733 451L733 451Q787 511 831 574L831 574L921 524Q911 511 898 512L898 512Q891 511 881 514L881 514Q830 453 786 414L786 414Q860 365 952 318L952 318L949 307Q911 304 889 272L889 272Q885 266 883 261L883 261Q799 306 729 364L729 364Q655 307 577 268L577 268Q624 205 685 152L685 152Q739 213 790 286L790 286L879 221Q867 211 852 213L852 213Q851 213 848 214L848 214Q842 216 839 217ZM426 736L140 736L131 766L329 766L372 822L453 752Q447 737 426 736L426 736ZM405 652L486 582Q480 567 459 566L459 566L116 566L107 596L362 596L405 652ZM338 426L374 465L455 404Q441 391 414 385L414 385L414 7Q413-1 381-10L381-10Q368-14 359-14L359-14L349-14L349 396L215 396L215-60Q214-68 182-77L182-77Q169-81 160-81L160-81L150-81L150 459L163 454L226 426L338 426Z"/></svg>