<svg id="U17EE9" viewBox="0 0 1000 1000"><path transform="translate(0, 900) scale(1,-1)" d="M309 773L309 773Q224 625 87 544L87 544Q81 540 75 537L75 537L64 550Q182 650 254 831L254 831L349 783Q340 770 325 771L325 771Q315 771 309 773ZM446 629L437 659L777 659L777 739L451 739L442 769L767 769L806 811L886 747Q876 735 845 728L845 728L845 618Q844 609 814 598L814 598Q799 593 788 593L788 593L777 593L777 629L446 629ZM464 144L364 144L364-58Q363-66 331-75L331-75Q318-79 309-79L309-79L299-79L299 144L205 144L205-53Q204-61 172-70L172-70Q159-74 150-74L150-74L140-74L140 144L50 144L41 174L140 174L140 389Q95 360 51 341L51 341L41 355Q187 451 290 640L290 640Q298 654 305 668L305 668L397 614Q386 602 372 604L372 604Q366 603 356 606L356 606Q273 482 164 404L164 404L216 382L288 382L324 421L405 360Q391 347 364 341L364 341L364 174L398 174L428 215L491 160Q485 145 464 144L464 144ZM871 607L953 537Q947 522 926 521L926 521L766 521L828 500Q814 481 788 485L788 485Q742 438 690 401L690 401L758 401L789 444L889 378Q877 366 849 365L849 365Q750 286 555 248L555 248L585 234L689 234L725 273L806 212Q792 199 765 193L765 193L765 114L829 114L868 166L944 100Q938 85 917 84L917 84L765 84L765 16Q765-15 771-18L771-18Q774-19 777-19L777-19Q820-19 827-17L827-17Q838-13 845 2L845 2Q861 37 867 69L867 69L886 69L887-6Q911-14 913-25L913-25Q914-28 914-31L914-31Q914-71 810-75L810-75Q797-75 783-75L783-75Q720-75 707-50L707-50Q700-36 700-8L700-8L700 84L574 84L574-54Q573-62 541-71L541-71Q528-75 519-75L519-75L509-75L509 84L403 84L394 114L509 114L509 240Q454 231 383 224L383 224L375 242Q610 277 758 372L758 372L446 372L437 401L656 401Q689 457 719 521L719 521L534 521Q596 496 599 454L599 454Q601 425 577 415L577 415Q555 407 533 426L533 426Q525 475 486 521L486 521L373 521L364 551L829 551L871 607ZM205 352L205 174L299 174L299 352L205 352ZM700 114L700 204L574 204L574 114L700 114Z"/></svg>