<svg id="U172E1" viewBox="0 0 1000 1000"><path transform="translate(0, 900) scale(1,-1)" d="M239 457L230 471Q334 552 403 720L403 720Q424 772 438 825L438 825L539 777Q530 764 515 763L515 763Q506 763 494 766L494 766Q424 602 309 505L309 505Q274 476 239 457L239 457ZM292 661L292 661Q292 696 272 744L272 744Q259 774 231 809L231 809L242 818Q294 788 330 751L330 751Q367 710 364 674L364 674Q361 646 335 642L335 642Q330 642 325 642L325 642Q308 645 292 661ZM907 449L907 449Q873 397 805 350L805 350L805 15Q805-13 815-15L815-15Q818-16 820-16L820-16Q824-16 826-15L826-15Q838-9 845 8L845 8Q856 34 883 213L883 213Q883 215 883.50 216.50Q884 218 884 219L884 219L900 219L901-1Q937-13 938-30L938-30Q938-68 865-73L865-73Q849-74 830-74L830-74Q760-74 745-44L745-44Q738-28 738-2L738-2L738 189L717 189Q664 9 596-44L596-44Q591-48 587-50L587-50Q538-80 474-71L474-71Q491-41 491-10L491-10Q489 17 481 53L481 53Q478 51 476 49L476 49Q473 46 469 43L469 43Q465 40 464 40L464 40Q463 39 457 35L457 35L451 30L451-53Q450-61 418-70L418-70Q405-74 396-74L396-74L386-74L386 546L487 535Q480 512 451 507L451 507L451 57Q453 59 474 83L474 83Q473 85 473 86L473 86L477 87Q540 169 585 275L585 275L560 306L549 276L462 338Q481 354 501 357L501 357L603 558L494 558L485 588L589 588L625 622L702 561Q687 543 664 543L664 543L556 346L597 303Q620 363 643 443L643 443L738 410L738 813L842 801Q837 779 805 773L805 773L805 388Q847 452 867 516L867 516L945 460Q937 448 922 447L922 447Q918 447 907 449ZM120 435L120 435Q122 492 98 570L98 570Q71 546 38 522L38 522L30 534Q114 645 171 782L171 782L258 720Q249 712 238 710L238 710Q229 708 211 712L211 712Q172 642 128 598L128 598Q171 523 180 481L180 481Q181 479 181 478L181 478Q188 490 256 649L256 649L278 638Q267 602 245 531L245 531Q224 463 219 445L219 445Q210 411 210 408L210 408Q211 401 213 395L213 395Q200 371 147 346L147 346Q119 334 106 335L106 335Q120 403 120 435ZM693 677L480 677L471 707L612 707L648 755L720 693Q714 678 693 677L693 677ZM278 267L278 432L377 421Q372 398 345 392L345 392Q343 392 343 392L343 392L343 288Q343 72 244-58L244-58Q235-69 227-78L227-78L213-67Q274 46 278 249L278 249Q268 246 251 245L251 245Q213 87 111-31L111-31Q92-55 68-79L68-79L57-70Q161 87 180 252L180 252L72 252L63 281L173 281L204 320L278 267ZM656 241L701 271L738 225L738 402Q728 389 701 395L701 395Q670 318 640 257L640 257L656 241ZM552 4L552 4Q601 33 650 197L650 197L625 228Q569 127 497 66L497 66Q518 13 527 5L527 5Q538-3 552 4Z"/></svg>