<svg id="U1776B" viewBox="0 0 1000 1000"><path transform="translate(0, 900) scale(1,-1)" d="M808 712L858 777L951 698Q945 683 924 682L924 682L728 682L728 612Q727 604 695 595L695 595Q682 591 673 591L673 591L663 591L663 682L514 682L514 588Q513 580 481 571L481 571Q468 567 459 567L459 567L449 567L449 682L304 682L304 608Q303 600 271 591L271 591Q258 587 249 587L249 587L239 587L239 682L78 682L69 712L239 712L239 821L340 810Q333 787 304 782L304 782L304 712L449 712L449 826L550 815Q543 792 514 787L514 787L514 712L663 712L663 821L764 810Q757 787 728 782L728 782L728 712L808 712ZM645 216L755 216L791 255L872 194Q858 181 831 175L831 175L831-54Q830-62 798-71L798-71Q785-75 776-75L776-75L766-75L766 186L634 186L634-49Q633-57 601-66L601-66Q588-70 579-70L579-70L569-70L569 76Q560 74 556 74L556 74L439 74L439-56Q438-64 406-73L406-73Q393-77 384-77L384-77L374-77L374 74L241 74L241-51Q240-59 208-68L208-68Q195-72 186-72L186-72L176-72L176 74L76 74L67 104L176 104L176 247Q129 234 88 226L88 226L81 240Q260 294 369 406L369 406L130 406L121 435L284 435Q317 504 346 582L346 582L449 549Q435 530 409 533L409 533Q360 474 311 435L311 435L368 435L399 474L486 412Q474 400 446 399L446 399Q361 304 209 257L209 257L252 238L363 238L399 277L480 216Q466 203 439 197L439 197L439 104L482 104L515 149L569 102L569 249L645 216ZM141 571L152 577Q242 557 259 507L259 507Q268 476 246 460L246 460Q223 442 195 466L195 466Q186 521 141 571L141 571ZM728 450L811 450L851 503L929 436Q923 421 903 420L903 420L528 420L520 450L663 450L663 566L763 556Q761 534 730 529L730 529Q728 529 728 529L728 529L728 450ZM544 337L770 337L809 390L887 323Q881 308 860 307L860 307L553 307L544 337ZM241 208L241 104L374 104L374 208L241 208Z"/></svg>