<svg id="U17951" viewBox="0 0 1000 1000"><path transform="translate(0, 900) scale(1,-1)" d="M301 761L301 761Q222 590 99 487L99 487L86 498Q181 621 233 815L233 815L338 777Q330 765 315 763L315 763Q311 761 301 761ZM418 479L478 479L514 518L596 456Q583 442 553 436L553 436L553-52Q532-70 498-73L498-73L488-73L488 449L418 449L418-54Q417-62 385-71L385-71Q372-75 363-75L363-75L353-75L353 316Q351 316 343 316L343 316Q311 231 261 150L261 150Q337 20 320-45L320-45Q313-73 290-77L290-77Q282-77 276-75L276-75Q263-70 251-55L251-55Q248 15 223 94L223 94Q148-6 47-84L47-84L33-72Q128 23 199 164L199 164Q174 224 141 285L141 285Q111 255 77 230L77 230L65 242Q175 367 252 582L252 582L350 538Q341 526 325 524L325 524Q317 524 312 525L312 525Q235 381 155 299L155 299Q190 255 221 212L221 212Q256 293 279 373L279 373L353 343L353 810L454 799Q447 776 418 771L418 771L418 675L518 675L555 727Q602 691 636 660L636 660Q630 645 611 645L611 645L418 645L418 479ZM820 539L809 539L809 575L617 575L608 605L809 605L809 735L622 735L613 765L799 765L838 807L918 743Q908 731 877 724L877 724L877 564Q876 555 846 544L846 544Q831 539 820 539L820 539ZM932 95L933-4Q957-13 960-23L960-23Q961-27 961-30L961-30Q960-75 849-75L849-75Q787-75 774-51L774-51Q768-37 768-10L768-10L768 414L695 414L695-54Q694-62 662-71L662-71Q649-75 640-75L640-75L630-75L630 477L706 444L757 444L793 483L874 422Q860 409 833 403L833 403L833 15Q833-15 837-18L837-18Q840-19 842-19L842-19L870-18Q871-17 872-17L872-17Q882-11 889 3L889 3Q904 39 913 95L913 95L932 95Z"/></svg>