<svg id="U17CA5" viewBox="0 0 1000 1000"><path transform="translate(0, 900) scale(1,-1)" d="M808 620L854 681L942 606Q936 591 915 590L915 590L713 590L713 514Q712 506 680 497L680 497Q667 493 658 493L658 493L648 493L648 590L318 590L318 511Q317 503 285 494L285 494Q272 490 263 490L263 490L258 490Q281 457 261 431L261 431Q243 407 213 424L213 424Q208 428 204 431L204 431Q195 485 150 537L150 537L161 543Q226 527 253 496L253 496L253 590L74 590L65 620L253 620L253 726L354 715Q347 692 318 687L318 687L318 620L445 620Q544 689 612 755L612 755L208 755L199 785L627 785L660 824L744 759Q731 744 701 739L701 739Q621 683 494 620L494 620L648 620L648 697L749 686Q742 663 713 658L713 658L713 620L808 620ZM125 220L119 234Q279 271 382 370L382 370L144 370L135 399L291 399Q331 473 364 547L364 547L467 514Q453 495 427 498L427 498Q385 448 328 399L328 399L383 399L414 438L501 376Q489 364 461 363L461 363Q364 261 155 225L155 225Q141 222 125 220L125 220ZM549 477L781 477L812 516L899 454Q887 442 859 441L859 441Q782 350 644 304L644 304L686 286L776 286L812 325L893 264Q879 251 852 245L852 245L852-56Q851-64 819-73L819-73Q806-77 797-77L797-77L787-77L787 38L675 38L675-55Q674-63 642-72L642-72Q629-76 620-76L620-76L610-76L610 38L510 38L501 68L610 68L610 147L531 147L522 177L610 177L610 293Q566 280 528 272L528 272L522 286Q684 338 783 448L783 448L558 448L549 477ZM510 98L510 98Q502 100 493 105L493 105Q449 68 412 44L412 44Q462 9 473-24L473-24Q485-59 461-73L461-73Q458-75 455-76L455-76Q444-80 424-77L424-77Q395-33 350 7L350 7Q220-60 69-75L69-75L63-59Q187-33 304 43L304 43Q254 78 203 102L203 102Q144 86 87 82L87 82L83 99Q254 136 413 274L413 274Q426 285 438 296L438 296L516 240Q504 229 493 229L493 229Q482 232 473 239L473 239Q357 153 245 115L245 115Q304 98 352 76L352 76Q406 118 457 169L457 169L534 106Q522 95 510 98ZM787 177L787 256L675 256L675 177L787 177ZM675 147L675 68L787 68L787 147L675 147Z"/></svg>