<svg id="U1700B" viewBox="0 0 1000 1000"><path transform="translate(0, 900) scale(1,-1)" d="M797 759L847 824L940 745Q934 730 913 729L913 729L71 729L62 759L797 759ZM376 645L545 645L584 687L664 623Q654 611 623 604L623 604L623 471Q622 462 592 451L592 451Q577 446 566 446L566 446L555 446L555 482L380 482L371 512L555 512L555 615L385 615L376 645ZM886 223L887-2Q923-14 924-31L924-31Q924-61 878-69L878-69Q846-75 774-75L774-75Q704-75 689-46L689-46Q681-30 681-3L681-3L681 687L787 674Q782 652 750 646L750 646L750 14Q750-13 762-16L762-16Q766-17 769-17L769-17Q804-17 810-16L810-16Q823-10 830 7L830 7Q842 38 870 223L870 223L886 223ZM246 392L271 392L304 437L372 378Q366 363 345 362L345 362L246 362L246-54Q245-62 214-72L214-72Q202-75 193-75L193-75L183-75L183 362L92 362L83 392L183 392L183 608L108 608L99 638L248 638L282 683L350 624Q344 609 323 608L323 608L246 608L246 392ZM465 382L518 382L554 421L635 360Q621 347 594 341L594 341L594-54Q593-62 561-71L561-71Q548-75 539-75L539-75L529-75L529 352L454 352L454-49Q453-57 421-66L421-66Q408-70 399-70L399-70L389-70L389 415L402 409L465 382Z"/></svg>