<svg id="U17BEF" viewBox="0 0 1000 1000"><path transform="translate(0, 900) scale(1,-1)" d="M379 275L437 248L482 278L544 204Q531 195 500 196L500 196Q437 40 343-35L343-35Q330-45 320-51L320-51Q270-79 200-70L200-70Q212-35 207-8L207-8Q202 19 187 65L187 65Q133 27 57-12L57-12L49 1Q196 97 303 274L303 274L226 310L208 280L123 337Q142 352 165 354L165 354L381 551L153 551L144 581L279 581Q330 676 385 809L385 809L487 773Q474 755 447 758L447 758Q381 659 303 581L303 581L382 581L418 615L498 553Q484 536 460 536L460 536L237 340L320 302Q353 362 384 439L384 439L486 406Q478 385 446 392L446 392Q413 330 379 275L379 275ZM137 795L148 800Q248 763 266 704L266 704Q277 667 253 650L253 650Q230 635 204 659L204 659Q195 724 137 795L137 795ZM882 222L883-3Q916-17 919-31L919-31Q919-60 851-69L851-69Q798-75 652-75L652-75Q584-75 570-46L570-46Q563-31 563-6L563-6L563 600L639 567L802 567L802 717L551 717L542 747L792 747L831 789L911 725Q901 713 870 706L870 706L870 523Q869 514 839 503L839 503Q824 498 813 498L813 498L802 498L802 537L630 537L630 231Q717 309 785 433L785 433L872 364Q860 354 843 356L843 356L831 360Q745 256 630 201L630 201L630 13Q630-10 650-14L650-14Q658-15 667-15L667-15Q793-15 801-13L801-13Q815-7 823 8L823 8Q845 66 869 222L869 222L882 222ZM283 6L283 6Q327 30 376 108L376 108Q406 156 430 214L430 214L361 247Q290 144 204 78L204 78Q235 23 250 10L250 10Q265-2 283 6Z"/></svg>