<svg id="U17F71" viewBox="0 0 1000 1000"><path transform="translate(0, 900) scale(1,-1)" d="M808 293L848 336L948 273Q936 261 912 260L912 260Q784 167 446 149L446 149Q428 148 410 147L410 147L402 167Q646 193 781 250L781 250Q798 257 809 263L809 263L527 263L503 244L446 306Q456 309 486 314L486 314L733 378L472 378L464 408L513 408L513 477L455 477Q456 470 454 460L454 460Q447 425 415 430L415 430Q413 430 412 430L412 430Q396 434 384 449L384 449Q378 523 344 584L344 584Q270 433 162 296L162 296Q209 261 254 218L254 218Q300 314 335 420L335 420L438 378Q427 363 411 361L411 361Q410 361 406 361L406 361Q400 360 398 360L398 360Q352 253 300 171L300 171Q402 56 400-22L400-22Q399-68 370-77L370-77Q365-79 360-79L360-79Q347-77 338-69L338-69Q322 21 263 118L263 118Q183 9 76-80L76-80L63-67Q154 30 229 168L229 168Q178 236 115 292L115 292Q261 517 363 826L363 826L463 784Q456 771 438 771L438 771Q431 771 424 774L424 774Q394 690 358 614L358 614Q399 580 421 553L421 553Q441 527 448 507L448 507L513 507L513 595L609 584Q604 563 576 557L576 557Q574 557 574 557L574 557L574 507L631 507L631 597L727 586Q722 564 694 558L694 558Q692 558 692 558L692 558L692 507L749 507L749 595L846 584Q840 563 811 557L811 557L811 507L858 507L885 545L945 493Q939 478 918 477L918 477L811 477L811 438L903 387Q891 375 867 374L867 374L577 293L808 293ZM268 756L268 756Q186 577 99 483L99 483Q90 474 81 465L81 465L67 475Q147 604 206 817L206 817L308 772Q297 759 281 757L281 757Q274 755 268 756ZM791 664L791 740L476 740L467 770L781 770L820 812L900 748Q890 736 859 729L859 729L859 623Q858 614 828 603L828 603Q813 598 802 598L802 598L791 598L791 634L471 634L462 664L791 664ZM574 477L574 408L631 408L631 477L574 477ZM692 408L749 408L749 477L692 477L692 408ZM810-75L800-75L800 176L901 165Q894 142 865 137L865 137L865-54Q864-62 832-71L832-71Q819-75 810-75L810-75ZM657-75L647-75L647 128L748 117Q741 94 712 89L712 89L712-54Q711-62 679-71L679-71Q666-75 657-75L657-75ZM508 97L508 126L607 115Q602 92 575 86L575 86Q573 86 573 86L573 86L573 76Q573 15 508-43L508-43Q485-63 458-78L458-78L447-65Q504-15 508 74L508 74Q508 85 508 97L508 97Z"/></svg>