<svg id="U17DC" viewBox="0 0 733 1000"><path transform="translate(0, 900) scale(1,-1)" d="M353 0L353 0Q252 0 191 35.50Q130 71 130 135L130 135Q130 201 171.50 227.50Q213 254 274 254L274 254L274 187Q260 187 242.50 177.50Q225 168 225 139L225 139Q225 100 263.50 86.50Q302 73 363 73L363 73Q418 73 451.50 89.50Q485 106 500 132Q515 158 515 188L515 188Q515 219 502.50 240Q490 261 455.50 277Q421 293 353 308L353 308Q304 319 263 330.50Q222 342 192 361Q162 380 146 411Q130 442 130 492L130 492Q130 553 161.50 596Q193 639 248 661.50Q303 684 372 684L372 684Q481 684 539.50 648Q598 612 598 559L598 559Q598 519 581 492.50Q564 466 537.50 452.50Q511 439 481 439L481 439L481 506Q495 506 504.50 517Q514 528 514 550L514 550Q514 572 494.50 587Q475 602 444 610Q413 618 380 618L380 618Q314 618 268.50 589Q223 560 223 497L223 497Q223 458 238.50 436.50Q254 415 287.50 403.50Q321 392 373 381L373 381Q489 358 546 316Q603 274 603 197L603 197Q603 103 541.50 51.50Q480 0 353 0Z"/></svg>