<svg id="U1753C" viewBox="0 0 1000 1000"><path transform="translate(0, 900) scale(1,-1)" d="M797 694L847 759L940 680Q934 665 913 664L913 664L71 664L62 694L553 694Q608 758 650 822L650 822L753 789Q739 770 713 773L713 773Q657 731 590 694L590 694L797 694ZM331 712L331 712Q308 769 253 808L253 808L262 817Q362 814 388 764L388 764Q403 735 383 715L383 715Q363 695 331 712ZM892 551L768 551L768 264Q813 337 836 408L836 408L919 356Q911 344 896 343L896 343Q892 343 881 345L881 345Q845 294 768 225L768 225L768 13Q772-16 787-18L787-18Q803-18 806-17L806-17Q819-11 826 6L826 6Q837 32 864 211L864 211Q864 213 864.50 214.50Q865 216 865 217L865 217L881 217L882-3Q918-15 919-32L919-32Q919-65 866-72L866-72Q840-76 793-76L793-76Q723-76 708-46L708-46Q706-41 705-37L705-37Q677-50 662-77L662-77Q615-37 578 16L578 16Q521-39 460-75L460-75L449-62Q504-14 552 59L552 59Q533 97 519 137L519 137L498 119L519 101Q513 86 492 85L492 85L399 85L399-52Q398-60 367-70L367-70Q355-73 346-73L346-73L336-73L336 85L268 85L260 112Q238 81 217 54L217 54Q270-10 264-46L264-46Q259-78 234-81L234-81Q228-81 223-80L223-80Q208-75 196-63L196-63Q193-29 177 9L177 9Q124-44 65-80L65-80L54-68Q107-19 155 57L155 57Q140 84 113 122L113 122Q70 87 59 79L59 79L47 91Q117 168 160 302L160 302L170 298L170 351L72 351L63 381L170 381L170 451L271 440Q264 417 235 412L235 412L235 381L328 381L328 459L418 449Q456 474 468 484L468 484L138 484L129 514L366 514Q407 579 438 643L438 643L542 611Q528 592 502 595L502 595Q456 551 404 514L404 514L481 514L514 553L598 488Q585 473 555 468L555 468Q510 450 507 449L507 449L590 440Q583 417 554 412L554 412L554 381L601 381L640 434L701 382L701 551L639 551L630 581L798 581L839 635L919 567Q913 552 892 551L892 551ZM181 631L191 638Q281 629 300 583L300 583Q312 555 290 537L290 537Q268 519 238 540L238 540Q224 593 181 631L181 631ZM393 412L393 381L489 381L489 442Q446 427 393 412L393 412ZM536 151L536 151Q557 121 577 100L577 100Q604 145 629 202L629 202L701 168L701 352Q697 351 691 351L691 351L554 351L554 313Q553 305 521 296L521 296Q508 292 499 292L499 292L489 292L489 351L393 351L393 304Q392 296 360 287L360 287Q347 283 338 283L338 283L328 283L328 351L235 351L235 310Q233 301 199 292L199 292Q195 291 191 290L191 290L254 266Q245 254 231 252L231 252Q225 251 216 252L216 252Q178 185 130 138L130 138Q162 112 179 95L179 95Q206 145 230 200L230 200L321 159Q311 147 298 145L298 145Q288 145 282 147L282 147Q279 143 274 134L274 134Q266 121 262 115L262 115L336 115L336 207L288 207L279 237L390 237L422 281L489 223Q483 208 462 207L462 207L399 207L399 115L420 115L452 160L480 136Q535 207 575 319L575 319L667 282Q658 269 645 268L645 268Q637 267 629 268L629 268Q588 199 536 151ZM618 60L618 60Q664 22 701 0L701 0L701 147L697 147Q690 146 682 148L682 148Q647 95 618 60Z"/></svg>