<svg id="U177E4" viewBox="0 0 1000 1000"><path transform="translate(0, 900) scale(1,-1)" d="M509 729L103 729L94 759L393 759L443 824L536 745Q530 730 509 729L509 729ZM715 177L715 177Q802 79 918-11L918-11L915-22Q869-23 846-66L846-66Q843-72 841-77L841-77Q749 14 675 123L675 123Q581 7 457-81L457-81L443-67Q556 36 638 180L638 180Q574 286 534 385L534 385Q618 569 670 803L670 803L774 768Q769 752 753 750L753 750Q743 749 736 751L736 751Q666 518 569 382L569 382Q606 313 667 235L667 235Q710 321 742 422L742 422L853 383Q846 370 830 367L830 367Q829 367 825 367L825 367Q819 366 817 366L817 366Q775 264 715 177ZM758 707L769 716Q833 684 878 643L878 643Q926 595 925 553L925 553Q922 522 896 518L896 518Q891 518 887 518L887 518Q872 519 856 533L856 533Q835 626 764 701L764 701Q761 704 758 707L758 707ZM530 284L412 284L412-59Q411-67 379-76L379-76Q366-80 357-80L357-80L347-80L347 284L218 284L218-54Q217-62 185-71L185-71Q172-75 163-75L163-75L153-75L153 284L60 284L51 314L153 314L153 617L166 611L229 584L336 584L372 623L453 562Q439 549 412 543L412 543L412 314L431 314L474 371L557 300Q551 285 530 284L530 284ZM218 554L218 314L347 314L347 554L218 554ZM907 443L907 443Q955 395 954 353L954 353Q951 322 925 318L925 318Q920 318 916 318L916 318Q901 319 885 333L885 333Q864 426 793 501L793 501Q790 504 787 507L787 507L798 516Q862 484 907 443Z"/></svg>