<svg id="U17466" viewBox="0 0 1000 1000"><path transform="translate(0, 900) scale(1,-1)" d="M797 636L847 701L940 622Q934 607 913 606L913 606L71 606L62 636L525 636Q589 717 650 822L650 822L751 784Q738 766 711 769L711 769Q641 697 557 636L557 636L797 636ZM342 664L342 664Q316 734 233 807L233 807L243 815Q361 790 394 726L394 726Q413 688 391 666L391 666Q372 648 342 664ZM732 409L791 409L828 458L901 395Q895 380 874 379L874 379L474 379L465 409L684 409Q712 460 726 498L726 498L527 498L518 528L720 528L753 567L837 502Q824 487 794 482L794 482Q769 448 732 409L732 409ZM392 557L497 511Q488 499 472 498L472 498Q466 498 451 500L451 500Q325 342 71 249L71 249L59 263Q300 388 392 557L392 557ZM206 407L206 407Q186 408 169 423L169 423Q160 460 145 487L145 487Q129 513 104 540L104 540L115 550Q165 532 205 504L205 504Q239 478 242 446L242 446Q243 416 215 408L215 408Q210 407 206 407ZM336-75L326-75L326 360L427 349Q420 326 391 321L391 321L391-54Q390-62 358-71L358-71Q345-75 336-75L336-75ZM676 144L781 144L819 186L900 124Q888 112 864 111L864 111Q785-1 601-58L601-58Q570-67 539-74L539-74L528-56Q673-10 763 83L763 83Q779 99 790 114L790 114L656 114L632 95L588 157Q598 160 628 165L628 165L757 258L616 258L608 288L743 288L782 330L877 267Q865 255 841 254L841 254L676 144ZM553 290L553 23Q552 15 520 6L520 6Q507 2 498 2L498 2L488 2L488 329L589 318Q582 295 553 290L553 290ZM176 177L176 247L275 236Q270 213 243 207L243 207Q241 207 241 207L241 207L241 161Q241 61 175-25L175-25Q152-53 126-75L126-75L114-63Q172 9 176 144L176 144Q176 158 176 177L176 177Z"/></svg>