<svg id="U178AF" viewBox="0 0 1000 1000"><path transform="translate(0, 900) scale(1,-1)" d="M381 765L381 765Q269 572 108 475L108 475Q104 473 100 470L100 470L88 482Q225 598 321 823L321 823L420 778Q411 764 396 765L396 765Q390 764 381 765ZM787 763L818 802L905 740Q893 728 865 727L865 727Q759 544 490 445L490 445L482 458Q693 570 786 734L786 734L526 734L517 763L787 763ZM419 379L519 333Q511 321 495 319L495 319Q487 319 482 320L482 320Q435 229 371 150L371 150Q480 34 477-41L477-41Q474-75 450-80L450-80Q444-81 440-81L440-81Q424-76 412-67L412-67Q389 13 331 105L331 105Q225-7 79-88L79-88L66-74Q199 21 295 157L295 157Q249 220 193 278L193 278Q149 245 99 216L99 216L87 229Q270 370 386 625L386 625L483 578Q473 567 459 566L459 566Q451 566 445 567L445 567Q350 401 211 291L211 291Q270 247 323 198L323 198Q376 279 419 379L419 379ZM788-75L778-75L778 527L879 516Q872 493 843 488L843 488L843-54Q842-62 810-71L810-71Q797-75 788-75L788-75ZM581 300L581 434L680 423Q675 400 648 394L648 394Q646 394 646 394L646 394L646 291Q646 75 547-55L547-55Q538-66 530-75L530-75L516-64Q577 47 581 253L581 253Q581 276 581 300L581 300Z"/></svg>