<svg id="U17436" viewBox="0 0 1000 1000"><path transform="translate(0, 900) scale(1,-1)" d="M797 636L847 701L940 622Q934 607 913 606L913 606L71 606L62 636L525 636Q589 717 650 822L650 822L751 784Q738 766 711 769L711 769Q641 697 557 636L557 636L797 636ZM342 664L342 664Q316 734 233 807L233 807L243 815Q361 790 394 726L394 726Q413 688 391 666L391 666Q372 648 342 664ZM533 572L607 508Q601 493 580 492L580 492L290 492L281 522L496 522L533 572ZM846 301L846 301Q802 253 723 215L723 215L723 14Q723-14 736-17L736-17Q740-18 743-18L743-18Q774-18 779-16L779-16Q791-11 798 5L798 5Q810 35 832 166L832 166L849 166L850-3Q882-16 884-31L884-31Q884-63 832-71L832-71Q803-75 747-75L747-75Q678-75 663-45L663-45Q656-30 656-3L656-3L656 546L760 534Q755 512 723 506L723 506L723 247Q777 304 807 369L807 369L884 312Q876 300 861 299L861 299Q857 299 846 301ZM489 172L538 146L581 175L640 105Q627 96 596 97L596 97Q533 2 431-47L431-47Q421-52 413-55L413-55Q361-78 298-71L298-71Q311-38 309-8L309-8Q305 21 295 51L295 51Q255 36 201 20L201 20L201-52Q200-60 168-69L168-69Q155-73 146-73L146-73L136-73L136 545L237 534Q230 511 201 506L201 506L201 38Q322 88 411 177L411 177L343 213L324 187L244 239Q263 255 287 255L287 255L463 380L275 380L266 410L465 410L507 441L570 382Q555 364 531 365L531 365L352 242L434 200Q476 247 503 293L503 293L598 255Q589 234 558 242L558 242Q516 197 489 172L489 172ZM382-7L382-7Q464 26 524 100L524 100Q529 106 533 112L533 112L463 149Q392 92 312 58L312 58Q337 10 349-1L349-1Q363-12 382-7Z"/></svg>