<svg id="U173BA" viewBox="0 0 1000 1000"><path transform="translate(0, 900) scale(1,-1)" d="M873-27L905 16L970-41Q964-56 943-57L943-57L373-57L364-27L480-27L480 92L400 92L400 8Q399 0 367-9L367-9Q354-13 345-13L345-13L335-13L335 526L278 526L278-54Q277-62 245-72L245-72Q234-75 225-75L225-75L215-75L215 526L159 526L159-45Q158-53 126-62L126-62Q113-66 104-66L104-66L94-66L94 589L107 584L170 556L215 556L215 824L313 813Q307 792 278 786L278 786L278 556L324 556L360 595L441 534Q427 521 400 515L400 515L400 314Q505 344 607 404L607 404Q566 436 527 477L527 477Q472 462 426 455L426 455L420 471Q599 526 773 695L773 695L847 625Q836 616 821 619L821 619Q816 620 807 626L807 626Q680 530 552 485L552 485Q594 457 650 430L650 430Q742 492 812 558L812 558L885 489Q872 480 859 484L859 484Q852 486 845 490L845 490Q782 441 716 403L716 403Q825 365 942 360L942 360L943 348Q883 322 867 280L867 280Q750 310 655 371L655 371Q536 315 400 292L400 292L400 122L480 122L480 265L581 254Q574 231 545 226L545 226L545 122L611 122L611 274L712 263Q705 240 676 235L676 235L676 122L742 122L742 265L843 254Q836 231 807 226L807 226L807 122L838 122L872 167L940 108Q934 93 913 92L913 92L807 92L807-27L873-27ZM748 753L748 753Q608 636 457 600L457 600L451 616Q586 677 713 820L713 820L788 754Q776 743 762 747L762 747Q755 749 748 753ZM611 92L545 92L545-27L611-27L611 92ZM742-27L742 92L676 92L676-27L742-27Z"/></svg>