<svg id="U17461" viewBox="0 0 1000 1000"><path transform="translate(0, 900) scale(1,-1)" d="M797 636L847 701L940 622Q934 607 913 606L913 606L71 606L62 636L525 636Q589 717 650 822L650 822L751 784Q738 766 711 769L711 769Q641 697 557 636L557 636L797 636ZM342 664L342 664Q316 734 233 807L233 807L243 815Q361 790 394 726L394 726Q413 688 391 666L391 666Q372 648 342 664ZM361 525L361 525Q245 387 102 327L102 327Q98 325 94 324L94 324L85 338Q206 417 307 578L307 578Q310 584 313 588L313 588L401 531Q389 520 377 522L377 522Q369 522 361 525ZM727 533L727 404Q792 461 834 525L834 525L922 475Q913 463 899 462L899 462Q893 462 884 465L884 465Q840 419 794 386L794 386Q878 336 906 297L906 297Q912 288 912 282L912 282Q852 202 727 137L727 137L727-53Q726-61 694-70L694-70Q681-74 672-74L672-74L662-74L662 108Q566 69 477 57L477 57L471 73Q580 107 662 152L662 152L662 307Q586 271 498 247L498 247L490 262Q581 297 662 354L662 354L662 572L763 561Q756 538 727 533L727 533ZM535 451L535 451Q513 479 481 506L481 506L491 517Q555 495 592 470L592 470Q640 438 643 403L643 403Q647 375 621 365L621 365Q616 364 611 363L611 363Q595 362 575 375L575 375Q564 415 535 451ZM459 218L459 218Q412 157 353 101L353 101Q452 22 455-37L455-37Q456-74 429-79L429-79Q426-80 423-80L423-80Q408-79 392-71L392-71Q370-8 311 64L311 64Q197-29 65-79L65-79L55-64Q171-3 274 104L274 104Q232 145 183 181L183 181Q146 160 89 137L89 137L80 151Q242 247 375 448L375 448L464 392Q452 381 439 383L439 383Q431 383 423 386L423 386Q317 261 205 193L205 193Q250 171 304 136L304 136Q363 206 408 273L408 273L499 227Q488 216 476 214L476 214Q468 215 459 218ZM833 296L833 296Q830 319 776 368L776 368Q775 369 774.50 369.50Q774 370 773 371L773 371Q743 351 727 342L727 342L727 193Q788 235 833 296Z"/></svg>