<svg id="U1799B" viewBox="0 0 1000 1000"><path transform="translate(0, 900) scale(1,-1)" d="M676 725L346 725L337 755L565 755L613 818L703 741Q697 726 676 725L676 725ZM276 764L276 764Q203 590 87 486L87 486Q85 484 84 483L84 483L70 494Q160 617 206 815L206 815L312 781Q304 768 290 766L290 766Q286 764 276 764ZM803 175L803 175Q867 67 957-29L957-29L953-40Q917-29 880-70L880-70Q876-75 873-79L873-79Q805 10 763 106L763 106Q699 5 615-82L615-82L600-71Q680 39 737 170L737 170Q702 264 688 365L688 365Q665 326 629 276L629 276L612 284Q632 322 651 367L651 367L586 367L586 191L608 191L644 238L716 177Q710 162 689 161L689 161L586 161L586-55Q585-63 553-72L553-72Q540-76 531-76L531-76L521-76L521 161L439 161L439-54Q438-62 406-71L406-71Q393-75 384-75L384-75L374-75L374 161L296 161L287 191L374 191L374 367L316 367L307 397L374 397L374 633L392 626L450 600L510 600L546 639L627 578Q613 565 586 559L586 559L586 397L603 397L639 445L671 417Q733 587 763 804L763 804L875 782Q867 766 852 761L852 761Q851 761 847 760L847 760Q841 758 839 757L839 757Q796 562 710 403L710 403Q728 324 766 245L766 245Q805 352 833 479L833 479L943 448Q934 432 918 428L918 428Q916 427 912 427L912 427Q907 426 905 426L905 426Q866 291 803 175ZM338 301L325 301Q296 216 255 144L255 144Q328 19 311-45L311-45Q304-73 281-77L281-77Q273-77 267-75L267-75Q254-70 242-55L242-55Q239 7 218 83L218 83Q151-12 63-88L63-88L49-77Q137 22 193 155L193 155Q169 219 137 276L137 276Q104 243 71 217L71 217L58 228Q172 363 243 584L243 584L343 543Q334 531 319 529L319 529L306 529Q233 381 151 292L151 292Q183 254 215 208L215 208Q242 284 259 356L259 356L363 318Q354 304 338 301L338 301ZM521 570L439 570L439 397L521 397L521 570ZM439 191L521 191L521 367L439 367L439 191Z"/></svg>