<svg id="U178FC" viewBox="0 0 1000 1000"><path transform="translate(0, 900) scale(1,-1)" d="M317 768L317 768Q232 598 106 501L106 501L93 512Q190 629 251 824L251 824L354 783Q347 770 331 768L331 768Q325 767 317 768ZM900 449L900 449Q857 385 784 342L784 342L784 14Q784-14 795-17L795-17Q798-18 801-18L801-18Q818-18 827-16L827-16Q839-10 846 6L846 6Q856 30 881 175L881 175L898 175L899-3Q931-16 933-31L933-31Q933-65 872-72L872-72Q847-75 808-75L808-75Q739-75 724-45L724-45Q717-30 717-3L717-3L717 814L821 802Q816 780 784 774L784 774L784 377Q833 439 860 517L860 517L938 460Q930 448 915 447L915 447Q911 447 900 449ZM635 716L421 716L412 746L538 746L581 802L662 732Q656 717 635 716L635 716ZM395 604L564 604L606 660L688 590Q682 575 661 574L661 574L404 574L395 604ZM253 210L253 210Q287 281 309 358L309 358L410 311Q400 298 383 297L383 297Q379 296 370 298L370 298Q337 217 296 153L296 153Q382 28 370-43L370-43Q365-73 341-78L341-78Q334-79 328-77L328-77Q315-71 302-59L302-59Q293 13 258 100L258 100Q177-3 60-81L60-81L47-68Q158 30 230 163L230 163Q198 226 157 287L157 287Q122 255 87 230L87 230L76 242Q202 374 290 604L290 604L388 560Q379 548 363 546L363 546Q355 546 350 547L350 547Q271 398 173 301L173 301Q219 253 253 210ZM494 455L561 455L595 491L672 433Q658 420 634 414L634 414L634-55Q633-63 601-73L601-73Q590-76 581-76L581-76L571-76L571 425L487 425L487-54Q486-62 455-72L455-72Q443-75 434-75L434-75L424-75L424 486L437 481L494 455Z"/></svg>