<svg id="U1773D" viewBox="0 0 1000 1000"><path transform="translate(0, 900) scale(1,-1)" d="M233 681L73 681L64 711L233 711L233 823L334 812Q327 789 298 784L298 784L298 711L442 711L442 829L543 818Q536 795 507 790L507 790L507 711L655 711L655 823L756 812Q749 789 720 784L720 784L720 711L799 711L849 776L942 697Q936 682 915 681L915 681L720 681L720 598Q719 590 687 581L687 581Q674 577 665 577L665 577L655 577L655 681L507 681L507 589Q506 581 474 572L474 572Q461 568 452 568L452 568L442 568L442 681L298 681L298 595Q297 587 265 578L265 578Q252 574 243 574L243 574L233 574L233 681ZM108 238L102 252Q257 289 358 386L358 386L126 386L117 415L271 415Q305 485 342 577L342 577L445 544Q431 525 405 528L405 528Q362 469 305 415L305 415L358 415L389 454L476 392Q464 380 436 379L436 379Q345 283 150 245L150 245Q131 242 108 238L108 238ZM132 570L143 575Q234 548 247 496L247 496Q256 463 231 447L231 447Q208 433 182 457L182 457Q176 514 132 570L132 570ZM728 367L728 367Q818 337 946 314L946 314L943 303Q906 292 894 251L894 251Q766 280 668 333L668 333Q581 288 486 267L486 267L480 283Q547 311 622 360L622 360Q563 397 520 443L520 443Q617 500 666 569L666 569L754 516Q746 504 732 503L732 503Q730 503 726 503L726 503Q720 504 717 504L717 504Q656 466 575 438L575 438Q611 414 666 390L666 390Q742 446 802 505L802 505L881 444Q868 434 857 436L857 436Q850 437 839 443L839 443Q780 399 728 367ZM377 57L377 57Q426 26 437-6L437-6Q447-36 425-50L425-50Q421-52 417-53L417-53Q401-56 385-51L385-51Q358-12 320 22L320 22Q189-52 50-73L50-73L45-56Q157-22 273 57L273 57Q225 90 171 113L171 113Q122 103 81 99L81 99L77 116Q237 149 394 293L394 293Q398 296 401 299L401 299L479 243Q467 232 456 232L456 232Q445 235 436 242L436 242Q318 156 211 124L211 124Q267 109 316 88L316 88Q364 127 416 175L416 175L494 114Q483 104 470 105L470 105Q462 107 453 112L453 112Q416 83 377 57ZM617 119L753 119L792 161L881 99Q869 87 845 86L845 86Q754-21 535-66L535-66Q498-73 462-78L462-78L453-60Q625-19 726 63L726 63Q742 77 754 89L754 89L580 89L556 70L504 132Q514 135 544 140L544 140L705 213L531 213L523 243L707 243L746 285L851 222Q839 210 815 209L815 209L617 119Z"/></svg>