<svg id="U17D2B" viewBox="0 0 1000 1000"><path transform="translate(0, 900) scale(1,-1)" d="M659 553L659 553Q787 517 954 492L954 492L951 481Q911 469 897 425L897 425Q713 457 576 517L576 517Q508 489 415 463L415 463L522 463L569 494L636 434Q621 415 595 418L595 418L455 353L506 326Q538 358 560 389L560 389L657 353Q648 333 617 340L617 340Q582 311 563 296L563 296L593 280L636 310L702 241Q689 232 658 233L658 233Q610 169 526 134L526 134Q476 113 425 116L425 116L466 98L549 98L585 137L666 76Q652 63 625 57L625 57L625-58Q624-66 592-75L592-75Q579-79 570-79L570-79L560-79L560 68L455 68L455-53Q454-61 422-70L422-70Q409-74 400-74L400-74L390-74L390 131L404 125L413 121Q426 153 428 181L428 181Q428 207 425 225L425 225Q382 210 315 196L315 196L315-45Q314-53 282-62L282-62Q269-66 260-66L260-66L250-66L250 402L351 391Q344 368 315 363L315 363L315 212Q404 243 475 299L475 299L445 315L427 292L348 349Q365 365 389 364L389 364L513 433L379 433L373 452Q225 417 59 407L59 407L56 427Q112 434 180 447L180 447Q192 511 192 528L192 528Q186 579 165 623L165 623Q118 590 49 554L49 554L43 568Q173 682 252 823L252 823L333 753Q325 746 314 744L314 744Q303 743 286 748L286 748Q243 688 194 646L194 646Q251 578 255 559L255 559Q271 580 362 735L362 735Q373 754 383 771L383 771L404 757Q310 569 296 535L296 535Q287 511 289 506L289 506Q291 502 294 499L294 499Q283 481 238 459L238 459Q373 492 507 549L507 549Q420 594 363 644L363 644Q545 721 649 822L649 822L745 764Q737 753 723 751L723 751Q710 751 697 756L697 756Q568 679 431 638L431 638Q501 604 573 579L573 579Q703 644 820 724L820 724L901 670Q888 659 878 660L878 660Q868 661 858 667L858 667Q762 602 659 553ZM792-77L792-77Q724-77 710-49L710-49Q702-33 702-5L702-5L702 425L806 413Q801 391 769 385L769 385L769 186Q808 253 828 314L828 314L913 263Q905 251 890 250L890 250Q886 250 875 252L875 252Q839 204 769 147L769 147L769 12Q769-17 780-19L780-19Q783-20 785-20L785-20Q808-20 814-18L814-18Q826-13 832 2L832 2Q843 28 862 135L862 135L880 135L881-6Q909-15 912-28L912-28Q912-31 912-33L912-33Q912-70 836-76L836-76Q817-77 792-77ZM120-43L110-43L110 354L211 343Q204 320 175 315L175 315L175-22Q174-30 142-39L142-39Q129-43 120-43L120-43ZM588 237L525 271Q486 247 442 231L442 231Q455 201 463 192L463 192Q474 184 493 185L493 185Q543 196 588 237L588 237Z"/></svg>