<svg id="U17DD6" viewBox="0 0 1000 1000"><path transform="translate(0, 900) scale(1,-1)" d="M202 674L74 674L65 704L202 704L202 811L303 800Q296 777 267 772L267 772L267 704L363 704L363 820L464 809Q457 786 428 781L428 781L428 704L523 704L523 820L624 809Q617 786 588 781L588 781L588 704L683 704L683 811L784 800Q777 777 748 772L748 772L748 704L800 704L850 769L943 690Q937 675 916 674L916 674L748 674L748 618Q747 610 715 601L715 601Q702 597 693 597L693 597L683 597L683 674L588 674L588 598Q586 595 575 588L575 588Q640 560 641 515L641 515Q641 486 617 477L617 477Q595 469 573 490L573 490Q568 535 539 577L539 577L523 577L523 674L428 674L428 602Q427 594 395 585L395 585Q382 581 373 581L373 581L363 581L363 674L267 674L267 602Q266 594 234 585L234 585Q221 581 212 581L212 581L202 581L202 674ZM815 556L815 556Q775 508 724 463L724 463L830 463L867 513L941 449Q935 434 914 433L914 433L460 433L451 463L691 463Q718 517 752 605L752 605L855 572Q841 553 815 556ZM384 193L384 193Q359 227 268 278L268 278Q165 222 58 204L58 204L52 220Q132 248 216 305L216 305Q154 337 86 363L86 363Q170 411 255 497L255 497L81 497L72 527L347 527L384 577L458 513Q452 498 431 497L431 497L287 497L356 446Q346 434 331 436L331 436Q318 439 316 440L316 440Q262 406 157 369L157 369Q180 361 222 347L222 347Q247 339 258 335L258 335Q318 381 377 439L377 439L455 377Q444 367 431 368L431 368Q421 370 414 376L414 376Q362 336 323 311L323 311Q419 275 444 246L444 246Q462 224 440 203L440 203Q430 194 419 192L419 192Q402 190 384 193ZM905 237L905 237Q871 191 809 136L809 136L809 10Q809-18 817-21L817-21Q820-22 822-22L822-22Q840-22 845-21L845-21Q857-14 863 0L863 0Q873 25 892 121L892 121L909 121L910-8Q938-17 941-30L941-30Q941-33 941-35L941-35Q934-78 831-79L831-79Q764-79 750-51L750-51Q742-36 742-7L742-7L742 60Q734 59 718 59L718 59Q664-22 585-57L585-57Q578-60 573-62L573-62Q523-81 462-75L462-75Q481-38 481-12L481-12Q482-3 482 8L482 8Q445-7 395-20L395-20L390-8Q437 11 480 42L480 42L480 43L482 44Q525 74 565 116L565 116L532 135L516 113L438 160Q455 176 478 176L478 176L600 248L470 248L461 278L604 278L650 307L707 249Q692 230 667 233L667 233L546 166L589 143Q618 177 636 203L636 203L731 168Q722 147 690 155L690 155Q660 127 645 114L645 114L659 106L701 134L742 89L742 344Q734 340 725 340L725 340L484 340L475 370L641 370L678 420L742 365L742 404L846 392Q841 370 809 364L809 364L809 180Q838 238 858 298L858 298L943 248Q935 236 920 235L920 235Q916 235 905 237ZM414 42L275 42L275-52Q274-60 243-70L243-70Q231-73 222-73L222-73L212-73L212 42L87 42L78 72L212 72L212 154L116 154L107 184L293 184L327 230L397 170Q391 155 370 154L370 154L275 154L275 72L337 72L371 119L441 58Q435 43 414 42L414 42ZM544-17L544-17Q579-8 623 43L623 43Q635 57 645 71L645 71L615 88Q559 44 503 18L503 18Q511-1 516-8L516-8Q529-18 544-17Z"/></svg>