<svg id="U17D20" viewBox="0 0 1000 1000"><path transform="translate(0, 900) scale(1,-1)" d="M654 366L723 341L723 745L824 734Q817 711 788 706L788 706L788-19Q787-27 755-36L755-36Q742-40 733-40L733-40L723-40L723 311L714 311Q692 224 654 146L654 146Q715 15 694-50L694-50Q683-81 657-79L657-79Q652-78 647-76L647-76Q633-68 625-53L625-53Q626 10 615 73L615 73Q563-10 496-77L496-77L482-68Q553 25 598 149L598 149Q583 205 558 268L558 268Q541 242 520 217L520 217L520 52Q519 44 487 35L487 35Q474 31 465 31L465 31L455 31L455 434Q445 425 420 407L420 407L445 388Q432 374 402 368L402 368L402-13Q381-31 347-34L347-34L337-34L337 381L291 381L291-54Q290-62 258-71L258-71Q245-75 236-75L236-75L226-75L226 183Q208 131 198 94L198 94Q187 49 192 18L192 18Q182-9 140-38L140-38Q118-53 105-54L105-54Q116 38 114 74L114 74Q111 146 93 227L93 227Q65 192 40 167L40 167L29 177Q106 315 149 483L149 483L226 446L226 531L147 531L116 500L49 557Q73 576 97 579L97 579L127 761L215 738Q208 715 177 711L177 711L152 561L226 561L226 824L327 813Q320 790 291 785L291 785L291 561L327 561L371 619L455 547Q449 532 428 531L428 531L291 531L291 409L327 409L363 450L400 422Q533 540 605 732L605 732Q622 776 633 820L633 820L732 778Q723 766 708 765L708 765Q702 765 689 767L689 767Q628 610 520 494L520 494L520 260Q587 401 614 591L614 591L716 555Q707 540 690 537L690 537Q686 536 677 536L677 536Q636 391 573 290L573 290Q600 249 619 213L619 213Q639 280 654 366L654 366ZM840-75L840 824L941 813Q934 790 905 785L905 785L905-54Q904-62 872-71L872-71Q859-75 850-75L850-75L840-75ZM452 646L452 646Q455 689 442 735L442 735Q432 767 409 807L409 807L421 814Q469 780 503 735L503 735Q536 685 527 649L527 649Q520 620 492 621L492 621Q488 621 483 622L483 622Q465 626 452 646ZM163 137L163 137Q178 164 226 276L226 276L226 421Q210 419 201 421L201 421Q168 330 119 260L119 260Q153 184 163 137Z"/></svg>