<svg id="U17FBC" viewBox="0 0 1000 1000"><path transform="translate(0, 900) scale(1,-1)" d="M977 398L978 387Q932 364 928 310L928 310Q808 335 708 398L708 398Q597 338 475 310L475 310Q471 277 444 274L444 274Q431 273 414 282L414 282Q382 359 307 441L307 441Q212 342 84 275L84 275L73 288Q183 366 268 480L268 480Q219 526 154 570L154 570Q122 548 90 531L90 531L79 544Q198 638 288 820L288 820Q289 823 289 823L289 823L382 777Q374 764 359 763L359 763Q355 763 343 765L343 765Q266 653 174 584L174 584Q239 553 295 518L295 518Q345 592 384 671L384 671L480 632Q472 619 458 617L458 617Q453 616 442 618L442 618Q399 545 346 483L346 483Q458 399 473 333L473 333Q566 367 663 429L663 429Q622 461 587 496L587 496Q520 468 449 455L449 455L444 470Q623 534 794 707L794 707L875 653Q864 641 852 642L852 642Q843 644 834 649L834 649Q719 554 613 507L613 507Q654 479 704 458L704 458Q789 521 861 596L861 596L944 541Q932 529 921 530L921 530Q912 531 903 536L903 536Q832 474 768 434L768 434Q871 401 977 398L977 398ZM749 753L749 753Q642 654 510 614L510 614L503 630Q608 686 706 809L706 809L790 759Q780 746 768 747L768 747Q759 748 749 753ZM624 289L768 289L804 328L885 267Q871 254 844 248L844 248L844-51Q843-59 811-68L811-68Q798-72 789-72L789-72L779-72L779 42L613 42L613-50Q612-58 580-67L580-67Q567-71 558-71L558-71L548-71L548 322L568 313L624 289ZM334 139L334 139Q448 34 446-40L446-40Q443-77 415-79L415-79Q413-79 411-79L411-79Q398-79 381-67L381-67Q356 14 295 96L295 96Q190-13 51-80L51-80L40-66Q158 14 255 146L255 146Q200 209 135 260L135 260L148 275Q214 236 282 184L282 184Q317 235 350 298L350 298L445 244Q435 232 419 233L419 233Q418 233 415 234L415 234Q409 235 406 236L406 236Q367 178 334 139ZM779 181L779 259L613 259L613 181L779 181ZM613 151L613 72L779 72L779 151L613 151Z"/></svg>