<svg id="U176A5" viewBox="0 0 1000 1000"><path transform="translate(0, 900) scale(1,-1)" d="M804 718L854 783L947 704Q941 689 920 688L920 688L728 688L728 608Q727 600 695 591L695 591Q682 587 673 587L673 587L663 587L663 688L514 688L514 599Q513 591 481 582L481 582Q468 578 459 578L459 578L449 578L449 688L304 688L304 605Q303 597 271 588L271 588Q258 584 249 584L249 584L239 584L239 688L72 688L63 718L239 718L239 821L340 810Q333 787 304 782L304 782L304 718L449 718L449 826L550 815Q543 792 514 787L514 787L514 718L663 718L663 821L764 810Q757 787 728 782L728 782L728 718L804 718ZM651 188L800 188L835 231L917 168Q905 156 881 155L881 155Q782-3 517-75L517-75L506-55Q719 21 798 158L798 158L630 158L606 139L560 200Q571 205 600 209L600 209L777 339L622 339L598 320L552 382Q562 385 592 390L592 390L764 499L568 499L560 529L779 529L817 568L893 507Q881 495 857 494L857 494L643 369L786 369L823 409L901 349Q889 337 865 336L865 336L651 188ZM420 528L456 567L536 506Q522 493 495 487L495 487L495 98Q494 90 462 80L462 80Q451 77 442 77L442 77L432 77L432 141Q427 141 420 145L420 145Q392 113 359 83L359 83Q440 8 438-41L438-41Q439-71 415-79L415-79Q410-80 405-80L405-80Q388-77 376-68L376-68Q360-14 317 47L317 47Q203-41 64-77L64-77L57-63Q172-12 279 96L279 96Q243 135 210 164L210 164Q198 158 177 148L177 148L177 41Q176 33 146 24L146 24Q134 20 125 20L125 20L115 20L115 561L128 555L188 528L420 528ZM312 498L177 498L177 326Q249 388 312 498L312 498ZM177 303L177 172Q277 251 362 385L362 385L432 333L432 498L337 498L403 450Q390 439 375 442L375 442Q370 442 363 445L363 445Q287 356 177 303L177 303ZM379 218L432 171L432 317Q426 316 417 317L417 317Q412 316 404 320L404 320Q327 230 232 176L232 176Q276 148 306 126L306 126Q342 165 379 218L379 218Z"/></svg>