<svg id="U171DA" viewBox="0 0 1000 1000"><path transform="translate(0, 900) scale(1,-1)" d="M754 757L754 757Q537 569 116 499L116 499L109 517Q523 626 697 824L697 824L792 767Q783 755 769 754L769 754Q763 754 754 757ZM306 742L306 742Q280 774 245 802L245 802L255 813Q319 795 370 762L370 762Q429 721 433 679L433 679Q434 649 407 639L407 639Q401 637 395 637L395 637Q372 636 353 653L353 653Q340 700 306 742ZM164 400L161 418Q423 470 700 659L700 659L777 596Q765 585 753 588L753 588Q743 590 735 596L735 596Q460 428 164 400L164 400ZM836 144L876 198L955 130Q949 115 928 114L928 114L734 114L734-54Q733-62 701-71L701-71Q688-75 679-75L679-75L669-75L669 114L362 114L362-49Q361-57 329-66L329-66Q316-70 307-70L307-70L297-70L297 114L119 114L110 144L297 144L297 300Q227 288 141 283L141 283L139 301Q426 346 736 529L736 529L810 463Q797 454 786 456L786 456Q778 458 769 464L769 464Q563 354 355 311L355 311L373 303L658 303L694 342L775 281Q761 268 734 262L734 262L734 144L836 144ZM362 273L362 144L669 144L669 273L362 273Z"/></svg>