<svg id="U171B2" viewBox="0 0 1000 1000"><path transform="translate(0, 900) scale(1,-1)" d="M929 721L781 721L781 340Q842 414 869 484L869 484L947 427Q939 415 924 414L924 414Q920 414 909 416L909 416Q862 356 781 308L781 308L781 14Q781-14 796-16L796-16Q799-17 802-17L802-17Q827-17 831-16L831-16Q844-10 851 7L851 7Q863 37 891 218L891 218L907 218L908-2Q944-14 945-31L945-31Q945-61 902-70L902-70Q872-75 807-75L807-75Q737-75 722-46L722-46Q714-30 714-3L714-3L714 381Q706 377 696 377L696 377L586 377Q522 277 448 207L448 207Q479 184 519 149L519 149Q563 220 597 306L597 306L690 256Q681 244 665 244L665 244Q663 245 659 245L659 245Q654 246 652 246L652 246Q613 168 562 107L562 107Q648 13 641-42L641-42Q639-73 614-78L614-78Q608-79 603-78L603-78Q586-74 575-63L575-63Q565-5 526 67L526 67Q443-19 326-78L326-78L314-65Q418 5 495 115L495 115Q465 158 432 192L432 192Q392 156 337 119L337 119L327 129Q440 226 524 377L524 377L432 377L432 302Q431 294 406 285L406 285Q395 281 388 281L388 281L378 281L378 362L371 356L315 410Q337 422 369 428L369 428L378 434L378 559L463 548Q456 527 432 522L432 522L432 471L605 589L351 589L342 619L505 619Q536 707 566 824L566 824L669 790Q655 771 629 774L629 774Q590 697 532 619L532 619L591 619L619 655L707 582Q695 570 667 569L667 569L531 483L531 407L540 407Q565 455 588 511L588 511L671 473Q662 460 646 460L646 460Q638 460 633 461L633 461Q623 442 604 407L604 407L625 407L656 450L714 401L714 721L670 721L661 751L824 751L869 811L956 737Q950 722 929 721L929 721ZM414 685L414 685Q416 748 373 812L373 812L386 816Q475 775 483 718L483 718Q488 684 463 670L463 670Q437 655 414 685ZM250 810L351 799Q344 776 315 771L315 771L315 5Q314-3 282-12L282-12Q269-16 260-16L260-16L250-16L250 810ZM127 502L127 722L226 711Q221 688 194 682L194 682Q192 682 192 682L192 682Q192 651 193 576L193 576Q193 518 193 502L193 502Q193 214 127 57L127 57Q105 5 75-38L75-38L59-28Q123 133 127 440L127 440Q127 469 127 502L127 502ZM480 450L432 420L432 407L480 407L480 450Z"/></svg>