<svg id="U17074" viewBox="0 0 1000 1000"><path transform="translate(0, 900) scale(1,-1)" d="M506 519L367 519L367-53Q366-61 334-70L334-70Q321-74 312-74L312-74L302-74L302 519L184 519L175 549L319 549Q369 656 422 809L422 809L524 773Q510 754 484 757L484 757Q422 645 344 549L344 549L415 549L455 602L533 535Q527 520 506 519L506 519ZM186 800L199 804Q299 752 310 687L310 687Q317 650 292 636L292 636Q268 621 244 650L244 650Q243 717 186 800L186 800ZM852 718L852 718Q766 581 576 485L576 485L576-56Q575-64 543-73L543-73Q530-77 521-77L521-77L511-77L511 455Q467 436 406 414L406 414L398 428Q662 555 774 725L774 725L544 725L535 754L774 754L805 793L892 731Q880 719 852 718ZM91 717L192 706Q185 683 156 678L156 678L156-53Q155-61 123-70L123-70Q110-74 101-74L101-74L91-74L91 717ZM849 208L887 258L962 194Q956 179 935 178L935 178L786 178L786-53Q785-61 753-70L753-70Q740-74 731-74L731-74L721-74L721 178L598 178L589 208L721 208L721 370L618 370L609 400L721 400L721 564L822 553Q815 530 786 525L786 525L786 400L823 400L861 451L936 386Q930 371 909 370L909 370L786 370L786 208L849 208Z"/></svg>