<svg id="U17E93" viewBox="0 0 1000 1000"><path transform="translate(0, 900) scale(1,-1)" d="M380 749L380 749Q266 594 116 525L116 525Q113 524 112 523L112 523L102 536Q228 628 328 811L328 811Q332 817 334 821L334 821L421 753Q410 742 393 745L393 745Q389 745 380 749ZM777 136L777 136Q857 55 961-6L961-6L960-17Q926-17 900-62L900-62Q897-69 894-75L894-75Q797-3 733 91L733 91Q632-5 493-73L493-73L483-59Q608 19 703 138L703 138Q663 207 636 289L636 289Q620 279 568 251L568 251L559 263Q727 386 798 565L798 565L600 565L591 594L707 594Q734 662 783 814L783 814L885 780Q871 761 845 764L845 764Q794 670 731 594L731 594L795 594L826 633L913 571Q901 559 873 558L873 558Q803 402 658 304L658 304Q689 238 736 182L736 182Q795 263 842 369L842 369L934 317Q924 305 908 305L908 305Q902 305 895 308L895 308Q843 210 777 136ZM629 674L629 674Q630 734 585 799L585 799L597 803Q685 766 697 711L697 711Q705 676 679 661L679 661Q654 645 629 674ZM537 727L537 40Q536 32 504 23L504 23Q491 19 482 19L482 19L472 19L472 766L573 755Q566 732 537 727L537 727ZM57 287L48 302Q212 393 349 600L349 600Q351 602 352 604L352 604L440 535Q428 525 413 528L413 528Q409 528 400 532L400 532Q314 430 220 368L220 368L220-54Q219-62 187-71L187-71Q174-75 165-75L165-75L155-75L155 330Q100 302 57 287L57 287ZM325-77L315-77L315 394L416 383Q409 360 380 355L380 355L380-56Q379-64 347-73L347-73Q334-77 325-77L325-77Z"/></svg>