<svg id="U179BA" viewBox="0 0 1000 1000"><path transform="translate(0, 900) scale(1,-1)" d="M865 185L865 185Q805 121 738 70L738 70Q823 25 930 8L930 8L930-3Q890-14 878-67L878-67Q877-70 877-71L877-71Q768-35 688 35L688 35Q581-35 448-74L448-74L439-58Q552-7 649 75L649 75Q615 113 585 164L585 164Q541 138 495 120L495 120L495 32Q494 24 462 15L462 15Q449 11 440 11L440 11L430 11L430 683L505 650L644 650L644 816L745 805Q738 782 709 777L709 777L709 650L791 650L841 714Q875 688 934 635L934 635Q928 620 910 620L910 620L495 620L495 146Q604 225 692 358L692 358L546 358L537 388L790 388L790 490L551 490L542 520L780 520L819 562L899 498Q889 486 858 479L858 479L858 347Q857 338 827 327L827 327Q812 322 801 322L801 322L790 322L790 358L696 358L778 292Q766 281 750 285L750 285Q747 285 738 289L738 289Q672 219 605 176L605 176Q639 136 682 105L682 105Q757 174 820 256L820 256L905 188Q893 177 877 181L877 181Q874 181 865 185ZM316 750L316 750Q231 580 105 483L105 483L92 494Q189 611 250 806L250 806L353 765Q346 752 330 750L330 750Q324 749 316 750ZM253 209L253 209Q291 287 320 378L320 378L422 333Q412 320 395 318L395 318Q394 318 390 318L390 318Q384 319 382 319L382 319Q345 228 294 154L294 154Q381 28 369-43L369-43Q364-73 340-78L340-78Q333-79 327-77L327-77Q314-71 301-59L301-59Q293 10 256 102L256 102Q176 1 60-81L60-81L47-68Q151 25 228 163L228 163Q197 226 160 281L160 281Q128 252 87 222L87 222L76 234Q202 366 290 596L290 596L388 552Q379 540 363 538L363 538Q355 538 350 539L350 539Q272 391 176 297L176 297Q220 251 253 209Z"/></svg>