<svg id="U177BE" viewBox="0 0 1000 1000"><path transform="translate(0, 900) scale(1,-1)" d="M239 689L78 689L69 719L239 719L239 822L340 811Q333 788 304 783L304 783L304 719L449 719L449 827L550 816Q543 793 514 788L514 788L514 719L663 719L663 822L764 811Q757 788 728 783L728 783L728 719L808 719L858 784L951 705Q945 690 924 689L924 689L728 689L728 607Q727 599 695 590L695 590Q682 586 673 586L673 586L663 586L663 689L514 689L514 598Q513 590 481 581L481 581Q468 577 459 577L459 577L449 577L449 689L304 689L304 604Q303 596 271 587L271 587Q258 583 249 583L249 583L239 583L239 689ZM98 235L91 248Q205 299 279 397L279 397L104 397L95 426L210 426Q247 504 276 579L276 579L372 547Q358 528 332 531L332 531Q292 475 242 426L242 426L277 426L308 465L395 403Q383 391 355 390L355 390Q321 345 274 314L274 314Q227 282 192 268L192 268Q156 253 99 235L99 235L98 235ZM84 568L95 574Q184 549 198 499L198 499Q207 469 184 455L184 455Q162 442 138 463L138 463Q129 518 84 568L84 568ZM679 573L779 563Q777 541 746 536L746 536Q744 536 744 536L744 536L744 434L809 434L845 482L916 420Q910 405 890 404L890 404L575 404L567 434L679 434L679 573ZM856 276L955 240Q947 227 931 225L931 225Q923 225 918 226L918 226Q880 147 802 80L802 80Q802 80 800 78L800 78L800 13Q800-15 804-18L804-18Q807-20 810-20L810-20L831-18Q833-17 834-17L834-17Q843-12 850 3L850 3Q866 39 881 141L881 141L898 141L899-2Q926-18 929-31L929-31Q929-66 851-75L851-75Q835-76 821-76L821-76Q759-75 747-53L747-53Q740-39 740-11L740-11L740 276L667 276L667-55Q666-63 637-72L637-72Q625-76 616-76L616-76L606-76L606 268Q597 266 592 267L592 267Q563 190 525 124L525 124Q584 10 568-48L568-48Q560-77 537-79L537-79Q529-79 523-76L523-76Q510-71 499-55L499-55Q499-9 485 60L485 60Q428-21 351-85L351-85L338-74Q413 12 464 135L464 135Q443 200 413 262L413 262Q388 232 361 204L361 204L347 213L357 229Q352 228 345 228L345 228Q337 229 327 234L327 234Q259 165 178 127L178 127Q215 107 244 86L244 86Q288 132 324 182L324 182L406 122Q395 112 382 113L382 113Q371 116 365 119L365 119Q324 75 290 47L290 47Q324 13 325-12L325-12Q325-46 299-51L299-51Q294-52 291-52L291-52Q278-51 261-41L261-41Q253-13 239 10L239 10Q153-48 46-72L46-72L39-56Q127-21 211 54L211 54Q186 86 153 116L153 116Q110 100 68 90L68 90L61 105Q186 158 286 294L286 294L364 241Q435 373 468 553L468 553L575 522Q566 508 551 504L551 504Q550 504 546 504L546 504Q540 503 538 503L538 503Q492 369 426 279L426 279Q455 241 487 192L487 192Q508 250 523 314L523 314L606 291L606 337L631 327L678 306L729 306L765 344L841 284Q827 271 800 265L800 265L800 115Q837 184 856 276L856 276Z"/></svg>