<svg id="U17344" viewBox="0 0 1000 1000"><path transform="translate(0, 900) scale(1,-1)" d="M494 231L494 231Q537 308 571 392L571 392L670 343Q660 330 643 329L643 329Q635 329 630 330L630 330Q590 249 537 175L537 175Q637 34 617-45L617-45Q608-79 582-78L582-78Q577-78 574-77L574-77Q558-71 547-59L547-59Q541 27 497 126L497 126Q401 14 263-71L263-71L251-58Q376 43 468 188L468 188Q426 262 384 316L384 316Q344 289 283 258L283 258L274 270Q456 396 535 584L535 584L347 584L338 613L463 613Q492 687 537 823L537 823L633 783Q622 765 595 769L595 769Q593 770 592 770L592 770Q546 685 487 613L487 613L533 613L564 652L651 590Q639 578 611 577L611 577Q544 431 404 329L404 329Q454 280 494 231ZM345 807L358 812Q446 772 456 718L456 718Q463 683 438 670L438 670Q414 657 391 683L391 683Q390 746 345 807L345 807ZM916 218L917-2Q953-14 954-31L954-31Q954-59 919-67L919-67Q886-75 789-75L789-75Q718-75 703-45L703-45Q695-30 695-3L695-3L695 810L799 798Q794 776 762 770L762 770L762 367Q837 441 875 540L875 540L952 482Q944 470 929 469L929 469Q925 469 914 471L914 471Q860 389 762 339L762 339L762 14Q762-13 779-16L779-16Q783-17 788-17L788-17Q833-17 839-15L839-15Q852-10 859 7L859 7Q872 40 900 218L900 218L916 218ZM355 428L222 428L222-54Q221-62 190-72L190-72Q178-75 169-75L169-75L159-75L159 428L58 428L49 458L159 458L159 698L76 698L67 728L229 728L269 781L348 714Q342 699 321 698L321 698L222 698L222 458L264 458L304 511L382 444Q376 429 355 428L355 428Z"/></svg>