<svg id="U1730" viewBox="0 0 958 1000"><path transform="translate(0, 900) scale(1,-1)" d="M855-139L782-139Q782-77 789.50-17.50Q797 42 807 73L807 73Q779 58 739 41Q699 24 650 12Q601 0 545 0L545 0L526 0Q585 125 633.50 253.50Q682 382 712 502L712 502Q650 439 582.50 371Q515 303 443 235.50Q371 168 296 107.50Q221 47 143 0L143 0L64 0Q107 90 137.50 164Q168 238 191 303Q214 368 231 429.50Q248 491 264 555L264 555L48 467L67 551L229 618Q267 634 302 634L302 634Q325 634 335 619Q345 604 345 586L345 586Q345 567 335.50 525Q326 483 310.50 428Q295 373 276 315Q257 257 237 205.50Q217 154 200 121L200 121Q295 193 388 280Q481 367 570.50 458.50Q660 550 742 634L742 634L821 634Q800 534 773.50 435Q747 336 714 245.50Q681 155 639 78L639 78Q678 87 721 106.50Q764 126 804.50 151Q845 176 873 199L873 199L936 199Q907 161 889 104.50Q871 48 863-15.50Q855-79 855-139L855-139Z"/></svg>