<svg id="U1718C" viewBox="0 0 1000 1000"><path transform="translate(0, 900) scale(1,-1)" d="M887 130L916 170L977 116Q971 101 950 100L950 100L857 100L857-39Q836-57 802-60L802-60L792-60L792 100L740 100L740-53Q739-61 707-70L707-70Q694-74 685-74L685-74L675-74L675 185Q639 106 633 88L633 88Q620 43 627 16L627 16Q616-10 574-37L574-37Q551-52 538-52L538-52Q539-42 542-19L542-19Q550 43 549 67L549 67Q544 140 526 203L526 203Q502 181 480 164L480 164L471 175Q496 212 513 242L513 242L513 243L514 243Q558 321 591 417L591 417L675 364L675 470L574 470L549 449L493 503Q515 515 547 521L547 521L675 590L675 663L556 663L547 693L675 693L675 824L776 813Q769 790 740 785L740 785L740 693L802 693L830 729L918 656Q906 644 878 643L878 643L740 573L740 500L811 500L859 562L948 486Q942 471 921 470L921 470L740 470L740 379L782 379L818 420L900 358Q887 344 857 338L857 338L857 254L866 254L894 294L955 240Q949 225 928 224L928 224L857 224L857 130L887 130ZM317 528L303 538Q365 644 399 817L399 817L503 778Q495 764 478 761L478 761L465 761Q407 621 317 528L317 528ZM509 337L509 337Q479 244 439 169L439 169Q528 33 509-39L509-39Q501-72 476-74L476-74Q471-74 467-73L467-73Q454-70 440-56L440-56Q440 23 407 115L407 115Q340 11 244-75L244-75L229-64Q319 38 379 183L379 183Q357 231 324 282L324 282Q288 246 281 240L281 240L281 67Q280 59 248 50L248 50Q235 46 226 46L226 46L216 46L216 810L317 799Q310 776 281 771L281 771L281 274Q375 416 430 617L430 617L533 575Q522 562 507 560L507 560Q506 560 503 560L503 560Q497 559 494 559L494 559Q425 399 337 297L337 297Q370 262 396 228L396 228Q426 310 443 393L443 393L547 355Q540 341 522 338L522 338Q518 337 509 337ZM107 502L107 722L206 711Q201 688 174 682L174 682Q173 682 172 682L172 682Q172 651 173 576L173 576Q173 518 173 502L173 502Q173 214 107 57L107 57Q85 5 55-38L55-38L39-28Q103 133 107 440L107 440Q107 469 107 502L107 502ZM810 663L740 663L740 625L810 663ZM675 540L595 500L675 500L675 540ZM598 125L598 125Q607 137 670 249L670 249Q673 255 675 258L675 258L675 357Q669 352 660 350L660 350Q649 347 633 350L633 350Q600 278 552 229L552 229Q592 159 598 125ZM792 254L792 351L740 351L740 254L792 254ZM740 224L740 130L792 130L792 224L740 224Z"/></svg>