<svg id="U17385" viewBox="0 0 1000 1000"><path transform="translate(0, 900) scale(1,-1)" d="M475 605L369 605L369-54Q368-62 336-71L336-71Q323-75 314-75L314-75L304-75L304 295Q258 174 251 137L251 137Q240 98 248 52L248 52Q239 26 198-5L198-5Q176-21 164-22L164-22Q171 69 168 115L168 115Q163 205 133 307L133 307Q105 279 57 238L57 238L47 252Q147 393 197 550L197 550L296 497Q289 488 278 484L278 484Q265 480 249 483L249 483Q210 395 157 334L157 334Q197 255 213 191L213 191Q214 188 214 186L214 186Q235 220 304 375L304 375L304 605L100 605L91 635L304 635L304 823L405 812Q398 789 369 784L369 784L369 635L384 635L424 688L502 621Q496 606 475 605L475 605ZM825 749L856 788L943 726Q931 714 903 713L903 713Q830 596 647 507L647 507Q613 491 567 471L567 471L559 483Q749 596 826 720L826 720L611 720L602 749L825 749ZM596 446L619 438Q569 165 564 132L564 132Q556 89 556 36L556 36Q547 12 501-17L501-17Q475-33 460-33L460-33Q473 42 476 119L476 119Q478 227 454 366L454 366Q435 339 393 292L393 292L381 303Q471 467 527 674L527 674L632 629Q625 618 612 615L612 615Q596 612 584 614L584 614Q539 489 481 403L481 403Q514 300 531 201L531 201Q532 199 532 197L532 197Q536 211 596 446L596 446ZM816-71L806-71L806 556L907 545Q900 522 871 517L871 517L871-50Q870-58 838-67L838-67Q825-71 816-71L816-71ZM654 318L654 462L753 451Q748 428 721 422L721 422Q719 422 719 422L719 422Q719 402 720 353L720 353Q720 321 720 310L720 310Q720 68 610-67L610-67Q606-72 603-75L603-75L589-64Q650 51 654 268L654 268Q654 291 654 318L654 318Z"/></svg>