<svg id="U17694" viewBox="0 0 1000 1000"><path transform="translate(0, 900) scale(1,-1)" d="M799 711L849 776L942 697Q936 682 915 681L915 681L720 681L720 598Q719 590 687 581L687 581Q674 577 665 577L665 577L655 577L655 681L507 681L507 589Q506 581 474 572L474 572Q461 568 452 568L452 568L442 568L442 681L298 681L298 595Q297 587 265 578L265 578Q252 574 243 574L243 574L233 574L233 681L73 681L64 711L233 711L233 823L334 812Q327 789 298 784L298 784L298 711L442 711L442 829L543 818Q536 795 507 790L507 790L507 711L655 711L655 823L756 812Q749 789 720 784L720 784L720 711L799 711ZM806 269L806 269Q761 185 699 113L699 113Q789 48 892-3L892-3L889-14Q848-15 824-57L824-57Q819-66 816-76L816-76Q726-14 650 62L650 62Q561-20 447-78L447-78L437-64Q534 1 614 101L614 101Q539 186 501 261L501 261Q592 384 655 548L655 548L760 506Q754 490 738 489L738 489Q731 488 724 489L724 489Q721 490 719 490L719 490Q648 354 538 262L538 262Q578 208 650 150L650 150Q706 233 746 330L746 330L844 280Q835 267 818 268L818 268Q810 268 806 269ZM344 484L380 523L461 462Q447 449 420 443L420 443L420-21Q419-29 387-38L387-38Q374-42 365-42L365-42L355-42L355 454L211 454L211-53Q210-61 178-70L178-70Q165-74 156-74L156-74L146-74L146 517L159 512L222 484L344 484ZM881 401L881 401Q923 359 922 321L922 321Q919 290 893 286L893 286Q888 286 884 286L884 286Q869 287 853 301L853 301Q837 386 774 454L774 454Q771 458 769 460L769 460L780 469Q836 440 881 401Z"/></svg>