<svg id="U174BF" viewBox="0 0 1000 1000"><path transform="translate(0, 900) scale(1,-1)" d="M847 701L940 622Q934 607 913 606L913 606L71 606L62 636L525 636Q589 717 650 822L650 822L751 784Q738 766 711 769L711 769Q641 697 557 636L557 636L797 636L847 701ZM342 664L342 664Q316 734 233 807L233 807L243 815Q361 790 394 726L394 726Q413 688 391 666L391 666Q372 648 342 664ZM205 275L381 275L422 329L501 261Q495 246 474 245L474 245L186 245L161 224L105 278Q127 290 159 296L159 296L381 408L139 408L130 438L285 438Q320 499 359 585L359 585L462 553Q448 534 422 537L422 537Q375 484 314 438L314 438L371 438L399 474L486 401Q474 389 446 388L446 388L205 275ZM142 574L153 580Q242 565 256 516L256 516Q266 486 243 470L243 470Q219 454 192 477L192 477Q183 531 142 574L142 574ZM494 483L485 513L782 513L819 563L892 499Q886 484 865 483L865 483L494 483ZM835 134L872 182L941 115Q936 104 921 104L921 104L775 104L775-54Q774-62 742-71L742-71Q729-75 720-75L720-75L710-75L710 104L588 104L588-53Q587-61 555-70L555-70Q542-74 533-74L533-74L523-74L523 421L536 415L599 388L699 388L735 427L816 366Q802 353 775 347L775 347L775 262L806 262L842 309L910 244Q906 233 890 232L890 232L775 232L775 134L835 134ZM710 262L710 358L588 358L588 262L710 262ZM588 232L588 134L710 134L710 232L588 232ZM172 155L172 212L274 200Q269 175 239 169L239 169Q238 169 237.50 169Q237 169 237 169L237 169L237 136Q237 50 172-27L172-27Q149-54 121-74L121-74L109-62Q168 3 172 124L172 124Q172 138 172 155L172 155ZM343-71L333-71L333 205L434 194Q427 171 398 166L398 166L398-50Q397-58 365-67L365-67Q352-71 343-71L343-71Z"/></svg>