<svg id="U17D8D" viewBox="0 0 1000 1000"><path transform="translate(0, 900) scale(1,-1)" d="M906 222L907-3Q940-17 943-31L943-31Q943-60 861-69L861-69Q799-75 628-75L628-75Q560-75 546-46L546-46Q539-31 539-6L539-6L539 655L615 622L826 622L826 744L527 744L518 774L816 774L855 816L935 752Q925 740 894 733L894 733L894 578Q893 569 863 558L863 558Q848 553 837 553L837 553L826 553L826 592L606 592L606 489L735 489L771 541Q792 525 850 474L850 474Q844 459 825 459L825 459L606 459L606 369L723 369L759 421Q780 405 838 354L838 354Q832 339 813 339L813 339L606 339L606 254L729 254L765 306Q786 290 844 239L844 239Q838 224 819 224L819 224L606 224L606 132L743 132L779 184Q800 168 858 117L858 117Q852 102 833 102L833 102L606 102L606 11Q606-12 626-16L626-16Q634-17 643-17L643-17Q814-17 825-15L825-15Q839-9 847 6L847 6Q869 62 893 222L893 222L906 222ZM453 722L127 722L118 752L362 752L402 805L480 738Q474 723 453 722L453 722ZM87 582L392 582L432 635L510 568Q504 553 483 552L483 552L96 552L87 582ZM281 170L281 170Q340 257 387 365L387 365L483 309Q472 296 456 297L456 297Q452 297 443 299L443 299Q393 207 330 132L330 132Q434 42 442-22L442-22Q445-67 416-73L416-73Q414-74 413-74L413-74Q397-76 381-67L381-67Q360 9 291 89L291 89Q195-11 68-83L68-83L57-70Q167 14 253 130L253 130Q191 190 108 243L108 243Q213 373 280 538L280 538L380 485Q373 474 353 476L353 476Q348 477 343 479L343 479Q272 346 157 249L157 249Q228 211 281 170Z"/></svg>