<svg id="U1758F" viewBox="0 0 1000 1000"><path transform="translate(0, 900) scale(1,-1)" d="M901 109L901-4Q930-12 932-26L932-26Q933-30 933-33L933-33Q933-68 845-74L845-74Q831-75 817-75L817-75L742-75Q694-75 686-47L686-47Q682-35 682-15L682-15L682 119L551 119L551-54Q550-62 518-71L518-71Q505-75 496-75L496-75L486-75L486 814L587 803Q580 780 551 775L551 775L551 690L724 690L767 747L850 676Q844 661 823 660L823 660L551 660L551 571L746 571L794 633Q828 608 885 556L885 556Q879 541 860 541L860 541L551 541L551 448L671 448L707 487L788 426Q774 413 747 407L747 407L747 299L783 299L820 354Q852 329 903 284L903 284Q897 269 878 269L878 269L747 269L747 149L800 149L837 204Q869 179 920 134L920 134Q914 119 895 119L895 119L747 119L747 2Q749-17 761-18L761-18Q832-18 837-16L837-16Q848-11 855 4L855 4Q872 44 885 109L885 109L901 109ZM114 554L105 584L319 584L319 718L119 718L110 748L309 748L348 790L428 726Q418 714 387 707L387 707L387 549Q386 540 356 529L356 529Q341 524 330 524L330 524L319 524L319 554L114 554ZM279 90L279 90Q302 112 395 234L395 234Q416 261 431 281L431 281L453 264Q355 129 331 63L331 63Q330 59 329 56L329 56Q316 17 318-10L318-10Q308-36 262-67L262-67Q237-82 223-84L223-84Q224-24 218 31L218 31Q208 119 178 207L178 207Q127 182 86 171L86 171L78 185Q235 271 319 397L319 397Q323 404 327 410L327 410L125 410L116 439L324 439L355 478L442 416Q430 404 402 403L402 403Q339 298 215 227L215 227Q255 164 279 90ZM682 299L682 418L551 418L551 299L682 299ZM551 269L551 149L682 149L682 269L551 269Z"/></svg>