<svg id="U170CA" viewBox="0 0 1000 1000"><path transform="translate(0, 900) scale(1,-1)" d="M205 584L196 613L301 613Q325 685 366 828L366 828L469 794Q455 775 429 778L429 778Q378 682 326 613L326 613L356 613L387 652L474 590Q462 578 434 577L434 577Q374 468 252 398L252 398Q223 382 180 361L180 361L171 373Q297 461 360 584L360 584L205 584ZM834 445L834 445Q891 419 950 411L950 411L949 400Q895 385 877 346L877 346Q828 370 790 403L790 403Q781 396 739 365L739 365L729 377Q748 399 764 427L764 427Q739 452 719 483L719 483Q673 446 614 416L614 416Q617 408 628 372L628 372L614 366Q594 393 586 402L586 402Q540 382 470 360L470 360L464 373Q514 395 564 427L564 427Q541 452 483 506L483 506L577 555Q581 537 574 525L574 525Q573 524 571 521L571 521Q568 517 567 516L567 516Q586 486 600 453L600 453Q678 512 727 583L727 583L509 583L500 612L659 612Q688 697 725 828L725 828L828 794Q814 775 788 778L788 778Q738 683 684 612L684 612L726 612L757 650L844 588Q832 576 804 575L804 575Q776 534 740 501L740 501Q756 489 787 470L787 470Q803 501 817 538L817 538L904 495Q897 482 880 483L880 483Q870 483 865 485L865 485Q849 462 834 445ZM233 689L233 689Q235 752 192 816L192 816L205 820Q294 779 302 722L302 722Q307 688 282 674L282 674Q256 659 233 689ZM564 689L564 689Q566 752 523 816L523 816L536 820Q625 779 633 722L633 722Q638 688 613 674L613 674Q587 659 564 689ZM151 741L151 11Q150 3 118-6L118-6Q105-10 96-10L96-10L86-10L86 780L187 769Q180 746 151 741L151 741ZM454 8L454 8Q458-29 431-36L431-36Q429-37 427-37L427-37Q416-37 396-29L396-29Q381 26 341 83L341 83Q256-10 130-72L130-72L119-58Q226 14 305 130L305 130Q271 170 229 204L229 204Q207 189 181 174L181 174L172 188Q286 283 370 463L370 463Q371 464 371.50 465Q372 466 372 467L372 467L461 420Q453 407 437 407L437 407Q436 407 432 408L432 408Q426 409 423 410L423 410Q343 288 246 216L246 216Q291 190 326 163L326 163Q363 228 389 296L389 296L487 250Q477 237 461 237L461 237Q455 236 446 237L446 237Q416 177 375 123L375 123Q449 55 454 8ZM834 222L834 222Q788 154 725 92L725 92Q815 29 925-6L925-6L923-17Q873-23 850-67L850-67Q848-71 847-74L847-74Q748-23 678 51L678 51Q579-28 451-75L451-75L441-60Q549-5 643 92L643 92Q602 146 574 204L574 204Q520 170 461 144L461 144L452 158Q573 230 665 388L665 388L750 340Q740 326 726 327L726 327Q720 327 708 330L708 330Q656 263 595 218L595 218Q633 167 677 130L677 130Q735 199 784 284L784 284L874 230Q864 218 849 220L849 220Q843 219 834 222Z"/></svg>