<svg id="U17D33" viewBox="0 0 1000 1000"><path transform="translate(0, 900) scale(1,-1)" d="M844 734L145 734L136 764L728 764L778 829L871 750Q865 735 844 734L844 734ZM799 615L849 680L942 601Q936 586 915 585L915 585L719 585L719 525Q718 517 686 508L686 508Q673 504 664 504L664 504L654 504L654 585L505 585L505 516Q504 508 472 499L472 499Q459 495 450 495L450 495L440 495L440 585L295 585L295 522Q294 514 262 505L262 505Q249 501 240 501L240 501L230 501L230 585L69 585L60 615L230 615L230 697L331 686Q324 663 295 658L295 658L295 615L440 615L440 702L541 691Q534 668 505 663L505 663L505 615L654 615L654 697L755 686Q748 663 719 658L719 658L719 615L799 615ZM645 38L804 38L848 96L932 24Q926 9 905 8L905 8L645 8L645-54Q644-62 612-71L612-71Q599-75 590-75L590-75L580-75L580 8L346 8L337 38L580 38L580 114L388 114L379 144L580 144L580 217L370 217L361 247L580 247L580 315Q446 263 287 235L287 235L287-52Q286-60 254-69L254-69Q241-73 232-73L232-73L222-73L222 225Q169 218 102 214L102 214L94 237Q456 290 666 425L666 425Q669 426 671 428L671 428L188 428L179 457L681 457L712 503L820 434Q808 422 780 421L780 421Q709 368 604 324L604 324L681 316Q674 293 645 288L645 288L645 247L766 247L810 305L894 233Q888 218 867 217L867 217L645 217L645 144L755 144L799 202L883 130Q877 115 856 114L856 114L645 114L645 38Z"/></svg>