<svg id="U1731E" viewBox="0 0 1000 1000"><path transform="translate(0, 900) scale(1,-1)" d="M830 710L868 761L944 696Q938 681 917 680L917 680L788 680L788 601Q787 593 755 584L755 584Q742 580 733 580L733 580L723 580L723 680L627 680L627 592Q626 584 594 575L594 575Q581 571 572 571L572 571L562 571L562 680L468 680L468 598Q467 590 435 581L435 581Q422 577 413 577L413 577L403 577L403 680L303 680L294 710L403 710L403 818L504 807Q497 784 468 779L468 779L468 710L562 710L562 826L663 815Q656 792 627 787L627 787L627 710L723 710L723 818L824 807Q817 784 788 779L788 779L788 710L830 710ZM114 568L114 568Q86 536 43 498L43 498L33 510Q127 650 181 813L181 813L276 761Q268 751 255 748L255 748Q244 746 228 749L228 749Q189 661 144 603L144 603Q185 519 193 482L193 482Q202 497 259 634L259 634Q266 651 273 667L273 667L296 654Q245 501 232 449L232 449Q224 412 224 409L224 409Q225 403 226 398L226 398Q216 373 166 345L166 345Q138 330 123 330L123 330Q135 393 134 433L134 433Q134 491 114 568ZM668 532L800 532L845 590L929 518Q923 503 902 502L902 502L778 502L778 237Q808 306 823 352L823 352L907 301Q899 289 884 288L884 288Q880 288 869 290L869 290Q843 255 778 190L778 190L778 14Q778-16 786-18L786-18Q788-19 790-19L790-19Q805-19 811-17L811-17Q822-12 828 3L828 3Q834 18 854 101L854 101L872 101L873-5Q900-18 902-31L902-31Q900-75 800-75L800-75Q733-75 719-47L719-47Q711-32 711-3L711-3L711 218Q702 214 698 214L698 214Q688 215 672 226L672 226Q656 256 601 300L601 300Q547 248 486 214L486 214L486 71Q546 158 587 261L587 261L668 201Q660 192 648 190L648 190Q637 189 623 192L623 192Q596 144 563 108L563 108Q601 64 604 53L604 53Q610 60 670 163L670 163Q674 169 675 171L675 171L697 156Q684 126 662 77L662 77Q646 41 642 31L642 31Q640 26 636 18L636 18Q625-6 633-16L633-16Q621-41 579-66L579-66Q556-79 543-78L543-78Q544-70 549-45L549-45Q558-2 557 13L557 13Q548 58 538 84L538 84Q519 66 486 42L486 42L486-54Q485-62 453-71L453-71Q440-75 431-75L431-75L421-75L421 558L522 547Q515 524 486 519L486 519L486 377Q535 451 574 561L574 561L663 516Q655 504 640 503L640 503Q636 503 625 505L625 505Q583 429 534 376L534 376Q571 364 582 360L582 360Q619 421 639 466L639 466L711 423L711 502L677 502L668 532ZM233 336L302 287L302 498L403 487Q396 464 367 459L367 459L367-45Q366-53 334-62L334-62Q321-66 312-66L312-66L302-66L302 263Q289 261 280 261L280 261Q236 93 113-36L113-36Q92-58 68-80L68-80L56-71Q180 92 208 268L208 268L76 268L67 297L202 297L233 336ZM637 338L637 338Q685 317 711 296L711 296L711 402L701 402Q700 402 697 403L697 403Q691 404 688 405L688 405Q665 371 637 338ZM486 369L486 238Q525 276 561 328L561 328Q517 355 486 369L486 369Z"/></svg>