<svg id="U17D99" viewBox="0 0 1000 1000"><path transform="translate(0, 900) scale(1,-1)" d="M542 495L530 506Q633 623 705 821L705 821L807 769Q798 757 781 755L781 755Q777 755 768 757L768 757Q676 599 570 516L570 516Q556 505 542 495L542 495ZM477 806L567 730Q561 715 540 714L540 714L76 714L67 744L430 744L477 806ZM742 133L742 133Q835 46 948-13L948-13L945-24Q895-25 866-76L866-76Q769-6 697 89L697 89Q592-6 453-75L453-75L441-60Q564 20 662 138L662 138Q619 206 588 282L588 282Q564 264 535 246L535 246L576 211Q570 196 549 195L549 195L381 195L381-54Q380-62 348-71L348-71Q335-75 326-75L326-75L316-75L316 195L178 195L178-54Q177-62 145-71L145-71Q132-75 123-75L123-75L113-75L113 668L214 657Q207 634 178 629L178 629L178 225L316 225L316 427L202 427L193 457L316 457L316 675L417 664Q410 641 381 636L381 636L381 457L424 457L466 514L548 443Q542 428 521 427L521 427L381 427L381 225L452 225L494 281L519 260Q666 392 771 618L771 618L876 565Q867 553 850 553L850 553Q842 553 837 554L837 554Q735 395 609 297L609 297Q645 234 695 179L695 179Q767 276 822 391L822 391L921 330Q909 317 893 318L893 318Q889 318 880 320L880 320Q822 216 742 133Z"/></svg>