<svg id="U17393" viewBox="0 0 1000 1000"><path transform="translate(0, 900) scale(1,-1)" d="M572 220L572 220Q597 285 614 359L614 359L712 316Q702 302 685 300L685 300Q681 299 672 299L672 299Q644 220 611 160L611 160Q691 27 670-41L670-41Q659-78 633-76L633-76Q630-76 627-75L627-75Q617-72 600-57L600-57Q604 14 577 102L577 102Q514 2 418-79L418-79L405-69Q492 30 553 170L553 170Q533 217 504 268L504 268Q479 236 456 212L456 212L456 30Q455 22 423 13L423 13Q410 9 401 9L401 9L391 9L391 435Q364 416 327 394L327 394L327-54Q326-62 294-71L294-71Q281-75 272-75L272-75L262-75L262 240Q235 145 228 107L228 107Q219 67 221 30L221 30Q212 5 166-24L166-24Q139-41 125-41L125-41Q135 22 137 87L137 87Q137 157 124 243L124 243Q90 193 45 142L45 142L33 153Q115 309 165 508L165 508L262 466L262 557L97 557L88 587L262 587L262 759L363 748Q356 725 327 720L327 720L327 587L347 587L378 630L444 573Q438 558 417 557L417 557L327 557L327 420Q479 538 560 723L560 723Q580 768 593 813L593 813L699 771Q690 759 674 757L674 757Q668 757 653 759L653 759Q584 601 456 487L456 487L456 253Q529 383 571 566L571 566L671 526Q660 511 645 509L645 509Q641 508 631 508L631 508Q583 379 519 289L519 289Q543 261 572 220ZM409 641L409 641Q411 683 397 725L397 725Q384 761 362 795L362 795L374 803Q426 767 458 729L458 729Q491 682 484 647L484 647Q480 619 450 617L450 617Q446 617 442 617L442 617Q422 623 409 641ZM912 219L913-1Q949-13 950-30L950-30Q950-61 906-69L906-69Q877-74 814-74L814-74Q744-74 729-44L729-44Q722-28 722-2L722-2L722 765L826 753Q821 731 789 725L789 725L789 357Q846 422 875 501L875 501L952 444Q944 432 929 431L929 431Q925 431 914 433L914 433Q870 368 789 324L789 324L789 15Q789-13 803-15L803-15Q806-16 809-16L809-16Q833-16 837-15L837-15Q849-9 856 8L856 8Q868 38 896 219L896 219L912 219ZM191 151L191 151Q203 179 262 347L262 347L262 454Q256 450 251 449L251 449Q240 446 222 448L222 448Q189 352 150 285L150 285Q175 219 191 151Z"/></svg>