<svg id="U17A6" viewBox="0 0 929 1000"><path transform="translate(0, 900) scale(1,-1)" d="M649 787L649 787Q831 787 831 611L831 611L831-127Q831-244 641-244L641-244Q431-244 431-138L431-138Q431-106 405.50-89.50Q380-73 317-73L317-73Q254-73 229-89.50Q204-106 204-138L204-138L204-179Q204-195 256-195L256-195L256-244L187-244Q122-244 122-208L122-208L122-138Q122-106 140.50-80Q159-54 202-39Q245-24 317-24L317-24Q390-24 432.50-39Q475-54 494-80Q513-106 513-138L513-138Q513-176 641-176L641-176Q739-176 739-127L739-127L739 611Q739 667 710 695.50Q681 724 632 724L632 724Q574 724 543 685L543 685L451 685L451 929L543 929L543 759Q562 771 588 779Q614 787 649 787ZM317 513L317 513Q190 513 190 423L190 423L190 219Q236 219 266 194Q296 169 296 113L296 113Q296 61 266 30.50Q236 0 192 0L192 0L164 0Q137 0 117.50 15Q98 30 98 60L98 60L98 423Q98 581 317 581L317 581Q537 581 537 423L537 423L537 0L445 0L445 423Q445 513 317 513ZM190 151L190 67Q234 67 234 112L234 112Q234 150 190 151L190 151Z"/></svg>