<svg id="U17AC" viewBox="0 0 684 1000"><path transform="translate(0, 900) scale(1,-1)" d="M440 519L440 518L537 410L537 158Q537 0 317 0L317 0Q98 0 98 158L98 158L98 394Q67 433 52 451Q37 469 33 477Q29 485 29 491L29 491Q29 497 34 505.50Q39 514 52.50 532.50Q66 551 93 586L93 586L214 586L214 519L93 519L93 518L190 410L190 158Q190 67 317 67L317 67Q445 67 445 158L445 158L445 394Q414 433 399 451Q384 469 380 477Q376 485 376 491L376 491Q376 497 381 505.50Q386 514 399.50 532.50Q413 551 440 586L440 586L561 586L561 519L440 519ZM250-244L98-244L98-186L244-186Q442-186 445-88L445-88L391-88L391-24L537-24L537-51Q537-104 519-141L519-141Q533-162 549.50-174Q566-186 587-186L587-186L610-186L610-244L582-244Q551-244 522.50-231.50Q494-219 472-197L472-197Q436-222 381-233Q326-244 250-244L250-244Z"/></svg>