<svg id="U17B63" viewBox="0 0 1000 1000"><path transform="translate(0, 900) scale(1,-1)" d="M335 607L326 637L441 637Q478 688 510 750L510 750L344 750L335 780L506 780L539 819L623 754Q610 739 580 734L580 734Q538 683 485 637L485 637L555 637L589 683L658 623Q652 608 631 607L631 607L335 607ZM897 558L924 596L983 544Q977 529 956 528L956 528L829 528Q759 415 658 342L658 342L646 352Q711 421 765 528L765 528L723 528L723 486Q722 478 692 468L692 468Q681 465 673 465L673 465L663 465L663 528L606 528L597 558L663 558L663 676L728 668Q762 709 785 741L785 741L638 741L629 771L787 771L820 810L904 745Q891 730 861 725L861 725Q809 677 723 622L723 622L723 558L779 558Q801 605 822 668L822 668L914 627Q905 614 889 614L889 614L876 614Q861 583 846 558L846 558L897 558ZM326 581L326 581Q320 566 300 565L300 565L72 565L64 595L135 595L135 808L235 798Q233 776 202 771L202 771Q200 771 200 771L200 771L200 595L223 595L257 641Q260 639 270 630L270 630Q308 596 326 581ZM602 455L602 455Q569 419 522 376L522 376Q599 324 620 285L620 285Q632 251 608 236L608 236Q605 234 602 233L602 233Q590 231 571 237L571 237Q540 285 482 343L482 343Q386 267 279 231L279 231L271 246Q359 295 443 379L443 379Q404 411 374 433L374 433Q337 413 309 401L309 401L300 415Q383 473 459 600L459 600L548 553Q538 540 526 541L526 541Q517 540 508 544L508 544Q456 485 395 445L395 445Q435 426 470 407L470 407Q513 455 557 514L557 514L643 462Q633 450 621 451L621 451Q612 451 602 455ZM917 224L917 224Q870 146 824 93L824 93Q886 37 972-13L972-13L968-24Q925-24 897-65L897-65Q893-72 890-78L890-78Q826-25 778 45L778 45Q739 8 689-24L689-24L709-41Q703-56 682-57L682-57L279-57L270-27L315-27L315 72L260 72L260-49Q259-57 227-66L227-66Q214-70 205-70L205-70L195-70L195 418L147 418L147-44Q146-52 114-61L114-61Q101-65 92-65L92-65L82-65L82 481L95 475L158 448L184 448L220 487L301 426Q287 413 260 407L260 407L260 102L315 102L315 224L416 213Q409 190 380 185L380 185L380 102L428 102L428 233L529 222Q522 199 493 194L493 194L493 102L540 102L540 224L641 213Q634 190 605 185L605 185L605 102L634 102L661 140L721 88Q715 73 694 72L694 72L605 72L605-27L623-27L650 11L671-8Q713 32 753 85L753 85Q725 135 704 195L704 195Q671 168 634 146L634 146L623 158Q748 269 834 465L834 465Q838 475 841 483L841 483L931 433Q921 421 906 422L906 422Q898 422 893 424L893 424Q814 291 724 212L724 212Q747 172 785 131L785 131Q832 204 865 284L865 284L956 232Q944 220 930 221L930 221Q929 221 926 222L926 222Q920 223 917 224ZM428 72L380 72L380-27L428-27L428 72ZM540-27L540 72L493 72L493-27L540-27Z"/></svg>