<svg id="U1721F" viewBox="0 0 1000 1000"><path transform="translate(0, 900) scale(1,-1)" d="M846 712L939 633Q933 618 912 617L912 617L65 617L56 647L564 647Q628 713 659 757L659 757L213 757L204 787L662 787L695 826L779 761Q766 746 736 741L736 741Q690 698 613 647L613 647L796 647L846 712ZM417 522L417 522Q332 415 211 355L211 355L202 368Q298 441 375 579L375 579L458 529Q446 518 433 519L433 519Q425 519 417 522ZM855 390L884 431L946 376Q940 361 919 360L919 360L765 360Q670 249 543 196L543 196L534 208Q626 261 703 360L703 360L637 360L637 321Q636 313 608 303L608 303Q598 300 590 300L590 300L580 300L580 360L511 360L502 390L580 390L580 459L645 451Q679 477 711 509L711 509L576 509L567 539L720 539L753 578L837 513Q824 498 794 493L794 493Q741 460 637 417L637 417L637 390L725 390Q745 418 772 464L772 464L847 422Q837 410 824 411L824 411Q817 411 807 414L807 414L789 390L855 390ZM178 500L178 21Q177 13 145 4L145 4Q132 0 123 0L123 0L113 0L113 539L214 528Q207 505 178 500L178 500ZM207 229L199 241Q315 316 412 468L412 468L492 414Q481 404 467 405L467 405Q462 405 451 409L451 409Q341 284 207 229L207 229ZM493-11L493-11Q499-43 474-53L474-53Q470-54 466-55L466-55Q450-56 435-48L435-48Q413-5 370 40L370 40Q261-41 126-76L126-76L120-62Q227-20 332 74L332 74Q291 106 263 122L263 122Q231 105 193 91L193 91L185 105Q315 178 431 341L431 341Q434 345 435 346L435 346L513 290Q501 280 488 282L488 282Q482 282 473 286L473 286Q380 187 286 134L286 134Q333 117 363 102L363 102Q408 147 450 201L450 201L522 144Q512 133 497 137L497 137Q487 140 483 142L483 142Q450 106 413 75L413 75Q487 28 493-11ZM722 86L722 86Q774 136 821 201L821 201L898 138Q887 128 872 131L872 131Q866 133 857 137L857 137Q822 97 777 58L777 58Q851 13 862-26L862-26Q872-62 844-75L844-75Q842-75 840-76L840-76Q829-78 809-73L809-73Q782-22 731 24L731 24Q626-48 495-75L495-75L489-60Q596-23 690 57L690 57Q659 81 621 103L621 103Q579 80 528 63L528 63L519 76Q661 152 786 316L786 316Q791 323 795 328L795 328L871 270Q860 259 846 263L846 263Q838 264 831 267L831 267Q737 170 646 117L646 117Q692 100 722 86Z"/></svg>