<svg id="U17DDF" viewBox="0 0 1000 1000"><path transform="translate(0, 900) scale(1,-1)" d="M358 793L451 714Q445 699 424 698L424 698L75 698L66 728L308 728L358 793ZM752 723L493 723L484 753L748 753L781 792L865 727Q852 712 822 707L822 707Q774 648 709 591L709 591L825 591L866 646L946 577Q940 562 919 561L919 561L425 561L416 591L666 591Q719 659 752 723L752 723ZM368 509L368 10Q367 2 335-7L335-7Q322-11 313-11L313-11L303-11L303 127L168 127L168-50Q167-58 135-67L135-67Q122-71 113-71L113-71L103-71L103 583L121 575L179 550L292 550L328 589L409 528Q395 515 368 509L368 509ZM907 156L908-7Q940-20 942-35L942-35Q942-65 898-73L898-73Q866-79 796-79L796-79Q727-79 713-50L713-50Q705-35 705-7L705-7L705 383Q699 380 688 381L688 381Q677 384 674 385L674 385Q637 341 610 314L610 314Q673 268 682 230L682 230Q688 198 665 188L665 188Q659 185 654 185L654 185Q640 184 623 193L623 193Q602 233 567 274L567 274Q492 209 400 169L400 169L390 183Q458 231 529 314L529 314Q492 349 457 374L457 374Q447 368 412 348L412 348L402 362Q475 426 537 553L537 553L625 500Q616 488 601 489L601 489Q600 489 596 490L596 490Q590 491 587 492L587 492Q536 430 477 388L477 388Q508 375 556 349L556 349Q588 391 625 451L625 451L705 396L705 514L809 502Q804 480 772 474L772 474L772 227Q832 286 863 353L863 353L940 295Q932 283 917 282L917 282Q913 282 902 284L902 284Q854 233 772 196L772 196L772 10Q772-18 785-21L785-21Q789-22 793-22L793-22Q831-22 837-20L837-20Q850-15 857 1L857 1Q868 30 890 156L890 156L907 156ZM303 355L303 520L168 520L168 355L303 355ZM168 325L168 157L303 157L303 325L168 325ZM643 123L643 123Q624 99 594 69L594 69Q662 10 667-32L667-32Q669-63 646-72L646-72Q640-74 635-74L635-74Q620-73 605-64L605-64Q584-15 551 30L551 30Q461-43 345-77L345-77L337-62Q432-17 516 74L516 74Q472 123 430 155L430 155L447 165Q496 141 545 107L545 107Q575 146 599 183L599 183L685 129Q673 118 661 119L661 119Q654 118 643 123Z"/></svg>