<svg id="U17A9F" viewBox="0 0 1000 1000"><path transform="translate(0, 900) scale(1,-1)" d="M937 84L937-5Q963-13 966-25L966-25Q967-29 967-33L967-33Q967-68 879-74L879-74Q865-75 851-75L851-75L813-75Q765-75 757-47L757-47Q753-35 753-15L753-15L753 106L675 106L675-54Q674-62 642-71L642-71Q629-75 620-75L620-75L610-75L610 575Q607 574 602 574L602 574L302 574L293 604L429 604Q466 689 515 824L515 824L610 791L610 822L711 811Q704 788 675 783L675 783L675 680L782 680L816 726L885 666Q879 651 858 650L858 650L675 650L675 549L815 549L849 595Q866 581 918 534L918 534Q912 519 893 519L893 519L675 519L675 419L742 419L778 458L859 397Q845 384 818 378L818 378L818 277L837 277L868 321Q880 312 936 262L936 262Q930 247 911 247L911 247L818 247L818 136L854 136L885 180Q898 169 920 150L920 150Q941 132 953 121L953 121Q947 106 928 106L928 106L818 106L818 2Q820-17 832-18L832-18Q873-18 876-17L876-17Q888-11 894 3L894 3Q907 32 920 84L920 84L937 84ZM313 815L325 819Q420 778 433 719L433 719Q441 684 417 669L417 669Q392 653 367 681L367 681Q365 744 313 815L313 815ZM284 763L284 763Q208 590 87 485L87 485L74 496Q164 615 215 815L215 815L321 780Q312 766 298 764L298 764Q291 762 284 763ZM516 604L554 655L610 606L610 781Q595 771 577 773L577 773Q523 681 456 604L456 604L516 604ZM425 467L466 467L502 506L583 445Q569 432 542 426L542 426L542-58Q541-66 509-75L509-75Q496-79 487-79L487-79L477-79L477 437L414 437L414-53Q413-61 381-70L381-70Q368-74 359-74L359-74L349-74L349 294Q340 292 336 292L336 292Q334 292 323 292L323 292Q293 215 251 147L251 147Q328 22 312-46L312-46Q305-77 279-79L279-79Q274-79 268-77L268-77Q255-71 243-57L243-57Q240 10 214 91L214 91Q142-6 42-83L42-83L28-71Q121 24 188 161L188 161Q167 215 136 268L136 268Q100 232 67 207L67 207L54 219Q169 349 244 578L244 578L344 537Q335 525 320 523L320 523L307 523Q236 377 151 285L151 285Q180 251 210 209L210 209Q240 281 260 350L260 350L349 313L349 500L362 495L425 467ZM753 277L753 389L675 389L675 277L753 277ZM675 247L675 136L753 136L753 247L675 247Z"/></svg>