<svg id="U1748E" viewBox="0 0 1000 1000"><path transform="translate(0, 900) scale(1,-1)" d="M847 722L940 643Q934 628 913 627L913 627L71 627L62 657L536 657Q597 734 650 822L650 822L751 786Q738 767 712 770L712 770Q652 711 571 657L571 657L797 657L847 722ZM332 678L332 678Q307 745 233 807L233 807L243 816Q355 797 386 738L386 738Q404 703 383 681L383 681Q364 661 332 678ZM390 367L379 367L379 396L142 396L133 426L379 426L379 508L147 508L138 538L369 538L408 580L488 516Q478 504 447 497L447 497L447 392Q446 383 416 372L416 372Q401 367 390 367L390 367ZM828 496L828 496Q757 413 605 353L605 353Q593 349 580 344L580 344L580-54Q579-62 547-71L547-71Q534-75 525-75L525-75L515-75L515 320L466 302L452 320Q642 409 736 503L736 503L522 503L513 532L728 532L759 578L868 509Q856 497 828 496ZM853 73L885 117L951 59Q945 44 924 43L924 43L782 43L782-53Q781-61 749-70L749-70Q736-74 727-74L727-74L717-74L717 43L598 43L589 73L717 73L717 148L632 148L623 178L717 178L717 253L618 253L609 283L717 283L717 391L818 380Q811 357 782 352L782 352L782 283L825 283L857 327L923 269Q917 254 896 253L896 253L782 253L782 178L816 178L848 222L914 164Q908 149 887 148L887 148L782 148L782 73L853 73ZM299 32L299 32Q325 62 444 221L444 221L465 208Q439 167 392 94L392 94Q356 40 350 29L350 29Q333-5 335-24L335-24Q325-50 279-73L279-73Q260-83 248-84L248-84Q248-46 239 14L239 14Q227 80 206 133L206 133Q162 114 113 102L113 102L105 116Q246 178 318 272L318 272Q321 275 321 276L321 276L152 276L143 305L318 305L349 344L436 282Q424 270 396 269L396 269Q344 200 240 149L240 149Q275 96 299 32Z"/></svg>