<svg id="U1779D" viewBox="0 0 1000 1000"><path transform="translate(0, 900) scale(1,-1)" d="M239 682L78 682L69 712L239 712L239 821L340 810Q333 787 304 782L304 782L304 712L449 712L449 826L550 815Q543 792 514 787L514 787L514 712L663 712L663 821L764 810Q757 787 728 782L728 782L728 712L808 712L858 777L951 698Q945 683 924 682L924 682L728 682L728 594Q727 586 695 577L695 577Q682 573 673 573L673 573L663 573L663 682L514 682L514 596Q513 588 481 579L481 579Q468 575 459 575L459 575L449 575L449 682L304 682L304 602Q303 594 271 585L271 585Q258 581 249 581L249 581L239 581L239 682ZM93 511L217 511L264 572L351 497Q345 482 324 481L324 481L102 481L93 511ZM364 324L353 336Q430 418 480 561L480 561L578 515Q570 502 554 502L554 502Q545 502 540 503L540 503Q476 397 367 326L367 326Q365 324 364 324L364 324ZM845 123L846-4Q873-13 875-25L875-25Q876-29 876-31L876-31Q876-67 801-73L801-73Q779-75 749-75L749-75Q681-75 667-47L667-47Q659-31 659-3L659-3L659 42Q625 23 585 6L585 6Q597-22 595-43L595-43Q593-74 567-78L567-78Q562-79 557-78L557-78Q542-76 529-64L529-64Q520-18 491 40L491 40Q416-33 329-80L329-80L318-66Q395-6 461 89L461 89Q435 127 399 167L399 167Q373 149 338 131L338 131L328 145Q442 235 528 405L528 405Q530 409 532 414L532 414L625 366Q615 353 601 354L601 354Q594 353 585 356L585 356Q505 244 418 181L418 181Q453 155 486 125L486 125Q524 183 559 256L559 256L654 207Q644 194 630 194L630 194Q626 194 615 196L615 196Q578 138 530 82L530 82Q557 53 573 27L573 27Q617 56 659 93L659 93L659 288L608 288L599 318L659 318L659 420L613 420L604 450L659 450L659 559L763 547Q758 525 726 519L726 519L726 450L805 450L844 492L924 428Q914 416 883 409L883 409L883 277Q882 268 852 257L852 257Q837 252 826 252L826 252L815 252L815 288L726 288L726 159Q754 190 775 218L775 218L854 167Q843 156 832 157L832 157Q822 158 813 162L813 162Q773 122 726 86L726 86L726 14Q726-15 737-17L737-17Q740-18 742-18L742-18Q773-18 780-17L780-17Q792-10 798 4L798 4Q809 31 827 123L827 123L845 123ZM274 445L362 371Q356 356 335 355L335 355L86 355L77 385L228 385L274 445ZM815 420L726 420L726 318L815 318L815 420ZM237 251L273 290L354 229Q340 216 313 210L313 210L313-16Q312-24 280-33L280-33Q267-37 258-37L258-37L248-37L248 221L172 221L172-49Q171-57 139-66L139-66Q126-70 117-70L117-70L107-70L107 284L183 251L237 251ZM929 149L929 149Q958 113 952 82L952 82Q947 52 923 50L923 50Q918 50 913 51L913 51Q897 55 884 70L884 70Q880 144 843 204L843 204Q840 210 838 213L838 213L850 220Q902 181 929 149Z"/></svg>