<svg id="U1752B" viewBox="0 0 1000 1000"><path transform="translate(0, 900) scale(1,-1)" d="M797 655L847 720L940 641Q934 626 913 625L913 625L71 625L62 655L535 655Q594 731 650 822L650 822L751 786Q738 767 712 770L712 770Q643 705 568 655L568 655L797 655ZM332 679L332 679Q308 744 238 803L238 803Q235 805 233 807L233 807L243 816Q355 798 385 738L385 738Q403 703 382 681L382 681Q363 662 332 679ZM878 309L878 309Q838 270 770 230L770 230L770 14Q770-15 781-17L781-17Q784-18 786-18L786-18Q805-18 810-16L810-16Q821-11 828 5L828 5Q837 26 860 154L860 154L878 154L879-4Q910-15 912-31L912-31Q912-68 839-74L839-74Q819-75 793-75L793-75Q731-75 718-46L718-46Q711-31 711-3L711-3L711 374L581 374Q500 265 378 206L378 206L367 218Q449 272 517 374L517 374L462 374L462 328Q461 320 433 310L433 310Q423 307 415 307L415 307L405 307L405 374L343 374L334 404L405 404L405 475L462 468Q501 506 516 524L516 524L393 524L384 554L522 554L555 593L639 528Q626 513 596 508L596 508Q544 471 462 431L462 431L462 404L536 404Q560 447 573 476L573 476L657 436Q646 423 634 424L634 424Q627 423 617 426L617 426Q615 423 610 415L610 415Q605 407 603 404L603 404L648 404L678 445L711 416L711 576L807 565Q802 544 770 538L770 538L770 267Q812 320 838 376L838 376L916 320Q908 308 893 307L893 307Q889 307 878 309ZM109 393L100 423L250 423L250 509L114 509L105 539L240 539L279 581L359 517Q349 505 318 498L318 498L318 396Q317 387 287 376L287 376Q272 371 261 371L261 371L250 371L250 393L109 393ZM290 358L355 301Q349 286 328 285L328 285L84 285L75 315L258 315L290 358ZM529 84L529 84Q579 134 619 187L619 187L694 132Q681 122 668 125L668 125Q662 126 652 130L652 130Q615 90 574 55L574 55Q640 6 644-32L644-32Q648-65 622-73L622-73Q617-75 613-75L613-75Q598-74 583-65L583-65Q566-21 531 22L531 22Q435-46 323-76L323-76L317-61Q407-23 499 57L499 57Q470 86 439 108L439 108Q397 84 347 66L347 66L338 79Q481 153 591 320L591 320Q600 333 608 346L608 346L687 297Q676 286 663 287L663 287Q653 289 647 292L647 292Q560 181 460 120L460 120Q499 102 529 84ZM233 207L269 246L350 185Q336 172 309 166L309 166L309-12Q308-20 276-29L276-29Q263-33 254-33L254-33L244-33L244 177L178 177L178-48Q177-56 145-65L145-65Q132-69 123-69L123-69L113-69L113 240L189 207L233 207Z"/></svg>