<svg id="U17E24" viewBox="0 0 1000 1000"><path transform="translate(0, 900) scale(1,-1)" d="M771 739L519 739L510 768L772 768L803 807L890 745Q878 733 850 732L850 732Q763 610 536 525L536 525Q511 515 484 506L484 506L477 519Q684 619 771 739L771 739ZM413 806L501 731Q495 716 474 715L474 715L91 715L82 745L367 745L413 806ZM120 31L110 31L110 664L211 653Q204 630 175 625L175 625L175 52Q174 44 142 35L142 35Q129 31 120 31L120 31ZM360 151L360 151Q479 36 472-38L472-38Q468-72 441-75L441-75Q437-75 434-75L434-75Q419-73 406-61L406-61Q388 21 328 108L328 108Q231-11 105-74L105-74L92-58Q210 25 295 154L295 154Q257 202 203 252L203 252L217 265Q269 231 317 190L317 190Q365 270 383 348L383 348L265 348L241 329L192 392Q202 395 232 400L232 400L362 576L220 576L212 606L342 606L381 653L474 585Q462 573 438 572L438 572L279 378L370 378L405 428L496 358Q484 346 460 345L460 345Q424 241 360 151ZM851 185L889 235L963 171Q957 156 936 155L936 155L800 155L800-54Q799-62 767-71L767-71Q754-75 745-75L745-75L735-75L735 155L626 155Q598 9 525-84L525-84L510-73Q553 16 569 155L569 155L459 155L450 185L571 185Q576 253 576 347L576 347L511 347L502 377L576 377L576 509L675 498Q670 475 643 469L643 469Q641 469 641 469L641 469Q641 406 642 377L642 377L735 377L735 569L836 558Q829 535 800 530L800 530L800 377L818 377L856 427L930 363Q924 348 903 347L903 347L800 347L800 185L851 185ZM631 185L735 185L735 347L642 347L642 340Q642 259 631 185L631 185Z"/></svg>