<svg id="U17F1C" viewBox="0 0 1000 1000"><path transform="translate(0, 900) scale(1,-1)" d="M707 444L707 444Q611 368 458 327L458 327L458-53Q457-61 425-70L425-70Q412-74 403-74L403-74L393-74L393 824L494 813Q487 790 458 785L458 785L458 345Q488 357 523 374L523 374L523 682L586 648L758 648L789 687L876 625Q864 613 836 612L836 612Q806 541 750 483L750 483Q834 423 944 400L944 400L941 389Q894 382 874 335L874 335Q775 373 707 444ZM878 727L507 727L498 757L769 757L816 818L905 743Q899 728 878 727L878 727ZM296 752L296 752Q222 572 109 468L109 468Q102 461 95 455L95 455L81 466Q175 593 226 803L226 803L332 768Q324 755 310 753L310 753Q306 752 296 752ZM604 619L588 619L588 412Q635 443 673 484L673 484Q628 544 604 619L604 619ZM760 619L625 619Q660 561 704 520L704 520Q740 567 760 619L760 619ZM317 505L317 505Q224 313 92 209L92 209Q86 205 82 202L82 202L70 213Q182 344 251 561L251 561L354 520Q347 506 331 504L331 504Q323 504 317 505ZM922 135L792 135L792 14Q792-15 797-18L797-18Q800-20 803-20L803-20Q838-20 843-18L843-18Q853-12 860 2L860 2Q874 36 885 95L885 95L903 95L904-5Q929-14 932-24L932-24Q933-28 933-31L933-31Q931-76 809-76L809-76Q746-76 734-52L734-52Q727-38 727-10L727-10L727 135L631 135L631-55Q630-63 598-72L598-72Q585-76 576-76L576-76L566-76L566 135L495 135L486 165L566 165L566 349L589 340L642 316L716 316L752 355L833 294Q819 281 792 275L792 275L792 165L831 165L871 218L949 151Q943 136 922 135L922 135ZM71-83L59-71Q200 86 274 340L274 340L380 308Q372 295 358 292L358 292Q354 291 344 291L344 291Q304 195 255 120L255 120Q327 34 337-23L337-23Q339-40 335-50L335-50Q323-80 297-75L297-75Q291-75 287-72L287-72Q275-65 265-50L265-50Q275 16 241 99L241 99Q169-5 71-83L71-83ZM631 286L631 165L727 165L727 286L631 286Z"/></svg>