<svg id="U1763B" viewBox="0 0 1000 1000"><path transform="translate(0, 900) scale(1,-1)" d="M460-77L450-77L450 814L551 803Q544 780 515 775L515 775L515-56Q514-64 482-73L482-73Q469-77 460-77L460-77ZM358 719L101 719L92 749L256 749L300 808L385 735Q379 720 358 719L358 719ZM828 175L866 226L941 161Q935 146 914 145L914 145L761 145L761-55Q760-63 728-72L728-72Q715-76 706-76L706-76L696-76L696 145L562 145L553 175L696 175L696 352L585 352L576 382L696 382L696 549Q648 518 561 476L561 476L553 489Q733 608 802 736L802 736L588 736L579 765L801 765L832 804L919 742Q907 730 879 729L879 729Q824 633 711 558L711 558L797 549Q790 526 761 521L761 521L761 382L798 382L836 433L911 368Q905 353 884 352L884 352L761 352L761 175L828 175ZM64 563L287 563L332 622L417 549Q411 534 390 533L390 533L73 533L64 563ZM278-75L268-75L268 460L369 449Q362 426 333 421L333 421L333-54Q332-62 300-71L300-71Q287-75 278-75L278-75ZM115 314L115 457L214 446Q209 423 182 417L182 417Q180 417 180 417L180 417Q180 397 181 348L181 348Q181 316 181 305L181 305Q181 91 87-43L87-43Q73-64 57-81L57-81L43-69Q110 46 115 261L115 261Q115 285 115 314L115 314Z"/></svg>