<svg id="U174EC" viewBox="0 0 1000 1000"><path transform="translate(0, 900) scale(1,-1)" d="M913 619L71 619L62 649L530 649Q595 730 650 822L650 822L751 786Q738 767 712 770L712 770Q645 705 560 649L560 649L797 649L847 714L940 635Q934 620 913 619L913 619ZM333 677L333 677Q308 744 233 807L233 807L243 816Q356 797 386 737L386 737Q404 701 382 679L382 679Q363 661 333 677ZM853 391L883 432L945 377Q939 362 918 361L918 361L772 361Q667 245 523 192L523 192L515 206Q615 259 701 361L701 361L634 361L634 313Q633 305 605 295L605 295Q595 292 587 292L587 292L577 292L577 361L503 361L494 391L577 391L577 465L647 456Q689 494 704 511L704 511L536 511L527 541L712 541L745 580L829 515Q816 500 786 495L786 495Q732 459 634 415L634 415L634 391L725 391Q746 419 775 465L775 465L854 416Q843 405 830 406L830 406Q820 408 814 411L814 411Q811 407 806 401L806 401Q800 394 798 391L798 391L853 391ZM448 172L514 100Q501 91 470 92L470 92Q411-4 306-55L306-55Q254-81 188-74L188-74Q203-39 201-11L201-11Q197 24 185 62L185 62Q128 39 46 23L46 23L40 36Q162 76 268 178L268 178L208 210L191 184L108 235Q125 251 150 251L150 251L326 376L125 376L116 406L254 406Q301 474 350 569L350 569L451 536Q437 517 411 520L411 520Q353 458 282 406L282 406L330 406L372 439L449 377Q433 360 409 361L409 361L226 239L292 203Q326 239 362 288L362 288L458 244Q448 225 417 234L417 234Q386 201 351 170L351 170L403 142L448 172ZM122 554L132 561Q225 545 243 495L243 495Q254 465 232 448L232 448Q210 431 182 452L182 452Q170 506 122 554L122 554ZM867 125L867 125Q812 75 756 39L756 39Q839 10 931 5L931 5L931-6Q889-24 880-74L880-74Q879-78 879-81L879-81Q778-55 697 4L697 4Q580-58 441-80L441-80L434-64Q545-34 656 38L656 38Q627 63 598 97L598 97Q547 76 507 66L507 66L500 80Q648 146 785 303L785 303Q788 306 789.50 308Q791 310 793 312L793 312L865 249Q853 239 839 243L839 243Q832 244 825 248L825 248Q726 159 622 108L622 108Q659 81 694 65L694 65Q769 121 834 191L834 191L908 124Q895 116 882 119L882 119Q875 121 867 125ZM270 0L270 0Q319 19 369 75L369 75Q384 92 396 109L396 109L325 147Q263 98 202 69L202 69Q226 18 239 6L239 6Q252-3 270 0Z"/></svg>