<svg id="U17D4F" viewBox="0 0 1000 1000"><path transform="translate(0, 900) scale(1,-1)" d="M844 734L145 734L136 764L728 764L778 829L871 750Q865 735 844 734L844 734ZM806 611L856 676L949 597Q943 582 922 581L922 581L726 581L726 518Q725 510 693 501L693 501Q680 497 671 497L671 497L661 497L661 581L512 581L512 504Q511 496 479 487L479 487Q466 483 457 483L457 483L447 483L447 581L302 581L302 529Q301 521 269 512L269 512Q256 508 247 508L247 508L237 508L237 581L75 581L66 611L237 611L237 697L338 686Q331 663 302 658L302 658L302 611L447 611L447 702L548 691Q541 668 512 663L512 663L512 611L661 611L661 697L762 686Q755 663 726 658L726 658L726 611L806 611ZM387 456L387 456Q378 456 365 459L365 459Q278 299 113 201L113 201Q90 187 68 176L68 176L58 192Q201 292 276 450L276 450Q292 483 303 516L303 516L411 471Q402 458 387 456ZM165 359L165 359Q144 362 128 378L128 378Q126 415 115 445L115 445Q106 465 82 501L82 501L93 510Q140 489 175 457L175 457Q206 427 204 395L204 395Q203 366 174 360L174 360Q169 359 165 359ZM631 420L400 420L391 450L552 450L587 497L658 436Q652 421 631 420L631 420ZM892 135L893-6Q921-15 924-28L924-28Q924-31 924-33L924-33Q924-66 865-73L865-73Q837-77 790-77L790-77Q722-77 708-49L708-49Q700-33 700-5L700-5L700 95L678 95Q622-6 539-50L539-50Q534-52 530-54L530-54Q477-79 416-72L416-72Q433-37 433-9L433-9Q434 11 432 35L432 35Q383 12 333-4L333-4L333-54Q332-62 300-71L300-71Q287-75 278-75L278-75L268-75L268 309L369 298Q362 275 333 270L333 270L333 13Q427 60 511 157L511 157L477 174L461 150L380 203Q399 219 421 219L421 219L536 320L412 320L403 350L538 350L581 381L648 321Q634 303 609 305L609 305L486 208L534 184Q569 229 592 267L592 267L688 230Q679 210 648 218L648 218Q618 184 591 155L591 155L616 143L659 172L700 127L700 483L804 471Q799 449 767 443L767 443L767 207Q812 278 839 353L839 353L923 302Q915 290 900 289L900 289Q896 289 885 291L885 291Q841 229 767 172L767 172L767 12Q767-16 778-19L778-19Q781-20 785-20L785-20Q818-20 825-18L825-18Q837-13 843 2L843 2Q856 33 874 135L874 135L892 135ZM141 143L141 197L240 186Q235 163 208 157L208 157Q206 157 206 157L206 157L206 124Q206 40 141-34L141-34Q118-59 91-78L91-78L79-66Q137-3 141 114L141 114Q141 127 141 143L141 143ZM498-4L498-4Q537 8 582 65L582 65Q598 85 611 106L611 106L565 129Q505 74 448 44L448 44Q461 9 469 2L469 2Q479-7 498-4Z"/></svg>