<svg id="U17AB4" viewBox="0 0 1000 1000"><path transform="translate(0, 900) scale(1,-1)" d="M231 577L223 592Q316 693 375 825L375 825L460 760Q451 752 440 750L440 750Q428 748 413 752L413 752Q375 690 329 649L329 649Q371 584 380 547L380 547Q381 545 381 544L381 544Q385 551 469 708L469 708Q470 710 471 712Q472 714 473 716L473 716L495 703Q484 675 460 620L460 620Q423 532 416 510L416 510Q403 472 409 454L409 454Q409 452 410 450L410 450Q397 425 349 399L349 399Q325 387 312 387L312 387Q325 471 325 474L325 474Q325 486 325 495L325 495Q325 549 301 626L301 626Q270 601 231 577L231 577ZM274 769L274 769Q206 591 92 481L92 481L78 491Q163 617 203 817L203 817L310 787Q302 774 288 771L288 771Q284 769 274 769ZM780 747L503 747L494 777L783 777L816 816L900 751Q887 736 857 731L857 731Q799 677 719 623L719 623L814 623L862 686L953 609Q947 594 926 593L926 593L475 593L466 623L671 623Q735 686 780 747L780 747ZM915 183L916-3Q949-16 951-31L951-31Q951-70 870-74L870-74Q856-75 841-75L841-75Q772-75 757-45L757-45Q750-30 750-3L750-3L750 395Q743 392 731 393L731 393Q725 393 718 396L718 396Q686 354 663 328L663 328Q727 277 736 237L736 237Q741 205 717 195L717 195Q711 193 706 193L706 193Q693 194 676 204L676 204Q655 244 624 286L624 286Q565 228 499 188L499 188Q543 161 590 123L590 123Q625 167 651 206L651 206L735 133Q722 124 706 127L706 127L694 131Q665 99 642 77L642 77Q710 13 714-35L714-35Q715-68 690-76L690-76Q684-77 679-77L679-77Q666-75 650-65L650-65Q633-18 597 38L597 38Q505-38 396-77L396-77L388-62Q476-9 561 88L561 88Q523 137 481 177L481 177Q448 159 443 157L443 157L438 164Q391 35 294-77L294-77L281-69Q390 109 403 309L403 309L296 309L287 338L396 338L427 377L514 315Q502 303 474 302L474 302Q463 238 442 177L442 177Q519 236 589 328L589 328Q554 368 518 399L518 399Q499 386 463 366L463 366L454 378Q533 448 597 584L597 584L683 526Q672 515 657 517L657 517Q651 517 644 520L644 520Q593 453 533 409L533 409Q571 391 614 362L614 362Q651 416 676 462L676 462L750 408L750 544L854 532Q849 510 817 504L817 504L817 255Q852 317 871 379L871 379L954 328Q946 316 931 315L931 315Q927 315 916 317L916 317Q885 271 817 212L817 212L817 14Q817-14 827-16L827-16Q830-17 832-17L832-17Q841-17 845-16L845-16Q856-10 863 6L863 6Q876 36 898 182L898 182L898 183L915 183ZM295 267L295 267Q263 186 229 130L229 130Q279 49 271 4L271 4Q265-25 242-29L242-29Q235-30 228-28L228-28Q214-22 203-8L203-8Q200 22 188 68L188 68Q124-18 39-85L39-85L26-74Q106 12 165 138L165 138Q145 187 114 244L114 244Q86 213 59 190L59 190L46 201Q144 332 202 543L202 543L303 506Q296 493 280 490L280 490L267 490Q205 352 128 260L128 260Q162 224 187 190L187 190Q213 255 232 325L232 325L335 282Q325 268 308 267L308 267Q306 267 295 267Z"/></svg>