<svg id="U17775" viewBox="0 0 1000 1000"><path transform="translate(0, 900) scale(1,-1)" d="M805 717L855 782L948 703Q942 688 921 687L921 687L725 687L725 601Q724 593 692 584L692 584Q679 580 670 580L670 580L660 580L660 687L511 687L511 592Q510 584 478 575L478 575Q465 571 456 571L456 571L446 571L446 687L301 687L301 598Q300 590 268 581L268 581Q255 577 246 577L246 577L236 577L236 687L75 687L66 717L236 717L236 824L337 813Q330 790 301 785L301 785L301 717L446 717L446 829L547 818Q540 795 511 790L511 790L511 717L660 717L660 824L761 813Q754 790 725 785L725 785L725 717L805 717ZM811 602L897 529Q891 514 870 513L870 513L528 513L519 543L765 543L811 602ZM334 85L334 85Q432 22 450-25L450-25Q461-59 436-73L436-73Q429-76 421-77L421-77Q409-78 391-70L391-70Q370-23 287 47L287 47Q188-29 69-74L69-74L61-59Q155-8 245 79L245 79Q170 133 104 165L104 165Q194 238 281 364L281 364L119 364L110 394L388 394L388 495L124 495L115 525L378 525L417 567L497 503Q487 491 456 484L456 484L456 362Q455 353 425 342L425 342Q410 337 399 337L399 337L388 337L388 364L302 364L381 318Q372 306 356 305L356 305Q354 305 348 306L348 306Q343 308 341 308L341 308Q275 240 166 170L166 170Q235 141 281 116L281 116Q340 180 395 262L395 262L484 210Q475 197 460 198L460 198Q454 198 445 201L445 201Q390 136 334 85ZM785 268L774 268L774 294L542 294L533 324L774 324L774 404L547 404L538 434L764 434L803 476L883 412Q873 400 842 393L842 393L842 293Q841 284 811 273L811 273Q796 268 785 268L785 268ZM804 96L841 96L874 141L942 82Q936 67 915 66L915 66L804 66L804-56Q803-64 771-73L771-73Q758-77 749-77L749-77L739-77L739 66L626 66L626-51Q625-59 593-68L593-68Q580-72 571-72L571-72L561-72L561 66L458 66L449 96L561 96L561 245L637 212L728 212L764 251L845 190Q831 177 804 171L804 171L804 96ZM626 182L626 96L739 96L739 182L626 182Z"/></svg>