<svg id="U17BCF" viewBox="0 0 1000 1000"><path transform="translate(0, 900) scale(1,-1)" d="M919 222L920 5Q951-12 953-28L953-28Q953-55 878-64L878-64Q792-75 402-75L402-75Q323-75 301-37L301-37Q288-13 288 34L288 34L288 437L190 437L190-54Q189-62 157-71L157-71Q144-75 135-75L135-75L125-75L125 470Q89 448 49 430L49 430L41 446Q185 535 280 697L280 697Q318 763 342 831L342 831L438 783Q429 771 415 770L415 770Q411 770 400 772L400 772Q311 598 152 488L152 488L201 467L277 467L313 506L394 445Q380 432 353 426L353 426L353 46Q354 14 369-1L369-1Q483 14 591 61L591 61Q566 78 547 94L547 94Q461 70 382 67L382 67L379 83Q541 113 710 234L710 234L773 167Q760 159 748 163L748 163Q738 167 732 173L732 173Q652 130 579 104L579 104Q609 92 640 83L640 83Q710 117 779 163L779 163L841 99Q828 91 816 95L816 95Q808 97 800 105L800 105Q760 82 721 64L721 64Q782 54 837 57L837 57L838 46Q804 26 800-11L800-11Q802-11 808-10L808-10Q814-10 816-10L816-10Q849-6 857 12L857 12Q877 61 904 222L904 222L919 222ZM129 664L129 664Q129 709 111 751L111 751Q98 783 72 819L72 819L84 828Q140 797 175 758L175 758Q215 712 210 673L210 673Q206 643 178 640L178 640Q171 639 166 640L166 640Q143 645 129 664ZM346 568L342 584Q423 603 524 650L524 650Q482 677 444 712L444 712Q560 761 626 828L626 828L709 771Q700 759 684 760L684 760Q675 760 661 767L661 767Q570 716 503 700L503 700Q529 684 561 669L561 669Q650 715 737 777L737 777L813 716Q799 706 789 707L789 707Q780 710 770 717L770 717Q697 674 623 642L623 642Q659 628 678 622L678 622Q747 661 816 709L816 709L893 650Q880 639 869 640L869 640Q857 644 850 650L850 650Q808 624 757 598L757 598Q834 576 941 555L941 555L936 545Q908 541 894 514L894 514Q891 509 889 504L889 504Q826 518 763 539L763 539L812 496Q806 481 785 480L785 480L444 480L440 495Q392 489 372 487L372 487L368 506Q491 529 624 594L624 594Q605 603 572 621L572 621Q454 578 346 568L346 568ZM705 510L734 549Q717 554 688 566L688 566Q607 532 518 510L518 510L705 510ZM795 213L795 213Q733 213 721 237L721 237Q715 249 714 272L714 272L666 272L703 236Q690 228 678 231L678 231Q669 235 661 241L661 241Q537 169 407 155L407 155L403 171Q496 195 603 272L603 272L508 272L508 234Q507 226 478 217L478 217Q466 213 457 213L457 213L447 213L447 470L470 461L519 439L703 439L739 476L815 417Q801 404 774 398L774 398L774 302Q774 273 778 270L778 270Q780 269 784 269L784 269L813 270Q814 271 815 271L815 271Q825 277 831 291L831 291Q846 325 855 377L855 377L874 377L875 284Q900 274 902 263L902 263Q903 260 903 257L903 257Q902 213 795 213ZM714 372L714 409L508 409L508 372L714 372ZM714 342L508 342L508 302L714 302L714 342ZM748-13L748-13Q692 4 641 31L641 31Q546-3 448-14L448-14Q700-14 748-13Z"/></svg>