<svg id="U175DC" viewBox="0 0 1000 1000"><path transform="translate(0, 900) scale(1,-1)" d="M643 480L630 490Q727 615 770 818L770 818L875 783Q868 770 852 767L852 767Q851 767 847 767L847 767Q841 766 839 766L839 766Q769 588 647 483L647 483Q645 481 643 480L643 480ZM803 133L803 133Q878 46 983-16L983-16L980-26Q942-25 915-69L915-69Q913-72 912-75L912-75Q823-6 764 87L764 87Q682-6 574-75L574-75L561-63Q660 20 735 137L735 137Q702 202 683 279L683 279Q659 258 638 244L638 244L672 214Q666 199 645 198L645 198L541 198L541-53Q540-61 508-70L508-70Q495-74 486-74L486-74L476-74L476 198L382 198L373 228L476 228L476 388L399 388L390 418L476 418L476 571L390 571L381 601L476 601L476 817L577 806Q570 783 541 778L541 778L541 601L562 601L595 646L663 587Q657 572 636 571L636 571L541 571L541 418L550 418L583 463L651 404Q645 389 624 388L624 388L541 388L541 228L571 228L605 273L624 256Q748 389 822 611L822 611L921 566Q911 552 895 553L895 553L882 553Q808 397 702 296L702 296Q728 233 764 183L764 183Q813 267 851 370L851 370L948 315Q937 301 920 302L920 302Q912 302 907 303L907 303Q864 214 803 133ZM394 710L394 710Q313 544 95 429L95 429Q82 422 69 416L69 416L60 428Q244 556 317 717L317 717L96 717L87 746L316 746L347 785L434 723Q422 711 394 710ZM290 496L391 485Q384 462 355 457L355 457L355-54Q354-62 322-71L322-71Q309-75 300-75L300-75L290-75L290 496ZM146 289L146 417L245 406Q240 383 213 377L213 377Q211 377 211 377L211 377L211 279Q211 81 120-44L120-44Q108-60 95-74L95-74L81-63Q142 44 146 244L146 244Q146 265 146 289L146 289Z"/></svg>