<svg id="U17376" viewBox="0 0 1000 1000"><path transform="translate(0, 900) scale(1,-1)" d="M838 581L838 581Q757 470 558 395L558 395Q528 384 489 371L489 371L482 384Q673 473 760 588L760 588L497 588L488 617L661 617Q711 715 754 823L754 823L855 787Q841 768 815 771L815 771Q759 689 690 617L690 617L760 617L791 656L878 594Q866 582 838 581ZM485 808L497 814Q600 774 618 712L618 712Q629 675 606 658L606 658Q583 641 557 666L557 666Q546 736 485 808L485 808ZM362 795L455 716Q449 701 428 700L428 700L69 700L60 730L312 730L362 795ZM394 505L394-5Q393-13 361-22L361-22Q348-26 339-26L339-26L329-26L329 516L173 516L173-48Q172-56 140-65L140-65Q127-69 118-69L118-69L108-69L108 579L121 574L184 546L318 546L354 585L435 524Q421 511 394 505L394 505ZM720 81L720 81Q818 18 943-7L943-7L941-18Q892-28 871-75L871-75Q871-78 870-79L870-79Q752-36 667 46L667 46Q538-33 381-76L381-76L373-60Q508-8 630 87L630 87Q590 134 556 199L556 199Q504 178 454 164L454 164L446 180Q641 262 806 461L806 461L891 410Q881 398 869 398L869 398Q862 398 850 403L850 403Q723 275 579 209L579 209Q618 158 668 118L668 118Q755 192 833 289L833 289L920 229Q910 217 895 220L895 220Q888 220 880 223L880 223Q805 142 720 81Z"/></svg>