<svg id="U181EB" viewBox="0 0 1000 1000"><path transform="translate(0, 900) scale(1,-1)" d="M753 743L753 743Q662 608 546 531L546 531Q543 530 542 529L542 529L530 541Q624 640 699 810L699 810L793 753Q783 741 766 741L766 741Q764 742 760 742L760 742Q755 743 753 743ZM490 452L347 452L347-57Q346-65 314-74L314-74Q301-78 292-78L292-78L282-78L282 452L158 452L133 431L77 485Q99 497 131 503L131 503L325 733L136 733L127 763L328 763L357 799L446 726Q434 714 406 713L406 713L295 593L383 583Q376 560 347 555L347 555L347 482L479 482Q448 549 387 604L387 604L397 614Q464 584 508 548L508 548Q559 504 560 464L560 464Q554 430 526 426L526 426Q509 427 494 439L494 439L490 452ZM734 133L734 133Q833 47 960-8L960-8L956-19Q910-22 883-66L883-66Q880-71 878-76L878-76Q767-12 686 86L686 86Q578-12 442-79L442-79L431-65Q555 16 653 131L653 131Q606 199 574 278L574 278Q543 256 496 228L496 228L496 24Q495 16 463 7L463 7Q450 3 441 3L441 3L431 3L431 359L532 348Q525 325 496 320L496 320L496 254Q666 392 791 635L791 635L887 581Q878 568 860 569L860 569Q852 569 847 570L847 570Q742 403 601 297L601 297Q634 236 689 176L689 176Q760 268 815 377L815 377L908 316Q895 304 878 305L878 305Q870 305 865 306L865 306Q808 210 734 133ZM282 578L194 482L282 482L282 578ZM129-44L119-44L119 363L220 352Q213 329 184 324L184 324L184-23Q183-31 151-40L151-40Q138-44 129-44L129-44Z"/></svg>