<svg id="U180B3" viewBox="0 0 1000 1000"><path transform="translate(0, 900) scale(1,-1)" d="M429 735L405 739Q310 549 167 442L167 442Q119 407 72 386L72 386L60 401Q186 482 279 656L279 656Q317 726 342 800L342 800L454 748Q446 735 429 735L429 735ZM562 394L551 409Q669 489 756 667L756 667Q788 731 809 798L809 798L921 746Q912 733 896 734L896 734Q885 734 872 737L872 737Q783 549 649 446L649 446Q605 414 562 394L562 394ZM136 628L136 628Q138 673 120 715L120 715Q110 744 84 785L84 785L95 793Q147 763 185 720L185 720Q225 671 218 633L218 633Q215 606 187 602L187 602Q179 601 172 602L172 602Q151 606 136 628ZM616 625L616 625Q618 671 600 713L600 713Q591 738 564 783L564 783L575 791Q627 761 665 718L665 718Q705 667 698 631L698 631Q693 602 663 599L663 599Q657 598 652 599L652 599Q630 605 616 625ZM536 691L536 49Q535 41 504 32L504 32Q492 28 484 28L484 28L474 28L474 729L570 718Q563 696 536 691L536 691ZM285 172L285 172Q340 251 379 331L379 331L471 270Q460 257 443 259L443 259Q441 259 436 260L436 260Q432 262 430 262L430 262Q389 194 330 125L330 125Q416 26 414-35L414-35Q413-65 389-72L389-72Q382-74 376-73L376-73Q362-70 348-58L348-58Q330 9 289 82L289 82Q189-17 56-84L56-84L45-71Q164 12 258 134L258 134Q223 187 180 237L180 237Q127 200 71 171L71 171L60 185Q237 312 354 551L354 551L451 497Q439 485 425 486L425 486Q421 486 412 488L412 488Q321 344 197 250L197 250Q246 210 285 172ZM783 120L783 120Q854 48 952-16L952-16L951-27Q912-27 883-80L883-80Q882-83 881-84L881-84Q796-12 737 74L737 74Q640-15 523-75L523-75L511-61Q617 14 706 123L706 123Q674 179 648 247L648 247Q608 219 561 196L561 196L550 209Q706 326 818 548L818 548L913 492Q902 481 887 482L887 482Q883 482 874 484L874 484Q785 348 672 264L672 264Q702 213 740 167L740 167Q797 242 845 332L845 332L939 271Q926 259 910 261L910 261Q906 261 897 263L897 263Q843 183 783 120Z"/></svg>