<svg id="U18231" viewBox="0 0 1000 1000"><path transform="translate(0, 900) scale(1,-1)" d="M837 173L881 202L944 130Q931 121 900 122L900 122Q839 14 744-40L744-40Q730-49 719-53L719-53Q660-79 602-73L602-73Q616-43 616-10L616-10Q614 13 604 50L604 50Q577 37 549 27L549 27L549-55Q548-63 518-73L518-73Q507-76 499-76L499-76L489-76L489 133L376 133L376-53Q375-61 343-70L343-70Q330-74 321-74L321-74L311-74L311 133L202 133L202-48Q201-56 169-65L169-65Q156-69 147-69L147-69L137-69L137 133L51 133L42 163L137 163L137 356L213 323L300 323L336 362L417 301Q403 288 376 282L376 282L376 163L410 163L443 209L489 169L489 500Q480 497 464 492L464 492Q446 486 438 484L438 484L429 501Q651 595 774 758L774 758Q794 785 810 811L810 811L906 763Q897 751 883 750L883 750Q873 750 868 752L868 752Q787 655 668 583L668 583L791 583L834 640L917 569Q911 554 890 553L890 553L613 553Q598 545 549 523L549 523L549 47Q650 104 733 200L733 200L679 236L662 209L579 263Q596 278 620 280L620 280L761 425L610 425L601 455L761 455L801 488L875 427Q861 409 837 410L837 410L691 268L755 227Q803 289 839 357L839 357L936 318Q926 298 895 306L895 306Q850 242 805 194L805 194L837 173ZM534 654L534 654Q528 696 507 733L507 733Q491 762 463 792L463 792L474 802Q529 782 571 746L571 746Q615 708 614 673L614 673Q614 643 585 635L585 635Q579 634 574 634L574 634Q551 637 534 654ZM456 686L82 686L73 716L368 716L407 768L483 702Q477 687 456 686L456 686ZM360 399L349 399L349 435L105 435L96 465L349 465L349 558L110 558L101 588L339 588L378 630L458 566Q448 554 417 547L417 547L417 424Q416 415 386 404L386 404Q371 399 360 399L360 399ZM202 293L202 163L311 163L311 293L202 293ZM684 0L684 0Q740 24 793 88L793 88Q813 112 829 137L829 137L781 169Q710 100 622 58L622 58Q644 13 654 5L654 5Q666-5 684 0Z"/></svg>