<svg id="U186D9" viewBox="0 0 1000 1000"><path transform="translate(0, 900) scale(1,-1)" d="M755 636L805 701L898 622Q892 607 871 606L871 606L589 606L653 545Q640 536 629 539L629 539Q621 541 612 548L612 548Q370 424 173 402L173 402L169 420Q348 467 568 606L568 606L113 606L104 636L522 636Q594 729 648 823L648 823L749 785Q736 767 709 770L709 770Q634 693 554 636L554 636L755 636ZM352 665L352 665Q326 735 243 808L243 808L253 816Q371 791 404 727L404 727Q423 689 401 667L401 667Q382 649 352 665ZM684 124L769 124L810 178L888 110Q882 95 861 94L861 94L684 94L684-54Q683-62 651-71L651-71Q638-75 629-75L629-75L619-75L619 94L355 94L355-49Q354-57 322-66L322-66Q309-70 300-70L300-70L290-70L290 94L131 94L122 124L290 124L290 286Q210 273 130 268L130 268L127 286Q399 331 701 508L701 508L775 441Q762 432 751 434L751 434Q741 437 734 443L734 443Q533 336 330 294L330 294L366 278L608 278L644 317L725 256Q711 243 684 237L684 237L684 124ZM355 248L355 124L619 124L619 248L355 248Z"/></svg>