<svg id="U181BC" viewBox="0 0 1000 1000"><path transform="translate(0, 900) scale(1,-1)" d="M902 219L903-1Q939-13 940-30L940-30Q940-61 896-69L896-69Q867-74 804-74L804-74Q734-74 719-45L719-45Q711-29 711-2L711-2L711 613L529 613L634 575Q625 561 609 558L609 558L596 558Q535 411 461 318L461 318Q506 269 539 226L539 226Q578 319 601 414L601 414L706 378Q699 364 682 361L682 361Q681 361 677 361L677 361Q671 360 669 360L669 360Q634 256 580 167L580 167Q663 37 648-35L648-35Q640-72 613-74L613-74Q610-74 607-74L607-74Q597-71 579-59L579-59Q579 17 545 112L545 112Q471 9 366-77L366-77L352-66Q451 40 517 177L517 177Q486 244 446 300L446 300Q418 267 389 241L389 241L375 252Q412 305 443 374L443 374L353 374L353 206L390 206L421 250L487 192Q481 177 460 176L460 176L353 176L353-18Q352-26 320-35L320-35Q307-39 298-39L298-39L288-39L288 176L207 176L198 206L288 206L288 374L226 374L217 404L288 404L288 576L389 565Q382 542 353 537L353 537L353 404L372 404L403 448L455 402Q495 497 523 613L523 613L383 613L375 643L498 643L498 821L598 811Q596 789 565 784L565 784Q563 784 563 784L563 784L563 643L615 643L657 698Q674 684 711 652L711 652L711 807L815 795Q810 773 778 767L778 767L778 375Q838 446 865 525L865 525L943 468Q935 456 920 455L920 455Q916 455 905 457L905 457Q863 393 778 342L778 342L778 15Q778-13 793-15L793-15Q796-16 799-16L799-16Q822-16 826-15L826-15Q839-9 846 8L846 8Q858 38 886 219L886 219L902 219ZM362 739L362 739Q306 617 189 525L189 525L189-56Q188-64 156-73L156-73Q143-77 134-77L134-77L124-77L124 478Q74 446 38 426L38 426L28 438Q218 581 287 746L287 746L113 746L104 775L284 775L315 814L402 752Q390 740 362 739Z"/></svg>