<svg id="U18BE1" viewBox="0 0 1024 1024"><path transform="translate(0, 921.6) scale(1,-1)" d="M382 742Q426 628 493 554L493 554Q586 653 649 742L649 742L382 742ZM666 773Q683 803 684 803L684 803Q689 804 693 800L693 800Q719 781 753 753L753 753Q761 743 758 740L758 740Q755 735 743 739L743 739Q730 743 715 737L715 737Q702 732 669 688L669 688Q593 589 527 522L527 522Q620 438 788 383L788 383Q924 341 981 341L981 341Q986 339 985 333L985 333Q984 326 972 327L972 327Q925 326 912 295L912 295Q908 290 892 296L892 296Q832 316 780 335L780 335L712 363Q603 412 543 462L543 462Q521 479 503 499L503 499Q423 425 300 364Q177 303 69 265L69 265Q44 255 40 266L40 266Q36 281 49 284L49 284Q233 355 330 418L330 418Q400 463 473 533L473 533Q409 615 363 734L363 734Q305 662 259 618L259 618Q197 558 100 500L100 500Q88 493 84 499L84 499Q79 507 88 512L88 512Q196 593 269 680L269 680Q331 759 376 865L376 865Q379 875 388 871L388 871Q428 852 459 835L459 835Q468 830 465 826L465 826Q461 821 448 821L448 821Q434 821 428 815L428 815Q411 806 392 773L392 773L666 773ZM483 218Q753 70 765 3L765 3Q770-21 760-37L760-37Q749-55 743-56L743-56Q737-57 725-39L725-39Q635 90 474 198L474 198Q451 155 406 98L406 98Q338 11 227-74L227-74Q207-89 200-79L200-79Q193-67 203-58L203-58Q285 11 344 83L344 83Q403 154 436 236L436 236Q467 320 474 372L474 372Q474 383 477 384L477 384Q481 386 554 350L554 350Q562 345 561 341L561 341Q560 336 547 337L547 337Q535 338 523 328L523 328Q518 324 483 218L483 218Z"/></svg>