<svg id="U187E3" viewBox="0 0 1000 1000"><path transform="translate(0, 900) scale(1,-1)" d="M253 721L354 710Q347 687 318 682L318 682L318 625L446 625Q552 696 612 755L612 755L208 755L199 785L627 785L660 824L744 759Q731 744 701 739L701 739Q676 722 651 708L651 708L749 697Q742 674 713 669L713 669L713 625L808 625L854 686L942 611Q936 596 915 595L915 595L713 595L713 521Q712 513 680 504L680 504Q667 500 658 500L658 500L648 500L648 595L318 595L318 530Q317 522 285 513L285 513Q272 509 263 509L263 509L253 509L253 595L74 595L65 625L253 625L253 721ZM648 625L648 706Q574 663 493 625L493 625L648 625ZM66 180L56 197Q215 285 315 440L315 440Q345 487 366 536L366 536L475 486Q466 473 451 472L451 472Q448 472 439 473L439 473Q433 475 429 475L429 475Q321 308 137 212L137 212Q102 194 66 180L66 180ZM93 520L105 530Q157 506 197 471L197 471Q236 431 233 397L233 397Q232 369 204 362L204 362Q198 361 192 361L192 361Q168 364 153 382L153 382Q149 424 133 459L133 459Q116 492 93 520L93 520ZM804 290L793 290L793 326L509 326L500 356L793 356L793 455L514 455L505 485L783 485L822 527L902 463Q892 451 861 444L861 444L861 315Q860 306 830 295L830 295Q815 290 804 290L804 290ZM346-74L336-74L336 319L437 308Q430 285 401 280L401 280L401-53Q400-61 368-70L368-70Q355-74 346-74L346-74ZM917 125L918-2Q946-16 948-30L948-30Q946-75 792-75L792-75Q728-75 715-49L715-49Q708-35 708-6L708-6L708 182L587 182L587-54Q586-62 554-71L554-71Q541-75 532-75L532-75L522-75L522 245L546 235L598 212L697 212L733 251L814 190Q800 177 773 171L773 171L773 18Q773-14 781-18L781-18Q784-19 787-19L787-19Q841-19 852-16L852-16Q864-11 871 4L871 4Q887 42 900 125L900 125L917 125ZM161 153L161 211L260 200Q255 177 228 171L228 171Q226 171 226 171L226 171L226 135Q226 47 161-31L161-31Q138-58 111-78L111-78L99-66Q157 0 161 122L161 122Q161 136 161 153L161 153Z"/></svg>