<svg id="U18B4F" viewBox="0 0 1024 1024"><path transform="translate(0, 921.6) scale(1,-1)" d="M121 345L121 345Q127 349 137 342L137 342Q244 267 244 224L244 224Q246 204 228 176L228 176Q213 154 203 155L203 155Q193 157 192 176L192 176Q184 254 121 332L121 332Q117 339 121 345ZM394 508L394 7L626 7L626 508L394 508ZM394 738L394 539L626 539L626 738Q625 777 622 808L622 808Q621 824 631 821L631 821Q684 804 702 795L702 795Q716 786 700 779L700 779Q685 771 681 761L681 761Q674 748 674 738L674 738L674 539L762 539Q776 540 792 558L792 558L818 595Q825 604 834 595L834 595Q905 532 904 517L904 517Q902 509 889 508L889 508L674 508L674 7L830 7Q844 8 860 26L860 26L886 63Q893 72 902 63L902 63Q973 0 972-15L972-15Q970-23 957-24L957-24L161-24Q119-25 88-31L88-31Q79-34 78-25L78-25Q73-7 58 6L58 6Q50 13 54 17L54 17Q58 20 65 16L65 16Q103 7 149 7L149 7L346 7L346 508L229 508Q187 507 156 501L156 501Q147 498 146 507L146 507Q141 525 126 538L126 538Q118 545 122 549L122 549Q126 552 133 548L133 548Q171 539 217 539L217 539L346 539L346 738Q345 777 342 808L342 808Q341 824 351 821L351 821Q404 804 422 795L422 795Q436 786 420 779L420 779Q405 771 401 761L401 761Q394 748 394 738L394 738ZM872 356L872 356Q879 357 930 299L930 299Q939 289 936 284L936 284Q933 279 926 281L926 281Q897 293 860 253L860 253Q812 205 746 164L746 164Q734 153 726 164L726 164Q718 176 732 186L732 186Q800 247 865 350L865 350Q868 355 872 356Z"/></svg>