<svg id="U187F4" viewBox="0 0 1000 1000"><path transform="translate(0, 900) scale(1,-1)" d="M799 666L849 731L942 652Q936 637 916 636L916 636L69 636L61 666L466 666L466 826L566 816Q564 794 533 789L533 789Q531 789 531 789L531 789L531 666L799 666ZM745 557L745 435Q785 479 810 519L810 519L907 466Q898 453 882 452L882 452Q876 452 859 456L859 456Q806 402 745 364L745 364L745 268L793 268L827 315L897 254Q891 239 870 238L870 238L583 238L574 268L680 268L680 327Q617 295 527 262L527 262L519 274Q616 326 680 376L680 376L680 596L781 585Q774 562 745 557L745 557ZM435 237L461 216L506 246L568 173Q555 164 524 165L524 165Q465 27 378-36L378-36Q363-47 352-52L352-52Q297-79 237-73L237-73Q252-44 252-11L252-11Q250 21 241 54L241 54Q235 51 223 44L223 44Q204 34 195 29L195 29L195-56Q194-64 162-73L162-73Q149-77 140-77L140-77L130-77L130 589L231 578Q224 555 195 550L195 550L195 50Q292 122 372 248L372 248L334 279L320 251L234 305Q250 320 275 323L275 323L397 501L266 501L257 531L390 531L428 564L504 502Q490 485 466 486L466 486L343 312L389 275Q428 340 461 420L461 420L558 382Q549 362 517 369L517 369Q466 280 435 237L435 237ZM593 398L593 398Q588 421 573 452L573 452Q558 476 535 499L535 499L545 510Q590 492 623 468L623 468Q649 451 652 424L652 424Q655 396 631 389L631 389Q627 388 624 388L624 388Q610 388 593 398ZM317 1L317 1Q362 25 411 101L411 101Q435 138 454 180L454 180L416 211Q346 121 257 64L257 64Q279 13 290 4L290 4Q300-5 317 1ZM672 161L753 161L789 200L870 139Q856 126 829 120L829 120L829-60Q828-68 796-77L796-77Q783-81 774-81L774-81L764-81L764 131L661 131L661-55Q660-63 628-72L628-72Q615-76 606-76L606-76L596-76L596 194L672 161Z"/></svg>