<svg id="U189E5" viewBox="0 0 1000 1000"><path transform="translate(0, 900) scale(1,-1)" d="M718 727L299 727L290 757L609 757L656 818L745 743Q739 728 718 727L718 727ZM560 460L560 460Q440 371 256 340L256 340L249 355Q296 368 321 378L321 378L321 682L384 648L610 648L641 687L728 625Q716 613 688 612L688 612Q656 548 607 500L607 500Q715 442 731 380L731 380Q740 347 715 335L715 335Q711 334 708 333L708 333Q692 330 676 336L676 336Q637 399 560 460ZM551 528L551 528Q589 572 610 619L610 619L386 619L386 585Q470 564 551 528ZM386 564L386 405Q462 443 516 492L516 492Q449 536 386 564L386 564ZM671 142L711 196L790 128Q784 113 763 112L763 112L637 112L637-54Q636-62 604-71L604-71Q591-75 582-75L582-75L572-75L572 112L429 112L429-49Q428-57 396-66L396-66Q383-70 374-70L374-70L364-70L364 112L243 112L234 142L364 142L364 346L440 313L561 313L597 352L678 291Q664 278 637 272L637 272L637 142L671 142ZM429 283L429 142L572 142L572 283L429 283Z"/></svg>