<svg id="U183AF" viewBox="0 0 1000 1000"><path transform="translate(0, 900) scale(1,-1)" d="M90 361L83 374Q265 470 346 596L346 596L109 596L100 625L253 625Q289 708 327 816L327 816L429 782Q416 763 390 766L390 766Q343 693 282 625L282 625L346 625L377 664L464 602Q452 590 424 589L424 589Q344 465 143 382L143 382Q118 372 90 361L90 361ZM893 722L494 722L485 752L782 752L830 815L920 738Q914 723 893 722L893 722ZM110 804L121 809Q215 779 229 724L229 724Q238 691 215 675L215 675Q191 659 165 684L165 684Q159 743 110 804L110 804ZM744 229L744 229Q828 89 950-22L950-22L946-32Q912-24 877-63L877-63Q872-68 868-73L868-73Q765 37 703 160L703 160Q602 9 468-75L468-75L456-64Q595 57 676 218L676 218Q610 376 602 554L602 554L574 554L574 96Q573 88 541 79L541 79Q528 75 519 75L519 75L509 75L509 614L567 583L772 583L803 622L890 560Q878 548 850 547L850 547Q823 376 744 229ZM772 554L628 554Q646 421 709 293L709 293Q756 418 772 554L772 554ZM453 230L453 230Q399 159 347 109L347 109Q422 43 427-8L427-8Q431-46 402-53L402-53Q400-54 398-54L398-54Q385-55 368-46L368-46Q347 13 303 70L303 70Q191-22 46-79L46-79L36-63Q160 2 265 115L265 115Q221 162 170 201L170 201Q119 177 71 160L71 160L64 176Q244 266 382 476L382 476L469 416Q459 405 443 406L443 406Q439 406 428 410L428 410Q323 284 193 213L193 213Q246 185 296 150L296 150Q356 222 401 296L401 296L493 237Q482 225 466 227L466 227Q460 227 453 230Z"/></svg>