<svg id="U18474" viewBox="0 0 1000 1000"><path transform="translate(0, 900) scale(1,-1)" d="M110 750L366 750L405 792L485 728Q475 716 444 709L444 709L444 557Q443 548 413 537L413 537Q398 532 387 532L387 532L376 532L376 568L114 568L105 598L376 598L376 720L119 720L110 750ZM848 229L886 281L962 215Q956 200 935 199L935 199L761 199L761 17Q761-14 767-17L767-17Q771-19 774-19L774-19Q818-19 825-16L825-16Q837-10 844 5L844 5Q859 41 874 140L874 140L891 140L892-1Q919-17 922-30L922-30Q921-75 780-75L780-75Q717-75 703-51L703-51Q696-36 696-7L696-7L696 199L575 199L575-54Q574-62 542-71L542-71Q529-75 520-75L520-75L510-75L510 769L586 736L685 736L721 775L802 714Q788 701 761 695L761 695L761 478L818 478L856 530L932 464Q926 449 905 448L905 448L761 448L761 229L848 229ZM696 478L696 706L575 706L575 478L696 478ZM345 490L345 490Q255 372 117 312L117 312Q111 310 109 309L109 309L100 323Q211 395 294 546L294 546Q296 550 296 550L296 550L385 498Q376 486 361 487L361 487Q354 486 345 490ZM575 448L575 229L696 229L696 448L575 448ZM295 125L295 125Q343 179 382 242L382 242L469 183Q459 171 444 174L444 174Q435 175 429 178L429 178Q387 124 349 89L349 89Q439 20 444-35L444-35Q448-68 421-76L421-76Q417-77 413-77L413-77Q400-78 383-69L383-69Q358-9 305 50L305 50Q194-37 53-77L53-77L44-62Q162-11 264 92L264 92Q224 130 172 166L172 166Q124 145 93 135L93 135L85 150Q225 224 343 391L343 391Q349 400 355 409L355 409L440 350Q431 338 416 341L416 341Q410 342 400 346L400 346Q302 236 195 178L195 178Q246 155 295 125Z"/></svg>