<svg id="U1856C" viewBox="0 0 1000 1000"><path transform="translate(0, 900) scale(1,-1)" d="M441 595L432 610Q536 678 627 825L627 825L716 777Q705 764 693 764L693 764Q682 766 675 769L675 769Q577 654 441 595L441 595ZM513 92L386 92L386-54Q385-62 353-71L353-71Q340-75 331-75L331-75L321-75L321 92L215 92L206 122L321 122L321 245L242 245L233 275L321 275L321 393L230 393L221 423L321 423L321 575Q261 517 192 473L192 473L192-53Q191-61 159-70L159-70Q146-74 137-74L137-74L127-74L127 437Q88 419 58 408L58 408L49 424Q197 500 312 664L312 664Q362 735 397 812L397 812L507 758Q498 744 483 743L483 743Q480 743 471 744L471 744Q465 746 461 746L461 746Q399 649 321 575L321 575L422 564Q415 541 386 536L386 536L386 423L415 423L449 470L519 409Q513 394 492 393L492 393L386 393L386 275L410 275L444 322L514 261Q508 246 487 245L487 245L386 245L386 122L436 122L470 169L540 108Q534 93 513 92L513 92ZM165 626L165 626Q161 671 134 720L134 720Q117 752 85 789L85 789L97 798Q159 768 199 729L199 729Q249 681 246 638L246 638Q244 610 215 604L215 604Q209 603 203 603L203 603Q180 606 165 626ZM740 459L740 459Q842 414 970 378L970 378L967 367Q926 359 910 313L910 313Q784 355 689 421L689 421Q608 366 514 332L514 332L507 347Q578 386 649 450L649 450Q583 504 542 556L542 556Q672 651 757 788L757 788L840 732Q830 720 816 719L816 719Q814 719 809 721L809 721Q802 722 799 723L799 723Q718 627 590 548L590 548Q635 513 686 486L686 486Q753 553 812 638L812 638L898 580Q888 569 874 570L874 570Q866 571 858 574L858 574Q802 511 740 459ZM646 136L791 136L830 178L921 116Q909 104 885 103L885 103Q793-11 574-60L574-60Q533-69 492-75L492-75L483-56Q654-14 757 71L757 71Q779 89 793 106L793 106L607 106L583 87L530 149Q540 152 570 157L570 157L717 272L557 272L549 302L720 302L759 344L860 281Q848 269 824 268L824 268L646 136Z"/></svg>