<svg id="U1873C" viewBox="0 0 1000 1000"><path transform="translate(0, 900) scale(1,-1)" d="M518 729L97 729L88 759L402 759L452 824L545 745Q539 730 518 729L518 729ZM567 573L558 603L812 603L812 734L572 734L563 764L802 764L841 806L921 742Q911 730 880 723L880 723L880 562Q879 553 849 542L849 542Q834 537 823 537L823 537L812 537L812 573L567 573ZM411 360L401 360L401 441L210 441L210 382Q209 374 177 365L177 365Q164 361 155 361L155 361L145 361L145 679L165 670L221 646L390 646L426 685L507 624Q493 611 466 605L466 605L466 381Q465 373 433 364L433 364Q420 360 411 360L411 360ZM401 558L401 616L210 616L210 558L401 558ZM210 528L210 471L401 471L401 528L210 528ZM807 217L843 260L933 197Q921 185 897 184L897 184Q821 47 644-33L644-33Q587-59 527-75L527-75L517-58Q667 2 758 107L758 107Q794 148 811 187L811 187L627 187L603 168L550 230Q560 233 590 238L590 238L773 405L577 405L569 435L772 435L809 476L902 414Q890 402 866 401L866 401L653 217L807 217ZM118 223L111 239Q211 287 310 405L310 405L391 347Q379 336 368 338L368 338Q359 339 350 344L350 344Q246 258 129 226L129 226Q123 224 118 223L118 223ZM331 93L331 93Q386 134 435 182L435 182L514 122Q503 110 490 113L490 113Q482 115 473 120L473 120Q421 80 392 61L392 61Q469 15 480-30L480-30Q489-63 463-74L463-74Q459-75 457-76L457-76Q442-77 426-72L426-72Q393-18 338 28L338 28Q204-48 56-71L56-71L50-54Q171-19 292 64L292 64Q254 92 206 116L206 116Q150 93 85 79L85 79L79 95Q239 154 396 317L396 317Q398 319 399 320L399 320L477 260Q466 250 453 251L453 251Q445 253 436 258L436 258Q334 174 237 129L237 129Q292 111 331 93Z"/></svg>