<svg id="U180DE" viewBox="0 0 1000 1000"><path transform="translate(0, 900) scale(1,-1)" d="M132 370L76 424Q98 436 130 442L130 442L400 600L115 600L106 630L297 630Q339 708 388 822L388 822L489 784Q477 767 449 770L449 770Q400 702 330 630L330 630L402 630L431 667L521 593Q509 581 481 580L481 580L195 421L401 421L451 486L544 407Q538 392 517 391L517 391L157 391L132 370ZM119 813L130 818Q229 779 247 720L247 720Q257 684 234 667L234 667Q211 651 184 676L184 676Q177 741 119 813L119 813ZM526 483L515 495Q629 608 719 808L719 808L813 751Q803 739 786 739L786 739Q784 740 780 740L780 740Q775 741 773 741L773 741Q666 575 536 489L536 489Q530 485 526 483L526 483ZM741 137L741 137Q827 54 949-6L949-6L947-17Q908-17 882-62L882-62Q878-69 875-75L875-75Q768-7 694 90L694 90Q591-5 461-71L461-71L449-56Q567 23 661 136L661 136Q619 202 592 277L592 277Q537 233 478 200L478 200L466 214Q650 358 777 619L777 619L874 567Q865 555 848 554L848 554Q840 554 835 555L835 555Q744 403 619 298L619 298Q650 239 697 182L697 182Q759 266 813 372L813 372L906 311Q893 299 876 300L876 300Q868 300 863 301L863 301Q809 211 741 137ZM170 220L170 315L269 304Q264 281 237 275L237 275Q235 275 235 275L235 275L235 206Q235 66 166-38L166-38Q151-59 136-76L136-76L123-67Q168 23 170 196L170 196Q170 207 170 220L170 220ZM362 312L463 301Q456 278 427 273L427 273L427-55Q426-63 394-72L394-72Q381-76 372-76L372-76L362-76L362 312Z"/></svg>