<svg id="U185BD" viewBox="0 0 1000 1000"><path transform="translate(0, 900) scale(1,-1)" d="M828 536L871 593L954 522Q948 507 927 506L927 506L749 506L749 461Q748 453 716 444L716 444Q703 440 694 440L694 440L684 440L684 506L512 506L512 458Q511 450 479 441L479 441Q466 437 457 437L457 437L447 437L447 506L279 506L279 474Q278 466 246 456L246 456Q235 454 226 453L226 453Q253 425 237 398L237 398Q223 373 195 381L195 381Q184 385 175 392L175 392Q166 446 128 485L128 485L139 491Q188 483 214 464L214 464L214 506L89 506L80 536L214 536L214 616L315 605Q308 582 279 577L279 577L279 536L447 536L447 617L542 607Q600 635 632 654L632 654L186 654L177 684L494 684Q526 729 577 823L577 823L673 790Q660 772 633 775L633 775Q586 726 523 684L523 684L652 684L685 723L780 658Q767 643 737 638L737 638Q654 608 520 575L520 575L512 575L512 536L684 536L684 598L785 587Q778 564 749 559L749 559L749 536L828 536ZM372 706L372 706Q353 766 299 813L299 813L309 820Q406 802 427 751L427 751Q440 720 418 703L418 703Q398 689 372 706ZM135 170L79 224Q101 236 133 242L133 242L385 336L115 336L106 366L267 366Q304 435 332 496L332 496L435 464Q421 445 395 448L395 448Q356 405 306 366L306 366L375 366L404 402L492 329Q480 317 452 316L452 316L181 221L391 221L432 275L511 207Q505 192 484 191L484 191L160 191L135 170ZM804 463L877 400Q871 385 850 384L850 384L531 384L522 414L767 414L804 463ZM887 271L499 271L490 301L805 301L841 350L914 287Q908 272 887 271L887 271ZM841 129L841 129Q781 72 720 34L720 34Q800 7 915-14L915-14L912-25Q872-37 859-79L859-79Q748-52 658-3L658-3Q562-53 457-73L457-73L451-56Q535-30 615 22L615 22Q553 64 509 112L509 112Q616 179 673 260L673 260L765 205Q759 193 741 193L741 193Q733 193 721 198L721 198Q647 139 561 105L561 105Q608 77 662 55L662 55Q736 111 800 182L800 182L884 136Q874 124 862 122L862 122Q853 123 841 129ZM162 114L162 153L261 142Q256 119 229 113L229 113Q227 113 227 113L227 113L227 94Q227 24 162-39L162-39Q139-62 112-78L112-78L101-66Q158-11 162 90L162 90Q162 101 162 114L162 114ZM355-77L345-77L345 150L446 139Q439 116 410 111L410 111L410-56Q409-64 377-73L377-73Q364-77 355-77L355-77Z"/></svg>