<svg id="U18ABC" viewBox="0 0 1000 1000"><path transform="translate(0, 900) scale(1,-1)" d="M730 558L640 558L640 461L649 461L682 506L749 447Q743 432 722 431L722 431L277 431L268 461L327 461L327 558L271 558L262 588L327 588L327 709L423 698Q416 676 388 670L388 670L388 588L452 588L452 699L505 693Q533 731 545 752L545 752L323 752L314 782L545 782L578 821L662 756Q649 741 619 736L619 736Q581 699 514 651L514 651L514 588L578 588L578 686L675 675Q668 653 640 647L640 647L640 588L657 588L689 632L757 574Q751 559 730 558L730 558ZM452 558L388 558L388 461L452 461L452 558ZM514 461L578 461L578 558L514 558L514 461ZM304 209L304 209Q393 292 475 431L475 431L566 369Q557 358 541 359L541 359Q528 362 526 363L526 363Q452 275 368 214L368 214Q426 184 487 147L487 147Q550 228 604 331L604 331L699 275Q687 263 672 264L672 264Q664 264 659 266L659 266Q604 180 540 111L540 111Q651 31 656-21L656-21Q661-64 636-77L636-77Q631-79 627-80L627-80Q612-80 596-72L596-72Q577-18 492 64L492 64Q388-29 264-88L264-88L252-74Q359-3 450 102L450 102Q377 165 304 209Z"/></svg>