<svg id="U1861D" viewBox="0 0 1000 1000"><path transform="translate(0, 900) scale(1,-1)" d="M648 515L648 515Q584 575 541 644L541 644Q628 720 678 817L678 817L764 769Q756 757 741 756L741 756Q732 756 724 759L724 759Q673 691 588 635L588 635Q630 594 686 557L686 557Q743 623 794 708L794 708L884 656Q875 643 860 644L860 644Q854 644 845 647L845 647Q790 577 735 528L735 528Q818 482 926 443L926 443L923 432Q879 422 864 374L864 374Q765 417 683 484L683 484Q613 430 528 393L528 393L519 407Q588 452 648 515ZM448 471L512 415Q506 400 485 399L485 399L97 399L88 429L162 429L162 525L80 525L71 555L162 555L162 653L225 646Q269 698 299 745L299 745L135 745L126 775L300 775L333 814L417 749Q404 734 374 729L374 729Q320 672 227 604L227 604L227 555L328 555L328 654L429 643Q422 620 393 615L393 615L393 555L449 555L484 602L555 541Q549 526 528 525L528 525L393 525L393 429L417 429L448 471ZM227 525L227 431Q227 430 227 430L227 430L226 429L328 429L328 525L227 525ZM733 99L733 99Q826 41 941 3L941 3L939-8Q896-16 874-60L874-60Q870-68 868-75L868-75Q763-23 681 58L681 58Q561-30 410-81L410-81L402-65Q528-5 642 101L642 101Q600 151 567 206L567 206Q531 188 481 172L481 172L472 186Q595 258 702 410L702 410L785 339Q773 330 758 333L758 333Q752 335 746 338L746 338Q673 264 593 219L593 219Q633 173 679 137L679 137Q745 205 809 295L809 295L899 232Q886 221 872 224L872 224Q866 224 859 227L859 227Q802 158 733 99ZM417 260L417-7Q416-15 384-24L384-24Q371-28 362-28L362-28L352-28L352 271L215 271L215-54Q214-62 182-71L182-71Q169-75 160-75L160-75L150-75L150 334L226 301L341 301L377 340L458 279Q444 266 417 260L417 260Z"/></svg>