<svg id="U1883" viewBox="0 0 483 1000"><path transform="translate(0, 900) scale(1,-1)" d="M238 43L238 43Q186 43 138 56.50Q90 70 40 102L40 102L78 177Q119 148 156.50 134.50Q194 121 236 121L236 121Q296 121 329 152Q362 183 362 236L362 236Q362 303 318 333.50Q274 364 200 364L200 364L99 364L99 444L200 444Q274 444 318 475Q362 506 362 572L362 572Q362 623 330 655Q298 687 236 687L236 687Q194 687 156.50 673.50Q119 660 78 631L78 631L40 706Q131 765 238 765L238 765Q329 765 383.50 716Q438 667 438 576L438 576Q438 512 406.50 469Q375 426 318 406L318 406L318 402Q375 382 406.50 339Q438 296 438 232L438 232Q438 139 382.50 91Q327 43 238 43Z"/></svg>