<svg id="U1896A" viewBox="0 0 1000 1000"><path transform="translate(0, 900) scale(1,-1)" d="M665 820L758 741Q752 726 731 725L731 725L529 725L620 678Q612 666 597 665L597 665Q593 665 582 667L582 667Q492 582 380 519L380 519Q467 488 518 464L518 464Q598 557 646 624L646 624L739 565Q730 554 715 556L715 556Q713 556 709 557L709 557Q704 559 701 559L701 559Q635 487 578 435L578 435Q692 373 706 325L706 325Q718 287 695 268L695 268Q690 265 686 263L686 263Q670 259 653 265L653 265Q626 316 525 388L525 388Q451 324 368 267L368 267Q451 222 518 175L518 175Q554 221 588 277L588 277L678 213Q667 202 651 205L651 205Q645 205 639 208L639 208Q602 160 575 133L575 133Q681 48 697-15L697-15Q709-47 685-65L685-65Q676-71 668-72L668-72Q647-73 634-67L634-67Q614-7 524 83L524 83Q408-21 258-75L258-75L248-61Q373 6 478 127L478 127Q386 209 300 260L300 260Q385 323 477 420L477 420Q401 468 316 504L316 504Q426 589 521 725L521 725L313 725L304 755L615 755L665 820Z"/></svg>