<svg id="U18AAB" viewBox="0 0 1000 1000"><path transform="translate(0, 900) scale(1,-1)" d="M416 507L498 437Q492 422 471 421L471 421L68 421L59 451L231 451L231 551L90 551L81 581L231 581L231 817L332 806Q325 783 296 778L296 778L296 581L351 581L393 637L475 567Q469 552 448 551L448 551L296 551L296 451L373 451L416 507ZM327 632L309 644Q345 705 375 772L375 772L477 738Q463 719 437 722L437 722Q389 673 327 632L327 632ZM144 643L144 643Q130 704 75 757L75 757L86 764Q184 744 204 690L204 690Q217 657 194 639L194 639Q172 623 144 643ZM904 222L905 5Q936-12 938-28L938-28Q938-57 857-66L857-66Q775-75 449-75L449-75Q372-75 352-39L352-39Q340-16 340 28L340 28L340 44L188 44L188-54Q187-62 155-71L155-71Q142-75 133-75L133-75L123-75L123 358L149 347L199 325L329 325L365 364L446 303Q432 290 405 284L405 284L405 42Q405-6 441-13L441-13Q449-14 458-14L458-14Q763-15 805-10L805-10Q835-6 843 12L843 12Q861 57 889 222L889 222L904 222ZM340 203L340 295L188 295L188 203L340 203ZM188 173L188 74L340 74L340 173L188 173Z"/></svg>