<svg id="U18346" viewBox="0 0 1000 1000"><path transform="translate(0, 900) scale(1,-1)" d="M421 508L408 519Q494 630 539 817L539 817L639 769Q628 756 612 754L612 754L599 754Q534 603 421 508L421 508ZM384-7L384-7Q373-40 346-36L346-36Q342-36 338-34L338-34Q323-27 313-13L313-13Q316 45 299 111L299 111Q226 6 122-78L122-78L108-67Q207 34 277 178L277 178Q253 235 229 276L229 276Q210 252 183 223L183 223L183 45Q182 37 150 28L150 28Q137 24 128 24L128 24L118 24L118 416Q88 394 52 373L52 373L40 387Q174 487 258 670L258 670Q290 741 309 814L309 814L411 769Q402 757 387 756L387 756Q382 756 368 758L368 758Q304 592 183 472L183 472L183 269Q259 403 299 568L299 568L397 522Q387 508 369 506L369 506Q361 506 356 507L356 507Q304 379 242 294L242 294Q270 263 298 224L298 224Q332 306 353 383L353 383L448 339Q438 325 421 323L421 323Q415 322 408 323L408 323Q379 243 335 168L335 168Q405 51 384-7ZM126 641L126 641Q129 685 115 728L115 728Q105 760 82 798L82 798L94 806Q144 773 179 731L179 731Q213 683 206 646L206 646Q201 618 173 615L173 615Q167 615 161 616L161 616Q140 620 126 641ZM828 720L864 759L945 698Q931 685 904 679L904 679L904-54Q903-62 871-71L871-71Q858-75 849-75L849-75L839-75L839 300L758 300L758 97Q757 89 725 80L725 80Q712 76 703 76L703 76L693 76L693 290Q687 287 678 287L678 287Q677 287 673 287L673 287Q667 288 665 288L665 288Q633 207 589 140L589 140Q674 48 803-10L803-10L801-20Q763-20 738-66L738-66Q735-72 733-76L733-76Q621-9 552 90L552 90Q476-5 368-77L368-77L356-64Q452 21 520 141L520 141Q484 205 463 291L463 291Q436 266 405 242L405 242L392 253Q514 387 579 616L579 616L679 568Q668 555 653 554L653 554L640 554Q577 409 485 313L485 313Q506 250 547 192L547 192Q586 274 608 354L608 354L693 308L693 753L710 746L769 720L828 720ZM839 527L839 690L758 690L758 527L839 527ZM758 497L758 330L839 330L839 497L758 497Z"/></svg>