<svg id="U183A9" viewBox="0 0 1000 1000"><path transform="translate(0, 900) scale(1,-1)" d="M109 370L102 383Q286 473 374 609L374 609L146 609L137 638L287 638Q326 731 354 815L354 815L456 781Q443 762 417 765L417 765Q371 695 320 638L320 638L374 638L405 677L492 615Q480 603 452 602L452 602Q362 463 139 381L139 381Q125 375 109 370L109 370ZM831 627L870 679L946 613Q940 598 920 597L920 597L512 597L504 627L672 627L672 810L772 800Q770 778 739 773L739 773Q738 773 737 773L737 773L737 627L831 627ZM137 802L148 808Q242 778 256 723L256 723Q265 690 242 674L242 674Q218 658 192 683L192 683Q186 743 137 802L137 802ZM643 174L814 174L849 216L931 154Q919 142 895 141L895 141Q796-5 517-68L517-68L505-47Q726 20 808 144L808 144L612 144L588 125L542 186Q553 191 582 195L582 195L773 314L611 314L587 295L541 357Q551 360 581 365L581 365L758 464L557 464L549 494L790 494L827 533L903 472Q891 460 867 459L867 459L643 344L795 344L832 384L911 324Q899 312 875 311L875 311L643 174ZM431 285L521 223Q509 212 494 214L494 214Q485 216 481 218L481 218Q430 156 372 106L372 106Q459 30 464-29L464-29Q465-69 436-75L436-75Q434-76 433-76L433-76Q422-77 403-68L403-68Q382-3 327 69L327 69Q201-27 51-77L51-77L43-61Q171 0 288 115L288 115Q243 162 191 204L191 204Q149 184 87 163L87 163L78 179Q278 271 428 493L428 493L513 430Q503 420 487 421L487 421Q477 424 473 426L473 426Q362 291 213 215L213 215Q270 185 320 148L320 148Q378 209 431 285L431 285Z"/></svg>