<svg id="U18035" viewBox="0 0 1000 1000"><path transform="translate(0, 900) scale(1,-1)" d="M417 604L82 604L74 634L202 634L202 819L302 809Q300 787 269 782L269 782Q267 782 267 782L267 782L267 634L328 634L367 686L443 620Q437 605 417 604L417 604ZM845 634L884 686L960 620Q954 605 934 604L934 604L599 604L591 634L719 634L719 819L819 809Q817 787 786 782L786 782Q784 782 784 782L784 782L784 634L845 634ZM635 689L401 689L392 719L550 719L587 769L662 705Q656 690 635 689L635 689ZM599 472L599 13Q598 5 566-4L566-4Q553-8 544-8L544-8L534-8L534 483L460 483L460-48Q459-56 427-65L427-65Q414-69 405-69L405-69L395-69L395 360Q388 355 379 354L379 354Q375 353 365 353L365 353Q326 236 263 137L263 137Q343 45 349-22L349-22Q352-68 322-75L322-75Q319-75 320-75L320-75Q305-76 288-67L288-67Q275 5 227 85L227 85Q161-4 68-82L68-82L54-70Q136 17 196 131L196 131Q143 201 87 248L87 248Q159 386 209 570L209 570L310 528Q300 515 284 515L284 515Q276 515 272 516L272 516Q223 370 136 254L136 254Q182 221 221 182L221 182Q269 286 299 409L299 409L395 374L395 546L408 540L471 513L523 513L559 552L640 491Q626 478 599 472L599 472ZM887 320L887 320Q842 213 776 121L776 121Q852 48 947-14L947-14L943-24Q898-23 874-64L874-64Q870-70 868-76L868-76Q794-10 734 69L734 69Q663-14 573-78L573-78L561-66Q640 9 704 111L704 111Q653 188 626 258L626 258Q692 385 746 565L746 565L847 522Q841 507 824 506L824 506Q816 506 809 508L809 508L808 508Q743 346 666 256L666 256Q694 210 735 165L735 165Q791 271 825 381L825 381L927 335Q917 322 900 320L900 320Q898 320 887 320Z"/></svg>