<svg id="U18CC2" viewBox="0 0 1024 1024"><path transform="translate(0, 921.6) scale(1,-1)" d="M561 722L561 579L820 579Q834 580 850 598L850 598L876 635Q883 644 892 635L892 635Q963 572 962 557L962 557Q960 549 947 548L947 548L561 548L561 151Q561 34 565-45L565-45Q566-53 560-57L560-57L518-84Q505-94 506-73L506-73Q512 60 513 151L513 151L513 257Q349 167 180 93L180 93Q140 78 128 57L128 57Q123 48 119 47L119 47Q114 47 110 54L110 54Q96 78 74 94L74 94Q61 103 61 106L61 106Q63 111 73 112L73 112Q222 154 513 282L513 282L513 548L173 548L151 527Q141 519 134 532L134 532Q123 550 104 571L104 571Q95 582 110 586L110 586Q142 596 158 630L158 630L204 741Q225 787 223 853L223 853Q223 864 230 861L230 861Q262 850 299 831L299 831Q309 826 309 820L309 820Q310 814 298 810L298 810Q282 804 276 788L276 788Q268 773 243 726L243 726L181 579L513 579L513 722Q512 802 508 850L508 850Q506 867 518 863L518 863Q572 846 590 836L590 836Q604 829 588 820L588 820Q572 812 568 802L568 802Q561 783 561 722L561 722Z"/></svg>