<svg id="U18B52" viewBox="0 0 1024 1024"><path transform="translate(0, 921.6) scale(1,-1)" d="M149 710L241 710L241 750Q241 810 238 847L238 847Q238 859 246 857L246 857Q296 843 311 836L311 836Q322 829 309 823L309 823Q296 818 293 810L293 810Q287 796 287 750L287 750L287 710L465 710L465 719L466 719L466 720Q465 800 461 848L461 848Q459 865 471 861L471 861Q525 844 543 834L543 834Q557 827 541 818L541 818Q525 810 521 800L521 800Q514 781 514 720L514 720L513 719L513 710L802 710Q816 711 832 729L832 729L858 766Q865 775 874 766L874 766Q945 703 944 688L944 688Q942 680 929 679L929 679L513 679L513 560Q496 503 571 360L571 360Q737 494 787 529L787 529L619 529Q586 528 561 522L561 522Q554 519 553 528L553 528Q549 546 537 559L537 559Q531 566 534 570L534 570Q537 573 543 569L543 569Q573 560 610 560L610 560L791 560Q799 560 802 566L802 566L824 596Q827 600 830 600L830 600Q839 600 875 540L875 540Q881 528 869 527L869 527Q867 527 866 526L866 526Q820 518 587 331L587 331Q644 249 704 187L704 187Q837 46 967 21L967 21Q974 19 971 11L971 11Q969 3 957 4L957 4Q919 10 886-24L886-24Q881-28 874-22L874-22Q819 13 777 47L777 47Q597 185 513 400L513 400L513 23Q511-10 495-36L495-36Q470-69 445-81L445-81Q437-87 434-87L434-87Q429-86 425-69L425-69Q416-43 406-34L406-34Q397-23 340-17L340-17Q324-15 325-3L325-3Q326 9 342 8L342 8Q429-1 450 7L450 7Q464 12 465 32L465 32L465 679L287 679L287 567Q283 438 261 335L261 335Q235 196 80 34L80 34Q71 29 67 33L67 33Q63 40 70 45L70 45Q104 85 161 187L161 187Q231 316 241 567L241 567L241 679L161 679Q119 678 88 672L88 672Q79 669 78 678L78 678Q73 696 58 709L58 709Q50 716 54 720L54 720Q58 723 65 719L65 719Q103 710 149 710L149 710Z"/></svg>