<svg id="U18A16" viewBox="0 0 1000 1000"><path transform="translate(0, 900) scale(1,-1)" d="M418 530L418 530Q362 501 303 481L303 481L295 495Q465 576 577 729L577 729Q607 769 629 811L629 811L717 762Q708 750 694 749L694 749Q684 749 679 751L679 751Q585 626 445 545L445 545Q472 529 493 513L493 513Q519 488 522 459L522 459Q521 429 493 423L493 423Q489 422 487 422L487 422Q471 423 452 437L452 437Q450 469 436 499L436 499Q431 509 418 530ZM405 654L405 654Q399 692 378 732L378 732Q356 767 332 793L332 793L342 802Q396 779 434 744L434 744Q473 709 474 673L474 673Q473 645 449 639L449 639Q443 638 438 638L438 638Q422 639 405 654ZM330 261L322 275Q544 409 637 591L637 591L726 544Q716 531 703 530L703 530Q697 530 688 533L688 533Q568 365 330 261L330 261ZM673 244L758 184Q746 174 733 176L733 176Q725 177 718 180L718 180Q668 125 612 80L612 80Q690 16 699-34L699-34Q704-64 681-75L681-75Q675-78 669-78L669-78Q656-78 639-69L639-69Q613-14 565 45L565 45Q443-38 295-74L295-74L288-58Q414-10 528 87L528 87Q491 127 449 161L449 161Q384 127 315 105L315 105L307 121Q492 209 649 414L649 414L735 359Q726 348 711 348L711 348Q701 350 695 353L695 353Q587 238 470 172L470 172Q515 149 561 118L561 118Q619 174 673 244L673 244Z"/></svg>