<svg id="U18941" viewBox="0 0 1000 1000"><path transform="translate(0, 900) scale(1,-1)" d="M284 506L277 519Q484 619 571 739L571 739L319 739L310 768L572 768L603 807L690 745Q678 733 650 732L650 732Q563 610 336 525L336 525Q311 515 284 506L284 506ZM649 166L687 216L761 152Q755 137 734 136L734 136L600 136L600-54Q599-62 567-71L567-71Q554-75 545-75L545-75L535-75L535 136L422 136Q393 2 325-84L325-84L310-73Q353 15 366 136L366 136L257 136L248 166L370 166Q376 246 376 328L376 328L309 328L300 358L376 358L376 509L475 498Q470 475 443 469L443 469Q441 469 441 469L441 469L442 358L535 358L535 569L636 558Q629 535 600 530L600 530L600 358L616 358L654 408L728 344Q722 329 701 328L701 328L600 328L600 166L649 166ZM428 166L535 166L535 328L442 328Q440 234 428 166L428 166Z"/></svg>