<svg id="U18473" viewBox="0 0 1000 1000"><path transform="translate(0, 900) scale(1,-1)" d="M782 733L832 798L925 719Q919 704 898 703L898 703L644 703L644 310Q753 396 805 513L805 513L881 453Q873 441 858 440L858 440Q854 440 843 442L843 442Q771 346 644 288L644 288L644 15Q644-10 664-15L664-15Q672-16 681-16L681-16Q763-16 774-13L774-13Q790-8 797 8L797 8Q808 35 839 219L839 219L855 219L856-1Q892-13 893-30L893-30Q893-55 867-63L867-63Q831-74 673-74L673-74Q600-74 585-45L585-45Q577-29 577-2L577-2L577 703L510 703L501 733L782 733ZM119 750L375 750L414 792L494 728Q484 716 453 709L453 709L453 557Q452 548 422 537L422 537Q407 532 396 532L396 532L385 532L385 568L123 568L114 598L385 598L385 720L128 720L119 750ZM360 487L360 487Q258 372 113 323L113 323L104 337Q220 403 315 550L315 550L401 493Q390 481 376 483L376 483Q371 483 360 487ZM453 179L453 179Q413 130 371 92L371 92Q466 25 474-31L474-31Q479-68 452-76L452-76Q449-77 446-77L446-77Q431-78 415-70L415-70Q385-6 325 54L325 54Q205-38 46-79L46-79L39-63Q172-11 282 94L282 94Q230 138 177 169L177 169Q126 147 82 135L82 135L74 150Q237 224 373 408L373 408Q379 416 384 422L384 422L468 361Q459 350 444 353L444 353Q436 354 428 357L428 357Q319 240 201 181L201 181Q264 155 314 127L314 127Q364 180 407 244L407 244L493 183Q481 173 468 175L468 175Q459 176 453 179Z"/></svg>