<svg id="U185F5" viewBox="0 0 1000 1000"><path transform="translate(0, 900) scale(1,-1)" d="M716 112L716 112Q820 42 956-3L956-3L954-14Q910-22 887-70L887-70Q885-76 883-81L883-81Q761-23 666 70L666 70Q550-17 401-74L401-74L391-58Q519 8 626 113L626 113Q573 174 529 252L529 252Q487 234 465 226L465 226L456 241Q585 308 694 417L694 417Q653 447 618 481L618 481Q552 436 479 407L479 407L470 422Q530 458 588 511L588 511Q539 562 504 616L504 616Q608 706 665 817L665 817L755 771Q747 759 732 758L732 758Q728 758 717 760L717 760Q654 679 552 611L552 611Q587 576 625 548L625 548Q696 621 757 715L757 715L846 670Q835 656 823 656L823 656Q815 657 806 660L806 660Q741 580 667 518L667 518Q699 497 745 472L745 472Q801 536 847 605L847 605L938 558Q930 545 916 546L916 546Q907 545 899 548L899 548Q849 484 805 442L805 442Q874 408 950 380L950 380L947 368Q901 359 884 307L884 307Q808 340 741 384L741 384Q653 312 553 263L553 263Q601 201 663 151L663 151Q736 230 793 319L793 319L885 257Q874 246 858 248L858 248L846 251Q786 173 716 112ZM67 205L60 219Q149 264 237 344L237 344Q155 387 81 414L81 414Q180 487 264 599L264 599L92 599L83 629L395 629L395 738L97 738L88 768L385 768L424 810L504 746Q494 734 463 727L463 727L463 595Q462 586 432 575L432 575Q417 570 406 570L406 570L395 570L395 599L300 599L370 562Q362 550 347 549L347 549Q343 549 332 551L332 551Q280 501 147 423L147 423Q230 398 275 380L275 380Q338 445 392 519L392 519L475 461Q464 451 449 452L449 452Q444 453 435 457L435 457Q390 405 333 356L333 356Q431 313 445 278L445 278Q457 249 438 228L438 228Q433 224 428 222L428 222Q414 217 396 223L396 223Q371 263 283 317L283 317Q183 244 67 205L67 205ZM406 8L406 8Q411-25 386-35L386-35Q382-36 378-37L378-37Q362-38 347-30L347-30Q325 18 281 65L281 65Q168-33 31-82L31-82L23-68Q135-9 240 105L240 105Q189 151 120 191L120 191L136 202Q207 177 272 141L272 141Q307 184 343 235L343 235L427 179Q416 168 402 169L402 169Q391 172 387 174L387 174Q355 135 325 107L325 107Q400 52 406 8Z"/></svg>