<svg id="U18870" viewBox="0 0 1000 1000"><path transform="translate(0, 900) scale(1,-1)" d="M597 754L647 819L740 740Q734 725 713 724L713 724L327 724L318 754L597 754ZM499 224L499 224Q553 350 586 495L586 495L691 452Q679 436 663 433L663 433Q661 433 657 433L657 433Q652 432 649 432L649 432Q610 296 540 175L540 175Q632 57 628-22L628-22Q625-68 598-77L598-77Q592-78 587-78L587-78Q575-77 564-68L564-68Q552 20 503 117L503 117Q433 13 341-76L341-76L327-64Q415 45 474 170L474 170Q420 259 352 327L352 327Q439 488 496 685L496 685L595 642Q588 629 570 630L570 630Q562 630 557 631L557 631Q494 458 390 330L390 330Q450 279 499 224Z"/></svg>