<svg id="U18719" viewBox="0 0 1000 1000"><path transform="translate(0, 900) scale(1,-1)" d="M853 127L885 171L952 113Q946 98 925 97L925 97L828 97L828-40Q807-58 773-61L773-61L763-61L763 97L671 97L671-55Q670-63 638-72L638-72Q625-76 616-76L616-76L606-76L606 419Q543 358 475 318L475 318L465 331Q544 396 606 481L606 481L606 805L707 794Q700 771 671 766L671 766L671 584Q719 672 751 776L751 776L858 730Q851 716 834 713L834 713Q829 713 812 715L812 715Q756 588 671 488L671 488L671 429L753 429L789 470L871 408Q858 394 828 388L828 388L828 281L840 281L872 325L939 267Q933 252 912 251L912 251L828 251L828 127L853 127ZM153 666L226 658Q269 693 307 734L307 734L115 734L106 764L316 764L349 803L433 738Q420 723 390 718L390 718Q324 672 218 620L218 620L218 581L321 581L321 659L422 648Q415 625 386 620L386 620L386 581L427 581L461 628L531 567Q525 552 504 551L504 551L386 551L386 484Q385 476 353 467L353 467Q340 463 331 463L331 463L321 463L321 551L218 551L218 481Q217 473 185 464L185 464Q172 460 163 460L163 460L153 460L153 551L75 551L66 581L153 581L153 666ZM508 610L508 610Q511 643 499 691L499 691Q492 712 466 759L466 759L477 767Q524 735 556 695L556 695Q586 651 579 618L579 618Q574 590 548 589L548 589Q544 588 540 589L540 589Q524 593 508 610ZM403 471L492 420Q483 408 469 407L469 407Q463 407 454 410L454 410Q310 259 61 190L61 190L53 205Q291 304 403 471L403 471ZM192 415L192 415Q232 387 235 355L235 355Q238 327 212 318L212 318Q207 316 202 316L202 316Q183 315 165 329L165 329Q158 362 134 397L134 397Q115 424 88 449L88 449L98 460Q154 441 192 415ZM763 281L763 401L671 401L671 281L763 281ZM352-76L342-76L342 276L443 265Q436 242 407 237L407 237L407-55Q406-63 374-72L374-72Q361-76 352-76L352-76ZM671 251L671 127L763 127L763 251L671 251ZM157 134L157 182L256 171Q251 148 224 142L224 142Q222 142 222 142L222 142L222 114Q222 35 157-36L157-36Q134-60 107-78L107-78L95-66Q153-5 157 104L157 104Q157 117 157 134L157 134Z"/></svg>