<svg id="U18008" viewBox="0 0 1000 1000"><path transform="translate(0, 900) scale(1,-1)" d="M423 704L516 625Q510 610 490 609L490 609L79 609L71 639L237 639L237 824L337 814Q335 792 304 787L304 787Q302 787 302 787L302 787L302 639L373 639L423 704ZM648 763L648 763Q587 591 484 484L484 484L470 493Q545 615 578 809L578 809L683 782Q675 768 661 764L661 764Q660 764 656 764L656 764Q650 763 648 763ZM713 148L713 148Q796 65 902-7L902-7L899-18Q855-22 833-63L833-63Q829-70 827-76L827-76Q744 0 673 96L673 96Q597 4 485-78L485-78L472-64Q566 24 638 145L638 145Q579 235 543 316L543 316Q662 531 733 806L733 806L837 768Q832 754 815 750L815 750Q809 750 803 751L803 751Q799 751 797 751L797 751Q713 486 579 316L579 316Q619 251 667 197L667 197Q722 302 760 427L760 427L870 383Q860 369 844 366L844 366Q836 366 831 367L831 367Q784 245 713 148ZM898 532L898 532Q945 474 937 435L937 435Q932 402 902 403L902 403Q898 403 896 403L896 403Q880 407 867 422L867 422Q854 523 786 608L786 608Q786 609 785 609.50Q784 610 784 611L784 611L795 620Q856 580 898 532ZM107 484L326 484L376 549L469 470Q463 455 442 454L442 454L116 454L107 484ZM212 326L334 326L370 365L451 304Q437 291 410 285L410 285L410-53Q409-61 377-70L377-70Q364-74 355-74L355-74L345-74L345 296L201 296L201-48Q200-56 168-65L168-65Q155-69 146-69L146-69L136-69L136 359L212 326Z"/></svg>