<svg id="U18408" viewBox="0 0 1000 1000"><path transform="translate(0, 900) scale(1,-1)" d="M91 370L84 383Q266 479 347 605L347 605L110 605L101 634L254 634Q290 717 328 825L328 825L430 791Q417 772 391 775L391 775Q344 702 283 634L283 634L347 634L378 673L465 611Q453 599 425 598L425 598Q345 474 144 391L144 391Q119 381 91 370L91 370ZM111 813L122 818Q216 788 230 733L230 733Q239 700 216 684L216 684Q192 668 166 693L166 693Q160 752 111 813L111 813ZM910 575L483 575L474 605L692 605Q732 690 780 814L780 814L880 775Q866 758 840 761L840 761Q789 679 725 605L725 605L816 605L857 660L937 591Q931 576 910 575L910 575ZM521 805L533 810Q635 761 651 697L651 697Q661 659 637 643L637 643Q613 627 588 654L588 654Q584 719 521 805L521 805ZM518 535L619 524Q612 501 583 496L583 496L583-54Q582-62 550-71L550-71Q537-75 528-75L528-75L518-75L518 535ZM779 233L822 233L860 284L936 219Q930 204 909 203L909 203L779 203L779-57Q778-65 747-75L747-75Q735-78 726-78L726-78L716-78L716 203L618 203L609 233L716 233L716 412L640 412L631 442L793 442L831 494L907 428Q901 413 880 412L880 412L779 412L779 233ZM296 150L296 150Q356 219 402 296L402 296L494 237Q483 225 467 227L467 227Q461 227 454 230L454 230Q406 164 349 110L349 110Q444 28 450-33L450-33Q454-71 425-78L425-78Q423-79 421-79L421-79Q408-80 391-71L391-71Q366-2 307 72L307 72Q191-23 47-79L47-79L37-63Q163 5 267 116L267 116Q218 166 171 201L171 201Q120 177 72 160L72 160L65 176Q245 266 383 476L383 476L470 416Q460 405 444 406L444 406Q440 406 429 410L429 410Q324 284 194 213L194 213Q243 187 296 150Z"/></svg>