<svg id="U18209" viewBox="0 0 1000 1000"><path transform="translate(0, 900) scale(1,-1)" d="M134 475L134 475Q138 529 124 613L124 613Q91 583 51 555L51 555L41 569Q132 687 188 826L188 826L281 762Q273 753 261 751L261 751Q250 750 232 753L232 753Q197 689 156 645L156 645Q190 564 195 525L195 525Q202 537 286 710L286 710Q290 719 294 727L294 727L316 714Q243 526 232 486L232 486Q221 443 223 424L223 424Q212 400 159 375L159 375Q129 361 115 362L115 362Q131 426 134 475ZM466 565L457 595L673 595Q723 691 769 799L769 799L870 762Q856 744 830 747L830 747Q770 662 700 595L700 595L814 595L856 651L938 581Q932 566 911 565L911 565L466 565ZM508 788L520 793Q615 754 630 696L630 696Q639 660 614 644L614 644Q590 629 565 655L565 655Q560 720 508 788L508 788ZM258 489L246 500Q343 604 400 785L400 785L500 740Q492 727 476 726L476 726Q468 726 463 727L463 727Q386 579 260 491L260 491Q260 490 259 489.50Q258 489 258 489L258 489ZM909 125L910-4Q938-13 941-26L941-26Q941-29 941-31L941-31Q941-68 864-74L864-74Q845-75 822-75L822-75Q754-75 739-47L739-47Q732-31 732-3L732-3L732 98L714 98Q661-5 585-46L585-46Q581-48 578-49L578-49Q526-74 464-67L464-67Q480-37 483-4L483-4Q486 20 484 41L484 41Q464 30 420 11L420 11L420-54Q419-62 387-71L387-71Q374-75 365-75L365-75L355-75L355 363L354 363Q350 363 341 365L341 365Q306 315 272 279L272 279L272-54Q271-62 239-71L239-71Q226-75 217-75L217-75L207-75L207 217Q147 167 79 135L79 135L68 148Q190 243 282 425L282 425Q284 430 286 433L286 433L355 388L355 545L456 534Q449 511 420 506L420 506L420 32Q494 80 565 167L565 167L532 188L517 164L436 212Q453 228 476 228L476 228L593 332L482 332L473 362L593 362L637 393L703 333Q688 315 663 317L663 317L546 217L585 192Q605 220 633 262L633 262L729 227Q722 207 689 214L689 214Q680 204 637 158L637 158L653 147L696 176L732 135L732 511L836 499Q831 477 799 471L799 471L799 227Q838 296 858 361L858 361L943 311Q935 299 920 298L920 298Q916 298 905 300L905 300Q868 245 799 186L799 186L799 14Q799-14 807-17L807-17Q811-18 814-18L814-18Q839-18 845-17L845-17Q857-10 863 4L863 4Q873 29 892 125L892 125L909 125ZM464 444L455 474L595 474L635 527L713 460Q707 445 686 444L686 444L464 444ZM546 0L546 0Q585 14 628 80L628 80Q639 96 648 114L648 114L614 136Q559 83 499 49L499 49Q511 13 518 5L518 5Q529-3 546 0Z"/></svg>