<svg id="U18657" viewBox="0 0 1000 1000"><path transform="translate(0, 900) scale(1,-1)" d="M850 595L883 639L950 581Q944 566 923 565L923 565L821 565L821 510Q820 502 788 493L788 493Q775 489 766 489L766 489L756 489L756 565L601 565L601 507Q600 499 568 490L568 490Q555 486 546 486L546 486L536 486L536 565L465 565L456 595L536 595L536 672L614 664Q666 705 700 742L700 742L529 742L520 772L710 772L743 811L827 746Q814 731 784 726L784 726Q712 677 601 625L601 625L601 595L756 595L756 674L857 663Q850 640 821 635L821 635L821 595L850 595ZM391 560L421 601L483 546Q477 531 456 530L456 530L312 530Q210 395 76 318L76 318L64 330Q160 404 243 530L243 530L185 530L185 472Q184 464 154 454L154 454Q143 451 135 451L135 451L125 451L125 530L70 530L61 560L125 560L125 653L187 646Q233 694 266 740L266 740L113 740L104 770L269 770L302 809L384 744Q371 729 341 724L341 724Q281 668 185 608L185 608L185 560L262 560Q296 617 321 671L321 671L407 623Q398 611 381 612L381 612Q373 612 369 614L369 614Q354 589 334 560L334 560L391 560ZM822 420L822 420Q773 380 722 347L722 347Q812 328 937 318L937 318L934 307Q903 299 891 268L891 268Q890 264 889 261L889 261Q769 277 669 315L669 315Q580 268 485 248L485 248L480 264Q547 290 619 338L619 338Q556 368 512 406L512 406Q608 465 666 546L666 546L748 486Q738 474 723 475L723 475Q712 476 701 481L701 481Q628 424 560 397L560 397Q597 379 654 363L654 363Q722 415 783 478L783 478L864 424Q852 412 841 413L841 413Q831 414 822 420ZM276 141L276 141Q333 212 376 290L376 290L461 232Q449 220 433 222L433 222Q432 222 429 223L429 223Q423 224 420 225L420 225Q378 162 323 105L323 105Q421 24 420-34L420-34Q421-69 394-74L394-74Q391-75 388-75L388-75Q373-74 358-64L358-64Q338-2 284 67L284 67Q180-26 43-84L43-84L33-70Q150-4 249 108L249 108Q204 155 160 189L160 189Q114 160 68 140L68 140L60 154Q212 251 335 452L335 452Q339 459 341 462L341 462L426 406Q415 395 400 396L400 396Q399 396 396 397L396 397Q390 399 387 400L387 400Q289 274 180 201L180 201Q233 172 276 141ZM622 107L757 107L797 149L886 87Q874 75 850 74L850 74Q759-34 529-71L529-71Q514-74 499-76L499-76L489-58Q644-22 738 58L738 58Q750 68 758 77L758 77L584 77L560 58L508 120Q518 123 548 128L548 128L709 198L535 198L527 228L712 228L751 270L856 207Q844 195 820 194L820 194L622 107Z"/></svg>