<svg id="U18482" viewBox="0 0 1000 1000"><path transform="translate(0, 900) scale(1,-1)" d="M809 625L851 681L932 611Q926 596 906 595L906 595L509 595L501 625L662 625L662 799L762 789Q760 767 729 762L729 762Q728 762 727 762L727 762L727 625L809 625ZM128 548L119 578L389 578L389 720L133 720L124 750L379 750L418 792L498 728Q488 716 457 709L457 709L457 537Q456 528 426 517L426 517Q411 512 400 512L400 512L389 512L389 548L128 548ZM532 482L782 482L824 538L905 468Q899 453 878 452L878 452L541 452L532 482ZM277 174L277 174Q324 252 361 340L361 340L457 284Q446 271 430 272L430 272Q426 272 417 274L417 274Q375 197 327 134L327 134Q434 43 442-22L442-22Q445-67 416-73L416-73Q414-74 413-74L413-74Q397-76 381-67L381-67Q359 11 290 90L290 90Q200-10 82-80L82-80L69-66Q168 12 250 132L250 132Q187 194 108 243L108 243Q207 361 274 520L274 520L375 466Q364 455 347 457L347 457Q343 459 337 460L337 460Q268 337 157 249L157 249Q215 218 277 174ZM389 485L400 494Q457 457 497 412L497 412Q536 364 531 324L531 324Q526 295 500 293L500 293Q494 292 490 293L490 293Q475 296 460 311L460 311Q450 406 389 485L389 485ZM639 328L762 328L798 367L879 306Q865 293 838 287L838 287L838-54Q837-62 805-71L805-71Q792-75 783-75L783-75L773-75L773 298L628 298L628-49Q627-57 595-66L595-66Q582-70 573-70L573-70L563-70L563 361L639 328Z"/></svg>