<svg id="U18859" viewBox="0 0 1000 1000"><path transform="translate(0, 900) scale(1,-1)" d="M591 332L637 362L698 284Q685 275 654 276L654 276Q591 65 504-25L504-25Q489-40 476-48L476-48Q425-80 357-70L357-70Q369-41 363-9L363-9Q356 29 335 82L335 82Q288 43 233 8L233 8L223 21Q372 142 478 366L478 366L404 414L389 380L298 440Q318 455 341 459L341 459L528 733L329 733L320 763L516 763L546 799L636 736Q621 720 599 718L599 718L408 446L491 394Q536 494 570 609L570 609L671 573Q664 553 631 560L631 560Q587 444 546 360L546 360L591 332ZM743 423L852 408Q845 391 830 385L830 385Q827 383 818 381L818 381Q788 142 693-17L693-17L677-11Q744 167 743 423L743 423ZM437 13L437 13Q484 45 536 166L536 166Q561 225 583 297L583 297L531 331Q455 189 352 97L352 97Q389 26 406 13L406 13Q422 2 437 13Z"/></svg>