<svg id="U188E7" viewBox="0 0 1000 1000"><path transform="translate(0, 900) scale(1,-1)" d="M697 729L300 729L291 759L581 759L631 824L724 745Q718 730 697 729L697 729ZM506 452L506 452Q610 409 744 374L744 374L740 363Q701 355 684 311L684 311Q560 349 454 416L454 416Q358 356 244 324L244 324L236 340Q326 377 411 445L411 445Q346 494 301 548L301 548Q399 620 458 716L458 716L543 663Q534 650 519 651L519 651L504 654Q441 587 348 539L348 539Q389 508 449 478L449 478Q529 552 588 641L588 641L675 584Q664 573 650 574L650 574Q639 577 635 579L635 579Q577 508 506 452ZM405 142L545 142L583 185L672 122Q660 110 636 109L636 109Q548-7 339-61L339-61Q301-70 262-77L262-77L252-59Q417-13 516 74L516 74Q538 94 552 112L552 112L373 112L349 93L297 155Q307 158 337 163L337 163L503 271L324 271L316 301L504 301L542 343L642 280Q630 268 606 267L606 267L405 142Z"/></svg>