<svg id="U18857" viewBox="0 0 1000 1000"><path transform="translate(0, 900) scale(1,-1)" d="M635 200L674 251L749 186Q743 171 722 170L722 170L547 170L547-54Q546-62 514-71L514-71Q501-75 492-75L492-75L482-75L482 170L305 170L296 200L482 200L482 396Q413 365 326 342L326 342L315 358Q466 407 557 499L557 499Q584 528 599 555L599 555L407 555L383 536L331 598Q341 601 371 606L371 606L559 752L358 752L350 782L559 782L596 823L691 761Q679 749 655 748L655 748L434 585L596 585L633 628L723 565Q711 553 687 552L687 552Q631 469 506 407L506 407L583 399Q576 376 547 371L547 371L547 200L635 200Z"/></svg>