<svg id="U18257" viewBox="0 0 1000 1000"><path transform="translate(0, 900) scale(1,-1)" d="M887 106L918 149L984 92Q978 77 957 76L957 76L864 76L864-43Q843-61 809-64L809-64L799-64L799 76L716 76L716-51Q715-59 683-68L683-68Q670-72 661-72L661-72L651-72L651 145Q626 83 619 57L619 57Q608 18 616-13L616-13Q605-38 559-68L559-68Q534-83 521-84L521-84Q531-7 529 36L529 36Q524 98 503 166L503 166Q479 141 457 121L457 121L457 63Q456 55 424 46L424 46Q411 42 402 42L402 42L392 42L392 260Q360 191 318 133L318 133Q392 21 383-40L383-40Q377-71 353-74L353-74Q346-74 341-73L341-73Q326-67 315-55L315-55Q306 10 278 83L278 83Q195-10 78-79L78-79L66-66Q175 16 252 142L252 142Q221 201 190 250L190 250Q172 233 147 214L147 214L147 68Q146 60 114 51L114 51Q101 47 92 47L92 47L82 47L82 788L94 783L158 755L381 755L417 794L498 733Q484 720 457 714L457 714L457 159Q525 264 572 404L572 404L651 361L651 454L551 454L526 433L470 487Q492 499 524 505L524 505L651 577L651 652L529 652L520 682L651 682L651 814L752 803Q745 780 716 775L716 775L716 682L790 682L818 718L907 645Q895 633 867 632L867 632L716 551L716 484L825 484L867 540L950 470Q944 455 923 454L923 454L716 454L716 364L789 364L825 405L907 343Q894 329 864 323L864 323L864 239L878 239L909 282L975 225Q969 210 948 209L948 209L864 209L864 106L887 106ZM262 725L147 725L147 454Q220 564 262 725L262 725ZM340 334L392 315L392 725L262 725L366 686Q357 672 341 671L341 671L328 671Q261 516 147 420L147 420L147 250L170 280L169 281L170 281Q248 391 294 526L294 526L391 488Q384 476 370 474L370 474Q364 473 355 474L355 474Q290 348 207 266L207 266Q250 221 278 187L278 187Q315 259 340 334L340 334ZM785 652L716 652L716 613L785 652ZM651 517L590 484L651 484L651 517ZM580 93L580 93Q595 115 651 228L651 228L651 344L644 341Q631 339 618 341L618 341Q581 258 530 196L530 196Q574 124 580 93ZM799 239L799 336L716 336L716 239L799 239ZM716 209L716 106L799 106L799 209L716 209Z"/></svg>