<svg id="U186AA" viewBox="0 0 1000 1000"><path transform="translate(0, 900) scale(1,-1)" d="M272 773L272 467Q271 459 240 450L240 450Q228 446 220 446L220 446L210 446L210 812L306 801Q299 778 272 773L272 773ZM534 475L520 487Q633 606 696 809L696 809L800 764Q790 751 775 750L775 750Q767 750 762 751L762 751Q677 579 541 480L541 480Q537 477 534 475L534 475ZM488 684L318 684L309 714L401 714L439 765L515 700Q509 685 488 684L488 684ZM146 726L146 485Q145 477 114 468L114 468Q102 464 94 464L94 464L84 464L84 764L180 753Q173 731 146 726L146 726ZM729 143L729 143Q823 57 954-11L954-11L950-21Q904-22 876-68L876-68Q873-73 871-77L871-77Q762-2 686 95L686 95Q595-2 471-75L471-75L459-62Q571 26 652 142L652 142Q604 214 571 294L571 294Q559 286 517 260L517 260L542 237Q538 224 519 223L519 223L417 223L417 108L462 108L495 152L561 92Q555 78 537 78L537 78L417 78L417-51Q416-59 384-68L384-68Q371-72 362-72L362-72L352-72L352 78L219 78L219-50Q218-58 186-67L186-67Q173-71 164-71L164-71L154-71L154 78L58 78L49 108L154 108L154 223L80 223L71 253L154 253L154 431L172 422L230 398L341 398L377 437L458 376Q444 363 417 357L417 357L417 253L443 253L476 297L501 274Q669 407 784 651L784 651L885 600Q876 588 860 588L860 588Q854 587 847 589L847 589Q745 418 594 309L594 309Q630 247 683 189L683 189Q742 283 784 394L784 394L888 346Q877 333 862 333L862 333L849 333Q800 229 729 143ZM298 547L416 547L454 599L530 533Q524 518 503 517L503 517L307 517L298 547ZM352 368L219 368L219 253L352 253L352 368ZM219 108L352 108L352 223L219 223L219 108Z"/></svg>