<svg id="U18C11" viewBox="0 0 1024 1024"><path transform="translate(0, 921.6) scale(1,-1)" d="M257 687L474 687L474 754Q473 793 470 824L470 824Q469 840 479 837L479 837Q532 820 550 811L550 811Q564 802 548 795L548 795Q533 787 529 777L529 777Q522 764 522 754L522 754L522 687L826 687Q840 688 856 706L856 706L882 743Q889 752 898 743L898 743Q969 680 968 665L968 665Q966 657 953 656L953 656L522 656L522 479L638 479Q646 479 649 483L649 483L686 523Q690 529 694 529L694 529Q706 528 757 464L757 464Q765 453 752 452L752 452L749 452Q716 449 688 380L688 380Q627 231 552 144L552 144L550 142Q570 126 592 112L592 112Q761 5 966 5L966 5Q973 4 973-3L973-3Q973-12 957-13L957-13Q912-18 888-58L888-58Q884-66 872-60L872-60Q637 7 517 109L517 109Q336-50 72-91L72-91Q53-94 52-84L52-84Q51-73 63-72L63-72Q314-14 483 140L483 140L454 171Q358 267 270 454L270 454Q266 468 276 472L276 472Q289 477 293 461L293 461Q358 324 478 208L478 208L508 178Q511 175 514 173L514 173L516 175Q606 280 658 448L658 448L534 448Q513 432 506 414L506 414Q503 406 496 410L496 410Q471 433 455 440L455 440Q445 445 454 454L454 454Q465 466 469 473L469 473Q473 481 474 500L474 500L474 656L239 656Q168 534 87 443L87 443Q77 432 70 439L70 439Q63 446 72 456L72 456Q143 543 201 672L201 672Q258 799 262 841L262 841Q265 858 281 848L281 848Q319 825 332 813L332 813Q344 805 343 799L343 799Q342 794 333 795L333 795Q323 796 313 787L313 787Q299 777 257 687L257 687ZM761 590L761 590Q766 596 778 589L778 589Q920 506 930 431L930 431Q934 411 921 381L921 381Q911 357 899 357L899 357Q889 357 886 376L886 376Q846 495 763 577L763 577Q757 584 761 590Z"/></svg>