<svg id="U18164" viewBox="0 0 1000 1000"><path transform="translate(0, 900) scale(1,-1)" d="M838 391L881 448L964 377Q958 362 937 361L937 361L678 361L653 340L597 394Q619 406 651 412L651 412L826 593L644 593L635 623L749 623Q788 695 844 823L844 823L945 785Q932 767 905 771L905 771Q841 682 778 623L778 623L827 623L855 658L940 586Q928 574 900 573L900 573L707 391L838 391ZM610 813L621 818Q720 779 738 720L738 720Q748 684 725 667L725 667Q702 651 675 676L675 676Q668 741 610 813L610 813ZM80 581L71 611L257 611L257 733L85 733L76 763L247 763L286 805L366 741Q356 729 325 722L325 722L325 570Q324 561 294 550L294 550Q279 545 268 545L268 545L257 545L257 581L80 581ZM591 702L374 702L365 732L494 732L536 788L618 718Q612 703 591 702L591 702ZM348 588L522 588L565 644L646 574Q640 559 619 558L619 558L357 558L348 588ZM506 449L542 488L623 427Q609 414 582 408L582 408L582-58Q581-66 549-75L549-75Q536-79 527-79L527-79L517-79L517 419L428 419L428-53Q427-61 395-70L395-70Q382-74 373-74L373-74L363-74L363 317Q357 315 352 315L352 315Q350 315 339 315L339 315Q303 220 250 138L250 138Q327 42 331-21L331-21Q332-64 305-71L305-71Q302-72 300-72L300-72Q284-73 268-64L268-64Q255 12 213 86L213 86Q144-3 52-74L52-74L40-62Q123 23 182 135L182 135Q138 198 79 252L79 252Q149 367 206 536L206 536L304 490Q298 478 279 478L279 478Q277 479 267 481L267 481Q211 349 128 256L128 256Q174 220 207 185L207 185Q249 274 276 374L276 374L363 337L363 482L376 477L439 449L506 449ZM669 220L669 315L768 304Q763 281 736 275L736 275Q734 275 734 275L734 275L734 206Q734 66 665-38L665-38Q650-59 635-76L635-76L622-67Q667 23 669 196L669 196Q669 207 669 220L669 220ZM825-76L815-76L815 312L916 301Q909 278 880 273L880 273L880-55Q879-63 847-72L847-72Q834-76 825-76L825-76Z"/></svg>