<svg id="U180F6" viewBox="0 0 1000 1000"><path transform="translate(0, 900) scale(1,-1)" d="M394 483L380 494Q470 617 516 815L516 815L622 781Q614 768 600 766L600 766Q596 764 586 764L586 764Q513 590 397 486L397 486Q395 484 394 483L394 483ZM912 708L755 708L755 326Q808 416 832 497L832 497L916 446Q908 434 893 433L893 433Q889 433 878 435L878 435Q833 359 755 290L755 290L755 14Q755-14 769-16L769-16Q772-17 775-17L775-17Q802-17 806-16L806-16Q818-10 825 6L825 6Q835 29 861 184L861 184Q862 190 863 197L863 197L879 197L880-3Q914-14 916-31L916-31Q916-62 870-70L870-70Q841-75 781-75L781-75Q711-75 696-46L696-46Q688-30 688-3L688-3L688 708L640 708L631 738L804 738L851 799L939 724Q933 709 912 708L912 708ZM104 569L95 599L311 599L311 721L109 721L100 751L301 751L340 793L420 729Q410 717 379 710L379 710L379 558Q378 549 348 538L348 538Q333 533 322 533L322 533L311 533L311 569L104 569ZM525 197L525 197Q558 265 582 341L582 341L683 294Q673 281 656 280L656 280Q652 279 643 281L643 281Q605 196 565 138L565 138Q637 18 623-44L623-44Q616-74 593-77L593-77Q585-77 579-75L579-75Q565-69 554-56L554-56Q549 10 525 83L525 83Q451-11 353-80L353-80L340-68Q431 19 501 148L501 148Q470 217 441 267L441 267Q410 234 386 215L386 215L373 226Q396 254 422 297L422 297Q497 420 543 579L543 579L644 540Q635 527 620 525L620 525L607 525Q538 375 457 284L457 284Q496 238 525 197ZM418 126L263 126L263-54Q262-62 230-71L230-71Q217-75 208-75L208-75L198-75L198 126L71 126L62 156L198 156L198 312L98 312L89 342L198 342L198 514L299 503Q292 480 263 475L263 475L263 342L302 342L338 391L411 328Q405 313 384 312L384 312L263 312L263 156L335 156L372 205L445 142Q439 127 418 126L418 126Z"/></svg>