<svg id="U18D07" viewBox="0 0 1000 1000"><path transform="translate(0, 900) scale(1,-1)" d="M536 535L525 548Q627 638 705 811L705 811L799 768Q790 755 777 754L777 754Q767 754 761 756L761 756Q696 656 621 594L621 594Q660 541 711 499L711 499Q776 585 825 680L825 680L920 639Q912 626 898 624L898 624Q888 624 882 625L882 625Q829 539 756 463L756 463Q845 401 953 359L953 359L950 348Q905 343 881 296L881 296Q878 290 876 285L876 285Q782 339 709 418L709 418Q619 338 512 284L512 284L501 298Q591 358 676 456L676 456Q629 518 600 577L600 577Q568 553 536 535L536 535ZM544 722L76 722L67 752L447 752L489 808L571 738Q565 723 544 722L544 722ZM496 564L496 87Q495 79 463 70L463 70Q450 66 441 66L441 66L431 66L431 228L430 228Q393 167 346 114L346 114Q435 20 428-38L428-38Q426-71 398-75L398-75Q394-75 390-75L390-75Q374-71 362-60L362-60Q350 5 308 75L308 75Q207-21 71-76L71-76L61-63Q187 7 278 122L278 122Q245 169 206 209L206 209Q194 201 173 190L173 190L173 45Q172 37 140 28L140 28Q127 24 118 24L118 24L108 24L108 638L121 633L184 605L420 605L456 644L537 583Q523 570 496 564L496 564ZM380 283L431 258L431 575L323 575L391 535Q381 523 364 524L364 524Q360 524 351 526L351 526Q292 437 190 375L190 375Q189 375 188 374Q187 373 186 373L186 373L175 385Q247 455 298 575L298 575L173 575L173 217Q267 301 341 436L341 436L426 385Q418 374 403 375L403 375Q397 374 388 377L388 377Q313 279 224 220L224 220Q263 191 303 156L303 156Q349 218 380 283L380 283ZM836 231L836 231Q789 167 744 120L744 120Q832 50 952-3L952-3L949-14Q901-18 875-65L875-65Q873-69 871-73L871-73Q770-13 695 73L695 73Q591-20 461-77L461-77L451-62Q563 7 658 118L658 118Q601 196 565 285L565 285L585 299Q626 228 694 163L694 163Q743 227 782 296L782 296L876 239Q865 227 849 229L849 229Q845 229 836 231Z"/></svg>