<svg id="U186F6" viewBox="0 0 1000 1000"><path transform="translate(0, 900) scale(1,-1)" d="M70 387L64 401Q263 486 353 585L353 585L98 585L89 614L255 614Q301 701 348 817L348 817L449 781Q436 763 410 766L410 766Q351 680 285 614L285 614L353 614L384 653L471 591Q459 579 431 578L431 578Q393 533 339 499L339 499Q459 473 490 432L490 432Q494 425 496 420L496 420Q508 386 481 373L481 373Q478 372 475 371L475 371Q462 368 444 374L444 374Q401 438 311 482L311 482Q231 437 70 387L70 387ZM872 716L496 716L487 746L756 746L806 811L899 732Q893 717 872 716L872 716ZM98 803L109 808Q209 771 227 712L227 712Q238 675 214 658L214 658Q191 643 165 667L165 667Q156 732 98 803L98 803ZM812 253L857 282L917 208Q904 199 873 200L873 200Q810 41 708-37L708-37Q697-45 688-51L688-51Q639-79 570-70L570-70Q581-39 577-8L577-8Q570 30 553 73L553 73Q507 44 449 16L449 16L441 29Q580 115 683 276L683 276L600 317L582 286L497 346Q516 361 539 363L539 363L742 567L527 567L518 597L739 597L775 630L853 569Q838 551 815 552L815 552L607 349L700 305Q746 384 777 466L777 466L876 429Q867 409 836 417L836 417Q795 337 756 279L756 279L812 253ZM90 237L83 253Q187 311 287 442L287 442L370 384Q359 374 346 375L346 375Q339 375 329 380L329 380Q226 281 90 237L90 237ZM348 65L348 65Q426 15 435-28L435-28Q443-63 417-73L417-73Q413-74 410-75L410-75Q394-76 378-70L378-70Q353-21 298 30L298 30Q185-43 49-75L49-75L42-59Q152-19 256 64L256 64Q210 99 163 123L163 123Q126 107 81 95L81 95L75 111Q226 177 367 346L367 346L451 294Q441 282 429 283L429 283Q421 283 410 288L410 288Q305 187 191 135L191 135Q242 118 293 94L293 94Q359 154 414 222L414 222L498 168Q488 156 476 157L476 157Q469 157 457 162L457 162Q410 112 348 65ZM652 4L652 4Q700 33 752 114L752 114Q782 161 806 216L806 216L737 250Q663 148 569 83L569 83Q599 23 619 8L619 8Q636-4 652 4Z"/></svg>