<svg id="U1871C" viewBox="0 0 1000 1000"><path transform="translate(0, 900) scale(1,-1)" d="M59 582L54 597Q242 626 368 730L368 730Q376 737 383 743L383 743L100 743L91 772L386 772L417 811L504 749Q492 737 464 736L464 736Q331 605 59 582L59 582ZM663 746L663 746Q618 606 536 512L536 512L522 520Q579 630 599 801L599 801L701 765Q692 750 676 747L676 747Q672 746 663 746ZM729 160L729 160Q820 66 927-10L927-10L925-21Q878-25 858-67L858-67Q855-73 853-79L853-79Q765 4 691 107L691 107Q608 3 499-77L499-77L486-64Q583 31 655 160L655 160Q599 246 558 338L558 338Q675 531 750 789L750 789L853 750Q848 736 831 732L831 732Q825 732 818 733L818 733Q814 733 813 733L813 733Q727 491 594 337L594 337Q632 273 682 213L682 213Q729 311 758 414L758 414L868 370Q859 356 842 353L842 353L829 353Q788 247 729 160ZM468 630L468 430Q467 422 435 413L435 413Q422 409 413 409L413 409L403 409L403 669L504 658Q497 635 468 630L468 630ZM899 535L899 535Q942 476 932 435L932 435Q924 403 895 406L895 406Q891 406 888 407L888 407Q873 411 861 427L861 427Q855 530 791 622L791 622L803 630Q864 581 899 535ZM329 564L329 442Q328 434 296 425L296 425Q283 421 274 421L274 421L264 421L264 603L365 592Q358 569 329 564L329 564ZM186 538L186 359Q185 351 153 342L153 342Q140 338 131 338L131 338L121 338L121 577L222 566Q215 543 186 538L186 538ZM117 231L112 247Q224 292 327 411L327 411L404 347Q392 337 379 339L379 339Q370 341 362 347L362 347Q259 259 121 232L121 232Q120 232 119 231.50Q118 231 117 231L117 231ZM376 54L376 54Q442 21 465-18L465-18Q483-54 460-73L460-73Q457-75 455-76L455-76Q446-80 423-80L423-80Q383-31 316 17L316 17Q193-52 49-79L49-79L44-62Q156-27 266 50L266 50Q221 78 167 101L167 101Q129 90 84 82L84 82L79 98Q234 152 374 295L374 295Q379 300 382 304L382 304L457 237Q445 227 432 229L432 229Q421 233 415 237L415 237Q307 151 204 114L204 114Q256 102 310 82L310 82Q369 127 431 189L431 189L511 126Q499 115 486 118L486 118Q478 120 469 124L469 124Q418 82 376 54Z"/></svg>