<svg id="U18966" viewBox="0 0 1000 1000"><path transform="translate(0, 900) scale(1,-1)" d="M659 819L745 745Q739 730 718 729L718 729L323 729L314 759L613 759L659 819ZM742 188L743 3Q772-15 774-29L774-29Q774-75 626-75L626-75Q620-75 615-75L615-75Q551-74 537-49L537-49Q530-34 530-5L530-5L530 161L425 161L425-54Q424-62 392-71L392-71Q379-75 370-75L370-75L360-75L360 627L385 617L436 594L519 594L555 633L636 572Q622 559 595 553L595 553L595 272Q652 367 679 500L679 500L768 463Q761 452 748 451L748 451L738 451Q689 328 595 236L595 236L595 18Q595-12 603-17L603-17Q607-18 610-19L610-19Q660-19 670-15L670-15Q683-9 689 6L689 6Q702 39 726 188L726 188L742 188ZM530 394L530 564L425 564L425 394L530 394ZM425 364L425 191L530 191L530 364L425 364Z"/></svg>