<svg id="U18299" viewBox="0 0 1000 1000"><path transform="translate(0, 900) scale(1,-1)" d="M409-17L409-17Q411-48 385-56L385-56Q380-57 376-57L376-57Q360-56 347-46L347-46Q330 4 289 63L289 63Q181-30 54-81L54-81L44-67Q155 1 251 111L251 111Q202 166 145 211L145 211Q98 186 57 170L57 170L48 184Q193 266 315 412L315 412Q283 447 248 479L248 479Q169 416 76 375L76 375L66 390Q137 434 210 512L210 512Q148 565 89 599L89 599Q189 687 276 832L276 832L372 779Q364 767 348 766L348 766Q342 766 333 769L333 769Q264 688 143 602L143 602Q196 574 240 546L240 546Q305 622 359 716L359 716L451 661Q441 648 426 650L426 650Q421 650 412 652L412 652Q351 571 289 514L289 514Q325 489 355 463L355 463Q391 513 420 559L420 559L512 506Q502 493 488 495L488 495Q478 495 473 497L473 497Q438 448 406 414L406 414Q461 355 467 312L467 312Q471 263 442 259L442 259Q439 259 440 259L440 259Q430 259 413 268L413 268Q398 308 357 362L357 362Q268 278 167 223L167 223Q226 190 282 148L282 148Q322 199 367 272L367 272L459 210Q448 199 432 201L432 201L420 204Q381 154 334 105L334 105Q408 36 409-17ZM895 729L474 729L465 759L799 759L841 814L922 745Q916 730 895 729L895 729ZM891 507L909 507L910 414Q935 404 937 393L937 393Q938 390 938 387L938 387Q937 343 830 343L830 343Q769 343 756 366L756 366Q749 380 749 408L749 408L749 443L578 443L578 364Q577 356 548 347L548 347Q536 343 527 343L527 343L517 343L517 680L540 671L589 649L738 649L774 687L851 627Q837 614 810 608L810 608L810 432Q810 403 814 400L814 400Q817 399 819 399L819 399L848 400Q850 401 850 401L850 401Q861 407 867 421L867 421Q882 455 891 507L891 507ZM749 559L749 619L578 619L578 559L749 559ZM578 529L578 473L749 473L749 529L578 529ZM494 227L487 242Q582 297 667 411L667 411L749 349Q737 337 724 340L724 340Q717 341 708 345L708 345Q612 262 494 227L494 227ZM745 47L745 47Q837 20 947 20L947 20L947 9Q906-10 896-63L896-63Q895-69 895-73L895-73Q774-56 676 10L676 10Q550-52 408-74L408-74L403-58Q520-24 630 44L630 44Q593 76 565 110L565 110Q502 85 437 72L437 72L431 88Q597 151 761 322L761 322L838 254Q826 244 813 248L813 248Q805 249 797 254L797 254Q692 168 594 123L594 123Q630 96 675 74L675 74Q758 131 840 213L840 213L919 146Q908 136 894 139L894 139Q888 141 879 145L879 145Q813 89 745 47Z"/></svg>