<svg id="U18433" viewBox="0 0 1000 1000"><path transform="translate(0, 900) scale(1,-1)" d="M300 609L300 609Q246 501 142 430L142 430Q116 412 74 387L74 387L65 397Q176 490 229 616L229 616L90 616L81 645L173 645Q203 719 235 824L235 824L327 798Q319 780 293 780L293 780Q290 780 288 780L288 780Q254 714 198 645L198 645L224 645L255 683L340 622Q328 610 300 609ZM595 505L581 515Q655 633 691 822L691 822L797 788Q789 774 774 771L774 771Q767 769 761 770L761 770Q701 613 602 512L602 512Q598 508 595 505L595 505ZM107 699L107 699Q109 761 71 816L71 816L83 820Q167 774 170 721L170 721Q172 690 148 682L148 682Q125 673 107 699ZM824 567L824 806L920 795Q913 774 885 768L885 768L885-54Q884-62 855-71L855-71Q843-75 834-75L834-75L824-75L824 307L822 307Q820 307 809 307L809 307Q779 224 732 142L732 142Q807 17 791-48L791-48Q783-80 757-80L757-80Q751-80 746-78L746-78Q732-72 722-58L722-58Q719 8 695 86L695 86Q630-5 534-83L534-83L522-72Q608 20 671 154L671 154Q643 223 614 274L614 274Q597 256 560 223L560 223L560-1Q559-9 527-18L527-18Q514-22 505-22L505-22L495-22L495 422L424 422L424-52Q423-60 391-69L391-69Q378-73 369-73L369-73L359-73L359 223Q349 221 343 222L343 222Q339 222 330 224L330 224Q293 159 256 109L256 109Q323 10 320-42L320-42Q319-70 296-77L296-77Q288-79 281-77L281-77Q269-75 255-59L255-59Q244-7 217 61L217 61Q143-22 49-79L49-79L38-65Q123 9 191 119L191 119Q166 170 138 217L138 217Q106 194 68 171L68 171L57 184Q169 281 251 464L251 464L344 413Q333 401 319 401L319 401Q318 401 314 402L314 402Q308 403 305 404L305 404Q238 299 156 232L156 232Q191 193 216 162L216 162Q253 228 280 295L280 295L359 242L359 485L372 480L435 452L484 452L520 491L601 430Q587 417 560 411L560 411L560 253Q663 391 727 603L727 603L824 567ZM350 577L341 607L516 607L516 715L355 715L346 745L506 745L545 787L625 723Q615 711 584 704L584 704L584 566Q583 557 553 546L553 546Q538 541 527 541L527 541L516 541L516 577L350 577ZM744 363L824 332L824 559Q817 552 805 550L805 550L792 550Q719 388 627 288L627 288Q666 242 692 203L692 203Q725 288 744 363L744 363Z"/></svg>