<svg id="U18448" viewBox="0 0 1000 1000"><path transform="translate(0, 900) scale(1,-1)" d="M254 111L254 111Q303 37 303-3L303-3Q302-33 279-40L279-40Q271-42 264-40L264-40Q248-34 238-22L238-22Q229 12 212 60L212 60Q140-21 44-79L44-79L33-65Q119 11 187 121L187 121Q165 169 133 224L133 224Q108 205 68 181L68 181L57 194Q169 291 251 474L251 474L335 428Q342 465 341 485L341 485Q335 548 315 605L315 605Q314 605 313 604L313 604Q299 591 265 561L265 561Q211 473 108 407L108 407Q89 395 60 378L60 378L51 388Q162 481 215 607L215 607L76 607L67 636L159 636Q189 710 221 815L221 815L313 789Q305 771 279 771L279 771Q276 771 274 771L274 771Q240 705 184 636L184 636L210 636L241 674L293 637Q344 718 385 824L385 824L471 768Q463 758 451 756L451 756Q440 755 425 758L425 758Q388 685 340 632L340 632Q388 557 392 529L392 529Q398 543 448 689L448 689L471 678Q458 620 429 501L429 501Q428 496 424 488L424 488Q416 463 422 452L422 452Q410 427 366 401L366 401Q342 388 329 388L329 388Q331 407 333 414L333 414Q326 411 319 411L319 411Q318 411 314 412L314 412Q308 413 305 414L305 414Q233 303 150 237L150 237Q188 196 213 165L213 165Q249 233 275 295L275 295L371 239Q360 226 343 226L343 226L330 229Q295 165 254 111ZM613 284L613 284Q640 368 657 447L657 447L754 406Q742 390 726 387L726 387Q724 386 720 386L720 386Q715 385 713 385L713 385Q688 296 650 216L650 216Q715 81 713-13L713-13Q712-59 683-68L683-68Q678-69 673-69L673-69Q661-68 651-60L651-60Q644 36 613 143L613 143Q543 20 447-80L447-80L433-71Q529 56 589 216L589 216Q561 295 523 360L523 360Q590 557 639 820L639 820L741 790Q734 775 717 774L717 774Q711 773 702 774L702 774Q688 714 667 638L667 638Q699 609 722 579L722 579Q751 539 744 508L744 508Q737 478 712 479L712 479Q710 479 707 480L707 480Q693 484 679 499L679 499Q679 561 657 606L657 606Q617 475 561 364L561 364Q590 325 613 284ZM464 468L450 474Q501 613 516 817L516 817L617 797Q612 782 595 776L595 776Q594 776 583 774L583 774Q537 581 464 468L464 468ZM93 690L93 690Q95 752 57 807L57 807L69 811Q153 765 156 712L156 712Q158 681 134 673L134 673Q111 664 93 690ZM926 704L816 704L816 342Q844 403 864 475L864 475L947 424Q939 412 924 411L924 411Q920 411 909 413L909 413Q878 364 816 295L816 295L816 14Q819-15 829-17L829-17Q834-16 835-16L835-16Q847-11 854 6L854 6Q866 36 888 182L888 182L888 183L905 183L906-3Q939-16 941-31L941-31Q939-75 840-75L840-75Q776-75 762-46L762-46Q755-31 755-3L755-3L755 704L717 704L708 734L845 734L881 783L953 720Q947 705 926 704L926 704ZM444 388L531 326Q519 314 491 313L491 313Q456 106 338-44L338-44Q325-61 311-77L311-77L298-69Q408 114 420 320L420 320L313 320L304 349L413 349L444 388Z"/></svg>