<svg id="U1817F" viewBox="0 0 1000 1000"><path transform="translate(0, 900) scale(1,-1)" d="M823 204L859 247L949 184Q937 172 913 171L913 171Q831 43 623-39L623-39Q566-61 505-77L505-77L494-60Q669-1 774 102L774 102Q812 139 831 174L831 174L639 174L615 155L563 217Q573 220 603 225L603 225L786 350L590 350L588 356Q551 343 510 332L510 332L500 349Q657 400 754 497L754 497Q786 529 802 559L802 559L604 559L580 540L527 602Q537 605 567 610L567 610L757 739L554 739L546 769L758 769L795 811L892 748Q880 736 856 735L856 735L631 589L797 589L834 632L924 569Q912 557 888 556L888 556Q819 452 652 380L652 380L784 380L822 421L918 359Q906 347 882 346L882 346L665 204L823 204ZM543 87L345 87L345-55Q344-63 312-72L312-72Q299-76 290-76L290-76L280-76L280 87L97 87L88 117L280 117L280 232L159 232L150 262L280 262L280 376L139 376L130 406L280 406L280 560Q190 514 81 486L81 486L74 501Q287 581 400 735L400 735L125 735L116 764L400 764L431 803L518 741Q506 729 478 728L478 728Q413 636 302 573L302 573L381 564Q374 541 345 536L345 536L345 406L426 406L462 455L534 392Q528 377 507 376L507 376L345 376L345 262L400 262L436 311L509 248Q503 233 482 232L482 232L345 232L345 117L461 117L497 166L570 103Q564 88 543 87L543 87Z"/></svg>