<svg id="U180C1" viewBox="0 0 1000 1000"><path transform="translate(0, 900) scale(1,-1)" d="M895 222L896-3Q929-17 932-31L932-31Q932-60 888-68L888-68Q852-75 752-75L752-75Q684-75 670-46L670-46Q663-31 663-6L663-6L663 602L739 569L815 569L815 734L651 734L642 764L805 764L844 806L924 742Q914 730 883 723L883 723L883 525Q882 516 852 505L852 505Q837 500 826 500L826 500L815 500L815 539L730 539L730 249Q775 320 806 419L806 419L906 375Q897 362 882 361L882 361Q873 361 868 362L868 362Q813 267 730 204L730 204L730 13Q730-10 750-14L750-14Q758-15 767-15L767-15Q804-15 814-13L814-13Q828-7 836 8L836 8Q858 66 882 222L882 222L895 222ZM357 736L357 736Q277 540 151 428L151 428Q111 393 71 371L71 371L60 386Q166 470 245 654L245 654Q275 725 294 798L294 798L406 746Q398 733 381 733L381 733Q377 733 367 735L367 735Q360 736 357 736ZM119 624L119 624Q121 668 103 712L103 712Q94 738 67 782L67 782L78 789Q132 757 168 716L168 716Q208 667 201 629L201 629Q196 602 168 598L168 598Q161 597 155 598L155 598Q133 603 119 624ZM524 139L556 139L588 183L655 125Q649 110 628 109L628 109L524 109L524-52Q523-60 491-69L491-69Q478-73 469-73L469-73L459-73L459 109L372 109L363 139L459 139L459 290L392 290L383 320L459 320L459 460Q410 416 329 362L329 362L319 373Q485 521 538 677L538 677L392 677L383 706L534 706L565 745L652 683Q640 671 612 670L612 670Q573 573 492 490L492 490L560 483Q553 460 524 455L524 455L524 320L540 320L572 364L639 306Q633 291 612 290L612 290L524 290L524 139ZM374 232L361 235Q328 176 281 116L281 116Q361 22 357-37L357-37Q356-68 332-74L332-74Q325-75 319-74L319-74Q306-72 292-59L292-59Q277 5 242 71L242 71Q159-19 49-81L49-81L37-69Q133 6 212 125L212 125Q179 179 146 219L146 219Q110 190 67 166L67 166L56 179Q195 298 288 514L288 514Q289 516 290 518L290 518L388 466Q377 453 362 454L362 454Q354 454 349 456L349 456Q269 319 164 233L164 233Q205 197 237 164L237 164Q275 229 309 304L309 304L402 244Q391 231 374 232L374 232Z"/></svg>