<svg id="U18614" viewBox="0 0 1000 1000"><path transform="translate(0, 900) scale(1,-1)" d="M814 765L859 824L944 751Q938 736 917 735L917 735L483 735L474 765L814 765ZM153 430L143 430L143 527L66 527L57 557L143 557L143 660L217 652Q259 692 290 731L290 731L113 731L104 761L296 761L329 800L413 735Q400 720 370 715L370 715Q300 660 208 609L208 609L208 557L311 557L311 646L412 635Q405 612 376 607L376 607L376 557L408 557L446 608L521 543Q515 528 494 527L494 527L376 527L376 454Q375 446 343 437L343 437Q330 433 321 433L321 433L311 433L311 527L208 527L208 451Q207 443 175 434L175 434Q162 430 153 430L153 430ZM474 423L463 437Q562 532 629 702L629 702L729 649Q718 636 703 637L703 637Q699 637 690 639L690 639Q607 508 486 431L486 431Q479 426 474 423L474 423ZM818-75L808-75L808 677L909 666Q902 643 873 638L873 638L873-54Q872-62 840-71L840-71Q827-75 818-75L818-75ZM623 175L623 175Q668 241 704 316L704 316L801 262Q789 250 775 251L775 251Q771 251 762 253L762 253Q722 187 672 129L672 129Q766 32 768-34L768-34Q768-67 742-74L742-74Q737-75 733-75L733-75Q718-73 704-62L704-62Q679 14 631 86L631 86Q535-9 401-75L401-75L391-62Q506 16 596 137L596 137Q557 189 508 238L508 238Q481 220 460 209L460 209L450 222Q468 236 489 257L489 257L488 258L492 260Q592 359 673 522L673 522L766 477Q758 463 742 464L742 464Q737 463 727 465L727 465Q633 326 527 251L527 251Q583 211 623 175ZM452 156L297 156L297-54Q296-62 265-72L265-72Q253-75 244-75L244-75L234-75L234 156L91 156L82 186L234 186L234 330L122 330L113 360L318 360L356 411L432 346Q426 331 405 330L405 330L297 330L297 186L365 186L403 238L479 172Q473 157 452 156L452 156Z"/></svg>