<svg id="U1857E" viewBox="0 0 1000 1000"><path transform="translate(0, 900) scale(1,-1)" d="M916 138L917-3Q949-16 951-33L951-33Q951-68 863-74L863-74Q849-75 835-75L835-75L784-75Q736-75 728-47L728-47Q724-35 724-15L724-15L724 151L626 151L626-54Q625-62 593-71L593-71Q580-75 571-75L571-75L561-75L561 287Q558 286 555 286L555 286Q553 286 542 286L542 286Q510 198 469 128L469 128Q542 18 529-43L529-43Q520-75 495-75L495-75Q489-75 484-73L484-73Q471-67 460-53L460-53Q455 7 434 73L434 73Q377-8 296-77L296-77L282-67Q358 22 410 139L410 139Q389 190 360 241L360 241Q346 224 332 210L332 210L332 21Q331 13 299 4L299 4Q286 0 277 0L277 0L267 0L267 236Q231 133 219 85L219 85Q206 36 212 10L212 10Q201-16 159-43L159-43Q136-58 123-58L123-58Q124-45 128-18L128-18Q135 41 135 65L135 65Q129 143 109 215L109 215Q92 198 61 174L61 174L52 186Q80 224 97 254L97 254Q144 333 178 433L178 433L266 377Q259 368 247 366L247 366Q236 363 220 366L220 366Q183 290 136 241L136 241Q179 152 184 125L184 125Q191 138 258 294L258 294Q262 303 265 311L265 311L267 310L267 486Q165 431 57 398L57 398L49 414Q171 468 267 541L267 541L267 821L368 810Q361 787 332 782L332 782L332 597Q401 664 444 740L444 740L536 686Q527 674 513 673L513 673Q507 673 498 676L498 676Q431 592 332 526L332 526L332 248Q400 375 424 550L424 550L530 515Q520 501 505 498L505 498Q501 497 492 497L492 497Q450 356 372 256L372 256Q412 209 429 186L429 186Q458 260 477 342L477 342L561 310L561 816L662 805Q655 782 626 777L626 777L626 656L760 656L809 719Q848 690 902 641L902 641Q896 626 877 626L877 626L626 626L626 520L713 520L749 559L830 498Q816 485 789 479L789 479L789 351L798 351L836 407Q867 383 920 336L920 336Q914 321 895 321L895 321L789 321L789 181L815 181L853 237Q884 213 937 166L937 166Q931 151 912 151L912 151L789 151L789 2Q791-17 803-18L803-18Q840-18 848-16L848-16Q860-10 867 5L867 5Q888 55 903 138L903 138L916 138ZM158 572L158 572Q150 616 128 654L128 654Q108 686 81 715L81 715L92 725Q145 703 189 667L189 667Q233 628 234 591L234 591Q233 561 206 555L206 555Q200 554 195 554L195 554Q174 555 158 572ZM724 351L724 490L626 490L626 351L724 351ZM626 321L626 181L724 181L724 321L626 321Z"/></svg>