<svg id="U18A4D" viewBox="0 0 1000 1000"><path transform="translate(0, 900) scale(1,-1)" d="M699 727L309 727L300 757L584 757L634 821L726 743Q720 728 699 727L699 727ZM582 332L572 332L572 411L422 411L422 331Q421 323 389 314L389 314Q376 310 367 310L367 310L357 310L357 679L376 670L433 646L561 646L597 685L678 624Q664 611 637 605L637 605L637 353Q636 345 604 336L604 336Q591 332 582 332L582 332ZM572 544L572 616L422 616L422 544L572 544ZM422 514L422 441L572 441L572 514L422 514ZM599 267L645 327L731 253Q725 238 704 237L704 237L314 237L305 267L599 267ZM437 151L570 151L606 190L687 129Q673 116 646 110L646 110L646-53Q645-61 613-70L613-70Q600-74 591-74L591-74L581-74L581 121L426 121L426-48Q425-56 393-65L393-65Q380-69 371-69L371-69L361-69L361 184L437 151Z"/></svg>