<svg id="U18B06" viewBox="0 0 1024 1024"><path transform="translate(0, 921.6) scale(1,-1)" d="M203 499L431 499Q443 603 443 728L443 728L175 728Q133 727 102 721L102 721Q93 718 92 727L92 727Q87 745 72 758L72 758Q64 765 68 769L68 769Q72 772 79 768L79 768Q117 759 163 759L163 759L816 759Q830 760 846 778L846 778L872 815Q879 824 888 815L888 815Q959 752 958 737L958 737Q956 729 943 728L943 728L493 728Q487 602 475 499L475 499L776 499Q787 500 791 504L791 504L814 536Q820 546 829 536L829 536Q866 504 888 482L888 482Q894 475 885 471L885 471Q869 466 862 460L862 460Q849 457 840 244L840 244L831 136Q814 6 787-24L787-24Q755-60 712-78L712-78Q704-82 703-76L703-76Q693-31 600-19L600-19Q585-17 586-7L586-7Q588 3 600 0L600 0Q729-11 745 7L745 7Q761 21 770 49L770 49Q783 97 790 227L790 227Q799 381 806 468L806 468L470 468Q459 392 444 328L444 328Q409 187 328 90L328 90Q257 3 136-66L136-66Q118-77 111-64L111-64Q107-51 123-41L123-41Q229 27 308 126L308 126Q396 250 427 468L427 468L215 468Q173 467 142 461L142 461Q133 458 132 467L132 467Q127 485 112 498L112 498Q104 505 108 509L108 509Q112 512 119 508L119 508Q157 499 203 499L203 499ZM506 372L506 372Q514 379 526 368L526 368Q667 278 671 217L671 217Q673 193 654 159L654 159Q637 132 625 133L625 133Q612 134 611 157L611 157Q590 265 506 356L506 356Q502 364 506 372Z"/></svg>