<svg id="U19DE" viewBox="0 0 836 1000"><path transform="translate(0, 900) scale(1,-1)" d="M259-10L259-10Q205-10 157 27.50Q109 65 79 130Q49 195 49 279L49 279Q49 357 75.50 417Q102 477 147.50 511.50Q193 546 248 546L248 546Q310 546 349 519.50Q388 493 410.50 449.50Q433 406 445.50 354Q458 302 467 250Q476 198 488 154.50Q500 111 521.50 84.50Q543 58 581 58L581 58Q618 58 639.50 88Q661 118 661 198L661 198Q661 266 653.50 325.50Q646 385 638 444.50Q630 504 630 570L630 570Q630 608 643 655.50Q656 703 682 747.50Q708 792 747 821Q786 850 837 850L837 850Q878 850 934 825L934 825L895 765Q877 774 858.50 778Q840 782 824 782L824 782Q770 782 745 733Q720 684 720 566L720 566Q720 505 728 447Q736 389 743.50 334Q751 279 751 229L751 229Q751 163 731.50 109Q712 55 674.50 22.50Q637-10 581-10L581-10Q523-10 487.50 16.50Q452 43 432.50 86.50Q413 130 402 182.50Q391 235 382 287Q373 339 359 382.50Q345 426 319.50 452.50Q294 479 249 479L249 479Q221 479 195.50 458.50Q170 438 154.50 394Q139 350 139 278L139 278Q139 178 171 118Q203 58 261 58L261 58Q281 58 298.50 63Q316 68 331 81L331 81L374 29Q329-10 259-10Z"/></svg>