<svg id="U19B5" viewBox="0 0 703 1000"><path transform="translate(0, 900) scale(1,-1)" d="M576-10L576-10Q518-10 488 22Q458 54 458 103L458 103Q458 125 462 145.50Q466 166 470 196.50Q474 227 474 278L474 278Q474 307 467.50 341.50Q461 376 443.50 407Q426 438 392.50 458.50Q359 479 306 479L306 479Q219 479 179 422Q139 365 139 273L139 273Q139 185 165.50 132.50Q192 80 238 61L238 61L210-5Q143 31 96 98.50Q49 166 49 263L49 263Q49 345 82.50 408.50Q116 472 174.50 509Q233 546 306 546L306 546Q374 546 423 521Q472 496 503 456.50Q534 417 549 371.50Q564 326 564 284L564 284Q564 247 558.50 218.50Q553 190 547 164Q541 138 541 109L541 109Q541 58 579 58L579 58Q593 58 601.50 59.50Q610 61 622 64L622 64L651 5Q634-1 612-5.50Q590-10 576-10Z"/></svg>