<svg id="U1A3F" viewBox="0 0 1058 1000"><path transform="translate(0, 900) scale(1,-1)" d="M228 539L228 539L277 478Q224 445 190 392Q156 339 156 268L156 268Q156 211 177 164Q198 117 237.50 89Q277 61 331 61L331 61Q385 61 423 89Q461 117 481.50 164Q502 211 502 268L502 268Q502 339 468.50 392Q435 445 382 478L382 478L431 539Q471 508 505 470Q539 432 560 383Q581 334 581 268L581 268Q581 259 581 250L581 250Q581 156 626.50 108.50Q672 61 737 61L737 61Q790 61 826.50 89Q863 117 882.50 164Q902 211 902 268L902 268Q902 325 882.50 371.50Q863 418 826.50 445.50Q790 473 737 473L737 473Q714 473 693.50 467.50Q673 462 655 452L655 452L615 510Q643 527 673.50 535.50Q704 544 739 544L739 544Q813 544 867 507Q921 470 950.50 407Q980 344 980 265L980 265Q980 187 951 124.50Q922 62 867.50 26Q813-10 738-10L738-10Q662-10 613 25Q564 60 538 106L538 106Q505 53 451.50 21.50Q398-10 331-10L331-10Q257-10 200 26.50Q143 63 110.50 126Q78 189 78 268L78 268Q78 334 98.50 383Q119 432 153.50 470Q188 508 228 539Z"/></svg>