<svg id="U1A51" viewBox="0 0 653 1000"><path transform="translate(0, 900) scale(1,-1)" d="M349-452L349-452Q219-452 152-360.50Q85-269 85-91L85-91L85 212Q85 313 116.50 387.50Q148 462 205 503Q262 544 338 544L338 544Q408 544 461 510Q514 476 543.50 415.50Q573 355 573 273L573 273Q573 189 544 125.50Q515 62 464 26Q413-10 345-10L345-10Q267-10 204 33L204 33L230 100Q278 61 340 61L340 61Q412 61 453.50 118Q495 175 495 273L495 273Q495 367 452.50 420Q410 473 336 473L336 473Q254 473 207.50 399Q161 325 161 192L161 192L161-129Q161-253 209.50-317.50Q258-382 348-381L348-381Q383-380 413-370.50Q443-361 472-338L472-338L514-400Q442-452 349-452Z"/></svg>