<svg id="U1B232" viewBox="0 0 800 1000"><path transform="translate(0, 900) scale(1,-1)" d="M153 465L153 465L99 527Q216 631 280 745.50Q344 860 363 1000L363 1000L445 989Q436 922 418 860L418 860Q500 786 574 705Q648 624 715 535L715 535L649 485Q533 645 390 780L390 780Q317 606 153 465ZM288-120L288-120Q234-120 194.50-90Q155-60 136-11L136-11L201 25Q218-9 237.50-27Q257-45 282-45L282-45Q305-45 324.50-25Q344-5 344 32L344 32Q344 63 330.50 93Q317 123 294 156L294 156L172 331Q243 411 294.50 477Q346 543 392 614L392 614L446 613L644 326Q618 287 581 240Q544 193 502.50 145Q461 97 421 56L421 56Q423 42 423 29L423 29Q423-12 403.50-46Q384-80 353.50-100Q323-120 288-120ZM268 328L268 328L311 266Q350 309 387.50 355.50Q425 402 460 451L460 451L418 512Q385 467 347 421Q309 375 268 328ZM353 205L356 201Q378 170 393 139L393 139Q435 181 475 229Q515 277 548 323L548 323L506 385Q469 338 431 293Q393 248 353 205L353 205Z"/></svg>