<svg id="U1B1CB" viewBox="0 0 800 1000"><path transform="translate(0, 900) scale(1,-1)" d="M235-120L235-120L191-52Q282 15 347 87.50Q412 160 448 241L448 241Q350 351 228 443L228 443L228 447Q429 678 503 1000L503 1000L582 985Q556 871 514 767L514 767Q543 680 557.50 600.50Q572 521 572 449L572 449Q572 346 543 255L543 255Q626 155 690 39L690 39L625-3Q572 89 507 171L507 171Q466 90 398 18Q330-54 235-120ZM492 450L492 450Q492 546 463 654L463 654Q409 548 337 455L337 455Q413 394 478 327L478 327Q492 387 492 450ZM159 250L159 250Q137 250 121.50 266.50Q106 283 106 306L106 306Q106 331 121.50 347Q137 363 159 363L159 363Q183 363 197.50 347Q212 331 212 306L212 306Q212 283 197.50 266.50Q183 250 159 250ZM160 51L160 51Q138 51 122.50 67.50Q107 84 107 107L107 107Q107 132 122.50 148Q138 164 160 164L160 164Q184 164 198.50 148Q213 132 213 107L213 107Q213 84 198.50 67.50Q184 51 160 51Z"/></svg>