<svg id="U1B29D" viewBox="0 0 800 1000"><path transform="translate(0, 900) scale(1,-1)" d="M195 381L195 381L160 449Q214 480 264 515Q314 550 361 588L361 588Q351 628 338 671L338 671Q268 611 181 556L181 556L144 622Q275 705 361 798Q447 891 498 1000L498 1000L569 971Q509 840 403 731L403 731Q417 690 428 647L428 647Q514 726 583 815L583 815L642 768Q559 659 447 561L447 561Q467 453 467 361L467 361L388 355Q390 426 378 504L378 504Q291 436 195 381ZM582 483L582 483Q558 483 544.50 499Q531 515 531 538L531 538Q531 561 544.50 577.50Q558 594 582 594L582 594Q604 594 618.50 577.50Q633 561 633 538L633 538Q633 515 618.50 499Q604 483 582 483ZM264-120L264-120L195-95Q213-57 222.50-10.50Q232 36 233 83Q234 130 224 168L224 168Q321 226 409.50 289.50Q498 353 577 420L577 420L634 406Q651 324 655 246.50Q659 169 652 92L652 92L576 96Q580 155 579.50 209Q579 263 571 314L571 314Q526 277 477 242L477 242Q486 170 484 98.50Q482 27 466-38L466-38L392-28Q405 24 408 81.50Q411 139 406 193L406 193Q358 161 306 130L306 130Q310 90 306 44Q302-2 291.50-45Q281-88 264-120ZM280 260L280 260Q256 260 242.50 276Q229 292 229 316L229 316Q229 339 242.50 355Q256 371 280 371L280 371Q302 371 316.50 355Q331 339 331 316L331 316Q331 292 316.50 276Q302 260 280 260Z"/></svg>