<svg id="U1B0B9" viewBox="0 0 1024 1024"><path transform="translate(0, 921.6) scale(1,-1)" d="M456 558L446 576L438 591L431 601L424 609L419 613L412 616L403 616L391 612L380 602L338 549L282 473L217 374L199 348L182 327L176 321L175 320L173 319L163 310L161 313L154 309L137 311L121 317L108 326L96 337L87 349L80 363L75 379L72 396L71 413L67 433L77 435L82 417L91 403L100 390L109 381L117 375L125 371L131 369L138 370L139 370L154 385L250 497L282 533L316 568L354 603L395 636L407 643L423 647L441 645L459 637L475 625L492 609L507 588L523 564L523 560L524 561L535 539L591 407L602 382L614 361L624 344L632 333L635 331L647 326L663 323L681 321L703 320L729 321L757 323L788 326L822 331L823 329L835 332L859 333L882 330L903 322L922 309L937 291L947 269L945 256L947 256L943 237L934 220L922 204L908 191L891 178L872 166L850 155L824 144L766 123L763 132L789 148L833 181L850 196L864 210L874 224L880 235L883 245L884 252L883 256L885 256L883 263L880 271L875 278L866 285L853 291L835 295L813 296L787 296L756 292L683 277L661 275L639 274L620 276L608 279L607 279L604 280L601 281L584 290L570 308L557 330L532 380L476 512L467 532L468 533L465 535L456 558Z"/></svg>