<svg id="U1B04F" viewBox="0 0 1024 1024"><path transform="translate(0, 921.6) scale(1,-1)" d="M775 662L743 659L672 654L592 649L589 649L574 647L575 635L576 598L576 561L574 523L573 509L573 494L572 458L568 423L554 402L530 396L510 410L510 411L483 431L452 449L422 463L392 474L361 480L331 481L299 478L267 471L232 461L221 456L213 444L199 419L192 394L190 370L194 348L203 329L217 313L236 302L264 295L297 294L330 304L570 385L590 392L609 402L638 415L667 426L696 436L725 445L753 452L782 457L810 462L838 465L861 456L864 452L865 452L877 430L871 406L849 394L819 391L785 387L729 377L642 340L571 305L515 270L472 238L470 236L458 207L449 180L444 155L444 134L447 117L454 102L465 88L474 79L475 80L482 73L513 62L537 55L563 48L589 42L616 38L645 34L675 32L706 31L738 31L761 20L770-2L759-25L737-34L734-34L696-36L657-36L621-34L587-30L555-24L525-16L498-6L473 5L450 19L441 26L435 28L416 52L402 78L395 106L394 135L400 164L410 194L426 223L447 253L455 263L467 279L489 302L515 325L521 329L495 323L318 233L315 232L308 231L303 229L292 230L269 231L247 234L227 241L212 248L210 249L209 250L192 262L178 273L157 303L153 314L145 330L148 331L146 337L145 372L153 405L170 436L194 461L215 472L223 479L256 499L291 513L327 521L364 525L401 523L439 515L477 502L514 484L516 498L519 531L521 565L521 600L520 635L520 638L471 631L383 619L303 610L292 608L286 604L267 606L266 606L262 606L251 615L230 634L212 654L203 665L195 676L188 688L181 700L173 711L180 718L191 709L236 685L259 675L272 670L337 672L378 673L421 675L462 677L516 685L514 698L497 760L487 787L473 797L447 810L400 832L382 837L384 846L403 845L422 845L439 845L457 843L473 842L488 840L503 837L516 833L530 829L542 824L556 804L554 793L557 798L622 781L677 764L722 748L758 732L772 724L789 720L802 699L796 676L775 662ZM554 789L553 785L563 741L568 707L569 692L628 701L688 711L660 729L554 789Z"/></svg>