<svg id="U1B1E1" viewBox="0 0 800 1000"><path transform="translate(0, 900) scale(1,-1)" d="M156-120L156-120L104-55Q175 11 238 82.50Q301 154 355 235L355 235Q301 319 244 389L244 389Q221 364 195 338.50Q169 313 141 287L141 287L93 347Q173 422 227.50 493Q282 564 315 639Q348 714 363.50 802.50Q379 891 380 1000L380 1000L460 1000Q459 908 449 831Q439 754 417 686L417 686Q592 528 709 332L709 332L640 289Q600 360 553 423L553 423Q506 324 451 234L451 234Q539 91 602-67L602-67L527-100Q502-35 470 30.50Q438 96 401 160L401 160Q348 84 287 14.50Q226-55 156-120ZM593 703L593 703Q572 703 556.50 719.50Q541 736 541 758L541 758Q541 781 556.50 797.50Q572 814 593 814L593 814Q616 814 630.50 797.50Q645 781 645 758L645 758Q645 736 630.50 719.50Q616 703 593 703ZM191 682L191 682Q170 682 154.50 698.50Q139 715 139 737L139 737Q139 760 154.50 776.50Q170 793 191 793L191 793Q214 793 228.50 776.50Q243 760 243 737L243 737Q243 715 228.50 698.50Q214 682 191 682ZM296 452L296 452Q353 381 402 309L402 309Q454 397 496 494L496 494Q447 551 388 607L388 607Q353 527 296 452Z"/></svg>