<svg id="U1B00C" viewBox="0 0 1024 1024"><path transform="translate(0, 921.6) scale(1,-1)" d="M665-18L618-23L578-22L544-12L517 6L503 34L508 66L526 95L554 122L559 128L514 119L473 128L453 162L460 199L481 234L510 264L546 288L588 299L632 279L634 281L649 262L657 240L656 218L650 196L638 176L633 169L657 178L707 199L748 222L780 245L804 268L820 291L827 314L829 337L824 362L826 362L821 392L808 422L791 446L767 464L735 477L694 485L644 486L585 480L518 467L486 456L463 446L464 418L460 373L449 328L430 287L405 247L374 210L336 175L291 142L289 141L251 118L247 116L240 112L239 114L216 106L182 105L152 116L129 137L116 165L113 198L121 232L125 236L154 283L192 329L237 370L287 407L344 439L398 463L392 486L390 488L384 524L381 559L385 591L393 620L406 647L424 669L447 688L455 693L466 703L500 730L504 733L492 731L453 728L411 731L371 744L334 768L307 808L315 814L351 791L384 778L416 773L450 775L484 781L550 797L580 803L612 803L645 784L652 760L640 738L624 734L625 731L608 727L554 710L505 692L488 680L469 662L455 644L446 625L440 606L438 584L439 561L444 535L450 513L451 513L458 484L474 489L549 507L629 521L715 530L716 524L745 522L789 509L827 486L857 453L879 411L891 362L889 354L890 337L883 298L866 264L840 234L808 208L767 186L720 167L666 151L605 138L580 115L574 111L551 77L543 55L545 44L550 40L561 35L583 33L614 35L652 42L696 56L721 54L737 35L735 11L716-5L665-18ZM585 238L569 235L543 222L518 202L500 179L493 163L494 156L515 147L571 150L575 151L592 178L600 196L604 211L604 221L601 227L598 229L594 231L594 232L585 237L585 238ZM406 420L365 399L315 366L272 330L235 291L204 249L180 204L179 205L174 191L173 177L175 167L181 159L192 153L210 150L236 154L270 168L308 192L322 203L346 233L371 269L389 306L401 343L407 380L407 417L406 420Z"/></svg>