<svg id="U1B266" viewBox="0 0 800 1000"><path transform="translate(0, 900) scale(1,-1)" d="M216 290L216 290L183 360Q266 397 336 442.50Q406 488 450 547L450 547Q423 564 396 580Q369 596 341 611L341 611L341 605Q341 557 323.50 523Q306 489 278 471Q250 453 217 453L217 453Q184 453 155 471Q126 489 108 523Q90 557 90 605L90 605Q90 654 108 688Q126 722 155 740.50Q184 759 217 759L217 759Q247 759 273.50 744Q300 729 317 700L317 700Q389 768 440 843Q491 918 526 1000L526 1000L599 973Q579 921 551 872L551 872Q581 797 581 715L581 715Q581 674 573 637.50Q565 601 550 568L550 568Q593 538 633.50 504.50Q674 471 711 435L711 435L655 381Q621 415 585.50 445.50Q550 476 513 503L513 503Q464 436 387 383.50Q310 331 216 290ZM507 717L507 717Q507 753 498 791L498 791Q450 724 390 666L390 666Q439 640 486 611L486 611Q507 661 507 717ZM217 526L217 526Q235 526 246.50 547.50Q258 569 258 605L258 605Q258 641 246.50 663.50Q235 686 217 686L217 686Q198 686 186 663.50Q174 641 174 605L174 605Q174 569 186 547.50Q198 526 217 526ZM571 232L571 232Q571 192 561.50 156Q552 120 535 89L535 89Q577 63 617 33.50Q657 4 698-31L698-31L648-91Q575-28 490 27L490 27Q443-23 375.50-59.50Q308-96 230-120L230-120L205-47Q268-27 324 2Q380 31 420 70L420 70Q379 94 334.50 116Q290 138 244 159L244 159L244 164Q320 222 382.50 290Q445 358 494 432L494 432L496 432Q534 383 552.50 334.50Q571 286 571 232ZM495 232L495 232Q495 262 486 293L486 293Q437 229 378 176L378 176Q426 152 467 129L467 129Q481 152 488 178Q495 204 495 232Z"/></svg>