<svg id="U1B0C2" viewBox="0 0 1024 1024"><path transform="translate(0, 921.6) scale(1,-1)" d="M472 119L468 117L435 76L420 62L442 47L494 27L530 23L550 23L589 25L624 32L656 42L685 57L711 76L736 99L758 127L774 154L779 182L780 205L766 283L738 340L699 383L653 417L604 443L558 466L519 489L493 520L495 562L499 565L498 566L557 628L636 702L701 757L733 781L736 786L738 787L740 788L735 792L721 797L699 799L672 798L638 794L623 791L556 761L470 730L385 705L343 694L301 685L260 677L254 676L236 664L211 668L200 680L191 692L183 706L177 720L173 734L171 750L170 766L170 782L173 798L174 815L184 815L185 799L191 784L196 771L203 760L209 750L216 742L223 735L252 738L292 742L333 747L416 761L503 778L634 808L667 820L696 828L721 832L744 833L765 827L783 812L792 789L791 765L785 741L766 725L763 725L734 709L533 577L523 552L526 537L543 524L576 509L608 500L645 487L679 472L709 456L737 439L762 420L783 399L802 378L817 354L828 330L828 327L840 291L847 258L850 226L850 195L845 165L837 136L824 109L808 84L787 60L757 30L723 5L684-14L640-29L592-39L567-42L559-45L549-43L539-44L539-42L524-39L505-40L494-35L479-33L413-5L376 24L362 14L336-2L310-15L283-25L256-31L228-33L225-24L271 2L293 16L314 32L334 49L344 60L325 86L304 142L298 201L305 259L325 314L357 362L402 396L404 395L409 402L440 419L472 424L504 413L528 387L540 351L542 305L531 252L508 190L478 131L479 131L476 126L472 119ZM448 385L423 378L393 365L380 345L358 299L346 252L345 203L353 155L373 112L381 102L408 139L418 155L452 216L474 269L486 312L488 344L484 365L477 376L466 383L448 385Z"/></svg>