<svg id="U1B04" viewBox="0 0 379 1000"><path transform="translate(0, 900) scale(1,-1)" d="M83 389L37 417Q52 482 90 514Q128 546 185 546L185 546Q245 546 284 510Q323 474 323 408L323 408Q323 353 292.50 324Q262 295 201 281L201 281Q260 250 291 209.50Q322 169 322 120L322 120Q322 89 310 40Q298-9 269-66L269-66Q241-123 216.50-185Q192-247 192-333L192-333Q192-426 221-504.50Q250-583 286-642L286-642L250-674Q188-607 148-514.50Q108-422 108-313L108-313Q108-229 131-167.50Q154-106 181-53L181-53Q207 0 222.50 42Q238 84 238 113L238 113Q238 157 196.50 193.50Q155 230 72 265L72 265L72 316Q159 319 199.50 343.50Q240 368 240 408L240 408Q240 437 222 455.50Q204 474 180 474L180 474Q127 474 83 389L83 389Z"/></svg>