<svg id="U1B0D8" viewBox="0 0 1024 1024"><path transform="translate(0, 921.6) scale(1,-1)" d="M497 176L447 178L402 187L396 121L409 66L434 35L467 20L511 18L562 28L613 50L660 80L695 113L718 136L737 163L750 192L758 225L759 259L752 296L738 334L715 373L682 412L638 451L643 459L695 427L737 391L769 352L791 309L804 265L807 221L802 178L788 137L766 99L747 77L745 72L697 30L639-3L578-26L515-35L454-28L403-1L370 51L363 95L362 96L362 105L360 121L362 136L363 140L365 184L366 199L331 217L307 238L291 262L287 289L287 290L289 303L291 318L295 331L302 345L310 358L320 370L329 379L304 399L288 419L278 439L273 461L274 482L280 502L292 521L306 539L314 534L305 514L303 496L304 481L308 469L315 458L324 448L337 439L354 429L375 419L401 410L404 408L421 471L433 509L432 513L429 525L424 539L418 552L401 583L391 599L378 614L379 615L368 629L367 655L382 678L404 698L432 715L512 759L514 760L506 772L497 782L487 791L474 802L443 823L424 831L427 840L447 835L467 832L486 827L504 822L520 815L535 807L549 798L561 788L573 776L582 763L583 744L585 744L583 742L584 738L567 720L561 720L538 708L510 697L451 676L424 665L403 654L391 644L385 633L391 616L401 609L417 597L432 585L446 573L469 548L487 521L493 506L499 492L492 468L484 463L451 377L438 339L432 320L434 319L414 243L452 238L496 238L545 243L569 237L581 216L575 191L554 179L497 176ZM382 311L389 347L371 343L359 339L347 334L337 329L328 323L326 322L328 319L322 300L323 289L328 281L339 271L357 260L373 254L382 311ZM525 769L527 769L525 769Z"/></svg>