<svg id="U1B096" viewBox="0 0 1024 1024"><path transform="translate(0, 921.6) scale(1,-1)" d="M784 754L785 754L787 747L786 741L787 720L784 687L777 654L753 570L749 551L748 540L749 533L764 530L780 528L803 528L825 527L844 524L862 518L878 509L891 497L901 481L906 463L907 443L895 426L897 424L881 410L797 346L588 205L473 133L452 102L451 96L456 99L489 99L540 102L606 106L679 108L758 106L837 95L913 72L930 54L930 30L912 12L887 12L823 34L752 46L679 52L607 52L543 51L488 52L446 58L417 83L429 119L451 134L682 317L766 386L822 436L838 453L847 464L848 464L849 470L846 476L840 483L831 492L817 500L800 508L778 516L758 519L744 517L725 528L717 549L715 575L717 603L722 633L725 664L728 693L727 718L723 737L722 744L723 747L725 748L722 750L710 748L693 739L670 724L644 702L615 674L600 658L446 437L339 274L335 249L319 226L298 207L302 171L308 123L316 72L309 48L288 36L264 42L256 56L256 60L255 61L254 60L256 56L252 59L254 60L252 63L252 66L245 75L236 85L231 92L209 51L188 4L169-12L145-11L128 8L129 32L155 79L186 131L189 135L184 140L177 143L155 158L137 174L124 192L117 215L118 238L127 261L143 282L156 294L156 295L163 300L189 319L224 332L248 335L249 352L255 408L262 461L271 511L281 557L293 601L300 622L273 620L245 623L220 631L198 644L181 661L169 683L162 707L159 734L168 735L178 713L191 696L203 683L217 676L232 671L250 670L270 673L294 678L320 687L350 699L375 699L392 682L392 657L374 640L363 618L348 582L334 542L320 499L307 452L295 402L295 398L293 385L292 358L291 329L313 318L418 457L480 537L596 674L627 718L649 746L670 768L689 785L710 796L735 799L759 790L776 771L784 754ZM184 238L173 229L166 222L163 216L162 206L166 194L175 178L191 161L200 153L243 218L244 255L244 259L244 281L241 280L221 268L201 249L200 247L184 238Z"/></svg>