<svg id="U1B2A8" viewBox="0 0 800 1000"><path transform="translate(0, 900) scale(1,-1)" d="M333 436L284 433L81 731L142 773L214 668Q244 714 270 758L270 758L178 893L237 935L309 829Q353 914 382 1000L382 1000L449 979Q428 922 404.50 868.50Q381 815 354 764L354 764L411 679Q463 766 503 863L503 863L569 835Q522 727 464 627.50Q406 528 333 436L333 436ZM257 606L257 606L309 529Q341 570 369 612L369 612L314 693Q287 648 257 606ZM357-120L357-120L307-67Q360-12 412 45L412 45L258 271Q378 409 486 559L486 559L542 558L718 307Q615 173 504 44L504 44L586-78L524-120L452-15Q405-68 357-120ZM351 271L351 271L389 214Q430 263 470 313Q510 363 548 415L548 415L510 467Q433 366 351 271ZM429 156L429 156L463 104Q547 201 626 305L626 305L590 356Q551 305 510.50 254.50Q470 204 429 156Z"/></svg>