<svg id="U1BAC" viewBox="0 0 1000 1000"><path transform="translate(500, 900) scale(1,-1)" d="M-489-271L-489-271Q-541-271-582.50-255.50Q-624-240-648.50-211.50Q-673-183-673-144L-673-144Q-673-106-649.50-80.50Q-626-55-588.50-41.50Q-551-28-509-28L-509-28Q-488-28-472.50-29Q-457-30-450-32L-450-32L-450-83Q-459-82-475.50-81.50Q-492-81-509-81L-509-81Q-549-81-578-95Q-607-109-607-144L-607-144Q-607-175-578.50-193.50Q-550-212-491-212L-491-212Q-443-212-411-196Q-379-180-360.50-154.50Q-342-129-334-101.50Q-326-74-326-52L-326-52L-326-39L-266-39L-266-50Q-266-106-290.50-157Q-315-208-364-239.50Q-413-271-489-271Z"/></svg>