<svg id="U1B056" viewBox="0 0 1024 1024"><path transform="translate(0, 921.6) scale(1,-1)" d="M685 237L685 255L683 269L681 278L678 285L673 290L664 294L650 295L631 291L624 288L617 282L599 258L589 244L573 211L566 192L558 172L540 155L516 155L499 173L499 198L511 219L525 239L538 256L544 263L543 263L569 317L582 341L604 373L573 357L561 352L537 356L523 376L527 401L547 415L558 415L570 416L574 417L806 606L827 625L843 641L845 643L843 643L828 643L811 642L792 643L779 645L769 642L749 640L733 652L725 670L725 690L727 712L735 756L737 776L738 791L740 791L737 793L730 794L720 791L708 786L693 777L680 763L673 769L685 784L695 800L705 812L716 823L729 831L743 834L760 833L775 825L788 814L799 800L799 786L802 785L796 763L788 741L764 683L758 664L773 668L789 673L836 689L851 692L869 694L888 691L907 679L922 661L922 636L906 618L908 617L896 607L772 525L600 420L640 428L657 432L664 433L670 437L687 445L711 441L726 421L723 397L703 382L694 381L683 377L670 371L656 363L641 352L608 321L585 298L600 306L617 312L634 316L651 319L651 317L662 321L681 323L700 318L717 305L729 288L738 267L745 242L749 213L747 209L748 209L746 170L742 133L734 99L723 67L710 37L694 10L674-13L652-34L628-52L600-65L595-57L615-36L632-15L646 8L658 31L668 56L676 82L681 110L685 140L685 173L684 207L687 207L684 213L685 237ZM366 356L340 333L322 313L310 297L304 285L302 280L300 277L302 273L312 269L330 267L353 269L373 283L394 304L413 328L427 354L437 380L441 405L440 426L436 437L368 357L367 358L366 356ZM412 702L372 691L368 691L360 663L350 639L338 617L333 609L447 656L480 683L504 687L525 674L530 649L516 629L463 593L435 570L407 545L379 518L382 520L401 524L421 524L441 518L627 705L633 699L568 606L479 491L478 489L490 474L490 468L493 469L501 433L499 397L488 362L471 330L449 300L422 274L392 254L360 240L327 235L299 240L291 240L271 250L258 270L255 294L261 319L274 346L295 374L322 404L324 404L389 466L405 481L400 484L388 485L373 485L356 481L336 473L334 472L282 414L213 333L211 334L136 235L111 204L89 194L66 201L55 223L63 246L263 461L311 507L371 580L374 584L303 544L223 504L199 495L199 496L179 496L160 499L142 505L126 513L113 524L101 537L93 552L86 568L83 586L79 604L88 607L95 591L105 578L115 569L125 561L135 557L145 554L155 553L165 554L177 556L190 560L192 559L253 578L294 594L301 610L307 631L313 652L317 674L318 683L301 681L270 681L242 685L216 692L195 704L178 719L167 738L175 744L191 735L208 730L226 726L246 725L269 727L295 731L320 736L319 749L317 777L313 807L312 810L299 822L291 828L281 834L270 840L257 845L243 848L243 857L258 857L273 859L287 860L300 859L314 858L326 855L338 852L350 846L361 840L371 832L378 808L377 807L378 780L377 754L431 775L456 774L473 756L472 732L454 715L412 702Z"/></svg>