<svg id="U1B1B6" viewBox="0 0 800 1000"><path transform="translate(0, 900) scale(1,-1)" d="M243-120L243-120Q191-120 147.50-87Q104-54 92 21L92 21L172 48Q180 5 197.50-13.50Q215-32 244-32L244-32Q270-32 295.50-12Q321 8 347 51L347 51Q370 88 396 139L396 139L95 580L161 627L296 430Q334 501 366 577L366 577L209 835L277 878L402 673Q454 824 483 1000L483 1000L562 990Q525 770 455 586L455 586L538 450Q565 516 589 580.50Q613 645 633 704L633 704L710 682Q680 592 642.50 495.50Q605 399 564.50 306Q524 213 483.50 132.50Q443 52 406-6L406-6Q368-66 327.50-93Q287-120 243-120ZM347 355L347 355L438 223Q468 286 499 358L499 358L417 493Q385 422 347 355Z"/></svg>