<svg id="U1C6E" viewBox="0 0 574 1000"><path transform="translate(0, 900) scale(1,-1)" d="M287-10L287-10Q225-10 175 15Q125 40 90 81.50Q55 123 36 173L36 173L435 551Q428 567 410.50 590.50Q393 614 363 632Q333 650 287 650L287 650Q241 650 208.50 629.50Q176 609 156 583.50Q136 558 128 542L128 542L36 542Q55 592 90 633.50Q125 675 175 700Q225 725 287 725L287 725Q350 725 399.50 700Q449 675 484 633.50Q519 592 538 542L538 542L138 164Q145 149 162.50 125.50Q180 102 210.50 83.50Q241 65 287 65L287 65Q333 65 365.50 85.50Q398 106 418 132Q438 158 446 173L446 173L538 173Q519 123 484 81.50Q449 40 399.50 15Q350-10 287-10Z"/></svg>