<svg id="U1C58" viewBox="0 0 668 1000"><path transform="translate(0, 900) scale(1,-1)" d="M341-10L341-10Q253-10 198 9Q143 28 113 58.50Q83 89 71.50 124.50Q60 160 60 194L60 194L60 569Q60 587 64.50 613Q69 639 83 665Q97 691 125.50 708.50Q154 726 202 726L202 726Q233 726 261 709Q289 692 313 669.50Q337 647 353 631L353 631Q394 677 426.50 701Q459 725 509 725L509 725Q553 725 581 710Q609 695 624.50 671.50Q640 648 646 621.50Q652 595 652 572L652 572Q652 541 638 505.50Q624 470 591 445Q558 420 502 420L502 420Q473 420 444.50 435.50Q416 451 391.50 473.50Q367 496 349 517L349 517L146 255L146 202Q146 137 191.50 101Q237 65 341 65L341 65Q411 65 451 87Q491 109 508.50 141Q526 173 528 202L528 202L621 202Q621 189 614.50 164Q608 139 591 109.50Q574 80 542.50 52.50Q511 25 462 7.50Q413-10 341-10ZM502 491L502 491Q535 491 553.50 516.50Q572 542 572 572L572 572Q572 603 556 628.50Q540 654 508 654L508 654Q484 654 464.50 639.50Q445 625 429 606Q413 587 399 571L399 571Q408 562 426 542.50Q444 523 464.50 507Q485 491 502 491ZM146 582L146 582L146 372L303 569Q291 581 271 599.50Q251 618 231 632.50Q211 647 198 647L198 647Q178 647 166.50 635Q155 623 150.50 608Q146 593 146 582Z"/></svg>