<svg id="U1D18A" viewBox="0 0 1000 1000"><path transform="translate(500, 900) scale(1,-1)" d="M358-20L358-20Q369-20 376-27Q383-34 383-45L383-45Q383-69 358-69L358-69Q348-69 341-62Q334-55 334-45L334-45Q334-34 341-27Q348-20 358-20ZM229-20L229-20Q240-20 247-27Q254-34 254-45L254-45Q254-69 229-69L229-69Q219-69 212-62Q205-55 205-45L205-45Q205-34 212-27Q219-20 229-20ZM50-59L69-39Q96-67 132.50-90Q169-113 211-127Q253-141 294-141L294-141Q335-141 376.50-127.50Q418-114 455-90.50Q492-67 519-39L519-39L538-58Q485-109 425.50-138.50Q366-168 294-168L294-168Q222-168 162.50-139Q103-110 50-59L50-59Z"/></svg>