<svg id="U1D7FC" viewBox="0 0 602 1000"><path transform="translate(0, 900) scale(1,-1)" d="M313-16L313-16Q247-16 199.50 19Q152 54 126.50 117Q101 180 101 264L101 264Q101 376 140 458.50Q179 541 249 586.50Q319 632 412 632L412 632Q457 632 473 626L473 626Q490 620 490 599L490 599Q490 581 477 574L477 574Q464 567 419 567L419 567Q322 567 261 503Q200 439 185 320L185 320Q238 388 314 388L314 388Q367 388 408.50 361Q450 334 474.50 288.50Q499 243 499 187L499 187Q499 127 475 81.50Q451 36 409 10Q367-16 313-16ZM309 54L309 54Q355 54 385.50 88.50Q416 123 416 183L416 183Q416 243 384.50 280Q353 317 305 317L305 317Q258 317 227 282Q196 247 196 190L196 190Q196 127 228.50 90.50Q261 54 309 54Z"/></svg>