<svg id="U1D6B8" viewBox="0 0 662 1000"><path transform="translate(0, 900) scale(1,-1)" d="M268 29L154-12L137 3L143 568Q145 667 48 667L48 667L48 695L356 695Q365 695 380.50 695.50Q396 696 405 696L405 696Q618 696 618 542L618 542Q618 430 546 367.50Q474 305 337 305L337 305Q290 305 275.50 297.50Q261 290 262 258L262 258L268 29ZM284 333L284 333L296 333Q379 333 428.50 383.50Q478 434 478 522L478 522Q478 591 437.50 627.50Q397 664 323 664L323 664Q289 664 278 657L278 657Q268 650 268 633L268 633L270 346Q273 336 284 333Z"/></svg>