<svg id="U1DB4" viewBox="0 0 168 1000"><path transform="translate(0, 900) scale(1,-1)" d="M141 746L141 746Q155 746 167.50 743Q180 740 187 736L187 736L187 696Q181 698 171.50 700.50Q162 703 153 703L153 703Q133 703 122.50 692Q112 681 112 645L112 645L112 243Q112 204 100.50 182Q89 160 69.50 151.50Q50 143 27 143L27 143Q13 143 0.50 146Q-12 149-19 153L-19 153L-19 193Q-13 191-3.50 188.50Q6 186 15 186L15 186Q35 186 45 197Q55 208 55 244L55 244L55 646Q55 685 67 707Q79 729 98.50 737.50Q118 746 141 746Z"/></svg>