<svg id="U1D6D9" viewBox="0 0 823 1000"><path transform="translate(0, 900) scale(1,-1)" d="M490-144L400-174L383-168L390 12L370 12Q285 12 233 31.50Q181 51 156 88L156 88Q143 107 137.50 136Q132 165 132 204L132 204Q132 218 132.50 231Q133 244 134 257L134 257Q136 272 136 287Q136 302 136 317L136 317Q135 367 127 392Q119 417 90 417L90 417Q67 417 29 394L29 394L13 413Q44 436 75 454.50Q106 473 131.50 484Q157 495 170 495L170 495Q207 495 222 473Q237 451 237 394L237 394L237 264Q237 183 252 135.50Q267 88 301 66.50Q335 45 391 43L391 43L392 262Q393 352 391 453Q389 554 385 666L385 666L475 696L492 690Q486 582 486 487L486 487L486 50Q545 62 587.50 91.50Q630 121 653.50 161.50Q677 202 677 248L677 248Q677 345 597 416L597 416L597 427L664 484Q671 491 679 491L679 491L689 488Q767 424 767 298L767 298Q767 231 732 173Q697 115 633.50 75Q570 35 486 20L486 20L490-144Z"/></svg>