<svg id="U1D984" viewBox="0 0 1000 1000"><path transform="translate(0, 900) scale(1,-1)" d="M500 581L665 416L522 416L522 331Q577 327 628.50 301Q680 275 723 229L723 229L709 214Q666 260 613.50 286Q561 312 502 312L502 312Q452 312 407 293.50Q362 275 321 241L321 241L350 212Q384 240 422 255Q460 270 501 270L501 270Q551 270 597 248Q643 226 680 186L680 186L665 171Q602 239 522 248L522 248L522 18L480 18L480 248Q421 241 365 197L365 197L421 141L247 141L247 315L306 256Q387 323 480 331L480 331L480 416L335 416L500 581Z"/></svg>