<svg id="U1D401" viewBox="0 0 659 1000"><path transform="translate(0, 900) scale(1,-1)" d="M354 0L24 0L24 26Q75 28 93 48Q111 68 111 122L111 122L111 549Q111 592 103 614Q95 636 76 644.50Q57 653 23 653L23 653L23 678L328 678Q590 678 590 522L590 522Q590 399 427 368L427 368Q623 331 623 196L623 196Q623 103 552.50 51.50Q482 0 354 0L354 0ZM271 582L271 375L280 375Q360 375 392 405.50Q424 436 424 514L424 514Q424 582 401 614Q378 646 322 646L322 646Q288 646 279.50 632.50Q271 619 271 582L271 582ZM330 36L330 36Q395 36 421.50 73Q448 110 448 191L448 191Q448 274 412.50 309Q377 344 294 344L294 344L271 344L271 97Q271 63 283.50 49.50Q296 36 330 36Z"/></svg>