<svg id="U1D6FF" viewBox="0 0 590 1000"><path transform="translate(0, 900) scale(1,-1)" d="M196-12L196-12Q129-12 87 24.50Q45 61 45 121L45 121Q45 172 79.50 230Q114 288 172 345Q230 402 299 449L299 449Q235 513 224 532L224 532Q213 551 213 573L213 573Q213 594 229.50 616.50Q246 639 272 659Q298 679 328 690L328 690Q374 707 460 707L460 707Q487 707 512 704Q537 701 560 696L560 696L531 658L372 658Q274 658 274 614L274 614Q274 606 293.50 583.50Q313 561 342 532.50Q371 504 400 477.50Q429 451 448 434L448 434Q487 400 511.50 357Q536 314 536 273L536 273Q536 233 513 188Q490 143 449 102Q408 61 354 32L354 32Q274-12 196-12ZM257 39L257 39Q291 39 325.50 56Q360 73 389 100.50Q418 128 435.50 160Q453 192 453 223L453 223Q453 264 438.50 291Q424 318 398 346L398 346L326 423L275 387Q221 349 185 290.50Q149 232 149 160L149 160Q149 108 179.50 73.50Q210 39 257 39Z"/></svg>