<svg id="U1D0A7" viewBox="0 0 499 1000"><path transform="translate(0, 900) scale(1,-1)" d="M163 204L163 199Q150 196 136 196L136 196Q103 196 103 224L103 224Q103 274 164 274L164 274Q193 274 210 261Q227 248 228 224L228 224L230 175Q230 157 259 152L259 152L259 146Q253 145 244.50 143.50Q236 142 225 142L225 142Q206 142 198 154Q190 166 190 175L190 175L188 227Q187 260 164 260L164 260Q138 260 138 230L138 230Q138 204 163 204L163 204ZM300 204L300 199Q285 196 271 196L271 196Q240 196 240 224L240 224Q240 274 301 274L301 274Q330 274 347 260.50Q364 247 365 223L365 223L366 175Q366 157 396 152L396 152L396 146Q390 145 381 143.50Q372 142 361 142L361 142Q344 142 337 154.50Q330 167 329 175L329 175L325 229Q322 260 301 260L301 260Q276 260 276 230L276 230Q276 204 300 204L300 204Z"/></svg>