<svg id="U1D76B" viewBox="0 0 743 1000"><path transform="translate(0, 900) scale(1,-1)" d="M435 0L308 0L308 86Q225 90 164 124Q103 158 70 218Q37 278 37 359L37 359Q37 440 70.50 500Q104 560 165 594.50Q226 629 308 633L308 633L308 719L435 719L435 633Q517 629 577.50 594.50Q638 560 671.50 500Q705 440 705 359L705 359Q705 278 672 218Q639 158 578.50 124Q518 90 435 86L435 86L435 0ZM308 202L308 202L308 518Q244 512 208 470.50Q172 429 172 360L172 360Q172 291 208 249Q244 207 308 202ZM435 518L435 202Q500 207 535 249Q570 291 570 360L570 360Q570 429 535 470.50Q500 512 435 518L435 518Z"/></svg>