<svg id="U1D6DB" viewBox="0 0 600 1000"><path transform="translate(0, 900) scale(1,-1)" d="M294-11L294-11Q225-11 174 19.50Q123 50 94.50 105.50Q66 161 66 234L66 234Q66 312 99 369.50Q132 427 190.50 458Q249 489 324 489L324 489Q356 489 386 481L386 481Q373 524 345.50 559.50Q318 595 283 617Q248 639 212 639L212 639Q165 639 135 612Q105 585 95 547L95 547L70 554Q88 626 138 667Q188 708 258 708L258 708Q418 708 502 503L502 503Q542 405 542 297L542 297Q542 153 476 71Q410-11 294-11ZM312 29L312 29Q369 29 398 85L398 85Q426 140 426 276L426 276Q426 371 397 441L397 441Q371 451 338 451L338 451Q256 451 220 396.50Q184 342 184 241L184 241Q184 181 200 133Q216 85 244.50 57Q273 29 312 29Z"/></svg>