<svg id="U1D0B7" viewBox="0 0 708 1000"><path transform="translate(0, 900) scale(1,-1)" d="M361 215L361 215L355 173Q388 173 416 184Q444 195 456 215L456 215Q448 226 448 242L448 242Q448 257 456 269.50Q464 282 476 282L476 282Q493 282 499.50 270Q506 258 506 247L506 247Q506 224 485 206L485 206Q523 152 560 152L560 152Q571 152 581 158L581 158Q591 163 595 163L595 163Q605 163 605 144L605 144Q605 121 581 121L581 121Q563 121 540.50 132.50Q518 144 499.50 160.50Q481 177 474 190L474 190Q454 168 419 157Q384 146 354 146L354 146L353 110Q362 106 362 96L362 96Q362 91 356.50 82.50Q351 74 343 74L343 74Q333 74 331 86Q329 98 330 111L330 111L331 146Q265 161 236 190L236 190Q227 176 208 159.50Q189 143 167.50 132Q146 121 128 121L128 121Q118 121 110.50 127.50Q103 134 103 144L103 144Q103 163 114 163L114 163Q116 163 120.50 162Q125 161 129 158L129 158Q140 152 149 152L149 152Q187 152 224 206L224 206Q204 223 204 247L204 247Q204 282 232 282L232 282Q246 282 253 269.50Q260 257 260 242L260 242Q260 226 252 215L252 215Q264 195 289 185Q314 175 334 173L334 173L338 215Q293 218 293 258L293 258Q293 276 310.50 295Q328 314 355 314L355 314Q380 314 398 295.50Q416 277 416 258L416 258Q416 217 361 215ZM340 239L340 239L346 301Q314 289 314 260L314 260Q314 241 340 239ZM370 300L370 300L362 239Q395 241 395 260L395 260Q395 287 370 300Z"/></svg>