<svg id="U1D075" viewBox="0 0 1243 1000"><path transform="translate(0, 900) scale(1,-1)" d="M163 50L163 50L149 47L128 44Q124 44 113.50 47.50Q103 51 103 59L103 59Q103 75 132 89L132 89Q159 102 208 102L208 102Q213 102 237 99Q261 96 302 89L302 89L302 110Q302 115 302 120.50Q302 126 301 131L301 131L311 133Q338 130 344 118L344 118L346 101L346 79L370 74Q370 102 379.50 108.50Q389 115 407 115L407 115L416 114L413 66Q483 52 529.50 44.50Q576 37 599 37L599 37Q673 37 683 80L683 80Q650 80 615.50 87.50Q581 95 552 107.50Q523 120 505 135.50Q487 151 487 167L487 167Q487 193 510.50 207.50Q534 222 570 222L570 222Q602 222 633 206.50Q664 191 686 163.50Q708 136 714 101L714 101L811 103L811 123Q811 128 810.50 134Q810 140 809 145L809 145L819 146Q854 146 854 121L854 121L854 106L881 107L884 132Q892 146 921 146L921 146L930 145Q924 132 924 113L924 113Q940 114 956 114.50Q972 115 988 115L988 115Q1139 115 1139 55L1139 55Q1139 35 1120.50 23.50Q1102 12 1080 12L1080 12Q1037 12 1037 24L1037 24Q1037 28 1044 31L1044 31L1062 37Q1071 40 1078.50 45Q1086 50 1086 59L1086 59Q1086 71 1065 83L1065 83Q1055 89 1032.50 93Q1010 97 984 95L984 95L924 92Q924 74 930 62L930 62Q921 50 908 50L908 50Q889 50 884 62L884 62L881 86L854 85L852 62Q848 50 830 50L830 50Q816 50 809 62L809 62L811 84Q795 83 770.50 81.50Q746 80 714 80L714 80Q699 19 602 19L602 19Q549 19 415 43L415 43L415 38L416 31Q412 18 393 18L393 18Q370 18 370 52L370 52L346 55L344 49Q340 34 325 34L325 34Q310 34 301 49L301 49L302 64Q281 68 261.50 70Q242 72 224 72L224 72Q195 72 178 67L178 67Q163 63 163 50ZM527 170L527 170Q527 141 571 123L571 123Q615 104 684 101L684 101Q679 123 661 145Q643 167 619.50 181.50Q596 196 571 196L571 196Q527 196 527 170Z"/></svg>