<svg id="U1D04C" viewBox="0 0 919 1000"><path transform="translate(0, 900) scale(1,-1)" d="M758 360L758 360Q758 357 757 355L757 355Q757 354 740 329L740 329Q763 307 815 290L815 290L815 287Q812 280 792 280L792 280Q767 280 725 310L725 310L698 278L667 302L691 330Q667 353 664 362L664 362Q620 322 550 322L550 322Q478 322 413 373L413 373Q403 365 375.50 355.50Q348 346 314.50 337Q281 328 250 323L250 323L209 270Q199 255 191 255L191 255Q188 255 186 256L186 256L170 261Q165 263 165 268L165 268Q165 273 172 283L172 283L204 325Q178 331 173 336L173 336Q145 299 138 292L138 292Q132 286 128 286L128 286Q126 286 122 288L122 288L107 293Q104 295 104 299L104 299Q104 308 110 315L110 315L144 361Q137 373 137 388L137 388Q137 406 146 424L146 424L187 422Q182 409 182 395L182 395Q182 372 195 359Q208 346 228 346L228 346Q307 346 412 416L412 416L491 416L491 412Q468 401 468 383L468 383Q468 374 488 359L488 359Q509 344 550 344L550 344Q571 344 589.50 352Q608 360 636 388L636 388L684 388Q689 378 696 370Q703 362 712 354L712 354L725 370Q731 377 740 377L740 377Q758 377 758 360Z"/></svg>