<svg id="U1D6F8" viewBox="0 0 801 1000"><path transform="translate(0, 900) scale(1,-1)" d="M720 11L568-14Q546 16 514.50 79Q483 142 438 237L438 237L404 309Q382 289 346.50 252Q311 215 264 162L264 162L124 6L6-8L6 8Q72 62 150 131.50Q228 201 319 286L319 286L384 347Q375 364 363 390Q351 416 337 450L337 450Q309 518 280.50 572.50Q252 627 233 646L233 646Q223 656 206 661.50Q189 667 163 667L163 667L164 698L339 709Q353 666 384 594Q415 522 463 420L463 420Q495 449 561.50 516Q628 583 731 689L731 689L849 705L847 689Q801 655 731 596Q661 537 567 455L567 455L482 381L556 234Q598 151 639 96Q680 41 723 30L723 30L720 11Z"/></svg>