<svg id="U1D727" viewBox="0 0 1105 1000"><path transform="translate(0, 900) scale(1,-1)" d="M868-14L868-14Q837-14 826.50-3Q816 8 816 30L816 30Q816 37 817.50 45Q819 53 820 60L820 60L854 253Q879 399 896 540L896 540L886 540Q858 504 810.50 443Q763 382 700 295L700 295L485 0L402 0Q370 173 342 307Q314 441 291 534L291 534L278 534Q221 357 182 230Q143 103 122 26L122 26L31-3L16 5Q76 139 119 245Q162 351 189 427L189 427Q216 504 229.50 542.50Q243 581 245 588L245 588Q248 597 248 609L248 609Q248 662 161 665L161 665L167 695L400 695Q404 646 418 576.50Q432 507 451 430.50Q470 354 490 282L490 282L523 164Q626 283 694.50 367Q763 451 798 500L798 500Q833 549 862 596.50Q891 644 915 690L915 690L1078 695L1083 685L1047 649Q1025 547 1006 446.50Q987 346 975.50 263Q964 180 964 127L964 127Q964 80 975 67Q986 54 1021 54L1021 54L1069 58L1068 30Q986 8 935.50-3Q885-14 868-14Z"/></svg>