<svg id="U1D497" viewBox="0 0 423 1000"><path transform="translate(0, 900) scale(1,-1)" d="M93-13L71-14L71 38Q71 156 67.50 231.50Q64 307 57 341L57 341Q43 411 8 408L8 408L-2 407L-3 433L144 461Q159 461 171 374L171 374Q183 287 183 175L183 175L183 132Q215 167 238 197Q261 227 275 251L275 251Q304 300 304 317L304 317Q304 335 282 358L282 358Q260 381 260 403L260 403Q260 429 276.50 445Q293 461 319 461L319 461Q345 461 361.50 443Q378 425 378 395L378 395Q378 338 320.50 249Q263 160 145 40L145 40L93-13Z"/></svg>