<svg id="U1DA1F" viewBox="0 0 1000 1000"><path transform="translate(500, 900) scale(1,-1)" d="M423 517L423 517L458 517Q458 485 437 458L437 458L476 418L461 403L422 443Q417 439 411.50 435.50Q406 432 400 429L400 429L432 375L413 364L380 421L358 417L358 347L337 347L337 417Q331 418 325.50 419Q320 420 315 421L315 421L282 364L263 375L294 429Q288 432 282.50 435.50Q277 439 272 443L272 443L233 403L218 418L257 458Q236 485 236 517L236 517L271 517Q271 491 293.50 471.50Q316 452 347 452L347 452Q379 452 401 471.50Q423 491 423 517ZM743 458L782 418L767 403L728 443Q723 439 717.50 435.50Q712 432 706 429L706 429L738 375L719 364L686 421L664 417L664 347L643 347L643 417Q637 418 631.50 419Q626 420 621 421L621 421L588 364L569 375L600 429Q594 432 588.50 435.50Q583 439 578 443L578 443L539 403L524 418L563 458Q542 485 542 517L542 517L577 517Q577 491 599.50 471.50Q622 452 653 452L653 452Q685 452 707 471.50Q729 491 729 517L729 517L764 517Q764 485 743 458L743 458Z"/></svg>