<svg id="U1D81F" viewBox="0 0 1000 1000"><path transform="translate(0, 900) scale(1,-1)" d="M675 306L793 424L822 394L674 246Q671 201 646.50 165Q622 129 584 107.50Q546 86 500 86L500 86Q452 86 412 109.50Q372 133 348.50 173Q325 213 325 261L325 261Q325 310 348.50 349.50Q372 389 412 412.50Q452 436 500 436L500 436Q535 436 565.50 423.50Q596 411 621 388L621 388L369 640L398 669L633 434L633 786L675 786L675 306ZM500 128L500 128Q537 128 567 146Q597 164 615 194Q633 224 633 261L633 261Q633 298 615 328Q597 358 567 376Q537 394 500 394L500 394Q463 394 433 376Q403 358 385 328Q367 298 367 261L367 261Q367 224 385 194Q403 164 433 146Q463 128 500 128Z"/></svg>