<svg id="U1D622" viewBox="0 0 568 1000"><path transform="translate(0, 900) scale(1,-1)" d="M193-10L193-10Q129-10 88.50 36.50Q48 83 48 173L48 173Q48 248 67.50 315.50Q87 383 122 434.50Q157 486 205 516Q253 546 311 546L311 546Q364 546 397 518Q430 490 446 453L446 453L451 453L483 536L550 536L436 0L366 0L379 99L375 99Q341 55 295 22.50Q249-10 193-10ZM222 63L222 63Q259 63 294.50 90Q330 117 358.50 163Q387 209 403 266L403 266Q411 295 413.50 319.50Q416 344 416 365L416 365Q416 412 390 442Q364 472 320 472L320 472Q281 472 248 447.50Q215 423 190 380.50Q165 338 151.50 284Q138 230 138 171L138 171Q138 117 160 90Q182 63 222 63Z"/></svg>