<svg id="U1D79" viewBox="0 0 586 1000"><path transform="translate(0, 900) scale(1,-1)" d="M75 536L504 536L504 472L270 319L398 242Q477 195 507.50 139.50Q538 84 538 5L538 5Q538-112 470.50-176Q403-240 288-240L288-240Q217-240 161.50-211Q106-182 74-127.50Q42-73 42 5L42 5Q42 112 101 172Q160 232 264 238L264 238L166 305L166 336L363 462L75 462L75 536ZM289 174L289 174Q207 174 170 129.50Q133 85 133 5L133 5Q133-74 170.50-120.50Q208-167 290-167L290-167Q371-167 409-120.50Q447-74 447 5L447 5Q447 85 409 129.50Q371 174 289 174Z"/></svg>