<svg id="U1D7BB" viewBox="0 0 523 1000"><path transform="translate(0, 900) scale(1,-1)" d="M362-214L224-214Q300-92 300-48L300-48Q300-16 215 20L215 20Q159 44 115.50 74Q72 104 47 149.50Q22 195 22 264L22 264Q22 350 54.50 414Q87 478 145 514Q203 550 279 550L279 550Q343 550 392 525Q441 500 469 454.50Q497 409 497 345L497 345L497 331L364 331Q360 434 283 434L283 434Q232 434 198.50 391Q165 348 165 277L165 277Q165 240 176.50 214.50Q188 189 214.50 169Q241 149 286 128L286 128L303 120Q437 59 437-23L437-23Q437-83 362-214L362-214Z"/></svg>