<svg id="U1D68C" viewBox="0 0 602 1000"><path transform="translate(0, 900) scale(1,-1)" d="M295-12L295-12Q224-12 168 19.50Q112 51 80 105Q48 159 48 225L48 225Q48 294 80 347.50Q112 401 168 432Q224 463 294 463L294 463Q363 463 448 422L448 422L448 424Q448 455 486 455L486 455Q509 455 515 441Q521 427 521 395L521 395L521 304Q521 268 484 268L484 268Q460 268 445 296L445 296Q430 324 410 345.50Q390 367 362 377L362 377Q336 387 304 387L304 387Q253 387 214.50 366Q176 345 154.50 308.50Q133 272 133 226L133 226Q133 151 179 106Q225 61 300 61L300 61Q381 61 453 127L453 127Q467 141 489 141L489 141Q504 141 513.50 131.50Q523 122 523 107L523 107Q523 89 503.50 68Q484 47 451.50 29Q419 11 378-0.50Q337-12 295-12Z"/></svg>