<svg id="U1D65C" viewBox="0 0 594 1000"><path transform="translate(0, 900) scale(1,-1)" d="M191-240L191-240Q130-240 90-230.50Q50-221 13-205L13-205L13-77Q51-97 93.50-108Q136-119 183-119L183-119Q234-119 266.50-95.50Q299-72 312-22L312-22L316-7Q323 18 330.50 42.50Q338 67 340 73L340 73L336 73Q310 39 276 14.50Q242-10 191-10L191-10Q152-10 118.50 11Q85 32 64.50 75.50Q44 119 44 188L44 188Q44 255 62 320Q80 385 113 438.50Q146 492 192 524Q238 556 294 556L294 556Q347 556 377.50 534.50Q408 513 432 476L432 476L436 476L464 546L577 546L458-13Q440-99 402.50-148.50Q365-198 312-219Q259-240 191-240ZM262 109L262 109Q293 109 316.50 132.50Q340 156 356.50 193Q373 230 381.50 272Q390 314 390 351L390 351Q390 390 372 413.50Q354 437 323 437L323 437Q295 437 271.50 415.50Q248 394 230.50 359Q213 324 203 281Q193 238 193 195L193 195Q193 152 211.50 130.50Q230 109 262 109Z"/></svg>