<svg id="U1D1DD" viewBox="0 0 651 1000"><path transform="translate(0, 900) scale(1,-1)" d="M243 557L243 381Q216 385 197 386Q178 387 146 387L146 387Q116 387 94.50 385Q73 383 50 379L50 379L50 557Q76 562 100 565Q124 568 146 568L146 568Q170 568 193 565Q216 562 243 557L243 557ZM379 262L279 362L379 463L480 362L379 262ZM243 337L243 161Q233 163 205 165Q177 167 146 167L146 167Q115 167 95.50 165.50Q76 164 50 159L50 159L50 337Q61 339 88 343.50Q115 348 146 348L146 348Q174 348 194 345.50Q214 343 243 337L243 337ZM500 140L400 240L500 341L601 240L500 140Z"/></svg>