<svg id="U1D69A" viewBox="0 0 602 1000"><path transform="translate(0, 900) scale(1,-1)" d="M532-195L316-195Q294-195 284.50-187Q275-179 275-160L275-160Q275-125 313-125L313-125L430-125L430 70Q371-1 261-1L261-1Q197-1 147 26.50Q97 54 68 104Q39 154 39 219L39 219Q39 286 69 338.50Q99 391 151.50 421.50Q204 452 270 452L270 452Q364 452 430 384L430 384L430 431Q430 451 458 451L458 451L532 451Q571 451 571 417L571 417Q571 397 558 389.50Q545 382 513 382L513 382L504 382L504-125L525-125Q571-125 571-160L571-160Q571-195 532-195L532-195ZM278 71L278 71Q324 71 358.50 91.50Q393 112 412.50 147Q432 182 432 224L432 224Q432 268 412.50 302.50Q393 337 358.50 357Q324 377 278 377L278 377Q233 377 198.50 357.50Q164 338 144 303.50Q124 269 124 224L124 224Q124 158 166.50 114.50Q209 71 278 71Z"/></svg>