<svg id="U1D576" viewBox="0 0 755 1000"><path transform="translate(0, 900) scale(1,-1)" d="M49-23L49-23L26-3Q37 27 37 50L37 50Q37 78 4 115L4 115L23 141Q46 128 84 128L84 128Q99 128 118 135Q137 142 147 154L147 154L172 135Q156 99 156 78L156 78Q156 50 175.50 35.50Q195 21 224 21L224 21Q286 21 286 108L286 108Q286 146 265.50 194.50Q245 243 206 301L206 301L154 379Q100 459 100 499L100 499Q100 522 117.50 554Q135 586 167 619.50Q199 653 244 682Q289 711 343.50 729Q398 747 460 747L460 747Q519 747 574.50 730Q630 713 673.50 682.50Q717 652 742.50 610Q768 568 768 518L768 518Q768 490 754.50 470.50Q741 451 718 451L718 451Q705 451 691.50 456.50Q678 462 678 473L678 473Q678 476 679 484Q680 492 682 502L682 502Q684 509 684.50 521Q685 533 685 539L685 539Q685 585 655.50 622Q626 659 576 681Q526 703 464 703L464 703Q361 703 298.50 660.50Q236 618 236 544L236 544Q236 523 252.50 492Q269 461 286 434L286 434L351 331L320 455Q316 472 314.50 483Q313 494 313 499L313 499Q313 522 337.50 543.50Q362 565 399 581L399 581Q417 589 430.50 594Q444 599 453 602L453 602Q470 608 490 632L490 632L520 632Q528 612 543.50 586.50Q559 561 577 536Q595 511 611 494.50Q627 478 636 476L636 476L637 446L528 380Q552 377 583 308L583 308Q599 273 614.50 235.50Q630 198 645 159L645 159Q675 80 703 80L703 80Q718 80 743 98L743 98L765 65L643-21Q638-22 632.50-22.50Q627-23 622-23L622-23Q589-22 564 12L564 12Q538 47 502 146L502 146Q484 195 469.50 228Q455 261 444 278L444 278Q423 313 408 313L408 313Q395 313 371 295L371 295Q408 228 408 152L408 152Q408 65 363.50 21Q319-23 241-23L241-23Q219-23 169-14L169-14Q144-9 126.50-7.50Q109-6 98-6L98-6Q75-6 49-23ZM360 468L389 351Q510 412 510 433L510 433Q510 442 499 460Q488 478 472.50 497Q457 516 442.50 529.50Q428 543 420 543L420 543Q407 543 391.50 536Q376 529 365.50 518Q355 507 355 496L355 496Q355 493 357 484Q359 475 360 468L360 468Z"/></svg>