<svg id="U1D1A1" viewBox="0 0 738 1000"><path transform="translate(0, 900) scale(1,-1)" d="M494 676L733 436L618 296L364 545Q340 569 316 576.50Q292 584 272 584L272 584Q240 584 210 567Q180 550 161 518Q142 486 142 442L142 442Q142 398 164.50 362Q187 326 222.50 305.50Q258 285 296 285L296 285Q323 285 343.50 292Q364 299 379 306L379 306L409 320Q423 326 437 326L437 326Q454 326 461 316.50Q468 307 468 299L468 299Q468 285 440 254L440 254Q412 223 367.50 200.50Q323 178 267 178L267 178Q189 178 128.50 209.50Q68 241 34 299Q0 357 0 434L0 434Q0 526 37 598Q74 670 140.50 712Q207 754 294 754L294 754Q365 754 411.50 733Q458 712 494 676L494 676Z"/></svg>