<svg id="U1D530" viewBox="0 0 384 1000"><path transform="translate(0, 900) scale(1,-1)" d="M174-23L156-23Q150 1 29 71L29 71L29 90Q60 104 84 134Q108 164 108 191L108 191Q108 218 71 268L71 268Q33 320 33 339L33 339Q33 357 59 386L59 386Q159 493 181 493L181 493Q184 492 187 490Q190 488 193 486L193 486Q217 468 239 457.50Q261 447 279 447L279 447Q342 447 342 506L342 506Q342 540 324 561.50Q306 583 280 583L280 583Q240 583 231 531L231 531Q219 540 208.50 546.50Q198 553 189 556L189 556Q212 609 267 609L267 609Q306 609 334.50 579Q363 549 363 506L363 506Q363 463 330 421L330 421L257 327Q308 301 334 263.50Q360 226 360 184L360 184Q360 76 218 9L218 9Q192-3 174-23L174-23ZM168 246L168 246L270 376Q218 377 161 421L161 421Q151 428 142 428L142 428Q134 428 122 418Q110 408 101 395.50Q92 383 92 375L92 375Q92 362 121 324L121 324Q151 285 168 246ZM220 42L220 42Q239 42 259 55.50Q279 69 293.50 91.50Q308 114 308 139L308 139Q308 168 290 195.50Q272 223 249.50 241Q227 259 212 259L212 259Q205 259 194 245L194 245L97 121Q147 85 175 64L175 64Q190 54 201 48Q212 42 220 42Z"/></svg>