<svg id="U1D6DC" viewBox="0 0 531 1000"><path transform="translate(0, 900) scale(1,-1)" d="M268-11L268-11Q168-11 113 49Q58 109 58 215L58 215Q58 292 91.50 355Q125 418 184.50 455Q244 492 322 492L322 492Q375 492 421 473Q467 454 495 424L495 424L442 360L428 363Q411 405 379 429.50Q347 454 311 454L311 454Q244 454 207 407Q170 360 168 273L168 273Q201 272 234.50 272Q268 272 301 272L301 272L417 272L401 228L296 229Q256 230 224.50 228.50Q193 227 170 224L170 224Q182 141 226 94.50Q270 48 336 48L336 48Q369 48 393 51.50Q417 55 441.50 65.50Q466 76 500 98L500 98L513 76Q467 37 402.50 13Q338-11 268-11Z"/></svg>