<svg id="U1D519" viewBox="0 0 810 1000"><path transform="translate(0, 900) scale(1,-1)" d="M463-23L463-23Q437-23 403 6L403 6Q370 35 338.50 60Q307 85 274 107L274 107Q242 129 211 129L211 129Q184 129 131 110L131 110L122 129Q159 142 187 152Q215 162 235 170L235 170Q255 178 267.50 181Q280 184 287 184L287 184Q292 184 298 183Q304 182 309 180L309 180Q350 212 373 273Q396 334 396 415L396 415Q396 522 349 584.50Q302 647 222 647L222 647Q175 647 138.50 625Q102 603 81.50 565Q61 527 61 479L61 479Q61 413 104 367Q147 321 228 305L228 305L222 282Q37 324 37 498L37 498Q37 563 64 614.50Q91 666 138 695.50Q185 725 244 725L244 725Q357 725 420 627L420 627Q474 725 585 725L585 725Q666 725 709 682Q752 639 756 529L756 529Q756 515 768 515L768 515L771 515L771 495Q628 469 628 421L628 421Q628 408 638.50 390.50Q649 373 665 353L665 353Q678 338 694.50 321.50Q711 305 728 288L728 288Q748 269 757 247.50Q766 226 766 209L766 209Q766 152 725 97.50Q684 43 614 10L614 10Q544-23 463-23ZM552 22L552 22Q589 22 623.50 40Q658 58 681 87Q704 116 704 148L704 148Q704 183 680.50 213.50Q657 244 624 275L624 275Q592 305 570 336.50Q548 368 548 405L548 405Q548 436 573 454Q598 472 629 482L629 482Q645 487 660 491.50Q675 496 685 498L685 498Q675 516 673 545L673 545L672 572Q670 633 639 664.50Q608 696 562 696L562 696Q479 696 433 602L433 602Q468 523 468 446L468 446Q468 284 334 170L334 170Q358 154 387.50 132Q417 110 451 81L451 81Q521 22 552 22Z"/></svg>