<svg id="U1D84F" viewBox="0 0 1000 1000"><path transform="translate(0, 900) scale(1,-1)" d="M362 438L362 438Q381 457 398.50 459Q416 461 431.50 453.50Q447 446 458 435L458 435L428 405Q407 423 392 408L392 408Q382 399 385.50 388.50Q389 378 408 359L408 359L442 325L382 325L378 329Q367 340 354.50 357Q342 374 340.50 394.50Q339 415 362 438ZM503 405L503 405L473 435Q485 446 500 453.50Q515 461 532.50 459Q550 457 569 438L569 438Q592 415 590.50 394.50Q589 374 576.50 357Q564 340 553 329L553 329L549 325L489 325L523 359Q542 378 545.50 388.50Q549 399 539 408L539 408Q524 423 503 405ZM232 418L232 418Q251 437 268.50 439Q286 441 301.50 433.50Q317 426 328 415L328 415L298 385Q277 403 262 388L262 388Q252 379 255.50 368.50Q259 358 278 339L278 339L292 325L270 325L270 287L248 309Q237 320 224.50 337Q212 354 210.50 374.50Q209 395 232 418ZM633 385L633 385L603 415Q615 426 630 433.50Q645 441 662.50 439Q680 437 699 418L699 418Q726 391 720 366.50Q714 342 698 325L698 325L639 325L653 339Q672 358 675.50 368.50Q679 379 669 388L669 388Q654 403 633 385ZM823 314L852 284L744 176L744 235L823 314ZM705 300L705 86L295 86L295 300L705 300ZM663 258L337 258L337 193L663 193L663 258Z"/></svg>