<svg id="U1D6A9" viewBox="0 0 709 1000"><path transform="translate(0, 900) scale(1,-1)" d="M365 0L112 0L112 17Q128 26 134.50 40Q141 54 141 91L141 91L141 584Q141 628 116.50 644Q92 660 48 664L48 664L48 695L355 695Q498 695 564.50 657.50Q631 620 631 542L631 542Q631 500 605 465.50Q579 431 534.50 408.50Q490 386 434 380L434 380L434 365Q547 353 600.50 313.50Q654 274 654 203L654 203Q654 0 365 0L365 0ZM272 616L272 380L301 380Q394 380 444 420.50Q494 461 494 531L494 531Q494 594 456 624.50Q418 655 336 655L336 655Q299 655 285.50 648Q272 641 272 616L272 616ZM321 40L321 40Q416 40 463 83Q510 126 510 203L510 203Q510 270 456 307Q402 344 302 344L302 344L272 344L272 87Q272 58 285 49Q298 40 321 40Z"/></svg>