<svg id="U1D46F" viewBox="0 0 756 1000"><path transform="translate(0, 900) scale(1,-1)" d="M263 0L-50 0L-50 23Q-19 23 0.50 30.50Q20 38 33 60.50Q46 83 58 127L58 127L171 549Q175 563 177 575.50Q179 588 179 601L179 601Q179 624 162 635Q145 646 109 647L109 647L109 671L422 671L422 647Q390 647 370.50 639Q351 631 339 609Q327 587 315 544L315 544L269 375L508 375L555 549Q563 579 563 601L563 601Q563 624 546 635Q529 646 492 647L492 647L492 671L806 671L806 647Q775 647 756 640.50Q737 634 724.50 613Q712 592 700 549L700 549L586 122Q577 86 577 71L577 71Q577 47 593.50 36Q610 25 647 23L647 23L647 0L334 0L334 23Q365 23 384.50 30.50Q404 38 417 60.50Q430 83 442 127L442 127L496 329L257 329L202 122Q193 86 193 70L193 70Q193 26 263 23L263 23L263 0Z"/></svg>