<svg id="U1D0A9" viewBox="0 0 439 1000"><path transform="translate(0, 900) scale(1,-1)" d="M245 188L245 222L336 216L336 206L271 209L276 158Q300 149 310 149L310 149L310 145Q301 144 295 143Q289 142 282 142L282 142Q237 142 196 200L196 200Q188 187 177.50 173.50Q167 160 156 146L156 146L118 152Q141 171 159 195.50Q177 220 180 232L180 232Q165 263 147 276Q129 289 103 290L103 290L103 294Q109 295 115.50 295.50Q122 296 128 296L128 296Q157 295 182 277.50Q207 260 224 222L224 222Q236 197 245 188L245 188Z"/></svg>