<svg id="U1D8CE" viewBox="0 0 1000 1000"><path transform="translate(0, 900) scale(1,-1)" d="M479 786L521 786L521 435Q565 430 599.50 405.50Q634 381 654.50 343.50Q675 306 675 261L675 261Q675 213 651.50 173Q628 133 588.50 109.50Q549 86 500 86L500 86Q452 86 412 109.50Q372 133 348.50 173Q325 213 325 261L325 261Q325 292 335 319Q345 346 362 368L362 368L227 503L256 533L391 398Q396 403 402 406.50Q408 410 414 414L414 414L310 665L348 682L453 430Q459 432 465.50 433Q472 434 479 435L479 435L479 786ZM500 128L500 128Q537 128 567 146Q597 164 615 194Q633 224 633 261L633 261Q633 298 615 328Q597 358 567 376Q537 394 500 394L500 394Q463 394 433 376Q403 358 385 328Q367 298 367 261L367 261Q367 224 385 194Q403 164 433 146Q463 128 500 128Z"/></svg>