<svg id="U1D498" viewBox="0 0 625 1000"><path transform="translate(0, 900) scale(1,-1)" d="M101-13L71-15L71 37Q71 153 67.50 229Q64 305 57 339L57 339Q43 411 8 408L8 408L-2 407L-3 433L144 461Q173 461 185 196L185 196L341 461L366 461L397 129Q428 164 451 194Q474 224 487 249L487 249Q501 275 508 292Q515 309 515 319L515 319Q515 337 492 358L492 358Q468 379 468 404L468 404Q468 429 484 446Q500 463 526 463L526 463Q554 463 570 444Q586 425 586 393L586 393Q586 285 365 37L365 37L321-13L293-15L267 266L101-13Z"/></svg>