<svg id="U1D73C" viewBox="0 0 633 1000"><path transform="translate(0, 900) scale(1,-1)" d="M483-153L368-193L357-184Q381-70 399 20.50Q417 111 430 178L430 178Q443 245 449.50 290Q456 335 456 357L456 357Q456 395 442 413Q428 431 396 431L396 431Q346 431 274 395L274 395L211 39L101-1L90 8L147 258Q167 346 167 376L167 376Q167 425 140 425L140 425Q117 425 70 398L70 398L57 419Q153 497 225 497L225 497Q277 497 277 435L277 435L277 425Q398 496 484 496L484 496Q534 496 554 471Q574 446 574 398L574 398Q574 376 567.50 329Q561 282 544 210L544 210Q528 139 512.50 46Q497-47 483-153L483-153Z"/></svg>