<svg id="U1D6EE" viewBox="0 0 961 1000"><path transform="translate(0, 900) scale(1,-1)" d="M189 26L108-10L95-3Q148 223 182 379Q216 535 231 623L231 623Q227 645 202 655Q177 665 148 665L148 665L137 665L143 695L342 695Q364 660 399.50 609Q435 558 479 499Q523 440 570.50 378.50Q618 317 663.50 259.50Q709 202 748 156L748 156L763 156Q774 207 788 304Q802 401 819 543L819 543L836 681L920 708L937 696Q920 635 905.50 580Q891 525 877.50 467.50Q864 410 850 342.50Q836 275 820 191.50Q804 108 784 0L784 0L740 0Q711 41 668 97.50Q625 154 575 218Q525 282 473 347Q421 412 373 470.50Q325 529 287 573L287 573L272 571L234 347Q212 212 189 26L189 26Z"/></svg>