<svg id="U1E1D" viewBox="0 0 564 1000"><path transform="translate(0, 900) scale(1,-1)" d="M292 546L292 546Q361 546 410.50 516Q460 486 486.50 431.50Q513 377 513 304L513 304L513 251L146 251Q148 160 192.50 112.50Q237 65 317 65L317 65Q368 65 407.50 74.50Q447 84 489 102L489 102L489 25Q448 7 408-1.50Q368-10 313-10L313-10Q237-10 178.50 21Q120 52 87.50 113.50Q55 175 55 264L55 264Q55 352 84.50 415Q114 478 167.50 512Q221 546 292 546ZM291 474L291 474Q228 474 191.50 433.50Q155 393 148 321L148 321L421 321Q420 389 389 431.50Q358 474 291 474ZM390 740L445 740Q440 680 399.50 643Q359 606 287 606L287 606Q213 606 175.50 642.50Q138 679 134 740L134 740L188 740Q193 699 218 688Q243 677 289 677L289 677Q328 677 356.50 689Q385 701 390 740L390 740ZM402-139L402-139Q402-187 365-213.50Q328-240 254-240L254-240Q222-240 204-235L204-235L204-180Q213-182 228-183.50Q243-185 257-185L257-185Q293-185 312-175.50Q331-166 331-141L331-141Q331-115 304.50-103Q278-91 240-86L240-86L283 0L341 0L315-53Q351-61 376.50-81Q402-101 402-139Z"/></svg>