<svg id="U1E11B" viewBox="0 0 658 1000"><path transform="translate(0, 900) scale(1,-1)" d="M227-10L227-10Q147-10 108.50 35.50Q70 81 70 173L70 173Q70 268 111 373Q152 478 219 578L219 578L219 582L88 582L88 619L110 680L399 680Q465 680 503.50 661Q542 642 559 598.50Q576 555 576 482L576 482L576 0L516 0L516 486Q516 539 491 560.50Q466 582 405 582L405 582L293 582Q211 463 170.50 361Q130 259 130 179L130 179Q130 127 151.50 109Q173 91 229 91L229 91Q284 91 305 104.50Q326 118 326 145L326 145Q326 174 304.50 183Q283 192 239 192L239 192Q239 231 252.50 253Q266 275 295 275L295 275Q329 275 355 242Q381 209 381 144L381 144Q381 71 344 30.50Q307-10 227-10Z"/></svg>