<svg id="U1EE91" viewBox="0 0 1117 1000"><path transform="translate(0, 900) scale(1,-1)" d="M257-125L257-125Q185-125 141-94Q97-63 83-8L83-8Q67-11 51-12L51-12L52 19Q65 20 77 22L77 22Q76 36 76 50L76 50Q76 118 106.50 155Q137 192 177 192L177 192Q202 192 221.50 176Q241 160 241 125L241 125Q241 81 209.50 51Q178 21 132 5L132 5Q146-15 176-28.50Q206-42 259-42L259-42Q313-42 366-26.50Q419-11 460.50 17.50Q502 46 520 83L520 83Q494 141 474.50 194Q455 247 455 273L455 273Q455 306 474.50 326.50Q494 347 520 363L520 363Q524 332 529 303.50Q534 275 540 248L540 248Q545 246 550.50 243.50Q556 241 563 239L563 239Q655 361 737.50 427.50Q820 494 890 494L890 494Q914 494 944.50 479.50Q975 465 1002.50 442Q1030 419 1048 394Q1066 369 1066 348L1066 348Q1066 298 1043.50 261.50Q1021 225 984 201Q947 177 904 163Q861 149 819 143Q777 137 745 137L745 137Q721 137 687 139.50Q653 142 618.50 147.50Q584 153 555 161L555 161Q556 151 556.50 140.50Q557 130 557 120L557 120Q557 69 532.50 25Q508-19 465.50-53Q423-87 369-106Q315-125 257-125ZM753 211L753 211Q824 211 889 233Q954 255 1021 296L1021 296Q988 354 944.50 381Q901 408 864 408L864 408Q817 408 750.50 361.50Q684 315 609 225L609 225Q649 217 689.50 214Q730 211 753 211ZM112 71L112 71Q112 62 113 52Q114 42 118 32L118 32Q153 43 173.50 62Q194 81 194 104L194 104Q194 121 184.50 129.50Q175 138 160 138L160 138Q139 138 125.50 121Q112 104 112 71Z"/></svg>