<svg id="U1E91E" viewBox="0 0 636 1000"><path transform="translate(0, 900) scale(1,-1)" d="M473 79L590 79L590 0L468 0Q392 0 348 17.50Q304 35 285.50 72Q267 109 267 168L267 168L180 168L180 0L90 0L90 556L180 556L180 247L281 247Q292 278 316.50 307.50Q341 337 393 376L393 376Q443 414 473 448Q503 482 503 537L503 537Q503 586 467.50 610.50Q432 635 357 635L357 635L90 635L90 714L357 714Q427 714 480.50 700Q534 686 565 648.50Q596 611 596 538L596 538Q596 488 582 453Q568 418 539.50 389.50Q511 361 468 328L468 328Q426 296 402.50 270.50Q379 245 369.50 219.50Q360 194 360 162L360 162Q360 121 383.50 100Q407 79 473 79L473 79Z"/></svg>