<svg id="U1E6D" viewBox="0 0 361 1000"><path transform="translate(0, 900) scale(1,-1)" d="M264 62L264 62Q284 62 305 65.50Q326 69 339 73L339 73L339 6Q325-1 299-5.50Q273-10 249-10L249-10Q207-10 171.50 4.50Q136 19 114 55Q92 91 92 156L92 156L92 468L16 468L16 510L93 545L128 659L180 659L180 536L335 536L335 468L180 468L180 158Q180 109 203.50 85.50Q227 62 264 62ZM213-176L213-176Q192-176 176.50-162Q161-148 161-120L161-120Q161-91 176.50-77.50Q192-64 213-64L213-64Q234-64 249.50-77.50Q265-91 265-120L265-120Q265-148 249.50-162Q234-176 213-176Z"/></svg>