<svg id="U1EF5" viewBox="0 0 510 1000"><path transform="translate(0, 900) scale(1,-1)" d="M217-2L1 536L95 536L211 231Q226 191 238 154.50Q250 118 256 85L256 85L260 85Q266 110 279 150.50Q292 191 306 232L306 232L415 536L510 536L279-74Q251-150 206.50-195Q162-240 84-240L84-240Q60-240 42-237.50Q24-235 11-232L11-232L11-162Q22-164 37.50-166Q53-168 70-168L70-168Q116-168 144.50-142Q173-116 189-73L189-73L217-2ZM386-188L386-188Q365-188 349.50-174Q334-160 334-132L334-132Q334-103 349.50-89.50Q365-76 386-76L386-76Q407-76 422.50-89.50Q438-103 438-132L438-132Q438-160 422.50-174Q407-188 386-188Z"/></svg>