<svg id="U1E2DD" viewBox="0 0 541 1000"><path transform="translate(0, 900) scale(1,-1)" d="M15-7L15-7L27 58Q38 55 50 55L50 55Q73 55 92.50 64Q112 73 128.50 98Q145 123 158 172L158 172L191 298Q127 326 88 378.50Q49 431 49 497L49 497Q49 563 86 613Q123 663 187 691.50Q251 720 330 720L330 720Q378 720 417 709.50Q456 699 491 680L491 680L457 622Q435 633 402.50 644Q370 655 325 655L325 655Q268 655 221.50 635Q175 615 148 579.50Q121 544 121 497L121 497Q121 455 144 420.50Q167 386 209 364L209 364L209 365Q224 419 252.50 450Q281 481 314.50 493.50Q348 506 378 506L378 506Q431 506 466 475.50Q501 445 501 398L501 398Q501 365 480.50 336.50Q460 308 420.50 290Q381 272 323 272L323 272Q288 272 255 278L255 278L216 134Q196 61 150 25.50Q104-10 50-10L50-10Q32-10 15-7ZM273 344L273 344L273 343Q301 337 333 337L333 337Q386 337 407.50 352.50Q429 368 429 393L429 393Q429 416 413.50 428Q398 440 373 440L373 440Q356 440 337 432.50Q318 425 301 404.50Q284 384 273 344Z"/></svg>