<svg id="U1E87F" viewBox="0 0 1203 1000"><path transform="translate(0, 900) scale(1,-1)" d="M651 486L651 428L541 428L541 344L747 344Q754 393 783 431.50Q812 470 855.50 492.50Q899 515 949 515L949 515Q1005 515 1051 488.50Q1097 462 1125 416.50Q1153 371 1153 315L1153 315Q1153 260 1125 215Q1097 170 1051 143.50Q1005 117 949 117L949 117Q901 117 859 137.50Q817 158 788 194Q759 230 749 276L749 276L225 276Q140 276 90 308.50Q40 341 40 415L40 415Q40 469 78 503.50Q116 538 197 538L197 538L223 538L223 470L197 470Q178 470 159.50 466.50Q141 463 128.50 451.50Q116 440 116 415L116 415Q116 382 138 363Q160 344 223 344L223 344L471 344L471 428L361 428L361 486L471 486L471 583L541 583L541 486L651 486ZM1077 315L1077 315Q1077 353 1059.50 382Q1042 411 1012.50 428Q983 445 948 445L948 445Q914 445 885 428.50Q856 412 838.50 382.50Q821 353 821 315L821 315Q821 280 838.50 250.50Q856 221 885 204Q914 187 948 187L948 187Q983 187 1012.50 204Q1042 221 1059.50 250.50Q1077 280 1077 315Z"/></svg>