<svg id="U1E112" viewBox="0 0 661 1000"><path transform="translate(0, 900) scale(1,-1)" d="M222-10L222-10Q65-10 65 142L65 142Q65 207 90 241Q115 275 156 275L156 275Q214 275 214 192L214 192Q162 192 141 181.50Q120 171 120 144L120 144Q120 115 142 103Q164 91 219 91L219 91Q274 91 296 109.50Q318 128 318 181L318 181L318 497Q318 550 297 569.50Q276 589 220 589L220 589Q164 589 142 577Q120 565 120 536L120 536Q120 509 141 498.50Q162 488 214 488L214 488Q214 405 154 405L154 405Q114 405 89.50 439.50Q65 474 65 539L65 539Q65 615 105 652.50Q145 690 220 690L220 690Q301 690 339.50 646Q378 602 378 513L378 513L378 392L517 392L517 680L577 680L577 0L517 0L517 294L378 294L378 167Q378-10 222-10Z"/></svg>