<svg id="U1EAB" viewBox="0 0 561 1000"><path transform="translate(0, 900) scale(1,-1)" d="M392 883L437 883Q433 837 409.50 806Q386 775 345 775L345 775Q322 775 299 786.50Q276 798 255 809.50Q234 821 215 821L215 821Q196 821 185.50 809.50Q175 798 168 774L168 774L123 774Q128 821 151.50 851.50Q175 882 215 882L215 882Q240 882 263 870.50Q286 859 307.50 847.50Q329 836 346 836L346 836Q366 836 376 847.50Q386 859 392 883L392 883ZM234 744L324 744Q347 710 376.50 678Q406 646 431 617L431 617L431 606L383 606Q332 639 279 686L279 686Q254 663 227 643Q200 623 175 606L175 606L127 606L127 617Q152 646 181.50 678Q211 710 234 744L234 744ZM288 545L288 545Q386 545 433 502Q480 459 480 365L480 365L480 0L416 0L399 76L395 76Q360 32 321.50 11Q283-10 215-10L215-10Q142-10 94 28.50Q46 67 46 149L46 149Q46 229 109 272.50Q172 316 303 320L303 320L394 323L394 355Q394 422 365 448Q336 474 283 474L283 474Q241 474 203 461.50Q165 449 132 433L132 433L105 499Q140 518 188 531.50Q236 545 288 545ZM393 262L314 259Q214 255 175.50 227Q137 199 137 148L137 148Q137 103 164.50 82Q192 61 235 61L235 61Q303 61 348 98.50Q393 136 393 214L393 214L393 262Z"/></svg>