<svg id="U1EE1C" viewBox="0 0 826 1000"><path transform="translate(0, 900) scale(1,-1)" d="M356 135L356 135Q238 135 175 177.50Q112 220 112 305L112 305Q112 346 117 374Q122 402 126 415L126 415L161 415Q160 407 159 390Q158 373 158 366L158 366Q158 334 166 306Q174 278 197 256.50Q220 235 263.50 223Q307 211 377 211L377 211Q464 211 554 229Q644 247 717 282L717 282Q710 310 702 334Q694 358 686 378L686 378Q676 404 669 424.50Q662 445 662 458L662 458Q662 486 684 508Q706 530 728 543L728 543Q732 517 737 491.50Q742 466 748 440L748 440Q756 409 760.50 380.50Q765 352 765 326L765 326Q765 306 754 277.50Q743 249 730 224L730 224Q654 175 555 155Q456 135 356 135Z"/></svg>