<svg id="U1E54" viewBox="0 0 605 1000"><path transform="translate(0, 900) scale(1,-1)" d="M97 714L286 714Q426 714 490 659Q554 604 554 504L554 504Q554 445 527.50 393.50Q501 342 438.50 310Q376 278 269 278L269 278L187 278L187 0L97 0L97 714ZM278 637L278 637L187 637L187 355L259 355Q361 355 411 388Q461 421 461 500L461 500Q461 569 417 603Q373 637 278 637ZM465 944L465 934Q453 916 428 887.50Q403 859 374.50 830.50Q346 802 322 784L322 784L264 784L264 796Q279 815 296.50 841Q314 867 331 894.50Q348 922 359 944L359 944L465 944Z"/></svg>