<svg id="U1E867" viewBox="0 0 368 1000"><path transform="translate(0, 900) scale(1,-1)" d="M147 703L147 703Q147 678 132 664Q117 650 93 650L93 650Q40 650 40 703L40 703Q40 728 55 742.50Q70 757 93 757L93 757Q117 757 132 742.50Q147 728 147 703ZM328 703L328 703Q328 678 313 664Q298 650 274 650L274 650Q221 650 221 703L221 703Q221 728 236 742.50Q251 757 274 757L274 757Q297 757 312.50 742.50Q328 728 328 703ZM147 650L221 650L221 102L147 102L147 650ZM147 48L147 48Q147 23 132 9Q117-5 93-5L93-5Q40-5 40 48L40 48Q40 73 55 87.50Q70 102 93 102L93 102Q117 102 132 87.50Q147 73 147 48ZM328 48L328 48Q328 23 313 9Q298-5 274-5L274-5Q221-5 221 48L221 48Q221 73 236 87.50Q251 102 274 102L274 102Q297 102 312.50 87.50Q328 73 328 48Z"/></svg>