<svg id="U1EE0F" viewBox="0 0 617 1000"><path transform="translate(0, 900) scale(1,-1)" d="M382-151L382-151Q312-151 253.50-127Q195-103 159.50-55Q124-7 124 64L124 64Q124 126 146.50 175.50Q169 225 206 264L206 264Q155 279 119 318.50Q83 358 83 405L83 405Q83 436 95.50 469.50Q108 503 130 532.50Q152 562 181 580.50Q210 599 243 599L243 599Q262 599 279.50 595Q297 591 320.50 577Q344 563 380 533L380 533L363 501Q323 514 303.50 516.50Q284 519 268 519L268 519Q234 519 203 509.50Q172 500 140 482L140 482Q140 432 176 390Q212 348 296 334L296 334Q336 359 380 378Q424 397 470 412L470 412Q475 406 478 397.50Q481 389 481 380L481 380Q481 360 468.50 346.50Q456 333 438.50 324Q421 315 404 308L404 308Q369 294 327 274Q285 254 247 227Q209 200 184.50 164Q160 128 160 81L160 81Q160 30 184.50 0Q209-30 245.50-44.50Q282-59 320-63.50Q358-68 385-68L385-68Q443-68 499-62.50Q555-57 628-41L628-41L639-74Q587-103 522-127Q457-151 382-151Z"/></svg>