<svg id="U1E103" viewBox="0 0 654 1000"><path transform="translate(0, 900) scale(1,-1)" d="M346-10L346-10Q262-10 211.50 10.50Q161 31 138.50 77.50Q116 124 116 203L116 203L116 523Q116 564 99.50 575Q83 586 42 586L42 586Q42 641 60 665.50Q78 690 108 690L108 690Q147 690 161.50 662Q176 634 176 566L176 566L176 209Q176 163 190.50 137Q205 111 242 101Q279 91 346 91L346 91Q414 91 451 101.50Q488 112 502.50 137.50Q517 163 517 209L517 209L517 516Q517 557 499.50 573Q482 589 438 589L438 589Q356 589 356 538L356 538Q356 511 375.50 499.50Q395 488 441 488L441 488Q441 405 384 405L384 405Q347 405 324 441.50Q301 478 301 536L301 536Q301 611 337 650.50Q373 690 440 690L440 690Q577 690 577 521L577 521L577 203Q577 124 554.50 77.50Q532 31 481.50 10.50Q431-10 346-10Z"/></svg>