<svg id="U1E903" viewBox="0 0 616 1000"><path transform="translate(0, 900) scale(1,-1)" d="M307 724L307 724Q403 724 458.50 702Q514 680 537.50 639Q561 598 561 542L561 542Q561 493 546.50 458Q532 423 515 402.50Q498 382 488 374L488 374L416 425Q434 445 451 471Q468 497 468 542L468 542Q468 590 432 617.50Q396 645 307 645L307 645Q216 645 174.50 618Q133 591 133 542L133 542Q133 487 175.50 454.50Q218 422 315 393L315 393Q398 368 452.50 339.50Q507 311 534 266Q561 221 561 148L561 148Q561 66 514 33Q467 0 375 0L375 0L46 0L46 79L375 79Q426 79 447 97.50Q468 116 468 148L468 148Q468 215 420 252Q372 289 266 321L266 321Q186 346 136 374.50Q86 403 63 442.50Q40 482 40 539L40 539Q40 602 73.50 643Q107 684 167 704Q227 724 307 724Z"/></svg>