<svg id="U1E907" viewBox="0 0 641 1000"><path transform="translate(0, 900) scale(1,-1)" d="M551 635L284 635Q209 635 173.50 610.50Q138 586 138 537L138 537Q138 492 162 456.50Q186 421 238 386L238 386Q291 351 318.50 322Q346 293 359 260L359 260L362 260Q371 276 389 292Q407 308 427.50 321Q448 334 461 340L461 340L461 532L551 532L551 0L461 0L461 242L456 244Q445 239 429.50 226Q414 213 401 197.50Q388 182 382 168L382 168Q382 92 363 57.50Q344 23 312 9L312 9Q296 2 281 1Q266 0 237 0L237 0L49 0L49 79L229 79Q260 79 276.50 91.50Q293 104 293 141L293 141Q293 206 261.50 248Q230 290 177 324L177 324Q112 366 78.50 417.50Q45 469 45 538L45 538Q45 611 76 648.50Q107 686 161 700Q215 714 284 714L284 714L551 714L551 635Z"/></svg>