<svg id="U1E954" viewBox="0 0 593 1000"><path transform="translate(0, 900) scale(1,-1)" d="M226 80L519 80L519 0L226 0Q138 0 99 30Q60 60 60 129L60 129Q60 188 97 231.50Q134 275 200 316L200 316Q218 344 226 387Q234 430 234 497L234 497L234 714L323 714L323 497Q323 457 320.50 428.50Q318 400 310 380L310 380L314 378Q369 412 407.50 449.50Q446 487 458 510L458 510L526 466Q498 414 439.50 371Q381 328 289 274L289 274Q235 243 204 220Q173 197 160.50 177Q148 157 148 134L148 134Q148 110 164 95Q180 80 226 80L226 80Z"/></svg>