<svg id="U1E148" viewBox="0 0 576 1000"><path transform="translate(0, 900) scale(1,-1)" d="M317-10L317-10Q211-10 166 29.50Q121 69 121 151L121 151Q121 270 219 327L219 327L219 331Q129 345 92 387.50Q55 430 55 509L55 509Q55 607 110.50 648.50Q166 690 296 690L296 690Q416 690 472 656.50Q528 623 528 551L528 551Q528 514 515.50 490Q503 466 483 466L483 466Q475 466 467 470L467 470Q473 491 473 512L473 512Q473 542 458 558.50Q443 575 405 582Q367 589 298 589L298 589Q227 589 187 581Q147 573 131 554Q115 535 115 501L115 501Q115 467 132 448Q149 429 192.50 421.50Q236 414 315 414L315 414L398 414L398 332Q285 311 234 272Q183 233 183 170L183 170Q183 125 211 108Q239 91 315 91L315 91Q386 91 411.50 101.50Q437 112 437 135L437 135Q437 155 419.50 162Q402 169 357 169L357 169Q357 209 372.50 230.50Q388 252 418 252L418 252Q453 252 472.50 220.50Q492 189 492 133L492 133Q492 57 450.50 23.50Q409-10 317-10Z"/></svg>