<svg id="U1EE3" viewBox="0 0 616 1000"><path transform="translate(0, 900) scale(1,-1)" d="M551 269L551 269Q551 136 483.50 63Q416-10 301-10L301-10Q230-10 174.50 22.50Q119 55 87 117.50Q55 180 55 269L55 269Q55 402 122 474Q189 546 304 546L304 546Q357 546 401.50 528Q446 510 478 477L478 477Q523 491 534 529.50Q545 568 545 618L545 618L639 618L646 607Q633 538 604 491.50Q575 445 517 424L517 424Q533 393 542 354Q551 315 551 269ZM146 269L146 269Q146 168 183.50 115.50Q221 63 303 63L303 63Q386 63 423 115.50Q460 168 460 269L460 269Q460 370 422.50 421Q385 472 302 472L302 472Q220 472 183 421Q146 370 146 269ZM301-176L301-176Q280-176 264.50-162Q249-148 249-120L249-120Q249-91 264.50-77.50Q280-64 301-64L301-64Q322-64 337.50-77.50Q353-91 353-120L353-120Q353-148 337.50-162Q322-176 301-176Z"/></svg>