<svg id="U1E122" viewBox="0 0 584 1000"><path transform="translate(0, 900) scale(1,-1)" d="M319-10L319-10Q220-10 164.50 8Q109 26 86 64Q63 102 63 162L63 162Q63 242 110.50 295.50Q158 349 270 393L270 393L270 398Q221 397 183 396Q145 395 111 395L111 395L76 395L76 486Q186 534 245 585.50Q304 637 325 704L325 704Q393 689 393 636L393 636Q393 590 340.50 555Q288 520 167 487L167 487L167 482Q196 484 229.50 485Q263 486 323 486L323 486L497 486L497 404Q408 388 345 366Q282 344 230 314L230 314Q175 282 149.50 250.50Q124 219 124 174L124 174Q124 143 139.50 124.50Q155 106 194 98.50Q233 91 303 91L303 91Q393 91 434.50 102.50Q476 114 476 148L476 148Q476 171 457 181.50Q438 192 385 192L385 192Q385 275 443 275L443 275Q484 275 507.50 241.50Q531 208 531 149L531 149Q531 64 479 27Q427-10 319-10Z"/></svg>