<svg id="U1FE5" viewBox="0 0 600 1000"><path transform="translate(0, 900) scale(1,-1)" d="M158-240L70-240L70 275Q70 412 133.50 479Q197 546 298 546L298 546Q415 546 480 472Q545 398 545 263L545 263Q545 178 514 116.50Q483 55 428.50 22.50Q374-10 304-10L304-10Q264-10 226 1.50Q188 13 159 35L159 35L154 35Q156 19 157-17Q158-53 158-98L158-98L158-240ZM303 63L303 63Q375 63 414.50 114.50Q454 166 454 263L454 263Q454 370 413.50 421Q373 472 296 472L296 472Q159 472 159 274L159 274L159 112Q188 87 225.50 75Q263 63 303 63ZM328 625L288 603Q259 620 237.50 644Q216 668 216 703L216 703Q216 744 242 761.50Q268 779 311 779L311 779Q328 779 339.50 775.50Q351 772 356 770L356 770L356 714Q352 716 345 718Q338 720 328 720L328 720Q314 720 301 713Q288 706 288 684L288 684Q288 667 299.50 651.50Q311 636 328 625L328 625Z"/></svg>