<svg id="U1F65D" viewBox="0 0 1107 1000"><path transform="translate(0, 900) scale(1,-1)" d="M808-30L808-30Q764-30 719-4.50Q674 21 630.50 62.50Q587 104 547 152.50Q507 201 473 247Q439 293 412 326L412 326Q368 279 324.50 246.50Q281 214 240 215L240 215Q212 215 179.50 231.50Q147 248 117.50 277Q88 306 69.50 344Q51 382 51 425L51 425Q51 461 71 488Q91 515 147 515L147 515Q192 515 237.50 495.50Q283 476 334 448L334 448Q373 493 414 540.50Q455 588 496.50 628.50Q538 669 578.50 694.50Q619 720 658 720L658 720Q688 720 720.50 704.50Q753 689 782 660.50Q811 632 829 594.50Q847 557 847 513L847 513Q847 463 821 428Q795 393 752 393L752 393Q728 393 708 404Q688 415 674.50 430Q661 445 653.50 458Q646 471 646 476L646 476Q646 479 649 479L649 479Q654 479 659.50 476.50Q665 474 681 474L681 474Q710 474 737 485Q764 496 781.50 516Q799 536 799 561L799 561Q799 587 782 602Q765 617 739 617L739 617Q707 617 673.50 596.50Q640 576 605 541.50Q570 507 534.50 466Q499 425 463 384L463 384Q519 359 584.50 342.50Q650 326 728 328L728 328Q801 330 856.50 355.50Q912 381 943.50 423Q975 465 975 514L975 514Q975 542 967.50 559.50Q960 577 952.50 586Q945 595 945 599L945 599Q945 603 950 603L950 603Q956 603 973 592Q990 581 1009 559Q1028 537 1042 505.50Q1056 474 1056 433L1056 433Q1056 394 1040 355.50Q1024 317 991 285Q958 253 906.50 233.50Q855 214 784 214L784 214Q683 214 606 242Q529 270 464 305L464 305Q486 277 519.50 238.50Q553 200 593.50 163Q634 126 677 101.50Q720 77 760 77L760 77Q795 77 811.50 92.50Q828 108 828 128L828 128Q828 141 823.50 147Q819 153 819 155L819 155Q819 158 823 158L823 158Q832 158 852 143Q872 128 888.50 103Q905 78 905 49L905 49Q905 19 882.50-5.50Q860-30 808-30ZM109 361L109 361Q109 348 117.50 331.50Q126 315 154 315L154 315Q183 315 216 337.50Q249 360 284 395L284 395Q262 403 239.50 407Q217 411 194 411L194 411Q144 411 126.50 396Q109 381 109 361Z"/></svg>