<svg id="U1F6D" viewBox="0 0 1002 1000"><path transform="translate(0, 900) scale(1,-1)" d="M578 0L310 0L310 79L468 79Q431 107 396 149.50Q361 192 338.50 251Q316 310 316 384L316 384Q316 482 354 559Q392 636 465 680.50Q538 725 643 725L643 725Q749 725 822 681Q895 637 933 560Q971 483 971 385L971 385Q971 310 949 251Q927 192 892.50 149.50Q858 107 820 79L820 79L977 79L977 0L709 0L709 72Q771 116 808 162Q845 208 861 261.50Q877 315 877 381L877 381Q877 457 852 517Q827 577 775.50 611.50Q724 646 643 646L643 646Q563 646 511.50 611.50Q460 577 435.50 517Q411 457 411 381L411 381Q411 315 427 261.50Q443 208 479.50 162.50Q516 117 578 72L578 72L578 0ZM122 563L82 541Q53 558 31.50 582Q10 606 10 641L10 641Q10 682 36 699.50Q62 717 105 717L105 717Q122 717 133.50 713.50Q145 710 150 708L150 708L150 652Q146 654 139 656Q132 658 122 658L122 658Q108 658 95 651Q82 644 82 622L82 622Q82 605 93.50 589.50Q105 574 122 563L122 563ZM230 544L171 544L171 556L219 714L325 714L325 704L230 544Z"/></svg>