<svg id="U1FED" viewBox="0 0 648 1000"><path transform="translate(0, 900) scale(1,-1)" d="M385 606L326 606L241 766L241 776L347 776L385 618L385 606ZM196 631L196 631Q177 631 163 643.50Q149 656 149 681L149 681Q149 707 163 718.50Q177 730 196 730L196 730Q215 730 228.50 718.50Q242 707 242 681L242 681Q242 656 228.50 643.50Q215 631 196 631ZM451 631L451 631Q432 631 418 643.50Q404 656 404 681L404 681Q404 707 418 718.50Q432 730 451 730L451 730Q471 730 484.50 718.50Q498 707 498 681L498 681Q498 656 484.50 643.50Q471 631 451 631Z"/></svg>