<svg id="U1FA46" viewBox="0 0 1000 1000"><path transform="translate(0, 900) scale(1,-1)" d="M939 394L583 38Q549 73 528.50 110.50Q508 148 503 173L503 173Q501 186 499.50 211Q498 236 498 274L498 274Q498 320 494 344.50Q490 369 473 382L473 382L459 393L456 390Q458 386 460 379Q462 372 462 363L462 363Q462 345 453 325L453 325Q449 316 438.50 302Q428 288 414 272L414 272Q411 260 411 243L411 243Q411 233 412.50 220Q414 207 415 196L415 196Q417 182 417 171L417 171Q417 143 404 128L404 128Q377 98 349 98L349 98Q346 98 342.50 98Q339 98 336 99L336 99L254 117Q250 131 242 151Q234 171 221 195L221 195Q208 220 202 239.50Q196 259 194 272L194 272Q193 285 186.50 302Q180 319 169 338L169 338Q154 364 146.50 381.50Q139 399 139 419L139 419Q139 440 148 471L148 471Q134 500 111 521L111 521Q88 543 61 559L61 559L78 576Q103 587 124 587L124 587Q150 587 172 572L172 572L177 576Q173 585 159.50 601.50Q146 618 136 628L136 628Q125 641 111 651L111 651L136 675Q144 677 152 678.50Q160 680 168 680L168 680Q224 680 267 637L267 637Q336 676 430 676L430 676Q495 676 564.50 655Q634 634 704 589L704 589Q763 551 820 503.50Q877 456 933 400L933 400L939 394ZM783 332L783 332L829 379Q788 421 745 457Q702 493 658 524L658 524Q592 570 532 588Q472 606 422 606L422 606Q388 606 361 600L361 600L359 589Q369 590 378.50 590.50Q388 591 397 591L397 591Q443 591 487 577.50Q531 564 581 529Q631 494 695 430L695 430Q721 404 743.50 379.50Q766 355 783 332ZM219 387L223 385Q232 385 249 402L249 402Q259 412 259 427L259 427Q259 434 261.50 441Q264 448 270 452L270 452L276 457L270 463L245 449Q240 446 234.50 442.50Q229 439 224 434L224 434Q209 419 209 405L209 405Q209 397 214 392L214 392L219 387ZM308 174L308 174Q322 174 330 180L330 180Q324 189 319 204Q314 219 314 238L314 238Q314 243 314.50 248Q315 253 316 258L316 258L310 258Q287 232 287 207L287 207Q287 191 296 176L296 176Q299 175 302 174.50Q305 174 308 174Z"/></svg>