<svg id="U1F0E8" viewBox="0 0 676 1000"><path transform="translate(0, 900) scale(1,-1)" d="M591 0L85 0Q64 0 57.50 6.50Q51 13 51 34L51 34L51 732Q51 753 57.50 759.50Q64 766 85 766L85 766L591 766Q612 766 618.50 759.50Q625 753 625 732L625 732L625 34Q625 13 618.50 6.50Q612 0 591 0L591 0ZM91 14L91 14L585 14Q602 14 606.50 18.50Q611 23 611 40L611 40L611 726Q611 744 606.50 748Q602 752 585 752L585 752L91 752Q73 752 69 748Q65 744 65 726L65 726L65 40Q65 23 69 18.50Q73 14 91 14ZM511 110L165 110L165 656L511 656L511 110ZM179 642L179 124L215 124Q218 134 225.50 136.50Q233 139 236 139L236 139Q240 140 243.50 140Q247 140 249 140L249 140Q266 143 268.50 144.50Q271 146 271 147L271 147Q271 160 283 167L283 167Q284 173 288 177L288 177Q281 183 276.50 190Q272 197 272 205L272 205Q272 209 277 218.50Q282 228 302 231L302 231Q307 232 311.50 233Q316 234 321 238L321 238Q345 254 345 282L345 282Q345 286 344 290Q343 294 342 298L342 298Q341 302 339 306Q337 310 337 315L337 315Q337 324 343 329L343 329Q347 333 350 333.50Q353 334 356 334L356 334Q359 334 361 333.50Q363 333 364 333L364 333Q369 330 374 328Q379 326 384 323L384 323Q407 309 423.50 287.50Q440 266 446 240L446 240Q448 232 449 223Q450 214 450 206L450 206Q450 188 446 170.50Q442 153 431 137L431 137Q429 133 426.50 130Q424 127 422 124L422 124L497 124L497 642L179 642ZM236 124L236 124L402 124Q410 132 418 145L418 145Q435 174 435 206L435 206Q435 238 418.50 264Q402 290 376 310L376 310Q375 312 373 312.50Q371 313 369 314L369 314Q366 316 362 317.50Q358 319 356 319L356 319Q352 319 352 315L352 315Q352 313 353.50 309Q355 305 356 303L356 303Q360 294 360 282L360 282Q360 245 330 226L330 226Q320 220 310 217L310 217Q306 216 301.50 215.50Q297 215 293 213L293 213Q287 210 287 205L287 205Q287 199 294.50 193Q302 187 306 183L306 183Q313 178 313 174L313 174Q313 172 308 169L308 169Q305 168 301.50 167.50Q298 167 298 164L298 164Q298 160 302 156L302 156Q305 153 306 153L306 153Q304 153 302 154Q300 155 298 155L298 155L295 155Q288 155 286 145L286 145Q285 136 278 132Q271 128 263 126L263 126Q258 125 249.50 125Q241 125 236 124ZM384 186L384 186Q368 186 360 192.50Q352 199 349.50 206.50Q347 214 346 215L346 215L346 216Q346 221 351 221L351 221Q356 221 356 216L356 216L356 215Q356 210 362.50 203Q369 196 384 196L384 196L388 196Q393 196 393 191L393 191Q393 186 384 186Z"/></svg>