<svg id="U1F11F" viewBox="0 0 1000 1000"><path transform="translate(0, 900) scale(1,-1)" d="M789-57L731-57Q859 124 859 352L859 352Q859 464 826.50 571Q794 678 731 767L731 767L789 767Q922 598 922 351L922 351Q922 106 789-57L789-57ZM269-57L211-57Q78 106 78 351L78 351Q78 598 211 767L211 767L269 767Q206 678 173.50 571Q141 464 141 352L141 352Q141 124 269-57L269-57ZM455 145L386 145L386 574L506 574Q674 574 674 444L674 444Q674 307 495 307L495 307L455 307L455 145ZM455 519L455 361L489 361Q552 361 576.50 380.50Q601 400 601 442L601 442Q601 519 501 519L501 519L455 519Z"/></svg>