<svg id="U1F714" viewBox="0 0 840 1000"><path transform="translate(0, 900) scale(1,-1)" d="M420-14L420-14Q344-14 276.50 15Q209 44 158.50 95Q108 146 79 213Q50 280 50 356L50 356Q50 433 78.50 500Q107 567 157.50 617.50Q208 668 275.50 697Q343 726 420 726L420 726Q496 726 563 697Q630 668 681 617.50Q732 567 761 500Q790 433 790 356L790 356Q790 280 761 212.50Q732 145 681.50 94.50Q631 44 564 15Q497-14 420-14ZM127 392L127 392L713 392Q704 466 662.50 524.50Q621 583 558 617Q495 651 420 651L420 651Q346 651 283 617Q220 583 178.50 524.50Q137 466 127 392ZM420 61L420 61Q495 61 558 95Q621 129 662 187.50Q703 246 713 320L713 320L127 320Q137 247 178 188Q219 129 282.50 95Q346 61 420 61Z"/></svg>