<svg id="U1F210" viewBox="0 0 1000 1000"><path transform="translate(0, 900) scale(1,-1)" d="M50 830L50-70L950-70L950 830ZM81 799L919 799L919-39L81-39ZM790 676L734 735C613 699 382 679 195 672C203 655 212 626 214 609C293 611 379 616 464 624L464 516L194 516L194 447L464 447L464 327L144 327L144 257L464 257L464 108C464 93 458 88 441 87C423 87 362 86 298 88C309 68 321 38 325 18C410 18 464 19 496 30C528 42 539 63 539 107L539 257L858 257L858 327L539 327L539 447L820 447L820 516L539 516L539 631C634 642 722 656 790 676Z"/></svg>