<svg id="U1F746" viewBox="0 0 842 1000"><path transform="translate(0, 900) scale(1,-1)" d="M421 278L421 278Q377 278 342 298.50Q307 319 286.50 354.50Q266 390 266 433L266 433Q266 477 286.50 512Q307 547 342 567.50Q377 588 421 588L421 588Q465 588 500 567.50Q535 547 555.50 512Q576 477 576 433L576 433Q576 390 555.50 354.50Q535 319 500 298.50Q465 278 421 278ZM421 343L421 343Q458 343 484 369.50Q510 396 510 433L510 433Q510 470 484 496Q458 522 421 522L421 522Q384 522 357.50 496Q331 470 331 433L331 433Q331 396 357.50 369.50Q384 343 421 343ZM637-10L637-10Q593-10 558 10.50Q523 31 502.50 66.50Q482 102 482 145L482 145Q482 189 502.50 224Q523 259 558 279.50Q593 300 637 300L637 300Q681 300 716 279.50Q751 259 771.50 224Q792 189 792 145L792 145Q792 102 771.50 66.50Q751 31 716 10.50Q681-10 637-10ZM205-10L205-10Q162-10 126.50 10.50Q91 31 70.50 66.50Q50 102 50 145L50 145Q50 189 70.50 224Q91 259 126.50 279.50Q162 300 205 300L205 300Q249 300 284 279.50Q319 259 339.50 224Q360 189 360 145L360 145Q360 102 339.50 66.50Q319 31 284 10.50Q249-10 205-10ZM205 55L205 55Q242 55 268 81.50Q294 108 294 145L294 145Q294 182 268 208Q242 234 205 234L205 234Q168 234 141.50 208Q115 182 115 145L115 145Q115 108 141.50 81.50Q168 55 205 55ZM637 55L637 55Q674 55 700 81.50Q726 108 726 145L726 145Q726 182 700 208Q674 234 637 234L637 234Q600 234 573.50 208Q547 182 547 145L547 145Q547 108 573.50 81.50Q600 55 637 55Z"/></svg>