<svg id="U1F1AA" viewBox="0 0 1000 1000"><path transform="translate(0, 900) scale(1,-1)" d="M888-31L112-31L112 745L888 745L888-31ZM167 690L167 24L833 24L833 690L167 690ZM279 138L279 138Q260 138 244 143.50Q228 149 209 160L209 160L209 212Q228 199 244 190.50Q260 182 279 182L279 182Q301 182 311.50 198.50Q322 215 322 255L322 255Q322 308 281 335L281 335Q241 362 226 392Q211 422 211 471L211 471Q211 527 236 554.50Q261 582 301 582L301 582Q335 582 366 558L366 558L354 515Q334 531 325 535.50Q316 540 301 540L301 540Q261 540 261 471L261 471Q261 445 265.50 429.50Q270 414 281.50 403Q293 392 313 377L313 377Q344 355 357.50 329Q371 303 371 259L371 259Q371 201 347.50 169.50Q324 138 279 138ZM723 146L668 146L607 574L663 574L690 326Q692 310 693.50 286.50Q695 263 696 238L696 238L698 238Q700 263 702 286.50Q704 310 706 326L706 326L745 574L801 574L723 146ZM462 146L409 146L409 574L462 574L462 395L517 395L517 574L570 574L570 146L517 146L517 349L462 349L462 146Z"/></svg>