<svg id="U1F14B" viewBox="0 0 1000 1000"><path transform="translate(0, 900) scale(1,-1)" d="M888-31L112-31L112 745L888 745L888-31ZM167 690L167 24L833 24L833 690L167 690ZM275 146L218 146L218 574L299 574L370 290Q372 278 373 266.50Q374 255 376 243L376 243Q378 255 379 266.50Q380 278 382 290L382 290L455 574L535 574L535 146L475 146L475 401Q475 431 476 456Q477 481 479 501L479 501L395 156L355 156L267 502Q271 480 273 455Q275 430 275 402L275 402L275 146ZM717 146L662 146L567 574L628 574L685 269Q687 256 688 244Q689 232 690 220L690 220Q692 248 695.50 272Q699 296 704 317L704 317L750 574L811 574L717 146Z"/></svg>