<svg id="U1F59A" viewBox="0 0 1220 1000"><path transform="translate(0, 900) scale(1,-1)" d="M487 85L487 85Q468 85 456 88L456 88Q450 102 442 115.50Q434 129 425 142L425 142Q409 136 388.50 129.50Q368 123 358 123L358 123Q349 123 338 143Q327 163 327 188L327 188Q327 219 360 243L360 243Q350 261 344.50 280Q339 299 339 319L339 319Q339 329 347 342.50Q355 356 368 371L368 371Q354 371 339 371L339 371Q260 371 205.50 363Q151 355 119 355L119 355Q79 355 65 368Q51 381 51 412L51 412Q51 425 59.50 434.50Q68 444 98 454.50Q128 465 190 479L190 479L351 515Q410 529 468 534Q526 539 595 539L595 539Q637 539 690.50 529Q744 519 796.50 506.50Q849 494 890.50 484Q932 474 950 474L950 474Q968 474 979 474.50Q990 475 997 476L997 476Q1017 452 1026 409.50Q1035 367 1035 322L1035 322Q1035 270 1025 230Q1015 190 991 170L991 170Q979 177 967 182L967 182Q948 166 924.50 156.50Q901 147 861 147L861 147Q801 147 691 180L691 180Q652 166 626 166L626 166Q620 166 613 167L613 167Q610 144 595.50 132Q581 120 558 120L558 120Q552 120 546 120.50Q540 121 536 123L536 123Q526 85 487 85ZM1086 118L1011 118Q1000 118 995.50 124Q991 130 991 138L991 138L991 145Q997 135 1006 135L1006 135Q1033 135 1055 184Q1077 233 1077 322L1077 322Q1077 413 1055 462Q1033 511 1006 511L1006 511Q997 511 991 501L991 501L991 508Q991 516 995.50 522Q1000 528 1011 528L1011 528L1086 528Q1116 528 1134 500Q1152 472 1160.50 425Q1169 378 1169 322L1169 322Q1169 267 1160.50 220.50Q1152 174 1134 146Q1116 118 1086 118L1086 118Z"/></svg>