<svg id="U1F0ED" viewBox="0 0 676 1000"><path transform="translate(0, 900) scale(1,-1)" d="M591 0L85 0Q64 0 57.50 6.50Q51 13 51 34L51 34L51 732Q51 753 57.50 759.50Q64 766 85 766L85 766L591 766Q612 766 618.50 759.50Q625 753 625 732L625 732L625 34Q625 13 618.50 6.50Q612 0 591 0L591 0ZM91 14L91 14L585 14Q602 14 606.50 18.50Q611 23 611 40L611 40L611 726Q611 744 606.50 748Q602 752 585 752L585 752L91 752Q73 752 69 748Q65 744 65 726L65 726L65 40Q65 23 69 18.50Q73 14 91 14ZM511 110L165 110L165 656L511 656L511 110ZM179 642L179 124L497 124L497 642L179 642ZM316 364L316 364Q309 366 301.50 369Q294 372 287 374L287 374Q277 377 267.50 381Q258 385 248 388L248 388Q253 394 260 395.50Q267 397 268 397L268 397L275 397L275 407Q277 456 291.50 489Q306 522 338 522L338 522Q365 522 380 498L380 498Q393 476 396.50 449.50Q400 423 401 397L401 397L408 397Q410 397 417 395.50Q424 394 429 388L429 388Q412 382 393.50 377Q375 372 357 366L357 366Q355 368 351 368Q347 368 344 369L344 369L336 369Q332 369 325 368.50Q318 368 316 364ZM294 397L294 397L381 397Q381 412 378.50 437Q376 462 367 482.50Q358 503 338 503L338 503Q327 503 320.50 497Q314 491 309 481L309 481Q304 471 301.50 459Q299 447 297 435L297 435Q296 425 295.50 416Q295 407 294 397ZM433 258L243 258Q234 258 231.50 261.50Q229 265 229 273L229 273L229 282Q229 293 232 312.50Q235 332 239 351Q243 370 244 378L244 378Q251 376 257.50 373Q264 370 271 367L271 367Q282 363 292.50 359Q303 355 314 353L314 353L314 348Q314 335 323 332.50Q332 330 339 330L339 330Q352 330 357 332.50Q362 335 362 348L362 348L362 354Q366 354 370 356Q374 358 378 359L378 359Q389 363 400 366.50Q411 370 421 374L421 374Q429 376 432 377L432 377Q434 368 437 349Q440 330 443 311Q446 292 447 282L447 282L447 273Q447 265 444.50 261.50Q442 258 433 258L433 258ZM342 340L342 340Q331 340 327.50 341.50Q324 343 324 350L324 350Q324 355 326.50 357Q329 359 339 359L339 359Q353 359 353 351L353 351Q353 344 351.50 342Q350 340 342 340Z"/></svg>