<svg id="U1F900" viewBox="0 0 64 64"><path transform="translate(0, 57.6) scale(1,-1)" d="M20 52L20 48L12 48L12 44L8 44L8 40L4 40L4 32L0 32L0 12L4 12L4 4L8 4L8 0L12 0L12-4L20-4L20-8L40-8L40-4L48-4L48 0L52 0L52 4L56 4L56 12L60 12L60 32L56 32L56 40L52 40L52 44L48 44L48 48L40 48L40 52ZM12 40L24 40L24 32L28 32L28 24L20 24L20 28L12 28ZM36 40L48 40L48 28L40 28L40 24L32 24L32 32L36 32ZM16 36L16 32L20 32L20 36ZM40 36L40 32L44 32L44 36ZM20 20L28 20L28 12L24 12L24 4L12 4L12 16L20 16ZM32 20L40 20L40 16L48 16L48 4L36 4L36 12L32 12ZM16 12L16 8L20 8L20 12ZM40 12L40 8L44 8L44 12Z"/></svg>