<svg id="U1F74B" viewBox="0 0 458 1000"><path transform="translate(0, 900) scale(1,-1)" d="M229-10L229-10Q180-10 139 14.50Q98 39 74 79.50Q50 120 50 169L50 169Q50 230 87 278Q124 326 184 342L184 342L184 435L77 435L77 483L184 483L184 515L77 515L77 563L184 563L184 595L77 595L77 643L184 643L184 714L274 714L274 643L381 643L381 595L274 595L274 563L381 563L381 515L274 515L274 483L381 483L381 435L274 435L274 342Q335 326 371.50 277.50Q408 229 408 169L408 169Q408 120 384 79.50Q360 39 319.50 14.50Q279-10 229-10ZM229 59L229 59Q260 59 284.50 74Q309 89 324 114Q339 139 339 169L339 169Q339 199 324 224Q309 249 284 264Q259 279 229 279L229 279Q200 279 174.50 264Q149 249 134 224.50Q119 200 119 169L119 169Q119 123 151 91Q183 59 229 59Z"/></svg>