<svg id="U20D9C" viewBox="0 0 1000 1000"><path transform="translate(0, 900) scale(1,-1)" d="M738 738L738 152L794 152L794 738ZM867 822L867 6C867-8 861-12 847-13C834-13 790-14 740-12C748-28 756-52 759-66C827-67 867-66 891-56C915-47 925-31 925 7L925 822ZM74 741L74 109L133 109L133 204L281 204L281 741ZM133 672L221 672L221 273L133 273ZM365 782C351 688 326 596 284 533C297 525 319 510 329 500L318 500L318 442L473 442L473 338L334 338L334 4L391 4L391 280L473 280L473-74L532-74L532 280L614 280L614 66C614 59 612 57 605 57C598 56 580 56 556 57C564 42 572 20 575 4C609 4 632 4 649 14C666 24 671 39 671 66L671 338L532 338L532 442L689 442L689 500L532 500L532 612L662 612L662 669L532 669L532 833L473 833L473 669L401 669C410 702 417 737 423 772ZM473 612L473 500L332 500C352 531 370 569 384 612Z"/></svg>