<svg id="U20420" viewBox="0 0 1024 1024"><path transform="translate(0, 921.6) scale(1,-1)" d="M168-105L168-105L223-80L223 485L248 509L210 537Q239 584 261.50 621Q284 658 303 686L303 686Q339 737 351 737L351 737L283 798Q269 759 248.50 713.50Q228 668 199 614L199 614Q170 558 146 518.50Q122 479 103 450L103 450Q85 421 64.50 391Q44 361 20 331L20 331L26 319Q58 348 95 388.50Q132 429 171 480L171 480L171 103Q171 49 170.50-2.50Q170-54 168-105ZM342 569L342 569L399 590L399 607L525 607L525 576L580 596Q577 619 576.50 648Q576 677 576 712L576 712L605 724L547 772L511 737L399 737L342 769Q344 751 344 726L344 726Q344 702 344 670L344 670Q344 633 344 609L344 609Q344 585 342 569ZM399 635L399 712L525 712L525 635L399 635ZM643 569L643 569L702 585L702 607L827 607L827 579L884 596Q881 619 881 647L881 647Q881 676 881 709L881 709L909 727L860 776L820 740L705 740L643 769Q643 745 645 720Q647 695 647 666L647 666Q647 637 645 613Q643 589 643 569ZM702 635L702 714L827 714L827 635L702 635ZM361 236L361 236L412 254L412 271L789 271L789 241L846 261Q840 295 838.50 354Q837 413 839 499L839 499L876 515L818 566L779 534L425 534L361 560Q363 531 363 490L363 490Q363 449 363 396L363 396Q363 340 363 301L363 301Q363 262 361 236ZM628 415L628 509L789 509L789 415L628 415ZM412 295L412 390L576 390L576 295L412 295ZM412 415L412 509L576 509L576 415L412 415ZM628 295L628 390L789 390L789 295L628 295ZM839 203L262 203L300 171Q323 175 353 176Q383 177 421 177L421 177L940 177L888 241L839 203ZM380-101L380-101L441-83L441-53L762-53L762-95L820-77Q818-54 818-15L818-15Q818 24 818 90L818 90L846 103L795 154L750 122L444 122L380 145Q382 127 382.50 96Q383 65 383 20L383 20Q383-27 382.50-57Q382-87 380-101ZM441-26L441 97L762 97L762-26L441-26Z"/></svg>