<svg id="U20B1E" viewBox="0 0 1024 1024"><path transform="translate(0, 921.6) scale(1,-1)" d="M115-78L115-78L121-93Q164-64 203.50-30.50Q243 3 275 46L275 46Q339 135 354 233L354 233Q356 247 359 269Q362 291 364 323L364 323Q382 329 402 336.50Q422 344 444 352L444 352L437 371L366 353Q369 421 370 519Q371 617 370 748L370 748L392 776L310 805Q313 644 313 528L313 528Q313 412 311 339L311 339L156 301L156 588L188 616L96 639Q98 605 98.50 572Q99 539 99 505L99 505L99 291L70 275L115 218Q128 228 176 249Q224 270 309 302L309 302Q306 264 303 241L303 241Q282 147 246 78L246 78Q223 39 190.50 2.50Q158-34 115-78ZM526 683L526 683L782 683Q757 568 725 465.50Q693 363 647 272L647 272Q559 441 526 683ZM782 709L427 709L465 674Q472 676 482 679.50Q492 683 504 683L504 683Q518 415 622 215L622 215Q567 136 498.50 64Q430-8 347-72L347-72L354-84Q439-35 513 28.50Q587 92 651 173L651 173Q694 106 749.50 47Q805-12 874-65L874-65Q893-24 954-24L954-24L954-10Q922 1 885.50 23Q849 45 810 78L810 78Q772 108 739.50 142.50Q707 177 679 218L679 218Q776 398 839 671L839 671L868 696L807 748L782 709Z"/></svg>