<svg id="U20CEF" viewBox="0 0 1024 1024"><path transform="translate(0, 921.6) scale(1,-1)" d="M112 494L112 494L172 510L172 543L343 543L343 507L402 530Q399 560 398.50 589Q398 618 398 652L398 652L398 704L431 733L372 786L339 750L172 750L112 780Q114 742 114.50 707Q115 672 115 635L115 635Q115 600 114.50 565.50Q114 531 112 494ZM172 720L343 720L343 570L172 570L172 720ZM335 428L27 428L60 391Q80 395 97.50 398.50Q115 402 136 402L136 402L161 402Q156 371 151.50 352.50Q147 334 145 320L145 320Q139 303 129.50 289Q120 275 109 263L109 263L158 221L191 250L335 250Q320 143 308.50 87.50Q297 32 289 18L289 18Q269-9 112 21L112 21L112 4Q217-28 227-84L227-84Q320-68 352 24L352 24Q367 68 375.50 123.50Q384 179 395 244L395 244L431 266L369 323L335 280L191 280L221 402L444 402L381 464L335 428ZM576 562L576 740L805 740L805 562L576 562ZM862 720L862 720L887 756L835 809L805 769L576 769L520 806Q520 756 521.50 713Q523 670 523 628L523 628Q523 586 521.50 545Q520 504 520 470L520 470L576 497L576 533L805 533L805 484L865 510Q862 527 862 580L862 580Q862 633 862 720ZM637 385L957 385L890 454L838 412L457 412L493 372Q522 385 559 385L559 385L579 385Q567 350 559.50 324.50Q552 299 542 287L542 287Q534 260 509 247L509 247L556 185L582 224L822 224Q809 140 797.50 88Q786 36 779 18L779 18Q764-24 740-24L740-24Q727-21 697.50-16.50Q668-12 621 1L621 1L618-16Q716-53 716-110L716-110Q806-90 835 1L835 1Q848 46 859 96Q870 146 878 205L878 205L911 228L859 293L825 250L592 250Q602 282 613.50 316Q625 350 637 385L637 385Z"/></svg>