<svg id="U2072D" viewBox="0 0 1024 1024"><path transform="translate(0, 921.6) scale(1,-1)" d="M890 765L864 744Q852 671 843.50 628Q835 585 830 571L830 571Q822 556 816 545.50Q810 535 798 524L798 524Q776 499 721 488L721 488Q709 529 571 565L571 565L571 580Q635 568 675 565Q715 562 733 562L733 562Q775 562 779 606L779 606Q790 643 801 747L801 747L495 747Q476 692 448.50 650.50Q421 609 382 577L382 577Q340 542 272.50 513.50Q205 485 105 469L105 469L101 485Q298 546 357 612L357 612Q387 653 404.50 687Q422 721 429 747L429 747L258 747Q235 744 216 743.50Q197 743 179 741L179 741L140 776L801 776L830 807L890 765ZM492 402L510 402L510 351L629 351Q629 402 625.50 439Q622 476 620 501L620 501L715 469L683 434L683 351L833 351L864 396L928 345Q874 319 811 235L811 235L795 242L833 325L683 325Q663 31 360-86L360-86L357-67Q482-6 548.50 91.50Q615 189 629 325L629 325L510 325Q499 259 482 245L482 245Q458 227 435 235L435 235Q402 250 444 290L444 290Q480 323 492 402L492 402ZM676 19L676 19Q676 102 674.50 160Q673 218 673 252L673 252L765 217L730 191L730 38Q730-12 776-12L776-12L833-12Q866-12 872 32L872 32Q874 57 876 77.50Q878 98 878 118L878 118L900 118Q894 0 948-6L948-6Q917-64 849-64L849-64L737-64Q676-64 676 19ZM66 351L242 351Q242 396 241.50 432.50Q241 469 239 495L239 495L328 469L301 431L301 351L354 351L399 396L453 325L301 325L301 208L435 232L438 217L301 166L301 12Q301-67 220-95L220-95Q216-46 122-23L122-23L122-6Q147-8 167-8.50Q187-9 203-12L203-12Q242-24 242 16L242 16L242 149Q184 132 148.50 119Q113 106 99 98L99 98L63 155Q108 155 242 191L242 191L242 325L182 325Q165 322 145.50 318Q126 314 101 309L101 309L66 351Z"/></svg>