<svg id="U2093C" viewBox="0 0 1024 1024"><path transform="translate(0, 921.6) scale(1,-1)" d="M134-95L74-45L100-21L100 670Q100 690 99 723.50Q98 757 93 805L93 805L157 775L773 775L827 821L897 748L154 748L154-32L814-32L867 25L948-61L157-61L134-95ZM459 178L398 149Q401 206 401.50 263Q402 320 402 380L402 380Q402 434 401.50 480Q401 526 398 564L398 564L483 534L456 504L456 306L456 243Q456 211 459 178L459 178ZM275 175L275 440Q213 342 167 302L167 302L157 310Q193 366 219 423Q245 480 268 537L268 537Q309 655 328 722L328 722L398 678Q368 666 348 607L348 607Q337 577 326 552.50Q315 528 307 510L307 510L351 480L328 460L328 202Q328 167 328.50 127Q329 87 332 42L332 42L271 8Q274 43 274.50 85Q275 127 275 175L275 175ZM566 504L566 504Q548 456 524.50 416Q501 376 478 347L478 347L461 350Q497 422 528 514.50Q559 607 589 722L589 722L670 681L633 654Q610 586 595 546L595 546L806 546L861 595L914 520L817 520Q809 426 786 345.50Q763 265 723 196L723 196Q829 95 927 81L927 81L927 69Q895 69 874.50 58.50Q854 48 843 28L843 28Q755 76 690 155L690 155Q645 104 588 69Q531 34 459 11L459 11L446 31Q509 61 562.50 100Q616 139 659 196L659 196Q580 323 566 504ZM756 520L595 520Q605 345 687 239L687 239Q718 298 734.50 367.50Q751 437 756 520L756 520Z"/></svg>