<svg id="U20163" viewBox="0 0 1024 1024"><path transform="translate(0, 921.6) scale(1,-1)" d="M304 750L304 750Q322 710 297 688L297 688Q281 676 270 684Q259 692 251 724L251 724Q240 754 227 775.50Q214 797 197 820L197 820L204 830Q283 790 304 750ZM74 606L49 641L385 641L438 692L507 615L162 615Q136 615 114 613.50Q92 612 74 606L74 606ZM52-93L43-87Q129 44 144 216L144 216Q154 297 155 378Q156 459 155 539L155 539L214 500L346 500L375 539L443 487L409 460L409 51Q405-20 481-20L481-20L820-20Q856-22 877.50-6Q899 10 903 45L903 45Q903 113 909 173L909 173L926 173Q926 147 926.50 118.50Q927 90 933 60L933 60Q938 1 980-7L980-7Q943-62 877-66L877-66L443-66Q351-66 357 35L357 35L357 474L214 474Q218 232 171 96L171 96Q125-31 52-93L52-93ZM753 739L761 744Q801 713 828.50 692.50Q856 672 869 658L869 658Q896 623 877 595L877 595Q855 555 848 589L848 589Q842 601 836 612Q830 623 828 628L828 628Q757 623 706.50 618.50Q656 614 623 609L623 609Q590 602 565.50 599Q541 596 527 589L527 589L498 641Q515 641 535 658Q555 675 577 707L577 707Q596 736 612.50 767Q629 798 643 830L643 830L712 779L683 767Q639 722 611.50 692Q584 662 567 644L567 644L814 654Q805 668 789 689Q773 710 753 739L753 739ZM616 480L686 438L663 426L629 391L764 391L790 419L848 374L820 351Q790 283 761.50 238.50Q733 194 709 167L709 167Q742 130 795 107L795 107Q856 78 903 75L903 75L903 57Q835 46 828 14L828 14Q763 43 678 131L678 131Q599 48 438-5L438-5L434 14Q502 44 555.50 79.50Q609 115 646 167L646 167Q622 194 603 227.50Q584 261 567 298L567 298Q550 275 526 255.50Q502 236 481 220L481 220L467 233Q492 259 512.50 285Q533 311 550 339L550 339L530 413L547 419L567 374Q584 403 596 430Q608 457 616 480L616 480ZM764 361L616 361L590 335Q623 255 678 200L678 200Q694 226 716 266.50Q738 307 764 361L764 361ZM653 622L653 622Q641 527 590 492L590 492Q565 471 532.50 458Q500 445 458 441L458 441L455 453Q533 488 560 521L560 521Q597 557 597 615L597 615Q610 615 623.50 617Q637 619 653 622ZM712 517L712 517L712 625Q741 625 764 635L764 635L764 536Q764 501 784 506L784 506L844 506L863 506Q868 506 873 508.50Q878 511 883 517L883 517Q897 523 909 517L909 517Q913 509 920.50 503Q928 497 936 487L936 487Q908 459 860 463L860 463L761 463Q712 463 712 517Z"/></svg>