<svg id="U20E49" viewBox="0 0 1024 1024"><path transform="translate(0, 921.6) scale(1,-1)" d="M481 828L481 828L571 796L536 770L536 630L626 630Q657 677 682.50 716.50Q708 756 726 796L726 796L790 748L754 729Q732 704 704.50 681Q677 658 648 630L648 630L863 630L899 668L960 607Q903 592 841 517L841 517L828 526Q838 545 846 564Q854 583 867 601L867 601L176 601Q172 494 112 494L112 494Q52 494 92 537L92 537Q143 585 156 668L156 668L176 668L176 630L484 630L484 697Q484 732 482.50 764.50Q481 797 481 828ZM243 770L246 784Q404 715 372 668L372 668Q339 608 324 665L324 665Q303 710 243 770L243 770ZM237 414L237 340Q237 320 246 311L246 311Q253 302 307 302L307 302L764 302Q770 302 781.50 303Q793 304 806 311L806 311Q824 314 848 302L848 302Q863 288 863 256L863 256L246 256Q210 256 195 273L195 273Q179 286 179 331L179 331L179 392Q179 408 178.50 427.50Q178 447 176 476L176 476L259 439L237 414ZM741 169L279 169L279 93L741 93L741 169ZM741 64L279 64L279-22L741-22L741 64ZM224 218L224 218L275 195L735 195L770 234L828 180L793 160L793 35Q793-45 799-61L799-61L741-83L741-48L279-48L279-67L224-86Q226-51 226.50-16Q227 19 227 57L227 57Q227 98 226.50 137Q226 176 224 218ZM822 517L799 494L799 421Q799 393 802 375L802 375L744 353L744 375L391 375L391 356L330 337Q332 365 332.50 393Q333 421 333 443L333 443Q333 468 332.50 494.50Q332 521 330 552L330 552L391 529L741 529L767 561L822 517ZM744 500L391 500L391 401L744 401L744 500Z"/></svg>