<svg id="U20AB2" viewBox="0 0 1024 1024"><path transform="translate(0, 921.6) scale(1,-1)" d="M18-93L18-93L31-100Q212 106 207 533L207 533L207 726L965 726L885 805L824 756L211 756L141 789Q143 725 143.50 661Q144 597 144 527L144 527Q144 454 139 379Q134 304 124 221L124 221Q105 56 18-93ZM612 28L447 5L447 65L595 65L539 138L506 92L447 92L447 162L612 162L562 224L522 188L447 188L447 261L533 261L533 235L582 255L582 364L602 387L556 427L533 393L447 393L447 470L489 470L489 440L536 457L536 570L651 570L598 636L568 596L536 596L536 663L562 683L489 719L489 596L356 596L356 670L383 686L307 719Q309 684 309.50 653.50Q310 623 310 596L310 596L220 596L253 559Q276 562 288 566Q300 570 310 570L310 570L310 436L356 457L356 470L396 470L396 393L313 393L263 424L263 224L313 245L313 261L396 261L396 188L224 188L260 152Q299 162 336 162L336 162L396 162L396 92L243 92L284 59Q301 61 320.50 63Q340 65 364 65L364 65L396 65L396-1Q329-11 275-16.50Q221-22 183-24L183-24L224-93Q241-83 262-75.50Q283-68 310-60Q337-52 410.50-33.50Q484-15 612 15L612 15L612 28ZM356 497L356 570L489 570L489 497L356 497ZM313 287L313 367L396 367L396 287L313 287ZM447 287L447 367L533 367L533 287L447 287ZM768 517L848 517Q842 281 839.50 157.50Q837 34 835 15L835 15Q823-26 702 2L702 2L698-14Q795-44 795-93L795-93Q874-68 885-21L885-21Q889 1 893.50 42.50Q898 84 898 145L898 145Q898 207 900 297Q902 387 907 510L907 510L937 536L867 590L844 546L768 546L768 649L798 680L712 719L712 546L616 546L651 510Q671 517 712 517L712 517Q712 431 703 350.50Q694 270 682 194L682 194Q651 44 528-100L528-100L539-113Q701 31 735 188L735 188Q768 348 768 517L768 517Z"/></svg>