<svg id="U207F4" viewBox="0 0 1024 1024"><path transform="translate(0, 921.6) scale(1,-1)" d="M661 667L661 667L746 642L718 619L718 324Q718 279 718.50 236Q719 193 725 154L725 154L661 131Q661 167 664 209.50Q667 252 667 300L667 300L667 547Q667 575 664 604Q661 633 661 667ZM826 14L826 14L826 584Q826 644 824.50 698Q823 752 823 800L823 800L905 768L881 743L881-14Q881-68 788-84L788-84Q788-34 690-9L690-9L690 4Q826-23 826 14ZM328 436L328 436L385 401L357 375Q417 361 464 350.50Q511 340 551 328L551 328Q620 305 617 265L617 265Q612 214 554 268L554 268Q522 288 469 311.50Q416 335 341 356L341 356Q238 279 183 249L183 249Q211 239 230.50 230Q250 221 265 207L265 207Q293 184 268 150L268 150Q247 118 230 157L230 157Q222 173 205.50 195Q189 217 163 239L163 239Q136 225 105.50 211Q75 197 33 189L33 189L30 197Q252 312 328 436ZM325-2L325 115Q150 26 122 1L122 1L72 52Q95 54 158.50 75Q222 96 325 138L325 138Q325 178 324.50 221Q324 264 321 309L321 309L405 278L378 254L378 165Q422 186 455 207.50Q488 229 512 252L512 252L572 201Q548 195 530.50 192Q513 189 496 182L496 182Q481 177 451.50 166.50Q422 156 378 147L378 147L378 138Q516 104 569 74L569 74Q616 44 598 12L598 12Q582-25 531 30L531 30Q502 54 464 77Q426 100 378 118L378 118L378-17Q378-71 306-93L306-93Q292-48 195-23L195-23L198-9Q325-24 325-2L325-2ZM381 455L321 436Q324 457 324.50 483.50Q325 510 325 543L325 543L325 661L183 661Q139 661 106 651L106 651L72 686L325 686Q325 715 324.50 742.50Q324 770 321 800L321 800L410 768L378 743L378 686L516 686L563 734L633 661L378 661L378 566L378 504Q378 476 381 455L381 455ZM169 642L242 604Q230 593 218 577.50Q206 562 195 543L195 543Q286 498 286 471L286 471Q295 444 274 430L274 430Q250 419 236 455L236 455Q227 476 213.50 493Q200 510 186 527L186 527Q121 445 65 410L65 410L59 424Q76 440 93 463.50Q110 487 125 519L125 519Q139 545 150 575.50Q161 606 169 642L169 642ZM481 642L554 604Q537 600 509 554L509 554Q570 534 595 512L595 512Q617 497 617 474L617 474Q617 451 601 442L601 442Q585 428 569 464L569 464Q561 478 544.50 497.50Q528 517 502 543L502 543Q472 487 401 427L401 427L392 433Q435 488 452 534L452 534Q462 559 469 586Q476 613 481 642L481 642Z"/></svg>