<svg id="U20189" viewBox="0 0 1024 1024"><path transform="translate(0, 921.6) scale(1,-1)" d="M312 604L315 604L701 610Q674 631 604 666L604 666L616 675Q721 648 762 627L762 627Q804 603 794 565L794 565Q774 527 759 547L759 547Q741 571 720 592L720 592Q572 579 481.50 573Q391 567 356 565L356 565Q318 560 287.50 557Q257 554 239 550L239 550L212 607Q257 607 308 633L308 633Q334 645 350.50 658.50Q367 672 379 684L379 684L197 684Q175 684 157 680.50Q139 677 123 675L123 675L87 711L497 711Q490 722 483.50 732.50Q477 743 468 752L468 752Q461 765 424 796L424 796L430 806Q500 789 526 771L526 771Q559 746 522 711L522 711L816 711L868 752L935 684L427 684L461 666Q454 661 439.50 655.50Q425 650 401 643L401 643Q366 621 312 604L312 604ZM893 272L951 212L180 212Q153 212 136 208.50Q119 205 108 203L108 203L72 237L321 237L321 298Q208 298 171 292L171 292L142 324L321 324L321 380L187 380Q167 380 149.50 378Q132 376 114 374L114 374L81 410L321 410L321 470L242 470Q201 470 168 461L168 461L132 496L321 496L321 553L388 535L369 515L369 496L484 496L484 565L554 541L535 525L535 496L774 496L823 531L887 470L535 470L535 410L832 410L877 441L938 380L535 380L535 324L784 324L832 355L890 298L535 298L535 237L842 237L893 272ZM484 470L369 470L369 410L484 410L484 470ZM484 380L369 380L369 324L484 324L484 380ZM369 237L484 237L484 298L369 298L369 237ZM315 161L315 102L363 102L404 141L458 78L308 78Q295-26 148-91L148-91L142-79Q241-17 260 78L260 78L209 78Q168 78 138 66L138 66L105 102L263 102Q263 131 262.50 157Q262 183 260 206L260 206L340 185L315 161ZM538-75L480-94Q480-66 482-46.50Q484-27 484-6L484-6L484 206L560 182L535 155L535 20L535-27Q535-47 538-75L538-75ZM927 75L753 75L753 36L753-16Q753-40 756-58L756-58L698-82Q698-45 699.50-20.50Q701 4 701 20L701 20L701 75L672 75Q650 70 632.50 67.50Q615 65 598 61L598 61L563 99L701 99Q701 131 699.50 158.50Q698 186 698 212L698 212L781 185L753 161L753 99L823 99L871 138L927 75ZM640 230L640 556L711 538L691 519L691 230L640 230Z"/></svg>