<svg id="U20C70" viewBox="0 0 1024 1024"><path transform="translate(0, 921.6) scale(1,-1)" d="M936 186L877 29Q857 54 845 94.50Q833 135 828 189L828 189Q818 244 814.50 375Q811 506 811 721L811 721L851 746L792 806L756 773L235 773L175 812Q177 769 177.50 701.50Q178 634 178 534L178 534Q181 431 175.50 347.50Q170 264 156 197L156 197Q143 122 112.50 53Q82-16 34-82L34-82L41-91Q110-22 152 48.50Q194 119 208 193L208 193Q239 353 235 743L235 743L458 743Q458 716 459.50 692Q461 668 461 645L461 645L284 645L320 606Q337 610 354.50 613Q372 616 392 620L392 620L461 620L461 534L306 534L343 498Q360 500 377.50 502.50Q395 505 418 505L418 505L461 505L461 419L235 419L268 383Q282 388 301 390.50Q320 393 343 393L343 393L461 393L461 288L376 288L317 317Q319 280 319.50 242Q320 204 320 167L320 167Q320 127 319.50 86Q319 45 317 6L317 6L376 29L376 52L601 52L601 16L661 45Q656 67 655.50 93.50Q655 120 655 151L655 151L655 246L687 268L631 321L601 288L513 288L513 393L762 393L762 353Q762 276 768 209Q774 142 792 88L792 88Q819-25 914-104L914-104Q909-65 917.50 4.50Q926 74 950 180L950 180L936 186ZM762 743L762 393L700 459L647 419L513 419L513 505L687 505L628 573L582 534L513 534L513 620L720 620L664 681L622 645L513 645L513 691L540 718L480 743L762 743ZM601 258L601 78L376 78L376 258L601 258Z"/></svg>