<svg id="U20EEF" viewBox="0 0 1024 1024"><path transform="translate(0, 921.6) scale(1,-1)" d="M309 313L309 313L309 300Q393 280 400 238L400 238Q464 260 464 316L464 316L464 497L577 548L574 564L464 532L464 626L587 626L535 687L490 651L464 651L464 732L490 768L409 797Q409 787 412.50 749Q416 711 416 651L416 651L283 651L319 616Q338 623 361.50 624.50Q385 626 409 626L409 626L416 626L416 516Q371 501 335 490Q299 479 270 474L270 474L306 429Q320 441 347 451.50Q374 462 416 477L416 477L416 335Q416 306 387 306L387 306Q375 308 355.50 309Q336 310 309 313ZM648 713L596 739Q596 691 598 645Q600 599 600 548L600 548Q600 494 588.50 448.50Q577 403 561 367L561 367Q524 292 458 238L458 238L464 229Q562 276 600 351L600 351Q643 424 648 516L648 516L754 516L754 335Q754 315 751 289.50Q748 264 748 235L748 235L806 254Q803 270 803 371L803 371L803 516L919 516L858 580L813 545L648 545L648 690Q674 690 707 692.50Q740 695 780 700L780 700Q853 709 903 709L903 709L855 771Q813 742 758 732L758 732Q728 727 700 721Q672 715 648 713L648 713ZM548 254L548 254L538 242Q594 174 609 119L609 119Q627 62 654 99L654 99Q671 132 658 167L658 167Q637 198 548 254ZM361 180L345 180Q315 88 267 54L267 54Q223 22 241 3L241 3Q254-9 283-9L283-9Q315-5 329 29L329 29Q337 46 345 84Q353 122 361 180L361 180ZM419 90L419-3Q419-76 503-80L503-80L687-80Q776-75 800-22L800-22Q771-13 761 12L761 12Q758 27 756 47Q754 67 754 96L754 96L735 96Q730 67 726.50 44Q723 21 719 0L719 0Q714-32 674-32L674-32L542-32Q467-32 467 22L467 22L467 148L503 180L416 216Q416 182 417.50 150.50Q419 119 419 90L419 90ZM780 177L767 167Q805 116 828 80Q851 44 858 22L858 22Q866-19 897 12L897 12Q919 49 897 87L897 87Q868 118 780 177L780 177ZM99 664L199 664L199 196L99 196L99 664ZM44 58L44 58L99 87L99 171L199 171L199 67L251 96Q248 127 248 159L248 159L248 229L248 645L280 674L222 729L196 690L99 690L44 726Q47 681 47.50 637Q48 593 48 548L48 548L48 177Q48 145 47.50 115.50Q47 86 44 58Z"/></svg>