<svg id="U20B33" viewBox="0 0 1024 1024"><path transform="translate(0, 921.6) scale(1,-1)" d="M248 312L248 312L132 266L135 633L159 659L76 685Q81 590 76 305L76 305Q60 246 52 240L52 240L92 183Q117 208 157 233Q197 258 248 289L248 289Q243 236 228.50 186.50Q214 137 195 87L195 87Q172 44 137.50-2.50Q103-49 56-97L56-97L63-106Q107-73 147.50-35.50Q188 2 221 54L221 54Q295 160 301 332L301 332L307 768L331 795L251 827Q256 784 254 657Q252 530 248 312ZM509 240L509 240L496 226Q503 208 511 184.50Q519 161 532 133L532 133L380 103Q445 218 501 334.50Q557 451 605 573L605 573L635 593L565 639Q543 570 523 513.50Q503 457 485 412L485 412L374 412Q466 589 506 719L506 719L536 738L463 792Q444 706 425 641Q406 576 387 523L387 523Q346 415 310 415L310 415L340 351Q381 371 482 391L482 391Q437 293 407.50 233.50Q378 174 364 150L364 150Q327 104 307 100L307 100L344 31Q378 50 425.50 68.50Q473 87 536 108L536 108Q543 60 549 38L549 38Q554 7 571 22L571 22Q591 39 595 81L595 81Q602 124 509 240ZM912 698L912 698L939 725L883 775L856 732L585 732L614 695L648 706Q654 554 677.50 425.50Q701 297 737 189L737 189Q697 117 640 51Q583-15 506-74L506-74L512-87Q589-40 651.50 15Q714 70 767 143L767 143Q792 86 825 34Q858-18 896-68L896-68Q903-38 969-38L969-38L972-20Q926 8 881 59.50Q836 111 790 186L790 186Q827 281 857.50 409.50Q888 538 912 698ZM678 706L678 706L856 706Q822 428 760 243L760 243Q728 336 707.50 451Q687 566 678 706Z"/></svg>