<svg id="U20796" viewBox="0 0 1024 1024"><path transform="translate(0, 921.6) scale(1,-1)" d="M145 731L105 770L494 770L546 813L609 743L385 743L385 580L553 580L596 622L668 550L168 550Q148 547 128.50 544.50Q109 542 88 540L88 540L56 580L326 580L326 743L220 743Q198 743 180 738Q162 733 145 731L145 731ZM188 369L516 369L516 458L188 458L188 369ZM188 260L516 260L516 342L188 342L188 260ZM188 152L516 152L516 233L188 233L188 152ZM250 98L250 98L310 39Q298 34 283 24.50Q268 15 250 3L250 3Q235-5 215-17.50Q195-30 168-45L168-45Q140-61 108.50-76.50Q77-92 45-108L45-108L39-88Q71-71 101-50.50Q131-30 161-4L161-4Q193 25 215 50.50Q237 76 250 98ZM188 95L128 72Q130 132 130.50 189Q131 246 131 306L131 306Q131 365 130.50 418Q130 471 128 517L128 517L191 483L513 483L543 523L599 480L573 444L573 227L573 167Q573 138 576 101L576 101L516 82L516 122L188 122L188 95ZM402 76L408 92Q468 66 509 48Q550 30 573 12L573 12Q614-19 599-69L599-69Q584-118 546-62L546-62Q529-30 491.50 3Q454 36 402 76L402 76ZM770 675L748 648L748 385L748 266Q748 207 751 152L751 152L688 125Q688 182 689.50 235.50Q691 289 691 342L691 342L691 572Q691 602 689.50 632.50Q688 663 688 701L688 701L770 675ZM859 9L859 9L859 612Q859 665 857.50 714Q856 763 856 816L856 816L945 783L919 760L919-10Q919-80 836-104L836-104Q827-51 718-24L718-24L718-7Q859-31 859 9Z"/></svg>