<svg id="U2000D" viewBox="0 0 1024 1024"><path transform="translate(0, 921.6) scale(1,-1)" d="M514 469L722 469L722 633Q722 666 720.50 699.50Q719 733 719 768L719 768L825 726L780 685L780 469L862 469L920 517L992 442L780 442L780-29L815-29L870 24L941-57L243-57L216-81L156-33L188-12L188 442L147 442Q124 442 105.50 438Q87 434 69 432L69 432L32 469L188 469L188 633Q188 669 187 703.50Q186 738 181 774L181 774L278 736L243 706L243 469L455 469L455 650Q455 696 454.50 738Q454 780 452 821L452 821L548 780L514 745L514 469ZM455 442L243 442L243-29L455-29L455 442ZM722 442L514 442L514-29L722-29L722 442Z"/></svg>