<svg id="U20191" viewBox="0 0 1024 1024"><path transform="translate(0, 921.6) scale(1,-1)" d="M804 692L543 692Q569 726 555 753L555 753Q543 762 516.50 774.50Q490 787 446 803L446 803L443 791Q500 741 511 692L511 692L96 692L130 657Q147 663 164.50 665.50Q182 668 203 668L203 668L927 668L861 742L804 692ZM215 375L215 375L272 387L272 399L476 399L476 135L528 135L528 399L736 399L736 381L792 399Q789 423 789 464L789 464Q789 506 789 575L789 575L811 607L754 648L732 610L272 610L215 633Q219 606 220 578Q221 550 221 522L221 522Q221 493 220 456Q219 419 215 375ZM272 519L272 582L476 582L476 519L272 519ZM528 519L528 582L736 582L736 519L528 519ZM272 425L272 494L476 494L476 425L272 425ZM528 425L528 494L736 494L736 425L528 425ZM817 144L77 144L115 106Q145 116 197 116L197 116L946 116L874 198L817 144ZM417 50L361 113Q324 70 253 15L253 15Q219-9 179.50-33Q140-57 92-79L92-79L99-91Q218-62 382 43L382 43L417 50ZM584 100L578 85Q666 42 722 7Q778-28 804-53L804-53Q856-110 868-82L868-82Q877-52 868-28L868-28Q856-1 786 28L786 28Q750 42 700 59Q650 76 584 100L584 100ZM367 324L367 229L225 229L225 324L367 324ZM399 378L367 349L221 349L171 368Q173 344 173.50 321Q174 298 174 276L174 276Q174 252 173.50 224.50Q173 197 171 169L171 169L225 185L225 204L367 204L367 182L420 198Q417 214 417 230L417 230Q417 247 417 264L417 264L417 321L443 337L399 378ZM773 324L773 229L631 229L631 324L773 324ZM804 378L773 349L631 349L578 368Q578 344 579.50 321Q581 298 581 276L581 276Q581 252 579.50 227.50Q578 203 578 179L578 179L631 191L631 204L773 204L773 185L827 201Q824 217 824 232L824 232Q824 247 824 264L824 264L824 314L852 337L804 378Z"/></svg>