<svg id="U2074B" viewBox="0 0 1024 1024"><path transform="translate(0, 921.6) scale(1,-1)" d="M138 783L138 783L203 747L490 747L513 790L572 747L543 718L543 605Q543 545 549 527L549 527L490 507L490 547L197 547Q197 419 187 322.50Q177 226 155 159L155 159Q135 92 104.50 31Q74-30 29-84L29-84L23-70Q82 36 110.50 165Q139 294 144 455L144 455L144 608Q144 646 143 689Q142 732 138 783ZM490 721L197 721L197 575L490 575L490 721ZM868 701L720 701Q720 493 711 336L711 336Q703 255 688.50 189.50Q674 124 651 70L651 70Q624 16 595-27Q566-70 532-104L532-104L522-91Q595 13 625 142L625 142Q639 207 648.50 274Q658 341 660 415L660 415Q660 486 662 556.50Q664 627 664 701L664 701Q654 697 641 696Q628 695 611 691L611 691L576 728L868 728L895 767L953 721L923 691Q923 437 918.50 281Q914 125 907 64L907 64Q898-53 806-100L806-100Q802-46 711-19L711-19L711-3Q742-7 765.50-8.50Q789-10 806-10L806-10Q843-10 858 122L858 122Q863 189 865.50 331.50Q868 474 868 701L868 701ZM256 398L224 434L437 434L480 474L549 405L332 405Q306 405 289 402.50Q272 400 256 398L256 398ZM359-100L359 260L286 260Q263 260 245 258Q227 256 210 254L210 254L173 286L493 286L536 336L601 260L411 260L411-70L359-100ZM158-30L151-22Q189 35 215 93.50Q241 152 259 214L259 214L335 171L306 152Q265 91 229 46Q193 1 158-30L158-30ZM516 57L516 57Q500 109 448 195L448 195L454 201Q491 173 517 152.50Q543 132 555 112L555 112Q582 76 555 34L555 34Q534-10 516 57Z"/></svg>