<svg id="U203AD" viewBox="0 0 1024 1024"><path transform="translate(0, 921.6) scale(1,-1)" d="M235-84L174-109Q177-58 177.50-3.50Q178 51 178 108L178 108L178 490Q138 436 102.50 393.50Q67 351 33 319L33 319L23 331Q50 368 70.50 398Q91 428 111 461Q131 494 152.50 534Q174 574 202 631L202 631Q257 751 278 820L278 820L343 773Q332 768 323.50 751.50Q315 735 300 711L300 711Q286 688 264.50 647Q243 606 214 546L214 546L253 520L227 496L227 51Q227 18 227.50-16.50Q228-51 235-84L235-84ZM571 628L571 481L611 509L643 477Q648 491 657 523.50Q666 556 676 608L676 608Q689 663 698 712.50Q707 762 715 813L715 813L795 780Q782 771 771 747Q760 723 748 691L748 691Q737 656 727.50 624.50Q718 593 709 563L709 563L858 563L898 603L956 536L887 536Q857 289 788 141L788 141Q822 71 865 25.50Q908-20 960-44L960-44L956-53Q910-49 880-84L880-84Q844-44 814.50-0.50Q785 43 762 90L762 90Q720 32 674-16Q628-64 574-102L574-102L568-89Q618-40 660 16.50Q702 73 736 141L736 141Q712 231 701 325.50Q690 420 690 520L690 520Q664 465 650 431Q636 397 626 384L626 384L614 384L640 453L376 453Q353 453 335.50 449.50Q318 446 300 443L300 443L263 481L396 481L396 628L382 628L336 625L303 658L396 658Q396 692 394.50 727.50Q393 763 389 804L389 804L471 770L446 747L446 658L522 658Q522 710 519.50 748.50Q517 787 517 810L517 810L600 773L571 750L571 658L583 658L614 688L666 628L571 628ZM831 536L705 536Q712 421 727 338.50Q742 256 765 202L765 202Q789 281 807 363Q825 445 831 536L831 536ZM522 628L446 628L446 481L522 481L522 628ZM640 374L614 344L614 41Q614-2 603-21L603-21Q590-47 544-66L544-66Q525-19 461-2L461-2L461 15Q493 11 514 9.50Q535 8 544 8L544 8Q558 16 565 34L565 34L565 130L396 130L396-74L339-99Q342-57 342.50 9.50Q343 76 343 173L343 173Q343 270 342.50 326.50Q342 383 339 404L339 404L389 381L560 381L583 417L640 374ZM565 355L396 355L396 266L565 266L565 355ZM565 239L396 239L396 156L565 156L565 239Z"/></svg>