<svg id="U20414" viewBox="0 0 1000 1000"><path transform="translate(0, 900) scale(1,-1)" d="M372 386C349 340 311 287 267 257L315 215C365 252 401 311 426 361ZM486 360C500 327 513 283 518 255L572 275C567 301 554 344 539 376ZM634 360C656 327 679 284 689 256L740 281C730 307 706 350 684 380ZM234 835C186 680 108 525 21 424C33 406 53 368 59 350C91 388 122 432 151 481L151-80L221-80L221 612C252 677 280 747 302 816ZM443 78L765 78L765 131L443 131L443 196L797 196L797 9L443 9ZM378 251L378-79L443-79L443-46L797-46L797-79L864-79L864 251ZM421 502L588 502L588 437L421 437ZM651 502L815 502L815 437L651 437ZM421 613L588 613L588 549L421 549ZM651 613L815 613L815 549L651 549ZM787 364C829 322 880 264 903 226L956 261C932 296 885 349 844 388L885 388L885 663L694 663C716 690 738 721 755 750L711 780L698 777L517 777L548 827L477 840C440 768 371 681 273 616C289 607 311 587 322 572L355 597L355 388L827 388ZM427 663C445 683 463 703 478 723L661 723C648 702 633 680 619 663Z"/></svg>