<svg id="U207C2" viewBox="0 0 1024 1024"><path transform="translate(0, 921.6) scale(1,-1)" d="M51 289L51 289L109 308L109 341L510 341L510 299L570 322Q567 346 567 379L567 379Q567 413 567 457L567 457L567 580L593 612L535 658L506 616L393 616Q415 646 432.50 677.50Q450 709 468 741L468 741L497 761L423 803Q416 774 401.50 727.50Q387 681 364 616L364 616L99 616L51 647Q53 606 53.50 563Q54 520 54 473L54 473Q54 424 53.50 381Q53 338 51 289ZM109 367L109 586L287 586L287 367L109 367ZM336 367L336 586L510 586L510 367L336 367ZM503 47L503 218L532 244L468 289L445 248L174 248L109 280Q112 233 112.50 186.50Q113 140 113 89L113 89Q113 43 112.50-2Q112-47 109-90L109-90L171-67L171-36L448-36L448-90L506-67Q503-30 503-2L503-2Q503 26 503 47L503 47ZM154 799L154 799L145 793Q164 753 177 721.50Q190 690 193 664L193 664Q204 610 235 647L235 647Q265 677 245 716L245 716Q235 732 212 752Q189 772 154 799ZM171 122L171 221L448 221L448 122L171 122ZM171-11L171 95L448 95L448-11L171-11ZM151 548L151 548L145 541Q181 481 193 428L193 428Q203 379 228 415L228 415Q250 449 232 483L232 483Q221 500 200.50 515.50Q180 531 151 548ZM493 512L435 557Q402 466 358 403L358 403L367 396Q386 410 403 426.50Q420 443 435 461L435 461Q452 477 466.50 491Q481 505 493 512L493 512ZM703 374L703 625L726 654L642 677Q644 645 646 614Q648 583 648 554L648 554L648 335Q648 280 646 229Q644 178 642 122L642 122L706 144Q703 202 703 259L703 259Q703 317 703 374L703 374ZM816 596L816 2Q816-31 674-4L674-4L674-19Q780-49 780-100L780-100Q871-85 871-22L871-22L871 734L903 761L813 793Q813 741 814.50 693Q816 645 816 596L816 596Z"/></svg>