<svg id="U20344" viewBox="0 0 1024 1024"><path transform="translate(0, 921.6) scale(1,-1)" d="M162-95L162-95L215-70L215 481L236 502L202 534Q256 626 287 675L287 675Q301 698 314 710Q327 722 333 728L333 728L258 788Q251 747 234.50 702Q218 657 192 606L192 606Q166 556 147 515.50Q128 475 111 446L111 446Q91 417 71.50 388Q52 359 32 330L32 330L40 321Q89 374 167 478L167 478L165 111Q165 58 165 8L165 8Q165-41 162-95ZM403 716L337 751Q341 698 343 648.50Q345 599 343 553L343 553L317 537L368 499L393 522L496 522L496 390L390 390L327 425Q329 396 329.50 368.50Q330 341 330 315L330 315L330 211L305 193L352 152L390 181L490 181L490-24L264-24L296-60Q311-57 331-55Q351-53 371-50L371-50L916-50L857 23L800-24L709-24L709 181L800 181L800 143L860 161Q857 184 857 209L857 209Q857 234 857 257L857 257L857 361L884 379L837 431L800 390L709 390L709 522L813 522L813 486L869 509Q866 529 866 551L866 551Q866 573 866 599L866 599L866 687L895 700L847 756L807 716L709 716L656 751Q656 704 657.50 661.50Q659 619 659 577L659 577L659 409L637 387L681 346L709 364L807 364L807 208L709 208L656 234Q656 199 657.50 168Q659 137 659 108L659 108L659-24L540-24L540 170L569 189L524 242L488 208L383 208L383 364L496 364L496 330L546 361Q543 399 543 440L543 440Q543 481 543 522L543 522L543 687L575 700L524 756L490 716L403 716ZM813 690L813 546L709 546L709 690L813 690ZM393 690L496 690L496 546L393 546L393 690Z"/></svg>