<svg id="U2008A" viewBox="0 0 1000 1000"><svg id="U2008Ahk" viewBox="0 0 1000 1000"><path transform="translate(0, 900) scale(1,-1)" d="M448 841C371 656 237 497 77 400C96 386 130 358 143 343C234 404 318 486 391 583L792 583C687 262 428 66 144-10C161-26 181-59 191-80C509 16 788 236 892 636L837 660L823 656L441 656C473 707 502 761 527 818Z"/><animate attributeName="opacity" values="1;0;0;1;1" dur="2s" repeatCount="indefinite"/></svg><svg id="U2008Ajp" viewBox="0 0 1000 1000"><path transform="translate(0, 900) scale(1,-1)" d="M409 790C338 570 224 358 85 226C107 214 145 188 161 173C249 267 330 393 398 535L741 535C681 333 568 124 454 3C477-7 512-31 527-46C649 92 776 338 840 590L787 615L772 611L432 611C455 663 475 716 494 770Z"/><animate attributeName="opacity" values="0;1;1;0;0" dur="2s" repeatCount="indefinite"/></svg></svg>