<svg id="U209B9" viewBox="0 0 1024 1024"><path transform="translate(0, 921.6) scale(1,-1)" d="M147 546L147 546L161 555Q193 538 213 524Q233 510 245 500L245 500Q269 480 266 454L266 454Q259 430 241 419L241 419Q226 400 212 429L212 429Q210 443 205 458Q200 473 190 487Q180 501 170 515.50Q160 530 147 546ZM239 298L239 67Q284 32 339.50 12Q395-8 464-12L464-12Q529-15 593.50-16.50Q658-18 715-16L715-16Q773-13 831-10Q889-7 948 1L948 1L948-12Q864-33 864-75L864-75Q727-75 635-73Q543-71 492-68L492-68Q383-57 332-34L332-34Q306-17 276.50 4Q247 25 212 51L212 51Q178 17 145-27L145-27Q131-38 122.50-53Q114-68 106-82L106-82L50-34Q76-17 107 7.50Q138 32 180 67L180 67L180 300L151 300Q130 300 111.50 298.50Q93 297 75 292L75 292L40 328L176 328L206 366L270 325L239 298ZM662 308L662 308L669 286Q698 274 727 261Q756 248 785 240L785 240Q811 226 831.50 214.50Q852 203 867 192L867 192Q889 176 889 146L889 146Q889 117 870 106L870 106Q850 99 841 122L841 122Q827 139 815 152Q803 165 789 178L789 178Q775 195 744 215.50Q713 236 671 263L671 263Q689 149 671 87L671 87Q654 29 583 8L583 8Q567 36 551 47L551 47Q543 57 526.50 64Q510 71 485 84L485 84L485 99Q524 88 552 86Q580 84 600 87L600 87Q634 97 622 227L622 227Q590 204 557.50 184Q525 164 489 146L489 146Q454 128 408.50 108Q363 88 304 71L304 71L301 87Q351 110 394.50 134Q438 158 480 188L480 188Q524 214 553 240.50Q582 267 606 292L606 292L587 328Q480 240 323 197L323 197L320 207Q355 224 390 243.50Q425 263 460 289L460 289Q489 310 513.50 330.50Q538 351 561 370L561 370L531 405Q494 379 445.50 355.50Q397 332 332 308L332 308L326 325Q367 345 398.50 362Q430 379 451 399L451 399Q472 416 492.50 433.50Q513 451 538 468L538 468L427 468Q407 468 387 466.50Q367 465 350 460L350 460L317 494L759 494L805 540L870 468L626 468Q576 437 558 422L558 422Q574 407 586 395Q598 383 609 370L609 370Q618 358 627.50 347Q637 336 649 325L649 325Q666 336 683.50 348Q701 360 724 380L724 380Q741 394 758 409Q775 424 792 442L792 442L851 387Q806 375 763 354L763 354Q738 344 713 333Q688 322 662 308ZM453 813L453 813L548 787L518 760L518 683L772 683L831 729L903 653L518 653L518 577Q518 546 521 530L521 530L453 511Q458 537 459 572Q460 607 460 653L460 653L203 653Q182 653 161.50 651Q141 649 124 647L124 647L86 683L460 683Q460 715 459 746.50Q458 778 453 813Z"/></svg>