<svg id="U20E34" viewBox="0 0 1024 1024"><path transform="translate(0, 921.6) scale(1,-1)" d="M217 147L217 622L105 622L105 147L217 147ZM105 31L48 5Q51 34 51.50 64Q52 94 52 127L52 127L52 507Q52 553 51.50 598Q51 643 48 688L48 688L108 652L210 652L233 691L293 648L270 615L270 203L270 132Q270 99 273 68L273 68L217 38L217 120L105 120L105 31ZM722 183L722 183Q751 234 772.50 303.50Q794 373 814 464L814 464L890 414L857 378Q834 301 805 236Q776 171 741 117L741 117Q800 22 877-18L877-18L910 127L926 124Q921 91 920.50 61.50Q920 32 920 8L920 8Q920-38 936-103L936-103Q870-88 814.50-44.50Q759-1 705 71L705 71Q635-5 487-73L487-73L477-60Q620 29 682 127L682 127Q636 286 636 576L636 576L411 576Q371 576 336 569L336 569L299 605L636 605Q636 644 634 697.50Q632 751 632 817L632 817L715 777L685 751L685 602L824 605L870 648L936 576L685 576Q685 455 694.50 358.50Q704 262 722 183ZM745 794L758 800Q790 780 816 764.50Q842 749 860 734L860 734Q891 703 867 658L867 658Q838 618 824 668L824 668Q816 690 795 721Q774 752 745 794L745 794ZM355 457L319 493L517 493L557 533L606 467L491 467L491 292L550 292L590 332L642 266L411 266Q370 266 336 256L336 256L299 292L438 292L438 467Q384 467 355 457L355 457ZM596 150L596 150Q627 118 616 68L616 68Q597 26 573 81L573 81Q558 113 536 146.50Q514 180 487 219L487 219L497 229Q529 207 555 186Q581 165 596 150ZM388 219L388 219L458 170L428 150Q374 46 289-30L289-30L276-21Q364 110 388 219Z"/></svg>