<svg id="U204D4" viewBox="0 0 1024 1024"><path transform="translate(0, 921.6) scale(1,-1)" d="M408 155L420 158Q420 120 421.50 92Q423 64 428 48L428 48Q432 10 462 0L462 0Q434-53 366-53L366-53L312-53Q266-53 266 7L266 7L266 332L222 332Q217 232 204.50 164Q192 96 166 52L166 52Q119-30 44-95L44-95L34-86Q108 0 134 85L134 85Q152 128 160.50 189.50Q169 251 169 332L169 332L128 332L128 310L73 283Q75 328 75.50 383Q76 438 76 513L76 513Q76 585 75.50 642.50Q75 700 73 747L73 747L124 725Q149 748 167 768Q185 788 192 809L192 809L240 760Q227 757 199 744Q171 731 128 705L128 705L128 551L151 551L189 590L231 525L128 525L128 361L347 361L347 525L324 525Q289 525 276 519L276 519L253 551L347 551L347 702L330 702Q297 702 272 689L272 689L247 728L347 728L372 763L411 719L392 698L392 461L392 391Q392 358 395 325L395 325L347 291L347 332L312 332L312 29Q304-12 340-12L340-12L379-12Q390-6 401 33L401 33Q403 56 405.50 85.50Q408 115 408 155L408 155ZM420 698L579 698Q579 730 576 756.50Q573 783 573 809L573 809L653 779L626 756L626 698L723 698Q723 726 721.50 751Q720 776 720 806L720 806L797 776L769 750L769 698L845 698L884 735L943 666L769 666Q769 639 772 621L772 621L723 606L723 666L626 666L626 627L573 606Q573 621 576 636.50Q579 652 579 666L579 666L527 666Q507 666 489.50 664Q472 662 453 660L453 660L420 698ZM539 419L539 409L488 393Q488 422 489.50 449Q491 476 491 507L491 507Q491 532 489.50 560.50Q488 589 488 618L488 618L546 590L811 590L839 621L887 571L862 551L862 477Q862 443 865 419L865 419L817 399L817 419L539 419ZM601 560L539 560L539 448L601 448L601 560ZM423 288L423 288Q459 322 468 393L468 393L485 393L485 361L862 361L887 399L949 339Q899 327 856 258L856 258L842 261L869 332L632 332L678 310Q634 298 617 246L617 246L804 246L826 273L887 223Q875 212 865 199.50Q855 187 845 174L845 174Q838 161 821 138.50Q804 116 782 88L782 88Q757 55 726 27Q695-1 659-28L659-28Q616-54 564-72Q512-90 444-105L444-105L444-89Q576-48 659 26L659 26Q703 63 738 110.50Q773 158 804 220L804 220L604 220L598 206Q630 181 650 161Q670 141 678 126L678 126Q692 100 668 67L668 67Q648 35 632 85L632 85Q629 106 617 132.50Q605 159 588 190L588 190Q556 150 527 119Q498 88 468 70L468 70L462 85Q507 135 539.50 197.50Q572 260 598 332L598 332L485 332Q485 268 465 252L465 252Q441 225 420 242L420 242Q392 255 423 288ZM644 448L707 448L707 560L644 560L644 448ZM752 448L817 448L817 560L752 560L752 448Z"/></svg>