<svg id="U202A1" viewBox="0 0 1024 1024"><path transform="translate(0, 921.6) scale(1,-1)" d="M225-63L166-92Q171-38 172 13Q173 64 173 121L173 121L173 500Q131 446 93.50 406.50Q56 367 24 337L24 337L18 347Q44 376 64 406.50Q84 437 102 467L102 467Q123 499 147 541Q171 583 199 635L199 635Q225 683 246.50 729.50Q268 776 283 821L283 821L355 769Q339 762 302 707L302 707Q288 677 265.50 640.50Q243 604 211 559L211 559L257 526L225 500L225-63ZM419 791L425 801Q532 741 536 707L536 707Q541 670 517 653L517 653Q488 629 481 671L481 671Q477 714 419 791L419 791ZM800 766L764 749Q738 716 712.50 686Q687 656 662 630L662 630L776 630L825 682L887 603L604 603Q598 544 598 478L598 478L741 478L792 523L858 449L595 449Q587 404 582 374.50Q577 345 575 328L575 328L805 328L861 380L925 302L571 302Q549 236 521 179.50Q493 123 458 78L458 78Q425 34 370-8Q315-50 238-95L238-95L232-80Q288-35 333 4.50Q378 44 413 91L413 91Q445 136 469.50 187.50Q494 239 517 302L517 302L388 302Q343 302 316 292L316 292L280 328L520 328Q525 357 531 386.50Q537 416 539 449L539 449L465 449Q445 449 427.50 446.50Q410 444 394 442L394 442L358 478L542 478Q544 511 548.50 542.50Q553 574 553 603L553 603L455 603Q428 603 407.50 601.50Q387 600 367 598L367 598L335 630L644 630Q673 687 693 733.50Q713 780 721 818L721 818L800 766ZM621 16L621 16L621 309L676 309L676 24Q676-19 728-19L728-19L792-19Q822-19 831 7L831 7Q834 18 838 55.50Q842 93 844 159L844 159L863 159L863 84Q863 52 866 37L866 37Q871 15 884 2Q897-11 915-16L915-16Q880-67 825-67L825-67L683-63Q615-63 621 16Z"/></svg>