<svg id="U20AD6" viewBox="0 0 1024 1024"><path transform="translate(0, 921.6) scale(1,-1)" d="M430 73L430 73Q299 62 224.50 56Q150 50 123 50L123 50Q166 132 214 268L214 268Q242 341 273.50 441Q305 541 341 677L341 677L374 710L284 753Q279 697 258.50 612.50Q238 528 205 413L205 413Q172 296 149 223.50Q126 151 114 122L114 122Q86 52 61 44L61 44L101-37Q126-12 434 50L434 50Q439 22 441.50 2.50Q444-17 447-34L447-34Q457-62 486-30L486-30Q514 13 498 67L498 67Q487 98 460.50 143.50Q434 189 395 253L395 253L377 247Q398 190 410 146Q422 102 430 73ZM554 598L554 598L554 11Q554-92 645-92L645-92L845-92Q928-92 962-30L962-30Q926-11 916 34L916 34Q910 58 909 87.50Q908 117 908 155L908 155L887 155Q884 112 882 76.50Q880 41 877 13L877 13Q862-37 845-37L845-37L675-37Q617-37 617 13L617 13L617 732L642 765L550 795Q550 745 552 697.50Q554 650 554 598Z"/></svg>