<svg id="U20F18" viewBox="0 0 1024 1024"><path transform="translate(0, 921.6) scale(1,-1)" d="M207 173L207 648L102 648L102 173L207 173ZM102 58L46 32Q48 61 48.50 91Q49 121 49 154L49 154L49 532Q49 580 48.50 624Q48 668 46 713L46 713L105 677L204 677L230 717L289 661L260 628L260 216L260 148Q260 116 263 85L263 85L207 52L207 147L102 147L102 58ZM266 213L451 213L484 318Q456 318 429 317Q402 316 375 312L375 312L342 348L490 348L513 434L441 434Q386 434 352 424L352 424L319 460L737 460L790 503L862 434L572 434L546 348L730 348L753 381L809 341L786 312L777 213L819 213L869 256L938 187L391 187Q366 187 344.50 182.50Q323 178 306 173L306 173L266 213ZM734 318L536 318L507 213L727 213L734 318ZM747 91L447 91L447-30L747-30L747 91ZM833 108L806 85L806 9L806-35Q806-55 809-73L809-73L747-92L747-56L447-56L447-86L388-109Q388-76 389.50-45Q391-14 391 15L391 15Q391 47 389.50 77.50Q388 108 388 141L388 141L444 118L740 118L770 157L833 108ZM717 648L563 648L543 559L717 559L717 648ZM365 727L326 763L757 763L800 799L862 737L576 737L566 677L711 677L737 707L800 661L770 641L770 559L809 559L856 598L915 532L408 532Q383 532 364 528.50Q345 525 326 522L326 522L286 559L487 559L507 648L484 648Q459 648 438.50 645.50Q418 643 401 641L401 641L362 677L510 677L523 737L447 737Q422 731 402 730Q382 729 365 727L365 727Z"/></svg>