<svg id="U20251" viewBox="0 0 1024 1024"><path transform="translate(0, 921.6) scale(1,-1)" d="M792 297L762 268L731 198L813 198L842 236L897 189L871 162Q849 82 835 35Q821-12 813-31L813-31Q799-45 789-58.50Q779-72 770-80L770-80Q752-94 708-106L708-106Q693-51 611-22L611-22L615-7Q656-17 681-19.50Q706-22 722-22L722-22Q752-22 770 16L770 16Q775 33 786 72Q797 111 813 168L813 168L722 168L699 143L654 185L676 205L708 282L549 282Q536 8 290-96L290-96L282-80Q484 43 495 282L495 282Q469 282 450 280.50Q431 279 413 275L413 275L381 308L712 308L738 343L792 297ZM250-77L191-102Q193-51 193.50 1.50Q194 54 194 108L194 108L194 486Q149 430 113 390Q77 350 48 324L48 324L39 337Q65 364 85.50 395.50Q106 427 129 456L129 456Q147 485 168.50 525Q190 565 216 619L216 619Q245 667 265.50 715Q286 763 301 813L301 813L372 768Q362 760 349.50 738.50Q337 717 318 686L318 686Q301 657 279.50 621.50Q258 586 232 544L232 544L278 518L250 493L250-77ZM617 538L627 547Q705 515 755.50 493Q806 471 832 453L832 453Q852 435 865.50 420.50Q879 406 887 395L887 395Q891 364 880 347L880 347Q870 327 816 387L816 387Q789 413 740.50 451Q692 489 617 538L617 538ZM835 628L900 556L647 556L631 556L631 419Q631 395 631.50 375Q632 355 634 341L634 341L572 317Q572 365 574.50 419.50Q577 474 577 534L577 534Q524 459 450.50 401.50Q377 344 278 305L278 305L273 317Q424 408 528 556L528 556L430 556Q409 556 390.50 554Q372 552 357 547L357 547L320 583L577 583L577 699Q518 688 381 683L381 683L381 699Q525 717 631 744L631 744Q682 756 717.50 770Q753 784 774 797L774 797L822 732Q790 727 742 721.50Q694 716 631 705L631 705L631 583L790 583L835 628Z"/></svg>