<svg id="U20415" viewBox="0 0 1024 1024"><path transform="translate(0, 921.6) scale(1,-1)" d="M147-110L147-110L202-84L202 486L228 508L186 544Q204 592 219 627Q234 662 244 686L244 686Q256 724 286 748L286 748L215 802Q203 720 166 625L166 625Q146 568 127.50 524.50Q109 481 95 450L95 450Q80 417 61.50 382Q43 347 20 311L20 311L27 297Q55 331 86.50 373Q118 415 150 469L150 469L150 103Q150 64 149.50 12Q149-40 147-110ZM441 363L441 363L494 391Q490 415 490 459L490 459Q490 503 490 563L490 563L490 570L671 570L619 635L580 596L506 596Q535 625 560.50 648.50Q586 672 606 690L606 690L632 703L580 755Q567 723 545 683.50Q523 644 490 596L490 596L490 745L522 768L441 796Q441 751 442.50 702.50Q444 654 444 596L444 596L263 596L296 563Q314 565 332.50 567.50Q351 570 371 570L371 570L444 570Q447 528 445 477Q443 426 441 363ZM332 297L367 357L399 369L328 411Q313 354 283.50 286.50Q254 219 208 139L208 139L224 133L272 191Q300 159 306 123L306 123Q314 76 332 110L332 110Q352 134 341 158L341 158Q336 168 320.50 179Q305 190 282 204L282 204Q290 221 301 237.50Q312 254 324 272L324 272L389 272Q367 166 319 81.50Q271-3 202-71L202-71L208-84Q294-31 353 68L353 68Q387 116 406 165.50Q425 215 434 269L434 269L461 285L416 330L386 297L332 297ZM548-99L548-99L603-71Q600-38 600 5L600 5Q600 49 600 103L600 103L688 103L645 165L613 129L600 129L600 272L684 272L642 330L610 297L600 297L600 363L626 378L548 411Q548 381 549.50 353.50Q551 326 551 297L551 297L503 297L461 318L464 272L532 272L551 272L551 129L506 129L506 285L464 285L464 129L441 123L480 84L509 103L551 103Q551 49 549.50 0.50Q548-48 548-99ZM314 748L314 748L308 738Q328 712 341.50 688Q355 664 363 644L363 644Q374 599 392 628L392 628Q414 661 399 682L399 682Q391 698 370.50 711.50Q350 725 314 748ZM688-99L743-68L743 677L862 677L791 453Q859 388 866 333L866 333Q868 306 868.50 281Q869 256 869 227L869 227Q864 168 827 168L827 168Q809 171 788 172Q767 173 749 178L749 178L749 165Q813 140 813 94L813 94Q864 99 891 146L891 146Q924 186 924 249L924 249Q924 307 901 366L901 366Q887 394 867.50 416Q848 438 823 456L823 456L912 670L943 682L891 738L862 706L738 706L688 738Q688 684 689.50 634.50Q691 585 691 537L691 537L691 113Q691 56 690.50 5Q690-46 688-99L688-99ZM642 489L642 489Q624 501 587.50 516.50Q551 532 494 550L494 550L490 544Q549 500 582 472Q615 444 623 433L623 433Q646 401 655 433L655 433Q673 461 642 489ZM452 576L413 576Q390 534 347 490Q304 446 244 399L244 399L250 388Q310 416 360 455Q410 494 452 544L452 544L452 576Z"/></svg>