<svg id="U2092E" viewBox="0 0 1024 1024"><path transform="translate(0, 921.6) scale(1,-1)" d="M148-77L81-27L112-6L112 646Q112 666 111.50 697.50Q111 729 109 778L109 778L169 749L747 749L805 805L876 723L169 723L169-16L785-16L844 48L923-42L169-42L148-77ZM477 704L477 704L556 652L518 629Q575 565 625.50 526Q676 487 719 466L719 466Q813 427 858 422L858 422L861 413Q795 413 773 359L773 359Q615 428 505 614L505 614Q372 427 192 356L192 356L189 369Q295 439 376 535L376 535Q453 625 477 704ZM581 454L638 388L467 388Q447 385 430 382.50Q413 380 399 378L399 378L364 416L537 416L581 454ZM484 7L467 16Q503 59 547 120.50Q591 182 640 267L640 267L371 267Q349 264 331 262Q313 260 291 258L291 258L254 297L650 297L678 331L741 271Q724 263 704 243Q684 223 656 190L656 190Q628 159 584.50 112Q541 65 484 7L484 7Z"/></svg>