<svg id="U20DB" viewBox="0 0 1000 1000"><path transform="translate(500, 900) scale(1,-1)" d="M191 625L191 625Q169 625 154 638.50Q139 652 139 681L139 681Q139 710 154 723.50Q169 737 191 737L191 737Q211 737 226.50 723.50Q242 710 242 681L242 681Q242 652 226.50 638.50Q211 625 191 625ZM-191 625L-191 625Q-213 625-228 638.50Q-243 652-243 681L-243 681Q-243 710-228 723.50Q-213 737-191 737L-191 737Q-171 737-155.50 723.50Q-140 710-140 681L-140 681Q-140 652-155.50 638.50Q-171 625-191 625ZM0 625L0 625Q-22 625-37 638.50Q-52 652-52 681L-52 681Q-52 710-37 723.50Q-22 737 0 737L0 737Q20 737 35.50 723.50Q51 710 51 681L51 681Q51 652 35.50 638.50Q20 625 0 625Z"/></svg>