<svg id="U20334" viewBox="0 0 1024 1024"><path transform="translate(0, 921.6) scale(1,-1)" d="M227-85L171-109Q173-60 173.50-8Q174 44 174 98L174 98L174 473Q136 422 98.50 381.50Q61 341 29 312L29 312L23 326Q46 354 67.50 384Q89 414 106 443L106 443Q126 472 150 513Q174 554 203 608L203 608Q232 661 251.50 706.50Q271 752 287 793L287 793L353 729Q339 729 305 679L305 679Q288 653 265 615.50Q242 578 213 530L213 530L260 503L227 479L227-85ZM629 755L591 729L587 655L778 655L825 697L889 627L587 627Q584 607 582 586Q580 565 577 547L577 547L726 547L778 589L837 521L571 521Q566 496 557.50 477Q549 458 542 440L542 440L816 440L863 482L924 412L668 412Q678 397 705 375.50Q732 354 778 326L778 326Q851 273 934 267L934 267L934 252Q867 242 867 207L867 207Q727 273 642 412L642 412L536 412Q438 257 245 181L245 181L235 190Q320 243 380.50 296.50Q441 350 479 412L479 412L386 412Q365 412 346.50 409.50Q328 407 311 405L311 405L280 440L488 440Q496 461 502.50 480Q509 499 518 521L518 521L460 521Q419 521 386 512L386 512L351 547L524 547Q526 564 528 584Q530 604 533 627L533 627L411 627Q394 627 376.50 625.50Q359 624 341 619L341 619L305 655L536 655Q536 691 534 725Q532 759 530 793L530 793L629 755ZM418-88L359-114Q362-74 362.50-29.50Q363 15 363 69L363 69Q363 125 362.50 167.50Q362 210 359 245L359 245L418 222Q502 285 521 322L521 322L577 261Q528 261 418 203L418 203L418 108L468 108L510 143L566 81L418 81L418-27L753-27L753 81L718 81Q698 81 680.50 78Q663 75 646 72L646 72L610 108L753 108L753 203L700 203Q655 203 626 193L626 193L591 229L747 229L781 261L834 207L806 190L806 19Q806-48 809-82L809-82L753-103L753-52L418-52L418-88Z"/></svg>