<svg id="U20DB0" viewBox="0 0 1024 1024"><path transform="translate(0, 921.6) scale(1,-1)" d="M448 769L448 769L445 771Q448 771 448 769ZM372 820L445 771Q437 770 369 702L369 702L696 702L738 727L795 667Q755 658 581 577L581 577Q606 566 617 555L617 555Q628 540 627 511L627 511L833 511L865 546L923 489L891 470L891 14Q896-66 808-96L808-96Q798-47 684-33L684-33L684-20Q724-22 752.50-22.50Q781-23 798-23L798-23Q837-23 837 1L837 1L837 479L509 479L591 447L566 419L566 380L655 380L706 412L763 355L566 355L566 275L703 275L747 310L814 250L388 250Q368 250 349 246.50Q330 243 311 240L311 240L270 275L512 275L512 355L445 355Q391 355 362 345L362 345L330 380L512 380Q512 409 510.50 433.50Q509 458 509 479L509 479L254 479Q254 385 253.50 320.50Q253 256 251 218L251 218Q246 143 206 59L206 59Q185 14 151-21.50Q117-57 69-93L69-93L60-90Q135-11 168 75L168 75Q203 168 203 291L203 291Q203 351 202 411Q201 471 197 534L197 534Q173 515 145 497.50Q117 480 85 463L85 463L72 473Q115 499 158.50 538.50Q202 578 248 629L248 629Q337 732 372 820L372 820ZM554 585L554 585L690 673L349 673Q283 607 225 555L225 555Q219 551 214 546.50Q209 542 204 539L204 539L257 511L572 511Q567 512 563 517L563 517Q531 538 477.50 561Q424 584 349 613L349 613L353 626Q407 616 452 607.50Q497 599 531 590L531 590Q536 589 541.50 588Q547 587 554 585ZM426-2L365-20Q368-2 368.50 26.50Q369 55 369 94L369 94Q369 130 368.50 160.50Q368 191 365 215L365 215L432 193L658 193L696 221L747 164L716 151L716 100L716 51Q716 29 719 8L719 8L658-8L658 27L426 27L426-2ZM658 164L426 164L426 56L658 56L658 164Z"/></svg>