<svg id="U20F42" viewBox="0 0 1024 1024"><path transform="translate(0, 921.6) scale(1,-1)" d="M92 651L190 651L190 181L92 181L92 651ZM40 41L40 41L92 67L92 152L190 152L190 47L246 80Q243 111 242.50 143.50Q242 176 242 210L242 210L242 641L265 667L213 713L190 677L92 677L40 713Q42 668 42.50 623.50Q43 579 43 534L43 534L43 161Q43 129 42.50 99.50Q42 70 40 41ZM585 615L533 648Q533 594 534.50 541.50Q536 489 536 432L536 432Q536 378 534.50 325.50Q533 273 533 227L533 227L588 253L588 279L686 279L686 165L474 165L510 129Q527 131 545 135Q563 139 585 139L585 139L686 139Q686 67 684.50 9.50Q683-48 683-99L683-99L742-73Q736-43 735.50 9Q735 61 735 139L735 139L944 139L885 201L833 165L735 165L735 279L830 279L830 243L885 266Q880 293 879.50 318.50Q879 344 879 374L879 374L879 576L908 602L856 651L830 615L755 615Q769 644 783.50 668.50Q798 693 810 713L810 713Q822 734 833.50 746Q845 758 853 768L853 768L784 808Q776 765 764 717Q752 669 735 615L735 615L585 615ZM588 455L588 589L686 589L686 455L588 455ZM735 455L735 589L830 589L830 455L735 455ZM588 305L588 429L686 429L686 305L588 305ZM735 305L735 429L830 429L830 305L735 305ZM582 791L582 791L572 785Q621 707 631 664L631 664Q638 616 667 654L667 654Q697 690 667 723L667 723Q654 737 632.50 754Q611 771 582 791ZM350 475L350 475L432 475L432 436L484 465Q481 486 481 541L481 541L481 677L507 697L455 749L428 713L272 713L308 674Q337 687 402 687L402 687L432 687L432 504L353 504L308 534Q305 486 298.50 432Q292 378 285 315L285 315L265 292L311 246L334 282L422 282Q416 206 408.50 150.50Q401 95 393 60L393 60Q378-14 347-14L347-14Q315-13 265 1L265 1L262-10Q337-40 347-92L347-92Q395-73 412-37L412-37Q421-19 429 3.50Q437 26 445 51L445 51Q449 77 456 132.50Q463 188 471 269L471 269L494 295L445 344L415 308L334 308Q338 350 342.50 393Q347 436 350 475Z"/></svg>