<svg id="U206A6" viewBox="0 0 1024 1024"><path transform="translate(0, 921.6) scale(1,-1)" d="M111 721L477 721L506 766L567 721L535 686Q535 131 510 52L510 52Q492 14 468.50-11.50Q445-37 413-51L413-51Q404 0 288 30L288 30L288 49Q337 42 369 37Q401 32 416 40L416 40Q448 45 458 85L458 85Q467 104 470.50 149Q474 194 477 271L477 271Q481 343 482 448Q483 553 483 695L483 695L326 695Q321 537 310 420.50Q299 304 274 226L274 226Q231 67 52-74L52-74L43-58Q114 15 160.50 93.50Q207 172 229 258L229 258Q268 432 268 695L268 695L217 695Q198 692 180 688.50Q162 685 142 683L142 683L111 721ZM866 43L866 43Q856 83 845 129.50Q834 176 815 229L815 229L831 239Q872 164 895 113Q918 62 931 33L931 33Q952-27 921-58L921-58Q885-94 876-58L876-58Q869-23 869 14L869 14Q603-22 570-58L570-58L528 17Q568 34 590 100L590 100Q603 138 619 215Q635 292 654 410L654 410Q678 531 691 627.50Q704 724 706 799L706 799L802 763L767 734Q737 573 713 456Q689 339 674 261L674 261Q653 178 636 118Q619 58 602 20L602 20Q636 23 701 28Q766 33 866 43Z"/></svg>