<svg id="U20BB" viewBox="0 0 781 1000"><path transform="translate(0, 900) scale(1,-1)" d="M235 153L166 94L129 141L218 216Q207 273 207 346L207 346L207 456L189 456Q111 456 62.50 488.50Q14 521 14 597L14 597Q14 653 50.50 687Q87 721 143 721L143 721Q205 721 243 677.50Q281 634 282 530L282 530L546 530Q625 530 672 503.50Q719 477 740 434.50Q761 392 761 343L761 343Q761 281 736.50 241.50Q712 202 664 202L664 202Q630 202 605 219.50Q580 237 558 260L558 260L541 278L456 198L382 280L296 206Q314 131 359.50 99.50Q405 68 481 68L481 68Q513 68 544 72.50Q575 77 612 88L612 88L612 10Q555-9 485-9L485-9Q385-9 324 32.50Q263 74 235 153L235 153ZM207 530L207 561Q207 610 188 637.50Q169 665 140 665L140 665Q115 665 98 650Q81 635 81 606L81 606Q81 571 99.50 550.50Q118 530 161 530L161 530L207 530ZM541 360L588 309Q605 290 621.50 274.50Q638 259 658 259L658 259Q684 259 692.50 283.50Q701 308 701 344L701 344Q700 392 667.50 424Q635 456 557 456L557 456L282 456L282 344Q282 306 285 274L285 274L391 364L461 285L541 360Z"/></svg>