<svg id="U20E12" viewBox="0 0 1024 1024"><path transform="translate(0, 921.6) scale(1,-1)" d="M225 202L225 683L114 683L114 202L225 202ZM114 88L56 55Q58 85 58.50 116.50Q59 148 59 182L59 182L59 563Q59 608 58.50 652Q58 696 56 738L56 738L114 709L222 709L251 748L303 696L277 670L277 231L277 182Q277 155 280 124L280 124L225 88L225 172L114 172L114 88ZM397 72L397 494Q369 424 293 329L293 329L280 335Q311 395 338.50 462Q366 529 391 598L391 598Q428 738 439 813L439 813L514 771L485 745Q470 691 453.50 641.50Q437 592 420 546L420 546L472 517L446 491L446-77L394-106Q396-67 396.50-23Q397 21 397 72L397 72ZM599 462L543 436Q543 487 545 533.50Q547 580 547 628L547 628Q547 671 545 708Q543 745 543 777L543 777L602 745L787 745L816 784L875 732L842 706Q842 618 842.50 557Q843 496 846 465L846 465L794 436L794 485L599 485L599 462ZM794 715L599 715L599 511L794 511L794 715ZM947 16L947 7Q900 2 878-28L878-28Q761 95 732 312L732 312L722 312L722 49L722-17Q722-49 725-83L725-83L667-109Q667-52 670-10.50Q673 31 673 55L673 55L673 273Q600 86 465-31L465-31L459-19Q516 56 555.50 137Q595 218 625 312L625 312L602 312Q545 312 511 303L511 303L475 342L673 342Q673 375 670 412Q667 449 667 491L667 491L745 462L722 436L722 342L823 342L872 384L933 312L751 312Q803 99 947 16L947 16Z"/></svg>