<svg id="U208F7" viewBox="0 0 1024 1024"><path transform="translate(0, 921.6) scale(1,-1)" d="M521 462L495 433Q489 230 485.50 123Q482 16 475-6L475-6Q466-38 433-60L433-60Q418-70 400.50-80.50Q383-91 358-99L358-99Q349-36 258-18L258-18L264-6Q314-12 347-12.50Q380-13 397-11L397-11Q431-4 436 88L436 88Q438 135 439 221.50Q440 308 447 442L447 442L179 442Q116 322 40 264L40 264L34 273Q80 335 112 407Q144 479 167 562L167 562L245 514L209 501L189 468L439 468L472 507L521 462ZM248 562L193 547L193 631L154 631Q113 631 79 621L79 621L40 660L193 660Q193 687 192.50 724.50Q192 762 189 806L189 806L274 767L248 741L248 562ZM384 329L355 306L355 184Q355 134 358 104L358 104L309 82L309 115L193 115L193 59L144 33Q147 76 147.50 120.50Q148 165 148 212L148 212Q148 255 147.50 296.50Q147 338 144 381L144 381L193 345L306 345L336 384L384 329ZM309 318L193 318L193 143L309 143L309 318ZM530 400L518 407Q569 494 597.50 596Q626 698 638 816L638 816L713 786Q689 765 657 628L657 628L862 628L891 667L949 621L927 592Q920 450 913.50 342Q907 234 898 154L898 154Q885 73 872.50 26Q860-21 849-38L849-38Q816-78 755-99L755-99Q740-67 706.50-46.50Q673-26 622-14L622-14L628 0Q766-16 797-6L797-6Q827 14 846 154L846 154Q850 225 857 337Q864 449 871 601L871 601L651 601Q622 531 592 481.50Q562 432 530 400L530 400ZM605 426L605 426L611 439Q667 384 699 349.50Q731 315 738 290L738 290Q760 248 732 215L732 215Q700 179 690 254L690 254Q671 321 605 426ZM355 540L355 667Q355 696 353.50 729.50Q352 763 352 803L352 803L433 764L411 735L411 660L469 660L508 702L566 631L411 631L411 559L355 540Z"/></svg>