<svg id="U20961" viewBox="0 0 1024 1024"><path transform="translate(0, 921.6) scale(1,-1)" d="M137-71L79-23L103 0L103 683Q103 702 102.50 735.50Q102 769 98 811L98 811L163 783L799 783L844 824L912 755L556 755L556-10L505-10L505 755L160 755L160-10L805-10L858 38L935-36L160-36L137-71ZM221 689L221 689L280 664L402 664L428 696L480 654L453 631L453 531Q453 514 453.50 494Q454 474 460 450L460 450L402 431L402 470L280 470L280 444L221 425Q226 458 227 489.50Q228 521 228 551L228 551Q228 579 227 613Q226 647 221 689ZM402 634L280 634L280 495L402 495L402 634ZM609 689L609 689L670 664L789 664L813 696L870 660L837 628L837 534Q837 517 837.50 497Q838 477 844 453L844 453L789 431L789 470L667 470L667 444L609 429Q609 459 610.50 493.50Q612 528 612 567L612 567Q612 600 610.50 631Q609 662 609 689ZM789 634L667 634L667 495L789 495L789 634ZM221 363L221 363L280 334L402 334L428 370L480 328L453 302L453 186Q453 163 453.50 141.50Q454 120 460 96L460 96L402 73L402 114L280 114L280 86L221 66Q226 105 227 142.50Q228 180 228 212L228 212Q228 245 227 283Q226 321 221 363ZM402 308L280 308L280 143L402 143L402 308ZM609 363L609 363L670 334L779 334L808 374L866 334L837 302L837 189Q837 172 837.50 146.50Q838 121 844 93L844 93L789 69L789 114L667 114L667 89L609 69Q609 102 610.50 141Q612 180 612 225L612 225Q612 263 610.50 298.50Q609 334 609 363ZM789 308L667 308L667 143L789 143L789 308Z"/></svg>