<svg id="U20C80" viewBox="0 0 1024 1024"><path transform="translate(0, 921.6) scale(1,-1)" d="M720-6L720 137L313 137L313-6L720-6ZM291 177L320 164L723 164L737 178Q656 195 587.50 218.50Q519 242 460 274L460 274Q390 213 291 177L291 177ZM786 169L786 169L815 144L783 118L783 52L783-5Q783-33 786-60L786-60L720-80L720-35L313-35L313-74L251-96Q253-74 253.50-54Q254-34 254-14L254-14L254 104Q254 119 253.50 133Q253 147 253 163L253 163Q165 130 48 118L48 118L48 128Q111 145 162 160.50Q213 176 251 194L251 194L251 197L254 195Q257 197 262 198.50Q267 200 271 203L271 203Q354 239 411 300L411 300Q374 323 343.50 347Q313 371 287 398L287 398L260 398L260 376L199 356Q201 396 201.50 431.50Q202 467 202 500L202 500Q202 529 201.50 557Q201 585 199 607L199 607L264 588L493 588L493 682L202 682Q157 682 127 672L127 672L91 708L493 708Q493 732 491 761Q489 790 489 825L489 825L574 793L548 767L548 708L811 708L871 751L942 682L548 682L548 591L772 591L805 627L864 571L828 549Q828 489 828.50 446.50Q829 404 832 382L832 382L772 366L772 398L535 398Q527 369 515 346.50Q503 324 489 307L489 307Q535 285 589 269Q643 253 708 239L708 239Q766 226 832.50 221.50Q899 217 975 219L975 219L975 206Q899 195 887 154L887 154Q833 160 786 169ZM493 561L260 561L260 424L486 424Q488 467 490.50 500Q493 533 493 561L493 561ZM772 564L548 564Q548 527 545.50 491.50Q543 456 541 424L541 424L772 424L772 564ZM483 398L303 398Q338 373 372.50 357Q407 341 444 330L444 330Q456 339 464 356.50Q472 374 483 398L483 398Z"/></svg>