<svg id="U20E7A" viewBox="0 0 1000 1000"><path transform="translate(0, 900) scale(1,-1)" d="M73 756L73 132L132 132L132 208L283 208L283 756ZM132 688L222 688L222 276L132 276ZM548 793L548 344L703 344L703 224L551 224L551 160L703 160L703 11L505 11L505-54L959-54L959 11L769 11L769 160L931 160L931 224L769 224L769 344L935 344L935 793ZM610 540L708 540L708 406L610 406ZM764 540L870 540L870 406L764 406ZM610 731L708 731L708 599L610 599ZM764 731L870 731L870 599L764 599ZM286 135L314 69C382 100 463 139 540 177L527 240L450 205L450 496L527 496L527 563L450 563L450 824L385 824L385 563L303 563L303 496L385 496L385 176C348 160 314 146 286 135Z"/></svg>