<svg id="U20E70" viewBox="0 0 1024 1024"><path transform="translate(0, 921.6) scale(1,-1)" d="M193 182L193 700L94 700L94 182L193 182ZM94 54L38 25Q40 56 40.50 88Q41 120 41 152L41 152L41 568Q41 617 40.50 666Q40 715 38 762L38 762L94 729L193 729L223 762L275 703L242 676L242 212L242 138Q242 101 245 67L245 67L193 34L193 152L94 152L94 54ZM368 386L506 386L506 552L368 552L368 386ZM368 202L506 202L506 357L368 357L368 202ZM347 120L417 67L381 50Q331-16 292-56Q253-96 223-110L223-110L216-100Q259-50 288 1L288 1Q328 50 347 120L347 120ZM368 152L315 133Q317 192 317.50 278Q318 364 318 479L318 479Q318 594 317.50 671.50Q317 749 315 792L315 792L377 752L500 752L529 792L585 736L559 713L559 297L559 219Q559 184 562 163L562 163L506 139L506 173L368 173L368 152ZM368 577L506 577L506 722L368 722L368 577ZM440 110L440 110L450 120Q563 0 559-34L559-34Q551-53 544.50-66Q538-79 526-90L526-90Q505-100 500-51L500-51Q485 11 440 110ZM611 679L611 700Q651 712 685 724.50Q719 737 750 756L750 756Q783 773 806 789Q829 805 846 818L846 818L888 752Q870 749 845 740.50Q820 732 786 722L786 722Q748 712 705.50 700.50Q663 689 611 679L611 679ZM664 636L670 650Q718 620 746.50 597.50Q775 575 786 561L786 561Q796 524 776 496L776 496Q760 456 736 512L736 512Q719 560 664 636L664 636ZM707 34L707 34Q676 96 648 44L648 44Q632 16 620-6.50Q608-29 602-54L602-54L552-2Q606 71 674 103L674 103L803 420L680 420Q664 418 646 415Q628 412 608 410L608 410L572 450L809 450L839 488L892 426L855 400Q803 294 765.50 220Q728 146 707 93L707 93Q743 32 790 7L790 7Q836-20 944-15L944-15L944-28Q899-37 888-80L888-80Q825-80 782-54L782-54Q732-24 707 34Z"/></svg>