<svg id="U209CE" viewBox="0 0 1024 1024"><path transform="translate(0, 921.6) scale(1,-1)" d="M225 720L225 720L234 726Q206 725 179.50 724.50Q153 724 125 724L125 724L125 744Q180 746 231.50 749Q283 752 338 759L338 759Q388 762 453.50 767.50Q519 773 598 785L598 785Q677 794 730.50 802Q784 810 814 820L814 820L848 756L811 763Q721 754 636 747.50Q551 741 464 735L464 735Q488 723 502.50 712.50Q517 702 524 699L524 699Q540 682 537 666L537 666Q537 646 518 637L518 637Q502 627 492 660L492 660Q488 673 479.50 689.50Q471 706 456 727L456 727L462 735Q352 729 237 726L237 726Q283 704 299 689L299 689Q319 673 312 657L312 657Q302 629 292 627L292 627Q274 620 267 646L267 646Q263 667 225 720ZM800 717L775 701Q760 689 747.50 680.50Q735 672 720 660L720 660Q708 647 694.50 637Q681 627 672 621L672 621L659 627Q717 704 737 750L737 750L800 717ZM180 264L322 271Q319 290 313.50 310.50Q308 331 299 351L299 351L312 362Q333 335 348 311Q363 287 373 267L373 267Q382 224 357 203L357 203Q335 178 328 206L328 206Q325 219 325 231L325 231L325 248Q258 235 215.50 226.50Q173 218 155 206L155 206L119 264Q144 264 180 309L180 309Q196 331 216.50 361.50Q237 392 264 432L264 432Q218 426 189 420.50Q160 415 142 403L142 403L116 460Q148 464 183 529L183 529Q199 556 212 584.50Q225 613 235 637L235 637L303 599Q289 591 256 555.50Q223 520 167 457L167 457L276 457Q290 486 298.50 503Q307 520 312 529L312 529L366 487Q357 479 311 424Q265 369 180 264L180 264ZM563 348L440 348L440 248L563 248L563 348ZM440 206L385 194Q391 217 392 241.50Q393 266 393 290L393 290Q393 317 392 343Q391 369 385 392L385 392L440 376L447 376Q453 396 458 418Q463 440 469 463L469 463L440 463L440 448L385 438Q391 459 392 482.50Q393 506 393 529L393 529Q393 552 392 577.50Q391 603 385 630L385 630L440 608L560 608L582 640L636 605L614 580L614 509Q614 476 617 451L617 451L563 441L563 463L499 463L524 451Q512 439 466 376L466 376L560 376L582 406L636 364L614 342L614 267Q614 234 617 209L617 209L563 194L563 222L440 222L440 206ZM563 583L440 583L440 490L563 490L563 583ZM533-76L533-76L473-95Q473-63 474.50-33.50Q476-4 476 27L476 27L476 88L161 88Q142 88 122.50 85.50Q103 83 87 81L87 81L48 114L476 114Q476 137 474.50 159.50Q473 182 473 206L473 206L557 181L530 155L530 114L836 114L890 165L958 88L530 88L530 36L530-18Q530-45 533-76ZM685 264L830 271Q820 299 814 320Q808 341 800 351L800 351L814 362Q870 291 877 264L877 264Q891 232 868 203L868 203Q836 172 836 206L836 206Q833 219 833 231L833 231L833 248Q763 235 719.50 226.50Q676 218 659 206L659 206L623 264Q648 264 685 309L685 309Q703 331 724 361.50Q745 392 772 432L772 432Q726 426 696 420.50Q666 415 650 403L650 403L620 457Q659 467 694 532L694 532Q736 601 743 637L743 637L814 595Q802 588 767.50 554Q733 520 675 457L675 457L781 457Q795 486 804.50 503Q814 520 817 529L817 529L877 482Q855 474 685 264L685 264Z"/></svg>