<svg id="U20B29" viewBox="0 0 1024 1024"><path transform="translate(0, 921.6) scale(1,-1)" d="M552 589L552 736L814 736L814 589L552 589ZM219 589L219 736L491 736L491 589L219 589ZM844 807L811 765L219 765L151 794Q153 762 153.50 726Q154 690 154 649L154 649Q154 325 153.50 144.50Q153-36 151-83L151-83L222-44Q219 6 219 46L219 46Q219 86 219 115L219 115L219 560L814 560L814 532L881 554Q876 598 875.50 642.50Q875 687 875 733L875 733L910 756L844 807ZM418 419L418 419L750 419Q709 329 664.50 261.50Q620 194 574 144L574 144Q528 196 488.50 264Q449 332 418 419ZM753 448L276 448L315 413Q327 415 344 417Q361 419 389 419L389 419Q428 241 532 106L532 106Q485 60 408 16Q331-28 222-72L222-72L225-86Q326-61 412-22.50Q498 16 571 67L571 67Q633 13 711-28Q789-69 888-98L888-98Q899-59 972-44L972-44L972-32Q757-11 615 103L615 103Q666 156 715.50 233Q765 310 814 413L814 413L850 439L779 490L753 448Z"/></svg>