<svg id="U20146" viewBox="0 0 1024 1024"><path transform="translate(0, 921.6) scale(1,-1)" d="M537 676L537 676L836 676L886 723L960 650L169 650Q149 650 131.50 646.50Q114 643 97 640L97 640L60 676L506 676Q493 742 426 810L426 810L433 824Q529 780 553 756L553 756Q580 725 537 676ZM67-99L63-82Q255-7 330 83L330 83Q404 172 437 333L437 333Q451 411 455 486.50Q459 562 456 636L456 636L553 600L519 570Q530 488 548.50 417.50Q567 347 596 287L596 287Q671 352 720 413Q769 474 800 530L800 530L870 460Q854 460 766 394L766 394Q726 358 685 327.50Q644 297 603 267L603 267Q748 19 963-26L963-26L963-43Q888-43 864-89L864-89Q573 80 513 457L513 457Q483 150 363 47L363 47Q250-51 67-99L67-99ZM450 336L450 317Q210 237 187 213L187 213L143 270Q163 284 163 330L163 330L163 437Q163 454 162.50 481Q162 508 160 543L160 543L253 510L219 477L219 293Q267 303 323 314.50Q379 326 450 336L450 336Z"/></svg>