<svg id="U204F2" viewBox="0 0 1024 1024"><path transform="translate(0, 921.6) scale(1,-1)" d="M481 728L481 728Q444 692 400 656.50Q356 621 297 586L297 586Q243 551 182.50 524.50Q122 498 49 481L49 481L53 460Q114 473 167.50 490.50Q221 508 269 530L269 530Q226 391 138 308L138 308L144 299Q168 310 194 332.50Q220 355 252 392L252 392Q264 372 272 352.50Q280 333 288 313L288 313Q297 261 319 302L319 302Q335 337 315 360L315 360Q306 371 292 379.50Q278 388 259 400L259 400Q266 406 273.50 417.50Q281 429 292 443L292 443L432 443Q352 242 147 181L147 181L150 164Q396 206 491 437L491 437L514 457L458 503L435 474L304 474Q315 485 322 493.50Q329 502 333 506L333 506L352 519L294 540Q302 543 306 545.50Q310 548 310 548L310 548Q368 577 421.50 615Q475 653 530 699L530 699Q569 660 614 627Q659 594 702 565L702 565Q755 534 802 509Q849 484 892 467L892 467Q907 511 971 523L971 523L971 538Q912 540 859.50 554Q807 568 758 593L758 593Q713 616 677 636.50Q641 657 615 680L615 680Q589 697 563 713.50Q537 730 514 747L514 747Q491 762 451 776.50Q411 791 350 806L350 806L328 765Q377 761 415 751.50Q453 742 481 728ZM713 238L713 286L889 286L834 344L791 317L713 317L713 437L870 437L811 495L772 463L713 463L713 506L739 526L658 559Q658 523 659.50 499.50Q661 476 661 463L661 463L514 463L549 427Q586 437 622 437L622 437L661 437L661 317L559 317L588 375L615 384L539 418Q535 371 510 323L510 323L481 313L527 277L549 286L661 286Q661 266 659.50 239.50Q658 213 658 178L658 178L716 195Q713 216 713 238L713 238ZM491 160L491 160L76 160L112 123Q127 128 146 130.50Q165 133 186 133L186 133L426 133Q387 94 346.50 68Q306 42 259 16L259 16Q217-8 162.50-28Q108-48 46-69L46-69L46-85Q173-61 288-16L288-16Q339 10 390 42.50Q441 75 491 117L491 117Q491 75 489 20.50Q487-34 487-111L487-111L549-88Q546-51 546 2L546 2L546 123Q603 57 690 16L690 16Q763-34 900-65L900-65Q906-45 920.50-30.50Q935-16 964-10L964-10L964 3Q913 3 862 11.50Q811 20 758 35L758 35Q707 49 659 71.50Q611 94 559 133L559 133L945 133L873 205L814 160L546 160L546 192L570 212L487 241Q487 221 489 200.50Q491 180 491 160Z"/></svg>