<svg id="U203D8" viewBox="0 0 1024 1024"><path transform="translate(0, 921.6) scale(1,-1)" d="M172-102L172-102L230-77L230 490L256 512L216 540Q246 585 269 623.50Q292 662 311 688L311 688Q328 714 339.50 726Q351 738 359 738L359 738L290 802Q276 758 254.50 711.50Q233 665 204 613L204 613Q177 560 153.50 521.50Q130 483 110 453L110 453Q90 424 70 393.50Q50 363 24 333L24 333L34 322Q97 379 175 482L175 482L175 106Q175 57 174.50 6Q174-45 172-102ZM866 370L799 322L614 322Q646 378 549 411L549 411L539 402Q557 379 565.50 358.50Q574 338 574 322L574 322L243 322L279 289Q295 291 312.50 293Q330 295 353 295L353 295L928 295L866 370ZM725 241L359 241L382 205Q396 211 412 212.50Q428 214 450 214L450 214L828 214L771 279L725 241ZM717 163L372 163L397 131Q411 136 425.50 137Q440 138 457 138L457 138L819 138L758 202L717 163ZM745 85L422 85L362 112Q367 85 368 59.50Q369 34 369 12L369 12Q369-14 368-42Q367-70 362-102L362-102L419-81L419-58L751-58L751-96L809-74Q806-59 806-43L806-43Q806-27 806-4L806-4L806 53L831 77L778 121L745 85ZM419-33L419 60L751 60L751-33L419-33ZM433 634L433 718L768 718L768 634L433 634ZM375 575L375 575L433 596L433 608L768 608L768 581L825 608Q820 624 819.50 637Q819 650 819 660L819 660L819 713L849 735L796 782L758 745L436 745L375 772Q375 744 377 722Q379 700 379 682L379 682Q381 665 379.50 639.50Q378 614 375 575ZM478 560L397 581Q404 545 398 513.50Q392 482 375 453L375 453Q348 398 273 380L273 380L276 370Q324 375 359 390.50Q394 406 414 434L414 434Q430 454 441 482Q452 510 452 540L452 540L478 560ZM562 521L562 521L562 462Q562 448 560 431.50Q558 415 558 398L558 398L614 418L614 540L639 560L558 581Q558 561 560 544Q562 527 562 521ZM729 533L729 533L729 438Q729 375 796 389L796 389L852 389Q902 382 935 418L935 418Q919 418 912 434L912 434Q901 445 897 493L897 493L884 493Q884 473 880.50 461Q877 449 877 441L877 441Q873 428 849 428L849 428L813 428Q778 417 778 456L778 456L778 543L806 563L725 588Q725 564 727 550Q729 536 729 533Z"/></svg>