<svg id="U203C1" viewBox="0 0 1024 1024"><path transform="translate(0, 921.6) scale(1,-1)" d="M133-100L133-100L188-71L188 520L212 543L174 574Q203 620 222.50 651Q242 682 255 699L255 699Q285 733 288 730L288 730L226 794Q215 756 198.50 715.50Q182 675 156 632L156 632Q134 584 112.50 549.50Q91 515 73 486L73 486Q58 460 44 439Q30 418 16 400L16 400L23 388Q57 408 136 517L136 517L136 146Q136 77 135.50 15.50Q135-46 133-100ZM343 683L412 683Q404 624 392.50 572Q381 520 369 467L369 467Q404 419 425 378Q446 337 451 302L451 302Q455 235 429 216L429 216Q399 197 343 216L343 216L343 683ZM343 711L288 740Q291 690 291.50 640Q292 590 292 543L292 543L292 106Q292 41 291.50-7Q291-55 288-90L288-90L346-65Q343-39 343-2L343-2Q343 34 343 89L343 89L343 195Q398 176 406 131L406 131Q464 153 488 210L488 210Q510 264 491 327L491 327Q478 387 388 471L388 471Q405 525 426 577Q447 629 467 677L467 677L491 699L441 750L412 711L343 711ZM724 118L724 118L743 68Q754 76 776.50 86Q799 96 825 109L825 109Q825 93 827.50 81.50Q830 70 830 58L830 58Q830 37 851 58L851 58Q858 69 860 81.50Q862 94 859 112L859 112Q854 129 844.50 149.50Q835 170 821 195L821 195L816 192Q818 174 820 155.50Q822 137 825 118L825 118Q799 115 780.50 114.50Q762 114 755 114L755 114Q775 168 795.50 199Q816 230 830 242L830 242L777 274Q772 238 764 209.50Q756 181 752 162L752 162Q732 118 724 118ZM680 334L680 29Q671-69 740-65L740-65L857-65Q892-65 920-18L920-18Q891-9 891 32L891 32Q889 56 889 80L889 80Q889 105 889 138L889 138L873 138Q873 104 870.50 75.50Q868 47 863 20L863 20Q857-23 821-29L821-29L765-29Q724-32 724 6L724 6L724 334L680 334ZM562 514L562 644L660 644L660 514L562 514ZM704 514L704 644L806 644L806 514L704 514ZM562 353L562 486L660 486L660 353L562 353ZM704 353L704 486L806 486L806 353L704 353ZM717 763L717 763L654 800Q654 761 618 674L618 674L559 674L512 702Q512 664 514.50 612Q517 560 517 498L517 498Q517 436 514.50 380.50Q512 325 512 274L512 274L562 299L562 327L606 327Q600 246 585 185.50Q570 125 549 80L549 80Q528 34 496-3Q464-40 419-78L419-78L426-87Q547-27 598 76L598 76Q620 128 635 190Q650 252 657 327L657 327L806 327L806 285L857 312Q854 342 854 424L854 424Q854 506 854 638L854 638L880 657L834 702L803 674L638 674Q667 709 686 732Q705 755 717 763Z"/></svg>