<svg id="U20C12" viewBox="0 0 1024 1024"><path transform="translate(0, 921.6) scale(1,-1)" d="M115 663L255 663L255 207L115 207L115 663ZM56 67L56 67L115 93L115 177L255 177L255 73L312 105Q309 137 309 168L309 168Q309 199 309 234L309 234L309 643L344 668L290 727L255 688L115 688L56 723Q61 678 62 637.50Q63 597 63 555L63 555L63 186Q63 154 62 125Q61 96 56 67ZM662 775L584 822Q563 683 491 561L491 561Q454 495 409 443.50Q364 392 312 354L312 354L316 346Q360 366 403 401.50Q446 437 491 483L491 483Q575 579 623 723L623 723Q691 478 862 365L862 365Q882 401 940 409L940 409L940 426Q907 432 878.50 446Q850 460 827 480L827 480Q800 500 776.50 526.50Q753 553 730 585L730 585Q683 646 633 750L633 750L662 775ZM704 351L691 346Q725 299 754.50 257Q784 215 807 177L807 177Q826 138 841 108.50Q856 79 865 57L865 57Q876 12 905 57L905 57Q929 103 911 135L911 135Q897 154 880 175Q863 196 843 222L843 222Q816 246 782 277.50Q748 309 704 351L704 351ZM603 384L603 384L603 15Q603-8 571-8L571-8Q557-8 527.50-5.50Q498-3 451 5L451 5L451-10Q563-42 574-101L574-101Q594-92 609.50-83.50Q625-75 635-66L635-66Q656-38 656-8L656-8L656 409L683 441L600 488Q600 459 601.50 432Q603 405 603 384ZM526 309L526 309L552 336L474 387Q463 283 407 158L407 158Q381 97 354.50 54.50Q328 12 302-14L302-14L312-27Q349 2 378.50 37.50Q408 73 432 115L432 115Q458 157 480 203Q502 249 526 309Z"/></svg>