<svg id="U20475" viewBox="0 0 1024 1024"><path transform="translate(0, 921.6) scale(1,-1)" d="M213-76L162-103Q165-35 165.50 24Q166 83 166 139L166 139L166 522Q128 462 96.50 417Q65 372 42 343L42 343L29 351Q134 532 166 629L166 629Q183 680 194.50 720.50Q206 761 213 795L213 795L296 742Q266 725 248 697L248 697Q240 679 225.50 648Q211 617 187 566L187 566L232 537L213 518L213-76ZM486 674L399 674L399 622L486 622L486 674ZM632 735L537 735L537 699L632 699L632 735ZM632 622L632 674L537 674L537 622L632 622ZM783 622L783 674L680 674L680 622L783 622ZM289 760L808 760L852 801L910 735L680 735L680 699L780 699L811 722L865 691L833 670L833 599L783 581L783 599L399 599L399 581L347 575Q352 648 347 719L347 719L401 699L486 699L486 735L399 735Q376 735 359 733Q342 731 325 729L325 729L289 760ZM419 486L461 486L496 513L534 461L419 461L419 384L525 395L531 378Q327 345 296 325L296 325L258 375Q281 375 311.50 375.50Q342 376 378 378L378 378L378 461L363 461Q343 461 325 459Q307 457 289 455L289 455L258 486L378 486Q378 507 377.50 526.50Q377 546 375 566L375 566L445 540L419 525L419 486ZM506 534L700 534Q700 538 698 553Q696 568 696 592L696 592L767 566L741 554L741 534L838 534L876 563L924 505L746 505Q746 481 756 458L756 458Q758 444 765 429Q772 414 783 400L783 400Q788 411 795.50 418Q803 425 811 430L811 430Q813 436 821.50 450.50Q830 465 838 486L838 486L890 448Q880 448 852 423L852 423Q839 408 828.50 397Q818 386 811 378L811 378Q844 345 887 340L887 340Q892 356 897 370.50Q902 385 910 397L910 397L924 395Q913 367 913 340L913 340Q913 312 920 306L920 306Q936 284 897 295L897 295Q880 298 864.50 302.50Q849 307 833 312L833 312Q816 319 802 327.50Q788 336 777 347L777 347Q718 313 632 289L632 289L623 302Q652 312 684.50 329.50Q717 347 753 375L753 375Q742 385 735.50 398.50Q729 412 721 430L721 430Q717 442 712.50 460.50Q708 479 703 505L703 505L614 505Q590 505 570.50 503.50Q551 502 537 502L537 502L506 534ZM770 581L773 584Q793 579 810.50 574Q828 569 833 563L833 563Q841 547 833 537L833 537Q816 526 808 537L808 537Q799 541 791.50 553Q784 565 770 581L770 581ZM540 425L540 499L575 477L636 477L661 496L696 464L677 458Q677 399 680 395L680 395L643 378L643 384L575 384L575 381L540 369L540 425ZM643 448L575 448L575 413L643 413L643 448ZM700 375L703 366Q679 360 656.50 354Q634 348 611 340L611 340Q584 329 566.50 322Q549 315 540 309L540 309L511 343Q532 343 578.50 351.50Q625 360 700 375L700 375ZM404 165L404 182Q282 156 289 149L289 149L251 185Q268 185 305 189.50Q342 194 404 203L404 203L404 244L369 244Q349 244 332.50 242.50Q316 241 299 239L299 239L264 270L404 270Q404 281 403.50 297.50Q403 314 401 331L401 331L481 306L448 289L448 270L499 270L531 286L575 244L448 244L448 210L560 226L563 213L448 188L448 162Q454 147 442 121Q430 95 378 95L378 95Q382 120 318 131L318 131L318 139Q347 134 363.50 133.50Q380 133 388 131L388 131Q404 131 404 165L404 165ZM794 121L750 102L750 203L639 203Q634 176 601 144L601 144Q569 106 496 93L496 93L486 102Q540 119 563 152L563 152Q576 169 584 184Q592 199 595 213L595 213Q595 225 594.50 247.50Q594 270 591 302L591 302L643 283Q669 283 696.50 286.50Q724 290 753 295L753 295Q813 306 821 321L821 321L883 277L828 277Q813 277 766.50 272.50Q720 268 639 265L639 265L639 229L838 229L874 251L920 203L794 203L794 121ZM828 70L797 50L797-31Q797-65 800-84L800-84L750-100L750-70L419-70L419-87L369-103Q374-74 374.50-49Q375-24 375 4L375 4Q375 24 374.50 49.50Q374 75 369 102L369 102L419 86L746 86L777 105L828 70ZM750 60L419 60L419-43L750-43L750 60Z"/></svg>