<svg id="U206B9" viewBox="0 0 1024 1024"><path transform="translate(0, 921.6) scale(1,-1)" d="M455 418L423 377L100 377L132 338Q155 340 175 343.50Q195 347 218 350L218 350L421 350Q383 268 331 195L331 195Q292 216 243 242Q194 268 142 297L142 297L132 285Q189 243 230.50 209Q272 175 298 153L298 153Q254 98 192.50 45Q131-8 49-56L49-56L53-75Q231 3 337 118L337 118Q375 76 404.50 38.50Q434 1 455-31L455-31Q491-101 515-56L515-56Q529-9 499 38L499 38Q462 96 379 156L379 156Q407 200 434.50 245Q462 290 486 338L486 338L518 374L455 418ZM561 526L561 526Q540 517 496 517L496 517Q448 517 448 571L448 571L448 702L483 728L421 782L385 737L245 737L183 773Q201 492 33 383L33 383L46 377Q98 403 133.50 433Q169 463 189 501L189 501Q214 540 228.50 592.50Q243 645 245 711L245 711L388 711L388 535Q388 467 442 467L442 467Q471 461 499.50 460.50Q528 460 557 460L557 460Q616 460 611 485L611 485Q611 491 606.50 499.50Q602 508 591 517L591 517Q571 530 561 526ZM634 529L634 529L634 309Q634 255 632 207.50Q630 160 630 115L630 115L694 133Q691 184 691 238L691 238Q691 293 691 350L691 350L691 603L713 625L630 651Q630 622 632 591.50Q634 561 634 529ZM835 603L835 3Q835-18 796-14L796-14Q779-11 753.50-9Q728-7 694-3L694-3L694-17Q790-49 799-97L799-97Q889-84 889-7L889-7L889 731L914 764L832 801Q832 745 833.50 696.50Q835 648 835 603L835 603Z"/></svg>