<svg id="U2006B" viewBox="0 0 1024 1024"><path transform="translate(0, 921.6) scale(1,-1)" d="M487 52L487 52L487 477L516 494L464 526Q476 551 491 583Q506 615 527 658L527 658Q543 696 557.50 719Q572 742 585 751L585 751L513 800Q501 753 485 704.50Q469 656 448 599L448 599Q403 478 313 333L313 333L322 323Q359 364 386 403Q413 442 437 477L437 477L437 73Q437 32 435.50-11.50Q434-55 434-108L434-108L494-88Q488-60 487.50-27Q487 6 487 52ZM677-104L677-104L736-81Q731-49 730.50 80.50Q730 210 730 444L730 444Q755 320 792 229Q829 138 888 73L888 73Q912 102 964 102L964 102L964 119Q833 193 740 507L740 507L934 507L872 579L822 537L730 537L730 740L766 770L677 809Q677 761 679 695.50Q681 630 681 537L681 537L519 537L556 500Q576 504 593.50 505.50Q611 507 628 507L628 507L661 507Q602 234 500 56L500 56L513 46Q566 111 608 191.50Q650 272 681 372L681 372Q681 175 679 59Q677-57 677-104ZM88 474L88 214L59 201L102 141Q115 155 154 178.50Q193 202 259 237L259 237L259 30Q259-3 258.50-37Q258-71 256-104L256-104L316-75Q313-42 313-8L313-8L313 69L313 737L342 767L256 803Q258 768 258.50 724.50Q259 681 259 635L259 635L259 257L137 220L137 625L171 654L82 688Q86 642 87 590.50Q88 539 88 474L88 474Z"/></svg>