<svg id="U203EB" viewBox="0 0 1024 1024"><path transform="translate(0, 921.6) scale(1,-1)" d="M172-105L172-105L227-80L227 485L252 508L213 539Q242 590 263.50 629.50Q285 669 300 691L300 691Q315 714 325.50 728.50Q336 743 339 749L339 749L275 800Q259 754 240 704.50Q221 655 194 607L194 607Q170 555 148 515Q126 475 108 447L108 447Q88 417 67.50 388.50Q47 360 21 330L21 330L30 319Q96 379 175 485L175 485L175 106Q175 50 174.50-2Q174-54 172-105ZM638 273L583 337L545 302L507 302L507 444L554 444L554 414L609 438Q606 455 606 473L606 473Q606 491 606 511L606 511L606 584L632 607L574 652L551 620L507 620L507 725L629 725L568 790L526 752L394 752L339 784Q343 760 344 731.50Q345 703 345 674L345 674L345 315L320 292L365 247L390 273L638 273ZM394 620L394 725L458 725L458 620L394 620ZM394 468L394 587L554 587L554 468L394 468ZM394 302L394 444L458 444L458 302L394 302ZM638 492L606 527L748 527L748 649L786 633L835 725L738 725Q717 722 700.50 721.50Q684 721 667 719L667 719L632 752L840 752L866 787L924 733L889 713L802 627L828 614L795 587L795 527L840 527L882 566L941 501L795 501L795 343Q795 281 724 262L724 262Q724 309 638 324L638 324L638 337Q748 316 748 370L748 370L748 501L711 501Q692 501 674.50 497.50Q657 494 638 492L638 492ZM413 189L510 189L510-39L413-39L413 189ZM557-39L557 189L635 189L635-39L557-39ZM686-39L686 189L773 189L773-39L686-39ZM365 106L365-39L264-39L297-70Q331-64 375-64L375-64L941-64L882 8L835-32L828-32L828 184L850 214L795 254L773 214L416 214L359 247Q363 210 364 174.50Q365 139 365 106L365 106Z"/></svg>