<svg id="U20192" viewBox="0 0 1024 1024"><path transform="translate(0, 921.6) scale(1,-1)" d="M442 824L439 812Q454 798 468 775.50Q482 753 494 721L494 721L124 721L160 686Q177 688 194.50 690Q212 692 234 692L234 692L907 692L840 766L785 721L518 721Q548 754 529 780L529 780Q518 786 497 799Q476 812 442 824L442 824ZM261 502L261 502L319 520L319 531L701 531L701 502L758 523Q755 540 755 608L755 608L780 627L736 673L698 644L319 644L261 673Q263 651 263.50 629Q264 607 264 589L264 589Q264 566 263.50 544.50Q263 523 261 502ZM852 453L813 372L822 366Q840 388 854 405Q868 422 885 431L885 431Q899 442 913.50 448Q928 454 946 460L946 460L885 520L846 482L167 482L167 523L154 523Q135 448 103 424L103 424Q63 394 82 375L82 375Q106 359 135 382L135 382Q161 395 167 453L167 453L852 453ZM319 559L319 614L701 614L701 559L319 559ZM319-24L319 49L707 49L707-24L319-24ZM693 304L693 304L636 340L807 340L743 404L701 366L529 366Q564 388 542 411L542 411Q533 421 512 433.50Q491 446 455 463L455 463L445 453Q497 410 497 366L497 366L199 366L234 330Q251 333 273 336.50Q295 340 322 340L322 340L622 340Q609 314 598 289.50Q587 265 568 240L568 240L115 240L148 204Q164 206 183 208Q202 210 222 210L222 210L914 210L846 282L797 240L594 240Q603 247 614.50 257Q626 267 642 275L642 275Q664 298 693 304ZM342 343L349 346Q418 319 439 295L439 295Q458 276 428 250L428 250Q403 227 394 262L394 262Q388 279 374.50 298Q361 317 342 343L342 343ZM316 165L261 192Q263 162 263.50 128Q264 94 264 52L264 52Q264 8 263.50-26Q263-60 261-92L261-92L319-77L319-50L707-50L707-86L764-66Q761-38 761 9L761 9Q761 57 761 133L761 133L794 156L740 195L707 165L316 165ZM319 75L319 136L707 136L707 75L319 75Z"/></svg>