<svg id="U20CFF" viewBox="0 0 1000 1000"><path transform="translate(0, 900) scale(1,-1)" d="M74 745L74 90L141 90L141 186L329 186L329 745ZM141 675L261 675L261 256L141 256ZM404 796L404 481C404 328 395 119 295-28C311-37 340-60 352-73C459 82 474 318 474 481L474 555L920 555L920 796ZM474 731L847 731L847 621L474 621ZM828 538C752 504 611 471 489 451C498 436 507 413 510 398C557 405 606 414 654 424L654 337L497 311L509 251L654 275L654 186L472 157L483 97L654 124L654 31C654-50 676-70 752-70C768-70 860-70 877-70C943-70 962-37 970 78C950 82 923 93 907 105C904 12 899-5 871-5C852-5 775-5 761-5C728-5 722 0 722 31L722 135L944 171L933 231L722 197L722 286L917 319L905 379L722 348L722 439C783 454 840 471 887 490Z"/></svg>