<svg id="U2052A" viewBox="0 0 1024 1024"><path transform="translate(0, 921.6) scale(1,-1)" d="M870 526L870 526Q650 592 558 803L558 803L628 797L606 771Q698 606 947 593L947 593L947 580Q879 564 870 526ZM472 750L437 742Q388 696 343 658.50Q298 621 252 593L252 593Q163 536 83 510L83 510L77 523Q176 573 256 643Q336 713 405 807L405 807L472 750ZM478 213L252 213L252 112L478 112L478 213ZM753 213L529 213L529 112L753 112L753 213ZM478 83L252 83L252-22L478-22L478 83ZM753 83L529 83L529-22L753-22L753 83ZM252-76L195-95Q197-49 197.50-3Q198 43 198 89L198 89Q198 136 197.50 178.50Q197 221 195 267L195 267L255 239L753 239L788 271L836 226L807 207L807 48Q807-18 810-63L810-63L753-85L753-47L252-47L252-76ZM246 587L255 593Q304 575 334 559.50Q364 544 376 529L376 529Q391 503 370 481L370 481Q343 455 326 487L326 487Q317 504 297 528.50Q277 553 246 587L246 587ZM679 602L750 548Q730 543 714.50 535Q699 527 685 516L685 516Q671 507 652.50 494.50Q634 482 615 469L615 469L810 469L864 513L928 443L516 443L516 332Q516 287 520 271L520 271L459 249Q459 277 461 318Q463 359 463 412L463 412L463 443L195 443Q173 443 155 439Q137 435 121 433L121 433L86 469L463 469Q463 531 461 575.50Q459 620 459 647L459 647L549 608L516 587L516 469L593 469Q622 502 641.50 536.50Q661 571 679 602L679 602ZM718 332L718 332Q685 353 653 371.50Q621 390 590 404L590 404L593 424Q752 367 813 335L813 335Q876 300 870 255L870 255Q865 211 822 252L822 252Q773 296 718 332ZM412 370L376 367Q331 338 293 316.50Q255 295 223 281L223 281Q191 263 160.50 252.50Q130 242 99 232L99 232L95 249Q170 282 234.50 328Q299 374 360 433L360 433L412 370Z"/></svg>