<svg id="U20C08" viewBox="0 0 1024 1024"><path transform="translate(0, 921.6) scale(1,-1)" d="M101 660L235 660L235 172L101 172L101 660ZM42 22L42 22L101 52L101 145L235 145L235 29L288 66Q285 98 285 133L285 133Q285 168 285 206L285 206L285 647L322 678L266 731L232 688L101 688L42 724Q46 679 47 634.50Q48 590 48 547L48 547L48 153Q48 119 47 87Q46 55 42 22ZM533 544L533 514L597 534Q593 558 593 587L593 587Q593 616 593 647L593 647L593 728L630 761L563 811L530 774L303 774L343 741Q360 743 383.50 743.50Q407 744 433 748L433 748L533 748L533 573L433 573L366 601Q366 570 365.50 546.50Q365 523 362 514L362 514Q362 499 360 466Q358 433 356 377L356 377L325 353L383 309L412 337L502 337Q482 8 462-5L462-5Q442-25 306-5L306-5L303-25Q401-39 426-108L426-108Q498-81 517-31L517-31Q539 16 557 316L557 316L597 340L530 403L499 367L409 367L426 544L533 544ZM850 122L633 82Q679 203 717.50 350.50Q756 498 784 681L784 681L824 708L731 761Q722 677 714 612Q706 547 697 497L697 497Q689 444 676.50 381Q664 318 647 243L647 243Q614 88 576 69L576 69L616-5Q638 26 858 92L858 92Q867 59 872.50 32.50Q878 6 881-11L881-11Q881-50 914-18L914-18Q923-6 932 10.50Q941 27 941 49L941 49Q941 66 929.50 96Q918 126 901 169L901 169Q882 209 853.50 256.50Q825 304 790 356L790 356L777 350Q805 271 822.50 214Q840 157 850 122L850 122Z"/></svg>