<svg id="U201E3" viewBox="0 0 1024 1024"><path transform="translate(0, 921.6) scale(1,-1)" d="M772 744L405 744L435 708Q462 714 506 714L506 714L898 714L829 793L772 744ZM329 479L837 479L904 537L980 452L445 452Q417 452 398 448Q379 444 367 441L367 441L329 479ZM550 292L472 353Q443 272 394 182L394 182Q371 139 342 96Q313 53 282 12L282 12L295-1Q386 89 452 179L452 179Q518 275 550 292L550 292ZM611 459L673 459L673 141Q673 82 673.50 31Q674-20 677-65L677-65L605-95Q605-32 608 106.50Q611 245 611 459L611 459ZM741 329L728 315Q846 186 885 100L885 100Q920 13 942 56L942 56Q974 98 942 145L942 145Q932 173 880 217.50Q828 262 741 329L741 329ZM200-102L200-102L261-72L261 520L295 547L244 581Q272 627 293.50 663.50Q315 700 339 731L339 731Q378 783 394 796L394 796L323 857Q307 813 285.50 764.50Q264 716 234 663L234 663Q203 605 177.50 560.50Q152 516 131 485L131 485Q111 451 89 419.50Q67 388 43 359L43 359L50 349Q83 380 122.50 421.50Q162 463 203 520L203 520L203 122Q203 62 202.50 7.50Q202-47 200-102Z"/></svg>