<svg id="U20155" viewBox="0 0 1024 1024"><path transform="translate(0, 921.6) scale(1,-1)" d="M134 666L93 705L791 705L842 743L907 679L225 679Q198 679 174.50 674.50Q151 670 134 666L134 666ZM408 618L373 612Q248 537 93 486L93 486L89 502Q182 540 250 592L250 592Q284 616 309.50 636.50Q335 657 351 679L351 679L408 618ZM582 647L582 647L585 663Q666 638 718.50 619.50Q771 601 800 589L800 589Q825 577 839.50 563.50Q854 550 861 541L861 541Q867 513 852 493L852 493Q839 477 807 508L807 508Q790 523 769 537Q748 551 726 567L726 567Q707 581 670 600.50Q633 620 582 647ZM405 804L405 804L411 818Q450 806 476.50 796.50Q503 787 517 779L517 779Q547 755 543 737L543 737Q529 705 517 698L517 698Q502 683 486 724L486 724Q461 758 405 804ZM630 598L630 598L690 544L662 537Q630 508 595.50 479Q561 450 527 422L527 422Q565 396 614 377Q663 358 726 348L726 348Q788 335 835 332Q882 329 919 332L919 332L919 316Q845 305 845 262L845 262Q612 295 489 390L489 390Q330 295 71 268L71 268L71 287Q202 309 293.50 344Q385 379 450 425L450 425Q416 459 384 496.50Q352 534 318 573L318 573L334 582Q384 529 422 496.50Q460 464 489 448L489 448Q532 482 566 519.50Q600 557 630 598ZM209 287L209 287L299 251L267 223L267-12L475 78L486 68Q389 10 326-32Q263-74 232-101L232-101L180-44Q212-21 212-9L212-9L212 142Q212 176 211.50 210Q211 244 209 287ZM388 303L388 303L405 310Q439 257 473 215.50Q507 174 546 145L546 145Q652 210 707 280L707 280L771 212L740 209Q683 183 640 163.50Q597 144 566 130L566 130Q646 68 743 33.50Q840-1 952-15L952-15L952-30Q889-35 868-81L868-81Q511 27 388 303Z"/></svg>