<svg id="U20FC2" viewBox="0 0 1024 1024"><path transform="translate(0, 921.6) scale(1,-1)" d="M206 173L206 650L108 650L108 173L206 173ZM108 62L53 33Q57 62 58 91.50Q59 121 59 154L59 154L59 533Q59 579 58 623Q57 667 53 712L53 712L105 676L210 676L242 709L288 653L255 634L255 206Q255 169 255.50 136.50Q256 104 262 72L262 72L206 43L206 147L108 147L108 62ZM268 569L383 569Q383 650 379.50 709Q376 768 376 813L376 813L455 774L432 748L432 569L445 569L484 601L533 539L432 539L432 360L510 396L513 379L432 327L432 4Q432-69 347-97L347-97Q342-49 262-25L262-25L262-9Q296-11 319.50-13Q343-15 353-15L353-15Q383-15 383 10L383 10L383 304Q311 266 304 249L304 249L265 307Q282 310 311.50 318Q341 326 383 347L383 347L383 539Q370 539 352.50 535Q335 531 311 526L311 526L268 569ZM582-84L526-97Q526-62 528-30.50Q530 1 530 33L530 33L530 320Q530 347 528 376.50Q526 406 526 438L526 438L582 405Q639 426 650 458L650 458L686 396Q669 396 642.50 392Q616 388 582 379L582 379L582 206L585 206L624 232L673 177L582 177L582 10L703 10L703 516L644 516Q619 516 600.50 514Q582 512 566 510L566 510L530 546L703 546L703 683Q649 677 604.50 673.50Q560 670 526 670L526 670L526 683Q809 726 856 781L856 781L905 712Q878 709 860.50 706Q843 703 837 703L837 703Q829 700 807 697Q785 694 752 689L752 689L752 546L837 546L889 582L951 516L752 516L752 10L850 10L850 177L833 177Q810 177 794 167L794 167L768 206L850 206L850 373Q807 373 791 360L791 360L768 399L850 399L886 432L931 376L905 353L905 66L905 10Q905-20 908-51L908-51L850-74L850-15L582-15L582-84Z"/></svg>