<svg id="U20A09" viewBox="0 0 1024 1024"><path transform="translate(0, 921.6) scale(1,-1)" d="M387 427L387 427Q338 364 268 312L268 312Q236 289 186.50 263.50Q137 238 61 212L61 212L57 229Q277 340 339 463L339 463L339 708Q339 737 338.50 764.50Q338 792 336 823L336 823L431 797L398 763L398 454Q403 450 409 444.50Q415 439 423 431L423 431Q447 472 458 506L458 506Q467 528 473 551Q479 574 486 592L486 592L556 559Q544 554 535 542Q526 530 513 513L513 513Q545 499 567 487Q589 475 599 466L599 466Q622 446 622 424L622 424Q618 400 602 394L602 394Q584 379 572 417L572 417Q562 437 545.50 455.50Q529 474 506 497L506 497Q471 449 437 418L437 418Q568 309 678 305L678 305L678 288Q612 288 599 246L599 246Q511 283 387 427ZM186 598L256 565Q230 546 214 513L214 513Q299 474 299 447L299 447Q299 414 283 404L283 404Q264 392 252 424L252 424Q248 434 237 452.50Q226 471 206 497L206 497Q151 417 74 375L74 375L68 387Q110 420 143 491L143 491Q157 519 167.50 545.50Q178 572 186 598L186 598ZM312 316L372 276Q346 265 319 232L319 232L486 232L513 265L576 219L543 200Q506 140 477 102Q448 64 427 47L427 47Q480 26 546.50 13Q613 0 694-5L694-5Q859-19 966-5L966-5L966-21Q903-26 879-78L879-78Q535-69 387 15L387 15Q244-68 57-100L57-100L57-84Q258-21 348 44L348 44Q326 64 304 91.50Q282 119 262 163L262 163Q228 133 191 106.50Q154 80 114 62L114 62L108 77Q220 156 237 203L237 203L217 252L229 265L256 226Q267 240 281.50 262Q296 284 312 316L312 316ZM480 206L305 206L277 180Q298 150 321.50 123Q345 96 375 71L375 71Q410 109 436 141.50Q462 174 480 206L480 206ZM506 783L576 748Q565 741 554.50 729Q544 717 534 701L534 701Q560 691 580 679.50Q600 668 612 658L612 658Q635 645 635 616L635 616Q631 592 615 585L615 585Q602 579 583 608L583 608Q572 636 526 688L526 688Q502 654 477.50 626.50Q453 599 427 579L427 579L415 588Q435 619 450.50 646Q466 673 477 698L477 698Q487 719 493 741Q499 763 506 783L506 783ZM186 794L262 757Q237 748 217 708L217 708Q299 662 299 635L299 635Q299 602 283 592L283 592Q265 585 249 619L249 619Q240 640 230.50 658Q221 676 206 691L206 691Q147 607 84 569L84 569L74 579Q93 596 110 621Q127 646 143 678L143 678Q159 708 169 737Q179 766 186 794L186 794ZM700 797L800 751L760 720L760 497Q820 471 863 447.50Q906 424 929 407L929 407Q976 375 959 328L959 328Q939 280 893 350L893 350Q841 415 760 473L760 473L760 62L700 25Q700 67 702.50 111.50Q705 156 705 203L705 203L705 619Q705 661 702.50 705Q700 749 700 797L700 797Z"/></svg>