<svg id="U2076D" viewBox="0 0 1024 1024"><path transform="translate(0, 921.6) scale(1,-1)" d="M547 711L184 711L184 595L547 595L547 711ZM126 765L126 765L187 736L543 736L572 775L629 736L601 708L601 628Q601 595 604 577L604 577L547 547L547 569L184 569Q184 511 183.50 457.50Q183 404 181 357L181 357Q181 311 174.50 261Q168 211 158 153L158 153Q133 36 43-87L43-87L29-81Q77 2 100 97L100 97Q112 144 117.50 194Q123 244 126 294L126 294Q128 347 131 400Q134 453 129 512L129 512Q129 568 128.50 629.50Q128 691 126 765ZM261 544L267 554Q296 537 318 523.50Q340 510 354 499L354 499Q387 472 360 435L360 435Q333 396 318 447L318 447Q299 489 261 544L261 544ZM527-58L467-84Q467-47 470 21Q473 89 473 198L473 198L348 198Q344 97 303 31L303 31Q283-1 248.50-30Q214-59 165-90L165-90L158-81Q225-23 261 49L261 49Q275 83 282.50 118.50Q290 154 296 198L296 198L280 198Q259 198 241.50 196.50Q224 195 210 190L210 190L177 226L296 226L296 374Q271 374 238 368L238 368L203 399L444 399Q466 449 476.50 486.50Q487 524 495 554L495 554L566 518Q540 501 518 467L518 467Q486 430 473 399L473 399L533 399L572 444L634 374L524 374L524 226L540 226L581 268L646 198L524 198L524 26Q524-37 527-58L527-58ZM473 374L348 374L348 226L473 226L473 374ZM745 650L720 625L720 374L720 263Q720 207 723 150L723 150L662 127Q662 180 663.50 232Q665 284 665 335L665 335L665 554Q665 582 663.50 613.50Q662 645 662 682L662 682L745 650ZM835 8L835 8L835 595Q835 646 833.50 694Q832 742 832 792L832 792L915 762L890 733L890-20Q890-78 796-97L796-97Q796-45 697-17L697-17L697-2Q835-28 835 8Z"/></svg>