<svg id="U20E3B" viewBox="0 0 1024 1024"><path transform="translate(0, 921.6) scale(1,-1)" d="M214 185L214 645L109 645L109 185L214 185ZM53 711L53 711L109 671L211 671L237 711L293 661L263 629L263 218Q263 181 263.50 146.50Q264 112 270 80L270 80L214 44L214 159L109 159L109 67L53 37Q55 67 55.50 98.50Q56 130 56 162L56 162L56 524Q56 570 55.50 616.50Q55 663 53 711ZM802 652L716 652L716 563L802 563L802 652ZM802 533L716 533L716 448L802 448L802 533ZM946-12L946-21Q901-40 887-80L887-80Q819-80 755-74Q691-68 628-57L628-57Q571-42 516.50-13Q462 16 414 64L414 64Q381 12 329-27L329-27Q302-49 271-68.50Q240-88 201-103L201-103L194-93Q229-67 258.50-42.50Q288-18 312 5L312 5Q334 32 350 57.50Q366 83 378 103L378 103Q319 192 303 267L303 267L316 271Q333 236 354 205.50Q375 175 398 146L398 146Q417 218 431.50 286.50Q446 355 454 422L454 422L382 422L355 399L316 451Q347 457 362 510L362 510Q373 533 388 575.50Q403 618 421 681L421 681Q381 681 336 668L336 668L309 707L421 707L454 744L503 684L473 665Q450 608 429.50 554Q409 500 391 448L391 448L450 448L480 487L536 428L503 409Q493 327 477 251Q461 175 437 106L437 106Q489 49 562 24L562 24Q601 9 644.50 1Q688-7 736-12L736-12Q827-17 946-12L946-12ZM526 681L664 681Q664 717 662.50 751.50Q661 786 661 819L661 819L746 786L716 757L716 681L798 681L818 717L877 675L851 648L851 563L858 563L890 602L950 533L851 533Q851 498 851.50 467Q852 436 858 409L858 409L802 386L802 422L716 422L716 330L785 330L835 369L890 304L716 304L716 212L825 212L871 251L936 185L716 185Q716 140 716.50 103.50Q717 67 720 37L720 37L661 8Q661 59 662.50 101Q664 143 664 185L664 185L592 185Q545 185 516 175L516 175L480 212L664 212L664 304L618 304Q598 301 578.50 298Q559 295 542 290L542 290L506 330L664 330L664 422L618 422L572 409L539 448L664 448L664 533L595 533Q572 533 554 531Q536 529 519 527L519 527L483 563L664 563L664 652L657 652Q630 652 607 651Q584 650 562 645L562 645L526 681Z"/></svg>