<svg id="U20F16" viewBox="0 0 1024 1024"><path transform="translate(0, 921.6) scale(1,-1)" d="M208 168L208 649L104 649L104 168L208 168ZM104 51L48 22Q51 53 51.50 83.50Q52 114 52 149L52 149L52 529Q52 575 51.50 620.50Q51 666 48 711L48 711L107 675L204 675L233 714L289 659L256 629L256 198L256 130Q256 97 259 61L259 61L208 32L208 139L104 139L104 51ZM678 250L526 250Q514 230 496 200.50Q478 171 454 129L454 129Q508 117 545.50 107.50Q583 98 610 94L610 94Q630 124 647 163Q664 202 678 250L678 250ZM591 331L555 318L532 276L805 276L850 318L919 250L740 250Q706 146 665 78L665 78Q711 57 744 37Q777 17 795 3L795 3Q831-29 828-71L828-71Q823-122 772-68L772-68Q745-38 711.50-13.50Q678 11 636 35L636 35Q510-79 276-110L276-110L272-97Q482-44 584 58L584 58Q542 74 494 88Q446 102 386 116L386 116Q443 203 467 250L467 250L380 250Q360 250 342.50 246Q325 242 308 240L308 240L272 276L474 276Q502 334 513 380L513 380L591 331ZM493 373L438 350Q443 369 444 418Q445 467 445 545L445 545Q422 506 385.50 465.50Q349 425 292 383L292 383L285 392Q385 517 428 633L428 633L419 633Q378 633 344 623L344 623L308 659L445 659Q445 704 444 739Q443 774 438 798L438 798L526 763L490 733L490 659L510 659L545 691L597 633L490 633L490 600Q521 588 544.50 577.50Q568 567 578 555L578 555Q601 532 584 496L584 496Q565 462 548 500L548 500Q538 516 523.50 537.50Q509 559 490 581L490 581L490 441Q490 389 493 373L493 373ZM753 610L753 610L753 453Q753 395 756 376L756 376L698 353Q698 373 701 418Q704 463 704 535L704 535Q649 447 548 380L548 380L539 389Q663 519 698 636L698 636Q662 636 636 623L636 623L607 656L704 656Q704 711 701 746.50Q698 782 698 802L698 802L779 763L753 733L753 656L815 656L854 691L915 629L760 629Q832 478 935 435L935 435L935 422Q876 422 867 392L867 392Q800 464 753 610Z"/></svg>