<svg id="U20831" viewBox="0 0 1024 1024"><path transform="translate(0, 921.6) scale(1,-1)" d="M687 677L687 677L768 646L741 623L741 325L741 227Q741 204 742 182Q743 160 745 140L745 140L687 117Q687 157 689 200.50Q691 244 691 295L691 295L691 557Q691 583 689 614.50Q687 646 687 677ZM841 2L841 2L841 602Q841 651 838 701.50Q835 752 835 804L835 804L920 777L889 744L889-21Q889-78 802-98L802-98Q802-49 704-25L704-25L704-8Q841-27 841 2ZM551 579L430 579L430 605L551 605L551 579ZM554 502L427 502L427 528L554 528L554 502ZM280 502L146 502L146 528L280 528L280 502ZM280 579L160 579L160 605L280 605L280 579ZM137 325L191 325L191 410L137 410L137 325ZM379 410L332 410L332 325L379 325L379 410ZM567 325L567 413L510 413L510 325L567 325ZM322-31L322 203L194 203Q168 203 147.50 199Q127 195 108 191L108 191L73 229L528 229L567 273L633 203L497 203L554 164L531 153L510 120Q605 76 589 28L589 28Q572-24 554 22L554 22Q542 48 530 69Q518 90 501 107L501 107Q490 81 467.50 54Q445 27 414-4L414-4L401 2Q432 52 455 101Q478 150 490 203L490 203L373 203L373-31L558-31L605 8L669-60L153-60Q100-60 66-70L66-70L28-31L322-31ZM468 271L468 470L507 443L567 443L586 474L630 433L611 410L611 289L567 276L567 295L510 295L510 282L468 271ZM332 440L376 440L395 474L443 440L427 413L427 286L379 271L379 295L332 295L332 273L283 264L283 464L332 440ZM255 440L235 413L235 289L191 273L191 295L137 295L137 282L89 264L89 467L137 440L191 440L207 470L255 440ZM255 153L223 137L204 110Q250 87 267.50 66Q285 45 274 28L274 28Q256-18 242 19L242 19Q237 33 227 51.50Q217 70 197 96L197 96Q174 66 148 40Q122 14 89-11L89-11L83-1Q160 93 194 197L194 197L255 153ZM332 677L332 741L238 741Q212 741 192 737Q172 733 156 728L156 728L118 767L494 767L534 804L599 741L379 741L379 677L599 677L627 709L679 656Q629 636 576 563L576 563L561 566Q572 591 581.50 611Q591 631 599 649L599 649L379 649L379 617Q379 588 379.50 560Q380 532 383 505L383 505L325 484Q330 512 331 541Q332 570 332 602L332 602L332 649L124 649Q129 590 108 569L108 569Q88 543 60 557L60 557Q37 566 63 599L63 599Q99 632 108 709L108 709L124 709L124 677L332 677Z"/></svg>