<svg id="U206B0" viewBox="0 0 1024 1024"><path transform="translate(0, 921.6) scale(1,-1)" d="M343 759L256 796Q252 751 241.50 687Q231 623 218 535L218 535Q167 528 123 527Q79 526 39 526L39 526L60 464Q86 467 125 476.50Q164 486 212 495L212 495Q192 398 171.50 323Q151 248 136 194L136 194Q176 181 223 163Q270 145 330 122L330 122Q260 5 60-84L60-84L63-96Q281-40 374 99L374 99Q402 81 427 61.50Q452 42 468 22L468 22Q504-10 516 12L516 12Q520 42 506 75L506 75Q491 104 400 146L400 146Q439 260 478 526L478 526L543 535L540 555L481 552L484 579L509 611L432 633L424 546L271 539Q279 592 288 641Q297 690 308 737L308 737L343 759ZM193 209L193 209Q221 310 238.50 382.50Q256 455 265 502L265 502L424 520Q408 394 388 304.50Q368 215 349 159L349 159Q289 178 250.50 191Q212 204 193 209ZM685 654L600 686Q600 638 601.50 589Q603 540 603 483L603 483L603 272Q603 254 601.50 211Q600 168 600 105L600 105L663 128Q658 162 657.50 190.50Q657 219 657 245L657 245L657 630L685 654ZM820 623L820 623L820 40Q820 2 788 2L788 2Q736 2 666 14L666 14L666-4Q789-28 795-90L795-90Q836-70 856-45Q876-20 874 14L874 14L874 737L905 768L817 796Q817 764 818.50 722Q820 680 820 623Z"/></svg>