<svg id="U20BAE" viewBox="0 0 1024 1024"><path transform="translate(0, 921.6) scale(1,-1)" d="M769 805L769 805L823 719L769 723Q737 718 675 710.50Q613 703 517 696L517 696Q487 584 446 498L446 498L809 498L869 544L944 472L440 472Q419 434 395 397Q371 360 343 316L343 316L376 297L750 297L783 333L845 273L812 251L812 105Q812 59 812.50 17.50Q813-24 818-69L818-69L753-89L753-33L376-33L376-72L317-95Q320-40 320.50 2.50Q321 45 321 82L321 82L321 281Q258 203 184.50 142.50Q111 82 30 36L30 36L20 49Q79 96 130 148Q181 200 228 251L228 251Q271 304 308 357Q345 410 373 472L373 472L135 472Q115 466 97 463.50Q79 461 60 459L60 459L20 498L383 498Q411 560 430.50 608Q450 656 455 691L455 691Q343 679 271 677Q199 675 159 680L159 680L159 696Q388 711 540 736.50Q692 762 769 805ZM753 270L376 270L376-7L753-7L753 270Z"/></svg>