<svg id="U2002E" viewBox="0 0 1024 1024"><path transform="translate(0, 921.6) scale(1,-1)" d="M118 711L80 746L813 746L877 799L944 721L236 721Q191 718 161.50 717Q132 716 118 711L118 711ZM845 621L845 621Q907 587 903 538L903 538Q899 484 839 545L839 545Q804 574 748 610.50Q692 647 605 686L605 686L612 705Q699 676 756 655.50Q813 635 845 621ZM377 718L377 718L436 657L406 643Q250 543 93 493L93 493L89 510Q274 596 377 718ZM852 458L852 108Q852 57 852.50 18Q853-21 858-53L858-53L801-83L801-25L230-25L230-70L173-92Q175-37 175.50 41.50Q176 120 176 227L176 227Q176 334 175.50 405.50Q175 477 173 519L173 519L236 493L791 493L822 536L884 488L852 458ZM801 464L230 464L230 4L801 4L801 464ZM278 368L288 385Q411 326 532 266L532 266Q574 311 608.50 359Q643 407 672 458L672 458L739 385L708 374Q672 338 638.50 304.50Q605 271 576 240L576 240Q650 194 696 162.50Q742 131 753 111L753 111Q774 80 765 41L765 41Q759 2 720 48L720 48Q697 68 678.50 88Q660 108 640 125L640 125Q617 141 595 159Q573 177 544 201L544 201Q472 140 399 95Q326 50 249 22L249 22L240 35Q312 77 375.50 125Q439 173 496 230L496 230Q444 265 390 299Q336 333 278 368L278 368Z"/></svg>