<svg id="U20EFC" viewBox="0 0 1024 1024"><path transform="translate(0, 921.6) scale(1,-1)" d="M219 178L219 668L110 668L110 178L219 178ZM110 59L54 32Q58 62 59 93.50Q60 125 60 158L60 158L60 546Q60 594 59 640Q58 686 54 731L54 731L113 695L216 695L246 735L306 678L273 649L273 208L273 139Q273 106 276 72L276 72L219 39L219 151L110 151L110 59ZM743 572L683 552Q683 582 685 610Q687 638 687 665L687 665L518 665L518 618Q518 596 521 572L521 572L462 549Q462 579 463.50 607Q465 635 465 665L465 665L415 665Q395 665 375.50 661Q356 657 339 655L339 655L299 692L465 692Q465 724 463.50 756Q462 788 462 818L462 818L541 791L518 758L518 692L687 692Q687 734 685 765.50Q683 797 683 818L683 818L766 791L740 758L740 692L819 692L866 731L932 665L740 665L740 618Q740 596 743 572L743 572ZM352 489L319 529L770 529L829 569L899 503L435 503Q389 503 352 489L352 489ZM392 430L392 430L451 397L746 397L780 433L839 380L806 357L806 281L806 221Q806 194 809 175L809 175L750 155L750 181L445 181L445 175L392 155Q394 184 394.50 214.50Q395 245 395 281L395 281Q395 313 394.50 351.50Q394 390 392 430ZM750 367L445 367L445 208L750 208L750 367ZM399 122L408 135Q491 88 521 52L521 52Q548 14 521-17L521-17Q498-39 478-7L478-7Q472 10 463 25.50Q454 41 445 59L445 59Q435 73 423 88.50Q411 104 399 122L399 122ZM306-86L269-50L624-50Q659 15 680 59L680 59Q687 83 695.50 106.50Q704 130 710 155L710 155L793 105L750 82Q712 27 688-7.50Q664-42 657-50L657-50L826-50L879-7L949-80L382-80Q340-80 306-86L306-86Z"/></svg>