<svg id="U20C54" viewBox="0 0 1024 1024"><path transform="translate(0, 921.6) scale(1,-1)" d="M100 678L240 678L240 191L100 191L100 678ZM40 44L40 44L100 71L100 161L240 161L240 50L303 80Q300 117 300 151L300 151L300 220L300 661L340 684L280 748L240 708L100 708L40 745Q42 698 42.50 651Q43 604 43 554L43 554L43 170Q43 132 42.50 101.50Q42 71 40 44ZM438 628L438 628L844 628L804 528L817 521Q852 562 882.50 588Q913 614 944 621L944 621L881 691L844 655L433 655L433 698L414 698Q399 619 364 575L364 575Q330 533 354 521L354 521Q382 502 411 525L411 525Q438 547 438 628ZM568 835L568 835L554 821Q612 746 634 695L634 695Q654 649 677 688L677 688Q706 720 684 755L684 755Q674 769 644.50 788Q615 807 568 835ZM681 451L681 451L681 401L311 401L347 361Q364 363 385.50 366Q407 369 427 374L427 374L681 374L681 37Q675-4 647-10L647-10Q627-10 593.50-8Q560-6 510-3L510-3L510-16Q632-42 647-105L647-105Q738-63 738 7L738 7L738 374L924 374L868 445L817 401L738 401L738 488L771 517L677 561Q677 530 679 503Q681 476 681 451ZM430 301L430 301L417 291Q454 235 475.50 196.50Q497 158 507 130L507 130Q514 100 526 97.50Q538 95 554 120L554 120Q582 169 554 204L554 204Q540 219 509.50 243.50Q479 268 430 301Z"/></svg>