<svg id="U2024F" viewBox="0 0 1024 1024"><path transform="translate(0, 921.6) scale(1,-1)" d="M497 815L497 815L572 776L549 756L513 696L733 696L762 732L825 683L791 657Q750 610 716.50 573Q683 536 653 512L653 512Q703 481 773 463Q843 445 937 440L937 440L937 423Q867 407 858 368L858 368Q780 391 721.50 418Q663 445 618 483L618 483Q487 379 294 321L294 321L292 337Q377 371 446.50 414.50Q516 458 581 512L581 512Q543 544 517 577Q491 610 473 637L473 637Q446 595 409 557Q372 519 325 483L325 483L315 492Q347 528 374 568.50Q401 609 427 653L427 653Q451 698 467 738.50Q483 779 497 815ZM349 309L578 309Q578 332 576 360Q574 388 574 423L574 423L669 377L634 349L634 309L772 309L815 349L881 282L634 282L634 187L752 187L791 224L850 161L634 161L634 62L825 62L870 102L934 35L634 35L634-19Q634-35 634.50-52Q635-69 638-95L638-95L574-118Q574-98 576-60Q578-22 578 35L578 35L407 35Q384 35 366 31.50Q348 28 331 25L331 25L294 62L578 62L578 161L486 161Q443 161 410 150L410 150L374 187L578 187L578 282L457 282Q437 282 418.50 279.50Q400 277 384 272L384 272L349 309ZM729 669L499 669L486 653Q533 589 614 541L614 541Q640 565 670 598Q700 631 729 669L729 669ZM236-85L181-115Q183-61 183.50-8.50Q184 44 184 102L184 102L184 486Q102 381 33 321L33 321L26 331Q53 361 73.50 392Q94 423 111 452L111 452Q134 482 157 524.50Q180 567 210 624L210 624Q240 675 260 722Q280 769 294 811L294 811L369 765Q357 755 343 737.50Q329 720 313 692L313 692Q295 663 273.50 627Q252 591 223 545L223 545L266 516L236 489L236-85Z"/></svg>