<svg id="U20631" viewBox="0 0 1024 1024"><path transform="translate(0, 921.6) scale(1,-1)" d="M892 14L892 14L931 190L946 190Q939 140 936.50 103.50Q934 67 934 36L934 36Q934-27 946-91L946-91Q850-61 793 65L793 65Q736 197 736 375L736 375L736 556Q736 642 739 731L739 731L262 731Q265 568 260 465Q255 362 246 312L246 312Q241 258 227 210.50Q213 163 195 116L195 116Q172 71 140.50 24Q109-23 67-74L67-74L57-62Q88-12 110 33.50Q132 79 150 122L150 122Q168 169 179.50 220.50Q191 272 198 334L198 334Q204 393 205 507.50Q206 622 204 795L204 795L266 756L739 756L761 792L818 744L793 718Q790 635 790 559L790 559L790 408Q790 258 812 171L812 171Q838 73 892 14ZM630 690L630 690L678 625Q666 617 604 587L604 587Q580 568 543.50 546.50Q507 525 460 500L460 500Q368 454 303 437L303 437L300 452Q362 481 416.50 512.50Q471 544 515 580L515 580Q562 616 590 644Q618 672 630 690ZM650 488L650 488L701 420Q683 413 661 399.50Q639 386 604 369L604 369Q578 348 540.50 328Q503 308 460 289L460 289Q417 268 376.50 252.50Q336 237 300 226L300 226L297 241Q407 286 499 353L499 353Q594 414 650 488ZM675 241L675 241L723 171Q700 171 636 136L636 136Q568 100 473 62L473 62Q421 44 371 30Q321 16 266 5L266 5L266 24Q304 35 343 50Q382 65 431 85L431 85Q478 101 516.50 124Q555 147 591 174L591 174Q649 212 675 241Z"/></svg>