<svg id="U20F40" viewBox="0 0 1024 1024"><path transform="translate(0, 921.6) scale(1,-1)" d="M103 651L200 651L200 171L103 171L103 651ZM48 29L48 29L103 62L103 145L200 145L200 62L251 94Q248 125 248 160L248 160L248 229L248 641L274 670L222 719L200 680L103 680L48 719Q51 671 51.50 624Q52 577 52 532L52 532L52 152Q52 120 51.50 89Q51 58 48 29ZM483 764L409 806Q360 503 238 294L238 294L248 284Q277 326 302.50 364.50Q328 403 348 442L348 442L348 65Q348 20 347.50-20Q347-60 345-102L345-102L403-70Q400-36 400 1L400 1L400 75L400 480L422 503L387 525Q401 556 417 611Q433 666 458 744L458 744L483 764ZM496 374L496 374L548 400L548 438L644 438L644 326L522 326L464 361Q464 315 465.50 258.50Q467 202 467 132L467 132Q467 63 465.50 9.50Q464-44 464-89L464-89L519-66L519 300L644 300L644 152Q608 144 579 138Q550 132 532 132L532 132L570 68Q583 75 600 83.50Q617 92 638 103L638 103Q659 110 690 122Q721 134 763 149L763 149Q769 94 776 81L776 81Q782 60 805 87L805 87Q833 115 809 165L809 165Q799 186 779 210Q759 234 738 261L738 261L725 252Q738 218 745.50 198Q753 178 757 171L757 171L696 161L696 300L838 300L838 23Q838-12 809-12L809-12Q791-12 769-9.50Q747-7 718-5L718-5L718-15Q803-34 821-92L821-92Q886-69 886 4L886 4L886 281L915 310L863 361L834 326L696 326L696 438L789 438L789 393L847 419Q844 447 844 478L844 478L844 538L844 709L876 732L825 783L796 751L548 751L496 786Q496 738 497.50 688Q499 638 499 583L499 583Q499 526 497.50 475.50Q496 425 496 374ZM696 606L696 725L789 725L789 606L696 606ZM696 580L789 580L789 464L696 464L696 580ZM548 580L644 580L644 464L548 464L548 580ZM548 725L644 725L644 606L548 606L548 725Z"/></svg>