<svg id="U20023" viewBox="0 0 1024 1024"><path transform="translate(0, 921.6) scale(1,-1)" d="M99 711L58 751L842 751L902 803L973 722L186 722Q157 722 135.50 719.50Q114 717 99 711L99 711ZM65-84L51-75Q125 18 152 123L152 123Q162 175 168.50 228.50Q175 282 175 339L175 339Q178 391 176 449.50Q174 508 172 570L172 570L230 536L311 536L311 634Q311 651 310.50 671.50Q310 692 306 715L306 715L395 681L364 651L364 536L445 536L471 577L529 533L499 503L499 56Q488-14 573-14L573-14L842-14Q879-8 889 52L889 52Q891 85 894.50 112Q898 139 898 160L898 160L916 160Q916 141 917 120Q918 99 926 69L926 69Q930 11 973-4L973-4Q941-65 869-65L869-65L532-65Q443-65 448 39L448 39L448 510L364 510L364 193Q364 131 364.50 69.50Q365 8 368-55L368-55L306-84Q310-38 310.50 9Q311 56 311 109L311 109L311 510L230 510Q234 413 230.50 338.50Q227 264 219 214L219 214Q209 160 199.50 121Q190 82 172 49L172 49Q157 19 131-13.50Q105-46 65-84L65-84ZM694 614L694 503L767 503L818 547L879 473L694 473L694 362Q683 308 734 308L734 308L798 308Q819 308 832 321L832 321Q848 331 889 288L889 288Q889 256 782 261L782 261L714 261Q632 250 640 342L640 342L640 473L589 473L552 466L515 503L640 503L640 570Q640 600 638 628Q636 656 636 681L636 681L724 641L694 614ZM576 130L539 164L767 164L825 214L889 136L670 136Q639 136 615 134Q591 132 576 130L576 130Z"/></svg>