<svg id="U205B1" viewBox="0 0 1000 1000"><path transform="translate(0, 900) scale(1,-1)" d="M67 733C128 685 200 614 233 567L293 624C258 670 184 737 123 783ZM37 55L105 4C164 105 235 238 289 351L230 401C172 279 92 138 37 55ZM426 663C407 554 375 406 350 318L424 309L442 381L700 381L700 224C634 252 567 278 505 298L462 238C537 213 621 180 700 145L700-80L775-80L775 111C834 83 887 56 927 32L970 98C919 126 850 159 775 192L775 381L961 381L961 453L775 453L775 712L945 712L945 784L376 784L376 712L700 712L700 453L458 453C473 520 488 593 499 655Z"/></svg>