<svg id="U2059B" viewBox="0 0 1024 1024"><path transform="translate(0, 921.6) scale(1,-1)" d="M849 733L789 627L808 618Q883 715 961 727L961 727L888 797L846 758L172 758L172 810L147 810Q134 731 85 678L85 678Q43 636 82 630L82 630Q124 615 147 653L147 653Q161 667 168 687Q175 707 172 733L172 733L849 733ZM376-36L376 164L438 196L438 205L376 187L376 573L444 573L383 637L341 599L89 599L121 570L159 573L176 573L176 136L102 116L137 44Q207 98 326 145L326 145L326-71L376-36ZM224 458L224 573L326 573L326 458L224 458ZM224 299L224 433L326 433L326 299L224 299ZM224 145L224 273L326 273L326 174L224 145ZM712-46L712 541L814 541L814 184Q810 158 795 158L795 158Q781 153 725 167L725 167L725 155Q745 143 756.50 133.50Q768 124 773 119L773 119Q786 103 786 78L786 78Q804 85 818.50 94Q833 103 843 110L843 110Q847 118 851.50 132.50Q856 147 863 167L863 167L863 535L891 558L837 603L808 570L715 570L658 599Q658 552 661 470.50Q664 389 664 264L664 264Q664 139 661 57Q658-25 658-74L658-74L712-46ZM450 202L450 202L479 145Q504 171 527.50 190.50Q551 210 572 225L572 225Q564 186 553.50 147Q543 108 527 68L527 68Q503 30 469.50-4Q436-38 390-68L390-68L396-74Q446-55 487.50-26.50Q529 2 555 46L555 46Q610 122 620 241L620 241L620 458L645 481L569 516Q569 444 570.50 380Q572 316 572 253L572 253L511 228L511 551Q561 575 596 592.50Q631 610 649 615L649 615L597 675Q580 646 559.50 620.50Q539 595 511 573L511 573L457 603Q457 556 458.50 511.50Q460 467 460 423L460 423L460 247Q460 222 450 202Z"/></svg>