<svg id="U201FE" viewBox="0 0 1024 1024"><path transform="translate(0, 921.6) scale(1,-1)" d="M579 493L579 493L579-11L640-11L640 539Q669 393 723.50 287.50Q778 182 857 113L857 113Q887 148 940 148L940 148L940 169Q771 240 646 549L646 549L920 549L860 623L813 575L640 575L640 736L669 766L576 809Q576 776 577.50 738Q579 700 579 663L579 663L579 575L309 575L343 543Q362 545 380.50 547Q399 549 419 549L419 549L536 549Q452 306 279 109L279 109L292 95Q488 275 579 493ZM806-5L269-5L300-44Q327-31 379-31L379-31L947-31L867 52L806-5ZM173-108L173-108L233-77L233 503L263 529L216 562Q243 608 264.50 643.50Q286 679 309 710L309 710Q346 760 363 773L363 773L292 833Q277 789 256.50 742.50Q236 696 205 643L205 643Q175 585 150.50 542Q126 499 106 469L106 469Q87 438 65.50 407Q44 376 16 346L16 346L25 336Q58 366 96.50 406.50Q135 447 176 503L176 503L176 113Q176 54 175.50 1Q175-52 173-108Z"/></svg>