<svg id="U206A1" viewBox="0 0 1024 1024"><path transform="translate(0, 921.6) scale(1,-1)" d="M871 648L923 648L923 524L923-56L159-56L104-56L104 2L104 448L104 648L153 648L153 524L153-17L871-17L871 648ZM146 343L230 343L230 318L146 318L146 343ZM798 621L798 648L881 648L881 621L798 621ZM532 52L532-28L503-28L503 52L532 52ZM680 816L719 747Q682 745 643 741Q604 737 557 732L557 732Q510 723 455.50 720.50Q401 718 337 718L337 718L331 732Q408 741 485.50 758Q563 775 642 799L642 799L680 816ZM327 670L327 670L341 682Q392 645 413 621L413 621Q441 590 427 567L427 567Q417 541 406 541L406 541Q392 535 380 580L380 580Q373 601 359.50 623.50Q346 646 327 670ZM461 706L461 706L470 718Q495 695 510 676Q525 657 532 645L532 645Q540 630 543.50 616.50Q547 603 547 589L547 589Q542 567 525 567L525 567Q507 567 503 609L503 609Q498 630 487 654Q476 678 461 706ZM671 718L671 718L736 677L704 657Q672 615 642 584.50Q612 554 586 531L586 531L577 544Q586 558 600.50 577.50Q615 597 629 621L629 621Q641 642 652 668.50Q663 695 671 718ZM467 567L467 567L506 517Q483 512 450 505Q417 498 376 486L376 486L376 362L421 362L461 391L503 337L376 337L376 201L662 201L662 337L652 337Q629 331 611.50 328.50Q594 326 577 323L577 323L542 362L662 362L662 482L632 482Q612 479 595 475Q578 471 561 469L561 469L525 508L652 508L687 541L725 486L704 469L704 197L707 145L662 120L662 171L376 171L376 125L327 111Q330 149 330.50 200Q331 251 331 320L331 320Q331 383 330.50 434Q330 485 327 524L327 524L376 505Q410 522 433 537.50Q456 553 467 567ZM761 648L804 648L804 524L804 42L266 42L224 38L224 87L224 462L224 648L266 648L266 524L266 67L761 67L761 648ZM146 621L146 648L230 648L230 621L146 621ZM798 343L881 343L881 318L798 318L798 343ZM263 52L153-34L136-11L237 81L263 52ZM791 77L891-14L869-37L772 48L791 77Z"/></svg>