<svg id="U20BDC" viewBox="0 0 1024 1024"><path transform="translate(0, 921.6) scale(1,-1)" d="M260 188L260 650L117 650L117 188L260 188ZM117 74L58 48Q62 77 63 106.50Q64 136 64 168L64 168L64 545Q64 583 63 624.50Q62 666 58 711L58 711L124 674L254 674L306 724L366 653L316 629L316 221Q316 184 316.50 151.50Q317 119 319 86L319 86L260 54L260 162L117 162L117 74ZM588-8L588 8Q751-17 773 2L773 2Q789 9 797.50 29Q806 49 816 74L816 74Q824 99 832 236Q840 373 848 626L848 626L542 626Q446 451 339 387L339 387L333 404Q385 456 423 516.50Q461 577 486 646L486 646Q532 772 532 816L532 816L617 767L591 747Q579 721 568 698.50Q557 676 552 653L552 653L842 653L881 691L939 632L905 607Q896 359 887.50 221Q879 83 875 54L875 54Q867 30 857 4Q847-22 835-40L835-40Q809-79 744-101L744-101Q700-28 588-8L588-8ZM415 104L382 181Q412 181 437 224L437 224Q451 241 467.50 272Q484 303 509 345L509 345Q528 384 543 433.50Q558 483 567 535L567 535L653 472L617 456Q586 396 545 330Q504 264 451 186L451 186L672 204Q660 258 647.50 294Q635 330 624 352L624 352L639 368Q698 285 738 214L738 214Q779 139 744 104L744 104Q710 61 703 83L703 83Q693 93 679 175L679 175Q494 140 415 104L415 104Z"/></svg>