<svg id="U20468" viewBox="0 0 1024 1024"><path transform="translate(0, 921.6) scale(1,-1)" d="M166-95L166-95L216-67L216 492L236 510L192 541Q210 589 227.50 627.50Q245 666 259 694L259 694Q273 720 284.50 734Q296 748 303 751L303 751L230 803Q220 755 205.50 709Q191 663 171 609L171 609Q152 558 136.50 518.50Q121 479 106 446L106 446Q89 413 71.50 383.50Q54 354 35 324L35 324L49 316Q72 350 104.50 391Q137 432 169 492L169 492L169 113Q169 68 168.50 18Q168-32 166-95ZM369 548L369 622L505 622L505 548L369 548ZM315-85L315-85L369-63L369 522L505 522L505 504L552 527Q549 566 549 600L549 600L549 676L549 717L576 729L529 780L500 751L374 751L315 778Q320 721 321 668Q322 615 322 565L322 565L322 138Q322 85 321 30Q320-25 315-85ZM369 647L369 723L505 723L505 647L369 647ZM699 548L699 622L835 622L835 548L699 548ZM643 488L643 488L699 506L699 522L835 522L835 16Q835-7 825-11L825-11Q820-16 715-5L715-5L715-25Q742-28 758.50-33Q775-38 784-44L784-44Q801-64 806-88L806-88Q849-75 867-51L867-51Q877-40 880.50-28.50Q884-17 884-3L884-3L884 713L918 729L867 780L838 751L702 751L643 780Q643 754 644.50 724Q646 694 646 660L646 660Q646 622 644.50 579Q643 536 643 488ZM699 647L699 723L835 723L835 647L699 647ZM597 149L597 367L637 367L599 421L565 394L529 394L529 440L597 440L549 495L523 466L424 466L458 430L492 440L492 394L377 394L402 364L427 367L442 367L442 130L386 125L424 71Q462 102 552 130L552 130Q552 105 550.50 73.50Q549 42 549 0L549 0L599 23Q598 34 597.50 48Q597 62 597 78L597 78L597 149ZM486 312L486 367L552 367L552 312L486 312ZM486 233L486 288L552 288L552 233L486 233ZM552 157L486 140L486 208L552 208L552 157ZM613 226L640 270Q653 241 662.50 220Q672 199 686 179L686 179Q663 141 638.50 109Q614 77 586 54L586 54L599 40Q628 61 655 86Q682 111 707 149L707 149Q724 117 742.50 92.50Q761 68 781 51L781 51Q791 83 835 71L835 71L835 85Q803 102 775.50 125Q748 148 726 179L726 179Q743 208 756 247Q769 286 778 331L778 331L819 331L778 390L746 361L679 361Q698 399 711 420.50Q724 442 736 449L736 449L670 486Q668 462 662 435.50Q656 409 646 377L646 377Q639 342 628 307Q617 272 602 230L602 230L613 226ZM649 290L649 290L670 331L729 331Q727 304 720 276Q713 248 702 216L702 216Q687 236 674 254.50Q661 273 649 290Z"/></svg>