<svg id="U20E6F" viewBox="0 0 1024 1024"><path transform="translate(0, 921.6) scale(1,-1)" d="M198 181L198 671L105 671L105 181L198 181ZM105 70L50 37Q52 68 52.50 99Q53 130 53 162L53 162L53 550Q53 598 52.50 646Q52 694 50 741L50 741L105 702L198 702L227 744L280 685L250 652L250 218L250 147Q250 110 253 79L253 79L198 44L198 155L105 155L105 70ZM395 485L395 485L458 744L362 744L362 207Q389 202 408.50 203Q428 204 441 207L441 207Q461 219 461 300L461 300Q456 377 395 485ZM362-77L310-100Q312-60 312.50-20.50Q313 19 313 70L313 70L313 662Q313 697 312.50 731Q312 765 310 800L310 800L359 770L454 770L480 807L537 754L503 728Q481 668 459 606.50Q437 545 418 485L418 485Q496 387 514 303L514 303Q518 224 497 192L497 192Q474 145 424 125L424 125Q413 174 362 195L362 195L362-77ZM556 451L556 668Q556 710 554 744Q552 778 552 807L552 807L632 767L606 741L606 612L641 612L677 645L723 586L606 586L606 418L717 468L720 451Q619 381 583 329L583 329L537 378Q556 387 556 451L556 451ZM734 409L734 679Q734 710 731 742.50Q728 775 728 813L728 813L806 773L783 744L783 572Q810 609 831 642.50Q852 676 868 705L868 705L911 652Q891 642 873.50 630Q856 618 839 606L839 606Q823 593 809 579.50Q795 566 783 557L783 557L783 435Q779 384 803 389L803 389L842 389Q871 385 871 422L871 422Q876 442 877.50 468Q879 494 879 526L879 526L891 526Q891 488 892 462.50Q893 437 902 425L902 425Q906 399 938 386L938 386Q913 343 865 343L865 343L786 343Q734 343 734 409L734 409ZM537 207L681 207Q681 261 679 303Q677 345 677 375L677 375L750 336L734 313L734 207L780 207L825 247L885 181L734 181L734-3L842-3L891 40L951-28L583-28Q544-28 510-37L510-37L474-3L681-3L681 181L665 181Q612 181 572 172L572 172L537 207Z"/></svg>