<svg id="U207F9" viewBox="0 0 1024 1024"><path transform="translate(0, 921.6) scale(1,-1)" d="M784 743L784 743L442 743Q411 648 325 595L325 595Q286 569 219 549Q152 529 57 514L57 514L54 530Q204 560 277 611L277 611Q313 637 340.50 668.50Q368 700 384 743L384 743L235 743Q213 738 193 737Q173 736 154 734L154 734L115 769L784 769L814 805L874 763L848 737Q826 605 797 572L797 572Q767 538 697 527L697 527Q686 579 577 598L577 598L580 614Q725 584 748 607L748 607Q775 632 784 743ZM135 459L96 495L335 495L370 530L422 472Q401 467 382 458Q363 449 342 436L342 436Q324 427 306.50 413Q289 399 271 385L271 385Q310 360 290 327L290 327Q268 294 241 330L241 330Q229 346 206 369Q183 392 145 414L145 414L157 427Q184 417 206.50 409Q229 401 251 394L251 394L322 469L216 469Q166 469 135 459L135 459ZM345 207L335 214L374 291L283 291L283 10Q283-54 212-82L212-82Q193-29 100-9L100-9L100 10Q143 7 170.50 3.50Q198 0 206 0L206 0Q232 0 232 16L232 16L232 291L154 291Q132 291 112.50 289Q93 287 73 285L73 285L31 317L374 317L409 356L461 298Q447 291 435.50 285Q424 279 413 271L413 271Q398 259 382 244Q366 229 345 207L345 207ZM478 459L442 495L820 495L871 537L932 469L694 469Q664 439 645 421.50Q626 404 619 391L619 391L794 391L820 430L878 388L856 359L856 148Q856 70 859 49L859 49L797 36L797 58L535 58L535 36L478 27Q478 41 479.50 82Q481 123 481 198L481 198Q481 272 479.50 324.50Q478 377 478 411L478 411L542 391L596 391Q601 416 607.50 433.50Q614 451 619 469L619 469L555 469Q507 469 478 459L478 459ZM574 55L574 55L635 7Q620 1 599.50-6.50Q579-14 548-31L548-31Q518-45 481-62Q444-79 403-98L403-98L394-86Q463-41 508-5.50Q553 30 574 55ZM713 39L719 52Q770 36 804.50 20Q839 4 859-11L859-11Q894-44 878-82L878-82Q852-117 820-59L820-59Q778 0 713 39L713 39ZM797 366L535 366L535 288L797 288L797 366ZM797 259L535 259L535 187L797 187L797 259ZM797 159L535 159L535 88L797 88L797 159Z"/></svg>