<svg id="U20D32" viewBox="0 0 1000 1000"><path transform="translate(0, 900) scale(1,-1)" d="M73 745L73 52L140 52L140 148L322 148L322 745ZM140 677L254 677L254 216L140 216ZM369 717L369 654L495 654C464 555 403 477 330 437C344 425 363 403 373 388C472 446 547 549 579 704L534 718L521 717ZM480 122L790 122L790 179L480 179L480 273L821 273L821 20L480 20ZM412 336L412-79L480-79L480-43L821-43L821-75L893-75L893 336ZM885 767C850 731 794 681 748 645C720 694 698 749 683 806L683 841L615 841L615 441C615 431 612 428 601 427C589 427 552 427 509 428C518 409 527 383 530 365C587 365 627 366 651 376C677 387 683 404 683 441L683 653C736 529 817 430 930 383C940 403 962 431 976 446C895 472 829 526 778 596C830 630 893 679 943 723Z"/></svg>