<svg id="U2025D" viewBox="0 0 1024 1024"><path transform="translate(0, 921.6) scale(1,-1)" d="M299-3L303 13Q400-15 417 20L417 20L417 295Q356 250 319 212L319 212L271 269Q335 297 417 345L417 345L417 538L404 538Q382 538 363 536.50Q344 535 327 529L327 529L299 564L417 564L417 637Q417 672 416 711Q415 750 410 795L410 795L498 756L464 728L464 564L477 564L515 605L572 538L464 538L464 364L581 431L590 415L464 329L464 4Q464-69 387-84L387-84Q378-22 299-3L299-3ZM875 493L837 481L683 317L846 317L869 356L925 314L903 285Q895 197 890 140.50Q885 84 878 58L878 58Q873 32 865.50 8Q858-16 846-37L846-37Q832-53 803.50-65Q775-77 732-84L732-84Q725-38 629-9L629-9L632 4Q677-4 708.50-9.50Q740-15 758-15L758-15Q796-3 815 26L815 26Q830 62 851 292L851 292L669 292L634 266L600 311L637 333L777 491L663 491Q610 491 581 481L581 481L542 520L789 520L819 544L875 493ZM672 792L672 792L758 756L729 728L729 649L809 649L851 687L903 624L729 624L729 510L675 510L675 693Q675 710 673.50 734Q672 758 672 792ZM230-64L173-93Q175-42 175.50 8Q176 58 176 115L176 115L176 485Q138 431 101 392.50Q64 354 34 326L34 326L28 336Q75 395 110 454L110 454Q128 481 151.50 521Q175 561 205 618L205 618Q233 669 252.50 712.50Q272 756 287 798L287 798L357 741Q346 736 332.50 720.50Q319 705 303 682L303 682Q283 652 261.50 618Q240 584 213 541L213 541L261 510L230 485L230-64Z"/></svg>