<svg id="U20C44" viewBox="0 0 1024 1024"><path transform="translate(0, 921.6) scale(1,-1)" d="M309 730L309 522L710 522L710 730L309 730ZM736 803L803 743L769 715L769 586L769 521Q769 491 772 467L772 467L710 444L710 494L309 494L309 461L247 438Q249 470 249.50 498.50Q250 527 250 553L250 553L250 703Q250 726 249.50 749.50Q249 773 247 796L247 796L313 756L701 756L736 803ZM779 339L638 339L638-35L779-35L779 339ZM171-35L171 296Q171 319 170.50 343.50Q170 368 168 391L168 391L231 366L776 366L819 401L879 342L839 323L839-35L855-35L915 19L980-60L162-60Q138-60 119-62Q100-64 82-68L82-68L43-35L171-35ZM365 339L231 339L231-35L365-35L365 339ZM579 339L424 339L424-35L579-35L579 339Z"/></svg>