<svg id="U21615" viewBox="0 0 1024 1024"><path transform="translate(0, 921.6) scale(1,-1)" d="M452 554L452 554L817 554L756 626L707 580L458 580Q466 609 474.50 634Q483 659 491 681L491 681L905 681L837 758L785 707L494 707L513 778L533 794L449 823Q449 752 436 707L436 707L115 707L151 674Q170 678 188.50 679.50Q207 681 225 681L225 681L429 681Q422 656 416 631.50Q410 607 403 580L403 580L151 580L187 545Q203 547 220.50 550.50Q238 554 258 554L258 554L394 554Q379 523 366.50 496Q354 469 345 448L345 448L60 448L96 416Q113 418 131.50 420Q150 422 170 422L170 422L329 422Q280 350 212.50 293.50Q145 237 54 186L54 186L57 170Q108 188 153.50 211.50Q199 235 238 267L238 267Q283 295 321 335.50Q359 376 394 422L394 422L633 422Q681 330 753 260L753 260Q792 226 826.50 200Q861 174 895 160L895 160Q926 215 970 215L970 215L970 228Q934 233 907 239.50Q880 246 863 254L863 254Q820 264 756 318L756 318Q730 338 704.50 364Q679 390 656 422L656 422L953 422L889 500L827 448L403 448Q412 469 424.50 496Q437 523 452 554ZM439 396L439 396L433 380Q492 326 510 299L510 299Q532 263 546 299L546 299Q554 335 526 361L526 361Q509 370 487.50 378Q466 386 439 396ZM830-69L830-69Q830-28 889-4L889-4L889 1Q826-2 752.50-6.50Q679-11 597-11L597-11Q438-11 352 66L352 66Q380 68 411 76.50Q442 85 471 95L471 95Q500 104 540.50 124.50Q581 145 630 170L630 170Q681 198 711 214Q741 230 753 238L753 238L707 296L675 273L238 273L274 238Q291 240 308.50 242Q326 244 348 244L348 244L675 244Q587 193 524 157.50Q461 122 416 108L416 108Q371 90 348.50 84.50Q326 79 319 79L319 79Q308 84 277 69L277 69Q248 60 151-37L151-37L199-79Q224-33 242.50-4.50Q261 24 274 37L274 37Q305 68 316 56L316 56Q333 49 352 24L352 24Q368 6 465-37L465-37Q510-53 599.50-62Q689-71 830-69Z"/></svg>