<svg id="U21ACF" viewBox="0 0 1024 1024"><path transform="translate(0, 921.6) scale(1,-1)" d="M836 609L823 612L849 690L178 690Q178 647 159 622L159 622Q137 594 103 603L103 603Q65 603 97 629L97 629Q109 641 117.50 654Q126 667 136 677L136 677Q143 689 149.50 707Q156 725 162 755L162 755L178 755L178 716L499 716Q491 737 473.50 765.50Q456 794 424 826L424 826L434 833Q538 797 548 775L548 775Q560 757 528 716L528 716L846 716L881 762L946 697Q897 685 836 609L836 609ZM194 632L194 632L201 642Q237 619 263 604Q289 589 301 577L301 577Q326 555 301 512L301 512Q278 477 262 522L262 522Q242 566 194 632ZM107 473L107 473L116 486Q219 430 227 405L227 405Q234 383 217 347L217 347Q194 312 178 366L178 366Q165 403 107 473ZM78 172L81 188Q158 173 185 178L185 178Q202 178 340 515L340 515L360 512Q318 391 294.50 322.50Q271 254 262 233L262 233Q252 211 246.50 191Q241 171 236 152L236 152Q231 117 236 26L236 26Q241-59 201-45L201-45Q164-20 168 29L168 29Q181 72 181 113L181 113Q181 141 78 172L78 172ZM742 554L742 603L522 603Q502 603 481.50 599Q461 595 444 593L444 593L405 629L735 629L765 664L820 622L787 596Q787 560 787.50 525Q788 490 794 457L794 457L742 444L742 463L528 463Q508 463 489 459.50Q470 456 454 454L454 454L418 489L742 489L742 528L548 528Q525 528 504 526Q483 524 467 522L467 522L434 554L742 554ZM379 450L379 450L389 450L395 415L843 415L865 450L927 373Q885 373 833 298L833 298L823 311L846 389L641 389L641 334L755 334L781 366L826 330L800 298L800 256Q795 195 742 191L742 191Q719 224 677 249L677 249L677 256Q754 235 758 266L758 266L758 308L641 308Q641 281 641.50 254Q642 227 645 198L645 198L586 178Q586 207 589.50 240Q593 273 593 308L593 308L486 308L486 211L434 191Q434 208 435.50 228.50Q437 249 437 269L437 269Q437 288 435.50 311Q434 334 434 356L434 356L486 334L593 334L593 389L389 389Q384 326 369 308L369 308Q355 288 334 298L334 298Q306 314 337 350L337 350Q364 382 379 450ZM402 123L369 165L742 165L778 188L839 133L797 123Q767 99 735 74.50Q703 50 667 26L667 26Q712 3 775-12Q838-27 923-32L923-32L923-48Q858-43 846-83L846-83Q801-73 747.50-53Q694-33 628 3L628 3Q486-69 285-83L285-83L282-70Q432-56 580 23L580 23Q507 66 457 130L457 130Q439 130 425 127.50Q411 125 402 123L402 123ZM735 136L489 136Q508 114 539.50 90Q571 66 619 45L619 45Q655 66 684 90Q713 114 735 136L735 136Z"/></svg>