<svg id="U21F49" viewBox="0 0 1024 1024"><path transform="translate(0, 921.6) scale(1,-1)" d="M556 804L556 804L566 817Q599 800 624.50 787.50Q650 775 660 766L660 766Q688 745 679 723L679 723Q675 699 660 684L660 684Q639 670 631 714L631 714Q610 754 556 804ZM946 363L946 347Q896 347 890 318L890 318Q833 402 809 535L809 535L825 538Q839 499 853 469Q867 439 881 418L881 418Q906 382 946 363L946 363ZM436 525L436 525L394 519L365 555L514 555L537 584L589 545L566 522L566 379Q566 323 511 308L511 308Q506 337 459 357L459 357L459 373Q478 373 489 370Q500 367 508 367L508 367Q513 363 521 392L521 392L521 525L478 525Q478 382 368 298L368 298L358 308Q436 399 436 525ZM877 276L851 246Q851 134 851.50 56Q852-22 855-67L855-67L800-97L800 87L495 87Q469-53 313-97L313-97L310-84Q388-40 413 0L413 0Q444 55 449 136L449 136Q451 175 451.50 222Q452 269 452 318L452 318L527 282L504 263L504 240L800 240Q800 252 798 271.50Q796 291 796 318L796 318L877 276ZM498 117L800 117L800 214L504 214L498 117ZM407 652L371 684L835 684L881 727L939 658L478 658Q456 658 438.50 656Q421 654 407 652L407 652ZM676 318L624 295Q624 324 626 354Q628 384 628 418L628 418Q628 450 626 481Q624 512 624 542L624 542L654 532Q700 609 712 662L712 662L770 616Q739 597 667 516L667 516L699 500L673 477L673 385Q673 346 676 318L676 318ZM546 645L546 645L550 655Q582 636 601 623Q620 610 628 603L628 603Q637 579 637 561L637 561Q632 538 618 538L618 538Q597 530 589 577L589 577Q579 596 567 613Q555 630 546 645ZM754 298L718 344Q735 367 735 415L735 415Q735 449 733 484Q731 519 731 558L731 558L767 538Q838 575 858 613L858 613L907 555Q894 555 879.50 550.50Q865 546 848 542L848 542Q830 536 810 529.50Q790 523 774 519L774 519L774 376L829 399L835 386Q764 341 754 298L754 298ZM306 39L306 94L108 94L79 61L37 104L66 126L66 623L144 594L115 555L115 120L186 120Q186 433 185 605.50Q184 778 180 814L180 814L258 775L235 746L235 120L306 120Q306 329 305 453Q304 577 300 619L300 619L371 577L355 548L355 295L355 178Q355 122 358 68L358 68L306 39Z"/></svg>