<svg id="U21673" viewBox="0 0 1024 1024"><path transform="translate(0, 921.6) scale(1,-1)" d="M288 670L397 670L441 710L500 643L295 643Q282 643 278 607L278 607Q436 523 460 494L460 494Q489 459 470 428L470 428Q459 385 424 445L424 445Q406 472 367.50 507Q329 542 275 590L275 590Q239 505 150 434L150 434Q214 400 228 372L228 372Q253 335 215 302L215 302L285 302Q307 334 325 375Q343 416 358 464L358 464L424 418Q390 401 371 382L371 382Q363 369 347.50 349Q332 329 315 302L315 302L371 302L421 342L480 276L295 276L295 163L404 163L450 206L510 136L295 136L295 50L295-8Q295-38 298-78L298-78L238-101Q241-56 241.50-30Q242-4 242 4L242 4L242 136L145 136Q102 136 73 126L73 126L36 163L242 163L242 276L172 276Q149 276 131 272Q113 268 96 266L96 266L59 302L199 302Q189 355 132 421L132 421Q84 387 36 365L36 365L29 382Q192 484 228 643L228 643L175 643Q142 643 117.50 639.50Q93 636 76 633L76 633L40 670L235 670Q237 697 237.50 732.50Q238 768 238 816L238 816L318 786L295 756L288 670ZM480 494L467 504Q564 643 596 812L596 812L676 773Q657 773 593 643L593 643L871 643L898 686L954 643L924 607Q913 54 891-16L891-16Q863-82 788-105L788-105Q788-51 686-25L686-25L686-6Q816-34 835-3L835-3Q839 14 847 59Q855 104 858 176L858 176Q865 251 868.50 358Q872 465 875 614L875 614L583 614Q558 578 531 548Q504 518 480 494L480 494ZM523 461L523 461L523 484Q675 513 752 554L752 554L788 494Q735 494 679 484L679 484L679 359L715 359L759 398L812 332L679 332L679 236L752 236L795 276L848 209L679 209L679 37Q679-16 603-25L603-25Q603 13 523 30L523 30L523 44Q629 34 629 63L629 63L629 209L609 209Q530 209 520 199L520 199L487 236L629 236L629 332L623 332Q569 332 543 322L543 322L513 359L629 359L629 471Q601 466 574.50 463.50Q548 461 523 461Z"/></svg>