<svg id="U214F7" viewBox="0 0 1024 1024"><path transform="translate(0, 921.6) scale(1,-1)" d="M355 767L355 767L287 809Q279 782 262 751Q245 720 216 689L216 689Q186 655 149.50 617Q113 579 67 540L67 540L80 524Q125 553 158.50 580Q192 607 216 631L216 631Q268 677 307 725L307 725Q388 659 410 621L410 621Q425 574 443 602L443 602Q461 617 455 647L455 647Q449 675 420 686L420 686Q410 691 396.50 699Q383 707 368 712L368 712Q353 719 339 724Q325 729 316 735L316 735Q339 764 355 767ZM271 667L271 667L261 654Q285 634 294 615L294 615Q298 605 304 595Q310 585 313 573L313 573Q315 563 321 557.50Q327 552 332 560L332 560Q347 568 352 586L352 586Q357 601 339 625L339 625Q324 643 271 667ZM436 515L436 515L462 528L407 583L381 550L216 550L161 576Q165 558 166 473.50Q167 389 167 233L167 233Q167 211 154 188L154 188L193 126Q215 148 259.50 177Q304 206 371 243L371 243L362 252L213 204L213 327L388 327L388 304L439 333Q436 357 436 401L436 401Q436 446 436 515ZM213 450L213 524L388 524L388 450L213 450ZM213 353L213 424L388 424L388 353L213 353ZM316 307L316 307L310 301Q318 293 329.50 279.50Q341 266 355 249L355 249Q383 219 397 184L397 184Q414 139 430 155L430 155Q437 163 442 170Q447 177 449 184L449 184Q454 195 449 210L449 210Q449 226 410 256L410 256Q369 285 316 307ZM562 680L562 680Q502 555 436 489L436 489L443 476Q471 497 504.50 529.50Q538 562 572 608L572 608L701 608L701 534L536 534L572 502Q589 504 608.50 506Q628 508 650 508L650 508L938 508L886 566L841 534L753 534L753 608L889 608L837 667L799 634L595 634L617 680L951 680L893 744L850 706L630 706L653 751L672 767L601 799Q596 770 587.50 746Q579 722 572 706L572 706L462 706L498 670Q514 672 529.50 676Q545 680 562 680ZM601 463L546 489L546 330L546 175L595 201L595 288L834 288L834 256Q823 218 766 230L766 230L766 217Q807 206 818 168L818 168Q866 177 880 230L880 230L880 434L899 456L847 495L828 463L601 463ZM595 314L595 362L834 362L834 314L595 314ZM834 434L834 388L595 388L595 434L834 434ZM491 100L491 100L187 100L219 65Q240 67 258.50 69Q277 71 297 71L297 71L491 71L491-38L57-38L96-74Q113-71 130.50-69Q148-67 171-67L171-67L967-67L893 10L831-38L546-38L546 71L850 71L779 152L718 100L546 100L546 133L569 152L488 194Q488 172 489.50 146.50Q491 121 491 100Z"/></svg>