<svg id="U21DC6" viewBox="0 0 1024 1024"><path transform="translate(0, 921.6) scale(1,-1)" d="M112 133L112 133L163 161L163 190L376 190L376 139L430 165Q427 207 427 240L427 240L427 301L427 511L453 540L399 581L373 543L163 543L112 572Q114 521 114.50 465.50Q115 410 115 346L115 346Q115 280 114.50 226.50Q114 173 112 133ZM163 387L163 518L376 518L376 387L163 387ZM163 219L163 362L376 362L376 219L163 219ZM376 699L61 699L93 667Q130 673 160 673L160 673L494 673L430 746L376 699ZM926 88L926 88L926 476L949 502L869 540Q869 504 870.50 471.50Q872 439 872 413L872 413L872 7L748 7L748 737L780 766L691 801Q691 765 692.50 724.50Q694 684 694 642L694 642L694 7L570 7L570 467L596 495L516 537Q518 508 518.50 478.50Q519 449 519 416L519 416L519 15L497-9L545-54L573-22L872-22L872-67L930-44Q927-2 926.50 28.50Q926 59 926 88ZM370 60L55 60L87 25Q105 31 182 31L182 31L484 31L421 104L370 60Z"/></svg>