<svg id="U218A3" viewBox="0 0 1024 1024"><path transform="translate(0, 921.6) scale(1,-1)" d="M665 528L305 528L305 451L665 451L665 528ZM485 845L485 845L561 802L525 789Q577 743 630.50 709.50Q684 676 742 658L742 658Q796 640 849 629Q902 618 959 618L959 618L959 605Q887 589 879 551L879 551Q740 582 662 635L662 635Q620 662 581.50 696Q543 730 508 775L508 775Q468 737 424 705Q380 673 332 645L332 645L538 645L582 678L642 615L445 615Q389 615 355 605L355 605L327 642Q322 639 317 636.50Q312 634 308 632L308 632Q254 600 188 575.50Q122 551 44 535L44 535L37 551Q211 615 311 682L311 682Q368 719 411.50 761Q455 803 485 845ZM305 405L244 385Q247 409 247.50 434Q248 459 248 485L248 485Q248 507 247.50 531Q247 555 244 578L244 578L305 555L662 555L692 592L745 551L722 521L722 453Q722 426 725 411L725 411L665 391L665 425L305 425L305 405ZM301 311L201 311L201 238L301 238L301 311ZM301 208L201 208L201 121L301 121L301 208ZM772 161L772 325L685 325Q679 325 673 324.50Q667 324 661 324L661 324L712 308L695 298L695 188L732 218L772 161ZM648 323L648 323Q639 321 630 320Q621 319 612 318L612 318L575 351L765 351L799 388L855 331L822 311L822 31Q822-21 845-19L845-19L869-19Q887-19 902 31L902 31Q904 53 906.50 75.50Q909 98 909 121L909 121L925 121L925 34Q925-6 966-6L966-6Q953-26 944.50-39.50Q936-53 929-58L929-58Q922-62 902-62L902-62L819-62Q772-62 772 1L772 1L772 161L695 161L695 131Q695 110 686 86.50Q677 63 662 31L662 31Q633-31 541-92L541-92L535-82Q565-54 588-26.50Q611 1 622 31L622 31Q652 91 652 151L652 151L652 161Q632 160 618 157.50Q604 155 595 151L595 151L578 188L653 188Q653 214 651.50 247Q650 280 648 323ZM154 124L154 124Q154 215 153 275.50Q152 336 148 371L148 371L204 341L294 341L325 378L381 325L348 305L348-9Q343-47 328-58L328-58Q317-63 304.50-69Q292-75 278-82L278-82Q266-50 258-45L258-45Q244-31 208-19L208-19L208-6Q235-9 253-11Q271-13 281-13L281-13Q301-5 301 21L301 21L301 94L198 94Q191 67 181.50 44Q172 21 161 1L161 1Q132-48 57-108L57-108L47-95Q99-49 121 7L121 7Q143 49 154 124ZM485 104L485 104Q494 134 505.50 167.50Q517 201 525 241L525 241Q504 235 489 231Q474 227 465 224L465 224Q453 205 441 182.50Q429 160 418 134L418 134Q438 124 455 117.50Q472 111 485 104ZM455 398L515 365Q502 347 493 320.50Q484 294 475 264L475 264Q500 264 528 275L528 275L528 311L582 298L575 278L615 281L618 268Q606 262 595 259.50Q584 257 572 254L572 254Q547 161 518 91L518 91Q542 70 557 60Q572 50 575 48L575 48Q577 40 579.50 34Q582 28 582 21L582 21Q582 11 575-9L575-9Q570-23 551-3L551-3Q539 7 529.50 19.50Q520 32 505 48L505 48Q494 31 476.50 11.50Q459-8 435-29L435-29Q401-61 341-92L341-92L335-82Q344-71 360-56Q376-41 401-23L401-23Q421 2 438 24Q455 46 468 71L468 71Q445 86 423.50 100Q402 114 375 124L375 124Q392 158 402.50 182.50Q413 207 418 221L418 221Q405 215 393 210.50Q381 206 371 201L371 201L351 254Q369 254 390 254.50Q411 255 431 261L431 261Q455 322 455 398L455 398Z"/></svg>