<svg id="U21012" viewBox="0 0 1024 1024"><path transform="translate(0, 921.6) scale(1,-1)" d="M135 480L135 480L185 499L185 524L326 524L326 496L376 518Q373 545 373 574L373 574L373 637L373 690L401 712L348 756L323 728L188 728L135 762Q144 621 135 480ZM185 703L326 703L326 552L185 552L185 703ZM386 452L345 414L56 414L91 380Q107 382 124.50 384Q142 386 163 386L163 386L182 386L160 273L131 251L179 210L204 238L323 238Q294 58 276 28L276 28Q252-4 150 28L150 28L147 12Q229-12 229-59L229-59Q311-38 329 31L329 31Q343 66 353.50 116Q364 166 373 229L373 229L398 257L345 301L320 264L204 264L229 386L439 386L386 452ZM634 483L634 697L665 715L615 766L587 734L420 734L455 703Q471 705 488.50 707Q506 709 527 709L527 709L590 709L590 530Q590 487 580 480L580 480Q568 468 496 477L496 477L496 461Q547 448 558 408L558 408Q624 428 634 483L634 483ZM885 474L885 690L916 719L863 772L838 737L665 737L696 703Q714 707 731.50 708Q749 709 769 712L769 712L838 712L838 590Q725 528 662 512L662 512L721 471Q735 485 764 509.50Q793 534 838 568L838 568L838 521Q838 455 819 455L819 455L759 455L759 439Q829 429 825 395L825 395Q885 414 885 474L885 474ZM452 690L445 684Q483 643 499 599L499 599Q511 559 533 590L533 590Q553 623 530 640L530 640Q521 652 500 663.50Q479 675 452 690L452 690ZM401 499L401 499L442 452Q456 466 488 496Q520 526 577 571L577 571L571 580Q508 544 467.50 523.50Q427 503 401 499ZM706 402L649 446Q542 284 395 204L395 204L398 188Q525 233 668 370L668 370Q749 262 882 207L882 207Q898 237 948 248L948 248L948 260Q870 269 802.50 302Q735 335 684 386L684 386L706 402ZM731 242L678 298Q600 207 464 141L464 141L470 129Q564 154 696 238L696 238L731 242ZM800 157L750 213Q632 107 445 34L445 34L452 22Q527 41 605 73Q683 105 765 150L765 150L800 157ZM875 72L825 132Q759 70 630 6L630 6Q517-47 392-78L392-78L392-90Q565-76 841 66L841 66L875 72ZM706 690L696 684Q717 663 732 641.50Q747 620 759 599L759 599Q776 549 791 587L791 587Q806 615 791 637L791 637Q774 655 706 690L706 690Z"/></svg>