<svg id="U21824" viewBox="0 0 1024 1024"><path transform="translate(0, 921.6) scale(1,-1)" d="M632 580L632 721L839 721L839 580L632 580ZM603 219L603 383L711 383L711 219L603 219ZM757 219L757 383L862 383L862 219L757 219ZM383 327L402 518L485 518L485 482L534 505Q531 534 530.50 589.50Q530 645 530 724L530 724L557 744L507 793L481 761L311 761L347 724Q385 731 422 731L422 731L485 731L485 544L409 544L353 580Q353 550 352.50 522.50Q352 495 350 468L350 468Q347 438 343.50 405.50Q340 373 334 337L334 337L311 321L360 278L383 301L455 301Q449 211 441 150.50Q433 90 429 58L429 58Q410-6 386-14L386-14Q371-17 346-11.50Q321-6 284 2L284 2L281-14Q363-33 363-95L363-95Q420-72 452-24L452-24Q473 5 484.50 84Q496 163 504 298L504 298L530 311L485 363L452 327L383 327ZM583 501L583 501L632 521L632 550L839 550L839 511L892 541Q889 570 888.50 614Q888 658 888 715L888 715L915 734L859 787L829 747L632 747L583 784Q583 744 584.50 709.50Q586 675 586 646L586 646Q586 613 584.50 576.50Q583 540 583 501ZM878 12L878 12L757 2L757 189L862 189L862 157L915 183Q912 210 911.50 259Q911 308 911 380L911 380L934 396L888 442L855 409L757 409L757 482L787 505L708 541Q708 503 709.50 471Q711 439 711 409L711 409L609 409L550 442Q550 400 551.50 362Q553 324 553 288L553 288Q553 253 551.50 215Q550 177 550 143L550 143L603 163L603 189L711 189L711-1Q642-4 592-6Q542-8 511-8L511-8L544-82Q606-52 675-43L675-43Q711-35 763.50-26Q816-17 888-4L888-4Q898-43 898-76L898-76Q898-98 921-98L921-98Q943-94 954-66L954-66Q958-34 941 2L941 2Q933 24 907 53Q881 82 839 124L839 124L829 114Q846 79 859.50 55Q873 31 878 12ZM127 567L127 567L38 567L68 527Q80 534 94 535.50Q108 537 123 537L123 537Q113 452 102.50 375Q92 298 77 226L77 226Q119 196 148 174Q177 152 192 137L192 137Q160 73 119.50 14.50Q79-44 28-95L28-95L41-105Q154-28 228 101L228 101Q238 95 244.50 86Q251 77 261 65L261 65Q268 57 275.50 45.50Q283 34 291 22L291 22Q311-4 320 32L320 32Q330 60 311 84L311 84Q303 99 285 114Q267 129 248 147L248 147Q289 279 304 537L304 537L327 564L274 606L251 567L173 567Q179 621 185 665Q191 709 199 751L199 751L225 774L146 816Q143 762 139.50 700.50Q136 639 127 567ZM173 541L255 541Q240 283 205 176L205 176Q187 185 166 198Q145 211 123 229L123 229Q138 298 150.50 374.50Q163 451 173 541L173 541Z"/></svg>