<svg id="U21C1D" viewBox="0 0 1024 1024"><path transform="translate(0, 921.6) scale(1,-1)" d="M165 557L165 557L45 557L78 525Q94 527 113 529Q132 531 152 531L152 531L165 531Q159 422 153.50 336Q148 250 136 183L136 183Q121 114 97.50 48.50Q74-17 36-83L36-83L49-93Q137 12 178 170L178 170Q199 248 207.50 336.50Q216 425 216 531L216 531L284 531L284 19Q284-63 374-55L374-55L861-55Q910-55 948-4L948-4Q913 1 909 48L909 48Q904 69 903.50 95Q903 121 903 151L903 151L887 151Q884 117 880.50 86.50Q877 56 871 32L871 32Q861-23 835-14L835-14L410-14Q330-23 336 48L336 48L336 531L413 531L352 612L307 557L216 557L216 744L255 773L158 808Q163 774 164 712.50Q165 651 165 557ZM703 715L703 715L703 689L697 631L751 650Q748 662 748 673L748 673L748 689L922 689L864 754L822 715L748 715L748 754L774 782L697 812Q697 792 700 768Q703 744 703 715ZM413 447L413 447L458 454L458 476L564 476L564 457L609 476Q606 492 606 576L606 576L632 592L587 634L558 605L458 605L413 628Q413 604 414.50 583Q416 562 416 541L416 541Q416 517 414.50 492.50Q413 468 413 447ZM458 505L458 576L564 576L564 505L458 505ZM452 289L452 289Q452 180 450 106Q448 32 448-4L448-4L506 19L506 48L874 48L822 109L774 73L687 73L687 144L854 144L806 206L764 170L687 170L687 238L854 238L803 302L755 267L687 267L687 338L880 338L822 406L771 367L510 367Q516 373 521.50 380.50Q527 388 532 396L532 396Q542 406 551 413Q560 420 568 425L568 425L503 467Q482 396 452 347L452 347Q434 320 411.50 291.50Q389 263 365 235L365 235L371 225Q396 239 416 255.50Q436 272 452 289ZM609 467L609 467L603 457Q624 430 636.50 411Q649 392 655 383L655 383Q665 355 677 367L677 367Q693 376 693 396L693 396Q693 421 677 431L677 431Q667 441 609 467ZM506 267L506 338L635 338L635 267L506 267ZM506 170L506 238L635 238L635 170L506 170ZM506 73L506 144L635 144L635 73L506 73ZM661 451L661 451L706 464L706 476L806 476L806 451L854 470Q851 483 851 510L851 510L851 570L880 589L829 634L806 605L706 605L661 628Q661 604 662.50 583Q664 562 664 541L664 541Q664 517 662.50 493Q661 469 661 451ZM706 505L706 576L806 576L806 505L706 505ZM571 689L571 763L597 786L516 812Q516 794 519 771Q522 748 522 715L522 715L355 715L390 683Q407 685 427 687Q447 689 474 689L474 689L522 689L522 628L574 650L571 689Z"/></svg>