<svg id="U21141" viewBox="0 0 1024 1024"><path transform="translate(0, 921.6) scale(1,-1)" d="M213 199L213 670L122 670L122 199L213 199ZM69 732L69 732L122 696L209 696L239 735L291 676L261 650L261 231Q261 197 261.50 163Q262 129 265 98L265 98L213 69L213 173L122 173L122 88L69 59Q72 88 72.50 117.50Q73 147 73 179L73 179L73 553Q73 599 72.50 643Q72 687 69 732ZM742 390L707 430Q720 449 720 475L720 475L720 540Q720 554 716.50 569Q713 584 713 602L713 602L765 589Q833 624 869 670L869 670L915 621Q878 615 840 598L840 598Q833 594 829 592.50Q825 591 823 590L823 590Q839 544 869 511L869 511Q898 464 947 449L947 449L947 436Q897 436 889 413L889 413Q850 451 833 495L833 495Q827 512 819 533.50Q811 555 806 582L806 582Q798 580 788 576.50Q778 573 765 569L765 569L765 452L833 478L840 468Q801 441 777.50 421.50Q754 402 742 390L742 390ZM391 433L391 449Q413 441 427 440Q441 439 447 439L447 439Q463 442 463 488L463 488L463 572L401 572Q401 525 369 455L369 455Q335 389 278 358L278 358L271 368Q318 424 333 472L333 472Q352 511 352 576L352 576L320 569L287 598L460 598L489 631L531 579L508 569L508 478Q508 394 447 390L447 390Q439 401 434 407.50Q429 414 427 416L427 416Q428 415 419 419Q410 423 391 433L391 433ZM330 676L300 715L814 715L869 761L941 689L525 689Q549 675 567.50 662Q586 649 599 637L599 637Q614 613 593 592L593 592Q569 560 564 595L564 595Q559 617 518 680L518 680L525 689L404 689Q362 689 330 676L330 676ZM661 540L638 527Q638 410 642 410L642 410L586 390Q586 402 588 420.50Q590 439 590 468L590 468Q590 497 588 523Q586 549 586 579L586 579L622 563Q639 589 657.50 618.50Q676 648 694 683L694 683L759 650Q734 640 716.50 628.50Q699 617 687 608L687 608Q672 596 658 582Q644 568 632 556L632 556L661 540ZM528 816L528 816L534 823Q563 813 587 802Q611 791 629 780L629 780Q660 751 638 732L638 732Q612 700 599 738L599 738Q584 769 528 816ZM586 355L430 355L430 293L586 293L586 355ZM781 355L632 355L632 293L781 293L781 355ZM781 267L632 267L632 212L781 212L781 267ZM586 267L430 267L430 212L586 212L586 267ZM430 176L382 160Q384 189 384.50 219.50Q385 250 385 280L385 280Q385 309 384.50 338.50Q384 368 382 400L382 400L430 381L781 381L807 410L853 361L827 338L827 260L827 220Q827 200 830 179L830 179L781 160L781 186L632 186L632 130L830 130L879 169L941 101L655 101Q720 48 791 20L791 20Q826 6 866-2Q906-10 954-12L954-12L954-25Q895-30 885-67L885-67Q706-12 638 101L638 101L632 101L632-5Q632-24 632.50-45.50Q633-67 638-86L638-86L580-100Q580-65 581.50-40Q583-15 583 0L583 0L583 101Q459-28 242-74L242-74L232-64Q434 3 512 101L512 101L401 101Q379 101 361 99Q343 97 326 95L326 95L291 130L586 130L586 186L430 186L430 176Z"/></svg>