<svg id="U21F6A" viewBox="0 0 1000 1000"><path transform="translate(0, 900) scale(1,-1)" d="M208 631C175 571 107 499 45 454C58 443 77 421 87 409C155 459 228 537 272 610ZM514 138C545 100 578 47 591 13L641 37C628 72 594 124 562 160ZM347 151C321 101 282 44 244 9L292-30C334 14 373 83 400 139ZM231 471C192 386 113 283 34 218C46 206 65 183 75 170C103 194 131 222 158 253L158-81L224-81L224 337C251 375 275 414 295 451ZM723 427L848 427C836 339 816 262 787 196C758 263 737 341 722 424ZM699 630C684 505 656 385 604 306C618 294 640 268 649 256C662 276 675 298 686 323C702 251 723 185 751 127C708 60 652 7 578-33C592-44 617-69 626-81C691-42 743 6 784 63C820 5 864-42 917-76C928-58 949-33 965-19C907 13 860 63 823 125C868 207 896 307 913 427L950 427L950 489L739 489C749 531 757 575 763 620ZM460 840L460 715L188 715L188 804L116 804L116 652L880 652L880 804L805 804L805 715L535 715L535 840ZM288 178C302 184 323 188 432 198L432-12C432-21 429-23 420-24C411-24 383-24 352-23C360-37 371-59 374-76C419-76 448-75 469-66C489-56 494-43 494-13L494 204L570 210C578 192 584 176 588 162L637 186C626 226 594 290 564 337L517 317C527 300 538 280 547 260L384 248C457 302 529 369 594 440L542 475C524 453 505 431 484 409L378 403C411 434 444 473 472 514L440 529L611 529L611 587L296 587L296 529L409 529C379 480 336 433 323 420C309 407 296 399 283 396C290 381 299 352 302 339C314 344 334 348 431 356C391 319 357 290 341 278C312 256 289 241 269 238C276 222 285 191 288 178Z"/></svg>