<svg id="U215DC" viewBox="0 0 1024 1024"><path transform="translate(0, 921.6) scale(1,-1)" d="M474 545L474 545L63 545L102 509Q119 511 138 515Q157 519 177 519L177 519L474 519Q471 473 460 421.50Q449 370 432 312L432 312Q385 193 303 102L303 102Q216 9 60-69L60-69L70-85Q155-51 229.50-5Q304 41 364 102L364 102Q486 228 520 451L520 451Q534 322 620 170L620 170Q712 16 869-72L869-72Q878-27 963-27L963-27L963-11Q767 39 662 189L662 189Q608 264 573 341Q538 418 529 496L529 496L529 519L960 519L888 597L834 545L529 545L529 749L558 781L471 820Q473 783 473.50 716.50Q474 650 474 545ZM850 357L850 357L791 419Q757 353 636 247L636 247L649 231Q718 282 769 313.50Q820 345 850 357ZM345 247L345 247Q363 313 180 406L180 406L173 393Q261 314 293 247L293 247Q328 175 345 247Z"/></svg>