<svg id="U219A8" viewBox="0 0 1024 1024"><path transform="translate(0, 921.6) scale(1,-1)" d="M338 572L166 572L166 470L338 470L338 572ZM82 658L41 693L252 693Q247 759 210 805L210 805L217 815Q246 796 265 780Q284 764 294 751L294 751Q308 728 277 693L277 693L370 693L409 732L460 668L156 668Q136 668 117.50 664Q99 660 82 658L82 658ZM118 626L118 626L166 597L335 597L358 626L409 581L383 569Q383 515 383.50 479Q384 443 390 425L390 425L338 409L338 441L166 441L166 425L118 402Q120 438 120.50 464Q121 490 121 514L121 514Q121 535 120.50 562.50Q120 590 118 626ZM242 204L242 204Q242 218 241.50 238.50Q241 259 239 281L239 281L281 258L338 335L198 335Q151 335 118 326L118 326L82 361L335 361L361 393L418 335Q381 330 294 252L294 252L316 239L290 217L428 252L434 236L290 188L290 28Q296-39 223-64L223-64Q219-18 137 0L137 0L137 15Q155 10 175 9Q195 8 210 6L210 6Q236 1 242 34L242 34L242 175Q100 127 79 102L79 102L34 159Q55 162 81 167.50Q107 173 137 178L137 178Q165 185 191.50 192Q218 199 242 204ZM840 508L821 514L853 578L632 578L706 543L687 521L687 463L745 473L777 514L828 463L687 444L687 412Q687 370 725 370L725 370L792 370Q817 370 828 396L828 396Q830 408 832.50 432Q835 456 840 492L840 492L853 492Q853 468 854 450.50Q855 433 863 418L863 418Q873 385 904 377L904 377Q877 339 856 335L856 335Q847 328 833 327Q819 326 805 326L805 326L696 326Q636 326 636 390L636 390L636 441L565 431L546 418L517 444L636 460Q636 496 634 523.50Q632 551 632 578L632 578L511 578L511 342Q511 53 348-83L348-83L335-76Q460 73 460 342L460 342L460 470Q460 508 458.50 552Q457 596 457 642L457 642L501 607L629 607Q629 658 627.50 709.50Q626 761 626 815L626 815L703 770L677 748L677 706L796 706L831 751L892 677L677 677L677 607L850 607L888 649L940 578Q898 573 882 553L882 553Q870 541 858.50 529Q847 517 840 508L840 508ZM949 9L949 9Q939-13 914-22L914-22Q898-35 876-35L876-35L802-35Q745-35 745 25L745 25L745 223L639 223Q647-19 418-76L418-76L415-60Q611 12 588 284L588 284L636 252L745 252L773 290L824 233L792 214L792 44Q792 6 828 6L828 6L856 6Q885 6 885 47L885 47Q885 68 887 90.50Q889 113 892 140L892 140L911 140Q911 116 912 94.50Q913 73 920 57L920 57Q929 17 949 9Z"/></svg>