<svg id="U21FA9" viewBox="0 0 1024 1024"><path transform="translate(0, 921.6) scale(1,-1)" d="M238 801L238 801L244 810Q335 781 343 759L343 759Q356 734 336 709L336 709Q317 684 298 718L298 718Q291 734 276.50 756.50Q262 779 238 801ZM536 623L567 642Q567 687 565.50 727.50Q564 768 564 804L564 804L647 775L621 747L621 721L792 721L840 756L900 696L621 696L621 636L799 636L821 674L878 636L856 611L856 558Q856 533 859 512L859 512L802 503L802 519L615 519L615 465L761 465L789 500L843 440L615 440L615 392L761 392L789 430L843 367L615 367L615 322L764 322L792 354L846 294L615 294L615 272Q615 227 669 227L669 227L827 227Q864 227 868 246L868 246Q868 255 871.50 276Q875 297 878 329L878 329L891 329Q891 300 896 282.50Q901 265 907 256L907 256Q913 248 919.50 242Q926 236 938 234L938 234Q915 201 891 195L891 195Q877 189 849 189L849 189L653 189Q564 189 564 256L564 256Q564 386 561 463Q558 540 558 569L558 569L621 544L802 544L802 607L628 607L590 582L536 623ZM412 395L225 395L225 348L412 348L412 395ZM225 424L412 424L412 471L225 471L225 424ZM146 661L108 699L419 699L460 737L517 674L415 674L466 645Q447 640 421.50 619.50Q396 599 358 566L358 566L434 566L476 601L533 541L200 541Q152 541 121 531L121 531L86 566L339 566Q385 638 393 674L393 674L222 674Q203 669 184 666Q165 663 146 661L146 661ZM190 661L190 661L194 674Q274 649 279 626L279 626Q288 611 273 579L273 579Q249 544 235 592L235 592Q218 626 190 661ZM225 205L171 180Q174 217 174.50 260Q175 303 175 351L175 351Q175 396 174.50 439.50Q174 483 171 525L171 525L235 500L409 500L434 531L488 490L466 465L466 272Q466 218 447 205L447 205Q425 186 400 186L400 186Q394 217 320 237L320 237L320 253Q395 242 406 249L406 249Q412 256 412 275L412 275L412 322L225 322L225 205ZM206-25L488-25L488 100Q488 121 486.50 144.50Q485 168 485 199L485 199L577 167L545 142L545-25L821-25Q821 26 819.50 69Q818 112 818 151L818 151L903 116L878 91L878 21L878-10Q878-32 881-63L881-63L821-92L821-54L206-54L175-79L121-35L152-17Q152 37 151 80Q150 123 146 154L146 154L232 120L206 100L206-25Z"/></svg>