<svg id="U217A3" viewBox="0 0 1024 1024"><path transform="translate(0, 921.6) scale(1,-1)" d="M859 300L859 300L901 435L915 431Q889 303 921 264L921 264Q952 233 901 237L901 237Q899 237 897 237.50Q895 238 893 238L893 238L951 178L730 178Q705 141 676 104.50Q647 68 615 36L615 36Q706 18 758.50 3.50Q811-11 836-22L836-22Q880-43 875-75L875-75Q875-104 803-71L803-71Q770-54 713.50-36.50Q657-19 576 0L576 0Q538-20 492-37Q446-54 391-68L391-68Q334-82 250-92.50Q166-103 49-108L49-108L49-88Q100-85 158.50-76Q217-67 286-55L286-55Q352-45 408.50-28Q465-11 507 17L507 17Q437 29 367.50 40Q298 51 223 59L223 59Q255 89 282.50 119Q310 149 332 178L332 178L151 178Q131 178 111 176.50Q91 175 72 175L72 175L32 208L345 208Q372 230 404 290L404 290L469 256Q581 316 641 395L641 395Q631 416 620 446.50Q609 477 595 517L595 517Q587 551 579.50 590Q572 629 572 668L572 668L220 668Q218 614 216.50 570Q215 526 210 487.50Q205 449 196 414.50Q187 380 171 346L171 346Q139 278 72 221L72 221L59 234Q102 298 128 372L128 372Q143 406 148.50 447Q154 488 154 533L154 533Q159 572 160 623Q161 674 161 731L161 731L214 698L569 698Q561 743 558.50 774.50Q556 806 556 826L556 826L641 790L615 770L615 737Q615 720 618 698L618 698L793 698L842 744L911 668L622 668Q631 541 681 435L681 435Q720 487 740 540L740 540Q752 567 758.50 589Q765 611 773 629L773 629L852 579L816 566Q786 512 757.50 468.50Q729 425 707 395L707 395Q761 329 859 300ZM819 208L866 244Q851 248 833 255Q815 262 793 273L793 273Q766 288 736.50 308Q707 328 678 356L678 356Q624 305 559 273L559 273Q529 258 505 246.50Q481 235 464 230L464 230L459 245Q437 232 434 224L434 224Q429 212 414 208L414 208L671 208Q676 217 679.50 231.50Q683 246 691 264L691 264L770 237L750 217L740 208L819 208ZM269 560L240 599L464 599L510 629L569 573L342 573Q319 573 301.50 568.50Q284 564 269 560L269 560ZM549 481L513 458L513 374Q513 341 516 329L516 329L467 300L467 336L325 336L325 303L273 283L273 412L273 520L325 494L464 494L490 527L549 481ZM467 464L325 464L325 362L467 362L467 464ZM661 790L668 803Q697 793 719.50 787.50Q742 782 757 777L757 777Q780 757 780 737L780 737Q772 710 763 705L763 705Q757 697 743 708L743 708Q738 715 730.50 723.50Q723 732 714 744L714 744Q704 756 692 765.50Q680 775 661 790L661 790ZM661 178L398 178Q375 157 347 130.50Q319 104 289 72L289 72Q377 62 440.50 56.50Q504 51 549 46L549 46Q599 78 661 178L661 178Z"/></svg>