<svg id="U21286" viewBox="0 0 1024 1024"><path transform="translate(0, 921.6) scale(1,-1)" d="M392 188L245 134L245 471L386 471L325 538L287 497L245 497L245 742L274 770L185 812Q187 767 187.50 735.50Q188 704 188 678L188 678L188 497L54 497L89 458Q114 471 163 471L163 471L188 471L188 118Q143 100 107.50 88Q72 76 51 70L51 70L96 0Q115 23 188.50 65.50Q262 108 398 169L398 169L392 188ZM739 357L739 357L726 350Q816 204 841 108L841 108Q865 16 892 63L892 63Q913 115 898 156L898 156Q886 180 847 229.50Q808 279 739 357ZM761 732L433 732L468 691Q490 696 508 700.50Q526 705 542 707L542 707L876 707L815 783L761 732ZM624-92L682-73L682 471L933 471L873 547L825 497L389 497L424 458Q449 471 497 471L497 471L624 471L624-92ZM580 331L500 376Q447 182 341 22L341 22L351 9Q386 47 435 121Q484 195 548 306L548 306L580 331Z"/></svg>