<svg id="U21C33" viewBox="0 0 1024 1024"><path transform="translate(0, 921.6) scale(1,-1)" d="M250 543L250 710L783 710L783 543L250 543ZM38-79L38-79L45-91Q111-34 150.50 26Q190 86 212 155L212 155Q231 224 241.50 312.50Q252 401 250 518L250 518L783 518L783 476L847 499Q844 515 844 528L844 528L844 551L844 710L870 736L806 781L777 736L250 736L183 772Q192 480 183 363L183 363Q180 303 174.50 248Q169 193 154 142L154 142Q140 91 111.50 36Q83-19 38-79ZM597 10L597 10L597-8Q732-35 745-91L745-91Q837-71 858-21L858-21Q871 7 879.50 106Q888 205 890 383L890 383L916 415L855 461L829 418L247 418L279 383Q301 385 320.50 388.50Q340 392 360 392L360 392L832 392Q832 304 827.50 217.50Q823 131 815 43L815 43Q802-12 732-8L732-8Q663 2 597 10ZM289 85L289 85L334 7Q351 19 462.50 59Q574 99 787 165L787 165L787 187Q367 85 289 85ZM415 339L415 339L412 322Q530 268 578 219L578 219Q624 178 630 219L630 219Q639 259 610 284L610 284Q585 303 415 339Z"/></svg>