<svg id="U21895" viewBox="0 0 1024 1024"><path transform="translate(0, 921.6) scale(1,-1)" d="M504 517L494 534Q521 553 537 576.50Q553 600 563 622L563 622Q576 661 576 796L576 796L628 766L746 766L776 799L828 753L792 727L792 645Q795 619 835 619L835 619Q883 619 894 625L894 625Q908 639 923 625L923 625Q933 612 940 599L940 599Q944 594 940.50 588.50Q937 583 930 583L930 583Q913 580 802 580L802 580Q746 585 746 639L746 639L746 740L625 740Q625 652 596 602L596 602Q561 548 504 517L504 517ZM868 504L838 485Q805 450 776.50 419Q748 388 727 364L727 364Q822 302 950 288L950 288L950 275Q905 275 877 236L877 236Q784 266 691 334L691 334Q590 264 455 239L455 239L452 256Q564 287 665 370L665 370Q640 394 621.50 426Q603 458 586 498L586 498L560 485L530 524L782 524L812 557L868 504ZM782 498L609 498Q633 463 653.50 437Q674 411 694 396L694 396Q718 416 739 442Q760 468 782 498L782 498ZM288 815L334 766Q321 761 303 755.50Q285 750 268 743L268 743Q253 738 236.50 731.50Q220 725 203 720L203 720L203 642L245 642L272 665L321 616L203 616L203 524L432 524L432 616Q406 616 367 606L367 606L331 642L432 642L432 727Q398 727 363 720L363 720L327 756L426 756L455 786L511 740L485 717L485 578Q485 525 488 501L488 501L432 481L432 498L203 498L203 485L147 465Q149 489 149.50 523Q150 557 150 602L150 602Q150 647 149.50 688Q149 729 147 766L147 766L203 743Q264 771 288 815L288 815ZM150 423L298 423Q298 439 294 460.50Q290 482 288 504L288 504L367 472L344 445L344 423L412 423L445 452L494 396L344 396L344 301L511 341L521 324Q403 289 331.50 267.50Q260 246 232 236L232 236Q208 223 190.50 215Q173 207 164 200L164 200L124 269Q151 269 194.50 274.50Q238 280 298 298L298 298L298 396L265 396Q245 396 225.50 394Q206 392 187 390L187 390L150 423ZM681 177L422 177Q372 136 317 72L317 72Q402 62 463.50 56Q525 50 570 46L570 46Q594 65 622.50 97Q651 129 681 177L681 177ZM426 288L426 288L491 249Q462 235 455 223L455 223Q452 220 447.50 215Q443 210 439 203L439 203L687 206Q692 215 695.50 229.50Q699 244 707 262L707 262L782 233L766 216L756 206L835 206L890 249L959 177L746 177Q698 103 632 36L632 36Q717 19 770 4.50Q823-10 848-23L848-23Q887-41 887-74L887-74Q887-106 818-71L818-71Q784-53 727.50-36.50Q671-20 596 0L596 0Q532-36 419-68L419-68Q307-96 82-107L82-107L82-87Q128-84 184.50-75.50Q241-67 308-55L308-55Q449-35 527 16L527 16Q463 28 392.50 39.50Q322 51 249 59L249 59Q280 88 305.50 117.50Q331 147 354 177L354 177L180 177Q165 177 144.50 175.50Q124 174 98 170L98 170L65 206L367 206Q383 217 397.50 238Q412 259 426 288Z"/></svg>