<svg id="U21F81" viewBox="0 0 1024 1024"><path transform="translate(0, 921.6) scale(1,-1)" d="M116 635L153 652Q153 700 152.50 730Q152 760 149 778L149 778L236 745L209 725L209 642L469 642L469 751Q469 769 468.50 785Q468 801 466 821L466 821L559 785L525 765L525 642L792 642Q792 687 790.50 722Q789 757 789 778L789 778L882 745L849 725L849 675L849 639Q849 621 852 602L852 602L792 582L792 615L209 615L173 595L116 635ZM119 568L133 575Q224 541 239 515L239 515Q261 490 243 455L243 455Q226 416 203 469L203 469Q180 517 119 568L119 568ZM49 392L49 392L53 409Q170 373 176 345L176 345Q183 320 173 289L173 289Q159 261 136 305L136 305Q123 325 102.50 347Q82 369 49 392ZM56 109L56 126Q131 112 156 119L156 119Q175 129 276 439L276 439L296 435Q263 303 241.50 229.50Q220 156 213 139L213 139Q205 121 201.50 102.50Q198 84 196 69L196 69Q193 51 194.50 25Q196-1 199-37L199-37Q203-109 163-97L163-97Q125-77 136-24L136-24Q141-2 145 19.50Q149 41 149 56L149 56Q149 88 56 109L56 109ZM675 372L562 372L562 285L675 285L675 372ZM839 372L725 372L725 285L839 285L839 372ZM675 259L562 259L562 169L675 169L675 259ZM839 259L725 259L725 169L839 169L839 259ZM709 465L709 465L792 522L589 522Q571 522 551.50 519.50Q532 517 512 515L512 515L482 552L819 552L852 575L909 522Q883 516 839 500.50Q795 485 732 455L732 455Q768 422 739 399L739 399L835 399L859 432L915 392L892 365L892 36Q892-18 832-37L832-37Q821 12 749 22L749 22L749 36Q771 33 787 31Q803 29 815 29L815 29Q839 33 839 42L839 42L839 142L725 142L725 12L675-14L675 142L562 142L562-4L506-24Q506 10 507.50 67Q509 124 509 202L509 202Q509 280 507.50 335.50Q506 391 506 419L506 419L559 399L695 399Q671 432 569 485L569 485L572 499Q614 488 648.50 479Q683 470 709 465ZM323 558L323 558L333 572Q365 549 387.50 531.50Q410 514 422 505L422 505Q447 480 422 435L422 435Q403 395 383 455L383 455Q372 485 356 510Q340 535 323 558ZM889-103L889-103Q820-103 756-101Q692-99 632-97L632-97Q511-86 402-4L402-4Q376-25 350-51.50Q324-78 299-110L299-110L253-77Q277-51 307.50-30.50Q338-10 376 16L376 16L376 289Q361 289 344.50 286.50Q328 284 306 282L306 282L276 312L376 312L396 352L449 312L426 285L426 16Q501-40 622-47L622-47L799-47Q829-47 868-44Q907-41 955-37L955-37L955-53Q898-67 889-103Z"/></svg>