<svg id="U21D50" viewBox="0 0 1024 1024"><path transform="translate(0, 921.6) scale(1,-1)" d="M332 23L332 96Q235 71 169 45.50Q103 20 73 3L73 3L29 56Q59 77 59 113L59 113Q59 325 58 451Q57 577 53 622L53 622L136 589L109 562L109 83L192 96L192 648Q192 693 191.50 738Q191 783 189 828L189 828L272 795L246 768L246 106L332 123Q332 329 331.50 452.50Q331 576 329 619L329 619L412 579L382 549L382 173Q382 137 382.50 109Q383 81 389 56L389 56L332 23ZM409 702L376 738L761 738L818 785L891 708L492 708Q467 708 446.50 706Q426 704 409 702L409 702ZM612 486L612 486L735 486L761 525L825 476L791 446Q781 228 774.50 115Q768 2 771-7L771-7Q771-20 788-20L788-20L865-20Q884-17 895 133L895 133L914 133Q914-17 954-17L954-17Q935-69 881-69L881-69L771-69Q728-69 718-30L718-30Q715-8 719 111Q723 230 738 456L738 456L738 459L612 459Q601 325 580 230.50Q559 136 522 76L522 76Q447-38 336-102L336-102L329-92Q383-44 423.50 8.50Q464 61 492 116L492 116Q514 176 530.50 260Q547 344 555 456L555 456L495 456Q455 456 435 442L435 442L402 482L555 482Q557 548 557.50 602.50Q558 657 558 702L558 702L645 662L618 635Q615 610 613.50 572Q612 534 612 486Z"/></svg>