<svg id="U21E4A" viewBox="0 0 1024 1024"><path transform="translate(0, 921.6) scale(1,-1)" d="M589 215L361 215L394 179Q414 181 432 185Q450 189 470 189L470 189L586 189Q551 71 474 4L474 4Q395-55 309-90L309-90L312-104Q359-93 403.50-74.50Q448-56 493-31L493-31Q596 27 638 189L638 189L658 189Q678 95 737 21Q796-53 862-90L862-90Q886-53 942-48L942-48L942-31Q869-23 797 34L797 34Q730 89 678 189L678 189L932 189L859 265L810 215L645 215L655 275L691 298L605 340Q600 308 596.50 276.50Q593 245 589 215L589 215ZM434 291L434 291L490 314L490 344L780 344L780 311L836 331Q833 362 833 391L833 391Q833 420 833 443L833 443L833 723L859 749L797 792L773 753L490 753L434 789Q434 754 437.50 697.50Q441 641 441 565L441 565Q441 484 437.50 416Q434 348 434 291ZM490 631L490 726L780 726L780 631L490 631ZM490 502L490 604L780 604L780 502L490 502ZM490 373L490 476L780 476L780 373L490 373ZM98 87L292 87L292 31L348 60Q345 114 345 172L345 172Q345 231 345 291L345 291L345 548L361 578L289 621Q291 579 291.50 453Q292 327 292 113L292 113L223 113L223 749L246 779L167 818Q169 781 169.50 606Q170 431 170 113L170 113L98 113L98 555L124 588L48 624L48 113L22 90L68 47L98 87Z"/></svg>