<svg id="U21805" viewBox="0 0 1024 1024"><path transform="translate(0, 921.6) scale(1,-1)" d="M231 690L392 690L431 727L484 664L343 664Q340 631 339 604Q338 577 336 552L336 552L402 552L437 589L494 526L333 526L323 484Q424 430 451 405L451 405Q480 376 464 339L464 339Q449 293 415 355L415 355Q400 379 374 407Q348 435 316 464L316 464Q263 345 99 260L99 260L93 270Q248 382 276 522L276 522L214 522Q194 522 174.50 520Q155 518 135 513L135 513L99 549L280 549Q290 605 290 664L290 664L214 664Q189 634 166 613Q143 592 119 572L119 572L109 582Q131 611 152 641Q173 671 187 700L187 700Q203 732 213 759.50Q223 787 227 812L227 812L296 775Q274 763 231 690L231 690ZM661 671L592 671Q573 649 551.50 627Q530 605 504 582L504 582L490 589Q507 615 525.50 644.50Q544 674 559 703L559 703Q596 774 605 815L605 815L668 772Q658 764 641 747Q624 730 605 700L605 700L802 700L842 740L905 671L717 671Q717 641 715 612Q713 583 713 559L713 559L845 559L894 599L950 529L757 529Q787 447 842 391L842 391Q866 369 894 352Q922 335 960 323L960 323L960 306Q903 306 878 279L878 279Q813 334 779 405L779 405Q762 438 750.50 469Q739 500 737 529L737 529L713 529Q692 423 631 365L631 365Q562 305 510 279L510 279L500 289Q524 309 546.50 332Q569 355 595 381L595 381Q639 440 658 526L658 526L605 526Q584 526 565 522.50Q546 519 529 513L529 513L494 552L658 552Q658 579 659.50 608.50Q661 638 661 671L661 671ZM675 200L415 200Q394 176 368 150.50Q342 125 313 93L313 93Q394 80 456 70.50Q518 61 566 56L566 56Q589 78 616 113.50Q643 149 675 200L675 200ZM418 319L490 279Q457 265 444 247L444 247Q441 241 437 236.50Q433 232 431 227L431 227L680 227Q685 239 693 255.50Q701 272 707 296L707 296L779 264L760 240L753 227L842 227L894 270L960 200L740 200Q715 158 689.50 120.50Q664 83 631 46L631 46Q811 4 848-16L848-16Q888-32 888-74L888-74Q883-107 816-67L816-67Q783-47 728-29.50Q673-12 595 11L595 11Q566-9 521-27.50Q476-46 415-62L415-62Q358-76 271-87Q184-98 70-104L70-104L70-84Q118-81 178-71.50Q238-62 310-48L310-48Q452-17 529 23L529 23Q460 35 388 49.50Q316 64 241 76L241 76Q267 105 294.50 135Q322 165 348 200L348 200L172 200Q151 200 130.50 198.50Q110 197 93 197L93 197L53 227L362 227Q381 247 393.50 269.50Q406 292 418 319L418 319Z"/></svg>