<svg id="U21DCE" viewBox="0 0 1024 1024"><path transform="translate(0, 921.6) scale(1,-1)" d="M312 121L312 121L312 40L367 75Q364 126 364 178L364 178L364 280L364 552L390 578L309 620Q311 578 311.50 462Q312 346 312 144L312 144L231 131L231 753L257 779L176 822Q180 787 181 610.50Q182 434 182 121L182 121L105 105L105 555L134 581L50 624Q52 579 52.50 459Q53 339 53 137L53 137Q49 101 33 85L33 85L72 24Q103 62 312 121ZM834 637L796 555L809 549Q879 634 928 643L928 643L864 705L831 663L672 663Q751 724 588 822L588 822L575 812Q642 733 646 663L646 663L471 663L468 714L449 714Q443 634 403 585L403 585Q358 539 416 539L416 539Q471 539 471 637L471 637L834 637ZM491 4L491 4L491-8Q588-33 588-86L588-86Q672-62 672 33L672 33L672 270L932 270L886 338L828 296L672 296L672 461L883 461L825 536L783 491L432 491L468 455Q485 457 502.50 459Q520 461 542 461L542 461L624 461L624 296L374 296L410 260Q426 263 444 266.50Q462 270 484 270L484 270L624 270L624 43Q624-1 594-1L594-1Q579-1 554 0Q529 1 491 4Z"/></svg>