<svg id="U21FC1" viewBox="0 0 1024 1024"><path transform="translate(0, 921.6) scale(1,-1)" d="M356 589L356 589L356 510L308 491L308 605Q208 501 107 475L107 475L104 487Q201 547 263 631L263 631L215 631Q194 628 176 625.50Q158 623 142 621L142 621L104 660L308 660L308 720Q250 713 212.50 710Q175 707 158 707L158 707L158 727Q385 751 458 797L458 797L496 727L458 736Q410 723 356 723L356 723L356 660L442 660L477 688L531 631L356 631L356 605Q450 582 477 564L477 564Q497 547 493 513L493 513Q487 475 455 513L455 513Q440 531 414.50 549.50Q389 568 356 589ZM253 513L314 484L298 468L282 446L394 446L403 487L455 471L442 446L461 446L493 475L544 420L435 420Q408 366 375 318L375 318Q435 300 458 283L458 283Q474 259 470 232L470 232Q459 205 435 229L435 229Q405 254 346 286L346 286Q256 211 97 178L97 178L91 194Q251 250 301 306L301 306Q274 310 243.50 318.50Q213 327 177 334L177 334Q191 355 201.50 377.50Q212 400 222 424L222 424Q183 424 155.50 418Q128 412 107 408L107 408L72 446L228 446Q237 464 242.50 481Q248 498 253 513L253 513ZM384 420L269 420Q262 401 251.50 384Q241 367 234 350L234 350Q265 345 288.50 339Q312 333 333 331L333 331Q342 343 355.50 365Q369 387 384 420L384 420ZM834 468L758 468L758 286Q758 248 796 248L796 248L885 248Q905 248 911 274L911 274Q911 297 917 357L917 357L933 357Q933 296 946 277L946 277Q951 252 971 245L971 245Q947 207 911 207L911 207L777 207Q713 207 713 258L713 258L713 468L671 468Q657 291 474 194L474 194L464 207Q611 322 620 468L620 468L582 468L582 452L531 433Q531 454 532.50 491Q534 528 534 583L534 583Q534 634 532.50 668.50Q531 703 531 720L531 720L582 691L636 691Q647 719 655 748Q663 777 668 809L668 809L735 774Q722 767 703.50 746.50Q685 726 662 691L662 691L831 691L853 727L907 691L885 669L885 531Q885 481 888 465L888 465L834 443L834 468ZM681 666L579 666L579 589L681 589L681 666ZM582 494L681 494L681 564L582 564L582 494ZM834 564L732 564L732 494L834 494L834 564ZM866 331L866 331Q853 348 847 373L847 373L853 382Q872 363 884.50 351.50Q897 340 904 328L904 328Q908 310 891 286L891 286Q873 268 869 312L869 312Q797 297 786 277L786 277L761 328Q779 328 796 376L796 376Q804 397 810 415Q816 433 818 449L818 449L869 420Q854 405 836 381Q818 357 796 325L796 325Q802 325 819.50 325.50Q837 326 866 331ZM834 666L732 666L732 589L834 589L834 666ZM225-25L496-25L496 120Q496 139 495.50 161.50Q495 184 493 213L493 213L576 184L550 159L550-25L825-25Q825 35 821.50 80Q818 125 818 159L818 159L904 130L876 108L876 22L876-6Q876-26 879-57L879-57L825-83L825-51L234-51L199-70L145-28L171-16Q171 45 170.50 87Q170 129 167 159L167 159L253 130L225 101L225-25Z"/></svg>