<svg id="U21E29" viewBox="0 0 1024 1024"><path transform="translate(0, 921.6) scale(1,-1)" d="M423 755L414 742Q440 707 457 676Q474 645 482 619L482 619Q491 559 514 609L514 609Q533 634 533 661L533 661Q529 678 504 700L504 700Q495 708 475 722Q455 736 423 755L423 755ZM802-22L802-22L572-22Q528-22 533 26L533 26L533 259L708 259L708 159Q708 137 692 133L692 133Q684 133 661 133.50Q638 134 605 139L605 139L605 123Q675 102 698 58L698 58Q760 81 760 139L760 139L760 250L783 272L728 318L705 285L540 285L504 301Q552 365 579 418L579 418L685 418Q754 276 867 211L867 211Q877 250 932 250L932 250L932 262Q878 266 812 314L812 314Q743 352 708 418L708 418L919 418L851 489L799 444L585 444Q594 468 602.50 496Q611 524 621 554L621 554L899 554L838 619L789 580L718 580Q739 613 754.50 635.50Q770 658 783 670L783 670Q795 679 805.50 689.50Q816 700 831 713L831 713L763 758Q750 716 732.50 672Q715 628 692 580L692 580L624 580Q631 631 637.50 665Q644 699 650 719L650 719Q654 756 679 781L679 781L598 813Q598 776 591 719Q584 662 572 580L572 580L384 580L420 541Q437 543 454 547Q471 551 491 554L491 554L566 554Q546 481 530 444L530 444L359 444L391 412Q408 414 426.50 416Q445 418 465 418L465 418L524 418Q482 340 437.50 282.50Q393 225 342 185L342 185L349 172Q397 203 431 231.50Q465 260 485 282L485 282L485 13Q473-77 566-73L566-73L831-73Q895-63 912-22L912-22Q885-4 873 33L873 33Q868 51 867.50 76.50Q867 102 867 136L867 136L851 136Q845 90 842.50 58.50Q840 27 838 10L838 10Q826-22 802-22ZM106 65L287 65L287 16L339 39Q334 96 333.50 153.50Q333 211 333 272L333 272L333 541L359 573L284 609Q286 567 286.50 439Q287 311 287 94L287 94L222 94L222 738L245 764L167 803Q170 769 170.50 592Q171 415 171 94L171 94L103 94L103 554L129 580L51 612Q53 582 53.50 455Q54 328 54 101L54 101L31 78L80 33L106 65Z"/></svg>