<svg id="U21926" viewBox="0 0 1024 1024"><path transform="translate(0, 921.6) scale(1,-1)" d="M324 710L474 710Q474 731 472 757.50Q470 784 470 811L470 811L552 782L522 759L522 710L548 710L587 746L636 684L522 684L522 638L470 622Q470 637 472 651.50Q474 666 474 684L474 684L431 684Q389 684 360 674L360 674L324 710ZM392 528L360 564L454 564Q454 576 453.50 592.50Q453 609 451 629L451 629L516 606L500 586L500 560L522 560L552 586L594 534L500 534L500 495L565 495L594 521L643 466L561 466L561 421Q553 401 587 401L587 401L607 401Q624 401 630 388L630 388Q640 369 630 369L630 369Q623 365 600 365L600 365L574 365Q513 365 522 434L522 434L522 466L461 466Q441 414 412 385L412 385Q381 349 324 336L324 336L321 346Q396 395 413 466L413 466Q398 465 385 463Q372 461 360 460L360 460L324 495L454 495L454 538Q426 538 392 528L392 528ZM916 219L916 219Q834 260 815 330L815 330Q799 406 809 502L809 502L753 502Q750 470 747 443Q744 416 737 395L737 395Q802 351 802 336L802 336Q802 307 792 297L792 297Q783 281 763 313L763 313Q737 339 727 356L727 356Q700 311 666 275.50Q632 240 587 219L587 219L581 229Q620 268 648 305.50Q676 343 688 382L688 382Q670 394 654 402.50Q638 411 623 421L623 421L626 434Q648 426 666.50 420Q685 414 695 408L695 408Q699 431 702 454.50Q705 478 708 502L708 502L672 502Q649 495 643 489L643 489L607 528L708 528Q708 547 706 567Q704 587 704 609L704 609L776 583L756 564L753 528L809 528L831 560L877 525L854 499Q849 439 854 385L854 385Q854 331 890 300L890 300L929 388L935 385Q925 334 919 291Q913 248 916 219ZM454 167L422 203L737 203L783 242L835 177L529 177Q493 177 454 167L454 167ZM555 89L555 89L428 89Q414 89 398 87.50Q382 86 363 82L363 82L327 118L835 118L887 157L945 89L594 89L636 60Q594 51 448-24L448-24L795-21Q778-5 756.50 13Q735 31 711 53L711 53L721 63Q769 43 803 23Q837 3 857-12L857-12Q895-35 887-76L887-76Q869-107 854-92L854-92Q844-79 833-66.50Q822-54 809-40L809-40Q440-64 409-92L409-92L373-30Q390-25 413.50-15Q437-5 467 17L467 17Q498 36 519 56.50Q540 77 555 89ZM500 313L500 268L594 287L600 274Q570 267 539.50 258.50Q509 250 470 235L470 235Q436 223 414.50 212Q393 201 386 196L386 196L353 245Q377 245 403.50 250.50Q430 256 454 261L454 261L454 313Q439 313 424 309.50Q409 306 392 304L392 304L360 339L454 339Q454 354 453.50 373.50Q453 393 451 417L451 417L516 388L500 369L500 339L526 339L561 365L600 313L500 313ZM636 710L737 710Q737 731 735.50 757.50Q734 784 734 811L734 811L812 778L786 759L786 710L841 710L877 746L929 684L786 684L786 635L734 619Q734 636 735.50 651Q737 666 737 684L737 684L708 684Q692 684 672 677L672 677L636 710ZM262 525L171 505Q166 463 152 399.50Q138 336 119 242L119 242Q143 227 164.50 214.50Q186 202 204 193L204 193Q241 287 262 525L262 525ZM161 801L230 762L207 730Q204 707 197 660.50Q190 614 181 544L181 544L262 554L262 629L321 609Q308 602 308 560L308 560L350 564L353 544L308 534Q305 471 299 423.50Q293 376 288 343Q283 310 272 265.50Q261 221 246 164L246 164Q297 128 305 105L305 105Q313 81 301 53L301 53Q289 27 272 53L272 53Q264 70 252.50 85Q241 100 227 118L227 118Q142-17 28-82L28-82L22-73Q82-18 122.50 37.50Q163 93 187 147L187 147Q134 192 70 225L70 225Q84 283 98 351.50Q112 420 126 499L126 499Q96 491 76 486Q56 481 41 479L41 479L18 534Q50 534 79 534.50Q108 535 132 541L132 541Q146 629 153.50 693.50Q161 758 161 801L161 801Z"/></svg>