<svg id="U2156E" viewBox="0 0 1024 1024"><path transform="translate(0, 921.6) scale(1,-1)" d="M303 298L263 278Q233 218 199 167Q165 116 129 68L129 68L342 82Q327 111 312 140.50Q297 170 280 200L280 200L293 209Q417 86 417 55L417 55Q422 26 398-4L398-4Q376-26 371 0L371 0Q363 12 359.50 28Q356 44 352 62L352 62Q317 56 280 48.50Q243 41 204 29L204 29Q169 19 143 10.50Q117 2 103-7L103-7L63 55Q98 62 132 128L132 128Q149 157 169.50 208Q190 259 217 334L217 334L155 334Q109 334 80 324L80 324L40 360L221 360L221 557L178 557Q142 557 103 547L103 547L63 583L221 583Q221 656 220.50 705.50Q220 755 217 780L217 780L306 734L276 708L276 583L342 583L384 622L443 557L276 557L276 360L355 360L398 403L460 334L237 334L303 298ZM764 249L578 249L558 223Q578 191 605 160Q632 129 666 98L666 98Q692 127 716.50 164Q741 201 764 249L764 249ZM584 383L653 337L624 321Q616 306 607.50 295Q599 284 594 275L594 275L768 275L797 305L856 255L824 236Q784 172 755 129Q726 86 702 62L702 62Q820-23 958-32L958-32L958-49Q889-54 879-94L879-94Q755-50 666 33L666 33Q591-16 510-48Q429-80 339-94L339-94L335-85Q527-27 637 68L637 68Q607 105 581 137.50Q555 170 538 203L538 203Q470 129 401 95L401 95L394 108Q433 142 466 175.50Q499 209 519 239L519 239Q498 257 493 288L493 288L499 298Q511 286 517.50 277.50Q524 269 532 262L532 262Q551 293 563.50 323.50Q576 354 584 383L584 383ZM460 658L637 658Q637 692 635 731.50Q633 771 633 819L633 819L725 780L689 753L689 658L787 658L837 698L899 632L689 632L689 518L843 518L896 560L961 491L764 491Q759 386 764 377L764 377Q769 357 801 357L801 357Q814 354 821 354L821 354L827 354Q867 354 902 363L902 363Q927 370 964 334L964 334Q943 302 869 311L869 311L837 311Q709 294 709 390L709 390L709 491L623 491Q591 411 538 354L538 354Q511 324 473 297Q435 270 381 249L381 249L375 259Q409 283 439 309Q469 335 496 370L496 370Q516 398 532 428.50Q548 459 561 491L561 491L515 491Q493 491 475 487Q457 483 440 478L440 478L401 518L637 518L637 632L568 632Q548 632 530.50 628.50Q513 625 496 622L496 622L460 658Z"/></svg>