<svg id="U21C4E" viewBox="0 0 1024 1024"><path transform="translate(0, 921.6) scale(1,-1)" d="M243 592L243 723L802 723L802 592L243 592ZM34-57L34-57L44-67Q95-13 131 51.50Q167 116 194 194L194 194Q221 269 232 360.50Q243 452 243 566L243 566L802 566L802 520L863 550Q860 566 860 590L860 590L860 651L860 720L886 752L818 795L795 752L240 752L182 788Q186 511 182 409L182 409Q178 355 169.50 304.50Q161 254 151 203L151 203Q139 148 109.50 83Q80 18 34-57ZM260-96L260-96L319-70L319 393L525 393Q513 326 465 275L465 275Q428 228 342 184L342 184L351 168Q445 203 488 246L488 246Q512 263 530 284.50Q548 306 566 331L566 331Q617 306 655 282.50Q693 259 720 233L720 233Q775 178 779 220L779 220Q783 260 762 285L762 285Q750 292 733 300.50Q716 309 694 314L694 314Q672 322 641 330Q610 338 573 351L573 351Q575 357 578 369Q581 381 586 393L586 393L840 393L840 37Q840-8 818-12L818-12Q805-12 772.50-9Q740-6 680 5L680 5L680-15Q798-42 808-96L808-96Q851-82 877-50L877-50Q883-34 890-17.50Q897-1 897 28L897 28L897 386L923 416L860 462L834 419L593 419Q597 464 602 497L602 497L635 517L540 557Q540 526 538 493Q536 460 534 419L534 419L322 419L260 452Q262 410 262.50 351Q263 292 263 214L263 214Q263 135 262.50 58.50Q262-18 260-96ZM628 220L554 259Q534 196 494 125L494 125Q469 93 436.50 58Q404 23 354-6L354-6L361-21Q410-2 472 43L472 43Q497 62 522.50 86Q548 110 573 145L573 145Q621 115 653.50 89.50Q686 64 707 37L707 37Q752-6 762 24L762 24Q777 50 759 83L759 83Q727 108 703 119L703 119Q685 128 654.50 139Q624 150 580 165L580 165Q592 182 602.50 195.50Q613 209 628 220L628 220Z"/></svg>