<svg id="U21DB4" viewBox="0 0 1024 1024"><path transform="translate(0, 921.6) scale(1,-1)" d="M315 154L315 154L315 81L375 107Q369 159 368.50 210Q368 261 368 306L368 306L368 557L398 583L308 620Q313 582 314 470Q315 358 315 174L315 174L236 164L236 745L259 775L180 808Q182 775 182.50 613Q183 451 183 154L183 154L104 141L104 560L137 590L51 623Q53 583 53.50 469.50Q54 356 54 167L54 167Q48 132 37 121L37 121L70 61Q88 81 148.50 102.50Q209 124 315 154ZM662 692L414 692L447 656Q464 658 483.50 660.50Q503 663 523 663L523 663L930 663L867 735L824 692L682 692Q721 728 702 762L702 762Q686 790 589 828L589 828L583 818Q615 780 634.50 751Q654 722 662 692L662 692ZM490 636L490 636L484 623Q542 553 563 498L563 498Q577 439 609 478L609 478Q634 512 612 544L612 544Q601 573 490 636ZM831 597L864 610L784 659Q772 617 750 567.50Q728 518 692 458L692 458L705 448Q732 478 763.50 513.50Q795 549 831 597L831 597ZM305-87L305-87L318-100Q416-11 457 94L457 94Q477 148 483.50 227.50Q490 307 490 415L490 415L946 415L887 488L834 441L490 441L437 478L437 289Q437 187 408 94L408 94Q397 49 370.50 6.50Q344-36 305-87Z"/></svg>