<svg id="U21798" viewBox="0 0 1024 1024"><path transform="translate(0, 921.6) scale(1,-1)" d="M808 683L413 683L440 644Q476 654 523 654L523 654L925 654L861 727L808 683ZM520 644L520 644L510 630Q531 595 547 567.50Q563 540 566 521L566 521Q580 480 596 484L596 484Q612 490 622 518L622 518Q629 542 603 571L603 571Q590 586 569.50 604.50Q549 623 520 644ZM460 126L460 126Q499 113 545.50 98.50Q592 84 646 69L646 69Q576 14 495.50-23Q415-60 327-86L327-86L330-106Q441-91 531-52.50Q621-14 696 46L696 46Q760 8 801.50-17.50Q843-43 861-66L861-66Q899-109 908-92L908-92Q915-82 915-49L915-49Q915-23 885 3L885 3Q867 15 827.50 35.50Q788 56 725 86L725 86Q784 159 822 262L822 262L961 262L898 335L845 292L599 292Q609 311 619.50 335Q630 359 642 382L642 382L676 405L606 448L954 448L891 521L842 478L725 478Q740 500 757 526.50Q774 553 792 580L792 580L828 607L749 647Q746 626 734 584Q722 542 702 478L702 478L387 478L420 441Q458 448 496 448L496 448L599 448Q594 416 580 377.50Q566 339 543 292L543 292L380 292L417 255Q455 262 493 262L493 262L533 262Q518 226 497.50 192Q477 158 460 126ZM520 139L586 262L759 262Q733 173 676 99L676 99Q631 111 591.50 121Q552 131 520 139L520 139ZM576 836L576 836L563 830Q620 765 632 743L632 743Q639 727 645.50 715Q652 703 659 693L659 693Q675 683 689 707L689 707Q707 729 689 763L689 763Q670 790 576 836ZM168 577L168 577L45 577L81 541Q109 547 125 547L125 547L165 547Q152 456 136.50 377Q121 298 101 229L101 229Q155 199 194 178.50Q233 158 248 149L248 149Q208 87 151.50 29Q95-29 22-86L22-86L28-106Q116-58 179-2.50Q242 53 287 119L287 119Q309 101 330.50 77.50Q352 54 370 20L370 20Q410-33 420 6L420 6Q435 51 400 86L400 86Q384 103 362 122.50Q340 142 311 162L311 162Q363 280 380 541L380 541L413 564L354 620L321 577L224 577Q231 629 238 671.50Q245 714 248 747L248 747L287 776L194 823Q191 766 183 703.50Q175 641 168 577ZM218 547L327 547Q311 290 264 189L264 189Q238 200 212 212.50Q186 225 161 239L161 239Q196 389 218 547L218 547Z"/></svg>