<svg id="U21427" viewBox="0 0 1024 1024"><path transform="translate(0, 921.6) scale(1,-1)" d="M409 453L359 437Q361 465 361.50 493Q362 521 362 549L362 549Q362 572 361.50 599.50Q361 627 359 660L359 660L418 632L514 632L514 713L412 713Q393 710 376 709.50Q359 709 344 707L344 707L310 741L805 741L852 781L914 713L706 713L706 632L802 632L833 663L883 614L858 595L858 526Q858 494 861 475L861 475L808 447L808 465L409 465L409 453ZM657 713L560 713L560 632L657 632L657 713ZM514 608L409 608L409 493L514 493L514 608ZM657 608L560 608L560 493L657 493L657 608ZM808 608L706 608L706 493L808 493L808 608ZM393 434L393 434L455 406L737 406L771 441L824 388L799 369L799 245Q799 196 802 171L802 171L750 149L750 174L629 174L629 97L802 97L849 149L907 72L629 72L629-3Q629-37 632-70L632-70L576-88Q576-49 577.50-9.50Q579 30 579 72L579 72L393 72Q358 72 325 63L325 63L291 97L579 97L579 174L446 174L446 165L393 140Q398 174 399 211.50Q400 249 400 289L400 289Q400 331 399 365Q398 399 393 434ZM579 382L446 382L446 301L579 301L579 382ZM579 273L446 273L446 202L579 202L579 273ZM232 484L232 224Q265 233 293 244Q321 255 347 267L347 267L350 248Q127 153 93 106L93 106L49 174Q70 174 102.50 184.50Q135 195 183 211L183 211L183 484L161 484Q142 484 125 482Q108 480 93 478L93 478L59 512L183 512L183 673Q183 688 182.50 714.50Q182 741 180 778L180 778L260 741L232 713L232 512L260 512L297 552L350 484L232 484ZM750 273L629 273L629 202L750 202L750 273ZM750 382L629 382L629 301L750 301L750 382Z"/></svg>