<svg id="U21048" viewBox="0 0 1024 1024"><path transform="translate(0, 921.6) scale(1,-1)" d="M113 668L201 668L201 198L113 198L113 668ZM58 58L58 58L113 84L113 172L201 172L201 65L257 97Q254 129 253.50 161Q253 193 253 228L253 228L253 648L283 678L234 727L201 697L113 697L58 730Q60 685 60.50 642Q61 599 61 551L61 551L61 179Q61 146 60.50 116.50Q60 87 58 58ZM315 619L280 655L420 655Q414 705 404 730L404 730Q395 761 364 802L364 802L374 812Q443 760 462 723L462 723Q475 696 439 655L439 655L495 655L524 684L576 625L391 625Q368 625 350 623Q332 621 315 619L315 619ZM338 590L338 590L332 583Q346 553 352 526.50Q358 500 361 479L361 479Q365 430 381 430L381 430Q387 430 410 456L410 456Q425 475 410 515L410 515Q392 543 338 590ZM439 394L270 394L303 358Q322 361 339.50 363Q357 365 377 365L377 365L417 365Q417 323 416.50 287.50Q416 252 413 218L413 218L280 218L315 182Q332 184 350 186.50Q368 189 391 189L391 189L413 189Q394 20 257-97L257-97L260-107Q443-4 462 189L462 189L583 189L531 254L485 218L462 218Q462 260 464 296.50Q466 333 466 368L466 368L593 368L534 430L495 394L456 394Q473 428 493 465Q513 502 537 544L537 544L563 564L498 606Q476 500 439 394L439 394ZM811 655L599 655L632 616Q666 625 700 625L700 625L919 625L857 691L811 655ZM655 583L655 583L645 577Q659 550 670 522.50Q681 495 684 466L684 466Q697 411 720 437L720 437Q743 460 733 495L733 495Q717 525 655 583ZM723-97L723-97L782-75Q779-42 779 20L779 20Q779 82 779 176L779 176L932 176L873 241L834 202L779 202L779 368L945 368L886 437L844 397L779 397Q798 431 818.50 468.50Q839 506 857 541L857 541L880 560L811 603Q806 573 794.50 523Q783 473 759 397L759 397L593 397L625 362Q644 364 662 366Q680 368 700 368L700 368L726 368L726 202L606 202L642 166Q676 176 726 176L726 176Q726 104 724.50 38Q723-28 723-97ZM694 818L694 818L684 808Q701 776 714 748Q727 720 733 691L733 691Q742 636 772 671L772 671Q794 716 775 743L775 743Q755 765 694 818Z"/></svg>