<svg id="U215C7" viewBox="0 0 1024 1024"><path transform="translate(0, 921.6) scale(1,-1)" d="M154 303L154 303L151 293Q186 260 203 222L203 222Q219 188 235 232L235 232Q255 268 154 303ZM341 284L341 284L331 274Q361 248 373 216L373 216Q392 178 409 219L409 219Q426 250 341 284ZM328 174L328 174L325 161Q357 134 370 103L370 103Q388 71 406 103L406 103Q423 142 328 174ZM151 181L151 181L148 171Q190 128 203 100L203 100Q214 62 232 106L232 106Q254 146 151 181ZM264 213L264-2Q259-14 232-24L232-24L270-79Q306-47 343-14Q380 19 425 55L425 55L418 65L309 4L309 280L338 303L261 335Q263 303 263.50 272Q264 241 264 213L264 213ZM129 551L71 580Q75 443 71 316L71 316L74 313L74 13Q74-10 45-24L45-24L90-73Q111-50 147-17Q183 16 235 58L235 58L228 65L125 7L125 261L148 284L90 316L125 335L125 522L463 522L463 313L518 332Q513 375 512.50 418Q512 461 512 509L512 509L541 535L480 576L460 551L129 551ZM505 293L428 322Q428 92 489 7L489 7Q549-71 750-86L750-86Q949-99 937-73L937-73Q927-59 921.50-45.50Q916-32 914-21L914-21Q908-2 908 103L908 103L895 103Q887 64 881.50 28.50Q876-7 869-41L869-41Q669-45 570 0L570 0Q480 52 480 271L480 271L505 293ZM80 657L80 657Q138 624 164 580L164 580Q192 535 209 580L209 580Q228 625 106 660L106 660Q142 699 170.50 722Q199 745 219 760L219 760L154 799Q144 767 124 733Q104 699 80 657ZM212 663L212 663Q291 610 312 573L312 573Q336 539 351 583L351 583Q369 628 244 663L244 663Q274 693 303 716.50Q332 740 360 757L360 757L293 799Q277 765 257 731Q237 697 212 663ZM351 673L351 673Q393 649 421.50 628Q450 607 470 583L470 583Q507 532 518 589L518 589Q528 638 389 676L389 676L489 750L521 757L457 799Q398 707 351 673ZM164 325L164 325L174 319Q244 363 299 445L299 445Q351 398 367 361L367 361Q388 325 406 351L406 351Q416 384 399 403L399 403Q382 425 306 461L306 461Q315 484 338 503L338 503L280 528Q240 403 164 325ZM740 721L740 721L769 741L685 776Q647 513 531 358L531 358L544 351Q631 438 689 564L689 564L846 564Q803 278 550 45L550 45L560 36Q834 217 901 554L901 554L933 583L879 631L850 593L698 593Q706 614 716 646Q726 678 740 721ZM631 458L637 474Q738 424 756 403L756 403Q767 383 756 345L756 345Q736 308 718 354L718 354Q695 397 631 458L631 458Z"/></svg>