<svg id="U21D85" viewBox="0 0 1024 1024"><path transform="translate(0, 921.6) scale(1,-1)" d="M317 117L317 117L317 34L370 70Q367 127 367 178L367 178Q367 230 367 281L367 281L367 558L393 585L311 627Q315 588 316 465.50Q317 343 317 140L317 140L235 126L235 766L261 792L179 838Q181 801 181.50 622Q182 443 182 117L182 117L113 100L113 562L143 588L57 634Q59 589 59.50 465Q60 341 60 133L60 133Q55 105 37 80L37 80L80 18Q105 55 317 117ZM637 248L637 519L788 519L788 248L637 248ZM429 657L429 11L403-14L459-67L485-31L947-31L881 44L825-4L482-4L482 720L927 720L858 789L812 746L485 746L426 779Q426 742 427.50 710.50Q429 679 429 657L429 657ZM581 146L581 146L637 173L637 219L788 219L788 169L848 196Q845 225 845 302L845 302Q845 379 845 512L845 512L868 542L808 585L779 545L637 545L581 581Q581 539 582.50 488Q584 437 584 377L584 377Q584 314 582.50 255.50Q581 197 581 146Z"/></svg>