<svg id="U21E5D" viewBox="0 0 1024 1024"><path transform="translate(0, 921.6) scale(1,-1)" d="M176 607L176 607L143 584L199 540L233 564L815 564L815 524L875 547Q872 569 871.50 592.50Q871 616 871 644L871 644L871 708L898 734L811 768Q811 742 813 698Q815 654 815 591L815 591L554 591L554 758L587 788L494 825Q494 802 497 781.50Q500 761 500 741L500 741L500 591L233 591L233 708L263 734L173 768Q175 747 175.50 707Q176 667 176 607ZM861 400L825 317L838 310Q893 374 962 403L962 403L895 467L861 427L179 427L179 464L163 464Q157 423 136 383L136 383Q111 342 96 330L96 330Q76 314 92 296L92 296Q114 283 133 290L133 290Q152 290 169 317L169 317Q179 338 179 400L179 400L861 400ZM420 557L427 567Q454 554 477 545Q500 536 520 527L520 527Q561 501 554 480L554 480Q554 452 534 437L534 437Q516 408 500 457L500 457Q490 476 470.50 501Q451 526 420 557L420 557ZM400 320L400 320L440 323L380 393Q345 349 266 300L266 300Q228 272 182 248Q136 224 79 199L79 199L82 189Q238 223 400 320ZM577 370L577 370L574 357Q598 344 622 335Q646 326 674 317L674 317Q698 304 724 290.50Q750 277 778 260L778 260Q836 222 861 210L861 210Q881 193 898 193L898 193Q911 193 911 213L911 213Q911 222 907.50 233Q904 244 901 256L901 256Q891 283 821 303L821 303Q785 315 725 331Q665 347 577 370ZM697 216L233 216L266 179Q306 189 350 189L350 189L487 189L487-34L69-34L109-70Q127-67 146.50-63.50Q166-60 189-60L189-60L975-60L891 22L825-34L547-34L547 189L825 189L751 263L697 216Z"/></svg>