<svg id="U2130A" viewBox="0 0 1024 1024"><path transform="translate(0, 921.6) scale(1,-1)" d="M572 784L483 819Q485 771 485.50 732Q486 693 486 662L486 662L102 662L141 627Q175 637 218 637L218 637L486 637L486 372Q486 343 464 343L464 343Q452 339 361 349L361 349L361 330Q442 321 473 266L473 266Q532 275 543 346L543 346L543 506Q586 479 626 454Q666 429 700 400L700 400Q736 371 761.50 345.50Q787 320 809 301L809 301Q845 248 856 301L856 301Q871 346 799 391L799 391Q763 415 698.50 448.50Q634 482 543 528L543 528L543 637L933 637L869 707L815 662L543 662L543 761L572 784ZM620 793L617 780Q674 743 716 697L716 697Q747 657 757 697L757 697Q776 729 738 755L738 755Q711 766 620 793L620 793ZM221 608L218 598Q260 569 285.50 543Q311 517 326 496L326 496Q353 449 374 490L374 490Q387 532 355 557L355 557Q325 571 221 608L221 608ZM109 359L160 298Q180 314 256 356Q332 398 464 467L464 467L457 487Q214 375 109 359L109 359ZM821 554L821 554L767 605Q727 558 614 490L614 490L623 480Q687 501 737.50 521.50Q788 542 821 554ZM483 145L483 145L150 145L186 110Q204 112 223.50 114Q243 116 262 116L262 116L483 116L483-27L64-27L102-65Q134-52 179-52L179-52L959-52L888 23L828-27L540-27L540 122L869 122L793 199L735 148L540 148L540 205L572 228L480 266Q480 220 481.50 189.50Q483 159 483 145Z"/></svg>