<svg id="U21460" viewBox="0 0 1024 1024"><path transform="translate(0, 921.6) scale(1,-1)" d="M426 339L250 339L250 257L426 257L426 339ZM250 207L193 188Q195 206 195.50 220.50Q196 235 196 245L196 245L196 348Q196 386 195.50 421.50Q195 457 193 490L193 490L250 471L417 471L448 503L501 455L476 440L476 270Q476 226 483 216L483 216L426 194L426 232L250 232L250 207ZM426 446L250 446L250 367L426 367L426 446ZM165 672L134 707L332 707Q312 747 272 785L272 785L278 795Q346 768 357 751L357 751Q378 732 350 707L350 707L435 707L483 741L536 682L423 682L486 650Q451 638 384 562L384 562L464 562L508 594L561 534L212 534Q191 534 172 532Q153 530 137 528L137 528L99 562L269 562Q260 570 259 584L259 584Q255 608 215 660L215 660L225 666Q248 654 265 643Q282 632 294 625L294 625Q315 607 303 587L303 587Q292 563 279 562L279 562L364 562Q410 636 416 682L416 682L240 682Q202 682 165 672L165 672ZM734 719L737 729Q784 710 816 685L816 685Q844 661 844 641L844 641Q844 607 822 600L822 600Q800 584 784 628L784 628Q777 652 763.50 673.50Q750 695 734 719L734 719ZM184 109L489 109Q489 133 488.50 156.50Q488 180 486 204L486 204L571 172L542 144L542 109L728 109L778 157L844 84L542 84L542-25L838-25L895 25L957-50L178-50Q138-50 102-56L102-56L67-25L489-25L489 84L297 84Q278 84 258 82Q238 80 221 78L221 78L184 109ZM643 506L643 506L564 493L536 484L508 512L640 531Q632 631 628 694.50Q624 758 624 789L624 789L715 757L687 735L687 614Q687 565 690 537L690 537L822 562L863 606L935 550L696 512Q696 437 728 370L728 370Q778 429 800 503L800 503L876 459L844 446Q827 421 802.50 392Q778 363 747 329L747 329Q790 259 866 232L866 232Q873 260 883.50 288Q894 316 904 352L904 352L920 348Q914 320 913.50 294Q913 268 913 245L913 245Q913 192 923 172L923 172Q936 142 854 179L854 179Q768 212 703 295L703 295Q612 225 523 204L523 204L517 219Q597 249 684 336L684 336Q667 375 656 418Q645 461 643 506Z"/></svg>