<svg id="U21AD6" viewBox="0 0 1024 1024"><path transform="translate(0, 921.6) scale(1,-1)" d="M153 743L153 743L169 743L176 711L494 711Q494 749 429 814L429 814L435 827Q477 807 504 792.50Q531 778 539 769L539 769Q560 741 529 711L529 711L843 711L869 749L944 688Q889 677 831 591L831 591L817 594L850 685L176 685Q181 581 114 581L114 581Q53 581 92 620L92 620Q133 657 153 743ZM380 587L254 587L254 474L380 474L380 587ZM558 587L432 587L432 474L558 474L558 587ZM743 587L604 587L604 474L743 474L743 587ZM254 442L199 429Q201 462 201.50 491.50Q202 521 202 545L202 545Q202 564 201.50 588.50Q201 613 199 643L199 643L254 613L733 613L762 649L821 600L792 584L792 512Q792 479 795 451L795 451L743 432L743 448L254 448L254 442ZM717 225L276 225L276 176L717 176L717 225ZM400 124L400-24L555 30L562 14Q384-70 380-95L380-95L325-47Q341-31 341-15L341-15L341 76Q280 28 206-1Q132-30 50-50L50-50L43-37Q158-1 234 46L234 46Q270 73 302 96.50Q334 120 361 150L361 150L276 150L276 134L221 121Q224 150 224.50 178.50Q225 207 225 244L225 244Q225 275 224.50 301.50Q224 328 221 348L221 348L283 328L714 328L749 361L798 315L772 302L772 207Q772 169 775 150L775 150L717 140L717 150L532 150Q554 130 583 109.50Q612 89 649 72L649 72Q712 96 754.50 119Q797 142 814 169L814 169L869 111Q843 109 793 95Q743 81 668 56L668 56Q834-20 960-15L960-15L960-30Q897-35 882-76L882-76Q824-61 774-40Q724-19 678 7L678 7Q630 36 586.50 71.50Q543 107 500 150L500 150L435 150L400 124ZM105 370L69 406L824 406L882 448L944 380L202 380Q177 380 153 378.50Q129 377 105 370L105 370ZM717 302L276 302L276 251L717 251L717 302Z"/></svg>