<svg id="U213B9" viewBox="0 0 1024 1024"><path transform="translate(0, 921.6) scale(1,-1)" d="M371 568L371 568L387 568L387 539L868 539L893 568L948 517Q903 499 848 426L848 426L838 433L871 510L632 510L632 449L755 449L787 488L842 446L813 420L813 329Q806 270 745 262L745 262Q741 294 667 320L667 320L667 329Q752 316 761 342L761 342L761 423L632 423L632 358L632 311Q632 289 635 265L635 265L574 239Q574 263 577 289.50Q580 316 580 346L580 346L580 423L467 423L467 291L409 265Q412 301 412.50 333Q413 365 413 388L413 388Q413 412 412.50 434.50Q412 457 409 481L409 481L467 449L580 449L580 510L387 510Q387 459 364 430L364 430Q340 406 316 423L316 423Q287 434 326 465L326 465Q361 494 371 568ZM413 188L384 223L742 223L768 252L822 204L790 184Q756 139 722 103Q688 67 655 45L655 45Q761-18 913-18L913-18L913-34Q862-39 842-86L842-86Q782-71 726-45.50Q670-20 616 10L616 10Q553-25 475-51Q397-77 303-89L303-89L297-70Q391-45 460-17Q529 11 574 42L574 42Q537 76 505 113.50Q473 151 445 194L445 194L413 188ZM732 194L474 194Q519 126 613 68L613 68Q667 106 732 194L732 194ZM225 484L225 200Q261 209 294 221Q327 233 361 246L361 246L364 229Q235 171 164.50 132.50Q94 94 77 75L77 75L35 146Q70 146 171 188L171 188L171 484L148 484Q128 484 109 482Q90 480 74 478L74 478L38 510L171 510L171 681Q171 698 170.50 725Q170 752 167 791L167 791L254 749L225 723L225 510L261 510L293 546L342 484L225 484ZM800 697L809 697L848 729L906 668L800 668L800 584L745 565L745 591L532 591Q510 591 489 588.50Q468 586 451 584L451 584L416 620L745 620L745 665L745 668L467 668Q443 665 424.50 663Q406 661 387 659L387 659L355 697L745 697L745 749L532 749Q498 746 477.50 744Q457 742 448 742L448 742L409 778L742 778L764 810L826 768L800 746L800 697Z"/></svg>