<svg id="U21D57" viewBox="0 0 1024 1024"><path transform="translate(0, 921.6) scale(1,-1)" d="M164 730L164 730L253 707L221 685L221 558L467 558Q467 636 463.50 698.50Q460 761 460 806L460 806L549 777L521 749L521 558L772 558Q772 588 770.50 630Q769 672 769 723L769 723L852 685L826 666L826 577Q826 571 826.50 557.50Q827 544 830 523L830 523L772 500L772 529L225 529L202 507L145 545L167 567Q167 612 166.50 654Q166 696 164 730ZM199 472L202 494L279 453L250 440L237 389L724 389L750 430L810 386L785 354L785 214L826 214L881 258L947 188L540 188Q679 8 941-18L941-18L941-30Q863-40 849-81L849-81Q639-18 514 188L514 188L486 188Q408-13 75-85L75-85L69-69Q342 17 428 188L428 188L167 188Q131 188 94 179L94 179L56 214L435 214Q439 247 443 284Q447 321 447 363L447 363L237 363L212 341L158 386L183 405L199 472ZM728 363L505 363Q499 318 496.50 280Q494 242 492 214L492 214L728 214L728 363Z"/></svg>