<svg id="U2188C" viewBox="0 0 1024 1024"><path transform="translate(0, 921.6) scale(1,-1)" d="M420 732L436 732L446 696L621 696Q621 726 612 752L612 752Q604 764 594 777Q584 790 569 800L569 800L576 813Q667 774 673 742L673 742Q673 711 654 696L654 696L859 696L891 732L950 677Q907 677 849 599L849 599L836 608L862 670L446 670Q446 635 439 621L439 621Q433 597 410 589L410 589Q386 574 361 589L361 589Q346 599 378 631L378 631Q415 665 420 732L420 732ZM540 638L540 638L602 586L569 579Q473 509 391 472L391 472L381 485Q493 560 540 638ZM686 628L693 638Q817 602 843 579L843 579Q875 556 862 517L862 517Q852 477 820 521L820 521Q786 567 686 628L686 628ZM413 150L413 413L478 391L459 368L459 130L836 130L878 173L937 104L469 104L433 75L387 127L413 150ZM511 508L566 475L673 475L771 475L797 511L843 472L820 452L820 124L774 124L774 449L559 449L559 124L514 124L514 374Q514 391 512.50 425.50Q511 460 511 508L511 508ZM553 355L781 355L781 329L553 329L553 355ZM553 238L781 238L781 212L553 212L553 238ZM553 98L615 39Q579 34 517-13L517-13Q487-34 454-55.50Q421-77 387-100L387-100L378-87Q497 3 553 98L553 98ZM706 78L712 91Q894 8 898-25L898-25Q902-48 891-83L891-83Q872-108 843-54L843-54Q830-30 795 1.50Q760 33 706 78L706 78ZM46 566L150 566Q157 629 163.50 687.50Q170 746 173 797L173 797L254 755L228 729Q218 687 211.50 646Q205 605 199 566L199 566L286 566L312 605L361 553L335 530Q326 288 277 169L277 169Q310 143 329.50 128Q349 113 355 108L355 108Q373 89 355 52L355 52Q344 19 316 59L316 59Q294 99 260 127L260 127Q218 61 163 10Q108-41 39-83L39-83L33-67Q93-15 140.50 40Q188 95 225 153L225 153Q210 165 174.50 183Q139 201 91 231L91 231Q110 306 123.50 382.50Q137 459 146 537L146 537L114 537Q100 537 75 530L75 530L46 566ZM286 537L286 537L199 537Q188 458 173.50 385.50Q159 313 140 244L140 244Q167 229 192.50 216.50Q218 204 238 192L238 192Q259 243 270 327.50Q281 412 286 537Z"/></svg>