<svg id="U215EC" viewBox="0 0 1024 1024"><path transform="translate(0, 921.6) scale(1,-1)" d="M167 464L167 464L167 798L252 759L226 723L226 633L381 633L430 681L488 603L226 603L226 438L482 480L482 464Q351 430 276 402Q201 374 174 357L174 357L132 422Q167 427 167 464ZM534 458L534 458L534 610Q534 661 532 710.50Q530 760 530 814L530 814L628 775L592 746L592 633L767 633L825 681L887 603L592 603L592 474Q592 432 647 432L647 432L848 432Q883 421 887 578L887 578L903 578Q909 449 949 425L949 425Q917 378 881 383L881 383L611 383Q534 383 534 458ZM962 257L508 257Q444 70 303 5L303 5Q233-26 168.50-48Q104-70 44-80L44-80L41-67Q199-15 294 56L294 56Q349 89 385.50 141Q422 193 446 257L446 257L190 257Q170 257 150.50 254.50Q131 252 112 250L112 250L73 283L449 283Q452 292 455.50 323.50Q459 355 459 412L459 412L547 377Q524 354 524 344L524 344Q524 322 511 283L511 283L832 283L890 334L962 257ZM514 205L514 205L524 218Q612 176 675 145.50Q738 115 783 91L783 91Q863 41 884 13L884 13Q893-14 884-54L884-54Q867-88 832-37L832-37Q813-14 782.50 14.50Q752 43 709 75L709 75Q667 104 619 137Q571 170 514 205Z"/></svg>