<svg id="U219CC" viewBox="0 0 1024 1024"><path transform="translate(0, 921.6) scale(1,-1)" d="M141 729L141 729L161 729L161 699L463 699Q458 741 398 807L398 807L404 821Q447 798 473.50 783Q500 768 510 761L510 761Q531 734 496 699L496 699L812 699L845 742L914 679Q844 652 789 564L789 564L772 567L812 669L161 669Q161 551 95 551L95 551Q33 551 82 600L82 600Q136 644 141 729ZM381 640L381 640L460 607Q448 600 440 577L440 577Q437 567 434 555Q431 543 431 528L431 528L618 528L644 567L700 528L674 499L674 390Q674 347 723 347L723 347L835 347Q865 347 871 377L871 377Q871 390 873.50 413Q876 436 881 469L881 469L894 469Q894 412 907 387L907 387Q910 357 947 347L947 347Q921 305 871 305L871 305L684 305Q621 305 621 370L621 370L621 502L427 502Q387 310 72 242L72 242L66 259Q334 346 375 502L375 502L296 502Q239 502 204 489L204 489L164 528L378 528Q380 555 380.50 582.50Q381 610 381 640ZM161 255L674 255L713 288L785 223L739 206Q681 149 631.50 108Q582 67 539 42L539 42Q704-24 943-20L943-20L943-36Q872-41 861-89L861-89Q743-79 652.50-53Q562-27 490 12L490 12Q335-77 59-99L59-99L56-82Q293-47 444 38L444 38Q387 80 346 127Q305 174 273 226L273 226Q253 226 235 224Q217 222 197 219L197 219L161 255ZM670 226L296 226Q339 180 385.50 140Q432 100 486 65L486 65Q598 134 670 226L670 226Z"/></svg>