<svg id="U21E13" viewBox="0 0 1024 1024"><path transform="translate(0, 921.6) scale(1,-1)" d="M147 566L147 566L121 543L170 494L202 530L471 530Q471 248 470.50 92.50Q470-63 468-95L468-95L530-76Q527-43 526.50 107Q526 257 526 530L526 530L802 530L802 494L864 520Q861 547 860.50 582Q860 617 860 656L860 656L886 686L795 721Q795 682 798.50 640.50Q802 599 802 556L802 556L526 556L526 760L555 786L468 815Q470 764 470.50 700.50Q471 637 471 556L471 556L205 556L205 663L234 689L144 721Q146 682 146.50 645Q147 608 147 566ZM322 472L228 507Q225 477 211.50 443.50Q198 410 179 368L179 368Q159 328 125.50 292.50Q92 257 46 225L46 225L53 212Q82 224 108.50 239.50Q135 255 160 274L160 274Q183 297 203 319.50Q223 342 241 365L241 365Q262 352 285.50 336Q309 320 328 303L328 303Q352 281 367.50 264.50Q383 248 390 235L390 235Q408 216 426 251L426 251Q441 296 403 326L403 326Q355 362 247 384L247 384Q262 405 272.50 422Q283 439 286 449L286 449Q294 462 322 472L322 472ZM312 228L225 270Q221 234 207 193.50Q193 153 170 105L170 105Q132 14 43-63L43-63L49-76Q68-66 92.50-48Q117-30 144-9L144-9Q193 37 234 108L234 108Q258 91 281.50 72.50Q305 54 325 27L325 27Q346 3 361.50-14Q377-31 387-43L387-43Q399-63 419-24L419-24Q436 17 393 50L393 50Q371 67 333 85Q295 103 241 128L241 128Q254 151 261.50 168Q269 185 273 196L273 196Q285 219 312 228L312 228ZM789 475L708 520Q704 465 663 381L663 381Q609 297 530 235L530 235L539 225Q570 237 595.50 253Q621 269 643 287L643 287Q662 306 682 328Q702 350 724 374L724 374Q743 364 764.50 346Q786 328 809 309L809 309Q832 289 847.50 273.50Q863 258 870 245L870 245Q887 222 906 264L906 264Q915 309 883 332L883 332Q865 344 827 360Q789 376 731 394L731 394Q752 441 763 452L763 452Q763 458 789 475L789 475ZM744 144L744 144Q781 15 886-72L886-72Q917-30 961-30L961-30L961-14Q837 16 753 170L753 170L770 209L792 228L714 274Q681 51 539-69L539-69L546-85Q674-7 744 144Z"/></svg>