<svg id="U21DFC" viewBox="0 0 1024 1024"><path transform="translate(0, 921.6) scale(1,-1)" d="M184 603L184 603L159 584L219 544L244 565L792 565L792 528L852 547Q849 568 848.50 589Q848 610 848 634L848 634L848 694L877 716L786 750Q786 726 789 687Q792 648 792 594L792 594L541 594L541 738L582 763L485 801Q487 781 487.50 759Q488 737 488 719L488 719L488 594L240 594L240 694L269 719L181 750Q183 729 183.50 693Q184 657 184 603ZM877 500L830 450L541 450L541 503L570 528L485 562L485 450L96 450L134 415Q165 425 212 425L212 425L419 425Q312 294 71 199L71 199L78 183Q321 251 485 406L485 406L485 327Q485 291 483.50 264.50Q482 238 482 215L482 215L544 236Q541 264 541 284L541 284L541 324L541 412Q682 260 880 202L880 202Q880 244 952 255L952 255L952 271Q837 277 739.50 316.50Q642 356 551 425L551 425L949 425L877 500ZM197 6L197 6L172-16L231-60L256-35L773-35L773-76L833-54Q830-30 830-8L830-8L830 39L830 105L858 130L767 164Q767 138 770 95.50Q773 53 773-10L773-10L541-10L541 143L570 171L485 208Q487 182 487.50 159.50Q488 137 488 120L488 120L488-10L253-10L253 105L278 133L194 164Q196 143 196.50 102Q197 61 197 6Z"/></svg>