<svg id="U21C00" viewBox="0 0 1024 1024"><path transform="translate(0, 921.6) scale(1,-1)" d="M45 576L164 576Q164 670 163.50 732.50Q163 795 161 830L161 830L260 797L220 764L220 576L320 576L366 632L432 546L339 546L339 50Q334-21 419-13L419-13L856-13Q876-19 892 33L892 33Q894 57 896.50 84.50Q899 112 902 142L902 142L918 142Q918 53 932 30L932 30Q935 4 971 0L971 0Q934-55 879-55L879-55L383-55Q287-61 287 23L287 23L287 546L220 546Q220 334 181 175L181 175Q138 16 45-95L45-95L35-85Q71-18 96.50 50.50Q122 119 138 189L138 189Q150 258 155.50 346Q161 434 164 546L164 546L158 546Q141 546 121.50 544.50Q102 543 81 539L81 539L45 576ZM594 681L512 681Q487 623 469 592L469 592Q492 585 512.50 580Q533 575 551 572L551 572Q568 604 579.50 630Q591 656 594 681L594 681ZM564 781L541 761L522 708L601 708L617 738L667 698L647 678Q635 643 620.50 613Q606 583 591 556L591 556Q600 553 609 548.50Q618 544 631 539L631 539Q650 530 650 513L650 513Q655 493 647 476L647 476Q639 466 633 469Q627 472 617 480L617 480Q595 505 568 519L568 519Q547 497 525 477.50Q503 458 478 443L478 443Q455 429 426.50 418.50Q398 408 366 400L366 400L363 414Q390 426 413.50 440.50Q437 455 462 473L462 473Q482 489 498.50 506.50Q515 524 528 543L528 543Q498 555 474 561.50Q450 568 425 576L425 576Q437 605 446 631Q455 657 465 685L465 685Q438 682 422 680.50Q406 679 399 675L399 675L369 708L472 708Q479 732 484 759.50Q489 787 495 820L495 820L564 781ZM816 582L816 582Q941 511 932 460L932 460Q916 414 882 457L882 457Q864 476 841.50 500.50Q819 525 789 552L789 552Q732 480 617 420L617 420L611 433Q657 469 692 505Q727 541 753 576L753 576Q718 595 692.50 610.50Q667 626 650 638L650 638L654 655Q696 637 725.50 623Q755 609 773 602L773 602Q790 619 805.50 645Q821 671 839 701L839 701L760 701Q739 701 721.50 699Q704 697 687 695L687 695L650 728L846 728L875 764L928 705L889 685Q874 662 856 635.50Q838 609 816 582ZM459 371L459 390Q596 400 682.50 420Q769 440 809 463L809 463L859 400Q829 397 785 394.50Q741 392 687 387L687 387L687 308L773 308L826 351L882 278L687 278L687 212L832 212L882 255L952 185L687 185L687 73Q687 16 607-7L607-7Q607 46 502 66L502 66L502 83Q527 78 550 75.50Q573 73 594 73L594 73Q629 66 634 96L634 96L634 185L485 185Q465 185 445.50 181.50Q426 178 409 175L409 175L373 212L634 212L634 278L528 278Q512 278 493.50 276.50Q475 275 452 271L452 271L419 308L634 308L634 380Q589 375 459 371L459 371Z"/></svg>