<svg id="U21AF8" viewBox="0 0 1024 1024"><path transform="translate(0, 921.6) scale(1,-1)" d="M504 733L559 675Q513 665 458 587L458 587L445 594L481 668L135 668Q139 621 125 600L125 600Q118 581 80 581L80 581Q40 581 64 613L64 613Q94 653 112 733L112 733L125 733L132 694L300 694Q296 742 255 804L255 804L264 810Q335 778 345 752L345 752Q363 724 332 694L332 694L478 694L504 733ZM141 600L154 600Q160 474 135 464L135 464Q110 445 83 455L83 455Q56 467 83 490L83 490Q110 512 141 600L141 600ZM433 587L442 594Q537 543 533 513L533 513Q533 498 526.50 487.50Q520 477 514 468L514 468Q498 452 484 490L484 490Q479 507 465 532Q451 557 433 587L433 587ZM196 474L196 474Q196 510 195.50 543.50Q195 577 193 607L193 607L261 568L239 548L239 494Q239 466 268 455L268 455L355 455Q387 463 387 490L387 490Q392 502 393 524.50Q394 547 397 574L397 574L413 574L413 510Q417 474 452 474L452 474Q426 429 378 429L378 429L258 429Q196 429 196 474ZM252 629L255 649Q291 629 316.50 614.50Q342 600 352 591L352 591Q364 568 352 539L352 539Q335 504 319 542L319 542Q295 580 252 629L252 629ZM48 232L122 232Q122 289 121.50 335Q121 381 119 413L119 413L167 387L426 387L452 419L507 367L478 345L478 232L514 274L565 206L158 206Q117 206 83 196L83 196L48 232ZM232 354L164 354L164 232L232 232L232 354ZM332 354L274 354L274 232L332 232L332 354ZM436 354L374 354L374 232L436 232L436 354ZM122 112L87 151L436 151L475 193L536 122L342 122L342 2Q337-57 268-91L268-91Q272-45 177-17L177-17L177-5Q250-9 268-14L268-14Q294-14 294 15L294 15L294 122L196 122Q174 122 156.50 118Q139 114 122 112L122 112ZM504 623L701 623Q701 674 699.50 719.50Q698 765 698 810L698 810L782 778L756 749L756 623L872 623L914 675L976 594L756 594L756 413L834 413L882 464L940 387L646 387Q601 387 575 374L575 374L539 413L701 413L701 594L614 594Q591 594 573.50 592Q556 590 539 587L539 587L504 623ZM620-52L565-78Q565-39 568.50 6.50Q572 52 572 112L572 112Q572 167 568.50 215.50Q565 264 565 306L565 306L620 280L834 280L859 312L918 267L892 244L892 54L892 7Q892-19 895-49L895-49L840-78L840-11L620-11L620-52ZM840 251L620 251L620 15L840 15L840 251Z"/></svg>