<svg id="U21BC0" viewBox="0 0 1024 1024"><path transform="translate(0, 921.6) scale(1,-1)" d="M152 709L70 709L93 673L116 680L136 680Q123 642 105 603Q87 564 60 525L60 525L73 515Q97 539 119 567Q141 595 156 630L156 630Q156 570 155.50 532.50Q155 495 152 476L152 476L195 496Q190 513 190.50 546Q191 579 189 630L189 630Q201 614 209 603Q217 592 221 584L221 584Q233 546 244 587L244 587Q258 620 192 647L192 647L192 680L248 680L221 729L202 709L192 709L192 772L208 791L146 811Q150 788 151 763.50Q152 739 152 709L152 709ZM461 680L464 680Q455 608 419 515L419 515L425 509Q442 531 456.50 557Q471 583 484 614L484 614Q484 569 483.50 534Q483 499 481 469L481 469L524 486Q521 505 520.50 543Q520 581 520 633L520 633Q532 615 542.50 596Q553 577 563 558L563 558Q568 540 575.50 538Q583 536 586 551L586 551Q596 579 583 604L583 604Q569 621 520 650L520 650L520 680L612 680L579 732L553 709L520 709L520 772L543 791L478 811Q478 781 479.50 754.50Q481 728 481 709L481 709L415 709L432 676L461 680ZM379 584L379 515L349 515L349 624L428 624L396 670L369 650L349 650L349 716L422 716L386 768L366 745L303 745Q308 757 317 769.50Q326 782 336 795L336 795L287 817Q295 789 238 653L238 653L254 653Q268 672 278.50 687.50Q289 703 297 716L297 716L317 716L317 650L241 650L267 614L280 624L317 624L317 515L280 515L280 548L297 558L244 578Q248 566 248 515L248 515L234 496L264 473L277 489L379 489L379 473L409 486L409 548L425 564L379 584ZM123 463L123 492L113 492Q103 460 91 439.50Q79 419 70 407L70 407Q43 379 57 368L57 368Q67 357 96 368L96 368Q123 375 123 433L123 433L537 433L510 368L520 361Q576 430 606 443L606 443L560 492L537 463L123 463ZM277 289L277 289Q313 347 340 354L340 354L300 390Q295 373 283.50 352.50Q272 332 257 308L257 308Q240 327 185 374L185 374L179 364Q198 337 213 317Q228 297 238 285L238 285Q225 265 207.50 243Q190 221 166 200L166 200L175 187Q195 204 214.50 225Q234 246 254 269L254 269Q269 249 277.50 232Q286 215 294 200L294 200Q309 163 317 200L317 200Q322 224 310 246L310 246Q299 266 277 289ZM225 413L221 404Q238 379 244 351L244 351Q252 317 264 348L264 348Q277 370 264 384L264 384Q258 388 248.50 397Q239 406 225 413L225 413ZM238 233L234 226Q241 214 245 201.50Q249 189 254 180L254 180Q259 152 274 174L274 174Q283 193 274 210L274 210Q259 223 238 233L238 233ZM175 328L172 321Q177 306 179.50 292Q182 278 185 266L185 266Q197 243 202 259L202 259Q209 272 205 292L205 292Q200 311 175 328L175 328ZM300 312L300 312L297 302Q304 289 312 278.50Q320 268 323 259L323 259Q325 247 331 246Q337 245 340 252L340 252Q349 278 340 289L340 289Q329 302 300 312ZM389 335L389 335L419 361L346 387Q348 375 348.50 346Q349 317 349 275L349 275L349 164L162 164L162 341L179 361L116 384Q118 361 118.50 311Q119 261 119 180L119 180L100 160L139 118L166 137L349 137L349 118L396 137Q390 154 389.50 203.50Q389 253 389 335ZM379 6L175-32L175 39L376 39L326 98L297 65L175 65L175 68L195 98L123 121Q125 103 125.50 81.50Q126 60 126 39L126 39L126-29Q126-44 106-55L106-55L139-101Q180-70 382-10L382-10L379 6ZM540 325L497 368Q470 310 396 239L396 239L399 223Q423 240 446 255Q469 270 484 282L484 282Q499 297 513.50 306Q528 315 540 325L540 325ZM566 210L527 259Q483 181 379 101L379 101L386 88Q435 109 497 154L497 154Q546 201 566 210L566 210ZM602 59L553 111Q531 71 464 16L464 16Q437-9 406-29Q375-49 343-72L343-72L346-88Q427-62 504-4L504-4Q538 18 562.50 34.50Q587 51 602 59L602 59ZM809 778L727 814Q727 779 729 754.50Q731 730 731 716L731 716L731 49Q731-1 711-4L711-4Q695-11 583 6L583 6L583-14Q698-41 711-92L711-92Q787-62 783 29L783 29L783 749L809 778ZM694 496L619 532Q611 420 598 326Q585 232 563 154L563 154L579 147Q603 195 626.50 276.50Q650 358 668 473L668 473L694 496ZM832 532L832 532L816 528Q846 451 865.50 395Q885 339 895 302L895 302Q904 262 910.50 230Q917 198 924 174L924 174Q933 132 954 154L954 154Q977 184 970 229L970 229Q967 253 958 280Q949 307 934 345L934 345Q916 376 892.50 422.50Q869 469 832 532Z"/></svg>