<svg id="U21F63" viewBox="0 0 1024 1024"><path transform="translate(0, 921.6) scale(1,-1)" d="M282 102L282 160Q94 101 75 72L75 72L32 128Q58 139 58 176L58 176Q58 366 57.50 481Q57 596 55 638L55 638L133 592L107 563L107 144L172 163Q172 460 171.50 623.50Q171 787 169 819L169 819L240 784L221 758L221 167L282 180Q282 367 281.50 479.50Q281 592 279 631L279 631L360 589L334 563L334 313Q334 265 334.50 219.50Q335 174 338 131L338 131L282 102ZM292-99L276-92Q307-29 330 39Q353 107 360 183L360 183Q372 255 377.50 336Q383 417 383 505L383 505Q388 593 385 657.50Q382 722 380 771L380 771L438 745L831 745L877 790L948 719L435 719Q435 582 433 490.50Q431 399 429 345L429 345Q423 296 417 241Q411 186 396 128L396 128Q368 22 292-99L292-99ZM675 628L653 612L653 516Q653 474 656 446L656 446L604 423L604 446L513 446L513 430L461 417Q461 450 464.50 482Q468 514 468 543L468 543Q468 572 464.50 603Q461 634 461 667L461 667L516 644L604 644L636 670L675 628ZM604 618L513 618L513 560L604 560L604 618ZM604 530L513 530L513 472L604 472L604 530ZM604 222L503 222L503 124L604 124L604 222ZM604 98L503 98L503-63L455-82Q455-27 456.50 34Q458 95 458 167L458 167Q458 236 456.50 289.50Q455 343 455 388L455 388L510 365L601 365L623 401L675 352L653 326L653 4Q646-43 594-63L594-63Q584-20 529-2L529-2L529 11Q599-5 604 24L604 24L604 98ZM604 339L503 339L503 248L604 248L604 339ZM818 599L818 599L828 605Q845 593 861 582Q877 571 890 566L890 566Q913 543 916 527L916 527Q916 505 899 485L899 485Q880 466 870 501L870 501Q862 518 849.50 543.50Q837 569 818 599ZM737 680L815 650L792 628Q792 564 790.50 517.50Q789 471 789 440L789 440L834 440L864 469L922 410L818 410Q827 335 835.50 276.50Q844 218 854 176L854 176Q861 127 872.50 92.50Q884 58 896 37L896 37Q920-16 952-37L952-37L948-53Q897-49 877-73L877-73Q812 39 799 410L799 410L789 410Q763 39 636-102L636-102L623-99Q671-20 699.50 107.50Q728 235 740 410L740 410Q728 410 714.50 408Q701 406 682 404L682 404L649 440L740 440L740 550Q740 574 738.50 606Q737 638 737 680L737 680Z"/></svg>