<svg id="U21B52" viewBox="0 0 1024 1024"><path transform="translate(0, 921.6) scale(1,-1)" d="M73 719L73 735Q130 739 186 745Q242 751 302 763L302 763Q360 775 402 783.50Q444 792 468 804L468 804L499 744Q434 739 321 735L321 735Q261 725 200 722Q139 719 73 719L73 719ZM111 703L123 710Q183 672 192 650L192 650Q212 621 186 600L186 600Q164 576 151 613L151 613Q146 636 135 657.50Q124 679 111 703L111 703ZM496 697L471 682Q454 667 430.50 644Q407 621 377 591L377 591L364 594Q392 643 411.50 678.50Q431 714 436 738L436 738L496 697ZM236 707L242 716Q277 697 297.50 685.50Q318 674 324 663L324 663Q343 639 317 613L317 613Q300 583 286 622L286 622Q281 638 267.50 659Q254 680 236 707L236 707ZM248 325L248 387L192 387L192 325L248 325ZM339 325L339 387L286 387L286 325L339 325ZM440 325L440 387L377 387L377 325L440 325ZM418 553L158 553L158 497L418 497L418 553ZM480 177L533 118L393 118L393 8Q393-44 327-75L327-75Q316-25 242-25L242-25L242 2Q342-16 342 8L342 8L342 118L173 118Q227 98 242 77L242 77Q261 52 236 27L236 27Q210 1 205 33L205 33Q199 64 151 118L151 118Q124 118 92 105L92 105L57 143L342 143Q342 159 341.50 179.50Q341 200 339 224L339 224L414 193L393 174L393 143L440 143L480 177ZM724 418L602 418L602 218L724 218L724 418ZM602 149L549 130Q549 167 550.50 211Q552 255 552 303L552 303Q552 354 550.50 396.50Q549 439 549 475L549 475L605 447L721 447L743 478L800 434L771 409Q771 324 771.50 263Q772 202 778 165L778 165L724 149L724 193L602 193L602 149ZM521 556L493 591L721 591L765 628L822 566L596 566Q575 563 557 559.50Q539 556 521 556L521 556ZM549 703L515 738L840 738L865 775L922 729L897 703L897-4Q897-54 825-85L825-85Q810-28 693-10L693-10L693 8Q744-1 777-4Q810-7 822-7L822-7Q847-3 847 24L847 24L847 710L621 710Q581 710 549 703L549 703ZM418 472L158 472Q147 301 54 202L54 202L42 209Q107 322 107 456L107 456L107 513Q107 538 106.50 559.50Q106 581 104 600L104 600L158 581L414 581L436 619L480 584L461 556L461 465L418 447L418 472ZM148 418L198 412L440 412L455 440L512 400L486 375L486 246Q492 203 436 180L436 180Q436 216 374 227L374 227L374 240Q440 220 440 246L440 246L440 299L377 299L377 237L339 224L339 299L286 299L286 224L248 218L248 299L192 299L192 205L148 187L148 418Z"/></svg>