<svg id="U2151E" viewBox="0 0 1024 1024"><path transform="translate(0, 921.6) scale(1,-1)" d="M117 629L86 665L821 665L877 714L938 638L301 638L301 463L733 463L782 506L843 439L301 439L276 405L224 445L249 476L249 638L191 638Q172 635 155 633Q138 631 117 629L117 629ZM243 304L243 316Q337 325 411 336Q485 347 543 356L543 356Q600 367 641.50 381Q683 395 711 411L711 411L769 353Q709 353 540 326L540 326L540 194L812 194L867 237L929 166L540 166L540-10L769-10L815 36L883-35L276-35Q255-39 238-41.50Q221-44 206-47L206-47L172-10L488-10L488 166L197 166Q159 166 126 157L126 157L90 194L488 194L488 316Q431 311 371.50 308.50Q312 306 243 304L243 304ZM433 788L433 788L445 800Q540 762 540 730L540 730Q544 697 521 684L521 684Q501 664 494 696L494 696Q486 729 433 788Z"/></svg>