<svg id="U216CF" viewBox="0 0 1024 1024"><path transform="translate(0, 921.6) scale(1,-1)" d="M196 555L196 555L34 555L70 519Q92 525 122 526.50Q152 528 189 528L189 528L193 528Q178 440 161.50 366Q145 292 130 228L130 228Q196 198 239.50 174.50Q283 151 298 142L298 142Q229 23 67-92L67-92L77-102Q257-2 335 112L335 112Q357 89 375 65Q393 41 408 19L408 19Q437-36 457 6L457 6Q471 45 441 82L441 82Q425 98 404.50 115.50Q384 133 358 152L358 152Q409 255 441 519L441 519L467 548L408 595L381 555L252 555Q259 603 266.50 653Q274 703 282 763L282 763L315 786L229 819Q223 765 217 699.50Q211 634 196 555ZM249 528L384 528Q359 270 315 175L315 175Q292 187 258 200Q224 213 179 231L179 231Q197 303 215.50 376.50Q234 450 249 528L249 528ZM841 561L652 535Q646 580 645.50 635.50Q645 691 645 757L645 757L685 783L586 826Q586 781 591.50 709Q597 637 602 528L602 528L444 509L484 469Q488 474 506 479Q524 484 546 492L546 492L606 499Q613 266 665 155L665 155Q565 35 394-62L394-62L398-75Q571-9 692 112L692 112Q784-22 950-102L950-102Q937-64 933.50-31Q930 2 930 29L930 29Q930 56 932.50 88Q935 120 943 155L943 155L926 162L883 3Q784 66 728 155L728 155Q755 192 790 253Q825 314 870 396L870 396L903 416L831 469Q772 320 705 208L705 208Q686 253 674.50 328Q663 403 659 509L659 509L950 548L877 605L841 561ZM725 757L725 757L718 743Q752 708 773.50 678Q795 648 808 624L808 624Q826 583 844 601L844 601Q848 613 852.50 625.50Q857 638 857 651L857 651Q857 671 834 697L834 697Q819 709 793 721.50Q767 734 725 757Z"/></svg>