<svg id="U21813" viewBox="0 0 1024 1024"><path transform="translate(0, 921.6) scale(1,-1)" d="M329 503L316 516Q371 576 412 648Q453 720 491 809L491 809L559 768L533 748Q518 725 506.50 710.50Q495 696 491 686L491 686L652 686Q644 715 630 741.50Q616 768 587 800L587 800L594 813Q634 794 660 779Q686 764 698 751L698 751Q723 720 682 686L682 686L810 686L859 728L921 658L687 658L687 574L778 574L826 612L882 547L687 547L687 470L775 470L826 509L882 442L687 442L687 357L810 357L856 396L926 331L491 331L491 312L433 293Q435 314 435.50 341Q436 368 436 403L436 403L436 612Q410 580 385.50 553Q361 526 329 503L329 503ZM633 658L491 658L491 574L633 574L633 658ZM491 547L491 470L633 470L633 547L491 547ZM633 357L633 442L491 442L491 357L633 357ZM236 428L236 623Q171 553 90 500L90 500L80 516Q164 594 219 677L219 677Q245 715 263 747.50Q281 780 294 809L294 809L371 758L332 739Q309 714 293.50 692.50Q278 671 267 654L267 654L310 628L290 612L290 354Q290 337 290.50 321.50Q291 306 294 289L294 289L232 263Q235 305 235.50 346Q236 387 236 428L236 428ZM642 196L400 196Q377 170 353 145.50Q329 121 303 92L303 92Q378 82 436 75.50Q494 69 539 59L539 59Q562 82 589 114.50Q616 147 642 196L642 196ZM403 309L471 270Q457 259 447.50 253.50Q438 248 436 240L436 240L417 221L652 221Q657 233 660 248Q663 263 671 280L671 280L745 254L726 235L717 221L826 221L878 263L946 196L707 196Q682 153 656 119.50Q630 86 601 54L601 54Q701 31 758.50 14Q816-3 836-11L836-11Q872-35 872-65L872-65Q872-92 807-63L807-63Q770-46 712-25.50Q654-5 568 15L568 15Q539-5 495.50-25Q452-45 397-59L397-59Q346-71 267-80Q188-89 80-94L80-94L80-78Q123-75 178.50-66.50Q234-58 297-45L297-45Q366-31 415-14Q464 3 507 31L507 31Q441 45 372.50 55.50Q304 66 232 76L232 76Q261 105 285.50 134.50Q310 164 336 196L336 196L174 196Q137 196 99 189L99 189L64 221L352 221Q384 253 403 309L403 309Z"/></svg>