<svg id="U21500" viewBox="0 0 1024 1024"><path transform="translate(0, 921.6) scale(1,-1)" d="M252 666L272 734L191 734Q169 734 151.50 730Q134 726 117 724L117 724L82 759L455 759L494 795L548 734L326 734L275 666L397 666L420 701L471 663L449 631L449 460L497 460L526 496L577 428Q547 432 490 377L490 377L477 383L500 432L137 432Q131 389 117 361L117 361Q103 338 69 348L69 348Q44 360 76 386L76 386Q108 419 127 486L127 486L137 486L137 460L172 460Q172 548 171.50 604.50Q171 661 169 695L169 695L217 666L252 666ZM217 640L217 595L400 595L400 640L217 640ZM108 293L108 293Q146 322 159 367L159 367L172 367Q176 329 156 287L156 287Q139 243 101 258L101 258Q84 262 85 272.50Q86 283 108 293ZM349 258L246 258Q209 258 201 293L201 293Q201 329 200.50 358.50Q200 388 198 412L198 412L272 386L246 364L246 325Q246 302 268 293L268 293L359 293Q398 306 394 370L394 370L407 370Q411 297 436 284L436 284Q410 258 349 258L349 258ZM320 342L320 342Q318 359 311 379Q304 399 291 422L291 422L297 428Q374 371 352 338L352 338Q328 294 320 342ZM89 36L76 46Q164 140 201 258L201 258L272 226Q243 213 230 200L230 200L391 200L413 229L465 174L436 155Q414 123 393.50 100.50Q373 78 359 62L359 62Q385 42 404.50 29Q424 16 436 7L436 7Q456-10 452-50L452-50Q441-82 410-47L410-47Q393-25 372-6.50Q351 12 330 30L330 30Q258-36 92-91L92-91L82-75Q239-9 297 55L297 55Q266 70 236.50 85Q207 100 178 120L178 120Q159 96 136 75.50Q113 55 89 36L89 36ZM474 290L474 290Q469 334 439 370L439 370L449 386Q508 351 513 322L513 322Q521 289 500 268L500 268Q492 255 484 261.50Q476 268 474 290ZM217 528L400 528L400 566L217 566L217 528ZM217 460L400 460L400 502L217 502L217 460ZM388 171L388 171L217 171L188 139Q221 124 254.50 109.50Q288 95 320 81L320 81Q343 104 360 126.50Q377 149 388 171ZM805 656L648 656Q662 558 731 477L731 477Q758 515 775.50 560Q793 605 805 656L805 656ZM632 647L632 647Q613 616 593 589.50Q573 563 551 541L551 541L538 547Q551 571 565 602.50Q579 634 596 676L596 676Q611 714 622 749.50Q633 785 638 817L638 817L706 779Q694 774 648 682L648 682L808 682L831 718L889 676L863 650Q841 587 818 534Q795 481 767 438L767 438Q834 364 953 345L953 345L953 329Q906 319 892 287L892 287Q809 322 735 403L735 403Q683 354 631.50 318.50Q580 283 526 261L526 261L519 274Q570 307 616 348Q662 389 706 438L706 438Q676 483 656 536Q636 589 632 647ZM696-6L696 149L638 149Q618 149 601 146.50Q584 144 567 142L567 142L532 174L696 174Q696 213 694.50 253Q693 293 693 332L693 332L770 300L747 271L747 174L821 174L863 213L924 149L747 149L747-6L857-6L905 36L966-30L593-30Q573-30 555.50-32Q538-34 519-37L519-37L487-6L696-6Z"/></svg>