<svg id="U21ED6" viewBox="0 0 1024 1024"><path transform="translate(0, 921.6) scale(1,-1)" d="M315 56L315 134Q107 74 83 40L83 40L44 98Q63 117 63 150L63 150Q63 343 62.50 458Q62 573 60 615L60 615L144 573L115 547L115 118L186 134Q186 434 185.50 601.50Q185 769 183 805L183 805L264 767L238 738L238 140L315 153Q315 346 314 458Q313 570 309 612L309 612L386 570L364 544L364 289L364 191Q364 140 367 89L367 89L315 56ZM503 560L448 547Q452 571 453 599.50Q454 628 454 660L454 660Q454 689 453 722Q452 755 448 789L448 789L503 757L812 757L838 789L896 747L867 725Q867 671 867.50 634Q868 597 874 573L874 573L819 550L819 579L503 579L503 560ZM819 731L503 731L503 608L819 608L819 731ZM838 250L467 250L467 153L838 153L838 250ZM893 470L893 221L893 170Q893 141 896 108L896 108L838 82L838 128L467 128L467 98L415 79Q418 124 418.50 181.50Q419 239 419 308L419 308Q419 374 418.50 431Q418 488 415 534L415 534L467 505L832 505L861 537L919 492L893 470ZM838 476L467 476L467 395L838 395L838 476ZM838 370L467 370L467 276L838 276L838 370ZM544 108L612 47Q574 34 503-10L503-10Q438-54 335-85L335-85L328-68Q474-9 544 108L544 108ZM703 89L712 98Q894 32 913-8L913-8Q918-56 906-78L906-78Q896-109 861-52L861-52Q831-12 703 89L703 89Z"/></svg>