<svg id="U21FC6" viewBox="0 0 1024 1024"><path transform="translate(0, 921.6) scale(1,-1)" d="M168 608L198 628Q198 679 197.50 712Q197 745 194 765L194 765L276 729L249 710L249 618L491 618L491 735Q491 755 489 772.50Q487 790 487 810L487 810L575 778L543 756L543 618L783 618Q783 669 781.50 705.50Q780 742 780 765L780 765L872 729L839 710L839 657Q839 633 839.50 613Q840 593 843 576L843 576L783 557L783 589L249 589L217 567L168 608ZM409 221L360 221L360 12Q355-24 416-29L416-29L892-29Q921-24 921 81L921 81L940 81Q940-22 979-26L979-26Q950-79 894-75L894-75L393-75Q317-64 317-8L317-8L317 221L279 221Q263-6 70-104L70-104L67-94Q224 28 234 221L234 221L191 221L191 201L139 179Q141 202 141.50 242.50Q142 283 142 348L142 348Q142 413 141.50 450Q141 487 139 504L139 504L194 468L237 468Q273 535 279 576L279 576L348 543Q325 543 259 468L259 468L402 468L435 498L481 455L455 436L455 293Q455 237 458 221L458 221L409 198L409 221ZM409 443L321 443L321 364L409 364L409 443ZM273 338L191 338L191 247L273 247L273 338ZM409 338L321 338L321 247L409 247L409 338ZM191 364L273 364L273 443L191 443L191 364ZM448 195L448 195L491 162Q473 162 452 126L452 126Q437 109 422 92.50Q407 76 393 65L393 65L497 77L474 123L477 133Q497 117 513 103.50Q529 90 540 77L540 77Q558 52 540 31L540 31Q523 10 516 22L516 22Q511 31 507.50 40Q504 49 504 62L504 62Q402 35 390 19L390 19L360 65Q377 65 409 116L409 116Q418 138 429 158Q440 178 448 195ZM689 276L709 257L693 247Q682 237 677 226.50Q672 216 669 211L669 211L783 211L790 254L843 234L836 211L865 211L901 240L953 182L822 182Q808 153 791 129Q774 105 754 84L754 84Q775 76 796.50 69.50Q818 63 833 58L833 58Q851 50 865 26L865 26Q877 10 872-13L872-13Q858-27 833-4L833-4Q816 11 789 25.50Q762 40 729 58L729 58Q678 25 615 3.50Q552-18 477-29L477-29L477-17Q548 4 599.50 26Q651 48 683 77L683 77Q629 89 569 107L569 107Q583 133 593.50 151Q604 169 611 182L611 182L559 182L516 176L481 211L625 211Q631 228 639 248.50Q647 269 657 293L657 293L683 273L683 380Q649 342 605 311Q561 280 504 257L504 257L501 273Q600 329 640 400L640 400L598 400L552 387L513 426L683 426L683 488Q648 482 543 482L543 482L543 498Q763 525 817 557L817 557L858 498L822 504Q779 494 732 494L732 494L732 426L836 426L872 458L917 400L722 400Q778 376 812.50 360Q847 344 858 335L858 335Q881 311 865 280L865 280Q855 251 836 280L836 280Q815 308 732 377L732 377L732 344Q732 305 735 296L735 296L689 276ZM654 182L615 123L715 101Q745 126 774 182L774 182L654 182Z"/></svg>