<svg id="U21F47" viewBox="0 0 1024 1024"><path transform="translate(0, 921.6) scale(1,-1)" d="M488 316L434 297Q434 333 435.50 372Q437 411 437 453L437 453Q437 491 435.50 528Q434 565 434 596L434 596L492 568L797 568L820 600L871 555L845 533L845 394Q845 344 848 326L848 326L797 306L797 338L667 338L667 246L845 246L871 284L925 240L903 214L903 10Q903-68 823-88L823-88Q814-36 711-14L711-14L711 4Q813-13 836-8L836-8Q855 4 855 26L855 26L855 220L667 220L667 106L743 122Q738 128 729 138.50Q720 149 708 166L708 166L718 179Q744 162 766.50 144.50Q789 127 804 115L804 115Q827 77 807 48L807 48Q786 22 778 42L778 42Q773 54 766 68.50Q759 83 750 102L750 102Q690 83 650.50 68.50Q611 54 587 45L587 45Q568 35 547.50 27Q527 19 511 7L511 7L472 71Q496 75 532 81Q568 87 619 99L619 99L619 220L447 220L447-65L393-88Q395-56 395.50 20Q396 96 396 220L396 220L371 214L348 246L396 246L396 284L447 246L619 246L619 338L488 338L488 316ZM667 364L797 364L797 437L667 437L667 364ZM488 364L619 364L619 437L488 437L488 364ZM667 463L797 463L797 539L667 539L667 463ZM488 463L619 463L619 539L488 539L488 463ZM549 692L581 721L632 666L530 666Q530 603 533 596L533 596L482 580Q482 604 483.50 624.50Q485 645 485 666L485 666L450 666Q423 666 404 662.50Q385 659 371 657L371 657L335 692L485 692Q485 722 483.50 748Q482 774 482 794L482 794L555 765L530 740L530 692L549 692ZM731 673L731 673Q693 673 664 666L664 666L629 698L731 698Q731 722 729 744.50Q727 767 727 791L727 791L807 759L782 737L782 698L839 698L877 733L935 673L782 673L782 632Q782 612 785 593L785 593L727 580Q727 616 729 638.50Q731 661 731 673ZM291 42L291 96L96 96L71 64L29 106L55 128L55 615L131 587L103 549L103 122L173 122Q173 430 172.50 598.50Q172 767 170 803L170 803L246 765L221 737L221 122L291 122Q291 328 290.50 449Q290 570 288 612L288 612L355 571L339 542L339 294Q339 236 339.50 179.50Q340 123 345 71L345 71L291 42Z"/></svg>