<svg id="U2180" viewBox="0 0 1161 1000"><path transform="translate(0, 900) scale(1,-1)" d="M738 0L423 0Q246 0 147 92.50Q48 185 48 367L48 367Q48 482 91.50 560.50Q135 639 214.50 679Q294 719 402 719L402 719L759 719Q867 719 946.50 679Q1026 639 1069.50 560.50Q1113 482 1113 367L1113 367Q1113 185 1014 92.50Q915 0 738 0L738 0ZM431 87L431 87L532 87L532 632L412 632Q287 632 218 567Q149 502 149 364L149 364Q149 87 431 87ZM629 632L629 87L730 87Q1012 87 1012 364L1012 364Q1012 502 943.50 567Q875 632 749 632L749 632L629 632Z"/></svg>