<svg id="U219DE" viewBox="0 0 1024 1024"><path transform="translate(0, 921.6) scale(1,-1)" d="M776 558L767 564L826 663L153 663Q158 625 154 602.50Q150 580 144 568L144 568Q123 538 78 545L78 545Q29 545 52 577L52 577Q82 600 101 633L101 633Q120 657 137 732L137 732L150 732L153 689L494 689Q494 749 426 823L426 823L432 830Q548 791 563 755L563 755Q567 727 531 689L531 689L819 689L855 735L940 666Q860 655 776 558L776 558ZM88 417L245 417L245 505Q245 529 244.50 557.50Q244 586 242 613L242 613L344 571L304 545L304 417L462 417L504 463L563 387L413 387L413 36Q413-20 475-15L475-15L816-15Q854-1 858 56L858 56Q858 85 861.50 110.50Q865 136 868 161L868 161L881 161Q881 134 885 108Q889 82 894 53L894 53Q904-2 934-6L934-6Q909-66 813-61L813-61L445-61Q360-61 360 23L360 23L360 387L304 387Q302 312 290 247.50Q278 183 258 128L258 128Q212 14 71-94L71-94L61-81Q155 12 193 105L193 105Q214 156 228 226Q242 296 245 387L245 387L203 387Q180 387 162 385Q144 383 127 381L127 381L88 417ZM806 571L806 571L865 502L819 486Q738 414 664 370Q590 326 527 302L527 302L517 315Q608 372 680 435Q752 498 806 571ZM829 348L829 348L881 266L849 266Q655 107 491 59L491 59L485 72Q514 87 552 109.50Q590 132 635 164L635 164Q683 196 730 242Q777 288 829 348Z"/></svg>