<svg id="U217A0" viewBox="0 0 1024 1024"><path transform="translate(0, 921.6) scale(1,-1)" d="M260 345L260 345Q264 279 229 292L229 292Q189 306 200 336L200 336Q202 350 204.50 360.50Q207 371 210 383L210 383Q213 402 203 418L203 418Q198 427 109 453L109 453L109 472Q205 452 222 462L222 462Q241 465 367 708L367 708L383 699Q298 496 273 456L273 456Q265 432 261 405Q257 378 260 345ZM115 658L115 658L124 670Q263 624 238 576L238 576Q215 519 191 569L191 569Q176 612 115 658ZM191 784L191 784L200 790Q325 743 304 692L304 692Q286 636 263 686L263 686Q244 728 191 784ZM812 330L755 311L755 348L497 348L497 326L440 311Q440 334 441.50 362.50Q443 391 443 427L443 427Q443 463 441.50 491.50Q440 520 440 541L440 541L497 519L601 519L601 610L490 610Q466 610 448.50 606.50Q431 603 415 601L415 601L377 635L601 635L601 717Q506 708 437 708L437 708L434 727Q488 731 540.50 739.50Q593 748 636 755L636 755Q733 781 787 806L787 806L831 752Q810 749 764 741.50Q718 734 654 727L654 727L654 635L812 635L856 673L913 610L654 610L654 519L752 519L777 557L834 513L809 484L809 386Q809 342 812 330L812 330ZM755 494L497 494L497 377L755 377L755 494ZM667 213L408 213Q389 189 363.50 160.50Q338 132 311 102L311 102Q392 93 453 83.50Q514 74 557 68L557 68Q605 107 667 213L667 213ZM415 330L481 289Q447 273 443 263L443 263Q439 256 434.50 250.50Q430 245 424 241L424 241L676 241Q683 257 688 272Q693 287 699 304L699 304L771 273L749 257L740 241L831 241L882 285L945 213L730 213Q706 174 678 136Q650 98 620 65L620 65Q789 21 831-1L831-1Q872-25 872-61L872-61Q872-95 806-51L806-51Q741-17 588 27L588 27Q516-20 405-48L405-48Q348-62 267-73Q186-84 77-89L77-89L77-70Q125-67 180-60Q235-53 301-39L301-39Q367-24 420.50-4Q474 16 516 39L516 39Q449 51 382.50 64Q316 77 244 87L244 87Q273 116 298 147.50Q323 179 345 213L345 213L172 213Q153 213 135 211Q117 209 96 206L96 206L58 241L364 241Q374 255 386.50 277Q399 299 415 330L415 330Z"/></svg>