<svg id="U215BA" viewBox="0 0 1024 1024"><path transform="translate(0, 921.6) scale(1,-1)" d="M183-2L183 212L349 212L349-2L183-2ZM132 186L132 186L132 27Q132 10 131.50-20Q131-50 129-93L129-93L183-67L183-26L349-26L349-83L403-55Q400-31 400-11L400-11Q400 9 400 24L400 24L400 205L419 228L374 279L342 241L199 241Q259 298 317 385.50Q375 473 435 594L435 594L460 613L416 670L377 632L209 632Q218 648 230 671.50Q242 695 260 731L260 731L285 744L212 782Q204 741 188.50 699.50Q173 658 151 613L151 613Q132 559 104.50 513.50Q77 468 46 425L46 425L56 416Q84 444 107.50 469.50Q131 495 148 524L148 524Q198 458 212 419L212 419Q223 381 237 390L237 390Q249 402 253 425L253 425Q264 451 237 479L237 479Q226 490 205 504.50Q184 519 154 537L154 537Q178 568 202 603L202 603L384 603Q336 492 280.50 404.50Q225 317 161 250L161 250L132 272L132 228Q100 186 33 142L33 142L43 126Q61 138 84.50 152.50Q108 167 132 186ZM677 642L457 642L489 607Q526 616 562 616L562 616L944 616L890 689L839 642L702 642Q734 674 721 705L721 705Q714 724 691 742Q668 760 632 782L632 782L622 775Q677 698 677 642L677 642ZM514 349L514 349Q514 161 511 48.50Q508-64 508-106L508-106L559-80L559 377L581 400L552 425Q593 553 622 575L622 575L556 616Q544 562 531.50 517.50Q519 473 505 435L505 435Q491 393 471 347Q451 301 425 247L425 247L438 241Q455 261 474.50 287.50Q494 314 514 349ZM702 616L702 616L775 581L750 565L721 483L842 483L861 521L916 479L893 454Q869 339 843.50 251Q818 163 782 100L782 100Q860 1 951-29L951-29L951-45Q896-49 887-80L887-80Q859-55 839.50-35.50Q820-16 807-2L807-2Q792 17 780 33.50Q768 50 756 65L756 65Q668-46 572-102L572-102L562-87Q607-45 649 1Q691 47 724 104L724 104Q697 161 679.50 215.50Q662 270 658 327L658 327Q643 300 625.50 272Q608 244 584 218L584 218L575 225Q596 273 618 323.50Q640 374 658 425L658 425Q674 477 685.50 524Q697 571 702 616ZM715 457L670 349Q675 315 683.50 286Q692 257 702 231L702 231Q711 207 723.50 183.50Q736 160 753 142L753 142Q787 232 810 307L810 307Q817 349 825.50 385Q834 421 839 457L839 457L715 457ZM699 381L708 387Q728 370 742 355.50Q756 341 763 330L763 330Q781 313 775 288L775 288Q772 276 766.50 267.50Q761 259 756 250L756 250Q737 240 734 282L734 282Q730 317 699 381L699 381Z"/></svg>