<svg id="U21ECB" viewBox="0 0 1024 1024"><path transform="translate(0, 921.6) scale(1,-1)" d="M320 50L320 94L127 94L93 59L49 103L74 132L74 144Q74 338 73.50 453Q73 568 71 611L71 611L153 567L124 539L124 122L194 122Q194 427 193.50 596Q193 765 190 801L190 801L269 763L244 731L244 122L320 122Q320 327 319 446.50Q318 566 313 608L313 608L389 561L367 536L367 283L367 184Q367 133 370 81L370 81L320 50ZM761 608L660 608L660 507L761 507L761 608ZM761 728L528 728L528 507L616 507L616 658L660 633L761 633L761 728ZM853 384L837 391L865 479L440 479Q442 462 443.50 445.50Q445 429 443 413L443 413Q443 379 424 372L424 372Q404 358 383 362L383 362Q354 362 386 413L386 413Q400 434 406 465Q412 496 418 539L418 539L437 539L440 507L481 507Q481 607 479 676.50Q477 746 477 788L477 788L537 753L755 753L787 788L843 734L812 712L812 507L865 507L887 532L935 476Q900 466 853 384L853 384ZM465 422L465 422L518 391L768 391L793 422L850 372L824 356L824 15Q814-56 752-88L752-88Q747-38 657-16L657-16L657 3Q718-6 749-6L749-6Q774-6 774 28L774 28L774 362L518 362L518 122Q498-18 395-88L395-88L386-69Q468 16 468 176L468 176Q468 257 466.50 318Q465 379 465 422ZM556 315L563 327Q669 308 698 283L698 283Q724 260 714 223L714 223Q697 190 670 226L670 226Q635 269 556 315L556 315ZM575 59L525 119Q580 133 638 154Q696 175 758 204L758 204L771 189Q716 158 668 125Q620 92 575 59L575 59Z"/></svg>