<svg id="U213F8" viewBox="0 0 1024 1024"><path transform="translate(0, 921.6) scale(1,-1)" d="M456 646L335 604L335 620L358 640L332 656Q368 685 393.50 702.50Q419 720 427 728L427 728Q436 733 448.50 738.50Q461 744 476 754L476 754L427 803L394 774L139 774L175 738Q194 740 212.50 740.50Q231 741 254 744L254 744L384 744L316 663L283 679Q285 654 285.50 631Q286 608 286 584L286 584Q233 565 182 550.50Q131 536 80 525L80 525L142 476Q170 500 286 545L286 545L286 457Q286 424 263 424L263 424Q253 424 228.50 425Q204 426 165 434L165 434L165 417Q268 393 273 355L273 355Q335 379 335 444L335 444L335 574L463 633L456 646ZM629 564L417 564L456 525Q483 538 541 538L541 538L603 538Q594 529 585.50 521Q577 513 568 506L568 506Q500 444 476 444L476 444L509 378Q521 383 591 397Q661 411 790 434L790 434Q798 416 807 391L807 391Q819 368 843 391L843 391Q867 411 843 447L843 447Q830 461 808.50 480.50Q787 500 751 522L751 522L744 516Q753 501 764 483.50Q775 466 787 447L787 447L535 440Q562 459 592 483.50Q622 508 655 538L655 538L931 538L869 604L826 564L683 564Q713 593 746.50 626.50Q780 660 816 699L816 699L849 708L780 761Q768 736 751 711Q734 686 715 659L715 659Q663 656 619 656L619 656Q575 656 541 656L541 656Q565 675 596.50 705Q628 735 663 774L663 774L695 780L620 826Q608 799 592.50 773.50Q577 748 558 718L558 718Q505 656 483 656L483 656L509 597Q528 604 574.50 615.50Q621 627 699 640L699 640Q681 621 663.50 601.50Q646 582 629 564L629 564ZM286 224L286 224L296 211Q425 242 522 283L522 283Q609 248 646 218L646 218Q683 193 689 218L689 218Q697 241 676 263L676 263Q652 287 564 306L564 306Q600 325 628.50 333.50Q657 342 682 345L682 345L627 394Q612 382 586.50 364.50Q561 347 519 326L519 326Q471 338 429 348.50Q387 359 345 372L345 372L342 358Q387 340 421.50 327.50Q456 315 483 303L483 303Q445 283 396 263.50Q347 244 286 224ZM191 211L191 211L165 191L221 152L250 172L483 172Q485 148 485.50 124Q486 100 486 77L486 77L172 77L211 41Q247 51 283 51L283 51L486 51L486-40L54-40L90-73Q113-69 131.50-67.50Q150-66 165-66L165-66L970-66L898-1L843-40L541-40L541 51L859 51L787 119L738 77L541 77L541 116L577 139L491 172L777 172L777 149L836 168Q830 188 829.50 219.50Q829 251 829 299L829 299L856 322L771 358Q771 313 774 272.50Q777 232 777 198L777 198L244 198L244 306L273 326L185 362Q189 327 190 288.50Q191 250 191 211Z"/></svg>