<svg id="U21800" viewBox="0 0 1024 1024"><path transform="translate(0, 921.6) scale(1,-1)" d="M400 657L364 693L632 693Q621 749 566 806L566 806L572 820Q659 774 675 750L675 750Q696 730 665 693L665 693L835 693L888 737L951 664L476 664Q454 664 435.50 661.50Q417 659 400 657L400 657ZM483 634L483 634L533 604L761 604L785 637L838 597L815 574L815 489Q815 453 818 432L818 432L768 412L768 438L533 438L533 422L483 408Q483 430 484.50 459Q486 488 486 521L486 521Q486 551 484.50 580Q483 609 483 634ZM768 577L533 577L533 468L768 468L768 577ZM728-22L728-10Q828-16 848-16L848-16Q864-9 864 27L864 27L864 332L460 332L460-78L403-102Q406-47 406.50 15Q407 77 407 150L407 150Q407 222 406.50 281Q406 340 403 388L403 388L463 359L854 359L878 398L937 355L914 325L914 14Q914-74 844-98L844-98Q825-42 728-22L728-22ZM589 50L539 34Q539 63 541 93Q543 123 543 156L543 156Q543 191 541 223.50Q539 256 539 286L539 286L589 256L722 256L748 289L798 246L775 226L775 126Q775 83 778 53L778 53L728 34L728 73L589 73L589 50ZM728 229L589 229L589 103L728 103L728 229ZM211 505L211 505Q203 465 185 399Q167 333 141 239L141 239Q165 229 193 217Q221 205 251 193L251 193Q273 257 288.50 340.50Q304 424 314 521L314 521Q286 515 259.50 512Q233 509 211 505ZM201 806L274 766L251 727Q245 706 237.50 662Q230 618 218 554L218 554Q242 554 265.50 554.50Q289 555 314 561L314 561Q318 604 314 647L314 647L380 617Q375 607 370.50 595.50Q366 584 364 564L364 564L410 564L417 544Q380 534 364 534L364 534Q361 489 355.50 444.50Q350 400 340 355L340 355Q335 307 323 262Q311 217 294 169L294 169Q324 149 343.50 130.50Q363 112 374 100L374 100Q396 65 380 34L380 34Q369-8 344 40L344 40Q333 57 314.50 78.50Q296 100 271 126L271 126Q186-25 35-102L35-102L32-88Q161 20 231 153L231 153Q164 195 88 226L88 226Q128 354 158 501L158 501Q125 496 98.50 489.50Q72 483 55 478L55 478L32 541Q66 541 99 542Q132 543 165 551L165 551Q179 639 188.50 701.50Q198 764 201 806L201 806Z"/></svg>