<svg id="U21A38" viewBox="0 0 1024 1024"><path transform="translate(0, 921.6) scale(1,-1)" d="M196 827L196 827L183 817Q226 747 242 706L242 706Q261 656 278 673L278 673Q297 692 301 716L301 716Q305 739 285 762L285 762Q277 774 253.50 789.50Q230 805 196 827ZM406 617L367 522L380 519Q439 608 488 617L488 617L426 686L403 644L118 644L114 696L98 696Q81 603 55 565L55 565Q24 519 52 519L52 519Q83 514 101 532L101 532Q122 541 118 617L118 617L406 617ZM367 457L42 457L78 421Q95 423 113 427Q131 431 154 431L154 431L236 431L236 70Q239 19 216 11L216 11Q206 11 183 13Q160 15 121 18L121 18L121 5Q209-11 209-73L209-73Q298-35 288 28L288 28L288 431L478 431L416 513L367 457ZM868 660L530 660L527 696L511 696Q496 612 478 581L478 581Q455 558 449 532L449 532Q441 505 481 513L481 513Q518 513 527 542L527 542Q529 557 529.50 580.50Q530 604 530 634L530 634L871 634L825 532L835 522Q922 619 966 624L966 624L901 699L868 660ZM675 283L675 283L429 283L465 250Q503 257 540 257L540 257L675 257L675 54Q668-1 645-1L645-1Q630 3 603.50 5.50Q577 8 543 11L543 11L543-4Q641-18 652-83L652-83Q725-58 730 31L730 31L730 257L966 257L901 336L851 283L730 283L730 349Q776 385 807.50 405.50Q839 426 851 434L851 434Q863 438 878 444.50Q893 451 914 457L914 457L855 526L815 490L508 490L543 454Q560 456 578 458Q596 460 619 460L619 460L815 460L727 362L671 398Q671 368 673 339Q675 310 675 283ZM638 837L638 837L625 824Q669 762 684 702L684 702Q698 651 727 686L727 686Q757 725 733 758L733 758Q723 775 697.50 793.50Q672 812 638 837Z"/></svg>