<svg id="U2106" viewBox="0 0 861 1000"><path transform="translate(0, 900) scale(1,-1)" d="M559 714L634 714L198 0L123 0L559 714ZM199 365L199 365Q130 365 85 406.50Q40 448 40 536L40 536Q40 628 86.50 669Q133 710 203 710L203 710Q229 710 255 704Q281 698 299 689L299 689L279 634Q262 640 240.50 645.50Q219 651 202 651L202 651Q113 651 113 536L113 536Q113 481 134.50 452Q156 423 198 423L198 423Q224 423 247.50 429.50Q271 436 293 446L293 446L293 386Q274 376 251.50 370.50Q229 365 199 365ZM686 333L757 333L757 0L696 0L692 43L688 43Q650-6 590-6L590-6Q526-6 493.50 23Q461 52 461 116L461 116L461 333L533 333L533 121Q533 50 597 50L597 50Q647 50 666.50 78.50Q686 107 686 160L686 160L686 333Z"/></svg>