<svg id="U211C" viewBox="0 0 849 1000"><path transform="translate(0, 900) scale(1,-1)" d="M200-9L200-9Q194-1 180 12.50Q166 26 150 37Q134 48 119 48L119 48Q95 48 79 36Q63 24 40 0L40 0L24 15Q46 43 72 70Q98 97 122 115.50Q146 134 162 134L162 134Q177 134 192.50 122Q208 110 222 95.50Q236 81 244 71L244 71Q267 85 289 104L289 104Q299 113 311 129.50Q323 146 334 177Q345 208 352 259Q359 310 359 388L359 388Q359 463 342.50 514.50Q326 566 300 598Q274 630 245.50 644Q217 658 193 658L193 658Q172 658 149.50 646Q127 634 112 614Q97 594 97 569L97 569Q97 548 112 528Q127 508 146 488Q165 468 180 446.50Q195 425 195 401L195 401Q195 384 181.50 364Q168 344 148.50 324.50Q129 305 110.50 289.50Q92 274 81 266L81 266L65 284Q75 291 88 303Q101 315 110.50 329.50Q120 344 120 357L120 357Q120 382 106 400.50Q92 419 73.50 437Q55 455 41 475.50Q27 496 27 524L27 524Q27 544 40 567.50Q53 591 69.50 611Q86 631 96 641L96 641Q109 654 131 673.50Q153 693 183.50 709Q214 725 252 725L252 725Q293 725 329.50 703.50Q366 682 392 647.50Q418 613 429 572L429 572Q448 601 476 635.50Q504 670 542 695Q580 720 629 720L629 720Q664 720 683 707.50Q702 695 710.50 676.50Q719 658 721 639Q723 620 723 606L723 606L723 576Q723 560 728.50 547.50Q734 535 747 535L747 535Q758 535 775.50 540.50Q793 546 803 550L803 550L812 526Q759 502 714 479.50Q669 457 619 419L619 419Q636 418 658 410Q680 402 696.50 392Q713 382 713 373L713 373Q713 243 725.50 169.50Q738 96 775 96L775 96Q790 96 806 106.50Q822 117 829 124L829 124L843 107L701-9L633 113Q635 121 638.50 149.50Q642 178 642 221L642 221Q642 288 627 318Q612 348 588.50 356Q565 364 539 364L539 364Q502 364 472 357.50Q442 351 436 349L436 349Q433 324 424.50 286Q416 248 402.50 208Q389 168 369 136L369 136Q345 112 314 84.50Q283 57 253 32.50Q223 8 200-9ZM441 380L441 380Q460 390 493.50 403Q527 416 558 423L558 423L695 492Q668 492 654 504Q640 516 635 533.50Q630 551 630 565L630 565L630 588Q630 617 619.50 638Q609 659 580 659L580 659Q560 659 537 645.50Q514 632 493 610Q472 588 459 562.50Q446 537 447 514L447 514Q449 469 446 429Q443 389 441 380Z"/></svg>