<svg id="U215FF" viewBox="0 0 1024 1024"><path transform="translate(0, 921.6) scale(1,-1)" d="M326 751L240 776Q242 755 242.50 738Q243 721 243 707L243 707L243 590L63 590L101 552Q134 561 221 561L221 561L243 561L243 394L161 394L199 356Q230 366 278 366L278 366L474 366Q474 337 470 305.50Q466 274 461 236L461 236L79 236L114 198Q130 200 149 202.50Q168 205 190 208L190 208L452 208Q409 96 313 28L313 28Q265-5 203.50-33Q142-61 73-82L73-82L76-94Q196-80 326-16L326-16Q455 50 512 208L512 208Q555 98 641 28L641 28Q686-10 745.50-35.50Q805-61 881-82L881-82Q894-33 960-28L960-28L960-12Q897-10 837.50 5Q778 20 717 47L717 47Q591 101 534 208L534 208L951 208L878 284L818 236L521 236Q526 254 528.50 273Q531 292 534 309L534 309L569 328L477 366L875 366L809 435L764 394L746 394L746 561L941 561L872 647L815 590L746 590L746 729L777 748L689 776Q689 745 690.50 719.50Q692 694 692 666L692 666L692 590L521 590L521 751L546 776L465 808Q465 777 466.50 745Q468 713 468 675L468 675L468 590L297 590L297 729L326 751ZM297 394L297 561L468 561L468 394L297 394ZM521 464L521 561L692 561L692 394L521 394L521 464Z"/></svg>