<svg id="U21025" viewBox="0 0 1024 1024"><path transform="translate(0, 921.6) scale(1,-1)" d="M193 188L193 679L101 679L101 188L193 188ZM101 46L45 20Q49 65 50 103Q51 141 51 178L51 178L51 557Q51 606 50 653Q49 700 45 745L45 745L104 709L193 709L219 748L269 699L243 669L243 228L243 157Q243 122 246 83L246 83L193 60L193 162L101 162L101 46ZM519 603L463 583Q463 618 465 640Q467 662 467 672L467 672L397 672Q379 672 359 670Q339 668 322 666L322 666L285 699L467 699Q467 738 465 767.50Q463 797 463 817L463 817L549 781L519 755L519 699L691 699Q691 750 689 779.50Q687 809 687 817L687 817L773 778L743 755L743 699L836 699L878 738L938 672L743 672Q743 667 743.50 649Q744 631 747 607L747 607L691 583L691 672L519 672L519 603ZM417 607L483 567Q471 555 462 544.50Q453 534 444 528L444 528Q438 515 426.50 499.50Q415 484 401 465L401 465L496 465L523 501L569 448L542 429L542 102Q542 72 542.50 44Q543 16 546-5L546-5L490-32L490 17L355 17L355-45L299-65Q301-35 301.50-9Q302 17 302 46L302 46L302 366Q302 398 301.50 428Q301 458 299 488L299 488L355 465L381 465Q406 517 417 607L417 607ZM490 435L355 435L355 261L490 261L490 435ZM490 231L355 231L355 43L490 43L490 231ZM723 485L661 485L661 241L723 241L723 485ZM829 485L773 485L773 241L829 241L829 485ZM608-22L608 402Q608 422 606.50 457Q605 492 605 544L605 544L661 511L829 511L862 544L911 491L878 472L878 304Q878 293 878.50 270Q879 247 885 205L885 205L829 185L829 211L661 211L661 14Q650-39 707-35L707-35L822-35Q864-40 868-15L868-15Q871 0 873 21Q875 42 875 79L875 79L895 79Q895 57 896 39.50Q897 22 905 8L905 8Q910-19 938-38L938-38Q910-76 855-81L855-81L671-81Q612-76 608-22L608-22Z"/></svg>