<svg id="U21977" viewBox="0 0 1024 1024"><path transform="translate(0, 921.6) scale(1,-1)" d="M114 789L114 789L177 743L436 743L465 789L525 739L492 706L492 607L492 562Q492 543 495 534L495 534L439 508L439 547L174 547L174 362Q174 281 165.50 215.50Q157 150 137 93L137 93Q105-12 44-88L44-88L31-78Q124 115 124 348L124 348L124 613Q124 646 120 690Q116 734 114 789ZM439 716L174 716L174 577L439 577L439 716ZM217 425L184 461L429 461L459 498L515 441Q487 441 449 415L449 415Q427 400 407 383.50Q387 367 369 348L369 348L396 328L369 312L369 249L485 292L492 279L369 212L369-12Q373-68 293-91L293-91Q288-40 210-25L210-25L210-10Q247-13 269.50-16Q292-19 300-19L300-19Q320-19 320 4L320 4L320 193Q207 131 204 116L204 116L164 173Q196 183 235 197.50Q274 212 320 232L320 232Q320 280 319.50 313Q319 346 316 372L316 372L349 355L429 435L293 435Q251 435 217 425L217 425ZM538 789L538 789L598 743L853 743L886 792L946 739L909 706L909 607Q909 582 909.50 562.50Q910 543 913 534L913 534L860 508L860 547L595 547L595 362Q595 199 541 90L541 90Q519 30 490.50-12.50Q462-55 432-88L432-88L416-78Q545 109 545 348L545 348L545 613Q545 646 542.50 690Q540 734 538 789ZM860 716L595 716L595 577L860 577L860 716ZM747 355L784 338L866 438L731 438Q714 438 695.50 436.50Q677 435 658 431L658 431L621 464L866 464L903 498L956 438Q925 438 883 405L883 405Q860 387 840.50 369.50Q821 352 803 335L803 335L833 319L803 299L803 229L880 229L923 265L972 199L803 199L803-12Q803-83 731-98L731-98Q725-70 701-58L701-58Q664-38 641-35L641-35L641-19Q675-26 699-29Q723-32 731-32L731-32Q750-32 750 4L750 4L750 199L697 199Q675 199 656.50 197Q638 195 621 193L621 193L585 229L750 229Q750 268 748.50 301Q747 334 747 355L747 355Z"/></svg>