<svg id="U21316" viewBox="0 0 1024 1024"><path transform="translate(0, 921.6) scale(1,-1)" d="M172 649L172 649L172 514L34 514L70 478Q87 480 105 482.50Q123 485 146 485L146 485L172 485L172 176Q135 158 99 145Q63 132 31 120L31 120L77 58Q93 90 345 220L345 220L359 202Q372 212 429 212L429 212Q410 38 287-79L287-79L293-89Q463 4 479 212L479 212L579 212L579 107Q579 70 577.50 32Q576-6 576-49L576-49L635-13Q632 32 632 73L632 73Q632 114 632 153L632 153L632 212L733 212L733 32Q733-42 792-53L792-53L868-53Q928-53 953-4L953-4Q914 0 914 127L914 127L894 127Q894 97 891 73Q888 49 888 32L888 32Q888 1 865-4L865-4L835-4Q783-10 783 48L783 48L783 212L927 212L868 278L832 239L783 239L783 363L894 363L838 432L799 393L783 393L783 501L812 527L753 576L730 540L487 540L428 567Q428 537 429.50 498.50Q431 460 431 406L431 406L431 393L359 393L382 353Q401 360 431 362L431 362L431 239L346 239L330 239L334 234L225 193L225 485L349 485L293 557L254 514L225 514L225 721L254 747L169 783Q171 748 171.50 715.50Q172 683 172 649ZM838 724L783 678L490 678Q497 693 512.50 719Q528 745 553 780L553 780L582 800L504 842Q451 648 330 518L330 518L339 504Q381 540 415.50 575.50Q450 611 477 649L477 649L904 649L838 724ZM733 363L733 239L632 239L632 363L733 363ZM733 514L733 393L632 393L632 514L733 514ZM481 514L579 514L579 393L481 393L481 514ZM481 239L481 363L579 363L579 239L481 239Z"/></svg>