<svg id="U2161B" viewBox="0 0 1024 1024"><path transform="translate(0, 921.6) scale(1,-1)" d="M543 790L458 823Q440 737 419 679L419 679L116 679L148 646Q180 653 223 653L223 653L406 653Q319 474 57 392L57 392L60 376Q126 387 185.50 411Q245 435 302 470L302 470Q404 535 468 653L468 653L553 653Q668 455 885 389L885 389Q896 428 967 438L967 438L967 454Q854 459 758 509L758 509Q662 552 572 653L572 653L905 653L833 728L781 679L481 679L510 770L543 790ZM158 150L158 150Q194 133 235 115Q276 97 318 75L318 75Q237-18 63-74L63-74L67-90Q247-55 360 49L360 49Q386 26 407.50 4Q429-18 448-38L448-38Q480-79 491-38L491-38Q500 1 471 30L471 30Q447 58 383 88L383 88Q397 117 418 166Q439 215 465 284L465 284L491 307L442 356L412 323L288 323Q305 357 319.50 380Q334 403 344 415L344 415L279 454Q271 424 261 390.50Q251 357 236 323L236 323L80 323L119 284Q146 294 191 294L191 294L226 294Q207 244 190.50 208.50Q174 173 158 150ZM282 294L282 294L409 294Q390 231 373.50 185.50Q357 140 341 111L341 111Q310 124 279.50 135.50Q249 147 217 157L217 157Q241 208 256.50 242Q272 276 282 294ZM530 157L530 157Q573 139 614.50 120.50Q656 102 693 85L693 85Q656 31 597.50-6.50Q539-44 461-74L461-74L465-90Q656-38 742 62L742 62Q781 35 813.50 10Q846-15 866-35L866-35Q901-83 912-51L912-51Q922-31 905 10L905 10Q883 47 765 105L765 105Q800 172 843 307L843 307L941 307L879 372L833 333L660 333Q679 390 709 415L709 415L638 460Q632 438 624.50 406.50Q617 375 605 333L605 333L488 333L523 297Q550 307 598 307L598 307Q578 262 561 224Q544 186 530 157ZM585 167L585 167Q596 192 612 226.50Q628 261 651 307L651 307L784 307Q772 261 754 215.50Q736 170 713 124L713 124Q683 131 651 141.50Q619 152 585 167Z"/></svg>