<svg id="U219CE" viewBox="0 0 1024 1024"><path transform="translate(0, 921.6) scale(1,-1)" d="M788 548L775 557L825 649L171 649Q175 613 170.50 591Q166 569 162 557L162 557Q142 534 95 539L95 539Q43 544 80 567L80 567Q89 579 100 592.50Q111 606 121 621L121 621Q143 655 152 715L152 715L168 715L171 674L492 674Q492 734 426 800L426 800L435 809Q537 768 552 737L552 737Q556 704 526 674L526 674L819 674L857 718L939 652Q850 636 788 548L788 548ZM250 227L470 227L470 495L206 495Q186 495 165.50 491Q145 487 127 485L127 485L92 520L769 520L832 564L904 495L526 495L526 381L734 381L800 438L885 353L526 353L526 227L788 227L819 268L891 215L851 193Q831 38 794-17L794-17Q755-73 665-77L665-77Q665-14 517 13L517 13L517 32Q562 23 601 16.50Q640 10 671 2L671 2Q737-9 759 48L759 48Q768 78 776.50 114.50Q785 151 791 199L791 199L256 199L224 171L162 215L193 243L193 344Q193 365 192.50 388.50Q192 412 190 441L190 441L281 403L250 378L250 227Z"/></svg>