<svg id="U21BA4" viewBox="0 0 1024 1024"><path transform="translate(0, 921.6) scale(1,-1)" d="M142 499L142 596L226 596L226 499L142 499ZM92 646L92 646L92 108Q92 57 91.50 7Q91-43 89-98L89-98L142-58L142 472L226 472L226 432L276 459Q273 474 272.50 539.50Q272 605 272 723L272 723L296 743L249 790L222 757L142 757L89 787Q91 751 91.50 717Q92 683 92 646ZM142 623L142 727L226 727L226 623L142 623ZM400 503L400 596L483 596L483 503L400 503ZM369 4L369 4L369-11Q453-30 460-88L460-88Q537-73 537 21L537 21L537 720L563 747L503 797L480 757L400 757L349 787Q352 751 352.50 705.50Q353 660 353 603L353 603Q353 546 352.50 504Q352 462 349 432L349 432L400 452L400 476L483 476L483 28Q483-5 470-11L470-11Q460-11 369 4ZM400 623L400 727L483 727L483 623L400 623ZM834 770L744 813Q744 780 745.50 757.50Q747 735 747 720L747 720L747 58Q747 1 727 1L727 1Q719 3 687 4.50Q655 6 607 14L607 14L607-2Q718-31 724-85L724-85Q804-61 804 54L804 54L804 743L834 770ZM724 509L640 549Q627 431 605.50 333.50Q584 236 547 158L547 158L560 145Q644 248 690 483L690 483L724 509ZM841 536L841 536L824 533Q888 390 914 305L914 305Q926 262 933 228.50Q940 195 948 168L948 168Q953 121 975 148L975 148Q995 174 995 222L995 222Q995 239 986.50 267.50Q978 296 958 332L958 332Q940 367 910 418.50Q880 470 841 536ZM376 359L400 389L326 416Q328 398 328.50 371Q329 344 329 312L329 312L155 312L192 275Q225 285 269 285L269 285L286 285Q241 151 145 61L145 61L149 48Q249 93 329 269L329 269L329 98Q329 68 319 68L319 68Q316 68 301 69Q286 70 256 78L256 78L256 61Q308 50 319-11L319-11Q371 14 376 81L376 81L376 285L483 285L436 339L400 312L376 312L376 359Z"/></svg>