<svg id="U21DA9" viewBox="0 0 1024 1024"><path transform="translate(0, 921.6) scale(1,-1)" d="M875 541L875 541L875 720L903 755L833 793L811 755L197 755L133 780Q135 746 135.50 696.50Q136 647 136 583L136 583Q136 516 135.50 467.50Q135 419 133 389L133 389L197 411L197 440L814 440L814 401L881 421Q876 449 875.50 479.50Q875 510 875 541ZM197 465L197 726L359 726L359 465L197 465ZM416 465L416 726L588 726L588 465L416 465ZM646 465L646 726L814 726L814 465L646 465ZM881 227L881 227L919 255L814 296Q814 233 817.50 159.50Q821 86 821 1L821 1L537 1L537 351L572 373L474 414Q474 351 475.50 247.50Q477 144 477 1L477 1L200 1L200 217L235 249L136 284Q139 226 139.50 157.50Q140 89 140 11L140 11L105-11L168-62L203-24L821-24L821-62L884-30Q881 8 881 71L881 71Q881 134 881 227Z"/></svg>