<svg id="U21604" viewBox="0 0 1024 1024"><path transform="translate(0, 921.6) scale(1,-1)" d="M534 781L453 824Q429 710 414 665L414 665L77 665L112 626Q131 628 149.50 632Q168 636 190 639L190 639L408 639Q322 451 51 343L51 343L57 327Q193 360 297 438L297 438Q401 502 469 639L469 639L550 639Q657 429 868 347L868 347Q881 393 953 399L953 399L953 415Q844 424 755 477L755 477Q655 524 573 639L573 639L924 639L855 710L797 665L476 665L502 756L534 781ZM323 356L323 356L262 389Q266 352 267 303Q268 254 268 194L268 194L268-22L54-22L93-61Q124-51 177-51L177-51L940-51L875 25L813-22L661-22L661 181L875 181L803 259L748 207L320 207L320 327Q426 334 499.50 339Q573 344 618 350L618 350Q664 357 700 360Q736 363 758 366L758 366L700 441Q640 411 547.50 388Q455 365 323 356ZM320 181L602 181L602-22L320-22L320 181Z"/></svg>