<svg id="U21DDB" viewBox="0 0 1024 1024"><path transform="translate(0, 921.6) scale(1,-1)" d="M439 420L439 420L496 439L496 459L799 459L799 423L859 449Q856 479 856 504L856 504L856 548L856 716L882 739L818 780L789 745L496 745L439 777Q443 729 444 684.50Q445 640 445 595L445 595Q445 550 444 506.50Q443 463 439 420ZM496 608L496 720L799 720L799 608L496 608ZM496 583L799 583L799 484L496 484L496 583ZM675 156L675 156L929 156L862 229L805 185L675 185L675 322L901 322L837 392L783 347L420 347L455 312Q486 322 528 322L528 322L624 322L624 185L372 185L407 150Q424 152 441 154Q458 156 477 156L477 156L624 156L624 13Q624-2 622-27Q620-52 620-91L620-91L681-63Q676-24 675.50 28.50Q675 81 675 156ZM105 92L318 92L318 22L375 51Q370 108 369.50 162Q369 216 369 264L369 264L369 529L398 557L315 599Q317 557 317.50 439.50Q318 322 318 121L318 121L235 121L235 732L267 758L184 796Q189 762 190 594Q191 426 191 121L191 121L111 121L111 529L133 564L57 602Q59 557 59.50 442Q60 327 60 134L60 134L35 111L73 57L105 92Z"/></svg>