<svg id="U21A40" viewBox="0 0 1024 1024"><path transform="translate(0, 921.6) scale(1,-1)" d="M789 552L776 559L828 655L195 655Q199 582 182 565L182 565Q165 534 120 539L120 539Q78 539 101 571L101 571Q125 590 146 630L146 630Q153 644 161.50 667Q170 690 175 726L175 726L192 726L195 685L502 685Q502 734 440 814L440 814L450 823Q550 780 560 749L560 749Q568 719 537 685L537 685L825 685L857 730L938 659Q860 648 789 552L789 552ZM314 639L314 639L376 610L353 571L676 571L705 607L770 559L734 536Q722 504 716 468.50Q710 433 705 391L705 391L834 391L892 436L963 365L518 365Q510 357 498 349Q486 341 469 329L469 329Q528 270 553 232L553 232Q584 246 613 261.50Q642 277 670 294L670 294Q701 314 718.50 329Q736 344 741 352L741 352L796 287Q773 287 754 281.50Q735 276 718 271L718 271Q700 266 679 257Q658 248 634 239L634 239Q676 179 718 140Q760 101 805 77L805 77Q893 30 967 26L967 26L967 13Q895 8 886-38L886-38Q849-19 812.50 5.50Q776 30 741 61L741 61Q706 97 675 137.50Q644 178 618 232L618 232L566 213Q599 101 586 19L586 19Q568-59 489-90L489-90Q482-35 382-22L382-22L382-7Q433-10 463.50-13.50Q494-17 502-12L502-12Q526-9 531 42L531 42Q535 91 531 152L531 152Q501 127 455.50 102Q410 77 347 48L347 48Q281 19 214-3.50Q147-26 75-41L75-41L72-25Q117-11 161 4Q205 19 250 39L250 39Q293 60 328 78Q363 96 395 116L395 116Q426 133 457 155.50Q488 178 515 200L515 200Q512 209 508.50 219Q505 229 498 239L498 239Q437 193 334 152L334 152Q277 127 222.50 108Q168 89 111 77L111 77L108 93Q156 110 204.50 131Q253 152 301 174L301 174Q352 198 394 225Q436 252 473 281L473 281L450 316Q405 289 357.50 268.50Q310 248 259 229L259 229Q211 212 170 197.50Q129 183 98 174L98 174L95 187Q152 208 201 232Q250 256 295 278L295 278Q338 302 372.50 322.50Q407 343 434 365L434 365L169 365Q147 365 129 361Q111 357 95 355L95 355L56 391L650 391L660 439L318 439L301 420L246 458Q268 468 289 520L289 520Q295 546 302 575.50Q309 605 314 639ZM679 546L347 546L321 468L666 468L679 546Z"/></svg>