<svg id="U2147C" viewBox="0 0 1024 1024"><path transform="translate(0, 921.6) scale(1,-1)" d="M86 721L288 721Q288 739 287.50 764Q287 789 285 813L285 813L364 787L339 762L339 721L455 721L500 753L553 693L339 693L339 645L436 645L458 674L509 636L484 614L484 532Q484 495 487 462L487 462L436 453L436 472L339 472L339 412L458 412L503 447L559 383L289 383L329 361Q314 349 299 338.50Q284 328 266 314L266 314Q249 297 228.50 281.50Q208 266 187 248L187 248L408 260Q396 301 351 361L351 361L364 371Q451 297 468 273L468 273Q487 235 465 213L465 213Q445 181 430 200L430 200Q427 212 423.50 220.50Q420 229 417 238L417 238Q229 214 168 185L168 185L130 248Q175 265 206 305L206 305Q237 339 260 383L260 383L203 383Q181 383 162 381Q143 379 127 377L127 377L92 412L288 412L288 472L193 472L193 456L140 447Q144 472 145 500Q146 528 146 557L146 557Q146 585 145 611.50Q144 638 140 667L140 667L197 645L288 645L288 693L206 693Q158 693 121 683L121 683L86 721ZM288 570L288 617L193 617L193 570L288 570ZM436 617L339 617L339 570L436 570L436 617ZM436 497L436 544L339 544L339 497L436 497ZM288 497L288 544L193 544L193 497L288 497ZM796 551L821 588L878 538L847 516Q820 473 791.50 436.50Q763 400 733 365L733 365Q822 276 948 238L948 238L948 226Q896 219 884 188L884 188Q838 208 780 260L780 260Q751 284 732 301.50Q713 319 701 336L701 336Q656 297 602.50 268Q549 239 489 218L489 218L569 181L544 150L544 112L720 112L777 163L840 87L544 87L544-26L831-26L888 27L954-51L178-51Q155-53 137.50-57.50Q120-62 108-67L108-67L70-26L490-26L490 87L304 87Q281 85 262.50 80.50Q244 76 228 71L228 71L193 112L490 112Q490 146 488.50 173Q487 200 487 217L487 217Q486 217 485 216.50Q484 216 484 216L484 216L481 226Q553 271 601 308Q649 345 676 374L676 374Q653 401 631 437.50Q609 474 587 520L587 520Q580 519 574 517.50Q568 516 562 516L562 516L528 551L679 551L679 683Q679 716 677.50 747.50Q676 779 676 813L676 813L761 784L730 759L730 689L828 689L875 727L932 664L730 664L730 551L796 551ZM609 523L609 523Q633 483 657 452Q681 421 701 399L701 399Q765 469 793 525L793 525L638 525Q628 525 621 524.50Q614 524 609 523Z"/></svg>