<svg id="U2111F" viewBox="0 0 1024 1024"><path transform="translate(0, 921.6) scale(1,-1)" d="M123 664L227 664L227 197L123 197L123 664ZM127 690L72 725Q77 680 78 637Q79 594 79 548L79 548L79 178Q79 146 78 116.50Q77 87 72 59L72 59L123 88L123 172L227 172L227 69L278 97Q273 128 272.50 160.50Q272 193 272 229L272 229L272 645L308 670L249 728L220 690L127 690ZM845 654L813 577L825 573Q842 602 867 619L867 619Q887 635 935 645L935 645L873 709L841 683L626 683L626 755L857 755L797 822L749 783L362 783L397 748Q414 750 431 751Q448 752 469 755L469 755L577 755L577 683L378 683L378 722L362 722Q339 641 317 619L317 619Q288 586 301 570L301 570Q308 554 330 554L330 554Q351 554 362 583L362 583Q367 596 371.50 613.50Q376 631 378 654L378 654L577 654Q577 572 575.50 517.50Q574 463 574 438L574 438L629 465Q626 481 626 502L626 502L626 548L626 654L845 654ZM523 583L397 583L397 554L523 554L523 583ZM523 497L397 497L397 471L523 471L523 497ZM797 583L674 583L674 554L797 554L797 583ZM800 497L674 497L674 471L800 471L800 497ZM391 294L391 394L526 394L526 294L391 294ZM574 319L574 387L600 410L548 449L526 419L391 419L343 446Q345 409 345.50 346Q346 283 346 188L346 188Q346 93 345.50 28Q345-37 343-79L343-79L391-59L391 53L597 53L539 113L497 78L391 78L391 162L587 162L539 226L494 191L391 191L391 268L526 268L526 255L577 271Q574 290 574 319L574 319ZM851 318L851 381L880 410L825 449L800 419L620 419L655 387Q671 389 688.50 391.50Q706 394 725 394L725 394L803 394L803 294L613 294L645 258Q662 260 680.50 264Q699 268 719 268L719 268L803 268L803 249L854 268Q851 289 851 318L851 318ZM845 162L845 162L873 178L822 229L793 197L597 197L629 162Q662 172 703 172L703 172L787 172Q777 129 719 72L719 72Q669 99 623 156L623 156L613 153Q648 81 693 49L693 49Q628-10 501-66L501-66L501-79Q570-63 625-39.50Q680-16 722 17L722 17Q761-14 797.50-39Q834-64 873-82L873-82Q873-38 954-43L954-43L957-31Q816 0 761 49L761 49Q788 80 807.50 108.50Q827 137 845 162Z"/></svg>