<svg id="U2193D" viewBox="0 0 1024 1024"><path transform="translate(0, 921.6) scale(1,-1)" d="M81 450L490 450Q490 475 489.50 505Q489 535 487 570L487 570L527 549L670 716L313 716Q295 713 277.50 710.50Q260 708 242 704L242 704L211 741L673 741L710 785L779 716Q720 696 543 540L543 540L574 518L543 493L543 450L813 450L872 502L943 425L543 425L543 174Q543 76 453 43L453 43Q453 118 329 155L329 155L329 174Q384 164 417 161Q450 158 462 158L462 158Q486 158 490 198L490 198L490 425L183 425Q164 422 147.50 418.50Q131 415 115 412L115 412L81 450ZM127-43L99-9L773-9L835 49L912-33L242-33Q164-33 127-43L127-43Z"/></svg>