<svg id="U21B95" viewBox="0 0 1024 1024"><path transform="translate(0, 921.6) scale(1,-1)" d="M225 748L231 761Q270 741 295.50 726.50Q321 712 332 703L332 703Q364 674 364 661L364 661Q369 637 348 609L348 609Q335 581 309 628L309 628Q302 652 279 683Q256 714 225 748L225 748ZM828 456L818 463L861 547L167 547Q167 492 144 469L144 469Q122 450 92 450L92 450Q70 450 66 463L66 463Q56 472 92 508L92 508Q136 536 150 618L150 618L167 618L167 576L478 576L478 719Q478 738 474.50 761Q471 784 471 807L471 807L559 774L530 742L530 576L608 576Q651 634 681.50 680.50Q712 727 731 764L731 764L799 709Q784 701 769 690Q754 679 737 667L737 667Q717 652 691.50 629.50Q666 607 630 576L630 576L861 576L893 618L961 550Q907 540 828 456L828 456ZM747 317L747 408L530 408L530 317L747 317ZM478 408L267 408L267 317L478 317L478 408ZM478 77L478 181L225 181L225 77L478 77ZM789 77L789 181L530 181L530 77L789 77ZM530 437L741 437L766 469L838 427L802 398L802 338Q802 308 805 275L805 275L747 255L747 288L530 288L530 207L783 207L809 245L870 200L844 168Q844 131 844.50 99Q845 67 848 38L848 38L789 15L789 48L530 48L530-17Q530-50 533-81L533-81L471-104Q471-67 474.50-28Q478 11 478 48L478 48L225 48L225 22L163-1Q167 123 163 239L163 239L228 207L478 207L478 288L267 288L267 275L206 255Q211 359 206 463L206 463L270 437L478 437Q478 458 474.50 482.50Q471 507 471 537L471 537L565 495L530 466L530 437Z"/></svg>