<svg id="U214D4" viewBox="0 0 1024 1024"><path transform="translate(0, 921.6) scale(1,-1)" d="M318 218L199 167L199 457L321 457L270 525L228 483L199 483L199 715L224 741L144 777Q146 732 146.50 704.50Q147 677 147 661L147 661L147 483L31 483L66 444Q93 457 140 457L140 457L147 457L147 154Q108 134 75 122.50Q42 111 18 102L18 102L63 44Q82 61 147 100Q212 139 324 202L324 202L318 218ZM228-71L241-81Q402 100 402 406L402 406L402 677L921 677L857 751L812 702L654 702Q693 743 666 764L666 764Q648 783 573 815L573 815L563 803Q617 758 625 702L625 702L408 702L344 735Q346 693 350 651.50Q354 610 354 567L354 567L354 406Q358 130 228-71L228-71ZM637 580L418 580L454 541Q472 543 489.50 546.50Q507 550 524 554L524 554L905 554L844 619L802 580L666 580Q690 607 676 631L676 631Q666 638 646 649.50Q626 661 595 673L595 673L592 661Q622 629 637 580L637 580ZM518 503L463 525Q463 479 464.50 439.50Q466 400 466 367L466 367Q466 333 464.50 301Q463 269 463 238L463 238L515 254L515 264L799 264L799 244L847 264Q844 276 844 291L844 291Q844 307 844 325L844 325L844 473L867 496L818 535L795 503L518 503ZM515 293L515 477L799 477L799 293L515 293ZM602 428L560 454Q560 432 561.50 415Q563 398 563 386L563 386Q563 371 561.50 354.50Q560 338 560 322L560 322L602 335L602 341L712 341L712 328L747 341L747 406L763 422L725 457L705 428L602 428ZM602 367L602 403L712 403L712 367L602 367ZM625 183L625 183L625 135L389 135L428 96Q446 98 464.50 100.50Q483 103 502 106L502 106L573 106Q496 11 354-74L354-74L357-90Q534-28 625 96L625 96Q625 50 623 0.50Q621-49 621-100L621-100L679-81Q676-49 676-3L676-3Q676 43 676 106L676 106L683 106Q749-13 860-81L860-81Q869-44 925-39L925-39L925-23Q810-10 705 106L705 106L912 106L857 167L815 135L676 135L676 186Q767 206 812 206L812 206L773 260Q746 248 713.50 239.50Q681 231 641 222L641 222Q599 210 560 204Q521 198 483 196L483 196L483 176Q528 176 564 178Q600 180 625 183Z"/></svg>