<svg id="U22998" viewBox="0 0 1024 1024"><path transform="translate(0, 921.6) scale(1,-1)" d="M762 719L762 719Q747 725 717 738.50Q687 752 642 766L642 766L636 748Q695 704 727 650L727 650Q754 599 778 646L778 646Q791 696 762 719ZM526 602L526 602L49 602L81 564Q98 566 116 569Q134 572 154 574L154 574L529 574Q536 453 558 351.50Q580 250 614 165L614 165Q547 86 466 29Q385-28 292-70L292-70L299-85Q531-8 645 118L645 118Q700 37 772-13Q844-63 935-92L935-92Q913-35 907.50 27Q902 89 907 165L907 165L888 165L863 8Q771 31 680 165L680 165Q713 219 742 284Q771 349 796 427L796 427L834 448L746 496Q713 330 652 221L652 221Q628 287 610 374.50Q592 462 585 574L585 574L916 574L853 646L790 602L582 602Q573 660 573 728L573 728L601 763L510 798Q512 744 515 697Q518 650 526 602ZM271 445L403 445L403 284L104 284L145 250Q178 260 226 260L226 260L403 260L403 224L459 244Q456 279 456 311L456 311Q456 343 456 376L456 376L456 438L497 470L421 514L397 470L117 470L157 435Q173 437 192.50 441Q212 445 239 445L239 445L271 445ZM66 118L66 118L120 49Q185 83 547 162L547 162L544 180Q387 154 269 139Q151 124 66 118Z"/></svg>