<svg id="U22B7A" viewBox="0 0 1024 1024"><path transform="translate(0, 921.6) scale(1,-1)" d="M204 301L204 301L204 54Q204 6 175 1L175 1Q152-4 65 7L65 7L65-12Q179-38 175-93L175-93Q262-59 257 36L257 36L257 339L390 422L380 440L257 377L257 547L380 547L333 624L292 573L257 573L257 744L288 766L200 810Q203 765 203.50 704.50Q204 644 204 573L204 573L45 573L80 544L115 547L204 547L204 355Q141 324 99.50 307Q58 290 36 285L36 285L96 219Q110 235 136 255.50Q162 276 204 301ZM478 567L478 567Q500 542 513.50 519.50Q527 497 532 469L532 469Q541 414 570 437L570 437Q594 463 590 497L590 497Q585 515 562 534Q539 553 498 576L498 576Q533 595 566.50 612.50Q600 630 634 652L634 652Q683 608 703 558L703 558Q712 510 741 532L741 532Q762 548 757 589L757 589Q749 608 725.50 628Q702 648 656 668L656 668Q684 684 715 704.50Q746 725 773 747L773 747L807 741L738 807Q689 748 583 671L583 671Q527 633 473.50 598Q420 563 371 535L371 535L377 516Q422 537 447.50 548.50Q473 560 478 567ZM887 558L928 564L858 627Q834 598 806 570.50Q778 543 744 520L744 520Q706 495 669.50 472.50Q633 450 596 431L596 431Q559 409 505 389.50Q451 370 380 348L380 348L390 330Q418 334 453 342.50Q488 351 529 362Q570 373 608.50 388Q647 403 688 428L688 428Q701 403 712 388.50Q723 374 729 368L729 368Q687 331 648 303Q609 275 564 253L564 253Q518 230 475.50 211.50Q433 193 390 181L390 181L397 162Q545 195 614 232L614 232Q652 247 686 266.50Q720 286 757 310L757 310Q763 289 769 270Q775 251 782 235L782 235Q691 162 586 114L586 114Q530 87 472 64Q414 41 352 22L352 22L356 4Q444 24 511 43Q578 62 624 83L624 83Q666 98 708.50 121Q751 144 798 175L798 175Q788 89 773 61L773 61Q766 47 757.50 32.50Q749 18 738 4L738 4Q720-14 688-18L688-18Q672-18 638.50-15Q605-12 548-2L548-2L548-27Q668-41 668-93L668-93Q758-71 804-2L804-2Q844 67 848 128L848 128Q857 186 824 282L824 282Q806 327 779 367.50Q752 408 718 446L718 446Q752 468 794 495.50Q836 523 887 558L887 558Z"/></svg>