<svg id="U22241" viewBox="0 0 1024 1024"><path transform="translate(0, 921.6) scale(1,-1)" d="M460 830L447 823Q511 748 507 701L507 701L230 701L148 743Q153 696 154 651.50Q155 607 155 562L155 562L155 381Q155 148 15-37L15-37L21-48Q199 107 210 362L210 362L210 671L935 671L869 751L819 701L537 701Q634 745 460 830L460 830ZM523 43L523 43L523 523L553 549L486 598L468 552L326 552L269 586Q274 527 276 465Q278 403 276 335L276 335Q276 263 270 205Q264 147 257 103L257 103Q247 61 228 15.50Q209-30 179-81L179-81L191-87Q253-17 287 59L287 59Q304 102 314 141Q324 180 326 217L326 217L468 217L468 62Q468 16 447 16L447 16Q436 16 413.50 18Q391 20 359 23L359 23L359 5Q440-9 454-67L454-67Q523-41 523 43ZM329 398L329 526L468 526L468 398L329 398ZM329 243L329 369L468 369L468 243L329 243ZM692 2L692 2L688-18Q784-32 790-87L790-87Q866-55 866 36L866 36L866 520L892 549L826 592L806 552L655 552L606 592Q606 523 608 470.50Q610 418 610 384L610 384L610 250Q610 216 604.50 179Q599 142 592 95L592 95Q577 6 507-87L507-87L517-96Q654 18 658 217L658 217L810 217L810 43Q810-1 770-1L770-1Q749-1 729-0.50Q709 0 692 2ZM658 398L658 526L810 526L810 398L658 398ZM658 243L658 369L810 369L810 243L658 243Z"/></svg>