<svg id="U2243E" viewBox="0 0 1024 1024"><path transform="translate(0, 921.6) scale(1,-1)" d="M108 325L129 520L231 520L231 487L280 509L280 741L302 760L251 800L228 764L51 764L84 734Q102 736 119 738.50Q136 741 160 741L160 741L231 741L231 546L129 546L81 582Q78 525 71.50 464Q65 403 58 334L58 334L35 319L78 276L104 298L223 298Q216 223 210.50 167Q205 111 198 76L198 76Q183 5 169-6L169-6Q159-19 133-15L133-15Q119-13 103-9Q87-5 71-3L71-3L68-21Q130-40 139-99L139-99Q161-93 177.50-79Q194-65 208-45L208-45Q217-30 226.50-5Q236 20 244 58L244 58Q251 91 257.50 149Q264 207 269 288L269 288L302 314L244 364L228 325L108 325ZM755 314L774 500L885 500L885 466L934 495L934 737L957 760L905 803L875 760L702 760L735 725Q755 727 772.50 730.50Q790 734 810 734L810 734L885 734L885 526L781 526L729 561Q725 510 719 454Q713 398 706 334L706 334L683 308L733 262L751 286L882 286Q869 169 862 104Q855 39 852 23L852 23Q839-12 833-15L833-15Q821-19 722-15L722-15L725-34Q809-49 813-97L813-97Q860-71 882-42L882-42Q890-25 896.50-1.50Q903 22 908 54Q913 86 918.50 139.50Q924 193 930 270L930 270L957 298L914 347L885 314L755 314ZM465 685L481 685L481 461L287 461L322 425Q339 427 358 431Q377 435 399 435L399 435L722 435L667 500L624 461L527 461L527 685L692 685L644 744L605 714L527 714L527 767L553 787L481 818L481 714L318 714L364 670Q390 678 415 681.50Q440 685 465 685L465 685ZM289 484L289 484L302 474Q327 494 349.50 519.50Q372 545 387 576L387 576Q398 563 406 548.50Q414 534 419 516L419 516Q431 467 449 498L449 498Q470 513 465 530L465 530Q465 546 449 558L449 558Q445 561 432 571Q419 581 393 597L393 597L407 627L427 639L361 666Q346 563 289 484ZM527 308L390 314Q431 336 464 359.50Q497 383 527 403L527 403L557 403L488 449Q471 426 447 402.50Q423 379 393 357L393 357Q332 305 318 319L318 319L344 259Q359 263 399.50 272Q440 281 504 288L504 288Q474 266 446 249Q418 232 390 217L390 217Q335 182 309 188L309 188L344 139Q364 144 429 154.50Q494 165 611 178L611 178Q624 163 629.50 151.50Q635 140 641 132L641 132Q641 112 667 135L667 135Q693 161 667 188L667 188Q643 211 569 252L569 252L557 244L601 202L407 188Q454 212 512 249Q570 286 641 336L641 336L670 336L608 382Q596 368 575.50 349.50Q555 331 527 308L527 308ZM449 75L387 119Q372 94 356.50 75.50Q341 57 326 37L326 37Q309 22 289.50 4Q270-14 244-34L244-34L254-54Q361 7 422 68L422 68L449 75ZM530-21L530 119L557 135L481 161L481 23Q481-21 462-21L462-21L390-6L387-21Q459-50 472-97L472-97Q518-80 530-21L530-21ZM583 107L572 100Q608 73 629 47.50Q650 22 660 4L660 4Q671-43 696-15L696-15Q720 11 706 37L706 37Q695 50 663.50 68Q632 86 583 107L583 107ZM534 487L534 487L546 477Q606 524 631 579L631 579Q656 549 667 520L667 520Q678 480 692 500L692 500Q710 509 710 530L710 530Q707 536 703 543Q699 550 692 558L692 558Q687 563 673.50 573Q660 583 641 597L641 597L650 627L673 642L608 666Q602 614 582 570Q562 526 534 487Z"/></svg>