<svg id="U227B3" viewBox="0 0 1024 1024"><path transform="translate(0, 921.6) scale(1,-1)" d="M775 764L347 764L385 725Q402 730 423 731.50Q444 733 469 738L469 738L752 738L608 645L585 665Q585 647 586.50 609Q588 571 588 513L588 513L588 343Q588 298 550 298L550 298Q515 293 456 298L456 298L456 281Q511 272 527 262L527 262Q536 252 542 240Q548 228 556 217L556 217Q640 242 640 317L640 317L640 600L659 610L633 626Q670 647 702 663Q734 679 762 690L762 690Q791 702 818 711Q845 720 871 725L871 725L814 793L775 764ZM518 343L518 571L546 594L495 642L463 600L399 600L344 626L344 317L395 336L395 349L466 349L466 326L518 343ZM395 375L395 571L466 571L466 375L395 375ZM894 581L894 581L926 594L861 645L833 613L665 613L704 574Q731 587 788 587L788 587L839 587Q829 545 815 513Q801 481 784 452L784 452Q743 498 685 536L685 536L678 529Q699 500 722 470Q745 440 766 407L766 407Q723 323 646 253L646 253L655 233Q738 301 794 372L794 372Q811 344 823 324Q835 304 843 288L843 288Q858 252 881 281L881 281Q901 299 891 333L891 333Q881 352 863.50 371Q846 390 820 410L820 410Q844 448 861.50 490.50Q879 533 894 581ZM643-10L643 162L682 188L588 223L588-10L402-10L402 130L437 152L347 191L347-2L321-30L382-74L404-38L839-38L839-90L898-68L898 117L923 136L839 184L839-10L643-10ZM131 584L131 584L118 584Q100 462 64 417L64 417Q32 370 39 355L39 355Q43 340 76 345L76 345Q105 354 121 400L121 400Q128 422 132 467Q136 512 131 584ZM176 603L176 603L176 117Q176 72 175 20.50Q174-31 170-103L170-103L228-65Q225-38 225-5L225-5Q225 27 225 72L225 72L225 725L257 761L170 809Q174 761 175 709Q176 657 176 603ZM243 613L243 613L231 606Q261 520 267 474L267 474Q272 427 299 427L299 427Q322 427 327 462L327 462Q332 494 315 526L315 526Q303 543 285 563.50Q267 584 243 613Z"/></svg>