<svg id="U224D7" viewBox="0 0 1024 1024"><path transform="translate(0, 921.6) scale(1,-1)" d="M371-8L327-22L368-83Q382-73 415-51.50Q448-30 496-2L496-2Q548 29 585.50 50Q623 71 653 92L653 92L649 104L553 62L553 392L665 392L614 466L576 418L553 418L553 712L582 737L496 782Q496 740 499 709Q502 678 502 651L502 651L502 43L425 11L425 498L451 520L368 568Q371 526 371 497L371 497Q371 468 371 446L371 446L371-8ZM675 671L675 5Q675-63 748-57L748-57L864-57Q919-53 944-8L944-8Q911-1 906 43L906 43Q903 64 902.50 88.50Q902 113 902 142L902 142L883 142Q883 104 881 75Q879 46 879 27L879 27Q874-6 844-13L844-13L778-13Q729-17 729 37L729 37L729 353Q760 383 789 408.50Q818 434 844 459L844 459Q898 508 924 516L924 516L851 568Q815 486 729 392L729 392L729 728L758 757L671 792Q671 750 673 722Q675 694 675 671L675 671ZM272 712L272 712L307 724L237 782Q222 753 202 718.50Q182 684 154 651L154 651Q124 612 98 584Q72 556 50 533L50 533L56 511Q102 539 156.50 588Q211 637 272 712ZM320 533L320 533L355 546L287 596Q261 544 231.50 491.50Q202 439 166 388L166 388Q130 336 98.50 293.50Q67 251 40 222L40 222L53 203Q87 232 122.50 269.50Q158 307 195 353L195 353L195 53Q195 21 193-18Q191-57 189-106L189-106L249-79L249 427Q266 448 283 476Q300 504 320 533Z"/></svg>