<svg id="U22EE5" viewBox="0 0 1024 1024"><path transform="translate(0, 921.6) scale(1,-1)" d="M684 611L684 611L529 611L565 576Q581 578 598.50 580Q616 582 635 582L635 582L684 582L684 422L523 422L555 390Q574 392 582.50 394Q591 396 594 396L594 396Q607 311 629 255L629 255Q638 223 649.50 187.50Q661 152 680 116L680 116Q594 2 414-78L414-78L417-97Q502-73 574-32Q646 9 709 78L709 78Q726 51 744 28.50Q762 6 786-18L786-18Q805-35 830.50-55.50Q856-76 886-94L886-94Q905-57 966-52L966-52L966-36Q923-26 886.50-12Q850 2 822 27L822 27Q756 81 741 116L741 116Q758 145 774.50 177.50Q791 210 806 242L806 242Q818 278 831.50 313Q845 348 857 390L857 390L886 409L831 461L806 422L732 422L732 582L944 582L883 653L841 611L732 611L732 737L761 766L680 807Q680 776 682 726.50Q684 677 684 611ZM622 396L622 396L806 396Q794 362 782 329.50Q770 297 761 261L761 261Q746 229 733.50 202Q721 175 709 158L709 158Q692 187 678 216.50Q664 246 651 277L651 277Q644 308 635.50 337.50Q627 367 622 396ZM230 740L173 769Q175 757 175.50 728.50Q176 700 176 660L176 660Q176 615 175.50 587Q175 559 173 541L173 541L227 560L227 582L394 582L394 550L446 573Q443 592 443 701L443 701L472 721L423 775L394 740L230 740ZM153 499L92 522Q95 511 95 422L95 422Q95 332 92 316L92 316L147 329L147 341L237 341L237 316L288 338L288 461L314 483L263 534L237 499L153 499ZM388 499L337 528Q341 516 342 490Q343 464 343 428L343 428Q343 389 342 359.50Q341 330 337 309L337 309L388 332L388 341L475 341L475 319L526 341Q523 357 523 461L523 461L549 476L504 534L472 499L388 499ZM227 611L227 714L394 714L394 611L227 611ZM147 370L147 473L237 473L237 370L147 370ZM388 370L388 473L475 473L475 370L388 370ZM292 216L292 216L73 216L108 181Q127 187 145.50 188.50Q164 190 179 190L179 190L263 190Q177 57 57-45L57-45L70-61Q205 25 288 139L288 139Q288 46 287.50-15Q287-76 285-110L285-110L343-81Q338-49 337.50 7.50Q337 64 337 152L337 152Q379 118 408 89Q437 60 452 27L452 27Q482-31 504 14L504 14Q519 62 475 94L475 94Q453 113 419 131Q385 149 343 171L343 171L343 190L549 190L494 261L452 216L343 216L343 258L372 284L288 329Q291 314 291.50 286Q292 258 292 216Z"/></svg>