<svg id="U22552" viewBox="0 0 1024 1024"><path transform="translate(0, 921.6) scale(1,-1)" d="M237-71L237 407Q264 447 281.50 474.50Q299 502 312 519L312 519L343 525L277 590Q260 535 177 413L177 413Q132 346 94.50 294Q57 242 28 205L28 205L38 189Q74 218 111 257.50Q148 297 187 343L187 343L187 46Q187 12 186-23Q185-58 180-97L180-97L237-71ZM308 749L237 807Q223 757 164 673L164 673Q135 625 102 585Q69 545 38 510L38 510L49 493Q145 554 277 733L277 733L308 749ZM586 688L305 688L337 653Q356 655 373.50 657.50Q391 660 410 660L410 660L919 660L859 730L817 688L618 688Q652 722 638 749L638 749Q609 779 523 807L523 807L510 794Q577 740 586 688L586 688ZM395 631L395 471L449 480L449 483L750 483L750 478L808 483L808 583L829 603L769 641L750 611L452 611L395 631ZM449 513L449 583L750 583L750 513L449 513ZM385 445L385 282L437 295L437 305L763 305L763 289L817 302L817 404L839 423L785 461L763 436L443 436L385 445ZM437 334L437 407L763 407L763 334L437 334ZM449 167L449 167L462 180L708 180Q664 120 593 59L593 59Q561 72 525 100.50Q489 129 449 167ZM289 52L299 39Q339 67 373.50 96Q408 125 433 154L433 154Q486 76 555 29L555 29Q510-2 433-29.50Q356-57 244-80L244-80L247-97Q368-82 454-59Q540-36 600 1L600 1Q645-31 708.50-54.50Q772-78 856-94L856-94Q863-49 936-49L936-49L936-29Q756-29 644 36L644 36Q677 63 711 97.50Q745 132 772 170L772 170L808 187L740 247L708 205L475 205L520 257L545 257L468 305Q433 211 289 52L289 52Z"/></svg>