<svg id="U227E8" viewBox="0 0 1024 1024"><path transform="translate(0, 921.6) scale(1,-1)" d="M132 578L132 578L122 578Q101 462 68 417L68 417Q33 363 38 340L38 340Q49 310 71 320L71 320Q101 325 120 378L120 378Q126 404 130 453Q134 502 132 578ZM174 596L174 596L174 114Q174 72 173.50 19Q173-34 171-100L171-100L232-65Q229-40 229-6L229-6Q229 27 229 72L229 72L229 719L264 748L171 797Q173 749 173.50 701Q174 653 174 596ZM248 626L248 626L239 616Q269 542 281 487L281 487Q288 435 306 435L306 435Q321 435 338 474L338 474Q349 506 326 539L326 539Q297 576 248 626ZM596 539L596 539L625 554L547 600Q536 534 505 462L505 462L329 462L368 423Q396 435 452 435L452 435L493 435Q434 330 248 220L248 220L251 204Q373 249 477 336L477 336L477 191L303 191L341 152Q371 162 425 162L425 162L470 162Q455-4 268-97L268-97L268-107Q496-44 522 162L522 162L676 162Q676 53 673-10.50Q670-74 670-97L670-97L728-74Q725-54 725-36L725-36Q725-19 725-2L725-2L725 162L914 162L844 233L805 191L725 191L725 256L760 281L670 330Q670 305 673 271Q676 237 676 191L676 191L525 191L529 271L561 295L470 336Q513 370 551 435L551 435L644 435Q720 297 870 230L870 230Q884 272 947 281L947 281L947 298Q788 298 663 435L663 435L921 435L850 507L815 462L564 462Q576 488 582 508.50Q588 529 596 539ZM651 571L648 558Q683 541 706 522.50Q729 504 744 487L744 487Q773 445 783 494L783 494Q787 546 744 554L744 554Q724 559 699 565Q674 571 651 571L651 571ZM490 693L487 693L487 755L519 774L428 809Q431 787 431.50 759Q432 731 432 693L432 693L300 693L338 655L380 668L432 668Q432 638 431.50 611Q431 584 428 554L428 554L490 571Q487 587 487 668L487 668L599 668L529 735L490 693ZM703 671L721 671Q721 656 719.50 630Q718 604 718 571L718 571L776 581Q771 604 770.50 625Q770 646 770 671L770 671L924 671L857 738L818 697L770 697L770 755L805 777L718 812Q718 793 719.50 764Q721 735 721 697L721 697L621 697L661 658L703 671Z"/></svg>