<svg id="U2252" viewBox="0 0 572 1000"><path transform="translate(0, 900) scale(1,-1)" d="M111 562L111 562Q86 562 68.50 579.50Q51 597 51 622L51 622Q51 647 68.50 664.50Q86 682 111 682L111 682Q136 682 153.50 664.50Q171 647 171 622L171 622Q171 597 153.50 579.50Q136 562 111 562ZM521 416L51 416L51 487L521 487L521 416ZM521 217L51 217L51 288L521 288L521 217ZM461 22L461 22Q436 22 418.50 39.50Q401 57 401 82L401 82Q401 107 418.50 124.50Q436 142 461 142L461 142Q486 142 503.50 124.50Q521 107 521 82L521 82Q521 57 503.50 39.50Q486 22 461 22Z"/></svg>