<svg id="U2247" viewBox="0 0 572 1000"><path transform="translate(0, 900) scale(1,-1)" d="M183 158L51 158L51 229L211 229L245 318L51 318L51 389L272 389L303 469Q289 474 275 481L275 481Q211 510 164 510L164 510Q140 510 110 495Q80 480 51 451L51 451L51 529Q101 582 170 582L170 582Q232 582 296 552L296 552Q313 544 329 538L329 538L378 665L440 642L394 523Q400 523 406 523L406 523Q432 523 462.50 538.50Q493 554 521 582L521 582L521 505Q472 451 401 451L401 451Q384 451 367 453L367 453L343 389L521 389L521 318L316 318L281 229L521 229L521 158L254 158L208 38L146 61L183 158Z"/></svg>