<svg id="U22468" viewBox="0 0 1024 1024"><path transform="translate(0, 921.6) scale(1,-1)" d="M34-19L43-33Q114 20 154 94L154 94Q175 126 192.50 173.50Q210 221 223 283L223 283L249 302L204 348L169 311L58 311L97 275L141 285L169 285Q147 110 34-19L34-19ZM418-25L431-39Q475-5 509.50 34Q544 73 569 113L569 113Q592 154 609.50 193Q627 232 642 269L642 269L671 289L615 338L586 302L467 302L507 262L549 275L589 275Q572 200 529.50 125Q487 50 418-25L418-25ZM345 408L252 440L252 5Q252 3 247-14L247-14Q240-18 147-3L147-3L147-22Q230-43 240-96L240-96Q314-68 308 19L308 19L308 197Q346 98 424 41L424 41Q434 70 477 70L477 70L477 88Q397 108 308 236L308 236L308 243Q348 260 377.50 280Q407 300 434 322L434 322L471 328L408 387Q393 357 366.50 327.50Q340 298 308 269L308 269L308 377L345 408ZM167 460L510 460L457 526L424 487L424 733L451 757L398 809L369 770L87 770L127 730Q145 735 166.50 736.50Q188 738 213 744L213 744L369 744L369 626L111 626L151 585Q181 595 240 595L240 595L369 595L369 487L43 487L81 447Q99 452 119 456Q139 460 167 460L167 460ZM671 460L721 460L962 460L892 530L853 487L839 487L839 727L873 754L817 809L784 770L513 770L552 730Q569 735 591.50 736.50Q614 738 639 744L639 744L784 744L784 635L547 635L586 595Q615 608 671 608L671 608L784 608L784 487L500 487L539 447Q559 452 580 456Q601 460 629 460L629 460L671 460ZM761 412L671 447L671 77L671 25Q671-22 556-3L556-3L556-25Q608-37 622-57L622-57Q648-67 648-96L648-96Q698-74 715-57L715-57Q727-24 727 5L727 5L727 275Q737 223 753.50 182Q770 141 794 101L794 101Q834 31 892-14L892-14Q905 25 965 22L965 22L965 38Q896 63 859 108L859 108Q837 131 815.50 159.50Q794 188 777 223L777 223Q809 240 838.50 260.50Q868 281 895 302L895 302L932 308L873 370Q853 331 771 243L771 243Q727 308 727 348L727 348L727 380L761 412Z"/></svg>