<svg id="U2208C" viewBox="0 0 1024 1024"><path transform="translate(0, 921.6) scale(1,-1)" d="M727 760L702 731Q698 665 702 490L702 490L826 506L854 550L931 493L705 461Q711 286 753 175L753 175Q785 58 871 0L871 0L899 142L915 139Q901-46 919-96L919-96Q800-40 759 28L759 28Q710 104 686 213L686 213Q663 307 658 458L658 458L585 448L565 435L530 468L651 480Q648 561 648 638L648 638L648 795L727 760ZM520 461L520 114Q520 47 522 5Q524-37 524-61L524-61L467-90Q467-54 468-21.50Q469 11 469 48L469 48L469 438Q450 395 427 356.50Q404 318 381 283L381 283L368 296Q457 481 520 782L520 782L597 741L568 725Q549 665 531.50 612.50Q514 560 499 512L499 512L546 486L520 461ZM747 725L747 725L759 734Q788 724 814 707.50Q840 691 861 678L861 678Q907 644 884 594L884 594Q865 542 836 607L836 607Q811 664 747 725ZM133 604L193 604Q193 658 192.50 707Q192 756 190 804L190 804L266 766L244 734L244 604L310 604L333 642L393 597L362 569L362 225Q371 142 304 124L304 124Q304 171 251 180L251 180L251 197Q266 194 279 194L279 194L301 194Q314 198 310 238L310 238L310 575L244 575L244 48L244-9Q244-35 247-68L247-68L190-96Q192-48 192.50-8.50Q193 31 193 73L193 73L193 575L130 575L130 156L72 127Q74 191 74.50 256.50Q75 322 75 394L75 394Q75 463 74.50 522.50Q74 582 72 630L72 630L133 604Z"/></svg>