<svg id="U226C9" viewBox="0 0 1024 1024"><path transform="translate(0, 921.6) scale(1,-1)" d="M469 515L559 515L559 362L469 362L469 515ZM606 362L606 515L702 515L702 362L606 362ZM469 154L469 333L559 333L559 154L469 154ZM606 154L606 333L702 333L702 154L606 154ZM559 541L324 541L353 503Q392 509 421 509L421 509L421 362L286 362L321 323Q335 325 352.50 328Q370 331 392 333L392 333L421 333L421 154L296 154L331 115Q348 120 365.50 123Q383 126 404 129L404 129L559 129L559-27L321-27L353-65Q370-62 389-58.50Q408-55 431-52L431-52L888-52L830 22L779-27L606-27L606 129L897 129L840 195L798 154L750 154L750 333L923 333L859 410L810 362L750 362L750 515L897 515L830 586L785 541L606 541L606 704Q681 713 733.50 718Q786 723 820 726L820 726L763 803Q707 765 600 743L600 743Q546 730 483 721.50Q420 713 344 701L344 701L344 681Q396 684 450.50 687Q505 690 559 698L559 698L559 541ZM130 583L130 583L113 583Q104 474 56 426L56 426Q15 380 22 358L22 358Q35 330 59 340L59 340Q89 345 110 390L110 390Q134 440 130 583ZM174 605L174 605L174 122Q174 77 173.50 23.50Q173-30 171-100L171-100L231-62Q228-35 228-3L228-3Q228 29 228 74L228 74L228 726L264 759L171 806Q173 761 173.50 710.50Q174 660 174 605ZM248 618L248 618L235 608Q272 524 276 477L276 477Q286 426 309 426L309 426Q330 426 338 461L338 461Q346 489 324 525L324 525Q311 542 292.50 565.50Q274 589 248 618Z"/></svg>