<svg id="U220D6" viewBox="0 0 1024 1024"><path transform="translate(0, 921.6) scale(1,-1)" d="M734 280L580 280L580 156L734 156L734 280ZM518 564L639 564Q639 593 637 630.50Q635 668 635 708L635 708L717 668L688 645L688 564L727 564L766 603L822 538L688 538L688 420L744 420L790 462L844 394L596 394Q574 394 556.50 390Q539 386 521 384L521 384L486 420L639 420L639 538L630 538Q583 538 554 528L554 528L518 564ZM783 277L783 202L783 153Q783 128 786 103L786 103L734 81L734 126L580 126L580 84L525 61Q525 99 526.50 133.50Q528 168 528 198L528 198Q528 230 526.50 263Q525 296 525 338L525 338L577 306L734 306L757 341L809 299L783 277ZM421 381L421 600Q421 645 420.50 690.50Q420 736 417 790L417 790L466 756L848 756L881 795L943 750L910 724L910-1Q910-73 825-103L825-103Q816-46 715-28L715-28L715-17Q751-20 779-20L779-20L822-20Q858-20 858 22L858 22L858 727L472 727L472 384Q472 259 456 172.50Q440 86 404 38L404 38Q332-66 257-106L257-106L244-96Q316-41 372 61L372 61Q421 165 421 381L421 381ZM117 610L176 610Q176 667 175.50 716Q175 765 172 819L172 819L254 783L224 756L224 610L283 610L306 649L365 606L339 577L339 224Q342 143 283 120L283 120Q278 168 234 178L234 178L234 195Q250 192 273 192L273 192Q293 198 293 237L293 237L293 584L224 584L224 42Q224 12 227.50-13.50Q231-39 234-74L234-74L172-103Q175-55 175.50-14Q176 27 176 64L176 64L176 584L117 584L117 152L61 123Q63 186 63.50 255Q64 324 64 397L64 397Q64 466 63.50 525.50Q63 585 61 639L61 639L117 610Z"/></svg>