<svg id="U228DA" viewBox="0 0 1024 1024"><path transform="translate(0, 921.6) scale(1,-1)" d="M326-99L326-99L380-73L380 530L575 530L575 37Q575-5 573.50-32.50Q572-60 572-79L572-79L630-57Q623-42 623 31L623 31L623 530L828 530L828 11Q819-8 800-12L800-12Q787-12 764.50-9.50Q742-7 700-4L700-4L700-19Q796-48 796-95L796-95Q867-69 876-4L876-4L876 513L901 530L853 584L818 555L623 555L623 725L915 725L857 796L809 751L304 751L339 712Q357 715 374.50 718.50Q392 722 409 725L409 725L485 725Q439 662 304 588L304 588L307 571Q344 582 396 608Q448 634 517 674L517 674L557 683L512 725L575 725L575 555L387 555L326 575Q328 527 328.50 443Q329 359 329 239L329 239Q329 115 328.50 32.50Q328-50 326-99ZM665 716L665 716L658 703Q721 678 764.50 657Q808 636 831 613L831 613Q876 567 889 588L889 588Q896 606 892 636L892 636Q876 660 822 683L822 683Q790 690 751.50 699Q713 708 665 716ZM457 389L457 389Q435 350 384 293L384 293L393 280Q409 295 431 315Q453 335 479 357L479 357Q491 344 499 331Q507 318 515 309L515 309Q521 284 540 303L540 303Q553 334 540 347L540 347Q535 356 524.50 368Q514 380 502 392L502 392Q537 453 559 466L559 466L515 508Q509 469 476 418L476 418Q462 429 441 441.50Q420 454 396 469L396 469L393 456Q409 441 424 424.50Q439 408 457 389ZM454 159L454 159Q441 136 423.50 110.50Q406 85 380 56L380 56L387 44Q427 66 479 133L479 133Q494 109 504.50 94Q515 79 517 72L517 72Q527 50 543 72L543 72Q559 93 543 114L543 114Q536 126 526.50 136Q517 146 505 159L505 159Q542 213 559 219L559 219L512 267Q504 243 495.50 223Q487 203 473 184L473 184Q437 206 399 239L399 239L393 229Q405 210 422 193Q439 176 454 159ZM700 149L700 149Q681 113 664 87Q647 61 633 44L633 44L642 37Q659 52 679.50 71.50Q700 91 723 117L723 117Q729 106 736 92.50Q743 79 751 62L751 62Q761 28 780 53L780 53Q794 72 790 94L790 94Q782 107 770 121.50Q758 136 742 152L742 152Q768 195 796 217L796 217L742 261Q738 235 732.50 214.50Q727 194 720 178L720 178Q702 189 685.50 203Q669 217 652 229L652 229L640 217Q661 195 676 178Q691 161 700 149ZM700 392L700 392Q688 368 670.50 340Q653 312 630 283L630 283L640 274Q701 319 728 360L728 360Q738 339 746.50 323.50Q755 308 758 297L758 297Q768 275 783 300L783 300Q799 322 790 347L790 347Q767 363 742 395L742 395Q767 440 803 456L803 456L755 498Q746 472 720 421L720 421Q709 431 692 445Q675 459 652 478L652 478L642 469Q663 439 677.50 421.50Q692 404 700 392ZM118 584L118 584L101 584Q83 464 51 421L51 421Q24 386 30 373L30 373Q36 349 66 367L66 367Q102 376 108 408L108 408Q122 442 118 584ZM156 603L156 603L156 117Q156 72 155 19.50Q154-33 149-102L149-102L207-64Q204-39 204-6L204-6Q204 27 204 72L204 72L204 725L236 757L149 808Q154 760 155 708.50Q156 657 156 603ZM226 629L226 629L217 623Q245 548 249 495L249 495Q259 443 278 453L278 453Q303 467 307 491L307 491Q311 522 291 549L291 549Q281 570 226 629Z"/></svg>