<svg id="U229A0" viewBox="0 0 1024 1024"><path transform="translate(0, 921.6) scale(1,-1)" d="M788 727L788 727Q751 758 678 771L678 771L675 761Q702 732 722 708.50Q742 685 757 667L757 667Q779 621 804 661L804 661Q821 696 788 727ZM577 597L577 597L70 597L105 560Q123 562 140 566Q157 570 177 573L177 573L577 573Q586 453 605.50 354Q625 255 659 170L659 170Q528 15 341-52L341-52L347-72Q453-40 539 6.50Q625 53 691 122L691 122Q762-30 924-96L924-96Q881 27 904 167L904 167L886 170L845 18Q780 62 729 170L729 170Q763 229 790.50 293Q818 357 838 428L838 428L873 447L791 494Q775 413 751.50 346.50Q728 280 700 226L700 226Q676 290 658 377Q640 464 634 573L634 573L920 573L855 645L794 597L634 597Q631 628 627.50 663Q624 698 624 736L624 736L652 771L562 803Q564 749 567.50 699Q571 649 577 597ZM287 512L208 551Q173 439 54 311L54 311L67 302Q130 330 208 425L208 425L266 425Q239 346 188 280Q137 214 58 163L58 163L67 147Q269 226 325 425L325 425L382 425Q323 164 40 47L40 47L43 31Q376 119 439 425L439 425L473 425Q466 313 462.50 248.50Q459 184 454 167L454 167Q446 147 438.50 134Q431 121 426 113L426 113Q409 96 303 113L303 113L303 94Q388 70 388 28L388 28Q451 40 486 91L486 91Q518 137 527 412L527 412L562 437L498 484L467 453L221 453L253 497L287 512Z"/></svg>