<svg id="U22111" viewBox="0 0 1024 1024"><path transform="translate(0, 921.6) scale(1,-1)" d="M408 780L408 780L405 767Q434 734 454 707.50Q474 681 484 661L484 661Q503 622 521 638L521 638Q540 651 540 681L540 681Q540 700 507 727L507 727Q493 737 468.50 750Q444 763 408 780ZM875 737L795 797Q780 757 757.50 714.50Q735 672 706 625L706 625L716 618Q743 640 772.50 667Q802 694 832 727L832 727L875 737ZM636 578L636 578L895 578L825 655L779 605L643 605Q645 635 648 671.50Q651 708 656 760L656 760L689 787L603 823Q603 763 597 709.50Q591 656 587 605L587 605L392 605L425 568Q455 578 501 578L501 578L583 578Q575 558 570 536Q565 514 560 493L560 493L349 493L385 456Q400 458 417.50 460.50Q435 463 458 463L458 463L547 463Q482 349 339 251L339 251L345 231Q529 325 603 463L603 463L689 463Q763 314 898 257L898 257Q903 291 967 307L967 307L967 320Q831 324 709 463L709 463L957 463L895 539L845 493L613 493Q620 512 625.50 533Q631 554 636 578ZM663-17L663 234L795 234L795 62Q795 26 772 26L772 26Q759 26 739 26L739 26Q720 26 696 29L696 29L696 9Q768 0 785-45L785-45Q848-27 848 42L848 42L848 231L875 254L812 297L792 261L663 261L663 337L689 360L607 397Q607 369 608.50 336Q610 303 610 261L610 261L488 261L431 287Q436 250 437 213.50Q438 177 438 138L438 138Q438 101 437 57Q436 13 431-38L431-38L488-11L488 234L610 234L610 16Q610-17 608.50-48.50Q607-80 607-118L607-118L666-95Q663-74 663-55L663-55Q663-37 663-17L663-17ZM176 721L176 602L117 602L57 635Q60 581 60.50 520Q61 459 61 390L61 390Q61 315 60.50 245.50Q60 176 57 112L57 112L117 138L117 575L176 575L176 52Q176 10 175.50-30Q175-70 173-118L173-118L233-91Q227-58 226.50-29.50Q226-1 226 29L226 29L226 575L286 575L286 228Q288 203 283 193Q278 183 269 178L269 178Q246 178 233 185L233 185L233 168Q277 153 282 109L282 109Q343 131 339 215L339 215L339 568L365 598L305 645L282 602L226 602L226 744L259 777L173 813Q175 788 175.50 764Q176 740 176 721L176 721Z"/></svg>