<svg id="U22C3E" viewBox="0 0 1024 1024"><path transform="translate(0, 921.6) scale(1,-1)" d="M199 39L199 270Q163 241 137.50 219.50Q112 198 97 181L97 181L42 242Q65 251 105.50 271.50Q146 292 199 328L199 328L199 536L112 536L87 533L55 566L199 566Q199 633 198.50 692.50Q198 752 196 806L196 806L289 764L253 742L253 566L289 566L330 610L382 536L253 536L253 354L366 418L375 405L253 312L253 24Q257-73 189-101L189-101Q184-54 80-24L80-24L80-5Q159-19 179-14L179-14Q210-3 199 39L199 39ZM767 444L481 444L481 293L767 293L767 444ZM481 238L424 213Q424 261 425.50 303Q427 345 427 379L427 379Q427 414 425.50 444Q424 474 424 498L424 498L487 469L760 469L802 504L863 451L825 431L825 357L825 295Q825 281 825 271L825 271Q825 261 827 255L827 255L767 219L767 267L481 267L481 238ZM417 511L382 588Q423 582 484 652L484 652Q516 684 542 723Q568 762 591 806L591 806L671 749L632 742Q532 632 462 585L462 585L805 595Q781 621 758 647.50Q735 674 709 703L709 703L718 713Q766 684 796 665.50Q826 647 840 636L840 636Q855 626 865 612.50Q875 599 885 585L885 585Q907 556 892 530L892 530Q880 498 866 498L866 498Q849 494 844 511L844 511Q829 537 818 575L818 575Q659 558 574 546Q489 534 472 530L472 530Q457 525 443 520.50Q429 516 417 511L417 511ZM388 158L388 158L405 155Q397 108 390.50 77.50Q384 47 375 30L375 30Q361 0 328-14L328-14Q299-25 286 1L286 1Q269 25 311 52L311 52Q331 66 351 91.50Q371 117 388 158ZM555 213L564 228Q682 174 686 139L686 139Q696 100 673 78L673 78Q653 48 632 104L632 104Q620 130 602 157Q584 184 555 213L555 213ZM789 174L799 190Q920 139 937 97L937 97Q941 59 917 36L917 36Q890 13 879 69L879 69Q869 93 847 119Q825 145 789 174L789 174ZM767-69L526-69Q449-69 449-17L449-17Q449 25 447 73.50Q445 122 443 181L443 181L529 142L504 116L504 17Q504-24 561-24L561-24L741-24Q748-24 763-5L763-5Q773 14 773 94L773 94L799 94Q799 30 805 14L805 14Q809-8 844-24L844-24Q812-69 767-69L767-69Z"/></svg>