<svg id="U22B51" viewBox="0 0 1024 1024"><path transform="translate(0, 921.6) scale(1,-1)" d="M159 57L159 304Q128 280 107.50 261Q87 242 72 228L72 228L25 292Q43 297 76.50 315.50Q110 334 159 363L159 363L159 562L124 562L83 549L44 587L159 587Q159 660 158.50 719.50Q158 779 156 828L156 828L237 783L211 760L211 587L230 587L265 629L336 562L211 562L211 385L317 446L323 430L211 347L211 38Q216-50 146-79L146-79Q141-25 59-9L59-9L59 10Q93 7 114.50 4Q136 1 143 6L143 6Q159 10 159 57L159 57ZM490-41L436-41Q381-41 381 45L381 45L381 356L291 337L281 328L252 356L381 382L381 681Q361 671 337 663.50Q313 656 284 648L284 648L281 668Q342 692 397 722Q452 752 503 787L503 787L551 728L515 728L429 693L429 391L522 410L548 453L596 394L429 366L429 51Q429 6 458 6L458 6L487 6Q509 13 509 64L509 64Q511 89 511.50 112Q512 135 512 154L512 154L528 154Q528 83 538 57L538 57Q545 35 567 13L567 13Q556-10 538-27L538-27Q520-41 490-41L490-41ZM599 154L599 154Q609 224 613 286.50Q617 349 615 404L615 404L615 632Q617 690 616 728Q615 766 615 787L615 787L667 747L843 747L865 787L914 744L892 722L892 543L892 491Q892 467 895 446L895 446L846 420L846 462L730 462Q735 381 751.50 303.50Q768 226 795 151L795 151Q847 2 933-35L933-35L930-51Q871-36 852-70L852-70Q786 7 753 129L753 129Q735 193 722 275.50Q709 358 705 462L705 462L667 462Q667 358 658 275.50Q649 193 637 129L637 129Q606-6 542-89L542-89L528-83Q583 23 599 154ZM843 722L667 722L667 488L843 488L843 722Z"/></svg>