<svg id="U222A9" viewBox="0 0 1024 1024"><path transform="translate(0, 921.6) scale(1,-1)" d="M473 839L464 825Q523 763 523 709L523 709L215 709L135 753Q137 705 137.50 660Q138 615 138 570L138 570L138 371Q148 106 15-65L15-65L27-82Q198 89 198 351L198 351L198 680L962 680L891 760L842 709L560 709Q659 755 473 839L473 839ZM398 597L398 597Q364 566 327 553L327 553Q312 548 297.50 542.50Q283 537 268 537L268 537L291 473Q326 478 369.50 484.50Q413 491 464 497L464 497Q515 499 590.50 506.50Q666 514 769 526L769 526L822 473Q840 454 855 493L855 493Q871 527 832 556L832 556Q787 584 643 623L643 623L636 612L749 547L354 534Q399 554 446 577Q493 600 540 623L540 623L580 623L504 683Q447 626 398 597ZM327 285L327 404L441 404L441 285L327 285ZM496 285L496 404L617 404L617 285L496 285ZM669 285L669 404L798 404L798 285L669 285ZM852 398L852 398L885 425L826 467L798 430L327 430L268 464Q270 433 270.50 403Q271 373 271 341L271 341Q271 310 270.50 281Q270 252 268 225L268 225L327 242L327 255L798 255L798 235L855 255Q852 290 852 325L852 325Q852 360 852 398ZM271-39L271-39L312-98Q346-71 407.50-39Q469-7 560 22L560 22L556 39L348-12L348 89L577 89L514 162L464 119L348 119L348 178L377 209L288 228Q290 210 290.50 194.50Q291 179 291 162L291 162L291 22Q296-28 271-39ZM656 26L656 26L656 66Q704 81 750.50 97Q797 113 845 131L845 131L885 138L829 209Q814 192 798.50 178Q783 164 766 152L766 152Q748 141 719.50 126Q691 111 656 89L656 89L656 182L683 209L596 245Q596 214 598 156.50Q600 99 600 11L600 11Q592-72 676-72L676-72L849-72Q895-72 931-22L931-22Q909-14 895 11L895 11Q889 25 888.50 43.50Q888 62 888 81L888 81L872 81Q870 45 865 22.50Q860 0 855-8L855-8Q846-22 826-22L826-22L700-22Q647-22 656 26Z"/></svg>