<svg id="U2299C" viewBox="0 0 1024 1024"><path transform="translate(0, 921.6) scale(1,-1)" d="M872 378L910 388L819 447Q814 412 793 361.50Q772 311 737 245L737 245Q725 308 716.50 370Q708 432 708 501L708 501L932 542L872 599L837 555L705 529Q700 586 699.50 642.50Q699 699 699 756L699 756L727 777L639 813Q641 759 643.50 689Q646 619 652 522L652 522L507 497L544 463L570 479L658 494Q658 349 696 186L696 186Q616 60 472-39L472-39L482-58Q633 19 718 129L718 129Q758 10 860-55L860-55Q956-117 935-67L935-67Q916-26 916 31L916 31Q913 62 913.50 93.50Q914 125 919 167L919 167L901 170L860 13Q827 41 800.50 80Q774 119 755 177L755 177Q784 222 813.50 272.50Q843 323 872 378L872 378ZM775 769L775 769L762 756Q812 685 825 640L825 640Q845 591 860 614L860 614Q875 624 881 655L881 655Q886 675 863 699L863 699Q848 708 826.50 725Q805 742 775 769ZM271 743L182 790Q186 706 182 558L182 558Q179 477 175.50 412Q172 347 163 290L163 290Q159 239 148 189Q137 139 120 88L120 88Q100 40 81 5Q62-30 45-55L45-55L52-64Q137 9 179 129L179 129Q230 250 230 399L230 399Q276 323 292 265L292 265Q309 192 333 242L333 242Q355 279 336 314L336 314Q321 358 230 422L230 422Q232 491 236 564Q240 637 243 718L243 718L271 743ZM500 740L400 787Q409 694 400 573L400 573Q397 509 391.50 448Q386 387 374 327L374 327Q348 203 292 107L292 107Q264 55 227.50 14.50Q191-26 151-58L151-58L158-74Q221-36 270.50 12Q320 60 356 126L356 126Q393 189 415 261.50Q437 334 447 412L447 412Q473 374 490.50 334Q508 294 523 252L523 252Q532 207 540 173Q548 139 554 113L554 113Q561 65 592 110L592 110Q621 163 588 236L588 236Q559 313 451 450L451 450Q451 522 453 586.50Q455 651 463 709L463 709L500 740Z"/></svg>