<svg id="U22878" viewBox="0 0 1024 1024"><path transform="translate(0, 921.6) scale(1,-1)" d="M418 781L418 781L412 771Q441 734 460.50 706.50Q480 679 492 652L492 652Q508 604 531 648L531 648Q545 695 511 729L511 729Q490 745 467 758Q444 771 418 781ZM360 613L354 604Q405 541 428 494L428 494Q442 436 460 479L460 479Q475 518 456 552L456 552Q433 584 360 613L360 613ZM360 401L360 401L360 382Q414 356 421 343L421 343Q437 330 418 282L418 282Q394 240 431 204L431 204Q464 169 469 275L469 275Q475 380 486 397L486 397Q490 409 517 472Q544 535 595 655L595 655L585 668Q519 541 486.50 476Q454 411 447 404L447 404Q429 390 360 401ZM672 630L698 648L627 694Q598 523 538 417L538 417L550 401Q581 443 612 498.50Q643 554 672 630L672 630ZM811 690L804 678Q857 594 885 529L885 529Q900 468 923 517L923 517Q942 557 911 601L911 601Q893 624 867.50 645Q842 666 811 690L811 690ZM759 456L759 739L794 762L707 807Q707 780 709 752Q711 724 711 697L711 697L711 456Q711 427 709 398Q707 369 707 343L707 343L766 378L759 456ZM891 404L933 420L859 479Q737 281 479 204L479 204L479 186Q682 209 891 404L891 404ZM163 275L163 430L295 430L295 275L163 275ZM350 433L350 433L350 720L373 742L319 787L292 755L170 755L112 781Q115 757 115.50 686.50Q116 616 116 501L116 501Q116 386 115.50 303Q115 220 112 172L112 172L163 198L163 246L295 246L295 186L354 218Q351 263 350.50 316.50Q350 370 350 433ZM163 610L163 729L295 729L295 610L163 610ZM163 456L163 581L295 581L295 456L163 456ZM196 159L176 159Q137 55 83 21L83 21Q33-11 61-25L61-25Q82-42 116-32L116-32Q148-9 161 18L161 18Q187 56 196 159L196 159ZM418 195L414 179Q453 149 476 123Q499 97 511 76L511 76Q538 32 553 40L553 40Q569 49 573 79L573 79Q578 111 547 134L547 134Q533 148 498 163Q463 178 418 195L418 195ZM769 176L759 163Q838 92 869 37L869 37Q890-8 911 5L911 5Q927 25 927 57L927 57Q920 88 895 104L895 104Q872 125 769 176L769 176ZM280-16L280-16Q280-85 379-80L379-80L669-80Q757-80 791-25L791-25Q761-12 749 8L749 8Q736 32 730 99L730 99L711 99Q711 71 708.50 48Q706 25 705 2L705 2Q688-39 627-35L627-35L396-35Q334-40 334 5L334 5L334 92L373 114L277 144Q279 106 279.50 66Q280 26 280-16Z"/></svg>