<svg id="U22D33" viewBox="0 0 1024 1024"><path transform="translate(0, 921.6) scale(1,-1)" d="M462 604L414 591L414 805L465 779L759 779L782 811L843 769L814 746L814 607L762 591L762 611L462 611L462 604ZM953 546L569 546Q557 534 544 525Q531 516 517 504L517 504L804 504L834 533L892 488L859 472Q854 440 850.50 414Q847 388 840 372L840 372Q833 338 811 310L811 310Q786 285 753 281L753 281Q748 316 662 343L662 343L669 355Q721 346 753 346L753 346Q774 341 788 375L788 375Q793 394 796 417.50Q799 441 804 475L804 475L759 475Q621 301 339 268L339 268L339 288Q583 340 695 475L695 475L620 475Q523 375 317 336L317 336L313 352Q485 413 553 475L553 475L475 475Q433 453 387 437.50Q341 422 284 410L284 410L284 430Q420 479 498 546L498 546L439 546Q412 546 389.50 545Q367 544 346 540L346 540L313 572L856 572L898 611L953 546ZM762 750L462 750L462 714L762 714L762 750ZM762 688L462 688L462 640L762 640L762 688ZM107 433L107 433L107 452Q135 447 155.50 446.50Q176 446 181 446L181 446Q205 446 216 475L216 475Q223 489 255 553.50Q287 618 336 727L336 727L355 714Q297 574 266 502Q235 430 233 423L233 423Q226 409 226 349L226 349L226 281Q226 265 210 255L210 255Q189 255 175 281L175 281Q156 309 162 326L162 326Q164 338 169.50 352Q175 366 178 381L178 381Q185 413 107 433ZM103 646L103 646L107 662Q192 638 210 611L210 611Q226 584 200 552L200 552Q179 523 162 565L162 565Q144 614 103 646ZM181 788L181 788L191 808Q277 768 291 746L291 746Q300 716 281 691L281 691Q262 655 242 708L242 708Q229 754 181 788ZM485 149L485 213Q415 209 162 204L162 204L162 216Q311 228 415 239Q519 250 585 262L585 262Q651 268 699.50 277Q748 286 782 294L782 294L824 226L788 236Q730 230 668.50 226.50Q607 223 540 216L540 216L540 149L788 149L834 187L892 123L540 123L540 68L869 68L908 107L963 42L540 42L540-10Q540-84 459-102L459-102Q454-54 342-35L342-35L342-23Q393-26 422.50-27Q452-28 462-28L462-28Q485-26 485 6L485 6L485 42L194 42Q167 42 141.50 40.50Q116 39 97 32L97 32L61 68L485 68L485 123L239 123Q212 123 189 121.50Q166 120 142 113L142 113L107 149L485 149Z"/></svg>