<svg id="U22B59" viewBox="0 0 1024 1024"><path transform="translate(0, 921.6) scale(1,-1)" d="M189 51L189 301Q157 276 133 255.50Q109 235 95 217L95 217L40 289Q67 294 104 311Q141 328 189 357L189 357L189 554L114 554L88 551L56 584L189 584Q189 656 188.50 716.50Q188 777 186 824L186 824L271 775L245 753L245 584L267 584L306 622L351 554L245 554L245 390L358 457L371 444L245 346L245 32Q250-60 173-90L173-90Q173-33 75-16L75-16L75-3Q146-8 170-3L170-3Q192 6 189 51L189 51ZM747-58L688-90Q688-60 690-31.50Q692-3 692 25L692 25L692 632Q692 674 690 704Q688 734 688 753L688 753L744 717L864 717L896 756L949 707L913 678L913 204Q913 120 848 97L848 97Q848 148 744 165L744 165L744 42L744-10Q744-34 747-58L747-58ZM744 691L744 188Q838 178 851 185L851 185Q864 191 864 214L864 214L864 691L744 691ZM351 577L468 577L468 703Q468 732 467.50 762Q467 792 465 824L465 824L549 782L516 749L516 577L569 577L608 622L660 551L516 551L516 385L584 385L631 428L685 354L468 354L549 311L516 301Q482 233 450.50 181Q419 129 390 87L390 87L584 110L521 233L533 247Q578 202 605.50 169.50Q633 137 646 116L646 116Q655 96 661 77Q667 58 660 42L660 42Q654 6 634-3L634-3Q614-7 611 16L611 16Q608 31 602 49Q596 67 592 87L592 87Q501 63 444.50 42.50Q388 22 364 6L364 6L319 84Q358 84 400 182L400 182Q424 228 439.50 270.50Q455 313 465 354L465 354L390 354L348 350L316 385L468 385L468 551L426 551L384 548L351 577Z"/></svg>