<svg id="U22777" viewBox="0 0 1024 1024"><path transform="translate(0, 921.6) scale(1,-1)" d="M454 146L454 256L773 256L773 146L454 146ZM454-5L454 117L773 117L773-5L454-5ZM435 432L435 432L435 594L615 594L557 668L512 626L435 626L435 735L470 764L380 800Q380 758 381.50 731.50Q383 705 383 693L383 693L383 474Q391 436 363 410L363 410L409 345Q441 398 602 474L602 474L599 491Q550 473 509 458.50Q468 444 435 432ZM634 683L634 683L634 449Q634 378 718 378L718 378L830 378Q900 378 927 429L927 429Q891 436 885 474L885 474Q878 489 877 515.50Q876 542 876 584L876 584L857 584Q857 548 855 521.50Q853 495 850 471L850 471Q845 427 808 427L808 427L740 427Q672 419 683 487L683 487L683 581Q736 598 802 645L802 645Q875 687 902 687L902 687L854 755Q819 713 778 674.50Q737 636 683 600L683 600L683 745L715 770L631 809Q631 761 632.50 730.50Q634 700 634 683ZM638 378L569 417Q562 387 554 355Q546 323 534 288L534 288L454 288L396 313Q399 287 400.50 262Q402 237 402 211L402 211L402 14Q402-11 401-39.50Q400-68 400-100L400-100L454-80L454-30L773-30L773-90L830-68Q827-41 827-19L827-19Q827 2 827 24L827 24L827 249L857 278L795 330L767 288L557 288Q569 304 581.50 323.50Q594 343 611 365L611 365L638 378ZM135 584L135 584L119 584Q101 460 62 417L62 417Q33 377 37 355L37 355Q41 341 77 345L77 345Q111 355 122 397L122 397Q141 443 135 584ZM181 603L181 603L181 117Q181 72 180.50 20.50Q180-31 177-103L177-103L236-65Q233-38 232.50-5.50Q232 27 232 72L232 72L232 725L261 761L177 809Q180 761 180.50 709Q181 657 181 603ZM251 613L251 613L238 606Q253 564 263.50 531Q274 498 277 474L277 474Q282 427 309 427L309 427Q333 427 338 462Q343 497 322 526L322 526Q312 543 293.50 563.50Q275 584 251 613Z"/></svg>