<svg id="U22560" viewBox="0 0 1024 1024"><path transform="translate(0, 921.6) scale(1,-1)" d="M239-72L239 409Q258 435 275.50 463Q293 491 312 521L312 521L348 533L280 591Q257 536 175 415L175 415Q137 351 97.50 300Q58 249 23 207L23 207L33 191Q108 249 184 342L184 342L184 44Q184 12 184-24L184-24Q184-60 182-99L182-99L239-72ZM309 751L239 809Q229 784 211 752Q193 720 162 674L162 674Q103 581 33 508L33 508L44 495Q136 551 274 738L274 738L309 751ZM370 460L370 460L370 34Q370 17 368.50-12Q367-41 367-89L367-89L425-62L425-31L841-31L841-82L894-69L894 518L921 540L859 581L837 543L655 543Q700 575 658 620L658 620Q745 660 798.50 681.50Q852 703 882 703L882 703L818 776L786 744L380 744L412 713Q431 715 448.50 717Q466 719 485 719L485 719L767 719L636 633Q611 642 583.50 653Q556 664 527 674L527 674L520 661Q613 592 613 543L613 543L428 543L367 572Q367 545 368.50 516.50Q370 488 370 460ZM425-5L425 518L841 518L841-5L425-5ZM498 495L488 482Q533 437 543 399L543 399Q559 360 575 380L575 380Q579 392 583.50 402.50Q588 413 588 425L588 425Q588 440 565 460L565 460Q557 467 540.50 475.50Q524 484 498 495L498 495ZM773 479L700 515Q689 478 675 436Q661 394 642 348L642 348L460 348L495 315Q515 319 532 320.50Q549 322 565 322L565 322L601 322L601 239L437 239L470 204Q488 206 505.50 208Q523 210 543 210L543 210L598 210Q577 93 431 9L431 9L440 0Q579 43 629 152L629 152Q679 126 703 92L703 92Q727 66 744 31L744 31Q757 5 776 19L776 19Q793 33 786 54L786 54Q786 82 744 111L744 111Q725 130 698.50 143.50Q672 157 639 172L639 172L645 210L837 210L786 271L754 239L648 239L648 322L811 322L761 383L728 348L661 348Q678 371 699 403Q720 435 741 473L741 473L773 479Z"/></svg>