<svg id="U22C86" viewBox="0 0 1024 1024"><path transform="translate(0, 921.6) scale(1,-1)" d="M181 278L181 278L181 37Q186-7 162-17L162-17Q131-20 70-8L70-8L70-27Q166-50 171-98L171-98Q234-73 230 21L230 21L230 310L333 391L327 402L230 349L230 538L347 538L301 612L265 563L230 563L230 751L268 774L181 813L181 563L44 563L74 524L100 538L181 538L181 329Q70 262 29 258L29 258L74 196Q86 209 112.50 228Q139 247 181 278ZM509 93L509 93L509 219Q534 197 549 171Q564 145 574 119L574 119Q590 66 607 99L607 99Q617 126 607 164L607 164Q596 179 573 199.50Q550 220 509 242L509 242L509 502L571 502L571 320Q571 300 554 300L554 300Q533 300 522 304L522 304L522 291Q562 270 568 235L568 235Q603 256 607 272L607 272Q613 290 613 314L613 314L613 492L636 518L604 563L571 532L509 532L509 638L665 638L622 703L584 664L509 664L509 755L542 781L463 816L463 664L311 664L350 628L369 638L463 638L463 532L402 532L356 557L356 232L402 258L402 502L463 502L463 349Q407 151 276-5L276-5L288-19Q351 42 394.50 105.50Q438 169 463 235L463 235L463 18Q463-14 461.50-42.50Q460-71 460-101L460-101L513-75Q510-38 509.50 2.50Q509 43 509 93ZM717 524L717 524L828 524Q821 483 816.50 439.50Q812 396 808 352L808 352Q798 271 775 203L775 203Q766 238 755.50 274Q745 310 736 352L736 352Q731 390 726.50 432.50Q722 475 717 524ZM811 765L743 810Q735 754 724 698.50Q713 643 701 592L701 592Q681 536 663 481.50Q645 427 625 375L625 375L636 362Q648 381 662.50 407Q677 433 694 476L694 476Q701 429 707 383.50Q713 338 723 297L723 297Q727 253 736 216.50Q745 180 752 151L752 151Q720 85 669.50 28.50Q619-28 548-84L548-84L551-104Q638-52 687-5L687-5Q714 19 735 43.50Q756 68 772 93L772 93Q823-10 896-81L896-81Q905-45 964-49L964-49L964-39Q903-13 866 34L866 34Q841 61 825 86Q809 111 805 142L805 142Q816 180 825 225.50Q834 271 846 323L846 323Q859 379 865 429Q871 479 876 535L876 535L953 535L908 600L866 553L729 553Q759 645 788 755L788 755L811 765Z"/></svg>