<svg id="U229BF" viewBox="0 0 1024 1024"><path transform="translate(0, 921.6) scale(1,-1)" d="M218-1L218-1L272-55Q285-28 326 8Q367 44 433 95L433 95L423 107L290 28L290 369L521 369L464 444L413 395L177 395L177 696L533 696L473 766L426 722L193 722L117 763Q119 675 119.50 579.50Q120 484 120 375L120 375Q120 76 31-67L31-67L44-80Q106-4 140 105.50Q174 215 177 369L177 369L234 369L234 54Q234 12 218-1ZM385 561L215 561L240 523Q282 532 351 532L351 532L483 532L429 605L385 561ZM529 274L565 287L511 331Q494 302 469 274.50Q444 247 416 221L416 221L429 211L529 274ZM328 290L318 277Q449 137 477 66L477 66Q502-4 524 35L524 35Q544 70 536 102L536 102Q531 133 473 183L473 183Q443 209 406.50 235Q370 261 328 290L328 290ZM521 457L618 470Q625 257 672 120L672 120Q602 18 448-61L448-61L451-73Q614-19 700 73L700 73Q739 18 778.50-15.50Q818-49 860-70L860-70Q941-102 930-70L930-70Q911-29 911 35L911 35Q901 104 911 189L911 189L892 189L858 7Q782 48 741 123L741 123Q762 163 790 227Q818 291 851 385L851 385L879 403L798 451Q785 382 763 314Q741 246 709 177L709 177Q692 230 681 304.50Q670 379 665 476L665 476L920 501L860 564L817 520L665 504Q660 564 659.50 623Q659 682 659 743L659 743L691 775L603 813Q603 779 605 700Q607 621 611 495L611 495L464 482L501 438L521 457ZM716 743L716 743L706 725Q736 683 757 656Q778 629 788 605L788 605Q807 558 826 580L826 580Q845 593 845 627L845 627Q845 655 819 678L819 678Q803 687 777 704.50Q751 722 716 743Z"/></svg>