<svg id="U2227A" viewBox="0 0 1024 1024"><path transform="translate(0, 921.6) scale(1,-1)" d="M350-33L350 57L688 57L688-33L350-33ZM359 306L298 345L298-33L127-33L163-69Q179-66 197.50-64Q216-62 238-62L238-62L937-62L873 16L815-33L742-33L742 266L776 293L724 345L688 306L359 306ZM350 195L350 277L688 277L688 195L350 195ZM350 87L350 169L688 169L688 87L350 87ZM851 533L851 533L884 555L821 600L792 561L632 561L632 657L913 657L848 738L796 683L199 683L143 723Q145 657 145.50 586Q146 515 146 440L146 440Q146 290 118 172L118 172Q87 46 8-73L8-73L20-85Q135 32 167 149L167 149Q180 208 190 267.50Q200 327 203 391L203 391L796 391L796 366L861 391Q853 421 852 455.50Q851 490 851 533ZM422 561L422 657L578 657L578 561L422 561ZM422 418L422 536L578 536L578 418L422 418ZM632 418L632 536L796 536L796 418L632 418ZM444 834L444 834L432 817Q482 767 498 723L498 723Q512 670 540 703L540 703Q568 731 547 765L547 765Q521 804 444 834ZM203 418L203 536L366 536L366 418L203 418ZM203 561L203 657L366 657L366 561L203 561Z"/></svg>