<svg id="U22545" viewBox="0 0 1024 1024"><path transform="translate(0, 921.6) scale(1,-1)" d="M601 651L601 651L633 678L553 716L553 488L488 488L488 744L515 773L435 812Q435 758 436.50 679Q438 600 438 488L438 488L380 488L380 643L409 671L329 713Q331 665 331.50 616Q332 567 332 515L332 515L304 495L355 440L380 463L553 463L553 428L608 457Q602 489 601.50 538Q601 587 601 651ZM236 741L236 741L272 751L194 812Q177 761 156.50 719.50Q136 678 114 643L114 643Q93 608 73 577.50Q53 547 36 523L36 523L46 515Q87 552 134 608.50Q181 665 236 741ZM281 556L281 556L317 565L242 626Q184 475 127 387L127 387Q101 342 76 302.50Q51 263 27 229L27 229L43 217Q71 243 103.50 282.50Q136 322 172 370L172 370L172 63Q172 31 171-10Q170-51 166-102L166-102L224-69L224 457Q237 485 252 508Q267 531 281 556ZM729 681L729 681L911 681L854 754L809 706L655 706L684 674Q704 681 729 681ZM816 21L816 463L937 463L876 540L834 488L626 488L658 457Q677 459 694.50 461Q712 463 733 463L733 463L764 463L764 31Q754 7 748-2L748-2Q734-7 613-2L613-2L613-19Q734-37 738-92L738-92Q808-62 816 21L816 21ZM591 169L626 191L566 245L546 204L432 204Q438 237 442.50 261Q447 285 447 303L447 303L665 303L601 370L569 329L470 329Q527 387 402 447L402 447L393 443Q433 381 438 329L438 329L255 329L290 297Q307 299 324 301Q341 303 361 303L361 303L393 303Q376 76 242-66L242-66L252-85Q388 17 428 179L428 179L537 179Q531 122 528 84.50Q525 47 518 28L518 28Q508-11 409 15L409 15L409-2Q486-17 492-66L492-66Q528-50 556-19L556-19Q570 6 591 169L591 169Z"/></svg>