<svg id="U223AF" viewBox="0 0 1024 1024"><path transform="translate(0, 921.6) scale(1,-1)" d="M436 683L436 683L91 683L129 645Q145 651 166.50 652.50Q188 654 212 659L212 659L436 659L436 570L149 570L187 531Q214 543 285 543L285 543L436 543L436 431L228 431L170 460Q170 433 168 406.50Q166 380 164 354L164 354Q160 300 132 291L132 291L187 248L209 274L449 274Q489 132 600 36L600 36Q723-58 950-95L950-95Q930-53 920.50-2Q911 49 911 108L911 108L892 108L879-22Q723 6 632 88L632 88Q534 162 504 274L504 274L805 274Q801 153 780 140L780 140Q750 132 684 146L684 146L684 125Q762 113 767 69L767 69Q805 76 834 111L834 111Q855 141 859 268L859 268L894 293L831 341L802 303L497 303L488 406L722 406L722 376L780 402Q776 420 776 454L776 454Q776 489 776 540L776 540L805 559L754 607L719 570L488 570L488 659L897 659L831 725L792 683L488 683L488 760L523 784L431 808Q431 777 433.50 745.50Q436 714 436 683ZM488 431L488 543L722 543L722 431L488 431ZM220 303L232 406L436 406L443 303L220 303ZM703 188L750 188L684 258Q652 225 605 188.50Q558 152 493 114L493 114Q433 79 372.50 55.50Q312 32 258 18L258 18Q198 7 152.50 1.50Q107-4 76-7L76-7L76-25Q171-25 279-7L279-7Q330 1 378.50 14.50Q427 28 469 50L469 50Q514 67 571.50 101.50Q629 136 703 188L703 188Z"/></svg>