<svg id="U220E1" viewBox="0 0 1024 1024"><path transform="translate(0, 921.6) scale(1,-1)" d="M855 717L855 717L888 747L826 796L806 756L512 756L459 792Q459 753 461 709.50Q463 666 463 609L463 609Q463 549 461 499Q459 449 459 403L459 403L512 429L512 452L803 452L803 426L862 449Q856 476 855.50 542Q855 608 855 717ZM584 393L613 410L544 456Q527 421 508.50 388.50Q490 356 466 325L466 325Q445 294 415 263.50Q385 233 345 204L345 204L355 187Q430 220 518 308L518 308L590 308Q518 155 329 53L329 53L335 44Q556 107 649 308L649 308L731 308Q636 24 365-79L365-79L368-98Q521-56 626 40L626 40Q727 141 793 308L793 308L862 308Q847 178 834.50 107Q822 36 813 14L813 14Q799-18 767-20L767-20Q749-20 722.50-18.50Q696-17 662-9L662-9L659-26Q754-56 754-98L754-98Q855-69 875 21L875 21Q884 67 894 134Q904 201 914 295L914 295L947 325L888 374L855 335L531 335Q538 341 552 356Q566 371 584 393L584 393ZM518 619L518 730L803 730L803 619L518 619ZM518 478L518 593L803 593L803 478L518 478ZM175 612L175 612L116 612L57 639Q59 588 59.50 528.50Q60 469 60 397L60 397Q60 325 59.50 256.50Q59 188 57 125L57 125L116 151L116 586L175 586L175 66Q175 24 174-16Q173-56 168-105L168-105L234-72Q224-16 224 44L224 44L224 586L289 586L289 236Q298 197 276 191L276 191Q250 191 234 194L234 194L234 181Q281 166 286 122L286 122Q346 140 342 227L342 227L342 577L371 606L316 655L286 612L224 612L224 750L260 779L168 818Q173 770 174 719.50Q175 669 175 612Z"/></svg>