<svg id="U220C0" viewBox="0 0 1024 1024"><path transform="translate(0, 921.6) scale(1,-1)" d="M415 673L381 710L818 710L871 755L923 683L661 683L661 10L853 10L908 57L973-16L435-16Q400-16 361-27L361-27L324 10L608 10L608 683L491 683Q473 683 454 680.50Q435 678 415 673L415 673ZM464 605L464 605L551 563L524 546Q510 505 501.50 467.50Q493 430 488 392L488 392Q514 366 533 343.50Q552 321 564 303L564 303Q592 262 588 233L588 233Q588 207 564 180L564 180Q538 152 538 189L538 189Q535 206 532 224.50Q529 243 524 264L524 264Q516 285 506 312.50Q496 340 485 373L485 373Q449 216 345 107L345 107L331 119Q382 197 407 290L407 290Q420 327 428 365.50Q436 404 444 439Q452 474 457 515.50Q462 557 464 605ZM784 605L784 605L878 563L840 539Q833 501 823.50 464.50Q814 428 804 386L804 386Q831 360 854 336.50Q877 313 894 296L894 296Q920 259 920 227L920 227Q916 199 894 174L894 174Q868 152 857 220L857 220Q851 255 836.50 291Q822 327 798 362L798 362Q762 231 671 126L671 126L661 137Q685 182 709.50 240Q734 298 751 366L751 366Q784 511 784 605ZM118 623L178 623Q178 679 177.50 731Q177 783 175 832L175 832L261 793L228 762L228 623L288 623L317 666L378 613L345 586L345 230Q349 144 288 119L288 119Q280 171 238 180L238 180L238 196Q254 193 278 193L278 193Q300 199 291 239L291 239L291 595L228 595L228 43Q228 13 231.50-14.50Q235-42 238-74L238-74L175-107Q177-57 177.50-17Q178 23 178 67L178 67L178 595L118 595L118 152L59 126Q61 191 61.50 259Q62 327 62 403L62 403Q62 476 61.50 537Q61 598 59 649L59 649L118 623Z"/></svg>