<svg id="U22363" viewBox="0 0 1024 1024"><path transform="translate(0, 921.6) scale(1,-1)" d="M915 554L498 554L241 554Q221 554 200.50 552.50Q180 551 162 549L162 549L127 580L491 580L491 625L346 625Q326 625 308.50 622Q291 619 273 616L273 616L237 650L491 650L491 696L283 696Q262 696 244.50 694Q227 692 205 690L205 690L173 725L491 725L491 811L575 783L543 753L543 725L777 725L829 766L889 696L543 696L543 650L709 650L752 685L823 625L543 625L543 580L797 580L842 616L915 554ZM479 580L543 526L498 529Q453 511 408 497.50Q363 484 319 477L319 477L572 487Q629 510 657.50 528Q686 546 694 551L694 551L767 477L709 494Q548 441 457 415.50Q366 390 343 390L343 390L752 401L681 461L694 474Q727 456 756 441Q785 426 812 411L812 411Q863 376 835 335L835 335Q803 296 794 328L794 328Q785 346 777 359Q769 372 761 380L761 380L565 371L565 237Q565 168 475 150L475 150Q475 192 381 210L381 210L381 220L479 220Q510 220 510 243L510 243L510 363Q465 359 425 356.50Q385 354 346 352L346 352Q285 339 237 339L237 339L203 390Q203 384 253 393L253 393Q278 397 302.50 403Q327 409 354 413L354 413Q377 418 421 431Q465 444 531 467L531 467Q495 459 457 456.50Q419 454 375 452L375 452Q292 443 277 436L277 436L237 487Q285 487 354 513L354 513Q427 541 479 580L479 580ZM424 288L354 342Q340 325 314 305Q288 285 253 262L253 262Q215 243 179.50 223.50Q144 204 106 189L106 189L110 171Q145 176 214 203.50Q283 231 386 282L386 282L424 288ZM638 342L638 342L629 330Q708 288 756 256.50Q804 225 819 202L819 202Q855 150 877 192L877 192Q904 230 861 259L861 259Q819 294 638 342ZM694 18L694 95L974 95L906 162L851 120L694 120L694 162L723 189L635 217L635 120L381 120L381 160L411 182L324 210L324 120L75 120L106 88Q127 90 145 92.50Q163 95 183 95L183 95L321 95Q316 51 256 4L256 4Q225-19 182-42Q139-65 85-81L85-81L88-95Q166-81 219.50-59Q273-37 305-12L305-12Q335 13 355 39.50Q375 66 378 95L378 95L635 95L635-7Q635-18 633.50-38.50Q632-59 632-93L632-93L697-66Q694-48 694-26L694-26Q694-5 694 18L694 18Z"/></svg>