<svg id="U22DF4" viewBox="0 0 1024 1024"><path transform="translate(0, 921.6) scale(1,-1)" d="M48 579L186 579Q186 645 185.50 702Q185 759 183 808L183 808L267 775L241 743L241 579L267 579L306 624L354 550L241 550L241 377L341 425L347 409L241 328L241 13Q245-66 158-96L158-96Q167-58 77-29L77-29L77-10Q101-12 120-12.50Q139-13 154-13L154-13Q186-13 186 29L186 29L186 293Q83 226 87 222L87 222L39 287Q58 291 94.50 306.50Q131 322 186 348L186 348L186 550L109 550L77 541L48 579ZM328-29L363-9Q363 328 362.50 521.50Q362 715 360 769L360 769L408 734L810 734L865 782L920 705L408 705L408-26L839-26L884 20L945-51L405-51L380-84L328-29ZM543 505L499 486Q499 503 500.50 524Q502 545 502 569L502 569Q502 596 498.50 619Q495 642 495 660L495 660L543 627L630 627Q630 648 628.50 667.50Q627 687 627 705L627 705L701 666L678 647L678 627L781 627L804 663L859 615L830 595Q830 525 836 509L836 509L781 486L781 518L678 518L678 464L849 464L888 502L939 438L531 438Q478 443 450 431L450 431L421 464L630 464L630 518L543 518L543 505ZM630 602L543 602L543 544L630 544L630 602ZM781 602L678 602L678 544L781 544L781 602ZM852 370L826 357Q826 266 826.50 209.50Q827 153 830 129L830 129L781 110L781 139L550 139L550 123L502 106Q504 121 504.50 161Q505 201 505 264L505 264Q505 327 504.50 366.50Q504 406 502 418L502 418L550 393L781 393L807 425L852 370ZM781 367L550 367L550 312L781 312L781 367ZM781 287L550 287L550 242L781 242L781 287ZM781 213L550 213L550 164L781 164L781 213ZM662 81L601 139Q580 96 466 0L466 0L479-13Q515 3 553 27Q591 51 627 81L627 81L662 81ZM707 110L717 126Q759 107 786 92.50Q813 78 826 68L826 68Q854 40 836 3L836 3Q808-39 798 3L798 3Q781 45 707 110L707 110Z"/></svg>