<svg id="U22B03" viewBox="0 0 1024 1024"><path transform="translate(0, 921.6) scale(1,-1)" d="M420 50L368 114Q388 140 388 179L388 179L388 630Q388 645 387.50 664.50Q387 684 384 714L384 714L436 682Q556 760 588 811L588 811L652 730L604 727Q544 697 505 679Q466 661 442 656L442 656L442 440L539 440L588 495L639 414L442 414L442 153L626 234L636 214Q539 156 486.50 113.50Q434 71 420 50L420 50ZM884 721L942 672L907 647L907 185Q916 92 839 60L839 60Q828 89 807 102L807 102Q788 115 736 124L736 124L736 50Q731-21 742-68L742-68L678-98Q678-53 679.50-8.50Q681 36 681 82L681 82L681 543Q675 625 675 711L675 711L726 682L855 682L884 721ZM855 192L855 656L736 656L736 153Q818 138 839 150L839 150Q855 163 855 192L855 192ZM59 588L194 588Q194 657 193 713Q192 769 188 817L188 817L278 769L246 737L246 588L281 588L326 630L378 559L246 559L246 363L349 414L359 398L246 321L246 14Q250-62 165-101L165-101Q160-46 75-18L75-18L75-5Q100-8 124-8L124-8L162-8Q198-8 194 40L194 40L194 282Q107 216 101 198L101 198L49 276Q80 288 116 303Q152 318 194 340L194 340L194 559L123 559L88 556L59 588Z"/></svg>