<svg id="U22CDC" viewBox="0 0 1024 1024"><path transform="translate(0, 921.6) scale(1,-1)" d="M482 797L562 743L524 733Q484 669 442 618Q400 567 355 526L355 526L339 539Q362 569 385.50 601.50Q409 634 431 672L431 672Q447 703 460.50 734.50Q474 766 482 797L482 797ZM412 70L412 367Q391 341 363.50 313.50Q336 286 298 258L298 258L288 267Q321 303 346 341.50Q371 380 396 421L396 421Q422 463 442 501.50Q462 540 475 576L475 576L543 519L512 513Q493 486 475 462.50Q457 439 440 418L440 418L478 398L457 383L457 70Q457-17 463-72L463-72L406-101Q406-52 409-12Q412 28 412 70L412 70ZM42 580L196 580Q196 649 195 706.50Q194 764 189 813L189 813L275 780L244 756L244 580L275 580L313 630L364 554L244 554L244 359L339 421L352 401L244 318L244 15Q249-66 163-95L163-95Q168-51 68-26L68-26L68-10Q95-13 119-13L119-13L159-13Q196-13 196 30L196 30L196 283Q143 246 120.50 225.50Q98 205 96 201L96 201L36 258Q82 269 196 337L196 337L196 554L109 554L77 541L42 580ZM945 389L765 389L715 389L638 389Q617 389 596 387Q575 385 559 383L559 383L521 418L600 418L600 580Q600 620 598.50 651.50Q597 683 597 708L597 708L677 676L651 650L651 418L715 418L715 679Q715 717 713 749.50Q711 782 711 810L711 810L788 771L765 749L765 621L814 621L852 656L909 596L765 596L765 418L843 418L878 455L945 389ZM794 364L715 389L715 47Q693 66 670.50 96Q648 126 632 169L632 169L635 252L661 283L581 315Q581 278 580.50 246.50Q580 215 578 181L578 181Q575 144 570 111.50Q565 79 553 44L553 44Q540 12 520.50-21Q501-54 472-86L472-86L478-95Q507-76 529.50-54.50Q552-33 569-7Q586 19 600 50.50Q614 82 626 121L626 121Q675 12 743-18L743-18Q797-48 878-72L878-72Q894-36 948-29L948-29L948-13Q832-13 765 24L765 24L765 220L916 220L862 280L824 244L765 244L765 337L794 364Z"/></svg>