<svg id="U22751" viewBox="0 0 1024 1024"><path transform="translate(0, 921.6) scale(1,-1)" d="M954 638L885 722L825 666L629 666Q647 684 665 703.50Q683 723 706 747L706 747L744 757L670 812Q658 777 640 739.50Q622 702 602 666L602 666L416 666Q464 735 299 795L299 795L290 782Q315 759 331.50 740Q348 721 358 705L358 705Q365 688 373 678.50Q381 669 383 666L383 666L50 666L84 631Q103 634 121 636Q139 638 162 638L162 638L954 638ZM299 589L284 589Q235 514 180 486L180 486Q131 461 148 444L148 444Q173 425 210 435L210 435Q259 451 271 486L271 486Q294 520 299 589L299 589ZM808 544L847 551L780 603Q728 533 609 464L609 464Q580 480 556 503.50Q532 527 515 563L515 563Q515 579 557 608L557 608L467 638Q426 383 67 325L67 325L68 310Q410 343 503 544L503 544Q593 348 847 300L847 300Q847 328 944 338L944 338L944 364Q850 358 773 380.50Q696 403 629 451L629 451Q714 483 808 544L808 544ZM503 328L518 364L550 374L477 419Q421 213 60 171L60 171L60 154Q359 178 496 310L496 310Q779 185 825 139L825 139Q862 104 876 136L876 136Q886 174 844 209L844 209Q803 246 503 328L503 328ZM190 132L171 132Q164 87 144 58Q124 29 100 13L100 13Q53-18 75-37L75-37Q101-51 130-40L130-40Q164-20 171 7L171 7Q190 38 190 132L190 132ZM425 219L422 209Q465 167 492.50 138Q520 109 528 90L528 90Q552 47 567 62L567 62Q583 77 583 106L583 106Q589 137 550 161L550 161Q533 173 501.50 187.50Q470 202 425 219L425 219ZM773 129L763 116Q801 79 826.50 48Q852 17 867-8L867-8Q892-63 908-43L908-43Q924-21 924 7L924 7Q924 33 889 62L889 62Q872 76 843.50 93.50Q815 111 773 129L773 129ZM281-18L281-18Q281-90 371-85L371-85L629-85Q710-85 744-27L744-27Q729-20 720.50-10Q712 0 702 13L702 13Q697 24 691.50 42.50Q686 61 686 81L686 81L670 81Q670 66 668 46.50Q666 27 664 7L664 7Q652-41 583-37L583-37L386-37Q327-42 332 10L332 10L332 74L368 106L277 139Q280 106 280.50 66.50Q281 27 281-18Z"/></svg>