<svg id="U22D05" viewBox="0 0 1024 1024"><path transform="translate(0, 921.6) scale(1,-1)" d="M47 583L197 583Q197 650 196.50 707.50Q196 765 194 810L194 810L284 782L252 753L252 583L303 583L335 628L392 555L252 555L252 392L347 462L360 443L252 350L252 18Q256-67 172-96L172-96Q176-51 76-23L76-23L73-8Q101-11 124-11L124-11L165-11Q197-11 197 34L197 34L197 299Q92 215 98 210L98 210L38 270Q66 282 106 304.50Q146 327 197 366L197 366L197 555L114 555L79 551L47 583ZM370 670L335 708L619 708Q612 728 597.50 752Q583 776 561 804L561 804L568 817Q648 787 664 762L664 762Q687 738 641 708L641 708L820 708L859 759L916 682L443 682Q395 682 370 670L370 670ZM827 612L801 593L801 534Q801 509 804 500L804 500L756 475L756 504L510 504L510 488L459 462Q462 481 462.50 507Q463 533 463 564L463 564Q463 593 462.50 617Q462 641 459 660L459 660L517 631L753 631L785 666L827 612ZM756 606L510 606L510 529L756 529L756 606ZM843 338L833 350L865 414L408 414Q402 360 383 338L383 338Q364 307 341 318L341 318Q316 328 316 344L316 344Q316 363 344 382L344 382Q374 402 389 500L389 500L405 500L408 443L865 443L894 481L945 424Q888 401 843 338L843 338ZM561 111L561 187L431 178L405 168L370 200L561 213L561 293Q516 287 473 282Q430 277 392 277L392 277L389 296Q446 305 500.50 316.50Q555 328 609 338L609 338Q663 349 702 360.50Q741 372 766 385L766 385L817 318L779 328Q737 320 696.50 313Q656 306 616 299L616 299L616 219L769 232L808 270L862 210L616 194L616 114L814 127L852 155L907 101L616 88L616 28Q605-28 670-23L670-23L820-23Q848-27 859-4L859-4Q863 10 867.50 27.50Q872 45 875 69L875 69L894 69Q894 18 897 2L897 2Q901-17 932-26L932-26Q909-67 836-67L836-67L638-67Q556-67 561 8L561 8L561 82L383 72L370 59L328 95L561 111Z"/></svg>