<svg id="U229F1" viewBox="0 0 1024 1024"><path transform="translate(0, 921.6) scale(1,-1)" d="M286 643L286 643Q247 620 194 598Q141 576 78 553L78 553L87 536Q245 571 324 625L324 625Q361 603 386.50 587Q412 571 424 555L424 555Q458 524 462 558L462 558Q470 594 440 615L440 615Q423 624 406 632Q389 640 371 650L371 650Q387 664 408 681Q429 698 453 719L453 719L494 731L437 785L403 751L128 751L166 713Q182 719 203 720.50Q224 722 247 725L247 725L393 725Q349 678 321 666L321 666Q291 670 252.50 676.50Q214 683 166 691L166 691L162 681Q193 672 223.50 662Q254 652 286 643ZM103 458L103 458L100 448Q116 436 135 420Q154 404 175 388L175 388Q130 334 45 278L45 278L48 265Q146 310 204 363L204 363Q228 338 242 313L242 313Q250 285 267 313L267 313Q287 333 277 353L277 353Q269 360 258 370Q247 380 229 391L229 391Q259 435 295 479L295 479L324 496L267 540L242 511L69 511L106 473Q122 477 143 481.50Q164 486 188 486L188 486L242 486Q232 467 219 449.50Q206 432 195 417L195 417Q176 426 153 436.50Q130 447 103 458ZM339 158L339 158Q442 87 471 32L471 32Q486 9 494 6Q502 3 512 26L512 26Q522 69 491 101L491 101Q469 116 432.50 135Q396 154 339 178L339 178L339 196L550 196L481 262L443 221L339 221L339 247L365 265L286 294Q290 277 291 257.50Q292 238 292 221L292 221L62 221L100 183Q116 188 136 192Q156 196 182 196L182 196L254 196Q170 53 45-35L45-35L54-51Q201 31 292 158L292 158Q292 85 291 22Q290-41 286-95L286-95L342-64Q339-28 339 24L339 24Q339 77 339 158ZM516 486L516 486L540 499L496 546L468 517L317 517L355 479L396 492L468 492Q449 452 412 417L412 417Q385 426 359.50 433.50Q334 441 311 451L311 451L305 438Q319 431 341.50 417.50Q364 404 393 388L393 388Q371 365 340 344.50Q309 324 264 301L264 301L267 288Q319 306 358.50 324Q398 342 424 363L424 363Q445 348 460 334Q475 320 488 306L488 306Q510 278 519 303L519 303Q528 332 516 350L516 350Q505 365 453 394L453 394Q469 415 485 439Q501 463 516 486ZM560 442L622 451Q632 239 682 108L682 108Q645 60 591.50 16Q538-28 468-70L468-70L471-88Q613-30 711 64L711 64Q750 10 791-21.50Q832-53 874-72L874-72Q945-112 938-75L938-75Q918-41 918 23L918 23Q918 58 918.50 96.50Q919 135 925 178L925 178L907 178L869-8Q802 23 743 108L743 108Q763 148 792 212.50Q821 277 856 373L856 373L884 388L809 435Q784 303 720 162L720 162Q701 210 690 282.50Q679 355 673 458L673 458L928 486L866 549L825 505L670 486Q667 549 666.50 609.50Q666 670 666 728L666 728L702 763L607 801Q607 762 609 682Q611 602 617 476L617 476L506 467L537 432L560 442ZM727 748L727 748L723 731Q756 698 776 667.50Q796 637 809 612L809 612Q832 557 843 587L843 587Q847 598 853 608.50Q859 619 862 634L862 634Q862 667 830 687L830 687Q814 699 786.50 713.50Q759 728 727 748Z"/></svg>