<svg id="U22C01" viewBox="0 0 1024 1024"><path transform="translate(0, 921.6) scale(1,-1)" d="M191 30L191 269Q149 237 124.50 213.50Q100 190 91 178L91 178L36 249Q57 256 95.50 274Q134 292 191 327L191 327L191 536L104 536L75 523L46 562L191 562Q191 631 190.50 692Q190 753 187 807L187 807L281 765L245 742L245 562L284 562L326 607L374 536L245 536L245 352L355 420L368 401L245 307L245 14Q250-81 181-111L181-111Q170-63 71-33L71-33L71-15Q147-28 171-24L171-24Q195-15 191 30L191 30ZM603 562L465 562L465 452L603 452L603 562ZM809 562L658 562L658 452L809 452L809 562ZM603 426L465 426L465 323L603 323L603 426ZM809 426L658 426L658 323L809 323L809 426ZM352 691L603 691Q603 724 601.50 753Q600 782 600 807L600 807L687 778L658 758L658 691L822 691L864 742L925 665L658 665L658 587L799 587L838 623L896 565L861 542L861 360Q861 296 864 281L864 281L809 262L809 297L658 297L658 191L603 191L603 297L465 297L465 281L407 262Q407 313 408.50 358.50Q410 404 410 446L410 446Q410 488 408.50 528Q407 568 407 616L407 616L471 587L603 587L603 665L500 665Q446 665 394 649L394 649L352 691ZM355-12L394-12Q528 103 590 201L590 201L661 140L625 140Q579 95 533 55Q487 15 442-18L442-18L777 4Q753 23 726 44Q699 65 671 85L671 85L683 101Q746 69 791.50 42.50Q837 16 861-5L861-5Q906-45 887-85L887-85Q861-123 845-88L845-88Q824-51 796-24L796-24Q708-30 640.50-39Q573-48 522-56L522-56Q468-63 434-67.50Q400-72 384-75L384-75L355-12ZM352 162L307 204L841 204L890 252L948 178L471 178Q437 178 407.50 172.50Q378 167 352 162L352 162Z"/></svg>