<svg id="U22126" viewBox="0 0 1024 1024"><path transform="translate(0, 921.6) scale(1,-1)" d="M613 218L613 218L603 209Q629 168 645 127L645 127Q657 102 664 76L664 76Q664 47 674 47L674 47Q684 43 703 66L703 66Q717 89 707 122L707 122Q696 139 673.50 162.50Q651 186 613 218ZM726 238L726 238L713 225Q727 202 738 184Q749 166 755 157L755 157Q764 145 768.50 131Q773 117 781 102L781 102Q785 69 801 69L801 69Q816 69 827 98L827 98Q836 128 813 160L813 160Q793 190 726 238ZM441 613L441 613L441 361Q441 332 440 296.50Q439 261 434 215L434 215L493 235L493 266L865 266Q863 220 859 182Q855 144 852 115L852 115Q850 83 845 59.50Q840 36 833 21L833 21Q822-10 784-10L784-10Q761-7 730-4Q699-1 655 5L655 5L655-13Q772-37 781-90L781-90Q809-79 827.50-67Q846-55 856-42L856-42Q885-9 894 34L894 34Q901 55 906.50 111Q912 167 920 261L920 261L949 290L888 335L868 296L493 296L493 367L952 367L894 439L849 397L493 397L493 468L781 468L781 439L839 462Q834 491 833.50 541Q833 591 833 662L833 662L862 681L804 727L781 695L571 695L616 769L652 782L568 820Q565 800 557.50 769.50Q550 739 542 695L542 695L487 695L434 717Q439 688 440 661Q441 634 441 613ZM781 666L781 587L493 587L493 666L781 666ZM781 561L781 497L493 497L493 561L781 561ZM509 199L509 199L496 189Q520 146 525 115L525 115Q527 100 529.50 82Q532 64 535 47L535 47Q535 17 554 17L554 17Q570 24 583 43L583 43Q596 68 583 102L583 102Q569 138 509 199ZM444 196L444 196L429 196Q418 159 412.50 138Q407 117 402 102L402 102Q396 85 387.50 72.50Q379 60 370 50L370 50Q348 26 370 7L370 7Q397-2 415 14L415 14Q441 28 448 69L448 69Q453 118 444 196ZM185 727L185 613L130 613L69 642Q71 593 71.50 533Q72 473 72 403L72 403Q72 330 71.50 263.50Q71 197 69 134L69 134L127 160L127 584L185 584L185 76Q185 20 184.50-21Q184-62 182-94L182-94L240-68Q235-33 234.50 8Q234 49 234 98L234 98L234 584L302 584L302 244Q306 205 285 199L285 199Q276 199 267 199L267 199Q258 199 244 202L244 202L244 186Q290 177 295 127L295 127Q356 149 350 235L350 235L350 581L376 607L321 655L295 613L234 613L234 756L270 785L182 820Q184 796 184.50 772Q185 748 185 727L185 727Z"/></svg>