<svg id="U229AD" viewBox="0 0 1024 1024"><path transform="translate(0, 921.6) scale(1,-1)" d="M796 710L796 710Q781 735 689 782L689 782L680 770Q728 712 749 660L749 660Q764 609 793 647L793 647Q821 680 796 710ZM578 597L578 597L35 597L69 563Q103 571 144 571L144 571L578 571Q590 447 610.50 344Q631 241 667 156L667 156Q536 4 349-75L349-75L359-88Q465-53 549.50-5.50Q634 42 695 108L695 108Q807-55 919-88L919-88Q888 16 906 152L906 152L891 156L853 14Q792 45 733 156L733 156Q771 213 799.50 280.50Q828 348 850 424L850 424L875 439L796 483Q778 405 757 338Q736 271 708 222L708 222Q655 336 635 571L635 571L928 571L865 647L809 597L635 597Q629 661 629 751L629 751L657 776L563 814Q563 757 568 704Q573 651 578 597ZM71 477L103 442Q121 449 136.50 450.50Q152 452 166 452L166 452L176 452L128 175Q106 107 84 96L84 96L138 30Q150 42 200.50 65.50Q251 89 339 131L339 131L330 149L169 105L213 345L377 345Q372 270 371 216Q370 162 367 124L367 124Q362 50 428 46L428 46Q502 46 522 52L522 52Q547 57 569 90L569 90Q529 106 534 244L534 244L516 244Q516 215 513.50 188.50Q511 162 506 137L506 137Q501 93 459 93L459 93Q418 98 418 146L418 146Q420 172 420.50 219Q421 266 424 335L424 335L465 357L408 404L380 370L220 370L233 452L519 452L462 524L415 477L71 477ZM238 307L233 291Q276 251 292 203L292 203Q311 150 326 188L326 188Q345 219 326 247L326 247Q316 270 238 307L238 307Z"/></svg>