<svg id="U2268C" viewBox="0 0 1024 1024"><path transform="translate(0, 921.6) scale(1,-1)" d="M282 244L282 244L292 228Q349 262 397.50 300.50Q446 339 484 387L484 387L523 403L457 455Q397 334 282 244ZM578 172L578 172Q522 213 457 322L457 322L444 312Q459 270 485 227.50Q511 185 545 137L545 137Q482 68 406.50 14.50Q331-39 240-76L240-76L246-92Q349-60 433-14Q517 32 581 104L581 104Q653 26 713-18.50Q773-63 824-86L824-86Q850-30 939-30L939-30L939-15Q756-5 613 137L613 137Q643 166 668.50 201.50Q694 237 721 276L721 276L757 293L679 345Q645 254 578 172ZM675 448L675 448L665 433Q787 324 815 276L815 276Q843 224 861 264L861 264Q881 305 858 335L858 335Q845 354 799 380Q753 406 675 448ZM792 634L792 731L824 757L760 810L734 773L357 773L396 734Q412 736 437 741.50Q462 747 496 747L496 747L737 747L737 634L295 634L334 595Q362 607 418 607L418 607L737 607L737 504L366 504L405 465Q441 475 493 475L493 475L737 475L737 445L792 468L792 607L945 607L877 676L838 634L792 634ZM126 588L126 588L113 588Q100 478 55 429L55 429Q11 382 21 360L21 360Q27 331 58 341L58 341Q89 347 110 394L110 394Q119 417 125 466Q131 515 126 588ZM178 611L178 611L178 120Q178 75 177.50 21Q177-33 175-105L175-105L236-66Q234-39 234-6L234-6Q234 26 234 71L234 71L234 734L266 767L175 815Q177 769 177.50 718.50Q178 668 178 611ZM253 624L253 624L240 614Q276 532 282 480L282 480Q286 429 315 429L315 429Q339 429 344 465L344 465Q349 498 331 529L331 529Q319 547 298 571Q277 595 253 624Z"/></svg>