<svg id="U22B7D" viewBox="0 0 1024 1024"><path transform="translate(0, 921.6) scale(1,-1)" d="M172 300L172 300L172 54Q172 3 144-1L144-1Q132-3 107-1Q82 1 43 6L43 6L43-14Q155-43 150-94L150-94Q225-62 221 35L221 35L221 335L337 420L331 436L221 377L221 555L351 555L280 623L240 581L221 581L221 746L254 773L169 818Q171 771 171.50 712Q172 653 172 581L172 581L30 581L65 542L112 555L172 555L172 352Q113 317 73 299.50Q33 282 14 278L14 278L65 219Q90 245 172 300ZM364 756L361 740Q411 689 432 643L432 643Q436 621 446 618Q456 615 464 633L464 633Q487 660 464 694L464 694Q456 709 432 724.50Q408 740 364 756L364 756ZM292 533L289 520Q314 488 330 463Q346 438 354 420L354 420Q370 379 390 397L390 397Q403 410 399 452L399 452Q394 485 292 533L292 533ZM263 207L263 207L263 193Q340 180 351 142L351 142Q353 118 349 92.50Q345 67 337 41L337 41Q327-19 364-38L364-38Q404-57 396 12L396 12Q390 95 399 161L399 161Q406 202 431.50 306Q457 410 509 578L509 578L493 581Q436 408 403.50 317.50Q371 227 361 219L361 219Q336 195 263 207ZM820 559L790 471L803 462Q875 572 900 572L900 572L842 623L820 584L690 584L690 740L716 773L636 805Q636 770 637.50 714.50Q639 659 639 584L639 584L580 584L577 633L560 633Q547 540 518 516L518 516Q492 490 500 465L500 465Q506 437 532 452L532 452Q555 460 564 484L564 484Q580 507 580 559L580 559L639 559Q639 453 627 364.50Q615 276 596 202L596 202Q547 58 435-77L435-77L444-97Q578 22 636 174L636 174Q679 315 690 559L690 559L820 559ZM713 352L713 12Q718-58 790-58L790-58L835-58Q862-58 877-55L877-55Q901-51 923-14L923-14Q885 1 881 54L881 54Q877 83 877 105L877 105Q877 127 877 145L877 145L862 145Q858 133 858 57L858 57Q858-4 839-14L839-14L784-14Q758-14 758 60L758 60L758 355Q753 393 778 406L778 406L704 442Q713 398 713 352L713 352Z"/></svg>