<svg id="U2257E" viewBox="0 0 1024 1024"><path transform="translate(0, 921.6) scale(1,-1)" d="M276 545L276 545L309 561L238 605Q219 553 193 501Q167 449 136 395Q105 341 76 297.50Q47 254 23 219L23 219L35 209Q105 270 158 347L158 347L158 62Q158 29 157.50-11.50Q157-52 155-100L155-100L213-64L213 433Q227 456 243 484.50Q259 513 276 545ZM238 740L238 740L276 746L206 804Q187 766 168 731Q149 696 130 663L130 663Q108 627 88 599Q68 571 50 548L50 548L56 535Q110 577 155 625.50Q200 674 238 740ZM229 52L229 52L238 42Q325 159 363 298L363 298L360 62Q360 37 360.50 7.50Q361-22 357-64L357-64L411-45L411 36L517 36L517-26L571-1Q568 21 568 40L568 40Q568 60 568 74L568 74L568 289L594 312L542 355L514 317L404 317L369 337Q386 420 386 468L386 468L526 468L526 417L581 442Q575 476 574.50 538.50Q574 601 574 698L574 698L603 724L549 766L524 727L389 727L334 766Q338 674 334 541L334 541Q334 471 328.50 408.50Q323 346 312 289L312 289Q300 229 280 169Q260 109 229 52ZM389 493L389 701L526 701L526 493L389 493ZM667 811L667 811L660 804Q704 747 715 698L715 698Q729 646 747 666L747 666Q768 682 773 705L773 705Q773 729 753 749L753 749Q743 761 720.50 775.50Q698 790 667 811ZM632 583L632 583L625 573Q656 503 664 445L664 445Q668 384 693 407L693 407Q708 412 722 442L722 442Q727 468 705 497L705 497Q686 527 632 583ZM805 650L584 650L612 608Q643 625 687 625L687 625L910 625L846 688L805 650ZM770 23L770 23L770 177L910 177L853 250L811 205L770 205L770 353L940 353L878 423L840 378L779 378Q798 420 817.50 461Q837 502 860 548L860 548L885 563L808 608Q803 538 760 378L760 378L568 378L603 343Q617 345 635 348Q653 351 674 353L674 353L722 353L722 205L597 205L632 170Q652 174 670 175.50Q688 177 705 177L705 177L722 177L722 52Q722 30 718.50-5Q715-40 715-97L715-97L773-74Q770-40 770-17L770-17Q770 6 770 23ZM411 62L411 292L517 292L517 62L411 62Z"/></svg>