<svg id="U22D5D" viewBox="0 0 1024 1024"><path transform="translate(0, 921.6) scale(1,-1)" d="M176 575L176 575L47 575L79 545L115 549L176 549L176 332Q125 302 90 283Q55 264 27 254L27 254L85 203Q87 206 176 280L176 280L176 24Q182-17 147-17L147-17Q138-17 115-14.50Q92-12 64-10L64-10L64-26Q160-58 150-97L150-97Q230-60 224 15L224 15L224 312L338 410L325 422L224 354L224 549L338 549L286 623L247 575L224 575L224 752L247 781L170 811Q174 761 175 702.50Q176 644 176 575ZM422 590L422 590Q446 627 468 662Q490 697 516 732L516 732L542 743L477 797Q470 771 451 731.50Q432 692 400 639L400 639Q371 671 348.50 696Q326 721 300 746L300 746L286 732Q308 707 329.50 672.50Q351 638 377 600L377 600Q359 567 330.50 530Q302 493 264 451L264 451L270 432Q308 461 338 490.50Q368 520 397 549L397 549Q411 511 416.50 471Q422 431 425 390L425 390Q397 330 347.50 266Q298 202 224 132L224 132L235 109Q345 185 439 303L439 303Q439 217 435 159Q431 101 422 67L422 67Q411-4 380-10L380-10Q355-13 283-4L283-4L280-17Q368-42 363-91L363-91Q408-79 435-40L435-40Q449-20 459.50 10.50Q470 41 477 86L477 86Q486 169 477 325L477 325Q475 397 461 463Q447 529 422 590ZM596 225L596 400L693 400L693 225L596 225ZM738 225L738 400L846 400L846 225L738 225ZM596 12L596 200L693 200L693 12L596 12ZM738 12L738 200L846 200L846 12L738 12ZM894 106L894 106L894 400L917 425L862 468L839 425L599 425L545 455Q545 420 546.50 363.50Q548 307 548 225L548 225Q548 142 546.50 64.50Q545-13 545-91L545-91L596-58L596-13L846-13L846-88L897-52Q894-32 894 7L894 7Q894 46 894 106ZM561 600L574 600L574 572Q574 540 570.50 517.50Q567 495 567 481L567 481L626 500Q622 510 622 527L622 527Q622 544 622 561L622 561L622 600L723 600L675 664L635 626L622 626L622 729L645 758L567 788Q567 772 570.50 756.50Q574 741 574 726L574 726L574 626L480 626L516 587Q554 592 561 600L561 600ZM797 600L797 600L797 552Q797 534 795.50 518Q794 502 794 487L794 487L852 507Q846 522 846 561L846 561L846 603L956 603L907 668L868 629L846 629L846 729L868 758L794 788Q794 772 795.50 758Q797 744 797 729L797 729L797 626L713 626L746 590Q762 592 774.50 596Q787 600 797 600Z"/></svg>