<svg id="U22D3E" viewBox="0 0 1024 1024"><path transform="translate(0, 921.6) scale(1,-1)" d="M49 573L201 573Q201 642 200 699Q199 756 195 804L195 804L287 776L255 747L255 573L293 573L331 624L385 547L255 547L255 376L363 443L373 430L255 332L255 18Q266-65 182-95L182-95Q182-51 78-19L78-19L78-4Q106-7 129-8Q152-9 167-12L167-12Q201-12 201 34L201 34L201 297Q149 261 122.50 238.50Q96 216 94 212L94 212L46 272Q70 276 109.50 296.50Q149 317 201 348L201 348L201 547L116 547L84 544L49 573ZM398 218L379 231Q421 262 451 298Q481 334 503 376L503 376Q387 330 373 316L373 316L319 367L509 405L518 490L464 490Q429 490 401 481L401 481L369 516L518 516L518 627L442 627Q423 627 408 626Q393 625 379 620L379 620L347 652L518 652L518 725Q518 741 516.50 762Q515 783 515 804L515 804L598 763L569 738L569 494Q569 324 398 218L398 218ZM937 351L715 351L715 275L658 246Q658 277 659.50 310.50Q661 344 661 386L661 386L661 703Q661 726 659.50 750Q658 774 658 801L658 801L743 763L715 738L715 658L823 658L870 706L918 630L715 630L715 522L804 522L851 563L899 494L715 494L715 376L842 376L889 424L937 351ZM569 278L582 291Q627 257 655 232.50Q683 208 693 189L693 189Q708 150 680 116L680 116Q654 83 639 139L639 139Q629 197 569 278L569 278ZM401 189L401 189L420 183Q417 120 408.50 81Q400 42 388 21L388 21Q375-16 341-22L341-22Q310-26 303-4L303-4Q289 16 331 53L331 53Q373 81 401 189ZM471 2L471 2L471 97Q471 135 470.50 169.50Q470 204 468 237L468 237L553 193L525 170L525 31Q519-24 588-25L588-25L705-25Q755-34 759 6L759 6Q761 27 765 51Q769 75 772 104L772 104L784 104Q784 75 785 53Q786 31 794 15L794 15Q803-14 829-25L829-25Q805-76 721-76L721-76L553-76Q471-72 471 2ZM778 202L778 202L784 218Q877 167 911 129L911 129Q940 85 918 40L918 40Q890 3 876 56L876 56Q865 103 778 202Z"/></svg>