<svg id="U2293F" viewBox="0 0 1024 1024"><path transform="translate(0, 921.6) scale(1,-1)" d="M152 391L152 391L206 409L206 416L269 416Q254 385 240.50 356.50Q227 328 206 303L206 303Q166 244 88 177L88 177L102 157Q144 188 173 213.50Q202 239 222 258L222 258Q240 276 259.50 299.50Q279 323 294 353L294 353L294 283Q294 260 293 225Q292 190 288 145L288 145L351 177Q346 194 345.50 214Q345 234 345 252L345 252L345 378Q382 347 407 321Q432 295 440 274L440 274Q457 233 474 255L474 255Q491 284 489 299L489 299Q489 320 458 347L458 347Q443 353 415 367Q387 381 345 400L345 400L345 416L436 416L436 400L492 428Q489 444 489 561L489 561L512 573L461 620L433 589L345 589L345 664L515 664L461 728L420 689L345 689L345 743L366 762L288 794Q292 779 293 753.50Q294 728 294 689L294 689L124 689L162 658Q178 660 197 662Q216 664 237 664L237 664L294 664L294 589L206 589L152 611Q156 590 157 564.50Q158 539 158 514L158 514Q158 489 157 457.50Q156 426 152 391ZM345 444L345 563L436 563L436 444L345 444ZM206 444L206 563L294 563L294 444L206 444ZM675 224L675 224L710 236L651 280Q636 259 602.50 225.50Q569 192 518 154L518 154L533 136Q533 147 574 164L574 164Q593 176 618.50 190Q644 204 675 224ZM883 229L883 229Q867 237 839 250Q811 263 770 280L770 280L764 265Q779 247 795.50 236Q812 225 823 211L823 211Q837 199 846.50 185Q856 171 867 154L867 154Q886 126 902 148L902 148Q918 167 918 192L918 192Q918 203 883 229ZM870 643L842 607L615 607L571 627Q571 607 572.50 569Q574 531 574 476L574 476Q574 419 572.50 366Q571 313 571 262L571 262L618 277L618 290L849 290L849 271L902 290Q900 306 899.50 378Q899 450 899 579L899 579L924 599L870 643ZM849 583L849 514L618 514L618 583L849 583ZM849 381L849 314L618 314L618 381L849 381ZM849 488L849 409L618 409L618 488L849 488ZM713 599L741 599Q789 650 808 661L808 661Q832 671 852 687L852 687L805 740L779 712L666 712Q682 726 696.50 738.50Q711 751 726 759L726 759L662 797Q655 775 640.50 754Q626 733 606 705L606 705Q584 676 558 649.50Q532 623 502 599L502 599L515 586Q556 605 597 640L597 640Q610 653 624.50 664Q639 675 653 687L653 687L779 687L713 599ZM219 139L199 139Q176 49 124 16L124 16Q74-20 102-36L102-36Q127-52 152-36L152-36Q181-24 203 16L203 16Q223 49 219 139L219 139ZM451 177L442 160Q480 134 506 109.50Q532 85 546 63L546 63Q565 23 584 28L584 28Q589 28 606 60L606 60Q612 89 587 107L587 107Q566 127 451 177L451 177ZM798 132L789 119Q873 47 890 6L890 6Q912-34 931-29L931-29Q955-16 955 6L955 6Q955 35 921 63L921 63Q892 85 798 132L798 132ZM307-1L307-1Q318-66 404-70L404-70L682-70Q757-70 792-14L792-14Q766 3 754 22L754 22Q744 52 744 98L744 98L723 98Q723 76 719 55Q715 34 713 16L713 16Q702-26 638-26L638-26L420-26Q360-19 360 22L360 22L360 88L399 113L301 142Q303 112 305 77Q307 42 307-1Z"/></svg>