<svg id="U2272A" viewBox="0 0 1000 1000"><path transform="translate(0, 900) scale(1,-1)" d="M159 840L159-79L229-79L229 840ZM75 647C70 565 54 446 31 374L84 357C106 436 122 559 125 641ZM478 840L478 733L345 733L345 666L478 666L478 574L549 574L549 666L637 666L637 733L549 733L549 840ZM251 662C271 594 291 504 299 451L340 467L340 400L512 400C460 290 388 201 295 138C311 126 338 98 348 83C393 116 434 156 470 200L470-80L538-80L538-38L831-38L831-76L902-76L902 276L524 276C548 314 570 356 589 400L961 400L961 468L615 468C627 502 638 537 647 573L576 586C566 545 554 505 540 468L344 468L354 472C346 521 324 608 303 676ZM538 29L538 208L831 208L831 29ZM667 733L667 666L758 666L758 574L829 574L829 666L960 666L960 733L829 733L829 840L758 840L758 733Z"/></svg>