<svg id="U2234B" viewBox="0 0 1024 1024"><path transform="translate(0, 921.6) scale(1,-1)" d="M272 813L264 801Q306 761 331.50 733.50Q357 706 365 682L365 682Q381 635 404 646L404 646Q426 657 426 701L426 701Q426 744 272 813L272 813ZM597 637L597 637L581 646Q624 704 653 746Q682 788 695 821L695 821L775 768L736 759Q705 730 670 699.50Q635 669 597 637ZM268 355L268 467L765 467L765 355L268 355ZM205 290L205 290L268 316L268 326L765 326L765 296L827 320Q824 350 824 376L824 376Q824 402 824 423L824 423L824 603L852 637L785 682L763 639L272 639L205 669Q208 634 208.50 587.50Q209 541 209 484L209 484Q209 423 208.50 374.50Q208 326 205 290ZM268 498L268 611L765 611L765 498L268 498ZM701 41L701 159L981 159L914 236L859 183L701 183L701 261L736 285L639 316Q639 296 640.50 264.50Q642 233 642 183L642 183L388 183L388 251L420 271L325 316Q329 292 329.50 259.50Q330 227 330 183L330 183L72 183L106 148Q122 150 140 154.50Q158 159 181 159L181 159L325 159Q317 84 261 26L261 26Q238-1 197.50-29.50Q157-58 100-87L100-87L106-98Q230-58 300 4L300 4Q374 73 383 159L383 159L642 159L642 32Q642-3 640.50-34.50Q639-66 639-95L639-95L704-73Q701-47 701-18L701-18Q701 11 701 41L701 41Z"/></svg>