<svg id="U223BB" viewBox="0 0 1024 1024"><path transform="translate(0, 921.6) scale(1,-1)" d="M142 321L166 523L335 523L335 474L397 509Q394 527 394 541L394 541Q394 556 394 569L394 569L394 721L424 750L361 803L332 754L66 754L100 719Q118 721 136.50 721.50Q155 722 177 727L177 727L335 727L335 552L159 552L110 581Q104 529 99 470Q94 411 85 340L85 340L60 330L103 272L136 294L335 294Q325 205 316 147Q307 89 294 60L294 60Q265 7 241 4L241 4Q217-2 131 25L131 25L124 4Q186-14 202-40L202-40Q227-56 221-89L221-89Q284-61 315-19L315-19Q350 26 365 99L365 99Q374 138 383 185Q392 232 397 290L397 290L427 311L361 366L335 321L142 321ZM540 643L540 643L534 633Q556 613 577 594.50Q598 576 613 558L613 558Q625 540 639 521.50Q653 503 664 487L664 487Q688 444 707 490L707 490Q725 533 685 569L685 569Q727 604 761 630Q795 656 821 676L821 676Q845 691 863.50 697Q882 703 899 708L899 708L834 790L798 754L440 754L475 719Q492 721 509.50 721.50Q527 722 547 727L547 727L795 727Q765 689 730 653.50Q695 618 662 581L662 581Q609 621 540 643ZM475 7L475 7L475-10Q589-27 606-95L606-95Q693-52 693 18L693 18L693 435L863 435L795 318L808 311Q901 428 962 435L962 435L897 500L860 460L394 460L427 428Q445 430 463 432.50Q481 435 501 435L501 435L636 435L636 53Q636-4 603-4L603-4Q585-4 553.50-1Q522 2 475 7Z"/></svg>