<svg id="U22B04" viewBox="0 0 1024 1024"><path transform="translate(0, 921.6) scale(1,-1)" d="M331 743L344 763Q386 740 411 719.50Q436 699 448 684L448 684Q474 658 448 613L448 613Q436 588 424 593.50Q412 599 406 629L406 629Q383 689 331 743L331 743ZM468 597L487 583Q392 309 380 268L380 268Q361 231 373 114L373 114Q392 3 360 13L360 13Q345 16 332.50 24Q320 32 311 39L311 39Q302 63 311 114L311 114Q320 141 321.50 163.50Q323 186 321 206L321 206Q311 242 262 274L262 274L266 294Q314 269 334 280L334 280Q348 291 468 597L468 597ZM647 26L647 691Q647 708 645 741Q643 774 643 831L643 831L731 782L702 753L702 639Q702 567 725 509L725 509Q819 602 842 662L842 662L911 577L875 577Q827 542 792.50 516Q758 490 731 473L731 473Q822 123 953 56L953 56L953 39Q890 53 865 10L865 10Q744 193 702 479L702 479L702 0Q702-38 676-70L676-70Q656-96 614-109L614-109Q609-74 585-61L585-61Q555-42 507-26L507-26L510-6Q585-25 621-19L621-19Q647-11 647 26L647 26ZM386-19L373-6Q526 183 555 515L555 515L533 515L507 512L471 541L555 541L591 580L640 528L611 502Q572 141 386-19L386-19ZM37 593L187 593Q187 665 186.50 722.50Q186 780 184 831L184 831L269 789L243 759L243 593L278 593L324 639L380 561L243 561L243 395L353 463L363 450L243 352L243 7Q243-69 161-106L161-106Q166-53 60-26L60-26L60-6Q91-9 114.50-9.50Q138-10 158-10L158-10Q191-10 187 36L187 36L187 310Q142 280 119 258.50Q96 237 90 228L90 228L37 294Q101 316 187 372L187 372L187 561L106 561L67 557L37 593Z"/></svg>