<svg id="U22A98" viewBox="0 0 1024 1024"><path transform="translate(0, 921.6) scale(1,-1)" d="M469 727L408 785Q387 754 354.50 722.50Q322 691 284 661L284 661Q244 626 194.50 594.50Q145 563 85 534L85 534L88 518Q142 537 189 558.50Q236 580 271 604L271 604Q347 643 439 721L439 721L469 727ZM601 769L627 788L554 801Q586 719 681 645L681 645Q727 607 778 581.50Q829 556 887 538L887 538Q894 572 953 592L953 592L953 604Q847 604 757 648L757 648Q662 687 601 769L601 769ZM769 589L716 627L681 597L243 597L281 569Q298 569 315.50 570.50Q333 572 354 572L354 572L392 572Q378 497 326 439L326 439Q300 410 257 387.50Q214 365 151 342L151 342L154 329Q306 367 367 414L367 414Q434 466 452 572L452 572L681 572Q655 411 637 411L637 411Q622 408 587 411.50Q552 415 500 427L500 427L500 411Q588 387 617 342L617 342Q693 366 706 411L706 411Q713 431 720 471Q727 511 737 566L737 566L769 589ZM481 274L481 274L481 211L136 211L177 167Q232 182 288 182L288 182L481 182L481 106L58 106L98 68Q140 81 218 81L218 81L481 81L481 21Q485-10 462-15L462-15Q452-15 422.50-13Q393-11 348-10L348-10L348-22Q438-40 449-94L449-94Q538-65 538 9L538 9L538 81L966 81L899 154L855 106L538 106L538 182L890 182L823 246L779 211L538 211L538 278Q589 282 641 288.50Q693 295 750 300L750 300L795 294L741 360Q712 352 669 343.50Q626 335 569 329L569 329Q508 319 419 309.50Q330 300 212 291L212 291L212 265Q314 265 380.50 268Q447 271 481 274Z"/></svg>