<svg id="U2217E" viewBox="0 0 1024 1024"><path transform="translate(0, 921.6) scale(1,-1)" d="M429 556L372 533Q372 578 373.50 618Q375 658 375 693L375 693Q375 725 373.50 752Q372 779 372 800L372 800L429 769L822 769L846 803L902 760L872 733Q872 667 872.50 625.50Q873 584 879 566L879 566L822 543L822 573L429 573L429 556ZM522 740L429 740L429 603L522 603L522 740ZM672 740L575 740L575 603L672 603L672 740ZM822 740L722 740L722 603L822 603L822 740ZM745 377L662 377L662 266L745 266L745 377ZM719 540L725 553Q788 518 818 490L818 490Q839 465 815 429L815 429Q785 395 775 443L775 443Q768 460 754.50 484.50Q741 509 719 540L719 540ZM645 533L722 490L692 480L659 403L839 403L879 443L932 377L799 377L799 266L829 266L865 306L919 240L799 240L799 130L829 130L865 170L922 99L799 99L799-7L848-7L889 36L945-30L662-30L662-74L605-105Q605-78 608.50-44Q612-10 612 33L612 33L612 320Q604 304 586 278Q568 252 539 217L539 217L528 233Q625 395 645 533L645 533ZM745 240L662 240L662 130L745 130L745 240ZM745 99L662 99L662-7L745-7L745 99ZM449 343L449 343Q368 322 346 306L346 306L315 363Q342 367 372 423L372 423Q387 450 398.50 476Q410 502 415 530L415 530L478 490L455 480Q432 445 410.50 416Q389 387 369 363L369 363L459 360Q492 410 502 453L502 453L572 406L539 396Q511 351 471.50 296.50Q432 242 375 179L375 179L502 183Q495 196 487.50 213.50Q480 231 472 253L472 253L478 260Q533 220 556 183L556 183Q581 147 556 116L556 116Q530 87 522 116L522 116Q518 127 514.50 140.50Q511 154 509 170L509 170Q380 138 346 116L346 116L315 179Q335 179 355 203L355 203Q370 218 393 251.50Q416 285 449 343ZM302 90L302 90L312 96Q367 34 372 0L372 0Q384-36 355-51L355-51Q335-71 329-65L329-65Q326-59 325-47Q324-35 322-21L322-21Q322-6 315.50 21Q309 48 302 90ZM398 96L398 96L409 103Q472 41 472 10L472 10Q476-18 452-37L452-37Q426-54 426-7L426-7Q420 19 414 43.50Q408 68 398 96ZM489 109L489 109L495 120Q556 77 572 40L572 40Q576 5 556-11L556-11Q536-30 522 12L522 12Q519 37 508.50 60.50Q498 84 489 109ZM96 616L148 616L148 736Q148 759 147.50 783Q147 807 145 833L145 833L228 797L202 766L202 616L249 616L275 656L332 613L306 587L306 226Q309 146 252 123L252 123Q247 167 202 179L202 179L202 196Q212 193 242 193L242 193Q249 195 254.50 204.50Q260 214 255 240L255 240L255 590L202 590L202 40L202-15Q202-41 205-74L205-74L145-108Q147-60 147.50-17.50Q148 25 148 63L148 63L148 590L96 590L96 153L38 123Q41 190 41.50 258.50Q42 327 42 403L42 403Q42 475 41.50 536.50Q41 598 38 649L38 649L96 616Z"/></svg>