<svg id="U223D3" viewBox="0 0 1024 1024"><path transform="translate(0, 921.6) scale(1,-1)" d="M142 328L168 513L334 513L334 461L396 504Q394 513 393 526.50Q392 540 392 556L392 556L392 713L423 736L363 791L331 743L68 743L99 706Q133 716 175 716L175 716L334 716L334 539L158 539L112 573Q109 519 102.50 460Q96 401 90 337L90 337L58 328L102 270L135 298L334 298Q323 202 315 140.50Q307 79 295 50L295 50Q269-3 243-7L243-7Q212-12 129 12L129 12L123-4Q190-30 200-50L200-50Q225-67 220-101L220-101Q283-80 315-39L315-39Q332-17 344 14Q356 45 363 86L363 86Q373 125 381.50 178Q390 231 392 295L392 295L423 319L357 373L334 328L142 328ZM735 743L641 810Q621 744 594 689Q567 634 536 585L536 585Q472 493 435 497L435 497L472 418Q486 434 577.50 452.50Q669 471 837 494L837 494Q842 476 848 460Q854 444 859 432L859 432Q864 401 896 442L896 442Q926 485 893 536L893 536Q878 561 837.50 594.50Q797 628 739 674L739 674L726 661Q755 627 779.50 590.50Q804 554 827 516L827 516L501 494Q540 528 588 588Q636 648 693 736L693 736L735 743ZM716 403L618 449Q618 424 619.50 385Q621 346 621 291L621 291L412 291L445 255Q468 259 486.50 260.50Q505 262 520 262L520 262L618 262Q597 143 530 54L530 54Q456-32 363-88L363-88L373-101Q473-60 573 34L573 34Q615 79 640 136Q665 193 673 262L673 262L699 262Q728 54 859-92L859-92Q905-59 965-59L965-59L965-43Q806 9 722 262L722 262L944 262L882 341L824 291L676 291L681 383L716 403Z"/></svg>