<svg id="U22AA1" viewBox="0 0 1024 1024"><path transform="translate(0, 921.6) scale(1,-1)" d="M471 398L471 398L372 398L404 370L438 373L471 373Q471 207 417 89L417 89Q360-21 300-82L300-82L309-95Q381-51 451 64L451 64Q523 167 523 373L523 373L618 373L618 118L675 139L675 373L779 373L779 29Q779-8 734-8L734-8Q690-8 641 1L641 1L641-16Q750-38 750-92L750-92Q832-61 832 26L832 26L832 373L962 373L908 442L857 398L832 398L832 691L864 713L807 769L775 728L520 728L467 772Q467 714 469 621Q471 528 471 398ZM523 398L523 700L779 700L779 398L675 398L675 530L713 553L618 602L618 398L523 398ZM215 275L215 275L215 45Q215 2 193-5L193-5Q181-5 156-1Q131 3 89 11L89 11L89-10Q183-33 193-92L193-92Q272-62 268 29L268 29L268 319L389 414L379 432L268 360L268 533L423 533L366 605L325 558L268 558L268 731L294 760L212 801Q214 765 214.50 705.50Q215 646 215 558L215 558L80 558L108 530L145 533L215 533L215 335Q167 305 128 286Q89 267 62 256L62 256L111 183Q119 197 215 275Z"/></svg>