<svg id="U22C77" viewBox="0 0 1024 1024"><path transform="translate(0, 921.6) scale(1,-1)" d="M167 273L167 273L167 45Q172-1 151-6L151-6Q143-10 120.50-7Q98-4 68 0L68 0L68-16Q157-45 164-92L164-92Q223-66 218 32L218 32L218 311L327 391L321 411L218 353L218 540L341 540L298 601L267 568L218 568L218 739L244 768L164 807Q166 755 166.50 695Q167 635 167 568L167 568L41 568L68 523L90 540L167 540L167 330Q72 266 29 257L29 257L77 195Q86 207 108.50 226Q131 245 167 273ZM523 198L418 154L418 473L520 473L479 540L443 501L418 501L418 739L443 768L363 810Q365 770 365.50 738Q366 706 366 678L366 678L366 501L267 501L298 462L317 473L366 473L366 138Q325 118 297.50 107.50Q270 97 253 93L253 93L298 26Q310 40 366 79.50Q422 119 526 183L526 183L523 198ZM604 286L604 286L790 286Q766 235 740.50 192Q715 149 694 115L694 115Q647 169 604 286ZM803 771L526 771L571 729Q593 734 619 736.50Q645 739 675 742L675 742L803 742L803 540L540 540L581 498Q605 504 629.50 509Q654 514 684 514L684 514L803 514L803 482L857 507Q854 524 854 542L854 542Q854 560 854 581L854 581L854 739L877 761L822 807L803 771ZM543 415L864 415L835 338L844 324Q910 417 948 430L948 430L890 482L864 440L543 440L543 491L526 488Q521 439 509.50 412.50Q498 386 482 372L482 372Q445 348 466 324L466 324Q484 309 514 324L514 324Q523 337 531.50 358.50Q540 380 543 415L543 415ZM555 280L581 286Q594 230 613 178.50Q632 127 662 84L662 84Q566-21 418-74L418-74L421-92Q571-69 697 45L697 45Q717 15 771-31L771-31Q813-68 883-99L883-99Q900-54 941-50L941-50L941-34Q912-32 884-23Q856-14 828 0L828 0Q764 35 725 84L725 84Q782 153 838 276L838 276L871 295L810 350L790 314L526 314L555 280ZM857 652L540 652L571 617Q607 626 645 626L645 626L941 626L899 691L857 652Z"/></svg>