<svg id="U229A" viewBox="0 0 928 1000"><path transform="translate(0, 900) scale(1,-1)" d="M464-64L464-64Q379-64 304-32Q229 0 172 57Q115 114 83 189Q51 264 51 349L51 349Q51 435 83 509.50Q115 584 172 641Q229 698 304 730Q379 762 464 762L464 762Q550 762 624.50 730Q699 698 756 641Q813 584 845 509.50Q877 435 877 349L877 349Q877 264 845 189Q813 114 756 57Q699 0 624.50-32Q550-64 464-64ZM464-13L464-13Q539-13 604.50 15Q670 43 720 93Q770 143 798 208.50Q826 274 826 349L826 349Q826 424 798 489.50Q770 555 720 605Q670 655 604.50 683Q539 711 464 711L464 711Q389 711 323.50 683Q258 655 208 605Q158 555 130 489.50Q102 424 102 349L102 349Q102 274 130 208.50Q158 143 208 93Q258 43 323.50 15Q389-13 464-13ZM464 224L464 224Q411 224 375 259.50Q339 295 339 349L339 349Q339 384 355.50 412.50Q372 441 400.50 458Q429 475 464 475L464 475Q499 475 527.50 458.50Q556 442 573 413.50Q590 385 590 349L590 349Q590 315 573.50 286.50Q557 258 528.50 241Q500 224 464 224ZM464 282L464 282Q492 282 511.50 301.50Q531 321 531 349L531 349Q531 378 512 397.50Q493 417 464 417L464 417Q436 417 416.50 397.50Q397 378 397 349L397 349Q397 321 417 301.50Q437 282 464 282Z"/></svg>