<svg id="U2256E" viewBox="0 0 1024 1024"><path transform="translate(0, 921.6) scale(1,-1)" d="M240-69L240 412Q267 445 284 473Q301 501 311 521L311 521L346 533L272 585Q262 561 239.50 518Q217 475 179 412L179 412Q106 286 25 197L25 197L37 185Q76 211 113.50 250.50Q151 290 189 338L189 338L189 47Q189 13 188-22Q187-57 183-102L183-102L240-69ZM314 741L240 793Q229 753 173 668L173 668Q110 570 47 492L47 492L58 476Q146 545 278 726L278 726L314 741ZM544 812L544 812L531 806Q577 763 589 726L589 726Q598 684 617 703L617 703Q632 709 643 738L643 738Q643 754 617 780L617 780Q603 788 585 796Q567 804 544 812ZM470 658L477 665Q508 646 527.50 635Q547 624 557 620L557 620Q575 601 567 581L567 581Q564 569 556 560Q548 551 544 546L544 546Q527 538 515 568L515 568Q512 585 499 608.50Q486 632 470 658L470 658ZM848 511L819 438L828 431Q889 510 938 523L938 523L873 575L848 540L675 540Q696 561 713.50 583Q731 605 742 623L742 623L775 630L723 665L886 665L828 731L790 690L364 690L397 658Q413 660 431.50 662.50Q450 665 470 665L470 665L704 665Q694 641 680 609.50Q666 578 650 540L650 540L406 540L406 591L391 591Q368 511 339 492L339 492Q312 464 317 443L317 443Q330 422 364 435L364 435Q395 445 400 511L400 511L848 511ZM752 277L675 277L675 265Q751 252 762 210L762 210Q828 234 828 303L828 303L828 377L851 405L793 438L775 402L630 402L630 450L656 473L572 505Q572 487 574 461.50Q576 436 576 402L576 402L451 402L400 431L400 325Q400 294 399.50 267.50Q399 241 397 220L397 220L454 239L454 373L576 373Q576 301 574 253Q572 205 572 179L572 179L634 197Q631 221 630.50 243Q630 265 630 287L630 287L630 373L775 373L775 315Q775 277 752 277L752 277ZM822 37L822 134L848 156L787 197L765 159L454 159L397 191Q399 171 399.50 141.50Q400 112 400 69L400 69Q400 27 399.50-14.50Q399-56 397-102L397-102L454-76L454-37L768-37L768-89L825-62Q822-33 822-8L822-8Q822 16 822 37L822 37ZM454-9L454 134L768 134L768-9L454-9Z"/></svg>