<svg id="U224B0" viewBox="0 0 1000 1000"><path transform="translate(0, 900) scale(1,-1)" d="M390 78L403 12C477 34 570 62 658 90L650 153C554 124 457 95 390 78ZM485 469L573 469L573 262L485 262ZM431 527L431 204L629 204L629 527ZM312 311L312 204L181 204L181 311ZM312 372L181 372L181 473L312 473ZM185 839C179 790 171 743 162 697L42 697L42 631L146 631C118 521 77 426 19 356C32 342 53 315 61 301C83 328 102 359 120 391L120-79L181-79L181 143L312 143L312-1C312-10 309-13 300-13C292-13 264-13 234-13C243-30 252-56 254-73C299-73 327-72 347-62C368-51 374-32 374-1L374 535L181 535C192 566 201 598 209 631L396 631L396 697L225 697C234 740 241 784 248 830ZM410 686L410 619L699 619C701 556 704 495 708 438C685 419 661 402 637 387C648 375 665 346 671 334C685 343 700 354 714 365L725 269C698 246 669 226 640 209C651 197 669 171 675 159C695 172 715 186 735 202C741 163 748 128 756 97C709 52 656 15 600-14C612-26 632-52 640-65C688-38 734-5 776 34C802-36 835-76 878-76C934-76 953-34 963 84C949 91 929 104 915 119C912 26 903-12 886-12C864-12 843 22 825 82C876 136 919 199 950 269L892 287C871 238 842 192 807 151C801 181 796 214 790 250C849 307 901 374 937 447L882 465C857 414 822 365 781 322L773 416C818 460 858 512 886 567L830 583C814 551 792 521 767 494L761 619L957 619L957 686L884 686L928 713C909 745 868 794 833 828L788 804C822 768 862 720 880 686L760 686L759 832L694 832L696 686Z"/></svg>