<svg id="U22A12" viewBox="0 0 1024 1024"><path transform="translate(0, 921.6) scale(1,-1)" d="M581 472L639 478Q650 262 694 130L694 130Q659 79 605.50 32Q552-15 485-61L485-61L487-77Q635-23 723 82L723 82Q756 22 809.50-19.50Q863-61 932-93L932-93Q922-59 921 8.50Q920 76 925 182L925 182L912 182L880 5Q802 40 758 127L758 127Q777 165 802.50 231.50Q828 298 858 395L858 395L880 407L810 459Q783 319 729 182L729 182Q711 231 701.50 307.50Q692 384 687 484L687 484L925 514L861 574L819 526L684 514Q681 575 681 633L681 633Q681 692 681 752L681 752L706 780L626 819Q626 783 628.50 704Q631 625 639 504L639 504L526 494L562 455L581 472ZM741 742L741 742L729 732Q758 696 777 670Q796 644 806 620L806 620Q817 571 838 594L838 594Q851 610 851 636L851 636Q851 665 825 685L825 685Q811 696 791 710.50Q771 725 741 742ZM234 816L234 816L227 803Q279 756 291 716L291 716Q310 679 329 710L329 710Q356 734 326 765L326 765Q302 787 234 816ZM433 690L75 690L114 652Q148 661 197 661L197 661L388 661Q380 616 336 523L336 523L32 523L69 484Q96 497 152 497L152 497L571 497L503 564L465 523L361 523Q378 544 395 566.50Q412 589 430 613L430 613L462 633L401 661L542 661L471 732L433 690ZM152 340L152 417L281 417L281 340L152 340ZM326 340L326 417L445 417L445 340L326 340ZM152 246L152 313L281 313L281 246L152 246ZM326 246L326 313L445 313L445 246L326 246ZM98 179L98 179L152 198L152 221L281 221L281 140L75 140L114 102Q131 105 152 109.50Q173 114 197 114L197 114L281 114L281 8Q208-5 153.50-11Q99-17 66-20L66-20L108-93Q121-68 234-38L234-38Q288-23 365.50-4.50Q443 14 545 40L545 40L542 60L326 18L326 114L523 114L452 182L413 140L326 140L326 221L445 221L445 188L500 218Q493 224 493 266L493 266L493 395L523 420L468 472L443 442L155 442L98 462Q103 442 104 406.50Q105 371 105 323L105 323Q105 274 104 237Q103 200 98 179ZM165 655L165 655L152 643Q200 584 211 546L211 546Q220 509 249 532L249 532Q274 549 269 581L269 581Q264 605 165 655Z"/></svg>