<svg id="U229C9" viewBox="0 0 1024 1024"><path transform="translate(0, 921.6) scale(1,-1)" d="M232 411L232 581L365 581L365 411L232 411ZM182 159L182 275L418 275L418 159L182 159ZM182 13L182 134L418 134L418 13L182 13ZM182 606L182 606L69 606L106 568L147 581L182 581L182 411L45 411L78 373Q108 386 162 386L162 386L550 386L481 452L443 411L414 411L414 581L532 581L462 647L424 606L414 606L414 722L437 748L362 792Q364 762 364.50 715.50Q365 669 365 606L365 606L232 606L232 725L257 754L175 792Q180 765 181 720Q182 675 182 606ZM125-81L125-81L182-57L182-13L418-13L418-88L475-53Q472-27 471.50-3Q471 21 471 46L471 46L471 269L499 288L440 335L409 301L182 301L125 332Q127 281 127.50 228.50Q128 176 128 124L128 124Q128 70 127.50 20Q127-30 125-81ZM563 445L632 452Q640 238 689 105L689 105Q611 4 481-75L481-75L491-91Q619-32 714 61L714 61Q786-35 871-78L871-78Q945-109 938-78L938-78Q922-45 922 20L922 20L922 175L907 175L869-5Q797 36 748 112L748 112Q769 149 797.50 212.50Q826 276 859 367L859 367L887 388L812 432Q788 289 727 162L727 162Q693 264 679 461L679 461L918 483L859 550L812 502L679 486Q674 549 673.50 608.50Q673 668 673 732L673 732L707 761L617 802Q617 765 619 684Q621 603 629 480L629 480L512 468L544 432L563 445ZM727 738L727 738L717 722Q774 662 802 606L802 606Q821 554 840 578L840 578Q851 602 859 628L859 628Q859 659 828 681L828 681Q809 694 784 708Q759 722 727 738Z"/></svg>