<svg id="U22A29" viewBox="0 0 1024 1024"><path transform="translate(0, 921.6) scale(1,-1)" d="M778-19L778-19L516-19Q428-22 433 37L433 37L433 143Q515 166 605.50 197.50Q696 229 801 274L801 274L846 274L785 348Q755 311 651 258L651 258Q600 236 545 212.50Q490 189 433 169L433 169L433 307L468 335L372 380Q377 341 378 310Q379 279 379 258L379 258L379 15Q379-68 478-63L478-63L814-63Q892-57 932-2L932-2Q885 15 878 50L878 50Q870 69 869 94.50Q868 120 868 149L868 149L846 149Q846 113 844 84Q842 55 839 31L839 31Q830-19 778-19ZM839 479L839 585L865 606L804 655L776 613L264 613L264 681L202 706Q205 639 206.50 571.50Q208 504 206 435L206 435Q206 360 196 294.50Q186 229 167 162L167 162Q150 99 115 40Q80-19 31-79L31-79L44-92Q172 16 212 143L212 143Q264 272 264 405L264 405L785 405L785 354L843 380Q840 403 839.50 429Q839 455 839 479L839 479ZM264 431L264 588L785 588L785 431L264 431ZM763 735L763 735L823 729L776 818Q743 804 696.50 786Q650 768 590 751L590 751Q531 733 439.50 715.50Q348 698 222 681L222 681L222 661Q451 683 585.50 701.50Q720 720 763 735Z"/></svg>