<svg id="U22971" viewBox="0 0 1024 1024"><path transform="translate(0, 921.6) scale(1,-1)" d="M135 575L135 575L117 575Q106 466 73 415L73 415Q40 361 52 342L52 342Q58 313 79 327L79 327Q106 336 120 380L120 380Q139 429 135 575ZM166 587L166 587L166 109Q166 66 165.50 13.50Q165-39 163-106L163-106L217-69Q214-42 214-10L214-10Q214 22 214 65L214 65L214 708L248 742L163 787Q165 739 165.50 689Q166 639 166 587ZM223 610L223 610L214 600Q243 522 248 471L248 471Q254 418 271 424L271 424Q289 432 299 459L299 459Q303 487 287 518L287 518Q277 535 261.50 558Q246 581 223 610ZM349 541L349 594L422 594L422 541L349 541ZM466 541L466 594L526 594L526 541L466 541ZM349 461L349 515L422 515L422 461L349 461ZM466 461L466 515L526 515L526 461L466 461ZM466 333L466 333L466 437L526 437L526 418L577 433Q574 452 573.50 492.50Q573 533 573 594L573 594L595 607L544 638L523 620L466 620L466 669L601 669L557 723L523 695L466 695L466 736L495 761L418 793Q418 763 420 739Q422 715 422 695L422 695L281 695L312 664Q328 666 346.50 667.50Q365 669 384 669L384 669L422 669L422 620L349 620L302 635Q304 602 304.50 573.50Q305 545 305 522L305 522Q305 501 304.50 472.50Q304 444 302 412L302 412L349 424L349 437L397 437Q375 391 335.50 346.50Q296 302 230 257L230 257L236 242Q357 294 422 383L422 383L422 333Q422 309 420 285.50Q418 262 418 242L418 242L469 260Q466 281 466 299L466 299Q466 318 466 333ZM475 420L475 420L466 415Q494 381 512 356Q530 331 538 314L538 314Q559 275 577 304L577 304Q585 336 573 358L573 358Q557 372 533 387.50Q509 403 475 420ZM664 541L664 594L731 594L731 541L664 541ZM775 541L775 594L837 594L837 541L775 541ZM664 461L664 515L731 515L731 461L664 461ZM775 461L775 515L837 515L837 461L775 461ZM775 339L775 339L775 420Q807 313 882 266L882 266Q908 296 935 289L935 289L935 307Q834 333 787 437L787 437L837 437L837 418L888 433Q885 452 885 491L885 491Q885 530 885 587L885 587L911 607L866 648L834 620L775 620L775 669L929 669L875 733L837 695L775 695L775 746L800 764L727 790Q727 763 729 739Q731 715 731 695L731 695L592 695L623 664Q642 666 659 667.50Q676 669 696 669L696 669L731 669L731 620L664 620L618 635Q618 602 619.50 573.50Q621 545 621 522L621 522Q621 501 619.50 472.50Q618 444 618 412L618 412L664 424L664 437L708 437Q642 328 541 263L541 263L548 248Q675 300 731 386L731 386L731 333Q728 309 727.50 288.50Q727 268 727 248L727 248L778 266Q775 290 775 307L775 307Q775 325 775 339ZM422 216L369 248Q371 224 374.50 201Q378 178 378 160L378 160L378-17Q378-37 377-58.50Q376-80 371-103L371-103L425-82L425-43L781-43L781-100L837-72Q834-48 834-22L834-22Q834 4 834 34L834 34L834 181L863 201L806 257L772 216L422 216ZM425 103L425 188L781 188L781 103L425 103ZM425-17L425 75L781 75L781-17L425-17Z"/></svg>