<svg id="U22E6E" viewBox="0 0 1024 1024"><path transform="translate(0, 921.6) scale(1,-1)" d="M46 584L187 584Q187 654 186.50 710.50Q186 767 183 818L183 818L268 782L239 750L239 584L274 584L313 636L366 557L239 557L239 375L333 427L343 414L239 326L239 7Q243-68 164-101L164-101Q168-64 82-35L82-35L82-19Q104-21 123-21.50Q142-22 154-22L154-22Q187-22 187 20L187 20L187 297Q86 217 89 216L89 216L33 261Q57 270 96 290Q135 310 187 343L187 343L187 557L108 557L86 548L46 584ZM587 515L633 466L610 450L610 287Q610 245 613 229L613 229L564 209L564 235L392 235L392 222L340 206Q342 233 344 271.50Q346 310 346 359L346 359Q346 405 344 442Q342 479 340 506L340 506L385 483L568 483L587 515ZM454 457L392 457L392 375L454 375L454 457ZM564 457L502 457L502 375L564 375L564 457ZM454 346L392 346L392 261L454 261L454 346ZM564 346L502 346L502 261L564 261L564 346ZM607 743L493 743L493 668L607 668L607 743ZM773 743L655 743L655 668L773 668L773 743ZM607 642L493 642L493 567L607 567L607 642ZM773 642L655 642L655 567L773 567L773 642ZM851 763L825 743L825 541L773 522L773 541L493 541L493 538L441 519Q441 558 442.50 593.50Q444 629 444 659L444 659Q444 688 442.50 722.50Q441 757 441 799L441 799L486 769L773 769L795 805L851 763ZM945 476L923 450L923 297L923 261Q923 242 926 229L926 229L874 206L874 238L708 238L708 222L655 203Q655 236 658.50 277.50Q662 319 662 365L662 365Q662 410 658.50 444.50Q655 479 655 506L655 506L701 479L874 479L897 509L945 476ZM769 450L708 450L708 375L769 375L769 450ZM874 450L815 450L815 375L874 375L874 450ZM769 346L708 346L708 264L769 264L769 346ZM874 346L815 346L815 264L874 264L874 346ZM603-22L603 102L515 102Q488 99 461.50 93Q435 87 411 82L411 82L369 128L603 128Q603 137 601.50 161Q600 185 600 222L600 222L675 189L652 173L652 128L802 128L841 173L903 102L652 102L652-22L854-22L909 23L971-52L450-52Q385-52 346-65L346-65L304-22L603-22Z"/></svg>