<svg id="U22F78" viewBox="0 0 1024 1024"><path transform="translate(0, 921.6) scale(1,-1)" d="M113 676L113 558L91 548L144 510L171 531L449 531L449 506L500 525Q494 542 493.50 558.50Q493 575 493 593L493 593L493 695L522 721L442 746Q442 722 443.50 698Q445 674 445 650L445 650L445 558L330 558L330 753L362 781L276 811Q278 790 278.50 775.50Q279 761 279 746L279 746L279 558L167 558L167 695L196 721L109 749Q112 729 112.50 711.50Q113 694 113 676L113 676ZM154 327L154 433L269 433L269 327L154 327ZM317 327L317 433L449 433L449 327L317 327ZM317 298L449 298L449 189L317 189L317 298ZM154 189L154 298L269 298L269 189L154 189ZM269 160L269-46L317-36L317 160L449 160L449 77Q454 44 436 36L436 36Q421 27 349 42L349 42L349 23Q431 10 436-42L436-42Q500-11 500 52L500 52L500 426L522 445L468 493L445 458L154 458L106 487Q108 327 106.50 226Q105 125 97 77L97 77Q80-17 38-74L38-74L54-84Q154 17 154 160L154 160L269 160ZM622 528L631 563L785 563Q760 353 708 215L708 215Q653 328 622 528L622 528ZM718 781L635 819Q615 667 583.50 540.50Q552 414 507 311L507 311L522 298Q580 392 612 478L612 478Q627 324 682 164L682 164Q605 16 414-81L414-81L423-94Q610-30 711 119L711 119Q746 62 789.50 18Q833-26 884-71L884-71Q893-26 945-26L945-26L945-14Q837 30 740 160L740 160Q775 250 801 350Q827 450 839 567L839 567L935 567L871 644L836 589L644 589Q656 625 665 668Q674 711 685 762L685 762L718 781Z"/></svg>