<svg id="U22370" viewBox="0 0 1024 1024"><path transform="translate(0, 921.6) scale(1,-1)" d="M637 664L637 741L788 741L788 664L637 664ZM836 696L836 737L859 760L810 799L788 767L239 767L185 795L185 607L239 625L239 638L788 638L788 622L840 642Q836 653 836 696L836 696ZM239 664L239 741L390 741L390 664L239 664ZM439 664L439 741L589 741L589 664L439 664ZM484 635L484 558L214 558L252 523Q271 526 288.50 527.50Q306 529 327 529L327 529L484 529L484 468L144 468L182 436Q221 442 259 442L259 442L891 442L830 503L788 468L538 468L538 529L836 529L776 596L730 558L538 558L538 583L573 599L484 635ZM534 163L534 232L933 232L868 299L818 260L534 260L534 321L840 321L779 388L727 347L596 347Q612 358 634.50 370.50Q657 383 682 398L682 398L717 404L654 455Q637 429 615 402Q593 375 570 347L570 347L422 347Q453 370 445 392L445 392Q441 417 335 449L335 449L332 442Q341 431 351.50 418.50Q362 406 371 398L371 398Q380 384 388 371Q396 358 401 347L401 347L197 347L236 312Q278 321 318 321L318 321L481 321L481 260L120 260L159 225Q176 227 193.50 229.50Q211 232 234 232L234 232L481 232L481 141L534 163ZM692 10L692 83L978 83L913 160L859 109L692 109L692 169L721 190L634 218L634 109L380 109L380 169L410 187L320 211Q323 191 323 109L323 109L69 109L102 73Q131 83 179 83L179 83L320 83Q317 59 301 38.50Q285 18 259-5L259-5Q230-28 187-48.50Q144-69 87-89L87-89L90-104Q235-77 304-23L304-23Q334 3 354.50 28.50Q375 54 377 83L377 83L634 83L634-16Q634-24 632.50-45Q631-66 631-99L631-99L695-81Q692-58 692-34L692-34Q692-11 692 10L692 10Z"/></svg>