<svg id="U2268B" viewBox="0 0 1024 1024"><path transform="translate(0, 921.6) scale(1,-1)" d="M452 666L388 698Q392 643 393 596Q394 549 394 507L394 507Q394 465 393 405Q392 345 388 267L388 267L443 286L443 309L814 309L814 270L868 293Q865 324 865 360L865 360Q865 396 865 433L865 433L865 627L898 653L836 705L804 666L596 666Q651 747 696 773L696 773L615 815Q608 778 596 740Q584 702 572 666L572 666L452 666ZM443 494L443 637L814 637L814 494L443 494ZM443 335L443 468L814 468L814 335L443 335ZM268-86L268-86L274-102Q442-31 498 56L498 56Q554 151 563 322L563 322L504 322Q504 273 495 191L495 191Q472 97 427 42L427 42Q374-25 268-86ZM677 325L677 13Q673-69 761-69L761-69L859-69Q911-65 937-8L937-8Q902 8 898 52L898 52Q885 94 885 146L885 146L865 146L865 36Q865-18 826-18L826-18L775-18Q729-25 729 22L729 22L729 325L677 325ZM138 588L138 588L121 588Q110 476 63 429L63 429Q21 379 28 357L28 357Q41 332 66 341L66 341Q95 347 118 394L118 394Q142 443 138 588ZM186 611L186 611L186 117Q186 75 185.50 21Q185-33 183-105L183-105L244-66Q241-39 241-6L241-6Q241 26 241 71L241 71L241 734L277 767L183 815Q185 769 185.50 718.50Q186 668 186 611ZM261 624L261 624L248 614Q267 575 277.50 539.50Q288 504 293 478L293 478Q299 429 322 429L322 429Q344 429 355 465L355 465Q361 498 339 529L339 529Q312 567 261 624Z"/></svg>