<svg id="U22F2A" viewBox="0 0 1024 1024"><path transform="translate(0, 921.6) scale(1,-1)" d="M486 590L441 655L389 620L169 620L169 707L493 707L444 776L392 733L172 733L111 769Q113 731 113.50 664.50Q114 598 114 503L114 503L111 422L143 431L169 444L169 467L486 467L441 535L389 493L169 493L169 590L486 590ZM275 195L275 195Q214 184 158 175.50Q102 167 45 163L45 163L81 101Q123 110 172 123.50Q221 137 275 149L275 149L275 20Q275-20 247-20L247-20Q232-17 206.50-14.50Q181-12 149-6L149-6L149-28Q253-53 253-98L253-98Q335-82 331-13L331-13L331 166L529 214L526 240L331 205L331 240L367 260L340 273Q362 290 385 308Q408 326 431 340L431 340Q485 370 516 370L516 370L451 429L412 392L84 392L120 360Q140 364 158 365.50Q176 367 191 367L191 367L396 367L321 285L273 312Q275 277 275 247L275 247Q275 218 275 195ZM574 464L574 464Q604 269 672 153L672 153Q619 79 553 20Q487-39 409-88L409-88L422-105Q614-16 704 107L704 107Q737 47 781.50 2Q826-43 883-88L883-88Q907-41 960-46L960-46L957-28Q833 4 736 146L736 146Q836 319 863 568L863 568L953 568L895 633L856 593L616 593Q627 635 638 662.50Q649 690 655 707L655 707Q664 722 671.50 736Q679 750 690 765L690 765L610 801Q569 522 493 354L493 354L513 350Q541 397 574 464ZM593 509L613 568L804 568Q789 453 763 360.50Q737 268 704 195L704 195Q623 324 593 509L593 509Z"/></svg>