<svg id="U22533" viewBox="0 0 1024 1024"><path transform="translate(0, 921.6) scale(1,-1)" d="M244-72L244 415Q273 450 294 478Q315 506 324 523L324 523L362 533L286 594Q270 542 187 422L187 422Q145 358 105.50 305Q66 252 28 210L28 210L41 197Q75 227 114.50 264.50Q154 302 193 348L193 348L193 51Q193 19 192-19Q191-57 187-102L187-102L244-72ZM324 754L254 812Q244 788 226 755.50Q208 723 177 678L177 678Q148 630 115.50 589.50Q83 549 48 515L48 515L59 498Q153 554 292 738L292 738L324 754ZM631 159L631 284L776 284L776 159L631 159ZM756 764L350 764L385 723L420 735Q444 675 479 619.50Q514 564 568 515L568 515Q454 426 277 364L277 364L282 348Q459 381 609 482L609 482Q637 452 708 422L708 422Q768 391 856 370L856 370Q861 415 936 425L936 425L936 440Q906 438 870 441Q834 444 791 457L791 457Q703 470 648 518L648 518Q748 609 823 726L823 726L859 744L791 809L756 764ZM449 738L449 738L756 738Q691 622 603 546L603 546Q570 569 548.50 590Q527 611 510 636L510 636Q495 657 479 683Q463 709 449 738ZM538 726L538 726L532 716Q569 672 580 626L580 626Q598 584 618 613L618 613Q647 642 631 665L631 665Q611 695 538 726ZM829 188L829 277L865 303L798 348L769 310L631 310L631 370L660 399L573 440Q573 398 575 367Q577 336 577 310L577 310L440 310L382 345Q382 311 383.50 279Q385 247 385 217L385 217Q385 188 383.50 153Q382 118 382 86L382 86L440 104L440 130L577 130L577 2Q507-3 442.50-6Q378-9 318-9L318-9L360-72Q409-56 523-47L523-47Q580-37 658-28.50Q736-20 833-12L833-12Q845-20 853-34Q861-48 868-62L868-62Q877-94 897-69L897-69Q913-53 913-24L913-24Q909-1 874 28L874 28Q857 40 823.50 58.50Q790 77 736 102L736 102L728 89Q774 51 817 9L817 9L631 2L631 130L776 130L776 99L833 121Q830 138 829.50 154Q829 170 829 188L829 188ZM440 159L440 284L577 284L577 159L440 159ZM362 623L362 623L357 613Q393 571 404 523L404 523Q425 476 443 508L443 508Q473 538 455 563L455 563Q444 588 362 623Z"/></svg>