<svg id="U22BE7" viewBox="0 0 1024 1024"><path transform="translate(0, 921.6) scale(1,-1)" d="M50 581L186 581Q186 646 185.50 703Q185 760 183 807L183 807L273 772L241 743L241 581L290 581L332 627L380 552L241 552L241 396L351 459L358 442L241 345L241 11Q246-74 163-101L163-101Q172-65 79-33L79-33L79-15Q103-18 123-18L123-18L157-18Q186-18 186 28L186 28L186 306Q136 268 114 248Q92 228 92 228L92 228L40 286Q60 291 96.50 311.50Q133 332 186 361L186 361L186 552L112 552L83 539L50 581ZM539 381L613 319L581 309Q546 239 504 180L504 180Q530 156 549.50 137.50Q569 119 581 102L581 102Q607 71 591 24L591 24Q580 5 568 9.50Q556 14 542 41L542 41Q528 72 510.50 95Q493 118 474 141L474 141Q439 89 393.50 43.50Q348-2 290-40L290-40L280-22Q336 29 375.50 80Q415 131 438 173L438 173L326 286L338 299L461 206Q515 290 539 381L539 381ZM552 788L633 730L601 727Q578 685 559 650.50Q540 616 523 584L523 584Q546 560 563.50 542Q581 524 594 510L594 510Q619 480 601 439L601 439Q580 400 558 445L558 445Q548 469 531.50 491Q515 513 494 539L494 539Q432 440 335 361L335 361L322 384Q372 437 406.50 483Q441 529 461 571L461 571L338 704L344 717L484 610Q510 663 525.50 706.50Q541 750 552 788L552 788ZM950-26L944-46Q916-37 883-75L883-75Q841-27 810 20.50Q779 68 759 121L759 121Q676-14 516-111L516-111L509-92Q588-30 641.50 35.50Q695 101 733 170L733 170Q675 334 675 481L675 481Q644 407 597 342L597 342L584 348Q626 445 657.50 559.50Q689 674 713 811L713 811L791 772L759 756Q747 718 736 676.50Q725 635 711 584L711 584L869 584L901 630L956 562L869 562Q861 435 843.50 337.50Q826 240 791 170L791 170Q860 33 950-26L950-26ZM701 559L684 520Q691 452 709 377.50Q727 303 759 218L759 218Q777 269 791.50 353.50Q806 438 817 559L817 559L701 559Z"/></svg>