<svg id="U226DF" viewBox="0 0 1024 1024"><path transform="translate(0, 921.6) scale(1,-1)" d="M663 172L663 172L663-16L550-16L550 230L576 259L525 305L495 266L408 266L408 478L502 478L502 442L554 469Q551 492 550.50 514.50Q550 537 550 562L550 562L550 723L663 723L663 517L641 497L686 452L714 478L805 478L805 266L708 266L656 295Q656 268 659.50 235.50Q663 203 663 172ZM357 427L357 427L357 278L331 263L376 204L405 240L502 240L502-16L296-16L334-55Q364-45 418-45L418-45L940-45L869 24L830-16L711-16L711 240L805 240L805 201L860 221Q854 241 853.50 266Q853 291 853 320L853 320L853 465L885 491L827 546L795 504L711 504L711 723L888 723L827 790L782 748L316 748L354 710Q381 723 438 723L438 723L502 723L502 504L405 504L354 523Q356 496 356.50 473Q357 450 357 427ZM132 591L132 591L115 591Q106 479 58 433L58 433Q14 388 28 365L28 365Q33 339 61 346L61 346Q92 352 112 400L112 400Q136 446 132 591ZM180 616L180 616L180 127Q180 82 179.50 29Q179-24 177-93L177-93L237-55Q235-30 235 3L235 3Q235 37 235 82L235 82L235 739L270 768L177 819Q179 771 179.50 720.50Q180 670 180 616ZM254 626L254 626L244 620Q261 578 272 544.50Q283 511 286 484L286 484Q290 433 316 433L316 433Q340 433 348 469L348 469Q353 503 331 532L331 532Q319 552 299.50 574.50Q280 597 254 626Z"/></svg>