<svg id="U2291B" viewBox="0 0 1024 1024"><path transform="translate(0, 921.6) scale(1,-1)" d="M700 613L700 747L809 747L809 613L700 613ZM329 546L329 546L377 565L377 588L809 588L809 553L860 568Q854 601 855 642.50Q856 684 856 738L856 738L886 761L831 808L803 776L377 776L329 804Q331 775 331.50 744Q332 713 332 677L332 677Q332 638 331.50 606Q331 574 329 546ZM377 613L377 747L482 747L482 613L377 613ZM530 613L530 747L648 747L648 613L530 613ZM530 428L530 428L332 411Q351 428 370 448Q389 468 406 485L406 485Q436 517 473 533L473 533L409 571Q394 537 378.50 509.50Q363 482 345 466L345 466Q301 428 281 425L281 425L316 354Q337 366 360 372Q383 378 409 386L409 386Q437 390 469 393.50Q501 397 537 405L537 405Q546 387 551.50 375.50Q557 364 562 357L562 357Q562 344 575 350L575 350Q587 354 595 376L595 376Q601 387 596 400Q591 413 582 430L582 430Q567 447 543.50 464Q520 481 492 501L492 501L485 488Q519 435 530 428ZM312-95L312-95L367-70L367 75L515 75L515 2Q515-25 489-25L489-25Q475-22 456.50-19.50Q438-17 415-12L415-12L415-29Q481-53 485-99L485-99Q565-69 565 2L565 2L565 290L588 309L533 354L508 325L364 325L312 354Q315 309 315.50 250.50Q316 192 316 117L316 117Q316 39 315.50-11.50Q315-62 312-95ZM367 222L367 297L515 297L515 222L367 222ZM367 104L367 194L515 194L515 104L367 104ZM642 472L642 472L642 363Q629 286 713 290L713 290L838 290Q883 285 911 325L911 325Q887 344 883 357L883 357Q873 370 873 430L873 430L860 430Q860 401 857.50 383Q855 365 853 350L853 350Q849 328 812 328L812 328L723 328Q690 328 690 370L690 370L690 411Q739 436 799 456L799 456Q848 472 879 472L879 472L828 533Q809 511 773.50 486Q738 461 690 440L690 440L690 508L720 530L636 561Q636 538 639 515.50Q642 493 642 472ZM648 155L648 155L648-29Q648-75 700-79L700-79L844-79Q895-79 921-25L921-25Q886-5 883 14L883 14Q879 29 879 104L879 104L863 104Q858 45 851 2L851 2Q846-31 821-31L821-31L741-31Q689-31 700 11L700 11L700 89Q735 107 767 123.50Q799 140 825 152L825 152Q876 175 892 175L892 175L848 232Q825 201 786 175L786 175Q767 160 744 143.50Q721 127 700 110L700 110L700 197L726 225L645 267Q645 241 646.50 212.50Q648 184 648 155ZM111 584L111 584L96 584Q77 462 44 425L44 425Q20 386 23 373L23 373Q37 353 60 367L60 367Q96 376 101 408L101 408Q115 442 111 584ZM149 603L149 603L149 117Q149 72 148.50 21Q148-30 146-102L146-102L201-64Q198-37 198-5L198-5Q198 27 198 72L198 72L198 725L229 761L146 808Q148 760 148.50 709Q149 658 149 603ZM220 629L220 629L211 623Q225 584 232.50 552.50Q240 521 246 495L246 495Q250 441 271 453L271 453Q295 467 300 491L300 491Q309 517 287 549L287 549Q279 560 262.50 580Q246 600 220 629Z"/></svg>