<svg id="U22358" viewBox="0 0 1024 1024"><path transform="translate(0, 921.6) scale(1,-1)" d="M826 272L826 686L856 712L793 760L764 715L419 715Q436 734 451 746Q466 758 480 773L480 773L514 790L435 826Q425 799 416 772Q407 745 392 715L392 715L232 715L172 744Q174 682 174.50 621.50Q175 561 175 500L175 500Q175 434 174.50 372Q174 310 172 249L172 249L232 269L232 282L767 282L767 258L826 272ZM232 307L232 688L767 688L767 307L232 307ZM686 36L686 128L968 128L901 206L845 158L686 158L686 226L718 252L626 286L626 158L366 158L366 226L399 247L304 282Q310 263 311 231.50Q312 200 312 158L312 158L52 158L86 122Q105 124 123 126Q141 128 161 128L161 128L304 128Q295 76 235 18L235 18Q203-11 162-35.50Q121-60 71-81L71-81L77-97Q221-58 292 6L292 6Q359 67 363 128L363 128L626 128L626 6Q626-6 624.50-33Q623-60 623-97L623-97L689-78Q686-51 686-23L686-23Q686 5 686 36L686 36ZM447 451L447 556L556 556L556 451L447 451ZM556 683L556 585L447 585L447 630L477 653L396 686L396 585L278 585L315 548Q335 552 355 554Q375 556 396 556L396 556L396 451L266 451L302 418Q322 422 336.50 423.50Q351 425 360 425L360 425L396 425L396 300L447 300L447 425L556 425L556 300L608 300L608 425L754 425L695 490L657 451L608 451L608 556L738 556L680 620L644 585L608 585L608 628L637 649L556 683Z"/></svg>