<svg id="U2268A" viewBox="0 0 1024 1024"><path transform="translate(0, 921.6) scale(1,-1)" d="M782 332L220 332L220 729L782 729L782 332ZM837 452L837 452L837 712L870 741L805 793L776 754L223 754L162 790Q163 751 163.50 686Q164 621 164 521L164 521Q164 422 163.50 356.50Q163 291 162 257L162 257L223 273L223 303L779 303L779 267L840 279Q837 318 837 361L837 361Q837 404 837 452ZM184 195L164 198Q130 94 77 56L77 56Q31 19 56 0L56 0Q69-10 103-4L103-4Q129 1 155 46L155 46Q163 64 172 100.50Q181 137 184 195L184 195ZM424 267L418 250Q460 214 483 182Q506 150 519 127L519 127Q532 72 558 78L558 78Q579 81 583 120L583 120Q583 163 554 192L554 192Q539 206 504.50 224Q470 242 424 267L424 267ZM766 215L759 198Q850 107 870 49L870 49Q894-4 915 10L915 10Q938 27 938 56L938 56Q938 86 902 127L902 127Q887 144 853.50 165Q820 186 766 215L766 215ZM282-1L282-1Q282-86 379-82L379-82L664-82Q746-82 782-27L782-27Q745-17 740 10L740 10Q727 35 727 130L727 130L707 130Q707 84 698 26L698 26Q690-31 629-27L629-27L402-27Q332-32 340 29L340 29L340 159L375 188L279 234Q281 189 281.50 130.50Q282 72 282-1ZM607 322L395 322L395 478L607 478L607 322ZM626 553L600 511L395 511L336 540Q339 500 339.50 464.50Q340 429 340 399L340 399Q340 334 336 322L336 322L662 322L662 475L688 501L626 553ZM448 738L389 738Q389 601 233 540L233 540L240 526Q436 568 448 738L448 738ZM574 738L574 634Q574 568 622 568L622 568Q799 554 769 592L769 592Q752 621 737 621L737 621Q729 621 711 618.50Q693 616 662 614L662 614Q626 614 626 670L626 670L626 738L574 738Z"/></svg>