<svg id="U22F23" viewBox="0 0 1024 1024"><path transform="translate(0, 921.6) scale(1,-1)" d="M175 59L175 267L367 267L367 59L175 59ZM249 606L249 606L50 606L84 575Q101 577 117.50 579Q134 581 155 581L155 581L249 581L249 432L88 432L124 401Q143 403 163.50 405Q184 407 202 407L202 407L454 407L398 478L367 432L302 432L302 581L504 581L448 656L408 606L302 606L302 718L329 749L242 786Q247 760 248 717Q249 674 249 606ZM162 292L119 320Q121 301 121.50 253.50Q122 206 122 127L122 127Q122 52 121.50 2.50Q121-47 119-76L119-76L175-54L175 31L367 31L367-26L426-6Q419 8 418 31.50Q417 55 417 87L417 87L417 252L451 273L398 329L370 292L162 292ZM625 656L625 432L448 432L485 395L523 407Q534 325 558.50 250Q583 175 628 102L628 102Q583 52 514.50 8Q446-36 345-76L345-76L349-95Q542-46 659 62L659 62Q753-40 883-88L883-88Q892-49 942-45L942-45L942-29Q804-12 694 99L694 99Q731 155 763.50 228Q796 301 817 391L817 391L855 413L796 467L771 432L674 432L674 587L904 587L852 665L812 615L674 615L674 721L709 752L622 789Q622 757 623.50 721.50Q625 686 625 656L625 656ZM544 407L544 407L768 407Q748 327 723.50 259.50Q699 192 659 137L659 137Q580 251 544 407Z"/></svg>