<svg id="U22CD6" viewBox="0 0 1024 1024"><path transform="translate(0, 921.6) scale(1,-1)" d="M45 573L177 573Q177 645 176.50 706Q176 767 174 815L174 815L255 783L229 754L229 573L232 573L271 615L342 548L229 548L229 329L335 377L345 364L229 287L229 19Q234-58 155-93L155-93Q155-49 71-22L71-22L71-7Q132-13 148-20L148-20Q177-20 177 29L177 29L177 254Q91 195 87 183L87 183L32 251Q60 256 96 271Q132 286 177 309L177 309L177 548L126 548L84 535L45 573ZM690 693L754 661Q740 647 730 636Q720 625 712 615L712 615Q707 605 697.50 589.50Q688 574 674 554L674 554L812 554L832 590L886 544L861 522L861 332L883 374L951 306L861 306L861 100Q861 26 799 6L799 6Q786 50 719 64L719 64L719 80L799 80Q804 85 808 94Q812 103 812 125L812 125L812 306L619 306Q613 245 605.50 200.50Q598 156 583 125L583 125Q568 96 542 61Q516 26 474-7L474-7L461 9Q567 124 567 306L567 306L561 306L516 293L480 332L570 332Q570 423 568.50 488Q567 553 567 590L567 590L609 554L654 554Q666 596 675 628.50Q684 661 690 693L690 693ZM812 528L619 528L619 332L812 332L812 528ZM654 477L664 493Q695 475 718 460.50Q741 446 751 432L751 432Q774 399 751 367L751 367Q726 337 712 387L712 387Q702 432 654 477L654 477ZM654 258L654 258L664 274Q697 256 722 240Q747 224 754 209L754 209Q775 179 751 145L751 145Q728 110 719 158L719 158Q710 196 654 258ZM551 693L513 731L819 731L857 773L925 706L635 706Q611 703 589.50 701Q568 699 551 693L551 693ZM506-67L467-28L838-28L874 13L944-54L590-54Q563-54 543-58Q523-62 506-67L506-67ZM429 570L429 58L429-14Q429-49 432-80L432-80L380-102Q383-30 383.50 24.50Q384 79 384 116L384 116L384 622Q384 667 383.50 713.50Q383 760 380 809L380 809L455 767L429 735L429 583Q487 557 509 541L509 541Q543 513 535 490L535 490Q535 458 522 448L522 448Q507 433 490 474L490 474Q485 495 469 518Q453 541 429 570L429 570ZM348 544L361 544Q361 483 345 435L345 435Q329 391 303 377L303 377Q268 366 264 390L264 390Q258 415 287 435L287 435Q317 457 348 544L348 544Z"/></svg>