<svg id="U22DB7" viewBox="0 0 1000 1000"><path transform="translate(0, 900) scale(1,-1)" d="M639 193L639 130L778 130L778-71L840-71L840 130L964 130L964 193L840 193L840 315L943 315L943 375L840 375L840 479L778 479L778 375L723 375C729 402 734 430 738 459L684 467C674 387 658 310 623 254C637 249 662 236 673 229C687 254 698 283 708 315L778 315L778 193ZM417 703L516 703C496 662 470 617 447 585L342 585C372 622 396 662 417 703ZM407 849C387 777 348 686 286 617C299 611 317 597 329 585L323 585L323 351C323 234 316 72 255-46C269-52 295-69 305-79C345-4 365 93 374 186L553 186L553-1C553-12 549-15 538-15C527-16 493-16 455-15C464-31 472-58 474-74C527-74 561-73 584-64C605-53 611-34 611-1L611 585L516 585C546 631 579 689 601 740L559 766L549 763L444 763C454 789 463 815 471 840ZM382 523L445 523L445 419L382 419ZM382 358L445 358L445 248L379 248C381 285 382 320 382 351ZM553 523L553 419L492 419L492 523ZM553 358L553 248L492 248L492 358ZM637 795L637 735L731 735C719 654 691 579 624 535C638 526 656 505 664 491C743 546 777 636 790 735L879 735C873 627 867 585 857 573C852 567 846 565 836 565C826 565 805 565 779 568C788 552 793 526 795 507C821 506 847 506 862 508C883 510 895 516 908 531C926 552 934 612 940 768C941 777 941 795 941 795ZM141 840L141 638L48 638L48 573L141 573L141 345L38 309L58 242L141 273L141 9C141-2 137-5 128-5C119-6 92-6 61-5C70-24 77-52 79-69C127-70 157-67 178-56C197-45 205-26 205 9L205 298L287 331L275 396L205 369L205 573L274 573L274 638L205 638L205 840Z"/></svg>