<svg id="U22149" viewBox="0 0 1024 1024"><path transform="translate(0, 921.6) scale(1,-1)" d="M358 665L154 665L154 560L358 560L358 665ZM358 534L154 534L154 433L358 433L358 534ZM283 62L283 76Q309 73 328 71Q347 69 358 69L358 69Q384 69 379 95L379 95L379 283L273 283L273 16L273-27Q273-49 276-70L276-70L218-99Q220-54 220.50 40.50Q221 135 221 283L221 283L125 283L125 29L69-7Q72 22 72.50 66Q73 110 73 167L73 167Q73 220 72.50 262Q72 304 69 334L69 334L125 312L221 312L221 404L154 404L154 390L100 370Q104 417 105 465.50Q106 514 106 567L106 567Q106 618 105 656Q104 694 100 724L100 724L158 694L201 694Q215 723 226 755Q237 787 247 822L247 822L316 783L289 767Q274 747 257.50 729Q241 711 226 694L226 694L354 694L379 728L437 688L411 662L411 512Q411 474 411.50 447.50Q412 421 415 404L415 404L358 373L358 404L273 404L273 312L375 312L401 344L457 298L430 272L430 91Q430 40 411 26L411 26Q400 15 388 9.50Q376 4 361-3L361-3Q356 43 283 62L283 62ZM804 505L542 505L542 373L804 373L804 505ZM542 315L486 291Q486 329 489.50 364Q493 399 493 426L493 426L493 553Q493 582 489.50 622Q486 662 486 717L486 717L546 685L604 685Q619 726 630 759.50Q641 793 647 822L647 822L725 780L696 767L627 685L800 685L824 721L883 682L856 655L856 404Q856 384 856.50 365.50Q857 347 860 330L860 330L804 301L804 344L542 344L542 315ZM804 658L542 658L542 534L804 534L804 658ZM404-92L397-82Q424-57 447-33.50Q470-10 493 16L493 16Q511 43 526 81Q541 119 554 167L554 167Q562 216 566.50 262.50Q571 309 571 354L571 354L624 354Q618 140 565 52L565 52Q535 5 497.50-30Q460-65 404-92L404-92ZM696 13L696 13L696 354L746 354L746 36Q746-17 784-10L784-10L860-10Q896-18 896 33L896 33L896 121L915 121Q906 79 918 40L918 40Q923-1 957-7L957-7Q938-43 883-59L883-59L749-59Q696-54 696 13Z"/></svg>