<svg id="U22703" viewBox="0 0 1024 1024"><path transform="translate(0, 921.6) scale(1,-1)" d="M138 782L126 770Q193 706 210 670L210 670Q229 628 249 648L249 648Q271 666 267 693L267 693Q267 722 249 731L249 731Q241 738 212.50 749Q184 760 138 782L138 782ZM68 644L63 631Q112 590 132 544L132 544Q159 500 177 519L177 519Q198 538 190 564L190 564Q190 595 152 609L152 609Q134 617 114 625.50Q94 634 68 644L68 644ZM50 415L50 415L50 400Q80 392 101 388.50Q122 385 130 380L130 380Q152 366 132 316L132 316Q119 267 158 245L158 245Q195 221 200 248L200 248Q202 260 203 281.50Q204 303 207 335L207 335Q211 404 339 593L339 593L322 606Q198 431 162 422L162 422Q125 406 50 415ZM835 499L835 499L867 519L802 567L763 529L641 529L641 644L954 644L882 721L831 670L641 670L641 747L683 773L580 812Q580 773 581.50 737Q583 701 583 670L583 670L297 670L339 634Q373 644 416 644L416 644L583 644L583 529L461 529L400 561Q400 519 401.50 481Q403 443 403 409L403 409Q403 375 401.50 335.50Q400 296 400 254L400 254L461 283L461 313L776 313L776 261L838 283Q835 315 835 369L835 369Q835 424 835 499ZM461 342L461 502L776 502L776 342L461 342ZM358 23L358 23L358 155L386 177L297 216Q298 187 298.50 161.50Q299 136 299 110L299 110L299-1Q299-65 409-65L409-65L657-65Q749-65 780-10L780-10Q724-5 724 126L724 126L712 126Q712 89 708.50 63Q705 37 702 17L702 17Q697-13 634-13L634-13L409-13Q358-13 358 23ZM783 203L773 191Q842 122 880 49L880 49Q908-24 937 26L937 26Q964 74 918 113L918 113Q893 134 861 156.50Q829 179 783 203L783 203ZM197 184L177 184Q157 82 107 45L107 45Q52 7 81-10L81-10Q113-30 148-5L148-5Q197 17 197 184L197 184ZM574 87L574 87Q601 124 577 155L577 155Q557 184 441 241L441 241L435 229Q499 163 525 104L525 104Q550 43 574 87Z"/></svg>