<svg id="U2225D" viewBox="0 0 1024 1024"><path transform="translate(0, 921.6) scale(1,-1)" d="M468 840L458 833Q523 758 515 711L515 711L234 711L145 754Q147 706 147 661L147 661Q147 617 147 572L147 572L147 368Q147 87 18-91L18-91L27-96Q214 90 214 347L214 347L214 681L954 681L887 764L836 711L548 711Q644 755 468 840L468 840ZM323-37L323-37L369-103Q394-80 454-42Q514-4 611 47L611 47L600 63L405-10L405 222L512 222Q535 141 623 44L623 44Q668-2 729.50-34Q791-66 872-83L872-83Q880-44 954-34L954-34L954-13Q905-10 864.50-2Q824 6 789 17L789 17Q751 27 716.50 43.50Q682 60 653 83L653 83Q680 95 714.50 110.50Q749 126 799 149L799 149L848 143L776 222Q754 197 720 165.50Q686 134 633 99L633 99Q600 131 577 161.50Q554 192 534 222L534 222L947 222L878 294L828 249L204 249L243 208Q259 213 279 217.50Q299 222 326 222L326 222L346 222L346 21Q341-32 323-37ZM389 490L389 592L548 592L548 490L389 490ZM608 490L608 592L769 592L769 490L608 490ZM389 354L389 460L548 460L548 354L389 354ZM608 354L608 460L769 460L769 354L608 354ZM329 285L329 285L389 298L389 328L769 328L769 294L832 314Q828 346 828 374L828 374Q828 402 828 427L828 427L828 583L854 611L792 655L766 619L389 619L329 651Q334 611 335 584.50Q336 558 336 550L336 550L336 394Q336 379 335 352Q334 325 329 285Z"/></svg>