<svg id="U22A26" viewBox="0 0 1024 1024"><path transform="translate(0, 921.6) scale(1,-1)" d="M547 237L237 237L275 199Q311 209 384 209L384 209L547 209L547 87Q547 41 545-0.50Q543-42 543-87L543-87L605-59Q602-26 601.50 8Q601 42 601 87L601 87L601 209L944 209L876 279L838 237L601 237L601 333L630 355L543 400Q543 358 545 328.50Q547 299 547 282L547 282L547 237ZM829 493L829 593L854 615L796 663L764 621L252 621L252 688L192 714Q194 651 196 583Q198 515 195 445L195 445Q195 378 187.50 310Q180 242 166 170L166 170Q135 36 40-74L40-74L50-87Q172 20 211 145L211 145Q230 214 241 280.50Q252 347 252 416L252 416L771 416L771 372L835 397Q829 418 829 442L829 442Q829 467 829 493L829 493ZM252 442L252 596L771 596L771 442L252 442ZM710 721L710 721Q731 725 757 726.50Q783 728 819 730L819 730L764 813Q709 779 582 749L582 749Q525 736 434 720.50Q343 705 214 688L214 688L211 669Q443 690 567 704Q691 718 710 721Z"/></svg>