<svg id="U223C1" viewBox="0 0 1024 1024"><path transform="translate(0, 921.6) scale(1,-1)" d="M139 333L162 524L329 524L329 470L392 510Q389 528 389 541L389 541Q389 554 389 566L389 566L389 727L422 753L359 806L326 756L61 756L99 717Q114 725 135 727.50Q156 730 185 730L185 730L329 730L329 550L162 550L105 583Q103 524 97.50 464Q92 404 83 343L83 343L55 330L99 281L139 307L336 307Q325 204 314 142Q303 80 290 51L290 51Q273 0 240-10L240-10Q209-17 119 4L119 4L119-18Q175-24 198-50L198-50Q220-60 224-92L224-92Q280-70 309-32L309-32Q343 5 362 87L362 87Q369 129 378 178.50Q387 228 392 293L392 293L428 321L365 376L336 333L139 333ZM864 740L411 740L450 705Q470 710 491.50 710.50Q513 711 539 714L539 714L973 714L904 787L864 740ZM835 30L500 8Q639 109 867 461L867 461L910 481L821 537Q801 485 779 441.50Q757 398 734 360L734 360L504 346Q556 403 602 472Q648 541 691 629L691 629L734 652L645 705Q630 640 606 581.50Q582 523 549 467L549 467Q483 360 438 360L438 360L468 272Q519 306 723 330L723 330Q691 279 651 226Q611 173 563 116L563 116Q458 5 422 15L422 15L464-75Q506-33 844 12L844 12Q854-7 863-25.50Q872-44 878-62L878-62Q893-94 914-68L914-68Q936-42 930 4L930 4Q921 43 754 172L754 172L743 161Q773 127 795.50 94Q818 61 835 30L835 30Z"/></svg>