<svg id="U2246" viewBox="0 0 572 1000"><path transform="translate(0, 900) scale(1,-1)" d="M51 451L51 451L51 529Q101 582 170 582L170 582Q232 582 296 552L296 552Q360 523 406 523L406 523Q432 523 462.50 538.50Q493 554 521 582L521 582L521 505Q472 451 401 451L401 451Q340 451 275 481L275 481Q211 510 164 510L164 510Q140 510 110 495Q80 480 51 451ZM194 158L51 158L51 229L228 229L271 318L51 318L51 389L304 389L326 434L386 406L378 389L521 389L521 318L344 318L301 229L521 229L521 158L267 158L210 38L150 66L194 158Z"/></svg>