<svg id="U22D66" viewBox="0 0 1024 1024"><path transform="translate(0, 921.6) scale(1,-1)" d="M177 723L177 586L43 586L75 556L105 559L177 559L177 340Q126 305 91 281.50Q56 258 29 251L29 251L88 189Q92 196 114 219Q136 242 177 280L177 280L177 25Q177-23 147-23L147-23Q132-20 114-19Q96-18 68-15L68-15L68-33Q154-51 154-102L154-102Q234-69 230 19L230 19L230 323L335 422L327 438L230 370L230 559L347 559L298 632L269 586L230 586L230 763L256 789L170 822Q172 794 174.50 769.50Q177 745 177 723L177 723ZM446 753L472 763L397 816Q391 771 382 727Q373 683 364 641L364 641Q345 560 295 451L295 451L315 442Q339 478 358.50 514Q378 550 394 592L394 592L420 592L420 370L275 370L304 330Q333 340 370 340L370 340L417 340Q411 213 370 101L370 101Q332-1 252-82L252-82L269-96Q416 37 446 198L446 198Q475 160 495 125Q515 90 528 61L528 61Q543-12 567 32L567 32Q583 55 574 101L574 101Q550 148 449 218L449 218Q454 247 460 278Q466 309 466 340L466 340L593 340L548 405L514 370L469 370L469 592L587 592L537 664L499 618L400 618Q413 647 423 681Q433 715 446 753L446 753ZM866 708L548 708L574 677Q597 686 636 681L636 681L960 681L905 756L866 708ZM885 513L885 513L922 527L875 586L840 547L649 547L596 583Q596 536 598 492.50Q600 449 600 412L600 412Q600 369 598 327Q596 285 596 238L596 238L653 261L653 291L832 291L832 258L892 271Q886 300 885.50 359.50Q885 419 885 513ZM653 317L653 521L832 521L832 317L653 317ZM613 215L613 215L600 203Q622 149 633 109.50Q644 70 653 41L653 41Q657-16 688 15L688 15Q697 32 703 49.50Q709 67 701 87L701 87Q696 106 673 137Q650 168 613 215ZM741-23L528-23L570-66Q605-50 675-50L675-50L971-50L911 28L866-23L761-23Q792 55 811 99Q830 143 835 153L835 153Q843 164 854 175.50Q865 187 879 198L879 198L810 242Q802 223 786 157.50Q770 92 741-23L741-23Z"/></svg>