<svg id="U22C51" viewBox="0 0 1000 1000"><path transform="translate(0, 900) scale(1,-1)" d="M425 416L425 251C425 159 412 42 317-43C333-51 362-72 374-84C474 7 494 146 494 250L494 363L598 375L598-70L667-70L667 384L762 400C773 186 799 11 888-80C898-60 922-31 939-17C858 57 835 223 825 412C863 420 897 429 928 439L870 491C768 458 583 431 425 416ZM171 839L171 638L52 638L52 568L171 568L171 348C121 332 74 319 37 309L57 235L171 272L171 12C171-1 167-4 156-4C145-5 112-5 74-4C84-23 93-55 95-73C151-73 187-71 209-59C232-48 240-27 240 12L240 295L350 332L340 400L240 369L240 568L347 568L347 638L240 638L240 839ZM603 833C612 813 622 788 631 766L383 766L383 615L452 615L452 705L553 705C543 604 509 557 372 529C386 516 404 488 410 471C564 510 606 577 617 705L690 705L690 594C690 529 704 505 769 505C784 505 856 505 873 505C896 505 921 506 934 510C931 525 930 549 928 566C914 563 887 562 872 562C856 562 791 562 776 562C758 562 755 569 755 593L755 705L852 705L852 622L923 622L923 766L709 766C700 791 686 822 673 847Z"/></svg>