<svg id="U2205D" viewBox="0 0 1024 1024"><path transform="translate(0, 921.6) scale(1,-1)" d="M552 251L552 251L839 251L839 79Q839 46 813 41L813 41Q793 36 686 50L686 50L686 31Q724 21 750 15Q776 9 788 0L788 0Q809-10 820-38L820-38Q900-9 896 76L896 76L896 241L921 273L858 317L832 276L552 276L552 321L584 352L489 387Q493 363 494 336Q495 309 495 276L495 276L209 276L142 302Q144 260 144.50 218Q145 176 145 136L145 136Q145 93 144.50 52.50Q144 12 142-25L142-25L206 3L206 251L495 251Q495 101 494 18.50Q493-64 489-86L489-86L556-57Q552-54 552 251ZM546 674L546 674L804 674L804 531Q804 489 772 489L772 489Q757 489 727 489.50Q697 490 657 496L657 496L657 477Q759 467 788 413L788 413Q861 435 861 527L861 527L861 670L890 699L829 744L797 702L546 702L546 750L581 782L486 811Q486 789 487.50 761Q489 733 489 702L489 702L228 702L164 728Q166 686 166.50 646.50Q167 607 167 565L167 565Q167 522 166.50 484.50Q166 447 164 419L164 419L228 451L228 674L489 674Q489 560 487.50 490.50Q486 421 486 397L486 397L552 429Q546 435 546 674Z"/></svg>