<svg id="U22921" viewBox="0 0 1024 1024"><path transform="translate(0, 921.6) scale(1,-1)" d="M563 50L563 181L588 200L546 255L511 217L393 217Q414 247 430 279Q446 311 460 347L460 347L598 347L546 411L505 373L272 373L307 338Q324 340 340.50 343.50Q357 347 377 347L377 347L406 347Q343 171 223 53L223 53L230 37Q265 63 297 88Q329 113 348 142L348 142Q348 113 346.50 54Q345-5 345-95L345-95L393-67L393-19L511-19L511-76L566-44Q563-16 563 6L563 6Q563 28 563 50L563 50ZM879 181L879 181L905 200L851 255L825 217L709 217Q724 243 738 274Q752 305 767 347L767 347L937 347L882 415L837 373L588 373L623 338Q640 340 657.50 343.50Q675 347 697 347L697 347L709 347Q688 265 651 188.50Q614 112 563 40L563 40L569 31Q595 52 614.50 75.50Q634 99 652 124L652 124Q652 70 650.50 17.50Q649-35 649-92L649-92L704-73L704-19L829-19L829-79L882-54Q879-22 879 34L879 34Q879 91 879 181ZM393 5L393 190L511 190L511 5L393 5ZM704 5L704 190L829 190L829 5L704 5ZM581 728L581 728L914 728L857 796L806 754L326 754L361 721Q381 725 398 726.50Q415 728 431 728L431 728L521 728Q485 665 433.50 601.50Q382 538 310 475L310 475L316 469Q370 491 441 553L441 553Q441 502 438 463Q435 424 435 395L435 395L489 418L489 453L757 453L757 402L809 421Q806 444 806 465L806 465Q806 486 806 511L806 511L806 603L841 629L787 677L751 638L511 638Q528 662 546 683Q564 704 581 728ZM489 606L501 613L757 613L757 478L489 478L489 606ZM130 584L130 584L115 584Q100 459 67 421L67 421Q38 385 49 373L49 373Q55 349 85 367L85 367Q112 374 124 408L124 408Q128 425 130.50 468Q133 511 130 584ZM165 603L165 603L165 117Q165 72 164 19.50Q163-33 160-102L160-102L217-64Q214-39 214-6L214-6Q214 27 214 72L214 72L214 725L246 757L160 808Q163 760 164 708.50Q165 657 165 603ZM236 629L236 629L227 623Q240 585 248 553Q256 521 258 495L258 495Q268 443 287 453L287 453Q308 467 313 491L313 491Q317 519 303 549L303 549Q295 560 278.50 580Q262 600 236 629Z"/></svg>