<svg id="U2261A" viewBox="0 0 1024 1024"><path transform="translate(0, 921.6) scale(1,-1)" d="M136 575L136 575L123 575Q113 453 75 412L75 412Q37 352 48 335L48 335Q62 312 91 322L91 322Q121 339 136 380L136 380Q155 426 136 575ZM190 598L190 598L190 117Q190 72 189.50 19.50Q189-33 187-99L187-99L247-62Q245-39 245-6L245-6Q245 27 245 72L245 72L245 726L274 751L187 799Q189 753 189.50 704Q190 655 190 598ZM251 620L251 620L242 613Q258 573 268 540.50Q278 508 283 482L283 482Q287 431 312 431L312 431Q338 431 344 463L344 463Q348 503 328 533L328 533Q316 550 297 573Q278 596 251 620ZM565 588L565 588L440 588L440 626L424 626Q404 521 367 488L367 488Q332 448 350 435L350 435Q372 412 392 428L392 428Q417 432 427 463L427 463Q431 481 435.50 504Q440 527 440 559L440 559L565 559Q559 450 536.50 357Q514 264 481 185L481 185Q401 21 264-79L264-79L270-92Q441-6 526 159L526 159Q568 246 592.50 345.50Q617 445 622 559L622 559L795 559L750 450L766 443Q827 551 901 563L901 563L827 633L788 588L622 588L628 738L661 767L568 809Q568 771 567.50 716Q567 661 565 588ZM628 41L628 41Q620-63 708-60L708-60L843-60Q907-63 939-9L939-9Q901 1 897 57L897 57Q883 111 894 117L894 117L875 117Q875 91 871.50 68Q868 45 866 21L866 21Q853-19 814-15L814-15L728-15Q673-19 683 47L683 47L683 357L715 383L625 422Q625 393 626.50 297.50Q628 202 628 41ZM744 342L734 332Q760 296 780 262.50Q800 229 808 201L808 201Q823 136 853 165L853 165Q875 193 875 227L875 227Q875 259 744 342L744 342Z"/></svg>