<svg id="U22E8A" viewBox="0 0 1024 1024"><path transform="translate(0, 921.6) scale(1,-1)" d="M50 568L186 568Q186 633 185 687.50Q184 742 179 790L179 790L265 755L233 726L233 568L284 568L319 612L369 539L233 539L233 391L328 448L334 432L233 343L233 17Q238-64 151-94L151-94Q160-55 81-27L81-27L81-11Q93-12 103-12L103-12Q113-12 123-12L123-12L154-12Q186-12 186 30L186 30L186 302Q134 264 110 243Q86 222 91 220L91 220L40 280Q63 289 99 308.50Q135 328 186 359L186 359L186 539L110 539L85 533L50 568ZM306 353L296 372Q513 489 607 644L607 644L664 597L648 587Q771 453 939 438L939 438L939 429Q891 417 872 375L872 375Q701 456 629 574L629 574Q567 501 485.50 446Q404 391 306 353L306 353ZM733 454L733 454L793 397L758 397L679 340L664 353Q685 377 702 402Q719 427 733 454ZM702-46L702-24Q743-26 765-28Q787-30 796-27L796-27Q813-21 813 27L813 27L813 312L645 312L645 277L645-52L597-62L597 312L423 312L423-82L369-97Q371-71 371.50-17.50Q372 36 372 122L372 122Q372 205 371.50 260Q371 315 369 350L369 350L426 337L597 337L597 480L676 442L645 422L645 337L803 337L831 369L892 334L863 315L863-12Q863-75 796-103L796-103Q778-58 752-52L752-52Q732-49 721-47.50Q710-46 702-46L702-46ZM436 432L445 442Q524 422 540 397L540 397Q556 367 530 353L530 353Q522 339 513 343Q504 347 493 369L493 369Q483 386 468.50 400.50Q454 415 436 432L436 432ZM664 280L727 245Q736 259 741.50 273.50Q747 288 755 305L755 305L803 274L787 267L758 232Q773 221 781 209Q789 197 796 188L796 188Q807 174 796 150L796 150Q782 132 775 150L775 150Q768 160 758.50 172Q749 184 737 198L737 198Q719 181 698.50 166.50Q678 152 657 138L657 138L645 147Q663 163 680.50 181.50Q698 200 708 220L708 220L657 267L664 280ZM436 280L506 245Q513 256 519 270.50Q525 285 530 305L530 305L582 274L565 267L534 232Q565 206 572 188L572 188Q587 174 572 150L572 150Q566 133 550 150L550 150Q545 162 534 174Q523 186 512 198L512 198Q469 161 430 138L430 138L417 147Q437 163 454 180.50Q471 198 483 220L483 220L430 267L436 280ZM442 115L509 80Q517 95 522.50 109Q528 123 534 141L534 141L585 106L568 103L540 65Q564 42 578 24L578 24Q587 6 578-12L578-12Q569-32 553-12L553-12Q548-3 537.50 8.50Q527 20 518 30L518 30Q495 13 475.50 0Q456-13 433-27L433-27L423-14Q443 1 460 17.50Q477 34 489 52L489 52L433 103L442 115ZM664 125L727 97Q736 105 741.50 119Q747 133 755 150L755 150L803 122L787 118L758 80Q773 69 781 57.50Q789 46 796 39L796 39Q805 22 796 1L796 1Q782-16 775 1L775 1Q767 13 757.50 23.50Q748 34 737 46L737 46Q719 32 698.50 16Q678 0 657-11L657-11L645 1Q663 16 680.50 32Q698 48 708 68L708 68L657 118L664 125ZM553 673L588 711L638 647L521 647L521 565L468 536Q468 565 469.50 591.50Q471 618 471 647L471 647L414 647Q391 644 373.50 642.50Q356 641 337 635L337 635L316 673L471 673Q471 714 469.50 744.50Q468 775 468 799L468 799L540 764L521 742L521 673L553 673ZM657 644L657 644L635 676L724 676Q724 711 722 742Q720 773 720 802L720 802L796 764L768 736L768 676L841 676L882 711L933 650L768 650L768 574L724 552L724 650L695 650Q670 650 657 644Z"/></svg>