<svg id="U22E9D" viewBox="0 0 1024 1024"><path transform="translate(0, 921.6) scale(1,-1)" d="M43 574L180 574Q180 640 179.50 697Q179 754 177 803L177 803L262 773L233 741L233 574L275 574L311 620L360 548L233 548L233 359L321 401L331 388L233 320L233 6Q238-83 151-109L151-109Q160-69 79-40L79-40L79-20Q103-23 121-23.50Q139-24 154-24L154-24Q180-24 180 22L180 22L180 287Q77 220 82 215L82 215L36 280Q56 285 93.50 299.50Q131 314 180 339L180 339L180 548L102 548L76 538L43 574ZM736 587L680 561Q680 588 681.50 612.50Q683 637 683 659L683 659L536 659Q536 607 539 591L539 591L481 561Q481 583 482.50 606Q484 629 484 659L484 659L406 659Q350 659 334 653L334 653L304 689L484 689Q484 710 482.50 741Q481 772 481 809L481 809L562 780L536 757L536 689L683 689Q683 710 681.50 741Q680 772 680 809L680 809L758 780L732 754L732 689L837 689L879 734L928 659L732 659Q732 637 732.50 619.50Q733 602 736 587L736 587ZM350 365L321 431Q367 431 416 594L416 594L477 548L445 532Q431 504 415 478Q399 452 380 427L380 427L474 431Q489 447 498 465.50Q507 484 517 509L517 509L575 460L539 447Q496 381 454 327Q412 273 370 228L370 228L500 231Q488 259 461 300L461 300L471 313Q495 288 512 274Q529 260 539 248L539 248Q556 225 556 192L556 192Q551 162 536 156L536 156Q522 146 517 173L517 173Q514 184 511 194.50Q508 205 504 215L504 215Q452 203 412 192Q372 181 340 166L340 166L311 231Q324 227 363 270L363 270Q385 292 408 325.50Q431 359 458 398L458 398Q405 393 350 365L350 365ZM471 156L471 156L477 166Q541 97 546 68L546 68Q560 33 536 9L536 9Q514-13 510 45L510 45Q502 77 494 104.50Q486 132 471 156ZM412 12L412 12Q412 44 405.50 74Q399 104 393 137L393 137L399 143Q453 68 458 29Q463-10 438-27L438-27Q418-44 412 12ZM331 124L331 124L344 124Q363 7 334-27L334-27Q306-58 282-43L282-43Q264-19 291 9L291 9Q320 44 331 124ZM863 512L863 372L863 321Q863 298 866 274L866 274L817 251L817 280L634 280L634 264L585 248Q585 291 588.50 335Q592 379 592 427L592 427Q592 473 588.50 506Q585 539 585 561L585 561L634 538L807 538L827 574L886 538L863 512ZM817 512L634 512L634 310L817 310L817 512ZM700 512L758 489Q742 485 732 440L732 440Q807 390 807 359L807 359Q807 341 803 332Q799 323 794 316L794 316Q777 308 765 346L765 346Q756 378 722 418L722 418Q705 378 684 346Q663 314 634 297L634 297L621 310Q658 352 677 401L677 401Q683 425 690 453.50Q697 482 700 512L700 512ZM846 179L794 179L794-43L846-43L846 179ZM886 173L886-43L899-43L928-11L967-69L641-69Q572-69 526-86L526-86L481-43L572-43L572 146Q572 163 569 183Q566 203 566 228L566 228L605 209L853 209L873 231L915 195L886 173ZM657 179L611 179L611-43L657-43L657 179ZM755 179L696 179L696-43L755-43L755 179Z"/></svg>