<svg id="U221D0" viewBox="0 0 1024 1024"><path transform="translate(0, 921.6) scale(1,-1)" d="M411 535L340 584Q307 474 271 418L271 418L137 414Q171 463 206.50 535Q242 607 281 701L281 701L323 717L239 770Q216 694 195 630Q174 566 147 515L147 515Q91 401 62 401L62 401L89 336Q146 370 265 395L265 395Q147 146 66 118L66 118L111 36Q156 65 216.50 89Q277 113 353 137L353 137Q357 119 360 103Q363 87 366 72L366 72Q370 42 402 72L402 72Q427 100 405 154L405 154Q394 172 368.50 203.50Q343 235 301 281L301 281L287 274Q306 242 320 213.50Q334 185 343 160L343 160L141 121Q267 262 379 515L379 515L411 535ZM610 717L646 763L682 766L604 815Q578 747 509 665L509 665Q477 620 448.50 588Q420 556 398 535L398 535L408 519L467 564L467 489Q467 469 466.50 443Q466 417 464 388L464 388L522 405L522 421L613 421Q526 318 402 261L402 261L405 245Q465 266 515 292.50Q565 319 607 356L607 356L639 304Q597 256 530.50 212.50Q464 169 379 127L379 127L382 114Q531 157 665 255L665 255Q668 242 674 227.50Q680 213 685 196L685 196Q565 57 323-34L323-34L327-53Q561 4 695 134L695 134Q695 112 697 89Q699 66 695 39L695 39Q695-10 669-24L669-24Q641-42 548-27L548-27L548-56Q565-59 581.50-62Q598-65 613-73L613-73Q640-78 646-112L646-112Q689-94 724-56L724-56Q754-14 754 62L754 62Q754 149 724 229L724 229Q731 206 749.50 178Q768 150 793 114L793 114Q837 45 907-13L907-13Q937 21 982 26L982 26L982 43Q906 63 848 118L848 118Q778 177 744 238L744 238Q863 303 913 307L913 307L855 378Q814 319 711 255L711 255Q691 284 667.50 313Q644 342 623 369L623 369Q635 381 648.50 395Q662 409 672 421L672 421L943 421L910 457L910 574L943 590L884 639L851 603L714 603Q733 620 748 633Q763 646 773 659L773 659Q788 666 802.50 674.50Q817 683 835 688L835 688L780 744L754 717L610 717ZM591 688L591 688L744 688L688 603L506 603Q530 622 550 644Q570 666 591 688ZM522 447L522 577L665 577L665 447L522 447ZM714 447L714 577L861 577L861 447L714 447Z"/></svg>