<svg id="U22999" viewBox="0 0 1024 1024"><path transform="translate(0, 921.6) scale(1,-1)" d="M781 722L781 722Q737 747 661 766L661 766L658 753Q688 727 711 704.50Q734 682 746 658L746 658Q770 613 796 655L796 655Q817 689 781 722ZM532 604L532 604L49 604L81 573Q102 575 120 577Q138 579 157 579L157 579L538 579Q558 343 629 170L629 170Q494 9 295-64L295-64L305-80Q517-13 661 119L661 119Q778-43 929-86L929-86Q893 21 916 167L916 167L901 170L860 13Q787 35 696 170L696 170Q734 227 765.50 290Q797 353 819 428L819 428L853 447L765 501Q747 416 725 348.50Q703 281 667 227L667 227Q613 349 598 579L598 579L935 579L863 652L812 604L595 604Q590 642 587.50 678.50Q585 715 585 749L585 749L614 778L519 813Q522 756 524.50 705.50Q527 655 532 604ZM428 362L428 362L491 381L406 438Q366 376 315 331L315 331L151 327Q181 357 216.50 398.50Q252 440 295 494L295 494L343 520L255 563Q158 337 76 327L76 327L117 268Q149 279 192 287Q235 295 289 303L289 303Q152 156 79 132L79 132L128 60Q159 96 412 129L412 129Q419 112 426 98Q433 84 441 72L441 72Q450 41 485 91L485 91Q516 133 374 233L374 233L362 224Q369 208 379 190Q389 172 403 151L403 151L161 145Q323 260 428 362Z"/></svg>