<svg id="U22573" viewBox="0 0 1024 1024"><path transform="translate(0, 921.6) scale(1,-1)" d="M218 731L218 731L253 741L179 799Q149 697 115 643L115 643Q83 571 43 518L43 518L55 501Q145 585 218 731ZM253 521L253 521L278 533L211 581Q182 512 157.50 457Q133 402 112 360L112 360Q86 314 65.50 278.50Q45 243 25 220L25 220L34 201Q63 228 91.50 260.50Q120 293 144 335L144 335L144 60Q144 28 143.50-11Q143-50 141-99L141-99L192-69L192 422Q208 450 223 475.50Q238 501 253 521ZM419 307L419 307L419 44Q368 73 339 156L339 156Q344 189 346.50 220.50Q349 252 352 284L352 284L378 303L301 338Q301 203 278 114L278 114Q264 20 211-66L211-66L221-76Q299-1 326 104L326 104Q373-4 457-37L457-37Q541-69 599-76L599-76Q599-36 652-19L652-19L652-9Q618-3 588-2Q558-1 534 0L534 0Q480 3 467 21L467 21L467 220L608 220L557 287L525 245L467 245L467 357L492 393L416 431Q416 404 417.50 373Q419 342 419 307ZM413 643L413 643L311 643L346 607Q379 616 413 616L413 616L413 460L272 460L307 425Q343 435 378 435L378 435L614 435L567 501L531 460L457 460L457 616L576 616L531 681L499 643L457 643L457 754L480 780L409 809Q409 772 411 732Q413 692 413 643ZM682 194L682 412L765 412L765 194L682 194ZM860 726L608 726L643 690Q659 692 676 692.50Q693 693 713 696L713 696L860 696L860 66Q860 34 848 6L848 6Q840-12 807-19L807-19Q789-19 767-18.50Q745-18 717-15L717-15L717-37Q771-43 793-50L793-50Q817-56 828-92L828-92Q899-51 908 34L908 34L908 693L938 719L880 761L860 726ZM733 575L608 575L637 536Q670 550 694 550L694 550L845 550L780 616L733 575ZM637 470L637 82L682 104L682 165L765 165L765 102L807 127L807 412L825 431L784 473L762 438L675 438L637 470Z"/></svg>