<svg id="U2276A" viewBox="0 0 1024 1024"><path transform="translate(0, 921.6) scale(1,-1)" d="M445 395L229 360L229 462L435 462L373 533L335 494L229 494L229 594L445 594L383 658L341 620L229 620L229 704Q264 710 303 720Q342 730 390 752L390 752L438 752L383 817Q312 754 225 723L225 723L170 759Q175 698 176 594.50Q177 491 177 347L177 347Q132 341 100.50 335.50Q69 330 43 330L43 330L83 270Q122 292 177 301L177 301Q177 278 176 249Q175 220 170 189L170 189L229 211L229 321L454 375L445 395ZM564 752L505 784Q529 606 399 527L399 527L406 517Q564 576 564 723L564 723L711 723L711 601Q711 559 783 559L783 559L830 559Q946 555 917 584L917 584Q885 617 863 614L863 614Q849 608 805 608L805 608Q761 608 766 626L766 626L766 720L798 739L738 787L705 752L564 752ZM460 475L496 489Q510 453 533 414Q556 375 592 337L592 337Q556 300 489 274Q422 248 322 228L322 228L326 208Q510 223 637 301L637 301Q688 264 738 239Q788 214 840 201L840 201Q855 235 930 243L930 243L930 260Q777 265 679 330L679 330Q709 360 740.50 396Q772 432 805 475L805 475L843 494L783 546L744 517L428 517L460 475ZM522 489L522 489L741 489Q703 417 637 360L637 360Q568 403 522 489ZM180 137L164 141Q129 56 80 22L80 22Q40-15 61-31L61-31Q90-42 110-31L110-31Q136-20 152 10L152 10Q176 45 180 137L180 137ZM418 208L415 198Q489 135 505 92L505 92Q533 49 544 57L544 57Q564 62 573 89L573 89Q582 123 547 150L547 150Q521 172 418 208L418 208ZM779 144L773 131Q856 51 875 10L875 10Q899-31 917-28L917-28Q936-12 940 12L940 12Q940 53 914 70L914 70Q889 93 779 144L779 144ZM280-6L280-6Q280-74 386-70L386-70L654-70Q742-70 776-15L776-15Q744-6 734 18L734 18Q718 38 718 109L718 109L699 109Q699 89 697.50 66.50Q696 44 692 18L692 18Q675-29 619-25L619-25L406-25Q336-29 341 22L341 22L341 102L373 127L277 169Q279 148 279.50 104Q280 60 280-6Z"/></svg>