<svg id="U22E38" viewBox="0 0 1024 1024"><path transform="translate(0, 921.6) scale(1,-1)" d="M180 570L180 570L53 570L91 532L132 544L180 544L180 345Q135 319 101 305Q67 291 44 286L44 286L91 219Q83 225 180 292L180 292L180 32Q180-13 154-13L154-13Q140-13 123-12.50Q106-12 82-10L82-10L82-29Q160-58 154-96L154-96Q234-66 230 17L230 17L230 320L342 396L331 411L230 367L230 544L334 544L268 611L230 570L230 735L250 763L177 798Q179 749 179.50 693Q180 637 180 570ZM395 349L395 535L509 535L509 349L395 349ZM342 272L342 272L328 266Q367 168 373 121L373 121Q377 69 408 98L408 98Q434 131 420 168L420 168Q412 188 392.50 214Q373 240 342 272ZM512 703L284 703L322 665Q339 669 358 673Q377 677 405 677L405 677L620 677L550 744L512 703ZM617 142L487 98Q500 129 514.50 162.50Q529 196 544 234L544 234L569 254L499 295Q494 264 486 213Q478 162 461 95L461 95Q327 42 275 38L275 38L322-29Q329-17 411 23L411 23Q453 44 505.50 70Q558 96 623 130L623 130L617 142ZM386 564L348 592L348 278L395 307L395 320L509 320L509 295L559 314L559 526L582 554L541 599L518 564L386 564ZM834 738L606 738L645 700L686 709L733 709L718 605L676 605L629 627L629 95L676 115L676 133L857 133L857 102L901 124L901 564L926 582L878 630L851 605L747 605L781 709L939 709L872 778L834 738ZM676 463L676 579L857 579L857 463L676 463ZM676 314L676 434L857 434L857 314L676 314ZM676 159L676 289L857 289L857 159L676 159ZM753 64L686 118Q667 75 630 25.50Q593-24 544-83L544-83L556-99Q589-79 629.50-38.50Q670 2 721 61L721 61L753 64ZM809 112L809 112L797 98Q860-13 872-58L872-58Q880-111 898-93L898-93Q904-82 909-71Q914-60 920-48L920-48Q927-21 892 26L892 26Q874 50 852.50 70Q831 90 809 112Z"/></svg>