<svg id="U22BA1" viewBox="0 0 1024 1024"><path transform="translate(0, 921.6) scale(1,-1)" d="M206 283L206 283L206 40Q202-9 178-14L178-14Q158-19 73-5L73-5L73-23Q189-49 184-99L184-99Q265-67 257 23L257 23L257 314L392 397L386 415L257 356L257 536L392 536L327 606L288 564L257 564L257 728L295 757L203 798Q205 748 205.50 691.50Q206 635 206 564L206 564L51 564L90 527Q123 536 172 536L172 536L206 536L206 336Q146 308 103.50 293.50Q61 279 36 277L36 277L93 201Q116 231 206 283ZM671 757L671 757L592 798Q581 756 560 711Q539 666 510 615L510 615Q483 567 443 521.50Q403 476 349 434L349 434L361 415Q399 440 437.50 470.50Q476 501 510 542L510 542Q547 579 576.50 622.50Q606 666 633 719L633 719Q645 679 665.50 641.50Q686 604 715 567L715 567Q744 534 780 505Q816 476 861 451L861 451Q873 491 936 504L936 504L936 516Q893 524 854 539Q815 554 775 583L775 583Q694 634 639 732L639 732Q641 738 650 742.50Q659 747 671 757ZM409 346L371 381L659 381Q680 425 695.50 464.50Q711 504 721 542L721 542L791 491L763 488Q744 460 724 432Q704 404 681 381L681 381L791 381L829 425L895 356L639 356L639 257L750 257L788 299L854 232L639 232L639 128L816 128L854 172L924 102L639 102Q639-55 642-74L642-74L583-96Q583-66 584.50-18Q586 30 586 102L586 102L431 102Q382 102 349 93L349 93L310 128L586 128L586 232L519 232Q465 232 437 220L437 220L399 257L586 257L586 356L491 356Q466 356 446 353.50Q426 351 409 346L409 346ZM481 524L475 513Q520 449 529 409L529 409Q541 369 566 406L566 406Q593 446 563 470L563 470Q548 481 528.50 494.50Q509 508 481 524L481 524Z"/></svg>