<svg id="U22C1A" viewBox="0 0 1024 1024"><path transform="translate(0, 921.6) scale(1,-1)" d="M189 297L189 297L189 37Q198-11 172-17L172-17Q161-19 135.50-17Q110-15 68-10L68-10L68-30Q171-59 179-105L179-105Q248-79 244 21L244 21L244 339L367 437L357 450L244 382L244 544L377 544L325 619L283 570L244 570L244 752L279 778L185 820Q188 763 188.50 701.50Q189 640 189 570L189 570L42 570L75 541L101 544L189 544L189 356Q135 319 95 296.50Q55 274 36 265L36 265L85 203Q99 215 125.50 237.50Q152 260 189 297ZM575 349L542 255L429 255L374 287Q376 251 376.50 206Q377 161 377 106L377 106Q377 54 376.50 2Q376-50 374-101L374-101L429-75L429 226L533 226L533-69L581-36L581 226L666 226L666-40L718-14L718 226L825 226L825 2Q825-28 802-33L802-33L724-33L724-53Q803-65 809-105L809-105Q830-97 844-86Q858-75 864-69L864-69Q880-44 880-2L880-2L880 216L906 242L848 291L815 255L562 255L640 349L948 349L883 421L844 378L318 378L361 336Q385 341 410 345Q435 349 465 349L465 349L575 349ZM864 606L809 684L767 632L458 632L458 729L900 729L841 807L796 758L455 758L403 797L403 421L458 447L458 476L903 476L844 547L799 502L458 502L458 606L864 606Z"/></svg>