<svg id="U23E2E" viewBox="0 0 1000 1000"><path transform="translate(0, 900) scale(1,-1)" d="M85 772C138 740 211 692 247 663L284 725C247 752 174 797 122 826ZM36 501C89 471 161 425 197 398L233 461C195 487 122 530 72 557ZM62-10L117-61C167 31 227 155 273 259L225 309C175 196 108 66 62-10ZM474 641L474 588L721 588L721 641ZM349 322L349 269L889 269L889 322L723 322L748 366L666 390C739 420 819 461 864 507L821 536L811 532L342 532L342 480L743 480C696 453 635 428 583 412C535 423 486 434 444 442L415 397C504 378 619 346 692 322ZM719 106L781 36L442 15C488 52 535 97 578 145L960 145L960 201L272 201L272 145L487 145C442 93 393 49 375 35C353 17 335 5 318 3C326-14 337-46 341-59C371-49 415-45 825-16C843-39 859-60 871-77L928-38C894 8 824 85 772 139ZM590 851C518 749 382 670 250 623C262 607 280 571 286 555C398 601 514 671 597 757C680 674 814 600 937 557C943 577 956 609 968 628C845 660 711 728 638 805L653 826Z"/></svg>