<svg id="U23821" viewBox="0 0 1024 1024"><path transform="translate(0, 921.6) scale(1,-1)" d="M247-39L247 428Q275 368 292 318L292 318Q309 264 329 309L329 309Q351 351 323 384L323 384Q308 398 290.50 415Q273 432 247 453L247 453L247 551L348 551L304 620L269 576L247 576L247 746L272 771L197 810Q199 747 199.50 688.50Q200 630 200 576L200 576L76 576L109 542Q125 544 142 547.50Q159 551 177 551L177 551L194 551Q164 304 57 129L57 129L70 116Q159 232 200 365L200 365Q200 231 199.50 125.50Q199 20 197-64L197-64L247-39ZM418 514L418 514Q421 490 439 514L439 514Q454 533 439 558L439 558Q425 581 385 602L385 602L379 595Q393 564 401.50 543Q410 522 418 514ZM467 576L467 576Q486 537 500 570L500 570Q507 594 490 617L490 617Q477 634 426 648L426 648L423 636Q453 610 467 576ZM382 321L418 327L631 327L565 391L524 355L348 355L382 321ZM385 167L420 170L634 170L568 233L527 195L354 195L385 167ZM408 88L568 88L568-1L408-1L408 88ZM361-77L408-55L408-26L568-26L568-74L616-42L616-17Q641 17 665.50 62Q690 107 719 167L719 167L748 177L681 214Q674 165 658 113Q642 61 616 6L616 6L616 79L641 107L593 145L565 113L411 113L361 139Q363 107 363.50 79.50Q364 52 364 28L364 28Q364 2 363.50-23Q363-48 361-77L361-77ZM889 57L889 57Q900-10 924 19L924 19Q947 54 934 95L934 95Q920 137 836 208L836 208L830 195Q850 157 866 122Q882 87 889 57ZM518 280L354 280L389 242Q428 252 480 252L480 252L622 252L559 318L518 280ZM820 677L767 712Q746 657 725.50 614Q705 571 681 538L681 538L650 517L675 463L698 479Q713 483 734.50 488.50Q756 494 783 497L783 497Q756 443 735.50 413Q715 383 704 368L704 368Q689 352 675.50 343Q662 334 650 327L650 327L672 268Q691 279 713.50 284.50Q736 290 757 293L757 293L757 0Q743-11 672 6L672 6L672-8Q739-26 739-83L739-83Q797-48 801-1L801-1L801 306L880 321Q888 296 892.50 279Q897 262 899 252L899 252Q908 223 930 245L930 245Q953 271 943 309L943 309Q936 332 911 363.50Q886 395 849 438L849 438L836 425Q848 403 858.50 380.50Q869 358 874 340L874 340Q817 333 778 328.50Q739 324 713 324L713 324Q756 393 798.50 455.50Q841 518 886 576L886 576L912 592L858 640Q814 547 795 520L795 520L701 520Q724 546 746.50 581Q769 616 798 661L798 661L820 677ZM600 573L606 561Q641 589 678 636.50Q715 684 760 753L760 753L792 771L722 810Q691 688 600 573L600 573ZM641 668L587 722L562 692L449 692L490 740L521 756L452 797Q414 678 336 595L336 595L345 579Q375 603 398 624.50Q421 646 433 668L433 668L562 668Q541 599 485 536Q429 473 341 409L341 409L348 400Q372 412 391 425Q410 438 426 447L426 447Q443 426 455 409Q467 392 477 378L477 378Q485 349 505 368L505 368Q521 393 508 416L508 416Q500 434 439 460L439 460Q530 511 619 661L619 661L641 668Z"/></svg>