<svg id="U23A2E" viewBox="0 0 1024 1024"><path transform="translate(0, 921.6) scale(1,-1)" d="M206 500L206 500L352 500Q342 446 330.50 398Q319 350 301 298L301 298Q288 244 266 195Q244 146 214 100L214 100Q183 55 142.50 9Q102-37 48-83L48-83L50-97Q121-48 172-5Q223 38 253 82L253 82Q282 126 306 170.50Q330 215 349 263L349 263Q366 306 381.50 362Q397 418 410 490L410 490L439 524L385 573L355 527L214 527Q223 566 232.50 613.50Q242 661 253 721L253 721L455 721L389 789L349 747L50 747L88 709L130 721L194 721Q189 662 177 604Q165 546 145 483L145 483Q126 420 101.50 358.50Q77 297 42 243L42 243L50 231Q86 273 113.50 310Q141 347 159 382L159 382Q173 351 184 318Q195 285 200 246L200 246Q211 210 220 203.50Q229 197 240 222L240 222Q262 256 246 301L246 301Q235 317 217.50 343Q200 369 168 399L168 399Q174 417 185.50 443.50Q197 470 206 500ZM837 744L915 744L865 822Q833 801 788 785Q743 769 685 756L685 756Q573 727 429 709L429 709L429 693Q504 699 569 705.50Q634 712 691 721L691 721Q750 727 784.50 733.50Q819 740 837 744L837 744ZM450 647L439 630Q469 594 489.50 560.50Q510 527 516 497L516 497Q535 433 567 480L567 480Q576 500 573.50 519Q571 538 559 553L559 553Q541 573 515 595.50Q489 618 450 647L450 647ZM614 678L607 669Q637 621 653.50 585Q670 549 672 527L672 527Q683 479 704 490L704 490Q714 496 721 511Q728 526 730 546L730 546Q730 570 701 602Q672 634 614 678L614 678ZM944 643L944 643L874 699Q852 645 826.50 595.50Q801 546 769 493L769 493L778 483Q800 508 821 532.50Q842 557 865 580L865 580Q882 597 901.50 613Q921 629 944 643ZM898 402L898 402L845 473Q819 456 780 443.50Q741 431 688 420L688 420Q631 408 572 399Q513 390 450 385L450 385L450 362Q489 362 538.50 364.50Q588 367 649 373L649 373L649 204L372 204L410 166Q427 170 446.50 174.50Q466 179 495 179L495 179L649 179L649-26L439-26L480-66Q495-58 516.50-55.50Q538-53 567-53L567-53L927-53L856 14L818-26L704-26L704 179L961 179L891 246L853 204L704 204L704 382Q772 390 821.50 396Q871 402 898 402Z"/></svg>