<svg id="U23934" viewBox="0 0 1024 1024"><path transform="translate(0, 921.6) scale(1,-1)" d="M97 520L97 331Q97 205 82 105.50Q67 6 36-67L36-67L50-75Q83-15 101.50 46.50Q120 108 131 169L131 169Q137 232 141 313.50Q145 395 140 495L140 495L161 486L173 495L218 509L218 470Q218 430 261 430L261 430L340 430Q382 430 376 453L376 453Q372 479 332 470L332 470L291 470Q266 470 266 495L266 495L266 514L350 540L308 575L289 546L266 540L266 570L286 586L247 602L358 602L338 563L350 554Q371 577 389.50 590.50Q408 604 425 608L425 608L380 653L358 628L266 628L266 683L405 683L350 734L324 708L266 708L266 749L289 779L216 806Q218 772 218 743L218 743Q218 715 218 687L218 687L218 628L147 628L94 659Q97 623 97 589L97 589Q97 555 97 520L97 520ZM218 530L140 514L140 602L218 602L218 530ZM140 376L169 343Q186 346 201.50 348Q217 350 231 350L231 350L425 350L369 410L334 376L140 376ZM179 320L179 157L228 173L228 185L315 185L315 175Q311 160 300.50 129Q290 98 270 53L270 53L108 30L135-23Q147-14 213 6Q279 26 405 65L405 65Q382 36 350 8Q318-20 276-49L276-49L279-64Q344-32 395.50 10Q447 52 486 104L486 104Q497 68 513 40.50Q529 13 551-8L551-8Q590-47 597-34L597-34Q597-24 599-9Q601 6 606 27L606 27Q609 47 613.50 77.50Q618 108 627 149L627 149L612 157Q601 120 589 93.50Q577 67 569 53L569 53Q551 74 537.50 99Q524 124 518 153L518 153Q546 206 566 256.50Q586 307 606 363L606 363L630 387L568 425Q556 372 540 320.50Q524 269 506 218L506 218Q496 275 493 343Q490 411 490 483L490 483L655 520L599 563L573 524L490 505L490 749L515 779L437 802Q442 762 443 729.50Q444 697 444 665L444 665L444 495L390 486L416 463L444 473Q444 385 449.50 305.50Q455 226 467 157L467 157Q438 98 405 65L405 65L405 81L289 56Q310 85 330 104.50Q350 124 367 136L367 136L329 169L361 182L361 265L380 288L334 323L315 294L228 294L179 320ZM212 69L212 69Q217 41 234 53L234 53Q256 75 250 98L250 98Q245 124 195 157L195 157L189 149Q195 125 201 105Q207 85 212 69ZM228 212L228 269L315 269L315 212L228 212ZM518 734L511 725Q530 698 544 673.50Q558 649 568 623L568 623Q572 592 580 586Q588 580 599 602L599 602Q620 634 599 662L599 662Q591 672 570.50 692Q550 712 518 734L518 734ZM753 746L753 746L783 770L706 806Q701 772 695 730.50Q689 689 680 633L680 633Q669 579 654.50 525Q640 471 615 421L615 421L625 410Q648 439 672 482Q696 525 715 582L715 582L887 582L851 473L864 470Q932 580 963 602L963 602L910 650L887 608L719 608Q728 640 737 674Q746 708 753 746ZM820 466L735 502Q730 387 716 295Q702 203 680 134L680 134Q637 8 568-84L568-84L573-99Q616-60 650.50-13Q685 34 709 88L709 88Q730 144 748.50 219Q767 294 777 390L777 390Q781 317 789.50 256.50Q798 196 816 136L816 136Q830 76 852 26.50Q874-23 903-64L903-64Q913-49 929.50-41.50Q946-34 967-34L967-34L967-23Q943-2 918.50 33.50Q894 69 867 129L867 129Q841 179 824 255.50Q807 332 796 437L796 437L820 466Z"/></svg>