<svg id="U23991" viewBox="0 0 1024 1024"><path transform="translate(0, 921.6) scale(1,-1)" d="M193 689L132 717Q134 685 134.50 655Q135 625 135 597L135 597L135 349Q135 314 134.50 285Q134 256 132 226L132 226L186 245L186 255L459 255Q438 40 419 19L419 19Q408 6 397.50-0.50Q387-7 375-7L375-7Q364-7 333-4Q302-1 252 9L252 9L245-7Q293-19 320.50-39.50Q348-60 359-88L359-88Q421-74 459-30L459-30Q492 5 512 252L512 252L538 283L481 325L459 283L186 283L186 372L551 372L481 441L442 396L186 396L186 479L404 479L404 454L462 475Q459 495 459 521L459 521Q459 548 459 583L459 583L459 662L481 689L425 729L401 689L252 689Q270 714 283.50 731Q297 748 302 755L302 755L335 776L265 813Q259 784 248 752.50Q237 721 223 689L223 689L193 689ZM186 662L404 662L404 506L186 506L186 662ZM345 232L345 232L339 226Q354 196 359.50 169.50Q365 143 371 120L371 120Q375 80 401 103L401 103Q422 127 412 158L412 158Q401 188 345 232ZM65 12L65 12Q105 6 117 38L117 38Q122 56 128.50 93.50Q135 131 135 189L135 189L119 189Q108 109 76 63L76 63Q31 18 65 12ZM212 48L212 48Q239 69 235 97L235 97Q235 130 183 196L183 196L174 193Q181 161 183.50 132Q186 103 186 77L186 77Q186 27 212 48ZM306 70L306 70Q335 101 319 133L319 133Q313 151 297.50 172Q282 193 259 216L259 216L252 209Q263 176 269 149.50Q275 123 277 103L277 103Q280 71 286.50 62.50Q293 54 306 70ZM591 470L591 470L591-7L484-7L522-44Q552-30 610-30L610-30L974-30L904 35L868-7L798-7L798 387L953 387L881 454L841 412L798 412L798 752L837 771L742 807L742-7L641-7L641 552L674 579L583 612Q583 577 587 540.50Q591 504 591 470Z"/></svg>