<svg id="U23098" viewBox="0 0 1024 1024"><path transform="translate(0, 921.6) scale(1,-1)" d="M254-102L305-73L305 677L510 677L455 754L414 706L57 706L91 671Q107 673 123.50 675Q140 677 161 677L161 677L254 677L254-102ZM199 536L119 571Q124 480 120.50 413.50Q117 347 113 305L113 305Q110 267 102 227Q94 187 87 152L87 152Q78 110 65.50 79Q53 48 38 24L38 24L51 17Q179 178 174 511L174 511L199 536ZM382 571L382 34L432 56Q430 99 430 135L430 135Q430 172 430 204L430 204L430 501L462 533L382 571ZM583 725L583 725L535 761L535 553Q540 489 536.50 420.50Q533 352 529 283L529 283Q526 211 513 153.50Q500 96 480 47L480 47Q459 2 441-32Q423-66 404-92L404-92L417-102Q500-17 535 79L535 79Q556 124 565.50 173.50Q575 223 583 280L583 280Q586 334 588 378Q590 422 590 456L590 456L753 456L753 101Q753 59 751.50 11.50Q750-36 750-102L750-102L810-67Q807-40 807-10L807-10Q807 20 807 56L807 56L807 456L945 456L890 530L848 482L590 482L590 696Q659 703 732.50 711Q806 719 881 734L881 734L919 728L871 808Q848 785 768 766L768 766Q732 755 686 743Q640 731 583 725Z"/></svg>