<svg id="U231D3" viewBox="0 0 1024 1024"><path transform="translate(0, 921.6) scale(1,-1)" d="M144 373L144 373L115 347L172 297L202 332L381 332L381 213L179 213L131 235Q135 116 105 44L105 44Q95 5 78.50-26Q62-57 40-86L40-86L44-99Q181-3 185 184L185 184L381 184Q381 82 380.50 16Q380-50 378-92L378-92L435-60Q432-15 432 78L432 78Q432 171 432 318L432 318L467 344L410 398L375 357L198 357L198 594L237 623L140 661Q143 623 143.50 549.50Q144 476 144 373ZM617 187L617 187L832 187Q832 90 830.50 25Q829-40 829-76L829-76L889-51Q886-19 886 37L886 37Q886 93 886 178L886 178L924 207L864 258L829 217L617 217L617 332L787 332L787 287L844 318Q841 340 841 408L841 408Q841 476 841 591L841 591L874 619L784 661Q784 610 785.50 535Q787 460 787 357L787 357L624 357L559 395Q569 139 559-92L559-92L624-54Q618-22 617.50 37Q617 96 617 187ZM368 623L368 741L656 741L656 623L368 623ZM368 478L368 596L656 596L656 478L368 478ZM707 721L707 721L742 741L684 804L649 769L371 769L313 799Q316 745 316.50 690.50Q317 636 317 584L317 584Q317 533 316.50 485Q316 437 313 392L313 392L368 415L368 453L656 453L656 392L710 421Q707 447 707 521L707 521Q707 595 707 721Z"/></svg>