<svg id="U23B33" viewBox="0 0 1024 1024"><path transform="translate(0, 921.6) scale(1,-1)" d="M429 730L429 730L380 789Q366 773 336 756.50Q306 740 261 723L261 723Q223 709 180.50 695.50Q138 682 89 672L89 672L89 656Q127 661 161.50 666.50Q196 672 232 680L232 680L232 489L73 451L105 422L142 443L232 459L232 272L50 240L89 210L130 226L232 245L232 11Q232-66 316-66L316-66L865-66Q886-66 901.50-62Q917-58 926-56L926-56Q950-47 974-9L974-9Q947-3 936 40L936 40Q928 58 927 78Q926 98 926 122L926 122L907 122Q907 93 905 67Q903 41 900 22L900 22Q891-14 859-14L859-14L343-14Q290-14 290 32L290 32L290 251L497 300L436 353L406 306L290 282L290 469L462 506L406 562L369 516L290 502L290 691Q313 699 331 702.50Q349 706 361 710L361 710Q375 715 391.50 718.50Q408 722 429 730ZM817 597L743 597L743 756L778 781L685 810Q685 763 686.50 710.50Q688 658 688 597L688 597L580 597Q594 629 608 652Q622 675 636 687L636 687L557 730Q540 639 516.50 561.50Q493 484 462 418L462 418L478 411Q508 450 530.50 489.50Q553 529 576 568L576 568L688 568L688 369L455 369L492 329Q521 342 579 342L579 342L688 342L688 187Q688 144 686.50 100.50Q685 57 685 14L685 14L746 40Q743 75 743 114L743 114Q743 154 743 196L743 196L743 342L963 342L894 411L854 369L743 369L743 568L924 568L854 638L817 597Z"/></svg>