<svg id="U2336D" viewBox="0 0 1024 1024"><path transform="translate(0, 921.6) scale(1,-1)" d="M182 16L182 16L182 1Q278-25 283-75L283-75Q371-47 362 45L362 45L362 719L393 751L337 798L301 760L160 760L100 785Q102 740 102.50 675.50Q103 611 103 520L103 520Q103 429 102.50 362Q102 295 100 253L100 253Q100 208 94.50 165Q89 122 85 80L85 80Q77 40 63.50 0Q50-40 33-82L33-82L46-92Q99-13 126 73L126 73Q139 115 147 171.50Q155 228 157 301L157 301L311 301L311 57Q311 8 283 8L283 8Q273 8 247.50 10.50Q222 13 182 16ZM157 553L157 735L311 735L311 553L157 553ZM157 329L157 527L311 527L311 329L157 329ZM553 553L586 719L916 719L856 795L802 744L399 744L434 707Q450 713 468 714.50Q486 716 509 719L509 719L532 719Q503 538 478.50 437Q454 336 437 309L437 309L488 278Q500 308 513.50 370.50Q527 433 550 527L550 527L784 527L740-19L362-19L396-57Q409-55 427-52.50Q445-50 468-47L468-47L931-47L862 32L815-19L787-19L834 511L869 533L815 587L781 553L553 553ZM494 275L494 275L497 260Q560 287 614 326Q668 365 717 410L717 410L753 423L689 479Q656 421 605.50 369Q555 317 494 275ZM450 57L450 57L453 45Q510 59 573.50 97.50Q637 136 712 196L712 196L746 209L689 265Q622 158 450 57Z"/></svg>