<svg id="U23361" viewBox="0 0 1024 1024"><path transform="translate(0, 921.6) scale(1,-1)" d="M814 738L78 738L114 700Q131 705 150.50 709Q170 713 196 713L196 713L927 713L858 785L814 738ZM873 388L873 388Q882 429 940 442L940 442L940 461Q730 494 641 662L641 662L665 694L590 707Q666 501 873 388ZM376 640L376 640L414 656L332 700Q261 528 63 394L63 394L67 376Q112 396 150 420.50Q188 445 222 473L222 473Q306 532 376 640ZM275 306L275 420L685 420L685 306L275 306ZM275 171L275 278L685 278L685 171L275 171ZM524 16L524-2Q642-23 647-79L647-79Q732-69 738 20L738 20L738 410L764 432L706 486L678 445L288 445L222 467Q226 433 227 374Q228 315 228 227L228 227Q228 136 227 60Q226-16 222-79L222-79L275-57L275 142L685 142L685 36Q685 4 656 4L656 4Q618 4 524 16L524 16Z"/></svg>