<svg id="U2315B" viewBox="0 0 1024 1024"><path transform="translate(0, 921.6) scale(1,-1)" d="M48-79L48-79L57-89Q220 112 216 526L216 526L216 716L935 716L855 802L791 741L228 741L158 779Q162 716 163 651.50Q164 587 164 517L164 517Q164 447 157.50 373.50Q151 300 144 222L144 222Q135 144 109.50 70Q84-4 48-79ZM388 21L388 21L388 456L427 482L372 511Q395 556 410 586.50Q425 617 430 629L430 629L465 651L382 689Q367 625 348.50 571.50Q330 518 311 475L311 475Q294 429 268.50 383.50Q243 338 212 287L212 287L224 277Q284 331 337 440L337 440L337 31Q337 35 336.50 3Q336-29 334-95L334-95L391-70Q389-31 388.50-10Q388 11 388 21ZM570 335L570 591L791 591L791 335L570 335ZM570 37L570 305L791 305L791 37L570 37ZM846 578L846 578L878 613L816 661L785 619L570 619L519 651Q519 561 520.50 473Q522 385 522 297L522 297Q522 203 520.50 108Q519 13 519-86L519-86L570-47L570 9L791 9L791-67L848-31Q846 14 846 166L846 166Q846 318 846 578Z"/></svg>