<svg id="U238B0" viewBox="0 0 1024 1024"><path transform="translate(0, 921.6) scale(1,-1)" d="M248 647L248 445L55 445L92 408Q107 412 126.50 416Q146 420 172 420L172 420L261 420L257 55Q257 33 216 33L216 33Q198 33 175 34.50Q152 36 128 39L128 39L128 21Q209 2 229-57L229-57Q311-20 311 64L311 64L311 367L333 389L264 420L497 420L428 486L390 445L302 445L302 597L475 597L406 663L368 622L302 622L302 735L330 764L245 798Q247 770 247.50 733Q248 696 248 647L248 647ZM352 316L342 304Q366 261 385.50 221.50Q405 182 411 149L411 149Q437 74 450 99L450 99Q469 127 469 156L469 156Q476 178 444 222L444 222Q426 240 403 263.50Q380 287 352 316L352 316ZM223 288L151 332Q147 275 116 200L116 200Q101 167 85 128.50Q69 90 42 52L42 52L58 42Q122 128 160 200L160 200Q201 275 223 288L223 288ZM645 751L645 751L673 776L594 814Q587 762 579 709.50Q571 657 557 600L557 600Q539 540 518.50 481.50Q498 423 475 363L475 363L485 354Q512 396 540 444.50Q568 493 594 559L594 559L840 559L799 448L815 445Q847 496 879 526.50Q911 557 935 568L935 568L868 628L840 584L601 584Q618 644 629 686Q640 728 645 751ZM720 461L639 506Q633 386 613.50 296Q594 206 566 137L566 137Q504 1 383-72L383-72L387-88Q453-55 503-14.50Q553 26 591 83L591 83Q623 140 648 214.50Q673 289 683 386L683 386Q695 259 730 140L730 140Q768 28 853-69L853-69Q875-26 941-31L941-31L941-16Q857 13 793 121L793 121Q726 229 699 433L699 433L720 461Z"/></svg>