<svg id="U23CFE" viewBox="0 0 1000 1000"><svg id="U23CFEhk" viewBox="0 0 1000 1000"><path transform="translate(0, 900) scale(1,-1)" d="M210 790C250 751 292 696 310 658L369 697C349 733 307 785 266 822ZM465 385L465-2C465-14 461-18 448-18C435-19 388-19 341-17C350-36 359-61 362-78C429-78 474-78 503-69C531-59 540-42 540-3L540 385ZM109 17L141-44C223-7 329 42 427 90L413 147C302 98 186 47 109 17ZM219 252C265 223 319 180 344 151L402 187C376 218 321 258 275 284ZM573 88C666 50 787-11 847-53L880 5C818 45 696 102 604 139ZM723 294C689 260 628 212 584 184L636 152C681 179 739 218 785 259ZM727 825C703 781 665 723 625 683C637 676 655 662 668 652L516 652C533 706 546 764 556 829L483 839C473 770 460 708 442 652L127 652L127 587L418 587C403 552 385 520 365 490L62 490L62 424L312 424C244 353 154 301 37 264C53 251 79 222 89 207C227 258 329 327 403 424L586 424C667 337 801 257 917 217C928 236 950 262 966 276C865 304 753 360 676 424L938 424L938 490L447 490C465 520 480 552 494 587L860 587L860 652L684 652C723 694 762 750 793 805Z"/><animate attributeName="opacity" values="1;0;0;1;1" dur="2s" repeatCount="indefinite"/></svg><svg id="U23CFEjp" viewBox="0 0 1000 1000"><path transform="translate(0, 900) scale(1,-1)" d="M107 16L134-48C215-13 318 34 416 79L402 137C293 91 181 44 107 16ZM461 355L461-4C461-16 457-19 444-20C431-21 388-21 341-19C350-37 360-62 364-80C430-81 472-80 499-70C527-60 534-43 534-6L534 355ZM545 93C641 51 765-14 832-57L877-1C809 39 686 102 589 142ZM220 268C263 234 314 185 338 151L390 194C367 227 315 275 271 307ZM165 790C200 747 237 687 250 648L317 676C302 716 264 774 227 816ZM742 819C720 774 679 710 649 670L710 645C742 683 781 739 814 792ZM456 840C446 775 428 706 400 639L122 639L122 572L369 572C350 535 328 499 303 464L52 464L52 395L246 395C189 332 118 276 34 231C51 219 74 194 84 176C189 235 273 311 340 395L666 395C699 355 734 319 773 287L714 321C686 282 633 225 596 191L645 160C685 191 735 238 777 283C821 248 869 218 919 195C930 214 952 241 969 255C891 286 819 335 758 395L949 395L949 464L697 464C671 498 648 534 629 572L891 572L891 639L478 639C503 703 520 769 531 832ZM617 464L389 464C412 499 432 535 449 572L559 572C575 534 595 498 617 464Z"/><animate attributeName="opacity" values="0;1;1;0;0" dur="2s" repeatCount="indefinite"/></svg></svg>