<svg id="U239A2" viewBox="0 0 1024 1024"><path transform="translate(0, 921.6) scale(1,-1)" d="M223 597L223 597L411 597L411 567L470 583Q467 601 466.50 618Q466 635 466 654L466 654L466 729L489 754L433 790L411 758L223 758L162 786Q164 753 164.50 711Q165 669 165 623L165 623Q165 529 140 445L140 445Q113 367 68 298L68 298L76 288Q174 376 207 518L207 518L207 404Q207 373 206.50 344Q206 315 204 288L204 288L263 305L263 342L411 342L411 301L466 312Q462 340 462 361L462 361Q462 382 462 401L462 401L462 470L489 499L430 541L405 504L263 504L210 535Q223 564 223 597ZM223 623L223 729L411 729L411 623L223 623ZM263 367L263 478L411 478L411 367L263 367ZM649 829L639 823Q656 798 666 777.50Q676 757 681 740L681 740Q685 719 692.50 715.50Q700 712 711 727L711 727Q740 749 727 775L727 775Q724 783 705 796.50Q686 810 649 829L649 829ZM818 718L500 718L533 678Q573 688 621 688L621 688L924 688L857 758L818 718ZM589 684L582 678Q606 640 610 597L610 597Q625 544 649 578L649 578Q676 613 651 638L651 638Q642 645 626.50 658.50Q611 672 589 684L589 684ZM674 284L674 284L736 305Q732 323 731.50 351.50Q731 380 731 419L731 419L932 419L862 488L824 445L731 445L731 527L964 527L892 600L857 558L760 558L811 638L845 648L780 688Q767 653 754.50 621Q742 589 727 558L727 558L486 558L522 521Q558 527 608 527L608 527L678 527L678 445L504 445L544 407Q569 419 627 419L627 419L678 419Q678 373 676 338.50Q674 304 674 284ZM188-35L976-35L905 33L865-8L591-8L591 149L873 149L805 218L765 178L591 178L591 267L627 298L531 325Q531 297 532 265Q533 233 533 200L533 200L533-8L333-8L333 190L369 212L273 248Q275 217 275.50 190Q276 163 276 132L276 132L276-8L68-8L106-47Q120-40 140.50-37.50Q161-35 188-35L188-35Z"/></svg>