<svg id="U239FF" viewBox="0 0 1024 1024"><path transform="translate(0, 921.6) scale(1,-1)" d="M784 281L784 281L784 571L810 600L729 646Q729 595 730 533.50Q731 472 731 396L731 396Q731 324 730 252.50Q729 181 729 112L729 112L787 145Q784 193 784 228L784 228Q784 264 784 281ZM863 681L863 681L863 49Q863-10 826-11L826-11Q808-11 777-9.50Q746-8 705 1L705 1L703-15Q728-24 749.50-30.50Q771-37 784-47L784-47Q806-63 817-95L817-95Q866-79 890-56L890-56Q913-28 913 9L913 9L913 757L943 784L858 821Q858 764 860.50 731Q863 698 863 681ZM515 504L515 504L629 504Q562 99 319-79L319-79L325-92Q601 54 684 496L684 496L705 521L650 568L625 529L525 529Q533 574 542.50 615Q552 656 558 692L558 692L731 692L663 761L625 720L389 720L428 681L471 692L505 692Q481 552 443.50 441Q406 330 348 245L348 245L355 232Q382 269 410.50 306.50Q439 344 465 391L465 391Q479 367 489.50 340.50Q500 314 505 290L505 290Q511 262 518.50 258Q526 254 534 277L534 277Q560 312 545 335L545 335Q535 348 517.50 364Q500 380 471 404L471 404Q480 419 490.50 445.50Q501 472 515 504ZM208 504L208 504L312 504Q286 306 220.50 162Q155 18 52-79L52-79L59-92Q304 70 367 492L367 492L396 524L338 566L312 529L215 529Q240 618 251 692L251 692L399 692L332 761L293 720L59 720L96 681L139 692L192 692Q154 420 40 245L40 245L52 232Q81 269 106.50 306Q132 343 154 388L154 388Q168 361 179 337.50Q190 314 195 290L195 290Q203 269 210.50 266.50Q218 264 229 281L229 281Q253 314 235 338L235 338Q227 349 209 366.50Q191 384 161 404L161 404Q169 418 180.50 444Q192 470 208 504Z"/></svg>