<svg id="U23F8E" viewBox="0 0 1024 1024"><path transform="translate(0, 921.6) scale(1,-1)" d="M151 798L148 789Q173 758 191 731.50Q209 705 221 682L221 682Q244 638 262 672L262 672Q275 702 262 732L262 732Q252 741 227 758.50Q202 776 151 798L151 798ZM84 584L78 574Q107 541 125.50 516Q144 491 151 468L151 468Q167 422 186 445L186 445Q207 466 202 502L202 502Q196 541 84 584L84 584ZM84 216L84 216L84 197Q168 171 168 137L168 137Q168 92 151 33L151 33Q141-27 183-50L183-50Q225-64 221 21L221 21Q218 67 215.50 101Q213 135 218 156L218 156Q221 190 236 247L236 247Q241 268 260.50 363.50Q280 459 315 628L315 628L297 635Q198 239 174 219L174 219Q145 205 84 216ZM489 745L744 745Q724 729 694.50 709.50Q665 690 627 666L627 666L590 685L590 275Q590 266 552 266L552 266Q535 266 515 266.50Q495 267 479 270L479 270L479 254Q555 239 570 188L570 188Q637 206 637 270L637 270L637 272L637 615L678 635L646 653Q688 672 726 691.50Q764 711 806 732L806 732L850 735L788 798L753 773L375 773L413 735Q430 737 447.50 739.50Q465 742 489 745L489 745ZM476 568L476 367L394 367L394 568L476 568ZM523 565L549 594L498 635L472 597L397 597L341 622Q343 596 343.50 571Q344 546 344 518L344 518L344 352Q344 288 341 272L341 272L394 288L394 342L476 342L476 291L530 311Q524 334 523.50 358Q523 382 523 408L523 408L523 565ZM416 99L403 103Q373 21 325-3L325-3Q281-30 290-54L290-54Q306-76 341-62L341-62Q374-48 388-13L388-13Q396 7 404.50 35Q413 63 416 99L416 99ZM498 96L489 83Q505 48 513.50 20Q522-8 530-34L530-34Q535-76 561-60L561-60Q588-36 580 0L580 0Q569 37 498 96L498 96ZM659 99L652 93Q676 50 691 19.50Q706-11 709-34L709-34Q719-80 747-54L747-54Q769-23 753 14L753 14Q741 44 659 99L659 99ZM832 108L822 96Q842 61 857.50 28Q873-5 886-34L886-34Q907-87 927-62L927-62Q950-35 939 0L939 0Q927 28 832 108L832 108ZM819 172L297 172L335 134Q348 136 367 138.50Q386 141 407 146L407 146L939 146L866 226L819 172ZM631 237L639 229Q708 255 788 354L788 354Q811 316 834 286Q857 256 879 234L879 234Q888 246 906 252.50Q924 259 945 266L945 266L945 278Q886 291 819 393L819 393Q837 425 858 468Q879 511 904 565L904 565L935 584L883 635L854 603L659 603L687 565L706 574Q718 522 730.50 478.50Q743 435 763 396L763 396Q706 304 631 237L631 237ZM724 578L724 578L854 578Q845 542 828 507.50Q811 473 788 433L788 433Q754 483 724 578Z"/></svg>