<svg id="U23D42" viewBox="0 0 1024 1024"><path transform="translate(0, 921.6) scale(1,-1)" d="M197 826L191 812Q262 740 269 712L269 712Q282 672 303 700L303 700Q326 732 314 754L314 754Q308 765 279.50 783.50Q251 802 197 826L197 826ZM98 712L92 707Q123 676 145.50 652.50Q168 629 174 612L174 612Q195 580 210 595L210 595Q228 612 224 648L224 648Q219 660 187.50 675.50Q156 691 98 712L98 712ZM89 496L89 496L87 479Q166 445 166 430L166 430Q171 407 155 376L155 376Q144 338 178 314L178 314Q213 288 213 331L213 331L213 427Q215 450 250.50 517.50Q286 585 353 700L353 700L333 709Q217 510 183 496L183 496Q154 479 89 496ZM664 790L584 832Q567 797 540 759Q513 721 471 685L471 685Q404 608 297 563L297 563L308 547Q397 581 471.50 630.50Q546 680 609 754L609 754Q669 685 730.50 637Q792 589 855 563L855 563Q866 579 884.50 588.50Q903 598 929 606L929 606L929 616Q898 619 864 627.50Q830 636 792 653L792 653Q755 671 712 697.50Q669 724 624 766L624 766L664 790ZM581 331L581 331L634 305Q678 356 708 393Q738 430 755 450L755 450Q778 470 792 481Q806 492 814 496L814 496L762 550L734 518L378 518L417 479Q452 493 505 493L505 493L724 493Q709 475 692 456Q675 437 656 412L656 412Q638 391 620 371Q602 351 581 331ZM476 256L476 9Q467-24 333 2L333 2L333-10Q384-24 411-43Q438-62 443-87L443-87Q534-58 534-3L534-3L534 288Q585 166 671 78L671 78Q758 0 884-45L884-45Q898-22 917.50-11Q937 0 966 2L966 2L966 18Q864 28 785 66Q706 104 650 172L650 172Q711 201 756.50 225Q802 249 831 273L831 273L882 278L821 347Q737 254 634 193L634 193Q551 279 536 331L536 331L566 357L471 392Q475 358 475.50 322.50Q476 287 476 256L476 256ZM58-45L58-45L61-61Q280 15 395 218L395 218L429 241L369 292L337 256L80 256L117 218Q154 232 204 232L204 232L333 232Q248 49 58-45ZM646 612L463 612L497 574Q516 578 536.50 582Q557 586 584 586L584 586L752 586L684 653L646 612Z"/></svg>