<svg id="U2379F" viewBox="0 0 1024 1024"><path transform="translate(0, 921.6) scale(1,-1)" d="M165 367L165 499L398 499L398 367L165 367ZM165 527L113 546Q118 518 118.50 488.50Q119 459 119 424L119 424Q119 391 118.50 361.50Q118 332 113 304L113 304L165 319L165 342L398 342L398 304L451 323Q448 344 448 363L448 363Q448 382 448 401L448 401L448 493L474 512L420 553L398 527L165 527ZM410 612L410 612Q417 601 425.50 590.50Q434 580 439 568L439 568Q450 545 467 568L467 568Q477 595 467 632L467 632Q457 646 426 668Q395 690 338 717L338 717L325 707Q349 688 366 669Q383 650 398 635L398 635L137 628Q167 654 192 675Q217 696 240 713L240 713Q267 729 286.50 743Q306 757 325 767L325 767L259 811Q244 779 222 751Q200 723 174 694L174 694Q119 636 88 632L88 632L122 568Q153 593 410 612ZM259 219L259 219L85 219L119 185Q134 187 150.50 188.50Q167 190 187 190L187 190L225 190Q190 89 72-44L72-44L82-54Q203 40 259 152L259 152L259 36L259-85L313-65Q308-47 307.50-23Q307 1 307 26L307 26L307 131Q381 65 401 18L401 18Q430-20 439 5L439 5Q455 30 439 64L439 64Q426 94 307 149L307 149L307 190L467 190L410 257L369 219L307 219L307 282L341 304L256 335Q258 307 258.50 278Q259 249 259 219ZM662 685L662 685L458 685L492 650Q509 652 526 652.50Q543 653 565 656L565 656L656 656L649 571L555 571L505 597Q505 559 506.50 450.50Q508 342 508 162L508 162L407 162L439 124Q469 134 511 134L511 134L971 134L917 203L876 162L864 162L864 537L889 559L836 606L811 571L700 571L706 656L934 656L880 726L839 685L710 685L719 748L747 770L669 808Q669 781 666.50 750.50Q664 720 662 685ZM555 474L555 546L816 546L816 474L555 474ZM555 367L555 448L816 448L816 367L555 367ZM555 266L555 342L816 342L816 266L555 266ZM555 162L555 241L816 241L816 162L555 162ZM647 64L647 64L590 121Q535 19 420-72L420-72L430-85Q472-59 505-36.50Q538-14 565 8L565 8Q585 28 607 42.50Q629 57 647 64ZM741 108L741 108L731 99Q851 0 880-44L880-44Q914-97 924-69L924-69Q938-39 934-9L934-9Q918 23 741 108Z"/></svg>