<svg id="U23C12" viewBox="0 0 1024 1024"><path transform="translate(0, 921.6) scale(1,-1)" d="M340 728L340 728L294 784Q260 746 194 719L194 719Q160 699 129.50 687.50Q99 676 70 670L70 670L77 653Q96 658 123 664Q150 670 181 679L181 679L181 479L63 448L87 420L120 441L181 450L181 270L48 241L80 211L107 232L181 247L181 14Q181-66 256-66L256-66L892-66Q902-66 913.50-65Q925-64 937-61L937-61Q943-55 952.50-41Q962-27 976-6L976-6Q958-5 947.50 5Q937 15 937 34L937 34Q932 77 937 92L937 92L922 92Q922 77 919.50 57.50Q917 38 914 14L914 14Q898-26 882-26L882-26L269-26Q227-26 227 34L227 34L227 253L376 292L317 340L288 295L227 280L227 463L346 490L294 540L266 493L227 486L227 688Q244 696 258.50 700Q273 704 285 709L285 709Q296 711 310 717Q324 723 340 728ZM479 766L427 799Q416 764 392 714.50Q368 665 330 602L330 602L340 590Q464 752 479 766L479 766ZM439 507L439 507Q447 539 458 563.50Q469 588 486 602L486 602L427 637Q419 595 409 557.50Q399 520 385 486L385 486Q373 443 358.50 411.50Q344 380 330 351L330 351L342 343Q380 386 401 427L401 427Q401 266 401 171L401 171Q401 76 399 41L399 41L443 65Q439 83 439 194L439 194Q439 306 439 507ZM497 569L497 569L482 550L523 521L539 540L653 540L653 510L698 532Q696 547 695.50 585Q695 623 695 679L695 679L709 703L646 728Q646 693 649.50 652.50Q653 612 653 566L653 566L622 566L622 757L641 780L577 810Q577 778 578 718Q579 658 579 566L579 566L539 566L539 682L555 703L494 731Q494 702 495.50 662Q497 622 497 569ZM626 448L479 448L518 412Q530 414 542.50 417Q555 420 569 420L569 420L709 420L656 483L626 448ZM752 566L758 586L838 586Q829 492 820.50 415.50Q812 339 795 273L795 273Q783 295 772 380L772 380Q764 415 759 462Q754 509 752 566L752 566ZM734 540L734 540Q734 447 743 366Q752 285 772 214L772 214Q750 180 732.50 152Q715 124 698 105L698 105Q668 60 626 31L626 31L636 22Q659 35 681.50 50Q704 65 724 85L724 85Q739 102 755.50 121Q772 140 792 163L792 163Q804 126 822.50 96.50Q841 67 859 47L859 47Q868 72 918 72L918 72L918 82Q894 93 863 134L863 134Q845 155 833.50 174.50Q822 194 817 214L817 214Q843 286 860 378Q877 470 882 586L882 586L954 586L901 643L872 612L765 612Q790 684 805.50 726Q821 768 835 780L835 780L772 812Q767 788 759 747Q751 706 740 650L740 650Q725 598 711 555Q697 512 682 479L682 479L695 470Q702 485 711.50 501Q721 517 734 540ZM737 273L665 186L665 314L688 333L653 383L626 351L557 351L512 372Q512 320 511 273.50Q510 227 505 182L505 182Q498 136 479 94Q460 52 434 12L434 12L443 5Q478 38 502.50 72.50Q527 107 539 149L539 149Q551 181 554 226Q557 271 557 325L557 325L624 325L624 211Q624 146 617 131L617 131L653 89Q662 117 687 160.50Q712 204 746 264L746 264L737 273Z"/></svg>