<svg id="U23B27" viewBox="0 0 1024 1024"><path transform="translate(0, 921.6) scale(1,-1)" d="M200-71L200-71L265-58L265-19L766-19L766-71L837-56Q831-16 830 36Q829 88 829 166L829 166L862 193L795 247L762 202L269 202L200 227Q202 191 202.50 156.50Q203 122 203 89L203 89Q203 53 202.50 14.50Q202-24 200-71ZM265 9L265 176L766 176L766 9L265 9ZM778 754L778 754L711 815Q681 799 622.50 783.50Q564 768 476 754L476 754Q388 736 310.50 726.50Q233 717 162 712L162 712L162 693Q232 693 301.50 698Q371 703 442 712L442 712L442 612L139 586L187 553L219 566L442 586L442 486L42 450L79 418L132 434L442 457L442 337Q438 268 542 273L542 273L840 273Q931 273 961 319L961 319Q938 319 926 330Q914 341 912 367L912 367Q905 385 904.50 406.50Q904 428 904 457L904 457L882 457Q878 409 874 380Q870 351 865 340L865 340Q854 319 804 319L804 319L571 319Q502 319 502 362L502 362L502 466L959 506L872 569L814 514L502 490L502 590L858 627L775 685L730 634L502 616L502 719Q556 725 599 729.50Q642 734 674 737L674 737Q709 744 734 747Q759 750 778 754Z"/></svg>