<svg id="U238DB" viewBox="0 0 1024 1024"><path transform="translate(0, 921.6) scale(1,-1)" d="M88 558L88 558L99 551Q128 576 154 603.50Q180 631 205 661L205 661L426 661L388 599L398 592Q478 662 511 671L511 671L454 722L426 687L218 687L269 762L294 778L205 810Q175 676 88 558ZM212 450L212 450Q170 377 78 324L78 324L84 312Q246 375 290 491L290 491Q359 434 385 381L385 381Q413 326 436 355L436 355Q456 393 429 422L429 422Q404 455 294 507L294 507Q297 521 301 540.50Q305 560 310 586L310 586L334 611L253 630Q253 524 212 450ZM259 293L237 293Q205 217 152 177L152 177Q100 128 118 119L118 119Q128 104 161 110L161 110Q192 122 218 164L218 164Q244 209 259 293L259 293ZM835 214L835 214L763 277Q738 242 698.50 204Q659 166 603 126L603 126Q567 154 541.50 190Q516 226 495 268L495 268L524 303L439 331Q435 245 395 160L395 160Q358 87 282 28L282 28Q209-21 60-64L60-64L63-83Q408-31 490 236L490 236Q590-4 842-74L842-74Q855-32 924-23L924-23L924-8Q741 8 612 110L612 110Q626 116 651 130Q676 144 709 160L709 160Q744 179 775.50 191.50Q807 204 835 214ZM486 558L486 558L495 551Q519 569 541.50 597.50Q564 626 593 661L593 661L823 661L788 592L801 586Q856 641 911 668L911 668L855 715L823 687L606 687L643 753L668 771L590 807Q571 735 545.50 673Q520 611 486 558ZM599 438L599 438Q561 375 493 331L493 331L495 314Q631 367 671 488L671 488Q762 410 798 355L798 355Q830 299 851 331L851 331Q866 359 842 394L842 394Q825 413 785 439.50Q745 466 681 501L681 501Q683 513 686.50 534Q690 555 697 586L697 586L719 611L637 636Q632 569 624 519.50Q616 470 599 438Z"/></svg>