<svg id="U237D5" viewBox="0 0 1000 1000"><path transform="translate(0, 900) scale(1,-1)" d="M904 523C892 493 867 449 850 421L893 402C911 428 934 464 954 500ZM841 813C821 780 783 734 756 704L809 680C837 708 872 747 900 787ZM390 786C419 751 453 703 471 674L527 704C509 733 472 778 444 812ZM338 501C357 468 378 424 389 396L438 419C428 444 405 486 386 519ZM769 549C762 431 738 358 633 317C643 309 655 295 663 282L594 282L594 215L319 215L319 154L545 154C482 82 382 17 293-17C308-30 330-55 340-73C429-33 528 39 594 118L594-80L668-80L668 113C739 46 840-16 929-55C937-37 954-11 969 3C880 35 778 91 711 154L944 154L944 215L668 215L668 273L670 270C726 294 763 326 787 367C835 334 891 291 920 262L960 302C927 334 860 381 808 413L807 412C820 451 827 496 830 549ZM590 525C580 493 558 445 541 416L587 397C604 425 622 464 640 504C658 472 679 430 689 403L739 424C729 450 706 491 687 522L641 506ZM474 548C466 416 438 334 319 288C332 279 349 256 355 242C421 269 463 306 490 355C523 329 557 299 575 278L616 319C593 343 550 378 511 406C524 447 530 494 534 548ZM634 838C614 691 517 618 363 583C376 570 395 542 401 528C497 556 574 596 627 658C713 618 813 566 866 532L910 579C851 615 745 666 659 703C681 740 696 784 704 836ZM170 840L170 647L54 647L54 577L165 577C140 443 88 282 35 197C47 180 64 148 72 128C108 189 143 284 170 385L170-79L238-79L238 436C260 391 284 341 294 314L339 366C324 392 263 495 238 533L238 577L337 577L337 647L238 647L238 840Z"/></svg>