<svg id="U23EE6" viewBox="0 0 1024 1024"><path transform="translate(0, 921.6) scale(1,-1)" d="M642 783L578 821Q560 781 528.50 742Q497 703 459 663L459 663Q417 625 375.50 593.50Q334 562 289 537L289 537L292 525Q332 539 373 558Q414 577 450 607L450 607Q493 635 530 668.50Q567 702 598 742L598 742Q623 709 653.50 677Q684 645 717 619L717 619Q749 590 786.50 569Q824 548 859 534L859 534Q883 581 928 581L928 581L928 594Q837 594 752 648L752 648Q675 690 614 761L614 761L642 783ZM743 493L743 493L781 512L720 563L692 528L411 528L450 490Q468 494 488 498.50Q508 503 535 503L535 503L689 503L619 373L642 373Q662 404 686.50 434Q711 464 743 493ZM349-75L349-75L403-59L403-31L812-31L812-68L866-50Q860-5 859.50 70Q859 145 859 260L859 260L891 280L834 323L809 292L699 292L699 362L922 362L846 437L799 393L292 393L339 352Q379 362 431 362L431 362L503 362L503 292L403 292L349 304Q351 269 351.50 227Q352 185 352 134L352 134Q352 80 351.50 29.50Q351-21 349-75ZM557 292L557 367L652 367L652 292L557 292ZM403-6L403 264L503 264Q503 216 481 178L481 178Q469 159 450 137Q431 115 403 100L403 100L409 87Q482 118 519 166L519 166Q552 211 557 264L557 264L652 264L652 195Q652 128 717 128L717 128L812 128L812-6L403-6ZM699 200L699 264L812 264L812 166L740 166Q699 166 699 200L699 200ZM696 84L418 84L456 46Q483 59 537 59L537 59L799 59L733 125L696 84ZM604 619L475 619L510 581Q543 591 594 591L594 591L711 591L642 660L604 619ZM131 780L131 780L128 768Q191 697 210 651L210 651Q230 607 248 648L248 648Q270 682 242 717L242 717Q218 739 131 780ZM58 556L55 547Q82 519 101 494Q120 469 131 447L131 447Q145 400 166 421L166 421Q187 446 179 478L179 478Q175 512 58 556L58 556ZM64 198L64 198L64 182Q148 158 148 121L148 121Q148 90 131 31L131 31Q114-12 157-50L157-50Q200-77 195 10L195 10Q192 53 196 97.50Q200 142 207 185L207 185Q213 230 236.50 332Q260 434 295 601L295 601L283 607Q230 407 199 308Q168 209 157 200L157 200Q145 196 122.50 193Q100 190 64 198Z"/></svg>