<svg id="U23031" viewBox="0 0 1024 1024"><path transform="translate(0, 921.6) scale(1,-1)" d="M228 739L228 739Q214 756 132 791L132 791L125 781Q180 731 192 694L192 694Q211 653 228 688L228 688Q244 716 228 739ZM285 803L285 666L57 666L90 631Q107 633 127.50 636.50Q148 640 167 640L167 640L250 640Q204 572 51 490L51 490L57 477Q199 522 285 608L285 608L285 509L337 525L337 601Q433 560 468 521L468 521Q514 474 519 515L519 515Q523 553 487 576L487 576Q439 598 337 621L337 621L337 640L586 640L535 704L500 666L337 666L337 676L337 749L362 778L285 803ZM330 426L330 477L350 493L282 512L285 426L208 426L208 473L228 490L160 512L164 426L67 426L94 385L135 393L164 393L164 292L208 304L208 320L285 320L285 304L330 310L330 320L401 320L401 298L442 310L442 393L557 393L506 458L468 426L442 426L442 470L461 493L401 515L401 426L330 426ZM266 192L228 240L202 218L192 218L192 237L212 260L148 285L148 218L51 218L86 185Q120 192 148 192L148 192L145 115L192 122L192 192L266 192ZM340 221L362 189L388 195L416 195L410 112L461 129L458 195L567 195L522 253L484 221L458 221Q458 248 478 260L478 260L410 279L416 221L340 221ZM503 112L47 112L82 77Q97 79 114 81.50Q131 84 151 84L151 84L602 84L548 154L503 112ZM442 16L442 16Q422 28 393.50 43.50Q365 59 327 77L327 77L320 67Q356 33 383.50 5.50Q411-22 426-46L426-46Q456-96 468-49L468-49Q484-16 442 16ZM353 275L282 298Q279 201 261.50 134Q244 67 218 32L218 32Q160-47 64-84L64-84L67-97Q182-68 250 0L250 0Q317 77 330 257L330 257L353 275ZM647 468L672 544L800 544Q793 453 772 370Q751 287 721 218L721 218Q669 323 647 468L647 468ZM746 768L666 801Q627 512 538 275L538 275L554 269Q577 314 597 351Q617 388 628 423L628 423Q640 345 655.50 282Q671 219 694 170L694 170Q651 88 591 26Q531-36 455-87L455-87L461-100Q537-62 603.50-11Q670 40 721 112L721 112Q788-14 890-97L890-97Q906-57 957-62L957-62L957-42Q857-14 746 154L746 154Q792 247 820 344Q848 441 858 544L858 544L944 544L890 611L852 570L676 570Q685 615 696.50 660.50Q708 706 721 752L721 752L746 768ZM368 676L368 676L381 669Q407 685 431.50 707.50Q456 730 481 752L481 752L516 761L448 806Q430 747 368 676ZM208 349L208 393L285 393L285 349L208 349ZM330 349L330 393L401 393L401 349L330 349Z"/></svg>