<svg id="U23626" viewBox="0 0 1024 1024"><path transform="translate(0, 921.6) scale(1,-1)" d="M514 522L463 583L420 548L373 548L378 630L492 630L448 692L410 655L309 655Q325 689 350 699L350 699L291 737Q270 636 221 561L221 561L234 555Q259 575 273 592.50Q287 610 296 630L296 630L335 630Q335 615 333 594.50Q331 574 329 548L329 548L206 548L234 520Q248 520 264.50 521Q281 522 300 522L300 522L319 522Q307 477 284.50 436Q262 395 224 362L224 362L231 350L202 350L202 740L530 740L476 800L429 769L206 769L152 790Q154 750 154.50 707.50Q155 665 155 617L155 617L155 362L124 340L180 286L211 324L527 324L473 396L432 350L234 350Q321 397 353 481L353 481Q400 438 417 400L417 400Q432 359 451 391L451 391Q476 428 445 450L445 450Q425 462 404.50 475.50Q384 489 357 501L357 501L369 522L514 522ZM640 749L640 749L747 749L747 684Q747 614 795 614L795 614L877 614Q936 614 936 623L936 623Q936 635 918 655L918 655Q897 664 879 661L879 661Q868 656 853.50 655.50Q839 655 826 655L826 655Q796 655 800 692L800 692L800 746L826 769L766 810L744 774L640 774L589 807Q602 642 511 563L511 563L517 555Q625 608 640 749ZM763 566L561 566L592 529Q611 533 629 536Q647 539 669 542L669 542L766 542Q737 493 706 457L706 457Q669 467 634.50 478.50Q600 490 568 504L568 504L564 485Q594 468 622.50 453.50Q651 439 677 425L677 425Q609 357 533 321L533 321L543 303Q665 349 722 406L722 406Q761 377 791 354.50Q821 332 836 312L836 312Q864 274 873 324L873 324Q878 381 751 438L751 438Q768 458 785.50 482Q803 506 823 535L823 535L854 545L795 602L763 566ZM545 41L545 41L545 211L568 211Q602 133 681 69L681 69Q715 34 760.50 0.50Q806-33 864-64L864-64Q877-25 955-20L955-20L955-1Q884 0 795 51L795 51Q744 71 694 112.50Q644 154 592 211L592 211L961 211L885 280L833 236L545 236L545 268L568 286L489 321Q489 298 490.50 276.50Q492 255 492 236L492 236L82 236L114 198Q132 203 150 205.50Q168 208 186 211L186 211L438 211Q388 134 291 60L291 60Q246 26 194-1Q142-28 87-55L87-55L90-67Q148-56 202.50-31Q257-6 312 22L312 22Q421 93 492 192L492 192L492 31Q492 6 490.50-22Q489-50 489-83L489-83L548-52Q545-25 545-2L545-2Q545 20 545 41Z"/></svg>