<svg id="U231B3" viewBox="0 0 1000 1000"><path transform="translate(0, 900) scale(1,-1)" d="M472 245L405 226C430 173 463 127 503 89C453 50 379 17 274-6C289-21 308-50 317-67C427-39 504-1 559 43C652-21 774-59 927-76C937-55 956-25 972-8C821 4 699 37 609 93C654 148 674 209 683 274L924 274L924 646L689 646L689 727L960 727L960 792L366 792L366 727L617 727L617 646L390 646L390 274L611 274C603 225 587 178 553 136C519 167 492 203 472 245ZM459 432L617 432L617 376L616 335L459 335ZM689 432L853 432L853 335L688 335L689 376ZM459 586L617 586L617 489L459 489ZM689 586L853 586L853 489L689 489ZM260 414L260 185L136 185L136 414ZM260 481L136 481L136 703L260 703ZM74 771L74 36L136 36L136 117L323 117L323 771Z"/></svg>