<svg id="U23C2F" viewBox="0 0 1024 1024"><path transform="translate(0, 921.6) scale(1,-1)" d="M695 678L695 678L695 486L562 459L597 427L626 445L695 459L695 273L549 241L587 208L617 227L695 247L695 22Q686-48 764-48L764-48L888-48Q921-48 933-45L933-45Q941-39 952-29Q963-19 974 2L974 2Q957 4 946.50 14Q936 24 936 41L936 41Q933 58 933 84L933 84Q933 111 933 149L933 149L921 149Q919 100 914 70Q909 40 904 27L904 27Q892-6 854-6L854-6L798-6Q737-6 743 47L743 47L743 261L956 301L898 362L865 311L743 284L743 470L921 518L854 566L834 524L743 500L743 682Q776 696 802 703.50Q828 711 846 719L846 719Q874 728 907 728L907 728L854 796Q838 774 809.50 757.50Q781 741 743 728L743 728Q707 711 658 694.50Q609 678 557 667L557 667L562 650Q586 655 618.50 661Q651 667 695 678ZM158 362L146 362Q132 335 117.50 315Q103 295 89 284L89 284Q61 267 70 247L70 247Q75 224 91 224L91 224Q103 224 113.50 234Q124 244 135 261L135 261Q140 278 147.50 302.50Q155 327 158 362L158 362ZM229 370L227 362Q242 327 250.50 303Q259 279 261 264L261 264Q273 226 293 261L293 261Q312 289 293 319L293 319Q265 346 229 370L229 370ZM190-6L190 72L468 72L468-6L190-6ZM297 790L223 829Q220 808 206 776.50Q192 745 169 703L169 703Q149 658 118.50 614.50Q88 571 50 524L50 524L61 510Q81 527 96 544Q111 561 126 580L126 580Q126 496 125.50 443Q125 390 122 367L122 367L174 386L174 403L485 403L485 380L535 398Q533 414 533 462L533 462Q533 511 533 586L533 586L557 609L513 657L481 624L343 624Q352 633 362.50 642.50Q373 652 387 664L387 664Q399 674 413.50 679Q428 684 448 688L448 688L401 760L375 725L239 725Q269 781 297 790L297 790ZM174 532L174 598L306 598L306 532L174 532ZM356 532L356 598L485 598L485 532L356 532ZM174 427L174 506L306 506L306 427L174 427ZM356 427L356 506L485 506L485 427L356 427ZM227 700L227 700L375 700L316 624L165 624Q173 636 190 654Q207 672 227 700ZM190 218L140 243Q142 214 142 174L142 174Q142 135 142 85L142 85Q142 31 142-8L142-8Q142-47 140-84L140-84L190-58L190-32L468-32L468-73L522-56Q520-27 520 28L520 28Q520 84 520 179L520 179L546 197L497 250L464 218L190 218ZM190 101L190 189L468 189L468 101L190 101ZM349 380L340 367Q355 337 368 311.50Q381 286 387 270L387 270Q400 238 419 267L419 267Q433 300 416 325L416 325Q405 336 387.50 349Q370 362 349 380L349 380ZM478 370L468 362Q487 334 498.50 310Q510 286 520 270L520 270Q529 228 549 264L549 264Q569 295 549 322L549 322Q541 330 523 342.50Q505 355 478 370L478 370Z"/></svg>