<svg id="U23FF" viewBox="0 0 1000 1000"><path transform="translate(0, 900) scale(1,-1)" d="M926-7L902-60L57 317L899 756L926 705L821 651Q870 631 887 562.50Q904 494 904 396L904 396Q904 311 893.50 239.50Q883 168 860 118Q837 68 800 49L800 49L926-7ZM755 97L755 97Q795 97 820.50 174.50Q846 252 846 396L846 396Q846 599 785 599L785 599Q745 599 719.50 521.50Q694 444 694 300L694 300Q694 97 755 97ZM636 300L636 300Q636 384 646 456Q656 528 679 576L679 576L190 322L660 112Q647 146 641.50 194.50Q636 243 636 300Z"/></svg>