<svg id="U23D22" viewBox="0 0 1024 1024"><path transform="translate(0, 921.6) scale(1,-1)" d="M133 796L133 796L126 787Q169 749 196.50 721.50Q224 694 233 673L233 673Q256 628 275 667L275 667Q295 697 269 728L269 728Q248 756 133 796ZM58 578L52 566Q90 533 109.50 507.50Q129 482 140 459L140 459Q152 420 178 437L178 437Q198 459 194 496L194 496Q182 532 58 578L58 578ZM60 208L60 208L60 193Q155 166 155 134L155 134Q155 97 140 27L140 27Q128-38 169-58L169-58Q214-79 207 14L207 14Q202 107 207 151L207 151Q211 169 217.50 192Q224 215 233 238L233 238Q240 263 269.50 364Q299 465 353 643L353 643L326 648Q195 229 163 211L163 211Q125 193 60 208ZM434 553L434 660L831 660L831 553L434 553ZM434 409L434 529L831 529L831 409L434 409ZM592-87L592-87L659-61Q656-34 656-9L656-9Q656 16 656 37L656 37L656 193L971 193L901 261L863 218L656 218L656 380L831 380L831 333L892 357Q885 386 884.50 415Q884 444 884 473L884 473L884 660L914 679L859 725L824 688L526 688Q555 717 569.50 735.50Q584 754 595 764L595 764Q599 768 609 774Q619 780 634 790L634 790L557 832Q552 778 508 688L508 688L434 688L376 725Q378 683 378 630L378 630Q378 577 378 514L378 514Q378 448 378 403L378 403Q378 358 376 328L376 328L434 351L434 380L598 380L598 221L285 221L323 182Q352 195 406 195L406 195L598 195L598 18Q598 6 596-18.50Q594-43 592-87Z"/></svg>