<svg id="U239C9" viewBox="0 0 1024 1024"><path transform="translate(0, 921.6) scale(1,-1)" d="M234 506L234 506L398 506Q388 459 375 409.50Q362 360 344 309L344 309Q300 200 234 112L234 112Q162 16 53-66L53-66L57-84Q215 13 280 99L280 99Q357 197 390 290L390 290Q408 337 424 386Q440 435 454 493L454 493L484 528L428 577L398 531L244 531Q254 565 265.50 611Q277 657 289 715L289 715L484 715L418 787L374 745L60 745L94 710Q111 712 130.50 713.50Q150 715 171 715L171 715L228 715Q219 670 208 617.50Q197 565 175 502L175 502Q137 372 53 252L53 252L60 238Q103 280 132.50 317.50Q162 355 179 386L179 386Q200 350 213.50 317.50Q227 285 231 256L231 256Q250 188 271 228L271 228Q296 265 276 309L276 309Q270 327 246 350Q222 373 189 402L189 402Q197 413 208 438.50Q219 464 234 506ZM793 502L848 726L874 747L816 803L787 766L467 766L516 715Q531 723 541 725.50Q551 728 554 732L554 732Q554 634 549.50 548.50Q545 463 534 391L534 391Q523 316 507.50 253Q492 190 467 135L467 135Q443 77 407 23Q371-31 325-84L325-84L331-92Q387-46 433 6Q479 58 512 126L512 126Q540 186 560.50 258Q581 330 593 412L593 412Q610 332 635.50 260.50Q661 189 696 126L696 126Q606-3 458-84L458-84L463-98Q549-71 615-26Q681 19 732 81L732 81Q773 29 810.50-9.50Q848-48 890-74L890-74Q910-33 970-29L970-29L970-14Q911-5 862.50 31Q814 67 767 126L767 126Q809 188 841 268Q873 348 903 455L903 455L935 484L877 539L848 502L793 502ZM603 484L603 484Q609 637 609 736L609 736L790 736L735 502L578 502L593 474L684 474L777 474L848 474Q825 386 796 312Q767 238 732 173L732 173Q672 252 603 484Z"/></svg>