<svg id="U2310D" viewBox="0 0 1024 1024"><path transform="translate(0, 921.6) scale(1,-1)" d="M270-89L270-89Q321-55 338-38L338-38Q356-14 373 50L373 50Q378 81 381.50 161.50Q385 242 392 373L392 373L418 386L357 440L331 402L229 402L232 543L453 543L395 619L353 571L55 571L85 536Q103 538 121 540.50Q139 543 159 543L159 543L178 543Q178 331 142 181L142 181Q128 108 101 44.50Q74-19 39-79L39-79L49-92Q218 100 223 376L223 376L335 376Q332 261 329 189Q326 117 322 89L322 89Q314 30 300 9L300 9Q288-16 194 11L194 11L190-10Q270-39 270-89ZM178 802L178 802L172 792Q204 755 224 723Q244 691 252 664L252 664Q261 607 293 645L293 645Q321 682 300 719L300 719Q271 761 178 802ZM498 425L498 425L552 440L552 482L802 482L802 440L852 460L852 721L882 754L827 796L802 757L549 757L498 789Q500 735 500.50 691.50Q501 648 501 610L501 610Q501 568 500.50 522.50Q500 477 498 425ZM552 636L552 728L802 728L802 636L552 636ZM552 511L552 610L802 610L802 511L552 511ZM571 242L571 242L494 283Q494 241 488 198Q482 155 466 101L466 101Q451 49 425.50 2.50Q400-44 370-89L370-89L383-95Q460-27 516 104L516 104Q573 14 654-25L654-25Q742-69 891-73L891-73Q907-30 945-19L945-19L945-8Q882-10 822-8Q762-6 696 9L696 9L696 187L904 187L847 264L805 217L696 217L696 347L930 347L875 421L834 376L421 376L456 341Q495 347 529 347L529 347L644 347L644 24Q569 61 529 136L529 136Q539 215 571 242Z"/></svg>