<svg id="U232CA" viewBox="0 0 1024 1024"><path transform="translate(0, 921.6) scale(1,-1)" d="M99 417L99 660L257 660L257 417L99 417ZM99 139L99 392L257 392L257 139L99 139ZM48 24L48 24L99 55L99 113L257 113L257 52L307 84Q305 132 305 271L305 271Q305 411 305 644L305 644L334 670L276 721L250 686L106 686L48 714Q51 650 51 562L51 562Q51 474 51 365L51 365Q51 251 51 166L51 166Q51 81 48 24ZM587 692L334 692L369 660Q388 662 405.50 664Q423 666 442 666L442 666L909 666L851 734L801 692L622 692Q652 717 640 746L640 746Q635 774 555 814L555 814L545 807Q587 745 587 692L587 692ZM379 312L379 312L432 330L432 340L795 340L795 315L851 337Q845 367 844 428Q843 489 843 583L843 583L871 603L813 641L791 613L432 613L379 634Q379 596 380.50 556Q382 516 382 478L382 478Q382 442 380.50 399.50Q379 357 379 312ZM432 369L432 586L795 586L795 369L432 369ZM542 541L493 564Q493 528 495 505.50Q497 483 497 468L497 468Q497 450 495 433Q493 416 493 398L493 398L542 413L542 423L676 423L676 398L723 417Q721 441 721 463L721 463Q721 486 721 510L721 510L743 529L695 568L673 541L542 541ZM542 448L542 513L676 513L676 448L542 448ZM404-7L404-7L458 6L458 24L768 24L768 0L820 17Q817 43 816.50 95Q816 147 816 235L816 235L843 257L788 299L759 270L458 270L404 292Q404 258 405.50 222.50Q407 187 407 149L407 149Q407 110 405.50 70Q404 30 404-7ZM458 155L458 241L768 241L768 155L458 155ZM458 52L458 129L768 129L768 52L458 52ZM807-32L295-32L327-67Q363-57 404-57L404-57L935-57L868 17L807-32Z"/></svg>