<svg id="U2323A" viewBox="0 0 1024 1024"><path transform="translate(0, 921.6) scale(1,-1)" d="M111 429L111 675L274 675L274 429L111 429ZM111 151L111 400L274 400L274 151L111 151ZM56 32L56 32L111 64L111 119L274 119L274 58L329 93Q326 141 326 282L326 282Q326 424 326 663L326 663L354 688L294 736L271 705L111 705L56 733Q58 666 58 576L58 576Q58 487 58 375L58 375Q58 263 58 177L58 177Q58 92 56 32ZM575 615L575 730L675 730L675 615L575 615ZM434 452L434 590L527 590L527 452L434 452ZM575 452L575 590L675 590L675 452L575 452ZM725 452L725 590L821 590L821 452L725 452ZM384 387L384 387L434 407L434 425L821 425L821 394L879 417Q876 447 876 468L876 468Q876 489 876 497L876 497L876 583L898 598L841 650L811 615L725 615L725 730L927 730L869 803L825 756L329 756L364 723Q381 725 395.50 727.50Q410 730 425 730L425 730L527 730L527 615L434 615L384 647Q386 610 386.50 579Q387 548 387 518L387 518Q387 492 386.50 457.50Q386 423 384 387ZM297-94L297-94L309-103Q473-5 473 157L473 157L780 157L780-6Q766-24 630-20L630-20L630-39Q748-58 748-100L748-100Q831-71 831-9L831-9L831 292L866 317L803 369L770 330L476 330L422 365Q422 329 423.50 302Q425 275 425 257L425 257L425 157Q421 25 297-94ZM473 179L473 301L780 301L780 179L473 179Z"/></svg>