<svg id="U23AF4" viewBox="0 0 1024 1024"><path transform="translate(0, 921.6) scale(1,-1)" d="M475 744L475 744L155 744L193 705Q210 710 230 714Q250 718 277 718L277 718L475 718L475 643L72 643L109 606Q125 611 145.50 614Q166 617 193 617L193 617L940 617L871 686L833 643L532 643L532 718L865 718L794 789L754 744L532 744L532 777L569 800L471 822Q471 797 473 777.50Q475 758 475 744ZM475 537L475 537L148 537L187 497Q204 502 223.50 506.50Q243 511 271 511L271 511L475 511L475 431L55 431L95 393Q126 402 176 402L176 402L955 402L888 473L849 431L532 431L532 511L874 511L807 580L768 537L532 537L532 576L574 596L471 620Q471 604 473 584.50Q475 565 475 537ZM205 176L190 82L155 55L209 8L239 40L700 40Q695-18 675-24L675-24Q661-24 632-21Q603-18 562-10L562-10L562-24Q643-48 664-97L664-97Q715-83 736-58L736-58Q751-37 765 40L765 40L946 40L874 108L836 65L765 65L768 176L964 176L894 243L855 201L768 201L771 318L797 347L733 393L707 353L292 353L232 380L209 201L40 201L79 162Q107 176 162 176L162 176L205 176ZM267 201L280 323L710 323L707 201L267 201ZM242 65L262 176L707 176L700 65L507 65Q553 92 528 118L528 118Q511 143 438 172L438 172L433 162Q447 148 455 135.50Q463 123 471 114L471 114Q477 102 479.50 90Q482 78 487 65L487 65L242 65ZM436 321L436 321L426 315Q447 286 460 266.50Q473 247 475 233L475 233Q484 190 512 222L512 222Q543 245 516 272L516 272Q480 295 436 321Z"/></svg>