<svg id="U23E65" viewBox="0 0 1024 1024"><path transform="translate(0, 921.6) scale(1,-1)" d="M148 774L148 774L145 762Q174 733 193 707.50Q212 682 224 661L224 661Q248 608 271 643L271 643Q293 674 271 705L271 705Q244 733 148 774ZM84 566L81 555Q135 493 148 453L148 453Q168 408 186 432L186 432Q206 452 202 488L202 488Q198 519 84 566L84 566ZM65 201L65 201L65 186Q148 166 148 126L148 126Q148 86 136 28L136 28Q123-24 164-52L164-52Q208-73 199 19L199 19Q196 64 196 94L196 94Q196 125 196 145L196 145Q198 165 200.50 187Q203 209 208 233L208 233Q217 254 240.50 344.50Q264 435 300 602L300 602L281 604Q182 227 155 205L155 205Q127 192 65 201ZM435 60L435 60L435 504L470 532L416 555Q430 590 449.50 639Q469 688 492 749L492 749L520 774L438 810Q421 729 403.50 665.50Q386 602 362 545L362 545Q320 428 253 337L253 337L262 324Q291 355 322 393.50Q353 432 388 479L388 479L388 88Q388 66 387 24.50Q386-17 382-83L382-83L438-58Q435-22 435 5L435 5Q435 33 435 60ZM675 664L675 664L489 664L520 630Q538 632 558 636Q578 640 602 640L602 640L675 640L675 570L511 570L545 535Q579 545 624 545L624 545L675 545L675 453L454 453L492 419Q523 428 567 428L567 428L958 428L888 494L845 453L728 453L728 545L904 545L842 607L804 570L728 570L728 640L942 640L876 709L829 664L728 664L728 749L763 781L672 807Q672 769 673.50 733Q675 697 675 664ZM590 265L590 340L819 340L819 265L590 265ZM590 154L590 239L819 239L819 154L590 154ZM533-77L590-49L590 126L819 126L819 41Q819 6 806 3L806 3Q790-3 672 10L672 10L672-5Q768-31 781-83L781-83Q824-67 854-39L854-39Q870-11 870 19L870 19L870 334L898 359L842 400L816 368L590 368L533 396Q533 338 534.50 279Q536 220 536 160L536 160Q536 99 534.50 40Q533-19 533-77L533-77Z"/></svg>