<svg id="U23B04" viewBox="0 0 1024 1024"><path transform="translate(0, 921.6) scale(1,-1)" d="M483 546L251 473L251 617L495 617L424 690L386 647L251 647L251 737L283 770L192 802Q196 760 197 714.50Q198 669 198 617L198 617L198 497Q198 493 193.50 482Q189 471 179 456L179 456L225 396Q249 411 313.50 446Q378 481 487 527L487 527L483 546ZM836 519L836 519Q828 499 817.50 487.50Q807 476 796 476L796 476L642 476Q596 476 596 519L596 519L596 624L864 624L796 693L756 650L596 650L596 747L625 777L537 816Q537 778 538.50 704.50Q540 631 540 519L540 519Q536 431 615 431L615 431L815 431Q890 431 909 486L909 486Q875 495 867 524L867 524Q856 544 856 611L856 611L840 611Q840 600 839 577.50Q838 555 836 519ZM444 357L377 417Q342 371 303.50 330Q265 289 222 257L222 257Q173 222 134 197.50Q95 173 64 159L64 159L67 141Q109 156 149 176.50Q189 197 230 226L230 226Q277 248 321.50 279Q366 310 407 352L407 352L444 357ZM637 385L637 385L657 399L601 424L588 399L477 399L513 360L556 373L607 373Q612 367 631 346Q650 325 685 291L685 291Q723 261 771 229.50Q819 198 885 169L885 169Q893 187 912 201Q931 215 960 228L960 228L960 240Q911 240 865 252.50Q819 265 773 288L773 288Q725 311 692 335.50Q659 360 637 385ZM685 214L228 214L267 176L309 187L407 187Q400 145 374.50 105Q349 65 309 27L309 27Q272-10 223-34.50Q174-59 121-76L121-76L121-89Q190-75 245-53Q300-31 341-1L341-1Q385 28 416 75Q447 122 469 187L469 187L685 187Q681 143 673.50 109.50Q666 76 660 50L660 50Q655 24 644 11.50Q633-1 618-1L618-1Q602-1 576.50 4.50Q551 10 509 17L509 17L509-1Q601-37 615-83L615-83Q644-72 661.50-58.50Q679-45 689-26L689-26Q712 1 744 179L744 179L777 208L715 251L685 214Z"/></svg>