<svg id="U235FA" viewBox="0 0 1024 1024"><path transform="translate(0, 921.6) scale(1,-1)" d="M154 363L154 486L416 486L416 363L154 363ZM154 511L98 530Q99 507 99.50 478Q100 449 100 417L100 417Q100 384 99.50 354.50Q99 325 98 297L98 297L154 313L154 335L416 335L416 297L470 316Q467 337 467 356L467 356Q467 375 467 391L467 391L467 483L488 505L437 543L416 511L154 511ZM426 609L426 609Q437 592 444.50 578Q452 564 460 553L460 553Q470 525 488 553L488 553Q509 583 488 618L488 618Q469 647 344 703L344 703L331 694Q356 673 375 656Q394 639 409 631L409 631L120 615Q204 663 218 681L218 681Q229 685 246.50 702Q264 719 290 741L290 741L328 748L265 801Q219 724 164 678L164 678Q110 625 68 618L68 618L100 553Q148 579 426 609ZM601 16L601 291L844 291L844 16L601 16ZM891 278L891 278L923 306L866 353L838 316L737 316L737 530L941 530L882 602L828 558L737 558L737 731L771 760L683 798Q683 741 686 681.50Q689 622 689 558L689 558L504 558L539 524Q576 530 604 530L604 530L689 530L689 316L599 316L548 350Q548 308 551.50 258.50Q555 209 555 142L555 142Q555 81 553 24Q551-33 551-88L551-88L601-60L601-10L844-10L844-79L894-51Q891 12 891 92L891 92Q891 173 891 278ZM242 118L167 162Q139 62 49-35L49-35L58-47Q152 19 205 101L205 101L242 118ZM349 149L344 136Q427 48 447 1L447 1Q469-45 488-23L488-23Q507-5 498 32L498 32Q492 65 349 149L349 149ZM308 134L308 152L308 190L522 190L467 250L434 216L308 216L308 268L340 291L255 329Q260 300 261 271.50Q262 243 262 216L262 216L43 216L78 180Q92 182 112 186Q132 190 151 190L151 190L262 190L262 39Q262-3 261-36Q260-69 255-95L255-95L311-75Q308-49 308-23L308-23Q308 3 308 26L308 26L308 134Z"/></svg>