<svg id="U23193" viewBox="0 0 1024 1024"><path transform="translate(0, 921.6) scale(1,-1)" d="M114 461L114 711L277 711L277 461L114 461ZM114 173L114 428L277 428L277 173L114 173ZM62 54L62 54L114 90L114 147L277 147L277 77L335 112Q332 166 332 313L332 313Q332 460 332 701L332 701L358 726L303 774L275 739L114 739L62 764Q65 700 65 610L65 610Q65 521 65 406L65 406Q65 291 65 202L65 202Q65 114 62 54ZM443 368L443 538L815 538L815 493L869 512Q866 551 866 605L866 605Q866 659 866 726L866 726L898 746L844 803L815 764L443 764L390 803L393 746L393 368Q378 107 235-84L235-84L245-97Q429 93 443 368L443 368ZM443 563L443 739L815 739L815 563L443 563ZM774 349L456 349L491 310Q508 313 525 316.50Q542 320 562 320L562 320L626 320L626 10L373 10L408-24Q428-20 445.50-18.50Q463-17 479-17L479-17L942-17L885 54L834 10L677 10L677 320L885 320L824 403L774 349Z"/></svg>