<svg id="U23164" viewBox="0 0 1024 1024"><path transform="translate(0, 921.6) scale(1,-1)" d="M121 393L121 640L294 640L294 393L121 393ZM121 109L121 365L294 365L294 109L121 109ZM66-17L66-17L121 10L121 84L294 84L294 10L352 45Q346 94 345.50 239.50Q345 385 345 624L345 624L380 653L319 714L287 669L124 669L66 701Q68 634 68 544L68 544Q68 455 68 340L68 340Q68 225 68 135L68 135Q68 46 66-17ZM560 493L560 493L345 493L380 455Q397 457 414.50 459Q432 461 454 464L454 464L560 464Q554 364 531.50 283.50Q509 203 477 137L477 137Q438 73 387 20Q336-33 272-84L272-84L278-94Q429-24 518 109L518 109Q560 178 584 265Q608 352 613 464L613 464L627 464Q641 211 710 96L710 96Q771-26 848-87L848-87Q858-47 931-59L931-59L937-39Q832 9 758 122L758 122Q680 236 643 464L643 464L911 464L848 538L799 493L613 493L613 736L643 759L556 801Q556 761 558 683Q560 605 560 493ZM678 729L678 729L671 717Q752 634 777 583L777 583Q800 536 825 579L825 579Q838 625 813 653L813 653Q781 682 678 729Z"/></svg>