<svg id="U23E64" viewBox="0 0 1024 1024"><path transform="translate(0, 921.6) scale(1,-1)" d="M138 787L138 787L128 778Q187 722 213 677L213 677Q233 617 254 658L254 658Q275 689 254 722L254 722Q236 746 138 787ZM67 573L63 561Q118 504 138 457L138 457Q145 415 176 438L176 438Q197 467 184 494L184 494Q179 530 67 573L67 573ZM70 211L70 211L70 195Q156 171 156 136L156 136Q156 114 152.50 89Q149 64 140 34L140 34Q133-27 169-55L169-55Q215-77 207 16L207 16Q202 107 207 154L207 154Q211 173 214 195.50Q217 218 222 239L222 239Q229 263 248 357.50Q267 452 302 623L302 623L282 627Q188 227 163 214L163 214Q134 197 70 211ZM513 778L440 813Q434 786 425.50 755.50Q417 725 408 687L408 687L285 687L320 658Q329 658 343 659.50Q357 661 377 661L377 661L399 661Q380 616 368 588Q356 560 351 548L351 548Q380 538 411 528Q442 518 477 504L477 504Q413 427 282 365L282 365L285 350Q322 361 355.50 375Q389 389 421 406L421 406Q477 437 525 485L525 485Q546 471 566.50 454.50Q587 438 603 419L603 419Q631 388 644 425L644 425Q654 461 623 485L623 485Q608 491 588 500Q568 509 550 517L550 517Q573 552 590 579.50Q607 607 619 627L619 627Q639 663 663 677L663 677L603 725L575 687L459 687Q466 703 472.50 723Q479 743 487 762L487 762L513 778ZM729 702L673 728Q673 698 676.50 665Q680 632 680 592L680 592Q680 549 676.50 505Q673 461 673 416L673 416L726 438L726 476L852 476L852 432L906 453Q903 468 903 483L903 483Q903 499 903 517L903 517L903 664L931 696L878 737L852 702L729 702ZM408 561L408 561Q423 593 433 619Q443 645 452 661L452 661L575 661Q531 569 506 532L506 532Q471 541 447 547Q423 553 408 561ZM726 504L726 677L852 677L852 504L726 504ZM361 340L361 340L361 321Q427 325 483.50 328Q540 331 588 334L588 334L588 252L339 252L374 218Q392 220 410.50 222Q429 224 452 224L452 224L588 224L588 154L269 154L305 116Q323 118 347 120.50Q371 123 402 126L402 126L588 126L588 19Q588-2 544 0L544 0Q522 2 495 2.50Q468 3 440 6L440 6L440-8Q539-24 565-86L565-86Q644-59 644 6L644 6L644 126L960 126L893 195L846 154L644 154L644 224L887 224L824 293L783 252L644 252L644 337Q719 346 771.50 351Q824 356 855 359L855 359L796 419Q742 396 635.50 375Q529 354 361 340Z"/></svg>