<svg id="U23260" viewBox="0 0 1024 1024"><path transform="translate(0, 921.6) scale(1,-1)" d="M176 428L297 428L297 66L176 50L176 428ZM124 571L124 44Q103 38 84 35.50Q65 33 50 31L50 31L81-38Q81-14 444 72L444 72L444 89L345 72L345 428L473 428L406 508L364 453L176 453L176 671Q233 682 289 694.50Q345 707 402 719L402 719L457 721L393 786Q357 754 303 733.50Q249 713 176 696L176 696L121 738Q123 693 123.50 653Q124 613 124 571L124 571ZM512 446L512 446L563 472L563 488L813 488L813 466L866 491Q861 520 860.50 582.50Q860 645 860 738L860 738L886 763L831 804L806 766L572 766L512 789Q514 735 514.50 689.50Q515 644 515 606L515 606Q515 570 514.50 529.50Q514 489 512 446ZM633 380L633 380L953 380L889 443L851 405L435 405L470 367Q486 371 503.50 375.50Q521 380 540 380L540 380L569 380Q549 344 533.50 314.50Q518 285 499 264L499 264Q482 240 459.50 217.50Q437 195 415 172L415 172L422 162Q486 195 537 242L537 242L614 242Q582 174 522 117L522 117Q494 91 463 67.50Q432 44 397 24L397 24L402 9Q448 29 487.50 52.50Q527 76 560 97L560 97Q613 147 675 242L675 242L751 242Q728 182 696.50 137Q665 92 630 53L630 53Q588 16 541.50-17Q495-50 438-79L438-79L444-89Q571-45 658 27L658 27Q745 91 806 242L806 242L854 242Q849 181 842.50 132Q836 83 831 50L831 50Q822-22 796-22L796-22Q781-19 753.50-14.50Q726-10 688-8L688-8L681-22Q775-49 786-99L786-99Q835-76 854-54L854-54Q866-38 880 17L880 17Q884 41 890 95.50Q896 150 905 229L905 229L934 255L876 305L854 267L553 267Q579 301 598.50 328Q618 355 633 380ZM563 648L563 741L813 741L813 648L563 648ZM563 520L563 619L813 619L813 520L563 520Z"/></svg>