<svg id="U23D6A" viewBox="0 0 1024 1024"><path transform="translate(0, 921.6) scale(1,-1)" d="M131 802L131 802L128 793Q159 764 180 737.50Q201 711 215 688L215 688Q242 635 263 673L263 673Q278 707 257 737L257 737Q248 750 216.50 765Q185 780 131 802ZM57 590L54 578Q89 539 109.50 513.50Q130 488 133 473L133 473Q150 433 172 450L172 450Q192 462 188 503L188 503Q183 536 57 590L57 590ZM61 214L61 214L61 197Q151 171 151 137L151 137Q151 116 147.50 89.50Q144 63 137 31L137 31Q128-38 169-58L169-58Q209-78 204 18L204 18Q195 107 204 156L204 156Q206 175 210.50 198Q215 221 224 243L224 243Q230 272 257 366.50Q284 461 328 634L328 634L308 637Q247 436 210.50 332.50Q174 229 163 221L163 221Q126 202 61 214ZM344 637L344 78L270 65L310 0Q326 11 358 26Q390 41 447 56L447 56Q504 72 549 88Q594 104 632 118L632 118L632 134L583 121L583 673L608 709L554 754L525 712L392 712L337 741Q342 711 343 687Q344 663 344 637L344 637ZM392 532L392 682L527 682L527 532L392 532ZM392 340L392 507L527 507L527 340L392 340ZM392 85L392 314L527 314L527 114L392 85ZM763 583L763 772L789 799L705 832Q705 780 706.50 719Q708 658 708 583L708 583L597 583L630 544Q661 556 708 556L708 556Q708 456 697 371Q686 286 670 211L670 211Q632 60 503-76L503-76L514-87Q675 43 715 197L715 197Q757 347 763 556L763 556L866 556Q854 351 848.50 235Q843 119 841 85L841 85Q833 53 825.50 34.50Q818 16 808 14L808 14Q797 12 769 14Q741 16 696 24L696 24L692 12Q783-16 802-73L802-73Q819-65 832.50-58Q846-51 859-35L859-35Q870-18 878.50 9Q887 36 892 72L892 72Q899 111 905.50 228.50Q912 346 920 544L920 544L950 580L888 627L863 583L763 583Z"/></svg>