<svg id="U2373E" viewBox="0 0 1024 1024"><path transform="translate(0, 921.6) scale(1,-1)" d="M469 701L469 701L201 701L239 663Q269 676 324 676L324 676L469 676L469 597L92 597L125 559Q161 568 210 568L210 568L393 568Q286 471 55 414L55 414L58 404Q312 443 469 574L469 574Q469 541 468.50 499Q468 457 465 408L465 408L522 427Q519 442 519 568L519 568L912 568L843 638L806 597L519 597L519 676L793 676L724 741L686 701L519 701L519 751L544 776L465 808Q468 778 468.50 752.50Q469 727 469 701ZM525 565L525 550Q639 512 714 478Q789 444 825 424L825 424Q901 371 894 427L894 427Q883 474 806 499L806 499Q770 508 699 526Q628 544 525 565L525 565ZM239-16L239-16Q244 46 267 83L267 83Q276 106 301 156.50Q326 207 365 288L365 288L346 294Q242 103 220 96L220 96Q210 93 179 94Q148 95 100 103L100 103L97 90Q190 64 195 46L195 46Q200 25 188 0L188 0Q168-32 188-57L188-57Q201-78 220-78L220-78Q239-74 239-16ZM96 288L92 278Q146 234 179 188L179 188Q207 140 223 197L223 197Q242 254 96 288L96 288ZM179 404L172 393Q233 349 261 294L261 294Q288 236 308 298L308 298Q321 356 179 404L179 404ZM601 275L601 342L717 342Q694 322 674 305.50Q654 289 635 275L635 275L601 275ZM513 90L513 152L786 152L786 90L513 90ZM513-6L513 62L786 62L786-6L513-6ZM550 367L383 367L421 329Q438 333 457.50 337.50Q477 342 503 342L503 342L550 342L550 275L359 275L396 237Q426 250 481 250L481 250L598 250Q574 233 546.50 218Q519 203 491 188L491 188L462 193L465 168Q423 145 376 120Q329 95 274 74L274 74L277 59Q338 76 385 94.50Q432 113 465 131L465 131Q465 47 463.50-5.50Q462-58 462-82L462-82L513-69L513-34L786-34L786-82L840-62Q837-43 837-25L837-25Q837-8 837 5L837 5L837 156L868 172L806 209L778 178L537 178Q571 194 603.50 212.50Q636 231 667 250L667 250L928 250L859 316L822 275L699 275Q727 296 757 319Q787 342 819 367L819 367L843 370L793 424Q774 400 760 383.50Q746 367 737 357L737 357L683 396L648 367L601 367L601 408L626 430L547 458Q547 435 548.50 411.50Q550 388 550 367L550 367Z"/></svg>