<svg id="U23E69" viewBox="0 0 1024 1024"><path transform="translate(0, 921.6) scale(1,-1)" d="M145 782L145 782L139 773Q199 711 218 672L218 672Q241 618 262 653L262 653Q279 685 262 717L262 717Q236 746 145 782ZM78 568L75 559Q103 530 119.50 504.50Q136 479 145 458L145 458Q159 411 180 439L180 439Q200 456 196 496L196 496Q190 525 78 568L78 568ZM81 209L81 209L81 193Q161 170 161 137L161 137Q161 116 158.50 90.50Q156 65 151 36L151 36Q140-26 180-47Q220-68 215 21L215 21Q212 64 212 99L212 99Q212 134 212 152L212 152Q214 171 217 193.50Q220 216 227 237L227 237Q233 264 254.50 358Q276 452 309 619L309 619L290 622Q195 229 171 213L171 213Q159 207 137.50 204.50Q116 202 81 209ZM829 574L829 574L757 597Q797 613 839 701L839 701L870 717L806 770L778 735L618 735Q622 752 630 761.50Q638 771 646 779L646 779L583 811Q578 767 557 735L557 735L369 735L407 697Q445 710 489 710L489 710L545 710Q515 660 461 632L461 632Q431 612 394 601Q357 590 315 578L315 578L322 563Q349 564 382 573Q415 582 451 594L451 594Q451 566 444 537L444 537L325 537L362 499L403 509L431 509Q423 487 407.50 462.50Q392 438 372 417L372 417Q329 359 265 329L265 329L268 316Q329 336 391 383L391 383Q449 423 485 509L485 509L567 509Q562 484 557 461.50Q552 439 545 424L545 424Q540 383 511 383L511 383Q496 383 476 385.50Q456 388 431 393L431 393L431 380Q496 356 508 316L508 316Q569 343 583 373L583 373Q591 390 599 421.50Q607 453 614 499L614 499L639 521L593 563L567 537L495 537Q507 555 520 568L520 568L457 594Q508 612 546 640Q584 668 605 710L605 710L778 710Q757 650 737 650L737 650Q715 650 659 660L659 660L655 644Q712 633 721 581L721 581L757 597Q757 582 754.50 566Q752 550 750 534L750 534L639 534L678 496L719 506L737 506Q710 439 672 401L672 401Q622 348 567 326L567 326L574 313Q655 339 712 393L712 393Q760 445 791 509L791 509L873 509Q863 409 850 398L850 398Q841 378 757 401L757 401L757 386Q806 362 829 323L829 323Q868 330 888 363L888 363Q895 378 903.50 411.50Q912 445 917 502L917 502L948 524L891 565L870 537L798 537Q804 546 810.50 556.50Q817 567 829 574ZM429 197L429 272L788 272L788 197L429 197ZM429 99L429 172L788 172L788 99L429 99ZM372-85L372-85L429-60L429 74L788 74L788 11Q788-6 760-6L760-6Q745-6 720.50-4Q696-2 659 0L659 0L659-16Q757-37 772-85L772-85Q845-54 845 2L845 2L845 266L870 291L806 329L781 301L429 301L372 326Q377 280 378 231Q379 182 379 128L379 128Q379 71 378 20Q377-31 372-85Z"/></svg>