<svg id="U23B0C" viewBox="0 0 1024 1024"><path transform="translate(0, 921.6) scale(1,-1)" d="M286 688L732 688L732 424L790 424L790 685L820 712L758 751L732 715L423 715Q444 732 460.50 745Q477 758 486 769L486 769Q498 780 507 786Q516 792 528 802L528 802L452 832Q446 805 433 776Q420 747 398 715L398 715L289 715L225 744Q227 715 227.50 680Q228 645 228 612L228 612L228 424L286 424L286 688ZM306 454L306 454L309 445Q420 476 502 569L502 569Q535 545 562 521.50Q589 498 611 470L611 470Q645 403 660 457L660 457Q674 498 645 529L645 529Q626 541 593 555.50Q560 570 512 590L512 590Q520 601 533 616Q546 631 566 650L566 650L483 685Q480 635 441 574L441 574Q418 544 386.50 514Q355 484 306 454ZM481 85L245 5L245 172L490 172L423 247L381 197L245 197L245 292L274 331L183 363Q185 323 185.50 277Q186 231 186 172L186 172L186 31Q186 3 166-14L166-14L222-87Q244-57 309.50-21Q375 15 483 65L483 65L481 85ZM848 31L848 31Q843 8 833-3Q823-14 806-14L806-14L671-14Q603-14 603 41L603 41L603 134Q633 138 669 149.50Q705 161 751 179L751 179Q796 192 824.50 201.50Q853 211 871 211L871 211L813 284Q798 265 775.50 247.50Q753 230 723 211L723 211Q694 196 663.50 182.50Q633 169 603 160L603 160L603 298L631 328L541 363Q541 337 542.50 253Q544 169 544 31L544 31Q544-61 622-61L622-61L827-61Q866-59 892.50-45.50Q919-32 930-6L930-6Q888 14 887 34L887 34Q877 64 877 137L877 137L858 137Q858 127 854.50 100.50Q851 74 848 31ZM131 430L131 483L112 483Q105 400 62 351L62 351Q17 309 62 298L62 298Q98 287 112 325L112 325Q125 339 129.50 359.50Q134 380 131 406L131 406L868 406L827 314L845 311Q872 350 901 374Q930 398 963 406L963 406L894 470L864 430L131 430Z"/></svg>