<svg id="U23AAE" viewBox="0 0 1024 1024"><path transform="translate(0, 921.6) scale(1,-1)" d="M890 518L890 518L864 518Q845 518 837.50 529Q830 540 830 560L830 560L830 737L853 766L793 812L771 769L641 769L586 812Q589 770 588 724.50Q587 679 579 627L579 627Q578 576 556.50 524.50Q535 473 495 418L495 418L509 409Q541 438 565.50 471.50Q590 505 609 540L609 540Q621 573 629 622.50Q637 672 641 741L641 741L774 741L774 532Q774 473 830 473L830 473L913 473Q967 469 967 493L967 493Q965 504 958.50 509.50Q952 515 945 521L945 521Q929 534 917 529L917 529Q909 518 890 518ZM825 390L534 390L575 351L596 362Q609 284 629 223Q649 162 680 114L680 114Q658 85 633 59Q608 33 578 12L578 12Q547-11 513.50-30Q480-49 442-66L442-66L447-87Q487-71 522-56.50Q557-42 590-26L590-26Q625-5 655 19.50Q685 44 713 72L713 72Q752 19 798.50-17Q845-53 893-79L893-79Q918-41 967-35L967-35L967-19Q920-15 858 14L858 14Q792 55 748 110L748 110Q781 169 809 215Q837 261 853 295L853 295Q893 370 913 370L913 370L853 427L825 390ZM620 362L620 362L825 362Q791 291 764 238.50Q737 186 713 154L713 154Q644 235 620 362ZM237 634L237 634L231 627Q250 596 260.50 571.50Q271 547 273 532L273 532Q278 513 286 508Q294 503 301 514L301 514Q321 530 318 560L318 560Q314 585 237 634ZM403 496L86 496L121 457Q140 462 160.50 466Q181 470 208 470L208 470L512 470L442 537L403 496ZM164 454L157 445Q177 407 190 380.50Q203 354 208 337L208 337Q210 320 216.50 314.50Q223 309 231 314L231 314Q241 322 246 333Q251 344 251 362L251 362Q256 392 164 454L164 454ZM342 288L342 288L60 288L97 250Q133 261 179 261L179 261L273 261L273 137L94 137L131 99Q148 104 168 107Q188 110 214 110L214 110L273 110Q273 30 273-16L273-16Q273-62 271-79L271-79L331-48Q328-31 328-3L328-3Q328 25 328 69L328 69L328 110L528 110L458 179L418 137L328 137L328 261L553 261L488 331L447 288L360 288Q373 307 387 327Q401 347 415 370L415 370Q429 385 439 396Q449 407 458 415L458 415L398 457Q388 415 375.50 372Q363 329 342 288ZM477 640L442 553L454 547Q480 573 506 609L506 609Q531 644 561 653L561 653L506 703L473 670L131 670L131 709L116 709Q98 635 78 612L78 612Q52 583 60 574L60 574Q61 560 86 560L86 560Q97 560 105 566.50Q113 573 118 590L118 590Q124 597 127.50 610.50Q131 624 131 640L131 640L477 640ZM237 832L231 822Q259 787 272.50 759.50Q286 732 292 715L292 715Q307 669 328 696L328 696Q348 722 338 751L338 751Q333 762 308.50 782.50Q284 803 237 832L237 832Z"/></svg>