<svg id="U231AD" viewBox="0 0 1024 1024"><path transform="translate(0, 921.6) scale(1,-1)" d="M242 515L242 614L753 614L753 515L242 515ZM805 729L805 729L840 759L779 803L747 764L242 764L187 791Q190 752 190.50 708.50Q191 665 191 614L191 614Q191 563 190.50 520Q190 477 187 435L187 435L242 458L242 490L753 490L753 455L811 477Q806 506 805.50 569Q805 632 805 729ZM242 643L242 739L753 739L753 643L242 643ZM622 458L542 483Q542 454 542.50 417Q543 380 548 340L548 340L232 340L181 372Q183 315 180 258Q177 201 168 141L168 141Q162 81 124 25.50Q86-30 23-84L23-84L29-97Q156-21 200 80L200 80Q241 198 232 314L232 314L555 314Q566 169 622 77L622 77Q530-11 325-81L325-81L331-94Q430-70 512.50-36.50Q595-3 658 42L658 42Q779-73 920-94L920-94Q892-24 911 102L911 102L894 109L859-20Q776 1 693 74L693 74Q719 105 745.50 146.50Q772 188 798 240L798 240L836 253L763 301Q726 194 663 119L663 119Q637 164 624 211Q611 258 606 310L606 310L904 310L843 378L791 337L603 337L600 432L622 458ZM658 455L648 445Q676 423 698 405Q720 387 728 372L728 372Q750 340 766 368L766 368Q780 401 753 420L753 420Q734 428 711 437.50Q688 447 658 455L658 455ZM229 202L219 192Q288 150 334 118.50Q380 87 392 57L392 57Q422-3 443 32L443 32Q469 61 443 96L443 96Q423 131 229 202L229 202Z"/></svg>