<svg id="U232FD" viewBox="0 0 1024 1024"><path transform="translate(0, 921.6) scale(1,-1)" d="M262 558L262 636L771 636L771 558L262 558ZM262 661L262 741L771 741L771 661L262 661ZM208 501L262 520L262 533L771 533L771 511L829 523Q823 577 822.50 627Q822 677 822 734L822 734L854 766L794 808L764 773L265 773L208 799Q212 649 208 501L208 501ZM393 498L393 498L316 533Q297 499 275.50 466Q254 433 227 405L227 405Q178 356 80 287L80 287L83 277Q169 310 230 357L230 357Q265 378 291.50 404Q318 430 342 460L342 460Q456 396 503 357L503 357Q549 308 556 335L556 335Q565 354 556 383L556 383Q540 406 483 430L483 430Q451 439 417 451.50Q383 464 348 475L348 475Q353 477 363.50 483.50Q374 490 393 498ZM237 312L205 341L396 341L438 380L511 315L345 315Q319 315 292 313.50Q265 312 237 312L237 312ZM240 40L240 40Q271 73 288 82L288 82L220 124Q208 69 157 2L157 2Q131-28 105.50-49.50Q80-71 62-82L62-82L68-95Q127-67 170-34L170-34Q190-17 202-3.50Q214 10 223 24L223 24Q265-9 285-51L285-51Q300-79 316-57L316-57Q327-33 323-16L323-16Q319-3 240 40ZM524 79L524 79L438 114Q433 60 393 5L393 5Q369-20 344-43.50Q319-67 288-89L288-89L291-99Q325-86 350.50-73Q376-60 393-47L393-47L458 5Q491-12 515-32Q539-52 553-70L553-70Q575-112 591-73L591-73Q600-36 582-19L582-19Q559-3 464 27L464 27Q475 49 491 60Q507 71 524 79ZM185 159L185 239L278 239L278 159L185 159ZM323 239L323 239L348 255L303 297L275 270L185 270L131 293Q135 275 136 253Q137 231 137 200L137 200Q137 171 136 146Q135 121 131 104L131 104L185 114L185 133L278 133L278 107L326 124Q323 137 323 165L323 165Q323 194 323 239ZM368 114L368 114L419 127L419 133L515 133L515 120L566 136Q563 152 563 242L563 242L586 264L538 300L515 274L419 274L368 297Q372 270 373 246.50Q374 223 374 200L374 200Q374 176 373 154.50Q372 133 368 114ZM419 159L419 242L515 242L515 159L419 159ZM621 24L621 24L678 47L678 354L701 380L621 411Q621 382 622.50 358.50Q624 335 624 318L624 318L624 139Q624 120 622.50 88.50Q621 57 621 24ZM812 354L812 354L812 34Q812-19 781-19L781-19Q766-19 741.50-18.50Q717-18 684-16L684-16L684-31Q781-59 790-102L790-102Q865-72 861 9L861 9L861 430L902 456L809 511Q809 454 810.50 414.50Q812 375 812 354Z"/></svg>