<svg id="U23115" viewBox="0 0 1024 1024"><path transform="translate(0, 921.6) scale(1,-1)" d="M177 797L177 797L167 784Q227 717 237 659L237 659Q251 597 278 631L278 631Q312 665 288 704L288 704Q262 743 177 797ZM676 528L458 528L496 493Q517 500 539.50 501.50Q562 503 589 503L589 503L937 503L877 570L829 528L704 528Q745 564 707 593L707 593Q670 622 634 628L634 628L627 618Q636 608 643.50 596.50Q651 585 659 573L659 573Q664 563 667 551.50Q670 540 676 528L676 528ZM528 470L528 470L516 464Q562 405 573 362L573 362Q577 312 608 343L608 343Q637 363 621 393L621 393Q604 415 528 470ZM787 503L787 503L861 451L826 435Q799 397 777.50 368.50Q756 340 739 323L739 323L842 323L890 368L950 295L547 295Q514 295 471 285L471 285L435 323L720 323Q761 403 787 503ZM503-100L503-100L554-77L554-39L819-39L819-87L870-69Q867-36 867-8L867-8Q867 19 867 49L867 49L867 192L902 215L845 262L812 230L557 230L503 250Q505 205 505.50 160Q506 115 506 67L506 67Q506 16 505.50-23Q505-62 503-100ZM554 112L554 205L819 205L819 112L554 112ZM554-11L554 84L819 84L819-11L554-11ZM310-87L310-87Q347-76 365-52L365-52Q387-20 391 49L391 49Q392 84 394.50 164Q397 244 397 365L397 365L426 387L368 428L340 393L218 393L218 538L445 538L388 605L346 563L41 563L76 528Q93 530 111 534Q129 538 150 538L150 538L170 538Q172 409 163 312.50Q154 216 138 150L138 150Q120 80 94.50 23.50Q69-33 34-87L34-87L44-100Q213 78 218 368L218 368L346 368Q351 185 346 99L346 99Q335 9 330-3L330-3Q322-10 294-12Q266-14 212-9L212-9L212-30Q305-30 310-87ZM611 756L643 761L566 806Q528 651 406 506L406 506L416 493Q492 559 551 640L551 640L937 640L880 720L829 666L563 666Q578 694 588.50 717.50Q599 741 611 756L611 756Z"/></svg>