<svg id="U235D" viewBox="0 0 696 1000"><path transform="translate(0, 900) scale(1,-1)" d="M122 0L51 0L51 434Q51 576 127 650.50Q203 725 348 725L348 725Q493 725 569 650.50Q645 576 645 434L645 434L645 0L574 0L574 434Q574 653 348 653L348 653Q122 653 122 434L122 434L122 0ZM348 266L348 266Q304 266 267 288Q230 310 208.50 346.50Q187 383 187 427L187 427Q187 472 208.50 508.50Q230 545 267 566.50Q304 588 348 588L348 588Q392 588 428.50 566.50Q465 545 487 508.50Q509 472 509 427L509 427Q509 383 487.50 346.50Q466 310 429.50 288Q393 266 348 266ZM348 327L348 327Q390 327 419 357Q448 387 448 427L448 427Q448 467 419 497Q390 527 348 527L348 527Q307 527 277.50 497.50Q248 468 248 427L248 427Q248 386 277 356.50Q306 327 348 327Z"/></svg>