<svg id="U23765" viewBox="0 0 1024 1024"><path transform="translate(0, 921.6) scale(1,-1)" d="M571 427L571 427L584 417Q684 483 732 574L732 574Q732 514 730 461Q728 408 728 363L728 363L786 388Q783 414 782.50 462.50Q782 511 782 584L782 584Q836 528 861 483L861 483Q884 430 899 461L899 461Q908 488 908 508L908 508Q902 530 877 549L877 549Q841 574 782 605L782 605L782 640L946 640L889 703L855 666L782 666L782 741L805 769L728 798Q728 766 730 733.50Q732 701 732 666L732 666L622 666L650 634Q674 638 691 639Q708 640 720 640L720 640Q696 583 659 530.50Q622 478 571 427ZM187 637L228 637Q199 565 162 508L162 508Q142 479 123 454.50Q104 430 85 407L85 407L89 398Q177 462 241 558L241 558Q241 506 240.50 453.50Q240 401 237 344L237 344L288 366Q285 394 285 443L285 443Q285 492 285 561L285 561Q305 540 316.50 519Q328 498 335 479L335 479Q348 438 363 467L363 467Q382 491 376 517L376 517Q371 538 342 558L342 558Q327 562 313 570Q299 578 285 584L285 584L285 637L395 637L351 694L323 662L285 662L285 748L316 769L237 801Q240 762 240.50 727Q241 692 241 662L241 662L92 662L124 631Q138 633 154 635Q170 637 187 637L187 637ZM946 101L946 101L933 108Q926 89 914.50 62Q903 35 889-5L889-5Q849 2 817 77L817 77Q803 114 795 162Q787 210 792 268L792 268L830 294L769 342L745 309L260 309L206 335Q208 302 210.50 263Q213 224 206 187L206 187Q201 98 165 36L165 36Q124-33 69-82L69-82L76-95Q191-26 228 70L228 70Q266 158 263 284L263 284L741 284Q736 193 751 118L751 118Q764 31 807-13L807-13Q831-36 853.50-53Q876-70 905-79L905-79Q960-99 953-79L953-79Q936-56 936-5L936-5Q931 56 946 101ZM275 42L275 42L316-23Q339-11 426.50 9Q514 29 669 57L669 57Q674 41 681.50 26Q689 11 694-2L694-2Q709-18 728 13L728 13Q747 49 725 83L725 83Q705 122 594 196L594 196L584 190Q607 152 626.50 123.50Q646 95 656 80L656 80Q538 62 443 52Q348 42 275 42ZM401 448L401 448L401 432Q467 417 471 386L471 386Q537 393 537 461L537 461L537 593L606 593L574 527L587 520Q626 581 672 593L672 593L628 640L602 618L540 618Q579 640 537 666L537 666Q613 738 647 738L647 738L606 782L578 760L383 760L414 728Q430 730 446.50 732.50Q463 735 480 735L480 735L565 735L521 675Q500 681 482.50 689.50Q465 698 449 703L449 703L436 697Q507 646 514 612L514 612L357 612L388 581Q407 585 428.50 589Q450 593 473 593L473 593Q445 548 408.50 506.50Q372 465 323 429L323 429L332 420Q430 464 493 546L493 546L493 458Q493 434 458 442L458 442Q432 442 401 448ZM530 57L530 335L550 353L480 386L480 227L480 42L530 57Z"/></svg>