<svg id="U235C4" viewBox="0 0 1000 1000"><path transform="translate(0, 900) scale(1,-1)" d="M600 271L600-60L669-60L669 271ZM427 278L427 204C427 129 417 35 309-35C327-46 353-68 365-82C482-2 496 109 496 202L496 278ZM779 278L779 30C779-27 784-42 798-56C811-68 833-73 853-73C862-73 887-73 898-73C914-73 933-70 944-64C957-57 966-46 972-30C976-15 979 28 981 67C964 72 942 83 929 94C928 55 928 26 925 12C923 1 919-7 915-9C911-12 903-13 895-13C887-13 875-13 869-13C862-13 856-11 853-8C849-4 848 6 848 24L848 278ZM750 838L750 744L561 744L561 838L493 838L493 744L348 744L348 680L493 680L493 600L561 600L561 680L750 680L750 600L818 600L818 680L951 680L951 744L818 744L818 838ZM185 840L185 628L47 628L47 558L175 558C147 421 88 258 29 170C42 152 62 122 70 100C113 166 154 268 185 375L185-79L255-79L255 381C282 344 312 300 326 274L370 341C354 362 282 446 255 472L255 558L375 558L375 628L255 628L255 840ZM391 556L391 420C391 341 420 314 517 314C542 314 773 314 818 314C867 314 920 314 942 319C938 335 935 363 933 383C907 378 849 376 813 376C770 376 556 376 515 376C471 376 462 387 462 420L462 495L951 495L951 556L686 556L686 637L612 637L612 556Z"/></svg>