<svg id="U23FA0" viewBox="0 0 1024 1024"><path transform="translate(0, 921.6) scale(1,-1)" d="M147 790L143 778Q199 718 213 674L213 674Q239 624 257 661L257 661Q274 693 257 722L257 722Q241 744 147 790L147 790ZM76 576L73 566Q104 536 121 509.50Q138 483 147 460L147 460Q163 422 181 440L181 440Q202 467 194 497L194 497Q189 532 76 576L76 576ZM80 214L80 214L80 198Q166 174 166 139L166 139Q166 82 153 31L153 31Q143-26 181-49L181-49Q223-75 220 22L220 22Q214 70 213.50 103Q213 136 213 157L213 157Q218 176 220.50 198.50Q223 221 228 242L228 242Q235 266 255 359Q275 452 310 623L310 623L295 627Q195 230 172 218L172 218Q150 200 80 214ZM783 488L695 529Q695 477 692 426Q689 375 685 321L685 321Q670 215 638 116L638 116Q610 19 518-77L518-77L528-90Q576-53 612-10.50Q648 32 673 82L673 82Q719 188 742 350L742 350Q744 272 754 207.50Q764 143 783 91L783 91Q800 39 819.50 0Q839-39 868-70L868-70Q901-37 947-49L947-49L950-33Q883 2 852 60L852 60Q815 120 789 224L789 224Q774 278 766 337.50Q758 397 758 469L758 469L783 488ZM764 766L764 766L688 810Q688 786 679.50 750.50Q671 715 657 664L657 664Q639 610 620 566Q601 522 578 485L578 485L594 476Q611 492 632.50 523Q654 554 680 602L680 602L862 602L821 491L830 488Q874 548 899 573L899 573Q920 597 947 607L947 607L887 668L858 627L688 627Q743 759 764 766ZM465 712L465 712Q491 681 506 653Q521 625 531 602L531 602Q546 546 559 555L559 555Q567 557 578 589L578 589Q585 616 572 643L572 643Q564 651 540 674Q516 697 474 730L474 730Q483 749 500 771L500 771L436 815Q430 792 423 761.50Q416 731 402 699L402 699Q379 631 346 566L346 566Q332 540 315 511.50Q298 483 276 453L276 453L285 447Q318 476 344.50 506Q371 536 392 566L392 566Q414 598 432 634.50Q450 671 465 712ZM317 218L317 218L305 208Q323 163 336 131Q349 99 354 72L354 72Q358 33 387 60L387 60Q411 89 395 126L395 126Q384 146 364.50 169Q345 192 317 218ZM616 195L550 236Q539 209 528 157L528 157Q518 134 508.50 111Q499 88 490 63L490 63L497 54Q539 117 562 145L562 145Q594 178 616 195L616 195ZM600 66L477 31L477 262L600 262L534 331L497 286L477 286L477 450L588 450L518 517L480 476L323 476L361 438L402 450L428 450L428 286L310 286L348 252L392 262L428 262L428 22Q371 8 335.50 1.50Q300-5 285-8L285-8L326-74Q338-66 362-53Q386-40 421-26L421-26Q459-10 502.50 9.50Q546 29 600 51L600 51L600 66Z"/></svg>