<svg id="U232FA" viewBox="0 0 1024 1024"><path transform="translate(0, 921.6) scale(1,-1)" d="M104 424L104 667L259 667L259 424L104 424ZM104 146L104 398L259 398L259 146L104 146ZM53 27L53 27L104 56L104 116L259 116L259 53L312 91Q307 136 306.50 277Q306 418 306 654L306 654L335 680L277 728L255 695L108 695L53 725Q57 659 57.50 570Q58 481 58 369L58 369Q58 258 57.50 172.50Q57 87 53 27ZM780 309L780 251L454 251L454 309L780 309ZM780 226L780 165L454 165L454 226L780 226ZM780 136L780 78L454 78L454 136L780 136ZM262-83L262-83L267-93Q330-74 377-59Q424-44 457-32L457-32Q485-18 511-11.50Q537-5 559-3L559-3L498 53Q465 19 412-10L412-10Q380-26 342.50-44Q305-62 262-83ZM687 43L687 43L678 27Q712 13 741.50 0.50Q771-12 796-25L796-25Q819-37 837-51Q855-65 870-80L870-80Q891-106 905-80L905-80Q909-49 895-25L895-25Q885-9 825 11L825 11Q796 16 760.50 24.50Q725 33 687 43ZM399 30L399 30L454 50L454 53L780 53L780 36L838 56Q835 79 834.50 101Q834 123 834 146L834 146L834 302L866 321L806 369L776 334L463 334L399 363Q399 318 400.50 278Q402 238 402 196L402 196Q402 160 400.50 117.50Q399 75 399 30ZM595 728L595 728L325 728L364 695Q381 698 399.50 698.50Q418 699 437 702L437 702L595 702L595 638L392 638L425 603Q443 605 461 607Q479 609 502 609L502 609L886 609L825 680L780 638L648 638L648 702L931 702L866 775L818 728L648 728L648 760L678 785L591 820Q591 796 593 773.50Q595 751 595 728ZM889 522L889 522L914 545L860 590L834 558L405 558L357 584Q360 552 360.50 525.50Q361 499 361 479L361 479Q361 454 360.50 426Q360 398 357 369L357 369L405 389L405 401L838 401L838 373L891 398Q889 425 889 457L889 457Q889 489 889 522ZM405 427L405 529L517 529L517 427L405 427ZM562 427L562 529L681 529L681 427L562 427ZM728 427L728 529L838 529L838 427L728 427Z"/></svg>