<svg id="U230A1" viewBox="0 0 1024 1024"><path transform="translate(0, 921.6) scale(1,-1)" d="M320 332L320 332Q300 294 272 256.50Q244 219 208 184L208 184Q136 101 47 44L47 44L54 24Q90 41 128 66Q166 91 202 117L202 117Q240 150 272 183.50Q304 217 333 255L333 255Q333 228 331 195.50Q329 163 327 130L327 130Q316 55 298 34L298 34Q284 11 260 11L260 11Q252 13 229.50 15.50Q207 18 177 24L177 24L173 5Q234-13 247-29L247-29Q257-42 263-64L263-64Q328-34 353 24L353 24Q367 55 372.50 99Q378 143 378 200L378 200Q380 254 373.50 309.50Q367 365 353 425L353 425Q441 474 500 530L500 530L528 536L471 600Q445 538 346 443L346 443Q324 485 300.50 519Q277 553 247 584L247 584Q271 617 295.50 647Q320 677 340 706L340 706L535 706L486 779L436 734L76 734L109 699Q128 704 141.50 705Q155 706 160 706L160 706L276 706Q256 677 234.50 651.50Q213 626 192 596L192 596Q168 567 137.50 533Q107 499 72 466L72 466L79 450Q150 481 228 565L228 565L263 504Q251 472 231 444Q211 416 192 392L192 392L119 446L109 437L164 367Q123 312 57 261L57 261L64 242Q92 259 126 281Q160 303 192 332L192 332Q199 317 205.50 302Q212 287 215 270L215 270Q222 242 240 248L240 248Q254 256 260 280L260 280Q265 305 253 325L253 325Q248 337 241 345.50Q234 354 228 367L228 367Q245 388 261 409Q277 430 292 450L292 450Q306 421 311.50 391.50Q317 362 320 332ZM356 363L350 347Q368 330 384.50 314.50Q401 299 416 283L416 283Q442 254 455 213L455 213Q474 171 490 187L490 187Q510 196 506 248L506 248Q490 297 356 363L356 363ZM593 725L593 725L544 761L544 555Q547 488 544 421.50Q541 355 535 283L535 283Q532 213 519.50 156Q507 99 490 56L490 56Q455-22 394-82L394-82L410-99Q459-54 492-8.50Q525 37 544 85L544 85Q564 131 574 180Q584 229 589 283L589 283Q592 337 594 378.50Q596 420 596 456L596 456L756 456L756 104Q756 66 754 18.50Q752-29 752-92L752-92L814-60Q811-33 810.50-3.50Q810 26 810 62L810 62L810 456L957 456L902 536L861 482L596 482L596 699Q735 709 887 738L887 738L922 728L881 804Q860 795 835.50 785Q811 775 775 763L775 763Q738 751 693 742.50Q648 734 593 725Z"/></svg>