<svg id="U23439" viewBox="0 0 1024 1024"><path transform="translate(0, 921.6) scale(1,-1)" d="M259 410L259 410Q282 380 301.50 351Q321 322 331 294L331 294Q358 237 378 281L378 281Q398 323 365 357L365 357Q349 373 321.50 392Q294 411 259 432L259 432L259 540L406 540L344 609L303 564L259 564L259 738L296 763L205 801Q207 735 207.50 677Q208 619 208 564L208 564L56 564L88 530Q104 532 122 536Q140 540 161 540L161 540L202 540Q156 281 46 101L46 101L56 93Q107 154 144.50 216Q182 278 208 347L208 347Q208 209 207.50 100.50Q207-8 205-95L205-95L262-70Q259-31 259 87L259 87Q259 206 259 410ZM601 309L601 309L601 26Q601-13 563-13L563-13Q549-11 517.50-7Q486-3 437 4L437 4L434-13Q558-38 573-92L573-92Q656-66 652-13L652-13L652 347L689 366L614 394L938 394L869 470L825 423L630 423L630 584L907 584L841 656L791 609L630 609L630 725L668 748L573 792Q573 750 574.50 660Q576 570 576 423L576 423L337 423L368 388Q387 390 404.50 392Q422 394 441 394L441 394L599 394Q599 378 600 358Q601 338 601 309ZM535 250L457 297Q457 270 416 183L416 183Q394 141 369 100Q344 59 308 20L308 20L321 8Q363 43 395.50 80Q428 117 454 155L454 155Q474 195 496 217.50Q518 240 535 250L535 250ZM709 281L696 272Q760 194 798.50 141.50Q837 89 850 60L850 60Q880-5 894 13L894 13Q909 28 913 57L913 57Q922 83 889 134L889 134Q860 171 709 281L709 281Z"/></svg>