<svg id="U23932" viewBox="0 0 1024 1024"><path transform="translate(0, 921.6) scale(1,-1)" d="M179 699L282 699L282 376L59 376L97 337Q125 352 179 352L179 352L282 352L282 12L47 12L84-26Q100-21 121-18.50Q142-16 169-16L169-16L554-16L483 55L448 12L334 12L334 352L583 352L515 417L478 376L334 376L334 699L561 699L493 770L453 728L59 728L97 690Q112 696 132 696L132 696Q152 696 179 699L179 699ZM99 657L99 410L144 431L144 453L198 453L198 417L250 438L250 592L270 615L218 657L195 628L154 628L99 657ZM144 480L144 599L198 599L198 480L144 480ZM422 628L374 654L374 414L422 431L422 453L478 453L478 427L522 447L522 596L540 618L496 657L474 628L422 628ZM422 480L422 599L478 599L478 480L422 480ZM144 273L99 295L99 44L144 68L144 91L198 91L198 63L250 82L250 246L270 270L218 301L192 273L144 273ZM144 118L144 246L198 246L198 118L144 118ZM422 273L374 298L374 44L422 63L422 91L478 91L478 60L522 79L522 237L546 260L496 301L478 273L422 273ZM422 118L422 246L478 246L478 118L422 118ZM703 766L703 766L732 789L655 825Q649 790 640 749Q631 708 618 650L618 650Q604 587 583.50 533Q563 479 540 431L540 431L554 420Q580 451 604.50 495.50Q629 540 655 599L655 599L870 599L829 486L838 476Q911 584 957 612L957 612L896 668L870 628L660 628Q670 653 681.50 688Q693 723 703 766ZM777 473L696 515Q685 397 667.50 303.50Q650 210 627 141L627 141Q601 70 564.50 14.50Q528-41 483-83L483-83L490-100Q541-61 583-14.50Q625 32 655 89L655 89Q685 144 704 223.50Q723 303 735 400L735 400Q740 261 777 141L777 141Q793 82 818.50 31Q844-20 877-68L877-68Q889-49 907.50-39Q926-29 954-29L954-29L957-20Q898 8 838 127L838 127Q807 184 786.50 264Q766 344 753 447L753 447L777 473Z"/></svg>