<svg id="U23A31" viewBox="0 0 1024 1024"><path transform="translate(0, 921.6) scale(1,-1)" d="M218 496L218 496L374 496Q364 458 351 409.50Q338 361 318 311L318 311Q285 203 221 120L221 120Q158 35 51-47L51-47L59-66Q132-22 182.50 19Q233 60 263 99L263 99Q295 137 319.50 179.50Q344 222 361 272L361 272Q381 317 395 372.50Q409 428 422 492L422 492L457 524L395 568L374 525L224 525Q233 560 244 605Q255 650 263 707L263 707L481 707L408 776L374 733L59 733L97 695L137 707L204 707Q200 622 161 492L161 492Q119 359 47 252L47 252L51 238Q115 293 165 387L165 387Q183 358 195.50 325.50Q208 293 216 259L216 259Q228 193 254 232L254 232Q273 266 258 311L258 311Q246 329 226 352.50Q206 376 175 404L175 404Q199 441 218 496ZM741 290L741 149L618 149L618 290L741 290ZM747 6L747 6L747-10Q767-19 784-24.50Q801-30 816-40L816-40Q836-55 857-92L857-92Q889-81 907-54L907-54Q925-28 925 16L925 16L925 384L957 412L899 459L873 422L851 422L851 749L877 776L820 818L793 776L561 776L506 810Q506 766 508.50 734.50Q511 703 511 677L511 677L511 422L486 422L428 451Q433 392 434 328.50Q435 265 435 196L435 196Q435 128 434 56.50Q433-15 428-92L428-92L483-74L483 106L483 394L877 394L877 30Q877-7 843-7L843-7Q827-5 804-2Q781 1 747 6ZM796 422L696 422L696 616L806 616L806 646L693 646L641 677Q641 657 643 640Q645 623 645 609L645 609L645 422L561 422L561 583L561 749L796 749L796 422ZM787 274L787 274L816 306L761 352L738 317L621 317L565 346Q565 298 566.50 262Q568 226 568 200L568 200Q568 175 566.50 141Q565 107 565 66L565 66L618 88L618 120L741 120L741 80L793 99Q787 137 787 180L787 180Q787 223 787 274Z"/></svg>