<svg id="U23018" viewBox="0 0 1024 1024"><path transform="translate(0, 921.6) scale(1,-1)" d="M70-29L70-29L119-12L119 21L186 21L186-10L234 5L234 175L257 197L206 242L183 207L119 207L70 235Q77 121 70-29ZM119 178L186 178L186 50L119 50L119 178ZM337 168L407 168L407-8Q396-29 382-29L382-29Q374-29 352-28.50Q330-28 302-25L302-25L302-44Q369-44 388-102L388-102Q414-87 433-67Q452-47 455-19L455-19L455 168L567 168L497 235L458 194L455 194L455 235L477 258L430 270L557 270L490 341L452 297L38 297L76 258Q101 270 171 270L171 270L407 270L407 194L257 194L295 155L337 168ZM317 37L317 37Q333-2 356 40L356 40Q380 94 272 139L272 139L264 133Q284 106 298 83Q312 60 317 37ZM196 428L257 428L257 367L63 367L99 328Q138 341 219 341L219 341L510 341L439 408L400 367L305 367L305 428L436 428L375 488L337 453L116 453L154 415L196 428ZM161 504L477 504L452 440L462 430Q505 497 560 511L560 511L507 568L474 530L41 530L78 491Q104 504 161 504L161 504ZM183 677L254 677L254 606L94 606L132 568Q159 581 215 581L215 581L487 581L417 648L379 606L302 606L302 677L507 677L436 744L397 703L302 703L302 747L330 769L250 808Q253 789 253.50 769Q254 749 254 728L254 728L254 703L60 703L97 664Q136 677 183 677L183 677ZM727 766L635 804Q635 756 627.50 696Q620 636 608 561L608 561Q594 486 577 421Q560 356 542 305L542 305L555 297Q604 376 615 430L615 430Q630 301 685 187L685 187Q643 105 583 39.50Q523-26 442-86L442-86L449-102Q528-64 594.50-8Q661 48 715 130L715 130Q770 8 868-86L868-86Q883-43 945-51L945-51L945-38Q891-16 841.50 34.50Q792 85 746 175L746 175Q808 337 823 549L823 549L916 549L848 619L810 578L660 578Q669 623 677.50 667.50Q686 712 692 751L692 751L727 766ZM631 463L653 549L768 549Q763 395 711 232L711 232Q661 319 631 463L631 463Z"/></svg>