<svg id="U23348" viewBox="0 0 1024 1024"><path transform="translate(0, 921.6) scale(1,-1)" d="M348 463L348 463L515 463L446 532L408 489L348 489L348 565L490 565L424 633L386 593L348 593L348 671L509 671L443 738L405 697L348 697L348 740L383 772L291 800Q293 769 297 742Q301 715 301 697L301 697L92 697L127 658Q144 663 163.50 667Q183 671 209 671L209 671L301 671L301 593L131 593L168 555Q204 565 250 565L250 565L301 565L301 489L77 489L112 450Q139 463 194 463L194 463L301 463Q301 451 297 435.50Q293 420 291 404L291 404L351 416Q348 425 348 438L348 438Q348 451 348 463ZM698 467L698 467L947 467L877 536L839 495L698 495L698 565L896 565L830 633L792 593L698 593L698 671L924 671L855 738L818 697L698 697L698 740L736 769L644 800Q644 769 647.50 742Q651 715 651 697L651 697L518 697L556 658L597 671L651 671L651 674L651 593L525 593L562 555L603 565L651 565L651 573L651 495L525 495L562 457L603 467L651 467Q651 454 647.50 438.50Q644 423 644 406L644 406L701 419Q698 438 698 467ZM250 174L250 249L767 249L767 174L250 174ZM250 275L250 360L767 360L767 275L250 275ZM191 117L250 133L250 149L767 149L767 120L826 133Q824 182 824 237L824 237Q824 293 824 350L824 350L849 372L789 419L761 385L253 385L191 410Q209 258 191 117L191 117ZM846-16L590-16Q617 9 642 33.50Q667 58 692 79L692 79L729 92L651 139Q599 22 562-16L562-16L411-16Q488 53 304 133L304 133L291 120Q367 44 386-16L386-16L73-16L109-54Q137-42 191-42L191-42L950-42L883 23L846-16Z"/></svg>