<svg id="U2391C" viewBox="0 0 1024 1024"><path transform="translate(0, 921.6) scale(1,-1)" d="M137 703L137 703L131 694Q157 675 173 663Q189 651 198 643L198 643Q138 584 62 553L62 553L65 539Q172 571 224 622L224 622Q239 608 250.50 595Q262 582 270 571L270 571Q279 549 291 561L291 561Q306 576 303 599L303 599Q303 610 254 645L254 645Q260 655 274 672Q288 689 305 716L305 716L334 739L286 774L263 754L87 754L124 716Q144 722 163.50 723Q183 724 212 727L212 727L261 727Q255 710 244 695Q233 680 218 664L218 664Q200 674 179.50 683.50Q159 693 137 703ZM524 720L524 720L544 733L500 778L474 754L338 754L376 716L418 727L470 727Q447 704 435 690.50Q423 677 418 671L418 671Q408 673 388.50 684Q369 695 334 713L334 713L324 701Q357 677 376 663.50Q395 650 398 645L398 645Q381 622 355 599.50Q329 577 295 556L295 556L303 542Q341 564 373.50 584Q406 604 432 622L432 622Q448 608 460 594Q472 580 481 571L481 571Q496 550 510 561L510 561Q511 569 513 578.50Q515 588 515 601L515 601Q516 606 502 618Q488 630 457 652L457 652Q472 667 488 684Q504 701 524 720ZM422 439L422 439Q411 441 390.50 451.50Q370 462 338 479L338 479L332 465Q337 458 355.50 446Q374 434 405 415L405 415Q397 400 381 383.50Q365 367 345 352L345 352Q326 331 306 317Q286 303 263 293L263 293L270 281Q294 289 318.50 300Q343 311 364 325L364 325Q386 338 403.50 355Q421 372 437 395L437 395Q457 375 472 361Q487 347 500 333L500 333Q509 312 515.50 308.50Q522 305 524 319L524 319Q538 337 524 365L524 365Q513 388 460 419L460 419Q477 439 491.50 455.50Q506 472 518 484L518 484L544 494L490 553L460 523L332 523L369 484L411 497L460 497Q455 485 445 469.50Q435 454 422 439ZM121 482L121 482L115 474Q124 455 186 412L186 412Q168 387 133.50 358.50Q99 330 50 296L50 296L55 283Q71 290 89 299Q107 308 131 322L131 322Q184 350 212 381L212 381Q218 371 227 359.50Q236 348 245 333L245 333Q264 295 277 315L277 315Q288 335 283 354L283 354Q280 362 271 375.50Q262 389 241 406L241 406Q262 431 274 450Q286 469 295 482L295 482L324 514L280 544L254 523L78 523L115 484Q144 497 198 497L198 497L250 497Q241 477 229.50 462.50Q218 448 212 436L212 436Q189 444 121 482ZM696 754L696 754L722 778L645 814Q642 781 634 737Q626 693 610 636L610 636Q588 577 567 522.50Q546 468 518 415L518 415L531 406Q560 434 585.50 479.50Q611 525 637 584L637 584L877 584L823 472L851 465Q906 565 961 603L961 603L899 658L877 614L645 614Q656 649 670 685Q684 721 696 754ZM761 460L680 514Q672 391 654.50 296Q637 201 616 135L616 135Q563-1 470-92L470-92L474-108Q525-69 566.50-22.50Q608 24 637 78L637 78Q668 135 690 212.50Q712 290 722 387L722 387Q726 321 735.50 257.50Q745 194 761 130L761 130Q778 70 808 18Q838-34 880-79L880-79Q907-36 952-40L952-40L955-25Q877-11 823 96L823 96Q791 151 770 235.50Q749 320 738 436L738 436L761 460ZM277 214L277 214L55 214L94 173Q108 178 128.50 180.50Q149 183 175 183L175 183L241 183Q207 125 159 67.50Q111 10 43-40L43-40L50-54Q121-16 177.50 31.50Q234 79 277 139L277 139L277 15Q277-13 276.50-43.50Q276-74 274-108L274-108L332-84Q325-50 324.50-25Q324 0 324 20L324 20L324 130Q367 104 396.50 76.50Q426 49 444 23L444 23Q480-19 496 2L496 2Q505 16 503 31.50Q501 47 490 67L490 67Q466 99 324 155L324 155L324 183L561 183L493 256L453 214L324 214L324 242L353 274L274 296Q276 264 276.50 243Q277 222 277 214Z"/></svg>