<svg id="U23927" viewBox="0 0 1024 1024"><path transform="translate(0, 921.6) scale(1,-1)" d="M194-18L194 56L391 56L391-18L194-18ZM252 602L252 602L107 602L107 637L91 637Q74 542 45 514L45 514Q17 480 54 480L54 480Q87 474 101 499L101 499Q115 516 111 575L111 575L471 575L433 502L446 495Q506 578 550 578L550 578L494 633L467 602L300 602L300 692L512 692L452 756L410 718L300 718L300 756L328 776L250 809Q252 754 252 704L252 704Q252 655 252 602ZM437 247L437 247L452 263L417 294Q461 260 500 247L500 247Q512 274 558 279L558 279L558 294Q482 311 422 343Q362 375 314 421L314 421L337 439L278 476Q249 406 169 331L169 331Q130 293 95 266.50Q60 240 33 223L33 223L39 216Q70 227 95.50 238Q121 249 144 265L144 265Q144 128 143.50 38Q143-52 141-104L141-104L194-81L194-42L391-42L391-91L441-70Q438-19 437.50 59.50Q437 138 437 247ZM260 499L260 499L208 543Q152 465 58 387L58 387L65 376Q88 387 114 403Q140 419 172 443L172 443Q201 466 223 479.50Q245 493 260 499ZM328 533L328 533L318 520Q365 485 398 455.50Q431 426 446 400L446 400Q483 355 489 404L489 404Q496 448 446 480L446 480Q419 491 390.50 505Q362 519 328 533ZM298 400L298 400Q318 377 346.50 351.50Q375 326 415 299L415 299L394 285L208 285L188 294Q212 311 239 339Q266 367 298 400ZM194 185L194 260L391 260L391 185L194 185ZM194 81L194 160L391 160L391 81L194 81ZM695 744L695 744L725 770L634 802Q634 784 625 744.50Q616 705 608 644L608 644Q594 582 573.50 525.50Q553 469 527 417L527 417L540 410Q594 472 637 578L637 578L866 578L819 473L834 470Q868 518 898 549Q928 580 953 596L953 596L889 650L866 605L646 605Q655 635 667.50 669.50Q680 704 695 744ZM766 459L679 499Q672 383 655.50 291.50Q639 200 615 134L615 134Q559-3 460-84L460-84L467-99Q518-64 561.50-20.50Q605 23 637 81L637 81Q704 200 728 387L728 387Q730 315 740 255.50Q750 196 769 136L769 136Q800 28 873-70L873-70Q894-33 951-36L951-36L953-20Q887 1 828 117L828 117Q796 174 774.50 253Q753 332 739 434L739 434L766 459Z"/></svg>