<svg id="U230AA" viewBox="0 0 1024 1024"><path transform="translate(0, 921.6) scale(1,-1)" d="M147 683L185 683L185 530L125 530L76 553L76 283L54 274L93 219L122 252L185 252L185 27Q159 22 119.50 16.50Q80 11 34 5L34 5L78-54Q103-36 207-9.50Q311 17 493 62L493 62L483 82L362 59L362 252L429 252L429 222L476 242L476 482L506 511L458 558L429 530L362 530L362 683L528 683L471 754L429 709L41 709L76 677Q91 677 109.50 680Q128 683 147 683L147 683ZM185 469L230 488L230 683L313 683L313 549L291 517L330 475L352 501L429 501L429 277L362 277L310 300Q312 280 312.50 263Q313 246 313 229L313 229L313 53L230 37L230 242L263 270L208 309L185 277L125 277L125 501L185 501L185 469ZM596 719L596 719L557 757L557 553Q557 487 553.50 419.50Q550 352 548 280L548 280Q538 148 503 53L503 53Q462-40 426-82L426-82L438-99Q480-53 511-8Q542 37 557 85L557 85Q573 131 584.50 181.50Q596 232 599 283L599 283Q608 385 608 453L608 453L746 453L746 101Q746 65 744 16.50Q742-32 742-95L742-95L804-60Q801-33 800.50-4Q800 25 800 59L800 59L800 453L950 453L899 526L861 478L608 478L608 696Q668 703 734 711Q800 719 867 734L867 734L906 728L861 804Q835 781 765 763L765 763Q728 751 685 740.50Q642 730 596 719Z"/></svg>