<svg id="U23F11" viewBox="0 0 1024 1024"><path transform="translate(0, 921.6) scale(1,-1)" d="M451 396L451 521L769 521L769 396L451 396ZM586-85L586-85L649-60Q646-38 646 33L646 33Q646 104 646 231L646 231L952 231L883 301L845 260L646 260L646 323L683 345L608 367L769 367L769 342L826 363Q823 392 822.50 428Q822 464 822 515L822 515L847 540L788 584L765 550L454 550L394 581Q396 548 396.50 517Q397 486 397 458L397 458Q397 427 396.50 395.50Q396 364 394 332L394 332L451 352L451 367L590 367L590 260L281 260L318 222Q349 231 400 231L400 231L590 231Q590 110 588 33.50Q586-43 586-85ZM259-25L265-44Q398 20 508 124L508 124L542 131L476 193Q400 66 259-25L259-25ZM690 172L683 156Q755 110 804 71Q853 32 879 0L879 0Q930-62 935-9L935-9Q941 40 895 74L895 74Q871 90 821 114.50Q771 139 690 172L690 172ZM492 672L631 672L574 729L542 694L492 694L492 758L523 782L438 808L438 694L303 694L341 656L382 669L438 669L438 578L492 594L492 672ZM801 672L952 672L883 738L845 697L801 697L801 764L835 786L747 811L747 697L627 697L665 660L706 672L747 672L747 591L801 603L801 672ZM148 776L148 776L145 767Q176 731 198 701Q220 671 227 650L227 650Q249 596 265 647L265 647Q287 683 259 713L259 713Q244 728 216 742.50Q188 757 148 776ZM78 556L72 543Q104 509 123.50 484Q143 459 148 442L148 442Q169 395 183 420L183 420Q203 442 199 477L199 477Q195 508 78 556L78 556ZM84 193L84 193L84 181Q164 158 164 118L164 118Q164 71 148 30L148 30Q135-18 177-50Q219-82 215 8L215 8Q210 101 224 185L224 185Q233 230 255 331.50Q277 433 315 597L315 597L300 603Q199 207 177 200L177 200Q152 185 84 193Z"/></svg>