<svg id="U23C78" viewBox="0 0 1024 1024"><path transform="translate(0, 921.6) scale(1,-1)" d="M232 669L329 669Q294 584 227 513.50Q160 443 60 385L60 385L65 372Q288 446 398 665L398 665L426 687L364 739L329 694L119 694L159 663Q174 664 193 666.50Q212 669 232 669L232 669ZM478 645L478 469Q478 437 341 461L341 461L341 443Q391 432 416 414.50Q441 397 438 372L438 372Q538 396 538 451L538 451L538 691Q629 477 867 385L867 385Q878 405 903 416Q928 427 963 432L963 432L963 451Q863 465 781 502Q699 539 635 604L635 604Q691 625 729.50 643.50Q768 662 787 672L787 672Q823 697 865 708L865 708L804 767Q767 722 722.50 685Q678 648 623 622L623 622Q594 648 574 680.50Q554 713 538 752L538 752L538 771L565 791L470 828Q476 781 477 737Q478 693 478 645L478 645ZM464 282L464 282Q427 212 381 157.50Q335 103 281 61L281 61Q224 17 171-14.50Q118-46 65-66L65-66L69-82Q135-61 195.50-32Q256-3 316 32L316 32Q373 73 421.50 123Q470 173 510 236L510 236Q543 191 585.50 147Q628 103 678 56L678 56Q775-31 862-72L862-72Q889-26 955-20L955-20L955-5Q900 1 850.50 21Q801 41 754 73L754 73Q711 110 674 141Q637 172 610 196L610 196Q587 223 564 247Q541 271 517 293L517 293Q494 315 449 332Q404 349 339 365L339 365L302 332Q350 330 389.50 317Q429 304 464 282Z"/></svg>