<svg id="U2327C" viewBox="0 0 1024 1024"><path transform="translate(0, 921.6) scale(1,-1)" d="M107 405L107 646L276 646L276 405L107 405ZM107 130L107 380L276 380L276 130L107 130ZM58 21L58 21L107 50L107 104L276 104L276 44L331 79Q325 124 324.50 262Q324 400 324 633L324 633L357 658L299 706L274 674L113 674L58 703Q61 637 61 549L61 549Q61 462 61 351L61 351Q61 242 61 160L61 160Q61 79 58 21ZM452 783L452 783L442 776Q502 705 517 661L517 661Q531 611 555 646L555 646Q579 668 567 703L567 703Q545 736 452 783ZM817 741L817 741L750 796Q745 773 724.50 730.50Q704 688 667 626L667 626L362 626L401 594Q423 598 441.50 599.50Q460 601 475 601L475 601L600 601L600 485L407 485L440 450Q476 460 513 460L513 460L600 460L600 348L350 348L382 315Q404 319 423 320.50Q442 322 459 322L459 322L916 322L849 396L798 348L654 348L654 460L865 460L811 533L769 485L654 485L654 601L894 601L836 671L795 626L692 626Q715 649 750 693L750 693Q785 732 817 741ZM407 134L407 134L407-34L282-34L317-69Q334-66 351.50-64.50Q369-63 392-63L392-63L945-63L891 12L849-34L849 217L875 239L817 284L791 245L455 245L401 277Q405 235 406 200.50Q407 166 407 134ZM455-34L455 220L535 220L535-34L455-34ZM587-34L587 220L660 220L660-34L587-34ZM708-34L708 220L798 220L798-34L708-34Z"/></svg>