<svg id="U23202" viewBox="0 0 1024 1024"><path transform="translate(0, 921.6) scale(1,-1)" d="M597 528L597 621L843 621L843 528L597 528ZM136 375L136 375L194 397L194 448L389 448L389 395L444 416Q441 438 440.50 458.50Q440 479 440 503L440 503L440 721L472 739L414 788L379 753L197 753L136 781Q138 739 138.50 687.50Q139 636 139 573L139 573Q139 509 138.50 458.50Q138 408 136 375ZM194 615L194 727L389 727L389 615L194 615ZM194 474L194 589L389 589L389 474L194 474ZM382 317L382 317L392 308Q571 374 597 503L597 503L843 503L843 438Q843 407 818 407L818 407Q808 407 779.50 407.50Q751 408 708 413L708 413L708 397Q814 378 814 327L814 327Q904 357 894 438L894 438L894 724L929 749L868 801L836 762L600 762L539 788Q539 749 542 707Q545 665 545 611L545 611Q547 562 541 521Q535 480 527 452L527 452Q503 396 382 317ZM597 646L597 733L843 733L843 646L597 646ZM836 272L763 347L708 298L178 298L216 260L280 272L364 272L492 272L492 139L68 139L101 103Q137 112 181 112L181 112L492 112L492-36L142-36L181-74Q198-71 218-67Q238-63 257-62L257-62L910-62L827 10L770-36L548-36L548 112L955 112L885 189L827 139L548 139L548 272L836 272Z"/></svg>