<svg id="U23623" viewBox="0 0 1024 1024"><path transform="translate(0, 921.6) scale(1,-1)" d="M262 424L262 424Q306 357 325 311L325 311Q340 251 366 304L366 304Q384 346 353 380L353 380Q337 395 314.50 411.50Q292 428 262 445L262 445L262 546L407 546L335 619L294 574L262 574L262 748L300 773L209 811Q211 744 211.50 685Q212 626 212 574L212 574L62 574L95 540Q111 542 128 544Q145 546 164 546L164 546L202 546Q173 307 44 118L44 118L57 108Q166 226 212 360L212 360Q212 222 211.50 114.50Q211 7 209-78L209-78L268-54Q263-16 262.50 101.50Q262 219 262 424ZM473 578L473 735L914 735L854 798L813 761L473 761L423 792Q425 729 425.50 677.50Q426 626 426 581L426 581Q428 535 423 487.50Q418 440 407 389L407 389Q397 338 375.50 280.50Q354 223 319 159L319 159L331 152Q401 227 436 326.50Q471 426 473 550L473 550L529 550L529 439Q525 403 511 389L511 389L546 342Q577 379 684 427L684 427L681 442L580 411L580 550L631 550Q704 408 876 354L876 354Q876 387 939 401L939 401L939 417Q844 417 763 465L763 465Q817 512 860 524L860 524L816 550L936 550L873 619L829 578L473 578ZM765 666L514 666L549 635Q564 637 582.50 639Q601 641 621 641L621 641L873 641L810 704L765 666ZM659 550L659 550L798 550Q787 511 747 477L747 477Q701 496 659 550ZM529 118L529 197L804 197L804 118L529 118ZM713-6L713-6L713-21Q785-45 785-85L785-85Q852-66 857 5L857 5L857 291L889 311L829 360L798 323L539 323L479 348Q479 300 480.50 246Q482 192 482 131L482 131Q482 68 480.50 16.50Q479-35 479-78L479-78L529-57L529 93L804 93L804 21Q799-11 782-16L782-16Q754-16 713-6ZM529 226L529 294L804 294L804 226L529 226Z"/></svg>