<svg id="U231C8" viewBox="0 0 1000 1000"><path transform="translate(0, 900) scale(1,-1)" d="M665 793C705 773 754 741 779 719L823 765C797 787 748 816 708 835ZM824 638C789 596 740 561 683 531C662 562 643 598 628 638L914 670L909 733L608 700C597 744 589 791 586 841L523 841C526 789 534 740 546 693L376 675L381 611L564 631C580 584 601 540 624 503C544 469 453 444 364 427C376 413 394 382 401 367C488 388 578 416 660 453C714 387 780 347 848 347C907 347 930 376 941 487C925 492 904 503 890 517C886 442 877 417 850 417C806 416 761 440 720 484C784 518 839 560 880 610ZM366 311L366 247L535 247C524 103 488 21 333-25C347-38 365-67 371-84C543-28 586 76 600 247L694 247L694 25C694-46 711-66 783-66C797-66 871-66 886-66C944-66 961-37 967 74C950 78 924 88 910 100C907 9 902-3 879-3C863-3 803-3 791-3C764-3 759 0 759 24L759 247L952 247L952 311ZM260 414L260 185L136 185L136 414ZM260 481L136 481L136 703L260 703ZM74 771L74 36L136 36L136 117L323 117L323 771Z"/></svg>