<svg id="U231A8" viewBox="0 0 1024 1024"><path transform="translate(0, 921.6) scale(1,-1)" d="M413 486L413 605L759 605L759 486L413 486ZM362 428L362 428L413 442L413 458L759 458L759 432L816 451Q802 518 813 736L813 736L846 756L778 803L749 764L413 764L362 791Q364 757 364.50 714.50Q365 672 365 618L365 618Q365 567 364.50 519Q364 471 362 428ZM413 631L413 736L759 736L759 631L413 631ZM515 22L515 22L515 99L736 99L676 160L634 125L515 125L515 224L705 224L650 285L608 253L515 253L515 381L462 381L462 253L266 253L305 218Q339 224 365 224L365 224L462 224L462 125L241 125L269 93Q308 99 347 99L347 99L462 99Q462 39 460-8Q458-55 458-97L458-97L519-69Q516-48 515.50-27Q515-6 515 22ZM931 132L931 132L916 135Q899 80 887-17L887-17Q836 13 804 96L804 96Q786 139 778 200.50Q770 262 778 343L778 343L813 372L759 423L723 393L244 393L183 403Q185 357 186.50 314.50Q188 272 186 230L186 230Q183 185 174 145.50Q165 106 151 64L151 64Q122-12 48-81L48-81L54-94Q186-3 215 99L215 99Q245 216 241 368L241 368L723 368Q721 298 723.50 244.50Q726 191 733 154L733 154Q740 109 752.50 72Q765 35 788 7L788 7Q828-52 884-74L884-74Q938-99 934-74L934-74Q931-63 928.50-43.50Q926-24 926 4L926 4Q926 34 926.50 65.50Q927 97 931 132ZM170 416L170 416L227 442Q224 477 224 507L224 507Q224 537 224 566L224 566L224 752L254 771L170 797Q173 765 173.50 739.50Q174 714 174 685L174 685L174 531Q174 502 173.50 473.50Q173 445 170 416Z"/></svg>