<svg id="U23BEC" viewBox="0 0 1024 1024"><path transform="translate(0, 921.6) scale(1,-1)" d="M306 560L306 560L329 578L261 612Q254 580 245.50 550Q237 520 223 486L223 486L61 486L95 448Q129 457 180 457L180 457L213 457Q165 346 50 247L50 247L54 236Q99 256 136.50 288Q174 320 206 357L206 357L206 195L62 195L102 156L142 169L206 169Q196 93 163 34Q130-25 73-66L73-66L76-84Q237-4 258 169L258 169L351 169Q351 66 351 8L351 8Q351-49 349-66L349-66L406-56Q404-21 404 32L404 32Q404 86 404 169L404 169L549 169L481 238L443 195L404 195L404 288L429 319L349 351Q351 311 351 273L351 273Q351 236 351 195L351 195L258 195L258 298L281 328L209 362Q224 382 239 405Q254 428 269 457L269 457L340 457Q388 399 419 360.50Q450 322 462 295L462 295Q484 252 501 282L501 282Q509 322 497 347L497 347Q488 362 453.50 388.50Q419 415 361 457L361 457L551 457L485 529L446 486L277 486Q285 501 291.50 520Q298 539 306 560ZM372 598L364 592Q384 574 398.50 553.50Q413 533 427 510L427 510Q443 468 462 510L462 510Q475 545 443 574L443 574Q418 588 372 598L372 598ZM894 751L894 751L831 799Q777 749 707 712Q637 675 549 648L549 648L551 634Q588 638 618.50 647Q649 656 677 667L677 667L677 473L565 457L597 430L608 437L677 450L677 253L535 232L565 202L597 218L677 232L677 14Q677-45 743-45L743-45L881-45Q948-45 974 2L974 2Q953 10 941 44.50Q929 79 929 144L929 144L910 144Q910 116 908 90Q906 64 904 41L904 41Q892 0 865 0L865 0L761 0Q726 0 726 34L726 34L726 238L956 273L881 340L837 278L726 264L726 457L918 490L840 550L807 496L726 479L726 679Q779 705 820.50 721.50Q862 738 894 751ZM269 741L232 707L232 776L261 799L184 829Q186 813 186 799L186 799Q186 785 186 769L186 769L186 707L76 707L113 667L158 678L186 678L186 598L232 620L232 678L285 678L321 678L269 741ZM399 678L404 678L404 598L448 621L448 673L579 673L507 741L468 700L448 700L448 769L481 793L401 818Q403 803 403.50 789Q404 775 404 766L404 766L404 707L314 707L351 667L399 678Z"/></svg>