<svg id="U23CC5" viewBox="0 0 1024 1024"><path transform="translate(0, 921.6) scale(1,-1)" d="M147 787L147 787L141 776Q224 708 238 673L238 673Q263 621 280 660L280 660Q302 693 276 725L276 725Q248 752 147 787ZM72 580L69 566Q101 536 122.50 512Q144 488 154 466L154 466Q173 429 189 445L189 445Q211 465 202 500L202 500Q197 530 72 580L72 580ZM75 221L75 221L75 205Q171 181 171 144L171 144Q171 124 167.50 97Q164 70 154 41L154 41Q142-24 183-39L183-39Q202-47 211.50-31Q221-15 218 27L218 27Q212 118 218 163L218 163Q221 186 225.50 206.50Q230 227 238 247L238 247Q248 273 281.50 369.50Q315 466 377 640L377 640L350 643Q278 442 234.50 338.50Q191 235 175 224L175 224Q161 219 135 217Q109 215 75 221ZM680 784L599 822Q581 750 554 686.50Q527 623 493 566L493 566Q458 512 412.50 463Q367 414 310 376L310 376L313 363Q360 385 403.50 417Q447 449 488 493L488 493Q527 535 565 597.50Q603 660 637 741L637 741Q678 621 737 530Q796 439 877 376L877 376Q890 393 909.50 404.50Q929 416 955 418L955 418L955 427Q906 446 851 486L851 486Q823 508 797.50 536Q772 564 748 598L748 598Q719 633 694.50 673.50Q670 714 655 760L655 760L680 784ZM735 340L719 333Q744 295 769.50 253Q795 211 819 166L819 166Q840 127 854.50 95Q869 63 877 44L877 44Q890 5 913 41L913 41Q933 73 917 118L917 118Q908 136 892 158.50Q876 181 853 208L853 208Q833 235 801 266.50Q769 298 735 340L735 340ZM609 343L609 343L609 34Q609 5 579 5L579 5Q565 5 540 8.50Q515 12 477 22L477 22L477 2Q523-12 549.50-32Q576-52 579-76L579-76Q602-68 617-60Q632-52 644-43L644-43Q666-22 666 22L666 22L666 424L696 457L607 496Q607 456 608 419Q609 382 609 343ZM510 295L510 295L537 314L467 357Q454 312 439.50 267.50Q425 223 400 176L400 176Q378 125 355 88Q332 51 313 24L313 24L320 14Q361 48 386.50 80Q412 112 432 140L432 140Q449 169 467 206Q485 243 510 295Z"/></svg>