<svg id="U239D7" viewBox="0 0 1024 1024"><path transform="translate(0, 921.6) scale(1,-1)" d="M227 490L227 490L382 490Q372 446 359 400.50Q346 355 326 301L326 301Q309 250 284.50 202.50Q260 155 227 111L227 111Q166 29 54-58L54-58L60-76Q210 9 272 98L272 98Q304 140 329.50 183Q355 226 372 272L372 272Q392 315 407 366.50Q422 418 439 476L439 476L465 504L406 553L382 514L233 514Q245 547 257.50 591Q270 635 282 690L282 690L486 690L423 756L385 715L63 715L96 678Q113 682 130.50 686Q148 690 169 690L169 690L221 690Q213 640 201 586.50Q189 533 169 473L169 473Q148 407 119 350.50Q90 294 54 243L54 243L63 233Q97 267 125.50 301Q154 335 178 373L178 373Q194 342 205 313Q216 284 227 254L227 254Q242 185 266 226L266 226Q288 266 269 301L269 301Q261 317 238 339Q215 361 183 385L183 385Q199 414 207.50 439Q216 464 227 490ZM969-1L969-1Q942 11 929 55L929 55Q926 75 924 100.50Q922 126 922 156L922 156L901 156Q895 56 888 31L888 31Q882-5 859-5L859-5L805-5Q755-5 755 40L755 40L755 497L959 497L897 570L850 524L639 524L639 756L668 783L581 822Q581 802 582.50 728.50Q584 655 584 524L584 524L465 524L508 490Q525 495 543 496Q561 497 584 497L584 497Q582 395 568 311Q554 227 526 159L526 159Q477 22 342-83L342-83L353-97Q438-41 494 21Q550 83 579 150L579 150Q608 215 622.50 301.50Q637 388 639 497L639 497L701 497L701 34Q701-53 788-53L788-53L879-53Q950-53 969-1ZM721 762L721 762L711 754Q737 724 758 696.50Q779 669 788 643L788 643Q812 594 831 611L831 611Q850 620 850 650L850 650Q857 669 824 699L824 699Q804 712 778 727.50Q752 743 721 762Z"/></svg>