<svg id="U23D77" viewBox="0 0 1024 1024"><path transform="translate(0, 921.6) scale(1,-1)" d="M131 817L131 817L129 801Q193 745 212 699L212 699Q235 647 251 680L251 680Q268 713 248 746L248 746Q233 774 131 817ZM64 593L61 585Q92 551 111 524Q130 497 139 475L139 475Q148 432 171 459L171 459Q191 472 185 513L185 513Q182 548 64 593L64 593ZM61 223L61 223L61 206Q141 179 141 143L141 143Q141 120 138.50 91Q136 62 129 29L129 29Q121-39 161-56L161-56Q203-78 192 22L192 22Q188 116 192 164L192 164Q197 183 200 206.50Q203 230 208 251L208 251Q218 277 235.50 356Q253 435 284 573L284 573L264 578Q174 239 150 226L150 226Q142 220 119 217.50Q96 215 61 223ZM386 84L386 323L541 323L541 84L386 84ZM590 199L590 581L684 581L628 649L590 607L590 748L620 781L537 820Q537 769 539 716.50Q541 664 541 607L541 607L386 607L386 759L412 786L331 820Q337 769 338 716.50Q339 664 339 607L339 607L268 607L305 568L339 581L339 146Q339 106 338 56Q337 6 331-56L331-56L386-30L386 56L541 56L541-37L596-12Q591 33 590.50 86Q590 139 590 199L590 199ZM386 348L386 581L541 581L541 348L386 348ZM751 174L751 174L751 161Q770 155 782 147.50Q794 140 806 132L806 132Q818 121 836 87L836 87Q900 118 923 171L923 171Q932 194 934 227Q936 260 928 303L928 303Q921 341 891 386.50Q861 432 809 485L809 485Q841 542 865 585Q889 628 906 651L906 651Q919 673 932.50 689Q946 705 962 714L962 714L903 771L871 733L742 733L684 771Q684 715 685.50 663Q687 611 687 564L687 564L687 135Q687 68 685.50 15.50Q684-37 684-75L684-75L738-56L738 708L871 708Q861 676 840 620.50Q819 565 784 485L784 485Q823 428 846 378.50Q869 329 877 286L877 286Q881 211 864 184L864 184Q840 160 751 174Z"/></svg>