<svg id="U23700" viewBox="0 0 1024 1024"><path transform="translate(0, 921.6) scale(1,-1)" d="M230 424L230 424Q267 352 274 311L274 311Q290 262 312 304L312 304Q337 348 305 380L305 380Q275 414 230 445L230 445L230 553L330 553L289 622L255 578L230 578L230 748L258 773L176 811Q178 748 178.50 690Q179 632 179 578L179 578L58 578L93 543Q107 545 124 549Q141 553 160 553L160 553L173 553Q153 304 46 111L46 111L58 99Q104 163 134 225Q164 287 179 354L179 354Q179 219 178.50 110.50Q178 2 176-85L176-85L233-57Q230-19 230 99L230 99Q230 218 230 424ZM582 398L582 398Q597 348 617 386L617 386Q631 421 620 445L620 445Q601 474 485 546L485 546L482 534Q561 445 582 398ZM466 701L466 701Q466 681 464.50 654Q463 627 459 594L459 594L325 594L356 559Q393 565 428 565L428 565L453 565Q418 451 325 370L325 370L330 360Q471 425 500 565L500 565L629 565L579 635L541 594L507 594Q509 624 511 652.50Q513 681 513 710L513 710Q527 715 545 718.50Q563 722 582 729L582 729L626 729L579 789Q520 737 349 710L349 710L349 694Q377 694 406 695.50Q435 697 466 701ZM407 285L407 285L431 311L359 345Q364 264 356 201Q348 138 333 90L333 90Q319 39 298.50 1Q278-37 251-72L251-72L261-78Q330-21 384 105L384 105Q418 29 503-21L503-21Q580-65 875-65L875-65Q879-30 935-16L935-16L935 0Q893-4 835.50-6Q778-8 702-6L702-6Q550-2 513 21L513 21L513 216L642 216L592 282L557 244L513 244L513 373L548 401L463 437L466 386L466 55Q411 91 390 140L390 140Q395 171 399.50 207Q404 243 407 285ZM919 282L894 121Q853 174 841 226L841 226Q865 274 881.50 326.50Q898 379 910 430L910 430L935 448L872 506Q864 446 850 391Q836 336 816 282L816 282Q806 338 801 408Q796 478 796 563L796 563L935 563L891 625L860 587L796 587L796 748L831 773L746 808Q746 757 749 703.50Q752 650 752 587L752 587L683 587L642 619Q642 573 644 474Q646 375 646 216L646 216Q646 195 629 178L629 178L674 115Q683 141 704.50 177.50Q726 214 759 266L759 266L746 275L693 222L693 563L752 563Q752 445 758 358Q764 271 781 213L781 213Q737 117 623 36L623 36L626 23Q683 47 728.50 83.50Q774 120 812 168L812 168Q833 114 858 83Q883 52 907 33L907 33Q944 3 935 42L935 42Q922 94 935 275L935 275L919 282ZM831 761L831 761L822 754Q874 679 888 650L888 650Q898 604 916 650L916 650Q935 683 910 704L910 704Q898 716 879 728.50Q860 741 831 761Z"/></svg>