<svg id="U23959" viewBox="0 0 1024 1024"><path transform="translate(0, 921.6) scale(1,-1)" d="M183 615L183 615Q183 553 182 489Q181 425 175 359L175 359L234 397L234 733L784 733L784 443Q776 431 700 443L700 443L700 422Q767 413 784 362L784 362Q842 377 842 461L842 461L842 723L871 752L806 798L780 759L248 759L175 791Q181 759 182 714.50Q183 670 183 615ZM506 576L506 576Q553 532 583 501.50Q613 471 625 451L625 451Q647 402 666 447L666 447Q685 493 640 522L640 522Q620 539 587 555Q554 571 512 591L512 591L541 649L579 672L493 717Q483 625 436 555.50Q389 486 305 432L305 432L313 418Q452 468 506 576ZM599 377L503 418Q503 376 504.50 340Q506 304 506 272L506 272L506-14L292-14L292 223L331 258L234 293Q239 254 240 221Q241 188 241 159L241 159L241-14L53-14L90-54Q104-46 125.50-43.50Q147-41 173-41L173-41L970-41L903 26L864-14L564-14L564 213L867 213L800 282L748 240L564 240L564 345L599 377Z"/></svg>