<svg id="U238EB" viewBox="0 0 1024 1024"><path transform="translate(0, 921.6) scale(1,-1)" d="M362 339L362 474L428 474L428 301L400 301Q362 301 362 339L362 339ZM261 499L261 597L318 597L318 499L261 499ZM144 234L144 474L216 474Q216 328 144 234L144 234ZM261 474L261 474L318 474L318 335Q318 263 371 263L371 263L428 263L428 59L144 59L144 216Q261 304 261 474ZM141 776L141 776L128 764Q175 705 185 660L185 660Q198 614 223 644L223 644Q250 677 226 707L226 707Q216 719 193.50 736Q171 753 141 776ZM418 729L418 729L450 745L380 795Q374 761 357.50 719Q341 677 315 625L315 625L42 625L80 591Q96 593 112 595Q128 597 148 597L148 597L216 597L216 499L144 499L92 527Q97 504 97 439L97 439Q97 374 97 260L97 260Q97 145 97 70L97 70Q97-5 92-47L92-47L144-25L144 30L428 30L428-25L478 2Q475 31 475 72L475 72Q475 114 475 165L475 165L475 465L506 493L450 537L421 499L362 499L362 597L535 597L472 669L431 625L336 625Q368 665 389 691Q410 717 418 729ZM663 748L663 748L689 776L611 811Q611 777 602.50 729Q594 681 576 612L576 612Q562 548 543 488.50Q524 429 500 373L500 373L513 360Q540 400 566 450Q592 500 614 563L614 563L850 563L809 455L825 452Q884 547 941 571L941 571L875 625L850 587L623 587Q639 648 648 688.50Q657 729 663 748ZM743 468L655 509Q650 393 633 303.50Q616 214 588 149L588 149Q562 83 524 30Q486-23 441-69L441-69L447-85Q496-47 537.50-4Q579 39 611 96L611 96Q678 202 701 396L701 396Q706 326 717.50 266Q729 206 745 146L745 146Q784 30 859-57L859-57Q885-16 938-16L938-16L938-6Q870 20 809 131L809 131Q738 252 720 439L720 439L743 468ZM144 146L144 175L428 175L428 146L144 146Z"/></svg>