<svg id="U2379A" viewBox="0 0 1024 1024"><path transform="translate(0, 921.6) scale(1,-1)" d="M262 424L262 424Q291 376 310 326L310 326Q323 269 351 319L351 319Q370 356 338 393L338 393Q321 409 302 422Q283 435 262 445L262 445L262 546L385 546L334 619L294 574L262 574L262 748L300 773L212 811Q214 744 214.50 685Q215 626 215 574L215 574L66 574L99 540Q115 542 132 544Q149 546 167 546L167 546L205 546Q176 307 47 118L47 118L60 108Q169 226 215 360L215 360Q215 222 214.50 114.50Q214 7 212-78L212-78L269-54Q263-16 262.50 101.50Q262 219 262 424ZM653 270L653 720Q704 720 766 732L766 732Q804 734 835 734.50Q866 735 892 735L892 735L842 802Q813 790 766 776.50Q719 763 653 754L653 754Q586 742 515.50 732Q445 722 367 720L367 720L367 704Q421 704 479 707.50Q537 711 606 717L606 717L606 270L653 270ZM842 679L776 717Q757 601 662 506L662 506L668 496Q741 532 785 615L785 615Q839 569 861 537L861 537Q885 486 899 518L899 518Q905 534 905 556L905 556Q905 569 883 587L883 587Q858 606 794 635L794 635Q813 668 842 679L842 679ZM527 650L457 691Q431 566 347 477L347 477L357 465Q395 482 421 514.50Q447 547 470 587L470 587Q525 542 545 506L545 506Q571 466 583 486L583 486Q594 512 590 524L590 524Q590 544 565 565L565 565Q534 588 477 603L477 603Q500 636 527 650L527 650ZM517 483L454 521Q419 377 354 304L354 304L360 291Q425 329 473 417L473 417Q519 379 545 339L545 339Q571 301 583 323L583 323Q593 345 590 360L590 360Q590 375 565 393L565 393Q553 401 529.50 413Q506 425 477 439L477 439Q503 476 517 483L517 483ZM851 496L779 534Q750 391 665 319L665 319L671 307Q744 344 794 427L794 427Q818 405 838 384Q858 363 867 345L867 345Q894 301 905 329L905 329Q914 345 914 367L914 367Q914 376 886 404L886 404Q876 416 853.50 425Q831 434 801 445L801 445Q824 478 851 496L851 496ZM372 231L410 247Q410 208 401 156L401 156Q397 99 372 39L372 39Q349-14 294-75L294-75L300-85Q338-62 364.50-30.50Q391 1 410 33L410 33Q449 104 457 247L457 247L936 247L876 323L823 275L334 275L372 231ZM776 185L483 185L514 149Q531 151 549.50 153.50Q568 156 586 156L586 156L643 156L643-21L426-21L457-57Q476-54 493.50-50.50Q511-47 530-47L530-47L933-47L867 21L817-21L691-21L691 156L879 156L823 229L776 185Z"/></svg>