<svg id="U232DD" viewBox="0 0 1024 1024"><path transform="translate(0, 921.6) scale(1,-1)" d="M99 423L99 672L257 672L257 423L99 423ZM99 141L99 397L257 397L257 141L99 141ZM48 22L48 22L99 54L99 115L257 115L257 49L311 87L311 656L337 681L276 733L254 698L103 698L48 729Q53 662 53.50 573Q54 484 54 372L54 372Q54 258 53.50 170Q53 82 48 22ZM397 381L397 503L525 503L525 381L397 381ZM705 378L705 500L826 500L826 378L705 378ZM510 771L455 797Q455 765 456.50 736Q458 707 458 678L458 678Q458 649 456.50 620Q455 591 455 560L455 560L510 576L510 601L727 601L727 570L775 593Q772 621 772 655L772 655Q772 690 772 736L772 736L804 764L750 806L723 771L510 771ZM397 531L349 557Q351 528 351.50 494Q352 460 352 420L352 420Q352 378 351.50 349Q351 320 349 301L349 301L397 323L397 355L525 355L525 323L573 345Q570 375 570 412L570 412Q570 450 570 496L570 496L599 518L542 560L519 531L397 531ZM705 528L653 553Q653 524 655 496.50Q657 469 657 442L657 442Q657 418 655 385Q653 352 653 317L653 317L705 337L705 352L826 352L826 327L874 343Q871 364 871 400L871 400Q871 436 871 493L871 493L896 515L851 560L823 528L705 528ZM510 631L510 746L727 746L727 631L510 631ZM590 237L590 237L324 237L359 202Q376 204 394.50 206Q413 208 432 208L432 208L529 208Q505 166 478 129.50Q451 93 420 64L420 64Q360 6 276-49L276-49L282-59Q384-19 462 49L462 49Q534 106 590 202L590 202L590 7Q590-20 588.50-48Q587-76 587-100L587-100L644-74Q639-55 638.50-32.50Q638-10 638 16L638 16L638 208Q654 166 681 125Q708 84 746 49L746 49Q808-19 871-56L871-56Q876-15 935-11L935-11L935 4Q890 8 798 67L798 67Q704 127 670 208L670 208L913 208L846 292L791 237L638 237L638 275L670 298L587 340Q587 313 588.50 288Q590 263 590 237Z"/></svg>