<svg id="U23214" viewBox="0 0 1024 1024"><path transform="translate(0, 921.6) scale(1,-1)" d="M302 554L302 641L801 641L801 554L302 554ZM855 739L855 739L890 762L829 813L797 774L302 774L244 807Q246 762 246.50 721.50Q247 681 247 638L247 638Q247 593 246.50 559Q246 525 244 496L244 496L302 506L302 525L801 525L801 496L859 522Q856 546 855.50 598.50Q855 651 855 739ZM302 669L302 749L801 749L801 669L302 669ZM244 388L957 388L887 471L829 416L583 416Q620 444 596 474L596 474Q584 485 558.50 496Q533 507 497 519L497 519L494 506Q539 465 545 416L545 416L247 416L187 452Q194 335 190 254Q186 173 177 125L177 125Q159 33 67-77L67-77L79-87Q199 15 222 122L222 122Q235 180 240.50 246Q246 312 244 388L244 388ZM360-10L360 142L797 142L797-10L360-10ZM305-87L305-87L360-67L360-36L797-36L797-77L852-55Q849-25 849 19L849 19Q849 63 849 135L849 135L884 157L817 202L791 167L589 167L589 257L932 257L859 327L810 282L589 282L589 337L621 359L532 385Q532 339 534 285Q536 231 536 167L536 167L360 167L305 195Q307 157 307.50 120Q308 83 308 45L308 45Q308 10 307.50-23Q307-56 305-87Z"/></svg>