<svg id="U2301A" viewBox="0 0 1024 1024"><path transform="translate(0, 921.6) scale(1,-1)" d="M245 804L238 792Q286 765 313.50 744Q341 723 350 712L350 712Q366 681 379 703L379 703Q395 713 389 741L389 741Q389 758 357 779L357 779Q343 782 315.50 788.50Q288 795 245 804L245 804ZM261 533L261 591L709 591L709 533L261 533ZM261 446L261 508L709 508L709 446L261 446ZM242 668L888 668L817 738L779 693L568 693Q589 705 612.50 719Q636 733 657 751L657 751L692 761L632 808Q583 729 536 693L536 693L85 693L123 658Q159 668 207 668L207 668L242 668ZM706 619L261 619L213 638L213 395L261 405L261 421L709 421L709 395L764 411L764 588L786 603L731 648L706 619ZM136 370L133 405L113 405Q108 376 97.50 348Q87 320 67 297L67 297Q29 253 64 248L64 248Q102 248 117 270L117 270Q124 282 130 300Q136 318 136 344L136 344L849 344L817 258L830 255Q880 332 936 350L936 350L872 408L847 370L136 370ZM478 37L341 11L341 127L459 127L411 187L379 152L341 152L341 252L488 252L424 315L389 277L140 277L178 239Q208 252 258 252L258 252L293 252L293-1L216-16L216 127L242 152L171 184L171-22L104-34L142-89Q182-61 481 21L481 21L478 37ZM568 235L594 290L619 303L549 332Q523 204 453 69L453 69L463 59Q481 83 498 106Q515 129 529 155L529 155Q542 96 597 27L597 27Q536-30 373-86L373-86L376-99Q452-86 515-60.50Q578-35 632-1L632-1Q723-80 817-102L817-102Q832-69 882-64L882-64L879-47Q758-43 661 27L661 27Q722 97 754 210L754 210L827 210L769 270L734 235L568 235ZM539 178L556 210L706 210Q691 162 670 122Q649 82 629 53L629 53Q593 86 572 117Q551 148 539 178L539 178Z"/></svg>