<svg id="U23A14" viewBox="0 0 1024 1024"><path transform="translate(0, 921.6) scale(1,-1)" d="M213 494L213 494L346 494Q337 454 327.50 409Q318 364 304 313L304 313Q288 259 265.50 211Q243 163 217 120L217 120Q191 73 151.50 29.50Q112-14 55-64L55-64L66-79Q202 21 255 103L255 103Q284 144 305 186Q326 228 341 266L341 266Q356 306 370.50 359.50Q385 413 398 482L398 482L426 512L375 558L349 521L222 521Q231 565 240 607.50Q249 650 255 695L255 695L452 695L384 761L346 720L69 720L107 681L148 695L203 695Q192 632 180.50 576.50Q169 521 155 470L155 470Q141 413 118 359Q95 305 63 252L63 252L69 238Q98 277 124 311.50Q150 346 166 378L166 378Q200 312 209 255L209 255Q215 220 223.50 214.50Q232 209 246 232L246 232Q271 265 251 303L251 303Q244 324 223.50 345.50Q203 367 174 394L174 394Q187 422 196 446.50Q205 471 213 494ZM539 93L539 512L566 538L532 558Q548 592 568 642Q588 692 611 755L611 755L638 776L562 818Q544 743 525 679Q506 615 487 558L487 558Q462 500 434.50 443Q407 386 368 329L368 329L375 317Q405 349 433.50 385Q462 421 487 465L487 465L487 70Q487 26 485.50-13.50Q484-53 484-92L484-92L541-60Q539-31 539 5L539 5Q539 42 539 93L539 93ZM628 433L628 112Q628 55 627 7.50Q626-40 626-85L626-85L681-66L681 4L868 4L868-79L926-60Q923-29 923 4L923 4Q923 37 923 74L923 74L923 552L949 581L888 619L865 581L739 581Q757 619 769 650.50Q781 682 791 711L791 711Q805 735 815 750.50Q825 766 830 776L830 776L751 810Q749 787 744.50 757Q740 727 733 692L733 692Q727 653 722.50 626Q718 599 710 581L710 581L681 581L626 610Q626 569 627 525Q628 481 628 433L628 433ZM681 322L681 554L868 554L868 322L681 322ZM681 33L681 296L868 296L868 33L681 33Z"/></svg>