<svg id="U23B98" viewBox="0 0 1024 1024"><path transform="translate(0, 921.6) scale(1,-1)" d="M404 728L404 728L349 787Q325 757 236 722L236 722Q194 703 157 691.50Q120 680 87 678L87 678L87 657Q110 659 142 664.50Q174 670 210 679L210 679L210 483L70 450L98 424L142 441L210 457L210 270L54 241L89 211L126 227L210 247L210 24Q210-58 294-58L294-58L872-58Q898-58 925-51L925-51Q934-47 945.50-35Q957-23 969 0L969 0Q944 0 941 37L941 37Q931 56 930 70.50Q929 85 929 101L929 101L911 101Q911 83 909 65Q907 47 905 27L905 27Q894-7 859-14L859-14L314-14Q266-13 266 47L266 47L266 261L446 298L388 343L353 305L266 282L266 466L406 496L349 544L311 503L266 490L266 688Q296 698 313.50 704Q331 710 337 715L337 715Q346 720 362.50 722.50Q379 725 404 728ZM592 802L584 796Q644 737 659 667L659 667L395 667L429 627Q443 634 462.50 637Q482 640 505 640L505 640L954 640L888 707L843 667L682 667Q715 688 705 725L705 725Q692 752 592 802L592 802ZM595 256L526 308Q515 280 499.50 254Q484 228 463 202L463 202Q421 146 365 105L365 105L376 92Q476 149 563 243L563 243L595 256ZM746 298L740 282Q834 187 866 131L866 131Q891 76 908 118L908 118Q927 154 911 182L911 182Q898 212 746 298L746 298ZM542 403L542 537L805 537L805 403L542 403ZM705 131L705 131L705 376L805 376L805 337L859 357Q854 386 853 427Q852 468 852 524L852 524L888 550L828 598L801 563L542 563L490 586Q490 551 491 523Q492 495 492 470L492 470Q492 445 491 413.50Q490 382 490 343L490 343L542 362L542 376L650 376L650 131Q650 110 624 110L624 110Q613 110 584.50 114.50Q556 119 512 124L512 124L512 105Q608 80 626 37L626 37Q705 52 705 131Z"/></svg>