<svg id="U2304D" viewBox="0 0 1024 1024"><path transform="translate(0, 921.6) scale(1,-1)" d="M162 716L162 716L165 693Q319 693 473.50 704Q628 715 782 744L782 744L840 726L792 814Q750 798 685 782.50Q620 767 524 748L524 748Q430 733 340 725.50Q250 718 162 716ZM642 501L642 501L518 501Q576 546 536 591L536 591Q504 637 438 684L438 684L425 678Q456 619 470 588L470 588Q479 570 484.50 548.50Q490 527 498 501L498 501L322 501Q375 545 332 585L332 585Q312 604 289 624Q266 644 233 661L233 661L223 655Q258 605 280 563L280 563Q287 542 293.50 527.50Q300 513 300 501L300 501L169 501L165 563L150 563Q145 455 105 421L105 421Q67 386 89 367L89 367Q110 348 147 370L147 370Q178 395 178 470L178 470L857 470L796 373L812 370Q890 457 949 473L949 473L882 543L844 501L668 501Q689 527 717 565Q745 603 779 655L779 655L821 664L732 722Q688 600 642 501ZM438 460L438 460L425 447Q479 387 495 338L495 338Q504 281 536 325L536 325Q567 359 543 390L543 390Q530 403 503 420.50Q476 438 438 460ZM348 268L348 268L626 268Q564 159 501 102L501 102Q414 159 348 268ZM764 293L143 293L182 262Q198 264 215.50 266Q233 268 252 268L252 268L322 268Q341 217 373.50 167.50Q406 118 460 72L460 72Q403 27 300.50-5.50Q198-38 49-69L49-69L49-89Q358-61 514 37L514 37Q681-66 882-85L882-85Q895-36 955-31L955-31L955-12Q837-14 737 5Q637 24 556 72L556 72Q643 160 693 268L693 268L879 268L812 348L764 293Z"/></svg>