<svg id="U23742" viewBox="0 0 1024 1024"><path transform="translate(0, 921.6) scale(1,-1)" d="M249 428L249 428Q289 360 306 306L306 306Q323 255 347 299L347 299Q366 342 341 375L341 375Q326 389 302.50 406.50Q279 424 249 447L249 447L249 548L369 548L321 623L280 573L249 573L249 753L287 781L195 818Q200 749 201 689.50Q202 630 202 573L202 573L53 573L87 538Q114 548 154 548L154 548L192 548Q178 421 137 314Q96 207 33 110L33 110L46 101Q152 219 202 355L202 355Q202 215 201 105Q200-5 195-93L195-93L252-64Q249-26 249 95L249 95Q249 217 249 428ZM444 555L444 555Q468 570 490 587Q512 604 535 614L535 614Q556 627 576.50 635.50Q597 644 617 648L617 648L570 671L901 671L832 740L788 699L627 699Q664 727 633 759L633 759Q618 773 593 783.50Q568 794 535 807L535 807L526 797Q547 775 560.50 762.50Q574 750 580 743L580 743Q586 731 590 719.50Q594 708 599 699L599 699L337 699L369 664Q390 668 408 669.50Q426 671 441 671L441 671L542 671Q512 642 487.50 622Q463 602 444 589L444 589Q401 558 375 558L375 558L403 507Q432 512 464.50 516.50Q497 521 535 526L535 526Q568 528 627.50 532.50Q687 537 772 545L772 545Q783 530 789.50 518Q796 506 804 494L804 494Q808 471 822 494L822 494Q826 506 830.50 514.50Q835 523 835 535L835 535Q835 561 816 576L816 576Q795 603 693 652L693 652L687 643Q739 598 759 563L759 563Q635 557 559 556Q483 555 444 555ZM426 321L426 403L561 403L561 321L426 321ZM611 321L611 403L769 403L769 321L611 321ZM816 394L816 394L848 419L791 466L759 432L514 432Q573 488 608 497L608 497L542 535Q536 519 522.50 491.50Q509 464 485 432L485 432L426 432L375 453Q377 415 377.50 378.50Q378 342 378 303L378 303Q378 265 377.50 228Q377 191 375 164L375 164L426 183L426 195L552 195Q520 109 457 47L457 47Q395-21 277-64L277-64L277-83Q340-68 390-43.50Q440-19 483 13L483 13Q564 90 596 183L596 183L596-5Q596-64 658-64L658-64L835-64Q874-69 892-55L892-55Q899-50 908-39.50Q917-29 930-14L930-14Q897-1 892 22L892 22Q889 38 889 116L889 116L873 116Q869 74 867 48Q865 22 863 10L863 10Q858-13 828-23L828-23L687-23Q640-12 640 19L640 19L640 195L769 195L769 177L822 198Q816 238 816 287L816 287Q816 337 816 394ZM426 221L426 296L561 296Q561 279 559.50 258.50Q558 238 558 221L558 221L426 221ZM611 296L611 296L769 296L769 221L602 221Q611 242 611 296ZM807 63L687 54Q719 89 747 109.50Q775 130 794 142L794 142L743 177Q733 159 723.50 140.50Q714 122 699 104L699 104Q680 71 650 60L650 60L681 3Q701 23 810 47L810 47Q813 25 822 10L822 10Q826-3 845 10L845 10Q860 32 860 47L860 47Q860 63 797 110L797 110L784 107Q796 72 807 63L807 63Z"/></svg>