<svg id="U23818" viewBox="0 0 1024 1024"><path transform="translate(0, 921.6) scale(1,-1)" d="M242 471L242 471L242 571L371 571L318 641L274 597L242 597L242 745L274 773L192 811Q194 782 194.50 730Q195 678 195 597L195 597L55 597L86 565Q106 569 127.50 570Q149 571 172 571L172 571L192 571Q182 510 169.50 453Q157 396 138 339L138 339Q100 224 45 137L45 137L58 124Q141 225 195 383L195 383Q195 197 194.50 83.50Q194-30 192-75L192-75L248-47Q243-9 242.50 113.50Q242 236 242 452L242 452Q285 387 305 342L305 342Q321 286 336 335L336 335Q354 371 326 408L326 408Q312 420 291 436.50Q270 453 242 471ZM532 779L532 779L465 808Q462 781 454 755.50Q446 730 434 701L434 701Q414 627 377 587L377 587L390 578Q435 623 481 694L481 694L503 694Q519 673 531.50 653.50Q544 634 547 615L547 615Q558 575 582 609L582 609Q605 642 585 656L585 656Q576 663 561 674Q546 685 525 694L525 694L670 694L619 751L585 723L485 723Q509 768 532 779ZM778 701L778 701L922 701L875 758L834 726L737 726Q756 768 781 782L781 782L714 811Q706 789 700.50 761.50Q695 734 683 704L683 704Q671 673 657 646.50Q643 620 629 597L629 597L642 591Q681 620 727 701L727 701L755 701Q793 643 802 615L802 615Q815 587 837 609L837 609Q861 633 837 653L837 653Q816 674 778 701ZM658 62L658 62L938 62L891 121L843 87L658 87L658 304L784 304L784 275L840 298Q837 313 837 338L837 338Q837 363 837 393L837 393L837 480L868 499L812 550L781 524L573 524Q584 531 594.50 539Q605 547 617 553L617 553L648 568L578 603Q562 542 547 524L547 524L465 524L409 540Q410 498 410.50 461.50Q411 425 411 393L411 393Q411 361 410.50 329.50Q410 298 409 272L409 272L465 291L465 304L604 304L604 87L311 87L346 49Q376 62 403 62L403 62L604 62Q604 2 602.50-34Q601-70 601-85L601-85L660-69Q659-62 658.50-30Q658 2 658 62ZM465 424L465 496L784 496L784 424L465 424ZM465 332L465 398L784 398L784 332L465 332ZM390 278L390 278L387 266Q467 236 506 203L506 203Q538 170 544 209L544 209Q551 242 519 257L519 257Q497 261 466 267Q435 273 390 278ZM822 237L822 237L859 237L819 291Q768 251 667 219L667 219L670 206Q712 213 750 219.50Q788 226 822 237ZM670 200L670 200L667 188Q771 147 806 108L806 108Q833 75 843 111L843 111Q856 148 815 168L815 168Q774 185 670 200ZM346 140L346 140L390 90Q402 102 445 124Q488 146 566 178L566 178L563 197Q523 185 491.50 175.50Q460 166 437 162L437 162Q413 157 390 151Q367 145 346 140Z"/></svg>