<svg id="U237FD" viewBox="0 0 1024 1024"><path transform="translate(0, 921.6) scale(1,-1)" d="M163 363L163 502L377 502L377 363L163 363ZM163 527L114 546Q117 514 118 483Q119 452 119 420L119 420Q119 385 118 355Q117 325 114 297L114 297L163 313L163 335L377 335L377 297L430 316Q428 337 428 357L428 357Q428 377 428 398L428 398L428 486L449 514L399 555L377 527L163 527ZM383 622L383 622Q394 608 402 596Q410 584 415 574L415 574Q424 545 440 574L440 574Q456 599 443 637L443 637Q430 665 317 722L317 722L305 713Q327 692 345 674Q363 656 377 640L377 640L122 634Q152 657 178 678Q204 699 225 716L225 716Q249 730 269 741.50Q289 753 310 760L310 760L254 801Q209 741 159 697L159 697Q111 642 70 637L70 637L104 568Q121 586 191.50 597.50Q262 609 383 622ZM248 216L248 216L73 216L108 180Q135 190 179 190L179 190L216 190Q185 81 63-54L63-54L70-64Q200 33 248 146L248 146L248 29L248-95L302-75Q299-57 298.50-33Q298-9 298 16L298 16L298 118Q362 61 392 11L392 11Q418-27 430-5L430-5Q442 16 430 54L430 54Q413 84 298 139L298 139L298 190L456 190L399 253L358 216L298 216L298 281L333 303L245 332Q247 303 247.50 274Q248 245 248 216ZM616 672L616 672Q616 744 647 760L647 760L578 795Q578 744 576.50 701Q575 658 569 618L569 618Q554 535 490 467L490 467L497 461Q530 484 552 505.50Q574 527 585 546L585 546Q594 569 600.50 591.50Q607 614 610 643L610 643Q701 697 723 697L723 697L682 741Q665 706 616 672ZM752 710L752 710L739 710Q724 647 704 622L704 622Q677 589 704 581L704 581Q726 571 745 602L745 602Q750 617 753 642.50Q756 668 752 710ZM827 602L827 602L821 587Q870 538 887 489L887 489Q905 442 922 483L922 483Q941 522 919 546L919 546Q890 574 827 602ZM537 722L537 722L525 722Q512 658 480 625L480 625Q451 595 477 584L477 584Q507 570 525 602L525 602Q534 619 538 648Q542 677 537 722ZM606 599L606 599L597 584Q646 528 660 489L660 489Q664 453 682 479L682 479Q695 506 695 527L695 527Q689 546 606 599ZM510 427L506 458L493 458Q483 416 475 390.50Q467 365 452 353L452 353Q425 326 443 313L443 313Q463 302 487 313L487 313Q510 324 510 401L510 401L893 401L846 316L862 309Q928 395 960 404L960 404L906 458L884 427L510 427ZM676-2L676-2L673-16Q755-44 764-92L764-92Q782-82 797-75.50Q812-69 824-60L824-60Q837-50 849-16L849-16Q853-4 859.50 57.50Q866 119 878 234L878 234L906 253L849 306L824 272L667 272Q667 340 704 350L704 350L626 391Q626 358 623.50 328Q621 298 616 272L616 272L471 272L506 237Q524 244 545.50 245.50Q567 247 594 247L594 247L613 247Q591 111 544 42L544 42Q496-24 402-79L402-79L411-92Q459-72 500.50-47.50Q542-23 575 13L575 13Q610 49 630.50 107.50Q651 166 663 247L663 247L827 247Q815 132 810 71Q805 10 802-2L802-2Q790-24 752-19L752-19Q732-16 713-11.50Q694-7 676-2ZM837 662L837 662Q837 678 838.50 693Q840 708 840 722L840 722Q840 752 858 763L858 763L789 795Q793 653 777 593L777 593Q764 557 742 519.50Q720 482 691 442L691 442L704 432Q757 476 789 530L789 530Q820 575 837 643L837 643Q850 652 864.50 660.50Q879 669 893 678L893 678Q917 689 947 694L947 694L899 741Q894 726 877 707Q860 688 837 662Z"/></svg>