<svg id="U231A6" viewBox="0 0 1024 1024"><path transform="translate(0, 921.6) scale(1,-1)" d="M108 387L108 631L277 631L277 387L108 387ZM108 106L108 358L277 358L277 106L108 106ZM56-3L56-3L108 26L108 80L277 80L277 19L332 54Q329 102 329 240L329 240Q329 378 329 614L329 614L357 643L306 694L274 656L111 656L56 688Q58 621 58 532L58 532Q58 444 58 333L58 333Q58 218 58 136L58 136Q58 54 56-3ZM600 669L600 669L600 593L470 593L505 676L533 691L450 733Q447 699 440 660Q433 621 425 579L425 579Q415 541 399 499.50Q383 458 364 416L364 416L374 410Q400 440 421.50 480Q443 520 463 566L463 566L600 566L600 387L335 387L370 352Q387 354 404.50 356Q422 358 444 358L444 358L553 358Q474 137 297-20L297-20L309-33Q411 37 481.50 125.50Q552 214 600 323L600 323L600 77Q600 23 597.50-17.50Q595-58 595-100L595-100L652-72Q649-49 648.50-19Q648 11 648 54L648 54L648 358L671 358Q689 238 748 141L748 141Q806 39 847-3L847-3Q876 35 927 35L927 35L927 52Q853 70 786 164L786 164Q722 244 687 358L687 358L924 358L860 435L806 387L648 387L648 566L866 566L793 646L745 593L648 593L648 743L681 768L595 806Q595 774 597.50 739Q600 704 600 669Z"/></svg>