<svg id="U23500" viewBox="0 0 1024 1024"><path transform="translate(0, 921.6) scale(1,-1)" d="M279 422L279 422Q331 354 354 306L354 306Q382 246 398 293L398 293Q421 337 388 368L388 368Q371 385 343.50 403Q316 421 279 444L279 444L279 545L423 545L357 617L316 570L279 570L279 743L316 771L222 807Q226 741 227 682.50Q228 624 228 570L228 570L78 570L112 538Q147 545 181 545L181 545L218 545Q179 294 66 116L66 116L78 104Q180 222 228 355L228 355Q228 220 227 112.50Q226 5 222-80L222-80L282-55Q279-20 279 99L279 99Q279 218 279 422ZM660 640L697 602Q734 611 763 611L763 611L763 501L817 522Q814 543 814 566L814 566Q814 590 814 611L814 611L958 611L896 687L845 640L814 640L814 733L851 759L760 800Q760 767 761.50 726Q763 685 763 640L763 640L660 640ZM656 617L606 681L559 640L559 740L590 766L505 803Q505 768 506.50 726.50Q508 685 508 640L508 640L369 640L408 604Q423 606 440.50 608.50Q458 611 480 611L480 611L508 611Q508 573 506.50 542.50Q505 512 505 488L505 488L559 510L559 617L656 617ZM454 355L442 355Q418 225 376 183L376 183Q338 142 364 132L364 132Q387 121 413 136L413 136Q448 147 452 183L452 183Q464 222 454 355L454 355ZM511 19L511 19Q506-72 583-58L583-58L801-58Q855-63 899-1L899-1Q854 9 845 63L845 63Q840 89 837.50 120.50Q835 152 835 188L835 188L817 188Q817 70 804 28L804 28Q799-14 763-14L763-14L599-14Q562-17 562 60L562 60L562 355L590 372L508 416Q508 380 509.50 281.50Q511 183 511 19ZM596 485L587 473Q624 424 647 384.50Q670 345 678 314L678 314Q691 266 706 271L706 271Q725 275 735 312L735 312Q744 341 716 384L716 384Q699 400 670 424.50Q641 449 596 485L596 485ZM829 372L817 359Q871 268 883 201L883 201Q896 141 917 145L917 145Q933 145 950 183L950 183Q957 222 937 258L937 258Q924 274 896.50 302Q869 330 829 372L829 372Z"/></svg>