<svg id="U231D4" viewBox="0 0 1024 1024"><path transform="translate(0, 921.6) scale(1,-1)" d="M106 398L106 648L276 648L276 398L106 398ZM106 124L106 373L276 373L276 124L106 124ZM54 11L54 11L106 40L106 97L276 97L276 34L327 66Q324 117 324 256L324 256Q324 395 324 633L324 633L356 658L302 709L272 674L109 674L54 706Q59 636 59.50 547.50Q60 459 60 350L60 350Q60 236 59.50 151Q59 66 54 11ZM653 2L653 2L653 53L929 53L868 130L816 79L653 79L653 184L865 184L807 258L763 213L653 213L653 300L881 300L820 370L775 328L653 328L653 367L679 392L599 430Q599 401 600.50 375Q602 349 602 328L602 328L375 328L407 293Q429 297 447.50 298.50Q466 300 480 300L480 300L602 300L602 213L420 213L455 178Q494 184 525 184L525 184L602 184L602 79L337 79L372 44Q389 46 406 49.50Q423 53 442 53L442 53L602 53L602 2Q602-23 600.50-47.50Q599-72 599-99L599-99L657-76Q654-52 653.50-32.50Q653-13 653 2ZM510 664L510 664L519 671L771 671Q742 636 708 601Q674 566 631 533L631 533Q561 587 510 664ZM801 728L771 696L532 696Q551 724 567.50 740.50Q584 757 596 766L596 766L525 804Q507 735 462 671L462 671Q427 609 359 553L359 553L372 539Q445 587 493 645L493 645Q510 608 535 574.50Q560 541 593 508L593 508Q533 463 468.50 431Q404 399 337 376L337 376L340 360Q503 394 631 475L631 475Q664 453 695 433.50Q726 414 756 402L756 402Q812 373 855 373L855 373Q862 406 916 421L916 421L916 437Q868 431 807 446L807 446Q736 457 673 508L673 508Q718 543 749 570.50Q780 598 798 616L798 616Q828 646 868 664L868 664L801 728Z"/></svg>