<svg id="U23056" viewBox="0 0 1024 1024"><path transform="translate(0, 921.6) scale(1,-1)" d="M155 410L155 513L398 513L398 410L155 410ZM155 282L155 382L398 382L398 282L155 282ZM101 205L101 205L155 225L155 257L252 257L252 135L39 135L74 100Q91 104 109.50 105Q128 106 142 106L142 106L252 106Q252 60 249 13.50Q246-33 242-90L242-90L303-64Q300-40 300 3L300 3Q300 46 300 106L300 106L529 106L466 183L418 135L300 135L300 257L398 257L398 218L453 237Q450 275 450 309L450 309Q450 343 450 375L450 375L450 513L475 538L421 580L395 538L300 538L300 634L508 634L440 711L395 663L300 663L300 756L338 781L242 816Q252 766 252 663L252 663L55 663L85 628Q103 630 121 632Q139 634 159 634L159 634L252 634L252 538L155 538L101 573Q103 531 103.50 486.50Q104 442 104 397L104 397Q104 352 103.50 304Q103 256 101 205ZM574 816L574 816L564 807Q636 721 644 666L644 666Q654 604 693 650L693 650Q737 694 686 736L686 736Q664 758 636 777.50Q608 797 574 816ZM821 599L460 599L494 561L536 573Q548 458 573 366Q598 274 632 202L632 202Q548 58 380-71L380-71L389-84Q539-5 664 157L664 157Q692 112 717.50 79.50Q743 47 769 23L769 23Q823-31 872-64L872-64Q887-24 945-20L945-20L945-4Q883 9 824 59L824 59Q755 110 693 195L693 195Q781 340 821 573L821 573L920 573L862 650L821 599ZM564 573L564 573L764 573Q756 527 748 483.50Q740 440 728 397L728 397Q714 352 697.50 314.50Q681 277 664 244L664 244Q597 365 564 573Z"/></svg>