<svg id="U2400D" viewBox="0 0 1024 1024"><path transform="translate(0, 921.6) scale(1,-1)" d="M145 756L142 746Q199 688 218 648L218 648Q236 602 256 636L256 636Q269 664 256 692L256 692Q237 715 145 756L145 756ZM81 558L75 545Q126 491 145 447L145 447Q161 412 180 425L180 425Q200 444 196 481L196 481Q187 509 81 558L81 558ZM75 201L75 201L75 186Q158 160 158 129L158 129Q158 109 153.50 85.50Q149 62 145 31L145 31Q136-31 171-49L171-49Q214-67 208 16L208 16Q205 61 205 92L205 92Q205 123 205 145L205 145Q207 163 210.50 185Q214 207 221 227L221 227Q225 247 245.50 338Q266 429 300 586L300 586L281 592Q183 217 164 205L164 205Q137 188 75 201ZM382 648L382 687L366 687Q361 650 354.50 626.50Q348 603 341 592L341 592Q331 577 322.50 565.50Q314 554 305 545L305 545Q292 523 318 520L318 520Q349 510 362 532L362 532Q382 552 382 620L382 620L590 620Q590 554 588 508.50Q586 463 586 447L586 447L643 463Q638 481 637.50 521.50Q637 562 637 620L637 620L863 620L839 551L847 545Q881 587 904 602L904 602Q924 617 948 623L948 623L891 681L860 648L637 648L637 737L860 737L791 807L753 766L379 766L416 728Q432 731 455.50 732.50Q479 734 511 737L511 737L590 737L590 648L382 648ZM549 535L385 535L385 507L549 507L549 535ZM549 428L379 428L379 403L549 403L549 428ZM857 535L683 535L683 507L857 507L857 535ZM860 428L683 428L683 403L860 403L860 428ZM631 381L649 388L593 438Q581 414 555.50 387.50Q530 361 498 331L498 331Q423 271 287 224L287 224L294 208Q493 247 614 365L614 365Q671 304 747 262L747 262Q787 240 820 224Q853 208 883 201L883 201Q895 241 945 249L945 249L945 265Q884 265 794 290L794 290Q752 304 711 326Q670 348 631 381L631 381ZM665 249L665 249L614 299Q540 206 375 148L375 148L379 132Q502 158 580 205L580 205Q620 230 642.50 239.50Q665 249 665 249ZM750 164L750 164L696 214Q660 170 577 129L577 129Q535 106 487 85Q439 64 382 47L382 47L385 31Q528 55 627 110L627 110Q735 164 750 164ZM863 79L863 79L806 139Q767 96 618 28L618 28Q459-34 303-62L303-62L303-80Q403-70 492-49Q581-28 665 0L665 0Q747 35 796.50 54Q846 73 863 79Z"/></svg>