<svg id="U24F6B" viewBox="0 0 1024 1024"><path transform="translate(0, 921.6) scale(1,-1)" d="M803 545L803 658L832 684L774 742L745 710L451 710Q461 718 476 732.50Q491 747 510 771L510 771L535 790L468 832Q465 799 454 770Q443 741 429 710L429 710L287 710L229 736Q231 704 231.50 663.50Q232 623 232 574L232 574Q232 523 231.50 483Q231 443 229 407L229 407L287 423L287 459L748 459L748 407L806 439Q803 465 803 490L803 490Q803 516 803 545L803 545ZM287 600L287 681L748 681L748 600L287 600ZM287 484L287 574L748 574L748 484L287 484ZM967 181L967 181L967 194Q910 194 861 205.50Q812 217 767 239L767 239Q674 281 613 342L613 342L942 342L871 420L816 368L468 368L490 387L514 403L445 455Q450 431 403 368L403 368L102 368L135 332Q152 335 171 337Q190 339 209 342L209 342L384 342Q312 279 232.50 231.50Q153 184 57 155L57 155L60 136Q323 193 451 342L451 342L590 342Q630 286 665.50 248.50Q701 211 735 187L735 187Q771 164 809 148Q847 132 893 120L893 120Q908 171 967 181ZM767 178L706 242L661 203L232 203L258 165Q306 178 377 178L377 178L767 178ZM809-30L493-30L113-30L145-69Q175-56 274-56L274-56L935-56L864 23L809-30ZM693 136L645 94L258 94L287 55Q323 65 406 65L406 65L761 65L693 136Z"/></svg>