<svg id="U24217" viewBox="0 0 1024 1024"><path transform="translate(0, 921.6) scale(1,-1)" d="M306 626L798 626L798 551L142 551L181 513Q211 525 265 525L265 525L798 525L798 487L857 510Q854 537 854 563L854 563Q854 590 854 616L854 616L854 721L889 742L823 793L791 755L148 755L183 717Q202 722 222 723Q242 724 268 727L268 727L798 727L798 654L183 654L222 616Q255 626 306 626L306 626ZM287 314L798 314L798 226L142 226L181 188Q212 197 265 197L265 197L798 197L798 173L857 197Q854 224 854 249L854 249Q854 274 854 299L854 299L854 405L883 428L829 484L785 446L148 446L183 408Q202 413 222 417Q242 421 268 421L268 421L798 421L798 343L168 343L202 305Q244 314 287 314L287 314ZM212 138L212 138L193 138Q155 31 106-12L106-12Q61-57 85-62L85-62Q107-71 133-62L133-62Q164-58 178-24L178-24Q191 4 212 138ZM344 144L344 144L332 138Q391 30 400-24L400-24Q411-85 441-50L441-50Q469-8 451 24L451 24Q435 70 344 144ZM558 141L558 141L549 132Q608 48 628-15L628-15Q645-72 678-37L678-37Q705 7 678 43L678 43Q661 60 632 84.50Q603 109 558 141ZM791 150L791 150L778 138Q863 40 883-18L883-18Q905-82 936-37L936-37Q963 12 927 53L927 53Q905 71 872 96Q839 121 791 150Z"/></svg>