<svg id="U248C7" viewBox="0 0 1024 1024"><path transform="translate(0, 921.6) scale(1,-1)" d="M621 656L621 656L649 656L649 688L621 688L621 745L639 761L580 786L580 688L513 688L513 748L533 764L470 789Q474 760 475 734.50Q476 709 476 688L476 688L441 688L382 688L407 647Q438 656 461 656L461 656L470 656L476 656Q476 618 475 584.50Q474 551 470 527L470 527L513 537L513 559L580 559L580 527L624 550Q621 577 621 605L621 605Q621 633 621 656ZM580 656L580 591L513 591L513 656L580 656ZM435 489L435 521L420 521Q413 430 382 411L382 411Q345 386 350 367L350 367Q351 361 372 348L372 348Q391 348 416 367L416 367Q434 397 438 458L438 458L891 458L863 383L873 380Q887 403 901 416.50Q915 430 927 439L927 439Q938 443 946 451Q954 459 961 465L961 465L914 518L888 489L435 489ZM457 319L457 237L501 247L501 363L631 363Q631 312 627.50 278Q624 244 624 229L624 229L680 250Q678 273 678 301L678 301Q678 330 678 363L678 363L809 363L809 298Q809 270 788 270L788 270Q773 270 756 270.50Q739 271 719 278L719 278L719 266Q784 252 794 222L794 222Q854 235 854 285L854 285L854 367L883 380L829 411L809 393L678 393L678 471L631 471L631 393L505 393L457 401L457 319ZM719 105L719 105Q737 139 716 165L716 165Q696 187 614 231L614 231L605 219Q669 155 680 115L680 115Q698 75 719 105ZM479 185L479 185L464 188Q449 143 431.50 109Q414 75 388 52L388 52Q361 32 366.50 19.50Q372 7 403 5L403 5Q474-3 479 185ZM577 159L602 178L526 219L526 14Q526-44 580-44L580-44L785-44Q840-40 854 8L854 8Q805 18 816 128L816 128L798 128Q792 3 757 8L757 8L598 8Q577 12 577 33L577 33L577 159ZM935 55L935 55Q959 122 809 190L809 190L801 185Q885 95 901 46L901 46Q916-13 935 55ZM845 656L845 656L895 656L935 656L888 726L854 688L845 688L845 732L863 754L798 786Q798 760 799.50 734.50Q801 709 801 688L801 688L734 688L734 748L753 764L690 789Q690 760 691.50 734.50Q693 709 693 688L693 688L643 688L649 688L649 656L693 656L693 660Q693 618 691.50 584.50Q690 551 690 527L690 527L734 537L734 559L801 559L801 527L847 550Q845 577 845 605L845 605Q845 633 845 656ZM801 656L801 591L734 591L734 656L801 656ZM120 773L120 773L116 764Q195 679 224 619L224 619Q193 576 155.50 539.50Q118 503 78 471L78 471L88 445Q175 500 246 581L246 581Q251 560 257 533Q263 506 268 474L268 474Q189 284 62 152L62 152L72 134Q208 243 284 396L284 396Q293 193 281 108L281 108Q264 15 233 8L233 8Q195 0 120 14L120 14L120-3Q212-29 221-82L221-82Q279-58 309 11L309 11Q323 43 331.50 111Q340 179 338 282L338 282Q338 382 323.50 462.50Q309 543 284 612L284 612Q303 636 325.50 666Q348 696 372 732L372 732L407 751L346 808Q321 730 265 653L265 653Q239 686 203.50 717.50Q168 749 120 773Z"/></svg>