<svg id="U24CB8" viewBox="0 0 1024 1024"><path transform="translate(0, 921.6) scale(1,-1)" d="M309 827L305 817Q344 774 367 724L367 724Q374 695 384.50 691.50Q395 688 408 711L408 711Q443 749 408 772L408 772Q397 781 372 794.50Q347 808 309 827L309 827ZM689 766L689 766L724 778L650 827Q638 795 620 760.50Q602 726 576 688L576 688L599 688Q620 705 642.50 722.50Q665 740 689 766ZM812 540L812 540L847 546L786 601Q770 583 756.50 569Q743 555 731 543L731 543L573 543Q621 569 656 588.50Q691 608 708 620L708 620L737 627L695 662L954 662L889 733L831 688L69 688L104 653Q146 662 186 662L186 662L300 662Q276 638 251 618Q226 598 199 582L199 582Q148 546 115 546L115 546L141 485Q162 489 201 495.50Q240 502 300 508L300 508Q269 490 244.50 474Q220 458 199 446L199 446Q179 434 156 425.50Q133 417 112 411L112 411L141 350Q160 362 232.50 376.50Q305 391 431 408L431 408Q433 392 437.50 379.50Q442 367 447 356L447 356Q451 331 476 356L476 356Q504 378 492 411L492 411Q484 428 405 491L405 491L392 485Q401 467 409 454.50Q417 442 425 430L425 430L196 411Q277 451 331 483Q385 515 415 540L415 540L460 549L405 601Q393 589 377.50 574Q362 559 338 540L338 540L173 540Q230 571 271 593Q312 615 334 630L334 630L373 633L334 662L673 662Q636 613 592 585L592 585Q538 546 509 546L509 546L537 488Q558 497 602 505.50Q646 514 715 524L715 524Q683 498 657.50 478.50Q632 459 612 446L612 446Q568 414 525 414L525 414L557 352Q598 378 818 408L818 408Q818 390 822 377.50Q826 365 831 356L831 356Q841 339 866 369L866 369Q892 393 866 424L866 424Q853 439 835.50 455Q818 471 789 488L789 488L783 482Q793 463 800 449.50Q807 436 812 427L812 427L599 414Q681 457 733 488.50Q785 520 812 540ZM534-8L534 124L773 124L773-8L534-8ZM831 75L831 253L866 282L805 333L770 301L241 301L176 330Q178 278 178.50 221.50Q179 165 179 104L179 104Q179 38 178.50-10.50Q178-59 176-103L176-103L238-84L238-32L773-32L773-94L834-71Q831-38 831-3L831-3Q831 31 831 75L831 75ZM238 150L238 272L473 272L473 150L238 150ZM534 150L534 272L773 272L773 150L534 150ZM238-8L238 124L473 124L473-8L238-8Z"/></svg>