<svg id="U24E6D" viewBox="0 0 1024 1024"><path transform="translate(0, 921.6) scale(1,-1)" d="M241 397L241 397Q178 358 132.50 330.50Q87 303 53 291L53 291L104 233Q133 286 241 371L241 371Q234 114 88-65L88-65L98-75Q149-23 186 25Q223 73 248 133L248 133Q293 247 293 397L293 397L293 665L964 665L893 739L832 691L293 691L235 726Q239 684 240 604Q241 524 241 397ZM506 826L506 826L502 813Q529 787 548.50 763.50Q568 740 580 716L580 716Q595 664 617 713L617 713Q639 752 612 775L612 775Q604 784 577.50 797Q551 810 506 826ZM92 616L92 616L79 610Q125 540 131 478L131 478Q145 416 173 465L173 465Q203 505 173 539L173 539Q144 578 92 616ZM593 552L593 391L544 371L544 565L428 565Q407 565 390 561Q373 557 354 555L354 555L322 591L548 591L573 616L622 571L593 552ZM370 555L370 555L364 549Q388 519 405 496.50Q422 474 425 465L425 465Q437 432 454 449L454 449Q480 458 480 487L480 487Q484 508 370 555ZM822 591L641 591L673 555Q692 557 710 561Q728 565 747 565L747 565L822 565L822 349L873 362Q870 378 870 446L870 446L870 555L899 575L851 620L822 591ZM661 555L661 555L651 549Q675 525 689 505Q703 485 709 471L709 471Q726 444 738 455L738 455Q751 468 751 490L751 490Q751 511 661 555ZM315 378L315 378L360 326Q375 341 394 353Q413 365 435 381L435 381Q459 393 480 407Q501 421 525 433L525 433L515 446Q440 416 391 398Q342 380 315 378ZM654 400L654 400L689 362Q697 371 725.50 392.50Q754 414 802 449L802 449L793 465Q739 435 703.50 417.50Q668 400 654 400ZM702 162L693 150Q721 125 745.50 104Q770 83 789 59L789 59Q810 36 825 18.50Q840 1 847-7L847-7Q864-29 883-4L883-4Q894 25 867 62L867 62Q852 83 811.50 106.50Q771 130 702 162L702 162ZM593 220L593 220L593-4Q593-20 564-20L564-20Q523-20 483-10L483-10L483-27Q558-40 583-85L583-85Q638-70 644-10L644-10L644 217L670 239L589 275Q589 257 591 245Q593 233 593 220ZM512 123L512 123L541 142L483 191Q469 158 450.50 129.50Q432 101 409 75L409 75Q382 45 359 22.50Q336 0 315-17L315-17L325-23Q355-8 381 7Q407 22 428 42L428 42Q452 64 471.50 83.50Q491 103 512 123ZM661 375L661 375L606 413Q555 330 480 278L480 278Q439 249 391 225Q343 201 286 181L286 181L290 159Q346 170 393 188Q440 206 480 229L480 229Q563 276 625 349L625 349Q723 210 909 162L909 162Q909 222 970 217L970 217L970 229Q932 229 890.50 237Q849 245 802 259L802 259Q752 277 712.50 301.50Q673 326 641 359L641 359Q637 359 661 375Z"/></svg>