<svg id="U24DD2" viewBox="0 0 1024 1024"><path transform="translate(0, 921.6) scale(1,-1)" d="M266 361L266 361Q137 285 74 270L74 270L124 212Q157 267 266 341L266 341Q253 203 209.50 100.50Q166-2 90-69L90-69L97-82Q213 7 266 122L266 122Q291 178 301.50 235.50Q312 293 317 354L317 354Q320 412 320.50 486Q321 560 321 648L321 648L950 648L885 719L830 673L601 673Q638 708 611 744L611 744Q601 761 576.50 781Q552 801 517 825L517 825L508 815Q524 790 536 769.50Q548 749 556 735L556 735Q563 717 566 701Q569 685 572 673L572 673L321 673L263 712Q265 665 265.50 577.50Q266 490 266 361ZM114 609L114 609L108 596Q125 566 136 540.50Q147 515 150 486L150 486Q164 427 188 457L188 457Q217 486 198 525L198 525Q178 558 114 609ZM866 399L866 532L898 554L846 615L811 577L453 577L401 609Q404 560 404.50 516.50Q405 473 405 435L405 435Q405 393 404.50 353Q404 313 401 267L401 267L453 287L453 296L811 296L811 274L869 293Q866 322 866 348L866 348Q866 375 866 399L866 399ZM453 457L453 551L608 551L608 457L453 457ZM662 457L662 551L811 551L811 457L662 457ZM453 325L453 432L608 432L608 325L453 325ZM662 325L662 432L811 432L811 325L662 325ZM885 196L840 151L662 151L662 222L688 251L608 290Q608 251 609.50 217Q611 183 611 151L611 151L421 151Q451 202 488 234L488 234L427 287Q373 123 272 32L272 32L282 19Q355 63 405 122L405 122L611 122Q611 80 609.50 29Q608-22 608-86L608-86L666-63Q663-17 662.50 28Q662 73 662 122L662 122L950 122L885 196Z"/></svg>