<svg id="U24458" viewBox="0 0 1024 1024"><path transform="translate(0, 921.6) scale(1,-1)" d="M594 592L594 592L418 592L456 555Q486 566 541 566L541 566L575 566Q563 550 545 533.50Q527 517 510 501L510 501Q485 481 462.50 464Q440 447 415 432L415 432L424 419Q457 438 487 453Q517 468 541 485L541 485Q550 468 560 453.50Q570 439 575 428L575 428Q590 406 600 413L600 413Q606 414 619 435L619 435Q619 457 610 466L610 466Q606 469 594 478Q582 487 562 501L562 501Q594 518 629 566L629 566L717 566Q725 550 745.50 532.50Q766 515 793 494L793 494Q813 475 838.50 460.50Q864 446 890 435L890 435Q907 476 960 476L960 476L960 491Q914 493 881.50 502Q849 511 824 522L824 522Q801 532 781.50 543Q762 554 745 566L745 566L950 566L881 636L843 592L644 592Q649 610 654.50 627.50Q660 645 663 661L663 661L893 661L824 728L786 687L739 687Q743 692 757 706Q771 720 796 743L796 743L818 756L758 787Q748 756 736.50 731.50Q725 707 717 687L717 687L667 687Q669 707 673 724.50Q677 742 680 759L680 759L704 774L626 807Q626 780 624.50 750Q623 720 619 687L619 687L565 687Q597 719 572 740L572 740Q557 752 537.50 758.50Q518 765 490 774L490 774L487 762Q501 747 511.50 738.50Q522 730 528 725L528 725Q537 717 541 707.50Q545 698 550 687L550 687L433 687L471 648Q498 661 554 661L554 661L610 661Q610 634 594 592ZM647 384L647 384L647 331Q647 312 626 312L626 312Q614 312 597 312L597 312Q580 312 559 314L559 314L559 299Q592 293 603 286L603 286Q613 278 620 268.50Q627 259 632 249L632 249Q666 256 680 274L680 274Q691 291 691 314L691 314L691 391Q742 364 774 344.50Q806 325 824 309L824 309Q856 274 865 286L865 286Q871 293 871 321L871 321Q871 344 818 368L818 368Q792 375 766 384.50Q740 394 717 403L717 403Q752 415 779 423.50Q806 432 824 435L824 435L780 491Q771 472 691 413L691 413L691 488L720 504L644 535Q644 516 645.50 483.50Q647 451 647 403L647 403Q619 394 591.50 387.50Q564 381 544 375L544 375Q517 369 494 363.50Q471 358 456 355L456 355L490 299L513 321Q528 333 562 347.50Q596 362 647 384ZM245 327L245 327L245 312Q267 305 281 299.50Q295 294 302 290L302 290Q317 285 317 255L317 255Q360 259 377 280L377 280Q399 298 399 350L399 350L399 705L428 728L374 778L343 746L225 746L172 769Q175 745 175.50 709.50Q176 674 176 623L176 623L176 485Q176 436 159 391L159 391Q150 364 128 328.50Q106 293 63 242L63 242L70 233Q112 266 141 294.50Q170 323 184 353L184 353Q220 401 225 473L225 473L351 473L351 350Q351 321 326 321L326 321Q311 321 290.50 321.50Q270 322 245 327ZM225 617L225 722L351 722L351 617L225 617ZM225 501L225 589L351 589L351 501L225 501ZM289 224L273 229Q245 163 194 132L194 132Q151 98 172 82L172 82Q197 64 222 82L222 82Q246 89 269 132L269 132Q276 150 279.50 172Q283 194 289 224L289 224ZM67-58L67-58L67-74Q236-68 354-11L354-11Q476 51 510 195L510 195Q600-20 875-80L875-80Q875-51 960-33L960-33L960-17Q849-14 759 13.50Q669 41 600 104L600 104Q624 120 650 134.50Q676 149 704 164L704 164Q730 176 752 186Q774 196 796 201L796 201L726 252Q698 199 588 116L588 116Q526 180 513 242L513 242L544 268L452 293Q457 219 430 142L430 142Q402 63 320 16L320 16Q248-28 67-58Z"/></svg>