<svg id="U2494C" viewBox="0 0 1024 1024"><path transform="translate(0, 921.6) scale(1,-1)" d="M658-72L658-72L714-57Q711 0 711 34L711 34Q711 69 711 87L711 87L711 660L830 660L752 427Q831 322 846 260L846 260Q857 204 840 175L840 175Q830 141 724 156L724 156L724 140Q792 135 809 64L809 64Q829 76 848.50 93Q868 110 878 134L878 134Q897 162 897 219L897 219Q897 263 868 316L868 316Q854 343 828.50 371Q803 399 771 433L771 433Q873 653 912 669L912 669L859 726L827 685L711 685L658 723Q658 642 659 543.50Q660 445 660 319L660 319Q660 195 659 97.50Q658 0 658-72ZM406 411L406 411Q454 379 469 339L469 339Q486 300 500 339L500 339Q507 366 497 396L497 396Q484 407 421 430L421 430Q430 462 441 496Q452 530 462 568L462 568L563 568Q526 172 283-54L283-54L289-72Q565 130 617 563L617 563L652 587L594 635L563 594L465 594Q477 645 485 678Q493 711 503 732L503 732L537 751L450 798Q438 717 424.50 644.50Q411 572 393 506L393 506Q373 437 356.50 383Q340 329 324 291L324 291L333 278Q354 307 372.50 338Q391 369 406 411ZM368 206L245 156L245 408L368 408L315 474L274 433L245 433L245 672L383 672L330 745L283 701L74 701L103 666Q121 668 139 670Q157 672 176 672L176 672L195 672L195 433L83 433L116 398Q132 400 149 404Q166 408 188 408L188 408L195 408L195 144Q175 132 142 118Q109 104 71 96L71 96L110 26Q110 59 371 193L371 193L368 206Z"/></svg>