<svg id="U24A39" viewBox="0 0 1024 1024"><path transform="translate(0, 921.6) scale(1,-1)" d="M379 218L253 167L253 406L391 406L341 473L297 432L253 432L253 664L391 664L335 730L287 692L65 692L100 658Q116 660 131.50 660.50Q147 661 164 664L164 664L199 664L199 432L75 432L106 400Q122 406 180 406L180 406L199 406L199 151Q151 118 65 98L65 98L112 31Q113 58 382 205L382 205L379 218ZM441 643L441 681L431 681Q413 608 385 586L385 586Q359 554 362 542L362 542Q373 522 394 522L394 522Q415 522 429 548L429 548Q441 570 441 617L441 617L631 617Q631 529 629 475.50Q627 422 627 406L627 406L687 428Q684 444 683.50 490Q683 536 683 617L683 617L876 617L845 555L857 548Q873 568 887 582Q901 596 914 604L914 604Q929 617 958 623L958 623L904 681L870 643L683 643L683 730L895 730L835 797L781 756L423 756L457 722Q477 724 496.50 727Q516 730 536 730L536 730L631 730L631 643L441 643ZM590 535L467 535L467 507L590 507L590 535ZM590 447L467 447L467 422L590 422L590 447ZM850 535L724 535L724 507L850 507L850 535ZM847 447L724 447L724 422L847 422L847 447ZM501 6L501 6L501-5Q524-7 540.50-12.50Q557-18 567-23L567-23Q587-37 596-70L596-70Q687-46 687 34L687 34L687 195L942 195L886 265L839 224L687 224L687 340L901 340L845 403L791 365L416 365L451 331Q467 333 487 336.50Q507 340 533 340L533 340L634 340L634 224L379 224L413 188Q433 192 450.50 193.50Q468 195 485 195L485 195L634 195L634 44Q634 5 605 0L605 0Q577 0 501 6Z"/></svg>