<svg id="U24E8C" viewBox="0 0 1024 1024"><path transform="translate(0, 921.6) scale(1,-1)" d="M258 371L258 371Q195 331 146.50 308.50Q98 286 66 278L66 278L116 216Q149 268 258 348L258 348Q232 74 82-66L82-66L89-79Q151-25 193 26Q235 77 258 129L258 129Q279 183 291.50 239Q304 295 306 358L306 358Q309 415 311 489.50Q313 564 313 651L313 651L951 651L880 726L832 677L613 677Q647 718 622 748L622 748Q610 765 582 782.50Q554 800 514 822L514 822L503 806Q527 784 541.50 768Q556 752 564 735L564 735Q577 707 584 677L584 677L313 677L255 716Q258 669 258 583L258 583Q258 498 258 371ZM108 613L108 613L102 603Q116 573 127.50 546Q139 519 142 490L142 490Q151 426 180 464L180 464Q210 493 187 529L187 529Q179 545 158 565.50Q137 586 108 613ZM593 545L619 564L577 613L548 587L345 587L380 551Q418 558 455 558L455 558L542 558Q500 463 445 393L445 393Q421 359 386.50 332Q352 305 316 281L316 281L322 271Q367 288 404 312Q441 336 468 368L468 368Q496 397 526 440.50Q556 484 593 545L593 545ZM345 513L345 513L339 506Q396 452 406 429L406 429Q425 402 442 429L442 429Q461 463 439 477L439 477Q427 488 404 497Q381 506 345 513ZM655 645L655 645L638 638Q650 577 670.50 525Q691 473 722 429L722 429Q749 391 789 358Q829 325 884 297L884 297Q901 332 958 332L958 332L958 348Q865 357 787 426L787 426Q841 454 874.50 465.50Q908 477 925 477L925 477L880 526Q863 508 837 485Q811 462 774 438L774 438Q751 458 736.50 477Q722 496 716 516L716 516Q776 546 814.50 561.50Q853 577 871 577L871 577L822 629Q800 594 703 532L703 532Q685 558 673.50 586.50Q662 615 655 645ZM422 93L422 93L477 110L477 132L764 132L764 106L819 126Q816 139 816 245L816 245L842 268L787 313L761 281L477 281L422 306Q425 274 425.50 247.50Q426 221 426 197L426 197Q426 177 425.50 149.50Q425 122 422 93ZM480 158L480 255L764 255L764 158L480 158ZM793 74L732 119Q721 87 703.50 51.50Q686 16 661-24L661-24L301-24L335-59Q352-56 368.50-53Q385-50 406-50L406-50L951-50L893 13L845-24L685-24Q768 69 793 74L793 74ZM461 100L461 100L455 93Q473 64 486.50 43Q500 22 503 0L503 0Q515-33 542-8L542-8Q573 22 545 48L545 48Q530 57 510 71Q490 85 461 100ZM667 377L484 377L516 345Q532 350 549 351Q566 352 584 352L584 352L777 352L713 416L667 377Z"/></svg>