<svg id="U24005" viewBox="0 0 1024 1024"><path transform="translate(0, 921.6) scale(1,-1)" d="M139 784L136 771Q193 714 212 674L212 674Q232 620 253 661L253 661Q276 693 253 722L253 722Q243 730 215 747.50Q187 765 139 784L139 784ZM75 576L68 566Q97 536 113.50 510Q130 484 139 466L139 466Q155 424 177 440L177 440Q198 462 192 497L192 497Q188 529 75 576L75 576ZM68 205L68 205L68 188Q151 170 151 129L151 129Q151 107 147 81.50Q143 56 139 25L139 25Q128-35 171-55L171-55Q189-66 199-49.50Q209-33 202 10L202 10Q199 58 199 91L199 91Q199 125 199 145L199 145Q201 164 204.50 186Q208 208 215 233L215 233Q221 254 242 346Q263 438 297 607L297 607L281 614Q185 225 161 214L161 214Q134 194 68 205ZM385 583L385 692L476 692L476 583L385 583ZM388 722L335 749Q337 729 337.50 698.50Q338 668 338 630L338 630Q338 588 337.50 563Q337 538 335 520L335 520L385 535L385 555L476 555L476 526L530 548Q526 561 526 689L526 689L549 712L505 749L476 722L388 722ZM744 722L696 746Q696 729 698 703.50Q700 678 700 646L700 646Q700 610 698 579Q696 548 696 520L696 520L744 535L744 555L850 555L850 532L898 548Q895 560 895 578L895 578Q895 596 895 617L895 617L895 689L917 712L863 749L845 722L744 722ZM744 583L744 692L850 692L850 583L744 583ZM665 781L583 810L583 494L277 494L315 457Q345 469 407 469L407 469L952 469L883 535L845 494L637 494L637 746L665 781ZM495 221L806 221L740 286L703 245L375 245L413 208Q440 221 495 221L495 221ZM426-8L426 107L794 107L794-8L426-8ZM850 98L879 126L816 170L788 132L426 132L372 157L372-83L426-67L426-33L794-33L794-74L850-55L850 98ZM598 469L598 469L662 432L627 413Q774 302 955 293L955 293L955 280Q896 256 891 227L891 227Q762 260 608 394L608 394Q566 360 529.50 334.50Q493 309 451 293L451 293Q370 249 256 227L256 227L253 242Q347 274 454 340L454 340Q551 395 598 469Z"/></svg>