<svg id="U242B5" viewBox="0 0 1024 1024"><path transform="translate(0, 921.6) scale(1,-1)" d="M708-88L708-88L761-57L761 178Q846 156 846 96L846 96Q922 133 922 226L922 226L922 688L953 717L899 767L868 726L764 726L708 758Q708 720 709.50 624.50Q711 529 711 370L711 370Q711 211 709.50 96.50Q708-18 708-88ZM761 203L761 701L871 701L871 250Q871 193 855 193L855 193Q838 187 761 203L761 203ZM282 767L204 814Q206 706 206.50 616.50Q207 527 207 452L207 452Q207 302 179 175L179 175Q147 43 70-75L70-75L83-85Q204 28 241 231L241 231Q266 189 281.50 158.50Q297 128 302 108L302 108Q311 71 320 80L320 80Q335 88 339 118L339 118Q348 156 323 181L323 181Q308 192 289 209.50Q270 227 245 250L245 250Q257 382 257 474L257 474Q312 526 336 550Q360 574 377 581L377 581L323 628Q309 568 257 502L257 502L257 741L282 767ZM96 587L96 587L86 581Q126 477 131 437L131 437Q142 396 150 396L150 396Q164 396 181 417L181 417Q194 444 181 471L181 471Q172 484 151.50 513Q131 542 96 587ZM667 534L667 663L685 679L638 723L616 688L493 688Q528 754 556 776L556 776L506 814Q499 779 491.50 747.50Q484 716 474 688L474 688L424 688L374 717Q376 674 376.50 631Q377 588 377 546L377 546L377 373L421 389L421 414L623 414L623 380L670 398Q667 434 667 467L667 467Q667 500 667 534L667 534ZM421 565L421 663L623 663L623 565L421 565ZM421 439L421 537L623 537L623 439L421 439ZM443 193L682 193L613 260L575 219L443 219L443 304L462 323L392 357Q394 315 394.50 288.50Q395 262 395 241L395 241L395 52Q390-25 443-25L443-25L606-25Q648-25 673 21L673 21Q649 24 644 62L644 62Q639 77 638.50 95Q638 113 638 137L638 137L623 137Q623 102 619.50 79.50Q616 57 616 42L616 42Q611 18 594 18L594 18L474 18Q438 18 443 77L443 77L443 193Z"/></svg>