<svg id="U2450A" viewBox="0 0 1024 1024"><path transform="translate(0, 921.6) scale(1,-1)" d="M230 669L230 669L221 663Q279 588 290 540L290 540Q309 489 338 521L338 521Q364 556 346 587L346 587Q340 602 309 621.50Q278 641 230 669ZM454 685L454 685L441 672Q486 608 495 553L495 553Q499 496 536 530L536 530Q568 560 555 594L555 594Q542 608 517 631Q492 654 454 685ZM809 644L809 644L845 653L769 707Q752 678 737 652.50Q722 627 706 606L706 606Q686 580 669.50 557Q653 534 637 518L637 518L643 509Q714 552 809 644ZM158 713L158 713L158 691Q296 688 458 697.50Q620 707 813 726L813 726L873 710L822 789Q780 769 580 745L580 745Q477 732 373 725Q269 718 158 713ZM467 461L772 461Q763 398 754.50 359.50Q746 321 734 307L734 307Q711 274 580 307L580 307L577 294Q674 270 678 222L678 222Q745 228 778 275L778 275Q806 315 826 448L826 448L857 477L798 527L765 489L151 489L189 458Q206 458 229 459.50Q252 461 281 461L281 461L407 461Q397 385 318 323L318 323Q238 257 116 222L116 222L117 206Q262 239 356 301L356 301Q447 362 467 461L467 461ZM482 165L75 165L109 131Q140 140 177 140L177 140L482 140L482-28L136-28L171-62Q186-60 203.50-57Q221-54 243-54L243-54L904-54L839 14L788-28L536-28L536 140L948 140L886 216L832 165L536 165L536 241L570 270L479 316Q479 271 480.50 232Q482 193 482 165L482 165Z"/></svg>