<svg id="U249EF" viewBox="0 0 1024 1024"><path transform="translate(0, 921.6) scale(1,-1)" d="M520 435L520 435L526 422Q630 495 662 548L662 548Q716 499 740 469L740 469Q765 432 778 453L778 453Q787 466 781 497L781 497Q777 522 668 566L668 566L690 599L716 614L649 655Q640 604 611 555L611 555Q592 512 520 435ZM555 689L555 689L501 689L448 722Q450 692 450.50 655Q451 618 451 573L451 573Q451 525 450.50 477Q450 429 448 384L448 384L501 409L501 664L845 664L845 394L898 416Q895 432 895 462L895 462Q895 493 895 538L895 538L895 652L924 677L870 722L842 689L583 689Q610 717 637 733L637 733Q660 757 700 771L700 771L624 810Q601 744 555 689ZM602 378L539 422Q494 337 366 236L366 236L375 224Q429 256 468 283.50Q507 311 530 334L530 334Q554 350 571 361.50Q588 373 602 378L602 378ZM721 422L721 422L716 413Q782 371 826 340.50Q870 310 891 283L891 283Q926 239 935 283Q944 327 911 353L911 353Q891 361 844 380.50Q797 400 721 422ZM570 242L590 255L781 255Q747 170 678 101L678 101Q601 167 570 242L570 242ZM649 314L649 314L586 359Q553 290 506.50 228.50Q460 167 394 113L394 113L403 104Q443 124 480.50 156Q518 188 552 227L552 227Q568 184 592.50 147Q617 110 646 72L646 72Q545-12 353-67L353-67L356-83Q538-54 678 41L678 41Q720 3 772.50-25.50Q825-54 891-80L891-80Q902-33 961-33L961-33L961-17Q808-4 716 72L716 72Q780 146 835 239L835 239L863 258L801 314L775 280L602 280Q614 292 626.50 300Q639 308 649 314ZM423 195L268 139L268 384L413 384L359 453L312 413L268 413L268 646L431 646L372 722L322 671L78 671L109 636Q140 646 180 646L180 646L218 646L218 413L88 413L120 378Q137 380 157 382Q177 384 196 384L196 384L218 384L218 126Q191 114 153.50 105.50Q116 97 62 85L62 85L117 16Q117 40 426 177L426 177L423 195Z"/></svg>