<svg id="U241F5" viewBox="0 0 1024 1024"><path transform="translate(0, 921.6) scale(1,-1)" d="M171 696L168 733L151 733Q146 700 137.50 676Q129 652 120 636L120 636Q100 605 84 595L84 595Q71 580 81 573L81 573Q85 555 112 563L112 563Q141 568 158 595L158 595Q162 603 165.50 622.50Q169 642 171 671L171 671L857 671L822 595L832 586Q903 673 955 677L955 677L888 737L850 696L513 696Q550 727 530 749L530 749Q520 758 493.50 772.50Q467 787 429 807L429 807L420 797Q468 746 479 696L479 696L171 696ZM353 529L341 522Q388 478 403 438L403 438Q422 396 438 425L438 425Q458 450 448 473L448 473Q438 494 353 529L353 529ZM164 479L164 479L171 463Q318 504 423 566L423 566L703 566Q649 520 588.50 483.50Q528 447 461 419L461 419Q389 390 298.50 368Q208 346 94 334L94 334L94 314Q265 328 416 365L416 365Q492 382 553 409Q614 436 665 469L665 469Q713 504 749 524.50Q785 545 806 555L806 555L740 620L706 595L457 595Q480 604 495.50 612Q511 620 520 623L520 623L451 674Q429 645 401 617Q373 589 338 563L338 563Q263 513 164 479ZM262 290L246 290Q219 195 177 157L177 157Q136 130 151 113L151 113Q160 108 174 105.50Q188 103 205 110L205 110Q242 115 246 160L246 160Q253 187 256 217.50Q259 248 262 290L262 290ZM857 233L857 233L788 296Q747 224 605 139L605 139Q584 154 561.50 191.50Q539 229 511 283L511 283L513 312L539 334L451 372Q451 261 413 180L413 180Q383 100 287 34L287 34Q203-23 68-70L68-70L72-80Q414-26 498 245L498 245Q601-1 850-80L850-80Q865-44 945-36L945-36L945-20Q742 0 618 119L618 119Q641 131 670.50 146.50Q700 162 731 180L731 180Q801 220 857 233Z"/></svg>