<svg id="U242EB" viewBox="0 0 1024 1024"><path transform="translate(0, 921.6) scale(1,-1)" d="M459 241L389 278Q391 255 391.50 194Q392 133 392 33L392 33L371 14L411-41L433-16L600-16L600-57L651-25Q645-11 644.50 4Q644 19 644 36L644 36L644 213L663 234L597 272Q597 255 598.50 239Q600 223 600 206L600 206L600 11L541 11L541 316L562 339L490 376Q490 341 493.50 309.50Q497 278 497 250L497 250L497 11L440 11L440 209L459 241ZM802 291L802 8L742 8L742 206L761 231L698 270Q698 228 699.50 168Q701 108 701 26L701 26L682-3L723-44L742-19L899-19L899-65L947-41L947 209L969 234L896 278Q896 255 897.50 231.50Q899 208 899 188L899 188L899 8L849 8L849 307L875 329L799 367Q799 348 800.50 329Q802 310 802 291L802 291ZM644 720L644 442L503 442L503 638L528 669L449 701Q451 667 451.50 636Q452 605 452 578L452 578L452 448L428 437L471 396L506 417L837 417L837 380L890 404Q888 433 887.50 461.50Q887 490 887 521L887 521L887 641L915 666L834 707Q834 669 835.50 604Q837 539 837 442L837 442L695 442L695 745L732 770L641 808Q641 784 642.50 762Q644 740 644 720L644 720ZM295 758L216 805Q219 702 219.50 614Q220 526 220 445L220 445Q220 293 191 172L191 172Q163 53 55-75L55-75L60-82Q135-25 184.50 49Q234 123 254 226L254 226Q286 182 306 152Q326 122 333 105L333 105Q350 67 354 67L354 67Q366 67 380 99L380 99Q393 134 361 168L361 168Q344 185 318 204Q292 223 257 244L257 244Q269 371 269 461L269 461Q296 487 313.50 506Q331 525 346 540L346 540Q376 570 399 574L399 574L346 628Q336 604 318 572.50Q300 541 269 499L269 499L269 732L295 758ZM159 565L159 565L147 565Q121 458 96 427L96 427Q66 393 76 383L76 383Q88 362 111 376L111 376Q125 381 147 414L147 414Q153 431 158.50 467.50Q164 504 159 565Z"/></svg>