<svg id="U244D2" viewBox="0 0 1024 1024"><path transform="translate(0, 921.6) scale(1,-1)" d="M597 257L597 257L456 257L487 222Q523 231 559 231L559 231L597 231L597 162L465 162L500 124Q520 131 572 137L572 137L597 137L594 83Q554 71 512.50 64.50Q471 58 433 55L433 55L465 2Q481 13 512 28.50Q543 44 591 64L591 64Q576-27 493-75L493-75L500-88Q580-64 613-9L613-9Q641 46 641 168L641 168L641 272L670 291L594 332Q594 313 595.50 292.50Q597 272 597 257ZM773 26L773 26L963 26L909 93L865 55L773 55L773 137L931 137L884 197L846 162L773 162L773 231L934 231L884 291L846 257L773 257L773 278L799 301L726 335Q726 307 727.50 258.50Q729 210 729 140L729 140Q729 65 727.50 12.50Q726-40 726-82L726-82L777-60Q774-38 773.50-16Q773 6 773 26ZM600 814L600 814L594 802Q622 780 639.50 755.50Q657 731 667 713L667 713Q680 663 708 704L708 704Q727 741 701 764L701 764Q686 775 662 788.50Q638 802 600 814ZM465 370L465 656L950 656L887 726L843 682L469 682L415 713Q415 635 416.50 559Q418 483 418 408L418 408Q418 257 389 149L389 149Q371 41 298-62L298-62L305-75Q386 0 424 105L424 105Q440 159 451 225Q462 291 465 370L465 370ZM285 758L207 802Q209 699 209.50 610Q210 521 210 445L210 445Q214 280 187 175L187 175Q158 54 60-62L60-62L70-72Q207 21 248 222L248 222Q294 166 317 115L317 115Q331 62 346 62L346 62Q360 54 364 93L364 93Q373 123 346 162L346 162Q314 207 251 241L251 241Q258 307 260.50 363.50Q263 420 263 468L263 468Q289 491 310 510Q331 529 346 546L346 546Q379 580 402 587L402 587L346 641Q323 570 263 493L263 493L263 732L285 758ZM80 591L80 591L73 581Q99 536 109 499Q119 462 119 437L119 437Q127 384 147 393L147 393Q168 396 176 417L176 417Q185 439 169 474L169 474Q160 511 80 591ZM777 474L720 499Q726 456 718.50 416.50Q711 377 695 345L695 345L708 339Q753 389 764 455L764 455L777 474ZM909 474L852 493L852 404Q852 370 871 367L871 367Q884 357 909 357L909 357Q925 363 947 363L947 363Q967 363 953 386L953 386Q945 406 931 401L931 401Q918 388 903 396L903 396Q885 396 890 452L890 452L909 474ZM827 518L928 518L884 578L849 543L827 543L827 581L849 603L783 638Q783 608 784.50 584Q786 560 786 543L786 543L691 543L717 509L739 518L786 518L786 389L783 326L830 354L827 396L827 518ZM556 471L500 493Q504 405 469 345L469 345L480 335Q532 387 537 452L537 452L556 471ZM688 471L632 493L632 404Q632 369 651 363L651 363Q667 357 680 357L680 357L698 357Q712 365 708 383L708 383Q708 407 688 396L688 396Q675 392 670 404L670 404L670 455L688 471ZM603 518L701 518L667 565L635 543L603 543L603 578L629 600L559 635Q559 605 560.50 582.50Q562 560 562 543L562 543L474 543L497 509L521 518L562 518Q562 451 560.50 403.50Q559 356 559 326L559 326L610 354Q604 375 603.50 413.50Q603 452 603 518L603 518Z"/></svg>