<svg id="U24A04" viewBox="0 0 1024 1024"><path transform="translate(0, 921.6) scale(1,-1)" d="M819 229L819 229L511 214Q580 244 630 270Q680 296 719 314L719 314Q757 333 788.50 343Q820 353 845 355L845 355L785 416Q770 401 735 378.50Q700 356 643 321L643 321Q637 365 570 375L570 375Q610 396 646.50 406.50Q683 417 712 422L712 422L665 457L948 457L888 522L835 485L678 485L678 551L879 551L829 620L775 583L678 583L678 658L914 658L857 728L804 684L678 684L678 743L706 774L624 807Q624 782 625.50 751.50Q627 721 627 684L627 684L397 684L431 648Q461 658 508 658L508 658L627 658L627 583L444 583L479 545Q495 547 512 549Q529 551 549 551L549 551L627 551L627 485L372 485L407 450Q425 452 443 454.50Q461 457 482 457L482 457L621 457Q593 417 539 388L539 388Q515 392 493.50 394.50Q472 397 454 403L454 403L448 388Q496 363 535 341Q574 319 605 296L605 296Q479 221 413 218L413 218L448 145Q464 155 509.50 164Q555 173 631 183L631 183L631 57Q631 21 629-12Q627-45 627-80L627-80L687-67Q681-32 680.50-1.50Q680 29 680 63L680 63L680 188Q722 195 759.50 200.50Q797 206 832 211L832 211Q841 189 851.50 172.50Q862 156 870 145L870 145Q880 113 901 160L901 160Q920 201 888 229L888 229Q871 243 842 258.50Q813 274 772 293L772 293L760 280Q775 266 790 252Q805 238 819 229ZM580 66L580 66L513 126Q499 97 482 74.50Q465 52 444 28L444 28Q423 9 404-10.50Q385-30 366-52L366-52L375-62Q395-44 420.50-25.50Q446-7 479 10L479 10Q529 56 580 66ZM753 126L753 126L744 116Q831 32 860-17L860-17Q885-70 901-29L901-29Q920 13 891 41L891 41Q861 71 753 126ZM410 205L271 157L271 388L410 388L362 450L312 413L271 413L271 648L407 648L353 722L309 677L84 677L117 643Q134 645 151 646.50Q168 648 189 648L189 648L218 648L218 413L97 413L123 378Q139 385 159.50 386.50Q180 388 199 388L199 388L218 388L218 142Q196 130 159.50 119.50Q123 109 75 98L75 98L123 28Q123 54 413 192L413 192L410 205Z"/></svg>