<svg id="U24446" viewBox="0 0 1024 1024"><path transform="translate(0, 921.6) scale(1,-1)" d="M572 592L572 671L732 671L732 592L572 592ZM462 368L462 463L814 463L814 368L462 368ZM572 563L732 563L732 538L786 555Q783 582 783 612L783 612Q783 642 783 671L783 671L937 671L871 737L830 696L783 696L783 766L808 787L729 813Q729 786 730.50 757.50Q732 729 732 696L732 696L572 696L572 759L597 784L518 813Q518 791 519.50 762Q521 733 521 696L521 696L380 696L418 658L459 671L521 671Q521 633 519.50 598.50Q518 564 518 532L518 532L572 545L572 563ZM670 576L616 576Q616 482 597 416L597 416Q584 339 525 265L525 265Q500 227 460.50 190Q421 153 364 116L364 116L374 107Q409 114 477 167L477 167Q508 188 535 213.50Q562 239 582 271L582 271Q605 301 620.50 337.50Q636 374 647 416L647 416Q654 453 660.50 493.50Q667 534 670 576L670 576ZM387 331L387 331L380 321Q437 262 446 233L446 233Q461 203 477 233L477 233Q503 263 477 283L477 283Q460 299 387 331ZM685 353L673 353Q678 319 695 284Q712 249 736 211L736 211Q792 140 884 107L884 107Q893 135 963 139L963 139L963 154Q849 169 770 233L770 233Q873 284 922 290L922 290L871 340Q859 325 832.50 302.50Q806 280 758 252L758 252Q731 280 711.50 305.50Q692 331 685 353L685 353ZM408 324L408 324L462 334L462 344L814 344L814 327L868 344Q865 361 865 389L865 389Q865 417 865 450L865 450L890 476L840 520L814 488L670 488L456 488L408 514Q408 487 411.50 463Q415 439 415 419L415 419Q415 397 411.50 374Q408 351 408 324ZM578 107L616 107L616-8L367-8L405-45Q438-36 490-36L490-36L931-36L865 31L827-8L667-8L667 107L827 107L758 173L723 132L667 132L667 195L688 218L613 249Q613 216 614.50 187Q616 158 616 132L616 132L459 132L497 95Q513 99 532.50 103Q552 107 578 107L578 107ZM292 766L210 813Q212 710 212.50 618Q213 526 213 444L213 444Q218 359 210 288Q202 217 187 157L187 157Q165 43 60-77L60-77L67-86Q208 5 248 195L248 195Q314 103 326 66L326 66Q349 15 361 10L361 10Q372-1 383 38L383 38Q392 80 358 116L358 116Q337 137 311.50 161.50Q286 186 251 214L251 214Q258 287 260.50 346Q263 405 263 450L263 450Q290 475 310 495Q330 515 343 532L343 532Q364 559 399 576L399 576L343 623Q323 564 263 479L263 479L263 737L292 766ZM159 555L159 555L143 555Q118 449 92 422L92 422Q64 391 73 372L73 372Q87 348 104 362L104 362Q123 366 140 403L140 403Q159 442 159 555Z"/></svg>