<svg id="U24A24" viewBox="0 0 1000 1000"><path transform="translate(0, 900) scale(1,-1)" d="M654 417C603 356 508 295 426 261C442 249 460 229 470 216C557 256 653 321 712 393ZM739 330C676 247 557 174 441 133C457 120 473 100 483 85C605 132 726 212 797 307ZM831 254C754 123 601 26 419-23C434-38 452-62 461-80C651-22 809 83 894 229ZM462 658C492 625 524 579 538 549L590 578C576 607 542 652 513 684ZM754 657C784 623 819 578 836 549L888 579C871 608 834 652 804 684ZM646 585C591 494 475 413 346 361C360 349 382 325 392 311C494 355 586 415 654 488C725 423 830 358 917 324C927 341 949 368 965 381C871 410 756 472 692 533L713 564ZM34 100L51 29C139 57 255 94 365 129L354 196L236 159L236 415L333 415L333 483L236 483L236 703L353 703L353 772L45 772L45 703L170 703L170 483L64 483L64 415L170 415L170 139ZM430 844C409 750 374 653 329 588C345 580 373 562 386 552C411 591 434 640 455 695L646 695L646 754L475 754C483 779 490 805 496 830ZM714 845C697 759 666 674 623 616C639 608 667 590 679 580C701 611 720 651 737 695L950 695L950 754L758 754C766 780 773 806 779 832Z"/></svg>