<svg id="U2403E" viewBox="0 0 1024 1024"><path transform="translate(0, 921.6) scale(1,-1)" d="M139 779L136 770Q193 716 215 669L215 669Q236 624 256 656L256 656Q274 686 253 713L253 713Q233 740 139 779L139 779ZM68 574L65 563Q97 531 113.50 505Q130 479 139 458L139 458Q155 415 177 437L177 437Q198 452 192 496L192 496Q188 524 68 574L68 574ZM78 209L78 209L78 193Q161 169 161 134L161 134Q161 111 158.50 85Q156 59 151 30L151 30Q138-25 180-54L180-54Q222-71 215 14L215 14Q212 62 212 96L212 96Q212 130 212 149L212 149Q214 170 217 193.50Q220 217 227 241L227 241Q233 262 253.50 354Q274 446 312 612L312 612L297 619Q198 231 171 213L171 213Q143 200 78 209ZM719 578L719 758L757 786L665 811Q665 777 666.50 718.50Q668 660 668 578L668 578L564 578L564 758L593 786L511 811Q511 779 512 721Q513 663 513 578L513 578L318 578L356 540Q373 544 394 548.50Q415 553 441 553L441 553L948 553L879 619L842 578L719 578ZM346 761L346 761L338 751Q399 682 413 641L413 641Q431 597 451 625L451 625Q467 659 454 688L454 688Q446 697 420 716.50Q394 736 346 761ZM461 540L461 540L451 527Q496 480 508 439L508 439Q523 399 545 430L545 430Q572 464 545 493L545 493Q533 502 511.50 515Q490 528 461 540ZM586-85L646-62Q643-20 643 21L643 21Q643 63 643 105L643 105L643 272L948 272L879 342L842 301L643 301L643 386L917 386L850 455L813 411L687 411Q774 492 801 499L801 499L734 546Q713 478 665 411L665 411L328 411L366 376Q395 386 448 386L448 386L590 386L590 301L300 301L338 263Q368 272 423 272L423 272L590 272L590 77Q590 34 588-4Q586-42 586-85L586-85ZM757 603L765 597Q828 643 888 717L888 717L917 732L850 776Q832 731 809.50 688.50Q787 646 757 603L757 603ZM495 156L461 115L461 203L485 226L407 247Q409 221 409.50 195.50Q410 170 410 146L410 146L410 115L287 115L325 77L366 90L410 90L410 11Q410-11 409.50-33Q409-55 407-78L407-78L464-47Q461-30 461-14L461-14Q461 1 461 18L461 18L461 90L564 90L495 156ZM854 115L816 115L816 193L842 222L763 247Q763 230 764 214Q765 198 765 185L765 185L765 115L665 115L703 77L744 90L765 90L765 11Q765-11 764-33Q763-55 763-78L763-78L819-47Q816-30 816-14L816-14Q816 1 816 18L816 18L816 90L958 90L891 156L854 115Z"/></svg>