<svg id="U2477E" viewBox="0 0 1024 1024"><path transform="translate(0, 921.6) scale(1,-1)" d="M559 717L559 717L600 729L515 789Q501 728 478 673.50Q455 619 428 574L428 574Q482 474 487 414L487 414Q496 346 528 393L528 393Q556 430 534 474L534 474Q527 494 507.50 519Q488 544 462 574L462 574Q500 631 524 666.50Q548 702 559 717ZM745 710L745 710L780 723L704 779Q687 725 664.50 675Q642 625 619 574L619 574Q663 493 682 437L682 437Q691 369 723 411L723 411Q753 445 739 483L739 483Q726 512 644 574L644 574Q677 619 702.50 653.50Q728 688 745 710ZM915 704L915 704L953 720L881 779Q863 718 841 665.50Q819 613 796 571L796 571Q852 480 871 420L871 420Q881 357 912 398L912 398Q933 447 919 474L919 474Q907 490 884.50 515Q862 540 827 571L827 571Q855 611 877.50 643Q900 675 915 704ZM660 237L660 0L515 0L515 257L547 288L465 319Q465 281 467 242Q469 203 469 165L469 165L469 5L436-19L493-69L521-28L855-28L855-69L909-44Q904-6 903.50 27.50Q903 61 903 96L903 96L903 241L931 272L852 311Q852 265 853.50 223Q855 181 855 144L855 144L855 0L711 0L711 329L745 360L657 396Q657 350 658.50 310.50Q660 271 660 237L660 237ZM114 748L114 748L104 738Q209 664 245 603L245 603Q160 496 80 437L80 437L86 420Q197 491 263 565L263 565Q272 542 278.50 519Q285 496 295 468L295 468Q189 252 70 140L70 140L76 124Q232 229 310 389L310 389Q313 292 312.50 221Q312 150 307 105L307 105Q300 23 257 8L257 8Q238 5 204 6.50Q170 8 128 18L128 18L125 2Q233-24 238-78L238-78Q307-63 336 0L336 0Q349 28 358 92.50Q367 157 367 263L367 263Q367 470 302 594L302 594Q322 617 347.50 652Q373 687 408 738L408 738L436 748L374 805Q354 754 329.50 712Q305 670 276 635L276 635Q220 703 114 748Z"/></svg>