<svg id="U24E1F" viewBox="0 0 1024 1024"><path transform="translate(0, 921.6) scale(1,-1)" d="M251 357L251 357Q118 279 60 267L60 267L109 209Q142 264 251 341L251 341Q227 63 76-79L76-79L86-89Q208 11 251 119L251 119Q275 175 286 232Q297 289 303 351L303 351Q305 411 305.50 485.50Q306 560 306 651L306 651L938 651L867 725L819 680L606 680Q638 712 619 748L619 748Q584 787 506 825L506 825L500 812Q516 791 530 772.50Q544 754 551 735L551 735Q567 700 567 680L567 680L306 680L248 715Q250 666 250.50 577.50Q251 489 251 357ZM109 612L109 612L95 603Q130 543 135 490L135 490Q151 423 177 457L177 457Q212 492 193 525L193 525Q186 542 163 562Q140 582 109 612ZM406 409L429 409L429 267Q384 245 353 233.50Q322 222 303 216L303 216L342 167Q358 179 380 195Q402 211 429 228L429 228L429 19Q429-2 403-2L403-2Q391-2 370-1.50Q349-1 316 0L316 0L316-11Q406-29 413-82L413-82Q480-62 480 12L480 12L480 251Q541 286 567 306L567 306L561 316Q545 310 524.50 304.50Q504 299 480 287L480 287L480 409L593 409L545 473L506 435L480 435L480 554L503 586L426 622Q428 579 428.50 539.50Q429 500 429 464L429 464L429 435L309 435L345 403Q388 409 406 409L406 409ZM706 503L706 503L542 503L574 467Q593 469 608 471Q623 473 638 473L638 473L706 473L706 357L574 357L609 325Q627 327 653 329.50Q679 332 719 332L719 332L925 332L867 406L822 357L758 357L758 473L945 473L887 541L842 503L758 503L758 567L780 593L703 628Q703 611 704.50 579.50Q706 548 706 503ZM780 228L780 228L513 228L548 193Q565 195 582.50 199Q600 203 622 203L622 203L780 203L780 12Q780-15 748-15L748-15Q733-15 713.50-14.50Q694-14 667-11L667-11L667-28Q705-32 725-44L725-44Q749-49 771-92L771-92Q829-64 829 6L829 6L829 203L964 203L906 267L851 228L829 228L829 278L848 296L774 335Q774 311 777 284Q780 257 780 228ZM606 187L606 187L600 177Q616 147 627.50 122Q639 97 642 70L642 70Q642 22 671 51L671 51Q695 75 683 109L683 109Q673 126 654 144Q635 162 606 187Z"/></svg>