<svg id="U24292" viewBox="0 0 1024 1024"><path transform="translate(0, 921.6) scale(1,-1)" d="M557 574L598 685L798 685L775 574L557 574ZM508 591L508 591L476 568L530 521L552 550L765 550L747 458L801 458L850 672L883 691L819 738L794 710L605 710L624 751L655 773L583 811Q530 630 508 591ZM533 437L958 437L891 502L854 461L413 461L451 424Q480 437 533 437L533 437ZM549 5L549 5L549-13Q628-25 637-85L637-85Q709-69 709 11L709 11L709 439L662 439L662 376L662 36Q662-3 639-3L639-3Q625-3 602.50-1Q580 1 549 5ZM924 348L924 348L876 404Q862 379 826.50 340Q791 301 734 247L734 247L740 231Q770 253 796 272Q822 291 845 307L845 307Q870 323 890.50 333Q911 343 924 348ZM734 209L734 209L728 200Q742 188 762 171Q782 154 804 134L804 134Q854 87 879 46L879 46Q909-4 920 52L920 52Q934 109 870 146L870 146Q834 165 800 181Q766 197 734 209ZM416 77L416 77L457 18Q475 38 497 60Q519 82 549 105L549 105Q576 126 599.50 144Q623 162 639 181L639 181L631 190Q611 179 588 168Q565 157 542 144L542 144Q518 130 486.50 113.50Q455 97 416 77ZM454 380L454 380L448 367Q466 350 482.50 335Q499 320 513 304L513 304Q528 287 541.50 271.50Q555 256 564 237L564 237Q586 203 598 244L598 244Q605 275 583 316L583 316Q550 349 454 380ZM325 751L243 795Q247 692 248 603.50Q249 515 249 439L249 439Q252 363 243 295.50Q234 228 218 165L218 165Q191 51 65-75L65-75L75-85Q244 20 281 222L281 222Q318 184 338.50 157Q359 130 369 111L369 111Q386 74 394 70L394 70Q407 66 416 103L416 103Q427 134 397 168L397 168Q383 183 355 200Q327 217 287 241L287 241Q292 304 294.50 357Q297 410 297 455L297 455Q352 501 388 537L388 537Q426 569 451 574L451 574L391 628Q382 581 297 486L297 486L297 726L325 751ZM84 581L84 581L78 571Q131 484 142 439L142 439Q154 396 164 396L164 396Q180 396 192 417L192 417Q202 439 183 474L183 474Q178 490 152 516.50Q126 543 84 581Z"/></svg>