<svg id="U24390" viewBox="0 0 1024 1024"><path transform="translate(0, 921.6) scale(1,-1)" d="M298 758L216 805Q219 702 219.50 612.50Q220 523 220 442L220 442Q223 292 194 165L194 165Q164 44 67-65L67-65L76-78Q219 19 257 213L257 213Q323 146 346 103L346 103Q363 56 377 49L377 49Q391 49 395 83L395 83Q408 111 374 152L374 152Q356 169 328.50 189.50Q301 210 261 231L261 231Q273 358 273 455L273 455Q301 476 320 496Q339 516 348 530L348 530Q360 539 374 550Q388 561 402 568L402 568L339 615Q325 562 273 480L273 480L273 732L298 758ZM172 543L172 543L156 543Q129 445 98 417L98 417Q69 382 80 367L80 367Q97 343 117 357L117 357Q132 360 153 398L153 398Q172 437 172 543ZM415 679L415 679L415-6L392-31L436-75L465-44L956-44L890 23L852-19L465-19L465 720L940 720L875 789L837 748L465 748L411 776Q411 745 413 721Q415 697 415 679ZM585 581L465 581L503 543L544 556L585 556Q585 532 583.50 508Q582 484 582 461L582 461L635 483L635 556L767 556L767 477L821 496Q818 515 818 556L818 556L947 556L878 622L840 581L818 581L818 641L843 669L764 704Q764 671 765.50 640Q767 609 767 581L767 581L635 581L635 638L660 666L582 707Q582 672 583.50 640.50Q585 609 585 581L585 581ZM635 90L635 237L805 237L805 90L635 90ZM855 226L855 226L881 244L830 298L799 263L635 263L619 270Q634 293 647 315Q660 337 670 360L670 360L937 360L871 427L834 386L680 386Q683 402 691 416.50Q699 431 704 442L704 442L736 461L660 502Q653 474 645.50 444Q638 414 626 386L626 386L471 386L510 348L550 360L619 360Q602 329 584 300.50Q566 272 550 244L550 244Q531 218 508 192.50Q485 167 465 146L465 146L474 134Q519 166 546.50 189.50Q574 213 585 229L585 229Q585 135 583.50 81.50Q582 28 582 14L582 14L635 39L635 64L805 64L805 26L858 55Q855 73 855 226Z"/></svg>