<svg id="U24EC6" viewBox="0 0 1024 1024"><path transform="translate(0, 921.6) scale(1,-1)" d="M260 364L260 364Q197 324 149 302Q101 280 68 271L68 271L118 213Q151 265 260 345L260 345Q233 71 84-69L84-69L94-82Q152-30 194.50 19.50Q237 69 260 126L260 126Q284 182 295 237.50Q306 293 311 355L311 355Q313 412 313.50 486Q314 560 314 648L314 648L946 648L875 722L827 677L614 677Q631 694 634.50 711.50Q638 729 624 745L624 745Q603 779 531 826L531 826L521 819Q538 790 550.50 770Q563 750 569 739L569 739Q576 719 579.50 702.50Q583 686 588 677L588 677L314 677L256 713Q259 665 259.50 578Q260 491 260 364ZM111 609L111 609L103 600Q118 570 129 543Q140 516 143 487L143 487Q157 431 182 461L182 461Q212 491 192 526L192 526Q174 554 111 609ZM450 513L450 513L579 513L531 574L489 542L340 542L363 503Q392 513 450 513ZM337 368L311 403L531 403L569 438L617 381L531 381L531 97L608 184L617 168Q567 104 540 63Q513 22 505 3L505 3L463 45Q482 55 482 145L482 145L482 374L440 374Q440 288 431.50 219.50Q423 151 398 103L398 103Q378 52 343 16Q308-20 260-53L260-53L250-46Q343 56 369 145L369 145Q382 187 388.50 243Q395 299 395 374L395 374L379 374Q350 374 337 368L337 368ZM859 564L582 564L617 529Q632 531 649 535Q666 539 688 539L688 539L730 539L711 464L688 464L637 487L637 274L637 61L688 81L688 87L850 87L850 65L898 81Q895 114 895 145L895 145Q895 177 895 206L895 206L895 426L921 445L879 493L850 464L730 464L782 539L956 539L901 603L859 564ZM688 348L688 438L850 438L850 348L688 348ZM688 234L688 322L850 322L850 234L688 234ZM688 113L688 210L850 210L850 113L688 113ZM750 42L695 81Q674 21 563-69L563-69L569-82Q639-51 679-11L679-11Q703 6 720.50 19Q738 32 750 42L750 42ZM801 81L801 81L795 71Q856-16 869-46L869-46Q876-77 895-72L895-72Q912-68 917-37L917-37Q923-9 895 16L895 16Q877 30 853.50 47.50Q830 65 801 81Z"/></svg>