<svg id="U241B8" viewBox="0 0 1024 1024"><path transform="translate(0, 921.6) scale(1,-1)" d="M317 769L235 810Q238 759 238.50 708.50Q239 658 239 607L239 607Q241 451 234.50 342Q228 233 214 170L214 170Q186 55 77-70L77-70L83-83Q238 21 276 221L276 221Q314 183 336.50 151.50Q359 120 371 95L371 95Q395 44 405 41L405 41Q421 29 430 72L430 72Q441 110 405 151L405 151Q384 175 352.50 195.50Q321 216 279 239L279 239Q286 305 289 365Q292 425 292 473L292 473Q320 493 341 513.50Q362 534 377 551L377 551Q410 584 446 595L446 595L377 646Q364 589 292 497L292 497L292 740L317 769ZM153 551L153 551L138 548Q128 493 120.50 456Q113 419 98 403L98 403Q71 369 86 353L86 353Q102 336 122 347L122 347Q140 356 157 394L157 394Q168 423 153 551ZM478 469L478 469L462 469Q451 334 418 293L418 293Q385 235 396 221L396 221Q406 202 437 211L437 211Q469 232 478 283L478 283Q491 343 478 469ZM559 491L559 491L559 41Q559-20 613-20L613-20L828-20Q913-20 937 34L937 34Q892 73 885 113L885 113Q879 140 878.50 163.50Q878 187 878 208L878 208L859 208Q856 141 854 102Q852 63 852 51L852 51Q844 25 800 25L800 25L657 25Q610 25 610 75L610 75L610 538L641 570L554 611Q554 569 556.50 540.50Q559 512 559 491ZM595 784L595 784L585 774Q625 725 649.50 685Q674 645 685 614L685 614Q711 549 730 595L730 595Q757 640 726 674L726 674Q712 691 679 718.50Q646 746 595 784ZM808 497L808 497L800 488Q866 381 890 314L890 314Q905 240 934 286L934 286Q956 326 934 372L934 372Q911 407 808 497Z"/></svg>