<svg id="U24DED" viewBox="0 0 1024 1024"><path transform="translate(0, 921.6) scale(1,-1)" d="M264 364L264 364Q201 327 152.50 303.50Q104 280 72 274L72 274L122 216Q138 240 173 273Q208 306 264 345L264 345Q238 69 88-69L88-69L98-79Q219 18 264 125L264 125Q289 181 299.50 238.50Q310 296 315 357L315 357Q318 415 318.50 489.50Q319 564 319 651L319 651L951 651L883 722L831 677L619 677Q655 712 631 744L631 744Q605 778 535 825L535 825L525 819Q543 789 555.50 769Q568 749 573 738L573 738Q580 720 583.50 704.50Q587 689 593 677L593 677L319 677L261 715Q263 668 263.50 580.50Q264 493 264 364ZM115 612L115 612L106 599Q142 535 148 486L148 486Q162 429 186 461L186 461Q215 490 196 525L196 525Q185 543 165 565Q145 587 115 612ZM425 457L374 480Q376 452 376.50 413.50Q377 375 377 322L377 322L377 90Q377 67 376.50 30Q376-7 374-60L374-60L425-40L425 19L561 19L561-53L615-34Q612-7 612 20L612 20Q612 48 612 80L612 80L612 419L638 441L586 493L561 457L483 457Q492 474 503.50 492Q515 510 525 532L525 532Q539 550 550 565.50Q561 581 573 593L573 593L503 625Q503 589 486 541L486 541Q481 514 476 492.50Q471 471 464 457L464 457L425 457ZM425 254L425 428L561 428L561 254L425 254ZM425 45L425 225L561 225L561 45L425 45ZM680 299L673 296Q725 197 725 164L725 164Q734 120 754 129L754 129Q777 136 786 177L786 177Q796 211 680 299L680 299ZM799 593L725 635Q720 596 706 549.50Q692 503 673 449L673 449Q629 336 596 280L596 280L602 274Q656 315 719 428L719 428L864 428Q861 274 859 183Q857 92 857 61L857 61Q853 3 825-2L825-2Q809-6 781.50-3Q754 0 712 3L712 3L712-11Q813-41 819-82L819-82Q850-74 880-50L880-50Q898-26 902 22L902 22Q905 49 908.50 146Q912 243 915 419L915 419L941 441L893 493L860 457L725 457Q740 481 773 574L773 574L799 593Z"/></svg>