<svg id="U244AD" viewBox="0 0 1024 1024"><path transform="translate(0, 921.6) scale(1,-1)" d="M195 176L501 176L444 241L403 200L312 200L312 330L475 330L419 399L375 354L312 354L312 480L406 480L406 449L460 475L457 528L457 720L482 739L429 793L400 758L170 758L115 783Q117 757 117 716L117 716Q117 676 117 619L117 619Q117 562 117 515L117 515Q117 469 115 434L115 434L167 456L167 480L264 480L264 354L97 354L129 320Q165 330 205 330L205 330L264 330L264 200L71 200L112 163Q127 165 149.50 169Q172 173 195 176L195 176ZM186 680L186 680L174 670Q202 623 202 569L202 569Q205 523 227 544L227 544Q252 563 243 598L243 598Q237 621 186 680ZM312 572L312 732L406 732L406 506L312 506L312 544L385 626L413 651L359 688Q355 643 312 572L312 572ZM167 506L167 732L264 732L264 506L167 506ZM863 732L835 683L850 680Q862 686 874.50 697Q887 708 901 720L901 720Q920 739 945 739L945 739L894 793L863 758L557 758L555 796L542 796Q533 728 504 704L504 704Q478 680 519 680L519 680Q560 680 560 732L560 732L863 732ZM608 544L608 622L804 622L804 544L608 544ZM608 437L608 516L804 516L804 437L608 437ZM608 326L608 411L804 411L804 326L608 326ZM557 326L557 326L472 326L504 292Q522 294 539 296Q556 298 573 298L573 298L958 298L904 370L866 326L850 326L850 606L882 629L825 680L797 647L608 647L555 670Q555 622 556 536Q557 450 557 326ZM686 254L686 254L627 295Q597 231 479 131L479 131L485 115Q530 147 566.50 173Q603 199 627 216L627 216Q669 249 686 254ZM747 282L747 282L737 273Q782 235 814 206Q846 177 863 156L863 156Q888 114 901 156L901 156Q905 197 882 223L882 223Q857 247 747 282ZM195 118L195 118L180 118Q165 64 144.50 33Q124 2 99-15L99-15Q49-50 74-59L74-59Q106-73 129-68L129-68Q161-59 174-34L174-34Q195-3 195 118ZM346 135L346 135L337 131Q353 76 364 36.50Q375-3 378-30L378-30Q383-85 416-56L416-56Q451-28 438 9L438 9Q421 56 346 135ZM560 131L560 131L552 118Q572 80 586 45Q600 10 608-21L608-21Q612-87 652-53L652-53Q684-18 668 18L668 18Q649 52 560 131ZM775 135L775 135L765 125Q836 29 853-30L853-30Q872-94 907-50L907-50Q935-7 904 33L904 33Q887 52 853.50 78Q820 104 775 135Z"/></svg>