<svg id="U24A28" viewBox="0 0 1000 1000"><path transform="translate(0, 900) scale(1,-1)" d="M456 472C477 441 503 399 516 372L553 399C539 424 512 466 492 495ZM443 246C464 212 490 166 503 137L542 164C528 191 501 235 479 267ZM574 522L569 356L426 356L441 522ZM421 841C396 738 354 635 306 566C317 549 336 512 341 497C357 521 373 548 388 579C383 511 377 433 369 356L311 356L311 294L363 294C353 204 343 119 333 55L552 55C548 25 543 8 538-1C531-13 524-16 511-16C498-16 467-16 435-12C442-29 448-56 449-74C480-76 514-77 535-74C557-70 574-63 587-37C597-21 604 6 610 55L653 55L653 117L615 117C619 163 622 221 624 294L673 294L673 356L626 356L631 546C632 556 632 583 632 583L390 583C401 607 413 632 423 658L671 658L671 722L447 722C458 754 468 787 477 820ZM558 117L400 117L419 294L567 294C564 219 561 161 558 117ZM769 603L870 603C857 478 837 363 806 264C782 349 765 444 753 545ZM746 838C729 677 699 524 635 425C648 413 669 384 676 371C690 392 703 416 715 441C729 345 748 255 774 175C738 89 690 20 629-27C646-40 667-62 677-77C729-34 771 25 805 95C835 29 871-28 916-70C926-52 947-26 962-14C910 29 869 94 838 172C883 294 910 442 926 603L957 603L957 664L782 664C793 717 801 773 807 830ZM34 100L47 31C122 57 218 90 310 123L303 188L204 155L204 415L284 415L284 482L204 482L204 706L298 706L298 772L44 772L44 706L143 706L143 482L59 482L59 415L143 415L143 134Z"/></svg>