<svg id="U24EF1" viewBox="0 0 1024 1024"><path transform="translate(0, 921.6) scale(1,-1)" d="M264 384L264 384Q201 348 153.50 324.50Q106 301 73 290L73 290L122 234Q158 285 264 364L264 364Q238 90 89-50L89-50L95-59Q216 36 264 145L264 145Q286 202 298.50 259.50Q311 317 313 377L313 377Q315 436 315.50 509Q316 582 316 668L316 668L948 668L880 742L829 697L619 697Q655 732 629 758L629 758Q606 784 548 822L548 822L542 816Q548 801 556.50 786.50Q565 772 571 758L571 758Q580 740 583.50 724.50Q587 709 590 697L590 697L316 697L261 735Q263 689 263.50 601Q264 513 264 384ZM113 632L113 632L108 618Q123 589 134 562Q145 535 148 506L148 506Q159 443 187 480L187 480Q214 513 193 545L193 545Q181 574 113 632ZM951 493L951 493L890 548L861 526L642 526L642 564L880 564L826 618L784 593L642 593L642 618L671 642L587 668Q587 625 588.50 589.50Q590 554 590 526L590 526L435 526L380 555Q383 513 380.50 459.50Q378 406 374 335L374 335Q371 265 362 205.50Q353 146 332 100L332 100Q300 2 213-72L213-72L222-79Q343-1 380 100L380 100Q420 198 426 297L426 297Q432 393 432 500L432 500L587 500Q587 482 588.50 467.50Q590 453 590 438L590 438L432 419L468 381L487 397L590 410L590 387Q590 345 642 345L642 345L813 345Q858 345 880 377L880 377Q854 403 845 403L845 403Q837 411 829 393L829 393Q823 376 787 387L787 387L671 387Q642 387 642 403L642 403L642 419L803 442L748 487L713 458L642 445L642 464L661 484L600 500L864 500L832 458L845 449Q907 499 951 493ZM700 181L700 219L809 219L809 181L700 181ZM526 319L470 342Q470 312 472 284Q474 256 474 234L474 234Q474 208 472 181Q470 154 470 126L470 126L526 142L526 155L809 155L809 126L864 148Q861 172 861 204L861 204Q861 237 861 284L861 284L887 303L838 345L806 319L526 319ZM526 245L526 290L648 290L648 245L526 245ZM700 245L700 290L809 290L809 245L700 245ZM526 181L526 219L648 219L648 181L526 181ZM484 90L484 90L468 100Q454 60 437 33Q420 6 403-8L403-8Q369-26 374-46L374-46Q384-58 419-53L419-53Q446-49 468-1L468-1Q484 34 484 90ZM606 81L529 116Q529 86 530.50 48.50Q532 11 532-37L532-37Q532-78 606-72L606-72L774-72Q816-77 848-37L848-37Q828-26 813 0L813 0Q809 14 807.50 28.50Q806 43 806 58L806 58L790 58Q790-30 764-30L764-30L613-30Q584-30 584-8L584-8L584 48L606 81ZM622 145L622 145L613 129Q661 90 680 52L680 52Q709 15 722 26L722 26Q727 35 732.50 43.50Q738 52 738 65L738 65Q738 81 719 100L719 100Q707 107 682.50 117Q658 127 622 145ZM819 103L819 103L809 90Q836 67 853.50 44.50Q871 22 884 3L884 3Q908-35 922-30L922-30Q927-22 933-15Q939-8 945 0L945 0Q950 26 929 42L929 42Q905 64 819 103Z"/></svg>