<svg id="U24EE" viewBox="0 0 1000 1000"><path transform="translate(0, 900) scale(1,-1)" d="M500-55L500-55Q415-55 340-23Q265 9 208.50 65.50Q152 122 120 197Q88 272 88 357L88 357Q88 442 120 516.50Q152 591 208.50 648Q265 705 340 737Q415 769 500 769L500 769Q586 769 660.50 737Q735 705 791.50 648Q848 591 880 516.50Q912 442 912 357L912 357Q912 272 880 197Q848 122 791.50 65.50Q735 9 660.50-23Q586-55 500-55ZM627 241L627 144L695 144L695 241L755 241L755 299L695 299L695 572L626 572L452 291L452 241L627 241ZM345 467L345 144L413 144L413 572L341 572L227 489L261 440L312 479Q325 489 333.50 497Q342 505 347 511L347 511Q346 500 345.50 489Q345 478 345 467L345 467ZM627 299L515 299L603 448Q613 465 619.50 477.50Q626 490 630 498L630 498L631 498Q630 474 628.50 450Q627 426 627 398L627 398L627 299Z"/></svg>