<svg id="U24958" viewBox="0 0 1024 1024"><path transform="translate(0, 921.6) scale(1,-1)" d="M490 669L490 669L838 669Q835 554 832 489.50Q829 425 823 404L823 404Q818 366 794 357L794 357Q783 354 754.50 355.50Q726 357 684 367L684 367L684 348Q783 328 779 282L779 282Q826 290 855 323L855 323Q874 342 879 404L879 404Q879 433 884.50 496Q890 559 895 653L895 653L927 685L870 741L832 694L505 694Q548 746 562 751L562 751L596 761L514 811Q446 659 331 556L331 556L338 543Q363 557 384.50 573Q406 589 423 606L423 606L423 420L398 401L449 342L483 376L760 376L719 427L681 401L470 401L470 550L501 578L436 615Q448 627 460 640.50Q472 654 490 669ZM725 612L757 619L688 660Q671 612 637 571L637 571Q577 587 505 619L505 619L501 600Q530 583 558 568Q586 553 615 537L615 537Q548 461 490 437L490 437L498 420Q536 432 573 454.50Q610 477 643 515L643 515Q671 491 694 473.50Q717 456 732 442L732 442Q758 409 763 452L763 452Q767 485 747 502L747 502Q740 511 718.50 523Q697 535 668 550L668 550Q675 559 689 574Q703 589 725 612L725 612ZM388 209L237 159L237 404L382 404L328 474L282 433L237 433L237 669L388 669L334 741L290 694L50 694L84 660Q115 669 156 669L156 669L190 669L190 433L63 433L97 398Q112 400 128.50 402Q145 404 164 404L164 404L190 404L190 146Q163 135 129.50 123Q96 111 47 103L47 103L94 33Q94 61 391 193L391 193L388 209ZM480 250L480 250L741 250Q708 176 624 103L624 103Q579 133 542 169Q505 205 480 250ZM744 278L388 278L423 244L451 250Q497 153 590 70L590 70Q533 27 455-3Q377-33 275-60L275-60L282-82Q466-52 624 36L624 36Q750-63 858-85L858-85Q865-57 936-31L936-31L936-21Q858-12 791 9Q724 30 675 70L675 70Q749 150 801 237L801 237L835 250L776 307L744 278Z"/></svg>