<svg id="U24DE2" viewBox="0 0 1024 1024"><path transform="translate(0, 921.6) scale(1,-1)" d="M260 364L260 364Q197 324 148.50 301.50Q100 279 68 270L68 270L118 212Q148 263 260 345L260 345Q234 69 84-69L84-69L94-82Q217 17 260 125L260 125Q285 179 295.50 236Q306 293 311 354L311 354Q314 412 314.50 486Q315 560 315 648L315 648L947 648L876 722L827 673L615 673Q651 711 627 744L627 744Q615 761 589.50 781Q564 801 531 825L531 825L521 815Q538 790 550 769.50Q562 749 569 735L569 735Q576 717 579.50 701Q583 685 589 673L589 673L315 673L257 712Q259 665 259.50 578Q260 491 260 364ZM111 609L111 609L102 596Q138 536 144 486L144 486Q158 427 182 457L182 457Q211 491 192 525L192 525Q183 541 163 561.50Q143 582 111 609ZM557 48L495 106Q454 53 395.50 8Q337-37 260-73L260-73L273-86Q401-45 515 32L515 32L557 48ZM692 90L692 90L682 77Q737 39 775.50 6.50Q814-26 834-53L834-53Q873-111 892-69L892-69Q908-28 866 9L866 9Q842 28 799 46.50Q756 65 692 90ZM460 564L405 586Q405 557 408 498Q411 439 411 351L411 351L411 135L302 135L337 99Q352 107 361.50 108Q371 109 377 109L377 109L956 109L902 170L853 135L821 135L821 532L850 548L798 590L769 564L460 564ZM460 348L460 428L769 428L769 348L460 348ZM460 238L460 322L773 322L773 238L460 238ZM460 135L460 212L773 212L773 135L460 135ZM463 454L463 535L769 535L769 454L463 454Z"/></svg>