<svg id="U24AFB" viewBox="0 0 1024 1024"><path transform="translate(0, 921.6) scale(1,-1)" d="M148 599L148 453L58 453L96 422Q113 426 134.50 427Q156 428 182 428L182 428L255 428Q257 397 257.50 368.50Q258 340 258 312L258 312Q258 283 257.50 253Q257 223 255 192L255 192L312 214Q309 234 308.50 279.50Q308 325 308 391L308 391L336 416L284 428L485 428L428 491L390 453L321 453L321 607L457 607L410 674L372 636L321 636L321 746L349 774L271 807Q273 772 273.50 737Q274 702 274 664L274 664L274 453L198 453L198 664L226 687L145 725Q147 691 147.50 658.50Q148 626 148 599L148 599ZM233 334L161 375Q156 294 71 132L71 132L87 123Q115 163 137 197Q159 231 173 258L173 258Q198 310 233 334L233 334ZM447 286L378 331Q351 220 271 113L271 113Q192 17 62-62L62-62L65-80Q287 2 416 262L416 262L447 286ZM621 687L621 687L621 91Q621 56 601 38L601 38L639-17Q656 7 677.50 35Q699 63 727 91L727 91Q734 72 737 56.50Q740 41 743 25L743 25Q750-7 775 22L775 22Q794 49 784 91L784 91Q774 125 699 195L699 195L686 183Q696 164 704 147Q712 130 718 113L718 113L665 72L665 696Q685 700 708.50 703.50Q732 707 755 715L755 715Q751 642 753.50 568.50Q756 495 759 425L759 425Q768 273 799 164L799 164Q830 43 881-20L881-20Q904 8 945 3L945 3L945 16Q891 51 847 177L847 177Q807 286 796 425L796 425Q790 488 785.50 561Q781 634 781 718L781 718Q813 723 839 728.50Q865 734 881 737L881 737L829 797Q775 752 532 699L532 699L488 728Q488 646 489 562.50Q490 479 488 394L488 394Q488 222 451 132L451 132Q418 34 343-42L343-42L352-55Q418 1 466 66L466 66Q503 141 523 221L523 221Q535 309 535 674L535 674Q557 676 578 679Q599 682 621 687Z"/></svg>