<svg id="U24C7B" viewBox="0 0 1024 1024"><path transform="translate(0, 921.6) scale(1,-1)" d="M389 198L389 663L424 692L366 750L340 714L127 714L81 750Q84 718 84 695L84 695Q84 673 84 666L84 666L84 208Q84 178 84 140L84 140Q84 103 81 56L81 56L127 85L127 137L342 137L342 89L392 108Q389 127 389 150L389 150Q389 174 389 198L389 198ZM260 447L260 688L342 688L342 447L260 447ZM127 166L127 421L211 421L211 166L127 166ZM260 166L260 421L342 421L342 166L260 166ZM127 447L127 688L211 688L211 447L127 447ZM627 269L627 505L801 505L801 269L627 269ZM572 193L572 193L627 211L627 243L685 243L685 18L518 18L518 708L685 708L685 530L621 530L572 563Q572 516 575.50 467Q579 418 579 372L579 372Q579 325 575.50 280Q572 235 572 193ZM856 305L856 492L885 514L837 566L801 530L737 530L737 708L941 708L875 782L821 734L508 734L460 766Q462 727 462.50 692.50Q463 658 463 624L463 624L463 31L440 8L482-38L508-6L943-6L888 53L827 18L737 18L737 243L801 243L801 208L859 227Q855 269 855.50 287Q856 305 856 305L856 305Z"/></svg>