<svg id="U2417D" viewBox="0 0 1024 1024"><path transform="translate(0, 921.6) scale(1,-1)" d="M113 784L107 772Q159 710 179 671L179 671Q198 626 211 656L211 656Q225 688 211 715L211 715Q191 741 113 784L113 784ZM58 576L52 565Q103 503 113 460L113 460Q128 418 145 438L145 438Q165 464 158 495L158 495Q150 530 58 576L58 576ZM62 211L62 211L62 196Q135 174 135 136L135 136Q135 116 131.50 91Q128 66 120 35L120 35Q109-23 145-45L145-45Q181-65 176 20L176 20Q173 69 173 101L173 101Q173 133 173 155L173 155Q175 175 177.50 197Q180 219 186 243L186 243Q192 264 209 357.50Q226 451 255 617L255 617L239 621Q160 230 138 221L138 221Q116 202 62 211ZM498 146L466 108L425 108L425 149L444 170L372 193Q374 159 376 136.50Q378 114 378 108L378 108L220 108L255 73Q292 79 328 79L328 79L378 79L378-4L192-4L230-45Q263-35 312-35L312-35L608-35L551 29L516-4L425-4L425 79L554 79L498 146ZM564 524L564 524L583 545L542 583L523 552L428 552L428 602L469 602L469 596L516 612Q513 627 513 646L513 646Q513 665 513 687L513 687L592 687L542 747L510 712L513 712L513 759L532 779L469 797L469 712L346 712L346 759L365 779L299 804L299 712L223 712L255 678Q261 680 273 683.50Q285 687 299 687L299 687L299 593L346 599L346 602L384 602L384 552L299 552L255 571L255 406L295 419L295 429L384 429L384 382L233 382L261 347Q275 349 290.50 351.50Q306 354 328 354L328 354L378 354L372 313L211 313L243 275Q277 284 315 284L315 284L365 284Q347 240 312 208L312 208Q295 194 270 178.50Q245 163 214 152L214 152L214 139Q302 157 349 196L349 196Q392 230 413 284L413 284L608 284L554 344L526 313L419 313L425 354L583 354L529 410L503 382L428 382L428 429L523 429L523 419L567 435Q564 448 564 524ZM346 630L346 687L469 687L469 630L346 630ZM295 457L295 524L384 524L384 457L295 457ZM428 457L428 524L523 524L523 457L428 457ZM425 272L425 272L419 265Q470 227 501 204.50Q532 182 542 170L542 170Q561 145 567 177L567 177Q567 212 551 224L551 224Q544 231 534.50 235Q525 239 513 246L513 246Q502 248 480 253.50Q458 259 425 272ZM652 699L608 732Q608 700 609.50 670Q611 640 611 612L611 612L611 363Q611 329 609.50 300Q608 271 608 243L608 243L662 255L662 272L873 272Q856 45 840 29L840 29Q828 5 806-1L806-1Q788-1 706 16L706 16L702 5Q773-18 794-73L794-73Q843-52 876-16L876-16Q907 22 917 268L917 268L938 293L885 331L873 300L662 300L662 369L951 369L891 435L856 401L662 401L662 479L825 479L825 454L878 476Q876 504 876 533L876 533Q876 563 876 596L876 596L876 674L897 699L840 735L822 699L699 699Q715 723 729.50 740Q744 757 755 772L755 772L775 788L714 820Q710 796 701.50 765.50Q693 735 677 699L677 699L652 699ZM662 576L825 576L825 504L662 504L662 576ZM662 674L825 674L825 602L662 602L662 674ZM784 249L784 249L775 243Q781 214 787.50 190Q794 166 794 146L794 146Q796 103 819 117L819 117Q838 136 835 167L835 167Q827 182 815.50 201Q804 220 784 249ZM570 70L570 70Q596 64 611 92L611 92Q624 111 624 205L624 205L608 205Q593 126 567 98L567 98Q543 70 570 70ZM677 85L677 85Q700 98 696 126L696 126Q696 153 652 211L652 211L645 208Q650 177 653 151.50Q656 126 652 108L652 108Q652 64 677 85ZM755 105L755 105Q766 124 759 158L759 158Q750 172 737 190.50Q724 209 709 231L709 231L702 224Q711 198 716.50 174Q722 150 727 126L727 126Q731 80 755 105Z"/></svg>