<svg id="U24180" viewBox="0 0 1024 1024"><path transform="translate(0, 921.6) scale(1,-1)" d="M108 766L105 756Q161 696 180 658L180 658Q196 607 218 646L218 646Q233 681 212 702L212 702Q198 726 108 766L108 766ZM53 566L50 558Q99 489 108 450L108 450Q121 405 146 428L146 428Q168 450 156 488L156 488Q144 524 53 566L53 566ZM56 214L56 214L56 198Q123 176 123 139L123 139Q123 117 119.50 92.50Q116 68 111 38L111 38Q107-23 146-42L146-42Q190-63 180 22L180 22Q175 67 174.50 100Q174 133 174 154L174 154Q178 175 181 197.50Q184 220 187 239L187 239Q191 263 209.50 353Q228 443 259 607L259 607L243 611Q199 419 170.50 323Q142 227 130 218L130 218Q108 205 56 214ZM791 803L747 778L401 778L347 794Q347 765 349 743.50Q351 722 351 705L351 705L351 617Q351 594 349 572Q347 550 347 529L347 529L401 542L401 545L791 545Q768 468 747 447L747 447Q728 423 599 447L599 447L596 435Q684 414 700 384L700 384Q760 393 791 428L791 428Q816 464 845 542L845 542L873 561L814 592L788 570L609 570L609 617L832 617L782 674L744 643L609 643L609 687L814 687L769 737L725 715L609 715L609 753L848 753L791 803ZM401 753L558 753L558 715L401 715L401 753ZM401 643L401 687L558 687L558 643L401 643ZM401 617L558 617L558 570L401 570L401 617ZM637 538L647 545Q757 506 729 473L729 473Q697 435 688 473L688 473Q679 487 666.50 503Q654 519 637 538L637 538ZM534 532L524 526Q562 488 574 463L574 463Q583 434 612 463L612 463Q639 488 534 532L534 532ZM432 520L432 520L423 514Q435 492 443 474.50Q451 457 454 440L454 440Q458 397 493 435L493 435Q521 463 432 520ZM375 522L375 522L360 522Q332 467 290 444L290 444Q259 423 303 416L303 416Q356 411 375 522ZM511 403L480 372L297 372L249 391Q252 367 252.50 347.50Q253 328 253 312L253 312L253 201Q253 178 252.50 155Q252 132 249 113L249 113L300 119L300 126L521 126Q504 10 486-5L486-5Q464-24 398-1L398-1L395-17Q452-37 464-77L464-77Q515-62 534-20L534-20Q537-2 546.50 33.50Q556 69 568 123L568 123L583 145L539 192L521 154L423 154L423 208L552 208L514 258L493 233L423 233L423 277L549 277L511 334L473 306L423 306L423 347L562 347L511 403ZM300 347L379 347L379 306L300 306L300 347ZM300 233L300 277L379 277L379 233L300 233ZM300 208L379 208L379 154L300 154L300 208ZM426 116L426 116L420 110Q451 69 454 38L454 38Q464 2 486 38L486 38Q507 68 426 116ZM357 116L347 110Q360 91 367.50 73Q375 55 379 38L379 38Q384 0 408 41L408 41Q427 68 357 116L357 116ZM297 104L297 104L287 98Q303 65 310 22L310 22Q317-5 338 19L338 19Q364 48 297 104ZM269 101L269 101L262 101Q252 71 241 54Q230 37 218 25L218 25Q193 0 231-1L231-1Q269-6 269 101ZM864 403L832 372L640 372L596 391Q596 367 597.50 347.50Q599 328 599 312L599 312L599 201Q599 178 597.50 155Q596 132 596 113L596 113L647 119L647 126L867 126Q848 9 835-5L835-5Q818-23 744-1L744-1L738-17Q799-37 810-77L810-77Q838-69 855.50-52Q873-35 883-17L883-17Q887 0 895.50 36Q904 72 911 123L911 123L933 145L886 192L867 154L769 154L769 208L899 208L861 258L835 233L769 233L769 277L892 277L855 334L826 306L769 306L769 347L908 347L864 403ZM647 347L725 347L725 306L647 306L647 347ZM647 233L647 277L725 277L725 233L647 233ZM647 208L725 208L725 154L647 154L647 208ZM773 116L773 116L766 110Q778 91 785.50 73.50Q793 56 801 38L801 38Q809 4 832 38L832 38Q854 66 773 116ZM700 116L694 110Q715 70 725 38L725 38Q731 9 753 41L753 41Q774 69 700 116L700 116ZM640 104L640 104L634 98Q650 65 656 22L656 22Q656-13 684 19L684 19Q707 51 640 104ZM615 101L615 101L609 101Q587 47 562 25L562 25Q542 0 577-1L577-1Q615-7 615 101Z"/></svg>