<svg id="U246AC" viewBox="0 0 1024 1024"><path transform="translate(0, 921.6) scale(1,-1)" d="M663 542L773 542L723 602L685 570L531 570L572 532Q605 542 663 542L663 542ZM493-83L493-83L547-58L547-17L811-17L811-80L865-45Q862-23 862 18L862 18Q862 60 862 126L862 126L887 148L837 192L802 157L547 157L506 192Q509 204 511 217Q513 230 515 242L515 242L783 242L783 208L837 233Q831 261 830.50 312Q830 363 830 438L830 438L858 457L808 504L780 476L518 476L471 501Q475 415 471 327L471 327Q469 282 463 242.50Q457 203 452 173L452 173Q435 108 399 54L399 54Q382 27 363 4Q344-19 320-45L320-45L326-55Q354-33 381.50-12Q409 9 430 38L430 38Q450 67 467 100Q484 133 497 170L497 170Q497 70 495 9Q493-52 493-83ZM783 447L783 375L518 375L518 447L783 447ZM811 132L811 10L547 10L547 132L811 132ZM518 268L518 347L783 347L783 268L518 268ZM960 545L960 545L960 561Q894 564 811 617L811 617Q773 644 736.50 677Q700 710 670 753L670 753L701 774L629 815Q617 782 591.50 742.50Q566 703 534 655L534 655Q499 606 455.50 562.50Q412 519 358 479L358 479L364 463Q417 492 462.50 527Q508 562 547 602L547 602Q582 640 610 673Q638 706 657 737L657 737Q676 699 699.50 662Q723 625 755 595L755 595Q824 530 890 501L890 501Q904 534 960 545ZM371 592L326 555L292 555L292 753L317 778L238 815Q240 749 240.50 683.50Q241 618 241 555L241 555L163 555L184 643L216 668L138 712Q121 494 63 337L63 337L73 327Q95 360 116 409.50Q137 459 159 526L159 526L241 526L241 303Q190 273 146 255.50Q102 238 67 227L67 227L108 154L128 183L241 252L241 75Q241 32 240.50-8Q240-48 238-90L238-90L295-70Q292-28 292 14L292 14Q292 56 292 98L292 98L292 283L408 365L402 381L292 324L292 526L415 526L371 592Z"/></svg>