<svg id="U24635" viewBox="0 0 1024 1024"><path transform="translate(0, 921.6) scale(1,-1)" d="M265 493L265 609L775 609L775 493L265 493ZM829 735L829 735L860 767L798 817L772 773L271 773L208 811Q211 760 211.50 713Q212 666 212 615L212 615Q212 563 211.50 512.50Q211 462 208 408L208 408L265 442L265 468L775 468L775 417L832 455Q829 483 829 553L829 553Q829 623 829 735ZM265 638L265 745L775 745L775 638L265 638ZM485-91L485-91L545-65Q542-32 542 15L542 15Q542 62 542 131L542 131L958 131L891 203L839 156L542 156L542 291L879 291L816 367L763 316L542 316L542 389L577 417L485 455Q485 434 487 400.50Q489 367 489 316L489 316L284 316Q296 333 307.50 350.50Q319 368 331 386L331 386L372 396L290 448Q264 379 227 313L227 313Q206 280 182 243.50Q158 207 130 175L130 175L139 165Q172 188 204 218.50Q236 249 265 291L265 291L489 291L489 156L65 156L103 118Q117 122 138 126.50Q159 131 183 131L183 131L489 131Q489 58 487 2.50Q485-53 485-91Z"/></svg>