<svg id="U2487B" viewBox="0 0 1024 1024"><path transform="translate(0, 921.6) scale(1,-1)" d="M884 563L852 461L865 455Q920 552 963 563L963 563L909 628L884 591L717 591Q725 611 735.50 649Q746 687 761 741L761 741L789 761L720 805Q705 702 681.50 605Q658 508 623 417L623 417L635 408Q653 436 673 475.50Q693 515 711 563L711 563L884 563ZM884-62L884-62Q902-34 950-34L950-34L950-21Q907 9 855 144L855 144Q834 210 817.50 288.50Q801 367 789 458L789 458L811 483L739 521Q739 299 701 168L701 168Q669 43 572-69L572-69L575-85Q613-54 648.50-15.50Q684 23 714 74L714 74Q769 180 780 363L780 363Q784 299 792 239.50Q800 180 814 128L814 128Q843 19 884-62ZM399 427L399 524L469 524L469 427L399 427ZM510 427L510 524L578 524L578 427L510 427ZM399 304L399 401L469 401L469 304L399 304ZM510 304L510 401L578 401L578 304L510 304ZM510 59L510 59L510 278L578 278L578 247L623 266Q620 299 619.50 363Q619 427 619 518L619 518L651 537L600 591L578 553L510 553L510 641L663 641L619 713L578 669L510 669L510 758L534 779L465 811Q465 772 467 736.50Q469 701 469 669L469 669L333 669L367 635Q384 637 401 639Q418 641 440 641L440 641L469 641L469 553L399 553L351 581Q356 530 357 488Q358 446 358 411L358 411Q358 375 357 330Q356 285 351 231L351 231L399 254L399 278L446 278Q384 90 307-3L307-3L314-16Q362 19 398 77Q434 135 469 216L469 216Q469 143 467 70.50Q465-2 465-75L465-75L515-44Q511-11 510.50 14Q510 39 510 59ZM503 229L497 216Q532 177 556 145.50Q580 114 591 90L591 90Q597 63 607.50 60.50Q618 58 626 77L626 77Q648 117 626 146L626 146Q615 166 503 229L503 229ZM89 767L89 767L80 754Q120 721 149 684.50Q178 648 197 615L197 615Q166 570 133.50 528.50Q101 487 63 455L63 455L73 442Q111 470 146 504.50Q181 539 213 581L213 581Q220 560 225.50 533Q231 506 241 474L241 474Q195 359 163 304L163 304Q143 272 117.50 233.50Q92 195 60 149L60 149L60 134Q118 186 168.50 251Q219 316 254 401L254 401Q263 189 251 111L251 111Q242 23 204 14L204 14Q184 11 159.50 11.50Q135 12 98 18L98 18L98 8Q180-26 191-75L191-75Q254-53 276 2L276 2Q290 34 298 100.50Q306 167 305 272L305 272Q301 478 245 615L245 615Q261 634 283 668.50Q305 703 339 748L339 748L364 754L310 811Q291 766 271.50 726Q252 686 225 650L225 650Q171 720 89 767Z"/></svg>