<svg id="U24FE6" viewBox="0 0 1024 1024"><path transform="translate(0, 921.6) scale(1,-1)" d="M610 606L610 606Q619 612 629 624.50Q639 637 654 653L654 653L843 653Q807 591 726 515L726 515Q639 434 480 373L480 373L487 357Q560 378 620.50 405Q681 432 729 468L729 468Q774 499 816 542.50Q858 586 896 644L896 644L928 663L878 713L843 682L667 682L701 735L726 751L663 798Q640 738 606 669L606 669Q585 631 560 597.50Q535 564 500 537L500 537L506 527Q522 536 543.50 554Q565 572 594 594L594 594Q608 576 619.50 558.50Q631 541 638 518L638 518Q659 477 673 499L673 499Q689 521 685 546L685 546Q678 555 660 572Q642 589 610 606ZM688 301L688 301L884 301Q802 133 695 62L695 62Q641 23 576-4Q511-31 436-50L436-50L440-65Q516-51 584.50-28Q653-5 714 26L714 26Q777 62 831 125Q885 188 934 282L934 282L972 307L919 360L884 326L704 326L745 380L780 393L714 442Q696 409 676.50 374Q657 339 629 301L629 301Q602 259 567.50 227.50Q533 196 493 168L493 168L500 159Q576 194 616 234L616 234Q630 211 641 185Q652 159 657 134L657 134Q670 87 691 108L691 108Q713 133 704 165L704 165Q690 192 629 241L629 241Q642 253 657 268Q672 283 688 301ZM238 398L238 398L421 398Q401 329 378.50 278.50Q356 228 336 188L336 188Q271 281 238 398ZM547 606L547 606L493 666L456 638L358 638L358 751L380 770L302 808Q304 786 304.50 760.50Q305 735 305 707L305 707L305 638L200 638L140 669Q142 626 142.50 570Q143 514 143 439L143 439Q143 290 125 185L125 185Q120 128 101 75.50Q82 23 52-28L52-28L57-34Q130 48 159 152L159 152Q176 204 184 264.50Q192 325 197 398L197 398L220 398Q233 326 254.50 263.50Q276 201 305 146L305 146Q271 89 220.50 37Q170-15 104-69L104-69L108-82Q171-51 229.50-3.50Q288 44 336 105L336 105Q347 85 361.50 66.50Q376 48 395 30L395 30Q414 13 432-2Q450-17 471-31L471-31Q484 6 541 2L541 2L541 11Q517 20 492.50 31Q468 42 449 62L449 62Q412 89 364 144L364 144Q428 256 469 383L469 383L497 404L452 458L421 424L358 424L358 612L462 612L421 509L433 502Q447 521 459.50 536Q472 551 487 568L487 568Q502 594 547 606ZM197 424L197 612L305 612L305 424L197 424Z"/></svg>