<svg id="U24118" viewBox="0 0 1024 1024"><path transform="translate(0, 921.6) scale(1,-1)" d="M136 774L133 762Q191 703 208 664L208 664Q222 612 240 652L240 652Q257 678 236 709L236 709Q222 730 136 774L136 774ZM75 573L72 563Q129 492 136 460L136 460Q152 419 171 438L171 438Q191 458 186 494L186 494Q176 531 75 573L75 573ZM78 224L78 224L78 211Q155 188 155 148L155 148Q155 102 142 51L142 51Q131-8 171-29L171-29Q215-46 205 38L205 38Q200 83 199.50 114.50Q199 146 199 167L199 167Q203 188 206 209Q209 230 215 252L215 252Q219 272 239.50 362Q260 452 294 614L294 614L274 620Q184 241 161 227L161 227Q136 215 78 224ZM564 810L564 810L557 803Q576 781 591 762Q606 743 618 728L618 728Q631 694 655 728L655 728Q669 754 646 778L646 778Q632 784 612.50 793Q593 802 564 810ZM873 684L850 627L860 623Q867 628 875 637Q883 646 895 658L895 658Q922 678 952 687L952 687L898 740L870 709L375 709L375 740L366 740Q347 682 315 652L315 652Q289 625 309 614L309 614Q337 604 353 623L353 623Q371 637 375 684L375 684L873 684ZM577 517L577 517L598 545L549 576L526 548L407 548L356 573Q360 522 361 480Q362 438 362 396L362 396Q362 361 361 319.50Q360 278 356 236L356 236L407 245L407 265L530 265L530 239L580 262Q577 277 577 517ZM407 457L407 522L530 522L530 457L407 457ZM407 375L407 432L530 432L530 375L407 375ZM407 293L407 350L530 350L530 293L407 293ZM854 517L854 517L876 535L829 576L809 548L696 548L646 573Q646 522 649 475.50Q652 429 652 381L652 381Q652 336 649 298.50Q646 261 646 233L646 233L696 242L696 265L809 265L809 239L857 255Q854 283 854 348L854 348Q854 414 854 517ZM696 457L696 522L809 522L809 457L696 457ZM696 375L696 432L809 432L809 375L696 375ZM696 293L696 350L809 350L809 293L696 293ZM312 63L312 63L322 51Q359 71 390.50 93.50Q422 116 448 145L448 145Q479 110 507 83.50Q535 57 561 38L561 38Q509 5 430-17Q351-39 240-58L240-58L240-74Q487-49 598 13L598 13Q724-61 857-83L857-83Q873-50 927-36L927-36L927-20Q760-29 639 38L639 38Q672 59 699 79.50Q726 100 750 116L750 116Q793 150 822 164L822 164L772 224L737 195L489 195Q495 199 504 206.50Q513 214 530 224L530 224L472 262Q464 240 454.50 220.50Q445 201 438 192L438 192L403 214L394 205L420 173Q400 147 373.50 119.50Q347 92 312 63ZM472 164L472 164L482 164L734 164Q664 97 598 60L598 60Q550 90 472 164ZM907 611L907 611Q883 624 873 620L873 620Q859 614 819 614L819 614Q800 614 781.50 617Q763 620 744 623L744 623Q709 623 716 687L716 687L672 687Q672 665 672.50 647Q673 629 678 620L678 620Q681 590 724 586L724 586Q748 578 767 577Q786 576 804 576L804 576L876 576Q911 576 917 586L917 586Q921 596 907 611ZM545 687L492 687Q480 599 303 583L303 583L303 566Q357 566 441 589L441 589Q519 610 545 687L545 687Z"/></svg>