<svg id="U2467C" viewBox="0 0 1024 1024"><path transform="translate(0, 921.6) scale(1,-1)" d="M245 321L245 321L295 337L295 447L487 447L487 413Q487 392 465 388L465 388Q453 388 431 388.50Q409 389 377 394L377 394L377 378Q458 361 462 324L462 324Q537 342 537 394L537 394L537 592L562 614L515 661L484 630L279 630Q303 661 333 699L333 699L600 699L544 762L497 725L351 725Q355 727 362 736.50Q369 746 380 762L380 762L408 781L343 815Q320 756 295 725L295 725L114 725L150 687L191 699L273 699Q202 586 89 494L89 494L96 479Q148 508 185.50 537Q223 566 248 595L248 595L248 409Q248 393 247.50 371.50Q247 350 245 321ZM295 548L295 604L487 604L487 548L295 548ZM295 473L295 520L487 520L487 473L295 473ZM761 769L670 803Q670 761 666.50 727.50Q663 694 663 664L663 664L562 664L597 630Q613 632 628 634Q643 636 660 636L660 636Q637 450 525 324L525 324L541 314Q679 412 714 636L714 636L818 636Q812 543 807.50 487.50Q803 432 796 416L796 416Q780 380 680 413L680 413L676 396Q748 370 755 321L755 321Q831 339 849 403L849 403Q855 438 861.50 495Q868 552 871 630L871 630L903 655L843 705L814 664L717 664L729 749L761 769ZM541 110L541 205L852 205L789 277L739 233L541 233L541 280L562 306L484 334Q484 311 485.50 293Q487 275 487 262L487 262L487 233L314 233L358 274L399 286L323 337Q302 289 264 236Q226 183 169 126L169 126L179 116Q251 157 289 205L289 205L487 205L487 110L92 110L128 72Q155 85 210 85L210 85L487 85L487 60Q487 6 485.50-31Q484-68 484-90L484-90L544-74Q541-23 541 11L541 11Q541 45 541 66L541 66L541 85L934 85L871 157L824 110L541 110Z"/></svg>