<svg id="U24C53" viewBox="0 0 1024 1024"><path transform="translate(0, 921.6) scale(1,-1)" d="M238 604L238 698L480 698L480 604L238 604ZM535 604L535 698L787 698L787 604L535 604ZM238 488L238 578L480 578L480 488L238 488ZM535 488L535 578L787 578L787 488L535 488ZM480 724L480 724L238 724L180 743Q183 709 183.50 669.50Q184 630 184 585L184 585Q184 539 183.50 501Q183 463 180 427L180 427L238 443L238 462L480 462Q480 447 478.50 430.50Q477 414 477 398L477 398L538 417Q535 417 535 462L535 462L787 462L787 427L845 453Q839 475 838.50 502.50Q838 530 838 567L838 567L838 685L870 708L812 756L781 724L535 724L535 756L561 785L477 817Q477 790 478.50 767.50Q480 745 480 724ZM232 198L232 288L477 288L477 198L232 198ZM532 198L532 288L777 288L777 198L532 198ZM232 82L232 169L477 169L477 82L232 82ZM532 82L532 169L777 169L777 82L532 82ZM477 317L477 317L232 317L174 337Q176 300 176.50 262.50Q177 225 177 179L177 179Q177 135 176.50 92Q176 49 174 8L174 8L232 30L232 56L477 56Q477 13 476.50-23Q476-59 474-94L474-94L535-73Q532-54 532-23L532-23Q532 8 532 56L532 56L777 56L777 4L835 27Q825 70 832 150L832 150L832 282L858 308L796 356L770 317L532 317L532 333L554 359L474 398Q476 366 476.50 345Q477 324 477 317Z"/></svg>