<svg id="U249B9" viewBox="0 0 1000 1000"><path transform="translate(0, 900) scale(1,-1)" d="M513 390L836 390L836 308L513 308ZM513 252L836 252L836 168L513 168ZM513 528L836 528L836 447L513 447ZM569 98C521 50 438 4 359-25C375-38 403-67 415-81C494-46 586 12 643 74ZM726 62C791 21 870-40 908-81L970-36C929 5 847 63 784 102ZM41 100L57 23C149 53 274 93 391 131L381 204L252 163L252 411L352 411L352 483L252 483L252 700L372 700L372 772L52 772L52 700L182 700L182 483L66 483L66 411L182 411L182 141C129 125 80 111 41 100ZM643 840L643 588L438 588L438 109L915 109L915 588L719 588L719 676L950 676L950 740L719 740L719 840Z"/></svg>