<svg id="U24712" viewBox="0 0 1024 1024"><path transform="translate(0, 921.6) scale(1,-1)" d="M449 241L449 380L641 380L641 323Q584 315 546.50 311Q509 307 490 307L490 307L515 257Q548 276 629 294L629 294Q669 299 705 307Q741 315 777 323L777 323Q781 311 788.50 303Q796 295 799 288L799 288Q809 272 821 298L821 298Q828 320 808 342L808 342Q799 351 781 358.50Q763 366 745 376L745 376L739 367Q749 349 767 339L767 339L685 326L685 380L878 380L878 307Q878 280 852 275L852 275Q838 275 812 275.50Q786 276 749 282L749 282L749 266Q847 253 858 209L858 209Q918 235 922 282L922 282L922 367L950 386L903 437L875 404L685 404L685 455L824 455L824 439L871 458Q865 474 865 591L865 591L893 606L843 656L814 625L510 625L459 653Q463 632 464 603.50Q465 575 465 540L465 540Q465 507 464 479Q463 451 459 433L459 433L506 442L506 455L641 455L641 404L446 404L395 433Q398 409 398.50 382Q399 355 399 323L399 323Q399 289 398.50 263.50Q398 238 395 222L395 222L449 241ZM824 597L824 553L685 553L685 597L824 597ZM824 527L824 480L685 480L685 527L824 527ZM641 597L641 553L506 553L506 597L641 597ZM641 527L641 480L506 480L506 527L641 527ZM843 11L685 0L685 70L843 70L843 55L887 67Q884 80 884 159L884 159L906 172L865 213L837 190L685 190L685 222L711 244L632 270Q632 248 635 227.50Q638 207 638 190L638 190L484 190L430 222Q432 193 434 167.50Q436 142 436 121L436 121Q436 100 434 78.50Q432 57 430 33L430 33L484 49L484 70L638 70L638 0Q449-9 380-9L380-9L411-78Q436-56 858-9L858-9Q884-40 896-62L896-62Q907-88 922-60L922-60Q938-26 915 0L915 0Q891 27 808 67L808 67L799 52Q810 44 820.50 33Q831 22 843 11L843 11ZM484 96L484 165L638 165L638 96L484 96ZM685 96L685 165L843 165L843 96L685 96ZM351 597L314 556L279 556L279 741L310 770L232 808Q234 742 234.50 679.50Q235 617 235 556L235 556L163 556L181 647L204 669L135 697Q125 595 111 517Q97 439 73 376L73 376L89 373Q111 399 156 530L156 530L235 530L235 307Q145 254 80 237L80 237L117 181L138 203Q163 220 186 234Q209 248 235 263L235 263L235 90Q235 47 234.50 3.50Q234-40 232-85L232-85L282-65Q279-19 279 24L279 24Q279 68 279 111L279 111L279 285L392 360L387 376L279 326L279 530L399 530L351 597ZM670 697L623 745L588 726L565 726L565 754L591 782L510 811Q510 777 511.50 761Q513 745 513 745L513 745L513 723L387 723L418 691Q434 693 454 693.50Q474 694 493 694L493 694L513 694L513 666Q513 658 511.50 651Q510 644 510 635L510 635L569 650Q565 659 565 672L565 672L565 697L670 697ZM944 704L893 764L855 729L818 729L818 761L846 786L761 808Q761 793 762.50 779Q764 765 764 751L764 751L764 726L663 726L701 697Q718 697 732.50 697.50Q747 698 764 704L764 704L764 679Q764 664 762.50 654.50Q761 645 761 638L761 638L821 650Q818 666 818 679L818 679L818 704L944 704Z"/></svg>