<svg id="U24ABA" viewBox="0 0 1000 1000"><path transform="translate(0, 900) scale(1,-1)" d="M805 574C788 540 757 491 733 457L689 457L689 579C751 587 809 597 853 609L817 659C734 634 578 620 456 615C462 600 470 578 472 564C519 565 571 568 622 572L622 457L567 457L583 466C567 495 531 535 498 564L449 537C473 514 500 483 518 457L371 457L371 397L566 397C505 345 417 298 339 275C353 263 373 239 382 223C465 254 558 312 622 376L622 258L689 258L689 378C767 333 858 276 906 239L943 288C902 317 832 360 766 397L945 397L945 457L799 457C820 485 843 517 865 549ZM623 71L623 3L499 3L499 71ZM689 71L817 71L817 3L689 3ZM623 121L499 121L499 187L623 187ZM689 121L689 187L817 187L817 121ZM431 242L431-80L499-80L499-52L817-52L817-77L888-77L888 242ZM591 820C606 799 622 771 635 747L382 747L382 595L448 595L448 687L877 687L877 597L944 597L944 747L710 747C698 774 676 810 654 837ZM36 100L53 29C141 56 255 92 364 127L353 194L234 157L234 415L328 415L328 483L234 483L234 704L343 704L343 772L45 772L45 704L167 704L167 483L65 483L65 415L167 415L167 137C118 122 73 110 36 100Z"/></svg>