<svg id="U24168" viewBox="0 0 1024 1024"><path transform="translate(0, 921.6) scale(1,-1)" d="M130 761L127 751Q186 695 205 653L205 653Q220 604 240 641L240 641Q252 669 233 697L233 697Q221 721 130 761L130 761ZM72 563L68 553Q93 520 108.50 494.50Q124 469 130 448L130 448Q147 413 168 430L168 430Q191 447 180 483L180 483Q169 520 72 563L72 563ZM65 213L65 213L65 197Q136 177 136 144L136 144Q136 100 127 39L127 39Q115-16 155-41L155-41Q193-58 189 26L189 26Q186 71 186 103L186 103Q186 135 186 156L186 156Q188 177 191 197Q194 217 202 241L202 241Q206 259 226 343.50Q246 428 284 578L284 578L268 581Q171 236 145 216L145 216Q118 202 65 213ZM639 694L639 694Q758 605 895 584L895 584Q909 622 932 622L932 622L932 638Q775 643 639 710L639 710L904 710L847 773L798 735L639 735L639 773L668 792L590 811Q590 787 591.50 768Q593 749 593 735L593 735L309 735L346 701Q394 710 435 710L435 710L552 710Q453 641 290 591L290 591L297 578Q464 600 593 688L593 688Q593 652 591.50 627Q590 602 590 578L590 578L643 594Q640 617 639.50 642.50Q639 668 639 694ZM873 534L873 534L901 556L842 584L813 559L400 559L341 581Q345 415 341 304L341 304Q337 195 312 108L312 108Q303 65 282 21Q261-23 230-78L230-78L243-85Q309-7 346 99L346 99Q388 208 388 420L388 420L832 420L832 401L876 417Q873 438 873 467L873 467Q873 496 873 534ZM388 445L388 534L513 534L513 445L388 445ZM668 203L668 313L680 332L627 348Q627 329 629 303Q631 277 631 247L631 247L631 185L438 185L438 319L454 332L397 352Q399 320 399.50 278.50Q400 237 400 188L400 188L382 168L416 134L435 156L631 156L631 128L668 146L668 203ZM618 360L583 398Q576 377 564 357Q552 337 536 313L536 313Q524 320 506 331.50Q488 343 461 357L461 357L457 345Q497 313 520 291L520 291Q503 270 484 247.50Q465 225 441 206L441 206L444 193Q469 206 501 231L501 231Q515 243 524.50 252Q534 261 539 266L539 266Q551 251 561.50 238Q572 225 580 213L580 213Q599 188 608 206L608 206Q613 229 602 247L602 247Q596 256 585 266.50Q574 277 557 294L557 294Q568 319 590 329L590 329Q594 336 602 343.50Q610 351 618 360L618 360ZM520 247L517 241Q521 227 527 215Q533 203 533 197L533 197Q538 183 545 190L545 190Q559 195 555 213L555 213Q555 227 520 247L520 247ZM448 326L448 319Q452 308 455 295.50Q458 283 461 270L461 270Q465 234 479 260L479 260Q499 274 482 291L482 291Q477 306 448 326L448 326ZM596 323L590 319Q594 305 598.50 291Q603 277 608 266L608 266Q613 226 621 254L621 254Q633 268 627 288L627 288Q612 309 596 323L596 323ZM513 408L505 401Q520 363 523 348L523 348Q537 334 542 342L542 342Q545 348 545 367L545 367Q540 382 513 408L513 408ZM557 445L557 534L668 534L668 445L557 445ZM712 445L712 534L832 534L832 445L712 445ZM593 90L461 90L461 105L476 124L416 144Q419 117 419.50 94Q420 71 420 55L420 55L420-6Q420-28 407-47L407-47L444-82Q456-60 520-41L520-41Q548-29 584-15Q620-1 662 11L662 11L662 26L461-21L461 62L659 62L621 111L593 90ZM724 319L724 319L860 319Q838 232 791 152L791 152Q742 233 724 319ZM863 345L675 345L693 307L706 313Q715 264 732.50 213.50Q750 163 769 118L769 118Q740 67 703 25Q666-17 618-60L618-60L627-69Q667-47 708-10.50Q749 26 791 80L791 80Q847-22 904-65L904-65Q926-34 958-34L958-34L958-21Q929-18 876 26L876 26Q838 60 813 108L813 108Q838 154 859.50 202Q881 250 901 301L901 301L930 326L888 367L863 345Z"/></svg>