<svg id="U2446B" viewBox="0 0 1024 1024"><path transform="translate(0, 921.6) scale(1,-1)" d="M269 756L194 800Q196 697 196.50 609.50Q197 522 197 444L197 444Q206 291 171 170L171 170Q144 57 50-70L50-70L57-77Q192 14 231 221L231 221Q259 188 277 157.50Q295 127 304 104L304 104Q318 54 333 54L333 54Q347 49 351 82L351 82Q363 109 333 157L333 157Q301 201 235 239L235 239Q247 371 247 463L247 463Q273 491 290.50 510.50Q308 530 323 545L323 545Q336 557 349 567Q362 577 377 583L377 583L320 633Q310 604 292.50 567Q275 530 247 488L247 488L247 730L269 756ZM146 561L146 561L133 561Q108 452 79 425L79 425Q50 390 66 375L66 375Q79 353 94 365L94 365Q107 366 130 406L130 406Q146 432 146 561ZM675 384L675 312L515 312L552 274Q582 286 634 286L634 286L675 286L675 221L546 221L584 186L628 195L675 195L675 129L511 129L546 91Q582 101 631 101L631 101L675 101Q675 77 673.50 51.50Q672 26 672 3L672 3L726 34Q720 46 719.50 63.50Q719 81 719 101L719 101L912 101L845 170L808 129L719 129L719 195L861 195L792 265L754 221L719 221L719 286L877 286L827 347Q840 339 857 334Q874 329 893 324L893 324Q898 359 943 368L943 368L943 381Q879 381 836 391L836 391Q815 397 789 405Q763 413 735 428L735 428Q765 451 793.50 478.50Q822 506 848 532L848 532L871 542L827 595L798 570L650 570Q657 582 665.50 589Q674 596 681 602L681 602L619 627Q611 598 601 570.50Q591 543 578 522L578 522Q566 499 549.50 475Q533 451 515 425L515 425L524 413Q577 458 600 491L600 491Q624 470 640.50 453.50Q657 437 670 428L670 428Q640 401 595 377Q550 353 487 324L487 324L493 306Q619 342 701 403L701 403Q734 386 765.50 372Q797 358 827 347L827 347L792 312L719 312L719 331L748 350L675 384ZM616 517L634 545L795 545Q734 473 701 453L701 453Q679 465 656.50 480Q634 495 616 517L616 517ZM707 677L707 614L754 633Q751 643 751 677L751 677L924 677L855 743L817 702L751 702L751 749L779 771L701 803Q701 781 704 755.50Q707 730 707 702L707 702L544 702L544 737L572 762L496 797Q496 773 498 751Q500 729 500 702L500 702L333 702L370 664Q400 677 455 677L455 677L500 677Q500 653 498 636Q496 619 496 607L496 607L544 640L544 677L707 677ZM382 599L382 599L370 589Q412 526 420 485L420 485Q434 441 455 450L455 450Q473 469 477 497L477 497Q480 524 382 599ZM953-17L953-17L953-1Q860-10 786.50-11Q713-12 657-5L657-5Q606 0 556 18.50Q506 37 461 75L461 75L461 334L493 353L442 409L418 381L333 381L370 344L414 353L418 353L418 72Q403 58 389 43.50Q375 29 361 13L361 13Q346-4 332.50-18Q319-32 310-42L310-42L370-77Q392 5 420 34L420 34Q448 65 503 13L503 13Q561-34 653-55L653-55Q697-61 757.50-65.50Q818-70 896-74L896-74Q891-35 953-17Z"/></svg>