<svg id="U2465" viewBox="0 0 1100 1000"><path transform="translate(0, 900) scale(1,-1)" d="M50 404L50 404Q50 509 89.50 599.50Q129 690 198 758.50Q267 827 357.50 865.50Q448 904 550 904L550 904Q653 904 743.50 865.50Q834 827 903 758.50Q972 690 1011 599Q1050 508 1050 404L1050 404Q1050 301 1011 210.50Q972 120 903.50 51Q835-18 744.50-57Q654-96 550-96L550-96Q447-96 356.50-57.50Q266-19 197 50Q128 119 89 209.50Q50 300 50 404ZM100 404L100 404Q100 310 135.50 228Q171 146 233 84.50Q295 23 376.50-11.50Q458-46 550-46L550-46Q643-46 724.50-11Q806 24 868 85.50Q930 147 965 229Q1000 311 1000 404L1000 404Q1000 497 965 578.50Q930 660 868.50 722Q807 784 725 819Q643 854 550 854L550 854Q457 854 375 819Q293 784 231.50 722.50Q170 661 135 579Q100 497 100 404ZM304 357L304 357Q304 475 336 559.50Q368 644 436.50 689.50Q505 735 617 735L617 735Q645 735 666 733Q687 731 701 728L701 728L701 653Q683 659 662.50 661.50Q642 664 619 664L619 664Q501 664 448.50 599Q396 534 391 412L391 412L397 412Q423 452 463.50 470Q504 488 556 488L556 488Q648 488 700.50 435.50Q753 383 753 291L753 291Q753 188 693.50 131Q634 74 536 74L536 74Q460 74 408 110.50Q356 147 330 211Q304 275 304 357ZM393 306L393 306Q393 263 411 227Q429 191 461 169Q493 147 535 147L535 147Q599 147 632.50 184.50Q666 222 666 291L666 291Q666 351 634.50 385Q603 419 538 419L538 419Q497 419 464 403Q431 387 412 361Q393 335 393 306Z"/></svg>