<svg id="U24C17" viewBox="0 0 1024 1024"><path transform="translate(0, 921.6) scale(1,-1)" d="M822 623L295 623Q326 687 352 749L352 749L390 766L305 810Q236 556 65 362L65 362L81 353Q189 445 274 595L274 595L938 595L876 674L822 623ZM564 28L564 227L781 227L781 28L564 28ZM835 85L835 422L869 453L803 501L775 463L293 463L233 501Q235 468 235.50 405Q236 342 236 245L236 245Q236 152 235.50 69.50Q235-13 233-83L233-83L293-55L293 3L781 3L781-83L837-62Q835-23 835 10L835 10Q835 44 835 85L835 85ZM293 255L293 438L507 438L507 255L293 255ZM564 255L564 438L781 438L781 255L564 255ZM293 28L293 227L507 227L507 28L293 28Z"/></svg>