<svg id="U24B11" viewBox="0 0 1024 1024"><path transform="translate(0, 921.6) scale(1,-1)" d="M148 460L148 460Q122 398 78 355L78 355L84 350Q204 430 215 535L215 535Q227 635 227 699L227 699L284 712L284 491Q284 415 265 403L265 403L303 353Q309 369 328.50 387.50Q348 406 372 425L372 425Q378 413 382.50 399.50Q387 386 391 372L391 372Q398 352 426 388L426 388Q457 423 359 491L359 491L350 485Q366 456 366 440L366 440L328 419L328 718Q342 721 359 723.50Q376 726 397 730L397 730Q418 735 438 737.50Q458 740 479 743L479 743L441 800Q412 778 358.50 758Q305 738 224 725L224 725L174 756Q178 681 174 599L174 599Q174 501 148 460ZM530 463L530 463Q520 434 500 408.50Q480 383 457 362L457 362L467 353Q593 439 598 538L598 538Q603 589 607 629Q611 669 611 702L611 702L672 715L672 522Q672 480 666 458.50Q660 437 655 428L655 428L693 384Q707 407 763 453L763 453Q767 443 770 432Q773 421 778 409L778 409Q783 374 809 422L809 422Q833 458 740 535L740 535L734 522Q741 493 757 479L757 479L716 450L716 722Q729 724 743 727Q757 730 769 733L769 733Q769 679 774 629.50Q779 580 794 535L794 535Q815 440 886 375L886 375Q915 400 952 409L952 409L952 422Q891 431 845 522L845 522Q791 613 791 737L791 737Q809 739 830 741.50Q851 744 873 749L873 749L829 810Q777 764 605 730L605 730L557 759Q557 724 558.50 684Q560 644 557 602L557 602Q557 512 530 463ZM448 293L448 293L448 34Q440-3 426-17L426-17L470-74Q488-57 526.50-34.50Q565-12 634 13L634 13Q638 0 641.50-12Q645-24 652-39L652-39Q657-65 678-45L678-45Q696-33 703-14L703-14Q703 6 680 34L680 34Q666 49 641.50 70Q617 91 577 119L577 119L564 113Q611 55 621 31L621 31L498-1L498 293Q533 295 570 299.50Q607 304 643 309L643 309Q649 246 663 193Q677 140 693 98L693 98Q712 53 750 10.50Q788-32 845-80L845-80Q864-40 935-45L935-45L935-33Q881-19 835 9Q789 37 757 88L757 88Q683 185 665 309L665 309Q713 313 746.50 317Q780 321 806 321L806 321L757 388Q711 368 660.50 354.50Q610 341 549 334L549 334Q486 326 423.50 319.50Q361 313 294 312L294 312L236 347Q246 287 236 205L236 205Q233 162 225.50 124.50Q218 87 199 57L199 57Q171 4 72-77L72-77L81-83Q190-36 246 44L246 44Q299 128 294 286L294 286Q331 286 368 288Q405 290 448 293ZM382 684L382 684Q441 570 467 497L467 497Q490 419 508 469L508 469Q528 513 495 563L495 563Q475 588 456 611.50Q437 635 420 658L420 658Q386 699 382 684Z"/></svg>