<svg id="U246BD" viewBox="0 0 1024 1024"><path transform="translate(0, 921.6) scale(1,-1)" d="M732 794L729 784Q763 758 789 718L789 718Q807 686 824 712L824 712Q844 735 824 756L824 756Q800 774 732 794L732 794ZM480 145L490 154Q550 118 572 91L572 91Q594 59 572 28L572 28Q551 2 534 51L534 51Q527 100 480 145L480 145ZM503 485L503 570L629 570L629 485L503 485ZM673 485L673 570L811 570L811 485L673 485ZM503 381L503 463L629 463L629 381L503 381ZM673 381L673 463L811 463L811 381L673 381ZM629 692L629 692L399 692L433 658Q469 668 503 668L503 668L629 668L629 595L510 595L456 627Q456 585 457.50 540Q459 495 459 438L459 438Q459 383 457.50 328Q456 273 456 224L456 224L503 239L503 355L629 355L629 268L673 280L673 355L811 355L811 262L858 277L858 561L887 579L840 630L805 595L673 595L673 668L928 668L878 730L830 692L673 692L673 749L701 774L626 813Q626 783 627.50 753Q629 723 629 692ZM745 183L745 183L361 183L395 148Q412 150 429.50 152Q447 154 469 154L469 154L745 154L745 13Q745-7 732-11L732-11Q725-14 619-5L619-5L616-20Q710-29 723-80L723-80Q771-60 783-45L783-45Q793-21 793 10L793 10L793 154L956 154L903 221L858 183L793 183L793 218L821 233L742 268Q742 246 743.50 224.50Q745 203 745 183ZM392 579L343 538L307 538L307 718L339 749L257 787Q260 721 260.50 661Q261 601 261 538L261 538L179 538Q199 623 225 646L225 646L150 689Q140 482 73 337L73 337L86 334Q127 386 172 514L172 514L261 514L261 306Q150 253 67 229L67 229L119 164Q125 176 161.50 198Q198 220 261 258L261 258L261 91Q261 40 260.50-3Q260-46 257-86L257-86L314-67Q308-24 307.50 19Q307 62 307 113L307 113L307 283L430 362L421 375L307 324L307 514L440 514L392 579Z"/></svg>