<svg id="U248A4" viewBox="0 0 1024 1024"><path transform="translate(0, 921.6) scale(1,-1)" d="M829 696L366 696L403 664Q420 667 438 669Q456 671 479 671L479 671L958 671L895 737L829 696ZM876 576L876 576L920 589L863 640L826 611L495 611L438 640Q438 622 439.50 586.50Q441 551 441 491L441 491Q441 427 439.50 387.50Q438 348 438 324L438 324L485 340L485 362L829 362L829 337L883 359Q877 371 876.50 425.50Q876 480 876 576ZM485 388L485 586L829 586L829 388L485 388ZM765 517L765 517L791 529L747 573L716 548L608 548L557 570Q557 546 559 524Q561 502 561 479L561 479Q561 457 559 435Q557 413 557 396L557 396L602 419L602 432L719 432L719 406L769 425Q766 437 765.50 460Q765 483 765 517ZM602 457L602 520L719 520L719 457L602 457ZM678 151L678 151Q763 13 883-52L883-52Q890-6 961-11L961-11L961 6Q840 19 693 160L693 160L952 160L895 227L835 186L678 186L678 271Q739 277 787 280Q835 283 863 286L863 286L826 355Q773 325 631 303L631 303Q561 290 505 282.50Q449 275 407 271L407 271L407 258Q452 258 506.50 260.50Q561 263 627 268L627 268L627 186L362 186L400 151Q417 153 434.50 156.50Q452 160 476 160L476 160L580 160Q478 28 312-42L312-42L318-58Q508-6 627 142L627 142Q627 57 623.50 1.50Q620-54 618-80L618-80L680-58Q678-31 678 20L678 20Q678 72 678 151ZM598 810L598 810L593 800Q608 778 622 758.50Q636 739 643 722L643 722Q657 670 680 705L680 705Q705 735 680 756L680 756Q663 776 598 810ZM116 771L116 771L109 762Q151 724 181 688Q211 652 230 617L230 617Q197 574 157.50 538Q118 502 75 469L75 469L81 444Q132 472 174 506.50Q216 541 249 579L249 579Q258 558 264 531.50Q270 505 277 473L277 473Q194 286 62 151L62 151L72 132Q204 229 290 394L290 394Q305 195 287 107L287 107Q277 16 240 6L240 6Q219 3 187.50 4Q156 5 116 13L116 13L116-5Q210-34 215-83L215-83Q280-59 309 10L309 10Q345 83 341 280L341 280Q341 471 287 611L287 611Q305 632 330 663.50Q355 695 382 730L382 730L416 749L350 807Q336 764 314.50 725.50Q293 687 265 652L265 652Q206 721 116 771Z"/></svg>