<svg id="U24A21" viewBox="0 0 1000 1000"><path transform="translate(0, 900) scale(1,-1)" d="M36 100L49 30C128 57 232 92 330 126L323 193L216 156L216 415L306 415L306 482L216 482L216 705L325 705L325 772L44 772L44 705L153 705L153 482L57 482L57 415L153 415L153 136C109 121 69 109 36 100ZM862 491L862 315L739 315C740 352 741 387 741 419L741 491ZM862 554L741 554L741 730L862 730ZM680 792L680 419C680 276 673 87 595-47C611-53 637-70 647-82C702 12 726 136 735 253L862 253L862 11C862-2 858-6 847-6C835-7 798-7 758-5C767-23 775-53 777-71C835-71 871-70 894-58C917-47 924-27 924 10L924 792ZM575 487L575 364L426 364L426 487ZM575 549L426 549L426 662L575 662ZM434 815C451 787 467 752 479 722L361 722L361 90C361 44 336 12 320 0C332-15 351-49 359-66C376-45 398-27 551 81C561 55 568 30 573 10L631 35C614 101 568 204 524 282L471 260C491 223 511 181 528 140L426 70L426 303L636 303L636 722L551 722C538 757 516 801 495 835Z"/></svg>