<svg id="U244C8" viewBox="0 0 1024 1024"><path transform="translate(0, 921.6) scale(1,-1)" d="M582 307L582 404L686 404L686 307L582 307ZM532 237L532 237L582 254L582 282L686 282L686 250L737 266Q731 294 730.50 357.50Q730 421 730 524L730 524L755 543L708 581L686 550L614 550Q660 601 686 615L686 615L629 653Q620 606 594 550L594 550L578 550L532 574Q532 531 533.50 487Q535 443 535 398L535 398Q535 350 533.50 311Q532 272 532 237ZM582 430L582 524L686 524L686 430L582 430ZM607 193L607 193L349 193L380 156Q413 168 452 168L452 168L566 168L607 168L607 49L604-85L660-62L658 2L658 168L676 168L928 168L871 231L825 193L658 193L658 226L680 244L604 272Q604 255 605.50 236Q607 217 607 193ZM456 352L456 352L450 345Q454 333 462 321.50Q470 310 475 301L475 301L377 291Q412 331 434.50 362.50Q457 394 472 417L472 417Q501 460 532 483L532 483L475 521Q470 504 461.50 484Q453 464 447 445L447 445L368 445Q382 462 396 479Q410 496 424 518L424 518Q439 534 452.50 550Q466 566 478 578L478 578L418 603Q415 584 405 560Q395 536 380 509L380 509Q352 448 326 445L326 445L355 404Q364 409 385 417Q406 425 444 430L444 430Q436 420 424 401Q412 382 396 354L396 354Q364 297 333 288L333 288L359 247Q376 253 405.50 262Q435 271 478 282L478 282Q478 270 481.50 261Q485 252 485 247L485 247Q489 232 503 244L503 244Q513 248 522 266L522 266Q522 279 506 304L506 304Q490 315 456 352ZM853 452L768 448Q786 465 800.50 484.50Q815 504 825 521L825 521Q851 559 881 574L881 574L822 612Q817 590 807.50 565.50Q798 541 784 515L784 515Q753 454 730 448L730 448L758 408Q769 416 791 424Q813 432 846 439L846 439Q837 410 823.50 386Q810 362 796 342L796 342Q758 295 740 288L740 288L774 247Q788 262 884 285L884 285Q889 273 891.50 263.50Q894 254 897 247L897 247Q897 226 912 237L912 237Q917 244 923 250Q929 256 932 263L932 263Q932 283 922 294L922 294Q911 313 863 352L863 352L856 345Q861 333 868.50 321.50Q876 310 881 301L881 301L796 291Q825 331 846 362.50Q867 394 878 417L878 417Q897 453 938 486L938 486L878 524Q867 493 861 475.50Q855 458 853 452L853 452ZM270 767L192 811Q194 705 194.50 614Q195 523 195 445L195 445Q197 369 188.50 299Q180 229 166 168L166 168Q157 108 125 47Q93-14 45-72L45-72L48-82Q186 15 229 219L229 219Q291 147 311 96L311 96Q335 42 346 39L346 39Q358 35 368 74L368 74Q378 114 346 152L346 152Q326 176 298 196Q270 216 233 237L233 237Q242 375 242 468L242 468Q270 496 290 516Q310 536 321 550L321 550Q347 576 380 594L380 594L321 644Q313 612 292.50 576.50Q272 541 242 496L242 496L242 738L270 767ZM64 581L64 581L52 574Q107 485 107 442L107 442Q107 398 128 398L128 398Q154 387 160 411L160 411Q169 435 157 471L157 471Q141 516 64 581ZM456 679L472 679L472 656Q472 645 471.50 632Q471 619 469 603L469 603L525 622Q522 634 522 639L522 639Q522 644 522 644L522 644L522 679L632 679L588 735L560 704L522 704L522 754L544 776L469 808Q472 788 472 754L472 754L472 704L339 704L374 666Q390 673 412.50 676Q435 679 456 679L456 679ZM749 679L749 679L749 641Q749 636 747 626.50Q745 617 745 603L745 603L802 619Q799 631 799 646L799 646Q799 661 799 679L799 679L935 679L884 738L853 704L799 704L799 758L822 779L745 808Q745 793 747 781.50Q749 770 749 758L749 758L749 704L660 704L699 666Q725 679 749 679ZM513 93L513 93L541 96L475 140Q442 54 311-47L311-47L318-62Q372-36 421 0Q470 36 513 93ZM724 121L717 111Q774 68 809.50 33Q845-2 863-25L863-25Q893-75 910-34L910-34Q917 10 884 36L884 36Q869 50 829.50 72.50Q790 95 724 121L724 121Z"/></svg>