<svg id="U24939" viewBox="0 0 1024 1024"><path transform="translate(0, 921.6) scale(1,-1)" d="M611 677L611 677L391 677L426 643Q442 645 460.50 646.50Q479 648 501 648L501 648L611 648L611 526L476 526L426 558Q428 516 428.50 477Q429 438 429 396L429 396Q429 361 428.50 322Q428 283 426 245L426 245L485 265Q482 297 482 356L482 356Q482 416 482 501L482 501L611 501L611 384Q547 165 300 0L300 0L309-14Q519 91 611 255L611 255Q611 149 609.50 66Q608-17 608-83L608-83L668-55Q665-25 665 60L665 60Q665 145 665 290L665 290Q745 109 891-5L891-5Q916 34 958 34L958 34L958 47Q880 79 807 149.50Q734 220 665 337L665 337L665 501L804 501L804 347Q804 325 794 318L794 318Q780 307 724 318L724 318L724 306Q773 290 791 252L791 252Q807 261 820.50 269.50Q834 278 842 290L842 290Q857 306 857 344L857 344L857 481L888 501L839 561L804 526L665 526L665 648L942 648L879 722L822 677L665 677L665 737L690 766L608 810Q608 773 609.50 741.50Q611 710 611 677ZM410 233L259 177L259 422L403 422L350 481L305 447L259 447L259 677L407 677L346 756L297 702L75 702L106 668Q137 677 177 677L177 677L212 677L212 447L84 447L117 409Q134 412 151 414.50Q168 417 189 422L189 422L212 422L212 160Q185 155 149 144.50Q113 134 65 119L65 119L116 47Q116 77 413 211L413 211L410 233Z"/></svg>