<svg id="U24E28" viewBox="0 0 1024 1024"><path transform="translate(0, 921.6) scale(1,-1)" d="M249 374L249 374Q181 329 134.50 304.50Q88 280 61 274L61 274L107 216Q145 269 249 345L249 345Q238 207 195 104.50Q152 2 74-69L74-69L83-79Q204 18 249 125L249 125Q272 181 284.50 238.50Q297 296 297 357L297 357Q300 415 300.50 489Q301 563 301 648L301 648L936 648L865 722L817 677L604 677Q642 715 617 744L617 744Q592 779 520 825L520 825L510 819Q529 791 540 771.50Q551 752 559 738L559 738Q566 719 571 703.50Q576 688 578 677L578 677L304 677L247 715Q248 668 248.50 583Q249 498 249 374ZM101 612L101 612L93 599Q109 572 120 544Q131 516 136 486L136 486Q146 433 172 461L172 461Q207 490 181 525L181 525Q160 563 101 612ZM323 499L317 493Q357 417 362 377L362 377Q371 325 388 357L388 357Q398 371 402 384Q406 397 404 412L404 412Q396 445 323 499L323 499ZM285 206L285 206L320 161Q325 170 348 193Q371 216 410 258L410 258Q406 133 365 58L365 58Q326-19 269-63L269-63L278-73Q366-22 407 58L407 58Q459 129 459 267L459 267L459 554L475 580L407 615Q409 585 409.50 557Q410 529 410 499L410 499L410 283Q369 251 336 232Q303 213 285 206ZM504 496L504 25Q504-36 565-40L565-40L878-40Q947-36 962 9L962 9Q917 31 917 138L917 138L901 138Q901 96 899 70Q897 44 897 35L897 35Q897 9 881 3L881 3L587 3Q545 0 549 58L549 58L549 287Q568 262 578.50 238.50Q589 215 597 196L597 196Q612 149 623 183L623 183Q637 214 631 238L631 238Q631 265 549 303L549 303L549 357Q640 445 678 477L678 477L636 522Q628 502 608 467Q588 432 549 380L549 380L549 557L575 583L501 618Q501 589 502.50 558.50Q504 528 504 496L504 496ZM836 449L826 445Q838 409 849.50 372Q861 335 868 299L868 299Q875 260 880 231.50Q885 203 888 187L888 187Q888 140 917 177L917 177Q930 186 932.50 203.50Q935 221 933 238L933 238Q927 257 921.50 280.50Q916 304 904 328L904 328Q893 355 876 384.50Q859 414 836 449L836 449ZM765 535L765 535L765 129Q765 99 743 99L743 99Q727 94 655 106L655 106L655 90Q744 70 749 25L749 25Q813 51 813 109L813 109L813 557L833 586L762 625Q762 595 763.50 573Q765 551 765 535ZM736 377L736 377L759 406L694 441Q689 406 683 366Q677 326 665 283L665 283Q639 185 620 154L620 154L631 145Q651 174 667 203Q683 232 694 261L694 261Q713 319 736 377Z"/></svg>