<svg id="U24151" viewBox="0 0 1024 1024"><path transform="translate(0, 921.6) scale(1,-1)" d="M127 771L123 759Q179 708 202 658L202 658Q219 603 240 643L240 643Q253 674 240 702L240 702Q224 727 127 771L127 771ZM68 561L65 545Q88 517 104 492Q120 467 130 444L130 444Q147 400 164 422L164 422Q171 431 175.50 448Q180 465 174 481L174 481Q169 514 68 561L68 561ZM72 195L72 195L72 180Q148 156 148 116L148 116Q148 97 144.50 71.50Q141 46 133 16L133 16Q123-44 164-70L164-70Q203-90 199 0L199 0Q193 48 192.50 82.50Q192 117 192 139L192 139Q197 157 200 180Q203 203 208 227L208 227Q213 247 230.50 341.50Q248 436 271 604L271 604L253 607Q179 217 151 198L151 198Q139 193 120.50 191Q102 189 72 195ZM665 692L431 692L467 655Q504 664 552 664L552 664L942 664L873 733L835 692L693 692Q721 711 706 743L706 743Q696 756 678 773Q660 790 634 810L634 810L621 800Q656 745 665 692L665 692ZM530 522L530 583L602 583L602 522L530 522ZM750 522L750 583L829 583L829 522L750 522ZM709 188L709 188L958 188L888 255L850 214L785 214L785 280L901 280L832 350L794 309L785 309L785 365L927 365L860 432L822 391L785 391L785 422L809 440L737 469L737 391L608 391L608 428L637 450L561 481L561 391L444 391L482 353L523 365L561 365L561 312L476 312L513 274L555 286L561 286L561 214L403 214L441 177Q458 181 479 184.50Q500 188 523 188L523 188L574 188Q556 153 534 123.50Q512 94 485 66L485 66Q433 12 379-17L379-17L382-33Q442-8 484.50 21Q527 50 555 82L555 82L555 3Q555-20 539-42L539-42L580-83Q596-57 630.50-26.50Q665 4 716 34L716 34L709 47L598-5L598 136L637 188L687 188Q700 107 753 41L753 41Q805-21 888-70L888-70Q902-30 948-23L948-23L948-11Q920-3 892.50 4Q865 11 845 25L845 25Q792 49 781 72L781 72Q816 91 847 103Q878 115 901 123L901 123L854 177Q844 150 765 95L765 95Q722 130 709 188ZM608 309L608 365L737 365L737 309L608 309ZM608 214L608 280L737 280L737 214L608 214ZM649 583L649 583L672 604L627 640L602 607L530 607L482 636Q484 612 484.50 587Q485 562 485 538L485 538Q485 481 482 466L482 466L530 485L530 497L602 497L602 473L652 488Q649 501 649 583ZM873 579L873 579L898 602L847 640L829 607L747 607L706 636Q706 621 707.50 600Q709 579 709 551L709 551Q709 522 707.50 501Q706 480 706 469L706 469L750 485L750 497L829 497L829 469L879 485Q873 501 873 579ZM467 160L375 119L375 444L461 444L403 507L375 469L375 705L403 740L325 771Q327 729 327.50 698.50Q328 668 328 643L328 643L328 469L240 469L277 432L318 444L328 444L328 104Q290 87 264.50 76.50Q239 66 230 66L230 66L268 6Q284 22 334.50 56Q385 90 472 142L472 142L467 160Z"/></svg>