<svg id="U24E80" viewBox="0 0 1024 1024"><path transform="translate(0, 921.6) scale(1,-1)" d="M261 384L261 384Q195 332 147 304.50Q99 277 60 264L60 264L110 206Q129 227 167 265Q205 303 261 352L261 352Q240 79 89-63L89-63L102-72Q163-23 202 27.50Q241 78 261 132L261 132Q284 187 297.50 244.50Q311 302 313 364L313 364Q315 422 315.50 496Q316 570 316 655L316 655L964 655L906 732L848 684L616 684Q654 722 629 751L629 751Q605 785 532 833L532 833L526 826Q542 799 552.50 779Q563 759 571 745L571 745Q578 726 583 710.50Q588 695 590 684L590 684L316 684L258 722Q260 675 260.50 590Q261 505 261 384ZM99 603L99 603L95 590Q115 568 132.50 542.50Q150 517 158 490L158 490Q183 430 200 471L200 471Q226 509 197 535L197 535Q182 550 158.50 567.50Q135 585 99 603ZM571 645L571 645L561 638Q584 612 598.50 593.50Q613 575 619 564L619 564Q635 534 658 561L658 561Q681 578 664 606L664 606Q652 615 628 624Q604 633 571 645ZM500 506L500 506L490 503Q506 477 517.50 457Q529 437 535 423L535 423Q549 374 571 403L571 403Q591 420 587 445L587 445Q571 468 500 506ZM796 545L380 545L416 503Q457 519 529 519L529 519L909 519L848 590L796 545ZM819 480L819 480L751 529Q746 502 725 467Q704 432 671 387L671 387L335 387L374 348Q395 355 416.50 358Q438 361 458 361L458 361L955 361L890 429L835 387L696 387Q713 405 730.50 418.50Q748 432 758 442L758 442Q772 453 787 462.50Q802 472 819 480ZM561 361L571 364Q599 353 618.50 343.50Q638 334 651 326L651 326Q665 303 664 293L664 293Q664 278 651 268L651 268Q639 252 619 284L619 284Q603 314 561 361L561 361ZM593 210L593 210Q602 183 617 158Q632 133 651 106L651 106Q679 62 745 13L745 13Q770-4 801-24Q832-44 874-59L874-59Q891-23 951-14L951-14L951-5Q888 0 829 26Q770 52 713 103L713 103Q775 124 818.50 138Q862 152 890 155L890 155L845 213Q830 194 812 182Q794 170 777 161L777 161Q757 149 737.50 137Q718 125 700 113L700 113Q651 145 606 223L606 223L626 234L925 234L867 310L816 264L339 264L374 229Q391 231 407.50 232.50Q424 234 442 234L442 234L545 234Q494 172 428 117Q362 62 277 16L277 16L287 3Q343 21 393 45Q443 69 487 106L487 106L487 10Q487-5 482.50-19.50Q478-34 474-46L474-46L510-88Q526-71 567-40.50Q608-10 677 32L677 32L671 48L535-8L535 152Q549 163 564 177.50Q579 192 593 210Z"/></svg>