<svg id="U24932" viewBox="0 0 1024 1024"><path transform="translate(0, 921.6) scale(1,-1)" d="M605 303L501 245L501 668L605 668L557 733L513 692L338 692L369 655Q399 668 441 668L441 668L454 668L454 224Q421 204 391 188Q361 172 331 160L331 160L382 107Q394 132 611 286L611 286L605 303ZM369 218L243 164L243 422L359 422L309 494L274 450L243 450L243 696L362 696L312 762L274 725L78 725L112 689Q127 691 146 693.50Q165 696 186 696L186 696L192 696L192 450L78 450L106 419Q121 431 174 422L174 422L192 422L192 151Q174 142 140.50 128.50Q107 115 62 104L62 104L112 34Q117 64 372 201L372 201L369 218ZM485-45L485-45L495-62Q662 70 662 268L662 268L662 722L788 722L788 60Q788-8 832-8L832-8L895-8Q937-7 961 28L961 28Q924 47 924 183L924 183L907 183Q907 35 876 31L876 31L863 31Q839 31 839 41L839 41Q835 46 835 85L835 85L835 712L866 740L809 784L778 746L662 746L611 787Q611 756 612.50 727.50Q614 699 614 671L614 671L614 321Q614 90 485-45Z"/></svg>