<svg id="U24496" viewBox="0 0 1024 1024"><path transform="translate(0, 921.6) scale(1,-1)" d="M336 559L336 609L443 609L443 559L336 559ZM194 486L194 530L289 530L289 486L194 486ZM336 486L336 530L443 530L443 486L336 486ZM490 518L490 609L515 628L465 672L436 638L336 638L336 691L503 691L452 754L408 717L336 717L336 751L361 776L285 808Q288 786 288.50 764Q289 742 289 717L289 717L101 717L138 682Q158 684 177.50 685Q197 686 216 691L216 691L289 691L289 638L194 638L140 660Q145 626 146 596Q147 566 147 543L147 543Q147 517 146 488.50Q145 460 140 430L140 430L194 445L194 461L266 461Q252 430 232 404Q212 378 191 354L191 354Q167 335 140 313Q113 291 83 272L83 272L89 263Q117 271 147.50 290.50Q178 310 207 329L207 329Q235 351 255.50 370.50Q276 390 289 408L289 408Q289 348 288.50 309Q288 270 285 254L285 254L343 275L336 342L336 461L443 461L443 433L497 458L490 518ZM361 448L361 448L354 433Q415 390 428 370L428 370Q439 355 450.50 340Q462 325 471 307L471 307Q494 273 503 316L503 316Q507 361 469 393L469 393Q426 420 361 448ZM585 559L585 609L685 609L685 559L585 559ZM736 559L736 609L834 609L834 559L736 559ZM585 486L585 530L685 530L685 486L585 486ZM736 486L736 530L834 530L834 486L736 486ZM878 603L878 603L909 625L855 666L830 638L736 638L736 691L934 691L884 751L840 717L736 717L736 751L758 776L682 808Q682 784 683.50 759Q685 734 685 717L685 717L510 717L544 682Q559 684 579 685Q599 686 619 691L619 691L685 691L685 638L585 638L537 660Q537 626 539 596Q541 566 541 543L541 543Q541 517 539 489Q537 461 537 433L537 433L585 448L585 461L660 461Q643 433 623.50 407Q604 381 578 360L578 360Q552 334 529 315Q506 296 487 285L487 285L497 272Q516 280 542.50 296Q569 312 603 335L603 335Q632 358 654 377.50Q676 397 685 414L685 414Q685 353 683.50 311Q682 269 682 250L682 250L739 266Q736 286 736 315L736 315Q736 344 736 380L736 380L736 461L834 461L834 433L884 452Q879 473 878.50 509.50Q878 546 878 603ZM755 448L755 448L752 433Q772 414 788.50 398Q805 382 818 370L818 370Q828 358 838 342.50Q848 327 858 307L858 307Q882 275 896 316L896 316Q912 355 868 393L868 393Q843 406 815 420Q787 434 755 448ZM194 559L194 609L289 609L289 559L194 559ZM73-69L73-69L73-82Q151-79 222-64Q293-49 351-19L351-19Q469 40 503 181L503 181Q589-20 865-82L865-82Q865-60 950-41L950-41L950-25Q728-14 597 93L597 93Q618 106 659.50 127.50Q701 149 758 181L758 181L799 190L739 247Q693 188 582 103L582 103Q519 178 506 226L506 226L541 254L446 275Q455 204 428 131L428 131Q396 54 320 11L320 11Q285-9 223.50-29Q162-49 73-69ZM289 219L289 219L273 226Q236 147 187 118L187 118Q140 96 166 74L166 74Q194 53 232 80L232 80Q277 102 289 219Z"/></svg>