<svg id="U24BD5" viewBox="0 0 1024 1024"><path transform="translate(0, 921.6) scale(1,-1)" d="M167 515L167 515L277 515L277 319L129 319L164 285Q180 287 197 289Q214 291 236 291L236 291L277 291L277 67Q196 48 146.50 40.50Q97 33 71 33L71 33L120-37Q157 0 495 96L495 96L491 115L325 74L325 291L460 291L413 357L372 319L325 319L325 515L472 515L419 581L378 540L325 540L325 729L356 758L274 798Q276 747 276.50 682.50Q277 618 277 540L277 540L176 540Q190 582 200.50 611Q211 640 223 656L223 656L148 697Q145 649 139.50 603Q134 557 123 509L123 509Q99 409 55 329L55 329L68 323Q135 407 167 515ZM655 751L677 773L598 808Q598 768 590.50 701Q583 634 567 540L567 540L457 540L488 502Q501 509 547 509L547 509L560 509Q541 415 524.50 345Q508 275 495 229L495 229Q527 217 572 198Q617 179 677 152L677 152Q629 82 559.50 30Q490-22 397-65L397-65L403-82Q503-54 592 2L592 2Q637 31 669 64.50Q701 98 724 131L724 131Q784 89 825.50 56Q867 23 888-3L888-3Q931-60 942-9L942-9Q946 43 917 70L917 70Q901 85 859 109.50Q817 134 747 168L747 168Q796 285 809 521L809 521L948 521L897 591L850 543L809 543L809 603L837 635L759 656Q759 628 760.50 598Q762 568 762 540L762 540L617 540Q628 615 637.50 668.50Q647 722 655 751L655 751ZM545 241L545 241Q577 361 608 515L608 515L762 515Q742 273 702 188L702 188Q667 199 627.50 210.50Q588 222 545 241Z"/></svg>