<svg id="U24067" viewBox="0 0 1024 1024"><path transform="translate(0, 921.6) scale(1,-1)" d="M143 764L138 754Q196 701 222 653L222 653Q242 603 263 641L263 641Q278 669 261 697L261 697Q242 719 143 764L143 764ZM73 559L70 546Q101 518 117.50 493.50Q134 469 143 445L143 445Q161 398 179 427L179 427Q198 446 194 483L194 483Q190 511 73 559L73 559ZM76 193L76 193L76 178Q166 158 166 121L166 121Q166 102 161 76.50Q156 51 150 21L150 21Q139-35 179-60L179-60Q225-79 216 11L216 11Q213 56 213 86L213 86Q213 117 213 137L213 137Q217 175 228 226L228 226Q244 259 310 594L310 594L295 597Q193 209 169 197L169 197Q141 185 76 193ZM616 694L616 506L477 506L477 647L506 676L421 704Q423 671 423.50 644.50Q424 618 424 600L424 600L424 506L302 506L339 471Q376 480 411 480L411 480L953 480L887 550L837 506L670 506L670 641L903 641L843 710L789 666L670 666L670 751L701 776L613 811Q613 772 614.50 743.50Q616 715 616 694L616 694ZM565 430L565 430L500 468Q490 437 481.50 409Q473 381 462 360L462 360Q434 301 405 272L405 272L418 266Q480 312 521 380L521 380Q572 318 582 291L582 291Q594 263 613 282L613 282Q629 301 619 329L619 329Q615 354 525 389L525 389Q540 421 565 430ZM849 234L402 234L402 209L849 209L849 234ZM849 257L849-13L402-13L402 335L428 363L346 398Q347 356 347.50 325Q348 294 348 266L348 266L348-3L330-21L377-62L405-37L849-37L849-85L906-57Q903-33 903-1L903-1Q903 31 903 74L903 74L903 335L931 363L846 398Q846 363 847.50 327.50Q849 292 849 257L849 257ZM773 433L773 433L708 471Q700 441 693.50 415.50Q687 390 676 363L676 363Q664 337 651 317.50Q638 298 626 282L626 282L638 272Q664 296 686.50 321.50Q709 347 732 383L732 383Q775 318 786 291L786 291Q801 263 814 291L814 291Q833 325 814 345L814 345Q794 363 739 393L739 393Q761 430 773 433ZM773 168L773 168L708 200Q692 95 623 5L623 5L635 0Q687 42 732 115L732 115Q749 89 760.50 68.50Q772 48 780 30L780 30Q799-7 814 23L814 23Q833 53 811 80L811 80Q782 108 739 131L739 131Q758 163 773 168ZM565 168L565 168L503 197Q488 145 467 95Q446 45 418 5L418 5L428 0Q486 54 521 111L521 111Q538 88 551.50 68Q565 48 575 30L575 30Q584-5 610 23L610 23Q622 58 600 80L600 80Q586 94 569 104.50Q552 115 528 128L528 128Q534 137 545 146.50Q556 156 565 168Z"/></svg>