<svg id="U24890" viewBox="0 0 1024 1024"><path transform="translate(0, 921.6) scale(1,-1)" d="M734 620L734 620L724 611Q743 587 754.50 564Q766 541 778 522L778 522Q795 479 813 514L813 514Q827 546 813 570L813 570Q792 591 734 620ZM608-74L608-74L662-52L662-17L965-17L914 47L860 6L798 6L798 151L935 151L886 214L839 177L798 177L798 303L935 303L886 368L842 331L798 331L798 450L939 450L891 517L847 476L655 476Q695 560 731 573L731 573L655 620Q648 585 640 551Q632 517 618 481L618 481Q588 406 549 337L549 337L567 331Q579 347 590.50 363.50Q602 380 614 396L614 396L614 51Q614 26 611-3Q608-32 608-74ZM662 331L662 450L753 450L753 331L662 331ZM662 177L662 303L753 303L753 177L662 177ZM662 6L662 151L753 151L753 6L662 6ZM117 774L117 774L112 762Q184 687 218 620L218 620Q154 533 75 469L75 469L81 447Q179 507 240 583L240 583Q246 559 252 532Q258 505 265 473L265 473Q182 279 59 154L59 154L65 136Q201 234 277 394L277 394Q292 199 274 107L274 107Q265 21 230 6L230 6Q216 3 187.50 4.50Q159 6 117 16L117 16L117-1Q211-31 215-80L215-80Q276-61 305 10L305 10Q336 81 331 280L331 280Q331 474 277 611L277 611Q298 635 320.50 665Q343 695 369 733L369 733L403 749L344 807Q329 762 308 725.50Q287 689 259 652L259 652Q213 719 117 774ZM470 646L958 646L898 722L847 671L672 671Q703 711 680 740L680 740Q674 754 649 771.50Q624 789 586 813L586 813L577 803Q591 776 600.50 758.50Q610 741 618 728L618 728Q634 705 634 671L634 671L356 671L394 640Q413 642 430.50 644Q448 646 470 646L470 646ZM423 485L423 485Q392 397 356 384L356 384L388 340Q419 365 482 375L482 375Q444 304 421.50 264Q399 224 391 214L391 214Q384 204 374 194Q364 184 350 180L350 180L385 126Q412 152 508 186L508 186Q483 87 441 34L441 34Q418 2 392.50-23Q367-48 344-74L344-74L350-86Q432-36 472 19L472 19Q496 47 513 81Q530 115 545 157L545 157Q571 231 602 252L602 252L526 290Q523 266 520 246Q517 226 511 205L511 205L413 192Q467 283 500 339.50Q533 396 545 413L545 413Q575 451 596 469L596 469L523 504Q521 484 512 456.50Q503 429 489 394L489 394L413 391Q439 436 454.50 472.50Q470 509 479 532L479 532Q492 574 523 602L523 602L461 614Q453 591 444.50 556.50Q436 522 423 485Z"/></svg>