<svg id="U2421E" viewBox="0 0 1024 1024"><path transform="translate(0, 921.6) scale(1,-1)" d="M621 633L621 633L394 633L431 595Q471 607 523 607L523 607L621 607L621 501L435 501L479 463Q506 476 567 476L567 476L621 476L621 359L375 359L413 321Q433 325 453.50 329.50Q474 334 501 334L501 334L570 334Q507 129 325-8L325-8L331-20Q533 78 621 303L621 303L621 113Q621 62 619.50 13.50Q618-35 618-83L618-83L678-67Q675-38 675-11L675-11Q675 15 675 44L675 44L675 334L683 334Q707 224 763 142L763 142Q813 62 873 16L873 16Q881 54 958 54L958 54L958 69Q803 98 706 334L706 334L945 334L876 400L835 359L675 359L675 476L895 476L819 542L778 501L675 501L675 607L911 607L839 674L798 633L675 633L675 749L706 771L618 810Q618 762 619.50 718.50Q621 675 621 633ZM305 749L221 794Q225 691 226 602Q227 513 227 438L227 438Q229 360 221 293.50Q213 227 199 170L199 170Q169 49 65-64L65-64L75-77Q221 21 265 221L265 221Q289 191 308 169Q327 147 335 129L335 129Q345 115 354.50 100Q364 85 372 69L372 69Q388 48 403 88L403 88Q413 134 382 164L382 164Q358 189 268 239L268 239Q277 366 277 463L277 463Q305 486 328 503.50Q351 521 366 538L366 538Q403 570 431 579L431 579L366 633Q356 602 335.50 565.50Q315 529 277 491L277 491L277 725L305 749ZM161 558L161 558L148 558Q120 446 88 422L88 422Q60 391 78 381L78 381Q86 376 96.50 373Q107 370 117 378L117 378Q136 381 151 416L151 416Q161 445 161 558Z"/></svg>