<svg id="U249C5" viewBox="0 0 1000 1000"><path transform="translate(0, 900) scale(1,-1)" d="M569 524C591 492 613 449 620 421L679 439C670 467 648 509 624 540ZM777 355L777 225L678 225L678 255L678 355ZM824 544C811 507 789 455 770 419L514 419L514 355L615 355L615 256L614 225L493 225L493 159L607 159C595 90 562 23 479-33C494-44 516-67 526-83C625-14 661 72 672 159L777 159L777-78L842-78L842 159L956 159L956 225L842 225L842 355L936 355L936 419L834 419C852 450 872 488 890 524ZM404 804L404 428C404 285 398 98 319-32C335-40 366-62 379-74C463 63 475 275 475 428L475 562L922 562L922 804ZM475 739L852 739L852 628L475 628ZM35 100L49 25C133 53 246 90 351 126L343 198L226 159L226 413L316 413L316 483L226 483L226 701L334 701L334 772L40 772L40 701L160 701L160 483L56 483L56 413L160 413L160 138Z"/></svg>