<svg id="U24D92" viewBox="0 0 1024 1024"><path transform="translate(0, 921.6) scale(1,-1)" d="M255 370L255 370Q189 332 141 310Q93 288 63 280L63 280L113 222Q129 246 164 279Q199 312 255 351L255 351Q229 77 79-63L79-63L89-73Q207 20 258 132L258 132Q283 188 293.50 245.50Q304 303 310 364L310 364Q312 421 312.50 495.50Q313 570 313 657L313 657L951 657L887 728L832 683L603 683Q642 728 616 761L616 761Q601 775 574.50 790Q548 805 510 825L510 825L500 809Q516 789 530 773.50Q544 758 555 741L555 741Q559 724 565.50 709.50Q572 695 577 683L577 683L310 683L252 722Q254 675 254.50 587Q255 499 255 370ZM103 618L103 618L97 606Q114 576 125 549Q136 522 139 493L139 493Q148 434 177 467L177 467Q207 497 184 532L184 532Q177 546 156.50 567.50Q136 589 103 618ZM681 122L681 122L677 109Q766 79 780 28L780 28Q835 46 858 103L858 103Q867 126 874.50 206.50Q882 287 890 428L890 428L916 449L868 499L839 467L703 467Q703 496 706.50 524.50Q710 553 710 583L710 583L732 606L651 645L651 467L510 467L539 432Q555 441 610 441L610 441L651 441L651 445Q644 381 635.50 323.50Q627 266 610 212L610 212Q580 109 510 45L510 45L516 35Q588 75 619 135L619 135Q640 164 652.50 199Q665 234 677 270L677 270Q686 310 692 352.50Q698 395 703 441L703 441L835 441Q832 361 829 303.50Q826 246 819 203L819 203Q810 120 793 112L793 112Q773 102 681 122ZM384 618L384 618L377 609Q429 532 439 490L439 490Q458 450 464 464L464 464Q480 472 490 499L490 499Q494 517 481 544L481 544Q464 571 384 618ZM313 6L313 6L358-40Q363-27 373-11Q383 5 397 25L397 25Q414 45 424 55.50Q434 66 439 67L439 67Q456 75 474 48L474 48Q486 30 497.50 18Q509 6 529-2L529-2Q543-8 562-17Q581-26 603-34L603-34Q630-41 660-44Q690-47 729-50L729-50Q765-50 810-49.50Q855-49 910-47L910-47Q910-5 961 9L961 9L961 22Q890 10 818.50 6.50Q747 3 674 6L674 6Q599 10 549.50 33.50Q500 57 471 93L471 93L471 322L497 345L455 390L429 354L319 354L355 322Q396 332 423 332L423 332L423 96Q398 76 370 54Q342 32 313 6Z"/></svg>