<svg id="U24F10" viewBox="0 0 1024 1024"><path transform="translate(0, 921.6) scale(1,-1)" d="M260 389L260 389Q197 350 149.50 327Q102 304 71 295L71 295L118 237Q134 263 170 294.50Q206 326 260 369L260 369Q247 220 204.50 112Q162 4 84-67L84-67L94-80Q152-28 194.50 23.50Q237 75 260 137L260 137Q283 196 296 257Q309 318 311 382L311 382Q313 438 313.50 513Q314 588 314 679L314 679L953 679L885 750L834 705L621 705Q661 739 634 766L634 766Q614 787 550 830L550 830L537 814Q565 789 576 763L576 763Q585 745 588.50 731Q592 717 595 705L595 705L314 705L256 743Q259 695 259.50 606Q260 517 260 389ZM114 630L114 630L107 621Q138 568 150 508L150 508Q160 444 189 482L189 482Q214 515 195 547L195 547Q175 577 114 630ZM382 334L382 334L437 350L437 362L550 362L550 343L601 366Q598 383 598 402L598 402Q598 422 598 447L598 447L627 469L576 505L550 476L437 476L382 501Q387 474 388 453.50Q389 433 389 414L389 414Q389 397 388 378Q387 359 382 334ZM672 334L672 334L721 350L721 362L837 362L837 340L888 362Q885 379 885 399L885 399Q885 420 885 447L885 447L908 469L856 505L830 476L721 476L672 501Q672 477 674 457Q676 437 676 421L676 421Q676 401 674 380Q672 359 672 334ZM437 389L437 450L550 450L550 389L437 389ZM721 389L721 450L837 450L837 389L721 389ZM401-87L401-87L456-67L456-32L941-32L879 27L834-6L679-6L679 53L892 53L834 111L792 82L679 82L679 137L895 137L837 202L795 166L679 166L679 224L927 224L856 289L808 250L463 250Q475 262 483.50 272Q492 282 495 285L495 285Q499 294 527 311L527 311L460 353Q423 237 289 118L289 118L292 108Q375 148 408 189L408 189Q408 93 407 25Q406-43 401-87ZM588 343L595 350Q674 325 685 308L685 308Q700 288 672 266L672 266Q652 246 637 272L637 272Q627 306 588 343L588 343ZM456 166L456 224L627 224L627 166L456 166ZM456 82L456 137L627 137L627 82L456 82ZM456-6L456 53L627 53L627-6L456-6ZM698 582L698 553L698 505L753 521Q750 533 750 553L750 553L950 553L892 611L847 582L750 582L750 624L779 643L695 666Q695 648 696.50 625.50Q698 603 698 582L698 582ZM566 553L566 624L598 643L514 666Q514 642 516 621.50Q518 601 518 582L518 582L334 582L369 550Q390 552 414 552.50Q438 553 463 553L463 553L518 553Q518 545 516 531.50Q514 518 514 501L514 501L566 514L566 553Z"/></svg>