<svg id="U2444D" viewBox="0 0 1024 1024"><path transform="translate(0, 921.6) scale(1,-1)" d="M555 83L590 96L530 155Q508 122 486 90.50Q464 59 438 35L438 35Q387-13 325-60L325-60L335-72Q454-10 555 83L555 83ZM724 140L724 140L719 124Q754 95 782.50 70.50Q811 46 835 20L835 20Q854 0 869.50-20Q885-40 898-60L898-60Q919-88 935-54L935-54Q945-8 907 26L907 26Q869 69 724 140ZM533 747L533 747L492 798Q466 754 438 731L438 731L391 757Q395 614 399.50 477.50Q404 341 410 202L410 202L335 202L372 168Q408 178 454 178L454 178L961 178L914 253L870 202L888 713L917 734L870 782L842 747L772 747L806 713L822 723L842 723L839 562L769 562L804 523L819 533L839 533L829 389L769 389L801 348L816 356L829 356L826 202L753 202L753 703L772 719L731 764L706 738L577 738L536 764L536 202L451 202L448 363L530 363L489 423L461 389L448 389L441 530L526 530L489 590L461 559L441 559L438 703Q472 721 495.50 732Q519 743 533 747ZM577 713L712 713L712 202L577 202L577 713ZM284 764L205 801Q207 698 207.50 609.50Q208 521 208 445L208 445Q213 364 206.50 297.50Q200 231 186 174L186 174Q162 52 62-60L62-60L65-72Q202 19 243 222L243 222Q307 152 322 102L322 102Q340 52 350 45L350 45Q355 41 372 76L372 76Q382 114 353 155L353 155Q328 193 246 240L246 240Q253 306 256 362.50Q259 419 259 467L259 467Q285 490 302.50 509Q320 528 335 546L335 546Q348 563 361.50 572Q375 581 385 587L385 587L335 641Q325 609 307 571.50Q289 534 259 492L259 492L259 738L284 764ZM148 559L148 559L136 559Q115 461 88 430L88 430Q59 395 72 376L72 376Q88 354 103 366L103 366Q115 369 136 407L136 407Q148 447 148 559ZM567 392L567 366L724 366L724 392L567 392ZM567 562L567 533L724 533L724 562L567 562Z"/></svg>