<svg id="U24B17" viewBox="0 0 1024 1024"><path transform="translate(0, 921.6) scale(1,-1)" d="M216 457L216 334L165 334L121 359Q124 325 124.50 280Q125 235 125 180L125 180L104 164L137 126L162 139L216 139L216 28Q133 10 97 10L97 10L118-42Q196-10 269 0L269 0Q307 8 356 19Q405 30 463 40L463 40Q447 10 429.50-16.50Q412-43 392-67L392-67L398-80Q449-37 484.50 14.50Q520 66 547 126L547 126Q591 255 591 640L591 640L663 658L663 72Q663 36 647 19L647 19L685-26Q716 26 776 57L776 57Q781 39 783.50 23.50Q786 8 789-5L789-5Q797-30 820-1L820-1Q848 23 827 57L827 57Q819 71 799 93.50Q779 116 748 148L748 148L738 139Q745 121 753.50 105.50Q762 90 766 75L766 75L707 51L707 671L786 692Q784 549 788.50 435.50Q793 322 805 236L805 236Q816 148 839.50 78Q863 8 896-52L896-52Q909-21 962-26L962-26L962-17Q911 11 864 157L864 157Q818 311 807 699L807 699Q867 715 896 715L896 715L836 774Q782 717 594 661L594 661L543 692Q548 495 539.50 362Q531 229 509 157L509 157Q500 127 490 100.50Q480 74 468 50L468 50L468 57L367 47L367 139L421 139L421 113L471 139Q471 157 470.50 174Q470 191 468 211L468 211L468 309L486 327L439 365L418 344L367 344L367 457L446 457L418 400L430 396Q481 457 515 457L515 457L474 507L436 481L128 481L125 520L117 520Q106 464 82 440L82 440Q56 412 63 396L63 396Q73 375 92 381L92 381Q116 386 121 403L121 403Q128 413 128 457L128 457L216 457ZM216 167L172 167L172 309L216 309L216 286L263 309Q260 327 260 381L260 381L260 457L320 457L320 350L301 334L342 296L360 314L421 314L421 167L360 167L316 188Q319 155 319.50 118.50Q320 82 320 47L320 47L260 34L260 136L282 151L238 188L216 167ZM348 774L272 807Q274 785 274.50 754.50Q275 724 275 684L275 684L89 684L121 652Q138 654 155 656Q172 658 194 658L194 658L275 658L275 573L128 573L162 538Q182 542 199.50 543.50Q217 545 234 545L234 545L471 545L421 604L386 566L323 563L323 658L512 658L458 722L418 684L323 684L323 730L348 774Z"/></svg>