<svg id="U241D5" viewBox="0 0 1024 1024"><path transform="translate(0, 921.6) scale(1,-1)" d="M470 141L470 141L530 163Q527 202 526.50 292Q526 382 526 524L526 524L549 524Q603 394 683 314L683 314Q762 229 850 191L850 191Q874 218 948 229L948 229L948 241Q838 256 740 333L740 333Q637 409 570 524L570 524L920 524L854 591L816 550L526 550L526 714Q731 732 819 732L819 732L760 802Q742 795 695 783.50Q648 772 567 758L567 758Q489 741 395 729.50Q301 718 192 714L192 714L192 695Q289 695 472 704L472 704L472 550L106 550L142 513Q178 524 227 524L227 524L429 524Q385 431 294 339L294 339Q210 255 75 185L75 185L78 172Q211 209 312 295L312 295Q364 337 402.50 385Q441 433 472 487L472 487Q472 356 471 271Q470 186 470 141ZM221 119L221 119L208 119Q164 13 117-18L117-18Q68-49 94-68L94-68Q122-77 139-74L139-74Q164-69 189-40L189-40Q217-6 221 119ZM353 135L353 135L344 131Q360 74 368 33.50Q376-7 382-37L382-37Q386-87 413-65L413-65Q450-31 431 5L431 5Q420 53 353 135ZM567 135L567 135L557 125Q600 37 614-27L614-27Q620-92 655-56L655-56Q689-16 665 21L665 21Q652 55 567 135ZM785 138L785 138L775 131Q809 79 830.50 39Q852-1 860-30L860-30Q883-93 911-53L911-53Q933-2 901 33L901 33Q884 52 855.50 79Q827 106 785 138Z"/></svg>