<svg id="U24B42" viewBox="0 0 1024 1024"><path transform="translate(0, 921.6) scale(1,-1)" d="M619 413L619 413L609 404Q664 320 678 278L678 278Q687 241 707 252L707 252Q726 262 726 290L726 290Q726 325 707 337L707 337Q700 349 675.50 366.50Q651 384 619 413ZM688 149L559 57L613 524L763 524Q747 319 738 202.50Q729 86 729 54L729 54Q725-10 748-23L748-23Q773-35 820-35L820-35L896-35Q924-31 953 13L953 13Q915 24 915 57L915 57L915 170L899 170Q894 115 888 82Q882 49 880 35L880 35Q875 15 842 9L842 9Q828 9 814.50 9.50Q801 10 795 13L795 13Q775 16 779 98L779 98Q782 140 790.50 241Q799 342 814 504L814 504L842 527L792 580L760 548L619 548L637 697L921 697L861 769L811 722L455 722L483 687Q502 694 524.50 695.50Q547 697 572 697L572 697L584 697Q567 534 547.50 377Q528 220 511 64L511 64L505 26L452-13L493-60Q528-25 578 24Q628 73 698 136L698 136L688 149ZM171 394L171 394L57 394L82 357Q107 369 171 369L171 369Q171 323 168 283Q165 243 162 211L162 211Q158 141 130 70L130 70Q104 2 50-52L50-52L57-64Q111-18 143 23L143 23Q183 72 200 155L200 155Q218 237 218 369L218 369L385 369L385 51Q385 38 377 20L377 20Q371 14 279 32L279 32L275 16Q317 5 336-10L336-10Q363-26 367-60L367-60Q405-47 418-26L418-26Q427-9 433 26L433 26L433 365L534 369L487 438L452 394L433 394L433 640L464 658L411 712L379 678L266 678Q290 718 309.50 738.50Q329 759 338 769L338 769L282 810Q278 753 247 678L247 678L218 678L166 706Q170 670 170.50 592.50Q171 515 171 394ZM218 394L218 653L385 653L385 394L218 394ZM269 599L269 599L259 589Q284 534 292 486L292 486Q295 442 313 442L313 442Q333 442 338 463L338 463Q354 488 336 520L336 520Q328 534 310.50 553.50Q293 573 269 599ZM253 328L253 328L241 322Q254 295 265 274.50Q276 254 282 239L282 239Q293 215 297 190L297 190Q301 170 329 180L329 180Q348 196 344 234L344 234Q333 275 253 328Z"/></svg>