<svg id="U2419A" viewBox="0 0 1024 1024"><path transform="translate(0, 921.6) scale(1,-1)" d="M322 762L236 803Q239 700 239.50 612.50Q240 525 240 447L240 447Q240 298 202 164L202 164Q171 49 62-64L62-64L68-77Q226 21 268 214L268 214Q334 146 359 91L359 91Q384 46 397 31L397 31Q408 25 420 63L420 63Q435 95 397 145L397 145Q378 168 346 188.50Q314 209 274 233L274 233Q281 297 284 353Q287 409 287 457L287 457Q317 480 340.50 497.50Q364 515 379 529L379 529Q408 551 457 566L457 566L397 630Q370 565 294 485L294 485L294 737L322 762ZM151 566L151 566L139 566Q119 452 94 416L94 416Q67 378 88 362L88 362Q98 348 127 368L127 368Q148 382 158 416L158 416Q160 432 159 470Q158 508 151 566ZM826 586L826 586L883 592L819 661Q796 638 752.50 615.50Q709 593 646 566L646 566L646 728L675 759L586 800Q586 745 588 683Q590 621 590 548L590 548Q536 531 490.50 517Q445 503 400 491L400 491L403 476Q448 484 495 492.50Q542 501 590 514L590 514L590 299L356 258L394 224L416 239L590 274L590 28Q573-57 668-52L668-52L866-52Q912-52 961 0L961 0Q922 4 917 60L917 60Q909 88 908 107.50Q907 127 907 142L907 142L891 142Q891 122 889.50 98.50Q888 75 888 47L888 47Q884-8 842-8L842-8L703-8Q641-13 646 44L646 44L646 280L942 337L879 396L832 344L646 309L646 526Q691 540 735.50 554Q780 568 826 586Z"/></svg>