<svg id="U248E0" viewBox="0 0 1024 1024"><path transform="translate(0, 921.6) scale(1,-1)" d="M103 753L103 753L100 743Q129 708 153.50 675Q178 642 192 611L192 611Q139 512 84 453L84 453L97 438Q161 499 208 573L208 573Q216 547 220.50 520.50Q225 494 227 466L227 466Q213 412 197 370.50Q181 329 168 299L168 299Q153 264 129.50 225.50Q106 187 75 142L75 142L81 129Q188 230 246 388L246 388Q248 289 246.50 218Q245 147 236 98L236 98Q227 12 199 6L199 6Q184 1 162 4Q140 7 112 13L112 13L112 0Q183-17 189-70L189-70Q246-56 268 6L268 6Q294 63 294 271L294 271Q294 373 280 457Q266 541 243 607L243 607Q250 624 265.50 653.50Q281 683 305 728L305 728L328 746L284 797Q269 752 253.50 713.50Q238 675 218 643L218 643Q181 707 103 753ZM369 47L369 290L457 290L457 47L369 47ZM451 318L369 318L328 350L328 164L328-52L369-26L369 19L457 19L457-45L498-20L498 290L517 306L479 350L451 318ZM344 595L344 419L382 440L382 476L448 476L448 428L485 457L485 696L505 725L470 759L448 725L379 725L344 759L344 595ZM382 501L382 696L448 696L448 501L382 501ZM665 743L501 743L536 709Q552 711 569 713Q586 715 605 715L605 715Q602 697 599 672Q596 647 593 617L593 617L567 617L526 640Q526 602 528 533.50Q530 465 530 368L530 368Q530 272 528 213.50Q526 155 526 132L526 132L567 151L567 170L675 170L675 142L716 164L716 595L734 611L693 648L665 617L611 617Q620 646 629 670.50Q638 695 646 715L646 715L750 715L703 774L665 743ZM567 481L567 592L675 592L675 481L567 481ZM567 340L567 457L675 457L675 340L567 340ZM567 195L567 312L675 312L675 195L567 195ZM564 142L564 142L624 104Q606 92 577 38L577 38Q559 14 540.50-10.50Q522-35 501-62L501-62L489-49Q560 73 564 142ZM643 148L643 148L637 136Q675 33 680-11L680-11Q685-68 703-45L703-45Q717-34 728-5L728-5Q728 24 709 66L709 66Q683 111 643 148ZM794 47L794 299L888 299L888 47L794 47ZM879 324L798 324L750 359Q750 338 751.50 320.50Q753 303 753 286L753 286L753 47Q753 21 751.50-3.50Q750-28 750-52L750-52L794-23L794 19L888 19L888-42L932-17Q930 5 930 28L930 28Q930 51 930 72L930 72L930 299L948 312L907 362L879 324ZM763 607L763 425L806 453L806 481L879 481L879 438L927 460Q924 479 924 517L924 517L924 712L942 733L898 771L876 737L806 737L760 769Q760 742 761.50 700.50Q763 659 763 607L763 607ZM806 510L806 712L879 712L879 510L806 510Z"/></svg>