<svg id="U24DD4" viewBox="0 0 1024 1024"><path transform="translate(0, 921.6) scale(1,-1)" d="M260 364L260 364Q197 324 149 301Q101 278 68 270L68 270L118 212Q148 263 260 345L260 345Q236 73 84-69L84-69L91-82Q208 7 260 125L260 125Q285 179 295.50 236Q306 293 311 354L311 354Q314 412 314.50 486Q315 560 315 648L315 648L944 648L879 722L824 673L595 673Q632 710 605 744L605 744Q595 761 570.50 781Q546 801 511 825L511 825L502 815Q518 790 530 769.50Q542 749 550 735L550 735Q557 717 560 701Q563 685 566 673L566 673L315 673L257 712Q259 665 259.50 578Q260 491 260 364ZM108 609L108 609L102 596Q119 566 130 540.50Q141 515 144 486L144 486Q158 427 182 457L182 457Q211 491 192 525L192 525Q172 558 108 609ZM466 345L447 377L717 377L769 416L831 351L557 351Q532 351 511 350Q490 349 466 345L466 345ZM724 109L724 109L824 109L824 6Q818-20 789-11L789-11Q774-8 756-7.50Q738-7 721-5L721-5L721-20Q796-35 811-79L811-79Q876-61 876 6L876 6L876 234L908 258L853 309L821 274L444 274L395 299Q398 258 398.50 209Q399 160 399 109L399 109Q399 53 398.50 8Q398-37 395-79L395-79L447-57L447 109L537 109Q537 79 535.50 46Q534 13 534-24L534-24L586 0Q583 30 582.50 57.50Q582 85 582 109L582 109L679 109Q679 85 677.50 54Q676 23 676-11L676-11L731 12Q725 31 724.50 55Q724 79 724 109ZM660 593L686 612L615 651Q603 617 578 576Q553 535 515 486L515 486Q472 437 423.50 397Q375 357 318 325L318 325L328 309Q460 370 524 435L524 435Q560 463 590 500Q620 537 650 577L650 577Q690 495 753 438L753 438Q785 412 818.50 391.50Q852 371 889 354L889 354Q898 386 956 396L956 396L956 409Q856 423 773 486L773 486Q734 515 705 540.50Q676 566 660 593L660 593ZM447 135L447 248L537 248L537 135L447 135ZM582 135L582 248L679 248L679 135L582 135ZM724 135L724 248L824 248L824 135L724 135Z"/></svg>