<svg id="U2473" viewBox="0 0 1100 1000"><path transform="translate(0, 900) scale(1,-1)" d="M50 404L50 404Q50 509 89.50 599.50Q129 690 198 758.50Q267 827 357.50 865.50Q448 904 550 904L550 904Q653 904 743.50 865.50Q834 827 903 758.50Q972 690 1011 599Q1050 508 1050 404L1050 404Q1050 301 1011 210.50Q972 120 903.50 51Q835-18 744.50-57Q654-96 550-96L550-96Q447-96 356.50-57.50Q266-19 197 50Q128 119 89 209.50Q50 300 50 404ZM100 404L100 404Q100 310 135.50 228Q171 146 233 84.50Q295 23 376.50-11.50Q458-46 550-46L550-46Q643-46 724.50-11Q806 24 868 85.50Q930 147 965 229Q1000 311 1000 404L1000 404Q1000 497 965 578.50Q930 660 868.50 722Q807 784 725 819Q643 854 550 854L550 854Q457 854 375 819Q293 784 231.50 722.50Q170 661 135 579Q100 497 100 404ZM215 129L215 196L332 343Q381 404 407.50 449Q434 494 434 549L434 549Q434 592 416 614Q398 636 369 636L369 636Q340 636 314.50 621.50Q289 607 262 581L262 581L216 637Q254 676 291 692.50Q328 709 374 709L374 709Q442 709 480.50 667Q519 625 519 556L519 556Q519 510 501.50 469Q484 428 458 389L458 389Q448 373 413.50 328Q379 283 321 209L321 209L321 205L534 205L534 129L215 129ZM562 415L562 415Q562 497 576 563.50Q590 630 627 669.50Q664 709 732 709L732 709Q782 709 815 685.50Q848 662 867 621Q886 580 894.50 527Q903 474 903 415L903 415Q903 270 862 195.50Q821 121 732 121L732 121Q682 121 649 145Q616 169 597 210.50Q578 252 570 304.50Q562 357 562 415ZM646 415L646 415Q646 303 665 247.50Q684 192 732 192L732 192Q780 192 799 247.50Q818 303 818 415L818 415Q818 528 799 583Q780 638 732 638L732 638Q684 638 665 583Q646 528 646 415Z"/></svg>