<svg id="U24AFA" viewBox="0 0 1024 1024"><path transform="translate(0, 921.6) scale(1,-1)" d="M356 692L382 692Q431 228 535 164L535 164L535 151Q483 140 460 116L460 116Q363 318 356 692L356 692ZM148 400L148 400Q148 538 147.50 618.50Q147 699 145 722L145 722L195 692Q403 726 438 769L438 769L495 709Q453 701 406 695Q359 689 305 684L305 684L305 72L375 126Q372 143 364 164.50Q356 186 349 214L349 214L359 224Q454 108 429 60L429 60Q398 14 393 41L393 41Q390 55 387 69.50Q384 84 382 101L382 101Q290 11 280-20L280-20L243 31Q263 47 259 214L259 214L259 674L198 664Q202 448 186 265L186 265Q176 86 81-45L81-45L68-42Q93 13 108 62.50Q123 112 129 157L129 157Q139 208 143.50 268.50Q148 329 148 400ZM845 555L876 566L812 620Q795 573 747 520L747 520L593 517Q618 537 648.50 572Q679 607 721 655L721 655L750 664L702 709Q747 713 793 719Q839 725 888 733L888 733L926 733L882 800Q836 759 501 702L501 702L501 684Q549 688 593.50 691Q638 694 683 702L683 702Q662 664 640.50 629.50Q619 595 596 566L596 566Q554 517 529 517L529 517L557 450Q568 460 617 476L617 476Q651 482 734 497L734 497Q692 452 658 416Q624 380 598 359L598 359Q551 309 532 314L532 314L555 252Q563 257 597.50 265Q632 273 693 283L693 283L693 54Q693 14 671 10L671 10Q637 10 573 19L573 19L573 0Q666-21 671-74L671-74Q749-46 743 28L743 28L743 290Q771 292 802.50 298Q834 304 869 309L869 309Q876 297 883 286Q890 275 897 262L897 262Q907 233 930 271L930 271Q952 306 917 347L917 347Q899 362 871.50 382Q844 402 806 422L806 422L797 409Q837 353 860 331L860 331L604 314Q707 408 845 555L845 555ZM642 164L576 211Q571 191 558.50 165Q546 139 526 107L526 107Q505 76 481 44.50Q457 13 429-14L429-14L434-23Q527 34 611 148L611 148L642 164ZM797 208L797 208L784 195Q829 135 859 90.50Q889 46 901 16L901 16Q922-38 945 0L945 0Q968 45 938 79L938 79Q924 100 887.50 131.50Q851 163 797 208Z"/></svg>