<svg id="U24152" viewBox="0 0 1024 1024"><path transform="translate(0, 921.6) scale(1,-1)" d="M130 778L127 769Q182 704 202 661L202 661Q219 610 236 646L236 646Q249 680 236 709L236 709Q221 733 130 778L130 778ZM72 573L68 558Q120 496 130 450L130 450Q147 408 164 428L164 428Q184 452 180 488L180 488Q176 525 72 573L72 573ZM72 198L72 198L72 186Q145 161 145 119L145 119Q145 71 133 16L133 16Q122-51 161-67L161-67Q200-91 196 0L196 0Q190 48 189.50 83.50Q189 119 189 139L189 139Q194 162 197 184Q200 206 205 229L205 229Q210 256 228 346.50Q246 437 277 599L277 599L262 602Q176 215 151 208L151 208Q134 187 72 198ZM822 555L672 555L672 526L822 526L822 555ZM577 517L577 517L631 529Q628 566 627.50 599Q627 632 627 661L627 661L870 661L845 586L857 579Q903 654 948 664L948 664L898 718L870 689L627 689L627 740L870 740L804 810L765 769L359 769L397 730Q414 732 433.50 736Q453 740 479 740L479 740L580 740L580 689L359 689L359 718L344 718Q329 645 303 614L303 614Q275 580 294 576L294 576Q307 561 325 573L325 573Q343 573 353 592L353 592Q359 611 359 661L359 661L580 661Q580 628 578.50 591Q577 554 577 517ZM539 620L397 620L397 595L539 595L539 620ZM813 620L672 620L672 595L813 595L813 620ZM539 545L391 545L391 520L539 520L539 545ZM731 466L731 466L724 457Q751 438 770 426.50Q789 415 804 406L804 406L435 403Q559 458 618 481L618 481L557 514Q541 478 472 447L472 447Q401 406 353 406L353 406L379 362Q396 364 435.50 367Q475 370 533 378L533 378Q593 380 663.50 382.50Q734 385 819 391L819 391Q830 373 847 362L847 362Q862 342 876 378L876 378Q887 409 857 425L857 425Q843 437 809.50 445.50Q776 454 731 466ZM508 271L335 265Q441 323 472 331L472 331L416 372Q389 331 353 306L353 306Q332 294 317.50 285.50Q303 277 294 271L294 271L318 214Q335 236 513 255L513 255Q523 227 533 227L533 227Q539 220 552 242L552 242Q558 258 549 280L549 280Q539 284 522 291.50Q505 299 479 309L479 309L472 303Q479 290 488.50 283.50Q498 277 508 271L508 271ZM955 126L955 126L955 139Q922 139 884 144.50Q846 150 801 157L801 157Q707 181 631 227L631 227L652 236L598 268Q538 207 435 167L435 167Q380 146 337 129.50Q294 113 259 107L259 107L262 91Q472 126 611 211L611 211Q667 160 744 132L744 132Q778 115 814 104Q850 93 888 88L888 88Q903 114 955 126ZM567 107L567 107L567 0Q567-20 533-20L533-20Q515-18 493-15Q471-12 444-8L444-8L444-23Q524-43 539-83L539-83Q614-70 614-8L614-8L614 132L643 154L561 173Q561 156 564 139.50Q567 123 567 107ZM438 113L423 113Q406 63 362 38L362 38Q320 3 341-1L341-1Q364-12 385-1L385-1Q412 5 420 34L420 34Q434 63 438 113L438 113ZM672 107L672 107L662 98Q706 29 716-5L716-5Q726-41 747-17Q768 7 760 31L760 31Q748 53 672 107ZM788 98L788 98L781 91Q802 58 818 32Q834 6 842-14L842-14Q850-54 876-23L876-23Q892-1 883 28L883 28Q860 50 788 98ZM804 347L747 384Q738 360 703 312L703 312Q683 295 670.50 284.50Q658 274 646 274L646 274L675 229Q695 234 737 243.50Q779 253 845 265L845 265Q856 234 863 227L863 227Q866 217 888 233L888 233Q909 259 886 274L886 274Q877 282 859 294.50Q841 307 813 324L813 324L806 314Q831 285 839 280L839 280L690 274Q727 300 755.50 318Q784 336 804 347L804 347Z"/></svg>