<svg id="U24EF6" viewBox="0 0 1024 1024"><path transform="translate(0, 921.6) scale(1,-1)" d="M258 387L258 387Q195 348 147.50 325Q100 302 66 293L66 293L116 234Q148 285 258 368L258 368Q243 98 92-63L92-63L99-82Q158-30 199.50 22Q241 74 261 135L261 135Q282 195 293 257.50Q304 320 310 381L310 381Q312 437 312.50 511Q313 585 313 671L313 671L945 671L874 745L826 700L613 700Q646 734 626 761L626 761Q613 775 591.50 790.50Q570 806 542 826L542 826L535 819Q544 807 552 791Q560 775 567 761L567 761Q574 744 577.50 726.50Q581 709 587 700L587 700L313 700L255 739Q258 690 258 603L258 603Q258 516 258 387ZM110 632L110 632L102 622Q116 593 127.50 565.50Q139 538 142 509L142 509Q148 480 159.50 473Q171 466 180 484L180 484Q208 515 190 548L190 548Q169 585 110 632ZM390 509L390 509Q363 459 335 449L335 449L355 393Q379 403 409.50 412.50Q440 422 480 432L480 432Q439 359 406 326L406 326Q385 301 368.50 289.50Q352 278 335 271L335 271L368 213Q404 229 443 243.50Q482 258 529 268L529 268Q538 214 548 213L548 213Q553 208 571 232L571 232Q583 257 574 287L574 287Q563 303 544.50 320.50Q526 338 500 355L500 355L493 348Q505 328 511.50 313.50Q518 299 526 287L526 287Q496 282 462.50 277.50Q429 273 393 271L393 271Q436 313 477 362Q518 411 558 471L558 471L590 490L532 539Q520 512 511 488.50Q502 465 490 449L490 449L380 449Q412 484 440.50 521Q469 558 493 600L493 600L516 613L455 658Q437 609 420.50 572.50Q404 536 390 509ZM355 152L339 152Q329 42 293 6L293 6Q267-29 301-34L301-34Q345-39 355 6L355 6Q364 49 355 152L355 152ZM416 181L409 171Q416 135 418.50 103.50Q421 72 419 45L419 45Q414-1 448 13L448 13Q461 22 467 38.50Q473 55 470 81L470 81Q467 118 416 181L416 181ZM519 90L519 90Q528 36 551 65L551 65Q577 90 558 132L558 132Q550 150 535.50 170Q521 190 497 210L497 210L490 203Q505 173 510.50 145Q516 117 519 90ZM677-53L677 122L725 122L725-20L761-5L761 122L806 122L806-5L845 13L845 122L890 122L890-1Q890-21 874-24L874-24Q863-24 846-21.50Q829-19 806-14L806-14L806-27Q871-42 880-82L880-82Q911-75 925-56L925-56Q935-42 935-8L935-8L935 242L958 264L913 306L887 274L655 274Q655 298 656.50 320.50Q658 343 658 368L658 368L874 368L874 345L925 364Q920 393 919.50 421.50Q919 450 919 480L919 480L948 503L900 545L871 513L661 513L661 551Q702 556 747 562Q792 568 838 580L838 580L916 580L854 645Q825 621 775 601Q725 581 655 564L655 564L613 571Q613 470 612.50 398.50Q612 327 609 284L609 284Q607 240 599 197.50Q591 155 580 113L580 113Q570 73 552.50 38Q535 3 516-24L516-24L526-27Q604 37 635 155L635 155Q635 69 633.50 10.50Q632-48 632-82L632-82L677-53ZM658 390L658 487L874 487L874 390L658 390ZM677 145L677 248L725 248L725 145L677 145ZM761 145L761 248L806 248L806 145L761 145ZM845 145L845 248L890 248L890 145L845 145Z"/></svg>