<svg id="U25B5D" viewBox="0 0 1024 1024"><path transform="translate(0, 921.6) scale(1,-1)" d="M305 758L339 767L257 811Q245 766 228 725.50Q211 685 184 647L184 647Q158 605 133.50 571.50Q109 538 83 506L83 506L92 499Q181 562 238 647L238 647L282 647Q299 629 314.50 613.50Q330 598 343 584L343 584Q354 572 362 559Q370 546 380 534L380 534Q397 510 415 537L415 537Q421 549 426.50 559Q432 569 430 574L430 574Q430 587 402 600L402 600Q390 609 368 621Q346 633 314 647L314 647L547 647L480 713L440 672L251 672L305 758ZM685 758L723 767L635 811Q630 780 619 748.50Q608 717 591 685L591 685Q575 647 550 605Q525 563 490 515L490 515L497 506Q529 533 562.50 568.50Q596 604 626 647L626 647L663 647Q757 573 780 540L780 540Q804 501 821 518L821 518Q840 531 840 556L840 556Q843 571 808 597L808 597Q791 608 761 620.50Q731 633 691 647L691 647L940 647L878 713L834 672L635 672L685 758ZM282 360L282 360L387 367Q350 203 307 137L307 137Q284 145 258 151.50Q232 158 204 165L204 165Q221 210 242 259Q263 308 282 360ZM317 493L346 512L266 550Q263 521 257.50 480.50Q252 440 238 389L238 389L92 386L128 329Q151 338 175.50 344Q200 350 228 357L228 357Q209 284 193 233Q177 182 163 152L163 152Q194 146 224 135Q254 124 285 108L285 108Q218 3 96-65L96-65L98-78Q250-26 330 90L330 90Q373 67 411 30L411 30Q443 1 452 26L452 26Q456 50 443 74L443 74Q438 90 348 124L348 124Q395 193 436 376L436 376L513 386L515 398L443 398L456 420L399 442L392 398L285 389Q297 424 305.50 449Q314 474 317 493L317 493ZM638 134L638 134L704 156Q697 180 696 195Q695 210 695 222L695 222L695 480L726 499L638 534Q647 481 647 329L647 329Q647 180 638 134ZM619 380L547 427Q522 313 433 185L433 185L443 175Q532 264 582 360L582 360L619 380ZM736 437L736 437L729 424Q774 378 804.50 344.50Q835 311 849 285L849 285Q874 229 887 260L887 260Q903 280 903 304L903 304Q903 328 868 357L868 357Q838 382 736 437ZM846 190L890 209L814 263Q797 213 736 146L736 146Q712 113 674 83Q636 53 588 21L588 21Q537-8 482-31Q427-54 364-75L364-75L364-85Q516-61 635 11L635 11Q756 82 846 190L846 190Z"/></svg>