<svg id="U25BBF" viewBox="0 0 1024 1024"><path transform="translate(0, 921.6) scale(1,-1)" d="M307 749L348 768L263 809Q254 766 237.50 727Q221 688 200 649L200 649Q177 607 151 573Q125 539 98 506L98 506L111 497Q156 534 193 570.50Q230 607 257 649L257 649L292 649Q331 614 348 588L348 588Q370 562 387 534L387 534Q399 510 418 538L418 538Q436 569 433 575L433 575Q433 585 405 604L405 604Q373 623 320 649L320 649L544 649L480 721L440 673L266 673L307 749ZM680 758L717 768L629 809Q624 785 615 754.50Q606 724 588 686L588 686Q571 649 546.50 609.50Q522 570 490 526L490 526L497 516Q526 538 557 571Q588 604 623 649L623 649L654 649Q731 582 752 544L752 544Q771 507 789 516L789 516Q808 531 808 554L808 554Q812 578 786 601L786 601Q762 618 685 649L685 649L925 649L862 721L821 673L632 673L680 758ZM443 459L443 459L443 374L159 356L191 330L232 340L443 352L443 274L111 254L140 223L176 239L443 254L443 189Q443 125 513 125L513 125L840 125Q870 125 887 128L887 128Q905 135 925 163L925 163Q887 174 887 201L887 201Q887 215 885.50 229.50Q884 244 884 264L884 264L868 264Q865 247 863.50 231.50Q862 216 862 198L862 198Q850 163 805 163L805 163L534 163Q493 163 493 213L493 213L493 254L862 277L796 336L736 292L493 277L493 359L808 377L739 437L708 397L493 380L493 465Q544 470 610.50 475.50Q677 481 758 490L758 490L708 544Q630 507 493 494L493 494Q427 487 346 477.50Q265 468 166 459L166 459L166 447Q198 447 268 450.50Q338 454 443 459ZM764 110L755 100Q783 62 803.50 32Q824 2 834-27L834-27Q850-82 881-43L881-43Q899 6 871 37L871 37Q838 70 764 110L764 110ZM220 116L207 119Q189 73 170 44Q151 15 131-5L131-5Q91-39 125-52L125-52Q156-67 187-30L187-30Q220 10 220 116L220 116ZM346 107L346 107L336 100Q349 64 357 31.50Q365-1 367-30L367-30Q376-76 405-52L405-52Q441-21 424 10L424 10Q408 43 346 107ZM556 107L556 107L541 100Q587 32 591-24L591-24Q598-81 632-49L632-49Q657-18 647 18L647 18Q628 51 556 107Z"/></svg>