<svg id="U2579F" viewBox="0 0 1024 1024"><path transform="translate(0, 921.6) scale(1,-1)" d="M238 696L238 696L238 526L80 526L114 491Q147 501 181 501L181 501L232 501Q183 324 67 116L67 116L76 107Q124 164 165.50 230Q207 296 238 375L238 375Q238 225 237.50 113Q237 1 235-80L235-80L295-45Q292-15 292 93L292 93Q292 202 292 388L292 388Q329 347 348 293L348 293Q363 236 383 277L383 277Q395 313 383 344L383 344Q366 374 292 409L292 409L292 501L430 501L377 573L339 526L292 526L292 712Q332 721 360 725.50Q388 730 402 733L402 733L351 807Q332 785 304 769Q276 753 238 737L238 737Q174 706 96 689L96 689L98 674Q202 685 238 696ZM462 794L456 784Q513 716 531 674L531 674Q551 622 565 668L565 668Q585 706 562 733L562 733Q553 748 526.50 762Q500 776 462 794L462 794ZM408 579L405 570Q464 496 471 463L471 463Q484 421 500 440L500 440Q519 465 513 497L513 497Q513 538 408 579L408 579ZM408 224L408 224L408 208Q474 184 474 148L474 148Q478 124 474 101Q470 78 465 51L465 51Q446-1 487-42L487-42Q527-82 521 31L521 31Q521 88 521.50 128Q522 168 528 192L528 192Q530 218 536 245.50Q542 273 547 303L547 303Q554 330 573.50 420.50Q593 511 626 668L626 668L616 671Q504 241 484 229L484 229Q457 211 408 224ZM732 725L732 725L915 725L858 790L811 749L657 749L688 715Q700 717 710.50 721Q721 725 732 725ZM805 66L805 504L956 504L896 576L855 532L610 532L644 494Q674 504 717 504L717 504L755 504L755 66Q755 15 638 44L638 44L638 25Q737-3 732-62L732-62Q812-34 805 66L805 66Z"/></svg>