<svg id="U255D9" viewBox="0 0 1024 1024"><path transform="translate(0, 921.6) scale(1,-1)" d="M303 710L88 710L120 672Q147 685 192 685L192 685L212 685Q169 382 50 152L50 152L62 140Q134 231 161 326L161 326Q161 205 160.50 112Q160 19 158-50L158-50L212-21L212 74L312 74L312 2L362 30Q359 67 359 163L359 163Q359 259 359 414L359 414L388 445L335 489L309 452L212 452Q225 501 238 559Q251 617 265 685L265 685L400 685L341 758L303 710ZM212 99L212 427L312 427L312 99L212 99ZM860 427L879 717L914 741L866 795L839 761L737 761L769 720Q787 722 801 725.50Q815 729 835 729L835 729L829 660L760 660L794 622L829 628L822 546L744 546L778 509Q795 511 806 513Q817 515 822 515L822 515L819 427L505 427L498 521L602 521L564 571L533 546L498 546L495 622L577 622L542 672L523 647L495 647L492 735Q534 742 564.50 745.50Q595 749 611 754L611 754L577 814Q535 767 492 754L492 754L444 773Q444 721 448 634.50Q452 548 457 427L457 427L438 427L435 477L420 477Q412 391 391 367L391 367Q371 337 382 319L382 319Q396 305 413 311L413 311Q432 312 438 342L438 342Q444 357 444 398L444 398L886 398L863 329L876 316Q930 393 973 393L973 393L920 465L886 427L860 427ZM602 735L602 735L596 723Q607 713 619.50 703Q632 693 646 682L646 682Q635 665 620 647.50Q605 630 590 606L590 606L596 600Q614 616 632.50 631Q651 646 668 666L668 666Q688 646 703 622L703 622Q717 595 728 622L728 622Q742 636 728 660L728 660Q718 669 708 676.50Q698 684 687 691L687 691Q714 721 737 729L737 729L690 773Q684 752 676.50 736.50Q669 721 662 707L662 707Q644 716 627.50 722Q611 728 602 735ZM593 448L593 448L602 437Q611 445 628.50 459.50Q646 474 668 493L668 493Q680 476 690 464Q700 452 703 445L703 445Q712 420 728 445L728 445Q741 464 728 483L728 483Q721 490 710 500Q699 510 687 521L687 521Q709 549 740 563L740 563L693 603Q681 560 665 540L665 540Q645 544 628 549.50Q611 555 602 563L602 563L596 550Q607 538 621 529.50Q635 521 649 512L649 512Q635 494 620.50 479.50Q606 465 593 448ZM646 165L646 165L400 165L435 134Q451 136 468.50 138Q486 140 508 140L508 140L646 140L646 30Q646-19 614-19L614-19Q599-19 579.50-18.50Q560-18 533-16L533-16L533-28Q627-41 627-88L627-88Q693-64 693-9L693-9L693 140L945 140L886 209L842 165L693 165L693 203L724 216L703 231Q825 315 857 311L857 311L801 360L769 329L472 329L508 294Q528 298 545 299.50Q562 301 577 301L577 301L757 301L687 241L643 260Q643 230 644.50 208Q646 186 646 165Z"/></svg>