<svg id="U25EE1" viewBox="0 0 1024 1024"><path transform="translate(0, 921.6) scale(1,-1)" d="M114 715L114 715L104 705Q121 665 133 629Q145 593 150 561L150 561Q163 492 187 532L187 532Q220 569 191 617L191 617Q177 638 157.50 663Q138 688 114 715ZM245 807L245 476L89 476L122 438Q149 450 204 450L204 450L238 450Q192 276 76 82L76 82L89 69Q137 126 176.50 185.50Q216 245 245 314L245 314Q245 196 244.50 98.50Q244 1 241-77L241-77L298-52Q295-19 295 8L295 8Q295 36 295 63L295 63L295 353Q341 290 364 236L364 236Q388 179 405 229L405 229Q424 270 395 299L395 299Q378 316 353 336Q328 356 295 378L295 378L295 450L452 450L395 522L358 476L295 476L295 740L323 774L245 807ZM415 664L446 681L383 728Q368 662 350 609Q332 556 314 514L314 514L320 507Q346 539 368 579Q390 619 415 664L415 664ZM909 599L909 599L909 715L940 737L884 781L858 743L518 743L465 778Q476 659 471 501L471 501Q471 320 443 198L443 198Q429 134 403.50 69.50Q378 5 336-55L336-55L346-67Q443 36 484 198L484 198Q503 273 510.50 357Q518 441 518 532L518 532L862 532L862 488L912 510Q909 538 909 558L909 558Q909 579 909 599ZM518 561L518 718L673 718L673 561L518 561ZM723 561L723 718L862 718L862 561L723 561ZM919 79L919 79L919 396L947 419L884 469L862 432L610 432L550 457Q550 419 552 352.50Q554 286 554 192L554 192Q554 95 552 28.50Q550-38 550-80L550-80L600-55L600-17L868-17L868-77L922-49Q919-9 919 22L919 22Q919 53 919 79ZM600 296L600 406L868 406L868 296L600 296ZM600 157L600 271L868 271L868 157L600 157ZM600 6L600 132L868 132L868 6L600 6Z"/></svg>