<svg id="U259C3" viewBox="0 0 1024 1024"><path transform="translate(0, 921.6) scale(1,-1)" d="M446 593L377 656Q365 638 337 621Q309 604 269 580L269 580Q231 559 189 538.50Q147 518 101 501L101 501L104 483Q158 494 233.50 522Q309 550 408 596L408 596L446 593ZM575 633L575 633L575 612Q635 594 678 582Q721 570 745 558L745 558Q773 546 796 535.50Q819 525 837 511L837 511Q875 476 875 530L875 530Q875 568 814 593L814 593Q783 599 724.50 610Q666 621 575 633ZM153 331L153 331L128 313L163 265L200 290L333 290L333 193L73 193L98 161Q135 167 156 167L156 167L197 167Q193 10 73-64L73-64L76-76Q244-5 248 167L248 167L333 167Q333 76 332.50 18.50Q332-39 330-70L330-70L387-45L383 44L383 454L405 479L330 511Q332 475 332.50 427.50Q333 380 333 319L333 319L197 319L197 413L220 438L150 467Q152 434 152.50 400Q153 366 153 331ZM682 341L682 438L919 438L871 498L830 463L415 463L446 423Q465 427 483 432.50Q501 438 525 438L525 438L629 438L629 341L513 341L459 360Q461 322 461.50 268Q462 214 462 136L462 136Q462 63 461.50 12Q461-39 459-70L459-70L510-57L510 54Q620 109 663 208L663 208Q713 156 736 108L736 108Q750 57 777 95L777 95Q799 128 777 152L777 152Q764 168 667 224L667 224Q680 259 680 313L680 313L811 313L811 13Q806 8 802.50 3.50Q799-1 796-4L796-4Q791-6 685-1L685-1L685-19Q778-32 793-80L793-80Q858-51 858-1L858-1L858 303L878 324L837 365L799 341L682 341ZM510 67L510 313L629 313Q624 227 597 174L597 174Q580 145 558.50 117.50Q537 90 510 67L510 67ZM862 674L830 609L840 599Q895 663 950 674L950 674L887 735L852 699L528 699Q569 740 544 769L544 769Q517 792 433 825L433 825L428 813Q443 796 455.50 782Q468 768 477 756L477 756Q488 740 500 699L500 699L172 699L172 747L153 747Q149 666 104 640L104 640Q69 613 86 596L86 596Q106 575 138 596L138 596Q172 615 172 674L172 674L862 674Z"/></svg>