<svg id="U25E06" viewBox="0 0 1024 1024"><path transform="translate(0, 921.6) scale(1,-1)" d="M346 583L325 551L195 551L138 583Q157 229 135 126L135 126Q113 14 55-83L55-83L71-90Q188 57 192 198L192 198L325 198L325 28Q329-19 208 19L208 19L208 3Q290-21 295-77L295-77Q372-42 372 3L372 3L372 517L403 535L346 583ZM195 391L195 526L325 526L325 391L195 391ZM195 224L195 362L325 362L325 224L195 224ZM809 438L510 438L447 460Q451 437 452.50 410.50Q454 384 454 353L454 353Q454 319 452.50 290Q451 261 447 236L447 236L503 252L503 258L822 258L822 242L876 258Q873 265 873 409L873 409L891 428L840 466L809 438ZM503 283L503 413L822 413L822 283L503 283ZM516 299L516 299L523 293Q558 297 597.50 310Q637 323 680 340L680 340Q710 326 730.50 314Q751 302 762 293L762 293Q789 270 794 296L794 296Q794 317 768 334L768 334Q749 338 733.50 344.50Q718 351 702 355L702 355Q730 367 753 374.50Q776 382 794 388L794 388L743 419Q726 396 673 375L673 375Q612 391 545 396L545 396L542 391Q577 379 602.50 369.50Q628 360 645 355L645 355Q613 338 580.50 324Q548 310 516 299ZM425 529L425 529Q485 492 501 469L501 469Q509 442 542 460L542 460Q566 484 542 497L542 497Q514 519 466 532L466 532Q525 567 529 573L529 573Q533 575 541 579Q549 583 567 586L567 586L507 620Q498 587 425 529ZM608-26L608-26L652-74Q682-23 762 3L762 3L753 19L668-5L668 186L696 208L621 236Q621 219 622.50 188.50Q624 158 624 116L624 116L624 10Q624-4 608-26ZM510 119L510 119L503 110Q517 97 532.50 80.50Q548 64 564 44L564 44Q590-10 601 41L601 41Q620 75 580 91L580 91Q562 100 545 106Q528 112 510 119ZM721 586L721 586L662 620Q651 584 586 532L586 532Q640 500 658 473L658 473Q672 437 699 460L699 460Q721 479 702 494L702 494Q681 509 627 532L627 532Q675 561 683 570L683 570Q692 574 701 578.50Q710 583 721 586ZM762 535L762 535Q829 493 840 469L840 469Q852 445 876 460L876 460Q897 481 876 504L876 504Q844 523 803 535L803 535Q829 552 843 562.50Q857 573 860 576L860 576Q860 582 891 592L891 592L840 623Q832 609 812.50 586.50Q793 564 762 535ZM516 192L516 192L510 183Q561 145 576 123L576 123Q598 88 604 126L604 126Q619 153 595 167L595 167Q584 176 563.50 180.50Q543 185 516 192ZM696 119L696 119L686 104Q734 66 755 41L755 41Q776 15 784 44L784 44Q795 75 762 85L762 85Q748 94 731 100.50Q714 107 696 119ZM696 192L696 192L686 183Q705 165 721.50 152.50Q738 140 750 126L750 126Q768 104 778 129L778 129Q783 157 759 167L759 167Q745 176 728.50 180.50Q712 185 696 192ZM421-36L421-36L469-86Q490-47 588 6L588 6L576 19L482-17L482 173L510 201L431 224Q431 202 432.50 171Q434 140 434 98L434 98L434-5Q434-23 421-36ZM932 57L891-14Q832 43 840 180L840 180L866 205L794 227Q791 185 794 138.50Q797 92 809 44L809 44Q830-54 920-93L920-93Q920-52 945 51L945 51L932 57ZM290 771L325 778L246 818Q231 780 211 749Q191 718 173 689L173 689Q154 661 129.50 632.50Q105 604 78 576L78 576L90 570Q175 622 233 702L233 702L308 702Q327 679 340.50 658.50Q354 638 362 614L362 614Q374 564 393 589L393 589Q422 612 419 640L419 640Q414 651 394.50 668.50Q375 686 336 702L336 702L545 702L485 762L451 728L249 728L290 771ZM677 771L714 778L636 818Q627 802 615.50 781.50Q604 761 595 740L595 740Q579 714 554.50 680.50Q530 647 498 604L498 604L507 595Q537 623 565 649.50Q593 676 617 702L617 702L683 702Q726 653 737 623L737 623Q756 589 768 589L768 589Q778 589 791 614L791 614Q795 642 781 661L781 661Q768 680 714 702L714 702L948 702L891 762L847 728L636 728L677 771Z"/></svg>