<svg id="U25BCD" viewBox="0 0 1024 1024"><path transform="translate(0, 921.6) scale(1,-1)" d="M322 756L359 769L274 810Q254 718 205 640L205 640Q183 594 158 559.50Q133 525 106 497L106 497L120 488Q168 523 201.50 560.50Q235 598 262 636L262 636L300 636Q320 616 334 600.50Q348 585 356 573L356 573Q368 559 376.50 545Q385 531 394 520L394 520Q408 493 429 522L429 522Q448 553 441 561L441 561Q441 573 416 589L416 589Q404 596 382 607.50Q360 619 325 636L325 636L555 636L495 702L457 664L274 664L322 756ZM700 749L734 766L652 810Q640 773 625.50 736Q611 699 593 664L593 664Q555 587 492 504L492 504L501 497Q536 525 567.50 561.50Q599 598 631 636L631 636L672 636Q709 603 733 575.50Q757 548 769 529L769 529Q791 489 806 501L806 501Q826 515 826 538L826 538Q826 567 804 586L804 586Q785 600 703 636L703 636L955 636L898 705L850 664L646 664L700 749ZM312 268L312 268Q331 251 347.50 228.50Q364 206 379 180L379 180Q407 120 413 148L413 148Q418 160 421 172Q424 184 429 198L429 198Q431 223 403 245L403 245Q394 254 370.50 265Q347 276 312 296L312 296L312 378L467 378L400 450L353 403L312 403L312 479L350 504L256 542Q259 522 259 403L259 403L91 403L127 365Q153 378 196 378L196 378L246 378Q222 290 176.50 206Q131 122 68 44L68 44L81 31Q185 123 259 255L259 255Q259 143 258.50 60Q258-23 256-83L256-83L318-58Q312 27 312 268ZM536 365L536 365Q550 230 631 101L631 101Q535 1 341-64L341-64L344-77Q441-58 521.50-24.50Q602 9 665 63L665 63Q748-23 866-70L866-70Q871-46 939-26L939-26L939-11Q785 12 703 91L703 91Q779 212 816 416L816 416L942 416L879 488L842 440L577 440Q589 457 599 471Q609 485 614 497L614 497L649 517L570 555Q547 471 510.50 395Q474 319 420 249L420 249L431 242Q460 263 485 295Q510 327 536 365ZM555 396L567 413L760 413Q722 219 665 129L665 129Q583 244 555 396L555 396Z"/></svg>