<svg id="U25ED2" viewBox="0 0 1024 1024"><path transform="translate(0, 921.6) scale(1,-1)" d="M116 707L116 707L100 704Q117 658 128 623.50Q139 589 142 568L142 568Q150 523 168 534L168 534Q188 545 192 578L192 578Q198 606 180 632L180 632Q173 644 156 661Q139 678 116 707ZM268 383L268 383L268 461L403 461L346 530L309 489L268 489L268 745L290 767L215 808Q217 788 219 767Q221 746 221 726L221 726L221 489L91 489L123 452L168 461L215 461Q207 413 195.50 369Q184 325 168 282L168 282Q148 236 124 188.50Q100 141 65 87L65 87L78 80Q103 108 123.50 135Q144 162 161 190L161 190Q180 214 194.50 243.50Q209 273 221 307L221 307Q221 168 219 74Q217-20 215-75L215-75L271-34Q268-15 268 3L268 3Q268 21 268 42L268 42L268 360Q287 332 301 304.50Q315 277 325 254L325 254Q340 200 350 216L350 216Q365 227 369 254L369 254Q373 278 356 301L356 301Q348 313 326 332.50Q304 352 268 383ZM400 663L400 663L429 682L356 723Q352 641 287 521L287 521L297 518Q347 568 400 663ZM542 741L470 770Q458 634 432.50 518.50Q407 403 362 301L362 301L369 294Q396 315 410 345L410 345Q450 281 464 244L464 244Q476 210 492 244L492 244Q505 281 489 304L489 304Q475 326 420 360L420 360Q438 395 453.50 436.50Q469 478 482 527L482 527L570 527Q560 439 543 360.50Q526 282 498 216L498 216Q447 75 338-31L338-31L346-44Q471 51 536 200L536 200Q595 342 621 530L621 530L652 550L598 591L570 553L489 553Q495 585 503 627Q511 669 520 720L520 720L542 741ZM624 713L624 713L614 707Q621 684 629.50 661.50Q638 639 646 612L646 612Q652 586 657 563.50Q662 541 665 518L665 518Q674 477 693 496L693 496Q712 524 712 550L712 550Q715 563 709 579.50Q703 596 696 612L696 612Q684 629 667 654.50Q650 680 624 713ZM917 669L917 669L939 685L873 726Q853 599 804 493L804 493L816 486Q886 569 917 669ZM737-82L737-82L791-50Q788-34 788 23L788 23L788 414L798 414Q803 323 832 219L832 219Q846 164 862 118Q878 72 895 30L895 30Q920 64 958 55L958 55L958 70Q936 91 914 124.50Q892 158 876 203L876 203Q859 251 843.50 302.50Q828 354 816 414L816 414L958 414L911 480L870 439L788 439L788 735L816 773L737 808Q737 788 738.50 763Q740 738 740 710L740 710L740 439L602 439L639 401L680 414L716 414Q665 196 520 8L520 8L526-3Q681 144 740 319L740 319Q740 160 738.50 60.50Q737-39 737-82Z"/></svg>