<svg id="U25FAF" viewBox="0 0 1024 1024"><path transform="translate(0, 921.6) scale(1,-1)" d="M119 185L104 178Q121 59 111 21L111 21Q91-17 114-21L114-21Q130-29 150-9L150-9Q173 7 169 39L169 39Q164 60 153 94Q142 128 119 185L119 185ZM225 193L213 188Q227 130 236 92Q245 54 248 30L248 30Q251-10 276 11L276 11Q307 36 307 67L307 67Q307 99 225 193L225 193ZM317 231L307 226Q336 180 353 143Q370 106 380 80L380 80Q396 26 415 62L415 62Q435 98 428 128L428 128Q424 148 317 231L317 231ZM314 758L314 758L238 808Q211 706 156 619L156 619Q107 529 76 524L76 524L111 458Q145 480 179 489L179 489Q199 496 223.50 502Q248 508 279 515L279 515Q246 461 214.50 420Q183 379 153 352L153 352Q96 291 76 291L76 291L117 216Q141 237 187 250L187 250Q211 259 252.50 267.50Q294 276 351 288L351 288Q358 271 363 258Q368 245 371 234L371 234Q375 210 395 231L395 231Q415 256 415 288L415 288Q415 328 307 417L307 417L295 408Q309 382 322.50 357.50Q336 333 346 307L346 307L138 288Q181 330 220.50 374.50Q260 419 295 468L295 468Q382 574 392 574L392 574L330 625Q320 602 310.50 579Q301 556 289 537L289 537L138 524Q166 564 192.50 600.50Q219 637 245 679L245 679Q268 716 287 735.50Q306 755 314 758ZM695 108L695 304L868 304Q849 108 821 99L821 99Q806 99 781.50 105.50Q757 112 717 124L717 124L714 108Q776 78 783 62L783 62Q792 54 796.50 42.50Q801 31 808 18L808 18Q861 32 881 80L881 80Q892 106 901.50 159.50Q911 213 919 294L919 294L947 326L887 373L858 332L695 332L695 499L846 499L846 477L896 502Q893 532 893 579L893 579Q893 627 893 691L893 691L931 713L878 770L840 732L428 732L462 697Q478 700 495 703.50Q512 707 531 707L531 707L644 707L644 524L525 524L469 563Q466 528 462 491.50Q458 455 449 420L449 420Q440 345 415 329L415 329L462 272L484 304L644 304L644 99Q644 56 642.50 12.50Q641-31 641-82L641-82L698-57Q695-6 695 32L695 32Q695 70 695 108L695 108ZM695 524L695 707L846 707L846 524L695 524ZM518 499L518 499L644 499L644 332L484 332Q488 360 497.50 402Q507 444 518 499Z"/></svg>