<svg id="U25543" viewBox="0 0 1024 1024"><path transform="translate(0, 921.6) scale(1,-1)" d="M354 678L98 678L131 646Q147 648 164 650Q181 652 203 652L203 652L235 652Q211 505 165.50 378.50Q120 252 57 146L57 146L70 133Q107 181 135 223Q163 265 184 313L184 313Q184 198 183 109.50Q182 21 178-48L178-48L235-22L235 70L348 70L348 4L405 32Q402 67 402 158L402 158Q402 250 402 397L402 397L430 423L370 470L345 433L235 433Q249 478 263 533Q277 588 292 652L292 652L465 652L402 726L354 678ZM235 95L235 404L348 404L348 95L235 95ZM887 451L802 498Q799 472 788.50 439Q778 406 755 366L755 366Q717 286 681 274L681 274L720 202Q759 229 902 269L902 269Q907 249 909.50 233Q912 217 915 202L915 202Q919 174 950 202L950 202Q971 229 950 284L950 284Q935 311 916 338Q897 365 871 395L871 395L858 385L896 294L729 274Q796 352 846 436L846 436L887 451ZM465 587L465 587L515 508Q620 550 840 574L840 574Q858 553 868.50 535Q879 517 887 508L887 508Q897 474 925 521L925 521Q941 560 896 605L896 605Q873 624 838 643.50Q803 663 758 685L758 685L751 672Q765 657 782 638Q799 619 820 596L820 596L540 577Q580 612 618 649.50Q656 687 698 729L698 729L748 734L660 794Q640 754 617 717Q594 680 565 649L565 649Q517 587 465 587ZM606 454L528 502Q522 478 510 443Q498 408 477 366L477 366Q431 278 408 278L408 278L439 205Q480 235 619 269L619 269Q619 244 625 205L625 205Q634 179 663 209L663 209Q690 236 676 287L676 287Q651 341 594 392L594 392L581 382Q593 364 601 341.50Q609 319 619 294L619 294L459 278Q491 320 519 358Q547 396 568 438L568 438L606 454ZM515 152L515 152L496 158Q467 35 421-4L421-4Q373-42 405-63L405-63Q438-78 471-41L471-41Q491-20 500.50 26.50Q510 73 515 152ZM585 143L585 143L568 133Q600 28 600-22L600-22Q600-88 635-61L635-61Q665-33 657 14L657 14Q651 39 631.50 70Q612 101 585 143ZM720 146L720 146L711 133Q728 96 738.50 61Q749 26 751-7L751-7Q761-76 789-45L789-45Q817-11 802 29L802 29Q789 71 720 146ZM837 161L837 161L827 148Q889 55 906-22L906-22Q915-95 950-51L950-51Q979-10 956 32L956 32Q940 75 837 161Z"/></svg>