<svg id="U25150" viewBox="0 0 1024 1024"><path transform="translate(0, 921.6) scale(1,-1)" d="M411 759L92 759L125 725Q141 727 158.50 728.50Q176 730 197 730L197 730L251 730Q251 596 200 491L200 491Q152 394 76 340L76 340L86 324Q189 383 232 460L232 460Q282 540 289 611L289 611L421 611Q416 554 412 517Q408 480 402 460L402 460Q390 419 367 419L367 419Q357 419 334 422Q311 425 279 435L279 435L279 416Q357 390 361 353L361 353Q402 364 430 400L430 400Q458 438 471 602L471 602L500 623L452 668L424 636L298 636Q301 656 303 681.50Q305 707 307 730L307 730L513 730L456 797L411 759ZM578 743L578 743L786 743Q754 625 680 535L680 535Q653 570 627 620.50Q601 671 578 743ZM786 769L510 769L534 730L559 743Q571 683 594 625.50Q617 568 651 507L651 507Q605 456 552 418Q499 380 436 350L436 350L440 340Q564 368 680 469L680 469Q768 370 878 340L878 340Q886 381 947 381L947 381L947 396Q827 400 714 497L714 497Q790 584 840 728L840 728L868 746L821 800L786 769ZM314 13L314 91L717 91L717 13L314 13ZM770 72L770 296L802 314L752 372L714 337L320 337L257 368Q260 326 260.50 270Q261 214 261 139L261 139Q261 64 260.50 12Q260-40 257-74L257-74L314-55L314-11L717-11L717-64L773-36Q770-1 770 26L770 26Q770 53 770 72L770 72ZM314 227L314 312L717 312L717 227L314 227ZM314 119L314 201L717 201L717 119L314 119Z"/></svg>