<svg id="U2545D" viewBox="0 0 1024 1024"><path transform="translate(0, 921.6) scale(1,-1)" d="M362 738L91 738L123 697Q139 700 157 702.50Q175 705 196 710L196 710L227 710Q204 558 158.50 427.50Q113 297 50 185L50 185L62 178Q135 266 177 354L177 354Q177 237 176 147.50Q175 58 171-9L171-9L227 11L227 105L341 105L341 39L394 64Q391 104 391 196L391 196Q391 289 391 439L391 439L420 468L372 515L338 480L227 480Q241 522 255 579.50Q269 637 284 710L284 710L464 710L410 782L362 738ZM227 131L227 455L341 455L341 131L227 131ZM549 726L781 726L683 603L634 632Q634 559 635.50 488Q637 417 637 348L637 348L637 46Q637-9 517 18L517 18L517 2Q604-14 614-69L614-69Q685-39 690 26L690 26L690 437Q736 193 895 18L895 18Q930 62 973 62L973 62L973 77Q878 116 765 313L765 313L879 414L914 411L847 480Q813 400 763 335L763 335Q721 393 693 493L693 493L693 543L731 563L703 591Q848 727 895 723L895 723L822 795L778 751L464 751L498 720Q514 722 526.50 724Q539 726 549 726L549 726ZM513 493L549 493Q506 160 366-16L366-16L375-28Q546 130 605 489L605 489L631 512L577 556L545 518L403 518L438 486Q455 488 475 490.50Q495 493 513 493L513 493Z"/></svg>