<svg id="U2585A" viewBox="0 0 1024 1024"><path transform="translate(0, 921.6) scale(1,-1)" d="M369 413L366 535Q440 491 467 453L467 453Q488 421 505 435L505 435Q525 443 511 488L511 488Q507 519 366 555L366 555L366 602L567 602L517 664L472 627L366 627L366 725Q408 727 445 729Q482 731 520 737L520 737L461 797Q387 762 325 749L325 749Q289 744 244.50 736.50Q200 729 148 725L148 725L148 709Q172 709 213.50 711.50Q255 714 315 722L315 722L315 627L81 627L117 589Q140 591 162 593.50Q184 596 208 602L208 602L303 602Q232 480 81 368L81 368L91 353Q159 391 214.50 435.50Q270 480 315 532L315 532Q315 475 314.50 438Q314 401 312 381L312 381L369 413ZM246 274L246 274Q224 304 168 350L168 350L158 340Q190 282 196 239L196 239Q201 192 233 221L233 221Q259 246 246 274ZM312 293L312 201L81 201L120 167Q143 172 165.50 174.50Q188 177 208 177L208 177L277 177Q211 61 72-39L72-39L81-52Q234 33 312 129L312 129L312 69Q312 40 310 3.50Q308-33 305-90L305-90L362-67Q357-16 356.50 20Q356 56 356 82L356 82L356 119Q430 87 470 28L470 28Q513-24 523 22L523 22Q543 67 489 88L489 88Q468 103 433 115Q398 127 356 142L356 142L356 177L580 177L517 242L470 201L362 201Q494 310 539 324L539 324L485 368Q443 309 356 218L356 218L356 331L388 355L305 391Q308 355 310 332Q312 309 312 293L312 293ZM643 589L643 589L876 589Q871 353 867.50 226Q864 99 860 75L860 75Q855 26 839 10L839 10Q819-8 801-8L801-8Q791-8 762.50-5Q734-2 683 6L683 6L683-14Q774-31 791-86L791-86Q838-65 860-45L860-45Q871-35 878.50-25Q886-15 891-5L891-5Q896 9 900.50 26Q905 43 907 63L907 63Q910 81 912.50 208Q915 335 920 573L920 573L952 604L904 652L866 614L655 614Q667 643 677.50 673.50Q688 704 706 746L706 746L744 762L662 815Q620 586 498 409L498 409L511 400Q586 470 643 589ZM769 227L590 221Q615 251 649 308Q683 365 721 450L721 450L753 473L680 522Q676 487 663 442Q650 397 627 340L627 340Q583 225 545 221L545 221L583 148Q615 175 665 192L665 192Q691 198 717 202.50Q743 207 772 214L772 214Q772 173 781 154L781 154Q791 135 813 160L813 160Q837 185 822 224L822 224Q811 268 731 350L731 350L719 340Q730 318 743.50 290Q757 262 769 227L769 227Z"/></svg>