<svg id="U259B0" viewBox="0 0 1024 1024"><path transform="translate(0, 921.6) scale(1,-1)" d="M276-22L276-22L92-22L128-54Q148-50 165.50-48.50Q183-47 200-47L200-47L944-47L881 15L840-22L562-22L562 92L852 92L793 156L752 121L562 121L562 215L906 215L846 282L796 241L179 241L213 206Q231 208 244 211.50Q257 215 266 215L266 215L510 215L510-22L326-22L326 99L354 124L273 162Q275 138 275.50 92.50Q276 47 276-22ZM783 420L821 436L777 493L736 460L387 460L471 508L503 505L449 565Q350 466 156 379L156 379L159 364Q201 372 243 388Q285 404 330 429L330 429Q400 378 408 364L408 364Q426 350 430 332L430 332Q385 302 67 253L67 253L73 238Q465 260 783 420L783 420ZM471 382L471 382Q454 403 346 436L346 436L711 436Q544 357 459 338L459 338Q485 361 471 382ZM871 668L830 606L840 596Q914 661 956 668L956 668L893 729L862 694L528 694Q571 737 544 760L544 760Q521 785 433 820L433 820L428 807Q457 776 477 750L477 750Q495 728 500 694L500 694L176 694L176 742L156 742Q151 662 114 634L114 634Q76 606 92 590L92 590Q111 570 140 590L140 590Q176 608 176 668L176 668L871 668ZM114 511L114 511L114 496Q438 518 424 694L424 694L371 694Q388 554 114 511ZM654 694L603 694L603 596Q603 503 695 514L695 514L799 514Q896 514 909 527L909 527Q919 538 893 558L893 558Q871 575 849 565L849 565Q827 550 736 555L736 555L720 555Q654 550 654 596L654 596L654 694Z"/></svg>