<svg id="U2550B" viewBox="0 0 1024 1024"><path transform="translate(0, 921.6) scale(1,-1)" d="M621-16L621 278L696 278L696-16L621-16ZM747-16L747 278L829 278L829-16L747-16ZM441-16L441-16L341-16L372-54Q391-51 409.50-48.50Q428-46 448-44L448-44L973-44L924 23L876-16L876 266L907 298L854 342L826 304L489 304L435 335Q439 287 441 200Q443 113 441-16ZM526 597L526 713L791 713L791 597L526 597ZM526 442L526 571L791 571L791 442L526 442ZM470 370L470 370L526 393L526 417L791 417L791 373L847 396Q845 413 845 489L845 489Q845 565 845 701L845 701L873 729L813 779L778 741L526 741L470 770Q474 731 475 676.50Q476 622 476 556L476 556Q476 489 475 441.50Q474 394 470 370ZM489-16L489 278L574 278L574-16L489-16ZM331 707L81 707L116 672Q130 675 147.50 676Q165 677 186 682L186 682L221 682Q169 392 50 165L50 165L59 159Q122 227 168 332L168 332Q168 208 167.50 115.50Q167 23 164-41L164-41L215-16L215 70L331 70L331 8L385 39Q382 71 382 164L382 164Q382 258 382 417L382 417L410 439L359 489L328 452L215 452Q228 497 244 553.50Q260 610 274 682L274 682L438 682L372 751L331 707ZM215 99L215 424L331 424L331 99L215 99Z"/></svg>