<svg id="U25336" viewBox="0 0 1024 1024"><path transform="translate(0, 921.6) scale(1,-1)" d="M336 186L336 671L364 702L314 746L289 715L138 715L86 743Q91 712 91.50 679Q92 646 92 614L92 614L92 107Q92 90 91.50 62Q91 34 86-1L86-1L138 19L138 82L289 82L289 28L339 51Q336 74 336 108L336 108Q336 143 336 186L336 186ZM138 514L138 689L289 689L289 514L138 514ZM138 314L138 485L289 485L289 314L138 314ZM138 107L138 286L289 286L289 107L138 107ZM490 110L490 183L777 183L777 110L490 110ZM830 186L830 340L855 359L783 406L770 381L487 381L430 400Q432 369 436 324Q440 279 440 221L440 221Q440 155 436 113.50Q432 72 430 44L430 44L490 63L490 85L777 85L777 54L834 69Q831 98 830.50 126Q830 154 830 186L830 186ZM490 296L490 355L777 355L777 296L490 296ZM490 208L490 268L777 268L777 208L490 208ZM565 13L606 13L550 72Q479-6 333-67L333-67L336-83Q402-66 458-41Q514-16 565 13L565 13ZM676 69L676 69L676 54Q808-13 843-58L843-58Q884-99 893-64L893-64Q904-20 858 3L858 3Q837 15 791.50 32.50Q746 50 676 69ZM578 535L537 595L500 561L446 561L446 630L578 630L537 687L506 655L446 655L446 715Q552 733 582 733L582 733L547 787Q500 744 440 737L440 737L392 753Q392 720 393.50 689Q395 658 395 630L395 630Q395 601 393.50 568.50Q392 536 392 501L392 501L446 514L446 535L578 535ZM670 570L698 532L714 542L821 542L821 520L878 535Q875 559 875 602L875 602Q875 646 875 712L875 712L899 733L849 781L818 746L680 746L714 712Q730 714 746.50 716Q763 718 783 718L783 718L821 718L821 658L695 658L726 627Q745 629 765 631Q785 633 811 633L811 633L821 633L821 570L670 570ZM663 538L644 566Q651 593 654.50 641.50Q658 690 663 762L663 762L682 784L603 810Q613 669 588 566L588 566L582 538Q531 441 314 381L314 381L314 359Q584 410 641 548L641 548Q696 437 878 365L878 365Q878 393 937 413L937 413L937 425Q754 447 663 538L663 538Z"/></svg>