<svg id="U25E01" viewBox="0 0 1024 1024"><path transform="translate(0, 921.6) scale(1,-1)" d="M335 177L335 243L444 243L444 224L498 246Q493 270 492.50 291Q492 312 492 331L492 331L511 350L461 398L431 363L335 363L335 416L375 416L375 398L429 419Q424 436 423.50 452Q423 468 423 486L423 486L567 486L505 545L464 514L423 514L423 539L451 565L372 602Q372 580 373.50 557Q375 534 375 514L375 514L236 514L236 545L268 573L186 612Q188 585 190 559.50Q192 534 192 514L192 514L72 514L106 479Q126 484 147.50 487.50Q169 491 192 491L192 491Q192 465 190 439Q188 413 186 385L186 385L236 404L236 416L290 416L290 363L196 363L139 388Q141 368 141.50 345.50Q142 323 142 303L142 303Q142 277 141.50 254.50Q141 232 139 211L139 211L196 231L196 243L290 243Q290 226 289.50 211Q289 196 287 177L287 177L116 177L148 149Q167 149 187 150.50Q207 152 230 152L230 152L287 152Q284 140 283 126.50Q282 113 277 98L277 98L81 98L112 70Q143 82 196 73L196 73L271 73Q231 1 72-67L72-67L72-83Q253-44 318 61L318 61Q394 10 426-35L426-35Q451-69 467-54L467-54Q471-40 474-27.50Q477-15 472-7L472-7Q466 10 426 29L426 29Q406 35 380.50 46.50Q355 58 325 70L325 70L328 73L552 73L492 142L454 98L331 98Q331 137 335 152L335 152L517 152L461 221L420 177L335 177ZM236 442L236 486L375 486L375 442L236 442ZM196 268L196 337L290 337L290 268L196 268ZM335 268L335 337L444 337L444 268L335 268ZM618 309L618 419L724 419L724 309L618 309ZM696 630L696 630L683 614Q709 574 724 546Q739 518 744 501L744 501Q761 460 775 476L775 476Q790 492 794 517L794 517Q794 546 769 571L769 571Q750 579 732.50 596.50Q715 614 696 630ZM567-86L567-86L618-60L618-10L935-10L888 57L842 13L772 13L772 129L917 129L866 193L829 155L772 155L772 284L914 284L860 344L829 309L772 309L772 419L932 419L879 483L835 445L614 445L659 561L693 573L618 614Q612 570 583 473L583 473Q566 419 546 371Q526 323 498 272L498 272L508 265Q528 291 544 313.50Q560 336 570 360L570 360L570 92Q570 44 568.50 0.50Q567-43 567-86ZM618 155L618 284L724 284L724 155L618 155ZM618 13L618 129L724 129L724 13L618 13ZM297 776L331 779L253 817Q238 782 219 754Q200 726 180 699L180 699Q161 671 136 645.50Q111 620 81 593L81 593L94 583Q176 629 236 706L236 706L303 706Q346 657 353 627L353 627Q365 582 388 602L388 602Q414 624 410 650L410 650Q406 668 331 706L331 706L549 706L492 769L454 732L253 732L297 776ZM680 779L719 784L637 832Q629 813 619 789.50Q609 766 596 738L596 738Q581 708 557.50 674.50Q534 641 505 599L505 599L517 589Q543 617 570 645Q597 673 621 706L621 706L687 706Q713 673 727.50 651Q742 629 750 617L750 617Q753 593 772 593L772 593Q789 593 794 617L794 617Q800 643 785 658L785 658Q774 677 719 706L719 706L952 706L895 756L850 732L639 732L680 779Z"/></svg>