<svg id="U2580E" viewBox="0 0 1024 1024"><path transform="translate(0, 921.6) scale(1,-1)" d="M249 696L249 696L249 535L81 535L116 501Q130 503 147 505Q164 507 183 507L183 507L240 507Q216 423 173.50 331Q131 239 68 145L68 145L78 132Q182 250 249 388L249 388Q249 246 248.50 131.50Q248 17 246-77L246-77L300-45Q297 0 297 111L297 111Q297 223 297 403L297 403Q343 356 356 312L356 312Q378 259 394 299L394 299Q416 330 394 362L394 362Q380 388 297 422L297 422L297 507L444 507L388 579L346 535L297 535L297 712Q339 724 368.50 728.50Q398 733 413 733L413 733L366 803Q330 767 249 737L249 737Q170 703 100 689L100 689L103 674Q208 685 249 696ZM740 107L703 167Q718 167 747 221L747 221Q760 241 771.50 270Q783 299 794 337L794 337L850 286Q824 282 747 164L747 164L842 170Q836 187 832.50 207Q829 227 822 245L822 245L835 249Q882 185 888 157L888 157Q899 131 876 107L876 107Q850 79 850 107L850 107Q845 125 845 151L845 151Q772 138 740 107L740 107ZM659 391L659 60Q642-45 734-36L734-36L870-36Q930-36 955 19L955 19Q930 19 927 69L927 69Q921 95 920.50 120.50Q920 146 920 177L920 177L907 177Q902 143 899.50 112.50Q897 82 895 57L895 57Q889 12 863 6L863 6L757 6Q701-2 706 54L706 54L706 391L659 391ZM501 579L501 709L627 709L627 579L501 579ZM678 579L678 709L813 709L813 579L678 579ZM501 416L501 555L627 555L627 416L501 416ZM678 416L678 555L813 555L813 416L678 416ZM804 733L501 733L448 766Q448 724 449.50 673.50Q451 623 451 563L451 563Q451 505 449.50 448Q448 391 448 337L448 337L501 359L501 388L567 388Q556 229 485 129L485 129Q452 75 412.50 37.50Q373 0 325-29L325-29L331-45Q481 37 549 148L549 148Q579 205 596 263.50Q613 322 621 388L621 388L813 388L813 347L863 375Q860 400 860 481L860 481Q860 562 860 696L860 696L891 722L842 771L804 733Z"/></svg>