<svg id="U25478" viewBox="0 0 1024 1024"><path transform="translate(0, 921.6) scale(1,-1)" d="M371 685L104 685L138 653Q153 655 170.50 656Q188 657 210 660L210 660L241 660Q198 383 63 168L63 168L76 159Q145 236 191 326L191 326Q191 214 190 127.50Q189 41 184-19L184-19L241 2L241 90L354 90L354 30L411 55Q408 87 408 175L408 175Q408 264 408 411L408 411L436 439L377 480L351 445L241 445Q269 526 298 660L298 660L471 660L415 729L371 685ZM241 115L241 420L354 420L354 115L241 115ZM641 278L641 278L632 272Q650 243 661 222.50Q672 202 680 190L680 190Q683 176 686.50 161Q690 146 698 128L698 128Q703 79 726 121L726 121Q753 146 732 190L732 190Q706 228 641 278ZM717 745L717 745L745 764L682 811Q677 784 659.50 744Q642 704 619 647L619 647L582 647L531 682Q531 639 532.50 555Q534 471 534 345L534 345L418 345L452 311Q469 313 487.50 314.50Q506 316 525 316L525 316L534 316Q534 63 389-75L389-75L395-85Q566 13 585 316L585 316L796 316L796 42Q796 1 777-3L777-3Q767-3 742.50-0.50Q718 2 676 11L676 11L676-3Q760-29 773-85L773-85Q839-65 843 18L843 18L843 316L960 316L903 393L862 345L843 345L843 606L881 638L824 685L793 647L638 647Q659 680 679.50 704Q700 728 717 745ZM585 345L585 622L796 622L796 345L585 345ZM629 574L629 574L626 565Q681 478 688 442L688 442Q708 393 726 427L726 427Q748 458 723 489L723 489Q712 505 688.50 526.50Q665 548 629 574Z"/></svg>