<svg id="U2538D" viewBox="0 0 1024 1024"><path transform="translate(0, 921.6) scale(1,-1)" d="M364 717L289 615Q274 620 262 626.50Q250 633 238 638L238 638Q230 643 219 648.50Q208 654 194 660L194 660L187 653Q255 600 273 550L273 550Q297 489 314 518L314 518Q337 543 333 563L333 563Q329 584 305 609L305 609Q325 629 344.50 647Q364 665 383 679L383 679Q421 705 452 710L452 710L405 776L367 745L104 745L138 710Q153 712 170.50 713Q188 714 210 717L210 717L364 717ZM377 471L336 383L348 376Q362 395 375 411.50Q388 428 402 439L402 439Q416 451 429 457Q442 463 462 471L462 471L408 530L371 496L76 496L108 461Q125 464 142 467.50Q159 471 179 471L179 471L238 471Q219 405 197 355Q175 305 156 260L156 260Q116 169 63 87L63 87L73 74Q97 102 120 133Q143 164 163 200L163 200Q215 274 261 386L261 386L261 23Q261 7 254-6L254-6Q246-12 143 0L143 0L143-13Q194-28 204-41L204-41Q219-51 232-88L232-88Q253-80 267.50-69.50Q282-59 292-50L292-50Q310-37 310 5L310 5L310 471L377 471ZM654 713L654 713L449 713L484 679Q518 688 554 688L554 688L654 688L654 612L471 612L506 578Q522 580 539.50 583.50Q557 587 582 587L582 587L654 587L654 502L436 502L471 471Q487 473 505.50 475Q524 477 544 477L544 477L960 477L899 543L855 502L704 502L704 587L909 587L855 653L814 612L704 612L704 688L934 688L871 754L830 713L704 713L704 754L732 782L647 814Q647 795 650.50 769Q654 743 654 713ZM537 144L537 219L834 219L834 144L537 144ZM487 134L487 134L484 59L537 83L537 115L834 115L834 70L890 96Q883 128 882 162.50Q881 197 881 237L881 237L881 380L915 398L862 455L834 420L531 420L484 452Q484 416 485.50 338Q487 260 487 134ZM537 335L537 396L834 396L834 335L537 335ZM537 244L537 307L834 307L834 244L537 244ZM657 46L597 108Q572 79 545 53.50Q518 28 487 8L487 8Q458-12 428.50-32Q399-52 367-72L367-72L371-88Q410-70 448-51Q486-32 528-9L528-9Q570 11 602 25Q634 39 657 46L657 46ZM723 93L723 93L717 83Q840 7 881-41L881-41Q925-91 937-65L937-65Q951-39 937-13L937-13Q928 16 875 36L875 36Q848 50 811.50 64Q775 78 723 93Z"/></svg>