<svg id="U25A35" viewBox="0 0 1024 1024"><path transform="translate(0, 921.6) scale(1,-1)" d="M220 377L220 440L377 440L377 377L220 377ZM220 295L220 352L377 352L377 295L220 295ZM220 195L220 270L377 270L377 195L220 195ZM176 349L176 195L70 195L101 154L135 169L320 169Q233 49 60-37L60-37L63-50Q246 3 377 156L377 156L377 36Q377-5 348 1L348 1Q322 6 251 10L251 10L245-3Q343-25 348-78L348-78Q424-50 424 40L424 40L424 440L446 455L405 499L371 465L276 465Q300 508 339 537L339 537L276 563Q279 547 251 465L251 465L220 465L172 487Q175 453 175.50 417Q176 381 176 349L176 349ZM739 169L739 74L644 74L644 169L739 169ZM550 280L550 280L521 280L477 308Q482 262 483 213Q484 164 484 113L484 113Q484 59 483 13.50Q482-32 477-75L477-75L528-50L528 254L858 254L858 15Q852-5 846-11L846-11Q837-15 773-11L773-11L773-24Q839-42 843-75L843-75Q897-55 903 4L903 4L903 247L931 267L878 314L846 280L824 280L824 468L846 487L799 528L773 503L591 503L547 525Q547 493 548.50 432Q550 371 550 280ZM780 280L688 280L688 386L780 386L780 280ZM647 427L647 280L594 280L594 475L780 475L780 411L685 411L647 427ZM780 159L780 159L805 175L761 219L736 195L644 195L594 216Q594 187 597 159.50Q600 132 600 109L600 109Q600 80 597 53.50Q594 27 594 1L594 1L644 21L644 46L739 46L739 15L783 33Q780 64 780 96L780 96Q780 128 780 159ZM871 676L834 610L843 604Q910 662 963 676L963 676L896 736L865 701L534 701Q582 740 554 771L554 771Q539 780 510 793.50Q481 807 436 824L436 824L430 815Q446 797 460 783.50Q474 770 484 758L484 758Q490 746 496.50 731.50Q503 717 506 701L506 701L172 701L172 745L156 745Q152 666 108 642L108 642Q70 612 89 597L89 597Q109 576 138 597L138 597Q172 612 172 676L172 676L871 676ZM348 607L348 607Q305 577 117 563L117 563L117 544Q190 544 241.50 547Q293 550 326 560L326 560Q383 572 411 601L411 601Q432 622 436 701L436 701L380 701Q389 636 348 607ZM588 698L588 607Q588 550 676 550L676 550L824 550Q909 550 919 578L919 578Q871 624 855 604L855 604Q836 588 698 588L698 588Q624 580 638 666L638 666L638 698L588 698Z"/></svg>