<svg id="U25474" viewBox="0 0 1024 1024"><path transform="translate(0, 921.6) scale(1,-1)" d="M366 704L103 704L136 666Q158 668 173.50 671.50Q189 675 199 679L199 679L246 679Q193 383 65 162L65 162L78 156Q155 239 192 332L192 332Q192 215 191.50 125.50Q191 36 189-28L189-28L246-6L246 87L356 87L356 21L413 49Q410 84 410 175L410 175Q410 267 410 417L410 417L441 445L388 489L353 452L246 452Q277 547 300 679L300 679L470 679L407 748L366 704ZM246 115L246 427L356 427L356 115L246 115ZM668 515L668 515Q675 434 692 358Q709 282 737 216L737 216Q796 67 883-19L883-19Q913 21 958 11L958 11L958 26Q893 61 839 140L839 140Q810 178 789 212.50Q768 247 757 278L757 278Q893 389 920 389L920 389L863 455Q831 386 747 298L747 298Q721 364 703 425Q685 486 680 543L680 543L712 581L675 600L952 600L891 672L847 625L700 625Q750 666 716 717L716 717Q701 734 671 758.50Q641 783 602 805L602 805L596 798Q612 774 626.50 752Q641 730 649 707L649 707Q669 669 680 625L680 625L429 625L470 587Q484 590 499.50 592.50Q515 595 539 600L539 600L639 600Q615 516 557 401L557 401Q524 340 488.50 286Q453 232 413 181L413 181L416 165Q450 193 482 229Q514 265 545 311L545 311L545 30Q545-4 530-25L530-25L577-78Q593-52 636.50-12Q680 28 747 83L747 83L740 96L596 11L596 380Q616 415 633.50 448Q651 481 668 515Z"/></svg>