<svg id="U25E49" viewBox="0 0 1000 1000"><path transform="translate(0, 900) scale(1,-1)" d="M125 372C109 282 69 165 32 105C44 85 60 55 67 33C113 107 154 249 173 356ZM292 373L254 346C272 306 319 191 333 141L384 191C371 221 309 346 292 373ZM54 764C73 697 95 607 102 550L159 564C151 622 129 709 108 777ZM330 778C317 713 291 618 270 562L317 546C341 600 368 688 391 760ZM406 799L406-79L473-79L473-30L860-30L860-79L930-79L930 799ZM473 34L473 731L860 731L860 34ZM521 532C567 468 616 394 661 321C614 237 557 169 499 125C514 114 532 92 542 77C598 123 651 185 697 260C731 201 760 145 780 99L834 131C810 184 773 252 731 322C775 409 810 510 831 623L792 637L781 634L508 634L508 574L760 574C744 506 721 441 693 382C653 443 611 505 571 559ZM48 504L48 434L185 434L185-79L251-79L251 434L367 434L367 504L251 504L251 840L185 840L185 504Z"/></svg>