<svg id="U25231" viewBox="0 0 1024 1024"><path transform="translate(0, 921.6) scale(1,-1)" d="M335 178L335 679L362 704L315 761L284 726L136 726L84 751Q87 718 87.50 684.50Q88 651 88 619L88 619L88 99Q88 82 87.50 53.50Q87 25 84-13L84-13L136 8L136 70L284 70L284 18L338 39Q335 63 335 99L335 99Q335 135 335 178L335 178ZM136 515L136 701L284 701L284 515L136 515ZM136 313L136 489L284 489L284 313L136 313ZM136 99L136 285L284 285L284 99L136 99ZM712 342L712 332Q784 308 788 263L788 263Q840 285 854 342L854 342Q858 367 866 421.50Q874 476 879 563L879 563L907 584L857 632L819 594L740 594L765 707L791 729L747 776L712 741L391 741L423 704Q441 708 456 709.50Q471 711 485 717L485 717Q485 392 325 231L325 231L335 219Q534 363 530 717L530 717L719 717L690 603L668 591L709 543L737 568L829 568Q819 367 804 352L804 352Q788 339 772 339L772 339Q764 339 749 339L749 339Q735 339 712 342L712 342ZM605 408L605 408Q582 372 551 342.50Q520 313 485 285L485 285L489 275Q566 310 634 373L634 373Q647 351 655 334Q663 317 668 304L668 304Q679 272 693 311L693 311Q711 336 703 354L703 354Q700 363 690 374Q680 385 668 401L668 401Q680 422 693.50 448Q707 474 721 502L721 502L744 515L703 568L672 537L526 537L557 506Q576 508 593.50 510Q611 512 631 512L631 512L672 512Q658 474 631 433L631 433Q580 466 549 474L549 474L539 465Q585 423 605 408ZM429-13L429-13L322-13L356-50Q373-47 390-44.50Q407-42 429-37L429-37L939-37L883 26L845-13L835-13L835 193L860 219L806 263L781 231L476 231L423 260Q423 225 426 156Q429 87 429-13ZM476-13L476 203L552 203L552-13L476-13ZM596-13L596 203L668 203L668-13L596-13ZM712-13L712 203L785 203L785-13L712-13Z"/></svg>