<svg id="U25833" viewBox="0 0 1024 1024"><path transform="translate(0, 921.6) scale(1,-1)" d="M241 691L241 691L241 530L76 530L111 496Q125 498 143.50 500Q162 502 181 502L181 502L235 502Q209 420 166.50 327Q124 234 67 140L67 140L73 128Q124 185 166 247.50Q208 310 241 383L241 383Q241 239 240.50 125.50Q240 12 238-82L238-82L295-50Q290-2 289.50 108Q289 218 289 398L289 398Q333 350 346 304L346 304Q365 251 380 288L380 288Q399 322 380 354L380 354Q368 383 289 417L289 417L289 502L421 502L364 571L323 530L289 530L289 707Q364 729 402 729L402 729L354 795Q325 761 241 732L241 732Q204 715 167.50 703.50Q131 692 96 685L96 685L101 669Q152 674 186.50 680Q221 686 241 691ZM547 521L547 748L786 748L786 669L676 669L632 688L632 521L547 521ZM682 647L786 647L786 521L682 521L682 647ZM878 496L840 424L849 417Q892 460 903 474L903 474Q907 479 920.50 482Q934 485 956 493L956 493L899 553L865 521L837 521L837 735L865 758L811 808L783 773L554 773L497 808Q497 770 498.50 732.50Q500 695 500 653L500 653L500 521L469 521L462 571L452 571Q436 502 405 480L405 480Q379 458 383 437L383 437Q387 404 402 404L402 404Q419 399 440 420L440 420Q457 434 469 496L469 496L878 496ZM541 168L541 383L783 383L783 26Q783-3 755-3L755-3Q744-3 719-1Q694 1 654 5L654 5L654-9Q752-32 752-82L752-82Q791-75 811-47L811-47Q830-25 830 33L830 33L830 373L862 393L808 442L773 408L547 408L493 437Q493 412 495 357.50Q497 303 497 209L497 209Q497 31 415-72L415-72L421-82Q541 32 541 168L541 168ZM591 348L591 348L588 339Q608 317 628 299.50Q648 282 663 266L663 266Q682 232 704 244L704 244Q721 260 714 282L714 282Q714 301 695 319L695 319Q685 324 659 332.50Q633 341 591 348ZM603 93L537 146Q585 159 644 183Q703 207 773 244L773 244L786 237Q735 202 701 178Q667 154 651 140L651 140Q611 106 603 93L603 93Z"/></svg>