<svg id="U25D04" viewBox="0 0 1024 1024"><path transform="translate(0, 921.6) scale(1,-1)" d="M866 550L835 486L847 483Q920 553 955 553L955 553L898 609L863 574L167 574L164 612L151 612Q132 551 91 527L91 527Q53 498 75 486L75 486Q98 472 118 477L118 477Q121 481 129 485.50Q137 490 142 496L142 496Q146 503 152.50 514Q159 525 164 550L164 550L369 550Q369 502 321 474L321 474Q290 449 130 437L130 437L130 420Q325 420 375 465L375 465Q419 498 419 550L419 550L586 550L586 483Q586 428 652 433L652 433L816 433Q884 433 863 458L863 458Q837 487 806 474L806 474Q767 464 709 468L709 468Q625 468 634 509L634 509L634 550L866 550ZM268 316L215 335Q217 312 217.50 289.50Q218 267 218 241L218 241Q218 220 217.50 185Q217 150 215 105L215 105L268 118L268 134L485 134L485 64L75 64L109 30Q148 44 189 39L189 39L485 39Q485 2 484-30Q483-62 479-88L479-88L536-54Q532-50 532-31L532-31L532 39L958 39L904 108L863 64L532 64L532 134L744 134L744 108L801 128Q798 148 797.50 167.50Q797 187 797 206L797 206L797 288L825 304L765 342L740 316L529 316L529 367L886 367L829 427L791 393L529 393L529 427L557 448L479 474Q483 440 484 400.50Q485 361 485 316L485 316L268 316ZM268 237L268 291L744 291L744 237L268 237ZM268 159L268 213L744 213L744 159L268 159ZM293 761L331 764L262 814Q225 736 189 701L189 701Q170 672 147.50 647Q125 622 99 600L99 600L109 587Q147 610 178.50 633.50Q210 657 236 688L236 688L318 688Q356 644 372 606L372 606Q382 562 403 587L403 587Q431 608 423 628L423 628Q416 656 349 688L349 688L552 688L492 751L457 717L256 717L293 761ZM675 761L712 767L634 814Q628 793 617.50 772.50Q607 752 596 729L596 729Q581 708 557 674Q533 640 498 600L498 600L511 591Q541 614 569 638Q597 662 617 688L617 688L683 688Q723 648 740 612L740 612Q755 580 768 584L768 584Q787 584 791 609L791 609Q797 626 781 647L781 647Q766 662 712 688L712 688L938 688L882 748L842 717L634 717L675 761Z"/></svg>