<svg id="U25D92" viewBox="0 0 1024 1024"><path transform="translate(0, 921.6) scale(1,-1)" d="M335 591L318 597Q300 573 277.50 556Q255 539 236 530L236 530Q191 516 208 499L208 499Q224 478 253 486L253 486Q283 490 300 521L300 521Q311 533 319 551Q327 569 335 591L335 591ZM757 559L757 559L798 568L721 606Q696 555 652 506L652 506L495 524Q523 558 530 571L530 571L557 587L485 615Q472 542 382 483L382 483Q293 424 109 393L109 393L112 383Q239 392 329 425Q419 458 479 509L479 509Q543 497 599 483Q655 469 703 455L703 455Q800 433 845 408L845 408Q893 383 888 414L888 414Q888 440 839 465L839 465Q809 471 769 480.50Q729 490 675 502L675 502Q693 514 712.50 528Q732 542 757 559ZM760 376L760 376L801 386L731 430Q710 403 679.50 381Q649 359 614 339L614 339Q596 348 573 365Q550 382 526 408L526 408Q531 420 543.50 428Q556 436 574 445L574 445L508 480Q471 391 388 329L388 329Q290 261 84 229L84 229L84 209Q234 218 341.50 265Q449 312 513 393L513 393Q616 245 886 213L886 213Q889 242 961 254L961 254L961 270Q868 262 786 279.50Q704 297 631 332L631 332Q666 348 698.50 358.50Q731 369 760 376ZM338 404L322 408Q274 355 224 352L224 352Q179 340 199 316L199 316Q223 286 262 311L262 311Q305 330 338 404L338 404ZM362 216L290 257Q268 226 245.50 197Q223 168 196 140L196 140Q170 111 142.50 89.50Q115 68 88 52L88 52L94 39Q175 73 221 111L221 111Q257 74 262 55L262 55Q273 31 300 46L300 46Q328 69 312 83L312 83Q288 101 227 121L227 121L262 149L400 149Q311-13 62-75L62-75L65-88Q197-67 294-19L294-19Q393 37 454 140L454 140L489 149L431 197L400 175L284 175L322 213L362 216ZM536 59L564 105L602 118L526 137Q516 117 508.50 99.50Q501 82 489 62L489 62L461 52L511 14L542 33L659 33Q659 25 655.50-1.50Q652-28 652-82L652-82L706-69Q703-43 703-18L703-18Q703 7 703 33L703 33L917 33L854 96L809 59L703 59L703 144L876 144L819 206L781 172L703 172L703 200L731 219L659 254L659 172L479 172L523 137L549 144L659 144L659 59L536 59ZM281 764L322 773L240 814Q214 746 168 685L168 685Q133 633 72 581L72 581L84 571Q164 617 227 694L227 694L300 694Q347 648 356 615L356 615Q365 571 391 597L391 597Q415 610 410 638L410 638Q406 659 335 694L335 694L542 694L476 758L441 720L243 720L281 764ZM668 764L709 773L627 814Q622 797 611.50 776.50Q601 756 590 735L590 735Q574 711 549 679Q524 647 489 606L489 606L505 600Q533 620 559.50 643.50Q586 667 611 694L611 694L675 694Q727 645 737 622L737 622Q753 585 765 591L765 591Q783 591 788 615L788 615Q792 632 778 656L778 656Q754 674 709 694L709 694L939 694L879 754L839 720L627 720L668 764Z"/></svg>