<svg id="U257DA" viewBox="0 0 1024 1024"><path transform="translate(0, 921.6) scale(1,-1)" d="M246 681L246 681L246 510L75 510L109 479Q124 480 140.50 482.50Q157 485 177 485L177 485L236 485Q188 302 62 104L62 104L72 95Q123 153 168 217.50Q213 282 246 355L246 355Q246 211 245.50 103Q245-5 243-83L243-83L303-55Q300-23 300 82L300 82Q300 188 300 372L300 372Q340 328 353 277L353 277Q377 227 400 265L400 265Q422 299 400 331L400 331Q377 358 300 396L300 396L300 485L444 485L388 558L346 510L300 510L300 692Q340 701 370.50 708Q401 715 416 715L416 715L366 784Q346 765 316 749.50Q286 734 246 718L246 718Q203 701 165.50 690Q128 679 94 674L94 674L97 658Q149 662 186.50 668.50Q224 675 246 681ZM517 627L517 627L501 627Q476 518 451 501L451 501Q432 479 438 453L438 453Q449 429 470 444L470 444Q493 449 505 485L505 485Q521 515 517 627ZM583 810L577 790Q637 744 662 702L662 702Q690 651 709 696L709 696Q719 739 690 762L690 762Q673 771 645.50 783Q618 795 583 810L583 810ZM845 627L845 627L839 607Q864 579 881.50 551.50Q899 524 911 501L911 501Q920 472 928 470.50Q936 469 948 488L948 488Q970 530 945 561L945 561Q932 574 907 590.50Q882 607 845 627ZM854 699L895 722L829 778Q819 751 799 712.50Q779 674 747 623L747 623Q709 571 675.50 531.50Q642 492 611 466L611 466L611 627L649 655L557 699Q557 654 559 622Q561 590 561 566L561 566L561 425Q508 363 448 327L448 327L457 314Q485 329 512.50 346Q540 363 561 388L561 388Q561 334 618 334L618 334L794 334Q845 334 883 396L883 396Q853 396 845 422L845 422Q835 441 835 510L835 510L816 510Q816 436 809 409L809 409Q797 384 757 384L757 384L652 384Q609 384 614 416L614 416Q665 455 726 525.50Q787 596 854 699L854 699ZM539 151L634 151L634-5L366-5L403-39Q420-36 437.50-34.50Q455-33 476-33L476-33L961-33L895 38L839-5L683-5L683 151L904 151L835 221L791 177L683 177L683 274L719 306L631 334Q631 292 632.50 254Q634 216 634 177L634 177L435 177L467 142Q498 151 539 151L539 151Z"/></svg>