<svg id="U25352" viewBox="0 0 1024 1024"><path transform="translate(0, 921.6) scale(1,-1)" d="M305 164L305 655L331 677L287 722L262 692L130 692L84 718Q87 687 87.50 655.50Q88 624 88 592L88 592L88 82Q88 64 87.50 37.50Q87 11 84-23L84-23L130-1L130 57L262 57L262 3L312 28Q306 49 305.50 82.50Q305 116 305 164L305 164ZM130 488L130 664L262 664L262 488L130 488ZM130 290L130 463L262 463L262 290L130 290ZM130 82L130 265L262 265L262 82L130 82ZM489 746L489 746L508 756L448 790Q425 715 400 664L400 664Q386 638 371 612.50Q356 587 341 563L341 563L350 558Q383 583 406 611.50Q429 640 448 671L448 671L485 671Q490 661 494.50 650.50Q499 640 505 633L505 633Q509 621 511.50 609.50Q514 598 520 586L520 586Q531 563 545 576L545 576Q550 578 564 604L564 604Q564 617 552 640L552 640Q542 644 528 652.50Q514 661 498 671L498 671L665 671L611 728L577 696L461 696Q465 700 470.50 712.50Q476 725 489 746ZM753 756L753 756L772 769L709 800Q704 771 694.50 746Q685 721 672 692L672 692Q659 664 640 637Q621 610 596 583L596 583L605 576Q634 593 658 619.50Q682 646 709 681L709 681L763 681Q781 661 792.50 644.50Q804 628 809 617L809 617Q831 578 842 599L842 599Q852 609 857 630L857 630Q857 648 835 658L835 658Q813 664 791 681L791 681L939 681L895 746L860 709L728 709Q734 715 740 728Q746 741 753 756ZM448 116L448 116L431 116Q403 40 362 19L362 19Q330-1 344-20L344-20Q364-41 388-26L388-26Q408-18 429 10L429 10Q435 23 438.50 50.50Q442 78 448 116ZM555-74L555-74L750-74Q795-74 839-23L839-23Q792-19 788 10L788 10Q785 19 785 35L785 35Q785 52 785 69L785 69L769 69Q763 15 763-1L763-1Q758-33 719-33L719-33L577-33Q539-38 539-1L539-1L539 69L564 95L489 132Q489 105 490.50 67Q492 29 492-20L492-20Q492-74 555-74ZM583 173L583 173L574 164Q597 140 613 119.50Q629 99 637 75L637 75Q650 35 672 51L672 51Q690 64 690 91L690 91Q690 110 665 132L665 132Q655 139 635 149Q615 159 583 173ZM804 129L804 129L798 116Q834 72 857 22L857 22Q876-21 895-5L895-5Q907 25 907 34L907 34Q907 59 883 79L883 79Q858 101 804 129ZM907 299L907 299L898 303L876 211Q813 234 791 286L791 286Q830 341 866 409L866 409L898 425L839 466Q822 431 809 400L809 400Q802 382 792 364Q782 346 769 327L769 327Q728 394 728 497L728 497L935 497L883 555L847 522L728 522L724 576L744 602L675 633Q675 606 677.50 578.50Q680 551 683 522L683 522L438 522L391 548Q391 510 392 470.50Q393 431 391 391L391 391Q391 353 385 315.50Q379 278 372 245L372 245Q360 215 347 184.50Q334 154 315 126L315 126L325 119Q434 224 438 416L438 416L470 396Q502 403 533 403L533 403L672 403L627 460L593 428L438 428L438 497L683 497Q687 369 737 286L737 286Q683 223 634 186L634 186L643 173Q673 189 701.50 209.50Q730 230 760 252L760 252Q837 148 924 132L924 132Q902 178 907 299ZM461 177L461 177L511 192L511 211L602 211L602 192L649 211Q646 228 646 253L646 253Q646 278 646 312L646 312L665 334L624 368L602 347L511 347L461 362Q465 345 466 322Q467 299 467 271L467 271Q467 242 466 217Q465 192 461 177ZM511 236L511 321L602 321L602 236L511 236ZM744 617L744 617L740 604Q768 575 791 538L791 538Q808 506 829 526L829 526Q847 550 829 573L829 573Q817 582 796 593Q775 604 744 617Z"/></svg>