<svg id="U253F7" viewBox="0 0 1024 1024"><path transform="translate(0, 921.6) scale(1,-1)" d="M389 327L317 368Q291 314 254 262.50Q217 211 169 160L169 160L179 148Q209 172 241 198.50Q273 225 305 258L305 258L477 258Q477 191 459 142L459 142L83 142L119 104Q135 106 152 109.50Q169 113 187 116L187 116L443 116Q421 50 295-8L295-8Q235-31 178.50-48.50Q122-66 67-74L67-74L70-90Q196-84 333-29L333-29Q457 20 510 116L510 116L544 116Q575 31 673-20L673-20Q763-73 887-86L887-86Q898-49 956-45L956-45L956-26Q893-21 838.50-13.50Q784-6 739 6L739 6Q639 35 559 116L559 116L944 116L884 183L827 142L515 142Q522 167 527 196Q532 225 534 258L534 258L878 258L811 327L764 283L333 283Q353 309 389 327L389 327ZM336 640L302 607L273 607L273 725L298 749L220 784Q221 739 221.50 694Q222 649 222 607L222 607L101 607L128 566Q144 569 162.50 572Q181 575 200 583L200 583L222 583L222 391Q159 372 101 372L101 372L140 309Q158 330 377 409L377 409L377 425L273 400L273 583L383 583L336 640ZM752 749L676 794Q676 746 679 696Q682 646 682 586L682 586L682 425Q682 350 745 350L745 350L843 350Q901 350 928 413L928 413Q893 421 893 563L893 563L878 563Q878 485 868 438L868 438Q863 388 821 388L821 388L767 388Q724 388 729 432L729 432L729 532Q764 558 798.50 580.50Q833 603 868 627L868 627L899 630L846 699Q786 604 729 561L729 561L729 728L752 749ZM440 677L392 709Q394 663 394.50 618.50Q395 574 395 529L395 529Q395 483 394.50 435.50Q394 388 392 334L392 334L440 353L440 381L572 381L572 344L623 368Q617 398 616.50 462.50Q616 527 616 630L616 630L647 652L597 709L572 677L480 677Q507 717 527.50 741Q548 765 559 774L559 774L493 815Q490 792 481.50 758.50Q473 725 462 677L462 677L440 677ZM440 548L440 648L572 648L572 548L440 548ZM440 409L440 522L572 522L572 409L440 409Z"/></svg>