<svg id="U2511E" viewBox="0 0 1024 1024"><path transform="translate(0, 921.6) scale(1,-1)" d="M351 201L351 689L383 712L336 766L305 733L143 733L96 769Q98 678 98 585L98 585Q98 493 98 396L98 396Q98 299 98 204L98 204Q98 110 96 16L96 16L143 41L143 101L305 101L305 47L354 69Q351 123 351 156L351 156Q351 189 351 201L351 201ZM143 532L143 709L305 709L305 532L143 532ZM143 334L143 507L305 507L305 334L143 334ZM143 126L143 306L305 306L305 126L143 126ZM415-52L415-52L469-26L469 728L849 728L849 72Q849 22 814 22L814 22Q800 22 770 22L770 22Q741 22 701 25L701 25L701 10Q802-7 814-64L814-64Q900-35 896 60L896 60L896 722L928 746L868 790L840 753L469 753L415 787Q419 742 420 709Q421 676 421 655L421 655L421 66Q421 49 420 21Q419-7 415-52ZM786 589L786 589L824 607L770 655L736 623L490 623L525 589Q541 591 558.50 593Q576 595 597 595L597 595L736 595Q723 532 708 478Q693 424 670 375L670 375Q637 417 603.50 455Q570 493 537 529L537 529L525 520Q553 481 583.50 433.50Q614 386 647 334L647 334Q589 201 474 79L474 79L487 66Q595 145 682 280L682 280Q706 237 722 203.50Q738 170 745 142L745 142Q760 83 777 101L777 101Q796 114 796 148L796 148Q796 169 792 187Q788 205 773 227L773 227Q762 247 745 275.50Q728 304 708 337L708 337Q766 467 786 589Z"/></svg>