<svg id="U25AC9" viewBox="0 0 1024 1024"><path transform="translate(0, 921.6) scale(1,-1)" d="M177 776L177 776L169 770Q212 695 222 635L222 635Q239 577 266 609L266 609Q294 643 275 676L275 676Q268 699 177 776ZM333 571L57 571L86 537Q102 541 120.50 542Q139 543 159 543L159 543L442 543L382 619L333 571ZM133 480L133 480L121 474Q152 373 156 285L156 285Q160 188 169 181L169 181Q171 163 194 193L194 193Q216 218 212 288L212 288Q207 348 133 480ZM423 162L423 162L418 178L279 134Q304 215 327 291Q350 367 370 445L370 445L401 474L316 515Q313 461 298.50 366.50Q284 272 253 131L253 131Q106 90 57 90L57 90L101 18Q108 41 174 67L174 67Q207 79 270 101.50Q333 124 423 162ZM470 417L470 461L848 461L848 417L470 417ZM470 335L470 393L848 393L848 335L470 335ZM896 458L896 458L927 474L871 518L842 489L474 489L418 509Q418 494 420.50 466Q423 438 423 396L423 396Q423 353 420.50 325Q418 297 418 285L418 285L470 298L470 307L848 307L848 294L899 304Q896 319 896 458ZM474 515L474 515L527 521L527 534L779 534L779 518L833 530Q830 549 830 609L830 609L852 628L798 660L779 632L531 632L474 650Q474 639 477 623Q480 607 480 587L480 587Q480 563 477 544.50Q474 526 474 515ZM527 559L527 606L779 606L779 559L527 559ZM587 805L581 795Q632 748 637 707L637 707L367 707L401 672Q420 677 441.50 678Q463 679 490 679L490 679L930 679L874 748L833 707L666 707Q685 726 685 751L685 751Q681 770 587 805L587 805ZM596 131L596 257L619 275L544 301Q544 289 545 281Q546 273 546 270L546 270L546 237L392 237L423 206Q436 209 480 209L480 209L546 209L546 131L596 131ZM757 131L757 213L912 213L868 270L830 241L757 241L757 257L783 275L704 298Q704 286 705.50 277.50Q707 269 707 266L707 266L707 229L707 131L757 131ZM675 26L675 26L946 26L893 83L855 52L675 52L675 115L893 115L842 168L811 144L418 144L442 111Q454 115 487 115L487 115L625 115L625 52L389 52L408 26L461 26L625 26Q625-14 623.50-40Q622-66 622-78L622-78L678-62Q675-61 675 26Z"/></svg>