<svg id="U25537" viewBox="0 0 1024 1024"><path transform="translate(0, 921.6) scale(1,-1)" d="M325 694L91 694L123 660Q139 662 156 664Q173 666 189 666L189 666L224 666Q170 365 53 152L53 152L65 140Q100 185 126.50 228Q153 271 171 316L171 316Q171 204 170.50 112Q170 20 168-47L168-47L221-19L221 74L338 74L338 5L388 36Q385 71 385 162L385 162Q385 253 385 408L385 408L416 433L359 480L335 442L224 442Q238 487 252 543.50Q266 600 281 666L281 666L431 666L369 738L325 694ZM221 99L221 414L338 414L338 99L221 99ZM341-72L341-72L359-78Q401-24 429.50 17Q458 58 470 96L470 96Q490 154 501 250L501 250Q504 288 507.50 388Q511 488 511 647L511 647L971 647L907 720L866 676L511 676L454 713Q454 675 455.50 615.50Q457 556 457 474L457 474Q457 390 455 330.50Q453 271 451 229L451 229Q445 187 437.50 147Q430 107 416 67L416 67Q401 32 383.50-3.50Q366-39 341-72ZM627 814L614 802Q642 772 660.50 750Q679 728 683 707L683 707Q692 672 719 704L719 704Q744 733 724 764L724 764Q711 777 686.50 789Q662 801 627 814L627 814ZM652 376L652 471L785 471L785 376L652 376ZM608 499L608 499L505 499L542 465Q560 467 574.50 469Q589 471 608 471L608 471Q608 420 604.50 381Q601 342 598 313L598 313L655 332L655 352L693 352L693 247L593 247L536 278Q538 240 540 199Q542 158 542 118L542 118Q542 75 540 39Q538 3 536-28L536-28L593 5L593 219L693 219Q693 98 691.50 22.50Q690-53 690-88L690-88L744-54Q738-27 737.50 38.50Q737 104 737 219L737 219L847 219L847 64Q844 36 826 36L826 36Q813 36 798 36L798 36Q783 36 763 39L763 39L763 18Q836 0 832-31L832-31Q884-10 888 0L888 0Q890 5 894 19.50Q898 34 898 59L898 59L898 209L930 234L879 285L845 247L737 247L737 352L785 352L785 319L835 348Q832 381 832 411L832 411Q832 441 832 471L832 471L961 471L907 534L870 499L832 499L832 568L866 597L781 628Q781 595 783 562Q785 529 785 499L785 499L652 499L652 568L687 597L602 635Q602 599 605 565Q608 531 608 499Z"/></svg>