<svg id="U2589A" viewBox="0 0 1024 1024"><path transform="translate(0, 921.6) scale(1,-1)" d="M233 697L233 697L233 527L65 527L100 493Q130 502 171 502L171 502L227 502Q201 411 159.50 318Q118 225 55 131L55 131L62 111Q168 228 233 373L233 373Q233 228 232.50 117Q232 6 230-78L230-78L287-50Q284-1 284 108L284 108Q284 217 284 396L284 396Q326 342 344 294L344 294Q358 237 375 278L375 278Q391 318 375 352L375 352Q362 380 284 414L284 414L284 502L407 502L356 568L325 527L284 527L284 707Q324 719 355 725.50Q386 732 400 735L400 735L350 805Q314 769 233 735L233 735Q190 717 153 705Q116 693 84 688L84 688L88 676Q197 685 233 697ZM895 606L860 527L873 521Q934 602 968 609L968 609L914 666L879 635L693 635L693 726L920 726L854 792L813 754L444 754L482 720Q499 722 516.50 722.50Q534 723 557 726L557 726L646 726L646 635L470 635L470 676L451 676Q434 585 410 578L410 578Q383 560 394 540L394 540Q407 521 435 530L435 530Q466 547 470 606L470 606L646 606Q646 489 644.50 422Q643 355 643 332L643 332L696 354Q693 385 693 422L693 422Q693 459 693 502L693 502L693 606L895 606ZM564 480L564 480Q586 452 596 486L596 486Q599 522 567 537L567 537Q550 541 523 544Q496 547 461 553L461 553L454 543Q494 523 522 506Q550 489 564 480ZM621 430L621 430L614 448Q579 428 532.50 413.50Q486 399 426 389L426 389L470 332Q481 344 491 350Q501 356 511 363L511 363Q525 371 552 387.50Q579 404 621 430ZM842 363L842 363Q879 338 888 357L888 357Q892 382 873 408L873 408Q850 434 721 430L721 430L721 420Q763 401 791.50 386.50Q820 372 842 363ZM832 518L832 518L866 518L816 581Q790 539 766 509.50Q742 480 719 465L719 465L724 452Q736 458 762.50 474.50Q789 491 832 518ZM832 307L429 307L464 272Q479 276 498 277Q517 278 539 278L539 278L917 278L870 339L832 307ZM472-9L472-9Q520 22 565.50 55Q611 88 655 124L655 124L687 131L643 162L939 162L883 231L835 190L385 190L413 156Q430 158 450 160Q470 162 489 162L489 162L614 162Q607 147 585.50 125Q564 103 526 64L526 64Q491 31 460.50 13.50Q430-4 413-9L413-9L454-75Q504-41 835-16L835-16Q846-31 852.50-45.50Q859-60 866-69L866-69Q871-80 891-69L891-69Q911-52 911-16L911-16Q911 16 772 80L772 80L760 74Q798 38 829 5L829 5Q763 2 676-1Q589-4 472-9Z"/></svg>