<svg id="U25CDF" viewBox="0 0 1024 1024"><path transform="translate(0, 921.6) scale(1,-1)" d="M172 541L163 531Q210 462 225 411L225 411Q235 357 263 402L263 402Q291 439 269 468L269 468Q256 482 231.50 500Q207 518 172 541L172 541ZM73 308L101 273Q132 279 169 279L169 279L216 279L216 56Q145 28 80-24L80-24L125-74Q144-43 165.50-21Q187 1 210 15L210 15Q250 43 305-2L305-2Q354-55 497-68L497-68Q563-72 655.50-74.50Q748-77 865-74L865-74Q865-25 950-21L950-21L950-5Q726-20 592.50-23Q459-26 408-15L408-15Q314 8 269 62L269 62L269 273L305 295L248 349L210 308L73 308ZM402 12L402 12L456 37L456 59L934 59L868 135L824 84L676 84L676 169L890 169L830 238L789 194L676 194L676 276L887 276L830 346L786 305L676 305L676 387L915 387L849 462L805 411L456 411Q460 420 466 435Q472 450 484 472L484 472L518 487L440 524Q427 457 394 381.50Q361 306 307 220L307 220L320 213Q334 225 355 252Q376 279 405 317L405 317Q405 233 404.50 156Q404 79 402 12ZM629 387L629 305L456 305L456 387L629 387ZM629 276L629 194L456 194L456 276L629 276ZM629 169L629 84L456 84L456 169L629 169ZM572 550L572 550L565 541Q592 512 609 486.50Q626 461 635 443L635 443Q652 396 676 439L676 439Q705 474 670 500L670 500Q655 509 629.50 521Q604 533 572 550ZM285 742L326 755L245 802Q216 710 172 642L172 642Q153 605 129.50 568.50Q106 532 80 500L80 500L96 487Q131 520 166 561Q201 602 232 654L232 654L305 654Q344 594 358 547L358 547Q367 495 389 521L389 521Q417 549 408 578L408 578Q404 609 333 654L333 654L537 654L484 727L443 680L248 680L285 742ZM667 739L701 752L623 799Q617 779 606.50 754.50Q596 730 585 704L585 704Q570 672 545.50 632Q521 592 487 541L487 541L500 528Q529 554 556.50 583.50Q584 613 610 647L610 647L673 647Q693 616 710 591.50Q727 567 732 547L732 547Q742 505 764 519L764 519Q782 530 786 550L786 550Q786 578 773 598L773 598Q761 613 701 647L701 647L928 647L875 717L830 676L623 676L667 739Z"/></svg>