<svg id="U25052" viewBox="0 0 1000 1000"><path transform="translate(0, 900) scale(1,-1)" d="M150 239L150 15L40 15L40-52L960-52L960 15L858 15L858 239ZM221 15L221 177L361 177L361 15ZM431 15L431 177L572 177L572 15ZM641 15L641 177L785 177L785 15ZM94 535C110 541 134 546 267 560C220 500 178 452 159 434C126 400 103 379 80 375C89 357 100 325 104 312C126 322 160 329 418 371L438 314L421 305C439 291 462 264 471 246C625 331 677 471 698 652L854 652C845 453 834 375 816 357C807 346 798 345 781 345C763 345 717 346 668 350C680 332 688 303 690 283C738 280 786 280 812 282C841 285 861 291 877 311C905 343 916 435 928 685C928 694 928 717 928 717L704 717C707 756 708 797 710 839L635 839C634 797 632 756 629 717L474 717L474 652L623 652C609 529 576 428 495 355C477 407 442 483 412 542L352 522C366 493 381 460 395 427L209 401C289 480 367 579 435 679L374 715C356 684 335 652 313 622L180 610C232 666 283 735 327 805L257 834C214 749 145 661 124 640C104 617 86 601 70 598C78 580 89 547 93 533Z"/></svg>