<svg id="U25817" viewBox="0 0 1024 1024"><path transform="translate(0, 921.6) scale(1,-1)" d="M241 699L241 699L241 538L73 538L108 504Q122 506 139 508Q156 510 176 510L176 510L232 510Q183 336 60 145L60 145L70 136Q173 251 241 391L241 391Q241 247 240 132Q239 17 235-74L235-74L292-42Q289 3 289 113L289 113Q289 224 289 406L289 406Q309 383 325 360.50Q341 338 348 312L348 312Q368 256 387 296L387 296Q406 330 389 365L389 365Q376 392 289 425L289 425L289 510L436 510L380 583L339 538L289 538L289 715Q331 724 360.50 730.50Q390 737 405 737L405 737L358 803Q337 788 308 772.50Q279 757 241 743L241 743Q199 727 162.50 712.50Q126 698 92 689L92 689L96 677Q147 684 183.50 690Q220 696 241 699ZM500 388L500 473L638 473L638 388L500 388ZM688 388L688 473L830 473L830 388L688 388ZM500 274L500 359L638 359L638 274L500 274ZM688 274L688 359L830 359L830 274L688 274ZM881 324L881 324L881 466L906 485L855 532L824 501L688 501L688 586L963 586L903 655L855 611L688 611L688 722Q677 722 663.50 720Q650 718 638 718L638 718L638 611L387 611L421 573Q448 586 493 586L493 586L638 586L638 501L500 501L446 526Q446 478 447.50 436Q449 394 449 355L449 355Q449 320 447.50 283Q446 246 446 211L446 211L500 229L500 249L585 249Q565 213 537.50 177Q510 141 477 101L477 101Q398 16 320-29L320-29L326-42Q386-11 436.50 21Q487 53 525 95L525 95Q610 186 638 242L638 242L638 44Q638 27 636.50-2.50Q635-32 635-86L635-86L691-58Q688-15 688 8L688 8Q688 32 688 47L688 47L688 233Q704 191 728 148.50Q752 106 786 63L786 63Q845-10 887-36L887-36Q892-1 960-1L960-1L960 10Q850 22 695 249L695 249L830 249L830 218L884 239Q881 263 881 284L881 284Q881 305 881 324ZM446 702L446 702L446 684Q471 684 522.50 691.50Q574 699 647 709L647 709Q722 718 767 726Q812 734 834 740L834 740L881 740L830 813Q755 763 446 702Z"/></svg>