<svg id="U2593A" viewBox="0 0 1024 1024"><path transform="translate(0, 921.6) scale(1,-1)" d="M496 381L496 381L496 283L159 283L194 249Q210 251 226.50 254.50Q243 258 263 258L263 258L496 258L496 167L95 167L126 132Q141 135 159 138.50Q177 142 197 142L197 142L496 142L496 28Q496-4 471-8L471-8Q456-8 426-6Q396-4 348-1L348-1L348-17Q468-41 468-83L468-83Q554-45 550 19L550 19L550 142L962 142L903 208L855 167L550 167L550 258L896 258L833 318L785 283L550 283L550 384Q671 394 747 398.50Q823 403 855 403L855 403L785 473Q711 431 509 413L509 413Q409 403 324.50 394.50Q240 386 171 381L171 381L171 362Q268 366 350 371Q432 376 496 381ZM880 648L839 576L852 570Q919 642 968 652L968 652L903 715L874 674L533 674Q583 706 553 743L553 743Q526 773 449 810L449 810L443 803Q486 754 492 733L492 733Q506 711 512 674L512 674L194 674L194 728L175 728Q169 648 126 614L126 614Q91 582 104 561L104 561Q133 538 159 558L159 558Q194 582 194 648L194 648L880 648ZM136 463L136 463L137 447Q319 467 386 517L386 517Q452 568 449 668L449 668L392 668Q396 591 345 538L345 538Q293 486 136 463ZM625 668L625 570Q625 469 716 479L716 479L821 479Q916 479 934 504L934 504Q885 538 870 532L870 532Q859 529 760 529L760 529L744 529Q679 515 679 570L679 570L679 668L625 668Z"/></svg>