<svg id="U25D57" viewBox="0 0 1024 1024"><path transform="translate(0, 921.6) scale(1,-1)" d="M277 604L265 597Q307 546 318 499L318 499Q336 455 356 484L356 484Q384 515 369 540L369 540Q359 555 277 604L277 604ZM472 390L505 393L444 434L570 434L508 506L461 462L100 462L136 424Q172 434 218 434L218 434L435 434Q431 403 379 298L379 298L62 298L100 260Q125 273 180 273L180 273L590 273L533 336L495 298L397 298L472 390ZM218 427L202 421Q218 393 227 369.50Q236 346 240 326L240 326Q244 281 274 311L274 311Q303 339 284 364L284 364Q276 373 260 388.50Q244 404 218 427L218 427ZM158-78L158-78L215-62L215-24L457-24L457-68L508-50Q505 1 505 56L505 56Q505 112 505 178L505 178L533 207L472 251L448 216L224 216L158 241Q160 196 162 160Q164 124 164 97L164 97Q164 66 162 24Q160-18 158-78ZM215 113L215 191L457 191L457 113L215 113ZM215 1L215 84L457 84L457 1L215 1ZM857 424L809 311L826 308Q901 419 955 440L955 440L876 490L847 452L672 452Q678 476 685.50 502Q693 528 703 556L703 556L731 573L659 607Q647 511 621.50 424.50Q596 338 564 257L564 257L577 254Q602 286 625 328Q648 370 665 424L665 424L857 424ZM961-34L961-34L961-18Q899-4 826 103L826 103Q757 209 757 317L757 317L778 349L703 383Q703 229 649 115L649 115Q590 2 517-59L517-59L523-72Q626-9 672 72L672 72Q723 153 747 267L747 267Q752 66 883-62L883-62Q919-19 961-34ZM303 771L344 777L262 824Q247 779 229 741Q211 703 192 673L192 673Q171 635 146 602.50Q121 570 97 537L97 537L106 525Q191 593 253 682L253 682L322 682Q366 625 375 584L375 584Q385 535 410 560L410 560Q436 578 431 616L431 616Q426 643 353 682L353 682L561 682L508 755L467 704L265 704L303 771ZM693 764L731 777L652 821Q645 802 634 778Q623 754 611 727L611 727Q596 702 572.50 663Q549 624 513 573L513 573L526 563Q589 620 634 679L634 679L703 679Q723 651 740.50 626Q758 601 763 584L763 584Q773 544 794 556L794 556Q805 561 816 584L816 584Q816 596 811.50 605Q807 614 804 625L804 625Q792 645 731 679L731 679L961 679L911 742L860 701L649 701L693 764Z"/></svg>