<svg id="U254E8" viewBox="0 0 1024 1024"><path transform="translate(0, 921.6) scale(1,-1)" d="M336 515L336 515L392 534L392 546L742 546L742 524L799 543Q793 583 793 641L793 641L821 656L777 701L739 676L387 676Q417 691 445 706.50Q473 722 500 738L500 738L903 738L840 808L786 767L156 767L194 729Q210 731 234 734.50Q258 738 289 738L289 738L399 738Q270 645 98 581L98 581L101 565Q163 576 222 598.50Q281 621 339 653L339 653Q339 608 338.50 571.50Q338 535 336 515ZM392 574L392 650L742 650L742 574L392 574ZM632 282L632 282L695 294Q689 309 688.50 327Q688 345 688 363L688 363L934 363L871 430L818 389L688 389L688 468L893 468L837 534L796 496L172 496L204 461Q225 465 243 466.50Q261 468 276 468L276 468L354 468L351 389L405 389L408 468L638 468L638 389L104 389L138 357Q153 359 170.50 361Q188 363 210 363L210 363L348 363Q301 290 114 241L114 241L117 229Q366 276 399 363L399 363L638 363Q638 337 635 317.50Q632 298 632 282ZM487 226L487 226L487 165L166 165L200 128Q233 137 273 137L273 137L487 137L487 87L86 87L119 52Q135 54 152.50 56.50Q170 59 191 59L191 59L487 59L487 11Q487-9 462-9L462-9Q450-9 426.50-8.50Q403-8 371-6L371-6L371-19Q452-33 452-82L452-82Q525-68 541 2L541 2L541 59L937 59L875 128L821 87L541 87L541 137L852 137L786 206L742 165L541 165L541 229Q629 232 694.50 237Q760 242 805 247L805 247L749 304Q718 290 664 280Q610 270 531 263L531 263Q450 253 368 247Q286 241 204 234L204 234L210 216Q303 216 371 219.50Q439 223 487 226Z"/></svg>