<svg id="U25D30" viewBox="0 0 1000 1000"><path transform="translate(0, 900) scale(1,-1)" d="M84 382C105 296 126 184 131 111L192 126C185 200 164 310 141 396ZM156 585C169 558 183 523 192 495L49 495L49 432L391 432L391 495L258 495L263 497C253 525 235 570 216 604ZM286 402C274 311 250 180 227 91C154 75 87 61 35 51L51-16C150 7 282 38 409 69L402 131L287 105C311 189 335 300 353 389ZM453 475L453 429L639 429L639 383L390 383L390 336L954 336L954 383L708 383L708 429L904 429L904 475L708 475L708 518L933 518L933 564L708 564L708 610L639 610L639 564L418 564L418 518L639 518L639 475ZM461 296L461-80L528-80L528 54L829 54L829-12C829-22 825-24 815-25C805-25 772-26 736-25C744-40 754-62 758-77C809-77 843-77 866-68C888-58 893-43 893-12L893 295L528 295ZM829 100L528 100L528 147L829 147ZM829 193L528 193L528 245L829 245ZM249 672C283 643 329 602 351 577L394 621C372 644 326 681 293 708L497 708L497 768L233 768C244 788 254 808 263 828L196 848C162 769 105 692 43 640C59 628 85 602 96 589C130 621 165 662 196 708L289 708ZM690 673C732 647 787 608 815 583L848 628C822 650 772 683 731 708L956 708L956 768L648 768C657 788 665 809 672 830L606 847C583 774 543 699 496 649C512 640 539 620 551 609C574 636 597 670 618 708L719 708Z"/></svg>