<svg id="U25A0A" viewBox="0 0 1024 1024"><path transform="translate(0, 921.6) scale(1,-1)" d="M380 31L380 31L380 468L415 493L333 531Q335 510 335.50 462.50Q336 415 336 349L336 349L200 349L200 430L232 452L147 487Q151 465 152 451Q153 437 153 430L153 430L153 352L131 336L176 304L200 321L336 321L336 223L76 223L108 188L140 198L181 198Q179 150 172.50 113Q166 76 156 49L156 49Q132-11 63-68L63-68L70-78Q170-26 197 36L197 36Q226 103 232 198L232 198L336 198Q336 80 335.50 14Q335-52 333-72L333-72L387-50Q381-35 380.50-13Q380 9 380 31ZM531 166L531 166L745 166Q723 135 700 112.50Q677 90 651 72L651 72Q615 90 585 112.50Q555 135 531 166ZM821 421L821 458L852 484L793 522L761 493L469 493L510 458Q539 468 619 468L619 468L773 468L773 418L415 418L456 386Q481 390 499.50 391.50Q518 393 531 393L531 393L773 393L773 342L487 342L525 304Q552 317 606 317L606 317L773 317L773 301L824 314L821 396L947 396L896 452L865 421L821 421ZM855 273L465 273L462 301L446 301Q434 270 425 251Q416 232 411 223L411 223Q392 207 408 198L408 198Q413 195 421.50 192.50Q430 190 436 198L436 198Q461 201 465 216L465 216Q469 223 469 244L469 244L858 244L824 195L837 185Q912 251 947 251L947 251L881 301L855 273ZM742 195L456 195L490 159L513 166Q533 132 557.50 102Q582 72 613 46L613 46Q559 12 504.50-12Q450-36 392-52L392-52L395-68Q461-58 524.50-35.50Q588-13 651 24L651 24Q765-46 893-65L893-65Q898-27 960-27L960-27L960-11Q800-6 688 49L688 49Q741 86 802 156L802 156L843 172L777 223L742 195ZM865 682L824 619L837 610Q899 666 956 682L956 682L893 739L858 707L534 707Q581 745 550 771L550 771Q523 795 443 824L443 824L433 815Q450 800 462 786.50Q474 773 484 761L484 761Q490 749 496.50 735.50Q503 722 506 707L506 707L179 707L179 748L159 748Q154 673 114 648L114 648Q70 618 96 604L96 604Q110 583 143 604L143 604Q179 617 179 682L179 682L865 682ZM114 528L114 528L114 512Q449 535 430 707L430 707L374 707Q393 572 114 528ZM663 707L610 707L610 610Q610 521 704 531L704 531L811 531Q912 531 922 544L922 544Q935 552 909 573L909 573Q883 590 862 581L862 581Q833 567 745 573L745 573L729 573Q663 565 663 610L663 610L663 707Z"/></svg>