<svg id="U25BFF" viewBox="0 0 1024 1024"><path transform="translate(0, 921.6) scale(1,-1)" d="M331 766L362 774L284 815Q258 735 215 674L215 674Q163 596 109 545L109 545L120 532Q168 567 204 599Q240 631 262 664L262 664L303 664Q323 652 338 639Q353 626 362 617L362 617Q375 606 384 594Q393 582 400 570L400 570Q416 554 431 570L431 570Q450 599 448 604L448 604Q448 611 420 627L420 627Q407 636 385 644Q363 652 331 664L331 664L555 664L498 728L454 692L277 692L331 766ZM690 756L724 766L649 813Q638 783 625 755.50Q612 728 596 699L596 699Q564 630 501 558L501 558L513 548Q548 579 576 606Q604 633 624 658L624 658L687 658Q759 606 785 570L785 570Q807 532 826 551L826 551Q830 563 836 571.50Q842 580 842 586L842 586Q842 602 822 617L822 617Q789 637 712 658L712 658L942 658L879 725L839 684L637 684L690 756ZM680 545L227 545L265 507Q304 520 350 520L350 520L788 520L724 586L680 545ZM744 324L744 324Q756 314 766 303Q776 292 791 280L791 280Q817 257 829 277L829 277Q841 300 813 334L813 334Q794 365 614 428L614 428L611 416Q649 392 676 372.50Q703 353 724 344L724 344Q603 338 488.50 335Q374 332 262 327L262 327Q323 348 363 362.50Q403 377 423 384L423 384Q443 389 465 393.50Q487 398 511 406L511 406L457 435L898 435L832 507L781 463L117 463L151 425Q185 435 236 435L236 435L420 435Q387 404 325 375L325 375Q292 360 258.50 350.50Q225 341 196 334L196 334L233 271Q273 295 744 324ZM536 85L536 129L734 129L734 85L536 85ZM297 233L243 255Q245 229 245.50 187Q246 145 246 85L246 85L75 85L106 57Q121 57 140.50 58.50Q160 60 186 60L186 60L246 60Q246 9 245.50-26Q245-61 243-80L243-80L297-62L297 60L734 60L734 6Q734-17 709-17L709-17Q694-17 666-15Q638-13 593-11L593-11L593-23Q706-43 706-90L706-90Q789-55 785 6L785 6L785 60L948 60L888 132L842 85L785 85L785 201L813 221L753 268L728 233L536 233L536 265L564 286L489 309L489 233L297 233ZM297 154L297 208L489 208L489 154L297 154ZM536 154L536 208L734 208L734 154L536 154ZM297 85L297 129L489 129L489 85L297 85Z"/></svg>