<svg id="U25D8E" viewBox="0 0 1024 1024"><path transform="translate(0, 921.6) scale(1,-1)" d="M326 482L346 479Q298 314 271 225.50Q244 137 241 117L241 117Q238 99 235 77.50Q232 56 232 29L232 29L232-45Q232-69 187-51L187-51Q140-37 169 20L169 20Q195 71 166 91L166 91Q134 113 98 117L98 117L98 132Q165 124 187 142L187 142Q208 158 326 482L326 482ZM80 381L80 381L73 375Q106 351 130 330.50Q154 310 169 290L169 290Q202 246 213 281L213 281Q230 311 210 337L210 337Q200 355 80 381ZM131 554L131 554L128 541Q195 494 220 454L220 454Q245 411 254 448L254 448Q270 485 251 510L251 510Q231 529 131 554ZM688 589L688 589L613 618Q605 588 597 558Q589 528 575 498L575 498Q552 432 500 366L500 366L506 359Q541 387 569 420.50Q597 454 619 492L619 492L834 492L796 407L811 404Q890 498 931 498L931 498L855 551L834 517L632 517Q648 543 661.50 560.50Q675 578 688 589ZM714 416L739 441L673 466Q648 333 597 278L597 278Q544 216 462 183L462 183L465 170Q516 186 556 208.50Q596 231 619 252L619 252Q645 278 667.50 307Q690 336 708 378L708 378Q712 349 725 322.50Q738 296 758 268L758 268Q805 204 881 173L881 173Q896 210 947 202L947 202L947 214Q872 237 805 284L805 284Q737 333 714 416L714 416ZM550 510L550 510L537 517Q442 368 424 350L424 350Q412 325 387 325L387 325Q379 325 366.50 325.50Q354 326 336 331L336 331L330 318Q356 305 370.50 298.50Q385 292 387 290L387 290Q391 280 383 243L383 243Q374 198 405 189L405 189Q441 179 436 208Q431 237 436 261L436 261Q439 273 439.50 282.50Q440 292 443 302L443 302Q445 313 471.50 364.50Q498 416 550 510ZM339 500L326 495Q367 450 380 407L380 407Q390 362 405 384L405 384Q421 403 421 422L421 422Q424 438 405 457L405 457Q393 467 339 500L339 500ZM395 583L389 574Q429 528 443 492L443 492Q457 441 477 479L477 479Q502 513 474 539L474 539Q448 565 395 583L395 583ZM443 135L525 135L525-23L443-23L443 135ZM572-23L572 135L654 135L654-23L572-23ZM704-23L704 135L786 135L786-23L704-23ZM399 79L399-23L263-23L302-51Q319-48 342-46.50Q365-45 387-48L387-48L953-48L909 15L871-23L834-23L834 132L868 148L805 196L777 164L452 164L395 189Q398 161 398.50 134Q399 107 399 79L399 79ZM282 769L323 778L241 826Q224 784 204 749.50Q184 715 166 687L166 687Q144 658 121.50 628Q99 598 70 570L70 570L80 561Q161 611 228 693L228 693L305 693Q323 669 336.50 648.50Q350 628 358 608L358 608Q367 561 389 583L389 583Q420 607 415 633L415 633Q402 661 336 693L336 693L544 693L484 759L446 718L245 718L282 769ZM680 772L720 778L638 826Q631 804 620 783.50Q609 763 597 737L597 737Q583 714 557.50 679.50Q532 645 497 598L497 598L506 592Q579 644 619 693L619 693L688 693Q709 669 725 649.50Q741 630 749 615L749 615Q760 577 777 583L777 583Q787 583 805 611L805 611Q808 631 793 652L793 652Q781 659 763.50 670Q746 681 720 693L720 693L953 693L899 756L852 718L638 718L680 772Z"/></svg>