<svg id="U25175" viewBox="0 0 1024 1024"><path transform="translate(0, 921.6) scale(1,-1)" d="M273 527L273 527L86 527L117 493Q132 497 151 498Q170 499 191 499L191 499L944 499L884 578L827 527L554 527L554 653L846 653L786 729L739 679L554 679L554 741L585 779L497 814Q497 783 500 757.50Q503 732 503 707L503 707L503 527L326 527L326 679L351 710L269 754Q272 730 272.50 674Q273 618 273 527ZM67 260L67 260L67 241Q286 298 446 509L446 509L367 509Q281 357 67 260ZM875 263L875 263Q882 315 956 323L956 323L956 345Q848 340 764 393L764 393Q684 431 610 521L610 521L585 521Q687 325 875 263ZM767 55L767 55L767 282L796 304L742 354L717 323L314 323L257 345Q260 321 260.50 295.50Q261 270 261 244L261 244L261 67Q261 44 260.50 6.50Q260-31 257-88L257-88L314-69L314-25L717-25L717-85L773-62Q768-24 767.50 3.50Q767 31 767 55ZM314 219L314 298L717 298L717 219L314 219ZM314 115L314 190L717 190L717 115L314 115ZM314 0L314 90L717 90L717 0L314 0Z"/></svg>