<svg id="U25C4B" viewBox="0 0 1000 1000"><path transform="translate(0, 900) scale(1,-1)" d="M119 589C165 574 223 546 255 525L287 577C255 595 196 622 149 635ZM58 476C103 462 164 438 196 419L226 473C193 489 134 511 88 524ZM94 282L140 235C199 290 269 363 328 428L290 472C225 402 148 327 94 282ZM355 603L355 545L560 545C553 519 543 495 530 473C487 490 441 506 400 518L362 471C404 458 450 441 494 422C447 369 381 332 298 306C312 294 335 267 343 253C430 286 503 331 555 395C596 375 632 355 659 336C666 320 671 300 672 284C716 281 758 281 780 283C807 284 824 291 840 308C866 334 881 402 895 574C897 583 898 603 898 603ZM591 447C608 476 621 509 630 545L825 545C813 419 801 366 784 350C777 343 767 341 752 341C738 341 706 342 670 345L702 387C674 407 635 427 591 447ZM464 286L464 214L56 214L56 152L399 152C305 84 160 27 35 0C50-15 70-41 80-58C211-23 364 47 464 130L464-81L538-81L538 136C635 51 787-21 918-56C928-38 949-10 965 5C842 31 700 87 608 152L945 152L945 214L538 214L538 286ZM576 845C556 796 524 748 487 708L487 766L224 766C236 785 247 805 257 825L187 845C153 772 95 700 32 652C50 642 80 623 94 610C125 636 156 670 184 707L226 707C246 674 265 633 272 607L341 627C334 648 318 679 302 707L486 707C465 684 443 664 419 647C437 639 469 620 484 609C516 635 549 669 578 707L653 707C680 674 705 636 717 609L785 631C775 653 756 681 736 707L941 707L941 766L617 766C629 786 639 806 648 827Z"/></svg>