<svg id="U25867" viewBox="0 0 1024 1024"><path transform="translate(0, 921.6) scale(1,-1)" d="M238 679L238 679L238 515L70 515L104 483Q119 485 136 487Q153 489 172 489L172 489L228 489Q202 404 161 314.50Q120 225 57 128L57 128L67 118Q169 227 238 370L238 370Q238 229 237 114.50Q236 0 232-91L232-91L289-57Q286-12 285.50 96.50Q285 205 285 386L285 386Q304 362 321 339.50Q338 317 346 291L346 291Q362 245 380 275L380 275Q396 311 380 342L380 342Q360 369 285 404L285 404L285 489L428 489L374 559L330 515L285 515L285 688Q363 710 402 710L402 710L354 782Q335 766 306.50 750Q278 734 238 717L238 717Q196 697 159.50 686.50Q123 676 89 669L89 669L92 656Q149 661 185 666.50Q221 672 238 679ZM544-34L544-34L433-34L465-69Q483-66 500.50-63Q518-60 537-60L537-60L966-60L906 2L868-34L846-34L846 275L871 291L824 335L793 307L600 307L541 332Q541 303 542.50 212Q544 121 544-34ZM594 200L594 278L796 278L796 200L594 200ZM594 83L594 175L796 175L796 83L594 83ZM594-34L594 59L796 59L796-34L594-34ZM323-69L323-69L336-85Q439 47 459 185L459 185Q471 255 474 356Q477 457 477 591L477 591L871 591L834 509L846 506Q901 588 956 584L956 584L893 647L862 619L660 619L660 691L899 691L843 764L802 720L660 720L660 761L688 782L610 817Q610 791 611.50 742.50Q613 694 613 619L613 619L484 619L424 647Q424 611 426 557.50Q428 504 428 437L428 437Q428 368 423 303Q418 238 408 175L408 175Q395 41 323-69ZM613 489L497 474L534 445L544 455L613 468L613 417Q613 370 654 370L654 370L814 370Q863 370 881 393L881 393Q848 429 834 417L834 417Q819 408 786 408L786 408L704 408Q655 401 660 442L660 442L660 474L868 496L814 543L789 512L660 496L660 530L691 559L610 587Q610 561 611.50 537Q613 513 613 489L613 489Z"/></svg>