<svg id="U25F50" viewBox="0 0 1024 1024"><path transform="translate(0, 921.6) scale(1,-1)" d="M734 787L659 815Q617 685 448 573L448 573L457 561Q604 617 693 749L693 749Q716 702 769 655L769 655Q795 626 825 606Q855 586 888 570L888 570Q892 603 948 614L948 614L948 630Q920 632 888.50 642Q857 652 822 671L822 671Q752 702 706 766L706 766L734 787ZM186 715L271 715L271 607L186 607L186 715ZM186 579L397 579L397 491L186 491L186 579ZM186 463L271 463L271 344L186 344L186 463ZM435 787L388 740L186 740L133 769Q135 726 135.50 681.50Q136 637 136 589L136 589L136 359L112 331L151 283L186 318L495 318L438 384L397 344L322 344L322 463L397 463L397 435L441 444L441 573L467 595L413 640L388 607L322 607L322 715L495 715L435 787ZM596 579L557 617L744 617L775 648L826 592L678 592Q623 592 596 579L596 579ZM763 453L763 517L829 517L829 453L763 453ZM549 542L505 558Q505 528 508 495.50Q511 463 511 425L511 425Q511 390 508 352.50Q505 315 505 283L505 283L552 306L552 425L611 425L611 306L655 327L655 425L716 425L716 318L763 337L763 425L829 425L829 355Q829 337 809 337L809 337Q781 337 765 340L765 340L765 327Q811 314 822 271L822 271Q874 292 870 347L870 347L870 514L901 532L845 570L826 542L549 542ZM552 453L552 517L611 517L611 453L552 453ZM655 453L655 517L716 517L716 453L655 453ZM268 274L268 274L262 268Q334 200 350 167L350 167Q368 132 388 157L388 157Q406 187 388 211L388 211Q376 230 268 274ZM775 242L775 242L706 286Q681 229 618 148L618 148L536 148L536 239L561 265L482 299Q482 271 483.50 233.50Q485 196 485 148L485 148L91 148L117 116Q138 116 158 119.50Q178 123 199 123L199 123L423 123Q331 5 75-62L75-62L75-80Q220-50 309-8L309-8Q420 35 485 110L485 110Q485 46 483.50-4Q482-54 482-90L482-90L539-67Q536-48 536-29L536-29Q536-11 536 6L536 6L536 123Q576 75 617 41Q658 7 700-17L700-17Q748-37 789.50-52Q831-67 879-77L879-77Q879-44 948-29L948-29L948-17Q882-12 825-2.50Q768 7 719 28L719 28Q615 67 561 123L561 123L932 123L866 188L826 148L646 148Q662 164 678.50 180Q695 196 712 208L712 208Q733 225 775 242Z"/></svg>