<svg id="U2566D" viewBox="0 0 1024 1024"><path transform="translate(0, 921.6) scale(1,-1)" d="M213 808L204 795Q246 749 263 685L263 685Q278 627 305 656L305 656Q328 685 310 726L310 726Q297 756 213 808L213 808ZM232-82L232-82L292-60Q289-21 289 81L289 81Q289 184 289 354L289 354Q355 308 371 270L371 270Q399 230 418 266L418 266Q432 301 405 329L405 329Q381 350 289 376L289 376L289 424Q314 459 340 492.50Q366 526 389 563L389 563L428 581L361 644L330 600L70 600L101 563Q134 574 172 574L172 574L326 574Q300 526 271 476.50Q242 427 207 376L207 376Q142 275 57 193L57 193L67 185Q115 212 156 253Q197 294 235 345L235 345Q235 209 234.50 104Q234-1 232-82ZM647 647L418 647L449 612Q468 614 487 616.50Q506 619 525 619L525 619L613 619Q596 585 575.50 552.50Q555 520 534 489L534 489Q481 418 389 348L389 348L399 339Q566 431 644 563L644 563Q644 481 642.50 424.50Q641 368 641 335L641 335L701 363Q698 385 698 447L698 447Q698 509 698 615L698 615Q710 582 728.50 548Q747 514 773 474L773 474Q819 400 893 348L893 348Q906 381 953 396L953 396L953 411Q836 430 714 619L714 619L947 619L878 694L837 647L698 647L698 741L736 770L641 808Q641 772 644 732Q647 692 647 647L647 647ZM541 146L641 146L641-19L367-19L405-54Q422-50 440.50-48Q459-46 480-44L480-44L966-44L903 23L849-19L695-19L695 146L922 146L852 219L808 172L695 172L695 257L732 282L638 316Q638 274 639.50 238Q641 202 641 172L641 172L430 172L469 140Q511 146 541 146L541 146Z"/></svg>