<svg id="U250CC" viewBox="0 0 1024 1024"><path transform="translate(0, 921.6) scale(1,-1)" d="M216 822L207 812Q250 773 261 705L261 705L86 705L125 670Q143 672 163.50 674Q184 676 204 676L204 676L471 676L408 737L361 705L282 705Q364 768 216 822L216 822ZM197 554L197 554Q208 522 232 541L232 541Q252 565 235 591L235 591Q214 617 147 648L147 648L140 635Q161 614 175 592Q189 570 197 554ZM279 516L279 516L63 516L101 481Q118 484 137.50 487.50Q157 491 179 491L179 491L261 491L261 374L98 374L135 339Q156 343 176 344.50Q196 346 216 346L216 346L261 346L261 308Q261 279 258.50 255Q256 231 254 208L254 208L317 229Q314 252 314 274L314 274Q314 297 314 321L314 321L314 346L497 346L433 418L383 374L314 374L314 491L515 491L452 560L408 516L305 516Q325 537 341 557Q357 577 367 588L367 588Q390 613 418 626L418 626L351 667Q337 622 317.50 583Q298 544 279 516ZM606 667L682 667L682 532Q651 451 600 384Q549 317 477 257L477 257L487 249Q603 306 682 418L682 418Q682 325 681 272Q680 219 680 208L680 208L739 226Q733 243 732.50 268.50Q732 294 732 331L732 331L732 465Q791 331 896 267L896 267Q907 295 960 305L960 305L960 318Q857 334 752 465L752 465Q763 475 778.50 490.50Q794 506 814 529L814 529Q826 514 837 496.50Q848 479 858 459L858 459Q874 417 893 440L893 440Q906 462 903 481L903 481Q891 505 818 538L818 538Q830 552 837 566Q844 580 849 591L849 591L875 601L805 635Q779 549 745 485L745 485L732 503L732 667L940 667L881 730L840 692L732 692L732 768L758 793L680 825Q680 793 681 759Q682 725 682 692L682 692L487 692L525 658Q543 660 563 663.50Q583 667 606 667L606 667ZM610 594L610 594L632 611L565 645Q549 579 525.50 525Q502 471 471 428L471 428L477 421Q538 473 582 532L582 532Q591 514 601 497Q611 480 616 465L616 465Q631 440 647 462L647 462Q667 491 644 509L644 509Q633 516 616.50 525.50Q600 535 585 544L585 544Q589 556 596.50 569.50Q604 583 610 594ZM616-24L616 164L749 164L749-24L616-24ZM197-24L197-24L60-24L92-58Q128-49 163-49L163-49L963-49L903 17L855-24L799-24L799 148L824 172L777 220L745 188L245 188L194 220Q196 191 196.50 129Q197 67 197-24ZM245-24L245 164L380 164L380-24L245-24ZM428-24L428 164L572 164L572-24L428-24Z"/></svg>