<svg id="U25B59" viewBox="0 0 1024 1024"><path transform="translate(0, 921.6) scale(1,-1)" d="M322 740L353 753L271 797Q262 752 245 712.50Q228 673 208 633L208 633Q188 595 164 560Q140 525 112 494L112 494L120 481Q197 533 259 633L259 633L303 633Q322 615 335 600Q348 585 356 573L356 573Q368 559 377.50 545Q387 531 394 520L394 520Q410 500 426 522L426 522Q445 549 441 561L441 561Q441 570 413 586L413 586Q395 602 328 633L328 633L555 633L482 702L431 658L271 658L322 740ZM675 753L706 769L627 807Q622 775 611 741Q600 707 583 671L583 671Q568 629 543 587Q518 545 485 497L485 497L498 488Q557 538 618 633L618 633L646 633Q737 562 760 526L760 526Q785 488 801 504L801 504Q816 520 816 542L816 542Q816 565 788 583L788 583Q775 593 748 605.50Q721 618 678 633L678 633L911 633L850 702L801 658L624 658L675 753ZM180 438L236 438L236 69Q221 62 199.50 58.50Q178 55 142 51L142 51L180-17L205 10Q271 30 332 46.50Q393 63 451 75L451 75L451-80L501-55L501 95L586 132L583 145L501 126L501 438L932 438L870 504L816 463L91 463L116 428Q128 435 144.50 436.50Q161 438 180 438L180 438ZM287 438L451 438L451 344L287 344L287 438ZM287 318L451 318L451 227L287 227L287 318ZM287 201L451 201L451 110L287 75L287 201ZM618 268L618 22Q618-46 703-42L703-42L798-42Q872-47 907-1L907-1Q875 0 870 31L870 31Q860 47 860 132L860 132L842 132Q838-10 804-1L804-1L703-1Q665-6 665 38L665 38L665 362L700 388L614 422Q614 389 616 351Q618 313 618 268L618 268Z"/></svg>