<svg id="U2590E" viewBox="0 0 1024 1024"><path transform="translate(0, 921.6) scale(1,-1)" d="M685 299L600 324Q615 186 559 88L559 88Q536 35 474.50-2Q413-39 323-70L323-70L326-83Q600-25 638 154L638 154Q687 7 871-83L871-83Q871-47 940-42L940-42L940-26Q796-4 711 95L711 95Q741 118 772 140Q803 162 834 188L834 188L871 192L811 258Q795 229 767.50 192.50Q740 156 698 110L698 110Q657 153 647 188L647 188Q647 212 647.50 234Q648 256 654 277L654 277L685 299ZM225 709L225 709L225 538L70 538L104 504Q137 514 172 514L172 514L220 514Q195 426 156 332.50Q117 239 57 145L57 145L67 129Q163 245 225 394L225 394Q225 248 224.50 131Q224 14 222-80L222-80L276-49Q270-1 269.50 111.50Q269 224 269 406L269 406Q313 362 326 309L326 309Q345 264 361 296L361 296Q379 330 361 362L361 362Q341 394 269 425L269 425L269 514L411 514L358 583L320 538L269 538L269 718Q359 743 383 743L383 743L336 810Q300 774 225 746L225 746Q190 729 153.50 717.50Q117 706 86 699L86 699L89 681Q140 689 174.50 695Q209 701 225 709ZM474 753L433 781Q438 702 440.50 598.50Q443 495 446 362L446 362L424 362L424 413L415 413Q405 359 394.50 328.50Q384 298 377 286L377 286Q358 273 364 245L364 245Q368 220 402 242L402 242Q428 263 428 337L428 337L890 337L849 245L858 239Q908 318 966 340L966 340L919 396L890 362L868 362L890 718L922 733L881 784L849 749L786 749L749 797L723 769L597 769L559 803Q559 688 560.50 578Q562 468 562 362L562 362L484 362L480 460L556 460L518 520L500 485L480 485L477 595L554 595L518 655L497 620L477 620L474 730Q495 735 517 740.50Q539 746 556 749L556 749L531 810Q508 775 474 753L474 753ZM597 743L726 743L726 362L597 362L597 743ZM726 655L695 709L670 681L600 681L629 646L647 655L726 655ZM726 583L695 620L676 595L651 595L619 620L619 394L651 413L651 438L676 438L676 413L708 438L708 570L726 583ZM651 570L676 570L676 463L651 463L651 570ZM770 620L793 583Q809 595 843 595L843 595L840 494L770 494L793 457Q805 466 840 466L840 466L830 362L761 362L761 730L783 749L805 715Q809 717 820.50 718Q832 719 849 725L849 725L846 620L770 620ZM428 145L428 145Q390 113 424 104L424 104Q456 90 480 129L480 129Q502 159 497 252L497 252L484 252Q469 174 428 145Z"/></svg>