<svg id="U25226" viewBox="0 0 1024 1024"><path transform="translate(0, 921.6) scale(1,-1)" d="M333 185L333 688L361 717L307 764L285 735L131 735L80 761Q83 728 83 695L83 695Q83 663 83 628L83 628L83 103Q83 83 83 54L83 54Q83 26 80-9L80-9L131 14L131 77L285 77L285 21L339 42Q334 68 333.50 103.50Q333 139 333 185L333 185ZM131 524L131 707L285 707L285 524L131 524ZM131 316L131 499L285 499L285 316L131 316ZM131 103L131 291L285 291L285 103L131 103ZM868 738L814 814Q763 780 673 764L673 764Q628 754 558.50 745.50Q489 737 399 735L399 735L399 717Q555 717 680 726L680 726Q738 732 786.50 735Q835 738 868 738L868 738ZM424 682L424 682L411 676Q430 634 443 603Q456 572 459 546L459 546Q468 491 490 534L490 534Q517 568 497 609L497 609Q476 639 424 682ZM572 704L559 697Q578 662 591.50 634.50Q605 607 613 584L613 584Q628 535 644 563L644 563Q673 578 663 615L663 615Q663 646 572 704L572 704ZM878 663L878 663L808 713Q797 673 771.50 626Q746 579 714 527L714 527L729 521Q758 542 777.50 564.50Q797 587 811 606L811 606Q830 641 878 663ZM474 329L474 433L600 433L600 329L474 329ZM654 329L654 433L789 433L789 329L654 329ZM474 197L474 301L600 301L600 197L474 197ZM654 197L654 301L789 301L789 197L654 197ZM884 247L837 200L837 427L871 452L811 499L786 461L654 461L654 499L682 524L597 559Q597 530 598.50 505.50Q600 481 600 461L600 461L474 461L421 489Q421 461 422.50 434.50Q424 408 424 383L424 383L424 197L326 197L351 156Q368 160 386.50 164Q405 168 424 168L424 168L424 62Q424 32 422.50-2.50Q421-37 421-88L421-88L474-60L474 172L789 172L789 59Q789 0 770 0L770 0Q757 0 732 2Q707 4 670 8L670 8L670-3Q761-30 761-82L761-82Q837-67 837 23L837 23L837 168L944 168L884 247Z"/></svg>