<svg id="U256DE" viewBox="0 0 1024 1024"><path transform="translate(0, 921.6) scale(1,-1)" d="M210 803L200 794Q251 733 261 681L261 681Q277 630 302 658L302 658Q327 689 314 725L314 725Q296 759 210 803L210 803ZM238-90L238-90L295-64Q292-28 292 82L292 82Q292 193 292 384L292 384Q317 360 336.50 338Q356 316 364 293L364 293Q386 250 402 286L402 286Q425 318 402 347L402 347Q388 371 292 406L292 406Q315 448 340.50 488Q366 528 389 563L389 563L421 583L361 640L333 599L89 599L122 563Q138 565 155 567.50Q172 570 191 570L191 570L326 570Q306 523 277 473Q248 423 210 368L210 368Q177 317 141.50 272.50Q106 228 63 192L63 192L70 177Q112 204 154 245Q196 286 241 337L241 337Q241 201 240.50 96.50Q240-8 238-90ZM493 542L493 664L588 664L588 542L493 542ZM632 542L632 664L720 664L720 542L632 542ZM764 384L764 517L855 517L855 384L764 384ZM632 384L632 517L720 517L720 384L632 384ZM493 384L493 517L588 517L588 384L493 384ZM691 79L578 19L578 177L708 177L667 239L629 201L578 201L578 265L606 286L531 327Q531 294 532.50 222Q534 150 534 38L534 38Q534 7 525-5L525-5L554-62Q589-13 695 60L695 60L691 79ZM714 13L714 13Q714-45 783-45L783-45L881-45Q932-45 956 3L956 3Q913 16 919 139L919 139L903 139Q897 91 893 62Q889 33 887 19L887 19Q879-5 855-5L855-5L799-5Q761-3 761 38L761 38L761 160Q789 165 821 168Q853 171 887 177L887 177L922 173L881 245Q863 227 834.50 215.50Q806 204 761 192L761 192L761 271L789 296L711 337Q711 292 712.50 211.50Q714 131 714 13ZM323-74L323-74L333-83Q428 10 456 104L456 104Q472 155 481.50 217Q491 279 493 355L493 355L855 355L855 327L906 347Q903 367 903 408L903 408Q903 450 903 507L903 507L934 526L884 579L849 542L764 542L764 664L960 664L899 733L855 692L688 692Q726 730 704 762L704 762Q674 792 606 815L606 815L603 800Q658 754 670 692L670 692L500 692L440 725Q442 670 444.50 576.50Q447 483 443 353L443 353Q443 91 323-74Z"/></svg>