<svg id="U2539C" viewBox="0 0 1024 1024"><path transform="translate(0, 921.6) scale(1,-1)" d="M392 733L326 677Q309 686 288.50 696.50Q268 707 245 715L245 715L235 709Q307 638 307 614L307 614L80 614L114 579Q131 582 148.50 585.50Q166 589 187 589L187 589L266 589Q188 486 67 409L67 409L76 396Q139 425 200.50 467.50Q262 510 314 570L314 570L314 460Q314 418 210 438L210 438L210 422Q299 411 295 368L295 368Q359 387 364 440L364 440L364 589L462 589L424 514L430 504Q455 534 484 558L484 558Q496 566 507.50 571.50Q519 577 531 583L531 583L487 643L462 614L351 614Q375 633 346 668L346 668Q473 737 503 737L503 737L452 790L428 759L122 759L159 728Q176 729 194.50 729.50Q213 730 232 733L232 733L392 733ZM263 85L263 170L333 170L333 85L263 85ZM111-77L111-77L159-55L159 183Q195 190 216 208L216 208Q218 198 219 177.50Q220 157 220 126L220 126Q220 100 219.50 69.50Q219 39 216 6L216 6L263 25L263 57L333 57L333 28L380 47Q375 67 374.50 97.50Q374 128 374 164L374 164L405 183L361 224L333 195L257 195L235 221Q271 260 282 347L282 347L232 347Q236 299 220 265L220 265Q201 220 159 201L159 201L159 344L333 344Q333 240 354 224L354 224Q380 206 449 211L449 211L452 258Q394 244 387 265L387 265Q374 287 374 344L374 344L446 344L446 25Q446-5 421-5L421-5Q406-5 388.50-2.50Q371 0 346 0L346 0L346-11Q428-33 428-80L428-80Q490-53 490 19L490 19L490 324L521 347L471 403L443 368L156 368L111 394Q114 358 114 298L114 298Q114 239 114 154L114 154Q114 70 114 12L114 12Q114-46 111-77ZM764 774L682 810Q682 771 683.50 735.50Q685 700 685 668L685 668Q685 610 683.50 566Q682 522 682 494L682 494L739 517Q736 532 736 565L736 565Q736 599 736 648L736 648L736 749L764 774ZM780 687L773 674Q858 580 881 526L881 526Q910 470 928 510L928 510Q941 544 919 583L919 583Q889 618 780 687L780 687ZM484 444L500 440Q533 483 564.50 530.50Q596 578 626 630L626 630L647 652L585 681Q570 600 484 444L484 444ZM682 355L682 355L528 355L562 318Q592 327 623 327L623 327L682 327Q682 275 676 221L676 221L490 221L525 183Q541 185 558.50 187Q576 189 597 192L597 192L673 192Q657 112 603 51L603 51Q554-21 465-70L465-70L471-83Q566-42 632 16L632 16Q693 73 723 188L723 188Q736 134 753.50 93.50Q771 53 793 25L793 25Q811-6 836-31Q861-56 890-77L890-77Q909-40 956-29L956-29L956-20Q923-18 894-2Q865 14 837 38L837 38Q786 87 742 192L742 192L956 192L906 249L868 221L723 221Q732 252 732 327L732 327L928 327L878 403L840 355L732 355L732 428L755 457L676 481Q682 415 682 355Z"/></svg>