<svg id="U25D02" viewBox="0 0 1024 1024"><path transform="translate(0, 921.6) scale(1,-1)" d="M215 357L215 357L265 369L265 388L763 388L763 357L816 372Q810 405 809.50 453.50Q809 502 809 565L809 565L842 586L788 621L760 599L265 599L215 612Q217 570 217.50 535.50Q218 501 218 473L218 473Q218 444 217.50 415.50Q217 387 215 357ZM265 507L265 568L489 568L489 507L265 507ZM536 507L536 568L763 568L763 507L536 507ZM265 413L265 483L489 483L489 413L265 413ZM536 413L536 483L763 483L763 413L536 413ZM536 202L719 202L719 139L536 139L536 202ZM303 139L303 202L489 202L489 139L303 139ZM325 278L259 293L259 228L123 228L158 193Q181 197 206.50 197.50Q232 198 259 198L259 198L259 114L315 114L489 114L489 61L84 61L123 26Q160 39 221 35L221 35L489 35L489 20Q489-7 487-32.50Q485-58 485-80L485-80L539-67Q536-46 536-26L536-26Q536-7 536 13L536 13L536 35L942 35L883 98L839 61L536 61L536 114L763 114L763 198L914 198L847 262L809 228L804 228L763 228L763 252L772 278L719 293L719 231L536 231L536 316L489 316L489 231L303 231L303 259L325 278ZM259 300L763 300L958 300L901 363L850 328L536 328L536 398L489 398L489 328L65 328L100 293Q122 298 147.50 299Q173 300 199 300L199 300L259 300ZM300 776L338 781L259 825Q244 787 225.50 756Q207 725 186 697L186 697Q167 667 143.50 640.50Q120 614 94 586L94 586L106 580Q183 622 246 702L246 702L318 702Q355 666 372 624L372 624Q383 573 403 602L403 602Q430 618 423 643L423 643Q417 671 350 702L350 702L552 702L492 766L457 728L262 728L300 776ZM668 779L703 784L631 825Q625 812 614.50 792Q604 772 590 743L590 743Q572 712 548 680.50Q524 649 492 609L492 609L501 599Q536 628 563.50 653.50Q591 679 611 702L611 702L672 702Q719 663 724 630L724 630Q734 598 753 602L753 602Q768 602 778 627L778 627Q783 656 765 665L765 665Q754 671 738.50 681Q723 691 703 702L703 702L932 702L876 763L835 728L627 728L668 779Z"/></svg>