<svg id="U25379" viewBox="0 0 1024 1024"><path transform="translate(0, 921.6) scale(1,-1)" d="M747 583L747 677L813 677L813 583L747 583ZM747 460L747 558L813 558L813 460L747 460ZM747 188L747 188L924 188L863 252L826 214L747 214L747 306L898 306L842 365L804 331L747 331L747 432L813 432L813 413L863 438Q860 458 860 487L860 487Q860 516 860 558L860 558L958 558L911 617L873 583L860 583L860 671L891 684L835 733L809 702L747 702L747 759L769 774L696 810Q696 773 698 748Q700 723 700 702L700 702L596 702L631 671Q646 673 664 675Q682 677 700 677L700 677L700 583L552 583L583 548Q617 558 659 558L659 558L700 558L700 460L602 460L639 425Q658 427 671.50 429.50Q685 432 700 432L700 432L700 331L580 331L614 296Q644 306 690 306L690 306L700 306L700 214L561 214L596 180Q631 188 672 188L672 188L700 188Q700 150 698 114Q696 78 696 41L696 41L750 63Q747 98 747 129L747 129Q747 160 747 188ZM501 664L438 419L407 400L451 355L472 381L520 381Q506 312 491.50 249Q477 186 464 129L464 129Q431 165 397 268L397 268L382 258Q395 207 411.50 167Q428 127 451 95L451 95Q383-16 290-74L290-74L297-83Q405-35 479 63L479 63Q574-50 888-55L888-55Q893-7 952 0L952 0L952 13Q664-19 498 98L498 98Q531 202 564 372L564 372L596 394L536 438L513 406L479 406L549 655L574 671L530 718L501 692L379 692L416 658Q432 660 449.50 662Q467 664 485 664L485 664L501 664ZM338 722L265 614Q224 646 180 664L180 664L180 655Q235 600 249 548L249 548Q266 494 284 517L284 517Q306 533 303 558L303 558Q303 580 277 604L277 604Q301 635 323 656.50Q345 678 359 689L359 689Q394 712 416 712L416 712L369 781L335 749L103 749L130 715Q148 717 166 719.50Q184 722 202 722L202 722L338 722ZM136 3L136 3L136-8Q180-17 199-36L199-36Q203-42 211-54Q219-66 224-83L224-83Q254-70 271-55L271-55Q290-36 290-1L290-1L290 473L346 473L315 391L325 388Q337 403 348 419.50Q359 436 369 447L369 447Q388 466 423 473L423 473L375 529L346 501L75 501L109 466Q122 468 140 470.50Q158 473 180 473L180 473L224 473Q210 428 195 381Q180 334 161 286L161 286Q139 238 118 188.50Q97 139 65 88L65 88L68 75Q95 102 116.50 132.50Q138 163 161 205L161 205Q210 277 246 400L246 400L246 25Q246 0 233-1L233-1Q220-9 136 3Z"/></svg>