<svg id="U25D62" viewBox="0 0 1024 1024"><path transform="translate(0, 921.6) scale(1,-1)" d="M462 324L603 324L550 394L506 350L440 350L440 497L474 520L389 548Q391 524 391.50 496.50Q392 469 392 440L392 440L392 350L305 350L305 501L333 526L257 558Q260 528 260.50 498.50Q261 469 261 440L261 440L261 350L86 350L122 312L147 324L225 324Q276 254 266 211L266 211L108 211L140 173Q173 186 210 186L210 186L323 186L323 113L150 113L187 75L228 88L323 88L323 0Q259-8 201.50-13Q144-18 92-20L92-20L128-77Q144-67 256.50-45Q369-23 575 13L575 13L572 25L380 6L380 91L554 91L497 160L456 116L380 116L380 186L575 186L518 255L477 211L399 211Q438 246 464.50 268.50Q491 291 506 296L506 296L462 324ZM761 381L588 381L616 344Q649 353 691 353L691 353L761 353L761 41Q761 5 742-1L742-1Q717-7 606 13L606 13L606-1Q724-31 732-90L732-90Q808-54 808 16L808 16L808 350L947 350L896 422L849 375L808 375L808 491L846 522L755 558Q755 526 758 493.50Q761 461 761 428L761 428L761 381ZM594 277L591 268Q648 191 657 151L657 151Q671 110 691 132L691 132Q715 155 711 186L711 186Q711 214 594 277L594 277ZM374 211L374 211L298 211Q354 272 245 324L245 324L433 324Q422 295 407.50 267Q393 239 374 211ZM216 406L216 406Q241 452 138 501L138 501L128 497Q174 436 179 400L179 400Q187 347 216 406ZM565 460L565 460L597 473L537 504Q528 486 509 455Q490 424 462 375L462 375L474 362Q498 391 520 413.50Q542 436 565 460ZM285 753L323 769L245 815Q217 731 176 661L176 661Q154 630 129.50 598.50Q105 567 76 535L76 535L89 526Q162 575 235 674L235 674L305 674Q347 620 358 576L358 576Q367 527 392 555L392 555Q419 572 415 602L415 602Q411 624 336 674L336 674L541 674L480 743L449 699L248 699L285 753ZM670 756L708 769L629 815Q619 796 609 771.50Q599 747 588 722L588 722Q573 690 547.50 652.50Q522 615 490 563L490 563L500 558Q530 585 558 615Q586 645 610 674L610 674L670 674Q697 642 714 604L714 604Q734 563 749 563L749 563Q765 563 770 583L770 583Q777 595 774 603Q771 611 767 623L767 623Q746 644 695 674L695 674L937 674L881 740L837 699L629 699L670 756Z"/></svg>