<svg id="U258A9" viewBox="0 0 1024 1024"><path transform="translate(0, 921.6) scale(1,-1)" d="M240 705L240 705L240 538L72 538L106 504Q139 514 174 514L174 514L230 514Q183 338 59 151L59 151L68 142Q122 193 163 258Q204 323 240 396L240 396Q240 252 239.50 134Q239 16 236-80L236-80L290-49Q287 0 287 114L287 114Q287 229 287 413L287 413Q334 353 346 314L346 314Q365 263 382 299L382 299Q400 332 382 365L382 365Q369 392 287 432L287 432L287 514L435 514L379 579L338 538L287 538L287 715Q329 724 358.50 729Q388 734 403 737L403 737L356 807Q318 772 240 743L240 743Q198 724 162.50 713Q127 702 91 696L91 696L94 681Q205 694 240 705ZM608 558L608 558L608 447L655 481Q652 494 652 542L652 542L652 730L683 749L631 794L593 769L400 769L438 733Q455 736 475.50 739.50Q496 743 517 743L517 743L608 743L608 579Q532 541 484.50 519Q437 497 420 497L420 497L472 438L482 460Q522 492 553.50 517.50Q585 543 608 558ZM451 712L451 712L438 705Q467 677 484 653.50Q501 630 511 614L511 614Q521 571 542 589L542 589Q563 599 557 636L557 636Q557 673 451 712ZM703 709L703 709L696 696Q746 660 765 620L765 620Q778 588 804 599L804 599Q822 604 813 648L813 648Q807 683 703 709ZM863 558L863 558L863 444L911 476Q908 489 907.50 517Q907 545 907 583L907 583L907 733L939 749L886 807L847 769L690 769L728 733Q744 736 762 739.50Q780 743 804 743L804 743L863 743L863 576Q735 520 683 510L683 510L728 453L740 476Q755 494 863 558ZM652 476L652 476L721 440L693 419Q777 338 845 318L845 318Q914 286 965 286L965 286L965 271Q915 261 904 227L904 227Q749 292 687 406L687 406Q649 368 613 337.50Q577 307 539 283L539 283Q470 232 385 208L385 208L382 221Q481 270 555 340L555 340Q621 401 652 476ZM734 188L724 183Q756 145 775 95L775 95Q789 67 797 46.50Q805 26 809 13L809 13Q821-13 842 13L842 13Q862 47 847 75L847 75Q837 106 804 136L804 136Q786 153 768.50 165Q751 177 734 188L734 188ZM649 252L649 252L649 44Q649 29 618 19L618 19Q595 14 513 25L513 25L513 10Q611-7 611-64L611-64Q632-55 651-46Q670-37 678-23L678-23Q689-9 692.50 14.50Q696 38 696 69L696 69L696 262L734 283L646 321Q646 298 647.50 281Q649 264 649 252ZM570 154L570 154L611 170L539 221Q507 147 464 95L464 95Q443 69 423.50 47.50Q404 26 385 10L385 10L397-1Q428 19 451.50 36Q475 53 495 72L495 72Q535 107 570 154ZM829 208L819 198Q836 179 851.50 159.50Q867 140 879 113L879 113Q888 92 896.50 71Q905 50 911 31L911 31Q923 3 945 38L945 38Q963 78 948 104L948 104Q942 116 904 154L904 154Q888 168 870 182Q852 196 829 208L829 208Z"/></svg>