<svg id="U259AA" viewBox="0 0 1024 1024"><path transform="translate(0, 921.6) scale(1,-1)" d="M448 586L385 646Q370 629 343 610Q316 591 281 568L281 568Q243 541 197.50 518.50Q152 496 100 473L100 473L109 457Q220 484 407 586L407 586L448 586ZM564 627L564 627L561 612Q621 592 664 575.50Q707 559 734 545L734 545Q779 520 822 483L822 483Q858 436 870 491L870 491Q877 537 806 568L806 568Q738 593 564 627ZM180 2L180 2L148-19L205-67L243-35L920-35L850 35L806-10L230-10L230 432L850 432L794 491L747 457L233 457L174 486Q178 429 179 308.50Q180 188 180 2ZM529 61L580 61L580 190L734 190L734 158L788 180Q785 208 785 239L785 239Q785 271 785 306L785 306L813 322L747 372L719 337L590 337L590 448L536 448L536 347L505 331L557 290L596 313L734 313L734 215L596 215L523 239Q523 187 526 141.50Q529 96 529 61L529 61ZM328 61L382 61L382 300L426 322L325 372Q327 339 327.50 261.50Q328 184 328 61L328 61ZM760 117L706 73L328 73L297 57L344 23L394 44L842 44L760 117ZM854 662L813 599L826 589Q887 647 942 662L942 662L879 722L847 687L529 687Q568 730 542 753L542 753Q523 775 429 813L429 813L423 800Q438 783 450.50 769Q463 755 472 743L472 743Q490 713 495 687L495 687L171 687L171 735L151 735Q146 655 109 627L109 627Q68 599 88 583L88 583Q107 563 136 583L136 583Q171 597 171 662L171 662L854 662Z"/></svg>