<svg id="U25591" viewBox="0 0 1024 1024"><path transform="translate(0, 921.6) scale(1,-1)" d="M148 570L148 712L355 712L355 570L148 570ZM141 740L97 769Q101 721 102 654.50Q103 588 103 497L103 497Q103 406 100 329Q97 252 92 186L92 186Q88 120 76 57Q64-6 42-67L42-67L52-74Q78-26 93.50 24Q109 74 116 139L116 139Q124 197 132.50 254Q141 311 141 365L141 365Q146 419 147 464Q148 509 148 545L148 545L355 545L355 517L403 535Q400 547 400 560L400 560Q400 574 400 589L400 589L400 705L421 725L377 771L355 740L141 740ZM242 428L242 428L242 318L135 293L169 265L188 280L242 296L242 183L135 157L169 126L176 142L242 160L242 28Q242-54 305-49L305-49L853-49Q891-52 941-8L941-8Q910-2 910 25L910 25Q907 44 907 72L907 72L891 72Q881 10 871-1L871-1Q863-16 843-11L843-11L336-11Q280-16 285 47L285 47L285 170L447 214L396 255L368 218L285 195L285 306L406 337L362 381L339 344L285 331L285 435Q307 440 326 444Q345 448 362 453L362 453L383 453L349 517Q318 487 270.50 464.50Q223 442 157 419L157 419L157 403Q225 416 242 428ZM503 160L503 440L557 440L557 160L503 160ZM557 696L406 696L441 664Q476 671 493 671L493 671Q487 613 478.50 558.50Q470 504 456 453L456 453Q445 398 430.50 353Q416 308 403 268L403 268L409 255Q447 318 462 365L462 365Q462 281 460.50 204Q459 127 459 54L459 54L503 82L503 132L557 132L557 101L601 126Q598 171 598 247L598 247Q598 323 598 438L598 438L623 453L582 494L557 469L513 469L500 476Q512 521 520.50 570.50Q529 620 541 671L541 671L639 671L591 728L557 696ZM768 712L768 712L768 655L699 655L652 687Q656 474 652 365L652 365Q644 313 637 264.50Q630 216 617 177L617 177Q592 88 550 28L550 28L557 16Q629 91 660 195L660 195Q675 246 684 302.50Q693 359 699 422L699 422L717 422Q724 362 735.50 310.50Q747 259 771 208L771 208Q705 96 607 31L607 31L611 22Q619 24 640.50 36Q662 48 689 69L689 69Q741 108 789 170L789 170Q827 92 866 66L866 66Q890 91 919 91L919 91L919 107Q876 114 815 201L815 201Q833 233 852.50 289.50Q872 346 894 419L894 419L919 435L875 476L850 450L809 450L809 630L868 630L853 551L866 545Q907 632 941 636L941 636L891 689L871 655L809 655L809 746L834 766L765 800Q765 773 766.50 750.50Q768 728 768 712ZM699 450L699 630L768 630L768 450L699 450ZM733 422L733 422L850 422Q827 336 793 255L793 255Q757 305 733 422Z"/></svg>