<svg id="U25B12" viewBox="0 0 1024 1024"><path transform="translate(0, 921.6) scale(1,-1)" d="M353 766L353 766L271 807Q262 761 247 717Q232 673 212 633L212 633Q193 597 165 559Q137 521 100 479L100 479L106 469Q218 545 271 636L271 636L303 636Q323 619 338.50 602.50Q354 586 369 570L369 570Q383 553 391.50 536Q400 519 410 510L410 510Q422 479 438 517L438 517Q453 537 448 566L448 566Q440 583 416 599L416 599Q404 604 384 614Q364 624 335 636L335 636L555 636L479 709L435 664L277 664Q311 733 353 766ZM719 771L719 771L639 813Q635 781 626.50 747.50Q618 714 602 674L602 674Q564 594 498 517L498 517L508 510Q572 547 634 636L634 636L668 636Q755 564 778 522L778 522Q803 489 809 501L809 501Q822 517 822 542L822 542Q827 562 801 589L801 589Q786 598 758 611Q730 624 690 636L690 636L932 636L860 712L806 664L643 664Q664 709 684 734.50Q704 760 719 771ZM426 365L426 365L920 365L854 440L801 394L431 394L448 444L472 469L394 501Q394 483 391 457.50Q388 432 379 394L379 394L91 394L123 359Q141 363 164.50 364Q188 365 215 365L215 365L372 365Q350 304 322.50 247.50Q295 191 253 142L253 142Q211 90 167.50 49Q124 8 78-23L78-23L84-33Q257 53 379 242L379 242Q423 145 508 66L508 66Q460 23 379-12Q298-47 183-70L183-70L183-86Q405-62 545 34L545 34Q671-50 863-70L863-70Q863-33 945-14L945-14L945-1Q912-4 867.50-3Q823-2 769 6L769 6Q658 21 586 69L586 69Q624 105 660 144.50Q696 184 728 227L728 227L769 236L690 299Q671 245 633.50 195.50Q596 146 545 95L545 95Q490 132 453.50 174.50Q417 217 391 268L391 268Q397 288 406.50 312Q416 336 426 365ZM583 535L574 522Q638 462 665 419L665 419Q684 384 700 400L700 400Q704 409 708 419.50Q712 430 712 444L712 444Q719 463 687 491L687 491Q670 498 644 509.50Q618 521 583 535L583 535Z"/></svg>