<svg id="U2532E" viewBox="0 0 1024 1024"><path transform="translate(0, 921.6) scale(1,-1)" d="M326 183L326 687L354 709L302 759L279 725L128 725L76 756Q79 721 79.50 688.50Q80 656 80 623L80 623L80 104Q80 85 79.50 56.50Q79 28 76-8L76-8L128 13L128 79L279 79L279 22L330 44Q327 67 326.50 102.50Q326 138 326 183L326 183ZM128 517L128 699L279 699L279 517L128 517ZM128 314L128 491L279 491L279 314L128 314ZM128 104L128 290L279 290L279 104L128 104ZM292-58L292-58L305-70Q426 75 446 340L446 340L446 722L944 722L884 797L834 746L452 746L399 784Q399 736 400.50 665Q402 594 402 491L402 491Q404 383 398.50 301Q393 219 380 160L380 160Q365 99 344.50 44.50Q324-10 292-58ZM657 627L657 627L623 684Q584 648 550 640L550 640Q528 632 508 624.50Q488 617 465 611L465 611L465 602Q516 602 544 607L544 607L544 526L446 526L477 488L493 497L534 497Q486 345 436 258L436 258L443 252Q497 296 544 400L544 400Q544 352 542.50 305.50Q541 259 541 214L541 214L588 239Q583 268 582.50 315.50Q582 363 582 438L582 438Q598 416 610.50 395Q623 374 632 353L632 353Q647 315 657 331L657 331Q673 338 673 362L673 362Q677 388 654 413L654 413Q644 424 625.50 434.50Q607 445 582 460L582 460L582 504L685 504L641 548L610 526L582 526L582 611Q620 614 657 627ZM824 504L824 504L931 504L893 563L862 529L811 529L811 627Q832 629 854.50 631.50Q877 634 903 640L903 640L852 702Q833 686 813.50 672Q794 658 773 652L773 652Q755 645 735 638Q715 631 691 627L691 627L698 607Q721 610 739 612.50Q757 615 773 620L773 620L773 529L676 529L708 491L726 504L764 504Q708 347 641 280L641 280L651 274Q711 305 773 416L773 416Q773 370 771.50 322.50Q770 275 770 224L770 224L814 252Q811 280 811 337L811 337Q811 395 811 479L811 479Q813 455 822 429Q831 403 843 375L843 375Q859 328 887 290L887 290Q909 318 940 314L940 314L940 324Q920 340 881 391L881 391Q861 411 848.50 440Q836 469 824 504ZM670-14L670-14L559-14L559 160L591 183L513 218Q513 176 514 118.50Q515 61 515-14L515-14L389-14L424-49Q438-46 454.50-42.50Q471-39 493-39L493-39L947-39L890 25L840-14L714-14L714 136L912 136L862 198L821 160L714 160L714 236L739 265L667 296Q667 253 668.50 175.50Q670 98 670-14Z"/></svg>