<svg id="U2542E" viewBox="0 0 1000 1000"><path transform="translate(0, 900) scale(1,-1)" d="M47 789L47 720L173 720C148 544 105 380 27 273C42 258 66 223 74 208C93 235 110 264 126 296L126-26L194-26L194 59L406 59L406 487L198 487C218 560 234 639 247 720L441 720L441 789ZM194 420L338 420L338 126L194 126ZM501 786L501 455C501 302 487 105 359-33C376-43 405-67 417-81C537 47 566 235 572 390L669 390C705 174 778 4 919-80C930-61 953-32 971-18C841 50 771 204 737 390L910 390L910 786ZM573 714L837 714L837 462L573 462Z"/></svg>