<svg id="U25F4" viewBox="0 0 720 1000"><path transform="translate(0, 900) scale(1,-1)" d="M360 15L360 15Q296 15 239.50 39Q183 63 141 105.50Q99 148 75 204Q51 260 51 324L51 324Q51 388 75 444Q99 500 141 542.50Q183 585 239.50 609Q296 633 360 633L360 633Q424 633 480 609Q536 585 578.50 542.50Q621 500 645 444Q669 388 669 324L669 324Q669 260 645 204Q621 148 578.50 105.50Q536 63 480 39Q424 15 360 15ZM88 342L88 342L342 342L342 596Q274 592 217.50 557.50Q161 523 126.50 467Q92 411 88 342ZM360 51L360 51Q417 51 466.50 72Q516 93 553.50 130.50Q591 168 612 217.50Q633 267 633 324L633 324Q633 397 599 457Q565 517 507.50 554.50Q450 592 378 596L378 596L378 306L88 306Q93 234 130 176.50Q167 119 227.50 85Q288 51 360 51Z"/></svg>