<svg id="U2513E" viewBox="0 0 1024 1024"><path transform="translate(0, 921.6) scale(1,-1)" d="M860 688L860 688L891 710L801 748Q801 715 802.50 680.50Q804 646 804 619L804 619L549 619Q564 668 564 754L564 754L598 782L505 811Q507 756 505 708.50Q503 661 498 619L498 619L259 619L259 710L287 741L199 767Q201 725 204.50 693.50Q208 662 208 635L208 635L177 615L230 571L256 594L472 594Q430 552 348.50 527Q267 502 139 483L139 483L139 468Q215 470 279 477.50Q343 485 391 502L391 502Q492 538 542 594L542 594L804 594L804 553L863 568Q860 597 860 627L860 627Q860 657 860 688ZM895 509L835 458L470 458L97 458L133 424Q166 433 208 433L208 433L391 433Q273 247 59 168L59 168L62 152Q246 204 328 282L328 282Q370 319 402 356Q434 393 464 433L464 433L965 433L895 509ZM813 67L813 67L813 301L839 323L781 376L753 339L385 339L325 363Q327 318 327.50 274Q328 230 328 185L328 185L328 70Q328 25 327.50-13.50Q327-52 325-85L325-85L385-54L385-9L757-9L757-65L816-44Q813-13 813 14L813 14Q813 41 813 67ZM385 229L385 313L757 313L757 229L385 229ZM385 124L385 203L757 203L757 124L385 124ZM385 14L385 99L757 99L757 14L385 14Z"/></svg>