<svg id="U25DB5" viewBox="0 0 1024 1024"><path transform="translate(0, 921.6) scale(1,-1)" d="M155 311L142 295Q191 240 196 213L196 213Q205 176 230 207L230 207Q255 226 233 254L233 254Q213 279 155 311L155 311ZM294 188L294 188L72 188L109 150Q157 159 243 159L243 159L259 159Q185 52 65-50L65-50L78-55Q139-12 194 30Q249 72 294 121L294 121Q294 57 293.50 7Q293-43 290-78L290-78L338-50L338 125Q427 44 448 10L448 10Q471-26 489 10L489 10Q503 55 454 80L454 80Q400 114 338 125L338 125L338 159L555 159L508 216L472 188L388 188Q396 197 414.50 215.50Q433 234 457 257L457 257L492 260L429 314Q411 261 372 188L372 188L338 188L338 285L369 311L290 345Q293 322 293.50 282Q294 242 294 188ZM186 540L130 560Q134 533 135 504Q136 475 136 443L136 443Q136 407 135 377Q134 347 130 323L130 323L186 333L186 345L451 345L451 323L498 336L498 519L526 537L472 569L438 544L318 544L359 512Q384 517 407 519.50Q430 522 451 522L451 522L451 462L328 462L362 430Q384 433 406 436.50Q428 440 451 440L451 440L451 370L183 370L183 430L312 430L271 481L243 455L183 455L183 525Q204 530 222.50 534Q241 538 256 544L256 544Q276 549 291.50 553.50Q307 558 318 560L318 560L271 591Q263 583 243 570Q223 557 186 540L186 540ZM822 434L822 434L822 525L854 547L801 591L775 560L652 560L605 591Q614 489 596 430L596 430Q577 369 511 317L511 317L517 308Q550 323 574.50 342.50Q599 362 621 383L621 383Q659 432 659 531L659 531L778 531L778 411Q764 352 835 352L835 352Q965 341 952 373L952 373Q932 406 914 403L914 403Q893 393 876 393L876 393Q850 388 842 393L842 393Q822 393 822 434ZM794 304L533 304L570 267L605 280Q629 144 687 77L687 77Q586-16 451-68L451-68L454-78Q600-49 712 40L712 40Q800-31 886-72L886-72Q904-29 958-34L958-34L958-15Q895-6 842 14.50Q789 35 744 77L744 77Q805 149 854 267L854 267L895 285L829 336L794 304ZM624 276L624 276L801 276Q776 213 754 171.50Q732 130 712 109L712 109Q656 180 624 276ZM281 764L322 780L240 824Q224 786 205 752Q186 718 164 689L164 689Q129 638 65 578L65 578L78 573Q120 597 156 628.50Q192 660 224 698L224 698L300 698Q345 660 356 616L356 616Q363 571 391 591L391 591Q417 614 413 638L413 638Q408 663 335 698L335 698L545 698L485 761L451 723L243 723L281 764ZM678 771L721 780L639 824Q630 805 618 783Q606 761 593 733L593 733Q578 703 555.50 668Q533 633 498 588L498 588L511 584Q569 622 621 698L621 698L687 698Q735 657 747 622L747 622Q766 588 781 591L781 591Q798 591 804 619L804 619Q806 640 794 657L794 657Q782 663 765 674.50Q748 686 721 698L721 698L958 698L901 764L857 723L634 723L678 771Z"/></svg>