<svg id="U251A9" viewBox="0 0 1000 1000"><path transform="translate(0, 900) scale(1,-1)" d="M527 279C514 126 476 30 298-21C314-34 334-62 342-80C537-19 585 98 600 279ZM706 280L706 22C706-51 723-73 795-73C809-73 873-73 888-73C948-73 966-40 973 92C954 97 924 109 910 121C907 9 903-7 880-7C866-7 815-7 805-7C781-7 777-4 777 22L777 280ZM642 521L858 521L858 378L642 378ZM642 726L858 726L858 584L642 584ZM573 792L573 312L930 312L930 792ZM427 810L427 305L498 305L498 810ZM285 514L285 373L144 373L144 514ZM285 580L144 580L144 719L285 719ZM285 307L285 161L144 161L144 307ZM74 786L74 6L144 6L144 94L356 94L356 786Z"/></svg>