<svg id="U25F32" viewBox="0 0 1024 1024"><path transform="translate(0, 921.6) scale(1,-1)" d="M98 710L98 710L89 701Q124 614 128 559L128 559Q137 492 166 530L166 530Q191 566 169 615L169 615Q157 634 139.50 659Q122 684 98 710ZM210 471L210 471L70 471L96 439Q124 445 147 445L147 445L197 445Q164 271 63 99L63 99L76 93Q159 193 210 329L210 329Q210 202 209.50 101Q209 0 207-75L207-75L261-50Q255-15 254.50 13Q254 41 254 64L254 64L254 354Q280 323 295 294Q310 265 320 234L320 234Q337 169 358 229L358 229Q364 249 363 270.50Q362 292 348 307L348 307Q318 343 254 376L254 376L254 445L399 445L348 521L314 471L254 471L254 735L285 773L207 808Q209 745 209.50 662.50Q210 580 210 471ZM371 663L399 679L333 717Q319 651 302 602Q285 553 266 518L266 518L273 506Q331 569 371 663L371 663ZM613 159L613 159L711 209L708 226L613 193L613 563L682 563L626 625L585 584L534 584L534 701L651 701L603 764L572 726L371 726L405 694Q424 696 447.50 698.50Q471 701 497 701L497 701L493 701L493 584L351 584L383 546L411 559L411 128Q397 120 377.50 113Q358 106 333 99L333 99L380 39Q397 66 562 140L562 140Q562 83 560.50 35.50Q559-12 559-57L559-57L616-34Q613-8 613 39L613 39Q613 86 613 159ZM462 448L462 563L562 563L562 448L462 448ZM462 311L462 424L562 424L562 311L462 311ZM462 144L462 285L562 285L562 178L462 144ZM811 758L732 802Q722 729 714.50 667Q707 605 695 556L695 556Q685 502 669 447Q653 392 635 329L635 329L644 323Q686 397 698 433L698 433Q718 282 761 152L761 152Q744 119 725 87Q706 55 682 26L682 26Q641-24 578-72L578-72L585-82Q617-63 644.50-43Q672-23 695-3L695-3Q721 17 743 43Q765 69 789 103L789 103Q804 71 817.50 48Q831 25 843 5L843 5Q851-10 865-24.50Q879-39 890-54L890-54Q916-19 953-19L953-19L953-3Q921 5 884 52L884 52Q838 92 814 156L814 156Q838 222 854 322Q870 422 878 565L878 565L960 565L903 628L858 587L742 587Q754 632 763 669Q772 706 780 735L780 735L811 758ZM739 563L739 563L830 563Q828 460 817 373Q806 286 786 213L786 213Q735 333 711 471L711 471Q717 499 725 522Q733 545 739 563Z"/></svg>