<svg id="U25DC4" viewBox="0 0 1024 1024"><path transform="translate(0, 921.6) scale(1,-1)" d="M569 625L497 660Q477 629 433.50 597Q390 565 320 540L320 540Q185 481 60 458L60 458L63 445Q342 485 521 594L521 594Q597 545 686 511Q775 477 878 458L878 458Q887 502 963 502L963 502L963 515Q816 515 708 546L708 546Q589 579 531 612L531 612L569 625ZM541 311L541 311L789 311L789-6Q789-21 777-21L777-21Q770-21 742-19Q714-17 663-13L663-13L663-28Q748-40 777-88L777-88Q837-72 837-9L837-9L837 298L865 319L805 360L786 335L541 335L541 452L789 452L720 509L673 477L225 477L263 445Q304 455 377 455L377 455Q291 393 86 332L86 332L89 319Q186 343 260.50 363.50Q335 384 389 408L389 408L430 404L395 452L490 452L490 335L238 335L181 348Q183 319 183.50 267.50Q184 216 184 140L184 140Q184 65 183.50 10Q183-45 181-88L181-88L235-69L235 311L490 311Q490 167 489.50 73Q489-21 487-72L487-72L544-41Q541-6 541 80L541 80Q541 167 541 311ZM606 442L606 442L603 430Q696 401 757.50 380.50Q819 360 852 342L852 342Q908 308 919 326L919 326Q925 345 906 367L906 367Q889 388 808 408L808 408Q770 414 719.50 423.50Q669 433 606 442ZM399 213L428 237L471 244L411 294Q402 277 391 261Q380 245 361 231L361 231Q342 240 322.50 250Q303 260 279 270L279 270L276 257Q302 242 319.50 230Q337 218 351 209L351 209Q328 186 305.50 166.50Q283 147 257 134L257 134L261 121Q331 153 380 190L380 190Q393 179 405 166Q417 153 428 137L428 137Q445 107 456 137L456 137Q460 168 440 181L440 181Q435 187 425 195Q415 203 399 213L399 213ZM371 74L371 74Q333 83 309 91.50Q285 100 273 103L273 103L269 93Q331 63 351 49L351 49Q320 20 296 1.50Q272-17 254-31L254-31L261-37Q319-12 377 30L377 30Q390 16 404 3Q418-10 428-21L428-21Q433-33 441-32.50Q449-32 452-19L452-19Q456 3 436 21L436 21Q427 27 415.50 35Q404 43 395 49L395 49L433 77L465 80L408 124Q398 107 390.50 95Q383 83 371 74ZM691 226L729 254L761 257L717 301Q697 283 686 268Q675 253 663 241L663 241Q651 247 630 255.50Q609 264 582 278L582 278L575 270Q587 262 606.50 250Q626 238 647 222L647 222Q631 205 605.50 188Q580 171 550 152L550 152L554 140Q626 165 673 203L673 203Q693 193 708 180.50Q723 168 736 156L736 156Q742 142 750 142L750 142Q758 142 761 156L761 156Q771 186 745 200L745 200Q729 208 715.50 214.50Q702 221 691 226L691 226ZM691 74L729 99L755 99L704 144Q689 124 678.50 110Q668 96 663 87L663 87Q635 101 613 111.50Q591 122 582 128L582 128L575 118Q589 106 607.50 94Q626 82 647 67L647 67Q629 51 603.50 32.50Q578 14 550-6L550-6L556-16Q631 15 670 49L670 49Q715 18 726 0L726 0Q743-20 758-6L758-6Q766 8 755 26L755 26Q748 34 732 46Q716 58 691 74L691 74ZM295 764L333 773L254 814Q239 776 220.50 744.50Q202 713 181 685L181 685Q161 656 138 630Q115 604 89 581L89 581L101 571Q175 615 241 691L241 691L314 691Q355 647 367 612L367 612Q378 571 399 594L399 594Q426 615 418 638L418 638Q412 660 343 691L343 691L547 691L487 758L452 720L257 720L295 764ZM673 764L711 773L632 814Q627 795 616 775.50Q605 756 594 735L594 735Q579 712 555.50 679Q532 646 497 606L497 606L510 600Q539 620 567.50 645Q596 670 619 691L619 691L682 691Q724 653 739 622L739 622Q755 585 767 591L767 591Q783 591 789 612L789 612Q796 628 780 656L780 656Q755 675 711 691L711 691L937 691L881 754L840 720L632 720L673 764Z"/></svg>