<svg id="U25642" viewBox="0 0 1024 1024"><path transform="translate(0, 921.6) scale(1,-1)" d="M210 802L197 792Q249 728 257 679L257 679Q272 629 298 660L298 660Q326 691 310 723L310 723Q288 762 210 802L210 802ZM235-75L235-75L295-54Q292-16 292 92L292 92Q292 200 292 389L292 389Q320 362 339 337Q358 312 371 288L371 288Q398 229 415 272L415 272Q433 305 415 339L415 339Q401 363 292 411L292 411Q317 448 340 484.50Q363 521 389 563L389 563L428 578L361 641L330 597L73 597L104 563Q121 564 138.50 566Q156 568 176 568L176 568L326 568Q303 523 274 474.50Q245 426 210 373L210 373Q175 322 140 278Q105 234 63 197L63 197L73 185Q165 244 238 339L238 339Q238 205 237.50 102.50Q237 0 235-75ZM878 713L878 713L830 786Q765 734 528 697L528 697L471 729Q471 698 474 667.50Q477 637 477 606L477 606L477-3L336-3L371-37Q402-31 443-31L443-31L960-31L899 46L852-3L783-3L783 398L928 398L871 474L830 427L528 427L528 679Q658 696 745 704.50Q832 713 878 713ZM528-3L528 398L732 398L732-3L528-3Z"/></svg>