<svg id="U25AE1" viewBox="0 0 1024 1024"><path transform="translate(0, 921.6) scale(1,-1)" d="M336 770L336 770L254 808Q233 717 197 650L197 650Q176 608 150.50 571Q125 534 89 502L89 502L96 489Q198 563 254 644L254 644L282 644Q301 627 318 611Q335 595 343 581L343 581Q357 561 365 546.50Q373 532 377 524L377 524Q390 502 405 524L405 524Q425 550 421 565L421 565Q415 588 395 600L395 600Q384 608 363 618.50Q342 629 314 644L314 644L537 644L471 717L421 672L261 672Q278 707 298.50 732.50Q319 758 336 770ZM708 761L708 761L632 808Q627 779 616 745.50Q605 712 588 672L588 672Q545 588 477 518L477 518L487 509Q553 548 632 644L632 644L670 644Q746 580 780 537L780 537Q805 496 818 509L818 509Q824 521 830 553L830 553Q830 575 805 597L805 597Q788 605 762 616.50Q736 628 701 644L701 644L934 644L862 720L811 672L638 672Q679 752 708 761ZM691 468L197 468L225 439Q256 446 302 442L302 442L805 442L745 518L691 468ZM266 206L266 206L317 165L343 188L745 188Q697 33 663 11L663 11Q625-15 452 30L452 30L449 14Q585-35 585-82L585-82Q630-76 685-47L685-47Q706-32 734.50 20Q763 72 799 172L799 172L837 190L770 247L742 213L343 213L387 313L928 313L865 389L808 342L96 342L131 304Q162 313 228 313L228 313L326 313Q292 220 266 206Z"/></svg>