<svg id="U25EF6" viewBox="0 0 1024 1024"><path transform="translate(0, 921.6) scale(1,-1)" d="M101 709L101 709L89 702Q126 630 138 558L138 558Q145 487 176 529L176 529Q205 573 179 617L179 617Q167 636 147.50 660.50Q128 685 101 709ZM232 469L232 469L67 469L96 440Q118 449 156 444L156 444L220 444Q183 274 63 98L63 98L76 91Q170 191 232 324L232 324Q232 197 231.50 99Q231 1 228-77L228-77L285-52Q280-17 279.50 9.50Q279 36 279 63L279 63L279 353Q307 319 327.50 289.50Q348 260 358 229L358 229Q385 174 399 221L399 221Q412 270 387 299L387 299Q372 317 344.50 335.50Q317 354 279 375L279 375L279 444L433 444L377 522L339 469L279 469L279 737L314 771L228 803Q231 743 231.50 662Q232 581 232 469ZM405 655L433 668L371 718Q341 589 295 514L295 514L302 507Q329 535 355.50 571Q382 607 405 655L405 655ZM834 579L834 579L695 579L695 740L717 762L641 794Q641 765 642.50 741.50Q644 718 644 699L644 699L644 579L513 579L513 684L534 702L469 740Q469 711 470 675.50Q471 640 471 589L471 589L449 570L490 532L518 551L834 551L834 526L881 551Q878 567 878 601L878 601Q878 635 878 681L878 681L909 702L830 740Q830 714 832 675Q834 636 834 579ZM840 469L436 469L469 440Q485 444 525 444L525 444L940 444L884 526L840 469ZM480 151L480 151L528 170L528 188L818 188L818 151L865 173Q862 193 862 235L862 235Q862 277 862 340L862 340L890 365L837 406L811 372L531 372L480 403Q483 365 483.50 333Q484 301 484 271L484 271Q484 242 483.50 212Q483 182 480 151ZM528 214L528 347L818 347L818 214L528 214ZM717-5L717-5L387-5L418-39Q431-34 447.50-32Q464-30 487-33L487-33L960-33L903 41L852-5L739-5Q807 94 843 113L843 113L777 160Q767 125 752 83Q737 41 717-5ZM544 157L544 157L531 151Q552 109 565.50 80Q579 51 585 25L585 25Q600-6 619 10L619 10Q633 46 629 72L629 72Q618 104 544 157Z"/></svg>