<svg id="U25C71" viewBox="0 0 1024 1024"><path transform="translate(0, 921.6) scale(1,-1)" d="M338 477L338 477Q325 505 243 563L243 563L233 553Q285 464 290 427L290 427Q296 376 328 414L328 414Q357 443 338 477ZM441 433L403 393L106 393L136 357Q162 359 184.50 363Q207 367 233 367L233 367L505 367L441 433ZM180 339L164 339Q218 159 218 108L218 108Q218 51 253 77L253 77Q281 102 268 159L268 159Q259 189 238.50 232.50Q218 276 180 339L180 339ZM305 30L305 30Q166 2 97 0L97 0L139-69Q163-35 470 49L470 49L467 64L328 36Q345 84 366.50 148Q388 212 413 294L413 294L448 316L356 360Q353 272 340 190.50Q327 109 305 30ZM501-88L501-88L557-62L557 0L798 0L798-75L850-50Q846-10 845.50 17Q845 44 845 62L845 62L845 226L883 254L816 304L788 263L687 263L687 393L930 393L870 465L822 417L687 417L687 489L724 518L631 568Q631 545 634 469.50Q637 394 637 263L637 263L557 263L501 294Q501 256 503 210.50Q505 165 505 108L505 108Q505 54 503 4.50Q501-45 501-88ZM557 23L557 237L798 237L798 23L557 23ZM294 745L335 761L253 814Q239 766 219.50 722.50Q200 679 177 641L177 641Q158 602 136 565Q114 528 88 493L88 493L100 486Q134 517 170.50 559Q207 601 240 650L240 650L287 650Q347 593 369 546L369 546Q384 497 403 527L403 527Q426 556 416 574L416 574Q410 603 315 650L315 650L549 650L492 723L448 679L256 679L294 745ZM680 751L716 764L639 814Q630 790 621.50 761.50Q613 733 598 701L598 701Q587 665 563.50 623Q540 581 508 527L508 527L523 515Q552 550 576 583.50Q600 617 624 650L624 650L683 650Q755 584 765 556L765 556Q779 527 798 527L798 527Q811 527 822 553L822 553Q828 578 806 600L806 600Q797 606 773 619.50Q749 633 709 650L709 650L935 650L876 726L832 679L639 679L680 751Z"/></svg>