<svg id="U25F0B" viewBox="0 0 1024 1024"><path transform="translate(0, 921.6) scale(1,-1)" d="M380 568L380 591L565 591L513 647L474 615L380 615L380 685L518 685L471 748L433 710L380 710L380 751L405 782L326 811Q331 789 332 763.50Q333 738 333 710L333 710L156 710L191 672L207 685L333 685L333 615L122 615L153 581Q193 591 225 591L225 591L295 591Q263 537 219.50 489Q176 441 119 398L119 398L125 386Q258 459 333 556L333 556Q333 505 332 468Q331 431 326 404L326 404L383 427Q380 455 380 484L380 484Q380 514 380 550L380 550Q449 505 462 474L462 474Q484 433 503 465L503 465Q521 492 500 515L500 515Q490 526 459 537.50Q428 549 380 568L380 568ZM701 764L729 773L654 811Q619 687 534 587L534 587L541 578Q576 604 600.50 629Q625 654 644 676L644 676L773 676Q765 652 753.50 626.50Q742 601 726 574L726 574Q693 586 665 597.50Q637 609 613 619L613 619L606 606Q630 592 655 577.50Q680 563 704 550L704 550Q619 452 500 408L500 408L503 393Q647 432 742 521L742 521Q805 480 843 442L843 442Q877 402 887 445L887 445Q891 483 868 509L868 509Q856 515 832 528.50Q808 542 770 559L770 559Q798 602 830 676L830 676L928 676L878 741L837 704L657 704Q664 710 672.50 725Q681 740 701 764L701 764ZM263 398L204 433Q213 207 184 105L184 105Q163 10 76-78L76-78L89-85Q209 13 235 103L235 103Q267 194 263 373L263 373L947 373L896 427L858 398L263 398ZM603 77L603 77L603 159L619 159Q638 123 665.50 93.50Q693 64 726 36L726 36Q760 10 795.50-9Q831-28 868-41L868-41Q884-8 937-3L937-3L937 11Q831 29 755 67L755 67Q686 105 638 159L638 159L925 159L871 226L824 185L603 185L603 307L626 329L550 360Q550 332 552 315Q554 298 554 291L554 291L554 185L263 185L298 149Q314 151 331.50 155Q349 159 371 159L371 159L513 159Q472 100 392 42L392 42Q350 14 313-7.50Q276-29 241-44L241-44L245-60Q302-42 348.50-20Q395 2 440 30L440 30Q482 60 509 84.50Q536 109 554 131L554 131L554 77Q554 23 552-16.50Q550-56 550-85L550-85L606-65Q603-35 603 0L603 0Q603 35 603 77ZM371 335L358 326Q399 274 418 229L418 229Q435 178 459 213L459 213Q479 251 452 278L452 278Q437 287 416.50 301.50Q396 316 371 335L371 335ZM818 288L752 342Q739 289 657 203L657 203L667 193Q692 212 713 228.50Q734 245 752 257L752 257Q775 277 818 288L818 288Z"/></svg>