<svg id="U25CCE" viewBox="0 0 1024 1024"><path transform="translate(0, 921.6) scale(1,-1)" d="M457 368L457 368L454 381L322 355L322 504L467 504L410 561L369 529L116 529L145 491Q162 496 182 498.50Q202 501 221 504L221 504L274 504L274 347Q208 321 88 312L88 312L136 249L151 271Q256 299 331 324.50Q406 350 457 368ZM942 315L942 315Q904 320 904 350L904 350Q901 363 901 387L901 387Q901 411 901 444L901 444L883 444Q879 402 877 375Q875 348 873 334L873 334Q860 306 832 306L832 306L819 306Q769 291 769 362L769 362L769 510L801 529L744 583L716 545L464 545L489 517L517 522L567 522Q567 420 517 368L517 368Q496 340 463 317Q430 294 388 271L388 271L394 255Q454 278 497.50 302.50Q541 327 567 355L567 355Q614 407 614 522L614 522L721 522L721 318Q721 265 769 265L769 265L873 265Q913 270 942 315ZM505 453L505 453L495 444Q522 424 540.50 410Q559 396 570 388L570 388Q598 361 621 331L621 331Q628 316 635.50 310.50Q643 305 646 303L646 303Q657 303 662 312L662 312Q668 326 665 347L665 347Q665 357 649 385L649 385Q627 403 505 453ZM678 63L678 63L668 54Q696 39 724.50 24.50Q753 10 781-4L781-4L533-14L533 72L765 72L765 51L819 69Q816 90 816 116L816 116Q816 143 816 177L816 177L845 195L781 239L760 214L533 214L533 246L564 265L476 293Q485 255 485 214L485 214L249 214L186 236Q190 210 191 185Q192 160 192 132L192 132Q192 104 191 81Q190 58 186 41L186 41L243 57L243 72L485 72L485-14Q333-16 238-18Q143-20 103-20L103-20L133-83Q184-66 426-52L426-52Q547-42 642-33.50Q737-25 804-23L804-23Q820-37 834-51Q848-65 860-77L860-77Q887-97 898-62L898-62Q907-23 879-4L879-4Q862 3 811 21Q760 39 678 63ZM243 98L243 189L485 189L485 98L243 98ZM533 98L533 189L765 189L765 98L533 98ZM284 756L322 762L240 810Q225 768 208.50 731.50Q192 695 174 668L174 668Q152 642 130.50 610.50Q109 579 81 551L81 551L91 545Q171 597 233 677L233 677L303 677Q323 653 337 632.50Q351 612 356 589L356 589Q369 545 391 567L391 567Q414 590 410 617L410 617Q404 645 335 677L335 677L536 677L476 743L444 702L249 702L284 756ZM659 756L696 762L614 810Q609 788 599 767.50Q589 747 580 722L580 722Q565 695 539.50 661.50Q514 628 482 583L482 583L492 576Q522 600 550 625Q578 650 602 677L602 677L665 677Q714 627 721 599L721 599Q732 561 750 567L750 567Q765 567 775 595L775 595Q779 614 763 636L763 636Q753 643 736.50 654Q720 665 696 677L696 677L920 677L863 740L822 702L614 702L659 756Z"/></svg>