<svg id="U25045" viewBox="0 0 1024 1024"><path transform="translate(0, 921.6) scale(1,-1)" d="M518 732L433 782Q424 747 413.50 715.50Q403 684 389 653L389 653L119 653L156 615Q173 618 189.50 620.50Q206 623 225 628L225 628L374 628Q345 563 282 480L282 480Q348 469 396 458Q444 447 477 433L477 433Q416 390 325.50 355.50Q235 321 114 301L114 301L114 285Q339 290 541 414L541 414Q628 385 684.50 357.50Q741 330 767 304L767 304Q818 253 818 311L818 311Q818 364 761 396L761 396Q698 427 588 458L588 458Q649 523 695 628L695 628L928 628L858 710L802 653L708 653L739 672L663 717Q658 697 652.50 680.50Q647 664 641 653L641 653L449 653L480 717L518 732ZM436 628L436 628L632 628Q604 573 578 534Q552 495 528 471L528 471Q471 479 429 488.50Q387 498 361 506L361 506Q377 529 396 557.50Q415 586 436 628ZM616-21L616 244L742 244L742-21L616-21ZM207 185L207-21L70-21L104-57Q133-47 176-47L176-47L953-47L884 23L827-21L793-21L793 229L827 257L770 304L739 270L261 270L204 301Q206 268 206.50 236.50Q207 205 207 185L207 185ZM261-21L261 244L389 244L389-21L261-21ZM436-21L436 244L569 244L569-21L436-21Z"/></svg>