<svg id="U25C89" viewBox="0 0 1024 1024"><path transform="translate(0, 921.6) scale(1,-1)" d="M703 324L703 324L552 324Q495 324 489 350L489 350L489 365L791 384L731 440L703 403L489 388L489 425L523 440L454 463L839 463L794 388L809 384Q882 454 932 463L932 463L870 520L847 491L505 491L505 545L804 545L744 599L716 573L505 573L505 595L526 614L451 646Q451 624 452.50 584.50Q454 545 454 491L454 491L236 491L174 522Q176 477 176.50 441Q177 405 177 375L177 375Q177 342 176.50 310Q176 278 174 245L174 245Q171 215 164.50 178.50Q158 142 151 104L151 104Q141 62 122.50 21Q104-20 78-62L78-62L94-64Q216 67 227 283L227 283L227 463L441 463L441 384L253 368L290 337L312 350L441 362L441 337Q445 282 517 286L517 286L740 286Q781 286 781 306L781 306Q787 325 760 331L760 331Q737 344 703 324ZM391-8L391-8L391-23Q514-43 523-90L523-90Q601-61 605-1L605-1L605 75L935 75L876 142L832 104L719 104Q752 123 785 151L785 151L835 164L769 208Q741 154 687 104L687 104L605 104L605 208Q645 208 687.50 210.50Q730 213 775 221L775 221L839 211L785 268Q749 256 690 249Q631 242 549 233L549 233Q468 228 407.50 224.50Q347 221 305 221L305 221L305 205Q357 202 420.50 201.50Q484 201 557 201L557 201L557 104L233 104L268 69Q294 69 311.50 70.50Q329 72 344 75L344 75L557 75L557 0Q557-21 517-17L517-17Q493-12 461.50-11Q430-10 391-8ZM366 192L362 183Q415 146 429 113L429 113Q441 78 467 110L467 110Q488 136 461 160L461 160Q442 169 418.50 177Q395 185 366 192L366 192ZM303 759L338 771L259 810Q246 775 229 743Q212 711 192 681L192 681Q174 654 152.50 626Q131 598 106 570L106 570L120 563Q150 587 184 617Q218 647 249 689L249 689L318 689Q364 642 372 611L372 611Q385 567 407 589L407 589Q430 608 426 633L426 633Q420 658 350 689L350 689L552 689L492 753L461 715L265 715L303 759ZM680 769L716 774L639 815Q635 801 625.50 781.50Q616 762 602 737L602 737Q590 713 571 677Q552 641 523 599L523 599L539 595Q559 618 581.50 642Q604 666 624 692L624 692L687 692Q730 657 744 620L744 620Q762 588 775 592L775 592Q792 592 798 614L798 614Q801 636 785 655L785 655Q777 664 760.50 672.50Q744 681 719 692L719 692L945 692L888 753L847 718L639 718L680 769Z"/></svg>