<svg id="U25BF9" viewBox="0 0 1024 1024"><path transform="translate(0, 921.6) scale(1,-1)" d="M312 756L346 762L274 813Q260 771 240.50 737Q221 703 196 668L196 668Q175 634 149 605.50Q123 577 97 551L97 551L103 542Q195 595 246 664L246 664L290 664Q350 610 366 579L366 579Q376 536 394 561L394 561Q420 569 420 592L420 592Q420 613 394 630L394 630Q385 637 365.50 644.50Q346 652 322 664L322 664L530 664L470 733L431 689L265 689L312 756ZM678 759L712 774L634 815Q617 762 577 696L577 696Q555 660 530 628Q505 596 470 563L470 563L479 551Q553 601 605 661L605 661L675 661Q702 642 720 622Q738 602 750 586L750 586Q765 543 781 555L781 555Q796 562 804 583L804 583Q809 601 791 623L791 623Q770 639 703 661L703 661L917 661L850 728L804 687L624 687L678 759ZM470 350L331 327L331 488L470 488L410 551L372 514L117 514L155 476L196 488L284 488L284 318Q239 309 196.50 302Q154 295 112 293L112 293L148 229Q161 247 253 274L253 274Q295 288 350.50 302.50Q406 317 472 337L472 337L470 350ZM769 312L769 312L769 501L804 514L744 566L716 532L464 532L505 491Q524 504 574 504L574 504Q574 501 573 483.50Q572 466 567 438L567 438Q565 406 557 377.50Q549 349 536 324L536 324Q516 295 491.50 267Q467 239 429 211L429 211L438 198Q522 242 574 309L574 309Q620 373 624 507L624 507L719 507L719 299Q719 233 772 233L772 233L850 233Q899 226 935 277L935 277Q906 289 898 312L898 312Q891 326 891 406L891 406L876 406Q873 385 871 364.50Q869 344 866 318L866 318Q855 274 835 274L835 274L816 274Q774 274 769 312ZM485 447L485 447L482 432Q594 371 627 318L627 318Q661 273 678 306L678 306Q686 340 662 368L662 368Q635 395 485 447ZM325 151L325 151L75 151L103 119Q129 128 177 123L177 123L315 123Q306 11 78-77L78-77L84-90Q346-18 369 123L369 123L624 123Q624 75 622.50 22.50Q621-30 621-90L621-90L678-62Q675-14 675 30L675 30Q675 75 675 123L675 123L948 123L888 198L835 151L675 151L675 208L706 229L621 258Q621 223 622.50 195Q624 167 624 151L624 151L372 151L375 211L403 233L325 258Q330 199 325 151Z"/></svg>