<svg id="U25344" viewBox="0 0 1024 1024"><path transform="translate(0, 921.6) scale(1,-1)" d="M186 471L186 546L416 546L416 471L186 471ZM467 559L467 559L467 713L489 735L448 782L416 751L186 751L136 782Q138 756 138.50 711Q139 666 139 597L139 597Q139 530 138.50 481.50Q138 433 136 404L136 404L186 420L186 442L416 442L416 417L470 437Q467 462 467 492L467 492Q467 523 467 559ZM186 666L186 726L416 726L416 666L186 666ZM186 571L186 638L416 638L416 571L186 571ZM472 360L472 360L498 380L441 420Q424 348 362 263L362 263L375 257Q413 292 437 318Q461 344 472 360ZM359 404L284 437Q288 412 289 397.50Q290 383 290 376L290 376L290 237L78 237L112 200L155 209L218 209Q218 142 186 67L186 67Q157 0 65-69L65-69L78-82Q208-2 236 64L236 64Q271 139 271 209L271 209L341 209L341 23Q341-50 426-50L426-50L854-50Q927-56 958-16L958-16Q948-8 942.50-0.50Q937 7 932 14L932 14Q924 32 924 93L924 93L914 93Q908 71 905.50 51Q903 31 901 18L901 18Q896-6 847-6L847-6L451-6Q391-2 391 30L391 30L391 209L536 209L492 275L454 237L335 237L335 380L359 404ZM142 401L142 401L130 396Q181 321 186 298L186 298Q200 263 221 288L221 288Q246 313 227 339L227 339Q214 360 142 401ZM564 707L564 741L545 745Q526 679 498 656L498 656Q467 636 492 619L492 619Q518 605 533 625L533 625Q545 632 550.50 646Q556 660 564 682L564 682L876 682L847 632L860 628Q905 668 958 688L958 688L904 741L883 707L564 707ZM659 808L659 808L646 795Q667 776 680 754L680 754Q690 741 696.50 731Q703 721 706 713L706 713Q714 687 731 723L731 723Q752 743 737 767L737 767Q729 776 659 808ZM763 591L763 591L485 591L517 556Q538 563 563.50 564Q589 565 624 565L624 565L763 565L763 448Q763 424 740 424L740 424Q731 424 706 425Q681 426 649 433L649 433L649 420Q735 406 747 367L747 367Q809 387 809 430L809 430L809 565L945 565L895 625L854 591L809 591L809 615L845 638L760 666Q760 648 761.50 628Q763 608 763 591ZM564 559L564 559L555 553Q559 549 567 539Q575 529 586 512L586 512Q593 497 599 485Q605 473 608 461L608 461Q608 438 634 458L634 458Q657 478 646 502L646 502Q623 529 564 559ZM596 90L596 162L839 162L839 90L596 90ZM886 178L886 178L886 335L907 354L863 396L839 367L602 367L549 398Q549 372 550.50 327Q552 282 552 219L552 219Q552 152 550.50 104Q549 56 549 23L549 23L596 36L596 64L839 64L839 33L891 55Q887 78 886.50 109Q886 140 886 178ZM596 282L596 342L839 342L839 282L596 282ZM596 188L596 257L839 257L839 188L596 188Z"/></svg>