<svg id="U252E4" viewBox="0 0 1024 1024"><path transform="translate(0, 921.6) scale(1,-1)" d="M261 787L261 787L251 774Q289 743 311 716Q333 689 343 671L343 671Q361 623 381 658L381 658Q402 689 384 718L384 718Q370 736 261 787ZM150 636L147 671L132 671Q109 576 77 545L77 545Q46 508 86 504L86 504Q120 492 135 526L135 526Q154 550 150 611L150 611L865 611L821 535L831 526Q922 614 960 614L960 614L900 677L859 636L538 636L538 756L562 774L484 810Q484 786 487 741.50Q490 697 490 636L490 636L150 636ZM790 740L726 794Q713 767 688.50 732Q664 697 629 652L629 652L638 640Q743 726 790 740L790 740ZM317 494L317 548L695 548L695 494L317 494ZM266 447L266 447L317 460L317 466L695 466L695 450L746 469Q743 487 742.50 505Q742 523 742 545L742 545L767 563L714 599L689 576L323 576L266 595Q269 573 269.50 556.50Q270 540 270 526L270 526Q270 509 269.50 490Q269 471 266 447ZM307 255L307 303L692 303L692 255L307 255ZM736 378L736 378L957 378L903 447L859 403L736 403L736 409L758 428L689 450Q689 433 690.50 420Q692 407 692 403L692 403L307 403L307 409L346 428L261 447Q262 439 262.50 428Q263 417 263 403L263 403L64 403L98 368Q117 371 136 374.50Q155 378 179 378L179 378L263 378Q263 312 263 270L263 270Q263 229 261 208L261 208L307 218L307 229L692 229L692 211L742 224Q737 244 736.50 283.50Q736 323 736 378ZM307 327L307 378L692 378L692 327L307 327ZM283-20L283 13L714 13L714-20L283-20ZM755 136L755 136L783 160L730 198L705 177L299 177L238 195Q241 166 241.50 132.50Q242 99 242 51L242 51Q242 6 241.50-27.50Q241-61 238-80L238-80L283-64L283-45L714-45L714-83L758-62Q755-27 755 21L755 21Q755 70 755 136ZM283 113L283 151L714 151L714 113L283 113ZM283 38L283 88L714 88L714 38L283 38Z"/></svg>