<svg id="U25323" viewBox="0 0 1024 1024"><path transform="translate(0, 921.6) scale(1,-1)" d="M292 181L292 672L316 694L272 741L241 710L128 710L83 735Q86 704 86 673L86 673Q86 642 86 609L86 609L86 103Q86 85 86 57L86 57Q86 29 83-6L83-6L128 14L128 74L244 74L244 8L295 30Q292 60 292 99L292 99Q292 138 292 181L292 181ZM128 509L128 685L244 685L244 509L128 509ZM128 307L128 480L244 480L244 307L128 307ZM128 103L128 282L244 282L244 103L128 103ZM398 571L398 669L544 669L544 571L398 571ZM398 442L398 546L544 546L544 442L398 442ZM496 52L496 52L496 36Q529 26 534 14L534 14Q542 9 553-21L553-21Q583-4 588 8L588 8Q600 27 600 62L600 62L600 266L622 288L585 335L562 304L490 304L490 417L544 417L544 393L588 414Q585 442 585 466L585 466Q585 491 585 515L585 515L585 656L606 682L572 723L547 694L436 694Q480 759 500 773L500 773L449 811Q447 784 439.50 755Q432 726 421 694L421 694L398 694L357 723L357 540L357 380L398 398L398 417L449 417L449 304L380 304L339 332Q341 289 341.50 243.50Q342 198 342 146L342 146Q342 98 341.50 54.50Q341 11 339-25L339-25L380-6L380 278L449 278L449 74Q449 43 447.50 3Q446-37 446-85L446-85L493-62Q490-46 490-1L490-1Q490 43 490 124L490 124L490 278L556 278L556 70Q556 53 550 46L550 46Q545 41 496 52ZM625 710L625 710L625 691Q653 693 681.50 699Q710 705 739 710L739 710Q731 681 721.50 647.50Q712 614 691 574L691 574Q658 493 625 509L625 509L654 442Q682 456 710.50 466Q739 476 770 483L770 483Q670 321 635 326L635 326L673 247Q691 259 711 269Q731 279 758 285L758 285L758 33Q758-9 732-9L732-9Q722-6 705.50-3.50Q689-1 666 2L666 2L663-21Q739-27 748-82L748-82Q802-63 802-3L802-3L802 298L874 326Q876 312 879 297Q882 282 884 266L884 266Q888 241 915 278L915 278Q933 305 912 348L912 348Q897 368 876 390.50Q855 413 827 439L827 439L820 430Q836 402 847 382Q858 362 865 348L865 348L682 313Q720 351 767 410Q814 469 865 553L865 553L899 559L837 619Q808 546 783 512L783 512L682 502Q737 580 783 669L783 669L805 682L752 710Q800 719 838.50 724Q877 729 912 732L912 732L868 798Q804 748 625 710ZM833 209L824 203Q882 75 896 26L896 26Q905-36 930 5L930 5Q947 39 934 80L934 80Q923 97 898 129Q873 161 833 209L833 209ZM588-21L588-21L594-28Q658 29 711 149L711 149L739 178L682 219Q658 135 633 76Q608 17 588-21Z"/></svg>