<svg id="U257FF" viewBox="0 0 1024 1024"><path transform="translate(0, 921.6) scale(1,-1)" d="M683 331L712 344L675 372L721 406Q719 422 719 444L719 444Q719 467 719 488L719 488L719 579L724 579Q747 514 785 466L785 466Q803 444 828 419.50Q853 395 888 368L888 368Q911 406 952 406L952 406L952 422Q921 426 892 443Q863 460 835 481L835 481Q806 505 781.50 528Q757 551 740 579L740 579L952 579L891 648L842 604L719 604L719 715Q739 717 761.50 720Q784 723 804 728L804 728Q824 729 844.50 731Q865 733 888 733L888 733L835 803Q806 784 775 773Q744 762 706 753L706 753Q668 743 613.50 735Q559 727 489 718L489 718L489 705Q561 708 606 710.50Q651 713 668 715L668 715L668 604L451 604L485 573Q502 575 519.50 577Q537 579 557 579L557 579L618 579Q607 551 587.50 522.50Q568 494 542 463L542 463Q486 392 435 362L435 362L444 350Q486 373 521 395.50Q556 418 583 447L583 447Q611 476 631 503.50Q651 531 668 561L668 561L668 378L646 396Q635 361 624.50 328.50Q614 296 602 268L602 268L464 268L498 233Q531 242 567 242L567 242L596 242Q576 211 559 178.50Q542 146 523 116L523 116Q574 102 613 91.50Q652 81 680 69L680 69Q573-24 394-62L394-62L394-80Q613-51 731 47L731 47Q827 0 863-42L863-42Q910-89 920-62L920-62Q930-37 917-8L917-8Q912 5 899 13.50Q886 22 870 34L870 34Q852 43 820.50 54Q789 65 747 85L747 85Q776 114 799.50 153.50Q823 193 842 242L842 242L958 242L898 306L854 268L646 268Q655 281 663.50 297Q672 313 683 331L683 331ZM580 132L580 132Q596 162 612 190.50Q628 219 639 242L639 242L785 242Q767 200 748 164Q729 128 706 98L706 98Q688 104 656.50 112Q625 120 580 132ZM325 769L325 769L256 810Q226 728 189 674L189 674Q168 645 143.50 615Q119 585 88 558L88 558L100 542Q124 558 144 578Q164 598 183 617L183 617Q209 575 215 535L215 535Q220 493 240 507L240 507Q259 520 259 538L259 538Q263 550 260 558.50Q257 567 253 579L253 579Q239 601 199 633L199 633L233 668L372 668Q336 570 259 488L259 488Q188 417 100 368L100 368L106 350Q244 401 309 481L309 481Q376 557 429 655L429 655L461 671L407 730L375 692L249 692Q289 749 325 769ZM199 245L199 245Q232 195 246 154L246 154Q256 114 271 123L271 123Q288 131 294 151L294 151Q298 171 290 192L290 192Q285 204 265 220.50Q245 237 215 262L215 262L256 306L403 306Q341 76 65-67L65-67L68-83Q210-34 309 60L309 60Q357 109 393.50 166Q430 223 454 290L454 290L485 321L426 365L400 331L274 331Q323 398 350 406L350 406L287 447Q265 402 244.50 365.50Q224 329 199 299L199 299Q149 226 94 186L94 186L103 170Q137 189 199 245Z"/></svg>