<svg id="U2560F" viewBox="0 0 1024 1024"><path transform="translate(0, 921.6) scale(1,-1)" d="M216 805L204 795Q254 732 263 682L263 682Q280 629 307 663L307 663Q337 691 317 726L317 726Q303 758 216 805L216 805ZM241-78L241-78L302-57Q299-20 298.50 90.50Q298 201 298 393L298 393Q357 347 377 291L377 291Q405 239 424 275L424 275Q437 308 424 345L424 345Q404 376 298 414L298 414Q324 454 348 493.50Q372 533 395 571L395 571L433 587L367 647L336 606L76 606L108 571Q138 581 179 581L179 581L333 581Q287 481 216 376L216 376Q178 325 142.50 281Q107 237 67 200L67 200L76 185Q119 212 162 253Q205 294 248 348L248 348Q248 209 247 104.50Q246 0 241-78ZM708 62L708 352L956 352L896 427L843 376L708 376L708 676L909 676L846 748L793 701L465 701L497 666Q514 668 533.50 672Q553 676 572 676L572 676L657 676L657 376L418 376L452 345Q469 347 487 349.50Q505 352 528 352L528 352L657 352Q657 175 654 70Q651-35 651-78L651-78L714-50Q709-21 708.50 5.50Q708 32 708 62L708 62Z"/></svg>