<svg id="U25D7C" viewBox="0 0 1024 1024"><path transform="translate(0, 921.6) scale(1,-1)" d="M213 303L953 303L893 372L846 327L544 327L544 535L912 535L846 604L799 561L140 561L179 526Q210 535 261 535L261 535L305 535Q290 494 245 438L245 438Q203 381 163 353L163 353L176 340Q211 356 241 380.50Q271 405 295 432L295 432Q336 486 374 491L374 491L310 535L493 535L493 327L92 327L128 293Q168 303 213 303L213 303ZM320 457L320 457L310 450Q334 427 354.50 405Q375 383 387 362L387 362Q411 316 421 362L421 362Q437 402 415 419L415 419Q403 428 380.50 436Q358 444 320 457ZM764 488L701 529Q679 427 585 347L585 347L591 337Q623 354 652 378Q681 402 711 432L711 432Q761 397 786 353L786 353Q809 309 824 353L824 353Q843 393 814 413L814 413Q795 419 772.50 428.50Q750 438 720 450L720 450Q732 474 764 488L764 488ZM52 142L52 142L57 129Q180 155 274.50 200Q369 245 433 314L433 314L367 318Q274 219 52 142ZM903 145L903 145Q917 181 972 188L972 188L972 201Q745 201 623 314L623 314L594 309Q651 246 727 207Q803 168 903 145ZM343 177L395 177Q317 111 238 67Q159 23 86-5L86-5L92-20Q205 5 295 60L295 60L295 16Q295-6 294.50-32Q294-58 292-86L292-86L348-67L348-26L726-26L726-70L783-62Q780-35 780-10L780-10Q780 15 780 41L780 41L780 75L808 107L739 145L717 113L387 113Q407 127 430 142Q453 157 474 177L474 177L752 177L680 236L644 201L261 201L295 170Q333 170 343 177L343 177ZM348 88L726 88L726-1L348-1L348 88ZM310 759L343 769L269 813Q255 771 235.50 736.50Q216 702 197 674Q178 646 156 616.50Q134 587 108 555L108 555L119 548Q196 599 257 684L257 684L330 684Q368 632 377 592L377 592Q389 549 411 570L411 570Q434 593 430 617L430 617Q426 643 354 684L354 684L554 684L497 749L465 709L273 709L310 759ZM682 766L717 769L641 813Q634 793 624.50 772Q615 751 603 728L603 728Q577 677 510 586L510 586L518 576Q547 603 574 628.50Q601 654 626 684L626 684L688 684Q733 633 742 599L742 599Q757 564 770 570L770 570Q786 570 796 595L796 595Q800 619 783 643L783 643Q773 649 756.50 660.50Q740 672 717 684L717 684L937 684L884 746L843 709L641 709L682 766Z"/></svg>