<svg id="U250A2" viewBox="0 0 1024 1024"><path transform="translate(0, 921.6) scale(1,-1)" d="M606 648L606 648L770 648Q744 543 691 481L691 481Q665 511 645 552.50Q625 594 606 648ZM663 755L663 755L691 781L619 822Q607 753 584 686Q561 619 521 550L521 550L528 541Q544 557 562 578.50Q580 600 597 626L597 626Q604 542 657 444L657 444Q624 398 576 359Q528 320 471 290L471 290L477 274Q611 317 685 406L685 406Q718 371 759 337.50Q800 304 852 277L852 277Q878 312 937 318L937 318L934 333Q804 352 723 444L723 444Q759 489 783.50 538.50Q808 588 830 648L830 648L919 648L852 724L811 676L623 676Q643 710 663 755ZM285 721L285 721L117 721L150 686Q166 688 183 692Q200 696 220 696L220 696L285 696L285 639L150 639L184 604Q201 606 217.50 608.50Q234 611 254 611L254 611L285 611L285 550L60 550L98 519Q115 521 131 523.50Q147 526 169 526L169 526L254 526Q226 384 60 286L60 286L70 274Q233 342 289 453L289 453L424 453Q404 346 383 346L383 346Q368 346 342.50 348.50Q317 351 282 359L282 359L276 346Q364 306 364 270L364 270Q440 306 449 352L449 352Q466 394 471 444L471 444L497 462L446 506L421 481L295 481Q300 490 304 501.50Q308 513 314 526L314 526L525 526L471 585L440 550L336 550L336 611L484 611L440 676L402 639L336 639L336 696L521 696L469 758L424 721L336 721L336 758L361 787L282 822Q284 800 284.50 774.50Q285 749 285 721ZM623-17L623 233L752 233L752-17L623-17ZM207 144L207-17L63-17L98-55Q117-52 135-50Q153-48 172-45L172-45L963-45L899 28L846-17L802-17L802 213L834 239L780 295L752 257L257 257L200 292Q205 254 206 218Q207 182 207 144L207 144ZM257-17L257 233L389 233L389-17L257-17ZM440-17L440 233L575 233L575-17L440-17Z"/></svg>