<svg id="U25EA6" viewBox="0 0 1000 1000"><path transform="translate(0, 900) scale(1,-1)" d="M132 372C115 282 76 165 39 105C51 85 67 54 73 32C120 106 161 249 179 356ZM61 764C80 697 101 607 108 550L166 564C158 622 135 709 115 777ZM348 778C336 713 310 618 288 562L336 546C360 599 387 688 411 759ZM546 283L546-78L617-78L617-22L838-22L838-78L911-78L911 283L747 283L747 424L948 424L948 491L747 491L747 605L674 605L674 283ZM617 46L617 216L838 216L838 46ZM619 825C637 791 655 749 667 714L433 714L433 404C433 267 422 89 316-35C332-44 362-67 374-80C488 52 505 256 505 404L505 643L955 643L955 714L742 714C729 752 705 803 684 841ZM306 373L267 346L267 434L388 434L388 504L267 504L267 840L200 840L200 504L54 504L54 434L200 434L200-79L267-79L267 343C287 301 331 189 346 140L398 191C384 221 323 346 306 373Z"/></svg>