<svg id="U25214" viewBox="0 0 1024 1024"><path transform="translate(0, 921.6) scale(1,-1)" d="M335 173L335 687L363 715L309 766L287 737L137 737L85 762Q90 729 90.50 694Q91 659 91 627L91 627L91 85Q91 67 90.50 39.50Q90 12 85-26L85-26L137-1L137 60L287 60L287 3L341 25Q336 51 335.50 86.50Q335 122 335 173L335 173ZM137 520L137 709L287 709L287 520L137 520ZM137 309L137 491L287 491L287 309L137 309ZM137 85L137 280L287 280L287 85L137 85ZM672 355L697 368L652 406L778 406L778 378L832 406Q829 422 829 445L829 445Q829 469 829 504L829 504L829 602L854 627L807 681L775 646L596 646L546 677Q546 650 547.50 613.50Q549 577 549 532L549 532Q549 484 547.50 442Q546 400 546 365L546 365L596 391L596 406L628 406Q622 377 616.50 353.50Q611 330 602 312L602 312L461 312L495 274Q513 278 533.50 282Q554 286 577 286L577 286L596 286Q584 263 572 239.50Q560 216 549 195L549 195Q589 184 622 170Q655 156 681 145L681 145Q647 111 599 83Q551 55 482 34L482 34L489 10Q619 35 719 119L719 119Q769 85 798 47L798 47Q824 15 836 34L836 34Q849 49 836 85L836 85Q827 119 744 154L744 154Q786 212 810 286L810 286L924 286L867 340L836 312L816 312L819 321L763 340L757 312L646 312L672 355ZM596 532L596 620L778 620L778 532L596 532ZM596 432L596 507L778 507L778 432L596 432ZM599 211L637 286L754 286Q744 253 733.50 225Q723 197 710 177L710 177Q680 183 653.50 192Q627 201 599 211L599 211ZM467 740L410 774Q412 736 412.50 683Q413 630 413 561L413 561L413 22Q408-54 489-58L489-58L914-58Q948-58 933-33L933-33Q904 0 898 0L898 0Q880 5 870-1L870-1Q856-11 810-11L810-11L517-11Q464-6 464 44L464 44L464 715L924 715L867 784L816 740L467 740Z"/></svg>