<svg id="U26779" viewBox="0 0 1024 1024"><path transform="translate(0, 921.6) scale(1,-1)" d="M202 38L202 38L202 22Q300-7 300-58L300-58Q338-44 359-17L359-17Q382 8 382 66L382 66L382 722L403 743L350 787L325 749L192 749L142 781Q144 755 146 682Q148 609 148 488L148 488Q152 242 136 136L136 136Q121 15 78-70L78-70L91-74Q119-29 141 13.50Q163 56 171 101L171 101Q180 146 184.50 192.50Q189 239 192 293L192 293L331 293L331 69Q331 22 303 22L303 22Q288 24 262.50 27Q237 30 202 38ZM192 532L192 725L331 725L331 532L192 532ZM192 318L192 507L331 507L331 318L192 318ZM464 810L464 810L457 800Q479 770 492.50 744.50Q506 719 513 699L513 699Q527 646 552 689L552 689Q568 735 542 759L542 759Q527 768 508 781.50Q489 795 464 810ZM757 0L757 0L757-14Q846-27 854-77L854-77Q916-62 924 10L924 10L924 702L945 725L895 769L870 737L611 737L643 702Q661 704 678.50 706.50Q696 709 716 709L716 709L873 709L873 54Q873 4 854 0L854 0Q839-7 757 0ZM441 529L441 529L441 72Q441 30 440.50-7.50Q440-45 438-83L438-83L492-58L492 611L517 636L438 674Q440 619 440.50 582Q441 545 441 529ZM498 85L498 85L511 82Q574 149 621 242L621 242L649 262L580 296Q571 213 498 85ZM734 283L734 283L728 274Q759 231 778 194Q797 157 806 129L806 129Q821 64 850 129L850 129Q876 194 734 283ZM668 355L498 355L533 321Q549 323 566 327Q583 331 602 331L602 331L668 331L668 88Q659 62 634 66L634 66Q619 68 599.50 73.50Q580 79 552 82L552 82L552 66Q634 46 639 0L639 0Q701 15 712 63L712 63L712 331L873 331L826 394L788 355L712 355L712 419L737 440L662 473Q662 441 665 412.50Q668 384 668 355L668 355ZM700 526L700 526Q735 497 757 474.50Q779 452 791 440L791 440Q812 415 822 457L822 457Q831 497 728 551L728 551Q746 567 765 586.50Q784 606 804 623L804 623L832 633L775 684Q733 601 693 573L693 573Q645 597 607.50 611.50Q570 626 542 636L542 636L539 620Q642 567 668 548L668 548Q616 501 517 440L517 440L520 432Q568 447 612.50 472Q657 497 700 526Z"/></svg>