<svg id="U26DA4" viewBox="0 0 1000 1000"><path transform="translate(0, 900) scale(1,-1)" d="M497 404L497 344L843 344L843 404ZM416 275L416 209L556 209C543 93 505 19 374-24C389-37 409-64 416-82C567-28 612 66 628 209L719 209L719 20C719-46 734-66 799-66C813-66 865-66 879-66C933-66 950-37 957 75C938 80 911 90 897 101C896 8 891-4 871-4C860-4 818-4 809-4C789-4 786-1 786 20L786 209L949 209L949 275ZM530 753L530 686L643 686L643 617L652 617L597 604C607 585 618 562 627 541L405 541L405 368L473 368L473 479L859 479L859 368L929 368L929 541L710 541C700 564 685 593 671 617L717 617L717 686L945 686L945 753L717 753L717 840L643 840L643 753ZM98 575L98-79L164-79L164 506L289 506C268 453 242 388 216 333C285 275 306 224 307 183C307 160 301 141 287 133C279 127 268 125 258 125C242 124 223 124 199 126C210 108 217 81 218 63C241 62 266 62 285 64C302 66 319 72 333 80C359 98 372 131 372 176C372 226 353 281 282 343C314 405 349 484 378 550L331 577L320 575ZM57 753L57 686L283 686L283 613L357 613L357 686L468 686L468 753L357 753L357 840L283 840L283 753Z"/></svg>