<svg id="U2659C" viewBox="0 0 1024 1024"><path transform="translate(0, 921.6) scale(1,-1)" d="M389 687L346 643L289 643L289 740L320 774L235 807L235 643L89 643L119 607Q133 610 163 613.50Q193 617 235 617L235 617L235 453Q214 448 177.50 440.50Q141 433 96 428L96 428L131 365L163 388Q230 408 297.50 430.50Q365 453 428 473L428 473L428 491L289 463L289 617L446 617L389 687ZM525 636L556 658L474 689Q461 460 358 350L358 350L367 337Q464 404 503 526L503 526Q558 436 641 409L641 409Q725 380 855 375L855 375Q855 411 912 425L912 425L912 438Q765 427 673 450L673 450L673 573L881 573L818 643L777 602L673 602L673 728L805 728L770 658L783 648Q851 731 899 737L899 737L834 794L805 756L402 756L436 722Q453 724 472 724.50Q491 725 513 728L513 728L619 728L619 466Q554 490 513 555L513 555L525 636ZM764 334L135 334L169 299Q187 306 212 307.50Q237 309 266 309L266 309L279 309L279 44L76 38L117 0L143 16L670 34L670-80L720-62L720 38L947 44L881 113L830 66L720 63L720 309L871 309L808 375L764 334ZM330 249L330 309L670 309L670 249L330 249ZM330 157L330 221L670 221L670 157L330 157ZM330 47L330 132L670 132L670 60L330 47Z"/></svg>