<svg id="U262C" viewBox="0 0 949 1000"><path transform="translate(0, 900) scale(1,-1)" d="M475-198L475-198Q446-198 424.50-175.50Q403-153 403-120L403-120Q403-88 412.50-68.50Q422-49 431-28.50Q440-8 440 25L440 25Q440 43 432 56.50Q424 70 415.50 77Q407 84 407 84L407 84Q391 67 373 45Q355 23 343 1Q331-21 331-38L331-38Q331-46 337-52Q343-58 343-79L343-79Q343-98 330-114Q317-130 291-130L291-130Q266-130 254-114.50Q242-99 242-76L242-76Q242-56 258.50-25.50Q275 5 304 39Q333 73 371 103L371 103Q357 108 342 111Q327 114 311 114L311 114Q269 114 241.50 95Q214 76 199.50 47Q185 18 183-13L183-13Q174-1 154.50 31Q135 63 113.50 113.50Q92 164 76.50 235Q61 306 61 396L61 396Q61 464 78.50 518.50Q96 573 122 613.50Q148 654 175 680Q202 706 221 718L221 718Q193 668 176.50 611Q160 554 160 468L160 468Q160 393 191 324.50Q222 256 284.50 210.50Q347 165 440 158L440 158L440 236Q415 239 391.50 245.50Q368 252 357 256L357 256Q362 265 368 274Q374 283 378 292L378 292Q314 323 274.50 382.50Q235 442 235 517L235 517Q235 573 258 620.50Q281 668 321 702Q361 736 411 750L411 750Q406 779 395 790.50Q384 802 361 802L361 802L361 830Q389 830 405 842.50Q421 855 435.50 867.50Q450 880 471 880L471 880Q492 880 508 867.50Q524 855 542.50 842.50Q561 830 588 830L588 830L588 802Q566 802 555 790.50Q544 779 539 750L539 750Q590 736 629.50 702Q669 668 692 620.50Q715 573 715 517L715 517Q715 442 675 382.50Q635 323 572 292L572 292Q581 274 593 256L593 256Q582 252 558.50 245.50Q535 239 510 236L510 236L510 158Q604 165 666 210.50Q728 256 759 324.50Q790 393 790 468L790 468Q790 554 774 611Q758 668 729 718L729 718Q748 706 775 680Q802 654 828 613.50Q854 573 871.50 518.50Q889 464 889 396L889 396Q889 306 873.50 235Q858 164 836.50 113.50Q815 63 795.50 31Q776-1 767-13L767-13Q766 18 751.50 47Q737 76 709 95Q681 114 639 114L639 114Q623 114 608.50 111Q594 108 580 103L580 103Q618 73 646.50 39Q675 5 691.50-25.50Q708-56 708-76L708-76Q708-99 696-114.50Q684-130 659-130L659-130Q634-130 620.50-114Q607-98 607-79L607-79Q607-58 613-52Q619-46 619-38L619-38Q619-21 607 1Q595 23 577.50 45Q560 67 543 84L543 84Q543 84 535 77Q527 70 518.50 56.50Q510 43 510 25L510 25Q510-8 519.50-28.50Q529-49 538-68.50Q547-88 547-120L547-120Q547-153 525.50-175.50Q504-198 475-198ZM403 351L403 351Q415 387 423.50 434Q432 481 432 544L432 544Q432 591 429 627Q426 663 422 688L422 688Q367 671 332 624.50Q297 578 297 517L297 517Q297 461 326.50 416Q356 371 403 351ZM547 351L547 351Q594 371 623 416Q652 461 652 517L652 517Q652 578 617.50 624.50Q583 671 527 688L527 688Q524 663 521.50 627Q519 591 519 544L519 544Q519 481 526.50 434Q534 387 547 351Z"/></svg>