<svg id="U263BD" viewBox="0 0 1024 1024"><path transform="translate(0, 921.6) scale(1,-1)" d="M104 784L104 784L92 771Q118 733 135 701.50Q152 670 159 652L159 652Q171 602 187 630L187 630Q199 642 205 653.50Q211 665 207 687L207 687Q201 718 104 784ZM263 604L63 604L98 570Q115 572 130.50 574Q146 576 166 576L166 576L222 576L222 438L86 438L119 403Q152 413 187 413L187 413L222 413L222 262L63 262L98 227Q115 229 130.50 232.50Q146 236 166 236L166 236L222 236Q211 134 176 69L176 69Q132-3 63-70L63-70L67-83Q181-1 220 69L220 69Q240 111 253 152Q266 193 273 236L273 236L449 236L392 309L354 262L273 262L273 413L430 413L374 479L339 438L273 438L273 576L440 576L392 648L354 604L292 604Q315 637 336 672.50Q357 708 377 743L377 743L418 762L333 803Q337 748 263 604L263 604ZM510 520L799 520L799 438L510 438L510 520ZM510 413L799 413L799 321L510 321L510 413ZM510 296L799 296L799 211L510 211L510 296ZM513 548L456 570Q458 541 458.50 515Q459 489 459 469L459 469L459 258Q459 233 457.50 205.50Q456 178 452 148L452 148L510 167L510 186L559 186Q550 84 497 28L497 28Q442-27 333-62L333-62L336-74Q467-56 537 6L537 6Q602 63 610 186L610 186L682 186L682-5Q682-52 752-62L752-62L862-62Q939-62 960-8L960-8Q915-4 915 95L915 95L899 95Q899 63 897.50 42Q896 21 896 6L896 6Q890-25 855-20L855-20L767-20Q729-20 729 10L729 10L729 186L799 186L799 148L849 167Q846 190 846 215L846 215Q846 241 846 277L846 277L846 520L878 538L818 576L789 548L513 548ZM764 655L764 655L922 655L875 728L824 684L764 684L764 749L793 774L711 810Q711 776 712.50 745Q714 714 714 684L714 684L572 684L572 749L603 774L518 810Q518 783 521.50 752Q525 721 525 684L525 684L399 684L433 652Q452 654 475.50 656Q499 658 525 658L525 658L525 561L575 589Q572 609 572 626L572 626Q572 644 572 655L572 655L714 655L714 561L767 586Q764 602 764 620L764 620Q764 638 764 655Z"/></svg>