<svg id="U26CC0" viewBox="0 0 1000 1000"><path transform="translate(0, 900) scale(1,-1)" d="M644 580L644 480L465 480L465 412L644 412L644 311L423 311L423 243L619 243C568 155 478 69 392 27C408 13 430-13 442-30C516 11 590 87 644 173L644-79L716-79L716 181C770 96 844 16 912-28C924-10 947 16 964 30C884 72 798 158 745 243L945 243L945 311L716 311L716 412L907 412L907 480L716 480L716 580ZM57 750L57 683L283 683L283 613L357 613L357 683L468 683L468 750L357 750L357 840L283 840L283 750ZM530 750L530 683L643 683L643 610L717 610L717 683L945 683L945 750L717 750L717 840L643 840L643 750ZM47 449L55 382L128 386C113 328 96 273 81 230C128 203 181 169 231 135C195 82 144 30 70-16C85-26 108-50 118-65C194-16 248 39 286 96C324 68 357 41 381 18L421 80C396 103 361 130 321 157C361 241 374 326 377 402L432 405L433 468L378 465L378 543L312 543L312 461L213 456C224 508 235 560 242 607L176 612C169 563 158 508 145 453ZM160 260C172 299 185 344 197 391L311 398C307 335 297 265 265 195C230 218 194 240 160 260Z"/></svg>