<svg id="U26AF3" viewBox="0 0 1024 1024"><path transform="translate(0, 921.6) scale(1,-1)" d="M475-90L475-90L542-49Q537-6 536.50 39.50Q536 85 536 139L536 139L536 436L564 465L475 510Q479 462 480 420Q481 378 481 343L481 343L481 103Q481 55 480 8Q479-39 475-90ZM504 621L449 695L395 650L335 650L328 739L356 774L258 813Q264 786 268.50 745.50Q273 705 277 650L277 650L79 650L113 611Q143 621 193 621L193 621L283 621Q285 585 287.50 545Q290 505 293 465L293 465L353 493Q349 535 345.50 566Q342 597 338 621L338 621L504 621ZM600 631L664 631Q664 604 661 563Q658 522 651 465L651 465L712 480Q712 525 715.50 563.50Q719 602 722 631L722 631L945 631L888 708L840 656L725 656L731 739L764 771L670 816Q670 782 669.50 742Q669 702 667 656L667 656L523 656L556 618L600 631Z"/></svg>