<svg id="U26A3B" viewBox="0 0 1024 1024"><path transform="translate(0, 921.6) scale(1,-1)" d="M214 602L214 602L200 596Q248 519 252 464L252 464Q257 400 297 461L297 461Q335 507 214 602ZM55 385L79 350L121 359L136 359Q136 251 117 145L117 145Q112 91 93 39.50Q74-12 51-74L51-74L61-86Q134 24 159 125L159 125Q174 174 180.50 232.50Q187 291 187 359L187 359L341 359L341 116Q349 29 312 23L312 23Q295 18 269.50 19Q244 20 214 23L214 23L214 6Q305-8 309-61L309-61Q396-20 392 97L392 97L392 622L427 657L370 702L347 666L249 666Q265 687 279.50 711Q294 735 306 759L306 759L341 769L258 817Q251 779 240.50 741.50Q230 704 216 666L216 666L187 666L130 705Q133 680 134.50 655.50Q136 631 136 606L136 606L136 385L55 385ZM187 385L187 641L341 641L341 385L187 385ZM216 315L216 315L207 305Q252 218 252 183L252 183Q252 141 274 145L274 145Q293 148 306 177L306 177Q311 209 297 235L297 235Q289 249 268.50 269Q248 289 216 315ZM863 660L898 676L824 734Q807 673 780.50 607.50Q754 542 716 471L716 471L731 464Q769 510 801.50 558.50Q834 607 863 660L863 660ZM642 689L642 414L427 414L460 381Q482 385 500.50 386.50Q519 388 533 388L533 388L558 388Q555 310 545 243.50Q535 177 513 123L513 123Q471 9 350-81L350-81L357-90Q400-68 443-32.50Q486 3 530 55L530 55Q604 166 610 388L610 388L703 388L703 23Q691-61 770-51L770-51L869-51Q934-51 952-3L952-3Q924 17 921 49L921 49Q915 66 914.50 91Q914 116 914 145L914 145L901 145Q901 119 899.50 93Q898 67 898 45L898 45Q898-2 863-6L863-6L805-6Q751-11 751 33L751 33L751 388L926 388L869 458L821 414L690 414L690 740L716 769L635 804Q635 772 638.50 744.50Q642 717 642 689L642 689ZM475 705L475 705L466 695Q522 604 533 532L533 532Q551 462 571 497L571 497Q591 522 588 564L588 564Q580 582 554 618Q528 654 475 705Z"/></svg>