<svg id="U26D7D" viewBox="0 0 1024 1024"><path transform="translate(0, 921.6) scale(1,-1)" d="M218 334L218 334L274 350L274 362L737 362L737 344L794 362L794 538L822 558L763 599L734 563L271 563L218 586Q220 555 220.50 524Q221 493 221 463L221 463Q221 432 220.50 400.50Q220 369 218 334ZM274 479L274 538L737 538L737 479L274 479ZM274 388L274 450L737 450L737 388L274 388ZM227 331L227 331L221 314Q246 297 264 283Q282 269 294 258L294 258Q325 235 335 208L335 208Q346 179 369 211L369 211Q396 238 372 268L372 268Q345 294 227 331ZM485 277L485 192L100 192L136 154Q156 158 171 162.50Q186 167 196 167L196 167L372 167Q341-4 68-70L68-70L68-83Q390-44 429 167L429 167L561 167L561-1Q548-74 659-70L659-70L850-70Q920-76 955-23L955-23Q923-9 914 13L914 13Q901 35 901 82L901 82L879 82Q879 5 870-11L870-11Q856-23 842-23L842-23L662-23Q611-23 611 6L611 6L611 167L942 167L883 236L835 192L639 192Q672 211 706 231Q740 251 778 271L778 271L816 283L757 344Q732 308 694.50 271Q657 234 605 192L605 192L539 192L539 303L561 327L482 362Q482 339 483.50 318.50Q485 298 485 277L485 277ZM495 664L444 733L394 692L346 692L346 753L372 778L290 810Q293 786 293.50 757Q294 728 294 692L294 692L81 692L116 658Q133 660 152 662Q171 664 192 664L192 664L294 664Q294 646 293.50 623Q293 600 290 579L290 579L350 602Q347 617 346.50 633Q346 649 346 664L346 664L495 664ZM621 674L646 674Q646 664 644.50 641.50Q643 619 643 579L643 579L703 599Q692 656 700 674L700 674L924 674L863 740L816 699L700 699L700 743L728 771L643 803Q643 779 644.50 753.50Q646 728 646 699L646 699L508 699L545 664Q561 667 580 670.50Q599 674 621 674L621 674Z"/></svg>