<svg id="U2696A" viewBox="0 0 1024 1024"><path transform="translate(0, 921.6) scale(1,-1)" d="M237 730L183 762Q186 717 187 674Q188 631 188 586L188 586Q188 496 183 401L183 401L240 420L240 443L749 443L749 408L807 426Q804 442 804 484L804 484L804 724L832 749L771 801L742 759L509 759L544 724Q580 734 614 734L614 734L749 734L749 606L531 606L566 574Q583 576 600.50 578Q618 580 640 580L640 580L749 580L749 468L240 468L240 580L468 580L413 647L375 606L240 606L240 711Q323 720 419 749L419 749L454 744L410 817Q390 796 347.50 773.50Q305 751 237 730L237 730ZM464 311L464 311L215 311L157 340Q159 316 159.50 269.50Q160 223 160 151L160 151Q160 81 159.50 19.50Q159-42 157-90L157-90L218-68L218-36L771-36L771-90L832-68Q829-46 829-22L829-22Q829 1 829 27L829 27L829 266L867 295L804 350L771 311L521 311L521 381L554 408L458 443Q458 414 461 380Q464 346 464 311ZM218 151L218 286L464 286L464 151L218 151ZM521 151L521 286L771 286L771 151L521 151ZM218-10L218 125L464 125L464-10L218-10ZM521-10L521 125L771 125L771-10L521-10Z"/></svg>