<svg id="U265A4" viewBox="0 0 1000 1000"><path transform="translate(0, 900) scale(1,-1)" d="M507 596L834 596L834 506L507 506ZM507 741L834 741L834 653L507 653ZM438 800L438 447L905 447L905 800ZM482 430C455 350 409 272 356 219C372 210 397 190 409 179C433 205 457 238 479 274L636 274L636 178L446 178L446 117L636 117L636 6L389 6L389-58L960-58L960 6L708 6L708 117L907 117L907 178L708 178L708 274L929 274L929 337L708 337L708 425L636 425L636 337L513 337C526 362 537 388 546 414ZM33 117L46 48L285 100L285-80L350-80L350 730L405 730L405 797L50 797L50 730L97 730L97 129ZM161 730L285 730L285 583L161 583ZM161 519L285 519L285 370L161 370ZM161 307L285 307L285 166L161 142Z"/></svg>