<svg id="U266AE" viewBox="0 0 1024 1024"><path transform="translate(0, 921.6) scale(1,-1)" d="M269 493L269 619L305 644L245 666L320 761L358 767L282 814Q272 790 254.50 756Q237 722 207 682L207 682Q178 639 144.50 598Q111 557 73 518L73 518L80 509Q163 561 225 635L225 635L225 527Q225 504 223 471Q221 438 220 398L220 398L276 417Q270 436 269.50 456Q269 476 269 493L269 493ZM858 741L805 798Q776 784 733 772.50Q690 761 632 751L632 751Q575 743 511 737Q447 731 377 729L377 729L377 713Q429 713 481.50 715Q534 717 588 717L588 717L588 609L317 609L348 574Q370 578 389 579.50Q408 581 424 581L424 581L588 581L588 458L367 458L405 424Q438 433 480 433L480 433L912 433L840 496L783 458L638 458L638 581L950 581L881 644L827 609L638 609L638 723Q713 729 766.50 735Q820 741 858 741L858 741ZM163-85L163-85L213-50L213 323L465 323Q453 272 395 226L395 226Q367 206 330 184Q293 162 245 146L245 146L257 134Q354 156 408 197L408 197Q472 232 500 270L500 270Q545 250 584 228.50Q623 207 654 181L654 181Q713 131 723 168L723 168Q723 210 695 229L695 229Q661 255 626 260L626 260Q601 265 572 272Q543 279 510 288L510 288Q512 295 514.50 303.50Q517 312 521 323L521 323L814 323L814 18Q805-13 777-13L777-13Q763-13 726.50-10Q690-7 629-3L629-3L629-16Q764-45 764-88L764-88Q817-79 843-54L843-54Q865-26 865 8L865 8L865 313L903 345L840 386L805 348L525 348Q532 376 534 376L534 376L572 396L474 430Q479 407 471 348L471 348L213 348L163 373Q165 338 165.50 288Q166 238 166 172L166 172Q166 106 165.50 43.50Q165-19 163-85ZM575 168L497 209Q475 149 428 99L428 99Q403 72 360 45Q317 18 251-6L251-6L257-16Q308-4 349.50 7.50Q391 19 418 36L418 36Q465 61 503 108L503 108Q553 88 591 66.50Q629 45 657 23L657 23Q712-15 717 14L717 14Q717 49 695 70L695 70Q680 82 665.50 88.50Q651 95 635 103L635 103Q620 104 590 109.50Q560 115 515 128L515 128Q540 157 575 168L575 168Z"/></svg>