<svg id="U26720" viewBox="0 0 1024 1024"><path transform="translate(0, 921.6) scale(1,-1)" d="M224 16L224 16L224-5Q324-19 328-70L328-70Q407-43 407 31L407 31L407 725L438 749L382 797L350 759L205 759L148 781Q150 757 150.50 696Q151 635 151 532L151 532Q151 429 150.50 361.50Q150 294 148 262L148 262Q143 193 133 123L133 123Q128 85 112 41Q96-3 72-55L72-55L81-64Q151 30 177 116L177 116Q199 191 199 318L199 318L199 730L359 730L359 54Q359 14 331 10L331 10Q312 6 224 16ZM230 623L230 623L218 614Q270 528 274 476L274 476Q287 424 305 447L305 447Q329 467 325 507L325 507Q321 538 297 563L297 563Q289 570 273 585Q257 600 230 623ZM199 236L199 236L243 186Q251 199 259.50 216Q268 233 277 255L277 255Q289 275 306.50 307Q324 339 350 384L350 384L335 396Q271 300 199 236ZM891 712L891 712L927 740L873 787L845 753L526 753L476 784Q476 729 477.50 677Q479 625 479 573L479 573Q479 522 477.50 472.50Q476 423 476 375L476 375L526 396L526 432L845 432L845 394L895 413Q892 448 891.50 524Q891 600 891 712ZM526 604L526 728L662 728L662 604L526 604ZM712 604L712 728L845 728L845 604L712 604ZM526 457L526 576L662 576L662 457L526 457ZM712 457L712 576L845 576L845 457L712 457ZM750-55L750-55L806-29Q802-15 801.50 65Q801 145 801 293L801 293L952 293L895 362L850 318L420 318L451 283Q470 285 487 289Q504 293 523 293L523 293L564 293Q560 153 517 72L517 72Q473 0 388-52L388-52L394-64Q501-21 555 51L555 51Q608 125 618 293L618 293L753 293Q753 172 751.50 85.50Q750-1 750-55Z"/></svg>