<svg id="U26C17" viewBox="0 0 1024 1024"><path transform="translate(0, 921.6) scale(1,-1)" d="M477 363L477 439L660 439L660 363L477 363ZM714 439L714 439L928 439L865 509L802 465L714 465L714 540L739 565L657 603Q657 569 658.50 535.50Q660 502 660 465L660 465L477 465L477 543L503 574L421 606Q421 570 422.50 533.50Q424 497 424 465L424 465L289 465L289 527L317 553L232 591Q234 562 234.50 529.50Q235 497 235 465L235 465L83 465L117 430Q145 439 191 439L191 439L235 439L235 291L207 270L257 222L285 250L868 250L802 326L739 275L289 275L289 439L424 439Q424 401 422.50 367Q421 333 421 301L421 301L477 319L477 339L660 339L660 311L717 332Q714 362 714 389L714 389Q714 416 714 439ZM471-85L471-85L537-60Q531-57 531 96L531 96L956 96L890 165L834 124L531 124L531 197L562 226L471 250Q471 210 474 178.50Q477 147 477 124L477 124L67 124L101 90Q117 92 136.50 94Q156 96 176 96L176 96L477 96Q477 48 474 3Q471-42 471-85ZM500 672L446 732L399 697L364 697L364 758L389 786L307 811Q309 787 309.50 758Q310 729 310 697L310 697L92 697L128 663Q165 672 207 672L207 672L310 672Q310 648 309.50 626Q309 604 307 581L307 581L367 597Q364 617 364 637L364 637Q364 657 364 672L364 672L500 672ZM606 676L641 676Q641 658 639.50 634.50Q638 611 638 581L638 581L698 603Q695 626 695 645L695 645Q695 664 695 676L695 676L919 676L858 735L811 701L695 701L695 758L720 779L638 811Q638 792 639.50 764Q641 736 641 701L641 701L518 701L547 663Q572 676 606 676L606 676Z"/></svg>