<svg id="U26B9A" viewBox="0 0 1024 1024"><path transform="translate(0, 921.6) scale(1,-1)" d="M513 631L452 705L410 656L349 656L349 749L388 775L289 813Q291 784 293 747Q295 710 295 656L295 656L81 656L116 618Q146 631 192 631L192 631L295 631Q295 606 293 577.50Q291 549 289 516L289 516L352 555Q349 573 349 593L349 593Q349 613 349 631L349 631L513 631ZM625 635L647 635Q647 614 645 586Q643 558 643 520L643 520L705 548Q699 566 698.50 589Q698 612 698 635L698 635L926 635L861 711L813 663L698 663L698 753L736 775L643 816Q643 778 645 739.50Q647 701 647 663L647 663L513 663L551 628Q567 630 584.50 632.50Q602 635 625 635L625 635ZM794 475L833 490L753 548Q722 471 685.50 402Q649 333 605 270L605 270L618 260Q726 359 794 475L794 475ZM535 397L535 525L560 551L474 590Q476 545 476.50 505Q477 465 477 430L477 430Q477 388 476.50 345Q476 302 474 257L474 257L538 272L535 334L535 397ZM199 510L183 497Q304 390 317 320L317 320Q334 261 369 292L369 292Q403 326 375 378L375 378Q347 426 199 510L199 510ZM743 23L263-4Q301 11 355.50 52.50Q410 94 480 157L480 157L516 174L448 225L964 225L893 308L829 254L60 254L94 219Q112 221 130 223Q148 225 170 225L170 225L435 225Q424 193 395.50 158.50Q367 124 324 81L324 81Q245 2 183-4L183-4L224-84Q251-76 294-67.50Q337-59 397-52L397-52Q457-42 546.50-28.50Q636-15 763 0L763 0Q783-33 798-74L798-74Q816-107 849-71L849-71Q883-27 833 20L833 20Q790 66 638 145L638 145L628 132Q658 103 687.50 76.50Q717 50 743 23L743 23Z"/></svg>