<svg id="U26295" viewBox="0 0 1024 1024"><path transform="translate(0, 921.6) scale(1,-1)" d="M323 666L314 653Q363 637 407.50 617.50Q452 598 490 574L490 574Q448 541 397.50 512.50Q347 484 289 461L289 461L292 448Q452 495 528 556L528 556Q626 515 663 477L663 477Q699 441 704 477L704 477Q717 506 682 534L682 534Q652 558 575 578L575 578Q596 602 621 622Q646 642 673 663L673 663L704 672L635 726Q605 671 525 600L525 600Q432 642 323 666L323 666ZM302-28L302 70L714 70L714-28L302-28ZM248 247L248 247L248-28L57-28L92-62Q111-60 128.50-57Q146-54 166-54L166-54L966-54L906 21L852-28L761-28L761 319L799 342L742 401L701 360L302 360L245 404Q247 338 247.50 298.50Q248 259 248 247ZM302 234L302 335L714 335L714 234L302 234ZM302 99L302 206L714 206L714 99L302 99ZM235 751L172 782Q175 740 175.50 695.50Q176 651 176 597L176 597Q176 543 175.50 493Q175 443 172 398L172 398L228 424L228 726L814 726L814 499Q819 434 685 461L685 461L682 437Q746 425 767 417L767 417Q782 407 793 383L793 383Q850 396 865 471L865 471L865 717L896 741L837 789L802 751L235 751Z"/></svg>