<svg id="U26081" viewBox="0 0 1024 1024"><path transform="translate(0, 921.6) scale(1,-1)" d="M300 226L287 216Q315 162 329.50 125.50Q344 89 346 67L346 67Q350 16 382 46L382 46Q405 73 400 108L400 108Q396 136 300 226L300 226ZM300 754L300 754L227 805Q213 751 194 704Q175 657 148 615L148 615Q99 525 72 521L72 521L106 455Q120 463 136.50 470.50Q153 478 171 483L171 483Q186 490 210 495Q234 500 265 506L265 506Q234 455 204 416Q174 377 145 348L145 348Q92 288 72 288L72 288L112 213Q122 225 177 247L177 247Q203 256 240 264.50Q277 273 325 285L325 285Q334 268 337.50 255.50Q341 243 344 231L344 231Q347 206 366 229L366 229Q388 250 388 288L388 288Q388 325 281 414L281 414L268 404Q282 378 295 354Q308 330 318 304L318 304L130 285Q170 325 207.50 369.50Q245 414 287 465L287 465Q363 565 382 565L382 565L322 628Q303 575 274 534L274 534L130 521Q158 561 183.50 597.50Q209 634 230 676L230 676Q283 750 300 754ZM109 168L97 165Q111 104 114 64Q117 24 112 8L112 8Q109-26 123-31L123-31Q147-31 158-19L158-19Q178 1 174 30L174 30Q172 43 156 77Q140 111 109 168L109 168ZM233 26L233 26Q241-7 265 2L265 2Q290 21 290 55L290 55Q290 84 205 188L205 188L192 181Q213 124 221.50 84.50Q230 45 233 26ZM482 795L476 786Q520 708 533 656L533 656Q546 601 574 632L574 632Q600 662 583 694L583 694Q569 729 482 795L482 795ZM847 445L847 445L876 455L822 512Q802 477 772 440Q742 403 700 363L700 363Q659 429 605 483L605 483Q647 535 680 543L680 543L649 565L945 565L883 638L839 594L690 594Q722 648 744.50 681Q767 714 775 726L775 726Q784 732 796 743.50Q808 755 826 767L826 767L747 811Q739 774 719 720Q699 666 668 594L668 594L385 594L420 559Q457 565 489 565L489 565L605 565Q531 447 382 352L382 352L388 339Q445 359 496.50 392.50Q548 426 593 468L593 468Q599 453 607.50 441Q616 429 624 417L624 417Q582 353 524 300.50Q466 248 391 203L391 203L400 188Q473 220 535 267.50Q597 315 652 370L652 370Q657 353 665 339Q673 325 678 316L678 316Q554 127 391 30L391 30L397 14Q571 101 687 250L687 250Q687 202 686 159.50Q685 117 680 77L680 77Q671 1 643-6L643-6Q611-21 523-3L523-3L523-25Q614-43 614-85L614-85Q704-54 719 26L719 26Q730 68 733.50 107Q737 146 737 185L737 185Q734 222 726 262Q718 302 709 345L709 345Q714 347 719 352.50Q724 358 734 363L734 363Q771 133 883 30L883 30Q892 62 952 67L952 67L952 83Q831 120 750 370L750 370Q770 391 795.50 410Q821 429 847 445Z"/></svg>