<svg id="U26A10" viewBox="0 0 1024 1024"><path transform="translate(0, 921.6) scale(1,-1)" d="M655 662L655 662L655 504L473 504L508 473Q524 475 541.50 477Q559 479 578 479L578 479L652 479Q645 277 581 143L581 143Q518 3 422-69L422-69L432-91Q484-57 529-7.50Q574 42 613 108L613 108Q689 250 693 403L693 403Q693 362 704.50 307.50Q716 253 735 182L735 182Q774 40 876-73L876-73Q890-33 962-43L962-43L962-28Q902-8 847 67L847 67Q814 110 791.50 158.50Q769 207 751 268L751 268Q732 327 722 380Q712 433 710 479L710 479L936 479L882 556L828 504L710 504L710 745L738 777L652 815Q652 774 653.50 737.50Q655 701 655 662ZM259 614L259 614L242 604Q287 533 294 466L294 466Q298 407 338 463L338 463Q357 488 337 526Q317 564 259 614ZM377 774L297 819Q287 778 277.50 743.50Q268 709 252 681L252 681L220 681L159 716Q161 692 163.50 667.50Q166 643 166 617L166 617L166 396Q163 322 157.50 261.50Q152 201 143 150L143 150Q136 98 115 45Q94-8 65-73L65-73L71-82Q165 25 187 160L187 160Q207 226 213 305Q219 384 217 476L217 476L217 655L393 655L393 83Q389 41 360 41L360 41Q349 41 326.50 42.50Q304 44 265 47L265 47L265 32Q360 6 360-34L360-34Q445-10 440 70L440 70L440 646L473 677L418 722L390 681L274 681Q291 698 307.50 718Q324 738 338 761L338 761L377 774ZM255 323L255 323L242 310Q290 235 290 191L290 191Q294 150 312 150L312 150Q335 150 342 178L342 178Q346 208 332 240L332 240Q321 257 302 277Q283 297 255 323ZM498 425L498 425L495 444Q311 393 202 369Q93 345 61 345L61 345L99 281Q127 294 226 330.50Q325 367 498 425Z"/></svg>