<svg id="U26F16" viewBox="0 0 1024 1024"><path transform="translate(0, 921.6) scale(1,-1)" d="M627 545L687 576L683 614L683 655L961 655L898 728L845 681L683 681L683 733L712 759L627 807Q627 780 629 761Q631 742 631 733L631 733L631 681L391 681L391 737L423 766L328 807Q333 784 335.50 765.50Q338 747 338 733L338 733L338 681L62 681L97 643Q127 655 180 655L180 655L338 655L338 602L335 551L394 579L391 617L391 655L631 655L631 599L627 545ZM168 538L168 592L145 592Q136 500 91 466L91 466Q48 426 81 419L81 419Q112 406 139 438L139 438Q168 467 168 514L168 514L870 514L822 438L832 425Q899 498 958 522L958 522L888 576L866 538L168 538ZM294 378L294 378L294 283L103 283L133 249Q153 251 171 253Q189 255 208 255L208 255L262 255Q235 200 188.50 138.50Q142 77 81 10L81 10L91-5Q215 84 294 208L294 208L294 47Q294 14 290-17.50Q286-49 284-80L284-80L344-55Q341-20 341 10L341 10Q341 40 341 69L341 69L341 177Q389 139 413 95L413 95Q430 50 451 88L451 88Q469 119 454 145L454 145Q443 155 415 168.50Q387 182 341 201L341 201L341 252L495 252L441 321L410 280L341 280L341 388L429 409L457 403L413 466Q370 442 308 419Q246 396 158 378L158 378L164 359Q196 361 228 365.50Q260 370 294 378ZM690 38L690 242Q721 122 785 57L785 57Q841-9 870-23L870-23Q892 13 939 13L939 13L939 22Q880 40 822 95L822 95Q759 150 703 252L703 252L907 252L857 318L813 280L690 280L690 400L804 419L826 406L788 476Q727 446 649 425L649 425Q606 418 570.50 409.50Q535 401 508 396L508 396L508 378L637 391L637 280L482 280L517 245Q536 249 555 250.50Q574 252 593 252L593 252L598 252Q521 88 394-14L394-14L403-23Q548 47 637 214L637 214L637 16Q637 0 635.50-22.50Q634-45 634-74L634-74L693-55Q690-25 690-3L690-3Q690 19 690 38L690 38Z"/></svg>