<svg id="U26A6F" viewBox="0 0 1024 1024"><path transform="translate(0, 921.6) scale(1,-1)" d="M220 599L220 599L210 587Q260 521 265 466L265 466Q267 430 277 428Q287 426 307 459L307 459Q341 508 220 599ZM68 385L99 350L137 360L149 360Q149 301 145.50 247Q142 193 137 145L137 145Q127 97 110 45.50Q93-6 68-64L68-64L82-73Q154 33 172 126L172 126Q186 178 191.50 236.50Q197 295 197 360L197 360L342 360L342 91Q346 15 316 10L316 10Q302 10 276.50 9.50Q251 9 220 12L220 12L220-6Q270-11 287-29L287-29Q314-46 319-64L319-64Q395-33 387 75L387 75L387 629L415 651L364 702L342 667L245 667Q262 689 277.50 713.50Q293 738 307 766L307 766L342 779L262 820Q250 728 224 667L224 667L204 667L146 705Q148 672 148.50 638Q149 604 149 571L149 571L149 385L68 385ZM197 385L197 641L342 641L342 385L197 385ZM220 311L220 311L210 302Q258 219 262 177L262 177Q264 151 271.50 142Q279 133 290 142L290 142Q315 147 319 175L319 175Q323 201 300 235L300 235Q290 249 270.50 269.50Q251 290 220 311ZM515 737L460 775Q460 718 461.50 668.50Q463 619 463 568L463 568Q465 475 463 389.50Q461 304 453 225L453 225Q446 144 424.50 73.50Q403 3 367-61L367-61L380-71Q415-20 441 28.50Q467 77 479 130L479 130Q491 176 496.50 218Q502 260 505 296L505 296Q509 332 510 402.50Q511 473 511 577L511 577L873 577L873 551L927 571Q922 604 921.50 636Q921 668 921 702L921 702L949 727L895 779L873 737L515 737ZM511 709L873 709L873 603L511 603L511 709ZM575 206L575 353L639 353L639 206L575 206ZM803 206L803 353L882 353L882 206L803 206ZM575 19L575 177L639 177L639 19L575 19ZM803 19L803 177L882 177L882 19L803 19ZM931 43L931 350L956 369L908 424L876 383L803 383L803 484L828 510L754 539L758 459L758 383L684 383L684 488L710 507L639 542Q639 494 641 453.50Q643 413 643 383L643 383L572 383L527 408L527 161L527-73L575-48L575-6L882-6L882-64L934-41Q931-20 931 2L931 2Q931 23 931 43L931 43ZM684 206L684 353L758 353L758 206L684 206ZM684 19L684 177L758 177L758 19L684 19Z"/></svg>