<svg id="U26BE0" viewBox="0 0 1024 1024"><path transform="translate(0, 921.6) scale(1,-1)" d="M479 509L479 509L526 506L479 578Q450 561 411.50 545Q373 529 319 518L319 518Q268 509 218 497Q168 485 117 477L117 477L120 458Q171 460 215 464.50Q259 469 297 474L297 474L297 363L72 363L108 332Q124 334 144 336.50Q164 339 183 339L183 339L297 339L297 206L206 206L148 234Q153 208 154 168Q155 128 155 74L155 74Q155 20 154-18Q153-56 148-85L148-85L206-69L206-13L448-13L448-82L505-57Q499-37 498.50-23Q498-9 498 2L498 2L498 165L520 188L474 241L438 206L353 206L353 339L574 339L515 411L471 363L353 363L353 480Q386 486 417 493.50Q448 501 479 509ZM206 11L206 181L448 181L448 11L206 11ZM587 587L587 42Q582-54 681-54L681-54L876-54Q927-48 952-6L952-6Q926 0 921 14L921 14Q910 33 905 131L905 131L886 131Q886 24 876 8L876 8Q861-9 823-6L823-6L693-6Q646-6 637 59L637 59L637 527L665 553L587 587ZM517 653L467 726L417 682L353 682L353 748L382 779L297 811Q299 789 299.50 756.50Q300 724 300 682L300 682L99 682L130 644Q173 653 234 653L234 653L300 653Q300 624 299.50 599Q299 574 297 546L297 546L356 568Q353 589 353 611L353 611Q353 634 353 653L353 653L517 653ZM520 685L558 647Q572 651 590 652Q608 653 628 656L628 656L662 656Q662 640 659 612.50Q656 585 656 550L656 550L722 571Q715 595 714 616.50Q713 638 713 656L713 656L939 656L883 729L839 685L713 685L713 748L744 773L656 811Q656 779 659 748Q662 717 662 685L662 685L520 685Z"/></svg>