<svg id="U2605F" viewBox="0 0 1024 1024"><path transform="translate(0, 921.6) scale(1,-1)" d="M106 178L91 165Q105 111 108 73Q111 35 106 18L106 18Q99-16 116-21L116-21Q132-28 151-9L151-9Q173 14 168 46L168 46Q161 85 106 178L106 178ZM233 46L233 46Q242 12 265 23L265 23Q299 51 290 77L290 77Q290 108 205 203L205 203L192 197Q213 142 221.50 105.50Q230 69 233 46ZM300 250L287 241Q340 142 344 99L344 99Q348 55 375 87L375 87Q397 130 394 144L394 144Q394 165 300 250L300 250ZM305 758L305 758L233 805Q206 703 155 619L155 619Q108 532 78 527L78 527L112 461Q142 479 180 489L180 489Q196 492 217.50 496Q239 500 268 506L268 506Q236 458 207 420.50Q178 383 151 354L151 354Q98 298 78 298L78 298L117 222Q139 244 186 257L186 257Q212 266 250.50 274Q289 282 344 294L344 294Q352 277 355.50 265Q359 253 362 241L362 241Q366 222 385 237L385 237Q407 260 407 298L407 298Q407 339 300 417L300 417L287 411Q301 390 313.50 364.50Q326 339 338 313L338 313L136 294Q174 332 213 376Q252 420 287 471L287 471Q363 571 382 571L382 571L325 625Q317 604 306 579.50Q295 555 281 527L281 527L136 527Q164 567 190 604Q216 641 240 679L240 679Q286 748 305 758ZM709 96L593 33L593 376L652 376Q683 121 863-41L863-41Q885-5 945 0L945 0L945 14Q905 19 845 64L845 64Q785 117 744 200L744 200Q855 272 911 272L911 272L854 339Q837 310 806.50 282Q776 254 731 219L731 219Q692 296 675 376L675 376L927 376L854 461L798 404L709 404L709 591L659 591L659 404L495 404L495 713Q595 718 692 724Q789 730 891 745L891 745L835 805Q797 783 712.50 763.50Q628 744 495 735L495 735L441 773Q443 716 443.50 640Q444 564 444 465L444 465Q444 251 413 140L413 140Q386 28 315-69L315-69L325-78Q476 70 495 376L495 376L542 376L542 62Q542 22 530 0L530 0L574-65Q599-4 716 83L716 83L709 96ZM798 606L513 606L555 565Q575 569 601 575Q627 581 655 581L655 581L891 581L829 641L798 606Z"/></svg>