<svg id="U263C6" viewBox="0 0 1024 1024"><path transform="translate(0, 921.6) scale(1,-1)" d="M104 796L104 796L92 786Q120 744 138.50 715.50Q157 687 163 663L163 663Q165 642 172.50 638.50Q180 635 187 645L187 645Q209 665 204 698L204 698Q204 727 104 796ZM254 619L70 619L108 581L147 594L220 594L220 447L89 447L125 408L166 421L220 421L220 273L67 273L104 236Q134 247 184 247L184 247L220 247Q201 60 63-59L63-59L73-75Q179 1 220 80L220 80Q238 123 250.50 165Q263 207 266 247L266 247L433 247L383 321L343 273L266 273L266 421L415 421L364 487L333 447L266 447L266 594L430 594L377 654L339 619L276 619Q292 645 311 679Q330 713 351 758L351 758L392 777L314 818Q308 788 292.50 741Q277 694 254 619L254 619ZM695 534L695 534L392 534L424 496Q459 500 497 506L497 506L947 506L890 575L843 534L720 534Q779 620 824 635L824 635L761 663L922 663L865 730L824 692L415 692L443 660Q469 662 483 662.50Q497 663 497 663L497 663L510 663Q537 621 550 569L550 569Q555 545 563 539Q571 533 578 553L578 553Q599 584 594 607L594 607Q589 632 528 663L528 663L749 663Q743 647 731 614.50Q719 582 695 534ZM503 333L503 406L635 406L635 333L503 333ZM682 333L682 406L824 406L824 333L682 333ZM503 226L503 308L635 308L635 226L503 226ZM682 226L682 308L824 308L824 226L682 226ZM878 406L878 406L903 424L840 468L818 430L510 430L456 468Q456 439 457.50 403.50Q459 368 459 326L459 326Q459 283 457.50 240.50Q456 198 456 156L456 156L503 175L503 198L635 198L635 100L411 100L449 62Q473 69 518 74L518 74L635 74L635-11L371-11L405-47Q439-37 480-37L480-37L960-37L903 33L852-11L682-11L682 74L934 74L878 147L830 100L682 100L682 198L824 198L824 169L881 185Q866 250 878 406ZM575 821L575 821L569 812Q596 782 615.50 757.50Q635 733 644 717L644 717Q655 679 682 717L682 717Q701 751 673 777L673 777Q658 785 632.50 798Q607 811 575 821Z"/></svg>