<svg id="U260F8" viewBox="0 0 1024 1024"><path transform="translate(0, 921.6) scale(1,-1)" d="M98 150L89 150Q98 89 102.50 50Q107 11 101-7L101-7Q93-37 111-43L111-43Q128-43 138-27L138-27Q153-15 153 15L153 15Q153 53 98 150L98 150ZM207 15L207 15Q211-20 232-7L232-7Q261 16 261 47L261 47Q261 71 187 178L187 178L172 167Q188 109 197.50 72.50Q207 36 207 15ZM263 201L251 195Q269 141 283 104Q297 67 305 47L305 47Q314-9 333 28L333 28Q352 49 348 85L348 85Q344 120 263 201L263 201ZM389 141L348 132L380 72Q407 98 537 144L537 144Q537 84 535.50 28.50Q534-27 534-84L534-84L585-62Q582-35 582-11L582-11Q582 12 582 34L582 34L582 699L663 699L603 768L572 727L310 727L339 689Q347 693 361 694.50Q375 696 389 699L389 699L389 141ZM436 538L436 699L537 699L537 538L436 538ZM436 355L436 512L537 512L537 355L436 355ZM436 150L436 327L537 327L537 178L436 150ZM626 589L626 589L616 579Q656 468 660 406L660 406Q660 334 691 362L691 362Q719 384 714 428L714 428Q703 478 626 589ZM953-46L953-46L953-36Q924-16 899.50 21.50Q875 59 849 113L849 113Q800 231 777 418L777 418Q816 458 845 487.50Q874 517 893 535L893 535L925 545L871 610Q856 568 834 526.50Q812 485 777 440L777 440L777 538L777 733L799 761L729 793Q733 582 729 437L729 437Q727 367 718 300Q709 233 695 167L695 167Q661 31 578-68L578-68L594-87Q679 2 720 116L720 116Q741 176 752 240.50Q763 305 770 374L770 374Q772 288 780.50 221Q789 154 805 103L805 103Q819 52 837.50 11Q856-30 878-68L878-68Q888-41 953-46ZM251 730L279 749L210 790Q186 692 147 601L147 601Q107 510 80 519L80 519L111 447Q140 474 241 497L241 497Q215 443 189.50 405Q164 367 143 337L143 337Q100 276 70 276L70 276L101 208Q116 217 134.50 224.50Q153 232 172 242L172 242Q195 246 226 255Q257 264 292 276L292 276Q294 261 298 249.50Q302 238 305 226L305 226Q308 205 326 223L326 223Q346 232 346 270L346 270Q346 305 251 406L251 406L248 396Q260 367 270.50 341.50Q281 316 289 296L289 296L131 276Q204 353 320 545L320 545L351 556L289 610Q279 587 269.50 565Q260 543 251 519L251 519L128 516Q160 558 191 611Q222 664 251 730L251 730Z"/></svg>