<svg id="U26DBE" viewBox="0 0 1024 1024"><path transform="translate(0, 921.6) scale(1,-1)" d="M500 635L449 701L405 660L358 660L358 748L380 773L302 811Q304 787 304.50 750.50Q305 714 305 660L305 660L83 660L117 625Q137 632 161.50 633.50Q186 635 210 635L210 635L216 635L305 635Q305 605 304.50 577Q304 549 302 521L302 521L361 556Q358 584 358 603L358 603Q358 623 358 635L358 635L500 635ZM619 638L638 638L638 534L695 559L695 638L937 638L881 713L830 663L695 663L695 748L729 773L635 811Q635 777 636.50 740Q638 703 638 663L638 663L513 663L547 632Q563 634 581 636Q599 638 619 638L619 638ZM418 93L282 59L282 270L399 270L348 339L314 294L282 294L282 458L424 458L374 524L326 483L86 483L117 448Q139 455 154 456.50Q169 458 179 458L179 458L228 458L228 294L96 294L128 263Q151 268 167 269Q183 270 191 270L191 270L228 270L228 52Q205 40 164.50 31Q124 22 67 11L67 11L111-47Q124-23 418 77L418 77L418 93ZM459 404L440 401Q429 312 402 282L402 282Q381 243 392 229L392 229Q403 218 430 231L430 231Q454 247 465 288L465 288Q470 305 466.50 334.50Q463 364 459 404L459 404ZM591 546L513 584L515 524L515 468L515 357Q515 264 499 197.50Q483 131 456 80L456 80Q390-16 302-75L302-75L307-85Q457-12 513 96L513 96Q540 153 551 209.50Q562 266 562 323L562 323L562 521L591 546ZM755-3L755 247L903 247L852 319L811 272L755 272L755 461L909 461L858 537L814 486L582 486L616 455Q633 457 653 459Q673 461 691 461L691 461L704 461L704 272L591 272L626 241Q641 243 660 245Q679 247 698 247L698 247L704 247L704-3L518-3L556-37L600-28L956-28L896 39L846-3L755-3Z"/></svg>