<svg id="U261D3" viewBox="0 0 1024 1024"><path transform="translate(0, 921.6) scale(1,-1)" d="M895 403L366 403L394 372Q410 372 430 373.50Q450 375 470 375L470 375L895 375L895 403ZM883-5L369-5L407-42Q434-33 472-33L472-33L883-33L883-5ZM883 617L883-74L932-49Q930 0 930 31L930 31Q930 62 930 79L930 79L930 733L958 759L879 797Q879 734 881 690Q883 646 883 617L883 617ZM624 249L624 249L570 286Q563 270 552 249.50Q541 229 530 211L530 211L451 201Q464 219 475.50 233Q487 247 498 258L498 258Q505 270 516 282.50Q527 295 539 312L539 312L564 324L505 365Q493 330 483.50 304Q474 278 461 255L461 255Q429 211 407 211L407 211L431 157Q448 174 517 183L517 183Q498 159 486.50 139Q475 119 464 110L464 110Q440 82 410 82L410 82L444 22Q453 33 489 44L489 44Q504 51 527.50 56Q551 61 583 63L583 63Q583 16 598 16L598 16Q619 16 624 34L624 34Q631 46 627.50 56.50Q624 67 618 85L618 85Q608 99 596 116.50Q584 134 567 151L567 151L557 142Q562 127 567 112.50Q572 98 580 82L580 82L464 75Q489 104 513.50 132Q538 160 561 188L561 188Q601 243 624 249ZM850 236L850 236L794 274Q784 252 776 234Q768 216 760 201L760 201L680 198Q697 219 719 247Q741 275 763 309L763 309L791 324L731 362Q718 314 683 255L683 255Q654 196 634 201L634 201L659 151Q663 155 673 158.50Q683 162 693 170L693 170Q701 172 715.50 175Q730 178 753 183L753 183Q729 151 713.50 131.50Q698 112 683 101L683 101Q672 93 662 86Q652 79 643 79L643 79L675 22Q683 31 700 35Q717 39 731 44L731 44Q747 49 767.50 53.50Q788 58 813 63L813 63Q813 56 814.50 47Q816 38 816 31L816 31Q816 16 832 16L832 16Q848 20 854 38L854 38Q857 58 847 85L847 85Q838 99 826.50 116.50Q815 134 804 148L804 148L794 142Q799 124 802 109.50Q805 95 813 79L813 79L693 75Q723 104 747 130Q771 156 791 180L791 180Q824 227 850 236ZM634 668L634 668L577 715Q570 695 559.50 673.50Q549 652 533 630L533 630L451 623Q471 646 493 674.50Q515 703 542 737L542 737L567 746L508 797Q493 736 464 687L464 687Q432 639 403 627L403 627L429 576Q438 581 448.50 585.50Q459 590 470 595L470 595Q481 597 494 599.50Q507 602 523 604L523 604Q504 575 489 554Q474 533 461 520L461 520Q429 491 407 491L407 491L431 440Q432 443 482 460L482 460Q509 464 533 467.50Q557 471 586 479L586 479Q586 417 608 435L608 435Q636 457 627 479L627 479Q627 497 608 520L608 520Q600 528 589.50 540.50Q579 553 567 570L567 570L557 561Q562 549 567.50 532Q573 515 583 491L583 491L467 488Q492 517 516.50 545Q541 573 564 604L564 604Q616 668 634 668ZM854 661L854 661L801 705Q792 678 765 630L765 630L678 623Q726 681 765 740L765 740L791 753L731 797Q724 771 713.50 743.50Q703 716 687 687L687 687Q657 639 634 630L634 630L659 579Q684 598 757 607L757 607Q732 576 717 555Q702 534 693 522L693 522Q672 501 643 501L643 501L678 435Q689 443 699.50 449Q710 455 724 463L724 463Q739 465 762 468Q785 471 816 479L816 479Q816 432 832 432L832 432Q846 432 857 453L857 453Q866 467 850 504L850 504Q843 517 831.50 533.50Q820 550 804 570L804 570L794 563Q799 546 805 528Q811 510 816 491L816 491L696 491Q717 515 742 541.50Q767 568 791 602L791 602Q832 661 854 661ZM117-14L117-14Q116-56 139-33L139-33Q171-4 171 16L171 16Q175 41 103 154L103 154L94 148Q108 87 112.50 47.50Q117 8 117-14ZM221 38L221 38Q229 1 253 6L253 6Q275 18 271 60L271 60Q265 106 183 180L183 180L177 170Q197 116 208 83.50Q219 51 221 38ZM274 211L268 198Q326 108 331 66L331 66Q342 22 366 54L366 54Q386 70 382 110L382 110Q374 132 274 211L274 211ZM268 740L305 759L227 800Q196 698 148 614L148 614Q103 519 75 529L75 529L106 460Q123 469 161 482Q199 495 259 507L259 507Q229 462 201.50 423Q174 384 148 350L148 350Q99 283 65 290L65 290L97 218Q115 227 135.50 234.50Q156 242 180 252L180 252Q206 256 243 265Q280 274 325 286L325 286Q329 273 332.50 260.50Q336 248 338 236L338 236Q349 216 366 233L366 233Q388 240 388 280L388 280Q388 315 274 416L274 416L268 406Q284 377 297.50 351.50Q311 326 318 306L318 306L120 286Q163 324 220.50 391.50Q278 459 353 558L353 558L388 563L325 623Q314 600 301.50 576Q289 552 274 529L274 529L130 526Q160 565 193 618Q226 671 268 740L268 740Z"/></svg>