<svg id="U26025" viewBox="0 0 1024 1024"><path transform="translate(0, 921.6) scale(1,-1)" d="M210 480L210 480L266 493L266 506L749 506L749 483L808 502Q805 519 805 541L805 541Q805 563 805 597L805 597L805 723L827 745L767 782L742 748L510 748L547 720Q565 720 582 721.50Q599 723 619 723L619 723L749 723L749 638L534 638L572 606Q588 608 605.50 610Q623 612 644 612L644 612L749 612L749 530L266 530L266 612L480 612L428 676L389 638L266 638L266 713Q302 718 345 725.50Q388 733 440 748L440 748L480 748L430 805Q379 754 266 726L266 726L210 761Q212 728 212.50 691Q213 654 213 619L213 619Q213 577 212.50 544Q212 511 210 480ZM814 445L70 445L101 411Q118 415 149 416Q180 417 222 417L222 417L953 417L884 489L814 445ZM326-3L326-3L326-16Q440-24 462-78L462-78Q488-73 503-64.50Q518-56 528-47L528-47Q547-24 547 2L547 2L547 162L767 181Q784 170 805 140L805 140Q822 113 843 134L843 134Q852 155 852 181L852 181Q847 206 777 241L777 241Q741 262 712 273Q683 284 663 291L663 291L654 278Q684 257 707.50 239.50Q731 222 749 203L749 203Q638 198 529 193Q420 188 302 181L302 181Q411 219 486.50 246.50Q562 274 613 291L613 291Q702 329 758 339L758 339L682 386Q623 332 556 311L556 311L276 307Q332 317 411 348L411 348Q454 359 483.50 367Q513 375 537 383L537 383L469 417Q437 396 402.50 377Q368 358 326 345L326 345Q283 325 255 319Q227 313 213 313L213 313L261 250Q278 259 306.50 267Q335 275 371 278L371 278Q410 285 448 288Q486 291 521 294L521 294Q389 235 314 213L314 213Q278 198 246.50 189.50Q215 181 184 181L184 181L222 121Q253 130 283.50 135.50Q314 141 346 144L346 144Q376 147 413 150Q450 153 493 159L493 159L493 14Q493-13 456-13L456-13Q436-10 405-8.50Q374-7 326-3ZM411 62L361 111Q338 92 304.50 72.50Q271 53 228 33L228 33Q193 14 154.50-3Q116-20 73-34L73-34L76-50Q136-36 186-19.50Q236-3 276 14L276 14Q318 30 353 41Q388 52 411 62L411 62ZM603 96L597 80Q789 14 834-21L834-21Q879-59 890-37L890-37Q894-13 887 8L887 8Q870 35 796 59L796 59Q761 70 710.50 78Q660 86 603 96L603 96Z"/></svg>