<svg id="U26523" viewBox="0 0 1024 1024"><path transform="translate(0, 921.6) scale(1,-1)" d="M743 812L743 812L737 805Q752 781 766.50 761.50Q781 742 789 727L789 727Q804 683 825 723L825 723Q838 753 819 771L819 771Q809 780 790 788.50Q771 797 743 812ZM897 509L878 411Q829 427 778 499L778 499Q821 554 853 607L853 607L891 613L825 657Q812 627 794.50 596.50Q777 566 755 534L755 534Q738 574 727.50 608.50Q717 643 717 676L717 676L925 676L871 742L837 704L714 704L711 777L737 802L660 824Q660 760 670 704L670 704L503 704L450 733Q461 637 456 563L456 563Q456 489 441 434L441 434Q431 405 417 378.50Q403 352 387 323L387 323L400 317Q464 381 481 434L481 434Q503 482 503 569L503 569L585 569Q582 537 580 514.50Q578 492 578 481L578 481Q573 455 557 455L557 455Q547 455 535 455.50Q523 456 506 462L506 462L503 447Q560 427 560 396L560 396Q618 409 623 462L623 462Q623 513 632 569L632 569L655 591L601 625L582 594L503 594L503 676L673 676Q684 557 717 499L717 499Q660 424 563 362L563 362L578 349Q661 385 743 465L743 465Q812 366 928 339L928 339Q908 377 912 503L912 503L897 509ZM614-6L614-6L614-21Q715-45 720-78L720-78Q774-67 796-47L796-47Q822-19 827 18L827 18L945 18L887 77L837 46L830 46L837 162L941 162L887 223L837 188L846 298L884 311L825 358L793 329L510 329L465 358L456 188L390 188L421 150L447 162L450 162L437 49L406 36L456-3L485 18L778 18Q778-5 768-9L768-9Q760-10 748.50-14Q737-18 720-18L720-18Q703-18 676-14Q649-10 614-6ZM500 188L510 304L796 304L789 188L500 188ZM485 46L497 162L789 162L781 46L485 46ZM582 308L576 298Q632 251 645 213L645 213Q662 172 692 207L692 207Q714 240 692 264L692 264Q677 273 649 283Q621 293 582 308L582 308ZM576 159L563 150Q612 103 623 72L623 72Q638 38 663 56L663 56Q694 79 680 103L680 103Q665 120 576 159L576 159ZM267 134L267 298Q300 252 320.50 217Q341 182 349 159L349 159Q366 114 380 131L380 131Q400 163 400 178L400 178Q400 200 371 229L371 229Q351 259 267 311L267 311L267 367L431 367L380 437L342 396L267 396L267 496L403 496L352 560L315 522L267 522L267 748L285 771L210 815Q212 791 214 718.50Q216 646 216 522L216 522L77 522L107 484Q129 491 169 496L169 496L216 496L216 396L42 396L74 358Q88 361 102.50 362.50Q117 364 131 367L131 367L204 367Q168 264 127.50 172.50Q87 81 39-3L39-3L42-18Q147 85 216 267L216 267Q216 138 215.50 55.50Q215-27 213-78L213-78L267-40L267 134ZM213 619L380 654L406 648L365 714Q336 685 251 666L251 666Q208 655 163.50 643.50Q119 632 71 625L71 625L71 607Q90 607 124.50 609.50Q159 612 213 619L213 619Z"/></svg>