<svg id="U26998" viewBox="0 0 1024 1024"><path transform="translate(0, 921.6) scale(1,-1)" d="M94-68L94-68L142-48L142 12L382 12L382-23L433 6Q430 55 430 89L430 89Q430 124 430 148L430 148L430 381L455 404L410 449L382 414L311 414L340 381L369 388L382 388L382 228L314 228L340 196L369 203L382 203L382 36L292 36L292 526L480 526L430 593L388 551L292 551L292 705L439 705L388 769L350 730L87 730L122 699L157 705L244 705L244 551L60 551L94 519Q110 521 127 523.50Q144 526 164 526L164 526L244 526L244 36L142 36L142 203L231 203L196 257L174 228L142 228L142 394Q162 401 182 407.50Q202 414 222 423L222 423L237 420L199 474Q191 462 173.50 447Q156 432 135 414L135 414L97 446L97 186Q97 99 96.50 37.50Q96-24 94-68ZM698 328L698 414L807 414L807 328L698 328ZM560 215L586 231L513 266Q508 167 480 87L480 87Q462 4 382-77L382-77L392-90Q454-49 490 0L490 0Q522 47 538 113L538 113Q576 42 643-3L643-3Q680-31 743.50-46.50Q807-62 899-64L899-64Q905-24 961-19L961-19L961 0Q882-5 813 0L813 0Q780 5 751.50 10Q723 15 698 20L698 20L698 155L913 155L855 228L813 183L698 183L698 301L807 301L807 266L855 289Q852 312 851.50 343Q851 374 851 414L851 414L964 414L916 481L881 443L851 443L851 541L881 564L833 602L807 567L698 567L698 657L926 657L871 727L829 682L698 682L698 762L724 782L650 817Q650 781 651.50 747Q653 713 653 682L653 682L435 682L471 647Q490 654 501.50 655.50Q513 657 516 657L516 657L653 657L653 567L487 567L519 532Q540 540 555 540.50Q570 541 580 541L580 541L653 541L653 443L442 443L477 408Q498 412 513 413Q528 414 538 414L538 414L653 414L653 328L477 328L513 292Q531 298 543 299.50Q555 301 555 301L555 301L653 301L653 45Q582 86 548 155L548 155Q550 169 553 184Q556 199 560 215L560 215ZM698 443L698 541L807 541L807 443L698 443Z"/></svg>