<svg id="U26CCF" viewBox="0 0 1024 1024"><path transform="translate(0, 921.6) scale(1,-1)" d="M542 547L482 584Q484 539 486.50 492Q489 445 489 393L489 393L489-11L344-11L375-47Q405-37 448-37L448-37L958-37L901 36L854-11L816-11L816 512L845 531L785 588L760 547L542 547ZM542 364L542 522L763 522L763 364L542 364ZM542 178L542 336L763 336L763 178L542 178ZM542-11L542 154L763 154L763-11L542-11ZM259-72L259-72L318-47Q315-25 315-8L315-8Q315 8 315 18L315 18L315 314Q345 288 372 257L372 257Q384 242 391.50 228Q399 214 407 200L407 200Q421 162 441 210L441 210Q460 241 435 273L435 273Q402 304 315 336L315 336L315 406L472 406L416 484L372 430L315 430L315 547L346 578L259 610Q261 578 261.50 550.50Q262 523 262 496L262 496L262 430L97 430L130 396Q145 398 162.50 402Q180 406 199 406L199 406L236 406Q221 364 204 322.50Q187 281 164 239L164 239Q145 193 121 153Q97 113 65 74L65 74L75 59Q180 155 262 321L262 321L262-9Q262-15 261.50-31.50Q261-48 259-72ZM505 676L454 742L407 701L356 701L356 761L388 786L297 818Q299 794 299.50 765.50Q300 737 300 701L300 701L97 701L133 666Q149 669 167.50 672.50Q186 676 208 676L208 676L300 676Q300 655 299.50 633.50Q299 612 297 588L297 588L362 610Q357 626 356.50 643.50Q356 661 356 676L356 676L505 676ZM637 682L655 682Q655 673 652 650.50Q649 628 649 588L649 588L716 607Q700 670 712 682L712 682L930 682L873 748L822 707L712 707L712 755L740 780L649 815Q649 788 652 762Q655 736 655 707L655 707L523 707L561 676Q577 678 595 680Q613 682 637 682L637 682Z"/></svg>