<svg id="U260AF" viewBox="0 0 1024 1024"><path transform="translate(0, 921.6) scale(1,-1)" d="M295 207L282 204Q308 153 324.50 115Q341 77 346 50L346 50Q357 2 380 31L380 31Q401 62 395 101L395 101Q391 130 295 207L295 207ZM289 739L289 739L220 787Q191 690 140 598L140 598Q94 511 63 507L63 507L96 438Q112 449 128.50 455Q145 461 163 469L163 469Q179 474 201 478.50Q223 483 257 491L257 491Q222 441 191.50 401.50Q161 362 135 333L135 333Q81 273 67 273L67 273L108 198Q120 212 169 229L169 229Q222 249 326 268L326 268Q335 250 339 238Q343 226 346 217L346 217Q349 191 367 211L367 211Q392 236 392 273L392 273Q392 307 282 399L282 399L269 394Q284 364 297 337Q310 310 320 286L320 286L122 268Q196 342 276 440L276 440Q352 548 367 548L367 548L310 607Q304 581 292 558.50Q280 536 266 516L266 516L122 507Q149 542 174 579Q199 616 222 654L222 654Q268 727 289 739ZM881 145L881 145Q885 184 960 188L960 188L960 204Q810 224 704 390L704 390L834 390L834 355L887 381Q884 408 884 445L884 445Q884 483 884 528L884 528L912 554L862 604L827 569L670 569Q764 679 808 687L808 687L745 739L711 705L554 705L582 759L626 765L544 818Q538 795 523.50 758.50Q509 722 480 670L480 670Q452 616 418.50 567.50Q385 519 343 476L343 476L348 463Q381 486 405.50 509.50Q430 533 452 557L452 557Q452 479 449 426.50Q446 374 446 346L446 346L500 374L500 390L610 390Q563 300 490 245L490 245Q452 216 419.50 197Q387 178 361 166L361 166L364 150Q406 162 448.50 184.50Q491 207 534 235L534 235Q574 264 606 300Q638 336 660 390L660 390L685 390Q748 221 881 145ZM714 683L647 572L500 572L477 589Q492 609 507.50 634Q523 659 541 683L541 683L714 683ZM500 418L500 548L635 548L635 418L500 418ZM685 418L685 548L834 548L834 418L685 418ZM554 207L554 207L550 194Q671 146 717 101L717 101Q765 42 777 68L777 68Q790 93 773 122L773 122Q764 147 714 170L714 170Q689 179 649 188Q609 197 554 207ZM484 94L484 94L484 81Q654 11 714-43L714-43Q780-103 789-90L789-90Q802-90 802-62L802-62Q802-31 767-11L767-11Q734 15 670 34L670 34Q605 62 484 94ZM108 160L96 150Q123 28 117-5L117-5Q112-41 128-46L128-46Q143-46 163-26L163-26Q169-18 174.50-5.50Q180 7 179 21L179 21Q173 35 156 70Q139 105 108 160L108 160ZM232 16L232 16Q240-19 263-5L263-5Q289 15 289 47L289 47Q289 73 200 183L200 183L187 176Q206 113 217.50 74.50Q229 36 232 16Z"/></svg>