<svg id="U26E44" viewBox="0 0 1000 1000"><path transform="translate(0, 900) scale(1,-1)" d="M208 122C222 66 234-5 237-53L294-41C291 6 278 76 263 132ZM96 130C88 62 74-10 49-60C64-63 91-71 104-76C128-27 145 49 154 122ZM321 138C347 87 373 21 382-23L438-7C427 36 400 102 372 152ZM57 761L57 696L289 696L289 622L362 622L362 696L468 696L468 761L362 761L362 841L289 841L289 761ZM530 761L530 696L636 696L636 619L711 619L711 696L945 696L945 761L711 761L711 841L636 841L636 761ZM77 168C96 177 130 183 367 210C375 189 381 169 384 153L439 175C429 222 398 295 365 350L314 331C325 310 336 286 346 263L180 246C259 316 338 403 407 495L345 527C324 495 299 464 275 434L162 426C208 478 254 542 292 607L227 631C189 552 125 469 106 449C88 427 72 413 56 410C64 396 74 366 77 353C92 359 115 364 223 374C183 328 147 293 130 278C99 249 75 231 53 227C62 210 73 180 77 168ZM488 251L488-78L557-78L557-42L841-42L841-76L911-76L911 251ZM557 23L557 189L841 189L841 23ZM464 587L464 523L610 523C590 435 548 358 436 314C451 303 470 278 477 260C606 317 656 410 679 523L852 523C842 417 831 372 815 357C807 350 799 348 782 348C766 348 723 349 679 353C689 335 696 307 698 287C743 285 787 285 811 287C836 288 855 294 871 311C896 337 910 400 923 557C924 566 925 587 925 587Z"/></svg>