<svg id="U26148" viewBox="0 0 1024 1024"><path transform="translate(0, 921.6) scale(1,-1)" d="M263 751L263 751L200 808Q176 693 131 609L131 609Q96 519 63 515L63 515L92 445Q106 454 121 463Q136 472 150 477L150 477Q162 482 184 488Q206 494 238 499L238 499Q209 448 181.50 407Q154 366 128 339L128 339Q85 278 63 278L63 278L98 197Q108 203 123 212Q138 221 159 229L159 229Q192 245 298 275L298 275Q303 254 305.50 239.50Q308 225 314 216L314 216Q317 194 336 213L336 213Q354 235 354 275L354 275Q354 310 257 401L257 401L245 396Q261 362 271.50 336.50Q282 311 289 294L289 294L117 275Q181 342 248 452L248 452Q323 563 330 563L330 563L282 625Q272 596 264.50 572Q257 548 245 527L245 527L117 515Q141 555 162.50 591Q184 627 204 669L204 669Q238 745 263 751ZM490 688L490 688L330 688L364 653Q381 658 399 659Q417 660 436 663L436 663L490 663L490 556L367 556L402 524Q418 526 435.50 528Q453 530 474 530L474 530L680 530L626 603L582 556L537 556L537 663L717 663L667 729L619 688L537 688L537 741L559 770L484 808Q484 774 487 744Q490 714 490 688ZM647 414L647 414L673 439L619 486L594 452L428 452L380 486Q382 441 382.50 405.50Q383 370 383 342L383 342Q383 318 382.50 284Q382 250 380 213L380 213L428 229L428 260L597 260L597 222L651 241Q648 273 647.50 316Q647 359 647 414ZM428 285L428 427L597 427L597 285L428 285ZM415 203L415 203L402 197Q416 165 426 136.50Q436 108 443 83L443 83Q447 30 480 67L480 67Q508 105 484 140L484 140Q460 167 415 203ZM654 181L582 219Q579 189 571.50 149.50Q564 110 550 59L550 59Q493 39 440 25Q387 11 336 5L336 5L377-54Q396-37 479-4Q562 29 711 80L711 80L708 99L572 64Q593 112 615 140.50Q637 169 654 181L654 181ZM944 745L878 802Q865 771 846 738Q827 705 802 669L802 669Q775 627 745 593.50Q715 560 680 527L680 527L688 509Q775 568 906 729L906 729L944 745ZM947 493L884 550Q867 508 841.50 471.50Q816 435 786 393L786 393Q753 350 721.50 316.50Q690 283 660 260L660 260L673 244Q718 273 776 331Q834 389 909 477L909 477L947 493ZM960 222L899 278Q849 188 770 105L770 105Q678 8 559-69L559-69L569-82Q735-10 922 213L922 213L960 222ZM92 156L83 146Q90 86 93.50 47Q97 8 92-9L92-9Q92-46 108-50L108-50Q124-50 140-28L140-28Q154-4 150 21L150 21Q148 34 133 67.50Q118 101 92 156L92 156ZM204 8L204 8Q207-22 228-6L228-6Q251 14 251 46L251 46Q251 70 179 178L179 178L166 175Q204 46 204 8ZM257 203L248 197Q291 102 302 59L302 59Q311 2 330 42L330 42Q349 65 346 103L346 103Q340 135 257 203L257 203Z"/></svg>