<svg id="U260B" viewBox="0 0 836 1000"><path transform="translate(0, 900) scale(1,-1)" d="M418 8L418 8Q301 8 219 44Q137 80 94 144Q51 208 51 291L51 291Q51 381 111 472L111 472Q67 516 67 577L67 577Q67 618 87 651.50Q107 685 140.50 705Q174 725 215 725L215 725Q256 725 289.50 705Q323 685 343 651.50Q363 618 363 577L363 577Q363 536 343 502.50Q323 469 289.50 449Q256 429 215 429L215 429Q201 429 187.50 432Q174 435 161 439L161 439Q137 402 125.50 364.50Q114 327 114 291L114 291Q114 193 193.50 132Q273 71 418 71L418 71Q516 71 583.50 99Q651 127 686.50 176.50Q722 226 722 291L722 291Q722 329 710.50 366Q699 403 675 439L675 439Q661 435 647.50 432Q634 429 621 429L621 429Q580 429 546.50 449Q513 469 493 502.50Q473 536 473 577L473 577Q473 618 493 651.50Q513 685 546.50 705Q580 725 621 725L621 725Q662 725 695.50 705Q729 685 749 651.50Q769 618 769 577L769 577Q769 515 725 471L725 471Q785 380 785 291L785 291Q785 208 742 144Q699 80 617 44Q535 8 418 8ZM215 489L215 489Q252 489 277.50 514.50Q303 540 303 577L303 577Q303 614 277.50 639.50Q252 665 215 665L215 665Q178 665 152.50 639Q127 613 127 577L127 577Q127 540 152.50 514.50Q178 489 215 489ZM621 489L621 489Q658 489 683.50 514.50Q709 540 709 577L709 577Q709 614 683 639.50Q657 665 621 665L621 665Q584 665 558.50 639.50Q533 614 533 577L533 577Q533 540 558.50 514.50Q584 489 621 489Z"/></svg>