<svg id="U26C29" viewBox="0 0 1000 1000"><path transform="translate(0, 900) scale(1,-1)" d="M309 538L465 538L465 425L309 425ZM536 538L698 538L698 425L536 425ZM234 302L234 244L464 244C463 219 459 194 452 170L181 170L181 112L424 112C383 54 305 5 153-26C167-41 187-68 194-83C370-41 457 26 500 104C558 7 660-55 795-83C804-63 823-36 839-21C718-3 622 41 567 112L821 112L821 170L525 170C531 194 534 219 535 244L778 244L778 302L536 302L536 365L769 365L769 596L241 596L241 365L465 365L465 302ZM596 840L596 756L410 756L410 840L341 840L341 756L180 756L180 696L341 696L341 626L410 626L410 696L596 696L596 626L666 626L666 696L826 696L826 756L666 756L666 840Z"/></svg>