<svg id="U26ED3" viewBox="0 0 1000 1000"><path transform="translate(0, 900) scale(1,-1)" d="M524 523L823 523L823 411L524 411ZM456 585L456 349L893 349L893 585ZM57 756L57 690L279 690L279 622L353 622L353 690L468 690L468 756L353 756L353 840L279 840L279 756ZM530 756L530 690L646 690L646 619L721 619L721 690L945 690L945 756L721 756L721 840L646 840L646 756ZM366 603C297 576 172 552 68 538C76 522 85 500 87 484C127 488 170 494 213 501L213 396L54 396L54 331L201 331C160 243 94 146 35 95C47 77 63 47 70 27C120 75 172 154 213 236L213-80L283-80L283 251C316 208 356 152 371 123L414 184C395 208 308 301 283 324L283 331L423 331L423 396L283 396L283 514C330 524 374 535 410 548ZM861 331C760 306 579 290 430 284C438 268 446 243 448 227C508 229 573 232 638 237L638 152L435 152L435 90L638 90L638 12L403 12L403-50L950-50L950 12L710 12L710 90L907 90L907 152L710 152L710 244C781 251 847 261 900 273Z"/></svg>