<svg id="U26B1F" viewBox="0 0 1024 1024"><path transform="translate(0, 921.6) scale(1,-1)" d="M133 583L133 583L110 573L158 528L190 558L270 558Q251 437 85 385L85 385L91 368Q297 409 324 558L324 558L408 558L408 538L462 558L462 711L487 733L404 756Q407 724 407.50 681Q408 638 408 583L408 583L328 583L328 771L350 797L270 816Q274 782 275 723Q276 664 276 583L276 583L186 583L186 711L206 730L129 756Q132 727 132.50 684Q133 641 133 583ZM557 535L584 554L680 554Q680 500 678.50 461Q677 422 677 400L677 400L737 423Q734 441 734 474L734 474Q734 508 734 554L734 554L837 554L837 528L894 548Q891 576 890.50 614Q890 652 890 698L890 698L910 721L833 749Q833 713 835 670.50Q837 628 837 580L837 580L734 580L734 759L760 781L677 816Q677 784 678.50 725.50Q680 667 680 580L680 580L584 580L584 701L606 721L526 749Q526 713 529 676Q532 639 532 596L532 596L514 580L557 535ZM283 343L855 343L795 416L743 368L168 368L206 337Q224 339 244 341Q264 343 283 343L283 343ZM843 237L55 237L91 202Q112 204 130 206.50Q148 209 168 209L168 209L331 209Q331 143 286 67L286 67Q248-10 60-74L60-74L64-90Q238-57 315 20L315 20Q385 88 394 209L394 209L632 209Q632 127 628.50 53.50Q625-20 625-90L625-90L692-64Q687-38 686.50 29.50Q686 97 686 209L686 209L968 209L907 289L843 237Z"/></svg>