<svg id="U260DB" viewBox="0 0 1024 1024"><path transform="translate(0, 921.6) scale(1,-1)" d="M108 178L92 175Q99 109 102.50 70.50Q106 32 98 14L98 14Q88-23 108-28L108-28Q125-34 143-16L143-16Q163 4 163 33L163 33Q157 52 143.50 86.50Q130 121 108 178L108 178ZM207 30L207 30Q211-10 232 8L232 8Q261 37 261 64L261 64Q261 81 242 113Q223 145 191 197L191 197L181 188Q195 130 201 93Q207 56 207 30ZM279 226L266 219Q290 165 300.50 129.50Q311 94 317 67L317 67Q321 22 346 49L346 49Q366 76 361 111L361 111Q356 138 279 226L279 226ZM266 761L266 761L207 808Q192 757 175 709.50Q158 662 135 622L135 622Q97 532 70 527L70 527L96 461Q110 470 124 476Q138 482 153 489L153 489Q170 494 191 497.50Q212 501 235 509L235 509Q212 458 186 420.50Q160 383 135 354L135 354Q85 294 70 294L70 294L98 219Q150 265 302 291L302 291Q304 271 305.50 260Q307 249 310 237L310 237Q318 217 330 229L330 229Q348 241 348 291L348 291Q352 333 261 417L261 417L248 411Q273 356 292 311L292 311L117 291Q193 366 254 468L254 468Q326 568 339 568L339 568L289 632Q281 605 270.50 581.50Q260 558 248 534L248 534L117 527Q141 565 165.50 602.50Q190 640 210 682L210 682Q250 757 266 761ZM515 767L449 805Q447 782 439 756Q431 730 418 701L418 701Q406 670 388.50 637.50Q371 605 346 578L346 578L358 568Q426 627 456 685L456 685Q469 710 483.50 730Q498 750 515 767L515 767ZM556 792L556 792L544 782Q567 744 585 711.50Q603 679 613 650L613 650Q636 591 651 606Q666 621 670 644L670 644Q670 670 654 701L654 701Q642 715 619 737Q596 759 556 792ZM550 603L550 603L565 615L500 653Q490 604 479 558.50Q468 513 449 471L449 471Q427 387 351 304L351 304L364 294Q394 322 417.50 347Q441 372 456 401L456 401Q470 428 487 464.50Q504 501 525 546L525 546Q560 485 584 442Q608 399 619 373L619 373Q648 320 657 339L657 339Q673 356 673 389L673 389Q673 420 654 442L654 442Q642 454 613.50 485Q585 516 534 565L534 565Q538 588 550 603ZM465 42L465 263L585 263L585 42L465 42ZM418-82L418-82L465-54L465 14L585 14L585-54L638-28Q636 3 635.50 38Q635 73 635 111L635 111L635 257L660 275L597 332L575 291L465 291L418 319Q420 286 420.50 245Q421 204 421 159L421 159Q421 108 420.50 49.50Q420-9 418-82ZM701-82L752-50L752 707L871 707L811 471Q869 385 875 332L875 332Q879 306 880 283Q881 260 881 244L881 244Q871 216 843 216L843 216Q824 218 807 218.50Q790 219 773 222L773 222L773 206Q831 187 837 137L837 137Q883 146 906 178L906 178Q923 200 931 247L931 247Q931 303 912 345L912 345Q902 373 881.50 402.50Q861 432 834 468L834 468L925 701L953 720L906 767L881 732L745 732L701 767Q701 707 704.50 603Q708 499 708 345L708 345Q708 194 704.50 89Q701-16 701-82L701-82Z"/></svg>