<svg id="U2667E" viewBox="0 0 1000 1000"><path transform="translate(0, 900) scale(1,-1)" d="M103 792L103 435C103 289 98 90 31-51C49-57 78-74 92-85C135 8 155 131 163 248L302 248L302 8C302-6 298-11 285-11C273-11 233-12 189-10C198-30 208-62 210-81C275-81 313-80 338-67C363-56 371-33 371 6L371 792ZM169 724L302 724L302 558L169 558ZM169 489L302 489L302 318L167 318C168 359 169 399 169 435ZM814 715C781 649 734 592 679 545C622 593 577 650 547 715ZM421 783L421 715L531 715L479 700C514 624 563 557 623 502C553 454 472 418 389 395C404 379 422 352 431 334C520 363 606 402 680 455C751 404 834 365 928 341C938 360 958 389 974 404C885 423 805 456 738 501C814 569 876 655 914 764L865 786L851 783ZM640 388L640 247L449 247L449 178L640 178L640 12L396 12L396-57L965-57L965 12L712 12L712 178L910 178L910 247L712 247L712 388Z"/></svg>