<svg id="U26668" viewBox="0 0 1024 1024"><path transform="translate(0, 921.6) scale(1,-1)" d="M202 33L202 33L202 18Q312-11 312-65L312-65Q362-52 379-21L379-21Q400 3 400 67L400 67L400 738L431 764L372 808L341 770L189 770L136 802Q142 740 142 499L142 499Q146 258 127 134L127 134Q119 77 102.50 26.50Q86-24 62-78L62-78L75-82Q150 11 164 96L164 96Q176 147 181 195Q186 243 189 298L189 298L350 298L350 70Q350 18 315 18L315 18Q301 21 272.50 24Q244 27 202 33ZM189 543L189 745L350 745L350 543L189 543ZM189 326L189 518L350 518L350 326L189 326ZM683 115L683 319L879 319Q855 108 835 108L835 108Q820 108 794 111.50Q768 115 731 128L731 128L728 108Q816 74 816 26L816 26Q869 40 895 93L895 93Q904 119 913 175Q922 231 932 316L932 316L961 335L907 386L879 345L683 345L683 515L839 515L839 483L895 512Q889 547 888.50 597Q888 647 888 713L888 713L927 735L866 789L835 751L441 751L476 713Q492 716 509.50 719.50Q527 723 549 723L549 723L631 723L631 540L517 540L470 578Q463 545 459 508Q455 471 451 433L451 433Q435 352 403 335L403 335L451 285L476 319L631 319L631 108Q631 65 629 22Q627-21 627-75L627-75L687-47Q684 1 683.50 40Q683 79 683 115L683 115ZM683 540L683 723L839 723L839 540L683 540ZM517 515L517 515L631 515L631 345L485 345Q490 375 499 417.50Q508 460 517 515Z"/></svg>