<svg id="U266FB" viewBox="0 0 1024 1024"><path transform="translate(0, 921.6) scale(1,-1)" d="M180 26L180 26L180 11Q267-13 271-65L271-65Q314-53 335-28L335-28Q346-1 346 55L346 55L346 710L369 732L322 776L297 738L168 738L117 770Q121 743 122.50 670.50Q124 598 127 480L127 480Q127 362 123.50 275Q120 188 112 134L112 134Q105 75 92 24.50Q79-26 59-69L59-69L72-75Q102-32 119 10.50Q136 53 145 96L145 96Q152 141 158.50 189Q165 237 168 288L168 288L303 288L303 59Q303 11 271 11L271 11Q257 13 235 16.50Q213 20 180 26ZM168 524L168 713L303 713L303 524L168 524ZM168 316L168 499L303 499L303 316L168 316ZM530 111L530 111L530 396Q548 354 561.50 323.50Q575 293 580 272L580 272Q593 233 611 270L611 270Q635 301 614 339L614 339Q602 354 582 374Q562 394 530 417L530 417L530 540L637 540L593 597L555 565L530 565L530 726L557 751L479 786Q479 713 480.50 657Q482 601 482 565L482 565L362 565L397 530Q436 540 479 540L479 540Q440 271 350 128L350 128L362 118Q449 219 482 348L482 348Q482 236 480 129Q478 22 476-78L476-78L533-47Q530 8 530 49L530 49Q530 90 530 111ZM649 458L637 448Q662 400 675 361Q688 322 690 291L690 291Q699 218 728 247L728 247Q751 274 747 319L747 319Q739 338 716.50 371Q694 404 649 458L649 458ZM798 691L798 691L798 565L621 565L655 534Q672 536 689.50 538Q707 540 728 540L728 540L798 540L798 33Q798 2 765 2L765 2Q749 2 720.50 2.50Q692 3 652 8L652 8L652-6Q751-20 757-78L757-78Q847-50 847 36L847 36L847 540L965 540L907 609L866 565L847 565L847 745L879 767L794 805Q794 762 796 733.50Q798 705 798 691Z"/></svg>