<svg id="U26640" viewBox="0 0 1024 1024"><path transform="translate(0, 921.6) scale(1,-1)" d="M216 60L216 60L213 44Q331 13 326-33L326-33Q378-14 392 6L392 6Q415 29 415 85L415 85L415 722L446 743L387 787L354 749L207 749L150 784Q152 755 154 682Q156 609 156 491L156 491Q161 249 138 139L138 139Q123 84 106.50 34.50Q90-15 63-64L63-64L76-70Q149 18 172 104L172 104Q186 149 193.50 197Q201 245 207 296L207 296L364 296L364 88Q364 44 330 44L330 44Q315 46 287 49.50Q259 53 216 60ZM207 535L207 725L364 725L364 535L207 535ZM207 321L207 507L364 507L364 321L207 321ZM871 491L871 491L906 517L843 566L818 532L547 532L547 689Q703 706 793 717Q883 728 909 728L909 728L843 797Q800 739 547 712L547 712L493 746Q503 489 493 347L493 347Q491 275 482 215Q473 155 459 107L459 107Q432 20 371-55L371-55L383-67Q432-18 468 37Q504 92 518 164L518 164Q547 309 547 504L547 504L588 504Q610 300 685 160L685 160Q596 42 430-52L430-52L440-64Q622 12 720 119L720 119Q769 37 893-45L893-45Q920 0 960 0L960 0L960 13Q813 51 752 154L752 154Q825 283 871 491ZM606 504L606 504L818 504Q783 310 720 201L720 201Q639 319 606 504Z"/></svg>