<svg id="U26A26" viewBox="0 0 1024 1024"><path transform="translate(0, 921.6) scale(1,-1)" d="M337 764L359 787L283 822Q283 790 282.50 763Q282 736 279 712L279 712L126 712L161 681Q177 683 195 685Q213 687 234 687L234 687L276 687Q268 636 248 592Q228 548 196 508L196 508Q162 466 134.50 443Q107 420 84 409L84 409L90 393Q220 452 266 527L266 527Q323 610 327 687L327 687L456 687Q453 658 451.50 635Q450 612 446 597L446 597Q443 581 440.50 566.50Q438 552 436 543L436 543Q427 531 421.50 522Q416 513 404 511L404 511Q382 500 314 511L314 511L314 492Q343 487 363 476L363 476Q380 468 388 444L388 444Q440 455 471 489L471 489Q480 505 490.50 556.50Q501 608 507 687L507 687L539 707L481 751L459 712L334 712L337 764ZM574 447L574 447L632 466L632 489L810 489L810 447L862 469Q859 499 858.50 520Q858 541 858 562L858 562L858 690L893 722L836 770L800 729L632 729L574 761Q574 722 575.50 682Q577 642 577 604L577 604Q577 560 575.50 520Q574 480 574 447ZM632 514L632 704L810 704L810 514L632 514ZM279 319L279 210L48 210L81 175Q97 177 114.50 179.50Q132 182 151 182L151 182L279 182Q276 145 260.50 111.50Q245 78 218 41L218 41Q192 8 154.50-21Q117-50 67-79L67-79L69-95Q188-50 260 22L260 22Q291 59 309.50 98.50Q328 138 334 182L334 182L717 182L717 22Q717-8 689-8L689-8Q669-8 643.50-7.50Q618-7 580-5L580-5L580-24Q597-27 615-31.50Q633-36 650-43L650-43Q687-57 692-95L692-95Q768-63 772 7L772 7L772 182L955 182L893 258L840 210L772 210L772 351L800 374L740 428L712 380L471 380L512 434L545 454L474 492Q469 457 439 380L439 380L334 380L276 416Q278 386 278.50 363Q279 340 279 319L279 319ZM334 210L334 355L717 355L717 210L334 210ZM439 345L439 345L436 329Q501 284 516 243L516 243Q529 204 554 233L554 233Q577 267 564 291L564 291Q554 315 439 345ZM436 153L436 153L426 137Q463 117 483.50 95.50Q504 74 516 50L516 50Q531 3 557 38L557 38Q582 71 557 102L557 102Q530 128 436 153Z"/></svg>