<svg id="U2619B" viewBox="0 0 1024 1024"><path transform="translate(0, 921.6) scale(1,-1)" d="M619 476L562 476Q572 340 402 314L402 314L405 296Q512 306 562 347L562 347Q614 384 619 476L619 476ZM600 787L600 787L591 778Q609 756 620.50 741.50Q632 727 641 718L641 718Q657 687 670 709L670 709Q685 728 680 746L680 746Q672 768 600 787ZM647 573L647 573L641 561Q653 549 663 535Q673 521 682 510L682 510Q700 481 714 504L714 504Q728 521 717 542L717 542Q698 559 647 573ZM745 664L745 664L742 658Q794 614 805 604L805 604Q818 582 834 602L834 602Q842 615 830 643L830 643Q816 664 745 664ZM503 677L503 677L493 664Q512 647 523 633Q534 619 544 607L544 607Q548 596 555.50 594.50Q563 593 569 604L569 604Q581 617 572 643L572 643Q567 658 503 677ZM780 722L780 722L818 730L758 784Q725 725 667 671L667 671L541 728L531 715L641 640Q609 605 576.50 576.50Q544 548 510 526L510 526L518 510Q556 533 595.50 557.50Q635 582 670 611L670 611Q699 591 720 572Q741 553 752 535L752 535Q771 501 786 526L786 526Q805 551 796 573L796 573Q792 593 704 646L704 646Q721 666 740.50 685Q760 704 780 722ZM909 583L909 699L937 730L855 769Q855 733 856.50 699Q858 665 858 630L858 630L858 491L480 491L480 728L510 746L428 781Q430 752 430 729L430 729Q430 707 430 687L430 687L430 507L402 488L449 444L480 466L858 466L858 438L912 466Q909 494 909 523L909 523Q909 552 909 583L909 583ZM651 312L651 312L591 350Q575 302 525 252L525 252L500 274L487 262L506 229Q452 174 389 126L389 126L395 113Q433 129 466 149.50Q499 170 528 195L528 195Q551 160 578.50 130Q606 100 638 75L638 75Q514-11 339-64L339-64L346-77Q434-63 514.50-32.50Q595-2 670 44L670 44Q775-40 896-77L896-77Q896-41 956-36L956-36L956-14Q801 6 714 75L714 75Q742 105 774 142Q806 179 840 224L840 224L875 239L821 296L786 271L600 271Q614 285 627.50 295Q641 305 651 312ZM550 214L582 242L783 242Q740 160 670 104L670 104Q601 154 550 214L550 214ZM720 476L720 394Q710 312 773 312L773 312L884 312Q934 312 934 327L934 327Q934 334 915 353L915 353Q892 364 884 359L884 359Q878 353 843 353L843 353L814 353Q767 353 767 388L767 388L767 476L720 476ZM117-11L117-11Q117-50 140-29L140-29Q172-6 172 19L172 19Q178 48 104 157L104 157L96 148Q120 35 117-11ZM222 41L222 41Q229 5 254 10L254 10Q277 21 273 63L273 63Q266 109 184 183L184 183L179 173Q197 122 208.50 91Q220 60 222 41ZM276 214L269 201Q328 107 333 69L333 69Q342 27 367 57L367 57Q388 73 383 113L383 113Q370 138 276 214L276 214ZM269 743L307 762L228 803Q214 752 194 707Q174 662 150 614L150 614Q104 523 76 532L76 532L108 463Q125 472 163 485Q201 498 261 510L261 510Q231 465 203.50 426Q176 387 150 353L150 353Q101 287 67 293L67 293L98 221Q117 229 137.50 237Q158 245 181 255L181 255Q236 266 326 290L326 290Q331 275 333.50 263Q336 251 339 239L339 239Q351 221 367 236L367 236Q389 243 389 283L389 283Q389 318 276 419L276 419L269 409Q306 349 320 309L320 309L122 290Q213 365 354 561L354 561L389 566L326 627Q314 601 302 578.50Q290 556 276 532L276 532L131 529Q161 569 194 621.50Q227 674 269 743L269 743Z"/></svg>