<svg id="U26C7C" viewBox="0 0 1024 1024"><path transform="translate(0, 921.6) scale(1,-1)" d="M758 218L547 218L547 296L780 296L780 262L840 286L834 350L834 409L858 432L805 479L777 440L547 440L547 535L922 535L862 607L799 563L251 563L191 595Q195 380 191 286L191 286Q183 187 163 110L163 110Q155 65 131.50 23Q108-19 73-64L73-64L83-74Q199 39 228 157L228 157Q255 268 251 535L251 535L493 535L493 428L490 396L547 409L547 416L780 416L780 321L537 321L490 340L493 299L493 218L493 195L490 160L547 180L547 188L723 188Q487 60 469 19L469 19Q457-19 480-33L480-33Q499-51 537-55L537-55L881-55Q924-51 950-11L950-11Q899-2 899 116L899 116L881 116Q881 31 875 6L875 6Q864-11 824-11L824-11L565-11Q524-6 537 13L537 13Q548 37 676 110L676 110Q798 186 852 186L852 186L805 245L758 218ZM387 435L408 460L326 494Q329 449 329.50 409Q330 369 330 334L330 334Q330 262 327 204.50Q324 147 317 104L317 104Q306 12 225-74L225-74L232-83Q326-25 354 63L354 63Q388 151 387 435L387 435ZM513 664L469 722L415 689L387 689L387 753L411 781L330 810Q332 788 332.50 758Q333 728 333 689L333 689L111 689L138 655Q175 664 216 664L216 664L333 664Q333 643 332.50 621Q332 599 330 573L330 573L389 589Q387 609 387 629L387 629Q387 649 387 664L387 664L513 664ZM629 668L663 668Q663 658 661.50 635.50Q660 613 660 573L660 573L720 602Q717 622 717 639L717 639Q717 656 717 668L717 668L937 668L887 728L834 692L717 692L717 753L745 781L660 807Q660 787 661.50 758.50Q663 730 663 692L663 692L531 692L562 655Q597 668 629 668L629 668Z"/></svg>