<svg id="U26FFF" viewBox="0 0 1024 1024"><path transform="translate(0, 921.6) scale(1,-1)" d="M596 677L602 677L644 677Q641 664 638 642Q635 620 628 584L628 584L689 603Q689 629 692.50 646.50Q696 664 699 677L699 677L944 677L886 751L835 703L702 703L709 771L738 793L654 833Q654 814 652.50 781Q651 748 644 703L644 703L515 703L547 671Q571 675 583.50 676Q596 677 596 677L596 677ZM160 451L160 451Q116 384 91 384L91 384L122 322Q144 336 179 346Q214 356 264 364L264 364Q241 334 215 305.50Q189 277 160 248L160 248Q112 203 85 203L85 203L122 135Q154 152 208.50 169Q263 186 341 203L341 203Q346 186 348.50 173Q351 160 357 148L357 148Q361 129 386 155L386 155Q419 187 389 219L389 219Q381 237 359 257.50Q337 278 302 303L302 303L289 293Q305 271 315 253.50Q325 236 335 219L335 219L151 200Q205 238 261 292.50Q317 347 377 419L377 419L409 435L348 487Q330 454 314.50 432Q299 410 286 397L286 397L164 387Q192 423 218 457.50Q244 492 264 535L264 535L302 551L231 600Q214 555 196.50 517.50Q179 480 160 451ZM231 119L222 113Q260 33 260-11L260-11Q260-48 289-34L289-34Q323-10 310 23L310 23Q296 66 231 119L231 119ZM386 23L386 23Q401-15 422 3L422 3Q449 29 428 61L428 61Q420 78 396.50 95.50Q373 113 335 139L335 139L325 126Q377 67 386 23ZM667 248L599 297Q587 267 576.50 241Q566 215 557 193L557 193L406 193L444 158Q461 160 481.50 162Q502 164 523 164L523 164L544 164L489 74Q530 62 564 53.50Q598 45 628 39L628 39Q547-23 348-72L348-72L351-88Q558-70 689 23L689 23Q745 4 783-15.50Q821-35 841-53L841-53Q878-86 896-69L896-69Q903-49 893-20L893-20Q885-6 870.50 1.50Q856 9 838 19L838 19Q816 24 788 34.50Q760 45 722 55L722 55Q742 75 762 102Q782 129 805 164L805 164L960 164L896 234L854 193L818 193L841 216L776 242Q769 230 763.50 216Q758 202 754 193L754 193L618 193L644 234L667 248ZM667 65L544 87L599 164L744 164Q727 135 708 111.50Q689 88 667 65L667 65ZM886 264L886 264Q934 226 934 264L934 264Q934 304 905 332L905 332Q890 341 839 361.50Q788 382 699 406L699 406L699 423L964 423L902 487L847 451L699 451L699 526L841 551L886 555L838 622Q728 566 454 532L454 532L451 513Q549 513 641 522L641 522L641 451L406 451L441 416Q458 418 477.50 420.50Q497 423 523 423L523 423L580 423Q545 349 396 245L396 245L402 232Q480 265 539.50 310Q599 355 641 406L641 406L641 264L699 287L699 387Q770 345 816.50 313Q863 281 886 264ZM399 703L357 703L351 771L370 800L283 833Q287 808 293 776.50Q299 745 302 703L302 703L79 703L114 664Q143 677 206 677L206 677L306 677Q309 653 309.50 630.50Q310 608 310 584L310 584L367 603Q364 624 362 642Q360 660 360 677L360 677L509 677L454 745L399 703ZM108 93L98 84Q141 6 141-40L141-40Q141-86 177-72L177-72Q212-48 199-11L199-11Q186 24 108 93L108 93Z"/></svg>