<svg id="U26884" viewBox="0 0 1024 1024"><path transform="translate(0, 921.6) scale(1,-1)" d="M564 458L564 384L615 410L615 746L642 775L561 807L564 755L564 701L389 701L424 666Q440 668 457.50 672Q475 676 497 676L497 676L564 676L564 592L408 592L443 561Q460 563 477.50 565Q495 567 517 567L517 567L564 567L564 484L389 484L424 448Q440 450 457.50 454Q475 458 497 458L497 458L564 458ZM760 404L760 471L961 471L910 531L872 499L760 499L760 570L935 570L878 637L837 599L760 599L760 679L948 679L897 742L855 704L760 704L760 755L785 778L705 807L712 701L712 599L712 490L712 439L705 388L760 404ZM622 446L622 446L615 433Q635 404 648 384Q661 364 664 349L664 349Q678 318 686 327L686 327Q695 329 700.50 337Q706 345 712 353L712 353Q719 375 705 391L705 391Q697 401 676 415Q655 429 622 446ZM660 263L660 263Q665 231 674.50 198Q684 165 702 135L702 135Q717 103 737 74.50Q757 46 779 20L779 20Q804-5 832-25Q860-45 894-61L894-61Q920-11 961-20L961-20L968-4Q852 14 760 115L760 115Q819 152 859 169.50Q899 187 920 190L920 190L872 247Q862 233 848 217.50Q834 202 817 186L817 186Q795 167 778.50 153.50Q762 140 750 132L750 132Q724 164 706 200.50Q688 237 677 273L677 273L692 288L958 288L897 363L840 314L394 314L431 282Q449 284 466.50 286Q484 288 507 288L507 288L615 288Q568 218 510 155.50Q452 93 376 35L376 35L379 26Q480 70 558 148L558 148L558-8Q558-34 539-52L539-52L580-100Q601-60 734 32L734 32L722 48L606-10L606 193Q617 209 630.50 226Q644 243 660 263ZM183 6L183 6L183-10Q286-39 286-96L286-96Q336-76 350-52L350-52Q369-25 369 32L369 32L369 707L401 730L347 781L318 742L178 742L120 775Q122 747 122.50 674.50Q123 602 123 481L123 481Q125 358 122.50 270.50Q120 183 113 128L113 128Q103 12 55-91L55-91L67-96Q103-44 123.50 2.50Q144 49 151 90L151 90Q161 135 164.50 184Q168 233 171 285L171 285L321 285L321 35Q321-10 286-10L286-10Q271-8 245.50-4.50Q220-1 183 6ZM171 526L171 717L321 717L321 526L171 526ZM171 311L171 499L321 499L321 311L171 311Z"/></svg>