<svg id="U26BC4" viewBox="0 0 1024 1024"><path transform="translate(0, 921.6) scale(1,-1)" d="M176 489L399 489L399 393L255 393L197 411L197 197L173 181L217 128L242 152L371 152Q340 83 264.50 30.50Q189-22 77-65L77-65L78-85Q187-59 263-21.50Q339 16 377 70L377 70Q457 170 453 342L453 342L453 489L569 489L569 23Q569 0 567.50-28Q566-56 566-82L566-82L626-50Q623-31 623-9L623-9Q623 12 623 33L623 33L623 152L783 152L783 121L840 144Q837 161 837 177L837 177Q837 194 837 209L837 209L837 345L872 367L818 424L787 393L623 393L623 489L954 489L893 559L837 515L70 515L103 480Q119 482 136.50 485.50Q154 489 176 489L176 489ZM251 363L399 363Q403 312 397.50 265.50Q392 219 381 181L381 181L251 181L251 363ZM783 363L783 181L623 181L623 363L783 363ZM513 650L459 726L412 676L349 676L349 748L374 779L289 811Q291 789 291.50 755Q292 721 292 676L292 676L88 676L125 638Q161 650 223 650L223 650L292 650Q292 621 291.50 592.50Q291 564 289 537L289 537L352 559Q349 585 349 608L349 608Q349 631 349 650L349 650L513 650ZM516 682L554 644Q579 653 623 653L623 653L657 653Q657 637 654 608.50Q651 580 651 540L651 540L718 565Q712 589 711.50 611.50Q711 634 711 653L711 653L937 653L881 729L834 682L711 682L711 748L742 773L651 811Q651 779 654 748Q657 717 657 682L657 682L516 682Z"/></svg>