<svg id="U26665" viewBox="0 0 1024 1024"><path transform="translate(0, 921.6) scale(1,-1)" d="M186 39L186 39L186 26Q284 0 284-57L284-57Q326-37 346-16L346-16Q369 16 369 70L369 70L369 726L394 748L338 792L312 754L180 754L127 786Q131 760 132 687Q133 614 133 493L133 493Q135 369 129.50 281.50Q124 194 117 137L117 137Q105 28 65-65L65-65L78-69Q139 11 158 105L158 105Q165 150 171 197Q177 244 180 298L180 298L318 298L318 74Q318 26 290 26L290 26Q275 29 249 31.50Q223 34 186 39ZM180 537L180 729L318 729L318 537L180 537ZM180 323L180 512L318 512L318 323L180 323ZM379 339L379 339L420 278Q426 287 452 306.50Q478 326 526 348L526 348L526 39Q526 22 505 18L505 18Q495 18 467 20Q439 22 394 30L394 30L394 14Q482-9 492-62L492-62Q540-42 555-28L555-28Q574-9 574 26L574 26L574 376L690 448L687 465L574 411L574 527L598 556L561 578Q577 605 595 627.50Q613 650 631 672L631 672Q647 686 661 699.50Q675 713 687 726L687 726L631 786L605 751L397 751L431 717Q448 719 465.50 720Q483 721 505 726L505 726L608 726Q591 690 574.50 654.50Q558 619 542 584L542 584L523 600Q523 558 524.50 523.50Q526 489 526 461L526 461L526 396Q440 349 379 339ZM788-41L788-41L876-41Q933-41 958 14L958 14Q940 22 930 34Q920 46 920 67L920 67Q917 84 915.50 112Q914 140 914 175L914 175L895 175Q892 137 889 103Q886 69 886 49L886 49Q881-1 854 2L854 2L813 2Q769 0 769 64L769 64L769 729L794 754L719 795Q719 744 720 689.50Q721 635 721 578L721 578L721 39Q721-41 788-41Z"/></svg>