<svg id="U26AD0" viewBox="0 0 1024 1024"><path transform="translate(0, 921.6) scale(1,-1)" d="M202 442L227 401Q260 417 315 417L315 417L420 417L369 477L328 442L202 442ZM215 5L215 5L215-13Q302-31 309-82L309-82Q345-67 369-49.50Q393-32 401-6L401-6Q420 45 438 146L438 146L471 168L417 222L382 185L215 185L256 285L517 285L461 357L413 311L78 311L108 278Q143 285 181 285L181 285L202 285L165 190L140 185L181 131L212 159L389 159Q381 108 373.50 76.50Q366 45 360 26L360 26Q345-6 319-6L319-6Q305-5 279-2.50Q253 0 215 5ZM495 568L526 578L471 628Q456 580 401 502L401 502L413 496Q459 521 495 568L495 568ZM181 477L181 477Q205 524 89 581L89 581L80 571Q98 548 114 525.50Q130 503 140 477L140 477Q154 418 181 477ZM719 77L605 18L605 326L672 326Q694 156 750 74L750 74Q778 28 814-4.50Q850-37 895-65L895-65Q910-20 965-13L965-13L965 0Q829 21 750 159L750 159Q828 196 875 218.50Q922 241 939 241L939 241L886 307Q866 277 830.50 243.50Q795 210 744 172L744 172Q714 226 693 326L693 326L829 326L829 304L883 329Q880 350 880 370L880 370Q880 391 880 414L880 414L880 615L911 638L867 691L836 656L725 656Q765 692 750 726L750 726Q743 740 717.50 759Q692 778 652 808L652 808L643 792Q655 780 664 764Q673 748 684 732L684 732Q690 715 696.50 696Q703 677 706 656L706 656L602 656L552 691Q552 662 553.50 496Q555 330 555 23L555 23Q555 0 536-28L536-28L587-72Q621-14 725 64L725 64L719 77ZM605 502L605 632L829 632L829 502L605 502ZM605 354L605 477L829 477L829 354L605 354ZM546 632L489 704L435 656L319 656L328 741L353 773L275 808Q275 711 263 656L263 656L59 656L86 615Q125 632 177 632L177 632L263 632Q228 438 59 335L59 335L65 323Q237 401 300 559L300 559Q458 419 479 373L479 373Q505 329 526 376L526 376Q542 423 498 455L498 455Q479 471 430.50 500Q382 529 304 574L304 574L315 632L546 632Z"/></svg>