<svg id="U26EA8" viewBox="0 0 1024 1024"><path transform="translate(0, 921.6) scale(1,-1)" d="M887-34L887-34Q898 10 963 14L963 14L963 26Q871 35 789 77L789 77Q751 101 710.50 128Q670 155 632 190L632 190Q680 207 718.50 218.50Q757 230 783 237L783 237L821 229L777 304Q756 280 707 257Q658 234 585 206L585 206Q567 227 544.50 250.50Q522 274 490 304L490 304Q495 309 500.50 312Q506 315 515 323L515 323L761 323L761 311L814 326L814 433L840 452L780 493L755 465L547 465Q669 539 711 543L711 543L641 591L613 563L392 563Q411 576 428 584.50Q445 593 462 600L462 600L389 644Q361 586 273 521L273 521Q183 443 104 408L104 408L114 389Q147 403 178 417.50Q209 432 238 448L238 448Q238 408 237.50 369.50Q237 331 235 291L235 291L285 304L285 323L443 323Q355 240 131 172L131 172L140 159Q384 206 469 285L469 285Q477 277 484 266.50Q491 256 503 247L503 247Q365 139 101 74L101 74L104 55Q352 86 525 209L525 209Q527 202 533.50 191.50Q540 181 550 162L550 162Q391 37 60-21L60-21L63-37Q376-8 565 115L565 115Q578 63 569 36L569 36Q563 24 560.50 16Q558 8 556 2L556 2Q549-1 543-7Q537-13 525-16L525-16Q517-18 479-16.50Q441-15 380-13L380-13L380-31Q497-39 497-88L497-88Q557-70 594-37L594-37Q622-2 626 52L626 52Q634 107 600 188L600 188Q750 19 887-34ZM594 537L515 465L292 465L269 474L367 537L594 537ZM285 348L285 439L497 439Q489 416 482 392Q475 368 462 348L462 348L285 348ZM556 439L556 439L761 439L761 348L521 348Q539 404 556 439ZM500 672L446 738L399 697L348 697L348 758L380 782L292 814Q294 790 294.50 761Q295 732 295 697L295 697L86 697L122 663Q140 665 159 668.50Q178 672 197 672L197 672L295 672Q295 650 294.50 628Q294 606 292 581L292 581L354 603Q351 621 349.50 639Q348 657 348 672L348 672L500 672ZM623 679L641 679Q641 669 639.50 645Q638 621 638 581L638 581L701 600Q691 664 698 679L698 679L915 679L855 745L811 704L698 704L698 751L723 776L638 811Q638 784 639.50 756.50Q641 729 641 704L641 704L510 704L547 672Q567 676 585.50 677.50Q604 679 623 679L623 679Z"/></svg>