<svg id="U260CC" viewBox="0 0 1024 1024"><path transform="translate(0, 921.6) scale(1,-1)" d="M103 170L91 164Q100 42 78 10L78 10Q58-22 78-33L78-33Q106-43 117-26L117-26Q139-13 139 19L139 19Q142 51 103 170L103 170ZM199 25L199 25Q199-17 230-1L230-1Q265 22 265 51L265 51Q268 79 189 192L189 192L177 186Q207 64 199 25ZM277 208L268 205Q320 99 325 51L325 51Q329 1 359 31L359 31Q385 63 375 91L375 91Q369 128 277 208L277 208ZM290 762L290 762L215 810Q185 697 136 617L136 617Q88 534 59 529L59 529L94 460Q123 477 162.50 488Q202 499 253 504L253 504Q221 459 191 420.50Q161 382 133 350L133 350Q80 290 59 290L59 290L100 214Q120 236 168 249L168 249Q191 258 231 266Q271 274 328 286L328 286Q337 270 340.50 257.50Q344 245 346 233L346 233Q350 214 369 229L369 229Q391 251 391 290L391 290Q391 326 284 419L284 419L271 413Q285 384 298.50 358Q312 332 322 309L322 309L117 286Q155 324 192 368Q229 412 271 463L271 463Q358 570 369 570L369 570L312 633Q305 607 294.50 582.50Q284 558 268 535L268 535L117 529Q145 564 171.50 601.50Q198 639 224 677L224 677Q268 752 290 762ZM523 737L778 737L778 607L426 607L461 573Q476 575 493.50 577Q511 579 530 579L530 579L778 579L778 555L832 573Q829 613 829 650L829 650Q829 688 829 730L829 730L860 753L806 797L775 766L420 766L451 730Q470 732 487 734.50Q504 737 523 737L523 737ZM410 561L394 561Q391 531 381 511.50Q371 492 359 479L359 479Q330 448 346 435L346 435Q364 415 388 435L388 435Q413 447 413 501L413 501L605 501L605 428L492 428L441 457Q443 433 443.50 411Q444 389 444 365L444 365Q444 344 443.50 313.50Q443 283 441 245L441 245L492 277L492 403L605 403L605 324Q605 295 603.50 267.50Q602 240 602 214L602 214L659 239Q656 263 655.50 288Q655 313 655 337L655 337L655 403L769 403L769 321Q759 281 678 309L678 309L678 296Q744 270 744 229L744 229Q805 242 816 309L816 309L816 396L842 425L794 463L763 428L655 428L655 501L888 501L847 425L857 419Q892 454 917 474Q942 494 965 497L965 497L907 561L876 529L413 529L410 561ZM778 208L394 208L426 180Q430 186 476 186L476 186Q523 90 602 34L602 34Q519-25 305-64L305-64L305-83Q513-64 643 6L643 6Q704-29 765-49.50Q826-70 886-80L886-80Q898-37 955-42L955-42L955-20Q801-20 683 34L683 34Q716 56 750 88.50Q784 121 819 164L819 164L857 180L809 233L778 208ZM501 183L501 183L769 183Q698 94 643 57L643 57Q591 92 554 122.50Q517 153 501 183ZM898 725L857 689L372 689L403 655Q420 659 438 660Q456 661 479 661L479 661L952 661L898 725Z"/></svg>