<svg id="U26DFA" viewBox="0 0 1024 1024"><path transform="translate(0, 921.6) scale(1,-1)" d="M181 446L181 446Q143 386 105 386L105 386L137 311Q192 336 311 362L311 362Q285 327 256.50 299Q228 271 201 244L201 244Q153 193 93 182L93 182L122 121Q185 142 251.50 157.50Q318 173 384 185L384 185Q393 165 399 131L399 131Q403 103 437 131L437 131Q465 159 440 200L440 200Q419 235 352 298L352 298L336 288L377 203L185 191Q246 234 304 289.50Q362 345 418 414L418 414L469 440L402 499Q362 416 323 383L323 383L166 380Q206 420 239 457.50Q272 495 299 537L299 537L336 544L263 601Q244 553 222 513.50Q200 474 181 446ZM176 109L160 109Q131 13 90-11L90-11Q46-41 83-52L83-52Q122-71 150-31L150-31Q183 4 176 109L176 109ZM248 109L238 106Q253 63 256.50 31Q260-1 258-24L258-24Q253-68 286-50L286-50Q323-37 314 10L314 10Q297 50 248 109L248 109ZM384 1L384 1Q398-46 428-21L428-21Q460 5 437 43L437 43Q425 74 343 131L343 131L330 125Q380 44 384 1ZM554 490L654 490L654 251L422 251L459 213Q473 217 494 220Q515 223 544 226L544 226L654 226L654-21L469-21L507-52Q522-50 539.50-48.50Q557-47 579-47L579-47L937-47L875 31L821-21L708-21L708 226L957 226L900 304L849 251L708 251L708 490L906 490L844 563L803 515L487 515L528 478L554 490ZM507 657L453 727L402 686L355 686L355 748L381 774L296 805Q298 781 298.50 752Q299 723 299 686L299 686L90 686L122 651Q140 653 160.50 654Q181 655 201 657L201 657L299 657Q299 638 298.50 615Q298 592 296 569L296 569L358 591Q355 610 355 626L355 626Q355 643 355 657L355 657L507 657ZM651 666L651 666L629 666Q605 666 587 662.50Q569 659 554 657L554 657L515 692L651 692Q651 716 649.50 743.50Q648 771 644 802L644 802L733 767L708 742L708 692L821 692L868 736L929 666L708 666Q703 645 711 588L711 588L644 569Q647 607 649 631.50Q651 656 651 666ZM507 657L453 727L402 686L355 686L355 748L381 774L296 805Q298 781 298.50 752Q299 723 299 686L299 686L90 686L122 651Q140 653 160.50 654Q181 655 201 657L201 657L299 657Q299 638 298.50 615Q298 592 296 569L296 569L358 591Q355 610 355 626L355 626Q355 643 355 657L355 657L507 657ZM651 666L651 666L629 666Q605 666 587 662.50Q569 659 554 657L554 657L515 692L651 692Q651 716 649.50 743.50Q648 771 644 802L644 802L733 767L708 742L708 692L821 692L868 736L929 666L708 666Q703 645 711 588L711 588L644 569Q647 607 649 631.50Q651 656 651 666Z"/></svg>