<svg id="U26543" viewBox="0 0 1024 1024"><path transform="translate(0, 921.6) scale(1,-1)" d="M187 172L187 342L358 342L358 209L187 172ZM408 222L408 222L408 723L503 723L440 798L395 751L60 751L96 713Q120 723 135 723L135 723L135 156Q115 148 95 142.50Q75 137 57 137L57 137L96 70Q125 111 358 178L358 178Q358 103 357 42.50Q356-18 351-72L351-72L415-37Q409 0 408.50 63Q408 126 408 222ZM187 559L187 723L358 723L358 559L187 559ZM187 534L358 534L358 367L187 367L187 534ZM673 39L673 39L670 26Q696 15 713 7Q730-1 739-6L739-6Q763-25 770-60L770-60Q787-50 802.50-42Q818-34 830-25L830-25Q845-13 850.50 3Q856 19 862 42L862 42L862 380L966 380L909 448L868 404L862 404L862 723L890 748L843 795L808 761L585 761L531 795Q531 744 532.50 648Q534 552 534 404L534 404L430 404L462 363Q478 368 495.50 372Q513 376 534 376L534 376Q532 310 523 250.50Q514 191 500 137L500 137Q468 36 395-57L395-57L405-65Q488 6 534 108L534 108Q581 212 585 380L585 380L808 380L808 62Q808 36 799 26L799 26Q791 20 673 39ZM585 404L585 735L808 735L808 404L585 404ZM638 656L638 656L629 650Q647 608 660 572Q673 536 676 509L676 509Q685 448 714 477L714 477Q736 493 736 540L736 540Q730 573 638 656Z"/></svg>