<svg id="U26368" viewBox="0 0 1024 1024"><path transform="translate(0, 921.6) scale(1,-1)" d="M127 784L127 784L112 774Q175 696 186 655L186 655Q199 613 221 630L221 630Q243 652 240 687L240 687Q232 719 127 784ZM294 602L81 602L117 566Q136 569 153 571Q170 573 189 573L189 573L256 573L256 435L109 435L145 403Q162 405 179 407Q196 409 218 409L218 409L256 409L256 262L84 262L120 229Q138 232 156.50 234Q175 236 196 236L196 236L253 236Q242 142 199 72L199 72Q151-2 72-74L72-74L81-86Q192-12 240 66L240 66Q265 105 280.50 149Q296 193 303 236L303 236L492 236L431 312L394 262L303 262L303 409L472 409L410 476L375 435L303 435L303 573L479 573L431 643L394 602L318 602Q333 627 348.50 651.50Q364 676 379 702L379 702Q403 753 438 771L438 771L362 813Q362 768 294 602L294 602ZM557 607L557 607L879 607Q879 483 877.50 385.50Q876 288 876 218L876 218Q871 141 867 96.50Q863 52 860 38L860 38Q851 5 819 0L819 0Q791-1 706 6L706 6L706-8Q816-31 816-80L816-80Q870-65 895-17L895-17Q904 3 912 52Q920 101 920 177L920 177Q920 252 922 359Q924 466 924 604L924 604L952 630L895 677L870 636L570 636Q587 659 604 687Q621 715 643 746L643 746L683 756L602 803Q583 760 565 718Q547 676 526 636L526 636Q503 593 481 556.50Q459 520 438 491L438 491L451 481Q481 512 509 543Q537 574 557 607ZM886 139L822 214L785 164L570 164L570 435L593 463L513 501Q516 468 518 427Q520 386 520 334L520 334L520 180L508 157L549 107L570 139L886 139ZM744 501L744 501L765 522L690 561Q690 424 652 353L652 353Q622 272 586 218L586 218L596 211Q666 275 709 384L709 384Q737 349 759 318Q781 287 791 262L791 262Q814 211 829 249L829 249Q845 283 829 312L829 312Q820 335 719 403L719 403Q722 427 728 452Q734 477 744 501Z"/></svg>