<svg id="U263A4" viewBox="0 0 1024 1024"><path transform="translate(0, 921.6) scale(1,-1)" d="M117 790L117 790L108 778Q163 695 172 658L172 658Q185 614 204 636L204 636Q227 659 222 692L222 692Q218 719 117 790ZM279 607L73 607L108 576Q122 578 139 580.50Q156 583 176 583L176 583L241 583L241 444L96 444L128 409Q144 412 161.50 415.50Q179 419 200 419L200 419L241 419L241 268L70 268L104 233Q119 235 136 237Q153 239 172 239L172 239L241 239Q222 140 184 72L184 72Q163 30 134-2.50Q105-35 67-70L67-70L73-83Q188-8 232 72L232 72Q279 158 289 239L289 239L462 239L399 312L361 268L289 268L289 419L446 419L389 485L354 444L289 444L289 583L452 583L402 655L358 607L302 607Q315 636 330.50 660Q346 684 361 705L361 705Q372 722 386.50 738.50Q401 755 418 769L418 769L343 810Q340 780 324.50 729.50Q309 679 279 607L279 607ZM855 563L805 479L814 469Q893 558 947 563L947 563L887 623L852 589L729 589Q749 602 736 636L736 636Q762 655 786 670Q810 685 830 696L830 696Q873 718 909 718L909 718L843 781L811 753L493 753L525 718Q546 722 563 723.50Q580 725 594 725L594 725L805 725L714 646Q697 657 671 668Q645 679 610 689L610 689L600 677Q633 655 655 633Q677 611 688 589L688 589L452 589L484 558Q500 560 514.50 561.50Q529 563 544 563L544 563L647 563Q566 444 421 368L421 368L428 353Q594 423 708 558L708 558L708 440Q708 391 691 391L691 391Q680 391 659 391L659 391Q639 391 606 394L606 394L606 372Q685 361 695 327L695 327Q755 351 755 406L755 406L755 563L855 563ZM704 38L704 38L704 195Q771 20 884-58L884-58Q898-20 956-20L956-20L953-5Q908 8 870 30.50Q832 53 802 91L802 91Q737 155 711 214L711 214L956 214L887 290L834 239L704 239L704 271L739 293L651 334Q651 313 652.50 288Q654 263 654 239L654 239L433 239L465 208Q483 210 500.50 212Q518 214 537 214L537 214L594 214Q568 156 506 88L506 88Q474 50 438 18Q402-14 354-42L354-42L358-58Q403-39 446-13Q489 13 531 51L531 51Q602 112 654 214L654 214Q654 106 652.50 34.50Q651-37 651-80L651-80L708-58Q705-31 704.50-9.50Q704 12 704 38Z"/></svg>