<svg id="U26EC7" viewBox="0 0 1024 1024"><path transform="translate(0, 921.6) scale(1,-1)" d="M190 786L190 709L162 704L213 663L235 672L484 672L484 627L540 640L540 672L783 672L783 660L840 681L840 748L855 763L783 789L783 701L540 701L540 769L556 789L480 817Q480 793 482 764.50Q484 736 484 701L484 701L248 701L248 745L269 763L190 786ZM118 581L118 581L118 508L104 496L146 455L172 473L266 473L266 404L313 420L313 473L408 473L408 458L465 470Q462 489 462 521L462 521L462 581L484 593L405 619L408 575L408 501L313 501L313 599L346 622L260 650Q264 630 265 613.50Q266 597 266 581L266 581L266 501L172 501L172 568L194 590L117 619Q117 607 117.50 595.50Q118 584 118 581ZM578 458L603 473L701 473L701 408L755 429L755 473L849 473L849 458L906 477Q899 492 899 521L899 521L899 568L919 583L843 612Q843 602 846 591.50Q849 581 849 575L849 575L849 501L755 501L755 599L776 619L701 647L701 501L603 501L603 565L625 583L547 612Q547 597 548.50 587.50Q550 578 550 571L550 571L550 508L528 496L578 458ZM827 262L827 262L827 367L852 385L799 429L763 395L251 395L181 416Q185 398 186 371.50Q187 345 187 313L187 313Q187 282 186 243Q185 204 181 162L181 162L244 177L244 184L770 184L770 162L830 184Q827 200 827 220L827 220Q827 241 827 262ZM244 303L244 370L471 370L471 303L244 303ZM528 303L528 370L770 370L770 303L528 303ZM244 212L244 278L471 278L471 212L244 212ZM528 212L528 278L770 278L770 212L528 212ZM210 121L210 121L190 124Q176 82 155 60.50Q134 39 114 30L114 30Q59 17 73-6L73-6Q84-29 111-29L111-29Q138-29 162 0L162 0Q191 27 210 121ZM660-9L660-9L405-9Q336-9 336 45L336 45L336 99L364 118L276 146Q278 124 278.50 97.50Q279 71 279 39L279 39Q279-50 386-50L386-50L714-50Q766-46 793-6L793-6Q763 3 755 20L755 20Q752 32 748.50 51Q745 70 745 99L745 99L726 99Q721 31 717 9L717 9Q711-9 660-9ZM452 177L452 177L446 162Q514 117 524 77L524 77Q541 41 559 45L559 45Q579 56 585 83L585 83Q585 109 562 127L562 127Q549 135 522 147.50Q495 160 452 177ZM796 133L796 133L783 118Q873 54 896 12L896 12Q920-32 934-9L934-9Q953 13 953 30L953 30Q953 56 925 77L925 77Q905 85 874.50 99.50Q844 114 796 133Z"/></svg>