<svg id="U26D0F" viewBox="0 0 1024 1024"><path transform="translate(0, 921.6) scale(1,-1)" d="M426 488L426 488L464 488L413 558Q401 546 373 532.50Q345 519 294 507L294 507Q246 487 201 478.50Q156 470 116 463L116 463L116 444Q139 444 175 448Q211 452 262 460L262 460L262 309L65 309L103 274Q133 283 183 283L183 283L262 283Q271 84 65-74L65-74L75-86Q315 41 315 283L315 283L492 283L441 355L388 309L315 309L315 469Q341 472 369 476.50Q397 481 426 488ZM598 242L598 422L719 422L719 242L598 242ZM511 604L505 589Q555 537 561 491L561 491Q565 441 598 469L598 469Q627 498 608 532L608 532Q592 561 511 604L511 604ZM545 422L545 242L385 242L416 208Q434 210 453 214Q472 218 492 218L492 218L542 218Q537 126 485 47L485 47Q435-29 362-74L362-74L369-86Q482-45 539 34L539 34Q586 121 598 218L598 218L719 218Q719 118 717.50 43.50Q716-31 716-86L716-86L775-58Q772-9 772 16L772 16Q772 42 772 47L772 47L772 218L958 218L901 286L850 242L772 242L772 422L927 422L870 497L816 450L716 450Q736 479 756.50 503.50Q777 528 794 555L794 555L829 573L747 617Q736 552 693 450L693 450L426 450L464 406Q497 422 539 422L539 422L545 422ZM627 573L683 595L683 664L952 664L879 740L822 689L683 689L683 749L716 774L624 810Q624 790 625.50 774Q627 758 627 746L627 746L627 689L410 689L410 753L435 781L353 813Q355 793 355.50 777Q356 761 356 746L356 746L356 689L78 689L112 655Q127 661 146.50 662.50Q166 664 192 664L192 664L356 664L356 566L410 586L410 664L627 664L627 573Z"/></svg>