<svg id="U26907" viewBox="0 0 1024 1024"><path transform="translate(0, 921.6) scale(1,-1)" d="M134 655L78 681L80 594L80 118L78-8L134 11L134 63L329 63L329 22L387 47Q381 75 380.50 98Q380 121 380 140L380 140L380 617L409 639L354 690L329 655L197 655Q219 681 236.50 706.50Q254 732 268 757L268 757L297 777L217 815Q217 789 205.50 749.50Q194 710 175 655L175 655L134 655ZM134 473L134 629L329 629L329 473L134 473ZM134 293L134 451L329 451L329 293L134 293ZM134 85L134 265L329 265L329 85L134 85ZM828 486L828 486L866 511L811 572L770 531L518 531L518 694Q590 698 647 706Q704 714 748 722L748 722Q791 731 826 735Q861 739 892 742L892 742L841 815Q769 762 518 716L518 716L463 754Q466 707 466.50 665Q467 623 467 579L467 579Q467 533 466.50 477.50Q466 422 463 358L463 358Q458 291 450 234Q442 177 428 127L428 127Q413 79 384.50 29.50Q356-20 316-76L316-76L325-85Q391-22 433 37Q475 96 489 163L489 163Q505 224 511.50 309.50Q518 395 518 501L518 501L565 501Q580 395 602.50 307Q625 219 661 150L661 150Q603 73 535.50 19.50Q468-34 393-73L393-73L395-88Q482-62 555.50-14Q629 34 690 102L690 102Q717 59 760.50 15.50Q804-28 863-73L863-73Q885-26 946-31L946-31L946-15Q814 17 726 147L726 147Q760 206 785.50 290Q811 374 828 486ZM588 501L588 501L773 501Q741 292 690 201L690 201Q654 263 629 338Q604 413 588 501Z"/></svg>