<svg id="U26431" viewBox="0 0 1024 1024"><path transform="translate(0, 921.6) scale(1,-1)" d="M683 16L683 16L683-1Q785-30 785-80L785-80Q879-52 879 41L879 41L879 391L914 416L850 460L822 422L536 422L570 391Q587 393 605.50 394.50Q624 396 643 396L643 396L826 396L826 63Q826 6 798 6L798 6Q785 6 756.50 8.50Q728 11 683 16ZM598 365L586 359Q637 288 649 239L649 239Q671 175 687 211L687 211Q710 239 706 268L706 268Q706 296 678 314L678 314Q663 323 642.50 336Q622 349 598 365L598 365ZM526 95L526 95L580 31Q590 53 652 91L652 91Q689 116 736 145Q783 174 842 208L842 208L839 236Q583 106 526 95ZM274-1L274-1L274-23Q383-38 388-83L388-83Q470-56 470 28L470 28L470 384L501 413L438 460L413 422L120 422L158 391Q174 393 191.50 394.50Q209 396 230 396L230 396L416 396L416 51Q416-1 388-5L388-5Q373-7 344.50-5.50Q316-4 274-1ZM180 355L171 347Q221 274 233 227L233 227Q248 176 271 205L271 205Q295 233 290 262L290 262Q290 291 262 306L262 306Q247 324 180 355L180 355ZM106 82L106 82L161 13Q186 47 431 205L431 205L431 227Q185 100 106 82ZM202 517L426 517L426 479L482 497Q477 525 476.50 553Q476 581 476 607L476 607L476 740L505 762L448 807L426 771L109 771L142 740Q158 742 175.50 742.50Q193 743 215 746L215 746L426 746L426 655L127 655L161 627Q178 627 192 628.50Q206 630 218 630L218 630L426 630L426 545L117 545L151 510Q171 514 183.50 515.50Q196 517 202 517L202 517ZM646 520L839 520L839 476L891 494Q887 526 886.50 555.50Q886 585 886 611L886 611L886 743L917 766L860 810L839 778L536 778L570 743Q587 745 605.50 747Q624 749 643 749L643 749L839 749L839 661L555 661L590 627Q605 629 622.50 631Q640 633 662 633L662 633L839 633L839 548L542 548L574 514Q592 516 609.50 518Q627 520 646 520L646 520Z"/></svg>