<svg id="U2667B" viewBox="0 0 1024 1024"><path transform="translate(0, 921.6) scale(1,-1)" d="M205 26L205 26L205 11Q315-15 315-69L315-69Q359-55 382-28L382-28Q407 1 407 55L407 55L407 729L431 751L375 795L346 758L196 758L136 789Q142 727 142 496L142 496Q146 256 127 144L127 144Q114 27 62-62L62-62L78-65Q148 22 168 108L168 108Q179 150 185.50 198Q192 246 196 301L196 301L353 301L353 59Q353 11 318 11L318 11Q304 13 275.50 16.50Q247 20 205 26ZM196 540L196 732L353 732L353 540L196 540ZM196 326L196 515L353 515L353 326L196 326ZM511 480L492 483Q480 422 468.50 380Q457 338 438 319L438 319Q409 272 438 272L438 272Q469 269 495 291L495 291Q520 313 511 480L511 480ZM680 594L680 594L709 622L614 660Q624 593 614 448L614 448Q609 375 597 306.50Q585 238 561 175L561 175Q513 41 369-47L369-47L375-62Q487-13 549 67L549 67Q613 146 639 241L639 241Q668 333 668 477L668 477Q681 283 740 162L740 162Q792 44 879-41L879-41Q911 3 961 0L961 0L961 14Q875 46 822 118L822 118Q761 196 721 319L721 319Q752 340 791.50 374Q831 408 879 448L879 448L917 458L847 524Q818 472 784 427.50Q750 383 712 345L712 345Q680 484 680 594ZM804 726L431 726L464 694Q470 697 583 697L583 697L939 697L857 776L804 726Z"/></svg>