<svg id="U263EC" viewBox="0 0 1024 1024"><path transform="translate(0, 921.6) scale(1,-1)" d="M191 501L480 501L480 296Q480 268 478.50 218Q477 168 477 95L477 95L537 133Q534 160 534 190L534 190Q534 221 534 252L534 252L534 501L963 501L896 568L840 527L534 527L534 583L881 583L827 646L783 609L534 609L534 668L915 668L858 735L818 697L635 697L704 766L749 779L673 823Q647 752 613 697L613 697L364 697Q415 733 380 760L380 760Q358 772 332 785Q306 798 276 813L276 813L266 800Q329 747 343 697L343 697L96 697L131 658Q161 668 213 668L213 668L480 668L480 609L150 609L187 571Q215 583 269 583L269 583L480 583L480 527L73 527L111 489Q147 501 191 501L191 501ZM248 426L248 426L60 426L98 388Q131 398 172 398L172 398L462 398L408 454L371 426L285 426Q313 439 295 463L295 463Q276 482 207 495L207 495L194 489Q227 459 248 426ZM216 331L433 331L383 385L351 357L98 357L135 319Q162 331 216 331L216 331ZM348 293L101 293L138 256L179 268L228 268L430 268L380 316L348 293ZM166 224L101 239Q106 156 101 82L101 82L153 98L153 108L354 108L361 92L405 105L405 190L430 211L374 252L351 224L166 224ZM153 136L153 199L361 199L361 136L153 136ZM732 429L732 429L559 429L597 391Q613 396 633 400Q653 404 680 404L680 404L944 404L887 457L852 429L767 429Q794 450 770 467L770 467Q752 485 695 495L695 495L682 486Q703 471 714 457Q725 443 732 429ZM701 334L919 334L868 388L834 360L582 360L619 325Q652 334 701 334L701 334ZM830 290L585 290L623 252Q652 262 704 262L704 262L919 262L865 316L830 290ZM663 218L603 237Q608 147 603 67L603 67L660 82L660 101L846 101L846 67L896 82Q893 113 893 139L893 139Q893 166 893 190L893 190L925 208L865 243L837 218L663 218ZM660 126L660 193L846 193L846 126L660 126ZM777 76L770 64Q823 6 849-48L849-48Q863-101 893-60L893-60Q921-23 890 9L890 9Q873 23 844.50 41Q816 59 777 76L777 76ZM216 76L197 79Q171 9 117-19L117-19Q67-48 104-67L104-67Q142-81 172-52L172-52Q207-14 216 76L216 76ZM346 76L346 76L333 67Q378 2 383-42L383-42Q392-94 421-67L421-67Q452-36 430-7L430-7Q418 22 346 76ZM547 73L547 73L537 61Q584-3 600-42L600-42Q610-99 638-67L638-67Q652-52 653.50-35Q655-18 651-7L651-7Q630 22 547 73Z"/></svg>