<svg id="U266E2" viewBox="0 0 1024 1024"><path transform="translate(0, 921.6) scale(1,-1)" d="M208 42L208 42L208 26Q318 0 318-60L318-60Q368-37 382-13L382-13Q403 12 403 70L403 70L403 726L431 751L379 798L346 761L199 761L142 789Q144 763 146 690Q148 617 148 496L148 496Q153 259 133 140L133 140Q125 81 109 29Q93-23 68-69L68-69L84-72Q156 21 171 105L171 105Q182 150 187.50 197Q193 244 199 298L199 298L356 298L356 74Q356 26 322 26L322 26Q307 29 279 32Q251 35 208 42ZM199 540L199 729L356 729L356 540L199 540ZM199 326L199 512L356 512L356 326L199 326ZM457-69L457-69L511-47L511 5L879 5L879-62L930-44Q927 1 927 40L927 40Q927 79 927 121L927 121L927 710L955 741L901 786L873 748L511 748L457 779Q457 750 459 651.50Q461 553 461 380L461 380Q461 203 459 94Q457-15 457-69ZM769 609L533 609L567 574Q584 577 600.50 580.50Q617 584 637 584L637 584L668 584L668 398L536 398L570 370Q587 372 603.50 374Q620 376 639 376L639 376L668 376L668 152L523 152L557 124Q577 128 595.50 129.50Q614 131 631 131L631 131L866 131L809 197L772 152L716 152L716 376L857 376L804 437L765 398L716 398L716 584L860 584L804 644L769 609ZM511 30L511 720L879 720L879 30L511 30Z"/></svg>