<svg id="U26D1A" viewBox="0 0 1024 1024"><path transform="translate(0, 921.6) scale(1,-1)" d="M485 70L485 254L763 254L763 70L485 70ZM586 518L586 518L785 518Q779 479 774 448Q769 417 763 398L763 398Q754 360 719 360L719 360Q701 360 676.50 361Q652 362 624 370L624 370L624 345Q724 336 724 288L724 288Q778 311 801 352L801 352Q821 384 842 515L842 515L870 537L819 584L785 546L375 546L413 512Q430 514 449 516Q468 518 489 518L489 518L526 518Q487 360 312 257L312 257L318 237Q423 277 492 357L492 357Q527 390 549 431.50Q571 473 586 518ZM498 278L431 294L431 144Q431 102 430.50 66Q430 30 429-3L429-3L485 21L485 46L763 46L763 8L822 33Q819 52 819 69L819 69Q819 87 819 108L819 108L819 237L847 263L794 304L769 278L498 278ZM492 663L441 729L394 688L346 688L346 751L372 779L290 808Q293 786 293.50 757Q294 728 294 688L294 688L88 688L120 653Q140 655 158.50 659Q177 663 196 663L196 663L294 663Q294 642 293.50 620Q293 598 290 571L290 571L350 597Q347 615 346.50 631.50Q346 648 346 663L346 663L492 663ZM614 669L637 669Q637 658 634.50 633.50Q632 609 627 571L627 571L693 594Q678 655 687 669L687 669L907 669L847 738L798 694L687 694L687 745L716 770L627 805Q637 756 637 694L637 694L505 694L539 663Q555 665 574 667Q593 669 614 669L614 669ZM174 612L161 603Q218 523 227 480L227 480Q236 436 265 471L265 471Q293 505 268 537L268 537Q246 567 174 612L174 612ZM945-16L945-16L945-3Q803-16 704.50-21.50Q606-27 549-25L549-25Q495-22 452.50-16Q410-10 372-3L372-3Q306 12 240 52L240 52Q246 65 254 83.50Q262 102 271 131L271 131Q290 183 303 188L303 188L318 203L284 257L253 226L196 226L274 360L309 373L265 424L230 398L78 398L106 363Q125 373 158 373L158 373L227 373Q204 330 189.50 302Q175 274 168 260L168 260Q137 226 123 226L123 226L161 181L186 200L240 200Q204 70 180 46L180 46Q157 19 137-4Q117-27 100-47L100-47L158-82Q177-26 227 33L227 33Q275-13 375-50L375-50Q430-68 555-74.50Q680-81 886-72L886-72Q886-30 945-16Z"/></svg>