<svg id="U26390" viewBox="0 0 1024 1024"><path transform="translate(0, 921.6) scale(1,-1)" d="M112 787L112 787L100 774Q126 736 143 706.50Q160 677 168 655L168 655Q178 605 196 633L196 633Q219 656 215 689L215 689Q211 720 112 787ZM268 611L62 611L97 576Q113 578 129.50 582Q146 586 168 586L168 586L230 586L230 440L84 440L117 409Q137 413 154.50 414.50Q172 416 189 416L189 416L230 416L230 268L59 268L94 236Q111 238 126.50 240Q142 242 164 242L164 242L230 242Q221 191 209 149Q197 107 177 72L177 72Q144 3 65-67L65-67L75-80Q132-38 169-0.50Q206 37 227 72L227 72Q266 154 281 242L281 242L467 242L407 318L366 268L281 268L281 416L444 416L388 481L350 440L281 440L281 586L457 586L407 652L366 611L290 611Q305 637 320.50 659.50Q336 682 350 705L350 705Q362 721 376 736.50Q390 752 407 766L407 766L331 807Q325 741 268 611L268 611ZM716 372L716 532L845 532L845 372L716 372ZM895 473L895 692L924 715L866 766L839 728L530 728L479 762Q481 696 481.50 638.50Q482 581 482 529L482 529Q482 472 481.50 413Q481 354 479 293L479 293L530 312L530 344L665 344L665 188L457 188L489 151Q507 155 524.50 158Q542 161 561 164L561 164L665 164L665-8L391-8L426-42Q459-33 498-33L498-33L965-33L898 41L847-8L716-8L716 164L927 164L870 229L819 188L716 188L716 344L845 344L845 306L898 334Q895 371 895 407L895 407Q895 443 895 473L895 473ZM530 702L665 702L665 558L530 558L530 702ZM716 702L845 702L845 558L716 558L716 702ZM530 372L530 532L665 532L665 372L530 372Z"/></svg>