<svg id="U26080" viewBox="0 0 1024 1024"><path transform="translate(0, 921.6) scale(1,-1)" d="M292 219L279 209Q333 115 346 74L346 74Q355 29 374 67L374 67Q393 98 380 131L380 131Q376 161 292 219L292 219ZM298 741L298 741L228 789Q198 684 147 603L147 603Q101 516 70 512L70 512L104 442Q132 463 172 474L172 474Q188 479 210 485Q232 491 263 499L263 499Q233 450 203 410.50Q173 371 143 342L143 342Q99 282 76 282L76 282L117 206Q128 224 179 241L179 241Q204 250 242.50 258.50Q281 267 336 278L336 278Q345 262 348 249.50Q351 237 354 226L354 226Q360 199 377 222L377 222Q399 244 399 282L399 282Q399 313 292 408L292 408L279 398Q293 369 306.50 343.50Q320 318 330 298L330 298L131 278Q166 312 205 355Q244 398 282 452L282 452Q365 553 377 553L377 553L320 612Q307 568 276 524L276 524L131 512Q183 582 232 663L232 663Q280 735 298 741ZM632 393L632 489L742 489L742 393L632 393ZM796 282L490 282L521 247L559 257Q587 166 663 70L663 70Q573-14 411-69L411-69L415-82Q568-53 701 42L701 42Q752 0 798.50-29Q845-58 890-72L890-72Q898-44 953-31L953-31L953-16Q886-10 837 8L837 8Q805 24 780.50 38.50Q756 53 739 67L739 67Q769 107 797 151.50Q825 196 846 244L846 244L884 260L824 316L796 282ZM582 257L582 257L796 257Q761 169 704 103L704 103Q669 130 637 166.50Q605 203 582 257ZM302-72L302-72L314-82Q398-2 436 111L436 111Q474 228 474 411L474 411L474 489L585 489L585 401Q585 382 583.50 362.50Q582 343 582 319L582 319L632 339L632 360L742 360L742 326L796 354Q793 373 793 393L793 393Q793 413 793 430L793 430L793 489L934 489L881 556L837 515L793 515L793 559L821 587L739 625Q739 602 740.50 573.50Q742 545 742 515L742 515L632 515L632 568L660 594L582 628Q582 600 583.50 571.50Q585 543 585 515L585 515L474 515L474 638L940 638L881 710L830 666L474 666L418 704Q422 658 425 592.50Q428 527 428 442L428 442Q428 358 421.50 288.50Q415 219 408 162L408 162Q398 105 373 47Q348-11 302-72ZM597 808L588 798Q616 765 635.50 742Q655 719 667 701L667 701Q684 660 701 682L701 682Q721 696 717 729L717 729Q717 764 597 808L597 808ZM108 165L98 159Q123 38 119 2L119 2Q117-34 131-34L131-34Q153-34 166-21L166-21Q183-2 179 26L179 26Q174 55 108 165L108 165ZM238 23L238 23Q242-14 269 2L269 2Q295 17 295 52L295 52Q295 79 210 185L210 185L197 178Q216 121 225.50 81.50Q235 42 238 23Z"/></svg>