<svg id="U26FCC" viewBox="0 0 1024 1024"><path transform="translate(0, 921.6) scale(1,-1)" d="M298 407L298 407Q294 381 237 329L237 329Q179 274 137 274L137 274L163 220Q182 226 225 235Q268 244 337 252L337 252Q258 188 214 161L214 161Q189 143 167 134.50Q145 126 127 126L127 126L160 62Q188 76 251.50 89.50Q315 103 418 113L418 113Q422 105 429 93.50Q436 82 443 68L443 68Q462 30 482 71L482 71Q502 106 476 133L476 133Q455 156 363 203L363 203L353 191Q367 176 381 162.50Q395 149 405 139L405 139Q353 134 304.50 129.50Q256 125 205 123L205 123Q280 166 339.50 205Q399 244 447 284L447 284L485 294L424 345Q413 327 396 308.50Q379 290 356 271L356 271L208 271Q241 288 271 309Q301 330 334 352L334 352L366 361L298 407ZM663 403L663 403Q645 373 595 323L595 323Q568 301 548 287.50Q528 274 511 274L511 274L540 220Q551 235 705 252L705 252Q663 218 630.50 197Q598 176 576 161L576 161Q519 133 511 133L511 133L540 71Q566 91 814 126L814 126Q830 114 840.50 102.50Q851 91 859 81L859 81Q873 63 892 91L892 91Q906 123 879 150L879 150Q865 161 831 175Q797 189 743 207L743 207L734 194Q750 179 765.50 168Q781 157 798 145L798 145L585 133Q650 169 710.50 205Q771 241 830 284L830 284L872 294L814 349Q789 318 770 300Q751 282 737 274L737 274L576 271Q604 288 633 308.50Q662 329 692 349L692 349L724 358L663 403ZM263 423L263 484L740 484L740 423L263 423ZM263 603L201 632Q204 613 204.50 581.50Q205 550 205 507L205 507Q205 459 204.50 425Q204 391 201 365L201 365L263 384L263 394L740 394L740 371L798 394L798 571L830 597L770 645L737 603L263 603ZM263 510L263 578L740 578L740 510L263 510ZM243 68L243 68L227 71Q217 37 182 7L182 7Q170-3 155.50-11.50Q141-20 124-30L124-30Q95-39 100-62L100-62Q105-75 134-85L134-85Q159-89 189-62L189-62Q230-30 243 68ZM356 74L356 74L342 65Q359 46 369.50 31.50Q380 17 386 7L386 7Q409-19 414-53L414-53Q419-82 447-69L447-69Q475-44 466-11L466-11Q456 26 356 74ZM553 84L540 71Q580 30 598 3L598 3Q603-9 608.50-23.50Q614-38 617-53L617-53Q617-83 650-56L650-56Q681-37 663-4L663-4Q652 29 553 84L553 84ZM753 91L753 91L740 81Q765 57 782 38.50Q799 20 811 7L811 7Q818-6 827-21Q836-36 843-56L843-56Q859-95 882-56L882-56Q907-21 882 10L882 10Q862 42 753 91ZM501 697L447 752L405 723L356 723L356 768L386 797L298 829Q301 809 301 782L301 782Q301 756 301 723L301 723L74 723L108 687Q128 689 147 693Q166 697 185 697L185 697L301 697Q301 675 301 654L301 654Q301 634 298 610L298 610L359 629Q356 646 356 664L356 664Q356 682 356 697L356 697L501 697ZM514 723L543 690Q558 690 570.50 693.50Q583 697 598 697L598 697L650 697Q650 689 646.50 670Q643 651 643 623L643 623L705 645Q702 662 701.50 675.50Q701 689 701 697L701 697L950 697L888 758L834 723L701 723L701 778L730 800L643 829Q643 805 646.50 778Q650 751 650 723L650 723L514 723Z"/></svg>