<svg id="U26163" viewBox="0 0 1024 1024"><path transform="translate(0, 921.6) scale(1,-1)" d="M251 735L282 748L210 792Q189 699 143 609L143 609Q103 510 67 521L67 521L104 455Q117 467 130.50 473Q144 479 159 486L159 486Q174 488 193 492.50Q212 497 238 502L238 502Q210 448 185 408.50Q160 369 138 342L138 342Q88 280 63 285L63 285L98 219Q113 226 128.50 234Q144 242 166 247L166 247Q186 256 222 263Q258 270 307 282L307 282Q320 255 320 229L320 229Q327 213 346 226L346 226Q351 237 357.50 251.50Q364 266 364 285L364 285Q364 322 266 411L266 411L254 401Q285 350 298 301L298 301L119 285Q164 327 213.50 394.50Q263 462 317 553L317 553L348 568L292 615Q282 594 273 571Q264 548 251 527L251 527L122 518Q147 558 180 612Q213 666 251 735L251 735ZM632 672L632 672L660 701L585 729Q585 695 586.50 651Q588 607 588 556L588 556L525 556L525 754L547 779L474 811Q478 760 479 698.50Q480 637 480 556L480 556L415 556L415 676L443 704L367 732Q370 699 370.50 659Q371 619 371 571L371 571L348 556L392 512L415 530L588 530L588 502L638 521Q633 549 632.50 588Q632 627 632 672ZM547 458L358 458L383 420Q410 433 462 433L462 433L644 433L597 493L547 458ZM732 550L732 550L840 550Q832 462 815 382.50Q798 303 777 234L777 234Q732 349 732 550ZM811 770L732 808Q732 776 723.50 727Q715 678 701 609L701 609Q672 469 623 342L623 342L632 339Q658 379 678 415Q698 451 708 486L708 486Q708 324 755 188L755 188Q664 23 515-69L515-69L525-85Q664-23 773 137L773 137Q804 59 834 9.50Q864-40 893-69L893-69Q917-40 960-44L960-44L960-28Q875 1 799 181L799 181Q830 249 853 340.50Q876 432 890 550L890 550L960 550L909 612L862 574L736 574Q745 617 756.50 660Q768 703 780 748L780 748L811 770ZM374 335L374 335L374 319Q406 319 432.50 321Q459 323 480 323L480 323L480 206L351 206L387 172Q404 178 427.50 179.50Q451 181 474 181L474 181L480 181L480 49Q452 43 419.50 37.50Q387 32 351 30L351 30L387-31Q433-3 647 64L647 64L644 80L525 55L525 181L660 181L610 241L569 206L525 206L525 326Q537 326 550 329Q563 332 578 335L578 335Q593 335 606.50 337Q620 339 632 339L632 339L600 393Q550 346 374 335ZM101 165L86 159Q105 38 86 2L86 2Q77-40 96-44L96-44Q117-52 125-31L125-31Q143-18 143 21L143 21Q143 58 101 165L101 165ZM204 14L204 14Q212-25 232-6L232-6Q257 16 257 49L257 49Q257 87 181 185L181 185L172 172Q204 64 204 14ZM273 203L261 200Q281 146 292 106Q303 66 307 46L307 46Q311-2 339 23L339 23Q367 50 358 83L358 83Q355 98 335 128Q315 158 273 203L273 203Z"/></svg>