<svg id="U26BE8" viewBox="0 0 1024 1024"><path transform="translate(0, 921.6) scale(1,-1)" d="M706 485L291 466Q330 475 495 573L495 573L533 583L474 640Q415 572 335 526L335 526Q252 476 202 476L202 476L243 413Q255 415 275 417.50Q295 420 328 425L328 425Q358 427 458.50 435Q559 443 728 463L728 463Q740 443 749 429Q758 415 763 406L763 406Q772 377 801 406L801 406Q828 428 807 466L807 466Q784 506 631 573L631 573L621 561Q644 539 666.50 520Q689 501 706 485L706 485ZM662 183L662 183L356 183L356 233L391 258L300 293L300 183L65 183L99 151Q117 153 137.50 155Q158 157 177 157L177 157L300 157Q296 84 250 34L250 34Q194-21 80-67L80-67L83-80Q242-39 294 10L294 10Q352 77 356 157L356 157L662 157Q662 66 660.50 7.50Q659-51 659-86L659-86L722-58Q717-26 716.50 26.50Q716 79 716 157L716 157L958 157L895 229L845 183L716 183L716 236L747 262L659 296Q659 267 660.50 239Q662 211 662 183ZM486 314L486 211L543 233L543 314L876 314L807 388L763 340L543 340L543 384L567 403L486 435L486 340L161 340L199 309Q216 311 236 312.50Q256 314 275 314L275 314L486 314ZM515 661L464 728L413 687L350 687L350 749L379 778L294 813Q296 791 296.50 760Q297 729 297 687L297 687L96 687L133 648Q153 655 178.50 656.50Q204 658 230 661L230 661L297 661Q297 635 296.50 608.50Q296 582 294 555L294 555L353 579Q350 600 350 620L350 620Q350 640 350 661L350 661L515 661ZM517 689L552 652Q580 664 621 664L621 664L652 664Q652 647 650.50 621.50Q649 596 649 563L649 563L710 586Q707 604 706.50 625Q706 646 706 664L706 664L933 664L876 733L826 689L706 689L706 749L741 774L649 813Q649 783 650.50 752.50Q652 722 652 689L652 689L517 689Z"/></svg>