<svg id="U26940" viewBox="0 0 1024 1024"><path transform="translate(0, 921.6) scale(1,-1)" d="M330 579L330 579L324 572Q341 546 355.50 525.50Q370 505 385 482L385 482L161 473Q254 577 299 677L299 677L506 677L449 748L397 704L63 704L97 671Q113 673 130 675Q147 677 170 677L170 677L234 677Q216 626 200 589Q184 552 167 527L167 527Q154 501 138.50 486.50Q123 472 106 466L106 466L139 409Q162 417 189 426Q216 435 247 441L247 441Q278 445 314.50 451Q351 457 394 463L394 463Q403 437 408.50 420.50Q414 404 417 399L417 399Q425 381 442 399L442 399Q449 406 452.50 417.50Q456 429 462 441L462 441Q462 464 433 499L433 499Q414 514 388.50 534Q363 554 330 579ZM305 80L305 80L305 240L462 240L397 303L352 265L305 265L305 374L337 403L250 434Q253 411 253.50 377.50Q254 344 254 303L254 303L254 265L94 265L129 230Q165 240 199 240L199 240L254 240L254 67Q192 52 147 41.50Q102 31 73 28L73 28L109-34L148-8Q275 34 358 62Q441 90 480 105L480 105L480 121Q457 113 413 103Q369 93 305 80ZM563 662L563 662Q526 626 501.50 604.50Q477 583 455 579L455 579L487 511Q519 520 549 529Q579 538 605 543L605 543Q634 550 694 558.50Q754 567 849 582L849 582Q860 559 868 544Q876 529 881 521L881 521Q891 495 922 534L922 534Q945 566 909 604L909 604Q890 625 855.50 650Q821 675 768 709L768 709L759 694Q780 668 797.50 646.50Q815 625 836 604L836 604Q741 598 667 593.50Q593 589 532 584L532 584Q602 655 649.50 698.50Q697 742 724 764L724 764L663 819Q646 779 622 740.50Q598 702 563 662ZM650 499L650 499L673 521L599 556Q599 511 595 471.50Q591 432 586 399L586 399L449 399L484 358Q500 362 518.50 368Q537 374 555 374L555 374L583 374Q556 124 350-69L350-69L356-79Q545 46 612 255L612 255L635 255Q648 200 666 154Q684 108 708 70L708 70Q658 26 601-10.50Q544-47 475-79L475-79L480-91Q631-52 733 32L733 32Q791-29 887-85L887-85Q896-48 961-43L961-43L961-31Q848-9 771 67L771 67Q828 127 871 240L871 240L906 265L861 319L826 281L615 281Q622 297 625.50 320.50Q629 344 635 374L635 374L948 374L891 441L842 399L641 399Q643 432 645 456.50Q647 481 650 499ZM660 255L660 255L823 255Q806 207 783.50 168.50Q761 130 740 102L740 102Q716 124 696.50 163.50Q677 203 660 255Z"/></svg>