<svg id="U2608D" viewBox="0 0 1024 1024"><path transform="translate(0, 921.6) scale(1,-1)" d="M292 216L282 209Q308 158 324.50 121Q341 84 346 59L346 59Q356 8 380 39Q404 70 399 105L399 105Q393 138 292 216L292 216ZM302 754L302 754L228 808Q199 694 150 612L150 612Q101 523 73 518L73 518L108 445Q138 469 172 480L172 480Q197 483 269 506L269 506Q236 455 205.50 413.50Q175 372 147 342L147 342Q94 282 73 282L73 282L114 203Q122 213 139 222Q156 231 181 241L181 241Q205 248 244.50 257Q284 266 339 278L339 278Q346 260 350.50 248Q355 236 358 222L358 222Q362 200 380 222L380 222Q402 238 402 282L402 282Q402 315 292 408L292 408L282 401Q297 372 309.50 346.50Q322 321 330 301L330 301L131 278Q203 347 285 458L285 458Q369 563 380 563L380 563L323 622Q313 599 303 575Q293 551 279 530L279 530L131 518Q159 558 185 595Q211 632 232 672L232 672Q282 750 302 754ZM556 21L556 241L814 241L814 21L556 21ZM865 39L865 39L865 234L893 263L834 311L808 266L556 266L537 278Q546 295 563.50 326Q581 357 610 408L610 408L950 408L884 493L830 437L616 437Q641 493 673 540L673 540L698 556L623 603Q603 520 562 437L562 437L358 437L389 401Q408 403 425 405.50Q442 408 462 408L462 408L556 408Q533 362 517 329Q501 296 487 272L487 272Q468 229 387 137L387 137L399 131Q465 171 506 231L506 231L506 64Q506 43 504.50 8Q503-27 503-85L503-85L556-62L556-3L814-3L814-78L868-57Q865-42 865-17L865-17Q865 7 865 39ZM104 156L92 149Q105 90 110.50 50.50Q116 11 114-9L114-9Q111-45 125-50L125-50Q144-50 163-31L163-31Q169-21 174.50-9Q180 3 176 18L176 18Q173 33 155.50 68.50Q138 104 104 156L104 156ZM232 14L232 14Q241-22 263-6L263-6Q289 14 289 46L289 46Q289 77 200 181L200 181L187 172Q206 114 217.50 75.50Q229 37 232 14ZM660 650L610 710L572 672L544 672L544 745L562 773L497 811Q497 784 498.50 750.50Q500 717 500 672L500 672L367 672L399 635Q413 639 422 643Q431 647 443 647L443 647L500 647Q500 618 498.50 587.50Q497 557 497 530L497 530L544 559L544 650L660 650ZM654 676L688 638L726 650L755 650L755 543L802 571L802 650L950 650L893 720L852 676L802 676L802 738L827 767L752 808Q752 776 753.50 744.50Q755 713 755 676L755 676L654 676Z"/></svg>