<svg id="U26560" viewBox="0 0 1024 1024"><path transform="translate(0, 921.6) scale(1,-1)" d="M196 159L196 323L346 323L346 190L196 159ZM400 181L400 694L495 694L429 770L388 723L59 723L94 685Q127 694 145 694L145 694L145 701L145 146Q124 141 105.50 135.50Q87 130 65 128L65 128L109 67Q133 94 346 162L346 162Q346 93 346 34L346 34Q346-25 344-82L344-82L403-44Q400-9 400 45L400 45Q400 100 400 181L400 181ZM196 537L196 694L346 694L346 537L196 537ZM196 512L346 512L346 352L196 352L196 512ZM618 241L618 530L763 530L763 241L618 241ZM564 691L564 556L461 556L489 521Q520 530 564 530L564 530L564 241L429 241L464 206Q479 208 496.50 212Q514 216 536 216L536 216L965 216L898 285L857 241L816 241L816 530L948 530L895 597L854 556L816 556L816 745L845 773L760 808Q760 765 761.50 730.50Q763 696 763 666L763 666L763 556L618 556L618 745L639 773L561 808Q561 776 562.50 747.50Q564 719 564 691L564 691ZM413-60L413-60L429-69Q483-27 521.50 4Q560 35 580 62L580 62Q603 85 622 102.50Q641 120 659 128L659 128L596 181Q545 65 413-60ZM753 168L753 168L740 159Q792 108 823.50 66Q855 24 873-9L873-9Q906-75 924-54L924-54Q928-39 931.50-28Q935-17 935-3L935-3Q935 23 898 64L898 64Q878 84 841.50 110Q805 136 753 168Z"/></svg>