<svg id="U26C97" viewBox="0 0 1024 1024"><path transform="translate(0, 921.6) scale(1,-1)" d="M501 662L448 732L400 691L356 691L356 756L385 788L300 820Q302 798 302.50 767Q303 736 303 691L303 691L91 691L127 656Q142 657 160 659.50Q178 662 199 662L199 662L303 662Q303 636 302.50 611.50Q302 587 300 561L300 561L359 586Q356 607 356 626L356 626Q356 645 356 662L356 662L501 662ZM621 665L639 665Q639 656 638 632.50Q637 609 637 573L637 573L696 593Q693 616 693 636L693 636Q693 656 693 665L693 665L911 665L860 732L804 694L693 694L693 753L724 779L637 817Q637 787 638 756.50Q639 726 639 694L639 694L511 694L549 658Q584 665 621 665L621 665ZM435 413L435 504L464 527L413 576L382 545L123 545L161 507Q191 520 233 520L233 520L382 520L382 450L91 450L123 419Q143 424 151.50 425Q160 426 151 426L151 426L382 426L382 360L123 360L161 324Q180 327 197 329Q214 331 233 331L233 331L382 331L382 306L438 328L435 369L435 413ZM205 2L205 2L205-13Q297-22 297-73L297-73Q353-63 385-39L385-39Q420-13 435 126L435 126L464 139L416 196L382 164L281 164Q295 185 307 204.50Q319 224 331 243L331 243L362 252L322 306L284 275L72 275L106 243Q123 245 146 247Q169 249 192 249L192 249L277 249L227 174L205 167L243 114L271 136L382 136Q377 91 371.50 61.50Q366 32 359 16L359 16Q345-8 297-4L297-4Q270-1 246.50-0.50Q223 0 205 2ZM788 423L788 423L788 507L822 539L772 586L737 555L602 555L552 580Q554 519 550.50 475.50Q547 432 533 404L533 404Q507 341 438 287L438 287L444 275Q486 298 517.50 320.50Q549 343 570 372L570 372Q607 428 611 527L611 527L734 527L734 401Q730 331 813 341L813 341L904 341Q952 346 939 372L939 372Q916 395 891 391L891 391Q873 388 835 388L835 388Q805 388 798 391L798 391Q788 391 788 423ZM577 265L577 265L775 265Q746 210 719 174.50Q692 139 672 120L672 120Q607 169 577 265ZM513 252L552 262Q560 214 581 172.50Q602 131 634 89L634 89Q586 46 523 11.50Q460-23 385-54L385-54L388-73Q469-56 538.50-24Q608 8 668 51L668 51Q761-30 883-73L883-73Q895-21 952-26L952-26L952-7Q882-3 822 20L822 20Q759 39 712 82L712 82Q770 140 832 249L832 249L863 265L822 322L785 290L485 290L513 252Z"/></svg>