<svg id="U26485" viewBox="0 0 1024 1024"><path transform="translate(0, 921.6) scale(1,-1)" d="M97 30L97 30L97 14Q184-16 180-62L180-62Q214-53 230-37L230-37Q249-15 249 18L249 18L249 694L274 710L227 767L199 732L75 732L106 697Q126 704 146 705.50Q166 707 189 707L189 707L202 707L202 370Q181 338 161.50 312.50Q142 287 123 270L123 270Q110 254 94.50 239Q79 224 62 209L62 209L116 168Q117 180 125.50 198.50Q134 217 145 241L145 241Q159 262 173 285Q187 308 202 329L202 329L202 55Q202 14 180 14L180 14Q168 17 146.50 19.50Q125 22 97 30ZM116 584L116 584L100 578Q123 511 123 445L123 445Q137 384 151 404L151 404Q171 430 174 448L174 448Q182 474 164 502L164 502Q157 517 145 536Q133 555 116 584ZM300 581L300 581L290 574Q305 539 310 508Q315 477 318 448L318 448Q329 392 346 411L346 411Q364 435 369 458L369 458Q374 490 356 509L356 509Q348 521 334 540.50Q320 560 300 581ZM407 326L407 326L407 42Q407 8 385 8L385 8Q374 8 351.50 10.50Q329 13 294 18L294 18L294 2Q379-23 375-72L375-72Q395-62 409-53.50Q423-45 431-37L431-37Q451-19 451 26L451 26L451 697L482 710L426 761L397 732L271 732L305 697Q322 700 339 703.50Q356 707 375 707L375 707L407 707L407 370Q373 316 335 272L335 272Q315 249 298.50 231Q282 213 268 206L268 206L318 159Q323 171 329.50 190.50Q336 210 350 231L350 231Q364 255 378 277.50Q392 300 407 326ZM961-37L961-37L961-21Q810 2 719 146L719 146L958 146L911 213L870 172L703 172Q705 190 708.50 205Q712 220 712 231L712 231L911 231L857 294L819 260L712 257Q712 282 714 303Q716 324 716 342L716 342L842 342L842 311L891 332Q888 358 888 389L888 389Q888 421 888 461L888 461L914 480L857 521L835 486L716 486L716 563L765 563L765 534L816 559Q813 582 813 608L813 608Q813 634 813 669L813 669L945 669L898 735L857 694L813 694L813 751L835 773L763 808Q763 776 764 749.50Q765 723 765 694L765 694L618 694L618 754L631 776L567 808Q567 772 568.50 743.50Q570 715 570 694L570 694L464 694L489 663Q503 663 520 666Q537 669 557 669L557 669L570 669Q570 627 568.50 591.50Q567 556 567 527L567 527L618 543L618 563L668 563L668 486L545 486L501 515Q501 488 503 462.50Q505 437 505 411L505 411Q505 388 503 360Q501 332 501 304L501 304L545 323L545 342L668 342Q668 324 666.50 303.50Q665 283 665 260L665 260L485 260L520 226Q536 228 553 229.50Q570 231 590 231L590 231L665 231Q662 217 660 202.50Q658 188 655 172L655 172L461 172L492 137Q522 146 564 146L564 146L646 146Q625 82 569.50 30.50Q514-21 429-72L429-72L431-82Q625-20 700 149L700 149Q729 68 780 14Q831-40 898-78L898-78Q921-41 961-37ZM618 591L618 669L765 669L765 591L618 591ZM545 367L545 461L668 461L668 367L545 367ZM716 367L716 461L842 461L842 367L716 367Z"/></svg>