<svg id="U2714F" viewBox="0 0 1024 1024"><path transform="translate(0, 921.6) scale(1,-1)" d="M505 701L457 764L416 727L356 727L356 777L382 796L303 821L303 727L94 727L127 692Q147 698 172.50 699.50Q198 701 227 701L227 701L303 701Q303 690 302.50 671.50Q302 653 300 629L300 629L359 648Q356 671 356 682L356 682Q356 694 356 701L356 701L505 701ZM593 704L655 704L655 645L712 666Q709 683 709 692L709 692Q709 701 709 704L709 704L939 704L886 774L845 730L709 730L709 777L731 786L652 821Q652 799 653.50 776Q655 753 655 730L655 730L517 730L555 698Q575 702 585 703Q595 704 593 704L593 704ZM297 377L297 377L356 406Q346 425 346 487L346 487Q389 464 413 437L413 437Q429 406 444 437L444 437Q459 466 438 484L438 484Q429 488 406 493Q383 498 346 503L346 503L346 528L523 528L476 584L441 553L346 553L346 601L457 610L485 607L444 666Q408 643 318 629L318 629Q273 621 232.50 615.50Q192 610 155 610L155 610L155 591Q209 591 243 591L243 591Q278 591 300 594L300 594L300 553L94 553L130 522Q148 524 168.50 526Q189 528 208 528L208 528L259 528Q210 453 78 386L78 386L88 373Q221 424 300 503L300 503Q300 465 299.50 434Q299 403 297 377ZM646 591L668 622L690 632L627 670Q619 647 608 625Q597 603 583 581L583 581Q570 560 552.50 537.50Q535 515 513 490L513 490L520 475Q584 516 631 566L631 566L690 566Q661 474 552 414L552 414L555 399Q705 445 744 566L744 566L816 566Q804 459 804 449L804 449Q797 430 765 430L765 430Q726 430 696 443L696 443L693 418Q763 406 769 370L769 370Q821 379 842 414L842 414Q847 431 855.50 468Q864 505 870 563L870 563L895 581L845 625L813 591L646 591ZM366 200L366 200L366 185Q380 182 394 179.50Q408 177 426 175L426 175Q463 163 467 141L467 141Q531 159 536 200L536 200L536 260Q603 275 650 284Q697 293 724 295L724 295L675 342Q663 335 629.50 319Q596 303 536 280L536 280L536 336L557 352L479 377Q481 358 483 338.50Q485 319 485 298L485 298L485 223Q485 204 476 200L476 200Q470 198 441 198L441 198Q430 198 410 198L410 198Q391 198 366 200ZM564 251L564 251L564 236Q691 211 744 178L744 178Q793 149 809 162L809 162Q821 180 798 200L798 200Q778 227 564 251ZM130 216L130 216L168 162Q187 178 277 198L277 198Q325 209 365.50 218Q406 227 441 239L441 239L441 254Q312 233 236 224.50Q160 216 130 216ZM281 329L271 317Q344 282 359 264L359 264Q380 246 397 264L397 264Q411 285 385 308L385 308Q370 314 344 320Q318 326 281 329L281 329ZM555 437L555 437L492 475Q421 368 65 311L65 311L68 292Q214 304 323 331.50Q432 359 511 411L511 411Q638 307 883 288L883 288Q891 329 958 329L958 329L958 342Q691 342 520 424L520 424Q532 428 539.50 432.50Q547 437 555 437ZM498 65L441 118L400 93L356 93L356 138L379 159L303 182L303 93L68 93L106 59Q126 63 142.50 64Q159 65 174 65L174 65L297 65Q278-10 88-59L88-59L88-75Q321-46 350 65L350 65L498 65ZM513 93L555 59L590 65L649 65Q649 30 647.50-4.50Q646-39 646-75L646-75L706-52Q701-26 700.50 2Q700 30 700 65L700 65L952 65L891 125L847 93L700 93L700 121L731 141L646 172Q646 143 647.50 122.50Q649 102 649 93L649 93L513 93Z"/></svg>