<svg id="U27FF6" viewBox="0 0 1024 1024"><path transform="translate(0, 921.6) scale(1,-1)" d="M408 691L408 691L440 713L387 773L348 732L179 732L119 770Q121 734 121.50 686.50Q122 639 122 587L122 587Q122 530 121.50 488Q121 446 119 420L119 420L172 448L172 477L238 477L238 42L169 21L169 301L194 326L117 383Q118 338 118.50 245Q119 152 119 5L119 5L60-9L111-72L147-44Q222-9 293 21Q364 51 430 80L430 80L428 93L292 52L292 275L440 275L380 345L343 301L292 301L292 477L361 477L361 430L411 458Q408 498 408 556L408 556Q408 615 408 691ZM172 506L172 707L361 707L361 506L172 506ZM623 732L647 751L575 798Q528 604 405 430L405 430L415 420Q494 490 559 606L559 606L934 606L875 676L821 632L569 632Q581 647 593 673Q605 699 623 732L623 732ZM647 46L647 46L704 70Q701 87 701 118L701 118Q701 149 701 188L701 188L701 373L837 408Q837 339 835.50 294Q834 249 834 229L834 229Q826 185 802 185L802 185Q778 178 723 188L723 188L723 175Q739 167 753 161.50Q767 156 777 149L777 149Q794 135 799 103L799 103Q853 127 862 146L862 146Q876 177 881 200L881 200Q881 214 884.50 261.50Q888 309 890 393L890 393L919 417L868 471L830 433L701 401L701 527L729 556L647 594Q647 552 650.50 502.50Q654 453 654 393L654 393L544 363L544 424L569 452L490 489Q490 454 493.50 420.50Q497 387 497 354L497 354L424 339L462 304L471 316L497 323L497 14Q497-69 575-69L575-69L855-69Q939-69 963-9L963-9Q930 4 915 46L915 46Q910 63 909.50 88.50Q909 114 909 144L909 144L890 144L890 26Q890-19 852-25L852-25L600-25Q544-30 544 33L544 33L544 335L654 360L654 140Q654 123 650.50 98Q647 73 647 46Z"/></svg>