<svg id="U27158" viewBox="0 0 1024 1024"><path transform="translate(0, 921.6) scale(1,-1)" d="M273 491L273 491L70 491L108 457Q125 459 143.50 461Q162 463 181 463L181 463L220 463L220 363L98 363L135 328Q171 337 210 337L210 337L220 337L220 231L70 231L108 198Q146 205 181 205L181 205L220 205Q217 162 205.50 128Q194 94 179 64L179 64Q163 35 134 2.50Q105-30 63-67L63-67L76-80Q181-25 222 44L222 44Q265 113 273 205L273 205L436 205L389 265L348 231L273 231L273 337L424 337L371 398L330 363L273 363L273 463L430 463L377 524L339 491L295 491Q309 508 327.50 531Q346 554 371 589L371 589L405 599L333 646Q306 548 273 491ZM135 630L135 630L122 624Q170 566 176 536L176 536Q180 497 197 511L197 511Q219 515 222 536L222 536Q235 552 210 580L210 580Q195 592 177.50 605Q160 618 135 630ZM469 507L469 507L641 507L641 398L641 322L695 337Q689 356 688.50 372.50Q688 389 688 404L688 404L688 507L878 507L849 460L858 454Q909 494 960 511L960 511L912 561L878 532L688 532L688 589L899 589L849 653L796 614L428 614L465 576Q481 579 499 582.50Q517 586 541 589L541 589L641 589L641 532L469 532L469 561L452 561Q439 505 408 479L408 479Q380 454 402 442L402 442Q427 426 446 445L446 445Q465 475 469 507ZM513-45L513 180L588 180Q588 111 586.50 60.50Q585 10 585-29L585-29L638-4Q636 20 635.50 65.50Q635 111 635 180L635 180L704 180Q704 108 702.50 61.50Q701 15 701-7L701-7L752 10L752 180L834 180L834 13Q834-2 814-10L814-10Q805-10 788-10L788-10Q772-10 752-7L752-7L752-29Q811-34 821-70L821-70Q881-55 881 13L881 13L881 167L912 193L858 239L830 205L629 205L688 259L960 259L903 324L855 284L411 284L449 246Q468 248 487 252Q506 256 525 259L525 259L629 259L606 205L510 205L462 221Q464 188 464.50 151Q465 114 465 76L465 76Q465 40 464.50 4Q464-32 462-70L462-70L513-45ZM493 706L446 763L405 732L358 732L358 784L387 794L302 823Q305 805 306 782Q307 759 307 732L307 732L108 732L140 702Q161 702 180.50 702.50Q200 703 220 706L220 706L307 706Q307 667 302 650L302 650L364 658Q358 674 358 706L358 706L493 706ZM525 735L554 702Q565 707 578.50 708Q592 709 603 709L603 709L644 709Q644 703 642.50 683Q641 663 641 633L641 633L701 653Q698 676 698 689L698 689Q698 703 698 709L698 709L922 709L871 769L821 735L698 735L698 772L723 794L641 825Q641 806 642.50 783Q644 760 644 735L644 735L525 735ZM559 423L559 423Q587 389 597 423L597 423Q606 455 578 470L578 470Q559 474 536 479Q513 484 474 489L474 489L471 479Q500 464 520 450.50Q540 437 559 423ZM626 391L626 391L619 404Q577 394 532.50 382.50Q488 371 436 363L436 363L469 316Q492 324 530 344Q568 364 626 391ZM830 334L830 334Q857 307 871 334L871 334Q880 362 855 378L855 378Q839 383 807 389Q775 395 723 401L723 401L720 391Q760 371 785.50 357Q811 343 830 334ZM834 442L834 442L862 442L830 498Q802 477 773.50 459.50Q745 442 717 435L717 435L720 419Q743 424 770.50 430Q798 436 834 442Z"/></svg>