<svg id="U2723E" viewBox="0 0 1024 1024"><path transform="translate(0, 921.6) scale(1,-1)" d="M303 307L284 307Q269 262 246.50 230.50Q224 199 199 181L199 181Q156 141 174 128L174 128Q193 118 227 124L227 124Q262 138 274 181L274 181Q286 207 292 238Q298 269 303 307L303 307ZM62-69L62-69L62-85Q221-66 341 8L341 8Q454 85 501 285L501 285Q595 1 873-85L873-85Q893-44 961-34L961-34L961-21Q739-2 602 162L602 162Q625 179 650.50 198.50Q676 218 703 241L703 241Q730 259 752 273Q774 287 791 294L791 294L728 354Q705 301 593 181L593 181Q555 226 534.50 261.50Q514 297 508 323L508 323L530 360L451 396Q451 354 444.50 309Q438 264 423 209L423 209Q391 102 309 42L309 42Q266 10 204.50-16.50Q143-43 62-69ZM526 669L526 666L530 666L753 666L753 556L526 556L526 669ZM253 556L253 666L470 666L470 556L253 556ZM470 530L470 414Q334 402 239 397.50Q144 393 84 393L84 393L116 316Q141 323 198.50 334Q256 345 344 354Q432 363 546.50 375Q661 387 806 401L806 401Q825 385 841 370.50Q857 356 870 342L870 342Q899 304 911 342L911 342Q921 375 904 411L904 411Q881 442 675 512L675 512L665 499Q693 479 721 462.50Q749 446 778 430L778 430Q733 422 670 419Q607 416 526 414L526 414L526 530L753 530L753 512L813 530Q809 545 809 571L809 571L809 656L839 676L781 726L750 691L526 691L526 751L555 773L467 811Q469 775 469.50 746Q470 717 470 691L470 691L253 691L192 723Q195 680 195.50 645.50Q196 611 196 591L196 591Q196 564 195.50 536Q195 508 192 480L192 480L253 502L253 530L470 530Z"/></svg>