<svg id="U27D15" viewBox="0 0 1024 1024"><path transform="translate(0, 921.6) scale(1,-1)" d="M423 258L423 258L407 258Q401 167 372 116L372 116Q349 69 353 51L353 51Q361 20 382 31L382 31Q400 36 410 88L410 88Q427 128 423 258ZM596 340L596 340L586 331Q614 228 618 192L618 192Q618 146 634 142L634 142Q647 142 652 160L652 160Q659 170 659 214L659 214Q653 253 596 340ZM451 31L451 31Q446-61 489-52L489-52L557-52Q603-52 631 0L631 0Q604 0 598 54L598 54Q596 81 596 107L596 107Q596 134 596 160L596 160L580 160Q580 120 578.50 89Q577 58 577 34L577 34Q572-13 555-8L555-8L526-8Q493-12 498 47L498 47L498 245L523 268L448 318Q450 269 450.50 198.50Q451 128 451 31ZM476 422L476 422L470 409Q519 332 533 283L533 283Q541 225 555 239L555 239Q567 246 567 280L567 280Q572 294 567 310Q562 326 557 344L557 344Q537 381 476 422ZM891 268L891 268L886 262Q894 216 902.50 181Q911 146 914 123L914 123Q918 69 935 69L935 69Q950 69 955 104L955 104Q955 122 954 139.50Q953 157 948 177L948 177Q939 209 891 268ZM703 252L703 252L693 252Q685 207 679 174.50Q673 142 659 123L659 123Q635 79 639 54L639 54Q639 20 659 31L659 31Q675 34 690 79L690 79Q703 114 703 252ZM753 394L753 394L750 381Q770 339 787 308Q804 277 813 252L813 252Q831 206 845 211L845 211Q854 227 854 252L854 252Q854 283 839 318L839 318Q819 346 753 394ZM734 10L734 10Q729-52 775-52L775-52L845-52Q882-61 917-1L917-1Q886 15 886 63L886 63Q883 83 883 108L883 108Q883 134 883 160L883 160L866 160Q863 120 860 89Q857 58 857 34L857 34Q852-13 835-8L835-8L794-8Q773-4 778 34L778 34L778 242L801 265L731 318Q731 275 732.50 198.50Q734 122 734 10ZM621 687L542 728Q542 658 543.50 594.50Q545 531 545 473L545 473Q541 405 605 409L605 409L747 409Q804 409 832 479L832 479Q788 474 788 607L788 607L772 607Q772 457 721 457L721 457L631 457Q599 457 596 479L596 479L596 668L621 687ZM873 545L873 545Q877 488 904 510L904 510Q925 521 930 563L930 563Q930 604 816 718L816 718L806 709Q834 654 851 613.50Q868 573 873 545ZM624 807L614 803Q668 729 680 677L680 677Q693 622 719 636L719 636Q741 645 737 696L737 696Q726 745 624 807L624 807ZM407 538L407 538Q354 502 385 479L385 479Q415 452 448 485L448 485Q482 522 482 674L482 674L467 677Q457 576 407 538ZM312 749L271 813Q254 782 230 752Q206 722 177 692L177 692Q138 645 68 602L68 602L68 592Q93 598 139 627L139 627Q165 553 171 514L171 514Q173 492 178.50 488.50Q184 485 189 497L189 497Q208 522 202 551L202 551Q191 584 155 633L155 633Q180 646 205 671L205 671Q221 642 229 619Q237 596 243 579L243 579Q248 534 265 570L265 570Q285 597 268 620L268 620Q257 648 218 681L218 681Q290 742 312 749L312 749ZM388 589L353 655Q334 626 304 593Q274 560 236 520L236 520Q201 478 160.50 446.50Q120 415 75 388L75 388L78 378Q166 402 233 466L233 466Q246 449 253 416L253 416Q178 298 78 224L78 224L78 211Q191 267 271 375L271 375Q273 360 278.50 341.50Q284 323 287 303L287 303Q244 228 192.50 166.50Q141 105 78 54L78 54L78 38Q141 73 195 123Q249 173 300 242L300 242Q300 185 296.50 144.50Q293 104 290 79L290 79Q285 29 262 6L262 6Q238-14 168 13L168 13L164-1Q234-38 227-86L227-86Q294-45 325 19L325 19Q350 83 346 183L346 183Q344 232 336 272Q328 312 322 340L322 340Q303 395 253 479L253 479Q273 495 292.50 514Q312 533 335 555L335 555Q384 589 388 589L388 589Z"/></svg>