<svg id="U27CC9" viewBox="0 0 1024 1024"><path transform="translate(0, 921.6) scale(1,-1)" d="M556 802L556 802L544 795Q584 710 588 660L588 660Q596 602 619 625L619 625Q641 642 647 672L647 672Q647 700 629 723L629 723Q612 752 556 802ZM752-75L752-75L808-44Q803-13 802.50 11Q802 35 802 64L802 64L802 323L960 323L906 389L855 348L802 348L802 578L934 578L878 644L834 603L745 603Q768 643 791.50 679.50Q815 716 837 751L837 751L862 764L789 814Q777 753 760 699.50Q743 646 720 603L720 603L469 603L503 568Q539 578 575 578L575 578L575 348L428 348L462 313Q478 315 495 319Q512 323 531 323L531 323L575 323Q560 187 528 83L528 83Q491-1 402-72L402-72L405-88Q528-20 569 77L569 77Q615 177 623 323L623 323L755 323Q755 168 753.50 70.50Q752-27 752-75ZM623 348L623 578L755 578L755 348L623 348ZM408 754L346 814Q294 755 213 697L213 697Q175 669 138 645.50Q101 622 63 606L63 606L63 597Q103 600 169 628L169 628Q185 595 193 566.50Q201 538 207 518L207 518Q211 478 232 502L232 502Q256 521 251 556L251 556Q246 582 187 638L187 638Q204 645 220.50 654.50Q237 664 254 676L254 676Q297 611 305 584L305 584Q314 549 336 574L336 574Q357 592 343 625L343 625Q324 651 273 685L273 685Q385 749 408 754L408 754ZM480 578L428 644Q396 600 305 524L305 524Q205 446 73 393L73 393L76 383Q134 392 189 414.50Q244 437 295 468L295 468Q302 456 307.50 446Q313 436 323 424L323 424Q216 298 80 229L80 229L83 216Q156 244 223.50 283Q291 322 346 376L346 376Q349 361 355.50 344.50Q362 328 367 311L367 311Q313 236 242 171.50Q171 107 80 59L80 59L83 42Q252 102 377 247L377 247Q395 141 377 83L377 83Q364 28 333 2L333 2Q300-12 200 18L200 18L194 2Q296-34 285-78L285-78Q370-56 408 8L408 8Q447 81 443 178L443 178Q440 232 429.50 272.50Q419 313 405 345L405 345Q390 375 367.50 408.50Q345 442 317 480L317 480Q343 501 368 518Q393 535 415 550L415 550Q467 578 480 578L480 578Z"/></svg>