<svg id="U272C3" viewBox="0 0 1024 1024"><path transform="translate(0, 921.6) scale(1,-1)" d="M145 296L145 566L227 566L227 296L145 296ZM274 296L274 566L350 566L350 296L274 296ZM359 119L359 119L274 101L274 271L350 271L350 236L397 265Q394 295 394 323L394 323Q394 352 394 375L394 375L394 551L416 566L375 623L344 592L274 592L274 730L303 766L224 810Q226 778 226.50 722.50Q227 667 227 592L227 592L145 592L100 623Q103 578 103 525L103 525Q103 473 103 416L103 416Q103 356 103 306L103 306Q103 257 100 218L100 218L145 242L145 271L227 271L227 88Q103 57 62 57L62 57L91-11Q100-2 124 8.50Q148 19 186 38L186 38Q228 52 273 64Q318 76 369 91L369 91Q371 82 373.50 68Q376 54 379 38L379 38Q384 4 410 38L410 38Q430 66 426 101L426 101Q418 114 395.50 144.50Q373 175 328 221L328 221L315 208Q331 179 341.50 157Q352 135 359 119ZM555-58L555 457Q578 496 599.50 540.50Q621 585 643 633L643 633L942 633L891 705L839 661L646 661Q658 682 666.50 707Q675 732 683 759L683 759L709 771L639 815Q633 780 621 741.50Q609 703 596 661L596 661L394 661L429 627Q445 629 464 631Q483 633 505 633L505 633L590 633Q564 562 533 507L533 507L498 517Q498 499 501.50 485Q505 471 505 457L505 457Q476 400 451.50 359.50Q427 319 407 296L407 296L410 283Q446 306 508 381L508 381L508 60Q508 21 506.50-15.50Q505-52 505-90L505-90L555-58ZM740 283L740 283L557 283L593 245Q619 258 665 258L665 258L740 258L740 57Q740 10 706 10L706 10Q688 12 663 16Q638 20 608 22L608 22L608 6Q700-11 709-70L709-70Q736-54 765-33L765-33Q788-8 788 41L788 41L788 258L961 258L907 324L863 283L788 283L788 331L809 350L778 372Q879 472 924 476L924 476L876 532L839 507L608 507L643 473Q659 475 676 477Q693 479 712 479L712 479L829 479L763 378L737 394Q737 355 738.50 327.50Q740 300 740 283Z"/></svg>