<svg id="U27A42" viewBox="0 0 1024 1024"><path transform="translate(0, 921.6) scale(1,-1)" d="M893 653L846 603L430 603L465 571Q481 576 498.50 577Q516 578 537 578L537 578L963 578L893 653ZM575 483L603 521L626 537L562 581Q553 558 539.50 527.50Q526 497 503 465L503 465Q481 430 452.50 395.50Q424 361 389 329L389 329L399 316Q447 345 486.50 381Q526 417 559 455L559 455L871 455Q871 410 869 347.50Q867 285 865 200L865 200Q859 116 856 68Q853 20 849 8L849 8Q842 1 834.50-6Q827-13 818-16L818-16Q795-21 723-9L723-9L723-21Q798-41 802-88L802-88Q850-77 875-57L875-57Q887-45 892.50-28.50Q898-12 906 5L906 5Q911 46 915 168L915 168Q918 229 921.50 296.50Q925 364 925 445L925 445L956 471L899 518L868 483L575 483ZM770 168L799 188L752 234L720 206L582 206Q590 239 600 294L600 294L849 294L793 357L742 323L635 323Q705 376 565 424L565 424L556 414Q603 361 603 323L603 323L408 323L446 285L487 294L544 294Q538 243 525.50 198Q513 153 497 111L497 111Q454 30 361-57L361-57L367-69Q526 25 575 178L575 178L717 178Q707 121 700.50 87.50Q694 54 685 42L685 42Q677 21 654 21L654 21Q642 21 614.50 23.50Q587 26 547 36L547 36L547 21Q641-4 641-54L641-54Q704-33 729 2L729 2Q739 25 749 66.50Q759 108 770 168L770 168ZM184 814L172 805Q198 759 216.50 718Q235 677 245 641L245 641L60 641L96 603Q114 605 130.50 607.50Q147 610 169 615L169 615L440 615L387 682L333 641L269 641Q310 692 276 726L276 726Q262 746 238.50 767Q215 788 184 814L184 814ZM166 36L166 206L314 206L314 36L166 36ZM289 502L111 502L138 465Q169 474 213 474L213 474L392 474L333 543L289 502ZM285 357L117 357L147 326Q163 330 181.50 331Q200 332 220 332L220 332L389 332L330 401L285 357ZM364 70L364 197L392 219L343 266L310 231L172 231L114 266Q117 226 117 184L117 184Q117 142 117 99L117 99Q117 54 117 12L117 12Q117-30 114-78L114-78L166-54L166 8L314 8L314-57L367-31Q364-3 364 22L364 22Q364 47 364 70L364 70ZM758 745L521 745L547 713Q550 716 623 720L623 720L855 720L799 782L758 745Z"/></svg>