<svg id="U272C2" viewBox="0 0 1024 1024"><path transform="translate(0, 921.6) scale(1,-1)" d="M142 290L142 563L205 563L205 290L142 290ZM249 290L249 563L312 563L312 290L249 290ZM322 107L322 107L249 88L249 262L312 262L312 229L362 252Q357 284 356.50 311.50Q356 339 356 355L356 355L356 548L382 566L338 620L309 589L249 589L249 728L271 762L199 807Q203 775 204 719.50Q205 664 205 589L205 589L148 589L97 620Q99 575 99.50 522Q100 469 100 409L100 409Q100 351 99.50 300Q99 249 97 211L97 211L142 236L142 262L205 262L205 75Q150 57 115 49Q80 41 65 41L65 41L94-20Q110-4 177 25L177 25Q209 39 246 53Q283 67 325 82L325 82Q329 68 332.50 53Q336 38 338 22L338 22Q346-6 369 22L369 22Q389 49 385 85L385 85Q381 115 297 214L297 214L284 205Q298 171 307 148Q316 125 322 107ZM441 774L441 762Q467 731 487 705Q507 679 520 658L520 658Q535 613 552 648L552 648Q570 677 549 709L549 709Q537 732 441 774L441 774ZM385 566L382 555Q438 493 448 457L448 457Q465 422 479 435L479 435Q490 458 485 488L485 488Q481 519 385 566L385 566ZM369 236L369 236L369 221Q448 197 448 157L448 157Q450 134 445 108Q440 82 431 44L431 44Q417-21 461-45L461-45Q505-60 492 25L492 25Q489 70 490.50 109.50Q492 149 501 183L501 183Q508 218 519 257Q530 296 545 350L545 350Q560 400 579 473Q598 546 621 643L621 643L605 646Q484 256 454 236L454 236Q426 217 369 236ZM624 19L624 3Q716-22 721-80L721-80Q796-57 801 6L801 6L801 677L932 677L876 749L832 702L624 702L659 668Q675 670 692.50 673.50Q710 677 731 677L731 677L753 677L753 28Q753 6 734 6L734 6Q722 6 694.50 9Q667 12 624 19L624 19ZM854 406L577 406L602 368Q609 378 683 378L683 378L958 378L898 450L854 406Z"/></svg>