<svg id="U27ED5" viewBox="0 0 1024 1024"><path transform="translate(0, 921.6) scale(1,-1)" d="M840 277L840 277Q895 299 890 340L890 340Q890 356 891.50 397Q893 438 893 504L893 504L919 522L868 576L840 542L739 542L739 643L940 643L884 709L840 671L739 671L739 746L767 769L682 810Q682 786 683.50 763.50Q685 741 685 718L685 718L685 671L474 671L513 636Q548 643 585 643L585 643L685 643L685 542L575 542L531 573Q531 535 532.50 499Q534 463 534 428L534 428Q534 393 532.50 353Q531 313 531 271L531 271L585 290L585 517L685 517L685 368Q637 277 572 201L572 201Q537 158 502.50 124Q468 90 440 66L440 66L449 54Q522 100 580.50 153.50Q639 207 685 268L685 268L685 148Q685 114 683.50 75.50Q682 37 682-5L682-5L742 13Q739 41 739 67L739 67Q739 94 739 123L739 123L739 293Q774 245 799.50 213.50Q825 182 837 164L837 164Q846 146 856 128Q866 110 878 95L878 95Q893 60 909 104L909 104Q924 139 899 173L899 173Q871 204 739 318L739 318L739 517L840 517L840 362Q840 332 770 347L770 347L770 331Q823 321 840 277ZM285 630L140 630L169 595Q210 602 238 602L238 602L285 602L285 453L89 453L122 419Q159 425 187 425L187 425L302 425L305 368L305 303L305 85Q281 99 257.50 116Q234 133 216 154L216 154Q221 189 223 222.50Q225 256 228 290L228 290L254 318L179 350Q182 244 159 132L159 132Q144 78 121.50 27.50Q99-23 63-77L63-77L73-83Q176 22 204 132L204 132Q283 41 380-5L380-5Q434-30 495.50-46Q557-62 629-64L629-64Q764-69 896-64L896-64Q907-20 960-5L960-5L960 10Q845-1 754-4Q663-7 588-5L588-5Q439-1 354 57L354 57L354 242L480 242L430 309L392 268L354 268L354 375L380 396L317 425L513 425L456 497L408 453L336 453L336 602L474 602L421 668L380 630L336 630L336 743L361 769L282 810Q284 771 284.50 726.50Q285 682 285 630L285 630Z"/></svg>