<svg id="U277A4" viewBox="0 0 1024 1024"><path transform="translate(0, 921.6) scale(1,-1)" d="M302 728L302 728Q289 739 264 758.50Q239 778 204 800L204 800L194 794Q220 756 236.50 727.50Q253 699 261 671L261 671Q274 609 298 655L298 655Q320 689 302 728ZM307 620L273 586L83 586L117 555Q137 557 156 559Q175 561 194 561L194 561L279 561Q269 531 258 501Q247 471 235 440L235 440L207 450L207 378Q118 236 60 173L60 173L70 160Q145 219 210 312L210 312L210-86L254-62L254 314Q300 267 314 227L314 227Q339 181 348 224L348 224Q368 258 343 283L343 283Q328 304 285 314L285 314Q345 383 383 400L383 400L339 444Q315 377 269 324L269 324L254 331L254 391Q277 430 296.50 471Q316 512 333 555L333 555L358 566L307 620ZM518 160L518 160L805 160Q769 129 732.50 101.50Q696 74 651 54L651 54Q575 93 518 160ZM565 579L565 579L500 623Q480 559 446 498.50Q412 438 367 378L367 378L380 368Q410 396 435 421.50Q460 447 474 469L474 469Q474 366 473 300Q472 234 469 205L469 205L521 218L521 245L940 245L878 312L827 271L717 271L717 344L912 344L855 403L811 368L717 368L717 425L903 425L849 485L799 450L717 450L717 510L934 510L878 576L830 538L521 538Q531 552 542 562Q553 572 565 579ZM521 450L521 510L663 510L663 450L521 450ZM521 368L521 425L663 425L663 368L521 368ZM521 271L521 344L663 344L663 271L521 271ZM613 34L613 34Q483-28 310-70L310-70L314-86Q480-62 644 3L644 3Q758-56 893-80L893-80Q897-40 963-36L963-36L963-20Q820-25 691 28L691 28Q731 52 771.50 79.50Q812 107 855 139L855 139L890 151L852 211L814 188L402 188L436 154Q453 156 465 158Q477 160 487 160L487 160Q524 115 555.50 83Q587 51 613 34ZM534 709L534 709L377 709L408 671Q425 673 443.50 675.50Q462 678 480 681L480 681L534 681L534 617L578 643L578 681L729 681L729 620L773 643L773 681L947 681L890 743L843 709L773 709L773 753L799 778L726 813Q726 779 727.50 753Q729 727 729 709L729 709L578 709L578 756L600 781L531 813Q531 779 532.50 753Q534 727 534 709ZM632 658L632 658L619 652Q660 595 670 561L670 561Q680 515 701 555L701 555Q724 583 711 611L711 611Q699 620 679.50 632Q660 644 632 658Z"/></svg>