<svg id="U2709D" viewBox="0 0 1024 1024"><path transform="translate(0, 921.6) scale(1,-1)" d="M144 395L144 459L131 459Q113 369 81 343L81 343Q43 319 65 301L65 301Q88 278 115 295L115 295Q139 312 144 369L144 369L870 369L828 285L837 276Q910 367 966 372L966 372L905 440L866 395L144 395ZM202 411L202 411L258 427L258 450L766 450L766 421L815 440Q812 461 811.50 496Q811 531 811 585L811 585L847 608L789 650L760 617L258 617L202 650Q204 628 204.50 599.50Q205 571 205 534L205 534Q205 496 204.50 465.50Q204 435 202 411ZM258 479L258 588L392 588L392 479L258 479ZM441 479L441 588L582 588L582 479L441 479ZM631 479L631 588L766 588L766 479L631 479ZM205 289L154 314L154-74L205-55L205-16L395-16L395-74L453-51L450 22L450 101L450 250L476 272L421 324L395 289L205 289ZM205 263L395 263L395 202L205 202L205 263ZM205 172L395 172L395 111L205 111L205 172ZM205 85L395 85L395 8L205 8L205 85ZM773 301L773 301Q755 308 731 316.50Q707 325 676 331L676 331L673 314Q700 297 719.50 278.50Q739 260 750 243L750 243Q770 202 789 243L789 243Q798 279 773 301ZM598 721L598 692L598 624L650 647L650 692L928 692L860 769L811 721L650 721L650 766L679 792L595 827Q595 807 596.50 792.50Q598 778 598 766L598 766L598 721ZM415 643L415 772L450 798L360 827Q362 812 362.50 798Q363 784 363 772L363 772L363 721L101 721L134 685Q151 687 170.50 689.50Q190 692 212 692L212 692L363 692L363 621L415 643ZM647 301L670 327L589 362Q589 274 598 202L598 202L453 182L483 147L512 163L608 172Q613 139 623 112Q633 85 650 63L650 63Q603 33 554.50 13Q506-7 457-22L457-22L463-42Q507-32 558.50-16Q610 0 670 24L670 24Q686 7 707.50-10Q729-27 760-42L760-42Q791-56 839.50-65Q888-74 957-84L957-84Q930-18 941 89L941 89L921 92L899-22Q841-14 798 2.50Q755 19 728 47L728 47Q742 59 759 69.50Q776 80 795 95L795 95Q835 122 853 127L853 127L802 182Q784 158 759.50 132.50Q735 107 699 85L699 85Q671 115 657 176L657 176L931 205L870 263L837 224L653 205Q648 234 647.50 256Q647 278 647 301L647 301Z"/></svg>