<svg id="U2727" viewBox="0 0 870 1000"><path transform="translate(0, 900) scale(1,-1)" d="M455-42L413-42Q403 23 355.50 98Q308 173 221 239L221 239Q133 306 51 322L51 322L51 364Q134 383 212 438Q290 493 344 569L344 569Q398 646 413 726L413 726L455 726Q464 675 491.50 623Q519 571 562 523.50Q605 476 657 438L657 438Q736 382 819 364L819 364L819 322Q763 311 704.50 277Q646 243 596 197Q546 151 514 100L514 100Q465 22 455-42L455-42ZM427-18L427-18L441-18Q446 34 457.50 86.50Q469 139 484.50 184Q500 229 517 258L517 258Q551 277 598.50 293Q646 309 697.50 320Q749 331 793 334L793 334L793 348Q749 352 696.50 363.50Q644 375 596 391.50Q548 408 517 426L517 426Q500 456 484.50 500.50Q469 545 457.50 596.50Q446 648 441 700L441 700L427 700Q423 653 412.50 602.50Q402 552 386 506Q370 460 351 426L351 426Q319 408 272 391.50Q225 375 173 363.50Q121 352 75 348L75 348L75 334Q121 331 172 320Q223 309 270 293Q317 277 351 258L351 258Q370 226 385.50 179.50Q401 133 412 81.50Q423 30 427-18Z"/></svg>