<svg id="U27CC1" viewBox="0 0 1024 1024"><path transform="translate(0, 921.6) scale(1,-1)" d="M814 393L745 448Q707 367 647.50 303Q588 239 510 185L510 185L515 175Q605 207 698 291L698 291L865 291Q820 210 768.50 152Q717 94 657 52L657 52Q536-23 415-65L415-65L418-75Q487-61 549.50-39Q612-17 670 14L670 14Q730 52 777 93.50Q824 135 858 181L858 181Q926 281 960 285L960 285L896 354L862 316L714 316Q797 393 814 393L814 393ZM619 222L619 222L610 213Q652 160 676 121L676 121Q685 80 708 115L708 115Q730 146 714 168L714 168Q697 188 619 222ZM736 767L660 814L660 811Q611 670 493 543L493 543L503 530Q542 559 580.50 596.50Q619 634 657 679L657 679L824 679Q760 555 670 474L670 474Q625 431 575 397Q525 363 471 335L471 335L484 323Q619 370 704 445L704 445Q782 516 837 603L837 603Q889 682 919 682L919 682L855 745L824 704L670 704Q713 767 736 767L736 767ZM606 615L606 615L597 609Q638 557 657 518L657 518Q673 477 688 509L688 509Q702 537 698 563L698 563Q692 582 606 615ZM418 751L354 814L354 811Q328 782 295 752.50Q262 723 220 694L220 694Q178 668 141.50 644.50Q105 621 63 603L63 603L63 591Q103 596 172 628L172 628Q186 590 193.50 562.50Q201 535 204 515L204 515Q212 477 235 496L235 496Q259 515 254 550L254 550Q248 581 191 635L191 635Q207 643 223.50 652.50Q240 662 257 672L257 672Q306 613 310 584L310 584Q321 543 346 568L346 568Q371 590 351 625L351 625Q331 652 276 685L276 685Q385 746 418 751L418 751ZM493 571L436 644Q427 620 393 591Q359 562 307 524L307 524Q196 442 70 393L70 393L76 376Q198 406 302 468L302 468Q307 456 313.50 444Q320 432 330 420L330 420Q221 301 80 222L80 222L83 213Q238 266 354 373L354 373Q361 360 366.50 343Q372 326 377 304L377 304Q323 229 248.50 168Q174 107 80 59L80 59L83 39Q260 106 389 241L389 241Q404 139 389 80L389 80Q368 14 339 0L339 0Q311-19 200 11L200 11L194 0Q299-44 292-88L292-88Q382-63 418 5L418 5Q458 70 452 178L452 178Q449 229 439 270Q429 311 415 342L415 342Q400 372 378 406.50Q356 441 326 477L326 477Q383 519 430 546L430 546Q473 571 493 571L493 571Z"/></svg>