<svg id="U27630" viewBox="0 0 1024 1024"><path transform="translate(0, 921.6) scale(1,-1)" d="M474 587L122 587L156 553Q173 555 190 557Q207 559 228 559L228 559L474 559L474 477L176 477L210 442Q226 444 243 448Q260 452 279 452L279 452L474 452L474 363L80 363L117 329Q150 339 187 339L187 339L430 339Q411 313 378 286.50Q345 260 305 231L305 231Q262 208 201.50 177Q141 146 63 111L63 111L73 96Q158 122 222.50 150.50Q287 179 333 209L333 209L333 18Q333-4 323-21L323-21L364-82Q381-60 437.50-24Q494 12 591 64L591 64L588 77L389 5L389 241Q415 259 443.50 285Q472 311 506 342L506 342Q537 236 623 131L623 131Q708 30 878-28L878-28Q896 8 960 26L960 26L960 42Q877 42 799 74L799 74Q763 90 729.50 111.50Q696 133 673 159L673 159Q718 185 756.50 206Q795 227 830 244L830 244L871 250L802 307Q768 257 644 172L644 172Q625 188 608.50 210.50Q592 233 575 260L575 260Q560 288 550 307.50Q540 327 537 339L537 339L940 339L871 414L805 363L528 363L528 452L821 452L758 518L704 477L528 477L528 559L868 559L802 635L752 587L528 587L528 650L559 676L471 707Q471 692 472.50 675Q474 658 474 635L474 635L474 587ZM858 729L811 808Q652 734 179 707L179 707L179 691Q223 686 303.50 689.50Q384 693 503 704L503 704Q617 711 693 717.50Q769 724 811 732L811 732L858 729Z"/></svg>