<svg id="U27733" viewBox="0 0 1024 1024"><path transform="translate(0, 921.6) scale(1,-1)" d="M279 733L279 733Q271 744 246 763Q221 782 179 810L179 810L172 803Q220 728 238 674L238 674Q255 621 276 664L276 664Q303 700 279 733ZM317 630L289 595L92 595L125 558Q141 560 159.50 563.50Q178 567 197 570L197 570L292 570Q265 501 235 443Q205 385 176 334L176 334Q144 280 117 239Q90 198 60 170L60 170L67 160Q109 193 147 236.50Q185 280 216 334L216 334L216-83L261-58L261 321Q311 268 336 221L336 221Q356 173 374 208L374 208Q390 234 367 271L367 271Q344 299 298 321L298 321Q354 396 399 413L399 413L351 460Q335 415 317 383Q299 351 282 327L282 327L261 337L261 400Q308 475 336 555L336 555L361 573L317 630ZM449 551L449 709L544 709L544 551L449 551ZM449 375L449 522L544 522L544 375L449 375ZM556 205L449 132L449 347L544 347L544 324L591 350Q588 378 588 410L588 410Q588 443 588 481L588 481L588 696L619 715L569 769L544 733L449 733L399 766Q403 696 404 645Q405 594 405 555L405 555L405 167Q405 120 392 91L392 91L430 44Q456 76 487.50 112Q519 148 562 188L562 188Q569 168 573.50 154Q578 140 582 132L582 132Q592 99 613 145L613 145Q637 180 603 218L603 218Q589 235 562 255.50Q535 276 503 306L503 306L497 296Q522 262 536.50 239Q551 216 556 205L556 205ZM786 340L799 384L956 384L899 457L855 413L802 413Q805 452 807.50 526.50Q810 601 818 709L818 709L950 709L893 774L852 733L641 733L673 699Q713 709 745 709L745 709L770 709Q761 486 749 413L749 413L670 413Q683 473 694 516.50Q705 560 711 589L711 589L729 614L670 648Q662 587 655 544Q648 501 641 476L641 476Q628 421 606 413L606 413L647 365L673 384L745 384Q680 69 436-67L436-67L440-80Q690 32 777 303L777 303L777 0Q777-58 824-58L824-58L884-58Q907-58 934-45L934-45Q952-34 963-8L963-8Q943 1 934 34L934 34Q927 51 926 74.50Q925 98 925 129L925 129L906 129Q906 98 904.50 72Q903 46 903 25L903 25Q903-16 868-11L868-11L843-11Q821-15 821 16L821 16L821 280L843 306L786 340Z"/></svg>