<svg id="U27D79" viewBox="0 0 1024 1024"><path transform="translate(0, 921.6) scale(1,-1)" d="M717 573L73 573L108 538Q135 548 179 548L179 548L717 548L717 479L191 479L225 447Q242 449 258.50 451Q275 453 295 453L295 453L717 453L717 428L777 453Q774 465 773.50 480.50Q773 496 773 514L773 514L773 548L953 548L893 617L840 573L773 573L773 630L799 655L742 702L714 664L191 664L225 630Q242 632 261 634Q280 636 302 636L302 636L717 636L717 573ZM770 769L138 769L176 730Q191 737 212 738.50Q233 740 257 743L257 743L887 743L827 807L770 769ZM60 277L60 277L60 262Q168 284 266 321L266 321Q367 352 449 460L449 460L578 460Q660 323 884 265L884 265Q900 301 963 314L963 314L963 331Q718 340 594 460L594 460L456 460Q499 541 510 699L510 699L537 725L456 753Q456 738 455 712.50Q454 687 449 648L449 648Q445 566 418 510L418 510Q396 453 314 394L314 394Q237 332 60 277ZM222 22L222 22L276 41L276 54L720 54L720 31L777 51Q774 76 773.50 99.50Q773 123 773 145L773 145L773 274L799 286L752 337L717 306L285 306L222 321Q224 304 224.50 286Q225 268 225 249L225 249L225 123Q225 99 224.50 74.50Q224 50 222 22ZM276 280L720 280L720 233L276 233L276 280ZM720 205L720 160L276 160L276 205L720 205ZM276 132L720 132L720 82L276 82L276 132ZM802 10L802 10Q768 19 715.50 26.50Q663 34 594 44L594 44L588 28Q766-24 811-62L811-62Q867-97 871-49L871-49Q871-1 802 10ZM76-64L76-64L80-80Q158-65 231.50-45.50Q305-26 374-8L374-8L418-5L364 54Q307 18 235-10Q163-38 76-64Z"/></svg>