<svg id="U279FF" viewBox="0 0 1024 1024"><path transform="translate(0, 921.6) scale(1,-1)" d="M608 814L602 808Q633 763 655.50 720.50Q678 678 687 638L687 638L464 638L505 606Q520 608 537.50 610Q555 612 577 612L577 612L965 612L895 688L839 638L719 638Q753 691 724 729L724 729Q708 747 679 770Q650 793 608 814L608 814ZM590 23L590 203L813 203L813 23L590 23ZM781 502L523 502L561 465Q598 477 662 477L662 477L904 477L842 543L781 502ZM778 360L536 360L570 323Q594 327 619.50 331Q645 335 675 335L675 335L898 335L822 401L778 360ZM870 33L870 190L898 209L842 270L804 229L590 229L536 263Q536 221 537.50 179.50Q539 138 539 96L539 96Q539 51 537.50 7Q536-37 536-88L536-88L590-62L590-3L813-3L813-82L873-54Q870-34 870-13L870-13Q870 7 870 33L870 33ZM461 559L461 559L403 612Q389 592 365 569.50Q341 547 309 521L309 521Q278 533 236 547Q194 561 142 578L142 578L136 568Q182 545 221.50 529.50Q261 514 287 502L287 502Q252 474 196.50 448.50Q141 423 65 396L65 396L72 383Q210 413 325 483L325 483Q355 464 377.50 448Q400 432 420 417L420 417Q459 387 464 417L464 417Q472 446 444 465L444 465Q427 475 404.50 486.50Q382 498 353 512L353 512Q369 516 383.50 524Q398 532 410 540L410 540Q432 559 461 559ZM457 764L457 764L403 811Q380 784 357 760Q334 736 305 713L305 713Q275 725 227.50 739.50Q180 754 120 773L120 773L116 764Q168 737 208.50 720Q249 703 277 691L277 691Q242 660 191.50 633.50Q141 607 84 587L84 587L91 574Q163 593 218.50 617Q274 641 312 672L312 672Q369 643 413 609L413 609Q464 567 472 600L472 600Q485 628 448 653L448 653Q425 667 400.50 678Q376 689 350 697L350 697Q362 704 374 712Q386 720 400 729L400 729Q415 740 428.50 748Q442 756 457 764ZM385 345L309 270L274 285Q276 264 276.50 232Q277 200 277 162L277 162Q189 139 136 125Q83 111 59 111L59 111L97 49Q118 65 277 121L277 121L277 14Q287-13 256-13L256-13Q244-13 217-10Q190-7 142-3L142-3L142-19Q239-46 256-85L256-85Q335-57 331 23L331 23L331 140L505 200L501 213L331 172L331 219L353 241L325 260Q385 300 428.50 322Q472 344 501 348L501 348L457 404L410 373L84 373L120 335Q150 345 205 345L205 345L385 345Z"/></svg>