<svg id="U27C10" viewBox="0 0 1024 1024"><path transform="translate(0, 921.6) scale(1,-1)" d="M166 368L166 566L330 566L330 368L166 368ZM135 277L135 277L128 274Q144 226 153.50 191Q163 156 166 131L166 131Q169 87 194 116L194 116Q221 153 207 185L207 185Q197 201 179 223.50Q161 246 135 277ZM333 737L73 737L101 702Q118 704 135.50 705Q153 706 172 711L172 711L428 711L377 781L333 737ZM449 148L302 97Q317 135 331 162.50Q345 190 351 208L351 208Q367 241 389 254L389 254L326 302Q323 269 312.50 217.50Q302 166 285 94L285 94Q255 83 225.50 74Q196 65 166 56L166 56Q137 46 112 43Q87 40 60 38L60 38L101-37Q117-10 213 31L213 31Q264 51 323.50 77Q383 103 456 131L456 131L449 148ZM169 594L117 620Q118 578 118.50 539.50Q119 501 119 459L119 459Q119 414 118.50 374Q118 334 117 292L117 292L166 314L166 343L330 343L330 311L380 343Q377 375 377 426L377 426Q377 478 377 554L377 554L402 579L351 626L323 594L169 594ZM654 721L654 721L680 743L632 796L603 768L418 768L449 730Q468 732 486 734.50Q504 737 525 740L525 740L603 740Q574 652 524 568Q474 484 399 406L399 406L405 400Q571 515 654 721ZM947 635L947 635L906 692Q887 663 860.50 637Q834 611 799 588L799 588Q779 612 766 632.50Q753 653 749 676L749 676Q846 733 893 733L893 733L846 793Q836 776 810 750.50Q784 725 739 692L739 692Q725 716 708 812L708 812L691 809Q696 758 705.50 715Q715 672 729 635L729 635Q757 560 793 516L793 516Q810 490 834.50 466.50Q859 443 890 421L890 421Q915 457 960 462L960 462L960 478Q882 496 808 579L808 579Q856 599 889.50 613.50Q923 628 947 635ZM717 478L518 478L547 444Q565 448 582 449Q599 450 619 450L619 450L824 450L761 519L717 478ZM544 151L544 151L534 141Q574 66 578 25L578 25Q584-19 610 4L610 4Q629 26 629 56L629 56Q619 93 544 151ZM843 113L843 113L773 160Q767 114 726-11L726-11L361-11L395-45Q412-42 429-40.50Q446-39 465-37L465-37L963-37L906 38L855-11L745-11Q812 97 843 113ZM493 135L493 135L544 160L544 179L799 179L799 148L852 172Q849 201 849 240L849 240Q849 280 849 331L849 331L875 346L824 390L796 362L547 362L493 387Q493 349 495 321Q497 293 497 270L497 270Q497 247 495 213.50Q493 180 493 135ZM544 208L544 333L799 333L799 208L544 208ZM421 696L421 696L411 683Q455 639 474 601L474 601Q494 554 513 588L513 588Q520 625 513 645L513 645Q497 664 421 696Z"/></svg>