<svg id="U27C7D" viewBox="0 0 1024 1024"><path transform="translate(0, 921.6) scale(1,-1)" d="M467 428L467 428Q471 131 338-70L338-70L346-77Q509 79 520 400L520 400L520 548L570 548L570 406L552 388L590 340Q638 394 721 438L721 438L709 453L618 419L618 548L662 548Q730 395 901 327L901 327Q926 361 961 372L961 372L961 388Q868 393 781 453L781 453Q869 502 901 507L901 507L863 548L955 548L901 607L857 573L520 573L520 737L935 737L876 800L826 762L520 762L464 797Q464 761 465.50 669.50Q467 578 467 428ZM561 136L561 136Q561 66 558 14Q555-38 555-80L555-80L608-55L608 85L816 85L816 10Q816-3 728 3L728 3L728-14Q797-19 806-77L806-77Q866-62 866 3L866 3L866 271L895 293L845 347L813 314L611 314L555 334Q555 301 558 251.50Q561 202 561 136ZM608 113L608 192L816 192L816 113L608 113ZM683 548L850 548Q827 524 802 506Q777 488 757 473L757 473Q721 492 683 548L683 548ZM608 290L816 290L816 218L608 218L608 290ZM788 668L530 668L561 630Q584 643 631 643L631 643L898 643L839 705L788 668ZM429 173L429 173Q451 212 435 255L435 255Q424 295 331 378L331 378Q329 392 325 411.50Q321 431 315 457L315 457L431 583L457 586L407 658Q380 597 355.50 554Q331 511 309 485L309 485Q287 564 218 633L218 633Q236 665 249.50 690.50Q263 716 271 737L271 737L438 737L379 807L335 762L65 762L100 725Q119 732 148 733.50Q177 735 215 733L215 733Q187 632 68 501L68 501L78 488Q118 518 149 548.50Q180 579 202 611L202 611Q215 598 236 555L236 555Q179 427 62 309L62 309L62 290Q209 404 259 494L259 494Q265 473 268 448.50Q271 424 274 400L274 400Q239 290 62 116L62 116L65 101Q220 202 287 318L287 318Q291 121 271 66L271 66Q251 10 215 10L215 10Q197 10 174.50 13.50Q152 17 127 22L127 22L127 6Q212-22 212-70L212-70Q277-49 312 16L312 16Q351 90 335 347L335 347Q393 226 397 180L397 180Q411 129 429 173Z"/></svg>