<svg id="U2775E" viewBox="0 0 1000 1000"><path transform="translate(0, 900) scale(1,-1)" d="M126 801C159 761 192 706 208 671L264 710C248 746 214 798 180 836ZM331 474C320 452 301 423 283 396L256 427C300 494 339 568 365 644L326 671L313 668L52 668L52 599L277 599C223 476 125 356 32 288C42 274 60 236 65 215C103 245 141 282 178 325L178-79L245-79L245 345C272 309 302 268 317 244L360 301L360 262L445 262L445 222C445 142 424 40 317-37C331-47 355-72 364-86C456-19 493 71 504 154C546 121 590 84 614 59L656 108C624 141 559 190 509 225L509 262L655 262C669 188 687 125 710 73C661 33 604-1 541-27C554-39 573-61 581-74C638-49 691-19 738 18C775-41 822-75 881-79C919-82 950-46 969 66C956 73 931 90 918 106C911 34 899-4 879-3C845 0 815 23 790 63C840 111 881 166 910 228L848 252C827 205 798 161 761 122C746 161 732 208 721 262L959 262L959 323L869 323L891 345C872 366 834 399 804 424L905 438L918 395L965 412C954 448 930 513 910 561L865 549L890 484L787 473C838 535 888 615 930 697L879 718C870 696 859 674 847 652L774 645C805 693 838 754 862 816L811 833C789 762 747 687 735 668C723 649 712 636 700 634C706 619 714 591 717 579C727 584 744 589 818 600C792 556 768 520 757 507C738 483 724 465 709 463C716 447 724 418 727 407C735 411 747 415 796 423L762 394C786 373 815 345 836 323L710 323C687 461 675 636 671 833L607 833C612 640 623 466 645 323L360 323L360 309L317 359L369 426C374 411 379 392 381 382C393 389 416 394 559 414L575 354L620 370C610 411 585 482 563 536L520 525L544 460L444 448C496 510 550 591 595 673L543 693C534 674 524 654 514 635L434 627C469 678 504 742 532 807L480 825C455 750 408 672 395 652C381 632 369 618 357 616C364 601 372 573 375 561C385 567 403 572 483 583C453 535 425 496 413 482C395 459 380 443 367 439Z"/></svg>