<svg id="U27D73" viewBox="0 0 1000 1000"><path transform="translate(0, 900) scale(1,-1)" d="M142 151C119 80 80 9 33-39C50-49 78-69 91-81C138-28 184 54 210 135ZM275 126C312 76 351 8 368-37L430-5C412 38 372 104 334 153ZM150 552L332 552L332 424L150 424ZM150 365L332 365L332 235L150 235ZM150 739L332 739L332 611L150 611ZM81 801L81 173L403 173L403 801ZM426 548L426 478L653 478L653 306L479 306L479-80L550-80L550-31L839-31L839-75L912-75L912 306L727 306L727 478L961 478L961 548L727 548L727 721C801 734 871 750 927 769L871 828C773 793 598 764 449 746C457 729 468 703 471 685C529 691 592 699 653 708L653 548ZM550 37L550 237L839 237L839 37Z"/></svg>