<svg id="U277B9" viewBox="0 0 1024 1024"><path transform="translate(0, 921.6) scale(1,-1)" d="M362 786L285 811Q288 789 288.50 768.50Q289 748 289 732L289 732L71 732L103 697Q121 700 139 703.50Q157 707 176 707L176 707L289 707L289 676L122 676L157 641Q193 650 229 650L229 650L503 650L459 697L415 676L339 676L339 707L554 707L506 767L456 732L339 732L339 764L362 786ZM522 594L522 594L485 638L459 615L157 615L157 638L148 638Q138 616 128 598.50Q118 581 107 574L107 574Q92 552 97 534L97 534Q105 509 128 534L128 534Q153 554 157 591L157 591L459 591L428 550L444 540Q489 580 522 594ZM488 323L488 323Q503 343 488 363L488 363Q476 379 380 398L380 398Q377 405 371.50 414Q366 423 362 433L362 433Q452 465 497 465L497 465L456 512Q401 460 355 442L355 442Q340 456 318 468Q296 480 270 493L270 493Q286 499 298.50 505.50Q311 512 321 515L321 515L441 515L403 559L368 540L131 540L151 512Q176 516 203 517Q230 518 261 518L261 518Q208 483 125 452L125 452L128 439Q215 458 251 480L251 480Q262 475 269 470Q276 465 280 461L280 461Q250 442 201.50 419Q153 396 86 376L86 376L89 367Q147 379 200.50 396Q254 413 302 439L302 439Q318 417 318 414L318 414Q276 372 48 307L48 307L52 298Q161 317 230 338.50Q299 360 330 383L330 383Q346 322 318 307L318 307Q303 300 271 296.50Q239 293 185 301L185 301L185 288Q262 279 283 241L283 241Q323 246 355 278L355 278Q388 303 383 383L383 383Q447 349 462 323Q477 297 488 323ZM532 165L516 152Q536 107 571 72.50Q606 38 652 8L652 8Q745-48 856-75L856-75Q856-41 932-28L932-28L932-9Q894-9 856-4.50Q818 0 778 8L778 8Q696 23 629 70L629 70Q664 82 702 95.50Q740 109 778 124L778 124L812 124L765 185Q707 131 614 87L614 87Q584 107 564.50 127.50Q545 148 532 165L532 165ZM428 316L428 316L424 304Q469 273 485 231L485 231Q497 197 522 222L522 222Q541 247 525 270L525 270Q506 294 428 316ZM639 758L591 792L591 688Q588 671 582 653Q576 635 570 619L570 619Q547 581 481 534L481 534L485 521Q597 567 619 622L619 622Q634 650 638 676.50Q642 703 642 732L642 732L765 732L765 619Q765 584 825 584L825 584L887 584Q952 584 928 612L928 612Q906 634 900 632L900 632Q891 622 843 622L843 622Q809 622 809 638L809 638L809 717L843 738L793 789L765 758L639 758ZM604 530L604 530L789 530Q782 507 752 468L752 468Q726 431 699 417L699 417Q684 424 673 435.50Q662 447 648 465L648 465Q636 480 624.50 496Q613 512 604 530ZM667 386L667 386Q618 337 506 278L506 278L519 266Q628 302 699 357L699 357Q804 274 875 260L875 260Q882 281 941 298L941 298L941 311Q912 311 886 318.50Q860 326 834 335L834 335Q780 354 740 386L740 386Q777 426 802.50 457Q828 488 843 515L843 515L871 534L834 581L802 556L519 556L544 518Q556 522 567 528Q578 534 588 534L588 534Q597 471 667 386ZM456 188L456 188L904 188L843 254L793 213L68 213L97 181Q138 188 172 188L172 188L371 188Q347 164 313 139.50Q279 115 239 90L239 90Q153 32 42-3L42-3L48-19Q213 23 324 96L324 96L324 18Q328-22 311-31L311-31L355-85Q369-53 557 26L557 26L550 36L380-9L380 131Q401 146 420 161Q439 176 456 188Z"/></svg>