<svg id="U2799F" viewBox="0 0 1024 1024"><path transform="translate(0, 921.6) scale(1,-1)" d="M438 664L438 664L438 648Q639 670 772 699L772 699Q838 708 877.50 714.50Q917 721 935 718L935 718L870 794Q834 754 709 722L709 722Q646 704 579.50 690Q513 676 438 664ZM627 646L627 646L614 640Q630 603 640 571.50Q650 540 655 514L655 514Q665 463 687 473L687 473Q707 479 721 514L721 514Q735 543 706 573L706 573Q691 587 672 604.50Q653 622 627 646ZM845 416L845 416L895 432L839 504L794 453L451 453L482 419Q519 428 557 428L557 428L794 428Q484 48 382-1L382-1L431-52Q440-25 462-3.50Q484 18 511 41L511 41Q549 12 581-6Q613-24 637-36L637-36Q660-44 688.50-51.50Q717-59 750-64L750-64Q807-68 904-64L904-64Q899-21 961-1L961-1L961 10Q895 2 833 1Q771 0 716 0L716 0Q600 4 526 63L526 63Q592 133 673 221.50Q754 310 845 416ZM183 803L171 797Q196 752 214.50 711Q233 670 243 630L243 630L62 630L94 592Q114 594 131 598Q148 602 168 604L168 604L444 604L385 677L341 630L265 630Q310 675 277 718L277 718Q247 758 183 803L183 803ZM168 25L168 195L315 195L315 25L168 25ZM284 488L106 488L139 453Q155 460 173.50 461.50Q192 463 212 463L212 463L394 463L335 532L284 488ZM281 350L116 350L145 314Q162 319 182 320Q202 321 221 321L221 321L391 321L328 391L281 350ZM366 66L366 186L394 211L341 258L312 221L171 221L112 255Q115 212 115.50 169.50Q116 127 116 85L116 85Q116 42 115.50 4Q115-34 112-77L112-77L168-49L168 0L315 0L315-55L372-33Q367-5 366.50 20Q366 45 366 66L366 66Z"/></svg>