<svg id="U27FC1" viewBox="0 0 1024 1024"><path transform="translate(0, 921.6) scale(1,-1)" d="M408 717L408 717L436 741L383 798L348 758L169 758L111 795Q116 757 116.50 710Q117 663 117 606L117 606Q117 549 116.50 506.50Q116 464 111 437L111 437L163 468L163 493L251 493L251 46L169 23L169 313L197 342L119 396Q121 350 121.50 254Q122 158 122 11L122 11L67 2L117-69L138-47Q213-7 297 25.50Q381 58 469 87L469 87L465 103L302 62L302 288L474 288L418 357L371 313L302 313L302 493L358 493L358 445L411 477Q408 517 408 576L408 576Q408 636 408 717ZM163 521L163 729L358 729L358 521L163 521ZM827 748L446 748L477 710Q494 715 512.50 717.50Q531 720 550 723L550 723L569 723L569 360Q561 81 395-60L395-60L402-72Q613 50 623 386L623 386L623 723L723 723L723 59Q717-27 786-31L786-31L878-31Q932-31 956 36L956 36Q927 36 915 80L915 80Q908 99 907 129.50Q906 160 906 203L906 203L893 203Q884 104 884 55L884 55Q878 6 849 18L849 18L808 18Q764 6 777 55L777 55L777 83L777 723L937 723L875 798L827 748Z"/></svg>