<svg id="U27EA6" viewBox="0 0 1024 1024"><path transform="translate(0, 921.6) scale(1,-1)" d="M837 715L493 715L534 677Q574 689 613 689L613 689L960 689L890 756L837 715ZM578 116L578 116Q618 146 693.50 239Q769 332 887 485L887 485L912 504L843 558Q828 515 808 477Q788 439 767 409L767 409Q722 406 674.50 404Q627 402 582 400L582 400Q648 479 689.50 535.50Q731 592 749 620L749 620L780 636L701 684Q684 638 663.50 592Q643 546 613 501L613 501Q554 403 518 403L518 403L556 331Q586 355 752 384L752 384Q727 344 697 305Q667 266 629 218L629 218Q558 134 497 113L497 113L534 41Q568 72 846 126L846 126Q850 100 856 82.50Q862 65 865 54L865 54Q869 34 893 47L893 47Q922 59 922 98L922 98Q922 137 796 268L796 268L780 255Q823 185 837 139L837 139Q734 129 670 122.50Q606 116 578 116ZM305 623L143 623L176 592Q196 594 213.50 596.50Q231 599 251 599L251 599L305 599L305 447L83 447L117 416Q132 418 152 420Q172 422 191 422L191 422L314 422L320 334L320 249L320 79Q264 106 222 154L222 154Q226 185 231 216.50Q236 248 241 283L241 283L263 306L181 344Q183 287 180 235Q177 183 163 126L163 126Q131 12 60-77L60-77L70-86Q180 0 213 119L213 119Q253 79 298.50 47Q344 15 399-8L399-8Q505-55 660-62L660-62Q817-65 903-62L903-62Q903-31 963-1L963-1L963 13Q867 0 784-3.50Q701-7 623-5L623-5Q463-1 371 54L371 54L371 233L544 233L484 303L436 262L371 262L371 359L395 388L333 422L547 422L487 494L430 447L358 447L358 599L521 599L465 668L415 623L358 623L358 749L383 778L302 813Q304 771 304.50 725.50Q305 680 305 623L305 623Z"/></svg>