<svg id="U27D23" viewBox="0 0 1024 1024"><path transform="translate(0, 921.6) scale(1,-1)" d="M454 566L454 566L505 583L505 611L605 611L605 576L652 599Q649 626 649 660L649 660Q649 695 649 730L649 730L675 749L631 790L605 766L505 766L454 790Q454 757 455.50 729.50Q457 702 457 684L457 684Q457 657 455.50 628.50Q454 600 454 566ZM505 636L505 737L605 737L605 636L505 636ZM721 570L721 570L772 589L772 611L863 611L863 583L914 607Q908 636 907.50 668Q907 700 907 733L907 733L939 753L888 794L860 766L769 766L721 790Q721 762 722.50 736Q724 710 724 687L724 687Q724 657 722.50 629Q721 601 721 570ZM772 636L772 737L863 737L863 636L772 636ZM476 532L423 558Q431 382 423 265L423 265Q421 203 414.50 153.50Q408 104 397 66L397 66Q389 24 369.50-10.50Q350-45 325-83L325-83L338-86Q409-36 438 57L438 57Q452 102 461 149Q470 196 470 239L470 239Q471 284 471.50 348.50Q472 413 472 504L472 504L958 504L898 573L847 532L476 532ZM567 262L567 327L643 327L643 262L567 262ZM567 164L567 233L643 233L643 164L567 164ZM643 66L567 51L567 136L643 136L643 66ZM760 321L763 327L857 327Q849 266 841.50 212Q834 158 819 116L819 116Q803 164 785.50 214Q768 264 760 321L760 321ZM526 44L454 31L489-20Q503-10 541 6Q579 22 643 44L643 44Q643 18 640-11.50Q637-41 637-83L637-83L687-52Q684-32 683.50-6Q683 20 683 51L683 51L683 327L737 327L693 381L662 355L631 355L631 425L712 425L665 481L631 453L498 453L520 419L557 425L586 425L586 355L470 355L495 321L526 327L526 44ZM798 69L798 69Q779 34 749.50-0.50Q720-35 680-70L680-70L687-83Q757-49 819 25L819 25Q836-1 855.50-27.50Q875-54 901-80L901-80Q922-42 961-42L961-42L961-29Q906-20 847 66L847 66Q890 160 901 327L901 327L961 327L914 388L876 355L778 355Q783 372 792 397Q801 422 809 450L809 450L829 466L765 504Q761 471 753.50 434.50Q746 398 737 355L737 355Q725 315 711.50 279Q698 243 683 218L683 218L690 208Q706 224 719 244Q732 264 744 283L744 283Q751 176 798 69ZM341 766L294 813Q269 781 241.50 754.50Q214 728 183 699L183 699Q152 673 123 647.50Q94 622 62 602L62 602L65 592Q77 594 97 604Q117 614 145 633L145 633Q159 595 168 567.50Q177 540 180 520L180 520Q185 479 202 501Q219 523 215 555L215 555Q209 568 198 589Q187 610 161 640L161 640Q175 648 189 657.50Q203 667 218 677L218 677Q254 616 259 589L259 589Q268 545 287 573L287 573Q306 597 294 630L294 630Q277 660 233 689L233 689Q319 766 341 766L341 766ZM400 592L359 648Q347 622 319.50 591Q292 560 253 520L253 520Q169 439 68 394L68 394L72 381Q119 395 163.50 418Q208 441 253 473L253 473Q259 461 265.50 449Q272 437 277 425L277 425Q232 362 181 314.50Q130 267 75 227L75 227L81 218Q203 271 294 378L294 378Q301 352 312 309L312 309Q225 157 75 57L75 57L81 44Q220 111 322 245L322 245Q324 193 322 152Q320 111 315 82L315 82Q311 25 281 0L281 0Q256-13 177 16L177 16L168 0Q248-33 243-83L243-83Q309-57 341 6L341 6Q376 81 372 180L372 180Q370 233 362.50 274Q355 315 344 344L344 344Q337 373 317.50 408Q298 443 274 481L274 481Q290 500 310 518Q330 536 353 555L353 555Q373 572 384.50 581Q396 590 400 592L400 592Z"/></svg>