<svg id="U27B64" viewBox="0 0 1024 1024"><path transform="translate(0, 921.6) scale(1,-1)" d="M517 684L517 753L806 753L806 684L517 684ZM517 599L517 658L806 658L806 599L517 599ZM464 526L464 526L517 548L517 573L564 573L564 485L397 485L431 450Q461 460 508 460L508 460L564 460L564 372L369 372L400 340Q441 347 472 347L472 347L549 347Q534 317 514 287Q494 257 464 227L464 227Q402 159 338 116L338 116L346 107Q442 148 508 214L508 214Q571 272 608 347L608 347L737 347Q746 313 764 282.50Q782 252 804 224L804 224Q827 194 846.50 172Q866 150 886 139L886 139Q910 173 958 173L958 173L958 188Q894 198 842 249L842 249Q786 297 763 347L763 347L955 347L898 406L850 372L765 372L765 460L924 460L866 522L826 485L765 485L765 573L806 573L806 545L860 563Q857 587 857 611L857 611Q857 635 857 658L857 658L857 740L883 759L835 810L804 778L523 778L464 807Q464 771 465.50 737Q467 703 467 671L467 671Q467 633 465.50 597.50Q464 562 464 526ZM608 485L608 573L721 573L721 485L608 485ZM608 372L608 460L721 460L721 372L608 372ZM513 236L511 227Q529 200 543 179.50Q557 159 567 139L567 139Q585 107 598 136L598 136Q613 167 590 192L590 192Q575 216 513 236L513 236ZM400 60L400 60L435 3Q464 32 530 60L530 60Q559 74 587.50 87.50Q616 101 639 110L639 110L639 31Q627-8 605-8L605-8Q598-8 581-6.50Q564-5 536-1L536-1L536-17Q611-41 611-83L611-83Q683-56 683 28L683 28L683 116Q740 74 779 47.50Q818 21 835-1L835-1Q873-43 883 3L883 3Q895 48 832 79L832 79Q799 91 762 104Q725 117 683 132L683 132L683 145Q763 177 804 188L804 188L769 249Q739 207 683 160L683 160L683 255L706 283L634 314Q634 281 636.50 255.50Q639 230 639 214L639 214L639 129Q608 117 576.50 106Q545 95 517 88L517 88Q486 78 457.50 72Q429 66 400 60ZM174 800L164 794Q190 751 205.50 711Q221 671 230 633L230 633L65 633L100 599Q116 601 132 602.50Q148 604 168 604L168 604L431 604L379 677L335 633L253 633Q289 675 259 718L259 718Q244 734 224 756Q204 778 174 800L174 800ZM161 51L161 211L294 211L294 51L161 51ZM259 497L106 497L133 463Q149 467 165.50 468Q182 469 202 469L202 469L359 469L300 538L259 497ZM259 362L116 362L139 327Q153 332 171.50 333Q190 334 212 334L212 334L359 334L300 400L259 362ZM341 95L341 205L366 227L315 271L290 236L164 236L109 271Q115 229 115.50 188Q116 147 116 110L116 110Q116 67 115.50 27.50Q115-12 109-52L109-52L161-23L161 22L294 22L294-23L346-1Q342 24 341.50 47Q341 70 341 95L341 95Z"/></svg>