<svg id="U27A0B" viewBox="0 0 1024 1024"><path transform="translate(0, 921.6) scale(1,-1)" d="M737 10L737 10L737-8Q837-7 854-83L854-83Q914-69 930 19L930 19L930 715L958 746L898 797L870 756L511 756L454 794Q456 758 456.50 721Q457 684 457 648L457 648L457 75Q457 35 456.50-4Q456-43 454-86L454-86L508-62L508 730L876 730L876 41Q876 3 822 3L822 3Q794 3 774 3.50Q754 4 737 10ZM580 391L580 391L580 157L511 157L549 119Q575 132 631 132L631 132L873 132L819 201L775 157L728 157L728 388L850 388L801 450L772 416L728 416L728 602L860 602L816 661L778 630L549 630L583 592Q599 594 618.50 596.50Q638 599 659 602L659 602L683 602L683 157L627 157L627 428L649 450L574 494Q574 466 577 440Q580 414 580 391ZM189 813L177 807Q229 716 249 640L249 640L65 640L103 602Q117 604 134.50 607.50Q152 611 174 614L174 614L454 614L391 684L346 640L274 640Q314 687 281 728L281 728Q266 746 243 766Q220 786 189 813L189 813ZM171 41L171 208L318 208L318 41L171 41ZM294 504L116 504L142 466Q169 479 218 479L218 479L397 479L338 542L294 504ZM290 362L120 362L151 327Q168 332 186.50 333Q205 334 224 334L224 334L394 334L335 403L290 362ZM369 75L369 201L397 224L346 268L315 233L177 233L117 268Q119 226 119.50 184.50Q120 143 120 101L120 101Q120 59 119.50 18Q119-23 117-74L117-74L171-42L171 16L318 16L318-45L372-23Q369 3 369 28L369 28Q369 54 369 75L369 75Z"/></svg>