<svg id="U27E70" viewBox="0 0 1024 1024"><path transform="translate(0, 921.6) scale(1,-1)" d="M675 293L675 293L731 318Q728 397 728 459L728 459Q728 521 728 563L728 563L731 563Q786 397 898 314L898 314Q920 353 961 353L961 353L961 368Q846 401 750 563L750 563L948 563L895 630L850 589L728 589L728 722Q789 733 830.50 738Q872 743 891 746L891 746L850 815Q793 766 513 715L513 715L511 696Q556 698 597.50 702.50Q639 707 678 715L678 715L678 589L451 589L485 555Q520 563 557 563L557 563L634 563Q554 405 429 280L429 280L441 274Q580 362 678 532L678 532Q678 478 676.50 419Q675 360 675 293ZM580-11L580 119L816 119L816-11L580-11ZM580 280L526 312Q526 267 528 217.50Q530 168 530 116L530 116Q530 62 528 13Q526-36 526-90L526-90L580-64L580-36L816-36L816-77L873-55Q870-35 870-10L870-10Q870 14 870 47L870 47L870 242L898 268L850 318L813 280L580 280ZM580 145L580 255L816 255L816 145L580 145ZM171 104L171 104Q135 21 72-64L72-64L78-74Q159-5 205 95L205 95Q256 200 256 425L256 425L315 425L315 38Q315-11 294-11L294-11Q284-8 263.50-4Q243 0 215 3L215 3L215-11Q294-36 294-86L294-86Q358-61 366 0L366 0L366 425L498 425L444 491L407 450L309 450L309 611L464 611L410 671L372 640L309 640L309 737L341 762L256 807Q260 775 261 743Q262 711 262 681L262 681L262 640L116 640L151 602L192 611L262 611L262 450L65 450L100 416Q120 418 137 421.50Q154 425 174 425L174 425L212 425Q208 305 198 225.50Q188 146 171 104ZM388 327L388 327L372 318Q398 269 412.50 227.50Q427 186 431 157L431 157Q444 99 464 126L464 126Q485 160 476 195L476 195Q471 208 448.50 240.50Q426 273 388 327ZM62 82L62 82L75 75Q100 120 118.50 156Q137 192 148 218L148 218Q163 245 176 263Q189 281 199 293L199 293L136 331Q123 229 62 82Z"/></svg>