<svg id="U271B0" viewBox="0 0 1024 1024"><path transform="translate(0, 921.6) scale(1,-1)" d="M294 465L294 465L196 445L224 417L246 430L294 442L294 376Q294 311 346 311L346 311L429 311L476 311Q499 314 526 352L526 352Q498 365 495 383L495 383Q490 390 488.50 408Q487 426 482 455L482 455L472 455Q470 420 466.50 399.50Q463 379 461 370L461 370Q450 352 429 352L429 352L366 352Q341 346 341 380L341 380L341 448L464 474L438 496Q455 512 470.50 525.50Q486 539 498 546Q510 553 522 558.50Q534 564 549 571L549 571L498 625L464 591L353 591L353 669L530 669L479 732L435 694L353 694L353 754L375 776L300 811Q302 779 302.50 724.50Q303 670 303 591L303 591L189 591L133 622Q138 546 135 459Q132 372 130 272L130 272Q126 75 65-60L65-60L72-65Q168 60 177 254L177 254Q181 351 183.50 428Q186 505 186 563L186 563L461 563L429 502L403 518L379 480L341 474L341 506L362 534L287 565Q292 544 293 518Q294 492 294 465ZM454 36L454 36L454 193L479 213L435 266L403 231L305 231L256 270Q258 204 255 153Q252 102 240 62L240 62Q216-16 151-75L151-75L158-85Q196-63 223.50-37Q251-11 268 18L268 18Q287 48 295 96.50Q303 145 305 206L305 206L403 206L403 11Q403-54 472-54L472-54L857-54Q889-54 904-47L904-47Q924-42 955-3L955-3Q920 12 917 49L917 49Q909 67 908 90.50Q907 114 907 144L907 144L895 144Q889 102 887 74Q885 46 883 30L883 30Q877-2 847-6L847-6L489-6Q454-11 454 36ZM740 571L740 571L709 584Q709 549 710.50 512Q712 475 712 442L712 442L517 442L552 408Q570 414 593.50 415.50Q617 417 643 417L643 417L712 417L712 144Q712 111 696 108L696 108Q691 108 659 111Q627 114 570 124L570 124L570 108Q598 99 619 91.50Q640 84 652 77L652 77Q679 64 690 30L690 30Q709 34 723 42.50Q737 51 747 59L747 59Q751 70 757 82Q763 94 763 108L763 108L763 417L958 417L898 486L847 442L763 442L763 521L788 543L753 563Q779 590 801.50 615Q824 640 842 656L842 656Q875 690 917 701L917 701L879 767L839 729L555 729L590 694Q607 699 630.50 700Q654 701 678 701L678 701L826 701Q802 667 782 635.50Q762 604 740 571Z"/></svg>