<svg id="U27256" viewBox="0 0 1024 1024"><path transform="translate(0, 921.6) scale(1,-1)" d="M148 293L148 563L227 563L227 293L148 293ZM274 293L274 563L353 563L353 293L274 293ZM359 113L359 113L274 95L274 268L353 268L353 236L407 258Q401 286 400.50 316Q400 346 400 381L400 381L400 551L426 570L382 623L344 589L274 589L274 730L300 762L224 803Q226 771 226.50 719Q227 667 227 589L227 589L155 589L100 620Q103 575 103 524L103 524Q103 473 103 413L103 413Q103 353 103 305L103 305Q103 257 100 218L100 218L148 245L148 268L227 268L227 85Q102 56 65 51L65 51L94-14Q115 5 192 34L192 34Q230 49 272 63Q314 77 362 95L362 95Q378 68 382 38L382 38Q390 6 413 34L413 34Q432 62 429 95L429 95Q425 120 325 221L325 221L315 211Q331 177 341.50 152.50Q352 128 359 113ZM659 684L659 551L536 551Q545 574 556 601.50Q567 629 577 658L577 658L602 677L523 718Q513 661 503.50 615Q494 569 485 529L485 529Q465 449 416 353L416 353L429 347Q457 379 481.50 424Q506 469 530 526L530 526L659 526L659 309L410 309L441 274Q460 276 477.50 279.50Q495 283 513 283L513 283L659 283L659 82Q659 44 655.50 3Q652-38 652-83L652-83L709-62Q706-30 706-2L706-2Q706 25 706 57L706 57L706 283L958 283L901 355L845 309L706 309L706 526L914 526L854 599L804 551L706 551L706 740L731 771L652 810Q652 768 655.50 737.50Q659 707 659 684L659 684Z"/></svg>