<svg id="U27952" viewBox="0 0 1024 1024"><path transform="translate(0, 921.6) scale(1,-1)" d="M60-65L60-65L73-72Q181 48 181 219L181 219L261 219Q261 149 260 99.50Q259 50 254 18L254 18L307 49Q305 77 305 119L305 119Q305 162 305 219L305 219L380 219L380 7Q380-9 358-9L358-9Q348-9 333.50-7Q319-5 302-3L302-3L302-18Q368-32 364-72L364-72Q424-57 424-9L424-9L424 503L449 528L402 575L371 540L302 540Q370 648 405 657L405 657L364 711L330 679L228 679Q237 694 245 707.50Q253 721 261 733L261 733Q268 758 289 777L289 777L222 821Q217 792 206 749Q195 706 169 648L169 648Q142 582 118 536.50Q94 491 67 458L67 458L76 452Q95 469 109.50 483.50Q124 498 135 512L135 512Q135 385 134.50 308Q134 231 131 200L131 200Q131 165 128 133Q125 101 117 69L117 69Q103 2 60-65ZM181 244L181 367L254 367L254 244L181 244ZM181 396L181 516L254 516L254 396L181 396ZM302 396L302 516L380 516L380 396L302 396ZM302 244L302 367L380 367L380 244L302 244ZM222 654L222 654L326 654L282 540L184 540L166 560Q182 587 195.50 610.50Q209 634 222 654ZM739 311L711 247L556 247L537 267Q552 279 563.50 290Q575 301 585 311L585 311L739 311ZM711 223L711 223L830 223L830 154L695 154Q697 165 700 181.50Q703 198 711 223ZM554 154L554 223L667 223Q661 211 658 194Q655 177 651 154L651 154L554 154ZM789 113L786 103Q822 56 830 33L830 33Q839 11 855 18L855 18Q868 31 868 52L868 52Q868 79 789 113L789 113ZM871-9L871-9L799-9Q764-9 764 24L764 24L764 128L830 128L830 106L884 131Q881 147 881 188L881 188L881 213L906 232L862 280L830 247L729 247Q741 264 760 281.50Q779 299 805 311L805 311L773 362L745 339L603 339Q610 343 618.50 349.50Q627 356 638 362L638 362L591 399Q576 372 559 347Q542 322 518 301L518 301Q475 242 421 203L421 203L428 191Q443 202 464.50 215Q486 228 513 244L513 244Q513 187 509 147.50Q505 108 503 87L503 87L554 113L554 128L647 128Q625 62 578 24L578 24Q523-28 424-62L424-62L428-78Q561-37 613 1L613 1Q669 48 691 128L691 128L720 128L720-9Q720-50 786-50L786-50L884-50Q939-50 963-9L963-9Q931 0 931 90L931 90L915 90Q915 71 913.50 53.50Q912 36 912 18L912 18Q907-9 871-9ZM739 714L714 657L575 657L556 676Q561 686 571.50 695Q582 704 597 714L597 714L739 714ZM714 632L714 632L827 632L827 569L701 569Q701 577 705 595Q709 613 714 632ZM575 569L575 632L670 632Q667 614 663 598.50Q659 583 657 569L657 569L575 569ZM786 531L783 519Q800 501 808 487.50Q816 474 824 462L824 462Q828 439 846 452L846 452Q862 462 862 484L862 484Q862 506 786 531L786 531ZM890 414L890 414L793 414Q762 414 767 455L767 455L767 540L827 540L827 522L875 540Q872 552 871.50 567.50Q871 583 871 601L871 601L871 625L893 645L852 686L827 657L732 657Q744 669 761.50 683.50Q779 698 808 717L808 717L767 764L745 742L616 742Q647 773 667 777L667 777L613 824Q564 737 534 704L534 704Q511 678 490.50 655Q470 632 446 616L446 616L456 607Q470 611 489 624Q508 637 534 654L534 654Q534 599 532.50 563.50Q531 528 531 509L531 509L575 531L575 540L654 540Q627 470 578 434L578 434Q523 377 436 342L436 342L440 326Q551 359 619 418L619 418Q683 476 698 540L698 540L720 540L720 418Q720 377 777 377L777 377L909 377Q932 381 943.50 392Q955 403 963 414L963 414Q922 423 922 512L922 512L906 512L906 447Q906 414 890 414Z"/></svg>