<svg id="U2784D" viewBox="0 0 1024 1024"><path transform="translate(0, 921.6) scale(1,-1)" d="M578 327L578 460L821 460L821 327L578 327ZM525 262L525 262L578 280L578 303L619 303Q610 133 559 54L559 54Q530 18 493-14.50Q456-47 408-70L408-70L418-83Q536-42 603 47L603 47Q656 125 673 303L673 303L723 303L723 25Q723-51 808-45L808-45L875-45Q942-45 963 6L963 6Q928 11 925 41L925 41Q917 60 916 88Q915 116 915 154L915 154L899 154Q896 111 896 82L896 82Q896 53 896 34L896 34Q896 0 865-1L865-1L821-1Q773 0 773 38L773 38L773 303L821 303L821 268L875 286Q872 314 871.50 342.50Q871 371 871 400L871 400L871 715L899 737L849 787L818 753L582 753L525 787Q525 733 526.50 669Q528 605 528 526L528 526Q528 447 526.50 380Q525 313 525 262ZM578 620L578 728L821 728L821 620L578 620ZM578 485L578 595L821 595L821 485L578 485ZM187 425L187 522L282 522L282 425L187 425ZM330 425L330 522L418 522L418 425L330 425ZM187 303L187 400L282 400L282 303L187 303ZM330 303L330 400L418 400L418 303L330 303ZM330 51L330 51L330 274L418 274L418 239L469 262Q466 294 465.50 319.50Q465 345 465 362L465 362L465 507L490 535L443 583L411 551L330 551L330 643L515 643L462 712L418 671L330 671L330 753L354 778L276 813Q280 771 281 737Q282 703 282 671L282 671L60 671L98 633Q127 643 179 643L179 643L282 643L282 551L184 551L135 576Q137 528 137.50 486Q138 444 138 406L138 406Q138 371 137.50 325Q137 279 135 224L135 224L187 245L187 274L251 274Q172 71 60-26L60-26L70-39Q211 64 282 208L282 208Q282 132 281 59.50Q280-13 276-86L276-86L333-58Q330-20 330 5L330 5Q330 31 330 51ZM343 229L343 229L333 221Q370 179 395 148Q420 117 428 91L428 91Q451 32 469 75L469 75Q494 112 465 142L465 142Q434 171 343 229Z"/></svg>