<svg id="U27C83" viewBox="0 0 1024 1024"><path transform="translate(0, 921.6) scale(1,-1)" d="M649 480L649 480L643 468Q677 409 680 370L680 370Q685 325 712 357L712 357Q732 382 719 417L719 417Q709 430 691.50 445.50Q674 461 649 480ZM781 348L530 348L564 311Q580 313 598 316.50Q616 320 639 323L639 323L737 323Q725 277 713.50 245.50Q702 214 693 193L693 193Q670 217 647 242.50Q624 268 605 294L605 294L590 288Q634 204 675 159L675 159Q629 95 511 21L511 21L520 11Q643 58 700 124L700 124Q727 91 756 66Q785 41 816 21L816 21Q833 59 876 59L876 59L876 70Q798 92 724 165L724 165Q744 196 761 234Q778 272 791 319L791 319L873 319L819 386L781 348ZM662 738L662 738L687 751L643 798L608 770L501 770L451 795Q451 773 452.50 725.50Q454 678 454 609L454 609L454 87Q454 58 452.50 17.50Q451-23 451-78L451-78L505-60Q502-28 501.50 10Q501 48 501 99L501 99L501 509L618 509L618 477L665 496Q662 505 662 567L662 567Q662 629 662 738ZM501 656L501 741L618 741L618 656L501 656ZM772 537L772 632L891 632L891 537L772 537ZM719 480L719 480L772 496L772 509L891 509L891 36Q891 2 873 2L873 2Q863 2 840.50 5Q818 8 778 11L778 11L778-3Q855-20 870-75L870-75Q935-46 935 18L935 18L935 732L961 751L914 805L883 770L775 770L719 795Q719 762 720 719Q721 676 721 622L721 622Q721 564 720 530Q719 496 719 480ZM772 656L772 741L891 741L891 656L772 656ZM501 537L501 632L618 632L618 537L501 537ZM426 144L426 144Q448 178 435 216L435 216Q431 245 331 360L331 360Q328 381 325 406.50Q322 432 315 455L315 455Q342 479 364.50 504.50Q387 530 413 559L413 559L441 574L391 635Q371 586 350 547Q329 508 309 477L309 477Q283 558 218 625L218 625Q238 653 250.50 678.50Q263 704 271 726L271 726L441 726L379 795L335 751L65 751L100 713Q136 726 215 726L215 726Q187 618 68 493L68 493L78 480Q153 536 202 600L202 600Q213 586 221 572.50Q229 559 236 546L236 546Q206 480 161.50 422Q117 364 62 307L62 307L62 288Q134 342 184.50 391.50Q235 441 259 486L259 486Q265 465 268 442Q271 419 274 398L274 398Q236 285 62 111L62 111L65 96Q226 206 287 313L287 313Q291 122 271 67L271 67Q251 11 215 11L215 11Q195 11 173.50 13.50Q152 16 130 21L130 21L130 8Q212-17 212-65L212-65Q262-55 309 14L309 14Q328 49 336 123.50Q344 198 335 319L335 319Q384 220 394 159L394 159Q408 107 426 144Z"/></svg>