<svg id="U2767A" viewBox="0 0 1024 1024"><path transform="translate(0, 921.6) scale(1,-1)" d="M308 720L308 720Q298 734 274.50 756.50Q251 779 213 808L213 808L207 798Q252 723 257 672L257 672Q271 615 295 653L295 653Q327 688 308 720ZM333 619L302 584L92 584L122 550Q159 559 195 559L195 559L305 559Q279 490 249.50 432Q220 374 185 329L185 329Q150 281 116.50 241Q83 201 45 168L45 168L55 156Q106 193 151 235.50Q196 278 229 326L229 326L229-82L277-60L277 313Q331 255 352 213L352 213Q374 161 390 200L390 200Q408 241 383 270L383 270Q360 291 311 313L311 313Q372 389 421 404L421 404L368 448Q333 361 295 323L295 323L277 329L277 393Q320 463 352 546L352 546L380 565L333 619ZM311-69L311-69L324-78Q382-20 420 46Q458 112 478 181L478 181Q510 329 510 486L510 486L938 486L878 559L819 512L510 512L510 666Q640 679 752 697L752 697Q804 709 840.50 713Q877 717 897 720L897 720L840 792Q819 771 781 755.50Q743 740 692 726L692 726Q635 709 589.50 700Q544 691 506 685L506 685L462 717Q462 679 463 625.50Q464 572 462 502L462 502Q462 432 453.50 360Q445 288 431 213L431 213Q401 64 311-69ZM535-75L535-75L588-54L588-3L819-3L819-72L871-54Q868-24 868 59L868 59Q868 142 868 285L868 285L894 304L850 354L819 326L585 326L535 354Q535 309 536 252Q537 195 537 128L537 128Q537 59 536 8.50Q535-42 535-75ZM588 21L588 298L819 298L819 21L588 21Z"/></svg>