<svg id="U27B1C" viewBox="0 0 1024 1024"><path transform="translate(0, 921.6) scale(1,-1)" d="M155 807L145 797Q190 710 208 636L208 636L55 636L91 599Q107 601 122.50 603Q138 605 158 611L158 611L362 611L312 674L274 636L230 636Q263 682 236 722L236 722Q224 739 204 760.50Q184 782 155 807L155 807ZM148 47L148 208L262 208L262 47L148 47ZM227 501L94 501L117 463Q131 467 146.50 471.50Q162 476 183 476L183 476L331 476L271 535L227 501ZM227 362L100 362L127 324Q140 329 155 333Q170 337 189 337L189 337L331 337L271 396L227 362ZM309 91L309 195L335 221L294 265L265 233L145 233L97 262Q99 220 99.50 181Q100 142 100 104L100 104Q100 61 99.50 21Q99-19 97-62L97-62L148-36L148 19L262 19L262-26L312-5Q309 21 309 44L309 44Q309 67 309 91L309 91ZM426 623L362 623L388 579L410 599L426 599L426 229L341 229L372 195Q390 199 408 202.50Q426 206 444 208L444 208L696 208L655 268L621 233L614 233L614 599L700 599L659 655L624 623L614 623L614 746L639 774L564 810Q564 762 565.50 716.50Q567 671 567 623L567 623L470 623L470 746L498 774L423 810Q423 756 424.50 711Q426 666 426 623L426 623ZM470 497L470 599L567 599L567 497L470 497ZM470 378L470 469L567 469L567 378L470 378ZM470 233L470 350L567 350L567 233L470 233ZM832-80L832-80L888-45Q886-26 886-3L886-3Q886 19 886 47L886 47L886 457L968 457L911 520L876 485L753 485L753 677Q781 684 809 688.50Q837 693 863 699L863 699Q887 706 912.50 709Q938 712 965 715L965 715L907 778Q874 733 753 696L753 696L703 730Q703 645 705 559Q707 473 703 388L703 388Q703 219 675 126L675 126Q638 33 536-74L536-74L542-83Q667 3 712 110L712 110Q753 216 753 460L753 460L839 460L839 85Q839 59 836.50 19.50Q834-20 832-80ZM505 132L438 186Q389 48 300-55L300-55L309-62Q348-30 388 11.50Q428 53 470 113L470 113L505 132ZM545 192L545 192L539 186Q573 127 593 75L593 75Q601 16 631 66L631 66Q658 103 631 132L631 132Q618 143 597 158Q576 173 545 192Z"/></svg>