<svg id="U27081" viewBox="0 0 1024 1024"><path transform="translate(0, 921.6) scale(1,-1)" d="M300 535L300 535L326 561L278 597L259 564L165 564L120 597Q122 567 124 541Q126 515 126 497L126 497Q126 472 124 449Q122 426 120 400L120 400L168 416L168 426L259 426L259 406L304 423Q301 441 300.50 469.50Q300 498 300 535ZM168 455L168 539L252 539L252 455L168 455ZM355 164L355 239L468 239L468 164L355 164ZM355 32L355 32L568 32L517 100L465 61L355 61L355 139L468 139L468 116L517 132L517 329L539 355L504 397L478 364L184 364L133 397Q137 360 138 325Q139 290 139 251L139 251Q139 215 138.50 181Q138 147 136 110L136 110L184 129L184 139L304 139L304 61L48 61L87 26Q103 28 122.50 30Q142 32 162 32L162 32L304 32Q304 12 303.50-18Q303-48 300-92L300-92L358-69Q355-51 355-25L355-25Q355 0 355 32ZM184 264L184 339L304 339L304 264L184 264ZM355 264L355 339L468 339L468 264L355 264ZM184 164L184 239L304 239L304 164L184 164ZM368 400L368 400L420 416L420 426L510 426L510 406L556 419L556 535L581 558L530 600L510 564L423 564L368 584Q370 562 370.50 538Q371 514 371 490L371 490Q371 468 370.50 444.50Q370 421 368 400ZM420 455L420 539L510 539L510 455L420 455ZM758 558L662 603Q664 528 667 470Q670 412 678 371L678 371L536 358L568 322Q577 327 591 333Q605 339 623 342L623 342L678 348Q687 211 716 142L716 142Q670 98 610.50 56.50Q551 15 475-20L475-20L478-40Q539-20 601 11Q663 42 729 90L729 90Q770 21 824.50-24.50Q879-70 945-85L945-85Q925 29 958 148L958 148L945 152L887 10Q828 30 778 126L778 126Q807 154 836 188Q865 222 897 261L897 261L933 261L862 322Q832 276 805.50 242Q779 208 758 184L758 184Q746 208 739.50 249.50Q733 291 725 355L725 355L975 384L900 442L878 400L725 377Q721 413 720.50 452.50Q720 492 720 535L720 535L758 558ZM778 568L769 558Q797 528 812.50 504.50Q828 481 836 464L836 464Q845 422 868 461L868 461Q889 492 865 522L865 522Q836 551 778 568L778 568ZM504 677L455 748L407 703L358 703L358 780L391 800L300 835Q303 811 303.50 779Q304 747 304 703L304 703L93 703L130 668Q151 672 170.50 673Q190 674 210 677L210 677L304 677Q304 653 303.50 633Q303 613 300 597L300 597L362 609Q359 628 358.50 644.50Q358 661 358 677L358 677L504 677ZM517 713L545 674Q572 684 600 684L600 684L646 684Q646 672 644 651.50Q642 631 642 600L642 600L704 622Q701 641 700.50 656.50Q700 672 700 684L700 684L940 684L881 748L836 713L700 713L700 774L729 797L642 829Q642 807 644 778Q646 749 646 713L646 713L517 713Z"/></svg>