<svg id="U273D" viewBox="0 0 742 1000"><path transform="translate(0, 900) scale(1,-1)" d="M370-46L370-46Q342-46 325-23Q308 0 308 34L308 34Q308 72 335 148L335 148Q362 226 362 302L362 302Q329 282 304 261Q279 240 260 219L260 219Q235 191 210 165.50Q185 140 160 124Q135 108 109 108L109 108Q85 108 68 124.50Q51 141 51 163L51 163Q51 188 72 210.50Q93 233 137 245L137 245Q159 251 183.50 257.50Q208 264 236 269L236 269Q290 280 354 316L354 316Q290 352 232 364L232 364Q176 376 133.50 388.50Q91 401 71 423L71 423Q51 446 51 471L51 471Q51 494 67.50 509Q84 524 110 524L110 524Q137 524 165 504.50Q193 485 220 457Q247 429 269 404L269 404Q303 365 362 330L362 330L362 343Q362 373 359.50 397.50Q357 422 351 440L351 440Q343 464 333.50 494Q324 524 317 552.50Q310 581 310 598L310 598Q310 633 327.50 655.50Q345 678 372 678L372 678Q398 678 416 656Q434 634 434 598L434 598Q434 562 407 482L407 482Q380 403 380 330L380 330Q401 344 413 351.50Q425 359 433 365.50Q441 372 451 381.50Q461 391 479 409L479 409Q549 486 577 505L577 505Q605 524 635 524L635 524Q659 524 675 509Q691 494 691 471L691 471Q691 446 671.50 424.50Q652 403 608 389L608 389Q587 382 562.50 376Q538 370 510 364L510 364Q455 352 388 316L388 316Q420 298 449.50 286.50Q479 275 507 269L507 269Q562 257 605.50 244.50Q649 232 670 210L670 210Q691 188 691 163L691 163Q691 141 674.50 124.50Q658 108 632 108L632 108Q610 108 586 123Q562 138 539 159.50Q516 181 497.50 202Q479 223 468 235L468 235Q446 260 380 302L380 302L380 289Q380 226 406 146L406 146Q432 66 432 34L432 34Q432-1 414-23.50Q396-46 370-46Z"/></svg>