<svg id="U2777B" viewBox="0 0 1024 1024"><path transform="translate(0, 921.6) scale(1,-1)" d="M871 746L811 692L506 692Q555 729 525 766L525 766Q508 779 485 790Q462 801 433 813L433 813L424 803Q464 774 484 692L484 692L73 692L111 658Q128 660 147.50 664Q167 668 191 668L191 668L937 668L871 746ZM547 623L547 623L544 614Q584 579 600 545L600 545Q604 527 615 526.50Q626 526 635 538L635 538Q651 562 638 583L638 583Q619 605 547 623ZM525 425L528 416Q676 434 720 520L720 520Q785 484 818 473L818 473Q832 461 846 449Q860 437 878 425L878 425Q906 400 915 435L915 435Q920 467 890 485L890 485Q874 496 832.50 508.50Q791 521 723 535L723 535L732 551Q810 567 861 578Q912 589 931 589L931 589L881 640Q833 601 736 570L736 570Q736 586 737.50 595Q739 604 739 611L739 611L761 630L682 655Q682 631 681.50 609Q681 587 680 563L680 563Q666 507 623 479L623 479Q573 441 525 425L525 425ZM603 438L603 438L680 416L660 396L660 378L761 378Q761 395 759.50 411Q758 427 758 444L758 444L830 419L811 396L811 378L849 378L896 406L950 350L811 350L811 239L761 221L761 350L660 350Q656 260 531 195L531 195L525 208Q601 266 606 350L606 350L597 350Q548 350 518 340L518 340L477 378L606 378Q606 385 604.50 399.50Q603 414 603 438ZM556 60L374-1L374 129Q401 146 428 168.50Q455 191 484 221L484 221Q565 70 682 10L682 10Q799-52 887-62L887-62Q894-26 966-8L966-8L966 6Q912 2 862 8Q812 14 764 28L764 28Q682 53 635 95L635 95Q673 120 702 139Q731 158 755 173L755 173L789 183L736 239Q721 213 691 179Q661 145 613 107L613 107Q537 168 500 229L500 229Q507 236 514.50 239.50Q522 243 528 249L528 249L471 286Q425 202 298 129L298 129Q180 47 57 6L57 6L60-5Q138 12 204.50 39Q271 66 326 98L326 98L326 13Q331-11 310-36L310-36L348-86Q365-61 418.50-27.50Q472 6 562 51L562 51L556 60ZM191 453L191 453L98 447L122 388L191 409Q191 401 181 372L181 372Q176 335 147 290L147 290Q113 240 60 208L60 208L67 195Q133 220 172 265L172 265Q206 294 225 344L225 344Q238 374 238 419L238 419L405 438L405 309Q405 294 395 290L395 290Q391 286 295 299L295 299L295 283Q349 269 361 262L361 262Q369 254 375.50 244.50Q382 235 387 224L387 224Q454 247 449 318L449 318L449 444L521 457L518 479L449 473L449 570L471 589L428 630L402 602L295 602Q309 613 321.50 623Q334 633 348 643L348 643L295 668Q290 645 263 602L263 602L238 602L187 623Q190 600 190.50 558Q191 516 191 453ZM238 457L238 576L405 576L405 466L238 457ZM289 561L289 561L276 555Q305 519 310 494L310 494Q316 456 333 473L333 473Q347 476 351 504L351 504Q355 526 289 561ZM276 422L276 422L266 416Q280 404 287.50 393Q295 382 298 378L298 378Q303 368 307 360Q311 352 314 340L314 340Q319 316 343 340L343 340Q355 363 348 381L348 381Q342 397 276 422Z"/></svg>