<svg id="U27316" viewBox="0 0 1024 1024"><path transform="translate(0, 921.6) scale(1,-1)" d="M153 298L153 568L220 568L220 298L153 298ZM269 298L269 568L336 568L336 298L269 298ZM346 118L346 118L269 99L269 272L336 272L336 241L387 270Q384 300 383.50 372Q383 444 383 559L383 559L405 578L364 628L336 597L269 597L269 745L292 776L216 814Q219 783 219.50 727.50Q220 672 220 597L220 597L150 597L104 628Q107 583 107.50 531.50Q108 480 108 420L108 420Q108 357 107.50 309.50Q107 262 104 222L104 222L153 250L153 272L220 272L220 90Q160 70 122 62.50Q84 55 67 55L67 55L98-6Q112 4 184 39L184 39Q222 54 264 68Q306 82 351 99L351 99Q356 85 360.50 72Q365 59 367 46L367 46Q372 19 392 46L392 46Q412 70 408 103L408 103Q404 122 314 229L314 229L302 216Q315 185 325.50 159.50Q336 134 346 118ZM531-3L531 168L793 168L793-3L531-3ZM840 152L840 152L868 188L814 229L793 193L682 193L682 323L919 323L862 393L811 348L682 348L682 471L818 471L761 540L714 499L503 499L534 465Q553 467 570.50 469Q588 471 606 471L606 471L635 471L635 348L424 348L456 313Q473 315 491 319Q509 323 528 323L528 323L635 323L635 193L534 193L480 216Q483 198 483.50 160.50Q484 123 484 62L484 62Q484-1 483.50-37Q483-73 480-88L480-88L531-69L531-31L793-31L793-82L843-60Q840-44 840 152ZM698 773L698 773L626 814Q620 788 605.50 745Q591 702 562 644L562 644Q506 525 383 411L383 411L389 401Q564 507 657 726L657 726Q741 532 890 442L890 442Q910 478 956 483L956 483L956 499Q813 524 667 738L667 738Q674 749 682 757.50Q690 766 698 773Z"/></svg>