<svg id="U27843" viewBox="0 0 1024 1024"><path transform="translate(0, 921.6) scale(1,-1)" d="M564 334L564 466L813 466L813 334L564 334ZM517 262L517 262L564 280L564 309L611 309Q596 129 545 60L545 60Q496-15 403-70L403-70L413-83Q535-29 593 47L593 47Q652 128 662 309L662 309L716 309L716 25Q716-53 798-49L798-49L866-49Q937-49 958 6L958 6Q926 11 920 44L920 44Q915 63 914.50 89Q914 115 914 157L914 157L901 157Q896 115 893.50 87.50Q891 60 891 41L891 41Q886 3 854 3L854 3L813 3Q765 1 765 44L765 44L765 309L813 309L813 271L866 290Q863 320 863 350L863 350Q863 381 863 409L863 409L863 725L888 749L842 797L809 762L570 762L517 797Q517 743 518.50 679.50Q520 616 520 535L520 535Q520 454 518.50 385.50Q517 317 517 262ZM564 630L564 737L813 737L813 630L564 630ZM564 491L564 604L813 604L813 491L564 491ZM423 648L379 555L388 551Q406 569 422 584Q438 599 448 611L448 611Q460 620 473 627.50Q486 635 501 643L501 643L457 705L420 677L309 677Q347 712 328 746L328 746Q320 761 297.50 775.50Q275 790 243 810L243 810L230 803Q273 746 284 677L284 677L151 677L148 718L133 718Q122 645 94 623L94 623Q70 599 75 570L75 570Q81 540 100 555L100 555Q125 568 133 583L133 583Q146 592 151 648L151 648L423 648ZM318 589L240 630Q240 585 233.50 539Q227 493 221 444L221 444L88 444L117 409Q158 416 192 416L192 416L215 416Q195 308 161 218L161 218Q141 173 119 126.50Q97 80 65 28L65 28L72 22Q115 71 147.50 119.50Q180 168 202 218L202 218Q245 314 265 416L265 416L485 416L435 488L379 444L268 444Q277 492 282 522Q287 552 290 566L290 566L318 589ZM183 44L183 44L224-11Q242 5 287 22L287 22Q310 28 339 35.50Q368 43 403 51L403 51Q406 36 409.50 25.50Q413 15 416 6L416 6Q421-8 441 6L441 6Q461 26 461 41L461 41Q464 60 448 95L448 95Q443 106 424.50 128.50Q406 151 375 186L375 186L362 177Q371 152 379.50 127.50Q388 103 400 79L400 79L249 51Q277 96 296.50 136Q316 176 331 211L331 211Q346 243 361 270Q376 297 397 318L397 318L325 359Q322 316 306.50 268Q291 220 265 160L265 160Q211 44 183 44Z"/></svg>