<svg id="U274F9" viewBox="0 0 1024 1024"><path transform="translate(0, 921.6) scale(1,-1)" d="M155 735L155 735L155 591Q155 559 132 547L132 547L168 499Q182 517 277 543L277 543Q325 555 365 564Q405 573 438 578L438 578L435 594L211 560L211 616L504 616Q516 599 538 580Q560 561 589 547L589 547Q620 529 653 516Q686 503 728 496L728 496Q801 474 882 474L882 474Q915 469 928 475Q941 481 929 493L929 493Q906 512 901 543Q896 574 904 612L904 612L888 616L867 521Q634 545 574 616L574 616L863 616L803 679L750 641L548 641Q520 669 520 682L520 682L728 682L728 663L781 682L781 755L803 771L747 808L718 779L211 779L151 799Q154 775 154.50 759.50Q155 744 155 735ZM211 710L211 755L728 755L728 710L211 710ZM211 641L211 682L466 682Q470 675 475 663.50Q480 652 492 641L492 641L211 641ZM281 506L224 540Q226 507 226.50 473Q227 439 227 411L227 411Q227 380 226.50 347Q226 314 224 272L224 272L281 288L281 295L715 295L715 275L772 301Q769 319 769 339L769 339Q769 359 769 383L769 383L769 468L791 483L737 524L715 506L281 506ZM281 480L715 480L715 411L281 411L281 480ZM281 323L281 386L715 386L715 323L281 323ZM397 43L397 43L387 39Q396 30 408 20Q420 10 432-3L432-3L315-9L315 68L404 68L404 43L457 62Q451 93 451 178L451 178L479 194L432 241L400 210L315 210L315 229L340 247L265 282Q268 271 268 210L268 210L186 210L129 231Q131 198 131.50 170Q132 142 132 118L132 118Q132 99 131.50 75Q131 51 129 27L129 27L183 39L183 68L268 68L268-19Q202-25 151.50-28.50Q101-32 68-28L68-28L103-81Q134-66 218-51.50Q302-37 438-19L438-19Q460-50 463-72L463-72Q467-92 492-75L492-75Q506-55 502-34L502-34Q494-9 466 8L466 8Q455 15 436.50 25Q418 35 397 43ZM183 185L268 185L268 93L183 93L183 185ZM315 93L315 185L404 185L404 93L315 93ZM826 52L826 52L816 43Q828 31 839.50 19Q851 7 863-3L863-3L750-9L750 68L841 68L841 43L888 62Q885 80 885 111L885 111Q885 142 885 185L885 185L908 197L867 241L835 210L750 210L750 231L775 260L700 288Q700 276 703 256.50Q706 237 706 210L706 210L615 210L561 231Q561 203 563.50 180Q566 157 564 134L564 134Q564 112 562.50 85.50Q561 59 561 30L561 30L615 39L615 68L706 68L706-16Q646-18 597.50-19.50Q549-21 517-21L517-21L548-81Q602-56 870-19L870-19Q875-30 879.50-41Q884-52 888-62L888-62Q891-78 908-78L908-78Q920-70 929-53L929-53Q943-26 914-3L914-3Q903 9 880.50 22.50Q858 36 826 52ZM615 93L615 185L706 185L706 93L615 93ZM750 185L841 185L841 93L750 93L750 185Z"/></svg>