<svg id="U27606" viewBox="0 0 1024 1024"><path transform="translate(0, 921.6) scale(1,-1)" d="M839 723L706 723L737 688Q770 697 809 697L809 697L942 697L891 761L839 723ZM687 23L687 23L687 8Q791-9 791-72L791-72Q863-41 863 23L863 23L863 437L965 437L911 502L866 465L693 465L728 427Q761 437 798 437L798 437L813 437L813 36Q813 14 772 14L772 14Q753 17 730.50 19Q708 21 687 23ZM265 735L265 735L300 761L240 805Q218 745 185 685.50Q152 626 106 565L106 565L116 559Q173 595 265 735ZM243-50L243 389L268 411L230 433Q276 515 290 553L290 553L325 578L265 625Q219 504 168 410.50Q117 317 59 250L59 250L68 237Q103 266 135 300Q167 334 196 373L196 373Q196 214 195.50 103Q195-8 192-78L192-78L243-50ZM482 568L482 726L501 751L461 795L435 764L366 764L325 792Q327 747 327.50 704Q328 661 328 619L328 619Q328 573 327.50 528Q327 483 325 437L325 437L369 455L369 468L438 468L438 448L485 471Q482 494 482 516L482 516Q482 539 482 568L482 568ZM526 433L526 433L574 452L574 468L643 468L643 448L690 471Q687 506 687 568L687 568Q687 630 687 726L687 726L706 751L662 795L639 764L574 764L526 795Q526 752 529.50 708Q533 664 533 619L533 619Q533 568 529.50 523Q526 478 526 433ZM369 669L369 738L438 738L438 669L369 669ZM369 578L369 644L438 644L438 578L369 578ZM369 493L369 550L438 550L438 493L369 493ZM574 669L574 738L643 738L643 669L574 669ZM574 578L574 644L643 644L643 578L574 578ZM574 493L574 550L643 550L643 493L574 493ZM410 357L410 357L482 357L482 250L281 250L312 216Q331 218 348 220Q365 222 385 222L385 222L482 222L482 23L407 8L407 149L429 172L359 197Q361 171 361.50 122.50Q362 74 362 2L362 2Q347 0 328.50-5Q310-10 290-13L290-13L325-62Q365-43 401.50-29.50Q438-16 476-9L476-9Q512 0 567.50 15Q623 30 696 52L696 52L696 64L533 36L533 124L693 124L643 185L596 152L533 152L533 222L737 222L687 285L637 250L533 250L533 357L687 357L637 417L593 386L426 386Q450 421 467 433L467 433L410 468Q390 387 303 270L303 270L312 260Q341 283 364.50 305.50Q388 328 410 357Z"/></svg>