<svg id="U2776E" viewBox="0 0 1024 1024"><path transform="translate(0, 921.6) scale(1,-1)" d="M300 715L300 715Q287 739 205 790L205 790L199 784Q253 709 262 658L262 658Q278 607 300 648L300 648Q322 687 300 715ZM315 617L281 579L88 579L109 542Q145 555 186 555L186 555L281 555Q241 424 174 321L174 321Q140 269 113.50 232Q87 195 65 167L65 167L72 154Q158 228 215 306L215 306L215-86L262-64L262 309Q309 265 325 227L325 227Q347 181 362 221L362 221Q376 256 359 277L359 277Q352 283 337.50 295Q323 307 303 318L303 318Q329 346 349 365Q369 384 391 394L391 394L341 438Q329 404 316 375.50Q303 347 284 321L284 321L262 331L262 384Q282 424 299 464Q316 504 331 542L331 542L359 563L315 617ZM614 771L614 771L555 813Q545 783 528 755.50Q511 728 492 699L492 699Q469 670 441 637.50Q413 605 375 573L375 573L382 561Q428 589 464.50 618Q501 647 530 677L530 677L879 677Q879 632 876 577.50Q873 523 866 460L866 460Q861 391 853.50 352Q846 313 842 299L842 299Q832 271 804 271L804 271Q789 275 760.50 278Q732 281 690 286L690 286L690 271Q796 251 801 208L801 208Q841 215 866 242L866 242Q892 268 901 312L901 312Q905 338 914 427Q923 516 932 671L932 671L958 692L904 743L876 705L549 705Q560 721 576 737.50Q592 754 614 771ZM467 611L472 620Q503 604 525.50 591.50Q548 579 557 570L557 570Q582 545 557 517L557 517Q551 499 541 501Q531 503 526 522L526 522Q516 539 501.50 562Q487 585 467 611L467 611ZM822 595L765 646Q752 621 741 602Q730 583 719 570L719 570Q707 551 693 537.50Q679 524 665 510L665 510L672 497Q723 529 763 561L763 561Q779 574 793.50 582.50Q808 591 822 595L822 595ZM611 258L611 258L602 249Q655 180 672 126L672 126Q680 100 691 96.50Q702 93 709 110L709 110Q727 136 719 173L719 173Q697 204 611 258ZM426 154L410 154Q380 64 338 38L338 38Q298 1 312-8L312-8Q324-23 353-23L353-23Q375-20 394 13L394 13Q403 28 410.50 65Q418 102 426 154L426 154ZM485 98L485 13Q485-58 567-58L567-58L744-58Q834-47 857-5L857-5Q825 3 816 28L816 28Q806 44 806 107L806 107L788 107Q782 40 772 16L772 16Q767-17 728-17L728-17L605-17Q536-16 536 38L536 38L536 151L567 188L479 224Q479 190 482 158Q485 126 485 98L485 98ZM835 183L822 170Q898 79 907 34L907 34Q921-1 945 28L945 28Q967 62 945 95L945 95Q931 111 904 133Q877 155 835 183L835 183ZM672 453L665 440Q695 412 717.50 389.50Q740 367 750 344L750 344Q775 301 798 331L798 331Q812 375 788 388L788 388Q776 399 746.50 414.50Q717 430 672 453L672 453ZM596 416L545 457Q529 431 510.50 408Q492 385 470 365L470 365Q446 344 420.50 322Q395 300 362 283L362 283L372 271Q436 296 492 337L492 337Q517 355 536 370.50Q555 386 570 403L570 403L596 416ZM602 258L602 258L659 280Q652 290 652 435L652 435L652 447L652 463L845 463L788 532L740 491L652 491L652 607L675 633L602 661Q602 628 603.50 585.50Q605 543 605 491L605 491L394 491L429 457Q447 461 472 462Q497 463 523 463L523 463L605 463Q605 385 603.50 331.50Q602 278 602 258Z"/></svg>