<svg id="U27453" viewBox="0 0 1024 1024"><path transform="translate(0, 921.6) scale(1,-1)" d="M145 280L145 551L212 551L212 280L145 280ZM259 280L259 551L328 551L328 280L259 280ZM62 44L62 44L103-17Q118 2 186 28L186 28Q219 42 259.50 54.50Q300 67 346 85L346 85Q358 38 359 38L359 38Q362 24 385 47L385 47Q404 71 400 104L400 104Q400 138 318 229L318 229L305 221Q336 140 341 110L341 110L259 85L259 255L328 255L328 227L379 252Q375 261 375 344L375 344L375 532L400 563L359 604L335 579L259 579L259 737L287 766L208 803Q211 771 211.50 715.50Q212 660 212 579L212 579L142 579L97 607Q102 562 102.50 512.50Q103 463 103 403L103 403Q103 343 102.50 294Q102 245 97 208L97 208L145 233L145 255L212 255L212 79Q102 44 62 44ZM860 733L860 733L813 797Q786 773 690 753L690 753Q644 740 592.50 731.50Q541 723 482 718L482 718L482 699Q549 701 594 703.50Q639 706 662 709L662 709L662 643L416 643L451 607Q467 610 485 613.50Q503 617 526 617L526 617L627 617Q561 542 391 435L391 435L397 425Q472 451 538 486.50Q604 522 662 576L662 576Q662 541 658.50 513.50Q655 486 655 466L655 466L712 488Q709 512 709 532L709 532Q709 553 709 576L709 576Q816 536 857 510L857 510Q873 498 887 488.50Q901 479 911 473L911 473Q935 456 935 494L935 494Q935 531 888 551L888 551Q843 575 709 599L709 599L709 617L955 617L898 684L847 643L709 643L709 715Q757 722 794 725.50Q831 729 860 733ZM662 488L662 488Q642 455 619.50 426Q597 397 567 372L567 372Q529 341 483 315.50Q437 290 382 268L382 268L385 252Q560 291 672 403L672 403Q767 291 891 249L891 249Q915 293 961 293L961 293L961 312Q824 315 687 416L687 416Q691 422 699.50 428.50Q708 435 716 444L716 444L662 488ZM870 218L870 218L826 277Q796 231 703 192L703 192L703 277L728 306L655 337L655 154Q460 72 397 72L397 72L435 3Q449 18 503.50 48Q558 78 655 132L655 132L655 47Q655 7 637 3L637 3Q627 3 601 5.50Q575 8 533 16L533 16L533 0Q623-20 634-77L634-77Q692-55 703 3L703 3L703 126Q831 47 866 6L866 6Q899-29 904 19L904 19Q909 66 876 85L876 85Q856 94 812.50 108.50Q769 123 703 145L703 145L703 164Q726 173 751.50 181.50Q777 190 801 198L801 198Q846 218 870 218ZM489 271L489 271L482 255Q557 213 586 177L586 177Q608 136 614 188L614 188Q620 233 593 242L593 242Q562 258 489 271Z"/></svg>