<svg id="U27AAA" viewBox="0 0 1024 1024"><path transform="translate(0, 921.6) scale(1,-1)" d="M614 485L614 485L526 485L526 643L634 643Q631 592 625 552.50Q619 513 614 485ZM680 643L680 643L794 643L794 485L662 485Q675 537 680 643ZM505 211L567 211L567-20L505-20L505 211ZM614-20L614 211L683 211L683-20L614-20ZM731-20L731 211L798 211L798-20L731-20ZM457 123L457-20L359-20L397-58Q430-49 479-49L479-49L961-49L907 13L863-20L847-20L847 192L873 214L826 268L794 236L508 236L451 265Q455 229 456 193.50Q457 158 457 123L457 123ZM168 810L155 800Q211 708 227 627L227 627L62 627L97 595Q131 602 168 602L168 602L416 602L353 668L309 627L249 627Q289 680 262 718L262 718Q247 736 222 759.50Q197 783 168 810L168 810ZM151 19L151 188L300 188L300 19L151 19ZM271 488L97 488L127 453Q142 460 161 461.50Q180 463 199 463L199 463L372 463L312 529L271 488ZM268 347L103 347L133 312Q149 316 169 317Q189 318 208 318L208 318L369 318L309 388L268 347ZM346 44L346 180L372 201L325 252L294 214L158 214L100 252Q103 209 103 166L103 166Q103 124 103 82L103 82Q103 37 103-2L103-2Q103-41 100-83L100-83L151-58L151-5L300-5L300-67L350-39Q347-20 346.50 1Q346 22 346 44L346 44ZM690 460L703 460L945 460L895 526L857 485L847 485L847 627L873 646L826 702L794 668L680 668L680 753L709 774L631 810Q631 771 632.50 737Q634 703 634 668L634 668L533 668L476 699Q476 656 477.50 602.50Q479 549 479 485L479 485L382 485L416 450Q432 452 449.50 456Q467 460 485 460L485 460L605 460Q538 317 362 249L362 249L366 236Q577 282 659 460L659 460L690 460ZM886 229L886 229Q913 268 952 268L952 268L952 280Q803 304 703 460L703 460L683 460Q738 301 886 229Z"/></svg>