<svg id="U2759E" viewBox="0 0 1024 1024"><path transform="translate(0, 921.6) scale(1,-1)" d="M67 531L67 531L73 522Q134 558 163 591L163 591L163 359L213 374L213 387L415 387L415 374L462 387L462 601L480 619L440 660L415 632L330 632Q353 664 378 684.50Q403 705 428 717L428 717L374 761L346 733L257 733L285 774L305 783L241 824Q187 667 67 531ZM213 632L200 645Q212 658 222 673Q232 688 245 704L245 704L346 704Q338 688 328 670Q318 652 305 632L305 632L213 632ZM292 525L213 525L213 607L292 607L292 525ZM176 352L163 352Q149 330 135.50 312.50Q122 295 108 282L108 282Q85 266 89 236L89 236Q102 212 131 239L131 239Q165 263 176 352L176 352ZM245 267L245 267Q249 232 273 254L273 254Q298 279 276 311L276 311Q257 338 225 364L225 364L220 359Q231 327 236.50 305Q242 283 245 267ZM343 274L343 274Q346 222 377 274L377 274Q405 313 323 367L323 367L310 359Q325 337 332.50 314Q340 291 343 274ZM459 267L459 267Q463 226 490 257L490 257Q512 285 493 308L493 308Q485 315 466.50 329.50Q448 344 418 367L418 367L411 359Q430 327 443 305Q456 283 459 267ZM213 500L292 500L292 411L213 411L213 500ZM339 500L415 500L415 411L339 411L339 500ZM415 607L415 525L339 525L339 607L415 607ZM688 745L449 745L480 714Q499 716 516.50 718Q534 720 554 720L554 720L947 720L896 781L849 745L704 745Q746 766 726 786L726 786Q706 811 651 824L651 824L644 818Q688 780 688 745L688 745ZM903 651L903 651L928 667L884 708L855 686L569 686L518 701Q518 678 521.50 650.50Q525 623 525 598L525 598Q525 564 521.50 540Q518 516 518 500L518 500L569 509L569 513L855 513L855 500L906 516Q903 534 903 567L903 567Q903 600 903 651ZM569 541L569 660L855 660L855 541L569 541ZM789 619L789 619L808 629L770 660L749 645L663 645L623 657Q623 643 624.50 629Q626 615 626 604L626 604Q626 589 624.50 575Q623 561 623 547L623 547L667 553L667 560L749 560L749 550L796 563Q789 570 789 619ZM667 585L667 619L749 619L749 585L667 585ZM858 447L858 447L884 465L840 503L808 484L610 484L556 493Q556 479 559 457.50Q562 436 562 406L562 406Q562 370 559 345Q556 320 556 301L556 301L610 318L610 321L808 321L808 311L862 326Q859 341 858.50 371.50Q858 402 858 447ZM610 415L610 455L808 455L808 415L610 415ZM610 349L610 390L808 390L808 349L610 349ZM849 280L513 280L544 248Q559 252 576.50 253Q594 254 613 254L613 254L956 254L899 314L849 280ZM544 94L544 172L554 172L761 172L761 94L544 94ZM285 94L285 172L493 172L493 94L285 94ZM493 66L493-9Q231-22 108-18L108-18L140-75Q159-67 329-54.50Q499-42 818-21L818-21Q839-30 856.50-41.50Q874-53 893-68L893-68Q919-86 934-71L934-71Q942-48 925-21L925-21Q909 3 695 56L695 56L688 43Q715 35 740.50 22.50Q766 10 796-2L796-2Q704-11 544-11L544-11L544 66L761 66L761 49L811 66L811 172L843 185L786 223L761 198L544 198L544 213L569 233L493 261L493 198L292 198L235 220L235 28L285 46L285 66L493 66Z"/></svg>