<svg id="U27900" viewBox="0 0 1024 1024"><path transform="translate(0, 921.6) scale(1,-1)" d="M649 795L643 789Q696 689 696 650L696 650L454 650L489 615Q505 618 525 621.50Q545 625 564 625L564 625L968 625L911 691L860 650L724 650Q761 685 744 717L744 717Q726 748 649 795L649 795ZM624 162L624 162L655 178L590 229Q572 178 538.50 116.50Q505 55 451-9L451-9L461-19Q498 8 539.50 53Q581 98 624 162ZM794 219L785 203Q873 91 891 33L891 33Q904-18 930-3L930-3Q948 22 948 52L948 52Q948 68 937.50 85.50Q927 103 911 124L911 124Q889 141 860.50 165Q832 189 794 219L794 219ZM596 335L596 499L842 499L842 335L596 335ZM542 260L542 260L596 282L596 307L696 307L696 30Q696 0 675 0L675 0Q665 0 640 2.50Q615 5 580 8L580 8L580-9Q658-14 675-82L675-82Q744-63 744 8L744 8L744 307L842 307L842 270L895 288Q892 316 891.50 368Q891 420 891 493L891 493L917 518L863 563L835 527L596 527L542 556Q542 522 543.50 484Q545 446 545 404L545 404Q545 361 543.50 325.50Q542 290 542 260ZM305 767L236 811Q227 753 171 632L171 632Q145 574 117 527Q89 480 59 445L59 445L65 439Q109 465 133 496L133 496Q133 375 132.50 300.50Q132 226 130 193L130 193Q124 167 120.50 135.50Q117 104 112 70L112 70Q99 4 55-82L55-82L65-85Q176 21 180 209L180 209L268 209Q268 146 267 102Q266 58 262 30L262 30L315 62Q312 82 312 120L312 120Q312 158 312 209L312 209L397 209L397 11Q397 0 375-3L375-3Q367-3 347.50-1Q328 1 297 5L297 5L297-9Q371-25 379-82L379-82Q442-59 448-9L448-9L448 493L472 518L423 563L394 527L312 524Q373 623 429 635L429 635L375 694L344 660L236 660Q245 678 253.50 694.50Q262 711 271 726L271 726Q284 751 305 767L305 767ZM180 237L180 360L268 360L268 237L180 237ZM180 386L180 499L268 499L268 386L180 386ZM312 386L312 499L397 499L397 386L312 386ZM312 237L312 360L397 360L397 237L312 237ZM230 635L230 635L344 635L290 527L189 527L171 540Q186 565 201 589Q216 613 230 635Z"/></svg>