<svg id="U27E2A" viewBox="0 0 1024 1024"><path transform="translate(0, 921.6) scale(1,-1)" d="M493 767L436 792Q439 738 439.50 666.50Q440 595 440 502L440 502Q440 408 434.50 328.50Q429 249 418 181L418 181Q398 48 317-69L317-69L330-78Q452 51 474 229L474 229Q486 317 489 444.50Q492 572 490 741L490 741L963 741L906 805L855 767L493 767ZM594 685L534 710Q544 568 534 427L534 427L591 442L591 461L682 461L682 398L513 398L550 360Q589 373 632 373L632 373L682 373L682 298L484 298L515 263Q534 265 551.50 267.50Q569 270 591 270L591 270L963 270L899 342L855 298L736 298L736 373L906 373L852 439L808 398L736 398L736 461L834 461L834 445L884 465Q881 504 881 549L881 549Q881 595 881 647L881 647L906 669L858 717L824 685L594 685ZM591 656L682 656L682 587L591 587L591 656ZM736 656L834 656L834 587L736 587L736 656ZM591 489L591 559L682 559L682 489L591 489ZM736 489L736 559L834 559L834 489L736 489ZM896 131L896 131Q913 102 925.50 107Q938 112 944 144L944 144Q957 207 783 257L783 257L780 244Q866 178 896 131ZM644 213L591 260Q574 222 542 183Q510 144 465 96L465 96L471 87Q513 114 541.50 134Q570 154 585 172L585 172Q623 206 644 213L644 213ZM682 115L682 115L515 115L550 83Q570 87 588.50 88.50Q607 90 626 90L626 90L682 90L682-9L430-9L465-47Q481-44 498-42Q515-40 534-37L534-37L963-37L903 26L855-9L729-9L729 90L893 90L837 152L796 115L729 115L729 181L755 206L680 241Q680 210 681 178.50Q682 147 682 115ZM361 383L361 383L361 729L389 754L336 802L310 767L143 767L92 795Q97 750 97.50 674.50Q98 599 98 493L98 493Q98 381 97.50 303.50Q97 226 92 175L92 175L143 200L143 241L310 241L310 190L367 219Q362 273 361.50 314.50Q361 356 361 383ZM310 568L310 439L143 439L143 568L310 568ZM310 414L310 266L143 266L143 414L310 414ZM194 108L222 144L163 190Q149 126 123 63.50Q97 1 60-62L60-62L67-72Q100-34 131.50 10Q163 54 194 108L194 108ZM263 185L263 185L257 172Q308 95 323 36L323 36Q342-18 367 23L367 23Q395 64 351 108L351 108Q330 132 308.50 149.50Q287 167 263 185ZM310 741L310 594L143 594L143 741L310 741Z"/></svg>