<svg id="U2743A" viewBox="0 0 1024 1024"><path transform="translate(0, 921.6) scale(1,-1)" d="M150 272L150 550L216 550L216 272L150 272ZM263 272L263 550L330 550L330 272L263 272ZM63 23L63 23L101-34Q113-27 135-17.50Q157-8 187 5L187 5Q218 19 255 34.50Q292 50 330 64L330 64Q333 32 343 11L343 11Q350-4 367 23L367 23Q388 54 383 83L383 83Q378 113 302 206L302 206L289 200Q303 158 313 130.50Q323 103 326 87L326 87L263 70L263 244L330 244L330 213L380 237Q377 253 377 332L377 332L377 534L405 563L351 603L333 574L263 574L263 738L289 770L213 808Q215 776 215.50 717.50Q216 659 216 574L216 574L147 574L98 606Q101 561 101 507L101 507Q101 454 101 396L101 396Q101 333 101 282L101 282Q101 231 98 193L98 193L150 219L150 244L216 244L216 64Q161 47 123 36Q85 25 63 23ZM449 741L449 741L440 729Q456 701 466 672.50Q476 644 480 615L480 615Q497 561 521 591L521 591Q546 624 528 660L528 660Q510 692 449 741ZM361-16L361-16L405-65Q427-16 487 52L487 52Q565-23 657-54L657-54Q741-82 890-82L890-82Q895-37 960-25L960-25L960-9Q769-23 680-9L680-9Q585 12 518 64L518 64L518 396L541 427L487 468L465 430L380 430L402 396Q421 398 432.50 399.50Q444 401 449 401L449 401L469 401L469 77Q434 44 408 22Q382 0 361-16ZM752 635L752 635Q735 649 714 662Q693 675 670 688L670 688L660 679Q712 617 732 553L732 553L619 553L572 584Q572 542 573.50 473.50Q575 405 575 311L575 311Q575 212 573.50 144.50Q572 77 572 39L572 39L619 64L619 237L714 237Q714 185 712.50 143.50Q711 102 711 62L711 62L761 87Q758 112 758 148L758 148Q758 185 758 237L758 237L855 237L855 115Q855 90 843 90L843 90Q833 90 817 93Q801 96 777 99L777 99L777 83Q838 62 852 21L852 21Q906 40 906 96L906 96L906 512L931 534L887 584L855 553L749 553Q789 578 761 622L761 622Q881 721 909 726L909 726L855 789L824 758L565 758L600 720Q617 722 634 724Q651 726 673 729L673 729L824 729Q805 708 787.50 684Q770 660 752 635ZM758 408L758 527L855 527L855 408L758 408ZM758 263L758 380L855 380L855 263L758 263ZM619 408L619 527L714 527L714 408L619 408ZM619 263L619 380L714 380L714 263L619 263Z"/></svg>