<svg id="U27E8A" viewBox="0 0 1024 1024"><path transform="translate(0, 921.6) scale(1,-1)" d="M917 123L917 123Q855 142 860 303L860 303L842 303Q839 240 839 202L839 202Q839 164 839 148L839 148Q839 115 804 110L804 110L683 110Q641 110 646 205L646 205L646 419Q709 454 762.50 493.50Q816 533 870 576L870 576L907 592L845 655Q821 609 771 558Q721 507 646 444L646 444L646 722L678 759L590 797Q590 716 593 672.50Q596 629 596 617L596 617L596 157Q586 56 668 60L668 60L829 60Q895 69 917 123ZM305 623L142 623L177 592Q195 594 214 596.50Q233 599 253 599L253 599L305 599L305 447L84 447L117 416Q134 418 152.50 420Q171 422 192 422L192 422L318 422L318 79Q297 91 272 111Q247 131 221 154L221 154Q227 181 231.50 213Q236 245 240 283L240 283L262 306L183 344Q187 287 181 235Q175 183 161 126L161 126Q132 7 62-77L62-77L68-86Q180-1 215 123L215 123Q252 83 297.50 50.50Q343 18 397-8L397-8Q506-54 662-62L662-62Q816-65 901-62L901-62Q901-34 961-1L961-1L961 13Q868 0 783.50-3.50Q699-7 624-5L624-5Q548-2 484 11Q420 24 372 54L372 54L372 233L557 233L495 303L448 262L372 262L372 359L394 388L335 422L577 422L513 494L461 447L356 447L356 599L523 599L467 668L413 623L356 623L356 749L385 778L300 813Q304 771 304.50 725.50Q305 680 305 623L305 623Z"/></svg>