<svg id="U2727A" viewBox="0 0 1024 1024"><path transform="translate(0, 921.6) scale(1,-1)" d="M495 476L495 620L639 620L639 476L495 476ZM240 381L205 355L259 303L294 337L935 337L866 403L806 362L294 362L294 620L441 620L441 479L423 463L479 419L498 447L646 447L646 422L696 447Q693 466 693 514L693 514L693 620L930 620L863 692L806 648L693 648L693 728L721 769L637 803Q637 781 638 744.50Q639 708 639 648L639 648L495 648L495 746L520 771L438 807Q440 792 440.50 752Q441 712 441 648L441 648L294 648L294 728L315 753L236 790Q239 773 239.50 738Q240 703 240 648L240 648L88 648L116 611Q165 620 192 620L192 620L240 620L240 381ZM555 211L763 211L763 110L555 110L555 211ZM297 110L297 211L498 211L498 110L297 110ZM498 85L498-11Q221-24 116-20L116-20L151-80Q175-70 341.50-53.50Q508-37 822-17L822-17Q841-31 857.50-42Q874-53 888-67L888-67Q915-94 927-67L927-67Q942-44 920-17L920-17Q897 15 693 72L693 72L687 60Q715 45 740 29Q765 13 794-1L794-1Q749-4 689.50-4.50Q630-5 555-8L555-8L555 85L763 85L763 60L819 75Q814 110 813.50 142Q813 174 813 205L813 205L847 224L785 268L757 239L555 239L555 274L586 303L495 337Q495 311 496.50 285.50Q498 260 498 239L498 239L294 239L240 262Q242 220 242.50 193.50Q243 167 243 151L243 151Q243 134 242.50 105.50Q242 77 240 38L240 38L297 60L297 85L498 85Z"/></svg>