<svg id="U270FA" viewBox="0 0 1024 1024"><path transform="translate(0, 921.6) scale(1,-1)" d="M220 156L220 156L276 175Q273 203 273 220L273 220Q273 238 273 250L273 250L273 417Q289 396 300 378.50Q311 361 317 345L317 345Q329 310 351 335L351 335Q380 358 358 386L358 386Q347 404 273 433L273 433L273 477L405 477L351 543L320 506L273 506L273 600L295 612L220 647Q221 621 221.50 604Q222 587 222 578L222 578L222 506L98 506L122 468Q159 477 210 477L210 477Q160 334 60 222L60 222L70 213Q162 282 222 380L222 380L222 250Q222 233 221.50 208.50Q221 184 220 156ZM399 222L399 222L399 203Q487 188 477 146L477 146Q547 168 547 241L547 241L547 408L600 408L569 335L582 332Q638 394 682 408L682 408L629 461L603 433L550 433Q573 456 547 483L547 483Q619 563 667 563L667 563L623 619L585 591L389 591L428 553Q456 560 503 565L503 565L578 565L531 493Q508 506 488 514.50Q468 523 452 527L452 527L443 515Q500 467 515 433L515 433L351 433L389 396Q426 408 471 408L471 408Q445 360 403.50 317Q362 274 310 234L310 234L320 219Q438 283 497 357L497 357L497 234Q497 216 465 216L465 216Q448 218 430.50 218.50Q413 219 399 222ZM786 474L925 474L875 543L840 502L786 502L786 591L805 619L736 647Q736 618 737.50 601.50Q739 585 739 581L739 581L739 502L632 502L667 465L698 474L720 474Q696 407 659.50 342Q623 277 569 216L569 216L582 203Q664 267 739 386L739 386L739 257Q739 245 737.50 221Q736 197 736 162L736 162L793 197Q787 221 786.50 240Q786 259 786 275L786 275L786 404Q824 361 851.50 325Q879 289 896 260L896 260Q926 196 940 254L940 254Q959 299 915 339L915 339Q891 354 858.50 377Q826 400 786 427L786 427L786 474ZM513 80L452 137L415 105L361 105L361 165L387 185L310 213L310 105L80 105L117 74Q134 76 153.50 78Q173 80 194 80L194 80L307 80Q287-9 98-72L98-72L104-85Q327-41 361 80L361 80L513 80ZM521 105L559 74L591 80L667 80Q667 37 665-4Q663-45 663-88L663-88L723-65Q721-32 720.50 2.50Q720 37 720 80L720 80L963 80L903 146L858 105L720 105L720 140L742 162L663 200Q663 167 665 142Q667 117 667 105L667 105L521 105ZM399 707L358 707L354 761L374 786L289 814Q293 793 298 767.50Q303 742 307 707L307 707L86 707L122 676Q138 680 161 681Q184 682 213 682L213 682L310 682Q313 662 313.50 643Q314 624 314 603L314 603L371 622Q368 638 364.50 652.50Q361 667 361 682L361 682L510 682L452 741L399 707ZM606 688L663 688Q663 667 644 600L644 600L701 603Q706 631 709 652.50Q712 674 717 688L717 688L950 688L884 748L837 717L720 717L729 761L758 782L676 811Q676 789 672 766.50Q668 744 663 717L663 717L528 717L565 682L606 688Z"/></svg>