<svg id="U27FF3" viewBox="0 0 1024 1024"><path transform="translate(0, 921.6) scale(1,-1)" d="M411 710L411 710L443 732L389 792L351 754L181 754L122 789Q126 753 127 708Q128 663 128 606L128 606Q128 549 127 508.50Q126 468 122 442L122 442L176 471L176 496L245 496L245 64L172 42L172 323L197 348L119 401Q121 358 121.50 266Q122 174 122 26L122 26L60 11L101-47L150-21Q225 12 296 42.50Q367 73 433 103L433 103L430 115L295 74L295 298L408 298L361 363L323 323L295 323L295 496L364 496L364 452L415 480Q412 522 411.50 578Q411 634 411 710ZM176 521L176 729L364 729L364 521L176 521ZM629 458L629 612L714 612L714 458L629 458ZM761 458L761 612L846 612L846 458L761 458ZM629 433L629 433L714 433L714 307L626 307Q626 342 627.50 373Q629 404 629 433ZM490 307L500 433L582 433Q582 397 580 366Q578 335 578 307L578 307L490 307ZM761 70L761 70L761 282L881 282Q877 113 868 103L868 103Q855 81 789 99L789 99L789 83Q847 59 852 18L852 18Q902 41 915 70L915 70Q928 100 937 275L937 275L963 298L909 345L878 307L761 307L761 433L846 433L846 401L899 420Q896 453 896 499L896 499Q896 546 896 606L896 606L925 628L875 672L840 638L761 638L761 754L783 779L711 814Q711 783 712.50 738Q714 693 714 638L714 638L629 638L629 761L654 782L578 814Q578 778 580 735Q582 692 582 638L582 638L443 638L477 600Q503 606 547 612L547 612L582 612L582 458L503 458L449 489Q449 466 447 424.50Q445 383 443 323L443 323L411 301L462 250L487 282L575 282Q551 64 367-78L367-78L374-88Q598 37 623 282L623 282L714 282L714 87Q714 56 712.50 13Q711-30 711-85L711-85L764-62Q762-24 761.50 8Q761 40 761 70Z"/></svg>