<svg id="U2792" viewBox="0 0 1000 1000"><path transform="translate(0, 900) scale(1,-1)" d="M500-55L500-55Q415-55 340-23Q265 9 208.50 65.50Q152 122 120 197Q88 272 88 357L88 357Q88 442 120 516.50Q152 591 208.50 648Q265 705 340 737Q415 769 500 769L500 769Q586 769 660.50 737Q735 705 791.50 648Q848 591 880 516.50Q912 442 912 357L912 357Q912 272 880 197Q848 122 791.50 65.50Q735 9 660.50-23Q586-55 500-55ZM502 95L502 95Q682 95 682 374L682 374Q682 619 508 619L508 619Q461 619 423.50 597Q386 575 365 535Q344 495 344 442L344 442Q344 367 385 323.50Q426 280 492 280L492 280Q575 280 609 345L609 345Q607 362 603 376L603 376L620 376Q616 359 609 345L609 345Q609 339 609 331L609 331Q609 237 583 193Q557 149 504 149L504 149Q439 149 430 219L430 219L356 219Q359 162 398.50 128.50Q438 95 502 95ZM506 338L506 338Q465 338 437.50 369Q410 400 410 448L410 448Q410 501 438 533Q466 565 510 565L510 565Q551 565 577.50 533.50Q604 502 604 450L604 450Q604 401 576 369.50Q548 338 506 338Z"/></svg>