<svg id="U27505" viewBox="0 0 1024 1024"><path transform="translate(0, 921.6) scale(1,-1)" d="M136 278L136 548L192 548L192 278L136 278ZM233 278L233 548L290 548L290 278L233 278ZM59 38L59 38L97-26Q114-5 171 23L171 23Q198 34 231 49.50Q264 65 303 79L303 79Q305 58 307 46.50Q309 35 312 29L312 29Q318 15 335 41L335 41Q353 66 353 98L353 98Q353 128 281 221L281 221L271 215Q280 173 287.50 146.50Q295 120 300 105L300 105L233 79L233 252L290 252L290 218L331 243L331 337L331 536L353 558L312 605L290 573L233 573L233 738L262 769L189 807Q191 774 191.50 716Q192 658 192 573L192 573L133 573L94 609Q97 563 97 509L97 509Q97 456 97 398L97 398Q97 338 97 289L97 289Q97 240 94 198L94 198L136 224L136 252L192 252L192 70Q101 38 59 38ZM675 558L769 558L721 624L683 586L675 586L675 653L696 671L655 709L631 681L557 681L557 763L583 784L513 817Q513 779 515 745Q517 711 517 681L517 681L438 681L388 706Q390 675 390.50 645.50Q391 616 391 586L391 586L344 586L369 552L391 558Q391 534 390.50 508Q390 482 388 454L388 454L431 470L431 473L517 473L517 416L429 416L385 442Q387 415 387.50 389.50Q388 364 388 344L388 344Q388 324 387.50 304.50Q387 285 385 265L385 265L429 281L429 293L498 293Q486 264 476.50 243.50Q467 223 461 208L461 208L344 208L369 177Q386 181 403.50 182Q421 183 438 183L438 183L448 183Q434 153 410 123L410 123Q438 114 466.50 103.50Q495 93 526 79L526 79Q469 10 322-45L322-45L325-54Q486-19 574 61L574 61Q611 34 637 10L637 10Q655-2 665 26L665 26Q679 58 598 92L598 92Q613 111 627 132.50Q641 154 659 177L659 177L683 193L649 237L618 208L513 208Q519 222 525.50 233Q532 244 539 252L539 252L557 272L523 293L634 293L634 275L678 290Q675 311 675 336L675 336Q675 362 675 388L675 388L696 410L655 448L634 416L557 416L557 473L634 473L634 460L678 476Q675 499 675 518L675 518Q675 538 675 558L675 558ZM431 653L517 653L517 586L431 586L431 653ZM557 586L557 653L634 653L634 586L557 586ZM431 558L517 558L517 498L431 498L431 558ZM557 498L557 558L634 558L634 498L557 498ZM429 391L517 391L517 319L429 319L429 391ZM557 319L557 391L634 391L634 319L557 319ZM461 136L498 183L611 183Q592 155 578 137Q564 119 557 111L557 111Q534 115 511 120.50Q488 126 461 136L461 136ZM621-57L621-57L624-73Q726-15 806 105L806 105Q827 59 854.50 21.50Q882-16 911-48L911-48Q934-13 965-23L965-23L965-7Q894 21 839 149L839 149Q862 198 882 263Q902 328 924 413L924 413L948 442L911 491L883 460L829 460L829 614L961 614L911 681L873 643L829 643L829 759L857 784L778 820Q778 772 779.50 734.50Q781 697 781 668L781 668L781 460L680 460L703 419L721 435Q740 274 778 155L778 155Q746 89 706.50 37Q667-15 621-57ZM747 435L747 435L876 435Q866 366 848.50 311Q831 256 809 205L809 205Q787 243 772 300.50Q757 358 747 435Z"/></svg>