<svg id="U278B7" viewBox="0 0 1024 1024"><path transform="translate(0, 921.6) scale(1,-1)" d="M315 769L243 813Q239 753 183 646L183 646Q129 521 68 457L68 457L78 450Q121 472 145 510L145 510L145 211Q145 188 139.50 152.50Q134 117 130 75L130 75Q120 30 103-6Q86-42 59-80L59-80L68-86Q188 2 192 221L192 221L416 221L416 44Q416 28 394 28L394 28Q385 28 362.50 29.50Q340 31 309 34L309 34L309 19Q402-4 397-52L397-52Q464-13 464 28L464 28L464 501L495 529L441 576L413 538L328 538Q407 641 444 652L444 652L394 709L359 674L249 674Q258 690 265.50 704.50Q273 719 281 730L281 730Q287 742 296 750.50Q305 759 315 769L315 769ZM192 245L192 365L284 365L284 245L192 245ZM192 394L192 514L284 514L284 394L192 394ZM328 394L328 514L416 514L416 394L328 394ZM328 245L328 365L416 365L416 245L328 245ZM243 648L243 648L359 648L305 538L202 538L183 555Q199 580 213.50 602.50Q228 625 243 648ZM649 630L649 630L637 617Q654 582 665 554Q676 526 680 504L680 504Q691 458 712 463L712 463Q740 463 750 497L750 497Q759 527 734 558L734 558Q720 569 699 587.50Q678 606 649 630ZM696 229L696 229Q667 283 646 330.50Q625 378 614 422L614 422Q599 467 587.50 529Q576 591 564 664L564 664L835 664Q825 583 810.50 513Q796 443 772 388L772 388Q751 328 731 289Q711 250 696 229ZM731 173L731 173Q763 230 790.50 285Q818 340 835 394L835 394Q853 443 868.50 507Q884 571 898 646L898 646L930 668L873 728L835 689L467 689L501 652Q517 656 527 660Q537 664 542 664L542 664Q549 583 558.50 516Q568 449 583 400L583 400Q594 349 615 294.50Q636 240 665 180L665 180Q636 134 602 96Q568 58 533 25L533 25Q495-3 458.50-29.50Q422-56 382-77L382-77L388-86Q495-54 574 3L574 3Q609 33 641.50 64Q674 95 700 126L700 126Q735 72 784.50 24.50Q834-23 898-77L898-77Q916-36 965-26L965-26L965-14Q913-1 850 51L850 51Q817 76 788.50 107Q760 138 731 173Z"/></svg>