<svg id="U2723B" viewBox="0 0 1024 1024"><path transform="translate(0, 921.6) scale(1,-1)" d="M151 291L151 563L233 563L233 291L151 291ZM277 291L277 563L362 563L362 291L277 291ZM369 111L369 111L277 93L277 266L362 266L362 237L413 260Q410 292 410 318L410 318Q410 344 410 360L410 360L410 553L431 568L391 619L356 591L277 591L277 729L312 758L230 805Q232 773 232.50 719.50Q233 666 233 591L233 591L155 591L100 619Q103 573 103 523L103 523Q103 474 103 414L103 414Q103 354 103 305L103 305Q103 257 100 219L100 219L151 244L151 266L233 266L233 83Q109 49 65 49L65 49L97-13Q115 5 192 33L192 33Q234 47 279 62.50Q324 78 372 93L372 93Q381 81 384.50 67Q388 53 391 36L391 36Q395 1 423 33L423 33Q442 67 435 93L435 93Q429 122 335 222L335 222L325 209Q339 176 349 152Q359 128 369 111ZM798 563L798 563L798 710L832 735L775 782L747 748L583 748L526 782Q529 701 525 640.50Q521 580 508 540L508 540Q483 454 407 380L407 380L410 367Q491 422 539 502L539 502Q579 583 583 720L583 720L747 720L747 524Q742 450 819 455L819 455L920 455Q963 455 945 486L945 486Q919 521 898 512L898 512Q884 502 854 502L854 502Q819 502 809 512L809 512Q792 520 798 563ZM557 360L557 360L791 360Q762 284 732 228Q702 172 675 134L675 134Q597 218 557 360ZM530 360L530 360Q555 241 631 105L631 105Q538 3 338-62L338-62L344-78Q553-25 668 64L668 64Q762-30 895-75L895-75Q900-46 958-31L958-31L958-19Q893-9 832 14L832 14Q762 42 706 93L706 93Q746 145 777.50 206Q809 267 839 339L839 339L876 360L822 417L791 386L464 386L492 348Q507 354 530 360Z"/></svg>