<svg id="U278E6" viewBox="0 0 1024 1024"><path transform="translate(0, 921.6) scale(1,-1)" d="M618 810L618 810L611 800Q662 731 680 677L680 677Q696 617 721 668L721 668Q746 699 721 737L721 737Q709 753 683.50 771.50Q658 790 618 810ZM842 640L448 640L476 604Q502 614 574 614L574 614L952 614L895 687L842 640ZM662 529L605 589Q579 529 542.50 476Q506 423 454 378L454 378L464 365Q501 394 543 431.50Q585 469 631 517L631 517L662 529ZM744 576L744 576L740 566Q775 533 800.50 509Q826 485 839 469L839 469Q853 446 862.50 430Q872 414 876 403L876 403Q888 379 904 422L904 422Q924 469 883 501L883 501Q839 536 744 576ZM819 381L819 381L845 403L778 453Q766 377 741.50 309Q717 241 683 183L683 183Q633 269 593 413L593 413L580 406Q598 252 659 139L659 139Q623 81 567.50 29Q512-23 431-74L431-74L435-83Q590-27 687 95L687 95Q729 41 783-0.50Q837-42 901-80L901-80Q915-42 961-33L961-33L961-20Q844-1 719 142L719 142Q747 187 771.50 247.50Q796 308 819 381ZM312 766L243 810Q238 763 183 640L183 640Q125 519 62 450L62 450L65 438Q95 456 113 474.50Q131 493 145 510L145 510Q145 381 144.50 304Q144 227 142 198L142 198Q139 167 135.50 134.50Q132 102 123 69L123 69Q111-5 62-70L62-70L68-83Q188 52 192 211L192 211L277 211Q277 166 276.50 127.50Q276 89 274 54L274 54L328 85Q323 115 322.50 147.50Q322 180 322 211L322 211L410 211L410 13Q410-1 388-1L388-1Q378-1 359 1Q340 3 309 6L309 6L309-8Q391-30 391-74L391-74Q454-49 454-1L454-1L454 501L489 522L431 573L403 535L322 535Q369 603 391 623L391 623Q420 646 438 646L438 646L379 709L353 671L249 671Q258 687 266.50 701.50Q275 716 281 728L281 728Q291 745 312 766L312 766ZM192 239L192 362L277 362L277 239L192 239ZM192 391L192 510L277 510L277 391L192 391ZM322 391L322 510L410 510L410 391L322 391ZM322 239L322 362L410 362L410 239L322 239ZM240 646L240 646L353 646L300 535L199 535L180 551Q196 577 210.50 599.50Q225 622 240 646Z"/></svg>