<svg id="U27E1B" viewBox="0 0 1024 1024"><path transform="translate(0, 921.6) scale(1,-1)" d="M195 707L138 745Q140 694 140.50 625Q141 556 141 468L141 468Q141 377 136.50 300Q132 223 122 159L122 159Q115 90 94.50 33Q74-24 42-78L42-78L55-88Q167 25 182 254L182 254Q192 367 196 473.50Q200 580 198 682L198 682L941 682L875 758L819 707L195 707ZM437 817L437 817L431 805Q494 759 513 729L513 729Q533 701 547 717L547 717Q563 724 563 758L563 758Q559 780 519 795L519 795Q497 800 477 806Q457 812 437 817ZM409 609L437 625L390 679Q367 641 344.50 610Q322 579 298 559L298 559Q274 533 249 510.50Q224 488 198 471L198 471L204 461Q267 481 305 512L305 512L305 427Q305 405 304 383Q303 361 298 335L298 335L352 357L352 550Q385 580 409 609L409 609ZM452 316L452 316L506 339L506 363L910 363L850 414L799 389L686 389L686 430L856 430L799 480L755 455L686 455L686 496L853 496L799 540L758 524L686 524L686 563L881 563L822 609L781 587L510 587L541 622L563 632L510 682Q493 648 478 620Q463 592 447 568L447 568Q430 546 410 524.50Q390 503 368 480L368 480L374 471Q413 488 456 527L456 527Q456 458 454 407Q452 356 452 316ZM506 524L506 563L639 563L639 524L506 524ZM506 455L506 496L639 496L639 455L506 455ZM506 389L506 430L639 430L639 389L506 389ZM607 682L601 669Q621 649 639 633.50Q657 618 663 606L663 606Q672 577 696 591L696 591Q701 597 707.50 603.50Q714 610 714 622L714 622Q714 638 689 650L689 650Q679 654 657 662Q635 670 607 682L607 682ZM368 316L298 332Q303 299 304 261Q305 223 305 181L305 181Q305 143 304 103Q303 63 298 23L298 23L359 36L359 49L752 49L752 33L812 42Q807 59 806.50 76Q806 93 806 111L806 111L806 278L837 298L786 348L752 316L368 316ZM359 291L752 291L752 241L359 241L359 291ZM359 216L752 216L752 162L359 162L359 216ZM359 137L752 137L752 77L359 77L359 137ZM160-75L160-75L160-91Q260-71 334-50.50Q408-30 456-13L456-13L493-13L444 49Q351-26 160-75ZM611 36L604 21Q780-17 837-65L837-65Q893-108 910-69L910-69Q917-23 840 0L840 0Q797 13 740.50 20.50Q684 28 611 36L611 36Z"/></svg>