<svg id="U27851" viewBox="0 0 1024 1024"><path transform="translate(0, 921.6) scale(1,-1)" d="M547 323L547 455L802 455L802 323L547 323ZM497 257L497 257L547 275L547 298L594 298Q583 124 528 55L528 55Q471-23 380-75L380-75L389-88Q513-35 575 42L575 42Q638 123 647 298L647 298L701 298L701 21Q701-54 786-50L786-50L855-50Q931-50 950 2L950 2Q916 5 912 39L912 39Q907 56 906.50 83Q906 110 906 152L906 152L887 152Q884 109 882.50 80Q881 51 881 30L881 30Q876 0 843 0L843 0L802 0Q752 0 752 39L752 39L752 298L802 298L802 263L855 282Q852 310 852 338L852 338Q852 366 852 396L852 396L852 710L878 735L827 782L799 748L550 748L497 782Q497 731 500 666.50Q503 602 503 524L503 524Q503 443 500 377Q497 311 497 257ZM547 619L547 723L802 723L802 619L547 619ZM547 483L547 591L802 591L802 483L547 483ZM220 603L220 603L128 603L73 638Q79 600 79.50 557Q80 514 80 465L80 465Q80 411 79.50 370Q79 329 73 301L73 301L125 323L125 342L377 342L377 307L430 335Q428 361 428 418L428 418Q428 475 428 563L428 563L456 587L402 641L374 603L273 603L273 679L487 679L433 748L389 704L273 704L273 754L292 773L216 814Q219 780 219.50 729.50Q220 679 220 603ZM125 489L125 574L377 574L377 489L125 489ZM125 370L125 465L377 465L377 370L125 370ZM163-25L163-25L374-25Q399-25 414.50-21.50Q430-18 436-16L436-16Q461-9 433 11L433 11Q412 31 395 26L395 26Q387 18 348 18L348 18L204 18Q162 6 166 55L166 55L166 156L436 156L389 219L348 181L166 181L166 257L194 288L117 313Q118 290 118.50 269.50Q119 249 119 226L119 226L119 30Q116-25 163-25Z"/></svg>