<svg id="U2775D" viewBox="0 0 1024 1024"><path transform="translate(0, 921.6) scale(1,-1)" d="M822 111L822 111L815 99Q827 82 840.50 65Q854 48 866 30L866 30Q890-3 910-47L910-47Q926-84 944-47L944-47Q962-3 941 18L941 18Q931 29 916 42.50Q901 56 881 70L881 70Q860 85 845.50 95.50Q831 106 822 111ZM538 226L538 226Q564 196 581 169Q598 142 610 118L610 118Q625 68 645 115L645 115Q653 166 632 188L632 188Q618 201 594 214Q570 227 538 244L538 244L538 326L601 326L601 294L648 313Q645 332 645 379L645 379Q645 426 645 502L645 502L664 524L614 565L598 537L538 537L538 644L676 644L627 713L591 672L538 672L538 741L563 773L494 811Q494 787 495.50 752Q497 717 497 672L497 672L362 672L396 638Q413 640 429 642Q445 644 462 644L462 644L497 644L497 537L437 537L387 563Q391 541 392 506.50Q393 472 393 430L393 430Q393 387 392 351.50Q391 316 387 288L387 288L437 304L437 326L485 326Q441 154 321 18L321 18L327 8Q428 79 497 226L497 226Q497 99 495.50 24.50Q494-50 494-78L494-78L541-60Q538-28 538 43L538 43Q538 114 538 226ZM538 352L538 509L601 509L601 352L538 352ZM437 352L437 509L497 509L497 352L437 352ZM840 656L802 527L727 527L696 553Q712 576 730 602Q748 628 765 656L765 656L840 656ZM796 741L796 741L822 761L755 808Q722 644 655 521L655 521L668 509L686 534Q686 357 682.50 251.50Q679 146 679 111L679 111L730 146L730 502L872 502L872 137L925 165Q922 182 922 211L922 211Q922 240 922 282L922 282L922 499L948 521L900 563L879 527L815 527Q879 655 920 669L920 669L869 717L843 682L771 682Q778 693 783.50 708Q789 723 796 741ZM828 401L828 401L853 424L781 465Q785 386 781 266L781 266Q775 206 764.50 155Q754 104 730 62L730 62Q685-13 598-75L598-75L601-85Q698-42 753 33L753 33Q806 112 815 206L815 206Q820 251 822.50 300Q825 349 828 401ZM283 729L283 729Q263 758 185 805L185 805L179 795Q200 760 214.50 727.50Q229 695 239 669L239 669Q254 609 277 656L277 656Q301 690 283 729ZM314 632L283 597L89 597L123 559Q136 562 153 564Q170 566 188 571L188 571L286 571Q231 429 172 339L172 339Q141 287 111 246Q81 205 51 175L51 175L58 165Q147 225 213 323L213 323L213-82L264-57L264 323Q313 268 327 222L327 222Q350 168 362 209L362 209Q378 237 355 272L355 272Q340 292 296 323L296 323Q356 397 387 408L387 408L339 458Q313 379 280 329L280 329L264 339L264 401Q283 441 300.50 477.50Q318 514 331 556L331 556L355 574L314 632Z"/></svg>