<svg id="U27542" viewBox="0 0 1024 1024"><path transform="translate(0, 921.6) scale(1,-1)" d="M134 280L134 550L198 550L198 280L134 280ZM245 280L245 550L305 550L305 280L245 280ZM54 43L54 43L92-18Q109 0 172 28L172 28Q203 41 239.50 54Q276 67 314 84L314 84Q316 65 320 53Q324 41 327 36L327 36Q333 17 352 46L352 46Q371 68 371 103L371 103Q371 137 293 226L293 226L280 219Q292 179 300 150.50Q308 122 311 106L311 106L245 84L245 254L305 254L305 223L345 251L345 339L345 540L371 563L327 604L305 575L245 575L245 736L270 764L195 802Q197 771 197.50 714Q198 657 198 575L198 575L131 575L87 607Q91 562 91.50 509.50Q92 457 92 399L92 399Q92 339 91.50 291Q91 243 87 203L87 203L134 232L134 254L198 254L198 77Q90 43 54 43ZM755 755L755 755L780 780L705 821Q705 764 708 690Q711 616 714 525L714 525L556 525L509 525L334 525L368 487Q399 491 440 496L440 496L714 496Q721 266 758 118L758 118Q692 15 585-68L585-68L597-75Q642-49 687-13Q732 23 780 74L780 74Q829 3 894-37L894-37Q959-81 947-50L947-50Q931-17 931 12L931 12Q926 59 944 128L944 128L928 134Q919 106 910.50 78Q902 50 890 24L890 24Q852 50 812 115L812 115Q833 172 849.50 220.50Q866 269 878 311L878 311Q896 388 919 399L919 399L853 443Q850 416 843.50 386Q837 356 831 321L831 321Q821 284 809.50 247Q798 210 790 175L790 175Q775 250 766.50 331Q758 412 758 496L758 496L944 496L881 566L837 525L758 525Q755 570 755 626L755 626Q755 683 755 755ZM793 742L793 742L784 736Q812 702 830.50 678Q849 654 859 638L859 638Q876 596 897 622L897 622Q916 644 900 676L900 676Q885 694 793 742ZM566 80L519 74L519 506L471 506L471 399L365 399L396 367Q415 369 432 371Q449 373 468 373L468 373L471 373L471 298L371 298L406 264Q437 273 471 273L471 273L471 198L368 198L402 159Q419 161 436 163.50Q453 166 471 166L471 166L471 62L349 36L383-31Q404-16 435.50-1.50Q467 13 512 28L512 28Q554 41 605.50 58Q657 75 717 97L717 97L714 109L607 87L607 172L723 172L673 232L642 198L607 198L607 270L720 270L667 329L635 295L607 295L607 373L717 373L667 434L638 399L607 399L607 506L566 506L566 80ZM471 758L424 802Q415 771 402 736.50Q389 702 371 660L371 660Q410 601 415 566L415 566Q428 530 443 540L443 540Q462 553 462 581L462 581Q462 613 390 660L390 660Q446 743 471 758L471 758ZM585 755L538 799Q530 776 513.50 741Q497 706 471 660L471 660Q516 612 525 573L525 573Q535 531 556 547L556 547Q570 566 566 591L566 591Q561 619 494 660L494 660Q555 738 585 755L585 755ZM683 745L642 792Q621 739 582 657L582 657Q602 623 616.50 599Q631 575 638 560L638 560Q654 520 664 550L664 550Q682 577 667 604L667 604Q664 615 646 626.50Q628 638 601 657L601 657Q659 735 683 745L683 745Z"/></svg>