<svg id="U27E04" viewBox="0 0 1024 1024"><path transform="translate(0, 921.6) scale(1,-1)" d="M914 378L935 396L866 444Q866 383 794 208L794 208Q760 334 760 479L760 479L965 479L904 551L857 504L760 504Q757 546 757 608L757 608Q757 671 757 749L757 749L781 774L703 810Q703 768 703 729L703 729Q703 690 706 648L706 648Q706 605 707.50 568.50Q709 532 709 504L709 504L564 504L564 630L680 630L631 692L593 655L564 655L564 749L590 771L513 807Q516 787 516.50 749.50Q517 712 517 655L517 655L413 655L448 620Q477 630 517 630L517 630L517 504L366 504L400 473Q419 475 436.50 477Q454 479 472 479L472 479L709 479Q714 388 725 307Q736 226 760 151L760 151Q680 14 580-67L580-67L586-80Q692-18 778 95L778 95Q795 57 812.50 27Q830-3 854-23L854-23Q875-42 895.50-56Q916-70 932-80L932-80Q967-89 958-67L958-67Q953-53 949.50-34Q946-15 942 10L942 10Q932 57 932 151L932 151L920 151Q915 94 909.50 57.50Q904 21 904 3L904 3Q854 19 813 145L813 145Q839 202 864.50 258.50Q890 315 914 378L914 378ZM806 743L806 743L801 730Q819 697 832 669Q845 641 847 617L847 617Q862 571 876 576L876 576Q894 576 904 604L904 604Q917 622 898 658L898 658Q875 691 806 743ZM485 479L482 469Q524 399 530 362L530 362L369 362L407 324Q423 326 440 330Q457 334 476 337L476 337L498 337Q474 264 437.50 204Q401 144 356 95L356 95L366 85Q396 105 420 128Q444 151 464 173L464 173L464 31L438 6L482-39Q509 0 540.50 33.50Q572 67 605 101L605 101L598 110L508 51L508 242Q597 162 627 104L627 104Q660 41 678 82L678 82Q687 125 665 147L665 147Q653 162 636.50 176Q620 190 602 208L602 208Q617 229 668 258L668 258L690 268L646 321Q615 256 583 221L583 221Q554 231 513 262L513 262Q520 275 530 294Q540 313 555 337L555 337L724 337L678 399L639 362L552 362Q607 435 485 479L485 479ZM359 365L359 365L359 696L388 721L338 769L309 730L145 730L84 766Q87 720 87.50 646Q88 572 88 469L88 469Q88 361 87.50 286.50Q87 212 84 164L84 164L136 186L136 224L312 224L312 173L366 205Q360 262 359.50 302Q359 342 359 365ZM312 538L312 416L136 416L136 538L312 538ZM312 388L312 249L136 249L136 388L312 388ZM192 104L221 132L161 180Q128 52 59-64L59-64L62-80Q94-38 125.50 5.50Q157 49 192 104L192 104ZM271 154L271 154L268 145Q292 103 309 71.50Q326 40 338 10L338 10Q363-40 382-1L382-1Q400 42 359 85L359 85Q341 104 318 120.50Q295 137 271 154ZM312 705L312 566L136 566L136 705L312 705Z"/></svg>