<svg id="U2795F" viewBox="0 0 1024 1024"><path transform="translate(0, 921.6) scale(1,-1)" d="M212 222L400 222L400 46L212 46L212 222ZM215 247L151 282Q154 234 154.50 189.50Q155 145 155 103L155 103Q155 49 154.50 4.50Q154-40 151-85L151-85L212-57L212 21L400 21L400-65L461-37Q455-7 454.50 17.50Q454 42 454 70L454 70L454 206L489 229L431 291L394 247L215 247ZM221 811L221 811L215 802Q271 727 287 672L287 672Q298 615 338 682L338 682Q386 740 221 811ZM388 632L72 632L103 597Q123 604 142 605Q161 606 180 606L180 606L530 606L451 685L388 632ZM385 512L117 512L151 477Q170 483 192 484.50Q214 486 233 486L233 486L498 486L431 550L385 512ZM382 380L123 380L155 345Q173 352 195.50 353Q218 354 236 354L236 354L492 354L429 420L382 380ZM920 650L920 650L952 669L895 726L857 685L501 685L539 650Q555 652 572 653Q589 654 608 660L608 660L870 660Q862 519 858.50 416Q855 313 850 241L850 241Q847 169 839 124Q831 79 822 59L822 59Q802 9 775 5L775 5Q738 1 608 26L608 26L608 11Q714-18 740-85L740-85Q881-41 895 108L895 108Q904 190 909.50 324Q915 458 920 650Z"/></svg>