<svg id="U27D4A" viewBox="0 0 1024 1024"><path transform="translate(0, 921.6) scale(1,-1)" d="M429 372L429 372L429 699L461 722L407 778L372 740L158 740L100 771Q103 726 103 652L103 652Q103 579 103 473L103 473Q103 367 103 289L103 289Q103 211 100 160L100 160L151 183L151 224L382 224L382 170L431 205Q429 262 429 302L429 302Q429 343 429 372ZM382 548L382 419L151 419L151 548L382 548ZM382 394L382 252L151 252L151 394L382 394ZM230 104L268 129L205 183Q179 113 143 53.50Q107-6 59-64L59-64L62-74Q104-38 145.50 4.50Q187 47 230 104L230 104ZM331 154L331 154L325 142Q381 59 403 3L403 3Q430-52 451-11L451-11Q473 35 429 72L429 72Q409 96 384 115.50Q359 135 331 154ZM382 712L382 573L151 573L151 712L382 712ZM596 41L596 299L794 299L794 41L596 41ZM794 689L794 689L794 576L596 576L596 740L621 769L539 807Q539 772 540.50 743Q542 714 542 692L542 692L542 576L429 576L464 535L489 551L542 551L542 72Q542 30 540.50-7.50Q539-45 539-83L539-83L596-55L596 13L794 13L794-74L850-49Q847-1 847 32L847 32Q847 65 847 85L847 85L847 551L965 551L898 623L857 576L847 576L847 743L873 771L791 810Q791 778 792.50 748Q794 718 794 689ZM596 324L596 551L794 551L794 324L596 324Z"/></svg>