<svg id="U27DC4" viewBox="0 0 1024 1024"><path transform="translate(0, 921.6) scale(1,-1)" d="M364 590L364 634L484 634L484 590L364 590ZM204 518L204 562L317 562L317 518L204 518ZM364 518L364 562L484 562L484 518L364 518ZM317 726L317 726L96 726L131 690Q147 692 167 693Q187 694 207 697L207 697L317 697L317 659L207 659L150 678Q152 651 152.50 625Q153 599 153 570L153 570Q153 542 152.50 516.50Q152 491 150 473L150 473L204 482L204 492L317 492L317 448L63 448L98 416Q121 420 141.50 421.50Q162 423 179 423L179 423L317 423Q317 411 316.50 393Q316 375 314 348L314 348L367 363Q364 379 364 395L364 395Q364 411 364 423L364 423L606 423L554 479L510 448L364 448L364 492L484 492L484 473L537 492Q534 518 534 553L534 553Q534 588 534 631L534 631L559 644L513 688L480 659L364 659L364 697L575 697L531 754L490 726L364 726L364 757L395 778L310 811Q315 784 316 763.50Q317 743 317 726ZM204 590L204 634L317 634L317 590L204 590ZM515 363L518 351Q590 369 645 395.50Q700 422 742 464L742 464Q774 431 812.50 402.50Q851 374 893 351L893 351Q907 393 960 389L960 389L960 404Q851 431 777 508L777 508Q825 578 852 700L852 700L887 729L834 778L796 741L569 741L606 700L635 716Q661 579 711 505L711 505Q655 431 515 363L515 363ZM657 716L796 716Q791 628 742 546L742 546Q680 621 657 716L657 716ZM197 29L197 29L257 42L257 58L736 58L736 38L796 61L793 164L793 313L824 328L767 382L729 348L261 348L194 369Q198 348 199 325.50Q200 303 200 284L200 284L200 136Q200 107 199.50 82.50Q199 58 197 29ZM257 322L736 322L736 262L257 262L257 322ZM736 233L736 174L257 174L257 233L736 233ZM257 148L736 148L736 86L257 86L257 148ZM606 42L606 42L600 35Q688 5 745-21Q802-47 830-66L830-66Q881-107 881-48L881-48Q881 7 606 42ZM70-66L70-66L76-82Q170-63 245-43.50Q320-24 380-10L380-10L424-7L377 51Q269-10 70-66Z"/></svg>