<svg id="U27CF2" viewBox="0 0 1024 1024"><path transform="translate(0, 921.6) scale(1,-1)" d="M624 354L598 266L501 266L444 291Q444 260 446 221Q448 182 448 131L448 131Q448 77 446 26Q444-25 444-88L444-88L498-54L498 237L590 237L590-34L634-3L634 237L716 237L716-13L760 14L760 237L854 237L854 21Q854-2 835-6L835-6Q825-6 807-4Q789-2 765 0L765 0L765-16Q832-29 832-82L832-82Q865-68 888-41L888-41Q907-19 907 14L907 14L907 229L939 247L876 298L845 266L618 266L687 354L961 354L901 427L847 383L394 383L426 348Q465 354 498 354L498 354L624 354ZM536 625L536 720L924 720L866 789L813 745L536 745L479 776Q479 743 480.50 719.50Q482 696 482 685L482 685L482 509L454 486L501 433L533 465L942 465L888 530L832 489L536 489L536 600L891 600L832 666L778 625L536 625ZM382 754L328 814Q280 757 205 697L205 697Q170 668 134.50 645Q99 622 62 606L62 606L62 597Q100 602 161 628L161 628Q186 555 192 518L192 518Q196 479 221 502L221 502Q229 514 235.50 525Q242 536 240 556L240 556Q227 586 177 638L177 638Q191 645 208 654.50Q225 664 240 676L240 676Q282 612 287 584L287 584Q291 543 318 574L318 574Q337 593 322 625L322 625Q301 653 259 685L259 685Q305 720 336 735.50Q367 751 382 754L382 754ZM448 578L400 644Q378 607 284 527L284 527Q233 485 180 452Q127 419 72 393L72 393L75 383Q130 392 180 415Q230 438 281 471L281 471Q285 461 290.50 449.50Q296 438 303 424L303 424Q205 301 75 229L75 229L78 213Q156 245 217.50 285Q279 325 325 373L325 373Q329 358 335 342Q341 326 344 311L344 311Q252 168 75 62L75 62L75 46Q156 81 228.50 129.50Q301 178 359 247L359 247Q364 193 362 155.50Q360 118 356 90L356 90Q338 25 309 11L309 11Q278-6 186 21L186 21L186 5Q280-29 268-78L268-78Q353-49 385 14L385 14Q421 78 416 188L416 188Q405 302 382 352L382 352Q357 407 300 483L300 483Q323 500 345.50 515.50Q368 531 388 546L388 546Q425 578 448 578L448 578Z"/></svg>