<svg id="U27599" viewBox="0 0 1024 1024"><path transform="translate(0, 921.6) scale(1,-1)" d="M836 774L490 774L528 740Q544 742 562 744Q580 746 603 746L603 746L672 746Q666 716 644 684L644 684L597 684L549 705Q549 674 551 624Q553 574 553 507L553 507Q553 438 551 395.50Q549 353 549 337L549 337L603 350L603 358L827 358L827 343L880 358Q877 374 877 460L877 460L877 646L899 664L855 708L827 684L667 684Q682 701 698 718.50Q714 736 729 746L729 746L940 746L887 813L836 774ZM603 589L603 658L827 658L827 589L603 589ZM603 488L603 563L827 563L827 488L603 488ZM603 387L603 463L827 463L827 387L603 387ZM130 579L184 589L184 598L418 598L418 582L471 598Q468 614 468 648L468 648Q468 683 468 740L468 740L493 756L449 810L418 774L184 774L130 790Q135 764 136 736Q137 708 137 680L137 680Q137 651 136 625.50Q135 600 130 579L130 579ZM184 699L184 746L418 746L418 699L184 699ZM204 610L204 610Q190 572 150 532L150 532Q120 496 92 491L92 491L106 440Q125 448 147.50 454.50Q170 461 197 466L197 466Q120 372 86 365L86 365L101 314Q161 346 241 358L241 358Q241 355 248 330L248 330Q255 314 273 330L273 330Q287 351 279 371L279 371Q274 392 225 440L225 440L219 432Q235 393 235 378L235 378Q206 373 183 370.50Q160 368 143 368L143 368Q173 396 197 418.50Q221 441 238 463L238 463Q256 479 271.50 493.50Q287 508 301 520L301 520L260 561Q251 543 240.50 525Q230 507 216 491L216 491Q195 488 175 488L175 488Q156 488 137 488L137 488Q179 521 206 541.50Q233 562 245 566L245 566L204 610ZM374 604L374 604Q374 595 365 581.50Q356 568 342 545L342 545Q313 497 279 488L279 488L294 447Q316 460 395 469L395 469Q325 394 292 387L292 387L310 337Q330 347 366 358.50Q402 370 456 384L456 384Q456 365 468 343L468 343Q472 324 490 350L490 350Q500 375 490 394L490 394Q477 414 430 453L430 453L420 447Q427 433 432 420.50Q437 408 443 396L443 396Q425 393 345 387L345 387Q377 415 401 436Q425 457 443 472L443 472Q463 486 476.50 498Q490 510 500 520L500 520L468 561Q449 536 437 519.50Q425 503 412 491L412 491Q397 491 374 489.50Q351 488 323 488L323 488Q401 560 420 566L420 566L374 604ZM184 623L184 674L418 674L418 623L184 623ZM147 314L147 314L137 314Q117 269 83 242L83 242Q46 212 80 208L80 208Q101 194 127 232L127 232Q151 267 147 314ZM200 324L200 324L188 314Q204 288 215 268Q226 248 229 229L229 229Q243 194 263 220L263 220Q290 242 273 268L273 268Q251 290 200 324ZM301 330L301 330L294 324Q311 301 322 279.50Q333 258 338 239L338 239Q354 206 371 229L371 229Q384 250 371 277L371 277Q356 295 301 330ZM389 334L389 334L379 330Q425 273 433 252L433 252Q443 220 461 239L461 239Q482 260 468 289L468 289Q451 310 389 334ZM704 312L644 355Q615 293 538 214L538 214L546 208Q583 217 669 296L669 296L704 312ZM764 350L764 350L757 337Q790 306 810.50 279.50Q831 253 842 232L842 232Q867 195 880 208L880 208Q895 221 899 249L899 249Q906 270 868 296L868 296Q848 310 822 322.50Q796 335 764 350ZM528 160L745 160L745 85L528 85L528 160ZM260 85L260 160L474 160L474 85L260 85ZM474 60L474-20Q332-22 231-26Q130-30 73-30L73-30L109-80Q129-75 179.50-70Q230-65 314-62L314-62Q393-59 515-51.50Q637-44 801-30L801-30Q828-44 847-54.50Q866-65 880-77L880-77Q912-100 921-74L921-74Q929-53 916-23L916-23Q891 2 675 54L675 54L669 41Q695 28 721.50 14.50Q748 1 777-11L777-11Q734-13 670.50-15.50Q607-18 528-18L528-18L528 60L745 60L745 41L798 54L798 151L827 173L777 220L745 188L528 188L528 217L549 239L474 273L474 188L263 188L207 214L207 21L260 41L260 60L474 60Z"/></svg>