<svg id="U2707D" viewBox="0 0 1024 1024"><path transform="translate(0, 921.6) scale(1,-1)" d="M423 587L423 587L417 574Q470 539 484 506L484 506Q497 477 517 487L517 487Q533 503 533 519L533 519Q538 534 513 551L513 551Q496 567 423 587ZM829 484L639 484L639 568L665 590L581 629Q581 607 582.50 584.50Q584 562 584 545L584 545L584 484L320 484L355 449Q376 453 397.50 454Q419 455 439 455L439 455L584 455L584 355L581 316L642 335Q641 342 640 358Q639 374 639 400L639 400L639 455L920 455L865 519L829 484ZM439 251L439 251L533 251Q504 162 442 106L442 106Q384 54 317 23L317 23L320 10Q406 29 478 84L478 84Q512 112 539.50 152Q567 192 584 251L584 251L613 268L562 306L536 281L446 281L475 313L500 322L436 364Q422 335 405 303Q388 271 365 234L365 234Q325 166 288 132L288 132L297 122Q359 166 388 203L388 203Q413 150 417 135L417 135Q422 112 433 122L433 122Q450 129 455 145L455 145Q468 158 452 174L452 174Q444 181 432 191Q420 201 404 216L404 216Q413 225 420.50 234.50Q428 244 439 251ZM610 145L610 145L584 129L636 97L658 106L742 106Q742 64 740.50 33Q739 2 739-20L739-20L797-5Q794 16 794 43L794 43Q794 71 794 106L794 106L942 106L881 168L839 132L794 132L794 248L920 248L862 306L823 274L794 274L794 306L823 329L739 361Q739 341 740.50 319.50Q742 298 742 274L742 274L620 274L658 234L700 248L742 248L742 132L658 132Q667 178 675.50 208Q684 238 697 251L697 251L642 261Q637 238 628 210Q619 182 610 145ZM385 709L341 709L339 771L358 803L271 829Q276 809 280 779Q284 749 288 709L288 709L64 709L102 674Q117 681 140.50 682.50Q164 684 194 684L194 684L294 684Q296 665 296.50 643Q297 621 297 600L297 600L355 618Q352 636 349 652.50Q346 669 346 684L346 684L497 684L439 751L385 709ZM597 690L655 690Q655 682 649 658Q643 634 636 593L636 593L694 600Q698 631 701.50 653Q705 675 710 690L710 690L949 690L881 761L833 719L713 719L723 771L752 800L665 826Q665 803 662.50 776Q660 749 655 719L655 719L517 719L556 684L597 690ZM155 618L146 603Q187 546 204 490L204 490Q222 443 239 468L239 468Q259 491 259 513L259 513Q259 535 236 555L236 555Q228 564 208 580Q188 596 155 618L155 618ZM962-20L962-20L962-1Q896-10 821-17Q746-24 658-24L658-24Q572-24 505-20.50Q438-17 388-8L388-8Q297 7 226 48L226 48Q231 61 245 94.50Q259 128 284 184L284 184L320 206L278 255L242 232L175 232L259 355L294 371L252 426L217 400L61 400L99 361L139 371L207 371Q187 337 173 311.50Q159 286 152 274L152 274Q139 261 126.50 251.50Q114 242 102 234L102 234L136 181L162 206L239 206Q234 189 225 167.50Q216 146 204 116L204 116Q192 92 182 71.50Q172 51 159 42L159 42Q97-11 77-40L77-40L120-85Q138-47 200 26L200 26Q239 0 282-19Q325-38 381-53L381-53Q436-67 563.50-75.50Q691-84 900-82L900-82Q900-30 962-20ZM865 387L865 387Q847 398 800.50 413Q754 428 678 445L678 445L671 429Q736 395 779 369Q822 343 842 329L842 329Q881 296 891 332L891 332Q900 364 865 387ZM833 580L833 580L775 626Q758 594 737.50 562.50Q717 531 694 500L694 500L700 490Q735 524 768 546Q801 568 833 580ZM491 461L491 461Q454 418 407.50 383.50Q361 349 304 316L304 316L317 306Q375 328 420 349.50Q465 371 500 393L500 393L539 403L491 461Z"/></svg>