<svg id="U27E76" viewBox="0 0 1024 1024"><path transform="translate(0, 921.6) scale(1,-1)" d="M810 335L810 335L804 326Q820 309 834.50 289Q849 269 864 250L864 250L587 234Q641 265 690.50 293Q740 321 775 348L775 348Q847 396 888 396L888 396L832 461Q812 429 750 383L750 383L567 376Q686 468 731 468L731 468L690 499L867 499L867 465L921 486Q918 515 917.50 572Q917 629 917 720L917 720L942 745L888 792L864 758L558 758L499 789Q499 751 500.50 709Q502 667 502 619L502 619Q502 571 500.50 530.50Q499 490 499 455L499 455L555 474L555 499L665 499Q630 460 590 430L590 430Q544 397 511 389L511 389L543 323Q560 332 607.50 343Q655 354 731 363L731 363Q710 345 678 325Q646 305 608 278L608 278Q519 231 489 231L489 231L523 156Q558 187 687 206L687 206L687 36Q687 0 659 0L659 0Q644 0 622 1Q600 2 567 5L567 5L567-6Q662-29 672-88L672-88Q741-60 741 5L741 5L741 213L873 231Q880 214 887 199.50Q894 185 901 168L901 168Q914 133 930 159L930 159Q945 187 945 213L945 213Q945 241 905 272L905 272Q886 288 862 303Q838 318 810 335ZM555 638L555 732L684 732L684 638L555 638ZM728 638L728 732L867 732L867 638L728 638ZM555 524L555 609L684 609L684 524L555 524ZM728 524L728 609L867 609L867 524L728 524ZM634 99L577 159Q548 92 489 33L489 33Q456 3 434-16.50Q412-36 397-44L397-44L404-60Q477-20 608 93L608 93L634 99ZM766 172L766 172L763 159Q783 140 804 120.50Q825 101 845 77L845 77Q861 54 876.50 32Q892 10 905-13L905-13Q926-44 942-6L942-6Q960 35 924 74L924 74Q887 108 766 172ZM397 332L397 332L385 326Q432 216 441 159L441 159Q455 102 473 131L473 131Q497 159 482 193L482 193Q477 212 454.50 246.50Q432 281 397 332ZM189 108L189 108L189 105Q173 63 145 18Q117-27 75-75L75-75L85-82Q130-48 164-8Q198 32 224 80L224 80Q278 180 278 427L278 427L335 427L335 39Q335-6 309-6L309-6Q300-3 279.50-1.50Q259 0 230 5L230 5L230-6Q309-34 309-78L309-78Q349-65 366-41L366-41Q382-16 382 2L382 2L382 427L502 427L451 493L404 452L325 452L325 609L476 609L423 672L379 638L325 638L325 741L353 776L274 814Q277 780 277.50 745.50Q278 711 278 679L278 679L278 638L133 638L168 603Q205 609 240 609L240 609L278 609L278 452L97 452L130 414Q144 418 162 421Q180 424 202 427L202 427L227 427Q227 309 218.50 228.50Q210 148 189 108ZM85 96L85 96L94 90Q118 127 135.50 162.50Q153 198 168 222L168 222Q197 281 218 298L218 298L158 335Q148 284 131.50 224.50Q115 165 85 96Z"/></svg>