<svg id="U270A7" viewBox="0 0 1024 1024"><path transform="translate(0, 921.6) scale(1,-1)" d="M222 13L222 13Q219 57 223 91.50Q227 126 242 158L242 158Q257 188 290.50 264Q324 340 380 464L380 464L364 474Q214 176 190 168L190 168Q174 149 60 177L60 177L60 155Q154 128 161 100L161 100Q166 63 155 39L155 39Q139 10 168-27L168-27Q181-46 192.50-56Q204-66 216-66L216-66Q227-66 222 13ZM82 438L79 419Q115 392 139 365.50Q163 339 177 313L177 313Q208 249 226 319L226 319Q248 387 82 438L82 438ZM161 609L148 593Q230 532 245 487L245 487Q269 435 301 493L301 493Q333 552 161 609L161 609ZM419 271L419 355L526 355L526 271L419 271ZM422 410L422 410L477 426L477 568L800 568L800 419L854 438L854 571L877 590L819 629L787 593L487 593L422 626Q425 596 425.50 568Q426 540 426 516L426 516Q426 493 425.50 465.50Q425 438 422 410ZM906 355L906 355L935 374L877 413L851 381L422 381L368 410L368 310L368 216L419 229L419 245L858 245L858 226L913 239Q907 255 906.50 284Q906 313 906 355ZM577 271L577 355L693 355L693 271L577 271ZM742 271L742 355L858 355L858 271L742 271ZM564 248L555 239Q615 194 626 174L626 174Q634 150 661 174L661 174Q684 196 667 216L667 216Q659 224 633 232.50Q607 241 564 248L564 248ZM580 135L580 135L964 135L903 197L871 161L306 161L345 129Q362 131 383 133Q404 135 426 135L426 135L519 135Q495 6 297-63L297-63L303-79Q509-23 548 68L548 68L816 68Q787-4 774-11L774-11Q766-16 758-19Q750-22 742-24L742-24Q728-24 700-21Q672-18 626-11L626-11L626-30Q652-35 668-40Q684-45 693-50L693-50Q716-64 716-85L716-85Q745-82 767-73.50Q789-65 806-56L806-56Q839-31 874 68L874 68L900 77L845 126L816 93L564 93Q566 106 570.50 114.50Q575 123 580 135ZM514 674L461 748L416 703L368 703L368 774L400 793L310 829Q314 805 315 774Q316 743 316 703L316 703L102 703L139 668Q157 670 177 670.50Q197 671 219 674L219 674L316 674Q316 652 315 631Q314 610 310 593L310 593L374 609Q369 626 368.50 642.50Q368 659 368 674L368 674L514 674ZM526 709L555 671Q569 675 583.50 679.50Q598 684 613 684L613 684L655 684Q655 672 653 649.50Q651 627 651 597L651 597L713 618Q707 640 706.50 656Q706 672 706 684L706 684L951 684L893 748L851 709L706 709L706 767L738 790L648 826Q648 801 651.50 772.50Q655 744 655 709L655 709L526 709ZM680 529L522 529L545 493Q545 500 587 500L587 500L761 500L716 558L680 529ZM685 455L526 455L548 419Q548 429 593 429L593 429L764 429L722 487L685 455Z"/></svg>