<svg id="U27B62" viewBox="0 0 1024 1024"><path transform="translate(0, 921.6) scale(1,-1)" d="M544 440L544 517L770 517L770 440L544 440ZM544 416L770 416L770 396L821 416Q818 437 818 460L818 460Q818 483 818 510L818 510L843 529L799 570L770 545L547 545L490 566Q490 545 491.50 523Q493 501 493 476L493 476Q493 449 491.50 427Q490 405 490 384L490 384L544 403L544 416ZM446 771L446 771L440 762Q488 705 510 655L510 655Q522 612 547 646L547 646Q560 677 544 709L544 709Q529 729 446 771ZM635 725L635 614L433 614L433 652L418 648Q406 582 380 551L380 551Q348 510 387 510L387 510Q415 506 430 529L430 529Q434 541 435 556Q436 571 436 589L436 589L875 589L852 507L862 501Q891 551 912 566L912 566Q921 571 933 579Q945 587 960 592L960 592L903 648L875 614L780 614Q794 630 809.50 649.50Q825 669 840 687L840 687Q856 700 870.50 712Q885 724 896 730L896 730L834 781Q822 745 804 703.50Q786 662 758 614L758 614L685 614L685 749L717 778L632 810Q632 788 633.50 766.50Q635 745 635 725L635 725ZM808 337L808 277L510 277L510 337L808 337ZM808 249L808 183L510 183L510 249L808 249ZM808 157L808 104L510 104L510 157L808 157ZM717 63L717 63L711 47Q861-27 887-62L887-62Q920-90 925-55L925-55Q934-17 903-1L903-1Q867 21 717 63ZM610 13L562 72Q528 36 476 0.50Q424-35 354-70L354-70L358-83Q418-62 471-39Q524-16 575 13L575 13L610 13ZM515 362L456 394Q458 358 458.50 317.50Q459 277 459 229L459 229Q459 184 458.50 138Q458 92 456 44L456 44L510 69L510 79L808 79L808 54L862 72Q859 96 858.50 118.50Q858 141 858 167L858 167L858 327L884 353L837 400L802 362L515 362ZM169 787L163 781Q210 697 225 614L225 614L63 614L98 579Q127 589 166 589L166 589L411 589L358 661L314 614L251 614Q286 658 257 702L257 702Q242 721 221.50 743.50Q201 766 169 787L169 787ZM159 34L159 195L292 195L292 34L159 34ZM257 481L104 481L128 450Q146 455 163.50 456Q181 457 200 457L200 457L358 457L298 520L257 481ZM257 347L111 347L138 314Q151 319 169 320Q187 321 207 321L207 321L358 321L298 384L257 347ZM339 82L339 186L361 208L314 258L285 221L163 221L108 258Q111 215 111 174L111 174Q111 134 111 91L111 91Q111 53 111 15L111 15Q111-22 108-64L108-64L159-36L159 10L292 10L292-36L343-14Q340 13 339.50 37Q339 61 339 82L339 82Z"/></svg>