<svg id="U272D4" viewBox="0 0 1024 1024"><path transform="translate(0, 921.6) scale(1,-1)" d="M704 778L191 778L222 740Q243 742 261 744Q279 746 298 749L298 749L484 749L484 630L104 630L138 595Q168 604 210 604L210 604L915 604L855 671L802 630L534 630L534 749L814 749L758 813L704 778ZM619 457L619 457Q561 494 534 535L534 535L534 555L559 579L480 604Q480 573 482 552Q484 531 484 522L484 522L484 368Q478 347 456 347L456 347Q446 347 423.50 347.50Q401 348 374 353L374 353L374 337Q454 321 474 280L474 280Q534 296 534 353L534 353L534 507Q567 448 644 388L644 388Q715 332 878 290L878 290Q887 322 960 334L960 334L960 350Q930 350 891.50 354.50Q853 359 799 372L799 372Q748 384 706.50 401Q665 418 635 447L635 447Q793 501 852 507L852 507L799 566Q775 543 730 517.50Q685 492 619 457ZM364 514L138 514L172 481Q192 485 209 486.50Q226 488 241 488L241 488L354 488Q302 406 228 355L228 355Q190 327 149 307Q108 287 63 271L63 271L67 255Q212 293 285 350L285 350Q351 392 415 481L415 481L446 497L392 548L364 514ZM534 192L534 183L541 183L736 183L736 88L534 88L534 192ZM289 88L289 183L484 183L484 88L289 88ZM484 63L484-14Q237-18 138-26L138-26L169-86Q192-77 350-61Q508-45 799-26L799-26Q815-33 834-44.50Q853-56 868-70L868-70Q896-95 903-67L903-67Q910-36 881-11L881-11Q847 10 676 57L676 57L667 44Q690 32 715.50 18.50Q741 5 767-8L767-8Q729-10 670.50-10.50Q612-11 534-14L534-14L534 63L736 63L736 47L796 63Q793 81 793 99L793 99Q793 117 793 132L793 132L793 177L818 195L764 239L736 211L534 211L534 239L559 265L480 299Q480 271 482 249.50Q484 228 484 211L484 211L289 211L228 233Q231 207 231.50 181Q232 155 232 132L232 132Q232 104 231.50 77.50Q231 51 228 25L228 25L289 44L289 63L484 63Z"/></svg>