<svg id="U27F7A" viewBox="0 0 1024 1024"><path transform="translate(0, 921.6) scale(1,-1)" d="M501 589L501 589L505 573Q530 577 549.50 581Q569 585 586 592L586 592L586 473L489 473L517 438Q556 447 580 447L580 447Q552 286 448 113L448 113L457 107Q502 152 533 198Q564 244 586 290L586 290L586 113Q586 99 584.50 75Q583 51 583 16L583 16L637 38Q634 65 634 89L634 89Q634 114 634 136L634 136L634 365Q655 335 668 283L668 283Q677 230 696 268L696 268Q721 308 700 331L700 331Q683 355 634 394L634 394L634 447L716 447L675 504L639 476L634 476L634 607Q654 612 677 620Q700 628 721 633L721 633L678 689Q654 667 630 652Q606 637 583 627L583 627Q563 615 541 604Q519 593 501 589ZM498 725L498 725L952 725L901 790L847 749L495 749L444 784Q447 727 447.50 665.50Q448 604 448 532L448 532Q448 460 443.50 394.50Q439 329 429 268L429 268Q422 205 402 148.50Q382 92 353 38L353 38L366 31Q403 76 425.50 119.50Q448 163 461 208L461 208Q474 250 480 291.50Q486 333 489 375L489 375Q498 448 498 725ZM709 579L709 579L712 563Q738 571 760 579Q782 587 801 595L801 595L801 476L709 476L740 440Q759 443 770.50 445Q782 447 794 447L794 447Q759 295 659 136L659 136L672 129Q750 213 801 309L801 309Q801 249 799.50 183Q798 117 798 44L798 44L850 69Q847 123 847 199L847 199Q847 275 847 375L847 375Q861 346 873 323Q885 300 891 283L891 283Q898 264 903 249.50Q908 235 914 224L914 224Q926 205 945 239L945 239Q960 275 932 312L932 312Q916 332 896 354Q876 376 847 400L847 400L847 447L952 447L907 510L870 476L847 476L847 611Q866 617 887 624Q908 631 930 636L930 636L883 696Q861 675 841 657Q821 639 801 630L801 630Q779 618 755.50 604.50Q732 591 709 579ZM246 630L117 630L145 595Q176 602 208 602L208 602L246 602L246 453L75 453L106 419Q134 425 158 425L158 425L262 425L262 368L262 303L262 85Q216 113 186 154L186 154Q190 189 193.50 222.50Q197 256 202 290L202 290L221 318L151 350Q151 235 130 132L130 132Q120 76 102.50 26Q85-24 59-70L59-70L72-83Q148 19 174 132L174 132Q233 48 328-5L328-5Q376-30 427.50-46Q479-62 542-64L542-64Q659-69 907-64L907-64Q913-20 965-8L965-8L965 6Q803-6 690-11.50Q577-17 513-8L513-8Q379 4 309 57L309 57L309 242L426 242L379 306L341 268L309 268L309 375L328 396L271 425L444 425L391 491L350 453L294 453L294 602L420 602L372 668L331 630L294 630L294 743L312 771L243 810Q245 771 245.50 726.50Q246 682 246 630L246 630Z"/></svg>