<svg id="U27EE5" viewBox="0 0 1024 1024"><path transform="translate(0, 921.6) scale(1,-1)" d="M826 702L683 702L712 668Q728 674 775 674L775 674L935 674L873 743L826 702ZM863 494L646 494L678 457Q696 461 713 465Q730 469 750 469L750 469L804 469L804 139Q804 101 772 101L772 101Q742 101 693 110L693 110L693 95Q766 67 781 22L781 22Q857 56 857 139L857 139L857 469L961 469L904 532L863 494ZM668 746L608 803Q591 748 559 697Q527 646 482 595L482 595L495 586Q535 621 570.50 658Q606 695 639 730L639 730L668 746ZM608 47L608 450L631 476L605 494Q621 515 639 538Q657 561 675 579L675 579L696 595L631 646Q603 558 555 488L555 488Q526 446 503 413.50Q480 381 457 353L457 353L464 340Q491 366 516 390Q541 414 557 438L557 438L557 157Q557 115 556 81.50Q555 48 555 13L555 13L608 47ZM281 630L133 630L164 595Q180 598 196.50 601Q213 604 230 604L230 604L281 604L281 453L84 453L116 419Q150 425 183 425L183 425L297 425L300 372L300 303L300 85Q247 112 208 157L208 157Q215 189 218 223Q221 257 224 293L224 293L246 318L171 353Q175 239 148 132L148 132Q137 78 116 28Q95-22 59-70L59-70L72-83Q167 18 199 132L199 132Q274 41 375-5L375-5Q484-59 624-64L624-64Q757-68 901-64L901-64Q910-17 965-5L965-5L965 10Q845-1 751.50-4Q658-7 580-5L580-5Q438-1 346 60L346 60L346 242L492 242L438 309L400 268L346 268L346 375L375 396L309 425L508 425L451 497L400 453L328 453L328 604L470 604L416 668L375 630L328 630L328 743L356 769L277 810Q280 773 280.50 728.50Q281 684 281 630L281 630Z"/></svg>