<svg id="U27E94" viewBox="0 0 1024 1024"><path transform="translate(0, 921.6) scale(1,-1)" d="M682 622L682 483L518 483L554 448Q569 451 586 454.50Q603 458 623 458L623 458L682 458L682 149L484 149L521 111Q538 113 556 116Q574 119 594 121L594 121L963 121L893 197L849 149L739 149L739 458L931 458L865 537L818 483L739 483L739 723L770 754L680 795Q680 752 681 709.50Q682 667 682 622L682 622ZM305 625L143 625L176 591Q218 600 251 600L251 600L305 600L305 448L86 448L117 414Q150 424 191 424L191 424L317 424L320 335L320 250L320 80Q292 93 268 112Q244 131 222 156L222 156Q226 187 231 218Q236 249 241 285L241 285L263 307L181 345Q183 290 180 235.50Q177 181 163 124L163 124Q132 14 60-75L60-75L70-88Q180-2 213 121L213 121Q292 38 399-6L399-6Q508-56 660-60L660-60Q817-63 903-60L903-60Q903-29 963 0L963 0L963 14Q867 0 784-2.50Q701-5 623-3L623-3Q465 0 371 55L371 55L371 234L544 234L484 304L436 260L371 260L371 357L395 389L333 424L541 424L480 493L424 448L358 448L358 600L521 600L465 666L415 625L358 625L358 751L383 779L302 814Q304 772 304.50 727Q305 682 305 625L305 625Z"/></svg>