<svg id="U278AF" viewBox="0 0 1024 1024"><path transform="translate(0, 921.6) scale(1,-1)" d="M276 592L276 592L269 583Q281 570 289.50 558.50Q298 547 307 538L307 538Q327 509 339 529L339 529Q350 545 343 561L343 561Q335 564 318.50 573Q302 582 276 592ZM346 728L346 728L346 696L389 705L389 733L528 733L480 787L443 759L389 759L389 774L408 794L343 815Q345 792 345.50 770Q346 748 346 728ZM147 677L108 689Q113 627 108 579L108 579L150 589L150 592L225 592L225 583L266 592L266 655L285 664L248 696L225 677L147 677ZM371 677L326 689Q331 638 326 573L326 573L371 586L371 592L443 592L443 579L487 586Q484 598 484 613L484 613Q484 628 484 646L484 646L503 664L469 699L443 677L371 677ZM251 561L194 599Q152 509 60 432L60 432L70 425Q90 434 110.50 449Q131 464 150 485L150 485Q150 397 149.50 345.50Q149 294 147 280L147 280L197 293L197 309L515 309L465 359L424 334L343 334L343 378L500 378L456 428L428 406L343 406L343 435L497 435L449 488L411 463L343 463L343 501L510 501L462 555L424 526L194 526Q201 530 207 537Q213 544 222 551L222 551L251 561ZM150 620L150 648L225 648L225 620L150 620ZM371 620L371 648L443 648L443 620L371 620ZM197 463L197 501L295 501L295 463L197 463ZM197 406L197 435L295 435L295 406L197 406ZM197 334L197 378L295 378L295 334L197 334ZM600 327L600 457L827 457L827 327L600 327ZM554 252L554 252L600 277L600 299L641 299Q636 126 600 47L600 47Q567-23 477-77L477-77L484-90Q604-34 644 41L644 41Q688 131 688 299L688 299L739 299L739 19Q734-57 814-52L814-52L884-52Q947-52 963 0L963 0Q932 4 928 38L928 38Q925 54 925 81L925 81Q925 109 925 151L925 151L909 151Q906 108 904.50 78.50Q903 49 903 28L903 28Q903 3 871-8L871-8L830-8Q786-13 786 38L786 38L786 299L827 299L827 262L878 286Q875 313 875 340L875 340Q875 368 875 396L875 396L875 715L903 737L852 787L824 753L600 753L554 787Q554 736 555 670Q556 604 556 526L556 526Q556 447 555 378Q554 309 554 252ZM600 617L600 725L827 725L827 617L600 617ZM600 485L600 589L827 589L827 485L600 485ZM254 705L254 728L254 778L276 797L207 815Q210 797 210 759L210 759L63 759L98 722Q118 726 141.50 727.50Q165 729 191 733L191 733L210 733L210 696L254 705ZM80 198L80 198L76 192Q91 168 97 151.50Q103 135 108 123L108 123Q112 100 125 107L125 107Q138 121 138 132L138 132Q142 137 128 157L128 157Q121 162 111 173Q101 184 80 198ZM326 88L326 88Q330-19 314-26L314-26Q305-29 269-20L269-20L269-36Q308-41 323-77L323-77Q363-62 367-1L367-1L367 221L389 233L358 286L330 262L228 262L245 224Q262 228 277.50 231Q293 234 307 236L307 236L326 236L326 116Q309 100 293 85.50Q277 71 263 60L263 60Q249 50 236.50 42.50Q224 35 216 28L216 28L251-1Q264 16 282 39Q300 62 326 88ZM235 198L235 198L232 192Q258 147 263 123L263 123Q266 100 282 107L282 107Q295 121 295 132L295 132Q300 137 285 157L285 157Q278 162 267 173Q256 184 235 198ZM80 198L80 198L76 192Q91 168 97 151.50Q103 135 108 123L108 123Q112 100 125 107L125 107Q138 121 138 132L138 132Q142 137 128 157L128 157Q121 162 111 173Q101 184 80 198ZM387 198L387 198L383 192Q397 168 402.50 151.50Q408 135 411 123L411 123Q419 99 430 107L430 107Q446 126 446 132L446 132Q449 141 436 157L436 157Q430 162 417 173Q404 184 387 198ZM477 88L477 88Q481-19 465-26L465-26Q457-29 421-20L421-20L421-36Q458-40 474-77L474-77Q512-62 521-1L521-1L521 221L544 233L510 286L480 262L380 262L392 224Q408 227 424.50 230Q441 233 459 236L459 236L477 236L477 116Q461 100 443.50 85.50Q426 71 411 60Q396 49 385 41Q374 33 367 28L367 28L402-1Q416 16 433.50 39Q451 62 477 88ZM169 88L169 88Q173-18 156-26L156-26Q148-29 114-20L114-20L114-36Q150-41 166-77L166-77Q209-60 213-1L213-1L213 221L235 233L204 286L172 262L73 262L89 224Q109 228 124 231Q139 234 150 236L150 236L169 236L169 116Q152 100 137 85.50Q122 71 108 60L108 60Q94 50 82 42.50Q70 35 60 28L60 28L96-1Q110 16 126 39Q142 62 169 88Z"/></svg>