<svg id="U2773D" viewBox="0 0 1024 1024"><path transform="translate(0, 921.6) scale(1,-1)" d="M257 728L257 728Q246 748 157 803L157 803L151 797Q176 761 194 730Q212 699 220 671L220 671Q237 617 257 658L257 658Q281 694 257 728ZM298 623L267 589L68 589L96 555Q113 561 132.50 562Q152 563 176 563L176 563L270 563Q216 423 154 327L154 327Q90 224 42 177L42 177L48 164Q130 225 198 331L198 331L198-86L242-58L242 318Q265 297 282 272Q299 247 311 224L311 224Q332 179 349 214L349 214Q364 249 339 274L339 274Q329 286 312 296.50Q295 307 277 318L277 318Q340 391 374 400L374 400L326 447Q304 381 261 327L261 327L242 334L242 396Q265 435 284 474Q303 513 318 551L318 551L346 570L298 623ZM415 794L415 794L409 781Q463 712 469 658L469 658Q477 603 510 643L510 643Q538 682 513 718L513 718Q499 732 474.50 751Q450 770 415 794ZM529 602L346 602L371 563L409 573Q412 329 390 211L390 211Q380 145 352.50 80Q325 15 283-52L283-52L295-58Q373 23 411 139L411 139Q430 194 441 259.50Q452 325 452 406L452 406L550 406Q545 291 539.50 226.50Q534 162 532 139L532 139Q522 90 503 82L503 82Q484 72 415 82L415 82L415 63Q485 39 493 3L493 3Q555 23 570 88L570 88Q578 126 584 202.50Q590 279 598 400L598 400L619 428L573 466L547 432L452 432L452 573L626 573L573 640L529 602ZM743 746L768 769L701 813Q669 656 607 526L607 526L619 517Q642 548 659 571.50Q676 595 686 611L686 611L941 611L891 681L843 640L699 640Q707 663 718 689Q729 715 743 746L743 746ZM708 314L708 314L642 355Q642 315 635 264.50Q628 214 619 145L619 145Q597 22 535-70L535-70L547-77Q613-6 648 98L648 98Q680 15 737-17L737-17Q781-47 891-74L891-74Q896-42 941-26L941-26L941-11Q848-11 781 16L781 16L781 236L922 236L871 299L830 262L781 262L781 466L866 466L843 396L856 394Q891 460 941 469L941 469L891 529L859 491L611 491L645 457Q678 466 717 466L717 466L737 466L737 28Q712 42 693 67Q674 92 658 123L658 123Q661 173 676 229L676 229Q681 258 690 278Q699 298 708 314Z"/></svg>