<svg id="U27D41" viewBox="0 0 1024 1024"><path transform="translate(0, 921.6) scale(1,-1)" d="M226 424L226 424L287 442L287 455L787 455L787 437L847 458Q845 486 845 514L845 514Q845 543 845 571L845 571L845 735L882 754L822 808L784 773L290 773L226 805Q229 778 229.50 752.50Q230 727 230 701L230 701L230 537Q230 508 229.50 479.50Q229 451 226 424ZM287 748L787 748L787 672L287 672L287 748ZM787 644L787 578L287 578L287 644L787 644ZM287 553L787 553L787 480L287 480L287 553ZM658 427L658 427L652 417Q737 375 790 346Q843 317 869 291L869 291Q921 248 926 311L926 311Q926 370 658 427ZM141 234L141 234L145 222Q233 254 295 284.50Q357 315 400 345L400 345L441 360L378 408Q300 313 141 234ZM457 178L400 250Q283 134 126 70L126 70L133 59Q271 90 406 172L406 172L457 178ZM668 294L655 282Q800 208 860 149L860 149Q918 80 932 131L932 131Q952 176 882 213L882 213Q846 233 793.50 252.50Q741 272 668 294L668 294ZM504 90L504 90L567 111L567 398L593 420L504 455Q509 420 510 372.50Q511 325 511 270L511 270Q511 212 510 167Q509 122 504 90ZM87-65L91-82Q185-69 274-52.50Q363-36 444-16L444-16Q604 33 693 77L693 77Q770 125 812 131L812 131L756 190Q732 167 698.50 146.50Q665 126 627 105L627 105Q584 84 522 59Q460 34 382 11L382 11Q300-13 226.50-32Q153-51 87-65L87-65Z"/></svg>