<svg id="U27211" viewBox="0 0 1024 1024"><path transform="translate(0, 921.6) scale(1,-1)" d="M217 452L217 452L145 433L167 408L182 417L217 430L217 386Q217 319 261 319L261 319L321 319Q347 319 362.50 322.50Q378 326 384 329L384 329Q405 338 393 348L393 348Q390 353 384.50 356Q379 359 375 367L375 367Q361 375 352 367L352 367Q343 357 321 357L321 357L274 357Q258 357 258 393L258 393L258 437L343 461L325 477Q340 500 354 515Q368 530 378 540L378 540Q389 547 397 553.50Q405 560 413 563L413 563L365 612L336 581L267 581L267 666L393 666L352 729L315 694L267 694L267 754L293 779L220 811Q222 777 222.50 721.50Q223 666 223 581L223 581L148 581L102 612Q105 536 106 446.50Q107 357 106 254L106 254Q99 148 87.50 64.50Q76-19 49-85L49-85L55-88Q139 39 145 234L145 234Q147 337 147.50 415Q148 493 148 553L148 553L343 553L315 486L299 506L280 468L258 461L258 493L274 524L211 559Q215 535 216 507Q217 479 217 452ZM624-9L624-9L567-9L567 137L724 137L677 200L636 162L567 162L567 241L617 241L617 213L665 237Q662 253 662 313L662 313L662 506L686 524L642 568L614 540L567 540L567 628L696 628L649 688L611 656L567 656L567 758L592 779L520 814Q520 793 523 754.50Q526 716 526 656L526 656L393 656L419 619Q447 628 520 628L520 628L526 628L526 540L460 540L416 563Q418 521 418.50 479Q419 437 419 389L419 389Q419 341 418.50 293Q418 245 416 200L416 200L460 222L460 241L526 241L526 162L375 162L400 128L416 137L526 137L526-9L457-9L457 74L472 96L413 124Q413 107 414.50 75Q416 43 416-3L416-3L397-19L438-60L457-34L624-34L624-69L668-37Q665-16 665 10L665 10Q665 36 665 67L665 67L683 93L617 124Q617 104 620.50 71.50Q624 39 624-9ZM460 398L460 512L526 512L526 398L460 398ZM567 398L567 512L617 512L617 398L567 398ZM460 270L460 373L526 373L526 270L460 270ZM567 270L567 373L617 373L617 270L567 270ZM955-47L955-47L955-34Q877 19 822 115L822 115Q856 197 888 339L888 339L922 357L878 411L847 376L686 376L706 345L724 352Q726 295 737.50 236Q749 177 771 115L771 115Q754 69 722 24.50Q690-20 642-75L642-75L649-88Q743-25 799 67L799 67Q816 38 841 1.50Q866-35 901-78L901-78Q913-52 955-47ZM794 159L794 159Q756 230 743 352L743 352L840 352Q834 298 823 251Q812 204 794 159ZM885 468L885 468Q877 468 876 471L876 471Q866 471 866 530L866 530L866 701L897 726L850 776L825 745L759 745L711 776Q711 747 712.50 724Q714 701 714 685L714 685Q714 666 712.50 635Q711 604 711 559L711 559Q706 460 655 370L655 370L665 360Q722 421 743 493L743 493Q750 528 756 583.50Q762 639 762 720L762 720L825 720L825 506Q821 427 856 427L856 427L917 427Q928 427 942 433L942 433Q950 444 942 465L942 465Q922 479 910 474L910 474Q901 468 885 468ZM239 231L261 257L195 288Q197 216 193.50 164Q190 112 182 77L182 77Q177 34 158-2Q139-38 113-69L113-69L123-78Q153-55 173-27.50Q193 0 208 30L208 30Q221 63 230 112.50Q239 162 239 231L239 231ZM293 152L293 30Q293 13 287 3.50Q281-6 274-16L274-16L315-50Q336-8 357 28.50Q378 65 397 99L397 99L384 111Q370 93 358.50 76Q347 59 334 42L334 42L334 219L356 244L287 275L293 152Z"/></svg>