<svg id="U2737B" viewBox="0 0 1024 1024"><path transform="translate(0, 921.6) scale(1,-1)" d="M228 585L228 585L228 396Q228 363 227.50 328Q227 293 225 261L225 261L282 286Q279 310 279 340L279 340Q279 370 279 412L279 412L279 595L302 617L266 642Q280 662 293.50 681.50Q307 701 317 721L317 721Q329 734 338.50 747.50Q348 761 358 768L358 768L298 813Q288 781 271 745Q254 709 225 661L225 661Q196 610 155.50 560Q115 510 63 456L63 456L70 446Q119 477 158 512Q197 547 228 585ZM554 422L554 422Q536 428 512.50 444Q489 460 459 481L459 481L446 472Q475 443 496.50 424Q518 405 531 396L531 396Q514 379 491.50 366.50Q469 354 443 343L443 343Q419 333 384 322Q349 311 307 302L307 302L314 286Q374 296 416 306.50Q458 317 484 330L484 330Q534 347 569 374L569 374Q644 333 714 320L714 320Q749 313 793.50 306.50Q838 300 890 296L890 296Q904 335 960 340L960 340L960 355L843 355Q819 355 789 359Q759 363 717 371L717 371Q675 376 644 384Q613 392 591 402L591 402Q608 425 635 497L635 497L786 497L786 472L840 491Q835 509 834.50 551Q834 593 834 654L834 654L862 670L811 711L786 683L644 683L644 730L903 730L846 800L796 759L358 759L392 724Q431 730 462 730L462 730L594 730L594 683L449 683L395 705Q398 672 398.50 639.50Q399 607 399 579L399 579Q399 553 398.50 525.50Q398 498 395 472L395 472L449 487L449 497L588 497Q578 476 568.50 456Q559 436 554 422ZM449 610L449 654L594 654L594 610L449 610ZM644 610L644 654L786 654L786 610L644 610ZM449 525L449 585L594 585Q594 568 592.50 553.50Q591 539 591 525L591 525L449 525ZM644 585L644 585L786 585L786 525L638 525Q638 544 641 558.50Q644 573 644 585ZM541 220L541 217L547 217L736 217L736 106L541 106L541 220ZM302 106L302 217L490 217L490 106L302 106ZM490 81L490-8Q359-15 269-19Q179-23 125-23L125-23L163-84Q180-74 337.50-58.50Q495-43 793-18L793-18Q808-31 826-45.50Q844-60 858-74L858-74Q880-100 896-74L896-74Q906-46 884-15L884-15Q853 17 676 68L676 68L670 60Q692 44 716.50 30Q741 16 767 3L767 3L541-8L541 81L736 81L736 60L789 72L789 214L811 235L755 276L732 242L541 242L541 293L572 314L490 350L490 242L302 242L248 268L248 44L302 63L302 81L490 81Z"/></svg>