<svg id="U27313" viewBox="0 0 1024 1024"><path transform="translate(0, 921.6) scale(1,-1)" d="M151 293L151 563L218 563L218 293L151 293ZM265 293L265 563L331 563L331 293L265 293ZM341 113L341 113L265 95L265 268L331 268L331 236L382 262Q379 294 379 366L379 366Q379 439 379 551L379 551L403 570L359 623L331 589L265 589L265 740L287 771L215 810Q217 776 217.50 723Q218 670 218 589L218 589L148 589L100 623Q103 578 103 525L103 525Q103 473 103 413L103 413Q103 353 103 305L103 305Q103 257 100 218L100 218L151 245L151 268L218 268L218 82Q89 47 62 47L62 47L94-14Q109 5 186 34L186 34Q223 49 263 64Q303 79 346 95L346 95Q351 81 355.50 68Q360 55 362 41L362 41Q367 17 388 41L388 41Q412 63 407 98L407 98Q401 117 309 221L309 221L297 211Q310 180 320.50 155Q331 130 341 113ZM693 136L693 136L961 136L904 208L847 160L693 160L693 280L816 280L816 249L870 268Q867 296 866.50 329.50Q866 363 866 406L866 406L891 428L845 473L809 440L523 440L523 538L794 538L794 507L847 529Q845 545 845 579L845 579Q845 614 845 668L845 668L866 687L819 733L788 699L618 699Q655 751 703 774L703 774L637 813Q625 781 616 754.50Q607 728 598 699L598 699L523 699L470 725Q470 679 473 621Q476 563 476 488L476 488Q476 415 473 348Q470 281 470 227L470 227L523 249L523 280L643 280L643 160L391 160L426 123Q456 136 498 136L498 136L643 136Q643 104 641 50Q639-4 639-86L639-86L696-58Q693-39 693 136ZM523 563L523 674L794 674L794 563L523 563ZM523 309L523 413L816 413L816 309L523 309Z"/></svg>