<svg id="U270AB" viewBox="0 0 1024 1024"><path transform="translate(0, 921.6) scale(1,-1)" d="M614 594L666 623L666 678L959 678L905 749L863 705L666 705L666 739L701 768L611 820Q611 789 612.50 760.50Q614 732 614 705L614 705L401 705L401 755L434 778L340 826Q343 802 342.50 783Q342 764 342 755L342 755L342 705L68 705L103 668Q120 673 139.50 675.50Q159 678 182 678L182 678L342 678L342 578L401 607L401 678L614 678L614 594ZM456 517L456 517L392 562L363 526L253 526L282 575L321 581L237 623Q237 608 195 520L195 520Q151 438 55 321L55 321L68 304L143 384Q143 263 142.50 186Q142 109 140 78L140 78L198 91L198 110L401 110L401 88L456 110Q453 131 453 195L453 195Q453 259 453 368L453 368L476 384L424 426L401 400L318 400Q348 434 368.50 456Q389 478 405 488L405 488Q419 500 431.50 505.50Q444 511 456 517ZM240 500L240 500L359 500L292 400L201 400L176 420Q194 444 210 463.50Q226 483 240 500ZM198 268L198 372L276 372L276 268L198 268ZM321 268L321 372L401 372L401 268L321 268ZM198 139L198 242L276 242L276 139L198 139ZM321 139L321 242L401 242L401 139L321 139ZM160 52L160 52L140 52Q118-17 91-36L91-36Q57-59 78-75L78-75Q93-92 114-78L114-78Q127-72 153-46L153-46Q164-20 160 52ZM218 62L208 52Q212 42 216.50 32Q221 22 224 10L224 10Q226 3 229-8.50Q232-20 227-36L227-36Q222-65 256-65L256-65Q285-56 285-26L285-26Q285 4 218 62L218 62ZM308 78L298 68Q305 53 313.50 41Q322 29 327 20L327 20Q337 7 342-30L342-30Q348-55 376-46L376-46Q401-33 398-7L398-7Q394 20 308 78L308 78ZM411 84L401 78Q413 63 420.50 51Q428 39 437 30L437 30Q448 19 460-10L460-10Q464-32 492-26L492-26Q512-10 505 10L505 10Q499 35 411 84L411 84ZM640 546L679 565L598 604Q593 574 579 540Q565 506 546 465L546 465Q527 423 504.50 386Q482 349 456 317L456 317L466 304Q539 365 595 449L595 449L840 449Q840 315 838 246Q836 177 834 165L834 165Q819 142 798 142L798 142L724 142L724 126Q806 116 817 81L817 81Q878 105 882 162L882 162Q884 189 888 257Q892 325 892 442L892 442L924 465L869 510L837 478L611 478L640 546ZM543 268L543 268L543 52Q538-45 640-49L640-49L879-49Q928-49 969-7L969-7Q937 7 930 42L930 42Q925 60 924.50 76.50Q924 93 924 110L924 110L914 110Q914 43 901 20L901 20Q890-10 875-10L875-10L666-10Q582-5 595 68L595 68L595 191L717 191L717 168L776 197Q766 209 766 326L766 326L798 349L740 391L717 359L598 359L537 381Q539 357 541 328Q543 299 543 268ZM595 220L595 330L717 330L717 220L595 220Z"/></svg>