<svg id="U27200" viewBox="0 0 1024 1024"><path transform="translate(0, 921.6) scale(1,-1)" d="M552 604L470 625L804 625L756 556L769 547Q835 617 895 622L895 622L845 686L807 654L524 654L524 701L791 701L734 764L690 730L524 730L524 774L545 799L467 821Q467 789 468.50 750Q470 711 470 654L470 654L221 654L167 676Q171 573 167 393L167 393Q163 211 129 113L129 113Q97 5 37-65L37-65L43-75Q85-37 118 7.50Q151 52 170 109L170 109Q209 216 215 362L215 362Q219 429 220 496.50Q221 564 221 625L221 625L467 625Q467 609 468.50 592Q470 575 470 560L470 560L268 537L306 503Q315 507 328 513Q341 519 353 522L353 522L470 537L470 509Q470 449 545 449L545 449L772 449Q827 449 835 458L835 458Q849 463 835 478L835 478Q829 482 823 486.50Q817 491 813 496L813 496Q802 501 791 496L791 496Q783 487 740 487L740 487L576 487Q545 483 535 496L535 496Q517 507 524 540L524 540L737 563L674 616L640 578L524 563L524 581L552 604ZM359 308L359 386L463 386L463 308L359 308ZM514 308L514 386L614 386L614 308L514 308ZM658 308L658 386L772 386L772 308L658 308ZM362 411L309 434Q312 401 312.50 376Q313 351 313 342L313 342Q313 327 312.50 306Q312 285 309 257L309 257L359 273L359 282L772 282L772 257L819 273Q816 289 816 303L816 303Q816 318 816 329L816 329L816 386L835 406L791 440L766 411L362 411ZM784 257L734 229L290 229L324 195Q341 197 358.50 198.50Q376 200 398 200L398 200Q360 84 275-15L275-15L287-21Q324 5 352 37.50Q380 70 406 113L406 113Q448 70 467 21L467 21Q484-17 501 7L501 7Q521 42 501 62L501 62Q479 88 419 131L419 131L439 156L457 172L416 200L532 200L532-24L183-24L215-59Q250-52 290-52L290-52L926-52L869 15L816-24L580-24L580 200L690 200Q660 104 586-6L586-6L596-15Q623 10 651 40.50Q679 71 702 113L702 113Q744 64 769 15L769 15Q778-26 804 12L804 12Q820 43 794 72L794 72Q779 80 760 97Q741 114 715 131L715 131L734 159L753 175L719 200L835 200L784 257Z"/></svg>