<svg id="U2743" viewBox="0 0 734 1000"><path transform="translate(0, 900) scale(1,-1)" d="M367-48L367-48Q316-27 293 1.50Q270 30 270 73L270 73Q270 123 299 179L299 179Q314 208 324 229.50Q334 251 339 266L339 266Q316 241 286 192L286 192Q225 93 148 93L148 93Q106 93 53 133L53 133L51 167Q51 216 73.50 245.50Q96 275 133 289Q170 303 214 305L214 305Q280 308 310 314L310 314Q296 316 271.50 319Q247 322 213 323L213 323Q168 325 131 339.50Q94 354 72.50 383.50Q51 413 51 461L51 461L53 495Q109 536 150 536L150 536Q183 536 219.50 512Q256 488 287 438L287 438Q303 413 315.50 394.50Q328 376 338 364L338 364Q334 378 323.50 399Q313 420 299 449L299 449Q270 507 270 555L270 555Q270 596 292.50 625Q315 654 367 676L367 676Q420 653 442 624.50Q464 596 464 555L464 555Q464 506 435 450L435 450Q420 422 410 400Q400 378 395 363L395 363Q414 385 447 436L447 436Q479 486 514.50 511Q550 536 584 536L584 536Q625 536 681 495L681 495L683 461Q683 411 660 381.50Q637 352 600 338.50Q563 325 520 323L520 323Q456 320 423 314L423 314Q438 311 459 309Q480 307 505 306L505 306Q557 305 596.50 292Q636 279 659 250L659 250Q683 220 683 167L683 167L681 133Q629 93 586 93L586 93Q549 93 514.50 116.50Q480 140 449 190L449 190Q418 240 394 267L394 267Q399 251 409 229Q419 207 434 178L434 178Q464 121 464 73L464 73Q464 31 441.50 2.50Q419-26 367-48ZM359 343L359 343L367 343L367 653Q327 635 309.50 612.50Q292 590 292 555L292 555Q292 534 300 508Q308 482 323 450L323 450Q353 387 359 343ZM387 334L391 328L661 483Q619 513 586 513L586 513Q555 513 524 491Q493 469 458 415L458 415Q440 387 422 367.50Q404 348 387 334L387 334ZM338 321L338 321L342 328L73 483L72 458Q72 401 112.50 375.50Q153 350 225 344L225 344Q261 341 289.50 335.50Q318 330 338 321ZM391 300L661 144L662 160L662 169Q662 228 619.50 255Q577 282 506 285L506 285Q436 288 395 306L395 306L391 300ZM148 115L148 115Q206 115 257 190L257 190Q309 265 346 293L346 293L342 299L73 144Q114 115 148 115ZM367 286L367-25Q407-7 424.50 15.50Q442 38 442 73L442 73Q442 116 412 179L412 179Q397 211 387.50 237.50Q378 264 375 286L375 286L367 286Z"/></svg>