<svg id="U279E9" viewBox="0 0 1024 1024"><path transform="translate(0, 921.6) scale(1,-1)" d="M627 19L627 19L627 3Q704-17 719-77L719-77Q767-54 781-33L781-33Q801-2 801 25L801 25L801 599L961 599L895 668L845 623L438 623L472 589Q508 599 549 599L549 599L608 599Q608 317 580 177L580 177Q541 31 448-74L448-74L454-83Q586 19 621 167L621 167Q658 310 662 599L662 599L747 599L747 38Q747 17 737 13L737 13Q721 0 627 19ZM567 422L495 460Q474 319 394 139L394 139L410 136Q467 196 545 394L545 394L567 422ZM832 444L819 435Q869 335 886 229L886 229Q899 136 932 173L932 173Q965 214 935 286L935 286Q904 350 832 444L832 444ZM602 810L593 797Q655 730 678 677L678 677Q693 614 719 661L719 661Q748 702 709 737L709 737Q694 755 666.50 772.50Q639 790 602 810L602 810ZM183 794L174 784Q226 708 249 620L249 620L62 620L100 586Q116 588 132 592Q148 596 168 599L168 599L451 599L391 664L341 620L271 620Q308 667 281 705L281 705Q252 746 183 794L183 794ZM168 25L168 192L315 192L315 25L168 25ZM290 481L109 481L139 447Q155 451 174 452Q193 453 215 453L215 453L397 453L335 526L290 481ZM284 347L117 347L145 312Q162 316 182.50 317Q203 318 224 318L224 318L394 318L331 384L284 347ZM372 63L372 186L397 208L341 252L312 218L174 218L116 252Q117 210 117 168L117 168Q117 127 117 85L117 85Q117 43 117 5L117 5Q117-32 116-74L116-74L168-45L168 0L315 0L315-55L375-33Q372-5 372 19L372 19Q372 44 372 63L372 63Z"/></svg>