<svg id="U28F17" viewBox="0 0 1024 1024"><path transform="translate(0, 921.6) scale(1,-1)" d="M487 627L487 740L783 740L783 627L487 627ZM487 497L487 602L783 602L783 497L487 497ZM430 419L430 419L487 438L487 473L783 473L783 428L840 450Q837 467 837 537L837 537Q837 607 837 737L837 737L858 766L802 803L783 766L487 766L430 800Q432 762 432.50 720Q433 678 433 623L433 623Q433 566 432.50 516.50Q432 467 430 419ZM415 22L415 173L550 173L550 22L415 22ZM600 331L600 331L623 355L569 400L547 365L415 365L364 394Q366 337 366.50 278.50Q367 220 367 160L367 160Q367 102 366.50 43Q366-16 364-74L364-74L415-55L415-1L550-1L550-67L603-39Q600 1 600 93L600 93Q600 186 600 331ZM415 198L415 337L550 337L550 198L415 198ZM852 173L717 173L717 22L852 22L852 173ZM928 359L899 334Q899 172 899.50 82.50Q900-7 906-33L906-33L852-55L852-1L717-1L717-52L663-74Q663-16 665 41.50Q667 99 667 157L667 157Q667 217 665 276Q663 335 663 396L663 396L714 365L849 365L868 400L928 359ZM852 337L717 337L717 198L852 198L852 337ZM96-77L150-49L150 725L298 725L225 522Q290 437 295 396L295 396Q308 351 298 314L298 314Q294 283 251 283L251 283Q231 288 208.50 289.50Q186 291 163 296L163 296L163 280Q235 257 245 214L245 214Q296 225 326 255L326 255Q348 273 354 327L354 327Q363 372 336 425L336 425Q321 445 301 470.50Q281 496 251 522L251 522Q279 574 305 623.50Q331 673 354 718L354 718L380 737L323 784L295 749L153 749L96 784Q98 724 98 623L98 623Q98 522 98 375L98 375Q98 225 98 113L98 113Q98 1 96-77L96-77ZM852 173L717 173L717 22L852 22L852 173ZM928 359L899 334Q899 172 899.50 82.50Q900-7 906-33L906-33L852-55L852-1L717-1L717-52L663-74Q663-16 665 41.50Q667 99 667 157L667 157Q667 217 665 276Q663 335 663 396L663 396L714 365L849 365L868 400L928 359ZM852 337L717 337L717 198L852 198L852 337Z"/></svg>