<svg id="U28DF8" viewBox="0 0 1024 1024"><path transform="translate(0, 921.6) scale(1,-1)" d="M290 445L290 445L422 445Q341 349 177 278L177 278L184 268L290 306Q310 292 322 281.50Q334 271 339 264L339 264Q354 246 368 264L368 264Q379 282 368 293L368 293Q351 309 303 313L303 313Q346 329 390.50 362.50Q435 396 487 442L487 442L514 449L500 464L470 500L439 471L313 471L351 503L374 513L316 548Q264 462 190 403L190 403L200 390Q231 407 254.50 420Q278 433 290 445ZM261 352L261 352Q270 326 284 345L284 345Q300 354 293 374L293 374Q289 385 235 406L235 406L232 393Q257 373 261 352ZM319 381L319 381Q323 354 339 381L339 381Q358 400 342 413L342 413Q335 422 293 432L293 432L284 426Q315 392 319 381ZM229 226L258 229L506 229L442 287L403 255L197 255L229 226ZM251 110L280 113L493 113L439 164L413 142L216 142L251 110ZM274 58L435 58L435 6L274 6L274 58ZM222-43L274-27L274-20L435-20L435-43L477-24L477-5L477 55L500 74L455 110L432 87L274 87L222 106Q227 82 228 63.50Q229 45 229 26L229 26Q229 8 228-8.50Q227-25 222-43L222-43ZM487 171L435 223L403 197L219 197L258 164Q277 168 296.50 169.50Q316 171 335 171L335 171L487 171ZM738 232L590 226Q621 244 650 267Q679 290 706 310L706 310Q727 334 746 345Q765 356 780 361L780 361L729 410Q717 389 703 369Q689 349 671 332L671 332L587 332Q597 344 610 356Q623 368 638 381L638 381Q650 390 664 398Q678 406 690 413L690 413L635 451Q631 425 590 374L590 374Q540 329 529 329L529 329L555 284Q563 291 588 298Q613 305 658 313L658 313Q636 291 616 274Q596 257 580 245L580 245Q549 223 529 223L529 223L558 168Q567 172 587 179Q607 186 642 193L642 193L642 23Q642 3 622 3L622 3Q615 3 601 3L601 3Q587 3 571 6L571 6L571-8Q632-29 632-53L632-53Q687-38 687 3L687 3L687 203L748 210Q750 203 753 195Q756 187 758 177L758 177Q763 161 787 187L787 187Q805 214 787 242L787 242Q775 251 754 266.50Q733 282 709 303L709 303L696 293Q728 257 738 232L738 232ZM635 132L574 168Q554 110 531.50 66Q509 22 487-8L487-8L500-14Q528 8 555.50 42.50Q583 77 613 122L613 122L635 132ZM709 164L709 164L693 155Q725 114 743.50 87Q762 60 767 45L767 45Q777 13 793 29L793 29Q809 41 809 65L809 65Q809 77 780 106L780 106Q765 118 747.50 132.50Q730 147 709 164ZM661 506L661 506L596 545Q572 466 487 364L487 364L500 361Q529 381 552.50 402Q576 423 593 445L593 445Q612 466 628.50 483.50Q645 501 661 506ZM548 813L548 542L600 555L600 564L848 564L848 35Q848 1 819-5L819-5Q809-5 780-2.50Q751 0 706 3L706 3L706-11Q806-32 816-82L816-82Q900-58 900 16L900 16L900 748L932 784L874 826L845 784L606 784L548 813ZM600 687L600 755L848 755L848 687L600 687ZM600 662L848 662L848 590L600 590L600 662ZM151 784L92 813Q95 769 95 727L95 727Q95 685 95 642L95 642L95 84Q95 40 95-1L95-1Q95-43 92-82L92-82L148-50L148 564L393 564L393 545L451 568Q448 586 448 606L448 606Q448 627 448 645L448 645L448 745L474 774L413 826L387 784L151 784ZM148 662L393 662L393 590L148 590L148 662ZM148 755L393 755L393 687L148 687L148 755Z"/></svg>