<svg id="U2805F" viewBox="0 0 1024 1024"><path transform="translate(0, 921.6) scale(1,-1)" d="M400 685L400 685L426 704L379 767L341 726L171 726L112 764Q115 726 115.50 681Q116 636 116 584L116 584Q116 527 115.50 486.50Q115 446 112 420L112 420L164 448L164 474L243 474L243 49L168 26L168 304L199 332L116 383Q117 340 117 247L117 247Q117 155 117 11L117 11L65-3L109-62L145-31Q217-1 284 28Q351 57 420 83L420 83L416 99L290 62L290 278L435 278L379 345L341 304L290 304L290 474L350 474L350 430L403 458Q400 498 400 554L400 554Q400 610 400 685ZM164 499L164 701L350 701L350 499L164 499ZM791 175L791 175Q814 200 839.50 248.50Q865 297 898 363L898 363L924 383L850 437Q823 333 775 226L775 226Q767 274 765 334.50Q763 395 763 468L763 468L958 468L898 530L854 493L763 493Q758 523 757.50 584.50Q757 646 757 745L757 745L788 770L706 811Q706 775 707.50 741Q709 707 709 672L709 672Q709 639 709 594L709 594Q709 550 712 493L712 493L590 493L590 666Q650 694 678 694L678 694L621 767Q592 731 544 695.50Q496 660 426 628L426 628L431 612Q467 624 493 633.50Q519 643 539 650L539 650L539 493L413 493L444 455Q461 457 480 459.50Q499 462 520 468L520 468L539 468L539 285Q496 262 459.50 243.50Q423 225 385 216L385 216L435 159Q455 176 481 195Q507 214 539 234L539 234L539 33Q539 11 513 11L513 11Q479 11 420 21L420 21L420 5Q513-18 517-85L517-85Q590-42 590 26L590 26L590 266L690 339L687 354L590 304L590 468L712 468Q712 346 724 282L724 282Q730 214 744 168L744 168Q715 117 681 77.50Q647 38 614 8L614 8L621-3Q665 28 700 60Q735 92 763 124L763 124Q771 89 790.50 56Q810 23 832-3L832-3Q855-26 875.50-45Q896-64 914-72L914-72Q947-89 939-54L939-54Q924-12 952 118L952 118L942 124L891 8Q856 37 832 80L832 80Q800 125 791 175ZM813 732L813 732L804 726Q859 645 870 597L870 597Q882 542 907 578L907 578Q931 614 914 647L914 647Q904 663 878 683Q852 703 813 732Z"/></svg>