<svg id="U287EE" viewBox="0 0 1024 1024"><path transform="translate(0, 921.6) scale(1,-1)" d="M507 668L475 607L488 604Q523 652 573 681L573 681L529 722L504 696L337 696L337 743L504 743L457 794L419 771L141 771L177 734Q215 739 259 743L259 743L296 743L296 696L133 696L133 722L117 722Q116 704 110.50 692Q105 680 99 668L99 668Q94 658 87.50 649.50Q81 641 71 636L71 636Q59 624 78 611L78 611Q96 598 109 617L109 617Q122 627 133 668L133 668L296 668L296 558L337 570L337 668L507 668ZM249 640L154 640L154 611L249 611L249 640ZM252 589L151 589L151 563L252 563L252 589ZM470 640L375 640L375 611L470 611L470 640ZM475 589L375 589L375 563L475 563L475 589ZM133 416L133 501L182 501L182 416L133 416ZM97 356L97 356L133 375L133 391L182 391L182 368L221 385Q218 400 218 415L218 415Q218 430 218 447L218 447L218 504L236 520L202 548L180 526L136 526L97 545Q99 521 99 501L99 501Q99 481 99 463L99 463Q99 441 99 416L99 416Q99 392 97 356ZM280 416L280 501L331 501L331 416L280 416ZM365 504L365 504L378 522L349 551L331 526L280 526L243 548Q247 526 248 505Q249 484 249 466L249 466Q249 442 248 418Q247 394 243 365L243 365L280 375L280 391L331 391L331 368L369 385Q366 412 365.50 442.50Q365 473 365 504ZM426 416L426 501L472 501L472 416L426 416ZM507 450L507 501L529 514L491 548L472 526L426 526L388 545Q389 519 389.50 497Q390 475 390 457L390 457Q390 438 389.50 416.50Q389 395 388 368L388 368L426 378L426 391L472 391L472 372L511 391Q508 409 507.50 423.50Q507 438 507 450L507 450ZM633 640L633 640L639 646L775 646Q756 578 715 522L715 522Q678 546 633 640ZM523 520L529 510Q557 533 580 557.50Q603 582 620 611L620 611Q651 521 683 491L683 491Q614 412 495 368L495 368L501 353Q628 384 719 463L719 463Q768 409 885 350L885 350Q902 391 958 391L958 391L958 406Q819 433 750 491L750 491Q770 518 790.50 556.50Q811 595 835 646L835 646L932 646L882 709L841 674L649 674Q664 717 683 743L683 743L706 766L639 800Q617 653 523 520L523 520ZM259 255L259 318L727 318L727 255L259 255ZM205 201L205 201L259 218L259 230L727 230L727 214L781 236Q778 255 778 275L778 275Q778 296 778 315L778 315L804 334L756 378L724 347L259 347L205 372Q209 348 210 328.50Q211 309 211 290L211 290Q211 269 210 247Q209 225 205 201ZM215 79L215 157L470 157L470 79L215 79ZM523 79L523 157L765 157L765 79L523 79ZM815 154L815 154L841 177L787 221L763 183L215 183L157 208Q160 173 160.50 125Q161 77 161 16L161 16Q155-79 262-73L262-73L876-73Q931-73 958-29L958-29Q933-22 920-1L920-1Q910 26 910 82L910 82L894 82Q894 51 892.50 28Q891 5 891-8L891-8Q891-32 845-32L845-32L267-32Q209-32 215 3L215 3L215 54L765 54L765 28L819 44Q816 67 815.50 95Q815 123 815 154Z"/></svg>