<svg id="U28F36" viewBox="0 0 1024 1024"><path transform="translate(0, 921.6) scale(1,-1)" d="M96-75L147-44L147 704L276 704L210 502Q266 422 276 380L276 380Q290 327 276 294L276 294Q272 266 232 266L232 266Q215 269 196 270Q177 271 153 275L153 275L153 263Q224 237 228 193L228 193Q255 198 272.50 209Q290 220 305 234L305 234Q327 253 333 307L333 307Q338 354 310 401L310 401Q284 453 235 502L235 502Q255 554 278.50 602.50Q302 651 330 697L330 697L351 717L305 764L273 732L147 732L96 764Q98 722 98 618L98 618Q98 514 98 348L98 348Q98 177 98 73L98 73Q98-30 96-75L96-75ZM928 578L928 578L928 597Q855 597 780 632L780 632Q705 663 616 741L616 741L641 764L575 802Q553 762 524.50 722.50Q496 683 459 644L459 644Q421 605 381 576.50Q341 548 302 524L302 524L307 515Q472 566 600 729L600 729Q655 652 723 603L723 603Q790 555 855 537L855 537Q876 572 928 578ZM446 530L411 565L673 565L717 606L780 540L521 540Q476 540 446 530L446 530ZM418 465L364 483Q366 454 366.50 423.50Q367 393 367 360L367 360Q367 325 366.50 291.50Q366 258 364 226L364 226L411 244L411 282L521 282L521 244L569 266Q566 280 565.50 321.50Q565 363 565 430L565 430L594 452L541 496L518 465L418 465ZM411 307L411 439L521 439L521 307L411 307ZM685 465L635 483Q635 454 636.50 423.50Q638 393 638 360L638 360Q638 325 636.50 293Q635 261 635 229L635 229L682 244L682 282L793 282L793 244L846 266Q841 280 840.50 321.50Q840 363 840 430L840 430L865 452L818 489L789 465L685 465ZM682 307L682 439L793 439L793 307L682 307ZM541 175L459 200L462 99L462 2Q462-54 525-54L525-54L685-54Q757-54 780-3L780-3Q739 0 739 115L739 115L723 115Q723-6 695-6L695-6L556-6Q515-6 515 23L515 23L515 152L541 175ZM830 64L830 64Q840 27 865 42L865 42Q888 71 881 99L881 99Q872 131 780 190L780 190L770 181Q816 110 830 64ZM575 247L562 234Q599 173 606 134L606 134Q616 89 638 103L638 103Q660 119 660 152L660 152Q660 186 575 247L575 247ZM310 64L310 64Q267 38 292 21L292 21Q315 4 351 33L351 33Q388 54 399 165L399 165L387 168Q354 96 310 64Z"/></svg>