<svg id="U2811A" viewBox="0 0 1024 1024"><path transform="translate(0, 921.6) scale(1,-1)" d="M380 468L380 745L402 770L323 808Q325 784 325.50 741.50Q326 699 326 638L326 638L210 638L210 710L232 738L156 770Q158 738 158.50 709.50Q159 681 159 650L159 650L135 632L181 584L207 612L326 612L326 530L96 530L128 493Q165 502 194 502L194 502Q190 404 73 304L73 304L80 291Q228 370 248 502L248 502L326 502Q326 457 325.50 415Q325 373 323 335L323 335L383 357Q380 378 380 406L380 406Q380 435 380 468L380 468ZM506 666L556 694Q594 665 616 638L616 638Q626 608 647 635L647 635Q667 660 644 676L644 676Q637 685 616.50 691Q596 697 569 707L569 707L585 713L796 713Q767 688 733 666.50Q699 645 657 628L657 628Q576 583 408 550L408 550L411 534Q604 562 691 600L691 600Q740 622 783.50 647Q827 672 865 701L865 701L899 717L855 770L818 738L613 738Q639 759 667 773L667 773L616 814Q598 793 574.50 767.50Q551 742 518 717L518 717Q487 688 454 668.50Q421 649 392 638L392 638L399 622Q417 629 439 637Q461 645 490 656L490 656Q507 637 517 623.50Q527 610 531 600L531 600Q547 575 562 594L562 594Q580 615 569 632L569 632Q556 646 506 666L506 666ZM635 417L635 417L635 404Q716 397 736 348L736 348Q811 372 811 439L811 439L811 506L950 506L896 563L849 534L811 534L811 578L837 600L755 628Q755 604 756.50 579.50Q758 555 758 534L758 534L405 534L443 499Q459 501 476.50 503.50Q494 506 515 506L515 506L758 506L758 442Q758 414 732 414L732 414Q721 414 695 414L695 414Q670 414 635 417ZM490 483L484 474Q500 454 511 440Q522 426 528 408L528 408Q544 378 565 396L565 396Q590 414 575 439L575 439Q561 459 490 483L490 483ZM298 206L298 301L717 301L717 206L298 206ZM245 156L245 156L298 165L298 181L477 181L477 0Q428 1 377.50 18Q327 35 273 64L273 64Q302 104 314 108L314 108L254 152Q212 22 60-82L60-82L67-88Q131-64 179-30Q227 4 263 49L263 49Q299 20 338.50 1.50Q378-17 421-31L421-31Q502-57 638-62L638-62Q702-64 764-64.50Q826-65 881-65L881-65Q881-32 963-19L963-19L963-3Q723-16 531-6L531-6L531 87L881 87L818 152L764 111L531 111L531 181L717 181L717 162L773 172Q770 192 770 222L770 222Q770 253 770 291L770 291L799 307L749 357L714 326L298 326L245 345Q247 325 247.50 302Q248 279 248 254L248 254Q248 228 247.50 204Q247 180 245 156Z"/></svg>