<svg id="U281E6" viewBox="0 0 1024 1024"><path transform="translate(0, 921.6) scale(1,-1)" d="M397 552L397 552L410 545Q453 597 485 668L485 668Q513 628 520 602L520 602Q524 580 532.50 580.50Q541 581 549 605L549 605Q571 642 492 684L492 684Q498 700 506 716.50Q514 733 529 750L529 750L546 766L476 804Q465 680 397 552ZM529 539L529 539L542 530Q562 558 584.50 589Q607 620 624 662L624 662Q660 600 665 565L665 565Q675 524 700 571L700 571Q719 613 631 671L631 671Q643 717 662 743L662 743L687 763L621 800Q597 654 529 539ZM728 699L728 517L379 517L413 479Q438 486 485 491L485 491L734 491Q734 379 741 298.50Q748 218 760 161L760 161Q683 34 580-57L580-57L590-73Q643-32 689.50 12.50Q736 57 778 108L778 108Q819 10 879-29L879-29Q941-70 952-70L952-70Q965-70 948-29L948-29Q925 9 955 146L955 146L935 155Q923 119 912 90Q901 61 891 38L891 38Q840 80 806 158L806 158Q853 230 914 388L914 388L939 406L863 457Q846 379 828 320.50Q810 262 794 224L794 224Q787 268 784 334Q781 400 781 491L781 491L955 491L898 565L857 517L778 517L778 756L813 784L724 820Q724 788 726 759Q728 730 728 699L728 699ZM822 747L822 747L816 738Q837 704 854 679Q871 654 876 630L876 630Q886 577 920 630L920 630Q952 681 822 747ZM564 67L513 61L513 432L539 460L464 486Q466 456 466.50 431Q467 406 467 382L467 382L379 382L403 344Q418 351 431.50 352.50Q445 354 467 354L467 354L467 278L387 278L413 243Q427 249 439.50 250.50Q452 252 467 252L467 252L467 180L379 180L407 146Q421 152 435 153.50Q449 155 467 155L467 155L467 51L359 38L403-26Q433-5 509 19.50Q585 44 703 79L703 79L700 92L608 76L608 155L709 155L662 218L631 180L608 180L608 252L703 252L662 313L631 278L608 278L608 357L700 357L659 416L627 382L608 382L608 435L637 467L561 489Q561 459 562.50 433.50Q564 408 564 388L564 388L564 67ZM366 702L366 702L390 728L341 779L309 743L171 743L109 779Q115 743 115.50 698.50Q116 654 116 602L116 602Q116 545 115.50 502.50Q115 460 109 432L109 432L161 460L161 489L224 489L224 61L164 41L164 316L192 341L116 394Q116 351 116.50 259Q117 167 117 23L117 23L65 5L103-57L151-23Q211 11 271.50 40.50Q332 70 390 98L390 98L387 117L274 70L274 290L394 290L346 357L312 316L274 316L274 489L315 489L315 438L369 473Q366 513 366 571L366 571Q366 629 366 702ZM161 514L161 719L315 719L315 514L161 514Z"/></svg>