<svg id="U28DC9" viewBox="0 0 1024 1024"><path transform="translate(0, 921.6) scale(1,-1)" d="M455 403L507 438L636 438L597 390L481 390L455 403ZM478 364L578 364L578 297L478 297L478 364ZM623 364L720 364L720 297L623 297L623 364ZM642 468L536 468Q548 474 553.50 481Q559 488 565 493L565 493L597 503L533 539Q508 499 471 458.50Q434 418 381 377L381 377L394 371L433 390L433 81Q433 16 504 16L504 16L742 16Q813 16 833 55L833 55Q791 58 791 132L791 132L775 132Q769 55 742 55L742 55L520 55Q478 55 478 97L478 97L478 271L720 271L720 255L771 274Q766 286 765.50 300Q765 314 765 326L765 326L765 355L791 374L745 416L716 390L626 390L694 438L723 451L671 493L642 468ZM259 522L255 509Q278 486 293.50 468.50Q309 451 317 438L317 438Q330 416 346 438L346 438Q365 464 341 484L341 484Q331 491 311 500Q291 509 259 522L259 522ZM204 406L200 393Q246 353 259 319L259 319Q269 289 284 310L284 310Q292 315 296 326Q300 337 297 352L297 352Q293 372 204 406L204 406ZM194 190L194 190L188 171Q262 160 262 135L262 135Q262 121 259.50 105Q257 89 252 71L252 71Q237 33 275 13L275 13Q291 5 298.50 15.50Q306 26 304 55L304 55Q300 107 313 155L313 155Q318 178 338.50 245Q359 312 394 423L394 423L375 429Q297 191 275 187L275 187Q265 179 245 182Q225 185 194 190ZM575 229L523 251L523 71L571 87L571 93L700 93L700 77L745 93L745 193L765 213L723 251L697 229L575 229ZM571 119L571 152L700 152L700 119L571 119ZM571 177L571 200L700 200L700 177L571 177ZM545 813L545 526L600 539L600 548L846 548L846 45Q846 9 820 0L820 0Q808 0 778.50 3.50Q749 7 704 10L704 10L704-5Q805-21 816-82L816-82Q900-58 900 16L900 16L900 748L933 784L874 826L842 784L604 784L545 813ZM600 677L600 755L846 755L846 677L600 677ZM600 651L846 651L846 574L600 574L600 651ZM149 784L90 813Q95 769 95.50 726Q96 683 96 642L96 642L96 81Q96 39 95.50-2Q95-43 90-82L90-82L146-50L146 548L394 548L394 529L452 551Q447 580 446.50 603.50Q446 627 446 645L446 645L446 745L475 774L413 826L385 784L149 784ZM146 651L394 651L394 574L146 574L146 651ZM146 755L394 755L394 677L146 677L146 755Z"/></svg>