<svg id="U28C32" viewBox="0 0 1024 1024"><path transform="translate(0, 921.6) scale(1,-1)" d="M466 72L466 72L516 90L516 103L580 103Q541-24 365-68L365-68L365-78Q581-68 633 103L633 103L690 103L690 7Q690-52 743-52L743-52L860-52Q925-52 951-11L951-11Q918 8 914 33L914 33Q907 64 907 106L907 106L891 106Q891 84 889.50 64Q888 44 888 24L888 24Q884-9 860-15L860-15L768-15Q734-19 734 18L734 18L734 103L806 103L806 80L856 97Q853 124 853 150L853 150Q853 177 853 200L853 200L853 339L878 367L832 414L799 377L520 377L466 408Q466 382 467.50 343Q469 304 469 247L469 247Q469 193 467.50 148.50Q466 104 466 72ZM806 352L806 295L516 295L516 352L806 352ZM806 270L806 213L516 213L516 270L806 270ZM806 188L806 131L516 131L516 188L806 188ZM699 452L699 537L737 537L737 452L699 452ZM925 424L925 531L948 547L907 588L878 563L699 563L655 581L658 519L658 449L655 408L699 421L699 427L885 427L885 411L925 424ZM781 789L781 789L721 824Q715 779 693 732.50Q671 686 639 635L639 635L645 625Q664 640 682.50 657Q701 674 718 698L718 698L948 698L894 761L856 723L730 723Q735 730 739.50 737Q744 744 750 751L750 751Q753 758 762 768Q771 778 781 789ZM586 635L586 560L444 560L444 635L586 635ZM513 531L513 452L444 452L444 531L513 531ZM513 736L513 660L444 660L444 736L513 736ZM627 635L627 635L652 648L614 689L583 660L554 660L554 736L652 736L601 796L564 761L447 761L397 792Q399 757 399.50 676Q400 595 400 465L400 465L378 443L419 406L447 427L645 427L604 484L567 452L554 452L554 531L586 531L586 522L633 537Q627 550 627 635ZM775 452L775 537L809 537L809 452L775 452ZM847 452L847 537L885 537L885 452L847 452ZM856 645L677 645L696 610Q700 619 753 619L753 619L929 619L891 682L856 645ZM110 285L110 285L102 276Q115 233 123.50 197Q132 161 135 131L135 131Q139 70 176 118L176 118Q217 168 110 285ZM334 519L290 481L113 481L135 447Q152 448 167.50 450Q183 452 198 452L198 452L211 452L211 352L71 352L102 314Q136 326 211 326L211 326L211 65Q175 55 140.50 47Q106 39 71 36L71 36L107-24Q145-5 218 21.50Q291 48 403 90L403 90L400 103L255 72L255 106Q283 134 311.50 166.50Q340 199 372 236L372 236L397 241L340 292Q321 246 301 206Q281 166 255 134L255 134L255 326L400 326L346 386L305 352L255 352L255 452L381 452L334 519ZM233 704L233 704Q271 671 293.50 642.50Q316 614 328 591L328 591Q354 549 369 584L369 584Q386 620 352 654L352 654Q321 680 243 723L243 723L261 764L284 780L223 824Q190 727 148.50 630Q107 533 52 434L52 434L62 427Q84 444 103 471Q122 498 148 540L148 540Q197 619 233 704Z"/></svg>