<svg id="U28112" viewBox="0 0 1024 1024"><path transform="translate(0, 921.6) scale(1,-1)" d="M388 688L388 688L413 707L366 770L328 732L158 732L100 764Q103 730 103 686L103 686Q103 642 103 587L103 587Q103 530 103 491L103 491Q103 452 100 427L100 427L151 452L151 480L243 480L243 59L168 39L168 311L196 339L116 386Q117 344 117 255L117 255Q117 166 117 23L117 23L62 8L109-57L145-21Q214 7 282.50 35Q351 63 420 93L420 93L413 108L290 70L290 285L431 285L379 352L335 311L290 311L290 480L341 480L341 433L391 465Q388 504 388 559L388 559Q388 615 388 688ZM151 506L151 704L341 704L341 506L151 506ZM485 666L482 713L467 713Q451 631 426 609L426 609Q399 590 403 565L403 565Q409 538 429 546L429 546Q448 546 467 571L467 571Q485 593 485 641L485 641L863 641L826 559L835 556Q896 628 961 628L961 628L904 701L863 666L485 666ZM596 817L596 817L586 805Q632 765 643 717L643 717Q658 676 680 685L680 685Q705 699 700 741L700 741Q700 776 596 817ZM961-37L961-37L961-19Q943-14 895 18L895 18Q856 45 819 103L819 103Q875 227 907 439L907 439L942 461L895 512L866 480L678 480L700 442L719 448Q726 333 738 247.50Q750 162 769 105L769 105Q719 1 643-78L643-78L652-91Q721-57 794 55L794 55Q817 17 842-14.50Q867-46 898-72L898-72Q924-37 961-37ZM740 452L740 452L857 452Q851 392 836.50 319.50Q822 247 794 162L794 162Q753 275 740 452ZM611 77L611 77Q611 32 608-9Q605-50 605-88L605-88L659-62Q656-39 655.50-0.50Q655 38 655 93L655 93L700 115L700 134L655 121L655 512L716 512L665 571L634 540L407 540L438 506L464 512L470 512L470 74Q455 71 438.50 65.50Q422 60 403 55L403 55L441 0L464 14Q496 32 532.50 47.50Q569 63 611 77ZM520 393L520 512L611 512L611 393L520 393ZM520 237L520 367L611 367L611 237L520 237ZM520 83L520 213L611 213L611 108L520 83Z"/></svg>