<svg id="U287EB" viewBox="0 0 1024 1024"><path transform="translate(0, 921.6) scale(1,-1)" d="M648-80L648-80L705-52Q702 0 702 49L702 49Q702 99 702 148L702 148L702 715L856 715Q839 658 818.50 594Q798 530 777 457L777 457Q920 311 900 201L900 201Q885 94 723 160L723 160L723 142Q811 117 834 57L834 57Q939 75 960 195L960 195Q978 306 812 466L812 466Q840 539 864 597.50Q888 656 910 699L910 699L938 718L890 781L856 740L702 740L648 781Q648 730 649.50 678.50Q651 627 651 570L651 570L651 145Q651 88 649.50 34Q648-20 648-80ZM61-74L61-74L77-80Q128-20 155 43.50Q182 107 185 186L185 186L494 186L494 164L545 183Q542 199 541.50 224.50Q541 250 541 283L541 283L569 303L522 350L491 314L428 314L428 378L589 378L528 444L491 406L368 406Q384 416 378 432L378 432Q374 444 317 469L317 469L302 466Q331 437 337 406L337 406L185 406L135 435Q138 368 138.50 302Q139 236 135 173L135 173Q131 42 61-74ZM185 314L185 378L261 378L261 314L185 314ZM308 314L308 378L384 378L384 314L308 314ZM185 214L185 290L261 290L261 214L185 214ZM308 214L308 290L384 290L384 214L308 214ZM428 214L428 290L494 290L494 214L428 214ZM223-11L223-11Q223-20 204-36L204-36L242-80Q263-60 296.50-38.50Q330-17 378 6L378 6L371 22L270-17L270 63L393 63L352 116L317 88L270 88L270 139L289 157L220 183Q222 163 222.50 115Q223 67 223-11ZM232 677L232 746L352 746L302 803L267 774L64 774L96 740Q113 742 127.50 744Q142 746 157 746L157 746L191 746L191 677L144 677L102 699Q105 664 105 629L105 629Q105 594 105 555L105 555Q105 517 105 486L105 486Q105 455 102 435L102 435L144 463L144 648L191 648Q191 620 185.50 598.50Q180 577 173 561L173 561Q163 541 156.50 525Q150 509 141 497L141 497L144 491Q158 500 171.50 511Q185 522 195 542L195 542Q201 556 209.50 570Q218 584 223 602L223 602Q251 568 258 542L258 542Q270 508 280 542L280 542Q298 573 273 589L273 589Q258 601 223 614L223 614Q229 623 229 648L229 648L289 648L289 522Q289 497 280 497L280 497Q277 497 265 497.50Q253 498 229 504L229 504L229 491Q285 477 280 447L280 447Q326 456 330 510L330 510L330 648L352 668L311 709L283 677L232 677ZM500 681L500 749L630 749L582 807L545 778L355 778L384 740Q406 749 443 749L443 749L456 749L456 681L409 681L368 705Q370 672 370.50 635.50Q371 599 371 561L371 561Q371 519 370.50 491Q370 463 368 447L368 447L412 469L412 652L456 652Q456 588 443 561L443 561Q436 543 427.50 526.50Q419 510 409 494L409 494L415 488Q449 516 469 545L469 545Q485 570 491 592L491 592Q503 577 511 563.50Q519 550 528 535L528 535Q533 519 540 519L540 519Q548 519 551 535L551 535Q557 554 554.50 564.50Q552 575 548 583L548 583Q538 587 524.50 595Q511 603 494 607L494 607Q494 619 497 631Q500 643 500 652L500 652L554 652L554 504Q554 485 545 485L545 485Q542 485 528 485.50Q514 486 491 491L491 491L491 476Q543 466 554 432L554 432Q590 440 597 494L597 494L597 652L620 671L582 715L551 681L500 681ZM390 192L390 192Q392 163 392.50 136.50Q393 110 393 85L393 85L393 0Q389-67 456-58L456-58L579-58Q618-54 630-17L630-17Q587-4 592 57L592 57L579 57L579 3Q579-13 551-20L551-20L469-20Q437-20 437 0L437 0L437 69L610 69L563 136L522 98L437 98L437 139L456 160L390 192Z"/></svg>