<svg id="U288AC" viewBox="0 0 1024 1024"><path transform="translate(0, 921.6) scale(1,-1)" d="M752 583L682 636Q618 464 449 327L449 327L456 318Q608 401 704 555L704 555Q777 414 909 340L909 340Q919 364 960 381L960 381L960 391Q829 429 723 566L723 566L752 583ZM726 0L726 0L726 205L940 205L881 268L837 229L726 229L726 347L855 347L799 416L758 372L547 372L582 340Q599 340 622.50 342Q646 344 670 347L670 347L680 347L680 229L469 229L506 192Q522 194 539 198Q556 202 578 205L578 205L680 205L680 22Q680 0 667-1L667-1Q663-3 585 3L585 3L585-8Q649-28 663-83L663-83Q721-70 726 0ZM610 107L610 107L641 116L578 164Q551 68 449-45L449-45L462-55Q500-25 538 13.50Q576 52 610 107ZM783 154L773 145Q815 94 840.50 56.50Q866 19 878-8L878-8Q894-52 915-17L915-17Q935 24 896 69L896 69Q875 88 846.50 110.50Q818 133 783 154L783 154ZM537 655L547 655L547 630Q547 615 545.50 595Q544 575 544 555L544 555L600 573Q597 594 597 605L597 605Q597 616 597 614L597 614L597 655L695 655L644 718L606 681L597 681L597 749L619 774L544 807Q544 792 545.50 777.50Q547 763 547 746L547 746L547 681L428 681L462 643Q495 650 537 655L537 655ZM786 658L786 658L786 611Q786 602 784.50 589.50Q783 577 783 561L783 561L843 583Q840 595 840 605L840 605Q840 615 840 620L840 620L840 661L960 661L912 722L875 689L840 689L840 753L862 778L783 810Q783 795 784.50 781Q786 767 786 753L786 753L786 681L704 681L739 652Q755 654 767 656Q779 658 786 658ZM443 113L443 113L443 517L469 538L415 586L389 542L346 542L346 702L484 702L433 771L389 730L63 730L98 692Q116 695 134.50 697.50Q153 700 172 702L172 702L194 702L194 542L143 542L89 583Q95 549 95.50 483.50Q96 418 96 318L96 318Q96 215 95.50 118Q95 21 89-67L89-67L140-36L140 10L392 10L392-55L446-26Q443 0 443 34L443 34Q443 68 443 113ZM238 542L238 702L298 702L298 542L238 542ZM348 303L348 303L392 303L392 167L348 214L305 183L140 183L140 517L194 517Q194 479 192 445Q190 411 187 381L187 381Q182 346 169 311.50Q156 277 138 242L138 242L143 233Q215 305 228 378L228 378Q233 409 235.50 444Q238 479 238 517L238 517L298 517L298 350Q298 303 348 303ZM346 381L346 517L392 517L392 340L358 340Q346 340 346 381L346 381ZM392 154L392 34L140 34L140 170L169 136Q207 150 269 154L269 154L392 154Z"/></svg>