<svg id="U28C67" viewBox="0 0 1024 1024"><path transform="translate(0, 921.6) scale(1,-1)" d="M358 75L138 44Q163 72 191.50 115Q220 158 251 221L251 221L279 236L232 271L449 271L395 337L354 296L204 296L204 422L405 422L354 488L317 447L204 447L204 563L405 563L354 636L317 589L204 589L204 715L424 715L374 778L333 740L200 740L150 771Q152 733 152.50 704.50Q153 676 153 655L153 655L153 296L63 296L98 258Q117 261 133.50 264.50Q150 268 172 271L172 271L210 271Q166 133 135 91L135 91Q105 44 86 44L86 44L122-17Q136-5 195.50 11Q255 27 364 57L364 57Q369 35 371.50 17.50Q374 0 377-14L377-14Q385-43 402-29L402-29Q421-3 421 28L421 28Q421 71 330 177L330 177L320 164Q332 143 341 119.50Q350 96 358 75L358 75ZM619 759L547 803Q542 756 493 617L493 617Q446 471 405 457L405 457L443 391Q457 414 562 444L562 444Q546 408 525.50 364Q505 320 484 271L484 271Q428 161 389 154L389 154L433 75Q462 107 623 157L623 157Q623 146 624.50 136.50Q626 127 629 113L629 113Q629 84 647 104L647 104Q666 118 670 145L670 145Q678 174 657 211L657 211Q637 249 591 309L591 309L582 306Q598 261 607.50 230Q617 199 619 180L619 180L456 154Q476 187 504 239.50Q532 292 565 365L565 365Q603 434 625.50 480Q648 526 660 548L660 548Q672 566 680.50 580.50Q689 595 701 604L701 604L629 658Q618 586 565 457L565 457L456 453Q503 535 550 646L550 646Q576 692 591.50 720.50Q607 749 619 759L619 759ZM805 538L805 746L834 778L752 813Q752 771 753.50 737Q755 703 755 668L755 668L755 538L657 538L688 501Q725 510 755 510L755 510Q738 303 698 173L698 173Q643 38 521-77L521-77L528-86Q698 21 752 170L752 170Q774 248 787 332Q800 416 805 510L805 510L884 510Q879 348 876 247Q873 146 868 101L868 101Q851 14 830 3L830 3Q799-4 726 6L726 6L726-8Q817-20 830-80L830-80Q906-41 915 54L915 54Q920 103 924.50 154.50Q929 206 931 262L931 262Q931 369 937 507L937 507L960 526L912 579L878 538L805 538Z"/></svg>