<svg id="U284CF" viewBox="0 0 1024 1024"><path transform="translate(0, 921.6) scale(1,-1)" d="M635 559L635 720L667 754L578 802L582 735L582 676L582 559L418 559L418 672L443 707L361 745Q363 721 363.50 699Q364 677 364 653L364 653L364 571L339 543L392 496L421 534L802 534L802 496L862 515L858 591L858 666L884 701L796 738L802 676L802 559L635 559ZM827 474L773 427L343 427L377 396Q396 398 416 399.50Q436 401 459 401L459 401L575 401L575 285L380 285L418 247Q431 249 451 252Q471 255 497 260L497 260L575 260L575 103L305 103L343 67Q358 69 376 71.50Q394 74 418 74L418 74L925 74L862 149L805 103L632 103L632 260L843 260L777 326L732 285L632 285L632 401L890 401L827 474ZM153 767L143 754Q202 677 213 612L213 612Q226 555 251 591L251 591Q282 628 266 666L266 666Q252 705 153 767L153 767ZM207 445L63 445L98 408Q134 420 172 420L172 420L210 420L210 96Q112 40 63 0L63 0L117-47Q130-20 149.50 0Q169 20 187 39L187 39Q232 82 261 55L261 55Q275 41 293.50 25.50Q312 10 336-6L336-6Q384-41 484-60L484-60Q589-75 887-75L887-75Q887-31 960-13L960-13L960 2Q873-6 787-11.50Q701-17 616-13L616-13Q531-10 472-5Q413 0 383 11L383 11Q352 25 322 44.50Q292 64 263 96L263 96L263 408L295 437L238 483L207 445Z"/></svg>