<svg id="U28AE7" viewBox="0 0 1024 1024"><path transform="translate(0, 921.6) scale(1,-1)" d="M893 67L893 247L918 272L865 323L839 282L651 282Q700 352 730 360L730 360L663 404Q661 380 652.50 349.50Q644 319 628 282L628 282L528 282L474 316Q477 274 477.50 227.50Q478 181 478 121L478 121Q478 64 477.50 13.50Q477-37 474-85L474-85L528-65L528-37L839-37L839-78L896-50Q893-26 893 3L893 3Q893 32 893 67L893 67ZM528 137L528 254L839 254L839 137L528 137ZM528-9L528 111L839 111L839-9L528-9ZM707 704L701 691Q715 675 727.50 654.50Q740 634 751 609L751 609Q771 560 789 594L789 594Q808 622 789 647L789 647Q775 664 707 704L707 704ZM455 697L452 688Q493 643 509 603L509 603Q517 558 543 597L543 597Q558 632 537 653L537 653Q530 662 508 672.50Q486 683 455 697L455 697ZM604 553L604 553L604 433Q604 408 575 408L575 408Q560 408 540.50 411.50Q521 415 494 420L494 420L494 408Q507 402 519.50 394.50Q532 387 543 383L543 383Q563 357 569 342L569 342Q617 351 632 370L632 370Q651 389 651 420L651 420L651 726L679 748L628 795L594 758L427 758L458 726Q477 728 494.50 728.50Q512 729 531 732L531 732L604 732L604 578Q461 494 414 483L414 483L468 437Q505 497 604 553ZM859 571L859 571L859 442Q859 414 839 414L839 414Q827 414 804.50 416.50Q782 419 748 424L748 424L748 408Q815 395 839 342L839 342Q852 343 884 367L884 367Q906 383 906 417L906 417L906 729L934 751L884 802L852 764L685 764L720 729Q757 735 795 735L795 735L859 735L859 594Q789 551 743.50 525.50Q698 500 669 496L669 496L720 442Q724 456 760 487.50Q796 519 859 571ZM181 168L181 168Q166 185 144.50 207Q123 229 92 254L92 254L85 244Q130 164 144 105L144 105Q160 58 185 90L185 90Q214 131 181 168ZM361 512L317 471L157 471Q180 509 208.50 564Q237 619 270 688L270 688Q305 657 332 629.50Q359 602 373 578L373 578Q403 531 417 578L417 578Q436 624 396 650L396 650Q376 662 345.50 673Q315 684 273 701L273 701Q278 721 295 751L295 751L317 770L250 811Q212 691 163.50 582Q115 473 51 370L51 370L64 363Q83 380 103.50 403Q124 426 144 455L144 455L165 437Q181 439 190.50 440.50Q200 442 203 442L203 442L235 442L235 335L73 335L106 301Q122 303 142.50 305Q163 307 185 307L185 307L235 307L235 39Q187 29 147.50 21Q108 13 79 11L79 11L119-50Q168-28 251.50-1.50Q335 25 452 67L452 67L452 83L283 46L283 83Q318 118 346.50 147.50Q375 177 399 206L399 206L433 229L376 285Q348 221 325.50 175Q303 129 283 108L283 108L283 307L437 307L386 370L335 335L283 335L283 442L421 442L361 512Z"/></svg>