<svg id="U28E89" viewBox="0 0 1000 1000"><path transform="translate(0, 900) scale(1,-1)" d="M584 671C607 609 626 530 630 480L699 500C695 548 674 627 650 687ZM767 691C822 622 874 528 892 466L957 497C937 558 883 650 827 717ZM78 797L78-80L146-80L146 729L278 729C257 661 228 570 198 497C270 419 289 352 289 298C289 267 284 240 268 229C260 224 249 221 236 220C220 219 201 220 178 222C190 202 196 173 197 155C220 154 244 154 265 157C285 159 303 165 317 175C344 194 356 236 356 290C356 352 340 423 266 506C300 586 337 688 366 771L318 800L306 797ZM450 773C436 682 404 562 351 487C368 479 394 462 407 450C454 515 487 613 509 702C647 714 805 736 909 772L854 829C774 799 631 776 503 763ZM614 459L614 348L381 348L381 282L572 282C513 175 411 74 307 23C324 9 347-17 358-36C455 21 551 122 614 235L614-80L686-80L686 236C747 127 836 22 923-36C935-18 958 8 974 21C882 74 784 176 728 282L950 282L950 348L686 348L686 459Z"/></svg>