<svg id="U28C0C" viewBox="0 0 1024 1024"><path transform="translate(0, 921.6) scale(1,-1)" d="M433 707L433 707L531 707L490 757L456 732L433 732L433 766L456 791L389 814Q391 790 391.50 769Q392 748 392 732L392 732L273 732L273 763L292 786L222 814Q224 794 224.50 774.50Q225 755 225 732L225 732L98 732L125 704Q138 706 152.50 706.50Q167 707 181 707L181 707L225 707Q225 695 224.50 676.50Q224 658 222 637L222 637L273 650L273 653L305 653L305 612L216 612L166 631Q168 607 168.50 588.50Q169 570 169 558L169 558Q169 543 168.50 524Q168 505 166 480L166 480L216 493L216 501L305 501L305 452L92 452L128 414Q146 416 165 418Q184 420 204 423L204 423L305 423Q305 402 304.50 376Q304 350 302 323L302 323L354 341Q351 358 351 380L351 380Q351 402 351 423L351 423L547 423L497 483L459 452L351 452L351 501L433 501L433 489L484 501Q477 516 477 581L477 581L500 596L456 634L433 612L351 612L351 653L392 653L392 637L436 653Q433 666 433 707ZM273 678L273 707L392 707L392 678L273 678ZM216 530L216 586L305 586L305 530L216 530ZM351 530L351 586L433 586L433 530L351 530ZM654 789L588 823Q570 769 543 724.50Q516 680 484 640L484 640L493 631Q519 649 544 674Q569 699 591 722L591 722L858 722L858 578Q858 496 849 439L849 439Q843 379 821 379L821 379Q792 374 708 379L708 379L708 367Q793 357 799 319L799 319Q855 330 881 360L881 360Q903 386 903 499L903 499Q903 556 904.50 612.50Q906 669 906 729L906 729L931 745L878 782L849 748L603 748Q621 783 654 789L654 789ZM663 653L663 653L515 653L547 619Q563 624 582 625.50Q601 627 626 627L626 627L846 627L796 678L761 653L688 653Q711 672 701 691L701 691Q691 695 674.50 701.50Q658 708 632 716L632 716L626 709Q663 672 663 653ZM651 571L789 571L745 615L711 596L547 596L575 571Q604 577 651 571L651 571ZM711 555L554 555L585 524Q603 530 654 530L654 530L789 530L745 571L711 555ZM606 505L554 521L554 385L603 395L603 404L723 404L723 388L777 401Q771 417 770.50 437.50Q770 458 770 480L770 480L789 496L745 521L720 505L606 505ZM603 433L603 480L723 480L723 433L603 433ZM616-19L616-19L531-19L531 77L660 77Q645 47 634 24.50Q623 2 616-19ZM200-44L940-44L884 23L827-19L635-19Q690 42 723 48L723 48L680 77L821 77L764 146L720 105L531 105L531 190L704 190L644 249L594 218L305 218L343 180Q376 190 428 190L428 190L484 190L484 105L213 105L251 64Q262 68 273.50 71.50Q285 75 298 77L298 77Q331 48 351-19L351-19L83-19L119-57Q145-44 200-44L200-44ZM497 423L497 423L547 379L518 364Q706 241 960 228L960 228L960 212Q904 208 884 168L884 168Q685 199 500 347L500 347Q330 207 63 149L63 149L63 165Q135 185 199 217Q263 249 323 282L323 282Q438 349 497 423ZM330 77L330 77L484 77L484-19L367-19Q399 22 383 39L383 39Q375 60 330 77Z"/></svg>