<svg id="U286B8" viewBox="0 0 1024 1024"><path transform="translate(0, 921.6) scale(1,-1)" d="M266 280L194 327Q187 292 175.50 253Q164 214 147 170L147 170Q128 123 109.50 85Q91 47 73 16L73 16L83 6Q115 40 153.50 102Q192 164 238 255L238 255L266 280ZM421 327L421 327L408 318Q448 258 476 210Q504 162 515 119L515 119Q535 36 556 63L556 63Q578 95 575 129L575 129Q570 146 559.50 167Q549 188 528 214L528 214Q496 253 421 327ZM194 25L194 25L194 6Q290-11 295-74L295-74Q374-37 374 38L374 38L374 394L402 425L320 463L323 355L323 255L323 57Q319 24 305 19L305 19Q288 14 194 25ZM616-77L616-77L676-52Q673 3 673 56L673 56Q673 109 673 160L673 160L673 730L852 730L732 485Q772 443 802 414.50Q832 386 849 365L849 365Q887 315 887 268L887 268Q892 209 855 180L855 180Q829 148 682 173L682 173L682 151Q790 132 799 75L799 75Q917 112 937 211L937 211Q956 303 906 365L906 365Q855 422 767 488L767 488Q803 551 840 609Q877 667 915 725L915 725L950 743L896 797L858 756L673 756L616 797Q616 742 617.50 689Q619 636 619 579L619 579L619 157Q619 103 617.50 44.50Q616-14 616-77ZM500 481L500 481Q507 465 514.50 447Q522 429 525 413L525 413Q537 381 559 406L559 406Q585 428 575 479L575 479Q559 524 411 630L411 630L402 620Q459 559 487 507L487 507Q415 502 342 498Q269 494 194 488L194 488Q232 519 270 563.50Q308 608 351 668L351 668L387 684L330 730L600 730L541 803L487 756L96 756L128 722Q144 724 161 725Q178 726 197 730L197 730L314 730Q297 689 275 651Q253 613 225 576L225 576Q172 501 122 488L122 488L153 413Q173 426 295 450L295 450Q352 462 403.50 468.50Q455 475 500 481Z"/></svg>