<svg id="U28C2C" viewBox="0 0 1024 1024"><path transform="translate(0, 921.6) scale(1,-1)" d="M544 591L423 591L459 553Q501 566 544 566L544 566L544 573L544 516L442 516L477 478Q496 482 512.50 486Q529 490 544 490L544 490L544 443L395 443L430 406Q470 418 521 418L521 418L531 418Q486 347 449 314L449 314Q425 290 407.50 273Q390 256 377 247L377 247L382 239Q413 245 487 308L487 308Q519 336 543.50 363Q568 390 584 418L584 418L719 418Q738 394 755.50 373Q773 352 792 336L792 336Q824 294 893 260L893 260Q906 288 953 288L953 288L953 308Q937 312 914 320Q891 328 861 339L861 339Q828 353 799.50 371Q771 389 748 418L748 418L946 418L896 481L852 443L751 443L751 490L893 490L848 550L811 516L751 516L751 566L902 566L845 629L811 591L751 591L751 625L773 648L707 676Q707 655 708.50 633.50Q710 612 710 591L710 591L590 591L590 625L609 648L540 682Q540 658 542 635Q544 612 544 591L544 591ZM590 516L590 566L710 566L710 516L590 516ZM590 443L590 490L710 490L710 443L590 443ZM459 714L459 751L442 751Q438 699 408 673L408 673Q378 643 395 629L395 629Q403 603 426 616L426 616Q453 628 459 654L459 654Q461 668 461 677L461 677Q461 686 461 689L461 689L852 689L824 638L830 632Q885 689 934 689L934 689L886 745L855 714L672 714Q701 739 691 768L691 768Q687 787 609 824L609 824L596 815Q647 759 647 714L647 714L459 714ZM773 342L745 317L540 317L487 336Q487 312 490 293Q493 274 493 257L493 257L493 159Q493 140 490 118Q487 96 487 69L487 69L537 87L537 100L824 100Q809 4 792-15L792-15Q772-38 675-15L675-15L675-27Q744-47 754-78L754-78Q823-68 836-34L836-34Q844-14 853.50 15.50Q863 45 871 93L871 93L893 109L852 147L827 125L681 125L681 159L845 159L798 210L763 185L681 185L681 223L836 223L792 280L757 247L681 247L681 288L824 288L773 342ZM537 288L637 288L637 247L537 247L537 288ZM537 185L537 223L637 223L637 185L537 185ZM537 159L637 159L637 125L537 125L537 159ZM698 93L698 93L688 87Q713 54 732 15L732 15Q750-17 767 15L767 15Q780 57 698 93ZM619 93L613 87Q624 71 633 52Q642 33 650 10L650 10Q664-35 681 7L681 7Q700 44 619 93L619 93ZM544 74L544 74L534 72Q553 33 559-11L559-11Q564-58 593-27L593-27Q626 1 544 74ZM483 72L483 72L467 72Q453 27 420-9L420-9Q390-43 439-47L439-47Q483-50 483 72ZM109 282L109 282L101 276Q113 233 121.50 195.50Q130 158 133 128L133 128Q138 71 174 115L174 115Q218 168 109 282ZM333 516L288 478L112 478L133 443Q164 452 197 452L197 452L210 452L210 349L70 349L101 314Q138 323 210 323L210 323L210 65Q173 53 139 44Q105 35 70 33L70 33L107-27Q143-9 216 18Q289 45 401 87L401 87L398 103L253 69L253 106Q315 166 357 223L357 223L379 232L323 282Q310 240 292.50 202.50Q275 165 253 131L253 131L253 323L398 323L344 383L304 349L253 349L253 452L379 452L333 516ZM231 707L231 707Q261 674 284.50 647Q308 620 320 597L320 597Q344 559 361 591L361 591Q374 628 348 657L348 657Q327 674 241 723L241 723L259 764L282 780L222 824Q193 728 150 631Q107 534 50 434L50 434L60 424Q82 443 101 469Q120 495 146 537L146 537Q172 577 191.50 619.50Q211 662 231 707Z"/></svg>