<svg id="U288C0" viewBox="0 0 1024 1024"><path transform="translate(0, 921.6) scale(1,-1)" d="M720 761L720 761L742 779L667 811Q663 779 658.50 747.50Q654 716 647 685L647 685L465 685L497 650Q514 652 533.50 652.50Q553 653 572 656L572 656L641 656Q612 565 562 488Q512 411 446 345L446 345L452 335Q480 352 505.50 370Q531 388 550 411L550 411Q550 339 548.50 284.50Q547 230 547 190L547 190L597 206L597 222L685 222L685 26Q685-2 667-6L667-6Q658-6 638.50-4Q619-2 588 2L588 2L588-13Q656-32 667-85L667-85Q736-57 736 11L736 11L736 222L805 222L805 203L858 222Q855 237 855 404L855 404Q875 386 903 370L903 370Q920 394 960 401L960 401L960 414Q889 429 818 512L818 512Q854 559 912 584L912 584L858 635Q848 591 802 527L802 527Q780 548 761.50 581Q743 614 726 656L726 656L950 656L893 729L852 685L698 685Q700 702 705.50 721.50Q711 741 720 761ZM695 656L695 656L708 656Q731 546 786 477L786 477L603 477Q635 524 658 568.50Q681 613 695 656ZM597 370L597 452L805 452L805 370L597 370ZM597 247L597 342L805 342L805 247L597 247ZM647 140L582 185Q540 63 449-34L449-34L456-47Q518-7 613 121L613 121L647 140ZM786 168L786 168L777 159Q841 70 858 33L858 33Q867 16 875 1Q883-14 890-28L890-28Q898-54 919-25L919-25Q939 12 915 49L915 49Q892 90 786 168ZM484 628L484 628L480 615Q519 566 528 530L528 530Q546 487 562 515L562 515Q583 545 569 571L569 571Q556 593 484 628ZM436 105L436 105L436 515L465 537L418 587L389 546L346 546L346 701L480 701L428 764L380 726L63 726L101 691Q116 693 131 694Q146 695 166 701L166 701L197 701L197 546L140 546L96 584Q98 551 98 484L98 484Q98 418 98 313L98 313Q98 208 98 112L98 112Q98 16 96-72L96-72L140-41L140 2L392 2L392-57L443-34Q437-6 436.50 28.50Q436 63 436 105ZM238 546L238 701L302 701L302 546L238 546ZM351 298L351 298L392 298L392 185L140 185L140 518L197 518Q197 424 184 373L184 373Q179 313 138 241L138 241L143 234Q211 296 222 370L222 370Q231 402 234.50 438.50Q238 475 238 518L238 518L302 518L302 345Q302 298 351 298ZM346 373L346 518L392 518L392 335L358 335Q346 335 346 373L346 373ZM392 159L392 26L140 26L140 159L392 159Z"/></svg>