<svg id="U28210" viewBox="0 0 1024 1024"><path transform="translate(0, 921.6) scale(1,-1)" d="M645 293L645 293L329 274L329 643L698 643L698 337Q686 327 672 316Q658 305 645 293ZM755 391L755 391L755 636L783 661L730 709L694 668L427 668Q516 760 544 766L544 766L468 813Q461 786 446 749.50Q431 713 405 668L405 668L332 668L273 705Q275 645 275 537L275 537Q275 430 275 271L275 271L76 262L109 198Q142 207 269 221.50Q396 236 616 258L616 258Q492 155 352 78.50Q212 2 45-49L45-49L51-62Q412 6 701 268L701 268L701 34Q701 4 676 0L676 0Q646 0 556 6L556 6L556-5Q662-28 666-86L666-86Q755-57 755 10L755 10L755 318Q787 354 819.50 388Q852 422 887 460L887 460L918 473L858 538Q840 489 755 391Z"/></svg>