<svg id="U284C7" viewBox="0 0 1024 1024"><path transform="translate(0, 921.6) scale(1,-1)" d="M424 766L424 766L421 753Q479 727 523 707.50Q567 688 594 674L594 674Q511 614 380 561L380 561L383 545Q557 596 635 646L635 646Q680 616 714 593.50Q748 571 767 551L767 551Q805 513 814 551L814 551Q823 588 796 611L796 611Q781 623 751 638Q721 653 673 677L673 677Q684 682 700 692.50Q716 703 732 715L732 715Q749 722 769.50 732.50Q790 743 811 753L811 753L745 800Q712 749 629 699L629 699Q587 716 536.50 732.50Q486 749 424 766ZM691 142L691 142L691 126Q759 116 773 57L773 57Q849 78 849 151L849 151L849 309L881 334L824 378L796 344L660 344L660 396L688 425L610 453Q610 425 611.50 397Q613 369 613 344L613 344L484 344L474 353Q499 379 520.50 406.50Q542 434 562 463L562 463L919 463L852 532L802 488L575 488Q597 540 629 551L629 551L559 592Q552 563 542 537Q532 511 518 488L518 488L323 488L358 453Q391 463 436 463L436 463L503 463Q468 406 419.50 352Q371 298 307 249L307 249L317 236Q352 252 380 272Q408 292 428 312L428 312Q428 212 427.50 152.50Q427 93 424 72L424 72L477 95L477 314L613 314L613 119Q613 76 611.50 46Q610 16 610-1L610-1L667 19Q661 33 660.50 63.50Q660 94 660 139L660 139L660 314L796 314L796 154Q796 141 773 136L773 136Q763 136 741.50 136.50Q720 137 691 142ZM153 766L143 756Q204 678 213 611L213 611Q225 554 251 589L251 589Q284 629 266 664L266 664Q249 705 153 766L153 766ZM207 447L63 447L98 409Q118 414 136.50 418Q155 422 172 422L172 422L210 422L210 98Q159 68 123.50 43.50Q88 19 63 0L63 0L117-49Q130-22 149.50-0.50Q169 21 187 41L187 41Q230 84 261 57L261 57Q292 24 336-5L336-5Q388-45 484-58L484-58Q533-66 633.50-70Q734-74 887-74L887-74Q887-27 960-14L960-14L960 3Q873-8 788-12Q703-16 616-14L616-14Q454-10 383 10L383 10Q315 40 263 98L263 98L263 409L295 435L238 485L207 447Z"/></svg>