<svg id="U28647" viewBox="0 0 1024 1024"><path transform="translate(0, 921.6) scale(1,-1)" d="M500 571L367 571L402 537Q433 546 477 546L477 546L500 546L500 506L380 506L411 471Q432 473 452.50 475Q473 477 500 477L500 477L500 430L333 430L367 396Q384 397 401.50 399Q419 401 443 401L443 401L484 401Q467 379 447 359Q427 339 405 319L405 319Q386 303 364.50 287Q343 271 317 257L317 257L323 244Q393 271 446 313L446 313Q474 332 498 355Q522 378 544 401L544 401L695 401Q722 353 761 319L761 319Q784 298 816 277Q848 256 893 237L893 237Q900 267 956 278L956 278L956 291Q924 293 894.50 301Q865 309 837 323L837 323Q804 337 774.50 357.50Q745 378 717 401L717 401L925 401L871 461L827 430L720 430L720 477L878 477L827 534L783 506L720 506L720 546L884 546L827 606L783 571L720 571L720 606L742 625L673 653Q673 632 674.50 611Q676 590 676 571L676 571L544 571L544 606L565 625L497 660Q497 636 498.50 615.50Q500 595 500 571L500 571ZM544 506L544 546L676 546L676 506L544 506ZM544 430L544 477L676 477L676 430L544 430ZM402 691L402 729L387 729Q379 669 351 647L351 647Q323 616 333 603L333 603Q344 583 371 594L371 594Q397 606 402 632L402 632Q405 647 405 666L405 666L834 666L808 615L818 612Q844 645 868 653L868 653Q891 669 919 669L919 669L858 726L830 691L644 691Q669 725 660 748L660 748Q656 767 562 802L562 802L556 792Q613 729 613 691L613 691L402 691ZM720 332L506 332L459 352Q464 215 459 93L459 93L506 111L506 118L723 118L723 105L777 124Q774 147 773.50 171.50Q773 196 773 226L773 226L773 301L789 316L749 354L720 332ZM723 304L723 263L506 263L506 304L723 304ZM506 237L723 237L723 203L506 203L506 237ZM723 178L723 144L506 144L506 178L723 178ZM657 108L657 108L654 93Q686 71 711.50 51Q737 31 752 8L752 8Q784-27 799 11L799 11Q815 60 657 108ZM392-3L402-13Q482 12 556 62L556 62L585 64L537 118Q513 87 477 56.50Q441 26 392-3L392-3ZM166 786L156 776Q211 705 225 650L225 650Q241 580 266 625L266 625Q292 661 273 701L273 701Q259 727 166 786L166 786ZM60-31L60-31L104-75Q128-19 200 62L200 62Q305-20 421-50L421-50Q525-71 878-65L878-65Q890-16 963-3L963-3L963 11Q866-2 762.50-7Q659-12 547-9L547-9Q327-5 232 80L232 80Q250 128 269 170Q288 212 307 254L307 254L336 275L292 326L263 298L194 298Q224 359 245 398.50Q266 438 276 458L276 458L314 477L266 537L232 496L89 496L122 458L166 471L228 471L147 304L114 282L159 237L191 272L257 272Q238 220 215.50 171Q193 122 176 77L176 77Q146 54 119 26.50Q92-1 60-31Z"/></svg>