<svg id="U289FA" viewBox="0 0 1000 1000"><path transform="translate(0, 900) scale(1,-1)" d="M76 279C93 220 108 143 112 92L161 108C156 157 140 234 122 292ZM334 304C325 250 306 170 290 120L332 104C349 151 370 225 387 286ZM230 846C185 748 108 655 31 596C42 578 57 537 62 521C78 534 93 549 109 565L109 521L205 521L205 411L57 411L57 346L205 346L205 57L46 22L61-45C153-22 279 10 398 41L394 101L263 71L263 346L391 346L391 411L263 411L263 521L361 521L361 585L128 585C166 626 201 673 233 722C291 678 352 623 389 580L422 642C384 682 324 734 264 777L285 820ZM428 416L428 356L657 356L657 284L453 284L453 229L626 229C563 145 470 67 381 28C395 15 413-9 423-25C505 18 593 95 657 182L657-79L722-79L722 171C781 92 859 20 928-23C938-5 958 20 972 33C893 73 804 149 745 229L917 229L917 356L966 356L966 416L917 416L917 542L722 542L722 605L951 605L951 664L722 664L722 737C797 746 868 759 923 773L881 826C781 798 598 778 446 769C453 755 461 731 462 716C524 718 591 723 657 730L657 664L433 664L433 605L657 605L657 542L455 542L455 487L657 487L657 416ZM722 487L859 487L859 416L722 416ZM722 284L722 356L859 356L859 284Z"/></svg>