<svg id="U28A79" viewBox="0 0 1024 1024"><path transform="translate(0, 921.6) scale(1,-1)" d="M180 632L180 632L155 611L202 563L230 591L798 591L798 560L854 591Q851 610 850.50 638Q850 666 850 699L850 699L873 717L794 752Q794 719 796 684Q798 649 798 617L798 617L233 617L233 692L256 717L177 746Q179 722 179.50 693.50Q180 665 180 632ZM567 714L567 714Q596 726 618 739Q640 752 662 765L662 765L687 771L649 815L611 790L346 790L385 755Q401 757 419 758Q437 759 457 765L457 765L586 765Q567 752 549.50 742Q532 732 523 730L523 730Q488 732 443 740.50Q398 749 346 758L346 758L341 746Q373 736 408.50 725Q444 714 482 708L482 708Q421 668 297 639L297 639L300 629Q433 642 526 692L526 692Q621 662 665 635L665 635Q715 609 719 642L719 642Q719 671 683 689L683 689Q667 691 637 699Q607 707 567 714ZM470 421L472 406Q325 373 241 348Q157 323 139 311L139 311L103 374Q135 374 178.50 379Q222 384 277 396L277 396L277 513L240 513Q201 513 161 503L161 503L123 538L385 538L431 573L485 513L331 513L331 403L470 421ZM760 396L760 396L760 500L785 516L744 563L709 535L552 535L505 563Q507 530 503.50 498Q500 466 485 434L485 434Q462 369 338 311L338 311L341 302Q482 346 513 403L513 403Q552 452 552 509L552 509L709 509L709 380Q709 327 750 327L750 327L842 327Q869 327 886 332Q903 337 911 343L911 343Q917 355 895 368L895 368Q868 382 863 377L863 377Q852 368 775 368L775 368Q756 375 760 396ZM621-11L621-11L533-11L533 72L662 72Q650 42 639 24Q628 6 621-11ZM196-40L948-40L886 28L832-11L643-11Q698 35 721 43L721 43L687 72L826 72L765 141L719 97L533 97L533 176L700 176L643 239L593 205L315 205L350 166Q366 168 385.50 170.50Q405 173 429 176L429 176L482 176L482 97L192 97L224 56Q243 72 277 72L277 72L297 72Q328 49 341-11L341-11L81-11L117-49Q136-46 156.50-44Q177-42 196-40L196-40ZM555 331L511 380Q445 311 331 251L331 251Q213 185 62 148L62 148L62 128Q346 187 520 308L520 308Q703 182 883 151L883 151Q894 195 961 195L961 195L961 210Q726 224 536 324L536 324L555 331ZM322 72L322 72L482 72L482-11L366-11Q394 17 379 31L379 31Q365 53 322 72Z"/></svg>