<svg id="U28664" viewBox="0 0 1024 1024"><path transform="translate(0, 921.6) scale(1,-1)" d="M156 749L150 737Q205 676 220 620L220 620Q238 564 257 599L257 599Q285 630 269 668L269 668Q253 696 156 749L156 749ZM207 428L67 428L101 396Q117 396 136.50 398Q156 400 176 403L176 403L210 403L210 75Q162 52 126.50 28Q91 4 67-11L67-11L119-58Q132-35 149-13.50Q166 8 187 28L187 28Q228 69 257 44L257 44Q271 24 290.50 9Q310-6 333-17L333-17Q358-31 393-39.50Q428-48 477-58L477-58Q571-70 893-70L893-70Q893-38 956-23L956-23L956-5Q772-21 603-17L603-17Q522-12 463-7Q404-2 374 6L374 6Q310 24 263 79L263 79L263 396L295 416L235 466L207 428ZM387 692L387 725L371 725Q356 667 326 648L326 648Q299 625 305 617L305 617Q320 602 336 602L336 602Q360 602 371 620L371 620Q387 640 387 668L387 668L594 668Q594 608 591 571Q588 534 588 522L588 522L647 538Q644 554 644 668L644 668L871 668L840 617L852 611Q899 658 956 668L956 668L912 718L875 692L644 692L644 743L887 743L830 797L777 769L364 769L402 733Q418 736 436 737Q454 738 477 743L477 743L594 743L594 692L387 692ZM541 627L405 627L405 599L541 599L541 627ZM537 570L402 570L402 542L537 542L537 570ZM846 630L698 630L698 602L846 602L846 630ZM837 573L698 573L698 545L837 545L837 573ZM371 485L371 485L371 466Q428 466 495 470Q562 474 641 479L641 479Q723 483 781 488.50Q839 494 875 497L875 497L818 551Q792 539 755.50 528.50Q719 518 667 514L667 514Q616 504 542 497.50Q468 491 371 485ZM569 466L569 466L562 457Q590 424 600 400L600 400Q604 374 623 384L623 384Q627 391 632.50 399Q638 407 641 419L641 419Q644 439 569 466ZM846 444L780 476Q768 454 751 430Q734 406 714 378L714 378L374 378L374 406L361 406Q344 355 310 327L310 327Q278 304 295 290L295 290Q320 278 343 296L343 296Q370 310 374 350L374 350L855 350L834 306L846 303Q893 353 934 359L934 359L893 406L855 378L736 378Q804 432 846 444L846 444ZM428 318L428 318L415 318Q372 254 343 242L343 242Q311 226 343 214L343 214Q378 208 395 229L395 229Q420 254 428 318ZM462 350L462 350L528 324L510 303L510 280Q510 258 541 258L541 258L691 258Q720 258 720 268L720 268Q723 277 723 321L723 321L739 321Q739 269 777 258L777 258Q767 224 714 224L714 224L521 224Q465 224 465 271L465 271L465 286Q465 293 463.50 309.50Q462 326 462 350ZM777 331L777 331L770 321Q794 298 812 280Q830 262 840 245L840 245Q858 218 875 242L875 242Q892 271 871 290L871 290Q859 299 836.50 310Q814 321 777 331ZM415 460L415 460L408 453Q425 430 436 414.50Q447 399 452 388L452 388Q468 372 484 388L484 388Q495 417 490 422L490 422Q485 430 415 460ZM547 340L556 350Q641 331 647 309L647 309Q647 283 638 277L638 277Q624 259 606 286L606 286Q584 314 547 340L547 340ZM711 85L711 85Q731 94 751.50 107.50Q772 121 796 136L796 136L830 145L796 192L752 170L559 170L585 186L606 192L556 227Q478 145 383 104L383 104L387 91Q427 103 460.50 115.50Q494 128 525 145L525 145L732 145Q709 130 691.50 119Q674 108 657 104L657 104Q612 112 570 121Q528 130 490 136L490 136L484 126Q529 108 562 98Q595 88 616 79L616 79Q514 38 361 16L361 16L364 0Q520 9 663 63L663 63Q721 39 761.50 22.50Q802 6 821-5L821-5Q861-26 868-1L868-1Q872 22 846 44L846 44Q827 49 794.50 59.50Q762 70 711 85Z"/></svg>