<svg id="U28406" viewBox="0 0 1024 1024"><path transform="translate(0, 921.6) scale(1,-1)" d="M805 30L805 363L963 363L896 439L849 389L805 389L805 694L934 694L871 767L824 720L436 720L469 688Q482 690 499.50 690.50Q517 691 541 694L541 694L559 694L559 389L424 389L459 357Q474 359 492.50 361Q511 363 534 363L534 363L559 363Q555 182 490 80L490 80Q428-18 364-75L364-75L367-88Q453-43 534 62L534 62Q606 165 606 363L606 363L755 363L755 26Q755 6 753.50-21.50Q752-49 752-85L752-85L808-60Q805-33 805-12L805-12Q805 9 805 30L805 30ZM606 389L606 694L755 694L755 389L606 389ZM251-85L251-85L307-62Q305-34 305-2L305-2Q305 29 305 67L305 67L305 178L443 226L440 241L305 213L305 352L440 352L389 420L348 380L305 380L305 506L326 527L251 563L254 512L254 380L153 380Q172 437 192.50 495.50Q213 554 232 612L232 612L456 612L399 682L348 638L235 638Q244 661 252.50 690Q261 719 273 754L273 754L295 773L225 814Q218 771 210 727Q202 683 187 638L187 638L60 638L92 600Q106 602 121.50 605.50Q137 609 156 612L156 612L179 612Q164 555 146 501Q128 447 111 396L111 396L80 380L119 323L153 352L254 352L254 209Q206 197 160 189.50Q114 182 63 175L63 175L101 105Q113 114 150.50 131Q188 148 254 165L254 165L254 14Q254 0 253.50-26Q253-52 251-85Z"/></svg>