<svg id="U28B4C" viewBox="0 0 1000 1000"><path transform="translate(0, 900) scale(1,-1)" d="M75 279C90 220 103 143 106 92L152 109C148 158 135 235 119 294ZM297 304C289 250 272 170 259 120L299 103C314 149 332 222 347 285ZM413 230C434 186 454 127 461 88L519 109C512 146 490 205 467 248ZM460 424L629 424L629 326L460 326ZM397 480L397 271L694 271L694 480ZM884 543C847 457 776 366 706 312C725 299 746 279 758 263C835 325 906 422 950 521ZM896 253C853 136 767 28 662-32C679-46 699-67 710-85C824-14 913 101 962 234ZM615 252C601 201 575 128 553 79C479 64 411 50 358 40L354 96L241 68L241 346L360 346L360 411L241 411L241 521L329 521L329 585L121 585C153 626 184 673 211 723C259 683 308 634 338 596L367 658C337 694 288 740 239 779L256 820L208 846C169 748 102 655 37 596C46 578 60 537 64 520C78 534 93 550 107 567L107 521L187 521L187 411L61 411L61 346L187 346L187 55L51 22L65-46L354 34L371-27C470-5 604 26 732 56L725 115L623 94C644 136 667 188 686 232ZM878 818C841 736 773 648 710 595L710 600L580 600L580 680L735 680L735 742L580 742L580 840L512 840L512 742L365 742L365 680L512 680L512 600L387 600L387 539L710 539L710 593C727 581 748 563 760 547C829 608 899 703 943 796Z"/></svg>