<svg id="U281E4" viewBox="0 0 1024 1024"><path transform="translate(0, 921.6) scale(1,-1)" d="M343 701L343 701L365 720L325 776L293 738L141 738L90 773Q93 737 93 695L93 695Q93 654 93 600L93 600Q93 545 93 505L93 505Q93 466 90 442L90 442L138 468L138 489L211 489L211 77L151 59L151 326L170 352L106 404Q107 361 107 272L107 272Q107 183 107 42L107 42L55 26L96-31L129 0Q253 60 372 111L372 111L365 128L258 90L258 298L381 298L334 363L295 326L258 326L258 489L299 489L299 448L346 480Q343 516 343 571L343 571Q343 626 343 701ZM138 518L138 713L299 713L299 518L138 518ZM362 506L393 543Q393 395 392.50 300.50Q392 206 390 168L390 168L438 190L438 213L604 213L604 181L652 206Q649 251 649 320L649 320Q649 389 649 486L649 486L670 509L633 556L604 521L539 521Q550 537 564 555Q578 573 595 597L595 597Q630 638 649 638L649 638L608 704L573 660L472 660Q493 702 510.50 724Q528 746 535 751L535 751L479 808Q462 731 425 656L425 656Q390 570 359 521L359 521L362 506ZM573 635L529 521L434 521L400 546L460 635L573 635ZM438 386L438 493L501 493L501 386L438 386ZM542 386L542 493L604 493L604 386L542 386ZM438 237L438 357L501 357L501 237L438 237ZM542 237L542 357L604 357L604 237L542 237ZM696 773L696 773L690 758Q706 729 719 702Q732 675 740 647L740 647Q749 597 765 625L765 625Q783 657 775 685L775 685Q765 711 696 773ZM822 200L822 200L948 200L901 266L860 229L822 229L822 370L945 370L891 430L850 396L822 396L822 543L945 543L897 606L860 568L822 568Q886 728 920 751L920 751L860 798Q842 725 828.50 666.50Q815 608 803 568L803 568L670 568L706 537Q721 539 738 541Q755 543 775 543L775 543L775 396L683 396L709 357Q735 370 775 370L775 370L775 229L665 229L696 193Q714 196 731.50 198Q749 200 768 200L768 200L775 200Q775 146 773 75.50Q771 5 771-82L771-82L825-60Q822-6 822 57L822 57Q822 121 822 200ZM393 134L384 134Q349 47 328 26L328 26Q308 0 308-19L308-19Q308-41 334-41L334-41Q355-36 375-3L375-3Q388 27 393 134L393 134ZM441 152L434 144Q442 106 447 75Q452 44 454 21L454 21Q454-25 469-25L469-25Q486-18 491 5L491 5Q502 34 488 70L488 70Q481 87 469 106.50Q457 126 441 152L441 152ZM532 149L529 134Q538 96 546 66.50Q554 37 557 14L557 14Q561-29 580-16L580-16Q598 2 598 26L598 26Q598 63 580 83L580 83Q570 98 558 113Q546 128 532 149L532 149ZM617 156L614 144Q630 105 642.50 74Q655 43 658 18L658 18Q670-22 686-16L686-16Q691-6 696.50 1.50Q702 9 702 23L702 23Q705 35 699 50Q693 65 686 80L686 80Q660 118 617 156L617 156Z"/></svg>