<svg id="U2849C" viewBox="0 0 1024 1024"><path transform="translate(0, 921.6) scale(1,-1)" d="M410 515L410 515L397 515Q392 495 387.50 475.50Q383 456 379 433L379 433Q371 414 359 391Q347 368 331 348L331 348Q299 301 346 301L346 301Q396 308 410 354L410 354Q425 402 410 515ZM495 578L495 216Q417 123 315 67L315 67L328 59Q380 76 421.50 101.50Q463 127 498 156L498 156L498 137Q509 87 567 87L567 87L781 87Q844 87 873 134L873 134Q842 139 832 172L832 172Q827 188 823.50 209Q820 230 826 260L826 260L806 260Q802 222 800 197Q798 172 798 159L798 159Q792 134 760 134L760 134L596 134Q545 134 545 197L545 197Q620 276 683 381.50Q746 487 798 622L798 622L832 644L757 701Q700 479 545 266L545 266L545 603L574 632L489 676Q489 649 492 624Q495 599 495 578L495 578ZM526 798L526 798L520 786Q601 681 611 638L611 638Q622 583 643 632L643 632Q668 674 646 707L646 707Q630 736 526 798ZM788 493L788 493L775 480Q807 432 828.50 393.50Q850 355 863 326L863 326Q877 260 898 298L898 298Q916 338 907 370L907 370Q895 398 788 493ZM158 773L151 758Q209 677 218 619L218 619Q231 562 256 600L256 600Q287 643 271 676L271 676Q260 699 158 773L158 773ZM208 448L62 448L100 411Q122 413 140.50 416Q159 419 174 424L174 424L212 424L212 99Q161 70 125 45Q89 20 62 2L62 2L117-47Q131-20 150.50 1.50Q170 23 189 42L189 42Q230 89 262 59L262 59Q276 44 294 28.50Q312 13 335-3L335-3Q387-42 485-57L485-57Q533-65 633-68.50Q733-72 888-72L888-72Q888-25 961-13L961-13L961 5Q784-17 618-13L618-13Q443-5 385 14L385 14Q353 28 323 48Q293 68 265 99L265 99L265 411L294 437L236 486L208 448Z"/></svg>