<svg id="U28286" viewBox="0 0 1024 1024"><path transform="translate(0, 921.6) scale(1,-1)" d="M569 535L569 501Q540 477 506.50 451.50Q473 426 433 400L433 400L440 391Q513 417 569 450L569 450L569 409Q558 353 626 353L626 353L871 353Q924 353 944 394L944 394Q920 394 906 435L906 435Q900 455 899.50 472.50Q899 490 899 507L899 507L884 507Q884 438 881 425L881 425Q881 397 855 394L855 394L644 394Q607 394 613 425L613 425L613 444L862 444L808 504L764 469L613 469L613 476Q650 501 681.50 526.50Q713 552 742 573L742 573L956 573L903 640L852 602L764 602Q821 653 871 715L871 715L899 728L846 781Q830 742 786 689L786 689L742 737L704 705L685 705L685 749L711 774L632 813Q632 791 635 763Q638 735 638 705L638 705L493 705L528 671Q561 681 600 681L600 681L638 681L638 602L440 602L474 563Q491 565 509 567.50Q527 570 547 573L547 573L670 573Q655 559 641 545Q627 531 613 522L613 522L569 535ZM704 602L704 602L685 602L685 681L773 681Q748 636 704 602ZM796 195L796 195L565 186Q582 197 604.50 211.50Q627 226 651 242L651 242Q675 261 690 269Q705 277 711 280L711 280L937 280L875 340L827 309L440 309L477 274Q496 276 514 278Q532 280 554 280L554 280L641 280Q620 263 600.50 248.50Q581 234 562 221L562 221Q519 192 497 192L497 192L521 132Q536 137 551.50 141.50Q567 146 585 151L585 151Q603 153 657.50 160.50Q712 168 805 180L805 180Q811 168 817.50 159Q824 150 827 139L827 139Q840 117 862 142L862 142Q886 170 858 195L858 195Q840 217 758 268L758 268L749 255Q766 238 777 222.50Q788 207 796 195ZM657 79L657 79L471 79L506 44Q522 46 541 48.50Q560 51 582 51L582 51L657 51L657-29L415-29L452-64Q483-55 525-55L525-55L963-55L903 6L858-29L708-29L708 51L903 51L846 113L805 79L708 79L708 113L729 132L651 160Q651 144 654 122Q657 100 657 79ZM191 545L191 658L343 658L343 545L191 545ZM191 416L191 517L343 517L343 416L191 416ZM343 318L330 296L191 283L191 391L343 391L343 318ZM292 769L292 769L232 813Q232 791 223.50 760Q215 729 200 684L200 684L181 684L138 705Q139 620 139.50 514Q140 408 140 280L140 280L89 277L119 218Q122 221 317 277L317 277Q199 99 60-8L60-8L63-20Q150 25 219.50 88Q289 151 343 236L343 236L343 22Q343-11 326-11L326-11Q304-11 257-1L257-1L257-17Q279-20 307-36L307-36Q328-42 333-86L333-86Q387-68 392-11L392-11L392 309Q444 384 469 406L469 406L424 453Q419 441 412.50 426Q406 411 392 391L392 391L392 646L418 668L371 718L343 684L220 684Q245 716 262.50 738.50Q280 761 292 769Z"/></svg>