<svg id="U282AC" viewBox="0 0 1024 1024"><path transform="translate(0, 921.6) scale(1,-1)" d="M484 578L83 578L117 543Q132 545 151 547.50Q170 550 191 550L191 550L940 550L875 619L821 578L510 578Q549 599 591.50 622Q634 645 680 666L680 666L717 676L663 735L626 704L367 704L418 754L449 764L383 811Q346 749 293.50 696Q241 643 172 597L172 597L181 584Q233 610 272.50 632.50Q312 655 346 679L346 679L610 679Q581 655 548.50 630Q516 605 484 578L484 578ZM531 348L732 348L732 288L531 288L531 348ZM480 288L279 288L279 348L480 348L480 288ZM480 263L480 193L279 193L279 263L480 263ZM531 193L531 263L732 263L732 193L531 193ZM840 96L531 96L531 168L732 168L732 137L793 159Q787 188 786.50 218Q786 248 786 282L786 282L786 335L818 363L761 414L726 373L531 373L531 442L862 442L799 515L755 468L531 468L531 506L559 530L474 559Q478 527 479 503.50Q480 480 480 465L480 465L150 465L184 430Q203 432 222 435.50Q241 439 261 439L261 439L480 439L480 373L279 373L222 401Q229 270 222 137L222 137L279 159L279 168L480 168L480 96L63 96L101 62Q117 63 136.50 66.50Q156 70 176 70L176 70L480 70Q480 27 479-11Q478-49 474-85L474-85L534-62Q531-17 531 15L531 15Q531 47 531 70L531 70L960 70L899 146L840 96Z"/></svg>