<svg id="U2885E" viewBox="0 0 1024 1024"><path transform="translate(0, 921.6) scale(1,-1)" d="M911 70L911 70L911 534L942 563L883 612L850 565L655 565Q672 610 691.50 651.50Q711 693 728 729L728 729L958 729L898 798L850 754L464 754L498 717Q514 719 531.50 721.50Q549 724 570 729L570 729L668 729Q661 687 653 646Q645 605 637 565L637 565L561 565L513 597Q516 552 516.50 484.50Q517 417 517 332L517 332Q517 248 516.50 148.50Q516 49 513-65L513-65L561-44L561 8L863 8L863-62L917-41Q912-3 911.50 23Q911 49 911 70ZM561 33L561 540L863 540L863 33L561 33ZM454 115L454 115L454 534L476 559L420 615L394 563L346 563L346 729L470 729L416 795L372 754L65 754L97 717Q115 719 133.50 721.50Q152 724 174 729L174 729L192 729L192 563L133 563L88 603Q91 569 91 500L91 500Q91 431 91 326L91 326Q91 220 91 121L91 121Q91 22 88-72L88-72L133-41L133 8L403 8L403-57L457-28Q454 0 454 34L454 34Q454 69 454 115ZM240 563L240 729L303 729L303 563L240 563ZM356 307L356 307L403 307L403 188L133 188L133 537L192 537Q192 459 183 389L183 389Q179 330 133 254L133 254L142 244Q214 313 224 386L224 386Q233 418 236.50 456.50Q240 495 240 537L240 537L303 537L303 363Q303 307 356 307ZM346 389L346 537L403 537L403 348L366 348Q346 348 346 389L346 389ZM403 159L403 33L133 33L133 159L403 159ZM655 190L655 437L765 437L765 190L655 190ZM809 430L839 448L788 502L757 461L659 461L608 489Q608 468 609.50 448.50Q611 429 611 408L611 408L611 172Q611 152 609.50 137.50Q608 123 608 111L608 111L655 131L655 165L765 165L765 118L813 144Q810 159 809.50 177Q809 195 809 213L809 213L809 430Z"/></svg>