<svg id="U28BDC" viewBox="0 0 1024 1024"><path transform="translate(0, 921.6) scale(1,-1)" d="M663 750L682 769L638 810L613 782L428 782L380 814L380 445L251 445L248 527L367 527L323 583L289 552L248 552L245 634L367 634L323 688L285 660L245 660L241 753Q276 758 305.50 764Q335 770 361 773L361 773L314 820Q291 787 241 773L241 773L191 786Q193 723 198.50 637Q204 551 207 445L207 445L166 445L163 489L147 489Q128 392 98 367L98 367Q69 341 80 319L80 319Q96 305 131 319L131 319Q171 342 166 420L166 420L865 420L830 332L849 326Q884 391 960 433L960 433L896 489L865 445L818 445L846 735L875 757L824 801L796 769L691 769L717 732Q747 746 770 742L770 742L796 742L789 656L688 656L714 622Q730 624 747 626Q764 628 786 634L786 634L780 552L682 552L711 521Q742 530 777 530L777 530L770 445L663 445L663 750ZM424 757L619 757L619 445L424 445L424 757ZM537 707L430 707L459 668Q481 681 525 681L525 681L616 681L572 738L537 707ZM582 609L600 634L562 663L541 637L497 637L462 656L462 480L497 489L497 505L544 505L544 489L582 511L582 609ZM497 609L544 609L544 530L497 530L497 609ZM500 423L500 423Q373 291 60 212L60 212L63 197Q341 246 500 351L500 351Q675 229 893 197L893 197Q898 232 963 247L963 247L963 259Q722 255 521 364L521 364L559 373L500 423ZM285 115L295 118Q356 84 377 64L377 64Q403 44 377 6L377 6Q348-27 339 9L339 9Q330 46 285 115L285 115ZM720 64L752 80L682 121Q673 87 657.50 51.50Q642 16 619-16L619-16L537-16L537 118L824 118L758 187L714 143L537 143L537 218L714 218L644 285L600 247L289 247L326 208Q345 211 365.50 213Q386 215 405 218L405 218L484 218L484 143L191 143L228 105Q245 109 265 112Q285 115 305 118L305 118L484 118L484-16L83-16L119-54Q150-42 197-42L197-42L944-42L878 23L824-16L641-16Q657 1 677.50 21Q698 41 720 64L720 64Z"/></svg>