<svg id="U28B82" viewBox="0 0 1024 1024"><path transform="translate(0, 921.6) scale(1,-1)" d="M503-58L503-58L554-33L554-11Q595-18 600-62L600-62Q654-46 654 3L654 3L654 507L676 526L635 570L606 532L528 532Q622 646 654 652L654 652L613 705L578 671L484 671Q496 691 506 711Q516 731 528 753L528 753L554 766L484 815Q481 792 473 759.50Q465 727 446 687L446 687Q433 648 410.50 603Q388 558 354 507L354 507L364 494Q392 517 411 548L411 548Q416 336 399 186L399 186Q389 44 298-77L298-77L305-90Q434 12 452 233L452 233L510 233Q510 114 506.50 44Q503-26 503-58ZM554 6L554 233L610 233L610 22Q610-2 554 6L554 6ZM456 394L456 507L510 507L510 394L456 394ZM554 394L554 507L610 507L610 394L554 394ZM456 258L456 368L510 368L510 258L456 258ZM554 258L554 368L610 368L610 258L554 258ZM477 646L477 646L575 646L503 532L456 532L421 563Q430 578 444 597Q458 616 477 646ZM789 535L789 535L789 522Q858 498 858 463L858 463Q917 483 922 545L922 545L928 696L956 715L906 762L878 725L657 725L691 687Q715 693 729 694.50Q743 696 749 699L749 699Q743 556 670 453L670 453L680 447Q786 515 796 699L796 699L881 699L871 563Q871 532 852 532L852 532Q845 532 828 532L828 532Q812 532 789 535ZM786-80L786-80L840-62Q835-42 834.50 10.50Q834 63 834 154L834 154L960 154L912 218L878 180L834 180L834 293L947 293L899 355L865 318L834 318L834 403L858 432L786 463Q786 441 787.50 405.50Q789 370 789 318L789 318L726 318Q730 330 736.50 348.50Q743 367 749 394L749 394L767 409L708 438Q706 420 701.50 394.50Q697 369 691 337L691 337Q686 311 676 278.50Q666 246 654 211L654 211L660 201Q699 250 717 293L717 293L789 293L789 180L660 180L695 145Q719 151 741 152.50Q763 154 789 154L789 154Q789 70 787.50 12.50Q786-45 786-80ZM114 271L114 271L108 262Q133 174 140 116L140 116Q143 61 181 104L181 104Q220 157 114 271ZM339 504L295 466L117 466L140 432Q157 434 173 436Q189 438 204 438L204 438L213 438L213 337L73 337L108 299Q137 312 213 312L213 312L213 54Q178 42 144.50 33Q111 24 73 22L73 22L111-39Q149-20 213.50 7Q278 34 374 72L374 72L367 85L261 57L261 95Q290 124 319 155Q348 186 377 221L377 221L399 229L343 277Q325 232 305.50 192Q286 152 261 119L261 119L261 312L402 312L348 372L307 337L261 337L261 438L383 438L339 504ZM248 687L248 687Q283 653 305 625.50Q327 598 339 579L339 579Q364 542 377 579L377 579Q390 613 367 640L367 640Q356 647 327.50 661.50Q299 676 251 699L251 699L276 746L298 762L232 807Q203 711 162 613.50Q121 516 63 416L63 416L70 409Q112 437 163 520L163 520Q185 556 206.50 597.50Q228 639 248 687Z"/></svg>