<svg id="U28E57" viewBox="0 0 1024 1024"><path transform="translate(0, 921.6) scale(1,-1)" d="M764 110L764 313L945 313L874 390L829 339L764 339L764 587L916 587L851 658L806 613L690 613Q731 673 756 711.50Q781 750 793 771L793 771L826 787L738 833Q733 799 716.50 744.50Q700 690 671 613L671 613L361 613L397 577Q413 579 431 583Q449 587 470 587L470 587L500 587L500 339L355 339L390 306Q410 310 427.50 311.50Q445 313 461 313L461 313L500 313Q495 186 451 87L451 87Q427 39 393-0.50Q359-40 316-79L316-79L329-88Q442-20 490 71L490 71Q543 153 555 313L555 313L709 313L709 77Q709 58 707.50 17Q706-24 706-85L706-85L767-56Q764-5 764 36L764 36Q764 78 764 110L764 110ZM555 339L555 587L709 587L709 339L555 339ZM470 826L470 826L458 816Q484 769 498.50 733Q513 697 519 671L519 671Q528 626 548 638L548 638Q557 649 562.50 661Q568 673 571 684L571 684Q575 703 558 735L558 735Q546 750 525.50 771.50Q505 793 470 826ZM79-82L135-50L135 726L290 726L213 516Q277 431 287 390L287 390Q294 343 290 306L290 306Q284 274 239 274L239 274Q218 277 195.50 277.50Q173 278 151 287L151 287L151 271Q227 245 232 200L232 200Q287 213 316 242L316 242Q330 254 336 274Q342 294 348 316L348 316Q353 372 329 416L329 416Q315 437 293 462Q271 487 239 516L239 516Q267 572 294 620.50Q321 669 348 716L348 716L371 735L313 787L287 751L139 751L79 787Q82 726 82 624L82 624Q82 522 82 374L82 374Q82 223 82 111L82 111Q82-1 79-82L79-82Z"/></svg>