<svg id="U286D4" viewBox="0 0 1024 1024"><path transform="translate(0, 921.6) scale(1,-1)" d="M195 36L195 266L460 266L460 36L195 36ZM422 612L422 612L416 600Q456 553 483 513.50Q510 474 526 442L526 442Q553 379 573 420L573 420Q600 457 570 499L570 499Q553 518 516 546Q479 574 422 612ZM138-60L138-60L195-34L195 11L460 11L460-44L516-21Q513 17 513 55L513 55Q513 94 513 137L513 137L513 254L545 285L488 332L457 291L201 291L138 326Q140 269 140.50 224Q141 179 141 144L141 144Q141 102 140.50 51Q140 0 138-60ZM403 732L403 732L596 732L535 805L488 758L90 758L123 720Q141 726 159 727.50Q177 729 198 732L198 732L337 732Q321 697 298 660Q275 623 246 581L246 581Q215 536 168.50 488Q122 440 64 389L64 389L71 376Q228 472 311 584L311 584L311 437Q311 400 310 367.50Q309 335 305 307L305 307L365 339Q362 366 362 388L362 388Q362 410 362 430L362 430L362 553L390 578L331 612Q349 643 367.50 673Q386 703 403 732ZM630-78L630-78L689-50Q686 2 686 53L686 53Q686 104 686 152L686 152L686 717L860 717Q843 657 817.50 593.50Q792 530 762 461L762 461Q921 312 894 226L894 226Q865 128 709 190L709 190L709 168Q796 143 819 90L819 90Q933 115 957 226L957 226Q964 274 926 335Q888 396 797 465L797 465Q832 538 862 596.50Q892 655 917 701L917 701L954 729L900 786L860 745L693 745L630 789Q630 734 631.50 681.50Q633 629 633 574L633 574L633 149Q633 95 631.50 37.50Q630-20 630-78Z"/></svg>