<svg id="U28562" viewBox="0 0 1024 1024"><path transform="translate(0, 921.6) scale(1,-1)" d="M737 511L737 511L728 501Q770 454 794 426L794 426L489 416Q604 471 696 527L696 527Q782 579 806 583L806 583L740 633Q731 618 708 597.50Q685 577 655 552L655 552L438 542Q502 567 549 596L549 596Q572 605 592 613.50Q612 622 634 627L634 627L586 658L927 658L857 732L801 684L631 684Q672 725 639 753L639 753Q604 782 526 810L526 810L523 797Q573 756 583 732L583 732Q598 691 598 684L598 684L309 684L346 650Q363 654 382 656Q401 658 423 658L423 658L557 658Q516 616 470 586L470 586Q428 555 379 545L379 545L410 486Q460 515 621 530L621 530Q595 510 565.50 491Q536 472 501 454L501 454Q464 435 434.50 425Q405 415 382 413L382 413L410 350Q473 380 806 404L806 404Q811 392 816 380Q821 368 829 357L829 357Q836 332 866 363L866 363Q894 396 863 429L863 429Q821 465 737 511ZM429 313L372 337Q377 299 378 259Q379 219 379 177L379 177Q379 135 378 98Q377 61 372 26L372 26L426 51L426 61L794 61L794 26L850 44Q847 56 847 114L847 114Q847 172 847 275L847 275L876 296L829 347L794 313L429 313ZM426 208L426 287L580 287L580 208L426 208ZM634 208L634 287L794 287L794 208L634 208ZM426 85L426 180L580 180L580 85L426 85ZM634 85L634 180L794 180L794 85L634 85ZM155 776L145 763Q203 692 215 621L215 621Q228 564 253 599L253 599Q284 636 268 674L268 674Q249 714 155 776L155 776ZM208 454L62 454L100 416Q133 429 174 429L174 429L212 429L212 105Q108 43 62 9L62 9L117-39Q131-12 150.50 9Q170 30 189 51L189 51Q230 92 262 64L262 64Q276 49 294 33.50Q312 18 335 2L335 2Q390-33 485-52L485-52Q576-64 888-64L888-64Q888-23 961-4L961-4L961 13Q876 3 789.50-3Q703-9 618-4L618-4Q533-1 474 4Q415 9 385 20L385 20Q353 33 323 53Q293 73 265 105L265 105L265 416L294 445L236 491L208 454Z"/></svg>