<svg id="U28EAA" viewBox="0 0 1024 1024"><path transform="translate(0, 921.6) scale(1,-1)" d="M470 551L598 551L598 406L513 406L513 481L545 507L470 551ZM646 406L646 551L734 551L737 479L737 406L646 406ZM513 306L513 381L598 381L598 211L464 211L520 236L513 306ZM646 211L646 381L737 381L737 293L734 211L646 211ZM598 579L353 579L388 545Q404 547 421.50 549Q439 551 464 551L464 551L467 479L467 406L338 406L372 372Q388 374 405.50 377.50Q423 381 444 381L444 381L467 381L467 293L464 211L353 211L388 173Q404 176 421 178.50Q438 181 461 186L461 186L598 186L598-17L448-17L448 95L472 119L397 151L397-11L372-36L416-74L451-42L798-42L798-80L850-58L850 82L879 104L798 148L798-17L646-17L646 186L917 186L857 249L816 211L740 211L794 236L791 309L791 381L935 381L879 450L835 406L791 406L791 481L822 504L740 551L917 551L854 623L813 579L646 579L646 718Q718 727 768.50 732Q819 737 850 740L850 740L798 810Q738 776 637 756L637 756Q583 744 524.50 733Q466 722 397 715L397 715L397 696Q449 696 498 700Q547 704 598 712L598 712L598 579ZM88-83L142-55L142 702L294 702L218 501Q248 459 267.50 428.50Q287 398 290 375L290 375Q299 333 294 293L294 293Q287 265 246 265L246 265Q224 267 202.50 268Q181 269 158 274L158 274L158 258Q231 238 236 192L236 192Q288 200 318 233L318 233Q344 255 350 306L350 306Q352 326 349 351.50Q346 377 331 403L331 403Q316 424 296 449.50Q276 475 246 501L246 501Q272 553 298 601.50Q324 650 350 696L350 696L372 715L315 762L290 730L145 730L88 762Q93 702 93.50 603Q94 504 94 362L94 362Q94 215 93.50 105Q93-5 88-83L88-83Z"/></svg>