<svg id="U286D0" viewBox="0 0 1024 1024"><path transform="translate(0, 921.6) scale(1,-1)" d="M316 748L316 748Q262 690 227 654Q192 618 175 600L175 600Q248 604 325 608.50Q402 613 486 619L486 619Q471 640 454 663.50Q437 687 417 710L417 710L430 723Q537 649 561 615L561 615Q580 574 561 540L561 540Q541 498 527 534L527 534Q520 548 513 562.50Q506 577 499 594L499 594Q206 570 139 540L139 540L107 600Q148 610 199 679L199 679Q256 754 285 814L285 814L350 767L316 748ZM319 373L319 373L353 393L278 439Q254 368 212 298L212 298Q169 233 92 162L92 162L100 149Q148 178 191 212Q234 246 272 294L272 294L439 294Q422 259 404.50 230Q387 201 363 178L363 178Q332 198 280 227Q228 256 158 298L158 298L146 278Q246 221 338 140L338 140Q290 83 223.50 33Q157-17 69-62L69-62L79-78Q263-5 373 105L373 105Q398 77 420 48.50Q442 20 461-9L461-9Q504-71 517-41L517-41Q535 0 517 26L517 26Q502 54 407 144L407 144Q430 176 453.50 210Q477 244 499 282L499 282L530 307L476 357L445 319L285 319Q294 331 302.50 342.50Q311 354 319 373ZM622-88L622-88L681-60Q679-9 679 37L679 37Q679 83 679 131L679 131L679 679L854 679Q835 624 811 561.50Q787 499 757 433L757 433Q912 291 887 200L887 200Q857 110 703 165L703 165L703 146Q794 122 817 62L817 62Q929 93 952 203L952 203Q971 312 789 439L789 439Q828 511 861 567Q894 623 918 666L918 666L952 691L887 748L854 707L684 707L622 748Q622 694 623.50 644.50Q625 595 625 543L625 543L625 128Q625 71 623.50 20Q622-31 622-88ZM240 574L301 581Q286 496 221 437L221 437Q157 367 79 339L79 339L69 354Q205 427 240 574L240 574ZM376 594L430 594L430 480Q430 439 455 439L455 439Q464 438 478 437.50Q492 437 512 437L512 437Q544 437 568 445L568 445Q579 458 615 420L615 420Q615 393 514 393L514 393Q381 377 376 452L376 452L376 594Z"/></svg>