<svg id="U28506" viewBox="0 0 1024 1024"><path transform="translate(0, 921.6) scale(1,-1)" d="M411 798L402 792Q454 695 459 650L459 650Q467 600 497 635L497 635Q522 665 510 704L510 704Q485 747 411 798L411 798ZM392 118L392 118L392 103Q449 75 474 30L474 30Q514 40 537 70L537 70Q546 79 552 97.50Q558 116 565 140L565 140Q568 166 573 239Q578 312 588 433L588 433L613 452L565 506L531 468L449 468L449 581L647 581L594 650L547 606L305 606L339 568Q364 581 399 581L399 581L399 448Q399 213 285 77L285 77L292 67Q453 201 449 439L449 439L449 442L534 442Q529 324 522.50 255Q516 186 513 165L513 165Q510 142 504.50 128Q499 114 497 111L497 111Q489 103 471 103L471 103Q453 103 392 118ZM786 723L814 758L742 795Q713 585 588 386L588 386L600 380Q733 513 777 701L777 701Q791 539 899 408L899 408Q918 445 960 445L960 445L960 458Q844 527 786 723L786 723ZM704 461L691 448Q770 374 802 307L802 307Q831 245 849 301L849 301Q868 350 824 383L824 383Q792 408 704 461L704 461ZM654 254L651 234Q712 189 754.50 152Q797 115 821 80L821 80Q858 11 875 70L875 70Q883 125 834 165L834 165Q807 182 762.50 203.50Q718 225 654 254L654 254ZM156 770L143 758Q201 682 216 615L216 615Q225 551 254 594L254 594Q284 627 269 666L269 666Q249 710 156 770L156 770ZM207 448L63 448L101 411Q134 424 176 424L176 424L213 424L213 99Q159 70 124.50 46Q90 22 63 2L63 2L119-44Q144-1 187 42L187 42Q231 86 261 59L261 59Q274 45 292.50 29.50Q311 14 336-3L336-3Q391-39 487-57L487-57Q535-62 634.50-67Q734-72 887-72L887-72Q887-26 960-13L960-13L960 5Q873-3 787-9Q701-15 616-13L616-13Q532-7 474-2.50Q416 2 383 14L383 14Q352 28 322 48Q292 68 263 99L263 99L263 411L295 439L238 486L207 448Z"/></svg>