<svg id="U28A7C" viewBox="0 0 1024 1024"><path transform="translate(0, 921.6) scale(1,-1)" d="M966 416L915 481L871 440L418 440L456 403Q473 405 491 407.50Q509 410 528 416L528 416L966 416ZM814 532L814 318L474 318L510 283Q525 285 542.50 287.50Q560 290 582 290L582 290L647 290L647 22Q585 57 534 132L534 132Q547 180 578 195L578 195L503 242Q495 188 484 145Q473 102 456 66L456 66Q436 28 410.50-4Q385-36 354-67L354-67L364-83Q439-25 474 16L474 16Q493 42 504 62Q515 82 525 104L525 104Q574 12 657-26L657-26Q695-47 753.50-58.50Q812-70 893-80L893-80Q898-42 960-23L960-23L960-8Q869-14 804.50-8.50Q740-3 698 10L698 10L698 148L947 148L884 214L837 173L698 173L698 290L814 290L814 265L865 286Q862 313 862 343L862 343Q862 374 862 409L862 409L862 532L884 551L834 595L805 558L688 558L688 668L937 668L884 730L834 692L688 692L688 746L717 771L638 810Q638 755 639.50 691.50Q641 628 641 558L641 558L474 558L510 522Q525 525 542.50 528.50Q560 532 582 532L582 532L814 532ZM184 170L184 170Q160 206 98 255L98 255L89 245Q112 205 126 171.50Q140 138 150 107L150 107Q164 47 191 91L191 91Q222 132 184 170ZM367 507L320 473L159 473Q211 546 273 689L273 689Q308 658 335 630.50Q362 603 377 579L377 579Q404 535 424 579L424 579Q433 627 402 652L402 652Q381 664 349.50 675.50Q318 687 276 705L276 705Q278 710 284.50 721.50Q291 733 298 753L298 753L326 771L254 810Q216 690 168 581Q120 472 57 372L57 372L67 365Q87 381 107.50 403.50Q128 426 150 457L150 457L172 438Q180 439 190 441.50Q200 444 210 444L210 444L238 444L238 337L80 337L114 303Q129 305 148 307Q167 309 191 309L191 309L238 309L238 38Q190 23 151.50 17.50Q113 12 83 10L83 10L122-55Q176-28 260-1Q344 26 456 60L456 60L452 75L289 41L289 85Q321 117 350 148Q379 179 405 208L405 208L436 229L383 286Q354 222 330.50 176.50Q307 131 289 110L289 110L289 309L436 309L387 372L336 337L289 337L289 444L428 444L367 507Z"/></svg>