<svg id="U2853A" viewBox="0 0 1024 1024"><path transform="translate(0, 921.6) scale(1,-1)" d="M626 414L843 414L783 477L736 439L364 439L395 404Q412 407 432.50 409Q453 411 474 414L474 414L572 414L572 263L295 263L333 226Q348 229 368 231.50Q388 234 408 237L408 237L572 237L572 178Q572 133 570.50 88.50Q569 44 569 2L569 2L629 26Q626 62 626 96L626 96Q626 130 626 172L626 172L626 237L915 237L855 311L802 263L626 263L626 414ZM405 546L405 717L510 717L510 546L405 546ZM408 741L351 779Q353 750 353.50 713Q354 676 354 628L354 628Q354 577 353.50 538Q353 499 351 471L351 471L405 493L405 521L510 521L510 486L562 509Q559 532 559 580L559 580Q559 628 559 707L559 707L585 729L531 782L503 741L408 741ZM695 738L641 776Q641 755 642.50 722Q644 689 644 644L644 644Q644 599 642.50 557Q641 515 641 477L641 477L695 496L695 521L799 521L799 483L852 506Q849 523 849 556L849 556Q849 590 849 638L849 638L849 701L881 723L824 776L796 738L695 738ZM695 546L695 710L799 710L799 546L695 546ZM156 782L143 773Q205 692 216 628L216 628Q225 566 254 606L254 606Q286 641 269 682L269 682Q250 721 156 782L156 782ZM210 465L63 465L101 427Q138 437 176 437L176 437L213 437L213 115Q159 86 124.50 60.50Q90 35 63 18L63 18L119-31Q133-5 151.50 16Q170 37 191 59L191 59Q230 98 261 74L261 74Q274 60 291.50 44Q309 28 336 8L336 8Q362-7 397.50-20Q433-33 487-41L487-41Q535-50 635-53.50Q735-57 890-57L890-57Q890-14 960 2L960 2L960 21Q878 10 793 5Q708 0 619 2L619 2Q534 4 475.50 9.50Q417 15 387 26L387 26Q355 41 324 62.50Q293 84 266 115L266 115L266 427L295 452L238 502L210 465Z"/></svg>