<svg id="U280B3" viewBox="0 0 1024 1024"><path transform="translate(0, 921.6) scale(1,-1)" d="M391 729L391 729L416 745L375 798L338 764L161 764L103 802Q106 766 106 721L106 721Q106 676 106 622L106 622Q106 564 106 522L106 522Q106 481 103 458L103 458L155 483L155 509L240 509L240 77L171 59L171 335L196 363L117 414Q119 372 119.50 279.50Q120 187 120 42L120 42L62 23L112-37L145-3Q217 28 286.50 57Q356 86 423 115L423 115L416 131L290 93L290 311L441 311L385 373L344 335L290 335L290 509L344 509L344 465L394 496Q391 533 391 590L391 590Q391 648 391 729ZM155 537L155 738L344 738L344 537L155 537ZM505 477L513 584L602 584L602 563L655 578Q650 615 649.50 652.50Q649 690 649 732L649 732L678 745L627 795L598 758L448 758L482 723Q519 732 552 732L552 732L602 732L602 612L513 612L470 635Q470 602 466 564Q462 526 454 483L454 483L435 471L476 427L501 448L590 448Q584 418 579 396Q574 374 570 360L570 360Q561 323 552 311L552 311Q542 292 513 298L513 298Q504 298 487 303.50Q470 309 451 316L451 316L448 294Q516 268 526 226L526 226Q550 234 564.50 247Q579 260 586 270L586 270Q594 280 602 293.50Q610 307 618 326L618 326Q622 345 628 374Q634 403 643 448L643 448L662 461L611 509L586 477L505 477ZM744 477L772 584L850 584L850 559L901 574Q898 612 898 651L898 651Q898 690 898 729L898 729L924 751L873 795L845 761L696 761L728 729Q746 731 765 731.50Q784 732 804 735L804 735L850 735L850 612L765 612L721 628Q717 593 710.50 556Q704 519 700 483L700 483L680 471L721 427L744 448L845 448Q836 333 822 311L822 311Q811 291 798 291L798 291Q788 291 766 291.50Q744 292 709 298L709 298L709 278Q801 270 801 219L801 219Q835 238 854 263L854 263Q872 289 879 323L879 323Q883 345 886.50 374.50Q890 404 895 442L895 442L917 465L873 509L845 477L744 477ZM850 200L369 200L403 162Q422 171 440.50 173Q459 175 476 175L476 175L961 175L907 247L850 200ZM879 55L879 55Q852 73 813.50 94Q775 115 721 137L721 137L716 121Q771 78 805.50 43Q840 8 857-19L857-19Q888-72 911-31L911-31Q928 11 879 55ZM602 99L530 152Q489 52 372-62L372-62L379-75Q484-8 567 93L567 93L602 99Z"/></svg>