<svg id="U28956" viewBox="0 0 1000 1000"><path transform="translate(0, 900) scale(1,-1)" d="M518 846C413 760 218 695 41 661C56 646 71 622 79 606C143 620 209 638 273 660L273 620L464 620L464 558L147 558L147 506L312 506L259 492C272 472 285 446 293 424L86 424L86 369L928 369L928 424L697 424C713 443 731 466 748 490L682 506C670 483 648 449 629 424L535 424L535 506L845 506L845 558L535 558L535 620L715 620L715 669L298 669C372 696 442 728 501 764C645 688 789 649 920 619C929 640 948 665 963 680C830 703 685 735 552 799L573 816ZM321 506L464 506L464 424L362 424C355 446 339 480 321 506ZM509 184C564 155 625 119 683 81C613 34 531 1 444-19C458-34 473-61 480-77C576-52 665-13 741 43C810-4 872-51 913-89L963-33C922 3 863 46 796 90C853 145 899 213 928 297L885 315L873 312L507 312L507 251L837 251C813 203 779 161 740 125C677 164 612 201 554 232ZM104 197C155 170 213 136 266 101C200 42 118 0 32-25C46-39 63-64 72-80C164-49 251-2 321 64C362 36 399 8 425-16L474 38C447 61 410 88 368 115C410 166 443 226 466 297L422 315L410 312L70 312L70 251L378 251C361 214 339 180 313 150C259 183 201 216 150 242Z"/></svg>