<svg id="U28EF7" viewBox="0 0 1024 1024"><path transform="translate(0, 921.6) scale(1,-1)" d="M92-85L143-57L143 717L285 717L210 506Q240 464 260 431.50Q280 399 285 373L285 373Q300 325 285 291L285 291Q281 257 238 257L238 257Q217 261 196.50 262.50Q176 264 150 270L150 270L150 254Q226 229 232 181L232 181Q289 199 317 229L317 229Q341 252 346 311L346 311Q349 358 326 404L326 404Q309 441 238 509L238 509Q262 561 289 608.50Q316 656 343 710L343 710L364 729L314 779L282 741L140 741L92 779Q95 734 95.50 627.50Q96 521 96 345L96 345Q96 168 95.50 62.50Q95-43 92-85L92-85ZM827 433L827 433L931 433L878 502L840 461L827 461L827 540L849 563L802 606L773 574L657 574L657 612L685 638L606 666L909 666L843 735L802 694L654 694Q685 722 670 748L670 748Q660 757 640 773Q620 789 588 811L588 811L578 798Q623 743 632 694L632 694L443 694L392 729Q397 580 392 398L392 398Q388 305 380 234.50Q372 164 358 115L358 115Q344 64 326 20Q308-24 285-62L285-62L298-72Q368 15 402 121L402 121Q418 173 427 229Q436 285 440 345L440 345Q442 403 442.50 483Q443 563 443 666L443 666L606 666Q606 645 608 620Q610 595 610 574L610 574L471 574L503 540Q521 542 538.50 544Q556 546 578 546L578 546L610 546L610 461L430 461L462 427Q478 429 496.50 431Q515 433 534 433L534 433L610 433L610 348L471 348L503 311Q521 314 538.50 318.50Q556 323 578 323L578 323L610 323L610 30Q610 1 588-3L588-3Q574-6 490 2L490 2L490-13Q574-29 591-85L591-85Q657-55 657 5L657 5L657 323L777 323L777 294L830 323Q827 351 827 378L827 378Q827 406 827 433ZM474 282L474 282L465 272Q479 253 490.50 239Q502 225 510 213L510 213Q526 183 534 159L534 159Q543 134 562 172L562 172Q582 206 554 231L554 231Q526 258 474 282ZM392 55L392 55L440-6L459 14Q489 44 528.50 77Q568 110 619 152L619 152L619 175Q452 65 392 55ZM657 461L657 546L777 546L777 461L657 461ZM657 348L657 433L777 433L777 348L657 348ZM704 149L717 137Q743 153 771 174Q799 195 830 219L830 219L862 229L808 285Q782 243 757 210.50Q732 178 704 149L704 149ZM755 39L755 39Q783 8 807.50-15Q832-38 852-54L852-54Q875-21 931-16L931-16L931 0Q875 7 805 70L805 70Q735 122 647 266L647 266L632 254Q684 119 755 39Z"/></svg>