<svg id="U28327" viewBox="0 0 1024 1024"><path transform="translate(0, 921.6) scale(1,-1)" d="M708 132L708 252L808 252L808 132L708 132ZM518 145L515 63L562 82L562 107L660 107L660 10Q660-63 732-58L732-58L858-58Q912-62 950-8L950-8Q924-3 912 19L912 19Q907 33 901.50 66.50Q896 100 896 148L896 148L884 148Q879 117 876.50 89Q874 61 871 34L871 34Q866-7 846-17L846-17L767-17Q708-22 708 28L708 28L708 107L808 107L808 75L855 104Q852 134 852 206L852 206Q852 279 852 396L852 396L865 406Q870 395 906 375L906 375Q931 411 963 416L963 416L963 425Q889 447 837 501L837 501Q813 528 788 559.50Q763 591 739 627L739 627L925 627L868 692L814 652L654 652Q660 678 669.50 702.50Q679 727 688 753L688 753L714 774L638 813Q635 778 626 738Q617 698 603 652L603 652L449 652L484 617Q500 619 517 623Q534 627 554 627L554 627L597 627Q573 579 553 540Q533 501 510 463L510 463Q472 395 430 359L430 359L440 347Q466 360 484 380Q502 400 518 422L518 422L518 350L518 145ZM660 425L660 425L562 425L537 444Q599 519 644 627L644 627L717 627Q725 605 735.50 583.50Q746 562 761 538L761 538Q785 488 824 453L824 453L805 425L708 425L708 491L726 514L657 542Q657 508 658.50 479.50Q660 451 660 425ZM562 280L562 400L660 400L660 280L562 280ZM708 280L708 400L808 400L808 280L708 280ZM562 132L562 252L660 252L660 132L562 132ZM245 709L245 661L70 661L101 630Q118 632 135.50 634Q153 636 172 636L172 636L245 636L245 558L166 558L101 592Q107 561 107.50 530.50Q108 500 108 473L108 473L108 350Q108 320 107.50 290.50Q107 261 101 233L101 233L156 258L156 277L245 277L245 170L60 170L96 136Q126 145 166 145L166 145L245 145L245 57Q245 19 244.50-17Q244-53 241-86L241-86L295-64Q292-33 292-3L292-3Q292 27 292 63L292 63L292 145L493 145L440 214L387 170L292 170L292 277L380 277L380 252L430 271Q428 306 428 341L428 341Q428 377 428 419L428 419L428 520L459 542L408 595L380 558L292 558L292 636L446 636L389 705L346 661L292 661L292 756L320 784L241 813Q244 783 244.50 758.50Q245 734 245 709L245 709ZM156 532L245 532L245 428L156 428L156 532ZM292 532L380 532L380 428L292 428L292 532ZM292 403L380 403L380 303L292 303L292 403ZM156 403L245 403L245 303L156 303L156 403Z"/></svg>