<svg id="U28482" viewBox="0 0 1000 1000"><path transform="translate(0, 900) scale(1,-1)" d="M87 807C131 758 186 689 213 648L271 689C244 729 189 792 144 841ZM334 181L334 111L934 111L934 181L705 181L705 435L913 435L913 503L705 503L705 719C782 733 854 749 912 768L861 830C744 788 532 757 355 739C363 722 374 694 376 677C457 684 546 694 632 707L632 181L496 181L496 572L426 572L426 181ZM63 284C71 293 98 299 123 299L234 299C200 144 127 32 30-30C46-41 73-68 84-85C135-50 180-1 217 62C296-46 421-66 618-66C727-66 850-64 943-58C947-36 957 1 969 18C868 9 722 4 619 5C439 5 315 19 249 124C278 188 301 263 315 350L275 366L262 364L151 364C209 432 285 536 328 595L274 619L262 614L47 614L47 547L209 547C165 486 107 410 84 388C66 368 49 361 34 357C42 341 58 303 63 284Z"/></svg>