<svg id="U281EC" viewBox="0 0 1024 1024"><path transform="translate(0, 921.6) scale(1,-1)" d="M539 692L539 749L806 749L806 692L539 692ZM539 607L539 664L806 664L806 607L539 607ZM803 774L547 774L488 800Q488 780 489.50 758Q491 736 491 718L491 718L491 655Q491 626 489.50 598.50Q488 571 488 548L488 548L539 573L539 583L806 583L806 566L860 583Q857 606 856.50 633.50Q856 661 856 689L856 689L856 740L878 759L829 807L803 774ZM837 526L406 526L438 491Q454 498 474.50 499.50Q495 501 516 501L516 501L945 501L881 566L837 526ZM551 422L551 422Q568 439 583 447L583 447L526 491Q490 380 349 249L349 249L359 242Q472 314 539 403L539 403Q562 382 580 364.50Q598 347 608 331L608 331Q632 296 642 296L642 296Q652 296 662 327L662 327Q662 355 642 372L642 372Q628 381 605.50 393.50Q583 406 551 422ZM400 119L400 119L397 110Q413 84 424 65Q435 46 441 31L441 31Q451 0 460 3L460 3Q472 10 479 34L479 34Q483 46 477.50 56Q472 66 466 79L466 79Q443 105 400 119ZM604 151L604 151L652 110Q634 105 611 75L611 75Q597 51 557 16L557 16L554 22Q561 34 572 65.50Q583 97 604 151ZM372-26L372-26L406-80Q422-68 484.50-44Q547-20 655 16L655 16L655 31L545 3L545 151L680 151L629 205L592 177L545 177L545 252L649 252L604 309L570 277L410 277L441 245Q463 249 478.50 250.50Q494 252 503 252L503 252L503 177L369 177L406 142Q437 151 503 151L503 151L503-1Q477-6 445.50-12.50Q414-19 372-26ZM721 353L721 353L863 353L829 268L840 265Q907 346 938 359L938 359L888 409L866 381L727 381L759 444L781 463L711 501Q706 457 690 388L690 388Q677 352 669 316.50Q661 281 649 249L649 249L665 249Q680 274 695 298.50Q710 323 721 353ZM809 274L740 312Q740 237 727 195L727 195Q717 138 686 72L686 72Q671 34 646.50-1Q622-36 588-74L588-74L592-80Q721-5 778 198L778 198Q792 107 819.50 42Q847-23 885-74L885-74Q914-37 951-42L951-42L951-33Q919-16 878 34L878 34Q834 92 788 236L788 236Q788 245 809 274L809 274ZM356 712L356 712L381 737L334 787L299 753L161 753L102 787Q105 752 105.50 707Q106 662 106 607L106 607Q106 553 105.50 512.50Q105 472 102 444L102 444L154 476L154 497L217 497L217 72L158 54L158 327L179 353L106 406Q107 363 107 271L107 271Q107 179 107 34L107 34L52 16L93-45L141-8Q201 23 261 52Q321 81 381 110L381 110L378 126L264 82L264 303L387 303L336 368L302 327L264 327L264 497L305 497L305 450L359 485Q356 524 356 581L356 581Q356 639 356 712ZM154 526L154 730L305 730L305 526L154 526Z"/></svg>