<svg id="U28E60" viewBox="0 0 1024 1024"><path transform="translate(0, 921.6) scale(1,-1)" d="M608 780L531 829Q514 787 497 750Q480 713 460 680L460 680Q440 644 412 606.50Q384 569 347 529L347 529L353 516Q397 545 436.50 582.50Q476 620 511 668L511 668Q543 580 605 509L605 509Q550 464 483.50 425.50Q417 387 337 355L337 355L340 342Q509 385 640 477L640 477Q754 390 875 355L875 355Q900 395 946 400L946 400L946 416Q777 440 676 509L676 509Q725 552 814 671L814 671L853 693L795 748L753 709L537 709L576 761L608 780ZM531 680L756 680Q724 639 695.50 603.50Q667 568 640 539L640 539Q591 576 521 680L521 680L531 680ZM289-46L298-59Q506 62 588 274L588 274L908 274L837 342L792 300L592 300L614 368L647 387L559 419Q559 407 552.50 377.50Q546 348 534 300L534 300L359 300L398 268Q415 270 434.50 272Q454 274 476 274L476 274L531 274Q455 83 289-46L289-46ZM537-14L537-14Q575 21 606 53Q637 85 659 119L659 119Q684 150 701 171Q718 192 730 200L730 200L653 239Q570 20 472-14L472-14L511-72Q594-46 788-14L788-14Q793-21 801-34.50Q809-48 814-63L814-63Q828-90 850-59L850-59Q874-21 850 3L850 3Q821 29 740 74L740 74L726 61Q736 49 748.50 36.50Q761 24 779 3L779 3Q733 1 672.50-3Q612-7 537-14ZM78-85L134-56L134 719L289 719L211 513Q278 425 282 387L282 387Q294 343 289 300L289 300Q278 271 237 271L237 271Q216 273 194 274Q172 275 150 281L150 281L150 268Q225 241 230 197L230 197Q283 205 314 239L314 239Q329 251 335 270Q341 289 347 313L347 313Q349 334 346 360Q343 386 327 413L327 413Q312 434 290 460Q268 486 237 513L237 513Q267 570 294.50 619.50Q322 669 347 713L347 713L369 732L311 780L282 748L137 748L78 780Q81 719 81 619L81 619Q81 519 81 371L81 371Q81 220 81 107L81 107Q81-6 78-85L78-85Z"/></svg>