<svg id="U283BD" viewBox="0 0 1024 1024"><path transform="translate(0, 921.6) scale(1,-1)" d="M556 688L556 688L415 688L452 653Q467 655 481.50 656Q496 657 515 660L515 660L556 660Q556 650 553 627Q550 604 550 574L550 574L603 600L603 663L752 663L752 581L802 609Q799 626 799 639L799 639Q799 653 799 663L799 663L956 663L899 729L858 691L799 691L799 748L821 770L745 808Q745 778 748.50 750Q752 722 752 691L752 691L603 691L603 754L623 773L550 811Q550 775 553 743.50Q556 712 556 688ZM232 707L232 669L80 669L114 635Q129 637 145.50 639Q162 641 181 641L181 641L232 641L232 556L156 556L111 591Q114 557 114 526L114 526Q114 496 114 468L114 468L114 348Q114 319 114 289L114 289Q114 260 111 231L111 231L156 254L156 272L232 272L232 168L57 168L92 134Q109 136 124.50 140Q140 144 159 144L159 144L232 144L232 74Q232 32 231.50-5Q231-42 228-85L228-85L282-60Q277-17 276.50 20Q276 57 276 90L276 90L276 144L469 144L415 209L380 168L276 168L276 272L364 272L364 250L411 270Q408 285 408 309L408 309Q408 334 408 367L408 367L408 521L433 543L387 591L361 556L276 556L276 641L415 641L361 707L323 669L276 669L276 754L305 786L228 811Q231 782 231.50 756Q232 730 232 707L232 707ZM156 530L232 530L232 427L156 427L156 530ZM276 530L364 530L364 427L276 427L276 530ZM276 401L364 401L364 301L276 301L276 401ZM156 401L232 401L232 301L156 301L156 401ZM550 458L550 543L811 543L811 458L550 458ZM550 332L550 430L811 430L811 332L550 332ZM521-9L521 216L600 216L600-9L521-9ZM644-9L644 216L723 216L723-9L644-9ZM764-9L764 216L837 216L837-9L764-9ZM858 414L858 530L887 553L840 600L808 571L550 571L500 600Q500 558 501.50 515Q503 472 503 424L503 424Q503 376 501.50 338.50Q500 301 500 272L500 272L550 291L550 307L811 307L811 285L862 311Q859 338 858.50 364.50Q858 391 858 414L858 414ZM477-9L477-9L374-9L411-47Q447-37 497-37L497-37L966-37L919 26L887-6L887 206L915 229L868 278L837 244L521 244L471 272Q471 239 474 169Q477 99 477-9Z"/></svg>