<svg id="U28255" viewBox="0 0 1024 1024"><path transform="translate(0, 921.6) scale(1,-1)" d="M532 465L532 465L827 465L827 437L884 458Q881 484 881 517L881 517Q881 551 881 594L881 594L910 619L859 669L825 632L532 632L532 717L478 751Q478 657 479.50 570Q481 483 481 401L481 401Q481 237 462 124L462 124Q454 67 434 20.50Q414-26 387-69L387-69L400-82Q425-56 446.50-22Q468 12 485 55L485 55Q499 98 510 148Q521 198 529 257L529 257L648 257Q627 133 578 64L578 64Q552 22 520-9Q488-40 452-69L452-69L462-82Q561-30 619 46L619 46Q678 114 699 257L699 257L714 257Q726 188 741.50 140.50Q757 93 774 55L774 55Q790 21 814.50-8Q839-37 868-65L868-65Q878-32 945-28L945-28L945-13Q910 0 880 22.50Q850 45 825 83L825 83Q798 118 778.50 160.50Q759 203 743 257L743 257L938 257L871 329L827 282L699 282Q708 343 708 367L708 367L737 398L655 437Q655 394 654.50 354Q654 314 652 282L652 282L529 282Q529 331 530.50 376.50Q532 422 532 465ZM532 493L532 606L827 606L827 493L532 493ZM749 439L749 439L745 427Q771 398 787.50 376Q804 354 809 339L809 339Q818 306 840 316L840 316Q859 329 859 363L859 363Q859 406 749 439ZM179 550L179 660L342 660L342 550L179 550ZM179 420L179 521L342 521L342 420L179 420ZM342 323L326 301L179 288L179 396L342 396L342 323ZM280 770L280 770L220 811Q220 778 185 688L185 688L169 688L125 710Q127 625 127.50 519Q128 413 128 285L128 285L74 282L107 226Q116 233 318 282L318 282Q181 100 39 0L39 0L45-13Q133 33 208.50 97.50Q284 162 342 250L342 250L342 52Q342-3 324-3L324-3Q314-3 298-2.50Q282-2 261 0L261 0L261-13Q286-21 302-37L302-37Q320-45 339-85L339-85Q371-59 380-41L380-41Q393-14 393 18L393 18L393 311Q407 328 417 342.50Q427 357 437 367L437 367Q447 391 475 401L475 401L421 461Q413 428 393 398L393 398L393 650L421 669L365 723L342 688L207 688Q235 731 280 770ZM516 691L516 691Q586 695 644.50 703Q703 711 749 717L749 717Q794 723 827 727.50Q860 732 881 735L881 735L840 795Q776 764 697.50 744Q619 724 516 710L516 710L516 691Z"/></svg>