<svg id="U281A2" viewBox="0 0 1024 1024"><path transform="translate(0, 921.6) scale(1,-1)" d="M680 442L680 442L680 624L875 624L849 552L858 542Q911 614 956 621L956 621L899 684L871 650L680 650L680 750L890 750L824 823L783 776L443 776L474 740Q493 742 510 746Q527 750 547 750L547 750L629 750L629 650L465 650L462 694L446 694Q442 632 415 599L415 599Q386 565 402 545L402 545Q409 526 430 532L430 532Q448 532 456 558L456 558Q462 567 463.50 585Q465 603 465 624L465 624L629 624L629 483Q629 453 627.50 419Q626 385 626 337L626 337L682 357Q680 375 680 396L680 396Q680 418 680 442ZM588 539L465 539L465 511L588 511L588 539ZM840 539L720 539L720 511L840 511L840 539ZM585 429L465 429L465 404L585 404L585 429ZM843 429L717 429L717 404L843 404L843 429ZM868 272L868 272L896 293L840 347L811 309L493 309L443 337Q445 292 445.50 240.50Q446 189 446 129L446 129Q446 71 445.50 20Q445-31 443-76L443-76L493-57L493-10L818-10L818-60L871-39Q868 9 868 84L868 84Q868 160 868 272ZM493 167L493 284L629 284L629 167L493 167ZM680 167L680 284L818 284L818 167L680 167ZM493 16L493 139L629 139L629 16L493 16ZM680 16L680 139L818 139L818 16L680 16ZM377 706L377 706L405 735L354 781L320 750L159 750L101 781Q104 748 104 703L104 703Q104 659 104 605L104 605Q104 548 104 508L104 508Q104 469 101 442L101 442L156 470L156 491L235 491L235 67L169 51L169 324L194 350L117 404Q118 361 118.50 267.50Q119 174 119 32L119 32L67 16L114-48L150-13Q214 21 277.50 47.50Q341 74 405 101L405 101L402 117L285 79L285 296L411 296L358 365L326 324L285 324L285 491L330 491L330 448L383 483Q378 520 377.50 576.50Q377 633 377 706ZM156 520L156 722L330 722L330 520L156 520Z"/></svg>