<svg id="U28067" viewBox="0 0 1024 1024"><path transform="translate(0, 921.6) scale(1,-1)" d="M407 713L407 713L435 735L394 792L353 754L177 754L117 789Q119 751 119.50 707.50Q120 664 120 612L120 612Q120 558 119.50 517.50Q119 477 117 448L117 448L171 477L171 502L249 502L249 80L174 59L174 332L199 360L120 411Q122 369 122.50 277Q123 185 123 42L123 42L65 30L116-28L151 0Q221 31 290 60Q359 89 426 115L426 115L423 131L297 96L297 307L444 307L394 373L346 332L297 332L297 502L356 502L356 458L410 486Q407 526 407 583L407 583Q407 640 407 713ZM171 527L171 729L356 729L356 527L171 527ZM917 682L917 682L945 710L860 748Q860 719 863 671Q866 623 866 563L866 563L721 563L721 751L750 776L665 811Q665 779 666.50 719.50Q668 660 668 563L668 563L523 563L523 691L552 717L467 754Q467 726 468.50 681.50Q470 637 470 574L470 574L448 556L492 506L523 537L866 537L866 502L920 524Q917 560 917 598L917 598Q917 637 917 682ZM454-85L454-85L508-54L508 386L665 386Q662 341 653 300.50Q644 260 624 222L624 222Q607 180 580 141.50Q553 103 520 67L520 67L526 55Q595 105 634 152L634 152Q649 176 663.50 200Q678 224 687 250L687 250Q715 219 738 193Q761 167 775 146L775 146Q797 103 816 140L816 140Q825 188 801 209L801 209Q772 231 696 263L696 263Q701 291 707 322Q713 353 716 386L716 386L876 386L876 52Q876 2 847 2L847 2Q828 2 803.50 5Q779 8 744 11L744 11L744-3Q832-21 842-82L842-82Q930-45 930 52L930 52L930 373L958 398L907 445L873 411L716 411Q716 420 716 436L716 436Q716 453 719 477L719 477L744 499L662 540Q662 517 663.50 484Q665 451 665 411L665 411L511 411L454 442Q459 399 460 332Q461 265 461 175L461 175Q461 81 460 17Q459-47 454-85Z"/></svg>