<svg id="U28017" viewBox="0 0 1024 1024"><path transform="translate(0, 921.6) scale(1,-1)" d="M407 707L407 707L435 732L385 786L346 751L177 751L117 782Q119 749 119.50 706Q120 663 120 606L120 606Q120 549 119.50 510Q119 471 117 442L117 442L171 471L171 493L243 493L243 67L168 46L168 326L196 352L116 404Q117 361 117 268L117 268Q117 175 117 33L117 33L62 18L112-50L145-19Q221 13 290.50 43Q360 73 426 103L426 103L423 118L290 80L290 298L435 298L379 367L341 326L290 326L290 493L359 493L359 448L410 483Q407 521 407 577L407 577Q407 634 407 707ZM171 521L171 723L359 723L359 521L171 521ZM680 751L680 751L709 767L624 814Q624 738 598 660L598 660L423 660L457 622Q473 626 491 630.50Q509 635 533 635L533 635L596 635Q529 469 397 352L397 352L403 339Q571 439 652 635L652 635L716 635Q762 461 888 370L888 370Q909 411 961 411L961 411L961 427Q808 453 734 635L734 635L932 635L870 704L819 660L655 660Q658 672 664.50 694Q671 716 680 751ZM683 46L683 46L683 152L932 152L876 216L829 178L683 178L683 335L873 335L813 401L769 363L683 363L683 433L712 461L631 502Q631 474 632.50 452.50Q634 431 634 414L634 414L634 363L435 363L467 329Q483 331 501.50 333Q520 335 542 335L542 335L634 335L634 178L482 178Q491 201 500 223.50Q509 246 520 272L520 272L545 285L479 329Q470 286 459.50 252.50Q449 219 438 193L438 193L410 178L457 131L482 152L634 152Q634 82 632.50 22.50Q631-37 631-88L631-88L690-69Q684-31 683.50-3.50Q683 24 683 46Z"/></svg>