<svg id="U281EA" viewBox="0 0 1024 1024"><path transform="translate(0, 921.6) scale(1,-1)" d="M325 728L325 728L346 753L305 800L277 762L142 762L94 797Q97 764 97 719L97 719Q97 674 97 620L97 620Q97 565 97 526L97 526Q97 487 94 460L94 460L142 485L142 514L202 514L202 91L155 69L155 344L180 368L109 419Q112 377 112 286L112 286Q112 195 112 54L112 54L65 34L100-20L130 10Q185 42 239.50 71Q294 100 346 126L346 126L346 139L246 101L246 314L359 314L312 384L284 344L246 344L246 514L281 514L281 469L328 497Q325 535 325 591L325 591Q325 647 325 728ZM142 538L142 737L281 737L281 538L142 538ZM438 450L438 604L501 604L501 450L438 450ZM438 271L438 425L501 425L501 271L438 271ZM438 54L438 245L501 245L501 54L438 54ZM511 810L511 810L498 807Q517 734 517 689L517 689Q521 637 545 661L545 661Q578 688 564 718L564 718Q561 732 546 755Q531 778 511 810ZM388-83L388-83L438-55L438 28L659 28L611 91L574 54L545 54L545 245L639 245L602 303L574 271L545 271L545 425L634 425L593 481L564 450L545 450L545 604L634 604L590 664L555 633L423 633Q453 745 492 774L492 774L423 813Q411 750 400 695Q389 640 375 592L375 592Q360 538 345 491.50Q330 445 309 400L309 400L322 391Q344 430 394 535L394 535L394 331Q394 169 393 67Q392-35 388-83ZM870 759L627 759L659 722Q675 726 693.50 728Q712 730 731 733L731 733L750 733L724 633L693 633L649 655Q649 609 650.50 538.50Q652 468 652 365L652 365Q652 265 650.50 202.50Q649 140 649 116L649 116L696 136L696 157L879 157L879 126L927 145Q924 183 924 295L924 295Q924 407 924 595L924 595L948 614L904 661L873 633L747 633L798 733L958 733L911 797L870 759ZM696 481L696 604L879 604L879 481L696 481ZM696 334L696 457L879 457L879 334L696 334ZM696 186L696 309L879 309L879 186L696 186ZM769 88L709 132Q697 94 669 42Q641-10 596-77L596-77L602-86Q630-62 654-35Q678-8 696 16L696 16Q741 72 769 88L769 88ZM829 132L829 132L816 119Q880 16 888-39L888-39Q897-88 914-74L914-74Q925-63 939-26L939-26Q943-1 911 47L911 47Q895 70 874.50 91Q854 112 829 132Z"/></svg>