<svg id="U28AC8" viewBox="0 0 1024 1024"><path transform="translate(0, 921.6) scale(1,-1)" d="M649 813L649 813L643 800Q697 751 706 709L706 709Q718 668 744 689L744 689Q767 709 760 740L760 740Q756 772 649 813ZM517 334L517 655L955 655L895 730L842 681L526 681L467 709Q467 680 468.50 617Q470 554 470 460L470 460Q473 257 448 145L448 145Q424 35 359-80L359-80L372-86Q412-38 441.50 7.50Q471 53 485 101L485 101Q500 152 507 209.50Q514 267 517 334L517 334ZM634 545L634 545L659 566L590 599Q590 497 570 419L570 419Q557 340 513 265L513 265L523 255Q584 325 614 425L614 425Q628 387 636.50 359Q645 331 649 312L649 312Q653 272 678 299L678 299Q690 314 690 347L690 347Q686 369 672 384L672 384Q666 393 652.50 408Q639 423 621 444L621 444Q623 460 625.50 486Q628 512 634 545ZM690 630L696 561L696 192L533 192L567 157Q597 167 639 167L639 167L696 167L696-14L492-14L530-49Q544-46 562-43.50Q580-41 602-39L602-39L958-39L901 28L854-14L744-14L744 167L924 167L866 233L822 192L744 192L744 573L765 599L690 630ZM883 535L883 535L904 558L835 592Q832 549 825.50 506.50Q819 464 813 422L813 422Q790 335 750 262L750 262L760 252Q789 284 813.50 325.50Q838 367 857 419L857 419Q873 388 887 361.50Q901 335 911 312L911 312Q921 264 939 286L939 286Q945 298 950 306.50Q955 315 955 327L955 327Q955 349 942 368L942 368Q937 376 916 394Q895 412 860 440L860 440Q862 452 868.50 476Q875 500 883 535ZM196 170L196 170Q181 187 158 209Q135 231 106 255L106 255L100 245Q119 207 133.50 172.50Q148 138 158 107L158 107Q171 57 199 91L199 91Q227 131 196 170ZM375 514L331 469L168 469Q193 509 221.50 564.50Q250 620 281 689L281 689Q318 654 341 625.50Q364 597 379 576L379 576Q408 523 420 579L420 579Q437 629 397 652L397 652Q378 662 350 674Q322 686 284 702L284 702Q288 711 294 723Q300 735 309 753L309 753L331 771L262 813Q226 693 177.50 583.50Q129 474 65 372L65 372L72 365Q120 400 158 457L158 457L180 438Q191 439 199.50 441.50Q208 444 218 444L218 444L249 444L249 334L88 334L120 303Q137 305 156.50 307Q176 309 199 309L199 309L249 309L249 41Q198 31 160 23Q122 15 91 13L91 13L133-49Q182-27 252.50-1Q323 25 416 57L416 57L416 72L297 47L297 85Q329 120 358 151Q387 182 410 211L410 211L438 227L382 280Q336 154 297 110L297 110L297 309L451 309L397 372L350 334L297 334L297 444L435 444L375 514Z"/></svg>