<svg id="U288C4" viewBox="0 0 1024 1024"><path transform="translate(0, 921.6) scale(1,-1)" d="M799 594L799 663L934 663L893 729L852 688L799 688L799 751L821 776L749 814Q749 788 752 757Q755 726 755 688L755 688L632 688L632 758L657 782L585 808Q585 776 586.50 747Q588 718 588 688L588 688L480 688L510 653Q539 663 569 663L569 663L588 663L588 574L632 594L632 663L755 663L755 571L799 594ZM667-88L667-88L720-65Q717-39 717-4L717-4Q717 30 717 70L717 70L960 70L903 144L855 99L717 99L717 213L947 213L896 278L862 237L837 237L837 376L940 376L893 445L852 404L837 404L837 524L931 524L881 587L843 550L480 550L510 512Q523 516 533.50 520Q544 524 554 524L554 524L554 404L480 404L506 367Q528 376 554 376L554 376L554 237L471 237L510 203Q525 205 545.50 209Q566 213 588 213L588 213L670 213L670 99L462 99L493 62Q510 63 528.50 65Q547 67 565 70L565 70L670 70Q670 32 668.50-6.50Q667-45 667-88ZM670 524L670 404L600 404L600 524L670 524ZM793 524L793 404L717 404L717 524L793 524ZM793 376L793 237L717 237L717 376L793 376ZM670 376L670 237L600 237L600 376L670 376ZM436 105L436 105L436 515L465 537L418 587L389 546L346 546L346 701L480 701L428 764L380 726L63 726L101 691Q116 695 131 696.50Q146 698 166 701L166 701L197 701L197 546L140 546L96 584Q98 553 98 485L98 485Q98 418 98 313L98 313Q98 208 98 112L98 112Q98 16 96-72L96-72L140-37L140 2L392 2L392-57L443-34Q437-6 436.50 28.50Q436 63 436 105ZM238 546L238 701L302 701L302 546L238 546ZM351 298L351 298L392 298L392 185L140 185L140 518L197 518Q197 478 194 440.50Q191 403 184 373L184 373Q181 342 168.50 309Q156 276 138 241L138 241L143 234Q179 267 198 303Q217 339 222 370L222 370Q231 402 234.50 440Q238 478 238 518L238 518L302 518L302 348Q302 298 351 298ZM346 373L346 518L392 518L392 335L358 335Q346 335 346 373L346 373ZM392 159L392 26L140 26L140 159L392 159Z"/></svg>