<svg id="U285FE" viewBox="0 0 1024 1024"><path transform="translate(0, 921.6) scale(1,-1)" d="M343 633L343 633L348 620Q439 651 525 728L525 728L562 737L506 790Q436 691 343 633ZM616 617L616 617Q590 634 563.50 655Q537 676 510 699L510 699L500 692Q513 666 533 640.50Q553 615 582 595L582 595Q484 511 310 457L310 457L317 444Q488 477 623 563L623 563Q745 491 887 469L887 469Q907 513 960 517L960 517L960 532Q775 532 660 595L660 595Q677 609 694 625Q711 641 732 658L732 658L758 671L701 715Q679 674 616 617ZM682 787L682 787L676 774Q729 739 763 712Q797 685 814 668L814 668Q851 620 868 652L868 652Q878 678 855 712L855 712Q833 737 682 787ZM591 466L591 466L415 466L452 435Q472 437 492 438.50Q512 440 531 440L531 440L591 440L591 391L346 391L383 353Q411 365 465 365L465 365L893 365L840 425L796 391L644 391L644 440L830 440L780 497L736 466L644 466L644 507L663 522L588 555Q588 528 589.50 505Q591 482 591 466ZM644 173L644 173L852 173L793 233L752 201L644 201L644 252L868 252L814 312L770 280L676 280Q740 337 758 337L758 337L704 372Q689 326 657 280L657 280L569 280Q587 298 582 321L582 321Q574 328 553 338.50Q532 349 500 365L500 365L490 353Q507 341 519 321Q531 301 541 280L541 280L374 280L411 245Q432 248 451.50 250Q471 252 493 252L493 252L591 252L591 201L408 201L446 167Q465 169 485.50 171Q506 173 525 173L525 173L591 173Q591 103 589.50 56Q588 9 588-8L588-8L647 10Q644 16 644 173ZM814 113L317 113L351 79Q366 79 391.50 82Q417 85 459 88L459 88L931 88L868 148L814 113ZM156 774L143 766Q206 687 216 620L216 620Q228 564 254 599L254 599Q285 633 269 674L269 674Q250 713 156 774L156 774ZM210 457L63 457L101 419Q137 428 176 428L176 428L213 428L213 107Q159 78 124.50 52.50Q90 27 63 10L63 10L119-39Q133-13 151.50 8Q170 29 191 51L191 51Q232 92 261 66L261 66Q274 52 293 36.50Q312 21 336 0L336 0Q365-17 402.50-29.50Q440-42 487-49L487-49Q535-58 635-61Q735-64 890-64L890-64Q890-21 960-5L960-5L960 13Q787-10 619-5L619-5Q534-2 475.50 2.50Q417 7 387 19L387 19Q318 50 266 107L266 107L266 419L295 444L238 494L210 457Z"/></svg>