<svg id="U283F0" viewBox="0 0 1024 1024"><path transform="translate(0, 921.6) scale(1,-1)" d="M194 704L194 660L83 660L117 625Q132 627 150.50 631Q169 635 187 635L187 635L194 635L194 553L135 553L83 587Q88 556 88.50 526Q89 496 89 468L89 468L89 348Q89 316 88.50 288Q88 260 83 231L83 231L131 254L131 272L194 272L194 168L63 168L98 134Q115 136 132 138Q149 140 169 140L169 140L194 140L194 74Q194 32 193.50-6.50Q193-45 191-88L191-88L241-69Q236-23 235.50 15Q235 53 235 87L235 87L235 140L389 140L346 203L307 168L235 168L235 272L302 272L302 250L346 270Q343 302 343 339L343 339Q343 376 343 414L343 414L343 527L367 543L323 587L295 553L235 553L235 635L367 635L323 697L289 660L235 660L235 754L261 779L191 811Q193 782 193.50 755.50Q194 729 194 704L194 704ZM131 527L194 527L194 427L131 427L131 527ZM235 527L302 527L302 427L235 427L235 527ZM235 401L302 401L302 298L235 298L235 401ZM131 401L194 401L194 298L131 298L131 401ZM770 707L770 663L657 663L691 628Q721 638 761 638L761 638L770 638L770 559L701 559L657 591Q657 560 658.50 529.50Q660 499 660 471L660 471L660 352Q660 322 658.50 292.50Q657 263 657 234L657 234L701 257L701 275L770 275L770 172L638 172L673 137Q689 139 705.50 141.50Q722 144 742 144L742 144L770 144L770 77Q770 34 768.50-6Q767-46 767-88L767-88L814-60Q811-24 811 13L811 13Q811 51 811 93L811 93L811 144L960 144L912 216L878 172L811 172L811 275L887 275L887 254L931 272Q929 305 928.50 342.50Q928 380 928 420L928 420L928 530L947 553L903 597L878 559L811 559L811 638L950 638L906 704L875 663L811 663L811 758L843 786L767 814Q767 785 768.50 758.50Q770 732 770 707L770 707ZM701 530L770 530L770 430L701 430L701 530ZM811 530L887 530L887 430L811 430L811 530ZM811 404L887 404L887 304L811 304L811 404ZM701 404L770 404L770 304L701 304L701 404ZM515 682L364 682L399 647Q430 656 469 656L469 656L547 656Q544 614 538.50 574Q533 534 521 489L521 489L474 489Q504 523 493 559L493 559Q486 579 430 647L430 647L424 638Q459 551 459 489L459 489L402 489L402 530L389 530Q380 466 358 420L358 420Q333 374 358 370L358 370Q385 365 392 393L392 393Q401 404 403 422Q405 440 405 465L405 465L603 465L575 386L591 383Q634 459 663 465L663 465L626 521L600 489L537 489Q549 518 562.50 546Q576 574 591 603L591 603L613 619L559 656L654 656L610 717L572 682L515 682ZM506 329L346 329L367 291L421 304L436 304Q422 65 314-78L314-78L323-88Q434-4 469 190L469 190L559 190Q555 109 550 65Q545 21 541 8L541 8Q532-16 462 2L462 2L462-13Q516-25 521-75L521-75Q570-56 585-19L585-19Q595 6 610 178L610 178L635 203L585 250L559 216L477 216Q479 239 480 260.50Q481 282 484 304L484 304L660 304L616 357L578 329L506 329ZM436 811L430 802Q464 764 474 723L474 723Q482 694 500 704L500 704Q504 710 508.50 720Q513 730 510 745L510 745Q510 767 436 811L436 811ZM449 448L443 437Q459 412 472.50 391.50Q486 371 493 357L493 357Q502 329 518 345L518 345Q534 360 534 386L534 386Q534 409 449 448L449 448Z"/></svg>