<svg id="U286A3" viewBox="0 0 1024 1024"><path transform="translate(0, 921.6) scale(1,-1)" d="M604-74L604-74L664-45Q661 0 661 42L661 42Q661 84 661 129L661 129L661 728L844 728Q822 665 798 598.50Q774 532 746 463L746 463Q913 312 885 221L885 221Q856 123 686 186L686 186L686 167Q779 141 803 82L803 82Q926 101 951 221L951 221Q970 333 781 473L781 473Q813 543 843.50 601.50Q874 660 903 709L903 709L947 730L885 800L849 753L667 753L604 800Q604 743 605.50 688.50Q607 634 607 579L607 579L607 119Q607 67 605.50 20.50Q604-26 604-74ZM472 733L87 733L119 702Q138 704 158.50 706.50Q179 709 198 709L198 709L334 709L334 142L217 110L217 507L242 532L160 579L163 497L163 101Q115 84 71 79L71 79L117 6L144 25Q193 50 302 89.50Q411 129 582 183L582 183L579 201L387 157L387 440L551 440L491 514L443 469L387 469L387 709L589 709L525 781L472 733Z"/></svg>