<svg id="U28C10" viewBox="0 0 1024 1024"><path transform="translate(0, 921.6) scale(1,-1)" d="M619 298L619 298L694 267L670 241Q670 224 675 201Q680 178 698 150L698 150Q794 196 861 273L861 273L905 210L871 203Q849 194 808.50 174.50Q768 155 707 131L707 131Q798 11 950-9L950-9L950-21Q891-36 880-68L880-68Q707 14 660 159L660 159Q632-27 367-75L367-75L361-62Q541 2 581 80L581 80Q604 123 612.50 177.50Q621 232 619 298ZM442 121L442 121Q406 79 433 72L433 72Q460 58 493 87L493 87Q521 109 521 247L521 247L503 247Q479 161 442 121ZM609 424L609 682L726 682L726 424L609 424ZM603 455L609 447Q645 480 670 522L670 522Q678 500 684.50 485.50Q691 471 694 462L694 462Q697 450 702 448Q707 446 710 455L710 455Q719 473 719 490L719 490Q719 507 688 553L688 553Q708 613 729 638L729 638L694 676Q694 656 686 634.50Q678 613 670 584L670 584Q662 589 648.50 606Q635 623 619 645L619 645L613 638Q625 612 634 589.50Q643 567 650 550L650 550Q640 529 628.50 504Q617 479 603 455L603 455ZM565 358L565 358L609 377L609 396L726 396L726 373L767 390Q764 406 763.50 425.50Q763 445 763 468L763 468L763 682L786 698L745 739L719 707L650 707Q662 728 670 745Q678 762 688 777L688 777L701 792L647 821Q647 802 641 773.50Q635 745 631 707L631 707L609 707L565 739Q565 694 568.50 649Q572 604 572 553L572 553Q572 505 568.50 457Q565 409 565 358ZM420 355L464 370L464 403L562 403L524 465L493 427L464 427L464 563L559 563L521 625L493 588L464 588L464 704Q506 722 530 734Q554 746 562 751L562 751L521 792Q494 745 461 723L461 723L420 751Q422 728 422.50 703Q423 678 423 657L423 657L423 462Q423 433 422.50 407Q422 381 420 355L420 355ZM848 358L899 373Q894 402 893.50 431.50Q893 461 893 490L893 490L893 727L915 742L868 780L845 742L763 742L792 714L827 717L848 717L848 601L776 601L808 566L827 573L848 573L848 427L776 427L808 393L824 403L848 403L848 358ZM735 317L852 317L899 355L953 292L511 292Q488 292 468.50 289.50Q449 287 433 285L433 285L395 317L449 317L493 317L735 317ZM109 280L109 280L101 273Q113 230 121.50 193.50Q130 157 133 125L133 125Q138 65 174 115L174 115Q216 164 109 280ZM333 512L288 475L112 475L133 443Q172 449 200 449L200 449L210 449L210 349L70 349L101 311Q123 316 150.50 318.50Q178 321 210 321L210 321L210 62Q172 49 137 42Q102 35 70 33L70 33L107-31Q143-10 216 18Q289 46 401 84L401 84L398 100L253 65L253 103Q310 158 370 232L370 232L395 239L338 288Q321 241 299.50 202Q278 163 253 131L253 131L253 321L398 321L344 383L304 349L253 349L253 449L379 449L333 512ZM231 701L231 701Q269 668 291.50 640Q314 612 326 588L326 588Q352 547 367 588L367 588Q384 629 357 648L357 648Q345 659 317 674.50Q289 690 241 714L241 714L259 761L282 777L222 821Q193 725 150 628Q107 531 50 430L50 430L60 424Q82 441 101 468.50Q120 496 146 534L146 534Q172 574 191.50 615Q211 656 231 701Z"/></svg>