<svg id="U28BDE" viewBox="0 0 1024 1024"><path transform="translate(0, 921.6) scale(1,-1)" d="M184 501L200 595L323 595L323 573L377 592L374 661L374 730L395 749L346 790L317 753L122 753L153 715Q169 719 191 722.50Q213 726 241 728L241 728L323 728L323 623L200 623L153 648Q150 620 146.50 586.50Q143 553 135 514L135 514L114 494L159 450L181 476L305 476Q299 444 293.50 421.50Q288 399 285 391L285 391Q280 368 261 353L261 353Q240 338 207 344L207 344Q189 348 169.50 351Q150 354 125 359L125 359L125 344Q196 324 222 277L222 277Q251 283 270 295Q289 307 302 318L302 318Q319 337 336 381L336 381Q341 401 345.50 423.50Q350 446 358 476L358 476L383 488L336 535L302 501L184 501ZM793 778L415 778L446 743Q460 745 475.50 747Q491 749 513 749L513 749L906 749L849 807L793 778ZM477 573L477 573L525 589L525 592L793 592L793 583L843 595Q840 614 840 655L840 655L840 684L865 702L821 746L789 715L531 715L477 740Q477 721 478.50 702.50Q480 684 480 668L480 668Q480 648 478.50 625Q477 602 477 573ZM846 573L399 573L433 538Q447 545 463.50 546.50Q480 548 500 548L500 548L940 548L890 604L846 573ZM840 460L840 460L840 494L862 514L814 548L789 526L521 526L471 545Q471 521 472.50 503Q474 485 474 469L474 469Q474 452 472.50 424Q471 396 471 359L471 359L518 372L518 381L793 381L793 365L843 384Q840 396 840 416L840 416Q840 436 840 460ZM525 668L525 689L635 689L635 668L525 668ZM673 668L673 689L793 689L793 668L673 668ZM525 617L525 643L635 643L635 617L525 617ZM673 617L673 643L793 643L793 617L673 617ZM518 469L518 497L635 497L635 469L518 469ZM673 469L673 497L793 497L793 469L673 469ZM673 409L673 440L793 440L793 409L673 409ZM518 409L518 440L635 440L635 409L518 409ZM824 355L387 355L421 318Q432 322 449.50 326.50Q467 331 490 331L490 331L928 331L871 384L824 355ZM480 344L480 344Q355 205 60 151L60 151L60 136Q350 168 503 283L503 283Q677 167 890 145L890 145Q895 180 963 195L963 195L963 205Q728 194 518 303L518 303L556 312L480 344ZM292 69L292 69L285 66Q334 12 339-14L339-14Q351-55 367-23L367-23Q389 2 367 25L367 25Q356 42 292 69ZM717 28L752 44L685 79Q660 19 616-42L616-42L534-42L534 72L830 72L764 136L714 101L534 101L534 157L711 157L647 214L600 183L307 183L343 148Q358 150 375.50 153.50Q393 157 415 157L415 157L480 157L480 101L181 101L220 63Q250 72 302 72L302 72L480 72L480-42L73-42L108-80Q133-67 176-67L176-67L947-67L884 3L834-42L641-42Q660-20 678.50-4.50Q697 11 717 28L717 28Z"/></svg>