<svg id="U28697" viewBox="0 0 1024 1024"><path transform="translate(0, 921.6) scale(1,-1)" d="M624-88L624-88L680-62Q678-17 678 26L678 26Q678 70 678 124L678 124L678 676L857 676Q841 619 817.50 556.50Q794 494 763 424L763 424Q919 281 895 188L895 188Q864 94 706 159L706 159L706 140Q787 116 813 59L813 59Q930 82 952 190L952 190Q974 294 795 433L795 433Q827 506 857.50 562Q888 618 917 660L917 660L952 679L898 745L860 704L680 704L624 738Q624 690 626 641Q628 592 628 540L628 540L628 96Q628 41 626-6Q624-53 624-88ZM372 439L372 615L486 615L486 439L372 439ZM533 600L564 628L517 685L482 641L376 641L376 754L401 782L319 814Q323 771 324 730Q325 689 325 641L325 641L218 641L158 685Q160 628 160.50 565.50Q161 503 161 439L161 439L69 439L103 404Q115 407 128.50 410.50Q142 414 161 414L161 414L161 237L75 237L113 200L152 209L161 209L161 67Q161 25 160.50-10Q160-45 158-88L158-88L212-69L212 209L486 209L486 11Q480-9 372 8L372 8L372-6Q467-35 467-85L467-85Q533-66 533 8L533 8L533 209L628 209L580 275L539 237L533 237L533 414L628 414L577 480L539 439L533 439L533 600ZM486 237L372 237L372 414L486 414L486 237ZM212 237L212 414L325 414L325 237L212 237ZM212 615L325 615L325 439L212 439L212 615Z"/></svg>