<svg id="U28FC5" viewBox="0 0 1000 1000"><path transform="translate(0, 900) scale(1,-1)" d="M687 813C712 769 742 709 755 670L817 699C802 736 773 793 746 837ZM211 844C175 729 114 616 43 542C57 530 81 501 90 487C111 511 132 539 152 569C188 529 224 482 246 446C183 373 111 314 38 275C53 263 73 238 83 221C102 232 122 245 141 259L141-67L208-67L208-16L389-16L389-60L457-60L457 352L251 352C349 450 431 579 476 733L431 754L418 751L248 751C258 776 268 801 276 827ZM208 52L208 285L389 285L389 52ZM218 683L387 683C363 618 329 557 289 501C263 539 223 585 186 623C197 642 207 662 218 683ZM593 837C556 696 495 555 420 462C433 447 456 413 464 399C485 427 506 458 525 492L525-79L595-79L595-8L955-8L955 61L795 61L795 199L926 199L926 267L795 267L795 396L926 396L926 464L795 464L795 592L944 592L944 659L604 659C625 711 643 766 659 820ZM595 396L726 396L726 267L595 267ZM595 464L595 592L726 592L726 464ZM595 199L726 199L726 61L595 61Z"/></svg>