<svg id="U28C6A" viewBox="0 0 1024 1024"><path transform="translate(0, 921.6) scale(1,-1)" d="M389 75L150 44Q176 74 208 117.50Q240 161 282 221L282 221L314 239L263 277L515 277L459 350L408 303L216 303L216 432L465 432L408 504L364 457L216 457L216 576L465 576L408 648L364 604L216 604L216 730L487 730L430 803L387 759L213 759L159 797Q164 746 165 625Q166 504 166 303L166 303L60 303L96 265Q129 272 169 277L169 277L235 277Q206 201 183.50 154Q161 107 147 88L147 88Q117 44 92 44L92 44L128-23Q165 6 392 57L392 57Q399 33 402 15Q405-3 408-17L408-17Q413-49 433-29L433-29Q459-8 459 25L459 25Q463 71 354 180L354 180L346 167Q360 144 371 121Q382 98 389 75L389 75ZM626 766L569 800Q569 755 572 701Q575 647 575 586L575 586L575 409L459 409L490 372Q509 374 526 376Q543 378 562 381L562 381L575 381Q570 300 563.50 232Q557 164 544 110L544 110Q515 11 433-67L433-67L446-77Q543-10 582 88L582 88Q599 143 610 215.50Q621 288 626 381L626 381L821 381L821 47Q821 10 793 10L793 10Q778 10 752.50 12.50Q727 15 695 22L695 22L695 6Q788-20 802-77L802-77Q871-40 871 25L871 25L871 378L963 378L909 447L871 409L871 725L899 749L849 800L818 766L626 766ZM626 409L626 740L821 740L821 409L626 409ZM685 661L685 661L673 655Q713 560 720 517L720 517Q725 463 742 476L742 476Q763 479 770 522L770 522Q780 556 685 661ZM695 331L695 331L680 324Q695 273 704.50 239Q714 205 717 180L717 180Q717 133 739 142L739 142Q753 145 764 186L764 186Q773 229 695 331Z"/></svg>