<svg id="U285F5" viewBox="0 0 1024 1024"><path transform="translate(0, 921.6) scale(1,-1)" d="M506 759L506 759L525 776L462 810Q453 781 441 750Q429 719 415 684L415 684Q400 651 375.50 611.50Q351 572 314 524L314 524L323 517Q365 545 401 586Q437 627 469 681L469 681L890 681L830 747L773 706L474 706Q481 718 487.50 730Q494 742 506 759ZM937 457L906 360Q843 397 843 517L843 517L871 536L824 589L789 552L395 552L433 517Q469 527 510 527L510 527L793 527Q789 523 802 432L802 432Q821 333 890 303L890 303Q959 268 950 303L950 303Q942 319 941 339Q940 359 940 375L940 375Q940 392 941 412.50Q942 433 950 454L950 454L937 457ZM704 630L459 630L484 593Q512 605 559 605L559 605L814 605L745 668L704 630ZM525 467L525 467L367 467L402 432Q418 434 436.50 436Q455 438 474 438L474 438L525 438L525 391L317 391L351 357Q370 359 390.50 361Q411 363 430 363L430 363L796 363L736 426L688 391L575 391L575 438L745 438L688 498L654 467L575 467L575 491L591 511L521 532Q521 513 523 497Q525 481 525 467ZM575 183L575 183L758 183L708 246L667 211L575 211L575 262L777 262L726 316L685 290L600 290Q661 341 676 341L676 341L626 372Q615 337 585 290L585 290L506 290Q519 309 513 322L513 322Q507 344 440 363L440 363L430 360Q466 321 480 290L480 290L326 290L364 255Q384 259 402.50 260.50Q421 262 440 262L440 262L525 262L525 211L354 211L392 177Q409 179 429 181Q449 183 469 183L469 183L525 183Q525 116 523 70.50Q521 25 521 2L521 2L578 13Q575 31 575 183ZM755 126L298 126L330 95Q348 101 392 101L392 101L868 101L805 164L755 126ZM156 779L143 766Q205 691 216 624L216 624Q229 566 254 602L254 602Q284 636 269 674L269 674Q250 717 156 779L156 779ZM210 457L63 457L101 419Q131 432 176 432L176 432L213 432L213 108Q159 78 124.50 54.50Q90 31 63 10L63 10L119-35Q145 9 191 51L191 51Q230 94 261 67L261 67Q274 52 293 37Q312 22 336 5L336 5Q364-12 401.50-25Q439-38 487-48L487-48Q535-54 635-59Q735-64 890-64L890-64Q890-17 960-4L960-4L960 13Q876 5 790-0.50Q704-6 619-4L619-4Q534 1 475.50 6Q417 11 387 23L387 23Q355 36 325 56Q295 76 266 108L266 108L266 419L295 448L238 495L210 457Z"/></svg>