<svg id="U28511" viewBox="0 0 1024 1024"><path transform="translate(0, 921.6) scale(1,-1)" d="M621 506L505 506L505 644L530 676L451 713Q453 689 453.50 636.50Q454 584 454 506L454 506L338 506L375 468Q391 472 412 476Q433 480 457 480L457 480L930 480L870 550L816 506L668 506L668 635L879 635L816 701L775 660L668 660L668 735L700 761L618 802Q618 772 619.50 699.50Q621 627 621 506L621 506ZM353 33L353 33L356 21Q417 59 457 118L457 118Q492 176 492 386L492 386L753 386L753 105Q753 77 637 103L637 103L637 83Q728 70 728 8L728 8Q800 31 804 83L804 83L804 376L832 404L778 448L747 411L492 411L435 445Q439 417 440 378Q441 339 441 288L441 288Q441 237 435.50 200Q430 163 426 137L426 137Q407 85 353 33ZM649 275L649 275Q682 240 700 272L700 272Q708 308 675 329L675 329Q653 336 616.50 344.50Q580 353 523 357L523 357L520 348Q613 317 649 275ZM740 222L740 222L737 234Q653 211 591.50 199.50Q530 188 485 181L485 181L523 124Q554 143 608 165.50Q662 188 740 222ZM164 786L158 776Q215 707 224 653L224 653Q242 581 268 625L268 625Q293 665 274 701L274 701Q251 734 164 786L164 786ZM62-31L62-31L106-75Q129-20 202 62L202 62Q306-20 423-50L423-50Q477-59 590-63Q703-67 879-62L879-62Q892-20 961 0L961 0L961 14Q768-15 549-9L549-9Q324 0 233 80L233 80Q252 128 270 170Q288 212 309 254L309 254L338 275L294 329L262 298L196 298Q225 361 245 400Q265 439 277 461L277 461L315 480L268 540L233 499L88 499L123 461L164 471L230 471L145 307L116 285L161 237L192 272L259 272Q239 220 217 171Q195 122 177 77L177 77Q148 54 121 26.50Q94-1 62-31Z"/></svg>