<svg id="U28CE8" viewBox="0 0 1024 1024"><path transform="translate(0, 921.6) scale(1,-1)" d="M747 34L747 34Q760 82 719 113L719 113Q697 134 641.50 159.50Q586 185 501 221L501 221L513 262L804 262L731 324L680 286L517 286Q521 314 524 347Q527 380 533 422L533 422L719 422L668 481L621 447L274 447L312 409Q347 422 400 422L400 422L476 422Q476 398 470.50 364.50Q465 331 461 286L461 286L186 286L224 245Q242 250 262 254.50Q282 259 305 262L305 262L457 262Q405 83 186 6L186 6L192-8Q415 46 495 201L495 201Q561 158 608.50 121Q656 84 678 54L678 54Q725-3 747 34ZM545 794L545 481L598 497L598 514L842 514L842 41Q842 11 813 0L813 0Q802 0 773.50 3.50Q745 7 700 10L700 10L700-5Q800-21 809-80L809-80Q891-56 891 16L891 16L891 730L924 766L866 807L835 766L602 766L545 794ZM598 652L598 737L842 737L842 652L598 652ZM598 623L842 623L842 538L598 538L598 623ZM158 766L100 794Q105 751 105.50 708.50Q106 666 106 623L106 623L106 79Q106 37 105.50-2.50Q105-42 100-80L100-80L155-49L155 514L397 514L397 481L454 504Q449 539 448.50 570Q448 601 448 630L448 630L448 728L476 756L416 807L388 766L158 766ZM155 623L397 623L397 538L155 538L155 623ZM155 737L397 737L397 652L155 652L155 737Z"/></svg>