<svg id="U28334" viewBox="0 0 1024 1024"><path transform="translate(0, 921.6) scale(1,-1)" d="M533-86L533-86L586-58L586 10L961 10L904 79L850 34L772 34L772 218L942 218L883 293L829 245L772 245L772 400L945 400L883 479L842 425L772 425L772 586L955 586L898 661L850 614L574 614Q588 646 601.50 677.50Q615 709 627 740L627 740L662 769L586 813Q567 713 526 611L526 611Q505 550 486.50 508Q468 466 454 438L454 438L470 428Q484 444 500 472Q516 500 536 535L536 535L536 101Q536 58 534.50 13Q533-32 533-86ZM586 586L721 586L721 425L586 425L586 586ZM586 245L586 400L721 400L721 245L586 245ZM586 34L586 218L721 218L721 34L586 34ZM693 800L693 800L687 794Q708 752 724.50 722Q741 692 744 674L744 674Q754 621 769 636L769 636Q787 647 801 677L801 677Q808 708 785 733L785 733Q756 762 693 800ZM246 709L246 658L68 658L103 623Q117 626 134 629.50Q151 633 171 633L171 633L246 633L246 558L168 558L106 592Q109 559 109 527L109 527Q109 496 109 466L109 466L109 350Q109 318 109 288L109 288Q109 258 106 229L106 229L161 255L161 271L246 271L246 170L62 170L94 136Q111 138 128 141.50Q145 145 164 145L164 145L246 145L246 72Q246 34 245.50-3.50Q245-41 243-86L243-86L300-58Q297-15 297 20L297 20Q297 55 297 88L297 88L297 145L489 145L429 218L382 170L297 170L297 271L382 271L382 252L438 271Q435 303 435 340L435 340Q435 377 435 413L435 413L435 529L464 555L413 599L379 558L297 558L297 633L472 633L416 699L366 658L297 658L297 756L325 787L243 813Q245 783 245.50 757.50Q246 732 246 709L246 709ZM161 529L246 529L246 425L161 425L161 529ZM297 529L382 529L382 425L297 425L297 529ZM297 400L382 400L382 296L297 296L297 400ZM161 400L246 400L246 296L161 296L161 400Z"/></svg>