<svg id="U282F8" viewBox="0 0 1024 1024"><path transform="translate(0, 921.6) scale(1,-1)" d="M655 620L482 620L517 586Q550 595 590 595L590 595L655 595Q655 526 653 452Q651 378 649 293L649 293L451 293L482 262Q501 264 518.50 266Q536 268 555 268L555 268L646 268Q617 155 555 72L555 72Q521 30 475.50-4.50Q430-39 372-77L372-77L375-86Q436-64 489-33Q542-2 580 38L580 38Q664 122 696 268L696 268L712 268Q725 184 763 95L763 95Q779 52 808 8.50Q837-35 883-83L883-83Q907-42 958-42L958-42L958-29Q871 9 819 88L819 88Q758 171 734 268L734 268L935 268L876 340L822 293L696 293Q701 381 703.50 456.50Q706 532 706 595L706 595L907 595L850 661L804 620L706 620L706 740L734 771L652 813Q652 786 653.50 738Q655 690 655 620L655 620ZM508 545L508 545L495 538Q523 477 538 432.50Q553 388 557 362L557 362Q562 306 593 340L593 340Q615 368 611 406L611 406Q599 447 508 545ZM888 504L822 558Q790 454 728 344L728 344L740 337Q762 363 781.50 389Q801 415 822 444L822 444Q853 493 888 504L888 504ZM243 696L243 652L72 652L106 617Q121 619 138 621Q155 623 177 623L177 623L243 623L243 545L168 545L109 579Q112 548 112 519L112 519Q112 491 112 463L112 463L112 344Q112 314 112 284L112 284Q112 255 109 227L109 227L161 249L161 268L243 268L243 167L65 167L100 132Q117 136 134 137.50Q151 139 168 139L168 139L243 139L243 69Q243 31 242.50-6Q242-43 240-86L240-86L294-58Q288-18 287.50 17Q287 52 287 85L287 85L287 139L464 139L403 214L362 167L287 167L287 268L375 268L375 245L429 268Q424 300 423.50 335.50Q423 371 423 406L423 406L423 520L454 542L400 592L372 545L287 545L287 623L461 623L403 692L359 652L287 652L287 749L318 778L240 813Q242 779 242.50 750.50Q243 722 243 696L243 696ZM161 520L243 520L243 422L161 422L161 520ZM287 520L375 520L375 422L287 422L287 520ZM287 396L375 396L375 293L287 293L287 396ZM161 396L243 396L243 293L161 293L161 396Z"/></svg>