<svg id="U28AD5" viewBox="0 0 1024 1024"><path transform="translate(0, 921.6) scale(1,-1)" d="M932 640L932 640L879 692L850 655L485 655L482 692L472 692Q459 606 435 579L435 579Q407 548 423 538L423 538Q439 529 464 545L464 545Q485 555 485 630L485 630L850 630L813 545L826 538Q890 628 932 640ZM608 807L598 797Q615 768 628 744Q641 720 649 699L649 699Q664 652 687 677L687 677Q706 699 706 730L706 730Q696 758 608 807L608 807ZM561 494L438 494L464 460Q487 462 506 464Q525 466 542 466L542 466L659 466L602 532L561 494ZM602 350L416 350L444 318L472 324L482 324Q482 246 476.50 186.50Q471 127 457 85L457 85Q442 40 416.50 2Q391-36 356-74L356-74L362-83Q470-18 498 72L498 72Q530 179 530 324L530 324L580 324L580 38Q580-54 646-58L646-58L883-58Q935-58 965-8L965-8Q933 3 930 38L930 38Q927 59 927 80L927 80Q927 102 927 123L927 123L911 123Q911 90 908.50 65.50Q906 41 904 25L904 25Q900-6 866-17L866-17L655-17Q627-10 627 54L627 54L627 324L690 324L639 388L602 350ZM737 396L737 396L816 396Q810 344 800 295Q790 246 781 201L781 201Q772 220 766 243.50Q760 267 753 293L753 293Q748 318 742.50 344Q737 370 737 396ZM809 538L750 579Q740 544 731.50 507Q723 470 712 435L712 435Q700 393 684.50 355.50Q669 318 652 280L652 280L665 271Q689 302 719 355L719 355Q725 298 734 248.50Q743 199 763 157L763 157Q710 74 646 19L646 19L652 10Q734 54 781 110L781 110Q798 81 814.50 60Q831 39 847 19L847 19Q857 38 904 47L904 47L904 57Q887 60 850 91L850 91Q816 119 804 151L804 151Q812 175 822 204.50Q832 234 842 268L842 268Q851 344 863 396L863 396L920 396L870 453L832 422L750 422Q759 445 767.50 467Q776 489 788 514L788 514L809 538ZM183 177L183 177Q172 197 149 215.50Q126 234 100 258L100 258L94 249Q139 163 148 113L148 113Q159 57 186 104L186 104Q213 140 183 177ZM350 517L309 479L133 479L155 440Q188 453 224 453L224 453L230 453L230 347L94 347L117 309Q153 321 230 321L230 321L230 51Q187 38 151.50 30.50Q116 23 78 19L78 19L112-42Q163-22 240 4.50Q317 31 423 69L423 69L423 85L277 54L277 95Q339 149 388 214L388 214L423 229L362 283Q344 229 322.50 191Q301 153 277 123L277 123L277 321L416 321L366 381L328 347L277 347L277 453L400 453L350 517ZM259 705L259 705Q294 667 319.50 638.50Q345 610 356 592L356 592Q377 540 397 592L397 592Q412 632 379 658L379 658Q361 670 333 684Q305 698 265 718L265 718L277 753L300 771L230 810Q207 702 162 601Q117 500 59 400L59 400L68 396Q114 433 164 507L164 507Q190 547 213.50 597.50Q237 648 259 705Z"/></svg>