<svg id="U28A4D" viewBox="0 0 1024 1024"><path transform="translate(0, 921.6) scale(1,-1)" d="M870 756L870 756L804 803Q795 773 775 732.50Q755 692 724 640L724 640L454 640L489 602Q517 609 557 614L557 614L659 614L659 517L482 517L517 481Q533 484 550.50 487.50Q568 491 590 491L590 491L659 491L659 400L431 400L464 362Q482 366 499 370.50Q516 375 536 375L536 375L965 375L904 440L860 400L712 400L712 491L917 491L860 555L809 517L712 517L712 614L942 614L888 677L842 640L747 640Q759 653 774.50 670.50Q790 688 806 709L806 709Q848 748 870 756ZM523 794L523 794L517 784Q547 742 567 714.50Q587 687 593 671L593 671Q601 627 621 661L621 661Q638 696 621 725L621 725Q611 736 587 754Q563 772 523 794ZM520 104L520 104Q534 99 551 94.50Q568 90 590 88L590 88Q605 81 626.50 76.50Q648 72 678 66L678 66Q656 42 627 22.50Q598 3 561-17L561-17Q495-49 420-64L420-64L420-80Q468-77 509.50-67Q551-57 593-42L593-42Q630-25 663.50-3Q697 19 728 47L728 47Q816 0 854-42L854-42Q896-80 901-55L901-55Q905-17 891 10L891 10Q878 38 757 85L757 85Q791 142 826 239L826 239L965 239L907 299L866 265L832 265L842 283L860 306L788 337Q788 300 781 265L781 265L637 265Q653 295 665 312L665 312L687 331L618 378Q612 343 604 314Q596 285 590 265L590 265L438 265L472 229Q489 232 506 235.50Q523 239 542 239L542 239L580 239Q562 197 548 164.50Q534 132 520 104ZM631 239L631 239L772 239Q736 141 706 98L706 98Q675 104 640 109.50Q605 115 570 123L570 123Q587 155 602.50 184Q618 213 631 239ZM189 167L189 167Q175 183 153.50 206Q132 229 103 252L103 252L94 242Q137 159 151 104L151 104Q160 75 169 69.50Q178 64 192 88L192 88Q222 128 189 167ZM372 504L325 466L164 466Q190 506 218 560.50Q246 615 277 687L277 687Q312 653 339.50 626.50Q367 600 382 576L382 576Q410 528 426 576L426 576Q439 622 403 648L403 648Q385 657 354 669.50Q323 682 281 699L281 699Q284 709 289.50 721.50Q295 734 303 749L303 749L328 769L259 807Q221 687 172 577.50Q123 468 59 368L59 368L72 362Q91 378 112 401.50Q133 425 151 453L151 453L174 435Q190 437 199 438.50Q208 440 212 440L212 440L243 440L243 331L84 331L116 299Q136 303 155.50 304.50Q175 306 192 306L192 306L243 306L243 34Q195 20 156 14.50Q117 9 88 6L88 6L127-58Q224-11 461 57L461 57L457 72L290 38L290 79Q325 114 354 145Q383 176 407 205L407 205L441 227L385 283Q355 217 332.50 172.50Q310 128 290 107L290 107L290 306L441 306L388 368L341 331L290 331L290 440L431 440L372 504Z"/></svg>