<svg id="U284AE" viewBox="0 0 1024 1024"><path transform="translate(0, 921.6) scale(1,-1)" d="M673 723L701 754L626 802Q592 582 500 420L500 420L510 411Q588 495 623 581L623 581L837 581L793 461L802 452Q887 575 931 584L931 584L875 641L840 606L629 606Q642 644 653.50 672.50Q665 701 673 723L673 723ZM711 471L711 471L736 502L657 537Q672 170 421 23L421 23L424 11Q636 90 695 332L695 332Q726 128 881 21L881 21Q900 59 950 64L950 64L950 77Q824 123 770 229L770 229Q711 330 711 386L711 386Q701 437 711 471ZM452 615L346 615L380 578Q402 587 449 587L449 587L541 587L497 656L452 615ZM480 270L346 270L374 231Q388 235 402 239.50Q416 244 433 244L433 244L562 244L518 313L480 270ZM163 789L156 776Q211 711 225 653L225 653Q240 581 266 625L266 625Q292 665 273 701L273 701Q256 731 163 789L163 789ZM60-31L60-31L104-75Q133-10 200 62L200 62Q305-20 421-50L421-50Q478-59 589.50-63Q701-67 878-62L878-62Q890-19 963 0L963 0L960 14Q864 0 761.50-5.50Q659-11 547-6L547-6Q324-2 232 80L232 80Q250 128 268 170Q286 212 307 254L307 254L336 275L292 329L263 298L194 298Q224 361 245 400Q266 439 276 461L276 461L314 480L266 540L232 499L86 499L122 461L163 471L228 471L147 307L114 285L159 237L191 272L257 272Q238 223 215.50 172.50Q193 122 176 77L176 77Q148 54 119.50 27.50Q91 1 60-31Z"/></svg>