<svg id="U28F59" viewBox="0 0 1024 1024"><path transform="translate(0, 921.6) scale(1,-1)" d="M94-73L139-39L139 719L271 719L202 511Q230 473 246.50 439.50Q263 406 271 382L271 382Q285 334 274 296L274 296Q264 268 227 268L227 268Q208 271 188.50 272Q169 273 145 278L145 278L145 265Q217 242 221 193L221 193Q247 197 264.50 208Q282 219 297 234L297 234Q327 264 331 309L331 309Q336 354 309 406L309 406Q290 449 230 511L230 511Q249 565 273 614.50Q297 664 328 712L328 712L350 732L300 779L268 743L139 743L94 776Q97 734 97 629L97 629Q97 524 97 350L97 350Q97 176 97 73L97 73Q97-30 94-73L94-73ZM678 653L435 653L479 614Q495 616 512 619Q529 622 549 624L549 624L765 624L716 681L678 653ZM927 643L927 643L927 658Q844 658 760 694L760 694Q674 728 624 769L624 769L649 781L590 820Q556 758 472 712L472 712Q430 686 385.50 663Q341 640 290 624L290 624L294 609Q384 632 463 667Q542 702 608 756L608 756Q637 725 670 701.50Q703 678 734 662L734 662Q804 621 860 605L860 605Q875 634 927 643ZM778 218L346 218L379 187Q396 189 413.50 191Q431 193 451 193L451 193L577 193L577-19L271-19L309-54Q325-52 342-48.50Q359-45 379-45L379-45L930-45L873 16L829-19L621-19L621 193L873 193L816 259L778 218ZM495 155L495 155L435 190Q426 127 394.50 79.50Q363 32 318-1L318-1L328-13Q407 29 451 95L451 95Q498 42 508 9L508 9Q516-26 539 5L539 5Q556 38 530 61L530 61Q512 82 461 111L461 111Q477 144 495 155ZM765 111L765 111Q784 150 809 161L809 161L747 196Q712 61 637 2L637 2L639-7Q707 17 760 95L760 95Q778 69 792 49.50Q806 30 816 13L816 13Q820-1 828.50-5Q837-9 845 5L845 5Q860 34 842 54L842 54Q829 73 765 111ZM564 571L596 602L637 558L608 539L608 313Q608 257 552 234L552 234Q552 282 489 287L489 287L489 303Q567 288 567 313L567 313L567 545L441 545L441 252L394 234Q398 403 394 596L394 596L444 571L564 571ZM429 463L429 489L580 489L580 463L429 463ZM429 388L429 413L580 413L580 388L429 388ZM668 548L668 341L716 363L716 504L734 527L668 548ZM785 507L785 507L785 341Q785 313 765 313L765 313Q756 313 738 314Q720 315 693 322L693 322L693 306Q759 286 772 249L772 249Q832 271 832 331L832 331L832 545L854 568L781 602Q781 575 783 553Q785 531 785 507Z"/></svg>