<svg id="U28E53" viewBox="0 0 1024 1024"><path transform="translate(0, 921.6) scale(1,-1)" d="M608 790L537 833Q469 670 347 571L347 571L353 555Q401 583 436.50 609Q472 635 495 664L495 664Q522 618 550 583Q578 548 608 519L608 519Q502 440 350 397L350 397L350 381Q428 393 500.50 420.50Q573 448 647 487L647 487Q740 414 872 374L872 374Q896 408 946 419L946 419L946 435Q796 445 685 519L685 519Q725 552 751 578.50Q777 605 792 622L792 622Q806 639 820.50 651.50Q835 664 850 677L850 677L792 732L756 697L518 697L579 774L608 790ZM647 545L647 545Q585 590 524 671L524 671L756 671Q731 637 703.50 606Q676 575 647 545ZM469 319L411 339Q411 314 412.50 290Q414 266 414 242L414 242L414 116Q414 89 412.50 62.50Q411 36 411 10L411 10L472 35Q469 60 469 91L469 91Q469 122 469 161L469 161L469 293L598 293L598 74Q598 31 596.50-8Q595-47 595-88L595-88L656-69Q653-29 653 6L653 6Q653 42 653 84L653 84L653 293L788 293L788 93Q788 60 695 84L695 84L695 68Q770 38 776 3L776 3Q843 28 843 74L843 74L843 284L869 316L808 355L785 319L653 319L653 387L679 413L595 438Q595 408 596.50 378Q598 348 598 319L598 319L469 319ZM78-79L134-50L134 726L289 726L211 519Q278 431 285 393L285 393Q289 371 290 349Q291 327 289 306L289 306Q282 278 237 278L237 278Q216 280 194 281Q172 282 150 287L150 287L150 274Q225 248 230 203L230 203Q285 216 314 245L314 245Q329 257 335 276Q341 295 347 319L347 319Q349 340 346 366Q343 392 327 419L327 419Q313 444 290 468.50Q267 493 237 519L237 519Q266 575 293 623.50Q320 672 347 719L347 719L369 739L311 790L285 755L137 755L78 790Q81 727 81 626L81 626Q81 525 81 377L81 377Q81 226 81 113L81 113Q81 1 78-79L78-79Z"/></svg>