<svg id="U284F2" viewBox="0 0 1024 1024"><path transform="translate(0, 921.6) scale(1,-1)" d="M580 526L580 702L826 702L826 526L580 526ZM530 469L530 469L580 488L580 497L826 497L826 460L879 491Q876 520 876 544L876 544Q876 569 876 589L876 589L876 689L907 718L850 766L822 728L580 728L530 762Q530 724 531.50 688Q533 652 533 620L533 620Q533 585 531.50 547Q530 509 530 469ZM614 416L545 450L549 362Q549 317 542.50 272.50Q536 228 530 183L530 183Q505 85 448 19L448 19L454 10Q548 83 574 177L574 177Q586 222 591 276.50Q596 331 596 394L596 394L614 416ZM668 324L668 324L668 173Q668 145 666.50 110.50Q665 76 665 41L665 41L721 66L716 145L716 224L716 375L734 406L665 438Q665 393 666.50 364.50Q668 336 668 324ZM788 331L788 331L788 107Q784 40 847 44L847 44L911 44Q967 63 948 82L948 82Q930 108 917 98L917 98Q898 85 886 85L886 85L860 85Q832 85 832 139L832 139L832 381L860 413L785 450Q785 412 786.50 382Q788 352 788 331ZM451 180L451 180L451 517L470 548L435 573Q449 602 464 641.50Q479 681 501 730L501 730L520 759L457 800Q419 594 294 413L294 413L303 406Q392 501 400 522L400 522L400 136Q400 116 399.50 85.50Q399 55 397 13L397 13L454 47Q451 77 451 111L451 111Q451 146 451 180ZM164 787L158 778Q181 747 200 714.50Q219 682 224 652L224 652Q240 590 265 627L265 627Q292 663 274 702L274 702Q257 729 164 787L164 787ZM62-29L62-29L106-74Q118-43 141-11Q164 21 202 63L202 63Q304-19 420-49L420-49Q475-61 589-63.50Q703-66 879-64L879-64Q888-18 961 0L961 0L961 13Q767-13 549-8L549-8Q330-3 230 82L230 82Q251 130 269 171.50Q287 213 305 255L305 255L338 277L294 331L262 299L196 299Q225 360 245 400Q265 440 277 460L277 460L315 479L265 542L230 497L88 497L123 460L164 473L227 473L145 309L112 283L161 239L189 274L259 274Q237 222 216 173Q195 124 177 79L177 79Q148 55 121 27.50Q94 0 62-29Z"/></svg>