<svg id="U28DB6" viewBox="0 0 1024 1024"><path transform="translate(0, 921.6) scale(1,-1)" d="M693 2L693 124L721 144L665 188L637 159L479 159Q505 168 524.50 176.50Q544 185 561 197L561 197L801 197L737 257L690 222L605 222Q634 240 651.50 251Q669 262 680 270L680 270Q689 273 701.50 276Q714 279 728 285L728 285L665 329Q657 317 646 306Q635 295 621 285L621 285L574 326L536 298L505 298L505 326L533 345L448 373Q448 352 449.50 334Q451 316 451 298L451 298L290 298L328 266Q367 272 410 272L410 272L451 272L451 222L208 222L246 190Q264 192 285 194.50Q306 197 328 197L328 197L482 197Q463 185 446 178Q429 171 410 162L410 162L359 175L359 144Q302 124 257 110Q212 96 174 90L174 90L177 70Q234 79 279 92.50Q324 106 362 118L362 118L362 2L359-44L410-34L410-16L643-16L643-44L696-31L693 2ZM536 222L536 222L505 222L505 272L614 272Q597 263 576.50 251.50Q556 240 536 222ZM410 83L410 134L643 134L643 83L410 83ZM410 8L410 59L643 59L643 8L410 8ZM444 448L196 448L230 414Q280 424 312 424L312 424L429 424Q363 348 205 307L205 307L208 288Q334 313 391 348L391 348Q454 379 485 424L485 424L549 424Q567 400 590.50 382Q614 364 643 348L643 348Q673 331 701.50 317Q730 303 760 294L760 294Q774 323 826 332L826 332L826 348Q713 357 655 383L655 383Q601 403 577 424L577 424L801 424L740 486L700 448L501 448Q520 485 539 493L539 493L470 527Q470 489 444 448L444 448ZM545 795L545 512L598 527L598 537L839 537L839 42Q839 7 813 2L813 2Q788 2 700 8L700 8L700-3Q795-21 809-78L809-78Q891-54 891 18L891 18L891 732L924 764L866 805L835 764L602 764L545 795ZM598 663L598 738L839 738L839 663L598 663ZM598 638L839 638L839 563L598 563L598 638ZM158 764L100 795Q103 752 103 709L103 709Q103 667 103 625L103 625L103 80Q103 37 103-3L103-3Q103-43 100-78L100-78L155-50L155 537L397 537L397 518L451 540Q448 568 448 589L448 589Q448 611 448 628L448 628L448 726L476 758L416 805L388 764L158 764ZM155 638L397 638L397 563L155 563L155 638ZM155 738L397 738L397 663L155 663L155 738Z"/></svg>