<svg id="U28986" viewBox="0 0 1024 1024"><path transform="translate(0, 921.6) scale(1,-1)" d="M487 360L487 360L541 386L541 401L865 401L865 364L919 389L915 465L915 691L944 723L887 771L858 729L534 729L487 755Q487 717 488.50 665.50Q490 614 490 556L490 556Q490 493 488.50 444.50Q487 396 487 360ZM541 427L541 560L865 560L865 427L541 427ZM541 587L541 704L865 704L865 587L541 587ZM849-28L849-28L619-28Q546-28 550 36L550 36L550 128Q626 149 706 178Q786 207 871 244L871 244L912 244L855 319Q812 268 736 231L736 231Q667 196 550 156L550 156L550 270L585 298L500 336Q500 307 501.50 284.50Q503 262 503 247L503 247L503-6Q503-79 585-75L585-75L878-75Q908-69 929.50-58.50Q951-48 963-21L963-21Q933-1 928 30L928 30Q921 46 920 73.50Q919 101 919 134L919 134L906 134Q906 103 902.50 73.50Q899 44 899 23L899 23Q899-22 849-28ZM128 267L128 267L117 260Q154 164 159 108L159 108Q169 54 207 105L207 105Q243 155 128 267ZM389 512L348 465L172 465Q204 517 233.50 570.50Q263 624 289 679L289 679Q372 619 402 578L402 578Q434 522 449 575L449 575Q462 618 428 641L428 641Q408 652 377 666.50Q346 681 295 697L295 697L320 745L343 758L273 802Q228 670 177 562.50Q126 455 60 373L60 373L70 360Q92 377 113.50 396.50Q135 416 156 439L156 439L251 439L251 316L80 316L117 278Q144 288 197 288L197 288L251 288L251 30Q203 21 160.50 14Q118 7 83 5L83 5L119-62Q166-30 471 49L471 49L469 64L302 33L302 77Q374 137 424 200L424 200L462 213L405 272Q350 160 302 105L302 105L302 288L465 288L411 357L364 316L302 316L302 439L449 439L389 512Z"/></svg>