<svg id="U283EB" viewBox="0 0 1024 1024"><path transform="translate(0, 921.6) scale(1,-1)" d="M438 607L438 607L429 599Q445 569 458.50 546.50Q472 524 482 501L482 501Q494 447 517 494L517 494Q539 528 508 561L508 561Q493 572 475 584Q457 596 438 607ZM403 432L403 432L397 422Q411 400 422 376.50Q433 353 441 327L441 327Q455 291 476 321L476 321Q488 355 476 378L476 378Q465 390 447.50 401Q430 412 403 432ZM391 126L391 126L391 113Q438 104 444 82L444 82Q450 59 431 13L431 13Q418-35 457-58L457-58Q496-80 489-8L489-8L489 107Q493 128 508 219.50Q523 311 555 473L555 473L542 476Q507 316 484.50 233Q462 150 457 142L457 142Q435 115 391 126ZM845 668L845 668L839 655Q871 625 895 592L895 592Q910 563 924 592L924 592Q932 627 914 636L914 636Q905 645 845 668ZM596 123L596 123L586 113Q604 84 614.50 57Q625 30 631 10L631 10Q639-44 662-5L662-5Q687 29 662 57L662 57Q650 70 633 86Q616 102 596 123ZM904 229L898 444L927 469L876 514L850 476L760 476L760 532L945 532L891 592L854 558L763 558L763 589L781 611L712 636Q712 614 714 593.50Q716 573 716 558L716 558L539 558L574 522Q603 532 643 532L643 532L716 532L716 476L624 476L577 501Q577 465 578.50 428Q580 391 580 353L580 353Q580 311 578.50 269.50Q577 228 577 186L577 186L624 208L624 299L716 299L716 192L760 211L760 299L854 299L854 208L904 229ZM624 396L624 450L716 450L716 396L624 396ZM760 396L760 450L854 450L854 396L760 396ZM624 324L624 368L716 368L716 324L624 324ZM760 324L760 368L854 368L854 324L760 324ZM809 151L809 151L505 151L539 119Q559 123 576.50 124.50Q594 126 611 126L611 126L809 126L809 13Q809-1 794-8L794-8Q789-8 768.50-7.50Q748-7 716-5L716-5L716-20Q789-29 794-86L794-86Q854-56 854-5L854-5L854 126L965 126L911 192L873 151L854 151L854 173L876 192L806 224Q806 206 807.50 189Q809 172 809 151ZM523 684L536 684L536 664Q536 641 534.50 622.50Q533 604 533 592L533 592L586 607Q583 620 583 652L583 652L583 684L683 684L637 733L602 709L583 709L583 762L605 784L533 810Q533 795 534.50 782.50Q536 770 536 756L536 756L536 709L420 709L451 674Q470 676 487 680Q504 684 523 684L523 684ZM775 687L775 687L775 648Q775 639 773.50 627.50Q772 616 772 607L772 607L829 627Q826 640 826 652L826 652L826 687L945 687L898 737L866 712L826 712L826 762L847 784L772 810Q772 795 773.50 783Q775 771 775 762L775 762L775 712L696 712L731 677Q757 687 775 687ZM212 696L212 658L81 658L116 627Q130 629 147.50 631Q165 633 186 633L186 633L212 633L212 548L139 548L94 586Q97 550 97 520L97 520Q97 491 97 463L97 463L97 344Q97 314 97 284L97 284Q97 255 94 227L94 227L139 252L139 268L212 268L212 167L59 167L91 132Q107 135 122.50 138.50Q138 142 158 142L158 142L212 142L212 69Q212 31 211.50-6Q211-43 208-86L208-86L262-58Q257-18 256.50 18Q256 54 256 85L256 85L256 142L426 142L379 205L344 167L256 167L256 268L335 268L335 245L382 268Q382 284 381.50 301.50Q381 319 379 337L379 337L379 520L407 542L353 589L331 548L256 548L256 633L407 633L353 696L315 658L256 658L256 749L281 781L208 813Q211 783 211.50 755Q212 727 212 696L212 696ZM139 520L212 520L212 422L139 422L139 520ZM256 520L335 520L335 422L256 422L256 520ZM256 396L335 396L335 296L256 296L256 396ZM139 396L212 396L212 296L139 296L139 396Z"/></svg>