<svg id="U29A92" viewBox="0 0 1024 1024"><path transform="translate(0, 921.6) scale(1,-1)" d="M772 456L772 456L731 519L702 484L677 484L677 560L702 583L626 618Q626 584 627.50 552Q629 520 629 484L629 484L480 484L515 446Q545 456 588 456L588 456L629 456L629 338L423 338L458 300Q474 302 492.50 304Q511 306 531 306L531 306L648 306Q629 287 601 262.50Q573 238 537 208L537 208Q501 179 464 155Q427 131 394 110L394 110L398 100Q440 114 475.50 133Q511 152 547 173L547 173Q643 240 715 306L715 306L931 306L880 383L829 338L734 338Q770 378 800.50 414Q831 450 858 481L858 481L883 494L823 551Q811 527 798.50 504.50Q786 482 772 456ZM677 341L677 456L772 456Q745 420 721 391.50Q697 363 677 341L677 341ZM642 167L648 167L648-26L410-26L442-64Q460-61 478-58Q496-55 515-55L515-55L928-55L870 24L823-26L696-26L696 167L861 167L804 243L759 192L534 192L569 160Q588 164 606.50 165.50Q625 167 642 167L642 167ZM512 649L524 649L524 627Q524 615 521 598Q518 581 518 557L518 557L575 576Q572 595 572 604L572 604Q572 614 572 614L572 614L572 649L677 649L629 716L591 678L572 678L572 748L594 773L518 808Q518 791 521 776Q524 761 524 745L524 745L524 678L407 678L439 640Q455 642 473.50 645.50Q492 649 512 649L512 649ZM772 652L772 652L772 618Q772 603 770.50 588.50Q769 574 769 557L769 557L826 576Q823 595 823 614L823 614L823 652L931 652L883 726L845 681L823 681L823 748L845 773L769 808Q769 791 770.50 776.50Q772 762 772 748L772 748L772 681L677 681L712 643Q728 647 742.50 648Q757 649 772 652ZM178 500L178 732L331 732L331 500L277 500L277 614L350 614L350 640L274 640L226 675Q230 639 231 595.50Q232 552 232 500L232 500L178 500ZM401 475L372 405L388 402Q412 432 432 449.50Q452 467 467 475L467 475L429 522L407 500L375 500L375 726L401 745L359 792L331 757L178 757L127 789Q132 756 133 716Q134 676 134 633L134 633L134 500L96 500L96 535L80 535Q62 465 48 446L48 446Q41 437 35.50 425.50Q30 414 35 402L35 402Q42 383 55 383L55 383Q64 383 80 399Q96 415 96 475L96 475L401 475ZM226-13L226-13L226-29Q264-41 285-57.50Q306-74 318-96L318-96Q369-81 369-5L369-5L369 345L394 364L350 418L321 386L172 386L121 408Q123 389 123.50 349Q124 309 124 249L124 249Q124 189 123.50 152Q123 115 121 94L121 94Q118 77 115 57.50Q112 38 105 14L105 14Q94-29 45-96L45-96L55-102Q116-60 140-5L140-5Q171 58 175 157L175 157L175 360L321 360L321 14Q321-13 299-23L299-23Q291-23 271.50-19Q252-15 226-13ZM201 319L201 319L201 306Q215 285 225.50 263.50Q236 242 239 224L239 224Q248 183 264 205L264 205Q283 227 283 246L283 246Q283 265 270 278L270 278Q264 282 247 292Q230 302 201 319ZM182 81L182 81L226 56Q231 62 239 73Q247 84 258 100L258 100Q267 114 281 136Q295 158 315 189L315 189L302 192Q278 159 246.50 130.50Q215 102 182 81Z"/></svg>