<svg id="U298EE" viewBox="0 0 1024 1024"><path transform="translate(0, 921.6) scale(1,-1)" d="M107 268L107 268L160 287L160 306L392 312Q387 199 378.50 132.50Q370 66 361 40L361 40Q346-4 324-10L324-10Q306-15 217 0L217 0L214-16Q311-39 311-85L311-85Q358-68 374-51L374-51Q386-30 408 21L408 21Q415 41 423.50 111Q432 181 440 299L440 299L468 319L414 369L386 338L304 335L304 447L433 447L386 513L348 472L304 472L304 585L436 585L389 648L351 611L304 611L304 716L465 716L411 782L370 742L157 742L107 773Q109 707 109.50 645Q110 583 110 523L110 523Q110 459 109.50 395Q109 331 107 268ZM160 611L160 716L258 716L258 611L160 611ZM160 472L160 585L258 585L258 472L160 472ZM160 331L160 447L258 447L258 335L160 331ZM107 212L92 212Q92 132 70 96L70 96Q42 65 63 46L63 46Q75 34 92 48L92 48Q103 57 116 99L116 99Q118 115 116.50 143.50Q115 172 107 212L107 212ZM155 221L138 218Q164 156 160 109L160 109Q157 64 177 68L177 68Q182 72 189 78Q196 84 198 96L198 96Q202 126 195 152L195 152Q178 185 155 221L155 221ZM207 240L201 234Q219 196 230.50 171Q242 146 245 128L245 128Q254 99 264 99L264 99Q287 103 295 118L295 118Q304 127 295 159L295 159Q286 181 207 240L207 240ZM292 262L280 256Q298 219 308.50 193.50Q319 168 321 152L321 152Q324 118 343 124L343 124Q359 137 367 155L367 155Q369 162 364 173.50Q359 185 355 199L355 199Q345 211 330 227Q315 243 292 262L292 262ZM909 140L909 140L894 140Q894 55 885 21L885 21Q880-13 856-13L856-13L787-13Q750-18 750 21L750 21L750 294L819 294L819 262L872 281Q866 295 866 321Q866 347 866 384L866 384L866 469L897 491L850 541L819 507L690 507Q709 535 727 556.50Q745 578 762 597L762 597Q797 632 838 645L838 645L784 701L756 670L599 670Q606 688 615.50 705Q625 722 637 742L637 742L662 760L593 804Q578 757 561.50 711.50Q545 666 524 623L524 623Q503 576 480 536Q457 496 430 463L430 463L436 450Q450 462 462 475Q474 488 487 501L487 501L487 338Q487 320 485.50 296Q484 272 484 243L484 243L533 268L533 294L628 294Q620 225 600 171.50Q580 118 553 74L553 74Q521 31 477.50-5.50Q434-42 377-73L377-73L380-88Q511-38 587 48L587 48Q658 140 678 294L678 294L699 294L699 6Q699-56 768-59L768-59L885-59Q927-56 950-13L950-13Q919 7 916 27L916 27Q913 41 911 69Q909 97 909 140ZM672 507L672 507L531 507L509 523Q529 555 549.50 585.50Q570 616 587 645L587 645L746 645Q718 596 700.50 562.50Q683 529 672 507ZM631 319L631 319L533 319L533 482L640 482Q640 442 637.50 401.50Q635 361 631 319ZM687 482L687 482L819 482L819 319L680 319Q683 367 685 406.50Q687 446 687 482ZM784 253L775 240Q808 166 819 109L819 109Q823 49 850 80L850 80Q874 111 863 143L863 143Q849 184 784 253L784 253Z"/></svg>