<svg id="U29B37" viewBox="0 0 1024 1024"><path transform="translate(0, 921.6) scale(1,-1)" d="M191 572L191 572L68 572L106 534Q135 540 179 546L179 546L258 546Q248 531 232 517Q216 503 195 486L195 486Q152 451 115 451L115 451L157 394Q180 406 290 417L290 417Q347 424 391.50 431.50Q436 439 470 448L470 448Q479 439 485 430.50Q491 422 499 413L499 413Q506 398 527 423L527 423Q545 448 524 471L524 471Q501 493 401 521L401 521L391 512Q412 497 429 486.50Q446 476 461 464L461 464L191 451Q215 460 234 471.50Q253 483 271 493L271 493Q305 518 334 518L334 518L296 546L591 546L530 607L492 572L245 572L245 607L524 607L470 667L439 635L245 635L245 676L527 676L473 736L442 702L245 702L245 743L559 743L502 806L461 768L248 768L188 797Q190 758 190.50 701.50Q191 645 191 572ZM892 762L835 816Q820 799 792 778.50Q764 758 724 740L724 740Q685 716 639.50 695Q594 674 546 657L546 657L549 641Q606 656 660 673Q714 690 762 714L762 714Q808 733 840.50 745Q873 757 892 762L892 762ZM923 635L876 689Q848 656 765 622L765 622Q680 580 587 550L587 550L591 534Q648 546 700 561Q752 576 803 597L803 597Q854 613 884 624Q914 635 923 635L923 635ZM955 509L901 569Q894 550 793 505L793 505Q700 461 549 423L549 423L556 404Q634 418 701 434.50Q768 451 819 471L819 471Q870 487 904 498Q938 509 955 509L955 509ZM606 353L540 394Q484 326 401 268L401 268Q489 224 527 192L527 192Q564 147 584 179L584 179Q609 204 578 227L578 227Q563 236 531.50 247.50Q500 259 448 271L448 271Q476 285 496.50 298Q517 311 537 318L537 318Q569 346 606 353L606 353ZM356 356L290 394Q238 327 150 268L150 268Q245 221 283 188L283 188Q320 146 340 176L340 176Q356 207 328 227L328 227Q311 237 280 248Q249 259 204 271L204 271Q228 285 249.50 297Q271 309 286 318L286 318Q303 327 320 337Q337 347 356 356L356 356ZM872 356L812 407Q783 368 748.50 334.50Q714 301 676 271L676 271Q711 249 741 229Q771 209 797 192L797 192Q834 152 857 179L857 179Q876 204 844 227L844 227Q827 236 793.50 247.50Q760 259 708 271L708 271Q734 285 757 299Q780 313 800 325L800 325Q839 346 872 356L872 356ZM176 74L176 74L176-3L150-25L204-73L233-41L800-41L800-82L857-57Q854-37 854-17L854-17Q854 3 854 19L854 19L854 96L879 119L797 157Q797 135 798.50 114.50Q800 94 800 78L800 78L800-16L543-16L543 116L572 138L486 176Q488 145 488.50 119.50Q489 94 489 78L489 78L489-16L229-16L229 100L258 122L172 157Q175 135 175.50 112.50Q176 90 176 74Z"/></svg>