<svg id="U29777" viewBox="0 0 1024 1024"><path transform="translate(0, 921.6) scale(1,-1)" d="M249 827L313 783Q289 766 275 734L275 734Q317 710 349 691.50Q381 673 403 661L403 661Q444 629 431 587L431 587Q425 532 390 597L390 597Q371 623 340.50 653Q310 683 265 718L265 718Q185 560 41 440L41 440L34 446Q76 491 112.50 546Q149 601 185 664L185 664Q253 793 249 827L249 827ZM425 446L403 424L403 341L403 261Q403 227 406 206L406 206L351 174L351 203L169 203L169 24Q205 40 242.50 57Q280 74 316 94L316 94Q299 122 271 184L271 184L275 190Q358 120 377 84L377 84Q406 46 377 14L377 14Q355-21 345 14L345 14Q338 27 333 43Q328 59 323 78L323 78Q160-24 146-62L146-62L102-4Q118 15 118 46L118 46L118 334Q118 379 117.50 422Q117 465 114 504L114 504L169 465L351 465L377 491L425 446ZM351 440L169 440L169 347L351 347L351 440ZM351 321L169 321L169 228L351 228L351 321ZM633 212L643 222Q676 188 699 165Q722 142 729 126L729 126Q746 94 729 68L729 68Q717 43 704 43L704 43Q701 45 695.50 50.50Q690 56 688 71L688 71Q685 83 681 99Q677 115 668 132L668 132Q663 149 654.50 169Q646 189 633 212L633 212ZM732 241L745 248Q805 198 825 168L825 168Q847 137 838 104L838 104Q823 76 809 71L809 71Q793 71 793 97L793 97Q790 109 787.50 124.50Q785 140 781 155L781 155Q773 171 762 192.50Q751 214 732 241L732 241ZM476 369L476 622Q476 649 474.50 674Q473 699 473 728L473 728L527 702L572 702Q584 747 592.50 779.50Q601 812 604 834L604 834L668 799Q652 786 642 775.50Q632 765 627 757L627 757Q610 737 595 702L595 702L790 702L819 738L870 690L844 667L844 584Q844 555 844.50 531.50Q845 508 848 491L848 491L790 469L790 501L527 501L527 421L848 421L896 462L950 392L527 392L527 305L864 305L896 347L947 296L921 273Q914 182 910.50 124.50Q907 67 902 46L902 46Q893-1 867-33L867-33Q836-64 793-81L793-81Q788-27 675-4L675-4L675 14Q715 8 745.50 5Q776 2 793-1L793-1Q826-1 841 30L841 30Q846 44 852 66.50Q858 89 861 123L861 123Q863 153 865 192Q867 231 867 277L867 277L527 280L527 261L473 241Q473 277 474.50 308.50Q476 340 476 369L476 369ZM527 526L790 526L790 677L527 677L527 526ZM531 190L543 196Q602 131 611 97L611 97Q624 62 611 43L611 43Q600 18 585 14L585 14Q569 14 569 46L569 46Q566 62 564 79Q562 96 559 113L559 113Q552 130 546 149Q540 168 531 190L531 190ZM467 187L483 187Q487 96 483 59L483 59Q471 15 454 4L454 4Q440-11 412-4L412-4Q387 8 409 33L409 33Q418 45 425.50 58.50Q433 72 441 87L441 87Q448 102 453.50 127.50Q459 153 467 187L467 187ZM207 619L214 626Q269 589 287 562L287 562Q311 530 294 507L294 507Q284 482 271 482L271 482Q257 482 249 520L249 520Q244 556 207 619L207 619Z"/></svg>