<svg id="U29C6F" viewBox="0 0 1024 1024"><path transform="translate(0, 921.6) scale(1,-1)" d="M190 347L190 347L955 347L890 413L846 376L71 376L109 341Q133 347 190 347ZM253 328L253 186L306 199L306 209L732 209L732 192L782 209L779 244L779 281L808 301L754 339L729 316L309 316L253 328ZM306 288L732 288L732 237L306 237L306 288ZM206 167L147 192L147-83L196-64L196 143L345 143Q392 106 411 64L411 64L234 64L266 30Q284 32 301 33.50Q318 35 335 35L335 35L482 35L482-70L537-57L537 35L802 35L738 101L694 64L575 64Q607 82 633.50 95.50Q660 109 681 114L681 114L622 143L833 143L833 7Q833-16 694-4L694-4L694-23Q808-32 808-80L808-80Q887-54 887 7L887 7L887 136L914 155L864 203L830 167L206 167ZM379 143L616 143Q610 133 592.50 113.50Q575 94 543 64L543 64L426 64Q490 119 379 143L379 143ZM152 580L165 650L229 650L276 650L266 671L266 753L291 773L247 807L226 782L96 782L133 748Q152 750 172 750L172 750Q193 750 212 753L212 753L226 753L226 674L165 674L121 697Q121 650 109 586L109 586L89 571L127 539L150 555L209 555Q206 524 200.50 504Q195 484 193 479L193 479Q187 464 184 464L184 464Q176 461 159 461L159 461Q151 461 136.50 463.50Q122 466 102 471L102 471L102 454Q161 437 174 398L174 398Q207 407 218 433L218 433Q227 438 231 447Q235 456 238 464L238 464Q243 472 253 553L253 553L282 571L238 609L212 580L152 580ZM795 574L811 641L873 641L934 641L914 665L914 694L914 748L937 767L890 801L868 773L748 773L779 738L820 748L870 748L870 669L811 669L773 691Q770 667 764 642.50Q758 618 754 586L754 586L732 571L773 533L790 549L870 549Q867 481 855 474L855 474Q846 461 833 461L833 461Q827 461 813 460.50Q799 460 773 464L773 464L773 451Q802 443 817.50 430Q833 417 839 398L839 398Q853 403 865 413.50Q877 424 890 436L890 436Q896 447 902.50 472Q909 497 914 542L914 542L937 558L892 596L870 574L795 574ZM294 753L294 753L285 748Q299 726 304 712.50Q309 699 313 691L313 691Q319 664 329 674L329 674Q338 678 345 697L345 697Q348 710 332 729L332 729Q327 734 317.50 740Q308 746 294 753ZM678 652L540 650L599 691L622 697L597 719L738 719L697 769L673 748L616 748Q635 757 635 782L635 782Q629 794 564 820L564 820L559 810Q596 768 599 748L599 748L482 748L520 712L546 719L568 719Q559 707 549.50 695.50Q540 684 534 674L534 674Q508 659 496 659L496 659L518 609Q520 611 527.50 612.50Q535 614 546 618L546 618Q553 618 587.50 624Q622 630 685 637L685 637Q689 632 692 625Q695 618 700 612L700 612Q706 590 729 615L729 615Q741 638 723 656L723 656Q714 667 692.50 680Q671 693 644 707L644 707L640 694Q645 689 656 677.50Q667 666 678 652L678 652ZM559 577L500 599Q503 528 490 483L490 483Q474 442 417 400L417 400L421 388Q468 404 505 438L505 438Q519 455 528.50 485.50Q538 516 543 561L543 561L559 577ZM619 486L619 486L619 561L635 577L575 599Q575 570 576.50 546Q578 522 578 498L578 498Q578 478 576.50 452.50Q575 427 575 400L575 400L622 413Q619 442 619 459L619 459Q619 477 619 486ZM656 524L656 524L656 457Q651 415 694 407L694 407L729 407L770 407Q782 407 773 433L773 433Q758 452 754 445L754 445Q749 441 729 441L729 441L714 441L711 441Q691 441 697 479L697 479L697 555L716 574L653 599Q653 566 654.50 548Q656 530 656 524ZM355 574L304 599Q298 532 234 441L234 441L247 436Q273 456 292.50 486Q312 516 332 558L332 558L355 574ZM411 599L408 594Q448 540 452 515L452 515Q465 482 477 498L477 498Q489 519 482 536L482 536Q478 557 464 568L464 568Q458 574 444.50 581.50Q431 589 411 599L411 599ZM433 647L404 647L404 763L423 782L361 807Q363 774 363.50 733Q364 692 364 647L364 647L276 647L304 615Q307 615 315.50 616.50Q324 618 332 618L332 618L364 618L364 568Q364 530 363.50 487.50Q363 445 361 400L361 400L408 423Q405 464 404.50 504Q404 544 404 590L404 590L404 618L500 618L462 669L433 647ZM404 665L417 665Q436 688 452 709Q468 730 482 744L482 744L439 769Q431 749 423.50 723Q416 697 404 665L404 665Z"/></svg>