<svg id="U29614" viewBox="0 0 1024 1024"><path transform="translate(0, 921.6) scale(1,-1)" d="M278 208L278 63L426 92L426 76Q351 53 292.50 35.50Q234 18 186 4L186 4Q90-28 70-55L70-55L41 23Q61 23 232 59L232 59L232 208L186 208Q165 208 147 205.50Q129 203 110 201L110 201L74 237L232 237Q232 285 231 316Q230 347 225 365L225 365L294 336L278 303L278 237L337 237L376 280L426 208L278 208ZM337-117L327-101Q351-66 371-28.50Q391 9 409 46L409 46Q429 88 440 135.50Q451 183 459 237L459 237Q463 291 466 363.50Q469 436 469 530L469 530Q469 624 468.50 694.50Q468 765 465 816L465 816L518 783L814 783L847 823L903 764L867 734Q861 492 867 346L867 346Q869 268 875 212Q881 156 886 122L886 122Q896 49 932 4L932 4L968 122L982 119Q971 74 968 42Q965 10 965-10L965-10Q965-32 965.50-49Q966-66 972-84L972-84Q976-113 946-91L946-91Q905-62 873-3L873-3Q858 26 845 77.50Q832 129 827 204L827 204Q821 279 818 415Q815 551 820 754L820 754L515 754Q515 569 510.50 446.50Q506 324 501 260L501 260Q491 196 479.50 142Q468 88 449 46L449 46Q431 7 402-34Q373-75 337-117L337-117ZM728 175L738 184Q774 139 797.50 107.50Q821 76 827 59L827 59Q837 23 814-6L814-6Q806-21 798-19.50Q790-18 787-3Q784 12 781 26.50Q778 41 771 59L771 59Q713 50 649 20L649 20Q617 8 590.50-3.50Q564-15 547-29L547-29L518 46Q542 46 575.50 51.50Q609 57 646 63L646 63L646 244L597 244L597 214L547 198Q547 246 549 288Q551 330 551 365L551 365Q551 397 549 434Q547 471 547 510L547 510L597 487L646 487L646 609L580 609L551 602L521 635L718 635L765 675L814 609L689 609L689 487L738 487L761 513L804 467L774 441Q774 362 774.50 308.50Q775 255 781 234L781 234L732 217L732 244L689 244L689 66L765 82Q754 112 746 133Q738 154 728 175L728 175ZM597 270L646 270L646 461L597 461L597 270ZM689 270L732 270L732 461L689 461L689 270ZM70 329L74 385Q74 494 73.50 562Q73 630 70 655L70 655L116 632L182 632L182 727L162 727Q142 724 122.50 721.50Q103 719 84 714L84 714L51 754L360 754L403 790L455 727L314 727L314 632L373 632L399 662L439 619L416 602L416 471L416 420Q416 392 419 362L419 362L367 342L367 365L120 365L120 346L70 329ZM271 727L225 727L225 632L271 632L271 727ZM182 606L120 606L120 458Q142 468 159 510L159 510Q169 533 174.50 556.50Q180 580 182 606L182 606ZM314 606L314 513Q314 504 324 504L324 504Q333 504 347 510L347 510Q362 510 367 490L367 490Q378 467 357 467L357 467L301 467Q260 467 271 530L271 530L271 606L225 606Q223 580 216.50 556.50Q210 533 199 513L199 513Q180 476 120 431L120 431L120 392L367 392L367 606L314 606Z"/></svg>