<svg id="U29F8C" viewBox="0 0 1000 1000"><path transform="translate(0, 900) scale(1,-1)" d="M43 37L55-33C149-18 275 2 396 23L393 86C264 67 132 47 43 37ZM525 249C560 219 600 175 618 147L661 186C642 214 602 254 565 283ZM638 827C652 801 666 770 677 743L455 743L455 362C455 236 450 75 386-38C401-44 429-63 441-74C509 44 519 228 519 362L519 681L683 681L683 607L559 607L559 553L688 553L688 485L531 485L531 432L688 432L688 360L556 360L556 306L686 306L686 164C612 117 539 70 488 41L520-14C570 19 628 60 686 101L686-9C686-20 683-23 671-23C660-23 625-23 583-22C591-38 602-62 605-78C660-78 695-77 719-68C742-58 749-42 749-10L749 131C795 66 857 10 924-22C934-5 953 18 969 30C906 53 848 96 802 148C843 176 891 212 930 248L883 283C856 253 812 215 773 185C764 197 756 210 749 223L749 306L907 306L907 432L954 432L954 485L907 485L907 607L749 607L749 681L946 681L946 743L753 743C741 772 723 810 706 840ZM744 432L847 432L847 360L744 360ZM744 485L744 553L847 553L847 485ZM296 694C281 655 262 614 244 583L139 583C162 619 183 657 200 694ZM189 841C162 752 111 635 35 547C51 539 73 521 85 508L87 510L87 148L399 148L399 583L305 583C332 627 360 680 381 728L340 757L327 753L225 753C236 780 246 806 254 832ZM143 338L218 338L218 208L143 208ZM270 338L342 338L342 208L270 208ZM143 523L218 523L218 395L143 395ZM270 523L342 523L342 395L270 395Z"/></svg>