<svg id="U299E2" viewBox="0 0 1024 1024"><path transform="translate(0, 921.6) scale(1,-1)" d="M104 276L104 276L155 292L155 308L324 316Q319 195 314 125.50Q309 56 304 35L304 35Q291-10 273-14L273-14Q261-17 195-8L195-8L189-21Q264-50 264-92L264-92Q300-81 314-55L314-55Q323-40 330.50-24Q338-8 345 10L345 10Q349 30 355.50 103Q362 176 367 301L367 301L386 320L345 370L317 345L270 339L270 454L371 454L330 521L296 482L270 482L270 596L374 596L336 658L298 620L270 620L270 733L383 733L342 796L298 758L155 758L104 789Q109 721 110 657.50Q111 594 111 529L111 529Q111 465 110 401.50Q109 338 104 276ZM155 620L155 733L226 733L226 620L155 620ZM155 482L155 596L226 596L226 482L155 482ZM155 336L155 454L226 454L226 339L155 336ZM111 214L95 214Q95 127 80 95L80 95Q62 60 77 45L77 45Q87 32 98 48L98 48Q106 61 117 98L117 98Q120 123 111 214L111 214ZM135 223L130 220Q138 187 144 160Q150 133 148 107L148 107Q148 62 161 69L161 69Q175 77 179 101L179 101Q186 112 183.50 124.50Q181 137 176 154L176 154Q172 168 161 184.50Q150 201 135 223L135 223ZM183 248L179 235Q217 168 217 126L217 126Q222 95 233 95L233 95Q249 102 252 113L252 113Q255 128 252 157L252 157Q247 177 183 248L183 248ZM249 267L246 258Q255 223 261 196Q267 169 270 151L270 151Q273 118 293 123L293 123Q308 135 308 154L308 154Q312 169 298 198L298 198Q294 212 280 228.50Q266 245 249 267L249 267ZM395 276L395 276L446 292L446 308L614 313Q607 195 603.50 127Q600 59 595 35L595 35Q582-10 564-14L564-14Q553-17 483-8L483-8L480-21Q555-50 555-92L555-92Q591-81 605-55L605-55Q632-21 636 10L636 10Q640 30 646.50 103Q653 176 658 301L658 301L677 320L636 370L614 345L561 339L561 454L662 454L621 521L583 482L561 482L561 596L662 596L621 658L583 620L561 620L561 733L673 733L627 796L592 758L442 758L395 789Q400 721 401 657.50Q402 594 402 529L402 529Q402 465 401 401.50Q400 338 395 276ZM446 620L446 733L517 733L517 620L446 620ZM446 482L446 596L517 596L517 482L446 482ZM446 336L446 454L517 454L517 339L446 336ZM402 214L389 214Q389 131 371 95L371 95Q355 56 364 45L364 45Q380 33 389 48L389 48Q394 58 398.50 70Q403 82 405 98L405 98Q410 136 402 214L402 214ZM426 223L421 220Q429 187 435 160Q441 133 439 107L439 107Q439 62 452 69L452 69Q466 77 477 101L477 101Q481 121 467 154L467 154Q463 168 452 184.50Q441 201 426 223L426 223ZM477 248L470 235Q505 166 505 126L505 126Q510 95 524 95L524 95Q540 102 543 113L543 113Q547 128 543 157L543 157Q538 176 477 248L477 248ZM543 267L537 258Q546 223 552 196Q558 169 561 151L561 151Q566 117 583 123L583 123Q598 136 598 154L598 154Q602 164 592 198L592 198Q585 212 571.50 228.50Q558 245 543 267L543 267ZM689 276L689 276L733 292L733 308L893 316Q893 88 878 35L878 35Q868-7 849-14L849-14Q831-17 768-8L768-8L768-21Q842-50 842-92L842-92Q863-84 890-55L890-55Q902-40 909.50-24Q917-8 924 10L924 10Q928 30 931.50 103Q935 176 943 301L943 301L962 320L921 376L890 345L846 339L846 454L943 454L896 521L858 482L846 482L846 596L946 596L902 654L868 620L846 620L846 733L959 733L915 796L874 758L733 758L689 789Q689 721 691 657.50Q693 594 693 529L693 529Q693 465 691 401.50Q689 338 689 276ZM736 620L736 733L799 733L799 620L736 620ZM736 482L736 596L799 596L799 482L736 482ZM736 336L736 454L799 454L799 339L736 336ZM689 214L673 214Q673 170 667.50 141.50Q662 113 655 95L655 95Q635 63 646 45L646 45Q662 35 673 48L673 48Q685 60 693 98L693 98Q698 140 689 214L689 214ZM712 223L702 220Q713 187 719 160Q725 133 720 107L720 107Q720 60 736 69L736 69Q755 80 758 101L758 101Q761 120 752 154L752 154Q745 167 735 184Q725 201 712 223L712 223ZM761 248L758 235Q772 197 781 171.50Q790 146 790 126L790 126Q795 95 805 95L805 95Q817 98 827 113L827 113Q833 128 827 157L827 157Q820 169 805 191Q790 213 761 248L761 248ZM824 267L815 258Q831 219 839 192Q847 165 849 151L849 151Q852 119 868 123L868 123Q872 129 877.50 136Q883 143 883 154L883 154Q883 161 881.50 172.50Q880 184 874 198L874 198Q866 219 824 267L824 267Z"/></svg>