<svg id="U29515" viewBox="0 0 1024 1024"><path transform="translate(0, 921.6) scale(1,-1)" d="M838 574L587 574L587 459L838 459L838 574ZM838 434L587 434L587 319L838 319L838 434ZM838 294L587 294L587 176L838 176L838 294ZM587 599L625 599Q639 639 650 671Q661 703 666 727L666 727L571 727Q551 721 534 720Q517 719 501 717L501 717L465 752L848 752L896 797L953 727L720 727Q708 707 690 675.50Q672 644 644 599L644 599L835 599L864 638L918 580L886 555L886 313Q886 255 887 209.50Q888 164 896 128L896 128L838 106L838 147L587 147L587 112L532 90Q532 130 535.50 200Q539 270 539 367L539 367Q539 467 535.50 530.50Q532 594 532 628L532 628L587 599ZM618 125L618 125L682 61L647 51Q578-1 529-40.50Q480-80 450-104L450-104L443-78Q587 46 618 125ZM739 118L749 128Q791 96 822 69.50Q853 43 876 23L876 23Q913-18 896-65L896-65Q872-112 848-50L848-50Q831 5 739 118L739 118ZM395 459L338 459L338 354Q333 316 373 316L373 316L395 316L395 459ZM297 596L249 596L249 485L297 485L297 596ZM201 459L140 459L140 224Q173 269 187 328Q201 387 201 459L201 459ZM297 459L249 459Q249 285 140 204L140 204L140 163L395 163L395 268L344 268Q289 268 297 348L297 348L297 459ZM395 137L140 137L140 23L395 23L395 137ZM131 778L140 787Q206 738 220 717L220 717Q243 685 214 650L214 650Q181 600 176 666L176 666Q170 712 131 778L131 778ZM424 752L392 733Q385 721 364 692.50Q343 664 313 622L313 622L408 622L450 669L504 596L338 596L338 485L395 485L421 529L472 475L446 453L446 137Q446 82 446.50 44Q447 6 450-14L450-14L395-37L395-6L140-6L140-65L90-88Q92-43 92.50 36Q93 115 93 230L93 230Q93 351 92.50 422Q92 493 90 520L90 520L137 485L201 485L201 596L156 596Q137 596 119.50 594Q102 592 83 590L83 590L51 622L293 622Q319 676 335.50 719.50Q352 763 357 797L357 797L424 752Z"/></svg>