<svg id="U29298" viewBox="0 0 1024 1024"><path transform="translate(0, 921.6) scale(1,-1)" d="M172 688L172 688L76 688L111 644Q139 660 172 660L172 660Q172 626 171.50 589.50Q171 553 169 518L169 518L220 537L220 546L266 546L266 445L172 445L117 474Q118 445 118.50 412.50Q119 380 119 342L119 342Q119 300 118.50 270.50Q118 241 117 226L117 226L169 241L169 270L266 270L266 162L60 162L98 128Q115 130 134 132Q153 134 172 134L172 134L266 134Q266 71 265.50 17Q265-37 263-88L263-88L317-57Q314-35 314 11L314 11Q314 58 314 134L314 134L518 134L452 197L411 162L314 162L314 270L411 270L411 241L462 263Q459 295 459 329L459 329Q459 364 459 404L459 404L490 427L440 477L411 445L314 445L314 546L354 546L354 521L408 540Q405 568 405 598L405 598Q405 629 405 660L405 660L518 660L459 729L421 688L405 688L405 758L424 779L351 811Q353 782 353.50 751.50Q354 721 354 688L354 688L220 688L220 758L245 776L169 814Q171 783 171.50 750.50Q172 718 172 688ZM220 574L220 660L354 660L354 574L220 574ZM169 294L169 420L266 420L266 294L169 294ZM314 294L314 420L411 420L411 294L314 294ZM585 275L585 499L849 499L849 275L585 275ZM585 33L585 250L849 250L849 33L585 33ZM531-78L531-78L585-54L585 8L849 8L849-57L906-34Q900 4 899.50 47Q899 90 899 144L899 144L899 483L931 515L871 565L840 524L657 524Q687 596 707.50 641.50Q728 687 739 707L739 707L963 707L899 770L858 732L500 732L531 694Q576 707 606 707L606 707L676 707Q673 681 662 635.50Q651 590 635 524L635 524L585 524L531 556Q531 511 534 433.50Q537 356 537 250L537 250Q537 144 534 62Q531-20 531-78Z"/></svg>