<svg id="U29DC2" viewBox="0 0 1024 1024"><path transform="translate(0, 921.6) scale(1,-1)" d="M418 685L418 685L367 732L333 701L220 701Q257 767 282 776L282 776L207 811Q207 772 166 688L166 688Q149 644 123 595Q97 546 63 489L63 489L70 477Q92 493 103 507Q114 521 119 530L119 530Q119 399 118.50 313.50Q118 228 117 188L117 188L166 213L166 241L374 241L374 213L430 234Q428 255 428 327L428 327Q428 400 428 527L428 527L456 550L392 597L371 565L292 565Q383 685 418 685ZM213 672L213 672L333 672L266 565L179 565L150 578Q169 604 183.50 627Q198 650 213 672ZM166 411L166 537L251 537L251 411L166 411ZM298 411L298 537L377 537L377 411L298 411ZM166 266L166 383L251 383L251 266L166 266ZM298 266L298 383L377 383L377 266L298 266ZM147 156L147 156L135 156Q116 71 86 26L86 26Q51-16 83-16L83-16Q115-16 125-6L125-6Q138 4 143 39L143 39Q147 53 148 82Q149 111 147 156ZM204 168L194 165Q216 81 216 33L216 33Q221-12 241 2L241 2Q267 19 263 62L263 62Q263 100 204 168L204 168ZM279 181L273 175Q296 128 308.50 97Q321 66 323 49L323 49Q333 8 351 26L351 26Q375 46 371 80L371 80Q371 112 279 181L279 181ZM354 206L343 200Q404 114 415 77L415 77Q431 39 449 67L449 67Q470 105 452 137L452 137Q436 162 354 206L354 206ZM688 496L688 496L685 480Q770 440 770 389L770 389Q838 405 858 474L858 474Q866 509 875.50 564Q885 619 896 697L896 697L925 720L868 767L846 729L477 729L513 694Q542 704 585 704L585 704L629 704Q618 594 575 524L575 524Q531 441 456 396L456 396L465 383Q524 402 600 480L600 480Q661 550 685 704L685 704L846 704Q839 632 830.50 585Q822 538 818 515L818 515Q803 471 783 471L783 471Q771 471 748.50 476Q726 481 688 496ZM644 354L430 354L456 323L477 329L506 329Q506 198 471 96L471 96Q444-1 383-75L383-75L395-85Q483-6 515 99L515 99Q536 156 545 212Q554 268 556 329L556 329L635 329Q628 205 621 133Q614 61 610 42L610 42Q600 2 575 2L575 2Q567 4 554 6.50Q541 9 525 14L525 14L518 2Q575-21 575-69L575-69Q638-48 651 0L651 0Q657 22 665.50 102.50Q674 183 685 316L685 316L717 335L663 383L644 354ZM884 360L704 360L723 329L745 335L770 335Q768 262 760 205Q752 148 739 105L739 105Q722 62 699 19.50Q676-23 647-65L647-65L654-75Q736-2 780 105L780 105Q796 159 807 215.50Q818 272 821 335L821 335L893 335Q884 204 878 131Q872 58 865 39L865 39Q855 2 837 2L837 2Q825 4 810 6.50Q795 9 777 14L777 14L770 2Q837-23 837-75L837-75Q889-57 906-6L906-6Q917 35 937 323L937 323L960 348L915 396L884 360Z"/></svg>