<svg id="U29F58" viewBox="0 0 1024 1024"><path transform="translate(0, 921.6) scale(1,-1)" d="M446 548L408 517L307 517Q309 537 311.50 552.50Q314 568 314 576L314 576L336 589L261 620Q261 587 260.50 561Q260 535 257 517L257 517L98 517L135 479Q150 480 169 482.50Q188 485 210 488L210 488L251 488Q208 379 67 306L67 306L70 290Q234 346 282 447L282 447Q408 371 436 331L436 331Q472 289 477 324L477 324Q487 351 459 388L459 388Q437 413 292 466L292 466Q296 488 302 488L302 488L497 488L446 548ZM310 116L310 198L474 198L418 268L380 227L320 227Q378 270 408 306L408 306L433 312L377 362Q363 326 343 292.50Q323 259 298 227L298 227L241 227Q272 258 245 293L245 293Q230 307 213 321Q196 335 176 347L176 347L163 337Q212 287 216 227L216 227L108 227L143 192Q160 194 180 196Q200 198 220 198L220 198L261 198L261 116L76 116L111 82Q131 84 148 87.50Q165 91 184 91L184 91L261 91L261 3Q261-20 260.50-41.50Q260-63 257-83L257-83L314-77Q311-58 310.50-36Q310-14 310 6L310 6L310 91L490 91L433 151L395 116L310 116ZM613 526L647 570L680 589L606 627Q596 598 588 570.50Q580 543 565 522L565 522Q537 467 487 409L487 409L493 400Q528 424 553.50 449.50Q579 475 600 501L600 501L875 501Q872 344 868.50 243Q865 142 865 91L865 91Q860-11 821-11L821-11Q802-11 767.50-7.50Q733-4 685-1L685-1L685-17Q782-34 793-83L793-83Q849-72 875-49L875-49Q888-34 896.50-13Q905 8 912 34L912 34Q917 63 919.50 175Q922 287 925 491L925 491L956 517L899 561L871 526L613 526ZM477 283L477 283L487 271Q506 285 520 297Q534 309 544 318L544 318L544 221Q544 191 542.50 165.50Q541 140 541 116L541 116L588 129L588 139L777 139L777 119L824 136Q821 161 821 183L821 183Q821 206 821 229L821 229L821 309L843 324L799 365L773 334L688 334Q751 401 783 409L783 409L729 450L708 425L623 425Q634 443 667 460L667 460L606 485Q557 373 477 283ZM613 400L708 400Q690 376 679 359.50Q668 343 663 334L663 334L585 334L572 350Q581 361 592 373.50Q603 386 613 400L613 400ZM588 309L663 309L663 255L588 255L588 309ZM701 255L701 309L777 309L777 255L701 255ZM588 229L663 229L663 167L588 167L588 229ZM701 229L777 229L777 167L701 167L701 229ZM562 104L550 104Q517 37 477 16L477 16Q445-10 487-14L487-14Q524-14 544 22L544 22Q562 62 562 104L562 104ZM610 116L594 110Q613 68 613 25L613 25Q620-6 651 16L651 16Q683 41 610 116L610 116ZM717 38L717 38Q726-7 755 25L755 25Q771 64 698 119L698 119L685 116Q708 84 717 38ZM805 31L805 31Q808 0 834 38L834 38Q847 83 773 119L773 119L764 116Q780 88 790 67Q800 46 805 31ZM680 749L680 749L711 762L641 803Q617 695 487 558L487 558L493 548Q565 592 638 674L638 674L691 674Q718 650 737.50 628Q757 606 764 583L764 583Q787 530 808 566L808 566Q833 597 808 623L808 623Q788 643 717 674L717 674L950 674L878 737L821 699L647 699Q659 711 665.50 724Q672 737 680 749ZM310 759L310 759L339 771L269 810Q218 667 98 561L98 561L104 551Q186 588 257 677L257 677L317 677Q358 621 374 586L374 586Q398 544 415 579L415 579Q437 612 424 627L424 627Q414 636 394 648Q374 660 336 677L336 677L541 677L474 740L430 702L269 702Q282 725 310 759Z"/></svg>