<svg id="U2958E" viewBox="0 0 1024 1024"><path transform="translate(0, 921.6) scale(1,-1)" d="M870 572L621 572L621 459L870 459L870 572ZM870 430L621 430L621 310L870 310L870 430ZM870 285L621 285L621 165L870 165L870 285ZM629 600L660 600Q668 633 672.50 663.50Q677 694 680 723L680 723L641 723Q621 723 602.50 721Q584 719 567 717L567 717L532 749L853 749L899 790L960 723L750 723Q738 703 721 671Q704 639 680 600L680 600L867 600L889 633L944 597L918 565L918 304Q918 245 918.50 199.50Q919 154 925 120L925 120L870 94L870 139L621 139L621 105L573 85Q573 125 575 193.50Q577 262 577 365L577 365Q577 465 575 529.50Q573 594 573 626L573 626L629 600ZM732 72L705 63Q574-72 515-107L515-107L509-95Q615 8 671 124L671 124L732 72ZM780 108L789 120Q838 81 871.50 52Q905 23 925 5L925 5Q959-40 937-78L937-78Q917-132 889-62L889-62Q867 3 780 108L780 108ZM65 700L213 700Q213 729 212.50 754Q212 779 210 807L210 807L274 778L255 745L255 672L255 623L210 600Q212 622 212.50 639Q213 656 213 672L213 672L171 672Q151 672 134 669.50Q117 667 100 665L100 665L65 700ZM171 427L171 420L119 404Q122 431 122.50 455.50Q123 480 123 507L123 507Q123 533 122.50 560Q122 587 119 617L119 617L177 587L419 587L448 620L490 572L467 552L467 484Q467 454 470 433L470 433L419 407L419 427L171 427ZM222 562L171 562L171 452L222 452L222 562ZM58 295L58 295Q87 317 96 401L96 401L109 401L113 371L484 371L515 404L567 343Q527 343 480 272L480 272L470 275L490 346L113 346Q115 328 114 312.50Q113 297 103 275L103 275Q87 241 61 253L61 253Q31 266 58 295ZM264 452L328 452L328 562L264 562L264 452ZM370 452L419 452L419 562L370 562L370 452ZM335 250L232 250L202 195L261 195L290 220L328 172L303 156Q270 51 213-6L213-6Q181-37 142.50-59.50Q104-82 54-104L54-104L54-84Q88-63 118.50-38Q149-13 177 21L177 21Q203 49 223.50 85.50Q244 122 261 169L261 169L193 169Q178 148 168.50 136.50Q159 125 154 120L154 120Q194 90 199 72L199 72Q204 56 184 30L184 30Q165 13 161 43L161 43Q158 58 154 72.50Q150 87 141 105L141 105Q130 84 81 46L81 46L71 56Q107 101 133 148.50Q159 196 177 250L177 250Q174 250 163.50 247.50Q153 245 138 243L138 243L103 275L400 275L435 310L484 250L380 250L380 162L448 162L490 192L532 133L380 133L380-9Q375-36 412-36L412-36L454-36Q476-31 480 63L480 63L496 63Q496-28 528-33L528-33Q512-70 461-75L461-75L383-75Q339-70 335-27L335-27L335 250ZM355 606L355 672L355 700Q355 722 354.50 748.50Q354 775 352 807L352 807L419 771L397 759L397 700L473 700L503 736L541 672L397 672L397 623L355 606Z"/></svg>