<svg id="U29062" viewBox="0 0 1024 1024"><path transform="translate(0, 921.6) scale(1,-1)" d="M559 535L559 535L559 57Q559 27 557-6.50Q555-40 555-83L555-83L606-58L606 13L950 13L896 88L848 38L776 38L776 229L924 229L871 303L830 258L776 258L776 422L918 422L868 491L820 447L776 447L776 611L937 611L886 681L839 636L600 636Q612 666 622 694.50Q632 723 644 746L644 746L666 766L596 810Q586 764 573.50 713.50Q561 663 544 611L544 611Q506 489 477 444L477 444L483 438Q502 456 522 481Q542 506 559 535ZM606 611L729 611L729 447L606 447L606 611ZM606 258L606 422L729 422L729 258L606 258ZM606 38L606 229L729 229L729 38L606 38ZM710 810L701 803Q724 768 738 739Q752 710 757 687L757 687Q765 636 789 677L789 677Q805 717 792 746L792 746Q780 758 760 774Q740 790 710 810L710 810ZM464 514L464 514L483 538L442 573L420 538L310 538L310 599L354 599L354 576L408 602Q405 620 405 687L405 687L511 687L459 743L420 712L411 712L405 712L405 749L433 771L354 807L354 712L215 712L215 753L244 771L159 807Q161 780 161.50 757.50Q162 735 162 712L162 712L53 712L86 674Q100 676 118.50 679Q137 682 159 687L159 687L162 687Q162 651 161.50 622.50Q161 594 159 573L159 573L215 592L215 599L266 599L266 538L153 538L104 561Q107 539 108 516.50Q109 494 109 476L109 476Q109 452 108 432Q107 412 104 394L104 394L153 406L153 419L420 419L420 400L467 425Q464 439 464 461L464 461Q464 484 464 514ZM215 627L215 687L354 687L354 627L215 627ZM153 444L153 514L266 514L266 444L153 444ZM310 444L310 514L420 514L420 444L310 444ZM414 148L382 110L310 110L310 160L333 186L263 208Q265 182 265.50 158Q266 134 266 110L266 110L101 110L133 75Q163 85 210 85L210 85L266 85L266 0Q211-5 162-11.50Q113-18 73-20L73-20L104-77Q135-65 231-42Q327-19 496 13L496 13L490 28L310 6L310 85L477 85L414 148ZM310 331L487 331L442 388L395 359L310 359L310 435L266 435L266 359L82 359L115 324Q131 326 150 328.50Q169 331 190 331L190 331L266 331L266 265L63 265L98 227Q135 239 169 239L169 239L511 239L464 299L420 265L310 265L310 331ZM263 252L212 252Q183 177 57 129L57 129L60 116Q152 131 197 167L197 167Q250 200 263 252L263 252ZM385 249L341 249L341 205Q345 150 459 154L459 154Q540 154 540 173L540 173Q510 202 500 198L500 198Q479 188 452 188L452 188L405 188Q391 193 385 205L385 205Q380 217 385 249L385 249Z"/></svg>