<svg id="U298B0" viewBox="0 0 1024 1024"><path transform="translate(0, 921.6) scale(1,-1)" d="M137 299L81 283Q84 346 84.50 412.50Q85 479 85 548L85 548Q85 620 84.50 682Q84 744 81 804L81 804L137 768L324 768L374 811L420 742L269 742L269 630L305 630L347 667L397 604L269 604L269 489L305 489L344 529L390 463L269 463L269 345L344 348L377 384L426 329L400 306Q392 188 385.50 119.50Q379 51 370 30L370 30Q361-17 337-45L337-45Q318-72 275-84L275-84Q264-33 183-15L183-15L186 0Q225-3 251.50-5.50Q278-8 288-5L288-5Q315-1 324 43L324 43Q333 67 339.50 137Q346 207 354 325L354 325L137 315L137 299ZM223 742L137 742L137 630L223 630L223 742ZM223 604L137 604L137 489L223 489L223 604ZM223 463L137 463L137 342L223 345L223 463ZM75 220L75 220L91 220Q96 140 85 102L85 102Q78 64 62 56L62 56Q44 33 32 56L32 56Q9 67 39 102L39 102Q58 130 75 220ZM114 227L114 227L124 233Q155 186 163 158L163 158Q179 125 167 102L167 102Q161 81 144 76L144 76Q129 71 134 119L134 119Q138 163 114 227ZM173 243L173 243L180 256Q250 186 255 164L255 164Q265 135 255 122L255 122Q250 107 232 102L232 102Q220 102 216 138L216 138Q210 181 173 243ZM242 266L242 266L255 276Q294 238 318 207L318 207Q330 182 324 161L324 161Q319 138 305 132L305 132Q286 118 282 158L282 158Q278 179 268 206Q258 233 242 266ZM538 827L538 827L606 781L587 762Q564 684 548.50 629Q533 574 521 545L521 545L547 516L528 486L528-45L479-74Q479-35 480.50 5.50Q482 46 482 86L482 86L482 463Q464 431 442.50 401.50Q421 372 400 348L400 348L387 358Q439 440 477 556.50Q515 673 538 827ZM767 729L774 742Q832 711 866 683L866 683Q894 653 869 617L869 617Q843 572 830 621L830 621Q819 658 767 729L767 729ZM547 526L682 526Q682 611 680.50 686.50Q679 762 679 834L679 834L761 791L731 765L731 526L823 526L869 571L925 499L761 499Q799 79 961 0L961 0L961-15Q920-15 892-58L892-58Q744 117 744 499L744 499L731 499Q731 57 502-100L502-100L495-91Q677 112 682 499L682 499L659 499Q636 496 618 492Q600 488 584 486L584 486L547 526Z"/></svg>