<svg id="U29645" viewBox="0 0 1024 1024"><path transform="translate(0, 921.6) scale(1,-1)" d="M334 739L272 680Q240 705 199 719L199 719L192 712Q257 638 257 612L257 612L44 612L76 573Q92 576 111 578Q130 580 150 583L150 583L208 583Q159 498 37 403L37 403L47 393Q102 418 152.50 460Q203 502 253 563L253 563L253 454Q248 426 154 441L154 441L154 425Q230 405 243 377L243 377Q291 381 302 441L302 441L302 583L389 583L353 509L363 499Q378 526 409 554L409 554Q429 576 453 580L453 580L418 638L389 612L296 612Q318 640 289 670L289 670Q306 679 323 691Q340 703 357 712L357 712Q378 719 391.50 725.50Q405 732 414 732L414 732L377 793L343 764L86 764L118 729Q137 731 156 733.50Q175 736 196 739L196 739L334 739ZM199 112L199 193L272 193L272 112L199 112ZM157 151L157 151Q157 124 156.50 94.50Q156 65 154 34L154 34L199 57L199 83L272 83L272 57L318 73L314 122L314 183L338 202L296 244L272 218L205 218L154 244Q156 222 156.50 198Q157 174 157 151ZM366-97L366-97L377-103Q414-67 437.50-25Q461 17 476 60L476 60Q506 151 512 270L512 270Q514 325 518 400.50Q522 476 522 570L522 570L522 747L809 747Q806 545 808.50 412Q811 279 821 212L821 212Q826 139 839 89Q852 39 867 5L867 5Q900-52 931-78L931-78Q948-89 954-86Q960-83 953-68L953-68Q949-50 948.50-33Q948-16 948 2L948 2Q948 19 950.50 50Q953 81 960 125L960 125L944 131L921 19Q889 55 880 131L880 131Q872 172 867 223Q862 274 860 338L860 338Q849 464 860 732L860 732L886 751L841 813L806 774L522 774L470 810Q470 757 471.50 688Q473 619 473 525L473 525Q473 433 471 363.50Q469 294 466 241L466 241Q463 192 455 146.50Q447 101 438 63L438 63Q430 24 411-14.50Q392-53 366-97ZM728 186L728 186L721 176Q728 165 739.50 142.50Q751 120 764 86L764 86L683 76L683 244L725 244L725 222L770 241Q767 265 767 288L767 288L767 342L767 451L789 470L750 519L725 484L683 484L683 609L806 609L764 664L725 634L524 634L557 599L593 609L640 609L640 484L602 484L554 509Q554 468 555.50 432.50Q557 397 557 364L557 364Q557 332 555.50 292Q554 252 554 202L554 202L602 218L602 244L640 244L640 73Q606 65 577 62Q548 59 522 57L522 57L551-14Q569-3 595 10Q621 23 650 34L650 34Q702 56 767 66L767 66Q767 41 776 22L776 22Q783-5 806 22L806 22Q823 58 811 86L811 86Q807 105 784.50 128.50Q762 152 728 186ZM640 457L640 274L602 274L602 457L640 457ZM725 457L725 274L683 274L683 457L725 457ZM63-58L63-58L111-36L111 350L366 350L366 63Q370 31 350 31L350 31Q341 33 323.50 34Q306 35 282 41L282 41L282 24Q346 8 350-42L350-42Q412-7 412 60L412 60L412 331L434 354L392 409L366 377L105 377L63 399Q65 365 65.50 309Q66 253 66 176L66 176Q66 97 65.50 40Q65-17 63-58ZM225 364L225 364L176 364Q168 250 95 196L95 196L98 183Q156 208 186 251L186 251Q215 289 225 364ZM302 364L302 364L257 364L257 293Q249 230 318 241L318 241Q368 241 373 261L373 261Q356 292 347 283L347 283Q341 279 324 279L324 279Q306 279 299 296L299 296Q299 301 300.50 318Q302 335 302 364Z"/></svg>