<svg id="U29373" viewBox="0 0 1024 1024"><path transform="translate(0, 921.6) scale(1,-1)" d="M140 679L140 679L50 679L91 644L118 650L140 650Q140 617 139.50 583Q139 549 137 509L137 509L184 527L184 537L218 537L218 437L146 437L91 471Q94 441 94 408L94 408Q94 375 94 335L94 335Q94 297 94 267L94 267Q94 237 91 219L91 219L143 234L143 263L218 263L218 149L57 149L91 118Q111 120 128.50 122Q146 124 166 124L166 124L218 124Q218 64 217.50 12Q217-40 215-88L215-88L266-65Q263-39 263 6L263 6Q263 51 263 124L263 124L420 124L364 193L326 149L263 149L263 263L338 263L338 234L385 260Q382 290 382 329L382 329Q382 369 382 414L382 414L401 439L354 474L336 437L263 437L263 537L295 537L295 512L344 530Q341 561 341 591L341 591Q341 621 341 650L341 650L423 650L377 717L344 679L341 679L341 748L364 776L288 805Q293 778 294 746Q295 714 295 679L295 679L184 679L184 748L206 779L137 805Q139 773 139.50 741Q140 709 140 679ZM184 565L184 650L295 650L295 565L184 565ZM143 291L143 411L218 411L218 291L143 291ZM263 291L263 411L338 411L338 291L263 291ZM650 729L650 729L430 729L461 697Q480 700 497.50 700.50Q515 701 537 704L537 704L606 704Q571 671 519 639Q467 607 398 587L398 587L401 574Q566 613 650 688L650 688Q650 662 648.50 633Q647 604 647 574L647 574L704 587Q696 620 695 650.50Q694 681 694 707L694 707Q770 609 889 584L889 584Q903 610 953 615L953 615L953 628Q804 637 722 704L722 704L937 704L880 764L845 729L694 729L694 779L719 795L647 814Q647 790 648.50 770Q650 750 650 729ZM852 534L852 465L493 465L493 534L852 534ZM341-75L341-75L354-85Q392-31 419.50 17.50Q447 66 461 121L461 121Q475 172 484 250Q493 328 493 437L493 437L852 437L852 417L902 433Q899 451 899 474L899 474Q899 498 899 527L899 527L918 550L871 584L852 563L490 563L449 581Q451 527 451.50 474Q452 421 452 367L452 367Q452 310 445.50 255.50Q439 201 433 149L433 149Q414 39 341-75ZM719 231L719 231L719 244L650 234L650 301L729 301L681 352L657 329L650 329L650 389L672 408L609 430Q609 413 611 390.50Q613 368 613 348L613 348L613 226L568 219L568 311L587 332L527 352Q527 327 529 309.50Q531 292 531 275L531 275L531 216L493 213L518 162Q545 181 719 231ZM732 376L732 376L732 241Q732 181 786 193L786 193L858 193Q901 180 921 216L921 216Q907 219 896 234L896 234Q886 241 886 294L886 294L877 294Q877 285 873.50 273.50Q870 262 868 250L868 250Q864 219 852 219L852 219L798 219Q773 219 773 257L773 257L773 294Q793 294 827 313L827 313Q842 317 862.50 325Q883 333 905 339L905 339L861 383Q849 371 836 359Q823 347 811 335L811 335Q796 326 788 319.50Q780 313 773 313L773 313L773 393L789 408L729 427Q729 407 730.50 396Q732 385 732 376ZM804 165L773 134L596 134Q623 165 637 165L637 165L584 200Q565 162 535 123Q505 84 467 39L467 39L474 30Q502 46 527.50 66Q553 86 575 105L575 105Q630 27 650 18L650 18Q608-7 560.50-29.50Q513-52 455-69L455-69L455-85Q572-68 685-9L685-9Q758-69 858-88L858-88Q871-57 924-37L924-37L924-28Q800-27 722 11L722 11Q751 34 773.50 56Q796 78 820 103L820 103L852 118L804 165ZM596 105L596 105L767 105Q744 88 722.50 70Q701 52 681 33L681 33Q655 54 634 72.50Q613 91 596 105Z"/></svg>