<svg id="U29AA5" viewBox="0 0 1024 1024"><path transform="translate(0, 921.6) scale(1,-1)" d="M718 406L660 454Q641 415 614.50 383Q588 351 558 322L558 322Q500 273 394 223L394 223L397 210Q567 252 676 377L676 377Q770 262 898 216L898 216Q907 256 952 261L952 261L952 277Q831 281 686 386L686 386L718 406ZM663 21L663 21Q642 33 617.50 43Q593 53 564 65L564 65L558 49Q609 13 641-20L641-20Q655-39 666.50-52.50Q678-66 686-81L686-81Q699-104 718-78L718-78Q722-61 724.50-47Q727-33 718-27L718-27Q711-9 679 11L679 11Q710 32 739 51Q768 70 795 88L795 88Q816 109 839.50 118Q863 127 885 130L885 130L840 187L811 165L468 165L500 130Q533 139 574 139L574 139L792 139Q758 108 726 78.50Q694 49 663 21ZM699 261L554 261L580 223Q592 225 607 227.50Q622 230 644 235L644 235L785 235L734 300L699 261ZM500 659L500 694L484 694Q475 640 458 604L458 604Q446 587 439.50 575.50Q433 564 426 559L426 559Q422 541 439 534L439 534Q463 517 481 540L481 540Q500 562 500 633L500 633L667 633Q667 545 665 494Q663 443 663 434L663 434L718 447Q715 468 715 514L715 514Q715 561 715 633L715 633L882 633L859 547L872 543Q888 572 900.50 589.50Q913 607 920 617L920 617Q935 632 952 640L952 640L904 694L882 659L715 659L715 749L898 749L850 813L801 774L494 774L522 736Q531 738 545 740.50Q559 743 577 749L577 749L667 749L667 659L500 659ZM586 531L586 531L586 527Q613 505 622 534L622 534Q626 562 603 579L603 579Q590 583 570.50 589Q551 595 522 598L522 598L519 592Q540 572 558.50 557.50Q577 543 586 531ZM657 486L657 486L648 502Q593 477 497 466L497 466L522 412Q541 424 576 444Q611 464 657 486ZM824 428L824 428Q850 401 859 434L859 434Q867 458 843 479L843 479Q828 494 737 505L737 505L737 495Q802 460 824 428ZM830 543L830 543L859 543L830 604Q803 580 777.50 560Q752 540 731 531L731 531L734 518Q755 522 779 529Q803 536 830 543ZM179 505L179 736L343 736L343 505L282 505L282 620L362 620L362 646L285 646L237 678Q239 644 239.50 600.50Q240 557 240 505L240 505L179 505ZM417 479L384 406L397 402Q447 472 484 476L484 476L442 531L420 505L388 505L388 723L417 742L375 797L343 762L182 762L128 797Q130 761 130.50 720.50Q131 680 131 640L131 640L131 505L99 505L93 556L83 556Q60 465 48 454L48 454Q32 434 32 412L32 412Q45 393 51 393L51 393Q70 393 86 412L86 412Q102 434 102 479L102 479L417 479ZM237-2L237-2L237-20Q320-40 320-94L320-94Q365-60 368-52L368-52Q375-38 381 5L381 5L381 348L404 373L362 422L336 393L182 393L125 418Q127 394 127.50 354.50Q128 315 128 258L128 258Q128 200 127.50 160Q127 120 125 104L125 104Q125 57 109 21L109 21Q99-26 44-91L44-91L54-97Q114-61 147 1L147 1Q161 30 167.50 69Q174 108 179 162L179 162L179 364L336 364L336 21Q336-10 308-14L308-14Q279-12 237-2ZM205 325L205 325L202 316Q241 269 247 235L247 235Q251 188 269 210L269 210Q288 229 288 255L288 255Q288 278 275 284L275 284Q268 290 250.50 299Q233 308 205 325ZM186 88L186 88L237 62Q239 69 246 79.50Q253 90 263 107L263 107Q272 121 288 144Q304 167 324 197L324 197L311 200Q285 170 254 142Q223 114 186 88Z"/></svg>