<svg id="U29DED" viewBox="0 0 1024 1024"><path transform="translate(0, 921.6) scale(1,-1)" d="M440 674L440 674L383 728L351 689L238 689Q281 756 305 766L305 766L225 803Q225 781 214 751.50Q203 722 184 677L184 677Q163 632 133 578Q103 524 60 463L60 463L70 453Q111 489 135 532L135 532Q135 398 134.50 312Q134 226 131 186L131 186L184 208L184 239L399 239L399 208L449 229Q446 253 446 326L446 326Q446 399 446 520L446 520L477 542L424 592L389 555L310 555Q402 674 440 674ZM228 661L228 661L351 661L289 555L194 555L169 570Q185 591 199.50 614.50Q214 638 228 661ZM184 403L184 526L269 526L269 403L184 403ZM314 403L314 526L399 526L399 403L314 403ZM184 265L184 378L269 378L269 265L184 265ZM314 265L314 378L399 378L399 265L314 265ZM166 154L166 154L150 154Q130 68 101 28L101 28Q69-17 98-17L98-17Q120-17 140-5L140-5Q159 11 159 38L159 38Q170 62 166 154ZM220 167L210 164Q232 88 232 34L232 34Q236-12 263 0L263 0Q290 22 285 60L285 60Q285 102 220 167L220 167ZM302 177L292 170Q341 79 346 51L346 51Q347 31 355 25Q363 19 371 28L371 28Q393 41 389 79L389 79Q389 115 302 177L302 177ZM387 205L371 195Q396 164 412.50 139Q429 114 433 91L433 91Q455 49 469 85L469 85Q490 120 471 145L471 145Q454 160 387 205L387 205ZM597 658L603 661L796 661Q770 630 745 604.50Q720 579 695 558L695 558Q666 581 641 605Q616 629 597 658L597 658ZM660 756L685 771L619 813Q596 738 562 674Q528 610 477 555L477 555L484 542Q541 589 585 640L585 640Q600 610 620.50 585.50Q641 561 663 532L663 532Q570 452 459 406L459 406L462 391Q535 411 592 439.50Q649 468 695 501L695 501Q744 459 796 434Q848 409 906 391L906 391Q915 438 963 438L963 438L963 453Q826 464 729 532L729 532Q755 551 784 579.50Q813 608 846 648L846 648L884 668L830 718L802 689L616 689Q628 704 638 720Q648 736 660 756L660 756ZM673 344L673 344L487 344L521 309Q538 311 555 314.50Q572 318 594 318L594 318L673 318L673 221L518 221L550 186Q568 188 585.50 190Q603 192 623 192L623 192L673 192L673 98L469 98L503 60Q528 67 575 72L575 72L673 72Q673 24 670-14.50Q667-53 667-86L667-86L723-62L720 10L720 72L963 72L906 145L858 98L720 98L720 192L909 192L852 265L814 221L720 221L720 318L912 318L855 381L818 344L720 344L720 381L749 406L667 453Q667 413 670 385Q673 357 673 344Z"/></svg>