<svg id="U2940" viewBox="0 0 924 1000"><path transform="translate(0, 900) scale(1,-1)" d="M462 18L462 18Q394 18 335 43.50Q276 69 231 114Q186 159 160.50 218Q135 277 135 345L135 345Q135 418 164 480.50Q193 543 243.50 588.50Q294 634 359 656L359 656Q445 699 523 791L523 791L567 791Q529 710 494 670L494 670Q556 664 609.50 637Q663 610 703.50 565.50Q744 521 766.50 465Q789 409 789 345L789 345Q789 277 763.50 218Q738 159 693 114Q648 69 589 43.50Q530 18 462 18ZM462 72L462 72Q519 72 568.50 93Q618 114 655.50 151.50Q693 189 714 238.50Q735 288 735 345L735 345Q735 415 703 474Q671 533 616.50 570.50Q562 608 493 616L493 616Q529 577 567 495L567 495L523 495Q461 567 395 610L395 610Q336 595 289.50 556.50Q243 518 216 463.50Q189 409 189 345L189 345Q189 288 210 238.50Q231 189 268.50 151.50Q306 114 355.50 93Q405 72 462 72Z"/></svg>