<svg id="U29921" viewBox="0 0 1024 1024"><path transform="translate(0, 921.6) scale(1,-1)" d="M560 276L508 261Q508 328 509.50 402Q511 476 511 555L511 555Q511 631 509.50 689Q508 747 508 788L508 788L566 756L819 756L868 801L932 729L745 729L745 613L816 613L858 655L920 587L745 587L745 468L809 468L851 513L913 441L745 441L745 328L890 331L925 367L974 315L945 289Q921 25 897-11L897-11Q884-30 875.50-47Q867-64 858-72L858-72Q848-81 829-89.50Q810-98 787-108L787-108Q760-52 670-23L670-23L670-9Q785-35 819-23L819-23Q847-10 868 104L868 104Q875 163 881.50 212.50Q888 262 893 306L893 306L560 296L560 276ZM518 215L518 215L531 215Q523 161 519 123.50Q515 86 508 69L508 69Q493 27 469 23L469 23Q441 20 433 37L433 37Q428 57 457 85L457 85Q489 112 518 215ZM745 247L745 247L751 254Q807 212 832 176L832 176Q860 140 838 104L838 104Q815 65 799 127L799 127Q790 184 745 247ZM693 729L560 729L560 613L693 613L693 729ZM693 587L560 587L560 468L693 468L693 587ZM693 441L560 441L560 325L693 328L693 441ZM654 225L654 225L660 231Q684 209 701.50 188Q719 167 731 150L731 150Q754 116 728 85L728 85Q697 50 693 108L693 108Q688 138 678 167Q668 196 654 225ZM573 205L573 205L580 212Q632 138 637 108L637 108Q642 71 618 50L618 50Q592 24 588 82L588 82Q588 111 583 139.50Q578 168 573 205ZM398 574L388 581L427 652L132 652Q127 623 110 601L110 601Q92 571 81 571L81 571Q63 564 58 591L58 591Q50 616 74 636L74 636Q90 652 113 739L113 739L132 739L132 682L268 682Q263 743 213 808L213 808L226 814Q294 777 310 743L310 743Q324 715 295 682L295 682L421 682L453 710L499 652Q484 645 470.50 638Q457 631 450 626L450 626Q439 621 398 574L398 574ZM110 483L81 525L333 525L385 564L437 500L190 500Q162 500 110 483L110 483ZM437 412L411 393L411 241L411 177Q411 147 414 124L414 124L356 104L356 134L152 134L152 108L93 85Q95 146 95.50 201Q96 256 96 306L96 306Q96 354 95.50 395Q95 436 93 465L93 465L155 432L352 432L388 468L437 412ZM356 406L152 406L152 303L356 303L356 406ZM356 273L152 273L152 163L356 163L356 273ZM90-47L58 21Q131 25 223 39Q315 53 427 75L427 75L430 57Q292 24 208 0Q124-24 90-47L90-47Z"/></svg>