<svg id="U29F3E" viewBox="0 0 1024 1024"><path transform="translate(0, 921.6) scale(1,-1)" d="M407 687L407 687L353 737L328 705L221 705L256 766L274 778L202 810Q202 782 161 689L161 689Q141 643 117.50 594Q94 545 62 488L62 488L72 479Q87 497 99.50 512Q112 527 120 542L120 542Q120 406 119.50 319Q119 232 117 195L117 195L164 221L164 245L369 245L369 221L416 242Q413 266 413 337L413 337Q413 408 413 532L413 532L438 558L391 604L359 566L290 566Q371 687 407 687ZM212 681L212 681L322 681L262 566L177 566L148 586Q164 608 180 631.50Q196 655 212 681ZM164 416L164 542L243 542L243 416L164 416ZM290 416L290 542L369 542L369 416L290 416ZM164 274L164 391L243 391L243 274L164 274ZM290 274L290 391L369 391L369 274L290 274ZM148 164L148 164L136 164Q116 83 91 38L91 38Q58-8 84-8L84-8Q114-8 127 3L127 3Q139 14 145 47L145 47Q147 63 147.50 92Q148 121 148 164ZM202 177L192 173Q201 135 208 103.50Q215 72 215 44L215 44Q219-2 240 10L240 10Q263 33 259 69L259 69Q259 105 202 177L202 177ZM274 186L265 180Q288 135 300.50 105.50Q313 76 315 60L315 60Q320 10 341 38L341 38Q363 51 359 88L359 88Q359 125 274 186L274 186ZM356 214L344 205Q372 167 390 137.50Q408 108 413 85L413 85Q430 49 448 79L448 79Q461 113 448 142L448 142Q438 153 413 171.50Q388 190 356 214L356 214ZM876 362L895 712L920 737L876 781L847 746L769 746L801 709L829 722L845 722L842 640L781 640L806 602L826 611L842 611L839 497L785 497L809 466L826 473L839 473L829 362L740 362L513 362L511 466L590 466L552 517L523 491L508 491L505 589L586 589L549 643L523 614L505 614L498 705Q530 717 563.50 730.50Q597 744 634 756L634 756L583 803Q564 773 495 725L495 725L448 749Q450 729 452 705.50Q454 682 454 661L454 661L472 362L416 362L451 331Q467 333 484.50 335Q502 337 523 337L523 337L961 337L914 406L883 362L876 362ZM489 129L489 129Q449 92 489 88L489 88Q521 88 545 123L545 123Q557 150 557 252L557 252L545 252Q522 168 489 129ZM765 614L765 614L785 623L737 652Q727 635 716.50 619Q706 603 693 589L693 589L634 586Q645 604 662.50 632.50Q680 661 706 699L706 699L728 709L668 740Q625 591 586 586L586 586L611 545Q638 555 683 563L683 563Q629 477 590 460L590 460L614 413Q631 429 744 453L744 453Q744 441 745.50 432.50Q747 424 750 413L750 413Q756 397 778 432L778 432Q793 465 724 522L724 522L719 514Q722 501 727.50 490.50Q733 480 740 469L740 469L634 460Q669 500 701.50 538Q734 576 765 614ZM744 110L760 101Q792 136 818 162Q844 188 866 205L866 205L901 221L826 265Q813 229 793.50 189.50Q774 150 744 110L744 110ZM687 160L687 160Q687 197 693 280L693 280L721 309L643 337Q651 146 593 66L593 66Q538-9 382-70L382-70L382-83Q631-24 680 139L680 139Q745-8 898-70L898-70Q903-33 958-29L958-29L958-14Q882-10 804 38L804 38Q770 62 740.50 91Q711 120 687 160Z"/></svg>