<svg id="U290A0" viewBox="0 0 1024 1024"><path transform="translate(0, 921.6) scale(1,-1)" d="M786 480L594 480L594 452L786 452L786 480ZM477 442L477 442L537 461Q534 479 534 522L534 522Q534 565 534 635L534 635L858 635L805 546L821 537Q904 631 950 638L950 638L884 694L855 660L534 660L534 738L858 738L786 808L736 764L179 764L220 732Q235 734 252.50 736Q270 738 292 738L292 738L484 738L484 660L179 660L179 694L159 694Q150 652 139 623.50Q128 595 111 581L111 581Q77 547 92 530L92 530Q114 519 128 527L128 527Q139 534 148 540.50Q157 547 163 559L163 559Q179 569 179 635L179 635L484 635Q484 562 483 512.50Q482 463 477 442ZM418 574L235 574L235 546L418 546L418 574ZM780 578L594 578L594 550L780 550L780 578ZM418 480L225 480L225 452L418 452L418 480ZM241 270L241 270L241 62Q241 17 240.50-18Q240-53 238-82L238-82L302-57Q299-33 298.50-12Q298 9 298 30L298 30L298 257L330 285L279 307Q303 325 320 341.50Q337 358 348 370L348 370Q370 397 392 404L392 404L323 458Q274 371 216 307L216 307Q187 273 151.50 238Q116 203 73 165L73 165L86 152Q164 198 241 270ZM582 380L582 380L606 401L510 439Q513 401 521.50 357.50Q530 314 537 263L537 263L358 247L395 216L421 229L547 237Q579 126 632 67L632 67Q658 41 684 19.50Q710-2 739-19L739-19Q763-32 788-43.50Q813-55 837-60L837-60Q857-62 879.50-63.50Q902-65 922-65L922-65Q957-65 944-54L944-54Q934-39 925 14L925 14Q920 40 919.50 67Q919 94 919 128L919 128L903 128L881-3Q793 0 717 67L717 67Q633 137 600 247L600 247L925 270L855 329L808 285L594 270Q582 318 582 380ZM680 433L680 433L670 427Q705 394 726.50 369.50Q748 345 758 329L758 329Q777 301 796 311L796 311Q800 319 804 327.50Q808 336 808 348L808 348Q808 374 780 393L780 393Q754 410 680 433Z"/></svg>