<svg id="U29365" viewBox="0 0 1024 1024"><path transform="translate(0, 921.6) scale(1,-1)" d="M159 669L159 669L73 669L108 635Q120 637 132 640.50Q144 644 159 644L159 644Q159 612 158 578Q157 544 153 509L153 509L207 521L207 534L241 534L241 437L166 437L114 461Q117 438 117 407L117 407Q117 376 117 339L117 339Q117 297 117 268L117 268Q117 240 114 222L114 222L163 237L163 266L241 266L241 159L80 159L114 124Q148 131 184 131L184 131L241 131Q241 73 240.50 24.50Q240-24 238-72L238-72L289-50Q286-28 285.50 17Q285 62 285 131L285 131L440 131L383 197L346 159L285 159L285 266L358 266L358 237L405 263Q402 293 402 330L402 330Q402 368 402 411L402 411L424 437L374 471L354 437L285 437L285 534L317 534L317 512L364 530Q361 559 361 587L361 587Q361 615 361 644L361 644L443 644L395 707L364 669L361 669L361 748L383 773L310 798Q315 771 316 740Q317 709 317 669L317 669L207 669L207 745L228 770L153 798Q157 765 158 733Q159 701 159 669ZM207 559L207 644L317 644L317 559L207 559ZM163 294L163 411L241 411L241 294L163 294ZM285 294L285 411L358 411L358 294L285 294ZM490 609L490 609L654 609Q654 518 652.50 461.50Q651 405 651 380L651 380L704 411Q699 430 698.50 480.50Q698 531 698 609L698 609L878 609L846 540L862 534Q905 603 950 612L950 612L893 666L868 635L698 635L698 720L899 720L849 786L802 748L471 748L503 710Q521 712 540 716Q559 720 578 720L578 720L654 720L654 635L490 635L490 669L474 669Q471 652 467 637.50Q463 623 459 609L459 609Q447 577 424 556L424 556Q409 530 433 527L433 527Q452 518 474 540L474 540Q478 549 484 566Q490 583 490 609ZM452-60L452-60L497-28L497 216L588 216Q588 132 585 76Q582 20 582-9L582-9L632 21Q629 39 629 87L629 87Q629 135 629 216L629 216L717 216Q717 135 715.50 83.50Q714 32 714 5L714 5L764 33Q758 49 758 216L758 216L858 216L858 21Q858-3 840-3L840-3Q828-3 806.50-0.50Q785 2 755 5L755 5L755-9Q825-25 846-69L846-69Q903-45 903 2L903 2L903 209L925 241L878 278L852 241L619 241Q642 273 658 294.50Q674 316 685 326L685 326L925 326L865 393L824 354L411 354L443 319Q478 326 518 326L518 326L629 326Q621 307 616 286Q611 265 606 241L606 241L497 241L452 272Q455 230 455.50 188.50Q456 147 456 105L456 105Q456 63 455.50 23Q455-17 452-60ZM616 534L500 534L500 509L616 509L616 534ZM497 401L616 401L616 430L497 430L497 401ZM732 506L852 506L852 530L732 530L732 506ZM732 401L858 401L858 430L732 430L732 401Z"/></svg>