<svg id="U29953" viewBox="0 0 1024 1024"><path transform="translate(0, 921.6) scale(1,-1)" d="M552 283L502 268Q502 329 503.50 398Q505 467 505 547L505 547Q505 621 503.50 677.50Q502 734 502 778L502 778L552 744L812 744L853 788L913 716L731 716L731 606L803 606L850 646L900 578L731 578L731 465L796 465L840 509L894 440L731 440L731 324L872 327L907 365L957 314L928 286Q894 23 878-7L878-7Q866-41 840-66L840-66Q828-77 772-102L772-102Q746-39 659-17L659-17L659-1Q717-15 753.50-18Q790-21 809-17L809-17Q834-3 853 107L853 107Q857 163 863.50 211.50Q870 260 876 302L876 302L552 296L552 283ZM527 208L527 208L540 211Q535 161 532 125Q529 89 524 70L524 70Q514 31 484 26L484 26Q454 17 449 36L449 36Q442 54 471 83L471 83Q503 115 527 208ZM731 246L731 246L737 252Q759 235 779.50 218Q800 201 819 183L819 183Q848 147 822 111L822 111Q802 73 784 127L784 127Q776 176 731 246ZM681 716L552 716L552 606L681 606L681 716ZM681 578L552 578L552 465L681 465L681 578ZM681 440L552 440L552 321L681 324L681 440ZM643 224L643 224L649 230Q673 206 690.50 186.50Q708 167 718 151L718 151Q739 122 715 89L715 89Q685 56 681 111L681 111Q671 168 643 224ZM565 205L565 205L571 211Q594 178 606.50 152.50Q619 127 625 111L625 111Q628 73 606 55L606 55Q584 32 581 86L581 86Q581 116 575 145Q569 174 565 205ZM409 794L436 725Q406 722 370 716.50Q334 711 290 706L290 706Q245 696 188.50 690.50Q132 685 67 678L67 678L67 693Q150 703 207 715.50Q264 728 298 741L298 741Q374 755 409 794L409 794ZM83 615L83 615L88 631Q112 612 129 592Q146 572 161 556L161 556Q187 525 173 493L173 493Q159 462 145 462L145 462Q133 462 126 516L126 516Q118 558 83 615ZM205 666L205 666L214 675Q240 653 258 631.50Q276 610 286 597L286 597Q304 563 295 531L295 531Q285 496 270 496L270 496Q255 496 251 540L251 540Q247 585 205 666ZM412 675L412 675L467 618Q451 604 436.50 588Q422 572 409 556L409 556Q396 537 377 510.50Q358 484 330 452L330 452L317 459Q332 482 344 506Q356 530 371 559L371 559Q395 609 412 675ZM214 496L214 496L251 431Q216 431 139 396L139 396L139 242L176 242L210 280L251 215L139 215L139 45L383 45L383 215Q364 215 347.50 212.50Q331 210 314 208L314 208L280 242L383 242L383 399L376 399Q358 399 339 397.50Q320 396 301 394L301 394L270 424L386 424L412 459L456 405L430 387L430 83L430 39Q430 16 433-17L433-17L383-45L383 17L139 17L139-32L85-58Q87-8 87.50 54Q88 116 88 199L88 199Q88 275 87.50 336.50Q87 398 85 443L85 443L139 415Q184 448 214 496Z"/></svg>