<svg id="U29A2F" viewBox="0 0 1024 1024"><path transform="translate(0, 921.6) scale(1,-1)" d="M727 81L727 81L727 329L727 450L575 450L575 364Q582 41 409-102L409-102L403-92Q527 50 527 358L527 358L527 549Q527 591 525.50 639Q524 687 524 742L524 742L575 704Q612 709 651.50 719.50Q691 730 730 742L730 742Q775 755 807 770.50Q839 786 861 803L861 803L921 730Q904 727 887 726.50Q870 726 854 723L854 723Q835 720 765.50 709Q696 698 575 682L575 682L575 476L841 476L889 533L946 450L781 450L781 301Q844 277 878 256Q912 235 924 221L924 221Q943 196 934 148L934 148Q917 103 886 167L886 167Q853 218 781 275L781 275L781 113L781 11Q781-33 784-67L784-67L724-95Q724-47 725.50-4.50Q727 38 727 81ZM368 736L190 736L190 507L254 507Q254 555 253.50 597.50Q253 640 251 679L251 679L298 647L387 647L387 622L298 622L298 507L368 507L368 736ZM425 403L413 406L444 482L104 482Q98 415 85 406L85 406Q75 387 57 387L57 387Q41 390 38 409L38 409Q38 425 57 447L57 447Q63 459 72.50 484.50Q82 510 92 555L92 555L101 555L104 507L139 507L139 641Q139 683 138.50 721.50Q138 760 136 796L136 796L184 761L365 761L393 796L444 746L416 727L416 507L447 507L470 529L511 472Q470 460 425 403L425 403ZM251-26L251-8Q300-20 333-20L333-20Q359-15 359 15L359 15L359 364L190 364L190 155Q185 109 176.50 69Q168 29 152-1L152-1Q120-57 63-102L63-102L50-99Q76-63 94-31.50Q112 0 117 24L117 24Q126 52 129.50 73.50Q133 95 133 110L133 110Q135 119 135.50 156Q136 193 136 253L136 253Q136 310 135.50 349.50Q135 389 133 409L133 409L184 390L355 390L387 425L438 371L409 345L409-1Q403-44 393-57L393-57Q387-74 339-99L339-99Q339-42 251-26L251-26ZM215 301L219 313Q249 296 269.50 286.50Q290 277 295 272L295 272Q311 265 311 237L311 237Q311 221 289 199L289 199Q270 177 260 218L260 218Q255 255 215 301L215 301ZM251 53L200 75Q273 120 333 190L333 190L346 183Q325 154 308.50 131.50Q292 109 279 94L279 94Q269 79 261 69Q253 59 251 53L251 53Z"/></svg>