<svg id="U29E38" viewBox="0 0 1024 1024"><path transform="translate(0, 921.6) scale(1,-1)" d="M423 677L423 677L369 728L338 692L224 692Q262 764 287 769L287 769L212 807Q212 785 200.50 757Q189 729 171 681L171 681Q135 595 59 479L59 479L68 466Q108 504 123 535L123 535Q123 402 122 316Q121 230 117 188L117 188L168 211L168 242L382 242L382 211L429 233Q426 257 426 329L426 329Q426 401 426 522L426 522L457 545L397 595L375 558L294 558Q389 677 423 677ZM215 668L215 668L338 668L271 558L177 558L151 573Q170 602 185 624Q200 646 215 668ZM168 406L168 532L253 532L253 406L168 406ZM300 406L300 532L382 532L382 406L300 406ZM168 268L168 381L253 381L253 268L168 268ZM300 268L300 381L382 381L382 268L300 268ZM148 160L148 160L133 160Q118 77 88 31L88 31Q53-11 81-11L81-11Q111-11 127-1L127-1Q133 7 137.50 15.50Q142 24 145 44L145 44Q147 58 148.50 85Q150 112 148 160ZM208 170L196 167Q221 89 221 38L221 38Q225-7 246 6L246 6Q272 23 268 66L268 66Q268 104 208 170L208 170ZM284 183L277 173L274 173Q323 95 328 54L328 54Q332 7 356 31Q380 55 375 85L375 85Q375 119 284 183L284 183ZM366 208L356 201Q415 129 426 85L426 85Q438 45 457 75L457 75Q477 114 461 142L461 142Q448 150 425.50 168.50Q403 187 366 208L366 208ZM621 192L621 192L769 192Q752 159 737.50 131Q723 103 709 79L709 79Q674 88 638 93.50Q602 99 570 104L570 104Q579 122 591 145Q603 168 621 192ZM690 473L690 561L804 561L804 473L690 473ZM690 355L690 444L804 444L804 355L690 355ZM513 85L513 85Q564 77 605.50 70Q647 63 680 51L680 51Q583-30 423-67L423-67L423-83Q620-54 728 34L728 34Q817-1 857-39L857-39Q899-73 911-64L911-64Q915-46 907-20L907-20Q898 8 863 28L863 28Q846 32 818 43.50Q790 55 750 69L750 69Q766 90 783.50 122Q801 154 822 192L822 192L961 192L907 262L866 221L634 221Q668 297 687 306L687 306L649 327L804 327L804 303L854 327Q851 354 850.50 382.50Q850 411 850 444L850 444L965 444L907 514L870 473L850 473L850 551L876 570L829 620L798 589L690 589L690 661L930 661L866 730L813 689L690 689L690 743L716 771L639 810Q639 786 641 755.50Q643 725 643 689L643 689L438 689L472 655Q489 657 507.50 659Q526 661 545 661L545 661L643 661L643 589L492 589L526 551Q542 553 560 556Q578 559 598 561L598 561L643 561L643 473L448 473L482 438Q499 439 519 441.50Q539 444 557 444L557 444L643 444L643 355L485 355L523 321Q546 326 570.50 328.50Q595 331 621 331L621 331Q615 313 606 285.50Q597 258 583 221L583 221L420 221L454 186Q471 188 488 190Q505 192 526 192L526 192L574 192Q556 161 542 133Q528 105 513 85Z"/></svg>