<svg id="U29BC3" viewBox="0 0 1024 1024"><path transform="translate(0, 921.6) scale(1,-1)" d="M190 610L190 610L65 610L102 575Q136 585 175 585L175 585L259 585Q250 575 235.50 565Q221 555 203 541L203 541Q154 509 112 509L112 509L149 466Q173 470 281 484L281 484Q335 489 383 494Q431 499 476 506L476 506Q478 499 484 493Q490 487 498 478L498 478Q508 462 529 487L529 487Q537 510 519 528L519 528Q512 537 479 547Q446 557 397 572L397 572L388 563Q407 552 425.50 540.50Q444 529 463 516L463 516L200 509Q218 518 237 526Q256 534 275 544L275 544Q291 550 305.50 556.50Q320 563 335 566L335 566L297 585L595 585L541 638L498 610L244 610L244 638L523 638L472 685L438 663L244 663L244 688L529 688L476 741L441 716L244 716L244 748L557 748L504 801L463 776L247 776L187 798Q189 765 189.50 716.50Q190 668 190 610ZM899 763L849 804Q839 797 813 783Q787 769 742 748L742 748Q658 709 560 688L560 688L560 679Q623 685 679 698.50Q735 712 780 729L780 729Q826 743 855 753Q884 763 899 763L899 763ZM933 660L886 707Q869 692 841 680Q813 668 773 650L773 650Q735 633 687.50 619.50Q640 606 591 594L591 594L595 585Q643 589 695.50 600Q748 611 805 628L805 628Q854 642 887.50 651Q921 660 933 660L933 660ZM958 563L905 606Q893 586 792 553L792 553Q744 536 685.50 522Q627 508 557 494L557 494L557 484Q636 489 701 500Q766 511 820 528L820 528Q918 557 958 563L958 563ZM438 371L438 397L585 397L585 371L438 371ZM632 371L632 397L767 397L767 371L632 371ZM438 343L438 343L585 343L585 309L425 309Q430 318 432.50 327Q435 336 438 343ZM269 343L269 343L385 343Q383 331 380 322.50Q377 314 375 309L375 309L247 309Q253 318 258 327Q263 336 269 343ZM579 218L579 218L632 227L632 280L817 280Q805 252 786 252L786 252Q774 252 749.50 254.50Q725 257 692 265L692 265L692 252Q779 226 786 199L786 199Q802 203 814.50 209.50Q827 216 836 221L836 221Q845 230 867 280L867 280L896 299L842 334L820 309L632 309L632 343L767 343L767 337L820 350Q817 359 817 400L817 400L842 418L786 453L764 425L632 425L632 444L654 459L579 478Q579 463 582 451Q585 439 585 425L585 425L438 425L438 447L463 466L385 487Q387 471 387.50 455Q388 439 388 425L388 425L171 425L209 390Q230 392 249 394.50Q268 397 287 397L287 397L388 397L388 371L269 371L225 387Q222 368 216 354Q210 340 206 331L206 331Q201 305 171 296L171 296L222 265L244 280L363 280Q348 268 322.50 257.50Q297 247 262 233L262 233Q229 221 191.50 212Q154 203 112 199L112 199L115 183Q184 193 235.50 203Q287 213 322 224L322 224Q393 250 419 280L419 280L585 280Q585 273 582 256Q579 239 579 218ZM269 0L269 0L325 10L325 16L723 16L723 7L773 16L773 177L799 196L742 227L720 205L328 205L269 218Q273 191 274 161Q275 131 275 99L275 99Q275 16 269 0ZM325 155L325 180L723 180L723 155L325 155ZM325 99L325 127L723 127L723 99L325 99ZM325 42L325 70L723 70L723 42L325 42ZM400 20L400 20L451-19Q436-23 408-29Q380-35 341-47L341-47Q299-53 243-64.50Q187-76 112-88L112-88L109-72Q194-59 284-28L284-28Q366 1 400 20ZM626 7L629 16Q703 6 754.50-2.50Q806-11 836-19L836-19Q885-37 880-69L880-69Q866-96 827-72L827-72Q806-57 755-38Q704-19 626 7L626 7Z"/></svg>