<svg id="U2992E" viewBox="0 0 1024 1024"><path transform="translate(0, 921.6) scale(1,-1)" d="M163 285L104 270Q109 337 110 401.50Q111 466 111 527L111 527Q111 593 110 657.50Q109 722 104 789L104 789L163 754L379 754L421 796L473 725L314 725L314 615L360 615L402 653L450 586L314 586L314 479L357 479L395 515L444 450L314 450L314 337L395 340L424 376L479 321L450 302Q426 46 417 4L417 4Q407-33 382-60L382-60Q366-85 318-95L318-95Q318-49 220-27L220-27L224-11Q271-16 298-18Q325-20 333-18L333-18Q353-14 372 30L372 30Q388 89 399 317L399 317L163 305L163 285ZM263 725L163 725L163 615L263 615L263 725ZM263 586L163 586L163 479L263 479L263 586ZM263 450L163 450L163 331L263 337L263 450ZM94 208L94 208L111 208Q118 169 119 139.50Q120 110 118 92L118 92Q115 74 108 63Q101 52 94 43L94 43Q75 32 62 43L62 43Q43 56 72 88L72 88Q94 142 94 208ZM140 218L140 218L156 221Q195 170 202 146L202 146Q217 114 204 88L204 88Q200 62 179 62L179 62Q158 56 163 104L163 104Q166 148 140 218ZM211 230L211 230L217 240Q255 211 275.50 188Q296 165 301 156L301 156Q316 126 301 107L301 107Q293 95 276 88L276 88Q260 88 256 124L256 124Q254 138 242.50 164Q231 190 211 230ZM286 260L286 260L298 266Q344 227 363 191L363 191Q380 164 375 146L375 146Q371 133 353 120L353 120Q334 116 330 146L330 146Q326 167 314.50 195.50Q303 224 286 260ZM861 557L883 557L928 599L980 527L540 527Q518 532 500 528.50Q482 525 463 521L463 521L434 557L582 557L602 667Q551 667 518 657L518 657L479 695L609 695Q613 723 616.50 752.50Q620 782 621 815L621 815L693 776L669 757L657 695L802 695L834 734L890 683L861 663L861 557ZM631 557L809 557L809 667L654 667L631 557ZM518 198L518 198L479 185L456 224L676 224L676 324L579 324L579 312L525 295Q525 318 528 341.50Q531 365 531 383L531 383Q531 399 528 430Q525 461 525 505L525 505L576 476L819 476L854 505L900 457L876 440Q876 408 876.50 377.50Q877 347 880 317L880 317L822 295L822 324L728 324L728 224L831 224L876 270L932 198L728 198L728 88L867 88L913 130L970 62L728 62L728-26Q728-63 731-82L731-82L673-108Q673-40 674.50 2.50Q676 45 676 62L676 62L521 62L498 46L456 92Q488 104 518 198ZM579 350L822 350L822 447L579 447L579 350ZM525 198L589 166L560 156L531 88L676 88L676 198L525 198Z"/></svg>