<svg id="U291D4" viewBox="0 0 1024 1024"><path transform="translate(0, 921.6) scale(1,-1)" d="M268 590L268 590L322 608Q318 617 318 696L318 696L441 696L423 681L431 678Q452 689 472 696L472 696Q481 700 513 706L513 706L472 750L441 722L318 722L318 753L479 753L423 798L394 778L130 778L168 744Q183 748 201 749Q219 750 240 753L240 753L274 753L274 722L142 722L142 741L130 741Q125 705 94 693L94 693Q66 680 84 665L84 665Q108 653 123 672L123 672Q136 682 142 696L142 696L274 696Q274 673 273 647.50Q272 622 268 590ZM230 672L139 672L139 644L230 644L230 672ZM230 624L139 624L139 599L230 599L230 624ZM444 672L346 672L346 644L444 644L444 672ZM444 624L346 624L346 599L444 599L444 624ZM362 567L127 567L164 536Q180 538 197.50 540Q215 542 236 542L236 542L438 542L394 590L362 567ZM410 420L410 420L161 420Q202 437 236.50 448Q271 459 300 464L300 464L268 485L501 485L441 536L400 511L75 511L109 479Q124 481 144 483Q164 485 183 485L183 485L243 485Q231 476 214.50 468Q198 460 180 451L180 451Q157 440 138.50 433.50Q120 427 106 423L106 423L130 376Q161 385 199 385L199 385Q216 385 269.50 389.50Q323 394 416 404L416 404Q419 395 424 388.50Q429 382 431 376L431 376Q438 362 461 385L461 385Q479 403 454 426L454 426Q439 438 414.50 449.50Q390 461 362 473L362 473L353 467Q369 455 383.50 442Q398 429 410 420ZM706 590L706 590L763 608Q760 618 760 696L760 696L883 696L866 681L876 678Q883 683 891.50 687Q900 691 907 696L907 696Q916 699 927 701Q938 703 948 706L948 706L907 750L883 722L760 722L760 753L917 753L866 798L829 778L570 778L605 744Q621 748 638.50 749Q656 750 678 753L678 753L709 753L709 722L586 722L586 741L570 741Q557 701 530 693L530 693Q502 680 517 665L517 665Q545 655 557 672L557 672Q569 676 575 683.50Q581 691 586 696L586 696L709 696Q709 673 707.50 647.50Q706 622 706 590ZM672 672L580 672L580 644L672 644L672 672ZM672 624L580 624L580 599L672 599L672 624ZM886 672L788 672L788 644L886 644L886 672ZM886 624L788 624L788 599L886 599L886 624ZM801 567L567 567L598 536Q617 538 635 540Q653 542 675 542L675 542L879 542L829 590L801 567ZM847 420L847 420L608 420Q653 437 685.50 448Q718 459 740 464L740 464L696 485L939 485L883 536L839 511L511 511L545 479Q561 481 579.50 483Q598 485 618 485L618 485L683 485Q672 476 655 468Q638 460 618 451L618 451Q598 441 578 434Q558 427 539 423L539 423L570 376Q603 385 637 385L637 385Q657 385 710.50 390Q764 395 860 404L860 404Q863 390 870 376L870 376Q879 366 898 385L898 385Q912 402 895 426L895 426Q863 450 801 473L801 473L791 467Q805 455 819 442Q833 429 847 420ZM268 152L268 152L322 168Q318 173 318 256L318 256L441 256L423 237L431 233Q440 238 450.50 244Q461 250 472 256L472 256Q483 267 513 271L513 271L472 310L441 284L318 284L318 313L479 313L423 356L394 341L130 341L168 307Q183 309 201 311Q219 313 240 313L240 313L274 313L274 284L142 284L142 297L130 297Q126 276 94 253L94 253Q69 235 84 228L84 228Q106 222 123 230L123 230Q138 245 142 256L142 256L274 256Q274 236 273 210.50Q272 185 268 152ZM230 233L139 233L139 209L230 209L230 233ZM230 181L139 181L139 155L230 155L230 181ZM444 233L346 233L346 209L444 209L444 233ZM444 181L346 181L346 155L444 155L444 181ZM362 130L127 130L164 95Q184 99 201.50 100.50Q219 102 236 102L236 102L438 102L394 152L362 130ZM410-20L410-20L171-20Q213-5 246.50 5Q280 15 300 20L300 20L274 42L501 42L441 95L400 70L75 70L109 35Q124 37 144 39.50Q164 42 183 42L183 42L243 42Q229 33 213.50 24Q198 15 180 7L180 7Q158 0 139.50-7Q121-14 106-17L106-17L130-63Q145-61 163-59Q181-57 199-54L199-54Q218-51 271.50-46.50Q325-42 416-35L416-35Q419-39 424-46Q429-53 431-61L431-61Q435-77 461-54L461-54Q485-28 454-13L454-13Q439-1 414.50 10Q390 21 362 32L362 32L353 22Q384 8 410-20ZM706 152L706 152L763 168Q760 174 760 256L760 256L883 256L866 237L876 233Q883 238 891.50 244Q900 250 907 256L907 256Q916 263 927 266Q938 269 948 271L948 271L907 310L883 284L760 284L760 313L917 313L866 356L829 341L570 341L605 307Q621 309 638.50 311Q656 313 678 313L678 313L709 313L709 284L586 284L586 297L570 297Q563 283 553 272Q543 261 530 253L530 253Q504 235 517 228L517 228Q545 222 557 230L557 230Q575 238 586 256L586 256L709 256Q709 236 707.50 210.50Q706 185 706 152ZM672 233L580 233L580 209L672 209L672 233ZM672 181L580 181L580 155L672 155L672 181ZM886 233L788 233L788 209L886 209L886 233ZM886 181L788 181L788 155L886 155L886 181ZM801 130L567 130L598 95Q617 98 635 100Q653 102 675 102L675 102L879 102L829 152L801 130ZM842-20L842-20L605-20Q647-5 678.50 5Q710 15 731 20L731 20L706 42L935 42L876 95L832 70L508 70L539 35Q555 37 574 39.50Q593 42 614 42L614 42L675 42Q665 34 647.50 25Q630 16 611 7L611 7Q588 0 570-7Q552-14 536-17L536-17L561-63Q601-59 631-54L631-54Q648-51 702.50-46.50Q757-42 847-35L847-35Q852-40 857.50-46.50Q863-53 870-63L870-63Q878-81 901-58L901-58Q924-32 895-17L895-17Q876-5 852.50 6.50Q829 18 794 32L794 32L785 22Q815 8 842-20Z"/></svg>