<svg id="U2980A" viewBox="0 0 1024 1024"><path transform="translate(0, 921.6) scale(1,-1)" d="M360 188L216 72L216 393L254 426L161 474Q163 447 165.50 385.50Q168 324 168 233L168 233L164 82Q164 40 148 24L148 24L196-26Q211-8 254.50 41.50Q298 91 373 172L373 172L360 188ZM322 567L274 445L283 439Q309 477 329.50 503Q350 529 360 541L360 541Q376 549 391 555.50Q406 562 421 567L421 567L354 637L322 592L177 592Q189 625 203 660Q217 695 232 737L232 737L267 763L177 808Q172 758 132 605L132 605Q88 459 20 352L20 352L33 345Q75 390 109.50 447Q144 504 171 567L171 567L322 567ZM450 573L450 573L428 557L473 509L498 532L842 532L842 499L893 525Q890 556 890 596L890 596Q890 636 890 682L890 682L922 708L835 747Q835 713 838.50 666.50Q842 620 842 560L842 560L688 560L688 763L710 788L633 827Q633 779 634.50 713.50Q636 648 636 560L636 560L498 560L498 682L527 705L447 740Q447 711 448.50 669Q450 627 450 573ZM832-84L832-84Q890-56 890 5L890 5L890 265L922 284L867 336L842 304L614 304L688 413L944 413L874 483L832 442L392 442L431 406Q450 410 469 411.50Q488 413 508 413L508 413L627 413L591 304L495 304L437 333Q437 279 438.50 227Q440 175 440 127L440 127Q440 73 438.50 21.50Q437-30 437-90L437-90L492-55L492 275L575 275L575 133Q575 104 573.50 69.50Q572 35 572-8L572-8L627 24Q624 55 623.50 83.50Q623 112 623 133L623 133L623 275L707 275L707 156Q707 124 705.50 88.50Q704 53 704 11L704 11L758 37Q755 76 755 105L755 105Q755 134 755 156L755 156L755 275L842 275L842 24Q842-8 816-8L816-8Q806-6 787.50-3Q769 0 745 5L745 5L736-10Q832-39 832-84Z"/></svg>