<svg id="U29C2A" viewBox="0 0 1024 1024"><path transform="translate(0, 921.6) scale(1,-1)" d="M239 772L239 772L188 801L204 488L140 488L140 530L124 530Q115 496 103 471Q91 446 73 432L73 432Q48 396 64 389L64 389Q73 379 108 396L108 396Q140 413 140 460L140 460L871 460L827 389L846 386Q862 413 906 437L906 437Q923 449 935.50 455Q948 461 957 469L957 469L897 527L871 488L817 488L836 747L858 767L807 805L781 769L679 769L715 735Q746 744 788 744L788 744L781 677L689 677L718 645Q735 647 749.50 649Q764 651 781 651L781 651L776 585L689 585L727 549Q736 551 748.50 553.50Q761 556 776 556L776 556L772 488L248 488L245 556L354 556L306 613L274 585L245 585L243 651L347 651L303 706L268 677L243 677L239 760Q290 767 322 772.50Q354 778 367 782L367 782L322 827Q290 791 239 772ZM485 380L485 380L437 418Q425 398 408 378.50Q391 359 373 338L373 338Q348 350 319 366Q290 382 255 399L255 399L245 389Q271 372 294.50 351.50Q318 331 345 313L345 313Q327 290 296.50 266.50Q266 243 223 214L223 214L229 202Q247 208 266 217.50Q285 227 306 239L306 239Q327 254 344.50 265Q362 276 376 287L376 287Q399 266 414.50 248.50Q430 231 440 217L440 217Q463 190 475 214L475 214Q488 236 472 262L472 262Q460 274 444 286.50Q428 299 405 316L405 316Q417 328 427 336.50Q437 345 447 355L447 355Q455 359 465 367Q475 375 485 380ZM306 450L303 440Q315 431 323 417Q331 403 341 386L341 386Q358 352 376 377L376 377Q390 399 373 415L373 415Q357 430 306 450L306 450ZM341 259L347 268Q384 253 402 233L402 233Q419 216 402 198L402 198Q394 187 385.50 189Q377 191 373 202L373 202Q367 217 358.50 231Q350 245 341 259L341 259ZM223 352L217 342Q239 320 255 287L255 287Q268 250 287 278L287 278Q305 304 280 323L280 323Q266 332 252 338Q238 344 223 352L223 352ZM459 342L453 335Q467 320 477 305Q487 290 495 275L495 275Q510 249 520 278L520 278Q540 305 514 316L514 316Q496 331 459 342L459 342ZM539 409L539 192L207 192L207 367L236 389L159 412L159 205L130 188L178 150L207 163L539 163L539 150L590 163L590 355L619 380L539 409ZM421 77L223 77L223 103L255 132L168 154L175 74L175-1Q175-27 156-33L156-33L192-84Q212-74 243-62.50Q274-51 316-43L316-43Q359-35 416-22Q473-9 551 5L551 5L546 19L223-21L223 52L520 52L463 112L421 77ZM839 358L788 406Q731 333 609 253L609 253L619 236Q653 253 686.50 271Q720 289 752 310L752 310Q781 327 803 340Q825 353 839 358L839 358ZM909 239L852 291Q817 249 753.50 203.50Q690 158 599 106L599 106L616 96Q658 113 697.50 133.50Q737 154 776 179L776 179Q818 202 850.50 218Q883 234 909 239L909 239ZM948 112L894 163Q843 112 764 61.50Q685 11 577-33L577-33L577-52Q639-29 696.50-8.50Q754 12 807 38L807 38Q855 67 889.50 84Q924 101 948 112L948 112ZM504 786L504 786L440 815Q437 800 430.50 783.50Q424 767 418 750L418 750Q408 733 394.50 717Q381 701 367 684L367 684L376 674Q407 687 453 728L453 728L491 728L491 667L357 667L393 632Q410 635 428.50 638Q447 641 472 641L472 641L491 641L491 549L427 549L427 590L453 607L383 626L383 552L360 534L405 505L427 524L597 524L597 508L641 527L641 590L674 604L597 626L597 549L536 549L536 641L674 641L619 692L584 667L536 667L536 728L654 728L599 782L571 754L466 754Q481 774 504 786Z"/></svg>