<svg id="U29C24" viewBox="0 0 1024 1024"><path transform="translate(0, 921.6) scale(1,-1)" d="M548 736L548 502L525 493L564 454L603 473L959 473L908 528L865 502L600 502L600 561L804 561L804 535L862 548Q859 579 859 605L859 605Q859 631 859 651L859 651L882 674L830 710L801 687L600 687L600 742L943 742L882 801L840 768L616 768L545 794L548 736ZM600 661L804 661L804 587L600 587L600 661ZM185 613L266 613Q242 516 72 447L72 447L78 431Q260 481 308 574L308 574Q375 536 415 493L415 493Q460 447 470 493L470 493Q486 545 311 590L311 590Q316 594 317 600.50Q318 607 321 613L321 613L522 613L460 671L415 642L324 642Q327 671 327.50 688Q328 705 328 713L328 713L499 713L431 775L396 742L211 742L240 771L269 787L198 823Q170 733 98 661L98 661L107 651Q134 666 157 680.50Q180 695 198 713L198 713L276 713Q276 698 275 680.50Q274 663 269 642L269 642L65 642L104 606Q121 608 142 610.50Q163 613 185 613L185 613ZM840 386L840 386L869 409L781 434Q781 415 782.50 360Q784 305 784 214L784 214L224 214L224 395L247 422L162 441Q165 417 165.50 361.50Q166 306 166 221L166 221L146 204L198 172L227 188L784 188L784 169L843 185Q840 201 840 386ZM305 422L302 405Q345 390 389.50 373.50Q434 357 483 341L483 341Q390 279 243 234L243 234L247 221Q410 256 522 321L522 321Q627 276 665 243L665 243Q693 214 703 224L703 224Q717 237 710 256L710 256Q710 281 684 292L684 292Q672 299 640.50 312.50Q609 326 558 344L558 344Q591 363 622 382Q653 401 678 422L678 422L710 425L642 470Q629 455 613.50 440Q598 425 580 409L580 409Q535 374 516 363L516 363Q450 380 397.50 394.50Q345 409 305 422L305 422ZM441 464L431 454Q472 421 487 402L487 402Q502 369 516 383L516 383Q525 392 525 409L525 409Q529 425 506 441L506 441Q498 445 480 450.50Q462 456 441 464L441 464ZM286 373L279 366Q294 351 303.50 337Q313 323 321 311L321 311Q328 286 347 292L347 292Q363 304 363 321L363 321Q368 327 357 344L357 344Q349 348 331.50 354.50Q314 361 286 373L286 373ZM635 373L629 366Q665 341 691 311L691 311Q708 282 723 295L723 295Q727 304 733 310Q739 316 739 324L739 324Q739 337 720 350L720 350Q707 355 687 361Q667 367 635 373L635 373ZM460 289L451 276Q486 252 499 230L499 230Q515 202 529 214L529 214Q544 222 548 237L548 237Q548 262 535 266L535 266Q525 270 507 276.50Q489 283 460 289L460 289ZM247 52L247 52L247 120L276 143L188 169Q190 144 190.50 119Q191 94 191 65L191 65L191-4Q191-72 269-72L269-72L791-72Q849-72 882-30L882-30Q836-11 836 88L836 88L817 88Q817-33 781-33L781-33L282-33Q247-33 247 5L247 5L247 33Q415 45 551 56Q687 67 784 75L784 75L723 143Q681 120 563 97Q445 74 247 52Z"/></svg>