<svg id="U297EF" viewBox="0 0 1024 1024"><path transform="translate(0, 921.6) scale(1,-1)" d="M298 791L298 791L239 836Q239 803 174 671L174 671Q142 607 108 552.50Q74 498 35 453L35 453L41 437Q108 503 161.50 574.50Q215 646 255 726L255 726Q325 660 353 612L353 612Q384 546 392 606L392 606Q402 657 366 677L366 677Q343 689 316.50 705.50Q290 722 259 742L259 742Q279 784 298 791ZM213 625L213 625L200 616Q222 582 234.50 556.50Q247 531 249 512L249 512Q259 460 278 496L278 496Q302 524 288 547L288 547Q277 565 213 625ZM375 343L375 424L398 450L353 502L327 470L168 470L113 496Q115 461 115.50 423Q116 385 116 337L116 337L116 44Q116 18 96-7L96-7L132-68Q143-32 311 74L311 74Q315 59 321 44Q327 29 330 12L330 12Q332-3 340-3L340-3Q348-3 356 12L356 12Q378 45 356 87L356 87Q349 104 325 130Q301 156 259 191L259 191L255 187Q272 154 283 130.50Q294 107 301 93L301 93Q266 73 233 56Q200 39 168 25L168 25L168 204L327 204L327 174L379 197Q376 226 375.50 262Q375 298 375 343L375 343ZM168 349L168 444L327 444L327 349L168 349ZM168 230L168 324L327 324L327 230L168 230ZM531 2L531 90L671 90L671 2L531 2ZM473 693L473 723L460 723Q448 657 421 635L421 635Q391 607 411 593L411 593Q429 579 450 596L450 596Q473 614 473 668L473 668L651 668Q651 626 649.50 583.50Q648 541 648 496L648 496L706 522Q701 538 700.50 573Q700 608 700 668L700 668L891 668L856 590L862 583Q886 617 914 635L914 635Q943 653 969 658L969 658L927 723L895 693L700 693L700 771L875 771L820 836L774 797L492 797L531 762Q548 764 566 766Q584 768 606 771L606 771L651 771L651 693L473 693ZM612 602L502 602L502 573L612 573L612 602ZM839 602L732 602L732 573L839 573L839 602ZM839 512L732 512L732 486L839 486L839 512ZM599 450L599 450L547 486L612 486L612 512L492 512L492 486L538 486Q523 414 476 330L476 330Q456 288 428.50 251.50Q401 215 372 184L372 184L375 171Q407 195 433 218Q459 241 479 265L479 265L479 9Q479-10 477.50-35.50Q476-61 476-91L476-91L531-68L531-26L960-26L908 44L859 2L719 2L719 90L917 90L869 155L813 116L719 116L719 213L927 213L872 285L826 242L719 242L719 330L930 330L875 405L826 356L706 356Q744 394 719 427L719 427Q703 444 687.50 458Q672 472 658 483L658 483L651 473Q658 455 666 438.50Q674 422 677 408L677 408Q684 393 687 380.50Q690 368 693 356L693 356L541 356Q550 375 559 387Q568 399 573 411L573 411Q578 420 584.50 429Q591 438 599 450ZM531 242L531 330L671 330L671 242L531 242ZM531 116L531 213L671 213L671 116L531 116Z"/></svg>