<svg id="U29257" viewBox="0 0 1024 1024"><path transform="translate(0, 921.6) scale(1,-1)" d="M320 709L320 709L484 709L433 781L389 733L67 733L101 696Q134 703 176 709L176 709L254 709Q247 688 237 653Q227 618 213 573L213 573L147 573L101 611Q104 550 104 471L104 471Q104 393 104 303L104 303Q104 212 104 125L104 125Q104 39 101-42L101-42L147-11L147 22L399 22L399-11L440 13L440 545L465 570L418 611L395 573L232 573Q264 633 286 668Q308 703 320 709ZM147 47L147 548L200 548L200 47L147 47ZM343 47L343 548L399 548L399 47L343 47ZM241 409L241 548L298 548L298 409L241 409ZM241 236L241 381L298 381L298 236L241 236ZM241 47L241 208L298 208L298 47L241 47ZM682 607L682 740L711 762L663 807L638 769L547 769L497 803Q497 755 500 707Q503 659 503 611L503 611Q503 563 500 515Q497 467 497 422L497 422L547 447L547 479L641 479L641 450L685 476Q682 508 682 541L682 541Q682 574 682 607L682 607ZM547 684L547 743L641 743L641 684L547 684ZM547 592L547 655L641 655L641 592L547 592ZM547 507L547 566L641 566L641 507L547 507ZM537-80L537-80L588-55L588 3L956 3L893 69L855 28L761 28L761 116L925 116L871 180L834 142L761 142L761 218L937 218L881 286L840 242L761 242L761 324L953 324L893 394L855 353L767 353Q791 371 777 403L777 403Q757 427 698 460L698 460L688 450Q738 396 742 353L742 353L582 353Q588 361 599 378.50Q610 396 623 416L623 416L651 428L588 473Q575 437 558 403Q541 369 521 337L521 337Q501 302 480 273Q459 244 436 221L436 221L440 208Q494 239 544 299L544 299L544 60Q544 24 540.50-9Q537-42 537-80ZM588 242L588 324L717 324L717 242L588 242ZM588 142L588 218L717 218L717 142L588 142ZM588 28L588 116L717 116L717 28L588 28ZM919 733L919 733L944 759L896 803L871 766L786 766L745 790Q745 771 747 727Q749 683 749 611L749 611Q749 539 747 496.50Q745 454 745 438L745 438L786 460L786 476L875 476L875 447L922 469Q919 504 919 571L919 571Q919 639 919 733ZM786 681L786 740L875 740L875 681L786 681ZM786 589L786 652L875 652L875 589L786 589ZM786 501L786 563L875 563L875 501L786 501Z"/></svg>