<svg id="U29A4B" viewBox="0 0 1024 1024"><path transform="translate(0, 921.6) scale(1,-1)" d="M528 713L496 752L834 752L884 800L942 726L630 726Q558 726 528 713L528 713ZM708 700L708 700L769 645Q734 621 711 588L711 588Q696 570 682.50 549.50Q669 529 656 511L656 511Q746 436 750 408L750 408Q757 379 753 354L753 354Q741 328 734 328L734 328Q719 320 705 373L705 373Q695 397 677 430Q659 463 630 511L630 511Q638 527 649 548Q660 569 673 595L673 595Q684 619 692 645Q700 671 708 700ZM534 252L500 287L823 287L875 331L929 258L734 258L734-36L855-36L907 7L952-62L567-62Q543-64 524.50-67.50Q506-71 493-75L493-75L457-36L685-36L685 258L609 258Q587 258 569 256Q551 254 534 252L534 252ZM580 700L580 700L641 645Q621 631 605 617Q589 603 577 588L577 588Q561 570 549 549.50Q537 529 528 511L528 511Q608 437 618 411L618 411Q631 375 621 350L621 350Q617 323 598 328L598 328Q585 328 570 386L570 386Q545 444 500 511L500 511Q509 527 520 548Q531 569 541 595L541 595Q555 624 564 650Q573 676 580 700ZM852 703L852 703L913 645Q876 626 852 588L852 588Q838 568 826 547.50Q814 527 805 511L805 511Q822 499 838 485.50Q854 472 869 457L869 457Q891 422 891 392L891 392Q891 358 875 347L875 347Q862 330 846 386L846 386Q836 409 819.50 440Q803 471 779 511L779 511Q789 528 798.50 549Q808 570 817 595L817 595Q831 623 839 650Q847 677 852 703ZM365 745L191 745L191 507L252 507Q252 558 251 603Q250 648 246 688L246 688L298 653L384 653L384 627L298 627L298 507L365 507L365 745ZM419 405L410 408L439 478L105 478Q100 421 86 405L86 405Q71 383 57 389L57 389Q44 389 44 411L44 411Q40 428 60 454L60 454Q77 474 92 562L92 562L102 562L105 507L140 507L140 645Q140 689 139.50 728.50Q139 768 137 806L137 806L185 771L361 771L393 806L439 752L413 732L413 507L442 507L468 530L509 478Q468 468 419 405L419 405ZM246-36L246-18Q303-27 332-27L332-27Q358-23 358 7L358 7L358 367L185 367L185 152Q183 100 175 59Q167 18 153-13L153-13Q119-74 66-111L66-111L60-107Q108-37 118 7L118 7Q133 59 133 94L133 94Q136 110 136.50 149.50Q137 189 137 252L137 252Q137 311 136.50 351.50Q136 392 133 414L133 414L185 392L361 392L384 418L428 370L404 347L404-8Q404-51 393-65L393-65Q387-86 339-107L339-107Q339-56 246-36L246-36ZM217 309L220 325Q252 305 269 294.50Q286 284 294 276L294 276Q310 266 310 247L310 247Q310 219 284 206L284 206Q277 193 269 198.50Q261 204 259 229L259 229Q256 246 245.50 265Q235 284 217 309L217 309ZM246 52L201 74Q232 100 266.50 129.50Q301 159 332 194L332 194L342 190Q320 158 305 134.50Q290 111 278 97L278 97Q248 56 246 52L246 52Z"/></svg>