<svg id="U293C5" viewBox="0 0 1024 1024"><path transform="translate(0, 921.6) scale(1,-1)" d="M429 672L382 720L350 685L243 685L253 741L274 761L212 802L196 685L97 685L127 653Q136 655 150 657.50Q164 660 183 660L183 660L192 660L177 563L68 563L100 527Q117 529 134 533Q151 537 171 537L171 537L485 537L441 603L403 563L391 563L400 653L429 672ZM356 660L346 563L224 563L240 660L356 660ZM303 99L303 99L479 99L429 162L397 128L303 128L303 226L472 226L420 291L382 250L303 250L303 332L366 332L366 313L416 335Q410 351 410 442L410 442L438 458L388 506L359 471L183 471L127 502Q129 474 129.50 448Q130 422 130 401L130 401Q130 375 129.50 351Q129 327 127 307L127 307L174 329L174 332L253 332L253 250L78 250L112 216Q127 218 144.50 222Q162 226 183 226L183 226L253 226L253 128L145 128L158 168L183 178L127 216L112 159Q110 145 102.50 136.50Q95 128 88 121L88 121L127 80L145 99L253 99Q253 48 252.50 7.50Q252-33 249-75L249-75L305-50Q303-12 303 23L303 23Q303 59 303 99ZM174 445L366 445L366 360L174 360L174 445ZM472 720L472 720L472 704Q551 710 617 715.50Q683 721 731 726L731 726Q782 732 821.50 737Q861 742 895 745L895 745L847 802Q824 787 790.50 778.50Q757 770 712 758L712 758Q667 745 607 737Q547 729 472 720ZM489 679L489 679L482 672Q519 610 523 568L523 568Q538 522 552 530L552 530Q562 543 570 565L570 565Q576 591 557 615L557 615Q548 624 531 639.50Q514 655 489 679ZM624 694L624 694L618 685Q655 619 659 584L659 584Q673 538 687 546L687 546Q691 553 696.50 559.50Q702 566 709 578L709 578Q715 597 700 619L700 619Q690 642 624 694ZM678 483L678 483L924 483L863 546L826 509L769 509Q785 536 800.50 560Q816 584 832 606L832 606Q869 660 886 666L886 666L816 710Q802 636 750 509L750 509L482 509L517 477Q554 483 590 483L590 483L624 483Q621 464 619 443Q617 422 614 401L614 401L441 401L476 367Q492 369 509 371Q526 373 545 373L545 373L611 373Q599 319 577 266.50Q555 214 526 162L526 162Q495 108 452.50 56Q410 4 356-44L356-44L362-57Q410-25 451 11.50Q492 48 523 93L523 93Q558 135 580.50 173.50Q603 212 621 254L621 254Q635 208 655 168Q675 128 696 96L696 96Q614 2 482-60L482-60L485-72Q522-59 555-45Q588-31 618-16L618-16Q643-1 669 18Q695 37 721 59L721 59Q793-11 886-57L886-57Q894-25 952-13L952-13L952 2Q833 15 757 93L757 93Q780 123 797 152Q814 181 829 209L829 209Q854 258 883 275L883 275L829 329L804 294L637 294Q641 309 647 329.50Q653 350 659 373L659 373L955 373L895 439L857 401L662 401Q666 422 669.50 443Q673 464 678 483ZM634 270L634 270L804 270Q784 231 764.50 195.50Q745 160 721 128L721 128Q701 151 675 190L675 190Q665 209 655 227Q645 245 634 270Z"/></svg>