<svg id="U29387" viewBox="0 0 1024 1024"><path transform="translate(0, 921.6) scale(1,-1)" d="M145 679L145 679L55 679L90 644Q99 653 145 653L145 653Q145 620 144.50 585Q144 550 141 515L141 515L192 534L192 540L226 540L226 442L151 442L96 474Q101 445 101.50 413.50Q102 382 102 342L102 342Q102 300 101.50 270Q101 240 96 222L96 222L148 241L148 266L226 266L226 156L65 156L96 118Q116 122 134.50 125.50Q153 129 170 131L170 131L226 131Q226 68 225.50 15.50Q225-37 223-85L223-85L277-62Q272-36 271.50 11Q271 58 271 131L271 131L431 131L375 193L336 156L271 156L271 266L346 266L346 241L397 263Q394 295 393.50 332.50Q393 370 393 408L393 408L413 437L369 477L346 442L271 442L271 540L302 540L302 518L356 537Q353 564 352.50 594Q352 624 352 653L352 653L434 653L384 720L356 679L352 679L352 758L375 789L299 811Q301 782 301.50 749Q302 716 302 679L302 679L192 679L192 754L217 786L141 811Q144 779 144.50 746.50Q145 714 145 679ZM192 565L192 653L302 653L302 565L192 565ZM148 291L148 417L226 417L226 291L148 291ZM271 291L271 417L346 417L346 291L271 291ZM557 761L485 776Q485 757 488 740Q491 723 491 707L491 707L469 688L523 656L542 676L673 676L673 584L520 584L520 619L542 638L469 653Q471 637 471.50 619.50Q472 602 472 581L472 581L454 565L503 537L529 559L869 559L869 540L922 559Q920 570 920 584L920 584Q920 598 920 612L920 612L938 632L866 644Q866 627 867.50 612.50Q869 598 869 584L869 584L724 584L724 676L860 676L860 656L907 669Q904 686 904 702L904 702Q904 718 904 732L904 732L929 751L853 767Q853 745 856.50 730Q860 715 860 701L860 701L724 701L724 761L750 789L670 808Q670 786 671.50 769Q673 752 673 735L673 735L673 701L535 701L535 738L557 761ZM516 448L601 448L601 396L516 396L516 448ZM516 307L516 367L601 367L601 307L516 307ZM645 367L727 367L727 307L645 307L645 367ZM645 448L727 448L727 396L645 396L645 448ZM768 367L850 367L850 307L768 307L768 367ZM668 115L658 111Q674 86 682.50 66Q691 46 693 30L693 30Q698-22 730 26L730 26Q762 58 668 115L668 115ZM753 118L753 118L747 111Q780 66 784 33L784 33Q795-7 819 36L819 36Q838 76 753 118ZM608 105L598 99Q611 51 611 11L611 11Q611-25 639 2L639 2Q674 28 608 105L608 105ZM557 99L547 99Q519 31 485 14L485 14Q462-1 485-16L485-16Q517-23 539 0L539 0Q557 19 557 99L557 99ZM702 477L702 477L523 477L469 502Q471 396 468 312.50Q465 229 454 172L454 172Q433 51 362-69L362-69L375-78Q498 55 513 282L513 282L576 282L576 165L554 137L601 108L621 131L878 131Q839-13 819-21L819-21Q786-27 696-9L696-9L696-25Q780-49 784-85L784-85Q837-81 866-44L866-44Q894-5 925 124L925 124L948 146L901 188L878 156L621 156L621 193L920 193L866 254L829 222L621 222L621 260L645 270L608 282L850 282L850 266L897 282L897 367L922 386L869 424L847 396L768 396L768 448L948 448L891 512L853 477L730 477Q775 526 649 559L649 559L645 546Q688 507 702 477Z"/></svg>