<svg id="U292D1" viewBox="0 0 1024 1024"><path transform="translate(0, 921.6) scale(1,-1)" d="M168 677L168 677L68 677L97 643Q111 645 129.50 648.50Q148 652 168 652L168 652Q168 618 167.50 582Q167 546 164 504L164 504L212 522L212 538L256 538L256 444L164 444L109 473Q112 446 112 411L112 411Q112 377 112 337L112 337Q112 302 112 272L112 272Q112 243 109 227L109 227L161 239L161 268L256 268L256 157L65 157L97 123Q131 132 168 132L168 132L256 132Q256 72 255 20Q254-32 249-80L249-80L303-55Q300-31 300 15L300 15Q300 62 300 132L300 132L479 132L423 205L385 157L300 157L300 268L391 268L391 239L438 265Q435 297 435 331L435 331Q435 365 435 403L435 403L461 425L416 479L391 444L300 444L300 538L338 538L338 517L385 535Q382 565 382 594L382 594Q382 623 382 652L382 652L479 652L423 718L391 677L382 677L382 753L403 774L335 800Q337 776 337.50 744Q338 712 338 677L338 677L212 677L212 753L230 771L164 803Q167 771 167.50 740.50Q168 710 168 677ZM212 566L212 652L338 652L338 566L212 566ZM161 293L161 413L256 413L256 293L161 293ZM300 293L300 413L391 413L391 293L300 293ZM706 365L731 391L652 422Q652 393 653.50 360.50Q655 328 655 293L655 293L451 293L482 258Q516 268 555 268L555 268L655 268L655 79Q655 33 653.50-7.50Q652-48 652-83L652-83L709-64Q706-26 706 16L706 16Q706 58 706 107L706 107L706 268L948 268L886 340L845 293L706 293L706 365ZM577 652L935 652L870 722L829 677L472 677L508 643Q524 645 540.50 648.50Q557 652 577 652L577 652ZM631 658L631 658Q616 625 600 591Q584 557 567 529L567 529Q523 467 495 460L495 460L523 391Q559 411 822 450L822 450Q827 431 830 416.50Q833 402 839 394L839 394Q842 377 860 388L860 388Q868 394 879 422L879 422Q885 448 863 479L863 479Q851 495 826 518Q801 541 765 576L765 576L753 566Q769 538 783.50 515.50Q798 493 809 473L809 473Q724 467 660.50 463.50Q597 460 552 460L552 460Q572 479 604 515Q636 551 672 602L672 602L696 617L631 658ZM706 268L706 268L724 268Q827 61 958 31L958 31L958 16Q912 12 891-20L891-20Q769 46 706 268ZM668 283L639 283Q590 181 529.50 106.50Q469 32 400-20L400-20L407-33Q562 48 668 229L668 229L668 283ZM611 810L611 810L605 797Q626 768 642 746Q658 724 668 705L668 705Q680 662 696 687L696 687Q716 712 712 730L712 730Q712 749 693 762L693 762Q681 769 661 780.50Q641 792 611 810Z"/></svg>