<svg id="U29063" viewBox="0 0 1024 1024"><path transform="translate(0, 921.6) scale(1,-1)" d="M567 534L567 534Q567 289 565.50 138.50Q564-12 564-78L564-78L614-47L614 18L958 18L901 93L860 46L785 46L785 231L932 231L879 304L839 260L785 260L785 420L927 420L876 486L839 445L785 445L785 603L945 603L895 679L854 632L608 632Q620 661 630 689Q640 717 652 738L652 738L675 758L608 805Q598 754 586.50 705.50Q575 657 555 603L555 603Q520 492 485 437L485 437L495 427Q512 447 531 472.50Q550 498 567 534ZM614 603L737 603L737 445L614 445L614 603ZM614 260L614 420L737 420L737 260L614 260ZM614 46L614 231L737 231L737 46L614 46ZM719 805L709 795Q758 727 765 679L765 679Q775 631 798 672L798 672Q814 708 801 738L801 738Q789 750 769 766.50Q749 783 719 805L719 805ZM476 518L476 518L495 540L454 574L431 543L322 543L322 597L369 597L369 578L420 600Q416 617 416 685L416 685L526 685L470 738L431 710L423 710L416 710L416 748L448 770L369 805L369 710L227 710L227 751L256 770L171 805Q175 781 176 755.50Q177 730 177 710L177 710L65 710L100 676Q114 678 131.50 681.50Q149 685 171 685L171 685L177 685Q177 649 176 621Q175 593 171 574L171 574L227 594L227 597L277 597L277 543L164 543L117 563Q119 541 119.50 520Q120 499 120 480L120 480Q120 459 119.50 438.50Q119 418 117 401L117 401L164 417L164 424L431 424L431 408L479 433Q476 452 476 518ZM227 622L227 685L369 685L369 622L227 622ZM164 452L164 518L277 518L277 452L164 452ZM322 452L322 518L431 518L431 452L322 452ZM479 200L479 200Q457 211 430 222Q403 233 369 244L369 244L362 231Q397 208 422 184.50Q447 161 467 144L467 144Q502 97 508 137L508 137Q515 177 479 200ZM208 250L208 250L256 206L233 200Q195 176 156 156.50Q117 137 75 118L75 118L72 131Q170 193 208 250ZM429 149L394 115L322 115L322 137L344 162L277 185L277 115L112 115L145 83Q165 87 183.50 88.50Q202 90 221 90L221 90L277 90L277 11Q222 2 174-2Q126-6 84-9L84-9L123-69Q149-55 238.50-35Q328-15 485 14L485 14L476 33L322 14L322 90L476 90L429 149ZM476 342L476 342L495 367L448 398L429 367L322 367L322 437L277 437L277 367L164 367L117 386Q119 364 119.50 341.50Q120 319 120 301L120 301Q120 279 119.50 260Q119 241 117 226L117 226L164 241L164 247L277 247L277 190L322 200L322 247L431 247L431 231L479 247Q476 264 476 288L476 288Q476 313 476 342ZM164 272L164 342L277 342L277 272L164 272ZM322 272L322 342L431 342L431 272L322 272Z"/></svg>