<svg id="U2965C" viewBox="0 0 1024 1024"><path transform="translate(0, 921.6) scale(1,-1)" d="M66 546L66 546Q62 488 95 527L95 527Q123 559 66 648L66 648L56 645Q63 624 67 600Q71 576 66 546ZM233 631L233 631L197 664Q192 640 161 592L161 592Q163 631 163.50 669.50Q164 708 164 753L164 753L187 776L122 805Q124 657 120.50 561Q117 465 105 419L105 419Q90 330 43 268L43 268L53 261Q132 331 151 448L151 448Q158 421 163.50 399Q169 377 174 360L174 360Q178 320 197 356L197 356Q210 393 197 419L197 419Q187 428 178 441.50Q169 455 154 468L154 468Q157 492 157.50 515.50Q158 539 161 569L161 569Q193 601 233 631ZM226 586L213 622L295 622L322 645L354 592L259 592L226 586ZM213 284L213 284L253 297L253 324L305 324L305 297L344 320Q341 342 341 368L341 368Q341 395 341 425L341 425L361 442L322 481L302 451L253 451L213 484Q216 452 216.50 425.50Q217 399 217 379L217 379Q217 354 216.50 331Q216 308 213 284ZM256 510L354 510L322 566L289 540L207 540L233 504L256 510ZM299 740L299 740Q312 767 299 782L299 782Q291 787 277.50 796Q264 805 243 815L243 815L240 805Q259 776 276 740L276 740Q284 700 299 740ZM272 684L387 684L354 740L318 710L177 710L200 671Q225 684 272 684L272 684ZM358 648L348 645Q368 571 364 533L364 533Q364 488 397 517L397 517Q426 535 358 648L358 648ZM456 559L456 559Q505 623 531 628L531 628L495 681Q473 616 456 586L456 586Q456 644 457.50 686Q459 728 459 753L459 753L479 782L417 805Q419 687 417.50 601Q416 515 407 461L407 461Q397 342 335 274L335 274L338 261Q414 328 440 419L440 419Q452 394 462 367.50Q472 341 482 317L482 317Q500 264 515 317L515 317Q530 362 446 432L446 432Q448 474 452 504.50Q456 535 456 559ZM253 425L305 425L305 350L253 350L253 425ZM348 107L348 107Q368 136 386 163.50Q404 191 420 219L420 219L443 235L407 284L377 258L95 258L125 219Q155 228 200 228L200 228L374 228Q358 199 342 175Q326 151 309 133L309 133Q276 143 239 157Q202 171 154 189L154 189L151 179Q183 161 215 143Q247 125 282 104L282 104Q247 62 191.50 24Q136-14 63-56L63-56L66-69Q236-8 318 74L318 74Q340 54 361 32Q382 10 397-17L397-17Q425-68 436-24L436-24Q447 17 423 42L423 42Q407 64 348 107ZM410-108L410-108L417-121Q450-82 476.50-44.50Q503-7 518 35L518 35Q544 114 561 248L561 248Q568 314 569.50 436.50Q571 559 571 743L571 743L843 743Q840 543 842 405.50Q844 268 849 196L849 196Q856 121 864.50 70.50Q873 20 888-14L888-14Q912-72 947-98L947-98Q978-124 970-88L970-88Q967-70 967-53L967-53Q967-37 967-17L967-17Q967 4 969.50 33Q972 62 980 107L980 107L967 114L934-4Q924 17 915 47Q906 77 901 114L901 114Q894 148 890.50 194.50Q887 241 885 304L885 304Q880 427 885 727L885 727L911 746L869 802L843 769L577 769L528 802Q528 754 529 684Q530 614 528 520L528 520Q528 426 525.50 352.50Q523 279 518 225L518 225Q510 173 501.50 126.50Q493 80 479 38L479 38Q452-43 410-108ZM770 176L770 176L764 160Q768 145 775 124.50Q782 104 790 74L790 74L725 61L725 235L823 235L803 265L803 438L826 458L790 504L767 478L725 478L725 586L839 586L787 654L744 612L571 612L603 572L630 586L685 586L685 478L643 478L600 500Q600 458 601.50 423Q603 388 603 356L603 356Q603 319 601.50 281.50Q600 244 600 199L600 199L643 215L643 235L685 235L685 58Q619 38 577 38L577 38L603-34Q629-8 692 19L692 19Q721 33 746 41.50Q771 50 793 58L793 58Q797 47 800 32.50Q803 18 806-1L806-1Q812-36 833-4L833-4Q851 23 843 61L843 61Q835 78 817.50 107.50Q800 137 770 176ZM685 448L685 261L643 261L643 448L685 448ZM764 448L764 261L725 261L725 448L764 448Z"/></svg>