<svg id="U2922C" viewBox="0 0 1024 1024"><path transform="translate(0, 921.6) scale(1,-1)" d="M326 692L326 692L510 692L446 759L408 718L67 718L101 681Q118 685 137 686.50Q156 688 176 692L176 692L257 692Q254 671 245 638.50Q236 606 222 558L222 558L153 558L101 595Q104 528 104 449L104 449Q104 371 104 277L104 277Q104 184 104 97L104 97Q104 11 101-70L101-70L153-42L153-1L411-1L411-52L462-20Q457 56 456.50 111Q456 166 456 195L456 195L456 522L480 551L430 595L408 558L241 558Q311 679 326 692ZM153 22L153 529L204 529L204 22L153 22ZM354 22L354 529L411 529L411 22L354 22ZM251 388L251 529L310 529L310 388L251 388ZM251 211L251 362L310 362L310 211L251 211ZM251 22L251 183L310 183L310 22L251 22ZM588 334L588 460L802 460L802 334L588 334ZM588-1L588 145L840 145L840-1L588-1ZM541-86L541-86L588-67L588-29L840-29L840-74L890-52Q885-20 884.50 3Q884 26 884 41L884 41L884 139L909 164L858 208L837 173L588 173L588 309L802 309L802 274L852 293Q849 325 849 365L849 365Q849 405 849 450L849 450L875 473L824 514L802 485L591 485L541 520Q541 478 542.50 447Q544 416 544 391L544 391L544 54Q544 22 542.50-13Q541-48 541-86ZM875 646L837 548L849 542Q865 563 876.50 582.50Q888 602 899 611L899 611Q922 634 956 658L956 658L903 712L875 674L732 674Q751 708 742 740L742 740Q729 768 660 813L660 813L657 800Q698 729 698 674L698 674L554 674L554 712L541 712Q524 620 503 595L503 595Q477 561 487 548L487 548Q494 541 515 545L515 545Q535 545 547 570L547 570Q554 585 554 646L554 646L875 646Z"/></svg>