<svg id="U29B5" viewBox="0 0 1080 1000"><path transform="translate(0, 900) scale(1,-1)" d="M174 325L51 325L51 389L174 389Q180 459 211 520Q242 581 291.50 627Q341 673 404.50 698.50Q468 724 540 724L540 724Q612 724 675.50 698.50Q739 673 788.50 627Q838 581 869 520.50Q900 460 906 389L906 389L1029 389L1029 325L906 325Q899 255 868.50 194Q838 133 788 87Q738 41 674.50 15.50Q611-10 540-10L540-10Q468-10 404.50 15.50Q341 41 291.50 87Q242 133 211 193.50Q180 254 174 325L174 325ZM540 652L540 652Q464 652 400.50 617Q337 582 296 522.50Q255 463 247 389L247 389L833 389Q825 463 784 522.50Q743 582 679.50 617Q616 652 540 652ZM540 62L540 62Q616 62 679.50 97Q743 132 784 191.50Q825 251 833 325L833 325L247 325Q255 251 296 191.50Q337 132 400.50 97Q464 62 540 62Z"/></svg>