<svg id="U2915A" viewBox="0 0 1024 1024"><path transform="translate(0, 921.6) scale(1,-1)" d="M790 517L586 517L586 491L790 491L790 517ZM472 460L472 460L535 479Q528 495 527 537Q526 579 526 648L526 648L859 648L812 583L822 570Q901 647 954 661L954 661L888 712L853 674L526 674L526 746L859 746L790 810L733 771L170 771L208 740Q223 742 243 742.50Q263 743 286 746L286 746L478 746L478 674L170 674L170 712L151 712Q132 640 97 611L97 611Q58 576 77 566L77 566Q88 549 118 563L118 563Q146 573 154 589L154 589Q170 596 170 648L170 648L478 648Q478 575 477 527.50Q476 480 472 460ZM412 604L221 604L221 576L412 576L412 604ZM781 604L586 604L586 576L781 576L781 604ZM412 517L214 517L214 491L412 491L412 517ZM229 280L229 280L105 280L141 245Q160 248 179 251.50Q198 255 217 255L217 255L229 255L229 44Q186 27 156 19.50Q126 12 112 10L112 10L154-52Q186-20 412 85L412 85L409 101L286 54L286 255L412 255L362 314L324 280L286 280L286 403L308 428L226 460Q228 429 228.50 384.50Q229 340 229 280ZM872 44L828 3L721 3L721 98L913 98L847 160L800 123L721 123L721 214L910 214L841 280L800 239L721 239L721 334L929 334L866 396L828 359L715 359Q750 383 733 409L733 409Q726 418 704.50 435Q683 452 645 469L645 469L639 457Q651 439 658.50 427.50Q666 416 674 409L674 409Q679 397 682 385Q685 373 692 359L692 359L529 359Q571 405 586 416L586 416L519 460Q457 302 349 180L349 180L355 167Q430 227 478 283L478 283L478-83L529-62L529-23L935-23L872 44ZM529 239L529 334L664 334L664 239L529 239ZM529 123L529 214L664 214L664 123L529 123ZM529 3L529 98L664 98L664 3L529 3Z"/></svg>