<svg id="U298E4" viewBox="0 0 1024 1024"><path transform="translate(0, 921.6) scale(1,-1)" d="M86 278L86 278L141 288L141 308L376 317Q366 199 359 129Q352 59 343 37L343 37Q329-11 307-17L307-17Q300-17 272.50-14Q245-11 200-4L200-4L197-20Q294-42 294-92L294-92Q343-76 360-53L360-53Q379-23 392 15L392 15Q408 58 428 308L428 308L461 324L405 379L376 343L288 340L288 451L425 451L376 519L327 480L288 480L288 588L428 588L376 653L327 617L288 617L288 724L457 724L402 799L346 750L138 750L86 786Q91 720 92 654.50Q93 589 93 529L93 529Q93 465 92 403Q91 341 86 278ZM141 617L141 724L239 724L239 617L141 617ZM141 480L141 588L239 588L239 480L141 480ZM141 337L141 451L239 451L239 340L141 337ZM86 217L67 217Q67 130 44 96L44 96Q18 61 37 44L37 44Q53 27 67 47L67 47Q91 67 96 96L96 96Q98 113 96.50 142.50Q95 172 86 217L86 217ZM135 226L119 223Q146 162 141 109L141 109Q137 61 158 67L158 67Q175 72 180 96L180 96Q189 112 177 151L177 151Q162 188 135 226L135 226ZM194 249L184 239Q221 173 232 129L232 129Q236 96 252 96L252 96Q270 100 278 116L278 116Q288 125 278 158L278 158Q271 181 194 249L194 249ZM275 269L262 262Q299 188 304 151L304 151Q309 116 327 122L327 122Q336 127 341.50 135.50Q347 144 353 151L353 151Q355 163 349.50 175.50Q344 188 340 203L340 203Q330 215 314.50 232Q299 249 275 269L275 269ZM483 682L487 666Q557 677 620 692Q683 707 740 724L740 724Q791 741 825 752.50Q859 764 877 767L877 767L822 822Q692 724 483 682L483 682ZM499 588L499 571Q666 596 760 630L760 630Q806 647 837.50 658Q869 669 887 672L887 672L838 728Q816 710 786 691Q756 672 717 653L717 653Q627 615 499 588L499 588ZM467 480L467 464Q576 475 655 487.50Q734 500 783 513L783 513Q880 542 946 552L946 552L890 610Q710 512 467 480L467 480ZM864 405L828 327L841 321Q899 397 955 409L955 409L897 464L861 431L499 431L499 461L487 461Q455 399 438 386L438 386Q416 364 441 357L441 357Q463 348 483 366L483 366Q499 392 499 405L499 405L864 405ZM379-92L379-92L382-102Q519-54 558 24L558 24Q575 63 581 120Q587 177 587 262L587 262L717 262L717-4Q704-62 796-62L796-62L877-62Q932-58 955-23L955-23Q928-13 923 15L923 15Q919 30 919 119L919 119L900 119Q897 77 893 50Q889 23 887 8L887 8Q883-19 854-14L854-14L802-14Q766-19 766 28L766 28L766 249L799 272L744 324L717 288L587 288L529 321Q538 195 529 125L529 125Q521 47 493 2L493 2Q473-22 444-44.50Q415-67 379-92Z"/></svg>