<svg id="U29F4E" viewBox="0 0 1024 1024"><path transform="translate(0, 921.6) scale(1,-1)" d="M375 671L375 671L322 719L300 684L199 684Q227 751 256 756L256 756L183 794Q183 767 148 671L148 671Q134 626 114 576.50Q94 527 62 470L62 470L68 460Q84 477 94 490.50Q104 504 109 514L109 514Q109 387 109 305L109 305Q109 224 106 187L106 187L148 208L148 234L338 234L338 208L382 231Q379 254 379 323L379 323Q379 393 379 517L379 517L403 542L353 583L335 548L265 548Q340 671 375 671ZM189 658L189 658L300 658L240 548L161 548L139 565Q153 592 166.50 615.50Q180 639 189 658ZM148 404L148 524L221 524L221 404L148 404ZM265 404L265 524L338 524L338 404L265 404ZM148 262L148 378L221 378L221 262L148 262ZM265 262L265 378L338 378L338 262L265 262ZM139 155L139 155L123 155Q115 112 106.50 80.50Q98 49 81 29L81 29Q54-16 81-16L81-16Q106-16 117-4L117-4Q125 4 136 38L136 38Q139 57 139 155ZM183 167L177 164Q183 122 189.50 91.50Q196 61 196 35L196 35Q200-10 218 2L218 2Q242 24 236 57L236 57Q236 90 183 167L183 167ZM253 177L243 170Q263 127 275.50 97Q288 67 294 51L294 51Q299 10 318 29L318 29Q340 44 335 79L335 79Q335 110 253 177L253 177ZM331 198L318 193Q371 112 382 76L382 76Q392 42 413 70L413 70Q427 102 413 129L413 129Q393 158 331 198L331 198ZM605 605L605 681L706 681L706 605L605 605ZM750 605L750 681L845 681L845 605L750 605ZM888 681L888 681L917 702L860 738L842 709L750 709L750 753L778 776L703 807Q703 778 704.50 753Q706 728 706 709L706 709L605 709L555 735Q555 703 556 680Q557 657 557 643L557 643Q557 626 556 604.50Q555 583 555 555L555 555L605 568L605 580L706 580L706 520L511 520L545 486Q561 488 578.50 491.50Q596 495 614 495L614 495L961 495L917 555L879 520L750 520L750 580L845 580L845 561L895 576Q889 597 888.50 624.50Q888 652 888 681ZM883 255L883 255L883 419L914 442L850 483L829 450L624 450L574 479Q574 439 575.50 397Q577 355 577 313L577 313Q577 267 575.50 226.50Q574 186 574 149L574 149L624 167L624 187L839 187L839 155L886 174Q883 204 883 225L883 225Q883 246 883 255ZM839 426L839 365L624 365L624 426L839 426ZM839 341L839 287L624 287L624 341L839 341ZM839 262L839 211L624 211L624 262L839 262ZM772 164L772 164L765 152Q798 118 822 91Q846 64 857 38L857 38Q880-11 895 32L895 32Q904 72 883 95L883 95Q860 114 772 164ZM709 117L709 117L655 170Q623 95 545 32L545 32L552 23Q615 48 646 79L646 79Q666 95 682 104Q698 113 709 117ZM403 712L403 712L394 702Q431 661 435 630L435 630Q439 611 443.50 595Q448 579 451 568L451 568Q455 549 476 583L476 583Q501 616 476 653L476 653Q469 666 449.50 681Q430 696 403 712ZM362-16L362-16L410-57Q424-36 443.50-10Q463 16 489 48L489 48Q540-19 605-42L605-42Q660-60 709-60L709-60L895-60Q900-25 958-7L958-7L958 5Q873-1 811.50-7Q750-13 712-13L712-13Q677-8 648-5Q619-2 596 2L596 2Q548 22 511 57L511 57L511 372L539 391L492 445L461 416L379 416L410 378L435 388L467 388L467 67Q443 45 417 24.50Q391 4 362-16Z"/></svg>