<svg id="U29EC1" viewBox="0 0 1024 1024"><path transform="translate(0, 921.6) scale(1,-1)" d="M405 671L405 671L348 725L323 689L216 689Q248 765 273 769L273 769L207 807Q201 787 189 751.50Q177 716 156 668L156 668Q117 561 60 479L60 479L70 469Q80 480 91.50 496Q103 512 117 529L117 529Q117 394 117 306L117 306Q117 219 114 177L114 177L166 201L166 233L367 233L367 201L418 221Q412 246 411.50 321Q411 396 411 526L411 526L440 551L389 592L367 555L285 555Q368 659 405 671ZM210 664L210 664L323 664L257 555L176 555L150 573Q164 599 179.50 621Q195 643 210 664ZM166 400L166 529L245 529L245 400L166 400ZM289 400L289 529L367 529L367 400L289 400ZM166 258L166 375L245 375L245 258L166 258ZM289 258L289 375L367 375L367 258L289 258ZM147 145L147 145L131 145Q122 102 114 70Q106 38 89 13L89 13Q63-29 89-29L89-29Q117-29 128-14L128-14Q146 2 150 28L150 28Q152 42 150.50 71Q149 100 147 145ZM197 157L187 154Q202 116 207.50 84.50Q213 53 213 25L213 25Q218-36 235-8L235-8Q257 11 257 51L257 51Q257 89 197 157L197 157ZM269 167L263 160Q308 74 314 41L314 41Q318-3 343 19L343 19Q366 37 361 69L361 69Q361 104 269 167L269 167ZM361 195L346 186Q407 109 418 69L418 69Q422 29 446 63L446 63Q471 97 452 126L452 126Q442 145 361 195L361 195ZM871 514L871 514L896 535L846 586L814 548L541 548L484 583Q486 529 486.50 486Q487 443 487 403L487 403Q487 367 486.50 325.50Q486 284 484 242L484 242L541 262L541 286L641 286Q638 253 636 227Q634 201 632 183L632 183L428 183L465 148Q498 157 541 157L541 157L623 157Q564-3 364-70L364-70L367-83Q619-31 676 157L676 157L698 157Q743 14 887-67L887-67Q914-23 963-23L963-23L963-8Q808 8 717 157L717 157L956 157L893 227L852 183L682 183Q688 213 691.50 239Q695 265 698 286L698 286L818 286L818 258L875 277Q872 305 871.50 364Q871 423 871 514ZM541 435L541 520L818 520L818 435L541 435ZM541 314L541 409L818 409L818 314L541 314ZM749 687L749 687L626 687L626 762L651 784L569 810Q569 778 572 748.50Q575 719 575 687L575 687L418 687L449 652Q466 654 489.50 655Q513 656 547 661L547 661L575 661Q575 635 572 612Q569 589 569 573L569 573L626 602L626 661L749 661L749 583L802 604Q799 620 799 661L799 661L963 661L896 728L858 687L799 687L799 749L830 771L742 810Q742 778 745.50 747.50Q749 717 749 687Z"/></svg>