<svg id="U29400" viewBox="0 0 1024 1024"><path transform="translate(0, 921.6) scale(1,-1)" d="M190-101L190-101L249-69Q246-26 246 16L246 16L246 98L246 308L361 308Q361 270 358.50 243Q356 216 354 196L354 196Q349 152 338 141L338 141Q323 123 265 150L265 150L265 130Q321 107 321 68L321 68Q372 94 386 121L386 121Q402 150 414 288L414 288L436 311L386 360L354 334L246 334L246 475L394 475L341 541L304 505L246 505L246 632L417 632L357 699L318 659L246 659L246 758L272 784L190 820Q192 760 192.50 722Q193 684 193 659L193 659L46 659L75 620Q89 624 105 628Q121 632 143 632L143 632L193 632L193 505L62 505L85 465Q104 472 121.50 473.50Q139 475 157 475L157 475L193 475L193 334L32 334L65 298Q80 305 97.50 306.50Q115 308 137 308L137 308L193 308Q193 201 192.50 98.50Q192-4 190-101ZM436-115L436-115L488-88L488 121L675 121L624 193L584 150L488 150L488 334L666 334L619 404L577 360L488 360L488 532L613 532L613 501L662 524Q659 545 659 587L659 587L659 734L683 758L633 804L613 768L482 768L436 804Q439 772 439.50 746.50Q440 721 440 702L440 702L440 13Q440-16 439.50-46.50Q439-77 436-115ZM488 558L488 742L613 742L613 558L488 558ZM725 360L725 360L859 360Q849 310 834 255.50Q819 201 800 141L800 141Q748 244 725 360ZM964-69L964-69L968-53Q928-33 891.50 2.50Q855 38 826 95L826 95Q846 133 868 196.50Q890 260 916 351L916 351L945 380L885 430L859 390L653 390L683 351L706 360Q719 224 771 101L771 101Q714 7 554-92L554-92L557-108Q713-38 797 59L797 59Q814 14 840.50-23Q867-60 899-95L899-95Q908-61 964-69ZM925 609L925 734L948 761L899 801L876 768L695 768L725 734Q744 736 762 739Q780 742 800 742L800 742L876 742L876 561L698 561L732 524Q754 535 803 535L803 535L876 535L876 501L928 524Q925 555 925 609L925 609Z"/></svg>