<svg id="U29A2D" viewBox="0 0 1024 1024"><path transform="translate(0, 921.6) scale(1,-1)" d="M640 806L646 819Q732 763 739 739L739 739Q748 709 726 678L726 678Q707 654 694 694L694 694Q685 734 640 806L640 806ZM531 694L547 694L550 649L870 649L902 685L950 620Q895 604 848 531L848 531L832 537L870 624L550 624Q555 571 547 550L547 550Q539 540 533.50 532Q528 524 521 521L521 521Q506 517 489 525L489 525Q473 531 496 569L496 569Q510 586 517.50 618.50Q525 651 531 694L531 694ZM572 25L572 25L572 371Q572 407 570.50 441.50Q569 476 569 518L569 518L643 473L624 444L624 271Q681 316 726.50 367.50Q772 419 806 470L806 470L861 400L829 393Q778 354 726.50 317Q675 280 624 249L624 249L624 47Q624-7 672-7L672-7L819-7Q856-11 867 37L867 37Q869 66 872 98.50Q875 131 880 166L880 166L893 166Q893 127 894 98Q895 69 902 50L902 50Q912 11 938 5L938 5Q914-49 858-54L858-54L652-54Q572-65 572 25ZM367 755L188 755L188 521L252 521Q252 572 251.50 615Q251 658 249 697L249 697L297 662L387 662L387 637L297 637L297 521L367 521L367 755ZM425 412L412 419L444 492L101 492Q98 465 94.50 445Q91 425 82 419L82 419Q70 400 53 400L53 400Q37 403 34 422L34 422Q34 439 53 464L53 464Q60 476 69.50 502Q79 528 88 576L88 576L98 576L101 521L137 521L137 656Q137 696 136.50 736.50Q136 777 133 816L133 816L181 781L364 781L393 816L444 762L415 742L415 521L447 521L470 544L511 489Q469 477 425 412L425 412ZM249-16L249 2Q298-10 332-10L332-10Q364-5 364 25L364 25L364 374L181 374L181 169Q179 115 171 74.50Q163 34 149 5L149 5Q118-56 60-93L60-93L53-90Q78-56 93.50-27.50Q109 1 114 25L114 25Q123 49 126.50 70Q130 91 130 108L130 108Q132 127 132.50 166Q133 205 133 265L133 265Q133 325 132.50 365Q132 405 130 422L130 422L181 403L364 403L387 428L435 384L409 361L409 9Q403-35 393-48L393-48Q389-64 338-90L338-90Q338-34 249-16L249-16ZM213 323L217 332Q247 315 267.50 306Q288 297 294 291L294 291Q310 281 310 262L310 262Q310 237 287 220L287 220Q268 198 258 242L258 242Q253 276 213 323L213 323ZM236 37L181 82Q224 111 262.50 144Q301 177 335 211L335 211L348 201Q326 171 309.50 148Q293 125 284 111L284 111Q274 96 262 78.50Q250 61 236 37L236 37Z"/></svg>