<svg id="U29B74" viewBox="0 0 1024 1024"><path transform="translate(0, 921.6) scale(1,-1)" d="M184 582L184 582L63 582L94 548Q136 557 172 557L172 557L256 557Q230 526 187 498L187 498Q147 467 116 467L116 467L147 414Q151 416 182.50 421Q214 426 268 436L268 436Q325 442 373.50 450.50Q422 459 467 464L467 464Q470 456 489 436L489 436Q500 403 517 439L517 439Q531 468 511 486L511 486Q492 507 392 535L392 535L380 523Q400 513 419 502.50Q438 492 455 479L455 479L187 467Q210 476 229 485.50Q248 495 265 504L265 504Q286 513 300.50 518.50Q315 524 324 529L324 529L287 557L585 557L523 613L486 582L237 582L237 613L514 613L461 669L427 638L237 638L237 672L517 672L467 731L430 697L237 697L237 734L548 734L492 803L452 762L240 762L181 787Q183 754 183.50 701.50Q184 649 184 582ZM881 747L834 797Q819 777 728 734L728 734Q686 713 641 697Q596 681 551 669L551 669L551 653Q611 665 666 679.50Q721 694 766 713L766 713Q814 726 842.50 736.50Q871 747 881 747L881 747ZM915 635L871 691Q836 653 763 628L763 628Q723 612 676.50 595Q630 578 582 566L582 566L585 551Q634 557 686 570.50Q738 584 787 600L787 600Q889 635 915 635L915 635ZM940 523L890 579Q881 569 853.50 552.50Q826 536 781 520L781 520Q689 483 548 454L548 454L548 439Q626 448 690 458.50Q754 469 803 486L803 486Q854 504 888.50 512Q923 520 940 523L940 523ZM172 383L159 383Q139 313 109 283L109 283Q68 254 94 243L94 243Q118 228 144 249L144 249Q164 262 172 317L172 317L840 317L800 246L815 237Q827 250 840 262Q853 274 862 283L862 283Q876 291 893.50 300.50Q911 310 931 321L931 321L874 377L837 342L172 342L172 383ZM427 252L374 311Q328 265 246 215L246 215Q204 194 165.50 174Q127 154 88 140L88 140L91 128Q217 159 277 190L277 190Q307 204 336 217.50Q365 231 396 246L396 246L427 252ZM591 302L591 302L585 289Q754 210 806 159L806 159Q833 131 852 130Q871 129 874 150L874 150Q884 190 822 221L822 221Q791 237 733.50 256.50Q676 276 591 302ZM256 134L218 168L672 168L725 212L787 140L529 140L529-23L815-23L868 21L934-51L209-51Q173-51 131-60L131-60L94-23L473-23L473 140L333 140Q312 140 293 138Q274 136 256 134L256 134ZM455 436L455 436L452 420Q472 404 487.50 389Q503 374 514 358L514 358Q530 328 548 358L548 358Q557 393 535 405L535 405Q526 414 504 421Q482 428 455 436Z"/></svg>