<svg id="U29EF3" viewBox="0 0 1024 1024"><path transform="translate(0, 921.6) scale(1,-1)" d="M418 682L418 682L361 741L330 697L220 697Q260 772 282 776L282 776L207 814Q210 780 169 688L169 688Q149 640 123 591.50Q97 543 60 486L60 486L70 474Q105 513 119 543L119 543Q119 407 118.50 320Q118 233 117 193L117 193L166 216L166 247L377 247L377 216L424 237L421 326L421 530L446 556L399 600L367 565L289 565Q380 682 418 682ZM210 669L210 669L330 669L266 565L176 565L150 581Q164 604 179 625.50Q194 647 210 669ZM166 414L166 540L248 540L248 414L166 414ZM292 414L292 540L377 540L377 414L292 414ZM166 272L166 389L248 389L248 272L166 272ZM292 272L292 389L377 389L377 272L292 272ZM147 162L147 162L131 162Q122 119 112.50 88Q103 57 86 36L86 36Q48-9 80-9L80-9Q101-9 125 2L125 2Q135 14 143 46L143 46Q151 71 147 162ZM204 175L191 172Q213 100 213 42L213 42Q221-3 241 8L241 8Q267 30 263 64L263 64Q263 101 204 175L204 175ZM279 188L269 178Q319 89 323 59L323 59Q325 39 333 32.50Q341 26 348 36L348 36Q373 51 367 90L367 90Q367 122 279 188L279 188ZM364 209L351 200Q380 164 399.50 135Q419 106 424 83L424 83Q441 47 459 77L459 77Q480 111 459 140L459 140Q443 159 364 209L364 209ZM556 348L556 348L610 370Q604 387 603.50 429Q603 471 603 540L603 540Q615 525 626.50 505Q638 485 651 465L651 465Q665 410 682 455L682 455Q695 495 676 518L676 518Q651 537 603 563L603 563L603 600L714 600L673 656L641 625L603 625L603 726Q636 732 658 735Q680 738 691 741L691 741L647 798Q589 752 465 723L465 723L469 704L559 720L559 625L433 625L465 591L500 600L534 600Q503 481 428 389L428 389L433 373Q527 446 559 543L559 543Q559 471 557.50 423.50Q556 376 556 348ZM799 751L799 751L824 773L758 805Q758 740 739 660L739 660Q720 574 691 518L691 518L698 502Q723 534 743 574Q763 614 783 660L783 660L814 660Q790 482 688 386L688 386L698 376Q835 476 855 660L855 660L893 660Q888 569 884.50 515.50Q881 462 875 445L875 445Q865 414 852 414L852 414Q848 414 805 427L805 427L805 411Q855 385 855 352L855 352Q903 374 912 414L912 414Q923 447 934 656L934 656L963 676L922 720L899 685L786 685Q791 701 793.50 718.50Q796 736 799 751ZM711 323L732 345L657 373Q657 344 658.50 316Q660 288 660 260L660 260L436 260L469 222Q496 229 544 234L544 234L623 234Q564 96 395-31L395-31L399-41Q574 38 660 206L660 206L660 62Q660 25 658.50-12.50Q657-50 657-88L657-88L714-60Q711-24 711 12L711 12Q711 48 711 90L711 90L711 234L726 234Q759 82 899-31L899-31Q915 5 963 5L963 5L963 21Q820 67 749 234L749 234L950 234L887 304L837 260L711 260L711 323Z"/></svg>