<svg id="U29B7E" viewBox="0 0 1024 1024"><path transform="translate(0, 921.6) scale(1,-1)" d="M168 586L168 586L39 586L77 552Q93 554 113.50 556Q134 558 153 558L153 558L242 558Q232 549 215 534.50Q198 520 173 504L173 504Q138 473 90 473L90 473L131 418Q150 430 260 441L260 441Q313 447 362 453Q411 459 457 466L457 466Q458 465 463 458Q468 451 479 438L479 438Q488 412 514 441L514 441Q527 471 505 492L505 492Q492 503 460 513.50Q428 524 377 539L377 539L368 529Q390 514 408.50 502.50Q427 491 444 479L444 479L176 473Q197 483 215.50 490.50Q234 498 251 510L251 510Q267 517 282 523.50Q297 530 311 533L311 533L273 558L574 558L514 615L476 586L222 586L222 621L505 621L451 672L416 646L222 646L222 681L508 681L457 738L419 707L222 707L222 744L539 744L482 807L441 770L225 770L165 798Q167 761 167.50 709.50Q168 658 168 586ZM884 750L830 807Q815 795 786.50 778Q758 761 713 738L713 738Q667 716 625 700Q583 684 542 675L542 675L542 662Q672 683 760 719L760 719Q806 732 836.50 739.50Q867 747 884 750L884 750ZM916 643L865 700Q846 681 816 664Q786 647 748 630L748 630Q707 614 663 597.50Q619 581 574 567L574 567L577 555Q627 561 680 574.50Q733 588 789 606L789 606Q840 621 871.50 632Q903 643 916 643L916 643ZM944 529L891 583Q867 556 776 520L776 520Q724 502 665 486Q606 470 539 457L539 457L539 441Q617 450 684.50 462Q752 474 802 492L802 492Q855 508 890.50 517.50Q926 527 944 529L944 529ZM444 204L410 121L422 115Q482 204 526 213L526 213L470 264L441 232L349 232Q389 264 349 292L349 292Q390 320 430 338Q470 356 508 369L508 369L457 429L422 400L144 400L182 361Q201 367 220 369.50Q239 372 260 375L260 375L416 375L330 301Q316 309 297 317Q278 325 254 333L254 333L245 324Q307 275 321 232L321 232L90 232L128 197Q147 199 164.50 201.50Q182 204 204 204L204 204L264 204Q226 136 169.50 75Q113 14 39-35L39-35L45-47Q86-26 124.50-3Q163 20 194 49L194 49Q260 104 324 204L324 204L324 3Q324-20 302-20L302-20Q289-20 266-19.50Q243-19 210-16L210-16L210-32Q299-50 299-92L299-92Q377-61 377 0L377 0L377 204L444 204ZM817 283L817 283L925 283L865 349L817 311L618 311Q627 329 635 348.50Q643 368 656 390L656 390L682 409L605 447Q600 411 589.50 375Q579 339 568 301L568 301Q552 263 535.50 223Q519 183 497 140L497 140L508 137Q548 174 596 270L596 270Q600 219 616.50 169.50Q633 120 662 70L662 70Q624 28 567.50-7.50Q511-43 434-72L434-72L437-89Q595-53 694 36L694 36Q759-34 877-80L877-80Q894-47 947-38L947-38L947-26Q810-5 722 67L722 67Q776 147 817 283ZM611 283L611 283L767 283Q752 232 732 187.50Q712 143 691 103L691 103Q647 152 611 283Z"/></svg>