<svg id="U29071" viewBox="0 0 1024 1024"><path transform="translate(0, 921.6) scale(1,-1)" d="M238 771L176 810Q157 732 129 658Q101 584 63 514L63 514L73 504Q93 527 109.50 549Q126 571 140 595L140 595Q140 466 139.50 383.50Q139 301 138 262L138 262L187 280L187 306L276 306L276 221L86 221L119 186Q135 188 152.50 190Q170 192 191 192L191 192L235 192Q209 135 166 83.50Q123 32 63-20L63-20L73-33Q205 38 276 170L276 170L276 51Q276 17 275.50-16.50Q275-50 273-83L273-83L326-62Q323-30 323-1L323-1Q323 27 323 63L323 63L323 192L510 192L449 258L415 221L323 221L323 265L346 283L292 306L487 306L430 368L395 331L330 331L330 419L462 419L405 481L371 444L330 444L330 535L462 535L408 592L377 561L330 561L330 648L484 648L430 709L395 674L317 674Q346 697 336 730L336 730Q332 751 261 807L261 807L257 790Q277 759 286 730.50Q295 702 298 674L298 674L179 674Q187 692 198 712.50Q209 733 216 753L216 753L238 771ZM187 561L187 648L285 648L285 561L187 561ZM187 535L285 535L285 444L187 444L187 535ZM285 331L187 331L187 419L285 419L285 331ZM550 633L550 746L606 746L606 633L550 633ZM550 347L550 463L606 463L606 347L550 347ZM550 491L550 607L676 607L676 491L550 491ZM510 681L510 681L510 362L487 347L528 303L550 321L764 321L708 384L680 347L644 347L644 463L676 463L676 444L717 463L717 602L739 620L698 664L673 633L644 633L644 746L758 746L708 807L680 771L556 771L506 794Q506 765 508 736.50Q510 708 510 681ZM802 607L802 607L953 607L899 668L868 633L811 633Q845 751 862 774L862 774L799 810Q796 778 787.50 734Q779 690 770 636L770 636Q756 579 738 523Q720 467 701 413L701 413L714 406Q737 457 760 506Q783 555 802 607ZM575 258L525 283Q525 264 526.50 230Q528 196 528 148L528 148L528-33L440-33L471-67Q487-64 507-63Q527-62 547-62L547-62L960-62L915 0L881-33L881 227L906 252L855 296L834 258L575 258ZM569-33L569 229L629 229L629-33L569-33ZM673-33L673 229L736 229L736-33L673-33ZM777-33L777 229L837 229L837-33L777-33ZM802 548L802 548L793 535Q848 451 871 384L871 384Q886 325 906 340L906 340Q918 355 922 381L922 381Q922 408 899 440L899 440Q886 456 862 483Q838 510 802 548ZM307 201L307 201Q360 47 452-20L452-20Q468 10 513 10L513 10L513 25Q446 38 402 98L402 98Q376 126 353.50 154Q331 182 317 208L317 208L307 201Z"/></svg>