<svg id="U2919C" viewBox="0 0 1000 1000"><path transform="translate(0, 900) scale(1,-1)" d="M173 374L282 374L282 286L173 286ZM118 417L118 244L339 244L339 417ZM443 374L554 374L554 286L443 286ZM387 417L387 244L612 244L612 417ZM714 374L830 374L830 286L714 286ZM659 417L659 244L888 244L888 417ZM783 634C730 619 637 596 575 586L600 549C663 557 753 571 815 592ZM575 504C658 485 766 451 824 427L841 475C784 498 676 529 594 545ZM48-17L48-72L954-72L954-17L746-17L772 6C752 18 719 36 691 50L848 50L848 97L536 97L536 155L894 155L894 206L110 206L110 155L460 155L460 97L154 97L154 50L460 50L460-17ZM639 26C662 15 692-3 715-17L536-17L536 50L668 50ZM76 691L76 519L144 519L144 640L461 640L461 465L534 465L534 640L855 640L855 519L925 519L925 691L534 691L534 747L865 747L865 802L134 802L134 747L461 747L461 691ZM191 592C257 581 342 561 391 544C303 520 216 496 156 483L179 428C251 450 337 477 423 506L416 551L400 547L417 588C368 604 278 623 211 633Z"/></svg>