<svg id="U293A3" viewBox="0 0 1024 1024"><path transform="translate(0, 921.6) scale(1,-1)" d="M457 694L410 726L388 694L271 694L281 754L303 773L236 814L221 694L106 694L139 660Q153 662 167.50 664Q182 666 202 666L202 666L218 666L202 565L78 565L109 530Q124 533 142.50 536.50Q161 540 180 540L180 540L533 540L476 609L438 565L429 565L435 663L457 694ZM391 666L382 565L253 565L265 666L391 666ZM331 96L331 96L526 96L467 159L431 121L331 121L331 219L513 219L454 291L416 247L331 247L331 332L400 332L400 313L451 335Q448 351 448 445L448 445L470 471L420 509L397 474L202 474L142 506Q144 477 144.50 450.50Q145 424 145 398L145 398Q145 375 144.50 351Q144 327 142 307L142 307L192 329L192 332L281 332L281 247L88 247L120 213Q137 215 154 217Q171 219 192 219L192 219L281 219L281 121L161 121L177 162L202 175L142 213L127 156Q113 127 94 118L94 118L142 74L161 96L281 96Q281 74 280.50 28Q280-18 277-88L277-88L335-57Q332-20 331.50 16.50Q331 53 331 96ZM192 448L400 448L400 357L192 357L192 448ZM614 21L614 272L873 272L873 21L614 21ZM693 701L693 701L873 701Q849 477 835 452L835 452Q808 432 785 437L785 437Q770 437 745 440Q720 443 687 448L687 448L687 433Q725 421 757 398L757 398Q778 383 798 352L798 352Q858 373 879 414L879 414Q886 438 897 505.50Q908 573 920 694L920 694L942 720L895 761L866 726L492 726L530 694Q546 696 563.50 698.50Q581 701 602 701L602 701L643 701Q630 605 590 506L590 506Q551 413 467 329L467 329L476 316Q593 409 639 509L639 509Q684 608 693 701ZM920 59L920 59L920 260L945 282L888 332L863 298L611 298L564 326Q564 290 565.50 242.50Q567 195 567 134L567 134Q567 67 565.50 17.50Q564-32 564-75L564-75L614-47L614-3L873-3L873-65L924-34Q921-6 920.50 15.50Q920 37 920 59Z"/></svg>