<svg id="U29A18" viewBox="0 0 1024 1024"><path transform="translate(0, 921.6) scale(1,-1)" d="M606 825L606 825L680 770L651 747Q636 702 624.50 668Q613 634 606 605L606 605L810 605L865 654L917 576L596 576Q569 516 535.50 467Q502 418 460 372L460 372L451 379Q484 436 511.50 494Q539 552 554 612L554 612Q571 669 583.50 721.50Q596 774 606 825ZM554 388L519 421L726 421L765 456L816 395Q766 378 735 336L735 336Q720 314 699 284.50Q678 255 651 210L651 210Q624 168 605 131Q586 94 574 55L574 55Q542-13 625-13L625-13L845-13Q860-9 871 26L871 26Q874 42 876.50 82Q879 122 884 194L884 194L897 194Q897 148 901 115Q905 82 910 55L910 55Q914 12 952-3L952-3Q928-55 871-61L871-61L616-61Q563-65 531-41L531-41Q499-15 525 68L525 68Q552 149 713 395L713 395L629 395Q589 395 554 388L554 388ZM250 618L176 618L176 515L250 515L250 618ZM360 747L176 747L176 647L240 647L269 679L315 634L295 615L295 515L360 515L360 747ZM425 408L412 414L441 489L101 489Q110 444 95 427L95 427Q90 411 72 404L72 404Q56 397 40 404L40 404Q19 404 49 440L49 440Q70 473 82 556L82 556L98 556L101 515L127 515L127 647Q127 690 126 730Q125 770 121 812L121 812L176 773L360 773L389 812L438 754L412 735L412 515L438 515L467 547L512 479Q486 479 473 466L473 466Q468 458 454.50 443.50Q441 429 425 408L425 408ZM360 372L176 372L176 272L360 272L360 372ZM360 246L176 246L176 139L360 139L360 246ZM360 113L176 113L176-67L121-103Q125-46 126 27Q127 100 127 194L127 194Q127 288 126 347.50Q125 407 121 434L121 434L176 398L360 398L389 430L435 379L412 356L412-13Q412-56 392-70L392-70Q374-91 347-99L347-99Q347-49 260-25L260-25L260-10Q293-13 315-16Q337-19 347-19L347-19Q371-19 360 13L360 13L360 113Z"/></svg>