<svg id="U294DB" viewBox="0 0 1024 1024"><path transform="translate(0, 921.6) scale(1,-1)" d="M89 781L89 781L147 745L367 745L399 784L447 729L421 714L421 611L421 570Q421 547 424 522L424 522L373 500L373 538L143 538L143 423L405 423L434 452L491 401L453 372Q453 223 447 140Q441 57 434 33L434 33Q414-18 364-33L364-33Q364 11 297 27L297 27L297 46Q349 33 373 40L373 40Q392 57 396 103L396 103Q398 124 400 196.50Q402 269 402 394L402 394L143 394L143 321Q143 77 38-65L38-65L25-58Q61 23 79 122.50Q97 222 92 340L92 340L92 640Q92 673 91.50 707.50Q91 742 89 781ZM175 340L175 340L220 311L300 311L322 343L367 295L341 273L341 190Q341 172 341.50 153Q342 134 345 113L345 113L297 91L297 129L223 129L223 84L175 65Q177 86 177.50 108Q178 130 178 151L178 151L178 228Q178 252 177.50 279Q177 306 175 340ZM297 286L223 286L223 155L297 155L297 286ZM373 563L373 720L143 720L143 563L373 563ZM833 583L578 583L578 465L833 465L833 583ZM833 439L578 439L578 321L833 321L833 439ZM833 292L578 292L578 177L833 177L833 292ZM581 608L619 608Q631 648 637 678Q643 708 648 729L648 729L565 729Q545 729 528 727Q511 725 495 723L495 723L456 758L836 758L884 803L939 729L712 729Q700 717 681.50 685Q663 653 635 608L635 608L827 608L856 643L910 595L884 570L884 311L884 208Q884 162 887 129L887 129L833 110L833 151L578 151L578 113L523 94Q523 134 526.50 204.50Q530 275 530 372L530 372Q530 472 526.50 535.50Q523 599 523 630L523 630L581 608ZM613 126L613 126L673 68L642 56Q515-54 440-94L440-94L434-81Q584 63 613 126ZM741 107L753 116Q798 87 828.50 62Q859 37 878 17L878 17Q915-23 897-71L897-71Q877-118 852-52L852-52Q837-20 809 18Q781 56 741 107L741 107Z"/></svg>