<svg id="U29BFF" viewBox="0 0 1024 1024"><path transform="translate(0, 921.6) scale(1,-1)" d="M179 616L179 616L48 616L83 581Q101 583 122 587Q143 591 163 591L163 591L246 591Q231 571 185 549L185 549Q138 520 99 520L99 520L137 472Q151 477 182.50 482Q214 487 268 495L268 495Q323 499 370.50 502.50Q418 506 463 514L463 514Q466 504 486 492L486 492Q502 474 511 498L511 498Q518 516 505 540L505 540Q491 554 409 584L409 584L403 575Q415 563 427 551Q439 539 454 530L454 530L182 520Q201 527 221 533Q241 539 259 549L259 549Q277 556 292 561Q307 566 319 571L319 571L281 591L585 591L533 642L486 616L227 616L227 642L514 642L460 693L425 670L227 670L227 696L517 696L466 747L438 722L227 722L227 754L546 754L495 801L457 779L240 779L172 801Q177 770 178 723Q179 676 179 616ZM892 770L840 811Q825 788 735 757L735 757Q642 716 553 696L553 696L553 683Q616 692 672 704.50Q728 717 773 734L773 734Q821 751 850.50 759Q880 767 892 770L892 770ZM927 667L879 715Q861 700 834.50 687Q808 674 770 658L770 658Q696 626 581 600L581 600L585 591Q636 595 688.50 606Q741 617 796 635L796 635Q913 667 927 667L927 667ZM955 575L901 619Q894 607 865.50 595.50Q837 584 792 565L792 565Q744 548 683 533.50Q622 519 553 504L553 504L553 495Q703 503 815 540L815 540Q869 554 903.50 563Q938 572 955 575L955 575ZM770 175L770 175L796 188L741 229L713 201L300 201L243 220Q245 196 245.50 170Q246 144 246 108L246 108Q246 76 245.50 43.50Q245 11 243-18L243-18L297-5L297 12L716 12L716 0L773 12Q770 33 770 71L770 71Q770 109 770 175ZM297 146L297 175L716 175L716 146L297 146ZM297 95L297 121L716 121L716 95L297 95ZM297 41L297 66L716 66L716 41L297 41ZM396 12L396 12L454-21Q424-30 395-39.50Q366-49 335-56L335-56Q306-65 265-74Q224-83 169-95L169-95L166-85Q209-70 243-57.50Q277-45 307-31L307-31Q366-2 396 12ZM578 18L565 6Q634-11 680.50-32Q727-53 754-72L754-72Q800-108 815-88L815-88Q824-62 802-40L802-40Q785-16 578 18L578 18ZM479 332L479 332Q639 220 879 182L879 182Q899 217 946 226L946 226L946 242Q892 242 842 245Q792 248 741 258L741 258Q693 263 630 286Q567 309 486 345L486 345L479 332ZM578 338L620 303L658 313L760 313L760 297L815 313Q812 329 812 360L812 360Q812 392 812 440L812 440L834 460L783 495L757 463L575 463L613 431Q630 433 651.50 435Q673 437 697 437L697 437L760 437L760 402L591 402L626 367L661 377L760 377L760 338L578 338ZM425 303L377 354L342 332L236 332L236 367L419 367L364 418L335 396L236 396L236 431Q311 440 356.50 446.50Q402 453 422 453L422 453L377 504Q351 469 236 447L236 447L182 463Q184 443 184.50 420Q185 397 185 373L185 373Q185 344 184.50 322Q184 300 182 284L182 284L236 297L236 303L425 303ZM387 277L387 277Q339 235 73 198L73 198L73 182Q170 186 238.50 197.50Q307 209 358 226L358 226Q447 252 486 303L486 303Q516 342 527 447L527 447L553 463L476 492Q476 385 460 354L460 354Q439 308 387 277Z"/></svg>