<svg id="U292E7" viewBox="0 0 1024 1024"><path transform="translate(0, 921.6) scale(1,-1)" d="M169 679L169 679L73 679L104 647Q117 649 132 651Q147 653 169 653L169 653Q169 620 168 585Q167 550 163 512L163 512L213 530L213 540L257 540L257 439L163 439L114 474Q117 445 117 412L117 412Q117 379 117 339L117 339Q117 297 117 267L117 267Q117 238 114 222L114 222L159 237L159 263L257 263L257 152L60 152L98 115Q127 128 169 128L169 128L257 128Q257 68 256.50 14Q256-40 254-88L254-88L307-62Q305-39 305 8L305 8Q305 55 305 128L305 128L487 128L428 190L389 152L305 152L305 263L395 263L395 237L446 260Q443 292 443 330L443 330Q443 368 443 411L443 411L465 437L415 477L392 439L305 439L305 540L343 540L343 515L392 534Q389 563 389 593L389 593Q389 624 389 653L389 653L497 653L440 717L405 679L389 679L389 754L411 782L336 808Q341 778 342 747Q343 716 343 679L343 679L213 679L213 754L238 782L163 811Q167 779 168 746.50Q169 714 169 679ZM213 568L213 653L343 653L343 568L213 568ZM159 288L159 414L257 414L257 288L159 288ZM305 288L305 414L395 414L395 288L305 288ZM556 152L556 263L840 263L840 152L556 152ZM556 5L556 128L840 128L840 5L556 5ZM500 480L500 480Q500 469 494 458.50Q488 448 484 437L484 437L528 393Q533 408 698 512L698 512L691 521L550 465L550 609L698 609L638 669L603 635L550 635L550 761L575 782L497 814Q497 780 498.50 696.50Q500 613 500 480ZM723 465L723 465Q723 398 793 398L793 398L878 398Q895 398 912 401L912 401Q924 401 956 439L956 439Q930 446 925 483L925 483Q912 506 912 559L912 559L896 559Q896 542 894.50 524.50Q893 507 893 483L893 483Q888 439 868 439L868 439L811 439Q773 439 773 474L773 474L773 600Q802 611 849 624Q896 637 963 653L963 653L906 713Q877 687 842.50 667Q808 647 773 632L773 632L773 761L796 782L720 814Q720 776 721.50 689.50Q723 603 723 465ZM890 67L890 257L912 285L858 326L837 288L619 288Q647 326 668 348.50Q689 371 701 383L701 383L638 424Q631 393 622 359.50Q613 326 597 288L597 288L559 288L500 323Q500 277 501.50 228Q503 179 503 124L503 124Q503 69 501.50 21Q500-27 500-78L500-78L556-54L556-21L840-21L840-72L893-50Q890-21 890 6L890 6Q890 34 890 67L890 67Z"/></svg>