<svg id="U29D97" viewBox="0 0 1024 1024"><path transform="translate(0, 921.6) scale(1,-1)" d="M457 682L457 682L403 732L369 697L249 697Q289 766 315 770L315 770L233 814Q229 773 189 685L189 685Q168 640 137.50 584.50Q107 529 62 468L62 468L75 455Q95 471 111.50 492Q128 513 145 534L145 534Q145 398 144.50 309.50Q144 221 142 181L142 181L196 203L196 234L413 234L413 203L467 231Q464 252 464 324L464 324Q464 397 464 524L464 524L492 550L431 594L407 563L325 563Q420 682 457 682ZM240 669L240 669L369 669L300 563L208 563L177 574Q195 603 210 626Q225 649 240 669ZM196 408L196 534L277 534L277 408L196 408ZM328 408L328 534L413 534L413 408L328 408ZM196 260L196 380L277 380L277 260L196 260ZM328 260L328 380L413 380L413 260L328 260ZM174 152L174 152L158 152Q148 109 137 76.50Q126 44 106 21L106 21Q72-25 103-25L103-25Q125-25 151-13L151-13Q158-3 161.50 6.50Q165 16 171 30L171 30Q179 57 174 152ZM233 162L221 159Q243 83 243 26L243 26Q251-18 274-6L274-6Q301 14 297 52L297 52Q297 89 233 162L233 162ZM312 175L305 165Q354 76 359 42L359 42Q370 3 388 21L388 21Q412 35 407 70L407 70Q407 109 312 175L312 175ZM394 200L385 193Q415 151 433 125.50Q451 100 454 83L454 83Q468 55 485 90L485 90Q510 130 485 146L485 146Q466 165 394 200L394 200ZM665 748L665 748L690 764L611 814Q589 704 559.50 610Q530 516 492 437L492 437L505 430Q527 459 550 497Q573 535 598 581L598 581L870 581L819 458L832 452Q917 581 961 581L961 581L895 647L863 606L605 606Q614 627 628.50 662Q643 697 665 748ZM665 348L586 389Q553 176 476 46L476 46L489 36Q569 131 631 323L631 323L665 348ZM687 39L687 39Q681 0 662 0L662 0Q652 0 625 2Q598 4 561 11L561 11L561 0Q640-29 662-88L662-88Q682-76 697-65Q712-54 721-47L721-47Q726-35 731.50-18.50Q737-2 737 18L737 18L737 465L772 493L683 530Q683 487 685 365Q687 243 687 39ZM801 370L801 370L785 367Q825 273 850 210Q875 147 883 105L883 105Q902 23 924 83L924 83Q945 138 917 197L917 197Q889 255 801 370Z"/></svg>