<svg id="U29B53" viewBox="0 0 1024 1024"><path transform="translate(0, 921.6) scale(1,-1)" d="M197 567L197 567L73 567L107 530Q125 534 145.50 536.50Q166 539 185 542L185 542L262 542Q249 526 234.50 512.50Q220 499 203 486L203 486Q169 455 123 446L123 446L160 393Q183 404 293 415L293 415Q348 422 393 429Q438 436 473 443L473 443Q484 429 495 409L495 409Q507 396 526 415L526 415Q538 442 526 465L526 465Q514 476 485 487.50Q456 499 405 517L405 517L393 508Q411 493 430 483Q449 473 464 462L464 462L197 446Q215 458 234 466Q253 474 272 486L272 486Q290 498 304.50 504Q319 510 334 517L334 517L300 542L597 542L532 601L501 567L247 567L247 601L526 601L473 660L436 626L247 626L247 669L529 669L476 722L439 694L247 694L247 738L560 738L504 793L467 766L253 766L191 790Q195 751 196 695Q197 639 197 567ZM886 756L833 806Q816 788 731 731L731 731Q692 709 646.50 690Q601 671 548 654L548 654L551 635Q671 666 765 713L765 713Q861 751 886 756L886 756ZM926 626L877 682Q835 646 771 620L771 620Q734 601 688 584Q642 567 591 549L591 549L597 536Q648 545 701 559.50Q754 574 808 595L808 595Q904 626 926 626L926 626ZM951 505L898 561Q885 537 796 499L796 499Q712 459 551 421L551 421L554 403Q706 428 815 465L815 465Q863 480 898.50 491Q934 502 951 505L951 505ZM870 403L830 365L95 365L132 328Q153 330 170.50 332Q188 334 207 337L207 337L411 337Q411 323 410.50 304.50Q410 286 408 263L408 263L259 263L203 288L207 195L207 102L207 10L203-83L259-64L259-30L774-30L774-73L830-61L827 83L827 229L855 254L799 300L765 263L616 263L616 337L933 337L870 403ZM467 337L563 337L563 263L458 263Q458 269 461 288Q464 307 467 337L467 337ZM259 238L405 238Q389 165 259 99L259 99L262 86Q420 118 455 238L455 238L563 238L563 173Q563 120 619 120L619 120L774 120L774-5L259-5L259 238ZM616 238L774 238L774 161L650 161Q616 161 616 192L616 192L616 238ZM247 71L247 46L793 46L793 71L247 71Z"/></svg>