<svg id="U2963F" viewBox="0 0 1024 1024"><path transform="translate(0, 921.6) scale(1,-1)" d="M866 558L617 558L601 360L906 360L939 384L983 337L953 317Q942 226 934.50 174.50Q927 123 923 105L923 105Q917 84 905.50 67Q894 50 882 35L882 35Q862 12 805-5L805-5Q800 42 765 55L765 55Q733 69 705 75L705 75L711 92Q736 86 759.50 81.50Q783 77 798 75L798 75Q834 70 849 85L849 85Q864 95 879 146L879 146Q884 170 890.50 215.50Q897 261 902 333L902 333L607 333L577 310L537 347L554 364Q561 430 564 490.50Q567 551 570 612L570 612L617 585L866 585L866 766L654 766Q633 766 612 762Q591 758 574 756L574 756L537 793L862 793L896 823L946 776L919 756L919 635Q919 566 923 558L923 558L866 538L866 558ZM601 172L775 172L775 239L601 239L601 172ZM597 270L775 270L798 297L846 253L822 233L822 203L822 174Q822 158 825 139L825 139L775 125L775 146L601 146L601 129L550 112Q550 142 552 168Q554 194 554 209L554 209Q554 227 552 245.50Q550 264 550 290L550 290L597 270ZM597 692L564 729L738 729L775 756L822 699L715 699L715 652L775 652L815 682L862 625L607 625L564 615L527 652L671 652L671 699L637 699L597 692ZM678 468L641 504L839 504L869 528L919 478L805 478L805 427L876 427L916 461L970 400L721 400Q701 400 683 398Q665 396 648 394L648 394L611 427L755 427L755 478L715 478L678 468ZM275 491L228 491L228 273L275 273L275 491ZM362 273L362 491L319 491L319 273L362 273ZM386 551L440 501L406 478L406 357Q406 324 406.50 293.50Q407 263 410 236L410 236L362 216L362 243L319 243L319 95L406 112L373 172L386 179Q411 152 430.50 126.50Q450 101 466 78L466 78Q494 38 470-5L470-5Q448-39 440 8L440 8Q432 35 424.50 54.50Q417 74 410 92L410 92Q331 69 271 46.50Q211 24 171 5L171 5L124 55Q164 64 201.50 71Q239 78 275 89L275 89L275 243L228 243L228 203L181 179L185 273L185 364L185 458L181 551L235 521L275 521L275 615L248 615L208 612L191 605L151 645L342 645L393 682L440 615L319 615L319 521L362 521L386 551ZM446 501L446 501L446 749L144 749Q149 576 145 447Q141 318 134 233L134 233Q126 142 102.50 61.50Q79-19 34-92L34-92L20-82Q55 15 73 118Q91 221 94 327L94 327Q98 543 94 816L94 816L155 776L446 776L477 813L527 756L493 733L493 427Q484 143 607 52L607 52Q730-38 909-38L909-38L926 62L943 62Q937-27 970-55L970-55Q1004-85 916-92L916-92Q868-94 813-84.50Q758-75 695-55L695-55Q567-15 503 95L503 95Q467 150 455 250Q443 350 446 501Z"/></svg>