<svg id="U29266" viewBox="0 0 1024 1024"><path transform="translate(0, 921.6) scale(1,-1)" d="M174 685L174 685L78 685L109 647Q122 651 139 655.50Q156 660 174 660L174 660Q174 624 173 588.50Q172 553 168 515L168 515L224 534L224 546L268 546L268 448L174 448L117 474Q119 445 119.50 413.50Q120 382 120 342L120 342Q120 304 119.50 272Q119 240 117 222L117 222L168 241L168 272L268 272L268 162L62 162L100 124Q116 127 132 129.50Q148 132 168 137L168 137L268 137Q268 71 267 18.50Q266-34 262-85L262-85L322-57Q319-35 318.50 12Q318 59 318 137L318 137L526 137L464 200L420 162L318 162L318 272L420 272L420 241L470 263Q467 298 467 332L467 332Q467 366 467 401L467 401L495 430L448 477L420 448L318 448L318 546L359 546L359 518L416 537Q413 567 413 599L413 599Q413 631 413 660L413 660L526 660L467 726L429 685L413 685L413 758L431 782L356 808Q358 778 358.50 747.50Q359 717 359 685L359 685L224 685L224 758L249 776L168 811Q172 779 173 747Q174 715 174 685ZM224 571L224 660L359 660L359 571L224 571ZM168 298L168 420L268 420L268 298L168 298ZM318 298L318 420L420 420L420 298L318 298ZM391-62L391-62L394-75Q527 24 590 181L590 181Q652 339 687 553L687 553L961 553L898 628L857 581L690 578Q694 626 697.50 659.50Q701 693 706 720L706 720Q708 740 714 756.50Q720 773 724 786L724 786L652 808Q652 746 643 581L643 581L485 581L523 546Q558 553 593 553L593 553L639 553Q616 432 593 335Q570 238 542 168L542 168Q488 38 391-62ZM832 200L832 200L816 197Q835 152 849 119Q863 86 873 59L873 59L649 39Q675 84 698 128.50Q721 173 737 216L737 216Q754 261 767 291.50Q780 322 788 342L788 342Q795 357 802 372Q809 387 819 398L819 398L747 439Q737 347 700 241L700 241Q682 186 664.50 149Q647 112 634 87L634 87Q608 43 583 33L583 33L621-31Q645-14 709 0L709 0Q739 5 781.50 13.50Q824 22 879 30L879 30Q882 13 884.50-0.50Q887-14 891-28L891-28Q896-51 914-34L914-34Q930-18 935 2L935 2Q935 28 924 64L924 64Q912 90 832 200Z"/></svg>