<svg id="U29C66" viewBox="0 0 1024 1024"><path transform="translate(0, 921.6) scale(1,-1)" d="M191 333L191 333L954 333L894 401L843 362L308 362Q453 386 489 448L489 448L553 448L553 435L595 445Q592 462 592 476L592 476Q592 491 592 505L592 505L607 519L553 537L553 477L493 477Q493 485 494.50 494Q496 503 496 508L496 508L518 527L458 543L630 543Q623 429 614 420L614 420Q602 403 518 420L518 420L518 404Q584 399 595 366L595 366Q653 373 658 420L658 420Q665 438 668.50 469Q672 500 674 543L674 543L693 562L652 588L630 569L464 569L493 585L518 595L471 617Q476 619 481 624Q486 629 493 636L493 636L559 636L559 626L601 636Q598 653 597.50 664Q597 675 597 680L597 680L614 696L559 715L559 661L502 661Q506 672 509 683Q512 694 515 699L515 699L531 712L474 725L639 725Q635 682 632.50 657.50Q630 633 626 626L626 626Q614 614 538 623L538 623L534 607Q589 597 607 576L607 576Q630 580 645 591.50Q660 603 668 620L668 620Q671 633 674.50 660.50Q678 688 680 731L680 731L706 741L658 779L635 753L451 753L483 779L508 788L451 814Q408 742 324 684L324 684L333 674L381 699L381 664L359 652L394 623L413 636L451 636Q421 606 324 585L324 585L333 576Q370 579 398.50 586Q427 593 449 604L449 604Q392 547 314 505L314 505L318 496L375 519L375 480L356 465L394 439L413 448L444 448Q403 399 305 369L305 369L308 362L69 362L111 328Q123 331 143 332Q163 333 191 333ZM257 318L257 181L305 191L305 200L731 200L731 187L779 203L779 270L807 289L750 328L729 302L305 302L257 318ZM305 274L731 274L731 225L305 225L305 274ZM197 161L142 187L142-87L197-72L197 133L347 133Q369 115 385.50 96.50Q402 78 413 57L413 57L235 57L273 25Q316 31 352 31L352 31L480 31L480-72L534-63L534 31L807 31L744 92L706 57L576 57Q606 78 632.50 93Q659 108 680 117L680 117L620 133L833 133L833 0Q833-27 693-9L693-9L693-28Q807-36 807-82L807-82Q887-58 887 0L887 0L887 130L909 152L862 194L830 161L197 161ZM375 133L607 133Q599 121 583 102Q567 83 540 57L540 57L432 57Q490 109 375 133L375 133ZM168 560L178 633L257 633L314 633L302 655L302 687L302 744L321 763L279 788L254 769L107 769L146 734Q167 736 186 738.50Q205 741 225 741L225 741L257 741L257 658L178 658L137 684Q131 655 128.50 627Q126 599 123 576L123 576L102 562L140 524L161 534L241 534Q237 493 229 467L229 467Q225 442 210 435L210 435L180 435Q169 438 152 438.50Q135 439 118 442L118 442L118 426Q174 417 191 369L191 369Q239 383 248 404L248 404Q263 419 267 439L267 439Q274 448 286 527L286 527L308 553L267 581L241 560L168 560ZM750 562L772 623L852 623L913 623L897 645L897 680L897 737L922 757L868 791L849 760L709 760L748 725Q776 734 826 734L826 734L852 734L852 652L772 652L731 671Q731 620 709 569L709 569L690 557L731 522L750 537L862 537Q854 497 851 473.50Q848 450 843 445L843 445Q827 435 814 435L814 435Q806 435 788 435.50Q770 436 744 439L744 439L744 423Q808 412 824 369L824 369Q860 385 868 401L868 401Q883 422 890 442L890 442Q893 453 895.50 475Q898 497 906 534L906 534L929 560L878 588L862 562L750 562ZM425 725L474 725Q474 687 464 661L464 661L420 661L420 684L439 699L401 712L425 725ZM432 543L458 543Q458 529 457.50 513Q457 497 455 477L455 477L413 477L413 503L432 519L397 527L432 543Z"/></svg>