<svg id="U29B73" viewBox="0 0 1024 1024"><path transform="translate(0, 921.6) scale(1,-1)" d="M177 589L177 589L46 589L84 551Q111 564 161 564L161 564L250 564Q242 553 227 538Q212 523 190 506L190 506Q147 478 100 478L100 478L139 417Q150 422 182 427.50Q214 433 269 443L269 443Q321 447 371 455Q421 463 467 468L467 468Q471 461 477 452Q483 443 492 436L492 436Q504 405 518 443L518 443Q535 469 514 491L514 491Q504 504 387 542L387 542L378 529Q399 519 417 506Q435 493 454 481L454 481L183 471Q223 488 260 510L260 510Q273 517 288 523.50Q303 530 320 535L320 535L282 564L588 564L524 621L486 589L231 589L231 621L514 621L460 678L425 647L231 647L231 682L518 682L467 742L429 707L231 707L231 745L550 745L492 815L451 774L234 774L174 800Q176 766 176.50 712Q177 658 177 589ZM897 758L846 806Q823 787 734 745L734 745Q692 725 647 708Q602 691 553 678L553 678L553 663Q685 686 773 723L773 723Q824 737 853 747.50Q882 758 897 758L897 758ZM929 643L884 701Q851 665 769 637L769 637Q727 620 681.50 602Q636 584 585 570L585 570L588 557Q639 564 692.50 577.50Q746 591 801 608L801 608Q852 627 884.50 635Q917 643 929 643L929 643ZM958 529L903 586Q875 558 785 522L785 522Q731 503 675 485.50Q619 468 550 459L550 459L550 443Q710 456 811 491L811 491Q863 505 898.50 514Q934 523 958 529L958 529ZM212 92L212 92L199 92Q164 33 116 14L116 14Q71-12 100-27L100-27Q133-35 161-17L161-17Q194 18 212 92ZM368 95L282 130Q286 103 287 81Q288 59 288 38L288 38L288-5Q288-72 352-72L352-72L664-72Q721-72 754-27L754-27Q729-21 722-5L722-5Q712 16 712 57L712 57L693 57Q693-25 661-30L661-30L371-30Q339-24 339 2L339 2L339 73L368 95ZM448 137L448 137L438 127Q509 79 527 44L527 44Q548 12 572 38L572 38Q597 77 565 92L565 92Q527 117 448 137ZM785 99L785 99L773 92Q797 70 811 52.50Q825 35 830 28L830 28Q837 20 843.50 12Q850 4 862-11L862-11Q874-37 900-8L900-8Q915 20 884 48L884 48Q846 79 785 99ZM413 424L343 462Q320 402 272 363L272 363Q223 313 145 267L145 267L151 255Q202 273 249.50 298.50Q297 324 343 360L343 360L448 360Q364 248 196 191L196 191L196 172Q302 198 381 244Q460 290 511 360L511 360L623 360Q569 273 460 213L460 213Q412 184 356.50 162.50Q301 141 244 127L244 127L244 111Q376 133 496 188L496 188Q610 243 687 360L687 360L760 360Q752 309 746.50 274.50Q741 240 734 216L734 216Q723 177 703 165L703 165Q691 162 656.50 163Q622 164 562 172L562 172L553 156Q662 137 677 95L677 95Q708 101 747 130L747 130Q784 152 814 354L814 354L846 382L785 420L760 385L358 385Q370 394 378.50 399.50Q387 405 390 408L390 408Q401 412 413 424L413 424Z"/></svg>