<svg id="U295F5" viewBox="0 0 1024 1024"><path transform="translate(0, 921.6) scale(1,-1)" d="M978 539L951 512L951 149Q941 75 876 61L876 61Q865 115 788 132L788 132L788 146Q810 138 832.50 136.50Q855 135 873 132L873 132Q900 132 900 173L900 173L900 529L608 529L608 98L561 78L561 458Q561 488 559 521Q557 554 557 590L557 590L625 559L730 559L730 719Q730 741 728.50 771Q727 801 727 834L727 834L812 796L781 769L781 559L896 559L927 590L978 539ZM893 780L893 780L957 735Q944 724 928.50 709Q913 694 896 674L896 674Q881 656 860 631.50Q839 607 812 580L812 580L802 586Q830 634 852.50 682.50Q875 731 893 780ZM568 756L568 756L581 769Q611 741 631.50 721Q652 701 663 688L663 688Q695 650 663 614L663 614Q639 581 625 637L625 637Q614 698 568 756ZM666 193L666 461L713 437L788 437L812 475L866 424L839 400L839 230L791 207L791 241L713 241L713 214L666 193ZM713 271L791 271L791 407L713 407L713 271ZM273 498L232 498L232 275L273 275L273 498ZM364 275L364 498L320 498L320 275L364 275ZM388 559L439 505L408 481L408 359Q408 326 408.50 295.50Q409 265 412 237L412 237L364 217L364 247L320 247L320 98L408 112L375 173L388 183Q415 152 434.50 126.50Q454 101 469 81L469 81Q497 35 473-3L473-3Q453-37 439 7L439 7Q433 34 425 54Q417 74 412 92L412 92Q333 68 271.50 45.50Q210 23 168 3L168 3L124 58Q164 65 202 72.50Q240 80 273 88L273 88L273 247L232 247L232 207L185 183L185 559L232 525L273 525L273 624L249 624L208 617L188 610L147 651L344 651L395 688L439 624L320 624L320 525L364 525L388 559ZM449 505L449 505L449 756L144 756Q146 579 143.50 450.50Q141 322 134 234L134 234Q118 43 32-94L32-94L18-84Q51 13 69 116.50Q87 220 93 332L93 332Q97 552 93 824L93 824L154 783L449 783L480 820L530 763L496 739L496 434Q486 148 625 51L625 51Q697 0 768-21Q839-42 917-40L917-40L934 61L951 61Q941-24 978-57L978-57Q1004-83 927-94L927-94Q882-96 831-87.50Q780-79 720-60L720-60Q590-18 517 88L517 88Q475 146 460.50 248Q446 350 449 505Z"/></svg>