<svg id="U29AB7" viewBox="0 0 1024 1024"><path transform="translate(0, 921.6) scale(1,-1)" d="M568 685L568 685L561 679Q573 659 581.50 635Q590 611 598 585L598 585Q609 536 630 565L630 565Q649 603 630 627L630 627Q617 639 603.50 653.50Q590 668 568 685ZM841 780L841 780L779 822Q779 782 753 719L753 719L643 719L678 679Q695 683 707 687.50Q719 692 724 692L724 692L746 692Q730 653 704 609.50Q678 566 643 517L643 517L649 511Q672 520 696 543Q720 566 746 598L746 598L792 598L792 511L681 511L708 471Q723 473 737 475.50Q751 478 769 481L769 481L958 481L909 546L873 511L838 511L838 595L913 595L870 660L831 624L763 624Q767 639 776 655.50Q785 672 792 692L792 692L948 692L906 754L864 719L802 719Q807 733 812.50 741Q818 749 821 757L821 757Q821 769 841 780ZM438-65L438 722L506 722Q491 650 476.50 583Q462 516 448 445L448 445Q496 371 509 306L509 306Q524 241 519 214L519 214Q508 179 503 179L503 179Q499 175 445 186L445 186L445 172Q485 152 500 104L500 104Q541 130 558 163L558 163Q568 193 568 241L568 241Q565 264 559 287.50Q553 311 541 338L541 338Q530 361 512.50 389Q495 417 470 452L470 452Q487 517 508.50 583.50Q530 650 551 715L551 715L581 737L532 787L509 747L431 747L389 780Q392 735 392.50 638.50Q393 542 393 390L393 390Q393 235 392.50 117Q392-1 389-90L389-90L438-65ZM961-38L961-38L961-25Q889-30 838-25L838-25Q811-22 782.50-18.50Q754-15 728-6L728-6Q700 0 681 12.50Q662 25 649 42L649 42L649 400L678 426L630 471L606 442L532 442L561 403Q583 416 591 416L591 416L606 416L606 52Q571 15 549.50-9.50Q528-34 519-55L519-55L568-80Q576-58 591-30.50Q606-3 626 29L626 29Q664-21 724-55L724-55Q779-80 913-80L913-80Q925-55 961-38ZM97 511L97 552L80 552Q77 532 73 515.50Q69 499 67 484L67 484Q64 453 45 426L45 426Q24 397 45 384L45 384Q61 371 80 394L80 394Q97 416 97 481L97 481L340 481L308 413L318 403Q329 419 338.50 431.50Q348 444 357 452L357 452Q363 457 375.50 464.50Q388 472 402 478L402 478L363 536L337 511L318 511L318 725L343 754L298 803L268 767L158 767L116 800Q119 755 119.50 683Q120 611 120 511L120 511L97 511ZM161 664L161 741L272 741L272 511L236 511L236 630L250 640L220 685L191 664L161 664ZM161 511L161 637L198 637L198 511L161 511ZM158 397L106 426Q109 391 109.50 325.50Q110 260 110 163L110 163Q110 65 109.50-1Q109-67 106-103L106-103L158-77L158 121L268 121L268 9Q268-22 250-22L250-22Q242-22 225-20Q208-18 185-16L185-16L181-28Q255-48 259-103L259-103Q318-79 318-16L318-16L318 351L343 377L301 432L272 397L158 397ZM158 273L158 371L268 371L268 273L158 273ZM158 149L158 244L268 244L268 149L158 149ZM763 306L763 384L861 384L861 306L763 306ZM763 211L763 279L861 279L861 211L763 211ZM763 413L718 436L721 384L721 341L721 114L721 62L718 9L763 36L763 182L861 182L861 117Q861 87 851 74L851 74Q845 74 830 76Q815 78 792 81L792 81L792 71Q851 48 851 13L851 13Q903 36 903 94L903 94L903 371L929 390L883 442L854 413L763 413Z"/></svg>