<svg id="U29E4B" viewBox="0 0 1024 1024"><path transform="translate(0, 921.6) scale(1,-1)" d="M711 414L711 527L843 527L843 414L711 414ZM528 270L547 386L660 386L660 270L528 270ZM657-85L657-85L714-60L711 49L711 244L871 244Q868 187 865 153.50Q862 120 862 111L862 111Q857 93 849 93L849 93Q842 93 822.50 94Q803 95 770 103L770 103L770 87Q843 62 843 23L843 23Q893 37 909 90L909 90Q911 118 913.50 155Q916 192 919 237L919 237L950 260L896 304L871 270L711 270L711 386L843 386L843 354L896 380Q893 409 893 443L893 443Q893 477 893 515L893 515L925 534L871 581L840 553L484 553L518 515Q542 527 578 527L578 527L660 527L660 414L550 414L506 442Q501 390 494 347.50Q487 305 480 270L480 270L459 260L503 213L528 244L629 244Q537 83 387-6L387-6L392-19Q562 50 660 200L660 200Q660 127 658.50 56Q657-15 657-85ZM623 685L594 685L594 748L626 767L541 805L544 745L544 685L433 685L471 647L510 656L541 656L544 656L544 563L594 581L594 656L711 656L657 710L623 685ZM783 685L783 685L695 685L732 647L770 656L783 656L783 574L834 594L834 656L960 656L909 717L875 685L834 685L834 751L862 773L780 805Q780 775 781.50 745Q783 715 783 685ZM428 685L428 685L374 741L343 697L232 697Q266 767 292 773L292 773L216 811Q214 793 203.50 762.50Q193 732 176 688L176 688Q134 590 63 483L63 483L73 474Q115 516 128 546L128 546Q128 407 127 322Q126 237 122 200L122 200L172 222L172 247L387 247L387 222L433 241L430 288L430 530L459 553L408 600L377 568L298 568Q395 685 428 685ZM220 672L220 672L343 672L276 568L181 568L156 581Q175 606 190 629.50Q205 653 220 672ZM172 417L172 540L257 540L257 417L172 417ZM305 417L305 540L387 540L387 417L305 417ZM172 275L172 393L257 393L257 275L172 275ZM305 275L305 393L387 393L387 275L305 275ZM153 168L153 168L138 168Q121 82 92 42L92 42Q56-3 86-3L86-3Q119-1 131 8L131 8Q137 14 150 52L150 52Q152 65 153.50 94Q155 123 153 168ZM213 181L200 178Q225 91 225 49L225 49Q229 1 251 14L251 14Q277 37 273 70L273 70Q273 106 213 181L213 181ZM289 190L279 185Q329 93 333 64L333 64Q338 20 361 42L361 42Q385 60 377 93L377 93Q377 130 289 190L289 190ZM371 219L361 209Q420 141 430 93L430 93Q444 55 462 87L462 87Q483 121 465 149L465 149Q453 161 430.50 178Q408 195 371 219L371 219Z"/></svg>