<svg id="U29166" viewBox="0 0 1024 1024"><path transform="translate(0, 921.6) scale(1,-1)" d="M799 542L603 542L603 517L799 517L799 542ZM484 488L484 488L550 501Q547 521 547 560L547 560Q547 600 547 664L547 664L871 664L840 604L852 592Q909 665 960 674L960 674L893 722L865 689L547 689L547 753L871 753L805 813L764 781L179 781L220 743Q243 745 262 748Q281 751 295 753L295 753L487 753L487 689L179 689L179 722L163 722Q152 667 111 633L111 633Q73 599 89 589L89 589Q102 574 125 579L125 579Q153 592 163 607L163 607Q179 626 179 664L179 664L487 664Q487 595 485.50 552Q484 509 484 488ZM428 627L235 627L235 599L428 599L428 627ZM789 627L603 627L603 599L789 599L789 627ZM428 542L225 542L225 517L428 517L428 542ZM541 126L541 180L749 180L749 126L541 126ZM802 255L802 255L834 277L773 318L742 286L279 286L216 309Q219 287 219.50 260.50Q220 234 220 205L220 205Q220 176 219.50 142.50Q219 109 216 69L216 69L273 88L273 101L487 101L487 47L63 47L101 13Q118 15 136 18.50Q154 22 176 22L176 22L487 22Q487 0 485.50-27.50Q484-55 484-86L484-86L547-64Q541-49 541 22L541 22L956 22L871 101L799 47L541 47L541 101L749 101L749 85L805 107Q803 123 802.50 160.50Q802 198 802 255ZM273 208L273 262L487 262L487 208L273 208ZM541 208L541 262L749 262L749 208L541 208ZM273 126L273 180L487 180L487 126L273 126ZM245 362L245 432L399 432L399 362L245 362ZM824 438L824 438L846 460L796 491L773 460L623 460L565 476Q565 456 567 435.50Q569 415 569 396L569 396Q569 378 567 357Q565 336 565 314L565 314L619 334L619 337L777 337L777 318L827 334Q824 343 824 369L824 369Q824 396 824 438ZM194 314L194 314L245 334L245 337L399 337L399 314L452 334Q449 347 449 432L449 432L474 453L418 488L395 457L251 457L194 479Q196 459 196.50 439Q197 419 197 403L197 403Q197 386 196.50 364.50Q196 343 194 314ZM619 362L619 435L777 435L777 362L619 362Z"/></svg>