<svg id="U29FE6" viewBox="0 0 1024 1024"><path transform="translate(0, 921.6) scale(1,-1)" d="M177 354L177 669L372 669L372 354L177 354ZM315 250L315 250L303 234Q319 206 332.50 179.50Q346 153 353 121L353 121Q367 91 375 63.50Q383 36 385 11L385 11Q388-51 423-19L423-19Q452 10 429 70L429 70Q415 125 315 250ZM423 477L423 656L451 679L403 729L372 694L177 694L127 720Q129 687 129.50 633Q130 579 130 509L130 509Q130 439 129.50 378.50Q129 318 127 270L127 270L177 294L177 329L372 329L372 275L426 301Q423 346 423 389L423 389Q423 432 423 477L423 477ZM262 219L183 266Q165 171 130 87L130 87Q115 49 96.50 12.50Q78-24 59-60L59-60L72-72Q117-9 158 57.50Q199 124 230 203L230 203L262 219ZM517 606L517 606L517 342Q517 313 515 283.50Q513 254 513 219L513 219L564 237L564 270L876 270Q876 224 874.50 185Q873 146 873 111L873 111Q871 78 866 54Q861 30 854 14L854 14Q842-16 813-16L813-16Q799-16 775-15.50Q751-15 719-13L719-13L719-28Q806-42 806-85L806-85Q843-80 876-47L876-47Q904-14 914 33L914 33Q921 54 924 112.50Q927 171 930 270L930 270L955 288L907 329L876 294L564 294L564 367L965 367L911 437L870 393L564 393L564 465L801 465L801 442L857 465L854 521L854 656L879 676L829 720L798 682L652 682L693 758L721 776L646 811Q646 774 624 682L624 682L555 682L513 710Q513 681 515 655.50Q517 630 517 606ZM801 656L801 581L564 581L564 656L801 656ZM801 556L801 489L564 489L564 556L801 556ZM675 213L675 213L662 206Q669 191 675.50 176.50Q682 162 690 146L690 146Q697 132 700 115.50Q703 99 703 87L703 87Q710 59 721 59L721 59Q738 59 750 77L750 77Q763 95 753 128L753 128Q746 150 675 213ZM763 229L763 229L753 219Q758 209 766 195.50Q774 182 781 165L781 165Q798 114 798 99L798 99Q798 74 816 74L816 74Q834 79 847 103L847 103Q858 127 835 156L835 156Q821 172 803 190.50Q785 209 763 229ZM593 197L593 197L580 190Q582 179 585 165Q588 151 596 137L596 137Q597 122 599.50 107Q602 92 602 74L602 74Q602 39 621 39L621 39Q637 39 652 62L652 62Q659 84 646 121L646 121Q638 140 624.50 157.50Q611 175 593 197ZM533 190L533 190L517 190Q517 159 505 134L505 134Q499 109 467 77L467 77Q437 42 451 30L451 30Q467 14 498 23L498 23Q522 43 533 74L533 74Q540 105 533 190Z"/></svg>