<svg id="U2992F" viewBox="0 0 1000 1000"><path transform="translate(0, 900) scale(1,-1)" d="M168 77C148 31 114-30 75-66L135-96C173-57 203 3 226 51ZM296 38C306 4 313-41 314-70L380-60C379-31 370 13 359 47ZM447 39C465 9 485-34 492-61L552-41C543-15 524 25 505 55ZM461 718L461 643L187 643L187 517L55 517L55 464L374 464C313 426 210 390 35 362C48 348 66 323 74 309C130 319 180 331 223 343L223 75L827 75C818 18 810-8 800-19C793-25 784-26 771-26C758-26 724-26 687-22L708-14C699 9 678 42 657 67L605 48C624 22 643-12 653-36L685-23C694-38 700-62 701-79C744-82 783-82 804-80C827-79 843-73 858-61C878-41 890 2 901 99C903 109 904 127 904 127L570 127L570 167L804 167L804 212L570 212L570 250L805 250L805 295L570 295L570 335L812 335L812 343C849 332 887 323 924 317C933 333 951 359 965 373C854 388 737 420 653 464L946 464L946 517L821 517L821 643L528 643L528 718ZM258 517L258 591L460 591C459 567 452 542 434 517ZM747 517L510 517C521 542 526 567 528 591L747 591ZM555 464C593 434 640 407 692 385L347 385C405 410 444 436 472 464ZM296 250L498 250L498 212L296 212ZM296 295L296 335L498 335L498 295ZM296 167L498 167L498 127L296 127ZM265 840L265 782L54 782L54 724L265 724L265 668L337 668L337 724L468 724L468 782L337 782L337 840ZM668 840L668 783L525 783L525 725L668 725L668 668L740 668L740 725L940 725L940 783L740 783L740 840Z"/></svg>