<svg id="U29980" viewBox="0 0 1024 1024"><path transform="translate(0, 921.6) scale(1,-1)" d="M156 284L107 271Q110 333 110.50 396Q111 459 111 521L111 521Q111 582 110.50 644.50Q110 707 107 770L107 770L156 744L337 744L385 779L430 719L290 719L290 606L328 606L367 645L411 581L290 581L290 473L325 473L363 508L411 447L290 447L290 332L370 335L392 363L437 315L415 297Q407 172 400 101Q393 30 389 12L389 12Q378-27 353-58L353-58Q335-77 296-96L296-96Q290-37 210-20L210-20L210-7Q245-11 270.50-15.50Q296-20 305-20L305-20Q315-14 325-3.50Q335 7 344 31L344 31Q350 58 357 126Q364 194 367 310L367 310L156 303L156 284ZM245 719L156 719L156 606L245 606L245 719ZM245 581L156 581L156 473L245 473L245 581ZM245 447L156 447L156 328L245 332L245 447ZM91 210L91 210L107 210Q114 169 115 140Q116 111 114 95L114 95Q110 65 91 47L91 47Q75 33 59 47L59 47Q49 57 69 92L69 92Q91 129 91 210ZM133 217L133 217L139 223Q158 199 169 181.50Q180 164 190 149L190 149Q202 125 197 99L197 99Q190 72 171 69L171 69Q152 53 152 107L152 107Q157 149 133 217ZM197 232L197 232L200 239Q273 174 277 152L277 152Q286 127 277 111L277 111Q273 96 254 92L254 92Q241 92 235 127L235 127Q235 144 226.50 170Q218 196 197 232ZM264 252L264 252L274 258Q320 224 332 194L332 194Q341 156 337 149L337 149Q337 134 319 121L319 121Q303 111 296 146L296 146Q289 188 264 252ZM619 348L564 325Q564 349 566 401Q568 453 568 530L568 530Q536 479 495.50 437.50Q455 396 402 367L402 367L392 376Q445 429 482 483Q519 537 546 587L546 587L533 587Q510 587 492.50 585Q475 583 456 581L456 581L423 613L568 613L568 719Q543 703 453 699L453 699L453 719Q550 734 593 757L593 757Q641 775 673 808L673 808L718 744Q692 741 665.50 735Q639 729 613 725L613 725L613 613L644 613L689 657L737 587L613 587L613 559Q676 529 702 504L702 504Q729 480 709 443L709 443Q694 401 673 450L673 450Q658 491 613 533L613 533Q613 466 613.50 417Q614 368 619 348L619 348ZM811 709L792 684L792 587Q792 554 792.50 528Q793 502 797 485L797 485L744 463Q744 501 745.50 538Q747 575 747 606L747 606Q747 638 745.50 673.50Q744 709 744 750L744 750L811 709ZM869 440L869 667Q869 711 867 745.50Q865 780 865 814L865 814L939 776L917 747L917 415Q917 346 862 332L862 332Q851 377 782 393L782 393L782 408Q815 403 833 402.50Q851 402 859 402L859 402Q863 406 869 440L869 440ZM661 357L737 325L712 303L712 248L855 248L904 290L958 223L744 223Q832 41 974 12L974 12L974-4Q921-4 900-42L900-42Q794 18 724 223L724 223L712 223L712 72Q712 31 712-7Q712-45 718-83L718-83L661-105Q661-69 662.50-30Q664 9 664 47L664 47L664 194Q580 33 427-67L427-67L421-58Q488 10 538.50 78Q589 146 619 223L619 223L539 223Q515 223 497 219.50Q479 216 462 213L462 213L427 248L664 248Q664 277 662.50 304Q661 331 661 357L661 357Z"/></svg>