<svg id="U29AF" viewBox="0 0 789 1000"><path transform="translate(0, 900) scale(1,-1)" d="M613 0L542 0L542 126Q478 139 421 166Q364 193 314 235L314 235L166 106L256 97L307 38L51 54L72 307L123 249L119 159L262 284Q222 327 192 381L192 381L256 417Q285 365 317 333L317 333L563 550L613 550L613 190Q621 189 629 189Q637 189 644 189L644 189Q664 189 682.50 190.50Q701 192 718 196L718 196L738 125Q695 116 646 116L646 116Q638 116 629.50 116Q621 116 613 117L613 117L613 0ZM542 200L542 200L542 435L369 284Q445 223 542 200Z"/></svg>