<svg id="U29202" viewBox="0 0 1024 1024"><path transform="translate(0, 921.6) scale(1,-1)" d="M203 706L203 706L79 706L116 672Q131 674 151 676Q171 678 190 678L190 678L203 678L203 593L88 593L124 556Q138 558 156 560Q174 562 196 564L196 564L203 564L203 467L75 467L113 436Q128 438 145 439.50Q162 441 183 441L183 441L203 441Q203 418 202 396.50Q201 375 196 356L196 356L250 369L250 757L281 772L196 804Q201 782 202 758Q203 734 203 706ZM363 441L363 441L509 441L458 492L424 467L363 467L363 564L483 564L439 615L401 593L363 593L363 678L489 678L445 726L411 706L363 706L363 754L389 770L309 795Q311 785 312 763.50Q313 742 313 710L313 710L313 360L366 379Q363 382 363 441ZM250 363L250 269L165 269L116 291L116 61L165 76L165 96L250 96L250-4Q199-8 155-12.50Q111-17 69-20L69-20L98-76Q138-57 411-10L411-10Q423-28 431.50-43Q440-58 445-69L445-69Q459-87 480-45L480-45Q493 6 360 73L360 73L347 67L401 7L301 0L301 96L383 96L383 76L430 92L430 240L448 259L398 300L379 269L301 269L301 310L322 332L250 363ZM250 243L250 124L165 124L165 243L250 243ZM383 243L383 124L301 124L301 243L383 243ZM638 706L638 706L514 706L546 672Q564 674 583 676Q602 678 622 678L622 678L638 678L638 593L517 593L553 556Q568 558 586.50 560Q605 562 625 564L625 564L638 564L638 467L505 467L540 436Q556 438 576 439.50Q596 441 615 441L615 441L638 441Q638 408 636 380Q634 352 634 328L634 328L687 348L687 757L713 775L634 804Q634 782 636 758Q638 734 638 706ZM798 441L798 441L946 441L892 502L854 467L798 467L798 564L924 564L870 621L836 593L798 593L798 678L931 678L877 738L846 706L798 706L798 754L826 772L748 798Q748 783 749.50 761.50Q751 740 751 710L751 710L751 332L805 356Q799 371 798.50 392Q798 413 798 441ZM769 178L769 178Q782 212 769 243L769 243Q758 258 734 277Q710 296 675 325L675 325L669 310Q712 241 732 193L732 193Q745 144 769 178ZM571 212L571 212L553 212Q547 174 536 139Q525 104 502 76L502 76Q461 25 517 29L517 29Q575 33 571 212ZM672 196L694 225L622 253L622 0Q622-57 681-57L681-57L785-57Q835-57 864-10L864-10Q825 2 829 114L829 114L813 114Q809-16 772-16L772-16L694-16Q672-7 672 11L672 11L672 196ZM952 61L952 61Q973 123 846 225L846 225L836 212Q902 113 915 55L915 55Q921 28 929 31Q937 34 952 61Z"/></svg>