<svg id="U29360" viewBox="0 0 1024 1024"><path transform="translate(0, 921.6) scale(1,-1)" d="M148 669L148 669L59 669L94 632Q110 644 148 644L148 644Q148 608 147 574.50Q146 541 142 506L142 506L192 518L192 530L227 530L227 433L155 433L100 455Q103 434 103 402L103 402Q103 370 103 332L103 332Q103 294 103 266L103 266Q103 238 100 222L100 222L151 237L151 260L227 260L227 149L65 149L100 118Q116 120 135 122Q154 124 174 124L174 124L227 124Q227 64 226 12Q225-40 221-88L221-88L274-62Q271-39 271 7L271 7Q271 54 271 124L271 124L429 124L369 188L331 149L271 149L271 260L344 260L344 234L394 257Q391 287 391 323L391 323Q391 359 391 401L391 401L410 427L366 468L344 433L271 433L271 530L303 530L303 509L350 527Q347 556 346.50 585.50Q346 615 346 644L346 644L431 644L382 707L350 669L346 669L346 745L369 770L297 798Q301 770 302 738.50Q303 707 303 669L303 669L192 669L192 741L215 767L142 798Q146 768 147 734.50Q148 701 148 669ZM192 556L192 644L303 644L303 556L192 556ZM151 285L151 408L227 408L227 285L151 285ZM271 285L271 408L344 408L344 285L271 285ZM451 729L441 723Q458 693 468.50 667Q479 641 482 612L482 612Q491 557 511 571L511 571Q530 586 530 609L530 609Q534 621 528.50 633.50Q523 646 517 660L517 660Q505 674 489.50 691Q474 708 451 729L451 729ZM394-9L394-9L441-50Q465-8 482.50 14Q500 36 508 46L508 46Q524 56 545 39L545 39Q559 27 577 13.50Q595 0 621-13L621-13Q666-39 750-50L750-50Q788-53 827.50-55Q867-57 907-57L907-57Q913-16 965-6L965-6L965 8Q921 4 881 2Q841 0 804 0L804 0Q768 1 734 3.50Q700 6 668 11L668 11Q633 21 602 35.50Q571 50 545 70L545 70L545 389L567 411L520 452L498 417L410 417L444 380Q470 393 501 393L501 393L501 80Q474 57 448 35Q422 13 394-9ZM781 786L716 814Q716 790 710 761.50Q704 733 700 701L700 701L557 701L590 666Q607 668 625 670Q643 672 665 672L665 672L696 672Q672 600 634 553L634 553Q610 531 586 509Q562 487 542 471L542 471L549 458Q579 472 607.50 492.50Q636 513 662 534L662 534Q712 584 744 672L744 672L757 672Q777 610 822 556L822 556Q862 501 907 474L907 474Q927 505 958 509L958 509L958 518Q866 545 775 672L775 672L945 672L888 732L850 701L750 701Q750 707 754 722Q758 737 763 764L763 764L781 786ZM721 14L721 14L775 33Q772 65 772 99L772 99Q772 133 772 175L772 175L935 175L888 237L842 200L772 200L772 282L891 282L835 342L804 311L772 311L772 393L914 393L857 448L829 417L778 417Q783 426 794 438Q805 450 816 465L816 465Q830 474 839 484Q848 494 854 499L854 499L804 543Q801 521 790 490Q779 459 763 417L763 417L586 417L621 383Q657 393 696 393L696 393L724 393L724 311L608 311L646 275Q662 277 680.50 279.50Q699 282 719 282L719 282L724 282L724 200L561 200L596 165Q612 167 630.50 171Q649 175 668 175L668 175L724 175Q724 130 722.50 91Q721 52 721 14ZM655 534L646 527Q658 501 666.50 482Q675 463 678 448L678 448Q681 415 700 430L700 430Q704 435 710 441Q716 447 716 455L716 455Q717 465 703 493L703 493Q698 500 686 510Q674 520 655 534L655 534Z"/></svg>