<svg id="U29617" viewBox="0 0 1024 1024"><path transform="translate(0, 921.6) scale(1,-1)" d="M842 331L611 331L611 247L842 247L842 331ZM842 218L611 218L611 120L842 120L842 218ZM542 510L542 510L542 646Q542 678 540.50 711.50Q539 745 539 780L539 780L614 747L591 718L591 653L637 653L676 689L721 627L591 627L591 497L721 539L728 520Q656 491 614.50 468.50Q573 446 559 432L559 432L530 471Q536 478 542 510ZM737 494L737 666Q737 699 735.50 730.50Q734 762 734 789L734 789L809 757L783 734L783 653L861 653L910 692L955 627L783 627L783 526Q778 476 816 487L816 487L884 487Q899 487 910 513L910 513Q910 528 911.50 547.50Q913 567 913 591L913 591L929 591Q929 535 936 510L936 510Q936 485 968 474L968 474Q942 439 884 439L884 439L816 439Q737 439 737 494L737 494ZM611 357L643 357Q679 433 679 471L679 471L747 439Q715 427 660 357L660 357L838 357L867 390L916 344L890 318L890 165Q890 143 890.50 122.50Q891 102 894 78L894 78L842 55L842 94L611 94L611 68L559 48Q559 84 560.50 125Q562 166 562 208L562 208Q562 251 560.50 295Q559 339 559 387L559 387L611 357ZM279 471L237 471L237 257L279 257L279 471ZM367 257L367 471L322 471L322 257L367 257ZM390 529L439 478L409 455L409 338Q409 305 409.50 276.50Q410 248 413 224L413 224L367 204L367 230L322 230L322 88L409 104L377 159L390 169Q414 139 433.50 114.50Q453 90 468 71L468 71Q493 27 471-10L471-10Q452-40 439 0L439 0Q433 26 425 45Q417 64 413 84L413 84Q337 60 279 39Q221 18 179-3L179-3L136 48Q217 62 279 78L279 78L279 230L237 230L237 192L192 169L195 257L195 348L195 435L192 529L240 497L279 497L279 591L257 591L218 588L198 578L159 617L348 617L396 653L439 591L322 591L322 497L367 497L390 529ZM448 478L448 478L448 718L156 718Q158 548 155.50 424Q153 300 146 218L146 218Q138 130 115 52.50Q92-25 49-94L49-94L36-87Q67 4 84.50 105Q102 206 107 312L107 312Q111 522 107 786L107 786L162 747L448 747L478 780L523 728L494 705L494 409Q483 133 601 45L601 45Q725-45 897-45L897-45L913 52L929 52Q920-31 955-61L955-61Q986-88 900-94L900-94Q816-101 689-61L689-61Q626-39 578.50-4Q531 31 500 88L500 88Q438 190 448 478Z"/></svg>