<svg id="U29704" viewBox="0 0 1024 1024"><path transform="translate(0, 921.6) scale(1,-1)" d="M358 785L358 785L282 829Q277 784 209 661L209 661Q178 598 138 544Q98 490 50 439L50 439L63 426Q138 490 196.50 560.50Q255 631 298 718L298 718Q344 683 375.50 651.50Q407 620 424 594L424 594Q461 543 475 591L475 591Q486 641 443 661L443 661Q422 673 388.50 691.50Q355 710 307 734L307 734Q338 776 358 785ZM434 338L434 417L462 439L405 499L383 461L199 461L142 499Q144 457 144.50 418Q145 379 145 331L145 331L145 33Q145 2 130-13L130-13L171-80Q183-40 355 68L355 68Q364 29 377 5L377 5Q389-30 415 5L415 5Q442 36 415 74L415 74Q395 108 307 182L307 182L298 173Q315 143 326.50 121.50Q338 100 345 87L345 87L193 14L193 198L383 198L383 166L437 198Q434 222 434 257L434 257Q434 292 434 338L434 338ZM193 344L193 436L383 436L383 344L193 344ZM193 223L193 319L383 319L383 223L193 223ZM488 449L488 449L488 284L472 268L507 227L532 246L596 246L596-17L437-17L472-55Q502-45 542-45L542-45L954-45L903 27L856-17L789-17L789 246L852 246L852 211L906 230Q903 260 903 288L903 288Q903 317 903 341L903 341L903 512L928 537L875 591L849 553L789 553L789 737L941 737L887 807L836 765L440 765L475 731Q491 733 508.50 735Q526 737 545 737L545 737L596 737L596 553L526 553L485 575Q485 542 486.50 509.50Q488 477 488 449ZM738 166L738-17L643-17L643 239L675 258L624 309L596 271L535 271L535 525L596 525L596 499L649 525Q644 543 643.50 565.50Q643 588 643 620L643 620L643 737L738 737L738 566L719 550L767 499L789 525L852 525L852 271L786 271L735 306Q735 270 736.50 234.50Q738 199 738 166L738 166ZM193 563L209 531Q215 537 260 537L260 537L421 537L371 610L326 563L193 563Z"/></svg>