<svg id="U296BD" viewBox="0 0 1024 1024"><path transform="translate(0, 921.6) scale(1,-1)" d="M261 813L341 765Q322 761 290 713L290 713Q338 692 371 675Q404 658 428 646L428 646Q469 619 460 576L460 576Q445 523 409 579L409 579Q378 628 277 697L277 697Q197 535 40 413L40 413L31 426Q76 471 116.50 527Q157 583 191 646L191 646Q224 712 242.50 751.50Q261 791 261 813L261 813ZM447 426L415 403L415 320Q415 275 415.50 241Q416 207 421 186L421 186L367 150L367 182L175 182L175 3L348 70Q338 85 326.50 104.50Q315 124 297 154L297 154L309 163Q394 102 415 58L415 58Q442 20 415-12L415-12Q394-47 380-12L380-12Q372 4 366.50 19Q361 34 354 51L354 51Q159-61 152-89L152-89L111-28Q127-9 127 22L127 22L127 314Q127 362 126.50 403Q126 444 124 483L124 483L178 445L367 445L389 483L447 426ZM367 419L175 419L175 326L367 326L367 419ZM367 301L175 301L175 208L367 208L367 301ZM168 560L297 560L345 602L396 531L287 531Q207 531 191 518L191 518L168 560ZM485 666L453 704L799 704L847 755L905 678L696 678L696 403L796 403L840 448L898 378L696 378L696 22L844 22L895 70L952-6L533-6Q491-2 463-15L463-15L431 22L645 22L645 378L581 378Q557 378 539.50 372Q522 366 508 362L508 362L479 403L645 403L645 678L559 678Q510 678 485 666L485 666ZM738 288L738 288L744 301Q832 244 850 211L850 211Q869 178 847 147L847 147Q824 109 805 170L805 170Q798 198 780 227Q762 256 738 288Z"/></svg>