<svg id="U296A5" viewBox="0 0 1024 1024"><path transform="translate(0, 921.6) scale(1,-1)" d="M274 822L355 776Q332 771 303 721L303 721Q354 701 387.50 684.50Q421 668 443 656L443 656Q486 625 475 578L475 578Q462 529 423 581L423 581Q388 637 293 705L293 705Q204 535 49 415L49 415L36 425Q82 471 123 528.50Q164 586 199 656L199 656Q274 777 274 822L274 822ZM462 425L433 402L433 318L433 239Q433 205 436 181L436 181L381 152L381 178L183 178L183-5L362 64Q354 78 342 101.50Q330 125 313 155L313 155L322 161Q367 127 394 99Q421 71 433 54L433 54Q461 11 433-20L433-20Q409-55 394-20L394-20Q386-4 381 13.50Q376 31 371 51L371 51Q176-61 160-98L160-98L117-36Q134-13 134 15L134 15L134 314Q134 360 133.50 404Q133 448 130 487L130 487L186 445L381 445L404 487L462 425ZM381 418L183 418L183 324L381 324L381 418ZM381 298L183 298L183 204L381 204L381 298ZM501 18L501 18L501 617Q501 638 499.50 673.50Q498 709 498 754L498 754L560 715L837 715L872 754L921 702L889 679L889 454Q889 430 889.50 401Q890 372 895 340L895 340L840 314L840 366L553 366L553 35Q553-21 599-17L599-17L863-17Q884-22 895 35L895 35Q897 61 899.50 93.50Q902 126 902 165L902 165L921 165Q921 86 934 51L934 51Q938 0 967-5L967-5Q948-60 885-65L885-65L573-65Q496-70 501 18ZM674 685L553 685L553 396L674 396L674 685ZM840 685L723 685L723 396L840 396L840 685ZM179 555L319 555L365 601L417 526L244 526Q202 526 195 519L195 519L179 555Z"/></svg>