<svg id="U29508" viewBox="0 0 1024 1024"><path transform="translate(0, 921.6) scale(1,-1)" d="M829 575L581 575L581 467L829 467L829 575ZM829 438L581 438L581 320L829 320L829 438ZM829 295L581 295L581 180L829 180L829 295ZM581 604L619 604Q633 646 643 677Q653 708 660 728L660 728L565 728Q548 728 529.50 726.50Q511 725 492 721L492 721L460 753L842 753L893 801L944 728L711 728Q702 713 684 682.50Q666 652 638 604L638 604L826 604L858 645L912 585L880 556L880 314Q880 257 880.50 213Q881 169 887 136L887 136L829 110L829 155L581 155L581 117L527 97Q527 139 528.50 208Q530 277 530 374L530 374Q530 474 528.50 536.50Q527 599 527 632L527 632L581 604ZM609 129L609 129L676 66L641 59Q572 5 523-33Q474-71 444-93L444-93L434-74Q581 59 609 129ZM731 120L743 136Q785 103 816 77Q847 51 867 31L867 31Q906-9 887-58L887-58Q866-102 842-38L842-38Q817 22 731 120L731 120ZM52 671L154 671Q154 701 153.50 731.50Q153 762 151 792L151 792L227 760L205 744L205 671L336 671Q336 706 335.50 736.50Q335 767 333 788L333 788L409 763L387 744L387 671L412 671L454 709L508 645L387 645L387 585Q387 555 390 527L390 527L336 508L336 534L294 534L294 435L393 435L425 467L473 419L444 397L444 323Q444 288 447 260L447 260L393 238L393 266L294 266L294 158L412 158L463 199L514 132L294 132Q294 57 294.50 12Q295-33 298-54L298-54L240-80Q245-32 246 20Q247 72 247 132L247 132L148 132Q126 129 108.50 125.50Q91 122 75 120L75 120L40 158L247 158L247 266L142 266L142 238L91 218Q93 239 93.50 268Q94 297 94 336L94 336Q94 374 93.50 405.50Q93 437 91 464L91 464L151 435L247 435L247 534L205 534L205 524L151 505Q153 541 153.50 576Q154 611 154 645L154 645Q110 645 81 632L81 632L52 671ZM336 645L205 645L205 562L336 562L336 645ZM247 409L142 409L142 292L247 292L247 409ZM393 409L294 409L294 292L393 292L393 409Z"/></svg>