<svg id="U2A085" viewBox="0 0 1024 1024"><path transform="translate(0, 921.6) scale(1,-1)" d="M284 713L84 713L120 679Q140 681 161 683Q182 685 202 685L202 685L268 685Q226 630 177 576.50Q128 523 65 477L65 477L75 465Q185 523 284 622L284 622L284 530Q284 507 283 481.50Q282 456 277 433L277 433L338 452Q335 476 335 498L335 498Q335 520 335 543L335 543L335 619Q362 595 384.50 576Q407 557 420 540L420 540Q439 492 461 556L461 556Q472 609 335 638L335 638L335 685L467 685L413 741L385 713L335 713L335 758L356 776L277 802Q282 771 283 750Q284 729 284 713L284 713ZM180 111L180 111L240 131L240 137L842 137Q834 104 825 78Q816 52 809 33L809 33Q787 2 763-13L763-13Q730-21 614 0L614 0L614-19Q671-28 687-50L687-50Q712-63 712-82L712-82Q777-74 809-50L809-50Q828-35 840-16.50Q852 2 860 21L860 21Q869 39 880 67.50Q891 96 901 134L901 134L932 149L879 200L842 162L240 162L240 209L952 209L886 275L839 234L240 234L240 266L737 266L737 254L798 270Q795 290 794.50 322Q794 354 794 393L794 393L819 414L760 452L731 414L362 414Q410 461 441 471L441 471L375 506Q370 485 358.50 462Q347 439 328 414L328 414L240 414L180 433Q184 404 185 368.50Q186 333 186 288L186 288Q186 240 185 194.50Q184 149 180 111ZM737 389L737 354L240 354L240 389L737 389ZM737 329L737 291L240 291L240 329L737 329ZM627 131L627 131L618 118Q630 104 639.50 90Q649 76 659 64L659 64Q665 50 672 39.50Q679 29 683 21L683 21Q690 2 712 11L712 11Q729 15 734 36L734 36Q734 58 721 77L721 77Q709 97 627 131ZM287 115L287 115L277 111Q293 85 301.50 68Q310 51 312 42L312 42Q314 27 316 17.50Q318 8 318 0L318 0Q325-14 335-19L335-19Q350-19 366-6L366-6Q385 6 382 30L382 30Q376 42 354 64Q332 86 287 115ZM461 128L461 128L448 118Q457 104 464 91.50Q471 79 479 70L479 70Q497 49 501 18L501 18Q511-7 526-3L526-3Q535 0 552 21L552 21Q560 41 545 62L545 62Q540 73 518 88.50Q496 104 461 128ZM174 111L174 111L158 111Q144 63 120 39L120 39Q110 32 102 24Q94 16 84 11L84 11Q70-1 81-16L81-16Q102-31 117-25L117-25Q146-17 158 2L158 2Q178 32 174 111ZM731 776L639 808Q639 781 641 756Q643 731 643 713L643 713L454 713L492 676Q538 685 570 685L570 685L643 685L643 635L482 635L511 600L526 606Q553 575 577.50 553.50Q602 532 624 518L624 518Q560 473 403 439L403 439L407 424Q480 430 543.50 448Q607 466 662 489L662 489Q737 449 870 427L870 427Q895 457 958 461L958 461L958 477Q870 479 808 486.50Q746 494 706 512L706 512Q739 530 775 552.50Q811 575 850 603L850 603L879 612L813 656L781 635L700 635L700 685L945 685L886 751L839 713L700 713L700 758L731 776ZM665 537L665 537Q632 553 604.50 570Q577 587 561 606L561 606L775 606Q746 587 719.50 570Q693 553 665 537Z"/></svg>