<svg id="U2A64D" viewBox="0 0 1024 1024"><path transform="translate(0, 921.6) scale(1,-1)" d="M775 800L765 787Q802 755 813 718L813 718Q823 675 850 709L850 709Q873 729 854 753L854 753Q844 769 775 800L775 800ZM561 167L561 167L555 157Q591 110 598 54L598 54Q603 0 634 28L634 28Q658 63 637 95L637 95Q629 108 609.50 126Q590 144 561 167ZM552 488L552 566L675 566L675 488L552 488ZM719 488L719 566L854 566L854 488L719 488ZM552 381L552 463L675 463L675 381L552 381ZM719 381L719 463L854 463L854 381L719 381ZM675 689L675 689L454 689L485 655Q502 657 522 659Q542 661 561 661L561 661L675 661L675 595L555 595L498 620Q498 578 499.50 533.50Q501 489 501 438L501 438Q501 383 499.50 338.50Q498 294 498 262L498 262L552 274L552 353L675 353L675 271L719 293L719 353L854 353L854 327L854 321Q849 312 845 312L845 312Q837 312 824 312L824 312Q811 312 791 314L791 314L791 306Q831 288 839 268L839 268Q904 277 904 324L904 324L904 422L904 558L932 576L883 623L850 595L719 595L719 661L961 661L904 718L866 689L719 689L719 756L747 781L672 810Q672 780 673.50 750Q675 720 675 689ZM794 198L794 198L464 198L498 167Q514 169 533 171Q552 173 574 173L574 173L794 173L794 16Q794-4 778-8L778-8Q771-13 668 0L668 0L668-17Q752-30 769-83L769-83Q790-76 804.50-65Q819-54 829-45L829-45Q833-36 839-22.50Q845-9 845 3L845 3L845 173L965 173L920 233L886 198L845 198L845 227L866 245L791 286Q791 260 792.50 238.50Q794 217 794 198ZM344 753L268 781Q270 748 270.50 675.50Q271 603 271 494L271 494L192 494L192 664L215 692L139 722Q143 690 144 633Q145 576 145 494L145 494L59 494L88 460Q104 462 122.50 464Q141 466 168 466L168 466L479 466L426 529L388 494L318 494L318 604L467 604L416 671L379 633L318 633L318 728L344 753ZM243 438L189 460Q180 415 168 373Q156 331 136 296L136 296L145 293Q189 334 208 381L208 381Q220 357 225 340Q230 323 233 312L233 312Q235 300 241 298.50Q247 297 253 309L253 309Q269 325 265 344L265 344Q257 361 212 388L212 388Q224 419 243 438L243 438ZM403 265L130 265L130 350L155 378L88 406L88 57Q88 26 72 16L72 16L109-42Q143 0 403 34L403 34L403-20L454-5Q449 15 448.50 35.50Q448 56 448 72L448 72L448 359L470 381L403 419L403 265ZM130 236L403 236L403 54L130 28L130 236ZM372 438L322 460Q307 372 265 293L265 293L271 286Q317 332 331 372L331 372Q340 354 343.50 342Q347 330 350 321L350 321Q355 292 369 303L369 303Q388 307 388 327L388 327Q388 352 341 384L341 384Q354 414 372 438L372 438ZM253 195L205 218Q182 135 136 57L136 57L145 54Q196 100 215 145L215 145Q223 125 226.50 110.50Q230 96 233 82L233 82Q237 58 253 72L253 72Q273 83 268 101Q263 119 221 154L221 154Q235 178 253 195L253 195ZM379 192L325 214Q313 132 265 57L265 57L271 51Q315 95 341 145L341 145Q347 125 350.50 109.50Q354 94 359 82L359 82Q363 56 382 69L382 69Q399 86 391 107L391 107Q385 125 344 151L344 151Q360 184 379 192L379 192Z"/></svg>