<svg id="U2A01" viewBox="0 0 928 1000"><path transform="translate(0, 900) scale(1,-1)" d="M464-76L464-76Q379-76 304-44Q229-12 172 45Q115 102 83 177Q51 252 51 337L51 337Q51 423 83 497.50Q115 572 172 629Q229 686 304 718Q379 750 464 750L464 750Q550 750 624.50 718Q699 686 756 629Q813 572 845 497.50Q877 423 877 337L877 337Q877 252 845 177Q813 102 756 45Q699-12 624.50-44Q550-76 464-76ZM103 362L103 362L439 362L439 698Q371 694 312.50 666.50Q254 639 208.50 593.50Q163 548 135 489Q107 430 103 362ZM489 698L489 362L825 362Q821 430 793 489Q765 548 719.50 593.50Q674 639 615.50 666.50Q557 694 489 698L489 698ZM439 312L103 312Q107 244 135 185Q163 126 208.50 80.50Q254 35 312.50 7.50Q371-20 439-24L439-24L439 312ZM825 312L489 312L489-24Q557-20 615.50 7.50Q674 35 719.50 80.50Q765 126 793 185Q821 244 825 312L825 312Z"/></svg>