<svg id="U2AB42" viewBox="0 0 1024 1024"><path transform="translate(0, 921.6) scale(1,-1)" d="M732 13L765 147L775 147L765 13L784 0L797-19L784-38L765-52L383-52L369-51L356-48L343-44L330-37L320-28L311-18L304-5L300 8L297 21L297 34L297 212L361 202L378 191L361 181L361 28L363 23L364 18L366 16L371 15L376 13L383 13L732 13ZM76-24L57-9L55 16L70 35L85 42L99 51L111 62L123 75L134 90L143 108L152 128L159 152L165 177L168 206L178 206L182 177L184 149L184 122L180 97L174 73L165 50L153 29L138 10L121-8L100-22L76-24ZM896 42L890 59L882 76L872 93L846 127L813 161L794 178L772 196L777 204L828 182L851 169L872 155L892 140L909 124L925 106L939 87L952 67L962 46L960 22L942 5L917 8L901 26L896 42ZM573 96L565 110L546 138L536 151L510 177L496 190L464 216L445 227L449 236L492 224L511 217L531 208L549 198L583 175L599 161L613 147L627 132L631 108L617 87L593 83L573 96ZM110 621L174 589L394 589L427 616L486 567L459 546L459 419L394 387L394 419L322 419L322 342L420 342L474 396L538 342L538 321L322 321L322 234L257 202L257 321L41 321L41 342L257 342L257 419L174 419L110 387L110 621ZM773 258L773 274L833 274L838 275L841 276L843 277L844 278L845 279L846 284L847 289L848 296L848 378L676 378L676 243L611 211L611 542L592 513L563 478L532 446L499 419L492 426L540 496L562 533L583 573L603 614L611 635L611 660L620 656L638 706L644 725L493 725L493 746L650 746L667 807L681 872L742 848L756 834L736 828L726 791L711 746L906 746L939 784L982 746L982 725L703 725L688 687L667 639L664 634L676 628L848 628L880 655L939 606L913 585L913 296L911 282L909 268L905 255L898 244L889 232L879 224L866 217L853 213L840 210L826 210L826 242L773 258ZM848 492L676 492L676 400L848 400L848 492ZM394 495L174 495L174 441L394 441L394 495ZM848 606L676 606L676 514L848 514L848 606ZM394 567L174 567L174 517L394 517L394 567ZM187 674L185 692L184 701L179 719L177 728L170 746L164 753L170 760L178 754L187 750L206 738L214 731L230 713L237 704L244 693L250 682L247 657L242 653L325 653L328 659L336 687L341 700L354 738L358 749L362 760L364 766L363 767L364 768L76 768L76 790L257 790L257 875L322 864L338 854L322 844L322 790L405 790L449 838L503 790L503 768L380 768L421 739L430 722L406 721L370 682L350 662L340 653L452 653L485 691L528 653L528 632L45 632L45 653L197 653L188 664L187 674Z"/></svg>