<svg id="U2A66C" viewBox="0 0 1024 1024"><path transform="translate(0, 921.6) scale(1,-1)" d="M593 353L508 384Q508 357 510.50 322Q513 287 513 242L513 242L335 242L335 318L366 331L281 365Q283 339 283.50 308Q284 277 284 242L284 242L55 242L94 208Q112 210 131.50 212Q151 214 171 214L171 214L639 214Q607 148 533 107L533 107L539 98L265 98Q291 104 308.50 110Q326 116 341 126L341 126Q354 133 365 142.50Q376 152 388 164L388 164Q429 141 441 116L441 116Q457 91 467 107L467 107Q479 119 470 139L470 139Q463 151 391 167L391 167L410 186L438 188L372 211Q339 145 262 107L262 107L265 98L227 98L227 139L246 157L171 183Q173 141 173.50 89.50Q174 38 174-23L174-23L145-36L199-77L227-62L801-62L801-83L857-64Q854-50 854-38L854-38Q854-26 854-20L854-20L854 139L876 154L798 186Q798 177 798.50 155Q799 133 799 98L799 98L730 98Q736 100 740 107L740 107Q756 123 737 139L737 139Q724 150 655 167L655 167Q666 184 696 195L696 195L639 214L968 214L895 274L847 242L564 242L564 286L873 286L809 353L765 312L564 312L564 340L593 353ZM723 98L539 98Q587 110 649 157L649 157Q686 141 709 113L709 113Q717 100 723 98L723 98ZM657 72L800 72Q800 49 800.50 22.50Q801-4 801-36L801-36L539-36Q606-12 652 22L652 22Q692 6 716-20L716-20Q736-42 750-23L750-23Q764-3 734 3L734 3Q715 19 655 28L655 28Q677 50 700 57L700 57L657 72ZM394 72L637 72Q605 7 533-26L533-26L539-36L227-36L227 72L375 72Q346 18 243-23L243-23L246-29Q333-17 385 22L385 22Q428 5 451-20L451-20Q471-45 485-23L485-23Q504-4 479 3L479 3Q463 19 391 28L391 28Q403 35 415 43Q427 51 441 54L441 54L394 72ZM416 403L416 359L467 378Q464 387 464 404L464 404Q464 421 464 438L464 438L464 520L489 535L438 576L410 545L344 545L344 623L501 623L448 689L416 652L344 652L344 737Q376 739 410 743Q444 747 482 753L482 753L441 807Q418 794 389 784Q360 774 325 766L325 766Q287 756 243.50 749.50Q200 743 148 737L148 737L148 718Q234 718 294 730L294 730L294 652L97 652L133 617Q151 619 170 621Q189 623 208 623L208 623L294 623L294 545L218 545L168 573Q170 550 170.50 522Q171 494 171 466L171 466Q171 437 170.50 410Q170 383 168 359L168 359L218 372L218 403L416 403ZM218 428L218 520L416 520L416 428L218 428ZM665 730L665 730L665 652L489 652L523 617Q539 619 560 621Q581 623 602 623L602 623L665 623L665 545L583 545L536 573Q536 550 537.50 521.50Q539 493 539 463L539 463Q539 430 537.50 408.50Q536 387 536 378L536 378L583 391L583 403L801 403L801 378L854 396Q850 403 850 447L850 447L850 520L873 532L826 583L798 545L716 545L716 623L927 623L873 689L835 652L716 652L716 737Q795 741 863 753L863 753L826 810Q779 783 696 769L696 769Q615 749 513 737L513 737L513 718Q561 721 599.50 724.50Q638 728 665 730ZM583 428L583 520L801 520L801 428L583 428Z"/></svg>