<svg id="U2A2E1" viewBox="0 0 1024 1024"><path transform="translate(0, 921.6) scale(1,-1)" d="M37-41L37-41L53-47Q135 95 143 370L143 370L429 370L429 348L480 367Q474 381 473.50 423Q473 465 473 534L473 534L501 553L451 597L426 563L369 563L369 672L505 672L445 735L395 697L313 697Q337 728 328 754L328 754Q325 774 231 814L231 814L221 805Q275 756 285 697L285 697L143 697L94 720Q100 538 94 319L94 319Q94 207 77.50 117.50Q61 28 37-41ZM143 563L143 672L212 672L212 563L143 563ZM256 563L256 672L326 672L326 563L256 563ZM143 398L143 537L212 537L212 398L143 398ZM256 398L256 537L326 537L326 398L256 398ZM369 398L369 537L429 537L429 398L369 398ZM184 52L184 52Q184 27 174 8L174 8L212-41Q240 10 331 77L331 77L326 90L231 36L231 188L334 188L287 244L253 213L231 213L231 301L259 323L180 357Q183 328 183.50 253Q184 178 184 52ZM527 735L527 735L517 726Q535 697 548.50 673Q562 649 565 632L565 632Q573 586 596 615L596 615Q612 646 599 669L599 669Q585 690 527 735ZM583 540L583 540L577 530Q610 486 624 442L624 442Q640 394 660 427L660 427Q682 452 662 483L662 483Q637 508 583 540ZM791 609L801 600Q822 616 844 640.50Q866 665 892 694L892 694L917 713L861 754Q844 687 791 609L791 609ZM782 578L782 758L804 782L735 808Q735 781 736.50 724.50Q738 668 738 578L738 578L675 578L675 754L697 776L624 811Q624 766 625.50 708.50Q627 651 627 578L627 578L493 578L527 543Q557 553 590 553L590 553L936 553L895 615L855 578L782 578ZM719 190L719 190L741 190Q764 144 787 106.50Q810 69 838 46L838 46Q889-5 946-28L946-28L946-41Q908-46 889-78L889-78Q776 11 719 190ZM936 175L732 175L716 175L703 175Q681 80 624 18L624 18Q569-39 449-88L449-88L442-75Q493-42 532-13Q571 16 590 39L590 39Q614 67 629 102Q644 137 656 175L656 175L586 175Q577 175 561.50 173.50Q546 172 524 168L524 168L486 203L660 203Q661 222 663 241.50Q665 261 665 282L665 282L627 282Q594 282 558 272L558 272L524 307L668 307L668 386L609 386Q589 386 572.50 384Q556 382 539 380L539 380L505 414L719 414Q735 446 747 480.50Q759 515 766 553L766 553L832 515L810 496L741 414L823 414L864 452L914 386L719 386Q719 368 717.50 349Q716 330 716 307L716 307L804 307L842 339L892 282L716 282Q716 243 706 203L706 203L851 203L892 237L936 175ZM344 55L344 55Q344 38 331 11L331 11L369-37Q398 13 493 83L493 83L483 96L388 39L388 185L498 185L445 247L410 209L388 209L388 304L416 326L338 360Q342 332 343 256.50Q344 181 344 55Z"/></svg>