<svg id="U2A396" viewBox="0 0 1024 1024"><path transform="translate(0, 921.6) scale(1,-1)" d="M190 668L930 668L866 743L804 692L552 692Q589 723 564 762L564 762Q547 776 527 789Q507 802 480 810L480 810L470 800Q482 788 492.50 776Q503 764 511 749L511 749Q524 711 529 692L529 692L192 692L133 728Q135 665 135.50 591Q136 517 136 432L136 432Q136 342 130 271Q124 200 113 145L113 145Q102 88 83.50 34Q65-20 33-74L33-74L43-83Q110-4 142 88L142 88Q156 133 165 181Q174 229 177 286L177 286Q181 341 185.50 436.50Q190 532 190 668L190 668ZM400 239L400 239L388 255Q360 199 331 170L331 170Q316 160 302 149Q288 138 275 129L275 129Q251 110 290 101L290 101Q326 86 357 129L357 129Q370 149 380.50 177.50Q391 206 400 239ZM558 236L558 236L558 274L586 293L498 321Q502 129 429 60L429 60Q353-18 161-67L161-67L161-80Q338-57 435 10L435 10Q526 72 545 205L545 205Q591 85 665 22L665 22Q702-12 744-36.50Q786-61 832-80L832-80Q853-45 914-36L914-36L914-23Q800-3 731 41L731 41Q650 88 627 129L627 129Q665 146 703.50 164Q742 182 784 198L784 198L828 208L766 274Q746 240 707 208.50Q668 177 614 145L614 145Q571 183 558 236ZM357 558L357 558L215 558L246 526Q264 532 300 532L300 532L357 532L357 396Q357 370 356.50 348Q356 326 353 306L353 306L410 327Q407 348 406.50 365Q406 382 406 394L406 394L406 532L545 532L501 586L467 558L406 558L406 607L429 630L353 661Q356 638 356.50 611.50Q357 585 357 558ZM696 611L696 561L548 561L586 529Q611 535 655 535L655 535L696 535L696 409L693 303L750 321L743 400L743 535L907 535L854 592L816 561L743 561L743 611L766 630L693 664L696 611ZM318 460L318 460L334 473L272 501Q275 410 255 375L255 375Q238 333 208 306L208 306L215 299Q270 330 287 359L287 359Q311 398 318 460ZM511 476L444 501Q444 483 445.50 475Q447 467 447 463L447 463L447 381Q447 327 501 327L501 327Q552 327 558 334L558 334Q565 338 552 359L552 359Q541 376 532 372L532 372Q526 365 520 365L520 365Q486 365 491 400L491 400L491 457L511 476ZM860 479L794 507Q794 480 795.50 447Q797 414 797 375L797 375Q797 321 869 321L869 321Q917 321 926 324L926 324Q937 324 920 347L920 347Q912 362 901 362L901 362Q895 359 863 359L863 359Q841 363 841 394L841 394L841 460L860 479ZM658 460L658 460L678 476L605 501Q605 468 601.50 437.50Q598 407 589 384L589 384Q567 329 545 312L545 312L558 303Q598 324 624 362L624 362Q636 378 643.50 403.50Q651 429 658 460Z"/></svg>