<svg id="U2AE97" viewBox="0 0 1024 1024"><path transform="translate(0, 921.6) scale(1,-1)" d="M136-35L136-19L211-19L217-18L222-17L227-16L229-13L230-12L231-9L232-4L232 3L232 220L85 220L85 242L232 242L232 378L37 378L37 400L232 400L232 529L103 529L94 513L78 491L69 495L93 603L103 661L112 725L120 804L181 785L259 817L409 872L411 864L464 820L465 804L443 814L426 810L241 772L210 766L178 761L169 715L152 650L143 620L132 591L121 563L114 551L379 551L411 577L471 529L444 507L444 400L449 400L473 432L506 400L506 378L444 378L444 188L379 156L379 220L297 220L297 3L296-11L294-24L289-37L283-49L274-60L263-69L251-76L238-80L224-82L211-83L211-51L136-35ZM921 19L953 154L964 154L953 19L973 6L986-13L973-32L953-45L834-45L821-44L807-42L794-38L782-31L771-22L762-11L756 1L751 14L749 27L748 41L748 363L688 363L683 309L674 249L660 192L641 140L618 92L589 49L557 11L520-22L478-49L432-70L428-62L466-32L500 0L530 34L556 73L577 113L595 158L608 206L617 259L623 314L623 363L519 363L519 385L844 385L898 439L963 385L963 363L813 363L813 41L813 34L814 30L815 26L816 25L818 23L823 21L828 20L834 19L921 19ZM379 378L297 378L297 242L379 242L379 378ZM379 529L297 529L297 400L379 400L379 529ZM538 535L514 539L500 560L504 584L514 595L523 608L531 623L539 638L547 655L554 674L561 694L575 737L580 761L590 760L591 735L593 711L706 711L706 860L771 849L787 839L771 829L771 711L894 711L926 738L986 690L959 674L943 667L917 628L889 590L878 577L875 574L909 546L909 525L585 525L585 546L791 546L845 600L866 583L881 645L885 659L891 687L892 690L592 690L591 666L588 644L585 623L580 603L574 584L566 566L558 548L538 535ZM250 626L250 642L250 657L250 671L245 698L242 712L238 725L234 738L226 749L233 756L256 737L267 726L277 713L286 699L293 684L300 667L306 650L310 631L313 612L304 589L281 579L259 588L249 610L250 626ZM399 639L393 667L388 681L377 707L361 734L352 748L341 760L346 768L361 759L377 750L391 740L404 729L428 704L438 689L456 657L464 640L460 616L440 600L416 604L401 624L399 639Z"/></svg>