<svg id="U2ACC9" viewBox="0 0 1024 1024"><path transform="translate(0, 921.6) scale(1,-1)" d="M321 350L316 363L302 388L294 400L286 412L266 435L249 453L249-45L185-77L185 414L163 355L144 309L122 264L99 221L74 180L46 141L38 146L73 233L106 324L120 370L145 465L156 514L164 565L170 600L42 600L42 621L185 621L185 863L249 853L265 842L249 832L249 621L261 621L315 675L379 621L379 600L249 600L249 472L266 466L283 459L299 451L327 432L341 421L366 397L377 383L380 359L366 339L341 336L321 350ZM611-33L597-32L585-30L571-26L559-19L549-10L539 1L533 13L529 26L526 39L525 53L525 292L590 282L606 271L590 261L590 53L590 46L591 41L592 38L593 37L594 35L595 34L597 34L600 33L605 32L611 31L813 31L845 166L856 166L845 31L865 18L878-1L865-20L845-33L611-33ZM399 2L376 10L367 33L375 56L385 65L395 77L404 92L413 111L421 133L428 158L434 185L440 217L445 251L450 287L460 288L465 250L468 215L468 182L467 152L465 123L460 96L454 72L445 49L435 29L422 11L399 2ZM921 84L917 106L913 128L906 151L899 171L891 192L882 213L861 254L849 274L856 281L893 249L910 231L925 212L939 191L951 169L963 146L972 123L981 97L988 72L982 47L961 34L938 40L924 60L921 84ZM707 156L702 175L691 210L678 242L662 272L644 301L633 314L639 321L670 303L685 291L699 279L713 265L737 233L758 197L767 177L766 153L747 137L723 138L707 156ZM477 392L477 376L412 344L412 659L477 627L568 627L568 763L377 763L377 784L862 784L916 838L980 784L980 763L789 763L789 627L880 627L913 654L972 605L945 584L945 370L880 338L880 392L477 392ZM568 605L477 605L477 413L568 413L568 605ZM724 605L632 605L632 413L724 413L724 605ZM880 605L789 605L789 413L880 413L880 605ZM724 763L632 763L632 627L724 627L724 763Z"/></svg>