<svg id="U2A697" viewBox="0 0 1024 1024"><path transform="translate(0, 921.6) scale(1,-1)" d="M440 813L433 800Q440 783 448 769Q456 755 459 746L459 746Q463 731 466.50 717.50Q470 704 474 689L474 689Q478 661 497 671L497 671Q513 681 518 702L518 702Q523 726 506 749L506 749Q496 758 481 775.50Q466 793 440 813L440 813ZM562 661L361 661L395 630Q412 632 429 634Q446 636 465 636L465 636L559 636Q557 624 544 585.50Q531 547 506 481L506 481L351 481L387 447Q402 449 420.50 453Q439 457 459 457L459 457L660 457L616 514L582 481L531 481Q547 527 575 561L575 561Q586 582 619 611L619 611L572 636L651 636L597 699L562 661ZM421 630L408 623Q417 602 423 587Q429 572 433 561L433 561Q435 549 436 535.50Q437 522 440 514L440 514Q445 485 449 494L449 494Q459 494 474 514L474 514Q482 525 477 555L477 555Q473 572 421 630L421 630ZM387-86L387-86L436-55L436 119L565 119L565 22Q560-8 544-8L544-8Q536-8 519.50-7.50Q503-7 474-5L474-5L474-20Q499-23 525-42L525-42Q533-50 540-60.50Q547-71 554-83L554-83Q613-60 613 3L613 3L613 359L638 378L591 422L559 388L436 388L387 409Q388 386 388.50 329.50Q389 273 389 188L389 188Q389 100 388.50 34Q388-32 387-86ZM436 268L436 362L565 362L565 268L436 268ZM680 689L680 689L680 604L660 592L701 548L726 573L846 573L846 466L720 466L676 488Q676 452 678 418.50Q680 385 680 353L680 353L680 0Q674-63 732-67L732-67L893-67Q943-67 963-23L963-23Q931-18 931 28L931 28Q929 52 928.50 78Q928 104 928 132L928 132L912 132Q907 48 903 3L903 3Q888-34 852-26L852-26L758-26Q726-26 726 16L726 16L726 82L899 82L849 148L814 110L726 110L726 205L909 205L862 265L827 229L726 229L726 314L912 314L862 381L827 344L726 344L726 440L846 440L846 419L893 438Q890 461 890 493L890 493Q890 525 890 563L890 563L915 583L865 630L843 599L726 599L726 664L931 664L881 733L843 692L726 692L726 746L752 769L676 800Q676 778 678 750Q680 722 680 689ZM436 148L436 242L565 242L565 148L436 148ZM194 488L194 488L298 488Q252 108 70-77L70-77L76-86Q291 58 343 479L343 479L371 501L317 548L289 517L194 517Q205 548 214.50 587.50Q224 627 232 677L232 677L367 677L320 749L285 702L73 702L108 664Q127 671 176 677L176 677L184 677Q168 543 137 436.50Q106 330 60 249L60 249L73 242Q116 288 150 372L150 372Q164 338 174 312Q184 286 187 268L187 268Q199 221 216 268L216 268Q236 307 222 324L222 324Q213 331 197.50 348.50Q182 366 156 388L156 388Q165 406 174.50 431Q184 456 194 488Z"/></svg>