<svg id="U2A6A1" viewBox="0 0 1024 1024"><path transform="translate(0, 921.6) scale(1,-1)" d="M426 766L362 813Q287 735 133 681L133 681L136 664Q260 698 331 730L331 730Q401 766 426 766L426 766ZM586 803L586 803L583 787Q664 764 714 741.50Q764 719 791 702L791 702Q841 664 850 699L850 699Q858 732 809 749L809 749Q786 761 730 773.50Q674 786 586 803ZM574 746L505 784Q485 763 459.50 741Q434 719 407 702L407 702Q376 683 341.50 663Q307 643 265 627L265 627Q194 597 68 561L68 561L72 545Q136 557 195 571.50Q254 586 309 607L309 607Q309 546 308.50 506.50Q308 467 305 450L305 450L359 457L359 463L678 463L678 447L734 457Q728 476 728 583L728 583L760 599L700 627L672 611L359 611L328 620Q381 639 428 663Q475 687 517 718L517 718Q572 667 678 627L678 627Q729 605 777 592.50Q825 580 876 573L876 573Q888 604 955 611L955 611L955 627Q838 627 747 648L747 648Q693 660 640 680Q587 700 533 733L533 733L574 746ZM359 488L359 586L678 586L678 488L359 488ZM253 463L249 447Q295 424 312 396L312 396Q329 370 344 391L344 391Q356 411 344 428L344 428Q324 441 253 463L253 463ZM583 337L583 337L555 321L602 290L631 303L816 303L816 252L624 252L574 280Q574 251 575.50 184Q577 117 577 3L577 3Q577-58 665-58L665-58L863-58Q872-58 904-52L904-52Q928-38 948-14L948-14Q936-11 928.50-5.50Q921 0 914 6L914 6Q908 15 903 30Q898 45 898 66L898 66L886 66Q883 37 879.50 18.50Q876 0 876-8L876-8Q871-20 839-20L839-20L680-20Q624-20 624 16L624 16L624 28L857 28L806 85L772 57L624 57L624 88L854 88L801 154L769 116L624 116L624 160L854 160L801 214L769 186L624 186L624 224L816 224L816 214L866 221Q863 241 863 263L863 263Q863 285 863 312L863 312L888 327L835 365L806 331L634 331L634 372L886 372L832 428L794 396L634 396L634 400L662 419L580 453Q580 420 581.50 391.50Q583 363 583 337ZM243 57L243 101L426 101L426 57L243 57ZM426 167L426 126L243 126L243 167L426 167ZM441 384L136 384L171 353Q186 354 203.50 354.50Q221 355 243 355L243 355L407 355Q402 344 387 321Q372 298 346 262L346 262L117 262L151 229Q171 233 189 234.50Q207 236 224 236L224 236L545 236L489 299L461 262L369 262Q436 325 476 337L476 337L438 355L526 355L470 416L441 384ZM212 353L212 340Q245 310 265 280L265 280Q278 252 294 271L294 271Q313 285 305 309L305 309Q300 329 212 353L212 353ZM189-86L189-86L243-70L243 28L426 28L426-8Q426-19 416-26L416-26Q402-31 344-26L344-26L344-36Q397-52 423-86L423-86Q462-67 467-52L467-52Q469-42 472.50-33.50Q476-25 476-17L476-17L476 164L498 180L451 218L423 195L246 195L192 218Q195 184 195.50 144.50Q196 105 196 63L196 63Q196 20 193.50-15.50Q191-51 189-86Z"/></svg>