<svg id="U2A9DC" viewBox="0 0 1024 1024"><path transform="translate(0, 921.6) scale(1,-1)" d="M847-35L797-2L752 36L712 78L703 90L670 54L617 10L559-27L495-56L425-79L422-70L486-38L544-2L595 38L640 83L676 127L648 174L624 228L606 285L593 347L589 382L569 356L542 326L513 299L512 300L512 287L260 287L299 277L314 265L295 256L291 226L286 202L430 202L462 228L521 180L494 164L494 161L492 133L490 108L487 84L483 62L478 43L472 25L464 9L455-6L443-19L434-27L423-35L413-42L401-48L390-53L378-56L366-60L353-62L341-63L328-64L328-32L231-16L231 1L328 1L344 2L352 3L367 8L380 14L387 18L400 28L403 33L408 39L412 49L416 61L420 76L423 94L426 115L428 138L429 163L430 180L281 180L267 132L250 91L229 53L206 18L179-13L149-39L115-61L79-78L74-70L103-45L129-18L152 10L172 41L189 74L203 110L215 148L224 190L231 234L234 276L235 287L92 287L92 309L265 309L265 410L329 399L345 388L329 378L329 309L414 309L458 357L509 311L545 373L581 441L597 477L612 514L638 591L649 631L658 672L660 681L721 656L733 642L714 636L692 573L676 532L658 494L646 471L835 471L888 525L953 471L953 449L857 449L842 374L820 297L792 227L757 163L736 133L752 116L791 81L833 51L880 24L964-13L902-64L847-35ZM792 449L634 449L617 421L601 398L615 352L636 296L659 244L687 197L705 172L714 188L743 248L765 314L782 387L792 449ZM77 419L77 441L270 441L270 539L132 539L132 561L270 561L270 670L334 660L350 649L334 639L334 561L373 561L427 614L492 561L492 539L334 539L334 441L424 441L468 489L522 441L522 419L77 419ZM65 573L46 588L44 613L59 632L70 637L80 642L89 650L99 661L107 674L115 690L122 708L128 729L134 753L136 779L146 779L149 753L151 738L480 738L480 868L544 857L560 847L544 837L544 738L888 738L892 740L894 745L896 744L921 764L980 716L953 700L927 689L893 659L849 625L832 614L816 600L809 607L822 624L870 699L878 712L879 716L152 716L152 703L151 681L146 659L141 639L131 620L120 603L106 588L89 575L65 573Z"/></svg>