<svg id="U2A317" viewBox="0 0 1024 1024"><path transform="translate(0, 921.6) scale(1,-1)" d="M732 98L732 463L736 463Q758 294 808 180L808 180Q853 67 887 51L887 51Q913 77 963 72L963 72L963 85Q911 105 852 201L852 201Q787 301 758 463L758 463L953 463L893 526L852 488L732 488L732 715Q874 730 915 730L915 730L865 803Q785 761 691 740L691 740Q639 728 597.50 721Q556 714 525 712L525 712L525 687Q557 687 597 692.50Q637 698 682 705L682 705L682 488L510 488L544 453Q573 463 616 463L616 463L626 463Q621 406 604.50 347.50Q588 289 562 229L562 229Q536 168 511.50 121Q487 74 459 44L459 44L469 34Q542 98 600 208L600 208Q629 265 651 326Q673 387 682 453L682 453L682 60Q682 31 681-3.50Q680-38 680-83L680-83L736-52Q733-14 732.50 24.50Q732 63 732 98L732 98ZM323 558L323 664L521 664L465 730L424 692L323 692L323 759L348 781L273 810Q275 773 275.50 744.50Q276 716 276 692L276 692L89 692L117 658Q132 660 149 662Q166 664 187 664L187 664L276 664L276 529Q201 408 60 327L60 327L63 309Q192 364 282 463L282 463L282 368L323 394L323 485Q366 444 391 418Q416 392 424 381L424 381Q435 366 443 354.50Q451 343 459 334L459 334Q472 312 484 347L484 347Q493 375 484 391L484 391Q480 396 470 406.50Q460 417 443 432L443 432Q414 451 323 501L323 501L323 520L323 558ZM343 491L343 491L348 485Q394 516 408 561L408 561Q461 513 465 485L465 485Q473 455 497 481L497 481Q510 504 490 526L490 526Q482 538 462.50 550Q443 562 418 576L418 576L436 607L465 623L405 655Q393 609 378 567.50Q363 526 343 491ZM348 113L348 113Q362 130 382.50 165.50Q403 201 436 258L436 258L465 274L408 331L387 296L238 296L273 337L295 347L232 384Q212 330 178 276Q144 222 96 167L96 167L104 154Q131 175 162.50 206Q194 237 225 271L225 271L387 271Q367 226 348 194Q329 162 310 139L310 139Q284 154 253.50 174Q223 194 191 214L191 214L176 201Q213 175 238 152.50Q263 130 285 113L285 113Q207 24 63-49L63-49L70-58Q198-14 314 82L314 82Q384 6 402-33L402-33Q424-61 436-36L436-36Q446-3 436 19L436 19Q432 27 410 50Q388 73 348 113ZM92 460L92 460L101 450Q147 505 169 558L169 558Q182 543 190.50 529Q199 515 207 501L207 501Q221 469 232 497L232 497Q252 517 232 532L232 532Q225 542 172 566L172 566L191 599L225 617L156 646Q149 595 132 548.50Q115 502 92 460Z"/></svg>