<svg id="U2A70A" viewBox="0 0 1024 1024"><path transform="translate(0, 921.6) scale(1,-1)" d="M933 755L862 826Q800 788 724 765Q648 742 524 722L524 722L473 759Q477 688 479 461.50Q481 235 456 110.50Q431-14 337-110L337-110L349-118Q442-39 483 63Q524 165 528 338L528 338L528 705Q660 717 757.50 736Q855 755 933 755L933 755ZM776 81L648 6L648 563L711 581Q714 402 755 251.50Q796 101 893-14L893-14Q913 27 971 23L971 23L975 39Q928 56 869.50 122.50Q811 189 773 338L773 338Q811 364 860 399.50Q909 435 951 447L951 447L889 509Q855 443 769 356L769 356Q742 447 730 581L730 581Q776 593 823 603.50Q870 614 917 618L917 618L858 688Q811 647 753.50 622Q696 597 648 585L648 585L598 622L598 27Q594-6 574-23L574-23L621-81Q645-35 785 68L785 68L776 81ZM356 722L54 722L86 691L140 702L363 702L266 554L227 581Q230 515 230 351L230 351Q70 280 23 273L23 273L70 198Q90 230 230 308L230 308L230 38Q230 7 203 7L203 7Q176 7 101 19L101 19L101 3Q203-28 199-79L199-79Q285-52 281 23L281 23L281 331Q328 362 430 417L430 417L422 433Q367 409 281 370L281 370L281 499L313 515L281 542Q399 691 465 695L465 695L395 765L356 722Z"/></svg>