<svg id="U2A508" viewBox="0 0 1024 1024"><path transform="translate(0, 921.6) scale(1,-1)" d="M582 243L582 243Q605 226 638 204.50Q671 183 714 155L714 155Q651 40 477-57L477-57L480-73Q664-6 752 123L752 123Q859 37 887-10L887-10Q916-63 931-13L931-13Q950 30 906 67L906 67Q885 87 850 109.50Q815 132 770 161L770 161Q834 309 858 527L858 527L960 527L909 586L878 552L862 552L865 583L881 596L808 627Q808 608 806.50 588Q805 568 805 552L805 552L704 552L745 759L770 779L695 820Q689 772 678.50 704Q668 636 654 548L654 548L534 548L562 514Q569 516 577.50 520Q586 524 597 524L597 524L647 524Q636 462 620 392Q604 322 582 243ZM108 281L108 281L89 275L128 234L150 252L232 252L232 167L63 167L92 126L111 142L125 142Q121 25 63-54L63-54L70-67Q160-2 169 142L169 142L232 142Q232 66 231.50 15.50Q231-35 228-64L228-64L285-45L282 48L282 243L307 265L257 303L232 278L153 278L153 457L179 479L104 511Q107 487 107.50 431Q108 375 108 281ZM405 23L405 146L484 146L484-32L537-10L534 29L534 139L559 158L513 202L480 174L405 174L405 252L490 252L490 231L541 246L537 316L537 450L562 473L490 504L490 278L402 278L358 303Q362 118 358-57L358-57L411-35L405 23ZM248 573L200 596L200 303L248 319L248 334L405 334L405 313L456 328L456 545L480 565L428 602L402 573L248 573ZM248 548L405 548L405 504L248 504L248 548ZM248 476L405 476L405 438L248 438L248 476ZM248 413L405 413L405 360L248 360L248 413ZM114 583L114 583L166 602L166 624L477 624L477 589L531 609Q528 624 528 728L528 728L550 747L497 784L474 750L159 750L114 776Q117 742 117 718L117 718Q117 694 117 678L117 678Q117 658 117 635L117 635Q117 612 114 583ZM166 650L166 725L477 725L477 650L166 650ZM629 252L629 252Q647 325 663.50 394.50Q680 464 698 527L698 527L805 527Q798 431 779.50 346.50Q761 262 732 187L732 187Q696 209 670.50 225Q645 241 629 252Z"/></svg>