<svg id="U2A263" viewBox="0 0 1024 1024"><path transform="translate(0, 921.6) scale(1,-1)" d="M197 354L197 354L254 370L254 382L761 382L761 360L818 379L814 452L814 627L849 643L793 691L755 656L537 656L537 712L878 712L821 782L780 742L537 742L537 773L565 798L480 820L484 748L484 656L263 656L197 684Q199 667 199.50 625Q200 583 200 514L200 514Q200 370 197 354ZM761 631L761 411L254 411L254 631L761 631ZM638 640L638 637Q602 601 513 552L513 552Q474 569 420.50 585.50Q367 602 298 622L298 622L295 609Q349 585 397 567Q445 549 490 534L490 534Q395 469 279 429L279 429L285 416Q356 433 414.50 458Q473 483 521 517L521 517Q572 489 607 469.50Q642 450 657 436L657 436Q691 407 701 433L701 433Q717 457 673 480L673 480Q626 502 556 537L556 537Q555 537 616 571L616 571Q664 605 701 615L701 615L638 640ZM452 631L449 622Q495 595 503 578L503 578Q515 553 528 575L528 575Q541 600 525 609L525 609Q513 611 495.50 618Q478 625 452 631L452 631ZM487 480L480 473Q503 455 510 433L510 433Q520 411 537 420L537 420Q547 431 547 452L547 452Q539 467 487 480L487 480ZM305 558L295 549Q313 536 326.50 524Q340 512 348 499L348 499Q370 471 380 496L380 496Q388 513 383 527L383 527Q377 540 305 558L305 558ZM641 568L635 558Q678 521 685 499L685 499Q701 471 714 496L714 496Q727 520 714 530L714 530Q700 539 641 568L641 568ZM783 323L131 323L169 285Q201 293 245 297L245 297L912 297L846 373L783 323ZM314 244L251 265Q253 245 253.50 221.50Q254 198 254 177L254 177Q254 154 253.50 127.50Q253 101 251 74L251 74L307 86L307 105L723 105L723 80L780 99L777 159L777 208L811 228L745 272L720 244L314 244ZM348 99L336 89Q377 46 383 6L383 6Q388-38 421-6L421-6Q452 19 428 45L428 45Q413 57 393.50 70.50Q374 84 348 99L348 99ZM644 105L644 105L714 61Q675 56 603-22L603-22L834-22L893 23L963-47L172-47Q133-47 98-54L98-54L60-22L578-22Q596 10 613 41Q630 72 644 105ZM307 130L307 218L723 218L723 130L307 130Z"/></svg>