<svg id="U2AEF1" viewBox="0 0 1024 1024"><path transform="translate(0, 921.6) scale(1,-1)" d="M888 621L953 611L969 600L953 590L953-18L888-51L888 3L447 3L447-34L383-67L383 621L447 611L464 600L447 590L447 25L888 25L888 621ZM65 46L32 103L149 142L149 426L63 426L63 447L149 447L149 701L49 701L49 723L230 723L284 776L349 723L349 701L214 701L214 447L236 447L280 496L334 447L334 426L214 426L214 165L290 191L361 214L365 205L302 165L209 115L121 72L86 56L81 35L65 46ZM566 95L566 111L630 111L637 111L642 112L646 114L649 116L650 121L651 126L652 132L652 256L614 220L583 194L536 159L524 151L521 128L504 138L466 191L475 196L492 202L579 238L616 254L635 262L652 270L652 557L586 557L578 514L508 495L557 756L383 756L383 777L829 777L883 831L947 777L947 756L623 756L590 578L652 578L684 605L743 557L716 535L716 334L787 425L815 465L819 472L818 473L824 480L872 436L878 417L855 421L806 380L772 355L716 319L716 292L718 295L756 273L774 260L807 234L836 205L849 189L872 156L873 132L858 113L833 111L814 127L808 143L801 159L793 175L785 190L752 238L727 271L716 282L716 132L715 119L713 105L709 92L702 80L693 69L682 61L670 54L657 49L644 47L630 46L630 78L566 95ZM575 327L571 337L565 346L558 356L550 367L540 377L517 400L503 412L488 421L492 430L509 424L528 419L544 413L560 406L574 398L588 390L601 382L613 373L624 362L633 351L637 326L622 307L597 304L578 318L575 327Z"/></svg>