<svg id="U2ABD3" viewBox="0 0 1024 1024"><path transform="translate(0, 921.6) scale(1,-1)" d="M131 306L195 274L401 274L433 301L492 252L465 231L465-10L401-42L401-10L195-10L195-48L131-80L131 306ZM868-13L815 28L767 75L725 127L716 141L681 95L625 39L563-9L494-47L420-76L417-67L485-29L546 15L601 65L649 121L690 181L657 246L632 312L613 384L599 460L595 507L573 473L545 434L514 398L510 401L510 345L451 316L451 356L143 356L143 340L84 310L84 646L143 616L208 616L208 711L45 711L45 732L208 732L208 849L261 839L275 828L261 819L261 732L332 732L332 849L386 839L399 828L386 819L386 732L430 732L484 786L548 732L548 711L386 711L386 616L451 616L480 643L537 595L510 576L510 411L568 530L587 574L604 618L620 665L635 713L647 762L659 813L670 865L672 875L733 852L746 838L728 832L703 746L686 696L667 647L650 611L863 611L917 664L981 611L981 589L877 589L862 494L839 399L809 311L773 231L747 189L768 161L810 116L856 77L905 43L987-1L926-49L868-13ZM401 125L195 125L195 11L401 11L401 125ZM401 252L195 252L195 147L401 147L401 252ZM813 589L640 589L624 556L606 525L621 464L643 392L668 326L697 266L717 233L728 253L759 330L783 414L802 505L813 589ZM208 475L143 475L143 377L208 377L208 475ZM332 475L261 475L261 377L332 377L332 475ZM451 475L386 475L386 377L451 377L451 475ZM208 595L143 595L143 497L208 497L208 595ZM332 595L261 595L261 497L332 497L332 595ZM451 595L386 595L386 497L451 497L451 595ZM332 711L261 711L261 616L332 616L332 711Z"/></svg>