<svg id="U2A594" viewBox="0 0 1024 1024"><path transform="translate(0, 921.6) scale(1,-1)" d="M389-86L389-86L446-67Q441-41 440.50 6.50Q440 54 440 132L440 132L603 132L544 198L503 157L70 157L108 123Q122 125 140.50 128.50Q159 132 179 132L179 132L225 132Q210-12 67-74L67-74L70-86Q265-20 276 132L276 132L392 132Q392 50 391.50-5Q391-60 389-86ZM179 416L128 438Q138 298 128 183L128 183L179 201L179 214L474 214L474 195L528 214Q525 242 525 284L525 284Q525 327 525 384L525 384L550 403L497 447L471 416L179 416ZM220 643L220 687L440 687L440 643L220 643ZM220 566L220 617L440 617L440 566L220 566ZM220 494L220 542L440 542L440 494L220 494ZM179 334L179 391L307 391L307 334L179 334ZM351 334L351 391L474 391L474 334L351 334ZM179 239L179 309L307 309L307 239L179 239ZM351 239L351 309L474 309L474 239L351 239ZM220 715L166 740Q173 598 166 438L166 438L220 457L220 469L440 469L440 447L490 469Q487 497 487 548L487 548Q487 600 487 681L487 681L513 699L465 746L436 715L276 715Q334 776 348 781L348 781L282 813Q279 793 273.50 769Q268 745 257 715L257 715L220 715ZM613 473L603 463Q622 441 638.50 422Q655 403 670 387L670 387Q667 358 663.50 334.50Q660 311 657 290L657 290Q642 226 624 176Q606 126 588 91L588 91Q549 14 474-58L474-58L484-74Q595 16 638 98L638 98Q662 146 677 197Q692 248 704 306L704 306Q707 319 710 336L710 336Q719 322 725.50 311.50Q732 301 736 293L736 293Q763 234 780 268L780 268Q786 284 789.50 298.50Q793 313 786 331L786 331Q779 350 718 396L718 396Q722 447 726 513Q730 579 736 661L736 661L881 661Q878 452 875 319.50Q872 187 865 123L865 123Q855 1 814-1L814-1Q761-12 698 0L698 0L698-20Q745-25 773-36L773-36Q799-47 805-80L805-80Q892-42 912 60L912 60Q917 109 921.50 258Q926 407 931 658L931 658L956 677L906 725L878 687L531 687L565 655Q584 659 604 660Q624 661 641 661L641 661L685 661Q683 593 680.50 535.50Q678 478 674 429L674 429Q659 438 644.50 449.50Q630 461 613 473L613 473Z"/></svg>