<svg id="U2A40A" viewBox="0 0 1024 1024"><path transform="translate(0, 921.6) scale(1,-1)" d="M197 595L245 595Q186 490 60 391L60 391L67 381Q127 411 179.50 458Q232 505 289 566L289 566L289 450Q257 398 199.50 335.50Q142 273 60 198L60 198L67 186Q96 202 118 216.50Q140 231 159 249L159 249Q209 193 213 167L213 167Q215 149 222 149L222 149Q230 149 238 164L238 164Q257 197 238 218L238 218Q225 235 172 262L172 262Q198 279 230 307.50Q262 336 305 372L305 372Q360 353 399 330Q438 307 462 286L462 286Q507 241 515 283L515 283Q519 326 465 347L465 347Q438 355 400.50 363Q363 371 314 381L314 381Q320 386 328.50 394Q337 402 351 409L351 409L307 444L336 463L336 526Q368 509 393.50 490Q419 471 443 447L443 447Q485 399 490 440L490 440Q500 476 471 501L471 501Q456 516 336 542L336 542L336 595L510 595L465 655L428 620L336 620L336 728Q391 734 429 740Q467 746 484 746L484 746L433 807Q325 748 104 715L104 715L104 696Q152 698 199 704.50Q246 711 289 718L289 718L289 620L96 620L128 586Q161 595 197 595L197 595ZM289 119L289 119L289-1Q289-17 176-8L176-8L176-23Q270-43 263-83L263-83Q336-70 336-17L336-17L336 113Q408 64 433 22L433 22Q469-20 477 16L477 16Q479 34 475.50 51Q472 68 459 75L459 75Q436 96 336 129L336 129L336 157Q362 164 392.50 177Q423 190 465 208L465 208L497 211L446 262Q417 236 389.50 214.50Q362 193 336 177L336 177L336 268L361 286L285 324Q288 276 288.50 230Q289 184 289 139L289 139Q205 101 154 78.50Q103 56 80 54L80 54L131 0Q166 44 289 119ZM887 494L887 494L915 520L858 561L834 522L632 522Q648 551 663 577.50Q678 604 695 633L695 633L963 633L899 709L855 658L701 658Q708 675 715.50 697.50Q723 720 736 746L736 746L773 762L691 810Q684 773 676 735.50Q668 698 654 658L654 658L500 658L528 623Q557 633 600 633L600 633L641 633Q588 513 480 381L480 381L490 372Q549 413 578 460L578 460Q578 429 576.50 384.50Q575 340 575 283L575 283L623 303L623 331L837 331L837 293L890 321Q888 340 887.50 382.50Q887 425 887 494ZM623 359L623 497L837 497L837 359L623 359ZM685 198L603 233L606 113L606-1Q606-55 667-55L667-55L830-55Q885-55 912 3L912 3Q871 14 871 101L871 101L855 101Q855 79 853 59.50Q851 40 849 22L849 22Q835-8 802-8L802-8L691-8Q660-4 657 13L657 13L657 177L685 198ZM899 101L899 101Q913 58 928 69L928 69Q946 88 950 119L950 119Q950 157 846 249L846 249L837 242Q863 196 878.50 161Q894 126 899 101ZM657 299L647 286Q706 222 720 173L720 173Q733 118 758 151L758 151Q780 178 770 208L770 208Q762 230 657 299L657 299ZM497 60L497 60Q477 43 479.50 32.50Q482 22 500 22L500 22Q531 17 547 47L547 47Q565 75 565 208L565 208L550 208Q524 102 497 60Z"/></svg>