<svg id="U2A0B0" viewBox="0 0 1024 1024"><path transform="translate(0, 921.6) scale(1,-1)" d="M183 669L130 697Q133 666 133.50 639Q134 612 134 584L134 584L134 345Q134 312 133.50 278.50Q133 245 130 213L130 213L183 231L183 254L414 254Q406 173 400 124.50Q394 76 386 59L386 59Q377 32 363 11L363 11Q357 5 342 0L342 0Q332-4 234 8L234 8L231-9Q321-23 325-72L325-72Q372-67 407-13L407-13Q447 41 458 250L458 250L483 275L427 313L404 278L183 278L183 352L496 352L439 414L401 376L183 376L183 452L363 452L363 430L417 452Q414 479 414 508L414 508Q414 537 414 568L414 568L414 641L435 663L389 704L363 669L240 669L284 741L309 754L244 782Q241 761 232.50 732.50Q224 704 219 669L219 669L183 669ZM183 550L363 550L363 477L183 477L183 550ZM183 644L363 644L363 578L183 578L183 644ZM766 128L669 64L669 307L754 307Q761 235 775.50 175.50Q790 116 813 67L813 67Q864-20 943-57L943-57Q929-20 943 159L943 159L927 162L902 26Q861 67 836 124L836 124Q810 181 795 307L795 307L952 307L905 376L864 332L795 332Q790 375 787.50 422.50Q785 470 785 524L785 524L870 543L905 540L861 600Q832 575 769 553L769 553Q736 543 710 535.50Q684 528 666 524L666 524L618 553Q618 510 620 392.50Q622 275 622 83L622 83Q622 41 599 23L599 23L646-28Q663 0 693.50 36.50Q724 73 772 118L772 118L766 128ZM669 506L744 515Q744 467 746 422Q748 377 751 332L751 332L669 332L669 506ZM581 632L581 632L962 632L911 704L870 660L581 660L533 688Q535 643 537 582Q539 521 536 448L536 448Q536 298 524 162L524 162Q518 31 452-72L452-72L464-78Q534-10 558 93L558 93Q581 190 581 632ZM748 64L748 64L738 55Q757 31 769.50 11.50Q782-8 785-34L785-34Q794-83 823-54L823-54Q850-19 823 11L823 11Q808 29 788 41Q768 53 748 64ZM666 805L666 805L659 795Q702 752 713 707L713 707Q717 664 738 676L738 676Q754 679 764 707L764 707Q768 738 748 761L748 761Q735 770 713 780Q691 790 666 805ZM244 209L244 209L234 200Q247 172 254 148.50Q261 125 263 105L263 105Q264 86 272 77.50Q280 69 288 77L288 77Q306 84 306 118L306 118Q310 150 244 209ZM319 231L306 222Q320 193 329.50 170.50Q339 148 342 128L342 128Q346 85 360 96L360 96Q377 101 383 121L383 121Q391 141 379 162L379 162Q369 176 354.50 192Q340 208 319 231L319 231ZM130 181L130 181L116 181Q111 108 79 80L79 80Q50 51 72 30L72 30Q91 17 113 39L113 39Q135 63 130 181ZM206 46L206 46Q222 49 227 87L227 87Q231 118 175 193L175 193L162 185Q183 129 183 87L183 87Q188 40 206 46Z"/></svg>