<svg id="U2A41B" viewBox="0 0 1024 1024"><path transform="translate(0, 921.6) scale(1,-1)" d="M497 237L497 237L497 257L305 234L305 335L500 335L440 408L399 360L305 360L305 468L418 468L418 437L471 455Q466 497 465.50 564.50Q465 632 465 726L465 726L497 745L440 798L415 767L153 767L104 798Q107 768 107.50 727Q108 686 108 632L108 632Q108 574 107.50 523Q107 472 104 420L104 420L153 439L153 468L254 468L254 360L89 360L122 323Q144 329 191 335L191 335L254 335L254 226Q188 216 142.50 209Q97 202 60 200L60 200L104 128Q121 158 497 237ZM181 685L181 685L172 679Q191 631 191 584L191 584Q195 538 222 563L222 563Q250 579 238 609L238 609Q229 631 181 685ZM305 571L305 741L418 741L418 493L305 493L305 553Q347 593 372.50 620Q398 647 408 660L408 660L364 697Q355 652 305 571L305 571ZM153 493L153 741L261 741L261 493L153 493ZM150 108L150 108L135 108Q127 65 115 38Q103 11 89-9L89-9Q60-44 80-54L80-54Q95-63 125-47L125-47Q150-29 150 108ZM225 124L225 124L213 121Q241 64 241 0L241 0Q245-62 273-34L273-34Q305 0 289 26L289 26Q278 62 225 124ZM330 149L330 149L317 144Q337 101 348 69.50Q359 38 361 18L361 18Q365-30 387-6L387-6Q411 17 402 59L402 59Q393 84 330 149ZM428 185L428 185L418 178Q438 146 455 116Q472 86 477 59L477 59Q488 5 513 39L513 39Q530 76 515 105L515 105Q493 144 428 185ZM871 726L513 726L544 688Q562 690 580.50 694Q599 698 619 701L619 701L660 701Q656 350 610 203L610 203Q558 49 462-62L462-62L474-72Q538-18 584.50 48.50Q631 115 657 203L657 203Q714 375 714 701L714 701L881 701Q857 164 834 96L834 96Q815 26 773 26L773 26Q752 29 726.50 32Q701 35 673 42L673 42L673 23Q779-7 773-57L773-57Q856-40 884 46L884 46Q898 92 909.50 252.50Q921 413 931 691L931 691L963 717L909 770L871 726Z"/></svg>