<svg id="U2ADE6" viewBox="0 0 1024 1024"><path transform="translate(0, 921.6) scale(1,-1)" d="M830-51L740-49L666-43L604-33L554-18L513 1L481 24L457 52L440 82L434 98L431 96L400 56L386 40L331-19L321-29L323-52L304-46L256-1L385 83L385 353L272 353L272 374L385 374L417 401L476 353L449 331L449 105L448 105L458 94L481 73L505 55L534 41L569 30L614 21L671 16L742 15L828 17L932 23L992 26L936-48L830-51ZM174-58L151-66L129-55L121-32L124 6L124 41L123 73L119 101L113 126L109 138L104 139L106 146L95 168L84 186L69 202L51 217L55 226L80 219L103 208L123 191L225 444L286 581L294 577L191 227L173 162L169 140L167 126L162 127L167 114L176 81L182 45L185 6L185-36L174-58ZM680 772L744 761L760 750L744 741L744 654L804 654L848 702L902 654L902 632L744 632L744 552L821 552L853 578L913 530L886 509L886 267L821 234L821 277L744 277L744 175L840 175L894 229L958 175L958 154L744 154L744 52L680 19L680 154L482 154L482 175L680 175L680 277L603 277L603 261L539 229L539 584L603 552L680 552L680 632L527 632L527 654L680 654L680 772ZM680 406L603 406L603 299L680 299L680 406ZM821 406L744 406L744 299L821 299L821 406ZM680 530L603 530L603 428L680 428L680 530ZM821 530L744 530L744 428L821 428L821 530ZM127 483L123 494L118 504L112 514L104 525L95 535L73 557L60 569L44 577L48 587L66 581L84 576L100 570L116 563L144 547L157 537L168 525L179 512L188 499L189 475L172 456L148 456L130 473L127 483ZM362 527L336 567L317 591L295 616L282 626L287 634L303 627L319 621L335 614L350 606L365 596L379 586L393 574L418 549L431 534L435 510L422 490L397 485L377 499L362 527ZM523 659L499 661L484 681L486 705L499 724L504 735L509 747L513 760L516 774L518 789L520 805L521 823L519 841L529 843L535 826L541 810L894 810L926 837L985 788L958 772L941 765L936 757L914 726L897 705L888 696L882 684L873 688L877 700L888 764L890 776L892 788L548 788L551 774L553 757L554 740L553 724L551 707L547 690L543 675L523 659ZM407 704L401 718L386 744L378 757L369 770L350 795L339 808L327 819L331 827L347 819L363 813L379 805L408 785L421 774L434 762L458 736L469 721L472 697L457 677L432 675L413 690L407 704ZM187 730L182 740L171 762L164 773L155 783L145 794L122 816L108 825L112 834L129 828L145 823L161 818L176 811L190 803L203 793L228 773L238 760L248 747L249 723L233 704L209 703L190 719L187 730Z"/></svg>