<svg id="U2AC02" viewBox="0 0 1024 1024"><path transform="translate(0, 921.6) scale(1,-1)" d="M893-52L883-41L870-30L837-7L817 5L745 40L717 52L719 62L779 53L807 47L832 40L856 33L878 24L898 15L917 4L934-7L949-19L958-42L947-65L924-73L902-63L893-52ZM592 80L633 31L636 11L615 18L598 8L578-4L556-15L507-35L480-45L451-55L421-63L388-71L384-62L489 1L531 28L565 55L579 67L592 80ZM325-1L318-13L311-24L302-34L292-42L280-49L268-54L255-58L242-60L228-61L228-29L142-13L142 3L228 3L236 4L242 5L246 6L251 8L254 10L257 13L260 16L263 20L266 26L268 32L274 52L279 77L284 109L288 146L291 188L293 235L295 288L296 345L296 408L296 423L295 423L295 466L212 466L210 434L204 363L195 296L184 232L169 171L151 115L131 63L107 14L79-30L49-69L41-63L61-20L81 26L98 75L113 127L125 182L135 240L142 303L147 368L149 437L149 509L149 654L213 643L229 632L213 623L213 509L212 487L295 487L328 514L387 466L360 450L360 408L360 345L359 286L358 232L355 183L352 140L348 101L343 67L337 37L330 12L325-1ZM964 483L960 469L954 457L947 446L939 435L929 426L918 419L906 413L893 410L910 396L883 374L883 101L818 69L818 101L539 101L539 85L474 53L474 364L467 360L426 341L381 327L377 336L417 359L452 384L474 404L474 449L504 435L528 468L545 500L557 534L562 557L479 557L475 536L406 515L440 718L491 681L571 681L571 761L407 761L407 783L571 783L571 869L635 858L651 847L635 838L635 783L708 783L708 869L773 858L789 847L773 838L773 783L859 783L892 810L951 761L924 740L924 659L859 627L859 659L773 659L773 578L911 578L943 605L1002 557L975 541L973 540L972 530L969 512L968 505L966 492L964 483ZM818 199L539 199L539 123L818 123L818 199ZM818 297L539 297L539 221L818 221L818 297ZM818 396L539 396L539 319L818 319L818 396ZM852 443L866 432L866 439L852 443ZM631 605L626 578L708 578L708 659L635 659L635 654L631 605ZM45 654L45 675L184 675L184 853L249 842L265 831L249 821L249 675L300 675L354 729L418 675L418 654L45 654ZM708 761L635 761L635 681L708 681L708 761ZM859 761L773 761L773 681L859 681L859 761ZM902 501L903 504L903 508L904 514L907 528L908 538L909 548L910 557L773 557L773 455L708 423L708 557L622 557L608 517L589 477L566 442L543 417L818 417L850 443L812 455L812 471L866 471L873 471L878 473L883 474L889 477L892 480L895 483L897 487L900 492L902 499L902 501ZM571 659L496 659L482 578L567 578L570 611L571 654L571 659Z"/></svg>