<svg id="U2A286" viewBox="0 0 1024 1024"><path transform="translate(0, 921.6) scale(1,-1)" d="M305 776L225 808Q227 770 227.50 729.50Q228 689 228 644L228 644L228 524L131 524L76 563Q79 533 79.50 505Q80 477 80 448L80 448L80 87Q80 51 79.50 18.50Q79-14 76-47L76-47L122-21L122 21L389 21L389-28L440-13Q434 4 433.50 29.50Q433 55 433 93L433 93L433 496L462 518L411 563L387 524L276 524L276 625L471 625L408 704L367 653L276 653L276 751L305 776ZM122 499L389 499L389 49L122 49L122 115L131 99Q169 134 203 173Q237 212 263 257L263 257Q282 226 294 198Q306 170 314 146L314 146Q330 100 348 140L348 140Q365 187 282 294L282 294Q294 324 307.50 359.50Q321 395 336 430L336 430L367 452L305 483Q295 438 282.50 398Q270 358 254 326L254 326Q222 361 138 424L138 424L131 417Q161 384 189 352.50Q217 321 238 291L238 291Q213 234 184.50 190.50Q156 147 122 115L122 115L122 499ZM197 506L191 496Q216 462 225 417L225 417Q229 372 254 411L254 411Q280 449 197 506L197 506ZM147 335L138 329Q151 303 160 283.50Q169 264 172 247L172 247Q179 206 197 234L197 234Q214 262 207 275L207 275Q192 293 147 335L147 335ZM323 354L314 348Q348 279 348 250L348 250Q351 226 371 244L371 244Q389 259 383 282L383 282Q380 291 363 309.50Q346 328 323 354L323 354ZM238 190L238 190L228 185Q235 160 241.50 140.50Q248 121 251 103L251 103Q254 68 269 80L269 80Q289 95 289 115L289 115Q289 134 238 190ZM865 401L865 401L858 411L811 389L811 486L827 515L799 527L834 543Q834 491 852 442L852 442Q870 390 893 342L893 342Q903 363 944 363L944 363L947 373Q921 383 890 439L890 439Q874 464 864 490.50Q854 517 849 546L849 546Q863 553 879.50 556.50Q896 560 915 565L915 565L878 615Q865 587 793 540L793 540L777 546L777 404Q771 387 764 380L764 380L793 335Q797 347 816.50 363.50Q836 380 865 401ZM528 386L528 386L528 370Q579 360 588 329L588 329Q623 352 623 398L623 398L623 527L644 546L603 584L582 559L449 559L477 524L510 534Q510 407 440 313L440 313L449 304Q547 391 547 534L547 534L585 534L585 404Q580 375 528 386ZM814-85L814-85L868-62Q865-34 865-13L865-13Q865 7 865 23L865 23L865 263L881 285L818 326L818 247L582 247L582 272L606 294L537 332L537 137Q537 78 515 18L515 18Q492-32 446-78L446-78L452-91Q485-67 507.50-43.50Q530-20 547 0L547 0Q578 57 582 93L582 93L818 93L818 36Q818 17 816-12.50Q814-42 814-85ZM818 219L818 118L582 118L582 219L818 219ZM811 672L452 672L487 638Q504 640 521 642Q538 644 559 644L559 644L934 644L865 720L811 672ZM780 587L780 587L799 597L758 638Q746 614 731.50 585.50Q717 557 698 524L698 524L680 537L680 383Q680 371 678 348.50Q676 326 676 301L676 301L720 319L720 483L736 499L711 521Q751 570 780 587ZM623 644L616 638Q633 600 643.50 577.50Q654 555 657 546L657 546Q657 522 673 534L673 534Q681 534 685 565L685 565Q693 594 623 644L623 644ZM644 817L638 808Q680 738 685 704L685 704Q685 669 704 682L704 682Q718 685 732 723L732 723Q738 753 644 817L644 817Z"/></svg>