<svg id="U2A8C9" viewBox="0 0 1024 1024"><path transform="translate(0, 921.6) scale(1,-1)" d="M497-29L497-13L605-13L612-12L617-11L622-10L623-9L623-8L624-6L625-3L627 2L627 605L392 605L392 627L627 627L659 654L718 605L691 584L691 564L692 564L714 496L736 432L746 408L847 533L878 573L905 613L954 571L960 553L940 555L884 499L817 441L766 401L752 392L785 319L813 269L841 225L872 184L904 149L938 118L991 79L932 34L893 68L857 106L824 148L795 195L768 246L744 301L723 360L706 423L692 490L691 494L691 9L690-5L688-18L683-31L677-44L668-54L657-63L645-70L632-74L619-76L605-77L605-45L497-29ZM541 476L600 428L573 412L569 410L564 383L551 333L536 285L517 240L496 197L472 156L445 118L416 82L382 51L346 22L340 28L367 64L416 138L437 176L455 216L471 258L484 302L495 347L503 394L507 428L365 428L365 449L509 449L541 476ZM72 81L42 139L139 168L192 186L192 544L57 544L57 565L192 565L192 825L257 814L273 804L257 794L257 565L304 565L347 613L401 565L401 544L257 544L257 208L360 244L404 258L408 249L331 203L258 165L159 118L93 90L87 69L72 81ZM682 724L670 741L656 757L625 788L588 818L546 848L523 862L527 871L554 864L580 857L604 847L628 836L651 824L692 796L711 780L729 763L745 745L750 721L738 700L714 695L693 707L682 724Z"/></svg>