<svg id="U2A1FD" viewBox="0 0 1024 1024"><path transform="translate(0, 921.6) scale(1,-1)" d="M164 370L164 486L233 486L233 370L164 370ZM277 370L277 486L346 486L346 370L277 370ZM240 152L233 140Q293 75 309 36L309 36Q332-5 346 5L346 5Q359 21 359 39L359 39Q366 55 344 87L344 87Q334 99 308 114Q282 129 240 152L240 152ZM570 568L542 452L552 448Q606 562 643 578L643 578L586 635L570 597L489 597L520 741L542 767L472 798Q470 770 467.50 734Q465 698 461 656L461 656Q453 613 445 573.50Q437 534 429 502L429 502Q419 464 411.50 433.50Q404 403 397 383L397 383L413 380Q450 438 485 568L485 568L570 568ZM593 137L593 137Q581 184 513 270L513 270Q518 313 520.50 350.50Q523 388 526 411L526 411L545 430L482 461Q482 409 478.50 361.50Q475 314 472 272L472 272Q468 234 457 190.50Q446 147 429 99L429 99Q392 15 305-57L305-57L312-65Q391-28 444 55L444 55Q502 135 511 247L511 247Q526 204 534.50 176Q543 148 545 134L545 134Q550 116 554 99Q558 82 561 62L561 62Q565 31 583 62L583 62Q605 99 593 137ZM757 213L757 213L747 206Q756 185 761.50 168Q767 151 775 137L775 137Q785 107 785 87L785 87Q794 55 801 55L801 55Q813 47 819 70L819 70Q828 92 819 121L819 121Q815 148 757 213ZM822 244L822 244L816 231Q820 214 828 199Q836 184 842 165L842 165Q847 146 850.50 131.50Q854 117 857 108L857 108Q857 89 870 93L870 93Q874 94 883 121L883 121Q883 141 873 172L873 172Q865 186 852 203.50Q839 221 822 244ZM643 625L643 625L643 352Q643 322 641 293Q639 264 639 231L639 231L687 250L687 282L895 282Q895 239 893 198.50Q891 158 891 118L891 118Q888 80 885 52.50Q882 25 879 11L879 11Q868-15 857-21L857-21Q847-21 827-19.50Q807-18 775-16L775-16L775-28Q845-35 845-85L845-85Q890-75 911-41L911-41Q917-23 923.50-5Q930 13 932 39L932 39Q932 65 934 123.50Q936 182 939 275L939 275L961 294L917 342L891 307L687 307L687 383L955 383L911 445L876 408L687 408L687 483L845 483L845 458L895 480Q891 495 891 550L891 550L891 672L911 694L863 735L845 701L753 701L785 761L806 776L740 811Q740 798 736 770.50Q732 743 724 701L724 701L687 701L639 732Q639 703 641 675.50Q643 648 643 625ZM845 676L845 600L687 600L687 676L845 676ZM845 574L845 509L687 509L687 574L845 574ZM683 193L683 193L678 188Q682 172 686.50 155Q691 138 696 118L696 118Q706 91 706 55L706 55Q711 19 724 23L724 23Q736 32 747 55L747 55Q756 80 744 103L744 103Q738 125 683 193ZM646 188L646 188L637 188Q629 151 626 127.50Q623 104 621 90L621 90Q613 75 609.50 63Q606 51 602 39L602 39Q587 24 602 5L602 5Q615-7 631 5L631 5Q649 23 649 62L649 62Q653 82 650.50 113.50Q648 145 646 188ZM202 660L309 660L309 563L353 578L350 625L350 660L448 660L410 713L379 685L350 685L350 761L372 782L309 811L309 685L202 685L202 751L230 773L158 808Q160 776 160.50 744.50Q161 713 161 685L161 685L81 685L116 653L139 660L161 660L161 615L158 556L202 563L202 578L318 578L318 603L202 603L202 660ZM233 587L233 515L161 515L117 537Q119 495 119.50 465Q120 435 120 411L120 411Q120 390 119.50 365Q119 340 117 319L117 319L164 332L164 345L233 345Q233 330 232.50 313Q232 296 230 275L230 275L100 275L133 244Q142 250 177 250L177 250L202 250L227 250Q221 233 219 218.50Q217 204 215 190L215 190L62 190L97 152Q113 155 129 157.50Q145 160 164 165L164 165L208 165Q164 32 62-57L62-57L68-72Q202 23 256 165L256 165L431 165L379 226L344 190L259 190Q261 207 264.50 221Q268 235 271 250L271 250L423 250L369 313L335 275L274 275Q276 299 276.50 316Q277 333 277 345L277 345L346 345L346 326L391 342Q388 362 388 398L388 398Q388 434 388 483L388 483L410 502L366 543L338 515L277 515L277 587L233 587Z"/></svg>