<svg id="U2A143" viewBox="0 0 1024 1024"><path transform="translate(0, 921.6) scale(1,-1)" d="M273 603L273 701L326 701L326 603L273 603ZM172 439L172 574L228 574L228 439L172 439ZM273 439L273 574L326 574L326 439L273 439ZM371 439L371 574L430 574L430 439L371 439ZM119 376L119 376L172 393L172 414L430 414L430 386L480 401Q475 437 474.50 478Q474 519 474 571L474 571L497 591L446 632L424 603L371 603L371 701L528 701L471 770L428 726L67 726L101 691Q117 693 135.50 697Q154 701 176 701L176 701L228 701L228 603L172 603L119 628Q123 478 119 376ZM371 335L131 335L163 301Q179 303 199 305Q219 307 238 307L238 307L480 307L415 373L371 335ZM433 244L76 244L108 209Q144 219 181 219L181 219L273 219L273 23Q273-13 254-13L254-13Q244-13 224-12.50Q204-12 172-9L172-9L172-21Q247-36 251-85L251-85Q320-57 320 5L320 5L320 219L521 219L469 282L433 244ZM251 137L172 172Q153 118 127 68Q101 18 63-28L63-28L80-34Q108-11 140.50 28Q173 67 216 124L216 124L251 137ZM377 159L377 159L367 149Q411 84 424 33L424 33Q429 10 437 3Q445-4 452 8L452 8Q472 28 469 64L469 64Q464 85 377 159ZM554 609L554 609L554 360Q554 332 552 301Q550 270 550 234L550 234L600 254L600 270L890 270Q881 183 881 118L881 118Q879 86 874 62Q869 38 862 23L862 23Q850-6 824-6L824-6Q813-6 789-4Q765-2 729 2L729 2L729-21Q817-36 821-82L821-82Q858-60 884-34L884-34Q908-4 919 42L919 42Q921 63 925 119Q929 175 934 266L934 266L960 288L903 332L884 298L600 298L600 370L956 370L915 437L881 396L600 396L600 468L818 468L818 439L865 461Q862 489 862 539L862 539Q862 590 862 656L862 656L893 682L837 723L814 688L667 688Q685 714 708 764L708 764L736 782L667 811Q664 792 655.50 762.50Q647 733 638 688L638 688L591 688L550 710Q550 681 552 655.50Q554 630 554 609ZM818 663L818 587L600 587L600 663L818 663ZM818 559L818 493L600 493L600 559L818 559ZM688 229L688 229L682 222Q686 205 694 190Q702 175 708 159L708 159Q720 129 720 93L720 93Q725 67 736 67L736 67Q753 67 761 87L761 87Q772 105 761 137L761 137Q758 153 738.50 175Q719 197 688 229ZM773 241L773 241L761 234Q765 223 772 207.50Q779 192 786 172L786 172Q802 133 802 108L802 108Q802 83 818 83L818 83Q839 90 843 111L843 111Q852 127 837 168L837 168Q827 183 810.50 200Q794 217 773 241ZM610 216L610 216L603 206Q605 188 609.50 174Q614 160 619 149L619 149Q626 114 626 83L626 83Q626 49 644 49L644 49Q662 49 676 70L676 70Q684 96 670 131L670 131Q653 166 610 216ZM565 206L565 206L550 206Q545 164 541 144L541 144Q533 129 526.50 115Q520 101 506 87L506 87Q483 55 493 36L493 36Q509 23 531 33L531 33Q554 49 565 83L565 83Q571 116 565 206Z"/></svg>