<svg id="U2A344" viewBox="0 0 1024 1024"><path transform="translate(0, 921.6) scale(1,-1)" d="M314 342L314 669L487 669L440 729L402 697L314 697L314 758L336 779L261 814Q264 778 265 748Q266 718 266 697L266 697L80 697L114 660Q134 662 153.50 664.50Q173 667 191 669L191 669L266 669L266 319L314 342ZM326 486L326 486L336 477Q386 524 402 556L402 556Q418 534 431 517Q444 500 449 483L449 483Q461 450 477 474L477 474Q488 504 471 524L471 524Q460 543 405 571L405 571L421 606L452 622L395 656Q381 604 363 561.50Q345 519 326 486ZM273 534L273 534Q195 402 57 301L57 301L60 291Q185 353 273 455L273 455L273 534ZM361 80L361 80Q377 101 397 141Q417 181 443 241L443 241L471 260L421 307L389 275L248 275L269 301L289 311L225 352Q195 241 63 121L63 121L73 108Q125 143 164.50 179Q204 215 232 250L232 250L392 250Q365 162 326 108L326 108Q305 123 273.50 143Q242 163 200 185L200 185L197 172Q223 150 248.50 128Q274 106 298 80L298 80Q225-5 76-75L76-75L80-88Q219-45 326 46L326 46Q340 29 352 10.50Q364-8 374-28L374-28Q399-62 408-37L408-37Q426-10 411 18L411 18Q406 39 361 80ZM305 477L305 468Q392 406 421 352L421 352Q447 302 462 339L462 339Q475 382 440 414L440 414Q393 447 305 477L305 477ZM76 465L76 465L86 455Q128 490 159 553L159 553Q190 521 194 493L194 493Q198 457 216 486L216 486Q233 507 216 524L216 524Q205 542 163 565L163 565L191 594L213 609L153 647Q125 537 76 465ZM814 565L811 458L471 458L510 424Q525 426 543.50 428Q562 430 582 433L582 433L680 433L680 26Q680-6 657-6L657-6Q647-6 622-3Q597 0 559 2L559 2L559-13Q653-37 657-88L657-88Q723-63 723 18L723 18L723 301Q777 118 896 0L896 0Q913 26 960 36L960 36L960 49Q884 69 793 222L793 222Q808 238 826.50 256Q845 274 868 291L868 291Q898 318 937 329L937 329L890 389Q873 360 846.50 323Q820 286 780 244L780 244Q767 263 753 290Q739 317 723 354L723 354L723 433L966 433L912 506L875 458L858 458L868 697L899 720L843 764L814 726L510 726L544 688Q573 701 616 701L616 701L818 701L814 591L528 591L562 553Q579 555 596.50 559Q614 563 638 565L638 565L814 565ZM493 367L487 357Q515 324 536.50 294Q558 264 565 237L565 237Q589 184 600 216L600 216Q607 231 608.50 246Q610 261 610 272L610 272Q604 295 578 316L578 316Q567 325 545.50 337.50Q524 350 493 367L493 367ZM424 59L424 59L469-6Q492 33 544 80L544 80Q569 106 604.50 141.50Q640 177 685 222L685 222L680 234Q465 59 424 59Z"/></svg>