<svg id="U2AAF2" viewBox="0 0 1024 1024"><path transform="translate(0, 921.6) scale(1,-1)" d="M847-9L828 16L804 40L778 64L747 88L725 104L701 75L651 28L594-11L530-41L461-63L385-76L383-67L454-44L518-15L575 19L624 59L666 104L685 131L575 193L562 140L492 125L562 412L396 412L396 433L567 433L609 602L669 577L682 562L664 557L634 433L862 433L916 487L980 433L980 412L843 412L830 337L809 260L780 191L750 139L773 126L808 104L839 81L868 56L894 30L917 3L922-22L909-42L885-47L864-34L847-9ZM179 869L243 858L259 847L243 838L243-40L179-72L179 869ZM778 412L629 412L579 208L603 201L650 185L694 167L705 161L731 213L754 277L771 348L778 412ZM80 394L56 399L43 420L48 444L56 452L64 463L72 477L79 494L95 533L102 556L117 609L125 638L134 638L135 577L134 551L132 525L129 502L125 480L121 459L115 440L109 423L101 407L80 394ZM323 509L320 523L316 538L311 553L306 568L299 584L292 601L274 635L263 652L270 659L316 618L342 589L352 575L363 559L372 544L380 527L387 511L384 487L364 471L339 475L324 495L323 509ZM470 691L471 687L474 665L476 644L475 623L474 602L470 582L465 563L457 544L438 530L413 533L399 552L401 576L409 588L417 600L423 614L429 630L434 647L437 666L440 686L442 707L443 731L443 755L452 757L465 713L644 713L644 863L708 853L724 842L708 832L708 713L886 713L918 740L977 691L950 675L938 670L899 594L854 518L845 521L851 544L855 566L864 607L873 645L883 691L470 691Z"/></svg>