<svg id="U2A48" viewBox="0 0 504 1000"><path transform="translate(0, 900) scale(1,-1)" d="M253 430L253 430Q193 430 147.50 454Q102 478 76.50 522Q51 566 51 625L51 625L51 745L115 745L115 647Q115 565 149 527Q183 489 252 489L252 489Q323 489 356 528.50Q389 568 389 647L389 647L389 745L453 745L453 625Q453 537 399 483.50Q345 430 253 430ZM421 348L82 348L82 397L421 397L421 348ZM115 0L51 0L51 120Q51 179 76.50 223Q102 267 147.50 291Q193 315 253 315L253 315Q344 315 398.50 262Q453 209 453 120L453 120L453 0L389 0L389 98Q389 178 356 217Q323 256 252 256L252 256Q182 256 148.50 217.50Q115 179 115 98L115 98L115 0Z"/></svg>