<svg id="U2AE67" viewBox="0 0 1024 1024"><path transform="translate(0, 921.6) scale(1,-1)" d="M776-30L776-15L859-15L864-15L868-14L871-12L873-10L874-8L875-4L876 2L876 9L876 521L464 521L464-45L405-74L405 572L464 542L736 542L735 543L741 563L745 583L757 636L766 681L768 695L769 702L768 702L772 716L831 688L843 672L821 667L803 635L776 590L754 557L746 542L876 542L906 569L963 521L936 502L936 9L935-4L933-16L930-28L924-40L917-51L907-59L896-66L884-70L872-73L859-74L859-45L776-30ZM313 97L307 115L301 133L282 171L271 192L230 256L226 237L211 182L192 130L168 82L142 39L111 1L76-32L37-60L31-52L61-18L88 19L111 58L132 101L149 146L163 195L173 247L180 304L184 364L184 847L248 837L264 826L248 816L248 546L326 652L346 682L347 681L349 684L396 640L401 621L380 625L303 555L264 523L248 511L248 428L244 361L237 297L234 277L264 253L302 215L319 196L334 177L347 158L359 138L370 118L378 98L375 74L357 58L332 61L316 80L313 97ZM638 503L703 492L719 482L703 472L703 390L732 390L786 444L851 390L851 369L703 369L703 254L761 254L791 281L847 233L821 214L821 32L761 3L761 65L579 65L579 0L520-30L520 284L579 254L638 254L638 369L490 369L490 390L638 390L638 503ZM761 233L579 233L579 86L761 86L761 233ZM77 352L53 355L39 376L43 400L52 414L61 432L70 451L76 472L82 496L86 522L89 550L92 580L94 648L103 649L113 615L120 582L124 551L127 520L127 491L125 463L122 437L116 412L108 388L97 366L77 352ZM552 576L547 619L545 633L540 660L537 673L533 686L530 699L524 711L532 717L541 706L552 697L561 686L571 674L579 662L595 635L609 606L615 591L610 567L590 552L566 556L552 576ZM375 724L375 746L638 746L638 868L703 857L719 846L703 837L703 746L847 746L901 799L965 746L965 724L375 724Z"/></svg>