<svg id="U2A853" viewBox="0 0 1024 1024"><path transform="translate(0, 921.6) scale(1,-1)" d="M328 1L421 24L421 396L485 385L501 374L485 364L485 251L551 251L595 299L649 251L649 229L485 229L485 40L629 75L672 83L675 74L562 23L381-49L378-50L372-70L357-58L328 1ZM923 25L955 159L966 159L955 25L974 12L987-8L974-27L955-40L776-40L762-39L749-37L736-32L724-25L713-17L704-6L697 6L693 19L690 33L690 46L690 396L754 385L771 374L754 364L754 226L799 257L910 330L919 314L953 281L954 262L935 271L838 231L772 206L754 202L754 46L755 40L756 35L757 32L758 30L759 29L759 28L761 27L765 26L770 25L776 25L923 25ZM71 747L136 714L280 714L313 741L372 693L345 671L345 185L280 153L280 217L136 217L136 153L71 120L71 747ZM280 693L136 693L136 239L280 239L280 693ZM431 833L496 800L832 800L864 827L923 779L896 757L896 432L832 400L832 464L496 464L431 432L431 833ZM832 626L496 626L496 486L832 486L832 626ZM832 779L496 779L496 648L832 648L832 779Z"/></svg>