<svg id="U2AF7D" viewBox="0 0 1024 1024"><path transform="translate(0, 921.6) scale(1,-1)" d="M357-24L357-2L488-2L488 740L544 712L587 729L783 802L845 828L849 819L896 777L897 761L876 770L835 757L768 739L700 721L665 714L630 707L594 701L558 696L552 695L552 492L842 492L896 546L960 492L960 471L800 471L800-2L867-2L921 52L985-2L985-24L357-24ZM244 860L303 834L316 819L296 814L261 735L229 676L211 647L330 647L362 674L421 625L394 604L394 81L330 48L330 91L153 91L153 27L88-5L88 679L153 647L197 647L201 662L210 707L225 771L234 811L241 846L244 860ZM735 471L552 471L552-2L735-2L735 471ZM330 366L153 366L153 113L330 113L330 366ZM330 625L153 625L153 388L330 388L330 625Z"/></svg>