<svg id="U2A607" viewBox="0 0 1024 1024"><path transform="translate(0, 921.6) scale(1,-1)" d="M351 776L266 811Q271 772 272 694.50Q273 617 273 502L273 502L187 502L187 679L213 707L138 741Q139 708 139.50 649Q140 590 140 502L140 502L63 502L98 471Q115 473 130.50 475Q146 477 166 477L166 477L506 477L449 540L411 502L320 502L320 635L477 635L418 697L380 660L320 660L320 751L351 776ZM248 442L197 471Q176 374 138 304L138 304L143 301Q198 339 216 393L216 393Q222 368 228.50 349.50Q235 331 238 319L238 319Q242 297 261 311L261 311Q279 323 273 345L273 345Q267 356 256 368.50Q245 381 220 398L220 398Q226 422 248 442L248 442ZM418 266L128 266L128 357L156 386L86 417L86 62Q86 24 70 14L70 14L108-31Q138-4 418 33L418 33L418-21L469 0Q463 17 462.50 36Q462 55 462 74L462 74L462 363L487 393L418 424L418 266ZM128 241L418 241L418 55L128 26L128 241ZM389 442L336 471Q316 383 273 301L273 301L279 288Q322 331 346 383L346 383Q354 365 357.50 351.50Q361 338 364 326L364 326Q374 304 383 307L383 307Q402 313 402 335L402 335Q402 355 354 396L354 396Q361 420 389 442L389 442ZM261 200L207 226Q199 184 180 143Q161 102 138 62L138 62L143 55Q169 76 189 98.50Q209 121 222 146L222 146Q231 127 234.50 113Q238 99 241 87L241 87Q245 65 261 74L261 74Q280 87 276 105L276 105Q273 120 225 159L225 159Q234 168 242.50 179Q251 190 261 200L261 200ZM392 197L339 222Q332 179 314.50 139Q297 99 273 62L273 62L279 52Q305 75 322.50 99Q340 123 354 146L354 146Q359 127 365 112.50Q371 98 374 83L374 83Q377 62 395 70L395 70Q412 87 408 108L408 108Q400 129 358 152L358 152Q367 167 375 178Q383 189 392 197L392 197ZM446-78L446-78L459-85Q545 24 572 162L572 162Q584 232 589 310.50Q594 389 594 480L594 480L960 480L899 556L858 509L594 509L594 672Q712 690 796 701Q880 712 925 710L925 710L878 792Q813 739 591 694L591 694L544 729Q544 632 545.50 556Q547 480 547 420L547 420Q547 360 540.50 298.50Q534 237 528 168L528 168Q518 102 498 40.50Q478-21 446-78ZM623-65L623-65L673-44L673 33L862 33L862-47L915-21L909 70L909 316L940 339L887 393L858 348L680 348L623 383Q623 328 624.50 275Q626 222 626 162L626 162Q626 105 624.50 49Q623-7 623-65ZM673 62L673 323L862 323L862 62L673 62Z"/></svg>