<svg id="U2A384" viewBox="0 0 1024 1024"><path transform="translate(0, 921.6) scale(1,-1)" d="M459 591L459 591L449 578Q468 552 478.50 529.50Q489 507 497 486L497 486Q501 450 518 477L518 477Q536 507 525 530L525 530Q515 556 459 591ZM446 424L446 424L436 417Q467 363 474 323L474 323Q483 280 503 311L503 311Q523 343 506 370L506 370Q491 395 446 424ZM399 26L399 26L446-21Q486 88 520.50 183Q555 278 591 363L591 363L575 367Q533 280 490 195.50Q447 111 399 26ZM837 666L837 666L830 653Q842 637 849.50 620.50Q857 604 865 591L865 591Q873 565 890 584L890 584Q902 615 893 628L893 628Q888 633 874 643.50Q860 654 837 666ZM600 128L600 128L597 115Q616 96 630 74Q644 52 654 33L654 33Q668-9 691 26L691 26Q706 62 682 77L682 77Q649 102 600 128ZM600 190L600 190L644 209L644 307L736 307L736 222L777 234L777 307L868 307L868 282Q868 270 849 270L849 270Q833 270 821 270.50Q809 271 799 272L799 272L799 254Q851 254 875 209L875 209Q912 234 912 285L912 285L912 458L931 468L890 515L858 486L777 486L777 540L963 540L922 591L884 568L777 568L777 594L793 609L732 638Q732 618 734 601.50Q736 585 736 568L736 568L537 568L572 534Q588 536 605 538Q622 540 641 540L641 540L736 540L736 486L644 486L600 512Q600 470 601.50 431.50Q603 393 603 360L603 360Q603 322 601.50 280Q600 238 600 190ZM644 417L644 461L736 461L736 417L644 417ZM777 417L777 461L868 461L868 417L777 417ZM644 335L644 389L736 389L736 335L644 335ZM777 335L777 389L868 389L868 335L777 335ZM827 168L827 168L534 168L565 134Q584 136 601.50 140Q619 144 638 144L638 144L827 144L827 26Q827-9 799-9L799-9Q784-9 765-7Q746-5 720-3L720-3L720-21Q790-34 799-85L799-85Q871-61 871 2L871 2L871 144L966 144L928 200L893 168L871 168L871 188L893 206L824 241Q824 227 825.50 209Q827 191 827 168ZM777 679L777 676L770 615L814 628L824 679L956 679L912 735L884 707L827 707L837 758L858 776L789 811Q789 799 787.50 772Q786 745 780 707L780 707L723 707L742 672L761 679L777 679ZM720 676L676 732L644 701L623 701L619 764L638 786L562 811Q569 779 572 753Q575 727 578 701L578 701L459 701L490 669Q511 674 526 675Q541 676 554 676L554 676L582 676Q582 646 591 600L591 600L635 615L626 676L720 676ZM320 96L320 96Q333 119 353 160Q373 201 399 260L399 260L428 272L380 329L348 291L235 291L254 319L276 326L213 367Q178 262 76 144L76 144L83 131Q171 189 216 266L216 266L346 266Q314 177 289 134L289 134Q260 169 218.50 209.50Q177 250 125 298L125 298L117 285Q155 237 190 189Q225 141 257 93L257 93Q230 51 181.50 15.50Q133-20 63-62L63-62L70-78Q195-28 285 55L285 55Q311 22 330-21L330-21Q347-56 364-28L364-28Q373 6 364 33L364 33Q354 45 344 60.50Q334 76 320 96ZM302 480L302 656L465 656L418 710L387 685L302 685L302 754L323 776L251 805Q253 767 253.50 736Q254 705 254 685L254 685L92 685L114 650Q126 652 141 652.50Q156 653 176 656L176 656L254 656L254 550L254 502Q190 393 57 298L57 298L63 285Q172 328 282 468L282 468Q322 434 347 409Q372 384 383 367L383 367Q394 353 402.50 338.50Q411 324 421 311L421 311Q436 274 446 316L446 316Q461 355 443 370L443 370Q437 382 427 392Q417 402 405 414L405 414Q376 427 302 480L302 480ZM310 480L310 480L323 474Q360 505 380 550L380 550Q396 525 407 507.50Q418 490 421 474L421 474Q430 443 446 468L446 468Q461 491 446 515L446 515Q438 526 420.50 536.50Q403 547 383 559L383 559L402 594L424 609L374 647Q357 545 310 480ZM92 445L92 445L101 439Q118 465 131 490Q144 515 159 543L159 543Q183 516 194 483L194 483Q207 454 216 477L216 477Q233 500 216 518L216 518Q211 527 166 556L166 556L179 584L207 603L140 638Q133 584 122 535.50Q111 487 92 445Z"/></svg>