<svg id="U2A741" viewBox="0 0 1024 1024"><path transform="translate(0, 921.6) scale(1,-1)" d="M598 197L599 199L537 239L791 239L791 188L842 219Q841 241 840.50 263Q840 285 840 308L840 308L839 307L855 328L810 375L785 342L645 342L645 401L791 401L791 371L842 402Q841 422 840.50 443Q840 464 840 487L840 487L956 487L901 559L864 509L840 509L840 562L839 561L859 582L809 632L785 595L645 595L645 606L644 605L658 626L592 662Q594 642 594 624L594 624Q594 607 594 595L594 595L443 595L392 623Q394 595 395 566.50Q396 538 396 509L396 509L307 509L335 473Q366 487 396 487L396 487Q396 458 395 427.50Q394 397 392 369L392 369L446 390L446 401L594 401L594 342L443 342L392 365Q394 339 395 315.50Q396 292 396 273L396 273Q396 254 395 235.50Q394 217 392 198L392 198L446 219L446 239L535 239Q515 187 498 155L498 155L263 155L293 117Q324 131 356 131L356 131L483 131Q472 114 459 96Q446 78 433 58L433 58Q471 54 513 48Q555 42 615 26L615 26Q558-19 476-45L476-45Q391-73 307-85L307-85L307-98Q410-94 500-69.50Q590-45 665 3L665 3Q723-7 773-30L773-30Q798-41 818.50-54Q839-67 858-81L858-81Q874-94 886-94L886-94Q901-94 902-76L902-76L902-71Q902-56 897.50-44.50Q893-33 885-24L885-24Q869-7 828 6L828 6Q788 19 698 38L698 38Q722 61 743 83.50Q764 106 784 131L784 131L980 131L924 213L880 155L553 155Q572 186 598 197L598 197ZM868 684L849 611L864 597Q903 671 947 676L947 676L898 748L864 706L391 706L388 747L366 747Q351 664 327 630L327 630Q309 606 309 592L309 592Q309 585 313 581L313 581Q322 571 342 571L342 571L346 571Q357 572 365 578Q373 584 378 594L378 594Q388 614 391 684L391 684L868 684ZM535 131L535 131L710 131Q691 102 675.50 82.50Q660 63 646 52L646 52Q617 56 580.50 61.50Q544 67 501 75L501 75Q510 88 518.50 102Q527 116 535 131ZM446 423L446 487L594 487L594 423L446 423ZM446 509L446 573L594 573L594 509L446 509ZM645 423L645 487L791 487L791 423L645 423ZM645 509L645 573L791 573L791 509L645 509ZM446 260L446 319L594 319L594 260L446 260ZM645 260L645 319L791 319L791 260L645 260ZM564 859L556 843Q577 817 591 791Q605 765 613 739L613 739Q623 709 639 709L639 709Q650 709 659 723L659 723Q671 742 671 761L671 761Q671 785 646 809Q621 833 564 859L564 859ZM60 124L60 124L112 148L112 252L216 252L216 184L268 212Q264 276 264 324L264 324L264 668L296 688L244 736L212 704L112 704L60 736Q64 600 64 434L64 434Q64 268 60 124ZM112 272L112 684L216 684L216 272L112 272Z"/></svg>