<svg id="U2A2C3" viewBox="0 0 1024 1024"><path transform="translate(0, 921.6) scale(1,-1)" d="M190 530L190 597L369 597L369 530L190 530ZM33-72L33-72L43-82Q142 50 167 188L167 188Q180 257 186 334.50Q192 412 190 502L190 502L275 502L275 357Q275 331 255 316L255 316L296 266Q321 286 376.50 311Q432 336 520 367L520 367L517 380L324 339L324 414L520 414L467 474L429 439L324 439L324 465L353 483L287 502L564 502Q564 492 565.50 461.50Q567 431 567 380L567 380Q567 298 652 298L652 298L822 298Q834 298 846 298.50Q858 299 873 304L873 304Q885 311 895.50 319Q906 327 914 342L914 342Q901 344 893.50 350Q886 356 879 363L879 363Q869 379 869 420L869 420L851 420Q851 378 841 357L841 357Q832 339 800 339L800 339L655 339Q617 339 617 393L617 393L617 398Q677 407 735.50 414.50Q794 422 851 430L851 430L807 483Q747 448 617 420L617 420L617 455L652 480L576 502L781 502L781 480L835 502Q832 530 832 553L832 553Q832 576 832 594L832 594L860 612L810 663L775 625L617 625L617 691L910 691L848 761L800 717L529 717Q554 742 535 767L535 767Q521 781 439 808L439 808L432 798Q450 783 464.50 763.50Q479 744 498 717L498 717L195 717L133 754Q135 716 135.50 656.50Q136 597 136 515L136 515Q138 430 133.50 354.50Q129 279 120 209L120 209Q114 143 91.50 71.50Q69 0 33-72ZM190 625L190 691L369 691L369 625L190 625ZM419 625L419 691L567 691L567 625L419 625ZM617 530L617 597L781 597L781 530L617 530ZM419 530L419 597L567 597L567 530L419 530ZM236 266L227 257Q250 228 267.50 204.50Q285 181 290 162L290 162Q307 121 324 140L324 140Q345 151 341 188L341 188Q329 216 236 266L236 266ZM177-28L177-28L249-62Q284-5 413 128L413 128L400 144Q348 90 291.50 48Q235 6 177-28ZM447 83L447 83L504 99L504 121L545 121Q536 56 517 26L517 26Q498 2 447-28L447-28Q426-40 400.50-48.50Q375-57 347-65L347-65L350-82Q388-79 417-70.50Q446-62 470-54L470-54Q517-34 555 5L555 5Q573 23 582 51Q591 79 599 121L599 121L652 121L652-13Q652-69 715-69L715-69L851-69Q870-69 885-65L885-65Q902-60 930-28L930-28Q896-23 892 11L892 11Q889 29 889 45L889 45Q889 61 889 80L889 80L873 80Q870 57 867 38Q864 19 860 5L860 5Q850-22 828-28L828-28L740-28Q702-28 702 2L702 2L702 121L743 121L743 93L797 108L794 168L794 229L819 247L769 298L737 266L507 266L447 294Q449 261 449.50 236Q450 211 450 188L450 188Q450 168 449.50 140.50Q449 113 447 83ZM504 146L504 241L743 241L743 146L504 146Z"/></svg>