<svg id="U2A700" viewBox="0 0 1024 1024"><path transform="translate(0, 921.6) scale(1,-1)" d="M246 790L252 799Q322 756 331 739L331 739Q348 716 328 686L328 686Q309 649 299 692L299 692Q293 710 279.50 734Q266 758 246 790L246 790ZM164 616L173 629Q258 568 264 544L264 544Q268 515 249 496L249 496Q224 473 220 496L220 496Q215 508 212 521Q209 534 205 550L205 550Q197 562 187 578.50Q177 595 164 616L164 616ZM132 632L99 666L434 666L479 705L532 642L252 642L205 642Q183 642 166 638Q149 634 132 632L132 632ZM384 642L457 613Q445 601 433.50 590.50Q422 580 416 569L416 569Q405 554 393 531Q381 508 365 478L365 478L466 478L513 519L564 452L154 452Q135 452 119.50 450.50Q104 449 87 447L87 447L52 478L343 478Q363 534 373.50 574.50Q384 615 384 642L384 642ZM110 421L167 390L444 390L482 421L526 377L498 355L498 203L498 156Q498 131 501 103L501 103L447 84L447 106L328 106L328 31Q328-11 375-11L375-11L847-11Q871-11 885 10L885 10Q889 23 892 46Q895 69 901 103L901 103L914 103Q908 11 951-9L951-9Q921-52 860-52L860-52L340-52Q280-52 280 12L280 12L280 106L164 106L164 90L110 69Q112 108 112.50 150Q113 192 113 239L113 239Q113 285 112.50 330Q112 375 110 421L110 421ZM164 362L164 264L280 264L280 362L164 362ZM164 239L164 131L280 131L280 239L164 239ZM328 264L447 264L447 362L328 362L328 264ZM328 131L447 131L447 239L328 239L328 131ZM568 632L528 675L862 675L899 715L959 644L764 644L762 495L760 495Q858 447 873 406L873 406Q884 380 884 354L884 354Q884 341 881 329L881 329Q878 315 870 315L870 315Q859 315 843 348L843 348Q831 375 811.50 404Q792 433 764 463L764 463L764 156Q763 150 763 144L763 144Q763 138 763 133L763 133L763 113Q763 72 769 51L769 51L710 24Q713 68 714 102.50Q715 137 715 162L715 162L715 646L608 646Q603 647 599.50 647.50Q596 648 592 648L592 648Q575 648 568 632L568 632Z"/></svg>