<svg id="U2A505" viewBox="0 0 1024 1024"><path transform="translate(0, 921.6) scale(1,-1)" d="M208 604L208 604L265 623L265 643L779 643L779 614L835 630L832 681L832 746L858 766L801 810L773 771L269 771L208 794Q211 763 211.50 739.50Q212 716 212 699L212 699Q212 682 211.50 658.50Q211 635 208 604ZM265 668L265 743L779 743L779 668L265 668ZM159 265L159 265L133 239L180 195L208 218L385 218L385 148L56 148L94 113Q111 115 130.50 117Q150 119 171 119L171 119L218 119Q203-4 47-62L47-62L53-77Q252-34 272 119L272 119L385 119Q385 49 384.50-1.50Q384-52 382-83L382-83L442-67L436 16L436 214L467 236L413 286L382 245L212 245L212 466L237 488L156 520Q158 493 158.50 428.50Q159 364 159 265ZM656-5L656 123L855 123Q855 50 853 2Q851-46 851-77L851-77L911-49L908-5L908 116L936 136L883 183L851 151L656 151L656 218L829 218L829 195L883 218L879 258L879 460L908 481L823 514Q823 478 826 410Q829 342 829 245L829 245L662 245L599 274L599-83L660-58L656-5ZM391 576L331 602L334 522L334 444L334 365L331 277L388 293L388 312L662 312L662 286L719 306L716 422L716 542L744 561L694 607L662 576L391 576ZM388 548L662 548L662 501L388 501L388 548ZM388 473L662 473L662 428L388 428L388 473ZM388 403L662 403L662 337L388 337L388 403Z"/></svg>