<svg id="U2A660" viewBox="0 0 1024 1024"><path transform="translate(0, 921.6) scale(1,-1)" d="M611 679L611 679L772 679Q743 625 690 566L690 566Q668 588 648 616Q628 644 611 679ZM678 777L611 815Q606 797 600.50 776.50Q595 756 583 736L583 736Q576 712 558.50 683.50Q541 655 520 622L520 622L536 616Q573 653 593 679L593 679Q599 633 659 540L659 540Q617 505 569 479Q521 453 461 430L461 430L464 411Q480 416 505 423L505 423Q505 397 506.50 361Q508 325 508 276L508 276L328 276L328 349L362 367L271 406Q273 376 273.50 343.50Q274 311 274 276L274 276L62 276L97 241Q134 251 174 251L174 251L639 251Q608 177 533 134L533 134L537 125L276 125Q315 135 341 154L341 154Q354 159 365 170.50Q376 182 388 195L388 195Q419 170 441 144L441 144Q458 111 464 134L464 134Q472 143 467 169L467 169Q459 188 391 198L391 198L410 216L438 219L369 247Q334 172 262 134L262 134L264 125L224 125L224 175L246 191L168 216Q170 173 170.50 120Q171 67 171-3L171-3L139-18L192-62L224-44L801-44L801-75L857-55Q854-37 854-22L854-22Q854-8 854 1L854 1L854 172L883 191L798 216Q798 206 798.50 183Q799 160 799 125L799 125L733 125Q735 126 740 134L740 134Q756 147 740 169L740 169Q733 173 710.50 181.50Q688 190 655 198L655 198Q662 206 673 214Q684 222 696 232L696 232L639 251L961 251L891 311L847 276L561 276L561 326L873 326L806 403L753 352L561 352L561 377L586 393L505 424Q553 438 597 459Q641 480 683 506L683 506Q724 465 857 421L857 421Q871 456 927 462L927 462L927 475Q774 489 721 537L721 537Q748 558 775.50 594.50Q803 631 832 679L832 679L891 679L839 739L806 704L611 704Q655 770 678 777L678 777ZM344 774L366 789L290 821Q293 799 293.50 781.50Q294 764 294 745L294 745L116 745L151 714Q168 716 187 718Q206 720 227 720L227 720L294 720L294 686L139 686L177 648Q213 660 256 660L256 660L294 660L294 622L94 622L130 588Q148 590 168.50 593.50Q189 597 208 597L208 597L253 597Q216 489 78 406L78 406L81 393Q213 442 281 540L281 540L407 540Q379 461 366 455L366 455Q356 452 336.50 455.50Q317 459 287 465L287 465L284 452Q344 434 350 403L350 403Q392 409 420 440L420 440Q428 455 438 479Q448 503 461 537L461 537L485 560L438 597L545 597L489 648L457 622L344 622L344 660L498 660L448 717L416 686L344 686L344 720L539 720L489 777L457 745L344 745L344 774ZM312 597L438 597L410 566L294 566L312 597ZM726 125L547 125Q596 144 649 191L649 191Q670 179 685 166Q700 153 712 141L712 141Q719 127 726 125L726 125ZM660 100L800 100Q800 74 800.50 44.50Q801 15 801-18L801-18L539-18Q571-4 600 10Q629 24 652 43L652 43Q671 31 687.50 22Q704 13 716 1L716 1Q735-22 750-6L750-6Q761 15 734 24L734 24Q710 42 655 46L655 46Q667 58 677 66.50Q687 75 700 80L700 80L660 100ZM393 100L636 100Q605 30 533-11L533-11L539-18L224-18L224 100L369 100Q347 37 236-6L236-6L246-15Q346 11 382 43L382 43Q402 31 421 20.50Q440 10 448-3L448-3Q471-26 485-6L485-6Q501 15 479 24L479 24Q460 42 391 46L391 46Q415 70 441 77L441 77L393 100Z"/></svg>