<svg id="U2A5BE" viewBox="0 0 1024 1024"><path transform="translate(0, 921.6) scale(1,-1)" d="M346-85L346-85L402-65Q399-39 399 8L399 8Q399 55 399 131L399 131L534 131L490 185L456 159L67 159L101 124Q136 131 169 131L169 131L204 131Q184-14 63-72L63-72L67-85Q239-22 257 131L257 131L354 131Q354 49 352-5Q350-59 346-85ZM153 414L111 437Q116 294 111 181L111 181L159 200L159 209L424 209L424 190L474 209Q471 237 471 279L471 279Q471 322 471 380L471 380L497 398L452 442L421 414L153 414ZM197 638L197 685L395 685L395 638L197 638ZM197 565L197 612L395 612L395 565L197 565ZM197 493L197 537L395 537L395 493L197 493ZM159 332L159 386L269 386L269 332L159 332ZM317 332L317 386L424 386L424 332L317 332ZM159 237L159 304L269 304L269 237L159 237ZM317 237L317 304L424 304L424 237L317 237ZM197 710L143 741Q149 593 143 437L143 437L197 455L197 465L395 465L395 442L443 465Q440 492 440 544L440 544Q440 597 440 676L440 676L469 694L418 745L392 710L261 710L295 770L323 786L261 811Q257 783 235 710L235 710L197 710ZM723 612L723 745L745 767L673 795Q673 750 674.50 703.50Q676 657 676 612L676 612L575 612L575 694L594 717L528 754Q528 719 529.50 686Q531 653 531 625L531 625L513 609L547 565L575 587L827 587L827 556L881 574Q878 601 878 629L878 629Q878 657 878 688L878 688L896 710L824 748Q824 710 825.50 676.50Q827 643 827 612L827 612L723 612ZM575 376L575 461L663 461L663 376L575 376ZM708 376L708 461L808 461L808 376L708 376ZM858 323L858 452L884 474L834 518L808 489L644 489L676 534L704 550L638 578Q636 561 630.50 539.50Q625 518 613 489L613 489L572 489L528 512Q528 470 529.50 430Q531 390 531 348L531 348Q531 306 529.50 267.50Q528 229 528 197L528 197L575 216L575 241L647 241Q638 193 620.50 147.50Q603 102 575 62L575 62Q549 19 508-12Q467-43 415-69L415-69L418-85Q533-39 600 30L600 30Q663 102 691 229L691 229L691-9Q691-69 761-69L761-69L887-69Q934-69 960-25L960-25Q934-4 934 14L934 14Q929 28 928.50 45Q928 62 928 83L928 83L915 83Q915 62 911.50 42.50Q908 23 906 5L906 5Q902-26 884-31L884-31L770-31Q736-31 736 11L736 11L736 241L808 241L808 209L862 231L858 323ZM575 266L575 348L663 348L663 266L575 266ZM708 266L708 348L808 348L808 266L708 266ZM852 83L770 70Q784 91 798 111Q812 131 827 152L827 152L852 165L799 197Q794 178 788 158.50Q782 139 773 115L773 115Q753 74 736 74L736 74L761 23Q773 41 858 67L858 67Q858 58 860 50Q862 42 865 33L865 33Q865 12 884 30L884 30Q896 52 896 67L896 67Q896 89 846 134L846 134L834 128L852 83Z"/></svg>