<svg id="U2A31B" viewBox="0 0 1024 1024"><path transform="translate(0, 921.6) scale(1,-1)" d="M595 479L595 674L853 674L853 479L595 479ZM595 31L595 262L866 262L866 31L595 31ZM598 699L539 733Q539 672 540.50 620Q542 568 542 526L542 526L542 88Q542 45 540.50 2.50Q539-40 539-83L539-83L595-62L595 3L866 3L866-62L925-36Q922-6 922 21L922 21Q922 49 922 75L922 75L922 242L948 268L897 321L866 286L595 286L595 450L853 450L853 403L910 432Q907 472 907 493L907 493Q907 515 907 520L907 520L907 655L942 681L888 737L850 699L598 699ZM331 359L331 359L258 403Q210 284 90 157L90 157L96 148Q139 179 174.50 209.50Q210 240 239 271L239 271L416 271Q371 176 336 129L336 129Q291 162 198 208L198 208L189 195Q228 165 258 140Q288 115 308 95L308 95Q223 1 55-67L55-67L58-83Q215-41 340 60L340 60Q377 12 400-33L400-33Q421-68 438-39L438-39Q451-5 438 22L438 22Q428 40 412 58Q396 76 378 98L378 98Q394 123 418.50 163.50Q443 204 472 262L472 262L501 280L444 331L416 296L258 296Q308 346 331 359ZM182 406L532 406L472 479L425 432L325 432L325 526L485 526L425 602L393 555L325 555L325 655L501 655L441 722L400 681L325 681L325 756L349 774L267 810L271 740L271 681L106 681L135 646Q171 655 208 655L208 655L271 655L271 548L123 548L154 517Q172 519 190 520.50Q208 522 226 522L226 522L271 522L271 432L78 432L110 403Q127 405 144 405.50Q161 406 182 406L182 406Z"/></svg>