<svg id="U2A343" viewBox="0 0 1024 1024"><path transform="translate(0, 921.6) scale(1,-1)" d="M513 198L513 198L498 198Q484 96 451 57L451 57Q422 22 451 10L451 10Q482 3 511 63L511 63Q513 89 513 122L513 122Q513 155 513 198ZM631 177L552 211Q552 188 553.50 165.50Q555 143 555 119L555 119L555 6Q555-69 646-62L646-62L801-62Q866-62 895-8L895-8Q857 12 857 38L857 38Q854 54 850.50 73Q847 92 847 113L847 113L835 113Q835-17 801-17L801-17L639-17Q605-16 605 22L605 22L605 151L631 177ZM652 262L652 262L646 252Q701 165 709 123L709 123Q724 78 744 107L744 107Q762 146 747 177L747 177Q733 203 652 262ZM845 214L845 214L839 205Q859 179 873.50 156Q888 133 898 116L898 116Q902 100 908.50 81.50Q915 63 920 47L920 47Q931 21 952 47L952 47Q970 87 952 123L952 123Q939 139 913 162.50Q887 186 845 214ZM678 778L598 815Q594 780 585.50 744Q577 708 561 668L561 668Q547 630 527 593.50Q507 557 489 529L489 529L495 520Q548 564 602 661L602 661L668 661Q639 565 595.50 496Q552 427 492 375L492 375L505 368Q640 441 719 661L719 661L781 661Q750 496 680 413L680 413Q621 335 530 274L530 274L536 262Q622 295 706 384L706 384Q782 460 832 661L832 661L883 661Q877 573 871 511.50Q865 450 863 413L863 413Q858 371 852 349.50Q846 328 842 321L842 321Q825 306 740 331L740 331L740 312Q819 284 819 239L819 239Q867 261 895 303L895 303Q907 328 914.50 413Q922 498 930 648L930 648L958 677L911 725L873 687L608 687Q617 703 627.50 721Q638 739 649 759L649 759L678 778ZM315 340L315 668L498 668L451 728L407 696L315 696L315 756L338 781L265 815Q269 777 270 747Q271 717 271 696L271 696L84 696L116 658Q133 660 150.50 662.50Q168 665 186 668L186 668L271 668L271 314L315 340ZM331 485L331 485L341 476Q388 522 407 555L407 555Q425 533 438.50 515.50Q452 498 457 481L457 481Q470 448 485 473L485 473Q500 497 485 522L485 522Q473 531 456 543Q439 555 413 566L413 566L431 604L457 620L400 652Q370 550 331 485ZM277 529L277 529Q196 398 62 299L62 299L65 286Q190 356 277 457L277 457L277 529ZM356 75L356 75Q383 107 403 147.50Q423 188 444 236L444 236L472 252L426 303L394 274L253 274L274 299L294 309L233 350Q205 241 72 119L72 119L81 107Q129 143 168 177Q207 211 233 249L233 249L397 249Q378 201 360.50 167Q343 133 322 107L322 107Q305 128 276 148.50Q247 169 205 195L205 195L199 183Q226 153 252 126.50Q278 100 300 79L300 79Q229-3 88-77L88-77L88-90Q154-68 212.50-36.50Q271-5 322 41L322 41Q336 23 346 4.50Q356-14 366-33L366-33Q380-72 397-39L397-39Q417-10 397 16L397 16Q389 31 379 46Q369 61 356 75ZM303 481L303 469Q397 405 426 350L426 350Q451 301 470 337L470 337Q478 381 448 413L448 413Q404 440 303 481L303 481ZM84 463L84 463L91 453Q112 473 131.50 497.50Q151 522 168 551L168 551Q177 536 185 522Q193 508 196 491L196 491Q206 453 218 485L218 485Q235 505 218 522L218 522Q206 540 174 563L174 563L192 589L215 607L158 646Q128 532 84 463Z"/></svg>