<svg id="U2A01C" viewBox="0 0 1024 1024"><path transform="translate(0, 921.6) scale(1,-1)" d="M322 93L322 93L322 213Q340 195 357 181.50Q374 168 382 156L382 156Q389 146 396.50 132Q404 118 413 99L413 99Q426 72 444 99L444 99Q462 130 444 162L444 162Q424 190 322 234L322 234L322 483L397 483L397 313Q397 294 379 294L379 294Q351 294 335 298L335 298L335 282Q380 269 391 234L391 234Q444 252 444 307L444 307L444 474L472 496L420 543L397 509L322 509L322 612L495 612L444 682L410 641L322 641L322 741L353 767L268 805Q272 767 273 725Q274 683 274 641L274 641L88 641L120 606Q137 608 153.50 610Q170 612 189 612L189 612L274 612L274 509L196 509L142 540Q144 498 144.50 461Q145 424 145 386L145 386Q145 344 144.50 303Q144 262 142 222L142 222L196 250L196 483L274 483L274 339Q208 163 65 5L65 5L75-9Q138 45 187.50 104Q237 163 274 229L274 229Q274 121 273 45.50Q272-30 268-85L268-85L325-57Q322-27 322 7L322 7Q322 42 322 93ZM520 619L520 619L520 352Q520 322 519.50 293.50Q519 265 517 234L517 234L570 254L570 278L870 278Q867 235 865 199Q863 163 863 131L863 131Q861 91 857.50 65Q854 39 850 26L850 26Q843 2 819-3L819-3L709-3L709-28Q813-28 813-78L813-78Q837-71 852-58Q867-45 879-31L879-31Q895 0 904 46L904 46Q906 69 909.50 128Q913 187 920 278L920 278L945 298L898 345L866 307L570 307L570 376L958 376L907 442L870 404L570 404L570 474L809 474L809 452L863 471L860 530L860 666L886 685L839 729L806 694L672 694L716 764L740 776L665 811Q665 792 658.50 763Q652 734 643 694L643 694L557 694L517 720Q519 690 519.50 665Q520 640 520 619ZM809 666L809 591L570 591L570 666L809 666ZM809 565L809 502L570 502L570 565L809 565ZM662 222L662 222L652 216Q659 198 666 183.50Q673 169 678 152L678 152Q693 129 693 93L693 93Q698 64 709 64L709 64Q721 64 734 83L734 83Q752 101 740 134L740 134Q726 167 662 222ZM750 234L750 234L740 229Q745 217 750.50 202.50Q756 188 765 172L765 172Q770 150 775.50 133.50Q781 117 781 105L781 105Q781 80 801 80L801 80Q820 86 826 111L826 111Q835 131 819 162L819 162Q799 187 750 234ZM580 209L580 209L574 200Q576 186 579 171.50Q582 157 590 144L590 144Q592 129 594 114Q596 99 596 80L596 80Q596 46 614 46L614 46Q629 46 646 67L646 67Q652 89 643 131L643 131Q622 165 580 209ZM533 200L533 200L517 200Q514 183 512 167Q510 151 508 140L508 140Q500 125 492 111.50Q484 98 472 83L472 83Q446 53 457 36L457 36Q471 21 498 30L498 30Q523 50 533 80L533 80Q537 111 533 200Z"/></svg>