<svg id="U2AC5B" viewBox="0 0 1024 1024"><path transform="translate(0, 921.6) scale(1,-1)" d="M653-19L653-3L750-3L756-3L761-2L764-1L766 0L768 2L769 4L770 6L771 12L771 18L771 119L349 119L349-39L285-72L285 362L250 326L191 278L124 236L52 199L47 208L114 253L173 301L225 352L270 405L285 426L285 432L287 431L308 462L339 519L163 519L163 541L348 541L365 585L382 652L383 654L55 654L55 676L386 676L394 723L398 785L173 785L173 806L775 806L808 833L867 785L840 763L840 676L893 676L937 724L990 676L990 654L840 654L840 498L775 466L775 519L394 519L385 499L347 437L327 411L349 400L771 400L803 427L863 378L836 357L836 18L835 4L832-9L828-22L822-34L813-45L802-54L790-60L776-65L764-67L750-68L750-35L653-19ZM771 249L349 249L349 140L771 140L771 249ZM771 378L349 378L349 270L771 270L771 378ZM775 654L442 654L439 638L415 567L403 541L775 541L775 654ZM775 785L462 785L454 714L447 676L775 676L775 785Z"/></svg>