<svg id="U2ADBE" viewBox="0 0 1024 1024"><path transform="translate(0, 921.6) scale(1,-1)" d="M500 247L496 234L490 223L482 211L472 202L461 194L449 188L436 184L423 182L409 181L409 213L366 229L366 245L409 245L416 246L421 247L425 248L428 249L430 251L432 253L435 256L438 265L444 296L447 320L447 344L445 369L442 394L436 419L428 445L405 500L391 528L392 530L387 532L438 702L444 726L455 774L456 777L352 777L352-45L288-77L288 831L352 799L458 799L490 826L550 777L523 761L514 757L505 733L485 684L460 634L431 581L399 534L422 511L442 487L459 461L474 434L486 406L495 378L501 349L504 320L506 291L503 261L500 247ZM526 638L585 627L600 616L585 607L585 14L866 14L920 68L985 14L985-8L585-8L585-45L526-75L526 638ZM163-58L139-66L117-55L109-32L111 6L112 41L111 73L108 102L102 127L99 138L93 139L96 148L87 169L76 187L63 203L47 217L51 226L74 219L96 207L112 193L206 444L262 580L272 577L177 227L162 163L158 141L156 126L151 127L156 113L164 81L170 45L173 6L173-36L163-58ZM785 132L785 148L860 148L866 149L871 150L874 151L876 152L878 153L878 154L879 155L880 159L881 163L881 170L881 362L874 354L850 354L832 371L828 385L824 399L814 425L803 452L797 464L795 469L790 449L780 415L766 383L751 353L733 326L714 302L691 281L682 275L682 100L629 73L629 643L682 616L751 616L751 767L559 767L559 788L866 788L920 842L985 788L985 767L810 767L810 616L881 616L914 643L973 595L946 573L946 170L945 156L943 143L938 130L932 118L923 107L912 98L900 91L887 87L874 85L860 84L860 116L785 132ZM751 595L682 595L682 302L706 343L717 370L728 398L736 428L742 461L747 495L750 531L751 569L751 595ZM809 567L810 567L806 526L801 496L808 491L831 472L853 449L873 424L881 412L881 595L810 595L810 568L809 567ZM114 484L111 495L107 505L101 515L94 526L87 536L67 557L55 569L41 577L45 587L61 581L78 576L93 570L108 563L122 555L135 546L146 535L158 524L167 512L176 498L176 474L159 456L134 456L116 474L114 484ZM166 741L161 752L156 762L149 773L142 784L123 805L113 816L100 825L104 833L119 827L135 823L149 817L163 810L177 802L189 793L212 771L222 760L231 747L231 722L215 704L190 703L172 720L166 741Z"/></svg>