<svg id="U2A692" viewBox="0 0 1024 1024"><path transform="translate(0, 921.6) scale(1,-1)" d="M184-72L184-72L235-47Q232-25 232-9L232-9Q232 7 232 23L232 23L232 357L371 357L323 424L289 386L232 386L232 660L351 660L307 713L273 685L80 685L114 650Q131 657 151 660Q171 663 187 663L187 663L187 386L60 386L96 352Q114 355 136 356Q158 357 184 357L184 357L187 357L187 105Q187 57 186.50 14Q186-29 184-72ZM449 811L440 802Q449 784 457.50 770Q466 756 471 741L471 741Q480 719 487 685L487 685Q492 656 506 666L506 666Q513 673 519 679.50Q525 686 528 697L528 697Q534 714 518 745L518 745Q507 759 491 774Q475 789 449 811L449 811ZM562 660L364 660L399 625Q415 627 432 629.50Q449 632 469 632L469 632L559 632Q557 618 545 578.50Q533 539 510 474L510 474L354 474L389 442Q405 444 423.50 446Q442 448 462 448L462 448L657 448L613 509L578 474L528 474Q555 530 575 559L575 559Q582 573 593 584Q604 595 619 606L619 606L569 632L651 632L600 694L562 660ZM436 619L424 612Q432 591 436 577Q440 563 443 559L443 559Q445 549 445.50 537.50Q446 526 449 515L449 515Q454 486 462 486L462 486Q475 486 484 506L484 506Q492 517 487 543L487 543Q484 555 470.50 572.50Q457 590 436 619L436 619ZM392-82L392-82L443-50L443 118L569 118L569 21Q562-13 547-13L547-13Q539-13 523-12.50Q507-12 480-9L480-9L480-21Q513-31 528-41L528-41Q537-47 543-58.50Q549-70 556-85L556-85Q616-57 616 2L616 2L616 354L641 373L588 417L562 386L443 386L392 408Q397 382 398 326Q399 270 399 185L399 185Q399 97 398 31.50Q397-34 392-82ZM443 270L443 357L569 357L569 270L443 270ZM680 682L680 682L680 603L660 587L701 546L723 568L846 568L846 461L720 461L676 483Q676 445 678 411.50Q680 378 680 348L680 348L680-3Q674-68 732-72L732-72L893-72Q942-72 963-31L963-31Q931-25 931 21L931 21Q929 41 928.50 67Q928 93 928 124L928 124L912 124Q908 36 903 0L903 0Q889-38 852-34L852-34L758-34Q723-34 723 8L723 8L723 77L896 77L849 140L814 103L723 103L723 193L909 193L858 260L827 219L723 219L723 311L912 311L858 373L827 335L723 335L723 433L846 433L846 411L893 433Q890 456 890 488L890 488Q890 521 890 563L890 563L915 587L858 622L840 597L723 597L723 663L919 663L868 729L830 688L723 688L723 741L752 767L676 802Q676 780 678 748.50Q680 717 680 682ZM443 144L443 241L569 241L569 144L443 144Z"/></svg>