<svg id="U2A604" viewBox="0 0 1024 1024"><path transform="translate(0, 921.6) scale(1,-1)" d="M526 376L526 376L577 396L577 430L860 430L860 389L917 408L911 502L911 720L942 741L886 792L857 754L577 754L526 782Q526 739 528 690Q530 641 530 581L530 581Q530 517 528 466.50Q526 416 526 376ZM577 455L577 587L860 587L860 455L577 455ZM577 612L577 726L860 726L860 612L577 612ZM839-28L839-28L672-28Q603-32 608 36L608 36L608 137Q734 178 866 244L866 244L904 244L845 316Q824 294 760 244L760 244Q723 225 686.50 204Q650 183 608 162L608 162L608 288L637 313L555 352Q555 322 556 298Q557 274 557 254L557 254L557 144L495 118L498 99L557 118L557 59L557-6Q557-75 634-75L634-75L886-75Q932-71 961-19L961-19Q931-8 927 8L927 8Q920 19 920 103L920 103L901 103Q901 39 895 2L895 2Q884-28 839-28ZM356 767L274 802Q276 769 276.50 693Q277 617 277 496L277 496L202 496L202 682L224 707L148 741Q150 711 150.50 650Q151 589 151 496L151 496L62 496L91 458Q107 463 128.50 465.50Q150 468 177 471L177 471L498 471L441 540L403 496L325 496L325 619L489 619L431 685L394 644L325 644L325 745L356 767ZM249 437L202 458Q181 360 145 291L145 291L151 288Q199 322 218 380L218 380Q224 358 230.50 339.50Q237 321 240 307L240 307Q244 278 262 294L262 294Q279 311 274 335L274 335Q263 361 221 389L221 389Q225 403 233.50 415Q242 427 249 437L249 437ZM416 250L139 250L139 348L164 373L88 408L88 36Q88 4 72-9L72-9L112-72Q155-23 416 11L416 11L416-50L470-31Q465-5 464.50 14Q464 33 464 55L464 55L464 354L495 380L416 414L416 250ZM139 222L416 222L416 30L139 5L139 222ZM391 437L335 458Q325 413 310 369.50Q295 326 274 288L274 288L281 275Q299 299 316.50 323Q334 347 344 370L344 370Q352 353 355.50 340Q359 327 362 313L362 313Q367 289 385 294L385 294Q403 298 403 326L403 326Q403 339 353 386L353 386Q365 415 391 437L391 437ZM262 181L208 209Q195 122 145 36L145 36L151 30Q175 54 192.50 77.50Q210 101 224 124L224 124Q233 104 236.50 89.50Q240 75 243 62L243 62Q246 40 262 49L262 49Q282 69 277 83L277 83Q273 104 227 137L227 137Q236 151 244 162.50Q252 174 262 181L262 181ZM394 178L338 203Q315 102 274 36L274 36L281 26Q305 53 322 78Q339 103 353 124L353 124Q359 104 363 88.50Q367 73 372 62L372 62Q376 34 394 49L394 49Q414 62 410 87L410 87Q400 108 356 134L356 134Q364 166 394 178L394 178Z"/></svg>