<svg id="U2AE23" viewBox="0 0 1024 1024"><path transform="translate(0, 921.6) scale(1,-1)" d="M95-70L78-53L78-28L95-11L110-5L124 1L137 9L149 18L160 30L170 44L180 59L188 77L195 97L200 120L210 119L211 95L211 72L209 49L203 28L196 8L186-11L173-28L158-44L139-58L120-70L95-70ZM887-30L881-17L874-2L865 12L854 28L840 44L808 78L788 96L766 114L772 122L822 98L845 86L865 73L884 59L901 44L916 29L930 13L941-3L951-20L949-45L931-62L907-60L890-42L887-30ZM629-16L627-5L624 8L620 20L613 34L594 63L568 95L551 110L557 118L597 96L615 84L631 72L645 59L659 46L670 31L679 16L687-1L692-18L686-42L664-54L640-48L628-26L629-16ZM431-48L408-54L386-42L380-18L382-8L384 3L385 13L384 25L382 38L378 51L373 65L358 95L346 110L352 117L382 94L396 82L408 69L418 55L428 40L435 25L439 8L443-9L444-26L431-48ZM214 855L278 823L751 823L783 850L842 802L815 780L815 486L751 454L751 507L547 507L547 382L824 382L878 435L942 382L942 360L547 360L547 145L482 112L482 360L87 360L87 382L482 382L482 507L278 507L278 470L214 438L214 855ZM751 659L278 659L278 529L751 529L751 659ZM751 802L278 802L278 680L751 680L751 802Z"/></svg>