<svg id="U2AC2C" viewBox="0 0 1024 1024"><path transform="translate(0, 921.6) scale(1,-1)" d="M718-28L718-12L826-12L833-11L838-11L841-10L843-9L844-7L845-5L846-2L847 3L847 469L912 458L928 447L912 438L912 10L911-4L909-17L904-30L898-42L889-53L878-62L866-69L853-73L840-75L826-76L826-44L718-28ZM485 123L475 131L451 147L404 172L346 198L338 201L338-40L273-72L273 196L258 177L235 150L209 125L181 101L151 78L118 58L83 39L46 22L41 30L101 81L153 131L196 182L215 209L231 235L245 263L247 267L43 267L43 289L273 289L273 378L174 371L117 369L57 367L56 377L171 400L271 419L394 445L457 461L482 469L484 462L539 417L540 401L517 411L499 406L438 396L365 387L338 384L338 289L430 289L484 342L549 289L549 267L338 267L338 214L349 213L372 212L394 210L415 207L453 199L472 195L504 184L519 177L533 157L529 133L509 119L485 123ZM622 423L686 412L702 402L686 392L686 63L622 31L622 423ZM910 575L974 521L974 500L50 500L50 521L856 521L910 575ZM218 875L283 843L741 843L773 870L832 821L806 800L806 585L741 553L741 585L283 585L218 553L218 875ZM741 706L283 706L283 606L741 606L741 706ZM741 821L283 821L283 728L741 728L741 821Z"/></svg>