<svg id="U2A00" viewBox="0 0 928 1000"><path transform="translate(0, 900) scale(1,-1)" d="M464-76L464-76Q379-76 304-44Q229-12 172 45Q115 102 83 177Q51 252 51 337L51 337Q51 423 83 497.50Q115 572 172 629Q229 686 304 718Q379 750 464 750L464 750Q550 750 624.50 718Q699 686 756 629Q813 572 845 497.50Q877 423 877 337L877 337Q877 252 845 177Q813 102 756 45Q699-12 624.50-44Q550-76 464-76ZM464-25L464-25Q539-25 604.50 3Q670 31 720 81Q770 131 798 196.50Q826 262 826 337L826 337Q826 412 798 477.50Q770 543 720 593Q670 643 604.50 671Q539 699 464 699L464 699Q389 699 323.50 671Q258 643 208 593Q158 543 130 477.50Q102 412 102 337L102 337Q102 262 130 196.50Q158 131 208 81Q258 31 323.50 3Q389-25 464-25ZM464 258L464 258Q431 258 408 281Q385 304 385 337L385 337Q385 370 408 393Q431 416 464 416L464 416Q497 416 520 393Q543 370 543 337L543 337Q543 304 520 281Q497 258 464 258Z"/></svg>