<svg id="U2AD82" viewBox="0 0 1024 1024"><path transform="translate(0, 921.6) scale(1,-1)" d="M921 18L953 152L964 152L953 18L972 5L985-15L972-34L953-47L652-47L638-46L624-44L611-39L599-33L588-24L580-13L573-1L568 12L566 26L566 39L566 167L438 167L456 159L468 144L447 138L439 121L417 87L389 55L356 28L316 4L272-17L222-35L166-50L106-62L39-70L38-60L101-42L158-23L209-2L254 20L293 43L325 68L351 93L370 120L385 147L390 167L286 167L286 102L222 70L222 524L286 491L458 491L458 523L351 539L351 555L465 555L470 556L473 557L474 558L475 559L477 560L478 564L479 569L480 576L480 865L544 854L560 843L544 834L544 826L561 795L586 759L614 725L644 697L826 793L840 802L851 809L853 810L852 811L853 810L857 813L866 798L900 763L901 746L879 754L712 701L659 686L683 668L724 644L770 623L821 604L877 588L987 565L924 505L859 523L800 544L745 569L696 597L653 628L616 662L584 700L559 741L544 777L544 576L543 562L541 549L537 536L530 524L521 513L510 504L498 498L485 494L474 491L738 491L770 518L829 470L802 448L802 134L738 102L738 167L630 167L630 33L631 28L633 23L635 21L637 20L640 19L645 18L652 18L921 18ZM738 273L286 273L286 188L738 188L738 273ZM738 369L286 369L286 295L738 295L738 369ZM738 470L286 470L286 390L738 390L738 470ZM367 799L426 750L399 734L384 728L377 716L354 687L328 660L297 635L264 611L228 590L187 570L144 552L96 537L45 524L43 533L132 578L171 602L206 625L238 648L265 673L289 698L309 723L325 749L326 750L82 750L82 772L335 772L337 774L337 775L367 799Z"/></svg>