<svg id="U2AF80" viewBox="0 0 1024 1024"><path transform="translate(0, 921.6) scale(1,-1)" d="M749 847L733 838L737 654L867 654L921 707L985 654L985 632L739 632L752 464L775 322L791 257L822 318L852 391L880 478L939 451L951 437L932 431L909 369L874 292L834 223L811 189L833 130L864 72L893 35L918 15L919 14L947 138L958 138L948 3L970-6L980-29L970-52L947-61L917-56L883-40L847-10L810 37L774 103L764 130L740 103L687 52L629 9L566-27L499-55L427-76L424-67L490-37L551-2L608 38L660 83L707 133L745 182L740 193L711 310L688 456L674 632L351 632L351 654L673 654L668 853L668 871L732 858L749 847ZM324 88L271 62L271 91L135 91L135 27L71-5L71 679L135 647L164 647L167 662L170 684L174 706L177 728L191 810L196 849L198 859L259 835L272 821L252 814L238 776L214 717L194 676L178 647L271 647L301 674L357 625L330 606L330 101L394 117L638 187L677 196L680 187L646 167L544 117L412 62L370 46L364 26L349 39L324 88ZM271 366L135 366L135 113L271 113L271 366ZM391 544L450 514L566 514L598 541L657 492L630 471L630 261L566 229L566 272L450 272L450 208L391 178L391 544ZM566 492L450 492L450 294L566 294L566 492ZM271 625L135 625L135 388L271 388L271 625ZM863 732L851 757L836 782L818 806L797 830L786 841L772 852L777 860L793 853L810 848L825 841L840 833L856 824L869 814L895 791L907 778L918 765L922 741L907 721L883 718L863 732Z"/></svg>