<svg id="U2AC8D" viewBox="0 0 1024 1024"><path transform="translate(0, 921.6) scale(1,-1)" d="M342 349L336 362L322 387L313 399L293 424L262 454L262-45L198-77L198 423L172 354L151 309L129 264L104 221L78 180L49 141L41 146L97 278L114 324L143 417L155 466L166 515L176 565L181 600L45 600L45 621L198 621L198 863L262 853L278 842L262 832L262 621L283 621L337 675L401 621L401 600L262 600L262 473L281 467L299 460L315 452L330 442L345 433L372 410L396 384L400 360L387 339L362 335L342 349ZM780 89L780 105L840 105L845 106L850 108L852 110L854 115L855 120L856 127L856 478L724 478L724-43L660-75L660 478L528 478L528 78L464 46L464 532L528 500L660 500L660 642L401 642L401 663L745 663L818 863L823 875L879 842L889 826L869 823L834 764L795 708L781 690L759 663L865 663L918 717L983 663L983 642L724 642L724 500L856 500L888 527L947 478L920 457L920 127L919 113L917 99L913 87L906 74L897 63L886 55L874 48L861 44L847 41L834 41L834 73L780 89ZM585 709L581 726L577 742L571 757L556 789L537 819L527 834L514 848L520 856L554 835L570 824L585 811L599 797L611 781L623 764L633 747L642 728L650 709L647 684L628 669L603 673L588 692L585 709Z"/></svg>