<svg id="U2A7DE" viewBox="0 0 1024 1024"><path transform="translate(0, 921.6) scale(1,-1)" d="M443 5L437-7L429-18L420-28L410-37L399-44L386-49L373-53L360-55L346-56L346-24L250-8L250 9L346 9L353 9L359 10L365 12L368 13L372 16L375 18L378 22L381 26L384 31L386 38L390 52L394 68L397 87L401 109L404 133L410 189L414 254L415 277L290 277L288 262L272 199L252 142L228 90L199 45L166 5L129-27L88-53L43-71L39-62L77-35L110-5L139 28L165 67L187 110L205 159L220 213L231 273L232 277L55 277L55 299L234 299L239 338L243 408L243 420L307 405L323 394L305 384L300 331L294 299L416 299L448 326L507 277L480 261L479 261L479 250L474 183L471 153L468 125L465 99L457 55L447 18L443 5ZM656-18L656-2L763-2L770-2L774-1L778 1L780 1L781 2L781 3L782 5L783 8L784 13L785 19L785 488L773 456L746 396L717 337L686 282L653 228L616 178L578 132L536 88L492 48L485 55L521 102L555 149L588 199L618 250L646 303L673 359L696 417L718 476L738 539L750 584L518 584L518 605L785 605L785 863L849 853L865 842L849 832L849 605L863 605L917 659L981 605L981 584L849 584L849 19L849 6L846-8L842-20L835-33L826-44L815-52L803-59L790-63L777-66L763-67L763-34L656-18ZM148 439L148 375L84 342L84 832L148 799L397 799L429 826L488 778L461 756L461 407L397 375L397 439L148 439ZM241 611L148 611L148 461L241 461L241 611ZM397 611L305 611L305 461L397 461L397 611ZM241 778L148 778L148 633L241 633L241 778ZM397 778L305 778L305 633L397 633L397 778Z"/></svg>