<svg id="U2ADF3" viewBox="0 0 1024 1024"><path transform="translate(0, 921.6) scale(1,-1)" d="M417-59L394-66L372-54L365-31L368-13L369 4L368 18L366 32L362 45L355 56L346 68L334 80L319 91L300 99L302 108L324 104L344 100L363 92L365 91L466 234L523 308L531 303L431 99L422 78L415 62L411 49L411 47L418 32L424 11L428-12L429-37L417-59ZM795 36L795 52L845 52L850 53L853 54L854 55L856 56L856 57L857 59L858 62L859 67L859 237L766 237L766-40L702-72L702 237L609 237L609 24L544-9L544 291L609 259L702 259L702 346L496 346L496 368L702 368L702 471L766 461L782 450L766 440L766 368L874 368L918 416L972 368L972 346L766 346L766 259L859 259L892 285L951 237L924 216L924 74L923 60L921 46L917 33L910 22L901 10L890 2L878-5L865-9L852-12L838-12L838 20L795 36ZM372 242L370 248L366 254L360 260L353 267L344 274L309 297L293 302L296 312L312 309L328 308L343 307L357 305L370 302L382 299L394 295L404 290L415 284L424 277L430 253L418 232L394 226L373 238L372 242ZM430 381L427 387L422 394L417 400L410 407L392 421L368 437L354 442L357 452L372 448L387 448L401 446L414 444L427 441L439 438L450 434L461 430L471 424L481 417L488 394L477 372L453 365L431 376L430 381ZM316 555L301 561L209 269L187 191L179 162L174 140L172 126L168 127L173 114L182 81L188 45L191 6L192-36L180-58L157-66L135-55L127-32L130 6L130 41L129 73L125 101L118 126L114 138L109 139L111 146L100 168L87 186L72 202L53 217L57 226L82 220L106 208L127 191L128 189L235 444L292 569L285 588L295 611L302 615L310 622L317 632L324 644L331 659L337 676L343 696L352 742L355 769L365 769L368 742L370 727L601 727L601 807L341 807L341 828L807 828L860 882L925 828L925 807L665 807L665 727L908 727L940 754L1000 705L973 689L956 682L925 641L907 621L897 613L890 603L882 607L887 619L900 680L903 692L906 704L906 705L665 705L665 481L601 448L601 705L372 705L373 692L373 670L372 649L369 629L364 611L358 594L350 577L339 563L316 555ZM134 482L129 493L124 503L117 514L109 525L100 535L63 569L46 577L50 587L68 581L86 576L103 571L120 564L135 556L149 547L162 537L174 525L185 513L195 499L195 475L179 456L154 456L136 472L134 482ZM517 572L571 524L571 502L368 502L368 524L473 524L517 572ZM844 572L898 524L898 502L695 502L695 524L800 524L844 572ZM828 658L871 620L871 599L695 599L695 620L794 620L828 658ZM528 658L571 620L571 599L387 599L387 620L494 620L528 658ZM195 729L191 740L186 750L179 761L171 772L161 783L140 805L127 816L113 825L116 834L133 828L151 824L167 818L182 811L211 794L224 784L236 773L246 761L257 748L258 723L243 704L218 703L199 718L195 729Z"/></svg>