<svg id="U2ADBC" viewBox="0 0 1024 1024"><path transform="translate(0, 921.6) scale(1,-1)" d="M542 418L602 394L615 380L596 374L581 321L557 254L529 192L499 135L465 85L428 40L389 1L346-32L301-58L253-76L249-67L290-40L329-9L364 26L397 66L427 110L455 160L480 214L502 274L522 339L539 409L542 418ZM653 347L717 315L885 315L917 342L976 294L949 272L949-18L885-51L885 3L717 3L717-34L653-67L653 347ZM163-58L139-66L117-55L109-32L111 6L112 41L111 73L108 102L102 127L99 138L93 139L96 148L87 169L76 187L63 203L47 217L51 226L74 219L96 207L112 193L206 444L262 580L272 577L177 227L162 163L158 141L156 126L151 127L156 113L164 81L170 45L173 6L173-36L163-58ZM885 294L717 294L717 25L885 25L885 294ZM282 288L282 304L389 304L396 305L401 306L406 308L408 310L409 314L410 319L411 326L411 863L475 853L492 842L475 832L475 326L474 312L472 299L468 286L461 274L452 263L442 254L429 247L416 243L403 241L389 240L389 272L282 288ZM314 642L377 623L391 611L372 602L363 557L353 525L343 493L332 462L319 431L304 400L289 370L271 341L252 313L243 318L272 413L288 475L301 538L306 569L309 600L312 626L311 626L314 642ZM639 438L639 460L770 460L770 676L615 676L615 698L770 698L770 866L835 855L851 844L835 834L835 698L871 698L925 752L989 698L989 676L835 676L835 460L847 460L901 513L965 460L965 438L639 438ZM569 494L565 510L554 544L546 561L538 578L506 634L492 652L499 659L536 631L553 616L582 584L607 550L617 532L626 514L634 495L631 471L611 456L587 459L572 478L569 494ZM114 484L111 495L107 505L101 515L94 526L87 536L67 557L55 569L41 577L45 587L61 581L78 576L93 570L108 563L122 555L135 546L146 535L158 524L167 512L176 498L176 474L159 456L134 456L116 474L114 484ZM166 741L161 752L156 762L149 773L142 784L123 805L113 816L100 825L104 833L119 827L135 823L149 817L163 810L177 802L189 793L212 771L222 760L231 747L231 722L215 704L190 703L172 720L166 741Z"/></svg>