<svg id="U2A502" viewBox="0 0 1024 1024"><path transform="translate(0, 921.6) scale(1,-1)" d="M169 386L169 386L147 367L191 319L219 339L386 339L386 222L200 222L144 254Q146 179 142.50 129Q139 79 131 52L131 52Q118 1 45-75L45-75L54-88Q165-8 182 46L182 46Q191 81 196.50 116.50Q202 152 200 197L200 197L386 197L386 172L440 185L440 335L465 363L414 401L383 367L223 367L223 622L251 656L166 694Q168 656 168.50 580Q169 504 169 386ZM638 193L638 209L833 209L833-3Q829-22 802-19L802-19Q794-19 774-17Q754-15 714-13L714-13L714-28Q788-35 796-82L796-82Q842-76 865-54L865-54Q887-26 887 21L887 21L887 200L918 222L858 272L830 234L638 234L638 348L902 348L868 383L868 641L900 676L812 713Q812 670 813.50 585.50Q815 501 815 373L815 373L642 373L588 401L588 175L638 193ZM393 779L326 802L329 701L329 600L329 499L326 396L383 414L383 442L670 442L670 404L727 430L723 584L723 751L751 767L691 814L660 779L393 779ZM383 754L670 754L670 679L383 679L383 754ZM383 650L670 650L670 581L383 581L383 650ZM383 553L670 553L670 468L383 468L383 553Z"/></svg>