<svg id="U2AE1D" viewBox="0 0 1024 1024"><path transform="translate(0, 921.6) scale(1,-1)" d="M893-13L884-23L874-32L864-40L853-46L841-52L829-56L816-59L803-60L790-61L790-29L682-13L682 3L790 3L797 4L805 5L817 8L823 11L828 14L833 18L838 22L843 27L848 34L857 49L866 67L873 88L880 112L886 138L890 168L893 201L895 235L896 261L895 304L702 304L679 237L648 174L610 117L566 66L516 23L460-15L397-44L330-66L327-56L389-25L445 10L494 49L537 94L573 143L604 197L628 256L642 304L418 304L418 326L648 326L660 392L667 463L668 480L731 463L747 452L729 442L721 382L707 326L895 326L928 353L987 304L960 288L960 274L960 233L958 196L954 160L949 127L943 97L935 68L925 42L914 18L901-3L893-13ZM367 668L375 678L380 684L426 639L431 620L410 624L328 555L287 523L269 510L269 428L265 361L257 297L253 278L287 253L308 234L328 216L361 177L388 139L399 119L408 98L405 74L387 58L362 60L346 79L342 96L336 113L329 132L320 151L309 171L267 234L251 258L250 259L245 237L229 181L209 130L185 82L156 39L124 1L87-32L46-60L40-52L73-17L102 19L127 59L149 101L167 146L181 195L193 248L200 304L204 364L204 428L204 847L269 837L285 826L269 816L269 543L367 668ZM87 351L63 355L50 376L54 401L65 415L74 432L82 451L89 473L95 496L100 522L103 550L105 580L106 613L107 648L116 649L127 615L134 582L138 551L141 520L141 491L138 463L134 437L128 411L119 387L108 364L87 351ZM476 853L540 820L871 820L903 847L963 799L936 777L936 482L871 449L871 514L540 514L540 449L476 417L476 853ZM871 799L540 799L540 535L871 535L871 799Z"/></svg>