<svg id="U2A928" viewBox="0 0 1024 1024"><path transform="translate(0, 921.6) scale(1,-1)" d="M923 229L987 175L987 154L817 154L817-34L752-67L752 154L582 154L580 123L573 83L560 47L542 15L519-13L492-36L459-55L424-69L384-78L341-82L339-73L379-58L413-42L442-24L466-4L485 17L499 41L510 67L516 96L519 128L519 154L332 154L332 175L869 175L923 229ZM38 139L157 178L173 185L173 544L55 544L55 565L173 565L173 825L238 814L254 804L238 794L238 565L267 565L311 613L365 565L365 544L238 544L238 210L366 258L371 249L302 204L237 166L149 118L92 91L87 70L71 82L38 139ZM470 245L405 213L405 498L470 466L842 466L874 492L933 444L906 423L906 245L842 213L842 245L470 245ZM620 347L470 347L470 267L620 267L620 347ZM842 347L684 347L684 267L842 267L842 347ZM620 444L470 444L470 369L620 369L620 444ZM842 444L684 444L684 369L842 369L842 444ZM592 867L648 835L659 819L635 816L616 793L599 775L589 768L580 761L791 761L823 788L882 740L856 718L856 519L791 487L791 519L513 519L448 487L448 793L513 761L560 761L560 762L564 773L567 783L571 793L578 815L580 826L584 837L588 855L587 855L589 860L592 867ZM791 600L513 600L513 541L791 541L791 600ZM791 675L513 675L513 621L791 621L791 675ZM791 740L513 740L513 697L791 697L791 740Z"/></svg>