<svg id="U2A1F6" viewBox="0 0 1024 1024"><path transform="translate(0, 921.6) scale(1,-1)" d="M243 587L243 587L226 591Q191 429 166 341.50Q141 254 132 237L132 237Q125 223 117 214Q109 205 107 203L107 203Q104 203 90 204Q76 205 49 213L49 213L49 197Q68 188 85 179.50Q102 171 107 162L107 162Q125 144 107 67L107 67Q88-9 123-28L123-28Q158-42 158-19L158-19L158 70Q158 144 164 188L164 188Q168 213 188.50 312Q209 411 243 587ZM55 550L55 550L49 543Q73 508 87 482Q101 456 106 433L106 433Q112 382 132 408L132 408Q152 427 148 465L148 465Q147 499 55 550ZM126 764L126 764L120 758Q140 720 155 690.50Q170 661 179 641L179 641Q195 591 214 625L214 625Q232 659 220 688L220 688Q212 709 126 764ZM346 493L346 603L421 603L421 493L346 493ZM346 363L346 468L421 468L421 363L346 363ZM346 222L346 339L421 339L421 222L346 222ZM299 146L299 146L346 168L346 197L611 197L564 263L529 222L469 222L469 339L588 339L547 398L516 363L469 363L469 468L586 468L545 530L516 493L469 493L469 603L604 603L554 669L520 628L343 628L393 726L419 745L346 789Q343 758 333 715Q323 672 299 615L299 615Q275 561 256.50 515.50Q238 470 223 439L223 439L236 430Q267 465 302 534L302 534L302 278Q302 245 301.50 211Q301 177 299 146ZM419 802L410 789Q444 729 451 682L451 682Q455 636 482 663L482 663Q510 691 495 720L495 720Q489 733 469 752.50Q449 772 419 802L419 802ZM305 131L293 131Q274 57 246 26L246 26Q218 1 226-13L226-13Q239-29 261-25L261-25Q283-16 295 8L295 8Q305 32 305 131L305 131ZM340 137L340 137L334 128Q362 60 362 14L362 14Q366-22 393-6L393-6Q419 20 410 49L410 49Q395 81 340 137ZM419 146L419 146L410 140Q427 102 437 72.50Q447 43 451 23L451 23Q451-17 475-6L475-6Q499 8 495 42L495 42Q488 85 419 146ZM507 159L491 149Q533 75 539 30L539 30Q539-8 567 11L567 11Q591 36 580 67L580 67Q570 95 507 159L507 159ZM665 691L617 723Q617 691 620.50 661Q624 631 624 603L624 603L624 354Q624 321 620.50 283.50Q617 246 617 206L617 206L668 231L668 257L885 257Q879 166 876 111.50Q873 57 866 33L866 33Q855-12 832-16L832-16Q823-18 794-16Q765-14 714-9L714-9L714-28Q798-37 809-85L809-85Q857-80 888-34L888-34Q918 4 929 254L929 254L955 275L907 316L885 282L668 282L668 360L945 360L894 427L863 389L668 389L668 468L837 468L837 445L885 468Q882 496 881.50 525Q881 554 881 587L881 587L881 660L910 679L863 726L837 691L724 691L762 764L788 779L721 811Q713 787 708 757Q703 727 696 691L696 691L665 691ZM668 568L837 568L837 493L668 493L668 568ZM668 666L837 666L837 594L668 594L668 666ZM799 234L799 234L791 222Q825 176 837 128L837 128Q841 84 863 108L863 108Q882 133 869 162L869 162Q861 184 799 234ZM595 46L595 46Q623 35 642 62L642 62Q655 86 645 200L645 200L629 200Q624 133 598 96L598 96Q571 55 595 46ZM711 62L711 62Q736 69 730 105L730 105Q730 144 673 206L673 206L668 200Q693 129 693 90L693 90Q693 50 711 62ZM791 90L791 90Q815 114 794 146L794 146Q775 185 734 219L734 219L727 213Q741 187 750.50 162.50Q760 138 765 115L765 115Q767 89 775 82Q783 75 791 90Z"/></svg>