<svg id="U2AF3E" viewBox="0 0 1024 1024"><path transform="translate(0, 921.6) scale(1,-1)" d="M893 16L925 151L936 151L925 16L945 3L958-16L945-35L925-48L734-48L720-47L707-45L694-41L682-34L671-25L662-15L656-2L651 11L649 24L648 38L648 175L367 175L328 12L421 16L494 18L573 19L573 10L495-3L247-37L161-48L103-57L93-75L81-60L64 3L75 4L96 4L123 5L157 6L196 8L243 9L261 10L323 270L78 270L78 291L848 291L892 340L946 291L946 270L389 270L372 197L648 197L680 224L739 175L713 154L713 38L713 31L714 26L715 23L716 22L716 20L717 19L720 19L723 18L728 17L734 16L893 16ZM544 42L528 62L517 72L506 82L478 101L461 111L424 130L403 138L406 147L428 144L450 142L471 139L492 134L510 129L528 123L545 116L561 107L577 97L590 87L599 64L589 41L566 33L544 42ZM664 825L876 825L882 833L884 831L908 852L967 803L940 787L919 778L891 750L856 720L815 690L793 675L759 655L804 649L850 634L887 616L915 595L936 572L950 548L957 524L958 501L954 480L946 462L937 452L928 442L918 434L896 420L885 416L872 411L859 409L846 407L833 406L833 439L769 455L769 471L833 471L842 471L856 474L862 476L868 478L879 485L885 490L895 501L896 502L899 508L901 518L899 530L894 546L882 563L863 583L835 603L795 624L745 647L744 646L738 654L810 734L839 769L863 802L864 803L664 803L664 367L600 335L600 857L664 825ZM503 606L479 606L404 650L348 682L336 689L326 691L294 666L268 647L213 612L193 601L221 587L407 587L439 614L498 566L471 544L471 383L407 351L407 405L221 405L221 367L156 335L156 583L122 568L89 556L55 546L51 555L163 631L235 689L278 730L299 753L341 707L379 700L438 685L505 666L522 647L521 623L503 606ZM407 566L221 566L221 426L407 426L407 566ZM477 732L451 750L404 779L344 812L345 805L325 811L293 788L267 771L213 739L153 711L122 698L89 687L55 677L51 687L163 760L213 796L279 853L300 873L331 836L357 833L379 828L400 824L439 813L475 801L508 788L523 769L521 745L501 730L477 732Z"/></svg>