<svg id="U2AC4B" viewBox="0 0 1024 1024"><path transform="translate(0, 921.6) scale(1,-1)" d="M460 224L525 191L822 191L854 218L913 170L886 148L886-29L822-61L822-8L525-8L525-45L460-77L460 224ZM822 170L525 170L525 14L822 14L822 170ZM76 780L141 748L277 748L309 775L368 726L342 705L342 87L277 55L277 119L141 119L141 55L76 23L76 780ZM277 432L141 432L141 141L277 141L277 432ZM364 277L364 299L529 299L519 312L518 324L517 334L515 345L511 355L508 366L503 376L497 387L491 397L484 408L474 416L479 424L491 418L504 413L517 406L528 398L539 389L550 379L559 368L567 356L575 342L581 328L578 304L571 299L641 299L641 449L384 449L384 471L641 471L641 568L456 568L456 589L641 589L641 686L400 686L400 707L730 707L737 719L795 841L806 865L805 866L810 875L863 837L872 820L849 819L794 755L765 726L749 711L746 707L828 707L882 761L946 707L946 686L706 686L706 589L792 589L836 638L890 589L890 568L706 568L706 471L844 471L897 525L962 471L962 449L706 449L706 299L769 299L774 309L800 376L817 419L821 429L820 429L825 439L879 403L888 385L866 385L839 352L807 319L796 310L785 301L783 299L865 299L918 353L983 299L983 277L364 277ZM277 726L141 726L141 453L277 453L277 726ZM540 744L539 755L536 766L533 777L528 789L522 801L506 826L496 840L484 851L489 859L504 850L520 842L535 833L548 824L560 813L572 801L581 789L590 775L597 761L603 746L599 722L578 708L554 713L540 734L540 744Z"/></svg>