<svg id="U2A20A" viewBox="0 0 1024 1024"><path transform="translate(0, 921.6) scale(1,-1)" d="M335 737L75 737L103 699Q140 709 177 709L177 709L435 709L382 781L335 737ZM375 542L375 607L400 630L346 677L325 646L177 646L127 668Q129 639 129.50 611.50Q130 584 130 561L130 561Q130 531 129.50 505Q129 479 127 453L127 453L180 469L180 488L325 488L325 466L379 485Q375 500 375 542L375 542ZM180 514L180 620L325 620L325 514L180 514ZM123-49L123 384L385 384L385 41Q385 6 366 6L366 6Q358 6 342 6.50Q326 7 300 10L300 10L300-1Q360-15 366-58L366-58Q437-38 431 28L431 28L431 372L457 396L410 444L385 409L120 409L75 444Q80 415 80.50 363Q81 311 81 233L81 233Q81 157 80.50 81Q80 5 75-67L75-67L123-49ZM161 347L161 347L151 337Q170 306 178 284.50Q186 263 189 249L189 249Q197 217 208 233L208 233Q227 242 227 262L227 262Q227 279 212 299L212 299Q195 320 161 347ZM322 293L322 293L353 314L294 350Q288 318 277 283.50Q266 249 246 214L246 214L133 214L168 180Q183 182 198 184Q213 186 227 186L227 186L227 57L224 0L277 22L274 66L274 186L382 186L335 239L303 214L268 214Q282 232 295.50 252.50Q309 273 322 293ZM561 466L513 481Q513 458 515 438Q517 418 517 400L517 400L517 233Q517 209 515 184Q513 159 513 139L513 139L567 145L567 160L863 160Q853 109 845.50 74.50Q838 40 829 22L829 22Q803-17 781-17L781-17Q764-17 735.50-15Q707-13 665-11L665-11L665-29Q749-34 753-86L753-86Q808-75 847-36L847-36Q892 4 911 151L911 151L939 164L891 214L860 186L567 186L567 229L948 229L891 290L850 255L567 255L567 299L806 299L806 290L860 303Q857 323 857 343L857 343Q857 363 857 388L857 388L857 438L879 463L826 494L804 466L665 466L696 504L728 510L665 548Q657 524 649.50 504Q642 484 631 466L631 466L561 466ZM567 372L806 372L806 327L567 327L567 372ZM567 438L806 438L806 396L567 396L567 438ZM734 151L734 151L724 139Q747 105 760 63L760 63Q768 24 788 44L788 44Q809 65 794 88L794 88Q786 107 734 151ZM454 3L454 3Q471-9 501 19L501 19Q526 47 526 123L526 123L511 123Q496 67 464 44L464 44Q429 21 454 3ZM605 16L605 16Q627 32 624 60L624 60Q607 91 570 126L570 126L557 123Q577 83 577 44L577 44Q577 1 605 16ZM703 34L703 34Q721 52 706 82L706 82Q689 101 643 139L643 139L634 123Q645 105 655 88Q665 71 668 51L668 51Q679 10 703 34ZM598 652L598 652L598 570Q598 532 580 532L580 532Q562 526 520 535L520 535L520 522Q576 508 580 476L580 476Q603 476 627 504L627 504Q649 520 649 563L649 563L649 743L675 766L627 813L593 781L451 781L489 743Q523 747 539 756L539 756L598 756L598 677Q474 586 441 586L441 586L489 535Q489 552 598 652ZM839 648L839 648L839 579Q839 542 822 542L822 542Q804 531 753 542L753 542L753 529Q810 509 822 481L822 481Q886 496 886 561L886 561L886 743L907 766L857 813L826 781L675 781L716 743Q721 745 733.50 747.50Q746 750 765 756L765 756L839 756L839 677Q791 642 750.50 618Q710 594 675 583L675 583L724 542Q724 542 731 549Q738 556 753 573L753 573Q767 587 788 607Q809 627 839 648ZM470 740L464 728Q482 718 493 701Q504 684 513 668L513 668Q533 633 542 661L542 661Q556 685 539 702L539 702Q533 715 470 740L470 740ZM696 737L693 725Q707 705 719 690.50Q731 676 740 664L740 664Q754 625 765 664L765 664Q775 688 760 705L760 705Q749 712 733 719.50Q717 727 696 737L696 737Z"/></svg>