<svg id="U2ABBE" viewBox="0 0 1024 1024"><path transform="translate(0, 921.6) scale(1,-1)" d="M414 370L412 339L406 283L402 249L642 249L642 364L707 354L723 343L707 333L707 249L835 249L889 303L953 249L953 227L707 227L773 160L824 116L851 95L878 76L906 59L934 42L990 13L930-34L899-15L870 6L842 29L815 53L790 79L766 106L744 135L724 165L707 195L707-46L642-78L642 159L612 120L585 90L556 62L524 36L492 12L457-9L420-26L381-41L377-32L440 16L470 40L497 67L523 94L547 123L570 153L590 184L608 218L613 227L399 227L390 178L379 130L367 83L352 40L336-1L316-38L308-35L327 47L335 91L343 137L349 184L353 235L357 287L359 342L359 399L359 459L359 812L418 783L630 783L630 871L694 860L710 849L694 840L694 783L847 783L901 837L966 783L966 761L770 761L770 694L865 694L897 721L957 673L930 651L930 574L865 541L865 574L418 574L418 459L416 398L414 376L422 377L446 380L473 383L473 574L532 563L547 552L532 543L532 491L601 491L634 528L677 491L677 469L532 469L532 392L663 413L695 417L697 408L669 393L613 369L559 350L481 326L457 319L455 319L446 299L434 313L414 370ZM76-18L76-2L141-2L147-2L152-1L157 1L159 3L160 8L161 13L162 19L162 312L94 269L92 248L75 258L35 309L44 314L162 371L162 632L52 632L52 654L162 654L162 863L227 853L243 842L227 832L227 654L242 654L286 702L339 654L339 632L227 632L227 403L307 441L337 454L342 446L293 403L240 364L227 355L227 19L225 6L223-8L219-20L212-33L203-44L193-52L180-59L167-63L154-66L141-67L141-34L76-18ZM924 387L951 478L961 478L951 387L967 376L978 360L967 344L951 333L788 333L775 333L762 335L749 339L737 345L727 353L718 362L711 374L706 387L703 400L702 413L702 574L766 563L782 552L766 542L766 472L825 500L839 507L863 523L873 530L880 536L891 517L922 486L923 468L902 476L886 471L856 464L838 461L801 455L780 453L766 453L766 402L767 398L768 394L770 392L772 391L775 389L781 388L788 387L924 387ZM538 673L418 673L418 595L538 595L538 673ZM706 673L603 673L603 595L706 595L706 673ZM865 673L770 673L770 595L865 595L865 673ZM538 761L418 761L418 694L538 694L538 761ZM603 761L603 694L706 694L706 761L603 761Z"/></svg>