<svg id="U2A5B1" viewBox="0 0 1024 1024"><path transform="translate(0, 921.6) scale(1,-1)" d="M346-85L346-85L399-65L395-9L395 144L521 144L469 206L433 168L63 168L96 131Q121 144 159 144L159 144L197 144Q180-7 63-65L63-65L63-75Q235-13 245 144L245 144L351 144Q351 59 350 2.50Q349-54 346-85ZM153 420L111 442Q115 302 111 193L111 193L153 209L153 222L418 222L418 203L462 222Q459 248 459 290L459 290Q459 332 459 389L459 389L484 408L440 452L415 420L153 420ZM187 650L187 691L383 691L383 650L187 650ZM187 571L187 625L383 625L383 571L187 571ZM187 499L187 546L383 546L383 499L187 499ZM153 339L153 396L266 396L266 339L153 339ZM314 339L314 396L418 396L418 339L314 339ZM153 247L153 313L266 313L266 247L153 247ZM314 247L314 313L418 313L418 247L314 247ZM187 720L143 745Q147 602 143 442L143 442L187 461L187 474L383 474L383 452L433 474Q430 502 430 553L430 553Q430 604 430 685L430 685L452 704L405 748L380 720L245 720Q293 777 307 782L307 782L251 811Q248 791 241.50 768.50Q235 746 225 720L225 720L187 720ZM606 389L606 474L824 474L824 389L606 389ZM600 499L556 524Q556 495 557.50 472Q559 449 559 433L559 433Q559 416 557.50 390.50Q556 365 556 335L556 335L606 352L606 360L824 360L824 339L871 357Q868 374 868 400L868 400Q868 426 868 468L868 468L887 486L846 530L821 499L600 499ZM575 178L575 282L691 282L691 178L575 178ZM732 178L732 282L858 282L858 178L732 178ZM531 222L531 222L531 21Q527-33 578-44L578-44L887-44Q936-44 960 2L960 2Q928 7 928 42L928 42Q925 59 923.50 73.50Q922 88 922 103L922 103L909 103Q907 82 904.50 62.50Q902 43 899 26L899 26Q894-3 868-3L868-3L613-3Q575-1 575 33L575 33L575 149L858 149L858 108L906 131Q903 151 903 187L903 187Q903 224 903 278L903 278L925 298L878 342L849 311L572 311L528 335Q528 302 529.50 273.50Q531 245 531 222ZM830 761L531 761L569 726Q585 732 635 732L635 732L651 732Q645 681 610 615L610 615Q575 563 493 524L493 524L503 509Q621 558 663 612L663 612Q697 672 708 732L708 732L830 732Q823 672 814 638.50Q805 605 799 594L799 594Q780 569 755 574L755 574Q745 574 728 576.50Q711 579 688 584L688 584L685 568Q759 553 764 518L764 518Q782 524 798.50 532.50Q815 541 830 556L830 556Q857 589 881 726L881 726L906 758L852 789L830 761Z"/></svg>