<svg id="U2A5D7" viewBox="0 0 1024 1024"><path transform="translate(0, 921.6) scale(1,-1)" d="M361 776L279 811Q281 777 281.50 703.50Q282 630 282 515L282 515L194 515L194 688L222 726L143 751Q146 720 146.50 661.50Q147 603 147 515L147 515L60 515L96 477Q109 479 127 481Q145 483 169 486L169 486L506 486L446 553L405 515L330 515L330 632L497 632L436 694L395 656L330 656L330 754L361 776ZM248 455L194 477Q179 384 138 311L138 311L147 304Q200 348 213 398L213 398Q221 378 226 360Q231 342 235 326L235 326Q244 297 263 316L263 316Q281 334 273 357L273 357Q265 377 216 404L216 404Q223 418 230.50 431Q238 444 248 455L248 455ZM424 272L131 272L131 363L156 396L86 424L86 64Q86 45 80 35.50Q74 26 67 18L67 18L114-44Q147 0 424 39L424 39L424-19L477-3Q474 19 474 39L474 39Q474 60 474 77L474 77L474 370L503 398L424 433L424 272ZM131 247L424 247L424 59L131 30L131 247ZM389 455L339 477Q319 388 273 304L273 304L282 298Q303 318 320 342.50Q337 367 348 389L348 389Q357 372 360.50 358Q364 344 367 332L367 332Q375 309 387 316L387 316Q405 320 405 342L405 342Q405 363 358 401L358 401Q362 418 372 430.50Q382 443 389 455L389 455ZM263 206L207 229Q184 140 138 64L138 64L147 59Q168 79 188 101Q208 123 222 149L222 149Q229 133 232.50 118.50Q236 104 241 90L241 90Q246 66 263 77L263 77Q282 96 279 108L279 108Q271 127 225 162L225 162Q237 185 263 206L263 206ZM395 203L343 226Q324 141 273 64L273 64L282 55Q308 81 326 105.50Q344 130 358 149L358 149Q369 111 377 90L377 90Q380 64 399 74L399 74Q414 96 408 111L408 111Q404 135 361 156L361 156Q373 187 395 203L395 203ZM623 720L623 720L758 720L758 59Q754-50 827-50L827-50L875-50Q931-50 963-3L963-3Q929 14 925 55L925 55Q912 90 912 149L912 149L896 149Q890 90 890 39L890 39Q884-9 865-6L865-6L846-6Q811-6 811 77L811 77L811 713L843 735L786 786L749 748L629 748L572 779Q576 531 572 380L572 380Q566 304 559 238Q552 172 537 118L537 118Q502 8 440-75L440-75L449-85Q484-53 511.50-15Q539 23 559 67L559 67Q576 112 589.50 162Q603 212 613 270L613 270Q617 325 620 438Q623 551 623 720Z"/></svg>