<svg id="U2A5F1" viewBox="0 0 1000 1000"><path transform="translate(0, 900) scale(1,-1)" d="M156 473C171 439 186 393 194 364L234 379C227 407 210 451 195 485ZM360 493C353 460 334 410 321 379L358 363C372 392 389 434 407 474ZM636 468L822 468L822 277L636 277ZM636 536L636 724L822 724L822 536ZM636 210L822 210L822 12L636 12ZM568 791L568 12L503 12L503-55L961-55L961 12L892 12L892 791ZM114 776L114 609L39 609L39 548L75 548L75-73L132-73L132-7L424-7L424-58L482-58L482 548L513 548L513 609L323 609L323 689L479 689L479 747L323 747L323 839L258 839L258 609L175 609L175 776ZM132 548L424 548L424 51L132 51ZM255 524L255 343L148 343L148 290L240 290C213 237 172 181 137 149C146 136 158 114 163 100C195 131 228 181 255 232L255 77L304 77L304 216C334 184 364 151 382 128L413 166C390 195 342 243 304 279L304 290L408 290L408 343L304 343L304 524Z"/></svg>