<svg id="U2A918" viewBox="0 0 1024 1024"><path transform="translate(0, 921.6) scale(1,-1)" d="M896 11L868 35L843 61L819 88L797 117L776 147L758 180L743 213L737 229L737-40L672-72L672 215L643 169L615 135L585 104L552 74L516 46L477 20L435-2L389-22L385-14L460 44L493 74L524 104L551 134L576 167L598 199L617 234L633 269L638 283L432 283L432 304L672 304L672 444L603 444L603 406L538 374L538 724L443 724L443 745L538 745L538 863L603 853L619 842L603 832L603 745L806 745L806 863L870 853L886 842L870 832L870 745L889 745L923 783L966 745L966 724L870 724L870 423L806 390L806 444L704 444L737 439L753 428L737 418L737 304L859 304L913 358L977 304L977 283L737 283L737 277L791 201L836 148L883 104L909 84L935 66L984 36L925-10L896 11ZM64-20L39 41L157 63L214 75L214 289L68 289L68 310L214 310L214 498L278 487L294 476L278 467L278 310L295 310L349 364L413 310L413 289L278 289L278 89L356 106L443 124L446 115L364 78L246 35L135 0L86-14L78-33L64-20ZM806 589L603 589L603 466L806 466L806 589ZM379 493L374 509L361 540L352 559L306 545L241 528L87 492L79 473L65 487L44 548L55 551L110 556L121 557L196 792L214 852L218 865L277 837L288 821L268 817L237 741L208 678L160 585L144 560L170 562L201 565L234 568L301 574L337 575L345 575L327 610L307 647L295 666L302 673L336 643L380 598L406 567L428 536L437 520L438 496L422 477L397 477L379 493ZM806 724L603 724L603 611L806 611L806 724Z"/></svg>