<svg id="U2ADB2" viewBox="0 0 1024 1024"><path transform="translate(0, 921.6) scale(1,-1)" d="M330 598L394 566L860 566L893 593L952 545L925 523L925-26L860-58L860-4L394-4L394-42L330-74L330 598ZM173-58L150-66L128-55L119-32L122 6L123 41L121 73L117 101L111 126L107 138L102 139L104 146L93 168L80 186L65 202L47 217L51 226L76 220L99 208L120 190L225 444L287 581L296 577L189 227L179 191L172 162L167 140L165 126L160 127L165 114L174 81L180 45L184 6L184-36L173-58ZM860 545L394 545L394 17L860 17L860 545ZM753 108L736 142L703 195L648 269L642 276L630 230L613 188L591 151L564 117L533 89L497 65L458 46L414 33L410 42L448 65L481 89L509 115L533 143L552 174L567 208L578 245L585 285L588 329L587 367L435 367L435 389L587 389L587 517L652 506L668 496L652 486L652 389L717 389L771 442L835 389L835 367L651 367L650 326L644 291L681 268L700 254L736 224L768 191L796 157L809 139L811 115L796 95L772 92L753 108ZM125 483L122 493L116 503L110 514L102 525L93 535L70 557L56 569L40 577L44 587L61 581L80 576L97 570L113 564L128 556L142 547L154 537L167 525L178 513L187 499L187 475L171 456L146 456L128 473L125 483ZM720 874L785 863L801 853L785 843L785 740L868 740L922 793L987 740L987 718L785 718L785 611L720 578L720 718L561 718L561 611L497 578L497 718L295 718L295 740L497 740L497 874L561 863L578 853L561 843L561 740L720 740L720 874ZM187 729L182 740L177 750L163 772L144 794L120 816L105 825L109 834L126 828L143 824L159 818L174 811L189 803L215 784L227 773L238 761L248 747L249 723L234 704L209 703L190 718L187 729Z"/></svg>