<svg id="U2AA75" viewBox="0 0 1024 1024"><path transform="translate(0, 921.6) scale(1,-1)" d="M694 32L694 48L758 48L765 48L770 49L773 50L776 52L778 55L779 58L779 63L780 69L780 225L544 225L544-41L480-74L480 225L244 225L244 20L179-12L179 278L244 246L480 246L480 330L59 330L59 352L480 352L480 452L544 441L560 430L544 420L544 352L846 352L900 405L965 352L965 330L525 330L544 327L560 316L544 306L544 246L780 246L812 273L871 225L844 203L844 69L844 55L841 42L837 29L830 17L822 6L810-3L799-9L786-13L772-16L758-17L758 16L694 32ZM641 460L641 476L712 476L717 477L720 478L722 480L723 480L724 481L725 486L727 491L727 498L727 674L410 674L410 696L867 696L921 749L985 696L985 674L792 674L792 498L790 484L788 470L784 457L777 445L768 434L758 426L745 419L732 414L719 412L706 412L706 444L641 460ZM374 784L399 749L413 733L414 714L395 722L351 698L285 666L283 665L295 663L311 653L295 643L295 453L230 420L230 644L173 623L132 610L89 598L44 588L41 597L196 674L294 729L349 766L374 784ZM356 863L362 852L402 814L403 797L384 805L306 778L249 761L185 745L152 737L116 731L80 725L77 735L287 828L356 863ZM861 877L926 824L926 802L464 802L464 824L808 824L861 877Z"/></svg>