<svg id="U2A112" viewBox="0 0 1024 1024"><path transform="translate(0, 921.6) scale(1,-1)" d="M194 591L194 591L63 591L98 556Q117 558 138.50 560.50Q160 563 181 563L181 563L261 563Q251 544 200 512L200 512Q156 477 114 477L114 477L156 427Q168 432 200 440Q232 448 285 458L285 458Q337 463 382 470.50Q427 478 469 483L469 483Q476 475 481 467.50Q486 460 490 455L490 455Q503 439 521 458L521 458Q544 479 521 502L521 502Q495 527 392 556L392 556L383 543Q403 533 423.50 522Q444 511 456 499L456 499L191 477Q215 488 235.50 497Q256 506 273 518L273 518Q304 537 336 537L336 537L298 563L606 563L547 622L510 591L248 591L248 622L537 622L484 679L443 650L248 650L248 685L541 685L487 738L449 710L248 710L248 748L569 748L513 808L471 773L251 773L191 802Q193 764 193.50 710.50Q194 657 194 591ZM890 751L830 805Q813 783 732 745L732 745Q689 724 643.50 706Q598 688 547 672L547 672L559 650Q616 667 667 683.50Q718 700 764 717L764 717Q857 751 890 751L890 751ZM922 650L875 707Q840 678 773 653L773 653Q731 636 687 621.50Q643 607 597 594L597 594L597 578Q646 584 698.50 594Q751 604 802 622L802 622Q905 659 922 650L922 650ZM953 550L896 600Q886 584 796 553L796 553Q751 535 691 520Q631 505 556 486L556 486L559 471Q719 484 818 518L818 518Q869 532 902.50 541Q936 550 953 550L953 550ZM200 105L200 105L261 121L261 131L849 131Q840 98 834 74Q828 50 824 36L824 36Q814 11 805 8L805 8Q800 5 794.50 0.50Q789-4 777-9L777-9Q764-16 725.50-13Q687-10 626-3L626-3L626-19Q687-30 704-44L704-44Q726-62 726-82L726-82Q799-72 830-47L830-47Q845-35 855-19Q865-3 875 14L875 14Q879 32 887.50 60.50Q896 89 906 131L906 131L931 149L871 188L840 156L261 156L261 200L960 200L899 266L858 226L261 226L261 254L755 254L755 241L811 260L805 301L805 376L834 396L777 442L752 404L408 404Q431 421 450.50 434Q470 447 487 455L487 455L415 486Q409 467 398.50 447.50Q388 428 374 404L374 404L261 404L200 427Q205 396 206 358Q207 320 207 272L207 272Q207 227 206 185.50Q205 144 200 105ZM755 380L755 345L261 345L261 380L755 380ZM755 319L755 282L261 282L261 319L755 319ZM644 128L644 128L638 115Q659 98 680 67L680 67Q683 56 689 43.50Q695 31 698 18L698 18Q702-1 723 5L723 5Q737 8 752 26L752 26Q757 43 742 67L742 67Q728 88 644 128ZM305 103L305 103L285 93Q300 75 308 61Q316 47 323 33L323 33Q336 14 336-6L336-6Q339-20 351-28L351-28Q368-28 383-13L383-13Q393 0 389 26L389 26Q387 41 364.50 58.50Q342 76 305 103ZM484 115L484 115L471 105Q498 77 503 64L503 64Q508 55 511 42.50Q514 30 521 14L521 14Q527-14 544-9L544-9Q563-5 569 11L569 11Q583 26 569 52L569 52Q562 66 484 115ZM200 103L200 103L181 103Q166 56 153 46L153 46Q136 21 114 11L114 11Q83-4 98-25L98-25Q114-43 140-37L140-37Q154-30 164-21.50Q174-13 181-3L181-3Q196 16 200 103Z"/></svg>