<svg id="U2A799" viewBox="0 0 1024 1024"><path transform="translate(0, 921.6) scale(1,-1)" d="M841-32L771 17L707 72L651 135L643 146L599 97L529 38L452-11L368-49L277-76L274-67L360-31L437 13L507 65L570 126L617 184L601 206L558 284L522 368L494 460L473 559L460 659L364 659L364 681L618 681L618 874L683 863L699 853L683 843L683 681L849 681L903 734L967 681L967 659L863 659L839 546L806 437L765 337L717 247L678 190L693 171L748 116L809 68L874 27L946-7L980-22L918-72L841-32ZM184-22L160-28L139-16L132 8L136 36L137 65L136 92L131 120L124 147L114 175L101 202L85 230L66 258L45 287L51 294L81 271L107 247L118 235L161 297L236 421L357 640L366 636L318 511L250 354L208 270L169 201L157 182L166 165L179 134L188 102L195 69L197 34L196-1L184-22ZM471 659L494 563L524 469L558 383L598 304L643 234L647 229L674 273L716 359L751 455L779 561L798 659L471 659ZM201 640L194 654L177 681L153 708L139 721L108 748L90 760L94 769L137 755L175 738L193 727L209 715L225 702L252 673L264 656L266 632L251 613L226 611L207 626L201 640Z"/></svg>