<svg id="U2A10C" viewBox="0 0 1024 1024"><path transform="translate(0, 921.6) scale(1,-1)" d="M377 707L119 707L153 672Q183 682 222 682L222 682L257 682L257 546L67 546L101 512Q117 514 133 516Q149 518 169 518L169 518L513 518L465 584L430 546L310 546L310 682L465 682L415 745L377 707ZM389 427L389 357L176 357L176 427L389 427ZM389 332L389 260L176 260L176 332L389 332ZM389 234L389 159L176 159L176 234L389 234ZM273 67L204 118Q192 84 147 30L147 30Q130 9 112-13.50Q94-36 67-62L67-62L80-75Q106-58 127.50-40.50Q149-23 166-6L166-6Q181 11 200 28Q219 45 238 64L238 64L273 67ZM122 90L122 90L176 115L176 134L389 134L389 103L440 121Q437 151 436.50 179.50Q436 208 436 231L436 231L436 417L459 439L415 486L392 452L176 452L122 483Q124 441 124.50 398Q125 355 125 301L125 301Q125 250 124.50 197Q124 144 122 90ZM330 105L330 105L317 90Q393 26 415-28L415-28Q441-81 459-34L459-34Q476 14 446 39L446 39Q427 53 398.50 69Q370 85 330 105ZM544 615L544 615L544 370Q544 341 540.50 309.50Q537 278 537 241L537 241L591 260L591 278L878 278Q878 233 875.50 194Q873 155 868 121L868 121Q865 88 862.50 62.50Q860 37 855 23L855 23Q838-6 814-6L814-6Q800-6 776.50-5Q753-4 720 0L720 0L720-19Q820-37 824-82L824-82Q857-60 878-34L878-34Q891-20 898 0Q905 20 912 46L912 46Q914 71 917 129Q920 187 925 278L925 278L950 298L903 339L878 304L591 304L591 376L956 376L903 445L875 401L591 401L591 477L805 477L805 445L858 468Q855 498 855 547L855 547Q855 597 855 666L855 666L881 688L827 732L799 697L651 697L685 761L720 779L641 808Q641 788 635 761.50Q629 735 623 697L623 697L585 697L537 720Q537 690 540.50 664.50Q544 639 544 615ZM805 669L805 594L591 594L591 669L805 669ZM805 568L805 506L591 506L591 568L805 568ZM682 234L682 234L673 226Q680 208 686.50 193.50Q693 179 701 162L701 162Q711 132 711 99L711 99Q720 70 726 70L726 70Q738 70 752 90L752 90Q769 107 758 140L758 140Q748 173 682 234ZM767 244L767 244L758 237Q763 226 768 211Q773 196 783 178L783 178Q787 156 793 140Q799 124 799 115L799 115Q799 87 814 87L814 87Q832 92 840 118L840 118Q846 137 834 175L834 175Q826 186 809 203.50Q792 221 767 244ZM606 219L606 219L600 213Q602 194 605.50 180Q609 166 613 156L613 156Q615 139 619 123Q623 107 623 87L623 87Q623 52 635 52L635 52Q655 52 667 77L667 77Q674 99 663 137L663 137Q654 153 639.50 172.50Q625 192 606 219ZM562 213L562 213L547 213Q544 191 540 174.50Q536 158 534 146L534 146Q524 114 500 90L500 90Q480 56 490 42L490 42Q504 25 528 39L528 39Q547 49 562 87L562 87Q566 118 562 213Z"/></svg>