<svg id="U2ACC1" viewBox="0 0 1024 1024"><path transform="translate(0, 921.6) scale(1,-1)" d="M356 349L350 362L334 387L315 411L293 435L271 456L271-45L206-77L206 428L177 354L156 308L133 263L108 220L81 180L51 141L43 146L101 278L135 370L149 418L174 515L184 566L189 600L47 600L47 621L206 621L206 863L271 853L287 842L271 832L271 621L297 621L351 675L416 621L416 600L271 600L271 473L292 467L309 460L342 443L371 422L385 410L397 398L410 384L414 360L400 339L376 335L356 349ZM871-54L824-32L780-6L741 24L727 36L684 8L633-20L578-44L519-62L457-76L454-67L512-43L566-17L616 11L661 41L695 68L673 92L646 131L623 173L604 218L593 261L530 261L530 283L851 283L854 285L883 310L943 261L916 245L902 240L885 208L852 160L816 116L776 75L770 70L811 45L852 25L895 9L984-18L922-74L871-54ZM842 261L606 261L625 227L650 189L678 154L707 122L730 101L741 111L775 151L805 192L831 238L842 261ZM499 380L496 320L490 263L484 209L474 159L461 111L447 67L430 26L411-12L388-45L363-75L356-69L371-35L385 1L397 38L408 78L417 121L424 167L430 216L433 268L435 322L434 380L434 745L499 713L675 713L675 869L739 858L756 847L739 838L739 713L861 713L915 767L980 713L980 691L499 691L499 552L600 552L600 664L664 654L680 643L664 633L664 552L798 552L798 664L863 654L879 643L863 633L863 552L882 552L926 600L980 552L980 530L863 530L863 369L798 337L798 380L664 380L664 363L600 331L600 530L499 530L499 380ZM798 530L664 530L664 401L798 401L798 530Z"/></svg>