<svg id="U2AC3B" viewBox="0 0 1024 1024"><path transform="translate(0, 921.6) scale(1,-1)" d="M534 224L598 191L843 191L875 218L935 170L908 148L908-24L843-56L843-2L598-2L598-40L534-72L534 224ZM533 320L817 320L817 396L534 396L534 331L533 320ZM843 170L598 170L598 19L843 19L843 170ZM74 780L138 748L272 748L304 775L363 726L336 705L336 87L272 55L272 119L138 119L138 55L74 23L74 780ZM272 432L138 432L138 141L272 141L272 432ZM817 492L534 492L534 417L817 417L817 492ZM272 726L138 726L138 453L272 453L272 726ZM911 573L878 592L846 613L815 637L785 663L756 691L728 722L702 755L678 789L652 756L622 720L588 685L553 653L516 621L476 592L434 564L389 539L342 516L337 524L378 555L454 619L489 652L522 685L552 719L580 754L606 790L630 827L654 869L707 832L715 814L695 814L691 808L756 749L786 725L816 702L846 682L878 663L909 648L940 634L1008 609L946 556L911 573ZM757 648L811 600L811 578L527 578L527 600L713 600L757 648ZM469 546L534 514L817 514L850 541L909 492L882 471L882 288L817 256L817 299L531 299L530 282L523 235L514 190L500 147L484 106L464 69L440 33L413 1L383-28L350-54L343-47L368-15L391 19L410 52L427 87L441 124L452 162L461 201L466 243L469 286L469 546Z"/></svg>