<svg id="U2A05B" viewBox="0 0 1024 1024"><path transform="translate(0, 921.6) scale(1,-1)" d="M285 738L216 789Q199 728 161.50 665Q124 602 67 530L67 530L80 518Q166 588 254 726L254 726L285 738ZM216 90L216 90L216 376L241 401L216 424Q234 454 252.50 484.50Q271 515 289 543L289 543L310 559L251 606Q222 521 169 420L169 420Q142 365 115.50 314.50Q89 264 57 219L57 219L63 206Q95 232 120 266.50Q145 301 169 339L169 339L169 96Q169 53 168 9.50Q167-34 163-88L163-88L220-50Q217-17 216.50 15.50Q216 48 216 90ZM469 414L446 373L279 373L314 339Q345 348 389 348L389 348L456 348Q441 268 411 197L411 197L307 291L302 275L395 162Q364 102 323.50 55.50Q283 9 235-25L235-25L238-50Q362 26 424 124L424 124Q437 102 447 77Q457 52 465 23L465 23Q480-24 500 8L500 8Q516 47 503 80L503 80Q493 101 479 121.50Q465 142 446 168L446 168Q480 252 506 345L506 345L531 370L469 414ZM541 483L541 483Q535 480 530 477Q525 474 518 474L518 474Q498 474 503 524L503 524L503 676L525 694L480 738L456 707L389 707L346 735Q347 651 341 591.50Q335 532 326 493L326 493Q306 416 248 370L248 370L251 352Q335 406 364 480L364 480Q389 539 389 682L389 682L462 682L462 506Q454 464 469 445L469 445Q484 428 528 433L528 433Q572 433 572 448L572 448Q576 453 571.50 461Q567 469 562 474L562 474Q544 486 541 483ZM585 619L585 619L585 348Q585 319 583.50 289Q582 259 582 229L582 229L635 247L635 272L890 272Q890 230 887 192.50Q884 155 884 118L884 118Q882 78 878.50 53Q875 28 871 18L871 18Q855-13 837-13L837-13Q825-13 805.50-12Q786-11 758-6L758-6L758-25Q834-37 834-82L834-82Q867-74 893-44L893-44Q913-15 928 39L928 39Q932 85 937 266L937 266L966 288L915 335L884 298L635 298L635 373L960 373L915 445L871 401L635 401L635 474L830 474L830 448L881 471Q878 499 878 546L878 546Q878 594 878 663L878 663L899 688L849 732L830 694L704 694L745 770L773 779L701 814Q701 770 680 694L680 694L635 694L582 720Q582 690 583.50 665Q585 640 585 619ZM830 666L830 591L635 591L635 666L830 666ZM830 565L830 502L635 502L635 565L830 565ZM714 222L714 222L704 216Q711 198 717 183.50Q723 169 726 152L726 152Q739 129 739 93L739 93Q743 62 755 62L755 62Q771 62 780 80L780 80Q789 99 780 134L780 134Q766 173 714 222ZM793 234L793 234L780 229Q784 217 790.50 202.50Q797 188 802 172L802 172Q814 134 814 103L814 103Q814 77 830 77L830 77Q846 81 855 108L855 108Q864 130 849 162L849 162Q840 176 825.50 194.50Q811 213 793 234ZM641 209L641 209L635 200Q638 186 640 171.50Q642 157 647 144L647 144Q650 129 653.50 113Q657 97 657 80L657 80Q657 42 670 42L670 42Q680 42 698 64L698 64Q705 86 695 124L695 124Q685 145 671 165.50Q657 186 641 209ZM591 200L591 200L578 200Q578 183 574.50 167Q571 151 569 140L569 140Q566 125 560.50 111Q555 97 541 80L541 80Q515 49 528 33L528 33Q542 18 562 26L562 26Q580 40 591 77L591 77Q600 113 591 200Z"/></svg>