<svg id="U2A118" viewBox="0 0 1024 1024"><path transform="translate(0, 921.6) scale(1,-1)" d="M184 647L191 647Q156 541 60 433L60 433L70 424Q110 451 142.50 486Q175 521 194 559L194 559L194 393L238 417L238 437L399 437L399 411L443 433L443 550L462 565L421 603L399 574L245 574L213 591L245 647L518 647L469 707L428 672L251 672Q260 693 268.50 716.50Q277 740 289 764L289 764L307 779L235 808Q229 765 221 731.50Q213 698 204 672L204 672L83 672L117 635Q151 647 184 647L184 647ZM238 461L238 550L399 550L399 461L238 461ZM179 357L122 393Q126 356 127 301Q128 246 128 165L128 165Q128 87 127 34Q126-19 122-50L122-50L176-21L176 332L443 332L443 42Q443 24 428 14L428 14Q413 9 351 14L351 14L351-3Q425-7 430-54L430-54Q482-35 487 14L487 14L487 316L515 342L469 389L446 357L179 357ZM225 62L269 87L269 105L346 105L346 70L389 99L389 237L411 257L364 298L343 263L266 263L225 291L225 62ZM346 131L269 131L269 237L346 237L346 131ZM562 615L562 615L562 357Q562 328 560.50 297Q559 266 559 229L559 229L613 247L613 275L887 275Q884 230 881 190Q878 150 878 118L878 118Q876 83 872.50 59Q869 35 865 21L865 21Q850-6 821-6L821-6Q806-6 784.50-5.50Q763-5 736-3L736-3L736-21Q826-36 830-85L830-85Q845-75 858.50-64Q872-53 887-41L887-41Q909-5 919 42L919 42Q923 65 926 122Q929 179 934 272L934 272L953 294L906 335L887 301L613 301L613 376L963 376L912 442L875 401L613 401L613 477L814 477L814 442L868 468Q865 498 865 547L865 547Q865 597 865 669L865 669L893 691L834 738L808 701L680 701L717 764L739 782L670 811Q670 794 663.50 766Q657 738 651 701L651 701L600 701L559 723Q559 693 560.50 667.50Q562 642 562 615ZM814 672L814 594L613 594L613 672L814 672ZM814 568L814 506L613 506L613 568L814 568ZM695 229L695 229L685 222Q692 205 699 188.50Q706 172 714 156L714 156Q723 123 723 93L723 93Q731 64 739 64L739 64Q754 64 767 83L767 83Q776 107 767 137L767 137Q759 165 695 229ZM777 241L777 241L767 234Q771 223 777 207Q783 191 793 175L793 175Q797 153 802.50 136.50Q808 120 808 108L808 108Q808 83 821 83L821 83Q845 90 849 111L849 111Q858 136 840 165L840 165Q833 176 817.50 195.50Q802 215 777 241ZM616 209L616 209L606 203Q611 188 614 174Q617 160 623 146L623 146Q625 132 628.50 116Q632 100 632 83L632 83Q632 46 651 46L651 46Q669 46 680 70L680 70Q686 93 676 131L676 131Q656 168 616 209ZM569 203L569 203L556 203Q554 186 550 170.50Q546 155 544 144L544 144Q531 107 510 83L510 83Q486 50 500 33L500 33Q513 20 537 30L537 30Q552 39 557.50 51Q563 63 569 80L569 80Q576 116 569 203Z"/></svg>