<svg id="U2A903" viewBox="0 0 1024 1024"><path transform="translate(0, 921.6) scale(1,-1)" d="M839-40L816-19L790 1L764 19L735 37L718 46L694 25L648-4L596-27L537-46L472-58L400-65L399-55L467-38L529-18L582 5L627 31L665 60L672 68L599 97L572 106L557 65L485 58L554 239L394 239L322 194L185 120L98 78L91 75L86 55L71 66L39 124L75 135L166 166L185 173L185 552L55 552L55 573L185 573L185 847L250 837L266 826L250 816L250 573L271 573L325 627L389 573L389 552L250 552L250 197L372 243L372 261L562 261L617 405L673 372L685 356L666 352L631 261L850 261L903 314L968 261L968 239L808 239L802 195L787 145L764 99L749 81L788 63L820 46L851 27L880 5L907-18L916-41L906-63L883-73L860-63L839-40ZM744 239L623 239L577 119L603 117L643 111L682 102L698 98L717 127L732 165L742 205L744 239ZM696 440L882 440L886 444L887 444L915 467L974 419L947 403L924 393L905 374L874 345L863 335L853 323L845 328L853 342L863 370L872 395L879 417L880 419L448 419L449 410L449 392L449 375L446 359L443 343L437 328L429 315L419 303L395 297L374 310L368 334L381 355L386 356L391 360L397 365L403 374L409 384L415 398L421 413L425 431L430 451L432 473L442 473L444 451L445 440L632 440L632 550L696 539L713 528L696 519L696 440ZM450 859L515 827L824 827L857 854L916 805L889 784L889 535L824 503L824 556L515 556L450 524L450 859ZM824 684L515 684L515 578L824 578L824 684ZM824 805L515 805L515 706L824 706L824 805Z"/></svg>