<svg id="U2A7B9" viewBox="0 0 1024 1024"><path transform="translate(0, 921.6) scale(1,-1)" d="M203 847L267 837L284 826L267 816L267 482L343 482L343 772L408 761L424 750L408 741L408 449L343 417L343 460L267 460L267 46L364 46L364 353L429 342L445 331L429 321L429-8L364-40L364 25L106 25L106-40L41-72L41 353L106 342L122 331L106 321L106 46L203 46L203 460L127 460L127 444L63 412L63 772L127 761L143 750L127 741L127 482L203 482L203 847ZM838-2L871 132L881 132L871-2L889-15L903-34L889-54L871-67L686-67L672-66L658-63L645-59L633-52L622-44L614-33L607-20L602-8L600 6L600 19L600 283L664 272L680 261L664 252L664 13L665 8L667 3L669 1L674-1L679-2L686-2L838-2ZM494-3L469 1L455 20L458 45L467 58L485 89L492 106L506 147L512 169L523 218L528 245L537 245L540 218L543 191L544 165L544 140L542 117L539 94L535 72L529 51L522 31L514 11L494-3ZM922 97L919 116L914 136L903 176L896 196L870 260L860 281L867 287L901 252L930 214L953 174L973 133L981 112L988 90L983 66L963 52L939 57L925 77L922 97ZM760 195L748 234L741 252L726 286L699 333L689 348L678 362L683 369L716 350L732 338L746 325L760 310L774 294L787 277L799 259L810 239L820 218L819 194L801 176L777 177L760 195ZM894 422L886 412L876 404L866 396L854 389L843 384L831 380L818 377L805 375L792 374L792 406L684 423L684 439L792 439L800 439L807 440L819 444L824 446L830 449L840 457L849 469L854 478L859 492L864 513L869 538L873 568L876 603L879 642L881 687L882 735L883 777L767 777L761 727L749 669L732 616L710 565L683 518L652 474L616 434L575 397L530 366L480 338L475 346L518 382L556 419L590 457L620 498L644 540L665 585L681 633L693 682L701 735L703 777L513 777L513 799L883 799L915 826L974 777L947 761L947 734L946 684L944 639L941 598L937 561L933 528L927 499L921 474L913 452L902 433L894 422ZM532 525L510 535L502 559L513 581L522 588L530 595L539 605L556 628L563 644L570 660L577 677L583 697L587 719L596 718L597 696L599 674L599 654L597 634L594 615L590 597L584 580L576 563L567 548L556 533L532 525Z"/></svg>