<svg id="U2A0CB" viewBox="0 0 1024 1024"><path transform="translate(0, 921.6) scale(1,-1)" d="M541 603L541 603L541 357Q541 328 539 297Q537 266 537 229L537 229L591 247L591 266L884 266Q878 176 878 111L878 111Q872 80 867.50 56Q863 32 858 21L858 21Q838-2 814-6L814-6Q805-6 782-4Q759-2 726 0L726 0L726-19Q820-33 824-82L824-82Q836-72 849.50-62Q863-52 881-37L881-37Q894-22 902.50-3Q911 16 919 39L919 39Q921 63 923.50 119Q926 175 931 263L931 263L960 285L909 326L884 291L591 291L591 363L950 363L903 433L862 389L591 389L591 461L808 461L808 433L862 455Q859 485 858.50 534.50Q858 584 858 653L858 653L887 679L827 720L802 685L667 685L708 758L742 776L657 808Q657 788 651.50 756.50Q646 725 635 685L635 685L588 685L537 707Q537 678 539 652Q541 626 541 603ZM808 656L808 581L591 581L591 656L808 656ZM808 556L808 486L591 486L591 556L808 556ZM104 301L104 301L153 323L153 345L421 345L421 323L474 348L471 398L471 534L500 550L446 600L421 568L358 568L358 666L510 666L459 735L421 691L76 691L111 656Q128 659 146.50 662.50Q165 666 184 666L184 666L210 666L210 568L153 568L104 594Q107 552 107.50 516Q108 480 108 442L108 442Q108 407 107.50 370Q107 333 104 301ZM251 568L251 666L317 666L317 568L251 568ZM153 370L153 540L210 540L210 370L153 370ZM251 370L251 540L317 540L317 370L251 370ZM358 370L358 540L421 540L421 370L358 370ZM493 105L314 70L314 200L484 200L436 270L399 226L314 226L314 272L339 301L261 342Q263 324 263 296L263 296Q263 268 263 226L263 226L96 226L128 190Q146 192 165 196Q184 200 204 200L204 200L263 200L263 64Q179 45 131 37.50Q83 30 63 30L63 30L98-41Q108-20 207 8L207 8Q261 24 333 43.50Q405 63 493 87L493 87L493 105ZM680 219L680 219L673 209Q678 192 685 177Q692 162 698 146L698 146Q711 123 711 87L711 87Q715 59 726 59L726 59Q741 59 752 77L752 77Q765 96 752 128L752 128Q748 159 680 219ZM764 229L764 229L752 222Q758 210 763.50 196Q769 182 777 165L777 165Q793 116 793 103L793 103Q793 74 808 74L808 74Q828 79 834 105L834 105Q846 128 827 156L827 156Q806 186 764 229ZM600 203L600 203L594 193Q596 179 599 165Q602 151 610 137L610 137Q612 125 614 110Q616 95 616 74L616 74Q616 39 635 39L635 39Q651 39 667 64L667 64Q675 90 660 124L660 124Q647 155 600 203ZM556 193L556 193L541 193Q538 177 535.50 161.50Q533 146 531 134L531 134Q523 119 517 105Q511 91 497 77L497 77Q472 44 484 30L484 30Q501 12 521 26L521 26Q546 38 556 74L556 74Q560 105 556 193Z"/></svg>