<svg id="U2A8E8" viewBox="0 0 1024 1024"><path transform="translate(0, 921.6) scale(1,-1)" d="M858 417L923 363L923 342L707 342L707 197L870 197L923 251L988 197L988 175L707 175L707-42L642-75L642 175L373 175L373 197L642 197L642 342L423 342L423 363L804 363L858 417ZM42 139L182 185L182 544L58 544L58 565L182 565L182 825L247 814L263 804L247 794L247 565L263 565L316 619L381 565L381 544L247 544L247 209L383 258L387 249L315 203L215 148L99 92L94 90L89 70L73 82L42 139ZM477 470L477 454L412 422L412 860L477 827L873 827L905 854L964 806L937 784L937 460L873 427L873 470L477 470ZM642 641L477 641L477 492L642 492L642 641ZM873 641L707 641L707 492L873 492L873 641ZM642 806L477 806L477 662L642 662L642 806ZM873 806L707 806L707 662L873 662L873 806Z"/></svg>