<svg id="U2A462" viewBox="0 0 1024 1024"><path transform="translate(0, 921.6) scale(1,-1)" d="M256 700L277 716L208 734Q197 681 186 665L186 665Q175 648 148 631L148 631L186 593L208 603L305 603Q214 485 65 407L65 407L75 392Q274 478 359 596L359 596L359 482Q359 451 335 451L335 451Q320 451 304.50 451.50Q289 452 268 457L268 457L268 438Q341 428 341 397L341 397Q409 412 413 464L413 464L413 603L545 603L495 662L461 631L413 631L413 734L526 734L476 798L435 760L139 760L183 722Q201 727 221.50 729Q242 731 262 734L262 734L359 734L359 631L218 631L256 700ZM618 672L618 672L627 678L781 678Q756 603 709 542L709 542Q665 574 618 672ZM501 542L517 536Q562 576 608 652L608 652Q615 614 633 580.50Q651 547 675 518L675 518Q599 442 454 410L454 410L454 397Q614 416 709 482L709 482Q767 436 888 400L888 400Q904 437 958 441L958 441L958 457Q814 462 747 518L747 518Q789 566 832 678L832 678L942 678L879 747L829 703L634 703L655 757L693 778L614 811Q602 742 575.50 676.50Q549 611 501 542L501 542ZM829 284L829 284L829 366L860 385L801 420L772 392L262 392L205 413Q207 387 207.50 355Q208 323 208 290L208 290Q208 255 207.50 226.50Q207 198 205 181L205 181L262 192L262 205L492 205L492 151L171 151L208 117Q228 119 247.50 123Q267 127 287 127L287 127L492 127L492 76L88 76L123 42Q160 51 202 51L202 51L958 51L898 107L842 76L545 76L545 127L876 127L819 181L772 151L545 151L545 205L781 205L781 189L832 205Q829 224 829 243L829 243Q829 263 829 284ZM262 230L262 366L492 366L492 230L262 230ZM545 230L545 366L781 366L781 230L545 230ZM312 354L312 354L305 344Q353 301 366 269L366 269Q386 234 400 256L400 256Q418 277 413 294L413 294Q398 312 312 354ZM728 313L668 351Q656 329 637 301.50Q618 274 593 246L593 246L605 243Q702 313 728 313L728 313ZM236 42L236 42L221 48Q184-6 133-35L133-35Q89-62 127-76L127-76Q173-80 199-51L199-51Q223-16 236 42ZM570 42L577 51Q638 26 665-7L665-7Q684-31 662-61L662-61Q634-82 624-42L624-42Q606 0 570 42L570 42ZM778 48L778 48L765 42Q798 11 819.50-10.50Q841-32 847-54L847-54Q865-90 895-58L895-58Q919-19 886-1L886-1Q866 10 838 21.50Q810 33 778 48ZM366 42L366 42L346 38Q365 10 375.50-14Q386-38 391-58L391-58Q395-96 423-76L423-76Q453-51 441-25L441-25Q430 5 366 42Z"/></svg>