<svg id="U2A9D1" viewBox="0 0 1024 1024"><path transform="translate(0, 921.6) scale(1,-1)" d="M609-45L587-26L563-9L536 9L476 42L368 89L328 105L330 115L373 109L415 101L454 91L491 80L527 67L559 53L590 38L620 22L647 4L672-16L682-38L674-61L652-72L629-63L609-45ZM922 119L851 158L785 201L754 224L724 249L696 275L670 302L646 331L627 358L431 358L400 318L372 287L342 256L309 228L273 201L235 175L195 151L151 128L106 108L57 90L53 98L137 153L175 180L211 208L245 236L275 265L303 295L329 325L352 355L353 358L66 358L66 380L335 380L335 513L141 513L141 535L335 535L335 658L399 647L415 637L399 627L399 535L625 535L625 658L689 647L706 637L689 627L689 535L781 535L835 589L899 535L899 513L689 513L689 380L851 380L904 433L969 380L969 358L646 358L721 305L782 266L847 230L915 198L951 184L983 170L922 119ZM574 132L553 157L528 180L515 191L486 211L453 231L435 239L437 249L458 246L478 244L497 239L516 234L535 227L553 219L571 211L588 201L604 190L620 177L629 155L620 132L597 123L574 132ZM625 513L399 513L399 380L625 380L625 513ZM66 556L46 570L43 595L58 614L69 619L79 626L89 635L98 647L107 661L115 678L122 698L128 721L133 747L136 775L146 775L151 729L480 729L480 869L544 859L560 848L544 838L544 729L888 729L891 732L893 736L895 735L921 756L980 707L953 691L928 681L906 659L850 611L833 598L816 583L809 590L822 608L861 674L880 707L152 707L152 694L151 670L147 647L141 626L132 606L121 589L107 573L90 559L66 556Z"/></svg>