<svg id="U2A067" viewBox="0 0 1024 1024"><path transform="translate(0, 921.6) scale(1,-1)" d="M224 11L224 11L271-50Q299 1 410 96L410 96L397 111L294 39L294 360L526 360L472 430L431 386L202 386L202 656L505 656L454 723L413 682L202 682L151 720Q154 635 154.50 546.50Q155 458 155 367L155 367Q153 106 62-72L62-72L72-82Q202 91 202 360L202 360L243 360L243 59Q243 21 224 11ZM407 530L230 530L262 499Q278 501 296.50 503.50Q315 506 335 506L335 506L485 506L438 574L407 530ZM472 260L513 266L454 313Q426 261 385 216L385 216L394 206L472 260ZM281 304L281 304Q347 232 384 180Q421 128 435 96L435 96Q464 30 482 59L482 59Q497 81 489 115L489 115Q476 146 431 188L431 188Q413 208 377 239.50Q341 271 290 313L290 313L281 304ZM564 603L564 603L564 354Q564 325 562.50 294.50Q561 264 561 229L561 229L611 247L611 266L886 266Q883 221 880.50 184.50Q878 148 876 118L876 118Q868 89 864.50 66.50Q861 44 857 23L857 23Q848-1 822-13L822-13Q810-13 788-9Q766-5 734-3L734-3L734-21Q816-37 816-82L816-82Q851-69 883-34L883-34Q891-20 898.50-1Q906 18 914 39L914 39Q918 65 924 118.50Q930 172 935 260L935 260L958 278L914 326L886 291L611 291L611 363L961 363L911 430L866 389L611 389L611 465L816 465L816 430L866 452Q863 482 863 533L863 533Q863 584 863 653L863 653L891 672L845 717L816 682L680 682L724 758L750 776L678 808Q678 786 671 756.50Q664 727 652 682L652 682L605 682L561 704Q561 675 562.50 650.50Q564 626 564 603ZM816 656L816 581L611 581L611 656L816 656ZM816 556L816 489L611 489L611 556L816 556ZM696 226L696 226L687 216Q693 198 700.50 183.50Q708 169 716 152L716 152Q724 122 724 93L724 93Q730 64 740 64L740 64Q753 64 765 83L765 83Q781 104 765 134L765 134Q760 165 696 226ZM778 234L778 234L765 229Q772 217 778 202.50Q784 188 794 172L794 172Q799 150 802.50 133.50Q806 117 806 108L806 108Q806 80 822 80L822 80Q837 83 850 111L850 111Q859 134 842 162L842 162Q834 176 816.50 194.50Q799 213 778 234ZM621 209L621 209L611 200Q616 186 619 171.50Q622 157 627 144L627 144Q634 117 634 80L634 80Q634 46 649 46L649 46Q666 46 680 70L680 70Q687 90 678 131L678 131Q658 161 621 209ZM574 200L574 200L561 200Q555 183 553 167Q551 151 549 140L549 140Q538 111 513 83L513 83Q485 52 505 36L505 36Q513 16 542 33L542 33Q560 41 574 80L574 80Q581 111 574 200Z"/></svg>