<svg id="U2ABA" viewBox="0 0 572 1000"><path transform="translate(0, 900) scale(1,-1)" d="M78 233L78 233L78 319Q99 339 135 364Q171 389 213.50 414Q256 439 298.50 459.50Q341 480 377 491L377 491L377 495Q338 507 293.50 529Q249 551 206 576.50Q163 602 129 626Q95 650 78 667L78 667L78 753Q120 713 174.50 675.50Q229 638 289 606Q349 574 408 551Q467 528 518 516L518 516L518 470Q446 454 366 418Q286 382 210.50 334.50Q135 287 78 233ZM270-40L223-141L165-113L209-18Q199-16 187.50-14.50Q176-13 164-13L164-13Q139-13 109.50-28Q80-43 51-72L51-72L51 6Q75 33 105.50 46Q136 59 170 59L170 59Q210 59 241 49L241 49L273 118Q240 133 213 140Q186 147 164 147L164 147Q139 147 109.50 132Q80 117 51 88L51 88L51 166Q75 193 105.50 206Q136 219 170 219L170 219Q202 219 233 211.50Q264 204 305 186L305 186L348 278L405 248L366 164Q374 163 384.50 161.50Q395 160 406 160L406 160Q432 160 463.50 175.50Q495 191 521 219L521 219L521 142Q470 88 401 88L401 88Q366 88 334 96L334 96L301 27Q364 0 406 0L406 0Q432 0 463.50 15.50Q495 31 521 59L521 59L521-18Q472-72 401-72L401-72Q366-72 334.50-63.50Q303-55 270-40L270-40Z"/></svg>