<svg id="U2A354" viewBox="0 0 1024 1024"><path transform="translate(0, 921.6) scale(1,-1)" d="M323 345L323 660L493 660L443 720L405 685L323 685L323 745L346 773L269 805Q272 770 272.50 739Q273 708 273 685L273 685L89 685L119 650Q158 660 194 660L194 660L273 660L273 319L323 345ZM333 483L333 483L346 474Q363 493 377.50 513Q392 533 405 553L405 553Q426 531 437 513Q448 495 456 477L456 477Q463 445 480 471L480 471Q492 497 477 521L477 521Q452 546 408 565L408 565L424 600L459 612L402 647Q388 599 370.50 557.50Q353 516 333 483ZM282 530L282 530Q198 403 67 307L67 307L70 294Q191 352 282 452L282 452L282 530ZM346 87L346 87Q364 110 384.50 147Q405 184 424 241L424 241L456 260L405 313L371 278L245 278L266 301L285 313L216 352Q181 239 60 124L60 124L70 115Q169 176 225 254L225 254L377 254Q362 212 346.50 179Q331 146 310 118L310 118Q289 134 257.50 152.50Q226 171 184 190L184 190L176 175Q205 151 233 128.50Q261 106 282 83L282 83Q212 3 60-65L60-65L67-75Q222-36 310 49L310 49Q326 28 338 11Q350-6 358-19L358-19Q373-57 389-28L389-28Q408 0 389 30L389 30Q376 54 346 87ZM310 474L310 465Q394 408 424 354L424 354Q455 294 465 345L465 345Q483 383 443 411L443 411Q404 443 310 474L310 474ZM86 461L86 461L96 452Q117 470 134 495.50Q151 521 166 550L166 550Q189 522 200 489L200 489Q205 459 222 483L222 483Q237 502 222 521L222 521Q215 527 201 538.50Q187 550 169 563L169 563L194 587L216 603L156 641Q146 587 127.50 543Q109 499 86 461ZM635 758L635 758L572 802Q566 780 549 742Q532 704 500 647L500 647Q523 618 539 596.50Q555 575 559 559L559 559Q576 521 591 521L591 521Q607 521 616 543L616 543Q620 564 600 591L600 591Q589 608 525 647L525 647Q560 689 585.50 717Q611 745 635 758ZM793 754L793 754L729 802Q721 780 701.50 742Q682 704 647 650L647 650Q699 585 708 553L708 553Q716 521 732 524L732 524Q751 524 755 546L755 546Q764 559 749 587L749 587Q723 616 670 650L670 650Q707 690 739 716Q771 742 793 754ZM944 741L944 741L881 795Q864 751 793 650L793 650Q818 629 835 604Q852 579 862 559L862 559Q872 503 890 521L890 521Q902 525 912 550L912 550Q917 578 899 600L899 600Q888 608 867 620.50Q846 633 818 650L818 650Q904 736 944 741ZM594 270L594 352L830 352L830 270L594 270ZM594 376L594 461L830 461L830 376L594 376ZM594 486L541 527Q541 485 542.50 447.50Q544 410 544 370L544 370L544 8Q531-32 518-28L518-28L559-78Q588-50 627-19.50Q666 11 717 46L717 46L708 59L594 2L594 241L651 241Q718 14 899-69L899-69Q909-33 963-28L963-28L963-13Q852 10 770 87L770 87Q827 117 865.50 138.50Q904 160 922 172L922 172L953 172L899 234Q846 162 758 105L758 105Q735 127 714 161Q693 195 673 241L673 241L830 241L830 222L887 244Q884 276 884 311L884 311Q884 347 884 389L884 389L884 452L912 483L852 524L824 486L594 486Z"/></svg>