<svg id="U2A52C" viewBox="0 0 1024 1024"><path transform="translate(0, 921.6) scale(1,-1)" d="M281 726L88 726L123 691Q141 693 161.50 694Q182 695 202 701L202 701L281 701L281 656L123 656L161 625Q181 630 200 631Q219 632 230 632L230 632L495 632L451 685L413 656L335 656L335 704L517 704L555 669Q571 671 591.50 673.50Q612 676 634 676L634 676L675 676L675 615L530 615L567 584Q584 586 603 588.50Q622 591 646 591L646 591L788 591Q768 571 747.50 553.50Q727 536 709 527L709 527L577 568L570 553L675 506Q642 482 598 462Q554 442 497 422L497 422L476 430Q478 398 478.50 380Q479 362 479 360L479 360L180 360L218 326L262 335L312 335L479 335L479 260L372 260L372 291L394 304L318 326Q321 309 321.50 292.50Q322 276 322 260L322 260L117 260L151 226Q170 228 189.50 231Q209 234 230 234L230 234L322 234L322 178L372 190L372 234L479 234L479 165L84 165L120 131Q137 137 151 138.50Q165 140 180 140L180 140L410 140Q344 97 257 58.50Q170 20 62-9L62-9L65-25Q182-4 285 33.50Q388 71 479 137L479 137L479 14L479-6Q479-6 477.50-9.50Q476-13 472-21L472-21Q468-31 375-21L375-21L375-34Q438-49 438-85L438-85Q530-85 530-3L530-3L530 59L530 140L539 140Q643 3 886-34L886-34Q908 3 961 8L961 8L961 23Q685 38 567 140L567 140L935 140L879 200L839 165L530 165L530 234L637 234L637 181L687 197L687 234L888 234L832 294L788 260L687 260L687 285L709 301L634 326Q634 312 635.50 295Q637 278 637 260L637 260L530 260L530 335L845 335L785 398L744 360L530 360L530 389L555 401L524 412Q619 428 721 480L721 480Q742 466 761.50 455.50Q781 445 791 437L791 437Q813 418 832 396L832 396Q855 370 870 398L870 398Q883 423 870 448L870 448Q859 462 763 509L763 509Q783 524 807 542.50Q831 561 857 584L857 584L888 591L832 647L801 615L728 615L728 676L942 676L883 741L842 704L728 704L728 758L760 779L672 811L675 758L675 704L520 704L470 764L431 729L335 729L335 751L366 773L277 805Q280 778 280.50 759Q281 740 281 726L281 726ZM215 594L158 606Q162 550 158 486L158 486L201 494L196 486Q207 472 215.50 458.50Q224 445 230 433L230 433Q111 414 75 420L75 420L109 363Q133 376 526 452L526 452L520 468L356 442Q391 478 420 486L420 486L410 489L391 496L410 496L410 489L461 506L457 518L457 565L479 584L431 615L410 594L215 594ZM205 495L205 495L208 496L353 496Q347 484 342.50 472.50Q338 461 331 442L331 442L246 433Q275 456 262 468L262 468Q257 472 242.50 480Q228 488 205 495ZM208 524L208 568L410 568L410 524L208 524Z"/></svg>