<svg id="U2AF49" viewBox="0 0 1024 1024"><path transform="translate(0, 921.6) scale(1,-1)" d="M836-46L774-15L717 19L665 56L617 96L574 139L537 185L506 234L480 286L462 337L270 337L286 326L270 316L270 41L302 49L392 68L481 83L527 89L529 80L444 48L122-62L117-81L102-69L72-10L170 17L206 25L206 337L71 337L71 358L829 358L883 412L947 358L947 337L475 337L500 297L532 252L567 210L607 170L639 144L760 301L760 302L766 308L812 263L817 245L796 248L763 217L727 186L689 156L655 131L696 101L747 70L803 42L863 17L965-19L903-73L836-46ZM210 445L210 429L146 397L146 781L210 749L480 749L480 867L544 856L560 846L544 836L544 749L813 749L845 776L904 727L878 706L878 434L813 402L813 445L210 445ZM480 593L210 593L210 467L480 467L480 593ZM813 593L544 593L544 467L813 467L813 593ZM480 727L210 727L210 614L480 614L480 727ZM813 727L544 727L544 614L813 614L813 727Z"/></svg>