<svg id="U2B865" viewBox="0 0 1024 1024"><path transform="translate(0, 921.6) scale(1,-1)" d="M393 409L458 377L809 377L842 404L901 355L874 334L874 104L809 72L809 136L458 136L458 72L393 39L393 409ZM809 355L458 355L458 158L809 158L809 355ZM123 212L111 166L109 128L114 98L124 74L142 54L168 38L204 25L251 17L308 14L921 14L953 148L964 148L953 14L972 1L985-18L972-38L953-51L308-51L244-47L188-38L141-20L101 4L71 38L52 80L44 126L48 176L61 231L84 291L289 767L39 767L39 788L297 788L329 815L388 767L361 750L346 744L143 265L123 212ZM794 577L859 523L859 502L408 502L408 523L740 523L794 577ZM887 544L851 567L817 592L785 620L754 649L725 680L699 713L674 748L651 785L647 795L622 759L592 722L559 686L523 652L484 618L442 586L396 555L347 526L295 499L290 507L379 578L420 613L457 648L491 684L522 719L550 755L574 791L595 828L616 870L671 836L681 819L660 817L657 812L728 739L758 712L788 687L820 662L885 620L920 602L985 571L924 521L887 544Z"/></svg>