<svg id="U2B156" viewBox="0 0 1024 1024"><path transform="translate(0, 921.6) scale(1,-1)" d="M330 21L315 61L296 101L275 139L241 197L240 198L236 182L220 128L199 80L175 38L147 1L115-30L79-54L41-71L36-62L67-37L95-9L119 23L140 58L158 99L172 144L184 194L187 213L55 213L55 234L190 234L192 249L198 310L200 375L200 380L44 380L44 401L200 401L200 519L98 519L98 541L200 541L200 659L66 659L66 681L169 681L162 683L150 704L150 718L150 732L148 759L146 773L144 786L135 827L129 840L137 846L146 834L157 824L176 799L184 786L192 772L198 758L204 743L209 727L214 711L207 688L194 681L262 681L265 691L268 711L287 802L295 847L296 851L299 860L358 833L370 818L349 812L336 784L318 752L300 719L290 702L279 685L276 681L323 681L356 718L399 681L399 659L265 659L265 541L296 541L329 578L372 541L372 519L265 519L265 401L308 401L361 455L426 401L426 380L238 380L264 374L280 362L263 352L259 304L250 241L248 234L297 234L351 288L415 234L415 213L249 213L272 195L306 162L337 127L351 108L378 68L389 48L390 23L373 5L349 4L330 21ZM402-18L402-2L509-2L516-2L521-1L525 1L528 3L529 8L530 13L531 19L531 309L473 270L471 249L454 258L412 308L531 370L531 632L430 632L430 654L531 654L531 863L595 853L611 842L595 832L595 654L623 654L656 691L699 654L699 632L595 632L595 405L640 428L696 454L702 446L679 424L632 384L595 356L595 19L594 6L592-8L588-20L581-33L572-44L561-52L549-59L536-63L523-66L509-67L509-34L402-18ZM714 734L779 702L917 702L949 729L1008 681L981 659L981 68L917 35L917 100L779 100L779 35L714 3L714 734ZM917 681L779 681L779 121L917 121L917 681Z"/></svg>