<svg id="U2B996" viewBox="0 0 1024 1024"><path transform="translate(0, 921.6) scale(1,-1)" d="M521 5L503 28L484 51L445 90L402 126L357 159L351 162L335 121L311 80L281 42L246 9L204-20L158-45L106-66L48-82L45-73L98-47L144-20L184 9L218 39L246 72L269 106L286 143L297 182L300 202L66 202L66 224L303 224L304 267L304 331L132 331L132 353L304 353L304 460L93 460L93 482L242 482L228 498L227 514L225 523L221 541L218 552L206 584L198 593L205 599L214 591L225 585L235 578L245 570L261 554L270 546L284 528L289 518L287 494L274 482L382 482L384 485L389 511L395 538L398 551L401 564L409 606L411 611L60 611L60 632L241 632L241 863L300 853L315 842L300 833L300 632L359 632L359 863L418 853L434 842L418 832L418 632L501 632L555 686L620 632L620 611L417 611L471 584L482 569L459 564L439 533L423 509L404 488L398 482L455 482L509 535L573 482L573 460L368 460L368 353L423 353L467 401L521 353L521 331L368 331L368 267L364 224L488 224L542 277L607 224L607 202L361 202L356 179L365 177L393 168L421 156L447 142L473 126L497 109L545 68L568 45L589 20L595-4L583-25L559-31L538-19L521 5ZM746-24L746-8L854-8L860-7L865-6L870-4L872-2L874 3L875 8L875 14L875 863L940 853L956 842L940 832L940 14L939 1L937-13L932-26L925-38L917-49L906-58L894-65L881-69L867-71L854-72L854-40L746-24ZM673 783L738 772L754 761L738 752L738 138L673 105L673 783ZM504 833L563 806L575 791L555 786L545 766L525 730L503 697L491 683L478 669L452 646L445 652L452 667L465 699L477 732L488 767L497 805L501 825L504 833ZM142 700L141 712L138 724L135 737L127 762L109 801L100 813L107 820L118 810L132 801L144 791L156 781L175 757L185 745L200 718L206 704L202 680L182 665L158 669L143 689L142 700Z"/></svg>