<svg id="U2B2A0" viewBox="0 0 1024 1024"><path transform="translate(0, 921.6) scale(1,-1)" d="M337 282L319 272L317 238L310 186L300 139L287 96L269 56L248 22L224-8L196-32L165-52L131-65L127-56L153-34L177-11L196 15L214 44L228 75L239 111L248 151L253 194L256 241L256 306L321 293L337 282ZM454-38L440-38L427-35L414-31L402-24L391-15L382-4L375 8L371 21L368 34L368 48L368 309L432 298L449 288L432 278L432 41L434 37L435 33L436 31L437 30L439 28L442 27L447 27L454 26L926 26L959 161L969 161L959 26L978 13L991-6L978-25L959-38L454-38ZM708 864L773 853L789 842L773 833L773 702L831 702L885 755L949 702L949 680L773 680L773 497L820 497L873 551L938 497L938 476L773 476L773 283L859 283L913 337L978 283L978 262L773 262L773 80L708 47L708 262L509 262L509 283L708 283L708 476L545 476L545 497L708 497L708 680L534 680L534 702L708 702L708 864ZM442 406L474 541L485 541L474 406L494 394L507 374L494 355L474 342L347 342L334 342L320 345L307 349L295 356L284 365L275 376L269 388L265 401L262 414L261 428L261 469L179 451L177 458L177 255L176 253L177 253L172 206L166 161L159 120L150 81L139 45L126 12L112-17L96-44L78-67L58-85L50-79L61-55L71-31L80-4L88 25L95 57L101 91L106 128L109 168L111 211L113 256L113 683L177 651L261 651L261 874L326 863L342 852L326 842L326 765L420 765L464 813L517 765L517 744L326 744L326 651L458 651L490 678L550 630L523 613L512 609L509 604L497 582L482 561L465 541L458 530L449 534L454 546L456 559L459 584L460 587L458 587L458 630L177 630L177 472L261 491L261 602L326 591L342 581L326 571L326 505L351 510L384 566L446 531L450 510L326 483L326 421L327 417L328 413L329 411L331 410L332 409L336 408L341 407L347 406L442 406Z"/></svg>