<svg id="U2B93C" viewBox="0 0 1024 1024"><path transform="translate(0, 921.6) scale(1,-1)" d="M207 435L143 403L203 373L424 373L457 400L516 352L489 330L489 183L439 158L492 110L492 89L203 89L203 21L398 21L452 75L516 21L516-1L203-1L203-39L139-72L139 405L143 403L143 578L130 573L81 555L77 564L98 579L135 610L167 639L193 669L203 684L213 699L221 714L223 719L251 698L344 710L532 731L713 753L828 769L828 764L866 733L875 762L886 798L888 806L152 806L152 794L150 773L146 753L140 733L131 716L120 699L106 685L89 673L65 671L46 687L44 711L60 730L71 734L81 740L90 747L99 756L108 768L116 782L122 799L129 819L134 841L136 865L146 866L150 827L888 827L921 854L980 806L953 790L927 779L876 724L891 712L893 696L868 709L835 705L777 700L721 696L794 677L816 669L854 654L871 646L887 638L901 629L914 619L922 596L913 574L889 566L869 574L897 552L870 530L870 435L806 403L806 435L207 435ZM660-6L660 10L767 10L774 10L779 11L782 12L784 13L785 14L786 15L787 17L788 20L789 25L789 276L521 276L521 298L789 298L789 405L853 395L870 384L853 374L853 298L870 298L903 335L946 298L946 276L853 276L853 31L853 18L851 4L846-9L839-21L831-32L820-41L808-47L795-52L781-54L767-55L767-23L660-6ZM665 103L660 117L649 143L634 169L627 181L600 218L588 228L594 237L608 229L623 223L637 215L651 205L664 196L677 185L689 173L712 148L722 134L724 109L709 90L685 88L665 103ZM424 183L203 183L203 110L394 110L436 156L424 151L424 183ZM424 267L203 267L203 204L424 204L424 267ZM424 352L203 352L203 289L424 289L424 352ZM364 552L207 552L207 457L364 457L364 552ZM585 552L428 552L428 457L585 457L585 552ZM806 552L649 552L649 457L806 457L806 552ZM716 688L720 696L659 692L598 689L536 686L473 684L410 682L345 681L280 682L273 682L275 680L283 662L261 663L246 647L230 633L213 619L194 606L174 594L170 592L207 573L806 573L838 600L865 577L861 584L842 603L830 614L800 637L740 675L716 688ZM510 596L508 602L504 609L500 617L493 626L475 644L452 664L437 672L440 681L457 675L473 671L488 668L502 663L516 657L528 652L539 645L550 638L559 630L567 620L570 596L554 576L529 575L510 590L510 596Z"/></svg>