<svg id="U2BC58" viewBox="0 0 1024 1024"><path transform="translate(0, 921.6) scale(1,-1)" d="M322 122L307 146L290 168L271 189L265 195L224 118L182 59L137 6L87-39L34-76L28-68L74-24L116 25L154 79L188 138L218 203L228 228L178 264L152 279L142 223L72 203L145 600L58 600L58 621L148 621L193 864L254 842L268 828L251 823L214 621L313 621L345 648L404 600L377 584L373 582L362 510L343 419L320 334L292 256L285 240L304 226L329 205L352 182L372 157L392 131L395 106L380 87L356 83L336 98L322 122ZM928 165L910 201L900 219L897 224L781 207L718 199L711 198L711-42L646-75L646 191L556 181L466 173L427 169L413 168L402 151L392 167L379 231L390 231L425 231L506 231L553 231L575 231L726 382L799 462L822 489L823 491L870 446L874 427L854 431L817 395L760 346L700 298L636 252L604 232L658 233L716 234L845 237L888 237L877 253L850 287L820 321L803 337L808 345L851 324L871 311L890 298L926 267L957 233L985 196L987 171L972 152L947 150L928 165ZM517 157L571 121L580 104L558 103L542 82L509 45L472 11L429-20L381-48L375-40L428 19L458 58L484 96L495 115L512 147L511 147L517 157ZM909-21L892 13L882 30L859 62L846 79L801 128L784 145L789 153L832 132L872 106L907 78L923 62L938 46L965 11L968-13L953-33L929-35L909-21ZM311 600L210 600L156 300L190 290L221 277L243 266L268 349L287 432L302 520L311 600ZM658 572L657 573L663 580L712 538L718 520L697 522L667 493L617 451L599 437L580 424L560 411L588 392L603 380L618 366L632 351L637 327L625 306L601 301L580 313L571 327L562 341L540 369L528 382L485 421L469 434L451 446L456 455L476 448L497 442L517 434L536 425L546 420L616 511L650 561L658 572ZM894 865L896 858L949 814L950 797L927 808L911 803L832 785L750 771L708 764L665 759L622 755L578 751L553 750L555 748L535 742L522 708L511 682L499 657L485 634L455 590L438 570L420 552L400 536L393 542L425 609L445 654L461 702L474 752L479 773L482 788L527 769L699 809L818 841L889 864L894 865ZM911 600L906 616L900 632L884 665L874 682L839 737L825 755L831 762L870 734L887 720L918 690L945 658L956 642L976 609L975 584L957 567L932 568L915 585L911 600ZM675 625L673 638L670 650L666 663L662 676L651 703L645 717L636 730L643 737L655 726L668 717L691 695L701 683L711 670L720 657L727 643L734 628L740 613L735 589L715 575L691 580L677 599L675 625Z"/></svg>