<svg id="U2B41A" viewBox="0 0 1024 1024"><path transform="translate(0, 921.6) scale(1,-1)" d="M574 353L571 366L561 390L549 414L534 437L529 444L529-45L464-77L464 380L440 310L423 265L403 222L382 181L358 141L350 145L389 277L402 323L413 369L423 416L432 464L448 564L452 600L354 600L354 621L464 621L464 863L529 853L545 842L529 832L529 621L552 621L585 659L628 621L628 600L529 600L529 469L539 465L553 458L579 440L590 431L613 408L623 395L632 382L633 357L617 339L593 337L574 353ZM259 681L321 660L335 646L316 639L304 596L277 503L258 453L253 439L299 439L332 476L375 439L375 417L243 417L243 234L258 234L302 283L356 234L356 213L243 213L243-45L179-77L179 213L66 213L66 234L179 234L179 417L46 417L46 439L239 439L240 456L243 509L252 605L254 627L257 670L259 681ZM662 130L656 104L654 84L657 69L662 58L670 49L683 41L702 34L728 30L761 28L922 28L954 162L965 162L954 28L974 15L987-4L974-24L954-37L761-37L722-34L686-28L655-17L629-1L608 23L595 51L590 82L592 115L601 149L614 186L848 730L636 730L636 752L856 752L888 778L947 730L921 714L906 708L673 161L662 130ZM131 479L129 543L127 583L125 602L124 620L123 639L122 657L119 674L128 677L146 646L154 628L162 610L175 571L181 551L191 507L195 485L187 461L166 450L142 457L131 479ZM71 697L71 718L179 718L179 869L243 858L259 847L243 838L243 718L274 718L307 756L350 718L350 697L71 697Z"/></svg>