<svg id="U2BA47" viewBox="0 0 1024 1024"><path transform="translate(0, 921.6) scale(1,-1)" d="M880-16L829 39L785 101L750 164L730 134L670 65L603 5L530-44L450-82L446-73L518-26L585 27L644 89L696 159L728 211L711 249L683 334L659 427L642 527L630 635L625 745L547 745L547 767L885 767L917 793L976 745L950 729L945 727L929 626L903 510L870 402L830 303L784 216L794 197L833 134L878 80L925 33L976-5L995-18L936-63L880-16ZM175-25L175-9L261-9L268-9L273-8L276-7L278-6L279-5L280-4L280-2L281 1L282 6L283 12L283 109L167 94L88 85L78 67L66 82L50 146L61 147L111 149L214 154L266 158L283 158L283 236L320 230L436 297L58 297L58 319L473 319L501 337L502 335L515 346L574 297L547 281L483 254L483 262L415 241L392 234L368 228L349 224L364 215L347 205L347 162L425 166L480 169L535 170L590 171L591 162L537 150L483 140L429 131L347 119L347 12L346-2L344-15L340-28L333-40L324-51L314-60L301-66L288-70L275-73L261-74L261-41L175-25ZM883 745L635 745L652 638L673 533L697 437L725 348L758 268L758 267L784 323L818 419L847 523L869 637L883 745ZM371 853L372 858L374 863L377 868L431 833L440 816L415 814L385 783L361 761L335 740L411 740L465 793L530 740L530 718L367 718L367 628L410 628L454 677L508 628L508 607L367 607L367 520L410 520L454 568L508 520L508 498L367 498L367 403L453 403L497 451L551 403L551 381L191 381L127 349L127 660L96 629L71 607L44 587L37 594L92 675L124 727L127 731L127 740L131 740L152 782L164 809L175 837L183 860L182 860L187 873L245 842L256 826L236 823L216 784L199 756L189 740L318 740L323 747L352 806L358 819L371 853ZM303 498L191 498L191 403L303 403L303 498ZM303 607L191 607L191 520L303 520L303 607ZM303 718L191 718L191 628L303 628L303 718Z"/></svg>