<svg id="U2B4B0" viewBox="0 0 1024 1024"><path transform="translate(0, 921.6) scale(1,-1)" d="M745 310L810 299L826 289L810 279L810 230L844 230L898 283L963 230L963 208L810 208L810 82L871 82L924 135L989 82L989 60L810 60L810-52L745-84L745 60L556 60L546 34L474 27L544 207L601 174L611 158L593 154L565 82L745 82L745 208L460 208L460 230L745 230L745 310ZM65-42L39 17L118 34L188 49L206 54L206 374L61 374L61 396L206 396L206 546L138 546L138 568L287 568L331 616L385 568L385 546L271 546L271 396L293 396L347 449L411 396L411 374L271 374L271 69L329 84L401 99L404 90L338 56L271 27L202 2L99-32L86-36L79-56L65-42ZM114 141L113 157L111 173L109 189L105 205L100 221L94 237L80 270L70 287L77 293L106 267L120 253L132 238L143 222L153 205L161 187L168 169L174 149L178 130L170 106L149 95L125 103L114 125L114 141ZM338 313L396 283L408 268L387 264L380 251L342 187L319 156L306 141L294 125L286 130L293 148L319 238L328 272L335 300L338 313ZM668 331L654 332L641 334L629 338L616 344L606 353L597 363L590 375L586 388L583 401L582 414L582 503L558 489L497 459L434 432L430 440L543 514L582 542L582 584L627 577L692 631L702 640L442 640L442 662L649 662L649 755L496 755L496 777L649 777L649 868L714 857L730 847L714 837L714 777L734 777L778 825L830 779L850 805L882 852L885 856L935 816L943 797L922 799L898 767L858 721L815 677L798 662L867 662L921 716L985 662L985 640L775 640L721 596L670 558L646 543L646 489L750 532L799 555L845 580L866 593L874 578L910 543L911 525L891 534L846 515L820 506L793 497L765 489L737 482L708 476L678 471L647 467L646 467L646 408L647 403L648 400L649 398L650 396L652 394L656 392L661 391L668 390L892 390L921 503L932 503L921 390L939 378L951 361L939 343L921 331L668 331ZM349 661L343 675L326 702L303 730L259 773L249 781L218 711L175 627L124 549L96 511L66 475L34 441L27 447L94 567L134 648L152 690L184 775L198 818L208 857L213 871L272 844L284 829L265 824L256 798L253 792L288 778L308 768L327 757L344 746L360 734L374 721L388 707L400 693L411 677L413 653L397 634L372 633L353 648L349 661ZM811 755L714 755L714 662L725 662L776 715L811 755Z"/></svg>