<svg id="U2B9B6" viewBox="0 0 1024 1024"><path transform="translate(0, 921.6) scale(1,-1)" d="M443 5L437-7L429-18L420-28L410-37L399-44L386-49L373-53L360-55L346-56L346-24L250-8L250 9L346 9L353 9L359 10L365 12L368 13L372 16L375 18L378 22L381 26L384 31L386 38L390 52L394 68L397 87L401 109L404 133L410 189L414 254L415 277L290 277L288 262L272 199L252 142L228 90L199 45L166 5L129-27L88-53L43-71L39-62L77-35L110-5L139 28L165 67L187 110L205 159L220 213L231 273L232 277L55 277L55 299L234 299L239 338L243 408L243 420L307 405L323 394L305 384L300 331L294 299L416 299L448 326L507 277L480 261L479 261L479 250L474 183L471 153L468 125L465 99L457 55L447 18L443 5ZM893 30L925 165L936 165L925 30L945 17L958-2L945-22L925-34L698-34L684-33L671-31L658-27L645-20L635-11L626-1L619 12L615 25L613 38L612 52L612 249L596 231L540 175L480 124L474 131L525 189L574 250L612 300L612 380L662 371L709 446L733 487L486 487L486 509L673 509L673 686L536 686L536 707L673 707L673 869L738 858L754 847L738 838L738 707L767 707L800 745L840 710L854 745L887 834L945 805L957 789L937 785L911 721L874 642L835 565L802 509L866 509L920 562L984 509L984 487L790 487L748 421L700 355L677 325L677 214L740 258L785 294L847 352L868 374L912 326L916 307L896 312L865 288L815 253L761 223L734 210L706 199L677 189L677 45L678 40L679 35L681 33L686 32L691 31L698 30L893 30ZM148 439L148 375L84 342L84 832L148 799L397 799L429 826L488 778L461 756L461 407L397 375L397 439L148 439ZM241 611L148 611L148 461L241 461L241 611ZM397 611L305 611L305 461L397 461L397 611ZM830 686L738 686L738 509L745 509L787 590L822 666L830 686ZM241 778L148 778L148 633L241 633L241 778ZM397 778L305 778L305 633L397 633L397 778Z"/></svg>