<svg id="U2BB8C" viewBox="0 0 1024 1024"><path transform="translate(0, 921.6) scale(1,-1)" d="M583 311L647 298L663 286L646 280L642 196L610 197L642 195L635 153L622 112L602 76L578 43L547 13L511-12L470-34L424-52L374-66L318-76L315-67L367-47L413-25L453-3L488 22L516 47L538 74L556 103L568 133L575 165L578 199L583 311ZM926 3L958 138L969 138L958 3L978-10L990-29L978-48L958-61L805-61L791-60L778-58L765-54L753-47L742-38L733-27L727-15L722-2L720 11L719 25L719 310L783 299L800 288L783 278L783 25L784 18L785 13L786 10L787 9L787 8L788 6L790 6L793 5L799 4L805 3L926 3ZM71 66L39 124L75 135L166 166L185 173L185 552L55 552L55 573L185 573L185 847L250 837L266 826L250 816L250 573L271 573L325 627L389 573L389 552L250 552L250 197L392 250L396 241L322 194L185 120L98 78L91 75L86 55L71 66ZM453 212L429 208L409 224L406 248L411 262L422 295L435 351L446 416L449 439L458 439L462 416L466 393L467 385L906 385L938 412L997 363L971 347L960 343L939 294L924 262L906 229L897 212L888 215L892 233L893 252L900 305L904 352L905 363L470 363L472 349L473 328L473 308L472 268L471 249L468 231L453 212ZM517 670L581 638L790 638L822 664L881 616L854 595L854 460L790 428L790 471L581 471L581 455L517 423L517 670ZM790 616L581 616L581 492L790 492L790 616ZM653 858L718 847L734 837L718 827L718 734L856 734L909 788L974 734L974 713L408 713L408 734L653 734L653 858Z"/></svg>