<svg id="U2BD79" viewBox="0 0 1024 1024"><path transform="translate(0, 921.6) scale(1,-1)" d="M647-26L647-10L761-10L766-9L770-8L771-7L772-6L773-5L775-1L776 4L776 11L776 373L453 373L453 395L776 395L776 586L841 575L857 564L841 555L841 395L868 395L922 448L986 395L986 373L841 373L841 11L840-3L838-16L833-29L826-41L818-52L807-61L795-67L782-72L768-74L755-75L755-42L647-26ZM385 129L366 160L344 190L318 220L307 233L279 193L240 146L198 102L152 61L104 25L52-7L46 1L91 41L132 83L172 126L208 171L242 220L272 269L223 313L144 376L100 409L105 417L155 394L201 368L244 341L284 313L292 307L326 379L349 438L361 478L71 478L71 500L367 500L399 527L458 478L431 462L422 458L406 416L379 355L349 298L333 274L354 255L385 225L412 194L436 162L457 130L459 105L444 85L420 84L400 99L385 129ZM614 168L607 181L599 195L588 209L575 223L543 253L503 284L479 299L484 308L537 290L560 280L582 268L603 256L621 244L638 230L653 215L666 199L677 182L677 158L660 139L636 139L618 155L614 168ZM211 627L211 589L146 557L146 812L211 802L227 791L211 781L211 648L480 648L480 874L544 863L560 852L544 842L544 648L808 648L808 812L872 802L888 791L872 781L872 627L808 595L808 627L211 627Z"/></svg>