<svg id="U2B529" viewBox="0 0 1024 1024"><path transform="translate(0, 921.6) scale(1,-1)" d="M98 837L163 804L388 804L421 831L480 783L453 761L453 589L388 557L388 589L163 589L163-45L98-77L98 837ZM732-18L732-2L840-2L846-2L851-1L856 1L858 3L860 8L861 13L861 19L861 589L636 589L571 557L571 837L636 804L861 804L894 831L953 783L926 761L926 19L925 6L923-8L918-20L911-33L903-44L892-52L880-59L867-63L853-66L840-67L840-34L732-18ZM735 18L704 29L675 41L649 55L624 71L602 88L582 106L565 126L550 148L541 167L509 167L486 137L460 110L431 86L398 66L361 48L322 33L279 22L232 14L230 24L273 41L311 60L345 79L375 100L402 122L425 145L442 167L238 167L238 189L455 189L459 196L471 223L476 241L377 241L313 209L313 430L377 397L392 397L392 462L229 462L229 484L392 484L392 545L457 534L473 524L457 514L457 484L578 484L578 545L642 534L658 524L642 514L642 484L729 484L763 521L806 484L806 462L642 462L642 425L587 397L646 397L679 424L738 376L711 354L711 241L646 209L646 241L527 241L541 234L554 220L533 214L527 199L521 189L691 189L735 237L788 189L788 167L560 167L586 149L627 125L649 115L672 105L697 97L724 89L752 83L782 78L830 68L767 9L735 18ZM646 308L377 308L377 262L646 262L646 308ZM646 376L377 376L377 330L646 330L646 376ZM578 462L457 462L457 425L402 397L578 397L578 462ZM861 691L636 691L636 611L861 611L861 691ZM388 691L163 691L163 611L388 611L388 691ZM861 783L636 783L636 713L861 713L861 783ZM388 783L163 783L163 713L388 713L388 783Z"/></svg>