<svg id="U2BCD9" viewBox="0 0 1024 1024"><path transform="translate(0, 921.6) scale(1,-1)" d="M352 63L336 80L318 96L299 112L288 120L281 109L243 61L200 18L153-20L101-52L45-77L41-68L90-34L135 3L175 43L211 87L243 134L248 144L199 170L169 184L159 144L88 129L163 418L72 418L72 440L169 440L216 620L275 594L288 579L270 574L236 440L341 440L373 467L432 418L405 402L399 400L389 352L369 284L344 221L315 163L313 160L325 154L351 140L374 124L395 106L415 87L422 63L411 41L388 34L366 45L352 63ZM382-20L382 1L644 1L644 268L447 268L447 290L644 290L644 529L416 529L416 551L817 551L871 604L935 551L935 529L708 529L708 290L786 290L840 344L904 290L904 268L708 268L708 1L851 1L905 55L969 1L969-20L382-20ZM844 69L839 84L825 113L801 155L771 196L759 209L765 217L780 208L796 199L812 190L840 168L867 142L879 128L902 99L903 74L888 55L864 53L844 69ZM338 418L230 418L174 203L208 197L240 189L267 180L294 241L314 301L329 366L338 418ZM66 549L46 564L43 589L58 609L68 613L79 620L88 630L98 642L107 656L115 674L122 695L128 718L133 744L136 772L146 773L151 725L480 725L480 868L544 857L560 847L544 837L544 725L888 725L891 727L893 732L895 731L921 752L980 704L953 688L930 678L893 643L850 605L833 592L816 577L809 584L822 602L870 683L880 704L153 704L153 690L151 666L147 642L141 621L132 601L121 583L107 567L91 553L66 549Z"/></svg>