<svg id="U2BEA7" viewBox="0 0 1024 1024"><path transform="translate(0, 921.6) scale(1,-1)" d="M175 869L239 858L256 847L239 838L239-40L175-72L175 869ZM449 273L514 241L795 241L827 268L886 219L859 198L859-23L795-55L795-1L514-1L514-39L449-71L449 273ZM795 219L514 219L514 20L795 20L795 219ZM800 496L859 468L871 453L850 448L836 415L796 332L758 261L749 264L755 291L760 318L771 367L781 411L797 487L800 496ZM501 324L499 339L497 355L494 370L487 401L482 417L471 448L464 462L471 468L483 456L496 444L518 417L537 387L545 371L553 354L559 337L565 319L560 295L539 282L515 287L502 308L501 324ZM639 359L639 369L638 380L637 392L635 405L632 419L629 433L621 464L614 480L622 485L632 471L644 459L664 433L672 420L687 395L693 383L698 370L702 358L695 334L674 321L651 328L638 349L639 359ZM72 394L48 399L35 420L40 444L48 453L64 477L80 512L88 533L111 609L118 638L128 638L128 606L128 577L127 551L125 525L122 501L118 479L113 459L107 440L101 423L93 406L72 394ZM893 503L860 529L828 557L797 589L768 624L740 660L714 700L688 742L665 788L664 792L632 735L600 688L567 644L532 602L495 563L457 528L416 497L373 469L329 446L324 454L348 474L341 475L325 495L324 509L321 523L316 538L311 553L306 568L291 600L273 635L261 652L268 659L300 632L315 618L329 604L353 575L363 560L381 528L388 511L388 510L432 554L466 591L497 631L527 673L555 717L582 764L607 814L630 867L633 873L689 840L699 824L679 821L674 813L715 760L745 723L805 657L836 628L867 603L899 580L930 559L988 527L928 480L893 503ZM725 604L790 551L790 529L518 529L518 551L672 551L725 604Z"/></svg>