<svg id="U2B229" viewBox="0 0 1024 1024"><path transform="translate(0, 921.6) scale(1,-1)" d="M74 2L232 25L280 32L280 144L91 144L91 166L280 166L280 291L175 291L175 254L111 221L111 627L175 595L455 595L487 621L546 573L520 552L520 270L455 238L455 291L345 291L345 166L428 166L481 219L546 166L546 144L345 144L345 41L428 52L525 62L574 66L576 56L482 29L338-6L145-49L117-55L109-74L96-60L74 2ZM790 68L790 84L861 84L866 85L870 86L871 87L872 88L873 89L874 90L875 94L876 98L876 105L876 552L684 552L684-43L620-75L620 605L684 573L876 573L909 600L968 552L941 530L941 105L940 91L938 78L933 65L927 53L918 42L907 33L895 27L882 22L868 20L855 19L855 52L790 68ZM280 430L175 430L175 313L280 313L280 430ZM455 430L345 430L345 313L455 313L455 430ZM280 573L175 573L175 452L280 452L280 573ZM455 573L345 573L345 452L455 452L455 573ZM630 867L695 856L711 845L695 835L695 760L861 760L915 813L980 760L980 738L695 738L695 656L630 624L630 738L394 738L394 656L329 624L329 738L44 738L44 760L329 760L329 867L394 856L410 845L394 835L394 760L630 760L630 867Z"/></svg>