<svg id="U2B5B5" viewBox="0 0 1024 1024"><path transform="translate(0, 921.6) scale(1,-1)" d="M731 545L790 534L805 523L790 514L790 269L786 217L776 168L761 124L740 82L714 46L682 13L646-15L604-38L558-56L508-70L505-62L551-39L592-15L627 11L656 40L680 71L700 104L715 141L725 180L730 223L731 269L731 545ZM906-39L901-26L886 1L875 15L864 29L835 59L799 90L778 105L782 114L831 95L873 73L892 61L909 48L925 35L939 21L952 6L963-10L965-34L949-53L924-55L906-39ZM156 14L92-18L92 246L156 235L172 225L156 215L156 35L270 35L270 326L335 315L351 304L335 295L335 35L448 35L448 246L513 235L529 225L513 215L513 14L448-18L448 14L156 14ZM921 857L986 804L986 782L806 782L789 749L752 682L730 649L717 634L715 631L865 631L897 658L957 610L930 588L930 177L865 145L865 610L663 610L663 154L604 125L604 661L663 631L701 631L704 641L708 660L718 697L723 715L728 733L740 782L545 782L545 804L867 804L921 857ZM42 336L42 358L148 358L148 734L208 724L321 787L381 825L396 835L400 838L412 819L442 788L442 769L422 777L389 761L342 742L317 733L292 724L238 709L213 704L212 703L212 609L420 609L473 663L538 609L538 588L420 588L420 358L435 358L489 411L553 358L553 336L42 336ZM356 588L212 588L212 358L356 358L356 588Z"/></svg>