<svg id="U2B9E2" viewBox="0 0 1024 1024"><path transform="translate(0, 921.6) scale(1,-1)" d="M896 430L898 423L952 378L953 361L930 372L913 367L878 360L803 347L770 342L770 209L861 209L915 262L980 209L980 187L770 187L770-40L706-72L706 187L528 187L528 209L706 209L706 335L680 332L637 328L591 325L544 324L496 324L495 333L587 354L754 391L828 410L896 430ZM735 870L737 864L792 818L794 802L770 813L702 798L652 789L600 781L546 774L544 773L544 649L764 649L817 703L882 649L882 627L544 627L544 405L501 384L508 378L509 362L487 372L473 368L439 360L405 353L369 346L331 340L329 340L329 209L388 209L442 262L507 209L507 187L329 187L329-40L265-72L265 187L50 187L50 209L265 209L265 332L211 327L167 325L123 324L77 324L76 333L246 371L322 389L391 409L424 419L449 428L454 430L457 421L480 402L480 627L142 627L142 649L480 649L480 766L432 761L372 756L310 753L247 750L181 750L180 760L427 802L538 823L641 846L735 870Z"/></svg>