<svg id="U2BE13" viewBox="0 0 1024 1024"><path transform="translate(0, 921.6) scale(1,-1)" d="M787-51L655-44L540-28L442-3L358 33L287 79L255 110L238 85L199 40L155-1L106-36L52-65L47-57L94-19L135 20L172 63L204 109L224 143L182 203L145 280L116 368L125 371L165 289L209 220L242 180L256 211L274 268L288 328L297 394L301 449L182 449L176 437L104 435L250 745L55 745L55 767L259 767L292 793L351 745L324 729L308 722L192 471L302 471L335 498L394 449L367 433L363 432L358 385L344 317L325 252L301 192L277 146L314 115L380 78L458 49L551 30L660 19L787 17L935 23L995 26L938-48L787-51ZM373 123L373 144L646 144L646 355L427 355L427 377L646 377L646 543L612 538L560 531L507 526L452 523L395 521L394 531L554 566L653 590L744 616L829 643L864 656L869 657L872 649L921 607L922 590L900 600L847 584L803 574L711 554L711 377L812 377L866 431L930 377L930 355L711 355L711 144L865 144L919 198L983 144L983 123L373 123ZM745 869L810 859L826 848L810 838L810 773L869 773L923 826L987 773L987 751L810 751L810 680L745 647L745 751L611 751L611 680L547 647L547 751L370 751L370 773L547 773L547 869L611 859L628 848L611 838L611 773L745 773L745 869Z"/></svg>