<svg id="U2B58B" viewBox="0 0 1024 1024"><path transform="translate(0, 921.6) scale(1,-1)" d="M899-31L865-5L835 26L815 55L796 29L762-8L725-38L686-61L643-76L639-67L675-43L707-15L736 17L763 53L787 94L789 98L769 146L754 195L743 248L736 306L734 363L703 363L703 385L871 385L903 412L963 363L936 347L930 345L920 298L901 233L879 174L854 119L846 105L854 94L879 66L905 45L932 27L997 1L936-51L899-31ZM244 869L309 858L325 847L309 838L309 745L312 745L336 777L368 745L368 724L309 724L309 573L244 541L244 595L232 595L232 473L286 473L313 499L366 451L339 435L339 244L286 217L286 266L232 266L232 138L250 138L304 191L368 138L368 116L232 116L232-48L178-75L178 116L38 116L38 138L178 138L178 266L123 266L123 228L64 198L64 502L123 473L178 473L178 595L162 595L162 557L98 525L98 724L42 724L42 745L98 745L98 869L162 858L178 847L162 838L162 745L244 745L244 869ZM478 139L538 113L551 99L530 93L521 69L511 48L490 8L466-28L453-45L425-75L417-69L425-51L451 26L467 87L474 125L478 139ZM443 262L440 217L439 197L483 197L483 390L445 390L445 310L443 262ZM607 12L604 25L602 37L599 49L595 60L590 72L580 94L573 105L565 115L571 123L582 115L594 109L606 101L617 92L628 82L638 71L647 59L656 46L663 32L670 17L667-8L648-23L623-19L608-1L607 12ZM869 363L745 363L758 310L774 256L791 207L810 163L815 156L829 192L845 249L860 312L869 363ZM561 390L526 390L526 197L561 197L561 390ZM178 451L123 451L123 287L178 287L178 451ZM286 451L232 451L232 287L286 287L286 451ZM244 724L162 724L162 616L244 616L244 724ZM617 777L445 777L445 648L617 648L617 777ZM724 826L778 799L844 799L874 826L930 777L903 759L903 546L904 540L904 534L906 531L906 528L907 526L909 525L911 523L915 521L921 520L928 519L932 519L959 611L970 611L959 519L975 509L986 492L975 476L959 466L928 466L915 466L902 468L889 472L878 478L867 486L859 496L852 507L848 520L845 533L844 546L844 777L778 777L778 659L775 628L772 598L766 569L758 541L749 514L737 488L724 463L708 440L691 419L671 399L668 402L668 390L615 390L615 197L622 197L646 229L678 197L678 175L438 175L438 195L436 173L431 132L424 94L416 58L407 24L396-8L383-37L368-62L362-60L375-2L381 30L386 63L390 99L393 137L396 176L397 219L397 263L397 310L397 823L445 799L617 799L647 826L703 777L677 759L677 605L617 576L617 627L445 627L445 412L483 412L483 578L526 568L537 557L526 549L526 412L561 412L561 578L615 568L628 557L615 548L615 416L636 444L668 412L668 409L688 452L706 501L712 525L717 551L722 577L724 604L725 631L724 659L724 826Z"/></svg>