<svg id="U2BB8A" viewBox="0 0 1024 1024"><path transform="translate(0, 921.6) scale(1,-1)" d="M881-53L836-34L794-11L754 17L730 38L689 10L640-18L587-42L531-61L470-76L467-67L523-42L575-16L623 12L666 43L698 69L685 83L654 121L627 164L604 210L587 256L584 256L569 212L542 149L510 91L475 39L435-8L391-48L343-81L337-73L377-33L413 11L446 59L475 111L500 167L522 228L540 295L554 365L555 374L378 374L378 396L558 396L564 441L570 509L464 509L464 530L818 530L872 584L937 530L937 509L634 509L625 433L618 396L893 396L937 444L990 396L990 374L614 374L610 354L592 281L591 277L840 277L872 304L931 256L904 240L891 234L876 205L847 159L814 116L776 76L771 72L786 62L823 41L861 24L902 10L992-11L929-69L881-53ZM43 123L107 144L187 173L187 552L59 552L59 573L187 573L187 847L251 837L267 826L251 816L251 573L270 573L323 627L388 573L388 552L251 552L251 197L390 250L395 241L286 173L188 120L101 78L96 75L91 55L75 67L43 123ZM832 256L599 256L623 221L653 182L685 146L717 114L731 102L740 111L772 149L799 190L822 233L832 256ZM892 851L894 844L950 798L952 782L928 793L906 788L871 782L798 771L719 760L634 750L590 746L554 744L556 742L537 735L523 689L511 657L497 627L482 597L466 569L447 543L427 518L405 495L381 474L374 480L417 561L430 589L441 617L451 645L468 705L474 736L481 778L531 760L710 805L859 842L887 850L892 851ZM680 602L677 616L673 630L669 644L663 657L656 671L639 700L628 714L615 727L621 735L654 716L670 706L683 694L697 681L709 667L720 652L729 636L737 619L744 602L739 577L720 563L695 568L681 588L680 602ZM905 598L898 612L889 627L868 658L842 689L811 723L793 739L799 747L842 725L881 701L899 688L930 660L944 645L957 630L968 613L970 589L955 570L930 568L911 583L905 598Z"/></svg>