<svg id="U2BA0C" viewBox="0 0 1024 1024"><path transform="translate(0, 921.6) scale(1,-1)" d="M125 831L189 799L867 799L921 853L985 799L985 777L189 777L189 449L186 374L181 303L173 237L163 176L150 119L134 68L115 23L94-18L70-52L42-80L35-74L52-41L68-5L82 35L95 80L105 130L113 184L120 243L123 307L125 376L125 831ZM492 82L509 97L514 100L552 48L554 29L534 37L501 17L446-12L417-25L387-37L357-47L325-57L293-65L259-71L256-62L370 1L446 48L492 82ZM913-65L873-32L829-3L782 26L677 80L680 89L711 85L741 80L770 72L798 63L826 53L879 30L928 2L952-13L964-34L958-58L937-70L913-65ZM925 720L979 671L979 650L644 650L629 623L613 596L596 571L587 559L577 547L568 537L798 537L830 564L889 516L863 494L863 111L798 79L798 111L430 111L430 95L365 63L365 569L430 537L553 537L555 542L579 650L257 650L257 671L881 671L925 720ZM798 246L430 246L430 133L798 133L798 246ZM798 381L430 381L430 268L798 268L798 381ZM798 516L430 516L430 402L798 402L798 516Z"/></svg>