<svg id="U2B5D3" viewBox="0 0 1024 1024"><path transform="translate(0, 921.6) scale(1,-1)" d="M519 320L584 288L832 288L865 314L924 266L897 245L897-18L832-50L832 15L584 15L584-50L519-82L519 320ZM386 654L378 670L356 702L343 718L329 733L296 766L278 782L274 785L233 712L183 634L157 598L129 563L121 554L181 525L344 525L376 552L435 503L408 482L408 256L344 224L344 267L181 267L181 159L341 159L385 208L439 159L439 138L181 138L181 35L325 35L379 89L444 35L444 14L181 14L181-45L116-77L116 549L101 531L72 501L41 473L34 480L101 584L144 658L185 737L241 861L245 873L301 840L312 824L292 821L281 799L310 787L332 776L353 763L373 749L391 735L423 703L437 685L450 667L452 642L436 624L412 621L393 637L386 654ZM832 266L584 266L584 36L832 36L832 266ZM344 390L181 390L181 288L344 288L344 390ZM676 847L740 837L757 826L740 816L740 681L798 681L852 734L916 681L916 659L740 659L740 432L863 432L917 485L981 432L981 410L740 410L740 341L676 309L676 410L435 410L435 432L676 432L676 659L570 659L555 626L523 568L506 541L486 515L465 490L457 495L492 584L513 644L522 674L531 705L545 768L552 801L554 811L615 787L628 773L609 766L594 720L582 688L579 681L676 681L676 847ZM344 503L181 503L181 412L344 412L344 503ZM327 670L381 621L381 600L178 600L178 621L283 621L327 670Z"/></svg>