<svg id="U2B5A6" viewBox="0 0 1024 1024"><path transform="translate(0, 921.6) scale(1,-1)" d="M377 111L431 75L440 58L419 57L406 40L392 24L361-8L345-23L327-37L308-51L267-75L261-68L291-32L329 20L350 54L367 88L372 100L372 101L377 111ZM824-32L824-18L887-18L890-18L893-17L895-16L898-10L899-5L900 1L900 9L900 525L646 525L646-49L598-73L598 549L584 531L561 506L553 512L618 660L649 746L663 798L667 812L727 784L739 770L719 765L703 726L675 668L643 612L624 584L610 564L646 546L740 546L740 863L804 853L821 842L804 832L804 546L900 546L927 573L981 525L954 509L954 9L953-4L952-16L949-27L945-38L938-48L930-56L921-63L910-68L899-71L887-72L887-45L824-32ZM62 837L116 826L129 815L116 806L116 385L114 323L111 266L107 211L103 161L97 115L90 72L82 33L73-1L62-31L49-57L42-54L45-27L53 38L59 118L63 213L63 267L63 324L62 385L62 837ZM230 837L279 826L291 815L279 806L279-27L230-52L230 837ZM507-31L499-1L494 14L482 42L476 55L462 81L454 93L445 104L451 111L464 103L478 96L490 87L503 77L527 53L538 39L558 9L567-7L567-32L549-49L524-48L507-31ZM835 412L886 363L859 350L859 116L811 92L811 148L736 148L736 84L688 60L688 409L736 385L811 385L835 412ZM149 799L192 788L202 777L192 769L192 116L149 95L149 799ZM507 847L561 799L561 777L468 777L457 749L435 704L418 676L400 649L399 648L480 648L510 675L566 627L539 608L539 165L480 135L480 165L381 165L322 135L322 678L381 648L385 648L387 655L391 686L394 702L396 717L399 733L405 777L306 777L306 799L463 799L507 847ZM811 363L736 363L736 170L811 170L811 363ZM480 320L381 320L381 186L480 186L480 320ZM480 471L381 471L381 342L480 342L480 471ZM480 627L381 627L381 492L480 492L480 627ZM920 622L914 642L907 662L899 682L890 700L881 718L860 753L849 770L836 787L842 794L861 783L879 770L896 756L912 741L927 724L941 705L954 686L966 665L987 620L985 596L966 580L942 582L925 600L920 622Z"/></svg>