<svg id="U2B5E1" viewBox="0 0 1024 1024"><path transform="translate(0, 921.6) scale(1,-1)" d="M665 858L730 847L746 837L730 827L730 627L868 627L922 681L986 627L986 605L730 605L730 363L840 363L872 390L931 342L904 320L904-13L840-45L840 19L555 19L555-45L490-77L490 396L555 363L665 363L665 605L408 605L408 627L665 627L665 858ZM136-6L145 1L165 13L176 21L176 519L241 509L257 498L241 488L241 66L380 168L387 161L345 109L282 41L222-18L200-37L201-58L183-52L136-6ZM555 342L555 41L840 41L840 342L555 342ZM193 865L253 840L266 826L247 820L222 743L205 697L200 686L337 686L369 713L428 664L401 648L387 642L359 595L336 561L309 528L280 496L272 501L281 520L295 560L310 598L323 634L332 664L191 664L167 609L146 567L124 527L100 490L74 454L47 420L39 425L92 544L125 627L140 670L154 714L179 807L190 855L193 865Z"/></svg>