<svg id="U2BA10" viewBox="0 0 1024 1024"><path transform="translate(0, 921.6) scale(1,-1)" d="M125 831L189 799L867 799L921 853L985 799L985 777L189 777L189 449L186 374L181 303L173 237L163 176L150 119L134 68L115 23L94-18L70-52L42-80L35-74L52-41L68-5L82 35L95 80L105 130L113 184L120 243L123 307L125 376L125 831ZM861-60L806-45L757-24L713 1L675 30L644 63L620 102L602 143L599 159L597 153L574 104L543 61L504 25L458-6L406-31L346-49L280-62L207-68L206-59L276-42L338-22L391 2L437 29L474 59L504 93L527 130L542 171L551 216L554 260L553 260L554 278L618 264L634 253L616 243L611 206L611 204L615 194L632 155L653 122L668 104L772 188L816 227L826 237L825 237L830 241L870 190L872 171L851 178L800 148L738 119L676 95L707 68L741 47L780 30L824 16L874 6L985-6L921-71L861-60ZM309 54L291 70L289 95L306 113L320 119L334 125L346 133L357 141L368 152L379 163L388 177L397 192L406 209L411 228L421 227L420 206L419 185L416 166L410 147L402 128L393 111L381 96L367 81L351 67L334 55L309 54ZM332 516L396 483L767 483L799 510L858 462L831 440L831 301L767 269L767 301L396 301L332 269L332 516ZM767 462L396 462L396 323L767 323L767 462ZM871 529L859 545L831 573L709 557L638 549L447 530L335 520L258 513L248 496L236 511L222 575L233 576L281 577L332 577L372 578L449 663L496 721L522 756L524 760L572 716L578 698L557 701L521 666L481 631L436 596L413 579L568 583L707 587L781 587L816 587L793 607L726 656L701 673L704 682L735 673L763 663L789 652L814 640L859 614L880 600L899 585L932 554L938 530L926 509L902 502L881 514L871 529Z"/></svg>