<svg id="U2B12C" viewBox="0 0 1024 1024"><path transform="translate(0, 921.6) scale(1,-1)" d="M928-27L859 20L828 46L799 73L773 102L749 131L727 161L708 192L692 226L684 249L684-56L620-88L620 192L604 173L571 137L537 102L499 70L460 39L417 11L373-15L326-39L277-60L272-52L358 9L397 40L434 72L469 104L501 138L531 172L558 208L584 245L590 256L358 256L358 277L620 277L620 412L516 412L452 380L452 702L346 702L346 724L452 724L452 874L516 863L532 853L516 843L516 724L602 724L602 869L666 858L682 847L666 838L666 724L775 724L775 869L840 858L856 847L840 838L840 724L863 724L917 777L981 724L981 702L840 702L840 541L775 509L775 562L666 562L666 525L602 492L602 702L516 702L516 433L839 433L893 487L958 433L958 412L684 412L684 277L863 277L917 331L981 277L981 256L696 256L757 185L808 137L836 115L865 93L929 53L988 20L928-27ZM79-12L44 43L331 150L369 163L409 176L413 167L343 124L174 34L99-2L95-23L79-12ZM76 239L71 242L73 245L61 269L72 272L90 276L216 495L166 480L85 459L75 439L63 453L52 484L48 487L50 491L42 516L53 517L63 518L141 678L172 746L198 811L211 848L268 817L279 800L259 797L220 723L159 622L112 553L86 519L94 519L115 521L205 525L228 526L234 526L313 673L313 674L318 683L372 647L381 629L361 629L290 516L204 391L144 311L120 283L249 311L309 323L341 328L373 333L375 324L318 296L231 261L110 217L104 197L89 210L76 239ZM775 702L666 702L666 584L775 584L775 702Z"/></svg>