<svg id="U2B166" viewBox="0 0 1024 1024"><path transform="translate(0, 921.6) scale(1,-1)" d="M208 639L39 639L39 660L264 660L267 674L270 697L279 741L290 804L296 845L298 859L299 863L299 864L301 874L362 849L375 835L355 829L341 790L324 749L305 709L278 660L323 660L377 714L441 660L441 639L272 639L272 322L271 289L343 289L343 556L408 546L424 535L408 525L408 235L343 203L343 268L269 268L269 260L263 202L253 149L241 101L224 58L205 19L182-13L156-41L127-61L95-75L90-67L114-45L135-21L153 6L168 38L182 74L192 113L200 159L206 208L208 263L208 268L137 268L137 203L72 171L72 556L137 546L153 535L137 525L137 289L208 289L208 639ZM496-24L496-8L604-8L610-7L615-6L618-5L621-4L622-3L622-2L623-1L624 3L625 8L625 14L625 338L590 253L571 212L549 172L526 133L501 96L475 61L446 27L438 33L495 150L513 190L544 272L558 314L571 358L583 402L593 447L596 456L625 444L625 664L610 613L596 573L565 497L547 460L528 425L508 391L486 359L462 329L454 334L496 440L522 513L544 589L554 628L563 668L571 710L573 719L625 699L625 767L442 767L442 788L625 788L658 815L708 774L708 788L892 788L924 815L983 767L957 745L957 14L956 1L953-13L949-26L943-38L933-49L923-58L910-65L897-69L884-71L871-72L871-40L806-24L806-8L871-8L877-7L882-6L887-4L889-2L890 3L892 8L892 14L892 334L858 253L816 172L793 133L768 96L741 61L713 27L704 33L761 150L796 231L826 314L852 402L865 456L892 445L892 665L876 613L863 573L832 497L815 460L796 425L776 391L755 359L732 329L723 334L764 440L801 551L821 628L830 668L837 704L840 719L892 699L892 767L717 767L690 745L690 14L689 1L687-13L682-26L676-38L667-49L656-58L644-65L631-69L618-71L604-72L604-40L496-24ZM148 723L146 738L141 768L133 798L118 841L111 855L119 861L130 849L142 839L164 813L174 800L183 785L199 755L213 721L208 697L188 683L164 687L149 707L148 723Z"/></svg>