<svg id="U2B324" viewBox="0 0 1024 1024"><path transform="translate(0, 921.6) scale(1,-1)" d="M921 6L953 141L964 141L953 6L972-6L985-26L972-45L953-58L652-58L638-57L624-55L611-51L599-44L588-35L580-24L573-12L568 1L566 15L566 28L566 127L438 127L455 119L467 103L445 98L438 85L416 55L387 30L354 6L315-14L271-31L221-46L166-58L106-67L39-73L38-64L101-47L159-30L210-12L255 6L294 27L326 48L352 70L372 92L385 115L389 127L286 127L286 62L222 30L222 439L286 406L738 406L770 433L829 385L802 363L802 95L738 62L738 127L630 127L630 22L631 17L633 12L635 10L640 8L645 7L652 6L921 6ZM738 217L286 217L286 148L738 148L738 217ZM738 299L286 299L286 239L738 239L738 299ZM738 385L286 385L286 320L738 320L738 385ZM161 535L159 522L154 499L147 477L137 456L126 437L113 419L98 403L80 388L61 375L42 362L36 370L51 387L63 405L73 422L81 439L88 456L93 474L97 491L99 509L99 527L98 546L98 696L163 664L415 664L447 691L491 655L512 664L532 676L549 689L562 701L572 713L580 726L585 738L587 749L588 762L587 775L587 876L652 843L781 843L813 870L872 822L845 800L845 748L845 741L845 735L845 732L845 730L847 725L850 723L853 721L859 719L867 718L923 718L947 788L958 788L947 718L962 709L972 694L962 680L947 670L867 670L853 669L841 671L829 674L817 680L806 688L797 697L790 709L785 721L782 734L781 748L781 822L652 822L652 775L648 753L640 732L630 713L617 697L602 683L584 672L564 662L542 655L502 646L507 642L480 621L480 535L415 503L415 535L161 535ZM875 407L826 419L782 433L742 452L707 473L695 482L647 471L588 463L524 457L453 455L452 465L521 478L584 491L639 506L660 512L650 523L629 553L614 585L607 616L550 616L550 637L835 637L867 664L926 616L899 599L885 593L879 584L855 556L825 533L789 513L762 503L801 490L842 481L886 474L992 463L928 398L875 407ZM827 616L620 616L633 596L654 572L677 551L703 532L707 529L730 539L765 557L793 577L814 597L827 616ZM259 642L163 642L163 556L259 556L259 642ZM415 642L324 642L324 556L415 556L415 642ZM82 701L82 723L259 723L259 782L44 782L44 803L259 803L259 870L324 859L340 848L324 839L324 803L457 803L501 852L555 803L555 782L324 782L324 723L430 723L464 760L507 723L507 701L82 701Z"/></svg>