<svg id="U2B49F" viewBox="0 0 1024 1024"><path transform="translate(0, 921.6) scale(1,-1)" d="M527-29L527-13L635-13L642-12L646-11L651-10L652-9L653-8L654-6L655-3L656 2L656 294L444 294L444 315L656 315L656 471L534 471L534 492L721 492L774 546L839 492L839 471L721 471L721 315L824 315L878 369L943 315L943 294L721 294L721 9L720-5L717-18L713-31L707-44L698-54L687-63L675-70L662-74L649-76L635-77L635-45L527-29ZM77-43L51 18L131 34L202 49L220 54L220 374L73 374L73 396L220 396L220 546L151 546L151 568L304 568L347 616L401 568L401 546L285 546L285 396L309 396L363 449L428 396L428 374L285 374L285 69L344 84L417 99L420 90L387 73L319 41L250 14L146-22L98-37L91-56L77-43ZM533 223L589 190L599 173L579 171L542 109L507 59L489 35L470 12L428-30L405-48L398-42L469 83L507 161L530 216L533 223ZM888-8L881 16L865 62L844 105L818 148L790 190L774 211L780 219L803 204L825 188L845 170L864 151L881 131L897 109L912 87L925 63L938 38L949 13L947-11L929-28L904-26L888-8ZM127 141L126 157L124 173L122 189L118 205L107 237L100 254L92 270L81 287L88 293L118 267L132 253L144 238L156 222L165 205L174 188L181 169L187 149L191 130L183 106L161 95L138 103L127 125L127 141ZM354 313L412 283L424 268L402 264L387 235L357 187L334 156L321 141L309 125L301 130L308 148L313 167L329 220L339 255L347 289L350 300L354 313ZM887 485L860 510L835 539L786 604L761 641L738 682L715 726L695 768L680 733L656 684L630 639L603 597L573 559L542 524L509 492L474 464L437 440L431 448L461 479L515 546L540 583L564 622L586 663L607 708L627 755L644 805L664 866L722 838L735 823L715 818L706 794L771 703L798 667L825 634L878 580L904 557L929 538L972 509L913 463L887 485ZM365 661L358 675L341 702L318 730L273 773L262 781L232 711L188 627L137 548L109 511L78 475L46 441L38 447L107 567L147 648L182 732L211 818L224 862L227 871L286 844L298 829L279 824L270 798L267 792L303 778L323 768L342 758L375 734L390 721L403 707L416 693L427 677L429 653L413 634L388 633L370 648L365 661Z"/></svg>