<svg id="U2B0C7" viewBox="0 0 1024 1024"><path transform="translate(0, 921.6) scale(1,-1)" d="M349 301L342 314L333 327L311 355L286 384L269 401L269-45L204-77L204 331L191 292L172 248L151 206L128 167L103 130L77 95L47 64L39 70L79 145L97 183L114 224L129 266L143 309L156 354L166 401L175 449L180 484L48 484L48 506L204 506L204 875L269 864L285 853L269 843L269 506L303 506L357 560L422 506L422 484L269 484L269 425L285 418L304 408L323 397L356 375L371 362L398 337L410 323L414 298L400 278L376 274L356 288L349 301ZM432 26L413 89L463 94L514 99L514 522L419 522L419 544L871 544L915 592L968 544L968 522L860 522L860 132L911 136L985 141L986 132L914 116L860 105L860-44L795-76L795 92L608 57L470 33L454 30L444 12L432 26ZM795 235L578 235L578 105L656 112L795 126L795 235ZM795 377L578 377L578 257L795 257L795 377ZM795 522L578 522L578 398L795 398L795 522ZM352 817L413 792L425 777L406 772L396 746L378 700L344 631L331 608L301 562L292 567L305 619L325 692L336 740L346 785L349 803L352 817ZM120 611L119 630L116 648L113 667L109 687L104 707L85 771L76 793L84 798L114 760L139 721L159 682L174 641L180 621L185 600L178 577L157 564L133 571L121 593L120 611ZM501 859L565 827L818 827L851 854L910 805L883 784L883 620L818 588L818 631L565 631L565 615L501 583L501 859ZM818 805L565 805L565 653L818 653L818 805Z"/></svg>