<svg id="U2B831" viewBox="0 0 1024 1024"><path transform="translate(0, 921.6) scale(1,-1)" d="M59-34L59-12L232-12L232 218L296 208L313 197L296 187L296-12L490-12L490 309L101 309L101 331L804 331L858 384L923 331L923 309L554 309L554 169L746 169L800 223L865 169L865 147L554 147L554-12L846-12L900 41L965-12L965-34L59-34ZM201 745L265 713L758 713L790 740L850 691L823 670L823 420L758 388L758 431L265 431L265 415L201 383L201 745ZM758 565L265 565L265 453L758 453L758 565ZM758 691L265 691L265 587L758 587L758 691ZM878 869L942 815L942 793L82 793L82 815L824 815L878 869Z"/></svg>