<svg id="U2BD54" viewBox="0 0 1024 1024"><path transform="translate(0, 921.6) scale(1,-1)" d="M709-19L709-3L812-3L817-2L820-1L822 0L823 1L824 2L825 6L826 11L827 18L827 184L374 184L374-34L310-66L310 555L374 523L827 523L859 549L918 501L892 480L892 18L890 4L888-9L884-22L877-34L868-45L858-54L845-60L832-65L819-67L806-68L806-35L709-19ZM152 847L216 815L840 815L872 842L931 793L904 772L904 616L840 584L840 638L216 638L216 471L213 403L207 338L199 276L187 217L172 162L155 110L134 62L111 17L84-23L53-59L45-53L66-12L85 30L102 75L116 123L128 173L138 226L145 283L150 342L152 405L152 847ZM827 342L374 342L374 206L827 206L827 342ZM827 501L374 501L374 364L827 364L827 501ZM840 793L216 793L216 659L840 659L840 793Z"/></svg>