<svg id="U2BB10" viewBox="0 0 1024 1024"><path transform="translate(0, 921.6) scale(1,-1)" d="M617 269L681 257L697 246L680 236L678 196L668 142L652 96L631 55L604 22L573-6L538-27L499-44L456-55L410-61L408-52L450-35L487-17L520 3L547 25L570 51L588 80L602 115L611 154L617 202L617 269ZM963 417L752 417L835 335L856 317L899 288L920 276L940 266L961 259L995 244L933 193L909 206L886 222L864 240L842 259L822 281L816 287L814 286L814 77L755 47L783 37L801 28L818 19L836 8L851-3L861-26L852-49L830-59L807-50L785-26L759-4L745 7L714 27L678 46L659 54L661 64L682 61L704 59L724 55L745 51L750 49L750 308L543 308L543 69L479 37L479 276L458 258L428 234L396 211L362 189L325 168L320 176L405 260L452 313L479 349L479 361L485 358L506 391L519 417L342 417L342 439L531 439L531 513L432 513L432 534L531 534L531 603L432 603L432 625L531 625L531 710L596 699L612 689L596 679L596 625L701 625L701 710L765 699L781 689L765 679L765 625L778 625L822 673L876 625L876 603L765 603L765 534L778 534L822 583L876 534L876 513L765 513L765 439L865 439L909 487L963 439L963 417ZM52 747L116 714L229 714L261 741L321 693L294 671L294 185L229 153L229 217L116 217L116 153L52 120L52 747ZM229 693L116 693L116 239L229 239L229 693ZM737 417L591 417L572 387L554 359L534 334L543 329L750 329L772 348L749 388L737 417ZM701 513L596 513L596 439L701 439L701 513ZM701 603L596 603L596 534L701 534L701 603ZM370 577L345 578L330 598L332 623L339 634L346 647L353 661L359 677L365 694L370 712L374 732L381 776L382 800L392 801L401 754L401 753L904 753L936 780L995 731L968 715L955 709L940 681L932 668L906 628L896 616L888 602L879 605L883 621L894 683L900 711L901 725L902 731L404 731L406 709L407 688L406 668L403 648L400 628L395 610L389 592L370 577ZM629 784L629 791L628 798L626 806L620 822L610 840L604 850L595 857L601 865L610 859L622 855L632 850L643 845L661 832L677 817L683 809L690 800L688 775L670 759L646 760L629 778L629 784Z"/></svg>