<svg id="U2BCE0" viewBox="0 0 1024 1024"><path transform="translate(0, 921.6) scale(1,-1)" d="M596 635L656 610L669 596L649 590L631 540L602 479L817 479L871 533L936 479L936 457L746 457L746 262L869 262L923 316L987 262L987 241L746 241L746-47L682-79L682 241L461 241L461 262L682 262L682 457L589 457L561 416L540 388L517 361L492 336L465 314L458 320L494 378L527 437L554 497L566 528L577 560L586 593L592 621L596 635ZM407 484L472 430L472 409L275 409L275-48L216-78L216 409L43 409L43 430L353 430L407 484ZM93 347L152 336L166 325L152 316L152 206L149 172L145 140L139 111L131 83L122 59L110 37L96 18L81 3L64-9L46-18L41-10L53 3L63 18L71 35L78 53L84 73L88 95L91 119L93 146L94 175L93 206L93 347ZM346 347L410 336L427 325L410 316L410 68L346 35L346 347ZM66 559L46 574L43 598L58 618L68 623L79 630L89 639L98 650L107 665L115 682L122 703L128 725L133 751L136 779L146 780L151 733L480 733L480 875L544 864L560 853L544 843L544 733L888 733L891 736L893 740L895 739L921 760L980 712L953 696L929 686L893 652L850 614L833 602L816 587L809 594L822 611L843 647L861 677L880 712L152 712L152 698L151 674L147 651L141 630L132 610L121 592L108 577L299 577L353 631L417 577L417 555L93 555L93 564L90 562L66 559Z"/></svg>