<svg id="U2B283" viewBox="0 0 1024 1024"><path transform="translate(0, 921.6) scale(1,-1)" d="M345 269L342 283L340 289L305 276L276 267L264 264L264-35L200-67L200 248L156 238L93 227L83 225L73 206L61 221L44 284L55 285L86 288L117 289L134 290L311 545L334 580L384 538L391 520L371 522L337 480L264 395L211 340L162 293L300 305L333 307L325 325L318 339L310 353L302 366L292 380L280 392L286 399L317 382L331 373L345 361L358 349L371 337L382 322L392 307L410 274L407 250L389 233L365 236L348 254L345 269ZM454 642L518 610L892 610L924 637L983 588L956 567L956 19L955 5L953-8L949-21L942-33L933-44L922-53L910-59L897-63L883-66L870-67L870-34L763-18L763-2L870-2L876-2L881-1L885 0L886 1L887 2L888 3L889 5L890 8L891 13L892 19L892 588L518 588L518 245L515 203L510 164L502 126L492 91L479 59L464 28L446 1L425-24L402-45L377-63L371-56L387-32L402-6L416 19L427 46L436 75L444 105L449 137L453 171L454 207L454 245L454 642ZM107 205L170 185L184 173L165 164L157 138L149 116L138 93L127 71L115 50L100 29L85 9L67-10L49-29L41-23L52 0L80 67L87 89L93 110L98 131L101 152L104 173L105 188L105 190L106 194L107 205ZM578 288L643 255L756 255L788 282L847 234L820 212L820 67L756 34L756 88L643 88L643 51L578 18L578 288ZM342 77L339 92L335 108L330 123L318 153L303 181L294 196L284 209L290 216L304 206L320 197L334 185L347 173L359 160L371 145L381 130L391 113L400 95L407 77L403 53L384 38L360 41L345 61L342 77ZM756 234L643 234L643 110L756 110L756 234ZM655 559L720 548L736 537L720 527L720 464L761 464L805 512L859 464L859 442L720 442L720 360L761 360L805 408L859 360L859 338L720 338L720 306L655 274L655 338L551 338L551 360L655 360L655 442L551 442L551 464L655 464L655 559ZM137 420L132 433L119 457L110 469L89 494L63 519L48 530L52 538L70 531L89 525L106 518L123 509L129 505L191 618L217 670L218 670L220 674L272 635L280 618L258 618L207 558L178 529L141 497L153 489L166 477L178 464L189 451L200 435L201 411L184 392L160 392L141 408L137 420ZM630 873L695 862L711 852L695 842L695 769L861 769L915 823L980 769L980 747L695 747L695 669L630 637L630 747L394 747L394 669L329 637L329 747L44 747L44 769L329 769L329 873L394 862L410 852L394 842L394 769L630 769L630 873Z"/></svg>