<svg id="U2B3DB" viewBox="0 0 1024 1024"><path transform="translate(0, 921.6) scale(1,-1)" d="M444 788L509 756L679 756L679 880L743 869L759 858L743 848L743 756L866 756L920 810L985 756L985 734L509 734L509 589L603 589L603 707L667 697L683 686L667 676L667 589L804 589L804 707L869 697L885 686L869 676L869 589L880 589L924 638L978 589L978 568L869 568L869 380L804 347L804 401L667 401L667 363L603 331L603 568L509 568L509 396L506 333L501 274L494 218L485 165L473 116L459 70L442 27L423-11L401-45L376-75L368-69L383-35L396 1L409 40L420 81L428 125L435 173L440 224L444 278L445 335L444 396L444 788ZM70-31L41 27L84 39L84 396L143 385L157 374L143 365L143 55L206 74L206 509L145 509L145 492L81 460L81 820L145 788L314 788L346 815L405 767L378 745L378 476L314 444L314 509L265 509L265 310L318 310L352 347L395 310L395 288L265 288L265 93L401 137L405 128L342 88L275 54L208 23L139-6L91-24L85-44L70-31ZM794 41L794 57L848 57L854 58L859 59L863 60L865 60L865 61L866 62L867 64L868 67L869 72L870 78L870 256L768 256L768-40L704-72L704 256L606 256L606 9L542-24L542 310L606 277L704 277L704 374L768 363L785 353L768 343L768 277L870 277L902 304L961 256L934 234L934 78L933 65L931 52L926 39L920 26L911 16L900 7L888 0L875-4L861-6L848-8L848 25L794 41ZM804 568L667 568L667 423L804 423L804 568ZM314 767L145 767L145 530L314 530L314 767Z"/></svg>