<svg id="U2B218" viewBox="0 0 1024 1024"><path transform="translate(0, 921.6) scale(1,-1)" d="M321 618L374 581L384 564L363 563L321 498L262 419L230 381L260 376L277 365L260 355L260-32L196-64L196 342L129 275L92 242L52 211L46 218L138 332L195 410L248 489L296 571L318 613L321 618ZM917 381L928 364L917 348L901 338L579 338L614 310L623 293L603 290L573 234L857 234L910 288L975 234L975 213L831 213L806 161L774 115L736 75L782 60L822 45L860 29L897 11L913-8L910-32L890-47L866-45L833-26L762 10L724 27L690 41L636 11L578-13L513-30L442-42L365-48L281-48L281-39L363-28L437-14L504 4L563 25L615 51L631 61L513 98L501 101L481 66L409 68L488 213L303 213L303 234L499 234L556 338L467 338L454 338L442 340L429 344L417 349L406 358L397 367L391 379L386 391L383 405L381 418L381 560L446 528L625 528L625 611L689 600L706 589L689 580L689 528L830 528L884 582L949 528L949 506L446 506L446 412L446 407L447 403L448 399L449 397L451 396L455 394L460 392L467 391L901 391L917 381ZM761 213L561 213L510 118L517 118L564 113L610 105L656 96L673 92L697 113L728 150L752 190L761 213ZM630 877L695 867L711 856L695 846L695 770L861 770L915 824L980 770L980 749L695 749L695 667L630 635L630 749L394 749L394 667L329 635L329 749L44 749L44 770L329 770L329 877L394 867L410 856L394 846L394 770L630 770L630 877Z"/></svg>