<svg id="U2B0AA" viewBox="0 0 1024 1024"><path transform="translate(0, 921.6) scale(1,-1)" d="M373 63L366 80L358 98L346 116L333 135L317 155L256 218L252 222L243 194L220 136L193 83L161 36L126-5L87-41L43-70L38-62L73-26L104 13L132 56L157 103L178 153L196 209L210 268L211 274L51 274L51 296L215 296L221 333L229 402L231 444L222 442L190 435L157 430L123 425L88 421L85 430L238 492L315 527L359 550L365 538L406 501L407 483L386 491L336 474L309 465L296 461L290 396L278 324L272 296L357 296L410 349L475 296L475 274L267 274L263 256L257 238L295 218L321 201L345 184L385 147L402 128L416 109L429 89L439 67L437 43L418 27L394 29L378 47L373 63ZM866 315L925 267L898 245L898 148L914 148L938 181L970 148L970 127L898 127L898-34L833-67L833-13L545-13L545 9L833 9L833 127L491 127L491 148L833 148L833 267L545 267L545 288L833 288L866 315ZM501 541L479 552L471 575L481 597L487 601L494 606L501 614L508 625L515 638L521 653L527 670L528 676L528 681L529 681L537 711L540 734L550 734L552 711L554 688L555 681L692 681L692 783L511 783L511 804L818 804L872 858L937 804L937 783L757 783L757 681L896 681L928 707L987 659L960 643L940 634L938 632L924 616L907 600L898 592L890 582L882 587L888 597L890 610L893 620L895 631L896 638L896 659L757 659L757 369L692 337L692 659L556 659L556 646L554 627L552 610L547 593L542 577L534 563L524 549L501 541ZM631 460L674 423L674 401L508 401L508 423L598 423L631 460ZM898 460L941 423L941 401L774 401L774 423L865 423L898 460ZM167 581L165 610L163 624L157 653L153 667L149 681L139 709L137 714L122 667L109 634L95 603L80 572L64 543L45 516L36 520L63 614L71 647L85 713L90 748L95 783L99 819L103 867L166 848L181 836L163 828L160 810L144 739L204 739L238 777L281 739L281 718L150 718L163 706L174 695L194 669L202 655L210 641L218 625L224 609L230 592L225 569L204 555L180 560L167 581ZM631 584L674 546L674 525L532 525L532 546L598 546L631 584ZM873 584L916 546L916 525L774 525L774 546L839 546L873 584ZM368 581L366 610L362 639L359 653L355 667L342 709L337 716L323 675L311 645L297 616L282 588L265 563L246 540L238 545L264 628L280 688L286 720L292 752L297 785L301 820L304 856L306 867L368 848L383 836L364 828L361 811L345 740L344 739L409 739L442 777L485 739L485 718L351 718L365 706L386 682L395 669L404 655L413 641L420 625L426 609L432 592L427 569L406 555L382 560L368 581Z"/></svg>