<svg id="U2BC67" viewBox="0 0 1024 1024"><path transform="translate(0, 921.6) scale(1,-1)" d="M626-61L591-76L587-67L596-61L559-61L545-60L531-58L518-54L506-47L495-38L487-27L480-15L475-2L473 11L473 25L473 263L465 260L461 230L451 182L438 137L423 96L404 57L383 22L358-10L331-38L301-62L268-81L263-73L288-47L310-19L330 11L347 42L363 76L376 113L386 152L395 194L401 238L401 249L339 218L339 562L329 547L310 526L291 506L283 511L268 421L251 336L230 258L224 238L239 223L258 202L275 179L291 154L305 128L306 103L288 85L264 85L246 102L237 126L226 149L214 171L206 184L179 120L148 61L114 8L75-38L34-75L28-68L60-25L89 24L116 77L141 135L163 201L171 230L154 248L128 273L121 225L53 202L106 600L51 600L51 621L109 621L142 862L204 843L219 831L201 825L174 621L230 621L262 648L320 601L336 637L354 688L376 761L379 775L438 747L451 732L430 727L416 693L391 642L361 593L357 586L404 562L544 562L577 589L604 566L590 585L576 606L564 628L542 673L533 697L525 721L519 746L515 772L512 793L395 793L395 815L480 815L513 853L556 815L556 793L525 793L559 736L585 697L612 661L627 644L663 608L605 566L636 541L609 519L609 283L544 251L544 315L537 315L537 18L538 13L539 10L540 9L541 8L542 6L547 5L552 4L559 3L595 3L628 138L638 138L628 3L647-10L653-19L671-4L708 32L743 71L774 114L802 161L828 211L851 266L871 325L888 388L889 388L891 397L951 371L964 357L944 351L929 306L904 244L876 187L845 135L811 87L773 44L732 6L688-27L641-55L630-59L628-61L626-61ZM645 283L645 299L752 299L759 299L764 301L768 302L771 304L772 309L773 314L774 320L774 863L838 853L854 842L838 832L838 320L837 307L835 294L831 281L824 268L815 258L804 249L792 242L779 238L766 235L752 234L752 267L645 283ZM229 600L171 600L131 297L152 288L176 275L182 271L198 347L212 430L222 519L229 600ZM473 315L404 315L404 286L405 297L468 281L473 277L473 315ZM690 653L753 634L768 621L749 613L739 569L731 537L711 476L700 446L673 388L657 361L639 335L630 339L661 459L667 488L673 518L679 549L683 580L687 611L689 636L688 637L690 653ZM544 541L404 541L404 337L544 337L544 541ZM927 468L922 489L909 531L895 572L868 632L858 652L865 658L899 626L914 609L928 590L953 551L975 509L994 463L990 439L971 424L946 427L931 446L927 468ZM320 599L294 584L291 583L283 514L320 599Z"/></svg>