<svg id="U2BA49" viewBox="0 0 1024 1024"><path transform="translate(0, 921.6) scale(1,-1)" d="M289 638L353 584L353 562L210 562L210-51L167-72L167 562L42 562L42 584L235 584L289 638ZM926 3L958 138L969 138L958 3L978-10L990-29L978-48L958-61L447-61L434-60L420-57L408-52L396-45L386-36L378-25L372-13L368-1L367 12L367 863L421 853L434 842L421 833L421 25L421 18L423 12L424 9L426 6L428 5L432 4L436 4L440 3L926 3ZM72 476L126 466L139 455L126 446L126 294L124 249L121 209L116 170L111 136L103 105L95 76L85 52L73 31L60 13L45 1L39 6L46 23L52 41L57 62L62 85L66 112L70 142L72 175L73 211L73 251L72 294L72 476ZM437 204L447 208L481 218L482 218L482 791L451 791L451 813L609 813L663 867L728 813L728 791L680 791L680 45L615 13L615 241L574 211L538 187L504 166L492 159L487 137L471 148L437 204ZM261 476L309 466L322 455L309 446L309 102L261 77L261 476ZM917 179L888 270L872 313L865 331L833 256L804 203L772 157L737 120L700 94L694 102L722 134L749 174L773 219L796 273L817 334L835 398L796 471L752 544L729 578L736 585L768 556L797 525L825 491L849 459L853 480L868 564L881 657L890 744L723 744L723 765L891 765L923 792L982 744L956 727L952 726L942 648L925 554L906 468L887 398L922 334L961 246L978 198L976 174L957 158L932 160L917 179ZM615 419L542 419L542 239L615 266L615 419ZM615 605L542 605L542 441L615 441L615 605ZM615 791L542 791L542 627L615 627L615 791ZM260 826L314 777L314 756L78 756L78 777L216 777L260 826Z"/></svg>