<svg id="U2B31C" viewBox="0 0 1024 1024"><path transform="translate(0, 921.6) scale(1,-1)" d="M171 292L234 277L250 265L231 256L228 225L218 177L207 133L192 91L174 53L153 19L130-11L103-37L74-59L42-75L37-67L61-42L82-17L101 10L118 40L132 73L145 108L154 146L162 188L167 233L170 281L171 292ZM925 16L957 151L968 151L957 16L976 3L989-16L976-35L957-48L337-48L324-48L310-45L297-41L285-34L274-25L265-15L259-3L254 11L252 24L251 38L251 306L153 306L153 241L88 209L88 846L153 813L322 813L354 840L414 792L387 770L387 274L322 241L322 306L316 306L316 38L316 31L317 26L318 23L319 21L320 20L321 19L323 18L326 17L331 17L337 16L925 16ZM837 111L811 145L785 176L757 206L733 230L688 179L637 138L580 105L516 80L447 62L444 72L509 98L566 130L616 166L659 208L695 254L699 261L633 310L599 332L585 341L582 332L511 318L580 562L417 562L417 583L586 583L659 844L718 816L731 801L713 797L653 583L849 583L902 637L967 583L967 562L845 562L837 490L822 414L799 345L769 283L759 268L791 243L824 214L856 182L885 148L914 112L919 88L906 67L882 62L861 75L837 111ZM780 562L647 562L589 356L608 351L647 335L685 316L719 296L725 306L748 364L766 427L776 497L780 562ZM322 470L153 470L153 327L322 327L322 470ZM322 633L153 633L153 491L322 491L322 633ZM322 792L153 792L153 655L322 655L322 792Z"/></svg>