<svg id="U2BCDE" viewBox="0 0 1024 1024"><path transform="translate(0, 921.6) scale(1,-1)" d="M824-25L815-35L806-44L795-52L785-58L773-64L760-68L747-71L735-73L722-73L722-41L614-25L614-9L729-9L736-8L743-6L754-2L759 2L764 5L769 10L774 16L778 22L784 32L790 44L795 59L800 75L805 95L809 116L812 139L815 165L817 193L818 211L714 211L695 171L674 135L648 101L619 68L586 38L551 11L511-15L469-38L423-58L374-75L370-66L414-39L454-13L492 15L525 42L556 72L582 102L604 133L624 165L640 198L645 211L528 211L494 167L463 132L428 100L389 70L347 42L302 17L253-6L202-26L147-44L88-58L86-49L140-25L191 0L238 26L281 52L322 80L358 109L391 140L420 171L446 204L450 211L322 211L283 180L248 156L211 134L173 115L132 97L90 83L46 71L42 80L120 124L190 169L222 193L252 219L279 245L306 273L329 302L50 302L50 324L877 324L921 372L974 324L974 302L410 302L376 262L347 233L346 232L818 232L851 259L910 211L883 195L882 194L881 189L879 159L876 132L872 105L868 81L863 59L857 38L850 19L842 2L832-15L824-25ZM67 536L46 550L43 574L57 595L67 600L78 608L88 618L98 632L106 648L114 667L121 689L127 714L132 742L136 773L146 773L150 741L152 721L480 721L480 875L544 864L560 853L544 843L544 721L888 721L891 724L893 727L894 726L921 748L980 700L953 684L932 675L894 635L850 595L816 564L814 566L814 393L750 361L750 393L274 393L209 361L209 653L274 621L750 621L782 648L831 608L869 676L881 700L153 700L153 684L151 659L148 634L141 612L132 591L122 571L108 554L91 540L67 536ZM750 499L274 499L274 414L750 414L750 499ZM750 599L274 599L274 521L750 521L750 599Z"/></svg>