<svg id="U2B30E" viewBox="0 0 1024 1024"><path transform="translate(0, 921.6) scale(1,-1)" d="M878-51L825-31L776-8L731 18L690 47L653 80L620 115L590 153L566 195L551 229L501 198L463 177L377 138L372 136L372 12L577 37L627 41L678 46L679 36L582 8L484-15L336-46L238-65L210-69L201-88L188-73L168-11L179-9L279 2L308 5L308 111L226 83L169 66L109 51L45 37L43 46L214 116L312 161L397 205L434 228L444 235L71 235L71 256L485 256L485 334L550 323L566 312L550 303L550 256L856 256L910 310L974 256L974 235L563 235L585 207L615 173L647 142L682 114L688 110L799 193L844 230L872 189L882 178L883 159L863 167L808 139L788 130L723 104L705 99L719 89L759 66L802 46L848 28L897 13L997-10L933-68L878-51ZM197 361L197 377L290 377L295 378L298 379L300 380L301 381L302 382L303 387L304 391L304 557L164 557L164 532L163 532L160 498L154 467L147 439L137 412L125 389L112 368L96 349L79 335L59 324L39 316L35 325L49 339L60 354L70 370L79 388L86 406L91 427L95 451L98 476L99 503L99 862L164 830L304 830L337 856L396 808L369 787L369 398L368 384L366 371L362 358L355 346L346 335L336 326L323 320L310 316L297 313L283 312L283 345L197 361ZM828 665L559 665L559 561L828 561L828 665ZM304 686L164 686L164 579L304 579L304 686ZM912 675L897 683L920 665L893 644L893 529L828 497L828 540L776 540L776 407L775 401L776 396L776 392L778 388L781 384L785 383L790 381L797 380L917 380L944 471L954 471L944 380L960 369L971 353L960 337L944 326L797 326L784 327L771 328L759 332L747 338L736 346L727 356L720 368L715 380L713 394L711 407L711 540L606 540L663 517L675 503L654 496L651 486L634 457L613 431L588 408L559 387L526 369L489 353L449 340L404 330L355 322L353 331L398 349L438 367L474 385L506 405L532 425L554 445L572 466L585 487L594 509L600 532L601 540L559 540L559 524L494 491L494 689L443 666L389 647L385 656L408 673L488 735L521 766L549 795L557 806L562 812L565 809L565 827L729 827L773 875L827 827L827 805L782 805L816 787L852 769L892 753L937 737L962 730L999 716L937 663L912 675ZM762 805L569 805L608 766L612 747L591 752L573 738L554 724L523 705L559 687L828 687L855 709L826 729L794 759L780 775L769 792L762 805ZM304 808L164 808L164 707L304 707L304 808Z"/></svg>