<svg id="U2BD38" viewBox="0 0 1024 1024"><path transform="translate(0, 921.6) scale(1,-1)" d="M565 810L630 777L894 777L926 804L985 756L958 734L958-8L894-40L894 25L630 25L630-40L565-72L565 810ZM149-13L149 3L235 3L242 4L246 5L251 6L253 9L255 13L256 18L257 25L257 842L321 831L337 820L321 811L321 25L320 11L318-2L314-15L307-27L298-38L287-47L275-54L262-58L249-60L235-61L235-29L149-13ZM894 401L630 401L630 46L894 46L894 401ZM133 583L195 563L210 551L192 543L186 514L164 419L152 373L138 328L107 242L90 202L71 163L50 125L41 129L74 254L94 340L111 430L119 477L125 524L131 573L133 583ZM465 235L459 277L452 318L444 358L435 397L414 473L378 582L387 587L409 555L429 521L447 486L464 449L479 411L493 371L505 331L526 246L534 202L528 177L507 165L483 171L471 192L465 235ZM894 756L630 756L630 423L894 423L894 756Z"/></svg>