<svg id="U2BF3E" viewBox="0 0 1024 1024"><path transform="translate(0, 921.6) scale(1,-1)" d="M884 0L842 52L809 102L779 64L735 19L687-18L635-47L579-67L575-58L625-29L670 5L710 44L747 89L781 141L785 147L772 170L746 237L725 307L709 382L699 459L692 392L677 290L657 198L632 119L604 51L572-5L535-48L494-77L489-69L520-34L547 10L572 65L594 131L612 209L627 298L639 398L647 511L651 634L652 759L582 759L582 781L845 781L878 807L937 759L910 743L900 739L849 502L897 502L929 528L988 480L961 464L956 462L941 397L917 317L888 243L856 176L845 157L854 140L892 91L932 47L990-4L932-47L884 0ZM79-18L79-2L144-2L150-2L155-1L160 1L162 3L164 8L165 13L165 19L165 312L95 269L93 248L76 257L36 309L165 371L165 632L53 632L53 654L165 654L165 863L230 853L246 842L230 832L230 654L248 654L292 702L345 654L345 632L230 632L230 403L312 441L341 453L338 456L327 488L323 490L324 494L316 518L327 520L334 520L409 714L442 812L453 850L511 821L523 806L503 802L471 727L438 661L379 556L357 522L378 523L396 525L433 527L472 528L520 633L538 679L542 685L597 652L607 635L588 633L504 477L431 353L385 284L437 299L487 313L565 331L591 336L595 327L548 299L478 263L382 220L377 200L361 211L346 240L342 242L343 245L330 269L340 272L357 277L459 498L423 484L361 464L352 442L346 448L347 446L323 424L244 364L230 355L230 19L229 6L227-8L222-20L215-33L207-44L196-52L184-59L171-63L157-66L144-67L144-34L79-18ZM314 45L472 119L526 142L583 163L588 155L564 135L492 83L399 22L374 6L372-15L354-6L314 45ZM842 759L716 759L713 633L711 601L717 547L730 466L747 390L768 320L793 255L815 208L838 263L861 334L881 412L894 480L844 480L843 473L772 456L842 759Z"/></svg>