<svg id="U2BE7" viewBox="0 0 897 1000"><path transform="translate(0, 900) scale(1,-1)" d="M123-101L51-101Q51-21 78 48Q105 117 154 170.50Q203 224 269 256.50Q335 289 412 295L412 295L412 427Q335 433 269 465.50Q203 498 154 551.50Q105 605 78 674Q51 743 51 823L51 823L123 823Q123 737 160.50 666.50Q198 596 263.50 551.50Q329 507 412 499L412 499L412 707L484 707L484 499Q568 507 633.50 551Q699 595 736.50 665.50Q774 736 774 823L774 823L846 823Q846 743 819 673.50Q792 604 743 551Q694 498 628 465.50Q562 433 484 426L484 426L484 296Q562 289 628 256.50Q694 224 743 171Q792 118 819 48.50Q846-21 846-101L846-101L774-101Q774-14 736.50 56.50Q699 127 633.50 171Q568 215 484 223L484 223L484 15L412 15L412 223Q329 215 263.50 170.50Q198 126 160.50 55.50Q123-15 123-101L123-101Z"/></svg>