<svg id="U2B090" viewBox="0 0 1024 1024"><path transform="translate(0, 921.6) scale(1,-1)" d="M351-24L351-8L458-8L465-8L470-6L473-6L474-5L477-3L478 2L479 7L480 13L480 106L381 60L227-4L150-33L144-54L129-41L99 17L109 20L461 119L480 124L480 294L544 283L560 273L544 263L544 118L565 116L599 110L613 120L688 184L731 226L730 226L735 230L775 180L777 160L756 168L730 154L697 137L679 129L641 114L621 107L619 106L652 99L692 90L768 68L803 55L867 28L896 13L910-6L907-31L887-45L863-42L810-10L749 22L716 37L602 81L544 101L544 13L543 0L541-13L537-26L530-39L521-49L510-59L498-65L485-69L472-72L458-73L458-40L351-24ZM871 158L822 182L777 209L736 237L699 267L665 298L636 332L634 335L399 335L390 325L336 276L274 232L242 214L247 212L266 208L284 203L300 198L316 192L331 185L359 171L372 163L384 155L393 132L383 109L360 101L337 110L331 119L324 128L316 138L306 147L284 167L242 199L229 206L206 193L129 160L46 131L42 140L121 178L192 218L254 261L309 307L337 335L55 335L55 357L358 357L396 407L414 439L157 439L157 460L427 460L452 520L458 542L120 542L120 563L464 563L469 581L479 645L480 657L543 639L558 626L539 618L529 567L527 563L786 563L840 617L904 563L904 542L520 542L506 499L486 460L769 460L813 509L867 460L867 439L594 439L612 416L637 386L665 358L666 357L851 357L904 411L969 357L969 335L691 335L729 306L766 282L807 260L850 239L898 219L986 187L924 134L871 158ZM581 439L476 439L436 378L418 357L619 357L612 367L593 404L581 439ZM343 655L338 665L332 676L324 687L314 698L303 710L275 734L259 747L248 754L222 754L208 734L187 709L163 684L137 661L110 640L79 619L47 602L41 609L91 661L113 687L151 737L167 762L181 789L193 814L202 841L213 876L272 848L284 833L264 828L259 818L244 789L236 776L431 776L485 830L550 776L550 754L286 754L305 747L323 739L339 731L355 721L369 711L382 700L394 688L404 675L406 650L390 631L366 629L346 645L343 655ZM768 655L763 665L757 676L749 687L739 698L728 710L700 734L684 747L672 754L638 754L625 740L606 722L584 705L561 690L536 676L509 663L504 671L544 711L577 749L591 769L603 789L614 808L623 828L630 848L634 863L638 876L696 848L709 833L688 828L674 802L659 780L656 776L861 776L915 830L980 776L980 754L711 754L730 747L747 739L764 731L780 721L794 711L807 700L818 688L829 675L830 650L815 631L790 629L771 645L768 655Z"/></svg>