<svg id="U2B1AB" viewBox="0 0 1024 1024"><path transform="translate(0, 921.6) scale(1,-1)" d="M892-51L852-29L815-3L781 26L762 49L723 15L681-13L636-38L588-57L536-71L533-62L580-38L622-12L661 16L697 46L729 80L734 86L727 96L704 137L687 180L674 226L671 242L647 182L619 124L588 68L553 17L515-31L474-75L466-69L499-19L529 32L557 85L582 141L604 199L624 259L640 323L654 385L516 385L516 406L657 406L665 457L673 523L674 540L737 521L752 509L734 501L725 447L717 406L856 406L909 460L974 406L974 385L713 385L693 309L688 294L835 294L867 320L926 272L900 256L890 252L879 221L855 172L828 127L797 86L818 67L849 45L882 27L918 12L999-13L936-68L892-51ZM362 108L356 127L342 162L335 179L317 211L299 242L288 257L283 263L272 237L252 199L231 164L207 132L182 104L154 80L134 66L134-40L70-72L70 745L134 713L251 713L253 774L254 853L254 866L318 853L335 842L317 832L315 771L309 713L422 713L454 740L513 691L486 670L486 14L486 1L484-13L479-26L472-38L464-49L453-58L440-65L428-69L414-71L400-72L400-40L325-24L325-8L400-8L407-7L412-6L417-4L418-3L418-2L420-1L421 3L422 8L422 109L404 91L380 91L362 108ZM830 272L681 272L680 268L695 234L716 192L738 155L762 124L782 155L803 198L822 244L830 272ZM249 691L134 691L134 354L143 363L167 394L188 430L206 472L221 520L234 574L243 634L249 691ZM531 427L507 431L494 451L498 475L504 482L510 490L515 499L520 510L524 523L527 538L530 553L533 590L531 610L540 612L546 592L553 574L554 573L825 573L830 587L836 609L876 724L885 754L889 766L946 733L957 717L935 714L907 667L858 597L840 573L904 573L937 600L996 552L969 535L951 528L929 501L919 490L886 459L876 447L868 453L876 466L886 495L890 507L898 532L903 552L559 552L562 538L564 520L565 503L564 487L562 471L558 455L552 440L531 427ZM422 691L307 691L297 626L290 595L320 576L337 562L353 548L382 516L396 499L408 482L420 463L422 460L422 691ZM590 629L588 641L585 653L577 677L572 689L558 714L551 727L540 738L546 746L559 737L573 728L587 720L610 699L621 688L630 676L639 663L647 649L654 635L651 611L631 596L607 598L592 618L590 629ZM728 649L725 661L719 684L705 718L693 740L684 749L690 756L701 749L714 744L725 736L747 718L757 707L766 697L775 684L783 672L791 658L789 634L771 617L746 619L730 637L728 649ZM889 860L892 852L941 810L942 793L921 803L910 799L885 793L857 788L791 778L753 774L667 766L619 764L567 762L512 762L511 771L706 810L782 827L843 843L868 852L889 860ZM371 420L358 455L343 490L324 524L290 576L287 580L282 562L265 506L243 456L218 412L189 376L157 347L134 335L134 87L159 123L178 153L195 185L211 219L225 256L238 296L250 337L259 382L267 429L270 439L331 417L345 403L326 396L319 368L305 321L289 278L288 275L315 259L331 247L346 234L360 220L387 189L411 153L422 133L422 412L413 403L388 403L371 420Z"/></svg>