<svg id="U2BF02" viewBox="0 0 1024 1024"><path transform="translate(0, 921.6) scale(1,-1)" d="M580 870L640 845L653 831L634 825L606 727L567 614L547 559L541 545L567 541L583 530L567 520L567-45L502-77L502 453L479 404L454 355L427 308L418 312L487 520L520 629L564 801L580 870ZM796 847L780 838L783 655L790 558L855 567L901 628L973 584L975 563L791 537L795 484L811 342L829 245L846 290L867 355L885 425L887 435L947 410L960 396L941 390L925 337L900 269L872 206L849 165L856 139L881 73L906 29L927 5L955 127L966 127L955-9L974-14L987-34L981-59L960-72L921-67L886-45L853-8L823 46L804 95L767 51L727 10L683-26L636-54L586-76L582-67L625-37L665-3L702 34L736 76L768 123L785 154L769 214L747 333L730 478L727 528L592 509L589 530L726 549L719 653L715 853L715 871L780 858L796 847ZM64-60L42 2L121 13L206 28L206 137L84 137L84 158L206 158L206 291L138 291L138 254L74 221L74 607L138 575L206 575L206 666L53 666L53 688L206 688L206 767L163 758L130 752L95 746L59 742L56 751L122 780L270 838L345 871L349 861L395 821L396 804L375 813L342 803L287 787L260 780L271 778L287 768L271 758L271 688L305 688L359 741L423 688L423 666L271 666L271 575L338 575L371 602L430 554L403 532L403 270L338 238L338 291L271 291L271 158L295 158L339 206L393 158L393 137L271 137L271 39L347 53L388 60L431 66L434 57L354 25L241-12L132-43L86-55L78-74L64-60ZM206 425L138 425L138 313L206 313L206 425ZM338 425L271 425L271 313L338 313L338 425ZM206 554L138 554L138 447L206 447L206 554ZM338 554L271 554L271 447L338 447L338 554ZM871 685L867 699L861 712L849 738L834 764L816 791L806 803L811 810L825 802L840 793L854 784L881 763L893 752L904 739L925 712L934 698L935 673L917 655L893 655L875 672L871 685Z"/></svg>