<svg id="U2B94D" viewBox="0 0 1024 1024"><path transform="translate(0, 921.6) scale(1,-1)" d="M340 509L404 476L538 476L538 777L322 777L322 799L849 799L903 853L967 799L967 777L755 777L755 476L866 476L920 530L984 476L984 455L404 455L404 240L402 203L397 166L391 131L382 97L371 64L358 33L343 3L325-25L306-51L284-75L275-69L300-11L310 18L320 47L327 77L333 108L337 140L340 172L341 205L340 240L340 509ZM165-22L142-28L120-17L113 7L117 36L118 65L116 92L113 120L107 148L98 175L86 203L72 230L56 258L37 287L44 294L72 271L96 247L103 238L139 296L184 375L318 640L327 636L286 511L244 403L206 311L170 235L153 203L140 181L149 163L161 133L170 101L175 68L178 34L177 0L165-22ZM690 777L603 777L603 476L690 476L690 777ZM880 724L934 688L943 670L922 670L879 607L833 548L800 509L781 490L773 495L794 543L858 676L875 714L880 724ZM435 566L433 580L430 595L425 610L418 625L410 642L401 659L376 694L360 711L367 719L406 692L423 678L439 664L453 648L466 632L477 616L486 598L494 580L499 561L493 538L471 525L447 532L435 553L435 566ZM175 642L169 655L162 669L154 683L134 709L109 735L95 748L78 760L82 769L102 761L121 755L139 746L157 737L173 726L188 714L202 701L215 687L228 671L238 655L239 631L223 612L199 612L180 628L175 642Z"/></svg>