<svg id="U2BA86" viewBox="0 0 1024 1024"><path transform="translate(0, 921.6) scale(1,-1)" d="M774-49L763-54L751-59L740-62L728-66L716-68L693-72L680-73L668-73L668-40L561-24L561-8L678-8L686-8L695-6L704-5L721-1L730 2L746 9L754 13L763 19L771 26L779 36L786 49L793 65L800 83L805 105L809 129L813 156L814 174L581 174L560 127L488 124L569 308L348 308L348 329L889 329L933 377L987 329L987 308L640 308L590 195L815 195L847 222L906 174L879 158L877 157L876 150L873 120L868 91L861 65L853 41L844 19L832 0L818-17L802-32L785-44L774-49ZM65 747L129 714L263 714L295 741L354 693L328 671L328 185L263 153L263 217L129 217L129 153L65 120L65 747ZM263 693L129 693L129 239L263 239L263 693ZM483 417L483 401L418 369L418 782L483 749L628 749L628 872L692 861L708 850L692 841L692 749L836 749L868 776L928 728L901 706L901 406L836 374L836 417L483 417ZM628 577L483 577L483 439L628 439L628 577ZM836 577L692 577L692 439L836 439L836 577ZM628 728L483 728L483 598L628 598L628 728ZM836 728L692 728L692 598L836 598L836 728Z"/></svg>