<svg id="U2BA42" viewBox="0 0 1024 1024"><path transform="translate(0, 921.6) scale(1,-1)" d="M876-17L823 38L775 101L735 166L713 134L649 65L578 5L500-44L415-82L411-73L489-26L560 28L624 89L680 159L714 211L696 249L666 334L640 427L621 527L608 635L603 745L519 745L519 767L882 767L915 793L974 745L947 729L942 727L925 626L897 509L862 401L820 303L771 216L781 198L823 135L870 81L921 34L975-4L996-18L937-64L876-17ZM80 360L144 327L411 327L444 354L503 306L476 284L476 0L411-32L411 0L144 0L144-38L80-70L80 360ZM411 158L144 158L144 22L411 22L411 158ZM411 306L144 306L144 179L411 179L411 306ZM880 745L613 745L631 638L652 533L678 437L708 349L742 269L745 264L774 324L811 419L842 524L865 638L880 745ZM127 653L191 620L365 620L397 647L456 599L429 577L429 424L365 392L365 446L191 446L191 408L127 376L127 653ZM365 599L191 599L191 467L365 467L365 599ZM39 709L39 730L246 730L246 863L310 853L327 842L310 832L310 730L399 730L452 784L517 730L517 709L39 709Z"/></svg>