<svg id="U2B7D2" viewBox="0 0 1000 1000"><path transform="translate(0, 900) scale(1,-1)" d="M626 840L626 762L370 762L370 840L297 840L297 762L54 762L54 699L297 699L297 627L370 627L370 699L626 699L626 627L699 627L699 699L946 699L946 762L699 762L699 840ZM460 493L460 378L270 378L270 493ZM533 493L729 493L729 378L533 378ZM201 628L201 554L55 554L55 493L201 493L201 316L801 316L801 493L946 493L946 554L801 554L801 628L729 628L729 554L533 554L533 639L460 639L460 554L270 554L270 628ZM460 301L460 227L53 227L53 165L397 165C304 94 158 32 32 3C48-12 68-40 79-58C210-21 362 52 460 139L460-80L534-80L534 141C631 51 784-21 925-54C935-35 956-6 973 9C834 35 685 93 594 165L950 165L950 227L534 227L534 301Z"/></svg>