<svg id="U2B7CC" viewBox="0 0 1024 1024"><path transform="translate(0, 921.6) scale(1,-1)" d="M910 213L892 226L850 251L802 275L697 321L697-40L633-73L633 584L697 573L714 562L697 553L697 334L723 332L756 327L786 320L816 313L844 305L896 287L920 276L964 253L977 232L972 209L951 195L927 200L910 213ZM313 219L306 230L288 252L277 263L249 286L215 310L196 323L192 325L165 293L134 260L99 230L62 201L56 208L111 280L161 351L204 425L222 462L238 501L253 540L265 580L268 588L327 560L339 545L318 540L291 477L278 454L473 454L505 481L564 432L537 416L530 413L515 361L487 291L453 227L414 168L368 115L316 67L259 25L196-11L128-41L54-65L51-56L120-23L182 13L239 53L289 97L334 145L373 197L407 253L435 314L457 380L470 432L267 432L248 400L222 363L202 337L225 332L246 325L266 318L285 310L303 302L320 292L335 282L363 260L370 237L358 215L335 208L313 219ZM630 869L695 858L711 847L695 838L695 745L861 745L915 799L980 745L980 724L695 724L695 626L630 594L630 724L394 724L394 626L329 594L329 724L44 724L44 745L329 745L329 869L394 858L410 847L394 838L394 745L630 745L630 869Z"/></svg>