<svg id="U2B4DB" viewBox="0 0 1024 1024"><path transform="translate(0, 921.6) scale(1,-1)" d="M884-49L838-23L797 12L762 54L732 103L709 158L690 219L677 288L674 315L671 294L654 221L630 155L599 98L562 48L518 6L468-28L413-53L351-69L350-63L408-40L459-11L503 24L541 65L573 113L599 168L620 231L633 300L642 376L644 460L644 718L361 718L361 740L644 740L644 858L687 847L697 837L687 828L687 740L871 740L915 788L969 740L969 718L687 718L687 460L684 408L692 366L708 294L728 231L731 223L731 540L785 513L787 517L788 530L795 567L796 578L799 589L800 598L711 598L711 619L860 619L904 668L958 619L958 598L864 598L844 569L823 541L807 521L799 513L872 513L904 540L964 492L937 470L937 196L872 164L872 228L785 228L785 164L762 153L776 127L806 88L838 55L873 31L910 12L952 1L999-11L936-69L884-49ZM304 664L300 677L294 690L287 703L278 717L269 731L234 774L229 778L205 712L187 670L147 589L135 568L243 568L287 616L341 568L341 546L249 546L249 396L264 396L308 444L362 396L362 374L249 374L249 71L322 91L353 99L357 90L330 73L302 56L246 28L189 2L104-32L97-34L90-55L75-42L47 17L57 20L144 41L185 53L185 374L68 374L68 396L185 396L185 546L134 546L134 565L101 512L75 476L47 442L39 447L93 566L126 647L141 688L167 773L178 817L188 861L191 870L251 845L264 831L245 825L237 800L233 790L261 777L278 767L294 756L323 733L347 706L358 691L367 676L367 652L350 634L325 634L308 651L304 664ZM108 141L108 158L107 174L105 190L99 222L94 238L83 271L75 287L82 292L109 266L121 252L131 237L141 221L149 204L157 186L163 168L168 149L172 129L164 106L142 95L118 103L108 125L108 141ZM296 312L355 285L368 270L346 264L333 237L316 204L297 173L287 157L265 125L256 129L261 147L269 184L273 202L281 237L284 254L288 270L293 303L296 312ZM568 668L622 619L622 598L528 598L508 569L487 541L471 521L463 513L542 513L568 540L622 492L595 476L595 196L542 169L542 228L454 228L454 164L389 132L389 546L450 515L451 517L452 530L459 567L460 578L463 589L464 598L379 598L379 619L524 619L568 668ZM872 375L785 375L785 250L872 250L872 375ZM542 375L454 375L454 250L542 250L542 375ZM872 492L785 492L785 396L872 396L872 492ZM542 492L454 492L454 396L542 396L542 492Z"/></svg>