<svg id="U2B6E6" viewBox="0 0 1024 1024"><path transform="translate(0, 921.6) scale(1,-1)" d="M386-26L377-36L357-52L346-59L335-65L323-69L311-73L299-75L286-77L273-77L273-45L187-29L187-13L273-13L281-12L295-10L302-8L309-5L321 2L327 6L338 17L342 22L347 31L352 44L358 60L368 102L372 127L377 155L381 187L383 208L185 208L173 163L102 149L154 337L56 337L56 358L373 358L417 406L471 358L471 337L221 337L191 229L385 229L417 256L476 208L449 191L446 190L445 180L436 116L425 63L420 41L413 21L405 3L396-12L386-26ZM879 464L873 452L865 441L857 431L846 423L835 416L823 410L810 406L796 404L783 404L783 436L718 452L718 468L783 468L790 469L796 470L801 471L805 473L811 477L815 481L817 485L820 491L823 497L825 506L828 519L830 535L832 554L834 577L836 631L837 663L838 698L838 725L614 725L614 351L901 351L933 377L992 329L965 313L966 287L965 237L964 192L962 152L959 115L956 83L951 55L945 30L937 9L928-9L920-19L910-29L901-38L890-46L879-52L867-58L856-62L843-65L830-66L816-67L816-34L709-18L709-2L824-2L831-1L838 1L850 5L855 8L860 12L865 17L870 22L874 28L878 35L883 48L888 67L892 92L895 121L898 155L900 195L901 238L901 286L901 329L614 329L571 286L517 340L549 372L549 778L614 746L677 746L680 752L691 793L694 806L698 819L706 855L707 860L706 861L708 865L708 866L711 873L768 841L779 825L755 822L738 799L711 767L702 756L692 746L838 746L870 773L929 725L902 709L902 697L902 662L901 629L900 599L898 573L896 548L894 527L891 508L888 491L884 477L879 464ZM782 223L846 169L846 147L500 147L500 169L728 169L782 223ZM452 439L431 462L392 509L375 534L345 588L332 616L321 645L312 675L306 702L261 702L232 635L207 588L179 545L148 505L114 468L77 436L36 408L30 416L63 451L92 488L120 526L145 567L167 610L187 655L204 702L56 702L56 724L210 724L218 754L230 807L239 859L238 859L241 874L303 853L317 840L298 832L290 794L274 738L269 724L389 724L443 777L507 724L507 702L320 702L366 634L401 589L438 547L478 510L499 492L510 483L452 439ZM331 535L385 487L385 466L150 466L150 487L287 487L331 535ZM731 556L727 568L723 580L717 592L709 604L701 617L690 629L666 655L650 667L654 675L673 667L691 660L708 652L724 643L739 632L752 621L765 609L776 595L786 581L794 566L792 541L774 525L749 526L733 545L731 556Z"/></svg>