<svg id="U2B3F" viewBox="0 0 854 1000"><path transform="translate(0, 900) scale(1,-1)" d="M719 418L719 418L803 333L764 296L678 383Q650 411 633.50 420Q617 429 596 429L596 429Q579 429 561 421Q543 413 506 383L506 383Q472 355 447 341Q422 327 396.50 322.50Q371 318 334 318L334 318L189 318Q207 298 225 267.50Q243 237 262 197L262 197L218 197Q138 290 51 334L51 334L51 356Q138 400 218 493L218 493L262 493Q243 453 225 422.50Q207 392 189 372L189 372L338 372Q368 372 388 375.50Q408 379 425.50 389Q443 399 466 418L466 418Q504 450 531.50 466.50Q559 483 596 483L596 483Q629 483 657 468Q685 453 719 418Z"/></svg>