<svg id="U2B288" viewBox="0 0 1024 1024"><path transform="translate(0, 921.6) scale(1,-1)" d="M670 745L735 734L751 724L735 714L735 514L756 514L790 552L833 514L833 492L735 492L735 261L748 261L792 310L846 261L846 240L735 240L735-45L670-77L670 240L563 240L563 261L670 261L670 492L576 492L576 514L670 514L670 745ZM166-20L166-4L252-4L258-4L263-3L266-2L268-1L270 0L270 1L271 3L272 6L273 11L273 17L273 194L99 194L99 215L388 215L442 269L507 215L507 194L338 194L338 17L337 4L335-10L330-23L324-35L315-46L304-54L292-61L279-66L266-68L252-69L252-37L166-20ZM926-45L901-10L883 37L871 97L861 174L853 266L850 374L848 498L849 638L853 783L563 783L563 804L853 804L885 831L944 783L917 767L917 766L914 637L913 498L914 375L918 269L925 180L934 108L946 54L947 49L968 138L979 138L968 3L990-6L1000-29L990-52L968-61L926-45ZM178 144L230 106L238 89L217 88L189 56L174 41L142 13L124-1L106-13L66-36L60-28L75-12L115 39L148 89L158 105L174 138L178 144ZM473-15L467 1L452 32L443 46L434 61L411 89L385 117L370 129L375 137L412 121L430 112L447 102L463 90L479 77L493 63L507 48L520 31L531 14L532-10L517-29L492-31L473-15ZM478 289L449 319L422 352L397 388L376 427L357 469L340 513L326 560L324 568L311 560L301 556L265 471L242 424L217 380L191 340L163 303L134 271L104 243L72 219L39 201L34 209L59 235L83 263L107 294L130 327L151 362L137 378L136 396L132 413L128 431L118 457L117 458L99 433L81 413L61 395L53 401L85 473L106 525L124 583L141 647L149 681L151 690L182 677L182 747L39 747L39 769L182 769L182 873L246 862L263 852L246 842L246 769L347 769L347 873L412 862L428 852L412 842L412 769L436 769L489 823L554 769L554 747L412 747L412 669L347 637L347 747L246 747L246 669L219 655L224 650L205 644L188 598L247 598L279 625L319 592L315 610L308 663L317 665L337 616L344 598L457 598L489 625L548 576L521 560L507 554L487 521L466 491L441 459L427 443L426 442L443 419L468 390L494 363L522 340L568 307L510 262L478 289ZM356 388L409 340L409 318L205 318L205 340L312 340L356 388ZM178 454L178 460L176 475L174 482L171 490L168 497L159 514L154 521L132 481L123 467L125 466L136 461L154 450L163 443L178 427L181 423L190 441L178 454ZM454 576L354 576L376 528L397 489L416 457L445 541L450 556L453 571L454 576ZM241 576L180 576L161 535L160 532L170 529L181 525L191 520L200 515L209 509L216 503L231 544L241 576Z"/></svg>