<svg id="U2B972" viewBox="0 0 1024 1024"><path transform="translate(0, 921.6) scale(1,-1)" d="M827-37L806-49L794-55L772-63L760-67L747-69L736-70L723-72L711-72L711-40L603-24L603-8L720-8L737-5L745-4L753-2L761 1L776 8L792 17L798 23L806 34L815 51L823 73L830 101L837 134L842 171L846 215L849 262L850 304L483 304L460 241L432 182L400 129L361 82L319 40L272 5L220-24L164-46L103-61L39-69L38-60L98-41L153-19L203 8L248 39L288 74L323 114L354 159L381 208L403 263L415 304L93 304L93 325L851 325L883 352L942 304L915 288L914 287L913 260L910 210L906 164L900 123L893 87L885 54L874 25L861 1L846-20L827-37ZM523 408L521 419L516 432L510 446L493 475L469 507L455 524L438 540L444 548L485 525L520 500L549 473L571 444L580 428L587 412L584 388L564 373L540 376L525 396L523 408ZM858 398L811 422L768 449L728 478L692 510L660 544L631 581L607 619L588 661L577 695L496 695L469 641L430 583L386 531L335 485L279 446L217 414L150 390L78 373L75 382L143 409L204 440L260 476L309 516L352 561L389 611L422 667L434 695L82 695L82 717L443 717L448 727L469 793L484 862L486 876L548 854L561 840L542 833L528 777L505 717L840 717L894 770L958 717L958 695L592 695L608 671L634 637L662 605L692 575L725 548L760 523L799 499L840 478L885 460L971 429L908 376L858 398Z"/></svg>