<svg id="U2BDF2" viewBox="0 0 1024 1024"><path transform="translate(0, 921.6) scale(1,-1)" d="M125 783L189 750L501 750L501 874L566 863L582 853L566 843L566 750L856 750L910 804L974 750L974 729L189 729L189 390L186 327L180 268L172 211L160 158L145 109L128 63L107 20L84-18L56-52L26-80L19-74L40-39L58-3L75 35L89 77L101 121L111 169L118 219L123 273L125 330L125 783ZM858-62L802-45L752-22L708 5L670 38L639 76L615 118L597 165L594 184L592 176L568 122L537 74L499 32L452-3L399-31L338-53L271-67L198-75L196-66L267-47L329-25L383 1L429 31L467 65L497 103L520 146L536 192L546 244L549 302L549 314L613 301L629 289L611 279L606 235L606 233L609 220L627 176L649 137L664 118L784 225L813 254L822 264L827 269L870 220L872 201L851 207L835 196L757 148L713 126L671 108L704 75L738 51L778 31L822 16L873 4L928-4L983-10L920-74L858-62ZM301 66L282 81L280 105L295 125L310 131L323 139L336 148L349 158L359 170L370 184L380 200L389 218L397 237L404 259L414 258L413 234L412 211L409 190L403 169L395 148L386 130L374 112L360 96L344 81L325 68L301 66ZM760 531L809 490L816 471L794 473L777 455L739 423L696 395L646 371L592 349L532 332L467 317L396 305L319 297L237 292L236 302L316 317L391 333L458 351L520 370L576 392L625 416L667 441L704 469L733 498L756 526L760 531ZM385 628L439 594L450 577L428 575L400 539L366 503L325 467L303 448L251 414L245 421L317 511L345 551L357 570L375 605L381 622L385 628ZM429 463L429 479L536 479L543 480L547 480L551 481L552 482L553 483L554 484L556 486L556 489L557 494L558 501L558 705L622 695L638 684L622 674L622 501L621 487L619 473L615 460L608 448L599 438L588 428L576 422L563 418L550 415L536 414L536 447L429 463ZM865 491L857 505L847 519L822 548L808 563L754 611L733 627L737 635L787 616L809 605L830 594L850 581L885 555L900 541L914 526L926 510L930 486L916 466L891 463L871 477L865 491Z"/></svg>