<svg id="U2BCE2" viewBox="0 0 1024 1024"><path transform="translate(0, 921.6) scale(1,-1)" d="M199 262L264 230L760 230L793 257L852 209L825 187L825-40L760-73L760-30L264-30L264-46L199-78L199 262ZM760 209L264 209L264-8L760-8L760 209ZM860 266L816 283L734 320L661 362L628 386L597 411L569 438L547 463L544 463L544 283L480 251L480 420L447 394L409 368L370 343L327 320L281 299L233 280L182 263L129 249L72 237L70 246L172 290L263 336L304 360L343 385L378 412L410 439L437 463L71 463L71 485L480 485L480 668L544 657L560 647L544 637L544 485L835 485L888 539L953 485L953 463L569 463L649 419L683 402L719 385L796 356L880 331L968 308L906 251L860 266ZM732 668L782 627L789 609L767 610L727 569L680 528L663 514L628 489L621 496L633 513L645 532L700 616L727 660L732 668ZM331 514L327 527L315 555L308 570L289 599L254 647L239 662L245 670L282 648L300 637L316 624L345 598L358 584L370 570L380 555L390 539L390 514L373 497L349 497L331 514ZM66 541L46 555L43 580L57 599L68 605L78 612L88 622L98 635L107 650L114 669L121 690L128 714L133 741L136 771L146 771L150 741L151 722L480 722L480 871L544 860L560 849L544 840L544 722L888 722L891 724L893 728L895 727L921 749L980 700L953 684L930 675L894 638L850 598L833 584L816 569L809 575L822 594L852 647L876 692L880 700L153 700L153 685L151 661L147 637L141 614L132 594L121 575L107 559L91 544L66 541Z"/></svg>