<svg id="U2BEE6" viewBox="0 0 1024 1024"><path transform="translate(0, 921.6) scale(1,-1)" d="M706 847L690 838L696 634L704 559L866 570L916 628L984 578L986 557L706 538L715 453L743 310L765 237L797 292L831 361L859 430L864 442L922 411L932 396L913 392L887 334L847 263L805 198L788 177L815 120L852 66L887 32L917 13L924 11L953 138L964 138L953 3L975-6L985-29L975-52L953-61L925-58L889-45L847-19L803 24L759 88L742 123L708 87L653 41L595 1L534-32L468-58L400-76L397-67L461-39L520-6L575 30L627 72L675 119L719 171L680 294L651 444L642 534L523 525L522 546L640 554L632 630L625 853L625 871L689 858L706 847ZM367-20L359-31L350-40L340-48L329-56L317-62L305-66L292-69L279-71L266-72L266-40L180-24L180-8L266-8L273-7L280-6L292-3L296 0L301 3L306 7L310 11L314 17L328 44L339 69L359 136L368 176L378 222L395 328L408 439L197 439L179 369L108 354L204 724L44 724L44 745L453 745L507 799L571 745L571 724L271 724L202 460L410 460L442 487L501 439L474 423L472 421L467 380L450 262L441 210L431 163L421 120L410 81L399 47L387 17L374-9L367-20ZM857 694L850 709L832 737L822 750L810 764L768 806L751 819L756 828L796 812L815 803L833 792L851 781L867 769L881 756L895 741L908 726L920 710L922 686L907 667L882 664L863 680L857 694Z"/></svg>