<svg id="U2B59E" viewBox="0 0 1024 1024"><path transform="translate(0, 921.6) scale(1,-1)" d="M689 115L735 69L739 50L719 54L673 18L649 3L624-12L568-41L538-54L507-66L473-76L469-67L575 8L619 43L657 78L687 113L689 115ZM112 777L175 746L323 797L403 828L428 839L431 829L479 788L480 771L458 781L422 770L366 755L337 749L307 743L276 738L244 733L212 728L179 726L177 726L177 509L387 509L441 562L506 509L506 487L363 487L363 274L381 264L407 248L430 231L451 213L471 195L487 175L492 151L479 130L454 125L434 139L423 156L410 174L376 209L363 220L363-45L298-77L298 268L215 319L218 328L256 318L291 307L298 304L298 487L177 487L177 412L174 348L169 288L162 231L152 177L141 127L127 81L110 39L92 0L70-34L45-64L37-58L52-24L65 12L77 51L88 92L96 138L103 185L108 237L111 292L113 351L112 412L112 777ZM918-39L909-23L888 8L876 23L850 51L802 92L784 104L788 113L831 99L852 91L872 81L890 70L908 58L925 44L942 30L957 14L972-3L976-27L964-47L939-52L918-39ZM921 853L986 799L986 777L803 777L793 760L772 729L739 686L714 660L701 648L865 648L897 675L956 627L929 605L929 165L865 132L865 165L654 165L654 148L589 116L589 681L654 648L684 648L688 656L721 737L732 769L735 777L542 777L542 799L867 799L921 853ZM865 320L654 320L654 186L865 186L865 320ZM865 471L654 471L654 342L865 342L865 471ZM865 627L654 627L654 492L865 492L865 627Z"/></svg>