<svg id="U2B95A" viewBox="0 0 1024 1024"><path transform="translate(0, 921.6) scale(1,-1)" d="M892-15L863 5L836 26L809 49L785 74L761 100L718 157L700 189L699 190L699-45L635-77L635 156L623 142L592 110L558 79L521 51L481 23L438-2L392-26L344-47L292-66L288-56L378-1L419 27L457 56L492 85L524 116L553 147L579 179L601 212L605 218L360 218L360 240L545 240L531 255L525 282L522 296L517 309L507 335L495 362L493 365L472 345L429 310L381 277L328 247L323 255L368 293L410 332L447 370L480 409L508 449L513 457L495 472L492 483L488 495L483 506L471 529L454 553L434 577L430 581L414 542L399 512L382 484L365 459L345 435L323 414L316 420L340 473L362 529L372 559L380 590L388 622L394 656L400 692L404 723L406 739L468 719L482 706L464 698L460 681L457 670L487 670L487 869L552 858L568 847L552 838L552 767L625 767L659 804L702 767L702 745L552 745L552 670L581 670L614 697L673 648L646 632L641 630L636 605L620 556L600 510L575 466L545 423L511 383L508 379L524 366L536 355L557 331L567 319L576 305L592 276L590 252L576 240L635 240L635 431L624 428L568 418L566 427L618 447L666 470L709 495L747 524L782 555L806 583L774 615L704 674L709 683L739 672L767 659L795 643L822 626L832 618L839 628L861 670L880 716L889 745L725 745L725 767L894 767L926 793L985 745L958 729L948 725L937 694L913 644L883 598L873 585L896 563L940 513L961 487L966 462L952 442L928 437L908 451L874 503L839 547L813 521L772 491L727 464L677 444L675 443L699 439L715 428L699 418L699 240L721 240L817 405L822 413L873 373L880 355L859 356L802 294L771 262L745 240L837 240L890 294L955 240L955 218L721 218L717 216L714 218L701 218L767 154L793 132L844 92L871 74L925 43L982 15L921-33L892-15ZM156-22L132-28L111-17L103 6L107 36L108 65L107 93L103 121L98 148L89 176L79 203L77 207L75 209L76 210L51 258L34 287L41 293L67 271L90 246L95 239L129 296L171 374L299 640L308 636L269 511L212 356L177 271L145 203L133 181L141 163L152 133L160 101L166 68L168 34L168 0L156-22ZM580 648L452 648L440 608L434 592L442 588L458 582L472 574L487 566L512 547L524 536L535 525L543 515L551 532L565 575L575 618L580 648ZM162 642L157 656L150 670L143 683L124 709L113 723L88 748L73 760L77 769L114 754L131 746L148 736L163 725L178 713L191 700L203 687L215 671L225 655L226 631L209 612L185 612L166 628L162 642Z"/></svg>