<svg id="U2BB14" viewBox="0 0 1024 1024"><path transform="translate(0, 921.6) scale(1,-1)" d="M168 234L232 202L792 202L824 228L883 180L856 159L856-35L792-68L792-14L232-14L232-52L168-84L168 234ZM792 180L232 180L232 8L792 8L792 180ZM98 659L162 626L386 626L418 653L477 605L450 583L450 453L387 421L392 420L408 410L392 400L392 335L627 335L627 431L691 420L707 410L691 400L691 335L877 335L921 384L974 335L974 314L691 314L691 243L627 211L627 314L392 314L392 243L327 211L327 314L44 314L44 335L327 335L327 431L386 421L386 474L162 474L162 437L98 404L98 659ZM576 659L640 626L864 626L896 653L956 605L929 583L929 453L864 420L864 474L640 474L576 442L576 659ZM864 605L640 605L640 496L864 496L864 605ZM386 605L162 605L162 496L386 496L386 605ZM551 670L551 691L722 691L722 777L521 777L521 799L722 799L722 871L786 860L802 849L786 840L786 799L868 799L922 853L987 799L987 777L786 777L786 691L859 691L903 740L957 691L957 670L551 670ZM72 670L72 691L243 691L243 777L42 777L42 799L243 799L243 871L308 860L324 849L308 840L308 799L390 799L444 853L508 799L508 777L308 777L308 691L380 691L424 740L478 691L478 670L72 670Z"/></svg>