<svg id="U2BB72" viewBox="0 0 1024 1024"><path transform="translate(0, 921.6) scale(1,-1)" d="M396 509L461 476L574 476L574 777L387 777L387 799L840 799L894 853L958 799L958 777L771 777L771 476L857 476L910 530L975 476L975 455L461 455L461 240L458 202L451 165L442 128L429 94L413 61L394 30L372 1L347-27L318-53L287-75L280-68L304-38L343 20L359 50L372 80L382 111L389 142L394 174L396 206L396 509ZM42 123L129 154L174 172L174 552L59 552L59 573L174 573L174 847L239 837L255 826L239 816L239 573L265 573L309 621L363 573L363 552L239 552L239 199L325 234L365 249L370 241L302 194L208 137L125 91L96 77L92 56L76 67L42 123ZM707 777L639 777L639 476L707 476L707 777ZM876 723L931 689L942 673L921 671L883 609L841 548L793 490L785 495L812 565L849 653L865 696L873 717L876 723ZM481 567L480 581L477 596L473 611L467 627L461 642L444 676L434 694L421 711L428 718L462 691L477 677L504 647L515 631L525 614L533 597L540 580L545 561L538 538L517 525L494 532L481 553L481 567Z"/></svg>