<svg id="U2B17D" viewBox="0 0 1024 1024"><path transform="translate(0, 921.6) scale(1,-1)" d="M899 230L869 263L849 288L849-34L785-66L785-12L604-12L604-50L540-82L540 300L515 269L466 222L412 182L406 189L452 237L492 287L529 342L540 362L540 363L561 402L584 454L416 454L416 475L592 475L613 534L627 591L478 591L478 612L632 612L646 688L651 728L455 728L455 749L653 749L656 772L662 856L661 856L663 874L727 858L742 846L724 837L717 765L715 749L816 749L870 803L934 749L934 728L711 728L703 678L688 612L793 612L846 666L911 612L911 591L746 591L778 511L795 475L855 475L909 529L973 475L973 454L806 454L817 433L839 398L863 366L888 334L916 306L945 280L990 244L931 200L899 230ZM341 187L335 202L328 217L320 232L311 247L302 261L266 305L266-40L201-72L201 230L194 209L175 167L154 126L131 89L106 53L78 20L46-10L39-4L61 32L101 106L118 145L133 184L146 225L158 268L167 312L175 358L179 390L48 390L48 412L201 412L201 557L64 557L64 578L201 578L201 690L171 688L131 685L91 685L49 687L48 696L165 723L201 731L201 869L266 858L282 847L266 838L266 750L296 760L324 771L350 782L374 794L379 783L422 745L422 727L402 736L372 725L343 716L311 709L278 702L266 699L266 578L285 578L338 632L403 578L403 557L266 557L266 412L301 412L354 466L419 412L419 390L266 390L266 323L294 309L311 298L328 287L343 274L357 261L371 246L383 231L395 215L405 198L405 173L388 155L364 155L346 172L341 187ZM785 153L604 153L604 9L785 9L785 153ZM785 310L604 310L604 175L785 175L785 310ZM762 454L633 454L597 382L574 347L604 331L785 331L808 351L796 373L777 413L762 454ZM734 591L683 591L660 519L642 475L756 475L749 501L739 547L734 591Z"/></svg>