<svg id="U2BF4B" viewBox="0 0 1024 1024"><path transform="translate(0, 921.6) scale(1,-1)" d="M648 170L642 185L633 201L624 216L601 246L587 261L554 293L551 296L520 267L481 234L440 205L396 177L391 185L428 220L494 291L524 327L551 363L575 400L597 437L616 475L632 513L649 560L707 531L718 515L698 511L688 489L667 448L643 409L641 406L878 406L910 433L969 385L942 369L931 364L906 306L866 233L820 168L768 110L712 60L650 17L582-18L510-46L433-66L351-76L350-67L428-46L500-19L567 13L628 51L682 95L732 145L776 201L816 263L850 332L871 385L626 385L587 335L562 308L586 297L625 274L660 247L675 232L689 216L701 199L712 182L713 158L696 139L671 139L653 156L648 170ZM95-18L95-2L170-2L177-2L181-1L186 1L188 3L190 8L191 13L192 19L192 317L94 266L91 246L74 256L38 310L192 373L192 632L52 632L52 654L192 654L192 863L256 853L272 842L256 832L256 654L280 654L334 707L399 654L399 632L256 632L256 400L327 428L396 454L401 446L339 403L256 353L256 19L255 6L253-8L249-20L242-33L233-44L222-52L210-59L197-63L184-66L170-67L170-34L95-18ZM480 568L480 530L415 498L415 837L480 804L888 804L921 831L980 783L953 761L953 535L888 503L888 568L480 568ZM571 783L480 783L480 589L571 589L571 783ZM732 783L636 783L636 589L732 589L732 783ZM888 783L797 783L797 589L888 589L888 783Z"/></svg>