<svg id="U2BC03" viewBox="0 0 1024 1024"><path transform="translate(0, 921.6) scale(1,-1)" d="M906-21L879-1L854 20L831 45L810 70L790 98L772 127L756 159L749 177L749-45L684-77L684 153L660 118L636 88L610 60L584 34L554 10L524-11L492-29L458-44L453-35L507 12L531 37L554 62L596 118L615 148L632 180L649 213L653 224L462 224L462 245L684 245L684 342L515 342L515 363L684 363L684 460L492 460L492 482L765 482L768 491L772 510L780 544L788 575L791 590L794 605L797 619L798 627L797 627L802 640L860 612L872 596L849 591L822 544L803 515L781 485L779 482L823 482L876 535L941 482L941 460L749 460L749 363L820 363L864 412L917 363L917 342L749 342L749 245L852 245L906 299L971 245L971 224L749 224L749 221L804 149L825 125L847 104L870 84L892 66L916 51L940 37L994 10L933-39L906-21ZM386 66L376 96L353 153L328 204L301 250L280 279L275 240L262 187L245 137L223 90L196 48L166 10L131-24L92-52L48-76L43-68L79-36L110-3L138 32L162 70L182 110L198 153L209 200L218 249L222 302L222 697L50 697L50 718L222 718L222 874L287 863L303 853L287 843L287 718L341 718L395 772L459 718L459 697L287 697L287 385L303 425L312 448L320 473L326 497L331 523L335 549L337 576L338 604L338 633L339 646L403 632L419 620L401 610L400 599L394 568L388 539L379 510L378 508L394 498L406 488L418 476L439 449L449 434L458 417L466 399L464 375L445 359L421 361L405 380L402 396L398 412L389 440L379 467L369 484L357 457L344 433L328 410L311 390L291 371L287 375L287 358L284 308L307 291L328 272L347 252L366 228L384 204L401 178L432 120L446 89L445 65L428 47L403 48L386 66ZM175 339L158 356L144 411L142 423L138 436L126 401L111 366L93 332L73 300L50 270L41 275L55 310L78 378L87 413L94 447L100 482L103 517L104 553L104 589L102 620L101 638L166 628L183 619L166 607L165 589L162 549L157 511L149 473L147 467L151 465L159 459L176 441L193 420L209 395L218 380L217 355L200 338L175 339ZM616 522L614 535L613 549L611 562L606 588L602 600L595 625L588 636L596 642L606 633L616 624L627 614L636 603L653 578L660 565L667 551L674 535L680 520L674 496L654 482L630 488L616 508L616 522ZM462 648L462 670L636 670L636 869L695 858L710 847L695 838L695 670L737 670L737 869L796 858L811 847L796 838L796 670L824 670L828 683L832 704L838 724L857 798L864 832L866 842L865 842L867 847L870 855L928 827L940 812L919 807L905 780L887 747L854 694L842 676L837 670L873 670L917 718L971 670L971 648L462 648ZM548 706L547 720L543 748L537 776L530 804L521 833L514 846L522 852L532 840L554 818L565 806L582 780L598 750L611 720L607 696L587 681L563 686L548 706Z"/></svg>