<svg id="U2B8F5" viewBox="0 0 1024 1024"><path transform="translate(0, 921.6) scale(1,-1)" d="M157 869L218 847L232 833L214 827L191 728L143 561L138 544L158 541L173 530L158 521L158-46L99-76L99 431L68 355L45 308L36 312L99 573L123 684L145 799L157 869ZM693 94L738 47L742 28L721 33L701 17L662-11L641-24L597-46L574-55L551-63L526-71L522-62L599-3L648 43L663 59L687 87L687 88L693 94ZM908-36L899-23L890-11L868 13L841 36L809 58L791 67L794 76L835 69L854 63L873 56L892 48L909 38L940 15L955 1L968-13L973-38L959-58L936-63L915-49L908-36ZM456 18L452 55L444 94L440 115L416 204L416 206L387 141L354 84L316 33L273-12L225-48L219-41L258 3L293 50L324 102L350 158L372 219L390 286L404 358L413 435L418 518L418 605L418 815L483 804L499 793L483 784L483 605L479 514L471 428L457 348L438 273L422 226L459 170L470 149L490 109L499 89L513 50L520 31L514 7L494-7L470-2L456 18ZM536 573L590 562L603 552L590 543L590 138L868 138L922 191L987 138L987 116L590 116L590 78L536 52L536 573ZM178 185L186 192L217 216L217 772L276 761L291 750L276 741L276 267L357 340L364 334L339 289L326 268L299 229L271 193L245 161L248 140L229 145L178 185ZM888 574L947 525L920 504L920 206L856 174L856 206L683 206L629 180L629 574L683 547L856 547L888 574ZM856 317L683 317L683 228L856 228L856 317ZM856 421L683 421L683 339L856 339L856 421ZM856 525L683 525L683 443L856 443L856 525ZM343 550L341 569L335 608L325 647L313 687L306 707L298 727L306 733L335 699L359 662L370 643L380 624L388 603L403 562L408 540L402 517L382 504L358 510L345 531L343 550ZM913 675L939 767L950 767L939 675L956 664L966 648L956 632L939 621L656 621L642 622L629 624L617 627L605 633L594 641L585 651L578 663L573 675L571 689L570 702L570 863L634 853L650 842L634 832L634 757L723 788L776 807L846 838L866 848L871 837L914 798L915 781L894 790L868 781L844 774L791 760L763 754L733 748L703 744L671 739L637 737L634 736L634 702L633 696L634 691L635 687L635 685L636 683L637 681L639 680L643 678L648 676L656 675L913 675Z"/></svg>