<svg id="U2BB65" viewBox="0 0 1024 1024"><path transform="translate(0, 921.6) scale(1,-1)" d="M900 42L873 70L849 102L824 136L800 174L778 215L756 260L735 308L715 360L698 412L698-51L633-83L633 361L604 304L575 254L544 206L510 161L474 118L436 77L396 39L353 4L307-27L301-19L339 20L375 60L410 101L443 144L473 188L502 233L529 281L553 330L575 382L587 412L389 412L389 433L633 433L633 643L411 643L411 664L633 664L633 858L698 847L714 837L698 827L698 664L818 664L872 718L937 664L937 643L698 643L698 433L858 433L911 487L976 433L976 412L711 412L763 322L816 238L842 202L868 169L894 140L919 115L944 93L985 63L926 18L900 42ZM67 66L38 124L144 155L204 174L204 552L53 552L53 573L204 573L204 847L268 837L285 826L268 816L268 573L333 573L377 621L430 573L430 552L268 552L268 195L434 250L437 241L352 194L234 136L130 90L89 74L83 54L67 66Z"/></svg>