<svg id="U2B6FC" viewBox="0 0 1024 1024"><path transform="translate(0, 921.6) scale(1,-1)" d="M442 17L431 37L420 57L407 77L377 118L322 182L308 197L288 138L265 89L238 45L206 6L168-27L127-55L82-76L77-68L116-38L149-6L179 29L203 67L224 109L241 155L254 204L263 258L263 265L74 265L74 287L265 287L267 315L268 377L268 474L190 474L190 495L330 495L374 544L428 495L428 474L332 474L332 377L329 311L325 287L391 287L445 340L509 287L509 265L322 265L320 249L311 210L335 197L360 181L406 146L446 109L464 89L480 68L508 26L509 2L493-17L468-18L450-2L442 17ZM732 859L731 860L733 864L736 872L794 842L805 826L781 822L749 777L731 755L721 745L852 745L885 772L944 724L917 707L916 707L916 660L915 628L914 598L913 571L911 547L909 525L907 506L903 490L900 476L895 463L889 451L882 439L873 430L863 420L852 413L839 408L826 404L814 402L800 401L800 433L746 449L746 466L800 466L807 466L813 467L817 468L825 473L828 475L830 478L833 482L836 488L838 495L840 503L843 516L845 532L846 552L848 575L850 600L851 630L852 697L852 724L652 724L652 347L909 347L942 374L1001 326L974 310L974 283L974 234L973 189L971 148L969 111L966 80L961 52L956 27L950 6L940-11L933-23L924-33L915-41L904-49L894-56L882-62L870-66L857-69L844-71L831-72L831-40L723-24L723-8L831-8L838-7L845-6L857-3L863 0L867 3L872 7L877 11L882 17L886 23L889 30L894 44L898 63L901 88L904 117L907 152L909 191L910 234L910 283L909 283L909 326L652 326L609 283L556 337L588 369L588 777L652 745L707 745L709 750L712 765L722 805L727 830L731 853L732 859ZM798 218L863 165L863 143L545 143L545 165L744 165L798 218ZM116 618L112 630L108 642L103 653L92 675L78 695L69 705L59 713L63 721L76 716L89 712L103 706L115 699L128 690L139 681L150 669L160 657L170 644L179 629L179 624L188 654L201 704L213 756L219 795L109 795L109 816L222 816L254 843L313 795L286 778L280 776L272 743L257 689L239 637L220 588L198 540L173 496L148 454L119 416L88 380L54 347L47 354L72 392L117 473L137 514L156 559L169 595L161 587L137 588L119 605L116 618ZM471 462L447 494L425 527L404 563L386 600L368 640L353 682L339 726L329 772L320 820L330 823L384 707L397 739L411 766L418 779L439 816L444 823L443 824L449 830L495 785L500 767L478 771L408 711L396 702L390 695L430 625L436 616L445 636L453 650L469 677L495 718L502 727L507 734L553 689L558 670L535 674L480 627L456 608L445 601L474 561L497 533L521 506L553 475L496 432L471 462ZM754 555L751 567L747 579L742 591L735 603L728 616L708 641L696 654L682 665L687 674L704 666L721 658L737 650L766 630L778 619L790 606L800 592L809 578L817 563L815 538L796 523L772 525L756 544L754 555Z"/></svg>