<svg id="U2B79D" viewBox="0 0 1024 1024"><path transform="translate(0, 921.6) scale(1,-1)" d="M770-13L770 3L877 3L884 4L889 5L894 6L895 8L895 9L896 10L897 13L899 18L899 483L896 482L885 477L871 448L856 423L849 411L840 400L832 389L825 378L816 382L820 394L821 408L822 421L830 489L831 498L766 498L792 492L808 482L790 471L787 410L779 334L773 301L785 290L799 274L813 254L840 208L866 152L890 88L888 63L869 47L844 50L829 69L811 133L794 189L778 235L766 263L750 202L730 146L705 96L677 54L643 18L606-9L566-28L561-19L594 8L622 38L647 74L669 115L687 162L702 216L714 275L722 341L727 414L728 488L727 498L706 498L689 456L677 430L663 403L646 378L638 382L645 418L632 410L632 190L573 160L573 222L525 222L520 175L512 136L502 100L490 68L475 39L458 15L437-5L415-21L391-31L387-24L404-7L420 11L434 32L445 55L454 81L462 111L468 144L472 181L474 221L474 222L422 222L422 158L373 133L373 441L422 430L434 419L422 411L422 244L474 244L473 265L473 498L350 498L350-21L296-48L296 729L350 718L363 707L350 699L350 519L518 519L520 527L526 577L529 594L530 609L532 625L537 664L539 678L600 654L613 640L591 633L567 581L551 552L543 537L533 523L531 519L575 519L609 557L652 519L652 498L527 498L527 265L526 244L573 244L573 441L632 430L646 420L661 496L667 524L675 581L679 610L681 639L683 663L685 680L747 661L763 649L744 640L736 600L720 541L713 519L832 519L864 546L899 518L899 745L520 745L520 767L899 767L931 793L990 745L963 724L963 25L963 11L960-2L956-15L949-27L940-38L930-47L917-54L904-58L891-60L877-61L877-29L770-13ZM165-58L142-66L120-55L111-32L114 6L115 41L113 73L110 102L104 127L101 138L95 139L98 147L88 169L77 187L64 202L48 217L52 226L75 219L98 207L114 192L210 444L267 580L276 577L237 434L180 227L164 163L160 141L158 126L153 127L158 113L167 81L172 45L175 6L175-36L165-58ZM117 484L114 494L103 515L88 536L79 547L56 569L42 577L45 587L62 581L79 576L95 570L109 563L123 555L137 546L149 535L160 524L170 512L179 498L179 474L161 456L137 456L119 474L117 484ZM423 554L422 585L418 607L414 628L409 650L403 660L410 666L418 657L428 650L437 642L446 633L461 613L481 580L486 568L481 544L461 530L437 534L423 554ZM416 728L414 741L411 755L406 768L399 781L391 795L367 821L352 834L335 846L339 855L380 840L398 831L415 820L431 808L445 794L457 778L467 761L475 742L481 723L474 699L453 687L429 693L417 714L416 728ZM173 731L169 741L164 752L159 762L152 773L144 783L125 805L115 816L101 825L106 833L121 827L137 823L152 817L166 810L179 802L192 793L204 783L215 771L225 760L234 747L235 722L218 704L194 703L175 720L173 731Z"/></svg>