<svg id="U2B770" viewBox="0 0 1024 1024"><path transform="translate(0, 921.6) scale(1,-1)" d="M926-11L953 80L964 80L953-11L969-22L980-38L969-54L953-65L560-65L547-65L534-63L522-59L510-53L499-45L490-35L483-24L478-11L475 2L474 16L474 74L200 74L200 10L136-23L136 294L200 262L474 262L474 333L265 333L200 301L200 492L138 464L93 448L46 435L42 444L126 490L200 537L200 544L206 541L235 562L266 588L296 615L323 642L347 671L367 697L372 704L421 661L427 642L406 645L393 631L379 617L571 617L574 620L575 623L577 622L603 644L663 596L636 580L613 570L588 549L563 531L549 522L535 514L530 512L765 512L797 539L856 490L829 469L829 333L765 301L765 333L539 333L539 262L824 262L856 289L915 240L888 219L888 63L824 31L824 74L539 74L539 16L538 9L539 4L539 1L540-4L542-5L544-7L547-9L553-10L560-11L926-11ZM474 162L200 162L200 96L474 96L474 162ZM824 162L539 162L539 96L824 96L824 162ZM474 240L200 240L200 183L474 183L474 240ZM824 240L539 240L539 183L824 183L824 240ZM474 416L265 416L265 354L474 354L474 416ZM765 416L539 416L539 354L765 354L765 416ZM474 490L265 490L265 437L474 437L474 490ZM765 490L539 490L539 437L765 437L765 490ZM563 596L356 596L331 574L297 549L260 525L250 519L265 512L505 512L510 517L530 543L554 580L561 591L563 596ZM65 576L46 591L44 616L59 635L70 640L80 646L89 654L99 664L107 678L115 694L122 712L128 733L134 757L136 783L146 784L149 757L151 741L480 741L480 873L544 862L560 852L544 842L544 741L888 741L891 744L894 749L896 748L921 768L980 720L953 704L926 693L906 674L850 629L832 617L816 604L809 610L822 627L862 690L879 720L152 720L152 707L151 684L146 663L141 643L131 624L120 607L106 591L89 578L65 576Z"/></svg>