<svg id="U2BB23" viewBox="0 0 1024 1024"><path transform="translate(0, 921.6) scale(1,-1)" d="M887 397L946 371L959 357L940 351L925 306L901 244L873 187L842 135L808 87L770 44L730 6L686-27L639-55L590-76L586-67L629-37L668-4L706 31L739 71L771 113L799 161L824 211L847 266L867 325L884 388L887 397ZM327 37L323 55L317 75L309 97L299 120L273 169L231 239L221 190L203 131L181 77L154 29L123-12L86-46L46-73L41-65L72-31L100 6L124 47L144 93L160 144L172 201L181 263L181 266L48 266L48 287L182 287L185 330L186 404L181 495L246 485L263 476L247 465L247 403L243 327L238 287L287 287L341 341L406 287L406 266L235 266L234 256L256 237L280 213L302 189L321 166L353 120L366 97L377 75L386 53L393 31L387 6L367-7L343-2L329 19L327 37ZM592 786L649 738L622 719L622 101L563 71L563 133L494 133L494 68L440 41L440 786L494 759L563 759L592 786ZM563 343L494 343L494 154L563 154L563 343ZM695 283L695 299L749 299L756 299L760 301L765 302L766 303L767 304L768 306L769 309L770 314L770 863L835 853L851 842L835 832L835 320L834 307L832 294L827 281L821 268L812 258L801 249L789 242L776 238L763 235L749 234L749 267L695 283ZM688 653L751 634L765 621L747 613L745 601L729 537L709 476L685 417L671 388L655 361L637 335L629 339L644 399L652 428L665 488L671 518L676 549L680 580L684 611L687 642L688 653ZM317 369L317 376L316 384L314 394L310 404L305 414L292 438L284 452L273 463L280 470L293 460L307 453L331 435L342 427L351 418L360 408L367 398L374 388L380 376L375 353L355 338L331 343L317 363L317 369ZM563 540L494 540L494 364L563 364L563 540ZM922 468L911 511L898 552L882 592L864 632L854 652L861 658L895 626L910 609L924 590L949 551L960 530L971 509L980 486L989 463L985 439L966 424L942 427L926 446L922 468ZM48 845L107 816L160 816L184 842L235 794L208 781L208 530L160 506L160 530L107 530L107 466L48 436L48 845ZM367 842L421 794L394 778L394 519L341 492L341 530L285 530L237 506L237 840L285 816L341 816L367 842ZM341 794L285 794L285 552L341 552L341 794ZM160 794L107 794L107 552L160 552L160 794ZM563 738L494 738L494 562L563 562L563 738Z"/></svg>