<svg id="U2BD8B" viewBox="0 0 1024 1024"><path transform="translate(0, 921.6) scale(1,-1)" d="M225 0L225-38L160-70L160 269L225 259L241 248L225 238L225 22L480 22L480 364L544 353L560 342L544 333L544 22L799 22L799 269L864 259L880 248L864 238L864-22L799-54L799 0L225 0ZM130 406L130 399L130 377L128 356L124 336L120 318L113 301L104 284L94 270L71 262L48 272L40 296L50 318L58 323L65 330L73 339L80 352L87 366L94 384L100 403L106 425L111 450L115 476L124 476L127 449L129 428L172 428L149 813L211 787L280 813L337 839L352 847L375 860L375 861L375 860L380 863L387 850L424 813L425 796L406 804L392 799L373 794L354 789L313 781L289 777L265 774L240 771L216 770L221 686L291 686L335 734L388 686L388 664L223 664L229 557L312 557L345 595L388 557L388 535L231 535L237 428L480 428L480 847L544 837L560 826L544 816L544 428L786 428L792 535L663 535L663 557L793 557L799 664L663 664L663 686L801 686L807 793L652 793L652 815L808 815L840 842L899 793L872 777L866 775L851 428L899 428L931 455L990 406L964 390L946 383L923 354L900 328L873 302L858 289L844 275L836 281L846 298L878 364L884 379L894 406L130 406Z"/></svg>