<svg id="U2B3FA" viewBox="0 0 1024 1024"><path transform="translate(0, 921.6) scale(1,-1)" d="M885-53L844-34L806-10L770 17L750 36L717 10L672-18L624-42L572-61L517-76L515-67L565-42L610-16L653 12L692 42L720 69L708 83L681 122L657 165L637 210L622 255L609 213L585 149L556 92L524 39L487-7L447-47L403-81L397-74L432-33L465 11L494 58L520 110L542 167L561 228L577 294L590 364L591 374L434 374L434 396L594 396L599 441L604 509L511 509L511 530L819 530L873 584L937 530L937 509L668 509L660 434L653 396L888 396L932 444L986 396L986 374L650 374L646 355L630 281L629 277L847 277L879 304L938 256L911 240L900 235L886 206L860 160L830 117L795 77L789 72L804 61L837 40L872 24L908 10L991-11L928-68L885-53ZM211 869L276 858L292 847L276 838L276 724L323 724L377 777L441 724L441 702L276 702L276 600L342 600L374 627L433 578L406 557L406 256L342 224L342 277L276 277L276 154L332 154L386 208L450 154L450 132L276 132L276-45L211-77L211 132L37 132L37 154L211 154L211 277L145 277L145 240L81 208L81 632L145 600L211 600L211 702L46 702L46 724L211 724L211 869ZM840 256L634 256L657 220L684 181L712 145L742 113L752 104L786 148L810 189L831 232L840 256ZM211 433L145 433L145 299L211 299L211 433ZM342 433L276 433L276 299L342 299L342 433ZM211 578L145 578L145 455L211 455L211 578ZM342 578L276 578L276 455L342 455L342 578ZM895 850L897 844L952 798L953 782L930 793L910 788L879 782L813 771L742 760L666 750L625 746L598 744L600 743L581 736L578 723L568 690L557 658L545 627L531 598L515 570L499 544L480 518L460 495L438 474L430 480L468 560L489 616L506 674L512 704L518 735L521 762L524 777L573 761L659 785L834 833L895 850ZM703 603L701 617L697 631L694 645L689 659L683 673L668 700L659 714L648 727L654 735L684 716L699 705L711 693L723 680L735 666L744 651L753 635L761 618L767 601L762 577L742 563L718 568L704 588L703 603ZM906 599L899 614L883 644L873 659L851 690L824 723L808 738L814 746L853 724L872 713L905 687L920 674L946 644L958 628L969 612L970 588L953 569L929 569L910 585L906 599Z"/></svg>