<svg id="U2B5C1" viewBox="0 0 1024 1024"><path transform="translate(0, 921.6) scale(1,-1)" d="M84 831L149 799L275 799L308 826L367 777L340 761L341 640L343 551L399 582L404 575L368 535L344 511L349 390L349 375L415 426L422 419L385 367L352 329L355 287L363 199L373 127L385 72L401 143L412 143L403 22L409 11L430-9L432-34L415-52L391-54L358-30L338 7L323 55L310 117L299 192L292 266L265 240L242 220L242 199L224 206L178 253L251 301L288 328L284 387L281 458L238 426L236 404L219 413L179 464L188 470L227 488L279 515L277 640L276 735L275 734L275 777L149 777L149 466L146 387L142 313L137 245L129 183L120 127L110 76L97 32L82-6L66-39L46-63L38-59L47-30L55 3L63 40L70 84L75 133L80 188L82 249L85 315L85 388L84 466L84 831ZM865-51L799-49L744-43L698-33L660-17L630 2L607 26L590 53L579 83L576 95L574 92L549 42L521-2L508-21L513-45L494-41L439-5L447 3L508 54L534 76L534 353L461 353L461 374L534 374L566 401L625 353L598 331L598 105L592 102L617 70L635 53L656 39L680 28L711 21L751 16L801 15L863 17L996 27L943-48L865-51ZM662 65L620 115L648 129L667 138L664 138L664 831L729 799L844 799L876 826L935 777L908 756L908 444L844 412L844 444L729 444L729 167L792 197L839 217L844 209L806 175L696 89L681 78L679 56L662 65ZM892 125L883 149L873 173L847 220L831 244L795 291L752 340L759 348L788 331L815 312L839 291L842 289L893 401L901 423L906 433L960 397L969 380L946 379L930 359L895 319L868 292L853 278L883 247L902 224L920 199L935 174L949 147L960 120L958 96L939 80L915 82L899 101L892 125ZM844 616L729 616L729 466L844 466L844 616ZM527 504L522 518L513 545L502 569L490 593L477 616L468 625L474 633L485 626L498 620L510 612L522 603L534 594L545 583L566 559L585 532L586 507L570 489L545 488L527 504ZM844 777L729 777L729 638L844 638L844 777ZM553 695L542 734L532 760L521 784L508 809L500 819L506 826L517 818L530 811L554 793L575 771L595 746L613 719L612 694L595 677L570 677L553 695Z"/></svg>