<svg id="U2BB3" viewBox="0 0 783 1000"><path transform="translate(0, 900) scale(1,-1)" d="M184 96L51-22L51 227Q51 267 56.50 294Q62 321 77.50 345Q93 369 123 399L123 399L320 593Q345 617 372.50 630.50Q400 644 433 644L433 644L454 644L454 778L732 507L454 237L454 372L319 372L319-22L184 96ZM483 401L483 307L690 507L483 709L483 614L433 614Q406 614 384.50 604Q363 594 341 573L341 573L167 401L483 401ZM184 135L290 42L290 372L137 372Q112 347 100 327Q88 307 84 284.50Q80 262 80 227L80 227L80 43L184 135Z"/></svg>