<svg id="U2B1DA" viewBox="0 0 1024 1024"><path transform="translate(0, 921.6) scale(1,-1)" d="M209-25L209-10L292-10L297-10L301-9L304-8L306-6L308-3L309 1L309 7L310 14L310 395L211 373L171 365L167 364L166 338L163 274L156 214L148 158L136 106L123 60L107 17L88-21L67-53L43-80L35-74L49-43L62-9L74 28L84 70L92 116L98 165L102 219L104 277L105 340L105 353L65 347L56 328L43 343L25 406L104 413L104 756L168 724L182 724L185 731L190 747L195 762L204 792L211 821L217 849L218 857L217 857L219 862L222 871L281 843L293 828L270 823L258 802L250 788L241 774L209 735L197 724L310 724L339 750L396 702L369 683L369 439L402 441L440 444L441 439L668 439L668 691L599 671L552 661L503 653L452 647L451 656L544 689L631 722L713 759L787 798L822 819L856 841L870 818L896 790L897 771L878 780L853 766L814 747L732 712L732 439L859 439L913 492L978 439L978 417L732 417L732-35L668-67L668 417L423 417L423 428L406 421L369 410L369 14L368 1L366-11L363-24L357-35L350-46L341-54L329-61L317-66L305-68L292-69L292-40L209-25ZM199 337L258 326L273 315L258 306L258 115L199 85L199 337ZM310 702L168 702L168 419L204 423L245 427L285 431L310 433L310 702ZM222 516L221 535L218 554L212 589L208 605L203 620L191 650L182 663L189 670L216 649L229 635L240 621L251 604L260 587L268 567L275 547L281 525L287 502L279 478L258 466L235 473L222 495L222 516Z"/></svg>