<svg id="U2B728" viewBox="0 0 1024 1024"><path transform="translate(0, 921.6) scale(1,-1)" d="M313 444L295 434L294 408L288 363L280 319L273 293L287 285L299 275L311 263L322 251L333 235L343 219L353 202L362 183L371 162L367 138L349 123L324 125L309 144L305 164L296 199L292 215L281 245L270 270L268 274L257 239L241 201L222 166L201 133L176 103L163 89L163 39L243 56L367 81L372 81L372 449L436 439L452 428L436 418L436 3L372-29L372 61L224 6L177-13L161-20L150-26L146-30L120-56L66-2L98 30L98 449L163 439L179 428L163 418L163 121L176 148L190 181L203 216L213 252L221 290L227 329L231 369L233 411L233 449L232 468L297 455L313 444ZM915 30L947 165L958 165L947 30L967 17L980-2L967-22L947-34L613-34L599-33L585-31L572-27L560-20L549-11L540-1L534 12L529 25L527 38L527 52L527 804L591 772L875 772L907 799L966 750L939 729L939 406L875 374L875 439L591 439L591 45L592 40L594 35L596 33L601 32L606 31L613 30L915 30ZM703 750L591 750L591 460L703 460L703 750ZM875 750L768 750L768 460L875 460L875 750ZM60 503L60 524L131 524L131 791L191 781L206 770L191 760L191 524L243 524L243 870L302 860L316 849L302 840L302 711L374 711L408 749L451 711L451 690L302 690L302 524L366 524L420 578L484 524L484 503L60 503Z"/></svg>