<svg id="U2BE84" viewBox="0 0 1024 1024"><path transform="translate(0, 921.6) scale(1,-1)" d="M732 26L765 160L775 160L765 26L784 13L797-6L784-26L765-39L383-39L369-38L356-35L343-31L330-24L320-16L311-5L304 8L300 20L297 34L297 47L297 218L361 208L378 197L361 187L361 41L363 36L364 31L366 29L371 27L376 26L383 26L732 26ZM75-12L57 4L55 28L70 47L86 54L99 62L112 73L124 85L134 100L144 117L152 137L159 159L165 184L168 212L178 212L182 184L184 156L183 131L180 106L173 82L164 60L152 40L138 21L120 4L100-10L75-12ZM896 53L890 69L882 85L872 102L860 118L846 135L814 168L794 185L772 202L777 211L803 201L828 189L851 177L872 163L892 149L925 116L939 98L951 78L961 59L960 34L942 17L917 19L901 37L896 53ZM565 119L557 132L547 145L536 159L510 184L464 221L445 232L449 241L491 230L511 223L530 215L549 205L566 194L582 183L598 170L613 156L626 141L631 117L617 97L594 92L573 105L565 119ZM179 858L243 826L770 826L802 853L861 804L835 783L835 535L770 503L770 546L539 546L539 449L860 449L904 498L958 449L958 428L539 428L539 304L802 304L856 358L921 304L921 283L539 283L474 251L474 428L66 428L66 449L474 449L474 546L243 546L243 530L179 498L179 858ZM474 686L243 686L243 568L474 568L474 686ZM770 686L539 686L539 568L770 568L770 686ZM474 804L243 804L243 707L474 707L474 804ZM770 804L539 804L539 707L770 707L770 804Z"/></svg>