<svg id="U2BCE5" viewBox="0 0 1024 1024"><path transform="translate(0, 921.6) scale(1,-1)" d="M50-40L50-18L227-18L227 181L292 170L308 159L292 149L292-18L480-18L480 256L93 256L93 277L480 277L480 370L285 370L285 354L221 321L221 578L285 546L480 546L480 627L163 627L163 648L778 648L802 681L830 653L863 700L871 713L878 727L152 727L152 715L150 694L146 673L140 654L131 636L120 620L106 605L89 593L65 591L46 607L44 632L60 650L71 654L81 660L90 667L99 677L108 689L115 703L122 720L129 740L134 762L136 787L146 787L149 762L150 748L480 748L480 871L544 861L560 850L544 840L544 748L888 748L892 751L894 757L897 755L921 775L980 727L953 711L923 698L905 683L865 653L835 632L835 627L828 627L816 618L809 625L811 627L544 627L544 546L738 546L771 573L830 524L803 503L803 359L738 327L738 370L544 370L544 277L834 277L878 326L931 277L931 256L544 256L544 143L754 143L808 197L872 143L872 121L544 121L544-18L856-18L910 35L974-18L974-40L50-40ZM738 524L285 524L285 391L738 391L738 524Z"/></svg>