<svg id="U2B375" viewBox="0 0 1024 1024"><path transform="translate(0, 921.6) scale(1,-1)" d="M481-13L379 2L347-47L318-80L310-74L330-35L348 5L364 47L378 93L391 141L401 192L408 247L414 304L417 365L417 417L329 417L329 439L451 439L451 573L362 573L362 595L451 595L451 718L340 718L340 740L451 740L451 847L516 837L532 826L516 816L516 740L531 740L585 793L649 740L649 718L516 718L516 595L543 595L577 632L620 595L620 573L516 573L516 439L544 439L588 487L642 439L642 427L673 527L696 616L716 710L724 760L732 811L738 863L740 874L802 854L817 841L798 833L781 748L768 698L742 611L865 611L909 659L963 611L963 589L902 589L890 496L874 401L853 314L828 234L809 189L826 156L855 112L887 73L921 39L958 10L974-2L916-46L875-10L838 32L806 79L779 128L763 98L723 41L679-6L631-46L578-76L573-68L618-30L658 13L695 62L728 118L756 180L732 248L716 314L704 385L696 460L695 493L666 435L643 399L634 403L638 417L482 417L478 361L471 298L469 288L580 288L613 315L672 267L645 251L643 250L643 240L640 206L637 175L633 146L628 119L623 94L616 71L609 51L601 32L592 15L584 4L575-6L566-15L555-23L544-30L532-35L520-40L508-42L494-44L481-45L481-13ZM152 14L159 23L179 42L179 519L64 519L64 541L179 541L211 568L270 519L243 498L243 103L306 160L363 206L370 199L222 1L228-20L209-18L152 14ZM837 589L735 589L708 519L718 463L735 391L754 324L775 263L780 251L801 327L817 412L830 504L837 589ZM210 699L207 714L202 730L195 746L188 761L180 776L170 791L146 822L132 836L137 844L174 824L192 812L207 799L222 785L235 770L248 754L258 737L267 719L275 699L272 675L252 660L228 663L213 683L210 699ZM543 61L549 74L555 90L560 109L569 155L573 183L576 212L578 244L580 267L466 267L461 239L450 182L435 129L417 80L397 34L389 19L481 19L489 20L496 21L508 24L514 27L518 30L523 34L528 38L533 44L537 50L543 61Z"/></svg>