<svg id="U2BA21" viewBox="0 0 1024 1024"><path transform="translate(0, 921.6) scale(1,-1)" d="M128 828L187 799L867 799L921 853L985 799L985 777L187 777L187 449L184 374L179 303L171 237L160 176L148 120L132 69L114 23L93-17L69-52L42-80L35-74L53-41L70-5L84 35L96 80L107 129L115 183L122 242L126 306L128 376L128 828ZM867 440L888 521L860 499L850 489L842 495L850 507L885 585L540 585L563 582L579 571L563 561L563 504L700 516L749 574L817 526L820 505L563 482L563 458L564 453L564 449L566 446L567 445L569 444L578 441L585 440L867 440ZM625 71L472 71L472-3L625-3L625 71ZM625 170L472 170L472 92L625 92L625 170ZM625 266L472 266L472 192L625 192L625 266ZM306 238L301 191L294 148L285 107L273 69L259 35L242 4L223-24L201-48L177-68L171-62L187-37L201-10L213 18L224 48L233 81L240 117L245 155L249 196L250 240L250 287L250 637L309 607L526 607L526 759L590 748L607 737L590 727L590 693L776 693L820 741L873 693L873 671L590 671L590 607L892 607L895 610L897 614L899 613L924 634L983 585L956 569L930 558L914 544L906 536L896 440L914 428L926 411L914 393L896 381L681 381L725 344L732 326L708 328L689 312L661 292L654 287L838 287L882 335L936 287L936 266L689 266L689 192L792 192L836 240L890 192L890 170L689 170L689 92L792 92L836 141L890 92L890 71L689 71L689-3L856-3L909 51L974-3L974-25L472-25L472-41L407-73L407 225L388 206L365 186L340 166L313 147L307 154L379 254L407 297L407 303L410 303L434 346L444 368L454 390L457 396L512 361L522 345L501 343L483 316L467 294L467 293L472 292L480 287L632 287L632 288L637 298L640 309L645 319L650 330L659 351L668 371L671 377L673 381L585 381L571 382L558 384L545 388L533 394L522 403L513 413L507 425L502 438L499 451L499 464L499 477L326 462L324 483L499 499L499 585L309 585L309 287L306 238Z"/></svg>