<svg id="U2C7D9" viewBox="0 0 1024 1024"><path transform="translate(0, 921.6) scale(1,-1)" d="M83 666L148 633L265 633L297 660L356 612L329 590L329 14L328 0L326-13L322-26L315-39L306-49L295-58L283-65L270-69L257-72L243-72L243-40L157-24L157-8L250-8L254-6L258-5L259-4L260-4L261-3L263-1L264 2L264 7L265 14L265 240L148 240L148 226L145 180L141 138L136 98L128 63L120 31L109 2L96-24L81-45L65-62L46-73L39-66L49-49L57-30L64-9L70 15L75 41L79 72L82 105L84 142L84 182L83 226L83 666ZM472 100L536 68L794 68L826 95L885 46L858 25L858-38L794-70L794-38L536-38L472-70L472 100ZM794 46L536 46L536-17L794-17L794 46ZM794 173L837 135L837 114L493 114L493 135L760 135L794 173ZM794 240L837 203L837 181L493 181L493 203L760 203L794 240ZM905 262L894 270L894 249L436 249L436 270L817 270L849 307L821 335L797 362L776 390L761 415L586 415L577 402L540 362L500 327L456 295L408 268L356 245L352 254L397 285L439 318L477 353L510 390L529 415L358 415L358 437L544 437L566 471L588 514L475 514L475 533L463 525L443 514L399 496L394 504L412 519L458 566L497 613L508 629L525 657L531 665L581 624L588 606L567 608L535 577L518 563L482 537L481 536L596 536L607 562L621 612L631 659L634 674L695 652L709 638L690 631L680 595L660 541L658 536L736 536L790 590L854 536L854 514L737 514L771 467L790 442L795 437L874 437L918 485L972 437L972 415L815 415L834 396L858 375L884 355L911 336L940 319L972 303L998 289L938 241L905 262ZM265 431L148 431L148 262L265 262L265 431ZM740 387L794 338L794 317L536 317L536 338L696 338L740 387ZM724 514L648 514L637 491L609 445L602 437L750 437L743 452L731 484L724 514ZM265 612L148 612L148 452L265 452L265 612ZM876 522L870 534L855 560L846 572L825 597L787 635L771 647L775 655L794 648L813 641L831 634L847 625L864 616L879 605L906 582L919 569L930 556L934 532L920 511L896 508L876 522ZM630 873L695 862L711 851L695 841L695 789L861 789L915 842L980 789L980 767L695 767L695 708L630 676L630 767L394 767L394 708L329 676L329 767L44 767L44 789L329 789L329 873L394 862L410 851L394 841L394 789L630 789L630 873Z"/></svg>