<svg id="U2C049" viewBox="0 0 1024 1024"><path transform="translate(0, 921.6) scale(1,-1)" d="M187 329L252 297L745 297L777 324L836 275L809 254L809-23L745-55L745-2L252-2L252-39L187-72L187 329ZM745 141L252 141L252 20L745 20L745 141ZM745 275L252 275L252 162L745 162L745 275ZM83 868L142 839L418 839L450 866L509 817L482 796L482 697L418 664L418 707L142 707L142 618L140 578L136 541L131 506L124 473L115 442L104 415L92 390L78 368L62 349L44 334L38 340L47 360L55 380L63 403L69 427L74 453L79 481L82 512L84 545L84 581L83 618L83 868ZM866 577L925 529L899 513L883 507L804 337L732 336L826 529L551 529L551 551L834 551L866 577ZM904 603L876 620L849 639L823 661L799 684L776 710L754 737L735 766L718 798L681 744L658 714L633 686L607 659L578 634L548 611L516 589L492 576L494 574L495 557L474 566L471 564L429 552L385 541L337 532L286 524L260 522L260 419L261 414L262 412L263 410L265 408L267 406L271 404L277 403L285 402L447 402L471 471L482 471L471 402L486 392L495 377L486 363L471 353L272 353L259 355L247 359L236 364L225 372L217 382L210 393L206 405L202 418L201 431L201 674L260 663L275 652L260 643L260 542L370 588L428 615L445 624L450 614L483 584L554 659L598 715L618 744L636 773L653 803L668 834L680 861L679 861L685 872L740 839L751 823L730 820L729 818L760 785L808 741L832 721L857 704L882 689L908 675L934 663L996 639L934 587L904 603ZM774 691L828 643L828 621L603 621L603 643L730 643L774 691ZM418 817L142 817L142 729L418 729L418 817Z"/></svg>