<svg id="U2CFBC" viewBox="0 0 1024 1024"><path transform="translate(0, 921.6) scale(1,-1)" d="M305 872L363 842L374 826L354 822L310 724L253 611L222 556L216 546L249 541L265 530L249 520L249-45L185-77L185 494L122 401L85 353L46 307L38 313L127 469L182 577L234 689L280 805L305 872ZM540 589L815 589L820 595L822 594L847 616L861 605L892 697L894 708L406 708L407 695L407 671L406 649L403 629L398 610L392 592L383 576L372 562L349 554L327 565L319 589L330 611L336 614L343 621L351 631L358 643L365 659L371 677L377 698L387 748L389 776L399 777L404 730L617 730L617 874L681 863L697 852L681 842L681 730L898 730L930 756L989 708L963 692L944 684L918 650L885 611L872 597L871 596L907 567L880 551L862 544L836 509L793 460L745 414L705 382L765 353L820 332L880 313L990 285L927 228L860 249L797 273L740 299L687 328L657 348L637 334L575 300L510 269L440 242L418 235L476 206L799 206L831 233L890 185L863 163L863-34L799-66L799-23L476-23L476-39L411-72L411 233L366 219L287 201L284 210L359 239L429 269L495 301L556 335L611 373L618 378L598 394L562 431L531 471L507 513L501 530L475 496L449 467L421 440L391 414L359 390L324 368L318 376L345 405L395 464L438 524L457 554L474 584L489 616L502 648L512 675L511 675L516 688L574 658L585 642L565 639L558 623L540 590L540 589ZM799 185L476 185L476-2L799-2L799 185ZM802 567L527 567L521 557L512 545L527 525L556 491L589 459L627 429L658 408L709 454L750 498L787 546L802 567Z"/></svg>