<svg id="U2CD07" viewBox="0 0 1024 1024"><path transform="translate(0, 921.6) scale(1,-1)" d="M575 151L572 165L563 195L557 210L539 242L529 259L527 263L527-48L473-75L473 201L465 180L448 138L430 99L410 64L389 32L367 4L343-21L335-15L365 46L393 116L406 154L429 239L439 285L449 334L454 369L421 369L421 304L361 275L361 613L421 584L473 584L473 702L342 702L342 724L473 724L473 874L527 863L540 853L527 844L527 724L559 724L603 772L657 724L657 702L527 702L527 584L578 584L608 611L664 562L637 544L637 358L578 328L578 369L527 369L527 288L546 275L563 262L578 248L591 233L603 218L615 202L624 185L632 168L639 150L635 126L615 111L590 116L577 136L575 151ZM907-8L887 27L869 65L853 105L839 147L828 192L818 239L812 286L809 271L794 209L775 152L752 99L725 52L694 9L659-28L620-59L614-52L644-15L671 26L694 69L715 116L732 167L746 221L756 280L763 343L766 390L653 390L653 412L767 412L767 648L678 648L678 670L767 670L767 863L831 853L847 842L831 832L831 670L853 670L897 718L951 670L951 648L831 648L831 482L828 412L854 412L908 466L972 412L972 390L826 390L824 369L843 295L856 248L871 204L887 163L904 126L922 91L942 59L963 31L987 2L930-41L907-8ZM272-6L265-18L258-28L249-39L238-47L227-54L215-59L202-63L189-65L175-66L175-34L100-18L100-2L175-2L182-1L188 0L193 2L198 3L201 5L207 11L210 16L213 21L216 27L230 78L236 108L241 140L245 175L249 212L251 252L253 295L255 340L255 377L148 377L104 334L51 388L84 416L101 719L165 705L180 694L164 687L148 398L204 398L227 782L74 782L74 804L228 804L260 831L319 782L292 766L286 763L269 410L287 425L346 377L320 361L320 339L318 292L316 248L313 206L309 167L304 131L299 96L293 64L285 34L277 7L272-6ZM35 199L45 203L50 203L58 205L84 214L196 259L227 273L231 264L204 246L94 163L92 162L88 134L72 145L35 199ZM473 562L421 562L421 390L473 390L473 562ZM578 562L527 562L527 390L578 390L578 562Z"/></svg>