<svg id="U2C38" viewBox="0 0 834 1000"><path transform="translate(0, 900) scale(1,-1)" d="M181 0L88 0L88 536L181 536Q267 536 322 480Q377 424 385 312L385 312L698 312Q742 312 754 292Q766 272 766 225L766 225L766 88Q766 40 754 20Q742 0 698 0L698 0L520 0Q476 0 464 20Q452 40 452 88L452 88L452 242L386 242Q379 131 324.50 65.50Q270 0 181 0L181 0ZM174 466L174 312L296 312Q291 382 266 424Q241 466 196 466L196 466L174 466ZM174 242L174 71L195 71Q242 71 267.50 117Q293 163 296 242L296 242L174 242ZM572 71L572 71L646 71Q664 71 672 78Q680 85 680 110L680 110L680 203Q680 229 672 235.50Q664 242 646 242L646 242L538 242L538 110Q538 85 546 78Q554 71 572 71Z"/></svg>