<svg id="U2C48C" viewBox="0 0 1024 1024"><path transform="translate(0, 921.6) scale(1,-1)" d="M347 375L345 382L343 390L338 399L332 408L324 418L293 451L278 460L282 469L299 462L315 457L345 445L358 438L370 431L381 422L391 413L400 403L408 391L406 367L395 356L590 356L589 356L604 370L673 451L692 474L697 481L696 482L701 487L746 441L750 422L728 427L708 412L647 376L630 367L613 359L608 356L802 356L856 410L921 356L921 334L544 334L544 235L785 235L829 284L883 235L883 214L544 214L544 117L845 117L899 171L964 117L964 96L544 96L544-43L480-75L480 96L60 96L60 117L480 117L480 214L141 214L141 235L480 235L480 334L103 334L103 356L359 356L347 369L347 375ZM910 876L974 823L974 801L485 801L454 763L425 734L392 707L365 689L792 689L824 716L883 668L856 646L856 496L792 463L792 517L329 517L265 485L265 636L218 618L165 599L107 584L45 571L43 580L101 603L205 650L250 674L291 698L327 724L358 749L385 776L406 801L50 801L50 823L856 823L910 876ZM792 668L329 668L329 539L792 539L792 668Z"/></svg>