<svg id="U2C036" viewBox="0 0 1024 1024"><path transform="translate(0, 921.6) scale(1,-1)" d="M899-16L891-26L882-35L872-44L860-51L849-56L837-61L824-64L811-66L797-67L797-34L690-18L690-2L797-2L805-2L812-1L824 3L829 5L833 9L843 17L847 22L851 28L858 45L866 77L873 120L880 177L886 245L890 324L894 414L896 517L898 631L898 745L734 745L730 640L720 531L705 429L684 334L658 247L626 166L588 94L545 29L496-27L442-75L435-68L481-14L522 45L557 110L588 182L615 260L636 346L652 438L663 537L669 643L670 745L538 745L538 767L899 767L931 793L990 745L963 729L963 631L961 516L958 413L954 321L950 240L944 170L937 112L929 63L919 25L907-4L899-16ZM57 8L151 19L247 29L247 165L117 165L117 186L247 186L247 315L151 315L131 271L116 243L82 191L63 167L42 146L34 152L68 233L89 289L107 349L115 381L122 413L127 441L130 456L192 432L205 418L185 412L171 364L160 337L247 337L247 476L311 466L328 455L311 445L311 337L358 337L411 390L476 337L476 315L311 315L311 186L343 186L396 240L461 186L461 165L311 165L311 35L361 39L404 42L447 45L490 46L492 37L450 25L367 4L243-22L119-47L100-50L91-69L78-54L57 8ZM93 852L157 819L401 819L433 846L492 798L465 776L465 462L401 430L401 494L157 494L93 462L93 852ZM401 650L157 650L157 516L401 516L401 650ZM401 798L157 798L157 672L401 672L401 798Z"/></svg>