<svg id="U2CF1E" viewBox="0 0 1024 1024"><path transform="translate(0, 921.6) scale(1,-1)" d="M833-33L753 12L682 72L659 101L583 65L504 33L424 4L341-20L255-40L167-55L77-66L75-56L163-35L249-12L331 14L410 43L487 75L561 110L624 143L573 231L545 301L184 301L184 322L537 322L504 440L35 440L35 462L501 462L485 564L483 580L195 580L195 601L482 601L474 700L474 707L60 707L60 729L474 729L474 843L474 844L474 848L474 861L538 847L554 835L538 826L539 729L840 729L894 783L958 729L958 707L539 707L546 601L752 601L785 628L844 580L817 558L817 462L865 462L918 516L983 462L983 440L817 440L817 301L752 268L752 301L615 301L631 260L675 182L680 177L702 190L768 235L832 284L871 233L873 213L854 221L803 185L732 141L716 132L729 118L790 66L860 25L903 10L931 132L942 132L932-1L939-3L959-18L962-42L947-62L923-65L833-33ZM752 440L571 440L595 350L606 322L752 322L752 440ZM752 580L548 580L566 462L752 462L752 580Z"/></svg>