<svg id="U2C6BA" viewBox="0 0 1024 1024"><path transform="translate(0, 921.6) scale(1,-1)" d="M892-16L863 23L838 63L817 108L800 155L786 205L776 258L773 291L757 221L734 148L706 84L672 29L633-17L590-52L542-76L538-67L578-35L612 3L642 48L668 101L690 163L709 233L722 311L732 399L737 495L737 589L699 589L667 528L645 495L622 463L614 468L653 577L666 614L677 652L695 730L703 770L709 811L715 853L716 863L779 843L793 830L774 822L770 799L759 757L747 716L735 676L709 611L896 611L929 638L988 589L961 573L947 567L913 514L874 460L844 420L836 425L845 449L853 472L875 533L892 584L893 589L801 589L798 492L789 394L789 390L802 318L815 266L830 217L847 172L867 131L889 94L914 60L941 30L982-6L924-50L892-16ZM269-24L269-8L334-8L340-7L345-6L350-4L352-2L353 3L354 8L355 14L355 101L344 90L320 92L303 110L298 128L280 181L266 212L243 257L241 260L232 238L215 200L196 165L176 133L153 105L129 80L115 69L115-40L50-72L50 745L115 713L207 713L209 774L209 853L210 866L274 853L290 842L273 832L271 771L266 713L355 713L387 740L446 691L420 670L420 14L418 1L416-13L412-26L405-38L396-49L386-58L373-65L360-69L347-71L334-72L334-40L269-24ZM306 439L300 457L294 474L280 509L263 542L245 576L242 563L227 507L208 456L186 413L160 377L131 348L115 337L115 96L130 121L145 152L160 184L173 218L186 255L196 295L206 337L214 381L223 439L285 418L299 404L281 397L274 369L262 323L248 279L246 273L268 258L282 246L296 233L309 219L332 187L343 170L355 148L355 406L351 402L327 404L310 421L306 439ZM487 124L434 162L534 260L606 341L682 431L690 426L673 389L654 354L614 288L572 228L530 174L502 141L506 120L487 124ZM206 691L115 691L115 360L136 393L154 430L170 471L182 519L193 573L201 633L206 691ZM355 691L264 691L254 626L248 593L272 575L287 561L302 547L328 515L340 498L351 481L355 474L355 691ZM593 686L636 648L636 627L464 627L464 648L559 648L593 686Z"/></svg>