<svg id="U2C88F" viewBox="0 0 1024 1024"><path transform="translate(0, 921.6) scale(1,-1)" d="M923 25L955 159L966 159L955 25L974 12L987-8L974-27L955-40L817-40L803-39L790-36L777-31L765-25L754-16L746-5L740 7L736 20L734 33L733 46L733 273L729 254L701 185L667 124L625 68L577 21L522-19L502-30L502-44L476-44L459-52L391-76L388-67L432-44L146-44L103-87L50-33L82-1L82 314L39 314L39 336L142 336L142 705L65 705L65 727L142 727L142 852L207 841L223 831L207 821L207 727L341 727L341 852L405 841L421 831L405 821L405 727L423 727L456 764L499 727L499 705L405 705L405 336L428 336L472 384L525 336L525 314L146 314L146-22L446-22L470 10L488-8L505 4L553 47L594 94L628 147L656 205L677 269L692 339L700 416L701 498L701 691L766 681L782 670L766 660L766 498L761 411L748 329L744 313L793 304L808 294L793 284L793 46L793 40L794 34L796 31L797 29L799 28L802 26L805 26L810 25L817 25L923 25ZM242 263L299 231L309 215L288 212L263 170L236 133L207 98L192 82L158 54L151 60L161 78L199 155L216 195L232 235L239 256L242 263ZM388 101L384 119L378 138L366 172L352 204L336 235L327 249L333 256L363 234L377 222L389 208L402 193L425 159L445 121L454 101L452 76L434 60L409 62L393 81L388 101ZM554 837L618 804L852 804L881 831L938 783L911 764L911 266L852 236L852 783L618 783L618 267L554 234L554 837ZM341 451L207 451L207 336L341 336L341 451ZM341 586L207 586L207 472L341 472L341 586ZM341 705L207 705L207 607L341 607L341 705Z"/></svg>