<svg id="U2CAE1" viewBox="0 0 1024 1024"><path transform="translate(0, 921.6) scale(1,-1)" d="M75-42L48 17L153 41L199 53L199 374L70 374L70 396L199 396L199 546L141 546L141 568L268 568L312 616L366 568L366 546L264 546L264 396L292 396L336 444L389 396L389 374L264 374L264 70L346 92L380 99L384 90L353 73L293 41L231 15L168-10L106-32L96-36L89-55L75-42ZM921 52L985-2L985-24L388-24L388-2L867-2L921 52ZM899 156L876 215L863 244L858 253L840 215L815 174L788 138L758 106L724 81L718 88L742 120L765 154L785 191L803 232L820 276L829 308L783 382L746 437L753 444L780 423L805 401L829 376L842 361L845 376L855 432L863 491L867 541L736 541L737 476L737 408L736 346L733 290L730 241L725 199L718 162L710 132L700 106L693 95L686 84L677 74L667 65L656 58L645 52L632 47L620 44L607 42L593 41L593 73L507 89L507 105L593 105L600 106L607 107L618 110L623 113L631 119L639 130L643 136L649 152L656 176L661 208L666 248L669 294L672 348L673 409L673 476L672 550L671 579L669 578L669 621L593 621L590 602L522 578L548 761L403 761L403 783L852 783L906 837L970 783L970 761L613 761L596 643L669 643L701 670L760 621L734 606L736 562L868 562L900 589L959 541L932 525L929 523L923 483L912 421L898 363L882 311L910 270L944 212L959 181L958 157L942 139L917 139L899 156ZM115 141L115 158L114 174L111 190L108 205L104 221L93 254L86 271L77 287L85 293L112 267L125 253L136 238L146 221L156 204L163 187L170 168L175 149L179 130L171 106L150 95L126 103L115 125L115 141ZM320 312L379 284L391 269L369 264L346 220L337 204L306 156L283 125L274 130L280 148L285 166L294 202L307 254L311 271L316 299L320 312ZM421 546L485 514L550 514L582 541L641 492L614 471L614 191L550 159L550 224L485 224L485 159L421 127L421 546ZM550 492L485 492L485 245L550 245L550 492ZM329 663L324 676L317 689L309 703L300 716L278 744L250 773L243 779L216 712L196 669L153 588L129 549L103 512L75 476L45 441L38 447L98 567L117 607L150 689L179 774L192 817L205 870L265 845L278 830L258 825L250 799L247 791L278 777L296 768L314 757L330 746L358 720L371 706L382 692L392 677L393 652L377 634L352 633L334 650L329 663Z"/></svg>