<svg id="U2C86F" viewBox="0 0 1024 1024"><path transform="translate(0, 921.6) scale(1,-1)" d="M924-58L918-44L902-15L888 5L811-9L713-25L520-52L473-58L448-61L439-80L427-65L410-2L420-1L467 3L515 5L563 9L610 11L655 13L655 141L535 141L535 104L470 72L470 344L535 312L655 312L655 402L720 391L736 381L720 371L720 312L847 312L880 339L939 290L912 269L912 141L847 109L847 141L720 141L720 16L808 19L859 20L878 20L843 60L828 76L811 91L817 99L858 80L895 57L912 45L943 18L969-12L980-27L983-52L967-71L943-74L924-58ZM322 214L316 230L309 245L291 276L280 292L254 324L252 327L252-45L187-77L187 345L169 325L131 286L91 249L47 215L41 222L110 306L172 390L187 413L187 417L190 417L227 477L251 521L273 567L292 613L301 638L64 638L64 659L187 659L187 874L252 863L268 853L252 843L252 659L308 659L340 686L399 638L372 621L361 617L324 541L297 495L269 451L245 417L252 417L252 353L271 342L279 337L282 342L315 408L327 434L331 445L334 455L335 459L334 460L339 470L390 439L428 498L439 519L458 563L466 585L473 609L479 632L486 666L546 642L559 628L539 621L527 590L516 565L502 541L488 519L472 498L455 478L436 460L415 443L397 431L404 419L379 417L370 406L349 384L323 360L293 333L290 330L306 318L322 304L337 289L351 274L364 259L376 242L386 225L387 201L370 182L345 182L328 199L322 214ZM655 290L535 290L535 163L655 163L655 290ZM847 290L720 290L720 163L847 163L847 290ZM603 471L603 487L717 487L722 488L725 489L727 490L728 491L729 492L730 494L731 497L731 502L732 509L732 718L667 718L664 676L656 627L645 581L630 539L611 500L588 466L561 435L530 409L496 388L459 371L454 380L485 404L511 430L534 458L554 488L570 520L583 556L593 595L599 636L602 681L603 718L391 718L391 740L652 740L652 874L716 863L732 852L716 842L716 740L859 740L913 793L978 740L978 718L796 718L796 509L796 495L793 481L789 468L782 456L773 445L763 437L751 430L738 425L724 423L710 423L710 455L603 471ZM917 462L910 484L895 524L886 544L877 563L845 617L821 652L827 659L846 647L864 634L881 620L897 604L927 569L941 549L954 530L977 486L976 461L959 444L934 445L917 462Z"/></svg>