<svg id="U2C00A" viewBox="0 0 1024 1024"><path transform="translate(0, 921.6) scale(1,-1)" d="M765-19L746-38L736-46L725-53L714-59L702-63L690-67L678-70L665-72L652-72L652-40L544-24L544-8L652-8L659-7L667-6L680-3L687 0L693 3L699 7L704 11L715 23L718 27L722 33L725 42L729 54L732 67L735 83L738 101L740 120L742 141L742 153L433 153L413 119L379 78L340 41L295 9L246-19L192-42L131-60L67-73L64-64L125-41L180-15L229 12L272 42L309 75L341 111L367 149L388 190L404 234L413 274L66 274L66 295L480 295L480 411L544 400L560 389L544 380L544 295L866 295L910 344L964 295L964 274L463 274L478 268L492 254L472 247L462 215L444 174L743 174L775 201L835 153L808 137L806 136L802 92L795 53L791 37L786 20L780 6L773-7L765-19ZM904 438L931 529L942 529L931 438L947 427L958 411L947 395L931 384L660 384L647 386L635 389L623 395L612 403L603 413L596 425L591 438L588 451L587 464L587 568L411 568L454 545L465 530L443 526L437 513L414 484L388 457L357 434L322 412L282 394L239 377L191 363L139 353L82 345L81 354L182 391L225 410L264 431L298 452L327 474L350 496L369 520L384 544L392 564L393 568L152 568L152 558L150 539L146 520L139 502L130 485L118 470L104 456L88 445L64 445L45 461L45 485L61 504L72 507L82 512L91 518L100 526L108 537L116 549L123 564L129 581L134 601L136 623L146 623L150 590L590 590L659 694L687 738L693 747L693 749L119 749L119 770L480 770L480 871L544 861L560 850L544 840L544 770L787 770L840 824L905 770L905 749L705 749L746 712L752 694L730 697L680 650L632 610L615 597L605 590L888 590L892 593L895 600L898 598L921 617L980 568L953 552L917 537L892 519L849 491L832 482L816 471L810 478L823 492L872 560L877 568L603 568L652 560L668 549L652 540L652 464L651 458L652 453L652 449L653 447L653 445L654 444L657 442L660 440L666 439L673 438L904 438ZM350 626L346 638L342 650L337 662L323 687L307 711L297 724L285 734L290 742L305 734L320 727L335 719L349 710L361 700L385 677L395 665L404 652L413 638L413 613L395 596L371 596L353 613L350 626Z"/></svg>