<svg id="U2CD2A" viewBox="0 0 1024 1024"><path transform="translate(0, 921.6) scale(1,-1)" d="M931-43L837-6L750 35L709 59L671 83L634 109L600 137L568 167L544 193L544-45L480-77L480 162L434 122L395 94L353 68L309 44L262 22L212 1L159-16L104-31L45-44L43-34L149 11L198 34L244 58L287 83L327 110L363 137L397 166L427 195L71 195L71 217L480 217L480 319L544 308L560 297L544 288L544 217L835 217L888 270L953 217L953 195L564 195L655 142L733 103L774 85L816 68L905 38L994 12L931-43ZM151 337L151 329L149 312L144 296L138 281L128 267L116 254L102 242L86 233L62 234L45 252L46 277L64 294L75 296L85 299L94 303L102 309L110 316L117 325L124 335L130 349L135 364L136 381L146 382L148 364L149 358L480 358L480 446L544 435L560 425L544 415L544 358L888 358L892 361L893 363L897 370L900 368L921 385L980 337L953 320L888 294L888 295L876 288L847 275L831 268L816 259L810 267L824 278L865 326L873 337L151 337ZM472 479L467 488L461 497L445 516L444 517L320 477L179 440L122 427L119 426L110 407L97 421L77 483L87 485L112 487L165 493L191 558L194 570L197 578L44 578L44 599L146 599L146 853L211 820L441 820L485 869L539 820L539 799L211 799L211 745L436 745L469 783L512 745L512 724L211 724L211 675L436 675L469 712L512 675L512 653L211 653L211 599L457 599L501 648L555 599L555 578L263 578L247 556L209 513L193 496L354 518L399 523L434 527L396 556L381 563L384 573L402 568L419 565L436 561L452 555L467 549L481 543L494 535L507 527L518 518L529 507L534 484L521 463L497 457L476 470L472 479ZM940 617L978 564L979 545L960 553L919 530L852 501L815 487L776 475L735 463L692 453L646 445L599 438L596 448L724 497L797 529L862 563L916 598L940 617ZM897 739L930 693L935 687L936 668L917 676L881 656L851 643L821 631L788 620L753 610L717 601L680 594L640 588L599 584L597 594L707 634L771 662L828 691L876 723L893 736L897 739ZM854 866L892 814L893 795L874 802L843 785L787 760L756 749L724 739L690 730L654 722L617 716L578 711L575 720L679 763L738 791L790 820L814 835L835 850L854 866Z"/></svg>