<svg id="U2CDE5" viewBox="0 0 1024 1024"><path transform="translate(0, 921.6) scale(1,-1)" d="M671 432L717 387L721 368L698 373L677 359L662 351L646 342L612 328L593 323L585 320L585 173L628 173L661 211L704 173L704 152L585 152L585-4L864-4L864 152L744 152L744 173L864 173L864 328L738 328L738 350L864 350L896 377L955 328L928 307L928-36L864-68L864-25L585-25L585-41L520-74L520 358L571 333L611 366L635 388L645 399L662 420L666 426L665 426L671 432ZM395-29L387-39L377-48L367-55L356-62L344-68L332-72L319-75L306-76L293-77L293-45L207-29L207-13L293-13L300-12L308-11L320-8L325-5L331-2L336 2L341 6L345 11L350 18L357 29L363 44L370 63L375 85L380 110L384 138L387 170L389 204L391 242L391 272L145 272L80 240L80 777L145 745L202 745L204 750L210 764L215 778L230 819L243 859L245 867L244 867L246 871L246 873L249 878L305 845L315 829L292 826L279 808L259 785L249 774L238 763L218 745L346 745L379 772L438 724L411 702L411 476L346 444L346 487L145 487L145 401L366 401L410 449L464 401L464 380L145 380L145 294L391 294L423 320L482 272L456 256L453 201L451 165L447 131L443 99L438 71L431 45L423 22L414 0L403-18L395-29ZM74-21L50-15L38 8L45 31L52 38L59 47L66 58L72 73L78 89L83 108L87 130L91 153L95 180L96 208L106 208L116 154L118 128L120 105L120 83L118 62L116 42L111 24L104 6L95-10L74-21ZM194 19L170 15L150 29L145 53L149 61L152 71L155 82L157 94L158 107L159 121L159 137L159 154L158 172L154 190L163 194L171 176L180 160L193 127L199 112L206 82L208 68L208 53L208 39L194 19ZM233 104L233 127L232 139L230 151L228 162L225 173L217 196L210 206L216 213L227 204L238 197L248 188L258 177L266 167L274 154L281 141L287 127L292 113L296 98L289 74L267 63L244 70L232 92L233 104ZM307 154L306 162L304 171L302 180L295 196L290 205L285 213L278 222L268 228L273 237L284 232L295 230L307 225L328 213L338 205L346 196L355 185L363 174L369 162L366 138L347 123L322 125L307 145L307 154ZM571 857L636 825L796 825L828 852L887 803L860 782L860 525L861 520L861 517L863 515L863 513L864 512L870 510L875 509L882 508L931 508L961 621L972 621L961 508L979 496L990 478L979 461L961 449L882 449L868 449L855 451L842 455L830 461L820 470L810 481L804 492L799 505L796 518L796 532L796 803L636 803L636 648L632 616L626 584L616 556L604 530L588 507L570 487L549 470L525 457L499 449L472 443L468 452L492 466L511 481L527 496L540 513L551 531L560 551L566 572L570 595L572 621L571 648L571 857ZM346 605L145 605L145 509L346 509L346 605ZM718 609L715 618L704 637L690 655L681 666L660 686L647 694L651 703L666 697L681 694L696 689L710 683L723 676L735 669L747 661L758 652L768 642L777 631L780 606L765 587L740 585L721 600L718 609ZM346 724L145 724L145 627L346 627L346 724Z"/></svg>