<svg id="U2C18D" viewBox="0 0 1024 1024"><path transform="translate(0, 921.6) scale(1,-1)" d="M82-57L82-35L243-35L243 154L308 144L324 133L308 123L308-35L490-35L490 244L555 233L571 222L555 212L555 112L716 112L770 166L835 112L835 91L555 91L555-35L824-35L878 18L942-35L942-57L82-57ZM880 164L832 179L786 196L740 214L655 256L615 280L576 305L539 332L524 337L502 321L461 294L417 268L370 245L321 223L270 204L216 186L159 170L101 158L39 147L37 156L151 198L254 241L302 264L347 289L389 315L429 342L466 370L501 400L534 359L632 314L674 296L760 266L804 252L850 240L897 230L944 220L993 210L930 151L880 164ZM162 467L160 450L155 422L149 395L141 369L130 343L118 318L103 294L87 270L69 248L48 226L40 232L63 284L72 309L80 334L87 358L92 382L96 406L98 430L99 454L98 477L98 650L163 618L415 618L447 645L492 609L511 619L530 634L546 649L560 664L571 679L578 694L584 710L587 726L588 744L587 761L587 869L652 837L781 837L813 864L872 816L845 794L845 709L845 702L845 697L845 693L845 690L846 689L847 687L850 684L853 682L859 681L867 679L923 679L947 749L958 749L947 679L962 670L972 655L962 640L947 631L853 631L841 632L829 635L817 641L806 648L797 659L790 670L785 682L782 695L781 709L781 816L652 816L652 761L648 736L642 712L632 690L619 670L603 652L586 637L565 624L543 613L518 604L503 600L507 597L480 575L480 456L415 424L415 467L162 467ZM550 589L835 589L838 593L839 592L867 616L926 567L899 551L883 544L854 504L830 478L803 453L773 430L768 427L811 406L850 392L893 380L987 360L924 301L874 316L828 333L786 353L747 376L719 397L707 391L670 374L631 360L589 349L585 358L657 400L689 421L690 422L682 430L656 462L633 496L617 532L607 567L550 567L550 589ZM825 567L621 567L637 543L660 514L685 487L712 463L728 452L768 489L790 514L808 539L824 566L825 567ZM259 597L163 597L163 488L259 488L259 597ZM415 597L324 597L324 488L415 488L415 597ZM82 674L82 695L259 695L259 768L44 768L44 790L259 790L259 867L324 856L340 846L324 836L324 790L457 790L501 838L555 790L555 768L324 768L324 695L409 695L453 744L507 695L507 674L82 674Z"/></svg>