<svg id="U2C699" viewBox="0 0 1024 1024"><path transform="translate(0, 921.6) scale(1,-1)" d="M38 130L104 147L104 777L48 777L48 799L333 799L387 853L451 799L451 777L367 777L367-45L302-77L302 182L279 168L222 138L142 101L91 80L88 79L81 59L66 71L38 130ZM895-55L861-39L830-19L802 5L777 33L755 64L736 98L721 136L709 177L701 221L705 222L696 222L679 169L654 113L625 63L590 21L552-14L509-41L462-60L412-70L409-61L454-41L494-17L529 13L560 47L586 88L609 134L628 187L638 222L411 222L411 244L643 244L654 311L662 381L663 394L726 377L741 364L723 356L715 301L702 244L857 244L911 297L975 244L975 222L711 222L730 184L750 149L770 118L792 90L814 67L838 47L863 31L890 18L918 8L995-9L932-68L895-55ZM302 369L169 369L169 165L299 204L302 205L302 369ZM302 573L169 573L169 390L302 390L302 573ZM566 455L566 471L641 471L647 471L652 473L657 474L659 476L661 481L662 486L663 492L663 869L727 858L743 847L727 838L727 492L726 479L724 466L720 453L713 440L704 430L693 421L681 414L668 410L654 408L641 406L641 439L566 455ZM519 752L579 727L593 713L573 707L557 660L544 628L530 596L497 535L479 506L459 478L438 451L415 425L407 431L461 553L473 584L484 615L502 678L519 752ZM906 508L899 536L890 563L881 590L871 615L859 640L846 665L801 738L808 745L832 727L854 707L875 685L893 662L910 637L926 611L940 583L953 555L964 525L974 494L969 470L950 455L925 460L911 480L906 508ZM302 777L169 777L169 595L302 595L302 777Z"/></svg>