<svg id="U2CEF8" viewBox="0 0 1024 1024"><path transform="translate(0, 921.6) scale(1,-1)" d="M200 858L265 847L281 837L265 827L265 638L357 638L389 664L449 616L422 595L422 277L357 245L357 277L265 277L265-34L200-67L200 277L107 277L107 213L43 181L43 670L107 638L200 638L200 858ZM908 5L902-7L895-18L886-28L875-37L864-44L852-49L839-53L826-55L812-56L812-24L704-8L704 9L812 9L819 9L825 10L830 12L834 13L838 16L844 22L846 26L849 31L852 38L857 56L862 76L867 98L874 148L878 176L880 205L882 237L885 294L849 294L833 249L814 205L793 162L769 123L743 85L714 49L682 17L648-14L611-41L572-65L567-57L599-25L628 7L656 40L681 75L705 110L726 148L745 187L761 227L775 269L782 294L727 294L704 251L680 213L654 177L626 143L596 111L564 81L530 52L495 26L457 4L417-17L411-9L445 20L507 79L535 109L562 141L587 174L631 244L650 280L656 294L592 294L566 264L542 241L516 221L489 203L460 188L431 177L426 185L472 226L493 247L513 270L549 319L565 346L593 404L596 412L438 412L438 433L891 433L935 482L988 433L988 412L666 412L648 377L630 346L610 316L609 315L886 315L918 342L977 294L950 277L949 277L949 268L947 233L945 201L942 169L935 112L930 86L920 39L913 18L908 5ZM200 616L107 616L107 299L200 299L200 616ZM357 616L265 616L265 299L357 299L357 616ZM518 850L582 818L848 818L880 845L939 796L913 775L913 523L848 490L848 533L582 533L582 517L518 485L518 850ZM848 669L582 669L582 555L848 555L848 669ZM848 796L582 796L582 690L848 690L848 796Z"/></svg>