<svg id="U2CBF5" viewBox="0 0 1024 1024"><path transform="translate(0, 921.6) scale(1,-1)" d="M527 350L569 412L574 418L619 371L623 353L600 358L596 355L585 347L573 339L539 319L531 314L796 314L850 368L914 314L914 293L570 293L570 216L755 216L799 264L852 216L852 194L570 194L570 112L755 112L799 161L852 112L852 91L570 91L570 13L847 13L901 67L966 13L966-8L275-8L275-46L211-78L211 264L168 230L138 209L105 189L71 169L65 177L168 282L211 331L211 347L220 342L246 378L278 428L330 389L337 371L317 372L292 342L271 319L269 318L275 314L505 314L507 317L513 328L527 350ZM506 91L275 91L275 13L506 13L506 91ZM506 194L275 194L275 112L506 112L506 194ZM506 293L275 293L275 216L506 216L506 293ZM217 523L264 478L268 460L246 464L220 445L185 425L165 414L144 405L122 396L73 378L68 387L90 402L128 432L174 473L187 485L207 510L212 517L211 517L217 523ZM886 403L872 423L863 433L853 443L828 464L781 497L763 507L766 517L787 511L807 506L826 501L831 500L831 527L634 527L570 495L570 860L634 828L831 828L863 855L922 806L895 785L895 527L836 498L863 489L894 474L908 465L922 456L933 446L942 423L931 401L908 393L886 403ZM399 435L396 441L392 449L387 456L371 473L361 482L337 501L322 507L325 517L341 512L357 510L373 506L387 503L390 501L390 527L193 527L129 495L129 860L193 828L390 828L422 855L481 806L454 785L454 527L397 499L413 493L424 487L436 480L446 473L455 464L459 440L445 419L421 416L401 429L399 435ZM659 525L702 476L705 457L682 464L664 453L637 441L624 435L610 431L596 426L581 423L567 418L564 427L575 435L615 474L633 494L650 513L655 519L654 520L659 525ZM831 624L634 624L634 549L831 549L831 624ZM390 624L193 624L193 549L390 549L390 624ZM831 715L634 715L634 646L831 646L831 715ZM390 715L193 715L193 646L390 646L390 715ZM831 806L634 806L634 737L831 737L831 806ZM390 806L193 806L193 737L390 737L390 806Z"/></svg>