<svg id="U2CC55" viewBox="0 0 1024 1024"><path transform="translate(0, 921.6) scale(1,-1)" d="M373 98L349 128L323 156L317 162L298 134L258 85L214 40L166-1L114-38L57-69L52-61L101-21L147 21L189 65L227 111L260 160L282 197L267 211L203 261L133 308L95 331L99 340L142 326L183 310L222 291L295 247L304 240L317 266L339 323L358 383L369 428L77 428L77 450L372 450L404 477L464 428L437 412L429 409L416 366L393 303L366 243L346 208L361 196L392 167L447 106L453 82L440 61L417 55L395 67L373 98ZM685 546L749 535L765 525L749 515L749 272L744 219L732 170L714 125L688 84L657 47L618 15L575-12L526-35L471-53L410-66L408-56L464-33L514-9L557 18L593 47L623 78L646 112L664 147L677 186L683 227L685 272L685 546ZM893-25L884-11L873 3L860 17L845 32L808 62L763 94L737 110L741 119L799 101L824 90L849 79L871 67L890 55L909 41L926 27L941 12L954-3L958-28L944-48L920-52L900-38L893-25ZM924 858L989 804L989 783L765 783L755 764L735 731L702 682L677 650L661 632L850 632L882 659L942 611L915 589L915 181L850 148L850 611L595 611L595 159L531 127L531 664L595 632L645 632L649 643L656 662L663 681L694 771L697 783L457 783L457 804L871 804L924 858ZM202 864L263 841L276 827L257 821L251 800L238 760L225 729L394 729L426 756L485 707L458 691L448 687L430 649L415 620L399 594L380 568L361 544L340 520L318 499L294 480L268 462L261 469L296 518L328 567L342 592L355 618L367 645L387 699L389 707L216 707L205 683L185 645L164 609L139 573L113 538L85 505L53 474L46 480L109 591L144 666L159 703L172 740L183 778L192 816L200 854L202 864Z"/></svg>