<svg id="U2C0AA" viewBox="0 0 1024 1024"><path transform="translate(0, 921.6) scale(1,-1)" d="M320 351L315 363L301 388L285 412L276 424L251 452L251-45L186-77L186 412L166 355L146 309L103 221L78 180L50 141L42 146L93 278L122 370L147 465L157 514L166 565L171 600L46 600L46 621L186 621L186 863L251 853L267 842L251 832L251 621L280 621L324 670L378 621L378 600L251 600L251 471L267 466L283 459L298 451L313 442L327 432L353 409L365 397L375 383L379 359L364 339L339 336L320 351ZM955 130L950 118L942 106L933 96L923 88L912 80L900 75L887 71L874 69L860 68L860 100L807 116L807 132L860 132L867 133L873 134L878 135L881 137L885 139L887 141L890 145L893 149L895 154L903 182L908 209L911 241L910 276L907 312L900 348L888 384L871 419L849 452L821 486L815 489L834 558L862 654L885 742L891 769L893 777L776 777L776-46L717-76L717 828L776 799L896 799L928 826L987 777L960 761L952 758L929 697L905 638L861 547L843 516L829 493L869 473L901 440L926 403L944 363L957 321L964 281L967 241L967 204L965 171L959 143L955 130ZM591 654L650 643L665 632L650 623L650 337L646 275L638 217L626 163L609 115L587 70L561 31L531-3L497-31L458-54L416-70L413-62L449-38L480-11L507 19L531 53L550 90L566 131L578 176L586 225L590 274L535 230L464 180L412 146L410 125L393 134L352 185L410 214L410 724L455 716L537 769L616 827L631 840L636 843L671 795L674 791L673 791L674 791L674 772L655 780L627 764L581 741L558 731L535 721L513 713L489 706L485 706L490 702L474 692L474 246L539 278L591 302L591 337L591 654Z"/></svg>