<svg id="U2C3E7" viewBox="0 0 1024 1024"><path transform="translate(0, 921.6) scale(1,-1)" d="M266-30L266-14L373-14L380-13L385-13L388-12L390-11L392-9L393-7L394-4L394 1L395 8L395 232L331 197L328 176L312 187L275 241L395 290L395 498L290 498L290 519L395 519L395 690L459 680L475 669L459 659L459 519L469 519L513 568L567 519L567 498L459 498L459 316L508 335L536 345L565 354L569 346L521 309L471 276L459 270L459 8L458-6L456-20L452-33L445-45L436-55L425-65L413-71L400-75L387-78L373-78L373-46L266-30ZM734 151L724 173L714 195L710 201L703 177L681 119L654 67L623 20L586-19L546-52L501-77L496-69L532-36L565 1L594 41L618 86L639 136L656 191L668 252L669 260L630 304L585 349L590 358L620 342L649 326L674 308L677 318L681 389L681 473L570 473L570 494L681 494L681 686L746 675L762 664L746 655L746 494L821 494L853 521L913 473L886 451L886 20L886 13L887 9L888 5L889 4L889 3L893 1L895 0L901-1L923-1L955 133L966 133L955-1L974-14L987-33L974-53L955-66L907-66L893-65L880-63L867-58L855-52L844-43L835-32L829-20L824-7L822 6L821 20L821 473L746 473L746 466L742 385L734 311L725 263L740 247L759 224L775 201L789 176L802 151L801 126L783 109L758 110L742 128L734 151ZM32 278L43 283L73 292L89 298L124 312L200 348L200 412L200 772L265 740L534 740L534 874L598 863L614 853L598 843L598 740L856 740L910 793L974 740L974 718L265 718L265 412L261 345L254 281L243 221L228 166L209 115L187 68L160 26L130-11L96-44L58-70L52-62L81-29L107 6L130 45L150 86L166 131L180 180L189 232L196 288L198 322L163 290L130 263L98 241L87 235L82 212L66 223L32 278ZM108 508L105 525L101 541L96 557L91 573L78 602L70 616L61 630L51 641L57 649L86 631L101 620L114 608L127 594L138 578L148 562L158 544L166 525L174 505L170 481L150 466L125 470L111 490L108 508Z"/></svg>