<svg id="U2C223" viewBox="0 0 1024 1024"><path transform="translate(0, 921.6) scale(1,-1)" d="M927 25L959 159L970 159L959 25L979 12L992-8L979-27L959-40L770-40L756-39L743-37L730-32L718-25L707-17L698-6L692 6L687 19L685 33L684 46L684 254L575 254L616 241L631 228L612 220L606 193L588 147L565 106L536 68L501 34L461 4L416-23L366-45L310-63L250-76L247-67L303-44L354-18L398 8L437 37L470 67L497 99L518 134L535 170L546 209L552 245L553 254L503 254L503 217L438 184L438 468L503 435L811 435L843 462L902 414L875 392L875 233L811 201L811 254L749 254L749 46L749 40L750 35L751 32L752 30L752 29L753 28L756 27L758 26L764 25L770 25L927 25ZM204-59L181-66L159-55L151-32L154 6L154 40L152 72L146 99L138 124L130 141L129 141L130 142L127 147L113 167L96 185L75 202L50 218L53 227L84 220L112 209L138 192L148 183L250 386L357 581L366 577L240 267L210 189L201 160L194 138L191 124L189 125L194 116L204 82L212 46L215 6L215-37L204-59ZM811 414L503 414L503 276L811 276L811 414ZM159 479L153 490L146 501L136 512L112 534L97 545L62 568L41 578L44 587L67 582L89 578L110 572L130 566L165 549L180 539L195 527L208 515L220 502L222 477L208 457L184 454L164 469L159 479ZM788 714L840 675L849 658L827 658L790 616L761 586L730 556L712 542L710 541L860 541L914 595L978 541L978 519L367 519L367 541L692 541L770 677L786 710L788 714ZM534 580L530 593L526 606L521 619L507 646L490 674L480 688L468 700L474 708L489 698L505 690L520 680L534 669L559 645L580 618L589 604L597 589L596 564L578 547L554 549L537 567L534 580ZM237 726L231 737L223 748L214 759L202 770L176 792L143 816L124 825L128 834L149 829L170 825L189 819L208 812L242 796L258 786L285 763L297 749L301 725L287 705L263 701L243 714L237 726ZM392 723L392 744L624 744L624 871L688 860L704 849L688 840L688 744L835 744L889 798L953 744L953 723L392 723Z"/></svg>