<svg id="U2C288" viewBox="0 0 1000 1000"><path transform="translate(0, 900) scale(1,-1)" d="M428 177C478 137 535 78 561 37L616 82C590 122 531 179 481 217ZM87 636C82 557 65 455 40 393L93 367C119 437 136 547 140 628ZM329 656C317 595 293 504 272 449L319 431C342 483 369 567 393 635ZM754 380L754 305L351 305L351 239L754 239L754 5C754-7 750-11 736-11C721-12 674-12 620-11C630-30 641-59 644-78C716-78 761-78 790-67C819-55 827-35 827 5L827 239L956 239L956 305L827 305L827 380ZM429 638L429 573L824 573L824 478L398 478L398 414L892 414L892 791L402 791L402 728L824 728L824 638ZM186 829L186 478C186 298 172 113 50-31C66-43 91-67 101-84C167-8 205 77 226 168C264 118 310 55 331 20L383 77C362 104 278 208 241 249C252 324 254 401 254 478L254 829Z"/></svg>