<svg id="U2C735" viewBox="0 0 1024 1024"><path transform="translate(0, 921.6) scale(1,-1)" d="M828 237L744 253L666 274L594 298L527 326L510 335L455 310L382 283L304 260L241 247L295 220L729 220L761 247L821 198L794 177L794-35L729-68L729-14L295-14L295-52L230-84L230 245L132 229L39 221L38 231L129 249L214 270L294 294L368 321L437 352L458 363L411 394L362 434L320 477L288 521L77 521L77 543L480 543L480 668L544 657L560 646L544 637L544 543L829 543L883 597L947 543L947 521L756 521L698 462L645 418L587 377L567 366L611 350L681 331L757 316L838 303L981 288L917 224L828 237ZM729 198L295 198L295 8L729 8L729 198ZM304 521L336 493L382 459L432 426L487 398L507 389L557 422L609 462L656 506L669 521L304 521ZM630 875L695 864L711 854L695 844L695 774L861 774L915 828L980 774L980 753L695 753L695 677L630 645L630 753L394 753L394 677L329 645L329 753L44 753L44 774L329 774L329 875L394 864L410 854L394 844L394 774L630 774L630 875Z"/></svg>