<svg id="U2CBDA" viewBox="0 0 1024 1024"><path transform="translate(0, 921.6) scale(1,-1)" d="M873-69L836-56L802-40L771-20L743 2L718 27L696 55L678 86L664 120L654 156L646 156L625 111L597 66L565 27L527-6L485-33L438-54L387-67L332-74L331-65L381-48L427-27L466-3L501 25L531 57L556 94L577 134L584 156L331 156L331 177L592 177L606 231L613 281L483 281L483 264L418 232L418 625L483 592L568 592L568 680L488 680L488 702L729 702L773 750L827 702L827 680L729 680L729 592L829 592L861 619L920 571L893 549L893 270L829 238L829 281L669 281L678 278L692 265L673 257L665 217L653 177L839 177L893 231L957 177L957 156L666 156L684 130L705 103L727 80L749 59L774 41L800 26L828 14L857 4L889-4L976-17L913-79L873-69ZM337 246L331 233L325 221L317 211L307 201L296 194L284 188L271 184L257 182L244 181L244 213L190 229L190 245L244 245L251 246L256 247L260 248L264 249L266 252L271 256L273 261L277 273L282 296L285 319L285 343L282 367L277 392L269 418L258 444L244 471L228 499L208 528L209 530L204 533L263 677L281 728L296 776L296 777L151 777L151-45L86-77L86 831L151 799L300 799L332 826L392 777L365 761L354 757L343 732L318 683L304 657L272 606L234 554L217 534L243 512L267 488L288 462L306 435L320 408L331 380L338 350L343 320L343 290L340 259L337 246ZM829 368L483 368L483 302L829 302L829 368ZM753 451L740 450L728 451L716 454L706 459L695 466L686 475L679 485L674 497L671 510L670 523L670 571L625 571L624 566L618 543L611 521L601 501L589 482L575 463L559 447L540 431L520 417L498 404L493 411L510 429L524 447L536 466L546 483L554 501L561 518L565 536L568 553L568 571L483 571L483 389L829 389L829 571L729 571L729 523L728 516L728 510L728 506L729 503L729 500L731 497L734 495L738 492L745 490L753 488L778 488L797 515L808 515L797 488L808 481L816 469L808 458L797 451L753 451ZM493 843L549 810L559 793L538 791L517 757L499 732L480 707L459 684L437 662L414 640L388 620L361 602L333 585L327 593L388 665L424 713L454 762L467 787L480 812L493 843ZM670 680L627 680L627 592L670 592L670 680ZM914 631L892 645L872 662L852 681L835 702L818 724L804 748L791 774L780 803L776 818L575 818L575 839L733 839L757 871L789 839L789 825L817 790L835 770L853 752L871 735L889 721L907 709L926 699L945 690L964 684L1000 670L938 618L914 631Z"/></svg>