<svg id="U2CAD9" viewBox="0 0 1024 1024"><path transform="translate(0, 921.6) scale(1,-1)" d="M78-43L52 18L134 34L204 49L223 54L223 374L74 374L74 396L223 396L223 546L153 546L153 568L308 568L352 616L406 568L406 546L288 546L288 396L315 396L368 449L433 396L433 374L288 374L288 69L349 84L422 99L425 90L392 73L323 41L253 14L148-22L99-36L92-56L78-43ZM806-46L795-52L784-56L761-65L749-68L737-70L725-72L713-73L700-73L700-40L593-24L593-8L709-8L718-8L743-3L752 0L767 6L783 15L789 19L795 26L801 35L807 48L813 63L818 82L822 104L826 128L829 156L830 174L635 174L618 128L546 120L617 308L429 308L429 329L887 329L931 377L985 329L985 308L686 308L644 195L830 195L863 222L922 174L895 158L893 157L890 120L886 93L881 67L874 44L866 23L857 4L846-13L832-28L817-40L806-46ZM129 141L128 157L127 173L123 189L120 205L115 221L101 254L93 270L82 287L89 293L120 267L134 253L146 238L167 205L175 188L183 169L189 149L193 130L185 106L164 95L141 103L129 124L129 141ZM359 313L417 283L429 268L407 263L391 235L372 203L350 171L338 156L325 141L313 125L304 130L311 148L317 167L339 238L352 289L356 305L359 313ZM551 417L551 401L486 369L486 782L551 749L668 749L668 872L732 861L749 850L732 841L732 749L849 749L881 776L940 728L914 706L914 406L849 374L849 417L551 417ZM668 577L551 577L551 439L668 439L668 577ZM849 577L732 577L732 439L849 439L849 577ZM370 661L363 674L346 702L323 729L309 744L277 773L266 781L235 711L213 668L190 627L138 548L110 511L79 475L46 441L39 447L108 567L150 648L185 732L201 775L215 818L228 863L230 871L289 843L301 828L282 824L273 798L270 792L307 778L327 768L345 758L363 747L379 734L394 721L408 707L421 693L432 678L434 653L418 634L394 633L374 648L370 661ZM668 728L551 728L551 598L668 598L668 728ZM849 728L732 728L732 598L849 598L849 728Z"/></svg>