<svg id="U2CD78" viewBox="0 0 1024 1024"><path transform="translate(0, 921.6) scale(1,-1)" d="M75-74L51-69L38-49L42-25L51-14L59-2L67 13L81 48L87 68L93 91L104 141L108 169L118 169L121 140L124 113L125 87L125 62L123 39L121 17L116-4L111-24L104-42L96-60L75-74ZM808-41L786-52L775-56L764-60L752-63L740-66L716-69L704-70L692-70L692-38L585-22L585-5L701-5L710-5L719-4L728-2L745 2L753 5L770 12L778 16L782 19L787 23L792 28L796 35L801 44L805 54L809 67L813 81L816 97L817 100L600 100L592 85L520 90L568 175L418 175L418 196L899 196L932 234L975 196L975 175L642 175L612 121L818 121L851 148L910 100L883 84L879 82L876 67L871 49L866 32L859 17L852 2L843-11L833-23L821-33L808-41ZM280 24L279 38L278 52L275 66L267 94L256 123L250 137L240 151L247 158L260 146L274 136L286 124L297 111L308 98L317 83L333 52L344 18L338-6L317-18L293-12L280 9L280 24ZM222-33L199-40L178-28L170-5L173 8L175 20L177 34L178 48L178 63L178 80L177 96L172 132L167 151L177 155L186 138L196 121L204 104L212 88L218 71L224 54L228 38L231 22L234 5L234-11L222-33ZM386 48L378 75L373 88L368 101L362 113L339 151L329 162L335 169L348 161L363 154L376 146L389 135L401 125L423 99L432 85L450 55L447 31L429 15L404 16L388 34L386 48ZM151 233L92 203L92 588L68 559L47 535L39 540L91 659L115 721L138 788L162 867L221 838L233 823L213 819L192 767L190 762L295 762L328 789L387 741L360 725L346 719L334 700L311 671L284 639L239 597L349 597L376 624L430 575L403 559L403 233L349 206L349 233L151 233ZM861 306L893 274L893 253L493 253L493 274L837 274L861 306ZM222 404L151 404L151 254L222 254L222 404ZM349 404L275 404L275 254L349 254L349 404ZM722 509L781 480L886 480L918 506L978 458L951 437L951 334L886 302L886 334L781 334L722 305L722 509ZM452 509L511 480L619 480L649 506L705 458L678 439L678 334L619 305L619 334L511 334L452 305L452 509ZM886 458L781 458L781 356L886 356L886 458ZM619 458L511 458L511 356L619 356L619 458ZM222 575L151 575L151 425L222 425L222 575ZM349 575L275 575L275 425L349 425L349 575ZM759 869L824 859L840 848L824 838L824 790L867 790L921 843L985 790L985 768L824 768L824 713L759 681L759 768L640 768L640 713L587 686L610 674L789 674L822 701L881 653L854 631L854 533L789 501L789 533L610 533L546 501L546 706L576 691L576 768L415 768L415 790L576 790L576 869L640 859L657 848L640 838L640 790L759 790L759 869ZM789 653L610 653L610 555L789 555L789 653ZM293 741L180 741L161 701L127 640L112 617L151 597L225 597L237 616L268 676L283 710L288 725L293 738L293 741Z"/></svg>