<svg id="U2CE7C" viewBox="0 0 1000 1000"><path transform="translate(0, 900) scale(1,-1)" d="M783 474L783-80L853-80L853 474ZM601 473L601 318C601 199 589 69 485-38C505-47 536-67 551-80C659 36 671 182 671 317L671 473ZM700 849C672 730 605 584 483 483C499 472 521 447 531 430C623 509 686 608 728 707C776 598 844 498 917 438C928 456 951 480 968 493C884 554 804 675 760 795L772 839ZM125 783L125 616L40 616L40 551L500 551L500 616L331 616L331 692L469 692L469 752L331 752L331 840L263 840L263 616L189 616L189 783ZM72 502L72-39L399-12L399-57L464-57L464 502L399 502L399 46L138 29L138 502ZM247 453C241 335 221 198 150 123C166 114 186 94 196 80C233 120 257 173 274 232C300 183 324 134 338 99L387 133C369 178 329 252 292 314C300 359 305 407 308 453Z"/></svg>