<svg id="U2C5E4" viewBox="0 0 1024 1024"><path transform="translate(0, 921.6) scale(1,-1)" d="M372 353L367 373L364 382L324 366L292 355L275 350L275-45L210-77L210 332L157 320L88 306L74 304L65 285L52 300L34 363L45 364L80 367L130 371L310 663L358 746L410 708L418 690L398 690L332 594L248 484L189 412L158 378L153 374L217 381L317 394L351 397L359 398L346 428L338 446L318 480L308 497L295 512L302 520L320 509L337 496L353 482L368 467L383 451L408 414L429 373L438 351L435 326L416 311L391 314L376 333L372 353ZM747-17L747-1L812-1L818-1L823 1L826 1L829 2L829 3L830 4L831 6L832 9L833 14L833 20L833 113L617 113L617-44L552-76L552 332L510 278L477 241L442 206L404 175L400 180L408 166L418 144L427 120L435 96L430 72L410 58L386 62L372 82L368 104L359 147L346 186L330 223L321 241L310 259L299 276L306 283L323 270L340 257L356 241L371 224L384 206L396 187L398 183L455 259L508 340L534 383L552 419L552 428L556 426L598 516L404 516L404 537L606 537L621 573L642 632L700 602L711 587L691 583L677 549L671 537L863 537L916 591L981 537L981 516L661 516L628 450L601 404L617 396L833 396L866 423L925 374L898 353L898 20L897 7L895-6L890-19L884-32L875-42L864-52L852-58L839-62L825-65L812-66L812-33L747-17ZM107 266L170 247L185 234L166 226L164 217L157 187L148 158L137 129L125 101L96 45L79 19L60-7L39-31L31-26L54 32L74 88L82 116L89 144L95 171L100 199L104 227L106 249L107 266ZM833 249L617 249L617 135L833 135L833 249ZM833 374L617 374L617 271L833 271L833 374ZM141 550L134 567L127 583L117 599L96 630L84 645L54 676L37 690L42 698L63 690L84 680L103 669L122 657L127 653L219 841L228 863L232 869L286 833L295 816L274 815L214 730L182 690L148 653L138 643L154 628L170 612L183 595L195 577L206 557L205 533L188 516L163 516L146 533L141 550ZM843 601L797 646L742 692L720 709L671 682L573 635L519 613L460 592L457 601L607 690L680 737L519 845L523 854L571 835L659 795L699 775L718 764L759 796L788 821L813 846L837 872L882 826L887 807L866 811L825 777L766 736L834 690L862 669L887 647L897 625L888 602L865 592L843 601Z"/></svg>