<svg id="U2C8BC" viewBox="0 0 1024 1024"><path transform="translate(0, 921.6) scale(1,-1)" d="M68 256L132 224L286 224L318 251L377 202L350 181L350-24L286-56L286-2L132-2L132-40L68-72L68 256ZM467 540L531 507L842 507L874 534L933 486L906 464L906 203L842 170L842 224L719 224L719 113L866 113L920 167L985 113L985 91L719 91L719-39L654-72L654 91L388 91L388 113L654 113L654 224L531 224L531 187L467 154L467 540ZM286 202L132 202L132 19L286 19L286 202ZM842 360L531 360L531 246L842 246L842 360ZM282 412L347 358L347 337L71 337L71 358L229 358L282 412ZM842 486L531 486L531 382L842 382L842 486ZM282 552L347 498L347 476L71 476L71 498L229 498L282 552ZM388 580L388 601L550 601L550 734L437 734L437 756L550 756L550 871L615 861L631 850L615 840L615 756L758 756L758 871L823 861L839 850L823 840L823 756L838 756L882 804L936 756L936 734L823 734L823 601L887 601L931 649L985 601L985 580L388 580ZM758 734L615 734L615 601L758 601L758 734ZM326 702L391 648L391 627L52 627L52 648L272 648L326 702ZM282 842L347 788L347 767L71 767L71 788L229 788L282 842Z"/></svg>