<svg id="U2C765" viewBox="0 0 1024 1024"><path transform="translate(0, 921.6) scale(1,-1)" d="M853-31L843-39L833-46L810-57L799-61L786-65L774-67L761-69L749-69L749-37L641-21L641-5L749-5L757-4L772-2L779 0L792 5L799 9L805 13L811 18L817 24L830 40L844 65L856 96L867 135L876 182L885 235L890 296L895 364L898 438L899 509L274 509L246 461L220 422L191 384L159 348L125 313L88 281L48 250L41 257L73 295L132 370L158 409L182 447L203 486L222 526L238 566L252 607L263 643L263 644L267 657L326 631L339 616L319 610L310 587L292 544L285 530L899 530L931 557L990 509L964 492L963 437L960 360L955 291L949 227L940 171L930 120L917 76L902 38L885 5L863-22L853-31ZM742 29L721 48L703 69L687 90L673 113L661 138L652 163L646 189L643 180L628 147L609 118L586 91L560 67L531 47L498 31L462 18L458 27L487 48L514 70L536 94L555 117L571 142L582 168L592 196L597 226L599 240L494 240L494 261L601 261L601 369L517 369L517 390L601 390L601 484L665 474L681 463L665 453L665 390L679 390L723 439L777 390L777 369L665 369L665 291L662 261L679 261L732 315L797 261L797 240L659 240L657 232L674 199L686 178L700 159L714 141L729 124L745 109L763 95L782 83L823 58L764 11L742 29ZM414 100L409 110L403 119L396 130L388 140L379 150L358 171L353 176L349 163L336 130L320 101L301 76L278 54L253 37L225 24L194 15L191 24L215 41L236 60L253 79L268 100L280 124L290 149L297 177L302 208L304 240L196 240L196 261L304 261L304 353L214 353L214 374L304 374L304 482L368 471L385 460L368 451L368 374L396 374L429 412L472 374L472 353L368 353L368 277L367 261L385 261L429 310L483 261L483 240L365 240L359 198L357 192L368 189L384 184L399 178L413 171L426 164L451 147L472 126L477 102L463 82L439 77L418 90L414 100ZM630 871L695 861L711 850L695 840L695 764L861 764L915 818L980 764L980 742L695 742L695 660L630 628L630 742L394 742L394 660L329 628L329 742L44 742L44 764L329 764L329 871L394 861L410 850L394 840L394 764L630 764L630 871Z"/></svg>