<svg id="U2CD04" viewBox="0 0 1024 1024"><path transform="translate(0, 921.6) scale(1,-1)" d="M402-29L402-8L663-8L663 143L499 143L499 165L663 165L663 304L547 304L522 258L503 228L482 201L460 175L435 151L409 129L402 136L437 192L453 221L481 279L494 309L505 340L515 371L524 403L534 446L594 420L607 406L587 400L570 352L558 326L663 326L663 466L727 455L743 444L727 434L727 326L828 326L881 380L946 326L946 304L727 304L727 165L793 165L847 218L911 165L911 143L727 143L727-8L869-8L923 46L987-8L987-29L402-29ZM325-9L318-20L310-31L300-40L289-48L278-55L266-60L253-63L240-65L227-66L227-34L151-18L151-2L227-2L234-1L240 0L245 2L250 3L254 6L258 9L265 17L268 22L272 28L281 53L289 79L297 109L303 140L309 175L314 212L317 252L320 295L322 340L322 377L168 377L125 334L71 388L105 416L125 719L189 704L204 692L188 687L168 398L257 398L286 782L83 782L83 804L287 804L320 831L379 782L352 766L345 763L322 398L354 425L414 377L387 361L386 361L386 339L385 292L382 247L378 205L373 166L367 128L360 94L351 61L342 31L331 3L325-9ZM41 201L51 204L57 204L67 206L120 222L204 250L278 274L282 264L94 157L88 131L72 143L41 201ZM477 841L541 809L848 809L880 835L939 787L913 766L913 451L848 419L848 483L541 483L477 451L477 841ZM848 640L541 640L541 505L848 505L848 640ZM848 787L541 787L541 661L848 661L848 787Z"/></svg>