<svg id="U2CC99" viewBox="0 0 1024 1024"><path transform="translate(0, 921.6) scale(1,-1)" d="M359 655L352 671L343 687L333 703L309 734L263 782L261 784L224 712L202 673L154 598L129 564L120 553L177 525L321 525L353 552L412 503L385 482L385 256L321 224L321 267L177 267L177 159L313 159L357 208L411 159L411 138L177 138L177 35L297 35L351 89L415 35L415 14L177 14L177-45L113-77L113 544L75 501L46 474L39 480L119 620L158 696L194 778L231 873L288 841L299 825L279 822L268 798L294 787L315 775L334 762L352 749L369 734L385 719L399 702L412 685L424 666L425 642L409 623L384 623L366 639L359 655ZM648 229L649 229L644 191L772 191L772 364L836 353L852 342L836 333L836 191L866 191L920 245L984 191L984 170L836 170L836-41L772-73L772 170L641 170L636 137L625 96L612 58L596 25L578-4L558-30L534-50L509-66L481-75L477-66L497-48L515-29L530-8L543 17L555 44L565 75L573 109L579 146L581 170L430 170L430 191L583 191L585 233L585 364L649 353L665 342L649 333L649 231L648 229ZM321 390L177 390L177 288L321 288L321 390ZM427 385L427 406L673 406L673 530L476 530L476 552L673 552L673 675L450 675L450 697L760 697L764 708L796 817L800 833L806 859L810 872L868 842L880 826L858 822L824 765L802 733L790 717L778 701L774 697L843 697L896 750L961 697L961 675L738 675L738 552L817 552L871 605L935 552L935 530L738 530L738 406L866 406L920 460L984 406L984 385L427 385ZM321 503L177 503L177 412L321 412L321 503ZM315 659L358 621L358 600L171 600L171 621L281 621L315 659ZM596 740L594 754L592 768L588 782L581 809L571 836L566 849L558 862L565 868L576 858L588 848L610 826L621 814L630 801L638 787L646 773L654 757L660 742L657 718L637 703L613 707L598 726L596 740Z"/></svg>