<svg id="U2C6B5" viewBox="0 0 1024 1024"><path transform="translate(0, 921.6) scale(1,-1)" d="M98 853L162 820L308 820L341 847L400 799L373 777L373 19L372 6L370-8L365-20L359-33L350-44L339-52L327-59L314-63L301-66L287-67L287-34L201-18L201-2L287-2L293-2L298-1L301 1L303 1L304 2L305 3L306 5L307 8L308 13L308 19L308 326L162 326L162 304L159 247L155 193L149 144L141 98L131 58L118 21L104-11L88-38L70-60L49-75L42-68L53-47L63-24L72 3L80 33L86 68L92 106L95 149L98 197L98 248L98 304L98 853ZM783-34L773-42L752-54L740-60L728-64L716-67L704-69L691-70L678-71L678-39L571-23L571-6L687-6L702-4L709-2L723 3L730 7L736 11L743 16L749 22L757 30L765 41L773 54L780 70L793 108L799 131L803 155L807 183L808 198L577 198L564 154L492 141L554 349L402 349L402 371L847 371L901 425L966 371L966 349L621 349L583 220L810 220L842 247L901 198L874 182L872 181L871 175L867 145L861 117L855 91L848 67L839 45L830 25L820 6L807-11L793-25L783-34ZM308 568L162 568L162 347L308 347L308 568ZM901 499L871 526L842 554L814 586L788 620L763 656L739 696L717 738L697 782L670 732L641 684L611 640L579 598L545 560L510 525L473 493L434 466L393 442L387 450L421 482L453 514L485 549L514 586L543 626L570 667L595 712L618 759L641 808L665 867L722 836L732 820L713 817L708 806L771 717L799 683L826 652L854 623L883 597L911 574L940 554L992 523L932 476L901 499ZM757 576L822 522L822 501L546 501L546 522L703 522L757 576ZM308 799L162 799L162 589L308 589L308 799Z"/></svg>