<svg id="U2CB12" viewBox="0 0 1024 1024"><path transform="translate(0, 921.6) scale(1,-1)" d="M76-42L50 17L157 41L204 53L204 374L71 374L71 396L204 396L204 546L144 546L144 568L276 568L320 616L373 568L373 546L268 546L268 396L300 396L344 444L397 396L397 374L268 374L268 70L353 92L388 99L391 90L361 73L299 41L204 2L108-32L97-36L91-55L76-42ZM893 10L858 37L826 69L798 103L772 141L750 182L731 226L715 274L703 324L700 350L678 341L641 327L639 326L658 304L689 261L715 220L734 180L746 141L752 103L751 67L742 32L725-1L701-30L692-38L681-46L671-53L660-59L648-63L636-68L624-71L611-73L599-74L586-75L586-42L479-26L479-10L586-10L603-9L618-6L632-1L638 3L652 12L676 35L689 55L698 77L702 103L702 109L647 75L616 60L583 47L549 35L513 25L475 17L437 12L396 9L394 19L468 45L534 73L564 88L619 121L644 140L688 179L693 174L683 205L672 231L637 208L610 192L554 166L526 156L497 148L467 141L437 138L407 136L405 146L485 181L510 194L559 222L604 255L626 273L643 289L624 321L604 314L567 304L530 295L492 287L455 282L417 280L415 290L554 342L622 373L689 409L751 445L756 448L766 430L797 398L798 380L779 388L715 357L725 330L745 284L760 255L768 261L813 297L904 368L920 344L945 317L945 299L925 307L903 296L850 272L813 258L775 247L766 244L789 204L814 169L840 138L868 111L899 87L930 66L992 34L931-15L893 10ZM118 141L118 158L116 174L114 189L111 205L107 221L88 271L79 287L86 293L114 267L127 253L139 238L149 221L158 204L166 187L173 168L178 149L182 130L174 106L153 95L130 103L118 125L118 141ZM328 312L386 284L398 269L377 264L344 204L323 172L289 125L280 130L287 148L291 167L306 220L314 254L322 288L324 299L323 299L325 303L328 312ZM385 504L396 506L439 514L451 517L451 806L392 806L392 828L630 828L674 876L728 828L728 806L669 806L669 441L604 409L604 521L589 513L543 494L454 459L434 452L427 431L413 444L385 504ZM337 662L331 676L316 702L307 716L296 730L270 759L256 773L247 780L220 711L200 669L156 588L131 549L106 512L77 476L46 441L39 447L101 567L138 648L154 689L184 774L196 818L208 862L210 870L270 845L282 830L263 824L254 799L252 791L284 777L302 768L336 746L351 733L365 720L378 707L389 692L400 677L401 652L384 634L360 633L341 649L337 662ZM904 502L888 526L871 549L852 571L847 577L816 546L786 520L754 498L720 479L684 465L680 473L709 496L737 520L763 546L787 574L809 603L814 610L790 632L742 668L716 685L720 694L751 686L781 675L809 661L836 646L849 669L866 705L882 744L888 763L703 763L703 784L894 784L926 811L986 763L959 747L948 742L938 720L918 679L895 641L878 616L911 585L933 562L954 537L974 509L977 485L963 465L938 461L918 476L904 502ZM604 613L515 613L515 528L582 540L604 543L604 613ZM604 710L515 710L515 634L604 634L604 710ZM604 806L515 806L515 731L604 731L604 806Z"/></svg>