<svg id="U2C8D1" viewBox="0 0 1024 1024"><path transform="translate(0, 921.6) scale(1,-1)" d="M700 353L704 358L710 373L729 412L744 448L751 467L750 467L756 477L809 440L817 423L794 422L771 398L750 378L727 359L717 353L829 353L883 406L947 353L947 331L743 331L743 234L833 234L876 283L930 234L930 213L743 213L743 116L833 116L876 165L930 116L930 95L743 95L743-8L863-8L917 46L981-8L981-29L551-29L551-45L486-77L486 273L447 221L421 191L393 162L364 135L357 141L438 275L473 342L504 412L518 447L530 478L529 478L534 491L592 460L602 444L583 441L557 387L538 353L700 353ZM66 256L131 224L281 224L314 251L373 202L346 181L346-24L281-56L281-2L131-2L131-40L66-72L66 256ZM678 95L551 95L551-8L678-8L678 95ZM281 202L131 202L131 19L281 19L281 202ZM678 213L551 213L551 116L678 116L678 213ZM678 331L551 331L551 234L678 234L678 331ZM278 412L343 358L343 337L70 337L70 358L224 358L278 412ZM637 842L696 793L669 772L669 460L604 428L604 625L597 625L575 600L536 561L515 542L493 525L445 493L418 479L391 467L386 475L466 555L500 595L530 636L559 682L604 647L604 793L540 793L581 760L587 741L566 743L551 728L519 698L502 683L465 655L403 618L396 626L413 644L484 731L508 764L518 781L526 793L406 793L406 815L604 815L637 842ZM925 842L984 793L957 772L957 471L893 439L893 625L888 625L871 605L833 571L793 539L771 524L747 509L722 496L696 483L690 491L766 569L799 606L826 642L839 661L847 674L847 675L852 683L893 650L893 793L827 793L870 761L876 742L855 744L824 710L790 678L772 663L733 634L690 607L685 614L745 690L771 726L795 761L813 792L814 793L710 793L710 815L893 815L925 842ZM278 552L343 498L343 476L70 476L70 498L224 498L278 552ZM321 702L386 648L386 627L51 627L51 648L267 648L321 702ZM278 842L343 788L343 767L70 767L70 788L224 788L278 842Z"/></svg>