<svg id="U2CAF8" viewBox="0 0 1024 1024"><path transform="translate(0, 921.6) scale(1,-1)" d="M893-45L860-23L830 3L803 31L778 62L756 95L737 131L721 169L708 210L706 219L689 173L669 132L645 94L617 59L586 27L550-2L511-27L469-49L423-68L418-59L459-32L495-4L528 25L557 55L581 88L603 121L621 156L635 193L646 232L649 249L421 249L421 270L653 270L659 464L556 464L540 430L526 402L510 375L492 349L472 325L451 303L443 309L478 391L489 419L499 448L515 506L529 567L533 593L532 594L533 598L536 609L597 587L610 573L591 566L578 521L567 490L565 485L799 485L852 539L917 485L917 464L724 464L718 270L845 270L899 324L963 270L963 249L714 249L713 247L749 183L770 150L793 120L816 94L842 70L868 48L896 30L926 13L990-15L929-65L893-45ZM51 17L159 41L207 53L207 374L72 374L72 396L207 396L207 546L145 546L145 568L281 568L325 616L379 568L379 546L272 546L272 396L285 396L338 449L403 396L403 374L272 374L272 70L358 92L393 99L396 90L366 73L303 41L207 2L142-22L99-36L92-55L77-42L51 17ZM121 141L120 157L118 173L116 189L113 205L108 221L103 238L89 271L80 287L87 293L116 267L129 253L141 238L151 221L160 205L168 187L175 168L180 149L185 130L177 106L155 95L132 103L120 125L121 141ZM332 312L391 284L403 269L381 264L367 235L338 188L316 156L304 141L293 125L284 130L291 148L310 220L323 271L327 288L330 303L332 312ZM342 662L336 675L329 689L321 702L300 730L288 744L259 773L251 780L222 711L181 628L133 549L107 511L78 476L48 441L39 447L82 527L122 607L140 648L172 732L187 774L200 818L211 862L214 871L273 845L286 830L266 824L258 799L255 791L287 777L306 768L324 757L341 746L356 734L370 721L382 707L394 692L404 677L406 653L389 634L365 633L346 649L342 662ZM496 624L496 559L431 527L431 861L496 828L888 828L920 855L979 807L952 785L952 602L888 570L888 624L496 624ZM584 807L496 807L496 645L584 645L584 807ZM736 807L648 807L648 645L736 645L736 807ZM888 807L800 807L800 645L888 645L888 807Z"/></svg>