<svg id="U2C903" viewBox="0 0 1024 1024"><path transform="translate(0, 921.6) scale(1,-1)" d="M203-20L150 17L171 37L180 44L180 519L36 519L36 541L180 541L213 568L272 519L245 498L245 96L330 161L396 206L403 199L349 139L228 9L218-3L222-24L203-20ZM931 211L877 256L851 281L802 334L758 392L737 424L717 456L702 488L564 488L558 475L519 413L482 364L546 332L725 332L757 359L816 311L789 295L789 276L789 257L788 240L788 224L786 199L785 190L783 181L779 170L773 159L766 147L757 137L747 128L737 120L725 114L713 109L700 106L687 104L673 103L673 135L577 152L577 168L673 168L681 168L687 169L693 170L698 173L702 175L706 178L710 181L717 191L720 197L722 206L722 216L723 228L724 242L724 259L725 277L725 311L546 311L546 56L547 49L548 45L549 41L550 40L552 38L557 36L561 35L568 34L844 34L876 169L887 169L876 34L896 22L909 2L896-17L876-30L568-30L554-29L541-27L528-23L516-16L505-7L496 4L489 16L485 29L483 42L482 56L482 364L429 303L378 256L323 215L317 223L364 271L408 323L448 377L485 435L513 488L339 488L339 509L523 509L546 562L572 632L573 633L395 633L395 654L579 654L594 705L613 782L627 859L629 874L691 853L705 840L687 833L672 769L650 689L637 654L721 654L776 756L802 812L809 830L815 846L818 852L874 818L883 802L862 799L840 767L797 714L763 677L739 654L792 654L846 708L910 654L910 633L630 633L623 613L592 542L575 509L852 509L906 563L970 509L970 488L717 488L813 393L865 347L917 306L990 256L931 211ZM218 697L214 713L207 728L190 759L179 775L166 790L136 821L118 836L123 845L166 825L186 814L204 801L222 787L237 772L251 756L264 739L274 720L284 700L281 676L263 660L238 663L222 681L218 697ZM491 707L487 721L482 736L476 751L460 781L429 826L415 840L421 848L456 827L472 816L488 804L502 790L515 776L527 761L547 728L556 711L553 687L534 671L510 674L494 692L491 707Z"/></svg>