<svg id="U2C788" viewBox="0 0 1024 1024"><path transform="translate(0, 921.6) scale(1,-1)" d="M125 611L189 578L501 578L501 674L566 663L582 653L566 643L566 578L856 578L910 632L974 578L974 557L189 557L189 294L186 243L180 196L171 151L159 109L145 69L127 33L106 0L82-30L56-56L25-77L20-70L41-42L59-12L76 18L90 51L102 85L111 121L118 161L123 203L125 247L125 611ZM906-21L892-9L859 17L821 42L754 84L749 87L740 75L715 48L688 22L657-3L624-26L589-48L550-68L545-60L607-4L634 23L658 51L680 78L700 105L716 133L731 161L742 189L754 225L812 196L824 181L803 176L798 165L781 133L762 104L760 101L788 94L814 86L838 77L861 68L904 49L942 27L959 16L971-6L964-30L942-40L918-33L906-21ZM509-16L499-4L474 19L444 42L371 92L364 82L340 56L314 32L284 9L252-13L216-34L178-52L173-44L205-17L261 35L285 61L306 87L324 112L339 138L352 163L361 189L371 224L430 197L443 183L423 177L418 167L403 137L385 109L383 107L399 103L422 96L465 80L484 72L520 53L536 43L552 32L562 10L554-13L532-24L509-16ZM216 236L216 258L410 258L410 397L243 397L243 418L410 418L410 539L474 528L490 518L474 508L474 418L684 418L684 539L749 528L765 518L749 508L749 418L824 418L878 472L942 418L942 397L749 397L749 258L851 258L904 311L969 258L969 236L216 236ZM684 397L474 397L474 258L684 258L684 397ZM630 871L695 861L711 850L695 840L695 774L861 774L915 828L980 774L980 753L695 753L695 681L630 648L630 753L394 753L394 681L329 648L329 753L44 753L44 774L329 774L329 871L394 861L410 850L394 840L394 774L630 774L630 871Z"/></svg>