<svg id="U2CD66" viewBox="0 0 1024 1024"><path transform="translate(0, 921.6) scale(1,-1)" d="M792-26L792-10L845-10L852-10L857-9L861-7L864-5L865 0L866 5L867 11L867 116L730 116L730-38L665-70L665 116L528 116L528-38L464-70L464 444L528 412L665 412L665 499L411 499L411 521L665 521L665 645L730 634L746 623L730 613L730 521L865 521L918 575L983 521L983 499L730 499L730 412L867 412L899 439L958 390L931 369L931 11L930-2L928-16L924-28L917-41L908-52L897-60L885-67L872-72L859-74L845-75L845-42L792-26ZM77-78L53-75L38-55L42-31L50-20L58-7L65 8L72 25L79 43L91 87L101 137L105 165L115 165L121 109L122 83L122 59L121 35L118 13L115-8L110-28L104-46L97-64L77-78ZM264 19L263 33L261 48L259 62L257 76L253 90L243 119L237 133L229 147L236 153L261 131L273 119L284 106L293 93L302 78L310 63L317 47L323 30L328 13L321-11L300-23L277-17L264 5L264 19ZM214-37L190-45L168-33L161-10L164 3L166 16L168 29L169 44L170 59L169 75L167 110L165 128L160 147L170 151L178 133L188 117L196 99L210 66L219 33L222 17L224 1L225-16L214-37ZM359 59L356 72L351 85L341 110L335 123L321 147L311 158L317 165L330 157L344 149L357 141L380 120L401 95L410 81L418 66L426 50L424 26L405 10L380 12L365 31L359 59ZM665 253L528 253L528 138L665 138L665 253ZM867 253L730 253L730 138L867 138L867 253ZM148 229L89 199L89 583L70 557L49 533L41 538L99 688L121 753L142 821L150 852L154 866L213 838L225 824L206 818L183 761L278 761L310 788L370 740L343 724L329 718L308 685L284 655L254 622L228 595L325 595L355 621L411 573L385 554L385 229L325 199L325 229L148 229ZM210 401L148 401L148 251L210 251L210 401ZM325 401L264 401L264 251L325 251L325 401ZM665 390L528 390L528 275L665 275L665 390ZM867 390L730 390L730 275L867 275L867 390ZM210 573L148 573L148 423L210 423L210 573ZM325 573L264 573L264 423L325 423L325 573ZM864 534L841 544L823 568L816 576L798 592L788 600L765 616L752 621L754 631L769 628L783 627L798 625L813 623L826 619L839 614L864 603L876 596L887 589L896 566L887 543L864 534ZM276 740L174 740L157 700L124 639L109 614L148 595L214 595L225 614L245 655L260 691L267 707L272 723L275 737L276 740ZM759 874L824 863L840 853L824 843L824 771L871 771L925 825L989 771L989 749L824 749L824 672L759 640L759 749L636 749L636 672L571 640L571 749L405 749L405 771L571 771L571 874L636 863L652 853L636 843L636 771L759 771L759 874Z"/></svg>