<svg id="U2C525" viewBox="0 0 1024 1024"><path transform="translate(0, 921.6) scale(1,-1)" d="M426-34L426-13L676-13L676 95L486 95L486 116L676 116L676 245L556 245L556 208L491 175L491 573L556 541L676 541L676 638L432 638L432 659L676 659L676 743L611 733L567 729L523 726L477 725L475 734L645 779L723 801L796 825L864 849L867 841L916 799L917 782L895 792L885 788L849 778L774 761L740 754L740 659L862 659L916 713L980 659L980 638L740 638L740 541L860 541L893 568L952 519L925 498L925 224L860 191L860 245L740 245L740 116L825 116L879 170L943 116L943 95L740 95L740-13L868-13L922 41L987-13L987-34L426-34ZM38 85L257 165L253 166L265 270L282 404L287 444L292 480L295 513L298 544L300 573L302 583L364 564L379 551L360 543L345 471L317 354L279 215L264 167L352 198L435 223L438 214L364 171L216 97L93 39L89 19L73 30L38 85ZM139 257L138 292L137 326L135 361L132 395L129 430L125 463L113 567L123 569L137 537L149 504L159 470L177 402L184 368L191 332L196 297L201 261L204 225L196 203L174 192L151 200L140 223L139 257ZM676 380L556 380L556 267L676 267L676 380ZM860 380L740 380L740 267L860 267L860 380ZM676 519L556 519L556 401L676 401L676 519ZM860 519L740 519L740 401L860 401L860 519ZM51 616L51 638L198 638L198 847L262 837L278 826L262 816L262 638L309 638L363 691L427 638L427 616L51 616Z"/></svg>