<svg id="U2CAFC" viewBox="0 0 1024 1024"><path transform="translate(0, 921.6) scale(1,-1)" d="M683 520L747 488L828 488L860 515L920 467L893 445L893 28L894 24L895 20L896 17L897 17L899 16L902 15L907 14L914 13L927 13L959 148L970 148L959 13L979 1L992-19L979-38L959-51L914-51L900-51L887-48L874-44L861-37L851-28L842-17L836-5L831 8L829 21L828 35L828 467L747 467L747 254L744 208L739 165L731 124L721 87L708 52L692 19L674-10L653-35L630-58L604-75L597-68L615-44L630-18L644 8L655 36L665 67L672 99L678 134L682 171L683 211L683 254L683 520ZM593 404L589 412L584 420L577 430L569 439L549 459L523 480L517 483L506 462L489 434L452 381L431 355L428 352L530 352L574 401L628 352L628 331L536 331L536 240L552 240L596 289L650 240L650 219L536 219L536 32L580 39L610 42L641 46L644 36L616 23L588 11L531-10L444-37L387-53L379-54L371-74L358-60L335 2L346 4L375 8L404 12L433 16L462 20L471 22L471 219L354 219L354 240L471 240L471 331L420 331L420 343L385 307L359 285L331 264L325 271L381 353L414 406L442 460L454 488L478 551L535 520L546 504L526 501L522 494L528 492L545 488L562 483L577 477L592 471L605 465L617 458L629 450L640 441L650 432L654 408L640 387L616 383L596 397L593 404ZM81 525L146 492L252 492L285 519L344 471L317 449L317 8L316-5L314-19L309-32L302-44L294-55L283-64L271-70L258-75L244-77L231-78L231-46L145-30L145-13L231-13L237-13L242-12L245-11L247-10L249-8L251-3L252 2L252 8L252 175L146 175L146 166L143 129L139 95L134 63L127 35L118 9L108-15L95-34L81-52L65-64L48-73L43-65L52-51L59-35L65-19L71 0L75 21L79 45L81 71L82 100L82 132L81 166L81 525ZM405 42L393 64L395 81L394 90L393 99L391 109L387 119L383 130L378 141L371 153L362 163L368 170L380 162L392 155L404 147L414 139L424 129L433 119L440 108L447 96L453 84L457 71L450 47L429 35L405 42ZM585 189L640 155L651 139L626 136L609 116L591 97L571 78L560 69L551 59L544 65L550 76L559 102L570 138L577 161L581 177L579 177L585 189ZM252 327L146 327L146 197L252 197L252 327ZM252 471L146 471L146 348L252 348L252 471ZM964 750L454 750L400 694L367 662L331 632L313 618L327 618L669 637L735 640L638 707L642 716L672 709L701 699L728 688L754 676L779 663L802 648L846 617L866 600L885 583L893 559L882 537L859 529L837 540L823 557L790 592L757 622L672 608L534 589L398 572L160 545L150 528L138 543L122 606L133 607L197 611L280 616L372 746L375 750L55 750L55 772L480 772L480 876L544 866L560 855L544 845L544 772L845 772L899 826L964 772L964 750Z"/></svg>