<svg id="U2CB36" viewBox="0 0 1024 1024"><path transform="translate(0, 921.6) scale(1,-1)" d="M903 1L896-11L887-21L878-30L867-38L856-45L844-49L831-53L817-55L804-56L804-24L696-8L696 9L804 9L811 9L817 10L823 12L828 13L832 16L836 19L839 23L843 27L846 32L850 39L857 58L863 84L870 118L875 159L881 207L885 262L889 323L892 391L895 466L896 535L701 535L691 488L664 385L631 290L593 204L550 126L501 56L447-4L389-54L382-47L432 10L478 73L519 143L556 220L588 305L615 398L638 499L644 535L421 535L421 525L276 525L276 342L325 342L379 396L444 342L444 320L276 320L276 90L375 164L422 195L429 188L394 144L343 85L265 1L264 2L233-29L179 25L211 57L211 320L53 320L53 342L211 342L211 525L139 525L139 546L323 546L367 595L414 552L414 557L648 557L657 608L671 725L679 844L680 862L744 846L759 834L742 825L731 718L714 599L705 557L896 557L929 584L988 535L961 519L960 519L959 464L957 389L953 319L950 257L945 201L939 151L933 108L926 70L918 39L909 13L903 1ZM758 241L753 260L748 279L741 297L724 332L715 349L692 383L678 399L684 407L721 384L738 370L754 355L769 338L783 320L795 301L806 281L816 259L824 237L821 212L801 197L777 201L762 221L758 241ZM206 872L263 842L275 827L255 823L213 726L204 707L321 707L375 761L439 707L439 686L194 686L129 553L77 459L48 410L39 414L163 747L191 827L202 864L206 872ZM535 649L532 665L524 696L511 728L495 761L476 796L464 813L471 820L504 793L534 765L559 734L570 718L580 702L589 685L596 668L594 644L575 628L550 631L535 649Z"/></svg>