<svg id="U2C2B6" viewBox="0 0 1024 1024"><path transform="translate(0, 921.6) scale(1,-1)" d="M361-69L361-47L447-47L447 317L511 285L840 285L872 312L931 263L904 242L904-47L934-47L958-15L990-47L990-69L361-69ZM313 97L307 115L301 133L282 171L271 192L230 256L226 237L211 182L192 130L168 82L142 39L111 1L76-32L37-60L31-52L61-18L88 19L111 58L132 101L149 146L163 195L173 247L180 304L184 364L184 847L248 837L264 826L248 816L248 546L326 652L346 682L347 681L349 684L396 640L401 621L380 625L303 555L264 523L248 511L248 428L244 361L237 297L234 277L264 253L302 215L319 196L334 177L347 158L359 138L370 118L378 98L375 74L357 58L332 61L316 80L313 97ZM582 263L511 263L511-47L582-47L582 263ZM710 263L641 263L641-47L710-47L710 263ZM840 263L770 263L770-47L840-47L840 263ZM547 861L611 850L628 839L611 830L611 385L547 353L547 861ZM77 352L53 355L39 376L43 400L52 414L61 432L70 451L76 472L82 496L86 522L89 550L92 580L94 648L103 649L113 615L120 582L124 551L127 520L127 491L125 463L122 437L116 412L108 388L97 366L77 352ZM411 813L475 803L492 792L475 782L475 421L411 389L411 813ZM836 435L830 457L824 477L818 496L811 512L803 528L796 541L788 554L779 567L768 576L772 585L787 580L803 573L818 562L833 550L846 535L859 518L871 499L882 477L893 454L903 429L900 405L880 390L856 393L840 412L836 435ZM734 871L796 852L811 839L793 831L788 806L779 762L768 719L755 678L754 676L864 676L908 725L962 676L962 655L747 655L725 598L708 561L689 525L668 491L644 459L636 464L675 575L687 612L707 691L715 732L722 774L728 816L732 860L734 871Z"/></svg>