<svg id="U2CB25" viewBox="0 0 1024 1024"><path transform="translate(0, 921.6) scale(1,-1)" d="M975 175L710 175L750 133L773 111L797 90L800 88L868 163L871 167L875 173L916 122L918 103L895 111L844 87L817 75L848 54L874 40L901 27L930 16L999-6L936-60L903-46L873-30L844-11L816 10L790 32L766 58L744 84L725 114L707 145L695 175L692 175L658 142L636 124L611 106L594 96L594 15L617 17L648 21L711 27L743 30L775 31L778 21L747 9L656-19L595-35L503-58L495-59L487-78L473-64L452-2L463-1L493 3L524 6L529 7L529 63L493 49L458 38L421 28L382 21L379 31L447 65L507 97L557 132L579 149L597 167L605 175L387 175L387 197L560 197L560 253L449 253L449 274L560 274L560 331L418 331L418 352L560 352L560 416L610 407L610 425L536 425L472 392L472 560L536 528L610 528L637 555L690 506L664 490L664 425L624 405L640 394L624 384L624 352L738 352L738 416L802 405L818 394L802 384L802 352L887 352L911 384L944 352L944 331L802 331L802 274L815 274L859 323L913 274L913 253L802 253L802 197L898 197L932 234L975 197L975 175ZM75-42L48 17L153 41L199 53L199 374L70 374L70 396L199 396L199 546L141 546L141 568L268 568L312 616L366 568L366 546L264 546L264 396L292 396L336 444L389 396L389 374L264 374L264 70L346 92L380 99L384 90L353 73L293 41L231 15L168-10L106-32L96-36L89-55L75-42ZM115 141L115 158L114 174L111 190L108 205L104 221L93 254L86 271L77 287L85 293L112 267L125 253L136 238L146 221L156 204L163 187L170 168L175 149L179 130L171 106L150 95L126 103L115 125L115 141ZM320 312L379 284L391 269L369 264L346 220L337 204L306 156L283 125L274 130L280 148L285 166L294 202L307 254L311 271L316 299L320 312ZM738 253L624 253L624 197L738 197L738 253ZM738 331L624 331L624 274L738 274L738 331ZM403 447L381 459L375 483L387 504L393 506L399 511L405 517L411 527L418 539L424 554L429 571L439 612L441 635L451 635L453 611L455 599L649 599L649 645L531 645L467 612L467 782L531 749L649 749L649 792L401 792L401 814L649 814L649 876L714 866L730 855L714 845L714 814L863 814L907 862L961 814L961 792L714 792L714 749L831 749L863 776L922 728L895 706L895 645L831 612L831 645L714 645L714 599L908 599L940 626L1000 577L973 561L952 553L939 534L932 523L914 499L908 485L899 488L900 492L890 485L890 425L826 392L826 425L752 425L699 398L699 555L752 528L826 528L858 555L905 517L907 533L908 546L908 577L457 577L458 568L458 548L458 529L455 512L451 496L445 480L437 466L427 453L403 447ZM329 663L324 676L317 689L309 703L300 716L278 744L250 773L243 779L216 712L196 669L153 588L129 549L103 512L75 476L45 441L38 447L98 567L117 607L150 689L179 774L192 817L205 870L265 845L278 830L258 825L250 799L247 791L278 777L296 768L314 757L330 746L358 720L371 706L382 692L392 677L393 652L377 634L352 633L334 650L329 663ZM826 506L752 506L752 446L826 446L826 506ZM610 506L536 506L536 446L610 446L610 506ZM649 728L531 728L531 666L649 666L649 728ZM831 728L714 728L714 666L831 666L831 728Z"/></svg>