<svg id="U2C986" viewBox="0 0 1024 1024"><path transform="translate(0, 921.6) scale(1,-1)" d="M787-49L654-45L536-34L433-16L345 8L271 39L213 77L171 122L146 173L139 135L128 91L116 51L102 14L86-19L68-49L48-74L39-69L50-40L59-9L68 25L77 62L84 101L89 144L94 189L98 237L100 289L101 344L102 356L166 341L182 330L164 320L161 285L156 232L154 219L167 182L195 142L236 108L245 103L245 476L310 466L326 455L310 445L310 288L387 288L431 337L485 288L485 267L310 267L310 73L359 56L444 38L543 25L657 18L786 18L931 23L992 25L933-48L787-49ZM792 73L783 89L773 104L760 119L745 135L728 151L686 182L662 198L635 215L638 223L670 215L699 206L725 195L750 183L764 175L841 355L849 376L700 376L699 372L630 349L654 516L510 516L510 538L657 538L679 685L560 685L560 707L682 707L706 872L768 853L782 839L765 834L747 707L818 707L872 761L936 707L936 685L744 685L723 538L868 538L922 591L986 538L986 516L720 516L703 398L856 398L888 425L947 376L920 360L907 355L880 307L817 211L782 163L793 155L812 140L829 123L844 105L856 85L857 60L840 42L815 42L797 58L792 73ZM59 476L59 498L245 498L245 670L75 670L75 691L245 691L245 874L310 863L326 853L310 843L310 691L361 691L415 745L480 691L480 670L310 670L310 498L372 498L426 552L490 498L490 476L59 476Z"/></svg>