<svg id="U2C8BF" viewBox="0 0 1024 1024"><path transform="translate(0, 921.6) scale(1,-1)" d="M481 259L545 226L808 226L840 253L900 205L873 183L873-26L808-58L808-4L545-4L545-42L481-74L481 259ZM68 256L132 224L286 224L318 251L377 202L350 181L350-24L286-56L286-2L132-2L132-40L68-72L68 256ZM808 205L545 205L545 17L808 17L808 205ZM286 202L132 202L132 19L286 19L286 202ZM888 335L858 356L800 404L748 458L724 488L702 519L682 552L680 556L664 525L638 485L610 446L578 410L544 375L506 342L465 311L422 283L374 258L370 266L410 299L447 334L482 368L514 403L543 439L569 476L593 513L613 552L630 592L643 628L647 641L706 611L717 596L697 592L690 576L727 539L780 490L807 467L835 446L893 410L922 394L981 364L921 316L888 335ZM759 401L824 347L824 326L542 326L542 347L706 347L759 401ZM282 412L347 358L347 337L71 337L71 358L229 358L282 412ZM282 552L347 498L347 476L71 476L71 498L229 498L282 552ZM746 869L811 858L827 847L811 838L811 745L852 745L906 799L971 745L971 724L811 724L811 621L746 589L746 724L590 724L590 621L526 589L526 724L406 724L406 745L526 745L526 869L590 858L607 847L590 838L590 745L746 745L746 869ZM326 702L391 648L391 627L52 627L52 648L272 648L326 702ZM282 842L347 788L347 767L71 767L71 788L229 788L282 842Z"/></svg>