<svg id="U2CBFA" viewBox="0 0 1024 1024"><path transform="translate(0, 921.6) scale(1,-1)" d="M351-25L351-9L465-9L470-8L473-6L474-5L475-5L477-4L478 1L479 6L480 13L480 231L50 231L50 252L540 252L528 262L510 275L490 287L444 312L390 337L295 375L297 385L334 382L368 376L401 370L431 363L460 354L488 345L514 335L537 325L687 406L704 416L146 416L146 438L739 438L764 454L766 452L781 464L840 416L813 400L749 373L749 377L681 351L622 331L590 321L561 313L582 302L595 281L589 256L582 252L866 252L886 268L888 265L904 279L964 231L937 215L880 191L842 172L794 150L768 139L711 119L680 110L677 118L836 228L839 231L544 231L544 13L543-1L541-15L537-27L530-39L521-51L510-59L498-66L485-70L472-73L458-73L458-41L351-25ZM66 563L46 578L43 602L57 622L67 627L77 633L86 641L95 652L103 664L110 680L117 698L123 718L128 740L131 764L141 765L144 740L145 727L480 727L480 800L157 800L157 821L791 821L835 870L888 821L888 800L544 800L544 727L904 727L907 729L909 733L910 732L937 754L996 705L969 689L946 680L917 652L897 634L886 626L874 619L865 610L858 616L865 627L898 705L544 705L544 499L480 467L480 705L147 705L147 693L146 671L142 650L137 631L129 613L118 596L106 581L91 567L66 563ZM824 587L878 539L878 517L598 517L598 539L780 539L824 587ZM372 587L426 539L426 517L146 517L146 539L328 539L372 587ZM786 677L840 628L840 607L598 607L598 628L742 628L786 677ZM372 677L426 628L426 607L173 607L173 628L328 628L372 677Z"/></svg>