<svg id="U2C9B5" viewBox="0 0 1024 1024"><path transform="translate(0, 921.6) scale(1,-1)" d="M744-25L740-25L728-41L734-63L715-60L660-24L667-17L679-6L680-5L680 388L607 388L607 409L680 409L680 850L744 840L760 829L744 819L744 522L818 647L881 763L884 768L937 731L945 713L925 713L860 619L818 566L773 515L750 491L744 486L744 409L845 409L899 463L964 409L964 388L808 388L833 287L847 240L863 196L879 157L897 122L916 91L936 65L958 42L993 13L935-31L909-4L886 27L865 61L847 98L832 139L820 183L809 230L802 281L797 335L796 388L744 388L744 45L789 78L809 91L828 105L835 97L820 79L806 60L744-19L744-25ZM41 27L51 31L79 38L79 396L138 385L153 374L138 365L138 56L192 74L192 509L141 509L141 492L77 460L77 820L141 788L291 788L323 815L382 767L356 745L356 476L291 444L291 509L251 509L251 310L292 310L325 347L368 310L368 288L251 288L251 94L340 126L373 137L378 128L320 88L259 54L198 23L135-5L92-23L86-43L71-31L41 27ZM571-11L565-23L557-34L548-44L538-53L527-60L514-65L501-69L488-71L474-72L474-40L367-24L367-8L474-8L481-7L488-6L493-4L496-3L500-1L503 2L509 10L512 15L515 22L525 62L529 88L534 117L537 150L543 225L545 268L546 314L547 353L461 353L456 286L389 259L416 619L475 584L544 584L544 783L401 783L401 804L544 804L576 831L635 783L608 761L608 530L544 498L544 562L477 562L462 374L547 374L579 401L638 353L611 337L611 336L609 266L607 222L604 181L601 144L597 109L593 78L588 49L582 24L576 2L571-11ZM291 767L141 767L141 530L291 530L291 767Z"/></svg>