<svg id="U2CF64" viewBox="0 0 1024 1024"><path transform="translate(0, 921.6) scale(1,-1)" d="M560 853L625 842L641 831L625 821L625 654L770 654L824 707L888 654L888 632L625 632L625 310L851 310L904 363L969 310L969 288L625 288L625-45L560-77L560 288L55 288L55 310L560 310L560 632L136 632L136 654L560 654L560 853ZM327 602L308 591L307 573L299 535L287 500L279 483L304 474L327 465L347 455L366 444L384 432L401 419L417 405L431 391L445 376L449 352L436 331L412 326L391 340L384 354L375 368L353 396L325 424L274 468L272 469L251 437L227 408L199 383L168 361L133 341L94 325L90 334L122 359L150 383L175 409L195 434L213 461L226 489L236 518L242 548L246 580L246 626L310 613L327 602Z"/></svg>