<svg id="U2C813" viewBox="0 0 1024 1024"><path transform="translate(0, 921.6) scale(1,-1)" d="M542-24L542-8L649-8L656-8L660-7L664-6L665-5L666-4L667-3L668-1L669 2L670 7L671 13L671 169L438 169L438 190L671 190L671 287L720 278L789 361L532 361L532 382L807 382L817 395L819 392L839 409L899 361L872 345L837 330L792 299L760 281L744 273L742 271L751 265L735 255L735 190L852 190L906 244L970 190L970 169L735 169L735 13L734-1L732-14L728-27L721-39L712-49L701-59L689-65L676-69L663-72L649-73L649-40L542-24ZM378 66L377 87L374 109L370 130L368 134L328 104L270 69L210 37L115-6L103-12L98-32L82-20L51 38L159 72L219 94L219 337L146 337L146 272L82 240L82 686L146 654L219 654L219 869L284 858L300 847L284 838L284 654L356 654L388 681L447 632L421 611L421 337L356 304L356 337L284 337L284 118L345 142L364 148L357 173L339 216L329 238L317 260L324 266L344 248L361 230L378 210L392 190L404 168L415 146L425 123L432 98L438 74L443 49L435 25L413 15L390 23L379 44L378 66ZM219 632L146 632L146 358L219 358L219 632ZM356 632L284 632L284 358L356 358L356 632ZM936 431L913 443L867 475L823 516L802 540L760 595L740 626L738 630L738 439L673 407L673 597L645 563L620 537L594 512L566 489L538 468L508 449L476 433L443 419L438 427L516 495L561 544L603 596L622 625L639 654L641 657L453 657L453 679L673 679L673 774L625 768L584 764L540 761L495 761L494 770L657 813L726 833L787 854L839 875L843 866L890 825L891 809L870 818L834 806L804 798L738 784L738 679L846 679L900 733L965 679L965 657L739 657L833 571L857 553L880 537L901 524L922 512L943 504L998 483L936 431Z"/></svg>