<svg id="U2C52C" viewBox="0 0 1024 1024"><path transform="translate(0, 921.6) scale(1,-1)" d="M865-34L843-47L832-53L821-58L809-62L797-65L786-68L773-70L761-71L749-72L749-39L641-23L641-7L749-7L766-6L782-3L790-1L797 2L805 5L813 9L820 13L827 18L837 27L848 41L858 59L867 82L876 109L883 141L889 178L894 219L897 264L899 302L692 302L673 232L602 219L674 471L446 471L440 406L427 334L404 267L375 204L338 146L294 92L243 43L185-1L118-39L46-72L42-63L108-21L167 23L219 69L264 119L301 171L331 226L354 285L370 347L380 413L382 471L120 471L120 493L679 493L711 520L770 471L743 455L732 451L698 324L899 324L931 351L990 302L964 286L962 285L961 261L958 213L953 169L946 129L938 92L928 60L916 31L902 5L885-16L865-34ZM337 587L332 600L325 614L317 629L307 643L282 673L252 703L239 713L216 713L183 658L159 626L134 596L106 567L75 540L42 516L35 523L84 586L125 649L144 682L160 714L174 748L186 782L196 817L207 861L267 836L280 821L261 815L255 798L240 761L227 734L426 734L480 788L544 734L544 713L267 713L282 707L302 697L337 673L352 660L367 646L380 630L391 614L401 597L401 573L384 555L359 556L342 573L337 587ZM762 587L757 600L750 614L742 629L732 643L707 673L677 703L664 713L638 713L629 697L607 666L584 636L558 609L530 583L499 560L466 539L460 546L509 603L551 661L569 691L585 721L599 753L611 785L621 818L632 861L692 836L705 821L685 815L680 799L665 763L650 734L856 734L910 788L974 734L974 713L692 713L707 707L727 697L761 673L777 660L792 646L804 630L816 614L826 597L825 573L808 555L783 556L766 573L762 587Z"/></svg>