<svg id="U2C8D8" viewBox="0 0 1024 1024"><path transform="translate(0, 921.6) scale(1,-1)" d="M929-38L865-1L835 19L779 65L753 89L729 115L707 142L686 171L684 175L684-41L620-74L620 143L609 130L581 101L552 74L521 49L488 26L452 6L415-12L377-27L335-40L331-31L367-9L434 36L464 60L492 84L518 110L542 137L564 166L584 195L586 199L352 199L352 220L620 220L620 323L684 312L700 301L684 291L684 220L833 220L887 274L951 220L951 199L688 199L756 143L809 104L837 87L866 70L927 40L959 27L990 12L929-38ZM50 256L115 224L238 224L270 251L329 202L302 181L302-24L238-56L238-2L115-2L115-40L50-72L50 256ZM238 202L115 202L115 19L238 19L238 202ZM836 853L835 853L840 863L895 828L904 811L879 809L852 782L831 762L806 741L802 737L825 719L834 711L851 692L852 680L896 762L908 785L960 747L968 730L947 730L874 636L837 594L822 579L860 581L879 582L897 583L916 583L918 583L916 589L913 600L904 625L897 635L904 642L914 633L925 625L936 616L946 605L954 595L963 583L970 571L976 558L982 545L987 531L980 507L959 495L936 501L923 522L923 533L923 544L923 555L921 566L921 568L888 553L888 305L823 273L823 463L814 458L804 426L799 409L792 392L775 359L765 342L754 326L744 310L735 314L740 332L746 368L749 386L751 403L754 437L754 468L754 479L753 479L753 480L735 467L735 371L675 341L675 371L620 371L560 341L560 369L542 356L517 361L503 381L502 405L501 417L500 428L497 440L492 462L489 473L485 484L480 491L480 305L416 273L416 450L407 421L400 403L392 386L373 353L362 337L338 306L330 311L336 328L341 347L349 382L352 399L354 416L357 433L358 449L358 466L358 476L359 487L348 499L329 562L339 563L358 563L377 564L387 565L400 594L424 641L420 638L395 639L379 657L377 675L371 693L367 702L363 711L352 731L345 741L336 748L341 756L352 750L364 746L376 740L386 734L395 764L404 792L424 855L426 860L429 866L484 832L494 816L471 814L458 796L430 761L420 749L397 728L397 727L407 719L416 710L425 700L439 679L439 670L495 786L496 786L499 791L552 755L561 738L541 737L492 664L442 598L424 577L414 566L432 568L451 569L470 570L488 571L502 572L501 578L495 598L492 609L488 619L484 630L477 639L484 646L493 638L503 632L514 625L523 617L532 607L540 597L556 575L562 563L568 551L565 534L620 507L675 507L705 534L755 491L755 496L818 480L823 476L823 530L795 522L780 518L770 498L757 512L738 575L749 576L798 578L835 648L813 647L794 662L792 671L789 681L781 698L777 707L772 717L761 735L754 745L745 752L751 760L761 754L773 750L784 746L792 742L796 749L814 791L828 827L832 838L835 848L836 853ZM241 406L295 358L295 337L58 337L58 358L197 358L241 406ZM918 391L917 415L914 439L911 451L904 476L898 487L906 492L915 483L925 474L935 463L944 453L952 441L959 429L966 416L972 403L976 389L981 374L974 351L952 339L929 346L917 368L918 391ZM675 485L620 485L620 392L675 392L675 485ZM505 546L504 554L494 548L480 542L480 495L486 500L495 492L515 476L524 467L533 456L548 434L555 421L560 409L560 523L544 511L520 515L506 535L505 546ZM241 546L295 498L295 476L58 476L58 498L197 498L241 546ZM416 477L416 518L371 505L365 492L416 477ZM678 620L721 583L721 561L575 561L575 583L644 583L678 620ZM268 702L332 648L332 627L41 627L41 648L214 648L268 702ZM678 699L721 661L721 640L575 640L575 661L644 661L678 699ZM701 783L744 746L744 724L565 724L565 746L667 746L701 783ZM241 837L295 788L295 767L58 767L58 788L197 788L241 837ZM678 862L721 824L721 803L575 803L575 824L644 824L678 862Z"/></svg>