<svg id="U2C11A" viewBox="0 0 1024 1024"><path transform="translate(0, 921.6) scale(1,-1)" d="M321 350L316 363L302 388L294 400L286 412L266 435L249 453L249-45L185-77L185 414L163 355L144 309L122 264L99 221L74 180L46 141L38 146L73 233L106 324L120 370L145 465L156 514L164 565L170 600L42 600L42 621L185 621L185 863L249 853L265 842L249 832L249 621L261 621L315 675L379 621L379 600L249 600L249 472L266 466L283 459L299 451L327 432L341 421L366 397L377 383L380 359L366 339L341 336L321 350ZM801 13L833 147L844 147L833 13L853 0L866-19L853-39L833-52L606-52L593-51L579-48L566-44L554-38L543-28L534-18L528-5L523 8L521 21L520 34L520 224L585 213L601 202L585 192L585 34L585 28L586 23L587 20L588 18L589 17L589 16L592 16L595 15L600 13L606 13L801 13ZM396-22L374-11L366 12L377 34L386 41L395 49L403 61L411 75L420 92L427 112L432 134L438 160L444 188L447 218L457 218L460 187L464 158L465 131L464 105L461 82L457 59L451 39L443 19L432 2L420-14L396-22ZM907 51L903 68L899 86L894 104L887 121L880 138L861 173L850 190L838 206L844 214L879 189L895 174L910 159L924 142L936 125L947 106L957 87L965 67L973 45L968 21L947 7L923 12L909 32L907 51ZM697 109L688 138L683 152L677 166L664 191L638 228L627 239L632 247L646 240L661 233L676 224L689 215L702 204L715 192L737 165L757 134L756 109L739 92L714 92L697 109ZM372 287L372 309L569 309L569 460L491 460L491 396L427 363L427 690L491 658L569 658L569 785L389 785L389 807L833 807L887 861L951 807L951 785L772 785L772 658L850 658L882 685L941 637L914 615L914 428L850 396L850 460L772 460L772 309L850 309L904 362L968 309L968 287L372 287ZM708 785L633 785L633 615L569 583L569 637L491 637L491 482L569 482L601 509L660 460L633 439L633 309L708 309L708 514L772 482L850 482L850 637L772 637L772 599L708 567L708 785Z"/></svg>