<svg id="U2C244" viewBox="0 0 1024 1024"><path transform="translate(0, 921.6) scale(1,-1)" d="M467-4L467-42L403-74L403 247L467 215L830 215L863 242L922 194L895 172L895-26L830-58L830-4L467-4ZM187-58L164-66L142-55L134-32L137 6L137 41L135 72L130 100L123 125L116 140L114 140L115 143L113 147L101 167L85 185L67 202L44 218L48 227L77 220L103 209L127 191L132 185L255 445L325 581L334 577L220 268L194 190L185 161L179 139L177 125L173 126L178 115L188 82L195 46L199 6L199-37L187-58ZM545 194L467 194L467 17L545 17L545 194ZM688 194L610 194L610 17L688 17L688 194ZM830 194L752 194L752 17L830 17L830 194ZM341 300L341 321L615 321L615 451L444 451L444 472L615 472L615 601L423 601L423 623L753 623L807 676L871 623L871 601L679 601L679 472L731 472L785 526L850 472L850 451L679 451L679 321L855 321L899 370L953 321L953 300L341 300ZM142 481L136 491L130 502L111 524L87 546L72 557L55 568L36 578L39 587L60 582L81 577L100 571L118 564L135 557L151 548L166 538L179 527L191 514L202 501L204 476L189 457L164 455L145 470L142 481ZM351 585L330 597L324 621L336 643L342 646L348 650L355 659L362 669L368 683L374 699L380 718L385 739L390 762L393 788L402 788L405 762L407 747L617 747L617 877L681 866L697 855L681 846L681 747L894 747L926 774L985 726L958 710L938 701L931 689L898 640L890 625L881 628L887 645L888 661L890 676L893 690L894 703L894 726L409 726L410 714L410 693L409 673L406 654L401 637L395 620L386 605L375 592L351 585ZM217 716L207 738L192 760L182 771L171 782L145 804L130 816L113 825L116 834L135 828L154 824L173 819L190 812L207 804L222 795L236 785L250 774L262 762L273 749L276 724L261 705L237 702L217 716Z"/></svg>