<svg id="U2CB5B" viewBox="0 0 1000 1000"><path transform="translate(0, 900) scale(1,-1)" d="M354 784C393 744 440 688 462 653L514 691C490 724 442 778 403 816ZM334 509C377 471 431 417 458 385L507 425C480 457 425 508 382 543ZM313-30L372-60C407 28 448 150 478 251L425 281C393 172 347 46 313-30ZM700 641L700 453L595 453L595 462L595 641ZM530 705L530 463C530 315 521 106 430-43C446-49 475-64 488-75C568 58 589 243 594 391L604 391C628 286 662 192 710 114C660 53 603 5 542-26C557-39 575-64 584-79C644-45 699 1 748 58C793 0 848-45 914-76C924-58 944-33 960-20C891 8 835 54 789 112C849 200 895 309 921 441L879 456L867 453L764 453L764 641L869 641C856 604 842 568 830 541L881 515C904 560 930 630 952 692L907 709L898 705L764 705L764 838L700 838L700 705ZM844 391C823 308 790 234 750 171C712 235 684 310 664 391ZM129 840C109 748 75 659 29 597C42 582 61 546 67 531C95 567 120 613 141 663L338 663L338 727L166 727C177 759 186 791 194 823ZM48 344L48 275L165 275L165 71C165 29 133-1 115-12C127-27 145-56 151-74C164-56 187-34 347 84C340 96 330 122 325 141L230 75L230 275L336 275L336 344L230 344L230 481L311 481L311 547L85 547L85 481L165 481L165 344Z"/></svg>