<svg id="U2CD36" viewBox="0 0 1024 1024"><path transform="translate(0, 921.6) scale(1,-1)" d="M373 259L397 328L408 328L397 259L409 251L409 366L338 366L338 288L338 282L338 276L338 273L339 270L339 268L341 266L343 264L347 262L352 260L360 259L373 259ZM558 828L617 799L857 799L911 853L975 799L975 777L617 777L617 444L848 444L902 498L966 444L966 423L783 423L795 368L808 311L823 258L834 226L851 256L917 360L922 367L969 323L975 304L953 308L890 250L859 223L842 209L840 207L859 162L880 119L902 81L927 46L953 14L990-22L932-65L902-30L875 9L851 51L830 96L812 144L797 195L786 248L777 305L773 365L772 423L721 423L721 57L768 76L794 85L820 94L824 85L803 68L760 35L626-53L624-74L607-65L567-14L576-9L661 31L661 423L617 423L617 401L614 338L609 277L602 220L592 167L580 117L566 71L549 28L530-10L507-45L482-74L475-69L491-35L506 1L519 40L530 82L539 126L547 175L553 226L556 281L558 340L558 828ZM335 181L388 133L388 111L292 111L292-39L227-72L227 111L130 111L130 133L291 133L335 181ZM182 366L115 366L115 181L121 186L132 199L142 213L151 230L159 249L166 270L172 294L177 321L180 351L182 366ZM107 714L172 682L352 682L384 709L443 660L416 639L416 475L352 443L352 486L172 486L172 470L107 438L107 714ZM352 660L172 660L172 507L352 507L352 660ZM857 681L921 627L921 605L650 605L650 627L803 627L857 681ZM412 853L477 799L477 777L52 777L52 799L358 799L412 853ZM472-8L470-22L466-34L459-47L450-58L439-66L427-73L414-77L401-80L387-81L387-48L334-32L334-16L387-16L394-16L399-15L403-13L406-11L407-6L408-1L409 5L409 218L397 210L347 210L334 212L322 215L310 220L300 228L291 238L284 249L279 262L275 275L274 288L274 366L245 366L241 341L232 309L223 279L211 252L199 228L184 209L167 191L149 178L129 170L115 167L115-43L50-75L50 420L115 388L409 388L441 414L500 366L473 345L473 5L472-8Z"/></svg>