<svg id="U2C587" viewBox="0 0 1024 1024"><path transform="translate(0, 921.6) scale(1,-1)" d="M265-29L265-45L200-77L200 217L181 203L121 166L87 148L52 131L47 139L156 235L200 280L200 295L210 290L238 323L253 344L261 355L189 355L189 339L125 306L125 660L189 628L404 628L436 655L495 606L468 585L468 344L404 312L404 355L285 355L320 326L326 308L305 310L260 265L265 263L505 263L507 264L529 296L553 326L555 329L555 660L620 628L834 628L866 655L925 606L899 585L899 344L834 312L834 355L620 355L593 342L621 310L623 290L601 297L574 282L551 270L535 263L855 263L888 301L931 263L931 241L571 241L571 174L769 174L813 223L867 174L867 153L571 153L571 82L769 82L813 130L867 82L867 60L571 60L571-8L867-8L921 46L985-8L985-29L265-29ZM507 60L265 60L265-8L507-8L507 60ZM507 153L265 153L265 82L507 82L507 153ZM507 241L265 241L265 174L507 174L507 241ZM834 442L620 442L620 376L834 376L834 442ZM404 442L189 442L189 376L404 376L404 442ZM834 524L620 524L620 464L834 464L834 524ZM404 524L189 524L189 464L404 464L404 524ZM834 606L620 606L620 546L834 546L834 606ZM404 606L189 606L189 546L404 546L404 606ZM338 675L334 684L328 694L320 703L299 724L286 734L254 757L244 763L217 763L201 744L180 722L157 701L131 681L103 663L73 646L41 631L36 639L108 708L146 752L176 797L188 819L198 842L208 873L266 842L277 826L256 823L238 791L233 784L426 784L480 838L544 784L544 763L289 763L316 754L333 747L348 740L362 731L375 722L386 712L397 700L400 676L386 656L361 653L342 667L338 675ZM763 675L759 684L752 694L745 703L723 724L710 734L679 757L669 763L640 763L604 727L581 707L555 690L528 674L497 659L466 647L461 655L511 697L534 718L572 759L587 779L601 800L613 821L623 843L633 873L690 842L702 826L681 823L663 792L657 784L856 784L910 838L974 784L974 763L714 763L741 754L758 747L773 740L787 731L800 722L811 712L822 700L825 676L810 656L786 653L766 667L763 675Z"/></svg>