<svg id="U2CCA0" viewBox="0 0 1024 1024"><path transform="translate(0, 921.6) scale(1,-1)" d="M321 656L314 672L307 688L298 704L277 735L252 767L238 782L207 713L165 635L157 621L246 621L279 659L322 621L322 600L156 600L156 621L121 565L111 552L165 525L286 525L318 552L378 503L351 482L351 256L286 224L286 267L165 267L165 159L272 159L316 208L370 159L370 138L165 138L165 35L276 35L320 84L373 35L373 14L165 14L165-45L100-77L100 537L72 502L45 474L38 480L108 619L141 695L173 777L206 872L264 842L275 827L256 823L245 798L245 797L267 785L286 774L303 761L320 748L350 717L363 701L374 684L385 666L385 641L368 623L343 623L325 640L321 656ZM615-66L601-65L588-62L575-58L563-51L552-42L543-32L537-19L532-6L530 7L529 20L529 191L594 181L610 170L594 160L594 20L594 14L595 9L596 6L597 4L597 3L599 2L601 2L604 1L609-1L615-1L801-1L833 133L844 133L833-1L853-14L866-33L853-53L833-66L615-66ZM410-37L388-26L381-3L392 19L400 25L409 32L417 42L425 55L432 70L439 89L445 109L451 132L456 158L459 185L469 185L475 130L477 105L475 82L473 60L470 39L464 19L456 1L446-16L433-30L410-37ZM904 31L901 47L897 63L892 80L886 96L879 111L861 144L851 160L838 175L844 182L878 159L894 147L908 133L921 118L933 102L944 84L954 67L962 48L969 28L965 4L945-10L921-5L906 15L904 31ZM696 98L692 111L687 124L682 137L676 148L661 172L645 196L634 205L639 213L653 206L667 200L681 192L694 184L707 174L718 163L730 152L740 139L750 125L759 111L759 86L743 68L718 68L700 85L696 98ZM515 844L664 844L669 851L671 850L696 871L755 823L728 806L727 806L766 774L815 740L841 724L868 710L895 697L924 684L989 659L928 607L896 623L866 640L810 678L785 699L739 746L720 771L705 793L671 753L612 697L579 671L545 647L509 625L471 605L446 594L510 562L610 562L642 589L701 540L674 519L674 297L674 283L671 270L667 257L660 245L651 234L640 225L629 219L616 215L602 212L588 211L588 244L535 260L535 276L588 276L595 276L600 277L603 278L606 280L608 283L609 285L609 291L610 297L610 313L598 300L574 300L556 317L555 323L554 330L552 337L550 345L546 353L542 361L536 369L523 387L514 394L518 402L529 397L540 394L563 385L573 380L582 374L592 367L608 352L610 349L610 409L606 404L581 403L563 419L561 427L559 434L556 442L553 450L549 457L538 472L532 480L524 487L515 491L517 501L528 497L540 497L551 495L563 491L573 487L584 481L594 474L610 460L610 540L510 540L510 242L445 210L445 593L389 571L385 580L456 630L489 654L550 706L603 761L627 790L649 820L650 823L515 823L515 844ZM886 264L882 282L878 298L872 315L866 331L859 346L843 376L833 390L822 404L828 411L859 392L874 380L888 367L901 353L914 337L924 319L934 302L943 282L951 262L947 238L927 223L903 227L888 246L886 264ZM767 266L763 283L759 300L754 317L743 348L736 363L720 392L709 406L716 413L745 392L759 381L772 367L785 353L796 337L806 320L816 303L824 284L832 264L828 240L809 225L784 229L770 248L767 266ZM286 390L165 390L165 288L286 288L286 390ZM886 589L943 557L953 541L931 538L924 526L903 496L880 466L853 437L838 423L824 408L816 414L826 432L856 502L868 535L874 551L879 566L882 577L881 577L886 589ZM765 588L822 558L834 542L811 538L796 513L775 483L752 454L713 411L704 416L713 434L745 519L754 551L762 581L765 588ZM286 503L165 503L165 412L286 412L286 503ZM786 690L851 637L851 615L528 615L528 637L732 637L786 690Z"/></svg>