<svg id="U2CF79" viewBox="0 0 1024 1024"><path transform="translate(0, 921.6) scale(1,-1)" d="M296 863L354 832L365 816L345 813L301 716L243 604L213 551L207 541L239 536L256 525L239 516L239-41L175-73L175 490L112 398L75 351L36 306L28 311L117 466L173 573L224 683L272 797L296 863ZM841-36L773-13L711 15L655 49L640 62L573 18L502-16L426-44L343-63L254-76L253-67L338-44L416-16L488 16L552 53L604 92L564 135L528 185L499 241L478 303L466 363L388 363L388 385L797 385L829 412L888 363L861 347L850 343L829 290L791 223L746 162L695 107L683 97L737 68L794 46L857 29L979 9L915-53L841-36ZM791 363L478 363L499 310L528 256L560 208L597 165L639 127L641 126L660 143L704 195L742 253L773 316L791 363ZM411 846L476 813L817 813L849 840L908 792L881 770L881 500L817 468L817 521L476 521L476 484L411 452L411 846ZM817 792L476 792L476 543L817 543L817 792Z"/></svg>