<svg id="U2C91B" viewBox="0 0 1024 1024"><path transform="translate(0, 921.6) scale(1,-1)" d="M772-13L772 3L868 3L875 4L880 5L885 6L887 9L889 13L890 18L890 745L570 745L570 767L890 767L922 793L981 745L954 724L954 25L954 11L952-2L947-15L940-27L932-38L921-47L909-54L896-58L882-60L868-61L868-29L772-13ZM368 729L433 718L449 707L433 698L433-18L368-51L368 729ZM675 412L675 394L749 394L781 420L840 372L814 351L814 30L749-3L749 62L567 62L567-3L503-35L503 401L488 382L464 353L456 359L501 460L528 527L539 562L549 597L558 632L566 668L573 704L575 714L636 691L650 677L630 671L625 653L623 644L723 644L755 671L814 623L787 606L776 602L765 576L747 544L727 512L716 497L703 482L692 466L683 470L690 488L713 577L719 610L721 623L616 623L600 580L586 545L570 510L552 476L532 444L512 413L554 392L601 430L629 455L633 460L632 461L637 464L675 412ZM128 15L134 23L154 42L154 519L37 519L37 541L154 541L186 568L245 519L218 498L218 103L283 160L341 206L347 199L284 113L204 11L197 1L203-20L184-18L128 15ZM673 394L654 402L636 395L595 382L581 378L567 376L567 244L588 244L613 276L645 244L645 222L567 222L567 83L749 83L749 222L672 222L672 244L749 244L749 372L662 372L662 394L673 394ZM186 699L182 714L178 730L171 746L164 761L155 776L145 791L121 822L107 836L112 844L149 824L167 812L182 799L198 785L211 770L223 754L234 737L243 719L251 699L248 675L229 660L204 663L189 683L186 699ZM477 729L475 743L473 756L468 769L463 782L456 796L448 809L438 821L426 835L411 846L416 855L451 839L467 830L483 819L496 806L509 792L519 777L528 760L535 741L540 722L534 698L513 687L489 694L477 714L477 729Z"/></svg>