<svg id="U2C1C5" viewBox="0 0 1024 1024"><path transform="translate(0, 921.6) scale(1,-1)" d="M270-48L256-47L243-45L230-41L218-35L208-26L199-16L192-4L187 9L185 22L184 35L184 294L57 267L52 288L184 316L184 481L57 455L53 476L184 503L184 694L128 672L82 657L35 644L31 653L194 741L264 783L327 824L381 865L419 813L420 793L401 802L357 775L288 739L251 721L212 705L209 703L249 697L265 686L249 676L249 515L286 523L328 587L402 546L406 525L249 494L249 330L313 344L354 408L429 369L434 348L249 308L249 29L249 24L250 21L251 19L251 17L252 16L254 15L258 13L263 12L270 11L923 11L951 117L506 117L506 79L452 52L452 833L506 806L808 806L862 860L926 806L926 785L506 785L506 138L876 138L909 176L952 138L952 122L953 124L964 124L953 11L971-1L982-18L971-36L953-48L270-48ZM889 463L945 415L918 396L918 204L859 175L859 204L798 204L750 180L750 461L798 437L859 437L889 463ZM690 463L741 415L714 402L714 204L666 180L666 204L599 204L551 180L551 461L599 437L666 437L690 463ZM859 415L798 415L798 226L859 226L859 415ZM666 415L599 415L599 226L666 226L666 415ZM599 760L664 727L791 727L823 754L882 706L856 684L856 508L791 476L791 519L664 519L664 503L599 470L599 760ZM791 706L664 706L664 540L791 540L791 706Z"/></svg>