<svg id="U2CD8F" viewBox="0 0 1000 1000"><path transform="translate(0, 900) scale(1,-1)" d="M46 37L57-30C156-14 288 7 418 28L415 89C279 69 139 48 46 37ZM314 694C297 655 275 614 254 583L142 583C166 619 186 657 204 694ZM192 841C164 752 112 635 34 547C51 538 74 520 86 506L88 508L88 148L412 148L412 583L317 583C347 627 378 680 400 728L361 757L348 753L229 753C240 780 250 806 258 831ZM144 338L222 338L222 208L144 208ZM275 338L355 338L355 208L275 208ZM144 523L222 523L222 395L144 395ZM275 523L355 523L355 395L275 395ZM544 577C570 615 593 654 612 693L769 693C753 654 732 610 712 577ZM597 839C567 744 508 623 417 531C433 522 457 499 468 483L495 513L495 309C495 199 487 58 407-42C423-50 453-71 465-84C551 23 565 186 565 308L565 513L955 513L955 577L782 577C810 623 840 678 860 726L814 757L801 754L640 754C651 780 661 805 669 829ZM623 429L623 26C623-54 645-74 724-74C741-74 849-74 866-74C933-74 953-42 961 69C941 74 915 85 900 96C896 6 891-10 860-10C838-10 748-10 731-10C695-10 688-4 688 26L688 363L845 363L845 222C845 213 843 210 832 209C821 208 789 208 747 210C756 192 766 168 769 149C823 149 858 150 882 160C905 171 910 190 910 222L910 429Z"/></svg>