<svg id="U2C16C" viewBox="0 0 1024 1024"><path transform="translate(0, 921.6) scale(1,-1)" d="M87 281L152 249L404 249L436 276L495 227L468 206L468 15L404-17L404 15L152 15L152-49L87-82L87 281ZM771 541L754 531L750 454L744 403L751 365L763 311L778 261L795 215L816 171L840 132L867 96L897 62L930 32L985-7L925-52L886-18L850 19L820 60L793 104L771 150L753 199L740 251L732 306L731 318L724 280L702 204L674 137L639 77L600 25L554-18L502-52L446-76L442-67L491-35L535 4L572 47L604 98L632 155L654 220L671 291L683 370L689 457L690 552L690 564L755 552L771 541ZM404 227L152 227L152 37L404 37L404 227ZM34 354L34 376L246 376L246 506L77 506L77 527L246 527L246 658L53 658L53 680L325 680L328 691L337 731L346 768L357 820L363 848L362 848L366 862L425 834L437 819L416 814L394 769L375 736L354 702L342 685L339 680L384 680L438 733L502 680L502 658L310 658L310 527L361 527L415 581L479 527L479 506L310 506L310 376L404 376L458 430L522 376L522 354L34 354ZM652 621L892 621L895 625L896 625L924 648L983 600L956 584L939 577L899 523L853 470L818 431L810 437L822 460L878 581L885 600L641 600L620 562L596 527L571 494L544 463L536 469L572 542L604 616L618 653L630 692L642 731L652 771L660 812L666 848L667 853L669 864L730 842L744 828L725 821L720 798L707 756L693 714L678 675L660 636L652 621ZM179 727L177 742L175 756L170 785L166 799L158 826L154 840L148 853L156 859L166 848L177 838L198 814L215 787L230 757L237 741L243 725L238 701L218 687L194 691L180 712L179 727Z"/></svg>