<svg id="U2CC9D" viewBox="0 0 1024 1024"><path transform="translate(0, 921.6) scale(1,-1)" d="M651-40L651-24L758-24L765-23L770-22L774-20L776-18L778-13L779-9L780-2L780 138L428 138L428 159L780 159L780 245L547 245L547 229L483 197L483 601L442 558L412 533L405 539L465 634L500 695L530 754L553 813L562 838L561 838L566 850L624 820L635 805L615 801L594 759L578 729L560 702L734 702L778 750L831 702L831 681L761 681L761 589L841 589L873 616L932 568L906 546L906 234L844 204L844 159L866 159L910 208L964 159L964 138L844 138L844-2L843-16L841-29L837-42L830-54L821-65L810-74L798-81L785-85L772-87L758-88L758-56L651-40ZM354 655L347 671L338 687L329 703L317 719L291 750L259 782L258 784L222 712L200 673L152 598L127 564L118 553L175 525L316 525L349 552L408 503L381 482L381 256L316 224L316 267L175 267L175 159L308 159L352 208L406 159L406 138L175 138L175 35L312 35L356 84L410 35L410 14L175 14L175-45L110-77L110 543L74 501L45 474L38 480L117 620L155 696L191 778L224 865L228 873L285 841L295 825L276 822L265 798L291 786L311 775L330 762L348 748L365 734L380 718L394 702L407 684L419 666L420 642L403 623L379 623L361 639L354 655ZM609 9L606 20L602 31L597 42L585 65L568 88L558 100L546 110L551 118L566 111L581 105L595 98L609 90L622 80L633 70L645 59L655 46L664 33L672 19L671-6L653-23L628-21L611-3L609 9ZM841 342L547 342L547 267L841 267L841 342ZM316 390L175 390L175 288L316 288L316 390ZM761 469L761 463L763 459L764 456L765 453L767 451L770 449L774 447L780 445L788 444L841 444L841 568L761 568L761 476L761 469ZM617 568L547 568L547 401L562 415L577 433L588 452L598 473L606 496L612 521L616 548L617 568ZM316 503L175 503L175 412L316 412L316 503ZM911 604L894 621L877 641L861 661L832 706L819 731L807 757L796 784L789 810L635 810L635 831L748 831L782 869L825 831L825 810L803 810L851 752L885 714L902 697L937 668L954 656L971 645L989 633L930 588L911 604ZM670 589L708 589L708 681L671 681L671 611L670 589ZM310 659L353 621L353 600L169 600L169 621L276 621L310 659ZM775 402L763 403L752 406L740 412L731 419L722 428L716 439L711 451L709 463L708 476L708 568L667 568L663 541L655 510L645 482L632 456L616 433L598 413L577 397L554 385L547 382L547 363L841 363L841 401L788 401L775 402ZM617 681L554 681L554 692L517 641L496 615L547 589L617 589L617 681Z"/></svg>