<svg id="U2CD8B" viewBox="0 0 1000 1000"><path transform="translate(0, 900) scale(1,-1)" d="M47 37L59-32C160-15 298 6 431 28L429 90C287 69 143 48 47 37ZM580 840C549 705 495 573 423 487C441 477 472 453 485 440C520 486 552 544 581 609L859 609C848 194 836 40 809 7C800-7 790-10 774-9C754-9 710-9 661-5C673-26 681-57 683-78C728-80 774-81 802-77C832-74 853-66 872-38C907 9 918 163 930 639C930 649 930 678 930 678L608 678C626 725 641 774 654 824ZM582 416L715 416L715 228L582 228ZM518 480L518 104L582 104L582 164L778 164L778 480ZM315 694C298 656 276 614 255 583L144 583C167 619 188 657 205 694ZM193 841C165 752 114 635 35 547C52 538 75 520 87 506L90 510L90 148L415 148L415 583L323 583C353 627 384 679 407 726L365 757L350 753L231 753C242 780 252 806 260 831ZM149 338L225 338L225 208L149 208ZM278 338L354 338L354 208L278 208ZM149 523L225 523L225 395L149 395ZM278 523L354 523L354 395L278 395Z"/></svg>