<svg id="U2C5DA" viewBox="0 0 1024 1024"><path transform="translate(0, 921.6) scale(1,-1)" d="M895-17L888-28L879-38L870-47L859-55L848-62L836-67L823-70L809-72L796-73L796-40L688-24L688-8L803-8L810-7L815-5L820-4L824-1L828 2L832 5L836 10L839 15L842 22L851 46L859 81L867 126L874 180L880 243L885 316L889 397L892 487L893 586L894 683L549 683L534 628L499 525L479 476L457 429L433 384L425 370L432 350L429 326L410 311L386 314L371 333L366 353L361 373L359 381L322 366L291 355L275 350L275-45L211-77L211 332L161 320L95 306L83 304L73 285L61 300L42 363L53 364L87 367L135 371L307 662L348 736L347 737L353 746L406 709L414 691L394 691L330 595L250 484L192 413L162 378L158 374L218 381L315 394L347 397L354 398L343 428L326 463L306 497L294 512L300 520L335 496L351 482L365 467L379 450L392 432L403 413L414 394L415 392L446 489L473 589L485 640L495 693L504 747L513 802L518 853L520 869L583 849L597 837L579 829L573 792L561 736L554 705L894 705L926 732L985 683L958 667L958 585L956 485L953 394L949 312L944 238L938 173L931 117L923 68L913 28L901-4L895-17ZM112 266L175 247L189 235L171 226L169 217L161 187L153 158L143 129L131 101L118 73L103 46L87 19L68-7L48-31L39-26L71 60L80 88L88 116L95 144L101 171L105 199L108 227L110 254L112 266ZM585 141L585 77L525 47L525 573L585 543L759 543L789 570L845 521L818 503L818 109L759 80L759 141L585 141ZM363 105L359 126L354 147L349 167L335 205L318 241L309 259L297 276L304 283L338 256L367 224L380 206L392 186L403 166L413 144L422 120L430 96L425 72L405 58L381 62L367 82L363 105ZM645 334L585 334L585 163L645 163L645 334ZM759 334L699 334L699 163L759 163L759 334ZM645 521L585 521L585 356L645 356L645 521ZM759 521L699 521L699 356L759 356L759 521ZM149 534L138 567L122 599L113 615L102 630L89 646L62 676L45 690L50 698L91 680L110 669L128 656L132 653L147 687L209 819L229 863L232 869L286 833L295 817L275 815L246 770L202 710L170 671L143 644L160 628L174 612L187 595L199 576L209 557L208 532L191 516L166 516L149 534Z"/></svg>