<svg id="U2C632" viewBox="0 0 1024 1024"><path transform="translate(0, 921.6) scale(1,-1)" d="M82-8L46 47L177 97L273 132L341 154L377 164L380 155L319 117L168 35L102 2L99-18L82-8ZM860 266L729 266L707 238L681 211L670 201L679 198L692 191L704 184L716 176L727 167L738 156L747 145L757 133L765 120L765 119L780 135L814 181L844 233L860 266ZM79 240L75 243L76 245L65 270L95 277L227 499L173 483L107 466L88 462L78 442L65 456L55 487L51 490L53 494L45 518L56 520L66 521L164 716L194 782L217 840L216 840L221 851L278 819L288 803L268 800L228 725L165 625L116 555L90 522L99 523L121 524L143 525L166 527L213 529L237 530L244 530L329 682L332 687L385 649L393 632L374 632L300 518L241 433L149 312L125 284L196 300L289 320L322 326L354 332L387 336L389 327L360 312L270 274L210 252L114 218L108 198L93 210L79 240ZM751 513L624 513L606 489L584 463L567 447L573 445L586 440L597 434L609 427L620 419L630 410L648 388L656 376L656 372L679 399L710 442L738 489L751 513ZM638 535L761 535L765 539L766 539L794 562L827 534L806 560L783 589L764 619L745 651L728 684L715 715L650 715L617 658L586 614L552 574L514 534L471 498L425 463L375 432L370 440L413 479L452 519L488 559L521 599L549 641L574 684L590 715L387 715L387 737L600 737L615 771L629 817L643 873L703 849L716 835L697 829L687 798L668 750L661 737L842 737L895 790L960 737L960 715L730 715L794 643L843 594L893 551L945 511L973 494L992 481L932 435L904 458L853 506L849 511L826 497L811 491L790 457L757 409L720 364L719 363L771 329L781 312L760 311L752 297L745 287L868 287L900 314L959 266L932 249L920 244L897 203L861 148L821 99L775 56L726 20L673-11L616-35L554-53L490-64L422-68L421-59L486-44L546-25L602-2L653 25L700 57L724 78L706 95L703 106L700 117L692 139L680 160L666 181L659 190L626 163L595 142L563 123L528 106L492 92L487 101L518 124L574 170L599 194L623 219L644 245L664 271L682 299L699 328L712 354L713 357L681 324L640 288L596 255L550 226L501 203L451 183L397 168L394 177L443 202L488 228L531 256L572 288L610 322L622 334L614 334L596 352L594 362L592 371L588 382L580 401L569 419L556 435L536 417L509 396L482 376L452 359L421 345L416 353L464 399L507 445L527 469L561 520L577 547L591 574L607 608L662 574L672 557L651 555L644 544L638 535Z"/></svg>