<svg id="U2C191" viewBox="0 0 1024 1024"><path transform="translate(0, 921.6) scale(1,-1)" d="M194 280L191 294L187 308L182 321L176 334L169 347L151 372L141 384L112 335L84 295L53 259L45 264L67 306L106 394L123 440L138 489L152 541L165 595L175 650L184 710L189 756L49 756L49 777L290 777L344 831L408 777L408 756L253 756L244 700L231 640L217 582L213 568L313 568L345 595L404 546L377 530L374 529L365 462L347 376L327 296L301 223L271 155L236 94L196 39L153-8L104-48L52-81L46-73L91-33L131 11L168 60L201 115L229 174L254 240L274 311L291 388L304 471L311 546L206 546L182 475L161 425L147 397L165 390L180 381L195 371L208 359L221 346L232 331L242 315L251 298L258 280L254 255L235 240L210 245L195 264L194 280ZM806 842L871 831L887 820L871 811L871 573L889 573L933 621L987 573L987 552L871 552L871 245L806 213L806 277L704 277L704 213L640 181L640 552L545 552L545 46L852 46L906 100L970 46L970 25L545 25L545-40L481-72L481 552L408 552L408 573L481 573L481 842L545 831L561 820L545 811L545 573L640 573L640 842L704 831L721 820L704 811L704 573L806 573L806 842ZM806 552L704 552L704 299L806 299L806 552Z"/></svg>