<svg id="U2CBA6" viewBox="0 0 1024 1024"><path transform="translate(0, 921.6) scale(1,-1)" d="M103 740L168 729L184 718L168 709L168-45L103-77L103 740ZM727-24L727-8L835-8L841-7L846-6L851-4L853-2L854 3L856 8L856 14L856 756L394 756L394 777L856 777L888 804L947 756L921 734L921 14L920 1L917-13L913-26L906-38L897-49L887-58L874-65L861-69L848-71L835-72L835-40L727-24ZM702 72L687 94L670 115L650 135L629 154L580 190L523 224L505 234L490 201L460 152L424 110L382 75L335 48L282 28L224 16L222 25L274 47L321 73L360 103L394 138L423 177L445 221L463 272L465 284L207 284L207 305L470 305L474 328L481 390L482 447L260 447L260 469L629 469L682 523L747 469L747 447L546 447L542 385L531 317L528 305L699 305L752 359L817 305L817 284L522 284L514 256L510 247L530 244L564 234L596 221L627 208L655 191L682 173L707 153L730 132L752 109L771 83L775 59L761 39L737 35L716 49L702 72ZM661 662L709 618L714 599L692 602L609 532L550 487L543 493L643 634L656 654L656 655L661 662ZM398 528L392 541L385 554L367 580L357 594L317 634L301 646L306 655L344 639L363 631L395 611L410 599L424 587L438 574L450 560L460 545L462 520L446 502L422 500L403 516L398 528ZM274 734L268 750L261 765L252 780L241 795L227 810L193 839L172 854L149 868L153 877L180 869L205 861L228 851L250 840L270 826L288 812L303 796L317 778L330 759L339 738L336 713L317 698L293 700L277 719L274 734Z"/></svg>