<svg id="U2C5ED" viewBox="0 0 1024 1024"><path transform="translate(0, 921.6) scale(1,-1)" d="M318 355L315 375L314 379L286 366L259 355L250 351L250-45L185-77L185 330L121 313L92 306L85 305L75 286L63 301L43 362L53 364L82 367L123 371L267 661L304 739L307 745L361 710L371 693L351 692L273 559L201 449L176 413L145 374L195 381L278 394L306 397L309 398L300 430L286 464L278 480L271 497L260 512L267 519L297 495L312 481L325 466L337 449L349 431L359 412L368 392L377 371L385 349L380 325L360 310L336 314L322 334L318 355ZM618-65L606-44L594 49L590 74L508 24L369-55L367-75L350-66L311-13L405 27L425 36L544 326L589 448L646 417L657 401L638 397L574 266L509 146L459 64L445 43L520 72L550 82L580 91L586 93L580 126L569 168L559 206L567 211L581 197L594 181L607 161L618 139L628 115L638 89L646 61L663-1L669-35L663-59L642-72L618-65ZM918-14L916 13L912 40L908 66L907 69L831 16L737-43L735-64L718-55L678-3L736 24L739 25L844 356L868 439L871 447L929 418L941 403L922 399L881 296L847 215L789 92L757 33L834 67L884 87L901 93L895 115L888 138L872 183L863 206L870 212L888 194L905 175L920 153L933 130L945 105L955 80L965 52L972 24L979-6L984-37L976-60L955-72L932-64L920-42L918-14ZM100 266L163 248L178 235L159 227L152 188L135 130L113 74L100 46L85 20L68-6L50-31L42-26L67 59L74 87L87 142L91 170L95 198L98 226L99 248L100 266ZM316 106L313 127L309 148L304 168L293 206L287 224L280 242L272 259L264 276L271 282L300 255L314 240L327 223L349 185L358 164L367 142L375 119L382 95L377 71L356 58L332 63L318 83L316 106ZM765 258L747 275L730 327L724 343L709 374L701 389L683 418L672 432L679 439L709 420L723 409L732 401L774 532L787 577L793 599L797 616L798 620L801 630L860 601L872 586L851 581L841 557L820 513L781 445L751 400L743 390L763 368L775 352L787 335L797 318L807 299L807 275L789 258L765 258ZM453 296L450 309L446 323L441 336L435 349L421 377L402 408L391 421L396 428L428 408L442 397L445 394L456 430L465 457L495 558L507 604L514 634L573 608L586 593L566 588L556 563L523 492L497 443L482 418L465 392L458 383L480 360L500 333L509 318L516 303L514 278L495 262L471 265L455 283L453 296ZM192 839L198 856L203 868L259 835L270 819L249 816L211 752L185 711L156 673L132 644L149 626L161 610L173 593L184 575L193 556L191 531L172 515L148 517L131 535L128 553L123 569L117 585L110 601L102 616L84 646L61 676L48 690L53 698L88 679L105 668L121 655L122 654L192 839ZM808 873L864 840L873 823L852 821L808 749L766 689L744 659L867 659L921 713L986 659L986 638L400 638L400 659L729 659L768 769L799 849L805 867L808 873ZM550 717L547 735L544 753L540 769L535 784L530 799L523 813L516 827L508 840L497 851L503 859L532 842L546 832L560 819L572 804L582 788L593 770L601 750L609 730L615 707L610 684L589 670L565 676L552 697L550 717Z"/></svg>