<svg id="U2C4F1" viewBox="0 0 1024 1024"><path transform="translate(0, 921.6) scale(1,-1)" d="M321 305L314 317L307 330L289 355L279 367L256 391L249 398L249-44L184-76L184 350L159 285L138 241L116 198L93 158L66 120L37 85L30 90L67 171L101 257L116 302L130 347L142 395L153 444L163 494L168 530L34 530L34 551L184 551L184 733L166 728L128 720L87 712L44 705L42 714L187 776L245 804L270 817L310 842L327 854L344 827L366 803L367 784L347 792L317 778L292 768L264 757L249 752L249 551L288 551L332 599L386 551L386 535L517 535L517 668L577 657L592 646L577 637L577 535L764 535L764 668L823 657L838 646L823 637L823 535L885 535L929 584L982 535L982 514L823 514L823 402L764 372L764 514L577 514L577 402L517 372L517 514L358 514L358 530L249 530L249 416L267 410L284 403L300 395L316 385L330 375L358 352L370 339L381 325L385 301L371 281L346 277L327 292L321 305ZM883-51L837-14L776 26L703 70L706 79L764 65L816 47L861 28L902 8L920-3L937-14L947-36L940-59L918-70L895-63L883-51ZM638 298L703 287L719 276L703 267L703 202L697 157L685 116L666 78L640 44L608 15L570-10L527-30L478-47L423-59L363-67L361-57L418-39L468-19L511 2L549 25L579 50L602 76L619 105L631 134L637 167L638 202L638 298ZM453 390L517 358L823 358L856 385L915 337L888 315L888 80L823 48L823 337L517 337L517 73L453 40L453 390ZM644 867L697 856L711 846L697 837L697 745L817 745L871 798L935 745L935 723L697 723L697 620L644 593L644 723L406 723L406 745L644 745L644 867Z"/></svg>