<svg id="U2C441" viewBox="0 0 1024 1024"><path transform="translate(0, 921.6) scale(1,-1)" d="M50-21L50 1L189 1L189 245L254 213L770 213L802 240L861 191L835 170L835 1L856 1L910 54L974 1L974-21L50-21ZM383 191L254 191L254 1L383 1L383 191ZM577 191L447 191L447 1L577 1L577 191ZM770 191L641 191L641 1L770 1L770 191ZM706 847L690 838L696 714L703 669L866 676L917 732L985 682L985 660L707 648L715 599L742 509L765 461L800 501L833 545L866 597L918 559L926 541L906 541L883 509L844 462L801 420L794 415L811 391L847 356L882 334L913 322L923 320L953 449L964 449L953 315L975 305L985 283L975 260L953 251L928 253L894 261L853 277L808 305L763 348L743 375L703 349L650 320L593 296L531 275L467 260L400 251L398 260L462 280L522 303L553 317L480 299L396 284L275 265L184 253L174 235L162 251L146 314L157 315L194 316L232 318L253 318L244 327L246 329L247 332L246 337L244 344L240 350L227 366L218 374L208 383L200 387L190 382L190 543L154 543L154 564L465 564L493 596L321 596L308 596L296 596L285 599L273 604L263 610L253 619L246 630L241 642L237 655L236 660L137 650L137 524L135 488L130 453L125 421L118 391L109 363L99 337L87 314L73 294L58 276L40 262L33 269L41 288L49 308L55 328L61 351L65 375L69 401L72 428L73 458L73 490L72 524L72 794L137 762L253 762L253 872L317 861L334 850L317 841L317 825L391 825L435 873L489 825L489 803L317 803L317 762L489 762L493 765L494 768L495 767L522 789L581 740L554 724L523 711L507 698L490 685L481 680L475 671L467 677L472 686L478 706L480 716L482 725L485 734L487 740L397 740L452 703L454 681L299 666L299 662L298 656L298 649L299 647L300 644L302 641L307 638L313 635L321 634L485 634L504 661L515 661L504 634L515 626L523 615L515 604L505 597L542 564L542 543L198 543L254 514L437 514L469 541L528 493L501 471L501 414L458 392L481 371L487 353L462 357L427 334L413 326L411 325L434 326L477 328L520 330L565 330L566 322L630 356L679 388L715 416L681 485L652 585L642 645L523 639L522 661L639 666L632 708L625 852L625 870L689 857L706 847ZM433 414L254 414L213 393L227 391L239 388L251 385L262 381L272 377L291 366L299 358L306 348L303 324L299 320L310 321L350 323L367 323L400 364L416 385L427 404L428 407L427 408L430 411L430 412L433 414ZM437 414L434 414L437 411L437 414ZM437 493L254 493L254 435L437 435L437 493ZM235 740L137 740L137 671L235 681L235 740ZM290 740L300 739L316 728L300 718L300 687L335 691L375 740L290 740ZM859 745L853 754L836 773L825 783L800 803L770 824L752 832L755 841L775 837L794 833L813 829L830 824L846 818L861 811L876 804L889 796L902 787L914 777L921 754L909 732L886 725L864 737L859 745Z"/></svg>