<svg id="U2C32A" viewBox="0 0 1024 1024"><path transform="translate(0, 921.6) scale(1,-1)" d="M397 264L399 264L392 222L641 222L641 413L706 402L722 391L706 382L706 222L851 222L904 276L969 222L969 201L706 201L706-34L641-66L641 201L388 201L379 161L363 116L343 74L318 38L290 5L258-22L223-43L184-59L142-70L139-61L175-41L208-19L236 5L260 33L280 63L298 97L312 134L323 175L327 201L60 201L60 222L330 222L335 269L335 413L399 402L415 391L399 382L399 267L397 264ZM854 394L797 417L745 442L698 470L656 500L620 533L589 568L565 605L546 645L537 682L531 682L521 647L493 594L457 547L411 505L356 470L293 439L221 414L140 394L50 380L49 390L135 414L211 441L278 471L335 504L381 541L419 580L447 621L466 667L470 682L66 682L66 703L475 703L477 714L480 767L480 872L544 861L560 850L544 841L544 767L537 704L537 703L840 703L894 757L958 703L958 682L549 682L566 655L590 623L618 594L650 566L686 541L726 517L771 496L821 476L875 458L979 430L916 374L854 394ZM751 756L744 766L735 775L714 793L688 812L657 832L639 840L642 849L661 846L681 843L700 839L717 834L733 829L749 823L764 817L778 809L792 801L804 792L812 769L802 746L779 738L757 748L751 756Z"/></svg>