<svg id="U2C503" viewBox="0 0 1024 1024"><path transform="translate(0, 921.6) scale(1,-1)" d="M333 285L321 311L313 323L295 347L286 359L263 383L257 389L257-45L192-77L192 341L168 279L126 194L102 154L76 116L48 82L39 87L77 167L110 251L125 295L138 340L151 387L161 435L171 485L176 519L44 519L44 541L192 541L192 720L137 707L96 699L54 692L51 702L195 763L252 790L277 803L317 827L329 836L329 837L329 836L333 839L351 812L373 788L373 769L354 778L324 764L299 754L272 744L257 739L257 541L273 541L327 595L392 541L392 519L257 519L257 408L275 402L292 395L307 387L323 378L337 368L364 345L388 319L392 295L377 275L353 271L333 285ZM899-52L888-41L875-30L861-19L844-8L824 3L754 37L727 48L729 58L759 54L788 50L814 45L839 39L883 24L903 15L922 5L938-5L953-17L961-40L952-63L929-72L906-62L899-52ZM604 76L645 26L647 7L626 14L610 5L591-5L570-16L522-35L467-53L406-68L402-60L526 14L563 40L579 53L600 72L600 73L604 76ZM489 428L554 396L825 396L857 423L916 374L889 353L889 95L825 62L825 95L554 95L489 62L489 428ZM825 188L554 188L554 116L825 116L825 188ZM825 281L554 281L554 209L825 209L825 281ZM825 374L554 374L554 302L825 302L825 374ZM490 458L490 442L425 410L425 629L490 597L888 597L921 624L980 575L953 554L953 447L888 415L888 458L490 458ZM580 575L490 575L490 480L580 480L580 575ZM734 575L644 575L644 480L734 480L734 575ZM888 575L799 575L799 480L888 480L888 575ZM438 656L438 677L657 677L657 760L396 760L396 782L657 782L657 865L722 854L738 843L722 834L722 782L865 782L918 835L983 782L983 760L722 760L722 677L843 677L887 726L941 677L941 656L438 656Z"/></svg>