<svg id="U2C456" viewBox="0 0 1024 1024"><path transform="translate(0, 921.6) scale(1,-1)" d="M489 444L557 444L557 767L489 767L489 455L489 444ZM924 314L979 280L988 263L969 262L952 232L923 187L893 145L861 105L828 68L793 34L757 3L720-25L680-50L639-70L634-62L668-33L733 29L764 62L793 98L822 135L849 175L899 262L924 314ZM52 791L117 759L239 759L272 786L331 738L304 716L304 101L239 68L239 133L117 133L117 68L52 36L52 791ZM239 343L117 343L117 154L239 154L239 343ZM897 578L951 543L960 526L940 525L906 470L882 435L857 403L803 341L774 313L745 287L714 263L681 242L675 249L749 338L794 399L837 466L875 536L894 573L897 578ZM239 540L117 540L117 364L239 364L239 540ZM876 837L930 800L939 783L919 783L866 704L843 674L793 616L740 563L711 539L682 516L675 523L761 642L802 703L839 766L871 827L876 837ZM239 738L117 738L117 562L239 562L239 738ZM424 767L344 767L344 788L571 788L624 842L689 788L689 767L622 767L622 444L650 444L674 476L707 444L707 423L622 423L622-40L557-72L557 423L488 423L486 375L480 302L472 233L461 171L447 115L430 65L410 21L387-17L360-47L331-70L325-63L345-34L362-2L378 35L391 77L402 126L411 180L418 240L423 305L425 377L425 423L326 423L326 444L424 444L424 455L424 767Z"/></svg>