<svg id="U2CE4D" viewBox="0 0 1024 1024"><path transform="translate(0, 921.6) scale(1,-1)" d="M900-61L871-46L843-29L817-9L794 13L773 38L754 65L738 93L724 124L716 154L715 154L702 121L677 76L647 37L613 2L574-26L531-49L485-66L435-76L432-67L478-47L518-24L553 2L585 32L611 65L633 102L652 142L656 154L458 154L458 175L663 175L667 188L677 238L684 291L685 303L748 285L763 273L744 264L737 226L723 175L865 175L919 229L983 175L983 154L729 154L764 111L785 88L806 68L828 51L850 35L874 22L899 11L924 2L995-18L932-74L900-61ZM253 449L243 412L230 374L355 374L387 401L446 353L420 337L411 333L399 292L375 232L347 176L336 159L365 134L418 85L442 58L449 34L437 12L414 6L392 18L372 45L328 96L308 116L280 80L240 38L197 1L150-30L100-56L46-76L42-67L90-38L134-6L174 28L211 66L244 108L272 150L228 187L162 235L138 204L115 178L90 155L63 134L56 141L93 196L109 224L125 254L139 285L152 318L164 353L175 389L184 427L188 449L39 449L39 471L231 471L231 589L94 589L94 611L231 611L231 729L74 729L74 750L231 750L231 874L295 863L311 853L295 843L295 750L329 750L382 804L447 750L447 729L295 729L295 611L309 611L363 664L427 611L427 589L295 589L295 471L384 471L428 519L482 471L482 449L253 449ZM351 353L222 353L199 298L180 264L171 250L214 233L247 216L278 198L292 189L322 254L341 311L351 353ZM524 631L589 599L853 599L885 626L944 577L917 556L917 289L853 257L853 321L589 321L589 257L524 225L524 631ZM853 453L589 453L589 343L853 343L853 453ZM853 577L589 577L589 475L853 475L853 577ZM776 869L840 858L857 847L840 838L840 756L857 756L910 810L975 756L975 734L840 734L840 664L776 632L776 734L666 734L666 664L601 632L601 734L475 734L475 756L601 756L601 869L666 858L682 847L666 838L666 756L776 756L776 869Z"/></svg>