<svg id="U2CD37" viewBox="0 0 1024 1024"><path transform="translate(0, 921.6) scale(1,-1)" d="M620 198L620 170L618 158L618 151L618 148L620 145L622 142L627 139L633 137L641 135L778 135L797 162L808 162L797 135L808 127L816 116L808 105L797 97L706 97L749 59L749 38L544 38L544-34L480-66L480 38L270 38L270 59L651 59L685 97L641 97L628 97L616 97L604 100L593 105L582 111L573 120L566 131L560 144L557 156L555 170L555 198L452 198L432 171L413 152L392 134L368 118L343 104L316 92L286 81L255 73L221 66L185 62L182 72L245 100L273 114L297 128L320 144L339 159L357 175L371 191L376 198L168 198L168-34L103-66L103 252L168 219L856 219L888 246L947 198L921 176L921 34L920 20L917 7L913-6L906-18L897-28L887-38L874-44L861-48L848-51L835-52L835-19L759-3L759 13L835 13L841 13L846 14L849 15L851 16L852 17L853 18L853 20L854 23L856 28L856 34L856 198L620 198ZM238 411L302 379L722 379L754 406L813 358L786 336L786 271L722 239L722 271L302 271L238 239L238 411ZM722 358L302 358L302 293L722 293L722 358ZM904 491L947 453L947 432L82 432L82 453L871 453L904 491ZM429 606L420 620L409 633L397 646L384 659L369 671L352 684L314 710L313 710L313 515L249 483L249 683L221 647L196 622L171 599L143 577L114 557L81 540L48 525L43 533L96 580L120 604L163 653L181 678L198 704L213 732L225 760L227 765L65 765L65 787L249 787L249 870L313 860L329 849L313 839L313 787L389 787L443 840L508 787L508 765L313 765L313 727L344 719L367 712L388 704L408 694L427 683L444 671L461 659L476 644L489 629L494 605L481 584L457 580L436 593L429 606ZM541 868L606 835L875 835L907 862L966 814L939 792L939 520L875 488L875 520L606 520L541 488L541 868ZM875 623L606 623L606 542L875 542L875 623ZM875 718L606 718L606 644L875 644L875 718ZM875 814L606 814L606 740L875 740L875 814Z"/></svg>