<svg id="U2C419" viewBox="0 0 1024 1024"><path transform="translate(0, 921.6) scale(1,-1)" d="M901-50L876-12L857 38L841 103L828 183L816 278L807 389L800 516L795 658L793 764L792 763L792 806L453 806L453 828L792 828L824 855L883 806L857 791L859 660L864 518L871 393L880 284L891 192L904 116L918 57L926 38L946 125L957 125L947-3L948-5L973-25L977-49L962-68L938-73L901-50ZM587 773L652 762L668 751L652 741L652 540L672 540L716 588L770 540L770 518L652 518L652 258L690 258L744 311L808 258L808 236L652 236L652-36L587-68L587 236L456 236L456 258L587 258L587 518L485 518L485 540L587 540L587 773ZM41 81L51 84L93 96L93 772L147 745L373 745L400 772L454 724L427 707L427 187L473 196L477 187L347 131L93 31L87 11L72 23L41 81ZM192 724L147 724L147 112L192 125L192 724ZM286 724L235 724L235 137L286 151L286 724ZM373 724L329 724L329 162L373 174L373 724Z"/></svg>