<svg id="U2CC28" viewBox="0 0 1024 1024"><path transform="translate(0, 921.6) scale(1,-1)" d="M292 863L356 853L372 842L356 832L356 734L371 734L395 767L427 734L427 713L356 713L356 573L292 541L292 595L271 595L271 474L342 474L374 501L433 452L406 431L406 259L342 227L342 281L271 281L271 170L314 170L367 224L432 170L432 148L271 148L271-40L207-72L207 148L42 148L42 170L207 170L207 281L141 281L141 243L77 211L77 506L141 474L207 474L207 595L182 595L182 557L117 525L117 713L51 713L51 734L117 734L117 863L182 853L198 842L182 832L182 734L292 734L292 863ZM883-49L869-10L852 28L851 31L790 11L710-10L632-27L593-35L517-47L502-50L492-68L480-53L463 10L474 11L548 16L563 17L606 130L627 191L430 191L430 213L852 213L906 267L970 213L970 191L695 191L661 129L637 88L595 28L587 19L625 22L744 35L785 40L826 44L844 46L823 84L800 121L787 139L794 146L831 119L864 88L893 54L920 16L931-4L942-24L942-48L925-66L900-66L883-49ZM207 452L141 452L141 302L207 302L207 452ZM342 452L271 452L271 302L342 302L342 452ZM843 386L896 338L896 316L503 316L503 338L799 338L843 386ZM457 504L433 509L421 531L426 554L432 561L438 570L445 583L451 599L457 617L463 639L472 689L477 719L481 750L490 750L497 698L668 698L668 796L497 796L497 818L796 818L850 871L915 818L915 796L732 796L732 698L910 698L942 725L1001 677L974 661L962 656L948 627L926 590L918 578L910 567L903 555L895 558L898 571L899 585L903 627L904 640L909 677L732 677L732 408L668 375L668 677L499 677L500 661L501 634L500 611L499 589L495 568L492 549L486 532L478 516L457 504ZM865 497L908 459L908 438L749 438L749 459L832 459L865 497ZM608 497L651 459L651 438L492 438L492 459L574 459L608 497ZM608 611L651 573L651 552L507 552L507 573L574 573L608 611ZM844 611L887 573L887 552L749 552L749 573L810 573L844 611ZM292 713L182 713L182 616L292 616L292 713Z"/></svg>