<svg id="U2CF2E" viewBox="0 0 1024 1024"><path transform="translate(0, 921.6) scale(1,-1)" d="M238 361L238 251L234 209L343 209L343 392L407 382L416 376L416 436L156 436L156 371L91 339L91 839L156 807L416 807L449 834L508 785L481 764L481 404L420 373L423 371L407 361L407 209L419 209L473 263L537 209L537 188L407 188L407-37L343-69L343 188L231 188L226 153L216 110L204 71L191 35L174 4L155-22L134-44L110-61L84-72L80-63L97-45L112-25L125-2L138 23L148 52L157 84L164 121L169 161L171 188L38 188L38 209L172 209L174 253L174 392L238 382L254 371L238 361ZM816 256L816 272L870 272L876 273L881 274L886 275L888 277L889 279L890 282L891 287L892 294L892 608L790 566L790 148L725 116L725 540L642 506L642 41L642 34L643 30L644 26L645 25L646 24L646 23L649 22L652 21L657 20L663 19L923 19L955 154L966 154L955 19L974 6L987-13L974-32L955-45L663-45L650-44L636-42L623-38L611-31L600-22L591-11L585 1L580 14L578 27L577 41L577 480L506 451L497 470L577 503L577 740L642 729L658 718L642 709L642 529L725 563L725 863L790 853L806 842L790 832L790 590L892 631L892 643L924 670L983 621L956 600L956 294L955 280L953 267L949 254L942 241L933 231L922 222L910 215L897 211L883 209L870 208L870 240L816 256ZM254 613L156 613L156 457L254 457L254 613ZM416 613L318 613L318 457L416 457L416 613ZM254 785L156 785L156 635L254 635L254 785ZM416 785L318 785L318 635L416 635L416 785Z"/></svg>