<svg id="U2C8BA" viewBox="0 0 1024 1024"><path transform="translate(0, 921.6) scale(1,-1)" d="M509 203L574 170L857 170L889 197L949 149L922 127L922-29L857-61L857-8L574-8L574-45L509-77L509 203ZM210 869L274 858L291 847L274 838L274 745L312 745L366 799L430 745L430 724L274 724L274 600L337 600L370 627L429 578L402 557L402 277L337 245L337 310L274 310L274 154L327 154L380 208L445 154L445 132L274 132L274-45L210-77L210 132L45 132L45 154L210 154L210 310L152 310L152 245L88 213L88 632L152 600L210 600L210 724L59 724L59 745L210 745L210 869ZM857 149L574 149L574 14L857 14L857 149ZM850 328L903 280L903 258L532 258L532 280L806 280L850 328ZM337 444L152 444L152 331L337 331L337 444ZM850 441L903 392L903 371L532 371L532 392L806 392L850 441ZM152 578L152 466L337 466L337 578L152 578ZM930 550L983 502L983 480L466 480L466 502L886 502L930 550ZM561 874L620 846L632 831L613 826L591 773L575 739L569 726L865 726L919 780L983 726L983 705L558 705L540 675L502 617L481 591L459 567L436 546L428 552L472 636L500 696L525 760L549 829L557 861L561 874ZM850 654L903 606L903 584L527 584L527 606L806 606L850 654Z"/></svg>