<svg id="U2C0E" viewBox="0 0 1038 1000"><path transform="translate(0, 900) scale(1,-1)" d="M346 0L176 0Q118 0 98 20Q78 40 78 98L78 98L78 315Q78 355 86.50 376Q95 397 116 405Q137 413 176 413L176 413L354 413L354 616Q354 655 362 676Q370 697 391 705.50Q412 714 451 714L451 714L587 714Q646 714 665.50 694.50Q685 675 685 616L685 616L685 413L862 413Q901 413 922 405Q943 397 951.50 376Q960 355 960 315L960 315L960 98Q960 40 940.50 20Q921 0 862 0L862 0L692 0Q653 0 632 8.50Q611 17 603 38Q595 59 595 98L595 98L595 334L443 334L443 98Q443 59 435 38Q427 17 406 8.50Q385 0 346 0L346 0ZM443 586L443 413L595 413L595 586Q595 615 585 625Q575 635 546 635L546 635L492 635Q463 635 453 625Q443 615 443 586L443 586ZM217 79L217 79L305 79Q334 79 344 89Q354 99 354 128L354 128L354 334L217 334Q188 334 178 324Q168 314 168 285L168 285L168 128Q168 99 178 89Q188 79 217 79ZM733 79L733 79L821 79Q850 79 860 89Q870 99 870 128L870 128L870 285Q870 314 860 324Q850 334 821 334L821 334L685 334L685 128Q685 99 694.50 89Q704 79 733 79Z"/></svg>