<svg id="U2C258" viewBox="0 0 1024 1024"><path transform="translate(0, 921.6) scale(1,-1)" d="M474 315L490 304L473 294L471 262L466 229L551 229L583 256L642 208L617 192L617 191L617 164L617 138L616 113L614 90L610 68L607 47L601 28L595 10L588-6L581-18L573-29L565-39L554-47L544-55L532-61L520-66L507-69L494-71L481-72L481-40L373-24L373-8L481-8L488-7L495-6L501-4L506-3L510 0L519 6L523 11L527 17L530 23L535 34L540 47L544 62L547 78L550 97L551 117L552 140L553 163L553 165L551 165L551 208L462 208L452 163L437 118L419 75L397 36L372 0L343-33L310-62L274-87L268-78L296-47L321-15L343 20L361 55L377 93L390 133L400 175L406 219L409 266L410 315L285 315L285 337L433 337L433 460L497 449L514 439L497 429L497 337L534 337L588 390L652 337L652 315L474 315ZM899-10L861 32L828 78L799 129L782 98L742 41L696-7L646-46L592-76L587-68L633-30L675 13L713 62L746 118L776 181L752 248L735 314L722 385L714 460L713 494L682 435L659 399L650 404L690 527L714 616L725 662L744 760L758 858L757 858L760 874L822 854L836 841L818 833L800 748L787 698L773 650L760 611L891 611L935 659L989 611L989 589L924 589L913 496L896 401L875 314L849 234L829 189L846 157L876 112L909 73L944 39L1000-2L940-47L899-10ZM171-58L148-66L126-55L118-32L121 6L121 41L120 73L116 102L111 127L107 138L102 139L104 147L95 169L84 187L70 202L54 217L58 226L81 219L103 207L120 192L217 444L274 580L284 577L198 269L171 163L167 141L165 126L160 127L165 113L173 81L179 45L182 6L182-36L171-58ZM860 589L752 589L725 520L736 463L753 391L773 324L794 263L801 249L823 327L839 412L852 504L860 589ZM308 370L283 370L266 389L267 413L273 423L279 433L284 445L288 457L292 472L295 488L300 522L301 541L300 562L309 563L315 544L322 525L489 525L492 533L503 584L506 601L510 617L513 633L516 649L518 664L520 674L519 674L522 686L285 686L285 707L522 707L576 761L640 707L640 686L528 686L582 661L595 647L573 641L545 586L516 541L505 527L503 525L590 525L622 552L681 503L654 487L639 481L619 450L610 438L592 415L581 404L571 394L561 383L553 388L559 401L563 414L566 428L586 498L587 503L327 503L330 488L333 470L334 452L334 435L332 419L330 402L326 387L308 370ZM123 484L120 494L116 504L110 515L95 536L85 547L62 569L48 577L51 587L68 581L85 576L101 570L116 563L130 555L143 546L155 536L166 525L177 512L185 498L185 474L168 456L144 456L126 474L123 484ZM382 564L380 590L377 616L374 628L372 641L368 654L366 667L360 679L368 684L377 674L387 664L396 654L405 642L413 631L421 618L434 591L440 577L445 563L440 539L420 525L396 531L382 551L382 564ZM180 730L176 741L171 752L166 762L159 773L142 794L121 816L108 825L111 833L127 827L143 823L158 817L173 810L186 802L199 793L211 783L222 772L242 747L242 722L225 704L201 703L183 719L180 730ZM515 858L569 810L569 788L364 788L364 810L471 810L515 858Z"/></svg>