<svg id="U2CA38" viewBox="0 0 1024 1024"><path transform="translate(0, 921.6) scale(1,-1)" d="M796-51L677-49L578-43L497-33L431-19L378 0L336 23L303 50L278 81L266 101L216 54L177 22L119-22L100-35L99-57L81-48L39 2L49 7L211 89L211 353L50 353L50 374L211 374L243 401L302 353L275 331L275 112L294 96L323 75L355 56L394 42L443 30L504 22L582 16L678 15L795 17L996 25L938-48L796-51ZM317 85L317 106L406 106L406 359L470 327L812 327L844 354L903 305L876 284L876 106L888 106L922 144L965 106L965 85L317 85ZM541 305L470 305L470 106L541 106L541 305ZM677 305L606 305L606 106L677 106L677 305ZM812 305L741 305L741 106L812 106L812 305ZM683 406L683 419L680 414L656 410L635 424L616 457L606 473L605 473L577 445L550 423L520 404L488 388L454 376L451 385L478 406L503 427L527 449L547 474L566 499L574 510L559 524L532 546L516 554L520 563L538 560L556 556L574 550L592 542L599 555L611 586L623 619L627 635L525 635L521 618L502 568L481 520L457 477L431 438L402 404L370 374L335 348L329 356L355 388L379 421L401 457L421 497L439 539L455 584L468 633L480 685L489 741L494 786L378 786L378 807L759 807L792 834L851 786L824 770L814 766L795 647L872 647L904 674L964 625L937 609L934 608L930 573L923 523L920 501L912 463L908 448L903 435L897 423L891 411L883 400L874 390L864 382L853 374L842 368L830 363L817 360L804 359L790 358L790 390L683 406ZM225 484L203 495L168 537L142 564L97 602L81 614L63 626L67 635L108 624L148 608L185 588L202 577L236 551L251 537L259 513L248 491L225 484ZM272 673L251 685L222 727L198 754L156 794L139 807L122 819L126 828L147 821L167 814L206 798L224 788L258 764L273 752L302 724L308 700L296 678L272 673ZM797 423L804 424L810 425L820 430L825 433L833 441L837 446L840 453L843 458L850 479L853 494L856 512L863 555L869 609L871 625L791 625L784 583L715 563L756 786L559 786L549 731L536 673L531 656L631 656L664 683L723 635L696 619L686 615L681 599L665 563L646 530L635 514L659 493L674 477L689 459L693 435L685 423L797 423Z"/></svg>