<svg id="U2C45F" viewBox="0 0 1024 1024"><path transform="translate(0, 921.6) scale(1,-1)" d="M481 870L542 845L554 830L535 825L503 726L461 613L438 559L432 545L457 541L472 530L457 521L457-46L398-76L398 470L364 403L337 354L307 308L299 312L377 520L431 687L464 802L481 870ZM793 455L793 298L790 272L860 272L914 326L979 272L979 251L788 251L804 210L818 178L835 149L853 121L873 95L896 70L921 47L947 26L993-7L935-52L904-26L876 2L851 32L829 63L810 95L795 129L782 165L776 191L760 142L740 98L716 59L688 23L655-8L618-34L577-55L532-71L529-62L567-38L601-11L631 18L656 49L678 83L695 120L709 160L720 203L725 250L725 251L570 251L570 272L727 272L728 301L728 455L680 455L668 424L656 398L643 375L629 354L614 334L597 318L589 324L611 390L618 413L631 464L642 521L646 552L650 584L651 595L714 574L728 561L709 553L706 540L689 479L688 476L817 476L871 530L936 476L936 455L793 455ZM49 791L114 759L230 759L263 786L322 738L295 716L295 101L230 68L230 133L114 133L114 68L49 36L49 791ZM497 632L556 621L571 611L556 601L556 77L497 48L497 632ZM230 343L114 343L114 154L230 154L230 343ZM230 540L114 540L114 364L230 364L230 540ZM230 738L114 738L114 562L230 562L230 738ZM585 616L585 638L810 638L810 793L616 793L616 815L810 815L842 842L901 793L874 772L874 638L898 638L932 675L975 638L975 616L585 616Z"/></svg>