<svg id="U2D8F4" viewBox="0 0 1024 1024"><path transform="translate(0, 921.6) scale(1,-1)" d="M419 146L414 160L406 175L396 190L385 206L371 223L337 256L318 273L318-45L254-77L254 246L219 176L194 134L167 96L139 61L109 30L76 2L42-22L36-15L62 17L111 83L134 119L154 158L174 198L193 242L209 288L225 337L233 369L152 369L152 304L87 272L87 616L152 584L254 584L254 702L44 702L44 724L254 724L254 874L318 863L335 853L318 843L318 724L410 724L464 777L528 724L528 702L318 702L318 584L421 584L453 611L512 562L485 541L485 347L421 315L421 369L318 369L318 292L351 278L374 265L396 252L415 237L433 222L449 206L462 189L474 171L484 153L481 128L463 112L438 114L422 132L419 146ZM869-30L813 2L762 39L716 81L708 90L651 43L589 2L523-32L452-58L377-76L374-67L445-39L510-6L571 32L626 75L676 123L677 125L638 180L607 237L580 297L559 362L546 428L492 428L492 449L661 449L661 863L725 853L742 842L725 832L725 670L865 670L918 724L983 670L983 648L725 648L725 449L853 449L885 476L944 428L917 412L907 408L885 349L848 275L807 206L760 146L745 130L753 121L798 87L846 56L897 31L991-4L929-57L869-30ZM557 428L581 370L609 310L640 255L675 205L710 164L721 177L761 236L797 301L828 372L847 428L557 428ZM254 562L152 562L152 390L254 390L254 562ZM421 562L318 562L318 390L421 390L421 562Z"/></svg>