<svg id="U2D1A0" viewBox="0 0 1024 1024"><path transform="translate(0, 921.6) scale(1,-1)" d="M458 9L454 26L449 45L446 54L370 20L277-16L187-48L179-51L173-71L158-58L130 1L141 4L221 23L275 199L303 305L311 340L314 349L374 323L387 309L367 303L350 252L308 147L258 45L249 29L359 54L393 61L427 67L441 69L435 84L415 128L389 175L374 201L381 207L424 167L442 147L459 126L487 85L508 45L516 25L530 57L553 119L574 189L593 269L610 359L625 461L640 577L642 595L504 595L504 617L644 617L653 707L666 866L730 849L745 837L727 828L714 701L703 617L857 617L911 670L975 617L975 595L700 595L679 453L659 349L637 258L613 177L586 107L556 45L522-10L519-14L517-20L510-25L485-58L477-52L487-32L473-28L459-8L458 9ZM908-28L904-1L893 52L825 28L758 7L656-22L643-25L633-46L620-31L600 31L611 33L627 33L645 35L667 37L676 38L716 199L737 297L756 398L764 449L771 497L773 513L835 491L849 478L831 471L812 386L799 335L771 236L738 141L701 52L695 40L719 43L749 47L858 61L891 64L880 105L865 156L840 233L848 238L866 217L882 195L897 171L910 147L923 121L945 68L964 13L971-16L966-40L946-54L922-49L908-28ZM243 573L305 552L320 539L301 532L291 477L283 444L406 444L460 498L524 444L524 423L277 423L253 338L231 274L206 214L179 158L149 106L116 59L81 16L43-22L36-15L65 29L93 75L118 124L142 176L164 231L184 290L201 353L217 419L218 423L44 423L44 444L222 444L230 489L241 557L243 573ZM408 606L384 628L328 670L316 678L266 633L227 603L186 575L144 552L100 531L56 515L52 524L128 576L165 604L201 634L236 667L270 702L272 705L228 728L108 782L110 791L156 783L200 773L242 761L281 746L301 738L334 780L365 821L394 867L397 870L448 831L455 812L435 813L414 785L379 743L352 714L387 694L418 674L448 652L475 629L485 606L475 583L453 574L430 583L408 606Z"/></svg>