<svg id="U2D4BF" viewBox="0 0 1024 1024"><path transform="translate(0, 921.6) scale(1,-1)" d="M45 793L334 793L338 799L340 798L366 820L425 772L399 756L382 749L323 674L289 634L251 596L258 595L274 584L258 574L258 413L377 445L417 454L421 445L385 425L310 390L258 368L258 14L257 1L254-13L250-26L244-38L235-49L224-58L212-65L199-69L186-71L172-72L172-40L96-24L96-8L172-8L178-7L183-6L186-5L188-4L189-3L190-2L191-1L192 3L193 8L193 14L193 343L93 308L79 303L73 283L58 296L31 356L149 384L193 395L193 605L231 599L309 741L325 772L45 772L45 793ZM378-29L378-8L652-8L652 277L453 277L453 299L652 299L652 557L524 557L517 534L503 494L488 456L471 419L452 384L430 351L421 355L444 430L455 467L465 506L481 586L488 628L493 670L497 714L500 754L502 771L565 753L580 741L562 732L558 707L550 662L541 618L531 578L652 578L652 847L716 837L732 826L716 816L716 578L840 578L894 632L958 578L958 557L716 557L716 299L797 299L851 353L915 299L915 277L716 277L716-8L867-8L921 46L985-8L985-29L378-29Z"/></svg>