<svg id="U2D34E" viewBox="0 0 1024 1024"><path transform="translate(0, 921.6) scale(1,-1)" d="M343 38L353 38L444 40L455 41L455 252L346 252L346 273L881 273L914 311L957 273L957 252L832 252L832 51L894 52L975 53L976 43L832 24L832-42L768-74L768 17L678 6L554-6L379-24L369-42L357-26L343 38ZM768 97L520 97L520 43L611 45L744 49L768 50L768 97ZM768 173L520 173L520 118L768 118L768 173ZM66 747L130 714L231 714L263 741L322 693L295 671L295 185L231 153L231 217L130 217L130 153L66 120L66 747ZM768 252L520 252L520 195L768 195L768 252ZM231 693L130 693L130 239L231 239L231 693ZM494 354L494 369L552 369L556 370L558 371L559 372L560 373L561 374L563 376L564 381L564 386L565 394L565 439L424 439L424 343L360 311L360 640L424 608L565 608L594 635L651 587L624 568L624 394L623 380L621 368L618 355L613 344L605 334L595 325L584 318L572 313L560 311L547 310L547 340L494 354ZM950 364L968 391L979 391L968 364L980 357L987 346L980 334L968 327L758 327L746 328L734 331L723 335L713 342L704 351L697 362L692 374L689 387L687 399L687 679L746 649L890 649L890 716L749 716L684 683L684 874L749 863L765 852L749 842L749 810L878 810L922 858L976 810L976 788L749 788L749 737L890 737L923 764L982 716L955 694L955 628L907 604L938 577L938 555L888 555L938 511L938 489L888 489L938 445L938 423L746 423L746 399L745 392L745 383L746 380L747 376L749 374L751 371L756 368L762 366L770 364L950 364ZM881 489L746 489L746 445L840 445L881 489ZM565 511L424 511L424 461L565 461L565 511ZM881 555L746 555L746 511L840 511L881 555ZM565 587L424 587L424 533L565 533L565 587ZM890 628L746 628L746 577L840 577L884 625L890 619L890 628ZM406 698L406 705L404 713L401 728L396 745L388 763L381 770L388 777L396 771L406 767L415 762L423 757L440 744L447 737L461 720L467 711L465 687L451 674L522 674L525 678L534 704L545 739L553 770L554 774L553 774L556 782L331 782L331 803L463 803L463 874L527 863L543 852L527 842L527 803L541 803L595 857L659 803L659 782L564 782L614 752L624 736L598 733L575 707L546 680L538 674L569 674L613 723L667 674L667 653L323 653L323 674L421 674L406 691L406 698Z"/></svg>