<svg id="U2DD30" viewBox="0 0 1024 1024"><path transform="translate(0, 921.6) scale(1,-1)" d="M98-62L78-47L76-23L91-3L106 4L121 13L134 25L146 40L158 56L168 76L178 98L194 151L200 181L210 181L212 149L213 119L210 90L205 63L198 38L188 15L175-8L160-27L142-45L122-60L98-62ZM886-14L880 5L873 24L863 44L838 85L805 128L766 174L772 181L799 165L824 148L847 130L868 111L887 91L920 51L932 29L944 7L952-16L949-40L930-55L906-52L890-32L886-14ZM628 1L626 18L623 35L617 53L611 71L602 90L592 109L566 148L550 168L557 176L599 145L617 128L633 111L648 92L661 74L672 54L681 33L688 12L693-10L685-33L664-45L640-37L629-16L628 1ZM431-37L408-45L387-33L379-10L382 7L384 24L384 40L382 58L380 75L376 92L371 111L356 149L345 168L352 175L384 142L398 125L410 108L420 89L429 69L435 48L439 28L443 6L443-16L431-37ZM354 327L350 338L344 351L335 364L313 393L265 442L263 444L257 421L241 379L220 339L195 301L166 266L134 233L96 204L55 178L50 186L83 219L113 253L138 288L161 323L179 360L194 397L205 436L212 477L216 519L216 860L281 849L297 839L281 829L281 645L346 704L372 729L390 748L395 753L436 703L438 683L417 691L391 675L338 646L296 626L281 620L281 562L277 513L269 467L267 459L318 433L337 420L370 396L384 383L397 369L408 356L417 341L416 317L399 299L374 299L357 317L354 327ZM843 242L826 222L806 206L794 200L782 195L771 191L758 188L745 186L731 185L731 218L624 234L624 250L731 250L739 251L753 253L759 255L765 258L771 261L776 264L781 269L791 280L802 298L814 321L824 351L833 384L842 424L849 468L855 518L860 572L864 631L866 684L560 684L532 649L507 622L480 597L452 575L422 555L416 562L480 645L518 703L552 765L567 797L581 831L593 866L596 873L653 842L665 826L645 823L618 771L599 739L578 707L577 705L867 705L899 732L958 684L931 668L930 667L928 628L924 567L919 511L913 459L905 412L896 369L885 331L873 297L859 268L843 242ZM706 547L770 493L770 471L455 471L455 493L652 493L706 547ZM95 502L72 511L63 533L71 556L80 564L96 585L103 598L108 613L113 630L116 648L117 669L118 692L116 716L125 718L141 672L146 650L149 628L150 607L148 587L144 567L138 547L129 529L118 512L95 502Z"/></svg>