<svg id="U2DD5C" viewBox="0 0 1024 1024"><path transform="translate(0, 921.6) scale(1,-1)" d="M94-73L77-55L79-30L96-13L112-9L126-4L139 3L151 10L161 19L171 30L180 43L188 58L196 75L200 94L210 94L210 73L210 52L208 32L203 13L195-5L185-22L171-37L156-51L138-63L118-74L94-73ZM887-37L882-26L875-13L866-1L855 13L842 27L809 57L789 73L767 89L772 97L821 77L844 67L864 56L882 45L900 33L915 20L928 8L939-6L949-22L949-46L932-64L907-64L890-47L887-37ZM629-23L628-15L625-4L621 6L606 31L583 58L569 72L552 85L557 94L577 83L596 75L614 66L630 56L644 46L657 34L668 22L678 9L686-6L692-22L686-45L665-58L641-52L628-31L629-23ZM431-52L407-58L386-45L380-22L383-15L385-6L386 2L385 12L383 22L379 33L374 46L358 73L346 85L352 92L367 82L382 73L395 63L407 53L418 41L427 28L434 15L439 1L443-15L444-31L431-52ZM50 130L50 152L480 152L480 238L125 238L125 259L480 259L480 354L243 354L243 338L179 305L179 657L243 625L781 625L813 652L872 603L845 582L845 343L781 311L781 354L544 354L544 259L801 259L845 308L899 259L899 238L544 238L544 152L856 152L910 205L974 152L974 130L50 130ZM480 478L243 478L243 375L480 375L480 478ZM781 478L544 478L544 375L781 375L781 478ZM480 603L243 603L243 500L480 500L480 603ZM781 603L544 603L544 500L781 500L781 603ZM55 706L55 728L480 728L480 870L544 859L560 848L544 839L544 728L851 728L904 782L969 728L969 706L55 706Z"/></svg>