<svg id="U2D138" viewBox="0 0 1024 1024"><path transform="translate(0, 921.6) scale(1,-1)" d="M760-58L737-64L725-67L714-69L691-72L679-73L656-74L656-42L548-26L548-10L656-10L684-8L694-7L703-5L731 1L740 4L749 7L766 15L780 25L793 37L804 53L815 71L823 92L829 118L833 147L836 180L836 205L513 205L500 166L475 123L442 84L401 50L352 20L296-6L231-28L159-46L80-59L78-50L154-26L222-1L281 26L332 55L373 86L406 118L430 152L447 188L451 205L128 205L128 227L456 227L458 263L458 316L522 305L538 295L522 285L522 263L518 227L836 227L868 254L928 205L901 189L901 177L898 140L893 105L885 74L873 44L859 18L842-5L821-25L797-41L771-53L760-58ZM897 344L863 366L831 391L803 420L776 452L753 487L733 525L715 566L701 610L694 644L661 640L626 638L589 635L582 635L582 424L681 449L714 456L746 462L750 453L691 421L632 395L543 359L477 334L471 314L456 326L428 385L517 408L517 682L577 653L747 702L800 719L846 737L849 729L899 686L900 670L878 679L866 676L815 664L758 653L708 646L744 579L766 544L767 543L821 579L913 636L913 637L913 636L917 639L924 626L963 590L964 572L944 580L893 563L836 545L796 534L777 530L790 512L815 484L841 459L868 438L897 419L928 404L996 378L935 326L897 344ZM375 368L366 360L356 352L345 345L334 340L322 335L309 331L297 328L284 327L271 326L271 359L185 375L185 391L271 391L279 391L294 394L300 396L307 398L313 402L319 405L325 410L336 420L338 424L342 432L345 445L348 461L350 482L351 506L351 533L351 564L349 587L346 585L346 628L236 628L235 614L229 573L218 534L204 497L187 463L166 431L142 402L115 376L84 353L50 334L44 342L71 369L94 396L114 424L132 453L146 483L157 514L166 548L172 582L174 619L174 733L47 733L47 754L216 754L216 850L280 840L296 829L280 819L280 754L366 754L420 808L485 754L485 733L220 733L239 730L255 719L239 709L239 657L238 650L346 650L378 677L437 628L412 613L413 603L415 567L416 534L416 504L415 477L412 453L408 431L403 411L395 394L385 378L375 368ZM557 867L616 840L629 825L608 820L595 794L582 773L577 767L845 767L899 820L964 767L964 745L561 745L549 732L530 713L509 695L486 677L461 662L434 647L428 655L449 677L485 719L514 759L525 779L536 799L544 819L550 838L554 857L557 867Z"/></svg>