<svg id="U2DFE1" viewBox="0 0 1024 1024"><path transform="translate(0, 921.6) scale(1,-1)" d="M703 788L757 761L841 811L874 833L901 855L908 861L912 865L951 813L952 794L931 802L918 796L881 780L860 771L814 756L789 749L762 744L762 517L888 517L932 566L986 517L986 496L904 496L904-42L840-74L840 496L762 496L762 378L759 313L754 253L747 196L738 144L727 95L713 51L696 12L677-23L656-53L631-77L624-72L639-43L653-11L666 24L677 62L686 105L693 151L699 202L702 256L703 315L703 378L703 788ZM294 878L333 827L334 807L314 815L294 805L272 797L249 789L244 787L235 712L227 668L259 668L303 716L357 668L357 646L224 646L209 574L199 535L295 535L339 584L393 535L393 514L194 514L174 449L161 417L180 408L296 408L329 434L388 386L361 364L361-24L296-56L296-2L180-2L180-40L115-72L115 314L102 289L72 244L39 203L31 208L55 254L76 302L96 353L114 406L115 410L115 440L123 436L130 463L142 514L40 514L40 535L147 535L156 585L166 646L71 646L71 668L168 668L174 720L178 772L143 766L112 764L80 763L79 772L163 803L209 824L230 834L249 845L266 855L281 867L294 878ZM427 790L480 763L517 789L549 814L597 860L615 880L658 832L661 813L641 818L616 800L575 774L535 756L516 749L496 745L491 745L491 635L606 635L635 662L692 613L665 595L665 341L606 311L606 373L491 373L489 316L486 254L481 196L475 144L467 96L458 53L447 15L435-18L420-45L403-66L395-61L401-37L407-9L413 23L418 60L422 102L425 148L427 199L428 256L428 317L427 383L427 790ZM296 133L180 133L180 19L296 19L296 133ZM296 259L180 259L180 154L296 154L296 259ZM296 386L180 386L180 281L296 281L296 386ZM606 613L491 613L491 395L606 395L606 613Z"/></svg>