<svg id="U2DA3F" viewBox="0 0 1024 1024"><path transform="translate(0, 921.6) scale(1,-1)" d="M361-30L346-37L346 175L292 175L292-10L238-37L238 175L185 175L185-39L126-68L126 209L123 188L113 134L101 84L87 37L71-6L52-47L43-43L51-1L66 91L72 141L78 193L81 248L84 306L85 367L85 431L84 498L84 793L144 763L181 774L285 801L394 834L471 861L474 853L524 810L526 793L504 803L490 799L410 778L332 763L294 756L257 751L221 747L185 745L151 745L148 745L148 675L432 675L464 702L523 654L496 632L496 492L432 460L432 514L148 514L148 498L146 430L146 421L185 401L453 401L482 428L539 380L512 361L512 9L511-4L509-16L506-28L500-40L493-51L484-59L472-66L460-70L448-73L435-74L435-45L361-30ZM775-22L775-6L861-6L868-5L873-5L876-4L878-3L879-2L880-1L881 1L882 4L882 9L883 16L883 295L689 295L686 263L676 207L664 155L648 106L630 62L609 23L584-13L557-44L526-69L520-62L541-31L560 3L577 39L592 77L604 120L615 166L623 216L628 269L631 327L632 388L632 840L696 807L883 807L915 834L974 786L947 764L947 16L947 2L944-11L940-24L933-37L924-47L914-56L902-63L888-67L875-69L861-70L861-38L775-22ZM238 380L185 380L185 197L238 197L238 380ZM346 380L292 380L292 197L346 197L346 380ZM453 380L400 380L400 197L453 197L453 380ZM696 387L692 323L691 317L883 317L883 540L696 540L696 388L696 387ZM432 654L148 654L148 535L432 535L432 654ZM883 786L696 786L696 562L883 562L883 786ZM453 175L400 175L400-10L390-15L435-15L440-15L444-14L447-12L449-11L449-10L452-4L452 2L453 9L453 175Z"/></svg>