<svg id="U2D0EE" viewBox="0 0 1024 1024"><path transform="translate(0, 921.6) scale(1,-1)" d="M351 17L344 6L335-4L326-13L315-20L303-27L291-32L279-35L265-37L252-38L252-5L166 11L166 27L252 27L259 27L266 28L271 30L281 34L289 41L293 45L296 51L300 57L309 82L318 117L327 163L334 218L340 284L345 359L349 443L352 537L354 640L354 742L238 742L234 627L227 511L216 405L202 309L185 222L164 145L139 78L110 22L78-24L43-58L36-51L61-12L85 35L106 91L124 156L140 231L152 316L163 411L169 515L173 629L173 742L71 742L71 764L354 764L387 791L446 742L419 726L418 640L417 535L414 440L410 355L404 278L398 211L391 153L381 103L371 62L358 29L351 17ZM826 22L859 156L870 156L859 22L878 9L891-10L878-30L859-42L662-42L648-41L635-39L622-35L610-28L599-19L590-9L584 4L579 17L577 30L576 44L576 275L640 264L657 253L640 244L640 44L641 37L642 32L643 29L644 27L644 26L645 25L647 24L651 24L656 23L662 22L826 22ZM473-8L449-1L438 22L446 45L454 54L463 65L471 80L479 98L486 119L493 144L499 171L509 234L514 270L523 270L528 233L531 199L532 168L532 138L530 111L527 85L522 62L515 40L506 21L495 3L473-8ZM921 73L918 95L914 117L909 138L896 178L881 218L872 238L861 257L869 263L902 232L931 196L943 176L954 155L964 132L973 109L980 85L987 60L981 37L960 23L936 30L923 50L921 73ZM733 144L730 162L721 195L710 226L697 255L683 283L674 295L680 303L708 284L721 273L733 261L757 233L767 217L777 200L795 163L793 139L774 123L749 125L733 144ZM862 474L921 426L894 410L881 404L836 278L764 271L823 426L537 426L537 447L830 447L862 474ZM908 497L880 524L854 553L829 585L804 620L781 657L759 697L739 740L722 782L700 734L673 685L645 640L615 598L584 559L551 523L516 490L479 461L441 437L435 445L466 477L495 510L524 546L551 583L577 623L602 666L625 711L647 759L668 810L690 870L748 840L759 825L740 821L734 807L793 717L818 682L871 620L897 594L924 570L951 550L997 519L937 474L908 497ZM761 614L815 566L815 545L611 545L611 566L717 566L761 614Z"/></svg>