<svg id="U2D4AD" viewBox="0 0 1024 1024"><path transform="translate(0, 921.6) scale(1,-1)" d="M434 519L434 423L545 423L545 514L610 503L626 492L610 483L610 423L710 423L710 514L774 503L790 492L774 483L774 423L871 423L903 449L962 401L935 380L935 272L871 240L871 272L432 272L432 255L428 206L423 161L415 118L406 78L394 40L380 5L365-26L346-55L325-80L317-75L328-45L338-15L347 17L354 51L361 88L366 126L369 167L371 210L371 256L369 304L369 573L434 541L570 541L570 788L390 788L390 810L821 810L874 863L939 810L939 788L755 788L755 541L836 541L889 595L954 541L954 519L434 519ZM264 125L252 148L224 189L192 119L158 60L120 8L78-38L32-75L26-68L63-24L96 24L128 77L156 137L180 201L189 229L170 247L149 264L134 275L127 224L58 202L118 600L51 600L51 621L121 621L157 863L220 843L234 830L217 824L186 621L257 621L289 648L348 600L321 584L317 582L308 511L293 420L273 335L250 257L243 239L260 224L280 203L300 180L317 155L333 129L334 104L318 86L293 84L275 101L264 125ZM406 2L416 4L468 11L478 13L478 267L543 256L559 245L543 235L543 154L610 154L643 191L686 154L686 132L543 132L543 24L633 39L663 42L692 46L695 37L642 11L560-20L507-37L454-52L451-53L443-73L429-59L406 2ZM908 14L940 148L951 148L940 14L960 1L973-18L960-38L940-51L792-51L779-49L765-47L752-43L740-36L729-27L720-17L714-4L709 9L707 22L706 35L706 267L771 256L787 245L771 235L771 139L830 174L873 203L885 212L892 218L896 221L912 196L936 170L937 152L916 160L883 147L847 135L807 125L786 120L771 118L771 35L771 29L772 24L773 21L774 19L776 17L781 16L786 15L792 14L908 14ZM255 600L183 600L138 299L163 289L189 276L201 269L221 348L236 431L248 519L255 600ZM434 304L433 294L545 294L545 401L434 401L434 304ZM710 401L610 401L610 294L710 294L710 401ZM871 401L774 401L774 294L871 294L871 401ZM696 788L629 788L629 541L696 541L696 788ZM833 775L892 746L903 731L882 726L865 692L819 618L775 560L767 565L775 588L804 674L822 731L829 762L833 775ZM492 596L485 628L481 644L473 674L463 703L457 717L451 731L443 744L450 750L462 740L475 730L487 719L509 694L528 664L537 648L553 614L551 590L532 574L507 577L492 596Z"/></svg>