<svg id="U2D601" viewBox="0 0 1024 1024"><path transform="translate(0, 921.6) scale(1,-1)" d="M422-4L378 48L355 72L313 26L270-8L223-37L173-59L118-74L60-82L59-73L113-54L161-32L206-6L245 24L280 59L311 97L317 107L256 158L196 203L181 175L161 144L141 115L117 89L92 65L85 71L116 131L131 161L144 193L156 226L157 230L91 276L95 285L145 263L165 254L177 296L185 333L192 371L197 406L196 406L199 423L261 402L275 389L256 381L252 360L241 319L236 304L396 304L429 331L488 283L461 267L452 263L439 223L415 166L386 116L418 90L446 63L472 37L478 13L467-9L443-16L422-4ZM915 19L908 75L899 129L890 181L879 231L868 278L843 368L816 452L825 456L838 434L860 541L876 627L884 671L896 759L905 842L907 859L970 839L985 826L966 819L953 749L933 661L908 575L879 490L862 449L848 419L870 378L889 335L907 290L923 242L938 192L952 140L965 85L976 29L986-30L979-54L958-66L935-60L922-39L915 19ZM772 25L764 81L756 135L736 237L724 284L699 374L673 457L681 462L699 434L728 578L743 665L756 753L761 797L765 841L767 853L829 833L844 820L825 812L813 743L803 699L792 655L767 569L754 526L722 444L709 417L726 384L745 341L763 296L780 248L795 198L821 91L832 35L843-24L836-48L815-60L791-54L779-33L772 25ZM631 25L624 81L615 135L606 187L595 237L572 330L532 457L541 462L558 434L579 535L595 621L609 709L615 753L620 797L624 836L624 841L626 853L688 833L703 820L685 812L681 788L662 699L640 612L613 526L598 484L581 444L568 417L586 384L605 341L623 296L639 248L654 198L668 146L680 91L692 35L702-24L695-48L674-60L650-54L638-33L631 25ZM392 283L229 283L214 244L209 232L279 191L317 167L343 149L362 189L381 243L392 283ZM470 417L496 509L507 509L496 417L513 406L523 390L513 374L496 363L380 363L367 364L354 366L342 369L330 375L319 383L310 393L303 405L298 417L295 431L294 444L294 604L206 589L202 588L253 564L266 549L246 544L239 528L224 495L207 464L187 437L167 411L144 389L120 370L95 354L67 341L39 332L35 341L57 359L78 377L97 396L115 417L131 440L146 464L159 491L171 519L182 550L193 587L127 576L108 573L99 554L86 569L67 632L119 637L157 640L196 725L252 846L261 868L264 874L319 839L328 822L308 821L231 704L196 656L184 641L239 645L279 647L356 650L393 650L431 650L427 663L420 680L404 714L395 731L385 748L372 765L379 772L413 747L429 733L443 718L457 702L469 684L480 666L499 628L507 607L503 583L484 568L459 573L444 592L441 610L437 628L437 631L396 622L330 610L359 605L375 595L359 585L359 444L358 438L359 433L359 429L360 427L361 425L362 423L364 421L367 420L373 418L380 417L470 417Z"/></svg>