<svg id="U2D1D7" viewBox="0 0 1024 1024"><path transform="translate(0, 921.6) scale(1,-1)" d="M415 718L479 686L651 686L651 869L715 858L731 847L715 838L715 686L863 686L916 740L981 686L981 664L479 664L479 390L477 329L472 270L465 215L456 162L445 113L431 67L416 25L397-14L377-49L353-80L345-75L359-40L371-3L382 36L392 78L400 123L407 170L411 220L414 274L416 331L415 390L415 718ZM908 19L899 54L889 88L887 94L801 69L618 24L512 0L504-2L495-20L482-6L463 56L473 58L502 61L535 64L563 67L617 287L653 446L675 554L678 569L739 545L752 531L734 525L693 378L661 274L627 177L589 87L580 69L795 98L850 104L882 108L865 157L807 295L790 330L799 335L847 274L888 209L924 141L954 72L967 37L979 1L975-24L956-39L931-35L916-16L908 19ZM65 747L129 714L263 714L295 741L354 693L328 671L328 185L263 153L263 217L129 217L129 153L65 120L65 747ZM263 693L129 693L129 239L263 239L263 693Z"/></svg>