<svg id="U2D3F3" viewBox="0 0 1024 1024"><path transform="translate(0, 921.6) scale(1,-1)" d="M879 260L827 297L781 341L742 388L720 366L659 320L593 281L520 250L512 248L544 242L560 232L544 222L544 147L786 147L840 201L904 147L904 126L544 126L544-6L856-6L910 47L974-6L974-28L50-28L50-6L480-6L480 126L120 126L120 147L480 147L480 238L440 227L438 236L511 269L579 306L638 349L692 396L718 425L706 442L677 501L653 564L635 633L622 706L617 779L539 779L539 800L879 800L911 827L970 779L943 763L937 760L923 698L896 619L862 546L821 479L780 428L823 383L866 348L914 318L965 292L996 278L935 228L879 260ZM430 485L397 513L367 535L313 571L258 521L232 501L204 481L186 469L219 453L397 453L430 480L489 432L462 410L462 292L397 260L397 292L219 292L219 255L154 223L154 451L111 428L78 414L42 402L38 411L124 474L176 517L222 561L262 607L280 631L282 634L330 591L333 581L363 574L402 561L436 548L451 541L478 527L489 505L483 481L461 470L437 476L430 485ZM397 432L219 432L219 314L397 314L397 432ZM876 779L628 779L644 710L665 641L689 578L717 521L749 469L751 466L779 506L814 570L842 639L864 714L876 779ZM195 699L246 660L254 642L231 643L210 624L195 612L162 588L123 563L79 539L73 547L92 564L150 631L172 659L180 672L190 690L189 691L195 699ZM457 593L445 608L437 616L427 625L416 633L373 661L356 670L337 678L340 688L360 684L380 681L399 678L417 674L433 670L449 665L463 660L489 647L501 639L511 617L502 594L479 584L457 593ZM102 652L81 662L74 686L85 708L87 707L92 709L96 713L101 720L107 728L111 740L121 768L125 785L126 803L136 803L137 784L139 778L272 778L272 871L337 860L353 849L337 840L337 778L463 778L495 805L554 756L528 740L503 730L492 719L467 695L457 686L449 676L441 681L447 692L459 738L463 756L142 756L143 750L144 735L145 720L144 707L143 694L139 682L134 669L126 658L102 652Z"/></svg>