<svg id="U2D972" viewBox="0 0 1024 1024"><path transform="translate(0, 921.6) scale(1,-1)" d="M473 404L538 371L837 371L870 398L929 350L902 328L902-15L837-47L837 17L538 17L538-47L473-80L473 404ZM87 780L152 748L305 748L337 775L396 726L370 705L370 87L305 55L305 119L152 119L152 55L87 23L87 780ZM837 189L538 189L538 39L837 39L837 189ZM305 432L152 432L152 141L305 141L305 432ZM837 350L538 350L538 210L837 210L837 350ZM305 726L152 726L152 453L305 453L305 726ZM913 533L943 646L953 646L943 533L960 521L972 503L960 485L943 474L551 474L537 474L524 476L511 481L500 487L489 495L480 505L473 517L468 530L466 544L465 557L465 842L529 831L545 820L529 811L529 671L719 744L807 781L832 793L854 805L859 793L900 755L901 738L881 746L828 727L767 709L696 691L617 674L573 667L529 660L529 551L530 546L531 542L531 540L532 539L535 536L539 535L544 534L551 533L913 533Z"/></svg>