<svg id="U2DD26" viewBox="0 0 1024 1024"><path transform="translate(0, 921.6) scale(1,-1)" d="M464 432L524 410L538 397L519 390L501 320L475 230L454 171L442 142L477 146L507 149L602 159L615 160L602 209L563 339L572 344L589 323L604 300L619 276L645 225L657 198L678 140L688 111L696 80L692 55L672 41L647 46L633 66L628 96L618 144L575 128L515 109L432 87L382 74L381 74L372 54L359 69L358 73L339 58L315 61L300 81L296 98L292 116L286 134L279 153L260 192L225 253L223 238L209 182L191 131L170 83L145 40L117 2L84-32L49-59L42-52L69-18L93 19L114 58L132 100L148 145L160 195L170 247L175 304L179 364L179 847L243 837L259 826L243 816L243 551L309 650L324 676L329 683L378 641L384 623L363 625L324 587L256 524L243 514L243 428L240 361L233 297L229 275L256 252L275 233L307 195L321 176L334 156L344 137L347 132L349 132L372 134L422 140L422 147L426 178L430 209L435 239L439 270L444 301L453 361L460 421L462 432L327 432L327 453L480 453L480 667L355 667L355 689L480 689L480 854L545 843L561 833L545 823L545 689L573 689L617 737L671 689L671 667L545 667L545 453L580 453L634 507L699 453L699 432L464 432ZM820 120L820 137L874 137L880 137L885 138L888 139L890 140L891 141L892 141L893 144L894 147L895 152L895 158L895 746L772 746L772-20L708-53L708 799L772 767L895 767L928 794L987 746L960 724L960 158L959 145L957 131L952 118L946 106L937 95L926 86L914 80L901 75L887 73L874 72L874 104L820 120ZM87 352L62 355L48 375L50 399L59 414L68 431L75 451L81 472L87 496L91 522L94 550L96 581L98 613L99 648L109 649L118 615L125 582L129 551L132 520L132 491L131 464L128 438L122 413L115 389L106 367L87 352Z"/></svg>