<svg id="U2D3A2" viewBox="0 0 1024 1024"><path transform="translate(0, 921.6) scale(1,-1)" d="M50-30L50-8L480-8L480 163L120 163L120 184L480 184L480 319L544 308L560 297L544 288L544 184L786 184L840 238L904 184L904 163L544 163L544-8L856-8L910 46L974-8L974-30L50-30ZM149 410L149 345L84 313L84 831L149 799L427 799L459 826L518 777L491 756L491 399L427 367L427 410L149 410ZM922 363L904 380L881 439L870 463L813 446L662 409L561 385L551 383L543 364L529 378L508 440L518 442L596 451L677 706L711 821L714 834L773 806L786 791L766 787L728 688L695 610L659 533L618 457L617 454L690 463L767 471L808 475L850 478L862 479L800 594L807 600L847 563L882 525L899 505L927 466L952 426L964 405L964 381L947 363L922 363ZM256 596L149 596L149 431L256 431L256 596ZM427 596L320 596L320 431L427 431L427 596ZM256 777L149 777L149 618L256 618L256 777ZM427 777L320 777L320 618L427 618L427 777Z"/></svg>