<svg id="U2D7D3" viewBox="0 0 1024 1024"><path transform="translate(0, 921.6) scale(1,-1)" d="M172 863L236 853L252 842L236 832L236-45L172-77L172 863ZM339-43L339-22L630-22L630 104L388 104L388 126L630 126L630 228L695 217L711 206L695 197L695 126L819 126L873 180L937 126L937 104L695 104L695-22L868-22L922 32L986-22L986-43L339-43ZM366 191L348 208L347 232L364 251L373 253L382 257L391 262L399 268L407 276L415 286L422 298L429 312L436 327L438 345L448 345L449 326L450 308L449 290L447 274L443 258L436 242L428 227L418 215L406 203L391 192L366 191ZM921 229L918 239L915 249L909 261L894 285L873 312L860 327L844 340L850 348L868 338L886 330L903 320L918 311L945 289L957 278L967 266L976 253L983 240L981 216L963 199L938 202L922 220L921 229ZM748 212L736 233L737 249L736 258L734 267L730 277L725 289L711 312L702 326L690 337L696 345L710 335L725 327L739 319L751 310L763 301L772 290L781 279L789 267L795 254L800 241L793 217L772 205L748 212ZM611 212L587 205L566 217L559 241L562 248L564 255L565 263L566 272L565 281L564 291L561 302L552 326L544 337L551 344L561 334L573 326L583 317L593 307L608 285L614 273L618 261L622 247L623 233L611 212ZM340 381L340 402L630 402L630 487L397 487L397 509L630 509L630 596L472 596L472 580L407 547L407 853L472 821L853 821L885 848L944 799L917 778L917 585L853 553L853 596L695 596L695 509L829 509L873 557L927 509L927 487L695 487L695 402L866 402L920 456L985 402L985 381L340 381ZM79 389L55 394L41 414L45 438L53 447L60 458L68 472L76 488L84 506L91 527L114 603L121 633L130 632L131 573L130 545L128 520L125 496L122 474L118 454L113 435L107 418L99 402L79 389ZM311 504L308 518L300 548L295 563L281 596L265 630L254 647L261 653L277 639L292 626L319 598L331 584L342 569L351 554L368 522L375 505L371 481L352 466L328 470L313 490L311 504ZM630 799L472 799L472 617L630 617L630 799ZM853 799L695 799L695 617L853 617L853 799ZM775 783L833 754L845 739L819 733L809 720L788 699L764 677L750 666L734 656L720 644L713 650L724 665L750 710L756 723L761 735L766 747L769 757L771 767L771 770L770 770L775 783ZM546 681L545 690L543 699L540 708L536 718L525 738L510 760L499 769L504 777L517 769L530 764L543 757L555 750L566 742L576 734L586 725L594 714L602 703L608 691L605 667L586 652L562 654L546 673L546 681Z"/></svg>