<svg id="U2D3A1" viewBox="0 0 1024 1024"><path transform="translate(0, 921.6) scale(1,-1)" d="M468 396L532 364L846 364L878 391L937 342L910 321L910-22L846-54L846-1L532-1L532-38L468-70L468 396ZM846 176L532 176L532 21L846 21L846 176ZM43 124L198 173L198 552L58 552L58 573L198 573L198 847L262 837L278 826L262 816L262 573L292 573L346 627L410 573L410 552L262 552L262 197L413 250L417 241L338 194L229 136L131 90L94 75L89 54L74 66L43 124ZM846 342L532 342L532 197L846 197L846 342ZM367 473L367 494L582 494L582 868L646 857L663 847L646 837L646 707L818 707L872 761L937 707L937 685L646 685L646 494L887 494L931 542L985 494L985 473L367 473Z"/></svg>