<svg id="U2DF6E" viewBox="0 0 1024 1024"><path transform="translate(0, 921.6) scale(1,-1)" d="M80 705L139 675L201 675L201 854L260 843L275 833L260 823L260 675L333 675L365 702L424 654L424 853L488 820L581 820L608 847L660 800L660 823L709 799L896 799L926 826L982 777L956 759L956 374L896 345L896 406L709 406L709 41L710 34L711 28L714 24L716 22L720 20L723 20L726 19L920 19L952 154L963 154L952 19L972 6L985-13L972-32L952-45L738-45L724-44L711-40L699-35L688-28L678-19L670-9L665 3L661 16L660 28L660 41L660 798L635 783L635 19L635 7L633-5L630-16L626-27L620-37L611-46L602-53L591-58L580-60L568-61L568-34L506-21L506-8L568-8L572-7L574-6L575-6L577-5L579 1L580 5L581 12L581 326L488 326L488 304L486 247L482 194L477 144L471 99L462 59L452 23L440-9L427-37L411-59L394-75L386-69L394-48L401-25L407 1L413 32L417 67L421 105L423 149L425 196L425 248L424 304L424 653L397 638L385 632L367 600L324 530L310 510L296 489L288 493L296 517L324 618L328 634L330 648L331 654L260 654L260 417L304 417L337 444L396 396L369 380L361 376L350 337L329 277L307 223L292 192L316 163L335 139L370 88L372 64L357 45L332 42L313 58L300 83L272 132L266 142L256 123L228 79L197 39L164 3L129-29L92-56L86-48L115-15L143 22L168 60L193 101L216 145L235 188L143 304L149 312L177 294L204 275L229 254L253 233L275 296L291 353L301 396L139 396L139 380L137 324L134 270L129 218L122 169L115 121L106 77L95 35L83-4L69-41L52-75L44-72L51-35L58 2L64 42L69 83L73 127L77 173L79 221L80 272L81 325L80 380L80 705ZM581 568L488 568L488 347L581 347L581 568ZM201 654L139 654L139 417L201 417L201 654ZM780 777L709 777L709 428L780 428L780 777ZM896 777L833 777L833 428L896 428L896 777ZM581 799L488 799L488 589L581 589L581 799Z"/></svg>