<svg id="U2DE2F" viewBox="0 0 1024 1024"><path transform="translate(0, 921.6) scale(1,-1)" d="M386-71L361-67L348-46L353-22L360-13L375 11L388 42L400 83L410 130L414 157L423 157L426 130L429 104L431 80L431 56L430 34L428 14L424-6L420-24L414-41L407-58L386-71ZM522 20L523 35L523 50L522 81L518 114L516 131L512 148L521 152L539 121L548 106L556 90L563 74L568 58L573 42L578 25L581 9L584-9L574-31L551-41L529-31L519-9L522 20ZM638 13L636 40L634 53L632 67L627 94L615 135L609 148L617 153L627 142L638 132L648 120L666 96L674 83L682 69L689 55L701 27L696 3L676-11L652-7L638 13ZM284-18L277-29L268-39L258-47L247-55L236-61L223-66L210-69L198-71L184-72L184-40L109-24L109-8L184-8L192-7L198-6L209-3L214 0L218 3L222 6L226 11L230 17L247 58L259 115L268 189L271 275L266 369L264 385L248 353L225 316L202 280L176 246L149 214L119 183L88 155L54 129L48 136L98 202L143 270L182 340L199 377L215 414L229 453L242 492L247 491L228 568L217 596L196 571L163 538L128 507L92 480L53 456L48 464L79 495L137 562L165 597L191 635L198 647L191 666L141 758L78 846L85 853L164 775L222 685L241 718L285 811L308 867L365 835L375 819L356 817L314 737L287 691L258 648L246 632L268 582L298 478L299 473L302 471L300 466L316 375L325 276L325 185L318 106L307 42L291-6L284-18ZM925-13L921-26L914-38L906-49L896-58L885-66L872-72L859-75L846-77L832-78L832-46L725-30L725-14L832-14L839-13L845-12L849-11L853-10L856-8L860-3L862 1L864 6L872 46L876 80L878 97L879 115L880 137L880 180L506 180L442 148L442 594L506 561L628 561L629 566L637 606L642 630L644 641L647 662L647 666L646 666L651 679L708 649L720 633L695 628L690 621L667 592L650 571L641 561L799 561L831 588L890 540L863 518L863 353L799 320L799 353L506 353L506 288L880 288L924 337L978 288L978 267L506 267L506 202L880 202L912 228L971 180L945 164L945 151L944 111L943 92L938 54L936 35L929-1L925-13ZM755 47L754 59L751 81L749 91L742 111L738 121L734 131L729 140L722 148L728 156L737 149L748 145L759 138L769 131L778 122L787 112L796 102L803 90L817 65L814 40L795 25L771 28L755 47ZM799 446L506 446L506 374L799 374L799 446ZM799 540L506 540L506 468L799 468L799 540ZM458 681L458 664L394 632L394 820L458 809L474 798L458 789L458 702L622 702L622 866L687 855L703 845L687 835L687 702L850 702L850 820L915 809L931 798L915 789L915 670L850 638L850 681L458 681Z"/></svg>