<svg id="U2DE07" viewBox="0 0 1024 1024"><path transform="translate(0, 921.6) scale(1,-1)" d="M512-23L512-7L620-7L626-6L631-6L634-5L636-4L637-3L638-2L638 0L639 3L640 8L641 15L641 262L382 262L382 283L641 283L641 395L691 386L760 482L785 519L797 539L470 539L470 560L807 560L809 563L811 567L813 566L839 587L898 539L871 523L852 514L827 487L775 435L733 398L711 380L722 373L706 363L706 283L846 283L900 337L964 283L964 262L706 262L706 15L704 1L702-13L698-26L691-38L682-48L672-58L659-64L646-68L633-71L620-72L620-39L512-23ZM292-20L284-30L275-40L265-48L254-55L243-61L230-66L218-69L204-71L191-72L191-40L116-24L116-8L191-8L199-7L206-6L217-3L222 0L231 7L239 17L243 23L258 58L271 115L281 189L284 275L279 369L275 390L253 352L229 315L203 280L175 246L145 213L113 183L79 155L43 129L36 136L92 203L143 270L165 305L206 378L223 415L238 454L252 493L257 491L236 568L223 599L197 571L161 537L123 506L84 480L42 456L37 464L71 496L104 528L136 562L167 598L196 636L203 647L195 666L140 758L70 846L76 853L163 776L228 683L251 719L276 764L322 862L323 862L325 868L381 834L391 818L371 816L354 784L326 735L296 690L265 647L252 632L276 582L309 478L310 472L313 471L311 466L329 375L338 276L338 185L330 105L317 41L299-8L292-20ZM452 706L453 692L453 668L452 646L450 625L446 606L440 588L433 571L423 557L400 548L377 557L368 581L378 603L384 607L391 614L397 624L404 638L410 654L416 673L422 695L431 747L435 777L444 777L447 747L450 727L641 727L641 876L706 866L722 855L706 845L706 727L898 727L930 754L989 706L963 690L947 683L931 660L902 620L878 591L867 575L858 580L866 598L871 616L885 664L896 706L452 706Z"/></svg>