<svg id="U2D134" viewBox="0 0 1024 1024"><path transform="translate(0, 921.6) scale(1,-1)" d="M885-9L877-19L868-29L858-38L847-45L835-51L823-55L810-59L797-60L784-61L784-29L677-13L677 3L784 3L791 4L798 5L809 8L814 11L819 14L823 18L828 22L832 27L836 34L844 53L852 81L860 117L867 161L873 213L878 273L882 341L885 416L886 499L887 578L755 578L751 495L742 402L727 316L707 237L681 165L650 101L613 44L571-5L523-45L471-76L466-68L510-29L550 15L584 63L614 119L638 181L659 249L674 325L685 408L690 498L691 578L544 578L544 600L691 600L691 842L756 831L772 820L756 811L756 600L887 600L919 627L978 578L951 562L951 498L949 414L946 338L942 269L937 207L931 153L924 105L915 65L904 31L892 2L885-9ZM69-48L48 14L265 44L265 159L65 159L65 180L265 180L265 308L152 308L152 270L87 238L87 647L152 614L449 614L481 641L540 593L514 571L514 286L449 254L449 308L330 308L330 180L424 180L478 234L543 180L543 159L330 159L330 53L418 64L470 70L521 75L572 78L574 69L475 41L223-16L90-44L82-62L69-48ZM265 448L152 448L152 329L265 329L265 448ZM449 448L330 448L330 329L449 329L449 448ZM265 593L152 593L152 470L265 470L265 593ZM449 593L330 593L330 470L449 470L449 593ZM51 698L51 719L270 719L270 867L335 856L351 846L335 836L335 719L456 719L500 768L553 719L553 698L51 698Z"/></svg>