<svg id="U2DC1E" viewBox="0 0 1024 1024"><path transform="translate(0, 921.6) scale(1,-1)" d="M412 327L477 295L837 295L870 321L929 273L902 252L902-24L837-56L837-3L477-3L477-40L412-73L412 327ZM208-59L185-66L163-55L155-32L158 6L158 40L156 72L150 99L142 124L130 147L116 167L98 185L77 202L51 218L54 227L85 220L114 209L140 192L151 182L287 445L364 581L373 577L228 225L204 160L198 138L194 124L192 125L197 116L208 82L216 46L219 6L219-37L208-59ZM837 273L477 273L477 19L837 19L837 273ZM884 374L874 366L863 359L852 353L841 347L829 343L817 340L804 337L792 336L779 335L779 368L671 384L671 400L787 400L802 402L809 404L823 410L829 413L836 418L842 423L848 428L853 435L859 447L866 466L873 490L879 519L885 554L889 593L894 638L897 687L899 728L821 728L808 680L789 630L767 583L741 539L711 498L679 460L642 426L602 395L558 369L510 346L506 354L546 385L584 418L617 452L648 487L675 525L698 564L718 606L735 650L749 697L755 728L676 728L657 690L637 653L613 619L587 585L559 554L528 525L494 497L458 471L418 448L377 427L372 435L440 494L471 524L499 554L524 584L547 616L568 648L586 682L602 716L606 728L519 728L485 688L460 661L433 636L404 612L373 590L339 570L334 577L408 661L450 716L468 744L485 773L500 801L514 831L529 867L585 835L596 818L575 816L551 773L535 750L900 750L932 777L991 728L964 712L963 712L961 683L958 632L953 586L949 545L943 507L936 475L928 446L918 421L908 401L893 383L884 374ZM163 479L157 490L149 501L139 511L128 523L115 534L82 556L63 568L42 578L45 587L91 578L112 572L132 566L150 557L167 549L184 539L198 528L211 515L223 502L226 477L211 457L187 454L167 469L163 479ZM243 725L236 737L228 748L218 759L194 781L164 804L146 816L127 825L130 834L152 829L173 825L193 819L212 812L230 805L246 796L262 786L277 775L290 763L302 749L306 725L293 705L268 701L248 714L243 725Z"/></svg>