<svg id="U2D51B" viewBox="0 0 1024 1024"><path transform="translate(0, 921.6) scale(1,-1)" d="M115 246L180 214L365 214L397 241L457 192L430 171L430-24L365-56L365-3L180-3L180-40L115-73L115 246ZM487-38L487-16L709-16L709 203L523 203L523 224L843 224L896 278L961 224L961 203L774 203L774-16L869-16L923 38L987-16L987-38L487-38ZM365 192L180 192L180 19L365 19L365 192ZM77 548L52 555L41 576L47 600L51 603L57 611L63 621L68 634L73 651L78 670L83 692L88 717L92 744L95 773L105 773L110 725L241 725L241 872L305 861L321 850L305 841L305 725L430 725L463 752L522 703L495 687L481 681L476 671L453 633L425 590L424 587L439 573L440 556L419 566L412 563L385 555L358 548L330 542L305 537L305 444L322 444L375 498L440 444L440 423L305 423L305 320L395 320L439 369L493 320L493 299L305 299L305 256L241 224L241 299L52 299L52 320L241 320L241 423L105 423L105 444L241 444L241 528L208 525L175 524L142 524L108 526L107 535L232 568L241 571L241 670L305 659L321 648L305 639L305 590L341 603L366 613L389 623L393 614L413 596L421 646L424 661L426 675L429 700L430 703L113 703L114 690L115 667L115 645L114 625L113 607L109 590L104 575L98 561L77 548ZM754 326L742 364L735 383L727 402L708 440L675 498L665 515L663 516L663 517L664 518L672 538L680 560L735 697L741 714L744 720L799 685L808 668L787 666L730 584L716 566L677 518L707 495L739 462L754 445L768 427L781 408L804 369L814 349L813 324L796 308L771 308L754 326ZM605 326L593 364L577 402L559 440L527 498L516 515L514 516L515 517L514 517L515 518L556 622L586 697L590 709L592 714L595 720L650 685L659 668L638 666L581 584L553 548L528 518L558 495L590 462L605 445L619 427L632 408L655 369L665 349L664 324L646 308L622 308L605 326ZM911 334L904 352L888 389L868 425L822 499L810 514L808 516L876 679L890 714L893 720L947 685L957 668L936 666L903 618L848 547L822 519L852 497L870 483L903 451L918 434L945 399L969 362L971 337L954 319L930 318L911 334ZM918 850L982 797L982 775L501 775L501 797L864 797L918 850Z"/></svg>