<svg id="U2D44C" viewBox="0 0 1024 1024"><path transform="translate(0, 921.6) scale(1,-1)" d="M377 90L368 112L347 154L321 193L306 212L258 265L253 234L236 172L215 116L189 66L159 23L124-14L86-44L43-65L38-57L73-27L103 6L130 43L153 85L173 133L188 186L200 245L208 309L212 379L212 390L46 390L46 412L212 412L213 455L213 616L71 616L71 638L213 638L213 858L277 847L293 837L277 827L277 638L321 638L374 691L439 638L439 616L277 616L277 455L275 412L336 412L390 466L454 412L454 390L274 390L273 376L265 302L262 286L291 271L313 256L334 240L354 223L373 204L391 184L407 163L422 141L436 118L437 94L420 75L396 74L377 90ZM452-13L452 9L498 9L498 761L452 761L452 783L829 783L882 837L947 783L947 761L563 761L563 546L839 546L872 573L931 525L904 503L904 229L839 197L839 261L563 261L563 9L849 9L903 62L967 9L967-13L452-13ZM839 525L563 525L563 283L839 283L839 525Z"/></svg>