<svg id="U2D89" viewBox="0 0 674 1000"><path transform="translate(0, 900) scale(1,-1)" d="M58-82L34-82L60 36L34 154L58 154Q90 154 112.50 127.50Q135 101 142 73L142 73L274 73L274 210L74 210L74 279Q74 339 91 391Q108 443 147 481Q186 519 254 537L254 537L254 648L140 648Q133 620 110.50 593Q88 566 56 566L56 566L32 566L58 684L32 802L56 802Q88 802 110.50 775.50Q133 749 140 721L140 721L453 721Q461 749 483.50 775.50Q506 802 537 802L537 802L561 802L535 684L561 566L537 566Q506 566 483.50 593Q461 620 453 648L453 648L345 648L345 549Q358 550 371 550L371 550L478 550L478 550Q482 550 486 550L486 550Q569 550 609 514Q649 478 649 419L649 419Q649 364 607.50 325Q566 286 486 286L486 286Q398 286 360.50 323.50Q323 361 323 416L323 416Q323 451 338 479L338 479Q274 473 236 447Q198 421 181.50 380Q165 339 165 287L165 287L365 287L365 0L142 0Q135-28 112.50-55Q90-82 58-82L58-82ZM486 353L486 353Q524 353 542 370Q560 387 560 418L560 418Q560 448 541.50 465Q523 482 486 482L486 482Q449 482 430.50 465Q412 448 412 418L412 418Q412 387 430.50 370Q449 353 486 353Z"/></svg>