<svg id="U2D31D" viewBox="0 0 1024 1024"><path transform="translate(0, 921.6) scale(1,-1)" d="M704-15L704-10L700-20L671-64L638-95L631-88L654-53L673-8L692 46L707 112L721 188L732 275L740 374L741 401L730 447L716 517L707 591L716 593L746 498L749 604L749 724L674 724L674 746L890 746L923 773L982 724L955 708L954 613L952 503L949 404L946 315L943 238L938 171L935 134L949 119L992 80L934 37L925 46L923 34L915 8L910-5L903-17L895-27L886-37L875-45L864-52L852-57L839-60L825-62L812-63L812-31L704-15ZM618 24L617 31L616 38L609 55L597 74L590 84L587 89L577 65L563 34L546 6L529-19L509-43L488-63L465-81L458-74L486-26L510 25L530 82L539 114L546 147L552 182L557 218L559 229L621 208L635 195L616 187L612 169L602 133L592 104L602 100L626 88L637 82L647 75L656 67L664 59L672 50L679 41L678 16L660-1L635 1L618 18L618 24ZM434 4L429 24L422 44L409 74L401 88L384 51L367 22L350-6L331-33L311-58L289-80L282-74L319 10L342 69L361 131L378 197L385 232L387 241L448 217L461 202L442 196L437 181L412 113L408 103L418 98L438 85L449 77L467 61L492 32L493 8L477-11L452-12L434 4ZM71 747L136 714L222 714L252 741L308 693L281 674L281 185L222 155L222 217L136 217L136 153L71 120L71 747ZM890 724L814 724L810 602L803 480L794 369L808 335L833 283L860 235L876 210L882 318L885 405L887 504L889 614L890 724ZM622 498L676 449L649 433L649 267L595 240L595 267L547 267L547 251L504 229L504 492L547 471L595 471L622 498ZM446 498L494 449L467 439L467 272L424 251L424 272L374 272L374 256L325 232L325 495L374 471L424 471L446 498ZM222 693L136 693L136 239L222 239L222 693ZM595 449L547 449L547 288L595 288L595 449ZM424 449L374 449L374 294L424 294L424 449ZM643 582L622 595L575 667L504 757L474 702L427 628L375 562L348 532L320 504L289 478L282 485L347 583L388 653L426 727L461 807L481 856L538 825L549 809L529 806L517 782L512 772L536 758L556 744L594 714L628 683L660 649L675 632L680 608L667 587L643 582ZM552 621L606 573L606 552L398 552L398 573L508 573L552 621ZM860 48L865 78L869 113L838 159L812 208L788 262L782 276L766 180L747 102L725 35L709 1L812 1L819 2L825 3L831 4L835 6L839 8L843 11L846 15L849 19L852 24L855 31L860 48Z"/></svg>