<svg id="U2D993" viewBox="0 0 1024 1024"><path transform="translate(0, 921.6) scale(1,-1)" d="M554 223L550 178L539 136L524 97L504 61L480 28L451-1L417-25L380-47L338-63L293-76L289-67L330-45L365-22L396 3L422 29L444 56L461 86L474 117L484 151L489 187L490 225L490 401L555 390L571 380L555 370L555 224L554 223ZM926 19L958 154L969 154L958 19L978 6L990-13L978-32L958-45L888-45L874-44L861-42L848-38L836-31L825-22L816-11L809 1L805 14L803 27L802 41L802 401L867 390L883 380L867 370L867 34L868 30L870 25L872 23L876 21L881 20L888 19L926 19ZM646 401L711 390L727 380L711 370L711 30L646-2L646 401ZM81 780L146 748L282 748L315 775L374 726L347 705L347 87L282 55L282 119L146 119L146 55L81 23L81 780ZM282 432L146 432L146 141L282 141L282 432ZM980 686L693 685L654 628L583 534L551 496L602 499L701 506L814 515L859 518L828 561L799 597L782 614L788 623L831 598L870 569L905 535L921 517L936 498L964 457L965 433L949 414L924 412L906 428L897 448L878 487L866 506L866 507L759 482L706 471L607 454L486 435L444 431L433 413L422 428L408 492L419 493L448 492L481 493L517 495L532 495L601 632L620 672L626 686L394 686L394 707L646 707L646 853L711 842L727 831L711 821L711 707L861 707L915 761L980 707L980 686ZM282 726L146 726L146 453L282 453L282 726Z"/></svg>