<svg id="U2D4DC" viewBox="0 0 1024 1024"><path transform="translate(0, 921.6) scale(1,-1)" d="M134-28L134-12L209-12L216-11L221-11L224-10L225-9L227-8L228-7L229-5L229-2L230 3L231 10L231 186L109 141L90 135L84 115L70 127L41 187L209 231L231 237L231 369L280 361L293 381L344 463L346 467L94 467L94 488L356 488L360 491L362 496L364 494L388 515L447 467L421 451L400 442L362 402L317 361L305 351L311 347L295 338L295 254L365 273L443 292L446 283L411 263L375 246L301 213L295 211L295 10L294-4L292-17L288-30L281-42L272-53L261-62L249-69L236-73L223-75L209-76L209-44L134-28ZM445-33L445-12L681-12L681 92L496 92L496 113L681 113L681 210L570 210L570 194L505 162L505 514L570 482L857 482L889 509L949 461L922 439L922 199L857 167L857 210L746 210L746 113L833 113L877 162L931 113L931 92L746 92L746-12L864-12L917 42L982-12L982-33L445-33ZM681 335L570 335L570 232L681 232L681 335ZM857 335L746 335L746 232L857 232L857 335ZM681 461L570 461L570 357L681 357L681 461ZM857 461L746 461L746 357L857 357L857 461ZM375 863L380 852L422 813L423 796L403 805L380 797L358 791L311 779L286 774L260 770L234 766L206 763L193 762L177 756L167 720L158 691L135 633L122 603L107 574L90 544L72 515L51 486L42 490L84 618L92 648L106 705L111 733L115 760L117 781L120 797L173 780L274 817L318 835L357 854L375 863ZM236 587L236 601L236 614L236 628L235 642L230 671L228 685L224 700L218 714L227 719L236 707L247 695L257 682L265 669L280 640L286 625L291 609L295 593L299 576L290 553L268 542L245 551L234 573L236 587ZM812 745L870 716L881 700L858 696L839 663L808 617L782 583L778 578L867 578L921 632L985 578L985 556L442 556L442 578L764 578L768 590L801 698L808 732L807 732L812 745ZM380 584L375 616L372 632L368 648L364 663L358 679L338 727L328 741L335 748L364 724L377 711L389 697L400 683L411 667L429 633L436 616L443 597L438 573L418 559L394 564L380 584ZM601 622L597 647L595 659L588 684L579 709L574 721L566 733L573 740L584 730L596 721L607 712L617 702L627 690L644 666L652 652L665 624L660 599L640 585L616 590L602 610L601 622ZM477 750L477 772L681 772L681 868L746 857L762 846L746 837L746 772L832 772L886 826L950 772L950 750L477 750Z"/></svg>