<svg id="U2D1A3" viewBox="0 0 1024 1024"><path transform="translate(0, 921.6) scale(1,-1)" d="M641 304L706 294L722 283L706 273L706-45L641-77L641 304ZM397 194L399 194L391 149L378 109L362 72L341 38L317 8L289-18L257-40L222-56L184-69L142-76L139-67L176-50L209-31L237-10L261 12L282 37L299 64L313 94L323 126L330 162L335 200L335 304L399 294L415 283L399 273L399 197L397 194ZM160 363L160 379L246 379L252 380L257 381L262 382L264 384L266 389L267 394L267 401L267 658L332 647L348 637L332 627L332 401L331 387L329 374L324 361L317 348L309 338L298 328L286 322L273 318L259 316L246 314L246 347L160 363ZM629 721L880 721L888 732L890 730L912 748L971 699L944 683L903 666L892 659L850 634L816 617L799 606L793 613L807 627L866 699L735 699L731 647L723 601L729 582L740 553L755 526L772 502L793 479L817 458L844 439L875 421L910 405L985 377L923 325L881 345L843 367L809 391L780 418L755 446L735 477L720 509L710 543L709 556L702 535L678 487L646 445L609 408L566 378L518 354L464 337L404 326L403 335L457 356L506 380L547 407L582 438L611 473L634 511L651 554L664 601L670 653L671 699L607 699L562 662L536 645L508 630L502 638L543 683L577 727L592 748L606 770L617 792L627 814L636 836L641 853L640 853L645 866L703 837L715 821L694 817L679 788L664 764L646 742L629 721ZM146 574L203 542L214 526L191 523L182 508L170 492L157 476L143 461L113 434L95 421L59 398L53 406L67 421L90 455L110 487L118 503L126 519L138 551L143 567L146 574ZM477 437L472 449L467 462L452 488L432 516L408 545L393 558L398 566L416 556L435 548L452 538L468 527L496 504L509 491L520 477L530 463L539 448L539 423L521 406L497 406L479 424L477 437ZM452 664L447 673L441 683L436 689L385 679L312 668L208 653L143 645L133 643L123 625L110 641L95 704L106 705L133 706L195 772L230 811L280 873L282 875L328 830L334 811L313 815L268 773L226 739L182 708L180 707L309 709L383 707L421 706L399 728L367 756L349 769L353 777L374 768L395 761L432 745L448 737L463 729L476 720L488 711L499 702L509 692L513 668L499 647L475 644L454 657L452 664Z"/></svg>