<svg id="U2D828" viewBox="0 0 1024 1024"><path transform="translate(0, 921.6) scale(1,-1)" d="M106-18L106-2L181-2L187-2L192-1L197 1L199 3L201 8L202 13L202 19L202 318L93 265L89 245L73 255L38 311L202 374L202 632L52 632L52 654L202 654L202 863L267 853L283 842L267 832L267 654L323 654L367 702L388 684L595 684L609 728L624 790L636 853L638 863L699 842L713 828L694 821L683 775L664 711L653 684L864 684L908 732L961 684L961 662L723 662L793 558L843 491L869 460L922 403L989 344L931 300L903 329L876 360L850 392L825 426L780 499L740 578L724 621L711 662L645 662L613 590L581 532L546 477L507 425L464 375L416 328L365 284L358 292L401 342L441 394L478 446L511 499L541 554L567 611L587 662L412 662L421 654L421 632L267 632L267 399L382 442L419 454L423 445L357 403L267 352L267 19L266 6L264-8L259-20L252-33L244-44L233-52L221-59L208-63L194-66L181-67L181-34L106-18ZM367-27L367-6L638-6L638 221L466 221L466 243L638 243L638 471L703 461L719 450L703 440L703 243L756 243L810 297L874 243L874 221L703 221L703-6L855-6L909 48L973-6L973-27L367-27Z"/></svg>