<svg id="U2D55C" viewBox="0 0 1024 1024"><path transform="translate(0, 921.6) scale(1,-1)" d="M722-25L722-9L830-9L836-8L841-7L844-6L846-5L847-4L848-3L849-2L850 2L851 6L851 13L851 430L339 430L339-40L274-73L274 484L339 452L474 452L481 462L551 583L565 609L570 618L621 577L628 560L606 561L584 536L557 508L510 466L493 452L851 452L883 478L943 430L916 409L916 13L915-1L913-14L908-27L902-39L893-50L882-59L870-66L857-70L844-72L830-73L830-41L722-25ZM152 847L216 815L840 815L872 842L931 793L904 772L904 616L840 584L840 638L216 638L216 471L213 403L207 338L199 276L187 217L172 162L155 110L134 62L111 17L84-23L53-59L45-53L66-12L85 30L102 75L116 123L128 173L138 226L145 283L150 342L152 405L152 847ZM441 348L506 316L676 316L708 343L767 295L740 273L740 80L676 47L676 112L506 112L506 47L441 15L441 348ZM676 295L506 295L506 133L676 133L676 295ZM840 793L216 793L216 659L840 659L840 793Z"/></svg>