<svg id="U2D90" viewBox="0 0 1222 1000"><path transform="translate(0, 900) scale(1,-1)" d="M315 0L215 0L215 388L215 390L123 390Q116 362 93.50 335Q71 308 39 308L39 308L15 308L41 426L15 544L39 544Q71 544 93.50 517.50Q116 491 123 463L123 463L220 463Q239 582 320 648Q401 714 549 714L549 714L658 714L658 668Q679 685 716 699.50Q753 714 806 714L806 714Q902 714 951.50 658Q1001 602 1009 501L1009 501L1053 501Q1127 501 1165.50 468.50Q1204 436 1204 377L1204 377Q1204 315 1161 276Q1118 237 1019 237L1019 237L919 237L919 433Q919 496 908 541Q897 586 866.50 610Q836 634 777 634L777 634Q740 634 708 622.50Q676 611 658 595L658 595L658 501L701 501Q775 501 813.50 468.50Q852 436 852 377L852 377Q852 315 809 276Q766 237 667 237L667 237L567 237L567 634L547 634Q416 634 361 567Q306 500 306 378L306 378L306 264L349 264Q423 264 461.50 231.50Q500 199 500 140L500 140Q500 78 457 39Q414 0 315 0L315 0ZM658 433L658 303L670 303Q720 303 741.50 323Q763 343 763 374L763 374Q763 402 747.50 417.50Q732 433 685 433L685 433L658 433ZM1010 433L1010 303L1022 303Q1072 303 1093.50 323Q1115 343 1115 374L1115 374Q1115 402 1099.50 417.50Q1084 433 1037 433L1037 433L1010 433ZM306 196L306 66L318 66Q368 66 389.50 86Q411 106 411 137L411 137Q411 165 395.50 180.50Q380 196 333 196L333 196L306 196Z"/></svg>