<svg id="U2D840" viewBox="0 0 1024 1024"><path transform="translate(0, 921.6) scale(1,-1)" d="M103-18L103-2L178-2L185-2L189-1L194 1L196 3L198 8L199 13L200 19L200 318L97 265L93 245L77 255L41 311L200 374L200 632L55 632L55 654L200 654L200 863L264 853L280 842L264 832L264 654L294 654L348 707L383 678L382 685L571 735L683 769L736 788L832 826L917 869L924 855L963 819L963 802L944 810L901 791L853 773L803 756L751 740L731 735L719 728L719 556L872 556L904 583L964 535L937 513L937 268L872 235L872 278L719 278L719 36L806 42L860 45L894 46L869 99L815 195L822 202L845 184L866 165L885 144L903 121L936 74L951 48L979-5L990-33L989-58L971-74L946-73L930-54L922-27L913-1L903 25L899 34L810 13L654-15L503-38L427-49L417-67L406-52L388 11L399 12L447 16L497 19L547 23L597 26L649 31L654 31L654 278L501 278L501 214L436 182L436 589L501 556L654 556L654 716L579 700L516 690L451 682L385 676L413 654L413 632L264 632L264 399L374 442L410 454L415 445L351 403L264 353L264 19L263 6L261-8L257-20L250-33L241-44L230-52L218-59L205-63L192-66L178-67L178-34L103-18ZM654 535L501 535L501 300L654 300L654 535ZM872 535L719 535L719 300L872 300L872 535Z"/></svg>