<svg id="U2D081" viewBox="0 0 1024 1024"><path transform="translate(0, 921.6) scale(1,-1)" d="M192-51L171-38L165-15L178 7L189 13L200 22L211 32L221 45L231 59L240 75L249 93L257 113L264 135L270 160L280 159L280 133L280 109L278 85L275 63L270 42L263 22L253 3L243-15L230-31L216-45L192-51ZM843-23L835-34L826-44L817-53L806-60L795-67L782-72L770-75L757-76L743-77L743-45L636-29L636-13L743-13L750-12L757-11L768-8L776-3L781 1L785 6L788 11L792 18L797 30L802 45L807 62L811 82L815 105L821 156L822 185L823 217L824 240L317 240L310 230L282 201L252 173L218 146L180 120L139 96L95 75L90 83L163 143L195 173L223 202L249 231L270 261L288 290L303 319L315 349L323 378L326 387L385 360L398 346L377 340L372 326L354 292L334 261L824 261L856 288L915 240L888 224L888 216L887 183L882 123L879 96L875 70L870 47L864 26L858 6L850-11L843-23ZM419-9L395-12L375 3L372 27L375 33L378 40L381 48L382 59L384 71L384 85L383 100L380 134L375 153L384 156L392 139L402 123L410 108L417 92L423 78L428 64L431 51L434 37L435 24L434 11L419-9ZM536 73L533 85L529 97L520 121L508 146L501 158L492 168L497 176L509 168L523 160L535 152L547 142L568 120L578 108L587 95L595 81L602 66L600 42L581 26L557 28L540 47L536 73ZM701 80L699 90L694 101L688 113L680 125L671 138L659 151L630 178L611 190L615 199L637 190L657 183L676 175L693 165L709 155L723 143L736 131L747 117L757 103L765 87L761 62L742 47L717 51L702 70L701 80ZM200 686L265 675L281 664L265 655L265 326L200 294L200 686ZM426 691L490 659L727 659L759 686L818 638L792 616L792 342L727 310L727 353L490 353L490 337L426 304L426 691ZM727 503L490 503L490 374L727 374L727 503ZM727 638L490 638L490 525L727 525L727 638ZM153 777L888 777L892 781L893 781L921 804L980 755L953 739L934 731L908 698L851 636L817 602L809 607L821 629L868 724L881 755L154 755L154 737L152 708L148 681L142 656L134 633L122 612L109 594L92 577L68 572L47 585L42 609L55 630L66 637L77 646L87 659L96 675L106 694L113 716L120 741L127 770L132 802L136 837L146 837L151 802L153 777Z"/></svg>