<svg id="U2D6E1" viewBox="0 0 1024 1024"><path transform="translate(0, 921.6) scale(1,-1)" d="M327 660L380 622L388 605L368 605L325 542L295 504L264 468L231 432L222 423L260 417L276 406L260 397L260-40L195-72L195 397L161 366L124 335L85 306L44 279L38 287L104 356L167 426L225 499L278 575L322 650L327 660ZM786-13L786 3L872 3L878 4L883 5L886 6L888 6L889 8L890 9L891 10L892 13L893 18L893 25L893 777L490 777L490-34L426-67L426 831L490 799L893 799L925 826L985 777L958 756L958 25L957 11L954-2L950-15L944-27L935-38L924-47L912-54L899-58L886-60L872-61L872-29L786-13ZM577 607L641 575L743 575L775 602L834 554L807 532L807 222L743 190L743 254L641 254L641 190L577 158L577 607ZM743 554L641 554L641 276L743 276L743 554ZM287 864L340 826L348 809L328 809L291 757L265 725L210 663L152 608L121 582L89 559L56 538L50 545L152 662L199 725L244 790L287 864Z"/></svg>