<svg id="U2D676" viewBox="0 0 1024 1024"><path transform="translate(0, 921.6) scale(1,-1)" d="M689 717L688 717L692 721L694 722L736 674L739 654L715 661L690 649L645 629L628 623L803 623L847 671L901 623L901 601L648 601L648 542L794 542L827 580L870 542L870 520L648 520L648 463L794 463L827 501L870 463L870 442L648 442L648 378L856 378L889 416L932 378L932 357L389 357L324 325L324 569L288 549L256 534L221 519L194 510L194 390L191 327L185 268L176 211L164 158L150 109L132 63L112 20L88-18L61-51L31-80L24-74L45-39L63-3L80 35L94 77L106 121L116 169L123 219L127 273L129 330L129 783L194 750L503 750L503 874L568 863L584 853L568 843L568 750L856 750L910 804L974 750L974 729L194 729L194 525L270 579L320 619L363 660L381 680L398 700L409 717L413 721L415 724L464 681L470 663L449 665L422 640L402 623L595 623L617 641L664 686L680 705L689 717ZM672-17L672-1L758-1L764-1L769 0L772 1L774 2L775 3L776 4L777 6L778 9L779 14L779 20L779 76L363 76L363-32L298-64L298 318L363 286L779 286L811 313L871 264L844 243L844 20L843 6L840-7L836-20L830-32L821-42L810-52L797-58L785-62L771-65L758-66L758-33L672-17ZM779 170L363 170L363 97L779 97L779 170ZM779 264L363 264L363 191L779 191L779 264ZM584 442L389 442L389 378L584 378L584 442ZM584 520L389 520L389 463L584 463L584 520ZM584 601L389 601L389 542L584 542L584 601Z"/></svg>