<svg id="U2DB90" viewBox="0 0 1024 1024"><path transform="translate(0, 921.6) scale(1,-1)" d="M198 264L193 294L188 308L177 334L161 360L151 372L141 384L140 385L110 335L81 295L50 259L42 264L85 349L104 394L122 440L139 490L153 541L166 595L177 651L185 710L190 756L46 756L46 777L297 777L351 831L416 777L416 756L255 756L246 700L233 639L218 582L214 568L318 568L351 595L410 546L383 530L379 529L370 462L353 376L331 296L304 223L273 155L237 94L197 39L152-9L102-49L49-81L43-73L89-33L131 11L169 61L202 115L232 175L258 240L279 311L296 388L309 471L317 546L207 546L182 474L160 425L146 397L165 390L180 381L195 371L209 360L222 346L234 332L244 316L253 298L260 280L257 255L237 240L213 244L198 264ZM609-9L606 13L604 29L579 16L530-5L461-33L420-48L413-69L398-56L371 4L381 6L430 16L431 28L436 74L442 123L504 561L506 577L568 556L582 543L564 536L541 411L502 223L477 116L465 68L451 25L449 19L470 23L544 38L570 42L601 47L599 60L589 110L563 221L571 225L588 199L602 173L627 122L647 73L663 25L669 1L674-22L668-46L647-58L623-52L610-31L609-9ZM922-17L918 6L914 30L912 39L839 6L725-40L718-60L704-47L675 11L686 15L730 24L732 24L739 84L808 577L870 556L884 544L866 536L831 349L806 230L780 125L767 78L754 35L751 29L828 45L881 55L907 59L901 81L884 134L854 221L863 226L900 174L930 123L955 71L974 21L982-4L989-28L983-53L963-66L939-61L925-40L922-17ZM381 610L381 631L644 631L644 859L708 848L724 838L708 828L708 631L852 631L906 685L971 631L971 610L381 610Z"/></svg>