<svg id="U2D077" viewBox="0 0 1024 1024"><path transform="translate(0, 921.6) scale(1,-1)" d="M839-65L803-33L757-1L668 52L558 110L561 119L604 108L645 96L682 84L750 57L809 29L835 15L859 0L880-15L892-37L884-61L863-72L839-65ZM402 127L442 77L444 58L425 65L385 38L320 3L286-12L250-27L212-40L173-53L131-63L88-71L86-62L199-8L265 28L325 66L378 106L401 127L402 127ZM888 245L953 191L953 170L66 170L66 191L835 191L888 245ZM233 702L297 669L727 669L759 696L818 648L791 626L791 262L727 230L727 273L297 273L297 257L233 225L233 702ZM727 403L297 403L297 295L727 295L727 403ZM727 526L297 526L297 425L727 425L727 526ZM727 648L297 648L297 547L727 547L727 648ZM153 770L888 770L892 774L893 774L921 797L980 748L953 732L934 724L908 691L851 628L817 593L809 598L821 620L868 716L882 748L154 748L154 730L152 700L148 674L142 648L134 625L122 604L109 585L92 569L68 563L47 576L42 600L55 621L65 628L76 638L87 650L96 667L105 686L113 709L120 734L127 763L132 795L136 830L146 831L151 795L153 770Z"/></svg>