<svg id="U2D415" viewBox="0 0 1024 1024"><path transform="translate(0, 921.6) scale(1,-1)" d="M70-65L45-4L256 38L332 52L329 54L357 132L389 218L402 254L405 264L406 268L406 294L178 294L113 261L113 514L178 482L406 482L438 509L497 460L471 439L471 294L422 269L466 244L477 227L455 225L401 138L371 95L341 54L407 66L458 75L509 82L560 89L563 80L464 46L267-11L92-59L85-77L70-65ZM987-27L930-70L901-37L875-1L852 38L831 79L812 122L796 168L783 216L772 266L768 295L728 219L680 148L625 83L563 25L495-26L420-70L415-62L482-10L544 46L599 106L646 171L688 242L723 317L752 398L774 484L790 575L798 659L678 659L670 629L651 578L630 528L607 481L580 435L551 391L518 350L510 356L554 448L574 496L592 544L608 593L622 643L633 695L642 747L649 801L654 868L717 850L732 838L714 829L709 792L699 737L685 682L685 681L799 681L831 707L890 659L864 643L860 642L850 566L830 470L803 381L784 333L803 274L820 227L838 184L858 143L879 105L902 69L926 37L952 8L987-27ZM185 104L182 121L178 137L173 153L167 169L160 185L153 201L135 234L123 249L129 256L161 233L177 220L191 205L203 190L225 158L235 139L243 121L250 102L245 77L225 63L201 68L187 88L185 104ZM406 460L178 460L178 315L406 315L406 460ZM75 568L75 589L254 589L254 718L46 718L46 740L254 740L254 869L318 858L335 847L318 838L318 740L426 740L480 793L544 740L544 718L318 718L318 589L423 589L467 638L521 589L521 568L75 568Z"/></svg>