<svg id="U2DE7B" viewBox="0 0 1024 1024"><path transform="translate(0, 921.6) scale(1,-1)" d="M905 309L907 313L910 317L911 317L913 319L958 274L963 255L940 259L824 170L779 138L795 119L823 92L851 70L882 52L914 38L990 14L928-41L887-24L850-3L815 23L784 53L756 87L732 125L711 167L706 180L706 14L704 1L702-13L698-26L691-38L682-49L672-58L659-65L646-69L633-71L620-72L620-40L512-24L512-8L620-8L626-7L631-6L636-4L638-2L639 3L640 8L641 14L641 169L621 170L594 138L550 92L501 49L449 10L420-8L391-24L385-16L473 79L513 126L549 174L581 224L584 227L635 187L641 170L641 537L468 537L468 473L403 440L403 769L468 737L561 737L565 745L588 792L596 806L602 820L609 834L624 866L623 866L629 875L680 835L687 817L664 818L640 793L590 748L578 737L878 737L910 764L969 716L943 694L943 537L878 505L878 537L706 537L706 305L822 443L843 469L845 474L849 478L851 480L896 435L901 416L879 420L745 308L706 276L706 258L722 225L745 185L770 149L875 270L905 309ZM35 107L157 147L157 428L66 428L66 449L157 449L157 702L51 702L51 724L244 724L298 777L363 724L363 702L221 702L221 449L250 449L294 498L347 449L347 428L221 428L221 168L302 195L376 218L380 209L314 169L249 134L155 89L96 62L88 59L82 39L67 51L35 107ZM571 429L620 387L626 369L605 371L581 345L539 305L494 267L444 232L418 217L391 203L385 210L485 318L537 383L553 404L568 426L571 429ZM561 716L468 716L468 559L561 559L561 716ZM720 716L626 716L626 559L720 559L720 716ZM878 716L785 716L785 559L878 559L878 716Z"/></svg>