<svg id="U2DA4C" viewBox="0 0 1024 1024"><path transform="translate(0, 921.6) scale(1,-1)" d="M801-11L801 5L876 5L882 5L887 6L890 7L892 8L893 9L894 10L895 12L896 15L897 20L897 26L897 180L893 176L868 181L854 201L844 249L834 296L828 318L813 247L794 177L772 116L749 63L724 19L696-14L688-8L706 29L723 74L739 126L754 188L768 257L781 335L792 421L794 436L773 492L732 587L739 592L763 568L785 540L802 512L811 620L818 727L818 745L882 728L897 717L880 708L872 615L859 510L847 424L859 398L889 311L897 285L897 790L581 790L581 601L586 604L610 573L632 538L652 502L659 486L666 562L672 649L677 753L740 738L756 726L739 717L733 645L723 556L713 473L700 394L699 391L716 341L728 297L739 251L749 204L743 180L722 167L698 174L685 194L679 240L673 274L650 187L629 128L606 74L581 27L581-33L516-65L516 843L581 811L897 811L930 838L989 790L962 768L962 26L961 13L959-1L954-13L947-26L939-37L928-46L916-52L903-56L889-59L876-60L876-27L801-11ZM32-54L32-32L227-32L227 119L72 119L72 141L227 141L227 255L172 248L132 245L91 244L49 244L48 254L203 292L273 312L337 332L396 354L399 346L449 304L450 287L428 297L417 293L353 277L319 270L292 265L292 141L328 141L381 195L446 141L446 119L292 119L292-32L367-32L421 22L486-32L486-54L32-54ZM581 592L581 62L601 137L615 196L628 260L640 328L649 390L644 410L620 488L581 592ZM415 664L345 664L339 617L330 560L329 557L409 557L410 564L414 646L415 664ZM419 793L353 793L351 745L347 686L416 686L416 695L418 747L419 793ZM419 815L451 842L510 793L484 777L483 777L482 746L481 692L479 644L477 599L474 560L471 524L467 494L464 467L459 445L454 426L449 413L443 401L436 390L427 380L416 372L405 364L393 360L380 356L366 354L353 353L353 385L280 397L271 378L250 345L226 318L218 324L232 355L244 389L251 412L235 401L147 401L133 402L120 404L107 409L95 416L84 424L75 435L68 447L64 460L61 474L61 487L61 745L125 713L129 713L129 858L194 847L210 837L194 827L194 713L207 713L240 750L283 713L283 691L125 691L125 481L127 476L128 473L129 471L129 470L130 469L135 467L140 466L147 466L235 466L254 453L260 445L265 469L274 516L280 567L285 623L289 682L291 747L290 816L291 848L354 815L419 815ZM396 459L400 478L403 502L407 531L407 535L325 535L318 507L304 459L289 417L353 417L360 418L366 419L371 420L375 422L379 424L382 427L388 434L391 440L393 446L396 459Z"/></svg>