<svg id="U2D88B" viewBox="0 0 1024 1024"><path transform="translate(0, 921.6) scale(1,-1)" d="M85-22L85-6L160-6L167-5L172-4L175-4L177-3L179-1L180 4L181 9L182 16L182 318L92 268L89 247L72 257L35 311L182 375L182 639L50 639L50 660L182 660L182 873L246 862L263 852L246 842L246 660L264 660L317 714L382 660L382 639L246 639L246 403L345 445L380 457L384 449L356 427L265 367L246 355L246 16L245 2L243-11L239-24L232-37L223-47L213-56L200-63L187-67L174-69L160-70L160-38L85-22ZM334-41L334-20L423-20L423 271L487 239L832 239L864 266L923 218L896 196L896-20L909-20L943 18L986-20L986-41L334-41ZM559 218L487 218L487-20L559-20L559 218ZM695 218L624 218L624-20L695-20L695 218ZM832 218L760 218L760-20L832-20L832 218ZM654 326L654 342L761 342L768 343L773 344L776 345L778 346L779 346L780 347L780 349L781 353L782 358L783 364L783 550L528 550L527 517L521 478L511 442L499 410L484 380L465 354L442 332L417 313L389 299L358 289L354 298L379 316L399 335L417 356L431 378L443 402L453 427L459 456L464 487L465 520L464 550L341 550L341 571L464 571L464 792L529 760L565 760L568 765L573 776L578 788L589 821L596 845L600 863L599 863L604 875L661 844L672 828L648 824L637 809L628 799L619 789L609 780L589 763L582 760L783 760L815 787L874 738L847 717L847 571L867 571L921 625L986 571L986 550L847 550L847 364L846 350L844 337L840 324L833 312L824 301L814 292L801 285L788 281L775 278L761 278L761 310L654 326ZM616 527L680 516L696 505L680 496L680 376L616 344L616 527ZM783 738L529 738L529 571L783 571L783 738ZM650 596L636 616L638 626L637 633L635 641L631 650L627 660L622 670L607 692L596 702L602 710L615 702L628 695L640 689L651 682L661 674L671 667L679 659L687 650L694 640L699 630L694 605L674 591L650 596Z"/></svg>