<svg id="U2DFD6" viewBox="0 0 1024 1024"><path transform="translate(0, 921.6) scale(1,-1)" d="M446-34L424-24L416 0L427 22L435 28L443 37L451 48L459 62L466 78L473 98L479 120L490 173L493 202L503 203L510 144L511 117L510 92L508 68L504 46L499 26L492 7L482-10L470-26L446-34ZM626 433L614 396L597 356L578 319L576 315L894 315L926 342L985 294L958 277L958 261L957 221L954 149L951 118L948 89L944 63L940 39L935 18L928-1L923-13L916-25L908-35L899-45L888-54L877-60L865-66L852-69L839-71L825-72L825-40L718-24L718-8L825-8L832-7L838-6L844-4L848-3L852-1L856 2L859 6L862 10L865 16L868 22L872 35L876 53L881 73L884 97L889 154L892 187L894 262L894 294L562 294L532 250L505 218L475 188L443 160L408 135L370 112L364 120L395 151L423 181L450 212L473 244L495 276L514 309L530 344L544 378L556 415L560 433L367 433L367 455L484 455L484 702L549 691L565 681L549 671L549 455L644 455L644 772L396 772L396 793L837 793L890 847L955 793L955 772L708 772L708 627L821 627L865 675L919 627L919 605L708 605L708 455L866 455L920 509L984 455L984 433L626 433ZM614 15L589 9L569 23L563 46L567 58L572 84L573 99L574 115L574 131L573 148L571 167L569 187L564 206L573 210L593 174L601 156L609 138L615 121L620 104L623 87L625 69L627 52L627 35L614 15ZM73 791L137 759L275 759L308 786L367 738L340 716L340 101L275 68L275 133L137 133L137 68L73 36L73 791ZM678 84L677 100L675 116L673 131L670 145L663 174L658 189L653 203L646 217L654 223L665 211L677 201L688 188L708 161L724 130L737 96L742 78L735 54L714 41L690 48L678 69L678 84ZM787 128L785 140L781 151L777 163L772 175L766 186L752 210L743 223L732 233L737 241L751 233L766 226L779 218L792 209L804 199L815 188L825 176L843 150L850 136L848 112L829 96L805 98L789 117L787 128ZM275 343L137 343L137 154L275 154L275 343ZM275 540L137 540L137 364L275 364L275 540ZM275 738L137 738L137 562L275 562L275 738Z"/></svg>