<svg id="U2DE3B" viewBox="0 0 1024 1024"><path transform="translate(0, 921.6) scale(1,-1)" d="M751 734L736 725L740 564L752 455L839 455L893 509L957 455L957 433L754 433L756 414L779 292L807 197L838 125L869 73L898 38L918 20L945 138L956 138L946 4L950 3L971-9L977-33L965-54L941-61L916-53L886-37L852-8L816 35L780 96L746 176L716 278L692 405L689 433L527 433L527 43L706 115L711 107L654 63L596 27L539-5L484-33L450-48L445-69L429-58L398 0L435 11L463 20L463 745L519 717L674 776L778 820L842 851L846 853L851 842L893 804L894 787L874 795L800 767L734 745L735 745L751 734ZM71 49L41 108L181 147L181 428L73 428L73 449L181 449L181 702L56 702L56 724L293 724L347 777L411 724L411 702L245 702L245 449L276 449L330 503L394 449L394 428L245 428L245 167L344 196L427 218L431 209L354 169L279 134L172 89L91 57L86 38L71 49ZM676 560L671 728L613 714L574 707L535 702L527 701L527 455L687 455L676 560Z"/></svg>