<svg id="U2DF03" viewBox="0 0 1024 1024"><path transform="translate(0, 921.6) scale(1,-1)" d="M285 284L285 282L283 269L334 269L387 323L452 269L452 247L279 247L277 231L267 188L296 171L315 159L351 131L367 117L396 87L409 71L422 55L424 31L410 11L386 8L366 22L350 54L341 69L319 102L294 135L265 170L263 173L251 139L233 98L211 61L186 27L157-2L125-27L89-48L51-63L46-54L78-31L107-5L132 23L153 52L172 84L188 118L200 156L210 197L217 240L217 247L39 247L39 269L219 269L221 287L221 440L74 440L74 462L318 462L372 516L437 462L437 440L285 440L285 284ZM871-49L810-45L756-34L707-18L665 6L630 37L602 73L582 115L578 134L570 109L554 69L537 32L517-3L494-35L469-65L461-59L477-25L491 10L504 46L516 83L527 121L535 162L542 205L546 249L550 296L551 338L552 356L616 341L631 330L614 320L610 290L603 242L595 195L590 176L593 167L611 128L634 96L660 69L681 56L681 524L493 524L493 545L879 545L911 572L970 524L943 507L925 500L889 451L867 425L855 411L845 396L836 401L843 418L858 468L871 511L875 524L746 524L746 288L810 288L854 337L908 288L908 267L746 267L746 29L769 24L816 18L870 19L930 24L986 30L937-46L871-49ZM129 531L64 499L64 768L129 757L145 747L129 737L129 553L219 553L219 868L284 857L300 846L284 837L284 730L367 730L401 767L444 730L444 708L284 708L284 553L371 553L415 601L468 553L468 531L129 531ZM868 849L928 800L901 779L901 618L836 585L836 628L511 628L511 650L836 650L836 800L511 800L511 822L836 822L868 849Z"/></svg>