<svg id="U2D71B" viewBox="0 0 1024 1024"><path transform="translate(0, 921.6) scale(1,-1)" d="M158 869L222 858L238 847L222 838L222-40L158-72L158 869ZM291 25L291 46L377 46L377 783L441 750L835 750L867 777L926 729L900 707L900 46L909 46L943 84L986 46L986 25L291 25ZM531 729L441 729L441 46L531 46L531 729ZM681 729L595 729L595 46L681 46L681 729ZM835 729L745 729L745 46L835 46L835 729ZM75 395L51 398L37 419L40 443L47 452L55 463L62 477L77 512L91 556L105 609L112 638L122 638L123 578L122 551L121 525L118 502L115 480L111 460L107 441L102 425L95 409L75 395ZM287 510L285 524L282 539L273 569L267 585L254 618L246 635L237 652L244 658L258 644L273 631L286 617L309 589L329 558L338 542L345 527L352 511L347 487L328 471L303 476L289 496L287 510Z"/></svg>