<svg id="U2D877" viewBox="0 0 1024 1024"><path transform="translate(0, 921.6) scale(1,-1)" d="M415 517L480 485L667 485L665 504L659 625L658 643L723 633L736 625L736 741L594 741L594 655L530 623L530 741L345 741L345 763L530 763L530 875L594 864L610 853L594 843L594 763L736 763L736 875L800 864L816 853L800 843L800 763L867 763L921 817L985 763L985 741L800 741L800 655L737 624L739 623L724 613L730 509L732 485L838 485L872 519L848 516L828 530L826 537L823 544L814 561L801 578L773 606L760 613L764 623L778 617L793 614L806 610L819 605L831 600L843 594L854 588L865 580L883 563L886 539L873 520L892 539L956 485L956 463L734 463L740 398L755 301L774 217L784 184L817 249L842 308L867 380L925 350L937 335L918 331L899 284L869 224L837 168L807 123L822 91L851 48L882 19L915 1L919 0L949 128L959 128L949-6L950-6L972-17L981-40L970-62L947-70L893-60L844-33L802 7L766 60L762 67L729 31L688-4L645-33L600-55L553-72L549-63L590-38L628-9L665 23L699 60L731 100L741 114L736 124L711 201L692 289L676 391L669 463L480 463L480 312L515 301L540 291L564 280L586 268L606 255L624 242L640 227L654 212L667 196L670 171L654 152L630 149L610 165L605 177L597 191L587 204L575 218L560 233L524 262L480 294L480 266L478 220L473 176L466 135L458 97L447 60L434 26L419-5L401-33L381-58L359-78L352-73L365-46L376-19L386 10L395 40L403 72L408 106L413 143L415 182L416 223L415 266L415 517ZM87-18L87-2L162-2L168-2L173-1L178 1L180 3L182 8L183 13L184 19L184 316L92 266L89 246L73 256L36 310L184 373L184 632L50 632L50 654L184 654L184 863L248 853L264 842L248 832L248 654L266 654L320 707L385 654L385 632L248 632L248 401L348 441L382 454L387 446L328 403L248 353L248 19L247 6L245-8L241-20L234-33L225-44L214-52L202-59L189-63L175-66L162-67L162-34L87-18Z"/></svg>