<svg id="U2D06F" viewBox="0 0 1024 1024"><path transform="translate(0, 921.6) scale(1,-1)" d="M623-24L623-8L737-8L742-6L745-5L748-4L749-3L750-1L751 2L751 7L752 14L752 127L544 127L544-19L480-51L480 127L272 127L272-35L207-68L207 127L50 127L50 148L207 148L207 267L50 267L50 288L207 288L207 453L272 420L752 420L784 447L843 399L816 377L816 288L856 288L910 342L974 288L974 267L816 267L816 148L856 148L910 202L974 148L974 127L816 127L816 14L816 0L813-13L809-26L802-39L793-49L782-58L771-65L758-69L744-72L730-72L730-40L623-24ZM480 267L272 267L272 148L480 148L480 267ZM752 267L544 267L544 148L752 148L752 267ZM480 399L272 399L272 288L480 288L480 399ZM752 399L544 399L544 288L752 288L752 399ZM716 864L781 853L797 842L781 833L781 753L856 753L910 806L974 753L974 731L781 731L781 609L716 577L716 620L523 620L523 604L458 571L458 731L265 731L265 530L812 530L856 578L910 530L910 508L265 508L265 492L200 460L200 731L50 731L50 753L200 753L200 859L265 848L281 838L265 828L265 753L458 753L458 864L523 853L539 842L523 833L523 753L716 753L716 864ZM716 731L523 731L523 641L716 641L716 731Z"/></svg>