<svg id="U2D99A" viewBox="0 0 1024 1024"><path transform="translate(0, 921.6) scale(1,-1)" d="M741 107L283 107L283-9L741-9L741 107ZM741 237L283 237L283 128L741 128L741 237ZM887 213L840 233L832 237L806 215L806-41L741-74L741-31L283-31L283-47L218-79L218 254L190 240L143 221L93 205L40 192L37 202L132 248L174 271L213 296L249 322L281 349L310 376L335 405L358 435L360 439L249 439L249 374L184 342L184 740L249 707L437 707L440 714L458 757L464 771L479 810L77 810L77 831L845 831L899 885L964 831L964 810L549 810L528 783L508 760L464 716L453 707L775 707L808 734L867 686L840 664L840 406L775 374L775 439L610 439L652 403L681 382L713 361L746 342L782 324L822 308L864 291L909 277L1000 251L937 195L887 213ZM594 439L436 439L407 399L379 367L347 338L313 310L275 284L254 273L283 258L741 258L760 274L720 299L686 325L656 352L630 380L608 411L594 439ZM775 568L249 568L249 460L775 460L775 568ZM775 686L249 686L249 589L775 589L775 686Z"/></svg>