<svg id="U2D7AC" viewBox="0 0 1024 1024"><path transform="translate(0, 921.6) scale(1,-1)" d="M170 863L235 853L251 842L235 832L235-45L170-77L170 863ZM464 2L464-35L400-68L400 356L464 324L556 324L556 471L459 471L459 406L394 374L394 724L459 691L552 691L552 793L350 793L350 815L883 815L926 863L980 815L980 793L774 793L774 691L871 691L903 718L963 670L936 648L936 439L871 406L871 471L774 471L774 324L866 324L898 351L957 302L930 281L930-19L866-52L866 2L464 2ZM633 152L464 152L464 24L633 24L633 152ZM866 152L697 152L697 24L866 24L866 152ZM633 302L464 302L464 174L633 174L633 302ZM866 302L697 302L697 174L866 174L866 302ZM710 793L616 793L616 659L552 627L552 670L459 670L459 492L556 492L588 519L647 471L621 449L621 324L710 324L710 525L774 492L871 492L871 670L774 670L774 654L710 621L710 793ZM78 389L54 394L41 414L45 438L52 447L60 458L75 488L90 527L105 576L113 603L120 633L129 632L130 573L129 545L128 520L125 496L121 474L117 454L112 435L106 418L99 402L78 389ZM308 504L306 518L302 533L298 548L293 563L279 596L263 630L252 647L260 653L274 639L290 626L317 598L329 584L339 569L358 538L366 522L373 505L369 481L350 466L325 470L310 490L308 504Z"/></svg>