<svg id="U2DAD7" viewBox="0 0 1024 1024"><path transform="translate(0, 921.6) scale(1,-1)" d="M323 337L304 352L288 389L281 401L266 425L247 448L246 448L246-45L182-77L182 395L168 355L151 310L131 265L110 221L87 180L61 141L53 146L84 233L112 323L125 369L147 464L156 514L164 564L168 600L57 600L57 621L182 621L182 863L246 853L263 842L246 832L246 621L262 621L306 670L360 621L360 600L246 600L246 471L260 466L275 459L289 451L302 441L316 431L328 420L351 396L361 382L363 358L347 339L323 337ZM514-18L514-2L600-2L607-2L611-1L616 1L618 3L620 8L621 13L622 19L622 137L602 120L579 103L531 73L459 32L411 8L408 6L403-15L387-3L354 53L438 82L592 139L620 147L622 144L622 315L430 315L430 337L622 337L622 433L360 433L360 455L622 455L622 546L430 546L430 568L622 568L622 670L406 670L406 691L622 691L622 763L586 759L542 755L497 752L452 752L407 753L406 763L579 799L662 819L702 830L781 854L820 867L822 858L873 816L874 799L852 809L797 795L757 785L715 777L686 772L686 691L804 691L858 745L923 691L923 670L686 670L686 568L803 568L836 595L895 546L868 525L868 455L895 455L929 492L972 455L972 433L868 433L868 304L803 272L803 315L686 315L686 261L743 189L771 159L785 146L811 177L870 241L870 242L874 246L915 196L916 176L895 184L862 165L803 134L799 132L829 107L859 85L890 66L922 49L988 22L926-29L890-10L856 12L823 38L793 66L764 96L737 130L712 166L689 205L686 212L686 19L685 6L683-8L679-20L672-33L663-44L652-52L640-59L627-63L614-66L600-67L600-34L514-18ZM489 182L486 192L482 202L478 212L473 223L459 245L443 267L432 276L437 284L450 277L464 271L478 265L490 258L502 249L513 241L534 221L551 198L551 174L535 155L510 155L492 171L489 182ZM803 433L686 433L686 337L803 337L803 433ZM803 546L686 546L686 455L803 455L803 546Z"/></svg>