<svg id="U2D316" viewBox="0 0 1024 1024"><path transform="translate(0, 921.6) scale(1,-1)" d="M893-20L861-1L830 21L800 44L772 68L745 93L721 120L697 148L677 178L673 185L673-45L609-77L609 151L596 135L568 105L538 77L506 52L472 28L436 6L397-12L357-28L315-42L311-33L384 13L417 36L447 61L477 87L503 113L528 142L551 171L572 202L575 208L332 208L332 229L609 229L609 335L673 325L689 314L673 304L673 229L831 229L885 283L950 229L950 208L677 208L747 148L803 107L832 88L861 71L892 55L924 40L988 11L927-39L893-20ZM66 747L131 714L232 714L265 741L324 693L297 671L297 185L232 153L232 217L131 217L131 153L66 120L66 747ZM232 693L131 693L131 239L232 239L232 693ZM901 344L882 363L866 383L836 428L823 452L813 474L813 324L748 292L748 462L731 438L714 419L696 402L678 385L657 371L636 359L630 367L671 423L694 463L704 484L714 505L731 552L732 555L645 555L645 576L748 576L748 686L714 669L714 763L568 763L568 701L528 681L534 680L550 669L534 660L534 576L561 576L594 614L637 576L637 555L534 555L534 514L542 511L557 506L584 491L609 473L620 462L630 451L639 438L641 413L625 395L601 393L582 409L579 420L570 441L564 452L557 462L549 473L534 490L534 324L470 292L470 456L458 439L439 414L418 391L396 370L372 352L347 335L320 323L314 330L353 373L371 395L402 441L416 466L440 518L451 546L453 555L332 555L332 576L470 576L470 691L503 685L503 763L314 763L314 784L503 784L503 871L568 861L584 850L568 840L568 784L714 784L714 871L779 861L795 850L779 840L779 784L850 784L904 838L968 784L968 763L779 763L779 701L756 690L813 680L829 669L813 660L813 576L831 576L885 630L950 576L950 555L813 555L813 540L860 475L892 439L909 423L926 409L945 395L979 370L921 326L901 344Z"/></svg>