<svg id="U2D2C4" viewBox="0 0 1024 1024"><path transform="translate(0, 921.6) scale(1,-1)" d="M854-65L787-61L726-55L671-46L622-34L580-19L544 0L514 23L493 48L490 57L481 46L459 21L434-2L406-23L375-41L343-58L307-71L302-62L359-18L406 27L424 51L440 75L454 99L466 125L474 151L480 178L482 187L543 163L556 148L536 142L532 131L518 101L501 72L501 71L510 63L534 48L561 35L595 24L621 18L621 197L452 197L452 218L621 218L621 288L384 288L384 310L621 310L621 374L452 374L452 396L621 396L621 455L422 455L422 476L621 476L621 552L686 541L702 530L686 520L686 476L787 476L831 525L861 498L888 562L420 562L421 557L421 539L419 523L416 507L411 492L404 478L396 464L385 453L361 449L341 462L336 487L350 507L355 509L361 512L367 517L374 525L381 534L387 547L399 577L403 596L406 616L416 616L417 595L418 584L894 584L898 588L900 592L902 590L926 611L985 562L958 546L926 533L903 513L872 488L885 476L885 455L686 455L686 396L788 396L820 423L879 374L852 353L852 310L870 310L894 342L926 310L926 288L852 288L852 186L788 154L788 197L686 197L686 111L802 111L846 159L900 111L900 89L686 89L686 8L731 4L789 2L854 3L986 9L928-64L854-65ZM73 747L137 714L249 714L281 741L341 693L314 671L314 185L249 153L249 217L137 217L137 153L73 120L73 747ZM788 288L686 288L686 218L788 218L788 288ZM249 693L137 693L137 239L249 239L249 693ZM788 374L686 374L686 310L788 310L788 374ZM437 654L437 675L621 675L621 761L399 761L399 783L621 783L621 869L686 858L702 847L686 838L686 783L789 783L843 837L907 783L907 761L686 761L686 675L776 675L820 724L873 675L873 654L437 654Z"/></svg>