<svg id="U2DD36" viewBox="0 0 1024 1024"><path transform="translate(0, 921.6) scale(1,-1)" d="M368 678L367 678L373 684L420 639L424 620L403 625L322 555L282 523L265 510L265 428L261 361L253 297L250 277L282 253L303 234L322 216L339 197L355 177L369 158L381 138L392 118L401 98L399 74L380 58L356 61L339 79L335 96L330 114L323 132L303 171L278 212L246 258L242 237L226 181L206 130L182 82L154 39L122 1L85-32L45-60L39-52L71-17L99 19L124 59L145 101L164 146L178 195L189 248L196 304L200 364L200 428L200 847L265 837L281 826L265 816L265 543L349 652L368 678ZM517 52L517-12L452-45L452 538L517 505L699 505L682 523L677 541L670 560L661 578L651 596L639 613L625 631L610 648L576 682L556 699L561 707L609 686L631 673L652 659L671 643L685 630L697 647L829 793L466 793L466 815L849 815L860 827L862 825L883 842L942 793L915 777L889 766L828 712L737 640L717 626L699 614L719 588L732 567L743 545L742 520L726 505L883 505L915 532L974 484L947 462L947 20L883-12L883 52L517 52ZM668 271L517 271L517 74L668 74L668 271ZM883 271L732 271L732 74L883 74L883 271ZM668 484L517 484L517 292L668 292L668 484ZM883 484L732 484L732 292L883 292L883 484ZM86 352L61 355L48 376L52 400L63 415L72 432L80 451L87 473L93 496L98 522L101 550L103 580L104 613L104 648L114 649L124 615L131 582L136 551L138 520L138 491L136 463L132 437L126 411L117 388L106 365L86 352Z"/></svg>