<svg id="U2DD47" viewBox="0 0 1024 1024"><path transform="translate(0, 921.6) scale(1,-1)" d="M96-72L78-56L77-32L93-13L108-6L122 2L135 12L148 24L159 39L169 55L179 75L187 97L195 121L200 149L210 148L211 120L212 92L209 67L204 42L197 19L187-3L174-23L159-41L142-57L121-71L96-72ZM628-13L627 2L623 17L618 33L611 49L603 66L593 83L581 101L567 119L551 137L557 145L598 118L632 88L647 72L660 55L671 38L680 19L687 0L693-20L686-44L664-55L640-48L629-27L628-13ZM431-48L408-55L386-44L379-20L382-6L384 8L384 23L383 38L381 53L377 69L372 85L365 102L357 120L345 137L352 144L384 116L397 101L409 84L420 68L428 50L435 32L439 13L443-7L443-27L431-48ZM810 158L800 151L789 144L786 142L823 120L846 105L886 71L918 35L931 16L943-4L952-24L949-49L930-65L906-62L890-43L886-27L881-11L873 6L864 24L852 42L839 61L806 101L787 121L772 136L766 133L754 130L742 126L730 124L717 123L704 123L704 155L597 171L597 187L713 187L729 189L743 194L757 200L764 204L771 209L777 215L789 228L801 250L813 282L823 321L832 370L839 426L845 491L849 563L850 644L850 721L282 721L243 673L238 668L270 663L286 652L270 642L270 549L435 549L435 706L499 696L515 685L499 675L499 549L668 549L668 674L732 663L749 652L732 642L732 506L668 474L668 528L499 528L499 466L439 436L499 426L515 415L499 405L499 280L668 280L668 404L732 393L749 382L732 373L732 237L668 204L668 258L499 258L499 196L435 163L435 258L270 258L270 242L205 210L205 404L270 393L286 382L270 373L270 280L435 280L435 528L270 528L270 490L205 458L205 635L182 613L148 585L112 559L74 534L68 542L129 606L183 670L229 734L267 802L284 836L301 877L357 845L368 829L347 826L318 773L298 743L850 743L882 770L942 721L915 705L915 643L913 561L909 487L903 419L896 360L886 308L874 262L860 224L842 191L820 166L810 158Z"/></svg>