<svg id="U2D20D" viewBox="0 0 1024 1024"><path transform="translate(0, 921.6) scale(1,-1)" d="M389 863L454 853L470 842L454 832L454 466L481 466L525 514L579 466L579 444L454 444L454-40L389-72L389 444L273 444L273 466L389 466L389 863ZM919 359L918 360L922 364L924 367L972 323L978 304L956 308L899 255L849 215L831 202L830 202L849 165L872 123L898 83L924 48L953 15L982-15L989-22L932-65L901-28L873 10L847 52L824 96L803 144L784 194L768 246L754 302L744 361L737 417L666 417L666 49L757 78L814 94L818 85L769 52L744 37L694 10L619-26L591-38L585-59L570-47L539 11L549 15L574 21L601 29L601 837L666 804L853 804L885 831L944 783L917 761L917 417L853 385L853 417L748 417L785 311L805 259L822 219L919 359ZM43 750L108 718L194 718L227 745L286 697L259 675L259 186L194 154L194 218L108 218L108 154L43 121L43 750ZM194 697L108 697L108 240L194 240L194 697ZM853 600L666 600L666 439L853 439L853 600ZM853 783L666 783L666 621L853 621L853 783Z"/></svg>