<svg id="U2DB85" viewBox="0 0 1024 1024"><path transform="translate(0, 921.6) scale(1,-1)" d="M702 347L826 347L826 557L704 557L704 380L702 347ZM826 788L704 788L704 578L826 578L826 788ZM222 277L218 292L213 306L207 320L199 333L190 346L167 371L154 384L151 386L116 334L84 295L48 259L41 264L67 306L92 350L115 395L136 441L156 491L172 542L187 596L200 652L210 710L216 756L44 756L44 777L353 777L407 831L472 777L472 756L281 756L271 699L256 639L239 581L234 568L364 568L396 595L439 559L439 578L640 578L640 788L490 788L490 810L826 810L858 837L917 788L890 767L890 578L912 578L945 616L988 578L988 557L890 557L890 294L826 261L826 326L701 326L700 314L692 253L679 196L661 143L639 95L612 51L581 12L545-21L504-49L460-70L456-62L493-32L525 0L553 35L578 73L598 114L614 159L627 208L635 261L639 318L639 326L477 326L477 347L640 347L640 380L640 557L442 557L456 546L429 530L425 528L414 461L394 375L369 295L339 221L303 154L262 92L216 38L165-9L108-49L47-81L42-73L96-32L145 12L189 62L229 116L263 176L293 241L318 312L338 389L353 472L362 546L227 546L198 473L173 424L158 398L180 391L198 382L214 373L230 361L244 348L257 333L268 317L278 299L287 281L284 256L265 241L241 244L225 262L222 277Z"/></svg>