<svg id="U2D085" viewBox="0 0 1024 1024"><path transform="translate(0, 921.6) scale(1,-1)" d="M732 2L765 137L775 137L765 2L784-11L797-30L784-49L765-62L383-62L369-62L356-59L343-55L330-48L320-39L311-28L304-17L300-3L297 10L297 24L297 178L361 167L378 156L361 147L361 17L363 12L364 9L364 7L365 6L366 5L368 4L371 3L376 3L383 2L732 2ZM75-37L56-21L55 3L72 22L87 28L100 36L113 45L124 56L135 69L144 85L152 103L159 123L165 146L168 171L178 171L181 145L184 120L183 96L179 73L173 51L164 30L152 10L137-7L120-23L100-36L75-37ZM896 24L890 39L882 53L873 68L861 84L847 99L814 130L794 147L772 162L776 171L827 152L850 141L871 128L890 115L908 101L924 85L938 69L951 51L961 32L960 8L942-9L917-8L901 10L896 24ZM566 84L557 96L547 109L524 133L511 145L464 180L445 190L449 199L491 189L511 183L548 167L565 158L597 135L611 123L625 110L630 85L618 65L594 59L573 71L566 84ZM254 229L189 197L189 428L254 396L775 396L808 423L867 374L840 353L840 229L775 197L775 229L254 229ZM388 374L254 374L254 251L388 251L388 374ZM577 374L453 374L453 251L577 251L577 374ZM775 374L641 374L641 251L775 251L775 374ZM474 756L539 745L555 734L539 725L539 699L643 716L733 732L732 733L738 733L739 728L799 678L801 662L777 674L748 670L700 664L600 654L539 649L539 578L726 578L770 627L824 578L824 557L539 557L539 498L860 498L904 546L958 498L958 476L539 476L539 444L474 412L474 476L66 476L66 498L474 498L474 557L200 557L200 578L474 578L474 645L437 642L379 640L319 638L258 638L195 639L194 648L256 658L474 689L474 756ZM123 619L99 625L87 646L93 670L111 694L120 707L127 721L132 737L137 754L140 773L141 780L141 799L143 799L144 813L143 836L152 838L165 799L867 799L899 826L958 777L931 761L913 754L868 696L858 685L847 674L838 662L830 667L836 681L847 724L852 737L859 763L863 776L863 777L170 777L171 773L173 752L174 731L172 710L168 689L162 669L154 650L144 631L123 619Z"/></svg>