<svg id="U2DA91" viewBox="0 0 1024 1024"><path transform="translate(0, 921.6) scale(1,-1)" d="M910 41L879 69L850 97L824 126L802 157L781 189L764 222L751 256L749 263L749-40L684-72L684 236L663 208L635 174L605 142L573 113L539 86L502 61L464 39L423 20L418 28L485 84L545 142L572 174L596 205L620 239L659 310L665 323L523 323L523 344L684 344L684 474L749 463L765 452L749 442L749 344L856 344L910 398L974 344L974 323L749 323L749 321L779 269L798 241L818 215L841 188L865 163L892 140L920 117L950 96L1003 62L944 16L910 41ZM465 140L442 146L401 182L387 193L355 215L313 241L313-40L249-72L249 202L224 170L199 140L172 113L143 87L113 63L81 42L47 23L41 31L94 85L142 140L164 169L203 231L220 263L236 297L246 319L60 319L60 341L249 341L249 470L313 460L329 449L313 439L313 341L378 341L431 395L496 341L496 319L313 319L313 262L330 259L351 254L391 242L410 234L428 226L464 208L481 197L493 176L487 152L465 140ZM200 489L186 490L173 492L160 497L148 503L137 512L128 523L121 535L117 548L115 561L114 575L114 777L179 745L480 745L480 869L544 858L560 847L544 838L544 745L835 745L888 798L953 745L953 723L179 723L179 568L180 563L181 559L182 557L184 557L185 556L188 555L193 554L899 554L918 541L931 521L918 502L899 489L200 489Z"/></svg>