<svg id="U2DA21" viewBox="0 0 1024 1024"><path transform="translate(0, 921.6) scale(1,-1)" d="M110 255L175 223L389 223L421 249L480 201L453 180L453-16L389-48L389-16L175-16L175-53L110-85L110 255ZM880-56L836-33L795-6L758 25L724 60L699 93L683 64L649 22L609-14L564-42L514-63L459-76L456-67L506-45L549-18L586 13L618 48L644 88L665 133L668 142L644 191L625 242L611 298L621 301L646 251L673 205L683 190L693 240L699 302L700 369L700 389L605 389L540 357L540 693L605 661L700 661L700 869L764 858L780 847L764 838L764 661L859 661L892 688L951 639L924 618L924 357L859 325L859 389L764 389L764 369L760 296L750 230L733 168L721 138L729 127L760 95L794 67L829 42L865 23L904 7L989-18L926-74L880-56ZM389 96L175 96L175 6L389 6L389 96ZM389 201L175 201L175 118L389 118L389 201ZM53 304L53 326L249 326L249 412L92 412L92 433L249 433L249 530L116 530L116 552L249 552L249 643L45 643L45 664L249 664L249 756L116 756L116 777L249 777L249 874L313 863L329 853L313 843L313 777L391 777L423 804L482 756L456 734L456 664L460 664L484 697L516 664L516 643L456 643L456 519L391 487L391 530L313 530L313 433L372 433L416 482L470 433L470 412L313 412L313 326L410 326L454 374L508 326L508 304L53 304ZM700 639L605 639L605 411L700 411L700 639ZM859 639L764 639L764 411L859 411L859 639ZM391 643L313 643L313 552L391 552L391 643ZM391 756L313 756L313 664L391 664L391 756Z"/></svg>