<svg id="U2D9F9" viewBox="0 0 1024 1024"><path transform="translate(0, 921.6) scale(1,-1)" d="M474 331L538 299L851 299L883 326L943 277L916 256L916-13L851-45L851 19L538 19L538-45L474-77L474 331ZM69-26L41 33L79 44L79 406L138 396L153 385L138 376L138 60L203 79L203 519L141 519L141 503L77 471L77 837L141 804L313 804L345 831L404 783L378 761L378 487L313 455L313 519L262 519L262 320L317 320L351 358L394 320L394 299L262 299L262 98L402 142L406 133L341 94L274 59L172 13L103-13L90-18L84-38L69-26ZM851 154L538 154L538 41L851 41L851 154ZM851 277L538 277L538 175L851 175L851 277ZM857 354L783 362L717 378L660 404L611 438L573 479L549 448L518 417L484 390L448 371L409 359L406 368L438 389L466 413L493 441L517 473L539 510L546 524L542 531L522 589L511 653L499 624L484 593L466 564L446 539L424 517L417 523L440 578L451 607L461 639L469 671L477 706L482 743L487 782L490 823L493 878L557 861L572 849L554 841L551 817L544 774L544 772L617 772L649 799L708 750L681 734L675 732L665 691L647 632L627 578L604 530L598 520L606 509L642 477L685 453L721 440L721 863L786 853L802 842L786 832L786 703L790 703L810 701L829 698L846 695L863 691L894 682L907 676L920 669L932 662L942 639L933 616L911 606L888 615L883 622L876 630L868 638L847 654L803 680L786 689L786 466L729 437L735 435L792 425L858 421L931 426L990 431L937 355L857 354ZM313 648L141 648L141 541L313 541L313 648ZM614 750L539 750L536 733L526 697L534 656L552 598L566 570L577 598L592 649L606 706L614 750ZM313 783L141 783L141 670L313 670L313 783Z"/></svg>