<svg id="U2D680" viewBox="0 0 1024 1024"><path transform="translate(0, 921.6) scale(1,-1)" d="M125 783L189 750L501 750L501 874L566 863L582 853L566 843L566 750L856 750L910 804L974 750L974 729L189 729L189 390L186 327L180 268L172 211L160 158L145 109L128 63L107 20L84-18L56-52L26-80L19-74L40-39L58-3L75 35L89 77L101 121L111 169L118 219L123 273L125 330L125 783ZM890-68L856-54L824-38L795-18L775-2L752-16L717-31L680-44L640-52L597-56L596-47L635-32L670-17L702 1L731 19L744 30L724 56L706 86L692 119L684 148L630 148L630 170L842 170L874 197L933 148L907 132L894 127L886 112L865 80L841 52L819 31L851 16L879 5L909-3L990-18L927-78L890-68ZM223 3L308 9L345 12L372 14L372 218L437 208L453 197L437 187L437 19L458 21L496 24L535 27L574 28L613 30L615 20L577 9L539-2L464-19L352-41L278-54L263-57L254-75L241-60L223 3ZM835 148L698 148L712 129L732 104L754 81L776 61L777 60L800 86L817 112L832 141L835 148ZM890 190L856 204L824 220L795 240L775 256L752 242L717 227L680 215L640 206L597 202L596 211L635 226L670 241L702 259L731 277L744 288L724 314L706 344L692 377L684 406L630 406L630 428L842 428L874 455L933 406L907 390L894 385L886 370L865 338L841 310L819 289L851 274L879 263L909 255L990 240L927 180L890 190ZM514 190L480 204L448 220L418 240L399 256L376 242L341 227L303 215L264 206L221 202L220 211L258 226L293 241L325 259L354 277L368 288L347 314L330 344L316 377L308 406L253 406L253 428L466 428L498 455L557 406L530 390L518 385L510 370L489 338L465 310L443 289L475 274L503 263L532 255L614 240L551 180L514 190ZM459 406L322 406L336 387L356 362L378 339L400 319L401 318L424 344L441 370L456 399L459 406ZM835 406L698 406L712 387L732 362L754 339L776 319L777 318L800 344L817 370L832 399L835 406ZM246 554L257 555L279 555L302 556L325 557L349 558L374 559L399 560L424 560L474 560L474 624L255 624L255 646L474 646L474 718L538 707L554 697L538 687L538 503L474 471L474 539L454 533L429 526L356 509L309 499L286 495L276 476L264 491L246 554ZM914 530L938 600L949 600L938 530L952 520L962 506L952 491L938 482L728 482L715 483L703 487L691 492L680 499L671 510L664 521L659 533L656 546L654 560L654 718L719 707L735 697L719 687L719 630L739 636L789 650L813 656L899 680L913 684L913 685L917 686L919 680L976 632L978 616L954 628L931 623L867 616L844 614L795 611L770 610L743 609L719 610L719 560L718 553L718 548L719 544L720 541L720 540L721 538L724 535L728 533L733 532L740 530L914 530Z"/></svg>