<svg id="U2D559" viewBox="0 0 1024 1024"><path transform="translate(0, 921.6) scale(1,-1)" d="M695 616L759 605L775 595L759 585L759 455L797 455L851 509L915 455L915 433L759 433L759 213L824 213L878 267L942 213L942 191L759 191L759-34L695-67L695 191L528 191L528 213L695 213L695 433L593 433L593 455L695 455L695 616ZM253-16L253 0L350 0L356 1L361 2L366 3L368 5L370 10L371 15L371 22L371 207L286 172L281 151L265 163L234 220L308 243L371 261L371 435L246 435L246 456L371 456L371 603L436 592L452 581L436 571L436 456L466 456L510 505L564 456L564 435L436 435L436 281L499 298L530 306L562 313L566 305L538 288L509 271L436 236L436 22L435 8L432-5L428-18L421-31L413-41L402-50L389-57L377-61L363-63L350-65L350-32L253-16ZM152 847L216 815L840 815L872 842L931 793L904 772L904 616L840 584L840 638L216 638L216 471L213 403L207 338L199 276L187 217L172 162L155 110L134 62L111 17L84-23L53-59L45-53L66-12L85 30L102 75L116 123L128 173L138 226L145 283L150 342L152 405L152 847ZM840 793L216 793L216 659L840 659L840 793Z"/></svg>