<svg id="U2D13C" viewBox="0 0 1024 1024"><path transform="translate(0, 921.6) scale(1,-1)" d="M873 295L823 321L779 352L739 386L727 398L694 369L642 334L584 305L547 292L590 273L603 259L583 253L569 215L551 181L832 181L865 208L924 159L897 143L895 142L892 110L886 84L880 60L871 37L860 16L847-2L833-19L816-32L797-44L774-53L752-61L729-66L705-69L681-70L681-38L573-22L573-6L681-6L699-5L717-3L735 2L752 7L768 15L779 20L788 28L797 38L805 49L812 63L818 80L824 99L828 120L831 145L832 159L539 159L505 113L463 70L414 33L358 1L296-26L228-47L153-63L73-73L71-63L149-43L219-20L282 7L338 37L387 70L428 107L463 147L471 159L132 159L132 181L484 181L491 191L513 238L526 284L452 266L450 275L514 301L571 331L622 363L667 400L698 432L674 464L650 508L631 555L619 604L616 633L594 611L568 588L546 572L578 545L578 523L485 523L484 506L479 460L475 419L471 390L503 390L527 422L559 390L559 368L468 368L466 357L460 334L454 316L441 297L421 282L410 275L399 270L387 265L375 261L363 259L351 256L338 255L325 255L325 287L229 303L229 319L334 319L342 320L350 321L365 326L372 328L386 336L393 341L396 344L399 351L402 368L171 368L160 299L92 277L129 523L56 523L56 545L132 545L161 732L138 704L119 683L99 664L77 647L53 632L46 639L92 705L106 727L129 773L139 796L149 820L156 844L166 877L225 849L237 834L217 829L201 797L194 783L438 783L492 837L556 783L556 761L181 761L172 748L162 733L213 697L431 697L463 724L522 676L495 660L494 659L487 559L486 545L502 545L535 582L537 580L591 657L624 714L652 774L664 805L674 837L683 869L686 877L745 849L757 834L737 829L717 782L682 720L674 707L857 707L910 761L975 707L975 686L880 686L866 625L843 563L815 506L780 455L764 437L775 427L813 401L854 377L901 356L990 324L928 271L873 295ZM420 523L194 523L174 390L406 390L411 427L415 466L420 523ZM301 427L300 434L293 450L288 457L282 466L267 482L257 491L246 496L249 505L262 502L275 500L288 497L300 493L312 488L323 482L334 475L344 466L353 457L361 446L362 422L345 404L321 403L302 419L301 427ZM815 686L659 686L642 662L627 646L640 611L661 567L684 527L711 490L729 470L740 484L767 532L790 584L807 641L815 686ZM430 676L217 676L197 545L422 545L423 564L427 623L430 676ZM315 582L314 589L313 595L310 602L307 610L296 625L281 641L271 646L274 655L285 651L297 649L309 647L321 643L331 639L342 633L351 626L360 619L368 610L375 600L374 576L357 559L332 559L315 576L315 582Z"/></svg>