<svg id="U2DBAB" viewBox="0 0 1024 1024"><path transform="translate(0, 921.6) scale(1,-1)" d="M874-34L815-9L762 20L714 56L702 67L646 25L587-11L523-40L455-61L381-76L379-67L449-42L512-13L570 20L623 58L669 99L635 141L605 191L581 246L564 305L555 363L494 363L494 385L830 385L863 412L922 363L895 347L885 343L865 294L832 227L794 168L750 114L741 105L792 72L841 49L895 31L1002 6L938-53L874-34ZM252 878L308 845L317 828L295 826L277 799L252 768L225 737L191 702L340 702L372 729L431 681L404 659L404 444L340 412L340 476L141 476L141 331L356 331L388 358L447 310L421 288L421 57L356 25L356 78L141 78L141 14L77-18L77 734L141 702L173 702L180 714L224 808L244 857L249 872L252 878ZM356 310L141 310L141 100L356 100L356 310ZM825 363L566 363L585 312L610 259L639 211L671 169L703 136L712 146L749 198L781 255L809 317L825 363ZM550 831L614 799L776 799L808 826L867 777L840 756L840 535L842 531L843 527L844 525L846 524L850 522L855 520L862 519L939 519L966 611L976 611L966 519L982 509L993 492L982 476L966 466L862 466L849 466L836 468L823 471L811 477L801 485L792 495L785 507L780 519L778 533L776 546L776 777L614 777L614 659L611 626L604 595L594 564L580 535L564 508L544 482L521 458L494 435L465 416L432 397L427 405L452 431L494 481L511 506L524 531L535 556L543 582L547 607L550 633L550 659L550 831ZM340 681L141 681L141 498L340 498L340 681Z"/></svg>