<svg id="U2DF24" viewBox="0 0 1024 1024"><path transform="translate(0, 921.6) scale(1,-1)" d="M559 586L623 554L711 554L711 700L776 689L792 678L776 669L776 554L889 554L892 556L922 581L981 532L954 516L935 508L920 488L900 464L863 426L851 411L843 416L852 433L858 451L864 467L880 511L886 532L776 532L776 351L843 351L875 377L935 329L908 313L899 309L886 270L861 213L834 162L803 114L793 101L804 90L836 63L870 40L906 21L981-9L919-61L875-39L834-12L797 18L764 53L759 60L732 33L692 0L649-28L602-51L553-67L550-59L593-33L633-4L670 27L703 62L731 96L709 132L688 177L671 226L659 278L652 329L623 329L623 292L620 240L615 192L608 146L597 104L585 66L570 31L552-1L532-29L509-52L484-71L477-63L494-39L508-13L521 15L532 46L542 79L549 116L554 155L558 197L559 243L559 292L559 586ZM472 166L467 178L455 203L439 228L420 252L420-38L356-70L356 263L314 223L279 194L242 167L235 175L293 243L346 312L356 326L356 333L360 333L392 382L412 418L430 454L447 491L453 506L255 506L255 528L356 528L356 700L420 689L436 678L420 669L420 528L459 528L492 555L551 506L524 490L512 485L481 427L458 390L434 354L417 333L420 333L420 277L432 271L440 268L442 270L468 325L473 337L480 356L482 364L483 366L481 367L486 377L541 342L550 325L522 323L510 310L478 283L451 262L450 262L477 243L503 220L514 208L524 195L534 182L535 158L518 139L494 138L475 154L472 166ZM27 284L36 288L50 292L65 297L80 303L111 317L167 346L168 356L168 788L232 756L517 756L517 874L582 863L598 853L582 843L582 756L856 756L910 810L974 756L974 734L232 734L232 423L229 354L222 289L212 227L199 171L181 119L160 71L136 28L108-10L77-43L42-70L36-63L61-30L85 6L106 45L123 87L138 133L150 183L159 237L165 295L166 312L135 282L106 258L91 247L82 242L78 218L61 228L27 284ZM663 329L680 284L701 237L723 194L748 155L761 139L787 187L809 237L828 290L839 329L663 329ZM711 532L623 532L623 351L711 351L711 532ZM94 526L91 542L88 559L84 574L79 589L73 604L59 632L51 646L40 657L46 666L75 647L89 636L103 624L115 610L125 594L136 577L144 559L152 540L159 520L153 496L133 482L109 488L95 508L94 526Z"/></svg>