<svg id="U2D394" viewBox="0 0 1024 1024"><path transform="translate(0, 921.6) scale(1,-1)" d="M339-41L312 18L381 35L384 36L384 626L443 615L457 604L443 595L443 52L484 65L503 71L503 860L563 849L578 839L563 829L563 497L602 497L635 534L678 497L678 475L563 475L563 90L693 133L697 124L575 57L465 6L399-20L361-34L354-54L339-41ZM924 46L957 181L967 181L957 46L976 33L989 14L976-5L957-18L790-18L777-17L764-15L751-11L738-4L728 5L718 16L712 28L708 41L706 54L704 68L704 858L769 847L785 837L769 827L769 470L804 510L840 554L895 630L913 657L915 661L965 620L972 602L952 604L900 544L878 521L833 481L810 463L787 448L769 438L769 68L770 61L770 56L771 53L772 52L774 49L779 48L784 47L790 46L924 46ZM37 123L154 166L171 172L171 552L54 552L54 573L171 573L171 847L235 837L251 826L235 816L235 573L262 573L306 621L360 573L360 552L235 552L235 199L361 249L366 241L299 194L204 137L121 91L91 77L87 56L71 67L37 123Z"/></svg>