<svg id="U2D1CB" viewBox="0 0 1024 1024"><path transform="translate(0, 921.6) scale(1,-1)" d="M168 253L232 221L792 221L824 248L883 199L856 178L856-31L792-63L792-10L232-10L232-47L168-80L168 253ZM792 199L232 199L232 12L792 12L792 199ZM894 348L921 439L931 439L921 348L937 337L947 321L937 305L921 294L222 294L208 295L195 296L183 300L171 305L160 313L151 324L144 335L139 348L137 361L136 375L136 869L200 837L802 837L835 863L894 815L867 793L867 563L802 531L802 596L200 596L200 375L200 368L200 363L201 360L201 357L202 355L203 354L205 352L209 351L214 349L222 348L894 348ZM469 815L200 815L200 617L469 617L469 815ZM802 815L534 815L534 617L802 617L802 815Z"/></svg>