<svg id="U2D750" viewBox="0 0 1024 1024"><path transform="translate(0, 921.6) scale(1,-1)" d="M172 863L236 853L252 842L236 832L236-45L172-77L172 863ZM885 848L950 794L950 773L459 773L459 19L861 19L915 73L980 19L980-3L459-3L459-40L394-73L394 826L459 794L831 794L885 848ZM701 741L700 741L706 752L760 718L770 701L745 699L726 680L716 670L694 654L682 646L678 644L805 644L835 670L891 622L864 603L864 413L883 413L908 445L940 413L940 391L864 391L864 148L863 135L861 123L858 110L852 99L845 88L835 80L824 73L813 68L800 66L787 65L787 95L704 109L704 124L793 124L796 125L799 126L800 126L800 127L801 128L802 131L803 135L804 141L805 148L805 391L633 391L632 364L628 318L621 274L611 233L598 196L583 162L565 132L544 106L520 84L494 68L488 75L506 98L521 123L534 150L545 178L555 210L562 245L567 282L570 323L571 366L570 391L485 391L485 413L570 413L570 676L634 644L657 644L660 647L679 683L685 695L694 716L697 727L700 737L701 741ZM678 365L737 354L752 344L737 334L737 209L678 180L678 365ZM79 389L55 394L41 414L45 438L53 447L60 458L68 472L76 488L84 506L91 527L114 603L121 633L130 632L131 573L130 545L128 520L125 496L122 474L118 454L113 435L107 418L99 402L79 389ZM634 414L634 413L805 413L805 622L634 622L634 414ZM704 491L703 504L701 516L698 528L694 540L689 551L683 563L676 574L667 586L657 595L661 604L675 596L690 590L703 582L716 573L727 562L738 549L747 536L756 521L763 506L768 489L763 465L742 452L718 457L704 478L704 491ZM311 504L308 518L300 548L295 563L281 596L265 630L254 647L261 653L277 639L292 626L319 598L331 584L342 569L351 554L368 522L375 505L371 481L352 466L328 470L313 490L311 504Z"/></svg>