<svg id="U2D866" viewBox="0 0 1024 1024"><path transform="translate(0, 921.6) scale(1,-1)" d="M101-18L101-2L176-2L182-2L187-1L192 1L194 3L196 8L197 13L198 19L198 318L92 265L88 245L72 255L37 311L198 374L198 632L50 632L50 654L198 654L198 863L262 853L278 842L262 832L262 654L295 654L349 707L413 654L413 632L262 632L262 399L374 442L410 454L415 445L350 403L283 363L262 352L262 19L261 6L259-8L254-20L248-33L239-44L228-52L216-59L203-63L189-66L176-67L176-34L101-18ZM343-29L343-8L633-8L633 143L449 143L449 165L633 165L633 304L501 304L472 257L451 228L429 201L404 175L378 151L350 129L343 136L401 221L417 251L432 280L459 340L471 372L480 404L488 436L491 446L551 420L563 405L544 400L524 351L512 326L633 326L633 466L697 455L714 444L697 434L697 326L823 326L877 380L942 326L942 304L697 304L697 165L786 165L839 218L904 165L904 143L697 143L697-8L869-8L923 46L987-8L987-29L343-29ZM428 841L493 809L837 809L870 835L929 787L902 766L902 451L837 419L837 483L493 483L428 451L428 841ZM837 640L493 640L493 505L837 505L837 640ZM837 787L493 787L493 661L837 661L837 787Z"/></svg>