<svg id="U2D008" viewBox="0 0 1024 1024"><path transform="translate(0, 921.6) scale(1,-1)" d="M237 871L296 844L308 829L289 824L255 726L210 612L186 558L180 546L208 541L224 530L208 520L208-45L144-77L144 472L106 403L77 354L45 308L37 312L123 521L163 631L200 744L234 862L237 871ZM925-20L917-31L908-40L897-48L887-56L875-62L863-66L850-69L837-71L823-72L823-40L716-24L716-8L823-8L831-7L838-6L849-3L854 0L859 3L863 7L867 11L872 17L876 23L879 30L886 59L889 80L892 104L894 132L896 200L896 229L896 272L660 272L601 242L601 775L660 745L723 745L724 749L729 789L731 802L738 862L741 876L801 850L814 835L790 829L775 800L753 766L744 754L737 745L849 745L881 772L940 724L914 702L914 476L849 444L849 487L660 487L660 401L870 401L914 449L967 401L967 380L660 380L660 294L896 294L928 320L987 272L961 256L961 240L961 199L960 162L958 128L956 98L953 72L950 47L945 26L939 8L932-9L925-20ZM592-5L568 2L558 24L565 47L572 53L578 61L585 71L591 83L596 98L601 116L606 135L613 181L614 208L623 208L633 158L636 134L638 112L638 92L636 73L633 54L629 37L623 20L614 5L592-5ZM709 30L685 25L665 40L661 65L665 72L668 80L671 89L673 100L675 126L675 140L674 173L671 190L680 194L687 177L695 162L709 132L714 118L718 104L721 90L723 76L724 62L724 49L709 30ZM343 155L343 91L284 61L284 804L343 774L499 774L526 801L580 753L553 737L553 134L499 107L499 155L343 155ZM745 106L746 116L747 126L747 146L746 156L742 176L739 187L732 195L739 202L748 195L758 188L767 180L776 170L783 160L796 137L801 123L804 110L808 95L798 72L775 62L753 72L743 95L745 106ZM832 118L820 139L822 153L822 160L821 167L820 174L817 182L814 190L809 198L802 206L794 212L798 220L808 216L820 213L830 209L840 204L850 197L859 189L866 181L873 170L879 159L884 147L877 124L856 111L832 118ZM393 459L343 459L343 177L393 177L393 459ZM499 459L446 459L446 177L499 177L499 459ZM393 753L343 753L343 480L393 480L393 753ZM499 753L446 753L446 480L499 480L499 753ZM849 605L660 605L660 509L849 509L849 605ZM849 724L660 724L660 627L849 627L849 724Z"/></svg>