<svg id="U2D4E5" viewBox="0 0 1024 1024"><path transform="translate(0, 921.6) scale(1,-1)" d="M480 657L544 646L560 635L544 626L544 463L802 463L856 517L921 463L921 441L544 441L544 273L786 273L818 299L878 251L851 230L851-26L786-58L786-4L249-4L249-42L184-74L184 305L249 273L480 273L480 657ZM249 251L249 17L786 17L786 251L249 251ZM544 703L888 703L892 708L894 707L921 730L980 681L953 665L933 657L895 612L851 567L833 552L817 534L809 540L821 561L875 668L881 681L153 681L153 664L152 637L148 611L142 587L133 564L122 544L108 526L92 510L67 505L47 519L42 543L56 563L66 570L77 578L87 590L97 605L106 623L114 645L121 669L127 696L132 726L136 759L146 760L150 726L152 703L480 703L480 869L544 858L560 847L544 838L544 703Z"/></svg>