<svg id="U2D8F1" viewBox="0 0 1024 1024"><path transform="translate(0, 921.6) scale(1,-1)" d="M457 146L435 176L422 191L392 219L376 233L340 261L329 269L329-45L264-77L264 237L235 192L207 154L178 119L147 87L114 56L78 29L41 5L35 13L93 77L121 110L146 145L170 181L193 218L214 258L233 298L250 341L258 363L61 363L61 385L264 385L264 541L329 530L345 519L329 510L329 385L391 385L445 439L509 385L509 363L329 363L329 290L352 283L374 275L396 266L437 244L456 231L474 217L491 203L507 187L514 163L502 141L479 135L457 146ZM868-13L815 28L767 75L725 127L716 141L681 95L625 39L563-9L494-47L420-76L417-67L485-29L546 15L601 65L649 121L690 181L657 246L632 312L613 384L599 460L595 507L573 473L545 434L514 398L506 404L548 487L587 574L604 618L620 665L635 713L647 762L659 813L670 865L672 875L733 852L746 838L728 832L703 746L686 696L667 647L650 611L863 611L917 664L981 611L981 589L877 589L862 494L839 399L809 311L773 231L747 189L768 161L810 116L856 77L905 43L987-1L926-49L868-13ZM813 589L640 589L624 556L606 525L621 464L643 392L668 326L697 266L717 233L728 253L759 330L783 414L802 505L813 589ZM417 535L395 560L342 608L323 624L283 587L237 549L191 515L142 484L92 457L40 435L36 443L81 475L126 508L169 543L211 580L251 620L283 654L211 703L93 776L96 785L143 770L187 753L229 734L306 695L314 690L365 753L400 803L436 860L488 820L495 802L475 803L450 767L410 718L369 671L360 661L407 628L436 605L464 581L473 557L463 535L440 526L417 535Z"/></svg>