<svg id="U2DB81" viewBox="0 0 1024 1024"><path transform="translate(0, 921.6) scale(1,-1)" d="M250 291L245 305L239 319L231 333L223 346L212 359L200 372L186 385L170 397L165 400L126 348L90 309L51 274L44 281L74 322L102 365L129 409L153 455L174 504L193 554L210 607L224 662L236 720L243 764L48 764L48 785L407 785L460 839L525 785L525 764L308 764L296 707L280 647L261 590L257 579L408 579L440 606L500 557L473 541L468 540L457 473L435 388L407 309L373 236L334 170L288 110L237 56L180 10L117-30L50-61L45-52L107-12L162 32L212 81L256 135L295 194L328 258L357 328L379 404L396 485L407 557L248 557L240 536L216 484L188 436L173 412L197 405L216 397L235 388L251 376L267 363L281 349L294 333L305 316L315 297L313 273L294 256L270 259L253 277L250 291ZM923 41L956 175L966 175L956 41L975 28L988 9L975-11L956-24L636-24L622-23L609-20L596-16L584-9L573-1L564 10L558 23L553 35L551 49L550 62L550 820L615 788L864 788L896 815L955 767L928 745L928 396L864 363L864 428L615 428L615 56L616 51L617 48L618 46L618 45L620 44L624 42L629 41L636 41L923 41ZM864 767L615 767L615 449L864 449L864 767Z"/></svg>