<svg id="U2DC8" viewBox="0 0 642 1000"><path transform="translate(0, 900) scale(1,-1)" d="M211 0L120 0L120 361Q120 441 146 498L146 498Q99 517 74.50 553Q50 589 50 659L50 659L50 760L141 760L141 662Q141 624 155 599.50Q169 575 193 564L193 564Q236 602 301 610L301 610Q255 666 239 719L239 719L330 719Q345 679 372.50 646.50Q400 614 425 602L425 602Q448 614 475.50 646Q503 678 519 719L519 719L610 719Q594 676 563.50 634Q533 592 495 561L495 561Q528 529 543 478Q558 427 558 359L558 359L558 0L467 0L467 354Q467 440 438 486.50Q409 533 341 533L341 533Q266 533 238.50 484Q211 435 211 353L211 353L211 0Z"/></svg>