<svg id="U2DBAE" viewBox="0 0 1024 1024"><path transform="translate(0, 921.6) scale(1,-1)" d="M445 847L509 793L509 772L299 772L281 721L258 668L240 633L227 611L380 611L413 638L472 589L445 568L445-8L380-40L380-8L178-8L178-45L114-77L114 643L178 611L214 611L215 621L217 640L231 735L233 753L236 771L46 772L46 793L391 793L445 847ZM871-31L818-6L770 24L728 60L720 68L674 28L621-8L564-38L502-60L437-75L435-66L495-41L551-12L601 22L647 59L689 102L658 147L632 197L611 252L597 312L589 371L536 371L536 393L830 393L863 420L922 371L895 355L886 352L869 301L839 235L805 174L766 119L756 108L764 101L803 74L846 51L894 32L991 6L928-51L871-31ZM380 208L178 208L178 14L380 14L380 208ZM826 371L600 371L618 318L641 264L667 215L696 172L721 142L759 202L787 259L811 322L826 371ZM380 401L178 401L178 229L380 229L380 401ZM582 845L646 813L782 813L815 840L874 791L847 770L847 556L846 549L847 544L847 541L848 538L849 537L852 533L856 531L861 530L868 529L927 529L954 620L965 620L954 529L970 518L981 502L970 486L954 475L855 475L842 477L830 481L818 487L807 495L798 505L791 517L786 529L783 542L782 556L782 791L646 791L646 671L643 639L637 606L628 576L616 547L601 519L583 492L562 468L538 445L512 424L482 406L476 413L517 464L534 490L549 514L560 540L570 566L576 591L580 617L582 644L582 671L582 845ZM380 589L178 589L178 423L380 423L380 589Z"/></svg>