<svg id="U2D9D5" viewBox="0 0 1024 1024"><path transform="translate(0, 921.6) scale(1,-1)" d="M742 198L742 41L743 34L743 30L744 26L745 25L746 24L749 22L752 21L757 20L911 20L944 154L954 154L944 20L963 7L976-12L963-32L944-45L764-45L750-44L736-42L723-38L711-31L700-22L692-11L685 1L681 14L678 27L678 41L678 391L665 383L661 382L653 327L638 254L618 187L594 127L566 75L534 30L498-9L458-39L414-61L368-74L365-65L405-42L441-16L473 16L501 54L527 97L548 147L552 159L539 148L515 151L499 170L489 218L486 234L473 280L469 292L453 258L436 227L417 199L396 174L374 153L366 160L392 213L404 243L415 274L426 308L436 343L444 381L452 421L459 463L465 503L464 503L467 519L529 498L543 485L525 478L520 452L512 421L601 421L633 448L678 411L678 453L742 421L857 421L889 448L948 399L921 378L921 238L921 225L918 211L914 198L907 186L898 175L887 166L875 160L863 155L849 153L835 152L835 184L742 198ZM76 780L141 748L262 748L294 775L353 726L327 705L327 87L262 55L262 119L141 119L141 55L76 23L76 780ZM262 432L141 432L141 141L262 141L262 432ZM599 399L506 399L496 367L484 328L478 315L499 294L519 267L545 221L553 205L561 188L566 203L581 267L593 337L599 399ZM375 406L353 416L344 439L353 461L360 466L367 474L374 484L381 499L388 516L394 536L399 559L404 585L409 614L413 645L422 646L429 593L900 593L932 620L991 571L964 555L949 549L922 509L877 451L865 434L857 438L864 457L875 494L889 542L897 570L897 571L430 571L431 556L431 531L430 507L427 485L423 466L417 447L409 430L398 415L375 406ZM262 726L141 726L141 453L262 453L262 726ZM729 871L794 861L810 850L794 840L794 764L853 764L907 818L971 764L971 742L794 742L794 660L729 628L729 742L595 742L595 660L531 628L531 742L353 742L353 764L531 764L531 871L595 861L611 850L595 840L595 764L729 764L729 871ZM857 399L742 399L742 217L835 217L842 217L846 218L850 219L852 220L853 221L853 222L854 224L856 227L856 232L857 238L857 399Z"/></svg>