<svg id="U2DD61" viewBox="0 0 1024 1024"><path transform="translate(0, 921.6) scale(1,-1)" d="M587 178L637 137L644 118L623 120L573 65L527 20L501-1L449-40L421-58L391-74L385-67L473 28L514 76L568 149L587 178ZM882-45L859 1L846 23L816 65L782 103L723 160L729 169L755 158L781 145L804 131L828 114L849 96L870 76L889 55L907 33L924 10L939-15L942-40L926-59L901-60L882-45ZM299 97L294 115L287 133L280 152L271 172L248 213L223 255L220 238L205 182L187 130L165 83L139 40L110 2L77-32L39-59L34-52L61-18L87 19L109 58L128 100L144 146L157 195L166 247L173 304L176 364L177 428L177 847L241 837L257 826L241 816L241 549L289 618L330 681L333 683L381 640L387 622L365 625L274 540L241 513L241 428L237 361L230 297L226 276L255 252L292 215L308 196L335 157L346 138L356 118L364 98L361 73L342 58L317 61L302 80L299 97ZM912 272L976 218L976 197L380 197L380 218L858 218L912 272ZM609 311L601 301L591 292L581 284L570 277L558 272L545 268L533 264L520 263L507 262L507 295L399 311L399 327L507 327L521 328L528 330L534 332L539 334L544 338L549 341L554 346L559 351L567 363L571 373L575 385L579 401L582 419L585 439L587 462L589 488L591 515L592 534L467 534L461 492L392 470L431 722L483 685L588 685L588 800L400 800L400 822L588 822L621 849L680 800L653 779L653 642L588 610L588 664L487 664L471 555L592 555L624 582L683 534L657 518L656 517L656 512L654 483L652 456L649 431L646 408L642 387L637 368L631 351L625 335L617 321L609 311ZM926 314L917 304L908 295L898 287L875 274L863 270L850 267L837 265L824 264L824 297L716 313L716 329L824 329L838 330L845 332L851 334L856 337L861 340L866 344L871 348L875 353L879 360L880 361L882 367L885 377L889 408L892 428L894 451L896 476L897 505L898 524L748 524L744 484L677 457L702 722L758 687L888 687L888 804L707 804L707 825L888 825L920 852L979 804L952 782L952 644L888 612L888 666L761 666L750 546L899 546L931 573L990 524L964 508L962 507L960 472L958 445L956 421L953 399L951 381L947 364L944 350L940 337L933 325L926 314ZM79 352L54 355L39 375L43 399L52 414L61 431L68 451L75 472L81 496L85 522L88 550L90 581L92 613L93 648L102 649L112 615L118 582L123 551L125 520L126 491L124 463L121 438L115 412L108 389L98 367L79 352Z"/></svg>