<svg id="U2D00D" viewBox="0 0 1024 1024"><path transform="translate(0, 921.6) scale(1,-1)" d="M512-28L512-14L555-14L560-13L564-13L566-12L567-11L568-11L569-9L570-6L571-3L572 3L572 64L568 61L544 64L529 83L527 93L511 66L497 48L489 39L489-31L425-63L425 50L401 54L386 74L384 93L384 96L365 66L351 47L342 38L342-44L278-76L278 554L254 536L247 542L278 598L278 630L291 623L300 641L329 707L350 762L406 730L417 714L396 711L367 660L338 618L327 605L342 598L425 598L425 781L272 781L231 669L186 558L180 545L208 541L224 530L208 520L208-45L143-77L143 468L109 403L80 354L50 308L41 312L124 521L163 631L198 744L234 871L293 844L306 830L286 824L279 802L543 802L597 856L661 802L661 781L489 781L489 598L572 598L602 625L603 624L599 633L581 665L571 681L535 730L520 746L526 753L564 731L581 719L598 706L614 692L628 677L654 646L666 629L677 612L678 587L661 569L647 568L631 557L631 10L631-3L629-16L625-27L620-39L613-49L603-59L592-65L580-70L567-72L555-73L555-44L512-28ZM843 254L843 146L789 119L789 536L740 507L740 41L741 34L743 28L744 25L746 23L747 22L749 21L752 20L755 20L760 19L922 19L954 154L965 154L954 19L973 6L986-13L973-32L954-45L767-45L753-44L740-41L728-36L716-29L706-20L697-9L692 3L688 15L687 28L686 41L686 476L644 451L633 470L686 501L686 740L740 729L753 718L740 709L740 533L789 562L789 863L843 853L857 842L843 833L843 593L902 628L902 643L932 670L988 621L961 603L961 294L961 281L959 268L956 256L950 245L943 234L933 225L922 218L910 214L897 211L885 210L885 240L843 254ZM386 334L384 351L366 324L352 306L342 296L342 84L360 146L366 169L367 173L360 194L350 224L343 238L350 244L374 221L376 220L380 246L383 268L386 283L425 269L425 311L401 314L386 334ZM489 225L489 90L492 99L503 145L509 169L502 190L497 204L492 219L489 225ZM572 201L565 180L559 163L567 149L572 139L572 201ZM425 148L425 187L416 164L425 148ZM529 334L526 350L510 324L496 307L489 299L489 236L493 239L503 227L516 216L518 214L523 246L526 268L525 268L529 283L572 268L572 314L568 311L544 314L529 334ZM342 468L342 339L347 356L359 401L364 423L359 436L353 448L347 461L342 468ZM489 462L489 351L502 401L507 422L496 448L490 461L489 462ZM572 460L564 436L557 416L566 401L572 390L572 460ZM425 398L425 446L414 417L425 398ZM572 576L489 576L489 478L513 463L515 461L522 505L527 534L529 545L572 529L572 576ZM425 576L342 576L342 476L345 479L370 463L372 461L380 505L384 534L386 545L425 530L425 576ZM902 603L843 568L843 269L885 269L890 270L894 270L897 272L899 274L900 277L901 281L902 287L902 603Z"/></svg>