<svg id="U2D331" viewBox="0 0 1024 1024"><path transform="translate(0, 921.6) scale(1,-1)" d="M428 108L493 75L806 75L838 102L897 54L870 32L870-45L806-77L806-45L493-45L428-77L428 108ZM806 54L493 54L493-24L806-24L806 54ZM69 747L134 714L234 714L263 741L320 693L293 674L293 185L234 155L234 217L134 217L134 153L69 120L69 747ZM806 187L849 149L849 128L449 128L449 149L772 149L806 187ZM806 267L849 229L849 208L449 208L449 229L772 229L806 267ZM234 693L134 693L134 239L234 239L234 693ZM925 351L968 313L968 291L330 291L330 313L892 313L925 351ZM824 420L867 382L867 361L431 361L431 382L790 382L824 420ZM596 871L650 823L650 802L400 802L400 647L486 647L486 718L475 718L465 704L456 692L445 682L434 672L422 664L411 654L404 661L412 672L422 697L430 722L432 734L435 747L436 760L437 772L437 780L436 780L439 796L501 774L515 761L492 752L489 744L487 740L534 740L568 777L611 740L611 718L551 718L551 647L565 647L599 685L642 647L642 626L548 626L547 620L543 608L549 606L561 602L573 597L585 590L606 575L616 566L626 555L635 544L638 520L635 516L668 487L668 465L400 465L400 401L341 371L341 853L400 823L552 823L596 871ZM572 533L567 544L557 562L545 581L538 590L537 591L531 577L520 558L506 541L489 527L472 516L451 506L430 499L407 494L403 503L423 513L439 527L453 540L464 553L473 567L479 581L484 596L486 611L487 626L400 626L400 487L570 487L588 506L579 513L572 533ZM848 620L728 620L738 603L753 582L770 563L787 547L797 540L816 562L832 587L845 614L848 620ZM702 857L761 828L827 828L857 855L913 806L886 788L886 738L886 731L886 726L886 721L887 718L888 716L889 713L892 711L896 709L903 707L910 706L922 706L944 754L954 754L944 706L957 697L965 684L957 671L944 663L897 663L893 663L946 620L919 604L906 599L900 586L880 555L857 527L843 514L852 510L878 502L907 495L990 481L926 420L890 430L857 441L826 456L799 474L795 477L771 463L737 449L701 437L662 430L621 426L619 435L657 449L691 464L722 481L750 498L762 508L755 516L738 540L725 567L717 595L715 620L682 620L682 642L854 642L882 665L873 667L862 673L852 680L843 689L837 700L831 712L829 725L827 738L827 806L761 806L761 759L758 742L752 726L745 712L736 698L725 685L713 675L699 664L683 656L649 639L645 647L660 658L681 683L689 696L695 707L700 718L702 729L703 740L703 749L702 759L702 857Z"/></svg>