<svg id="U2DCEA" viewBox="0 0 1024 1024"><path transform="translate(0, 921.6) scale(1,-1)" d="M881-33L849-17L818 1L789 21L762 42L737 66L714 91L693 117L674 146L671 154L671-42L606-75L606 129L587 108L560 82L531 58L500 35L468 14L434-4L397-20L359-34L318-45L315-37L384 5L445 48L473 71L499 95L522 120L564 173L324 173L324 195L606 195L606 270L390 270L390 292L606 292L606 367L360 367L360 389L537 389L522 406L521 417L520 428L517 438L515 449L511 459L507 470L502 481L491 503L482 512L488 519L499 512L511 506L523 498L534 490L544 481L553 471L562 461L570 449L578 437L584 425L581 400L567 389L701 389L704 396L733 468L742 493L749 516L752 521L807 487L816 469L792 468L772 444L752 422L729 399L716 389L818 389L862 437L916 389L916 367L671 367L671 292L788 292L832 340L886 292L886 270L671 270L671 195L834 195L888 248L952 195L952 173L677 173L716 139L766 100L792 83L818 67L847 53L876 40L907 29L978 6L915-48L881-33ZM198-58L175-66L153-55L145-32L148 6L148 40L144 72L139 99L131 125L120 147L107 167L90 185L70 202L46 218L49 227L79 220L107 209L131 192L139 185L304 698L314 696L193 166L184 123L182 124L186 116L198 82L204 46L209 6L209-36L198-58ZM132 470L127 481L121 491L113 502L104 513L82 535L55 557L38 567L42 576L60 570L79 566L97 560L114 553L129 546L144 537L158 526L171 516L182 503L193 490L195 466L180 446L155 444L136 459L132 470ZM324 521L324 543L546 543L546 705L606 695L621 684L606 674L606 543L671 543L671 705L730 695L744 684L730 675L730 543L773 543L779 553L800 605L807 621L824 666L829 679L833 692L836 698L862 681L875 712L885 738L392 738L393 728L393 709L392 690L391 684L397 691L409 682L422 674L434 666L445 656L456 647L475 625L492 602L499 589L497 564L479 548L454 550L438 568L436 579L434 590L431 602L428 613L418 636L407 660L400 673L391 684L389 673L384 657L377 642L368 628L357 616L332 611L311 624L307 648L320 669L326 671L332 675L339 681L346 690L352 702L359 716L364 732L370 750L374 771L376 795L386 795L388 771L390 760L606 760L606 875L671 864L687 854L671 844L671 760L889 760L893 762L893 764L894 764L922 787L981 738L954 722L930 712L908 690L887 670L884 667L891 663L901 646L877 644L853 613L805 559L790 545L789 543L834 543L888 597L952 543L952 521L324 521ZM207 727L203 737L197 747L189 758L181 769L159 791L132 814L116 825L120 834L138 827L157 822L174 816L191 809L221 792L234 782L257 760L267 748L269 724L254 704L229 702L210 718L207 727Z"/></svg>