<svg id="U2DDB3" viewBox="0 0 1024 1024"><path transform="translate(0, 921.6) scale(1,-1)" d="M352-30L352-26L330-37L330 175L279 175L279-10L225-37L225 175L175 175L175-39L116-68L116 199L105 134L93 84L80 37L64-6L45-46L36-44L44-1L52 44L59 91L65 141L70 193L73 248L75 306L77 367L77 431L75 498L75 793L135 764L271 801L378 834L452 861L455 852L504 810L506 793L484 803L432 788L355 770L317 763L281 756L245 751L209 747L175 745L141 745L140 745L140 675L413 675L445 702L504 654L478 632L478 492L413 460L413 514L140 514L140 498L138 430L137 420L175 401L434 401L463 428L520 380L493 361L493 9L492-4L490-16L487-28L481-40L474-51L464-59L453-66L441-70L429-73L416-74L416-45L352-30ZM700 725L764 714L780 703L764 694L764-38L700-70L700 725ZM563 762L619 734L713 773L772 800L858 848L886 865L896 848L929 815L930 797L910 805L855 780L851 778L872 554L883 451L895 358L908 274L922 201L937 138L953 85L971 44L987 13L935-37L926-23L908 18L893 67L880 125L868 191L858 267L850 353L844 448L840 552L838 667L840 773L823 766L791 754L727 734L694 727L661 720L629 716L627 716L627 379L624 318L620 261L613 208L604 157L594 110L581 67L566 27L549-9L529-41L507-68L499-62L511-31L523 2L533 38L542 77L549 119L555 165L559 213L562 265L563 320L563 379L563 762ZM225 380L175 380L175 197L225 197L225 380ZM330 380L279 380L279 197L330 197L330 380ZM434 380L384 380L384 197L434 197L434 380ZM413 654L140 654L140 535L413 535L413 654ZM434 175L384 175L384-10L374-15L416-15L421-15L425-14L428-12L430-10L431-8L432-4L433 2L434 9L434 175Z"/></svg>