<svg id="U2DA8B" viewBox="0 0 1024 1024"><path transform="translate(0, 921.6) scale(1,-1)" d="M411 99L401 117L377 151L363 168L332 201L305 225L305-51L241-83L241 211L212 158L189 122L164 88L138 56L109 26L78-2L45-27L39-20L87 45L110 77L150 146L168 181L184 218L199 256L211 295L217 315L52 315L52 337L241 337L241 471L305 460L321 449L305 440L305 337L371 337L425 390L489 337L489 315L305 315L305 248L329 239L351 227L373 214L412 185L430 169L446 152L461 133L475 115L479 90L464 70L439 67L420 82L411 99ZM726-27L726-11L833-11L840-10L845-10L849-9L850-8L851-7L853-4L854-1L855 4L855 757L511 757L511 779L867 779L921 833L985 779L985 757L920 757L920 11L919-3L917-17L912-30L906-41L897-53L886-61L874-68L861-72L847-75L833-75L833-43L726-27ZM552 619L616 587L713 587L745 614L804 566L778 544L778 248L713 216L713 281L616 281L616 216L552 184L552 619ZM713 566L616 566L616 302L713 302L713 566ZM149 842L214 810L323 810L355 837L414 788L387 767L387 567L388 562L389 559L391 557L391 556L392 555L397 553L402 552L409 552L438 552L470 686L481 686L470 552L489 539L502 519L489 500L470 487L409 487L395 488L381 490L368 495L356 502L345 510L337 521L330 533L325 546L323 560L323 573L323 788L214 788L214 670L210 636L204 603L195 571L182 542L167 514L148 488L127 464L102 443L75 424L45 408L39 416L62 440L82 463L100 487L115 511L127 536L136 561L143 587L148 613L150 641L149 670L149 842Z"/></svg>