<svg id="U2DA0E" viewBox="0 0 1024 1024"><path transform="translate(0, 921.6) scale(1,-1)" d="M822 847L806 838L809 654L849 654L902 707L967 654L967 632L811 632L820 480L836 339L844 296L865 387L880 466L882 476L943 455L957 441L939 434L925 373L904 297L881 228L866 191L878 142L901 80L923 38L926 34L950 138L960 138L950 5L952 4L950 3L972-6L982-29L972-52L950-61L920-52L894-31L868 4L842 54L824 104L794 57L760 13L723-25L683-54L642-76L637-68L671-38L703-4L732 34L760 78L785 128L804 173L793 214L772 330L756 474L746 632L465 632L465 654L745 654L741 853L741 871L806 858L822 847ZM41-38L41-16L231-16L231 75L84 75L84 96L231 96L231 181L150 181L150 165L86 132L86 459L150 426L377 426L409 453L468 405L441 383L441 170L390 144L443 96L443 75L295 75L295-16L367-16L421 38L485-16L485-38L41-38ZM492 7L461 65L547 90L688 135L751 153L755 144L700 109L645 78L592 52L516 17L513 16L508-5L492 7ZM377 181L295 181L295 96L345 96L389 144L377 138L377 181ZM513 530L578 498L661 498L693 525L752 476L725 455L725 245L661 213L661 256L578 256L578 191L513 159L513 530ZM231 293L150 293L150 202L231 202L231 293ZM377 293L295 293L295 202L377 202L377 293ZM661 476L578 476L578 277L661 277L661 476ZM231 405L150 405L150 314L231 314L231 405ZM377 405L295 405L295 314L377 314L377 405ZM440 560L484 523L484 501L41 501L41 523L407 523L440 560ZM85 854L149 822L374 822L407 849L466 800L439 779L439 596L374 564L374 596L149 596L85 564L85 854ZM374 702L149 702L149 618L374 618L374 702ZM863 735L859 761L853 786L850 797L846 809L842 820L832 842L825 851L831 859L842 851L853 845L864 837L884 818L893 806L902 795L910 782L925 754L922 730L903 714L879 717L863 735ZM374 800L149 800L149 723L374 723L374 800Z"/></svg>