<svg id="U2D922" viewBox="0 0 1024 1024"><path transform="translate(0, 921.6) scale(1,-1)" d="M887-27L856 6L829 42L804 80L784 121L767 164L753 209L743 256L737 306L737 312L720 241L696 176L667 118L631 65L589 19L542-20L488-52L429-76L425-67L478-34L524 3L564 44L598 89L627 139L650 195L668 255L680 321L683 353L508 353L508 374L685 374L687 394L688 471L688 600L589 600L582 584L567 554L549 526L529 499L507 474L499 480L535 569L553 630L560 662L567 695L571 727L574 762L576 791L578 808L641 791L656 779L638 770L635 754L628 718L619 683L609 649L598 621L688 621L688 869L752 858L768 847L752 838L752 621L835 621L888 675L953 621L953 600L752 600L752 471L748 389L746 374L860 374L914 428L978 374L978 353L748 353L759 310L774 264L790 221L808 181L829 144L851 110L876 78L903 49L932 23L980-12L921-57L887-27ZM109 777L172 746L349 807L428 839L431 829L479 788L480 771L458 781L422 770L364 755L335 749L304 743L273 738L242 733L209 728L176 726L173 726L173 530L388 530L442 584L506 530L506 509L361 509L361-45L296-77L296 509L173 509L173 412L171 348L166 288L159 231L150 178L138 128L125 82L109 39L91 1L70-34L46-63L38-59L52-24L64 12L75 51L86 92L94 137L100 185L105 237L108 292L109 351L109 412L109 777Z"/></svg>