<svg id="U2D252" viewBox="0 0 1024 1024"><path transform="translate(0, 921.6) scale(1,-1)" d="M628-27L628-11L736-11L742-10L747-9L750-9L752-8L754-5L756-1L757 4L757 11L757 264L56 264L56 285L852 285L906 339L970 285L970 264L822 264L822 11L821-3L818-16L814-29L807-41L799-52L788-61L775-68L763-72L749-74L736-75L736-43L628-27ZM182 218L246 185L562 185L594 212L653 164L627 142L627 26L562-6L562 37L246 37L246 20L182-12L182 218ZM562 164L246 164L246 58L562 58L562 164ZM933 447L924 437L914 428L904 421L893 414L881 409L869 405L856 402L843 400L830 399L830 432L776 448L776 464L830 464L838 464L845 465L851 467L857 469L863 471L868 474L873 478L883 488L888 494L889 495L892 502L894 513L893 527L888 543L878 561L861 581L837 602L803 622L759 645L759 646L758 645L751 652L813 733L838 769L861 806L687 806L687 358L622 325L622 860L687 828L871 828L873 830L875 834L877 833L903 855L962 806L935 790L916 782L890 754L840 707L802 676L770 653L813 647L854 631L887 612L913 590L931 567L943 542L950 518L951 496L948 476L940 457L933 447ZM431 354L420 348L409 344L397 339L386 335L374 332L362 330L350 328L338 327L325 327L325 359L229 375L229 391L325 391L343 392L351 394L360 395L368 397L376 400L392 406L408 415L410 418L416 430L423 451L429 480L434 517L436 556L283 556L274 518L260 482L242 449L220 420L193 394L162 373L128 355L89 342L49 334L45 343L82 361L114 381L142 402L165 424L184 448L199 474L210 502L218 532L222 556L88 556L88 578L223 578L224 601L224 686L108 686L108 707L224 707L224 806L103 806L103 828L434 828L466 855L525 806L499 791L501 744L502 707L517 707L551 745L594 707L594 686L503 686L503 675L503 613L502 578L522 578L556 616L599 578L599 556L501 556L498 511L493 469L486 434L476 405L462 380L442 360L431 354ZM288 599L286 578L437 578L438 614L438 674L438 686L289 686L289 600L288 599ZM434 806L289 806L289 707L438 707L437 741L436 764L434 763L434 806Z"/></svg>