<svg id="U2D3FC" viewBox="0 0 1024 1024"><path transform="translate(0, 921.6) scale(1,-1)" d="M717 406L707 425L695 443L687 454L678 430L654 380L625 335L590 296L552 263L508 236L488 228L544 218L560 208L544 198L544 130L807 130L851 178L904 130L904 108L544 108L544-14L856-14L910 40L974-14L974-35L50-35L50-14L480-14L480 108L120 108L120 130L480 130L480 224L460 216L456 225L497 253L533 285L564 320L591 359L614 401L631 447L645 498L645 500L603 538L552 578L557 587L589 575L619 562L646 547L653 543L654 553L659 613L660 677L660 682L536 682L536 703L660 703L660 866L724 855L740 844L724 834L724 703L812 703L844 730L903 682L876 660L876 301L877 296L878 292L879 290L879 289L880 288L886 285L891 284L898 283L925 283L954 396L965 396L954 283L972 271L984 254L972 236L954 224L898 224L884 225L871 226L858 231L846 237L836 245L826 256L820 268L815 280L813 294L812 308L812 682L724 682L724 677L721 609L711 544L703 508L717 497L737 478L754 458L770 438L783 416L785 391L768 373L744 372L725 388L717 406ZM140 258L140 220L75 188L75 512L140 480L427 480L459 507L518 459L492 437L492 258L427 225L427 258L140 258ZM251 358L140 358L140 279L251 279L251 358ZM427 358L316 358L316 279L427 279L427 358ZM251 459L140 459L140 380L251 380L251 459ZM427 459L316 459L316 380L427 380L427 459ZM124 730L189 697L374 697L407 724L466 676L439 654L439 545L374 512L374 545L189 545L124 512L124 730ZM374 676L189 676L189 566L374 566L374 676ZM37 752L37 773L252 773L252 867L317 856L333 846L317 836L317 773L414 773L468 827L532 773L532 752L37 752Z"/></svg>