<svg id="U2D31E" viewBox="0 0 1024 1024"><path transform="translate(0, 921.6) scale(1,-1)" d="M428 869L489 846L503 833L484 826L459 728L425 615L408 560L402 545L426 541L442 530L426 520L426-45L361-77L361 435L327 355L302 308L294 312L364 573L391 684L415 800L426 860L428 869ZM793-27L793-11L847-11L853-10L859-10L861-9L865-7L866-4L867-1L868 4L868 11L868 70L860 62L836 64L819 82L814 105L802 87L788 67L772 48L758 34L758-30L694-62L694 56L687 51L663 55L647 74L644 92L641 107L628 86L612 66L596 48L580 33L580-44L516-76L516 563L501 552L480 539L473 546L501 585L516 607L516 633L529 627L554 668L589 737L603 768L658 733L667 716L646 714L611 662L577 620L566 608L580 601L694 601L694 785L480 785L480 806L854 806L908 860L972 806L972 785L758 785L758 601L868 601L901 628L912 619L902 635L880 667L852 700L821 733L802 750L808 758L852 737L873 725L910 698L943 668L958 652L972 634L984 617L987 592L971 573L949 571L933 558L933 11L932-3L930-16L925-30L919-41L910-52L899-61L887-68L874-72L861-75L847-75L847-43L793-27ZM644 351L640 363L628 344L613 325L597 308L581 294L580 294L580 61L606 125L621 172L621 173L613 194L598 226L589 240L596 247L624 224L632 216L644 271L643 271L647 286L694 267L694 319L688 314L664 316L647 334L644 351ZM816 351L813 363L801 344L787 325L772 308L758 296L758 65L772 102L787 148L792 169L770 220L760 234L767 241L780 230L794 219L803 211L806 223L811 249L815 271L818 286L868 266L868 322L860 314L836 316L819 334L816 351ZM70 747L135 714L224 714L257 741L316 693L289 671L289 185L224 153L224 217L135 217L135 153L70 120L70 747ZM868 227L844 164L853 152L863 137L868 126L868 227ZM694 128L694 220L678 180L672 166L683 148L693 130L694 128ZM224 693L135 693L135 239L224 239L224 693ZM694 580L580 580L580 316L605 382L613 405L618 423L602 451L594 464L584 475L590 483L603 475L618 467L628 460L633 481L644 534L643 534L647 548L694 530L694 580ZM758 473L758 326L778 382L785 405L790 422L774 451L766 464L758 473ZM868 378L868 489L850 438L842 419L852 405L862 389L868 378ZM694 383L694 482L678 438L669 419L680 405L690 389L694 383ZM868 580L758 580L758 478L762 483L790 467L800 460L805 481L811 509L815 534L818 548L868 528L868 580Z"/></svg>