<svg id="U2D442" viewBox="0 0 1024 1024"><path transform="translate(0, 921.6) scale(1,-1)" d="M858-58L804-42L754-23L709 0L667 27L629 58L596 92L567 130L544 172L526 217L528 218L497 218L467 161L427 105L379 57L324 16L263-18L195-44L120-61L39-71L38-62L115-41L185-16L247 14L301 49L348 90L388 136L421 188L434 218L39 218L39 240L444 240L466 309L478 374L481 390L543 370L557 356L538 349L525 294L506 240L861 240L915 294L980 240L980 218L537 218L563 184L592 150L623 119L657 92L694 69L733 49L776 32L823 18L872 8L980-6L916-69L858-58ZM913 410L942 523L953 523L942 410L960 398L972 380L960 362L942 351L738 351L724 351L711 353L698 358L686 363L675 372L666 382L660 394L655 407L652 420L652 434L652 697L434 697L431 664L417 608L396 557L366 510L329 469L285 433L234 401L176 375L111 354L40 339L37 348L105 374L164 401L216 432L260 464L296 501L325 539L347 580L362 624L370 672L371 697L109 697L109 719L372 719L372 724L372 868L437 857L453 846L437 837L437 724L436 719L652 719L684 746L743 697L716 676L716 427L717 423L717 419L718 417L719 416L720 414L722 413L725 412L731 411L738 410L913 410Z"/></svg>