<svg id="U2D9E6" viewBox="0 0 1024 1024"><path transform="translate(0, 921.6) scale(1,-1)" d="M794-50L665-46L549-36L447-20L360 2L287 31L228 66L184 108L157 155L151 129L138 88L124 49L107 14L88-18L66-46L42-69L35-63L50-34L63-4L75 28L86 62L95 99L102 139L108 182L111 227L114 276L114 327L114 339L178 325L194 314L177 304L174 272L169 221L164 193L177 165L207 129L232 110L232 396L50 396L50 417L360 417L404 466L458 417L458 396L297 396L297 245L360 245L394 283L437 245L437 224L297 224L297 76L373 51L457 34L555 23L667 18L794 17L935 23L996 25L938-48L794-50ZM475 106L475 122L550 122L557 123L562 123L565 124L568 126L570 129L571 132L571 137L572 144L572 320L523 294L495 280L490 259L474 270L442 327L452 331L500 346L572 374L572 561L452 561L452 582L572 582L572 724L540 717L513 713L485 709L456 707L454 717L554 761L599 783L639 807L672 829L677 832L689 811L717 782L718 763L699 771L666 756L642 747L636 745L636 582L742 582L736 688L736 839L736 852L800 838L816 827L800 818L800 690L806 582L856 582L910 636L974 582L974 561L807 561L820 451L836 367L859 432L874 484L878 497L937 471L950 456L930 451L917 412L895 357L870 306L858 284L881 224L904 180L927 151L953 266L964 266L954 132L979 119L985 95L973 74L950 67L913 80L880 106L850 145L822 197L815 216L784 177L751 142L716 112L679 87L640 68L635 76L667 104L697 133L725 166L752 202L776 241L794 273L775 344L757 442L743 556L743 561L636 561L636 402L726 439L731 431L704 409L651 369L636 360L636 144L636 130L633 116L629 103L622 91L614 81L602 72L590 65L578 61L564 58L550 58L550 90L475 106ZM93 847L157 815L351 815L383 842L442 793L415 772L415 509L351 476L351 530L157 530L157 492L93 460L93 847ZM351 664L157 664L157 552L351 552L351 664ZM881 675L874 703L870 717L865 730L848 767L833 790L824 800L830 808L842 800L856 794L869 785L881 776L893 766L904 754L914 741L933 713L942 698L940 673L922 656L898 657L881 675ZM351 793L157 793L157 686L351 686L351 793Z"/></svg>