<svg id="U2DA5B" viewBox="0 0 1024 1024"><path transform="translate(0, 921.6) scale(1,-1)" d="M459 735L524 725L540 714L524 704L524-45L459-77L459 735ZM382 340L362 354L339 392L330 404L308 428L283 453L272 462L272-40L208-72L208 438L196 407L177 360L155 313L131 269L106 226L78 185L48 146L39 151L100 284L134 376L149 423L163 471L174 521L185 571L190 605L43 605L43 627L208 627L208 869L272 858L288 847L272 838L272 627L304 627L358 681L422 627L422 605L272 605L272 479L294 472L312 466L329 457L346 448L361 439L390 416L415 390L420 366L407 345L382 340ZM774-24L774-8L866-8L871-6L874-5L878-4L878-3L879-1L880 2L881 7L881 14L881 752L694 752L694 773L881 773L914 800L973 752L946 730L946 14L945 0L943-13L938-26L932-39L923-49L912-58L900-65L887-69L874-72L860-72L860-40L774-24ZM593 698L589 719L584 740L577 759L568 777L558 796L546 813L519 847L502 862L507 871L529 861L550 849L570 835L588 820L604 802L618 782L631 761L643 738L652 713L660 688L654 664L633 650L610 656L596 676L593 698Z"/></svg>