<svg id="U2D2BF" viewBox="0 0 1024 1024"><path transform="translate(0, 921.6) scale(1,-1)" d="M564 355L561 375L560 378L538 366L514 355L508 353L508-45L444-77L444 330L415 320L364 306L360 306L351 286L337 301L317 362L327 364L352 367L389 371L518 660L551 738L554 744L610 711L620 695L600 692L529 560L463 450L414 379L410 374L428 376L453 381L479 384L530 393L556 397L547 430L542 447L523 497L514 512L521 519L549 494L562 480L574 464L586 448L596 430L606 411L615 391L623 370L630 348L625 325L606 310L581 315L567 335L564 355ZM364 265L428 248L443 237L424 227L417 189L410 160L402 131L382 74L370 47L357 20L341-6L324-31L315-27L337 59L349 115L353 142L357 170L360 197L362 225L363 248L364 265ZM919 46L983-8L983-29L594-29L594-8L865-8L919 46ZM665 664L730 632L867 632L900 659L959 611L932 589L932 116L867 84L867 148L730 148L730 84L665 52L665 664ZM561 106L559 128L551 169L547 188L542 207L531 242L525 260L517 276L525 282L552 255L565 239L576 222L587 204L596 184L605 163L621 119L627 95L622 71L601 58L577 63L564 84L561 106ZM68 747L133 714L229 714L261 741L321 693L294 671L294 185L229 153L229 217L133 217L133 153L68 120L68 747ZM867 385L730 385L730 170L867 170L867 385ZM229 693L133 693L133 239L229 239L229 693ZM867 611L730 611L730 406L867 406L867 611ZM391 553L386 570L381 586L375 602L368 617L360 632L343 662L333 676L321 690L327 697L359 678L374 667L388 655L404 707L449 838L454 855L453 855L458 867L515 836L526 820L506 817L471 753L447 712L421 673L399 644L415 626L427 610L437 592L447 575L456 555L453 531L435 515L410 517L394 536L391 553ZM904 826L968 772L968 750L632 750L632 772L850 772L904 826Z"/></svg>