<svg id="U2DD81" viewBox="0 0 1024 1024"><path transform="translate(0, 921.6) scale(1,-1)" d="M301 97L296 115L289 133L282 152L261 192L250 213L224 255L221 238L207 182L188 130L166 83L141 40L110 2L77-32L40-59L34-52L63-18L88 19L110 58L129 100L145 146L158 195L168 247L174 304L178 364L178 847L242 837L258 826L242 816L242 549L314 651L323 667L330 677L335 684L383 640L389 622L368 625L343 600L275 540L242 513L242 428L239 361L232 297L228 276L257 252L276 233L309 196L324 176L337 157L348 138L358 118L366 98L363 73L344 58L320 61L304 80L301 97ZM810 6L842 141L853 141L842 6L861-6L874-26L861-45L842-58L595-58L581-58L568-55L555-51L543-44L532-35L523-25L517-12L513 1L510 14L509 28L509 180L574 169L590 158L574 148L574 28L574 21L575 16L576 13L577 11L578 10L581 9L584 8L589 6L810 6ZM371-33L350-19L345 5L358 25L368 30L377 37L386 45L394 56L402 70L409 85L415 104L421 125L427 147L429 173L439 173L442 147L445 123L445 99L444 77L442 57L437 37L430 19L421 2L409-14L395-28L371-33ZM923 31L920 46L915 60L909 75L902 89L894 104L885 119L862 149L847 163L853 171L889 151L906 140L921 127L936 114L949 100L960 84L971 68L980 51L988 33L984 9L965-6L940-3L925 17L923 31ZM694 91L689 103L684 115L678 126L663 148L654 160L634 182L622 191L627 199L641 194L657 188L671 182L685 174L699 166L711 156L723 146L746 123L756 109L758 85L742 66L717 64L699 80L694 91ZM401 640L460 630L474 619L460 610L460 234L846 234L900 288L965 234L965 213L460 213L401 183L401 640ZM663 875L725 856L740 843L720 834L710 801L706 787L861 787L915 841L979 787L979 766L699 766L684 725L663 678L814 678L846 705L905 656L878 635L878 307L814 275L814 318L586 318L586 302L527 272L527 707L586 678L649 678L651 690L656 753L657 766L364 766L364 787L658 787L660 828L661 846L661 858L660 858L661 862L661 863L663 875ZM814 435L586 435L586 339L814 339L814 435ZM79 352L55 355L40 375L43 399L53 414L61 431L70 451L76 472L81 496L86 522L89 550L91 581L93 648L103 649L113 615L120 582L124 551L126 520L127 491L125 463L122 437L116 412L108 389L99 367L79 352ZM814 552L586 552L586 456L814 456L814 552ZM814 656L586 656L586 573L814 573L814 656Z"/></svg>