<svg id="U2D63F" viewBox="0 0 1024 1024"><path transform="translate(0, 921.6) scale(1,-1)" d="M289 401L289-40L224-72L224 401L45 401L45 423L224 423L224 756L66 756L66 777L328 777L382 831L446 777L446 756L289 756L289 423L370 423L414 471L468 423L681 423L681 659L490 659L490 681L681 681L681 869L746 858L762 847L746 838L746 681L818 681L872 734L937 681L937 659L746 659L746 423L886 423L930 471L984 423L984 401L289 401ZM895-38L886 0L869 62L800 43L632 5L512-18L503-37L490-23L471 40L482 41L515 44L578 50L587 101L626 280L645 382L648 397L709 373L722 359L703 353L678 267L655 196L629 126L615 91L600 58L597 52L750 67L795 72L843 75L864 76L843 139L817 203L775 292L783 298L807 274L828 248L866 190L901 125L916 91L945 18L957-21L954-45L935-60L910-57L895-38Z"/></svg>