<svg id="U2D73E" viewBox="0 0 1024 1024"><path transform="translate(0, 921.6) scale(1,-1)" d="M178 869L242 858L258 847L242 838L242-40L178-72L178 869ZM556 184L604 141L610 123L590 125L559 92L510 47L457 4L400-35L370-53L338-69L332-61L453 59L516 131L553 181L556 184ZM867-17L854 5L839 27L806 69L788 89L747 127L702 166L707 174L736 164L764 151L789 137L814 120L838 102L881 62L901 39L919 16L936-9L939-33L924-53L900-56L880-41L867-17ZM327 213L327 234L452 234L452 767L508 739L551 755L739 823L795 844L798 835L847 793L848 777L826 786L815 783L693 753L661 746L593 733L558 727L522 723L516 722L516 557L829 557L883 611L947 557L947 535L799 535L799 234L864 234L918 288L982 234L982 213L327 213ZM735 535L516 535L516 234L735 234L735 535ZM72 394L48 399L36 420L41 444L49 453L57 464L65 478L73 494L81 512L97 556L113 609L120 638L130 638L130 577L129 551L127 525L123 501L119 479L114 459L108 440L101 422L93 406L72 394ZM328 508L325 523L321 538L310 568L286 618L277 635L265 652L272 659L304 632L333 604L357 575L377 544L385 528L393 511L389 487L370 472L346 475L330 494L328 508Z"/></svg>