<svg id="U2DA0B" viewBox="0 0 1024 1024"><path transform="translate(0, 921.6) scale(1,-1)" d="M706 150L706 63L857 63L911 117L975 63L975 42L706 42L706-39L641-71L641 42L371 42L371 63L641 63L641 150L403 150L403 171L497 171L497 273L367 273L367 294L497 294L497 395L421 395L421 416L828 416L872 464L925 416L925 395L850 395L850 294L881 294L925 342L979 294L979 273L850 273L850 171L867 171L900 209L943 171L943 150L706 150ZM74 780L139 748L273 748L306 775L365 726L338 705L338 87L273 55L273 119L139 119L139 55L74 23L74 780ZM273 432L139 432L139 141L273 141L273 432ZM641 273L561 273L561 171L641 171L641 273ZM785 273L706 273L706 171L785 171L785 273ZM641 395L561 395L561 294L641 294L641 395ZM785 395L706 395L706 294L785 294L785 395ZM742 598L806 588L822 577L806 567L806 525L888 525L932 574L986 525L986 504L806 504L806 456L742 424L742 504L604 504L604 456L540 424L540 504L360 504L360 525L540 525L540 598L604 588L621 577L604 567L604 525L742 525L742 598ZM273 726L139 726L139 453L273 453L273 726ZM446 878L511 846L835 846L867 873L926 825L900 803L900 602L835 569L835 612L511 612L511 596L446 564L446 878ZM835 721L511 721L511 634L835 634L835 721ZM835 825L511 825L511 743L835 743L835 825Z"/></svg>