<svg id="U2D522" viewBox="0 0 1024 1024"><path transform="translate(0, 921.6) scale(1,-1)" d="M146-26L146-10L239-10L244-9L247-8L249-7L250-6L250-5L251-4L252-1L253 4L253 206L72 206L72 227L381 227L435 281L499 227L499 206L318 206L318 11L317-3L315-16L310-29L304-41L295-52L285-61L272-67L259-72L246-74L232-75L232-42L146-26ZM621 210L682 189L696 175L677 168L671 146L654 107L632 71L605 39L573 11L538-13L497-33L453-49L405-61L353-69L351-59L400-41L443-23L482-2L515 21L544 46L567 72L587 101L601 131L612 164L618 194L621 210ZM904 19L936 154L947 154L936 19L956 6L968-13L956-32L936-45L802-45L788-45L775-42L762-38L750-31L739-22L730-11L723 1L719 14L717 27L716 41L716 212L590 212L590 148L525 116L525 662L590 630L812 630L823 642L863 703L879 730L152 730L152 718L150 696L146 676L140 656L131 638L120 621L106 607L89 594L65 592L46 608L44 633L60 652L71 656L80 661L90 669L99 678L108 691L115 706L122 723L128 743L134 766L136 790L146 791L149 765L150 752L480 752L480 876L544 866L560 855L544 845L544 752L888 752L892 755L894 760L896 758L921 778L980 730L953 714L925 702L879 665L865 654L922 608L895 587L895 180L830 148L830 212L780 212L780 41L781 34L781 30L782 26L783 24L785 24L785 23L787 22L790 20L795 20L802 19L904 19ZM149 169L209 144L222 129L200 123L192 106L181 88L170 70L156 53L142 36L109 5L71-25L64-18L78 1L111 58L120 76L128 94L134 111L139 127L144 144L146 160L149 169ZM413 59L408 76L400 95L394 105L381 126L365 149L353 159L359 166L372 159L386 153L399 146L422 132L434 124L453 108L470 88L471 64L456 45L431 44L413 59ZM830 350L590 350L590 234L830 234L830 350ZM379 383L443 329L443 308L128 308L128 329L325 329L379 383ZM403 432L397 441L380 459L359 478L321 507L318 509L318 390L253 358L253 510L232 484L212 462L191 442L168 425L145 409L121 396L95 385L70 378L65 387L104 420L141 455L174 495L204 541L218 566L219 567L72 567L72 588L253 588L253 681L318 670L334 659L318 649L318 588L381 588L435 642L499 588L499 567L318 567L318 522L325 520L343 517L360 513L376 508L391 503L406 497L420 490L432 483L445 475L456 467L464 444L454 421L431 413L409 423L403 432ZM830 479L590 479L590 371L830 371L830 479ZM830 608L590 608L590 501L830 501L830 608ZM838 636L832 632L829 630L830 630L838 636Z"/></svg>