<svg id="U2D7F6" viewBox="0 0 1024 1024"><path transform="translate(0, 921.6) scale(1,-1)" d="M716 847L701 838L707 647L724 474L751 333L774 257L792 291L823 365L854 445L885 538L944 510L956 495L936 490L911 423L876 342L840 268L801 199L797 194L821 139L857 80L892 40L922 17L925 15L953 138L964 138L953 3L975-6L985-29L975-52L953-61L922-55L887-38L847-7L806 41L764 110L755 130L717 82L672 33L625-9L576-44L525-70L520-62L564-27L606 12L646 57L685 107L722 163L733 181L724 201L689 318L661 464L642 643L636 853L636 871L700 858L716 847ZM337-10L337 6L412 6L418 6L423 7L427 8L429 9L429 10L430 11L431 13L432 16L433 21L434 27L434 135L165 135L165-31L101-63L101 460L165 428L434 428L466 455L525 406L498 385L498 27L497 13L495 1L490-13L484-25L475-35L464-45L452-51L439-55L426-58L412-59L412-26L337-10ZM434 270L165 270L165 156L434 156L434 270ZM434 406L165 406L165 292L434 292L434 406ZM44 885L109 874L125 863L109 854L109 562L457 562L501 611L555 562L555 541L109 541L109 476L44 444L44 885ZM173 863L238 831L388 831L421 858L480 810L453 788L453 643L388 611L388 643L238 643L173 611L173 863ZM388 810L238 810L238 664L388 664L388 810ZM857 694L850 709L832 737L822 750L810 764L768 806L751 819L756 828L796 812L815 803L833 792L851 781L867 769L881 756L895 741L908 726L920 710L922 686L907 667L882 664L863 680L857 694Z"/></svg>