<svg id="U2D4F4" viewBox="0 0 1024 1024"><path transform="translate(0, 921.6) scale(1,-1)" d="M706-24L706-8L813-8L820-8L824-7L828-6L829-5L830-4L831-3L832-1L833 2L834 7L835 13L835 607L899 596L915 585L899 576L899 13L898 0L896-13L892-26L885-39L876-49L865-59L853-65L840-69L826-72L813-73L813-40L706-24ZM93 25L308 52L308 187L108 187L108 209L308 209L308 311L372 301L388 290L372 280L372 209L453 209L507 262L572 209L572 187L372 187L372 60L477 73L531 78L588 84L590 74L482 44L430 31L195-20L153-29L135-32L126-51L113-37L93 25ZM636 549L700 539L716 528L700 518L700 91L636 59L636 549ZM498 332L492 344L485 356L479 365L456 358L332 330L221 309L145 297L135 278L123 294L106 356L116 358L180 361L209 363L256 455L274 497L286 530L97 530L97 551L465 551L518 605L583 551L583 530L354 530L333 491L308 453L279 412L244 371L237 365L250 366L288 368L327 370L367 374L409 376L452 378L469 379L453 398L439 413L407 445L387 460L393 468L437 448L458 437L494 414L509 403L524 390L537 377L549 364L559 350L561 326L545 307L521 305L502 321L498 332ZM65 568L46 583L44 607L59 627L70 632L79 638L89 647L99 657L107 671L115 688L122 707L128 728L134 753L136 780L146 780L149 753L151 737L480 737L480 872L544 861L560 850L544 841L544 737L888 737L891 739L894 744L896 743L921 763L980 715L953 699L928 689L893 657L850 621L832 610L816 596L809 602L822 619L877 710L880 715L152 715L152 702L151 678L146 656L141 636L132 617L121 599L107 584L90 570L65 568Z"/></svg>