<svg id="U2D5BD" viewBox="0 0 1024 1024"><path transform="translate(0, 921.6) scale(1,-1)" d="M207-7L207-45L143-77L143 224L207 213L223 203L207 193L207 15L480 15L480 305L544 294L560 283L544 274L544 15L817 15L817 224L881 213L897 203L881 193L881-28L817-61L817-7L207-7ZM411 488L404 497L386 513L364 531L350 540L321 557L304 567L303 567L303 298L239 266L239 549L218 517L196 488L173 461L148 435L120 411L90 389L58 370L52 377L100 432L141 487L159 514L176 543L191 573L203 603L215 633L218 644L55 644L55 666L239 666L239 768L208 764L164 760L117 757L66 755L65 764L278 819L311 828L341 837L392 855L412 863L415 855L464 812L465 796L443 805L433 802L409 796L383 790L322 780L303 777L303 666L353 666L407 719L471 666L471 644L303 644L303 581L308 580L328 578L346 576L364 572L380 568L396 563L411 557L426 552L453 537L464 515L456 492L434 481L411 488ZM882 295L839 327L802 363L771 403L746 446L726 492L712 542L705 588L682 520L653 464L616 416L572 373L521 338L463 308L397 286L326 270L324 280L391 305L450 334L501 367L545 404L581 445L610 490L632 540L647 594L656 654L658 719L658 867L722 856L738 845L722 835L722 719L720 686L725 651L735 599L736 598L844 675L893 713L911 731L915 735L954 683L956 664L935 672L866 637L791 605L739 586L750 553L767 510L789 471L815 436L845 405L879 377L917 353L990 317L929 267L882 295ZM481 541L461 554L457 578L470 599L481 604L490 611L499 619L506 628L512 640L517 654L521 670L523 689L524 710L521 733L530 735L545 691L550 671L552 650L552 631L549 611L543 593L533 575L521 559L506 545L481 541Z"/></svg>