<svg id="U2DD74" viewBox="0 0 1024 1024"><path transform="translate(0, 921.6) scale(1,-1)" d="M856 232L857 212L837 220L794 194L724 156L673 133L645 123L621 114L659 82L701 56L748 35L802 18L862 6L986-8L922-73L850-60L784-42L725-19L673 9L628 42L590 82L561 125L540 174L531 210L524 185L497 129L460 79L415 37L360 1L298-28L227-51L148-66L61-75L59-66L144-46L218-23L284 4L339 35L386 72L422 111L450 155L470 204L481 258L485 316L485 329L549 315L565 304L547 294L542 254L549 232L569 186L594 146L614 123L764 238L799 268L816 283L856 232ZM182 72L164 88L163 113L179 131L198 139L214 147L230 157L244 168L257 181L269 195L280 212L291 230L300 250L307 272L317 271L316 246L314 223L309 199L302 177L292 156L280 137L265 118L248 102L228 86L207 73L182 72ZM174 558L173 568L169 587L166 597L159 616L155 625L150 635L142 642L148 650L157 644L168 639L179 633L189 626L199 618L207 610L216 600L223 589L230 578L237 566L234 542L232 540L331 540L335 546L354 587L372 623L381 645L383 650L382 650L39 650L39 672L254 672L254 759L82 759L82 780L254 780L254 876L318 866L335 855L318 845L318 780L383 780L437 834L501 780L501 759L318 759L318 672L441 672L485 720L539 672L539 650L401 650L440 622L448 605L424 605L413 594L381 565L358 546L349 540L436 540L480 589L534 540L534 519L318 519L318 432L372 432L426 486L490 432L490 411L318 411L318 324L254 291L254 411L77 411L77 432L254 432L254 519L44 519L44 540L181 540L175 548L174 558ZM729 464L716 484L702 503L697 508L688 487L668 452L645 421L617 395L586 371L552 353L514 339L510 348L541 370L569 395L593 419L613 446L629 475L642 506L652 539L654 550L626 571L575 603L547 619L551 628L583 622L614 613L643 603L660 594L662 614L663 655L663 717L539 717L539 738L663 738L663 876L727 866L743 855L727 845L727 738L813 738L845 765L904 717L878 700L876 700L875 659L876 598L880 544L887 497L896 457L908 425L921 400L932 385L958 498L969 498L959 366L967 363L986 347L989 323L974 304L949 301L917 314L889 336L866 365L849 399L834 440L824 485L816 537L812 595L811 659L813 717L727 717L727 655L723 609L716 565L715 561L741 540L761 520L779 498L795 475L798 451L783 432L759 429L739 444L729 464Z"/></svg>