<svg id="U2DAAA" viewBox="0 0 1024 1024"><path transform="translate(0, 921.6) scale(1,-1)" d="M883-18L837 2L792 23L709 69L670 94L633 121L600 150L568 181L544 208L544-40L480-72L480 175L435 135L395 106L354 79L309 54L262 31L212 11L159-8L104-23L45-35L43-26L149 19L198 43L244 68L287 94L327 121L363 149L397 178L428 210L71 210L71 231L480 231L480 373L544 362L560 351L544 341L544 231L835 231L888 285L953 231L953 210L563 210L656 153L733 113L774 94L816 77L906 46L994 19L931-35L883-18ZM775 331L775 347L851 347L857 347L862 348L867 350L869 352L871 357L872 362L872 368L872 847L937 836L953 825L937 816L937 368L936 355L933 341L929 328L922 316L914 305L903 296L890 290L878 285L864 283L851 282L851 314L775 331ZM245 869L299 833L308 816L288 815L232 731L208 698L183 668L208 663L224 653L208 643L208 326L144 294L144 623L99 578L68 551L37 526L30 533L124 661L167 727L206 794L245 869ZM447 519L445 526L440 533L427 550L407 568L381 587L376 589L366 577L339 548L311 523L280 500L246 480L240 488L266 515L313 571L333 601L351 632L367 664L381 697L393 732L403 768L407 789L302 789L302 810L593 810L646 864L711 810L711 789L472 789L461 752L447 712L439 693L582 693L614 720L673 671L646 655L639 652L629 618L607 564L579 514L547 470L509 430L467 394L420 364L367 338L311 318L250 304L247 313L303 337L354 364L400 394L441 426L477 462L507 500L533 542L554 587L571 636L579 671L429 671L411 640L390 607L384 599L385 599L402 596L418 592L434 588L447 583L460 578L473 571L484 564L494 556L504 547L508 523L493 503L469 499L449 513L447 519ZM700 766L765 755L781 744L765 734L765 438L700 406L700 766Z"/></svg>