<svg id="U2DBE4" viewBox="0 0 1024 1024"><path transform="translate(0, 921.6) scale(1,-1)" d="M270-45L257-45L244-43L231-39L220-33L209-25L200-16L193-4L188 9L185 22L184 35L184 294L57 267L52 288L184 316L184 481L57 455L53 476L184 503L184 694L128 672L82 657L35 644L31 653L194 741L264 783L327 824L381 865L419 813L420 793L401 802L357 775L288 739L251 721L212 705L209 703L249 697L265 686L249 676L249 515L286 523L328 587L402 546L406 525L249 494L249 330L313 344L354 408L429 369L434 348L249 308L249 35L248 29L249 24L249 20L250 16L251 15L253 13L257 11L263 10L270 9L926 9L950 90L385 90L385 112L644 112L644 198L440 198L440 220L644 220L644 300L517 300L453 268L453 569L517 537L834 537L866 564L925 516L899 494L899 300L834 268L834 300L708 300L708 220L814 220L858 268L911 220L911 198L708 198L708 112L869 112L913 160L967 112L967 90L962 90L953 9L969-2L980-18L969-34L953-45L270-45ZM644 408L517 408L517 321L644 321L644 408ZM834 408L708 408L708 321L834 321L834 408ZM644 516L517 516L517 430L644 430L644 516ZM834 516L708 516L708 430L834 430L834 516ZM419 764L419 786L644 786L644 868L708 857L724 846L708 837L708 786L814 786L868 840L932 786L932 764L787 764L842 732L852 716L828 713L799 676L775 649L749 621L747 619L873 619L917 668L971 619L971 598L381 598L381 619L731 619L737 630L758 681L773 724L780 748L782 753L781 753L785 764L419 764ZM555 664L553 675L550 685L543 706L538 718L526 740L517 750L523 757L535 749L547 743L569 727L579 718L597 697L606 686L613 674L619 662L616 638L597 622L573 625L557 644L555 664Z"/></svg>