<svg id="U2DF0F" viewBox="0 0 1024 1024"><path transform="translate(0, 921.6) scale(1,-1)" d="M901-33L858-8L818 22L782 55L750 92L721 134L695 178L674 227L657 280L645 333L553 333L553 42L669 77L731 94L735 85L708 67L680 50L622 20L560-8L465-46L453-51L447-70L432-59L402 0L413 3L489 24L489 333L420 333L416 295L405 232L390 173L371 119L348 69L321 24L291-15L256-49L217-77L211-69L241-35L267 3L291 42L311 87L328 134L342 186L352 241L359 302L362 366L363 435L363 658L427 626L830 626L874 674L928 626L928 604L427 604L427 435L423 363L422 354L836 354L890 408L954 354L954 333L657 333L678 288L703 241L729 198L752 167L855 292L861 300L860 301L866 306L911 260L915 241L894 246L823 195L788 173L768 163L759 157L788 125L820 95L854 69L891 46L930 28L1009-1L947-54L901-33ZM32 278L43 283L73 292L89 298L124 312L200 348L200 412L200 772L265 740L534 740L534 874L598 863L614 853L598 843L598 740L856 740L910 793L974 740L974 718L265 718L265 412L261 345L254 281L243 221L228 166L209 115L187 68L160 26L130-11L96-44L58-70L52-62L81-29L107 6L130 45L150 86L166 131L180 180L189 232L196 288L198 322L163 290L130 263L98 241L87 235L82 212L66 223L32 278ZM108 508L105 525L101 541L96 557L91 573L78 602L70 616L61 630L51 641L57 649L86 631L101 620L114 608L127 594L138 578L148 562L158 544L166 525L174 505L170 481L150 466L125 470L111 490L108 508ZM827 544L892 490L892 468L480 468L480 490L773 490L827 544Z"/></svg>