<svg id="U2D3B5" viewBox="0 0 1024 1024"><path transform="translate(0, 921.6) scale(1,-1)" d="M50-36L50-15L480-15L480 141L120 141L120 163L480 163L480 287L544 276L560 265L544 255L544 163L786 163L840 217L904 163L904 141L544 141L544-15L856-15L910 39L974-15L974-36L50-36ZM101 296L101 312L176 312L182 313L188 313L191 314L194 316L195 319L196 323L197 327L198 334L198 501L114 470L101 466L95 446L80 459L51 517L198 555L198 713L62 713L62 734L198 734L198 870L262 859L278 848L262 839L262 734L284 734L337 788L402 734L402 713L262 713L262 571L299 581L366 596L400 602L403 592L342 561L310 547L262 527L262 334L261 320L259 306L254 294L248 282L239 271L228 262L216 255L203 251L190 248L176 248L176 280L101 296ZM436 851L501 819L871 819L903 846L963 797L936 776L936 663L871 631L871 674L501 674L501 573L497 527L492 484L483 444L471 406L456 371L438 340L417 312L394 288L367 267L338 252L332 260L354 283L373 307L389 333L402 360L414 389L423 421L430 455L435 491L436 531L436 851ZM910 320L940 433L951 433L940 320L958 309L969 291L958 273L940 261L660 261L646 263L634 268L622 274L611 282L602 292L595 305L591 317L588 331L587 345L587 634L652 623L668 612L652 603L652 484L829 546L881 566L906 576L909 568L958 526L959 510L937 519L927 516L900 508L872 501L815 488L753 476L722 471L689 467L655 464L652 464L652 338L652 333L653 330L654 327L655 326L656 325L661 322L666 321L673 320L910 320ZM871 797L501 797L501 696L871 696L871 797Z"/></svg>