<svg id="U2D5AA" viewBox="0 0 1024 1024"><path transform="translate(0, 921.6) scale(1,-1)" d="M698-34L688-42L677-48L654-60L643-63L630-67L618-69L605-70L593-71L593-39L485-23L485-6L593-6L609-5L624-2L631 1L644 7L651 11L657 16L664 22L668 27L674 38L681 55L682 57L241 57L223-13L152-28L207 181L55 181L55 202L213 202L255 365L300 326L727 326L759 353L818 304L792 288L788 287L786 259L779 211L778 202L871 202L915 251L969 202L969 181L775 181L766 127L759 91L755 78L813 78L867 132L931 78L931 57L749 57L742 34L732 11L722-9L708-26L698-34ZM519 94L510 103L500 112L475 128L460 136L444 144L408 159L387 164L388 174L410 173L431 174L451 173L471 170L489 167L507 162L524 157L540 150L555 142L570 133L580 111L572 88L552 78L689 78L696 106L703 139L709 177L710 181L273 181L247 78L547 78L527 85L519 94ZM531 217L523 225L514 233L503 241L491 249L478 256L463 264L428 278L409 283L410 293L430 292L450 293L470 292L488 290L505 287L522 283L537 278L552 273L567 266L580 257L590 235L583 212L563 202L713 202L716 219L722 267L726 304L306 304L279 202L557 202L537 209L531 217ZM50 383L50 405L480 405L480 478L173 478L173 499L480 499L480 573L136 573L136 594L480 594L480 680L544 669L560 658L544 648L544 594L791 594L835 642L888 594L888 573L544 573L544 499L753 499L797 548L851 499L851 478L544 478L544 405L877 405L921 453L974 405L974 383L50 383ZM211 687L211 671L146 639L146 833L211 822L227 811L211 802L211 709L480 709L480 880L544 869L560 858L544 848L544 709L808 709L808 833L872 822L888 811L872 802L872 676L808 644L808 687L211 687Z"/></svg>