<svg id="U2E5CF" viewBox="0 0 1024 1024"><path transform="translate(0, 921.6) scale(1,-1)" d="M738 246L286 246L286 169L738 169L738 246ZM738 334L286 334L286 267L738 267L738 334ZM738 427L286 427L286 355L738 355L738 427ZM907 531L931 600L942 600L931 531L946 521L956 506L946 492L931 482L660 482L647 484L635 487L623 492L613 500L604 510L596 521L592 533L588 547L587 560L587 657L413 657L453 634L464 618L443 615L436 603L414 575L387 550L356 527L321 507L282 489L238 474L236 473L286 448L738 448L770 475L829 427L802 405L802 116L738 83L738 148L630 148L630 29L631 24L633 19L634 18L635 18L637 17L640 16L645 15L921 15L953 149L964 149L953 15L972 2L985-18L972-37L953-50L652-50L638-49L624-47L611-42L599-36L588-27L580-16L573-4L568 9L566 22L566 36L566 148L437 148L455 140L467 125L446 119L439 104L417 73L388 44L354 19L315-3L271-22L221-38L166-52L106-62L39-69L38-60L159-24L210-5L255 15L293 37L325 60L351 83L371 108L385 133L390 148L286 148L286 83L222 51L222 469L191 461L139 451L82 443L81 453L134 470L182 489L226 507L265 526L298 547L327 568L351 590L370 612L384 635L393 657L151 657L151 647L150 628L145 610L139 593L130 577L118 562L104 549L88 538L63 538L45 555L45 580L62 597L73 600L82 605L92 610L100 618L109 627L116 639L123 653L129 670L135 689L136 709L146 710L148 688L149 678L523 678L593 747L617 773L354 773L334 757L288 728L264 714L208 689L203 697L268 755L304 791L334 824L345 840L356 855L366 874L417 833L424 816L402 817L388 802L379 794L635 794L645 806L648 804L668 821L727 773L700 756L661 740L635 724L582 694L550 678L888 678L892 681L896 689L898 687L921 705L980 657L953 641L915 625L891 609L848 583L832 575L816 564L810 571L823 585L834 600L864 639L877 657L607 657L652 649L668 639L652 629L652 560L651 554L651 548L652 545L652 542L653 540L654 538L656 536L660 534L666 532L673 531L907 531Z"/></svg>