<svg id="U2E782" viewBox="0 0 1024 1024"><path transform="translate(0, 921.6) scale(1,-1)" d="M792-51L674-49L577-42L496-32L430-17L377 4L335 29L302 59L277 93L266 115L236 84L159 15L100-33L101-54L83-47L37 0L46 6L196 94L211 102L211 428L50 428L50 449L211 449L243 476L302 428L275 406L275 127L295 107L324 82L356 62L394 45L443 32L503 23L580 17L675 15L791 17L990 25L932-48L792-51ZM495 239L460 212L439 191L432 180L444 174L473 167L517 162L573 160L885 160L917 295L928 295L917 160L937 147L950 128L937 109L917 96L573 96L513 98L463 103L423 113L391 130L368 162L371 200L389 232L417 261L457 292L508 325L725 460L369 460L369 482L581 482L581 866L646 855L662 844L646 834L646 699L803 699L857 753L922 699L922 678L646 678L646 482L771 482L803 509L863 460L836 444L788 424L542 270L495 239ZM239 635L222 669L199 701L171 733L138 766L100 798L105 806L152 787L174 776L215 749L251 720L267 703L281 686L295 668L298 644L284 624L259 621L239 635Z"/></svg>