<svg id="U2E6A8" viewBox="0 0 1024 1024"><path transform="translate(0, 921.6) scale(1,-1)" d="M451 70L504 33L513 16L489 15L472-2L460-12L432-32L401-51L384-59L366-69L361-61L375-48L398-20L417 6L433 31L444 54L446 60L448 65L451 70ZM82 441L147 409L273 409L303 435L359 387L332 368L332 9L331-4L330-17L326-29L321-40L313-51L303-60L293-67L281-72L268-74L256-75L256-45L173-30L173-16L256-16L261-15L264-15L266-13L268-13L270-11L271-8L272-4L273 2L273 9L273 139L147 139L147 133L144 101L139 72L134 45L125 20L116-2L104-22L91-38L75-52L59-62L42-69L37-61L48-48L57-35L65-20L71-4L75 13L79 33L82 55L84 78L84 104L82 133L82 441ZM907 9L939 143L950 143L939 9L959-4L972-24L959-43L939-56L799-56L785-55L772-53L759-48L747-42L736-33L727-22L721-10L716 3L714 16L713 30L713 432L778 421L794 410L778 401L778 30L778 24L779 19L780 16L781 13L782 12L785 11L788 10L793 9L799 9L907 9ZM596-20L594-13L591-6L587 2L577 18L555 46L544 53L549 61L561 55L574 52L576 51L576 80L449 80L390 50L390 434L449 405L576 405L608 432L667 383L640 362L640 80L581 50L586 48L608 39L618 33L628 27L637 20L645 12L653 4L656-20L640-39L616-42L596-27L596-20ZM576 185L449 185L449 101L576 101L576 185ZM273 266L147 266L147 160L273 160L273 266ZM576 284L449 284L449 207L576 207L576 284ZM273 387L147 387L147 288L273 288L273 387ZM576 383L449 383L449 306L576 306L576 383ZM248 475L183 443L183 643L248 611L776 611L809 638L868 589L841 568L841 464L776 432L776 475L248 475ZM381 589L248 589L248 497L381 497L381 589ZM579 589L445 589L445 497L579 497L579 589ZM776 589L643 589L643 497L776 497L776 589ZM179 774L179 742L177 730L177 723L178 720L179 717L181 714L186 711L192 709L200 707L899 707L910 699L918 688L910 677L899 669L200 669L187 669L175 670L164 672L152 677L142 684L132 693L125 704L120 716L116 728L114 742L114 828L179 796L480 796L480 873L544 862L560 851L544 841L544 796L835 796L888 849L953 796L953 774L179 774Z"/></svg>