<svg id="U2E206" viewBox="0 0 1024 1024"><path transform="translate(0, 921.6) scale(1,-1)" d="M351 360L346 379L344 386L311 371L282 361L270 357L270-35L205-67L205 337L162 326L131 319L99 312L90 311L80 291L67 306L49 369L59 370L91 373L136 377L274 626L333 738L332 738L338 747L392 711L400 694L381 693L321 598L245 489L191 418L162 384L158 380L214 387L304 399L339 403L336 416L322 451L305 484L296 501L285 517L291 524L324 500L339 487L353 471L366 455L378 437L389 418L399 398L408 377L416 356L413 332L393 317L369 320L354 340L351 360ZM347 113L344 135L339 155L334 175L322 213L307 248L298 266L288 282L295 289L327 263L341 248L354 231L367 213L378 194L398 151L405 131L439 178L474 234L508 294L538 358L566 426L590 499L613 576L619 605L398 605L398 627L624 627L632 658L649 745L663 837L663 836L664 847L727 827L740 813L723 806L709 733L688 645L683 627L867 627L921 681L986 627L986 605L677 605L665 561L638 483L608 409L595 382L622 369L847 369L880 396L939 347L912 326L912-13L847-45L847 9L622 9L622-29L557-61L557 309L538 276L499 218L456 165L409 119L414 104L409 80L389 66L365 71L351 91L347 113ZM113 273L175 254L190 242L171 233L163 195L145 138L134 109L122 82L108 55L74 3L55-22L46-17L75 69L84 96L91 124L102 178L106 206L109 233L111 261L113 273ZM847 347L622 347L622 30L847 30L847 347ZM142 555L137 571L130 588L122 603L104 634L81 663L67 678L52 692L57 700L96 682L114 671L130 659L133 656L204 820L224 869L280 835L289 818L269 816L242 773L200 713L185 694L144 647L160 631L174 615L186 598L198 580L208 561L206 536L188 519L164 520L147 539L142 555Z"/></svg>