<svg id="U2E732" viewBox="0 0 1024 1024"><path transform="translate(0, 921.6) scale(1,-1)" d="M242-24L242-8L339-8L345-7L351-6L353-5L356-4L357-3L357-2L358-1L359 3L360 8L360 14L360 197L301 137L253 95L205 54L156 17L104-18L51-49L45-41L137 39L225 124L268 169L328 239L140 179L89 163L81 143L67 156L41 216L52 219L127 232L127 740L191 707L203 707L209 719L252 804L265 833L274 854L273 854L279 864L332 827L341 810L318 809L278 764L252 738L221 710L219 707L360 707L393 734L452 686L425 664L425 365L464 424L515 384L522 366L502 367L474 330L433 278L425 269L425 14L424 1L422-13L417-26L411-38L402-49L391-58L379-65L366-69L353-71L339-72L339-40L242-24ZM641 216L697 183L708 167L688 164L666 125L649 98L610 45L589 19L543-28L517-50L490-70L484-63L539 17L572 70L602 125L615 153L636 204L641 216ZM906-43L884 12L859 63L845 88L816 133L768 199L775 206L799 192L822 175L843 156L863 136L901 90L935 39L966-18L965-42L949-60L924-60L906-43ZM360 390L191 390L191 243L303 261L346 266L351 267L360 279L360 390ZM478 254L478 276L611 276L611 586L496 586L496 607L611 607L611 853L676 842L692 832L676 822L676 607L789 607L789 853L853 842L870 832L853 822L853 607L871 607L915 656L969 607L969 586L853 586L853 276L868 276L922 330L987 276L987 254L478 254ZM789 586L676 586L676 276L789 276L789 586ZM360 546L191 546L191 412L360 412L360 546ZM360 686L191 686L191 568L360 568L360 686Z"/></svg>