<svg id="U2E63A" viewBox="0 0 1024 1024"><path transform="translate(0, 921.6) scale(1,-1)" d="M77 258L142 225L302 225L335 252L394 204L367 182L367-26L302-58L302-4L142-4L142-42L77-74L77 258ZM599 104L643 58L647 39L627 44L605 26L584 11L538-16L488-41L461-53L432-62L402-71L398-62L493 5L532 38L567 70L593 99L599 104ZM912-58L902-42L877-12L863 2L847 17L813 45L773 74L751 88L754 97L780 90L805 83L829 74L851 63L873 52L893 40L912 27L947-2L963-18L969-41L957-63L933-69L912-58ZM302 204L142 204L142 17L302 17L302 204ZM536 143L536 105L471 73L471 476L536 444L657 444L657 530L390 530L390 552L912 552L945 589L988 552L988 530L722 530L722 444L843 444L875 471L934 423L907 401L907 143L843 111L843 143L536 143ZM657 283L536 283L536 165L657 165L657 283ZM843 283L722 283L722 165L843 165L843 283ZM657 423L536 423L536 304L657 304L657 423ZM843 423L722 423L722 304L843 304L843 423ZM300 416L365 362L365 341L80 341L80 362L246 362L300 416ZM300 559L365 505L365 484L80 484L80 505L246 505L300 559ZM750 874L814 863L830 853L814 843L814 761L832 761L886 815L951 761L951 740L814 740L814 616L750 584L750 616L629 616L564 584L564 740L428 740L428 761L564 761L564 874L629 863L645 853L629 843L629 761L750 761L750 874ZM356 707L409 659L409 637L59 637L59 659L312 659L356 707ZM750 740L629 740L629 638L750 638L750 740ZM300 855L365 801L365 780L80 780L80 801L246 801L300 855Z"/></svg>