<svg id="U2E5E3" viewBox="0 0 1024 1024"><path transform="translate(0, 921.6) scale(1,-1)" d="M187 229L265 229L265 406L189 406L189 267L187 229ZM908-13L901-24L893-35L884-45L874-53L863-60L850-66L837-69L824-71L810-72L810-40L724-24L724-8L810-8L818-7L824-6L833-3L840 2L844 6L847 10L850 16L852 22L859 46L866 80L872 124L878 177L882 239L886 309L889 389L891 477L893 575L893 670L612 670L601 623L587 572L572 523L554 475L536 428L514 383L491 340L482 344L521 485L532 533L552 633L561 685L568 737L574 791L579 846L580 857L643 839L658 826L640 818L635 783L625 728L617 691L893 691L925 718L985 670L958 654L957 574L956 476L953 387L951 306L947 234L942 171L936 116L930 70L922 31L913 0L908-13ZM780 172L778 199L776 213L720 185L580 123L574 102L559 114L529 173L539 176L581 185L593 189L615 309L649 492L667 600L728 578L742 564L724 558L693 433L655 299L628 217L619 196L738 226L770 233L773 233L765 281L752 336L731 421L740 425L757 401L772 375L786 348L797 321L818 266L827 238L835 210L841 181L846 152L839 128L818 117L794 124L782 145L780 172ZM404 406L329 406L329 229L404 229L404 406ZM265 600L189 600L189 428L265 428L265 600ZM404 600L329 600L329 428L404 428L404 600ZM336 761L236 761L196 684L174 647L165 634L189 621L276 621L282 631L306 683L321 717L332 750L336 761ZM468 1L466-13L461-26L454-38L446-49L435-58L423-65L410-69L396-71L383-72L383-40L275-24L275-8L383-8L389-7L394-6L399-4L401-2L403 3L404 8L404 14L404 208L186 208L182 175L176 133L168 94L158 57L145 23L131-8L115-35L96-60L75-80L67-74L79-49L89-23L99 6L107 36L113 68L118 103L122 140L125 180L125 222L125 267L125 574L100 542L72 510L43 479L35 485L96 595L125 651L125 654L126 653L151 707L183 784L209 859L214 872L272 842L283 827L264 823L246 783L340 783L372 810L431 761L404 745L391 739L384 726L350 678L323 648L309 634L294 621L404 621L437 648L496 600L469 578L469 14L468 1Z"/></svg>