<svg id="U2E075" viewBox="0 0 1024 1024"><path transform="translate(0, 921.6) scale(1,-1)" d="M402 645L466 591L466 570L272 570L272-46L213-75L213 570L43 570L43 591L348 591L402 645ZM431-52L431-31L649-31L649 192L506 192L506 213L649 213L649 424L538 424L538 446L713 446L766 499L831 446L831 424L714 424L714 213L745 213L799 267L863 213L863 192L714 192L714-31L816-31L870 23L935-31L935-52L431-52ZM91 483L150 472L165 461L150 452L150 298L148 253L144 211L138 173L131 138L121 105L110 77L97 52L82 30L65 13L45 2L40 8L50 26L60 45L68 66L75 89L81 116L86 146L89 179L91 216L92 255L91 298L91 483ZM898 421L871 451L844 482L820 518L796 556L773 597L752 641L732 689L714 739L707 763L673 687L647 638L618 591L588 546L555 502L520 460L482 420L442 383L406 355L406 108L342 76L342 483L406 472L422 461L406 452L406 373L460 440L492 482L522 526L550 571L575 617L599 663L621 711L640 761L650 790L554 790L554 811L656 811L690 849L733 811L733 790L718 790L715 783L760 702L811 620L837 583L864 551L889 521L916 495L943 472L985 440L926 396L898 421ZM348 840L413 787L413 765L92 765L92 787L294 787L348 840Z"/></svg>