<svg id="U2E4EC" viewBox="0 0 1024 1024"><path transform="translate(0, 921.6) scale(1,-1)" d="M160 3L171 4L204 6L273 13L309 17L345 21L353 22L395 105L407 133L415 158L418 164L420 163L420 181L263 181L199 148L199 358L263 326L420 326L452 353L511 304L484 283L484 181L433 155L473 130L484 113L460 111L445 92L422 66L395 38L381 24L422 30L502 38L543 40L545 31L506 17L428-5L317-33L246-47L201-56L192-75L179-60L160 3ZM826-21L817-30L796-46L785-52L773-56L761-61L748-63L735-65L722-66L722-33L615-17L615-1L722-1L730-1L744 2L751 4L757 6L763 10L768 13L773 18L779 23L783 29L787 35L793 47L799 64L804 86L810 113L816 144L822 180L828 219L834 264L838 298L647 298L629 228L558 213L635 504L563 504L563 526L780 526L834 580L899 526L899 504L702 504L653 320L839 320L871 347L930 298L903 282L901 281L898 256L892 211L886 170L880 133L874 100L867 71L860 46L853 24L845 5L835-11L826-21ZM249 53L249 61L248 69L246 78L243 88L238 98L233 109L218 132L207 141L213 149L225 141L239 135L264 120L274 111L284 102L293 92L300 81L307 69L311 57L306 33L285 20L261 26L248 47L249 53ZM420 304L263 304L263 202L420 202L420 304ZM465 449L518 401L518 380L170 380L170 401L421 401L465 449ZM313 457L300 459L288 462L277 468L266 475L257 485L250 497L245 509L242 522L240 535L240 556L156 542L156 342L153 287L149 235L142 186L134 140L124 98L111 59L97 24L80-8L61-35L40-59L32-53L44-25L55 4L64 36L72 70L79 108L85 148L88 192L91 239L92 289L91 342L91 734L156 702L256 702L256 874L320 863L336 853L320 843L320 799L396 799L429 837L472 799L472 777L320 777L320 702L471 702L503 729L563 681L536 664L519 658L485 606L468 584L461 571L452 575L456 589L461 630L465 655L467 668L469 681L272 681L304 675L321 664L304 655L304 588L323 591L367 653L440 611L443 590L304 567L304 535L304 529L304 524L304 520L305 517L306 516L307 513L309 511L313 509L318 507L326 506L464 506L488 576L499 576L488 506L495 501L537 571L565 629L577 659L587 689L597 720L605 751L614 793L674 769L688 754L668 748L651 701L638 669L622 638L605 608L586 579L566 552L544 526L520 502L506 490L512 482L502 467L488 457L313 457ZM913 527L893 552L875 578L859 607L845 637L833 669L823 702L815 738L810 774L809 809L663 809L663 830L754 830L787 868L830 830L830 809L820 809L845 746L859 715L874 687L889 660L906 635L923 613L941 593L960 575L993 548L935 504L913 527ZM240 681L156 681L156 564L240 578L240 681Z"/></svg>