<svg id="U2E9DE" viewBox="0 0 1024 1024"><path transform="translate(0, 921.6) scale(1,-1)" d="M748-29L748-13L813-13L820-12L824-11L829-10L830-9L831-8L832-6L833-3L834 2L834 175L579 175L579-45L515-77L515 439L579 406L834 406L866 433L925 385L899 363L899 9L898-5L895-18L891-31L885-44L876-54L865-63L853-70L840-74L826-76L813-77L813-45L748-29ZM303 868L367 857L384 847L367 837L367 738L386 738L410 770L442 738L442 716L367 716L367 575L303 543L303 597L280 597L280 474L354 474L387 501L446 453L419 431L419 258L354 226L354 280L280 280L280 168L329 168L382 221L447 168L447 146L280 146L280-44L215-76L215 146L43 146L43 168L215 168L215 280L145 280L145 242L81 210L81 506L145 474L215 474L215 597L187 597L187 559L123 527L123 716L53 716L53 738L123 738L123 868L187 857L203 847L187 837L187 738L303 738L303 868ZM672 385L579 385L579 197L672 197L672 385ZM834 385L736 385L736 197L834 197L834 385ZM215 453L145 453L145 301L215 301L215 453ZM354 453L280 453L280 301L354 301L354 453ZM434 492L434 514L672 514L672 611L493 611L493 632L672 632L672 729L468 729L468 750L672 750L672 863L736 853L752 842L736 832L736 750L832 750L886 804L950 750L950 729L736 729L736 632L823 632L867 681L921 632L921 611L736 611L736 514L887 514L931 562L985 514L985 492L434 492ZM303 716L187 716L187 618L303 618L303 716Z"/></svg>