<svg id="U2E404" viewBox="0 0 1024 1024"><path transform="translate(0, 921.6) scale(1,-1)" d="M86-20L86-4L161-4L168-4L173-3L176-2L178-1L179 0L180 1L181 3L182 6L182 11L183 17L183 230L106 196L94 191L89 170L74 182L41 239L183 285L183 480L54 480L54 502L183 502L183 663L248 653L264 642L248 632L248 502L262 502L316 555L380 502L380 480L248 480L248 306L313 327L345 336L352 338L466 578L325 578L325 600L474 600L506 627L565 578L538 562L524 556L435 362L506 362L538 389L555 375L708 375L708 546L680 544L644 540L605 538L566 538L564 547L708 588L773 605L860 631L886 640L888 633L942 588L943 572L920 582L903 578L875 572L815 561L773 555L773 375L840 375L894 428L959 375L959 353L773 353L773 111L819 111L873 165L937 111L937 90L554 90L554 111L708 111L708 353L582 353L597 340L571 324L566 322L560 282L545 221L526 166L502 115L483 84L496 74L546 49L604 30L671 16L746 9L831 8L924 13L983 17L929-58L831-60L742-54L661-42L588-23L525 3L471 37L457 50L440 29L403-5L363-33L317-55L268-69L265-60L308-37L346-9L380 22L410 56L426 80L393 126L370 180L359 239L368 241L391 188L420 143L446 115L457 137L475 184L489 236L500 292L505 340L425 340L419 328L369 327L324 301L263 269L248 261L248 17L247 4L244-10L240-23L234-35L224-46L214-55L202-61L188-66L175-68L161-69L161-37L86-20ZM630 875L695 864L711 854L695 844L695 764L861 764L915 818L980 764L980 742L695 742L695 657L630 625L630 742L394 742L394 657L329 625L329 742L44 742L44 764L329 764L329 875L394 864L410 854L394 844L394 764L630 764L630 875Z"/></svg>