<svg id="U2EA28" viewBox="0 0 1024 1024"><path transform="translate(0, 921.6) scale(1,-1)" d="M488 854L542 827L838 827L870 854L929 805L902 789L900 615L901 449L907 315L914 209L924 128L935 70L936 68L952 141L963 141L953 17L956 11L961 5L978-7L984-31L971-52L947-58L922-46L902-23L886 9L872 55L860 118L850 203L842 311L837 448L836 483L826 476L826 290L767 261L767 290L719 290L719 101L770 112L778 113L763 161L747 205L739 227L747 233L779 196L793 176L818 134L829 112L849 67L866 20L861-4L842-19L818-15L803 5L799 27L795 50L789 73L783 95L783 96L721 66L669 43L599 15L578 8L571-13L557 0L530 60L540 62L561 66L606 75L665 89L665 290L612 290L612 226L564 202L564 541L612 517L665 517L665 633L649 630L622 627L593 625L563 623L561 633L589 642L641 662L686 681L706 691L741 710L756 720L769 730L785 705L809 679L810 661L790 669L766 659L745 652L723 645L719 644L719 517L767 517L797 544L836 510L835 615L837 805L542 805L542 451L539 374L534 303L527 237L517 175L506 120L491 70L474 25L454-13L432-46L407-73L401-67L417-37L433-3L446 35L458 79L468 128L477 182L482 241L486 305L488 375L488 451L488 854ZM283 84L283 100L337 100L344 101L349 102L353 103L354 104L355 105L356 107L357 110L358 115L358 331L256 331L256-40L191-72L191 331L71 331L71 353L358 353L391 380L450 331L423 310L423 121L422 108L420 95L416 82L409 69L400 59L389 50L377 43L364 39L351 37L337 35L337 68L283 84ZM665 495L612 495L612 312L665 312L665 495ZM767 495L719 495L719 312L767 312L767 495ZM401 567L380 581L341 647L313 689L256 765L229 700L208 657L186 617L162 578L136 541L109 507L80 475L49 447L42 453L107 561L145 638L163 678L179 720L208 810L220 852L223 866L283 839L295 824L276 819L266 791L264 784L288 768L328 736L365 699L401 659L435 615L439 591L425 570L401 567ZM331 541L396 487L396 466L122 466L122 487L278 487L331 541Z"/></svg>