<svg id="U2E390" viewBox="0 0 1024 1024"><path transform="translate(0, 921.6) scale(1,-1)" d="M897 304L867 330L839 360L813 391L789 426L767 464L747 504L729 548L717 584L702 549L677 503L651 459L622 419L590 381L557 346L531 323L595 291L816 291L849 318L908 270L881 248L881-28L816-61L816-7L595-7L595-45L530-77L530 323L484 287L443 264L438 271L471 303L531 370L559 406L584 445L608 485L629 528L649 573L666 620L682 671L685 679L744 651L756 636L736 632L729 613L781 523L805 488L830 456L855 427L881 401L909 378L937 359L990 328L930 281L897 304ZM244-25L244-10L327-10L332-10L335-9L337-8L339-8L339-6L341-5L342-3L343 1L344 7L344 395L322 390L237 373L193 365L188 364L187 338L184 274L177 213L167 158L156 106L142 59L125 17L106-21L83-54L58-80L50-74L66-42L80-9L92 29L102 70L111 116L118 166L123 219L125 277L127 340L126 354L79 346L70 328L58 343L40 406L125 413L125 756L189 724L206 724L210 731L221 762L231 792L235 807L245 849L247 863L250 871L309 843L321 828L298 823L286 801L267 774L246 748L222 724L344 724L373 750L430 702L403 683L403 439L440 441L481 444L482 434L444 421L404 410L403 410L403 14L402 1L401-11L397-24L392-35L384-46L374-54L364-61L351-66L339-68L327-69L327-40L244-25ZM816 270L595 270L595 15L816 15L816 270ZM226 337L285 326L300 315L285 306L285 115L226 85L226 337ZM344 702L189 702L189 419L230 423L273 427L316 431L344 433L344 702ZM250 515L249 535L246 554L243 571L239 588L235 604L229 620L216 650L207 663L214 670L242 649L255 636L267 621L278 605L287 587L296 568L303 547L310 525L315 502L308 478L287 466L263 473L251 494L250 515ZM604 833L661 802L672 785L652 782L631 744L614 716L595 689L554 640L509 596L484 576L457 559L451 566L506 640L538 690L567 742L591 798L600 821L604 833ZM889 611L868 656L844 698L817 739L772 798L756 817L762 825L785 812L807 798L847 766L866 747L901 707L932 664L947 641L949 616L933 597L908 596L889 611Z"/></svg>