<svg id="U2E51E" viewBox="0 0 1024 1024"><path transform="translate(0, 921.6) scale(1,-1)" d="M874-47L862-31L848-15L831 2L815 15L767 6L697-4L554-22L480-30L404-37L328-44L249-49L170-55L110-58L100-76L88-60L75 4L86 4L167 6L324 10L480 16L480 132L249 132L249 116L184 83L184 309L249 277L480 277L480 349L544 338L560 327L544 318L544 277L775 277L808 304L867 255L840 234L840 132L775 99L775 132L544 132L544 18L623 22L765 27L800 28L768 50L687 100L690 109L724 102L756 92L785 81L813 69L838 56L861 41L883 26L904 9L922-9L938-27L943-52L929-72L905-77L885-63L874-47ZM480 255L249 255L249 153L480 153L480 255ZM775 255L544 255L544 153L775 153L775 255ZM624 754L893 754L903 768L906 765L925 781L984 733L957 717L898 692L871 676L843 660L830 650L823 657L835 670L843 683L878 733L756 733L756 434L755 421L753 408L749 395L742 382L733 371L722 362L710 356L697 352L683 349L670 348L670 381L563 397L563 413L670 413L677 413L681 414L685 415L686 416L688 418L690 423L691 428L692 434L692 733L607 733L573 696L552 677L529 659L504 643L479 630L473 637L527 701L558 746L572 769L586 793L598 818L609 843L618 865L617 866L622 877L679 845L689 829L669 826L649 790L631 764L624 754ZM243 547L240 554L236 561L230 568L222 576L212 584L187 601L172 610L170 611L158 600L128 578L95 559L60 542L55 551L110 601L134 626L175 679L192 707L207 735L220 765L230 796L233 809L58 809L58 830L373 830L427 884L492 830L492 809L300 809L288 775L272 742L258 717L387 717L419 744L478 695L451 679L444 676L435 647L414 599L388 555L356 514L318 477L277 445L229 417L178 393L121 374L59 359L57 368L114 392L165 419L211 447L252 478L287 511L317 546L342 583L362 624L377 667L383 695L245 695L234 680L211 652L186 625L182 622L194 621L210 618L226 615L241 611L254 606L267 600L279 592L291 584L300 573L302 549L288 530L263 527L244 541L243 547ZM575 630L633 600L645 584L624 580L611 559L598 540L566 504L547 487L528 470L506 454L458 426L452 434L489 474L519 513L532 531L543 550L553 568L561 586L567 604L575 630ZM899 466L892 483L883 499L874 516L853 549L828 582L814 598L797 614L803 623L844 600L863 588L880 575L897 560L926 528L940 512L952 494L963 475L964 451L947 433L922 432L904 449L899 466Z"/></svg>