<svg id="U2E61D" viewBox="0 0 1024 1024"><path transform="translate(0, 921.6) scale(1,-1)" d="M200 137L265 104L759 104L792 131L851 83L824 61L824-35L759-67L759-24L265-24L265-40L200-73L200 137ZM759 83L265 83L265-3L759-3L759 83ZM765 222L808 184L808 163L216 163L216 184L731 184L765 222ZM765 308L808 270L808 249L216 249L216 270L731 270L765 308ZM931 410L985 361L985 340L39 340L39 361L887 361L931 410ZM781 484L835 436L835 414L189 414L189 436L737 436L781 484ZM419 510L391 532L330 573L310 585L282 560L243 530L199 503L150 478L96 456L39 438L35 447L88 475L136 503L180 533L218 563L252 594L267 610L159 663L83 697L86 706L128 699L168 690L208 679L247 666L285 652L296 647L305 659L324 693L339 728L349 761L351 766L42 766L42 788L236 788L236 876L300 866L316 855L300 845L300 788L385 788L439 841L503 788L503 766L370 766L413 748L425 733L405 727L396 705L375 665L349 627L346 625L391 602L457 562L470 541L464 517L443 504L419 510ZM872 469L820 489L773 513L730 541L721 548L692 530L639 507L583 489L522 475L456 467L454 476L517 495L574 516L625 539L671 566L687 577L660 605L633 642L613 682L597 725L590 765L520 765L520 787L698 787L698 877L763 866L779 855L763 846L763 787L844 787L898 840L963 787L963 765L894 765L874 716L849 670L817 628L780 590L770 582L800 566L844 548L892 533L991 509L928 451L872 469ZM602 765L618 733L640 697L665 666L693 637L725 610L726 609L745 627L775 661L799 699L818 740L826 765L602 765Z"/></svg>