<svg id="U2E51D" viewBox="0 0 1024 1024"><path transform="translate(0, 921.6) scale(1,-1)" d="M804 717L863 690L875 675L854 670L831 623L798 563L763 508L870 508L924 562L988 508L988 487L722 487L722 326L843 326L896 380L961 326L961 304L722 304L722 148L791 148L845 202L909 148L909 127L722 127L722-40L657-72L657 127L472 127L472 148L657 148L657 304L428 304L428 326L657 326L657 487L403 487L403 508L657 508L722 509L749 508L786 640L795 677L799 694L800 704L801 708L804 717ZM349 66L347 88L344 109L341 130L340 133L302 105L248 69L191 38L131 8L89-10L84-31L68-19L37 37L139 72L196 93L196 337L130 337L130 272L66 240L66 686L130 654L196 654L196 869L261 858L277 847L261 838L261 654L328 654L360 681L419 632L392 611L392 337L328 304L328 337L261 337L261 119L336 148L329 173L321 194L303 238L292 260L299 266L317 248L335 230L350 210L364 189L376 168L387 145L396 122L403 98L409 74L414 48L405 25L384 15L360 23L349 44L349 66ZM196 632L130 632L130 358L196 358L196 632ZM328 632L261 632L261 358L328 358L328 632ZM577 567L575 583L572 599L569 616L561 647L545 694L537 708L545 714L570 690L582 677L593 663L613 632L621 616L629 598L636 581L642 562L637 538L616 524L593 529L579 549L577 567ZM442 731L442 753L664 753L664 875L728 864L744 854L728 844L728 753L832 753L886 806L951 753L951 731L442 731Z"/></svg>