<svg id="U2EB88" viewBox="0 0 1024 1024"><path transform="translate(0, 921.6) scale(1,-1)" d="M872-19L834 1L797 22L763 45L730 69L699 96L670 123L642 152L618 183L610 194L610-44L546-76L546 166L518 137L484 106L446 78L406 53L361 29L315 8L264-12L211-28L154-41L151-32L204-9L299 39L342 65L380 91L416 118L448 147L477 177L501 208L504 212L208 212L208 233L546 233L546 342L549 341L563 352L574 366L585 378L593 392L599 406L604 420L607 434L609 449L609 466L609 482L609 562L663 552L676 541L663 532L663 482L659 461L655 441L648 422L639 404L629 389L616 374L602 362L586 351L569 342L563 339L610 331L627 320L610 311L610 233L816 233L870 287L934 233L934 212L616 212L695 153L758 111L792 92L862 58L973 14L911-38L872-19ZM114 783L179 750L512 750L512 874L577 863L593 853L577 843L577 750L840 750L894 804L958 750L958 729L179 729L179 315L175 256L171 202L163 151L152 105L140 64L124 27L106-4L86-31L62-51L36-65L31-57L48-37L63-13L75 13L87 43L96 77L103 116L109 159L113 206L115 259L114 315L114 783ZM351 691L404 681L418 670L404 661L404 605L437 605L490 659L555 605L555 584L404 584L404 355L351 328L351 584L200 584L200 605L351 605L351 691ZM695 691L738 681L749 670L738 662L738 605L824 605L878 659L942 605L942 584L738 584L738 353L695 331L695 584L571 584L571 605L695 605L695 691ZM246 562L305 552L320 541L305 532L305 482L302 461L297 441L291 422L283 405L273 389L261 374L249 362L234 351L202 333L198 340L210 352L220 366L228 379L235 392L240 406L243 420L246 434L247 449L247 466L246 482L246 562ZM851 358L837 360L823 362L811 367L799 374L789 383L781 394L775 406L772 418L770 431L770 557L824 546L837 535L824 526L824 444L824 437L826 432L828 428L829 426L831 425L835 424L839 423L844 423L878 423L910 557L921 557L910 423L929 410L942 390L929 371L910 358L851 358ZM450 557L509 546L524 535L509 526L509 395L450 365L450 557Z"/></svg>