<svg id="U2E107" viewBox="0 0 1024 1024"><path transform="translate(0, 921.6) scale(1,-1)" d="M900-8L872 11L845 32L819 55L794 81L769 109L745 139L722 171L701 206L684 240L680 240L680-48L615-81L615 209L579 165L548 133L515 102L480 74L443 47L403 22L361-2L317-23L271-41L267-32L346 23L384 51L451 108L481 138L509 169L558 234L561 240L358 240L358 262L615 262L615 390L381 390L381 411L615 411L615 534L680 523L696 512L680 503L680 411L813 411L867 465L931 411L931 390L680 390L680 262L854 262L908 316L973 262L973 240L699 240L747 191L801 140L828 118L854 98L880 80L906 65L932 52L989 26L928-24L900-8ZM206-63L182-70L161-58L154-34L157-13L158 6L156 23L152 39L145 54L135 68L122 82L105 95L84 107L59 117L60 126L89 123L115 117L139 108L150 101L250 233L314 311L352 355L360 349L239 144L210 93L201 74L195 60L195 59L206 39L214 14L218-13L218-41L206-63ZM164 280L159 286L152 294L143 301L120 317L71 343L50 349L52 359L74 356L94 355L114 353L131 350L148 346L164 342L178 337L191 331L203 324L215 316L222 292L211 270L188 263L166 274L164 280ZM238 438L233 445L217 461L206 469L180 485L165 494L149 502L130 509L132 518L152 516L171 514L189 512L207 509L222 505L238 501L252 496L278 484L289 476L297 453L288 430L265 421L242 431L238 438ZM899 614L922 711L919 710L892 690L849 662L832 652L816 640L810 647L823 662L871 731L878 740L652 740L652 630L653 625L654 621L654 619L656 618L657 618L658 617L661 616L666 615L673 614L899 614ZM64 614L45 631L45 655L61 673L72 677L81 682L91 688L100 696L108 707L116 720L123 735L129 753L134 773L136 796L146 796L150 762L480 762L480 872L544 861L560 850L544 841L544 762L888 762L892 765L895 771L898 770L921 789L980 740L953 724L940 719L931 614L951 602L964 582L951 563L931 550L673 550L659 551L646 553L633 557L621 564L610 573L601 584L594 596L590 609L588 622L587 636L587 740L400 740L443 718L454 702L432 698L425 685L403 655L375 628L343 604L306 583L265 566L220 551L170 538L115 529L56 523L54 532L110 549L161 566L208 584L248 603L284 623L314 645L338 668L358 691L373 716L383 740L152 740L152 730L150 710L146 690L139 673L130 655L119 640L105 626L88 615L64 614Z"/></svg>