<svg id="U2E896" viewBox="0 0 1024 1024"><path transform="translate(0, 921.6) scale(1,-1)" d="M876-34L845-10L817 16L792 44L769 74L749 106L732 140L718 177L707 215L705 230L697 201L676 145L650 95L617 49L580 10L537-23L489-50L436-71L432-62L479-33L519-1L554 35L585 74L610 117L630 163L645 215L652 251L435 251L435 272L656 272L661 331L662 385L501 385L501 406L663 406L663 525L498 525L498 546L663 546L663 670L727 659L743 648L727 639L727 546L773 546L826 600L891 546L891 525L727 525L727 406L770 406L823 460L888 406L888 385L726 385L722 326L714 272L836 272L890 326L954 272L954 251L714 251L746 190L766 159L786 131L808 105L832 82L857 60L883 41L912 24L970-6L910-55L876-34ZM342 662L336 675L320 702L298 730L256 773L246 781L217 711L196 669L151 588L138 568L280 568L324 616L378 568L378 546L267 546L267 396L285 396L338 449L403 396L403 374L267 374L267 69L358 92L393 99L396 90L365 73L300 41L201 2L101-32L90-36L82-56L68-42L42 17L153 41L203 54L203 374L64 374L64 396L203 396L203 546L124 546L99 511L70 475L38 441L30 447L95 567L134 648L151 690L182 775L206 857L209 871L269 844L281 830L262 824L253 799L251 792L284 778L303 768L338 746L354 734L368 721L381 707L393 692L404 677L405 653L389 634L365 633L346 649L342 662ZM114 141L114 157L112 173L109 189L106 205L101 221L89 254L81 271L72 287L79 293L108 267L121 253L133 238L144 221L153 205L161 187L168 169L174 149L178 130L170 106L149 95L125 103L114 125L114 141ZM331 312L390 284L402 268L380 264L365 235L346 203L325 171L301 141L290 125L281 130L288 148L293 167L308 220L313 238L317 255L321 271L325 288L328 299L331 312ZM439 558L416 567L408 590L417 613L422 616L429 622L435 632L442 644L447 659L453 677L459 698L464 721L468 747L471 775L481 775L484 746L486 729L663 729L663 869L727 859L743 848L727 838L727 729L903 729L936 756L995 707L968 691L951 684L909 627L887 600L876 584L868 589L875 606L879 624L888 655L899 696L902 707L488 707L489 695L489 672L489 651L487 632L484 613L479 597L472 581L462 567L439 558Z"/></svg>