<svg id="U2E0FD" viewBox="0 0 1024 1024"><path transform="translate(0, 921.6) scale(1,-1)" d="M614-29L614-13L722-13L729-12L733-12L737-11L738-10L740-8L741-6L742-3L743 2L743 216L732 203L697 166L660 131L622 98L581 67L538 40L494 15L447-8L399-27L349-42L345-33L434 18L476 45L516 73L553 104L589 135L623 169L655 205L685 242L691 252L491 252L468 181L397 170L489 453L547 423L559 407L541 403L498 273L743 273L743 477L371 477L371 498L821 498L874 552L939 498L939 477L808 477L808 273L853 273L907 327L972 273L972 252L808 252L808 9L807-5L805-18L800-31L794-44L785-54L774-63L762-70L749-74L736-76L722-77L722-45L614-29ZM71 492L136 460L280 460L313 487L372 439L345 417L345 90L280 58L280 122L136 122L136 58L71 25L71 492ZM280 439L136 439L136 144L280 144L280 439ZM375 750L432 719L443 703L421 699L415 687L392 659L364 633L332 611L296 592L256 576L211 562L161 552L108 545L50 541L49 550L104 564L154 580L200 596L240 614L275 633L304 653L329 674L348 696L362 719L372 741L375 750ZM904 628L931 720L942 720L931 628L947 618L958 602L947 585L931 575L660 575L647 576L635 580L623 586L612 594L603 604L596 616L591 628L588 641L587 655L587 745L652 734L668 724L652 714L652 655L651 648L652 644L652 640L653 638L653 636L654 634L657 633L660 631L666 629L673 628L904 628ZM64 635L45 651L45 676L61 694L72 697L82 702L92 707L100 716L108 725L116 738L123 752L129 769L134 788L136 810L146 810L148 788L150 778L480 778L480 872L544 861L560 850L544 841L544 778L888 778L892 781L895 788L898 786L921 805L980 756L953 740L917 725L878 699L849 681L832 672L816 661L810 668L823 682L864 737L877 756L151 756L151 746L150 727L145 709L139 691L130 675L118 660L104 646L88 635L64 635Z"/></svg>