<svg id="U2E275" viewBox="0 0 1024 1024"><path transform="translate(0, 921.6) scale(1,-1)" d="M517 314L581 282L829 282L861 309L921 260L894 239L894-16L829-48L829 16L581 16L581-48L517-81L517 314ZM136 57L136-8L72-40L72 374L136 363L152 353L136 343L136 78L212 78L212 449L44 449L44 471L212 471L212 681L157 681L142 647L104 577L59 506L51 511L92 626L115 697L133 764L141 797L147 828L151 854L154 869L215 847L229 833L210 826L196 782L172 715L166 702L310 702L364 756L428 702L428 681L277 681L277 471L337 471L391 525L455 471L455 449L277 449L277 78L352 78L352 374L417 363L433 353L417 343L417 25L352-8L352 57L136 57ZM829 260L581 260L581 38L829 38L829 260ZM673 869L738 858L754 847L738 838L738 730L843 730L896 783L961 730L961 708L789 708L758 658L729 614L700 575L738 569L754 558L738 548L738 340L673 308L673 541L629 490L593 452L554 414L514 379L471 346L427 314L420 322L494 400L563 479L594 519L653 603L706 689L715 708L450 708L450 730L673 730L673 869ZM916 365L906 384L894 404L880 423L847 462L808 503L763 545L768 553L797 540L825 525L851 510L897 475L917 456L936 437L953 417L969 396L982 375L984 351L968 332L944 330L925 346L916 365Z"/></svg>