<svg id="U2E7DC" viewBox="0 0 1024 1024"><path transform="translate(0, 921.6) scale(1,-1)" d="M792-51L670-49L568-43L485-33L417-19L363 0L320 23L287 50L262 81L250 101L203 54L148 7L95-35L94-56L76-48L34 1L43 7L195 87L195 353L50 353L50 374L195 374L227 401L286 353L259 331L259 112L278 96L303 77L318 115L327 146L335 182L342 220L347 263L351 310L354 360L354 415L354 473L354 783L413 754L622 754L622 858L687 847L703 837L687 827L687 754L873 754L917 802L971 754L971 732L413 732L413 473L410 413L407 357L401 305L393 256L383 212L371 172L358 135L342 104L323 77L316 69L339 56L379 42L428 30L492 22L572 16L670 15L790 17L935 23L996 25L938-48L792-51ZM419 104L419 120L527 120L534 120L538 121L542 122L543 123L544 124L546 127L547 130L548 135L548 188L510 178L469 169L460 149L447 164L427 226L437 227L529 239L548 241L548 315L594 307L623 354L447 354L447 376L636 376L639 378L644 387L646 384L668 403L727 354L700 338L668 325L648 311L626 297L624 296L629 294L613 284L613 251L670 260L696 263L722 266L725 257L702 244L678 232L652 221L625 212L613 208L613 141L612 127L610 114L605 101L599 89L590 78L579 69L567 63L554 59L540 56L527 55L527 88L419 104ZM955 211L949 199L941 189L932 178L922 170L910 163L898 158L885 154L872 152L858 152L858 184L815 200L815 216L858 216L872 217L876 219L881 220L885 223L888 225L894 233L896 239L902 253L906 267L907 285L907 306L904 328L899 352L889 376L876 399L858 422L835 447L835 448L828 453L866 568L879 610L888 647L800 647L800 88L740 58L740 698L800 668L892 668L924 695L983 647L956 631L945 626L917 570L894 531L867 489L841 455L874 443L902 422L924 397L940 369L952 341L959 313L964 287L965 263L964 242L960 224L955 211ZM464 591L523 561L624 561L654 588L710 540L683 521L683 444L624 414L624 444L523 444L464 414L464 591ZM624 540L523 540L523 465L624 465L624 540ZM186 496L166 524L143 552L118 577L74 615L58 626L61 635L101 623L120 616L156 598L190 576L206 564L222 551L236 537L243 513L231 491L208 484L186 496ZM427 603L427 624L541 624L541 715L606 704L622 694L606 684L606 624L637 624L681 673L735 624L735 603L427 603ZM227 700L218 714L198 742L174 768L133 807L116 819L121 828L160 814L179 806L196 797L214 787L245 764L260 752L274 738L287 723L292 699L279 678L255 674L234 687L227 700Z"/></svg>