<svg id="U2E6B9" viewBox="0 0 1024 1024"><path transform="translate(0, 921.6) scale(1,-1)" d="M782-49L646-45L525-34L420-17L330 8L254 39L195 77L152 122L130 165L125 135L115 91L103 51L89 15L74-19L57-49L37-74L29-69L48-9L56 25L63 61L70 101L75 143L80 189L84 237L86 289L87 344L87 356L151 341L167 330L150 320L147 285L141 232L138 209L148 182L177 142L218 108L222 106L222 476L286 466L302 455L286 445L286 288L355 288L399 337L453 288L453 267L286 267L286 75L344 56L430 38L532 25L649 18L782 18L930 23L990 25L932-48L782-49ZM779 104L779 120L865 120L872 120L876 121L880 122L882 123L882 124L883 125L885 127L886 130L886 135L887 141L887 666L544 666L544 84L485 54L485 717L544 688L620 688L625 700L659 796L671 832L675 849L680 866L683 873L740 843L751 827L730 823L713 792L679 742L653 708L636 688L887 688L919 714L978 666L951 645L951 141L950 127L948 115L944 101L937 89L928 78L917 69L905 63L892 59L879 56L865 55L865 88L779 104ZM606 563L665 533L757 533L789 560L848 512L821 490L821 251L757 218L757 283L665 283L665 218L606 189L606 563ZM757 512L665 512L665 304L757 304L757 512ZM44 476L44 498L222 498L222 670L60 670L60 691L222 691L222 874L286 863L302 853L286 843L286 691L329 691L383 745L447 691L447 670L286 670L286 498L340 498L394 552L458 498L458 476L44 476Z"/></svg>