<svg id="U2E886" viewBox="0 0 1024 1024"><path transform="translate(0, 921.6) scale(1,-1)" d="M566 379L545 375L513 370L480 367L445 364L443 374L564 420L637 451L659 461L691 479L691 480L691 479L696 482L702 469L741 432L742 414L722 423L703 416L656 401L631 394L631 283L628 245L771 245L771 482L835 471L846 464L846 524L549 524L549 486L484 454L484 870L549 838L846 838L878 864L937 816L910 795L910 491L850 461L851 460L835 451L835 245L871 245L925 299L989 245L989 224L835 224L835-45L771-77L771 224L626 224L620 184L609 139L594 97L575 59L552 25L526-6L496-32L462-54L425-70L420-62L450-37L476-11L499 17L518 47L534 80L547 115L557 152L563 193L565 224L412 224L412 245L566 245L566 379ZM68-43L43 18L198 49L217 54L217 374L65 374L65 396L217 396L217 546L146 546L146 568L306 568L350 616L403 568L403 546L282 546L282 396L312 396L366 449L430 396L430 374L282 374L282 69L344 84L420 99L423 90L388 73L318 41L247 14L104-33L89-37L82-56L68-43ZM122 141L121 156L118 173L116 189L111 205L107 221L100 237L85 270L74 287L81 294L96 280L111 268L125 254L149 223L159 205L168 188L175 169L181 150L186 130L178 106L156 95L133 103L121 124L122 141ZM356 313L414 283L425 267L403 263L387 235L367 203L334 156L308 125L300 130L307 148L324 203L335 238L345 272L349 289L353 305L356 313ZM366 661L360 674L352 688L342 701L318 729L288 758L271 773L260 782L248 754L206 668L157 587L130 548L101 511L70 475L37 441L29 447L100 567L142 649L161 690L194 775L209 819L222 863L224 871L284 843L295 828L276 824L266 798L264 793L301 778L322 769L341 758L359 747L375 734L405 708L417 694L429 678L431 653L415 634L391 632L372 648L366 661ZM846 674L549 674L549 545L846 545L846 674ZM846 816L549 816L549 696L846 696L846 816Z"/></svg>