<svg id="U2E817" viewBox="0 0 1024 1024"><path transform="translate(0, 921.6) scale(1,-1)" d="M453 837L517 783L517 761L353 761L353 611L421 611L453 638L512 589L485 568L485 3L421-29L421 35L136 35L136-29L71-61L71 643L136 611L192 611L192 761L39 761L39 783L399 783L453 837ZM927 0L920-11L911-22L902-31L891-38L879-45L867-49L854-53L841-55L828-56L828-24L720-8L720 9L828 9L835 9L842 10L847 12L852 13L860 19L864 23L868 27L875 39L877 48L881 73L883 112L886 163L888 228L889 307L890 400L891 509L892 632L892 761L540 761L540 783L892 783L924 810L983 761L956 745L956 632L956 508L955 399L954 306L953 226L951 161L948 108L945 67L940 36L933 12L927 0ZM421 170L136 170L136 57L421 57L421 170ZM353 357L354 352L356 348L357 346L358 344L359 343L361 342L365 341L371 340L378 339L421 339L421 589L353 589L353 357ZM597 264L543 302L666 425L812 578L843 609L851 603L804 529L755 459L677 359L612 282L616 261L597 264ZM294 761L251 761L251 611L294 611L294 761ZM364 281L351 283L338 288L327 294L316 303L308 313L301 325L297 337L295 350L294 363L294 589L251 589L249 547L245 498L239 453L231 411L222 373L210 338L197 308L181 281L164 259L144 242L137 248L149 270L158 294L167 319L174 349L181 382L186 418L189 458L192 502L193 549L192 589L136 589L136 191L421 191L421 280L378 280L364 281Z"/></svg>