<svg id="U2E641" viewBox="0 0 1024 1024"><path transform="translate(0, 921.6) scale(1,-1)" d="M793 466L858 455L874 444L858 434L858 315L875 315L919 363L973 315L973 294L858 294L858 148L886 148L930 197L984 148L984 127L858 127L858-45L793-77L793 127L662 127L662 148L793 148L793 294L737 294L714 238L701 213L687 190L672 168L663 172L686 276L692 303L701 358L705 385L708 414L711 444L711 443L713 454L775 434L789 421L770 414L761 375L754 346L744 315L793 315L793 466ZM63 256L127 224L252 224L285 251L344 202L317 181L317-2L252-34L252-2L127-2L127-40L63-72L63 256ZM439 229L482 229L482 412L440 412L440 267L439 229ZM252 202L127 202L127 19L252 19L252 202ZM584 412L536 412L536 229L584 229L584 412ZM256 406L310 358L310 337L70 337L70 358L212 358L256 406ZM482 589L440 589L440 433L482 433L482 589ZM584 589L536 589L536 433L584 433L584 589ZM933 532L928 520L920 509L911 499L901 490L889 483L877 478L864 474L851 472L837 471L837 503L773 519L773 535L837 535L844 536L850 537L856 539L859 540L863 542L866 545L869 548L872 553L874 558L877 564L879 574L884 600L886 619L888 640L889 663L891 718L892 749L892 772L829 772L823 740L814 703L802 666L788 631L772 596L753 563L732 532L709 502L683 473L654 447L647 453L685 518L702 550L717 582L730 615L741 648L750 682L757 716L763 751L765 772L662 772L662 793L892 793L924 820L983 772L956 756L956 748L956 717L953 660L950 612L948 592L945 575L942 559L938 545L933 532ZM256 546L310 498L310 476L70 476L70 498L212 498L256 546ZM549 756L486 756L462 699L445 664L427 629L422 620L440 611L503 611L507 621L512 640L541 729L546 746L549 756ZM284 702L348 648L348 627L52 627L52 648L230 648L284 702ZM256 837L310 788L310 767L70 767L70 788L212 788L256 837ZM642 1L640-11L636-24L631-35L623-46L614-54L603-61L591-66L579-68L566-69L566-40L483-25L483-10L566-10L571-10L574-9L577-8L578-8L579-6L580-5L581-3L582 1L583 7L584 14L584 208L437 208L434 177L429 136L421 97L412 61L401 27L389-4L374-33L357-58L338-80L331-75L341-49L350-22L358 7L365 37L371 70L376 105L379 142L381 181L382 223L381 267L381 553L364 527L339 496L330 501L376 610L381 624L381 640L387 638L403 682L427 753L437 789L446 825L454 861L455 861L457 870L517 845L530 831L511 825L494 777L553 777L586 804L645 756L618 740L604 734L578 691L545 644L518 611L584 611L613 638L670 589L643 570L643 14L642 1Z"/></svg>