<svg id="U2E43C" viewBox="0 0 1024 1024"><path transform="translate(0, 921.6) scale(1,-1)" d="M893-34L844-3L802 41L768 98L765 106L736 72L693 29L646-8L595-37L540-60L537-51L584-19L628 16L668 54L705 98L739 146L745 156L740 166L719 245L703 336L693 439L688 554L688 557L262 557L262 234L261 233L257 195L249 159L238 124L224 90L208 59L189 29L167 1L142-25L115-49L85-70L79-63L102-35L122-8L141 20L157 48L171 77L182 107L191 138L197 170L201 203L203 237L203 608L262 578L688 578L689 682L689 694L753 680L770 669L753 660L753 578L835 578L866 610L858 614L853 623L841 641L833 650L816 668L794 685L782 695L768 702L771 711L787 707L802 705L817 702L832 697L846 692L860 687L873 680L885 672L897 664L908 655L915 631L907 616L953 578L953 557L753 557L753 555L758 444L767 345L782 259L787 238L795 255L819 317L839 384L858 467L918 443L932 429L913 422L897 368L873 297L844 233L812 174L809 169L826 126L854 80L885 47L919 25L924 24L953 148L964 148L953 15L958 14L978 1L985-23L972-44L947-50L893-34ZM321 506L380 476L469 476L501 503L560 455L534 439L526 436L518 337L550 363L609 315L582 299L575 296L567 202L571 202L603 229L663 181L636 165L628 161L618 32L550 8L553 35L380 35L380-29L321-59L321 506ZM569 181L380 181L380 57L556 57L569 181ZM197 303L203 296L190 281L89 148L42 192L70 216L114 250L163 282L197 303ZM516 315L380 315L380 202L503 202L516 315ZM467 455L380 455L380 337L454 337L467 455ZM143 395L138 405L125 426L111 446L94 467L74 488L63 497L67 505L81 499L95 495L123 484L136 477L161 461L173 453L184 444L195 434L200 410L188 389L164 383L143 395ZM620 871L684 861L700 850L684 840L684 764L829 764L882 818L947 764L947 742L684 742L684 660L620 628L620 742L404 742L404 660L339 628L339 742L77 742L77 764L339 764L339 871L404 861L420 850L404 840L404 764L620 764L620 871Z"/></svg>