<svg id="U2E3C1" viewBox="0 0 1024 1024"><path transform="translate(0, 921.6) scale(1,-1)" d="M129 626L194 594L887 594L931 642L985 594L985 572L194 572L194 325L191 267L185 212L178 162L167 115L154 72L138 32L120-3L98-33L74-59L47-79L41-72L58-46L74-17L88 13L100 47L110 84L118 125L124 169L128 218L130 269L129 325L129 626ZM879-59L816-37L759-9L709 25L667 65L632 111L604 162L594 192L343 192L343 17L500 35L544 41L635 51L636 41L593 26L550 13L507 1L421-20L378-30L292-46L250-54L229-57L220-75L207-60L189 3L200 4L242 7L279 10L279 540L343 507L806 507L838 534L897 486L870 464L870 314L806 282L806 335L635 335L638 288L648 235L655 214L837 214L891 268L956 214L956 192L662 192L686 145L715 108L750 75L792 47L840 23L897 3L926-3L956 123L966 123L956-10L961-11L981-25L987-49L973-69L950-75L879-59ZM571 335L343 335L343 214L587 214L585 219L574 280L571 335ZM806 486L343 486L343 357L806 357L806 486ZM630 875L695 864L711 853L695 843L695 763L861 763L915 817L980 763L980 741L695 741L695 655L630 623L630 741L394 741L394 655L329 623L329 741L44 741L44 763L329 763L329 875L394 864L410 853L394 843L394 763L630 763L630 875Z"/></svg>