<svg id="U2E28F" viewBox="0 0 1024 1024"><path transform="translate(0, 921.6) scale(1,-1)" d="M144 165L140 129L135 95L127 63L118 33L107 5L105 2L111 3L222 25L222 476L170 466L160 464L147 456L147 203L144 165ZM527 520L586 510L717 537L785 553L843 570L868 579L892 589L895 580L943 538L944 521L922 531L913 528L886 520L857 514L839 511L859 379L871 312L884 251L898 194L914 142L930 95L949 52L968 14L988-19L935-68L908-17L890 27L874 75L860 127L849 183L839 243L832 307L828 375L825 448L827 509L794 504L760 499L723 496L685 494L645 493L603 493L598 493L591 489L591 253L588 208L582 165L574 125L564 87L550 51L534 19L515-11L493-38L468-60L440-79L435-72L453-46L470-20L484 8L497 37L507 67L515 100L522 135L525 172L527 212L527 253L527 520ZM826-25L824-12L821 2L818 15L756-5L700-21L590-48L586-49L578-68L564-54L543 8L554 10L608 15L635 18L663 21L673 22L673 490L738 480L754 469L738 459L738 28L750 30L779 32L810 33L812 33L803 61L789 95L780 112L788 118L801 103L815 90L839 63L859 35L868 21L883-8L889-22L886-46L866-61L842-57L827-38L826-25ZM899 664L927 779L923 777L879 742L849 721L832 711L816 698L809 705L823 721L863 780L878 805L879 806L652 806L652 679L653 674L654 669L657 667L658 666L661 665L666 664L673 664L899 664ZM434 87L420 108L397 231L379 311L369 351L328 501L250 482L287 476L303 466L287 456L287 37L308 40L352 46L337 82L320 117L309 134L317 140L347 113L362 99L375 85L399 53L409 37L428 3L436-16L433-40L414-55L389-53L374-34L371-17L363 16L357 32L315 13L192-35L149-51L143-72L128-59L102-3L94-20L79-43L62-63L43-80L36-73L45-52L54-29L61-6L68 19L74 45L78 73L81 102L83 134L83 167L82 203L82 487L130 479L221 518L410 588L412 580L464 536L465 520L443 530L395 517L339 504L375 438L408 363L436 285L461 204L473 162L483 120L478 96L458 82L434 87ZM65 671L46 687L44 712L60 731L71 734L81 740L90 747L99 756L108 768L116 783L122 799L129 819L134 841L136 865L146 866L150 827L888 827L892 830L894 836L897 834L921 854L980 806L953 790L941 785L931 664L951 651L964 632L951 612L931 599L673 599L659 600L646 603L633 607L621 613L610 623L601 633L594 646L590 659L588 672L587 685L587 806L407 806L454 782L466 766L445 762L437 747L415 715L389 686L358 660L322 637L283 616L239 597L192 582L139 569L83 560L80 569L134 589L182 609L225 630L264 652L297 674L325 698L350 723L368 749L383 776L394 806L152 806L152 794L150 773L146 753L140 734L131 716L120 699L106 685L89 673L65 671Z"/></svg>