<svg id="U2E3AC" viewBox="0 0 1024 1024"><path transform="translate(0, 921.6) scale(1,-1)" d="M841-14L793 19L749 57L710 98L676 142L647 190L624 241L606 295L594 353L589 411L569 409L528 405L486 403L474 403L474 25L561 38L602 45L688 55L690 46L609 17L570 4L422-37L345-54L336-73L323-59L302 3L313 5L345 8L410 16L410 450L470 420L601 454L673 474L740 496L803 518L806 510L855 468L857 452L835 461L790 448L756 440L685 426L647 419L608 413L599 412L616 358L636 306L659 258L760 318L798 342L830 366L844 377L863 348L883 326L885 306L865 315L823 296L780 278L756 270L731 262L704 254L677 247L667 245L686 213L716 172L750 135L788 102L829 72L875 45L956 6L895-44L841-14ZM216 574L279 543L507 595L602 621L623 627L623 739L401 739L401 658L337 626L337 739L67 739L67 760L337 760L337 867L401 856L417 845L401 835L401 760L623 760L623 867L687 856L703 845L687 835L687 760L838 760L892 814L956 760L956 739L687 739L687 658L630 629L733 663L736 655L786 613L788 596L766 606L708 590L662 579L566 559L516 551L465 543L413 537L360 531L305 528L281 527L281 353L277 299L268 247L256 199L239 153L217 111L192 72L162 35L128 4L89-25L46-48L42-40L77-9L108 24L135 58L158 94L177 132L192 171L204 213L211 257L216 304L216 353L216 574Z"/></svg>