<svg id="U2E4DD" viewBox="0 0 1024 1024"><path transform="translate(0, 921.6) scale(1,-1)" d="M130 704L195 671L469 671L469 874L534 863L550 852L534 842L534 786L749 786L802 840L867 786L867 764L534 764L534 671L894 671L897 674L899 678L900 677L926 698L985 650L958 634L936 625L923 610L901 587L876 565L850 544L838 532L831 538L839 553L881 639L886 650L195 650L195 301L192 248L187 199L179 153L168 110L156 70L141 34L123 1L102-28L79-54L53-74L46-67L63-41L78-13L91 17L103 49L112 83L120 121L125 161L129 205L131 251L130 301L130 704ZM612 317L609 315L609 170L765 170L819 224L883 170L883 149L609 149L609 20L652 15L734 11L825 10L928 13L989 16L930-58L825-57L731-53L646-44L572-31L508-13L453 8L410 35L377 67L358 101L348 81L328 49L305 20L279-6L251-31L220-51L186-68L181-60L208-35L253 17L272 45L289 73L303 103L315 134L324 168L331 202L336 239L337 249L400 230L414 217L395 209L391 190L380 151L370 126L377 112L400 88L431 67L471 49L521 34L544 30L544 317L517 317L503 318L490 320L477 325L465 331L454 340L445 351L438 363L434 376L432 390L431 403L431 488L217 464L215 486L431 510L431 639L496 628L512 617L496 607L496 517L689 538L736 598L806 551L809 530L496 495L496 397L497 392L499 387L501 385L502 384L506 383L510 382L517 382L861 382L894 516L904 516L894 382L913 369L926 349L913 330L894 317L612 317Z"/></svg>