<svg id="U2E840" viewBox="0 0 1024 1024"><path transform="translate(0, 921.6) scale(1,-1)" d="M363 837L428 783L428 761L296 761L296 611L346 611L375 638L432 589L405 570L405 3L346-26L346 35L127 35L127-29L62-61L62 643L127 611L163 611L163 761L42 761L42 783L309 783L363 837ZM854-51L787-49L730-43L682-33L643-18L611 2L588 26L570 53L558 83L555 95L535 58L507 12L488-16L483-23L488-46L468-42L415-5L422 3L499 66L512 77L515 80L515 353L436 353L436 374L515 374L544 401L601 353L574 334L574 104L571 103L596 71L615 53L637 39L663 28L695 21L736 16L788 15L852 17L988 27L935-48L854-51ZM346 170L127 170L127 57L346 57L346 170ZM641 417L700 387L846 387L878 414L937 366L910 344L910 119L846 87L846 152L700 152L700 87L641 58L641 417ZM846 366L700 366L700 173L846 173L846 366ZM343 332L346 331L346 589L296 589L296 363L296 356L298 351L300 346L303 343L332 452L343 452L332 339L343 332ZM163 589L127 589L127 262L137 292L144 318L150 347L154 381L158 417L161 457L163 502L163 549L163 589ZM742 862L807 851L823 840L807 831L807 721L836 721L869 759L912 721L912 699L807 699L807 510L837 510L890 563L955 510L955 488L807 488L807 433L742 401L742 488L594 488L594 510L742 510L742 699L690 699L681 674L658 624L645 601L631 578L615 557L607 562L618 612L631 662L637 687L652 766L659 815L661 831L723 809L737 796L718 788L700 726L698 721L742 721L742 862ZM523 488L505 504L485 557L466 593L452 616L443 625L449 633L460 626L474 620L486 612L499 604L522 583L543 560L563 532L564 507L548 489L523 488ZM248 761L216 761L216 611L248 611L248 761ZM529 707L520 734L510 760L492 796L485 809L476 819L482 826L494 818L507 811L519 803L531 793L543 783L564 760L583 733L592 719L592 695L574 677L550 677L532 694L529 707ZM325 280L312 282L299 284L287 289L275 296L266 304L258 314L253 326L249 338L248 351L248 589L216 589L214 548L211 499L206 453L200 412L192 374L182 339L172 309L159 282L144 260L128 243L127 244L127 191L346 191L346 289L332 280L325 280Z"/></svg>