<svg id="U2EB66" viewBox="0 0 1024 1024"><path transform="translate(0, 921.6) scale(1,-1)" d="M400 251L459 203L432 187L419 181L342-61L270-70L362 203L102 203L102 224L368 224L400 251ZM880 461L874 449L866 439L857 428L847 420L836 413L823 408L810 404L797 402L783 401L783 433L719 449L719 466L783 466L790 466L797 467L802 469L806 470L809 473L813 475L816 478L818 483L821 488L824 495L826 504L829 516L831 533L833 552L835 575L837 600L838 630L839 662L839 697L839 724L609 724L609 347L903 347L936 374L995 326L968 310L968 283L968 233L967 188L965 147L962 111L958 78L953 50L947 25L939 4L929-15L921-25L912-34L902-43L892-51L881-57L869-62L857-67L844-69L831-71L818-72L818-40L710-24L710-8L818-8L826-7L833-6L846-3L851 0L857 3L862 7L867 11L872 17L876 23L881 30L886 44L890 63L894 88L898 117L901 152L903 191L904 234L904 283L903 283L903 326L609 326L566 283L512 337L544 369L544 777L609 745L675 745L677 750L681 765L693 806L702 843L705 854L706 860L705 861L710 873L767 841L778 825L753 821L719 776L699 755L689 745L839 745L872 772L931 724L904 707L904 696L903 660L902 627L901 598L900 570L897 546L895 525L893 505L889 489L885 474L880 461ZM783 218L847 165L847 143L493 143L493 165L729 165L783 218ZM254 297L253 308L251 319L243 343L231 370L216 400L206 414L213 421L227 409L253 387L266 376L287 353L296 341L304 329L317 304L314 280L295 264L271 268L255 287L254 297ZM409 364L399 389L387 412L374 435L342 481L282 548L274 557L253 521L209 458L160 399L132 371L103 344L72 319L39 296L33 303L106 395L149 455L168 487L203 549L218 581L231 614L235 620L291 588L301 571L286 569L322 548L348 529L394 488L414 465L433 441L450 416L465 390L478 363L478 339L460 322L436 323L418 340L409 364ZM730 554L727 566L722 578L715 590L708 602L699 615L676 640L663 654L646 665L651 674L688 659L706 650L722 641L737 631L751 619L764 607L775 594L785 579L793 563L791 539L773 523L749 525L732 542L730 554ZM136 632L93 589L39 642L71 675L71 805L136 795L152 784L136 774L136 653L231 653L231 862L295 852L311 841L295 831L295 653L388 653L388 805L453 795L469 784L453 774L453 610L388 578L388 632L136 632Z"/></svg>