<svg id="U2E8D9" viewBox="0 0 1024 1024"><path transform="translate(0, 921.6) scale(1,-1)" d="M410 820L474 788L860 788L914 841L979 788L979 766L474 766L474 437L472 361L468 290L462 224L454 162L445 106L435 55L422 9L407-31L389-66L370-95L361-91L371-59L379-23L387 18L394 63L400 113L405 168L408 227L410 292L411 362L410 437L410 820ZM324 663L319 676L313 689L304 703L285 730L260 759L246 773L240 779L213 712L173 628L151 588L139 568L263 568L307 616L360 568L360 546L260 546L260 396L286 396L330 444L384 396L384 374L260 374L260 70L341 92L374 99L378 90L319 56L228 15L166-10L105-32L95-36L88-55L74-42L47 17L150 41L196 53L196 374L68 374L68 396L196 396L196 546L138 546L138 567L102 512L74 476L45 441L37 447L96 567L132 647L148 689L176 774L188 817L199 861L202 870L261 845L274 830L255 825L247 799L244 791L274 777L292 768L309 757L325 746L340 733L353 720L366 706L377 692L387 677L388 652L371 634L346 633L328 650L324 663ZM449-40L449-18L545-18L545 234L610 224L626 213L610 203L610-18L681-18L681 315L745 304L761 294L745 284L745 138L830 138L874 186L928 138L928 116L745 116L745-18L867-18L921 35L985-18L985-40L449-40ZM113 141L113 158L111 174L109 190L106 206L97 238L85 271L75 287L83 293L110 267L123 253L135 237L153 204L161 187L168 168L173 149L177 130L169 106L148 95L124 103L113 125L113 141ZM315 312L374 284L386 269L365 264L351 236L332 204L313 172L290 141L279 125L271 130L277 147L285 184L290 202L294 220L298 237L302 254L306 271L312 299L315 312ZM658 451L654 460L641 489L631 506L631 326L567 294L567 431L557 410L542 384L525 360L508 338L488 318L480 324L510 399L519 426L528 454L543 513L549 545L555 577L557 595L481 595L481 616L567 616L567 734L631 724L647 713L631 703L631 616L660 616L685 648L717 616L717 595L631 595L631 529L643 524L654 518L665 511L685 497L694 489L720 463L722 439L707 419L682 417L663 432L658 451ZM929 362L903 403L881 447L871 471L862 495L860 501L860 331L795 299L795 468L771 430L752 406L731 383L709 363L685 344L678 351L723 426L736 451L758 503L768 530L776 556L783 584L785 595L724 595L724 616L795 616L795 734L860 724L876 713L860 703L860 616L883 616L917 654L960 616L960 595L860 595L860 582L901 513L928 474L955 439L969 423L983 408L987 404L929 362Z"/></svg>