<svg id="U2E75D" viewBox="0 0 1024 1024"><path transform="translate(0, 921.6) scale(1,-1)" d="M894 868L958 814L958 793L538 793L538 37L868 37L922 90L987 37L987 15L538 15L538-49L479-79L479 844L538 814L840 814L894 868ZM211 869L276 858L292 847L276 838L276 724L323 724L377 777L441 724L441 702L276 702L276 600L342 600L374 627L433 578L406 557L406 256L342 224L342 277L276 277L276 154L332 154L386 208L450 154L450 132L276 132L276-45L211-77L211 132L37 132L37 154L211 154L211 277L145 277L145 240L81 208L81 632L145 600L211 600L211 702L46 702L46 724L211 724L211 869ZM559 108L559 129L728 129L728 260L603 260L603 282L728 282L728 411L582 411L582 432L819 432L873 486L937 432L937 411L792 411L792 282L819 282L863 330L916 282L916 260L792 260L792 129L863 129L907 177L961 129L961 108L559 108ZM211 433L145 433L145 299L211 299L211 433ZM342 433L276 433L276 299L342 299L342 433ZM791 611L792 611L790 598L870 598L870 716L934 705L950 695L934 685L934 566L870 534L870 577L784 577L778 561L764 538L747 518L727 501L703 486L677 473L647 462L615 454L579 447L577 456L608 471L636 487L660 503L681 518L697 534L710 550L719 566L723 577L648 577L648 561L589 531L589 716L648 705L663 695L648 685L648 598L728 598L728 612L728 613L728 767L792 756L808 745L792 735L792 613L791 611ZM211 578L145 578L145 455L211 455L211 578ZM342 578L276 578L276 455L342 455L342 578Z"/></svg>