<svg id="U2E5E1" viewBox="0 0 1024 1024"><path transform="translate(0, 921.6) scale(1,-1)" d="M873-14L822 40L778 99L743 156L729 133L679 67L624 9L565-40L501-80L496-72L551-24L603 29L651 89L695 155L721 202L704 237L676 314L653 397L635 487L627 553L613 520L591 475L567 433L540 394L511 358L503 363L542 446L575 535L590 583L604 633L617 685L628 740L637 797L645 856L646 867L709 847L723 834L705 826L697 786L684 728L678 704L875 704L908 731L967 682L940 666L934 664L915 576L887 473L854 376L816 288L777 210L786 192L826 134L870 82L918 36L987-17L928-61L873-14ZM195 229L279 229L279 406L198 406L198 267L195 229ZM425 406L344 406L344 229L425 229L425 406ZM873 682L672 682L652 619L643 595L666 493L690 408L718 329L749 260L771 308L803 395L831 489L856 590L873 682ZM279 600L198 600L198 428L279 428L279 600ZM425 600L344 600L344 428L425 428L425 600ZM353 761L246 761L204 684L182 647L173 634L198 621L290 621L296 631L322 683L337 717L350 750L353 761ZM489 1L486-13L482-26L475-38L467-49L456-58L444-65L431-69L417-71L403-72L403-40L296-24L296-8L403-8L410-7L415-6L420-4L421-3L422-2L423-1L424 3L425 8L425 208L194 208L191 175L184 133L175 94L165 57L152 23L137-8L120-36L101-60L79-80L72-74L84-49L105 6L114 36L121 68L126 103L130 140L133 180L134 222L133 267L133 577L105 542L76 510L45 479L38 485L123 632L133 652L133 654L134 653L160 707L194 785L223 864L226 872L284 842L295 826L275 823L257 783L358 783L390 810L449 761L422 745L408 739L389 710L378 694L366 678L338 648L324 634L308 621L425 621L457 648L516 600L489 578L489 14L489 1Z"/></svg>