<svg id="U2E87B" viewBox="0 0 1024 1024"><path transform="translate(0, 921.6) scale(1,-1)" d="M845-60L763-53L690-37L627-10L574 27L531 74L512 105L498 79L466 32L430-9L389-45L345-75L339-67L375-30L408 10L437 53L462 99L484 148L486 155L468 198L447 275L432 362L441 364L469 281L498 210L502 202L516 260L527 321L534 387L536 445L488 445L485 437L414 423L507 744L400 744L400 765L511 765L544 792L603 744L576 727L564 723L493 467L536 467L568 494L628 445L601 429L598 428L594 381L584 312L568 247L549 187L532 147L565 103L606 66L652 39L706 20L770 10L845 8L933 13L991 18L939-58L845-60ZM72-42L46 17L154 41L203 53L203 374L67 374L67 396L203 396L203 546L141 546L141 568L278 568L322 616L375 568L375 546L268 546L268 396L282 396L336 449L400 396L400 374L268 374L268 70L356 92L391 99L394 90L363 73L331 56L267 27L202 2L137-22L93-36L87-55L72-42ZM116 141L116 157L114 173L111 189L108 205L104 221L99 238L85 271L75 287L82 293L111 267L124 253L136 238L146 221L156 205L164 187L171 168L176 149L180 130L172 106L151 95L128 103L116 125L116 141ZM631 146L631 162L745 162L750 163L753 165L755 166L757 167L758 169L759 172L759 177L760 184L760 396L608 396L608 418L760 418L760 586L630 586L630 607L760 607L760 751L729 744L700 739L670 735L638 733L636 743L718 777L768 800L814 825L835 838L870 862L874 865L891 839L914 814L915 796L895 804L862 787L837 776L824 771L824 607L845 607L889 656L943 607L943 586L824 586L824 418L850 418L904 471L968 418L968 396L824 396L824 184L823 170L821 156L817 144L810 131L801 120L790 112L778 105L765 101L752 98L738 98L738 130L631 146ZM330 312L388 284L400 268L378 264L364 235L335 188L313 156L301 141L289 125L281 130L287 148L316 254L326 299L325 299L330 312ZM339 662L334 675L327 689L308 716L284 744L256 773L247 780L218 711L199 669L153 588L129 549L102 511L73 476L42 441L35 447L98 567L136 648L153 689L168 732L196 818L207 862L210 871L270 844L282 830L263 824L254 799L251 791L284 777L303 768L321 757L337 746L352 734L367 721L380 707L392 692L402 677L403 653L387 634L362 633L344 649L339 662Z"/></svg>