<svg id="U2E1A5" viewBox="0 0 1024 1024"><path transform="translate(0, 921.6) scale(1,-1)" d="M920-51L873-37L785-5L703 31L630 72L596 95L565 119L542 141L542-42L477-74L477 112L432 80L394 58L353 38L310 19L265 3L216-12L165-26L111-37L55-45L52-35L157 2L250 40L330 82L366 105L399 128L417 142L79 142L79 164L477 164L477 244L542 233L558 222L542 212L542 164L821 164L837 180L833 179L820 176L806 176L806 208L731 224L731 240L806 240L813 241L818 241L821 242L823 244L824 244L825 247L826 251L828 255L828 404L191 404L191 213L126 181L126 458L191 426L828 426L860 453L919 404L892 383L892 262L892 248L889 234L885 221L880 213L939 164L939 142L568 142L648 106L685 91L763 63L847 39L983 6L920-51ZM321 403L385 371L633 371L665 398L724 349L697 328L697 266L633 234L633 266L385 266L321 234L321 403ZM633 349L385 349L385 288L633 288L633 349ZM271 594L335 561L683 561L716 588L775 540L748 518L748 462L683 430L683 462L335 462L271 430L271 594ZM683 540L335 540L335 484L683 484L683 540ZM72 595L72 616L477 616L477 687L542 676L558 665L542 655L542 616L870 616L903 654L946 616L946 595L72 595ZM344 673L339 682L333 691L325 702L315 712L304 723L276 746L259 757L248 763L223 763L207 744L163 699L137 678L109 660L79 642L46 626L42 634L91 682L134 728L167 774L181 798L193 821L203 845L209 863L214 876L272 847L283 831L262 827L244 793L238 785L431 785L485 839L550 785L550 763L293 763L304 760L322 753L354 738L368 728L381 719L392 708L403 696L406 671L391 652L366 649L347 664L344 673ZM768 673L764 682L758 691L750 702L740 712L729 723L701 746L684 757L673 763L638 763L624 750L604 734L583 719L560 705L509 682L504 690L525 708L562 745L578 762L592 780L604 797L615 815L623 833L630 851L638 876L696 847L708 831L687 827L673 805L658 785L861 785L915 839L980 785L980 763L717 763L729 760L747 753L779 738L793 728L806 719L817 708L828 696L830 671L815 652L791 649L772 664L768 673Z"/></svg>