<svg id="U2E6F4" viewBox="0 0 1024 1024"><path transform="translate(0, 921.6) scale(1,-1)" d="M69-30L41 29L84 40L84 401L149 390L165 380L149 370L149 57L216 76L216 516L149 516L149 478L84 446L84 830L149 797L334 797L366 824L425 776L399 754L399 483L334 451L334 516L280 516L280 314L342 314L375 352L418 314L418 293L280 293L280 95L425 140L429 131L361 90L290 55L217 24L144-4L90-23L84-42L69-30ZM378-40L378-19L461-19L461 326L521 297L842 297L871 324L928 275L901 256L901-19L928-19L952 13L984-19L984-40L378-40ZM591 275L521 275L521-19L591-19L591 275ZM717 275L645 275L645-19L717-19L717 275ZM842 275L771 275L771-19L842-19L842 275ZM482 827L547 795L819 795L851 821L910 773L883 752L883 413L819 381L819 435L547 435L547 397L482 365L482 827ZM819 609L547 609L547 456L819 456L819 609ZM334 776L149 776L149 537L334 537L334 776ZM819 773L547 773L547 631L819 631L819 773Z"/></svg>