<svg id="U2EA07" viewBox="0 0 1024 1024"><path transform="translate(0, 921.6) scale(1,-1)" d="M685 115L730 69L735 50L714 54L689 34L666 18L616-12L559-41L528-54L496-66L461-76L457-67L542-10L590 26L633 61L668 96L683 113L685 115ZM178 368L179 368L175 309L170 254L162 203L152 154L141 110L126 68L110 31L91-3L70-32L45-57L39-51L54-22L67 9L80 43L91 80L100 120L107 163L113 209L117 259L119 312L120 369L120 825L179 796L403 796L457 849L521 796L521 774L179 774L179 368L178 368ZM922-40L912-24L890 8L864 37L834 65L801 92L782 104L786 113L830 100L851 91L871 81L890 70L909 58L926 45L943 30L959 15L974-2L979-26L966-47L943-53L922-40ZM443 59L440 78L436 98L431 116L297 35L188-26L185-47L168-37L130 17L140 22L227 56L227 655L286 626L424 626L456 653L515 604L488 583L488 336L424 304L424 358L286 358L286 80L374 113L408 125L426 131L414 162L404 185L381 232L367 257L375 263L415 223L432 203L448 182L462 160L474 139L486 117L495 94L502 72L509 49L502 25L482 12L458 18L445 39L443 59ZM925 853L989 799L989 777L800 777L789 759L769 728L746 699L722 673L696 648L866 648L898 675L957 627L930 605L930 165L866 132L866 165L647 165L647 148L582 116L582 681L647 648L679 648L683 656L690 673L704 705L724 753L730 769L732 777L532 777L532 799L871 799L925 853ZM866 320L647 320L647 186L866 186L866 320ZM866 471L647 471L647 342L866 342L866 471ZM424 604L286 604L286 379L424 379L424 604ZM866 627L647 627L647 492L866 492L866 627Z"/></svg>