<svg id="U2E0EB" viewBox="0 0 1024 1024"><path transform="translate(0, 921.6) scale(1,-1)" d="M842-51L758-49L688-43L631-33L584-18L545 1L516 25L493 52L478 82L472 97L470 96L442 56L404 10L371-28L373-50L354-45L305-2L313 5L388 56L427 83L427 353L347 353L358 341L369 327L372 302L357 283L332 280L313 295L302 321L287 346L270 370L260 382L246 397L246-44L182-76L182 342L163 288L144 244L123 201L101 160L76 121L49 86L41 91L75 173L91 215L120 303L132 349L143 397L153 446L162 496L167 533L45 533L45 554L182 554L182 737L168 733L133 724L95 716L55 709L52 718L214 794L281 833L299 846L309 854L313 857L346 811L351 805L352 786L332 795L309 783L286 773L246 758L246 554L272 554L316 603L370 554L370 533L246 533L246 417L262 412L278 405L293 396L307 387L321 377L324 374L427 374L457 401L513 353L486 334L486 106L496 94L518 72L540 55L567 40L600 30L641 21L694 16L759 15L840 17L996 26L941-48L842-51ZM567 831L841 831L845 835L846 835L873 857L932 809L906 793L885 784L859 759L830 733L770 687L785 666L786 641L770 624L877 624L909 650L968 602L942 581L942 167L940 153L938 139L934 126L928 115L918 103L908 95L895 88L882 84L869 81L856 81L856 113L780 129L780 145L856 145L862 146L867 146L870 147L872 148L873 149L874 150L875 152L876 155L876 160L877 167L877 314L779 314L779 149L714 117L714 314L613 314L613 115L553 85L553 653L613 624L743 624L727 638L722 653L710 681L703 694L696 707L680 732L662 757L651 768L656 776L670 768L686 762L700 753L714 744L740 722L752 709L762 698L792 740L814 773L831 802L834 809L567 809L567 831ZM714 460L613 460L613 335L714 335L714 460ZM877 460L779 460L779 335L877 335L877 460ZM714 602L613 602L613 481L714 481L714 602ZM877 602L779 602L779 481L877 481L877 602ZM437 486L417 501L396 542L389 555L372 580L353 604L343 616L332 626L337 634L351 627L366 621L381 614L395 605L409 596L436 574L449 561L460 548L472 534L475 510L461 490L437 486ZM451 691L434 732L411 770L384 808L372 819L378 827L392 819L408 812L422 804L450 784L463 774L486 749L497 735L508 721L509 696L494 677L470 675L451 691Z"/></svg>