<svg id="U2EAE0" viewBox="0 0 1024 1024"><path transform="translate(0, 921.6) scale(1,-1)" d="M459 492L458 493L463 501L514 461L521 443L496 445L478 430L457 416L435 402L433 401L771 401L803 428L863 380L836 358L836 173L771 141L771 173L372 173L425 159L440 146L420 137L416 117L400 80L376 46L345 17L309-8L267-28L219-46L165-59L105-68L39-73L38-63L101-48L158-31L207-12L249 8L284 31L312 54L334 80L348 106L357 134L361 163L362 173L252 173L252 109L188 76L188 433L252 401L411 401L415 405L433 438L449 469L457 488L459 492ZM850 31L847 39L844 47L835 45L776 30L749 24L658 5L645 3L641-4L910-4L942 130L953 130L942-4L961-17L974-37L961-56L942-69L609-69L595-68L581-66L568-61L556-55L545-46L537-35L530-23L525-10L523 4L523 17L523 172L587 161L603 151L587 141L587 11L588 6L589 3L590 1L591 0L592-1L594-2L597-3L602-4L609-4L624-4L622-2L606 62L617 63L633 62L665 62L679 101L690 136L695 157L696 157L699 163L753 128L763 111L738 110L712 81L694 62L695 62L745 63L772 64L832 64L825 73L796 102L783 109L787 118L802 112L817 109L831 105L844 100L856 95L868 89L889 75L908 58L911 33L896 13L872 10L852 24L850 31ZM480 278L252 278L252 195L480 195L480 278ZM771 278L544 278L544 195L771 195L771 278ZM480 380L252 380L252 299L480 299L480 380ZM771 380L544 380L544 299L771 299L771 380ZM650 831L870 831L877 840L879 839L902 857L961 809L934 793L907 782L865 749L828 724L807 712L760 688L750 683L797 679L844 668L882 653L911 635L932 616L947 595L955 573L957 551L952 531L942 513L932 505L922 497L911 490L900 483L889 478L877 474L865 470L852 468L840 467L827 466L827 498L763 514L763 531L827 531L843 532L850 533L858 535L864 538L871 541L877 545L883 549L890 554L896 559L897 558L900 565L899 574L894 586L882 601L861 618L831 635L790 654L737 675L738 677L736 676L730 684L787 738L820 770L846 800L854 809L650 809L650 438L585 406L585 863L650 831ZM253 669L101 669L101 691L253 691L253 748L59 748L59 770L253 770L253 873L317 862L334 851L317 841L317 770L414 770L458 818L512 770L512 748L317 748L317 691L377 691L421 739L475 691L475 669L317 669L317 612L316 599L430 599L474 647L528 599L528 577L313 577L303 547L288 518L267 493L242 471L213 453L179 437L142 425L100 416L55 410L52 419L95 435L132 452L164 469L191 487L213 506L229 526L241 546L249 567L251 577L53 577L53 599L253 599L253 669Z"/></svg>