<svg id="U2EB78" viewBox="0 0 1024 1024"><path transform="translate(0, 921.6) scale(1,-1)" d="M598 132L577 120L574 102L826 102L870 151L924 102L924 81L589 81L622 63L650 51L680 39L711 28L746 19L783 12L822 5L864 0L909-4L966-10L902-74L854-67L810-57L769-46L730-33L694-19L661-2L631 16L604 37L582 59L566 81L563 81L555 64L527 33L491 8L449-13L400-30L346-44L287-54L222-62L152-66L151-56L218-41L281-26L337-10L387 9L429 28L464 49L489 72L496 81L175 81L175 102L509 102L515 118L517 143L517 156L582 143L598 132ZM98 831L163 799L490 799L490 874L555 863L571 853L555 843L555 799L866 799L910 847L964 799L964 777L663 777L663 718L829 718L861 745L921 697L894 675L894 611L829 578L829 611L163 611L163 509L160 443L155 380L149 317L140 257L130 199L117 142L102 88L86 35L66-15L43-63L34-59L46-9L58 43L68 96L77 150L85 206L91 263L95 322L98 383L99 445L98 509L98 831ZM665 396L652 398L640 402L628 408L617 416L608 425L601 437L596 449L594 463L593 476L593 611L657 600L673 589L657 580L657 523L785 560L822 573L837 580L845 583L845 584L846 584L851 586L854 576L902 535L903 519L881 528L872 525L837 518L817 515L795 512L746 507L718 505L689 504L658 504L657 504L657 476L657 470L657 465L658 461L659 457L660 455L662 454L666 452L671 451L679 449L910 449L937 541L947 541L937 449L953 439L964 423L953 406L937 396L740 396L758 377L761 358L737 364L714 351L675 332L663 327L833 327L867 365L910 327L910 306L582 306L582 254L797 254L830 292L873 254L873 233L582 233L582 181L866 181L900 218L943 181L943 159L157 159L157 181L517 181L517 233L226 233L226 254L517 254L517 306L189 306L189 327L413 327L412 328L408 340L404 347L393 362L386 370L357 396L344 403L347 408L256 391L221 385L209 384L199 366L187 381L170 444L181 445L214 446L249 448L259 449L259 611L324 600L340 589L324 580L324 541L447 541L490 589L544 541L544 519L324 519L324 454L360 457L440 465L482 469L525 473L570 476L572 467L529 453L487 441L407 421L367 412L353 410L362 407L377 405L390 402L415 394L426 390L437 384L456 372L465 364L470 341L462 327L633 327L638 331L668 366L693 396L679 396L665 396ZM356 697L163 697L163 632L356 632L356 697ZM598 697L421 697L421 632L598 632L598 697ZM829 697L663 697L663 632L829 632L829 697ZM356 777L163 777L163 718L356 718L356 777ZM421 777L421 718L598 718L598 777L421 777Z"/></svg>