<svg id="U2E53A" viewBox="0 0 1024 1024"><path transform="translate(0, 921.6) scale(1,-1)" d="M501 277L853 277L856 281L857 281L885 304L944 256L917 240L902 233L880 196L842 145L798 98L759 66L792 48L834 31L880 17L979-4L916-63L861-47L810-28L765-5L723 23L712 32L697 22L640-8L579-32L514-52L444-65L370-71L369-62L440-45L506-24L566 1L622 28L672 60L677 64L655 87L629 125L608 165L594 209L586 255L588 256L501 256L501 277ZM718 732L750 790L769 831L780 859L779 860L785 870L838 834L847 817L823 816L801 792L765 757L751 745L735 733L735 732L829 732L883 786L947 732L947 711L769 711L769 613L827 613L871 661L924 613L924 591L769 591L769 497L827 497L871 545L924 497L924 475L769 475L769 371L873 371L917 419L971 371L971 349L578 349L514 317L514 653L477 616L450 592L432 578L451 562L424 541L424 299L360 267L360 299L280 299L280 107L348 128L369 134L361 154L353 173L331 213L318 233L325 240L363 208L379 191L394 174L407 154L418 135L429 115L437 94L443 72L448 49L440 26L418 15L395 22L384 44L384 62L382 80L379 98L374 117L373 120L328 92L266 60L170 18L103-8L90-13L84-33L68-20L39 38L216 87L216 299L136 299L136 234L72 202L72 616L136 584L216 584L216 724L205 721L167 711L128 703L89 698L50 696L49 706L121 731L157 745L225 775L259 792L324 830L388 874L412 839L427 823L428 804L409 812L353 780L317 762L280 747L247 734L280 729L296 718L280 709L280 584L360 584L392 611L421 587L475 663L510 719L514 725L514 732L517 732L540 777L554 807L566 837L575 862L574 862L579 874L637 843L648 828L627 824L606 781L588 752L575 732L718 732ZM843 256L596 256L615 217L636 180L661 147L688 117L716 94L759 136L796 180L828 228L843 256ZM216 562L136 562L136 320L216 320L216 562ZM360 562L280 562L280 320L360 320L360 562ZM704 475L578 475L578 371L704 371L704 475ZM704 591L578 591L578 497L704 497L704 591ZM704 711L578 711L578 613L704 613L704 711Z"/></svg>