<svg id="U2EAF4" viewBox="0 0 1024 1024"><path transform="translate(0, 921.6) scale(1,-1)" d="M776-24L776-8L884-8L890-7L895-6L900-4L902-2L904 3L905 8L906 14L906 767L530 767L530 788L906 788L938 815L997 767L970 745L970 14L969 1L967-13L963-26L956-38L947-49L936-58L924-65L911-69L897-71L884-72L884-40L776-24ZM74-80L50-74L38-52L45-28L55-18L65-5L74 10L82 26L90 44L104 87L110 111L115 137L120 165L130 165L133 136L135 109L136 82L135 58L132 33L128 11L122-11L115-31L106-51L95-69L74-80ZM337 18L335 32L332 46L329 60L324 74L318 88L311 103L293 133L281 147L288 154L319 133L334 121L347 109L359 95L370 81L380 65L388 49L395 32L401 14L395-10L374-23L351-17L337 3L337 18ZM254-38L230-45L209-32L202-9L206 3L208 15L209 28L210 43L209 58L208 74L206 91L203 109L199 128L193 147L201 152L212 134L224 118L234 101L242 84L249 67L255 51L260 34L264 17L265 0L266-17L254-38ZM466 41L461 55L456 69L450 82L434 108L425 121L415 134L403 147L390 158L395 166L411 159L428 152L444 143L459 133L486 110L499 97L510 83L521 68L530 52L530 27L513 10L488 10L471 27L466 41ZM559 478L623 446L752 446L785 473L844 424L817 403L817 131L752 98L752 163L623 163L623 98L559 66L559 478ZM752 424L623 424L623 184L752 184L752 424ZM168 229L103 197L103 595L68 556L42 533L35 539L102 659L134 722L163 789L177 824L192 867L249 836L260 820L240 817L215 764L213 761L356 761L388 788L447 740L421 724L404 717L390 697L378 683L330 637L279 595L415 595L447 621L507 573L480 552L480 229L415 197L415 229L168 229ZM259 401L168 401L168 251L259 251L259 401ZM415 401L324 401L324 251L415 251L415 401ZM259 573L168 573L168 423L259 423L259 573ZM415 573L324 573L324 423L415 423L415 573ZM352 740L201 740L157 667L137 637L122 618L168 595L262 595L278 615L319 676L330 694L346 725L352 739L352 740ZM803 670L867 616L867 595L511 595L511 616L749 616L803 670Z"/></svg>