<svg id="U2E763" viewBox="0 0 1024 1024"><path transform="translate(0, 921.6) scale(1,-1)" d="M865 245L886 293L897 293L886 245L899 236L906 226L906 366L798 366L817 363L833 352L817 342L817 277L816 270L816 261L817 255L818 253L821 251L825 248L831 246L839 245L865 245ZM221 869L286 858L302 847L286 838L286 724L339 724L393 777L458 724L458 702L286 702L286 600L356 600L388 627L447 578L420 557L420 256L356 224L356 277L286 277L286 154L349 154L402 208L467 154L467 132L286 132L286-45L221-77L221 132L39 132L39 154L221 154L221 277L151 277L151 240L86 208L86 632L151 600L221 600L221 702L49 702L49 724L221 724L221 869ZM607 198L666 169L788 169L817 196L874 147L847 128L847 18L788-12L788 28L666 28L666 12L607-17L607 198ZM788 147L666 147L666 50L788 50L788 147ZM632 366L548 366L548 189L562 204L575 221L587 239L598 256L607 274L615 292L622 310L627 329L630 349L632 363L632 366ZM221 433L151 433L151 299L221 299L221 433ZM356 433L286 433L286 299L356 299L356 433ZM558 706L622 674L831 674L864 700L923 652L896 631L896 473L831 441L831 484L622 484L622 468L558 435L558 706ZM221 578L151 578L151 455L221 455L221 578ZM356 578L286 578L286 455L356 455L356 578ZM831 652L622 652L622 505L831 505L831 652ZM914 853L978 799L978 777L478 777L478 799L860 799L914 853ZM964-8L962-20L959-32L953-44L946-54L936-63L925-70L913-74L901-77L888-78L888-48L806-33L806-19L888-19L893-18L897-18L900-16L902-14L903-11L904-8L905-2L906 5L906 220L899 210L886 202L839 202L826 201L814 202L802 205L790 210L779 218L771 227L763 238L758 250L754 263L753 277L753 366L672 366L696 358L710 344L690 336L680 311L670 289L657 269L644 251L628 233L611 218L593 203L573 191L552 180L548 185L548-45L489-74L489 417L548 388L906 388L935 414L992 366L965 347L965 5L964-8Z"/></svg>