<svg id="U2E099" viewBox="0 0 1024 1024"><path transform="translate(0, 921.6) scale(1,-1)" d="M388 645L453 591L453 570L264 570L264-47L210-74L210 570L46 570L46 591L335 591L388 645ZM559-24L559-8L645-8L652-7L657-6L660-5L662-4L663-3L664-2L665-1L666 3L666 8L667 14L667 229L580 229L516 197L516 434L580 402L817 402L850 428L909 380L882 359L882 229L817 197L817 229L731 229L731 14L730 1L728-13L724-26L717-38L708-49L697-58L685-65L672-69L659-71L645-72L645-40L559-24ZM531 169L530 169L532 174L533 174L536 180L591 146L601 130L580 127L565 105L550 85L516 47L477 12L454-4L431-19L407-33L401-25L436 16L467 56L494 95L516 134L525 154L531 169ZM903 11L885 47L864 78L840 108L815 134L802 147L787 158L791 167L828 154L846 146L864 135L881 124L898 111L914 96L944 63L958 45L961 20L947 1L923-3L903 11ZM91 483L150 472L165 461L150 452L150 298L148 253L144 211L138 173L131 138L122 105L111 77L99 52L84 31L67 13L49 2L43 8L53 25L61 45L69 66L76 89L81 116L86 146L89 179L91 216L92 255L91 298L91 483ZM334 483L393 472L408 461L393 452L393 106L334 77L334 483ZM817 380L580 380L580 251L817 251L817 380ZM424 471L424 492L667 492L667 591L566 591L566 575L502 542L502 857L566 825L831 825L864 852L923 803L896 782L896 580L831 548L831 591L731 591L731 492L908 492L941 530L984 492L984 471L424 471ZM831 700L566 700L566 612L831 612L831 700ZM831 803L566 803L566 721L831 721L831 803ZM337 840L401 787L401 765L93 765L93 787L283 787L337 840Z"/></svg>