<svg id="U2E14D" viewBox="0 0 1024 1024"><path transform="translate(0, 921.6) scale(1,-1)" d="M434 457L499 403L499 382L292 382L292-56L232-85L232 382L52 382L52 403L380 403L434 457ZM912 5L944 139L955 139L944 5L964-8L976-27L964-47L944-60L622-60L608-59L595-56L582-52L570-46L559-37L550-26L543-14L539-1L537 12L536 26L536 582L600 571L616 561L600 551L600 26L601 20L602 15L603 12L603 10L604 9L606 8L607 7L610 6L615 5L622 5L912 5ZM104 323L164 312L178 302L164 292L164 188L161 155L157 124L150 96L142 69L132 46L120 25L106 7L90-8L72-19L54-27L50-20L62-6L72 8L81 24L88 41L95 60L99 81L103 105L104 130L105 158L104 188L104 323ZM368 323L433 312L449 302L433 292L433 55L368 23L368 323ZM342 610L332 635L325 648L317 661L308 674L296 688L269 715L253 730L240 739L216 739L182 688L159 658L133 630L105 604L75 580L42 557L36 564L84 624L106 653L144 712L160 743L174 774L187 805L197 837L205 869L208 878L267 852L280 838L260 832L240 783L228 760L426 760L480 814L544 760L544 739L272 739L281 735L301 726L336 705L352 692L366 680L379 666L391 651L400 635L401 611L384 593L442 545L442 523L103 523L103 545L324 545L372 593L359 593L342 610ZM766 610L757 635L750 648L742 661L732 674L721 688L694 715L678 730L665 739L638 739L628 723L607 695L583 667L557 642L529 618L499 597L466 578L460 586L509 639L531 666L551 693L570 721L585 749L600 778L611 807L622 838L628 864L632 878L692 852L704 837L684 832L679 818L664 784L651 760L856 760L910 814L974 760L974 739L696 739L706 735L726 726L761 705L776 692L790 680L803 666L815 651L825 635L825 611L809 593L784 593L766 610Z"/></svg>