<svg id="U2E1E5" viewBox="0 0 1024 1024"><path transform="translate(0, 921.6) scale(1,-1)" d="M297 286L285 312L268 339L259 353L236 382L225 395L225-51L160-83L160 312L153 290L136 246L117 204L96 164L73 126L48 91L21 60L13 66L48 140L64 179L79 219L93 261L106 305L116 351L126 397L134 447L139 482L21 482L21 503L160 503L160 874L225 863L241 853L225 843L225 503L242 503L295 557L360 503L360 482L225 482L225 421L238 415L256 405L272 394L303 370L317 359L330 346L352 319L356 294L341 275L316 271L297 286ZM602 358L597 373L590 387L582 402L573 417L561 432L549 447L534 462L528 467L528-45L464-77L464 379L435 312L410 263L384 218L355 174L323 134L290 97L282 103L330 190L373 281L393 330L410 380L426 432L440 487L453 543L464 598L464 605L361 605L361 627L464 627L464 858L528 847L544 837L528 827L528 627L559 627L603 675L657 627L657 605L528 605L528 490L547 482L567 471L586 459L604 446L620 432L634 416L646 399L658 381L667 362L664 338L646 321L621 324L605 342L602 358ZM909 146L890 184L874 225L858 270L844 318L831 370L820 426L818 436L818-45L754-77L754 402L742 370L718 317L692 267L663 220L631 176L596 137L558 102L551 109L580 150L607 193L632 238L656 285L677 335L695 388L712 444L727 502L739 563L746 611L673 611L673 632L754 632L754 863L818 853L835 842L818 832L818 632L867 632L921 686L985 632L985 611L818 611L818 577L858 435L892 334L910 289L928 249L947 212L967 181L987 153L930 110L909 146ZM294 816L355 792L368 778L349 772L331 723L302 653L279 607L251 561L243 564L253 617L275 714L289 784L292 806L294 816ZM84 610L83 628L81 647L78 667L75 687L71 706L54 770L46 792L55 797L82 759L95 739L116 700L124 680L132 660L144 619L149 598L142 575L120 563L96 570L85 591L84 610Z"/></svg>