<svg id="U2E6E0" viewBox="0 0 1024 1024"><path transform="translate(0, 921.6) scale(1,-1)" d="M925-13L918-25L911-36L901-45L891-54L880-60L867-66L854-69L841-71L828-72L828-40L720-24L720-8L828-8L835-7L841-6L846-4L851-3L854-1L858 3L861 6L865 10L868 16L876 37L880 54L885 75L888 99L891 125L895 187L896 259L896 288L815 288L801 225L783 163L762 108L737 58L708 15L675-23L638-53L599-76L593-68L625-38L653-4L679 34L701 77L720 125L736 178L749 237L756 288L629 288L629 310L759 310L765 370L769 458L833 443L849 432L831 422L826 365L818 310L896 310L929 337L988 288L961 272L961 259L960 220L959 184L958 150L956 119L952 90L948 64L943 40L938 18L931-1L925-13ZM359-18L359-2L467-2L473-2L478-1L483 1L485 3L486 5L487 8L488 13L488 19L488 302L454 274L454 253L436 260L391 306L488 368L488 632L411 632L411 654L488 654L488 863L553 853L569 842L553 832L553 654L577 654L601 686L633 654L633 632L553 632L553 409L606 440L630 453L636 446L618 425L580 385L553 359L553 19L552 6L550-8L545-20L539-33L530-44L519-52L507-59L494-63L480-66L467-67L467-34L359-18ZM68-31L39 27L80 39L80 396L139 385L154 374L139 365L139 56L200 74L200 509L142 509L142 492L78 460L78 820L142 788L304 788L336 815L395 767L368 745L368 476L304 444L304 509L259 509L259 310L308 310L341 347L384 310L384 288L259 288L259 93L390 137L394 128L332 88L268 54L203 23L102-19L90-23L84-44L68-31ZM661 826L725 793L883 793L915 820L974 772L947 750L947 460L883 428L883 492L725 492L725 428L661 396L661 826ZM883 772L725 772L725 514L883 514L883 772ZM304 767L142 767L142 530L304 530L304 767Z"/></svg>