<svg id="U2E3F0" viewBox="0 0 1024 1024"><path transform="translate(0, 921.6) scale(1,-1)" d="M316 2L326 5L355 11L425 28L425 627L489 616L506 605L489 596L489 378L553 378L597 427L651 378L651 357L489 357L489 43L591 67L672 82L674 73L600 39L495-3L365-50L358-69L344-57L316 2ZM917 25L950 160L960 160L950 25L969 12L982-7L969-26L950-39L782-39L768-39L755-37L742-32L730-25L719-17L710-6L703 6L699 19L697 33L696 47L696 627L760 616L776 605L760 596L760 333L881 420L929 456L928 457L929 456L933 460L956 426L972 408L973 389L953 397L888 363L815 330L760 309L760 47L761 40L762 35L764 30L766 28L771 26L775 25L917 25ZM70 596L135 563L277 563L309 590L368 542L342 520L342 68L277 36L277 79L135 79L135 15L70-18L70 596ZM277 240L135 240L135 101L277 101L277 240ZM277 391L135 391L135 262L277 262L277 391ZM277 542L135 542L135 412L277 412L277 542ZM630 868L695 857L711 846L695 837L695 752L861 752L915 806L980 752L980 731L695 731L695 641L630 609L630 731L394 731L394 641L329 609L329 731L44 731L44 752L329 752L329 868L394 857L410 846L394 837L394 752L630 752L630 868Z"/></svg>