<svg id="U2E410" viewBox="0 0 1024 1024"><path transform="translate(0, 921.6) scale(1,-1)" d="M886-25L851 6L818 38L788 72L761 108L737 145L717 184L700 224L686 266L678 305L597 305L597 32L693 51L725 56L758 60L761 51L701 23L588-21L505-50L498-70L483-58L456 2L466 5L519 16L532 19L532 632L597 599L832 599L865 626L924 578L897 556L897 305L832 273L832 305L690 305L728 238L751 203L774 170L794 147L857 202L882 226L903 249L909 256L908 257L914 262L957 214L960 195L938 201L914 186L881 168L844 151L825 142L804 135L829 109L859 81L892 54L926 30L984-8L924-53L886-25ZM116 640L180 607L353 607L385 634L444 586L417 564L417 30L417 17L415 3L410-10L403-22L395-33L384-42L372-48L359-53L345-55L331-56L331-24L235-8L235 9L331 9L338 9L343 10L346 11L348 12L350 13L351 16L352 19L353 24L353 262L180 262L180 225L178 182L173 142L166 104L156 70L145 40L130 12L114-11L95-31L74-46L51-55L46-47L60-30L73-12L85 8L94 31L102 55L108 83L113 114L115 148L117 185L116 225L116 640ZM353 428L180 428L180 283L353 283L353 428ZM832 448L597 448L597 327L832 327L832 448ZM353 586L180 586L180 449L353 449L353 586ZM832 578L597 578L597 469L832 469L832 578ZM630 876L695 865L711 854L695 845L695 766L861 766L915 820L980 766L980 745L695 745L695 660L630 628L630 745L394 745L394 660L329 628L329 745L44 745L44 766L329 766L329 876L394 865L410 854L394 845L394 766L630 766L630 876Z"/></svg>