<svg id="U2E7FA" viewBox="0 0 1024 1024"><path transform="translate(0, 921.6) scale(1,-1)" d="M109 368L174 335L368 335L401 362L460 314L433 292L433 13L368-19L368 45L174 45L174-19L109-52L109 368ZM915 34L947 169L958 169L947 34L967 22L980 2L967-17L947-30L602-30L588-30L575-27L562-23L550-16L539-7L530 4L524 16L520 29L517 42L516 56L516 533L581 501L859 501L891 527L950 479L923 457L923 226L859 194L859 259L581 259L581 56L581 49L582 45L583 41L584 39L585 39L586 38L588 37L591 35L596 35L602 34L915 34ZM368 314L174 314L174 67L368 67L368 314ZM689 479L581 479L581 280L689 280L689 479ZM859 479L753 479L753 280L859 280L859 479ZM428 567L417 588L404 610L390 632L354 678L311 726L283 755L251 692L202 609L145 531L113 494L80 459L44 426L37 432L91 512L140 592L184 674L221 759L237 802L254 854L313 825L324 809L304 805L294 779L291 772L329 748L358 728L384 707L429 664L449 641L466 619L481 596L495 572L495 547L479 530L454 529L436 546L428 567ZM362 548L427 495L427 473L142 473L142 495L308 495L362 548ZM554 839L619 807L831 807L863 834L922 785L895 764L895 576L831 544L831 576L619 576L554 544L554 839ZM831 785L619 785L619 598L831 598L831 785Z"/></svg>