<svg id="U2EA9C" viewBox="0 0 1024 1024"><path transform="translate(0, 921.6) scale(1,-1)" d="M517 304L606 304L606 417L519 417L519 337L517 304ZM484 2L547 12L547 267L612 256L628 245L612 235L612 154L659 154L692 191L735 154L735 132L612 132L612 24L638 28L663 33L715 42L743 46L745 37L697 11L649-10L578-37L531-52L529-53L522-73L508-59L484 2ZM920 14L952 148L963 148L952 14L972 1L985-18L972-38L952-51L838-51L824-49L810-47L797-43L785-36L774-27L766-17L759-4L755 9L752 22L752 35L752 267L816 256L832 245L816 235L816 144L860 175L903 212L911 220L942 177L950 168L951 149L929 158L895 145L862 134L826 123L816 121L816 29L817 24L818 21L820 19L820 18L821 17L826 16L831 15L838 14L920 14ZM363-23L356-34L346-44L337-52L326-60L314-66L302-70L289-74L276-76L263-76L263-44L177-28L177-12L263-12L270-11L277-10L282-9L288-7L293-4L297-2L301 2L306 7L309 12L313 19L322 37L329 59L336 84L342 112L346 144L350 180L352 218L353 259L353 299L352 298L352 341L144 341L80 309L80 841L144 809L303 809L357 862L421 809L421 787L290 787L290 656L319 656L363 705L416 656L416 635L290 635L290 510L319 510L363 558L416 510L416 488L290 488L290 363L352 363L385 390L444 341L417 326L418 304L418 258L417 215L414 174L410 137L405 102L399 69L391 40L381 13L370-11L363-23ZM74-4L51 4L41 26L49 49L56 56L64 66L71 80L78 97L84 118L89 142L93 170L101 234L103 270L113 271L120 235L124 201L127 169L128 139L128 112L125 87L122 64L116 43L108 24L97 6L74-4ZM197 49L173 43L152 56L146 80L150 93L153 108L155 123L157 139L157 155L157 174L157 192L156 212L154 232L150 253L159 256L168 237L178 218L186 198L199 161L203 142L207 124L209 106L210 88L210 70L197 49ZM221 136L222 150L221 164L220 178L218 192L216 208L213 223L209 238L204 254L198 269L206 275L216 261L228 248L239 234L257 206L264 191L271 175L277 159L281 142L285 126L276 103L254 92L231 101L220 123L221 136ZM281 199L280 210L278 221L275 233L272 245L267 256L256 280L250 291L241 302L246 309L258 301L271 294L284 285L295 276L305 266L315 254L323 242L331 230L338 216L344 202L340 177L320 163L296 167L281 188L281 199ZM747 417L670 417L670 304L747 304L747 417ZM889 417L812 417L812 304L889 304L889 417ZM225 488L144 488L144 363L225 363L225 488ZM606 535L519 535L519 439L606 439L606 535ZM747 535L670 535L670 439L747 439L747 535ZM225 635L144 635L144 510L225 510L225 635ZM756 788L683 788L683 557L756 557L756 788ZM902 766L957 732L967 715L944 713L887 632L860 596L846 576L837 581L846 603L860 646L885 718L897 754L896 755L902 766ZM536 621L535 632L533 645L530 658L525 673L513 705L497 741L486 760L494 766L509 750L524 735L550 706L572 678L588 650L595 636L600 621L594 598L574 584L550 590L536 611L536 621ZM225 787L144 787L144 656L225 656L225 787ZM516 283L511 241L504 195L496 151L485 109L471 68L456 29L437-8L417-42L393-74L385-69L399-33L422 41L432 80L440 119L446 160L451 202L454 246L455 290L454 337L454 589L519 557L618 557L618 788L451 788L451 810L852 810L906 863L970 810L970 788L821 788L821 557L857 557L910 611L975 557L975 535L812 535L812 439L889 439L922 466L981 417L954 396L954 283L889 251L889 283L516 283Z"/></svg>