<svg id="U2E83B" viewBox="0 0 1024 1024"><path transform="translate(0, 921.6) scale(1,-1)" d="M897-39L870-17L845 8L821 35L799 65L780 96L762 130L746 166L733 204L728 226L714 181L690 129L660 82L624 40L582 4L536-27L483-52L425-71L422-62L474-34L520-3L560 31L594 68L622 108L645 151L663 198L673 240L462 240L462 35L403 6L403 35L138 35L138-29L73-61L73 643L138 611L189 611L189 761L45 761L45 783L374 783L428 837L493 783L493 761L336 761L336 611L403 611L432 638L489 589L462 570L462 261L677 261L682 305L685 364L685 377L749 363L765 352L747 342L744 298L737 261L859 261L913 315L977 261L977 240L738 240L795 149L817 121L839 96L861 73L885 52L910 33L935 16L987-12L926-60L897-39ZM403 170L138 170L138 57L403 57L403 170ZM400 327L403 323L403 589L336 589L336 363L337 356L338 351L340 346L342 344L344 342L346 341L349 340L352 340L382 452L393 452L382 339L400 327ZM476 380L476 402L687 402L687 524L519 524L519 545L687 545L687 667L496 667L496 689L766 689L770 699L787 773L791 789L795 806L804 853L807 861L866 833L878 818L856 813L835 773L806 725L783 693L780 689L824 689L878 742L943 689L943 667L752 667L752 545L801 545L855 599L920 545L920 524L752 524L752 402L844 402L898 455L963 402L963 380L476 380ZM287 761L243 761L243 611L287 611L287 761ZM621 719L620 733L617 760L611 787L608 800L601 826L596 840L590 852L597 857L607 847L618 838L629 827L639 816L648 804L657 791L672 763L678 748L684 733L680 709L660 694L636 699L621 719ZM365 280L352 282L339 284L327 289L316 296L306 304L298 314L293 326L289 338L288 351L287 363L287 589L243 589L241 547L237 498L232 453L224 411L216 373L206 339L193 308L179 282L162 260L144 243L138 248L148 269L157 292L165 319L173 348L179 381L184 418L187 457L189 502L190 549L190 589L138 589L138 191L403 191L403 297L400 292L382 280L365 280Z"/></svg>