<svg id="U2E3F" viewBox="0 0 709 1000"><path transform="translate(0, 900) scale(1,-1)" d="M322 692L322 760L383 760L383 696L386 696Q436 696 485 691L485 691L485 760L546 760L546 684Q580 678 611.50 671Q643 664 672 655L672 655L646 585Q618 592 593.50 598Q569 604 546 608L546 608L546 290Q577 295 606.50 303.50Q636 312 663 324L663 324L663 180Q636 170 607 162.50Q578 155 546 149L546 149L546-127L485-127L485 141Q435 136 383 136L383 136L383-127L322-127L322 139Q201 151 129.50 220Q58 289 58 426L58 426Q58 505 91.50 561Q125 617 185 650Q245 683 322 692L322 692ZM378 186L378 186Q451 186 509 194Q567 202 611 215L611 215L611 253Q559 240 502.50 233.50Q446 227 396 228L396 228Q284 228 223 274Q162 320 162 423L162 423Q162 514 206.50 567Q251 620 322 639L322 639L322 652Q265 643 217.50 613.50Q170 584 141.50 535.50Q113 487 113 420L113 420Q113 351 140.50 298.50Q168 246 227 216Q286 186 378 186ZM429 619L429 619Q405 619 383 615L383 615L383 277Q389 277 395 277L395 277Q442 277 485 281L485 281L485 617Q458 619 429 619ZM213 430L213 430Q213 308 322 284L322 284L322 598Q275 577 244 535Q213 493 213 430Z"/></svg>