<svg id="U2E3D4" viewBox="0 0 1024 1024"><path transform="translate(0, 921.6) scale(1,-1)" d="M899 9L931 143L942 143L931 9L951-4L964-24L951-43L931-56L663-56L649-55L635-53L622-48L610-42L599-33L590-22L584-10L579 3L577 17L577 30L577 214L440 214L430 171L413 125L389 84L361 47L327 15L287-12L243-35L194-53L141-65L82-73L81-63L136-46L185-26L228-3L265 22L296 49L322 79L343 112L359 148L371 187L375 214L120 214L120 235L292 235L292 365L82 365L82 387L292 387L292 505L356 495L372 484L356 474L356 387L668 387L668 505L732 495L749 484L732 474L732 387L835 387L888 440L953 387L953 365L732 365L732 235L808 235L861 289L926 235L926 214L641 214L641 24L642 19L644 14L646 12L647 11L651 10L656 9L663 9L899 9ZM668 365L356 365L356 235L668 235L668 365ZM480 696L544 685L560 674L544 664L544 573L754 573L808 626L872 573L872 551L544 551L544 454L480 421L480 551L157 551L157 573L480 573L480 696ZM670 878L734 868L750 857L734 847L734 774L856 774L910 828L974 774L974 753L734 753L734 674L670 642L670 753L541 753L541 774L670 774L670 878ZM284 878L349 868L365 857L349 847L349 774L379 774L423 823L477 774L477 753L349 753L349 674L284 642L284 753L44 753L44 774L284 774L284 878Z"/></svg>