<svg id="U2E0C7" viewBox="0 0 1024 1024"><path transform="translate(0, 921.6) scale(1,-1)" d="M732-29L732-13L807-13L814-12L818-11L823-10L825-8L826-6L828-3L828 2L829 9L829 175L563 175L563-45L499-77L499 439L563 406L829 406L861 433L920 385L893 363L893 9L892-5L890-18L886-31L879-44L870-54L859-63L847-70L834-74L821-76L807-77L807-45L732-29ZM352 298L345 311L330 337L321 349L310 362L287 387L264 408L264-38L200-70L200 369L189 339L169 292L148 248L124 205L99 165L72 126L42 91L34 97L93 221L127 309L142 355L155 403L167 452L177 503L183 538L37 538L37 560L200 560L200 744L137 729L94 721L49 714L46 724L202 786L263 813L314 840L334 852L351 864L365 842L392 814L393 795L373 803L338 788L282 767L264 762L264 560L294 560L347 613L412 560L412 538L264 538L264 425L286 418L303 411L321 403L337 394L352 383L381 360L394 347L406 333L410 309L396 289L372 284L352 298ZM661 385L563 385L563 197L661 197L661 385ZM829 385L725 385L725 197L829 197L829 385ZM414 492L414 514L661 514L661 611L475 611L475 632L661 632L661 729L449 729L449 750L661 750L661 863L725 853L742 842L725 832L725 750L829 750L882 804L947 750L947 729L725 729L725 632L819 632L863 681L917 632L917 611L725 611L725 514L885 514L929 562L983 514L983 492L414 492Z"/></svg>