<svg id="U2EB60" viewBox="0 0 1024 1024"><path transform="translate(0, 921.6) scale(1,-1)" d="M925-22L917-32L908-41L897-49L886-56L875-62L863-66L850-69L837-71L823-72L823-40L716-24L716-8L823-8L831-7L838-6L844-4L850-3L855 0L860 3L869 11L873 17L878 23L881 30L885 42L889 59L892 80L895 104L897 132L899 165L900 200L900 229L900 272L641 272L582 242L582 775L641 745L711 745L713 749L714 763L717 776L725 828L727 842L729 855L730 863L729 863L733 876L793 849L805 834L782 828L773 812L750 776L742 765L733 754L725 745L849 745L881 772L940 724L914 702L914 476L849 444L849 487L641 487L641 401L877 401L921 449L974 401L974 380L641 380L641 294L900 294L932 320L991 272L964 256L965 240L965 199L964 162L962 128L959 98L956 70L952 46L947 25L941 6L932-10L925-22ZM282 77L177 77L177-1L282-1L282 77ZM568-6L560-3L560-23L177-23L177-39L113-71L113 225L91 199L70 178L48 158L41 163L93 265L113 309L113 335L122 330L134 360L142 384L147 401L146 402L151 414L209 384L221 369L200 365L186 337L169 307L177 303L293 303L294 303L298 324L301 334L304 345L309 366L317 392L316 393L322 403L375 367L385 350L360 349L345 333L321 310L313 303L312 303L413 303L466 356L531 303L531 281L346 281L346 203L398 203L442 251L495 203L495 181L346 181L346 98L398 98L442 147L495 98L495 77L346 77L346-1L442-1L496 53L539 17L535 25L544 48L551 53L558 61L564 71L571 84L577 99L582 116L586 135L590 158L593 181L594 208L604 208L614 158L616 134L618 112L618 91L616 72L613 53L608 36L601 19L591 4L568-6ZM695 29L671 25L651 41L647 65L651 72L654 80L657 89L659 100L660 112L661 126L661 140L660 156L659 173L655 190L664 194L672 177L688 147L695 132L700 118L704 104L707 90L709 76L710 62L710 48L695 29ZM737 105L739 126L739 136L739 146L737 156L735 166L732 176L729 187L722 195L728 202L737 195L748 188L758 180L767 171L775 160L782 149L788 137L793 124L797 110L800 95L790 72L767 62L745 72L735 95L737 105ZM282 181L177 181L177 98L282 98L282 181ZM830 118L818 139L820 152L820 159L818 166L817 174L814 181L809 189L797 206L787 212L791 221L802 216L814 213L825 210L836 204L846 198L855 190L864 181L871 171L877 160L882 147L875 124L854 111L830 118ZM282 281L177 281L177 203L282 203L282 281ZM116 510L171 475L181 457L157 456L143 440L107 408L94 398L64 378L49 368L43 375L55 389L88 444L106 481L110 492L112 498L111 499L116 510ZM496 411L494 419L486 438L481 448L468 468L453 489L443 497L449 505L461 498L472 494L472 518L381 518L322 488L322 850L381 821L472 821L501 848L558 799L531 781L531 518L478 492L486 488L498 482L509 475L530 459L547 441L556 431L557 406L542 388L517 386L498 402L496 411ZM221 432L221 438L220 445L218 452L216 459L213 466L204 482L198 491L190 497L195 505L204 500L215 497L218 496L218 518L130 518L65 485L65 853L130 821L218 821L248 848L304 799L277 781L277 518L227 493L235 489L244 484L252 478L260 472L268 465L275 457L281 449L280 424L261 408L237 409L220 427L221 432ZM371 511L423 473L431 455L405 455L389 441L371 428L361 423L351 418L342 414L334 409L327 416L334 423L338 432L342 441L351 459L354 468L365 496L366 501L365 502L371 511ZM849 605L641 605L641 509L849 509L849 605ZM472 616L381 616L381 539L472 539L472 616ZM218 616L130 616L130 539L218 539L218 616ZM849 724L641 724L641 627L849 627L849 724ZM472 708L381 708L381 638L472 638L472 708ZM218 708L130 708L130 638L218 638L218 708ZM472 799L381 799L381 730L472 730L472 799ZM218 799L130 799L130 730L218 730L218 799Z"/></svg>