<svg id="U2EB7E" viewBox="0 0 1024 1024"><path transform="translate(0, 921.6) scale(1,-1)" d="M791-57L659-52L547-38L454-16L378 13L316 51L291 73L263 44L225 12L183-16L138-40L91-58L39-71L37-62L82-39L125-14L164 13L199 43L231 76L257 109L232 144L207 197L199 224L179 190L159 161L137 133L113 107L86 82L58 59L51 66L108 154L124 183L139 212L152 242L163 272L173 303L180 334L188 375L245 353L245 460L224 435L199 409L172 384L144 360L113 337L81 315L46 295L41 303L120 385L165 439L185 467L220 521L236 549L245 570L245 713L54 713L54 734L245 734L245 874L310 863L326 853L310 843L310 734L356 734L410 788L474 734L474 713L310 713L310 472L327 467L346 460L382 442L400 432L415 420L430 407L444 393L456 378L460 354L446 334L422 330L401 344L395 358L387 371L379 384L368 397L357 409L331 434L310 451L310 353L245 320L245 332L244 331L239 317L229 288L341 288L373 315L432 267L406 251L395 246L383 215L358 166L330 121L318 105L342 88L399 59L470 37L557 21L663 12L790 10L941 17L1001 21L945-53L791-57ZM650 513L715 481L900 481L932 507L992 459L965 438L965 103L900 71L900 135L715 135L715 71L650 39L650 513ZM521 513L585 502L601 491L585 482L585 105L521 73L521 513ZM336 267L220 267L213 252L208 241L227 207L258 161L278 140L307 193L327 239L336 267ZM900 302L715 302L715 157L900 157L900 302ZM900 459L715 459L715 324L900 324L900 459ZM163 546L163 551L163 557L161 564L159 571L157 578L155 582L149 567L137 542L124 518L109 496L92 475L73 457L52 441L45 448L68 491L79 513L88 536L95 559L102 583L108 609L112 634L115 661L117 684L118 701L181 683L196 670L178 662L176 652L168 623L164 607L170 605L179 600L188 596L204 584L211 577L217 569L223 561L221 537L203 520L178 523L162 541L163 546ZM411 502L410 510L408 520L406 530L402 540L399 550L383 583L373 566L363 547L351 530L324 496L316 501L323 520L334 560L343 598L346 616L350 653L351 671L351 684L351 689L351 690L353 701L416 683L430 670L411 661L406 642L399 623L388 595L391 592L403 585L414 578L424 570L435 562L444 553L460 534L467 524L473 513L471 488L453 472L429 474L412 492L411 502ZM909 856L912 848L961 806L963 789L940 799L929 795L895 786L826 770L755 757L718 752L681 747L644 744L630 743L632 742L612 735L601 703L591 677L568 630L556 608L542 587L527 568L510 549L493 533L486 539L503 582L520 625L534 671L540 695L551 744L555 764L554 764L558 780L602 762L745 802L845 833L909 856ZM925 583L922 598L913 628L907 645L893 677L865 731L853 748L860 755L876 740L893 727L909 712L923 698L948 668L969 636L978 620L986 604L984 579L966 563L942 565L925 583ZM723 609L722 621L718 647L716 659L713 672L704 698L700 711L693 723L700 729L710 719L722 709L732 699L743 688L752 676L760 663L768 650L775 637L781 623L786 608L781 584L760 570L736 576L723 597L723 609Z"/></svg>