<svg id="U2E8E6" viewBox="0 0 1024 1024"><path transform="translate(0, 921.6) scale(1,-1)" d="M929 224L902 239L929 217L902 195L902 1L837-31L837 33L742 33L742-31L688-58L688 265L742 238L837 238L867 263L852 273L830 292L809 313L789 335L772 358L756 383L743 409L734 433L644 433L613 380L581 339L546 302L507 270L475 250L498 238L593 238L620 265L674 217L647 201L647 1L593-26L593 33L498 33L498-31L434-63L434 227L418 220L369 203L365 212L409 238L434 256L434 270L446 264L485 297L517 331L545 367L571 407L584 433L388 433L388 455L595 455L611 497L627 547L640 611L698 590L698 838L757 809L841 809L873 835L932 787L906 766L906 607L841 575L841 607L757 607L708 582L715 574L696 567L685 530L665 476L655 455L829 455L883 509L947 455L947 433L750 433L781 402L822 367L842 351L864 335L886 322L909 310L933 298L958 289L990 274L929 224ZM327 663L322 676L307 703L287 730L263 759L248 773L241 779L214 712L195 669L152 588L140 568L265 568L309 616L363 568L363 546L262 546L262 396L289 396L333 444L387 396L387 374L262 374L262 70L344 92L377 99L381 90L351 73L291 41L229 15L167-10L106-32L96-36L89-55L74-42L48 17L152 41L198 53L198 374L69 374L69 396L198 396L198 546L139 546L139 567L103 512L75 476L45 441L37 447L98 567L133 648L164 731L178 774L190 817L203 870L263 845L276 830L257 825L249 799L245 791L276 777L294 768L311 757L327 746L342 733L356 720L368 706L380 692L389 677L390 652L374 634L349 633L331 650L327 663ZM837 217L742 217L742 55L837 55L837 217ZM593 217L498 217L498 55L593 55L593 217ZM114 141L114 158L113 174L110 190L107 206L98 238L86 271L77 287L84 293L111 267L124 253L145 221L154 204L162 187L168 168L174 149L178 130L170 106L149 95L125 103L114 125L114 141ZM318 312L377 284L388 269L367 264L344 220L315 172L281 125L272 130L279 148L287 184L292 202L301 237L312 288L314 299L318 312ZM804 494L803 499L801 506L797 513L786 530L770 547L759 556L746 563L750 572L764 567L779 564L792 561L804 556L816 552L827 546L837 540L847 532L856 524L863 514L863 489L846 471L822 471L804 488L804 494ZM426 841L490 809L575 809L604 835L661 787L634 768L634 607L575 577L575 607L490 607L490 542L426 510L426 841ZM841 787L757 787L757 628L841 628L841 787ZM575 787L490 787L490 628L575 628L575 787Z"/></svg>