<svg id="U2E1A8" viewBox="0 0 1024 1024"><path transform="translate(0, 921.6) scale(1,-1)" d="M422 345L487 313L806 313L838 340L897 291L870 270L870 131L806 99L806 131L679 131L679 62L887 62L931 111L985 62L985 41L679 41L679-54L614-86L614 41L308 41L308 62L614 62L614 131L487 131L422 99L422 345ZM190-75L166-82L145-70L137-47L141-20L141 4L139 26L135 45L129 63L120 80L107 95L92 110L73 123L50 135L52 144L79 140L104 132L128 120L135 115L257 310L326 411L334 406L207 138L195 111L187 89L181 72L180 64L191 39L198 10L201-20L202-53L190-75ZM806 214L487 214L487 153L806 153L806 214ZM806 291L487 291L487 235L806 235L806 291ZM145 330L141 337L135 345L127 354L117 363L106 371L92 381L60 399L42 407L44 416L64 412L84 410L103 407L120 403L136 398L151 392L165 386L178 378L191 369L201 360L206 335L193 314L169 310L148 323L145 330ZM423 366L423 349L358 317L358 535L423 503L529 503L529 567L317 567L317 588L878 588L922 637L975 588L975 567L764 567L764 503L870 503L902 530L961 481L934 460L934 355L870 323L870 366L423 366ZM529 481L423 481L423 387L529 387L529 481ZM699 481L593 481L593 387L699 387L699 481ZM870 481L764 481L764 387L870 387L870 481ZM216 516L211 524L196 541L175 559L163 568L134 587L116 594L119 603L138 599L157 597L174 594L191 589L206 584L221 579L235 573L248 565L260 556L271 547L277 523L265 502L241 496L220 507L216 516ZM699 567L593 567L593 503L699 503L699 567ZM338 664L333 674L327 684L310 705L299 716L271 739L255 752L244 757L219 757L204 738L184 714L160 692L135 670L108 650L78 632L46 616L41 624L89 673L130 720L148 744L178 791L189 816L199 840L209 873L268 844L280 829L259 825L241 789L234 779L423 779L477 833L541 779L541 757L286 757L300 753L317 746L334 738L349 730L375 710L387 698L397 687L400 662L385 642L360 640L341 655L338 664ZM756 664L751 674L745 684L728 705L717 716L689 739L673 752L663 757L635 757L622 742L601 720L578 699L553 680L525 662L496 646L464 632L459 640L530 706L549 728L567 750L582 773L596 795L608 818L617 841L625 866L628 873L686 844L697 828L677 824L658 790L651 779L846 779L900 833L965 779L965 757L704 757L718 753L736 746L752 738L767 730L781 720L794 710L806 698L816 687L818 662L803 642L778 640L759 655L756 664Z"/></svg>