<svg id="U2E645" viewBox="0 0 1024 1024"><path transform="translate(0, 921.6) scale(1,-1)" d="M820 847L804 838L808 634L813 560L854 565L902 625L972 578L975 557L814 539L820 451L837 306L843 277L866 356L887 440L947 416L960 401L942 395L925 339L901 268L874 203L863 181L882 115L906 60L926 26L928 25L954 138L965 138L954 3L976-6L986-29L976-52L954-61L930-56L904-41L876-13L848 30L821 94L819 102L812 91L778 44L740 4L701-30L659-57L615-76L610-67L647-40L682-9L714 27L745 69L773 115L800 167L773 297L756 445L750 532L690 525L687 546L749 553L744 631L740 853L739 871L804 858L820 847ZM61 256L126 224L250 224L282 251L342 202L315 181L315-2L250-34L250-2L126-2L126-40L61-72L61 256ZM250 202L126 202L126 19L250 19L250 202ZM644 284L704 259L717 245L696 238L663 158L646 121L636 102L628 83L618 85L621 106L623 127L625 148L628 167L630 187L632 205L635 224L637 241L640 259L641 270L640 270L644 284ZM254 406L308 358L308 337L69 337L69 358L210 358L254 406ZM631 439L664 573L674 573L664 439L683 426L696 406L683 387L664 374L552 374L538 375L524 378L512 383L500 389L489 398L481 409L475 421L471 434L468 447L468 509L417 501L417 380L415 314L412 271L420 275L429 262L440 249L458 221L473 191L480 175L482 168L482 342L536 331L549 320L536 311L536 32L553 35L559 36L559 342L613 331L627 320L613 311L613 46L651 53L683 58L717 62L720 53L658 25L565-9L502-28L441-46L432-48L424-68L410-54L387 7L482 23L482 98L466 90L443 97L431 118L431 148L429 178L427 194L425 209L417 256L412 268L411 254L407 197L400 145L393 96L383 52L372 12L360-23L345-54L329-79L321-75L328-47L335-16L341 19L346 59L351 102L354 149L357 201L358 256L359 316L358 380L358 710L417 681L488 681L488 869L552 858L568 847L552 838L552 772L609 772L643 810L686 772L686 750L552 750L552 681L642 681L674 707L733 659L707 643L695 638L682 614L668 590L651 565L642 553L635 539L626 543L630 557L633 587L636 601L640 641L642 659L528 659L528 539L542 541L571 582L618 552L621 531L528 517L528 460L528 454L529 448L532 443L533 442L535 441L537 440L540 440L545 439L552 439L631 439ZM254 546L308 498L308 476L69 476L69 498L210 498L254 546ZM468 659L417 659L417 523L468 530L468 659ZM281 702L345 648L345 627L52 627L52 648L227 648L281 702ZM882 700L879 714L871 741L860 768L846 794L839 807L829 819L835 826L848 817L862 809L875 799L887 789L899 777L910 764L930 737L946 706L944 682L925 666L901 668L885 686L882 700ZM254 837L308 788L308 767L69 767L69 788L210 788L254 837Z"/></svg>