<svg id="U2E75C" viewBox="0 0 1024 1024"><path transform="translate(0, 921.6) scale(1,-1)" d="M481 853L546 820L894 820L926 847L986 799L959 777L959-13L894-45L894 19L546 19L546-45L481-77L481 853ZM218 869L282 858L299 847L282 838L282 724L334 724L388 777L452 724L452 702L282 702L282 600L351 600L383 627L442 578L415 557L415 256L351 224L351 277L282 277L282 154L343 154L397 208L461 154L461 132L282 132L282-45L218-77L218 132L38 132L38 154L218 154L218 277L149 277L149 240L85 208L85 632L149 600L218 600L218 702L48 702L48 724L218 724L218 869ZM840 163L821 190L804 219L788 250L774 283L761 318L754 342L754 95L689 63L689 316L667 272L646 239L624 208L600 178L575 153L547 131L546 132L546 41L894 41L894 163L860 138L840 163ZM894 799L546 799L546 146L577 196L611 259L626 292L640 328L653 366L665 405L675 446L680 471L550 471L550 492L689 492L689 630L663 623L633 616L603 611L571 607L569 617L651 656L701 682L746 709L788 739L808 754L845 702L846 682L827 691L797 674L772 662L754 654L754 492L775 492L829 546L894 492L894 471L754 471L754 440L787 368L820 305L837 277L873 227L892 205L894 203L894 799ZM218 433L149 433L149 299L218 299L218 433ZM351 433L282 433L282 299L351 299L351 433ZM218 578L149 578L149 455L218 455L218 578ZM351 578L282 578L282 455L351 455L351 578Z"/></svg>