<svg id="U2F82E" viewBox="0 0 1024 1024"><path transform="translate(0, 921.6) scale(1,-1)" d="M716 824L712 812Q768 772 792 726Q816 680 834 710Q852 740 834 766Q816 792 716 824L716 824ZM400 148L400 148L392 136Q456 76 476 24Q496-28 516-2Q536 24 526 58Q516 92 400 148ZM432 464L432 564L596 564L596 464L432 464ZM648 464L648 564L808 564L808 464L648 464ZM432 344L432 444L596 444L596 344L432 344ZM648 344L648 444L808 444L808 344L648 344ZM856 408L856 548L884 572L832 616L804 584L648 584L648 664L964 664L900 728L856 684L648 684L648 768L676 796L592 832Q596 768 596 684L596 684L312 684L344 652Q380 664 424 664L424 664L596 664L596 584L436 584L380 608Q384 524 384 424L384 424Q384 324 380 228L380 228L432 252L432 324L596 324L596 248L648 272L648 324L808 324L808 272L860 300Q856 360 856 408L856 408ZM756 188L756 188L268 188L300 156Q336 168 380 168L380 168L756 168L756 0Q756-24 726-22Q696-20 636-12L636-12L636-28Q708-48 736-100L736-100Q776-84 792-64Q808-44 808 0L808 0L808 168L984 168L920 232L876 188L808 188L808 228L832 252L752 288Q756 240 756 188ZM168-96L168-96L228-60Q224 12 224 80L224 80L224 520L364 520L304 580L264 540L224 540L224 752L260 776L168 824Q172 752 172 540L172 540L44 540L76 508L112 520L172 520L172 20Q172-32 168-96Z"/></svg>