<svg id="U2FA4" viewBox="0 0 1000 1000"><path transform="translate(0, 900) scale(1,-1)" d="M741 670C718 610 675 523 642 470L706 446C741 497 785 576 820 645ZM189 628C226 570 263 493 275 444L347 471C334 521 295 596 256 652ZM824 827C654 789 349 763 92 751C100 734 109 703 112 682C223 686 343 693 460 704L460 425L62 425L62 350L410 350C319 226 170 106 35 45C53 30 78 1 91-18C222 49 363 169 460 301L460-80L538-80L538 304C637 170 779 45 910-24C923-3 948 27 966 42C832 104 682 225 589 350L941 350L941 425L538 425L538 711C666 724 788 740 885 761Z"/></svg>