<svg id="U2F57" viewBox="0 0 1000 1000"><svg id="U2F57hk" viewBox="0 0 1000 1000"><path transform="translate(0, 900) scale(1,-1)" d="M324 831C261 720 157 608 60 537C77 522 106 489 118 473C217 554 328 680 401 802ZM596 792C698 698 820 565 873 479L943 528C886 614 762 742 660 833ZM329 551L256 529C303 401 366 291 447 199C340 103 203 35 35-10C51-28 75-64 84-83C252-31 391 41 502 142C610 41 745-32 911-75C924-53 947-18 966 0C803 37 668 106 561 201C644 292 709 403 756 538L676 561C636 440 579 339 505 256C428 340 370 439 329 551Z"/><animate attributeName="opacity" values="1;0;0;1;1" dur="2s" repeatCount="indefinite"/></svg><svg id="U2F57jp" viewBox="0 0 1000 1000"><path transform="translate(0, 900) scale(1,-1)" d="M314 824C250 712 143 601 40 531C59 517 92 487 105 470C208 550 321 672 395 796ZM604 784C708 695 833 567 888 485L958 536C898 620 771 742 668 828ZM333 543L259 521C305 396 366 288 445 197C338 101 203 34 36-11C53-29 80-63 90-82C254-31 390 40 500 139C608 36 743-39 909-82C922-59 945-25 964-8C800 30 665 100 559 197C641 286 705 395 752 528L671 552C631 434 575 335 502 254C429 337 372 434 333 543Z"/><animate attributeName="opacity" values="0;1;1;0;0" dur="2s" repeatCount="indefinite"/></svg></svg>