<svg id="U2F944" viewBox="0 0 1024 1024"><path transform="translate(0, 921.6) scale(1,-1)" d="M248 532L248 740L387 740L387 532L248 532ZM440 532L440 740L578 740L578 532L440 532ZM632 532L632 740L780 740L780 532L632 532ZM837 722L837 722L875 743L811 803L780 766L248 766L184 803Q186 770 188.50 727.50Q191 685 191 633L191 633Q191 582 188.50 535.50Q186 489 184 444L184 444L248 469L248 507L780 507L780 469L843 501Q838 550 837.50 604.50Q837 659 837 722ZM477 334L477 34Q471 3 440 3L440 3Q423 3 396.50 5.50Q370 8 333 16L333 16L333-8Q440-20 449-77L449-77Q535-46 528 44L528 44L528 372Q581 229 660 142L660 142Q742 45 865-8L865-8Q884 47 960 47L960 47L960 69Q770 84 651 233L651 233Q708 266 750 291Q792 316 827 334L827 334L871 340L811 416Q768 365 725.50 323.50Q683 282 638 252L638 252Q596 287 572.50 331.50Q549 376 534 428L534 428L559 457L474 504Q474 459 475.50 416.50Q477 374 477 334L477 334ZM292 283L292 283Q326 235 346 274L346 274Q366 307 323 347L323 347Q300 360 263 376.50Q226 393 172 409L172 409L169 396Q263 330 292 283ZM487 268L484 277Q140 104 63 82L63 82L111 22Q151 50 244 110.50Q337 171 487 268L487 268Z"/></svg>