<svg id="U2F8F1" viewBox="0 0 1024 1024"><path transform="translate(0, 921.6) scale(1,-1)" d="M164 248L164 248L156 240Q180 172 180 130L180 130Q180 88 210 102Q240 116 232 154Q224 192 164 248ZM268 488L268 488L156 472L188 448L220 460L268 468L268 416Q268 360 332 360L332 360L412 360Q456 360 470 366Q484 372 500 400L500 400Q480 408 476 430Q472 452 472 488L472 488L460 488Q456 448 450 422Q444 396 416 396L416 396L356 396Q320 396 320 432L320 432L320 476L460 500L404 544L380 508L320 496L320 536L348 560L264 604Q268 556 268 488ZM372 76L308 60L308 268L336 292L256 336Q260 264 260 48L260 48Q148 16 108 12L108 12L144-48Q164-28 216-8Q268 12 564 108L564 108L560 128L420 88L420 136Q452 164 490 198Q528 232 560 244L560 244L500 300Q488 268 466 230Q444 192 420 160L420 160L420 264L448 292L368 336Q372 272 372 76L372 76ZM472 612L440 556L448 548Q472 572 490 588Q508 604 552 612L552 612L504 672L468 632L320 632L320 708L488 708L432 764L396 728L320 728L320 780L352 800L268 844Q272 796 272 632L272 632L148 632L96 660Q100 540 100 422L100 422Q100 304 90 194Q80 84 28-72L28-72L40-76Q120 76 136 220Q152 364 148 612L148 612L472 612ZM672 756L672 756L704 780L620 836Q608 748 588 668Q568 588 508 444L508 444L520 436Q576 520 608 592L608 592L848 592L796 472L808 468Q856 528 876 548Q896 568 952 584L952 584L888 660L848 612L616 612Q644 688 672 756ZM720 452L720 452Q728 276 768 164Q808 52 908-68L908-68Q924-24 988-16L988-16L988-4Q904 24 834 136Q764 248 728 476L728 476L760 500L664 552Q664 324 608 162Q552 0 364-88L364-88L368-100Q536-36 616 80Q696 196 720 452Z"/></svg>