<svg id="U2F42" viewBox="0 0 1000 1000"><svg id="U2F42hk" viewBox="0 0 1000 1000"><path transform="translate(0, 900) scale(1,-1)" d="M423 823C453 774 485 707 497 666L580 693C566 734 531 799 501 847ZM50 664L50 590L206 590C265 438 344 307 447 200C337 108 202 40 36-7C51-25 75-60 83-78C250-24 389 48 502 146C615 46 751-28 915-73C928-52 950-20 967-4C807 36 671 107 560 201C661 304 738 432 796 590L954 590L954 664ZM504 253C410 348 336 462 284 590L711 590C661 455 592 344 504 253Z"/><animate attributeName="opacity" values="1;0;0;1;1" dur="2s" repeatCount="indefinite"/></svg><svg id="U2F42jp" viewBox="0 0 1000 1000"><path transform="translate(0, 900) scale(1,-1)" d="M460 840L460 670L50 670L50 597L199 597C256 437 334 300 438 190C331 102 199 37 39-9C54-27 78-63 87-81C249-29 384 41 494 135C606 36 743-37 910-80C923-59 947-24 965-7C802 31 666 100 556 192C661 299 741 431 800 597L954 597L954 670L537 670L537 840ZM498 246C403 343 331 461 281 597L713 597C661 455 591 339 498 246Z"/><animate attributeName="opacity" values="0;1;1;0;0" dur="2s" repeatCount="indefinite"/></svg></svg>