<svg id="U2F94C" viewBox="0 0 1024 1024"><path transform="translate(0, 921.6) scale(1,-1)" d="M319 4L319 318L756 318L756 4L319 4ZM262-107L262-107L319-77L319-21L756-21L756-84L815-61Q813-36 812 53.50Q811 143 811 298L811 298L847 328L780 383L752 346L319 346L317 379Q386 465 441 550Q496 635 537 723L537 723L959 723L880 806L815 752L83 752L119 712Q136 716 154 718.50Q172 721 191 723L191 723L463 723Q438 655 401 589Q364 523 315 457L315 457Q264 389 201.50 332Q139 275 64 224L64 224L73 206Q130 232 176.50 262.50Q223 293 265 328L265 328Q265-49 262-107ZM625 619L625 619L614 604Q669 568 708.50 533.50Q748 499 777 472L777 472Q804 443 826 416Q848 389 867 366L867 366Q887 345 898 342.50Q909 340 916 358L916 358Q925 396 918 428L918 428Q912 445 893.50 463.50Q875 482 841 503L841 503Q809 525 755 553.50Q701 582 625 619Z"/></svg>