<svg id="U2F933" viewBox="0 0 1024 1024"><path transform="translate(0, 921.6) scale(1,-1)" d="M598 403L598 403L591 392Q612 359 626.50 326Q641 293 649 259L649 259Q668 193 690 230L690 230Q702 248 703 266Q704 284 692.50 304Q681 324 657.50 348Q634 372 598 403ZM440-3L440-3L490-61Q510-36 558 4.50Q606 45 684 101L684 101L676 116L508 27L567 526L753 526L723 7Q717-61 783-61L783-61L885-61Q920-61 938.50-49.50Q957-38 970-7L970-7Q943 12 935 57.50Q927 103 924 166L924 166L907 166Q905 134 902.50 102.50Q900 71 896 41L896 41Q894-19 868-19L868-19L799-19Q767-14 773 31L773 31L803 519L830 546L776 595L750 552L573 552L591 723L935 723L865 797L819 752L451 752L487 716Q503 720 517 721.50Q531 723 540 723L540 723L466 64Q460 14 440-3ZM220 422L220 709L317 709L317 422L220 422ZM364 132L364 394L478 394L417 464L377 422L364 422L364 709L454 709L397 769L363 736L78 736L115 696Q132 702 144.50 705.50Q157 709 168 709L168 709L168 712L168 422L57 422L92 388Q122 397 164 394L164 394L168 394Q168 113 53-77L53-77L61-84Q139-3 177.50 115.50Q216 234 220 394L220 394L317 394L317 132Q317 71 316 20.50Q315-30 312-72L312-72L369-42Q367-15 365.50 28Q364 71 364 132L364 132Z"/></svg>