<svg id="U2F992" viewBox="0 0 1024 1024"><path transform="translate(0, 921.6) scale(1,-1)" d="M356 680L356 680L68 680L100 648Q136 660 180 660L180 660L356 660Q356 596 352 524L352 524L408 552Q408 580 408 660L408 660L636 660Q636 620 632 544L632 544L692 568Q688 612 688 660L688 660L968 660L896 744L840 680L688 680L688 764L724 796L632 832Q636 748 636 680L636 680L408 680L408 768L444 796L352 832Q356 768 356 680ZM196 544L196 544L180 544Q164 464 124 420Q84 376 112 366Q140 356 168 370Q196 384 196 472L196 472L848 472L792 364L808 356Q888 464 956 456L956 456L880 532L840 492L196 492Q196 516 196 544ZM504 380L504 380L536 408L440 452Q444 380 440 296L440 296L156 296L188 264Q224 276 268 276L268 276L436 276Q424 152 340 60Q256-32 68-92L68-92L72-104Q148-88 238-50Q328-12 396 52Q464 116 492 276L492 276L744 276Q736 16 702 6Q668-4 540 16L540 16L540 0Q660-32 660-84L660-84Q732-68 756-20Q780 28 796 260L796 260L828 284L768 332L740 296L496 296Q500 340 504 380Z"/></svg>