<svg id="U2FD4" viewBox="0 0 1000 1000"><svg id="U2FD4hk" viewBox="0 0 1000 1000"><path transform="translate(0, 900) scale(1,-1)" d="M316 745L555 745C541 724 524 702 507 684L249 684C273 704 295 724 316 745ZM64 128L64 84L261 84L261 42L112 42L112-1L319-1L319 80L392 80L392 48C392-51 427-75 546-75C573-75 803-75 832-75C928-75 950-46 960 44C941 48 915 58 899 67C893-2 882-17 829-17C783-17 582-17 546-17C470-17 457-5 457 47L457 635L542 635L542 13L607 13L607 67L896 67L896 432L607 432L607 509L856 509L856 684L584 684C607 709 630 739 646 766L602 796L592 793L360 793L390 830L316 845C265 775 172 691 50 631C66 621 88 598 98 582C120 594 141 607 161 620L161 509L392 509L392 391L319 391L319 469L112 469L112 427L261 427L261 386L66 386L66 344L261 344L261 302L112 302L112 260L319 260L319 338L392 338L392 133L319 133L319 212L112 212L112 170L261 170L261 128ZM607 635L784 635L784 557L607 557ZM607 377L831 377L831 121L607 121ZM231 635L392 635L392 557L231 557ZM623 298C644 285 668 269 690 253C666 223 640 197 612 175C623 168 642 152 649 144C675 166 701 194 725 225C747 206 766 188 779 172L812 207C797 224 776 243 752 262C770 289 787 317 800 345L754 357C744 334 731 311 716 289C695 304 674 317 653 329Z"/><animate attributeName="opacity" values="1;0;0;0;0;1;1" dur="3s" repeatCount="indefinite"/></svg><svg id="U2FD4jp" viewBox="0 0 1000 1000"><path transform="translate(0, 900) scale(1,-1)" d="M300 738L540 738C526 716 508 693 490 674L232 674C257 695 279 716 300 738ZM67 128L67 85L279 85L279 33L114 33L114-6L335-6L335 79L388 79L388 54C388-43 423-68 543-68C570-68 796-68 824-68C927-68 948-35 960 71C940 75 914 85 898 95C892 7 880-12 822-12C775-12 580-12 544-12C468-12 454 0 454 53L454 79L536 79L536 7L602 7L602 56L893 56L893 437L602 437L602 495L848 495L848 674L571 674C595 701 619 731 637 760L589 793L579 790L345 790L374 828L304 843C255 769 162 680 37 616C52 606 74 585 84 571C111 586 136 602 160 618L160 496L388 496L388 385L337 385L337 461L116 461L116 421L281 421L281 379L68 379L68 336L281 336L281 292L114 292L114 253L337 253L337 330L388 330L388 134L335 134L335 214L116 214L116 175L279 175L279 128ZM536 624L536 385L454 385L454 624ZM602 624L780 624L780 545L602 545ZM602 385L831 385L831 108L602 108ZM536 330L536 134L454 134L454 330ZM228 624L388 624L388 546L228 546ZM617 307C641 291 667 271 691 251C669 219 644 189 618 165C630 157 649 142 657 135C681 158 705 187 726 219C749 197 768 176 781 157L814 193C799 213 777 236 751 258C769 289 785 321 797 353L750 365C740 339 728 314 714 289C692 307 669 324 647 338Z"/><animate attributeName="opacity" values="0;1;1;0;0;0;0" dur="3s" repeatCount="indefinite"/></svg><svg id="U2FD4tc" viewBox="0 0 1000 1000"><path transform="translate(0, 900) scale(1,-1)" d="M316 745L555 745C541 724 524 702 507 684L249 684C273 704 295 724 316 745ZM64 128L64 84L261 84L261 42L112 42L112-1L319-1L319 79L392 79L392 48C392-51 427-75 546-75C573-75 803-75 832-75C928-75 950-46 960 44C941 48 915 58 899 67C893-2 882-17 829-17C783-17 582-17 546-17C470-17 457-5 457 47L457 79L890 79L890 391L607 391L607 509L856 509L856 684L584 684C607 709 630 739 646 766L602 796L592 793L360 793L390 830L316 845C265 775 172 691 50 631C66 621 88 598 98 582C120 594 141 607 161 620L161 509L392 509L392 391L319 391L319 469L112 469L112 427L261 427L261 386L66 386L66 344L261 344L261 302L112 302L112 260L319 260L319 337L392 337L392 133L319 133L319 212L112 212L112 170L261 170L261 128ZM542 635L542 391L457 391L457 635ZM607 635L784 635L784 557L607 557ZM542 337L542 133L457 133L457 337ZM627 278C648 265 671 249 693 233C670 204 644 179 617 158C626 152 639 141 647 133L607 133L607 337L829 337L829 133L660 133C683 153 707 178 728 204C751 185 770 167 783 151L816 187C802 204 781 223 757 242C775 268 791 295 804 322L758 334C747 312 735 290 720 269C699 284 678 297 657 309ZM231 635L392 635L392 557L231 557Z"/><animate attributeName="opacity" values="0;0;0;1;1;0;0" dur="3s" repeatCount="indefinite"/></svg></svg>