<svg id="U2F98C" viewBox="0 0 1024 1024"><path transform="translate(0, 921.6) scale(1,-1)" d="M632 0L632 0L632-16Q752-52 740-100L740-100Q792-88 816-74Q840-60 854-26Q868 8 896 276L896 276L932 300L872 360L824 316L328 316Q372 384 400 432L400 432L792 432L792 388L852 412Q848 464 848 520L848 520L848 716L884 736L824 792L784 752L552 752L584 720Q620 732 664 732L664 732L792 732L792 604L556 604L588 572Q624 584 668 584L668 584L792 584L792 452L256 452L256 584L512 584L444 648L396 604L256 604L256 712Q332 724 408 748Q484 772 528 772L528 772L464 836Q396 776 260 728L260 728L196 760Q200 700 200 594L200 594Q200 488 196 380L196 380L256 396L256 432L324 432Q292 336 230 268Q168 200 80 144L80 144L88 128Q244 204 316 296L316 296L840 296Q812 16 800-2Q788-20 758-18Q728-16 632 0ZM288 200L288 200L272 204Q236 104 198 80Q160 56 168 32Q176 8 206 10Q236 12 258 44Q280 76 288 200ZM360 200L360 200L352 188Q388 108 392 60Q396 12 418 22Q440 32 448 60Q456 88 440 116Q424 144 360 200ZM500 220L500 220L488 208Q520 156 530 96Q540 36 564 46Q588 56 594 88Q600 120 570 154Q540 188 500 220ZM632 240L632 240L624 228Q676 160 690 110Q704 60 728 74Q752 88 756 112Q760 136 736 164Q712 192 632 240Z"/></svg>