<svg id="U2F899" viewBox="0 0 1000 1000"><path transform="translate(0, 900) scale(1,-1)" d="M829 826C772 745 668 660 580 611C599 597 622 574 636 558C729 615 833 705 900 797ZM863 549C798 464 680 374 579 323C599 308 621 286 634 269C739 329 857 423 933 520ZM884 262C811 146 671 39 532-21C552-37 574-63 586-82C732-12 872 103 956 233ZM35 376L59 303L153 340C148 208 125 64 29-41C48-50 76-69 89-81C199 41 223 212 226 370L316 406L300 475L226 446L226 720L306 720L306 790L58 790L58 720L154 720L154 419C109 402 68 387 35 376ZM318 436L318 365L415 365L415-80L487-80L487 365L600 365L600 436L487 436L487 720L591 720L591 790L334 790L334 720L415 720L415 436Z"/></svg>