<svg id="U2FA02" viewBox="0 0 1024 1024"><path transform="translate(0, 921.6) scale(1,-1)" d="M396-84L396-84L408-96Q548 28 576 132Q604 236 604 332L604 332L604 704L756 704L756 32Q756-28 824-28L824-28L908-28Q940-28 954-18Q968-8 984 16L984 16Q952 32 948 70Q944 108 944 176L944 176L928 176Q924 92 918 54Q912 16 880 16L880 16L856 16Q808 16 808 56L808 56L808 680L848 704L784 764L748 724L608 724L544 756Q552 672 552 454L552 454Q552 236 524 124Q496 12 396-84ZM348 776L348 776L268 824Q264 772 196 656Q128 540 36 448L36 448L48 440Q192 552 288 708L288 708Q404 628 438 578Q472 528 484 576Q496 624 454 650Q412 676 296 724L296 724Q320 768 348 776ZM260 616L260 616L248 608Q284 552 298 508Q312 464 334 494Q356 524 344 546Q332 568 260 616ZM440 372L440 432L472 448L416 504L384 468L196 468L136 504Q140 432 140 336L140 336L140 52Q140 24 120 8L120 8L164-56Q184-20 368 80L368 80Q380 56 392 20Q404-16 428 20Q452 56 426 94Q400 132 324 192L324 192L312 184Q348 128 360 96L360 96L188 32L188 212L392 212L392 180L444 216Q440 260 440 372L440 372ZM188 348L188 448L392 448L392 348L188 348ZM188 232L188 328L392 328L392 232L188 232Z"/></svg>