<svg id="U2F50" viewBox="0 0 1000 1000"><svg id="U2F50hk" viewBox="0 0 1000 1000"><path transform="translate(0, 900) scale(1,-1)" d="M136-49C160-34 198-22 486 56C483 73 479 105 479 127L217 61L217 457L472 457L472 531L217 531L217 840L140 840L140 91C140 48 116 25 100 14C112 0 130-31 136-49ZM544 840L544 81C544-28 571-57 669-57C689-57 816-57 837-57C932-57 953-1 963 163C941 168 911 181 892 196C886 51 880 14 833 14C805 14 698 14 677 14C629 14 621 24 621 79L621 457L891 457L891 531L621 531L621 840Z"/><animate attributeName="opacity" values="1;0;0;0;0;1;1" dur="3s" repeatCount="indefinite"/></svg><svg id="U2F50jp" viewBox="0 0 1000 1000"><path transform="translate(0, 900) scale(1,-1)" d="M39 20L62-58C187-28 356 12 514 51L507 123C421 103 332 82 250 64L250 457L476 457L476 531L250 531L250 835L173 835L173 47ZM550 835L550 80C550-29 577-58 675-58C695-58 822-58 843-58C938-58 959-2 969 162C947 167 917 180 898 195C892 50 886 13 839 13C811 13 704 13 683 13C635 13 627 23 627 78L627 404C733 449 846 503 930 558L874 621C815 574 720 520 627 476L627 835Z"/><animate attributeName="opacity" values="0;1;1;0;0;0;0" dur="3s" repeatCount="indefinite"/></svg><svg id="U2F50sc" viewBox="0 0 1000 1000"><path transform="translate(0, 900) scale(1,-1)" d="M125-72C148-55 185-39 459 50C455 68 453 102 454 126L208 50L208 456L456 456L456 531L208 531L208 829L129 829L129 69C129 26 105 3 88-7C101-22 119-54 125-72ZM534 835L534 87C534-24 561-54 657-54C676-54 791-54 811-54C913-54 933 15 942 215C921 220 889 235 870 250C863 65 856 18 806 18C780 18 685 18 665 18C620 18 611 28 611 85L611 377C722 440 841 516 928 590L865 656C804 593 707 516 611 457L611 835Z"/><animate attributeName="opacity" values="0;0;0;1;1;0;0" dur="3s" repeatCount="indefinite"/></svg></svg>