<svg id="U304A" viewBox="0 0 1000 1000"><path transform="translate(0, 900) scale(1,-1)" d="M721 688L685 628C749 594 860 525 909 478L950 542C901 582 792 650 721 688ZM325 279L328 102C328 69 315 53 292 53C253 53 183 92 183 138C183 183 244 241 325 279ZM121 619L123 543C157 539 194 538 251 538C272 538 297 539 325 541L324 410L324 353C209 304 105 217 105 134C105 45 235-32 313-32C367-32 401-2 401 91L397 308C469 333 540 347 615 347C710 347 787 301 787 216C787 124 707 77 619 60C582 52 539 52 502 53L530-28C565-26 609-24 654-14C791 19 867 96 867 217C867 337 762 416 616 416C550 416 472 403 396 379L396 414L398 549C471 557 549 570 608 584L606 662C549 645 473 631 400 622L404 730C405 753 408 781 411 799L322 799C325 782 327 748 327 728L326 614C298 612 272 611 249 611C212 611 176 612 121 619Z"/></svg>