<svg id="U3256" viewBox="0 0 1000 1000"><path transform="translate(0, 900) scale(1,-1)" d="M500-86C755-86 966 121 966 380C966 637 757 846 500 846C243 846 34 637 34 380C34 123 243-86 500-86ZM500-54C260-54 66 140 66 380C66 618 258 814 500 814C740 814 934 620 934 380C934 140 740-54 500-54ZM188 127L479 127L479 197L374 197C348 197 317 195 294 193C387 309 461 406 461 502C461 595 407 657 322 657C267 657 222 629 183 580L227 537C250 567 278 591 312 591C362 591 387 554 387 496C387 414 314 321 188 175ZM673 115C751 115 815 181 815 284C815 392 763 446 687 446C648 446 609 421 581 381C584 537 632 589 690 589C720 589 747 573 766 549L806 600C780 632 743 657 688 657C593 657 509 573 509 368C509 196 581 115 673 115ZM583 319C610 368 641 385 667 385C717 385 743 345 743 282C743 221 713 179 674 179C624 179 591 223 583 319Z"/></svg>