<svg id="U32A7" viewBox="0 0 1000 1000"><path transform="translate(0, 900) scale(1,-1)" d="M966 380C966 637 757 846 500 846C243 846 34 637 34 380C34 123 243-86 500-86C757-86 966 123 966 380ZM500 814C740 814 934 620 934 380C934 140 740-54 500-54C260-54 66 140 66 380C66 620 260 814 500 814ZM394 734C388 692 380 648 371 604L186 604L186 544L356 544C318 402 256 265 155 174C168 161 188 137 197 123C272 192 328 283 369 383L369 360L523 360L523 160L299 160L299 99L806 99L806 160L586 160L586 360L770 360L770 420L383 420C398 460 411 502 423 544L794 544L794 604L437 604C447 644 454 685 461 724Z"/></svg>