<svg id="U328A" viewBox="0 0 1000 1000"><path transform="translate(0, 900) scale(1,-1)" d="M966 380C966 637 757 846 500 846C243 846 34 637 34 380C34 123 243-86 500-86C757-86 966 123 966 380ZM500 814C740 814 934 620 934 380C934 140 740-54 500-54C260-54 66 140 66 380C66 620 260 814 500 814ZM316 692L316 455C316 347 301 216 186 122C200 114 224 89 233 75C307 136 345 216 364 296L678 296L678 158C678 143 673 139 657 138C641 138 586 137 527 140C537 121 547 95 551 77C627 76 677 77 705 88C734 99 743 119 743 158L743 692ZM380 632L678 632L678 525L380 525ZM380 466L678 466L678 357L374 357C379 391 380 423 380 454Z"/></svg>