<svg id="U3248" viewBox="0 0 1000 1000"><path transform="translate(0, 900) scale(1,-1)" d="M50-70L950-70L950 830L50 830ZM500-65C255-65 55 135 55 380C55 625 255 825 500 825C746 825 945 625 945 380C945 135 745-65 500-65ZM292 127L370 127L370 645L310 645C282 627 252 613 207 604L207 551L292 551ZM627 115C725 115 788 219 788 388C788 557 725 657 627 657C529 657 465 557 465 388C465 219 529 115 627 115ZM627 182C578 182 544 247 544 388C544 529 578 591 627 591C676 591 710 529 710 388C710 247 676 182 627 182Z"/></svg>