<svg id="U32D0" viewBox="0 0 1000 1000"><path transform="translate(0, 900) scale(1,-1)" d="M966 379L966 380C966 637 757 846 500 846C243 846 34 637 34 380C34 123 243-86 500-86C757-86 966 123 966 379ZM499 814L500 814C740 814 934 620 934 380C934 140 740-54 500-54C260-54 66 140 66 380C66 620 260 814 499 814ZM789 551L751 584C741 582 717 580 705 580C664 580 373 580 341 580C317 580 288 582 264 585L264 518C290 520 317 521 341 521C373 521 644 521 691 521C666 479 614 417 555 381L607 342C680 393 747 490 772 529C776 536 783 545 789 551ZM536 468L465 468C467 453 469 435 469 419C469 303 437 211 347 156C328 143 307 135 289 129L347 82C515 173 534 294 536 468Z"/></svg>