<svg id="U33B2" viewBox="0 0 1000 1000"><path transform="translate(0, 900) scale(1,-1)" d="M56-210L155-210C146-124 144-72 143 36C161 0 195-10 232-10C280-10 321 17 348 82L351 82C357 12 383-14 427-14C447-14 461-10 471-4L461 66C454 63 451 63 446 63C433 63 424 75 424 107C424 237 426 398 430 544L335 544L335 160C301 82 265 66 232 66C178 66 151 107 151 184L151 544L56 544ZM749-13C875-13 944 60 944 148C944 251 856 284 781 314C720 338 664 355 664 408C664 449 694 486 761 486C810 486 842 466 880 438L924 497C881 530 829 557 760 557C644 557 576 490 576 404C576 311 662 275 734 246C795 222 855 199 855 142C855 96 821 57 752 57C685 57 644 84 595 122L550 62C603 19 670-13 749-13Z"/></svg>