<svg id="U3340" viewBox="0 0 1000 1000"><path transform="translate(0, 900) scale(1,-1)" d="M334 313L298 297C314 275 336 236 349 210L387 228C374 251 350 291 334 313ZM400 337L363 322C379 301 402 261 415 236L451 253C439 276 414 316 400 337ZM350 815C350 776 381 745 420 745C458 745 489 776 489 815C489 854 458 885 420 885C381 885 350 854 350 815ZM420 772C396 772 377 791 377 815C377 839 396 858 420 858C444 858 463 839 463 815C463 791 444 772 420 772ZM118 628C94 583 55 528 18 492L64 462C95 495 139 559 163 606ZM338 601C366 565 401 507 425 462L474 489C450 531 410 590 382 626ZM615 800L579 755C622 729 683 683 714 655L752 702C721 730 653 777 615 800ZM578 466L609 411C670 425 751 454 800 488C878 540 933 597 973 664L931 711C901 647 842 585 768 536C721 506 650 480 578 466ZM152-34C152-55 151-85 148-103L212-103C209-85 208-52 208-34L208 126C262 109 333 80 392 49L418 104C358 134 276 165 208 186L208 273C208 290 211 317 212 334L147 334C150 317 152 289 152 273C152 228 152-5 152-34ZM45 729L45 673C59 674 78 675 94 675L226 675L225 463C225 452 221 446 209 446C195 446 169 450 146 455L149 399C173 397 206 396 228 396C263 396 279 410 279 442L279 675L408 675C421 675 437 675 455 673L455 729C441 727 421 726 407 726L279 726L279 782C279 793 281 810 284 822L220 822C223 810 226 794 226 782L226 726L94 726C77 726 62 727 45 729Z"/></svg>