<svg id="U33D5" viewBox="0 0 1000 1000"><path transform="translate(0, 900) scale(1,-1)" d="M55 0L126 0L126 403C143 452 162 478 189 478C218 478 230 448 230 396L230 0L289 0L289 403C305 452 322 478 350 478C378 478 394 452 394 396L394 0L465 0L465 410C465 505 433 556 378 556C334 556 303 521 287 470C278 523 256 556 215 556C167 556 140 525 121 477L117 477L110 544L55 544ZM596 0L673 0L673 544L596 544ZM632 656C666 656 692 680 692 716C692 752 666 777 632 777C597 777 571 752 571 716C571 680 597 656 632 656ZM903-13C929-13 942-9 965 2L946 73C935 66 927 64 915 64C892 64 877 83 877 127L877 768L800 768L800 134C800 36 836-13 903-13Z"/></svg>