<svg id="U3350" viewBox="0 0 1000 1000"><path transform="translate(0, 900) scale(1,-1)" d="M976 776L944 804C936 802 917 800 907 800C875 800 647 800 622 800C601 800 575 803 557 805L557 747C578 748 601 750 622 750C646 750 855 749 892 749C872 716 833 672 786 644L831 609C890 648 942 726 960 754C964 760 971 770 976 776ZM714 714C716 702 717 690 717 677C717 593 702 519 624 467C609 457 589 451 575 446L624 406C760 478 774 580 774 714ZM108 325L72 279C116 254 177 207 208 180L245 226C214 254 147 301 108 325ZM71-10L103-65C164-51 244-21 294 12C372 64 427 121 466 188L425 235C394 171 336 109 262 60C214 30 144 4 71-10ZM50 529L50 467C70 469 91 469 110 469C146 470 394 470 430 470C446 470 472 468 485 467L485 529C470 528 444 526 429 526L374 526L400 756C400 760 401 768 405 775L365 795C359 792 343 790 333 790C296 790 177 790 153 790C136 790 117 791 100 793L100 732C119 733 134 734 153 734C177 734 292 734 338 734C337 704 323 584 316 526L110 526C92 526 67 527 50 529Z"/></svg>