<svg id="U3482" viewBox="0 0 1000 1000"><path transform="translate(0, 900) scale(1,-1)" d="M867 634C845 597 819 563 791 530L791 570L625 570L625 651L560 651L560 696L734 696L734 613L803 613L803 696L952 696L952 757L803 757L803 840L734 840L734 757L560 757L560 840L492 840L492 757L340 757L340 696L492 696L492 613L554 613L554 570L392 570L392 509L554 509L554 420L338 420L338 358L599 358C506 294 402 242 292 203C306 189 328 159 338 144C382 162 426 181 468 203L468-81L537-81L537-47L824-47L824-79L896-79L896 271L587 271C628 298 669 327 707 358L960 358L960 420L777 420C836 477 888 540 931 609ZM625 509L773 509C744 478 713 448 680 420L625 420ZM537 87L824 87L824 9L537 9ZM537 139L537 213L824 213L824 139ZM275 836C219 684 126 534 29 437C41 420 63 381 71 363C105 398 138 440 170 485L170-78L241-78L241 597C281 666 317 741 345 815Z"/></svg>