<svg id="U3499" viewBox="0 0 1000 1000"><path transform="translate(0, 900) scale(1,-1)" d="M641 549L841 549L841 458L641 458ZM641 693L841 693L841 604L641 604ZM361 187C371 120 382 31 384-27L436-15C433 43 422 130 410 198ZM276 197C267 116 253 26 230-35C244-40 270-49 281-55C300 7 318 101 329 187ZM447 203C468 142 491 61 501 8L550 26C539 78 515 158 493 219ZM572 343L572-16L630-16L630 276L715 276L715-72L772-72L772 276L863 276L863 63C863 55 861 53 853 52C846 52 826 52 799 52C807 38 815 15 817-1C855-1 880 0 898 10C916 20 920 35 920 63L920 343L772 343L772 400L903 400L903 751L743 751L778 828L715 840C710 816 699 780 687 751L581 751L581 400L715 400L715 343ZM265 240C281 250 307 258 482 290L493 247L544 268C533 313 504 390 477 448L429 431C441 404 453 374 464 344L342 324C413 417 482 535 538 652L483 682C464 636 441 589 418 546L324 540C372 617 419 716 454 811L396 838C364 730 305 614 285 585C269 554 254 534 239 530C246 512 255 480 259 466C271 472 291 477 384 485C352 430 324 387 311 369C284 332 264 306 246 302C253 285 263 254 265 240ZM216 839C174 692 106 548 27 453C39 435 57 396 62 379C88 412 114 450 138 491L138-78L198-78L198 607C229 675 256 748 278 820Z"/></svg>