<svg id="U34AA" viewBox="0 0 1000 1000"><path transform="translate(0, 900) scale(1,-1)" d="M209 498L414 498L414 454L209 454ZM209 416L304 416L304 371L209 371ZM209 536L209 582L305 582L305 536ZM498 845C403 747 215 674 39 638C57 622 76 597 86 580L151 598L151 328L492 328L492 371L358 371L358 416L468 416L468 536L359 536L359 582L488 582L488 625L234 625C333 661 427 707 500 762C572 706 674 657 781 623L526 623L526 328L887 328L887 371L737 371L737 416L851 416L851 535L738 535L738 581L844 581L844 605C868 598 892 593 915 588C926 606 947 632 964 646C808 669 635 729 544 798L563 816ZM584 497L797 497L797 454L584 454ZM584 416L683 416L683 371L584 371ZM584 535L584 581L684 581L684 535ZM59 2L70-61C172-40 311-11 444 17L440 75L320 51L320 165L449 165L449 221L320 221L320 307L254 307L254 37L184 24L184 233L120 233L120 12ZM877 227C843 205 788 172 743 149C731 173 713 196 690 216C703 225 716 234 726 243L922 243L922 291L486 291L486 243L656 243C606 211 536 186 472 169C483 159 498 138 504 128C552 144 603 165 649 191L669 168C619 134 538 98 474 81C485 72 498 54 504 42C565 64 638 100 691 135C696 124 701 113 705 102C645 53 541 4 455-16C466-26 480-44 487-56C563-33 650 10 714 55C716 19 707-11 693-22C682-32 670-32 657-32C644-32 623-32 602-29C611-43 616-63 617-76C635-77 654-77 669-77C698-77 720-73 738-54C771-27 783 42 760 111L794 125C817 45 857-29 915-68C925-55 943-37 957-27C900 5 860 72 840 146C867 160 894 174 918 188Z"/></svg>