<svg id="U343A" viewBox="0 0 1000 1000"><path transform="translate(0, 900) scale(1,-1)" d="M241 836C195 680 118 524 33 422C46 404 68 366 75 349C103 384 130 424 156 468L156-79L225-79L225 600C257 670 286 744 309 817ZM454 828C411 673 339 517 259 415C272 398 293 362 302 346C327 378 351 416 374 456L374-80L444-80L444 597C474 666 500 738 521 810ZM656 840C654 573 652 171 457-34C480-46 506-65 521-82C618 27 670 181 697 344C742 167 809 17 908-75C921-55 944-28 962-14C835 93 760 318 722 559C729 658 730 755 731 840Z"/></svg>