<svg id="U3454" viewBox="0 0 1000 1000"><path transform="translate(0, 900) scale(1,-1)" d="M615 484L615 274C615 173 586 48 314-22C328-34 348-57 357-72C648 10 684 150 684 273L684 484ZM684 88C764 41 866-27 916-73L960-13C909 31 804 97 726 140ZM405 617L405 153L474 153L474 549L820 549L820 155L892 155L892 617L654 617C669 646 685 681 700 714L954 714L954 779L378 779L378 714L616 714C607 682 595 646 582 617ZM266 836C210 684 117 534 18 437C32 420 53 381 61 363C95 398 128 439 160 483L160-78L232-78L232 595C273 665 309 740 338 815Z"/></svg>