<svg id="U34F1" viewBox="0 0 1000 1000"><path transform="translate(0, 900) scale(1,-1)" d="M390 438L390 81L442 81L442 438ZM513 478L513-2C513-13 509-16 499-16C488-17 452-17 413-16C421-32 429-57 432-73C487-73 521-72 544-63C566-53 573-36 573-2L573 478ZM843 821L843 20C843 1 836-5 817-6C799-7 738-7 669-5C680-26 691-61 695-81C784-81 838-79 870-67C899-54 913-32 913 20L913 821ZM668 722L668 166L736 166L736 722ZM328 842C266 736 148 640 28 586C46 571 66 548 78 531C113 549 147 570 180 594L180 537L488 537L488 598L185 598C238 638 288 684 329 734C417 677 523 603 578 558L622 611C564 656 454 728 366 783L388 818ZM262 413L262 329L144 329L144 413ZM83 472L83-76L144-76L144 129L262 129L262-6C262-14 259-17 252-17C244-17 220-17 192-16C201-33 210-58 213-74C253-74 280-74 299-64C319-52 324-35 324-6L324 472ZM144 275L262 275L262 186L144 186Z"/></svg>