<svg id="U3472" viewBox="0 0 1000 1000"><path transform="translate(0, 900) scale(1,-1)" d="M481 458C501 421 524 370 533 339L589 361C578 392 555 440 535 477ZM604 841C603 809 600 771 597 732L317 732L317 664L590 664C586 625 581 587 577 555L340 555L340-75L408-75L408 490L852 490L852 8C852-4 848-7 837-7C825-8 788-8 746-7C755-25 766-55 768-73C826-73 865-73 889-61C914-50 922-29 922 8L922 555L642 555L658 664L943 664L943 732L667 732L678 833ZM718 480C704 437 675 376 651 332L456 332L456 276L595 276L595 188L444 188L444 131L595 131L595-29L662-29L662 131L813 131L813 188L662 188L662 276L800 276L800 332L710 332C734 371 758 418 781 461ZM253 836C203 685 118 535 28 437C41 420 63 380 71 363C100 397 129 435 157 478L157-78L227-78L227 597C264 667 297 741 323 815Z"/></svg>