<svg id="U349B" viewBox="0 0 1000 1000"><path transform="translate(0, 900) scale(1,-1)" d="M667 688C698 665 738 628 757 602L798 641C776 669 736 704 704 724ZM346 688C378 664 418 627 438 601L478 638C456 667 415 702 384 723ZM233 835C188 681 116 527 33 426C46 407 67 368 73 350C101 385 128 425 154 470L154-80L226-80L226 611C255 677 281 747 302 816ZM442 210L631 210L631 142L442 142ZM442 263L442 330L631 330L631 263ZM609 459C620 438 633 412 642 389L464 389C479 413 492 437 503 460L434 484C400 403 333 300 266 235C281 224 304 202 316 189C336 209 356 232 375 257L375-79L442-79L442-40L950-40L950 18L701 18L701 90L895 90L895 142L701 142L701 210L895 210L895 263L701 263L701 330L928 330L928 389L715 389C704 417 687 452 670 479ZM442 90L631 90L631 18L442 18ZM315 524L333 466L523 561L523 465L589 465L589 811L324 811L324 753L523 753L523 615C446 580 367 545 315 524ZM648 538L666 480C717 503 784 536 849 568L849 460L918 460L918 811L638 811L638 753L849 753L849 623C774 590 699 558 648 538Z"/></svg>