<svg id="U3574" viewBox="0 0 1000 1000"><path transform="translate(0, 900) scale(1,-1)" d="M364 769L364 566L440 566L440 698L845 698L845 566L924 566L924 769ZM492 570L492 387C492 249 475 91 309-28C324-40 348-67 357-83C542 48 563 227 563 385L563 504L707 504L707 50C707-34 724-58 793-58C807-58 861-58 875-58C940-58 957-13 964 142C943 147 913 160 896 174C894 40 891 13 869 13C857 13 814 13 804 13C784 13 780 18 780 50L780 570ZM74 745L74 90L139 90L139 186L315 186L315 745ZM139 675L251 675L251 256L139 256Z"/></svg>