<svg id="U35E2" viewBox="0 0 1000 1000"><path transform="translate(0, 900) scale(1,-1)" d="M736 840L734 615L659 615L659 545L732 545C725 353 704 187 635 63L635 74L505 58L505 129L638 129L638 190L505 190L505 252L639 252L639 539L504 539L504 604L648 604L648 667L504 667L504 739C553 746 600 754 638 763L610 825C535 804 411 787 310 778C317 761 325 737 327 722C364 724 404 727 444 731L444 667L298 667L298 604L444 604L444 539L314 539L314 252L445 252L445 190L303 190L303 129L445 129L445 51L275 32L286-32L602 11C589-5 576-21 561-35C578-45 602-65 613-80C751 59 788 279 799 545L875 545C865 172 853 42 833 12C824-1 816-3 802-3C786-3 753-3 715 0C726-18 732-47 733-67C771-69 807-70 830-67C857-63 874-55 890-31C920 10 930 149 941 580C941 589 941 615 941 615L801 615C803 687 803 762 803 840ZM367 371L452 371L452 305L367 305ZM497 371L584 371L584 305L497 305ZM367 486L452 486L452 422L367 422ZM497 486L584 486L584 422L497 422ZM73 734L73 106L127 106L127 189L273 189L273 734ZM127 671L217 671L217 253L127 253Z"/></svg>