<svg id="U35B5" viewBox="0 0 1000 1000"><path transform="translate(0, 900) scale(1,-1)" d="M709 91C778 42 866-30 908-74L971-32C925 13 836 82 767 128ZM504 135C457 76 370 9 286-32C301-46 322-68 333-83C419-37 510 29 565 99ZM416 793L416 225L333 225L333 157L953 157L953 225L875 225L875 793ZM485 225L485 308L803 308L803 225ZM485 586L803 586L803 503L485 503ZM485 643L485 727L803 727L803 643ZM485 446L803 446L803 365L485 365ZM74 745L74 90L137 90L137 186L304 186L304 745ZM137 675L240 675L240 256L137 256Z"/></svg>