<svg id="U36B7" viewBox="0 0 1000 1000"><path transform="translate(0, 900) scale(1,-1)" d="M633 547L633 32C633 19 629 15 615 14C600 13 551 13 499 15C509-7 520-40 523-62C592-62 638-61 666-48C695-36 704-13 704 31L704 547ZM766 381C821 282 871 151 885 69L950 96C935 180 883 307 827 405ZM484 406C467 310 431 187 374 109C391 100 416 84 431 73C491 155 530 287 552 392ZM173 841C167 777 158 706 147 634L49 634L49 564L136 564C117 452 93 345 66 270L68 269C112 236 160 195 203 154C159 78 103 23 35-12C51-25 70-52 81-70C151-29 210 26 256 101C289 67 316 33 335 4L389 59C366 92 332 131 292 169C332 259 360 372 376 514C392 498 411 474 421 456C506 514 598 611 664 711C730 605 826 508 924 458C935 480 958 512 975 527C868 571 760 671 701 772L717 803L661 842C603 720 486 588 377 523C380 557 383 593 385 630L341 636L328 634L219 634C230 703 240 771 248 834ZM311 564C300 425 274 311 236 221C206 247 175 272 145 295C168 373 189 467 206 564Z"/></svg>