<svg id="U363B" viewBox="0 0 1000 1000"><path transform="translate(0, 900) scale(1,-1)" d="M632 693L632 559L632 522L499 522L499 459L628 459C619 346 586 223 479 120C494 110 514 92 525 79C605 156 647 244 668 332C716 248 763 155 789 96L842 126C808 197 740 320 684 416L688 459L831 459L831 522L691 522L691 558L691 693ZM399 795L399-81L467-81L467-21L857-21L857-73L929-73L929 795ZM467 47L467 727L857 727L857 47ZM36 129L61 53C149 88 264 133 372 177L358 245L241 202L241 525L351 525L351 596L241 596L241 828L170 828L170 596L52 596L52 525L170 525L170 176C119 157 73 141 36 129Z"/></svg>