<svg id="U36E2" viewBox="0 0 1000 1000"><svg id="U36E2hk" viewBox="0 0 1000 1000"><path transform="translate(0, 900) scale(1,-1)" d="M37 616L45 546L107 550C91 451 73 357 55 288C98 251 145 208 190 164C155 96 105 31 34-29C50-39 74-62 85-76C154-17 204 47 240 113C278 73 311 35 334 4L379 64C354 97 316 137 273 180C328 313 337 450 337 564L382 567L383 633L337 630L337 698L271 698L271 627L185 622C196 696 205 769 210 834L142 837C137 771 128 695 117 619ZM129 311C144 381 161 466 175 554L271 560C270 462 263 345 220 230C189 258 158 286 129 311ZM858 833C758 805 574 786 421 778C429 762 438 736 439 719C504 722 574 727 643 734L643 647L405 647L405 582L600 582C544 512 457 446 375 413C391 400 412 376 423 358C502 396 584 463 643 537L643 372L713 372L713 563C783 498 863 418 904 369L954 412C915 456 846 523 781 582L943 582L943 647L713 647L713 742C786 751 855 763 909 778ZM432 347L432 281L541 281C531 134 500 29 372-29C386-41 406-66 415-83C561-14 599 109 612 281L732 281C723 237 712 194 703 160L734 160L864 159C855 50 845 5 830-9C822-17 812-18 795-18C777-18 726-17 674-12C686-30 694-57 696-76C747-79 797-79 821-78C851-76 870-70 886-53C911-28 923 36 934 191C935 201 937 221 937 221L788 221L816 347Z"/><animate attributeName="opacity" values="1;0;0;1;1" dur="2s" repeatCount="indefinite"/></svg><svg id="U36E2sc" viewBox="0 0 1000 1000"><path transform="translate(0, 900) scale(1,-1)" d="M851 833C751 805 565 786 412 778C419 762 428 736 430 719C496 722 568 727 638 734L638 645L394 645L394 580L580 580C526 508 442 442 363 407C378 394 400 369 410 352C493 394 580 472 638 557L638 373L708 373L708 559C762 479 843 400 917 358C929 375 950 400 966 413C895 448 818 512 766 580L945 580L945 645L708 645L708 742C780 752 848 763 902 778ZM421 347L421 281L532 281C521 134 490 29 362-29C378-41 397-66 406-83C551-14 590 109 602 281L724 281C715 237 705 194 695 160L726 160L856 159C848 48 838 2 824-12C815-20 807-21 791-21C774-21 728-20 681-16C693-34 700-61 701-79C750-82 796-83 820-81C847-79 865-73 880-57C904-31 916 33 928 191C929 201 930 221 930 221L779 221C789 261 799 306 807 347ZM288 564C277 428 255 316 222 225C192 250 162 274 133 296C155 374 175 468 192 564ZM161 841C155 777 147 706 137 634L46 634L46 564L126 564C107 452 84 345 58 270C102 238 149 198 193 158C152 76 99 18 34-19C50-33 68-60 79-78C147-35 203 25 246 106C283 68 315 31 336-1L387 52C362 89 323 132 277 175C322 289 349 437 359 630L316 636L304 634L204 634C215 703 224 771 232 834Z"/><animate attributeName="opacity" values="0;1;1;0;0" dur="2s" repeatCount="indefinite"/></svg></svg>