<svg id="U362A" viewBox="0 0 1000 1000"><path transform="translate(0, 900) scale(1,-1)" d="M379 261L389 191L589 232L589 55C589-42 613-68 701-68C721-68 837-68 856-68C936-68 956-23 965 109C944 114 913 126 896 140C891 29 886 3 851 3C827 3 729 3 710 3C670 3 663 11 663 54L663 247L962 308L952 376L663 318L663 478L909 530L897 597L663 549L663 702C746 726 823 753 886 782L819 836C722 785 548 734 392 699C402 684 413 658 417 641C473 653 531 666 589 681L589 534L399 495L409 425L589 463L589 303ZM36 129L61 53C148 88 262 133 368 177L354 245L238 201L238 525L347 525L347 596L238 596L238 828L168 828L168 596L52 596L52 525L168 525L168 175C118 157 73 141 36 129Z"/></svg>