<svg id="U389A" viewBox="0 0 1000 1000"><path transform="translate(0, 900) scale(1,-1)" d="M463 303L599 303L599 265L463 265ZM660 303L802 303L802 265L660 265ZM599 189L463 189L463 228L599 228ZM660 189L660 228L802 228L802 189ZM362 110L362 63L556 63C528 8 467-18 336-34C348-45 364-66 369-80C528-56 597-17 626 63L828 63C820 10 812-13 801-22C795-28 786-29 771-29C756-29 716-29 675-24C683-38 691-58 692-72C735-74 779-74 799-73C825-73 841-68 857-56C877-39 889-1 899 86C901 95 902 110 902 110L639 110L644 151L870 151L870 342L397 342L397 151L577 151C576 136 574 123 572 110ZM267 595L267 378C267 253 258 79 167-48C182-54 211-71 221-81C317 51 334 244 334 378L334 540L502 540L502 494L370 488L374 439L502 445C502 389 527 378 620 378C640 378 783 378 804 378C867 378 888 393 895 448C876 451 851 458 835 466C833 427 826 422 795 422C766 422 647 422 626 422C579 422 571 425 571 445L571 455L778 465L776 506L571 497L571 540L855 540C848 519 840 499 833 484L893 471C910 499 928 544 941 582L892 592L880 590L578 590L578 624L866 624L866 671L578 671L578 709L507 709L507 595ZM467 831L487 779L117 779L117 476C117 328 111 123 36-23C52-30 82-53 95-65C175 89 187 319 187 476L187 717L945 717L945 779L568 779C561 801 551 826 542 847Z"/></svg>