<svg id="U38DD" viewBox="0 0 1000 1000"><path transform="translate(0, 900) scale(1,-1)" d="M778 798C820 761 869 709 891 673L945 711C922 746 872 796 830 830ZM256 838C212 767 123 683 43 632C55 617 75 587 83 570C172 630 268 723 328 810ZM857 494C836 415 809 342 774 276C760 364 750 468 744 583L953 583L953 651L740 651C738 711 737 774 738 839L665 839C666 775 667 712 670 651L345 651L345 583L673 583C681 432 696 295 719 185C658 98 581 27 489-25C505-38 532-67 542-81C618-33 684 27 740 97C773-13 817-79 875-79C936-79 957-33 969 107C953 114 929 129 914 146C910 38 901-9 883-9C851-9 819 59 794 172C850 260 894 363 927 480ZM473 540L473 383L473 378L360 378L360 311L471 311C465 217 442 119 367 38C383 28 406 5 417-11C507 84 532 199 538 311L650 311L650 378L540 378L540 382L540 540ZM269 617C213 514 119 411 29 345C42 327 63 288 70 271C106 301 144 337 180 377L180-79L252-79L252 463C284 505 313 548 337 591Z"/></svg>