<svg id="U3854" viewBox="0 0 1000 1000"><path transform="translate(0, 900) scale(1,-1)" d="M155 280L155-32L227-32L227 215L460 215L460-74L534-74L534 215L785 215L785 53C785 40 780 37 764 36C747 34 689 34 625 36C635 18 646-8 651-27C734-27 786-28 819-17C850-6 859 14 859 52L859 280L534 280L534 336C609 361 672 397 725 442C781 392 848 354 925 330C934 348 954 375 969 389C894 409 828 443 773 488C820 540 856 602 878 670L954 670L954 731L664 731C679 761 693 791 705 820L637 838C611 763 561 673 501 612L480 618L469 615L404 615L410 622C394 632 374 642 351 652C405 685 460 727 501 769L459 802L446 798L100 798L100 742L384 742C356 719 322 696 290 678C253 692 214 705 179 715L145 674C195 659 254 637 302 615L57 615L57 558L233 558C183 495 110 440 38 403C51 391 73 366 82 354C158 398 237 464 292 539L292 391C292 381 290 378 278 377C266 376 232 376 190 378C198 362 207 340 210 322C266 322 303 323 327 332C350 342 356 359 356 390L356 558L440 558C427 528 411 498 395 477L447 456C472 487 497 536 517 584L542 561C559 578 576 597 592 618C615 570 644 526 678 488C629 446 567 413 495 390C505 378 520 357 528 342L460 342L460 280ZM633 670L804 670C787 620 760 573 724 532C686 573 655 619 633 670Z"/></svg>