<svg id="U382C" viewBox="0 0 1000 1000"><path transform="translate(0, 900) scale(1,-1)" d="M609 727L835 727L835 562L609 562ZM542 787L542 502L905 502L905 787ZM456 508L456 429L137 429L137 365L456 365L456 308L454 267L63 267L63 204L440 204C408 117 313 31 36-30C51-44 72-69 81-84C349-18 460 73 504 170C589 44 730-36 911-72C921-54 941-27 958-12C776 16 634 91 557 204L931 204L931 267L528 267L530 308L530 365L866 365L866 429L530 429L530 508ZM56 536L72 465C179 485 324 512 463 540L459 602L296 574L296 721L448 721L448 787L76 787L76 721L223 721L223 562Z"/></svg>