<svg id="U3981" viewBox="0 0 1000 1000"><path transform="translate(0, 900) scale(1,-1)" d="M74 783C120 751 174 703 200 670L256 711C230 744 174 789 128 820ZM283 185L283 32C283-44 311-64 423-64C446-64 623-64 648-64C735-64 758-38 768 71C748 76 718 86 702 97C698 13 690 1 642 1C603 1 455 1 427 1C364 1 354 7 354 33L354 185ZM747 159C800 96 856 11 879-45L943-9C920 46 862 130 807 190ZM157 180C136 119 98 41 54-6L115-45C160 8 196 90 219 153ZM319 781L319 730L580 730L580 686L354 686L354 453L580 453L580 409L302 409L302 357L580 357L580 301L650 301L650 357L937 357L937 409L650 409L650 453L885 453L885 686L650 686L650 730L923 730L923 781L650 781L650 831L580 831L580 781ZM423 549L580 549L580 498L423 498ZM650 549L813 549L813 498L650 498ZM423 641L580 641L580 592L423 592ZM650 641L813 641L813 592L650 592ZM408 198C469 165 542 115 576 78L623 125C590 160 521 205 463 235C501 230 545 228 594 228C699 228 869 233 939 237C940 256 952 287 960 303C858 294 707 286 595 286C487 286 404 293 338 329C297 352 274 371 251 379L251 606L48 606L48 547L181 547L181 372C139 354 93 317 47 273L92 217C142 277 193 327 228 327C251 327 284 299 323 277C360 256 402 243 451 236Z"/></svg>