<svg id="U393F" viewBox="0 0 1000 1000"><path transform="translate(0, 900) scale(1,-1)" d="M79 647C73 566 56 456 29 390L88 370C114 443 132 558 136 639ZM588 842C577 798 563 756 546 717L351 717L351 650L512 650C462 563 395 494 312 445C328 432 354 403 364 389C379 399 394 410 408 421L408 76L473 76L473 120L603 120L603 32C603-53 624-75 708-75C726-75 833-75 852-75C924-75 944-40 952 78C932 82 904 94 889 106C885 9 880-11 847-11C825-11 733-11 715-11C678-11 671-4 671 31L671 120L875 120L875 413C887 404 899 395 911 388C922 406 944 432 961 445C885 486 812 565 768 650L946 650L946 717L624 717C638 752 650 790 661 829ZM603 567L603 480L473 479C520 528 560 585 593 650L695 650C722 589 760 530 804 480L671 480L671 567ZM473 420L603 420L603 331L473 331ZM473 180L473 276L603 276L603 180ZM807 276L807 180L671 180L671 276ZM807 331L671 331L671 420L807 420ZM167 840L167-79L237-79L237 661C264 607 291 536 301 493L354 521C344 562 314 632 287 685L237 663L237 840Z"/></svg>