<svg id="U39A5" viewBox="0 0 1000 1000"><path transform="translate(0, 900) scale(1,-1)" d="M745 315L865 315L865 240L745 240ZM571 315L689 315L689 240L571 240ZM403 315L516 315L516 240L403 240ZM380 138C359 85 320 16 277-25L333-63C378-17 413 55 439 112ZM466 143L466 11C466-56 488-74 576-74C594-74 712-74 731-74C796-74 816-53 824 31C805 35 777 44 763 54C759-6 754-14 723-14C698-14 600-14 582-14C541-14 534-10 534 11L534 143ZM793 116C840 65 891-7 910-54L972-21C951 27 899 95 851 146ZM155 840L155-79L222-79L222 840ZM72 647C67 569 52 458 29 390L84 372C106 447 121 563 124 640ZM230 662C254 602 279 522 289 474L344 500C334 545 308 622 283 681ZM337 451L337 405L592 405L592 368L346 368L346 188L587 188L559 166C608 135 664 89 691 55L738 95C714 123 668 160 625 188L922 188L922 368L659 368L659 405L925 405L925 451L659 451L659 500L830 500L830 546L659 546L659 589L844 589L844 636L659 636L659 697L592 697L592 636L401 636L401 589L592 589L592 546L420 546L420 500L592 500L592 451ZM571 828C581 809 591 785 597 764L324 764L324 621L389 621L389 710L875 710L875 621L941 621L941 764L672 764C664 789 652 819 638 842Z"/></svg>