<svg id="U391E" viewBox="0 0 1000 1000"><path transform="translate(0, 900) scale(1,-1)" d="M157 840L157-80L228-80L228 840ZM75 647C69 569 52 458 29 390L85 371C109 446 124 561 128 640ZM240 662C261 597 279 511 286 460L342 480C336 528 314 612 293 677ZM556 828C569 794 584 753 595 718L350 718L350 530L421 530L421 652L857 652L857 530L930 530L930 718L672 718C660 755 641 803 625 842ZM339 276L350 206L539 234L539 51C539-38 564-63 659-63C679-63 807-63 827-63C911-63 932-24 942 113C920 118 890 131 873 144C868 29 862 8 822 8C795 8 687 8 666 8C621 8 613 14 613 50L613 245L945 295L934 364L613 317L613 461C693 482 768 507 826 536L766 591C680 542 518 501 377 475C387 458 397 432 400 415C445 423 492 432 539 443L539 306Z"/></svg>