<svg id="U39F8" viewBox="0 0 1000 1000"><path transform="translate(0, 900) scale(1,-1)" d="M495 558L808 558L808 462L495 462ZM425 612L425 408L880 408L880 612ZM576 825C590 799 606 767 618 739L366 739L366 674L956 674L956 739L704 739C690 770 668 811 650 843ZM624 190L624 8C624-4 619-7 603-8C587-9 527-9 465-7C474-26 486-53 489-71C571-71 623-71 655-62C688-52 697-33 697 7L697 168C768 207 844 259 899 311L852 349L835 345L401 345L401 283L764 283C722 249 670 214 624 190ZM168 840L168 638L43 638L43 568L168 568L168 336C118 322 71 311 33 302L47 227L168 262L168 15C168 1 163-3 149-4C135-4 90-5 41-3C51-22 62-53 65-72C135-72 178-71 204-59C231-47 242-27 242 16L242 284L370 322L361 391L242 357L242 568L359 568L359 638L242 638L242 840Z"/></svg>