<svg id="U39D0" viewBox="0 0 1000 1000"><path transform="translate(0, 900) scale(1,-1)" d="M690 694L628 689C647 514 676 354 723 221C671 116 607 33 535-21C553-34 576-62 588-80C653-26 711 44 760 131C801 45 852-26 917-79C928-61 951-34 967-21C896 31 841 110 800 208C865 352 911 534 931 756L885 767L872 764L597 764L597 694L854 694C837 550 805 421 763 310C728 424 705 555 690 694ZM317 523C356 471 398 412 437 352C393 203 331 87 255 18C272 4 295-23 307-41C383 33 444 137 489 273C528 209 562 150 584 103L642 154C615 210 568 285 515 363C545 477 565 609 576 760L531 766L524 765L329 765L329 695L501 695C492 604 478 519 461 442C430 485 398 527 369 566ZM159 840L159 638L49 638L49 568L159 568L159 375C114 358 72 344 39 333L60 261L159 299L159 11C159-2 154-5 142-5C131-6 96-6 56-5C65-24 74-54 76-72C134-72 170-70 193-58C216-46 225-27 225 12L225 325L323 363L310 431L225 399L225 568L315 568L315 638L225 638L225 840Z"/></svg>