<svg id="U39B3" viewBox="0 0 1024 1024"><path transform="translate(0, 921.6) scale(1,-1)" d="M668 853L652 843L658 675L672 552L867 552L921 605L985 552L985 530L675 530L677 514L704 378L739 266L759 220L800 289L832 354L859 419L864 432L921 401L932 384L912 381L888 327L850 260L809 198L784 166L819 107L859 58L896 25L919 13L947 138L958 138L948 3L970-6L980-29L970-52L947-61L904-52L859-28L813 12L766 70L739 115L716 90L664 45L608 5L550-29L487-56L422-76L419-67L479-37L535-4L588 34L637 75L683 121L715 159L678 244L642 362L613 504L610 530L39 530L39 552L275 552L275 697L77 697L77 718L275 718L275 874L340 863L356 853L340 843L340 718L426 718L480 772L544 718L544 697L340 697L340 552L607 552L594 670L587 858L587 876L652 863L668 853ZM48 69L58 71L107 76L206 89L292 102L292 296L81 296L81 317L292 317L292 491L356 480L372 469L356 460L356 317L435 317L489 371L553 317L553 296L356 296L356 111L477 128L595 144L597 134L483 100L319 59L215 36L116 16L90 11L81-8L68 7L48 69ZM836 673L820 704L810 719L788 749L776 763L749 792L735 806L718 819L723 828L763 812L782 802L800 791L833 767L849 753L864 738L878 723L891 706L895 682L880 662L856 658L836 673Z"/></svg>