<svg id="U39F6" viewBox="0 0 1000 1000"><path transform="translate(0, 900) scale(1,-1)" d="M465 531L793 531L793 448L465 448ZM465 589L465 670L793 670L793 589ZM465 389L793 389L793 301L465 301ZM900 414C889 398 877 383 865 368L865 733L618 733L662 822L582 837C574 807 558 767 544 733L396 733L396 301L319 301L319 234L725 234C598 138 441 65 275 17C287 2 306-32 312-49C488 9 657 92 793 204L793 11C793-5 789-10 774-10C757-11 705-11 649-9C659-29 669-61 672-80C744-80 797-79 826-67C856-55 865-33 865 11L865 269C901 305 934 344 963 385ZM159 840L159 638L49 638L49 568L159 568L159 351C114 335 72 320 39 309L60 237L159 275L159 11C159-2 154-5 142-5C131-6 96-6 56-5C65-24 74-54 76-72C134-72 170-70 193-58C216-46 225-27 225 12L225 301L321 339L309 407L225 376L225 568L317 568L317 638L225 638L225 840Z"/></svg>