<svg id="U3A3A" viewBox="0 0 1000 1000"><path transform="translate(0, 900) scale(1,-1)" d="M478 840L478 748L345 748L345 687L478 687L478 540L614 540L614 474L378 474L378-80L443-80L443 84C453 77 463 68 470 60C496 98 519 146 538 194C555 146 569 100 576 65L618 84L618-72L679-72L679 89C689 82 701 72 709 64C736 102 761 151 780 201C800 152 816 105 825 70L862 88L862-2C862-13 859-16 847-16C838-17 803-17 764-16C773-33 783-61 786-79C839-79 874-78 897-68C921-56 927-36 927-3L927 474L683 474L683 540L824 540L824 687L951 687L951 748L824 748L824 840L753 840L753 748L547 748L547 840ZM753 687L753 603L547 603L547 687ZM712 353C726 325 741 295 754 264C737 208 710 144 679 98L679 416L862 416L862 113C841 185 796 289 753 370ZM475 349C488 321 501 290 514 259C497 205 471 143 443 97L443 416L618 416L618 105C598 176 557 282 518 365ZM165 839L165 638L47 638L47 568L165 568L165 348C115 332 69 319 32 309L52 235L165 272L165 14C165 0 159-4 147-4C135-5 97-5 53-4C63-24 72-55 75-73C138-74 177-71 201-59C225-48 234-27 234 14L234 295L343 331L332 400L234 369L234 568L336 568L336 638L234 638L234 839Z"/></svg>