<svg id="U3A54" viewBox="0 0 1000 1000"><path transform="translate(0, 900) scale(1,-1)" d="M420 160C399 92 364 25 322-21C335-30 358-49 368-60C411-10 452 67 476 145ZM512 141C542 101 575 46 590 10L640 38C625 73 591 126 559 166ZM354 248L354 187L646 187L646 248L582 248L582 377L631 377L631 438L582 438L582 550L530 550L530 438L468 438L468 550L416 550L416 438L364 438L364 377L416 377L416 248ZM468 377L530 377L530 248L468 248ZM295 803L295 447C295 303 289 109 218-28C232-35 256-56 266-68C342 76 352 294 352 447L352 572L629 572L629 803ZM352 743L571 743L571 633L352 633ZM682 801L682 687C682 630 674 561 617 507C630 498 654 471 662 458C729 520 742 613 742 686L742 735L823 735L823 576C823 508 833 481 884 481C895 481 917 481 926 481C939 481 955 481 964 485C962 502 960 524 959 543C949 539 934 539 925 539C918 539 901 539 894 539C884 539 883 547 883 574L883 801ZM861 349C843 290 819 235 790 186C766 235 747 290 733 349ZM648 417L648 349L729 349L676 335C694 258 718 188 750 126C704 65 650 16 594-16C608-30 626-57 635-75C690-41 741 6 787 64C826 6 873-40 929-72C939-53 957-25 972-10C915 19 866 65 828 122C876 199 915 292 939 400L897 420L886 417ZM137 840L137 638L45 638L45 572L137 572L137 346L35 309L55 241L137 274L137 11C137-2 134-5 122-5C112-6 80-6 43-5C52-24 60-54 62-72C116-72 149-69 172-58C192-46 200-27 200 11L200 299L276 330L265 395L200 370L200 572L273 572L273 638L200 638L200 840Z"/></svg>