<svg id="U3A8C" viewBox="0 0 1000 1000"><path transform="translate(0, 900) scale(1,-1)" d="M268 330L268 222L150 222L150 330ZM268 393L150 393L150 500L268 500ZM334 330L456 330L456 222L334 222ZM334 393L334 500L456 500L456 393ZM145 659C188 633 235 598 272 565L82 565L82-65L150-65L150 159L268 159L268-33L334-33L334 159L456 159L456 28C456 16 452 13 442 13C431 12 398 12 361 13C370-4 381-33 384-52C437-52 472-51 496-39C520-27 526-7 526 27L526 565L363 565L335 592C394 640 469 704 525 760L477 798L461 794L84 794L84 733L400 733C364 698 322 660 287 631C257 654 224 676 194 694ZM687 840L687 485L547 485L547 417L586 417C614 312 654 215 706 133C652 67 589 16 522-16C539-30 559-60 569-78C636-42 697 7 751 70C798 11 853-37 916-72C928-52 950-23 967-9C902 22 845 70 797 130C859 221 906 335 932 472L885 487L872 485L760 485L760 623L960 623L960 692L760 692L760 840ZM654 417L846 417C825 334 792 259 751 195C709 261 677 337 654 417Z"/></svg>