<svg id="U3A22" viewBox="0 0 1000 1000"><path transform="translate(0, 900) scale(1,-1)" d="M147 840L147 638L45 638L45 568L147 568L147 349L35 309L56 237L147 272L147 11C147-2 142-5 130-5C119-6 84-6 44-5C54-24 62-54 65-72C123-72 159-70 182-58C204-46 213-27 213 12L213 298L306 335L293 403L213 373L213 568L297 568L297 638L213 638L213 840ZM544 403L544 318L404 318L404 403ZM340 467L340-82L404-82L404 108L544 108L544-1C544-11 541-14 531-15C521-16 492-16 457-14C467-33 476-62 479-80C526-80 559-79 581-68C602-56 608-36 608-2L608 467ZM404 258L544 258L544 167L404 167ZM885 753C849 725 794 693 740 666L740 838L675 838L675 492C675 422 693 403 762 403C776 403 852 403 867 403C924 403 941 432 948 539C930 543 905 553 891 565C888 477 883 462 860 462C844 462 783 462 771 462C744 462 740 467 740 493L740 606C805 633 878 669 934 703ZM890 306C854 272 796 236 740 207L740 375L675 375L675 18C675-53 693-72 764-72C778-72 857-72 872-72C932-72 949-40 956 75C937 80 912 90 898 101C895 3 891-12 866-12C849-12 785-12 772-12C744-12 740-8 740 19L740 146C808 176 883 215 936 257ZM338 535C356 544 385 551 578 578C587 553 594 531 598 512L655 536C643 592 603 678 563 744L511 724C526 696 542 666 555 635L407 617C439 674 470 747 493 816L428 840C409 756 367 665 354 641C341 617 329 600 316 598C324 581 334 549 338 535Z"/></svg>