<svg id="U3A76" viewBox="0 0 1000 1000"><path transform="translate(0, 900) scale(1,-1)" d="M151 840L151 638L48 638L48 570L151 570L151 350L39 309L58 240L151 276L151 11C151-2 146-5 135-5C124-6 90-6 50-5C59-24 68-54 71-72C127-72 161-70 184-58C205-46 214-27 214 12L214 301L292 332L280 399L214 374L214 570L281 570L281 638L214 638L214 840ZM409 846C385 781 346 714 300 668C316 659 339 637 350 627C370 649 390 677 409 708L463 708C475 682 487 650 492 628L545 645C541 662 533 686 522 708L615 708L615 760L437 760C449 782 459 805 467 827ZM695 845C673 777 638 708 595 661C610 653 636 636 648 626C666 648 684 676 701 707L767 707C779 680 793 648 798 625L850 641C846 659 835 684 824 707L958 707L958 760L727 760C737 783 746 806 753 829ZM322 615L322 555L588 555L588 494L594 494L594 462L407 462C442 479 475 498 501 517L464 555C419 527 339 485 276 460C289 449 303 432 313 419L339 430L339-79L404-79L404 402L594 402L594-64L650-64L650 402L857 402L857-1C857-12 854-15 842-15C831-16 795-16 753-15C761-31 769-55 771-71C831-71 868-70 891-60C914-51 921-34 921-1L921 427L940 414L970 460C925 491 838 532 768 555L938 555L938 615ZM736 514C776 501 820 482 859 462L650 462L650 494L656 494L656 555L764 555ZM426 348C444 334 462 317 479 300C461 275 440 252 419 234C430 227 442 215 450 206C470 224 490 246 508 269C524 250 538 232 547 216L574 249C564 265 549 284 532 303C546 326 559 349 569 372L531 391C524 373 514 353 502 334C486 349 469 364 453 376ZM427 140C444 127 462 112 478 96C460 70 439 46 417 26C427 20 440 7 447-2C469 18 489 40 508 65C523 48 537 31 546 16L574 48C564 63 549 81 532 100C546 123 559 147 570 171L532 191C524 171 513 150 501 130C485 144 469 157 453 169ZM675 342C692 329 710 313 728 297C710 274 690 253 670 237C679 230 692 217 699 209C720 226 739 246 757 268C774 250 789 232 799 217L826 250C816 266 801 284 782 302C796 323 808 344 818 366L781 386C773 368 763 350 752 331C735 345 718 359 702 371ZM676 146C694 133 713 117 731 101C712 76 691 51 669 32C679 26 693 13 700 4C722 24 743 47 761 72C778 55 792 38 802 24L828 59C818 73 803 90 786 107C799 128 811 150 821 172L783 192C775 174 765 155 753 136C736 150 718 164 701 175Z"/></svg>