<svg id="U3B1F" viewBox="0 0 1000 1000"><path transform="translate(0, 900) scale(1,-1)" d="M563 603C584 556 607 493 616 455L656 470C647 507 624 569 600 615ZM805 615C793 571 769 505 750 464L785 451C804 491 825 549 844 601ZM165 843C140 701 94 564 29 476C44 466 69 445 80 434C118 489 150 561 177 642L216 642C184 468 121 289 40 199C56 188 75 170 85 155C170 260 235 456 267 642L311 642C281 387 214 143 103 24C119 13 138-6 149-22C264 112 332 374 361 642L399 642C386 222 370 68 347 35C338 20 330 17 318 17C302 17 272 18 239 21C248 1 254-30 256-50C287-52 320-52 340-49C365-46 382-37 398-10C430 37 442 191 458 673C458 682 458 710 458 710L197 710C208 749 217 789 225 830ZM585 106L833 106L833 22L585 22ZM585 160L585 247L833 247L833 160ZM525 306L525-77L585-77L585-36L833-36L833-74L896-74L896 306ZM547 649L679 649L679 419L547 419ZM728 649L865 649L865 419L728 419ZM492 708L492 361L922 361L922 708L812 708C836 741 861 781 884 818L819 843C803 804 772 747 747 708L613 708L656 727C644 759 619 805 593 840L537 817C559 784 583 740 594 708Z"/></svg>