<svg id="U3BCA" viewBox="0 0 1000 1000"><path transform="translate(0, 900) scale(1,-1)" d="M731 159C757 125 782 77 793 44L839 68C828 99 802 146 775 180ZM617 156C637 115 655 58 660 22L712 41C706 77 687 131 666 172ZM503 153C514 100 519 32 518-11L575 1C576 45 569 113 556 165ZM397 169C382 108 355 34 316-9L369-41C410 6 436 84 452 148ZM443 452C427 373 401 268 380 203L885 203C877 59 870 3 856-12C849-21 840-22 825-22C810-22 768-22 724-17C733-34 739-58 740-75C786-78 831-78 854-76C880-74 897-68 913-52C935-26 944 43 953 231C953 240 954 260 954 260L462 260L478 322L924 322L924 377L491 377L506 445ZM349 520L349 463L953 463L953 520L697 520L697 595L905 595L905 651L697 651L697 735L938 735L938 792L372 792L372 735L630 735L630 520L517 520L517 677L454 677L454 520ZM193 840L193 647L56 647L56 579L186 579C155 443 93 282 31 198C43 181 61 150 69 129C115 196 159 305 193 418L193-79L259-79L259 436C285 387 313 328 325 296L370 349C354 378 282 497 259 530L259 579L361 579L361 647L259 647L259 840Z"/></svg>