<svg id="U3B47" viewBox="0 0 1000 1000"><path transform="translate(0, 900) scale(1,-1)" d="M526 411C517 194 492 55 300-20C316-34 337-62 346-81C556 6 590 167 600 411ZM709 416L709 39C709-40 726-64 796-64C809-64 867-64 882-64C946-64 963-23 969 130C949 136 920 148 904 161C902 27 898 5 875 5C862 5 816 5 806 5C785 5 781 10 781 39L781 416ZM427 440C454 453 497 458 858 495C871 469 882 446 890 426L956 464C924 538 849 656 789 743L727 712C758 666 792 613 821 561L518 533C579 613 640 713 691 814L612 841C564 726 487 606 462 575C439 543 421 521 402 516C411 496 423 456 427 440ZM199 840L199 647L54 647L54 577L192 577C160 440 97 281 32 197C46 179 64 146 72 124C119 191 165 300 199 413L199-79L267-79L267 437C295 387 327 327 342 295L388 350C370 378 294 493 267 528L267 577L391 577L391 647L267 647L267 840Z"/></svg>