<svg id="U3B33" viewBox="0 0 1000 1000"><path transform="translate(0, 900) scale(1,-1)" d="M398 363L398 291L645 291L645-79L719-79L719 291L960 291L960 363L719 363L719 606L929 606L929 678L553 678C568 726 581 776 591 828L515 840C490 698 444 562 372 477C392 469 427 452 442 441C475 486 504 542 529 606L645 606L645 363ZM103 803L103 444C103 297 98 96 34-46C51-52 80-68 93-79C135 16 154 141 162 259L295 259L295 16C295 3 290-1 278-2C265-2 227-3 183-1C192-20 201-52 204-71C268-71 305-69 330-57C353-45 362-23 362 15L362 803ZM168 735L295 735L295 569L168 569ZM168 500L295 500L295 329L166 329C168 370 168 409 168 444Z"/></svg>