<svg id="U3B0F" viewBox="0 0 1000 1000"><path transform="translate(0, 900) scale(1,-1)" d="M519 619L795 619L795 525L519 525ZM452 674L452 470L866 470L866 674ZM376 795L376 730L934 730L934 795ZM743 339C726 297 692 236 664 194L588 194L635 216C621 250 586 303 553 341L505 321C536 282 569 230 583 194L491 194L491 141L619 141L619-58L681-58L681 141L813 141L813 194L723 194C748 231 776 275 801 316ZM396 414L396-80L463-80L463 355L846 355L846-4C846-15 843-17 832-17C822-18 789-18 751-17C760-35 768-62 771-80C826-80 863-79 885-68C910-57 915-38 915-5L915 414ZM262 414L262 185L148 185L148 414ZM262 481L148 481L148 703L262 703ZM86 771L86 36L148 36L148 117L325 117L325 771Z"/></svg>