<svg id="U3BDC" viewBox="0 0 1000 1000"><path transform="translate(0, 900) scale(1,-1)" d="M729 839L729 754L570 754L570 839L501 839L501 754L369 754L369 690L501 690L501 619L570 619L570 690L729 690L729 619L800 619L800 690L944 690L944 754L800 754L800 839ZM757 483C738 399 696 328 634 280C645 273 663 258 675 247L613 247L613 172L355 172L355 107L613 107L613-80L683-80L683 107L952 107L952 172L683 172L683 240L686 237C717 263 745 296 768 335C811 300 856 259 880 230L925 277C897 308 843 354 795 389C807 415 816 443 823 472ZM588 621C604 603 619 580 631 559L389 559L389 495L930 495L930 559L706 559C692 586 669 619 647 644ZM502 483C482 388 436 311 367 261C381 251 404 227 414 215C453 245 487 284 513 330C537 307 562 281 575 263L624 306C605 328 570 362 540 387C551 414 559 443 566 473ZM184 840L184 626L52 626L52 555L172 555C145 422 90 268 33 187C46 169 63 137 71 116C113 181 153 287 184 396L184-79L254-79L254 398C283 349 317 289 332 256L376 312C358 340 281 454 254 489L254 555L366 555L366 626L254 626L254 840Z"/></svg>