<svg id="U3CF4" viewBox="0 0 1000 1000"><path transform="translate(0, 900) scale(1,-1)" d="M487 783C546 754 621 711 658 681L700 736C661 766 585 807 528 832ZM806 623C848 571 891 500 907 453L967 486C949 533 904 601 861 652ZM379 664C364 608 335 538 299 497L363 462C400 507 427 579 444 637ZM91 767C147 738 217 692 253 658L289 721C253 753 182 796 127 823ZM36 491C93 466 167 424 203 394L238 457C200 487 127 526 71 548ZM62-10L117-61C167 28 225 147 269 249L222 298C172 189 107 64 62-10ZM796 796C738 690 655 598 556 523L556 680L487 680L487 476C429 439 367 408 303 382C318 368 341 338 351 323C398 345 445 369 489 397C497 350 525 336 598 336C617 336 730 336 749 336C823 336 844 365 852 484C832 488 803 499 788 510C784 415 778 402 742 402C718 402 624 402 604 402C563 402 556 406 556 433L556 441C679 528 786 638 860 771ZM567 314L567 230L318 230L318 162L567 162L567 19L267 19L267-50L950-50L950 19L640 19L640 162L909 162L909 230L640 230L640 314Z"/></svg>