<svg id="U3CF8" viewBox="0 0 1000 1000"><path transform="translate(0, 900) scale(1,-1)" d="M90 772C148 743 221 696 256 663L295 726C258 758 184 801 129 827ZM36 501C93 474 165 429 201 398L239 461C201 492 129 533 73 558ZM63-10L121-61C172 31 233 155 280 259L230 309C179 196 110 66 63-10ZM714 838L714 738L546 738L546 838L474 838L474 738L324 738L324 671L474 671L474 566L546 566L546 671L714 671L714 566L786 566L786 671L945 671L945 738L786 738L786 838ZM876 487C837 436 782 384 719 336L719 556L648 556L648 285C611 260 572 237 533 217C549 204 569 182 579 167C602 179 625 192 648 206L648 36C648-47 668-70 744-70C761-70 848-70 864-70C936-70 954-28 961 112C941 117 912 129 896 142C892 20 888-5 859-5C840-5 769-5 754-5C725-5 719 2 719 36L719 252C802 310 876 375 930 443ZM497 559C453 445 375 339 289 269C305 256 331 228 341 214C372 240 402 272 430 307L430-81L502-81L502 409C527 451 550 495 568 540Z"/></svg>