<svg id="U3CCF" viewBox="0 0 1000 1000"><path transform="translate(0, 900) scale(1,-1)" d="M89 772C144 743 216 696 250 663L287 726C252 758 180 801 125 827ZM36 501C91 474 162 429 197 398L233 461C197 492 126 533 71 558ZM62-10L117-61C167 31 227 155 273 259L225 309C175 196 108 66 62-10ZM403 618L584 618L584 455L584 414L403 414ZM658 618L838 618L838 414L657 414L658 455ZM434 299L371 275C403 223 443 175 490 132C438 75 358 25 234-14C251-30 272-60 282-76C405-32 488 24 544 87C648 8 776-48 915-80C925-59 946-29 963-13C819 14 688 68 586 142C627 207 645 277 653 349L909 349L909 682L658 682L658 839L584 839L584 682L335 682L335 349L580 349C574 293 560 238 530 187C492 221 459 259 434 299Z"/></svg>