<svg id="U3C8C" viewBox="0 0 1000 1000"><path transform="translate(0, 900) scale(1,-1)" d="M40 262L51 194L201 225L201 113C201-12 248-42 400-42C435-42 745-42 784-42C917-42 944-3 959 126C940 130 909 140 892 152C882 49 867 26 784 26C718 26 445 26 394 26C287 26 269 44 269 112L269 239L426 271L416 338L269 308L269 468L418 499L406 564L269 536L269 700C328 718 384 739 428 763L369 817C299 774 167 736 52 712C61 697 71 670 75 654C116 661 158 671 201 681L201 522L57 492L68 425L201 453L201 295ZM434 788L434 720L513 720L513 619C513 470 503 283 382 129C400 119 428 96 441 81C571 247 585 452 585 619L585 720L722 720C711 630 697 528 684 461L842 461C824 274 805 195 780 172C769 163 757 162 739 162C716 162 660 162 603 168C616 148 624 119 626 98C682 95 736 94 765 96C798 98 818 105 838 127C874 160 893 256 915 497C916 507 918 530 918 530L764 530C777 609 789 708 799 788Z"/></svg>