<svg id="U3CE8" viewBox="0 0 1000 1000"><path transform="translate(0, 900) scale(1,-1)" d="M89 772C142 740 208 689 241 654L282 713C248 747 181 794 129 824ZM36 501C89 471 157 424 189 391L228 451C194 483 126 528 74 555ZM62-10L118-59C163 28 215 140 255 237L206 285C162 180 103 61 62-10ZM432 832C409 790 367 727 326 675C374 616 416 553 437 507L502 533C482 571 443 627 403 676C435 718 472 768 500 814ZM642 832C619 790 576 727 535 675C584 616 627 553 649 507L713 533C693 571 652 628 612 676C645 718 681 768 710 814ZM854 830C832 789 790 727 749 676C801 617 847 554 870 509L933 535C911 573 869 630 826 677C858 718 894 766 922 812ZM311 482L311 417L509 417C462 333 381 265 292 220C307 206 330 178 339 165C390 194 440 232 483 275L797 275C765 222 720 176 667 136C632 167 571 208 521 234L475 191C520 165 573 128 609 97C510 38 391-1 268-23C283-38 301-66 307-84C565-29 804 91 902 322L854 343L840 340L540 340C558 364 574 390 587 417L939 417L939 482Z"/></svg>