<svg id="U3DD1" viewBox="0 0 1000 1000"><path transform="translate(0, 900) scale(1,-1)" d="M248 804C224 756 181 704 128 674L184 645C239 678 278 731 304 781ZM804 805C772 771 716 722 673 692L731 666C773 694 825 735 867 776ZM463 200L463 142L137 142L137 87L463 87L463 3L53 3L53-51L948-51L948 3L538 3L538 87L875 87L875 142L538 142L538 200ZM116 392L116 215L905 215L905 392L667 392L667 450L928 450L928 503L76 503L76 450L350 450L350 392ZM425 450L592 450L592 392L425 392ZM186 341L350 341L350 265L186 265ZM425 341L592 341L592 265L425 265ZM667 341L832 341L832 265L667 265ZM466 834C441 672 366 598 47 565C59 551 74 526 79 511C334 541 448 601 501 710C575 590 710 533 927 515C935 533 951 557 966 571C722 585 582 647 529 791L537 834Z"/></svg>