<svg id="U3D1A" viewBox="0 0 1000 1000"><path transform="translate(0, 900) scale(1,-1)" d="M89 772C145 742 218 695 253 661L290 724C254 756 180 801 125 827ZM36 501C92 474 163 429 198 397L234 460C198 491 126 533 71 558ZM62-10L119-62C168 31 227 154 273 259L223 309C174 196 108 67 62-10ZM751 839C730 789 694 720 662 669L516 669L567 691C551 728 516 785 485 828L423 805C451 763 484 708 499 669L314 669L314 604L554 604C486 542 388 489 294 456C308 443 331 415 339 402C399 427 462 460 520 499C538 478 554 456 567 433C501 372 387 305 297 273C312 259 330 234 340 217C422 255 523 318 595 378C604 356 611 334 617 312C536 216 386 115 259 69C275 54 293 28 302 10C415 59 544 146 633 235C647 131 631 39 601 10C585-10 567-12 542-12C522-12 491-11 458-8C470-27 475-54 476-72C506-74 535-75 556-75C600-74 628-66 656-36C712 14 731 185 680 344L724 376C766 242 835 114 917 44C928 61 952 85 969 96C885 160 813 286 776 415C814 445 851 476 883 505L829 549C787 502 718 443 659 398C637 448 607 495 569 534C597 556 623 580 645 604L939 604L939 669L735 669C765 714 797 769 825 818Z"/></svg>