<svg id="U3D10" viewBox="0 0 1000 1000"><path transform="translate(0, 900) scale(1,-1)" d="M88 767C132 742 185 701 212 672L247 728C220 756 166 793 123 817ZM34 491C81 467 140 429 170 401L202 459C172 486 112 522 65 543ZM60-10L117-55C155 35 197 154 230 254L179 298C144 190 94 65 60-10ZM453 509L453 363L343 363L343 509ZM453 571L343 571L343 710L453 710ZM453 302L453 152L343 152L343 302ZM280 777L280-3L343-3L343 85L514 85L514 777ZM577 594L577 245L865 245C856 100 846 37 829 18C821 6 812 4 797 5C780 5 742 5 700 9C710-10 718-39 719-59C760-62 799-62 823-59C851-56 869-48 886-25C917 14 929 142 941 517C941 527 941 551 941 551L780 551L780 720L954 720L954 786L545 786L545 720L716 720L716 306L640 306L640 594ZM780 491L876 491L869 306L780 306Z"/></svg>