<svg id="U3D4D" viewBox="0 0 1000 1000"><path transform="translate(0, 900) scale(1,-1)" d="M78 776C135 748 204 701 236 668L281 728C247 761 178 803 122 829ZM38 506C97 481 167 439 202 407L245 468C210 500 139 538 79 561ZM55-27L123-67C166 25 217 148 254 253L194 292C153 180 96 50 55-27ZM542 397C592 365 649 318 675 283L720 321C692 355 634 400 585 430ZM718 280C754 218 789 136 801 85L852 109C840 158 802 238 766 299ZM531 328L531 99C531 40 545 24 603 24C615 24 664 24 676 24C726 24 742 51 747 168C731 173 707 182 696 191C694 89 689 76 669 76C659 76 619 76 610 76C592 76 588 79 588 99L588 328ZM445 294C438 224 422 142 390 95L439 68C473 120 488 207 496 281ZM376 607L518 607L518 524L376 524ZM376 661L376 745L518 745L518 661ZM308 803L308-80L376-80L376 466L583 466L583 803ZM857 607L857 524L702 524L702 607ZM857 661L702 661L702 745L857 745ZM890 803L638 803L638 466L857 466L857 4C857-9 852-14 839-14C828-15 787-15 745-13C753-30 764-59 768-76C830-77 868-75 892-64C917-53 926-34 926 3L926 803Z"/></svg>