<svg id="U3D6F" viewBox="0 0 1000 1000"><path transform="translate(0, 900) scale(1,-1)" d="M387 116C378 71 359 13 337-21L380-49C403-11 420 49 430 97ZM462 105C470 60 472 4 469-32L513-27C515 9 512 66 502 109ZM544 104C559 67 570 19 573-14L615-1C611 30 598 78 582 115ZM623 111C640 83 655 46 660 21L699 37C693 61 677 98 660 126ZM63 786C110 752 167 700 193 664L237 714C209 749 152 798 105 830ZM35 505C85 476 149 432 179 400L220 455C189 485 124 527 75 552ZM46-26L105-66C146 24 194 144 228 247L175 286C136 177 83 50 46-26ZM288 788L288 483C288 325 278 112 177-38C192-46 218-68 229-80C336 78 351 316 351 483L351 722L802 722C805 291 803-80 912-80C958-79 970-28 976 100C965 112 948 135 937 154C936 66 930-1 919-1C864-1 864 424 864 788ZM400 569L400 152L728 152C721 47 713 5 702-8C695-14 689-16 676-16C664-16 631-15 597-12C604-26 609-49 611-65C646-68 682-68 699-66C721-65 735-59 749-44C768-23 777 32 785 172C786 181 787 199 787 199L460 199L460 245L783 245L783 291L460 291L460 336L743 336L743 569L568 569L590 622L770 622L770 672L383 672L383 622L528 622L513 569ZM460 432L684 432L684 382L460 382ZM460 475L460 522L684 522L684 475Z"/></svg>