<svg id="U3EE3" viewBox="0 0 1000 1000"><path transform="translate(0, 900) scale(1,-1)" d="M609 249C584 196 539 122 506 76L556 45C590 90 633 156 665 216ZM715 221C757 166 803 89 822 42L881 76C860 122 812 195 769 250ZM33 100L48 27C135 56 252 93 362 129L353 198L230 159L230 413L334 413L334 483L230 483L230 702L345 702L345 772L46 772L46 702L164 702L164 483L60 483L60 413L164 413L164 138ZM336 315L336 251L409 251L409-35L934-35L934 30L478 30L478 251L957 251L957 315L837 315L837 672L933 672L933 737L837 737L837 840L765 840L765 737L528 737L528 840L457 840L457 737L363 737L363 672L457 672L457 315ZM528 672L765 672L765 596L528 596ZM528 537L765 537L765 457L528 457ZM528 397L765 397L765 315L528 315Z"/></svg>