<svg id="U3E07" viewBox="0 0 1000 1000"><path transform="translate(0, 900) scale(1,-1)" d="M501 283L804 283L804 226L501 226ZM501 178L804 178L804 120L501 120ZM501 387L804 387L804 331L501 331ZM85 636C81 555 65 454 37 393L86 367C116 436 132 546 135 629ZM293 657C282 597 257 505 237 450L280 435C301 487 327 572 351 639ZM472 840L472 768L383 768L383 715L472 715L472 703C472 688 471 671 469 653L370 653L370 598L458 598C442 548 409 497 339 460C354 449 374 429 383 415C441 449 479 491 502 535C534 513 567 489 587 473L621 520C599 537 558 564 523 585L526 598L630 598L630 653L536 653C538 670 539 687 539 703L539 715L619 715L619 768L539 768L539 840ZM757 840L757 768L669 768L669 715L757 715L757 706C757 690 756 672 754 653L656 653L656 598L739 598C722 556 689 514 626 484C641 473 661 452 670 438C735 474 774 520 796 567C825 508 869 451 916 421C927 435 947 456 962 467C914 493 869 544 842 598L940 598L940 653L821 653C823 671 824 689 824 705L824 715L924 715L924 768L824 768L824 840ZM720 31C788-5 863-50 908-80L970-37C922-8 842 35 773 70L877 70L877 437L431 437L431 70L767 70ZM526 70C480 31 382-14 299-37C316-49 339-71 350-85C433-61 532-14 592 33ZM170 829L170 478C170 297 158 113 35-31C50-42 72-64 82-79C149-2 187 85 208 177C241 125 282 56 300 21L347 70C329 99 250 219 222 255C232 328 234 403 234 479L234 829Z"/></svg>