<svg id="U3E6B" viewBox="0 0 1000 1000"><path transform="translate(0, 900) scale(1,-1)" d="M419 465C414 397 403 315 392 260L431 260L595 259C565 150 495 47 329-23C346-38 368-65 377-80C530-9 608 88 648 193C699 60 786-34 923-79C932-60 953-32 968-16C823 22 733 121 689 259L867 259C863 195 857 168 849 159C845 153 839 151 830 151C821 151 802 151 777 154C785 140 792 117 793 101C820 99 848 100 863 101C882 103 897 108 909 121C924 140 932 185 938 295C939 304 939 321 939 321L679 321C683 348 685 376 686 403L909 403L909 609L687 609L687 687L943 687L943 752L687 752L687 840L616 840L616 752L375 752L375 687L616 687L616 609L409 609L409 547L616 547L616 469L616 465ZM615 403C614 376 612 349 608 321L470 321L481 403ZM687 547L839 547L839 465L687 465L687 468ZM285 820C266 785 240 747 210 711C185 747 153 783 114 817L65 775C107 737 140 699 165 659C122 613 75 572 32 544C46 528 65 496 74 476C114 507 158 548 199 594C216 553 228 511 235 468C191 375 111 277 38 228C54 211 71 182 81 163C138 210 198 282 245 358L246 303C246 174 237 61 213 27C205 16 196 11 181 10C159 7 122 6 74 11C87-11 95-39 96-63C137-66 178-65 210-59C233-55 251-43 264-25C302 31 313 158 313 301C313 423 303 540 247 650C282 694 314 740 337 783Z"/></svg>