<svg id="U3F79" viewBox="0 0 1000 1000"><path transform="translate(0, 900) scale(1,-1)" d="M46 619C80 559 112 480 123 430L183 461C172 511 138 587 102 645ZM496 829C507 798 518 760 527 727L199 727L199 429C199 399 198 368 196 336C134 304 75 273 31 254L57 185L189 261C175 158 140 53 58-30C74-40 102-66 112-80C251 58 271 272 271 428L271 658L959 658L959 727L612 727C601 762 585 808 571 843ZM783 329C754 257 710 195 657 145C603 196 560 258 531 329ZM366 558L366 408C366 280 352 97 234-35C252-44 280-64 294-77C397 41 427 198 434 329L462 329C497 239 544 163 606 101C538 49 460 13 379-10C392-24 410-52 418-70C505-42 587-2 658 53C729-3 813-44 913-70C923-50 942-22 958-7C862 14 780 50 712 100C785 171 843 264 878 381L830 401L816 398L436 398L436 408L436 499C603 506 791 523 916 553L874 614C754 585 542 566 366 558Z"/></svg>