<svg id="U3F47" viewBox="0 0 1000 1000"><path transform="translate(0, 900) scale(1,-1)" d="M378 123C441 99 516 59 555 31L595 75C555 103 478 140 417 162ZM162-65C186-55 224-50 535-24C536-11 539 14 543 31L255 9C271 52 291 114 310 174L662 174L662 19C662-47 683-64 752-64C768-64 838-64 853-64C915-64 933-34 939 85C920 90 893 100 877 111C875 8 871-6 845-6C830-6 775-6 763-6C739-6 734-3 734 20L734 226L327 226L346 287L852 287L852 342L153 342L153 287L271 287C247 207 200 53 184 28C173 8 152 0 130-4C139-18 157-48 162-65ZM134 769L155 452L70 452L70 305L142 305L142 396L857 396L857 305L931 305L931 452L840 452C849 546 859 690 865 801L642 801L642 748L791 748L788 685L646 685L646 632L784 632L780 569L642 569L642 516L775 516L768 452L226 452L222 516L357 516L357 569L219 569L215 632L352 632L352 685L211 685L208 741C257 755 314 774 357 796L318 837C271 815 190 784 134 769ZM396 781C418 769 441 755 463 740C432 718 398 697 365 681C377 673 399 654 408 645C440 663 473 685 504 710C528 693 548 675 562 660L601 695C587 710 566 727 543 744C565 764 585 787 601 809L549 824C536 806 520 789 501 772C478 787 455 800 433 811ZM396 593C418 580 441 566 463 550C432 527 399 507 365 490C378 482 399 463 408 454C440 471 473 494 505 519C529 500 550 480 565 464L606 499C591 515 569 534 544 553C569 576 591 601 609 626L556 641C541 621 523 601 502 582C479 598 456 612 434 624Z"/></svg>