<svg id="U3FCD" viewBox="0 0 1000 1000"><path transform="translate(0, 900) scale(1,-1)" d="M496 829C504 808 512 783 518 761L171 761L171 495C155 541 128 598 100 644L46 619C80 559 112 480 123 430L171 455L171 449C171 409 170 365 167 320C116 294 67 270 31 254L56 190L159 248C143 149 111 49 40-32C54-40 79-63 89-75C215 70 234 289 234 448L234 700L942 700L942 761L595 761C587 787 576 818 565 843ZM371 690C347 619 302 530 234 461C248 454 269 436 280 424L286 430L286 291C286 191 278 55 208-45C222-50 247-68 257-78C295-24 316 43 329 110L409 110L409-59L454-59L454 110L525 110L525-13C525-21 523-23 517-23C511-23 495-23 477-22C486-38 496-64 498-80C528-80 547-79 564-68C580-58 584-40 584-14L584 206C598 200 621 189 631 182C645 201 658 223 669 248L756 248L756 152L605 152L605 90L756 90L756-80L815-80L815 90L949 90L949 152L815 152L815 248L925 248L925 308L815 308L815 384L756 384L756 308L690 308C696 326 700 344 704 363L650 373C638 312 619 252 584 210L584 467L491 467C519 509 548 561 566 608L525 633L515 630L412 630L432 681ZM383 568L481 568C465 533 444 495 425 467L317 467C343 499 364 533 383 568ZM344 407L409 407L409 320L344 320ZM344 260L409 260L409 170L338 170C341 201 343 232 344 260ZM525 407L525 320L456 320L456 407ZM525 260L525 170L456 170L456 260ZM606 644L606 585L697 585C684 524 653 469 591 436C604 427 623 405 631 391C706 435 741 504 757 585L847 585C843 513 838 484 831 475C825 468 818 467 808 467C797 467 771 467 741 470C750 454 756 429 757 410C787 409 818 410 835 411C855 413 868 418 880 432C897 451 902 500 908 617C909 627 909 644 909 644Z"/></svg>