<svg id="U3F4B" viewBox="0 0 1000 1000"><path transform="translate(0, 900) scale(1,-1)" d="M350 95C437 79 550 52 610 33L628 76C567 94 453 120 368 133ZM82 479C75 435 65 389 48 352C61 347 85 338 96 332C110 368 125 422 134 468ZM365 685L365 641L632 641L632 685ZM366 597L366 554L633 554L633 597ZM165 476C173 436 180 381 182 348L231 354C229 384 220 438 210 478ZM431 465L566 465L566 414L431 414ZM372 509L372 370L628 370L628 509ZM861 478C876 443 892 394 900 364L949 378C941 406 924 453 908 488ZM681 485C674 442 664 396 647 360C660 356 684 347 694 340C709 375 724 428 732 473ZM770 482C779 442 786 389 788 356L836 362C834 392 826 445 816 484ZM165-73C190-64 229-58 591-27C591-15 594 9 598 25L251-1C263 36 277 91 290 144L662 144L662 22C662-46 683-63 755-63C770-63 843-63 858-63C922-63 939-33 946 92C927 97 899 108 884 119C881 12 876-3 851-3C835-3 776-3 765-3C738-3 734 1 734 23L734 193L303 193L318 251L927 251L927 304L71 304L71 251L246 251C229 178 197 46 186 25C177 6 155-1 136-7C144-22 160-55 165-73ZM76 503C90 511 116 516 281 537L295 489L254 480C269 444 285 395 293 366L337 378C330 405 313 450 298 486L341 500C333 535 312 596 293 642L249 631L267 581L156 570C215 619 275 682 327 747L271 774C256 750 238 727 220 705L136 699C171 733 208 777 239 823L180 842C151 787 103 733 88 719C75 705 63 697 50 694C56 679 66 651 69 638C80 643 97 647 176 656C149 628 126 606 115 596C92 577 74 563 57 561C64 545 73 516 76 503ZM455 832L470 784L342 784L342 732L658 732L658 784L536 784C531 803 522 826 515 844ZM670 504C685 511 711 515 889 534L901 494L945 511C935 545 913 605 893 650L851 637L873 578L748 567C812 619 878 685 935 755L879 782C862 758 843 734 823 711L737 704C773 738 810 783 842 829L782 848C754 793 705 738 690 725C677 710 665 702 652 699C658 685 668 656 671 644C681 649 699 652 777 661C748 631 724 608 712 599C688 578 669 564 651 562C659 546 667 517 670 504Z"/></svg>