<svg id="U3FD3" viewBox="0 0 1000 1000"><path transform="translate(0, 900) scale(1,-1)" d="M37 646C70 589 109 513 126 466L189 496C171 543 131 617 96 671ZM422 282L758 282L758 224L422 224ZM350 156C327 79 273 20 202-18C215-29 238-52 248-63C292-36 331-1 362 42C447-29 574-43 741-43L938-43C942-26 953 4 963 19C922 18 773 18 745 18C704 18 664 19 627 21L627 76L863 76L863 124L627 124L627 174L822 174L822 288C853 278 887 270 923 264C931 280 948 305 962 318C870 330 793 354 734 391C756 409 777 431 795 456C833 434 876 404 900 382L936 424C911 445 862 476 821 498C828 511 833 524 838 537L779 548C763 500 731 458 688 427C659 453 636 484 621 520L625 554L945 554L945 614L627 614L627 669L566 669L566 614L293 614L293 554L564 554C554 469 500 372 257 308C269 296 286 273 292 259C317 266 340 273 361 280L361 174L561 174L561 26C489 35 430 53 390 89C399 107 406 125 412 145ZM390 548C370 487 326 438 268 404C282 396 305 378 314 368C346 389 376 416 400 448C420 433 442 414 455 400L495 436C479 451 452 472 427 489C435 504 443 521 448 538ZM596 451C628 402 669 362 721 332L475 332C537 368 575 409 596 451ZM507 829L535 756L191 756L191 447C191 419 191 389 189 359C130 322 74 288 33 265L59 196L183 280C169 168 136 52 55-38C70-46 96-67 107-80C235 65 254 284 254 447L254 696L960 696L960 756L612 756C602 784 588 817 574 844Z"/></svg>