<svg id="U3F39" viewBox="0 0 1000 1000"><path transform="translate(0, 900) scale(1,-1)" d="M679 394C698 322 718 227 725 165L777 181C769 243 748 335 728 409ZM257 279L257-52L322-52L322 279ZM114 283L114 208C114 133 107 38 37-34C55-44 81-65 92-80C169 5 179 115 179 206L179 283ZM542-70C559-57 585-45 764 3C761 18 759 45 760 63L613 28C628 139 648 334 664 502L814 502L814 50C814-20 817-36 828-50C839-62 855-67 870-67C878-67 894-67 903-67C917-67 930-64 939-55C948-46 955-33 958-13C961 7 964 63 965 108C950 113 934 123 922 134C922 83 921 45 919 27C917 10 916 2 913-2C910-6 905-7 900-7C895-7 888-7 884-7C880-7 877-6 874-2C872 2 872 17 872 43L872 569L671 569L685 714L949 714L949 782L550 782L550 714L619 714C603 538 566 132 553 69C545 23 536 14 519 7C527-11 539-50 542-70ZM399 286L399 80C399 38 378 13 365 3C375-10 390-39 397-54C408-41 428-28 541 38C537 49 531 72 529 87L459 51L459 286ZM366 834L366 745L219 745L219 835L154 835L154 745L47 745L47 682L154 682L154 597L219 597L219 682L366 682L366 596L431 596L431 682L537 682L537 745L431 745L431 834ZM243 623C256 605 269 582 278 561L54 561L54 500L118 500L118 332L509 332L509 393L184 393L184 500L533 500L533 561L345 561C336 586 315 622 296 649Z"/></svg>