<svg id="U3F55" viewBox="0 0 1000 1000"><path transform="translate(0, 900) scale(1,-1)" d="M215 554L460 554L460 464L215 464ZM533 554L785 554L785 464L533 464ZM215 696L460 696L460 608L215 608ZM533 696L785 696L785 608L533 608ZM460 841L460 754L142 754L142 406L860 406L860 754L533 754L533 841ZM231 270C219 215 202 146 185 100L837 100C829 36 819 6 806-4C796-11 786-12 767-12C745-12 687-11 629-6C642-25 651-53 654-74C711-77 765-78 793-77C826-75 846-70 865-53C889-29 903 21 915 130C917 141 919 162 919 162L751 162C765 214 781 283 793 341L119 341L119 277L704 277C696 238 685 197 675 162L279 162C288 194 297 230 304 262Z"/></svg>