<svg id="U4054" viewBox="0 0 1000 1000"><path transform="translate(0, 900) scale(1,-1)" d="M584 710C602 665 622 606 630 570L693 594C685 628 663 686 645 729ZM883 838C764 808 548 787 370 778C377 762 387 736 389 718C570 726 790 746 931 781ZM833 738C813 686 778 614 748 564L465 564L521 589C509 621 482 675 459 714L402 692C425 652 448 598 460 564L380 564L380 500L530 500C527 471 523 442 519 415L360 415L360 352L508 352C474 182 409 54 288-32C304-41 334-63 345-74C429-6 488 79 528 187C558 139 595 96 639 58C577 19 507-10 436-28C449-41 467-68 474-84C553-62 628-29 694 16C759-27 834-60 916-80C925-62 945-35 960-20C882-5 811 22 750 59C811 113 862 180 893 265L848 285L835 282L558 282L574 352L954 352L954 415L586 415L597 500L934 500L934 564L817 564C845 609 875 666 901 715ZM799 224C773 175 736 133 692 97C645 134 605 176 576 224ZM263 507L263 365L137 365L137 507ZM263 572L137 572L137 711L263 711ZM263 300L263 155L137 155L137 300ZM72 779L72-1L137-1L137 88L330 88L330 779Z"/></svg>