<svg id="U4042" viewBox="0 0 1000 1000"><path transform="translate(0, 900) scale(1,-1)" d="M525 791L525 729L572 729L558 725C586 651 626 586 677 531C624 491 564 462 502 444C515 430 531 403 539 387C605 410 668 442 724 485C776 441 836 406 904 383C913 402 933 428 949 442C884 461 825 491 775 531C838 594 888 676 916 779L874 793L862 791ZM622 729L832 729C807 668 771 616 727 573C683 618 647 671 622 729ZM285 686L158 686L158 749L285 749ZM490 802L89 802L89 405L501 405L501 458L350 458L350 526L481 526L481 686L350 686L350 749L490 749ZM285 526L285 458L158 458L158 526ZM158 638L413 638L413 574L158 574ZM262 196L737 196L737 137L262 137ZM262 246L262 307L737 307L737 246ZM262 88L737 88L737 28L262 28ZM191 362L191-78L262-78L262-31L737-31L737-76L811-76L811 362Z"/></svg>