<svg id="U4033" viewBox="0 0 1000 1000"><path transform="translate(0, 900) scale(1,-1)" d="M431 568L431 282L589 282C531 172 435 75 330 26C347 13 369-13 381-31C479 22 570 116 632 227L632-80L706-80L706 234C761 131 841 33 919-22C931-3 955 23 973 37C889 87 802 182 748 282L918 282L918 568L706 568L706 663L946 663L946 733L706 733L706 836L632 836L632 733L403 733L403 663L632 663L632 568ZM499 503L632 503L632 347L499 347ZM706 503L846 503L846 347L706 347ZM278 507L278 365L140 365L140 507ZM278 572L140 572L140 711L278 711ZM278 300L278 153L140 153L140 300ZM74 779L74-1L140-1L140 86L344 86L344 779Z"/></svg>