<svg id="U4038" viewBox="0 0 1000 1000"><path transform="translate(0, 900) scale(1,-1)" d="M221 840L221 751L64 751L64 693L221 693L221 611L50 590L58 529L221 551L221 467C221 456 217 453 205 452C193 451 153 451 110 453C119 437 128 413 131 396C192 396 232 396 258 405C283 415 291 431 291 466L291 561L440 583L439 639L291 620L291 693L442 693L442 751L291 751L291 840ZM500 771L500 655C500 580 487 498 375 441C392 430 417 407 428 392C528 447 557 522 565 600L729 600L729 391L799 391L799 600L947 600L947 658L567 658L567 725C682 740 809 764 897 794L840 842C762 813 621 787 500 771ZM258 203L757 203L757 143L258 143ZM258 252L258 313L757 313L757 252ZM258 94L757 94L757 30L258 30ZM186 369L186-80L258-80L258-28L757-28L757-77L831-77L831 369Z"/></svg>