<svg id="U41A4" viewBox="0 0 1000 1000"><path transform="translate(0, 900) scale(1,-1)" d="M374 690C302 639 196 596 101 574L139 524C246 552 353 605 431 663ZM570 645C668 615 794 566 858 532L894 581C828 616 701 662 605 689ZM437 826C448 806 460 782 470 760L77 760L77 613L152 613L152 705L846 705L846 617L924 617L924 760L555 760C544 786 526 820 509 846ZM100 202L100 147L599 147C434 79 242 31 59 3C70-13 86-45 92-62C301-21 524 39 709 129L709 10C709-5 703-10 686-11C670-12 611-12 551-11C561-29 571-56 575-75C657-75 710-75 741-64C772-54 782-34 782 10L782 167C843 202 898 240 945 282L892 321C860 292 823 265 782 239L782 531L483 531L520 594L455 615C446 591 430 558 416 531L237 531L237 202ZM310 369L709 369L709 311L310 311ZM310 419L310 479L709 479L709 419ZM310 263L709 263L709 202L310 202Z"/></svg>