<svg id="U412D" viewBox="0 0 1000 1000"><path transform="translate(0, 900) scale(1,-1)" d="M854 825C762 791 594 764 452 749C461 732 472 703 475 685C532 690 592 697 652 706L652 442L427 442L427 367L652 367L652-80L728-80L728 367L961 367L961 442L728 442L728 718C798 731 864 746 918 764ZM372 826C297 793 165 763 53 745C61 729 71 704 74 687C118 693 165 700 212 709L212 558L43 558L43 488L202 488C162 373 93 243 28 172C41 154 59 124 67 103C118 165 171 264 212 365L212-78L286-78L286 380C319 331 360 267 376 236L421 295C402 322 314 430 286 461L286 488L414 488L414 558L286 558L286 725C335 737 380 751 418 766Z"/></svg>