<svg id="U41FE" viewBox="0 0 1000 1000"><path transform="translate(0, 900) scale(1,-1)" d="M203 279L203 228L798 228L798 279ZM203 393L203 342L798 342L798 393ZM193 161L193-79L264-79L264-48L736-48L736-77L810-77L810 161ZM264 6L264 107L736 107L736 6ZM424 595C446 570 469 536 485 508L59 508L59 453L938 453L938 508L547 508L570 517C555 545 523 589 496 621ZM205 845C172 749 114 656 43 596C62 588 93 570 107 559C144 594 180 640 211 691L265 691C294 651 323 602 336 571L400 597C389 622 366 658 342 691L492 691L492 752L245 752C257 777 268 803 278 830ZM593 845C569 766 523 688 467 639C484 629 517 611 531 600C556 625 580 656 602 691L683 691C714 653 743 606 756 575L822 600C811 625 788 659 764 691L942 691L942 752L636 752C648 777 658 803 667 830Z"/></svg>