<svg id="U41F9" viewBox="0 0 1000 1000"><svg id="U41F9hk" viewBox="0 0 1000 1000"><path transform="translate(0, 900) scale(1,-1)" d="M168 585L168 527L405 527C400 502 393 478 385 455L55 455L55 396L363 396C353 371 341 347 327 324L160 324L160 265L287 265C226 186 143 126 36 84C51 70 75 40 83 24C142 51 195 82 241 119L241-76L311-76L311-46L782-46L782-76L854-76L854 203L327 203C344 223 359 243 373 265L806 265L806 396L948 396L948 455L806 455L806 585ZM440 396L731 396L731 324L408 324C419 347 430 371 440 396ZM460 455C468 478 474 502 480 527L731 527L731 455ZM311 16L311 142L782 142L782 16ZM186 842C153 758 96 676 34 621C50 610 77 586 88 573C124 608 161 655 193 706L489 706L489 765L226 765C236 784 245 804 253 823ZM253 663C293 643 345 611 371 589L403 637C377 659 324 688 284 706ZM696 663C742 643 804 611 835 591L866 639C834 660 774 687 728 705L951 705L951 764L653 764C662 784 670 805 677 826L606 842C581 759 534 679 476 627C494 618 524 598 537 586C568 618 598 659 624 705L724 705Z"/><animate attributeName="opacity" values="1;0;0;1;1" dur="2s" repeatCount="indefinite"/></svg><svg id="U41F9sc" viewBox="0 0 1000 1000"><path transform="translate(0, 900) scale(1,-1)" d="M593 845C568 759 521 677 462 623C479 615 508 598 523 588L168 588L168 530L406 530C400 505 393 480 386 457L55 457L55 398L364 398C353 373 341 349 328 326L160 326L160 267L288 267C226 187 144 128 36 86C51 71 75 41 83 26C142 52 195 84 241 120L241-75L311-75L311-45L782-45L782-75L854-75L854 203L327 203C344 223 360 244 374 267L806 267L806 398L948 398L948 457L806 457L806 588L528 588C556 617 583 652 606 692L687 692C713 658 738 618 750 592L814 618C805 638 787 665 768 692L942 692L942 752L637 752C648 777 659 803 667 830ZM440 398L731 398L731 326L408 326C420 349 431 373 440 398ZM461 457C468 480 475 505 481 530L731 530L731 457ZM311 16L311 142L782 142L782 16ZM205 845C172 755 113 669 43 614C61 605 93 586 107 576C141 607 175 647 206 692L263 692C282 659 300 622 307 596L373 620C367 640 354 666 339 692L493 692L493 752L242 752C256 777 268 803 278 829Z"/><animate attributeName="opacity" values="0;1;1;0;0" dur="2s" repeatCount="indefinite"/></svg></svg>