<svg id="U41B3" viewBox="0 0 1000 1000"><path transform="translate(0, 900) scale(1,-1)" d="M99 532C148 496 207 443 234 408L282 452C253 486 193 536 144 571ZM827 479C790 443 730 396 676 360C657 397 629 433 593 463C613 477 633 492 650 507L926 507L926 561L345 561L345 507L561 507C490 459 392 420 303 393C314 381 334 353 341 340C408 364 481 396 546 433C561 421 575 406 587 392C520 343 401 294 309 271C323 259 342 238 350 223C434 249 542 299 615 350C624 334 631 318 637 302C560 232 422 168 302 138C316 126 335 103 344 88C449 118 567 176 651 243C660 185 649 134 626 114C613 99 597 98 577 98C560 98 535 99 509 102C519 86 526 60 526 43C550 41 572 41 589 41C625 41 648 48 673 72C708 101 724 169 714 244C781 199 846 147 881 105L921 156C877 205 789 269 709 317C767 351 836 398 892 443ZM555 652C646 630 767 591 828 561L850 612C788 639 667 677 577 696ZM259 348L64 348L64 285L196 285L196 90C152 74 103 35 54-11L96-66C149-7 200 42 235 42C258 42 287 14 328-9C395-47 481-56 596-56C694-56 870-50 949-46C950-27 960 4 968 20C868 10 715 3 598 3C490 3 405 9 342 45C303 66 281 85 259 94ZM392 696C323 657 223 630 139 616L139 710L858 710L858 621L924 621L924 768L541 768C529 791 510 819 495 841L426 819C436 804 447 786 457 768L75 768L75 615L136 615L169 564C265 584 366 619 440 663Z"/></svg>