<svg id="U421E" viewBox="0 0 1000 1000"><path transform="translate(0, 900) scale(1,-1)" d="M278 426L714 426L714 356L278 356ZM204 478L204 305L793 305L793 478ZM593 845C572 771 533 701 482 653L485 651L422 635C432 618 442 598 450 579L60 579L60 520L929 520L929 579L535 579C526 599 514 623 502 643C519 634 537 623 547 616C569 639 590 667 609 698L685 698C710 665 734 626 745 600L811 625C802 645 784 672 765 698L942 698L942 757L640 757C651 781 660 805 668 830ZM208 89L780 89L780 20L208 20ZM208 142L208 205L780 205L780 142ZM136 262L136-81L208-81L208-36L780-36L780-79L854-79L854 262ZM207 845C175 761 118 681 52 628C70 619 101 601 116 590C147 618 177 653 205 692L267 692C285 660 301 623 308 598L374 620C368 640 356 666 342 692L490 692L490 752L242 752C256 777 269 803 279 829Z"/></svg>