<svg id="U4203" viewBox="0 0 1000 1000"><path transform="translate(0, 900) scale(1,-1)" d="M100 547C157 518 227 473 260 440L303 493C268 526 198 568 141 595ZM48 360C105 332 177 287 211 255L254 309C219 341 146 383 89 409ZM68-28L127-77C181-5 242 88 292 168L242 214C187 127 116 30 68-28ZM384 247L384-78L453-78L453-40L805-40L805-77L876-77L876 247ZM453 23L453 186L805 186L805 23ZM356 567L356 503L510 503C488 418 441 345 317 303C332 290 351 266 359 249C500 302 556 392 582 503L823 503C813 411 800 369 784 355C776 347 767 346 749 346C731 346 680 347 630 352C641 333 649 307 651 287C703 284 752 283 776 285C806 287 824 292 841 310C867 334 883 394 898 536C900 546 901 567 901 567ZM205 845C172 760 113 677 43 624C62 616 93 599 107 589C143 620 179 660 210 705L262 705C287 667 312 622 322 592L386 614C377 639 357 673 336 705L492 705L492 761L245 761C257 783 269 807 278 830ZM593 845C568 762 521 684 462 633C480 625 511 607 526 597C556 626 584 663 609 704L683 704C713 667 744 622 757 593L817 623C807 645 785 675 762 704L942 704L942 762L640 762C650 784 660 808 668 831Z"/></svg>