<svg id="U433C" viewBox="0 0 1000 1000"><path transform="translate(0, 900) scale(1,-1)" d="M509 571L830 571L830 376L509 376ZM40 53L53-16C146 8 270 38 389 68L383 129C256 100 126 71 40 53ZM436 638L436 310L540 310C524 167 483 41 324-24C340-37 361-63 370-80C546-3 596 141 615 310L702 310L702 29C702-45 719-67 789-67C803-67 862-67 877-67C936-67 954-34 961 96C942 101 911 112 897 125C893 15 890 0 869 0C856 0 810 0 800 0C778 0 774 4 774 30L774 310L905 310L905 638L805 638C834 690 864 756 891 815L814 841C795 780 758 695 728 638L552 638L617 668C602 714 563 784 525 837L462 811C498 756 535 684 550 638ZM58 423C73 430 98 436 230 454C183 386 140 333 121 312C88 275 64 250 43 247C51 229 61 196 65 182C86 194 119 203 383 257C382 272 381 298 383 317L168 277C248 367 327 478 395 590L337 625C318 589 296 553 274 519L130 504C187 591 242 702 283 807L216 838C179 717 111 586 89 553C69 518 52 495 35 491C43 472 54 437 58 423Z"/></svg>