<svg id="U4331" viewBox="0 0 1000 1000"><path transform="translate(0, 900) scale(1,-1)" d="M146 187C156 121 166 37 168-20L216-8C213 49 202 132 190 198ZM69 197C63 116 51 26 32-35C45-40 70-49 80-55C96 7 111 100 119 187ZM422 520L805 520L805 457L422 457ZM356 570L356 407L876 407L876 570ZM521 239C535 186 551 116 556 71L598 84C591 128 576 197 561 249ZM59 240C74 250 98 258 262 292L270 239L319 255C312 304 292 388 271 453L226 440C235 411 243 378 251 346L131 324C195 415 256 530 306 642L249 677C234 634 215 591 196 550L116 543C160 621 203 722 234 818L172 847C145 739 93 622 76 593C60 562 47 540 32 537C39 517 49 481 53 466C65 472 83 477 165 489C136 434 110 391 98 374C75 338 57 313 39 309C46 290 56 255 59 240ZM332 364L332 199C332 152 329 95 314 40C305 8 291-23 270-51C282-57 303-70 312-79C346-35 364 22 373 78L452 78L452-21C452-30 450-32 441-32C433-33 410-33 381-32C388-46 395-66 396-80C435-80 462-79 479-70C496-62 500-48 500-22L500 364ZM220 203C238 146 260 71 267 22L314 40C305 89 284 162 264 219ZM452 313L452 245L382 245L382 313ZM452 197L452 127L379 127C381 152 382 176 382 197ZM844 309L844 134C831 177 812 229 791 270L766 261L766 309ZM641 252C633 193 616 109 601 53L512 31L521-20L681 22C667-7 646-35 618-60C629-66 650-80 658-89C748-10 766 109 766 201L766 229C788 177 807 117 814 76L844 87L844 30C844-29 846-43 855-54C864-65 878-69 892-69C898-69 908-69 915-69C926-69 935-66 942-60C950-54 957-44 960-29C964-15 967 31 967 70C954 73 939 81 929 89C929 49 927 19 926 4C924-8 922-15 920-19C918-22 916-23 912-23C910-23 906-23 904-23C900-23 898-22 897-19C895-15 895 0 895 22L895 364L716 364L716 201C716 155 712 102 694 51L691 76L646 64C660 117 676 184 688 241ZM566 831C576 816 586 798 594 781L290 781L290 727L358 727L358 620L883 620L883 673L420 673L420 727L949 727L949 781L677 781C666 801 651 827 637 847ZM566 373C577 356 589 335 598 316L509 316L509 265L700 265L700 316L649 316C640 338 624 367 609 387Z"/></svg>