<svg id="U4326" viewBox="0 0 1000 1000"><path transform="translate(0, 900) scale(1,-1)" d="M185 187C197 120 208 31 210-27L266-14C263 43 251 131 239 199ZM97 197C87 116 73 26 49-35C64-40 93-49 105-56C126 6 145 100 155 187ZM276 207C297 145 323 64 332 11L387 29C376 81 350 161 326 223ZM413 690C446 664 486 627 505 602L542 643C523 667 482 701 448 726ZM694 691C726 665 764 628 783 604L820 645C801 668 763 703 730 726ZM644 458C655 438 666 414 675 392L531 392C545 415 558 439 569 461L504 483C476 416 421 335 364 276C355 326 336 396 316 452L266 440C275 412 284 379 292 348L164 326C237 419 309 537 367 653L307 683C288 639 265 593 242 551L144 543C193 620 241 719 276 813L212 839C179 731 119 615 100 586C82 555 67 535 51 531C59 513 70 480 73 466C87 472 108 477 206 489C172 433 141 388 127 370C99 333 78 307 59 303C66 285 77 254 80 240C97 249 125 258 305 292L314 241L352 253C364 240 379 223 387 212C407 231 428 252 447 275L447-79L514-79L514-39L958-39L958 20L740 20L740 93L910 93L910 144L740 144L740 215L910 215L910 266L740 266L740 336L937 336L937 392L746 392C736 419 719 453 704 480ZM393 530L416 474L577 556L577 479L639 479L639 798L402 798L402 739L577 739L577 612C507 580 441 549 393 530ZM670 540L692 484L850 562L850 454L914 454L914 798L673 798L673 739L850 739L850 619C782 587 717 559 670 540ZM514 215L675 215L675 144L514 144ZM514 266L514 336L675 336L675 266ZM514 93L675 93L675 20L514 20Z"/></svg>