<svg id="U43F1" viewBox="0 0 1000 1000"><path transform="translate(0, 900) scale(1,-1)" d="M439 799L439 439C439 292 432 96 344-40C361-47 391-66 404-78C488 51 507 241 510 392L875 392C868 116 862 16 844-6C836-17 826-19 811-19C794-19 751-19 703-14C713-32 721-60 722-79C770-81 816-81 842-79C871-76 890-69 906-47C932-13 939 97 945 424C945 433 945 457 945 457L510 457L510 543L919 543L919 799ZM510 734L846 734L846 608L510 608ZM544 322L544 35L599 35L599 80L797 80L797 322ZM599 264L739 264L739 138L599 138ZM100 803L100 444C100 297 95 96 31-46C48-52 77-68 90-79C132 16 152 141 160 259L289 259L289 16C289 3 284-1 272-2C259-2 221-3 177-1C186-20 195-52 198-71C262-71 299-69 324-57C347-45 356-23 356 15L356 803ZM166 735L289 735L289 569L166 569ZM166 500L289 500L289 329L164 329C165 370 166 409 166 444Z"/></svg>