<svg id="U43F9" viewBox="0 0 1000 1000"><path transform="translate(0, 900) scale(1,-1)" d="M535 576L828 576L828 476L535 476ZM535 416L828 416L828 316L535 316ZM535 734L828 734L828 635L535 635ZM466 796L466 253L562 253C551 117 520 25 387-28C403-40 423-66 431-82C580-19 618 91 631 253L717 253L717 17C717-55 733-75 802-75C815-75 871-75 885-75C943-75 962-43 969 86C949 92 919 103 905 116C902 5 898-9 877-9C865-9 821-9 811-9C791-9 788-5 788 18L788 253L900 253L900 796ZM106 803L106 444C106 296 101 95 34-46C51-52 79-69 92-81C136 14 156 140 165 259L301 259L301 18C301 5 296 0 283 0C270 0 230-1 183 1C193-19 202-52 204-71C271-71 309-70 335-58C358-45 367-22 367 18L367 803ZM171 733L301 733L301 569L171 569ZM171 499L301 499L301 330L169 330C170 370 171 409 171 444Z"/></svg>