<svg id="U4362" viewBox="0 0 1000 1000"><path transform="translate(0, 900) scale(1,-1)" d="M202 118C169 64 116-1 53-39L114-79C178-35 228 31 264 89ZM348 90C368 38 385-30 388-72L459-57C455-16 437 51 416 102ZM537 90C570 40 602-27 614-70L680-48C667-5 633 61 599 110ZM651 750L810 750L810 655L651 655ZM426 750L582 750L582 655L426 655ZM205 750L356 750L356 655L205 655ZM384 189L280 189L280 303L384 303ZM447 189L447 303L555 303L555 189ZM618 189L618 303L729 303L729 189ZM134 802L134 603L238 603C206 548 148 483 67 436C85 427 110 410 124 395C157 417 186 442 212 467L212 368L95 368L95 303L212 303L212 189L59 189L59 124L793 124L734 94C792 43 857-30 885-78L951-44C921 5 855 75 796 124L950 124L950 189L798 189L798 303L912 303L912 368L798 368L798 478L912 478L912 541L277 541C290 558 302 576 313 594L258 603L884 603L884 802ZM384 368L280 368L280 478L384 478ZM447 368L447 478L555 478L555 368ZM618 368L618 478L729 478L729 368Z"/></svg>