<svg id="U44A2" viewBox="0 0 1000 1000"><svg id="U44A2hk" viewBox="0 0 1000 1000"><path transform="translate(0, 900) scale(1,-1)" d="M514 506L514-80L588-80L588 437L822 437L822 119C822 107 817 103 802 102C787 102 734 101 677 103C687 83 697 52 701 31C779 31 828 31 858 44C889 56 898 78 898 119L898 506ZM105-1L106 1L106-1C129 15 166 28 452 111C449 126 447 156 447 177L197 110L197 416C289 440 389 471 464 503L399 554C335 523 224 486 126 461L123 460L123 123C123 85 98 73 82 68C91 52 102 18 105-1ZM240 841L240 750L60 750L60 681L240 681L240 580L313 580L313 681L479 681L479 750L313 750L313 841ZM520 750L520 681L682 681L682 579L756 579L756 681L945 681L945 750L756 750L756 840L682 840L682 750Z"/><animate attributeName="opacity" values="1;0;0;1;1" dur="2s" repeatCount="indefinite"/></svg><svg id="U44A2sc" viewBox="0 0 1000 1000"><path transform="translate(0, 900) scale(1,-1)" d="M639 838L639 748L365 748L365 838L291 838L291 748L61 748L61 678L291 678L291 580L365 580L365 678L639 678L639 580L713 580L713 678L941 678L941 748L713 748L713 838ZM514 506L514-80L588-80L588 437L822 437L822 119C822 107 817 103 802 102C787 102 734 101 677 103C687 83 697 52 701 31C779 31 828 31 858 44C889 56 898 78 898 119L898 506ZM398 555C334 523 220 485 122 459L123 457L123 135C123 97 90 75 70 66C83 49 100 16 106-2L110 1C135 15 183 28 458 98C456 114 456 144 457 164L197 105L197 416C289 440 389 471 463 503Z"/><animate attributeName="opacity" values="0;1;1;0;0" dur="2s" repeatCount="indefinite"/></svg></svg>