<svg id="U4454" viewBox="0 0 1000 1000"><path transform="translate(0, 900) scale(1,-1)" d="M87 739L87-78L152-78L152-1L371-1L371-60L435-60L435 733L280 733L280 665L371 665L371 431L281 431L281 363L371 363L371 67L152 67L152 362L249 362L249 430L152 430L152 698C193 711 240 730 282 750L235 812C198 790 132 755 87 739ZM679 839L679 696L479 696L479 628L679 628L679 496L513 496L513 40L576 40L576 427L679 427L679-80L746-80L746 427L856 427L856 115C856 108 854 105 845 105C836 104 810 104 780 105C788 88 795 62 797 43C840 43 872 44 892 55C913 66 917 84 917 115L917 496L746 496L746 628L958 628L958 696L746 696L746 839Z"/></svg>