<svg id="U44B4" viewBox="0 0 1000 1000"><path transform="translate(0, 900) scale(1,-1)" d="M413 654C401 620 386 587 367 554L74 554L74 487L324 487C256 394 161 312 47 260C61 244 82 216 91 199C154 230 212 269 263 314L263-79L338-79L338 68L745 68L745-1C745-16 740-21 722-22C705-22 641-22 576-20C586-38 598-63 603-81C690-81 744-81 777-70C810-61 821-42 821-1L821 404L350 404C372 430 393 458 411 487L921 487L921 554L451 554C464 580 476 606 487 633ZM338 204L745 204L745 123L338 123ZM338 258L338 342L745 342L745 258ZM64 759L64 691L290 691L290 613L363 613L363 691L644 691L644 613L717 613L717 691L938 691L938 759L717 759L717 840L644 840L644 759L363 759L363 840L290 840L290 759Z"/></svg>