<svg id="U44DF" viewBox="0 0 1000 1000"><svg id="U44DFhk" viewBox="0 0 1000 1000"><path transform="translate(0, 900) scale(1,-1)" d="M141 607L141 318C141 206 131 67 42-32C59-41 91-63 103-76C200 30 214 192 214 318L214 544L805 544L805 7C805-9 800-13 784-14C769-15 715-15 660-13C669-31 681-58 684-76C761-76 810-75 839-65C868-54 879-35 879 6L879 607ZM305 226L305-20L373-20L373 23L708 23L708 226L541 226L541 296L748 296L748 348L541 348L541 419L751 419L751 471L541 471L541 530L471 530L471 471L264 471L264 419L471 419L471 348L263 348L263 296L471 296L471 226ZM373 171L643 171L643 78L373 78ZM337 840L264 840L264 775L60 775L60 709L264 709L264 639L337 639L337 709L479 709L479 775L337 775ZM743 839L670 839L670 775L520 775L520 709L670 709L670 638L743 638L743 709L945 709L945 775L743 775Z"/><animate attributeName="opacity" values="1;0;0;1;1" dur="2s" repeatCount="indefinite"/></svg><svg id="U44DFsc" viewBox="0 0 1000 1000"><path transform="translate(0, 900) scale(1,-1)" d="M632 840L632 767L364 767L364 840L290 840L290 767L58 767L58 701L290 701L290 625L364 625L364 701L632 701L632 625L706 625L706 701L942 701L942 767L706 767L706 840ZM141 607L141 327C141 212 131 69 42-35C59-43 91-66 103-78C199 32 213 199 213 326L213 544L795 544L795 9C795-7 791-11 774-12C760-13 706-13 652-12C661-30 671-58 675-76C752-76 801-76 830-66C858-54 870-36 870 9L870 607ZM474 530L474 469L296 469L296 417L474 417L474 347L257 347L257 295L753 295L753 347L544 347L544 417L721 417L721 469L544 469L544 530ZM302 237L302 5L369 5L369 39L710 39L710 237ZM369 182L647 182L647 93L369 93Z"/><animate attributeName="opacity" values="0;1;1;0;0" dur="2s" repeatCount="indefinite"/></svg></svg>