<svg id="U45A0" viewBox="0 0 1000 1000"><path transform="translate(0, 900) scale(1,-1)" d="M296 218C305 190 315 158 323 126L248 106L248 284L374 284L374 661L248 661L248 836L189 836L189 661L68 661L68 231L126 231L126 284L190 284L190 91C133 76 81 63 39 54L50-16L339 65C345 38 351 13 354-8L404 11C393-8 379-27 364-44C380-51 408-72 419-85C535 45 551 245 551 397L551 490C609 419 672 329 700 270L763 309C732 370 660 465 600 534L551 506L551 728L771 728L771 34C771-20 775-38 790-53C804-67 823-72 844-72C855-72 876-72 888-72C906-72 924-68 936-59C950-49 958-34 962-9C966 13 970 75 971 123C952 130 930 141 915 154C916 100 914 53 913 34C911 23 907 11 903 6C899 2 892 1 884 1C877 1 868 1 862 1C856 1 850 4 846 8C842 12 840 19 840 27L840 796L484 796L484 397C484 278 476 134 409 18C398 78 374 166 350 234ZM126 597L194 597L194 348L126 348ZM243 597L317 597L317 348L243 348Z"/></svg>