<svg id="U4549" viewBox="0 0 1000 1000"><path transform="translate(0, 900) scale(1,-1)" d="M642 586L817 586L817 518L642 518ZM413 586L583 586L583 518L413 518ZM189 586L354 586L354 518L189 518ZM638 840L638 774L360 774L360 840L286 840L286 774L55 774L55 709L286 709L286 661L360 661L360 709L638 709L638 661L713 661L713 709L947 709L947 774L713 774L713 840ZM280 247C292 228 304 204 313 183L127 183L127 132L463 132L463 71L77 71L77 20L463 20L463-80L537-80L537 20L934 20L934 71L537 71L537 132L880 132L880 183L673 183L711 246L670 255L932 255L932 308L536 308L536 364L861 364L861 415L536 415L536 467L886 467L886 636L122 636L122 467L462 467L462 415L144 415L144 364L462 364L462 308L69 308L69 255L318 255ZM595 183L394 183C385 205 371 233 356 255L631 255C622 233 608 205 595 183Z"/></svg>