<svg id="U45A5" viewBox="0 0 1000 1000"><path transform="translate(0, 900) scale(1,-1)" d="M334 703C381 680 435 646 479 615L78 615L78 560L416 560C322 493 181 436 59 408C73 395 91 370 101 353C239 391 407 470 506 560L509 560L509 434C509 423 505 419 492 418C478 418 433 418 380 419C388 403 397 382 401 365C470 365 515 364 543 373C572 382 579 397 579 432L579 560L797 560C766 522 730 484 699 458L768 431C817 472 872 536 919 598L859 619L845 615L579 615C655 656 739 718 814 779L755 804L740 800L172 800L172 744L670 744C625 711 574 678 527 653C483 683 429 715 382 738ZM235 241L462 241L462 154L235 154ZM536 241L770 241L770 154L536 154ZM69 9L74-60L836-29C857-49 875-67 889-83L945-45C908-5 838 56 777 98L843 98L843 297L536 297L536 349L462 349L462 297L166 297L166 98L462 98L462 19ZM715 70C732 58 750 44 769 29L536 22L536 98L762 98Z"/></svg>