<svg id="U45D3" viewBox="0 0 1000 1000"><path transform="translate(0, 900) scale(1,-1)" d="M518 222L518 15C518-53 537-71 618-71C635-71 736-71 753-71C820-71 839-44 847 69C828 74 801 83 786 94C783 1 777-11 747-11C725-11 642-11 626-11C590-11 584-7 584 15L584 222ZM447 212C435 143 411 56 376 3L432-21C468 34 488 125 503 196ZM579 265C625 215 673 146 693 100L747 132C727 177 677 244 630 293ZM791 203C839 139 888 55 905 0L961 27C942 82 893 165 844 227ZM291 213C301 184 311 150 320 117L245 100L245 284L369 284L369 661L245 661L245 836L187 836L187 661L67 661L67 231L123 231L123 284L187 284L187 86C131 73 80 62 39 54L50-16L334 57L342 18L394 37C386 90 364 169 342 230ZM123 597L192 597L192 348L123 348ZM241 597L313 597L313 348L241 348ZM496 559L551 533C513 481 468 436 418 401C431 390 454 370 466 359C516 398 563 448 603 506L662 472C625 418 581 371 531 335C545 327 570 307 581 296C629 335 673 384 711 440C734 425 754 410 769 397L806 450C789 464 768 478 744 494C773 545 797 602 816 663L873 663C860 465 845 389 826 368C819 358 811 356 798 357C785 357 756 357 723 360C732 342 737 315 738 295C774 293 808 293 827 295C850 298 866 304 880 323C908 354 923 447 938 697C940 707 941 729 941 729L571 729C587 759 601 791 612 823L554 837C518 738 458 643 389 581C403 572 428 553 439 543C472 576 504 617 533 663L622 663C611 635 598 608 583 583L531 606ZM685 663L752 663C737 613 717 567 694 524L635 557C654 590 671 626 685 663Z"/></svg>