<svg id="U4532" viewBox="0 0 1000 1000"><path transform="translate(0, 900) scale(1,-1)" d="M289 265L707 265L707 173L289 173ZM348 417L348 382L654 382L654 421C693 384 736 350 782 322L225 322C269 349 311 381 348 417ZM865 523C834 497 784 461 741 435C719 452 699 470 680 489C723 516 773 551 814 585L756 627C727 598 682 561 641 532C617 562 596 594 579 627L519 605C548 545 588 490 635 441L372 441C409 481 441 526 464 575L418 600L405 597L114 597L114 539L366 539C339 500 305 463 265 430C236 456 191 486 154 508L112 470C147 449 188 419 217 394C160 354 97 322 38 301C52 289 71 265 80 249C125 267 171 289 216 316L216 115L784 115L784 321C825 296 869 275 914 259C925 277 946 305 962 319C902 338 844 365 791 399C834 423 882 453 921 482ZM632 112C619 82 597 38 578 6L356 6L408 21C400 47 380 83 359 110L289 92C307 66 324 31 333 6L66 6L66-55L937-55L937 6L655 6C672 32 691 63 707 93ZM633 840L633 762L362 762L362 840L288 840L288 762L54 762L54 702L288 702L288 634L362 634L362 702L633 702L633 638L707 638L707 702L948 702L948 762L707 762L707 840Z"/></svg>