<svg id="U4586" viewBox="0 0 1000 1000"><path transform="translate(0, 900) scale(1,-1)" d="M535 495L626 495L626 446L535 446ZM484 537L484 404L677 404L677 537ZM768 495L859 495L859 441L768 441ZM718 537L718 399L911 399L911 537ZM58 779L58 717L291 717L291 655L362 655L362 717L628 717L628 659L646 659L633 656C640 644 648 630 654 617L455 617L455 567L943 567L943 617L734 617C726 635 714 656 702 672L700 672L700 717L943 717L943 779L700 779L700 840L628 840L628 779L362 779L362 840L291 840L291 779ZM80 481L80-62L133-62L133 6L379 6L379-62L433-62L433 38C443 27 454 13 459 5C489 16 521 29 551 44L551 29C551-10 531-26 517-33C525-42 536-61 540-75L540-79C554-70 578-65 750-29C750-18 752 4 754 18L610-7L610 78C639 96 666 116 688 138L696 138C738 44 816-33 918-70C927-54 945-32 959-21C914-8 874 14 840 41C870 57 902 76 929 97L890 135C868 119 833 95 802 76C784 95 769 116 756 138L952 138L952 187L814 187L814 224L921 224L921 271L814 271L814 307L927 307L927 353L814 353L814 390L751 390L751 353L632 353L632 390L570 390L570 353L470 353L470 307L570 307L570 271L488 271L488 224L570 224L570 187L449 187L449 138L609 138C561 103 496 75 433 54L433 481L330 481L330 570L446 570L446 626L64 626L64 570L195 570L195 481ZM632 307L751 307L751 271L632 271ZM632 224L751 224L751 187L632 187ZM239 570L284 570L284 481L239 481ZM133 149L379 149L379 58L133 58ZM133 201L133 286C142 278 152 267 157 259C214 305 232 364 237 427L284 427L284 349C284 298 295 287 337 287C344 287 371 287 379 287L379 201ZM133 303L133 427L193 427C188 382 173 338 133 303ZM330 427L379 427L379 335L372 334C366 334 346 334 341 334C331 334 330 335 330 349Z"/></svg>