<svg id="U4521" viewBox="0 0 1000 1000"><path transform="translate(0, 900) scale(1,-1)" d="M343 94C355 40 363-31 363-74L437-64C436-23 425 46 412 100ZM549 96C575 42 600-29 610-73L684-59C674-16 646 55 619 107ZM756 97C805 42 862-36 887-84L959-56C932-8 873 67 824 122ZM174 115C141 53 88-16 43-58L114-83C160-37 210 36 245 99ZM632 840L632 773L364 773L364 840L290 840L290 773L58 773L58 706L290 706L290 625L336 625C280 550 186 466 65 405C80 393 102 369 113 351C145 369 175 388 203 408L203 139L848 139L848 463L626 463C652 491 677 522 696 552L657 588L644 584L391 584L427 632L364 646L364 706L632 706L632 625L706 625L706 706L942 706L942 773L706 773L706 840ZM602 529C585 505 563 481 543 463L273 463C298 484 321 507 343 529ZM273 275L478 275L478 193L273 193ZM549 275L775 275L775 193L549 193ZM273 408L478 408L478 328L273 328ZM549 408L775 408L775 328L549 328Z"/></svg>