<svg id="U4661" viewBox="0 0 1000 1000"><path transform="translate(0, 900) scale(1,-1)" d="M480 280L812 280L812 221L480 221ZM480 174L812 174L812 113L480 113ZM480 385L812 385L812 327L480 327ZM143 808C172 767 208 711 224 675L281 716C262 750 228 802 197 842ZM403 764L403 586L613 586L613 534L350 534L350 479L952 479L952 534L684 534L684 586L896 586L896 764L684 764L684 840L613 840L613 764ZM465 714L613 714L613 636L465 636ZM684 714L831 714L831 636L684 636ZM521 65C476 25 391-7 312-29C327-42 353-68 363-82C443-55 535-9 588 43ZM705 27C786-4 872-48 921-82L961-31C914 0 837 36 761 65L885 65L885 433L410 433L410 65L731 65ZM48 663L48 594L278 594C222 467 121 338 29 264C40 250 59 213 65 192C102 224 140 264 177 310L177-79L246-79L246 328C280 286 318 235 336 206L379 268L315 337C340 362 369 393 395 422L348 465C332 439 305 402 281 374L248 407C295 479 336 557 365 636L325 666L314 663Z"/></svg>