<svg id="U4678" viewBox="0 0 1000 1000"><path transform="translate(0, 900) scale(1,-1)" d="M170 580L409 580L409 480L170 480ZM170 420L409 420L409 319L170 319ZM170 737L409 737L409 639L170 639ZM537 477C582 416 626 329 643 273L709 306C691 362 645 445 599 506ZM101 800L101 257L179 257C171 121 146 33 34-18C50-31 71-59 79-76C206-12 238 97 248 257L333 257L333 63C333-24 371-44 506-44C536-44 776-44 807-44C922-44 949-12 962 122C940 126 910 137 892 148C886 40 875 23 804 23C750 23 545 23 506 23C419 23 404 30 404 64L404 257L482 257L482 800ZM768 840L768 646L521 646L521 572L768 572L768 193C768 178 762 174 747 173C731 172 679 173 621 174C632 153 643 120 646 99C725 98 773 101 803 113C832 126 843 148 843 193L843 572L952 572L952 646L843 646L843 840Z"/></svg>