<svg id="U47DD" viewBox="0 0 1000 1000"><path transform="translate(0, 900) scale(1,-1)" d="M149 732L335 732L335 556L149 556ZM518 804L518 694C518 622 501 540 393 478C407 467 432 438 441 423C560 494 587 602 587 692L587 734L754 734L754 573C754 497 767 469 833 469C845 469 886 469 899 469C917 469 936 470 947 474C945 491 943 520 941 539C929 536 911 534 899 534C887 534 849 534 839 534C825 534 823 543 823 572L823 804ZM813 328C780 252 731 188 672 136C611 190 563 255 531 328ZM422 398L422 328L508 328L465 313C501 227 551 153 614 91C543 42 462 8 377-13C391-30 408-61 416-81C507-54 594-14 671 42C741-12 823-53 917-78C927-58 948-26 964-10C876 10 797 44 730 91C809 164 871 259 908 380L861 401L848 398ZM35 42L53-29C156 0 297 41 430 78L422 144L282 106L282 285L408 285L408 351L282 351L282 491L402 491L402 797L85 797L85 491L216 491L216 88L147 70L147 396L86 396L86 55Z"/></svg>