<svg id="U47CE" viewBox="0 0 1000 1000"><path transform="translate(0, 900) scale(1,-1)" d="M516 337L811 337L811 292L516 292ZM516 250L811 250L811 204L516 204ZM516 423L811 423L811 380L516 380ZM499 839L499 768L405 768L405 713L499 713C498 695 496 675 492 654L391 654L391 598L474 598C458 563 433 529 391 500L391 510L272 510L272 630L374 630L374 697L272 697L272 840L208 840L208 697L84 697L84 630L208 630L208 510L61 510L61 443L231 443L231 119C203 144 180 175 162 214C166 265 169 319 171 375L109 378C105 217 95 71 39-23C54-32 82-51 92-61C119-12 137 47 149 114C244-14 390-43 618-43L932-43C937-22 950 11 961 28C906 26 659 26 618 26C485 26 377 36 295 77L295 251L386 251L386 316L295 316L295 443L391 443L391 481C402 471 413 457 419 448C464 479 495 515 516 552C543 529 581 495 596 477L639 528C623 541 557 581 536 593L538 598L644 598L644 654L554 654C558 675 560 694 561 713L638 713L638 768L561 768L561 839ZM707 124C774 99 847 67 889 43L946 84C903 106 834 133 770 156L877 156L877 467C886 459 895 452 904 446C914 462 935 485 951 497C911 518 868 557 838 597L939 597L939 653L820 653C825 674 827 694 828 713L928 713L928 768L829 768L829 839L766 839L766 768L675 768L675 713L765 713C764 694 762 674 757 653L668 653L668 597L735 597C717 564 689 533 644 507C654 499 669 485 678 472L452 472L452 156L546 156C506 130 436 104 373 91C387 80 408 60 418 48C485 64 566 97 615 133L573 156L742 156ZM789 572C811 536 841 500 871 472L698 472C740 502 769 536 789 572Z"/></svg>