<svg id="U47B1" viewBox="0 0 1000 1000"><path transform="translate(0, 900) scale(1,-1)" d="M626 812C589 747 529 682 467 639C484 629 512 607 525 596C584 643 650 719 692 792ZM743 785C799 735 862 664 892 617L946 656C916 703 850 771 795 820ZM703 669C652 569 556 474 457 420C475 405 495 382 507 366C582 411 654 476 709 552C784 495 869 422 914 376L955 433C909 479 819 550 744 606L766 645ZM551 384L551 68L616 68L616 110L805 110L805 72L873 72L873 384ZM616 172L616 319L805 319L805 172ZM106 392C100 218 86 59 29-41C45-51 75-71 87-81C118-23 139 51 152 135C221-20 339-56 556-56L937-56C941-35 954-2 966 13C908 11 600 12 555 12C450 12 371 20 310 50L310 250L422 250L422 317L310 317L310 456L428 456L428 523L297 523L297 654L419 654L419 720L297 720L297 840L226 840L226 720L86 720L86 654L226 654L226 523L52 523L52 456L241 456L241 101C209 136 184 185 166 251C170 294 173 340 175 386Z"/></svg>