<svg id="U47B0" viewBox="0 0 1000 1000"><path transform="translate(0, 900) scale(1,-1)" d="M829 395C861 324 890 229 899 170L956 184C946 245 916 337 883 408ZM510 413C497 334 472 257 434 204C449 197 475 181 486 172C524 229 552 315 568 402ZM125 378C119 217 102 73 37-18C54-27 85-50 97-62C129-14 151 45 166 112C260-12 404-40 625-40L934-40C938-19 951 14 963 31C909 29 666 29 626 29C507 30 409 38 332 70L332 247L443 247L443 318L332 318L332 443L456 443L456 510L306 510L306 630L444 630L444 697L306 697L306 840L233 840L233 697L90 697L90 630L233 630L233 510L61 510L61 443L264 443L264 108C231 133 204 165 183 208C190 260 195 315 198 374ZM521 718L521 651L672 651L672 553L486 553L486 484L617 484C611 301 590 174 476 101C491 90 510 66 519 50C645 135 670 279 677 484L751 484L751 136C751 124 747 122 736 121C724 121 687 121 646 122C655 104 663 78 665 60C724 60 760 61 783 71C807 83 813 101 813 135L813 484L959 484L959 553L740 553L740 651L922 651L922 718L740 718L740 840L672 840L672 718Z"/></svg>