<svg id="U47F4" viewBox="0 0 1000 1000"><svg id="U47F4hk" viewBox="0 0 1000 1000"><path transform="translate(0, 900) scale(1,-1)" d="M142 732L311 732L311 556L142 556ZM552-82C568-69 593-57 757 6C754 20 750 46 750 64L626 21L626 381L686 381C726 187 797 19 913-68C924-50 946-24 962-11C898 30 847 98 808 182C851 215 901 263 943 308L894 351C868 316 825 269 787 233C769 279 754 329 743 381L950 381L950 447L508 447L508 476L508 553L904 553L904 618L508 618L508 721L930 721L930 786L442 786L442 476C442 325 436 115 367-35C384-42 414-59 426-70C485 59 502 235 507 381L562 381L562 34C562-3 544-13 530-18C539-33 549-65 552-82ZM35 42L52-29C143-1 266 36 382 72L375 137L257 103L257 285L360 285L360 351L257 351L257 491L372 491L372 797L83 797L83 491L198 491L198 86L140 70L140 396L84 396L84 55Z"/><animate attributeName="opacity" values="1;0;0;1;1" dur="2s" repeatCount="indefinite"/></svg><svg id="U47F4sc" viewBox="0 0 1000 1000"><path transform="translate(0, 900) scale(1,-1)" d="M544 620L544 554L911 554L911 620ZM142 732L311 732L311 556L142 556ZM567-85C581-71 605-58 750 12C747 25 741 51 740 70L625 21L625 381L686 381C726 191 798 25 913-59C924-40 946-15 962-2C898 38 847 105 808 187C850 220 901 265 943 307L894 351C867 317 824 272 786 238C769 283 754 331 743 381L950 381L950 447L508 447L508 476L508 721L930 721L930 786L442 786L442 476C442 325 436 115 367-35C384-42 414-59 426-70C485 59 502 235 507 381L562 381L562 64C562 17 540-17 525-30C537-41 558-69 567-85ZM35 42L52-29C143-1 266 36 382 72L375 137L257 103L257 285L360 285L360 351L257 351L257 491L372 491L372 797L83 797L83 491L198 491L198 86L140 70L140 396L84 396L84 55Z"/><animate attributeName="opacity" values="0;1;1;0;0" dur="2s" repeatCount="indefinite"/></svg></svg>