<svg id="U48A5" viewBox="0 0 1000 1000"><path transform="translate(0, 900) scale(1,-1)" d="M62 763C117 714 181 645 209 598L270 644C241 691 176 758 119 805ZM446 279L812 279L812 224L446 224ZM446 178L812 178L812 122L446 122ZM446 378L812 378L812 324L446 324ZM376 425L376 76L884 76L884 425ZM259 484L52 484L52 414L188 414L188 102C144 84 94 45 43-3L89-65C142-4 194 48 231 48C254 48 285 19 328-4C397-43 484-54 601-54C697-54 873-48 945-43C946-23 957 11 966 30C869 19 719 12 603 12C495 12 408 19 343 54C305 75 281 95 259 105ZM411 678L411 537L308 537L308 479L946 479L946 537L676 537L676 610L883 610L883 665L676 665L676 733L923 733L923 790L343 790L343 733L603 733L603 537L479 537L479 678Z"/></svg>