<svg id="U488D" viewBox="0 0 1000 1000"><path transform="translate(0, 900) scale(1,-1)" d="M81 769C135 719 197 648 224 602L285 645C255 691 192 759 138 806ZM262 473L49 473L49 403L189 403L189 128C145 111 93 67 41 9L89-55C140 13 189 72 223 72C245 72 277 38 318 12C388-32 471-42 596-42C691-42 871-37 943-33C944-12 955 23 964 42C867 31 717 24 597 24C485 24 400 31 335 71C302 91 281 110 262 122ZM563 818C579 779 596 730 606 690L334 690L334 619L508 619C497 433 467 254 308 157C326 146 349 122 360 105C482 181 537 299 565 434L794 434C786 265 775 198 758 180C749 171 741 170 722 170C704 170 653 170 602 175C615 155 623 126 625 105C678 103 729 102 757 104C787 107 808 113 826 134C853 164 863 247 874 472C874 482 875 505 875 505L577 505C582 542 585 580 588 619L940 619L940 690L684 690C673 731 651 790 631 835Z"/></svg>