<svg id="U48CA" viewBox="0 0 1000 1000"><path transform="translate(0, 900) scale(1,-1)" d="M109 775C145 712 180 624 193 568L255 595C241 651 206 735 167 799ZM490 807C472 741 437 647 409 589L466 568C495 624 530 711 559 785ZM99 543L99-77L167-77L167 477L494 477L494 12C494 2 491-1 480-1C470-2 437-2 401-1C410-19 419-49 422-68C475-68 509-67 532-55C555-43 561-23 561 11L561 543L366 543L366 839L297 839L297 543ZM223 401L223 69L275 69L275 123L438 123L438 401ZM275 346L385 346L385 178L275 178ZM640 785L640-80L708-80L708 716L863 716C835 636 796 527 759 442C849 352 874 276 874 213C874 177 868 145 848 133C838 126 825 122 809 121C791 121 766 121 739 124C751 103 759 73 760 52C785 51 815 51 838 53C861 56 881 63 897 74C930 97 942 145 942 206C942 276 920 356 831 451C872 544 919 661 954 755L903 788L892 785Z"/></svg>