<svg id="U4855" viewBox="0 0 1000 1000"><path transform="translate(0, 900) scale(1,-1)" d="M429 34L429-29L961-29L961 34ZM73 592L73 233L202 233L202 155L43 155L43 90L202 90L202-79L269-79L269 90L408 90L408 155L269 155L269 233L398 233L398 592L269 592L269 669L416 669L416 734L269 734L269 840L202 840L202 734L53 734L53 669L202 669L202 592ZM127 386L208 386L208 290L127 290ZM264 386L344 386L344 290L264 290ZM127 536L208 536L208 440L127 440ZM264 536L344 536L344 440L264 440ZM905 600C874 556 822 497 779 454C758 500 739 547 725 592C788 638 862 701 915 760L870 793L857 789L485 789L485 726L794 726C753 686 700 643 657 615L657 170C657 159 654 156 643 155C631 154 596 154 555 156C563 138 572 112 574 94C629 94 667 96 690 106C714 116 721 134 721 169L721 447C773 324 842 206 912 140C924 156 946 179 962 191C906 237 851 315 805 402C852 444 910 505 955 556ZM447 570L447 508L557 508C533 374 481 249 420 189C435 178 453 155 463 141C539 223 600 378 625 560L587 572L577 570Z"/></svg>