<svg id="U48DF" viewBox="0 0 1000 1000"><path transform="translate(0, 900) scale(1,-1)" d="M660 798L660-79L727-79L727 728L875 728C847 650 808 542 771 457C860 367 887 292 887 229C887 193 881 161 860 150C850 143 835 140 819 139C799 138 770 138 739 141C752 121 760 89 761 70C789 68 822 68 847 70C871 73 893 80 909 92C941 114 954 163 954 223C954 292 933 372 842 467C885 561 931 675 966 768L917 802L905 798ZM215 338L216 334L227 345C242 357 271 377 344 422C340 433 333 455 329 469L268 435L268 548L320 548L320 608L238 608C243 639 244 669 244 694L244 742L317 742L317 798L72 798L72 742L191 742L191 694C191 669 190 639 186 608L115 608L135 706L85 711C77 659 66 594 53 548L173 548C156 491 123 431 57 378C70 368 85 349 93 334C162 395 200 464 221 530L221 450C221 412 205 398 194 391C201 378 210 353 215 338ZM175 106L514 106L514 17L175 17ZM175 161L175 244L514 244L514 161ZM114 303L114-80L175-80L175-43L514-43L514-76L578-76L578 303ZM367 710C360 657 349 592 338 546L446 546C427 486 390 424 319 370C332 360 348 341 357 327C437 394 478 472 499 546L499 450C499 412 483 399 472 391C480 377 490 348 493 333L501 342C515 354 544 371 633 421C629 433 622 454 619 469L545 432L545 546L621 546L621 606L513 606C518 643 520 678 520 707L520 743L608 743L608 798L350 798L350 743L468 743L468 708C468 679 467 644 461 606L397 606C404 638 410 673 415 704Z"/></svg>