<svg id="U48C8" viewBox="0 0 1000 1000"><path transform="translate(0, 900) scale(1,-1)" d="M604 737L826 737L826 613L604 613ZM541 801L541 549L891 549L891 801ZM166 735L368 735L368 611L166 611ZM103 799L103 547L434 547L434 799ZM514 484L514 57C514-36 543-58 641-58C664-58 826-58 849-58C934-58 955-25 964 94C946 99 919 111 903 123C897 28 890 10 845 10C809 10 672 10 646 10C589 10 579 18 579 57L579 202L858 202L858 164L923 164L923 484ZM858 267L754 267L754 417L858 417ZM579 417L692 417L692 267L579 267ZM77 484L77 34C77 0 58-9 42-13C53-31 64-62 68-77C92-65 131-57 430 6C427 21 423 50 423 70L142 14L142 202L395 202L395 166L459 166L459 484ZM395 268L298 268L298 417L395 417ZM238 417L238 268L142 268L142 417Z"/></svg>