<svg id="U49B8" viewBox="0 0 1000 1000"><path transform="translate(0, 900) scale(1,-1)" d="M80 611L80-81L152-81L152 611ZM463 261L463 148L318 134L326 77L622 111C629 92 635 73 638 58L685 71C675 113 647 181 619 232L575 222C585 203 594 183 603 162L523 154L523 261L713 261L713 53C713 42 710 40 698 39C686 38 645 38 600 39C607 25 616 5 619-11L684-10C693-31 702-59 705-78C789-78 844-76 876-64C908-51 918-27 918 20L918 797L356 797L356 727L845 727L845 20C845 3 839-3 822-4L740-4L747-2C771 7 777 21 777 53L777 319L526 319L526 375L733 375L733 656L271 656L302 676C277 721 222 786 174 832L117 798C165 749 219 680 241 637L262 650L262 375L463 375L463 319L221 319L221-8L284-8L284 261ZM324 492L463 492L463 427L324 427ZM526 492L669 492L669 427L526 427ZM324 604L463 604L463 541L324 541ZM526 604L669 604L669 541L526 541Z"/></svg>