<svg id="U4944" viewBox="0 0 1000 1000"><path transform="translate(0, 900) scale(1,-1)" d="M78 280C95 220 111 144 114 93L163 108C158 158 143 234 125 293ZM331 304C322 250 303 170 287 121L329 105C346 151 366 225 384 286ZM426 793L426 429C426 319 422 181 388 63L386 95L263 68L263 346L394 346L394 411L263 411L263 521L365 521L365 585L128 585C166 626 201 673 233 723C289 680 347 629 383 589L421 646C384 684 324 735 264 776L285 819L229 845C185 747 108 655 33 596C43 578 59 537 63 521C79 535 95 550 111 566L111 521L205 521L205 411L60 411L60 346L205 346L205 56L49 22L65-45L379 32C370 7 360-16 348-38C364-44 394-60 406-71C482 68 493 278 493 429L493 731L951 731L951 793ZM789 706L789 618L684 618L684 706L618 706L618 618L537 618L537 554L618 554L618 447L518 447L518 382L956 382L956 447L854 447L854 554L936 554L936 618L854 618L854 706ZM684 554L789 554L789 447L684 447ZM631 111L851 111L851 13L631 13ZM631 171L631 259L851 259L851 171ZM568 321L568-82L631-82L631-49L851-49L851-80L917-80L917 321Z"/></svg>