<svg id="U49EE" viewBox="0 0 1000 1000"><path transform="translate(0, 900) scale(1,-1)" d="M757 315L857 315L857 240L757 240ZM600 315L698 315L698 240L600 240ZM446 315L540 315L540 240L446 240ZM420 136C398 83 360 14 316-25L367-63C413-18 448 53 474 110ZM510 143L510 12C510-55 530-72 612-72C629-72 740-72 757-72C817-72 836-51 843 32C825 36 800 45 787 54C784-5 779-12 749-12C726-12 635-12 617-12C579-12 573-9 573 12L573 143ZM801 114C845 65 892-3 910-48L966-15C946 31 898 96 853 144ZM373 451L373 405L613 405L613 368L385 368L385 188L631 188L596 162C642 130 695 83 719 50L764 86C740 117 693 159 648 188L920 188L920 368L677 368L677 405L931 405L931 451L677 451L677 500L836 500L836 546L677 546L677 589L855 589L855 636L677 636L677 697L613 697L613 636L439 636L439 589L613 589L613 546L457 546L457 500L613 500L613 451ZM592 828C602 809 611 785 618 764L360 764L360 621L422 621L422 710L879 710L879 621L943 621L943 764L687 764C680 789 667 820 653 844ZM81 799L81-78L141-78L141 731L270 731C250 664 222 576 194 505C264 425 281 356 281 301C281 270 276 242 261 231C253 226 243 223 231 222C215 221 197 222 175 223C185 204 191 175 192 157C213 156 237 156 256 159C275 161 292 167 305 177C331 198 342 240 342 294C342 357 325 429 256 513C288 593 323 691 351 773L307 802L297 799Z"/></svg>