<svg id="U49B1" viewBox="0 0 1000 1000"><path transform="translate(0, 900) scale(1,-1)" d="M443 455C458 433 473 403 479 383L530 402C524 420 507 450 492 471ZM528 114C543 87 557 51 562 28L601 42C596 64 581 99 566 125ZM610 125C627 103 646 71 654 50L689 68C682 87 663 118 645 139ZM364 122C354 84 335 36 312 9L358-10C381 20 397 69 408 108ZM443 111C453 76 458 32 457 5L500 15C501 41 495 84 485 117ZM380 662L380 612L166 612L166 662ZM380 707L166 707L166 754L380 754ZM837 662L837 612L615 612L615 662ZM837 707L615 707L615 754L837 754ZM878 805L544 805L544 562L837 562L837 2C837-9 835-12 824-13C815-13 785-13 755-12C764-29 773-58 776-76C824-76 860-75 881-64C904-52 911-34 911 2L911 805ZM93 805L93-79L166-79L166 562L451 562L451 805ZM288 381L288 287C288 206 273 95 183 13C195 7 220-11 230-20C282 28 312 87 329 147L721 147C715 65 708 32 697 22C691 16 684 15 672 15C660 15 629 15 596 18C604 5 609-15 610-28C646-30 680-30 698-29C719-28 734-23 745-11C764 7 773 54 781 170C782 178 783 193 783 193L719 193C724 220 728 252 731 287L689 291L678 288L656 288C660 315 664 346 666 380L653 381C671 406 693 442 708 471L655 484C641 458 622 428 603 403C616 398 638 388 649 382L624 384L613 381L338 381L375 396C370 415 353 443 335 461C474 469 629 483 732 502L695 547C586 526 397 509 244 500C253 487 262 470 266 457L334 461L286 445C302 426 316 400 323 381ZM604 336L597 288L347 288L347 336ZM667 243L659 193L339 193C342 210 344 227 345 243Z"/></svg>