<svg id="U4A86" viewBox="0 0 1000 1000"><path transform="translate(0, 900) scale(1,-1)" d="M452 406L452 349L951 349L951 406ZM567 250L833 250L833 166L567 166ZM501 301L501 115L903 115L903 301ZM550 93C562 64 576 28 585-2L441-2L441-60L960-60L960-2L810-2C826 27 844 61 860 93L792 113C782 81 764 33 748-2L651-2C642 30 624 75 608 110ZM473 763L473 459L926 459L926 763L793 763L793 840L732 840L732 763L659 763L659 840L598 840L598 763ZM532 586L609 586L609 513L532 513ZM659 586L735 586L735 513L659 513ZM785 586L865 586L865 513L785 513ZM532 709L609 709L609 637L532 637ZM659 709L735 709L735 637L659 637ZM785 709L865 709L865 637L785 637ZM67 480L67 238L210 238L210 159L40 159L40 94L210 94L210-81L278-81L278 94L433 94L433 159L278 159L278 238L410 238L410 480L278 480L278 546L365 546L365 685L429 685L429 748L365 748L365 839L303 839L303 748L175 748L175 839L115 839L115 748L43 748L43 685L115 685L115 546L210 546L210 480ZM126 421L215 421L215 298L126 298ZM273 421L351 421L351 298L273 298ZM303 685L303 606L175 606L175 685Z"/></svg>