<svg id="U4A0A" viewBox="0 0 1000 1000"><path transform="translate(0, 900) scale(1,-1)" d="M301 456L301 424L194 424L194 456ZM480 826C491 814 501 799 509 784L304 784C317 800 329 817 340 833L269 844C234 788 170 724 82 676C98 668 120 649 132 634C158 650 182 667 204 685L204 538L172 547C144 497 99 447 50 412C65 402 86 382 95 372C107 382 120 393 132 405L132 231L194 231L194 248L497 248L497 289L362 289L362 319L468 319L468 357L362 357L362 386L468 386L468 417C482 408 502 387 511 377L539 401L539 231L601 231L601 246L934 246L934 287L780 287L780 319L894 319L894 357L780 357L780 388L896 388L896 425L780 425L780 457L916 457L916 496L788 496C781 512 771 530 759 543L702 531C709 520 716 508 721 496L621 496L644 532L584 547C558 499 514 453 468 419L468 424L362 424L362 456L482 456L482 495L368 495C361 510 351 528 340 541L282 526C289 517 296 506 301 495L209 495L232 531L225 533L274 533L274 551L892 551L892 590L577 590L577 620L837 620L837 654L577 654L577 682L835 682L835 717L577 717L577 744L875 744L875 784L586 784C577 804 561 827 544 844ZM301 386L301 357L194 357L194 386ZM301 319L301 289L194 289L194 319ZM717 457L717 425L601 425L601 457ZM717 388L717 357L601 357L601 388ZM717 319L717 287L601 287L601 319ZM508 682L508 654L274 654L274 682ZM508 717L274 717L274 744L508 744ZM508 620L508 590L274 590L274 620ZM564 40L564-74L623-74L623-1L816-1L816-78L884-78L884 225L816 225L816 173L633 173L633 226L574 226L574 131L816 131L816 108L227 108L228 136L451 136L451 224L393 224L393 178L228 178L228 223L160 223L160 143C160 80 149 8 51-44C69-53 95-69 107-80C149-56 176-29 194 0L390 0L390-71L448-71L448 41L214 41L221 66L816 66L816 40Z"/></svg>