<svg id="U4A68" viewBox="0 0 1000 1000"><path transform="translate(0, 900) scale(1,-1)" d="M470-86C488-72 517-59 709 12C706 26 704 54 704 73L552 23L552 313L619 313C683 151 796 4 926-69C937-50 959-23 974-8C909 23 847 74 794 135C839 166 891 207 936 244L882 290C852 257 803 213 760 179C729 221 703 266 683 313L962 313L962 379L576 379L576 461L884 461L884 518L576 518L576 597L883 597L883 653L576 653L576 732L920 732L920 793L506 793L506 379L446 379L446 313L482 313L482 47C482 10 460-4 442-10C454-30 466-67 470-86ZM76 480L76 240L218 240L218 159L40 159L40 94L218 94L218-81L283-81L283 94L443 94L443 159L283 159L283 240L417 240L417 480L283 480L283 546L371 546L371 685L443 685L443 748L371 748L371 839L308 839L308 748L189 748L189 839L129 839L129 748L45 748L45 685L129 685L129 546L218 546L218 480ZM308 685L308 606L189 606L189 685ZM136 421L223 421L223 299L136 299ZM279 421L356 421L356 299L279 299Z"/></svg>