<svg id="U4AFA" viewBox="0 0 1000 1000"><path transform="translate(0, 900) scale(1,-1)" d="M191 833L181 663L59 663L59 600L176 600C156 354 118 139 33-7C48-18 74-41 85-53C173 111 214 337 237 600L431 600L431 663L242 663L253 830ZM171-18C186-6 208 7 358 66C362 45 365 26 366 8L417 26C409 98 382 207 348 291L302 275C319 228 335 173 347 121L235 80C279 202 320 357 344 501L283 517C264 357 213 177 196 131C180 84 167 49 151 44C159 28 168-5 171-18ZM469 800L469 432C469 286 463 92 399-46C414-53 441-72 451-83C520 61 529 277 529 432L529 740L830 740C829 308 822-36 896-70C936-89 965-58 974 108C964 116 946 140 935 156C933 75 925-1 921 1C884 16 887 370 892 800ZM566 504L566 220L657 220L657 60L529 41L542-19L773 22C780-6 785-33 788-55L831-41C823 17 799 105 775 173L732 161C741 135 750 106 759 76L705 67L705 220L793 220L793 504L707 504L707 615C738 622 766 631 790 641L754 687C705 665 617 647 543 636C550 622 557 603 560 589C590 593 623 597 655 604L655 504ZM610 452L662 452L662 273L610 273ZM700 452L747 452L747 273L700 273Z"/></svg>