<svg id="U4AEF" viewBox="0 0 1000 1000"><path transform="translate(0, 900) scale(1,-1)" d="M114 819C139 773 168 711 180 673L233 705C219 741 189 802 164 846ZM727 423L863 423L863 331L727 331ZM727 274L863 274L863 179L727 179ZM727 572L863 572L863 481L727 481ZM730 114C707 66 662 3 625-37C637-50 655-72 664-86C699-45 744 19 776 71ZM817 71C852 27 896-37 915-77L956-37C934 3 890 64 855 106ZM39 671L40 604L117 604C116 330 109 102 31-31C45-42 66-67 75-85C141 28 162 195 170 398L244 398C239 135 232 41 220 19C216 8 209 6 198 7C187 7 167 7 141 9C149-10 156-41 157-62C182-63 208-64 224-61C244-58 257-50 269-28C289 6 294 111 300 431C301 442 301 466 301 466L172 466L174 604L318 604L318 671ZM349 331L349 38L393 38L393 95L508 95L508 331ZM393 275L463 275L463 152L393 152ZM466 838C465 806 464 777 461 751L338 751L338 690L453 690C437 618 404 572 332 541C341 528 355 502 360 485C419 511 455 549 478 601C522 565 569 521 594 492L628 542C598 573 543 620 496 655L503 690L630 690L630 751L511 751C514 778 516 807 517 838ZM325 466L325 403L552 403L552 3C552-9 548-13 538-14C528-14 495-14 460-12C467-30 476-56 479-74C525-74 557-74 577-64C597-54 604-38 604 1L604 403L647 403L647 466ZM673 632L673 120L920 120L920 632L798 632C809 662 821 698 832 733L947 733L947 796L650 796L650 733L770 733C763 700 753 663 744 632Z"/></svg>