<svg id="U4B0B" viewBox="0 0 1000 1000"><path transform="translate(0, 900) scale(1,-1)" d="M661 552C624 518 562 472 516 444L558 406C602 434 662 474 703 516ZM768 516C819 484 887 437 921 409L958 452C923 480 854 523 805 553ZM95 799L95 310C95 192 91 53 38-44C50-51 73-73 81-86C142 20 151 183 151 310L151 739L434 739C434 82 465-73 849-74C949-73 973-39 981 50C967 55 945 67 930 78C925 2 911-17 848-18C504-19 487 143 492 799ZM362 179L392 92L322 83L322 231L408 231L408 510L322 510L322 621C360 631 396 642 425 655L386 705C334 679 241 656 163 641C170 627 178 607 181 594C210 598 241 603 272 610L272 510L186 510L186 231L272 231L272 77L146 63L162 0L410 35C416 12 422-10 426-28L475-13C462 43 434 127 409 191ZM229 452L277 452L277 289L229 289ZM317 452L364 452L364 289L317 289ZM629 257L716 188C673 152 624 125 574 108C587 95 604 73 612 57C665 79 717 109 763 148C806 111 846 75 872 49L917 91C889 117 848 151 803 187C851 238 889 300 912 375L871 392L860 389L715 389C728 409 740 430 750 451L692 468C657 395 595 327 529 283C543 273 566 250 576 240C609 265 643 297 674 334L831 334C812 293 786 257 756 225L671 291ZM533 623L533 567L960 567L960 623L774 623L774 690L929 690L929 744L774 744L774 831L709 831L709 744L561 744L561 690L709 690L709 623Z"/></svg>