<svg id="U4B57" viewBox="0 0 1000 1000"><path transform="translate(0, 900) scale(1,-1)" d="M549 302L848 302L848 234L549 234ZM549 417L848 417L848 350L549 350ZM637 831L665 763L462 763L462 704L941 704L941 763L737 763C729 789 714 821 700 846ZM791 694C783 662 765 616 750 582L588 582L639 596C632 623 617 664 604 695L544 682C556 651 569 611 576 582L435 582L435 521L960 521L960 582L815 582L858 677ZM487 468L487 183L577 183C565 64 528 9 374-25C386-38 405-65 412-83C585-39 633 36 645 183L730 183L730 25C730-29 736-45 752-58C767-70 792-75 813-75C824-75 857-75 870-75C887-75 911-73 924-67C938-61 950-51 957-34C962-18 966 24 968 64C949 70 923 84 909 95C908 55 908 24 905 10C903-2 898-10 892-12C886-15 875-16 864-16C853-16 835-16 827-16C817-16 810-15 805-12C799-8 798 1 798 18L798 183L913 183L913 468ZM305 359L305 272L165 272L165 359ZM305 416L165 416L165 493L305 493ZM267 170C278 147 289 121 299 95L165 43L165 214L372 214L372 550L290 550C281 580 264 621 249 653L192 635C203 609 215 577 224 550L98 550L98 70C98 31 69 9 50 1C63-17 77-51 82-68L84-66L84-68C99-54 126-40 319 43C329 15 337-10 342-30L400-4C388 45 352 128 323 191ZM225 846C182 758 106 676 29 624C40 607 58 569 63 553C125 600 188 666 238 738C288 693 342 637 370 599L418 649C388 689 325 748 271 792L288 824Z"/></svg>