<svg id="U4BC7" viewBox="0 0 1000 1000"><path transform="translate(0, 900) scale(1,-1)" d="M641 837L641 598L511 598L511 526L641 526C638 340 617 134 489-37C508-46 537-67 550-82C688 101 710 325 713 526L857 526C847 163 835 35 812 6C804-8 795-10 780-10C763-10 725-10 684-6C696-27 703-58 705-80C747-81 787-82 813-79C841-76 860-67 878-42C908 0 918 140 930 560C930 571 931 598 931 598L713 598L713 837ZM191 230L352 230L352 155L191 155ZM191 284L191 355L352 355L352 284ZM71 537L71 400L126 400L126-84L191-84L191 101L352 101L352 4C352-6 349-10 339-10C330-10 299-10 266-9C274-27 284-55 287-74C335-74 368-74 389-63C411-52 417-32 417 4L417 406L476 406L476 537L422 537L422 805L122 805L122 537ZM381 416L133 416L133 482L411 482L411 416ZM183 537L183 629L251 629L251 537ZM359 537L296 537L296 681L183 681L183 743L359 743Z"/></svg>