<svg id="U4B60" viewBox="0 0 1000 1000"><path transform="translate(0, 900) scale(1,-1)" d="M638 827C650 803 661 773 670 747L418 747L418 319C418 200 413 52 353-49C368-56 393-74 404-86C468 22 478 191 478 319L478 687L948 687L948 747L740 747C730 775 714 813 700 843ZM810 678C796 649 772 608 750 575L668 575C652 606 627 647 607 680L557 663C572 636 590 603 604 575L496 575L496 519L607 519L607 457L517 457L517 405L607 405L607 337L487 337L487 285L607 285L607 223L517 223L517 172L594 172C558 110 499 43 450 9C463-1 480-21 490-35C528-4 572 50 607 105L607-83L664-83L664 172L735 172L735-83L793-83L793 107C832 50 881-4 925-36C934-20 953 1 965 12C909 44 845 109 806 172L911 172L911 285L959 285L959 337L911 337L911 457L793 457L793 519L946 519L946 575L813 575C830 601 849 631 866 660ZM664 519L735 519L735 457L664 457ZM664 285L735 285L735 223L664 223ZM664 337L664 405L735 405L735 337ZM793 285L857 285L857 223L793 223ZM793 337L793 405L857 405L857 337ZM294 359L294 272L154 272L154 359ZM294 416L154 416L154 493L294 493ZM248 170L280 93L154 43L154 214L356 214L356 550L276 550C267 580 251 621 236 653L181 635C192 609 204 577 212 550L89 550L89 70C89 31 61 9 43 1C55-17 68-51 73-68C88-54 113-40 299 40C306 19 312-2 316-18L373 8C360 54 328 132 300 190ZM213 846C170 758 96 676 21 624C31 607 48 569 53 553C115 600 176 666 224 739C274 693 328 637 355 599L400 649C370 689 309 748 257 792L273 824Z"/></svg>