<svg id="U4BEC" viewBox="0 0 1000 1000"><path transform="translate(0, 900) scale(1,-1)" d="M554 741L641 741L641 634L554 634ZM500 793L500 582L698 582L698 793ZM793 741L892 741L892 634L793 634ZM739 793L739 582L948 582L948 793ZM183 644L349 644L349 597L183 597ZM116 685L116 557L420 557L420 685ZM216 422L319 422L319 385L216 385ZM171 456L171 351L366 351L366 456ZM122 485L412 485L412 323L122 323ZM68 529L68 279L469 279L469 529ZM162 206L371 206L371 158L162 158ZM522 534L522 209L683 209L683 140L488 140L488 74L683 74L683-81L748-81L748 74L959 74L959 140L748 140L748 209L916 209L916 534ZM584 345L683 345L683 265L584 265ZM748 345L851 345L851 265L748 265ZM584 477L683 477L683 398L584 398ZM748 477L851 477L851 398L748 398ZM223 830C229 811 235 789 240 768L56 768L56 717L467 717L467 768L309 768C303 791 294 819 286 841ZM96 249L96 115L235 115L235 72L48 72L48 21L235 21L235-81L305-81L305 21L479 21L479 72L305 72L305 115L440 115L440 249Z"/></svg>