<svg id="U4BF2" viewBox="0 0 1000 1000"><path transform="translate(0, 900) scale(1,-1)" d="M829 819C759 778 631 739 537 718C553 704 572 681 583 667C682 691 807 734 890 786ZM866 684C798 636 668 598 561 579C576 564 593 541 604 524C719 549 849 593 929 654ZM895 548C828 488 690 448 552 428C567 414 582 389 591 372C739 398 882 445 959 522ZM98 349C119 358 151 365 441 400C455 382 467 365 475 350L529 380C508 417 460 469 418 505L367 479C379 468 392 455 405 442L183 418C211 443 240 474 267 507L551 507L551 551L209 551L209 597L488 597L488 641L209 641L209 687L488 687L488 730L209 730L209 772L518 772L518 816L141 816L141 551L54 551L54 507L191 507C162 471 131 441 120 433C105 420 92 412 78 410C85 393 95 363 98 349ZM459 271L459 178L218 178L218 271ZM532 271L774 271L774 178L532 178ZM144 327L144 66C144-28 192-48 359-48C396-48 724-48 763-48C902-48 932-19 946 101C925 103 894 113 875 124C865 31 850 14 762 14C691 14 408 14 354 14C239 14 218 24 218 66L218 121L848 121L848 327Z"/></svg>