<svg id="U4C43" viewBox="0 0 1000 1000"><path transform="translate(0, 900) scale(1,-1)" d="M362 153C383 112 406 55 414 18L462 42C452 77 429 132 407 174ZM272 141C290 87 309 16 315-30L365-14C358 30 339 100 319 154ZM185 137C193 78 199 1 198-50L251-41C249 10 243 85 236 145ZM96 152C85 91 62 2 38-54L92-80C114-23 134 69 147 130ZM662 835L662 657L579 657C588 698 596 742 602 785L531 796C516 678 489 559 442 483C459 474 491 455 505 444C527 483 546 533 562 588L662 588L662 490C662 458 662 424 659 390L458 390L458 319L652 319C632 193 574 65 407-22C424-36 448-63 458-79C594-2 664 101 700 208C742 79 809-21 913-77C924-58 948-29 966-14C845 42 773 165 738 319L939 319L939 390L733 390C735 424 736 457 736 489L736 588L918 588L918 657L736 657L736 835ZM154 362L236 362L236 259L154 259ZM290 362L373 362L373 259L290 259ZM154 523L236 523L236 422L154 422ZM290 523L373 523L373 422L290 422ZM257 586L147 586C166 621 182 658 196 694L305 694C292 657 273 616 257 586ZM174 839C152 745 107 621 34 528C50 520 73 501 84 486L96 502L96 196L433 196L433 586L321 586C346 630 370 681 388 728L348 759L335 755L218 755C226 781 234 806 240 830Z"/></svg>