<svg id="U4CC9" viewBox="0 0 1000 1000"><path transform="translate(0, 900) scale(1,-1)" d="M189 272C247 242 319 192 358 157L400 209C363 242 290 289 230 318ZM89 97C196 61 326-3 396-50L440 7C369 52 238 113 133 148ZM538 177C526 119 503 32 481-22L536-47C556 9 576 97 589 154ZM616 149C627 96 635 28 635-16L682-8C682 36 673 104 661 156ZM694 159C713 115 731 57 737 20L780 33C774 70 754 127 735 170ZM762 177C784 145 809 100 820 70L860 90C849 118 824 162 799 194ZM155 540C183 520 213 498 243 474C180 411 106 359 31 324C46 312 69 284 78 267C154 307 230 362 296 431C353 383 404 334 436 295L484 350C451 387 398 435 340 481C395 548 441 627 473 714L429 739L416 736L244 736C259 768 272 800 283 830L213 840C184 756 128 649 44 568C61 559 84 538 96 522C141 567 178 617 208 669L381 669C357 616 325 567 287 522C258 545 228 567 200 586ZM824 576L824 509L602 509L602 576ZM824 628L602 628L602 692L824 692ZM533 747L533 221L872 221C862 63 851 1 835-16C829-25 821-26 808-26C794-26 762-25 726-22C735-39 742-65 743-82C780-84 816-85 836-83C858-81 876-74 889-57C914-29 926 46 938 250C939 259 940 279 940 279L602 279L602 338L960 338L960 396L602 396L602 454L889 454L889 747L707 747C718 772 731 800 743 829L669 842C662 815 651 778 640 747Z"/></svg>