<svg id="U4C54" viewBox="0 0 1000 1000"><path transform="translate(0, 900) scale(1,-1)" d="M322 152C344 109 367 51 374 14L416 35C407 72 385 128 362 170ZM247 143C265 90 279 21 282-24L328-11C324 33 309 102 290 155ZM173 135C181 77 184 4 180-44L230-36C232 11 228 85 218 142ZM99 154C88 89 67 1 42-53L91-79C116-23 135 69 147 133ZM158 839C139 745 101 621 37 528C52 520 71 501 82 487L90 500L90 199L379 199L379 398L389 378C407 403 423 431 439 460L439-89L499-89L499 597C525 669 547 745 564 823L505 839C478 706 435 578 379 484L379 587L286 587C308 631 329 683 345 730L308 758L297 754L195 754L214 830ZM728 838C704 703 663 571 606 479L606 667L550 667L550 91L606 91L606 431C617 419 627 406 633 398C646 418 659 440 671 463C690 361 715 266 748 183C701 93 636 22 548-33C562-44 581-68 590-82C670-31 732 34 779 113C819 32 868-34 929-82C940-65 959-40 974-27C908 19 855 90 814 179C866 291 896 428 911 590L962 590L962 654L746 654C763 709 777 767 788 825ZM852 590C840 461 818 350 781 256C749 344 726 444 710 549L725 590ZM272 694C260 657 245 617 230 587L136 587C152 622 165 658 177 694ZM142 364L210 364L210 260L142 260ZM258 364L323 364L323 260L258 260ZM142 526L210 526L210 423L142 423ZM258 526L323 526L323 423L258 423Z"/></svg>