<svg id="U4C99" viewBox="0 0 1000 1000"><path transform="translate(0, 900) scale(1,-1)" d="M97 153C87 90 64 1 38-53L87-74C111-18 131 73 143 137ZM318 153C337 111 360 55 368 19L413 38C403 73 380 127 360 170ZM242 141C257 87 274 17 280-30L327-17C320 28 302 98 285 152ZM170 137C177 78 181 1 181-50L229-43C229 8 224 84 216 143ZM482 840C466 761 428 662 377 600C390 592 413 576 425 565C451 595 473 634 492 676L518 676C538 638 558 593 567 562L621 589C613 613 598 645 582 676L674 676L674 736L516 736C527 767 537 797 544 826ZM745 840C729 761 693 663 638 603C652 595 676 578 687 567C714 597 737 635 757 676L787 676C811 636 834 585 845 554L900 582C892 607 873 643 854 676L955 676L955 736L782 736C793 767 802 798 809 827ZM724 525L724-79L781-79L781 460L880 460L880 128C880 118 877 115 868 114C858 114 831 114 795 115C803 100 810 77 812 62C859 62 890 63 909 72C929 82 933 98 933 127L933 525ZM615 350L615 280L490 280L490 350ZM615 401L490 401L490 470L615 470ZM431-52C445-40 469-28 625 25C633 2 639-18 644-35L694-17C680 33 644 120 616 184L568 170C581 141 594 108 607 75L490 41L490 225L668 225L668 525L433 525L433 60C433 20 417 5 404-3C413-15 427-39 431-52ZM272 694C260 657 245 617 230 587L137 587C154 622 168 658 180 694ZM159 839C140 746 103 622 38 528C51 520 71 501 81 487L88 498L88 198L379 198L379 587L288 587C311 631 334 684 351 732L312 758L300 754L198 754C205 781 212 807 217 832ZM144 364L213 364L213 260L144 260ZM257 364L321 364L321 260L257 260ZM144 526L213 526L213 423L144 423ZM257 526L321 526L321 423L257 423Z"/></svg>