<svg id="U4CD8" viewBox="0 0 1000 1000"><path transform="translate(0, 900) scale(1,-1)" d="M800 780C836 724 872 649 886 601L940 626C928 673 889 747 852 802ZM81 167C71 115 51 35 34-13L83-34C99 16 116 94 128 147ZM148 160C156 108 162 38 163-3L209 4C208 42 201 111 192 163ZM222 173C233 130 244 75 248 42L292 54C288 84 276 139 264 179ZM285 189C299 154 314 108 321 80L358 92C351 118 335 164 321 197ZM881 423C863 352 839 284 809 222C799 294 792 381 787 479L947 479L947 544L784 544C781 634 779 730 779 831L715 831C717 730 719 634 722 544L599 544L599 737C635 749 668 761 697 775L647 831C593 801 501 771 420 749C429 734 438 710 442 694C471 701 503 708 534 717L534 544L437 544L437 479L534 479L534 281L441 252L462 186L534 211L534 5C534-7 530-10 519-11C508-11 474-11 437-10C446-30 454-61 456-79C512-79 546-77 569-65C592-54 599-33 599 5L599 233L713 273L702 336L599 302L599 479L725 479C732 344 742 227 760 135C718 70 668 17 612-19C626-31 646-54 655-70C701-37 742 5 778 54C803-30 837-78 885-79C917-80 951-42 968 104C957 110 931 127 919 141C913 55 902 3 886 3C861 4 841 49 825 125C873 207 910 304 936 409ZM222 841C216 814 203 778 190 747L88 747L88 226L375 226C364 70 352 8 337-9C329-17 322-19 309-19C296-19 267-18 233-15C243-32 249-60 250-79C285-81 317-80 337-79C359-77 374-70 390-53C414-25 427 51 440 254C441 265 442 285 442 285L155 285L155 344L427 344L427 400L155 400L155 458L407 458L407 747L258 747C271 771 285 800 298 828ZM155 692L340 692L340 629L155 629ZM155 513L155 578L340 578L340 513Z"/></svg>