<svg id="U4CD9" viewBox="0 0 1000 1000"><path transform="translate(0, 900) scale(1,-1)" d="M533 163C521 103 497 20 469-31L521-53C547-1 568 84 582 145ZM613 155C620 103 626 35 626-10L674-3C673 41 667 108 659 160ZM693 165C709 122 726 66 733 28L778 42C771 77 752 133 736 175ZM767 184C789 152 812 108 824 79L862 96C855 26 847-6 838-17C831-26 824-28 811-28C798-28 769-27 736-24C745-39 751-64 751-80C785-82 820-82 837-80C860-79 876-72 890-56C913-29 924 45 935 251C936 261 936 279 936 279L599 279L599 340L960 340L960 396L599 396L599 454L893 454L893 747L713 747L748 827L673 840C668 814 657 778 647 747L532 747L532 221L871 221C869 172 866 132 863 100C851 128 827 168 807 200ZM599 692L828 692L828 627L599 627ZM599 509L599 576L828 576L828 509ZM44 362L44 299L191 299C177 246 159 188 143 145L370 145C358 52 345 11 329-3C320-11 311-11 295-11C277-11 233-11 186-7C196-24 204-50 206-69C253-72 297-72 321-71C349-69 367-63 383-47C410-23 426 36 442 176C444 185 446 205 446 205L233 205L261 299L488 299L488 362ZM143 561L238 561L238 479L143 479ZM301 561L395 561L395 479L301 479ZM143 696L238 696L238 615L143 615ZM301 696L395 696L395 615L301 615ZM80 753L80 422L460 422L460 753L301 753L301 839L238 839L238 753Z"/></svg>