<svg id="U4C07" viewBox="0 0 1000 1000"><path transform="translate(0, 900) scale(1,-1)" d="M823 839C756 799 638 765 547 746C561 735 576 716 585 704C681 727 799 766 875 814ZM858 739C795 694 676 657 575 638C588 626 603 608 613 594C719 619 839 661 911 715ZM890 636C821 578 683 537 549 518C562 505 577 484 584 470C727 496 869 542 946 614ZM94 460C117 467 152 471 434 489L452 462L501 487C488 510 461 541 435 566L557 566L557 607L212 607L212 638L491 638L491 675L212 675L212 706L491 706L491 743L212 743L212 774L520 774L520 814L145 814L145 607L60 607L60 566L179 566C153 544 124 526 114 521C100 513 86 509 73 508C81 495 90 471 94 460ZM373 556L397 532L201 520C222 534 243 549 263 566L393 566ZM835 469C803 443 766 418 726 395L726 421L480 421L480 462L408 462L408 421L158 421L158 367L408 367L408 314L56 314L56 258L410 258C287 218 155 186 28 164C39 150 56 120 63 105C120 117 179 130 237 146L237-80L307-80L307-50L768-50L768-78L840-78L840 206L440 206C487 222 534 239 578 258L944 258L944 314L700 314C770 350 833 389 888 433ZM480 314L480 367L676 367C640 348 602 331 562 314ZM307 57L768 57L768-1L307-1ZM307 101L307 157L768 157L768 101Z"/></svg>