<svg id="U4CE9" viewBox="0 0 1000 1000"><path transform="translate(0, 900) scale(1,-1)" d="M511 167C501 107 480 20 456-32L509-53C532 0 550 88 561 149ZM602 156C610 104 616 36 617-8L665-1C663 43 655 110 646 162ZM682 165C698 122 715 66 722 28L766 41C758 76 740 132 724 175ZM759 184C779 152 803 108 815 79L855 97C843 123 819 166 796 199ZM59 640L59 396L479 396L479 640L363 640L363 730L495 730L495 791L44 791L44 730L178 730L178 640ZM232 730L309 730L309 640L232 640ZM354 249C338 197 316 153 284 116C247 131 208 146 169 160C185 186 203 217 220 249ZM78 132C132 114 187 94 237 72C187 34 122 6 37-13C49-26 63-49 71-66C169-41 244-6 301 43C344 21 383-1 413-21L466 25C434 46 392 68 345 89C381 133 406 186 423 249L481 249L481 307L250 307C261 331 272 355 281 378L215 393C205 366 192 337 178 307L45 307L45 249L149 249C125 205 100 164 78 132ZM110 583L181 583L181 453L110 453ZM229 583L309 583L309 453L229 453ZM358 583L426 583L426 453L358 453ZM662 840C657 814 646 778 636 747L525 747L525 221L880 221C874 59 866-2 853-18C846-26 838-28 826-28C812-28 781-27 746-24C754-39 761-63 762-79C796-81 832-81 851-79C876-77 890-71 905-55C926-29 934 44 942 251C943 261 943 279 943 279L591 279L591 339L960 339L960 395L591 395L591 454L884 454L884 747L702 747L736 827ZM591 692L819 692L819 627L591 627ZM591 509L591 576L819 576L819 509Z"/></svg>