<svg id="U4CE3" viewBox="0 0 1000 1000"><path transform="translate(0, 900) scale(1,-1)" d="M700 789C750 766 810 729 840 703L882 739C852 766 791 800 742 821ZM171 69C147 33 108-19 71-49L131-81C166-49 201 2 228 39ZM306 42C316 8 324-35 324-64L389-53C388-25 379 19 367 51ZM462 43C479 13 495-28 500-54L561-38C554-12 537 27 519 56ZM614 48C633 20 653-18 661-43L718-26C708-2 687 35 667 62ZM199 427L199 71L812 71C804 7 796-21 787-31C781-37 774-38 764-38C752-38 729-38 700-35C708-48 714-68 714-81C747-82 777-83 795-82C816-81 834-77 847-64C866-46 878-6 887 88C889 97 890 114 890 114L272 114L272 150L945 150L945 194L272 194L272 231L805 231L805 427L525 427L549 465L487 473C505 486 515 516 525 577C527 585 528 601 528 601L296 601C301 614 305 627 308 641L634 641C646 603 662 569 681 540C638 524 593 511 549 500C560 490 579 468 587 456C627 468 670 482 711 500C751 455 798 430 851 430C906 429 930 453 940 535C923 540 901 549 886 561C883 504 876 484 854 484C826 484 797 499 770 527C819 553 863 583 894 617L842 636C817 610 781 586 740 566C727 588 714 613 703 641L940 641L940 692L687 692C675 736 667 785 665 838L598 838C601 786 608 737 619 692L376 692L376 737L546 737L546 785L376 785L376 838L308 838L308 785L129 785L129 737L308 737L308 692L56 692L56 641L242 641C222 569 178 507 77 472C91 462 109 440 117 425C196 456 245 501 275 556L458 556C452 526 445 512 438 506C432 500 425 499 412 499C402 499 372 499 340 503C348 491 353 472 354 459C387 457 421 457 437 458C450 459 460 460 469 463L450 427ZM732 310L732 274L272 274L272 310ZM732 348L272 348L272 385L732 385Z"/></svg>