<svg id="U4C89" viewBox="0 0 1000 1000"><path transform="translate(0, 900) scale(1,-1)" d="M437 146C420 80 391 15 353-32C367-40 394-57 404-67C444-17 478 59 498 133ZM301 152C319 109 337 51 345 14L383 34C375 71 356 127 336 170ZM232 143C248 90 262 21 264-24L306-11C302 33 288 102 271 155ZM164 135C171 77 174 4 171-44L216-36C217 11 214 85 205 142ZM97 154C88 89 68 1 45-53L89-79C112-23 129 69 140 133ZM364 230L364 167L672 167L672 230L623 230L623 638L671 638L671 701L623 701L623 827L567 827L567 701L476 701L476 827L420 827L420 701L368 701L368 638L420 638L420 230ZM476 638L567 638L567 541L476 541ZM476 484L567 484L567 387L476 387ZM476 330L567 330L567 230L476 230ZM695 738L694 420C694 311 690 173 654 54C639 83 615 122 592 151L543 124C570 88 598 38 610 6L645 27C637 4 627-17 616-38C630-45 656-67 665-78C743 64 754 274 754 420L754 449L830 449L830-80L892-80L892 449L960 449L960 515L754 515L754 698C819 723 889 756 943 791L880 840C838 805 763 766 695 738ZM255 694C244 657 231 617 217 587L130 587C144 622 157 658 168 694ZM152 839C133 745 98 621 40 528C53 520 71 501 80 487L89 503L89 199L352 199L352 587L268 587C288 631 307 683 322 730L288 758L279 754L184 754L201 830ZM136 364L199 364L199 260L136 260ZM241 364L302 364L302 260L241 260ZM136 526L199 526L199 423L136 423ZM241 526L302 526L302 423L241 423Z"/></svg>