<svg id="U4DBC" viewBox="0 0 64 64"><path transform="translate(0, 57.6) scale(1,-1)" d="M4 56L4 4L0 4L0-4L4-4L4 4L8 4L8 20L16 20L16-4L12-4L12 0L8 0L8-4L12-4L12-8L16-8L16-4L20-4L20 56ZM36 56L36 52L32 52L32 48L28 48L28 44L24 44L24 40L28 40L28 44L32 44L32 48L36 48L36 52L40 52L40 56ZM48 56L48 52L52 52L52 48L56 48L56 44L60 44L60 40L64 40L64 44L60 44L60 48L56 48L56 52L52 52L52 56ZM8 52L16 52L16 40L8 40ZM44 48L44 44L40 44L40 40L36 40L36 36L28 36L28 32L24 32L24 28L56 28L56 24L60 24L60 36L56 36L56 40L52 40L52 36L56 36L56 32L36 32L36 36L40 36L40 40L44 40L44 44L48 44L48 48ZM8 36L16 36L16 24L8 24ZM40 24L40 20L44 20L44 12L48 12L48 20L44 20L44 24ZM28 16L28 8L24 8L24 4L28 4L28 8L32 8L32 16ZM36 16L36 0L40 0L40-4L56-4L56 8L52 8L52 0L40 0L40 16ZM56 16L56 12L60 12L60 0L64 0L64 12L60 12L60 16Z"/></svg>