<svg id="U4DBD" viewBox="0 0 64 64"><path transform="translate(0, 57.6) scale(1,-1)" d="M8 56L8 4L4 4L4-4L0-4L0-8L4-8L4-4L8-4L8 4L12 4L12 20L20 20L20-4L16-4L16 0L12 0L12-4L16-4L16-8L20-8L20-4L24-4L24 56ZM28 56L28 36L36 36L36 28L32 28L32 24L28 24L28 20L32 20L32 24L36 24L36 28L40 28L40 36L48 36L48 28L52 28L52 24L64 24L64 28L52 28L52 36L60 36L60 56L56 56L56 40L52 40L52 44L48 44L48 40L36 40L36 44L40 44L40 48L44 48L44 44L48 44L48 48L44 48L44 52L48 52L48 56L44 56L44 52L40 52L40 56L36 56L36 52L40 52L40 48L36 48L36 44L32 44L32 56ZM12 52L20 52L20 40L12 40ZM12 36L20 36L20 24L12 24ZM44 24L44 20L40 20L40 16L36 16L36 12L32 12L32 8L28 8L28 4L32 4L32 8L36 8L36 4L40 4L40 0L36 0L36-4L28-4L28-8L36-8L36-4L40-4L40 0L44 0L44-4L52-4L52-8L56-8L56-4L52-4L52 0L44 0L44 4L40 4L40 8L36 8L36 12L52 12L52 8L48 8L48 4L52 4L52 8L56 8L56 16L44 16L44 20L48 20L48 24Z"/></svg>