<svg id="U4D9F" viewBox="0 0 1000 1000"><path transform="translate(0, 900) scale(1,-1)" d="M109 783L109 616L41 616L41 556L473 556L473 616L311 616L311 694L439 694L439 751L311 751L311 839L249 839L249 616L168 616L168 783ZM188 250C180 182 165 122 132 80L132 264L391 264L391 37L132 25L132 71L159 45C176 66 190 92 201 122C212 105 222 89 229 76L254 100L240 80C250 72 265 57 271 50C288 70 301 96 312 124C330 99 347 73 356 54L386 84C375 106 349 143 326 171C332 194 336 218 339 243L298 248C292 194 281 144 258 106C249 123 232 147 215 168C221 192 226 218 229 244ZM188 535C180 470 165 412 132 371L132 523L74 523L74-35L391-17L391-48L446-48L446 522L391 522L391 322L132 322L132 369C141 362 156 348 162 340C178 360 192 385 202 412C211 397 219 382 224 370L256 395C248 414 232 440 217 461C223 483 227 505 230 528ZM647 843C611 721 552 598 482 518C499 508 527 487 539 476C579 527 617 593 651 665L836 665C814 607 781 541 751 495C767 489 788 475 802 465C845 527 894 623 923 704L879 731L868 728L678 728C691 760 703 793 713 826ZM495 397L495-79L562-79L562-32L853-32L853-75L919-75L919 424L726 424L726 360L853 360L853 233L724 233L724 170L853 170L853 33L562 33L562 171L680 171L680 233L562 233L562 366C612 386 664 412 707 436L656 488C616 459 552 423 495 397ZM300 534C293 482 280 434 256 395C251 388 246 379 239 372C249 365 264 350 270 342C287 362 301 387 312 415C330 391 347 364 356 345L385 376C374 399 349 433 327 460C333 482 338 505 341 528Z"/></svg>