<svg id="U4E02" viewBox="0 0 1000 1000"><svg id="U4E02jp" viewBox="0 0 1000 1000"><path transform="translate(0, 900) scale(1,-1)" d="M55 769L55 700L298 700C260 569 204 402 162 300L242 285L283 398L756 398C728 147 696 35 656 1C643-10 628-12 603-12C575-12 502-10 428-4C443-25 453-57 454-78C525-84 593-85 629-82C671-80 696-73 722-47C772 0 804 124 839 429C840 441 842 467 842 467L306 467C332 544 359 627 381 700L949 700L949 769Z"/><animate attributeName="opacity" values="1;0;0;1;1" dur="2s" repeatCount="indefinite"/></svg><svg id="U4E02sc" viewBox="0 0 1000 1000"><path transform="translate(0, 900) scale(1,-1)" d="M55 769L55 700L300 700C275 582 238 436 209 345L756 345C731 128 703 30 667 0C654-11 640-12 616-12C588-12 515-11 443-4C457-25 467-56 468-78C538-82 606-84 642-81C682-79 707-73 733-49C779-6 807 107 839 377C840 388 842 413 842 413L312 413C335 498 361 608 382 700L949 700L949 769Z"/><animate attributeName="opacity" values="0;1;1;0;0" dur="2s" repeatCount="indefinite"/></svg></svg>