<svg id="U4EDD" viewBox="0 0 1000 1000"><svg id="U4EDDhk" viewBox="0 0 1000 1000"><path transform="translate(0, 900) scale(1,-1)" d="M195 411L195 336L460 336L460 28L100 28L100-47L904-47L904 28L540 28L540 336L805 336L805 411ZM510 844C407 678 220 523 35 434C55 417 78 391 90 371C242 451 392 572 504 709C622 572 757 469 921 372C932 394 954 420 974 436C804 526 660 630 548 765L579 811Z"/><animate attributeName="opacity" values="1;0;0;1;1" dur="2s" repeatCount="indefinite"/></svg><svg id="U4EDDjp" viewBox="0 0 1000 1000"><path transform="translate(0, 900) scale(1,-1)" d="M495 753C583 613 756 448 915 349C930 372 948 399 968 419C809 506 633 671 530 836L450 836C376 692 209 513 34 407C51 390 74 362 84 344C256 452 416 618 495 753ZM201 380L201 304L458 304L458 27L106 27L106-49L890-49L890 27L539 27L539 304L797 304L797 380Z"/><animate attributeName="opacity" values="0;1;1;0;0" dur="2s" repeatCount="indefinite"/></svg></svg>