<svg id="U4E7D" viewBox="0 0 1000 1000"><path transform="translate(0, 900) scale(1,-1)" d="M325 412L742 412L742 363L325 363ZM325 500L742 500L742 452L325 452ZM794 816C761 786 723 757 681 731L681 778L477 778L477 841L401 841L401 778L161 778L161 726L401 726L401 662L59 662L59 606L419 606C296 561 163 526 34 502C45 488 63 457 69 440C130 453 191 469 253 486L253 321L817 321L817 542L424 542C477 561 529 583 578 606L942 606L942 662L685 662C747 698 802 737 850 781ZM477 726L673 726C636 703 596 682 554 662L477 662ZM144 275L144 215L459 215C153 127 140 81 140 41C140-15 193-50 309-50L785-50C885-50 920-30 931 111C908 115 882 123 861 134C857 27 840 16 792 16L302 16C249 16 217 26 217 47C217 72 254 111 748 227C757 230 764 234 768 238L713 278L697 275Z"/></svg>