<svg id="U4F6D" viewBox="0 0 1000 1000"><path transform="translate(0, 900) scale(1,-1)" d="M775 692C743 645 700 602 651 563C601 598 558 637 525 678L537 692ZM554 836C511 755 429 658 313 588C329 578 352 556 363 540C406 568 445 599 479 631C512 592 551 556 594 523C502 464 397 419 297 393C312 378 330 350 338 331C444 363 556 413 653 481C737 426 832 383 927 356C937 375 958 403 974 418C883 440 791 478 711 525C779 582 838 649 877 726L829 753L817 750L582 750C600 774 615 798 629 822ZM405 245C394 189 377 121 363 74L619 74L619-82L691-82L691 74L934 74L934 140L691 140L691 277L904 277L904 340L691 340L691 418L619 418L619 340L377 340L377 277L619 277L619 140L449 140L474 245ZM282 836C226 684 132 534 33 437C47 420 69 381 76 363C110 398 144 439 176 484L176-78L248-78L248 597C288 666 324 741 353 815Z"/></svg>