<svg id="U4FB2" viewBox="0 0 1000 1000"><svg id="U4FB2hk" viewBox="0 0 1000 1000"><path transform="translate(0, 900) scale(1,-1)" d="M268 836C214 683 126 531 31 432C45 415 67 376 75 359C106 393 136 431 165 474L165-78L238-78L238 593C277 664 311 740 339 815ZM501-86C517-71 544-57 718 22C714 36 709 62 708 80L580 27L580 381L660 381C704 182 787 14 917-72C928-53 951-27 968-14C895 27 836 97 791 183C833 216 884 263 928 306L874 351C848 316 804 271 766 236C747 281 731 330 719 381L951 381L951 447L444 447L444 472L444 553L883 553L883 618L444 618L444 721L912 721L912 786L372 786L372 471C372 318 366 105 283-46C302-53 333-70 347-81C417 49 438 231 443 381L511 381L511 58C511 14 482-14 465-25C477-39 495-68 501-85Z"/><animate attributeName="opacity" values="1;0;0;0;0;1;1" dur="3s" repeatCount="indefinite"/></svg><svg id="U4FB2jp" viewBox="0 0 1000 1000"><path transform="translate(0, 900) scale(1,-1)" d="M475 617L475 552L898 552L898 617ZM907 341C871 305 813 260 763 225C745 273 731 326 721 382L957 382L957 447L424 447L425 500L425 719L940 719L940 785L355 785L355 500C355 340 346 120 243-36C259-44 290-66 302-78C387 50 414 229 422 382L497 382L497 23L401 7L422-59C516-40 641-16 761 8L755 70L565 35L565 382L656 382C693 160 770-5 930-82C940-62 962-35 978-21C892 16 830 82 787 169C841 203 905 249 955 292ZM233 835C185 680 105 526 18 426C31 407 50 368 57 350C90 389 122 434 152 484L152-80L224-80L224 619C254 682 281 749 302 816Z"/><animate attributeName="opacity" values="0;1;1;0;0;0;0" dur="3s" repeatCount="indefinite"/></svg><svg id="U4FB2sc" viewBox="0 0 1000 1000"><path transform="translate(0, 900) scale(1,-1)" d="M493 620L493 554L884 554L884 620ZM272 836C215 684 122 534 24 437C37 420 59 381 66 363C100 398 133 438 165 483L165-78L238-78L238 597C278 666 314 741 343 815ZM872 351C845 317 801 273 762 239C744 283 730 331 718 381L951 381L951 447L446 447L446 476L446 721L912 721L912 786L377 786L377 476C377 325 372 115 303-35C320-42 352-58 366-68C424 60 440 235 445 381L512 381L512 64C512 17 489-17 475-30C487-41 507-67 517-83L518-85L519-83C534-70 561-55 704 12C700 25 695 51 694 70L579 22L579 381L659 381C699 191 773 25 891-59C902-40 925-15 941-2C876 38 824 105 785 188C827 220 879 265 923 307Z"/><animate attributeName="opacity" values="0;0;0;1;1;0;0" dur="3s" repeatCount="indefinite"/></svg></svg>