<svg id="U4FCF" viewBox="0 0 1000 1000"><svg id="U4FCFhk" viewBox="0 0 1000 1000"><path transform="translate(0, 900) scale(1,-1)" d="M863 812C838 753 792 673 757 622L821 595C857 644 900 717 935 784ZM351 778C394 720 436 641 452 590L519 623C503 674 457 750 414 807ZM450 312L826 312L826 203L450 203ZM450 377L450 484L826 484L826 377ZM604 841L604 555L376 555L376-80L450-80L450 139L826 139L826 15C826 1 821-3 805-4C790-5 737-5 679-3C689-23 700-54 704-74C780-74 830-74 860-62C890-50 899-27 899 14L899 555L679 555L679 841ZM264 836C212 685 126 535 33 437C47 420 69 381 77 363C106 396 135 433 163 474L163-78L235-78L235 592C274 663 308 739 336 815Z"/><animate attributeName="opacity" values="1;0;0;0;0;1;1" dur="3s" repeatCount="indefinite"/></svg><svg id="U4FCFjp" viewBox="0 0 1000 1000"><path transform="translate(0, 900) scale(1,-1)" d="M458 777C424 692 368 606 307 550C325 541 355 521 369 509C429 570 491 665 530 758ZM742 753C807 687 875 596 902 534L968 569C939 631 869 719 802 784ZM813 463L813 359L478 359L478 463ZM605 840L605 530L405 530L405-80L478-80L478 122L813 122L813 6C813-8 809-12 795-13C782-13 737-13 688-11C698-30 710-61 714-80C779-80 823-79 852-68C879-55 887-35 887 5L887 530L679 530L679 840ZM478 295L813 295L813 187L478 187ZM264 836C208 684 115 534 16 437C30 420 51 381 58 363C93 399 127 441 160 487L160-78L232-78L232 600C271 669 307 742 335 815Z"/><animate attributeName="opacity" values="0;1;1;0;0;0;0" dur="3s" repeatCount="indefinite"/></svg><svg id="U4FCFtc" viewBox="0 0 1000 1000"><path transform="translate(0, 900) scale(1,-1)" d="M479 371C568 352 680 312 739 281L769 336C710 366 596 402 508 420ZM863 812C838 753 792 673 757 622L821 595C857 644 900 717 935 784ZM351 778C394 720 436 641 452 590L519 623C503 674 457 750 414 807ZM604 841L604 554L378 554L378 277C378 178 373 52 321-40C338-48 367-71 379-84C439 17 448 166 448 277L448 485L826 485L826 266C692 235 553 203 460 185L486 120C582 142 706 173 826 204L826 15C826 1 821-4 805-5C790-5 737-5 679-3C689-23 700-55 704-75C780-75 830-75 860-62C890-50 899-28 899 14L899 554L679 554L679 841ZM264 836C212 685 126 535 33 437C47 420 69 381 77 363C106 396 135 433 163 474L163-78L235-78L235 592C274 663 308 739 336 815Z"/><animate attributeName="opacity" values="0;0;0;1;1;0;0" dur="3s" repeatCount="indefinite"/></svg></svg>