<svg id="U4FAF" viewBox="0 0 1000 1000"><svg id="U4FAFhk" viewBox="0 0 1000 1000"><path transform="translate(0, 900) scale(1,-1)" d="M661 121C742 58 851-30 904-82L956-32C900 19 791 104 711 164ZM286 241L286 175L557 175C528 105 455 31 277-26C293-40 314-66 324-81C526-10 606 85 636 175L952 175L952 241L650 241C651 257 652 272 652 287L652 375L901 375L901 439L470 439C483 464 495 489 505 515L438 533C407 452 355 371 296 318C314 309 343 290 356 279C382 306 408 338 432 375L577 375L577 288C577 273 576 257 574 241ZM386 792L386 727L722 727L703 607L294 607L294 541L958 541L958 607L777 607C787 665 797 731 804 789L750 795L737 792ZM246 835C199 679 120 525 34 424C47 405 67 365 74 347C104 382 132 423 159 467L159-79L233-79L233 606C265 674 292 745 315 815Z"/><animate attributeName="opacity" values="1;0;0;0;0;1;1" dur="3s" repeatCount="indefinite"/></svg><svg id="U4FAFjp" viewBox="0 0 1000 1000"><path transform="translate(0, 900) scale(1,-1)" d="M292 250L292 183L573 183C549 109 480 30 288-25C304-39 326-66 336-81C510-25 592 50 630 126C692 21 790-50 925-84C935-65 956-36 973-21C830 7 727 79 673 183L957 183L957 250L660 250L661 273L661 378L900 378L900 443L472 443C485 470 496 499 506 527L464 537L956 537L956 604L826 604L826 793L401 793L401 728L750 728L750 604L301 604L301 537L433 537C404 448 357 361 300 304C318 295 349 277 363 266C389 297 416 335 439 378L586 378L586 274L585 250ZM264 836C208 684 115 534 16 437C30 420 51 381 58 363C93 399 127 441 160 487L160-78L232-78L232 600C271 669 307 742 335 815Z"/><animate attributeName="opacity" values="0;1;1;0;0;0;0" dur="3s" repeatCount="indefinite"/></svg><svg id="U4FAFsc" viewBox="0 0 1000 1000"><path transform="translate(0, 900) scale(1,-1)" d="M286 241L286 175L552 175C523 104 450 29 273-28C289-42 311-67 320-83C489-22 572 55 611 132C655 49 738-38 924-77C932-58 950-30 965-14C771 21 694 102 660 175L940 175L940 241L643 241C644 257 645 272 645 287L645 375L889 375L889 439L470 439C483 464 495 489 505 515L438 533C407 452 355 371 296 318C314 309 343 290 356 279C382 306 408 338 432 375L571 375L571 288C571 273 570 257 569 241ZM386 792L386 727L718 727L700 607L294 607L294 541L946 541L946 607L773 607C783 664 792 730 799 789L746 795L734 792ZM243 834C198 679 123 525 39 423C53 404 73 364 80 347C107 381 134 420 159 462L159-80L233-80L233 605C264 673 290 744 312 815Z"/><animate attributeName="opacity" values="0;0;0;1;1;0;0" dur="3s" repeatCount="indefinite"/></svg></svg>