<svg id="U4F07" viewBox="0 0 1000 1000"><path transform="translate(0, 900) scale(1,-1)" d="M444 804L444 691C444 615 422 530 287 468C302 457 329 428 338 412C485 483 517 593 517 689L517 734L711 734L711 575C711 497 727 469 800 469C815 469 876 469 893 469C916 469 939 470 952 474C950 491 947 520 945 539C931 536 908 534 892 534C877 534 819 534 805 534C788 534 785 544 785 573L785 804ZM782 328C744 251 688 188 620 136C550 189 495 254 458 328ZM339 398L339 328L429 328L387 313C428 227 484 153 555 93C469 42 369 7 267-13C282-30 299-61 306-82C417-56 524-15 618 45C701-12 800-53 913-77C924-56 945-25 963-8C858 11 764 45 684 93C773 165 844 259 887 380L836 401L822 398ZM266 836C213 685 126 535 32 437C46 420 68 381 75 363C104 395 133 431 160 470L160-78L232-78L232 586C273 659 309 737 338 815Z"/></svg>