<svg id="U4F5D" viewBox="0 0 1000 1000"><path transform="translate(0, 900) scale(1,-1)" d="M266 836C214 685 126 534 34 436C47 418 69 379 77 362C108 396 139 436 168 479L168-80L240-80L240 598C278 668 311 741 338 815ZM478 840C434 695 359 553 268 463C286 451 317 424 329 410C378 463 424 531 464 606L867 606C854 201 838 46 804 11C793-2 782-5 762-4C738-4 679-4 614 1C628-20 637-53 639-75C697-79 756-80 790-76C826-73 849-65 872-35C912 15 927 174 942 636C943 648 943 677 943 677L499 677C520 723 539 772 555 821ZM466 421L650 421L650 220L466 220ZM400 487L400 94L466 94L466 156L719 156L719 487Z"/></svg>