<svg id="U4FDA" viewBox="0 0 1000 1000"><path transform="translate(0, 900) scale(1,-1)" d="M260 836C210 685 128 535 38 437C52 420 74 380 82 363C111 396 139 434 166 475L166-78L241-78L241 606C276 673 306 745 331 816ZM355 785L355 335L591 335L591 225L348 225L348 158L591 158L591 18L289 18L289-51L956-51L956 18L671 18L671 158L919 158L919 225L671 225L671 335L908 335L908 785ZM426 531L596 531L596 399L426 399ZM665 531L834 531L834 399L665 399ZM426 722L596 722L596 591L426 591ZM665 722L834 722L834 591L665 591Z"/></svg>