<svg id="U50A8" viewBox="0 0 1000 1000"><path transform="translate(0, 900) scale(1,-1)" d="M290 749C333 706 381 645 402 605L457 645C435 685 385 743 341 784ZM472 536L472 468L662 468C596 399 522 341 442 295C457 282 482 252 491 238C516 254 541 271 565 289L565-76L630-76L630-25L847-25L847-73L915-73L915 361L651 361C687 394 721 430 753 468L959 468L959 536L807 536C863 612 911 697 950 788L883 807C864 761 842 717 817 674L817 727L701 727L701 840L632 840L632 727L501 727L501 662L632 662L632 536ZM701 662L810 662C783 618 754 576 722 536L701 536ZM630 141L847 141L847 37L630 37ZM630 198L630 299L847 299L847 198ZM346-44C360-26 385-10 526 78C521 92 512 119 508 138L411 82L411 521L247 521L247 449L346 449L346 95C346 53 324 28 309 18C322 4 340-27 346-44ZM216 842C173 688 104 535 25 433C36 416 56 379 62 363C89 398 115 438 139 482L139-77L205-77L205 616C234 683 259 754 280 824Z"/></svg>