<svg id="U501D" viewBox="0 0 1000 1000"><path transform="translate(0, 900) scale(1,-1)" d="M151 388L415 388L415 297L151 297ZM151 532L415 532L415 442L151 442ZM84 589L84 240L245 240L245 159L40 159L40 92L245 92L245-80L317-80L317 92L518 92L518 159L317 159L317 240L483 240L483 589L317 589L317 664L516 664L516 731L317 731L317 840L245 840L245 731L52 731L52 664L245 664L245 589ZM650 840L650 600C650 424 644 159 416-28C436-41 462-65 474-80C610 39 673 184 701 323C737 168 799 16 916-80C928-60 953-29 969-15C798 110 746 374 724 584L724 600L724 840Z"/></svg>