<svg id="U503F" viewBox="0 0 1000 1000"><path transform="translate(0, 900) scale(1,-1)" d="M424 635C452 595 481 540 494 506L553 534C540 568 509 620 479 659ZM261 836C210 684 124 533 31 434C45 417 67 377 76 360C105 392 133 430 160 470L160-78L230-78L230 587C269 660 304 738 332 815ZM538 817C556 792 575 762 590 735L342 735L342 670L915 670L915 735L660 735C643 767 615 811 589 844ZM756 658C738 612 702 545 674 502L316 502L316 436L944 436L944 502L746 502C772 542 800 592 826 637ZM759 260C738 195 706 144 658 104C596 128 532 151 472 169C492 197 513 228 534 260ZM367 136C438 115 515 88 588 58C515 21 417-2 289-14C300-29 313-56 319-76C469-57 582-26 665 26C744-10 813-47 861-80L912-23C866 9 801 42 728 74C778 122 813 183 835 260L961 260L961 326L575 326C592 356 609 386 622 414L556 430C541 397 522 362 501 326L300 326L300 260L459 260C428 214 396 170 367 136Z"/></svg>