<svg id="U5033" viewBox="0 0 1000 1000"><path transform="translate(0, 900) scale(1,-1)" d="M345 136L345 77L585 77L585 10C585-7 580-11 564-12C549-13 499-13 446-11C456-30 467-62 471-80C543-80 590-78 618-67C647-55 657-35 657 10L657 77L830 77L830 38L901 38L901 210L963 210L963 270L901 270L901 395L657 395L657 455L896 455L896 647L657 647L657 701L940 701L940 761L657 761L657 839L585 839L585 761L322 761L322 701L585 701L585 647L359 647L359 455L585 455L585 395L350 395L350 340L585 340L585 270L284 270L284 210L585 210L585 136ZM425 593L585 593L585 509L425 509ZM657 593L826 593L826 509L657 509ZM657 340L830 340L830 270L657 270ZM657 210L830 210L830 136L657 136ZM264 836C208 684 115 534 16 437C30 420 51 381 58 363C93 399 127 441 160 487L160-78L232-78L232 600C271 669 307 742 335 815Z"/></svg>