<svg id="U511A" viewBox="0 0 1000 1000"><svg id="U511Ahk" viewBox="0 0 1000 1000"><path transform="translate(0, 900) scale(1,-1)" d="M736 573L849 573L849 473L736 473ZM567 573L678 573L678 473L567 473ZM404 573L511 573L511 473L404 473ZM339 625L339 421L916 421L916 625ZM293 373L293 221L361 221L361 313L582 313C529 252 433 187 303 143C318 133 338 110 347 95C387 111 425 128 459 146C500 116 543 78 571 48C493 12 402-13 306-28C318-41 336-71 343-88C561-46 761 42 851 225L809 251L796 248L604 248C624 267 643 286 659 306L624 313L888 313L888 223L958 223L958 373ZM536 194L756 194C724 149 682 111 631 80C602 111 555 150 514 179ZM233 835C188 681 114 527 30 426C43 407 63 368 70 350C98 385 126 426 152 470L152-79L224-79L224 610C254 677 280 747 302 816ZM488 841L488 760L300 760L300 701L488 701L488 647L557 647L557 841ZM688 840L688 647L759 647L759 700L960 700L960 759L759 759L759 840Z"/><animate attributeName="opacity" values="1;0;0;0;0;1;1" dur="3s" repeatCount="indefinite"/></svg><svg id="U511Ajp" viewBox="0 0 1000 1000"><path transform="translate(0, 900) scale(1,-1)" d="M736 573L849 573L849 473L736 473ZM567 573L678 573L678 473L567 473ZM404 573L511 573L511 473L404 473ZM339 625L339 421L916 421L916 625ZM713 832L713 757L537 757L537 832L468 832L468 757L304 757L304 697L468 697L468 641L537 641L537 697L713 697L713 641L782 641L782 697L958 697L958 757L782 757L782 832ZM293 373L293 221L361 221L361 313L582 313C529 252 433 187 303 143C318 133 338 110 347 95C385 110 420 126 452 143C496 116 545 81 577 51C498 13 404-12 306-28C318-41 336-71 343-88C561-46 761 42 851 225L809 251L796 248L604 248C624 267 643 286 659 306L624 313L888 313L888 223L958 223L958 373ZM536 194L756 194C726 151 686 115 638 84C605 114 553 149 507 175ZM233 835C185 680 105 526 18 426C31 407 50 368 57 350C90 389 122 434 152 484L152-80L224-80L224 619C254 682 281 749 302 816Z"/><animate attributeName="opacity" values="0;1;1;0;0;0;0" dur="3s" repeatCount="indefinite"/></svg><svg id="U511Asc" viewBox="0 0 1000 1000"><path transform="translate(0, 900) scale(1,-1)" d="M736 573L849 573L849 473L736 473ZM567 573L678 573L678 473L567 473ZM404 573L511 573L511 473L404 473ZM339 625L339 421L916 421L916 625ZM713 832L713 757L537 757L537 832L468 832L468 757L304 757L304 697L468 697L468 641L537 641L537 697L713 697L713 641L782 641L782 697L958 697L958 757L782 757L782 832ZM482 123C515 104 553 77 581 53C500 14 406-12 306-28C318-41 336-71 343-88C561-46 761 42 851 225L809 251L796 248L604 248C624 267 643 286 659 306L624 313L888 313L888 223L958 223L958 373L293 373L293 221L361 221L361 313L582 313C529 252 433 187 303 143C318 133 338 110 347 95C421 124 483 157 536 194L756 194C726 151 686 115 638 85C609 109 569 137 534 156ZM233 835C188 681 114 527 30 426C43 407 63 368 70 350C98 385 126 426 152 470L152-80L224-80L224 610C254 677 280 747 302 816Z"/><animate attributeName="opacity" values="0;0;0;1;1;0;0" dur="3s" repeatCount="indefinite"/></svg></svg>