<svg id="U51B6" viewBox="0 0 1000 1000"><svg id="U51B6hk" viewBox="0 0 1000 1000"><path transform="translate(0, 900) scale(1,-1)" d="M51 764C111 704 182 619 213 565L274 612C241 666 168 746 108 804ZM38 11L102-38C161 57 229 184 282 291L226 341C169 224 91 91 38 11ZM367 323L367-81L440-81L440-37L792-37L792-78L868-78L868 323ZM440 33L440 252L792 252L792 33ZM330 404C362 416 409 419 845 449C861 425 874 401 884 381L951 420C909 500 818 621 734 710L670 678C714 630 761 571 801 515L426 494C498 584 571 701 632 818L554 841C496 711 404 576 375 541C347 504 326 480 305 475C314 455 327 419 330 404Z"/><animate attributeName="opacity" values="1;0;0;1;1" dur="2s" repeatCount="indefinite"/></svg><svg id="U51B6jp" viewBox="0 0 1000 1000"><path transform="translate(0, 900) scale(1,-1)" d="M55 724C120 678 198 610 234 564L290 624C251 669 172 732 107 777ZM38 63L106 14C167 106 240 229 297 335L239 382C177 269 95 139 38 63ZM371 328L371-78L442-78L442-27L809-27L809-74L882-74L882 328ZM442 45L442 256L809 256L809 45ZM702 667C739 625 777 577 810 529L473 513C525 603 581 717 625 814L543 839C507 739 443 605 388 509L271 505L279 432L854 462C873 432 888 403 898 379L968 412C932 492 845 610 766 695Z"/><animate attributeName="opacity" values="0;1;1;0;0" dur="2s" repeatCount="indefinite"/></svg></svg>