<svg id="U51DE" viewBox="0 0 1000 1000"><svg id="U51DEhk" viewBox="0 0 1000 1000"><path transform="translate(0, 900) scale(1,-1)" d="M134 164C117 93 83 4 43-51L109-83C149-25 180 68 199 139ZM309 125C340 63 368-20 376-71L446-48C437 3 406 84 374 145ZM49 772C89 721 131 651 147 605L207 641C190 686 147 754 105 804ZM539 130C575 67 608-18 617-71L688-45C677 8 641 90 604 151ZM782 141C827 72 872-23 888-82L959-53C941 6 894 97 847 166ZM43 236L103 200C140 284 183 395 215 489L164 523C128 423 78 306 43 236ZM252 813L252 540C252 412 246 280 198 178C215 170 241 152 254 140C305 253 313 397 313 540L313 813ZM694 802L694 301C694 211 714 184 791 184C803 184 881 184 900 184C927 184 953 186 966 190C963 205 960 238 958 255C944 251 921 250 904 250C884 250 804 250 786 250C761 250 755 261 755 299L755 446L933 446L933 802ZM755 734L876 734L876 513L755 513ZM510 742L510 621L432 621L432 742ZM372 803L372 187L669 187L669 249L566 249L566 379L647 379L647 621L566 621L566 742L661 742L661 803ZM432 249L432 379L509 379L509 249ZM432 564L588 564L588 436L432 436Z"/><animate attributeName="opacity" values="1;0;0;0;0;0;0;1;1" dur="4s" repeatCount="indefinite"/></svg><svg id="U51DEjp" viewBox="0 0 1000 1000"><path transform="translate(0, 900) scale(1,-1)" d="M179 155C157 81 112 3 43-40L101-80C175-31 216 52 242 133ZM330 130C354 65 373-21 377-73L446-53C442-2 421 82 396 146ZM47 752C94 718 148 667 172 631L220 677C194 712 140 760 92 793ZM528 128C570 66 612-20 627-73L694-48C678 6 634 89 591 151ZM741 126C801 64 869-23 897-79L963-43C933 14 864 98 802 158ZM38 263L92 226C136 304 187 409 226 498L180 534C137 438 78 329 38 263ZM249 814L249 556C249 432 241 305 179 208C194 200 216 180 226 168C298 274 308 415 308 555L308 814ZM750 744L867 744L867 547L750 547ZM689 803L689 300C689 223 709 205 773 205C787 205 862 205 876 205C934 205 951 237 958 350C940 355 915 366 901 377C899 284 895 266 871 266C855 266 792 266 781 266C754 266 750 271 750 301L750 488L927 488L927 803ZM498 739L498 633L422 633L422 739ZM362 277L362 220L664 220L664 277L556 277L556 401L643 401L643 633L556 633L556 739L658 739L658 795L362 795ZM422 277L422 401L498 401L498 277ZM422 577L584 577L584 458L422 458Z"/><animate attributeName="opacity" values="0;1;1;0;0;0;0;0;0" dur="4s" repeatCount="indefinite"/></svg><svg id="U51DEkr" viewBox="0 0 1000 1000"><path transform="translate(0, 900) scale(1,-1)" d="M48 744C98 709 157 658 183 621L234 674C205 710 145 758 95 791ZM45 258L104 213C152 293 206 397 247 485L195 529C149 434 87 324 45 258ZM345 113C358 54 365-24 366-71L439-61C438-15 427 61 414 120ZM549 113C575 54 600-24 610-72L684-56C674-9 646 68 619 126ZM753 122C804 59 861-28 885-81L959-51C932 4 873 88 822 148ZM173 142C149 69 103-6 53-49L119-81C174-32 218 49 244 124ZM644 795L644 304C644 220 667 200 742 200C758 200 854 200 871 200C937 200 956 234 964 353C945 358 918 369 903 380C900 284 895 265 865 265C845 265 765 265 750 265C716 265 710 271 710 303L710 730L866 730C863 591 860 541 851 528C845 520 838 518 826 518C815 518 788 519 757 522C767 505 773 479 774 460C806 459 839 460 857 462C880 464 895 470 907 486C924 509 929 578 932 767C932 775 932 795 932 795ZM429 735L429 631L324 631L324 735ZM260 269L260 207L616 207L616 269L489 269L489 398L593 398L593 631L489 631L489 735L600 735L600 797L260 797ZM324 269L324 398L429 398L429 269ZM324 573L529 573L529 456L324 456Z"/><animate attributeName="opacity" values="0;0;0;1;1;0;0;0;0" dur="4s" repeatCount="indefinite"/></svg><svg id="U51DEsc" viewBox="0 0 1000 1000"><path transform="translate(0, 900) scale(1,-1)" d="M304 162C285 91 249 6 199-45L259-82C311-26 346 64 367 139ZM446 140C462 72 472-15 467-68L538-58C542-5 531 80 511 147ZM603 136C639 72 673-14 683-67L750-47C740 6 703 89 667 152ZM778 140C829 72 879-22 898-81L967-57C947 4 894 95 843 162ZM278 809L278 572C278 447 270 311 214 207C230 198 254 180 266 168C330 283 339 431 339 572L339 809ZM52 751C101 698 154 625 175 576L233 621C210 670 155 740 105 791ZM33 101L91 53C137 157 190 295 228 407L178 453C136 331 75 187 33 101ZM524 634L451 634L451 744L524 744ZM648 803L392 803L392 215L656 215L656 274L575 274L575 403L640 403L640 634L575 634L575 744L648 744ZM747 744L865 744L865 547L747 547ZM687 803L687 305C687 230 706 212 770 212C784 212 858 212 872 212C929 212 946 244 953 357C935 362 911 372 898 383C895 289 891 272 867 272C852 272 790 272 778 272C752 272 747 277 747 306L747 488L925 488L925 803ZM524 403L524 274L451 274L451 403ZM451 579L582 579L582 458L451 458Z"/><animate attributeName="opacity" values="0;0;0;0;0;1;1;0;0" dur="4s" repeatCount="indefinite"/></svg></svg>