<svg id="U515B" viewBox="0 0 1000 1000"><path transform="translate(0, 900) scale(1,-1)" d="M151 505L419 505L419 365L151 365ZM82 570L82 300L170 300L170 273C170 190 153 63 30-29C47-42 71-65 83-81C217 24 240 175 240 271L240 300L333 300L333 45C333-44 372-66 506-66C536-66 781-66 812-66C928-66 954-32 967 101C946 105 916 115 899 127C892 18 881 0 809 0C754 0 547 0 505 0C419 0 404 7 404 45L404 300L491 300L491 570L323 570L323 669L518 669L518 737L323 737L323 840L253 840L253 737L44 737L44 669L253 669L253 570ZM860 803C791 764 661 728 547 706C557 690 568 663 572 646C615 654 660 663 705 673L705 490L534 490L534 419L705 419L705 68L776 68L776 419L951 419L951 490L776 490L776 692C830 707 881 725 922 746Z"/></svg>