<svg id="U51C6" viewBox="0 0 1000 1000"><svg id="U51C6hk" viewBox="0 0 1000 1000"><path transform="translate(0, 900) scale(1,-1)" d="M48 765C98 695 157 598 183 538L253 575C226 634 165 727 113 796ZM48 2L124-33C171 62 226 191 268 303L202 339C156 220 93 84 48 2ZM435 395L646 395L646 262L435 262ZM435 461L435 596L646 596L646 461ZM607 805C635 761 667 701 681 661L452 661C476 710 497 762 515 814L445 831C395 677 310 528 211 433C227 421 255 394 266 380C301 416 334 458 365 506L365-80L435-80L435-9L954-9L954 59L719 59L719 196L912 196L912 262L719 262L719 395L913 395L913 461L719 461L719 596L934 596L934 661L686 661L750 693C734 731 702 789 670 833ZM435 196L646 196L646 59L435 59Z"/><animate attributeName="opacity" values="1;0;0;1;1" dur="2s" repeatCount="indefinite"/></svg><svg id="U51C6jp" viewBox="0 0 1000 1000"><path transform="translate(0, 900) scale(1,-1)" d="M66 726C130 684 208 619 244 576L295 634C257 678 178 737 114 779ZM36 48L100-3C158 81 228 193 282 288L227 337C168 235 90 117 36 48ZM644 376L644 243L467 243L467 376ZM476 840C427 689 345 542 251 448C267 436 295 405 306 391C337 424 367 463 395 505L395-80L467-80L467-32L960-32L960 38L715 38L715 175L912 175L912 243L715 243L715 376L912 376L912 444L715 444L715 574L937 574L937 642L728 642C750 694 774 758 795 814L718 836C704 779 680 700 657 642L474 642C502 699 528 759 549 820ZM644 444L467 444L467 574L644 574ZM644 175L644 38L467 38L467 175Z"/><animate attributeName="opacity" values="0;1;1;0;0" dur="2s" repeatCount="indefinite"/></svg></svg>