<svg id="U51A1" viewBox="0 0 1000 1000"><svg id="U51A1jp" viewBox="0 0 1000 1000"><path transform="translate(0, 900) scale(1,-1)" d="M82 792L82 583L155 583L155 728L843 728L843 584L918 584L918 792ZM227 652L227 596L764 596L764 652ZM827 396C785 353 719 299 662 259C629 318 603 384 583 455L864 455L864 515L134 515L134 455L422 455C325 396 195 346 77 316C89 304 109 278 117 265C187 287 263 316 335 350C357 336 376 322 394 306C314 244 178 180 73 150C87 137 103 116 111 101C214 138 346 205 431 269C447 251 461 232 472 214C382 118 213 22 68-18C82-32 96-54 105-71C241-25 399 67 497 162C522 91 511 29 477 3C459-14 440-15 416-15C395-15 368-14 338-11C350-31 356-59 356-77C384-80 409-80 430-80C467-79 496-73 527-48C620 21 604 243 395 380C439 404 480 429 515 455L522 455C584 213 703 29 902-56C911-37 932-10 947 4C840 44 756 115 692 209C754 248 828 303 885 354Z"/><animate attributeName="opacity" values="1;0;0;1;1" dur="2s" repeatCount="indefinite"/></svg><svg id="U51A1sc" viewBox="0 0 1000 1000"><path transform="translate(0, 900) scale(1,-1)" d="M82 792L82 583L155 583L155 728L843 728L843 584L918 584L918 792ZM227 652L227 596L764 596L764 652ZM837 401C776 366 677 321 597 291C573 342 537 390 488 429L527 455L864 455L864 515L134 515L134 455L431 455C339 403 215 359 107 332C118 320 137 294 145 282C238 310 344 350 434 398C451 384 467 368 481 352C391 289 230 222 108 193C122 180 137 158 145 143C263 178 415 246 511 311C523 290 534 270 542 249C441 158 245 69 80 35C94 21 108-2 115-19C268 20 447 104 559 193C577 114 565 43 533 16C516-2 496-2 471-2C450-2 421-1 389 2C402-17 409-46 410-66C437-67 464-68 484-68C527-68 553-62 583-34C638 9 654 125 617 239L688 264C731 130 805 20 910-36C920-18 941 7 956 20C855 66 783 167 743 286C794 306 844 328 887 351Z"/><animate attributeName="opacity" values="0;1;1;0;0" dur="2s" repeatCount="indefinite"/></svg></svg>