<svg id="U51C4" viewBox="0 0 1000 1000"><svg id="U51C4hk" viewBox="0 0 1000 1000"><path transform="translate(0, 900) scale(1,-1)" d="M49 768C90 692 134 591 150 528L220 553C202 614 156 712 114 787ZM37 4L109-24C146 71 191 202 223 315L159 345C125 225 74 87 37 4ZM313 79C373 66 439 50 506 33C428 5 335-11 230-20C241-36 258-67 263-83C395-66 510-40 602 6C709-24 809-57 874-83L937-32C868-5 773 24 673 51C716 83 751 122 778 171L942 171L942 231L804 231L813 259L738 270C735 256 731 243 726 231L520 231C532 250 544 270 554 288L611 288L611 341L861 341L861 460L961 460L961 521L861 521L861 645L611 645L611 701L933 701L933 762L611 762L611 841L536 841L536 762L245 762L245 701L536 701L536 645L304 645L304 589L536 589L536 520L231 520L231 465L536 465L536 398L300 398L300 341L536 341L536 299L485 313C471 287 454 259 435 231L257 231L257 171L392 171C366 137 338 105 313 79ZM611 465L791 465L791 398L611 398ZM611 520L611 589L791 589L791 520ZM696 171C670 130 634 98 591 72C536 86 482 99 430 110C446 128 462 149 478 171Z"/><animate attributeName="opacity" values="1;0;0;0;0;1;1" dur="3s" repeatCount="indefinite"/></svg><svg id="U51C4jp" viewBox="0 0 1000 1000"><path transform="translate(0, 900) scale(1,-1)" d="M50 721C113 674 187 606 220 559L275 615C240 661 164 727 100 771ZM37 69L99 21C158 110 228 230 284 332L229 380C171 270 92 143 37 69ZM338 640L338 583L567 583L567 511L275 511L275 456L567 456L567 381L333 381L333 323L504 323L468 258L276 258L276 196L432 196C404 150 376 106 352 72L421 51L437 75C481 65 525 55 567 44C483 9 377-9 258-19C270-34 288-64 293-81C433-63 559-35 655 19C753-11 839-45 902-79L951-27C891 3 810 34 719 62C762 97 796 141 820 196L961 196L961 258L547 258L584 323L882 323L882 452L961 452L961 516L882 516L882 640L642 640L642 703L943 703L943 764L642 764L642 840L567 840L567 764L289 764L289 703L567 703L567 640ZM511 196L739 196C718 150 685 113 643 84C586 99 527 113 468 125ZM642 456L812 456L812 381L642 381ZM642 511L642 583L812 583L812 511Z"/><animate attributeName="opacity" values="0;1;1;0;0;0;0" dur="3s" repeatCount="indefinite"/></svg><svg id="U51C4sc" viewBox="0 0 1000 1000"><path transform="translate(0, 900) scale(1,-1)" d="M43 768C89 698 142 603 163 544L223 580C202 639 147 731 100 800ZM37 4L102-28C139 66 184 194 217 305L159 338C123 221 73 85 37 4ZM338 100C400 87 468 70 535 50C451 15 343-3 226-13C237-29 254-59 259-75C397-57 524-30 620 24C716-7 804-41 862-72L921-24C860 7 775 39 683 68C723 101 755 141 776 191L954 191L954 251L543 251C559 275 574 298 587 321L864 321L864 450L957 450L957 510L864 510L864 637L612 637L612 701L938 701L938 762L612 762L612 841L539 841L539 762L245 762L245 701L539 701L539 637L304 637L304 580L539 580L539 509L231 509L231 454L539 454L539 379L300 379L300 321L508 321C494 298 478 275 462 251L247 251L247 191L417 191C390 157 363 126 338 100ZM612 454L791 454L791 379L612 379ZM612 509L612 580L791 580L791 509ZM695 191C677 150 647 117 609 90C556 105 502 119 451 130L499 191Z"/><animate attributeName="opacity" values="0;0;0;1;1;0;0" dur="3s" repeatCount="indefinite"/></svg></svg>