<svg id="U527B" viewBox="0 0 1000 1000"><path transform="translate(0, 900) scale(1,-1)" d="M858 821L858 8C858-8 853-12 839-13C825-13 780-13 729-12C738-31 748-61 751-79C821-79 864-77 889-66C915-55 925-34 925 7L925 821ZM689 728L689 162L756 162L756 728ZM272 475L272 373L171 373L171 475ZM111 536L111 312C111 203 104 57 41-50C56-56 82-72 93-82C133-14 153 72 163 156L272 156L272 3C272-6 269-9 261-9C253-10 228-10 200-9C208-25 216-51 218-68C262-68 289-67 308-56C328-46 333-27 333 2L333 536ZM272 314L272 215L168 215C170 249 171 281 171 311L171 314ZM550 475L550 374L446 374L446 475ZM385 536L385 281C385 181 381 50 339-46C354-52 382-67 394-76C423-11 437 76 442 158L550 158L550 5C550-4 547-6 538-7C529-7 502-7 471-6C480-23 488-49 491-66C536-66 566-65 585-54C606-44 611-25 611 5L611 536ZM550 314L550 216L445 216L446 281L446 314ZM100 785L100 596L621 596L621 786L550 786L550 660L402 660L402 829L333 829L333 660L168 660L168 785Z"/></svg>