<svg id="U520E" viewBox="0 0 1000 1000"><path transform="translate(0, 900) scale(1,-1)" d="M680 729L680 174L747 174L747 729ZM847 821L847 15C847-2 841-7 824-8C807-8 753-9 693-7C703-28 713-60 717-80C799-80 848-78 878-66C906-54 919-31 919 16L919 821ZM193 841C161 688 104 542 23 450C39 440 70 418 82 406C131 468 174 550 208 642L275 642C231 457 147 272 41 180C59 170 79 152 92 137C201 243 288 446 331 642L403 642C365 380 281 131 144 12C162 2 184-17 195-31C337 102 422 368 461 642L519 642C504 209 486 53 456 17C445 3 436 0 419 0C399 0 357 1 309 4C321-15 328-46 330-67C374-69 420-71 448-67C477-64 497-55 517-27C556 22 571 184 588 672C589 682 589 710 589 710L232 710C244 748 254 788 263 828Z"/></svg>