<svg id="U529D" viewBox="0 0 1000 1000"><path transform="translate(0, 900) scale(1,-1)" d="M595 839L595 630L450 630L450 556L595 556C591 373 556 150 347-27C368-41 394-61 408-77C627 110 667 350 671 556L852 556C841 187 828 50 801 20C791 7 781 4 763 5C742 5 694 5 640 9C653-11 661-42 663-64C714-67 765-68 795-65C827-61 848-53 868-25C903 19 915 164 928 591C928 602 928 630 928 630L671 630L671 839ZM51 552C111 480 178 394 236 312C178 198 104 110 23 56C41 43 65 16 76-3C156 55 227 137 285 243C321 190 351 140 373 100L435 149C408 196 369 256 323 319C372 430 409 561 429 712L381 728L369 725L50 725L50 652L346 652C330 556 304 468 271 388C218 459 160 531 107 593Z"/></svg>