<svg id="U5282" viewBox="0 0 1000 1000"><svg id="U5282hk" viewBox="0 0 1000 1000"><path transform="translate(0, 900) scale(1,-1)" d="M731 729L731 170L791 170L791 729ZM860 823L860 6C860-8 855-12 843-12C831-13 792-13 747-12C756-31 766-60 768-77C830-78 868-76 892-64C915-54 924-34 924 5L924 823ZM189 689C208 647 225 590 228 553L280 568C275 604 258 659 237 702ZM89 801L89 365C89 237 85 73 32-41C48-46 74-63 86-74C142 45 149 231 149 366L149 736L686 736L686 801ZM489 705C480 567 466 435 421 347C433 338 455 319 464 310C490 361 507 425 520 496L635 496C631 433 626 364 620 320L662 312C672 371 681 470 687 549L654 557L646 555L529 555C535 601 539 649 543 698ZM191 426L191 154L274 154C269 101 248 28 168-33C185-44 205-63 218-79C305-5 328 90 333 154L421 154L421 426L375 426L375 210L333 210L333 486L441 486L441 544L372 544C389 587 407 643 424 691L366 706C357 659 336 590 320 544L176 544L176 486L282 486L282 210L237 210L237 426ZM524 464C518 242 501 59 369-38C383-48 403-68 411-82C490-21 532 68 554 176C593 92 630 0 647-60L698-30C675 44 620 169 569 269C576 329 579 395 581 464Z"/><animate attributeName="opacity" values="1;0;0;1;1" dur="2s" repeatCount="indefinite"/></svg><svg id="U5282jp" viewBox="0 0 1000 1000"><path transform="translate(0, 900) scale(1,-1)" d="M707 729L707 170L768 170L768 729ZM856 823L856 4C856-10 851-14 838-14C826-14 788-15 743-13C752-33 762-62 764-80C826-80 865-78 888-67C912-56 921-36 921 4L921 823ZM373 426L373 226L325 226L326 279L326 486L437 486L437 544L364 544C381 582 401 639 420 690L362 706C353 662 333 598 318 557L361 544L171 544L171 486L275 486L275 279L274 226L230 226L230 426L186 426L186 123L230 123L230 171L269 171C259 90 230 15 158-46C171-54 191-69 200-80C281-10 311 77 321 171L373 171L373 135L417 135L417 339C429 329 445 316 452 308C478 359 496 424 508 496L515 496L515 365C515 240 499 80 361-44C375-54 395-70 406-82C486-8 527 77 548 162C567 74 600-20 658-81C667-64 688-38 700-26C608 58 579 223 568 346L568 364L568 496L627 496C623 433 618 364 612 320L654 312C664 371 673 470 678 549L646 557L637 555L518 555C524 601 528 649 532 698L477 705C469 574 456 447 417 359L417 426ZM89 801L89 420C89 279 83 92 20-41C35-47 61-63 73-73C141 65 149 272 149 420L149 736L678 736L678 801ZM183 689C204 644 222 583 226 544L277 558C272 597 253 657 231 702Z"/><animate attributeName="opacity" values="0;1;1;0;0" dur="2s" repeatCount="indefinite"/></svg></svg>