<svg id="U52F5" viewBox="0 0 1000 1000"><svg id="U52F5hk" viewBox="0 0 1000 1000"><path transform="translate(0, 900) scale(1,-1)" d="M86 803L86 453C86 312 82 115 31-25C46-30 73-47 85-58C140 88 148 305 148 453L148 743L600 743L600 803ZM183 263L183 239L154 239L154 185L183 185L183-63L240-63L240 185L345 185L345 89L253 79L264 27L464 54C468 38 470 24 471 11L510 21C505 59 487 117 466 161L431 153C438 137 445 119 451 101L398 95L398 185L527 185L527-7C527-15 524-17 515-17C507-17 479-17 447-16C454-31 462-51 464-66C511-66 541-66 560-57C571-52 577-46 580-37C599-46 625-66 637-81C723 66 749 288 758 535L874 535C866 167 855 38 835 10C827-3 818-6 803-6C787-6 751-6 710-2C720-20 727-49 728-69C769-71 809-71 833-68C860-65 877-57 895-33C923 7 931 145 941 568C941 578 941 604 941 604L760 604C761 679 762 756 762 833L695 833C695 756 694 679 693 604L588 604L588 535L691 535C683 308 659 101 582-30C584-24 585-16 585-6L585 239L403 239L403 290L565 290L565 544L189 544L189 290L346 290L346 239L240 239L240 263ZM244 395L346 395L346 338L244 338ZM403 395L510 395L510 338L403 338ZM244 496L346 496L346 441L244 441ZM403 496L510 496L510 441L403 441ZM246 725L246 666L169 666L169 613L246 613L246 566L306 566L306 613L361 613L361 666L306 666L306 725ZM383 666L383 614L442 614L442 566L503 566L503 614L574 614L574 666L503 666L503 725L442 725L442 666Z"/><animate attributeName="opacity" values="1;0;0;1;1" dur="2s" repeatCount="indefinite"/></svg><svg id="U52F5jp" viewBox="0 0 1000 1000"><path transform="translate(0, 900) scale(1,-1)" d="M425 726L425 666L316 666L316 726L260 726L260 666L169 666L169 615L260 615L260 560L316 560L316 615L425 615L425 560L482 560L482 615L585 615L585 666L482 666L482 726ZM88 803L88 456C88 314 83 119 28-19C44-25 71-43 83-54C141 92 150 307 150 456L150 743L600 743L600 803ZM695 833C695 756 695 679 693 604L588 604L588 535L691 535C683 327 659 139 585 8L585 239L403 239L403 290L565 290L565 544L189 544L189 290L346 290L346 239L165 239L165-80L222-80L222 185L345 185L345 90L242 79L252 27L466 56C469 39 472 24 473 11L515 22C510 60 492 119 471 162L433 153C440 137 447 120 452 103L398 96L398 185L527 185L527-4C527-12 524-14 515-14C507-15 479-15 447-14C454-28 462-48 464-63C511-63 541-63 561-54C565-52 568-50 571-47C587-58 603-73 612-85C717 60 748 285 758 535L874 535C865 161 855 30 833 1C824-12 815-15 800-14C782-14 741-14 695-10C707-29 713-57 714-77C759-79 802-80 829-77C857-74 876-66 893-41C923 0 931 140 941 568C941 578 941 604 941 604L760 604C762 679 763 756 763 833ZM244 395L346 395L346 338L244 338ZM403 395L510 395L510 338L403 338ZM244 496L346 496L346 441L244 441ZM403 496L510 496L510 441L403 441Z"/><animate attributeName="opacity" values="0;1;1;0;0" dur="2s" repeatCount="indefinite"/></svg></svg>