<svg id="U5320" viewBox="0 0 1000 1000"><svg id="U5320hk" viewBox="0 0 1000 1000"><path transform="translate(0, 900) scale(1,-1)" d="M308 619L308 405C308 307 298 179 214 87C233 79 264 56 277 43C357 133 377 263 380 369L633 369L633 47L707 47L707 369L900 369L900 436L381 436L381 558C535 563 707 578 825 604L779 665C668 640 470 625 308 619ZM92 22L92-50L942-50L942 22L170 22L170 720L926 720L926 792L92 792Z"/><animate attributeName="opacity" values="1;0;0;1;1" dur="2s" repeatCount="indefinite"/></svg><svg id="U5320jp" viewBox="0 0 1000 1000"><path transform="translate(0, 900) scale(1,-1)" d="M755 671C671 643 521 621 383 607L303 626L303 447C303 353 292 232 217 139C234 129 261 105 270 89C340 173 365 283 371 376L601 376L601 91L672 91L672 376L893 376L893 442L374 442L374 445L374 547C526 559 700 583 814 619ZM93 787L93-82L168-82L168-29L955-29L955 43L168 43L168 716L930 716L930 787Z"/><animate attributeName="opacity" values="0;1;1;0;0" dur="2s" repeatCount="indefinite"/></svg></svg>