<svg id="U531D" viewBox="0 0 1000 1000"><svg id="U531Dhk" viewBox="0 0 1000 1000"><path transform="translate(0, 900) scale(1,-1)" d="M930 786L97 786L97-52L956-52L956 20L171 20L171 713L930 713ZM523 676L523 553L281 553L281 153L354 153L354 487L523 487L523 71L596 71L596 487L773 487L773 239C773 227 769 224 756 223C743 223 703 223 655 224C665 205 675 178 679 158C742 158 785 159 812 170C839 182 846 201 846 237L846 553L596 553L596 676Z"/><animate attributeName="opacity" values="1;0;0;1;1" dur="2s" repeatCount="indefinite"/></svg><svg id="U531Djp" viewBox="0 0 1000 1000"><path transform="translate(0, 900) scale(1,-1)" d="M521 681L521 562L281 562L281 161L354 161L354 496L521 496L521 80L594 80L594 496L773 496L773 247C773 236 769 232 756 232C743 231 703 231 655 233C665 213 675 187 679 167C742 167 785 167 812 179C839 190 846 209 846 246L846 562L594 562L594 681ZM106 781L106-80L180-80L180-23L938-23L938 49L180 49L180 708L912 708L912 781Z"/><animate attributeName="opacity" values="0;1;1;0;0" dur="2s" repeatCount="indefinite"/></svg></svg>