<svg id="U5378" viewBox="0 0 1000 1000"><svg id="U5378hk" viewBox="0 0 1000 1000"><path transform="translate(0, 900) scale(1,-1)" d="M97-19C126-6 170 1 544 52C543 68 543 99 545 120L354 95L354 268L541 268L541 333L354 333L354 454L561 454L561 522L354 522L354 668L539 668L539 735L219 735C231 765 242 796 251 828L182 844C156 744 109 648 49 585C65 575 95 554 107 542C137 577 164 620 189 668L283 668L283 522L44 522L44 454L283 454L283 86L180 73L180 379L113 379L113 96C113 60 89 49 73 44C82 28 94-1 97-19ZM604 780L604-79L677-79L677 709L837 709L837 173C837 159 833 155 819 155C804 154 758 153 707 155C718 134 729 99 732 76C798 76 845 78 874 92C902 105 910 130 910 172L910 780Z"/><animate attributeName="opacity" values="1;0;0;1;1" dur="2s" repeatCount="indefinite"/></svg><svg id="U5378jp" viewBox="0 0 1000 1000"><path transform="translate(0, 900) scale(1,-1)" d="M182 844C156 744 109 648 49 585C65 575 95 554 107 542C137 577 164 620 189 668L271 668L271 522L47 522L47 454L271 454L271 85L174 69L174 378L110 378L110 58L31 46L43-29C175-4 364 28 541 60L537 131L342 97L342 268L508 268L508 333L342 333L342 454L535 454L535 522L342 522L342 668L520 668L520 735L219 735C231 765 242 796 251 828ZM571 780L571-79L645-79L645 709L853 709L853 173C853 159 849 155 835 155C820 154 775 153 723 155C734 134 745 99 748 76C815 76 861 78 890 92C919 105 926 130 926 172L926 780Z"/><animate attributeName="opacity" values="0;1;1;0;0" dur="2s" repeatCount="indefinite"/></svg></svg>