<svg id="U533B" viewBox="0 0 1000 1000"><svg id="U533Bhk" viewBox="0 0 1000 1000"><path transform="translate(0, 900) scale(1,-1)" d="M379 696C347 613 291 534 225 483C243 473 274 455 288 443C316 468 345 499 370 534L526 534L526 412L526 395L232 395L232 328L516 328C494 252 431 174 249 118C265 104 288 76 297 59C460 115 538 190 574 268C666 205 773 121 826 64L877 118C817 178 695 267 602 328L592 318L595 328L913 328L913 395L603 395L603 411L603 534L864 534L864 599L412 599C427 625 439 652 450 679ZM81 787L81 719L129 719L129 145C129 9 198-40 347-40C389-40 697-40 764-40C838-40 910-38 938-32C934-16 927 17 925 38C889 30 814 27 761 27C695 27 407 27 340 27C241 27 204 61 204 140L204 719L948 719L948 787Z"/><animate attributeName="opacity" values="1;0;0;0;0;1;1" dur="3s" repeatCount="indefinite"/></svg><svg id="U533Bjp" viewBox="0 0 1000 1000"><path transform="translate(0, 900) scale(1,-1)" d="M379 697C348 616 291 540 225 490C243 481 274 463 288 452C316 476 344 505 369 538L524 538L524 421L524 417L228 417L228 351L516 351C497 274 432 191 225 135C241 121 262 95 272 79C450 133 533 207 570 284C633 180 733 114 871 81C881 101 901 129 917 144C768 172 662 242 609 351L911 351L911 417L598 417L598 420L598 538L864 538L864 602L412 602C426 627 439 653 450 680ZM95 785L95-79L169-79L169-32L952-32L952 40L169 40L169 713L929 713L929 785Z"/><animate attributeName="opacity" values="0;1;1;0;0;0;0" dur="3s" repeatCount="indefinite"/></svg><svg id="U533Bsc" viewBox="0 0 1000 1000"><path transform="translate(0, 900) scale(1,-1)" d="M931 786L94 786L94-41L954-41L954 30L169 30L169 714L931 714ZM379 693C348 611 291 533 225 483C243 473 274 455 288 443C316 467 343 497 369 531L526 531L526 405L526 388L225 388L225 321L516 321C494 242 427 160 229 102C245 88 266 62 275 45C447 101 530 175 569 253C659 187 763 98 814 41L865 92C805 155 685 250 591 315L593 321L910 321L910 388L601 388L601 405L601 531L864 531L864 596L412 596C426 621 439 648 450 675Z"/><animate attributeName="opacity" values="0;0;0;1;1;0;0" dur="3s" repeatCount="indefinite"/></svg></svg>