<svg id="U53F0" viewBox="0 0 1000 1000"><svg id="U53F0hk" viewBox="0 0 1000 1000"><path transform="translate(0, 900) scale(1,-1)" d="M179 342L179-79L255-79L255-25L741-25L741-77L821-77L821 342ZM255 48L255 270L741 270L741 48ZM126 426C165 441 224 443 800 474C825 443 846 414 861 388L925 434C873 518 756 641 658 727L599 687C647 644 699 591 745 540L231 516C320 598 410 701 490 811L415 844C336 720 219 593 183 559C149 526 124 505 101 500C110 480 122 442 126 426Z"/><animate attributeName="opacity" values="1;0;0;1;1" dur="2s" repeatCount="indefinite"/></svg><svg id="U53F0jp" viewBox="0 0 1000 1000"><path transform="translate(0, 900) scale(1,-1)" d="M181 347L181-80L258-80L258-35L739-35L739-78L819-78L819 347ZM258 37L258 275L739 275L739 37ZM63 533L69 457C254 464 543 476 817 491C847 456 872 423 889 394L954 444C902 527 784 644 682 725L623 682C666 646 712 603 754 560L303 541C358 624 419 726 465 815L382 844C343 750 275 627 214 538Z"/><animate attributeName="opacity" values="0;1;1;0;0" dur="2s" repeatCount="indefinite"/></svg></svg>