<svg id="U543C" viewBox="0 0 1000 1000"><svg id="U543Chk" viewBox="0 0 1000 1000"><path transform="translate(0, 900) scale(1,-1)" d="M701 820L701 52C701-43 720-68 789-68C801-68 861-68 875-68C943-68 959-10 965 155C945 160 917 173 899 187C896 39 893 0 868 0C855 0 810 0 800 0C777 0 773 7 773 50L773 820ZM458 563L458 387L327 347L346 274L458 313L458 11C458-2 454-6 439-7C425-8 379-8 330-6C339-26 350-56 352-76C421-76 466-75 495-64C522-52 531-31 531 10L531 338L660 382L647 449L531 411L531 546C584 604 641 681 679 752L630 785L616 780L347 780L347 712L571 712C540 659 497 601 458 563ZM75 760L75 48L141 48L141 136L307 136L307 760ZM141 694L243 694L243 202L141 202Z"/><animate attributeName="opacity" values="1;0;0;1;1" dur="2s" repeatCount="indefinite"/></svg><svg id="U543Cjp" viewBox="0 0 1000 1000"><path transform="translate(0, 900) scale(1,-1)" d="M689 814L689 55C689-39 708-63 781-63C794-63 867-63 881-63C948-63 965-17 972 122C952 126 924 139 908 152C905 34 901 4 876 4C861 4 804 4 792 4C765 4 761 11 761 54L761 814ZM73 749L73 126L133 126L133 202L306 202L306 350L325 282L452 317L452 6C452-8 448-11 434-12C420-13 375-13 325-12C335-31 347-62 350-81C416-81 459-80 487-68C514-56 523-36 523 5L523 337L680 382L670 450L523 412L523 544C578 600 641 682 681 756L633 787L620 783L326 783L326 714L574 714C546 669 510 620 476 584L452 584L452 393L306 357L306 749ZM133 681L244 681L244 270L133 270Z"/><animate attributeName="opacity" values="0;1;1;0;0" dur="2s" repeatCount="indefinite"/></svg></svg>