<svg id="U54E8" viewBox="0 0 1000 1000"><svg id="U54E8hk" viewBox="0 0 1000 1000"><path transform="translate(0, 900) scale(1,-1)" d="M877 812C852 754 807 673 773 622L835 595C870 645 912 718 946 785ZM398 778C439 720 481 641 496 590L561 623C545 674 501 750 459 807ZM75 748L75 88L145 88L145 166L349 166L349 748ZM145 676L280 676L280 239L145 239ZM489 312L841 312L841 203L489 203ZM489 377L489 484L841 484L841 377ZM633 841L633 555L418 555L418-80L489-80L489 139L841 139L841 15C841 1 836-3 821-4C805-5 753-5 697-3C706-23 716-54 719-74C795-74 844-74 873-61C903-49 912-27 912 14L912 555L705 555L705 841Z"/><animate attributeName="opacity" values="1;0;0;0;0;0;0;1;1" dur="4s" repeatCount="indefinite"/></svg><svg id="U54E8jp" viewBox="0 0 1000 1000"><path transform="translate(0, 900) scale(1,-1)" d="M502 780C468 699 414 618 354 562C372 553 402 532 415 520C473 580 534 672 572 763ZM432 534L432-79L504-79L504 134L833 134L833 6C833-8 829-11 815-12C801-12 756-13 707-11C717-30 728-60 731-80C799-80 842-79 870-68C897-55 906-34 906 6L906 533L868 534L701 534L701 839L629 839L629 534ZM759 757C815 690 877 596 906 533L907 531L972 564C943 626 880 718 819 785ZM833 467L833 367L504 367L504 467ZM504 303L833 303L833 200L504 200ZM74 736L74 100L144 100L144 185L348 185L348 736ZM144 666L277 666L277 255L144 255Z"/><animate attributeName="opacity" values="0;1;1;0;0;0;0;0;0" dur="4s" repeatCount="indefinite"/></svg><svg id="U54E8sc" viewBox="0 0 1000 1000"><path transform="translate(0, 900) scale(1,-1)" d="M383 779C423 718 464 635 479 580L546 609C529 662 488 743 445 803ZM875 811C854 749 814 660 782 605L840 583C875 636 917 718 951 788ZM423 559L423-80L494-80L494 134L834 134L834 7C834-7 829-12 813-13C798-13 747-13 691-11C701-31 713-62 716-82C790-82 839-80 869-69C898-57 907-35 907 6L907 559L698 559L698 839L625 839L625 559ZM834 490L834 381L494 381L494 490ZM494 316L834 316L834 202L494 202ZM74 735L74 103L143 103L143 185L359 185L359 735ZM143 665L288 665L288 256L143 256Z"/><animate attributeName="opacity" values="0;0;0;1;1;0;0;0;0" dur="4s" repeatCount="indefinite"/></svg><svg id="U54E8tc" viewBox="0 0 1000 1000"><path transform="translate(0, 900) scale(1,-1)" d="M877 812C853 754 808 673 773 622L835 595C870 645 913 718 947 785ZM399 778C440 720 481 641 497 590L561 623C545 674 502 750 459 807ZM517 371C607 352 719 312 778 281L808 336C748 366 636 402 547 420ZM499 185L525 120C614 141 729 170 841 198L841 15C841 1 837-4 821-4C805-5 754-5 697-3C707-23 717-54 719-74C796-74 845-74 874-62C904-50 912-27 912 13L912 554L705 554L705 841L634 841L634 554L416 554L416 277C416 178 412 52 360-40C376-48 406-71 418-84C477 17 487 166 487 277L487 488L841 488L841 260C716 231 586 202 499 185ZM75 748L75 88L145 88L145 166L344 166L344 748ZM145 676L280 676L280 239L145 239Z"/><animate attributeName="opacity" values="0;0;0;0;0;1;1;0;0" dur="4s" repeatCount="indefinite"/></svg></svg>