<svg id="U540E" viewBox="0 0 1000 1000"><svg id="U540Ehk" viewBox="0 0 1000 1000"><path transform="translate(0, 900) scale(1,-1)" d="M151 750L151 491C151 336 140 122 32-30C50-40 82-66 95-82C210 81 227 324 227 491L954 491L954 563L227 563L227 687C456 702 711 729 885 771L821 832C667 793 388 764 151 750ZM312 348L312-81L387-81L387-29L802-29L802-79L881-79L881 348ZM387 41L387 278L802 278L802 41Z"/><animate attributeName="opacity" values="1;0;0;1;1" dur="2s" repeatCount="indefinite"/></svg><svg id="U540Ejp" viewBox="0 0 1000 1000"><path transform="translate(0, 900) scale(1,-1)" d="M816 832C680 795 442 766 226 748L149 763L149 482C149 328 138 121 32-31C51-40 80-65 91-81C209 84 224 320 224 481L224 491L963 491L963 563L224 563L224 681C451 697 706 727 879 773ZM312 348L312-81L384-81L384-29L799-29L799-79L875-79L875 348ZM384 41L384 278L799 278L799 41Z"/><animate attributeName="opacity" values="0;1;1;0;0" dur="2s" repeatCount="indefinite"/></svg></svg>