<svg id="U54A6" viewBox="0 0 1000 1000"><svg id="U54A6hk" viewBox="0 0 1000 1000"><path transform="translate(0, 900) scale(1,-1)" d="M410 465C404 397 392 315 381 260L418 260L581 259C551 150 477 47 301-23C318-38 339-65 348-80C511-9 593 90 634 197C687 59 777-36 919-81C929-63 948-34 964-20C814 18 721 119 675 259L853 259C849 195 843 168 836 159C831 153 825 151 816 151C807 151 788 151 764 154C772 140 778 117 779 101C807 99 834 100 849 101C868 103 883 108 894 121C910 140 918 185 924 295C925 304 925 321 925 321L665 321C668 348 671 376 672 403L894 403L894 609L673 609L673 687L937 687L937 752L673 752L673 840L603 840L603 752L359 752L359 687L603 687L603 609L396 609L396 547L603 547L603 469L603 465ZM602 403C601 376 599 348 594 321L459 321L470 403ZM673 547L825 547L825 465L673 465L673 469ZM75 745L75 90L140 90L140 186L318 186L318 745ZM140 675L253 675L253 256L140 256Z"/><animate attributeName="opacity" values="1;0;0;1;1" dur="2s" repeatCount="indefinite"/></svg><svg id="U54A6jp" viewBox="0 0 1000 1000"><path transform="translate(0, 900) scale(1,-1)" d="M72 737L72 115L137 115L137 202L319 202L319 737ZM137 669L254 669L254 270L137 270ZM394 449C384 374 367 277 353 214L417 206L426 248L593 248C570 169 489 44 271-21C284-37 302-64 311-81C528-14 614 119 633 189C654 120 733-15 935-81C944-63 961-35 974-18C771 49 696 170 676 248L871 248C867 183 863 156 856 148C851 141 846 140 838 140C829 140 812 140 791 143C798 128 804 104 806 88C830 86 856 87 871 88C889 90 902 96 913 109C929 128 935 174 940 285C940 293 940 310 940 310L669 310L669 389L896 389L896 599L669 599L669 677L954 677L954 740L669 740L669 836L600 836L600 740L356 740L356 677L600 677L600 599L382 599L382 540L600 540L600 449ZM600 389L600 310L438 310L451 389ZM669 540L826 540L826 449L669 449Z"/><animate attributeName="opacity" values="0;1;1;0;0" dur="2s" repeatCount="indefinite"/></svg></svg>