<svg id="U5461" viewBox="0 0 1000 1000"><path transform="translate(0, 900) scale(1,-1)" d="M74 745L74 90L144 90L144 186L335 186L335 745ZM144 675L264 675L264 256L144 256ZM652 516C654 465 657 417 661 370L494 370L494 516ZM403-86C423-73 454-62 667-7C664 10 663 41 663 62L494 22L494 299L669 299C697 79 761-73 871-73C935-73 961-33 972 106C952 112 926 127 910 143C906 45 898 2 877 2C816 1 767 119 743 299L959 299L959 370L735 370C731 416 729 465 728 516L910 516L910 797L421 797L421 50C421 14 392-2 373-9C385-30 398-66 403-86ZM494 727L836 727L836 585L494 585Z"/></svg>