<svg id="U5412" viewBox="0 0 1000 1000"><svg id="U5412hk" viewBox="0 0 1000 1000"><path transform="translate(0, 900) scale(1,-1)" d="M371 403L371 332L591 332L591 66C591-30 616-57 702-57C720-57 830-57 850-57C932-57 951-8 960 142C939 146 908 160 891 174C887 45 881 14 845 14C821 14 730 14 711 14C673 14 666 22 666 65L666 332L949 332L949 403L666 403L666 700C748 720 826 743 887 769L821 826C723 779 541 737 383 710C392 694 403 666 406 649C466 658 529 670 591 683L591 403ZM76 748L76 75L146 75L146 149L344 149L344 748ZM146 676L274 676L274 222L146 222Z"/><animate attributeName="opacity" values="1;0;0;1;1" dur="2s" repeatCount="indefinite"/></svg><svg id="U5412jp" viewBox="0 0 1000 1000"><path transform="translate(0, 900) scale(1,-1)" d="M362 392L374 321L603 356L603 65C603-31 627-57 713-57C731-57 838-57 857-57C939-57 959-8 967 142C946 146 916 160 898 174C894 45 888 14 852 14C830 14 740 14 722 14C685 14 677 22 677 64L677 367L956 410L944 479L677 439L677 703C755 722 828 744 887 769L821 826C723 779 541 737 383 710C392 694 403 666 406 649C470 659 537 671 603 686L603 428ZM76 748L76 75L146 75L146 149L344 149L344 748ZM146 676L274 676L274 222L146 222Z"/><animate attributeName="opacity" values="0;1;1;0;0" dur="2s" repeatCount="indefinite"/></svg></svg>