<svg id="U55EF" viewBox="0 0 1000 1000"><path transform="translate(0, 900) scale(1,-1)" d="M446 740L820 740L820 370L446 370ZM378 802L378 307L891 307L891 802ZM464 243L464 40C464-33 486-53 574-53C592-53 705-53 724-53C798-53 819-23 826 106C807 111 778 121 762 134C758 26 752 11 716 11C693 11 599 11 581 11C541 11 534 15 534 41L534 243ZM594 255C630 207 668 141 682 99L738 134C724 176 684 238 647 285ZM791 240C836 167 883 68 900 6L958 39C940 99 891 195 845 268ZM367 248C350 174 319 78 279 18L337-18C377 49 405 152 424 228ZM616 708C614 684 612 661 608 639L484 639L484 584L596 584C577 518 541 466 474 431C486 422 503 402 510 389C566 419 603 461 628 512C673 475 723 430 749 399L788 442C758 475 696 527 647 564L653 584L782 584L782 639L664 639C667 661 670 684 672 708ZM74 745L74 90L135 90L135 186L308 186L308 745ZM135 675L246 675L246 256L135 256Z"/></svg>