<svg id="U5542" viewBox="0 0 1000 1000"><svg id="U5542kr" viewBox="0 0 1000 1000"><path transform="translate(0, 900) scale(1,-1)" d="M719 827L719 46C719-46 738-68 800-68C812-68 863-68 876-68C943-68 956-6 962 172C942 176 917 187 900 201C898 43 895 0 871 0C859 0 819 0 808 0C788 0 784 6 784 45L784 827ZM457 690C474 645 489 586 492 547L549 562C546 600 531 659 511 703ZM571 717C607 664 644 592 657 544L710 572C695 619 658 690 621 742ZM73 724L73 103L132 103L132 165L299 165L299 724ZM132 657L239 657L239 232L132 232ZM375 788C361 703 336 617 299 557C314 549 342 532 354 522C384 573 410 647 428 723C516 738 614 760 684 789L631 840C581 816 497 794 418 779ZM480 359L480 264L331 246L343 174L480 193L480-3C480-16 476-19 462-19C449-19 403-20 353-18C362-37 370-63 372-80C441-81 486-80 513-70C539-60 546-41 546-4L546 203L691 225L688 293L546 273L546 318C597 362 655 424 695 482L650 514L637 510L362 510L362 447L586 447C562 416 534 384 507 359Z"/><animate attributeName="opacity" values="1;0;0;1;1" dur="2s" repeatCount="indefinite"/></svg><svg id="U5542sc" viewBox="0 0 1000 1000"><path transform="translate(0, 900) scale(1,-1)" d="M353 676C381 622 405 551 412 503L462 522C454 570 430 640 400 693ZM740 814L740 38C740-46 755-68 817-68C830-68 875-68 887-68C948-68 962-16 967 138C949 143 925 155 909 167C907 25 903-10 883-10C871-10 835-10 827-10C807-10 804-4 804 37L804 814ZM471 703C493 646 509 571 512 523L565 540C562 587 544 662 521 718ZM649 833C575 803 442 776 328 759C336 744 345 721 348 707C467 723 605 749 699 784ZM480 342L480 244L321 221L332 158L480 182L480-6C480-17 476-20 463-21C452-21 410-21 363-19C372-37 379-62 382-79C445-79 488-79 513-68C537-59 543-41 543-6L543 192L707 220L704 278L543 253L543 322C596 363 654 420 695 474L653 505L640 502L618 502C648 560 682 649 710 722L653 745C635 677 599 578 570 519L607 502L343 502L343 443L588 443C557 406 516 368 480 342ZM76 788L76 95L133 95L133 193L290 193L290 788ZM133 726L233 726L233 255L133 255Z"/><animate attributeName="opacity" values="0;1;1;0;0" dur="2s" repeatCount="indefinite"/></svg></svg>