<svg id="U553C" viewBox="0 0 1000 1000"><svg id="U553Chk" viewBox="0 0 1000 1000"><path transform="translate(0, 900) scale(1,-1)" d="M469 635C499 595 529 540 542 507L606 535C593 569 562 621 532 660ZM73 745L73 90L139 90L139 186L316 186L316 745ZM139 675L250 675L250 256L139 256ZM596 831C612 802 628 766 640 735L395 735L395 670L930 670L930 735L729 735C716 769 696 811 676 845ZM784 658C767 612 734 545 707 501L370 501L370 436L950 436L950 501L781 501C806 541 832 592 856 637ZM776 260C753 199 721 149 676 109C623 132 568 153 517 172C536 198 555 228 575 260ZM415 143C478 121 547 94 614 65C549 27 465 2 356-14C369-30 384-57 390-78C519-56 617-21 691 30C771-7 842-45 890-77L944-23C894 8 824 43 748 78C797 126 831 186 855 260L962 260L962 325L873 325L882 372L809 385C805 364 801 344 796 325L612 325C628 354 643 384 655 412L585 426C571 394 554 359 535 325L357 325L357 260L496 260C469 217 441 176 415 143Z"/><animate attributeName="opacity" values="1;0;0;0;0;1;1" dur="3s" repeatCount="indefinite"/></svg><svg id="U553Cjp" viewBox="0 0 1000 1000"><path transform="translate(0, 900) scale(1,-1)" d="M73 734L73 113L138 113L138 198L325 198L325 734ZM138 666L259 666L259 267L138 267ZM347 325L347 260L486 260C460 204 433 150 410 109L475 87L485 105C525 93 566 77 608 61C538 20 445-4 320-18C332-33 345-60 351-81C497-60 605-26 683 29C763-7 837-46 885-81L933-25C885 9 816 45 740 78C784 126 814 186 833 260L954 260L954 325L595 325L645 433L608 440L962 440L962 506L774 506C794 548 818 610 838 664L794 671L923 671L923 736L682 736L682 837L607 837L607 736L381 736L381 671L515 671L469 661C490 611 506 546 512 506L342 506L342 440L567 440L517 325ZM536 671L761 671C749 624 726 557 708 514L751 506L523 506L580 521C575 559 556 622 536 671ZM564 260L758 260C740 197 711 147 669 107C617 128 563 146 514 160Z"/><animate attributeName="opacity" values="0;1;1;0;0;0;0" dur="3s" repeatCount="indefinite"/></svg><svg id="U553Csc" viewBox="0 0 1000 1000"><path transform="translate(0, 900) scale(1,-1)" d="M453 635C482 595 513 540 525 507L590 535C577 569 546 621 515 660ZM73 745L73 90L139 90L139 186L316 186L316 745ZM139 675L250 675L250 256L139 256ZM563 821C581 795 600 764 615 735L382 735L382 670L918 670L918 735L699 735C683 767 658 807 634 837ZM768 658C751 612 718 545 691 501L357 501L357 436L948 436L948 501L765 501C789 541 816 592 840 637ZM761 260C742 198 712 149 670 109C615 131 558 152 503 169C522 196 543 227 563 260ZM398 136C464 117 536 91 605 63C536 23 442-1 320-14C333-30 347-58 353-79C496-58 604-24 682 30C761-6 832-44 879-78L931-20C883 12 816 47 742 79C787 127 818 186 838 260L960 260L960 325L600 325C617 356 633 387 646 417L575 431C561 398 543 361 522 325L344 325L344 260L484 260C455 214 425 171 398 136Z"/><animate attributeName="opacity" values="0;0;0;1;1;0;0" dur="3s" repeatCount="indefinite"/></svg></svg>