<svg id="U5588" viewBox="0 0 1000 1000"><svg id="U5588hk" viewBox="0 0 1000 1000"><path transform="translate(0, 900) scale(1,-1)" d="M73 745L73 90L139 90L139 186L321 186L321 745ZM139 675L255 675L255 256L139 256ZM381 386C400 398 432 409 636 462C632 476 628 503 627 522L462 483L462 641L627 641L627 706L462 706L462 833L388 833L388 504C388 470 372 462 357 457C368 440 378 406 381 386ZM664 834L664 502C664 426 682 405 760 405C775 405 856 405 872 405C935 405 955 435 962 547C942 551 913 563 897 575C894 485 890 470 865 470C848 470 783 470 770 470C742 470 737 475 737 502L737 641L937 641L937 705L737 705L737 834ZM407 332L407-82L481-82L481-43L817-43L817-78L894-78L894 332L642 332L682 405L600 423C593 397 580 362 568 332ZM481 117L817 117L817 18L481 18ZM481 176L481 271L817 271L817 176Z"/><animate attributeName="opacity" values="1;0;0;0;0;1;1" dur="3s" repeatCount="indefinite"/></svg><svg id="U5588jp" viewBox="0 0 1000 1000"><path transform="translate(0, 900) scale(1,-1)" d="M332 460L351 390C435 410 542 433 645 459L639 523L477 489L477 639L635 639L635 701L477 701L477 840L407 840L407 475ZM893 755C855 729 796 694 744 666L744 840L673 840L673 503C673 429 692 410 767 410C782 410 862 410 878 410C938 410 957 437 965 534C944 538 916 549 901 561C899 486 895 473 872 473C855 473 789 473 776 473C749 473 744 477 744 502L744 609C804 633 881 671 941 707ZM415 326L415-80L484-80L484-42L825-42L825-76L897-76L897 326L639 326L678 405L598 423C592 395 580 358 568 326ZM484 114L825 114L825 19L484 19ZM484 173L484 264L825 264L825 173ZM75 734L75 113L138 113L138 201L324 201L324 734ZM138 666L258 666L258 269L138 269Z"/><animate attributeName="opacity" values="0;1;1;0;0;0;0" dur="3s" repeatCount="indefinite"/></svg><svg id="U5588sc" viewBox="0 0 1000 1000"><path transform="translate(0, 900) scale(1,-1)" d="M395 385C413 398 442 409 635 460C632 475 629 502 629 522L476 486L476 641L631 641L631 706L476 706L476 831L403 831L403 514C403 472 379 452 362 443C374 430 389 401 395 385ZM906 760C864 730 799 693 740 665L740 830L667 830L667 507C667 433 686 413 761 413C777 413 855 413 871 413C933 413 953 442 959 554C939 558 910 570 895 581C892 492 888 477 863 477C847 477 784 477 772 477C744 477 740 481 740 508L740 601C807 629 892 670 955 712ZM414 332L414-82L485-82L485-43L821-43L821-78L895-78L895 332L647 332L687 411L605 429C599 402 586 364 574 332ZM485 117L821 117L821 18L485 18ZM485 176L485 271L821 271L821 176ZM74 745L74 90L142 90L142 186L323 186L323 745ZM142 675L255 675L255 256L142 256Z"/><animate attributeName="opacity" values="0;0;0;1;1;0;0" dur="3s" repeatCount="indefinite"/></svg></svg>