<svg id="U5509" viewBox="0 0 1000 1000"><svg id="U5509hk" viewBox="0 0 1000 1000"><path transform="translate(0, 900) scale(1,-1)" d="M670 123C753 63 858-23 910-76L964-25C910 27 803 108 720 165ZM408 552C435 562 477 566 835 590C853 565 868 542 878 522L937 563C902 624 824 719 759 788L704 753C733 722 763 685 791 649L507 633C564 684 621 748 672 814L598 840C546 759 469 680 444 659C422 638 403 623 385 621C394 602 404 567 408 552ZM360 260L360 194L589 194C561 115 493 36 334-25C348-38 370-65 378-81C566-7 639 94 665 194L947 194L947 260L677 260C679 282 680 303 680 324L680 392L902 392L902 458L523 458C536 485 549 512 560 539L491 558C460 476 409 391 353 336C371 327 401 308 414 297C438 323 462 356 485 392L609 392L609 325C609 304 608 282 605 260ZM74 746L74 91L141 91L141 187L323 187L323 746ZM141 676L255 676L255 257L141 257Z"/><animate attributeName="opacity" values="1;0;0;0;0;1;1" dur="3s" repeatCount="indefinite"/></svg><svg id="U5509jp" viewBox="0 0 1000 1000"><path transform="translate(0, 900) scale(1,-1)" d="M72 742L72 142L141 142L141 225L338 225L338 742ZM141 672L268 672L268 296L141 296ZM713 736C741 708 771 676 799 643L539 632C576 689 615 759 648 821L570 840C545 777 502 692 462 629L364 626L371 556C497 562 676 570 850 579C869 554 886 530 897 510L958 549C921 611 839 703 769 770ZM360 260L360 194L593 194C564 115 494 36 324-23C338-37 359-64 367-80C534-20 613 59 651 142C704 31 790-44 921-80C931-60 952-31 968-16C835 14 746 87 700 194L955 194L955 260L680 260C681 279 682 298 682 316L682 392L904 392L904 458L525 458C537 485 548 514 557 542L487 558C460 469 414 380 357 320C375 311 405 291 418 280C444 311 470 349 493 392L611 392L611 318C611 299 610 280 608 260Z"/><animate attributeName="opacity" values="0;1;1;0;0;0;0" dur="3s" repeatCount="indefinite"/></svg><svg id="U5509sc" viewBox="0 0 1000 1000"><path transform="translate(0, 900) scale(1,-1)" d="M408 552C435 562 477 566 835 590C853 565 868 542 878 522L937 563C902 624 824 719 759 788L704 753C733 722 763 685 791 649L504 633C559 684 615 748 664 815L591 840C541 759 466 680 442 659C421 638 402 623 385 621C394 602 404 567 408 552ZM360 260L360 194L589 194C559 115 488 35 322-25C336-38 358-65 366-81C528-21 607 59 646 142C703 34 794-43 922-80C932-61 953-32 969-17C837 13 742 89 691 194L947 194L947 260L677 260C679 282 680 303 680 324L680 392L902 392L902 458L523 458C536 485 549 512 560 539L491 558C460 476 409 391 353 336C371 327 401 308 414 297C438 323 462 356 485 392L609 392L609 326C609 305 608 283 605 260ZM74 745L74 90L142 90L142 186L323 186L323 745ZM142 675L254 675L254 256L142 256Z"/><animate attributeName="opacity" values="0;0;0;1;1;0;0" dur="3s" repeatCount="indefinite"/></svg></svg>