<svg id="U55C6" viewBox="0 0 1000 1000"><svg id="U55C6hk" viewBox="0 0 1000 1000"><path transform="translate(0, 900) scale(1,-1)" d="M531 637L531 582L776 582L776 637ZM73 745L73 90L137 90L137 186L306 186L306 745ZM137 675L243 675L243 256L137 256ZM802 358L802 296L490 296L491 348L491 358ZM802 408L491 408L491 466L802 466ZM480 185L480-80L545-80L545-47L829-47L829-77L896-77L896 185ZM545 11L545 128L829 128L829 11ZM420 523L420 348C420 234 409 77 315-37C332-45 362-66 374-78C446 11 476 132 486 240L870 240L870 523ZM642 845C574 744 449 658 327 607C339 592 360 558 367 543C467 592 572 664 649 749C723 676 836 600 934 554C940 574 953 605 965 622C870 658 754 727 686 794L705 821Z"/><animate attributeName="opacity" values="1;0;0;0;0;1;1" dur="3s" repeatCount="indefinite"/></svg><svg id="U55C6jp" viewBox="0 0 1000 1000"><path transform="translate(0, 900) scale(1,-1)" d="M72 735L72 111L138 111L138 198L320 198L320 554C332 539 345 519 352 504C407 535 461 576 509 619L509 578L777 578L777 624C827 580 881 541 933 512C943 531 960 558 974 575C865 628 746 731 671 838L603 838C549 740 437 630 320 565L320 735ZM138 667L254 667L254 268L138 268ZM410 523L410 377C410 260 394 99 286-18C301-26 329-51 340-65C402 3 437 88 456 173L456-80L523-80L523-47L811-47L811-77L881-77L881 191L460 191L469 243L866 243L866 523ZM523 10L523 135L811 135L811 10ZM477 466L796 466L796 409L477 409ZM474 299L477 358L796 358L796 299ZM640 771C672 726 715 679 763 636L527 636C573 681 613 728 640 771Z"/><animate attributeName="opacity" values="0;1;1;0;0;0;0" dur="3s" repeatCount="indefinite"/></svg><svg id="U55C6sc" viewBox="0 0 1000 1000"><path transform="translate(0, 900) scale(1,-1)" d="M579 654C605 621 636 575 652 547L706 574C690 603 656 648 631 678ZM475 368L784 368L784 301L471 301ZM476 418L476 420L476 481L784 481L784 418ZM471 187L471-80L535-80L535-30L816-30L816-78L883-78L883 187ZM535 28L535 129L816 129L816 28ZM414 535L414 421C414 294 399 117 289-10C306-19 332-42 344-57C414 28 448 140 464 247L848 247L848 535ZM634 850C567 741 443 649 321 593C333 579 352 545 360 530C460 582 563 659 639 748C716 666 832 580 935 529C941 550 955 583 967 601C866 642 747 722 677 798L696 826ZM73 745L73 90L137 90L137 186L301 186L301 745ZM137 675L240 675L240 256L137 256Z"/><animate attributeName="opacity" values="0;0;0;1;1;0;0" dur="3s" repeatCount="indefinite"/></svg></svg>