<svg id="U55FA" viewBox="0 0 1000 1000"><path transform="translate(0, 900) scale(1,-1)" d="M644 544C662 516 679 478 689 448L498 448C513 479 526 510 537 542L471 559C436 452 376 349 305 279L305 767L76 767L76 73L137 73L137 172L305 172L305 266C321 255 342 237 351 227C375 252 399 281 421 313L421-81L490-81L490-34L960-34L960 31L739 31L739 113L927 113L927 170L739 170L739 251L927 251L927 308L739 308L739 386L943 386L943 448L756 448C747 480 724 529 701 564ZM137 704L245 704L245 234L137 234ZM405 794L405 573L927 573L927 794L855 794L855 640L699 640L699 839L628 839L628 640L474 640L474 794ZM490 31L490 113L669 113L669 31ZM490 251L669 251L669 170L490 170ZM490 308L490 386L669 386L669 308Z"/></svg>