<svg id="U55D5" viewBox="0 0 1000 1000"><svg id="U55D5hk" viewBox="0 0 1000 1000"><path transform="translate(0, 900) scale(1,-1)" d="M528 130C565 92 604 37 621 1L678 36C659 72 620 123 582 160ZM655 457C746 410 861 337 918 290L956 337C930 358 892 383 850 408C878 424 910 444 936 465L891 503C869 484 833 457 802 437C764 459 725 480 691 497ZM544 280C558 290 583 300 725 337C723 350 721 375 722 393L605 366L605 515L947 515L947 571L467 571L467 630L899 630L899 682L467 682L467 735L937 735L937 794L398 794L398 502C398 342 387 126 277-27C294-34 325-50 338-62C452 97 467 333 467 502L467 515L542 515L542 409C542 365 524 341 510 331C521 319 539 294 544 280ZM777 312L777 236L480 236L480 175L777 175L777-4C777-16 773-19 761-20C748-21 706-21 656-19C666-37 675-63 678-80C742-80 785-80 811-70C838-60 845-42 845-6L845 175L950 175L950 236L845 236L845 312ZM76 745L76 90L144 90L144 186L326 186L326 745ZM144 675L259 675L259 256L144 256Z"/><animate attributeName="opacity" values="1;0;0;1;1" dur="2s" repeatCount="indefinite"/></svg><svg id="U55D5sc" viewBox="0 0 1000 1000"><path transform="translate(0, 900) scale(1,-1)" d="M528 130C565 92 604 37 621 1L678 36C659 72 620 123 582 160ZM529 682L529 630L893 630L893 682ZM542 281C556 291 581 301 722 339C720 352 719 378 719 396L602 369L602 515L680 515C709 427 760 357 836 312L777 312L777 236L480 236L480 175L777 175L777-4C777-16 773-19 761-20C748-21 706-21 656-19C666-37 675-63 678-80C742-80 785-80 811-70C838-60 845-42 845-6L845 175L950 175L950 236L845 236L845 307C868 294 893 283 921 275C929 293 947 317 962 329C908 342 863 365 826 395C863 414 905 438 939 465L893 503C868 481 826 452 790 431C769 456 753 484 740 515L947 515L947 571L467 571L467 735L937 735L937 794L398 794L398 502C398 342 387 126 277-27C294-34 325-50 338-62C452 97 467 333 467 502L467 515L541 515L541 401C541 364 527 349 515 343C524 328 537 297 542 281ZM76 745L76 90L144 90L144 186L326 186L326 745ZM144 675L259 675L259 256L144 256Z"/><animate attributeName="opacity" values="0;1;1;0;0" dur="2s" repeatCount="indefinite"/></svg></svg>