<svg id="U5646" viewBox="0 0 1000 1000"><svg id="U5646hk" viewBox="0 0 1000 1000"><path transform="translate(0, 900) scale(1,-1)" d="M478 122L776 122L776 177L478 177L478 263L814 263L814 31L478 31ZM409 323L409-77L478-77L478-30L814-30L814-73L885-73L885 323ZM494 746L494 698C494 673 493 644 488 614L422 614C427 656 432 703 436 746ZM660 802L660 746L682 746C677 683 670 606 661 555L770 555C750 498 714 439 645 387L642 415C632 413 617 412 607 412C599 412 574 412 566 412C556 412 555 417 555 440L555 529L520 529L530 556L641 556L641 614L543 614C549 645 550 673 550 698L550 746L638 746L638 802L358 802L358 746L385 746C380 683 373 607 366 556L474 556C453 497 411 436 328 382C341 372 358 354 367 341C431 386 473 436 500 487L500 441C500 381 511 362 563 362C573 362 599 362 608 362C622 362 635 363 645 365C655 357 666 346 672 337C726 379 764 424 790 470L790 434C790 374 801 354 855 354C866 354 905 354 916 354C932 354 949 355 960 359C958 371 956 394 955 408C943 405 926 404 915 404C905 404 868 404 857 404C847 404 845 410 845 433L845 522L815 522L827 555L950 555L950 612L840 612C846 648 848 682 848 711L848 746L943 746L943 802ZM792 746L792 712C792 683 791 649 784 612L716 612C722 654 728 703 732 746ZM76 767L76 73L140 73L140 172L309 172L309 767ZM140 704L248 704L248 234L140 234Z"/><animate attributeName="opacity" values="1;0;0;0;0;0;0;1;1" dur="4s" repeatCount="indefinite"/></svg><svg id="U5646jp" viewBox="0 0 1000 1000"><path transform="translate(0, 900) scale(1,-1)" d="M72 740L72 112L135 112L135 192L306 192L306 740ZM135 672L242 672L242 260L135 260ZM671 764L671 591L650 591L650 535L761 535C736 460 693 401 622 360C635 350 653 329 661 315C717 349 757 392 785 445L785 429C785 384 788 372 801 361C811 350 831 346 847 346C856 346 879 346 889 346C901 346 918 348 927 353C937 357 946 365 951 377C956 388 959 420 960 449C946 453 929 462 917 471C917 443 917 421 914 411C911 403 909 397 904 395C901 394 892 393 885 393C877 393 866 393 860 393C853 393 848 394 845 396C842 400 841 407 841 422L841 535L960 535L960 591L835 591C842 628 847 667 851 708L938 708L938 764L855 764L858 835L800 835L797 764ZM377 764L377 591L330 591L330 535L463 535C438 455 395 391 321 347C334 336 352 316 361 303C434 348 479 410 508 487L508 398L479 386L502 338C549 360 599 385 649 410L637 456L561 421L561 535L626 535L626 591L536 591C543 628 548 667 552 708L630 708L630 764L556 764L559 835L501 835L498 764ZM492 105L823 105L823 18L492 18ZM492 162L492 246L823 246L823 162ZM478 591L433 591L433 708L494 708C491 667 486 627 478 591ZM776 591L727 591L727 708L793 708C790 666 784 627 776 591ZM423 307L423-81L492-81L492-43L823-43L823-77L894-77L894 307Z"/><animate attributeName="opacity" values="0;1;1;0;0;0;0;0;0" dur="4s" repeatCount="indefinite"/></svg><svg id="U5646sc" viewBox="0 0 1000 1000"><path transform="translate(0, 900) scale(1,-1)" d="M476 106L835 106L835 17L476 17ZM476 161L476 244L835 244L835 161ZM409 303L409-80L476-80L476-43L835-43L835-76L903-76L903 303ZM517 342C529 354 550 367 664 422C660 433 653 455 649 470L574 437L574 552L641 552L641 612L543 612C548 643 550 673 550 698L550 746L634 746L634 802L361 802L361 746L492 746L492 699C492 673 491 644 485 612L413 612C418 647 423 686 427 721L371 725C367 669 359 599 350 552L468 552C446 494 401 434 314 382C327 372 345 352 353 338C447 400 497 472 523 541L523 467C523 426 501 403 488 394C498 382 512 357 517 342ZM668 723C663 667 654 597 645 550L764 550C743 490 702 428 624 374C637 364 655 346 664 333C726 380 767 432 794 484L794 411C794 356 806 341 855 341C864 341 899 341 909 341C948 341 963 363 967 452C952 456 930 464 920 474C918 400 915 394 901 394C893 394 867 394 861 394C848 394 846 396 846 412L846 521L811 521L822 550L952 550L952 610L837 610C843 647 845 681 845 711L845 746L940 746L940 802L659 802L659 746L788 746L788 712C788 683 787 648 780 610L708 610C713 645 718 684 722 719ZM76 767L76 73L137 73L137 172L305 172L305 767ZM137 704L245 704L245 234L137 234Z"/><animate attributeName="opacity" values="0;0;0;1;1;0;0;0;0" dur="4s" repeatCount="indefinite"/></svg><svg id="U5646tc" viewBox="0 0 1000 1000"><path transform="translate(0, 900) scale(1,-1)" d="M478 121L814 121L814 31L478 31ZM478 177L478 263L814 263L814 177ZM409 323L409-77L478-77L478-30L814-30L814-73L885-73L885 323ZM492 746L492 698C492 673 491 644 486 614L422 614C427 656 432 703 436 746ZM517 352C529 364 550 377 661 434C658 445 656 468 656 483L575 446L575 556L641 556L641 614L542 614C547 645 548 673 548 698L548 746L638 746L638 802L358 802L358 746L385 746C380 683 373 607 366 556L472 556C452 497 411 436 329 382C342 372 359 355 368 342C454 403 499 474 523 541L523 473C523 429 501 405 487 395C497 385 512 364 517 352ZM788 746L788 712C788 683 787 649 780 612L716 612C722 654 728 703 732 746ZM660 802L660 746L682 746C677 683 670 606 661 555L766 555C745 494 705 431 627 376C640 367 658 350 667 337C727 384 768 435 794 486L794 418C794 366 806 352 854 352C864 352 898 352 907 352C947 352 961 374 966 468C951 472 930 479 920 488C918 408 915 402 900 402C892 402 866 402 860 402C846 402 845 403 845 418L845 524L811 524L822 555L955 555L955 612L836 612C842 648 844 682 844 711L844 746L946 746L946 802ZM76 767L76 73L140 73L140 172L309 172L309 767ZM140 704L248 704L248 234L140 234Z"/><animate attributeName="opacity" values="0;0;0;0;0;1;1;0;0" dur="4s" repeatCount="indefinite"/></svg></svg>