<svg id="U5641" viewBox="0 0 1000 1000"><path transform="translate(0, 900) scale(1,-1)" d="M782 153C834 97 888 18 908-35L968-2C947 51 891 128 838 182ZM392 167C378 97 348 30 292-8L347-47C410-3 438 72 453 150ZM486 182L486 29C486-40 506-58 587-58C603-58 703-58 720-58C782-58 802-35 809 61C790 66 762 75 748 87C746 13 740 5 712 5C691 5 609 5 594 5C558 5 553 8 553 29L553 182ZM72 751L72 112L132 112L132 192L305 192L305 751ZM132 683L244 683L244 260L132 260ZM689 457L689 320L591 320L591 480L440 480L440 580L591 580L591 615L592 733L689 733L689 580L845 580L845 480L689 480ZM537 223C591 187 652 132 680 94L728 138C700 174 644 221 593 256L961 256L961 320L756 320L756 424L909 424L909 636L756 636L756 733L947 733L947 796L343 796L343 733L523 733L523 636L376 636L376 424L523 424L523 320L330 320L330 256L575 256Z"/></svg>