<svg id="U56D3" viewBox="0 0 1000 1000"><svg id="U56D3hk" viewBox="0 0 1000 1000"><path transform="translate(0, 900) scale(1,-1)" d="M329 581L335 524L441 534L441 487L500 487L500 540L608 551L603 549C615 539 632 519 638 505C741 550 771 624 780 746L871 746C867 627 861 582 851 569C846 561 838 560 827 561C815 561 788 561 757 564C765 548 771 524 773 506C806 504 838 504 855 506C878 508 892 514 905 529C923 550 928 612 934 774C935 782 935 801 935 801L631 801L631 746L722 746C715 651 693 592 618 556L617 604L500 594L500 639L596 639L596 693L500 693L500 739L616 739L616 793L500 793L500 841L441 841L441 793L332 793L332 739L441 739L441 693L350 693L350 639L441 639L441 589ZM362 283L362-48L847-48L847-84L906-84L906 281L847 281L847 186L664 186C686 201 705 221 722 243C748 225 776 204 792 188L823 220C805 236 772 260 743 277C749 288 755 300 759 312L959 312L959 367L667 367L667 410L882 410L882 459L667 459L667 500L602 500L602 367L498 367L498 464L434 464L434 367L322 367L322 312L529 312C512 272 481 239 441 214C452 207 471 193 478 186C501 201 522 221 539 243C562 229 587 213 601 200L631 232C614 244 586 262 561 276C567 287 573 299 577 312L710 312C695 271 665 238 625 212C637 206 654 193 662 186L419 186L419 283ZM847 138L847 12L797 12L826 43C807 60 774 84 744 102C750 114 755 126 759 138ZM528 138C511 97 479 64 438 39C449 32 466 19 474 12L419 12L419 138ZM577 138L710 138C694 96 663 63 622 37C632 32 647 20 656 12L476 12C499 27 520 46 538 68C559 52 581 34 594 21L626 50C611 64 584 85 560 100C567 112 573 125 577 138ZM722 68C748 50 777 28 795 12L663 12C685 27 705 46 722 68ZM76 788L76 95L137 95L137 193L305 193L305 788ZM137 726L245 726L245 255L137 255Z"/><animate attributeName="opacity" values="1;0;0;0;0;1;1" dur="3s" repeatCount="indefinite"/></svg><svg id="U56D3jp" viewBox="0 0 1000 1000"><path transform="translate(0, 900) scale(1,-1)" d="M311 362L311 307L364 307L364-80L425-80L425-51L843-51L843-77L905-77L905 307L959 307L959 362L663 362L663 409L861 409L861 458L663 458L663 498L654 498C732 551 761 632 773 739L876 739C872 617 866 571 857 558C850 550 843 549 833 550C821 550 793 550 761 553C770 537 776 512 778 494C811 493 842 493 860 495C882 496 897 503 910 518C927 539 933 602 939 768C940 777 940 794 940 794L628 794L628 739L715 739C703 633 670 557 570 515C579 508 590 495 598 484L598 362L504 362L504 471L440 471L440 362ZM586 625C561 608 527 592 487 578L487 637C535 652 577 670 607 690L565 719C545 706 518 694 487 683L487 734C530 747 569 762 596 779L554 808C537 799 514 789 487 780L487 834L428 834L428 764C387 753 342 745 299 740C311 730 324 712 331 700C363 705 396 711 428 718L428 665C390 655 351 647 313 642C323 632 336 614 342 603C370 607 399 613 428 620L428 560C384 548 338 539 293 533C304 522 318 503 324 492C358 498 393 505 428 514L428 481L487 481L487 531C544 549 595 571 629 595ZM425 307L517 307C503 266 477 233 437 209C448 202 465 188 472 181L425 181ZM425 133L517 133C504 89 475 53 433 28C444 22 460 8 468 1L425 1ZM843 307L843 181L661 181C684 196 703 216 719 239C744 220 771 198 787 183L819 212C801 229 767 255 739 274C744 284 748 296 752 307ZM843 133L843 1L789 1L821 28C803 47 769 74 739 95C745 107 749 120 752 133ZM564 307L704 307C690 266 664 233 624 209C634 202 652 188 659 181L474 181C497 196 516 216 532 238C551 224 572 207 583 194L616 222C601 236 573 257 551 272C556 283 560 295 564 307ZM564 133L705 133C693 88 664 54 620 28C630 22 646 8 654 1L473 1C496 17 516 37 532 60C551 46 571 29 583 16L616 44C601 58 574 80 551 95C557 107 561 120 564 133ZM659 1C683 17 703 37 720 60C745 40 771 17 787 1ZM73 734L73 115L131 115L131 200L293 200L293 734ZM131 666L234 666L234 267L131 267Z"/><animate attributeName="opacity" values="0;1;1;0;0;0;0" dur="3s" repeatCount="indefinite"/></svg><svg id="U56D3sc" viewBox="0 0 1000 1000"><path transform="translate(0, 900) scale(1,-1)" d="M329 595L329 541L441 541L441 487L500 487L500 541L611 541C622 531 633 516 638 505C741 550 771 624 780 746L871 746C867 627 861 582 851 569C846 561 838 560 827 561C815 561 788 561 757 564C765 548 771 524 773 506C806 504 838 504 855 506C878 508 892 514 905 529C923 550 928 612 934 774C935 782 935 801 935 801L631 801L631 746L722 746C715 649 693 590 613 553L613 595L500 595L500 640L601 640L601 694L500 694L500 739L612 739L612 793L500 793L500 841L441 841L441 793L328 793L328 739L441 739L441 694L342 694L342 640L441 640L441 595ZM362 283L362-48L847-48L847-84L906-84L906 281L847 281L847 186L664 186C686 201 705 221 722 243C748 225 776 204 792 188L823 220C805 236 772 260 743 277C749 288 755 300 759 312L959 312L959 367L667 367L667 410L882 410L882 459L667 459L667 500L602 500L602 367L498 367L498 464L434 464L434 367L322 367L322 312L529 312C512 272 481 239 441 214C452 207 471 193 478 186C501 201 522 221 539 243C562 229 587 213 601 200L631 232C614 244 586 262 561 276C567 287 573 299 577 312L710 312C695 271 665 238 625 212C637 206 654 193 662 186L419 186L419 283ZM847 138L847 12L797 12L826 43C807 60 774 84 744 102C750 114 755 126 759 138ZM528 138C511 97 479 64 438 39C449 32 466 19 474 12L419 12L419 138ZM577 138L710 138C694 96 663 63 622 37C632 32 647 20 656 12L476 12C499 27 520 46 538 68C559 52 581 34 594 21L626 50C611 64 584 85 560 100C567 112 573 125 577 138ZM722 68C748 50 777 28 795 12L663 12C685 27 705 46 722 68ZM76 788L76 95L137 95L137 193L305 193L305 788ZM137 726L245 726L245 255L137 255Z"/><animate attributeName="opacity" values="0;0;0;1;1;0;0" dur="3s" repeatCount="indefinite"/></svg></svg>