<svg id="U5683" viewBox="0 0 1000 1000"><svg id="U5683hk" viewBox="0 0 1000 1000"><path transform="translate(0, 900) scale(1,-1)" d="M693 541L693 52L755 52L755 541ZM806 748L885 748L885 622L806 622ZM683 748L761 748L761 622L683 622ZM563 748L637 748L637 622L563 622ZM507 800L507 569L943 569L943 800ZM488 155L513 95C568 149 628 212 686 273L658 326C595 259 531 195 488 155ZM516 486C546 437 582 372 601 332L652 364C634 401 597 465 565 512ZM896 527C871 480 824 412 793 373L832 336C866 374 909 434 944 485ZM758 292C813 234 884 158 925 106L972 147C930 197 863 269 805 327ZM327 812C357 762 393 693 409 650L468 676C450 717 415 782 384 832ZM78 767L78 61L138 61L138 158L295 158L295 767ZM138 704L236 704L236 221L138 221ZM339 294C346 301 371 308 391 308L428 308C399 151 339 34 257-33C270-42 293-66 303-80C349-41 389 13 421 82C488-37 595-61 751-61C820-61 900-59 960-55C963-36 972-4 981 12C915 5 821 3 754 3C611 3 503 22 447 145C469 206 486 277 497 356L469 371L457 369L403 369C434 438 474 549 495 605L450 618L435 611L320 611L320 549L413 549C392 486 362 402 350 383C340 364 327 359 314 354C321 341 335 310 339 294Z"/><animate attributeName="opacity" values="1;0;0;1;1" dur="2s" repeatCount="indefinite"/></svg><svg id="U5683sc" viewBox="0 0 1000 1000"><path transform="translate(0, 900) scale(1,-1)" d="M782 510C824 459 873 387 894 342L947 375C925 420 877 488 832 539ZM799 748L880 748L880 622L799 622ZM670 748L750 748L750 622L670 622ZM545 748L621 748L621 622L545 622ZM586 532C562 472 522 412 476 371C491 362 516 344 527 334C572 379 618 450 645 518ZM596 334C572 269 528 207 476 164C489 153 511 128 519 116C577 165 628 243 658 321ZM775 310C819 252 871 172 894 122L948 156C924 206 872 282 825 340ZM318 775C352 729 392 665 412 625L461 661C441 699 400 760 365 806ZM82 741L82 109L139 109L139 204L285 204L285 741ZM139 672L227 672L227 273L139 273ZM489 800L489 569L677 569L677 60L742 60L742 569L938 569L938 800ZM455 454L311 454L311 394L394 394L394 104C358 92 318 52 280 4L322-57C354-3 391 48 414 48C433 48 459 22 492 0C546-35 610-46 700-46C771-46 894-42 954-38C955-19 964 14 972 33C895 23 776 18 701 18C618 18 554 27 505 58C484 71 468 83 455 92Z"/><animate attributeName="opacity" values="0;1;1;0;0" dur="2s" repeatCount="indefinite"/></svg></svg>