<svg id="U5630" viewBox="0 0 1000 1000"><svg id="U5630hk" viewBox="0 0 1000 1000"><path transform="translate(0, 900) scale(1,-1)" d="M579 833C585 640 598 466 623 323L327 323L327 262L404 262L404 246C404 162 379 49 264-35C278-44 303-68 313-82C403-14 444 74 460 155C499 121 539 83 562 58L609 103C578 137 518 188 469 226L469 244L469 262L634 262C649 191 668 129 692 79C638 36 575 0 504-27C518-39 537-61 545-74C610-48 669-15 722 24C762-38 814-75 880-79C920-82 951-46 971 66C958 72 933 89 920 103C911 30 899-8 878-6C838-2 803 23 774 67C825 114 867 168 897 228L833 252C811 206 781 164 743 125C727 164 712 209 700 262L942 262L942 323L858 323L885 351C862 372 817 403 781 423L743 387C772 369 807 344 831 323L688 323C662 461 648 636 643 833ZM708 407C717 411 731 415 781 423L892 438L904 396L952 414C943 451 920 515 896 563L851 549C859 530 868 507 876 485L772 473C824 535 877 616 921 698L864 720C854 697 843 674 831 652L758 645C788 689 819 746 842 803L789 821C766 754 725 683 714 666C703 647 691 636 680 634C686 619 695 591 698 579C707 584 726 589 801 600C775 556 750 522 739 508C721 483 706 467 690 464C697 448 705 418 708 407ZM348 387C362 395 386 399 530 419L540 379L590 396C581 433 560 497 538 545L491 532C499 512 508 489 515 467L414 455C467 515 521 596 567 677L514 697C504 676 492 654 480 633L400 624C435 674 471 737 500 800L446 818C420 744 373 668 360 649C346 629 333 616 321 613C328 598 337 571 339 559C349 564 368 569 449 581C420 536 394 500 382 487C363 462 346 445 330 442C338 428 346 399 348 387ZM76 767L76 73L137 73L137 172L301 172L301 767ZM137 704L240 704L240 234L137 234Z"/><animate attributeName="opacity" values="1;0;0;0;0;1;1" dur="3s" repeatCount="indefinite"/></svg><svg id="U5630jp" viewBox="0 0 1000 1000"><path transform="translate(0, 900) scale(1,-1)" d="M71 734L71 110L132 110L132 191L293 191L293 734ZM132 671L231 671L231 256L132 256ZM579 833C585 642 598 469 622 327L354 327L354 235C354 154 339 47 253-36C267-44 293-68 303-81C375-12 405 79 415 161C463 127 517 85 545 56L592 103C557 138 488 187 433 220L418 206L419 233L419 267L633 267C648 195 667 132 691 80C633 34 564-4 486-32C500-44 518-67 527-80C598-52 664-17 721 25C762-38 814-75 880-79C920-82 951-46 971 66C958 72 933 89 920 103C911 30 899-8 878-6C837-2 802 24 773 68C825 115 867 168 898 228L833 252C811 207 780 165 743 126C726 166 711 213 699 267L948 267L948 327L860 327L884 352C863 374 821 403 786 422L898 433C904 419 908 405 911 393L959 416C951 454 923 513 894 559L849 539C859 522 869 503 878 483L774 476C821 543 873 631 915 705L858 729C842 695 821 654 799 613C786 628 770 643 753 658C779 700 811 759 838 810L777 831C763 790 737 732 713 689L692 704L663 662C700 634 744 595 770 564C750 531 730 499 711 473L676 471L688 413L776 421L743 390C772 372 807 348 831 327L687 327C662 465 648 638 643 833ZM504 726C489 692 470 652 449 611C437 626 420 642 402 658C428 699 459 758 485 809L424 830C411 789 386 732 364 689L340 706L311 663C350 633 395 592 421 560C399 521 377 483 356 452L306 448L317 390L541 420L550 387L599 410C590 449 564 511 536 557L490 538C502 517 513 493 523 469L419 458C467 530 520 626 561 703Z"/><animate attributeName="opacity" values="0;1;1;0;0;0;0" dur="3s" repeatCount="indefinite"/></svg><svg id="U5630sc" viewBox="0 0 1000 1000"><path transform="translate(0, 900) scale(1,-1)" d="M579 833C585 640 598 466 623 323L470 323L470 383L405 383L405 323L327 323L327 262L404 262C398 168 365 56 254-30C268-39 293-63 302-77C388-10 432 75 453 159C494 124 536 84 560 58L607 103C576 137 515 188 466 226L469 262L634 262C649 191 668 129 692 79C638 36 575 0 504-27C518-39 537-61 545-74C610-48 669-15 722 24C762-38 814-75 880-79C920-82 951-46 971 66C958 72 933 89 920 103C911 30 899-8 878-6C838-2 803 23 774 67C825 114 867 168 897 228L833 252C811 206 781 164 743 125C727 164 712 209 700 262L942 262L942 323L858 323L885 351C862 372 817 403 781 423L743 387C772 369 807 344 831 323L688 323C662 461 648 636 643 833ZM708 407C717 411 731 415 781 423L892 438L904 396L952 414C943 451 920 515 896 563L851 549C859 530 868 507 876 485L772 473C824 535 877 616 921 698L864 720C854 697 843 674 831 652L758 645C788 689 819 746 842 803L789 821C766 754 725 683 714 666C703 647 691 636 680 634C686 619 695 591 698 579C707 584 726 589 801 600C775 556 750 522 739 508C721 483 706 467 690 464C697 448 705 418 708 407ZM348 387C362 395 386 399 530 419L540 379L590 396C581 433 560 497 538 545L491 532C499 512 508 489 515 467L414 455C467 515 521 596 567 677L514 697C504 676 492 654 480 633L400 624C435 674 471 737 500 800L446 818C420 744 373 668 360 649C346 629 333 616 321 613C328 598 337 571 339 559C349 564 368 569 449 581C420 536 394 500 382 487C363 462 346 445 330 442C338 428 346 399 348 387ZM76 767L76 73L137 73L137 172L301 172L301 767ZM137 704L240 704L240 234L137 234Z"/><animate attributeName="opacity" values="0;0;0;1;1;0;0" dur="3s" repeatCount="indefinite"/></svg></svg>