<svg id="U5688" viewBox="0 0 1000 1000"><path transform="translate(0, 900) scale(1,-1)" d="M486 535L618 535L618 483L486 483ZM486 631L618 631L618 580L486 580ZM430 677L430 436L676 436L676 677ZM859 659C884 613 909 554 916 515L964 535C956 572 931 631 904 675ZM67 742L67 133L124 133L124 221L268 221L268 742ZM124 678L209 678L209 286L124 286ZM321 793L321 489C321 330 314 113 221-42C235-49 263-66 275-76C370 86 384 324 384 489L384 730L957 730L957 793ZM794 705C793 625 793 548 790 474L703 474L703 414L788 414C778 223 753 61 683-41C697-50 719-67 729-80C780-5 809 95 826 214C846 91 876-13 927-82C937-67 956-47 971-36C899 53 869 223 854 414L961 414L961 474L846 474C849 548 850 625 850 705ZM476 212L629 212L629 148L476 148ZM476 261L476 323L629 323L629 261ZM416 378L416-80L476-80L476 93L629 93L629-2C629-11 627-13 617-14C608-14 581-14 550-14C557-29 566-52 568-67C615-68 644-67 665-57C685-48 689-32 689-3L689 378Z"/></svg>