<svg id="U56BD" viewBox="0 0 1000 1000"><svg id="U56BDhk" viewBox="0 0 1000 1000"><path transform="translate(0, 900) scale(1,-1)" d="M532 62C481 29 388-9 304-30C319-43 338-65 347-80C433-56 528-18 589 24ZM690 17C772-11 859-48 910-77L961-29C905 0 813 36 730 62ZM457 258L815 258L815 206L457 206ZM457 165L815 165L815 112L457 112ZM457 349L815 349L815 299L457 299ZM389 396L389 66L885 66L885 396ZM450 656L466 617L327 617L327 572L417 572C403 514 371 462 307 430C321 420 338 402 346 388C398 416 432 453 454 497L588 497C583 468 578 454 572 448C566 442 560 442 548 442C537 442 505 442 472 445C478 434 483 418 484 406C517 404 550 404 566 404C587 405 602 409 614 419C629 431 637 459 645 517C646 524 647 539 647 539L472 539L481 572L648 572L648 617L530 617C524 633 514 654 505 670L631 670L631 714L525 714L525 748L652 748L652 791L525 791L525 840L461 840L461 791L338 791L338 748L461 748L461 714L349 714L349 670L500 670ZM744 689L849 689C839 645 823 607 801 574C776 607 757 645 743 686ZM735 841C717 765 684 692 640 642C653 629 673 600 680 588C691 600 701 614 711 629C726 593 745 560 767 530C735 496 694 469 645 449C657 437 675 413 681 400C729 423 771 451 805 486C840 452 881 424 928 405C937 421 953 442 967 453C919 470 876 496 841 529C873 573 897 626 911 689L960 689L960 743L768 743C778 770 788 797 795 825ZM75 741L75 109L137 109L137 204L299 204L299 741ZM137 672L240 672L240 273L137 273Z"/><animate attributeName="opacity" values="1;0;0;1;1" dur="2s" repeatCount="indefinite"/></svg><svg id="U56BDsc" viewBox="0 0 1000 1000"><path transform="translate(0, 900) scale(1,-1)" d="M532 62C481 29 388-9 304-30C319-43 338-65 347-80C433-56 528-18 588 24ZM690 17C771-11 858-48 909-77L960-29C904 0 812 36 729 62ZM456 258L814 258L814 206L456 206ZM456 165L814 165L814 112L456 112ZM456 349L814 349L814 299L456 299ZM389 396L389 66L883 66L883 396ZM459 840L459 790L338 790L338 746L459 746L459 706L349 706L349 660L459 660L459 618L327 618L327 573L429 573C413 512 380 459 314 425C327 416 345 398 352 384C406 413 441 451 464 496L587 496C582 467 577 452 571 446C566 441 560 440 548 440C538 440 510 440 481 443C487 431 492 412 493 399C523 397 553 397 568 398C588 399 601 403 612 413C628 427 636 457 644 517C645 525 647 540 647 540L482 540L491 573L648 573L648 618L523 618L523 660L629 660L629 706L523 706L523 746L650 746L650 790L523 790L523 840ZM737 841C719 766 686 695 642 645C654 632 673 604 680 592C690 604 700 618 710 633C726 595 745 559 768 528C736 495 696 470 649 450C661 439 678 413 684 400C731 422 772 450 806 484C840 449 879 422 924 403C933 419 949 442 963 453C917 470 877 495 844 528C875 572 899 625 913 689L956 689L956 743L766 743C776 770 785 797 793 825ZM853 689C843 644 826 605 804 572C778 607 758 646 743 689ZM74 741L74 109L135 109L135 204L298 204L298 741ZM135 672L241 672L241 273L135 273Z"/><animate attributeName="opacity" values="0;1;1;0;0" dur="2s" repeatCount="indefinite"/></svg></svg>