<svg id="U562C" viewBox="0 0 1000 1000"><svg id="U562Chk" viewBox="0 0 1000 1000"><path transform="translate(0, 900) scale(1,-1)" d="M517 696L517 646L770 646L770 696ZM517 589L517 539L771 539L771 589ZM407 812L407 516L472 516L472 756L816 756L816 516L883 516L883 812ZM308 61L320-1L567 48L567-79L627-79L627 405L961 405L961 466L323 466L323 405L382 405L382 73ZM441 405L567 405L567 335L441 335ZM441 285L567 285L567 212L441 212ZM862 285C848 229 828 179 802 136C775 181 753 231 736 285ZM650 344L650 285L676 285C697 209 726 140 764 81C726 33 679-3 628-26C642-39 659-63 666-79C718-53 764-18 803 27C840-16 882-52 930-78C939-62 959-38 974-25C924-1 880 35 843 80C887 147 919 231 936 336L897 346L884 344ZM441 161L567 161L567 105L441 83ZM76 767L76 73L140 73L140 172L297 172L297 767ZM140 704L235 704L235 234L140 234Z"/><animate attributeName="opacity" values="1;0;0;0;0;1;1" dur="3s" repeatCount="indefinite"/></svg><svg id="U562Cjp" viewBox="0 0 1000 1000"><path transform="translate(0, 900) scale(1,-1)" d="M477 641L811 641L811 572L477 572ZM477 759L811 759L811 691L477 691ZM408 812L408 518L883 518L883 812ZM72 741L72 121L133 121L133 206L304 206L304 741ZM133 673L243 673L243 274L133 274ZM302 58L312-7L565 26L565-80L629-80L629 402L961 402L961 463L323 463L323 402L382 402L382 65ZM445 402L565 402L565 332L445 332ZM445 278L565 278L565 206L445 206ZM730 273L674 259C694 190 723 127 759 73C722 29 678-6 629-28C642-40 659-65 666-80C716-55 761-22 800 21C837-21 881-56 930-80C940-64 959-39 974-27C923-5 877 29 839 72C885 140 918 226 936 333L897 343L884 341L650 341L650 281L861 281C847 222 825 170 797 126C768 170 746 220 730 273ZM445 152L565 152L565 85L445 72Z"/><animate attributeName="opacity" values="0;1;1;0;0;0;0" dur="3s" repeatCount="indefinite"/></svg><svg id="U562Csc" viewBox="0 0 1000 1000"><path transform="translate(0, 900) scale(1,-1)" d="M477 639L815 639L815 571L477 571ZM477 758L815 758L815 690L477 690ZM408 811L408 517L887 517L887 811ZM303 56L315-9L565 40L565-80L629-80L629 52L671 61L666 118L629 111L629 402L963 402L963 463L322 463L322 402L382 402L382 69ZM445 402L565 402L565 335L445 335ZM445 282L565 282L565 210L445 210ZM865 281C850 223 829 172 802 129C773 174 750 226 733 281ZM650 341L650 281L682 281L674 279C695 203 725 134 764 75C726 29 681-5 632-28C645-40 661-64 669-79C719-54 764-20 803 23C840-20 882-55 930-80C939-63 959-39 974-26C924-3 880 31 843 75C887 142 920 227 938 333L899 343L887 341ZM445 156L565 156L565 100L445 79ZM71 767L71 73L134 73L134 172L295 172L295 767ZM134 704L233 704L233 234L134 234Z"/><animate attributeName="opacity" values="0;0;0;1;1;0;0" dur="3s" repeatCount="indefinite"/></svg></svg>