<svg id="U56F5" viewBox="0 0 1000 1000"><path transform="translate(0, 900) scale(1,-1)" d="M627 435C574 397 486 357 399 325L399 438L330 438L330 186C330 109 355 88 449 88C468 88 598 88 619 88C701 88 722 121 731 257C712 262 683 273 667 285C662 170 656 154 613 154C585 154 476 154 454 154C407 154 399 159 399 187L399 265C499 298 608 341 685 387ZM484 725C418 620 293 523 166 469C185 455 205 433 217 417C320 465 418 538 492 623C579 526 673 465 772 414C782 433 803 455 821 469C718 516 618 574 530 671L550 701ZM82 799L82-79L153-79L153-29L846-29L846-79L920-79L920 799ZM153 38L153 733L846 733L846 38Z"/></svg>