<svg id="U57C7" viewBox="0 0 1000 1000"><path transform="translate(0, 900) scale(1,-1)" d="M392 544L392-81L463-81L463 129L620 129L620-64L691-64L691 129L850 129L850 2C850-10 846-14 834-15C822-15 783-15 739-14C749-32 758-62 761-81C825-81 865-80 890-68C916-57 923-36 923 1L923 544L778 544L790 561C769 577 740 594 708 612C784 656 863 714 919 771L870 808L855 804L398 804L398 740L785 740C744 706 692 672 643 646C606 664 569 680 535 694L497 644C559 618 633 579 690 544ZM620 305L620 194L463 194L463 305ZM691 305L850 305L850 194L691 194ZM620 368L463 368L463 478L620 478ZM691 368L691 478L850 478L850 368ZM33 162L60 88C149 124 264 174 373 221L358 290L239 241L239 517L350 517L350 589L239 589L239 826L166 826L166 589L50 589L50 517L166 517L166 212C116 193 70 175 33 162Z"/></svg>