<svg id="U5764" viewBox="0 0 1000 1000"><path transform="translate(0, 900) scale(1,-1)" d="M461 422L616 422L616 272L461 272ZM461 490L461 636L616 636L616 490ZM843 422L843 272L688 272L688 422ZM843 490L688 490L688 636L843 636ZM616 839L616 706L392 706L392 148L461 148L461 202L616 202L616-80L688-80L688 202L843 202L843 153L915 153L915 706L688 706L688 839ZM34 163L64 88C150 125 259 175 362 223L346 290L239 245L239 528L351 528L351 599L239 599L239 828L165 828L165 599L44 599L44 528L165 528L165 214C116 194 71 176 34 163Z"/></svg>