<svg id="U58E7" viewBox="0 0 1000 1000"><svg id="U58E7hk" viewBox="0 0 1000 1000"><path transform="translate(0, 900) scale(1,-1)" d="M441 763L548 763L548 676L441 676ZM385 816L385 622L605 622L605 816ZM716 763L825 763L825 676L716 676ZM661 816L661 622L882 622L882 816ZM39 168L71 94L317 207L302 273L217 238L217 536L308 536L308 608L217 608L217 829L152 829L152 608L49 608L49 536L152 536L152 212ZM724 513C706 401 674 292 626 218L626 321L674 321L674 373L551 373L551 431L636 431L636 479L411 479L411 431L495 431L495 373L387 373L387 529L954 529L954 588L325 588L325 357C325 312 324 260 317 207C306 122 281 33 227-39C241-47 267-69 276-81C363 31 384 195 387 321L418 321L418 45L361 39L380-19L571 11L571-77L626-77L626 215C641 206 665 188 675 178C686 195 696 214 705 234C720 178 739 126 764 81C731 31 688-8 633-39C646-50 667-72 675-83C724-52 764-16 796 28C829-18 869-55 917-81C925-65 944-42 958-30C907-5 864 33 831 82C869 152 892 238 905 342L952 342L952 399L761 399C769 433 777 467 783 502ZM745 342L846 342C838 265 822 198 797 141C771 195 752 256 739 322ZM469 51L469 115L571 115L571 63ZM469 218L571 218L571 160L469 160ZM469 263L469 321L571 321L571 263Z"/><animate attributeName="opacity" values="1;0;0;1;1" dur="2s" repeatCount="indefinite"/></svg><svg id="U58E7sc" viewBox="0 0 1000 1000"><path transform="translate(0, 900) scale(1,-1)" d="M394 746L533 746L533 666L394 666ZM331 796L331 616L598 616L598 796ZM716 746L859 746L859 666L716 666ZM654 796L654 616L924 616L924 796ZM300 572L300 381C300 262 292 93 230-31C245-38 273-58 285-71C354 63 365 252 365 381L365 514L963 514L963 572ZM349 35L362-21L585 3L585-80L644-80L644 10L689 15L687 66L644 62L644 315L685 315L685 364L615 364C627 394 638 427 648 463L609 474L599 471L403 471L403 421L577 421C571 402 563 382 555 364L373 364L373 315L409 315L409 40ZM467 213L585 213L585 155L467 155ZM467 258L467 315L585 315L585 258ZM467 110L585 110L585 56L467 45ZM764 340L868 340C858 266 840 202 815 146C787 204 769 265 758 322ZM744 511C727 404 698 297 654 225C667 213 687 188 695 177C706 196 717 217 727 240C740 191 759 139 784 89C751 37 707-6 652-39C664-48 685-69 692-80C741-48 782-9 815 37C846-10 886-53 935-84C943-68 962-43 975-31C921-2 879 41 847 89C885 158 910 241 924 340L958 340L958 396L779 396C788 430 796 465 802 500ZM36 129L59 54C124 92 202 138 277 183L261 251L189 211L189 525L272 525L272 596L189 596L189 828L131 828L131 596L50 596L50 525L131 525L131 179C95 159 63 142 36 129Z"/><animate attributeName="opacity" values="0;1;1;0;0" dur="2s" repeatCount="indefinite"/></svg></svg>