<svg id="U5840" viewBox="0 0 1000 1000"><svg id="U5840hk" viewBox="0 0 1000 1000"><path transform="translate(0, 900) scale(1,-1)" d="M766 355L766 225L631 225L631 244L631 355ZM805 549C794 511 772 455 754 419L585 419L640 437C631 470 606 519 580 554L521 535C544 499 568 451 575 419L470 419L470 355L564 355L564 245L564 225L448 225L448 159L558 159C546 90 513 21 426-33C441-45 464-70 473-85C580-18 616 69 627 159L766 159L766-80L835-80L835 159L957 159L957 225L835 225L835 355L946 355L946 419L820 419C838 451 858 491 876 528ZM365 804L365 424C365 278 354 93 240-35C256-44 286-66 297-79C418 56 435 266 435 424L435 562L918 562L918 804ZM435 739L846 739L846 628L435 628ZM34 163L63 88C141 123 239 170 331 215L316 281L226 242L226 528L323 528L323 599L226 599L226 828L158 828L158 599L51 599L51 528L158 528L158 213C111 193 68 176 34 163Z"/><animate attributeName="opacity" values="1;0;0;0;0;1;1" dur="3s" repeatCount="indefinite"/></svg><svg id="U5840jp" viewBox="0 0 1000 1000"><path transform="translate(0, 900) scale(1,-1)" d="M766 355L766 225L631 225L631 244L631 355ZM365 804L365 424C365 278 354 93 240-35C256-44 286-66 297-79C418 56 435 266 435 424L435 562L808 562C796 522 774 467 756 431L791 419L610 419L644 431C634 466 607 518 579 556L521 536C545 501 568 453 578 419L470 419L470 355L564 355L564 245L564 225L448 225L448 159L558 159C546 90 513 21 426-33C441-45 464-70 473-85C580-18 616 69 627 159L766 159L766-80L835-80L835 159L957 159L957 225L835 225L835 355L946 355L946 419L815 419C835 453 857 500 879 544L819 562L918 562L918 804ZM33 158L58 82C141 112 245 154 344 194L331 261L235 227L235 525L334 525L334 596L235 596L235 828L164 828L164 596L52 596L52 525L164 525L164 202C115 184 69 169 33 158ZM435 739L846 739L846 628L435 628Z"/><animate attributeName="opacity" values="0;1;1;0;0;0;0" dur="3s" repeatCount="indefinite"/></svg><svg id="U5840kr" viewBox="0 0 1000 1000"><path transform="translate(0, 900) scale(1,-1)" d="M537 209L413 177L437 111L527 138C514 76 485 14 425-39C440-50 464-71 475-86C555-14 586 74 598 160L689 188L689 138L781 138L781-81L849-81L849 138L961 138L961 205L849 205L849 357L948 357L948 420L852 420C872 456 895 499 914 538L847 558C833 518 809 462 785 420L706 420L706 357L781 357L781 205L697 205L692 250L603 226L604 266L604 357L686 357L686 420L608 420C627 455 647 498 665 537L598 557C586 518 564 462 543 420L453 420L453 357L539 357L539 267ZM365 804L365 440C365 290 355 96 243-38C259-46 290-68 301-80C361-8 394 83 413 177C431 268 435 361 435 439L435 562L918 562L918 804ZM435 739L846 739L846 628L435 628ZM33 158L60 82C141 114 246 155 345 195L330 264L233 228L233 525L334 525L334 596L233 596L233 828L163 828L163 596L52 596L52 525L163 525L163 203C114 185 69 170 33 158Z"/><animate attributeName="opacity" values="0;0;0;1;1;0;0" dur="3s" repeatCount="indefinite"/></svg></svg>