<svg id="U5802" viewBox="0 0 1000 1000"><path transform="translate(0, 900) scale(1,-1)" d="M295 472L706 472L706 361L295 361ZM225 533L225 301L461 301L461 201L152 201L152 135L461 135L461 14L66 14L66-52L937-52L937 14L536 14L536 135L862 135L862 201L536 201L536 301L780 301L780 533ZM768 833C747 792 707 734 676 696L722 679L536 679L536 841L461 841L461 679L284 679L323 696C305 734 267 788 231 829L165 802C195 765 228 716 246 679L72 679L72 461L142 461L142 613L858 613L858 461L931 461L931 679L744 679C775 712 813 761 845 806Z"/></svg>