<svg id="U59C0" viewBox="0 0 1000 1000"><svg id="U59C0hk" viewBox="0 0 1000 1000"><path transform="translate(0, 900) scale(1,-1)" d="M871 827C771 785 595 754 445 737C453 719 463 692 465 674C523 680 585 688 646 698L646 536L430 536L430 466L622 466C576 327 489 180 402 99C416 80 436 48 445 25C521 100 594 226 646 355L646-80L719-80L719 345C773 220 844 102 918 32C931 51 955 78 972 91C880 167 786 319 733 466L958 466L958 536L719 536L719 711C792 725 860 743 914 764ZM35 609L44 540L122 545C105 449 84 359 65 292C111 253 163 207 211 161C171 94 113 29 31-29C48-41 73-65 84-81C165-24 223 41 265 107C297 74 326 42 346 16L393 73C371 102 338 136 301 173C364 306 373 446 373 561L435 565L436 629L373 626L373 698L303 698L303 622L205 617C217 691 228 766 235 832L163 836C157 768 147 691 134 613ZM142 314C159 382 177 464 193 549L303 556C303 458 295 340 245 225C211 256 175 286 142 314Z"/><animate attributeName="opacity" values="1;0;0;1;1" dur="2s" repeatCount="indefinite"/></svg><svg id="U59C0sc" viewBox="0 0 1000 1000"><path transform="translate(0, 900) scale(1,-1)" d="M871 827C771 785 595 754 445 737C453 719 463 692 465 674C523 680 585 688 646 698L646 536L430 536L430 466L622 466C576 326 489 179 402 99C416 81 435 51 443 30C521 105 594 234 646 365L646-80L719-80L719 347C772 221 844 102 918 32C931 51 955 78 972 91C880 167 786 319 733 466L958 466L958 536L719 536L719 711C792 725 860 743 914 764ZM329 565C315 428 288 316 248 225C215 254 180 284 147 311C167 384 189 473 209 565ZM66 292C114 253 168 206 216 160C167 77 105 18 31-19C48-33 67-61 77-79C154-35 218 25 269 108C296 80 319 53 336 31L386 88C366 113 337 143 304 174C357 288 390 436 403 629L359 637L346 635L223 635C237 704 248 773 256 835L185 840C177 777 166 706 152 635L44 635L44 565L137 565C115 462 89 363 66 292Z"/><animate attributeName="opacity" values="0;1;1;0;0" dur="2s" repeatCount="indefinite"/></svg></svg>