<svg id="U5951" viewBox="0 0 1000 1000"><svg id="U5951hk" viewBox="0 0 1000 1000"><path transform="translate(0, 900) scale(1,-1)" d="M515 102C645 49 819-30 909-77L952-15C861 31 683 105 557 154ZM457 329C453 297 447 267 439 239L59 239L59 172L414 172C364 76 262 14 36-18C50-33 66-63 73-81C333-40 444 43 497 172L942 172L942 239L519 239C526 267 531 297 536 329L507 329C651 408 691 538 706 712L853 712C847 506 839 430 823 412C815 402 806 400 792 400C776 400 736 401 694 404C705 386 712 357 714 336C757 334 801 333 824 336C851 339 869 346 885 366C909 396 917 488 926 747C926 757 926 780 926 780L497 780L497 712L635 712C622 550 585 431 427 364C437 356 450 342 459 329ZM61 458L69 394L236 411L236 313L306 313L306 419L476 437L476 495L306 479L306 554L448 554L448 613L306 613L306 695L468 695L468 755L306 755L306 840L236 840L236 755L66 755L66 695L236 695L236 613L87 613L87 554L236 554L236 473Z"/><animate attributeName="opacity" values="1;0;0;0;0;0;0;1;1" dur="4s" repeatCount="indefinite"/></svg><svg id="U5951jp" viewBox="0 0 1000 1000"><path transform="translate(0, 900) scale(1,-1)" d="M457 326L457 253L63 253L63 188L448 188C423 113 332 30 40-17C55-35 75-63 84-81C366-33 474 52 513 139C589 10 720-56 919-81C929-59 948-28 966-11C763 8 630 67 565 188L939 188L939 253L533 253L533 326ZM237 840L237 761L71 761L71 701L237 701L237 607L84 607L84 548L237 548L237 434L53 411L61 346C171 362 325 383 475 406L473 466L307 443L307 548L455 548L455 607L307 607L307 701L468 701L468 761L307 761L307 840ZM491 793L491 728L635 728C625 568 594 461 461 398C476 386 497 361 505 344C656 419 693 544 706 728L861 728C851 529 841 453 824 434C816 424 808 422 792 422C776 422 737 422 694 427C705 408 713 380 714 359C758 357 801 357 824 359C852 361 870 368 885 388C911 419 923 510 933 762C934 771 934 793 934 793Z"/><animate attributeName="opacity" values="0;1;1;0;0;0;0;0;0" dur="4s" repeatCount="indefinite"/></svg><svg id="U5951kr" viewBox="0 0 1000 1000"><path transform="translate(0, 900) scale(1,-1)" d="M497 780L497 712L635 712C620 544 580 423 409 358C424 346 444 320 452 304L454 305C450 280 446 257 440 236L59 236L59 169L415 169C366 72 265 13 36-18C50-33 66-63 73-81C335-41 446 38 498 169L503 169C573 18 705-54 919-81C928-59 948-28 965-11C772 6 645 59 580 169L942 169L942 236L519 236C526 265 532 296 536 329L505 329C649 409 690 538 706 712L853 712C847 506 839 430 823 412C815 402 806 400 792 400C776 400 736 401 694 404C705 386 712 357 714 336C757 334 801 333 824 336C851 339 869 346 885 366C909 396 917 488 926 747C926 757 926 780 926 780ZM236 840L236 755L66 755L66 695L236 695L236 614L91 614L91 556L236 556L236 459L44 440L52 375L236 397L236 313L306 313L306 405L478 425L477 484L306 466L306 556L451 556L451 614L306 614L306 695L468 695L468 755L306 755L306 840Z"/><animate attributeName="opacity" values="0;0;0;1;1;0;0;0;0" dur="4s" repeatCount="indefinite"/></svg><svg id="U5951sc" viewBox="0 0 1000 1000"><path transform="translate(0, 900) scale(1,-1)" d="M457 329C453 295 447 264 440 236L59 236L59 169L415 169C366 72 265 13 36-18C50-33 66-63 73-81C335-41 446 38 498 169L503 169C573 18 705-54 919-81C928-59 948-28 965-11C772 6 645 59 580 169L942 169L942 236L519 236C526 265 532 296 536 329L486 329C646 404 689 534 705 712L853 712C847 506 839 430 823 412C815 402 806 400 792 400C776 400 736 401 694 404C705 386 712 357 714 336C757 334 801 333 824 336C851 339 869 346 885 366C909 396 917 488 926 747C926 757 926 780 926 780L497 780L497 712L635 712C621 555 583 440 430 376C443 365 461 344 469 329ZM60 471L60 412L236 412L236 313L306 313L306 412L472 412L472 471L306 471L306 554L451 554L451 613L306 613L306 695L468 695L468 755L306 755L306 840L236 840L236 755L66 755L66 695L236 695L236 613L91 613L91 554L236 554L236 471Z"/><animate attributeName="opacity" values="0;0;0;0;0;1;1;0;0" dur="4s" repeatCount="indefinite"/></svg></svg>