<svg id="U5966" viewBox="0 0 1000 1000"><path transform="translate(0, 900) scale(1,-1)" d="M611 840C579 776 521 719 458 681C473 671 496 650 507 639C528 653 549 671 569 690C591 665 618 643 649 623C596 602 536 584 468 572L479 603L437 616L426 613L356 613L370 628C358 637 344 647 327 657C378 690 432 735 471 779L428 812L414 808L85 808L85 753L359 753C334 729 303 706 275 687C246 702 216 715 189 725L153 688C199 669 253 640 295 613L51 613L51 557L247 557C197 484 113 412 36 377C49 363 63 338 70 322C141 362 218 429 272 499L272 342C272 333 269 330 260 330C249 329 216 329 179 330C187 314 196 290 199 273C251 273 284 274 306 283C329 293 335 310 335 341L335 557L403 557C391 521 378 486 366 460L416 441C434 474 451 522 467 568C479 557 492 539 499 526C577 542 647 564 707 591C772 560 848 538 929 525C938 541 954 565 968 578C897 586 828 601 769 624C833 662 882 707 914 760L874 779L861 776L642 776C653 792 663 808 671 825ZM608 726L815 726C787 699 751 673 708 650C667 672 632 697 608 726ZM661 555C658 534 653 514 647 495L491 495L491 441L624 441C594 390 545 350 462 323C473 314 486 297 494 284L455 284L455 273C455 256 453 233 442 207L61 207L61 145L403 145C351 85 246 21 40-22C55-39 74-64 83-79C333-26 443 61 491 141C576 17 723-51 915-79C924-60 944-30 960-15C787 5 649 56 570 145L942 145L942 207L519 207C525 231 527 253 527 271L527 284L523 284C611 320 663 373 693 441L834 441C827 372 818 342 808 332C802 326 794 325 783 325C770 325 740 325 707 328C715 314 721 291 722 276C758 273 792 274 810 274C832 276 848 281 861 294C881 313 891 360 901 468C902 478 903 495 903 495L712 495C717 514 722 534 725 555Z"/></svg>