<svg id="U596E" viewBox="0 0 1000 1000"><svg id="U596Ehk" viewBox="0 0 1000 1000"><path transform="translate(0, 900) scale(1,-1)" d="M480 652C492 631 505 605 514 582L351 582C369 603 385 625 399 647L345 664C358 676 371 688 382 700L615 700C655 656 710 615 771 582L591 582C581 608 562 643 546 670ZM406 841C393 813 375 785 351 757L71 757L71 700L294 700C231 646 146 598 39 563C52 552 70 529 79 514C181 550 264 597 329 650C270 565 176 487 82 436C97 426 121 405 130 393C162 413 195 436 227 461L227 227L298 227L298 253L866 253L866 302L556 302L556 354L793 354L793 399L556 399L556 447L794 447L794 492L556 492L556 533L815 533L815 560C848 545 882 533 915 523C924 539 944 563 958 576C861 598 759 645 692 700L926 700L926 757L430 757C447 780 462 805 474 829ZM486 447L486 399L298 399L298 447ZM486 492L298 492L298 524L307 533L486 533ZM486 354L486 302L298 302L298 354ZM461 58L461-4L219-4L219 58ZM533 58L781 58L781-4L533-4ZM461 104L219 104L219 161L461 161ZM533 104L533 161L781 161L781 104ZM149 210L149-81L219-81L219-53L781-53L781-78L855-78L855 210Z"/><animate attributeName="opacity" values="1;0;0;1;1" dur="2s" repeatCount="indefinite"/></svg><svg id="U596Ejp" viewBox="0 0 1000 1000"><path transform="translate(0, 900) scale(1,-1)" d="M503 663C497 643 485 614 474 589L353 589C370 609 385 629 398 650L347 666L382 700L615 700C651 659 700 621 754 589L544 589L576 649ZM406 841C393 813 375 785 351 757L71 757L71 700L294 700C231 646 146 598 39 563C52 552 70 529 79 514C178 549 258 594 322 645C273 576 197 512 121 470C135 461 159 438 169 427C187 439 206 452 224 466L224 250L862 250L862 298L541 298L541 350L785 350L785 395L541 395L541 446L786 446L786 490L541 490L541 540L809 540L809 560C844 543 881 529 917 518C927 534 946 559 960 571C862 594 758 642 690 700L926 700L926 757L430 757C447 780 462 805 474 829ZM471 446L471 395L296 395L296 446ZM471 490L296 490L296 528L309 540L471 540ZM471 350L471 298L296 298L296 350ZM461 58L461-4L218-4L218 58ZM533 58L779 58L779-4L533-4ZM461 104L218 104L218 161L461 161ZM533 104L533 161L779 161L779 104ZM148 210L148-81L218-81L218-53L779-53L779-78L854-78L854 210Z"/><animate attributeName="opacity" values="0;1;1;0;0" dur="2s" repeatCount="indefinite"/></svg></svg>