<svg id="U5909" viewBox="0 0 1000 1000"><svg id="U5909jp" viewBox="0 0 1000 1000"><path transform="translate(0, 900) scale(1,-1)" d="M720 589C786 529 861 444 895 389L958 429C922 483 844 566 779 623ZM214 618C183 555 115 484 45 442C61 432 85 411 98 398C171 445 243 523 286 599ZM461 840L461 740L63 740L63 670L386 670L386 666C386 582 373 468 229 384C245 372 271 348 283 332C441 429 457 562 457 664L457 670L596 670L596 451C596 440 593 437 579 436C566 436 522 436 473 437C482 417 491 390 494 370C560 370 607 370 634 381C662 393 668 412 668 449L668 670L940 670L940 740L538 740L538 840ZM391 388C335 309 225 222 71 162C87 151 109 125 119 107C185 136 243 168 294 204C332 154 378 111 431 75C318 29 184 0 46-16C60-32 77-64 84-83C233-62 378-26 502 32C616-28 756-65 917-82C927-61 945-30 961-12C816 0 687 28 580 73C670 126 745 195 795 282L746 315L732 312L420 312C439 332 456 352 471 373ZM347 244L354 250L683 250C639 193 578 147 506 109C440 146 387 191 347 244Z"/><animate attributeName="opacity" values="1;0;0;1;1" dur="2s" repeatCount="indefinite"/></svg><svg id="U5909sc" viewBox="0 0 1000 1000"><path transform="translate(0, 900) scale(1,-1)" d="M226 623C193 551 136 479 75 432C92 423 122 403 135 390C194 443 256 523 294 605ZM691 591C754 536 832 453 869 399L929 440C891 491 815 570 748 625ZM391 388C333 310 222 223 71 162C87 151 109 126 120 108C185 137 242 170 293 205C331 155 377 112 431 75C318 29 184 0 46-16C60-32 77-64 84-83C233-62 378-26 502 32C616-28 756-65 917-82C927-61 945-30 961-12C816 0 687 28 580 73C670 126 745 195 795 282L746 315L732 312L419 312C438 332 455 352 471 372ZM346 245L352 250L683 250C639 193 578 147 506 109C440 146 386 192 346 245ZM432 834C448 809 465 778 478 751L70 751L70 685L347 685L347 390L423 390L423 685L576 685L576 390L652 390L652 685L930 685L930 751L562 751C549 781 525 822 504 852Z"/><animate attributeName="opacity" values="0;1;1;0;0" dur="2s" repeatCount="indefinite"/></svg></svg>