<svg id="U5AFF" viewBox="0 0 1000 1000"><svg id="U5AFFhk" viewBox="0 0 1000 1000"><path transform="translate(0, 900) scale(1,-1)" d="M338-4L338-59L960-59L960-4ZM408 293L408 37L885 37L885 293ZM799 636L799 580L675 580L675 636ZM604 840L604 784L421 784L421 737L604 737L604 684L356 684L356 636L604 636L604 580L417 580L417 533L604 533L604 482L396 482L396 432L604 432L604 380L349 380L349 324L945 324L945 380L675 380L675 432L887 432L887 482L675 482L675 533L869 533L869 636L958 636L958 684L869 684L869 784L675 784L675 840ZM799 684L675 684L675 737L799 737ZM472 143L614 143L614 82L472 82ZM679 143L818 143L818 82L679 82ZM472 248L614 248L614 188L472 188ZM679 248L818 248L818 188L679 188ZM37 616L45 549L108 553C92 453 73 358 55 288C96 253 141 211 184 168C152 98 105 29 37-34C53-43 75-63 86-77C151-15 197 52 231 120C266 83 297 47 318 18L359 73C335 104 299 143 258 184C308 317 316 453 316 566L356 569L356 632L316 630L316 698L255 698L255 626L181 622C192 696 201 769 207 834L143 837C138 771 129 695 118 619ZM124 308C140 378 157 466 171 557L255 562C255 464 249 347 209 231C181 258 152 284 124 308Z"/><animate attributeName="opacity" values="1;0;0;1;1" dur="2s" repeatCount="indefinite"/></svg><svg id="U5AFFsc" viewBox="0 0 1000 1000"><path transform="translate(0, 900) scale(1,-1)" d="M338-4L338-59L960-59L960-4ZM405 293L405 37L882 37L882 293ZM800 633L800 578L675 578L675 633ZM604 841L604 779L427 779L427 732L604 732L604 681L348 681L348 633L604 633L604 578L423 578L423 531L604 531L604 480L401 480L401 433L604 433L604 380L347 380L347 328L949 328L949 380L675 380L675 433L890 433L890 480L675 480L675 531L870 531L870 633L959 633L959 681L870 681L870 779L675 779L675 841ZM800 681L675 681L675 732L800 732ZM469 143L609 143L609 82L469 82ZM675 143L815 143L815 82L675 82ZM469 248L609 248L609 188L469 188ZM675 248L815 248L815 188L675 188ZM275 560C266 435 247 329 219 241C191 265 163 287 136 308C154 380 173 469 190 560ZM62 284C105 253 152 214 194 175C154 82 101 16 35-25C51-40 70-66 80-83C150-35 205 32 247 123C275 95 298 68 314 44L361 97C340 125 310 158 274 191C313 303 336 445 345 626L303 632L290 630L202 630C214 700 224 769 231 831L165 835C159 772 150 701 138 630L40 630L40 560L125 560C106 456 83 356 62 284Z"/><animate attributeName="opacity" values="0;1;1;0;0" dur="2s" repeatCount="indefinite"/></svg></svg>