<svg id="U5A0A" viewBox="0 0 1000 1000"><svg id="U5A0Ahk" viewBox="0 0 1000 1000"><path transform="translate(0, 900) scale(1,-1)" d="M483 572L809 572L809 473L483 473ZM483 412L809 412L809 311L483 311ZM483 732L809 732L809 633L483 633ZM412 795L412 248L506 248C490 120 449 24 298-26C313-40 334-67 342-85C512-22 562 92 581 248L672 248L672 26C672-48 690-71 765-71C781-71 853-71 869-71C936-71 955-34 961 109C941 113 911 125 895 138C892 13 888-4 861-4C846-4 787-4 776-4C749-4 745 0 745 26L745 248L883 248L883 795ZM35 609L44 540L115 544C100 449 82 359 65 292C108 257 156 214 200 172C163 101 111 33 36-29C53-40 78-63 90-78C162-17 215 50 253 119C281 89 307 61 325 37L373 94C352 121 321 153 285 187C339 317 349 449 350 559L389 562L389 626L350 624L350 698L282 698L282 620L193 616C204 691 213 766 218 833L149 836C144 768 136 690 125 613ZM140 316C154 383 170 464 183 549L282 555C280 461 272 349 230 239C200 265 169 292 140 316Z"/><animate attributeName="opacity" values="1;0;0;1;1" dur="2s" repeatCount="indefinite"/></svg><svg id="U5A0Akr" viewBox="0 0 1000 1000"><path transform="translate(0, 900) scale(1,-1)" d="M483 572L809 572L809 473L483 473ZM483 412L809 412L809 311L483 311ZM483 732L809 732L809 633L483 633ZM412 795L412 248L506 248C490 120 449 24 298-26C313-40 334-67 342-85C512-22 562 92 581 248L672 248L672 26C672-48 690-71 765-71C781-71 853-71 869-71C936-71 955-34 961 109C941 113 911 125 895 138C892 13 888-4 861-4C846-4 787-4 776-4C749-4 745 0 745 26L745 248L883 248L883 795ZM285 564C275 428 252 315 218 224C189 249 159 273 129 295C152 373 172 467 189 564ZM158 841C152 777 144 706 133 634L40 634L40 564L122 564C103 452 79 345 53 270C98 237 145 198 189 157C147 76 94 17 28-19C45-33 64-60 74-78C143-35 198 24 242 103C271 72 296 42 313 15L366 67C345 99 312 136 274 172C320 287 347 436 357 630L314 636L302 634L201 634C213 703 222 771 230 834Z"/><animate attributeName="opacity" values="0;1;1;0;0" dur="2s" repeatCount="indefinite"/></svg></svg>