<svg id="U5A57" viewBox="0 0 1000 1000"><svg id="U5A57hk" viewBox="0 0 1000 1000"><path transform="translate(0, 900) scale(1,-1)" d="M35 616L44 545L114 551C96 452 75 357 55 288C99 251 147 207 192 163C156 95 104 30 31-29C46-39 70-61 80-75C151-17 203 47 240 114C270 82 296 52 314 27L358 84C337 111 307 143 272 178C331 314 340 454 340 570L387 574L387 634L340 631L340 698L276 698L276 628L191 623C203 696 213 768 220 833L155 837C149 771 139 695 126 620ZM127 310C144 380 163 467 179 556L276 564C276 464 269 344 222 226C190 255 158 284 127 310ZM426 746L426 308L545 308C531 152 495 36 328-24C344-38 364-64 372-82C556-9 601 125 617 308L702 308L702 24C702-50 718-71 789-71C804-71 866-71 881-71C941-71 960-38 966 95C947 99 917 111 903 123C900 11 895-6 873-6C859-6 810-6 800-6C777-6 772-2 772 25L772 308L915 308L915 768L687 768L687 703L845 703L845 573L696 573L696 509L845 509L845 373L497 373L497 511L644 511L644 574L497 574L497 710C558 731 622 758 672 788L615 839C571 807 494 771 426 746Z"/><animate attributeName="opacity" values="1;0;0;1;1" dur="2s" repeatCount="indefinite"/></svg><svg id="U5A57sc" viewBox="0 0 1000 1000"><path transform="translate(0, 900) scale(1,-1)" d="M426 746L426 308L545 308C531 152 493 36 323-24C338-38 358-64 366-82C555-10 600 124 617 308L702 308L702 25C702-50 718-71 789-71C804-71 867-71 882-71C942-71 961-38 967 95C948 99 919 111 905 123C902 11 897-6 875-6C861-6 810-6 800-6C776-6 772-2 772 25L772 308L917 308L917 768L688 768L688 703L846 703L846 573L696 573L696 509L846 509L846 373L496 373L496 511L643 511L643 574L496 574L496 709C557 731 621 758 671 788L615 839C571 807 494 771 426 746ZM293 564C283 428 260 315 226 224C197 249 167 273 137 295C160 373 180 467 197 564ZM166 841C160 777 152 706 141 634L49 634L49 564L130 564C111 452 88 345 62 270C106 237 154 198 197 158C156 76 102 18 37-19C53-33 72-60 83-78C152-35 208 24 251 105C280 74 306 45 323 19L375 71C353 102 321 137 283 173C329 288 356 436 366 630L322 636L310 634L209 634C221 703 230 771 238 834Z"/><animate attributeName="opacity" values="0;1;1;0;0" dur="2s" repeatCount="indefinite"/></svg></svg>