<svg id="U5A63" viewBox="0 0 1000 1000"><svg id="U5A63hk" viewBox="0 0 1000 1000"><path transform="translate(0, 900) scale(1,-1)" d="M483 429L483 363L827 363L827 429ZM700 280L700-58L759-58L759 214L856 214L856-79L923-79L923 827L856 827L856 579L753 579L753 810L695 810L695 513L856 513L856 280ZM391 827L391-80L457-80L457 214L554 214L554-58L612-58L612 280L457 280L457 513L608 513L608 810L550 810L550 579L457 579L457 827ZM37 622L41 556L110 560C94 457 76 359 58 288C99 251 144 208 187 165C153 95 105 27 35-34C50-43 74-65 84-79C151-19 200 47 235 114C272 74 304 36 326 5L373 64C348 98 310 140 266 184C318 319 325 456 325 572L325 573L370 576L371 638L325 635L325 708L262 708L262 632L182 628C191 700 199 771 204 834L141 837C137 773 129 699 119 625ZM127 315C143 386 159 474 172 564L262 569C262 470 256 351 215 234C186 262 156 290 127 315Z"/><animate attributeName="opacity" values="1;0;0;0;0;1;1" dur="3s" repeatCount="indefinite"/></svg><svg id="U5A63jp" viewBox="0 0 1000 1000"><path transform="translate(0, 900) scale(1,-1)" d="M689 280L689-58L748-58L748 214L850 214L850-79L917-79L917 827L850 827L850 579L747 579L747 810L689 810L689 513L850 513L850 431L464 431L464 462L464 513L615 513L615 810L557 810L557 579L464 579L464 826L400 826L400 462C400 283 390 103 301-40C319-49 345-67 358-80C412 8 439 108 452 214L557 214L557-58L615-58L615 280L459 280L463 363L850 363L850 280ZM163 840C154 778 143 707 131 634L40 634L40 564L118 564C96 441 71 320 51 236L110 200L120 241C148 217 177 191 204 165C164 79 112 17 47-21C62-36 82-62 92-80C160-34 214 28 256 112C280 87 301 62 315 41L361 99C343 124 317 153 287 183C329 296 354 442 363 630L321 636L309 634L199 634L233 833ZM186 564L293 564C283 434 263 324 232 234C200 263 167 290 136 314C152 391 169 477 186 564Z"/><animate attributeName="opacity" values="0;1;1;0;0;0;0" dur="3s" repeatCount="indefinite"/></svg><svg id="U5A63sc" viewBox="0 0 1000 1000"><path transform="translate(0, 900) scale(1,-1)" d="M694 280L694-58L753-58L753 214L850 214L850-79L917-79L917 827L850 827L850 579L747 579L747 810L689 810L689 513L850 513L850 431L463 431L463 460L463 513L615 513L615 810L557 810L557 579L463 579L463 826L399 826L399 460C399 283 391 104 319-40C337-49 363-67 376-79C420 9 442 109 453 214L551 214L551-58L609-58L609 280L458 280L462 363L850 363L850 280ZM293 564C283 431 262 319 230 228C198 255 165 281 132 305C156 380 179 471 198 564ZM171 837C164 774 154 704 142 634L40 634L40 564L129 564C109 458 83 357 56 284L54 281C103 246 156 203 202 160C162 77 111 16 47-21C62-36 82-62 92-80C159-35 213 26 255 108C279 83 299 59 314 37L358 98C341 122 315 150 285 178C328 292 354 440 363 630L321 636L309 634L211 634C224 701 235 768 243 830Z"/><animate attributeName="opacity" values="0;0;0;1;1;0;0" dur="3s" repeatCount="indefinite"/></svg></svg>