<svg id="U5A5F" viewBox="0 0 1000 1000"><svg id="U5A5Fhk" viewBox="0 0 1000 1000"><path transform="translate(0, 900) scale(1,-1)" d="M580 327L734 327L734 187L580 187ZM397 793L397-80L459-80L459-24L856-24L856-72L920-72L920 793ZM459 44L459 726L856 726L856 44ZM526 384L526 129L790 129L790 384L686 384L686 502L821 502L821 566L686 566L686 695L625 695L625 566L491 566L491 502L625 502L625 384ZM35 609L44 540L113 544C99 449 81 359 65 292C106 258 153 217 195 176C160 104 109 34 34-29C51-39 76-62 87-77C159-15 210 54 247 125C276 95 300 68 318 44L365 101C344 127 313 159 278 193C328 320 337 450 338 559L378 562L379 626L338 624L338 698L271 698L271 620L190 616C201 691 209 766 215 833L147 836C143 768 134 690 123 613ZM138 317C152 384 167 465 180 549L271 554C270 462 263 352 224 243C195 269 166 294 138 317Z"/><animate attributeName="opacity" values="1;0;0;1;1" dur="2s" repeatCount="indefinite"/></svg><svg id="U5A5Fsc" viewBox="0 0 1000 1000"><path transform="translate(0, 900) scale(1,-1)" d="M581 327L729 327L729 187L581 187ZM397 793L397-80L461-80L461-24L857-24L857-72L923-72L923 793ZM461 44L461 726L857 726L857 44ZM526 384L526 129L785 129L785 384L684 384L684 502L822 502L822 566L684 566L684 695L625 695L625 566L491 566L491 502L625 502L625 384ZM281 564C271 428 249 316 215 225C186 250 156 275 127 297C149 374 169 468 186 564ZM156 841C150 777 142 706 131 634L40 634L40 564L120 564C102 452 78 345 53 270C97 238 144 199 187 158C146 76 93 18 29-19C45-33 63-60 73-78C141-35 197 25 239 106C273 71 302 36 321 7L373 60C349 94 313 134 271 175C316 289 342 437 352 630L310 636L298 634L198 634C209 703 218 771 226 834Z"/><animate attributeName="opacity" values="0;1;1;0;0" dur="2s" repeatCount="indefinite"/></svg></svg>