<svg id="U5A20" viewBox="0 0 1000 1000"><svg id="U5A20hk" viewBox="0 0 1000 1000"><path transform="translate(0, 900) scale(1,-1)" d="M560-82C575-68 601-54 762 18C757 32 753 59 752 78L623 26L623 385L692 385C731 193 804 26 921-59C932-40 954-15 970-2C904 39 852 109 812 194C855 224 905 265 948 304L897 350C870 319 828 280 790 248C773 291 760 337 749 385L944 385L944 451L492 451L492 556L898 556L898 622L492 622L492 718L940 718L940 786L421 786L421 422C421 277 415 89 341-46C358-54 390-73 403-85C475 45 490 235 492 385L557 385L557 53C557 7 537-19 523-30C534-42 553-68 560-82ZM35 616L44 545L113 549C95 451 75 357 55 288C99 254 149 214 195 173C160 102 108 33 33-29C49-39 74-62 85-76C158-14 210 55 247 125C281 94 310 63 331 38L373 97C350 124 316 157 277 191C329 320 337 452 338 563L393 567L393 634L338 631L338 698L271 698L271 627L192 623C204 696 214 768 220 833L152 837C147 771 137 696 125 620ZM130 311C147 380 164 465 180 553L271 559C270 463 264 350 223 237C192 263 160 288 130 311Z"/><animate attributeName="opacity" values="1;0;0;0;0;1;1" dur="3s" repeatCount="indefinite"/></svg><svg id="U5A20jp" viewBox="0 0 1000 1000"><path transform="translate(0, 900) scale(1,-1)" d="M538 614L538 549L902 549L902 614ZM906 326C878 294 835 253 796 220C781 266 769 315 760 368L950 368L950 435L490 435L490 465L490 720L937 720L937 788L421 788L421 465C421 313 413 106 326-40C342-48 372-68 384-81C460 44 482 220 488 368L558 368L558 22L473 8L493-62C576-45 682-22 785 0L780 63L625 34L625 368L699 368C731 163 796 0 924-81C934-62 957-35 973-21C903 17 852 84 816 168C860 200 910 242 953 283ZM159 840C150 777 139 706 126 634L40 634L40 564L114 564C92 440 68 319 47 234L107 197L117 241C145 218 173 194 200 169C161 81 109 18 44-21C61-36 80-63 90-81C158-35 213 29 254 115C285 82 312 51 329 23L376 82C355 113 322 149 284 186C325 299 348 445 357 630L314 636L302 634L195 634C208 704 219 772 229 833ZM183 564L286 564C276 436 257 327 227 238C196 265 164 291 133 314C149 391 166 478 183 564Z"/><animate attributeName="opacity" values="0;1;1;0;0;0;0" dur="3s" repeatCount="indefinite"/></svg><svg id="U5A20sc" viewBox="0 0 1000 1000"><path transform="translate(0, 900) scale(1,-1)" d="M548 622L548 556L914 556L914 622ZM568-82C583-68 609-54 770 18C765 32 761 59 760 78L631 26L631 385L691 385C730 191 801 25 922-59C932-40 955-14 970-1C902 39 850 108 810 193C854 223 904 265 948 304L897 350C870 319 827 279 788 247C772 290 759 337 749 385L953 385L953 451L501 451L501 718L939 718L939 786L431 786L431 422C431 277 425 89 350-46C367-54 398-73 411-85C485 45 499 235 501 385L565 385L565 53C565 7 545-19 531-30C542-42 561-68 568-82ZM298 564C287 427 264 314 229 223C199 248 167 272 136 293C155 371 175 467 193 564ZM60 269C106 238 155 199 200 159C158 76 102 17 35-19C50-33 69-59 79-76C150-32 208 27 253 110C283 79 310 49 328 23L378 75C356 105 322 140 284 176C330 289 358 437 368 630L326 636L314 634L205 634C217 705 226 774 233 837L165 841C159 778 150 706 138 634L52 634L52 564L126 564C106 453 82 346 60 269Z"/><animate attributeName="opacity" values="0;0;0;1;1;0;0" dur="3s" repeatCount="indefinite"/></svg></svg>