<svg id="U5A06" viewBox="0 0 1000 1000"><path transform="translate(0, 900) scale(1,-1)" d="M293 564C282 428 259 315 225 224C197 250 168 276 139 300C159 375 181 468 200 564ZM62 278C106 242 153 199 195 155C155 75 103 17 41-20C57-34 76-60 86-78C150-35 203 23 245 100C272 70 294 41 310 16L359 73C340 102 312 135 278 170C325 286 353 436 363 630L321 636L309 634L213 634C226 704 237 773 244 835L175 840C169 777 158 706 145 634L49 634L49 564L132 564C111 457 85 353 62 278ZM836 649C798 602 744 562 680 529C657 564 637 605 621 652L921 682L912 745L603 714C594 752 588 793 586 835L517 835C520 791 526 748 535 708L377 692L387 628L552 645C569 591 592 541 618 499C542 467 457 442 372 425C386 411 409 380 418 365C498 385 580 412 656 446C710 382 775 343 843 343C905 343 929 373 941 480C923 485 901 496 887 510C882 436 873 410 847 410C804 409 760 434 719 478C793 517 857 565 903 623ZM368 305L368 240L525 240C514 106 477 27 328-18C344-33 365-62 373-81C541-24 585 76 599 240L696 240L696 24C696-45 713-65 785-65C800-65 864-65 880-65C938-65 956-35 963 73C943 78 915 88 900 99C898 10 893-4 872-4C859-4 807-4 797-4C774-4 769 0 769 24L769 240L945 240L945 305Z"/></svg>