<svg id="U5ACC" viewBox="0 0 1000 1000"><svg id="U5ACChk" viewBox="0 0 1000 1000"><path transform="translate(0, 900) scale(1,-1)" d="M35 616L44 545L103 549C89 450 72 357 55 288C96 251 141 206 183 161C149 93 100 28 31-32C48-43 72-65 84-80C149-22 197 41 232 106C259 75 282 46 299 21L344 77C325 105 297 138 264 173C320 309 329 448 329 564L375 567L376 619L512 619L512 547L389 547L389 487L512 487L512 410L357 410L357 350L512 350L512 267L385 267L385 207L486 207C442 122 374 40 308-4C324-16 346-40 357-57C413-13 469 57 512 135L512-79L577-79L577 207L676 207L676-78L743-78L743 140C791 63 853-8 910-51C921-34 942-11 958 1C891 43 817 125 768 207L898 207L898 350L953 350L953 410L898 410L898 547L743 547L743 619L938 619L938 681L751 681C780 719 812 766 841 808L768 837C747 791 709 726 677 681L519 681L575 711C558 744 523 797 493 836L434 808C461 768 495 715 512 681L371 681L371 632L329 630L329 698L262 698L262 626L181 622C190 696 198 769 203 834L135 837C131 771 123 695 113 619ZM837 350L837 267L743 267L743 350ZM837 410L743 410L743 487L837 487ZM577 350L676 350L676 267L577 267ZM577 410L577 487L676 487L676 410ZM577 547L577 619L676 619L676 547ZM128 308C142 378 158 464 171 553L262 559C261 460 255 343 212 227C184 255 155 283 128 308Z"/><animate attributeName="opacity" values="1;0;0;0;0;0;0;1;1" dur="4s" repeatCount="indefinite"/></svg><svg id="U5ACCjp" viewBox="0 0 1000 1000"><path transform="translate(0, 900) scale(1,-1)" d="M780 841C766 808 739 758 719 728L767 713L522 713L560 729C550 759 525 806 498 839L439 817C462 785 484 744 496 713L364 713L364 653L516 653L516 566L401 566L401 508L516 508L516 417L352 417L352 356L516 356L516 261L394 261L394 204L503 204C452 121 368 40 288 0C303-13 325-37 336-53C399-15 465 48 516 118L516-80L581-80L581 204L676 204L676-80L741-80L741 135C791 61 855-8 916-49C928-31 950-5 967 7C893 47 812 125 761 204L894 204L894 356L961 356L961 417L894 417L894 566L741 566L741 653L947 653L947 713L783 713C803 742 828 781 851 821ZM581 653L676 653L676 566L581 566ZM581 356L676 356L676 261L581 261ZM581 417L581 508L676 508L676 417ZM741 356L831 356L831 261L741 261ZM741 417L741 508L831 508L831 417ZM163 840C154 778 143 707 131 634L40 634L40 564L118 564C96 441 71 320 51 236L110 200L120 241C148 217 177 191 204 165C164 79 112 17 47-21C62-36 83-63 93-81C161-36 216 27 258 111C283 84 304 59 319 37L365 96C347 122 320 152 289 182C331 296 356 442 365 630L321 636L309 634L199 634L233 833ZM186 564L293 564C283 434 263 324 232 235C200 263 167 290 136 314C152 391 169 477 186 564Z"/><animate attributeName="opacity" values="0;1;1;0;0;0;0;0;0" dur="4s" repeatCount="indefinite"/></svg><svg id="U5ACCkr" viewBox="0 0 1000 1000"><path transform="translate(0, 900) scale(1,-1)" d="M163 840C154 778 143 707 131 634L40 634L40 564L118 564C96 441 71 320 51 236L110 200L120 241C148 217 177 191 204 165C164 79 112 17 47-21C62-36 83-63 93-81C161-36 216 27 258 111C283 84 304 59 319 37L365 96C347 122 320 152 289 182C329 292 354 432 364 610L521 610L521 541L392 541L392 482L521 482L521 408L361 408L361 351L521 351L521 274L392 274L392 215L500 215C452 132 373 51 296 10C312-3 333-27 344-44C408-4 472 63 521 138L521-79L586-79L586 215L674 215L674-80L740-80L740 144C789 70 855 1 920-38C931-20 954 6 970 20C892 59 812 136 764 215L905 215L905 351L962 351L962 408L905 408L905 541L740 541L740 610L950 610L950 670L740 670L740 736C799 753 858 775 904 799L841 840C796 812 710 782 635 762C643 749 653 727 658 714L674 718L674 670L586 670L586 763C614 773 641 785 663 798L598 838C552 807 458 778 377 758C384 745 395 723 398 710C438 718 480 728 521 741L521 670L359 670L359 631L321 636L309 634L199 634L233 833ZM586 610L674 610L674 541L586 541ZM586 351L674 351L674 274L586 274ZM586 408L586 482L674 482L674 408ZM740 351L840 351L840 274L740 274ZM740 408L740 482L840 482L840 408ZM186 564L293 564C283 434 263 324 232 235C200 263 167 290 136 314C152 391 169 477 186 564Z"/><animate attributeName="opacity" values="0;0;0;1;1;0;0;0;0" dur="4s" repeatCount="indefinite"/></svg><svg id="U5ACCsc" viewBox="0 0 1000 1000"><path transform="translate(0, 900) scale(1,-1)" d="M768 837C747 791 709 726 677 681L519 681L575 711C558 744 523 797 493 836L434 808C461 768 495 715 512 681L371 681L371 619L512 619L512 547L389 547L389 487L512 487L512 410L357 410L357 350L512 350L512 267L385 267L385 207L486 207C442 122 374 40 308-4C324-16 346-40 357-57C413-13 469 57 512 135L512-79L577-79L577 207L676 207L676-78L743-78L743 140C791 63 853-8 910-51C921-34 942-11 958 1C891 43 817 125 768 207L898 207L898 350L953 350L953 410L898 410L898 547L743 547L743 619L938 619L938 681L751 681C780 719 812 766 841 808ZM837 350L837 267L743 267L743 350ZM837 410L743 410L743 487L837 487ZM577 350L676 350L676 267L577 267ZM577 410L577 487L676 487L676 410ZM577 547L577 619L676 619L676 547ZM278 568C268 431 247 317 215 226C188 249 160 271 133 291C153 370 173 468 191 568ZM60 269C102 239 147 201 189 163C149 79 97 19 33-19C49-32 66-57 76-73C143-29 197 32 238 115C270 82 297 50 315 23L364 72C342 104 307 142 267 180C310 292 335 439 344 630L305 636L293 634L202 634C214 704 223 773 230 835L164 839C158 776 149 706 138 634L52 634L52 568L126 568C107 456 82 347 60 269Z"/><animate attributeName="opacity" values="0;0;0;0;0;1;1;0;0" dur="4s" repeatCount="indefinite"/></svg></svg>