<svg id="U5A05" viewBox="0 0 1000 1000"><path transform="translate(0, 900) scale(1,-1)" d="M376 541C408 432 441 287 453 204L517 220C504 301 469 443 436 552ZM879 554C860 451 820 302 788 215L843 197C878 285 918 426 946 537ZM282 560C272 432 253 325 224 236C193 263 162 288 131 311C148 383 165 470 181 560ZM63 287C108 254 156 214 200 173C161 81 108 16 43-25C59-39 77-65 87-81C156-34 210 32 252 122C279 93 303 66 320 42L364 93C344 121 313 154 278 187C317 300 340 443 349 626L309 632L297 630L192 630C203 702 213 773 219 836L159 838C154 775 145 703 133 630L40 630L40 560L122 560C104 457 83 358 63 287ZM337 32L337-36L960-36L960 32L774 32L774 711L930 711L930 779L386 779L386 711L544 711L544 32ZM610 711L708 711L708 32L610 32Z"/></svg>