<svg id="U5AD0" viewBox="0 0 1000 1000"><path transform="translate(0, 900) scale(1,-1)" d="M330 799L330 398L432 398C431 363 429 330 427 298L308 298L308 240L421 240C404 115 366 22 270-37C284-47 303-68 311-83C421-14 464 95 483 240L571 240C563 71 555 7 542-10C535-18 528-19 516-19C505-19 478-19 448-16C458-33 464-58 465-77C495-78 525-78 542-76C565-74 579-68 592-51C614-26 623 54 631 270C632 280 632 298 632 298L489 298C491 330 493 363 494 398L640 398L640 799ZM754 840C746 778 736 707 725 634L659 634L659 567L715 567C695 439 673 312 654 225L708 189L715 225C735 201 755 175 774 150C737 68 687 10 626-27C640-40 658-65 668-82C730-41 780 13 819 87C860 27 894-33 914-80L964-30C942 23 900 90 850 158C889 261 913 394 923 567L960 567L960 634L787 634L817 834ZM776 567L858 567C851 427 832 312 802 220C778 249 754 277 730 303C745 384 761 476 776 567ZM384 571L458 571L458 458L384 458ZM507 571L585 571L585 458L507 458ZM384 739L458 739L458 628L384 628ZM507 739L585 739L585 628L507 628ZM132 840C125 778 117 707 107 634L40 634L40 567L98 567C80 441 60 317 43 231L97 198L104 235C126 213 148 189 169 164C137 76 94 11 41-30C55-42 73-66 83-81C138-36 181 26 215 107C240 74 261 43 275 17L321 71C303 102 274 141 241 180C275 296 295 443 302 630L263 636L252 634L169 634L195 834ZM159 567L238 567C231 438 215 327 191 236C167 262 142 287 118 310C131 388 146 478 159 567Z"/></svg>