<svg id="U5B6E" viewBox="0 0 1000 1000"><svg id="U5B6Ehk" viewBox="0 0 1000 1000"><path transform="translate(0, 900) scale(1,-1)" d="M473 541L473 475L864 475L864 541ZM465 243C436 162 386 81 329 27C346 17 375-3 389-14C444 44 499 135 534 226ZM778 222C825 150 874 53 894-6L960 22C939 82 887 177 840 247ZM182 567L182 387L32 347L49 274L182 314L182 17C182 4 177 1 164 0C152 0 112 0 67 1C77-19 86-51 89-70C154-71 194-69 219-57C245-44 253-23 253 17L253 335L380 374L380 310L627 310L627 0C627-11 624-15 610-15C598-16 554-16 505-15C514-34 523-61 527-80C594-80 637-80 665-69C692-58 699-38 699-1L699 310L957 310L957 377L384 377L377 443L253 407L253 541C309 598 371 677 411 749L360 783L346 779L59 779L59 708L297 708C265 658 222 603 182 567ZM587 828C606 791 625 745 636 706L389 706L389 533L458 533L458 641L881 641L881 533L952 533L952 706L711 706C700 748 677 801 654 844Z"/><animate attributeName="opacity" values="1;0;0;0;0;1;1" dur="3s" repeatCount="indefinite"/></svg><svg id="U5B6Ejp" viewBox="0 0 1000 1000"><path transform="translate(0, 900) scale(1,-1)" d="M473 541L473 475L864 475L864 541ZM465 248C436 167 387 86 330 32C348 22 378 1 392-11C447 48 502 139 536 230ZM778 222C825 150 874 53 894-6L960 22C939 82 887 177 840 247ZM396 706L396 533L464 533L464 641L872 641L872 533L943 533L943 706L700 706L700 840L627 840L627 706ZM380 377L380 310L627 310L627 0C627-11 624-15 610-15C598-16 554-16 505-15C514-34 523-61 527-80C594-80 637-80 665-69C692-58 699-38 699-1L699 310L957 310L957 377ZM183 577L183 411L32 382L47 309L183 338L183 8C183-4 178-8 165-9C154-9 113-9 68-8C79-29 88-60 91-79C156-80 195-78 221-66C246-53 254-32 254 8L254 354L396 385L391 453L254 425L254 530C309 588 369 673 410 750L360 783L345 779L59 779L59 708L299 708C272 662 238 613 205 577Z"/><animate attributeName="opacity" values="0;1;1;0;0;0;0" dur="3s" repeatCount="indefinite"/></svg><svg id="U5B6Etc" viewBox="0 0 1000 1000"><path transform="translate(0, 900) scale(1,-1)" d="M493 533L493 467L857 467L857 533ZM510 217C475 151 422 76 374 25C391 15 420-7 433-19C480 37 538 122 579 195ZM770 194C814 129 867 41 891-12L957 19C931 71 877 156 832 219ZM182 567L182 387L32 347L49 274L182 314L182 17C182 4 178 1 165 0C153 0 113 0 67 1C77-19 87-51 89-70C154-71 194-69 220-57C246-44 253-23 253 17L253 335L384 375L377 443L253 407L253 541C309 598 371 677 411 749L360 783L346 779L59 779L59 708L297 708C265 658 222 603 182 567ZM396 354L396 288L635 288L635-76L709-76L709 288L943 288L943 354ZM603 824C618 790 635 749 646 714L415 714L415 546L483 546L483 649L867 649L867 546L937 546L937 714L726 714C715 751 693 802 673 842Z"/><animate attributeName="opacity" values="0;0;0;1;1;0;0" dur="3s" repeatCount="indefinite"/></svg></svg>