<svg id="U5BC5" viewBox="0 0 1000 1000"><svg id="U5BC5hk" viewBox="0 0 1000 1000"><path transform="translate(0, 900) scale(1,-1)" d="M591 46C705 3 822-47 892-82L950-29C873 6 751 54 636 96ZM346 95C285 50 152 1 45-24C59-40 79-66 89-81C201-54 333-4 413 51ZM178 458L178 99L827 99L827 458L535 458L535 542L780 542L780 605L216 605L216 542L461 542L461 458ZM251 251L461 251L461 159L251 159ZM535 251L752 251L752 159L535 159ZM251 397L461 397L461 308L251 308ZM535 397L752 397L752 308L535 308ZM437 832C447 809 460 780 469 755L79 755L79 568L153 568L153 686L845 686L845 568L922 568L922 755L554 755C544 783 528 818 514 845Z"/><animate attributeName="opacity" values="1;0;0;1;1" dur="2s" repeatCount="indefinite"/></svg><svg id="U5BC5jp" viewBox="0 0 1000 1000"><path transform="translate(0, 900) scale(1,-1)" d="M591 46C705 3 822-47 892-82L950-29C873 6 751 54 636 96ZM346 98C285 53 154 4 46-21C61-38 81-63 91-80C203-52 334-2 414 52ZM178 458L178 99L827 99L827 458L535 458L535 542L780 542L780 605L216 605L216 542L461 542L461 458ZM251 251L461 251L461 159L251 159ZM535 251L752 251L752 159L535 159ZM251 397L461 397L461 308L251 308ZM535 397L752 397L752 308L535 308ZM79 755L79 568L153 568L153 686L845 686L845 568L922 568L922 755L536 755L536 840L459 840L459 755Z"/><animate attributeName="opacity" values="0;1;1;0;0" dur="2s" repeatCount="indefinite"/></svg></svg>