<svg id="U5B79" viewBox="0 0 1000 1000"><path transform="translate(0, 900) scale(1,-1)" d="M225 509L395 509L395 419L225 419ZM167 561L167 368L456 368L456 561ZM464 209L464 162L64 162L64 102L464 102L464 3C464-10 459-14 443-14C428-15 369-15 306-13C316-31 327-55 332-74C414-74 465-74 497-65C529-55 538-38 538 1L538 102L940 102L940 162L538 162L538 182C621 210 708 249 773 291L729 329L714 325L215 325L215 268L619 268C571 245 515 224 464 209ZM664 836C673 817 681 794 687 773L497 773L497 717L798 717C788 690 772 651 758 620L637 620L659 626C652 651 635 688 617 716L562 702C576 677 591 644 598 620L473 620L473 563L677 563L677 495L492 495L492 438L677 438L677 343L746 343L746 438L932 438L932 495L746 495L746 563L951 563L951 620L820 620C833 646 847 676 861 705L803 717L925 717L925 773L763 773C756 797 745 826 733 848ZM104 802L104 640C104 558 97 449 39 369C54 361 82 340 93 328C150 407 166 519 169 609L442 609L442 802ZM169 750L377 750L377 662L169 662Z"/></svg>