<svg id="U5B62" viewBox="0 0 1000 1000"><path transform="translate(0, 900) scale(1,-1)" d="M41 296L55 224L208 274L208 5C208-9 203-13 187-14C171-15 119-15 61-13C72-32 83-59 87-78C163-78 210-77 239-66C268-55 278-36 278 5L278 297L413 341L404 404L278 365L278 517C335 581 398 668 441 745L394 777L379 773L62 773L62 706L336 706C300 643 251 572 208 525L208 344C145 325 87 308 41 296ZM547 838C505 707 432 580 348 498C364 485 391 457 401 443C424 467 447 495 469 526L469 49C469-45 500-68 608-68C632-68 813-68 838-68C931-68 954-32 965 91C945 94 916 106 900 118C893 17 886-3 835-3C797-3 640-3 610-3C548-3 537 6 537 49L537 243L746 243L746 549L485 549C508 583 529 620 549 658L834 658C833 367 830 264 816 242C808 231 800 229 787 229C770 229 733 229 691 233C703 214 711 185 711 165C753 163 794 163 819 166C846 169 864 176 880 199C901 232 903 345 905 690C905 700 905 726 905 726L581 726C594 757 606 788 617 820ZM537 486L682 486L682 306L537 306Z"/></svg>