<svg id="U5C60" viewBox="0 0 1000 1000"><svg id="U5C60hk" viewBox="0 0 1000 1000"><path transform="translate(0, 900) scale(1,-1)" d="M216 730L810 730L810 637L216 637ZM370 245L370 222C310 195 248 172 185 152C211 273 216 400 216 500L216 573L475 573L475 505L271 505L271 447L475 447L475 367L223 367L223 306L530 306C494 284 457 264 418 245ZM823 556C798 524 770 494 740 464L740 505L546 505L546 573L885 573L885 793L141 793L141 500C141 340 132 118 31-40C50-47 83-67 97-78C139-13 166 64 184 145C198 131 217 106 226 92C274 109 323 129 370 150L370-80L443-80L443-46L793-46L793-78L868-78L868 245L554 245C586 264 618 285 648 306L937 306L937 367L728 367C787 415 840 468 886 526ZM546 447L722 447C691 419 658 392 623 367L546 367ZM443 77L793 77L793 6L443 6ZM443 126L443 184L460 193L793 193L793 126Z"/><animate attributeName="opacity" values="1;0;0;1;1" dur="2s" repeatCount="indefinite"/></svg><svg id="U5C60jp" viewBox="0 0 1000 1000"><path transform="translate(0, 900) scale(1,-1)" d="M216 738L810 738L810 653L216 653ZM222 380L222 322L532 322C480 291 426 263 369 238C310 212 250 189 189 170C211 286 216 408 216 505L216 591L479 591L479 518L282 518L282 461L479 461L479 380ZM646 285C674 273 706 255 730 238L513 238C560 264 606 292 650 322L952 322L952 380L728 380C787 427 842 479 888 535L826 565C771 498 702 435 623 380L550 380L550 461L723 461L723 518L550 518L550 591L885 591L885 799L141 799L141 504C141 343 132 119 32-39C51-46 84-66 99-77C143-7 171 79 188 168C203 153 225 126 234 112C279 128 324 146 369 166L369-79L440-79L440-51L787-51L787-77L861-77L861 238L770 238L792 261C768 281 721 307 684 322ZM440 68L787 68L787 1L440 1ZM440 118L440 185L787 185L787 118Z"/><animate attributeName="opacity" values="0;1;1;0;0" dur="2s" repeatCount="indefinite"/></svg></svg>