<svg id="U5C2E" viewBox="0 0 1000 1000"><path transform="translate(0, 900) scale(1,-1)" d="M222 839C222 780 222 717 220 653L47 653L47 583L217 583C206 349 167 109 32-29C52-40 79-63 92-80C221 59 266 282 283 509L283 70C283-32 323-56 466-56C499-56 779-56 814-56C923-56 949-31 961 60C940 64 909 74 891 85C884 23 873 10 810 10C752 10 509 10 464 10C369 10 355 22 355 70L355 514L283 514L287 583L482 583L482 653L290 653C292 717 293 779 293 839ZM464 808L464 746L566 746C555 628 526 527 433 470C447 459 466 439 474 424C584 491 618 606 631 746L721 746C715 703 706 658 699 625L762 618L767 640L856 640C849 566 841 535 830 524C824 517 817 516 805 516C794 516 766 516 735 520C744 503 750 478 752 460C783 458 815 459 832 460C854 462 868 468 882 482C901 501 911 553 922 674C924 684 925 702 925 702L778 702L795 808ZM646 461L646 379L428 379L428 316L609 316C560 239 481 164 407 126C423 114 443 91 454 74C523 116 596 191 646 271L646 54L714 54L714 283C764 207 838 131 906 91C916 108 938 132 953 144C882 179 804 246 755 316L937 316L937 379L714 379L714 461Z"/></svg>