<svg id="U5C08" viewBox="0 0 1000 1000"><path transform="translate(0, 900) scale(1,-1)" d="M86 314L89 256C235 258 435 261 642 267L642 206L46 206L46 144L256 144L206 102C266 65 337 9 371-30L425 20C391 57 320 109 261 144L642 144L642 2C642-10 638-15 621-16C605-16 549-16 488-14C498-33 509-61 512-80C592-80 643-80 675-69C706-59 715-39 715 0L715 144L955 144L955 206L715 206L715 269L816 272C838 258 857 245 872 233L916 275C875 306 805 345 738 372L853 372L853 646L535 646L535 703L914 703L914 763L535 763L535 839L461 839L461 763L75 763L75 703L461 703L461 646L153 646L153 372L461 372L461 317ZM224 485L461 485L461 423L224 423ZM535 485L779 485L779 423L535 423ZM224 595L461 595L461 534L224 534ZM535 595L779 595L779 534L535 534ZM648 351C673 343 699 332 725 320L535 317L535 372L672 372Z"/></svg>