<svg id="U5C22" viewBox="0 0 1024 1024"><path transform="translate(0, 921.6) scale(1,-1)" d="M469 858L534 847L550 837L534 827L534 643L530 595L829 595L883 648L947 595L947 573L529 573L527 545L511 452L486 366L450 284L406 209L352 140L289 77L217 21L136-28L46-71L42-62L125-11L200 44L265 103L321 166L367 233L406 306L434 382L454 464L466 551L467 573L77 573L77 595L467 595L469 643L469 858ZM620-34L606-33L592-31L579-27L567-20L556-11L547-1L540 12L536 25L534 38L534 52L534 535L598 525L614 514L598 504L598 45L599 40L601 35L603 33L608 32L613 31L620 30L910 30L942 165L953 165L942 30L961 17L974-2L961-22L942-34L620-34Z"/></svg>