<svg id="U5C2F" viewBox="0 0 1000 1000"><path transform="translate(0, 900) scale(1,-1)" d="M267 503L267 66C267-35 308-59 454-59C487-59 778-59 813-59C927-59 952-33 965 63C944 67 915 76 898 87C891 19 878 5 810 5C750 5 497 5 452 5C352 5 336 16 336 66L336 503ZM173 840L173 641L60 641L60 571L173 571C172 380 157 157 30-26C48-36 74-58 87-73C225 123 242 362 243 571L418 571L418 641L243 641L243 840ZM522 582C547 618 569 656 587 694L725 694C709 656 688 614 669 582ZM572 839C544 748 487 630 401 541C417 532 440 510 450 494L465 510L465 394C465 297 454 170 375 77C390 70 418 50 429 39C514 139 529 285 529 394L529 520L919 520L919 582L736 582C763 626 793 680 813 728L768 757L757 754L615 754C625 780 635 805 643 829ZM582 482L582 164C582 93 603 75 682 75C699 75 808 75 825 75C888 75 907 99 914 194C896 198 870 208 857 219C854 145 848 133 819 133C796 133 705 133 688 133C651 133 645 139 645 165L645 422L786 422L786 303C786 295 784 292 775 292C765 291 740 291 704 293C713 276 722 253 724 235C772 235 803 236 824 246C844 256 848 273 848 302L848 482Z"/></svg>