<svg id="U5DCF" viewBox="0 0 1000 1000"><svg id="U5DCFhk" viewBox="0 0 1000 1000"><path transform="translate(0, 900) scale(1,-1)" d="M757 581L871 581L871 488L757 488ZM702 632L702 437L928 437L928 632ZM486 581L597 581L597 488L486 488ZM646 410C653 392 661 371 668 351L539 351C553 375 566 399 577 424L538 437L654 437L654 632L430 632L430 437L514 437C483 369 435 305 383 255L383 668L328 668L328 138L262 138L262 825L200 825L200 138L127 138L127 671L73 671L73 71L328 71L328 31L383 31L383 192L395 172C416 190 437 212 457 236L457-80L521-80L521-44L960-44L960 13L731 13L731 74L912 74L912 127L731 127L731 187L912 187L912 240L731 240L731 299L942 299L942 351L737 351C729 376 717 404 707 428ZM565 840L565 761L393 761L393 703L565 703L565 652L628 652L628 840ZM726 840L726 654L789 654L789 703L964 703L964 761L789 761L789 840ZM667 187L667 127L521 127L521 187ZM667 240L521 240L521 299L667 299ZM667 74L667 13L521 13L521 74Z"/><animate attributeName="opacity" values="1;0;0;1;1" dur="2s" repeatCount="indefinite"/></svg><svg id="U5DCFsc" viewBox="0 0 1000 1000"><path transform="translate(0, 900) scale(1,-1)" d="M496 581L597 581L597 489L496 489ZM749 581L854 581L854 489L749 489ZM194 828L194 123L127 116L127 671L69 671L69 50L320 74L320 32L377 32L377 672L320 672L320 134L253 128L253 828ZM693 191L693 131L546 131L546 191ZM652 411C667 395 683 375 697 356L567 356C579 378 591 400 601 423L558 436L653 436L653 633L442 633L442 436L539 436C504 358 445 280 382 229C396 218 421 196 431 184C448 200 464 217 481 236L481-80L546-80L546-37L951-37L951 19L756 19L756 81L904 81L904 131L756 131L756 191L904 191L904 240L756 240L756 300L929 300L929 356L771 356C756 380 731 412 705 436L912 436L912 633L693 633L693 436L697 436ZM693 240L546 240L546 300L693 300ZM693 81L693 19L546 19L546 81ZM744 841L744 766L610 766L610 841L547 841L547 766L414 766L414 706L547 706L547 650L610 650L610 706L744 706L744 650L808 650L808 706L946 706L946 766L808 766L808 841Z"/><animate attributeName="opacity" values="0;1;1;0;0" dur="2s" repeatCount="indefinite"/></svg></svg>