<svg id="U5DC6" viewBox="0 0 1000 1000"><svg id="U5DC6hk" viewBox="0 0 1000 1000"><path transform="translate(0, 900) scale(1,-1)" d="M522 350L795 350L795 270L522 270ZM375 516L375 347L438 347L438 457L880 457L880 347L944 347L944 516ZM614 796C602 766 576 719 558 689L597 672C617 698 642 737 666 775ZM911 791C898 762 872 716 853 686L891 670C912 696 937 735 960 772ZM373 781C392 741 413 689 424 657L470 677C460 707 437 759 417 797ZM667 767C684 733 704 687 714 660L759 681C749 706 728 749 710 782ZM417 173L417-75L484-75L484-41L842-41L842-74L912-74L912 173L652 173L675 219L864 219L864 401L458 401L458 219L605 219L587 173ZM484 16L484 116L842 116L842 16ZM501 840C496 694 474 617 363 572C375 562 391 541 397 527C453 551 490 583 514 625C549 599 586 569 606 550L649 590C623 613 575 649 535 675C549 720 555 774 558 840ZM792 840C787 693 765 615 652 570C665 560 682 539 688 525C746 550 783 582 807 626C846 596 888 561 911 538L955 578C927 604 871 645 828 676C841 721 847 775 849 840ZM292 671L292 136L240 136L240 825L179 825L179 136L123 136L123 671L69 671L69 70L292 70L292 31L344 31L344 671Z"/><animate attributeName="opacity" values="1;0;0;1;1" dur="2s" repeatCount="indefinite"/></svg><svg id="U5DC6sc" viewBox="0 0 1000 1000"><path transform="translate(0, 900) scale(1,-1)" d="M526 350L806 350L806 270L526 270ZM463 401L463 219L873 219L873 401ZM372 516L372 347L432 347L432 457L890 457L890 347L952 347L952 516ZM621 792C609 763 583 717 565 689L602 671C622 697 648 735 672 772ZM422 794C413 755 390 705 366 678L412 652C436 684 454 734 467 776ZM917 791C905 762 878 716 859 686L899 669C920 695 945 734 969 771ZM715 794C706 755 687 704 666 676L711 652C733 684 748 735 758 776ZM416 173L416-73L481-73L481-38L844-38L844-72L912-72L912 173ZM481 19L481 116L844 116L844 19ZM507 840C502 693 479 617 365 572C377 562 392 541 398 527C455 551 492 582 517 624C550 598 586 569 607 550L648 590C623 613 577 647 539 674C554 719 560 774 562 840ZM800 840C795 692 772 615 653 570C665 560 681 539 688 525C748 549 787 581 812 624C849 594 889 561 912 538L955 578C927 603 876 643 833 673C848 718 854 773 857 840ZM179 828L179 122L122 116L122 671L69 671L69 50L288 73L288 32L341 32L341 672L288 672L288 133L234 128L234 828Z"/><animate attributeName="opacity" values="0;1;1;0;0" dur="2s" repeatCount="indefinite"/></svg></svg>