<svg id="U5D97" viewBox="0 0 1000 1000"><svg id="U5D97hk" viewBox="0 0 1000 1000"><path transform="translate(0, 900) scale(1,-1)" d="M620 778C609 744 585 693 566 661L605 645C625 674 648 718 671 757ZM907 777C895 743 869 690 851 658L890 639C911 670 934 714 956 755ZM407 455L407 295L469 295L469 393L880 393L880 295L945 295L945 455ZM385 756C404 716 425 663 436 630L482 651C472 681 449 733 429 772ZM670 762C690 725 712 674 723 643L768 665C757 692 733 741 714 778ZM511 839C507 669 487 564 377 504C389 495 406 477 412 464C467 494 502 535 525 587C559 556 595 519 614 494L654 535C631 564 582 608 544 641C558 696 564 762 567 839ZM793 839C787 668 768 565 659 506C671 498 687 478 694 466C748 495 783 534 806 585C851 545 897 497 922 465L963 507C933 543 874 598 825 639C840 694 846 760 848 839ZM624 364C622 329 619 297 614 266L418 266L418 204L602 204C575 96 516 19 374-27C388-40 407-65 414-80C576-23 642 71 671 204L837 204C825 63 812 5 795-12C787-20 778-21 762-21C746-21 704-21 661-16C671-34 678-59 679-77C723-80 767-80 789-78C816-77 833-71 850-54C877-26 891 47 906 236C908 246 909 266 909 266L682 266C687 297 690 330 692 364ZM303 673L303 135L246 135L246 824L185 824L185 135L126 135L126 671L70 671L70 68L303 68L303 34L357 34L357 673Z"/><animate attributeName="opacity" values="1;0;0;0;0;1;1" dur="3s" repeatCount="indefinite"/></svg><svg id="U5D97jp" viewBox="0 0 1000 1000"><path transform="translate(0, 900) scale(1,-1)" d="M445 767C439 722 425 674 400 647L440 621C470 653 482 704 489 754ZM711 765C706 719 692 672 665 646L707 619C738 651 750 702 756 754ZM634 776C623 745 601 697 583 666L621 650C639 678 662 719 684 756ZM908 775C896 741 871 690 853 659L892 640C912 670 935 713 958 753ZM407 455L407 295L469 295L469 393L880 393L880 295L945 295L945 455ZM186 829L186 191L126 191L126 640L69 640L69 27L126 27L126 128L307 128L307 67L363 67L363 640L307 640L307 191L244 191L244 829ZM529 839C523 669 504 564 395 504C408 495 424 477 431 464C484 494 519 534 542 585C576 556 611 522 630 499L668 541C644 568 599 607 561 638C576 694 582 760 585 839ZM796 839C791 668 772 565 665 506C677 498 692 478 700 466C752 495 786 533 809 582C853 543 898 497 922 465L963 507C934 543 876 596 828 637C843 692 848 759 851 839ZM624 364C622 329 619 297 614 266L418 266L418 204L602 204C575 96 516 19 374-27C388-40 407-65 414-80C576-23 642 71 671 204L837 204C825 63 812 5 795-12C787-20 778-21 762-21C746-21 704-21 661-16C671-34 678-59 679-77C723-80 767-80 789-78C816-77 833-71 850-54C877-26 891 47 906 236C908 246 909 266 909 266L682 266C687 297 690 330 692 364Z"/><animate attributeName="opacity" values="0;1;1;0;0;0;0" dur="3s" repeatCount="indefinite"/></svg><svg id="U5D97sc" viewBox="0 0 1000 1000"><path transform="translate(0, 900) scale(1,-1)" d="M445 767C439 722 425 674 400 647L440 621C470 653 482 704 489 754ZM711 765C706 719 692 672 665 646L707 619C738 651 750 702 756 754ZM634 776C623 745 601 697 583 666L621 650C639 678 662 719 684 756ZM908 775C896 741 871 690 853 659L892 640C912 670 935 713 958 753ZM407 455L407 295L469 295L469 393L880 393L880 295L945 295L945 455ZM529 839C523 669 504 564 395 504C408 495 424 477 431 464C484 494 519 534 542 585C576 556 611 522 630 499L668 541C644 568 599 607 561 638C576 694 582 760 585 839ZM796 839C791 668 772 565 665 506C677 498 692 478 700 466C752 495 786 533 809 582C853 543 898 497 922 465L963 507C934 543 876 596 828 637C843 692 848 759 851 839ZM624 364C622 329 619 297 614 266L418 266L418 204L602 204C575 96 516 19 374-27C388-40 407-65 414-80C576-23 642 71 671 204L837 204C825 63 812 5 795-12C787-20 778-21 762-21C746-21 704-21 661-16C671-34 678-59 679-77C723-80 767-80 789-78C816-77 833-71 850-54C877-26 891 47 906 236C908 246 909 266 909 266L682 266C687 297 690 330 692 364ZM184 828L184 122L125 116L125 671L70 671L70 50L299 73L299 32L355 32L355 672L299 672L299 134L241 128L241 828Z"/><animate attributeName="opacity" values="0;0;0;1;1;0;0" dur="3s" repeatCount="indefinite"/></svg></svg>