<svg id="U5DC7" viewBox="0 0 1000 1000"><svg id="U5DC7hk" viewBox="0 0 1000 1000"><path transform="translate(0, 900) scale(1,-1)" d="M823 762C848 714 875 649 888 610L937 633C924 670 895 732 870 779ZM441 379L441 328L723 328L723 379ZM512 242L648 242L648 180L512 180ZM457 284L457 137L704 137L704 284ZM627 132C622 106 612 69 603 40L555 32C549 59 539 97 527 127L480 116C488 87 499 51 504 24L423 11L435-43C512-29 609-8 706 12C690-9 673-28 654-46C668-55 691-72 700-82C738-42 772 4 801 56C821-31 850-81 891-81C941-81 957-36 966 85C953 91 935 103 923 116C920 19 912-25 898-25C875-25 855 32 840 134C879 223 909 325 931 437L876 446C864 376 847 309 827 247C820 315 815 394 812 482L956 502L947 556L810 537C808 629 807 730 808 838L751 838C752 730 754 626 757 529L700 521L709 467L759 474C764 346 772 232 785 142C765 100 742 60 716 25L714 60L657 50L682 118ZM516 610L516 550L443 542L449 498L516 505L516 487C516 436 525 416 575 416C588 416 634 416 648 416C666 416 686 416 696 419C694 433 693 449 692 462C681 459 658 459 647 459C635 459 598 459 588 459C574 459 572 465 572 486L572 512L665 522L662 546L697 538C710 570 723 618 734 661L695 670L685 668L545 668L545 724L691 724L691 777L545 777L545 839L484 839L484 668L374 668L374 364C374 241 368 78 303-39C315-45 339-62 349-71C419 51 429 233 429 364L429 614L667 614L654 566L572 557L572 610ZM272 671L272 136L223 136L223 825L167 825L167 136L118 136L118 671L69 671L69 70L272 70L272 31L320 31L320 671Z"/><animate attributeName="opacity" values="1;0;0;0;0;1;1" dur="3s" repeatCount="indefinite"/></svg><svg id="U5DC7jp" viewBox="0 0 1000 1000"><path transform="translate(0, 900) scale(1,-1)" d="M828 767C856 719 883 657 892 616L941 639C932 679 902 739 874 786ZM445 379L445 330L727 330L727 379ZM483 119C496 89 507 49 509 24L559 37C555 62 544 102 530 131ZM516 245L652 245L652 184L516 184ZM461 288L461 140L709 140L709 288ZM172 817L172 187L120 187L120 653L69 653L69 40L120 40L120 128L280 128L280 79L330 79L330 653L280 653L280 187L225 187L225 817ZM631 135C626 109 613 68 603 41L623 35C549 22 482 11 430 3L441-51C516-36 609-18 704 3C690-15 675-31 660-46C674-55 697-72 705-82C743-42 776 5 805 58C825-30 854-81 895-81C945-81 961-36 970 85C957 91 939 103 927 116C924 19 916-25 902-25C878-25 859 34 844 138C882 226 910 327 931 438L876 446C864 379 849 315 830 255C824 322 820 399 816 484L964 505L955 559L815 539C812 631 811 731 812 838L755 838C756 730 758 627 761 532L707 524L716 469L763 476C768 348 776 236 788 146C769 103 747 63 723 28L721 52L653 40L686 121ZM507 612L507 549L443 542L449 498L507 504L507 482C507 429 520 418 576 418C587 418 639 418 650 418C688 418 704 432 709 482C694 485 673 492 663 500C660 467 656 463 642 463C631 463 592 463 584 463C565 463 563 464 563 482L563 511L665 522L661 547L702 538C714 570 728 618 738 661L700 670L690 668L573 668L573 724L707 724L707 777L573 777L573 839L513 839L513 668L380 668L380 379C380 252 372 82 296-39C309-45 332-62 342-71C422 55 435 243 435 378L435 614L671 614L658 566L658 567L563 556L563 612Z"/><animate attributeName="opacity" values="0;1;1;0;0;0;0" dur="3s" repeatCount="indefinite"/></svg><svg id="U5DC7sc" viewBox="0 0 1000 1000"><path transform="translate(0, 900) scale(1,-1)" d="M823 767C851 719 878 657 888 616L937 639C928 679 899 739 869 786ZM441 379L441 330L723 330L723 379ZM512 245L648 245L648 184L512 184ZM457 288L457 140L704 140L704 288ZM627 135C621 109 609 68 599 41L602 40L545 30L555 33C552 59 540 100 526 131L480 119C491 88 502 50 505 24L423 11L435-43C512-29 609-8 707 12C691-9 674-28 656-46C669-55 693-72 702-82C739-42 772 5 801 57C821-30 850-81 891-81C941-81 957-36 966 85C953 91 935 103 923 116C920 19 912-25 898-25C875-25 855 34 839 137C877 226 906 327 927 438L872 446C860 379 845 314 826 254C820 321 815 398 812 484L959 505L950 559L810 539C808 631 807 731 808 838L751 838C752 730 754 627 757 532L703 524L712 469L759 476C764 348 772 236 784 146C765 102 742 61 716 25L714 60L653 49L682 121ZM503 612L503 550L438 542L445 498L503 504L503 482C503 429 516 418 572 418C583 418 635 418 645 418C685 418 700 432 705 482C690 485 669 492 658 500C656 467 652 463 637 463C627 463 587 463 579 463C561 463 558 464 558 482L558 511L660 522L657 547L697 538C710 570 723 618 734 661L695 670L685 668L568 668L568 724L702 724L702 777L568 777L568 839L508 839L508 668L374 668L374 364C374 241 368 78 303-39C315-45 339-62 349-71C419 51 429 233 429 364L429 614L667 614L654 566L654 567L558 556L558 612ZM69 117L69 55L269 75L269 33L320 33L320 670L269 670L269 135L221 131L221 828L169 828L169 126L122 122L122 670L69 670Z"/><animate attributeName="opacity" values="0;0;0;1;1;0;0" dur="3s" repeatCount="indefinite"/></svg></svg>