<svg id="U5E68" viewBox="0 0 1000 1000"><svg id="U5E68hk" viewBox="0 0 1000 1000"><path transform="translate(0, 900) scale(1,-1)" d="M538 294L538 248L902 248L902 294ZM538 205L538 159L902 159L902 205ZM542 841C511 765 453 667 370 594L370 650L248 650L248 839L185 839L185 650L61 650L61 129L118 129L118 586L185 586L185-80L248-80L248 586L315 586L315 213C315 206 314 204 307 204C300 204 283 204 263 204C272 186 280 158 282 140C314 140 334 141 351 153C366 165 370 186 370 212L370 589C385 581 405 562 415 549L429 562L429 394C429 263 421 84 345-46C360-52 387-71 398-82C478 54 491 254 491 393L491 451C499 442 505 431 509 422C617 451 656 506 670 595L755 595L755 526C755 471 765 447 819 447C833 447 885 447 901 447C919 447 942 448 952 451C950 467 948 484 947 500C935 497 913 496 900 496C888 496 847 496 835 496C820 496 818 503 818 525L818 595L961 595L961 652L752 652C774 682 797 718 813 751L768 780L757 778L583 778L607 830ZM506 652C524 675 539 699 553 723L723 723C710 698 694 672 678 652ZM491 595L607 595C596 532 567 494 491 472ZM653 457L685 387L495 387L495 338L954 338L954 387L754 387C743 413 726 448 710 476ZM530 113L530-81L597-81L597-49L847-49L847-79L917-79L917 113ZM597-3L597 68L847 68L847-3Z"/><animate attributeName="opacity" values="1;0;0;0;0;1;1" dur="3s" repeatCount="indefinite"/></svg><svg id="U5E68jp" viewBox="0 0 1000 1000"><path transform="translate(0, 900) scale(1,-1)" d="M544 270L544 223L906 223L906 270ZM544 185L544 139L906 139L906 185ZM566 439L566 394L884 394L884 439ZM542 841C511 765 453 667 370 594L370 650L248 650L248 839L185 839L185 650L61 650L61 129L118 129L118 586L185 586L185-80L248-80L248 586L315 586L315 213C315 206 314 204 307 204C300 204 283 204 263 204C272 186 280 158 282 140C314 140 334 141 351 153C366 165 370 186 370 212L370 589C385 581 405 562 415 549L429 562L429 394C429 261 420 83 331-46C346-52 373-71 384-82C459 28 483 179 489 308L958 308L958 355L491 355L491 393L491 595L617 595C610 536 583 510 494 496C505 487 520 465 525 451C634 472 668 512 676 595L733 595L733 542C733 490 748 478 808 478C819 478 869 478 880 478C923 478 939 494 943 550C927 554 905 560 892 568C890 529 887 524 871 524C861 524 824 524 816 524C799 524 797 526 797 542L797 595L961 595L961 652L752 652C774 682 797 718 813 751L768 780L757 778L583 778L607 830ZM506 652C524 675 539 699 553 723L723 723C710 698 694 672 678 652ZM533 101L533-80L594-80L594-54L855-54L855-78L918-78L918 101ZM594-8L594 55L855 55L855-8Z"/><animate attributeName="opacity" values="0;1;1;0;0;0;0" dur="3s" repeatCount="indefinite"/></svg><svg id="U5E68sc" viewBox="0 0 1000 1000"><path transform="translate(0, 900) scale(1,-1)" d="M550 331L550 284L906 284L906 331ZM549 234L549 188L905 188L905 234ZM750 564C802 534 862 494 896 463L932 506C895 535 835 574 781 603ZM67 652L67 128L119 128L119 584L176 584L176-78L236-78L236 584L305 584L305 212C305 204 303 202 296 201C289 201 270 201 245 202C255 185 263 158 265 141C299 141 321 143 337 154C354 165 358 185 358 210L358 652L236 652L236 841L176 841L176 652ZM509 662C530 686 549 712 565 737L717 737C703 711 686 683 668 662ZM547 846C516 776 459 692 376 629C390 618 412 594 422 577L432 585L432 395C432 262 424 80 344-49C361-55 391-69 405-79C486 54 498 252 498 394L498 605L657 605C623 570 565 520 520 489L565 460C610 489 666 532 710 575L660 605L960 605L960 662L745 662C769 693 793 729 810 763L764 794L753 791L597 791L618 833ZM546 141L546-75L612-75L612-33L846-33L846-69L915-69L915 141ZM612 14L612 93L846 93L846 14ZM671 496C681 476 692 451 701 428L505 428L505 381L954 381L954 428L766 428C756 454 740 489 725 516Z"/><animate attributeName="opacity" values="0;0;0;1;1;0;0" dur="3s" repeatCount="indefinite"/></svg></svg>