<svg id="U5EEE" viewBox="0 0 1000 1000"><svg id="U5EEEhk" viewBox="0 0 1000 1000"><path transform="translate(0, 900) scale(1,-1)" d="M324 528L487 528L487 487L324 487ZM324 447L487 447L487 405L324 405ZM324 608L487 608L487 568L324 568ZM268 649L268 365L545 365L545 649ZM660 527L826 527L826 487L660 487ZM660 447L826 447L826 405L660 405ZM660 608L826 608L826 568L660 568ZM604 648L604 364L885 364L885 648ZM442 326C469 307 502 278 518 258L561 287C545 307 511 334 484 352ZM774 323C809 297 851 260 871 235L916 266C895 289 853 325 819 349ZM320 349C300 319 260 283 224 262C238 255 257 240 268 230C307 253 350 293 377 331ZM664 347C643 316 603 281 567 260C580 253 599 238 610 229C649 252 693 292 719 330ZM466 826C480 806 494 782 505 759L117 759L117 447C117 303 110 103 37-38C53-46 84-68 97-81C176 69 188 293 188 447L188 695L948 695L948 759L584 759C571 786 552 818 534 843ZM760 228C755 215 750 203 743 191L513 191C524 207 534 223 543 239L476 258C464 236 449 214 433 191L228 191L228 134L391 134C366 102 339 72 315 47C372 39 434 27 496 15C419-6 325-19 212-26C224-40 235-64 241-82C391-70 512-47 605-8C710-31 808-57 873-78L930-32C863-11 774 11 680 32C723 59 758 93 784 134L946 134L946 191L814 191L822 211ZM426 79L471 134L705 134C675 100 638 72 591 50C535 61 479 71 426 79Z"/><animate attributeName="opacity" values="1;0;0;1;1" dur="2s" repeatCount="indefinite"/></svg><svg id="U5EEEsc" viewBox="0 0 1000 1000"><path transform="translate(0, 900) scale(1,-1)" d="M333 515L494 515L494 474L333 474ZM333 436L494 436L494 393L333 393ZM333 594L494 594L494 553L333 553ZM277 632L277 354L552 354L552 632ZM664 515L828 515L828 473L664 473ZM664 435L828 435L828 392L664 392ZM664 593L828 593L828 553L664 553ZM608 632L608 354L887 354L887 632ZM779 321C815 296 859 261 879 236L922 268C900 291 856 326 821 349ZM329 349C309 321 270 288 234 268C246 262 265 247 275 238C314 260 356 296 383 332ZM668 345C648 317 608 285 572 266C585 260 603 246 613 236C652 257 695 293 721 328ZM466 826C481 806 496 782 508 759L117 759L117 447C117 303 110 103 37-38C53-46 84-68 97-81C176 69 188 293 188 447L188 695L948 695L948 759L587 759C574 786 552 820 532 846ZM228 216L228 159L397 159C370 124 342 90 316 63C377 51 444 36 511 19C436-3 334-17 197-26C206-40 218-66 222-82C400-69 524-46 611-6C713-34 807-63 869-87L924-38C860-15 773 11 681 35C725 68 755 109 775 159L946 159L946 216L519 216L542 254L515 262L558 289C542 309 510 334 484 351L442 325C467 307 497 281 513 263L473 274C463 255 451 236 437 216ZM600 55C541 69 482 83 427 94C444 113 462 136 479 159L700 159C680 116 649 82 600 55Z"/><animate attributeName="opacity" values="0;1;1;0;0" dur="2s" repeatCount="indefinite"/></svg></svg>