<svg id="U5E8A" viewBox="0 0 1000 1000"><svg id="U5E8Ahk" viewBox="0 0 1000 1000"><path transform="translate(0, 900) scale(1,-1)" d="M544 607L544 455L240 455L240 384L507 384C436 249 313 118 192 52C210 39 233 12 246-7C356 61 467 180 544 313L544-80L619-80L619 313C698 188 809 70 913 3C925 23 950 50 968 64C851 129 726 257 650 384L941 384L941 455L619 455L619 607ZM467 825C488 790 509 746 524 710L118 710L118 453C118 309 111 107 32-36C50-43 83-66 97-77C179 74 193 299 193 452L193 639L950 639L950 710L612 710C598 748 570 804 544 845Z"/><animate attributeName="opacity" values="1;0;0;1;1" dur="2s" repeatCount="indefinite"/></svg><svg id="U5E8Ajp" viewBox="0 0 1000 1000"><path transform="translate(0, 900) scale(1,-1)" d="M545 607L545 455L247 455L247 384L510 384C441 250 322 120 204 55C221 41 246 13 258-6C364 61 470 176 545 305L545-80L619-80L619 310C698 184 809 67 912 0C925 21 951 48 969 63C852 128 725 255 651 384L949 384L949 455L619 455L619 607ZM121 710L121 451C121 308 113 105 31-38C49-46 82-67 96-80C182 72 195 298 195 451L195 639L952 639L952 710L568 710L568 840L491 840L491 710Z"/><animate attributeName="opacity" values="0;1;1;0;0" dur="2s" repeatCount="indefinite"/></svg></svg>