<svg id="U5E76" viewBox="0 0 1000 1000"><svg id="U5E76hk" viewBox="0 0 1000 1000"><path transform="translate(0, 900) scale(1,-1)" d="M642 561L642 344L363 344L363 369L363 561ZM704 843C683 780 645 695 611 634L89 634L89 561L285 561L285 370L285 344L52 344L52 272L279 272C265 162 214 54 54-27C71-40 97-69 108-87C291 7 345 138 359 272L642 272L642-80L720-80L720 272L949 272L949 344L720 344L720 561L918 561L918 634L693 634C725 689 759 757 789 818ZM218 813C260 758 305 683 321 634L395 667C376 716 330 788 287 841Z"/><animate attributeName="opacity" values="1;0;0;1;1" dur="2s" repeatCount="indefinite"/></svg><svg id="U5E76jp" viewBox="0 0 1000 1000"><path transform="translate(0, 900) scale(1,-1)" d="M709 843C686 788 642 710 607 662L672 638C708 683 754 754 792 817ZM642 562L642 344L360 344L360 368L360 562ZM52 344L52 272L280 272C265 160 215 51 52-30C69-43 94-70 104-87C288 7 342 138 356 272L642 272L642-80L718-80L718 272L949 272L949 344L718 344L718 562L918 562L918 634L89 634L89 562L285 562L285 370L285 344ZM218 813C260 758 305 683 321 634L392 666C373 714 327 786 284 840Z"/><animate attributeName="opacity" values="0;1;1;0;0" dur="2s" repeatCount="indefinite"/></svg></svg>