<svg id="U5F8B" viewBox="0 0 1000 1000"><path transform="translate(0, 900) scale(1,-1)" d="M254 837C211 766 123 683 44 631C57 617 76 587 84 570C172 629 267 723 326 810ZM364 291L364 228L591 228L591 142L320 142L320 76L591 76L591-79L664-79L664 76L950 76L950 142L664 142L664 228L902 228L902 291L664 291L664 370L888 370L888 520L960 520L960 586L888 586L888 734L664 734L664 840L591 840L591 734L382 734L382 670L591 670L591 586L335 586L335 520L591 520L591 434L377 434L377 370L591 370L591 291ZM664 670L815 670L815 586L664 586ZM664 434L664 520L815 520L815 434ZM269 618C212 514 118 412 29 345C42 327 63 289 69 273C106 304 145 342 182 383L182-78L253-78L253 469C284 509 312 551 335 592Z"/></svg>