<svg id="U5F4C" viewBox="0 0 1000 1000"><svg id="U5F4Chk" viewBox="0 0 1000 1000"><path transform="translate(0, 900) scale(1,-1)" d="M75 571C71 477 59 355 48 278L241 278C232 95 220 25 203 7C195-2 187-5 171-4C154-4 114-4 70 0C81-18 89-48 91-69C135-71 178-71 201-69C229-67 246-60 262-40C289-10 301 78 312 313C313 323 314 344 314 344L123 344L138 503L316 503L316 794L53 794L53 726L248 726L248 571ZM363 804L363 740L621 740L621 579L449 579C487 618 526 660 557 698L503 733C464 682 396 610 339 560C354 549 374 531 386 518L390 522L390-81L454-81L454 29C464 23 476 11 483 3C508 32 532 66 553 102C569 83 583 64 592 48L621 80C611 98 594 120 574 141C589 172 603 203 614 234L575 253C567 227 556 200 543 173C527 188 510 202 494 214L466 186C485 171 505 153 523 135C503 97 479 62 454 33L454 285C464 278 477 268 485 259C509 284 531 314 551 346C568 327 582 309 591 294L619 327C608 344 592 364 572 383C588 412 601 442 612 471L573 490C565 466 554 439 540 413C524 427 508 441 492 452L466 423C484 410 503 394 520 377C500 344 478 312 454 287L454 516L627 516L627-73L684-73L684 28C694 22 705 12 711 4C736 33 759 66 780 101C796 81 811 62 820 46L849 79C839 97 822 119 801 141C818 173 832 206 844 238L804 257C795 230 784 201 770 173C754 188 737 202 721 215L692 187C711 171 731 153 750 134C730 99 708 66 684 38L684 282C694 275 706 264 713 256C737 281 759 311 779 343C797 324 812 305 822 289L850 323C839 340 822 361 801 381C818 410 832 441 843 471L803 490C795 465 783 438 769 411C752 426 734 440 717 452L690 422C709 408 730 391 749 373C729 341 707 310 684 285L684 516L858 516L858-5C858-16 855-19 844-19C834-19 802-20 765-19C773-36 782-63 785-81C838-81 872-80 895-69C917-58 924-39 924-5L924 527L971 563C934 611 859 684 793 733L745 700C788 666 836 620 874 579L690 579L690 740L950 740L950 804Z"/><animate attributeName="opacity" values="1;0;0;1;1" dur="2s" repeatCount="indefinite"/></svg><svg id="U5F4Cjp" viewBox="0 0 1000 1000"><path transform="translate(0, 900) scale(1,-1)" d="M805 250C796 223 783 195 768 168C748 184 728 199 709 212L683 181C703 166 725 149 746 132C723 98 698 68 673 48L673 275C684 267 695 254 702 244C728 268 753 300 776 336C796 318 813 300 824 286L851 321C838 336 820 355 799 373C814 402 828 431 837 459L801 479C792 454 780 427 766 401C748 416 729 430 712 442L685 411C704 397 724 381 743 365C722 333 697 304 673 283L673 504L858 504L858-2C858-14 854-18 842-18C831-19 791-19 747-18C755-35 764-63 766-80C829-80 867-79 890-69C915-58 922-38 922-3L922 563L957 590C920 631 844 690 780 728L732 693C790 658 854 606 893 565L680 565L680 735L957 735L957 800L347 800L347 735L607 735L607 565L401 565C453 604 505 655 541 704L478 723C439 670 376 618 314 582C327 573 349 556 362 545L362-80L424-80L424 504L613 504L613-73L673-73L673 44C684 36 696 21 704 11C730 35 755 67 778 103C798 84 816 66 828 50L855 86C842 102 823 121 801 140C817 170 831 201 841 230ZM557 479C548 453 536 426 521 400C502 416 483 430 464 443L437 412C457 397 478 381 498 363C475 329 450 299 424 279C437 271 451 255 458 244C483 267 508 298 531 333C550 315 567 297 578 282L606 319C594 334 575 353 554 372C570 401 583 431 593 460ZM558 243C549 217 537 189 523 163C504 179 484 195 465 209L438 178C459 163 481 145 502 126C478 89 451 56 425 34C437 27 451 11 458-1C484 24 510 58 534 96C553 76 570 57 582 42L610 77C597 94 578 114 556 134C571 164 584 194 594 223ZM73 569C70 474 59 346 48 268L110 261L115 300L239 300C230 95 221 17 203-2C195-12 186-14 170-13C153-13 110-13 64-9C75-28 83-56 84-77C130-79 176-79 200-77C228-75 246-69 263-48C290-16 299 77 310 332C311 343 311 365 311 365L121 365L131 499L306 499L306 802L52 802L52 732L238 732L238 569Z"/><animate attributeName="opacity" values="0;1;1;0;0" dur="2s" repeatCount="indefinite"/></svg></svg>