<svg id="U5FA2" viewBox="0 0 1000 1000"><path transform="translate(0, 900) scale(1,-1)" d="M229 840C186 772 103 687 31 634C43 621 64 594 74 579C152 639 242 731 299 813ZM377 262C366 133 333 32 255-33C270-44 297-69 307-82C354-40 388 14 411 80C481-39 591-64 744-64L941-64C944-44 955-10 966 7C926 6 775 6 747 6C716 6 686 7 658 10L658 132L900 132L900 194L658 194L658 279L895 279L895 420L964 420L964 480L895 480L895 617L658 617L658 689L947 689L947 750L658 750L658 840L585 840L585 750L320 750L320 689L585 689L585 617L365 617L365 557L585 557L585 480L304 480L304 420L585 420L585 339L365 339L365 279L585 279L585 24C518 43 467 84 434 163C440 192 445 223 448 256ZM658 420L823 420L823 339L658 339ZM658 480L658 557L823 557L823 480ZM255 634C200 528 108 423 19 355C33 339 55 305 63 290C97 318 132 352 165 389L165-79L234-79L234 473C267 517 298 564 323 610Z"/></svg>