<svg id="U5F3B" viewBox="0 0 1000 1000"><svg id="U5F3Bhk" viewBox="0 0 1000 1000"><path transform="translate(0, 900) scale(1,-1)" d="M341 594L341-58L398-58L398 13L596 13L596-52L654-52L654 594L526 594L526 701L664 701L664 770L330 770L330 701L463 701L463 594ZM398 78L398 183C408 176 418 167 424 159C470 223 493 296 505 365C534 309 559 250 571 209L596 221L596 78ZM398 205L398 531L472 531L472 524C472 435 467 309 398 205ZM517 531L596 531L596 273C576 323 545 383 514 435C516 466 517 496 517 523ZM77 561C75 470 68 349 60 274L240 274C231 89 223 19 207 2C200-8 192-9 179-9C164-9 130-8 92-5C103-23 109-50 111-70C149-72 187-72 208-70C233-68 250-61 265-42C289-12 299 72 308 310C309 319 309 340 309 340L129 340L137 494L299 494L299 788L49 788L49 721L231 721L231 561ZM700 562C700 470 695 349 689 274L875 274C866 90 856 20 840 3C832-7 823-8 809-8C794-8 755-8 714-4C725-22 732-50 734-70C775-72 817-72 839-70C866-68 882-61 898-42C923-12 933 73 944 309C945 319 945 341 945 341L757 341L762 495L933 495L933 785L680 785L680 718L866 718L866 562Z"/><animate attributeName="opacity" values="1;0;0;1;1" dur="2s" repeatCount="indefinite"/></svg><svg id="U5F3Bjp" viewBox="0 0 1000 1000"><path transform="translate(0, 900) scale(1,-1)" d="M341 594L341-58L398-58L398 13L597 13L597-52L655-52L655 594L526 594L526 701L664 701L664 770L330 770L330 701L463 701L463 594ZM398 78L398 235C410 229 425 216 432 206C471 258 492 317 504 374C519 307 541 248 569 210C576 220 587 232 597 241L597 78ZM398 241L398 531L472 531L472 525C472 445 466 332 398 241ZM517 531L597 531L597 254C557 311 531 419 517 527ZM77 554C71 456 58 326 46 247L109 240L115 286L240 286C231 88 221 12 205-6C198-16 190-18 176-17C161-17 127-17 90-13C101-31 107-59 108-78C146-80 185-80 206-78C231-75 248-69 264-49C288-19 298 69 308 322C309 331 309 352 309 352L123 352L135 487L300 487L300 786L49 786L49 719L233 719L233 554ZM704 554C697 456 682 326 670 247L734 240L740 286L876 286C866 89 856 13 839-6C831-15 823-18 808-17C792-17 755-17 713-13C723-31 731-59 732-78C774-81 816-80 837-78C865-76 881-69 897-50C924-19 933 71 945 321C946 331 946 352 946 352L747 352L761 487L934 487L934 786L682 786L682 719L867 719L867 554Z"/><animate attributeName="opacity" values="0;1;1;0;0" dur="2s" repeatCount="indefinite"/></svg></svg>