<svg id="U5FAD" viewBox="0 0 1000 1000"><svg id="U5FADhk" viewBox="0 0 1000 1000"><path transform="translate(0, 900) scale(1,-1)" d="M249 840C207 769 122 684 47 630C60 617 80 591 89 575C171 636 261 729 317 814ZM273 636C216 530 124 425 35 357C49 342 71 306 79 291C111 318 145 351 177 386L177-79L248-79L248 472C282 517 314 565 340 612ZM589 839C538 772 443 694 317 640C330 629 349 605 358 588C383 600 407 613 430 626C474 590 523 544 553 509C472 473 384 448 299 433C311 420 325 396 331 381C374 390 417 401 460 414C433 364 397 320 356 287C372 278 400 256 413 245C446 274 479 314 506 358L610 358L610 241L309 241L309 179L610 179L610 6L447 6L447 140L378 140L378-55L825-55L825-80L895-80L895 141L825 141L825 6L681 6L681 179L952 179L952 241L681 241L681 358L914 358L914 420L539 420L549 445C705 508 845 605 919 747L876 772L864 768L612 768C629 786 645 805 660 823ZM475 655C495 668 513 681 531 695C581 658 638 609 672 572C651 559 629 546 607 534C576 569 524 618 475 655ZM823 711C795 672 760 637 719 605C689 637 640 678 595 711Z"/><animate attributeName="opacity" values="1;0;0;0;0;0;0;1;1" dur="4s" repeatCount="indefinite"/></svg><svg id="U5FADjp" viewBox="0 0 1000 1000"><path transform="translate(0, 900) scale(1,-1)" d="M244 840C200 769 111 683 33 630C45 617 65 590 74 575C160 636 253 729 312 813ZM583 711L813 711C788 676 757 644 721 616C682 644 624 678 572 703ZM842 148L842 22L687 22L687 183L961 183L961 245L687 245L687 345L905 345L905 406L528 406L549 444L542 445C699 506 839 601 912 743L867 768L854 765L652 765C673 784 693 803 710 822L635 838C575 770 464 695 316 643C330 632 350 609 360 593L409 613C457 584 511 546 546 515C471 484 391 461 312 447C324 432 340 406 346 388C384 396 422 406 459 417C434 373 399 325 355 287C374 279 398 263 412 249C442 279 468 312 490 345L617 345L617 245L303 245L303 183L617 183L617 22L464 22L464 149L393 149L393-80L464-80L464-38L842-38L842-76L914-76L914 148ZM527 675C580 648 638 612 676 584C652 568 627 554 601 541C565 572 510 610 460 638C484 650 506 662 527 675ZM268 636C209 530 113 426 21 357C34 342 56 306 64 291C101 321 140 358 177 398L177-79L248-79L248 482C281 524 310 568 335 612Z"/><animate attributeName="opacity" values="0;1;1;0;0;0;0;0;0" dur="4s" repeatCount="indefinite"/></svg><svg id="U5FADsc" viewBox="0 0 1000 1000"><path transform="translate(0, 900) scale(1,-1)" d="M245 838C203 767 117 684 39 632C52 617 71 587 79 570C166 630 259 723 316 810ZM874 829C749 797 523 773 336 762C343 745 352 720 354 703C543 712 774 736 918 771ZM361 662C386 624 413 572 423 539L483 564C472 597 444 647 417 684ZM573 685C595 640 616 579 624 543L685 564C677 600 654 659 632 702ZM839 720C820 664 785 582 757 532L811 508C841 556 876 630 907 694ZM262 617C207 514 115 411 27 345C40 327 61 288 68 272C102 300 137 334 171 372L171-80L244-80L244 460C276 502 305 547 329 591ZM445 545C421 478 376 415 323 371C338 362 366 342 377 331C406 358 435 392 460 430L597 430L597 302L299 302L299 237L597 237L597 31L422 31L422 190L353 190L353-32L850-32L850-79L919-79L919 197L850 197L850 31L670 31L670 237L966 237L966 302L670 302L670 430L913 430L913 493L495 493L511 529Z"/><animate attributeName="opacity" values="0;0;0;1;1;0;0;0;0" dur="4s" repeatCount="indefinite"/></svg><svg id="U5FADtc" viewBox="0 0 1000 1000"><path transform="translate(0, 900) scale(1,-1)" d="M249 840C207 769 122 684 47 630C60 617 80 591 89 575C171 636 261 729 317 814ZM398 575L400 524L577 546L575 595ZM273 636C216 530 124 425 35 357C49 342 71 306 79 291C111 318 145 351 177 386L177-79L248-79L248 472C282 517 314 565 340 612ZM591 839C548 775 465 702 349 652C364 641 384 617 393 601C443 626 487 653 526 683C575 648 629 602 665 567C568 506 451 466 337 445C350 431 365 406 372 389C398 395 424 401 450 408C427 360 393 316 355 285C371 275 399 253 411 242C439 267 466 300 489 337L609 337L609 240L326 240L326 178L609 178L609 21L452 21L452 140L383 140L383-40L820-40L820-80L890-80L890 141L820 141L820 21L680 21L680 178L941 178L941 240L680 240L680 337L887 337L887 400L522 400L536 433L531 434C697 494 847 594 924 746L878 772L865 768L618 768C635 787 650 806 663 825ZM824 711C795 669 757 632 714 600C678 635 623 678 574 711Z"/><animate attributeName="opacity" values="0;0;0;0;0;1;1;0;0" dur="4s" repeatCount="indefinite"/></svg></svg>