<svg id="U600F" viewBox="0 0 1000 1000"><svg id="U600Fhk" viewBox="0 0 1000 1000"><path transform="translate(0, 900) scale(1,-1)" d="M163 840L163-80L234-80L234 840ZM75 647C69 568 51 458 27 390L86 370C110 445 126 560 131 639ZM248 663C269 598 288 513 295 462L353 483C347 531 325 615 303 679ZM673 205C755 117 856-3 902-77L962-25C914 47 810 163 729 248ZM397 674L397 369L319 369L319 298L595 298C567 175 497 62 325-22C342-36 365-64 376-81C570 17 644 152 671 298L957 298L957 369L901 369L901 674L685 674L685 839L612 839L612 674ZM606 369L466 369L466 603L612 603L612 489C612 449 611 409 606 369ZM680 369C684 409 685 449 685 489L685 603L829 603L829 369Z"/><animate attributeName="opacity" values="1;0;0;1;1" dur="2s" repeatCount="indefinite"/></svg><svg id="U600Fjp" viewBox="0 0 1000 1000"><path transform="translate(0, 900) scale(1,-1)" d="M161 840L161-80L232-80L232 840ZM75 647C69 568 52 457 29 389L86 370C109 445 125 561 129 639ZM247 663C267 598 286 512 293 461L352 482C346 530 324 615 303 679ZM610 832L610 680L400 680L400 349L324 349L324 280L592 280C563 158 485 52 288-23C304-36 326-63 336-80C527-5 613 99 651 220C705 81 792-23 918-79C929-60 951-32 967-18C835 33 746 139 701 279L958 279L958 348L884 348L884 679L681 679L681 832ZM467 349L467 611L609 611L609 455C609 419 608 383 604 349ZM814 348L676 348C679 383 680 418 680 454L680 611L814 611Z"/><animate attributeName="opacity" values="0;1;1;0;0" dur="2s" repeatCount="indefinite"/></svg></svg>