<svg id="U600B" viewBox="0 0 1000 1000"><path transform="translate(0, 900) scale(1,-1)" d="M171 840L171-79L244-79L244 840ZM79 647C72 566 54 456 28 390L87 369C113 442 131 558 136 639ZM247 656C276 595 307 515 318 466L374 493C362 540 330 618 299 678ZM378-83C397-70 429-57 649 12C646 28 643 59 644 79L467 29L467 291L661 291C691 77 756-70 862-70C925-70 952-30 962 112C943 118 917 133 900 147C897 48 888 4 867 4C809 3 760 116 734 291L950 291L950 361L726 361C721 407 718 457 717 509L909 509L909 793L398 793L398 50C398 12 369-5 349-13C362-31 374-64 378-83ZM653 361L467 361L467 509L642 509C644 458 648 408 653 361ZM467 724L837 724L837 579L467 579Z"/></svg>