<svg id="U6197" viewBox="0 0 1000 1000"><path transform="translate(0, 900) scale(1,-1)" d="M302 180L302 29C302-47 328-68 432-68C454-68 601-68 624-68C706-68 729-41 738 73C718 77 687 88 671 100C667 12 659 0 617 0C585 0 462 0 437 0C385 0 376 5 376 30L376 180ZM379 215C442 183 514 131 548 91L600 138C565 177 492 227 428 256ZM716 153C789 97 864 14 894-47L959-8C927 54 849 135 776 190ZM178 181C159 100 115 31 39-8L100-52C183-7 221 72 245 158ZM639 654L804 654C787 583 762 522 727 470C689 525 660 587 639 654ZM629 840C605 728 560 624 495 555C511 544 537 519 547 507C566 528 583 552 599 579C623 520 651 465 686 417C635 361 571 319 493 288C507 274 528 244 536 228C612 263 676 307 729 362C783 302 847 254 923 223C934 241 954 267 970 280C892 308 825 354 771 414C819 480 853 559 876 654L954 654L954 718L664 718C677 753 687 789 696 826ZM132 657C117 582 87 517 37 472C50 464 73 446 81 438C105 461 126 489 143 522C161 502 176 482 185 466L228 496C216 517 190 547 165 571C174 596 182 622 187 650ZM409 656C397 589 371 534 325 495L325 681L518 681L518 743L325 743L325 840L257 840L257 743L54 743L54 681L257 681L257 521C212 429 123 337 37 294C51 282 71 259 81 244C144 280 208 343 257 414L257 222L325 222L325 408C371 371 431 321 457 296L496 349C469 371 360 450 325 472L325 493C338 485 360 470 369 461C389 479 406 501 421 526C447 500 473 470 487 449L529 483C511 509 476 546 443 573C453 597 460 622 465 649Z"/></svg>