<svg id="U615B" viewBox="0 0 1000 1000"><path transform="translate(0, 900) scale(1,-1)" d="M169 840L169-82L239-82L239 840ZM75 647C69 569 55 458 33 390L87 372C109 447 124 563 127 640ZM254 659C276 604 299 531 308 487L363 513C354 554 330 625 307 678ZM381 808L381 609L927 609L927 808L855 808L855 669L691 669L691 839L620 839L620 669L450 669L450 808ZM636 567C651 538 665 501 674 472L479 472C493 502 506 533 517 564L452 583C415 476 349 372 279 305C290 288 308 248 313 231C338 256 363 285 387 318L387-76L454-76L454-21L959-21L959 40L743 40L743 128L929 128L929 185L743 185L743 270L929 270L929 328L743 328L743 411L944 411L944 472L731 472L748 477C741 506 721 551 703 584ZM454 40L454 128L672 128L672 40ZM454 270L672 270L672 185L454 185ZM454 328L454 411L672 411L672 328Z"/></svg>