<svg id="U617F" viewBox="0 0 1000 1000"><path transform="translate(0, 900) scale(1,-1)" d="M305 159L305 29C305-46 330-65 436-65C458-65 609-65 633-65C715-65 738-40 747 71C727 75 697 85 680 97C676 12 668 1 626 1C593 1 466 1 442 1C388 1 378 5 378 29L378 159ZM398 186C459 158 528 111 561 74L611 119C577 156 507 200 446 227ZM726 130C796 78 868 1 897-55L961-16C930 41 855 116 785 166ZM178 162C159 88 115 22 41-14L100-57C181-15 220 59 243 139ZM65 766C127 738 204 691 241 656L286 713C248 747 171 791 109 817ZM54 296L108 241C169 316 238 411 293 493L248 541C186 453 108 354 54 296ZM417 644L598 644L598 587L417 587ZM417 694L417 750L598 750L598 694ZM417 537L598 537L598 480L417 480ZM345 480L345 425L852 425C843 316 832 272 819 258C813 251 806 249 794 250C782 250 754 250 723 253C730 238 737 214 738 197C772 195 805 195 824 197C845 199 862 204 876 219C897 242 910 301 921 452C923 461 924 480 924 480L667 480L667 537L864 537L864 587L667 587L667 644L861 644L861 694L667 694L667 750L897 750L897 805L345 805ZM604 420L604 362L471 362L471 420L408 420L408 362L257 362L257 313L397 313C382 282 343 253 251 234C266 222 287 200 295 184C413 215 454 262 466 313L604 313L604 200L667 200L667 313L811 313L811 362L667 362L667 420Z"/></svg>