<svg id="U61AC" viewBox="0 0 1000 1000"><svg id="U61AChk" viewBox="0 0 1000 1000"><path transform="translate(0, 900) scale(1,-1)" d="M468 295L796 295L796 200L468 200ZM735 88C790 43 857-23 888-64L947-28C915 13 846 76 792 120ZM461 640L807 640L807 579L461 579ZM461 750L807 750L807 689L461 689ZM389 800L389 527L881 527L881 800ZM449 121C412 65 350 12 289-23C306-33 334-55 347-66C407-27 474 37 516 100ZM174 840L174-79L246-79L246 840ZM85 647C78 566 60 456 34 390L94 369C121 441 139 557 144 639ZM255 661C275 607 297 534 306 490L363 515C354 556 331 627 308 680ZM564 509L591 460L325 460L325 400L941 400L941 460L666 460C655 481 640 506 628 525ZM398 349L398 147L596 147L596-6C596-15 593-18 581-18C570-19 536-19 494-18C504-36 514-61 517-80C574-80 612-80 637-69C663-59 669-43 669-7L669 147L869 147L869 349Z"/><animate attributeName="opacity" values="1;0;0;1;1" dur="2s" repeatCount="indefinite"/></svg><svg id="U61ACjp" viewBox="0 0 1000 1000"><path transform="translate(0, 900) scale(1,-1)" d="M500 299L810 299L810 200L500 200ZM759 87C808 41 866-23 893-64L954-28C925 12 865 74 817 117ZM488 650L823 650L823 588L488 588ZM488 761L823 761L823 699L488 699ZM462 120C431 68 378 18 322-17C339-27 368-47 381-59C434-20 494 41 531 101ZM178 840L178-79L251-79L251 840ZM79 647C77 559 61 451 27 390L79 366C116 435 132 549 133 640ZM260 670C290 614 320 538 330 492L381 518C370 563 339 635 307 690ZM419 812L419 536L615 536L615 468L336 468L336 408L957 408L957 468L689 468L689 536L895 536L895 812ZM427 353L427 146L615 146L615-5C615-15 612-18 600-18C588-19 550-19 506-18C516-36 525-61 529-80C588-80 629-80 655-70C682-60 689-43 689-7L689 146L885 146L885 353Z"/><animate attributeName="opacity" values="0;1;1;0;0" dur="2s" repeatCount="indefinite"/></svg></svg>