<svg id="U6195" viewBox="0 0 1000 1000"><path transform="translate(0, 900) scale(1,-1)" d="M166 840L166-79L234-79L234 840ZM78 647C71 569 56 458 32 390L87 371C110 446 127 562 131 640ZM249 662C265 615 283 552 291 515L345 538C337 573 317 633 299 679ZM483 364L781 364L781 237L483 237ZM414 423L414 178L852 178L852 423ZM743 168C728 123 699 57 673 16L509 16L560 37C552 70 531 125 511 166L449 144C466 104 485 51 493 16L316 16L316-49L948-49L948 16L747 16C770 53 797 101 820 144ZM711 830L650 816C678 708 713 627 758 562L515 562C558 626 592 702 613 788L570 805L559 802L361 802L361 742L533 742C520 705 504 670 485 637C458 657 421 681 391 698L355 655C387 635 424 608 451 586C406 525 351 475 293 445C308 433 328 407 338 390C397 426 454 478 501 543L501 501L774 501L774 540C814 487 862 445 920 407C929 428 949 452 967 466C918 496 876 529 841 569C874 589 913 617 944 643L903 692C880 669 840 634 808 610C793 631 780 653 768 678C801 699 842 729 878 757L835 805C813 782 777 750 746 725C733 757 722 791 711 830Z"/></svg>