<svg id="U611B" viewBox="0 0 1000 1000"><svg id="U611Bhk" viewBox="0 0 1000 1000"><path transform="translate(0, 900) scale(1,-1)" d="M688 463C745 416 812 349 842 304L897 344C866 390 797 455 739 499ZM227 486C206 427 165 367 105 334L157 291C223 331 262 397 285 462ZM755 755C734 712 694 648 663 607L484 607L545 629C537 660 515 705 490 741C632 752 767 767 869 788L819 841C658 808 356 787 111 781C118 766 125 740 127 723L233 726L201 713C226 682 252 640 265 607L79 607L79 432L150 432L150 546L436 546L406 514C460 491 523 454 556 426L595 472C566 496 513 524 466 546L847 546L847 425L922 425L922 607L739 607C768 643 800 687 828 728ZM419 732C446 694 471 642 479 607L302 607L334 621C324 652 299 695 270 728L432 737ZM325 488L325 392C325 345 337 324 379 316C307 232 186 160 67 115C83 104 109 78 120 65C175 89 232 120 286 156C324 117 370 83 422 53C313 16 185-7 54-19C68-34 87-65 94-82C237-64 379-34 500 15C618-35 759-66 908-81C918-62 936-31 952-15C818-5 691 18 582 54C661 96 727 149 773 217L725 249L712 246L400 246C421 265 439 285 456 306L439 312L600 312C666 312 685 331 692 413C674 416 647 424 633 434C629 375 623 368 592 368C565 368 464 368 445 368C403 368 395 371 395 392L395 488ZM501 85C435 114 378 149 336 192L660 191C619 149 565 113 501 85Z"/><animate attributeName="opacity" values="1;0;0;1;1" dur="2s" repeatCount="indefinite"/></svg><svg id="U611Btc" viewBox="0 0 1000 1000"><path transform="translate(0, 900) scale(1,-1)" d="M688 463C745 416 812 349 842 304L897 344C866 390 797 455 739 499ZM224 491C205 433 168 375 114 342L167 301C227 339 261 405 282 467ZM755 755C734 712 694 648 663 607L477 607L539 630C532 661 509 706 483 740C628 751 766 767 869 788L819 841C658 808 356 787 111 781C118 766 125 740 127 723L256 727L202 705C226 676 249 637 262 607L79 607L79 432L150 432L150 546L436 546L406 514C460 491 523 454 556 426L595 472C566 496 513 524 466 546L847 546L847 425L922 425L922 607L739 607C768 643 800 687 828 728ZM421 720C445 685 467 639 474 607L293 607L330 623C319 653 292 697 265 728C335 731 406 735 475 740ZM325 488L325 392C325 345 337 324 379 316C348 280 308 246 263 215C238 238 215 262 196 288L137 262C158 233 182 206 208 181C163 155 115 133 67 115C83 104 109 78 120 65C165 85 212 110 257 138C304 102 356 70 413 43C305 11 182-9 57-19C70-34 89-65 95-83C239-66 380-39 503 6C622-37 760-65 908-78C917-58 935-27 950-9C824 0 706 19 600 48C685 91 756 146 805 216L758 249L745 246L400 246C421 265 439 285 456 306L439 312L600 312C666 312 685 331 692 413C674 416 647 424 633 434C629 375 623 368 592 368C565 368 464 368 445 368C403 368 395 371 395 392L395 488ZM509 77C435 104 370 136 314 175L331 188L688 188C642 143 581 106 509 77Z"/><animate attributeName="opacity" values="0;1;1;0;0" dur="2s" repeatCount="indefinite"/></svg></svg>