<svg id="U6210" viewBox="0 0 1000 1000"><path transform="translate(0, 900) scale(1,-1)" d="M544 839C544 782 546 725 549 670L128 670L128 389C128 259 119 86 36-37C54-46 86-72 99-87C191 45 206 247 206 388L206 395L389 395C385 223 380 159 367 144C359 135 350 133 335 133C318 133 275 133 229 138C241 119 249 89 250 68C299 65 345 65 371 67C398 70 415 77 431 96C452 123 457 208 462 433C462 443 463 465 463 465L206 465L206 597L554 597C566 435 590 287 628 172C562 96 485 34 396-13C412-28 439-59 451-75C528-29 597 26 658 92C704-11 764-73 841-73C918-73 946-23 959 148C939 155 911 172 894 189C888 56 876 4 847 4C796 4 751 61 714 159C788 255 847 369 890 500L815 519C783 418 740 327 686 247C660 344 641 463 630 597L951 597L951 670L626 670C623 725 622 781 622 839ZM671 790C735 757 812 706 850 670L897 722C858 756 779 805 716 836Z"/></svg>