<svg id="U6260" viewBox="0 0 1000 1000"><svg id="U6260hk" viewBox="0 0 1000 1000"><path transform="translate(0, 900) scale(1,-1)" d="M566 609C604 554 648 476 667 429L730 465C709 511 662 585 624 640ZM176 839L176 638L46 638L46 568L176 568L176 348C123 334 74 321 34 311L56 238L176 274L176 14C176 0 171-5 157-5C144-5 101-6 54-4C63-24 73-54 76-73C145-73 186-71 212-59C238-48 248-28 248 14L248 295L383 336L373 405L248 369L248 568L370 568L370 638L248 638L248 839ZM843 686C810 497 745 348 657 234C573 354 521 508 488 686ZM389 757L389 686L416 686C454 480 511 307 604 173C520 86 420 25 309-12C325-27 345-59 355-78C467-36 567 26 652 112C722 32 808-30 916-73C928-53 952-22 969-6C861 33 774 93 705 172C815 307 893 494 927 745L878 761L864 757Z"/><animate attributeName="opacity" values="1;0;0;1;1" dur="2s" repeatCount="indefinite"/></svg><svg id="U6260jp" viewBox="0 0 1000 1000"><path transform="translate(0, 900) scale(1,-1)" d="M550 592C602 541 665 471 694 426L748 473C718 516 654 584 601 631ZM487 584L416 567C457 419 515 288 592 180C506 90 406 26 298-14C315-29 336-58 346-78C455-33 555 31 641 118C716 32 807-36 917-82C930-61 953-30 972-14C861 27 769 93 694 177C807 315 891 501 931 744L880 762L866 759L403 759L403 687L843 687C805 504 735 355 644 240C573 337 522 454 487 584ZM187 840L187 638L44 638L44 567L187 567L187 353L28 310L50 237L187 278L187 8C187-6 181-10 168-11C155-11 113-11 68-10C78-30 88-61 91-79C158-80 198-77 225-66C250-54 260-34 260 9L260 300L387 339L378 409L260 374L260 567L376 567L376 638L260 638L260 840Z"/><animate attributeName="opacity" values="0;1;1;0;0" dur="2s" repeatCount="indefinite"/></svg></svg>