<svg id="U6275" viewBox="0 0 1000 1000"><path transform="translate(0, 900) scale(1,-1)" d="M548 405C616 355 703 282 744 236L794 291C752 336 663 405 596 453ZM485 149C593 89 723-4 784-69L836-7C772 57 639 145 532 202ZM189 840L189 638L46 638L46 568L189 568L189 352C131 336 77 322 34 311L56 238L189 277L189 15C189 1 184-3 170-4C157-4 113-5 67-3C76-22 86-53 89-72C158-72 200-71 226-59C252-47 262-27 262 15L262 299L395 339L386 408L262 372L262 568L384 568L384 638L262 638L262 840ZM641 844C591 691 492 561 366 491C384 475 407 450 418 430C520 495 602 590 660 704C727 597 825 492 919 438C932 457 956 485 974 499C867 551 752 666 692 775L709 822Z"/></svg>