<svg id="U6229" viewBox="0 0 1000 1000"><svg id="U6229hk" viewBox="0 0 1000 1000"><path transform="translate(0, 900) scale(1,-1)" d="M761 769C803 722 847 657 864 614L919 648C900 690 854 753 812 798ZM67 792L67 730L540 730L540 792ZM47 443L47 380L562 380L562 443ZM648 835C651 735 656 639 663 549L571 538L578 471L669 482C682 349 699 232 724 141C670 68 606 8 534-31C553-44 576-65 588-82C647-47 701 4 749 63C783-22 826-72 881-74C919-75 956-32 976 120C964 127 935 145 922 160C914 66 901 12 881 12C850 14 823 58 800 133C856 220 901 320 930 421L873 451C851 371 818 293 777 221C761 297 748 388 737 491L944 516L936 583L731 558C724 645 719 739 717 835ZM72 488L74 489C87 495 113 500 240 514L247 477L297 490C290 532 269 598 245 646L199 634C209 612 219 588 227 563L134 555C158 594 183 645 200 695L138 712C124 653 92 591 83 576C74 559 64 549 53 546C59 533 67 509 72 495ZM323 493L324 489C337 495 363 500 495 512C499 497 502 484 504 472L556 486C547 530 524 596 495 646L447 633C458 611 469 587 479 563L384 556C408 594 433 644 449 692L386 710C373 652 341 592 332 577C323 561 313 552 303 549C310 535 319 507 323 493ZM168 111L439 111L439 21L168 21ZM168 168L168 259L439 259L439 168ZM98 321L98-80L168-80L168-37L439-37L439-76L511-76L511 321Z"/><animate attributeName="opacity" values="1;0;0;1;1" dur="2s" repeatCount="indefinite"/></svg><svg id="U6229jp" viewBox="0 0 1000 1000"><path transform="translate(0, 900) scale(1,-1)" d="M782 762C819 715 862 650 882 609L938 642C918 681 873 744 837 790ZM68 783L68 720L553 720L553 783ZM39 431L39 369L570 369L570 431ZM42 529L48 474C108 479 178 483 252 490L261 458L309 477C300 512 276 570 253 612L208 598L233 540L147 535C169 582 193 643 214 694L153 710C140 658 115 585 92 532ZM303 532L311 477L511 490L527 454L576 478C561 516 524 578 491 624L445 603C458 584 471 562 484 540L382 535C405 582 431 642 452 692L390 709C376 658 350 584 327 533ZM171 106L449 106L449 17L171 17ZM171 161L171 250L449 250L449 161ZM105 307L105-80L171-80L171-39L449-39L449-77L518-77L518 307ZM870 465C846 386 811 308 766 237C752 307 741 390 732 482L965 507L957 573L726 548C719 638 714 734 712 833L641 833C644 730 649 632 656 541L571 532L579 465L661 474C672 352 688 244 710 157C656 90 593 34 525-2C544-15 568-38 581-56C636-23 688 22 734 76C769-23 816-80 880-83C919-84 957-40 977 119C964 126 935 144 921 159C913 60 900 5 880 6C844 8 814 59 789 145C849 232 898 332 929 433Z"/><animate attributeName="opacity" values="0;1;1;0;0" dur="2s" repeatCount="indefinite"/></svg></svg>