<svg id="U627E" viewBox="0 0 1000 1000"><path transform="translate(0, 900) scale(1,-1)" d="M676 778C725 735 784 671 811 629L871 673C843 714 782 774 733 816ZM189 840L189 638L46 638L46 568L189 568L189 352C131 336 77 322 34 311L56 238L189 277L189 15C189 1 184-3 170-4C157-4 113-5 67-3C76-22 86-53 89-72C158-72 200-71 226-59C252-47 262-27 262 15L262 299L395 339L386 408L262 372L262 568L384 568L384 638L262 638L262 840ZM829 465C795 389 746 314 686 246C664 320 646 410 633 510L941 543L933 613L625 581C616 661 610 747 607 837L531 837C535 744 542 656 550 573L396 557L404 486L558 502C573 379 595 271 624 182C548 109 459 50 367 13C387-2 412-25 425-45C505-9 583 44 653 107C702-2 768-68 858-75C909-79 949-28 971 135C955 141 923 160 907 176C898 65 882 11 855 13C798 19 750 75 713 167C787 246 849 336 891 428Z"/></svg>