<svg id="U63E9" viewBox="0 0 1000 1000"><svg id="U63E9hk" viewBox="0 0 1000 1000"><path transform="translate(0, 900) scale(1,-1)" d="M171 839L171 638L53 638L53 568L171 568L171 346C121 331 75 318 38 309L59 235L171 271L171 12C171-1 167-4 155-4C144-5 109-5 70-4C81-23 90-55 93-73C151-74 187-71 212-59C236-48 245-27 245 12L245 294L353 329L343 398L245 368L245 568L348 568L348 638L245 638L245 839ZM386 386C405 398 436 409 639 462C635 476 631 503 630 522L467 483L467 641L630 641L630 706L467 706L467 834L394 834L394 502C394 469 377 461 362 457C372 440 383 405 386 386ZM666 834L666 502C666 426 684 405 760 405C776 405 855 405 871 405C934 405 953 435 960 547C940 551 911 563 896 575C893 485 889 470 864 470C847 470 784 470 771 470C744 470 739 475 739 502L739 641L938 641L938 705L739 705L739 834ZM411 332L411-82L485-82L485-43L817-43L817-78L894-78L894 332L642 332L682 405L600 423C593 397 580 362 568 332ZM485 117L817 117L817 18L485 18ZM485 176L485 271L817 271L817 176Z"/><animate attributeName="opacity" values="1;0;0;0;0;1;1" dur="3s" repeatCount="indefinite"/></svg><svg id="U63E9jp" viewBox="0 0 1000 1000"><path transform="translate(0, 900) scale(1,-1)" d="M332 456L349 387C433 404 538 425 642 448L638 510L467 479L467 632L630 632L630 699L467 699L467 841L398 841L398 467ZM893 753C856 726 797 696 739 671L739 841L668 841L668 496C668 422 687 402 764 402C779 402 865 402 882 402C943 402 962 430 969 533C949 537 921 547 906 559C903 479 898 464 875 464C857 464 786 464 773 464C744 464 739 469 739 497L739 608C809 633 888 665 945 701ZM408 325L408-78L477-78L477-44L818-44L818-75L889-75L889 325L646 325L683 407L604 422C597 394 585 357 573 325ZM477 114L818 114L818 17L477 17ZM477 172L477 263L818 263L818 172ZM167 839L167 638L42 638L42 568L167 568L167 359L28 317L47 245L167 283L167 7C167-7 162-11 150-11C138-12 99-12 56-10C65-31 75-62 77-80C141-81 179-78 203-66C228-55 237-34 237 7L237 306L347 343L336 412L237 381L237 568L345 568L345 638L237 638L237 839Z"/><animate attributeName="opacity" values="0;1;1;0;0;0;0" dur="3s" repeatCount="indefinite"/></svg><svg id="U63E9sc" viewBox="0 0 1000 1000"><path transform="translate(0, 900) scale(1,-1)" d="M168 839L168 638L52 638L52 570L168 570L168 347C119 332 73 319 37 309L57 235L168 271L168 5C168-8 163-13 151-13C139-13 100-13 57-12C67-32 76-63 79-81C143-81 182-79 206-67C231-56 241-36 241 5L241 296L348 331L337 400L241 370L241 570L345 570L345 638L241 638L241 839ZM394 388C412 400 441 410 628 456C626 472 624 499 623 519L475 488L475 631L631 631L631 696L475 696L475 830L402 830L402 514C402 474 380 456 363 448C375 434 389 405 394 388ZM906 760C863 730 797 692 738 664L738 830L667 830L667 508C667 434 686 414 761 414C777 414 857 414 874 414C936 414 955 443 961 554C942 559 914 570 898 582C896 492 892 477 866 477C850 477 784 477 771 477C743 477 738 482 738 508L738 602C804 630 891 671 953 713ZM403 333L403-79L475-79L475-41L819-41L819-75L894-75L894 333L642 333L682 411L601 429C594 402 582 365 570 333ZM475 118L819 118L819 18L475 18ZM475 176L475 271L819 271L819 176Z"/><animate attributeName="opacity" values="0;0;0;1;1;0;0" dur="3s" repeatCount="indefinite"/></svg></svg>