<svg id="U63D3" viewBox="0 0 1000 1000"><svg id="U63D3hk" viewBox="0 0 1000 1000"><path transform="translate(0, 900) scale(1,-1)" d="M384 821C405 778 431 719 443 682L502 710C491 746 465 802 442 845ZM147 840L147 638L46 638L46 569L147 569L147 349L35 309L56 241L147 276L147 11C147-2 143-5 131-5C120-6 86-6 46-5C55-24 64-55 67-73C124-73 158-71 182-59C204-47 212-27 212 12L212 302L299 336L287 401L212 373L212 569L284 569L284 638L212 638L212 840ZM661 838C640 718 604 604 544 531C559 520 584 498 594 487C623 526 649 576 670 631L951 631L951 694L691 694C704 736 715 781 723 826ZM632 518L632 370L565 338L589 283L632 304L632 38C632-41 653-61 730-61C745-61 858-61 876-61C939-61 957-30 965 73C948 78 923 88 910 99C906 16 902 1 871 1C848 1 752 1 734 1C696 1 690 6 690 38L690 331L754 362L754 75L806 75L806 387L877 421C875 325 871 215 863 145L912 132C925 220 932 366 934 476L937 488L892 501L877 488L806 454L806 583L754 583L754 429L690 398L690 518ZM304 678L304 616L368 616C366 333 357 98 248-37C264-47 286-66 296-81C385 32 412 204 422 412L500 412C494 125 486 25 471 2C465-9 458-11 446-11C433-11 408-11 378-8C387-26 393-53 394-72C424-73 454-73 473-71C496-68 510-61 523-40C547-6 552 105 561 446C561 456 561 479 561 479L425 479L428 616L588 616L588 678Z"/><animate attributeName="opacity" values="1;0;0;0;0;1;1" dur="3s" repeatCount="indefinite"/></svg><svg id="U63D3jp" viewBox="0 0 1000 1000"><path transform="translate(0, 900) scale(1,-1)" d="M405 838L405 678L285 678L285 611L355 611C353 327 344 96 235-37C252-47 275-67 286-82C375 31 402 202 412 412L492 412C485 122 477 22 462-2C455-12 449-15 436-15C423-15 397-14 367-12C377-29 383-56 384-75C415-77 445-76 465-74C488-71 503-64 518-43C541-10 547 102 556 446C556 456 556 479 556 479L415 479L418 611L582 611C568 583 551 557 533 535C549 524 577 500 588 488C617 526 643 574 664 627L955 627L955 694L688 694C701 737 712 782 721 828L652 841C639 761 618 685 587 621L587 678L474 678L474 838ZM623 518L623 370L555 338L580 283L623 303L623 32C623-48 645-67 723-67C739-67 854-67 872-67C937-67 956-37 963 67C946 71 921 82 907 93C903 10 898-5 867-5C843-5 746-5 728-5C689-5 683 0 683 32L683 331L750 363L750 75L804 75L804 388L876 422C876 308 874 215 871 200C869 185 863 182 853 182C845 182 826 182 812 183C818 170 823 148 825 133C843 133 866 133 885 137C907 141 922 157 926 186C929 212 931 342 932 476L935 487L894 503L883 494L878 490L804 455L804 583L750 583L750 429L683 398L683 518ZM149 839L149 637L44 637L44 567L149 567L149 377C104 359 63 343 29 332L53 261L149 301L149 2C149-11 145-14 133-14C123-15 90-15 53-14C62-32 71-62 73-79C129-80 162-77 185-66C206-55 215-36 215 2L215 330L295 364L281 430L215 403L215 567L280 567L280 637L215 637L215 839Z"/><animate attributeName="opacity" values="0;1;1;0;0;0;0" dur="3s" repeatCount="indefinite"/></svg><svg id="U63D3sc" viewBox="0 0 1000 1000"><path transform="translate(0, 900) scale(1,-1)" d="M383 821C405 778 431 719 442 682L503 710C491 746 465 802 442 845ZM657 839C636 719 599 605 539 531C554 521 579 499 590 488C619 527 645 576 666 630L955 630L955 694L688 694C701 736 712 781 720 827ZM628 518L628 370L560 338L585 283L628 303L628 38C628-41 649-61 726-61C742-61 856-61 873-61C938-61 956-30 963 73C946 78 921 88 908 99C904 16 900 1 869 1C845 1 749 1 731 1C692 1 686 6 686 38L686 331L753 363L753 75L806 75L806 388L877 422C877 308 875 215 872 200C870 185 865 182 854 182C846 182 827 182 813 183C820 170 824 148 826 133C844 133 867 133 885 137C907 141 922 157 926 186C929 212 930 342 931 476L934 487L895 503L884 494L879 489L806 455L806 583L753 583L753 430L686 398L686 518ZM295 678L295 615L364 615C362 329 352 97 246-37C262-47 284-67 294-82C382 31 409 202 419 412L498 412C491 125 483 25 469 2C462-9 455-11 444-11C430-11 404-11 375-8C384-26 390-53 391-72C421-73 452-73 471-71C493-68 508-61 522-40C545-6 551 105 559 446C559 456 559 479 559 479L421 479L424 615L587 615L587 678ZM147 840L147 638L46 638L46 569L147 569L147 349C105 333 66 319 35 309L56 241L147 276L147 11C147-2 143-5 131-5C120-6 86-6 46-5C55-24 64-54 67-72C124-72 158-70 181-58C203-46 211-27 211 12L211 302L297 336L285 401L211 373L211 569L283 569L283 638L211 638L211 840Z"/><animate attributeName="opacity" values="0;0;0;1;1;0;0" dur="3s" repeatCount="indefinite"/></svg></svg>