<svg id="U6328" viewBox="0 0 1000 1000"><svg id="U6328hk" viewBox="0 0 1000 1000"><path transform="translate(0, 900) scale(1,-1)" d="M651 126C740 67 853-20 908-74L961-22C904 31 789 114 701 170ZM387 551C415 561 457 565 824 590C840 566 855 544 865 525L929 565C894 623 820 713 760 778L700 744C725 716 752 684 778 651L492 635C548 685 607 748 658 813L582 839C528 759 449 680 424 659C401 639 381 625 363 622C372 602 383 566 387 551ZM312 259L312 190L569 190C536 113 462 36 291-21C304-36 324-64 332-83C538-12 619 89 649 190L957 190L957 259L663 259C665 281 666 302 666 323L666 390L905 390L905 456L490 456C502 483 513 512 522 540L451 558C423 470 378 381 326 322C343 313 374 293 388 282C412 312 436 349 458 390L592 390L592 324C592 303 591 282 588 259ZM160 839L160 638L46 638L46 568L160 568L160 347L35 303L57 230L160 271L160 12C160 0 155-4 144-4C132-5 98-5 59-4C69-24 78-56 81-75C139-75 175-73 198-60C222-49 230-28 230 12L230 298L336 340L322 407L230 373L230 568L328 568L328 638L230 638L230 839Z"/><animate attributeName="opacity" values="1;0;0;0;0;1;1" dur="3s" repeatCount="indefinite"/></svg><svg id="U6328jp" viewBox="0 0 1000 1000"><path transform="translate(0, 900) scale(1,-1)" d="M723 731C750 706 779 676 806 645L548 635C582 692 618 762 647 823L570 842C548 780 507 695 471 633L379 630L386 560C509 565 687 574 858 583C877 559 893 536 905 517L964 557C928 616 847 703 779 766ZM363 252L363 186L607 186C578 110 508 34 345-24C359-37 380-63 388-79C552-19 630 60 667 143C718 35 802-42 922-80C932-60 952-32 968-17C848 13 764 86 718 186L952 186L952 252L695 252C697 274 698 295 698 316L698 386L918 386L918 452L542 452C555 481 567 511 577 541L507 557C478 466 429 377 369 317C386 308 416 287 430 276C457 306 484 344 508 386L628 386L628 317C628 296 627 274 624 252ZM187 840L187 638L44 638L44 567L187 567L187 353L28 310L50 237L187 278L187 8C187-6 181-10 168-11C155-11 113-11 68-10C78-30 88-61 91-79C158-80 198-77 225-66C250-54 260-34 260 9L260 300L387 339L378 409L260 374L260 567L372 567L372 638L260 638L260 840Z"/><animate attributeName="opacity" values="0;1;1;0;0;0;0" dur="3s" repeatCount="indefinite"/></svg><svg id="U6328sc" viewBox="0 0 1000 1000"><path transform="translate(0, 900) scale(1,-1)" d="M385 552C413 562 456 566 823 591C840 567 854 544 864 525L928 565C894 624 820 714 759 779L700 745C725 717 752 685 777 652L488 636C543 687 600 750 649 815L573 840C521 760 444 681 420 660C399 640 379 625 362 623C371 603 381 567 385 552ZM160 839L160 638L42 638L42 568L160 568L160 347C110 332 64 318 28 309L47 235L160 272L160 12C160-2 155-6 143-6C131-7 92-7 49-5C58-26 68-58 70-76C134-77 173-74 196-62C221-50 230-29 230 12L230 295L320 325L318 323C335 314 366 294 380 282C405 312 430 350 453 391L591 391L591 313C591 296 590 277 588 259L307 259L307 193L572 193C542 114 467 35 284-21C296-35 315-64 322-82C501-26 587 52 628 135C688 27 783-47 919-81C929-61 949-32 965-17C823 11 723 86 672 193L955 193L955 259L662 259C663 277 664 295 664 312L664 391L902 391L902 457L487 457C499 484 510 512 520 540L449 559C422 476 378 392 327 333L318 397L230 369L230 568L328 568L328 638L230 638L230 839Z"/><animate attributeName="opacity" values="0;0;0;1;1;0;0" dur="3s" repeatCount="indefinite"/></svg></svg>