<svg id="U63AE" viewBox="0 0 1000 1000"><svg id="U63AEhk" viewBox="0 0 1000 1000"><path transform="translate(0, 900) scale(1,-1)" d="M576 829C595 805 614 773 629 745L370 745L370 515C370 358 361 132 263-28C281-34 312-53 326-65C424 98 441 335 442 501L928 501L928 745L708 745C693 778 666 821 638 853ZM442 681L859 681L859 566L442 566ZM841 375L841 290L552 290L552 375ZM483 435L483-81L552-81L552 89L841 89L841 5C841-7 837-11 822-12C808-13 758-13 705-11C714-28 724-53 727-70C797-70 845-70 873-60C900-50 909-32 909 5L909 435ZM552 237L841 237L841 144L552 144ZM164 840L164 637L54 637L54 569L164 569L164 367L44 325L65 254L164 292L164 11C164-2 160-5 149-5C138-6 105-6 67-5C76-24 85-54 87-72C145-72 180-70 203-59C226-47 234-27 234 11L234 318L331 356L318 424L234 393L234 569L328 569L328 637L234 637L234 840Z"/><animate attributeName="opacity" values="1;0;0;0;0;1;1" dur="3s" repeatCount="indefinite"/></svg><svg id="U63AEjp" viewBox="0 0 1000 1000"><path transform="translate(0, 900) scale(1,-1)" d="M465 611L854 611L854 514L465 514ZM856 823C762 803 602 788 458 781L395 800L395 461C395 313 386 122 288-21C306-29 332-54 342-70C450 84 465 300 465 454L925 454L925 672L465 672L465 724C615 728 788 744 905 768ZM849 331L849 259L535 259L535 331ZM468 388L468-81L535-81L535 78L849 78L849-4C849-16 845-20 831-21C817-22 770-22 719-20C728-37 738-62 741-80C809-80 854-79 881-70C909-59 918-41 918-4L918 388ZM535 207L849 207L849 133L535 133ZM167 839L167 638L42 638L42 568L167 568L167 363L28 321L47 249L167 288L167 7C167-7 162-11 150-11C138-12 99-12 56-10C65-31 75-62 77-80C141-81 179-78 203-66C228-55 237-34 237 7L237 311L347 347L336 416L237 385L237 568L345 568L345 638L237 638L237 839Z"/><animate attributeName="opacity" values="0;1;1;0;0;0;0" dur="3s" repeatCount="indefinite"/></svg><svg id="U63AEtc" viewBox="0 0 1000 1000"><path transform="translate(0, 900) scale(1,-1)" d="M597 225C666 216 752 195 798 175L820 230C774 249 687 268 619 274ZM466 611L854 611L854 514L465 514ZM397 784C403 436 404 148 288-23C304-35 334-63 344-76C428 59 455 235 463 454L925 454L925 672L466 672L466 728C618 732 789 746 904 767L856 823C748 802 556 788 397 784ZM569 103L593 43C667 58 758 80 849 100L849-1C849-13 845-17 831-18C817-19 770-19 719-17C728-35 738-60 741-77C809-77 855-77 881-67C909-56 918-38 918-2L918 388L493 388L493 236C493 155 488 41 440-44C456-51 486-72 499-84C552 10 562 142 562 236L562 329L849 329L849 159C744 137 642 116 569 103ZM167 839L167 638L42 638L42 568L167 568L167 363L28 321L47 249L167 288L167 7C167-7 162-11 150-11C138-12 99-12 56-10C65-31 75-62 77-80C141-81 179-78 203-66C228-55 237-34 237 7L237 311L347 347L336 416L237 385L237 568L345 568L345 638L237 638L237 839Z"/><animate attributeName="opacity" values="0;0;0;1;1;0;0" dur="3s" repeatCount="indefinite"/></svg></svg>