<svg id="U63C7" viewBox="0 0 1000 1000"><svg id="U63C7hk" viewBox="0 0 1000 1000"><path transform="translate(0, 900) scale(1,-1)" d="M506 454C526 416 550 363 560 331L615 352C603 384 580 434 558 472ZM603 839L603 732L348 732L348 664L603 664L603 561L369 561L369-79L438-79L438 495L855 495L855 4C855-9 851-12 841-12C829-12 794-13 754-11C763-30 773-60 776-78C832-79 870-77 894-67C919-54 926-34 926 2L926 561L676 561L676 664L947 664L947 732L676 732L676 839ZM721 472C706 428 677 367 652 323L484 323L484 267L607 267L607 180L472 180L472 122L607 122L607-37L672-37L672 122L801 122L801 180L672 180L672 267L795 267L795 323L712 323C735 362 759 410 782 453ZM165 839L165 638L51 638L51 568L165 568L165 346L37 309L56 235L165 271L165 14C165 0 160-4 148-4C136-5 98-5 54-4C64-24 73-55 75-73C138-74 178-71 201-59C226-48 235-27 235 14L235 294L342 329L332 398L235 367L235 568L335 568L335 638L235 638L235 839Z"/><animate attributeName="opacity" values="1;0;0;1;1" dur="2s" repeatCount="indefinite"/></svg><svg id="U63C7sc" viewBox="0 0 1000 1000"><path transform="translate(0, 900) scale(1,-1)" d="M509 458C528 421 551 371 561 339L615 360C605 391 582 440 561 476ZM615 841C614 809 611 771 608 732L348 732L348 664L601 664C597 625 592 587 588 555L376 555L376-78L444-78L444 490L852 490L852 3C852-9 848-12 838-12C826-13 791-13 751-12C761-30 770-60 774-79C829-79 867-78 891-67C915-55 922-34 922 2L922 555L654 555L670 664L947 664L947 732L678 732L690 833ZM724 480C710 437 681 376 657 332L487 332L487 276L610 276L610 188L475 188L475 131L610 131L610-29L675-29L675 131L805 131L805 188L675 188L675 276L793 276L793 332L715 332C738 371 762 418 785 461ZM165 839L165 638L51 638L51 568L165 568L165 346L37 309L56 235L165 271L165 14C165 0 160-4 148-4C136-5 98-5 54-4C64-24 73-55 75-73C138-74 178-71 201-59C226-48 235-27 235 14L235 294L342 329L332 398L235 367L235 568L335 568L335 638L235 638L235 839Z"/><animate attributeName="opacity" values="0;1;1;0;0" dur="2s" repeatCount="indefinite"/></svg></svg>