<svg id="U63A6" viewBox="0 0 1000 1000"><path transform="translate(0, 900) scale(1,-1)" d="M493 585L817 585L817 492L493 492ZM493 733L817 733L817 641L493 641ZM422 792L422 432L499 432C456 342 384 251 298 189C314 178 337 156 349 143C396 179 440 223 478 272L566 272C521 175 443 82 350 18C364 8 387-14 397-25C500 48 584 155 635 272L725 272C688 151 619 38 525-35C540-45 564-67 574-80C677 5 751 131 792 272L864 272C850 88 836 15 816-5C807-15 799-16 784-16C768-16 730-16 688-12C699-31 706-58 708-78C750-80 792-80 815-79C841-76 859-69 876-50C904-18 921 69 937 306C938 316 940 338 940 338L523 338C542 368 559 400 573 432L891 432L891 792ZM181 840L181 639L42 639L42 568L181 568L181 350L28 308L49 235L181 276L181 7C181-8 175-12 162-12C149-13 108-13 62-12C72-32 82-62 85-80C151-80 192-78 218-67C244-55 253-35 253 7L253 298L376 337L366 404L253 371L253 568L365 568L365 639L253 639L253 840Z"/></svg>