<svg id="U6353" viewBox="0 0 1000 1000"><svg id="U6353jp" viewBox="0 0 1000 1000"><path transform="translate(0, 900) scale(1,-1)" d="M164 840L164 638L42 638L42 568L164 568L164 364L27 323L46 251L164 289L164 6C164-8 159-12 147-12C135-13 96-13 53-12C62-32 71-62 74-80C137-81 176-78 199-67C224-55 233-35 233 6L233 311L341 348L334 393L506 393C455 251 371 108 283 35C299 24 320 1 331-15C412 60 490 188 544 326L544 6C544-7 540-10 528-11C515-12 478-12 435-10C445-29 456-61 459-79C514-80 551-77 575-65C598-54 607-32 607 7L607 393L663 393L663 460L607 460L607 729L654 729L654 792L379 792L379 460L332 460L332 410L331 417L233 386L233 568L325 568L325 638L233 638L233 840ZM544 460L440 460L440 729L544 729ZM687 793L687-81L750-81L750 727L872 727C852 647 827 552 798 453C865 350 893 283 893 220C893 183 888 145 872 133C864 126 854 124 843 124C829 122 808 123 788 125C800 106 806 78 807 60C828 59 852 59 869 61C888 64 906 69 918 80C946 103 960 158 959 219C959 285 929 361 862 462C898 572 930 681 955 770L905 797L896 793Z"/><animate attributeName="opacity" values="1;0;0;1;1" dur="2s" repeatCount="indefinite"/></svg><svg id="U6353sc" viewBox="0 0 1000 1000"><path transform="translate(0, 900) scale(1,-1)" d="M672 795L672-80L733-80L733 728L874 728C851 649 820 538 789 451C862 358 881 283 881 219C881 185 876 151 860 139C851 132 839 129 826 128C810 127 788 127 763 130C775 110 781 80 782 61C805 59 831 59 851 62C872 64 891 71 905 82C931 104 943 153 943 212C942 283 926 363 851 459C886 555 925 673 953 767L908 799L898 795ZM148 840L148 638L48 638L48 568L148 568L148 350C107 334 70 320 39 309L58 237L148 274L148 11C148-2 144-5 133-5C123-6 90-6 54-5C62-24 71-54 74-72C127-72 160-70 182-58C203-46 211-27 211 12L211 301L298 338L285 406L211 376L211 568L285 568L285 638L211 638L211 840ZM359 679C350 590 333 469 319 397L342 397L451 396C411 259 343 119 271 47C286 35 308 11 321-6C393 73 459 209 503 351L503 10C503-2 499-5 487-6C474-7 438-7 394-6C404-25 415-58 418-76C473-76 511-74 534-62C557-49 566-28 566 11L566 396L646 396L646 463L566 463L566 722L635 722L635 790L319 790L319 722L503 722L503 463L393 463C403 529 414 608 421 674Z"/><animate attributeName="opacity" values="0;1;1;0;0" dur="2s" repeatCount="indefinite"/></svg></svg>