<svg id="U643D" viewBox="0 0 1000 1000"><svg id="U643Dhk" viewBox="0 0 1000 1000"><path transform="translate(0, 900) scale(1,-1)" d="M600 413L600 296L393 296L393 230L562 230C501 142 409 61 318 8C335-4 364-29 376-41C453 10 536 84 600 166L600-79L673-79L673 168C754 100 840 21 887-29L941 20C888 73 789 159 700 230L871 230L871 296L673 296L673 413ZM617 644C565 528 468 429 355 362L345 430L242 398L242 583L348 583L348 653L242 653L242 840L169 840L169 653L46 653L46 583L169 583L169 376C118 361 71 347 33 337L53 260L169 299L169 7C169-6 164-10 153-10C140-11 103-11 62-10C71-30 81-61 84-79C146-80 184-77 208-66C232-54 242-34 242 7L242 323L346 357C324 344 301 333 278 323C296 308 316 283 326 265C449 324 557 416 632 530C707 433 821 341 925 295C937 315 960 343 977 357C863 400 735 495 667 587L683 619ZM451 839L451 736L330 736L330 671L451 671L451 564L518 564L518 671L621 671L621 736L518 736L518 839ZM658 736L658 671L758 671L758 564L827 564L827 671L956 671L956 736L827 736L827 839L758 839L758 736Z"/><animate attributeName="opacity" values="1;0;0;0;0;0;0;1;1" dur="4s" repeatCount="indefinite"/></svg><svg id="U643Djp" viewBox="0 0 1000 1000"><path transform="translate(0, 900) scale(1,-1)" d="M599 418L599 299L392 299L392 233L564 233C508 143 415 57 324 16C342 2 362-22 373-40C455 5 540 85 599 170L599-81L670-81L670 178C733 90 818 10 900-34C911-16 933 9 949 22C860 64 767 147 707 233L881 233L881 299L670 299L670 418ZM180 839L180 653L44 653L44 583L180 583L180 391C122 373 69 358 27 347L46 274L180 317L180 11C180-3 175-8 162-8C149-8 108-8 62-7C72-28 82-60 85-79C151-80 191-77 217-65C243-53 252-31 252 12L252 340L350 372C334 362 317 354 300 346C313 329 328 302 335 284C459 346 578 452 637 550C705 446 830 345 944 290C954 310 968 338 982 356C867 402 743 501 668 616L599 616C551 527 459 436 357 376L347 442L252 412L252 583L349 583L349 653L252 653L252 839ZM739 840L739 739L537 739L537 840L467 840L467 739L332 739L332 673L467 673L467 577L537 577L537 673L739 673L739 577L808 577L808 673L955 673L955 739L808 739L808 840Z"/><animate attributeName="opacity" values="0;1;1;0;0;0;0;0;0" dur="4s" repeatCount="indefinite"/></svg><svg id="U643Dsc" viewBox="0 0 1000 1000"><path transform="translate(0, 900) scale(1,-1)" d="M467 186C427 132 368 72 315 30C332 20 359-4 372-16C423 30 487 102 533 161ZM729 149C785 99 847 28 875-19L929 24C900 71 838 137 780 186ZM597 412L597 299L376 299L376 231L597 231L597 5C597-6 593-9 581-9C569-10 531-10 487-9C496-29 507-60 509-79C571-79 609-79 635-67C661-55 668-33 668 4L668 231L884 231L884 299L668 299L668 412ZM738 832L738 733L535 733L535 832L465 832L465 733L336 733L336 665L465 665L465 569L535 569L535 665L738 665L738 569L807 569L807 665L939 665L939 733L807 733L807 832ZM157 840L157 638L54 638L54 568L157 568L157 349C112 333 70 318 37 308L56 236L157 274L157 8C157-4 154-7 143-7C134-7 105-8 71-7C80-26 89-57 92-74C143-74 176-72 198-61C220-49 228-30 228 8L228 301L320 336C331 324 342 311 348 300C459 351 556 429 629 524C702 431 812 342 913 297C925 317 949 345 966 360C855 399 733 489 665 578L691 623L625 648C566 527 451 424 322 365L314 406L228 374L228 568L318 568L318 638L228 638L228 840Z"/><animate attributeName="opacity" values="0;0;0;1;1;0;0;0;0" dur="4s" repeatCount="indefinite"/></svg><svg id="U643Dtc" viewBox="0 0 1000 1000"><path transform="translate(0, 900) scale(1,-1)" d="M464 193C429 132 378 63 332 15C349 6 378-13 392-24C436 27 492 105 531 171ZM733 159C789 107 849 33 877-15L932 25C904 73 843 143 785 193ZM595 418L595 299L375 299L375 233L595 233L595-79L668-79L668 233L882 233L882 299L668 299L668 418ZM623 651C569 536 464 439 344 377L336 435L236 404L236 583L332 583L332 653L236 653L236 840L163 840L163 653L50 653L50 583L163 583L163 382C117 368 75 356 40 347L59 274L163 307L163 5C163-6 159-10 149-10C138-11 105-11 68-10C78-30 87-61 90-79C146-80 180-77 204-65C227-54 236-34 236 6L236 331L290 348C307 333 326 309 336 292C452 346 554 427 629 528C701 434 812 344 914 299C926 318 950 346 967 361C856 401 732 493 664 582L689 626ZM456 832L456 736L338 736L338 671L456 671L456 570L523 570L523 671L615 671L615 736L523 736L523 832ZM666 736L666 671L756 671L756 570L824 570L824 671L937 671L937 736L824 736L824 832L756 832L756 736Z"/><animate attributeName="opacity" values="0;0;0;0;0;1;1;0;0" dur="4s" repeatCount="indefinite"/></svg></svg>