<svg id="U6451" viewBox="0 0 1000 1000"><path transform="translate(0, 900) scale(1,-1)" d="M435 217L452 166C508 182 571 201 634 220L628 266C555 247 487 228 435 217ZM724 681C752 660 784 630 801 609L834 637C817 657 785 686 756 705ZM348 795L348-77L413-77L413-19L867-19L867-73L934-73L934 795ZM413 44L413 733L867 733L867 44ZM650 706L653 602L439 602L439 552L656 552C661 445 670 348 685 270C639 201 579 145 504 104C516 96 535 77 542 67C604 105 656 152 700 208C722 128 755 80 800 79C826 78 850 110 863 213C854 218 836 230 826 240C821 174 810 138 799 138C773 139 752 184 737 260C777 326 808 404 828 494L779 502C766 442 748 387 724 338C715 399 709 472 706 552L843 552L843 602L703 602L701 706ZM499 456L579 456L579 350L499 350ZM458 501L458 277L499 277L499 306L621 306L621 501ZM164 840L164 638L42 638L42 568L164 568L164 364L27 323L46 251L164 289L164 6C164-8 159-12 147-12C135-13 96-13 53-12C62-32 71-62 74-80C137-81 176-78 199-67C224-55 233-35 233 6L233 311L341 348L331 417L233 386L233 568L325 568L325 638L233 638L233 840Z"/></svg>