<svg id="U647B" viewBox="0 0 1000 1000"><svg id="U647Bhk" viewBox="0 0 1000 1000"><path transform="translate(0, 900) scale(1,-1)" d="M631 373C575 316 458 259 359 237C370 223 383 198 389 182C493 213 613 279 676 344ZM737 290C661 215 497 140 361 113C374 98 387 73 394 57C533 94 697 175 783 258ZM852 207C754 106 542 12 355-21C367-37 381-63 387-80C577-38 790 62 900 172ZM605 508L592 495C584 527 560 576 538 611L492 591C502 575 511 556 520 537L389 517C416 548 444 585 467 625L421 646C450 652 525 657 794 672C807 655 819 639 827 625L880 660C851 704 793 770 747 816L698 785C716 766 735 744 754 722L490 709C534 740 580 780 621 823L554 845C511 793 450 744 431 732C414 718 398 710 384 708C390 689 401 655 404 641L410 643C388 594 351 546 339 534C328 521 318 512 307 511C314 495 321 464 325 451C338 460 363 465 537 494L545 470L587 490C532 439 442 392 324 358L312 419L250 393L250 560L346 560L346 630L250 630L250 840L183 840L183 630L52 630L52 560L183 560L183 365C125 342 72 320 31 305L50 233L183 290L183 10C183-6 177-10 162-10C149-11 105-12 54-10C64-30 73-62 76-82C146-82 188-80 214-67C239-56 250-34 250 11L250 319L278 331C287 317 297 299 301 286C437 325 542 375 619 438C702 373 830 316 944 286C949 304 959 333 969 349C865 369 747 413 670 467C684 474 714 480 869 499C878 479 886 460 891 445L939 465C926 503 894 564 867 608L821 591C830 576 839 560 848 542L721 530C742 559 763 595 779 632L723 655C711 608 682 560 674 548C666 536 658 528 648 526L660 492ZM666 470L659 475L663 480Z"/><animate attributeName="opacity" values="1;0;0;1;1" dur="2s" repeatCount="indefinite"/></svg><svg id="U647Bjp" viewBox="0 0 1000 1000"><path transform="translate(0, 900) scale(1,-1)" d="M642 375C595 321 510 268 431 238C446 228 462 212 472 200C555 234 643 291 696 355ZM733 282C665 208 531 146 403 114C418 102 434 81 443 66C579 105 714 172 792 258ZM838 194C751 80 573 6 358-27C371-42 386-65 393-82C620-42 805 37 901 168ZM701 764C721 748 743 730 764 712L540 702C567 740 595 785 619 825L543 841C525 800 494 744 465 699L359 696L365 631L822 655C839 638 853 621 864 607L921 644C886 690 814 754 754 797ZM164 840L164 638L42 638L42 568L164 568L164 370L27 323L47 251L164 294L164 6C164-8 159-12 147-12C135-13 96-13 53-12C62-32 71-62 74-80C137-81 176-78 199-67C224-55 233-35 233 6L233 320L332 357L322 417L510 445C451 385 376 333 296 301C307 287 321 262 327 245C453 301 572 401 631 499C700 394 824 301 941 253C949 271 963 297 974 313C907 336 837 376 776 429L903 445L917 414L965 441C950 476 915 530 882 569L837 547C850 530 863 511 876 491L784 485C802 522 821 568 838 609L777 626C767 585 746 524 727 482L722 481C699 506 679 532 661 560L596 560C584 537 569 514 552 492C541 515 528 539 515 559L468 542C477 527 486 509 494 492L413 485C432 522 451 567 469 607L408 624C397 582 375 523 355 479L313 476L320 425L233 394L233 568L325 568L325 638L233 638L233 840Z"/><animate attributeName="opacity" values="0;1;1;0;0" dur="2s" repeatCount="indefinite"/></svg></svg>