<svg id="U64DF" viewBox="0 0 1000 1000"><path transform="translate(0, 900) scale(1,-1)" d="M158 840L158 638L43 638L43 568L158 568L158 361L29 323L49 251L158 286L158 3C158-10 154-14 142-14C131-15 95-15 53-14C62-33 71-64 75-81C134-81 171-79 193-67C217-56 226-36 226 3L226 308L325 341L314 410L226 382L226 568L298 568L262 545C277 534 302 509 312 496L336 513L336-82L400-82L400 495L586 495L586-78L644-78L644 47C656 41 672 30 680 24C704 47 728 77 750 110C767 93 781 76 791 60L821 91C810 108 793 128 772 147C787 174 801 202 811 231L767 240C759 218 750 197 739 176C722 189 704 201 687 211L658 182C678 170 698 155 717 140C696 107 671 77 644 53L644 495L838 495L838 1C838-10 835-14 824-14C812-15 775-15 733-14C742-32 751-60 754-78C811-78 850-77 874-66C898-55 904-35 904 1L904 527L919 510L974 550C932 600 843 664 768 706L716 671C770 640 829 597 874 557L650 557L650 714L959 714L959 783L308 783L308 714L580 714L580 557L391 557C435 596 477 641 507 686L443 706C412 661 365 616 315 580L315 638L226 638L226 840ZM418 184C437 172 456 158 474 143C453 107 428 75 400 49C412 44 431 31 439 24C463 49 486 79 507 113C522 98 534 82 543 68L574 100C564 116 548 134 528 151C543 179 555 208 565 237L521 247C514 224 504 202 494 180C479 192 463 203 447 213ZM414 394C432 384 450 371 468 358C448 329 427 302 403 279C415 273 434 262 442 256C462 277 482 302 500 330C518 314 532 298 542 284L573 316C561 332 544 350 523 368C537 394 550 421 561 448L519 458C511 436 500 415 489 394C474 404 458 414 443 422ZM657 397C677 385 697 371 715 356C696 325 673 297 648 274C660 269 679 257 687 251C708 272 728 299 747 328C765 311 779 295 789 280L820 310C809 327 791 347 770 365C785 390 797 417 808 443L766 454C758 433 748 412 737 392C721 404 704 415 687 424Z"/></svg>