<svg id="U64C3" viewBox="0 0 1000 1000"><svg id="U64C3hk" viewBox="0 0 1000 1000"><path transform="translate(0, 900) scale(1,-1)" d="M159 840L159 638L49 638L49 568L159 568L159 351L39 309L60 237L159 275L159 15C159 2 154-2 142-2C131-2 96-2 56-1C66-22 75-53 77-72C135-72 172-69 195-57C219-45 227-25 227 15L227 302L324 340L311 408L227 377L227 568L317 568L317 638L227 638L227 840ZM477-85C494-76 522-68 703-32C700-18 697 8 696 26L550 0L550 167L653 167C704 47 797-40 928-79C937-63 955-38 969-24C907-9 854 17 811 52C852 72 901 96 941 125L899 164C868 141 815 109 773 88C751 111 732 138 718 167L956 167L956 225L417 225L419 277L907 277L907 327L419 327L419 377L945 377L945 436L352 436L352 292C352 194 340 58 255-41C271-49 300-69 312-80C371-10 399 81 411 167L484 167L484 38C484-2 463-20 446-28C458-42 472-69 477-85ZM432 601L527 601L527 532L432 532ZM588 601L691 601L691 532L588 532ZM432 716L527 716L527 648L432 648ZM588 716L691 716L691 648L588 648ZM371 766L371 481L913 481L913 766L751 766L751 838L691 838L691 766L588 766L588 838L527 838L527 766ZM751 601L849 601L849 532L751 532ZM751 716L849 716L849 648L751 648Z"/><animate attributeName="opacity" values="1;0;0;1;1" dur="2s" repeatCount="indefinite"/></svg><svg id="U64C3sc" viewBox="0 0 1000 1000"><path transform="translate(0, 900) scale(1,-1)" d="M463 327L463 277L891 277L891 327ZM474-75C490-66 518-58 699-22C696-8 694 18 693 36L551 10L551 167L653 167C704 47 797-40 928-79C937-63 955-38 969-24C907-9 854 17 811 52C852 72 901 96 941 125L899 164C868 141 815 109 773 88C751 111 732 138 718 167L956 167L956 225L417 225C418 248 419 270 419 291L419 377L945 377L945 436L352 436L352 292C352 194 340 58 255-41C271-49 300-69 312-80C371-10 399 81 411 167L485 167L485 52C485 15 464 2 448-5C459-24 470-58 474-75ZM432 601L527 601L527 532L432 532ZM588 601L691 601L691 532L588 532ZM432 716L527 716L527 648L432 648ZM588 716L691 716L691 648L588 648ZM371 766L371 481L913 481L913 766L751 766L751 838L691 838L691 766L588 766L588 838L527 838L527 766ZM751 601L849 601L849 532L751 532ZM751 716L849 716L849 648L751 648ZM159 840L159 638L49 638L49 568L159 568L159 351C114 334 72 320 39 309L60 237L159 275L159 11C159-2 154-5 142-5C131-6 96-6 56-5C65-24 74-54 76-72C134-72 170-70 193-58C216-46 225-27 225 12L225 301L320 338L307 406L225 375L225 568L312 568L312 638L225 638L225 840Z"/><animate attributeName="opacity" values="0;1;1;0;0" dur="2s" repeatCount="indefinite"/></svg></svg>