<svg id="U648E" viewBox="0 0 1000 1000"><path transform="translate(0, 900) scale(1,-1)" d="M450 427L450 375L841 375L841 427ZM354 540L354 387L415 387L415 486L878 486L878 387L941 387L941 540ZM482 269L803 269L803 183L482 183ZM167 839L167 638L42 638L42 568L167 568L167 349C114 333 66 319 28 309L47 235L167 274L167 14C167 0 162-4 150-4C138-5 99-5 56-4C65-24 75-55 77-73C140-74 179-71 203-59C228-48 237-27 237 14L237 297L339 330L329 399L237 370L237 568L327 568L327 638L237 638L237 839ZM399 644L399 591L896 591L896 644L677 644L677 711L933 711L933 765L677 765L677 839L605 839L605 765L363 765L363 711L605 711L605 644ZM478 113C492 83 509 44 517 15L312 15L312-44L962-44L962 15L755 15L810 114L748 132L874 132L874 321L415 321L415 132L740 132C728 97 707 51 688 15L551 15L585 25C576 53 557 97 540 130Z"/></svg>