<svg id="U65DF" viewBox="0 0 1000 1000"><svg id="U65DFhk" viewBox="0 0 1000 1000"><path transform="translate(0, 900) scale(1,-1)" d="M549 94C504 47 427 2 357-27C372-40 397-64 406-77C477-42 561 15 612 71ZM705 55C777 16 869-42 915-79L955-32C907 6 814 61 743 97ZM599 460L599 408L697 408L697 249C697 241 695 239 686 239C677 238 655 238 624 239C639 278 648 329 653 379L609 386C604 331 597 278 573 237C585 232 604 221 613 215L622 234C628 220 635 203 636 189C678 189 707 189 726 199C745 208 749 223 749 249L749 460L652 460L652 520L752 520L752 573L652 573L652 641L599 641ZM551 620C518 598 468 574 424 554C451 586 475 623 497 665L961 665L961 727L527 727C540 759 552 792 562 826L496 841C467 738 417 640 352 575C369 567 398 548 410 538L417 546L427 169L365 169L365 108L958 108L958 169L902 169C909 282 912 461 913 593L772 593L772 538L855 538L854 453L772 453L772 399L853 399L851 314L772 314L772 259L849 259L845 169L489 169L487 259L567 259L567 314L485 314L483 399L567 399L567 453L481 453L479 521C515 535 552 551 584 568ZM137 815C163 770 195 710 209 673L40 673L40 608L133 608C129 359 118 105 27-35C46-46 70-65 82-81C155 35 182 211 193 404L284 404C276 122 265 22 249-2C242-12 235-15 222-14C209-14 181-14 150-12C160-29 166-56 166-76C199-77 231-77 251-74C275-71 290-65 305-44C331-10 340 101 349 436C350 446 350 469 350 469L196 469L200 608L378 608L378 673L221 673L282 697C267 735 234 796 205 840Z"/><animate attributeName="opacity" values="1;0;0;0;0;1;1" dur="3s" repeatCount="indefinite"/></svg><svg id="U65DFjp" viewBox="0 0 1000 1000"><path transform="translate(0, 900) scale(1,-1)" d="M599 376L599 197L641 197L641 376ZM555 99C510 49 433 0 363-32C377-43 402-69 412-81C483-43 567 17 618 77ZM715 68C783 24 867-39 909-80L964-42C920-1 834 60 767 101ZM496 841C467 739 417 641 351 577C368 568 396 550 409 539L427 560L435 172L369 172L369 112L962 112L962 172L900 172C906 285 910 461 911 593L769 593L769 538L851 538L850 453L769 453L769 399L849 399L847 314L769 314L769 259L845 259L842 172L741 172L741 463L649 463L649 523L747 523L747 573L649 573L649 641L599 641L599 412L694 412L694 172L493 172L492 259L571 259L571 314L491 314L489 399L571 399L571 453L488 453L486 523C516 538 554 560 585 583L543 622C522 605 486 579 456 560L433 567C455 594 475 625 493 659L958 659L958 721L524 721C538 755 551 790 562 826ZM180 838L180 673L40 673L40 608L133 608C129 359 118 105 27-35C46-46 70-65 82-81C155 35 182 211 193 404L284 404C276 122 265 22 249-2C242-12 235-15 222-14C209-14 181-14 150-12C160-29 166-56 166-76C199-77 231-77 251-74C275-71 290-65 305-44C331-10 340 101 349 436C350 446 350 469 350 469L196 469L200 608L378 608L378 673L248 673L248 838Z"/><animate attributeName="opacity" values="0;1;1;0;0;0;0" dur="3s" repeatCount="indefinite"/></svg><svg id="U65DFsc" viewBox="0 0 1000 1000"><path transform="translate(0, 900) scale(1,-1)" d="M558 99C513 49 436 0 366-32C380-43 405-69 415-81C486-43 570 17 621 77ZM715 68C783 24 867-39 909-80L964-42C920-1 834 60 767 101ZM427 551L427 548L425 547L427 541L436 172L369 172L369 112L962 112L962 172L900 172C906 285 910 461 911 593L769 593L769 538L851 538L850 453L769 453L769 399L849 399L847 314L769 314L769 259L845 259L842 172L741 172L741 463L649 463L649 523L747 523L747 573L649 573L649 641L599 641L599 412L694 412L694 172L641 172L641 375L599 375L599 172L494 172L492 259L571 259L571 314L491 314L489 399L571 399L571 453L488 453L486 519C518 533 552 549 580 564L553 618C521 595 473 570 431 550ZM496 841C467 738 417 640 352 575C369 567 398 548 410 538C440 571 469 612 494 659L961 659L961 721L524 721C539 755 551 790 562 826ZM138 815C162 770 190 710 204 673L40 673L40 608L133 608C129 359 118 105 27-35C46-46 70-65 82-81C155 35 182 211 193 404L284 404C276 122 265 22 249-2C242-12 235-15 222-14C209-14 181-14 150-12C160-29 166-56 166-76C199-77 231-77 251-74C275-71 290-65 305-44C331-10 340 101 349 436C350 446 350 469 350 469L196 469L200 608L378 608L378 673L214 673L269 697C256 735 225 796 199 840Z"/><animate attributeName="opacity" values="0;0;0;1;1;0;0" dur="3s" repeatCount="indefinite"/></svg></svg>