<svg id="U6515" viewBox="0 0 1000 1000"><path transform="translate(0, 900) scale(1,-1)" d="M795 764C831 712 872 641 891 596L947 623C928 667 887 735 848 786ZM302 33L311-27L680 20C655-7 627-31 598-51C612-60 631-77 640-88C690-53 735-10 773 43C798-34 833-78 882-80C914-81 946-45 966 79C954 88 929 107 918 124C912 50 901 3 885 4C858 6 837 47 822 119C866 200 900 298 920 410L865 436C852 356 832 284 805 220C796 295 790 387 786 493L951 493L951 557L784 557C782 644 781 738 782 838L713 838C714 738 715 644 718 557L314 557L314 493L445 493L445 428L354 428L354 376L445 376L445 309L356 309L356 258L445 258L445 191L351 191L351 138L445 138L445 49ZM501 493L558 493L558 62L501 55ZM614 375L697 375L697 427L614 427L614 493L720 493C726 342 736 214 755 118C739 93 723 70 705 48L704 79L614 68L614 138L701 138L701 191L614 191L614 258L694 258L694 309L614 309ZM425 837C408 741 372 656 313 600C327 592 352 575 363 566C391 595 415 631 435 673C455 657 476 640 487 627L520 670C505 685 480 704 455 721C467 754 477 790 484 828ZM595 836C579 738 545 655 485 600C499 591 522 573 532 563C560 590 583 624 602 663C632 632 661 597 677 573L713 614C695 641 659 681 624 715C637 750 646 787 653 827ZM154 840L154 638L44 638L44 568L154 568L154 351C109 335 68 320 34 309L55 237L154 275L154 11C154-2 150-5 138-5C127-6 92-6 52-5C61-24 70-54 73-72C131-72 166-70 189-58C212-46 220-27 220 12L220 301L314 338L301 406L220 376L220 568L295 568L295 638L220 638L220 840Z"/></svg>