<svg id="U65DB" viewBox="0 0 1000 1000"><svg id="U65DBhk" viewBox="0 0 1000 1000"><path transform="translate(0, 900) scale(1,-1)" d="M149 821C173 777 201 718 211 681L279 705C267 740 239 798 213 841ZM45 676L45 610L142 610C139 333 130 101 34-32C52-42 75-64 87-80C167 32 193 201 203 406L308 406C301 133 293 38 277 14C271 4 264 2 252 2C239 2 214 2 184 5C193-12 199-40 200-58C232-61 262-60 282-58C304-55 320-47 335-27C358 6 366 113 374 440C374 450 374 472 374 472L205 472L208 610L385 610L385 676ZM822 571C808 541 784 499 762 468L710 468L710 579C781 587 848 597 901 611L850 658C766 636 610 621 476 615C491 637 504 661 517 685L945 685L945 748L547 748C557 772 567 797 575 822L508 839C477 739 424 642 361 579C377 569 404 546 415 534C434 555 453 580 471 607C477 593 483 575 485 563C537 565 593 568 649 573L649 468L572 468L590 474C583 497 565 531 546 556L495 540C510 518 525 490 532 468L421 468L421 412L594 412C540 347 458 291 376 254C389 242 409 218 418 207L462 232L462-80L525-80L525-40L842-40L842-78L908-78L908 244L927 228L964 272C916 312 826 369 748 412L956 412L956 468L826 468C843 493 863 522 880 550ZM648 89L648 15L525 15L525 89ZM707 89L842 89L842 15L707 15ZM648 138L525 138L525 209L648 209ZM707 138L707 209L842 209L842 138ZM649 391L649 278L710 278L710 375C770 341 835 298 884 262L509 262C561 299 611 343 649 391Z"/><animate attributeName="opacity" values="1;0;0;0;0;1;1" dur="3s" repeatCount="indefinite"/></svg><svg id="U65DBjp" viewBox="0 0 1000 1000"><path transform="translate(0, 900) scale(1,-1)" d="M189 838L189 677L42 677L42 607L140 607C136 360 125 110 32-30C52-42 76-63 89-80C165 35 192 209 203 400L306 400C300 120 294 22 278 0C270-12 263-15 249-14C234-14 201-14 164-10C175-29 182-58 183-79C221-81 259-80 282-78C307-75 324-68 340-46C364-12 369 100 375 435C376 445 376 469 376 469L206 469L210 607L412 607L412 677L261 677L261 838ZM816 546C804 518 780 475 762 447L785 436L709 436L709 556C779 566 845 578 898 593L843 638C762 615 615 596 485 587C501 611 515 637 528 665L960 665L960 729L556 729C568 761 579 794 588 827L519 840C491 730 440 624 374 555C391 547 421 528 434 518C446 532 458 547 470 564C474 553 477 543 478 534C531 537 588 542 644 548L644 436L568 436L592 449C583 474 561 510 539 534L487 509C505 487 521 460 530 436L414 436L414 378L591 378C536 325 454 275 380 249C394 237 414 214 424 198L466 218L466-80L532-80L532-53L828-53L828-78L897-78L897 214L924 202C935 219 955 242 969 254C895 277 811 327 756 378L954 378L954 436L814 436C834 459 856 491 877 521ZM646 70L646 0L532 0L532 70ZM708 70L828 70L828 0L708 0ZM646 120L532 120L532 186L646 186ZM708 120L708 186L828 186L828 120ZM644 352L644 253L709 253L709 355C747 313 798 271 851 239L504 239C555 271 606 311 644 352Z"/><animate attributeName="opacity" values="0;1;1;0;0;0;0" dur="3s" repeatCount="indefinite"/></svg><svg id="U65DBsc" viewBox="0 0 1000 1000"><path transform="translate(0, 900) scale(1,-1)" d="M149 821C175 776 206 715 219 677L280 708C265 744 233 804 206 847ZM46 676L46 611L144 611C143 334 135 103 37-28C54-40 76-63 87-80C169 31 195 200 204 407L313 407C307 138 299 41 285 18C277 8 270 6 258 6C245 6 214 6 179 9C190-9 196-38 197-59C232-61 266-61 287-58C311-56 326-48 341-26C363 8 371 116 377 438C378 448 378 472 378 472L207 472L209 611L393 612L394 677ZM513 830C488 748 447 669 393 612L373 592C388 582 412 558 422 548C455 581 487 625 514 673L935 673L935 734L544 734C555 761 565 788 574 816ZM815 540C804 512 783 472 766 442L706 442L706 556C777 564 844 575 898 590L842 636C757 614 596 597 460 590C468 577 476 554 478 539C531 541 589 545 645 550L645 442L588 442C579 468 560 503 539 529L490 507C503 488 516 464 526 442L426 442L426 386L590 386C541 333 465 287 391 256C403 245 422 220 430 208L466 226L466-72L527-72L527-42L816-42L816-70L878-70L878 226L912 210C922 225 940 245 953 257C883 281 804 333 755 386L942 386L942 442L824 442L870 518ZM641 79L641 9L527 9L527 79ZM700 79L816 79L816 9L700 9ZM641 129L527 129L527 196L641 196ZM700 129L700 196L816 196L816 129ZM706 364C742 322 790 280 840 248L503 248C556 280 606 320 645 364L645 264L706 264Z"/><animate attributeName="opacity" values="0;0;0;1;1;0;0" dur="3s" repeatCount="indefinite"/></svg></svg>