<svg id="U66AC" viewBox="0 0 1000 1000"><svg id="U66ACkr" viewBox="0 0 1000 1000"><path transform="translate(0, 900) scale(1,-1)" d="M266 104L744 104L744 16L266 16ZM266 159L266 243L744 243L744 159ZM191 300L191-80L266-80L266-42L744-42L744-76L823-76L823 300ZM91 491L91 442L244 442L244 376L47 363L52 306C165 315 326 327 482 341L483 394L313 381L313 442L470 442L470 491L313 491L313 544L244 544L244 491ZM244 840L244 791L94 791L94 741L244 741L244 687L54 687L54 634L178 634C162 584 114 556 49 542C60 530 75 507 80 495C160 517 221 561 237 634L314 634L314 590C314 538 327 527 382 527C393 527 437 527 448 527C487 527 503 541 507 590C492 593 469 599 457 608C455 576 453 572 438 572C429 572 398 572 391 572C376 572 374 574 374 590L374 634L507 634L507 687L313 687L313 741L465 741L465 791L313 791L313 840ZM644 840L640 728L530 728L530 666L636 666C633 631 628 598 622 568C597 582 572 595 549 606L516 558C544 544 575 527 605 509C582 447 545 399 486 363C501 353 521 330 529 315C593 355 634 406 660 472C695 448 725 423 746 402L781 457C757 480 721 507 680 533C690 573 697 617 701 666L804 666C806 438 814 283 906 283C958 283 970 323 976 431C962 439 944 456 930 471C929 400 925 347 912 347C871 347 871 509 872 728L706 728L710 840Z"/><animate attributeName="opacity" values="1;0;0;1;1" dur="2s" repeatCount="indefinite"/></svg><svg id="U66ACsc" viewBox="0 0 1000 1000"><path transform="translate(0, 900) scale(1,-1)" d="M200 631C162 601 94 559 48 537L80 501C127 523 191 556 239 590ZM333 594C383 569 446 532 479 507L507 549C475 573 411 608 361 631ZM266 104L744 104L744 16L266 16ZM266 159L266 243L744 243L744 159ZM191 300L191-80L266-80L266-42L744-42L744-76L823-76L823 300ZM90 504L90 455L244 455L244 378L47 365L52 308C165 317 326 329 482 343L483 396L313 383L313 455L468 455L468 504L313 504L313 554L244 554L244 504ZM244 840L244 791L94 791L94 741L244 741L244 684L53 684L53 632L506 632L506 684L313 684L313 741L465 741L465 791L313 791L313 840ZM644 840L640 728L530 728L530 666L636 666C633 631 628 598 622 568C597 582 572 595 549 606L516 558C544 544 575 527 604 509C581 447 544 399 484 363C499 353 519 330 528 316C592 355 633 407 660 472C694 448 725 423 746 402L781 457C757 480 720 507 680 533C690 573 696 617 701 666L804 666C806 438 814 283 906 283C958 283 970 323 976 431C962 439 944 456 930 471C929 400 925 347 912 347C871 347 871 509 872 728L706 728L710 840Z"/><animate attributeName="opacity" values="0;1;1;0;0" dur="2s" repeatCount="indefinite"/></svg></svg>