<svg id="U66D3" viewBox="0 0 1000 1000"><path transform="translate(0, 900) scale(1,-1)" d="M239 668L764 668L764 618L239 618ZM239 760L764 760L764 712L239 712ZM167 805L167 573L838 573L838 805ZM462 115L462 25L332 25C382 52 427 83 462 115ZM462 235L462 175L243 175C300 199 355 229 403 262L611 262C649 231 700 201 754 175L531 175L531 235ZM460 564L460 516L262 516L262 560L203 560L203 469L460 469L460 410L200 410L200 466L140 466L140 364L440 364C423 347 404 330 382 314L62 314L62 262L300 262C223 220 133 187 43 168C58 157 77 136 87 122C133 134 179 149 224 167L224 123L390 123C314 69 199 21 99-2C113-15 132-38 141-54C198-38 262-12 321 19L321-26L462-26L462-90L531-90L531-26L693-26L693 22C747-5 796-31 830-51L873-10C807 27 692 81 595 123L782 123L782 162C827 142 873 125 916 113C926 128 947 148 962 159C874 179 770 219 699 262L941 262L941 314L468 314C485 330 501 347 515 364L871 364L871 466L809 466L809 410L529 410L529 469L813 469L813 560L751 560L751 516L529 516L529 564ZM531 25L531 98C581 76 636 50 687 25Z"/></svg>