<svg id="U66CA" viewBox="0 0 1000 1000"><path transform="translate(0, 900) scale(1,-1)" d="M496 271L817 271L817 214L496 214ZM496 169L817 169L817 110L496 110ZM496 373L817 373L817 316L496 316ZM542 630C540 613 537 596 531 580L441 580L454 630ZM602 630L688 630L688 580L594 580C598 596 600 613 602 630ZM403 678C394 630 380 573 367 532L508 532C480 487 429 445 340 410C352 399 368 377 374 362C394 370 413 379 430 387L430 58L519 58C474 23 398-14 331-34C347-47 371-69 383-82C457-58 545-11 599 34L557 58L741 58L708 30C774-3 848-48 891-78L955-36C914-8 849 27 787 58L884 58L884 426L492 426C534 458 561 494 578 532L688 532L688 446L748 446L748 532L886 532C882 506 878 493 872 487C867 482 860 481 849 481C839 481 812 482 781 484C787 472 793 454 794 442C827 439 861 439 876 440C897 440 912 445 923 456C938 470 945 498 952 558C953 566 953 580 953 580L748 580L748 630L909 630L909 785L748 785L748 840L688 840L688 785L604 785L604 840L545 840L545 785L392 785L392 736L545 736L545 684L545 678ZM604 736L688 736L688 678L604 678L604 683ZM748 736L848 736L848 678L748 678ZM264 419L264 179L136 179L136 419ZM264 481L136 481L136 709L264 709ZM74 771L74 36L136 36L136 118L326 118L326 771Z"/></svg>