<svg id="U66F6" viewBox="0 0 1000 1000"><path transform="translate(0, 900) scale(1,-1)" d="M316 845C252 742 142 648 29 589C48 578 77 553 91 539C150 575 211 622 266 675L409 675C332 563 214 471 84 412C101 401 130 376 142 362C276 432 408 540 492 675L638 675C580 555 484 456 372 393C389 382 419 359 432 346C548 420 653 534 717 675L838 675C823 526 805 463 784 443C775 434 765 433 747 433C730 433 684 434 636 438C647 420 655 392 656 372C705 369 752 369 777 371C807 372 826 379 845 398C876 429 896 509 916 711C918 721 919 743 919 743L330 743C351 768 371 794 388 821ZM234 122L723 122L723 182L234 182L234 276L774 276L774 22L234 22ZM165 340L165-80L234-80L234-44L774-44L774-75L845-75L845 340Z"/></svg>