<svg id="U6780" viewBox="0 0 1000 1000"><svg id="U6780jp" viewBox="0 0 1000 1000"><path transform="translate(0, 900) scale(1,-1)" d="M301 791C247 710 144 643 41 602C57 589 84 560 95 545C199 594 310 673 373 767ZM460 379L460 282L57 282L57 215L394 215C307 123 166 42 37 1C53-13 74-41 86-59C219-10 367 85 460 195L460-80L535-80L535 194C628 86 776-5 913-53C925-34 947-5 964 9C830 48 688 124 601 215L945 215L945 282L535 282L535 379ZM586 581C619 554 655 522 687 489L379 475C416 532 455 603 488 667L410 688C384 624 337 534 296 472L148 467L155 397C305 404 529 414 744 426C762 405 778 384 789 367L854 400C812 463 722 551 646 611ZM426 806L426 742L642 742C703 665 802 599 900 558C911 576 935 602 952 616C848 652 735 724 683 806Z"/><animate attributeName="opacity" values="1;0;0;1;1" dur="2s" repeatCount="indefinite"/></svg><svg id="U6780sc" viewBox="0 0 1000 1000"><path transform="translate(0, 900) scale(1,-1)" d="M331 826C262 728 149 633 42 573C60 561 88 535 100 522C206 590 326 695 403 803ZM652 837L591 812C666 702 799 583 907 520C920 536 944 559 962 572C853 628 721 736 652 837ZM460 379L460 295L57 295L57 229L393 229C306 142 166 65 39 27C55 12 77-15 88-33C220 14 368 105 460 210L460-80L535-80L535 209C626 103 774 12 910-34C922-14 944 14 961 30C829 65 689 140 602 229L945 229L945 295L535 295L535 379ZM203 388C235 400 281 403 715 437C735 414 752 392 765 374L828 410C785 468 696 557 624 621L565 590C598 561 633 526 665 491L310 467C376 523 443 593 502 665L429 695C368 607 276 517 247 495C221 472 199 456 178 453C188 435 199 402 203 388Z"/><animate attributeName="opacity" values="0;1;1;0;0" dur="2s" repeatCount="indefinite"/></svg></svg>