<svg id="U6759" viewBox="0 0 1000 1000"><path transform="translate(0, 900) scale(1,-1)" d="M730 787C784 740 846 671 873 625L930 670C901 715 837 781 783 826ZM587 839C588 734 591 631 599 535L429 517L436 448L604 466C635 152 709-79 852-80C928-80 955-30 967 141C947 148 919 165 903 182C897 51 886-3 859-3C773-3 708 191 680 474L959 504L951 572L674 543C667 635 664 734 665 839ZM222 840L222 626L52 626L52 554L210 554C174 415 101 259 28 175C42 157 61 127 69 106C125 176 181 292 222 411L222-79L296-79L296 373C335 324 381 263 401 229L447 292C425 319 331 425 296 460L296 554L443 554L443 626L296 626L296 840Z"/></svg>