<svg id="U67D2" viewBox="0 0 1000 1000"><svg id="U67D2hk" viewBox="0 0 1000 1000"><path transform="translate(0, 900) scale(1,-1)" d="M45 652C101 632 171 599 208 576L244 632C207 655 135 684 82 702ZM115 789C170 768 241 734 277 710L313 766C276 789 204 821 150 838ZM71 404L114 342C180 398 252 465 315 528L280 585C210 517 128 446 71 404ZM460 376L460 278L64 278L64 211L391 211C303 124 163 47 37 9C53-6 75-34 86-52C219-5 366 86 460 191L460-79L536-79L536 190C629 85 775-4 914-48C925-29 947-1 964 15C832 51 693 123 606 211L932 211L932 278L536 278L536 376ZM317 656L327 591L511 616L511 491C511 408 538 385 637 385C658 385 800 385 822 385C905 385 926 417 935 536C915 541 885 552 869 565C864 469 857 453 816 453C786 453 666 453 643 453C593 453 585 458 585 492L585 626L925 673L915 737L585 692L585 839L511 839L511 682Z"/><animate attributeName="opacity" values="1;0;0;1;1" dur="2s" repeatCount="indefinite"/></svg><svg id="U67D2tc" viewBox="0 0 1000 1000"><path transform="translate(0, 900) scale(1,-1)" d="M44 658C98 637 170 604 207 583L243 639C205 660 134 690 80 708ZM115 789C170 766 241 733 278 710L314 765C276 787 203 819 150 838ZM67 383L118 328C182 394 257 477 319 552L278 603C210 523 125 435 67 383ZM348 176C280 106 149 44 33 14C49-1 72-28 83-47C201-11 335 65 410 150ZM602 131C705 80 841 4 909-43L954 16C883 61 746 134 645 181ZM460 376L460 278L57 278L57 211L460 211L460-79L536-79L536 211L942 211L942 278L536 278L536 376ZM485 838L485 690L318 669L327 602L485 622L485 508C485 422 511 392 604 392C626 392 787 392 820 392C860 392 899 393 918 397C915 414 912 443 910 462C889 458 845 457 817 457C785 457 635 457 604 457C567 457 559 469 559 507L559 632L922 679L914 744L559 699L559 838Z"/><animate attributeName="opacity" values="0;1;1;0;0" dur="2s" repeatCount="indefinite"/></svg></svg>