<svg id="U67A2" viewBox="0 0 1000 1000"><svg id="U67A2jp" viewBox="0 0 1000 1000"><path transform="translate(0, 900) scale(1,-1)" d="M426 782L426-81L499-81L499-29L963-29L963 41L499 41L499 712L946 712L946 782ZM799 659C780 588 754 517 723 450C675 491 624 531 576 566L528 521C582 481 639 434 692 386C644 295 585 212 516 148C533 138 558 117 570 104C637 169 695 249 745 336C801 281 850 226 881 181L934 233C899 283 843 342 778 401C815 475 845 554 870 635ZM196 840L196 626L52 626L52 555L188 555C157 418 93 260 29 175C42 158 60 129 68 109C116 174 161 281 196 391L196-79L266-79L266 375C297 326 333 265 349 232L395 289C376 318 295 432 266 467L266 555L391 555L391 626L266 626L266 840Z"/><animate attributeName="opacity" values="1;0;0;1;1" dur="2s" repeatCount="indefinite"/></svg><svg id="U67A2sc" viewBox="0 0 1000 1000"><path transform="translate(0, 900) scale(1,-1)" d="M938 782L414 782L414-39L961-39L961 29L487 29L487 713L938 713ZM197 840L197 647L50 647L50 577L190 577C158 440 95 281 30 197C44 179 62 146 70 124C117 191 163 300 197 413L197-79L266-79L266 443C293 393 324 334 338 303L383 357C366 385 293 499 266 534L266 577L385 577L385 647L266 647L266 840ZM817 654C791 580 759 507 723 437C673 505 621 573 571 632L516 596C572 528 631 448 686 369C631 276 569 193 503 129C520 117 549 92 561 79C620 142 677 219 729 305C777 231 819 161 845 105L907 149C876 211 826 291 768 374C813 457 853 545 887 635Z"/><animate attributeName="opacity" values="0;1;1;0;0" dur="2s" repeatCount="indefinite"/></svg></svg>