<svg id="U6883" viewBox="0 0 1000 1000"><svg id="U6883hk" viewBox="0 0 1000 1000"><path transform="translate(0, 900) scale(1,-1)" d="M888 823C817 792 690 764 582 745C589 730 600 704 603 689C643 695 687 702 730 711L730 503L608 503L608 437L730 437L730 200L580 200L580 133L943 133L943 200L800 200L800 437L930 437L930 503L800 503L800 726C852 738 902 752 942 768ZM367 398C367 408 390 422 405 430L503 430C494 338 478 259 456 193C434 236 415 288 401 351L347 331C367 243 394 174 425 121C391 54 346 5 291-27C305-41 322-65 331-81C386-46 432 0 468 61C552-36 663-60 792-60L940-60C943-41 955-7 965 10C932 9 822 9 796 9C682 9 577 30 500 125C538 217 561 335 571 489L531 493L520 492L449 492C492 573 534 676 568 777L523 806L499 795L343 795L343 730L480 730C449 636 407 547 392 521C376 488 351 459 333 455C343 440 361 412 367 398ZM166 840L166 654L45 654L45 584L154 584C130 452 78 298 26 217C38 198 56 165 64 143C102 206 138 307 166 412L166-79L237-79L237 444C263 397 291 341 304 311L347 367C332 394 263 502 237 539L237 584L325 584L325 654L237 654L237 840Z"/><animate attributeName="opacity" values="1;0;0;1;1" dur="2s" repeatCount="indefinite"/></svg><svg id="U6883jp" viewBox="0 0 1000 1000"><path transform="translate(0, 900) scale(1,-1)" d="M893 823C821 791 692 761 582 742C591 726 601 701 604 686C648 692 695 701 741 710L741 503L589 503L589 437L741 437L741 197L608 197L608 132L946 132L946 197L810 197L810 437L959 437L959 503L810 503L810 726C861 738 908 752 947 768ZM409 351L354 332C372 241 395 170 425 116C392 52 350 5 299-26C314-40 332-64 342-80C392-47 433-3 466 52C539-35 636-58 758-58L946-58C949-38 960-5 971 12C936 11 788 11 763 11C655 11 565 32 499 117C540 210 565 331 576 488L534 494L523 492L440 492C483 595 527 706 556 787L508 799L497 796L332 796L332 731L466 731C431 639 379 507 334 409L399 395L414 431L506 431C497 337 480 257 456 190C437 233 421 286 409 351ZM175 840L175 623L52 623L52 553L169 553C142 418 87 259 31 175C43 159 60 131 68 112C108 174 146 274 175 379L175-79L242-79L242 389C268 339 298 278 310 247L349 301C334 328 267 438 242 475L242 553L338 553L338 623L242 623L242 840Z"/><animate attributeName="opacity" values="0;1;1;0;0" dur="2s" repeatCount="indefinite"/></svg></svg>