<svg id="U681C" viewBox="0 0 1000 1000"><path transform="translate(0, 900) scale(1,-1)" d="M415 548L415 240L482 240L482 479L628 479L628 314C565 201 444 84 331 28C347 15 369-11 381-29C469 21 560 108 628 204L628-79L699-79L699 206C758 113 838 28 918-19C930 0 953 26 969 40C863 92 754 206 699 317L699 479L862 479L862 318C862 309 859 306 850 306C841 306 809 306 775 307C784 289 793 264 795 246C848 246 881 246 903 257C926 268 931 286 931 317L931 548L699 548L699 649L959 649L959 717L699 717L699 840L628 840L628 717L377 717L377 649L628 649L628 548ZM199 840L199 623L52 623L52 553L191 553C159 416 96 259 31 175C44 158 62 129 70 110C118 175 164 282 199 392L199-79L269-79L269 391C298 343 332 285 346 254L389 310C371 336 296 445 269 479L269 553L389 553L389 623L269 623L269 840Z"/></svg>