<svg id="U6865" viewBox="0 0 1000 1000"><path transform="translate(0, 900) scale(1,-1)" d="M521 335L521 258C521 168 497 52 366-34C381-44 410-70 420-85C559 9 593 149 593 256L593 335ZM757 333L757-76L832-76L832 333ZM401 580L401 512L547 512C505 433 446 370 368 325C383 311 406 279 415 265C510 325 578 407 626 512L727 512C772 420 848 323 919 272C931 289 954 314 970 327C909 365 843 438 799 512L956 512L956 580L652 580C667 624 679 672 689 724C770 734 847 747 908 763L862 826C760 796 580 776 430 765C438 748 448 721 450 703C502 706 558 710 614 715C605 667 593 621 577 580ZM193 840L193 647L50 647L50 577L186 577C155 440 93 281 30 197C44 179 62 146 70 124C116 191 160 298 193 410L193-79L261-79L261 450C288 402 318 344 331 314L377 368C361 397 286 510 261 541L261 577L379 577L379 647L261 647L261 840Z"/></svg>