<svg id="U68B3" viewBox="0 0 1000 1000"><svg id="U68B3hk" viewBox="0 0 1000 1000"><path transform="translate(0, 900) scale(1,-1)" d="M604 359L604-43L671-43L671 359ZM445 361L445 251C445 159 430 50 290-30C305-41 328-66 337-81C492 10 512 137 512 249L512 361ZM767 360L767 40C767-23 772-39 785-52C799-64 820-69 839-69C850-69 871-69 884-69C900-69 918-66 929-59C942-52 952-40 957-20C962-3 965 49 967 94C948 100 925 112 911 124C910 76 909 39 908 21C905 6 902-2 897-6C894-9 886-10 879-10C871-10 861-10 855-10C848-10 843-9 839-5C835-1 835 11 835 32L835 360ZM584 822C601 789 619 749 632 715L374 715L374 650L541 650C503 595 448 519 427 498C410 481 393 474 378 470C385 455 398 418 402 399C431 411 475 414 851 440C867 417 881 395 891 377L946 418C913 475 839 566 780 632L727 599C752 569 781 535 807 500L506 483C544 532 590 598 626 650L939 650L939 715L711 715C698 752 673 805 649 844ZM180 840L180 647L50 647L50 577L173 577C145 441 84 281 25 197C37 179 55 146 64 124C107 189 148 293 180 401L180-79L249-79L249 445C276 395 307 336 321 305L366 358C349 388 274 504 249 538L249 577L353 577L353 647L249 647L249 840Z"/><animate attributeName="opacity" values="1;0;0;0;0;1;1" dur="3s" repeatCount="indefinite"/></svg><svg id="U68B3jp" viewBox="0 0 1000 1000"><path transform="translate(0, 900) scale(1,-1)" d="M622 352L622-48L688-48L688 352ZM462 364L462 248C462 156 449 47 332-34C348-45 371-69 382-84C513 9 530 135 530 247L530 364ZM786 365L786 35C786-25 790-41 803-54C816-66 837-71 856-71C864-71 887-71 898-71C913-71 931-68 942-61C953-55 961-43 967-26C972-10 975 36 976 76C959 80 940 90 927 101C926 61 925 30 923 16C921 3 918-4 914-8C910-10 903-11 896-11C889-11 878-11 873-11C867-11 861-10 858-6C855-2 854 9 854 29L854 365ZM389 482L398 413C524 420 696 429 861 440C879 416 894 393 904 373L965 406C934 464 862 548 800 609L743 580C767 556 792 528 815 500L564 489C592 537 622 595 648 647L961 647L961 714L707 714L707 840L634 840L634 714L387 714L387 647L566 647C546 595 517 533 492 486ZM193 840L193 626L52 626L52 555L187 555C156 418 93 260 30 175C43 158 60 129 69 110C115 174 159 278 193 387L193-79L263-79L263 393C293 343 328 281 343 248L385 307C368 333 290 446 263 479L263 555L380 555L380 626L263 626L263 840Z"/><animate attributeName="opacity" values="0;1;1;0;0;0;0" dur="3s" repeatCount="indefinite"/></svg><svg id="U68B3tc" viewBox="0 0 1000 1000"><path transform="translate(0, 900) scale(1,-1)" d="M607 359L607-36L674-36L674 359ZM445 368L445 254C445 162 433 53 317-30C333-41 356-65 366-80C496 14 512 142 512 253L512 368ZM774 366L774 30C774-39 788-63 851-63C863-63 902-63 914-63C932-63 950-63 961-59C960-44 957-18 956-2C945-5 925-6 914-6C903-6 864-6 854-6C840-6 838 1 838 29L838 366ZM402 404C431 415 475 418 850 444C869 418 886 394 898 375L953 416C917 469 842 562 786 629L733 597L805 506L494 488C536 535 580 589 621 647L939 647L939 711L665 711C685 742 705 774 724 806L650 836C629 794 603 751 578 711L374 711L374 647L535 647C498 595 466 555 451 539C420 503 399 480 377 475C386 456 398 419 402 404ZM189 840L189 647L50 647L50 577L182 577C150 440 88 281 25 197C39 179 57 146 65 124C111 191 155 299 189 410L189-79L257-79L257 437C285 387 316 328 329 296L375 350C358 379 282 495 257 529L257 577L355 577L355 647L257 647L257 840Z"/><animate attributeName="opacity" values="0;0;0;1;1;0;0" dur="3s" repeatCount="indefinite"/></svg></svg>