<svg id="U6999" viewBox="0 0 1000 1000"><svg id="U6999hk" viewBox="0 0 1000 1000"><path transform="translate(0, 900) scale(1,-1)" d="M481 838L481 746L371 746L371 680L481 680L481 574L549 574L549 680L646 680L646 746L549 746L549 838ZM186 840L186 647L49 647L49 577L179 577C149 454 91 315 32 240C45 221 62 188 70 167C112 226 154 321 186 421L186-79L254-79L254 432C276 386 298 336 309 308L352 358C364 342 379 315 386 301C428 326 472 356 514 389L514 327L805 327L805 389C848 357 893 328 933 305C940 324 953 357 965 375C872 418 754 499 689 571L703 592L644 620C577 516 461 425 350 369C332 404 276 500 254 536L254 577L365 577L365 647L254 647L254 840ZM802 391L516 391C565 430 611 475 651 523C693 479 747 432 802 391ZM443 247L443-80L511-80L511-42L809-42L809-80L880-80L880 247ZM511 22L511 184L809 184L809 22ZM675 746L675 680L774 680L774 574L841 574L841 680L949 680L949 746L841 746L841 838L774 838L774 746Z"/><animate attributeName="opacity" values="1;0;0;1;1" dur="2s" repeatCount="indefinite"/></svg><svg id="U6999sc" viewBox="0 0 1000 1000"><path transform="translate(0, 900) scale(1,-1)" d="M518 391L518 327L810 327L810 391ZM755 838L755 739L569 739L569 838L501 838L501 739L367 739L367 672L501 672L501 574L569 574L569 672L755 672L755 574L822 574L822 672L957 672L957 739L822 739L822 838ZM454 247L454-80L522-80L522-42L811-42L811-80L882-80L882 247ZM522 22L522 184L811 184L811 22ZM181 840L181 647L49 647L49 577L174 577C145 454 86 315 27 240C40 221 57 188 65 167C107 225 149 321 181 421L181-79L249-79L249 432C271 386 293 336 304 308L346 357C355 342 366 324 370 314C466 365 570 442 650 530C726 454 847 369 943 319C948 337 961 368 972 385C878 426 753 505 686 575L699 592L644 620C574 521 454 433 340 379C318 421 269 504 249 536L249 577L349 577L349 647L249 647L249 840Z"/><animate attributeName="opacity" values="0;1;1;0;0" dur="2s" repeatCount="indefinite"/></svg></svg>