<svg id="U6955" viewBox="0 0 1000 1000"><path transform="translate(0, 900) scale(1,-1)" d="M564 840C557 806 548 774 538 743L388 743L388 679L513 679C474 595 421 526 352 477C368 466 396 440 408 428C484 490 545 575 589 679L949 679L949 743L612 743C621 771 628 799 635 829ZM568 619L568 565L692 565L692 488L505 488L505 433L947 433L947 488L761 488L761 565L902 565L902 619ZM544 198L833 198L833 127L544 127ZM544 251L544 319L833 319L833 251ZM471 376L471-80L544-80L544 70L833 70L833-2C833-14 829-17 816-18C804-18 765-18 719-17C728-34 738-60 742-79C805-79 846-78 873-68C899-56 906-38 906-2L906 376ZM199 840L199 623L52 623L52 553L191 553C159 416 96 259 31 175C44 158 62 129 70 110C118 175 164 282 199 392L199-79L269-79L269 395C303 344 344 280 360 245L403 302C384 330 298 444 269 479L269 553L391 553L391 623L269 623L269 840Z"/></svg>