<svg id="U69A1" viewBox="0 0 1000 1000"><svg id="U69A1hk" viewBox="0 0 1000 1000"><path transform="translate(0, 900) scale(1,-1)" d="M734 109C792 63 862-2 895-45L948-10C913 34 841 98 785 141ZM488 135C454 82 397 28 341-10C356-19 383-41 394-53C449-11 511 54 551 115ZM395 159C415 165 442 168 613 175L613-12C613-21 610-24 600-24C591-24 560-24 525-23C533-40 541-63 544-79C597-79 631-79 653-69C676-60 681-44 681-13L681 177L856 184C874 159 889 136 899 116L950 149C924 198 863 272 810 323L762 294C779 277 797 257 814 236L542 230C631 270 721 320 807 378L756 419C732 401 706 383 680 366L537 364C581 387 625 415 667 446L642 462L951 462L951 518L684 518L684 585L891 585L891 641L684 641L684 704L929 704L929 761L684 761L684 841L615 841L615 761L388 761L388 704L615 704L615 641L415 641L415 585L615 585L615 518L355 518L355 462L587 462C539 423 482 390 463 381C442 370 424 364 408 362C415 345 424 314 427 301C442 306 465 309 591 313C538 283 492 261 471 252C431 234 401 223 376 221C383 204 392 172 395 159ZM183 840L183 647L53 647L53 582L177 582C149 445 90 282 29 197C43 179 60 146 68 124C111 189 152 295 183 404L183-79L249-79L249 431C275 381 304 322 317 290L361 344C344 373 276 487 249 525L249 582L348 582L348 647L249 647L249 840Z"/><animate attributeName="opacity" values="1;0;0;1;1" dur="2s" repeatCount="indefinite"/></svg><svg id="U69A1jp" viewBox="0 0 1000 1000"><path transform="translate(0, 900) scale(1,-1)" d="M750 99C802 54 863-11 891-53L951-17C921 25 858 87 806 130ZM458 125C425 74 372 20 318-17C334-27 362-49 375-60C427-20 487 44 526 105ZM178 840L178 629L50 629L50 560L170 560C141 428 81 271 24 185C35 169 54 141 61 120C104 185 146 287 178 392L178-79L247-79L247 406C273 360 303 305 317 275L359 339C342 365 267 475 247 502L247 560L355 560L355 629L247 629L247 840ZM347 515L347 457L548 457C526 429 498 397 473 372L412 404L369 361C427 330 496 286 542 249L500 216L329 212L337 148L602 157L602-80L674-80L674 160L878 168C893 150 905 133 914 118L969 155C937 204 867 276 806 325L757 294C780 274 805 250 828 226L594 219C670 277 752 348 816 411L753 444C712 398 654 342 594 292C574 308 548 325 521 343C557 376 597 417 632 457L946 457L946 515L676 515L676 583L891 583L891 640L676 640L676 704L920 704L920 762L676 762L676 841L604 841L604 762L379 762L379 704L604 704L604 640L407 640L407 583L604 583L604 515Z"/><animate attributeName="opacity" values="0;1;1;0;0" dur="2s" repeatCount="indefinite"/></svg></svg>