<svg id="U6936" viewBox="0 0 1000 1000"><svg id="U6936hk" viewBox="0 0 1000 1000"><path transform="translate(0, 900) scale(1,-1)" d="M740 827C721 798 697 769 668 740C631 768 592 794 558 817L520 780C554 757 591 731 627 704C587 670 542 640 495 616C507 606 525 589 534 578C582 604 628 635 670 670C712 637 749 605 774 580L814 622C789 647 752 677 712 708C743 738 770 770 792 802ZM199 840L199 647L52 647L52 577L188 577C156 444 90 285 26 202C39 184 58 151 66 129C115 199 163 316 199 434L199-79L267-79L267 434C289 389 312 338 322 310L366 359C377 346 387 329 391 317C538 347 587 401 604 501L698 501L698 443C698 378 712 354 780 354C794 354 876 354 895 354C918 354 944 355 958 359C956 375 953 400 952 417C938 414 910 412 893 412C876 412 801 412 785 412C767 412 764 419 764 442L764 501L912 501L912 815L847 815L847 564L475 564L475 815L412 815L412 501L536 501C522 430 481 394 363 374C342 411 287 509 267 537L267 577L383 577L383 647L267 647L267 840ZM580 379C538 302 453 214 329 151C344 142 365 120 376 105C421 130 462 158 497 188C528 143 566 103 610 68C523 21 422-9 318-26C331-41 345-67 351-85C464-63 573-27 666 27C742-21 830-57 925-79C935-60 954-33 969-18C881-1 798 28 727 67C798 121 856 190 893 277L849 299L836 296L602 296C620 319 636 343 650 366ZM796 237C765 185 721 140 668 104C617 140 575 183 544 231L550 237Z"/><animate attributeName="opacity" values="1;0;0;0;0;1;1" dur="3s" repeatCount="indefinite"/></svg><svg id="U6936jp" viewBox="0 0 1000 1000"><path transform="translate(0, 900) scale(1,-1)" d="M732 829C716 793 694 757 667 723C633 744 598 765 566 782L526 745C559 726 595 704 630 681C595 645 554 612 510 587C523 577 541 559 549 547C596 575 639 610 677 648C715 622 748 595 771 573L814 616C790 638 754 665 715 691C744 727 768 766 787 806ZM587 357C551 283 475 200 359 142C374 132 395 109 405 93C448 117 485 142 518 170C544 130 575 93 612 62C534 20 441-7 344-21C357-36 372-63 379-80C484-61 583-30 667 19C738-29 824-63 920-83C929-64 948-38 963-22C874-7 794 21 726 59C792 110 844 175 877 259L832 279L819 276L616 276C632 299 646 322 658 345ZM781 218C754 170 715 130 669 97C626 130 590 169 563 213L568 218ZM425 815L425 478L539 478C523 399 478 353 352 328C366 316 383 290 390 274C535 310 588 372 607 478L705 478L705 395C705 331 720 314 789 314C803 314 867 314 881 314C935 314 953 337 960 436C941 440 914 450 900 461C898 382 894 373 872 373C858 373 809 373 799 373C776 373 772 376 772 395L772 478L910 478L910 815L841 815L841 541L491 541L491 815ZM192 840L192 623L52 623L52 553L184 553C155 417 94 259 31 175C43 158 61 130 69 110C115 175 158 280 192 388L192-79L261-79L261 460C289 414 322 358 336 329L377 384C360 409 287 512 261 545L261 553L377 553L377 623L261 623L261 840Z"/><animate attributeName="opacity" values="0;1;1;0;0;0;0" dur="3s" repeatCount="indefinite"/></svg><svg id="U6936sc" viewBox="0 0 1000 1000"><path transform="translate(0, 900) scale(1,-1)" d="M399 787L399 489L895 489L895 787L831 787L831 550L463 550L463 787ZM698 447C766 400 852 333 895 292L936 337C891 377 803 440 736 485ZM511 480C466 424 398 370 333 340L358 370C342 396 272 498 248 529L248 577L353 577L353 647L248 647L248 840L180 840L180 647L47 647L47 577L174 577C142 440 79 281 16 197C29 179 46 146 55 124C101 191 146 299 180 411L180-79L248-79L248 440C273 396 301 344 313 316L329 335L376 285C450 324 521 392 571 458ZM728 820C710 789 686 758 658 728C617 758 575 787 536 812L494 777C534 752 578 721 619 690C579 653 533 620 486 594C499 585 517 567 526 556C574 585 620 619 662 656C702 625 737 594 761 569L805 608C780 633 743 664 702 695C733 727 761 761 782 796ZM560 383C521 312 447 230 335 172C351 162 372 141 383 126C419 147 451 169 480 193C511 149 550 109 595 74C515 27 420-4 324-22C336-35 351-60 357-76C462-53 563-18 649 36C728-13 821-50 920-71C928-53 947-28 962-13C868 3 780 33 704 74C771 127 826 194 860 279L816 299L804 296L581 296C600 320 617 345 631 370ZM766 237C736 187 696 145 648 109C597 144 554 186 524 232L529 237Z"/><animate attributeName="opacity" values="0;0;0;1;1;0;0" dur="3s" repeatCount="indefinite"/></svg></svg>