<svg id="U6AF0" viewBox="0 0 1000 1000"><svg id="U6AF0hk" viewBox="0 0 1000 1000"><path transform="translate(0, 900) scale(1,-1)" d="M605 434L605 278L673 278L673 434ZM751 609L858 609L858 505L751 505ZM590 609L695 609L695 505L590 505ZM433 609L534 609L534 505L433 505ZM371 654L371 460L922 460L922 654ZM355 400C415 385 494 361 537 346L556 391C514 407 434 428 375 440ZM339 281L359 229C419 248 492 271 564 294L556 342C474 318 396 295 339 281ZM889 443C845 431 766 406 716 398L730 361C781 366 856 380 909 397ZM707 293C776 279 867 252 915 234L934 281C886 299 794 322 727 334ZM173 840L173 648L51 648L51 578L170 578C143 443 88 282 30 197C44 179 62 146 70 125C108 186 144 281 173 381L173-79L243-79L243 422C264 376 287 326 297 298L343 352C330 379 266 490 243 526L243 578L340 578L340 648L243 648L243 840ZM581 825C591 806 600 782 608 761L326 761L326 704L953 704L953 761L685 761C678 786 664 817 650 840ZM445-84C460-73 487-64 665-9C664 6 663 32 665 50L516 9L516 135C550 152 581 171 609 190C670 71 778-17 917-57C927-39 946-13 961 0C887 18 821 49 767 91C817 116 874 148 918 181L870 223C833 194 774 157 723 130C696 158 673 190 655 224L682 247L610 264C545 207 427 148 276 106C290 95 308 71 316 55C364 70 410 87 451 105L451 32C451-6 433-20 418-27C428-41 441-68 445-84Z"/><animate attributeName="opacity" values="1;0;0;1;1" dur="2s" repeatCount="indefinite"/></svg><svg id="U6AF0jp" viewBox="0 0 1000 1000"><path transform="translate(0, 900) scale(1,-1)" d="M365 406L365 356L565 356L565 406ZM713 406L713 356L921 356L921 406ZM355 306L355 257L566 257L566 306ZM713 306L713 257L931 257L931 306ZM749 597L848 597L848 500L749 500ZM596 597L693 597L693 500L596 500ZM446 597L539 597L539 500L446 500ZM380 647L380 450L916 450L916 647ZM174 840L174 622L50 622L50 554L167 554C139 419 80 260 23 176C34 160 52 132 60 113C102 177 143 281 174 388L174-79L243-79L243 397C269 349 300 289 313 258L350 317C335 343 266 453 243 485L243 554L344 554L344 622L243 622L243 840ZM605 839L605 755L333 755L333 694L947 694L947 755L676 755L676 839ZM604 274C548 218 443 165 300 130C315 118 334 93 342 76C381 88 418 101 452 114L452 8L356-8L378-70C471-53 595-30 712-8L707 52L522 20L522 146C559 164 592 184 621 206C678 69 781-34 924-81C934-62 954-36 970-22C893-1 827 37 775 87C827 114 889 151 937 189L889 231C851 199 789 157 738 127C709 163 685 203 669 247L679 257L622 270L673 270L673 433L604 433Z"/><animate attributeName="opacity" values="0;1;1;0;0" dur="2s" repeatCount="indefinite"/></svg></svg>