<svg id="U6AF5" viewBox="0 0 1000 1000"><path transform="translate(0, 900) scale(1,-1)" d="M392 125C372 69 339-6 302-51L359-82C395-34 427 43 448 100ZM512 95C523 40 535-31 539-77L600-65C595-18 583 52 569 106ZM662 95C682 41 705-30 714-76L773-59C763-14 740 56 717 110ZM809 102C842 48 882-27 901-75L960-47C941-1 900 70 866 125ZM181 840L181 647L54 647L54 577L171 577C143 445 89 293 33 213C45 195 60 162 67 140C110 208 151 319 181 433L181-79L241-79L241 429C266 382 294 325 306 295L342 350C328 376 263 482 241 514L241 577L341 577L341 647L241 647L241 840ZM642 399L642 336L481 336L481 399ZM622 640C634 620 648 594 659 571L494 571C506 593 517 616 526 639L462 653C430 571 376 488 316 434C330 423 353 399 362 388C380 405 398 425 415 447L415 135L481 135L481 161L928 161L928 217L709 217L709 283L900 283L900 336L709 336L709 399L900 399L900 452L709 452L709 516L925 516L925 571L730 571C717 598 697 633 680 661ZM642 452L481 452L481 516L642 516ZM642 283L642 217L481 217L481 283ZM345 769L345 707L493 707L493 655L562 655L562 707L744 707L744 655L813 655L813 707L950 707L950 769L813 769L813 840L744 840L744 769L562 769L562 840L493 840L493 769Z"/></svg>