<svg id="U6A56" viewBox="0 0 1000 1000"><svg id="U6A56hk" viewBox="0 0 1000 1000"><path transform="translate(0, 900) scale(1,-1)" d="M522 491L798 491L798 381L522 381ZM844 825C827 786 796 730 772 694L796 685L694 685L694 840L622 840L622 685L516 685L548 698C536 734 506 785 476 823L417 799C443 765 467 719 480 685L368 685L368 510L432 510L432 623L885 623L885 510L952 510L952 685L838 685C862 718 890 760 914 802ZM358 242L358 177L570 177C512 102 418 35 331 2C346-12 368-39 379-56C468-15 560 59 622 143L622-79L694-79L694 149C753 65 842-10 930-49C942-30 963-5 979 9C892 41 803 105 746 177L949 177L949 242L694 242L694 322L867 322L867 549L456 549L456 322L622 322L622 242ZM196 840L196 628L52 628L52 557L188 557C156 419 93 258 29 170C41 153 60 125 69 105C116 172 161 278 196 388L196-79L266-79L266 384C296 341 331 289 347 260L389 327C372 349 294 443 266 473L266 557L356 557L356 628L266 628L266 840Z"/><animate attributeName="opacity" values="1;0;0;1;1" dur="2s" repeatCount="indefinite"/></svg><svg id="U6A56tc" viewBox="0 0 1000 1000"><path transform="translate(0, 900) scale(1,-1)" d="M522 491L798 491L798 381L522 381ZM510 148C474 82 414 18 355-26C370-36 397-55 409-67C468-18 534 57 574 130ZM743 122C795 66 857-14 887-64L941-28C911 21 849 95 795 151ZM844 825C826 784 794 726 767 685L694 685L694 840L622 840L622 685L495 685L542 706C530 737 501 786 475 822L417 799C441 764 466 717 479 685L368 685L368 510L432 510L432 623L885 623L885 510L952 510L952 685L841 685C865 720 892 762 915 802ZM358 242L358 177L622 177L622-79L694-79L694 177L949 177L949 242L694 242L694 322L867 322L867 549L456 549L456 322L622 322L622 242ZM196 840L196 628L52 628L52 557L188 557C156 419 93 258 29 170C41 153 60 125 69 105C116 172 161 278 196 388L196-79L266-79L266 384C296 341 331 289 347 260L389 327C372 349 294 443 266 473L266 557L356 557L356 628L266 628L266 840Z"/><animate attributeName="opacity" values="0;1;1;0;0" dur="2s" repeatCount="indefinite"/></svg></svg>