<svg id="U6BE7" viewBox="0 0 1000 1000"><path transform="translate(0, 900) scale(1,-1)" d="M770 802C807 770 848 726 866 697L918 731C897 761 855 803 818 832ZM829 578C812 504 789 436 760 374C747 446 738 533 732 630L950 630L950 693L729 693C728 739 727 788 727 838L660 838C661 788 662 740 665 693L415 693L415 630L668 630C677 498 692 381 714 290C666 213 608 150 537 101C552 89 577 63 585 51C643 95 694 147 737 209C765 131 800 86 844 86C862 86 877 91 888 101C879 27 862 9 788 9C723 9 443 9 392 9C285 9 267 26 267 94L267 256L443 295L433 361L267 325L267 485L410 517L400 582L267 553L267 715C325 737 379 761 423 788L369 841C294 789 158 739 37 705C47 690 58 666 62 651C106 662 151 676 196 690L196 537L57 506L68 441L196 469L196 310L37 275L48 207L196 240L196 94C196-28 242-57 396-57C433-57 751-57 790-57C918-57 945-24 960 85C941 89 912 98 894 107C911 128 920 167 926 232C911 238 889 251 876 265C873 184 865 149 849 149C825 149 801 195 780 275C829 359 867 456 894 565ZM512 589L512 455L417 455L417 394L510 394C505 310 484 221 409 151C424 141 446 118 456 103C546 186 569 291 574 394L668 394L668 455L575 455L575 589Z"/></svg>