<svg id="U6B71" viewBox="0 0 1000 1000"><path transform="translate(0, 900) scale(1,-1)" d="M31 64L46-10C151 19 292 59 427 97L418 166L300 134L300 463L398 463L398 528L300 528L300 827L233 827L233 115L159 96L159 632L96 632L96 80ZM393 7L393-55L960-55L960 7L717 7L717 94L928 94L928 155L717 155L717 225L920 225L920 536L717 536L717 596L955 596L955 658L717 658L717 742C795 751 869 762 928 777L877 832C774 805 587 787 430 780C438 764 447 739 449 723C512 725 580 729 647 735L647 658L417 658L417 596L647 596L647 536L452 536L452 225L647 225L647 155L452 155L452 94L647 94L647 7ZM516 356L647 356L647 279L516 279ZM717 356L853 356L853 279L717 279ZM516 483L647 483L647 407L516 407ZM717 483L853 483L853 407L717 407Z"/></svg>