<svg id="U6B2F" viewBox="0 0 1000 1000"><svg id="U6B2Fhk" viewBox="0 0 1000 1000"><path transform="translate(0, 900) scale(1,-1)" d="M615 841C593 686 549 538 478 444C496 435 529 416 543 404C580 459 611 530 636 610L882 610C868 543 850 473 832 426L891 407C919 473 946 578 965 667L915 683L904 680L656 680C668 728 679 778 687 830ZM679 551L679 482C679 339 663 127 474-32C490-44 513-69 523-86C636 10 693 125 721 235C763 101 824 4 926-83C935-62 956-40 974-26C846 78 784 196 746 401C747 429 748 456 748 481L748 551ZM233 840L233 696L48 696L48 629L233 629L233 479L69 479L69 412L467 412L467 479L307 479L307 629L489 629L489 696L307 696L307 840ZM99 325L99-62L166-62L166-14L379-14L379-59L448-59L448 325ZM166 53L166 258L379 258L379 53Z"/><animate attributeName="opacity" values="1;0;0;1;1" dur="2s" repeatCount="indefinite"/></svg><svg id="U6B2Fjp" viewBox="0 0 1000 1000"><path transform="translate(0, 900) scale(1,-1)" d="M235 840L235 694L43 694L43 625L235 625L235 484L70 484L70 415L464 415C482 405 513 383 525 372C560 431 589 506 612 590L671 590L671 451C672 368 641 113 423-20C437-34 459-64 466-80C636 25 696 212 707 299C718 215 772 21 919-80C930-63 952-33 966-16C775 112 744 371 744 451L744 590L866 590C856 524 843 452 827 404L883 375C908 444 932 552 946 645L897 663L885 659L629 659C641 714 650 772 658 830L583 841C565 691 532 544 476 442L476 484L307 484L307 625L501 625L501 694L307 694L307 840ZM97 324L97-51L166-51L166 13L447 13L447 324ZM166 257L376 257L376 79L166 79Z"/><animate attributeName="opacity" values="0;1;1;0;0" dur="2s" repeatCount="indefinite"/></svg></svg>