<svg id="U6BA6" viewBox="0 0 1000 1000"><svg id="U6BA6hk" viewBox="0 0 1000 1000"><path transform="translate(0, 900) scale(1,-1)" d="M447 174C436 99 414 17 371-31L421-57C466-6 487 82 499 160ZM540 159C555 101 566 26 568-20L617-11C616 32 604 106 588 164ZM635 166C660 120 686 56 697 18L742 35C731 72 704 134 679 179ZM729 181C758 148 790 102 804 72L846 94C831 124 798 168 769 200ZM638 841C631 814 618 777 605 746L467 746L467 227L870 227C858 74 845 12 828-5C820-14 812-15 796-15C780-15 738-14 694-10C704-29 711-57 713-77C759-80 804-79 827-78C853-75 870-69 886-51C913-22 927 55 941 255C942 265 943 286 943 286L535 286L535 343L961 343L961 398L535 398L535 456L877 456L877 746L677 746C690 770 703 798 715 827ZM535 692L812 692L812 626L535 626ZM535 509L535 577L812 577L812 509ZM49 794L49 725L174 725C144 568 96 422 22 327C37 313 63 283 73 269C89 291 104 315 119 340C168 309 221 270 255 238C205 121 135 36 49-21C65-32 90-58 100-75C257 34 368 245 406 578L363 591L351 588L215 588C227 632 237 678 246 725L437 725L437 794ZM194 520L330 520C319 443 303 374 283 312C247 342 196 376 150 404C166 440 181 479 194 520Z"/><animate attributeName="opacity" values="1;0;0;1;1" dur="2s" repeatCount="indefinite"/></svg><svg id="U6BA6sc" viewBox="0 0 1000 1000"><path transform="translate(0, 900) scale(1,-1)" d="M447 174C436 99 414 17 371-31L421-57C466-6 487 82 499 160ZM540 159C555 101 566 26 568-20L617-11C616 32 604 106 588 164ZM635 166C660 120 686 56 697 18L742 35C731 72 704 134 679 179ZM729 181C758 148 790 102 804 72L846 94C831 124 798 168 769 200ZM638 841C631 814 618 777 605 746L467 746L467 227L870 227C858 74 845 12 828-5C820-14 812-15 796-15C780-15 738-14 694-10C704-29 711-57 713-77C759-80 804-79 827-78C853-75 870-69 886-51C913-22 927 55 941 255C942 265 943 286 943 286L535 286L535 343L961 343L961 398L535 398L535 456L877 456L877 746L677 746C690 770 703 798 715 827ZM535 692L812 692L812 626L535 626ZM535 509L535 577L812 577L812 509ZM136 333C176 308 223 276 259 247C208 125 137 37 49-21C65-32 90-58 100-75C257 34 368 245 406 578L363 591L351 588L215 588C227 632 237 678 246 725L437 725L437 794L49 794L49 725L174 725C144 568 96 422 22 327C37 313 63 283 73 269C123 336 163 423 194 520L330 520C320 446 305 380 285 320C251 344 210 370 175 390Z"/><animate attributeName="opacity" values="0;1;1;0;0" dur="2s" repeatCount="indefinite"/></svg></svg>