<svg id="U6B60" viewBox="0 0 1000 1000"><svg id="U6B60hk" viewBox="0 0 1000 1000"><path transform="translate(0, 900) scale(1,-1)" d="M186 95L186 53L419 53L419 95ZM710 550C704 267 661 85 520-25L520 275L372 275L372 326L553 326L553 380L45 380L45 326L207 326L207 275L80 275L80-74L137-74L137-33L462-33L462-56L520-56L520-47C532-58 546-73 552-83C648-15 704 86 736 220C772 95 828 5 921-76C930-56 950-34 967-21C849 76 795 186 762 380C767 431 771 487 773 545ZM137 14L137 128C147 121 165 103 172 93C236 136 258 188 261 230L318 230L318 197C318 154 325 136 371 136C383 136 435 136 449 136L462 136L462 14ZM261 326L318 326L318 275L261 275ZM137 230L213 230C210 200 190 164 137 130ZM366 230L462 230L462 172L447 172C435 172 393 172 382 172C368 172 366 177 366 197ZM81 714C100 707 120 697 140 688C109 667 74 652 39 641C49 633 63 616 70 606C111 619 151 639 185 664C210 650 232 636 248 624L280 664C266 675 247 686 225 698C252 726 275 759 289 798L258 810L248 809L69 809L69 763L219 763C209 747 196 733 182 720C158 731 134 742 112 750ZM312 712C333 705 356 696 378 686C349 667 315 651 281 641C291 633 305 616 311 605C352 619 392 638 427 664C460 648 490 632 510 617L542 659C523 672 497 686 467 700C493 727 515 760 529 798L497 810L487 809L310 809L310 763L458 763C447 748 435 733 421 720C394 731 366 742 341 750ZM69 506C92 497 116 485 140 473C108 451 72 434 35 423C45 414 59 397 65 386C107 401 148 421 183 449C207 435 229 421 244 408L277 447C263 458 243 471 221 483C249 512 272 548 287 589L256 602L246 600L67 600L67 555L219 555C208 537 195 520 179 505C153 519 126 531 101 540ZM309 506C330 496 352 485 374 473C341 450 303 432 265 421C274 412 287 395 294 384C337 399 380 420 416 448C446 429 472 411 490 396L524 433C507 448 482 464 454 481C484 511 508 546 524 589L492 602L482 600L308 600L308 555L454 555C443 536 429 519 413 504C388 517 363 529 340 539ZM643 841C623 688 585 538 522 442C538 434 567 414 579 404C612 458 639 526 661 602L879 602C864 546 846 488 828 449L886 431C912 488 941 580 962 659L915 674L903 671L679 671C691 722 701 776 709 830Z"/><animate attributeName="opacity" values="1;0;0;0;0;1;1" dur="3s" repeatCount="indefinite"/></svg><svg id="U6B60jp" viewBox="0 0 1000 1000"><path transform="translate(0, 900) scale(1,-1)" d="M137 53L462 53L462 14L137 14ZM137 95L137 230L212 230C206 203 187 170 146 139C156 133 177 115 184 104C234 144 255 192 260 230L327 230L327 191C327 147 341 138 388 138C397 138 443 138 452 138L462 138L462 95ZM617 841C600 693 567 548 511 449C496 460 479 471 460 483C487 513 509 549 524 591L492 604L482 602L308 602L308 557L456 557C445 539 433 522 418 506C394 519 370 531 347 540L315 508C336 498 359 486 382 474C351 450 315 432 279 420C289 411 302 394 309 383C350 398 390 420 424 448C451 432 474 415 490 401L512 425C528 415 551 400 561 391C594 447 621 517 642 596L693 596L693 453C694 380 673 157 520 17L520 275L382 275L382 326L550 326L550 380L45 380L45 326L207 326L207 275L80 275L80-80L137-80L137-33L462-33L462-51L501-51L519-79C668 28 720 215 729 296C738 217 784 24 920-79C930-61 952-31 966-15C791 115 764 375 765 453L765 596L876 596C869 531 858 462 847 415L906 398C925 463 942 568 953 655L905 669L893 666L659 666C671 719 681 774 689 831ZM261 326L327 326L327 275L261 275ZM376 230L462 230L462 183C459 175 456 174 443 174C434 174 400 174 393 174C379 174 376 176 376 190ZM83 719C103 711 124 700 145 689C116 668 83 652 50 641C61 633 74 616 81 606C119 620 156 639 188 664C207 652 225 640 237 629L271 667C259 677 243 687 225 698C251 726 272 759 286 798L254 810L244 809L69 809L69 763L216 763C207 748 195 734 183 721C160 733 137 744 116 753ZM322 719C341 711 362 701 382 691C352 670 317 654 281 644C291 635 305 618 311 608C352 622 392 641 427 666C452 651 475 636 491 623L525 661C510 673 489 686 465 699C492 727 514 760 529 798L497 810L487 809L310 809L310 763L457 763C447 748 436 735 422 722C399 733 376 744 354 753ZM76 508C98 498 122 486 146 473C116 450 82 432 48 420C58 411 72 394 78 383C117 399 155 420 188 448C209 435 228 422 241 410L275 448C262 459 244 472 223 484C249 514 270 549 284 591L252 604L242 602L67 602L67 557L217 557C207 539 195 522 182 507C157 520 132 532 108 541Z"/><animate attributeName="opacity" values="0;1;1;0;0;0;0" dur="3s" repeatCount="indefinite"/></svg><svg id="U6B60sc" viewBox="0 0 1000 1000"><path transform="translate(0, 900) scale(1,-1)" d="M137 53L462 53L462 14L137 14ZM137 95L137 230L212 230C206 203 187 170 146 139C156 133 177 115 184 104C234 144 255 192 260 230L327 230L327 190C327 146 341 137 388 137C397 137 443 137 452 137L462 137L462 95ZM717 550C709 267 663 80 520-33L520 275L382 275L382 326L553 326L553 380L45 380L45 326L207 326L207 275L80 275L80-74L137-74L137-33L462-33L462-51L520-51L520-43C534-54 551-73 559-84C653-14 709 89 741 223C776 95 829 3 921-81C930-62 949-41 965-28C850 72 798 185 767 381C773 432 777 487 779 544ZM261 326L327 326L327 275L261 275ZM376 230L462 230L462 182C459 174 456 173 444 173C434 173 400 173 393 173C379 173 376 175 376 189ZM81 714C100 707 120 697 140 688C109 667 74 652 39 641C49 633 63 616 70 606C111 619 151 639 185 664C210 650 232 636 248 624L280 664C266 675 247 686 225 698C252 726 275 759 289 798L258 810L248 809L69 809L69 763L219 763C209 747 196 733 182 720C158 731 134 742 112 750ZM312 712C333 705 356 696 378 686C349 667 315 651 281 641C291 633 305 616 311 605C352 619 392 638 427 664C460 648 490 632 510 617L542 659C523 672 497 686 467 700C493 727 515 760 529 798L497 810L487 809L310 809L310 763L458 763C447 748 435 733 421 720C394 731 366 742 341 750ZM69 506C92 497 116 485 140 473C108 451 72 434 35 423C45 414 59 397 65 386C107 401 148 421 183 449C207 435 229 421 244 408L277 447C263 458 243 471 221 483C249 512 272 548 287 589L256 602L246 600L67 600L67 555L219 555C208 537 195 520 179 505C153 519 126 531 101 540ZM309 506C330 496 352 485 374 473C341 450 303 432 265 421C274 412 287 395 294 384C337 399 380 420 416 448C446 429 472 411 490 396L524 433C507 448 482 464 454 481C484 511 508 546 524 589L492 602L482 600L308 600L308 555L454 555C443 536 429 519 413 504C388 517 363 529 340 539ZM626 841C609 690 576 543 518 447C534 439 562 419 574 409C606 464 631 535 651 614L877 614C870 561 860 506 851 468L908 452C925 508 942 598 952 674L906 687L894 684L667 684C677 732 685 781 692 832Z"/><animate attributeName="opacity" values="0;0;0;1;1;0;0" dur="3s" repeatCount="indefinite"/></svg></svg>