<svg id="U6BC8" viewBox="0 0 1000 1000"><svg id="U6BC8hk" viewBox="0 0 1000 1000"><path transform="translate(0, 900) scale(1,-1)" d="M132 546C151 485 165 407 168 356L206 375C203 426 187 503 169 564ZM68 145C80 157 100 168 196 206C180 114 143 28 64-45C78-54 96-72 105-83C244 47 261 215 261 387L261 674L209 674L209 387C209 347 208 308 204 269L127 243L127 726C179 743 242 768 292 793L246 847C201 821 124 781 70 762L70 260C70 220 53 203 40 195C50 183 63 159 68 145ZM353 547C376 485 393 405 396 352L436 368C433 420 414 500 391 562ZM301 760L301-75L353-75L353 696L436 696L436 202C436 193 434 191 427 191C418 190 394 190 366 191C375 172 382 140 383 122C422 122 448 124 467 136C486 148 490 171 490 201L490 760ZM539 784L539 150L470 131L487 64L539 81L539-79L600-79L600 101L722 141L712 203L600 169L600 322L696 322L696 386L600 386L600 523L696 523L696 586L600 586L600 744C640 754 681 768 716 786L666 837C636 818 584 798 539 784ZM733 792L733 656C733 594 725 518 669 460C680 454 702 438 711 429C772 491 785 584 785 655L785 738L854 738L854 536C854 480 862 461 910 461C918 461 922 461 927 461C939 461 951 461 960 464C958 476 957 497 956 510C947 507 935 506 927 506C922 506 919 506 913 506C906 506 906 511 906 535L906 792ZM711 402L711 345L759 345L719 336C735 250 759 168 791 98C755 41 710-4 660-36C673-45 694-66 702-78C746-49 787-10 821 40C849-7 881-46 918-76C927-62 945-41 959-30C918-1 883 42 854 93C897 172 928 271 946 393L911 404L901 402ZM768 345L882 345C868 273 849 211 823 157C799 214 781 278 768 345Z"/><animate attributeName="opacity" values="1;0;0;1;1" dur="2s" repeatCount="indefinite"/></svg><svg id="U6BC8jp" viewBox="0 0 1000 1000"><path transform="translate(0, 900) scale(1,-1)" d="M132 546C150 486 163 407 165 356L204 371C202 422 187 500 169 560ZM207 675L207 387C207 341 206 294 200 249L131 227L131 695C191 723 255 759 305 798L246 842C214 810 159 772 107 744L77 754L77 211L33 198L52 132L189 182C171 100 134 22 62-45C76-53 94-71 103-83C242 47 259 216 259 387L259 675ZM353 547C376 485 393 405 396 353L436 369C433 420 414 500 391 562ZM301 760L301-75L353-75L353 696L436 696L436 202C436 194 434 191 427 191C418 190 394 190 366 191C375 172 382 141 383 123C422 123 448 125 467 137C486 149 490 171 490 201L490 760ZM538 771L538 150L470 132L487 64L538 81L538-78L597-78L597 100L722 142L712 204L597 168L597 322L696 322L696 386L597 386L597 524L696 524L696 586L597 586L597 708C640 731 686 760 723 791L668 838C645 812 609 782 572 759ZM733 792L733 656C733 594 725 518 669 461C680 454 702 439 711 429C772 491 785 584 785 655L785 739L845 739L845 544C845 507 847 494 857 482C866 471 881 468 895 468C902 468 914 468 921 468C932 468 943 471 951 477C960 484 967 493 971 508C974 523 977 566 978 606C964 611 946 619 937 629C937 590 936 557 934 544C932 535 930 528 928 525C925 522 921 521 917 521C913 521 910 521 907 521C903 521 899 523 898 526C896 528 895 535 895 539L895 792ZM771 340L721 328C737 248 761 172 792 106C755 45 709-2 656-35C670-45 692-67 700-80C746-49 788-7 824 46C855-6 892-50 935-81C945-66 964-44 977-33C930-3 890 44 857 101C898 178 928 275 945 393L908 404L897 403L711 403L711 343L877 343C865 277 847 218 824 167C801 220 784 279 771 340Z"/><animate attributeName="opacity" values="0;1;1;0;0" dur="2s" repeatCount="indefinite"/></svg></svg>