<svg id="U6B3B" viewBox="0 0 1000 1000"><svg id="U6B3Bhk" viewBox="0 0 1000 1000"><path transform="translate(0, 900) scale(1,-1)" d="M444 776C425 728 387 659 358 616L413 593C444 632 480 695 511 750ZM447 358C428 311 390 242 362 201L417 179C448 219 484 279 515 333ZM63 751C95 697 134 626 152 584L210 620C191 660 151 728 118 780ZM57 326C89 270 128 193 147 149L205 183C186 225 146 297 112 353ZM262 839C255 628 229 504 51 437C66 425 85 400 93 383C187 421 244 473 278 544C339 502 404 451 437 414L486 465C447 506 369 563 302 605C321 670 328 748 332 839ZM258 428C250 201 226 55 35-22C50-35 70-61 79-78C187-31 248 37 282 126C342 77 405 19 437-22L488 29C449 76 371 145 302 194C318 262 324 339 328 428ZM625 841C604 688 562 542 492 449C510 441 541 423 554 412C590 465 620 533 644 610L870 610C857 544 840 472 823 426L883 408C908 473 934 578 953 668L904 683L892 680L664 680C676 728 687 778 695 830ZM683 551L683 472C683 331 666 123 467-32C482-44 505-69 516-87C636 8 696 121 725 230C763 99 821 4 921-82C931-62 952-40 970-26C842 78 785 197 752 406L753 471L753 551Z"/><animate attributeName="opacity" values="1;0;0;0;0;1;1" dur="3s" repeatCount="indefinite"/></svg><svg id="U6B3Bjp" viewBox="0 0 1000 1000"><path transform="translate(0, 900) scale(1,-1)" d="M132 771C125 706 101 640 60 605L114 578C159 619 184 692 190 759ZM123 346C114 278 88 208 45 172L99 140C148 184 174 261 183 335ZM440 776C420 729 383 661 354 619L409 596C439 635 476 696 506 750ZM447 358C428 311 390 242 362 201L417 179C448 219 484 279 515 333ZM607 841C586 680 547 524 480 425C499 416 533 398 546 388C580 443 608 513 630 591L687 591L687 452C687 371 659 114 459-19C472-34 493-64 501-80C658 27 713 215 723 297C733 217 783 23 924-80C935-61 957-32 970-15C788 114 759 373 759 452L759 591L875 591C867 526 856 456 844 409L903 392C923 457 940 562 952 649L904 663L892 660L649 660C661 714 672 772 681 830ZM260 839C252 628 227 504 49 437C64 425 83 400 90 383C185 421 242 474 276 545C338 503 403 452 437 414L486 465C446 507 367 564 300 607C318 671 326 748 330 839ZM258 428C250 201 226 55 35-22C50-35 70-61 79-78C188-31 248 37 282 127C342 81 403 25 435-15L485 38C447 83 370 147 303 195C318 262 324 340 328 428Z"/><animate attributeName="opacity" values="0;1;1;0;0;0;0" dur="3s" repeatCount="indefinite"/></svg><svg id="U6B3Bsc" viewBox="0 0 1000 1000"><path transform="translate(0, 900) scale(1,-1)" d="M132 771C120 712 94 644 62 605L120 582C153 627 179 700 190 759ZM123 346C111 282 84 211 48 172L104 143C145 190 171 268 184 334ZM440 776C420 729 383 661 354 619L409 596C439 635 476 696 506 750ZM447 358C428 311 390 242 362 201L417 179C448 219 484 279 515 333ZM260 839C252 628 227 504 49 437C64 425 83 400 90 383C185 421 242 474 276 545C338 503 403 452 437 414L486 465C446 507 367 564 300 607C318 671 326 748 330 839ZM258 428C250 201 226 55 35-22C50-35 70-61 79-78C188-31 248 37 282 127C342 81 403 25 435-15L485 38C447 83 370 147 303 195C318 262 324 340 328 428ZM625 841C604 688 563 542 496 449C513 441 543 421 555 411C590 464 620 533 643 610L883 610C870 544 852 472 835 426L891 408C917 473 944 578 962 667L916 683L904 680L663 680C675 728 685 778 693 830ZM686 551L686 476C686 335 669 124 475-32C490-44 511-69 520-87C639 11 698 128 726 240C766 103 826 6 924-82C934-62 953-40 970-26C846 77 786 195 749 399C751 426 751 451 751 475L751 551Z"/><animate attributeName="opacity" values="0;0;0;1;1;0;0" dur="3s" repeatCount="indefinite"/></svg></svg>