<svg id="U6B90" viewBox="0 0 1000 1000"><path transform="translate(0, 900) scale(1,-1)" d="M134 333C174 308 223 274 258 244C207 124 136 36 49-21C65-32 89-59 99-75C255 33 367 244 406 578L364 591L352 588L211 588C223 632 233 678 242 725L418 725L418 663L644 663L644 568L445 568L445 282L602 282C545 172 450 75 347 26C363 13 385-13 396-31C494 22 583 118 644 229L644-80L716-80L716 235C770 131 849 33 926-22C937-3 960 23 977 37C895 87 809 182 756 282L924 282L924 568L716 568L716 663L952 663L952 733L716 733L716 836L644 836L644 733L434 733L434 794L48 794L48 725L171 725C142 568 94 422 21 327C35 313 61 283 71 269C120 336 160 423 191 520L331 520C321 445 305 377 285 316C251 342 208 369 172 390ZM512 503L644 503L644 347L512 347ZM716 503L854 503L854 347L716 347Z"/></svg>