<svg id="U6DE5" viewBox="0 0 1000 1000"><svg id="U6DE5hk" viewBox="0 0 1000 1000"><path transform="translate(0, 900) scale(1,-1)" d="M92 777C150 741 221 687 254 649L304 706C268 742 196 793 138 827ZM38 506C97 473 171 422 205 386L252 444C216 480 142 528 83 558ZM63-19L127-65C180 28 242 152 288 258L232 302C181 190 112 58 63-19ZM846 376C811 331 747 268 702 231L750 193C796 229 856 285 900 336ZM333 335C383 293 437 234 461 194L516 233C490 274 435 330 385 370ZM260 37L298-26C369 18 457 77 539 133L520 189C425 131 325 71 260 37ZM678 139C760 88 864 15 916-34L961 22C908 68 802 139 721 186ZM500 706L757 706L732 608L467 608ZM288 465L288 399L580 399L580 3C580-10 576-14 563-14C550-15 505-15 456-13C466-33 476-61 479-80C545-80 589-79 616-68C643-57 651-37 651 1L651 399L947 399L947 465L768 465C796 562 826 677 846 762L791 773L778 769L520 769L539 830L463 841C437 747 396 623 364 546L716 546L692 465Z"/><animate attributeName="opacity" values="1;0;0;0;0;1;1" dur="3s" repeatCount="indefinite"/></svg><svg id="U6DE5jp" viewBox="0 0 1000 1000"><path transform="translate(0, 900) scale(1,-1)" d="M92 777C154 747 229 698 265 661L308 722C272 758 196 803 134 831ZM38 506C101 478 178 433 215 398L258 460C219 494 141 537 79 562ZM63-19L128-64C179 29 240 153 285 258L228 302C178 190 111 58 63-19ZM845 374C817 331 765 272 728 234L774 202C813 236 863 287 905 335ZM343 339C386 297 433 237 453 197L510 233C490 273 442 330 398 371ZM280 45L318-18C389 25 478 83 560 138L541 194C445 138 346 79 280 45ZM503 695L751 695L733 602L478 602ZM466 840C443 738 406 600 378 516L450 507L461 542L721 542L704 467L293 467L293 401L580 401L580 2C580-10 577-14 564-14C552-15 511-15 464-13C474-33 484-61 487-80C549-80 591-79 617-68C644-57 651-37 651 1L651 239C711 121 802 31 922-14C932 4 953 31 968 45C808 94 700 225 651 387L651 401L955 401L955 467L775 467C796 557 819 668 833 750L781 759L769 755L519 755L538 830Z"/><animate attributeName="opacity" values="0;1;1;0;0;0;0" dur="3s" repeatCount="indefinite"/></svg><svg id="U6DE5sc" viewBox="0 0 1000 1000"><path transform="translate(0, 900) scale(1,-1)" d="M92 777C150 741 221 687 254 649L304 706C268 742 196 793 138 827ZM38 506C97 473 171 422 205 386L252 444C216 480 142 528 83 558ZM63-19L127-65C180 28 242 152 288 258L232 302C181 190 112 58 63-19ZM337 339C380 297 427 237 447 197L504 233C484 273 436 330 392 371ZM278 45L316-18C389 26 481 86 566 142L546 198C448 140 345 80 278 45ZM508 706L757 706L730 600L472 600ZM294 467L294 401L578 401L578 2C578-10 574-14 562-14C549-15 508-15 461-13C471-33 481-61 484-80C547-80 589-79 615-68C641-57 649-37 649 1L649 248C714 135 803 42 906-14C917 6 939 33 957 46C880 82 811 139 755 209C800 243 856 290 902 335L843 374C813 338 764 291 722 254C692 299 668 346 649 397L649 401L934 401L934 467L768 467C797 564 826 677 846 762L791 773L778 769L528 769L547 830L470 841C444 745 401 617 369 538L714 538L693 467Z"/><animate attributeName="opacity" values="0;0;0;1;1;0;0" dur="3s" repeatCount="indefinite"/></svg></svg>