<svg id="U6DC8" viewBox="0 0 1000 1000"><svg id="U6DC8hk" viewBox="0 0 1000 1000"><path transform="translate(0, 900) scale(1,-1)" d="M89 772C144 743 216 696 250 663L287 726C252 758 180 801 125 827ZM36 501C91 474 162 429 197 398L233 461C197 492 126 533 71 558ZM62-10L117-61C167 31 227 155 273 259L225 309C175 196 108 66 62-10ZM358 797L358 491C358 332 349 114 253-41C270-48 300-69 313-82C415 80 429 324 429 491L429 546L927 546L927 797ZM429 733L855 733L855 610L429 610ZM464 23L464-39L868-39L868-75L934-75L934 197L868 197L868 23L728 23L728 254L917 254L917 477L851 477L851 315L728 315L728 514L661 514L661 315L544 315L544 476L481 476L481 254L661 254L661 23L528 23L528 198L464 198Z"/><animate attributeName="opacity" values="1;0;0;1;1" dur="2s" repeatCount="indefinite"/></svg><svg id="U6DC8jp" viewBox="0 0 1000 1000"><path transform="translate(0, 900) scale(1,-1)" d="M81 776C143 746 217 699 254 663L298 723C261 758 185 802 124 829ZM38 507C100 480 175 435 212 402L256 463C218 495 142 538 79 562ZM59-25L126-66C174 27 234 154 277 262L218 302C170 187 105 54 59-25ZM337 791L337 494C337 335 327 118 222-35C238-43 268-65 280-77C392 84 407 326 407 494L407 537L922 537L922 791ZM407 725L851 725L851 602L407 602ZM464 476L464 254L651 254L651 33L505 33L505 197L439 197L439-80L505-80L505-30L866-30L866-77L931-77L931 197L866 197L866 33L716 33L716 254L917 254L917 476L853 476L853 317L716 317L716 516L651 516L651 317L526 317L526 476Z"/><animate attributeName="opacity" values="0;1;1;0;0" dur="2s" repeatCount="indefinite"/></svg></svg>