<svg id="U6DA3" viewBox="0 0 1000 1000"><path transform="translate(0, 900) scale(1,-1)" d="M87 778C146 744 221 693 259 658L306 717C268 750 190 798 132 830ZM36 506C96 474 171 425 207 392L253 451C215 483 139 529 81 558ZM62-10L129-56C179 37 238 162 282 266L223 313C174 199 109 68 62-10ZM509 688L735 688C712 654 683 617 655 587L426 587C457 620 485 654 509 688ZM307 289L307 222L565 222C524 136 439 47 262-28C280-42 304-67 313-82C491-1 583 96 630 190C693 71 797-25 918-75C929-56 950-29 967-15C847 26 744 115 685 222L942 222L942 289L880 289L880 587L741 587C779 629 818 678 844 722L794 756L782 752L550 752C565 777 578 802 590 827L512 842C475 757 403 650 300 572C317 561 340 535 351 517L385 546L385 289ZM459 289L459 527L602 527L602 422C602 382 601 337 589 289ZM803 289L664 289C675 336 677 380 677 420L677 527L803 527Z"/></svg>