<svg id="U6D01" viewBox="0 0 1000 1000"><path transform="translate(0, 900) scale(1,-1)" d="M83 774C143 737 214 681 246 640L295 694C262 734 191 788 131 822ZM42 499C105 467 180 417 217 382L261 440C224 477 147 523 85 552ZM67-19L131-67C186 24 250 144 299 246L243 293C189 183 117 55 67-19ZM586 840L586 692L316 692L316 621L586 621L586 470L346 470L346 400L905 400L905 470L663 470L663 621L944 621L944 692L663 692L663 840ZM379 293L379-81L454-81L454-35L798-35L798-77L876-77L876 293ZM454 33L454 225L798 225L798 33Z"/></svg>