<svg id="U6E77" viewBox="0 0 1000 1000"><path transform="translate(0, 900) scale(1,-1)" d="M89 772C144 743 216 696 250 663L287 726C252 758 180 801 125 827ZM36 501C91 474 162 429 197 398L233 461C197 492 126 533 71 558ZM59-10L113-61C162 29 221 150 266 253L218 302C169 192 104 65 59-10ZM582 841C577 808 572 775 565 744L343 744L343 681L552 681C545 655 538 629 530 605L356 605L356 543L509 543C499 516 487 490 475 465L303 465L303 401L438 401C394 332 339 275 270 230C285 217 314 187 324 173C362 201 396 232 427 266L427-79L497-79L497-42L743-42L743-76L814-76L814 257C846 220 883 187 921 163C933 180 958 205 975 218C904 256 839 325 796 401L953 401L953 465L554 465C565 490 576 516 585 543L895 543L895 605L605 605L626 681L914 681L914 744L640 744L655 831ZM721 401C733 377 746 353 760 330L478 330C494 352 509 376 522 401ZM497 115L743 115L743 22L497 22ZM497 175L497 267L743 267L743 175Z"/></svg>