<svg id="U6E4F" viewBox="0 0 1000 1000"><path transform="translate(0, 900) scale(1,-1)" d="M86 777C147 748 221 700 257 663L302 724C265 758 190 803 129 830ZM38 506C100 479 176 434 213 400L257 461C219 493 142 537 79 561ZM62-21L128-66C181 27 245 155 292 262L235 306C182 191 112 58 62-21ZM467 423L815 423L815 325L467 325ZM467 270L815 270L815 171L467 171ZM467 575L815 575L815 478L467 478ZM524 99C473 54 369 3 279-26C295-40 317-65 328-80C418-50 525 4 591 57ZM689 58C767 17 869-42 919-81L978-34C924 5 821 62 744 99ZM396 633L396 113L888 113L888 633L643 633L677 729L947 729L947 793L327 793L327 729L593 729C586 697 577 662 569 633Z"/></svg>