<svg id="U6E86" viewBox="0 0 1000 1000"><path transform="translate(0, 900) scale(1,-1)" d="M510 252C539 195 568 120 579 74L636 93C624 137 593 212 564 267ZM308 256C291 179 262 99 226 44C240 38 266 24 277 17C312 74 345 161 365 243ZM72 778C122 742 185 689 214 653L261 701C232 738 168 788 117 822ZM36 490C88 459 152 413 183 380L225 433C194 464 129 508 78 536ZM47-26L109-63C151 26 200 146 237 247L183 283C142 176 87 49 47-26ZM856 692C843 531 816 393 775 280C740 398 721 538 708 692ZM613 756L613 692L653 692C668 499 691 328 739 191C692 95 635 22 567-24C582-37 602-62 612-78C674-32 727 31 772 111C809 34 857-30 920-76C931-58 953-30 969-16C898 29 847 99 809 187C869 329 907 514 921 750L881 758L870 756ZM438 841C382 722 287 606 188 532C203 520 227 496 236 484C257 502 279 521 300 543L300 488L406 488L406 382L253 382L253 319L406 319L406 18C406 8 404 5 394 4C383 4 351 4 315 5C323-16 329-43 330-62C385-62 421-61 443-50C467-38 472-19 472 18L472 319L622 319L622 382L472 382L472 488L582 488L582 552L309 552C355 599 398 654 436 713C495 662 557 598 591 553L634 598C599 642 529 711 466 762C478 782 488 802 498 822Z"/></svg>