<svg id="U6E04" viewBox="0 0 1000 1000"><svg id="U6E04hk" viewBox="0 0 1000 1000"><path transform="translate(0, 900) scale(1,-1)" d="M92 777C154 747 229 698 265 661L308 722C272 758 196 803 134 831ZM38 506C101 478 178 433 215 398L258 460C219 494 141 537 79 562ZM66-19L131-66C181 24 238 144 281 245L225 289C177 181 112 54 66-19ZM674 828L674-80L748-80L748 176L961 176L961 247L748 247L748 396L943 396L943 465L748 465L748 606L949 606L949 677L748 677L748 828ZM492 826L492 677L309 677L309 606L492 606L492 465L315 465L315 397L492 397L492 377C492 340 491 302 487 266C407 245 330 224 274 210L299 140L475 200C454 108 405 27 301-32C317-44 342-71 353-86C538 20 565 190 565 376L565 826Z"/><animate attributeName="opacity" values="1;0;0;1;1" dur="2s" repeatCount="indefinite"/></svg><svg id="U6E04sc" viewBox="0 0 1000 1000"><path transform="translate(0, 900) scale(1,-1)" d="M96 774C164 746 245 698 285 662L329 724C287 759 204 804 137 829ZM42 499C108 471 187 424 227 390L269 452C228 486 147 530 82 555ZM76-16L141-64C197 29 263 154 314 259L257 306C202 193 127 61 76-16ZM691 836L691-77L764-77L764 175L962 175L962 245L764 245L764 391L942 391L942 459L764 459L764 603L951 603L951 672L764 672L764 836ZM525 835L525 672L355 672L355 603L525 603L525 459L362 459L362 391L525 391L525 237L333 237L333 168L525 168L525-78L598-78L598 835Z"/><animate attributeName="opacity" values="0;1;1;0;0" dur="2s" repeatCount="indefinite"/></svg></svg>