<svg id="U6E60" viewBox="0 0 1000 1000"><svg id="U6E60hk" viewBox="0 0 1000 1000"><path transform="translate(0, 900) scale(1,-1)" d="M860 374C837 325 794 252 761 208L808 179C843 220 884 283 922 338ZM85 774C137 737 207 685 243 652L287 712C252 742 181 791 129 825ZM34 499C88 468 162 424 199 396L238 460C200 486 125 528 72 555ZM59-21L119-64C171 29 233 156 279 262L224 304C175 190 107 57 59-21ZM444 352C476 296 515 221 533 177L585 210C565 251 525 325 492 380ZM607 840L607 667L440 667L440 809L372 809L372 605L913 605L913 809L842 809L842 667L680 667L680 840ZM645 440C634 234 605 63 409-22C424-35 444-59 452-75C575-18 638 69 673 178C723 67 798-21 900-69C910-50 932-24 947-11C824 38 738 150 697 286C705 334 709 386 712 440ZM343 539L343 340C343 227 334 71 252-40C268-48 298-68 311-81C398 38 413 214 413 339L413 472L955 472L955 539Z"/><animate attributeName="opacity" values="1;0;0;1;1" dur="2s" repeatCount="indefinite"/></svg><svg id="U6E60sc" viewBox="0 0 1000 1000"><path transform="translate(0, 900) scale(1,-1)" d="M545 364C537 300 518 226 489 180L545 154C575 206 595 289 602 356ZM864 378C845 323 808 243 778 193L828 175C859 223 895 295 927 357ZM91 772C151 742 228 693 266 657L306 720C268 754 190 800 130 827ZM36 501C96 472 173 426 211 392L249 456C210 488 133 532 74 558ZM63-10L123-64C176 29 237 152 285 257L232 309C180 196 111 66 63-10ZM596 840L596 667L432 667L432 809L362 809L362 605L906 605L906 809L832 809L832 667L671 667L671 840ZM432 589L428 524L314 524L314 459L422 459C401 259 358 95 257-13C274-23 304-46 315-58C421 65 469 240 493 459L954 459L954 524L499 524L504 584ZM673 440C664 191 638 53 417-18C432-30 451-54 459-70C595-23 665 47 701 150C746 48 818-26 928-63C937-46 956-23 972-10C839 27 762 123 726 252C735 307 739 370 742 440Z"/><animate attributeName="opacity" values="0;1;1;0;0" dur="2s" repeatCount="indefinite"/></svg></svg>