<svg id="U6FB5" viewBox="0 0 1000 1000"><svg id="U6FB5hk" viewBox="0 0 1000 1000"><path transform="translate(0, 900) scale(1,-1)" d="M302 641C317 599 332 544 336 508L398 523C392 558 377 613 360 654ZM76 776C122 743 181 695 209 663L251 715C223 746 163 791 118 822ZM32 506C80 476 140 430 169 399L211 453C181 482 120 526 73 554ZM59-28L122-65C162 28 209 155 243 262L186 299C149 185 97 51 59-28ZM374 823C391 796 411 760 423 733L264 733L264 670L607 670L607 733L456 733L492 748C480 775 456 816 435 847ZM505 656C496 610 475 542 459 498L248 498L248 434L399 434L399 336L253 336L253 273L384 273C341 183 278 93 213 33C228 24 252 2 263-9C310 38 358 103 399 173L399-77L467-77L467 189C505 146 543 100 566 68L608 111C578 152 519 217 467 270L467 273L603 273L603 336L467 336L467 434L609 434L609 498L522 498C538 539 555 594 571 642ZM902 822C842 789 739 755 650 733L652 729L652 372C652 244 645 81 575-35C590-43 616-67 627-80C705 44 716 234 716 372L716 437L816 437L816-75L882-75L882 437L960 437L960 501L716 501L716 689C797 710 884 736 947 766Z"/><animate attributeName="opacity" values="1;0;0;0;0;1;1" dur="3s" repeatCount="indefinite"/></svg><svg id="U6FB5jp" viewBox="0 0 1000 1000"><path transform="translate(0, 900) scale(1,-1)" d="M509 666C503 621 487 555 475 513L532 500C545 539 560 599 576 653ZM77 776C129 744 193 697 223 664L267 725C235 756 171 800 120 829ZM32 506C85 477 151 432 182 401L225 462C192 493 126 535 73 561ZM66-27L133-67C177 25 228 148 265 253L205 292C163 180 107 50 66-27ZM865 837C819 806 743 773 670 749L632 762L632 472C632 326 626 126 550-25C568-33 594-54 605-69C682 84 698 287 700 437L800 437L800-80L868-80L868 437L961 437L961 507L700 507L700 693C778 715 863 746 926 782ZM405 840L405 733L271 733L271 670L606 670L606 733L475 733L475 840ZM305 651C320 602 332 539 333 498L252 498L252 434L405 434L405 336L258 336L258 273L391 273C350 186 285 95 227 48C243 36 265 12 277-4C320 39 367 108 405 181L405-79L475-79L475 169C505 137 541 98 556 77L593 141C575 159 503 221 475 243L475 273L605 273L605 336L475 336L475 434L618 434L618 498L337 498L396 513C393 554 380 617 363 665Z"/><animate attributeName="opacity" values="0;1;1;0;0;0;0" dur="3s" repeatCount="indefinite"/></svg><svg id="U6FB5sc" viewBox="0 0 1000 1000"><path transform="translate(0, 900) scale(1,-1)" d="M304 649C319 603 332 541 334 501L396 518C393 557 379 617 362 663ZM76 776C127 744 189 697 219 664L260 725C230 756 167 800 117 829ZM32 506C84 477 148 432 179 401L219 462C187 493 123 535 71 561ZM63-26L126-64C167 29 216 152 251 257L195 295C157 183 102 52 63-26ZM486 209C515 162 549 99 563 57L616 88C601 128 568 189 538 235ZM308 229C289 170 258 109 219 66C234 59 260 42 272 32C309 77 346 148 368 214ZM651 735L651 430C651 289 644 99 566-36C581-44 610-68 622-83C706 62 719 277 719 430L719 436L810 436L810-78L876-78L876 436L959 436L959 506L719 506L719 688C800 706 886 732 950 762L894 817C837 786 738 754 651 735ZM365 822C381 795 397 762 410 733L269 733L269 670L605 670L605 733L484 733C471 765 448 807 427 839ZM511 663C500 616 478 543 460 498L250 498L250 434L400 434L400 336L259 336L259 273L400 273L400 6C400-4 397-6 387-7C376-7 347-7 313-6C323-24 331-52 334-70C382-70 416-68 438-58C461-47 467-29 467 5L467 273L598 273L598 336L467 336L467 434L611 434L611 498L523 498C541 540 560 597 578 649Z"/><animate attributeName="opacity" values="0;0;0;1;1;0;0" dur="3s" repeatCount="indefinite"/></svg></svg>