<svg id="U6FA3" viewBox="0 0 1000 1000"><svg id="U6FA3hk" viewBox="0 0 1000 1000"><path transform="translate(0, 900) scale(1,-1)" d="M35 507C92 480 160 435 192 402L237 462C203 494 134 536 78 562ZM52-27L120-67C164 25 214 148 251 253L191 292C150 180 93 50 52-27ZM344 390L516 390L516 309L344 309ZM344 523L516 523L516 443L344 443ZM746 850C712 733 648 617 577 544L577 580L464 580L464 666L589 666L589 730L464 730L464 840L398 840L398 730L265 730L265 705C231 738 170 779 118 805L74 752C129 721 196 674 227 640L265 689L265 666L398 666L398 580L284 580L284 253L398 253L398 165L248 165L248 99L398 99L398-80L464-80L464 99L608 99L608 165L464 165L464 253L577 253L577 509C588 498 599 486 607 476C668 537 723 625 765 722C804 623 862 528 923 479C935 496 957 521 973 534C900 584 831 699 796 803L805 831ZM598 290L598 222L733 222L733-80L800-80L800 222L946 222L946 290L800 290L800 421L908 421L908 488L635 488L635 421L733 421L733 290Z"/><animate attributeName="opacity" values="1;0;0;1;1" dur="2s" repeatCount="indefinite"/></svg><svg id="U6FA3jp" viewBox="0 0 1000 1000"><path transform="translate(0, 900) scale(1,-1)" d="M38 508C95 480 163 436 195 403L240 463C206 495 137 537 81 562ZM58-27L126-67C169 25 220 148 257 253L197 292C156 180 99 50 58-27ZM350 390L526 390L526 309L350 309ZM350 523L526 523L526 443L350 443ZM404 840L404 730L271 730C237 762 176 803 124 829L80 776C135 746 202 699 233 664L271 714L271 666L404 666L404 580L290 580L290 253L404 253L404 165L250 165L250 99L404 99L404-80L470-80L470 99L629 99L629 165L470 165L470 253L588 253L588 519C598 504 607 486 613 473L636 498L636 441L739 441L739 295L603 295L603 227L739 227L739-80L807-80L807 227L956 227L956 295L807 295L807 441L918 441L918 495L933 479C943 500 959 529 972 547C906 607 841 723 805 836L735 836C709 731 652 615 588 546L588 580L470 580L470 666L612 666L612 730L470 730L470 840ZM772 762C800 674 849 578 907 508L644 508C702 579 747 676 772 762Z"/><animate attributeName="opacity" values="0;1;1;0;0" dur="2s" repeatCount="indefinite"/></svg></svg>