<svg id="U6F7D" viewBox="0 0 1000 1000"><path transform="translate(0, 900) scale(1,-1)" d="M829 612C817 567 791 500 772 458L826 441C845 481 870 541 891 593ZM364 595C386 549 407 487 413 446L470 463C463 503 440 564 416 611ZM89 777C150 747 223 699 259 663L303 725C267 760 192 804 132 831ZM38 507C100 480 174 435 210 402L253 463C216 496 141 539 80 563ZM64-21L130-66C181 27 240 151 284 257L224 301C176 188 110 56 64-21ZM464 105L796 105L796 20L464 20ZM464 161L464 242L796 242L796 161ZM393 302L393-80L464-80L464-40L796-40L796-76L869-76L869 302ZM430 819C453 784 475 737 486 703L334 703L334 638L515 638L515 429L287 429L287 362L962 362L962 429L730 429L730 638L932 638L932 703L763 703C784 734 809 778 833 819L763 842C749 805 720 750 698 716L735 703L518 703L554 717C543 751 517 802 491 840ZM578 638L667 638L667 429L578 429Z"/></svg>