<svg id="U6FB7" viewBox="0 0 1000 1000"><svg id="U6FB7jp" viewBox="0 0 1000 1000"><path transform="translate(0, 900) scale(1,-1)" d="M89 777C150 747 223 699 259 663L303 725C267 760 192 804 132 831ZM38 507C100 480 174 435 210 402L253 463C216 496 141 539 80 563ZM61-21L124-64C173 29 230 154 272 260L215 301C169 188 105 57 61-21ZM440 665L794 665L794 608L440 608ZM440 761L794 761L794 706L440 706ZM372 813L372 556L864 556L864 813ZM728 456L850 456L850 376L728 376ZM556 456L675 456L675 376L556 376ZM387 456L503 456L503 376L387 376ZM323 508L323 324L575 324L575 264L283 264L283 204L486 204C462 80 384 11 256-25C269-38 289-66 295-81C400-45 475 8 520 93L774 93C763 29 751-2 737-14C728-20 719-21 702-21C685-21 638-21 591-16C602-34 608-59 610-78C659-80 705-80 729-79C756-78 774-73 792-58C817-37 833 14 849 123C852 133 853 153 853 153L545 153C550 169 554 186 558 204L962 204L962 264L648 264L648 324L918 324L918 508Z"/><animate attributeName="opacity" values="1;0;0;1;1" dur="2s" repeatCount="indefinite"/></svg><svg id="U6FB7sc" viewBox="0 0 1000 1000"><path transform="translate(0, 900) scale(1,-1)" d="M89 777C150 747 223 699 259 663L303 725C267 760 192 804 132 831ZM42 506C104 479 177 434 214 400L257 462C220 495 144 538 83 562ZM58-35L121-77C170 16 226 141 269 246L213 288C167 175 102 44 58-35ZM462 675L773 675L773 631L462 631ZM462 757L773 757L773 714L462 714ZM395 805L395 583L843 583L843 805ZM726 501L847 501L847 402L726 402ZM553 501L671 501L671 402L553 402ZM384 501L498 501L498 402L384 402ZM555 341C568 324 582 304 594 284L282 284L282 224L471 224C450 90 372 16 238-23C251-36 271-64 277-78C382-42 457 12 501 97L789 97C778 37 767 9 753-2C745-9 735-10 718-10C701-10 654-9 607-5C618-22 626-48 627-66C675-69 722-69 745-68C772-67 790-62 807-47C832-25 849 23 864 127C867 137 868 157 868 157L527 157C533 178 539 200 543 224L960 224L960 284L675 284C662 309 642 338 622 361L914 361L914 542L319 542L319 361L600 361Z"/><animate attributeName="opacity" values="0;1;1;0;0" dur="2s" repeatCount="indefinite"/></svg></svg>