<svg id="U6F2A" viewBox="0 0 1000 1000"><svg id="U6F2Ahk" viewBox="0 0 1000 1000"><path transform="translate(0, 900) scale(1,-1)" d="M59 777C108 744 167 696 194 660L243 714C214 748 154 794 105 824ZM37 508C88 477 150 429 179 396L227 450C197 483 134 528 82 557ZM48-29L113-65C151 26 195 150 227 254L168 290C133 178 84 49 48-29ZM430 809C414 776 394 742 372 708C350 743 323 778 290 812L239 775C278 734 308 692 330 649C294 604 255 561 215 526C231 515 252 495 264 481C297 510 329 544 359 579C375 534 384 487 389 439C350 368 285 288 231 244C249 231 270 208 281 191C317 227 359 278 395 331L395 298C395 173 388 41 365 11C358 2 350-2 337-3C320-5 288-5 253-3C265-22 271-48 271-71C304-72 339-71 365-67C389-63 405-53 417-37C454 14 462 156 462 297C462 418 454 532 407 640C440 684 469 731 492 777ZM697 837L697 808C697 790 696 771 693 750L517 750L517 685L675 685C650 627 598 567 489 519C504 507 526 485 535 469C646 521 704 585 733 649C794 594 856 527 885 478L934 521C904 569 844 632 783 685L952 685L952 750L759 750C761 770 762 788 762 806L762 837ZM494 464L494 398L835 398L835-1C835-13 831-17 817-17C804-17 759-18 709-16C718-35 727-62 731-79C798-79 841-79 869-69C896-58 904-40 904-2L904 398L960 398L960 464ZM536 330L536 33L594 33L594 86L767 86L767 330ZM594 274L709 274L709 142L594 142Z"/><animate attributeName="opacity" values="1;0;0;1;1" dur="2s" repeatCount="indefinite"/></svg><svg id="U6F2Ajp" viewBox="0 0 1000 1000"><path transform="translate(0, 900) scale(1,-1)" d="M59 777C110 746 170 699 198 664L244 720C215 753 153 798 102 826ZM35 510C87 482 150 436 180 405L224 461C194 493 130 535 77 561ZM48-29L114-65C151 27 194 150 225 254L166 290C132 178 83 49 48-29ZM442 810C427 777 407 742 384 708C361 745 334 781 299 817L247 780C288 737 318 693 341 648C306 603 267 561 227 527C243 516 265 496 277 482C309 511 340 543 370 578C384 533 393 487 398 440C359 369 294 287 240 242C258 230 279 207 290 190C327 226 369 278 405 332L405 296C405 169 397 37 374 6C367-3 359-7 346-9C328-10 297-11 261-8C273-28 279-55 280-77C313-79 348-79 375-73C398-70 415-60 427-44C464 8 473 152 473 295C473 417 465 531 419 639C452 684 481 731 505 778ZM697 837L697 750L517 750L517 685L693 685C682 624 640 565 500 523C514 511 535 485 544 470C646 502 701 544 731 592C791 553 860 503 899 469L945 521C902 555 822 610 755 650C758 662 760 673 762 685L952 685L952 750L764 750L764 837ZM496 464L496 398L835 398L835-1C835-13 831-17 817-17C804-17 759-18 709-16C718-35 727-62 731-79C798-79 841-79 869-69C896-58 904-40 904-2L904 398L962 398L962 464ZM533 333L533 37L591 37L591 89L763 89L763 333ZM591 278L705 278L705 145L591 145Z"/><animate attributeName="opacity" values="0;1;1;0;0" dur="2s" repeatCount="indefinite"/></svg></svg>