<svg id="U6F4C" viewBox="0 0 1000 1000"><path transform="translate(0, 900) scale(1,-1)" d="M512 652C460 605 381 567 309 547L348 499C431 524 510 574 566 629ZM641 622C705 585 787 530 829 496L873 537C830 571 746 622 683 657ZM77 777C127 741 187 686 216 648L259 704C229 740 167 792 119 827ZM34 501C86 470 153 422 184 389L222 451C189 484 122 528 70 556ZM60-10L117-56C160 33 210 153 248 254L197 300C156 191 100 65 60-10ZM343 236C362 243 390 248 550 260L550 176L316 176L316 117L550 117L550 21L257 21L257-41L938-41L938 21L623 21L623 117L879 117L879 176L623 176L623 265L805 278C823 256 839 236 850 219L905 254C874 298 809 365 756 413L703 384L753 334L438 316C472 347 506 385 536 424L901 424L901 484L300 484L300 424L449 424C416 380 379 342 366 330C350 315 334 305 320 302C328 284 339 251 343 236ZM520 823C533 802 547 777 558 754L284 754L284 600L349 600L349 697L850 697L850 604L917 604L917 754L636 754C624 782 605 816 586 843Z"/></svg>