<svg id="U6FAE" viewBox="0 0 1000 1000"><svg id="U6FAEhk" viewBox="0 0 1000 1000"><path transform="translate(0, 900) scale(1,-1)" d="M344 533L344 284L902 284L902 533ZM454 450C474 420 493 379 499 352L541 369C534 395 515 435 495 464ZM736 465C726 437 706 394 689 367L726 350C742 375 762 412 782 447ZM89 772C146 741 219 692 253 658L296 719C260 752 187 797 131 826ZM36 501C92 472 163 427 198 395L240 457C204 488 133 531 77 557ZM62-10L120-65C174 32 236 159 281 263L231 315C180 201 110 68 62-10ZM593 855C516 736 377 635 239 574C253 560 275 529 284 515C347 547 411 587 471 634L471 591L763 591L763 640C818 603 875 569 925 543C935 561 952 586 968 600C860 646 722 732 644 811L657 830ZM755 645L485 645C529 681 571 721 607 764C649 724 701 683 755 645ZM449 73L751 73L751 122L449 122L449 187L791 187L791 3L449 3ZM378 238L378-81L449-81L449-50L791-50L791-78L865-78L865 238ZM410 481L586 481L586 336L410 336ZM646 481L835 481L835 336L646 336Z"/><animate attributeName="opacity" values="1;0;0;0;0;1;1" dur="3s" repeatCount="indefinite"/></svg><svg id="U6FAEjp" viewBox="0 0 1000 1000"><path transform="translate(0, 900) scale(1,-1)" d="M85 777C143 748 213 701 246 667L291 728C256 761 186 804 129 831ZM38 506C98 480 170 437 205 405L248 466C212 498 140 537 79 561ZM62-25L127-67C174 26 228 149 269 254L211 295C166 183 105 52 62-25ZM332 535L332 288L878 288L878 535ZM433 448C455 419 479 379 488 353L530 375C520 400 496 438 473 466ZM730 467C716 440 688 397 668 371L706 353C728 378 754 413 777 447ZM602 775C678 683 814 585 929 529C940 548 956 575 971 591C851 641 718 736 633 837L565 837C502 745 373 642 243 583C257 567 274 541 282 523C346 555 409 596 465 640L465 590L740 590L740 643L468 643C522 686 569 732 602 775ZM444 71L765 71L765 2L444 2ZM444 121L444 187L765 187L765 121ZM376 239L376-81L444-81L444-51L765-51L765-77L835-77L835 239ZM398 483L571 483L571 340L398 340ZM631 483L811 483L811 340L631 340Z"/><animate attributeName="opacity" values="0;1;1;0;0;0;0" dur="3s" repeatCount="indefinite"/></svg><svg id="U6FAEsc" viewBox="0 0 1000 1000"><path transform="translate(0, 900) scale(1,-1)" d="M347 534L347 285L883 285L883 534ZM453 450C474 420 492 381 499 354L541 371C535 396 514 435 495 464ZM730 465C719 437 699 394 683 367L720 351C736 376 756 412 777 447ZM89 772C144 743 216 696 250 663L287 726C252 758 180 801 125 827ZM36 501C91 474 162 429 197 398L233 461C197 492 126 533 71 558ZM62-10L117-61C167 31 227 155 273 259L225 309C175 196 108 66 62-10ZM760 643L471 643L471 589L760 589ZM595 855C526 748 398 660 272 608C283 592 299 559 304 544C361 571 418 604 471 643C523 681 571 725 611 773C696 691 827 605 936 552C940 570 952 601 963 617C856 661 720 743 645 818L655 833ZM456 72L769 72L769 3L456 3ZM456 121L456 187L769 187L769 121ZM384 238L384-81L456-81L456-50L769-50L769-78L843-78L843 238ZM414 482L582 482L582 337L414 337ZM643 482L815 482L815 337L643 337Z"/><animate attributeName="opacity" values="0;0;0;1;1;0;0" dur="3s" repeatCount="indefinite"/></svg></svg>