<svg id="U70D3" viewBox="0 0 1000 1000"><svg id="U70D3hk" viewBox="0 0 1000 1000"><path transform="translate(0, 900) scale(1,-1)" d="M331 668C321 596 298 491 278 426L326 406C348 467 372 565 395 643ZM36 655C59 567 81 449 90 382L149 401C141 465 116 580 92 668ZM622 835L622 703L424 703L424 635L622 635L622 480L382 480L382 412L950 412L950 480L697 480L697 635L908 635L908 703L697 703L697 835ZM622 391L622 267L403 267L403 199L622 199L622 24L332 24L332-46L962-46L962 24L697 24L697 199L927 199L927 267L697 267L697 391ZM187 833L187 494C187 312 173 124 42-21C59-33 83-57 94-72C165 7 205 97 228 192C262 143 304 80 323 46L374 96C353 123 273 234 242 270C253 343 255 419 255 494L255 833Z"/><animate attributeName="opacity" values="1;0;0;1;1" dur="2s" repeatCount="indefinite"/></svg><svg id="U70D3jp" viewBox="0 0 1000 1000"><path transform="translate(0, 900) scale(1,-1)" d="M378 666C358 604 317 513 285 458L335 433C368 486 410 569 445 638ZM101 638C97 547 76 449 34 396L87 368C133 431 153 535 157 629ZM646 840L646 697L462 697L462 629L646 629L646 476L418 476L418 409L952 409L952 476L721 476L721 629L917 629L917 697L721 697L721 840ZM646 388L646 261L441 261L441 193L646 193L646 23L368 23L368-46L966-46L966 23L721 23L721 193L929 193L929 261L721 261L721 388ZM210 827L210 496C210 315 193 126 33-16C49-28 74-53 85-69C180 15 229 114 254 220C302 168 363 97 390 60L441 114C414 143 311 253 268 294C278 360 280 428 280 496L280 827Z"/><animate attributeName="opacity" values="0;1;1;0;0" dur="2s" repeatCount="indefinite"/></svg></svg>