<svg id="U7092" viewBox="0 0 1000 1000"><svg id="U7092hk" viewBox="0 0 1000 1000"><path transform="translate(0, 900) scale(1,-1)" d="M36 654C60 563 83 442 92 374L154 393C145 459 119 577 95 668ZM504 670C483 560 448 444 404 368C421 362 453 347 467 337C511 417 550 539 574 657ZM790 662C837 576 884 462 901 387L970 412C951 487 904 598 854 684ZM857 351C787 152 632 40 378-11C394-28 411-57 419-78C687-16 851 109 927 329ZM361 679C347 617 317 527 293 471L344 449C370 501 402 584 430 653ZM647 838L647 272C647 259 642 255 628 255C614 254 568 254 519 256C529 238 539 211 543 193C613 193 654 194 682 205C709 215 718 233 718 272L718 838ZM195 835L195 495C195 310 179 117 30-30C47-41 71-67 82-84C174 4 220 109 244 219C285 170 340 104 365 69L414 125C390 153 290 263 256 295C264 361 266 428 266 494L266 835Z"/><animate attributeName="opacity" values="1;0;0;0;0;0;0;1;1" dur="4s" repeatCount="indefinite"/></svg><svg id="U7092jp" viewBox="0 0 1000 1000"><path transform="translate(0, 900) scale(1,-1)" d="M651 832L651 328C651 315 646 312 633 311C620 310 577 310 530 312C540 294 553 264 557 245C622 245 661 247 687 258C713 270 722 289 722 327L722 832ZM783 687C832 596 881 474 898 401L966 426C947 498 896 617 845 707ZM100 636C95 546 76 448 36 394L90 368C134 430 152 534 155 628ZM366 666C347 604 312 514 284 458L333 433C363 486 400 569 433 638ZM520 702C497 592 456 487 395 417C413 409 444 392 459 382C516 456 563 569 590 690ZM835 380C775 170 642 41 402-20C419-37 438-64 447-85C700-12 840 129 905 360ZM206 826L206 493C206 311 189 122 36-21C53-33 77-59 89-74C173 4 220 96 245 193C287 143 342 74 366 38L418 92C395 120 299 230 261 268C273 342 276 418 276 493L276 826Z"/><animate attributeName="opacity" values="0;1;1;0;0;0;0;0;0" dur="4s" repeatCount="indefinite"/></svg><svg id="U7092sc" viewBox="0 0 1000 1000"><path transform="translate(0, 900) scale(1,-1)" d="M82 635C78 556 63 453 38 391L96 368C122 438 137 547 139 628ZM356 665C340 602 308 512 283 456L329 435C357 488 390 572 418 640ZM493 670C478 561 452 445 416 368C433 362 465 347 479 337C515 418 545 540 563 657ZM775 662C822 576 869 462 887 387L955 412C936 487 889 598 839 684ZM839 351C766 154 609 41 360-11C376-28 393-57 401-77C664-14 830 112 909 329ZM633 840L633 221L705 221L705 840ZM195 835L195 493C195 309 180 118 41-30C58-41 83-67 94-84C175 1 219 99 241 202C282 156 334 92 357 59L407 115C384 142 288 247 255 279C264 349 266 421 266 493L266 835Z"/><animate attributeName="opacity" values="0;0;0;1;1;0;0;0;0" dur="4s" repeatCount="indefinite"/></svg><svg id="U7092tc" viewBox="0 0 1000 1000"><path transform="translate(0, 900) scale(1,-1)" d="M36 654C60 563 83 442 92 374L154 393C145 459 119 577 95 668ZM493 670C478 561 452 445 416 368C433 362 465 347 479 337C515 418 545 540 563 657ZM775 662C822 576 869 462 887 387L955 412C936 487 889 598 839 684ZM839 351C766 154 609 41 360-11C376-28 393-57 401-77C664-14 830 112 909 329ZM633 840L633 221L705 221L705 840ZM352 665C336 602 303 512 278 456L328 433C356 486 391 569 420 638ZM195 835L195 495C195 310 179 117 30-30C47-41 71-67 82-84C170 1 216 100 240 205C281 159 334 96 357 63L406 119C383 146 287 249 254 279C264 350 266 422 266 494L266 835Z"/><animate attributeName="opacity" values="0;0;0;0;0;1;1;0;0" dur="4s" repeatCount="indefinite"/></svg></svg>