<svg id="U706A" viewBox="0 0 1000 1000"><svg id="U706Ahk" viewBox="0 0 1000 1000"><path transform="translate(0, 900) scale(1,-1)" d="M421 404C438 394 459 378 470 367L491 387C480 398 459 413 442 422ZM513 320C532 309 552 292 562 280L583 301C573 313 552 330 534 339ZM226 486L226 322L286 322L286 430L879 430L879 322L941 322L941 486ZM815 410C778 364 708 323 647 297C660 285 677 267 686 254C751 285 822 335 864 391ZM860 281C817 227 735 178 656 149C671 138 687 120 697 106C780 140 865 196 915 261ZM901 163C851 78 750 8 636-29C650-42 666-62 675-77C798-32 903 45 960 144ZM55 778C98 746 149 700 172 667L219 718C195 749 142 793 99 823ZM30 501C74 472 127 429 152 399L196 453C170 482 116 522 72 548ZM43-26L105-65C143 26 186 145 216 245L163 284C128 176 79 50 43-26ZM501 841C490 805 473 763 443 729L443 764L369 764L369 840L316 840L316 764L229 764L229 712L305 712C276 656 232 597 191 566C200 552 213 529 218 512C253 543 288 594 316 646L316 503L369 503L369 636C389 611 411 582 421 565L456 608C443 623 392 672 369 694L369 712L443 712L443 722C455 717 471 706 480 697C493 713 505 730 514 747L555 747L555 693L450 693L450 646L555 646L555 557L510 557L510 624L468 624L468 511L692 511L692 624L650 624L650 557L605 557L605 646L703 646L703 693L605 693L605 747L697 747L697 794L536 794L549 835ZM801 840L801 764L709 764L709 712L781 712C761 660 730 607 694 580C706 571 722 554 730 543C757 567 782 608 801 652L801 503L854 503L854 654C883 619 918 576 931 554L970 598C952 617 882 685 854 710L854 712L949 712L949 764L854 764L854 840ZM291 390L291 160L638 160L638 390L586 390L586 208L472 208L492 225C483 237 464 254 449 265L426 248C441 237 459 221 468 208L342 208L342 328C358 317 376 303 386 292L407 311C398 321 379 336 362 345L342 330L342 390ZM363 377C388 358 415 336 440 313C411 290 379 268 348 251C357 245 370 231 375 225C404 244 435 266 465 291C492 265 516 240 532 220L559 243C542 263 518 288 490 313C519 340 546 368 567 396L535 407C516 382 492 358 466 335C440 357 413 379 388 397ZM572 130C523 110 437 89 357 73L357 147L296 147L296 14C296-50 313-73 381-73C398-73 518-73 542-73C571-73 602-72 617-68C615-54 612-32 611-16C594-19 560-21 539-21C517-21 408-21 386-21C362-21 357-12 357 13L357 28C447 43 546 65 617 91Z"/><animate attributeName="opacity" values="1;0;0;1;1" dur="2s" repeatCount="indefinite"/></svg><svg id="U706Asc" viewBox="0 0 1000 1000"><path transform="translate(0, 900) scale(1,-1)" d="M421 404C438 393 458 377 469 365L490 387C480 399 459 415 441 423ZM443 255C459 242 476 223 486 210L509 230C499 243 480 260 465 271ZM514 320C531 308 552 291 563 279L584 301C573 313 552 330 535 339ZM345 331C362 320 380 304 391 292L412 313C403 324 382 339 367 349ZM291 378L291 159L639 159L639 378L587 378L587 206L342 206L342 378ZM226 486L226 322L285 322L285 430L879 430L879 322L940 322L940 486ZM816 394C779 355 712 319 654 297C668 286 682 268 692 256C753 281 821 323 862 371ZM853 273C812 220 733 174 659 148C672 135 686 116 695 102C774 134 854 187 902 251ZM890 147C838 66 734 4 621-29C633-42 646-64 654-80C776-39 883 30 942 127ZM57 778C98 745 147 697 169 664L213 707C190 740 141 786 99 817ZM31 499C75 472 129 430 156 401L193 452C165 480 110 519 67 544ZM43-26L101-63C138 27 181 148 212 249L162 286C127 177 78 50 43-26ZM316 840L316 764L229 764L229 712L305 712C282 663 246 612 212 585C221 570 232 546 237 529C265 555 293 597 316 641L316 503L369 503L369 638C387 614 406 588 414 573L448 619C437 633 391 679 369 698L369 712L436 712L436 764L369 764L369 840ZM796 840L796 764L709 764L709 712L777 712C759 661 729 609 697 583C709 573 724 553 733 540C757 564 779 604 796 648L796 503L849 503L849 639C873 610 900 575 911 557L947 600C932 617 875 674 849 698L849 712L934 712L934 764L849 764L849 840ZM502 839C491 801 472 757 441 723C454 717 472 703 481 692C495 709 506 727 516 745L555 745L555 691L450 691L450 644L555 644L555 557L509 557L509 624L468 624L468 511L691 511L691 624L649 624L649 557L605 557L605 644L704 644L704 691L605 691L605 745L684 745L684 792L536 792L549 832ZM364 375C389 358 416 338 442 318C410 294 377 272 344 254C352 247 366 234 372 227C403 246 436 270 468 296C499 270 526 244 545 223L571 249C553 269 525 294 495 319C522 343 547 369 567 395L535 407C517 384 494 361 469 340C442 360 415 380 389 397ZM286-85C307-76 339-70 619-34C617-23 614-1 614 13L355-18L355 59L606 59L606 106L355 106L355 146L297 146L297 18C297-19 277-32 263-38C272-49 283-72 286-85Z"/><animate attributeName="opacity" values="0;1;1;0;0" dur="2s" repeatCount="indefinite"/></svg></svg>