<svg id="U70F8" viewBox="0 0 1000 1000"><svg id="U70F8hk" viewBox="0 0 1000 1000"><path transform="translate(0, 900) scale(1,-1)" d="M581 455C623 428 681 386 713 361L754 403C724 427 666 466 621 492ZM564 239C606 210 664 166 694 138L737 180C706 205 649 247 605 276ZM36 656C53 562 68 438 71 367L131 381C126 449 110 570 92 665ZM499 842C470 734 418 629 354 560C371 550 398 527 410 516C445 556 477 608 505 665L938 665L938 732L534 732C547 763 558 794 567 826ZM827 506L821 351L511 351L528 506ZM466 568C460 503 452 427 443 351L352 351L352 285L435 285C424 199 412 118 401 57L798 57C793 29 787 12 781 4C772-9 763-12 749-11C731-11 693-11 650-7C661-25 668-53 669-72C711-74 752-74 777-71C805-69 824-61 841-36C853-21 862 7 869 57L944 57L944 121L876 121C880 164 883 218 886 285L957 285L957 351L889 351L896 533C896 543 896 568 896 568ZM818 285C815 216 811 162 807 121L482 121L503 285ZM316 675C303 612 276 520 253 462L253 489L253 829L184 829L184 489C184 307 170 118 40-29C56-41 81-65 92-82C164-1 205 90 227 187C259 140 296 80 314 47L364 99C346 126 271 232 241 268C249 330 252 393 253 456L298 439C324 493 354 582 381 653Z"/><animate attributeName="opacity" values="1;0;0;1;1" dur="2s" repeatCount="indefinite"/></svg><svg id="U70F8sc" viewBox="0 0 1000 1000"><path transform="translate(0, 900) scale(1,-1)" d="M80 635C76 556 62 453 40 391L90 368C113 438 126 547 129 628ZM305 665C292 602 267 512 247 456L287 435C309 488 336 572 359 639ZM581 455C623 428 682 385 713 360L755 402C724 426 665 465 621 492ZM564 239C606 210 665 166 695 138L738 180C707 205 649 247 605 276ZM176 835L176 493C176 309 162 118 36-30C50-41 71-65 81-81C151 0 190 94 211 192C245 141 289 72 308 35L354 88C334 117 253 235 224 271C233 344 235 419 235 493L235 835ZM498 841C469 733 417 628 353 560C369 549 396 527 408 515C443 555 476 607 504 664L941 664L941 731L534 731C547 762 558 793 567 825ZM827 505L821 351L511 351L528 505ZM466 568C460 502 452 427 443 351L361 351L361 285L434 285C423 200 410 119 399 58L798 58C792 29 787 11 780 3C771-10 762-12 748-12C730-12 691-12 648-8C660-26 666-53 667-73C709-74 751-75 776-72C805-70 824-62 840-37C852-22 861 7 869 58L949 58L949 121L876 121C880 164 883 218 886 285L963 285L963 351L889 351L896 532C896 542 897 568 897 568ZM818 285C814 216 811 162 806 121L481 121L503 285Z"/><animate attributeName="opacity" values="0;1;1;0;0" dur="2s" repeatCount="indefinite"/></svg></svg>