<svg id="U703C" viewBox="0 0 1000 1000"><svg id="U703Chk" viewBox="0 0 1000 1000"><path transform="translate(0, 900) scale(1,-1)" d="M419 612L538 612L538 534L419 534ZM715 612L837 612L837 533L715 533ZM89 772C141 743 209 697 242 664L279 727C246 758 177 801 125 827ZM36 501C89 475 157 433 191 401L227 465C192 495 123 534 71 558ZM62-10L117-61C167 31 225 153 269 258L221 307C172 195 107 66 62-10ZM565 829C578 807 590 781 600 757L315 757L315 697L951 697L951 757L673 757C664 785 646 821 627 849ZM438-79C455-69 484-60 669-19C667-5 665 22 666 40L504 8L504 104C546 125 585 149 617 176C675 53 784-38 926-78C936-61 955-35 969-22C901-6 840 21 789 58C834 79 886 106 927 135L878 173C845 149 792 117 747 93C720 119 697 149 679 181L953 181L953 237L766 237L766 289L901 289L901 338L766 338L766 388L922 388L922 442L766 442L766 490L896 490L896 655L658 655L658 490L699 490L699 442L542 442L542 491L597 491L597 655L363 655L363 491L476 491L476 442L335 442L335 388L476 388L476 338L366 338L366 289L476 289L476 237L306 237L306 181L534 181C463 136 360 101 267 79C280 66 298 39 306 27C351 40 399 57 445 77L445 49C445 4 421-21 405-31C417-42 432-65 438-79ZM542 237L542 289L699 289L699 237ZM542 388L699 388L699 338L542 338Z"/><animate attributeName="opacity" values="1;0;0;1;1" dur="2s" repeatCount="indefinite"/></svg><svg id="U703Cjp" viewBox="0 0 1000 1000"><path transform="translate(0, 900) scale(1,-1)" d="M419 612L538 612L538 531L419 531ZM715 612L837 612L837 530L715 530ZM89 777C150 747 223 699 259 663L303 725C267 760 192 804 132 831ZM38 507C100 480 174 435 210 402L253 463C216 496 141 539 80 563ZM61-21L127-67C180 26 241 151 287 256L228 301C178 188 109 56 61-21ZM586 840L586 757L315 757L315 697L951 697L951 757L660 757L660 840ZM658 655L658 486L699 486L699 437L542 437L542 487L597 487L597 655L363 655L363 487L476 487L476 437L335 437L335 383L476 383L476 333L366 333L366 284L476 284L476 232L306 232L306 176L524 176C453 136 356 105 268 84C280 72 298 45 306 32C352 45 400 62 447 81L447-2L364-16L380-76C466-60 579-37 689-16L684 40L510 9L510 110C549 129 585 151 615 175C673 50 782-42 926-83C936-65 955-40 969-26C901-11 840 16 790 53C834 74 886 101 927 131L878 168C845 144 792 112 748 89C720 115 697 144 679 176L953 176L953 232L766 232L766 284L901 284L901 333L766 333L766 383L922 383L922 437L766 437L766 486L896 486L896 655ZM542 232L542 284L699 284L699 232ZM542 383L699 383L699 333L542 333Z"/><animate attributeName="opacity" values="0;1;1;0;0" dur="2s" repeatCount="indefinite"/></svg></svg>