<svg id="U7120" viewBox="0 0 1000 1000"><svg id="U7120hk" viewBox="0 0 1000 1000"><path transform="translate(0, 900) scale(1,-1)" d="M36 654C60 563 83 442 92 374L151 392C142 458 116 576 92 667ZM374 230L374 160L627 160L627-80L700-80L700 160L963 160L963 230L700 230L700 327L627 327L627 230ZM783 622C759 524 715 432 655 370C668 360 688 340 700 327L706 320C737 352 764 392 787 437C833 397 880 352 906 320L950 373C920 407 865 456 814 496C829 532 841 570 851 609ZM334 678C318 616 286 526 261 470L308 448C336 500 369 582 397 650L952 650L952 720L721 720C709 753 686 805 666 844L598 824C613 792 629 752 641 720L393 720L393 655ZM520 626C492 519 440 420 370 357C385 345 411 319 422 306C457 342 490 387 518 438C553 407 590 374 610 351L650 403C627 427 584 463 546 494C562 531 577 570 588 611ZM183 832L183 485C183 303 168 117 34-26C50-38 74-63 85-78C158-1 200 87 223 181C261 132 307 68 328 33L381 93C358 119 275 223 239 262C250 335 252 409 252 484L252 832Z"/><animate attributeName="opacity" values="1;0;0;0;0;1;1" dur="3s" repeatCount="indefinite"/></svg><svg id="U7120jp" viewBox="0 0 1000 1000"><path transform="translate(0, 900) scale(1,-1)" d="M97 636C92 546 74 448 34 394L87 368C131 431 148 535 151 629ZM359 669C342 606 308 516 282 460L329 437C358 491 394 574 423 642L409 648L950 648L950 717L698 717L698 840L624 840L624 717L392 717L392 655ZM791 632C758 523 696 421 621 355C633 347 653 333 668 322L624 322L624 223L362 223L362 152L624 152L624-81L698-81L698 152L963 152L963 223L698 223L698 322L689 322C721 355 751 394 778 437C831 395 887 346 916 311L964 362C930 397 866 451 810 493C830 532 847 574 861 617ZM517 623C485 514 427 410 354 343C371 334 400 313 411 302C449 339 485 388 516 443C549 416 583 385 602 363L645 416C623 439 582 474 545 501C561 536 575 572 586 609ZM202 828L202 491C202 307 186 117 34-28C50-40 74-65 85-81C169-1 216 92 241 191C282 141 335 73 358 37L410 90C387 118 293 230 257 267C268 340 271 416 271 491L271 828Z"/><animate attributeName="opacity" values="0;1;1;0;0;0;0" dur="3s" repeatCount="indefinite"/></svg><svg id="U7120sc" viewBox="0 0 1000 1000"><path transform="translate(0, 900) scale(1,-1)" d="M84 635C79 556 64 453 40 391L94 368C120 439 134 547 137 628ZM329 665C314 602 282 512 257 456L302 435C328 488 361 572 389 640ZM363 230L363 160L616 160L616-80L689-80L689 160L960 160L960 230L689 230L689 326L616 327L616 230ZM771 622C748 524 704 432 643 370C657 360 677 340 689 326L694 320C725 352 752 392 775 437C821 398 869 352 895 320L938 373C909 407 853 457 803 496C818 532 830 570 840 609ZM586 824C602 792 618 752 630 720L381 720L381 650L940 650L940 720L710 720C697 753 674 805 654 844ZM508 626C480 519 428 420 359 357C374 345 400 319 410 306C446 342 479 387 506 438C542 408 578 374 599 351L638 403C615 427 573 463 534 494C551 531 565 570 576 611ZM183 835L183 493C183 309 169 118 32-30C48-41 71-65 81-81C157 0 199 93 222 191C260 140 309 71 331 34L380 88C358 116 270 233 237 270C247 343 249 418 249 493L249 835Z"/><animate attributeName="opacity" values="0;0;0;1;1;0;0" dur="3s" repeatCount="indefinite"/></svg></svg>