<svg id="U716D" viewBox="0 0 1000 1000"><path transform="translate(0, 900) scale(1,-1)" d="M156 836C137 802 105 753 72 711C113 663 146 615 163 578L228 601C211 632 179 675 147 712C172 744 199 782 222 820ZM333 836C314 802 279 753 246 711C289 664 327 615 347 578L410 601C391 632 356 675 321 712C347 744 375 782 400 820ZM503 836C483 802 447 753 412 711C459 664 500 615 522 578L584 603C564 634 527 676 490 712C517 744 546 782 571 820ZM626 742L626 343L700 343L700 742ZM814 826L814 276C814 260 808 256 792 255C774 255 716 255 653 256C664 236 676 206 680 184C761 184 814 186 846 197C879 210 889 230 889 275L889 826ZM343 125C356 63 364-19 364-67L438-57C437-9 426 71 412 132ZM549 127C576 66 602-16 612-65L686-49C676 0 647 80 619 139ZM756 125C806 64 863-23 887-76L959-43C933 11 874 94 824 154ZM174 146C141 78 88 0 43-47L114-77C160-24 210 58 245 126ZM160 322C191 303 224 277 251 253C192 231 127 215 60 206C73 190 88 160 93 140C298 177 480 261 555 437L511 452L497 450L275 450C289 467 303 485 314 503L581 503L581 566L75 566L75 503L237 503C192 445 125 397 56 364C69 351 89 322 97 309C137 330 177 358 214 389L450 389C416 344 369 308 313 280C285 306 243 338 207 359Z"/></svg>