<svg id="U71C6" viewBox="0 0 1000 1000"><path transform="translate(0, 900) scale(1,-1)" d="M564 497L755 497L755 425L564 425ZM305 675C290 610 263 515 239 457L286 439C312 493 342 582 368 653ZM36 656C53 562 68 438 71 367L131 381C126 449 110 570 92 665ZM713 616C727 593 745 570 765 548L564 548C583 569 600 592 615 616ZM847 839C750 811 562 794 407 787C415 773 423 750 425 735C482 737 543 741 604 746C596 722 586 698 574 675L385 675L385 616L537 616C491 554 426 501 344 468C357 457 377 434 386 420C430 439 469 463 504 491L504 373L820 373L820 495C854 467 890 443 926 426C937 443 958 467 973 480C902 506 828 560 780 616L946 616L946 675L647 675C659 700 669 726 676 753C761 762 841 775 901 793ZM407 325L407-80L474-80L474 266L854 266L854-13C854-22 851-26 841-26C831-26 799-27 763-26C772-41 782-65 786-81C838-81 871-80 894-70C916-61 922-45 922-13L922 325ZM596 168L729 168L729 87L596 87ZM542 216L542-2L596-2L596 39L784 39L784 216ZM172 829L172 487C172 305 159 116 37-32C52-43 76-67 87-82C155-1 193 90 214 187C246 140 283 80 301 47L352 99C333 126 257 234 228 269C237 341 239 414 239 487L239 829Z"/></svg>