<svg id="U72B9" viewBox="0 0 1000 1000"><svg id="U72B9jp" viewBox="0 0 1000 1000"><path transform="translate(0, 900) scale(1,-1)" d="M726 789C779 745 840 679 868 635L926 677C897 720 837 781 781 825ZM307 834C285 795 255 754 221 714C191 755 153 795 105 833L52 791C104 749 143 705 173 661C129 616 81 574 32 540C48 528 72 505 84 491C127 522 169 557 208 596C228 553 240 509 248 464C198 370 110 270 30 218C48 204 70 179 82 161C142 207 207 280 258 356L259 299C259 165 249 48 221 14C213 2 203-4 187-6C162-8 119-9 66-4C80-26 89-55 90-79C136-81 179-81 217-73C243-69 263-59 277-39C320 18 332 150 332 298C332 421 321 539 262 651C304 698 342 749 373 799ZM586 840C586 761 586 678 582 596L354 596L354 525L577 525C557 304 494 94 291-27C311-40 336-63 348-82C505 16 583 166 622 333L622 42C622-43 643-67 728-67C746-67 845-67 862-67C940-67 960-24 967 133C947 137 918 150 901 162C897 24 892 0 856 0C834 0 753 0 737 0C701 0 694 6 694 42L694 460L644 460L651 525L951 525L951 596L656 596C661 678 662 761 662 840Z"/><animate attributeName="opacity" values="1;0;0;1;1" dur="2s" repeatCount="indefinite"/></svg><svg id="U72B9sc" viewBox="0 0 1000 1000"><path transform="translate(0, 900) scale(1,-1)" d="M653 449L653 49C653-32 672-56 748-56C764-56 841-56 857-56C927-56 946-15 952 137C932 142 902 155 886 167C883 36 878 14 850 14C833 14 771 14 758 14C730 14 725 19 725 49L725 449ZM708 780C757 734 815 668 842 626L896 669C868 709 808 772 760 817ZM547 829C547 754 546 678 543 603L358 603L358 531L539 531C524 310 475 106 316-13C335-26 358-49 371-67C541 66 594 290 612 531L950 531L950 603L616 603C619 678 620 754 621 829ZM300 820C281 785 254 748 224 712C198 748 166 783 126 817L73 775C116 737 150 698 176 658C132 613 84 572 40 544C56 528 77 498 86 478C126 508 170 549 211 593C229 552 241 510 248 466C202 374 121 277 45 228C62 211 80 182 90 163C148 209 210 281 258 356L259 303C259 174 250 61 226 27C217 16 208 11 193 10C170 7 132 6 83 11C96-11 105-39 105-63C149-66 189-65 224-59C247-55 266-43 280-25C319 31 330 158 330 301C330 423 320 540 262 650C299 695 332 741 356 783Z"/><animate attributeName="opacity" values="0;1;1;0;0" dur="2s" repeatCount="indefinite"/></svg></svg>