<svg id="U7207" viewBox="0 0 1000 1000"><svg id="U7207hk" viewBox="0 0 1000 1000"><path transform="translate(0, 900) scale(1,-1)" d="M342 96C353 42 361-29 360-72L435-62C434-21 424 48 412 102ZM548 98C571 44 594-27 602-71L676-55C668-13 642 58 617 110ZM754 102C801 46 854-31 878-80L950-54C926-5 871 70 824 125ZM176 118C149 53 101-14 52-53L118-83C170-39 216 33 245 99ZM199 452C153 416 89 379 40 355L94 321C143 350 207 394 255 432ZM313 429C361 399 422 355 454 326L498 360C467 388 406 429 358 457L500 457L500 510L316 510L316 569L469 569L469 619L316 619L316 665L369 665L369 721L486 721L486 779L369 779L369 840L296 840L296 779L62 779L62 721L296 721L296 667L248 667L248 619L90 619L90 569L248 569L248 510L59 510L59 457L352 457ZM519 779L519 721L626 721L626 665L699 665L699 721L941 721L941 779L699 779L699 840L626 840L626 779ZM514 390L605 324C583 263 549 213 495 175L495 212L317 199L317 259L478 259L478 310L317 310L317 379L249 379L249 310L88 310L88 259L249 259L249 195L47 182L52 123L489 158C501 147 515 131 522 120C588 161 630 216 657 285C690 259 719 236 740 217L776 271C752 292 716 319 677 347C689 393 696 444 701 499L787 499C791 270 804 124 902 124C955 124 968 168 974 276C960 284 940 301 927 316C926 243 922 189 908 189C861 189 856 345 854 561L705 561L708 658L645 658L642 561L518 561L518 499L638 499C635 459 630 421 622 387L549 437Z"/><animate attributeName="opacity" values="1;0;0;0;0;0;0;1;1" dur="4s" repeatCount="indefinite"/></svg><svg id="U7207jp" viewBox="0 0 1000 1000"><path transform="translate(0, 900) scale(1,-1)" d="M342 96C353 42 361-29 360-72L435-62C434-21 424 48 412 102ZM548 98C571 44 594-27 602-71L676-55C668-13 642 58 617 110ZM754 102C801 46 854-31 878-80L950-54C926-5 871 70 824 125ZM176 116C149 52 102-13 53-52L120-81C171-38 217 32 245 97ZM248 667L248 620L90 620L90 570L248 570L248 516L59 516L59 464L183 464C170 414 136 386 50 370C63 360 78 338 84 323C188 349 228 391 243 464L307 464L307 422C307 368 320 354 374 354C384 354 424 354 435 354C474 354 490 370 495 433C479 437 457 444 446 453C443 409 440 405 426 405C418 405 388 405 382 405C366 405 364 406 364 422L364 464L500 464L500 516L316 516L316 570L469 570L469 620L316 620L316 665L369 665L369 720L626 720L626 665L699 665L699 720L944 720L944 780L699 780L699 840L626 840L626 780L369 780L369 840L296 840L296 780L55 780L55 720L296 720L296 667ZM514 390C543 372 574 351 605 329C584 268 551 219 499 180L499 220L317 206L317 262L478 262L478 314L317 314L317 369L249 369L249 314L88 314L88 262L249 262L249 201L51 188L58 129L480 164C494 153 513 131 522 118C589 161 632 217 660 287C689 264 715 241 733 222L769 276C747 298 715 324 679 351C690 395 697 445 702 499L787 499C791 266 802 124 900 124C952 124 965 164 971 264C956 273 938 290 924 304C923 236 919 189 905 189C859 189 855 345 854 561L706 561L709 658L643 658L640 561L516 561L516 499L636 499C633 460 628 425 622 391C597 408 571 424 548 438Z"/><animate attributeName="opacity" values="0;1;1;0;0;0;0;0;0" dur="4s" repeatCount="indefinite"/></svg><svg id="U7207sc" viewBox="0 0 1000 1000"><path transform="translate(0, 900) scale(1,-1)" d="M338 96C349 42 356-29 357-73L430-63C429-22 419 48 407 102ZM555 98C579 44 602-27 610-71L683-56C674-13 648 57 624 110ZM754 102C801 46 854-31 878-80L949-55C924-5 869 70 822 124ZM176 116C149 53 101-13 53-52L121-81C170-37 216 33 245 97ZM204 453C161 421 101 389 58 370L98 324C141 348 201 386 247 421ZM626 840L626 780L369 780L369 840L296 840L296 780L55 780L55 720L296 720L296 665L369 665L369 720L626 720L626 665L699 665L699 720L944 720L944 780L699 780L699 840ZM318 417C367 392 432 352 464 326L499 372C465 398 401 435 354 457L500 457L500 510L316 510L316 567L469 567L469 617L316 617L316 664L248 664L248 617L90 617L90 567L248 567L248 510L59 510L59 457L351 457ZM510 395C540 376 571 353 602 329C580 265 545 214 488 175L488 218L317 205L317 270L477 270L477 322L317 322L317 385L249 385L249 322L83 322L83 270L249 270L249 200L61 188L68 129L478 163C493 152 512 131 519 118C586 160 629 216 656 285C687 259 713 234 732 213L772 264C749 289 715 319 676 349C688 394 695 444 700 499L787 499C789 267 795 124 879 124C929 124 941 164 947 263C933 271 915 289 902 304C900 238 898 189 884 189C853 189 854 347 854 561L704 561L707 658L641 658L638 561L516 561L516 499L633 499C630 460 626 425 619 392C595 409 571 425 549 439Z"/><animate attributeName="opacity" values="0;0;0;1;1;0;0;0;0" dur="4s" repeatCount="indefinite"/></svg><svg id="U7207tc" viewBox="0 0 1000 1000"><path transform="translate(0, 900) scale(1,-1)" d="M342 96C353 42 361-29 360-72L435-62C434-21 424 48 412 102ZM548 98C571 44 594-27 602-71L676-55C668-13 642 58 617 110ZM754 102C801 46 854-31 878-80L950-54C926-5 871 70 824 125ZM176 116C149 52 102-13 53-52L120-81C171-38 217 32 245 97ZM62 779L62 721L296 721L296 667L248 667L248 620L90 620L90 570L248 570L248 516L59 516L59 464L183 464C170 414 136 386 50 370C63 360 78 338 84 323C188 349 228 391 243 464L308 464L308 428C308 372 318 351 372 351C384 351 426 351 439 351C456 351 476 351 486 355C484 369 482 389 481 404C470 400 450 399 438 399C427 399 390 399 379 399C366 399 365 406 365 427L365 464L500 464L500 516L316 516L316 570L469 570L469 620L316 620L316 665L369 665L369 721L486 721L486 779L369 779L369 840L296 840L296 779ZM519 779L519 721L626 721L626 665L699 665L699 721L941 721L941 779L699 779L699 840L626 840L626 779ZM514 390L603 325C582 266 550 218 499 180L499 220L317 206L317 262L478 262L478 314L317 314L317 369L249 369L249 314L88 314L88 262L249 262L249 201L51 188L58 129L480 164C494 153 513 131 522 118C588 160 631 215 658 283C688 260 714 239 734 222L770 276C747 295 714 320 678 346C690 392 697 443 702 499L787 499C791 266 802 124 900 124C952 124 965 164 971 264C956 273 938 290 924 304C923 236 919 189 905 189C859 189 855 345 854 561L706 561L709 658L643 658L640 561L516 561L516 499L636 499C633 459 628 422 621 388L549 437Z"/><animate attributeName="opacity" values="0;0;0;0;0;1;1;0;0" dur="4s" repeatCount="indefinite"/></svg></svg>