<svg id="U7297" viewBox="0 0 1000 1000"><svg id="U7297hk" viewBox="0 0 1000 1000"><path transform="translate(0, 900) scale(1,-1)" d="M864 613C824 604 769 596 708 591L708 654L638 654L638 585C571 580 502 577 438 576C445 562 453 539 455 524C513 524 576 526 638 530L638 460L447 460L447 404L638 404L638 340L397 340L397 281L638 281L638 216L452 216L452-80L525-80L525-48L819-48L819-77L895-77L895 216L708 216L708 281L960 281L960 340L708 340L708 404L906 404L906 460L708 460L708 536C785 542 858 552 914 565L891 587L955 587L955 736L735 736C720 770 688 816 655 850L592 823C614 798 637 766 653 736L399 736L399 586L468 586L468 677L884 677L884 594ZM525 12L525 155L819 155L819 12ZM86 764C77 642 64 512 36 425C50 420 77 409 88 401C101 446 112 501 121 562L198 562L198 315C135 299 78 286 32 276L50 200L198 239L198-80L263-80L263 256L372 287L364 356L263 331L263 562L361 562L361 634L263 634L263 839L198 839L198 634L130 634C135 674 139 715 142 756Z"/><animate attributeName="opacity" values="1;0;0;0;0;1;1" dur="3s" repeatCount="indefinite"/></svg><svg id="U7297sc" viewBox="0 0 1000 1000"><path transform="translate(0, 900) scale(1,-1)" d="M437 575L437 520L634 520L634 460L447 460L447 404L634 404L634 340L396 340L396 281L634 281L634 216L451 216L451-80L524-80L524-48L818-48L818-77L893-77L893 216L707 216L707 281L960 281L960 340L707 340L707 404L905 404L905 460L707 460L707 520L918 520L918 575L707 575L707 658L634 658L634 575ZM524 12L524 155L818 155L818 12ZM591 825C615 799 638 766 655 736L398 736L398 586L468 586L468 677L882 677L882 587L954 587L954 736L736 736C720 770 687 816 654 850ZM91 763C81 638 63 508 32 424C47 418 76 402 89 393C104 439 117 497 128 562L199 562L199 316L38 270L55 194L199 241L199-80L268-80L268 263L374 298L368 368L268 337L268 562L367 562L367 634L268 634L268 839L199 839L199 634L139 634C144 673 148 712 152 752Z"/><animate attributeName="opacity" values="0;1;1;0;0;0;0" dur="3s" repeatCount="indefinite"/></svg><svg id="U7297tc" viewBox="0 0 1000 1000"><path transform="translate(0, 900) scale(1,-1)" d="M864 613C824 604 769 596 708 591L708 654L638 654L638 585C571 580 502 577 438 576C445 562 453 539 455 524C513 524 576 526 638 530L638 460L447 460L447 404L638 404L638 340L397 340L397 281L960 281L960 340L708 340L708 404L906 404L906 460L708 460L708 536C785 542 858 552 914 565L891 587L955 587L955 736L737 736C721 770 688 816 654 850L592 825C615 799 638 766 655 736L399 736L399 586L468 586L468 677L883 677L883 595ZM452 216L452-80L525-80L525-48L818-48L818-77L894-77L894 216ZM525 12L525 155L818 155L818 12ZM86 764C77 642 64 512 36 425C51 419 77 408 88 401C101 445 112 501 120 562L198 562L198 314C135 299 78 286 32 276L50 200L198 239L198-80L263-80L263 256L372 287L365 356L263 330L263 562L361 562L361 634L263 634L263 839L198 839L198 634L130 634C134 674 138 715 141 756Z"/><animate attributeName="opacity" values="0;0;0;1;1;0;0" dur="3s" repeatCount="indefinite"/></svg></svg>