<svg id="U73E2" viewBox="0 0 1000 1000"><svg id="U73E2hk" viewBox="0 0 1000 1000"><path transform="translate(0, 900) scale(1,-1)" d="M35 100L50 27C139 56 260 95 373 133L364 201L249 164L249 413L356 413L356 483L249 483L249 702L367 702L367 772L48 772L48 702L184 702L184 483L62 483L62 413L184 413L184 144ZM800 546L800 422L491 422L491 546ZM800 609L491 609L491 730L800 730ZM401-74C420-61 451-50 668 9C666 25 663 54 664 75L491 33L491 356L589 356C644 154 745 1 912-73C924-53 946-23 964-8C877 24 808 80 755 151C812 184 881 229 933 271L884 324C843 286 776 238 720 204C693 250 672 301 656 356L873 356L873 796L417 796L417 75C417 33 381 6 360-5C374-22 393-56 401-74Z"/><animate attributeName="opacity" values="1;0;0;1;1" dur="2s" repeatCount="indefinite"/></svg><svg id="U73E2kr" viewBox="0 0 1000 1000"><path transform="translate(0, 900) scale(1,-1)" d="M33 113L56 42C154 69 284 106 406 142L398 206L257 169L257 390L380 390L380 460L257 460L257 668L389 668L389 738L49 738L49 668L185 668L185 460L62 460L62 390L185 390L185 150ZM514 544L822 544L822 415L514 415ZM514 607L514 729L822 729L822 607ZM874 329C843 291 792 243 747 205C725 249 707 298 692 349L896 349L896 795L441 795L441 26L340 7L367-66C464-44 593-14 714 15L709 81L514 41L514 349L626 349C675 153 765-1 914-77C925-58 947-29 964-15C887 20 825 78 778 152C827 190 887 239 934 286Z"/><animate attributeName="opacity" values="0;1;1;0;0" dur="2s" repeatCount="indefinite"/></svg></svg>