<svg id="U7328" viewBox="0 0 1000 1000"><svg id="U7328hk" viewBox="0 0 1000 1000"><path transform="translate(0, 900) scale(1,-1)" d="M387 682C406 645 427 595 436 566L493 590C484 620 460 667 442 702ZM573 706C590 664 605 610 609 576L669 595C665 628 648 681 631 721ZM866 839C743 804 519 777 332 762C339 747 347 722 349 706C538 719 766 746 909 785ZM820 734C800 682 761 606 730 560L359 560L359 499L513 499L502 419L342 419L342 357L490 357C454 186 388 55 271-31C287-41 316-66 327-78C411-9 470 79 512 190C543 139 582 94 629 56C566 19 493-8 416-25C430-38 451-66 458-82C540-60 617-29 684 16C754-29 834-62 923-82C933-63 952-34 968-19C885-4 808 22 742 59C802 111 852 177 884 260L842 283L830 280L541 280C547 305 554 330 559 357L943 357L943 419L571 419L582 499L927 499L927 560L800 560C828 603 861 661 888 712ZM564 219L792 219C766 170 729 129 685 94C635 130 594 172 564 219ZM266 825C248 786 223 745 194 707C172 744 145 780 110 816L62 781C101 740 130 698 152 655C114 612 73 575 34 550C47 533 64 504 71 485C107 513 144 549 180 589C195 547 204 503 209 458C174 372 102 276 38 228C52 213 69 185 77 168C125 211 176 276 217 344L217 303C217 178 210 45 186 15C179 6 171 2 159 1C141-1 110-1 74 1C85-17 92-42 93-64C127-65 161-65 185-61C208-56 225-47 236-31C273 18 281 162 281 302C281 424 273 538 226 646C262 694 295 744 318 793Z"/><animate attributeName="opacity" values="1;0;0;1;1" dur="2s" repeatCount="indefinite"/></svg><svg id="U7328jp" viewBox="0 0 1000 1000"><path transform="translate(0, 900) scale(1,-1)" d="M575 702C597 659 616 601 622 564L691 582C684 619 663 675 640 717ZM774 719C815 672 856 609 882 560L401 560L401 499L512 499L504 419L331 419L331 355L494 355C465 185 408 56 294-27C309-39 338-67 347-80C435-9 492 84 530 202C556 155 595 107 644 63C583 23 514-6 443-23C457-37 475-64 483-81C560-58 633-26 698 20C758-23 830-59 913-82C924-63 944-34 959-20C880-1 811 28 753 64C812 118 860 186 889 269L844 288L831 286L552 286L566 355L958 355L958 419L575 419L584 499L887 499L887 551L895 534L954 568C931 619 880 693 830 748ZM796 226C771 179 737 139 697 104C650 142 614 183 588 226ZM425 794C399 707 358 618 307 557C325 549 355 529 368 519C408 571 446 645 475 723C617 731 785 749 896 779L842 833C758 809 610 792 478 782ZM275 834C255 796 229 755 199 716C174 756 142 794 101 832L49 793C94 750 128 705 153 659C115 615 73 575 30 541C47 530 70 509 82 494C117 523 152 555 185 591C201 547 211 502 217 456C174 369 97 275 28 226C45 211 67 186 78 168C128 210 182 275 225 341L225 301C225 170 216 40 192 9C185-1 175-6 162-7C141-10 107-10 65-7C78-28 85-56 85-79C122-81 160-80 192-74C215-71 234-60 247-42C287 12 296 154 296 300C296 423 287 539 236 649C276 699 312 750 340 802Z"/><animate attributeName="opacity" values="0;1;1;0;0" dur="2s" repeatCount="indefinite"/></svg></svg>