<svg id="U731B" viewBox="0 0 1000 1000"><svg id="U731Bhk" viewBox="0 0 1000 1000"><path transform="translate(0, 900) scale(1,-1)" d="M611 658L611 590L339 590L339 525L611 525L611 414C611 404 608 400 593 399C578 399 533 398 480 400C491 382 507 355 512 335C577 335 617 336 646 347C676 358 685 376 685 413L685 525L950 525L950 590L685 590L685 638C751 675 822 723 875 770L830 807L814 803L411 803L411 738L736 738C697 708 651 679 611 658ZM372 299L372 11L295 11L295-56L960-56L960 11L889 11L889 299ZM437 11L437 237L526 237L526 11ZM583 11L583 237L673 237L673 11ZM730 11L730 237L822 237L822 11ZM276 836C256 797 231 757 201 717C175 756 142 795 101 832L49 793C95 750 129 706 155 660C116 616 74 574 30 540C47 529 71 508 82 494C118 523 154 557 187 592C204 548 214 503 220 456C178 369 101 275 32 226C50 212 71 187 82 169C132 211 185 275 229 341L229 301C229 169 220 42 195 10C188 0 178-5 165-7C143-9 108-9 65-6C78-27 85-56 85-79C124-81 162-80 194-74C218-70 237-60 250-42C290 13 300 153 300 300C300 423 291 540 238 651C278 700 313 752 341 803Z"/><animate attributeName="opacity" values="1;0;0;1;1" dur="2s" repeatCount="indefinite"/></svg><svg id="U731Bjp" viewBox="0 0 1000 1000"><path transform="translate(0, 900) scale(1,-1)" d="M610 673L610 597L337 597L337 532L610 532L610 414C610 402 607 399 592 399C577 398 532 397 479 399C490 381 506 353 511 333C576 333 615 334 645 346C675 357 684 375 684 413L684 532L953 532L953 597L684 597L684 633C755 669 825 721 874 775L829 806L814 803L411 803L411 738L742 738C712 714 678 691 644 673ZM372 299L372 11L295 11L295-54L960-54L960 11L889 11L889 299ZM437 11L437 237L526 237L526 11ZM583 11L583 237L673 237L673 11ZM730 11L730 237L822 237L822 11ZM276 836C256 797 230 756 200 716C174 755 142 794 101 832L49 793C95 750 128 705 154 658C115 614 73 573 30 540C47 529 71 508 82 494C117 523 152 555 185 590C201 546 210 501 216 454C173 368 97 274 29 226C46 212 67 187 78 169C127 211 180 274 224 340L224 301C224 171 216 41 192 9C184-1 175-5 162-7C141-9 106-9 65-6C78-27 85-56 85-79C123-81 161-80 191-74C215-70 234-60 246-42C286 12 296 154 296 300C296 422 287 539 237 649C277 698 313 751 341 803Z"/><animate attributeName="opacity" values="0;1;1;0;0" dur="2s" repeatCount="indefinite"/></svg></svg>