<svg id="U7371" viewBox="0 0 1000 1000"><svg id="U7371hk" viewBox="0 0 1000 1000"><path transform="translate(0, 900) scale(1,-1)" d="M482 269L808 269L808 218L482 218ZM482 172L808 172L808 120L482 120ZM482 365L808 365L808 315L482 315ZM565 71C508 38 400-5 326-31C338-46 351-69 358-85C435-56 540-15 620 24ZM492 578C458 543 400 511 345 488C359 478 380 455 389 444C445 472 510 516 549 560ZM265 819C248 784 226 747 200 712C177 748 148 784 112 818L61 781C102 741 133 700 156 657C116 612 72 572 31 545C45 529 61 499 69 481C108 510 148 550 186 594C204 546 215 498 221 447C179 363 106 273 40 228C53 213 71 184 79 165C130 207 184 272 228 339L228 304C228 178 219 51 196 19C189 10 180 6 166 4C148 2 115 2 76 5C88-15 95-41 96-64C132-65 168-65 195-60C219-56 236-46 248-29C286 23 295 161 295 303C295 427 286 544 233 653C266 697 295 743 316 787ZM701 23C783-10 871-53 928-82L959-29C902-1 812 39 729 72ZM821 577C785 545 734 518 676 495L676 591L820 591L820 643L453 643L453 591L609 591L609 471C515 441 408 420 308 406C320 392 339 363 345 349L415 363L415 72L877 72L877 413L610 413C717 447 816 493 881 552ZM345 751L345 610L413 610L413 696L863 696L863 610L933 610L933 751L685 751C677 779 664 814 652 842L581 829C590 805 600 776 608 751Z"/><animate attributeName="opacity" values="1;0;0;1;1" dur="2s" repeatCount="indefinite"/></svg><svg id="U7371jp" viewBox="0 0 1000 1000"><path transform="translate(0, 900) scale(1,-1)" d="M496 571C464 537 411 505 359 481C373 471 395 449 405 438C457 466 518 511 555 554ZM292 835C271 796 243 754 210 714C182 754 147 794 102 832L50 791C99 748 136 704 163 659C123 615 78 575 33 542C50 530 74 509 85 495C123 524 161 557 196 593C215 549 226 503 233 456C186 368 103 274 29 226C47 212 68 186 80 168C134 211 194 277 241 345L242 300C242 168 233 44 208 11C199 0 189-5 174-7C151-9 112-10 64-6C77-27 85-55 85-79C129-81 170-80 204-74C229-69 248-59 262-40C304 16 313 152 313 299C313 421 304 538 249 649C291 698 329 750 358 802ZM705 18C779-14 855-54 900-83L968-43C921-16 846 20 776 49L895 49L895 419L666 419C756 453 838 494 895 544L835 574C796 542 744 513 683 489L683 583L840 583L840 635L466 635L466 583L615 583L615 464C523 433 420 411 325 396C337 381 354 349 360 334L431 350L431 49L526 49C479 17 389-14 313-31C328-44 350-66 360-79C442-61 542-23 600 20L548 49L746 49ZM824 263L824 205L500 205L500 263ZM824 311L500 311L500 367L505 368L824 368ZM824 157L824 99L500 99L500 157ZM364 752L364 601L430 601L430 695L881 695L881 601L950 601L950 752L687 752L687 840L611 840L611 752Z"/><animate attributeName="opacity" values="0;1;1;0;0" dur="2s" repeatCount="indefinite"/></svg></svg>