<svg id="U73CA" viewBox="0 0 1000 1000"><svg id="U73CAhk" viewBox="0 0 1000 1000"><path transform="translate(0, 900) scale(1,-1)" d="M385 793L385 420L325 420L325 472L225 472L225 703L344 703L344 770L42 770L42 703L156 703L156 472L58 472L58 404L156 404L156 144L32 113L47 40C135 65 249 97 358 128L350 196L225 162L225 404L312 404L312 348L385 348L385-80L453-80L453 348L537 348L537-78L597-78L597 348L684 348L684-78L746-78L746 348L837 348L837 5C837-6 835-8 827-8C819-8 797-8 772-8C781-27 790-61 792-80C833-80 860-78 880-65C899-53 905-30 905 4L905 348L964 348L964 420L905 420L905 793ZM537 420L453 420L453 723L537 723ZM597 420L597 723L684 723L684 420ZM746 420L746 723L837 723L837 420Z"/><animate attributeName="opacity" values="1;0;0;1;1" dur="2s" repeatCount="indefinite"/></svg><svg id="U73CAsc" viewBox="0 0 1000 1000"><path transform="translate(0, 900) scale(1,-1)" d="M669 803L669 445L601 445L601 803L380 803L380 445L327 445L327 374L380 374L380 333C380 211 374 66 315-34C330-42 358-66 368-80C437 29 446 201 446 333L446 374L538 374L538 16C538 6 535 3 526 3C517 3 492 3 463 4C472-14 482-47 484-65C526-65 555-64 576-51C595-39 601-18 601 15L601 374L669 374L669 324C669 205 665 61 617-37C633-47 661-71 672-85C729 24 737 194 737 325L737 374L831 374L831 10C831 0 828-3 819-3C810-4 784-4 756-3C766-22 775-57 777-76C822-76 851-74 872-61C893-48 898-26 898 9L898 374L959 374L959 445L898 445L898 803ZM831 445L737 445L737 736L831 736ZM538 445L446 445L446 736L538 736ZM31 99L46 29C123 53 219 82 311 111L303 178L204 148L204 413L286 413L286 480L204 480L204 704L301 704L301 772L40 772L40 704L137 704L137 480L50 480L50 413L137 413L137 128Z"/><animate attributeName="opacity" values="0;1;1;0;0" dur="2s" repeatCount="indefinite"/></svg></svg>