<svg id="U73A5" viewBox="0 0 1000 1000"><path transform="translate(0, 900) scale(1,-1)" d="M35 152L53 75C155 108 296 152 427 195L419 265L270 219L270 429L406 429L406 498L270 498L270 700L424 700L424 771L49 771L49 700L198 700L198 498L69 498L69 429L198 429L198 198C136 180 80 164 35 152ZM849 725L849 553L557 553L557 725ZM483 795L483 441C483 287 466 98 299-31C316-41 344-67 355-82C466 5 518 123 540 241L849 241L849 18C849 0 843-5 826-6C808-7 750-8 690-5C701-25 713-60 717-80C798-81 850-79 881-66C912-54 923-30 923 16L923 795ZM849 485L849 309L550 309C555 355 557 399 557 441L557 485Z"/></svg>