<svg id="U73F5" viewBox="0 0 1000 1000"><svg id="U73F5hk" viewBox="0 0 1000 1000"><path transform="translate(0, 900) scale(1,-1)" d="M512 726L818 726L818 533L512 533ZM439 792L439 466L893 466L893 792ZM34 108L50 35C147 62 278 97 401 131L393 198L249 161L249 390L365 390L365 460L249 460L249 674L382 674L382 744L47 744L47 674L176 674L176 460L62 460L62 390L176 390L176 143ZM867 421C758 391 561 370 398 360C406 343 415 317 417 299C483 302 555 307 626 314L626 205L432 205L432 139L626 139L626 15L358 15L358-52L960-52L960 15L701 15L701 139L910 139L910 205L701 205L701 323C781 333 856 345 916 361Z"/><animate attributeName="opacity" values="1;0;0;0;0;1;1" dur="3s" repeatCount="indefinite"/></svg><svg id="U73F5kr" viewBox="0 0 1000 1000"><path transform="translate(0, 900) scale(1,-1)" d="M514 726L822 726L822 533L514 533ZM443 792L443 466L896 466L896 792ZM27 108L45 35C134 60 252 92 363 124L355 192L247 164L247 390L364 390L364 460L247 460L247 674L382 674L382 744L47 744L47 674L174 674L174 460L60 460L60 390L174 390L174 145ZM861 421C760 393 579 374 428 365C436 347 445 321 448 304C506 306 568 310 630 316L630 205L391 205L391 139L630 139L630 15L402 15L402-52L932-52L932 15L704 15L704 139L957 139L957 205L704 205L704 324C781 334 853 346 910 361Z"/><animate attributeName="opacity" values="0;1;1;0;0;0;0" dur="3s" repeatCount="indefinite"/></svg><svg id="U73F5sc" viewBox="0 0 1000 1000"><path transform="translate(0, 900) scale(1,-1)" d="M489 736L825 736L825 566L489 566ZM426 801L426 501L889 501L889 801ZM33 100L48 27C137 56 258 95 371 133L362 201L232 160L232 413L332 413L332 483L232 483L232 702L359 702L359 772L46 772L46 702L166 702L166 483L60 483L60 413L166 413L166 139ZM384 418L384 352L621 352L621 228L403 228L403 162L621 162L621 23L343 23L343-42L961-42L961 23L687 23L687 162L913 162L913 228L687 228L687 352L936 352L936 418Z"/><animate attributeName="opacity" values="0;0;0;1;1;0;0" dur="3s" repeatCount="indefinite"/></svg></svg>