<svg id="U73DE" viewBox="0 0 1000 1000"><path transform="translate(0, 900) scale(1,-1)" d="M33 108L50 36C146 63 275 99 396 134L387 204L245 164L245 390L358 390L358 460L245 460L245 674L382 674L382 744L44 744L44 674L172 674L172 460L58 460L58 390L172 390L172 144ZM568 840C530 748 455 631 348 545C365 535 388 513 400 497C440 532 476 570 508 609C537 555 573 504 614 458C532 389 435 335 334 300C349 287 370 256 378 238C402 247 425 257 448 268L448-82L520-82L520-40L801-40L801-82L876-82L876 273L926 254C937 274 958 303 976 318C877 346 788 395 715 458C785 532 843 620 882 723L836 749L823 745L600 745C616 773 630 801 642 828ZM520 27L520 214L801 214L801 27ZM476 282C542 316 605 358 663 409C719 357 783 314 854 282ZM560 680L786 680C755 615 714 557 664 506C618 555 580 610 552 669Z"/></svg>