<svg id="U74F0" viewBox="0 0 1000 1000"><svg id="U74F0hk" viewBox="0 0 1000 1000"><path transform="translate(0, 900) scale(1,-1)" d="M806 821L744 805C778 692 826 583 922 477C932 496 954 518 972 532C885 621 837 715 806 821ZM539 513L539 448L629 448C611 295 566 182 466 111C480 101 507 78 517 67C622 150 675 273 695 448L804 448C796 249 787 174 771 156C763 146 755 145 743 145C729 145 698 145 663 148C673 131 680 103 681 84C718 82 752 82 773 84C798 87 813 93 828 111C852 141 862 232 872 483C873 492 873 513 873 513ZM33-8L58-76C138-40 240 6 336 49L321 109L165 44C174 129 182 236 190 348C238 293 288 230 315 187L353 237C322 287 254 366 195 424L200 514L380 514C368 112 367 66 367 28C367-24 402-59 491-59L829-59C930-59 957-37 968 83C949 86 921 96 903 106C898 18 887 6 836 6L481 6C452 6 435 16 435 42C435 76 436 116 448 505C464 494 484 474 493 464C571 544 633 669 669 804L602 818C573 700 520 591 449 518L450 558C450 564 450 572 450 578L414 579L204 579L212 734L478 734L478 801L41 801L41 734L144 734C135 505 113 200 91 14Z"/><animate attributeName="opacity" values="1;0;0;0;0;1;1" dur="3s" repeatCount="indefinite"/></svg><svg id="U74F0jp" viewBox="0 0 1000 1000"><path transform="translate(0, 900) scale(1,-1)" d="M552 717C531 629 489 547 432 495C446 484 472 460 482 448C542 509 591 602 617 703ZM201 401C234 333 262 243 271 184L330 202C320 261 291 350 256 418ZM608 798L608 732L775 732C802 618 857 514 924 451C935 469 958 498 972 511C904 567 849 677 827 798ZM534 509L534 443L614 443C597 296 554 185 460 115C476 105 503 82 513 70C612 152 662 274 681 443L801 443C795 247 788 176 774 159C767 149 759 148 747 148C734 148 702 148 668 151C678 133 685 106 686 86C722 84 757 85 777 86C802 89 818 95 832 114C854 143 861 231 869 478C869 488 869 509 869 509ZM27 8L45-60C128-37 235-8 337 21L329 85L153 39C168 166 184 343 198 513L359 513L354 25C354-28 389-63 476-63L827-63C929-63 956-37 967 89C949 92 920 102 903 112C899 14 887 1 834 1L466 1C437 1 419 10 419 37C419 72 420 114 426 559C426 564 426 573 426 579L203 579L214 734L476 734L476 801L52 801L52 734L151 734C136 507 109 205 84 21Z"/><animate attributeName="opacity" values="0;1;1;0;0;0;0" dur="3s" repeatCount="indefinite"/></svg><svg id="U74F0sc" viewBox="0 0 1000 1000"><path transform="translate(0, 900) scale(1,-1)" d="M201 401C234 333 262 243 271 184L330 202C320 261 291 350 256 418ZM788 813L728 794C770 675 845 547 918 478C930 495 952 519 969 531C898 589 825 706 788 813ZM526 509L526 443L606 443C590 296 546 185 452 115C468 105 495 82 505 70C603 152 653 274 674 443L793 443C787 247 780 176 766 159C759 149 751 148 739 148C725 148 695 148 659 151C670 133 676 106 678 86C714 84 749 85 769 86C794 89 810 95 824 114C846 143 853 231 861 478C861 488 861 509 861 509ZM600 806C566 695 505 594 426 529L426 559C426 564 426 573 426 579L203 579L216 734L476 734L476 801L52 801L52 734L150 734C135 548 103 127 91 61C85 15 75 8 56 1C65-15 76-50 81-68C99-55 129-44 334 12C332 27 331 55 332 75L154 31C167 145 184 342 198 513L359 513L354 25C354-28 389-63 476-63L827-63C929-63 956-37 967 89C949 92 920 102 903 112C899 14 887 1 834 1L466 1C437 1 419 10 419 37L426 527C443 517 469 496 481 484C559 557 628 667 666 792Z"/><animate attributeName="opacity" values="0;0;0;1;1;0;0" dur="3s" repeatCount="indefinite"/></svg></svg>