<svg id="U7453" viewBox="0 0 1000 1000"><path transform="translate(0, 900) scale(1,-1)" d="M489 476C509 434 530 377 539 343L584 363C575 395 553 449 533 491ZM770 495C757 456 731 396 712 358L751 341C772 377 797 430 821 477ZM31 131L48 59C134 87 243 122 347 156L337 224L230 190L230 408L334 408L334 476L230 476L230 690L346 690L346 758L42 758L42 690L161 690L161 476L55 476L55 408L161 408L161 169ZM614 836L614 736L363 736L363 669L614 669L614 580L391 580L391 256L568 256C506 161 405 73 304 29C321 15 342-12 353-30C451 20 549 110 614 213L614-80L686-80L686 220C745 121 833 28 919-24C930-6 953 21 970 35C883 79 792 166 736 256L918 256L918 580L686 580L686 669L947 669L947 736L686 736L686 836ZM454 519L618 519L618 317L454 317ZM682 519L853 519L853 317L682 317Z"/></svg>