<svg id="U7475" viewBox="0 0 1000 1000"><svg id="U7475hk" viewBox="0 0 1000 1000"><path transform="translate(0, 900) scale(1,-1)" d="M396 644C427 607 459 555 471 520L522 544C509 579 477 628 443 665ZM34 121L57 50C149 77 269 112 383 147L375 211L238 174L238 402L355 402L355 470L238 470L238 691L365 691L365 758L45 758L45 691L169 691L169 470L57 470L57 402L169 402L169 156ZM605 713C635 693 669 662 687 641L729 673C713 691 682 718 654 737L820 737C785 675 736 622 677 580C617 623 569 675 537 737L640 737ZM418 800L418 737L518 737L473 723C509 652 558 592 619 543C543 499 457 469 369 451C382 436 398 409 405 391C502 414 596 449 679 500C752 454 837 421 932 400C942 420 962 448 977 462C888 478 807 504 738 542C816 603 879 682 917 782L871 804L858 800ZM500 317L633 317L633 204L500 204ZM702 317L839 317L839 204L702 204ZM769 104C788 84 807 61 826 38L702 31L702 145L910 145L910 377L702 377L702 461L633 461L633 377L432 377L432 145L633 145L633 28L370 16L379-51C507-44 692-34 870-22C885-43 897-63 906-80L970-51C942-1 881 75 829 129Z"/><animate attributeName="opacity" values="1;0;0;1;1" dur="2s" repeatCount="indefinite"/></svg><svg id="U7475sc" viewBox="0 0 1000 1000"><path transform="translate(0, 900) scale(1,-1)" d="M607 712C633 686 664 651 680 628L724 654C708 675 676 709 650 733ZM816 737C781 674 730 621 669 578C604 621 553 674 517 737ZM404 800L404 737L489 737L453 725C491 652 544 591 610 541C534 499 448 470 361 453C374 438 390 410 397 392C494 415 588 450 671 500C745 457 831 425 926 406C935 425 955 453 970 468C882 483 802 507 732 542C811 603 875 681 914 781L868 804L855 800ZM497 317L630 317L630 204L497 204ZM699 317L836 317L836 204L699 204ZM772 103L817 38L699 32L699 145L907 145L907 377L699 377L699 461L630 461L630 377L429 377L429 145L630 145L630 28L367 16L376-51C502-44 681-33 856-21C872-45 885-68 895-85L958-53C931-6 875 72 831 129ZM33 100L48 27C139 56 261 95 376 133L367 201L237 160L237 413L338 413L338 483L237 483L237 702L355 702L355 772L46 772L46 702L169 702L169 483L60 483L60 413L169 413L169 139Z"/><animate attributeName="opacity" values="0;1;1;0;0" dur="2s" repeatCount="indefinite"/></svg></svg>