<svg id="U746C" viewBox="0 0 1000 1000"><path transform="translate(0, 900) scale(1,-1)" d="M577 559L577 334L644 334L644 559ZM397 563L397 501C397 448 382 387 259 349C275 337 298 313 307 297C445 347 463 427 463 499L463 563ZM758 566L758 420C758 372 763 357 776 345C789 333 811 329 829 329C840 329 868 329 879 329C893 329 913 331 923 335C935 341 944 350 950 363C956 375 959 409 961 439C944 444 923 454 911 465C910 436 909 414 906 404C904 395 901 390 896 388C892 386 883 385 875 385C866 385 852 385 845 385C839 385 833 386 830 389C826 393 825 400 825 414L825 566ZM109 788C159 768 223 735 258 712L294 763C259 785 194 816 144 834ZM53 649C105 631 170 599 205 574L241 626C206 648 140 679 88 695ZM76 355L127 306C182 371 242 450 292 520L249 565C193 489 124 405 76 355ZM48-1L48-58L954-58L954-1L754-1L782 24C758 43 715 72 679 94L833 94L833 148L536 148L536 232L901 232L901 289L132 289L132 232L461 232L461 148L171 148L171 94L461 94L461-1ZM622 69C652 50 693 22 722-1L536-1L536 94L653 94ZM375 574C402 583 443 586 807 601C822 587 834 574 844 562L898 597C869 632 812 680 759 716L945 716L945 771L666 771C653 795 632 826 611 848L549 828C563 811 577 791 588 771L307 771L307 716L489 716C453 684 417 658 403 650C385 638 368 631 352 629C360 614 371 587 375 574ZM687 697C708 683 730 667 751 650L481 640C513 662 546 688 577 716L718 716Z"/></svg>