<svg id="U74C4" viewBox="0 0 1000 1000"><path transform="translate(0, 900) scale(1,-1)" d="M395 587L395 401L932 401L932 587ZM493 234L836 234L836 190L493 190ZM493 154L836 154L836 109L493 109ZM493 313L836 313L836 271L493 271ZM620 840L620 785L388 785L388 733L620 733L620 679L423 679L423 629L913 629L913 679L694 679L694 733L941 733L941 785L694 785L694 840ZM456 543L554 543L554 444L456 444ZM605 543L717 543L717 444L605 444ZM768 543L868 543L868 444L768 444ZM712 18C788-15 874-55 927-84L960-30C907-3 824 34 748 64L907 64L907 359L425 359L425 64L556 64C502 34 406-6 341-30C352-45 365-69 372-83C441-56 537-18 612 18L559 64L738 64ZM31 100L46 27C135 56 256 95 370 133L360 201L230 160L230 413L330 413L330 483L230 483L230 702L356 702L356 772L44 772L44 702L164 702L164 483L58 483L58 413L164 413L164 139Z"/></svg>