<svg id="U749D" viewBox="0 0 1000 1000"><path transform="translate(0, 900) scale(1,-1)" d="M452 285L813 285L813 231L452 231ZM452 184L813 184L813 128L452 128ZM452 386L813 386L813 332L452 332ZM384 777L384 596L591 596L591 544L320 544L320 483L232 483L232 702L359 702L359 772L46 772L46 702L166 702L166 483L64 483L64 413L166 413L166 141C116 125 70 111 33 100L48 27C136 58 252 97 363 135L354 203L232 163L232 413L327 413L327 481L953 481L953 544L662 544L662 596L878 596L878 777L662 777L662 840L591 840L591 777ZM450 725L591 725L591 647L450 647ZM662 725L810 725L810 647L662 647ZM686 40C769 3 856-46 908-83L965-38C911-2 823 44 740 80L884 80L884 434L383 434L383 80L515 80C461 39 358-6 272-31C286-45 307-67 317-81C407-54 516-5 583 44L526 80L727 80Z"/></svg>