<svg id="U749C" viewBox="0 0 1000 1000"><svg id="U749Chk" viewBox="0 0 1000 1000"><path transform="translate(0, 900) scale(1,-1)" d="M718 34C785 0 859-45 902-79L965-34C918 0 837 44 766 79ZM530 81C483 42 386-2 307-26C321-41 340-65 350-80C432-53 531-8 593 39ZM409 394L409 83L900 83L900 394L687 394L687 456L961 456L961 515L354 515L354 456L616 456L616 394ZM500 841L500 756L369 756L369 697L500 697L500 564L807 564L807 697L944 697L944 756L807 756L807 841L737 841L737 756L567 756L567 841ZM737 697L737 621L567 621L567 697ZM477 215L616 215L616 140L477 140ZM687 215L830 215L830 140L687 140ZM477 338L616 338L616 265L477 265ZM687 338L830 338L830 265L687 265ZM33 128L49 56C142 83 263 118 378 152L369 220L233 182L233 408L338 408L338 475L233 475L233 691L352 691L352 760L45 760L45 691L163 691L163 475L58 475L58 408L163 408L163 163Z"/><animate attributeName="opacity" values="1;0;0;0;0;1;1" dur="3s" repeatCount="indefinite"/></svg><svg id="U749Csc" viewBox="0 0 1000 1000"><path transform="translate(0, 900) scale(1,-1)" d="M712 61C779 18 855-40 899-81L954-37C908 4 830 60 758 103ZM534 102C491 56 402 1 327-30C341-44 360-68 371-82C448-48 539 8 597 63ZM33 100L49 27C133 54 243 88 348 121L339 190L228 156L228 412L325 412L325 483L228 483L228 702L335 702L335 772L45 772L45 702L162 702L162 483L57 483L57 412L162 412L162 136C114 122 69 109 33 100ZM738 839L738 745L577 745L577 839L506 839L506 745L383 745L383 683L506 683L506 585L351 585L351 521L616 521L616 453L400 453L400 119L897 119L897 453L686 453L686 521L944 521L944 585L809 585L809 683L915 683L915 745L809 745L809 839ZM577 585L577 683L738 683L738 585ZM469 262L616 262L616 175L469 175ZM686 262L825 262L825 175L686 175ZM469 397L616 397L616 312L469 312ZM686 397L825 397L825 312L686 312Z"/><animate attributeName="opacity" values="0;1;1;0;0;0;0" dur="3s" repeatCount="indefinite"/></svg><svg id="U749Ctc" viewBox="0 0 1000 1000"><path transform="translate(0, 900) scale(1,-1)" d="M352 548L352 488L961 488L961 548ZM733 62C797 17 869-39 912-78L967-34C922 5 847 59 780 103ZM404 449L404 121L910 121L910 449ZM538 102C494 55 402 0 324-31C338-45 357-68 367-83C446-50 542 6 600 62ZM33 100L47 27C130 55 241 91 345 126L337 196L228 160L228 413L324 413L324 483L228 483L228 702L335 702L335 772L45 772L45 702L159 702L159 483L59 483L59 413L159 413L159 138ZM476 840L476 758L371 758L371 701L476 701L476 580L834 580L834 701L939 701L939 758L834 758L834 840L764 840L764 758L544 758L544 840ZM764 701L764 633L544 633L544 701ZM469 260L620 260L620 176L469 176ZM688 260L842 260L842 176L688 176ZM469 393L620 393L620 310L469 310ZM688 393L842 393L842 310L688 310Z"/><animate attributeName="opacity" values="0;0;0;1;1;0;0" dur="3s" repeatCount="indefinite"/></svg></svg>