<svg id="U74A8" viewBox="0 0 1000 1000"><svg id="U74A8hk" viewBox="0 0 1000 1000"><path transform="translate(0, 900) scale(1,-1)" d="M826 385C808 347 773 289 748 253L803 230C830 263 864 313 892 359ZM420 346C447 310 475 261 488 229L361 229L361 166L560 166C494 94 393 28 300-4C316-17 337-43 348-60C441-20 543 52 612 133L612-81L684-81L684 134C749 59 843-14 923-54C934-36 956-11 972 1C890 35 793 99 730 166L950 166L950 229L684 229L684 391L612 391L612 229L499 229L551 252C539 285 507 335 479 371ZM671 609C703 590 737 567 770 543C728 502 678 470 626 450C639 438 656 415 665 399C722 424 776 459 821 506C864 473 903 441 928 415L973 462C946 489 906 521 861 553C901 606 932 671 951 749L910 762L898 760L700 760L700 700L871 700C856 659 835 622 810 589C777 612 744 633 713 651ZM437 688C411 636 364 586 314 551C328 541 351 522 361 512C376 524 391 538 406 553C438 534 474 511 499 490C454 449 402 418 347 399C360 386 377 363 384 348C510 398 622 499 667 662L628 677L617 675L562 675L562 725L681 725L681 781L562 781L562 839L499 839L499 675L491 675ZM590 622C577 589 559 560 538 533C512 553 475 576 442 593L463 622ZM31 131L49 59C135 87 248 124 354 158L344 227L230 191L230 408L335 408L335 476L230 476L230 690L348 690L348 758L43 758L43 690L162 690L162 476L54 476L54 408L162 408L162 169Z"/><animate attributeName="opacity" values="1;0;0;0;0;1;1" dur="3s" repeatCount="indefinite"/></svg><svg id="U74A8sc" viewBox="0 0 1000 1000"><path transform="translate(0, 900) scale(1,-1)" d="M791 388C775 352 744 297 720 264L762 244L664 244L664 393L593 393L593 244L490 244L541 271C529 300 499 343 473 374L417 348C442 316 469 273 481 244L344 244L344 183L555 183C488 115 381 49 289 16C304 3 325-22 336-39C422-2 522 65 593 137L593-81L664-81L664 143C733 69 832 1 919-35C929-18 951 8 966 21C873 52 770 115 704 183L926 183L926 244L773 244C797 275 827 320 852 361ZM647 640C678 615 712 585 745 555C698 507 642 471 584 448C598 435 614 411 622 396C684 422 741 461 791 512C829 474 863 438 884 409L932 457C909 487 874 524 833 561C876 618 910 687 930 768L890 782L878 780L640 780L640 717L849 717C833 675 812 637 786 604C754 631 721 658 691 681ZM395 726C378 654 342 592 289 551C301 541 320 518 326 507C363 536 393 576 417 622L561 622C543 579 518 541 489 508C470 527 443 550 421 567L381 529C403 511 429 488 447 467C404 430 354 401 303 383C316 371 331 347 338 332C472 385 590 495 638 665L600 679L589 677L524 677L524 728L611 728L611 785L524 785L524 836L466 836L466 677L439 677L451 717ZM29 99L45 29C122 56 216 88 307 121L297 186L209 156L209 415L298 415L298 482L209 482L209 704L304 704L304 772L40 772L40 704L143 704L143 482L50 482L50 415L143 415L143 134Z"/><animate attributeName="opacity" values="0;1;1;0;0;0;0" dur="3s" repeatCount="indefinite"/></svg><svg id="U74A8tc" viewBox="0 0 1000 1000"><path transform="translate(0, 900) scale(1,-1)" d="M412 348C438 315 465 269 477 240L535 271C524 300 494 343 467 374ZM791 378C776 347 746 299 723 270L773 246C797 272 826 312 852 351ZM487 144C443 94 379 40 320 2C336-9 362-33 374-45C431-3 502 63 552 121ZM718 104C779 60 853-3 888-45L933 4C897 45 823 106 762 147ZM593 393L593 235L344 235L344 174L593 174L593-81L665-81L665 174L927 174L927 235L665 235L665 393ZM647 640C678 615 712 585 745 555C698 507 642 471 584 448C597 435 614 411 622 396C684 422 742 461 791 512C829 474 863 438 885 409L933 457C910 487 874 524 834 561C877 618 910 687 931 768L890 782L878 780L640 780L640 717L849 717C833 676 812 638 786 604C754 631 721 658 691 681ZM383 728C366 656 330 594 277 553C289 543 308 520 315 509C333 523 349 539 363 558C395 531 429 498 452 471C407 432 355 402 302 383C315 371 331 347 338 332C472 385 590 495 638 665L600 679L588 677L524 677L524 728L611 728L611 785L524 785L524 836L466 836L466 677L428 677C432 691 437 705 440 719ZM561 622C544 581 520 544 492 512C467 541 428 576 393 602L404 622ZM29 99L45 29C124 56 221 91 315 124L306 189L212 157L212 415L309 415L309 482L212 482L212 704L315 704L315 772L40 772L40 704L146 704L146 482L50 482L50 415L146 415L146 135C102 121 62 108 29 99Z"/><animate attributeName="opacity" values="0;0;0;1;1;0;0" dur="3s" repeatCount="indefinite"/></svg></svg>