<svg id="U7429" viewBox="0 0 1000 1000"><svg id="U7429hk" viewBox="0 0 1000 1000"><path transform="translate(0, 900) scale(1,-1)" d="M511 580L823 580L823 486L511 486ZM511 732L823 732L823 639L511 639ZM445 795L445 423L891 423L891 795ZM34 108L46 33C141 57 269 89 390 121L382 192L250 159L250 394L371 394L371 464L250 464L250 678L388 678L388 748L47 748L47 678L178 678L178 464L62 464L62 394L178 394L178 141ZM477 123L799 123L799 184L477 184L477 285L858 285L858 16L477 16ZM410 349L410-81L477-81L477-49L858-49L858-75L927-75L927 349Z"/><animate attributeName="opacity" values="1;0;0;1;1" dur="2s" repeatCount="indefinite"/></svg><svg id="U7429jp" viewBox="0 0 1000 1000"><path transform="translate(0, 900) scale(1,-1)" d="M515 580L815 580L815 486L515 486ZM515 732L815 732L815 639L515 639ZM445 795L445 423L888 423L888 795ZM34 108L48 35C145 60 276 93 400 126L393 194L249 159L249 390L365 390L365 460L249 460L249 674L382 674L382 744L47 744L47 674L176 674L176 460L62 460L62 390L176 390L176 141ZM479 123L854 123L854 16L479 16ZM479 184L479 285L854 285L854 184ZM407 349L407-81L479-81L479-49L854-49L854-75L928-75L928 349Z"/><animate attributeName="opacity" values="0;1;1;0;0" dur="2s" repeatCount="indefinite"/></svg></svg>