<svg id="U75E1" viewBox="0 0 1000 1000"><svg id="U75E1hk" viewBox="0 0 1000 1000"><path transform="translate(0, 900) scale(1,-1)" d="M45 628C77 568 108 489 117 438L177 469C167 518 135 595 101 654ZM499 818C516 795 533 768 546 742L194 742L194 429L192 346C131 314 73 283 30 264L56 196C98 220 142 246 186 273C173 166 141 56 62-29C77-38 104-65 114-80C246 59 265 274 265 429L265 677L958 677L958 742L627 742C614 774 588 815 563 846ZM309 561L309 499L584 499L584 425L344 425L344-65L415-65L415 92L584 92L584-47L655-47L655 92L834 92L834 14C834 4 831 1 819 0C808 0 771-1 731 1C740-17 750-44 753-62C811-62 849-62 874-51C899-40 906-22 906 13L906 425L655 425L655 499L952 499L952 561L854 561L887 597C858 623 802 654 756 673L718 632C759 614 807 585 836 561L655 561L655 654L584 654L584 561ZM834 363L834 287L655 287L655 363ZM584 363L584 287L415 287L415 363ZM415 230L584 230L584 150L415 150ZM834 230L834 150L655 150L655 230Z"/><animate attributeName="opacity" values="1;0;0;1;1" dur="2s" repeatCount="indefinite"/></svg><svg id="U75E1jp" viewBox="0 0 1000 1000"><path transform="translate(0, 900) scale(1,-1)" d="M45 628C77 568 108 489 117 438L177 469C167 518 135 595 101 654ZM30 264L56 196C98 220 142 246 186 273C173 166 141 56 62-29C77-38 104-65 114-80C246 59 265 274 265 429L265 677L958 677L958 742L588 742L588 840L511 840L511 742L194 742L194 429L192 346C131 314 73 283 30 264ZM309 572L309 509L584 509L584 435L344 435L344-80L415-80L415 103L584 103L584-71L655-71L655 103L834 103L834-3C834-14 830-17 819-17C808-18 771-18 731-17C740-34 750-61 753-80C811-80 850-79 874-68C899-58 906-39 906-4L906 435L655 435L655 509L952 509L952 572L860 572L887 601C858 627 802 658 756 677L718 637C756 620 799 595 828 572L655 572L655 655L584 655L584 572ZM834 374L834 298L655 298L655 374ZM584 374L584 298L415 298L415 374ZM415 241L584 241L584 161L415 161ZM834 241L834 161L655 161L655 241Z"/><animate attributeName="opacity" values="0;1;1;0;0" dur="2s" repeatCount="indefinite"/></svg></svg>