<svg id="U7571" viewBox="0 0 1000 1000"><path transform="translate(0, 900) scale(1,-1)" d="M228 125L460 125L460 19L228 19ZM228 184L228 282L460 282L460 184ZM771 125L771 19L531 19L531 125ZM771 184L531 184L531 282L771 282ZM68 796L68 733L374 733L374 656L116 656L116 427L374 427L374 344L154 344L154-79L228-79L228-43L771-43L771-75L848-75L848 344L616 344L616 427L886 427L886 656L616 656L616 733L929 733L929 796ZM444 344L444 733L546 733L546 344ZM374 488L185 488L185 595L374 595ZM616 595L816 595L816 488L616 488Z"/></svg>