<svg id="U7566" viewBox="0 0 1000 1000"><path transform="translate(0, 900) scale(1,-1)" d="M406 23L406-49L958-49L958 23L730 23L730 192L921 192L921 262L730 262L730 391L655 391L655 262L464 262L464 192L655 192L655 23ZM442 490L442 419L940 419L940 490L732 490L732 632L905 632L905 701L732 701L732 838L657 838L657 701L480 701L480 632L657 632L657 490ZM75 762L75 23L134 23L134 96L404 96L404 762ZM134 696L213 696L213 469L134 469ZM134 162L134 411L213 411L213 162ZM348 411L348 162L265 162L265 411ZM348 469L265 469L265 696L348 696Z"/></svg>