<svg id="U756C" viewBox="0 0 1000 1000"><svg id="U756Chk" viewBox="0 0 1000 1000"><path transform="translate(0, 900) scale(1,-1)" d="M274 481C229 428 148 379 72 346C88 334 113 312 124 299C200 337 287 397 339 460ZM642 449C718 408 811 346 856 303L912 343C864 386 770 447 695 484ZM502 857C401 753 209 669 34 627C51 611 72 586 82 570C153 590 224 616 292 646L292 620L462 620L462 550L105 550L105 492L462 492L462 382C462 371 459 368 446 367C434 366 394 366 350 367C359 351 369 328 373 310C435 310 476 310 502 319C529 329 536 344 536 380L536 492L894 492L894 550L536 550L536 620L717 620L717 645C781 619 849 597 913 583C925 601 948 628 965 643C813 669 639 733 544 804L568 827ZM653 674L349 674C403 702 454 733 499 768C542 734 596 702 653 674ZM242 98L462 98L462 13L242 13ZM242 153L242 236L462 236L462 153ZM763 98L763 13L533 13L533 98ZM763 153L533 153L533 236L763 236ZM169 293L169-80L242-80L242-44L763-44L763-80L839-80L839 293Z"/><animate attributeName="opacity" values="1;0;0;0;0;1;1" dur="3s" repeatCount="indefinite"/></svg><svg id="U756Cjp" viewBox="0 0 1000 1000"><path transform="translate(0, 900) scale(1,-1)" d="M274 481C229 428 148 379 72 346C88 334 113 312 124 299C200 337 287 397 339 460ZM642 449C718 408 811 346 856 303L912 343C864 386 770 447 695 484ZM105 554L105 495L462 495L462 378C462 367 459 364 446 364C434 363 394 363 350 364C359 348 369 325 373 307C435 306 476 307 502 316C529 326 536 341 536 377L536 495L894 495L894 554L536 554L536 623L717 623L717 654C785 625 856 602 919 587C928 606 945 634 960 651C809 681 640 747 527 838L456 838C371 757 208 681 43 640C57 624 73 597 80 578C152 599 225 626 292 657L292 623L462 623L462 554ZM496 781C541 744 601 708 666 677L334 677C399 710 455 745 496 781ZM242 98L462 98L462 13L242 13ZM242 153L242 236L462 236L462 153ZM763 98L763 13L533 13L533 98ZM763 153L533 153L533 236L763 236ZM169 293L169-80L242-80L242-44L763-44L763-80L839-80L839 293Z"/><animate attributeName="opacity" values="0;1;1;0;0;0;0" dur="3s" repeatCount="indefinite"/></svg><svg id="U756Ctc" viewBox="0 0 1000 1000"><path transform="translate(0, 900) scale(1,-1)" d="M299 454C252 416 169 382 94 360C109 349 134 325 146 312C219 340 309 384 363 431ZM643 426C716 392 814 341 863 311L912 355C859 385 761 433 689 464ZM513 842C410 754 211 688 39 655C55 639 72 612 81 593C151 609 223 630 292 656L292 620L462 620L462 550L105 550L105 492L462 492L462 322L540 322L540 492L894 492L894 550L540 550L540 620L717 620L717 655C784 631 853 611 918 599C928 617 948 646 964 661C820 682 651 733 550 791L573 810ZM667 674L338 674C398 699 454 727 504 759C549 728 606 699 667 674ZM242 98L462 98L462 13L242 13ZM242 153L242 236L462 236L462 153ZM763 98L763 13L533 13L533 98ZM763 153L533 153L533 236L763 236ZM169 293L169-80L242-80L242-44L763-44L763-80L839-80L839 293Z"/><animate attributeName="opacity" values="0;0;0;1;1;0;0" dur="3s" repeatCount="indefinite"/></svg></svg>