<svg id="U7661" viewBox="0 0 1000 1000"><svg id="U7661hk" viewBox="0 0 1000 1000"><path transform="translate(0, 900) scale(1,-1)" d="M44 636C72 575 97 495 104 445L159 472C152 521 125 598 96 658ZM273 202L273 145L398 145C386 83 350 12 244-39C259-50 278-69 288-83C365-41 410 9 435 60C464 33 495 3 512-17L551 27C530 50 490 86 456 114L462 145L577 145L577 202L467 202L467 211L467 286L564 286L564 339L377 339L391 391L335 403C323 343 304 284 273 240C287 234 312 221 323 212C336 233 348 258 359 286L404 286L404 212L404 202ZM615 272C611 138 594 23 523-41C536-50 554-69 562-81C600-47 625 0 642 55C692-43 767-67 859-67L945-67C947-50 956-22 965-7C943-7 878-7 863-7C836-7 810-5 786 2L786 150L926 150L926 207L786 207L786 335L872 335C863 305 853 276 844 254L893 240C911 276 929 333 944 383L904 393L894 391L837 391L864 423C848 436 826 452 802 468C848 505 896 553 930 599L889 629L875 625L595 625L595 572L829 572C807 546 780 519 754 498C725 515 696 530 670 543L632 503C692 472 764 427 808 391L582 391L582 335L727 335L727 31C699 53 676 87 660 138C666 179 669 225 671 272ZM504 822C514 800 526 775 536 751L174 751L174 433L172 348C119 318 67 290 30 272L56 208L167 276C155 168 125 56 50-32C64-41 91-66 101-80C224 61 242 278 242 433L242 688L959 688L959 751L622 751C611 780 593 817 576 846ZM310 649L310 499C310 433 324 411 388 411C402 411 479 411 497 411C520 411 544 411 557 415C555 429 553 452 551 469C537 465 512 464 496 464C480 464 408 464 392 464C373 464 370 472 370 498L370 538L550 538L550 588L370 588L370 649Z"/><animate attributeName="opacity" values="1;0;0;0;0;1;1" dur="3s" repeatCount="indefinite"/></svg><svg id="U7661jp" viewBox="0 0 1000 1000"><path transform="translate(0, 900) scale(1,-1)" d="M44 636C72 575 97 495 104 445L159 472C152 521 125 598 96 658ZM513 621C479 602 423 583 370 569L370 650L310 650L310 479C310 418 327 403 398 403C411 403 494 403 508 403C559 403 577 422 583 497C566 501 542 509 530 518C527 464 522 456 500 456C482 456 416 456 404 456C374 456 370 460 370 479L370 519C432 532 503 553 553 577ZM273 202L273 145L398 145C386 83 350 12 244-39C259-50 278-69 288-83C365-41 410 9 435 60C467 31 501-3 520-26L558 19C536 44 492 83 456 114L462 145L577 145L577 202L467 202L467 211L467 286L564 286L564 339L377 339C383 357 388 376 392 395L335 407C324 346 304 285 274 241C287 235 312 221 323 213C336 233 348 258 359 286L404 286L404 212L404 202ZM615 272C611 138 594 23 523-41C536-50 554-69 562-81C600-47 625 0 642 55C692-43 767-67 859-67L945-67C947-50 956-22 965-7C943-7 878-7 863-7C836-7 810-5 786 2L786 150L926 150L926 207L786 207L786 335L872 335C863 305 853 276 844 254L893 240C911 276 929 333 944 383L904 393L894 391L837 391L864 423C849 438 828 454 804 470C849 507 896 554 930 599L889 629L875 625L595 625L595 572L829 572C808 547 781 521 756 500C727 517 698 532 670 544L632 503C694 474 766 429 810 391L582 391L582 335L727 335L727 31C699 53 676 87 660 138C666 179 669 225 671 272ZM30 272L56 208L167 276C155 168 125 56 50-32C64-41 91-66 101-80C224 61 242 278 242 433L242 688L959 688L959 751L589 751L589 840L511 840L511 751L174 751L174 433L172 348C119 318 67 290 30 272Z"/><animate attributeName="opacity" values="0;1;1;0;0;0;0" dur="3s" repeatCount="indefinite"/></svg><svg id="U7661sc" viewBox="0 0 1000 1000"><path transform="translate(0, 900) scale(1,-1)" d="M44 636C72 575 97 495 104 445L159 472C152 521 125 598 96 658ZM513 621C479 602 423 583 370 569L370 650L310 650L310 479C310 418 327 403 398 403C411 403 494 403 508 403C559 403 577 422 583 497C566 501 542 509 530 518C527 464 522 456 500 456C482 456 416 456 404 456C374 456 370 460 370 479L370 519C432 532 503 553 553 577ZM273 202L273 145L398 145C386 83 350 12 244-39C259-50 278-69 288-83C365-41 410 9 435 60C467 31 501-3 520-26L558 19C536 44 492 83 456 114L462 145L577 145L577 202L467 202L467 211L467 286L564 286L564 339L377 339C383 357 388 376 392 395L335 407C324 346 304 285 274 241C287 235 312 221 323 213C336 233 348 258 359 286L404 286L404 212L404 202ZM615 272C611 138 594 23 523-41C536-50 554-69 562-81C600-47 625 0 642 55C692-43 767-67 859-67L945-67C947-50 956-22 965-7C943-7 878-7 863-7C836-7 810-5 786 2L786 150L926 150L926 207L786 207L786 335L872 335C863 305 853 276 844 254L893 240C911 276 929 333 944 383L904 393L894 391L837 391L864 423C849 438 828 454 804 470C849 507 896 554 930 599L889 629L875 625L595 625L595 572L829 572C808 547 781 521 756 500C727 517 698 532 670 544L632 503C694 474 766 429 810 391L582 391L582 335L727 335L727 31C699 53 676 87 660 138C666 179 669 225 671 272ZM504 822C514 800 526 775 536 751L174 751L174 433L172 348C119 318 67 290 30 272L56 208L167 276C155 168 125 56 50-32C64-41 91-66 101-80C224 61 242 278 242 433L242 688L959 688L959 751L621 751C609 780 591 816 574 846Z"/><animate attributeName="opacity" values="0;0;0;1;1;0;0" dur="3s" repeatCount="indefinite"/></svg></svg>