<svg id="U767C" viewBox="0 0 1000 1000"><svg id="U767Chk" viewBox="0 0 1000 1000"><path transform="translate(0, 900) scale(1,-1)" d="M511 540L511 462C511 413 497 359 417 316C431 307 456 282 466 269C555 320 575 395 575 460L575 480L712 480L712 382C712 322 724 298 785 298C798 298 854 298 868 298C888 298 908 299 920 302C918 317 916 340 915 355C903 352 880 352 867 352C854 352 805 352 792 352C778 352 776 358 776 382L776 515C821 489 869 469 920 453C930 471 950 497 965 512C903 528 845 553 793 583C839 614 893 655 935 694L880 733C846 697 789 649 743 616C717 635 692 655 670 677C716 709 771 753 815 794L760 833C728 799 676 752 632 718C601 755 575 795 555 838L495 819C547 705 630 609 735 540ZM464 145C513 118 568 85 622 52C561 16 490-10 417-25C429-40 444-65 450-81C533-60 612-29 680 16C739-21 792-56 828-82L867-33C832-9 784 22 731 54C787 102 832 162 861 236L819 252L807 250L464 250L464 195L771 195C746 154 713 118 674 88C615 123 553 158 500 187ZM112 679C150 655 196 620 224 592C163 550 95 518 28 497C41 484 60 458 69 441C106 454 144 470 180 489L180 477L347 477L347 371L148 371C139 300 126 210 113 150L344 150C335 55 324 13 309 0C301-7 290-8 272-8C253-8 198-7 143-3C155-21 164-47 165-68C220-71 273-71 299-69C329-68 347-62 365-44C390-20 402 39 414 179C416 189 417 208 417 208L188 208L203 312L415 312L415 537L261 537C349 597 426 677 470 777L423 801L411 798L138 798L138 736L371 736C346 698 313 662 276 631C247 659 197 695 155 719Z"/><animate attributeName="opacity" values="1;0;0;1;1" dur="2s" repeatCount="indefinite"/></svg><svg id="U767Cjp" viewBox="0 0 1000 1000"><path transform="translate(0, 900) scale(1,-1)" d="M511 540L511 462C511 413 497 359 417 316C431 307 456 282 466 269C555 320 575 395 575 460L575 480L711 480L711 389C711 341 716 326 729 314C743 302 765 298 784 298C795 298 822 298 834 298C847 298 867 300 878 304C891 308 902 315 908 327C914 338 917 367 919 393C901 398 877 410 864 421C863 396 862 378 860 369C857 361 853 357 848 355C845 353 835 353 827 353C818 353 804 353 797 353C789 353 784 354 781 356C777 360 776 369 776 384L776 517C821 492 869 471 920 455C930 474 950 500 965 515C904 531 847 555 795 585C841 615 893 656 935 694L880 733C847 698 790 651 745 617C718 636 694 656 671 678C717 710 772 754 815 794L760 833C729 799 677 753 633 719C602 756 575 797 555 840L495 821C548 706 632 609 739 540ZM773 195C748 149 714 111 673 80C629 112 594 151 571 195ZM474 250L474 195L551 195L510 183C535 129 571 82 616 43C557 11 489-12 417-25C429-40 443-65 450-81C531-63 606-36 670 3C732-36 807-64 893-80C902-61 922-33 937-17C859-6 788 15 730 45C787 94 833 156 861 236L819 252L807 250ZM112 679C150 655 196 620 224 592C163 550 95 518 28 497C41 484 60 458 69 441C103 453 137 467 170 484L170 476L347 476L347 371L144 371C132 298 112 204 96 144L158 133L165 161L344 161C333 54 322 7 306-8C298-15 288-16 269-16C249-16 195-16 139-10C152-28 160-55 162-75C216-78 269-78 296-77C326-75 345-70 362-52C389-27 401 37 414 189C416 199 417 219 417 219L178 219L197 312L347 312L347 296L414 296L414 536L259 536C349 597 426 677 470 777L423 801L411 798L138 798L138 736L371 736C346 698 313 662 276 631C247 659 197 695 155 719Z"/><animate attributeName="opacity" values="0;1;1;0;0" dur="2s" repeatCount="indefinite"/></svg></svg>