<svg id="U76CE" viewBox="0 0 1000 1000"><svg id="U76CEhk" viewBox="0 0 1000 1000"><path transform="translate(0, 900) scale(1,-1)" d="M536 402C660 354 823 278 906 230L940 292C854 340 689 411 568 456ZM203 730L203 530L67 530L67 464L394 464C337 398 235 335 52 283C69 268 89 240 98 225C133 236 166 247 196 259L196 13L53 13L53-53L947-53L947 13L808 13L808 268L219 268C360 326 440 394 484 464L927 464L927 530L798 530L798 730L537 730L537 839L463 839L463 730ZM267 13L267 204L377 204L377 13ZM445 13L445 204L555 204L555 13ZM623 13L623 204L735 204L735 13ZM436 530L275 530L275 666L463 666C463 623 458 577 436 530ZM516 530C532 576 537 622 537 666L722 666L722 530Z"/><animate attributeName="opacity" values="1;0;0;1;1" dur="2s" repeatCount="indefinite"/></svg><svg id="U76CEjp" viewBox="0 0 1000 1000"><path transform="translate(0, 900) scale(1,-1)" d="M457 840L457 750L185 750L185 536L62 536L62 471L415 471C365 400 260 334 39 285C55 270 74 241 82 225C114 233 144 241 172 249L172 16L45 16L45-50L957-50L957 16L827 16L827 249C856 242 887 236 919 232C928 253 948 284 964 300C783 318 650 371 578 471L936 471L936 536L815 536L815 750L531 750L531 840ZM243 16L243 204L366 204L366 16ZM434 16L434 204L559 204L559 16ZM627 16L627 204L753 204L753 16ZM228 268C383 324 461 393 498 468C553 371 640 307 758 268ZM258 536L258 686L457 686L457 626C457 596 455 566 446 536ZM739 536L522 536C529 565 531 595 531 625L531 686L739 686Z"/><animate attributeName="opacity" values="0;1;1;0;0" dur="2s" repeatCount="indefinite"/></svg></svg>