<svg id="U76DA" viewBox="0 0 1000 1000"><path transform="translate(0, 900) scale(1,-1)" d="M127 601C202 578 299 538 347 507L384 566C333 596 236 633 162 654ZM62 377L87 315C179 353 303 407 418 458L404 519C277 464 147 410 62 377ZM819 663C763 629 667 580 603 557L632 507C697 529 791 569 854 606ZM568 456C679 417 823 355 897 311L933 372C858 415 712 474 603 510ZM159 259L159 15L45 15L45-52L956-52L956 15L844 15L844 259ZM229 15L229 198L362 198L362 15ZM432 15L432 198L566 198L566 15ZM636 15L636 198L771 198L771 15ZM619 793C680 779 752 753 799 731L537 731L537 840L461 840L461 731L67 731L67 668L461 668L461 370C461 356 457 352 442 352C428 351 380 351 330 353C341 336 356 308 362 289C426 289 469 290 498 301C527 312 537 329 537 368L537 668L934 668L934 731L820 731L844 771C798 795 714 822 648 835Z"/></svg>