<svg id="U7624" viewBox="0 0 1000 1000"><svg id="U7624hk" viewBox="0 0 1000 1000"><path transform="translate(0, 900) scale(1,-1)" d="M48 637C77 574 104 491 111 439L171 466C164 516 136 597 104 659ZM578 91L578 9L417 9L417 91ZM642 91L813 91L813 9L642 9ZM578 143L417 143L417 218L578 218ZM642 143L642 218L813 218L813 143ZM349 276L349-82L417-82L417-49L813-49L813-78L883-78L883 276L606 276C706 334 742 430 756 554L852 554C848 435 842 389 831 377C825 369 818 368 806 368C795 368 766 368 734 372C743 356 749 330 750 313C783 311 818 311 835 312C858 315 872 320 884 336C904 358 911 421 917 585C918 594 919 613 919 613L606 613L606 554L695 554C683 451 651 369 563 322C577 311 595 290 603 276ZM335 304C350 316 376 327 539 385L551 346L607 370C596 413 566 485 538 540L484 521C497 495 510 465 521 435L401 395L401 562C468 574 538 592 591 614L537 656C492 635 408 614 336 600L336 428C336 388 319 369 304 360C315 348 331 321 335 305ZM513 828C524 803 535 773 543 745L187 745L187 423L186 347C127 316 73 288 33 269L58 203C97 225 139 250 180 275C169 167 138 54 61-33C76-42 103-68 114-83C237 56 257 269 257 423L257 680L963 680L963 745L625 745C616 776 601 815 588 845Z"/><animate attributeName="opacity" values="1;0;0;1;1" dur="2s" repeatCount="indefinite"/></svg><svg id="U7624jp" viewBox="0 0 1000 1000"><path transform="translate(0, 900) scale(1,-1)" d="M48 637C77 574 104 491 111 439L171 466C164 516 136 597 104 659ZM578 89L578 9L417 9L417 89ZM642 89L813 89L813 9L642 9ZM578 141L417 141L417 218L578 218ZM642 141L642 218L813 218L813 141ZM536 655C501 634 443 612 386 594L330 609L342 380L289 366L308 308L545 383C553 368 559 354 564 342L611 364C595 349 576 336 553 325C567 315 585 292 594 278C702 335 741 430 756 554L852 554C848 435 842 389 831 377C825 369 818 368 806 368C795 368 766 368 734 372C743 356 749 330 750 313C783 311 818 311 835 312C858 315 872 320 884 336C904 358 911 421 917 585C918 594 919 613 919 613L606 613L606 554L694 554C685 479 665 416 617 369C600 411 560 474 522 519L471 497C487 477 504 454 518 430L406 398L398 545C465 562 537 586 590 613ZM349 276L349-82L417-82L417-49L813-49L813-78L883-78L883 276ZM33 269L58 203C97 225 139 250 180 275C169 167 138 54 61-33C76-42 103-68 114-83C237 56 257 269 257 423L257 680L963 680L963 745L589 745L589 840L511 840L511 745L187 745L187 423L186 347C127 316 73 288 33 269Z"/><animate attributeName="opacity" values="0;1;1;0;0" dur="2s" repeatCount="indefinite"/></svg></svg>