<svg id="U7662" viewBox="0 0 1000 1000"><svg id="U7662hk" viewBox="0 0 1000 1000"><path transform="translate(0, 900) scale(1,-1)" d="M484 360L484 322L716 322L716 360ZM38 643C61 581 86 500 98 451L154 479C142 524 115 603 91 664ZM380-79C395-68 420-58 602-8C599 3 597 25 597 40C701 4 824-44 890-77L921-31C891-17 850 0 806 16C841 37 880 61 910 88L864 119C835 95 788 61 747 38C696 56 644 74 598 89L807 89L807 286C844 261 883 239 923 224C933 240 952 263 966 275C890 298 813 345 761 399L947 399L947 447L631 447L631 490L872 490L872 531L631 531L631 573L911 573L911 618L748 618L789 671L725 685C715 666 699 640 684 618L515 618C504 636 486 664 471 684L413 667C423 653 435 635 444 618L299 618L299 573L563 573L563 531L333 531L333 490L563 490L563 447L259 447L259 399L437 399C383 343 303 292 231 267C245 255 263 232 273 217C310 233 350 256 387 283L387 35C387-4 367-19 352-26C362-39 375-64 380-79ZM691 399C720 359 760 320 805 288L394 288C439 321 480 360 510 399ZM744 171L744 130L450 130L450 171ZM744 210L450 210L450 248L744 248ZM565 51L592 42L450 6L450 89L594 89ZM507 829L535 758L169 758L169 439L167 356C114 325 63 297 25 279L50 214L162 283C150 174 120 61 44-27C58-36 85-61 96-75C218 67 237 283 237 439L237 695L953 695L953 758L619 758C608 785 595 819 581 846Z"/><animate attributeName="opacity" values="1;0;0;0;0;0;0;1;1" dur="4s" repeatCount="indefinite"/></svg><svg id="U7662jp" viewBox="0 0 1000 1000"><path transform="translate(0, 900) scale(1,-1)" d="M484 360L484 322L716 322L716 360ZM38 643C66 581 92 502 98 452L153 479C146 528 120 605 90 665ZM282-16L290-73C382-61 506-43 628-26L626 21C706-35 817-70 944-85C951-68 966-46 979-33C896-26 820-12 755 11C801 29 853 53 893 79L851 107C813 85 752 54 702 34C670 50 643 68 622 89L807 89L807 286C844 261 883 239 923 224C933 240 952 263 966 275C890 298 813 345 761 399L947 399L947 447L631 447L631 490L872 490L872 531L631 531L631 573L911 573L911 618L748 618L789 671L725 685C715 666 699 640 684 618L516 618C507 639 488 667 470 687L413 667C425 652 437 635 447 618L299 618L299 573L563 573L563 531L333 531L333 490L563 490L563 447L259 447L259 399L437 399C383 343 303 292 231 267C245 255 263 232 273 217C310 233 350 256 387 283L387-4ZM691 399C720 359 760 320 805 288L394 288C439 321 480 360 510 399ZM744 171L744 130L451 130L451 171ZM744 210L451 210L451 248L744 248ZM618 27L451 4L451 89L554 89C572 66 593 45 618 27ZM25 279L50 214L162 283C150 174 120 61 44-27C58-36 85-61 96-75C218 67 237 283 237 439L237 695L953 695L953 758L589 758L589 840L511 840L511 758L169 758L169 439L167 356C114 325 63 297 25 279Z"/><animate attributeName="opacity" values="0;1;1;0;0;0;0;0;0" dur="4s" repeatCount="indefinite"/></svg><svg id="U7662kr" viewBox="0 0 1000 1000"><path transform="translate(0, 900) scale(1,-1)" d="M484 360L484 322L716 322L716 360ZM38 643C66 581 92 502 98 452L153 479C146 528 120 605 90 665ZM282-16L290-73C382-61 506-43 628-26L626 18C701-36 805-69 923-84C930-68 946-46 959-33C882-26 811-12 752 10C799 28 852 52 893 79L851 107C813 84 750 53 699 33C668 49 642 67 621 89L807 89L807 286C844 261 883 239 923 224C933 240 952 263 966 275C890 298 813 345 761 399L947 399L947 447L631 447L631 490L872 490L872 531L631 531L631 573L911 573L911 618L748 618L789 671L725 685C715 666 699 640 684 618L516 618C507 639 488 667 470 687L413 667C425 652 437 635 447 618L299 618L299 573L563 573L563 531L333 531L333 490L563 490L563 447L259 447L259 399L437 399C383 343 303 292 231 267C245 255 263 232 273 217C310 233 350 256 387 283L387-4ZM691 399C720 359 760 320 805 288L394 288C439 321 480 360 510 399ZM744 171L744 130L451 130L451 171ZM744 210L451 210L451 248L744 248ZM615 26L451 4L451 89L554 89C571 66 591 45 615 26ZM25 279L50 214L162 283C150 174 120 61 44-27C58-36 85-61 96-75C218 67 237 283 237 439L237 695L953 695L953 758L589 758L589 840L511 840L511 758L169 758L169 439L167 356C114 325 63 297 25 279Z"/><animate attributeName="opacity" values="0;0;0;1;1;0;0;0;0" dur="4s" repeatCount="indefinite"/></svg><svg id="U7662sc" viewBox="0 0 1000 1000"><path transform="translate(0, 900) scale(1,-1)" d="M38 643C66 581 92 502 98 452L153 479C146 528 120 605 90 665ZM535 354C550 337 565 316 576 296L430 296C466 323 499 354 528 389L690 389C714 356 746 324 781 296L653 296C641 320 619 352 597 375ZM562 55C668 17 807-43 877-81L925-38C892-21 848-1 800 19C833 38 869 61 899 87L852 118C825 95 782 64 743 41C699 59 653 76 614 90L813 90L813 273C847 250 884 230 920 216C929 232 949 255 963 267C888 290 812 336 760 389L945 389L945 437L563 437C573 452 583 468 592 485L872 485L872 527L612 527L629 573L911 573L911 618L748 618L789 671L725 685C715 666 699 640 684 618L516 618C507 639 488 667 470 687L413 667C425 652 437 635 447 618L299 618L299 573L559 573C553 557 547 542 540 527L333 527L333 485L517 485C507 468 496 452 485 437L264 437L264 389L442 389C385 334 314 291 231 260C246 248 270 223 279 209C315 224 348 242 380 262L380 38C380 3 350-14 332-22C343-36 357-63 362-77C380-69 410-63 635-32C633-20 632 1 633 16L444-6L444 90L606 90ZM749 176L749 131L444 131L444 176ZM749 215L444 215L444 255L749 255ZM507 829L535 758L169 758L169 439L167 356C114 325 63 297 25 279L50 214L162 283C150 174 120 61 44-27C58-36 85-61 96-75C218 67 237 283 237 439L237 695L953 695L953 758L619 758C608 785 595 819 581 846Z"/><animate attributeName="opacity" values="0;0;0;0;0;1;1;0;0" dur="4s" repeatCount="indefinite"/></svg></svg>