<svg id="U7665" viewBox="0 0 1000 1000"><svg id="U7665hk" viewBox="0 0 1000 1000"><path transform="translate(0, 900) scale(1,-1)" d="M538 655L538 488L479 488L479 613L436 613L436 436L691 436L691 613L647 613L647 488L590 488L590 655ZM513 829C523 806 534 778 544 752L177 752L177 497C161 540 124 609 93 662L36 637C68 582 104 510 118 465L177 494L177 463C177 434 177 402 175 370C121 327 70 287 33 261L64 197C98 224 133 253 168 284C154 170 121 50 42-43C59-50 88-70 101-82C191 25 226 172 239 306C250 292 268 263 273 252C289 266 305 282 320 299L320-80L383-80L383 383C404 414 422 448 436 481L380 498C348 427 296 356 239 308C244 363 246 416 246 463L246 688L950 688L950 752L627 752C617 781 602 817 587 846ZM789 464L858 464C851 374 840 294 821 223C803 288 789 358 779 431ZM767 656C754 548 731 443 694 362L694 385L424 385L424 333L680 333L667 311C680 302 703 282 712 272C724 292 736 314 746 338C758 267 773 200 793 140C761 63 715 0 649-48C663-56 687-76 696-85C748-42 789 8 820 68C847 7 880-44 921-81C931-66 950-44 964-33C917 5 880 64 851 136C885 227 904 335 915 464L953 464L953 524L803 524C812 564 819 605 825 647ZM431 30L444-24C517-13 608 2 699 17L696 65L594 51L594 117L687 117L687 166L594 166L594 241C631 247 665 254 693 263L656 308C604 290 508 277 431 271C437 258 444 239 447 227C476 228 507 230 539 234L539 166L437 166L437 117L539 117L539 44ZM376 660C348 604 299 549 246 511C260 501 282 480 291 469C344 512 400 578 433 644Z"/><animate attributeName="opacity" values="1;0;0;0;0;1;1" dur="3s" repeatCount="indefinite"/></svg><svg id="U7665jp" viewBox="0 0 1000 1000"><path transform="translate(0, 900) scale(1,-1)" d="M38 633C65 572 89 494 94 445L148 471C142 519 117 596 88 655ZM379 499C344 432 287 367 226 321C229 360 230 397 230 431L230 504C242 493 256 478 263 470C323 512 388 578 427 644L371 662C338 608 286 557 230 520L230 688L958 688L958 749L589 749L589 840L511 840L511 749L164 749L164 431L163 355C110 322 60 292 23 272L48 209C84 231 121 256 158 282C147 171 118 56 42-34C56-43 81-67 92-82C179 21 212 163 224 293L250 261C268 275 287 291 305 308L305-79L368-79L368 378C389 405 409 433 425 461L425 437L685 437L685 614L641 614L641 490L580 490L580 656L529 656L529 490L468 490L468 614L425 614L425 484ZM781 463L865 463C858 368 844 284 820 211C799 279 783 355 773 433ZM760 658C747 554 726 454 691 375L691 386L413 386L413 334L671 334L658 313C672 304 696 285 706 275C718 295 729 317 740 341C753 267 769 199 791 137C768 88 738 46 699 9C680-10 658-27 633-43C646-53 669-75 676-86C736-44 783 7 819 69C847 7 883-45 926-82C935-67 955-45 968-34C919 3 881 60 850 131C890 221 912 331 924 463L961 463L961 525L796 525C805 565 812 606 818 648ZM401 34L409-23C491-15 595-3 699 9L699 60L583 49L583 120L681 120L681 169L583 169L583 231L691 231L691 282L421 282L421 231L527 231L527 169L429 169L429 120L527 120L527 44Z"/><animate attributeName="opacity" values="0;1;1;0;0;0;0" dur="3s" repeatCount="indefinite"/></svg><svg id="U7665sc" viewBox="0 0 1000 1000"><path transform="translate(0, 900) scale(1,-1)" d="M507 829L538 752L174 752L174 444L172 355C120 319 70 285 33 263L57 194C91 219 129 247 167 276C156 166 129 52 62-37C78-45 103-66 114-80C183 14 213 138 227 258C237 244 249 224 254 215C273 232 292 252 311 273L311-76L369-76L369 350C391 382 411 417 427 451L427 436L693 436L693 613L647 613L647 488L585 488L585 655L533 655L533 488L471 488L471 613L427 613L427 464L377 479C344 404 288 330 229 278C234 337 236 393 236 444L236 505C248 491 265 467 272 456C331 503 393 575 431 646L375 664C343 604 290 547 236 508L236 685L959 685L959 752L621 752C611 782 595 817 581 846ZM781 462L872 462C864 364 849 279 825 206C802 276 785 356 774 438ZM766 658C751 549 727 443 688 363L688 385L415 385L415 333L672 333L668 327C679 317 698 293 705 282C718 302 730 325 741 350C755 272 772 198 795 133C760 62 711 4 643-39C655-49 676-69 683-80C741-39 786 11 821 70C849 10 883-41 926-77C935-62 955-41 968-30C921 6 883 63 853 132C892 222 914 331 926 462L961 462L961 524L797 524C806 564 814 606 820 648ZM407 48L407-3L691-3L691 48L586 48L586 118L679 118L679 167L586 167L586 230L696 230L696 280L420 280L420 230L527 230L527 167L432 167L432 118L527 118L527 48ZM36 642C67 586 101 511 116 463L174 493C158 539 121 613 90 668Z"/><animate attributeName="opacity" values="0;0;0;1;1;0;0" dur="3s" repeatCount="indefinite"/></svg></svg>