<svg id="U7671" viewBox="0 0 1000 1000"><svg id="U7671hk" viewBox="0 0 1000 1000"><path transform="translate(0, 900) scale(1,-1)" d="M36 635C63 574 87 496 92 447L146 473C140 521 115 598 86 657ZM782 637C800 594 818 539 827 502L885 519C876 554 856 609 838 651ZM712 660C688 555 648 454 595 380L595 424L469 424L469 460L558 460L558 549L628 549L628 596L558 596L558 655L498 655L498 596L381 596L381 655L323 655L323 596L252 596L252 549L323 549L323 460L407 460L407 424L285 424L285 273L407 273L407 232L278 232L278 184L407 184L407 162L406 135L251 135L251 84L393 84C374 39 331-6 233-36C246-47 264-68 272-81C356-51 405-11 433 31C483-1 538-41 568-67L610-25C574 3 509 47 457 79L458 84L611 84L611 135L468 135L469 161L469 184L602 184L602 232L469 232L469 273L595 273L595 340L619 310C633 327 646 346 659 366L659-82L716-82L716-40L962-40L962 19L866 19L866 123L940 123L940 181L866 181L866 282L940 282L940 340L866 340L866 441L954 441L954 499L724 499C743 546 758 596 770 647ZM498 549L498 504L381 504L381 549ZM336 382L412 382L412 316L336 316ZM464 382L542 382L542 316L464 316ZM716 282L812 282L812 181L716 181ZM716 340L716 441L812 441L812 340ZM716 123L812 123L812 19L716 19ZM507 831C517 807 529 778 538 751L162 751L162 433L161 357C108 324 58 294 21 274L46 211C82 233 119 258 156 284C145 173 116 58 40-32C54-41 80-65 90-80C210 62 228 278 228 433L228 690L956 690L956 751L621 751C611 781 595 818 581 847Z"/><animate attributeName="opacity" values="1;0;0;1;1" dur="2s" repeatCount="indefinite"/></svg><svg id="U7671jp" viewBox="0 0 1000 1000"><path transform="translate(0, 900) scale(1,-1)" d="M36 635C63 574 87 496 92 447L146 473C140 521 115 598 86 657ZM712 660C688 555 648 454 595 380L595 424L469 424L469 460L558 460L558 549L628 549L628 596L558 596L558 655L498 655L498 596L381 596L381 655L323 655L323 596L252 596L252 549L323 549L323 460L407 460L407 424L285 424L285 273L407 273L407 232L278 232L278 184L407 184L407 162L406 135L251 135L251 84L393 84C374 39 331-6 233-36C246-47 264-68 272-81C356-51 405-11 433 31C483-1 538-41 568-67L610-25C574 3 509 47 457 79L458 84L611 84L611 135L468 135L469 161L469 184L602 184L602 232L469 232L469 273L595 273L595 340L619 310C633 327 646 346 659 366L659-82L716-82L716-40L962-40L962 19L850 19L850 123L940 123L940 181L850 181L850 282L940 282L940 340L850 340L850 441L954 441L954 499L851 499C869 540 887 590 904 634L845 653C834 609 815 545 796 499L724 499C743 546 758 596 770 647ZM498 549L498 504L381 504L381 549ZM336 382L412 382L412 316L336 316ZM464 382L542 382L542 316L464 316ZM716 282L796 282L796 181L716 181ZM716 340L716 441L796 441L796 340ZM716 123L796 123L796 19L716 19ZM21 274L46 211C82 233 119 258 156 284C145 173 116 58 40-32C54-41 80-65 90-80C210 62 228 278 228 433L228 690L956 690L956 751L589 751L589 840L511 840L511 751L162 751L162 433L161 357C108 324 58 294 21 274Z"/><animate attributeName="opacity" values="0;1;1;0;0" dur="2s" repeatCount="indefinite"/></svg></svg>