<svg id="U76AB" viewBox="0 0 1000 1000"><svg id="U76ABhk" viewBox="0 0 1000 1000"><path transform="translate(0, 900) scale(1,-1)" d="M558 116C568 59 577-15 579-65L635-54C632-6 623 68 612 125ZM675 115C699 58 725-17 737-65L793-46C780 1 753 74 728 130ZM802 112C840 55 886-24 907-73L961-43C938 5 892 81 852 139ZM452 135C436 79 406 3 373-42L425-72C459-22 486 55 504 114ZM170 835C165 791 154 731 143 684L76 684L76 11L133 11L133 91L308 91L308 684L198 684C210 725 224 776 235 821ZM133 616L252 616L252 423L133 423ZM133 159L133 355L252 355L252 159ZM531 687L531 620L419 620L419 687ZM595 687L699 687L699 620L595 620ZM357 744L357 509C357 347 349 114 260-53C277-60 304-76 316-88C395 63 414 273 418 436L929 436L929 620L764 620L764 687L957 687L957 744L705 744C695 773 676 814 660 845L593 825C604 801 617 770 626 744ZM459 153C474 163 499 170 670 209C669 222 668 244 669 259L519 228L519 313L674 313L674 364L519 364L519 420L459 420L459 253C459 216 447 207 436 201C444 190 455 167 459 153ZM531 565L531 490L419 490L419 508L419 565ZM595 565L699 565L699 490L595 490ZM764 565L867 565L867 490L764 490ZM699 421L699 242C699 183 715 168 783 168C796 168 876 168 891 168C939 168 956 186 962 251C946 255 922 262 909 271C907 226 903 219 883 219C866 219 802 219 791 219C764 219 759 223 759 243L759 313L932 313L932 363L759 363L759 421Z"/><animate attributeName="opacity" values="1;0;0;1;1" dur="2s" repeatCount="indefinite"/></svg><svg id="U76ABsc" viewBox="0 0 1000 1000"><path transform="translate(0, 900) scale(1,-1)" d="M560 116C574 58 582-16 580-65L637-55C638-6 628 68 613 125ZM678 114C706 58 731-16 739-64L796-46C786 2 759 75 730 130ZM805 112C847 56 891-22 908-73L962-45C942 6 898 82 854 138ZM452 136C436 80 406 4 372-41L425-71C460-21 486 56 504 114ZM531 687L531 620L423 620L423 687ZM595 687L699 687L699 620L595 620ZM359 744L359 534C359 368 352 123 269-53C286-59 314-74 327-85C396 66 417 272 422 436L929 436L929 620L764 620L764 687L957 687L957 744L698 744C687 773 669 813 653 843L593 825C605 801 617 770 627 744ZM459 153C474 163 500 171 672 210C671 223 671 247 671 263L526 233L526 315L664 315L664 365L526 365L526 423L466 423L466 285C466 245 442 222 427 213C438 199 452 169 458 152ZM531 565L531 490L423 490L423 534L423 565ZM595 565L699 565L699 490L595 490ZM764 565L867 565L867 490L764 490ZM894 396C863 377 811 358 759 342L759 422L699 422L699 241C699 181 715 166 783 166C796 166 876 166 890 166C940 166 957 185 962 256C946 260 922 267 909 276C907 225 903 217 883 217C866 217 802 217 791 217C764 217 759 220 759 241L759 295C821 311 889 333 940 358ZM170 835C165 792 154 731 143 684L76 684L76 11L133 11L133 91L294 91L294 684L195 684L231 822ZM133 616L237 616L237 423L133 423ZM133 159L133 355L237 355L237 159Z"/><animate attributeName="opacity" values="0;1;1;0;0" dur="2s" repeatCount="indefinite"/></svg></svg>