<svg id="U7740" viewBox="0 0 1000 1000"><svg id="U7740hk" viewBox="0 0 1000 1000"><path transform="translate(0, 900) scale(1,-1)" d="M687 843C671 812 641 766 618 736L629 732L365 732L377 737C363 768 333 810 303 841L238 817C260 792 282 759 297 732L112 732L112 671L461 671L461 601L157 601L157 544L461 544L461 473L65 473L65 411L277 411C224 283 138 172 34 100C50 88 79 59 90 44C156 95 218 162 269 240L269-78L343-78L343-42L763-42L763-76L841-76L841 352L331 352C340 371 349 391 357 411L934 411L934 473L538 473L538 544L844 544L844 601L538 601L538 671L890 671L890 732L697 732C718 757 744 788 766 819ZM343 186L763 186L763 126L343 126ZM343 234L343 294L763 294L763 234ZM343 78L763 78L763 16L343 16Z"/><animate attributeName="opacity" values="1;0;0;1;1" dur="2s" repeatCount="indefinite"/></svg><svg id="U7740sc" viewBox="0 0 1000 1000"><path transform="translate(0, 900) scale(1,-1)" d="M343 182L763 182L763 123L343 123ZM343 230L343 290L763 290L763 230ZM343 75L763 75L763 14L343 14ZM65 468L65 406L299 406C226 297 136 206 29 140C46 128 76 99 88 84C154 130 214 184 269 247L269-81L343-81L343-43L763-43L763-78L841-78L841 347L347 347L385 406L934 406L934 468L420 468C432 490 443 513 454 537L844 537L844 594L479 594L505 664L890 664L890 725L693 725C717 753 741 787 763 819L684 843C667 808 636 760 611 725L355 725L392 740C376 769 345 813 316 845L246 820C269 792 295 754 310 725L112 725L112 664L426 664C418 640 409 617 399 594L157 594L157 537L373 537C362 513 350 490 337 468Z"/><animate attributeName="opacity" values="0;1;1;0;0" dur="2s" repeatCount="indefinite"/></svg></svg>