<svg id="U772B" viewBox="0 0 1000 1000"><path transform="translate(0, 900) scale(1,-1)" d="M861 780C832 706 790 621 750 561C769 553 801 539 815 529C853 589 900 681 933 761ZM410 751C452 684 504 595 529 539L595 571C570 626 519 712 474 778ZM636 840L636 504L419 504L419 433L636 433L636 282L396 282L396 210L636 210L636-79L714-79L714 210L961 210L961 282L714 282L714 433L933 433L933 504L714 504L714 840ZM281 507L281 365L142 365L142 507ZM281 572L142 572L142 711L281 711ZM281 300L281 153L142 153L142 300ZM72 779L72-1L142-1L142 86L349 86L349 779Z"/></svg>