<svg id="U775B" viewBox="0 0 1000 1000"><svg id="U775Bhk" viewBox="0 0 1000 1000"><path transform="translate(0, 900) scale(1,-1)" d="M265 508L265 365L141 365L141 508ZM265 573L141 573L141 711L265 711ZM265 300L265 153L141 153L141 300ZM74 779L74-1L141-1L141 86L332 86L332 779ZM615 840L615 759L391 759L391 701L615 701L615 639L416 639L416 584L615 584L615 517L363 517L363 458L952 458L952 517L686 517L686 584L904 584L904 639L686 639L686 701L927 701L927 759L686 759L686 840ZM807 341L807 266L503 266L503 341ZM432 398L432-79L503-79L503 84L807 84L807-2C807-13 803-17 791-17C778-18 737-18 692-16C701-34 711-60 714-79C776-79 818-78 844-68C871-57 878-39 878-2L878 398ZM503 212L807 212L807 137L503 137Z"/><animate attributeName="opacity" values="1;0;0;0;0;1;1" dur="3s" repeatCount="indefinite"/></svg><svg id="U775Bjp" viewBox="0 0 1000 1000"><path transform="translate(0, 900) scale(1,-1)" d="M287 505L287 363L144 363L144 505ZM287 571L144 571L144 710L287 710ZM287 298L287 152L144 152L144 298ZM74 777L74-3L144-3L144 85L357 85L357 777ZM381 516L381 456L958 456L958 516L702 516L702 587L902 587L902 642L702 642L702 706L920 706L920 765L702 765L702 840L629 840L629 765L412 765L412 706L629 706L629 642L437 642L437 587L629 587L629 516ZM634 197L516 197L516 328L634 328ZM697 197L697 328L826 328L826 197ZM447 390L447-79L516-79L516 136L826 136L826 0C826-10 822-14 809-15C797-15 756-16 711-14C721-33 731-61 734-79C796-79 836-79 862-68C889-56 895-36 895 0L895 390Z"/><animate attributeName="opacity" values="0;1;1;0;0;0;0" dur="3s" repeatCount="indefinite"/></svg><svg id="U775Btc" viewBox="0 0 1000 1000"><path transform="translate(0, 900) scale(1,-1)" d="M823 210L823 134L516 134C519 161 520 186 520 210ZM823 267L520 267L520 344L823 344ZM634 840L634 762L397 762L397 704L634 704L634 640L425 640L425 585L634 585L634 516L395 516L395 458L957 458L957 516L706 516L706 585L924 585L924 640L706 640L706 704L949 704L949 762L706 762L706 840ZM449 400L449 216C449 137 443 36 388-39C403-49 432-76 442-91C478-43 498 17 509 77L823 77L823 2C823-10 818-14 804-14C791-15 743-15 692-14C702-32 711-60 715-78C785-78 830-78 858-67C886-56 894-36 894 2L894 400ZM265 508L265 365L141 365L141 508ZM265 573L141 573L141 711L265 711ZM265 300L265 153L141 153L141 300ZM74 779L74-1L141-1L141 86L332 86L332 779Z"/><animate attributeName="opacity" values="0;0;0;1;1;0;0" dur="3s" repeatCount="indefinite"/></svg></svg>