<svg id="U7751" viewBox="0 0 1000 1000"><path transform="translate(0, 900) scale(1,-1)" d="M397 355C425 279 453 179 461 113L523 131C514 195 486 294 456 370ZM591 382C609 307 627 207 631 142L694 152C688 217 670 314 650 391ZM254 506L254 364L138 364L138 506ZM254 571L138 571L138 710L254 710ZM254 299L254 153L138 153L138 299ZM74 778L74 0L138 0L138 85L319 85L319 778ZM624 847C558 707 443 582 320 505C333 490 356 459 365 444C400 468 435 497 468 528L468 465L807 465L807 530L470 530C531 587 588 654 635 727C711 626 825 518 924 451C932 470 949 501 964 518C861 579 739 691 672 788L690 824ZM348 35L348-32L943-32L943 35L754 35C806 129 866 265 908 373L842 391C807 284 744 131 690 35Z"/></svg>