<svg id="U772C" viewBox="0 0 1000 1000"><path transform="translate(0, 900) scale(1,-1)" d="M688 769C740 732 806 679 839 645L888 688C854 722 788 772 736 807ZM531 840C531 755 529 675 526 601L379 601L379 536L522 536C502 279 446 93 280-24C296-38 325-69 333-82C508 56 569 254 591 536L661 536L661 168C608 115 548 67 484 25C495 12 511-8 518-21C569 12 617 48 661 86L661 54C661-26 680-48 755-48C770-48 855-48 871-48C936-48 954-14 961 103C942 108 914 119 898 131C895 35 891 16 866 16C848 16 778 16 765 16C735 16 730 22 730 54L730 151C810 232 875 325 920 429L860 468C830 388 785 313 730 245L730 536L948 536L948 601L596 601C600 675 602 754 603 839ZM276 507L276 365L138 365L138 507ZM276 572L138 572L138 711L276 711ZM276 300L276 153L138 153L138 300ZM72 779L72-1L138-1L138 86L343 86L343 779Z"/></svg>