<svg id="U77A9" viewBox="0 0 1000 1000"><path transform="translate(0, 900) scale(1,-1)" d="M387 788L387 499C387 341 378 124 268-29C284-38 312-61 324-74C439 88 456 332 456 499L456 580L916 580L916 788ZM456 729L846 729L846 639L456 639ZM761 129L786 81L724 78L724 161L879 161L879-23C879-33 876-36 865-36C854-37 817-37 775-35C782-49 790-66 793-78C851-78 889-79 911-72C933-64 940-52 940-23L940 217L727 217L727 264L907 264L907 432L727 432L727 493C792 500 854 509 903 520L857 565C771 546 610 531 479 526C486 512 494 491 496 477C551 479 611 482 670 487L670 432L497 432L497 264L670 264L670 217L465 217L465-78L529-78L529 161L672 161L672 75L545 70L552 16L808 37L826-7L863 8C850 43 821 98 796 141ZM554 384L670 384L670 312L554 312ZM727 384L847 384L847 312L727 312ZM259 511L259 369L140 369L140 511ZM259 576L140 576L140 715L259 715ZM259 304L259 157L140 157L140 304ZM73 783L73 3L140 3L140 90L327 90L327 783Z"/></svg>