<svg id="U7722" viewBox="0 0 1000 1000"><svg id="U7722hk" viewBox="0 0 1000 1000"><path transform="translate(0, 900) scale(1,-1)" d="M257 842C212 744 129 658 37 603C53 593 81 570 93 558C121 577 149 600 176 625C221 597 269 559 300 527C232 464 146 421 55 397C69 383 85 356 92 338C286 398 448 524 511 761L467 777L454 774L296 774C306 791 315 808 323 825ZM218 668C231 683 244 698 256 714L426 714C406 661 378 614 344 573C312 604 263 641 218 668ZM547 788L547 507C547 430 573 412 667 412C687 412 826 412 847 412C922 412 944 438 952 541C932 546 904 555 890 566C886 486 879 474 841 474C811 474 694 474 672 474C624 474 615 479 615 507L615 728L807 728L807 633C807 622 805 618 791 618C778 617 738 617 689 619C698 601 709 579 713 560C775 560 818 560 845 570C873 580 879 597 879 632L879 788ZM277 200L733 200L733 132L277 132ZM277 250L277 318L733 318L733 250ZM277 81L733 81L733 12L277 12ZM203 375L203-78L277-78L277-44L733-44L733-74L809-74L809 375Z"/><animate attributeName="opacity" values="1;0;0;1;1" dur="2s" repeatCount="indefinite"/></svg><svg id="U7722sc" viewBox="0 0 1000 1000"><path transform="translate(0, 900) scale(1,-1)" d="M254 842C210 747 126 662 38 609C51 595 72 565 81 551C144 592 204 649 253 714L428 714C411 646 385 593 349 551C317 577 272 611 236 635L191 596C227 569 272 534 304 507C238 455 152 429 48 416C60 399 73 370 78 351C314 391 463 487 508 770L467 776L453 774L293 774C302 790 311 807 319 824ZM547 790L547 510C547 432 574 414 670 414C690 414 838 414 860 414C938 414 959 440 967 543C948 548 920 557 905 568C900 488 894 476 854 476C823 476 698 476 675 476C624 476 615 481 615 510L615 730L810 730L810 635C810 624 807 620 795 620C782 619 741 619 692 621C699 603 708 583 710 566C776 566 821 566 848 574C875 584 882 599 882 634L882 790ZM262 200L741 200L741 132L262 132ZM262 250L262 318L741 318L741 250ZM262 81L741 81L741 12L262 12ZM187 375L187-78L262-78L262-44L741-44L741-74L819-74L819 375Z"/><animate attributeName="opacity" values="0;1;1;0;0" dur="2s" repeatCount="indefinite"/></svg></svg>