<svg id="U780D" viewBox="0 0 1000 1000"><svg id="U780Dhk" viewBox="0 0 1000 1000"><path transform="translate(0, 900) scale(1,-1)" d="M521 839C502 672 463 515 390 416C407 406 441 384 453 372C494 433 526 511 550 600L872 600C856 528 835 452 817 401L880 380C907 450 937 562 960 657L907 673L895 669L567 669C578 721 588 775 595 831ZM629 516L629 470C629 332 612 126 381-30C399-41 424-65 436-81C576 15 643 130 674 240C724 94 803-20 920-80C931-61 953-33 970-18C827 46 740 201 699 383C701 413 702 442 702 468L702 516ZM53 787L53 718L184 718C156 565 111 423 39 328C52 309 69 267 73 249C92 273 109 300 125 329L125-34L191-34L191 46L379 46L379 479L191 479C217 554 237 635 253 718L400 718L400 787ZM191 411L313 411L313 113L191 113Z"/><animate attributeName="opacity" values="1;0;0;1;1" dur="2s" repeatCount="indefinite"/></svg><svg id="U780Djp" viewBox="0 0 1000 1000"><path transform="translate(0, 900) scale(1,-1)" d="M521 839C499 682 458 527 392 426L392 490L195 490C215 559 230 633 243 710L435 710L435 779L49 779L49 710L170 710C159 633 143 558 123 490L122 490L122 486C98 405 67 333 27 277C41 262 65 228 73 212C91 237 107 265 122 295L122-23L190-23L190 67L392 67L392 412C412 402 440 384 452 373C489 432 520 508 545 592L626 592L626 428C626 345 588 100 352-18C366-33 388-63 396-79C586 20 650 208 663 289C676 210 741 16 926-79C936-61 958-30 972-15C739 100 700 348 700 428L700 592L872 592C856 520 835 443 817 392L882 371C908 442 938 554 962 649L908 665L895 662L564 662C578 715 589 771 598 828ZM190 423L324 423L324 134L190 134Z"/><animate attributeName="opacity" values="0;1;1;0;0" dur="2s" repeatCount="indefinite"/></svg></svg>