<svg id="U7801" viewBox="0 0 1000 1000"><path transform="translate(0, 900) scale(1,-1)" d="M410 205L410 137L792 137L792 205ZM491 650C484 551 471 417 458 337L478 337L863 336C844 117 822 28 796 2C786-8 776-10 758-9C740-9 695-9 647-4C659-23 666-52 668-73C716-76 762-76 788-74C818-72 837-65 856-43C892-7 915 98 938 368C939 379 940 401 940 401L816 401C832 525 848 675 856 779L803 785L791 781L443 781L443 712L778 712C770 624 757 502 745 401L537 401C546 475 556 569 561 645ZM51 787L51 718L173 718C145 565 100 423 29 328C41 308 58 266 63 247C82 272 100 299 116 329L116-34L181-34L181 46L365 46L365 479L182 479C208 554 229 635 245 718L394 718L394 787ZM181 411L299 411L299 113L181 113Z"/></svg>