<svg id="U78DA" viewBox="0 0 1000 1000"><path transform="translate(0, 900) scale(1,-1)" d="M480 97C520 63 565 13 586-20L639 20C618 52 572 98 530 132ZM45 775L45 706L161 706C138 535 99 374 28 268C42 252 66 217 74 201C90 224 104 250 117 277L117-33L182-33L182 52L369 52L369 479L189 479C207 551 222 627 234 706L401 706L401 775ZM182 412L303 412L303 118L182 118ZM410 308L414 247L742 256L742 193L404 193L404 135L742 135L742-3C742-14 739-17 726-18C714-18 674-18 628-17C637-36 647-62 651-80C713-80 753-80 780-69C806-59 812-41 812-4L812 135L961 135L961 193L812 193L812 259L882 261C895 247 906 234 914 222L968 254C940 290 888 339 839 377L916 377L916 643L714 643L714 697L948 697L948 757L714 757L714 829L645 829L645 757L428 757L428 697L645 697L645 643L448 643L448 377L645 377L645 311ZM514 488L645 488L645 425L514 425ZM714 488L847 488L847 425L714 425ZM514 596L645 596L645 534L514 534ZM714 596L847 596L847 534L714 534ZM775 357C792 344 810 329 828 314L714 312L714 377L809 377Z"/></svg>