<svg id="U7855" viewBox="0 0 1000 1000"><path transform="translate(0, 900) scale(1,-1)" d="M700 91C775 42 870-32 916-80L960-21C913 25 815 96 740 143ZM648 497L648 294C648 191 624 54 389-26C405-39 426-64 435-79C687 14 718 167 718 294L718 497ZM471 616L471 146L539 146L539 551L824 551L824 147L894 147L894 616L678 616L716 721L932 721L932 788L437 788L437 721L638 721C631 687 621 648 611 616ZM51 787L51 718L173 718C145 565 100 423 29 328C41 308 58 266 63 247C82 272 100 299 116 329L116-34L180-34L180 46L377 46L377 479L182 479C208 554 229 635 245 718L400 718L400 787ZM180 411L313 411L313 113L180 113Z"/></svg>