<svg id="U785E" viewBox="0 0 1000 1000"><svg id="U785Ehk" viewBox="0 0 1000 1000"><path transform="translate(0, 900) scale(1,-1)" d="M51 787L51 718L173 718C145 565 100 423 29 328C41 308 58 266 63 247C82 272 100 299 116 329L116-34L180-34L180 46L365 46L365 479L182 479C208 554 229 635 245 718L387 718L387 787ZM180 411L301 411L301 113L180 113ZM481 806C464 701 434 593 390 522C408 514 440 497 454 487C476 525 496 573 513 625L639 625L639 473L396 473L396 404L639 404L639 298L457 298L457-80L527-80L527-37L822-37L822-78L896-78L896 298L712 298L712 404L961 404L961 473L712 473L712 625L918 625L918 693L712 693L712 840L639 840L639 693L532 693C541 725 548 759 554 792ZM527 31L527 230L822 230L822 31Z"/><animate attributeName="opacity" values="1;0;0;0;0;1;1" dur="3s" repeatCount="indefinite"/></svg><svg id="U785Ejp" viewBox="0 0 1000 1000"><path transform="translate(0, 900) scale(1,-1)" d="M46 778L46 709L167 709C144 535 103 374 29 267C43 252 66 220 75 204C92 228 107 255 121 284L121-37L188-37L188 45L390 45L390 476L191 476C211 549 227 628 239 709L419 709L419 778ZM188 409L322 409L322 112L188 112ZM509 816C493 710 464 603 418 533C435 525 467 506 480 496C501 531 520 576 537 626L657 626L657 476L422 476L422 407L657 407L657 316L730 316L730 407L960 407L960 476L730 476L730 626L931 626L931 693L730 693L730 840L657 840L657 693L556 693C566 729 574 767 580 804ZM485 290L485-79L558-79L558-39L838-39L838-72L914-72L914 290ZM558 27L558 224L838 224L838 27Z"/><animate attributeName="opacity" values="0;1;1;0;0;0;0" dur="3s" repeatCount="indefinite"/></svg><svg id="U785Esc" viewBox="0 0 1000 1000"><path transform="translate(0, 900) scale(1,-1)" d="M51 787L51 718L173 718C145 565 100 423 29 328C41 308 58 266 63 247C82 272 100 299 116 329L116-34L180-34L180 46L365 46L365 479L182 479C208 554 229 635 245 718L387 718L387 787ZM180 411L301 411L301 113L180 113ZM481 806C464 698 434 586 388 514C407 506 439 489 453 479C474 516 492 561 509 611L635 611L635 449L396 449L396 381L961 381L961 449L707 449L707 611L918 611L918 680L707 680L707 840L635 840L635 680L529 680C538 717 547 755 554 793ZM447 298L447-80L518-80L518-37L822-37L822-78L895-78L895 298ZM518 31L518 230L822 230L822 31Z"/><animate attributeName="opacity" values="0;0;0;1;1;0;0" dur="3s" repeatCount="indefinite"/></svg></svg>