<svg id="U78F1" viewBox="0 0 1000 1000"><path transform="translate(0, 900) scale(1,-1)" d="M616 782C604 745 580 689 563 654L603 636C622 669 646 717 668 760ZM905 778C894 742 869 688 853 655L892 635C911 668 933 714 954 757ZM398 455L398 295L461 295L461 393L885 393L885 295L950 295L950 455ZM366 760C387 717 409 660 420 625L469 647C459 679 435 735 414 776ZM50 788L50 719L171 719C145 566 102 424 33 328C45 309 62 268 67 251C84 274 99 299 114 326L114-34L176-34L176 46L343 46L343 479L179 479C204 554 224 636 240 719L362 719L362 788ZM176 411L281 411L281 113L176 113ZM500 839C495 669 474 563 359 504C372 493 389 473 396 459C455 489 493 530 517 583C549 553 583 519 603 495L641 537C619 564 574 605 536 637C551 693 558 760 561 839ZM670 750C690 708 712 652 723 619L764 637C744 579 710 537 650 506C664 497 681 476 687 463C743 492 779 531 803 581C848 543 894 499 919 469L960 513C930 546 873 596 824 635C839 691 845 759 848 839L790 839C788 761 782 697 767 646C755 677 733 728 714 765ZM625 364C623 329 620 297 616 266L429 266L429 204L605 204C580 98 525 20 396-27C411-40 430-64 437-80C586-22 647 72 674 204L836 204C824 65 811 7 794-9C787-18 778-19 761-18C746-18 704-18 660-14C670-31 677-57 678-76C723-78 766-78 788-77C816-75 834-69 850-52C876-24 891 48 905 236C907 246 908 266 908 266L684 266C688 297 691 330 693 364Z"/></svg>