<svg id="U7966" viewBox="0 0 1000 1000"><path transform="translate(0, 900) scale(1,-1)" d="M129 801C162 761 197 706 212 671L272 710C255 746 220 798 185 836ZM515 727L826 727L826 574L515 574ZM444 793L444 508L900 508L900 793ZM53 668L53 599L284 599C228 476 128 356 32 288C43 274 61 236 67 215C105 244 144 281 181 323L181-79L251-79L251 344C284 302 321 252 340 224L389 286C369 308 299 390 262 427C308 494 348 568 375 644L334 671L320 668ZM388 255L388 188L609 188C577 90 511 24 367-18C383-32 403-60 411-76C553-32 627 36 667 133C718 31 803-43 918-81C929-62 950-35 967-21C846 11 758 85 713 188L960 188L960 255L699 255C704 289 708 324 710 363L925 363L925 431L421 431L421 363L637 363C635 324 631 288 625 255Z"/></svg>