<svg id="U797B" viewBox="0 0 1000 1000"><svg id="U797Bjp" viewBox="0 0 1000 1000"><path transform="translate(0, 900) scale(1,-1)" d="M619 327L748 327L748 182L619 182ZM77 774L77 707L388 707L388 774ZM335 435L335 76L390 76L390 435ZM73 434L73 316C73 226 68 119 36 36C51 29 74 12 85 0C122 94 128 211 128 315L128 434ZM439 790L439-80L506-80L506-19L866-19L866-76L934-76L934 790ZM506 50L506 724L866 724L866 50ZM566 385L566 124L803 124L803 385L714 385L714 510L835 510L835 570L714 570L714 688L654 688L654 570L540 570L540 510L654 510L654 385ZM50 573L50 506L200 506L200-80L264-80L264 506L406 506L406 573Z"/><animate attributeName="opacity" values="1;0;0;1;1" dur="2s" repeatCount="indefinite"/></svg><svg id="U797Bsc" viewBox="0 0 1000 1000"><path transform="translate(0, 900) scale(1,-1)" d="M582 335L739 335L739 186L582 186ZM127 801C160 761 194 706 209 671L267 710C251 746 216 798 182 836ZM398 796L398-76L467-76L467-22L856-22L856-69L928-69L928 796ZM467 48L467 726L856 726L856 48ZM531 395L531 126L793 126L793 395L696 395L696 516L819 516L819 578L696 578L696 693L633 693L633 578L505 578L505 516L633 516L633 395ZM52 668L52 599L278 599C223 476 125 356 31 288C41 274 59 236 65 215C102 245 140 281 177 324L177-79L245-79L245 347C277 305 314 256 332 228L379 290C360 312 292 391 256 427C301 494 340 568 367 644L328 671L314 668Z"/><animate attributeName="opacity" values="0;1;1;0;0" dur="2s" repeatCount="indefinite"/></svg></svg>