<svg id="U7941" viewBox="0 0 1000 1000"><svg id="U7941hk" viewBox="0 0 1000 1000"><path transform="translate(0, 900) scale(1,-1)" d="M184 805C220 764 257 709 276 668L69 668L69 599L372 599C298 468 167 345 43 277C53 263 70 225 76 205C134 240 194 285 250 338L250-79L324-79L324 350C367 303 418 242 442 208L491 272C467 297 377 390 336 429C391 494 438 566 471 642L429 671L415 668L291 668L339 701C320 739 280 798 240 840ZM559 787L559-80L631-80L631 716L842 716C809 637 761 532 716 447C823 359 857 285 857 223C857 188 850 158 826 146C811 139 794 136 774 135C750 133 714 134 677 138C690 116 698 83 700 63C734 60 776 60 807 63C833 66 858 73 877 85C914 109 929 157 929 217C929 287 902 364 794 459C845 551 900 661 941 754L889 790L876 787Z"/><animate attributeName="opacity" values="1;0;0;1;1" dur="2s" repeatCount="indefinite"/></svg><svg id="U7941jp" viewBox="0 0 1000 1000"><path transform="translate(0, 900) scale(1,-1)" d="M82 775L82 707L433 707L433 775ZM387 435L387 58L446 58L446 435ZM80 435L80 315C80 223 74 115 33 30C49 23 73 4 84-8C132 87 139 208 139 314L139 435ZM48 575L48 506L225 506L225-80L295-80L295 506L464 506L464 575ZM548 775L548-79L623-79L623 704L838 704C807 623 766 528 721 429C826 332 871 268 872 205C872 169 862 136 838 123C826 117 809 114 791 114C766 112 726 112 689 116C703 95 712 63 714 42C749 40 790 39 820 42C846 45 870 53 888 64C928 89 946 141 946 203C946 272 903 345 802 442C853 548 903 655 943 745L887 779L876 775Z"/><animate attributeName="opacity" values="0;1;1;0;0" dur="2s" repeatCount="indefinite"/></svg></svg>