<svg id="U7972" viewBox="0 0 1000 1000"><svg id="U7972hk" viewBox="0 0 1000 1000"><path transform="translate(0, 900) scale(1,-1)" d="M157 801C192 762 231 707 248 671L307 711C289 747 250 799 212 837ZM417 671L417 614L823 614L823 541L460 541L460 483L894 483L894 614L950 614L950 671L894 671L894 804L467 804L467 747L823 747L823 671ZM414 419L414 261L477 261L477 233L557 233L516 223C543 162 578 109 623 66C551 26 466-1 377-16C391-31 407-60 414-78C511-59 602-28 680 20C747-27 829-60 926-80C936-61 955-33 971-18C881-3 804 24 740 62C804 114 856 181 887 268L887 261L955 261L955 419ZM480 291L480 360L887 360L887 277L845 294L830 291ZM794 233C767 182 729 139 682 104C640 140 607 183 585 233ZM50 668L50 599L298 599C238 473 131 351 29 283C40 269 57 231 63 210C103 239 143 275 182 316L182-79L254-79L254 351C291 310 336 259 357 232L402 292C382 313 308 386 269 421C319 489 361 565 390 643L350 671L336 668Z"/><animate attributeName="opacity" values="1;0;0;0;0;1;1" dur="3s" repeatCount="indefinite"/></svg><svg id="U7972jp" viewBox="0 0 1000 1000"><path transform="translate(0, 900) scale(1,-1)" d="M75 774L75 708L359 708L359 774ZM320 435L320 66L372 66L372 435ZM69 434L69 316C69 226 64 119 34 36C49 29 70 13 81 2C116 96 121 212 121 315L121 434ZM418 670L418 612L820 612L820 536L465 536L465 479L889 479L889 612L962 612L962 670L889 670L889 798L472 798L472 741L820 741L820 670ZM412 419L412 266L477 266L477 230L567 230L507 215C535 152 574 99 623 55C554 18 473-6 388-20C401-36 417-64 423-83C518-64 606-34 682 11C750-33 833-64 930-82C940-63 958-36 974-20C885-6 807 18 742 54C807 107 858 176 889 266L954 266L954 419ZM478 288L478 361L886 361L886 276L849 291L835 288ZM800 230C772 174 732 129 682 93C634 130 596 176 571 230ZM49 573L49 506L188 506L188-79L252-79L252 506L382 506L382 573Z"/><animate attributeName="opacity" values="0;1;1;0;0;0;0" dur="3s" repeatCount="indefinite"/></svg><svg id="U7972sc" viewBox="0 0 1000 1000"><path transform="translate(0, 900) scale(1,-1)" d="M157 801C192 762 231 707 248 671L307 711C289 747 250 799 212 837ZM472 671L472 613L828 613L828 537L442 537L442 480L899 480L899 801L450 801L450 744L828 744L828 671ZM50 668L50 599L314 599C249 474 134 354 24 288C35 274 51 236 57 215C103 245 151 284 196 329L196-79L269-79L269 353C307 310 353 256 374 227L414 280L414 261L480 261L480 360L887 360L887 277L845 294L830 291L482 291L482 233L578 233L520 219C546 159 581 108 625 65C553 25 467-2 377-17C391-33 407-62 414-80C512-60 603-29 681 19C747-28 829-60 925-80C935-61 954-33 969-18C880-3 803 23 741 62C805 114 856 181 887 268L887 261L955 261L955 419L414 419L414 296C388 324 319 393 282 427C334 493 378 566 408 642L367 671L354 668ZM794 233C767 182 729 139 683 104C642 140 609 183 587 233Z"/><animate attributeName="opacity" values="0;0;0;1;1;0;0" dur="3s" repeatCount="indefinite"/></svg></svg>