<svg id="U7975" viewBox="0 0 1000 1000"><path transform="translate(0, 900) scale(1,-1)" d="M118 801C148 761 179 706 192 671L244 710C230 746 198 798 167 836ZM624 687L624 547L464 547L464 490L608 490C569 390 502 284 438 230C453 220 471 200 482 187C532 235 585 317 624 403L624 75L686 75L686 394C729 334 786 248 806 210L848 259C825 292 724 422 686 465L686 490L830 490L830 547L686 547L686 687ZM368 789L368-81L435-81L435-30L855-30L855-81L925-81L925 789ZM435 36L435 725L855 725L855 36ZM50 668L50 599L256 599C205 476 118 356 32 288C42 274 58 236 63 215C97 244 131 281 164 323L164-79L227-79L227 345C257 302 290 252 307 224L348 286C332 309 268 391 236 427C277 494 312 568 336 644L301 671L288 668Z"/></svg>