<svg id="U7A78" viewBox="0 0 1000 1000"><svg id="U7A78hk" viewBox="0 0 1000 1000"><path transform="translate(0, 900) scale(1,-1)" d="M395 491C326 373 199 272 68 212C84 199 112 171 124 156C169 180 215 209 259 242C321 197 391 138 436 93C334 45 218 14 103-2C116-19 132-49 138-69C423-20 707 103 823 364L772 392L757 389L411 389C431 413 449 439 464 465ZM311 285L351 322L713 322C664 242 591 179 505 129C457 176 377 238 311 285ZM445 826C456 801 467 770 476 742L77 742L77 572L152 572L152 676L357 676C334 576 272 522 72 495C86 481 104 451 110 434C336 470 409 543 436 676L572 676L572 558C572 488 591 462 670 462C689 462 807 462 833 462C864 462 896 463 912 467C910 485 908 511 906 530C889 526 851 525 829 525C806 525 698 525 676 525C651 525 648 533 648 557L648 676L853 676L853 581L931 581L931 742L567 742C555 772 538 813 524 843Z"/><animate attributeName="opacity" values="1;0;0;0;0;1;1" dur="3s" repeatCount="indefinite"/></svg><svg id="U7A78jp" viewBox="0 0 1000 1000"><path transform="translate(0, 900) scale(1,-1)" d="M455 468C379 350 232 261 77 210C93 197 119 168 129 154C178 173 228 196 275 223C346 187 426 135 476 94C358 36 220 1 85-15C97-32 112-62 118-81C407-37 702 77 823 328L774 357L760 353L448 353C476 382 502 413 523 446ZM334 260L377 291L716 291C674 227 614 174 543 130C492 173 407 224 334 260ZM73 736L73 563L148 563L148 668L338 668C315 552 258 478 58 440C73 426 92 397 98 379C321 427 391 519 418 668L562 668L562 520C562 452 583 434 670 434C687 434 792 434 809 434C873 434 893 456 900 541C881 545 852 555 837 566C834 503 828 493 801 493C779 493 694 493 679 493C642 493 636 497 636 520L636 668L850 668L850 579L927 579L927 736L538 736L538 841L461 841L461 736Z"/><animate attributeName="opacity" values="0;1;1;0;0;0;0" dur="3s" repeatCount="indefinite"/></svg><svg id="U7A78sc" viewBox="0 0 1000 1000"><path transform="translate(0, 900) scale(1,-1)" d="M367 636C291 577 188 520 105 486L155 428C244 468 349 535 429 602ZM571 583C666 540 789 472 849 426L895 486C832 531 708 594 614 635ZM321 251C375 213 438 161 483 118C371 51 240 8 108-14C121-30 137-61 144-81C434-24 715 116 828 406L777 434L763 430L424 430C444 458 462 487 477 518L404 539C339 408 215 305 75 243C92 230 120 201 131 185C217 229 300 289 369 363L723 363C681 282 619 215 545 160C499 202 433 253 379 290ZM77 735L77 546L153 546L153 667L845 667L845 552L924 552L924 735L554 735C539 769 517 812 497 845L419 823C435 797 451 764 463 735Z"/><animate attributeName="opacity" values="0;0;0;1;1;0;0" dur="3s" repeatCount="indefinite"/></svg></svg>