<svg id="U7ACD" viewBox="0 0 1000 1000"><svg id="U7ACDjp" viewBox="0 0 1000 1000"><path transform="translate(0, 900) scale(1,-1)" d="M97 520C118 404 135 254 136 155L202 166C200 267 183 415 159 531ZM220 827L220 647L56 647L56 577L451 577L451 647L291 647L291 827ZM332 539C320 418 293 243 268 138C181 119 101 102 39 90L54 15C168 41 325 77 473 112L466 182L334 152C360 256 386 407 405 524ZM658 835L658 495L438 495L438 421L658 421L658-77L736-77L736 421L960 421L960 495L736 495L736 835Z"/><animate attributeName="opacity" values="1;0;0;1;1" dur="2s" repeatCount="indefinite"/></svg><svg id="U7ACDsc" viewBox="0 0 1000 1000"><path transform="translate(0, 900) scale(1,-1)" d="M73 652L73 582L459 582L459 652ZM117 524C141 411 160 263 163 165L224 177C219 276 198 421 173 536ZM187 810C210 766 237 705 249 667L313 691C300 729 274 787 249 831ZM350 543C340 425 316 255 294 147C208 126 128 107 67 95L84 20C193 48 342 87 482 124L475 193L354 162C376 267 400 415 417 530ZM663 822L663 494L465 494L465 420L663 420L663-80L741-80L741 420L955 420L955 494L741 494L741 822Z"/><animate attributeName="opacity" values="0;1;1;0;0" dur="2s" repeatCount="indefinite"/></svg></svg>