<svg id="U7AD8" viewBox="0 0 1000 1000"><path transform="translate(0, 900) scale(1,-1)" d="M51 652L51 582L391 582L391 652ZM83 524C108 411 127 263 131 165L193 177C188 276 168 421 143 536ZM154 810C176 766 204 705 215 667L282 691C269 729 243 787 218 831ZM563 840C529 705 471 572 397 487C415 477 445 453 457 440C494 486 529 544 559 609L864 609C854 194 842 40 815 7C805-7 795-10 780-9C761-9 718-9 669-5C682-26 690-57 691-78C735-80 780-81 809-77C839-74 859-66 878-38C912 9 923 163 934 639C935 649 935 678 935 678L588 678C606 725 622 774 635 824ZM564 416L705 416L705 228L564 228ZM501 480L501 104L564 104L564 164L769 164L769 480ZM292 543C281 421 257 245 233 138C162 121 97 105 46 95L63 20C158 44 285 77 406 109L398 179L295 153C319 259 343 412 361 530Z"/></svg>