<svg id="U7A39" viewBox="0 0 1000 1000"><svg id="U7A39hk" viewBox="0 0 1000 1000"><path transform="translate(0, 900) scale(1,-1)" d="M707 62C775 20 860-42 902-81L955-32C911 8 825 66 758 105ZM620 840L620 749L390 749L390 687L620 687L620 619L439 619L439 174L353 174L353 108L965 108L965 174L878 174L878 619L693 619L693 687L944 687L944 749L693 749L693 840ZM506 174L506 240L808 240L808 174ZM549 108C502 63 410 7 336-27C352-41 373-64 384-78C457-43 551 13 612 65ZM506 456L808 456L808 396L506 396ZM506 502L506 565L808 565L808 502ZM506 350L808 350L808 288L506 288ZM330 832C263 800 148 771 49 753C58 736 68 710 72 694C109 700 148 707 187 715L187 553L47 553L47 483L171 483C139 370 81 239 27 167C40 148 59 117 67 95C110 157 154 256 187 356L187-80L256-80L256 377C287 330 324 271 338 239L385 302C367 327 284 429 256 459L256 483L383 483L383 553L256 553L256 732C301 743 343 757 378 772Z"/><animate attributeName="opacity" values="1;0;0;0;0;1;1" dur="3s" repeatCount="indefinite"/></svg><svg id="U7A39jp" viewBox="0 0 1000 1000"><path transform="translate(0, 900) scale(1,-1)" d="M726 42C794 7 880-47 923-81L970-32C924 2 837 52 771 86ZM603 411L836 411L836 353L603 353ZM603 308L836 308L836 249L603 249ZM603 513L836 513L836 456L603 456ZM534 562L534 200L906 200L906 562ZM392 534L392 87L962 87L962 147L460 147L460 534ZM556 85C510 45 414-1 337-27C350-42 369-66 379-80C459-52 556-5 619 42ZM852 814C775 792 642 774 520 762L520 830L453 830L453 690C453 622 483 606 595 606C619 606 816 606 842 606C922 606 945 625 953 708C935 711 909 719 894 729C889 670 881 660 836 660C794 660 628 660 597 660C531 660 520 666 520 691L520 712C652 721 802 740 903 767ZM320 821C257 789 142 762 41 746C50 730 60 707 63 691C103 697 146 704 188 713L188 553L45 553L45 484L177 484C144 371 85 239 30 166C42 148 60 119 68 98C111 158 154 254 188 351L188-80L259-80L259 371C289 331 323 280 337 253L379 309C362 331 287 417 259 446L259 484L369 484L369 553L259 553L259 729C302 740 342 753 376 768Z"/><animate attributeName="opacity" values="0;1;1;0;0;0;0" dur="3s" repeatCount="indefinite"/></svg><svg id="U7A39sc" viewBox="0 0 1000 1000"><path transform="translate(0, 900) scale(1,-1)" d="M711 60C778 20 862-40 904-79L954-27C911 12 825 69 759 106ZM625 840L612 749L386 749L386 687L601 687L587 619L437 619L437 174L352 174L352 108L963 108L963 174L877 174L877 619L654 619L672 687L943 687L943 749L686 749L705 835ZM504 174L504 240L808 240L808 174ZM547 108C502 63 412 7 340-26C355-41 376-64 387-78C459-43 551 14 611 65ZM504 456L808 456L808 396L504 396ZM504 502L504 565L808 565L808 502ZM504 350L808 350L808 288L504 288ZM330 832C263 800 148 771 49 753C58 736 68 710 72 694C109 700 148 707 187 715L187 553L47 553L47 483L171 483C139 370 81 239 27 167C40 148 59 117 67 95C110 157 154 256 187 356L187-80L256-80L256 377C287 330 324 271 338 239L384 302C367 327 284 429 256 459L256 483L383 483L383 553L256 553L256 732C301 743 343 757 378 772Z"/><animate attributeName="opacity" values="0;0;0;1;1;0;0" dur="3s" repeatCount="indefinite"/></svg></svg>