<svg id="U7A9F" viewBox="0 0 1000 1000"><svg id="U7A9Fhk" viewBox="0 0 1000 1000"><path transform="translate(0, 900) scale(1,-1)" d="M273 280L273 141L528 141L528 14L309 14L309 103L240 103L240-43L813-43L813-78L885-78L885 103L813 103L813 14L600 14L600 141L853 141L853 280L782 280L782 197L600 197L600 296L528 296L528 197L342 197L342 280ZM150 516L150 363C150 251 137 96 38-17C54-26 84-50 96-64C190 45 216 199 220 320L855 320L855 516ZM221 460L780 460L780 376L221 376ZM439 828C447 809 455 787 462 766L63 766L63 634L136 634L136 709L361 709C334 639 264 609 79 592C93 578 111 549 117 531C325 558 408 606 441 709L577 709L577 643C577 581 592 555 666 555C686 555 806 555 833 555C864 555 898 555 914 560C911 578 910 599 907 619C891 614 851 612 828 612C805 612 701 612 679 612C654 612 651 620 651 642L651 709L866 709L866 634L941 634L941 766L546 766C538 789 527 818 516 840Z"/><animate attributeName="opacity" values="1;0;0;0;0;1;1" dur="3s" repeatCount="indefinite"/></svg><svg id="U7A9Fjp" viewBox="0 0 1000 1000"><path transform="translate(0, 900) scale(1,-1)" d="M282 285L282 141L531 141L531 18L316 18L316 107L247 107L247-74L316-74L316-39L822-39L822-73L894-73L894 107L822 107L822 18L603 18L603 141L862 141L862 285L791 285L791 197L603 197L603 311L881 311L881 508L152 508L152 341C152 231 139 82 36-26C52-35 81-61 93-74C195 33 219 190 223 311L531 311L531 197L351 197L351 285ZM223 451L806 451L806 367L223 367ZM63 767L63 621L135 621L135 706L341 706C318 626 257 582 80 561C93 548 110 523 115 507C316 536 390 594 418 706L551 706L551 621C551 558 571 543 656 543C673 543 774 543 793 543C851 543 872 562 878 630L944 630L944 767L538 767L538 841L461 841L461 767ZM869 640C852 644 830 651 817 659C814 606 809 598 783 598C762 598 680 598 665 598C630 598 624 601 624 621L624 706L869 706Z"/><animate attributeName="opacity" values="0;1;1;0;0;0;0" dur="3s" repeatCount="indefinite"/></svg><svg id="U7A9Fsc" viewBox="0 0 1000 1000"><path transform="translate(0, 900) scale(1,-1)" d="M566 628C676 598 819 546 893 508L926 567C850 605 706 653 599 680ZM240 103L240-43L813-43L813-78L885-78L885 103L813 103L813 13L598 13L598 141L853 141L853 280L782 280L782 197L598 197L598 301L526 301L526 197L342 197L342 280L273 280L273 141L526 141L526 13L311 13L311 103ZM392 670C301 626 181 593 86 574L121 512L150 519L150 370C150 258 137 100 38-14C54-23 84-47 96-61C189 47 215 202 220 323L855 323L855 524L168 524C261 550 362 587 446 630ZM221 468L780 468L780 379L221 379ZM436 829C448 807 461 781 471 757L77 757L77 607L152 607L152 695L846 695L846 611L924 611L924 757L555 757C543 784 526 820 509 847Z"/><animate attributeName="opacity" values="0;0;0;1;1;0;0" dur="3s" repeatCount="indefinite"/></svg></svg>