<svg id="U7A5C" viewBox="0 0 1000 1000"><svg id="U7A5Chk" viewBox="0 0 1000 1000"><path transform="translate(0, 900) scale(1,-1)" d="M597 826C611 804 624 777 632 753L385 753L385 693L941 693L941 753L707 753C698 781 681 817 661 844ZM772 691C761 663 742 622 725 590L576 590L581 591C575 618 557 660 538 692L475 680C490 652 504 616 512 590L359 590L359 528L968 528L968 590L796 590C812 616 829 647 845 677ZM479 317L623 317L623 250L479 250ZM689 317L842 317L842 250L689 250ZM479 428L623 428L623 362L479 362ZM689 428L842 428L842 362L689 362ZM329 6L329-54L969-54L969 6L692 6L692 81L929 81L929 140L692 140L692 201L909 201L909 477L414 477L414 201L620 201L620 140L392 140L392 81L620 81L620 6ZM318 832C253 800 139 771 43 752C51 735 60 710 63 693C101 699 143 707 184 716L184 553L31 553L31 483L167 483C134 369 74 239 20 167C31 148 48 116 55 94C101 160 148 266 184 373L184-81L251-81L251 370C277 325 307 271 320 241L361 302C346 328 274 425 251 453L251 483L353 483L353 553L251 553L251 733C291 744 329 757 361 771Z"/><animate attributeName="opacity" values="1;0;0;1;1" dur="2s" repeatCount="indefinite"/></svg><svg id="U7A5Cjp" viewBox="0 0 1000 1000"><path transform="translate(0, 900) scale(1,-1)" d="M435 478L435 200L640 200L640 141L418 141L418 82L640 82L640 4L372 4L372-56L968-56L968 4L710 4L710 82L938 82L938 141L710 141L710 200L923 200L923 478ZM504 317L640 317L640 247L504 247ZM710 317L850 317L850 247L710 247ZM504 430L640 430L640 363L504 363ZM710 430L850 430L850 363L710 363ZM330 818C264 786 144 758 40 739C48 725 58 700 62 684C103 690 147 698 191 707L191 551L45 551L45 482L180 482C146 368 88 237 33 164C45 146 63 117 71 96C114 156 157 252 191 349L191-82L262-82L262 360C294 319 332 267 348 240L392 297C373 320 289 408 262 432L262 482L377 482L377 521L966 521L966 583L809 583C823 613 840 657 857 697L940 697L940 756L711 756L711 840L638 840L638 756L419 756L419 697L552 697L507 687C519 655 531 613 536 583L376 583L376 551L262 551L262 724C308 736 351 750 387 765ZM578 583L603 590C599 618 586 663 572 697L778 697C770 663 756 619 745 589L771 583Z"/><animate attributeName="opacity" values="0;1;1;0;0" dur="2s" repeatCount="indefinite"/></svg></svg>