<svg id="U7A68" viewBox="0 0 1000 1000"><svg id="U7A68hk" viewBox="0 0 1000 1000"><path transform="translate(0, 900) scale(1,-1)" d="M143 330L143 242C143 159 124 49 30-34C45-42 73-64 85-76C186 14 209 144 209 241L209 330ZM561 299L850 299L850 242L561 242ZM561 195L850 195L850 137L561 137ZM561 401L850 401L850 345L561 345ZM492 449L492 88L921 88L921 449ZM744 41C806 4 876-47 915-83L969-37C926-2 854 46 788 84ZM589 81C544 38 467-5 400-34C415-46 442-71 454-84C520-51 604 5 656 56ZM390 827C316 800 175 782 60 773C68 757 77 733 80 717C126 720 176 725 226 731L226 649L52 649L52 587L210 587C162 520 89 453 23 418C34 401 47 374 53 355C114 391 177 454 226 522L226 361L294 361L294 514C341 475 401 421 425 394L467 451C441 472 336 550 294 578L294 587L455 587L455 649L294 649L294 741C350 750 402 761 443 776ZM668 839L668 772L488 772L488 606L668 606L668 554L441 554L441 499L959 499L959 554L736 554L736 606L921 606L921 772L736 772L736 839ZM552 723L668 723L668 654L552 654ZM736 723L855 723L855 654L736 654ZM300-8C312 5 335 19 467 92C462 107 456 134 454 153L372 113L372 332L306 332L306 119C306 78 285 58 269 49C280 37 295 9 300-8Z"/><animate attributeName="opacity" values="1;0;0;1;1" dur="2s" repeatCount="indefinite"/></svg><svg id="U7A68sc" viewBox="0 0 1000 1000"><path transform="translate(0, 900) scale(1,-1)" d="M561 299L850 299L850 242L561 242ZM561 195L850 195L850 137L561 137ZM561 401L850 401L850 345L561 345ZM492 449L492 88L921 88L921 449ZM744 41C806 4 876-47 915-83L969-37C926-2 854 46 788 84ZM590 77C546 34 466-6 392-33C408-44 434-70 446-83C519-52 606 0 658 54ZM390 827C316 800 175 782 60 773C68 757 77 733 80 717C126 720 176 725 226 731L226 649L52 649L52 587L210 587C162 520 89 453 23 418C34 401 47 374 53 355C114 391 177 454 226 522L226 361L294 361L294 514C341 475 401 421 425 394L467 451C441 472 336 550 294 578L294 587L455 587L455 649L294 649L294 741C350 750 402 761 443 776ZM307-8C318 5 340 19 462 86C458 101 452 128 450 147L379 113L379 330L134 330L134 242C134 161 119 50 36-34C52-42 80-64 92-76C180 15 201 146 201 241L201 268L311 268L311 130C311 90 291 69 275 61C287 44 301 10 307-8ZM668 839L668 772L488 772L488 606L668 606L668 554L441 554L441 499L959 499L959 554L736 554L736 606L921 606L921 772L736 772L736 839ZM552 723L668 723L668 654L552 654ZM736 723L855 723L855 654L736 654Z"/><animate attributeName="opacity" values="0;1;1;0;0" dur="2s" repeatCount="indefinite"/></svg></svg>