<svg id="U7BAC" viewBox="0 0 1000 1000"><svg id="U7BAChk" viewBox="0 0 1000 1000"><path transform="translate(0, 900) scale(1,-1)" d="M397 454C385 424 371 395 355 368L52 368L52 306L314 306C244 212 148 139 38 90C54 76 81 45 91 30C150 60 205 97 256 140L256-80L330-80L330-42L778-42L778-78L855-78L855 214L332 214C358 243 381 273 403 306L949 306L949 368L439 368C450 390 461 412 470 435ZM330 20L330 152L778 152L778 20ZM262 592L262 543L60 543L60 481L262 481L262 418L336 418L336 481L476 481L476 543L336 543L336 592ZM520 543L520 481L667 481L667 418L741 418L741 481L945 481L945 543L741 543L741 591L667 591L667 543ZM260 686C286 658 320 618 334 594L392 625C377 648 345 683 319 710L493 710L493 769L235 769C245 788 255 808 263 828L196 848C162 766 105 686 42 633C58 621 84 595 95 582C131 616 168 661 200 710L307 710ZM697 683C722 654 751 614 764 589L824 620C810 645 781 681 756 709L959 709L959 768L657 768C667 789 675 810 682 831L612 847C585 761 535 679 475 625C492 615 521 592 533 580C567 614 600 659 628 709L753 709Z"/><animate attributeName="opacity" values="1;0;0;1;1" dur="2s" repeatCount="indefinite"/></svg><svg id="U7BACjp" viewBox="0 0 1000 1000"><path transform="translate(0, 900) scale(1,-1)" d="M632 606L632 543L376 543L376 606L312 606L338 615C330 636 314 665 298 692L486 692L486 752L222 752C235 777 246 802 256 827L186 845C153 757 98 669 36 611C53 601 83 581 97 570C128 603 160 645 189 692L223 692C242 658 262 618 271 592L303 603L303 543L70 543L70 481L303 481L303 413L376 413L376 481L632 481L632 413L706 413L706 481L936 481L936 543L706 543L706 606ZM581 845C549 757 489 674 420 620C438 610 468 589 481 577C516 608 550 648 581 692L655 692C686 656 717 613 732 584L800 611C787 633 764 664 740 692L945 692L945 752L617 752C630 776 642 801 652 827ZM397 454C385 424 371 396 356 369L52 369L52 306L314 306C244 212 148 140 38 91C54 77 81 46 91 30C150 60 205 97 256 140L256-80L330-80L330-41L778-41L778-78L855-78L855 214L332 214C357 243 381 273 403 306L949 306L949 369L439 369C451 390 461 412 470 435ZM330 21L330 152L778 152L778 21Z"/><animate attributeName="opacity" values="0;1;1;0;0" dur="2s" repeatCount="indefinite"/></svg></svg>