<svg id="U7B2C" viewBox="0 0 1000 1000"><svg id="U7B2Chk" viewBox="0 0 1000 1000"><path transform="translate(0, 900) scale(1,-1)" d="M168 401C160 329 145 240 131 180L398 180C315 93 188 17 70-22C87-36 108-63 119-81C238-34 369 51 457 151L457-80L531-80L531 180L821 180C811 89 800 50 786 36C778 29 768 28 750 28C732 27 685 28 636 33C647 14 656-15 657-36C709-39 758-39 783-37C812-35 830-29 847-12C873 13 886 74 900 214C901 224 902 244 902 244L531 244L531 337L868 337L868 558L131 558L131 494L457 494L457 401ZM231 337L457 337L457 244L217 244ZM531 494L795 494L795 401L531 401ZM248 678C282 647 325 603 345 575L395 617C375 642 337 679 304 708L494 708L494 768L235 768C245 788 255 809 263 829L196 848C163 764 107 683 45 628C61 616 87 590 99 577C134 612 170 658 201 708L285 708ZM685 672C721 643 766 601 788 573L838 618C816 643 774 680 739 708L956 708L956 768L650 768C660 788 669 809 677 830L608 847C583 775 537 706 482 660C499 650 527 627 539 615C566 640 592 672 615 708L729 708Z"/><animate attributeName="opacity" values="1;0;0;0;0;1;1" dur="3s" repeatCount="indefinite"/></svg><svg id="U7B2Cjp" viewBox="0 0 1000 1000"><path transform="translate(0, 900) scale(1,-1)" d="M177 401C162 322 137 222 116 157L190 146L200 181L398 181C307 100 167 31 43-4C59-18 81-45 92-64C221-21 366 61 463 157L463-80L536-80L536 181L838 181C828 90 817 51 803 37C794 30 785 29 767 29C749 28 702 29 653 34C665 15 673-14 674-35C726-38 775-38 800-36C828-34 847-28 864-11C889 14 903 75 917 215C918 225 919 245 919 245L536 245L536 338L861 338L861 566L129 566L129 502L463 502L463 401ZM238 338L463 338L463 245L216 245ZM536 502L787 502L787 401L536 401ZM184 845C151 756 96 667 33 609C51 599 81 579 95 568C128 601 160 645 189 693L226 693C247 653 266 606 273 574L339 600C332 624 317 660 301 693L486 693L486 753L222 753C234 777 244 801 254 826ZM578 845C545 755 485 671 414 616C432 607 463 585 476 573C513 605 548 647 579 693L650 693C680 653 710 605 722 572L788 598C777 625 754 661 730 693L953 693L953 753L615 753C628 777 639 802 649 827Z"/><animate attributeName="opacity" values="0;1;1;0;0;0;0" dur="3s" repeatCount="indefinite"/></svg><svg id="U7B2Csc" viewBox="0 0 1000 1000"><path transform="translate(0, 900) scale(1,-1)" d="M168 401C160 329 145 240 131 180L398 180C315 93 188 17 70-22C87-36 108-63 119-81C238-34 369 51 457 151L457-80L531-80L531 180L821 180C811 89 800 50 786 36C778 29 768 28 750 28C732 27 685 28 636 33C647 14 656-15 657-36C709-39 758-39 783-37C812-35 830-29 847-12C873 13 886 74 900 214C901 224 902 244 902 244L531 244L531 337L868 337L868 558L131 558L131 494L457 494L457 401ZM231 337L457 337L457 244L217 244ZM531 494L795 494L795 401L531 401ZM212 845C177 749 117 658 46 598C65 589 95 572 109 561C147 597 184 643 216 696L271 696C292 656 312 607 321 575L387 599C380 624 364 662 346 696L507 696L507 754L249 754C261 778 272 803 281 828ZM598 845C572 753 525 665 464 607C483 598 515 579 530 568C561 602 591 646 617 696L685 696C718 657 749 607 763 574L828 602C816 628 793 664 767 696L947 696L947 754L644 754C654 778 663 803 670 828Z"/><animate attributeName="opacity" values="0;0;0;1;1;0;0" dur="3s" repeatCount="indefinite"/></svg></svg>