<svg id="U7BE1" viewBox="0 0 1000 1000"><svg id="U7BE1hk" viewBox="0 0 1000 1000"><path transform="translate(0, 900) scale(1,-1)" d="M253 487L762 487L762 435L253 435ZM253 395L762 395L762 342L253 342ZM253 577L762 577L762 526L253 526ZM47 246L47 191L285 191C225 139 144 92 40 58C55 46 74 22 82 6C213 53 310 118 378 191L610 191C683 114 802 47 912 15C922 33 943 59 959 73C867 95 769 138 699 191L955 191L955 246L423 246C435 263 446 280 456 297L836 297L836 622L181 622L181 297L376 297C366 280 354 263 340 246ZM292 701C307 677 323 643 330 622L394 649C387 669 371 698 356 721L492 721L492 775L248 775C257 793 266 811 274 830L206 849C176 774 121 702 60 655C75 643 102 618 113 606C149 636 184 676 215 721L343 721ZM718 702C736 677 756 644 765 622L828 652C819 671 800 700 783 723L945 723L945 778L643 778C651 796 658 814 664 832L593 849C572 781 534 716 485 673C503 663 534 643 547 631C571 656 595 687 615 723L765 723ZM233-79C260-69 300-65 700-35C721-54 740-73 753-88L807-52C763-4 676 66 606 114L555 82C584 62 615 38 645 13L334-8C396 34 460 87 517 143L457 172C395 101 305 33 278 14C253-4 232-15 214-18C221-35 231-66 233-79Z"/><animate attributeName="opacity" values="1;0;0;0;0;1;1" dur="3s" repeatCount="indefinite"/></svg><svg id="U7BE1kr" viewBox="0 0 1000 1000"><path transform="translate(0, 900) scale(1,-1)" d="M253 509L762 509L762 459L253 459ZM253 421L762 421L762 370L253 370ZM253 595L762 595L762 547L253 547ZM584 845C563 799 530 756 491 719L491 773L230 773C240 791 249 809 257 827L187 845C157 773 104 700 45 652C63 642 93 623 106 611C137 640 168 676 195 717L233 717C252 692 270 662 280 640L181 640L181 326L347 326C338 311 328 297 316 282L47 282L47 225L260 225C205 178 132 135 39 103C55 92 75 66 83 49C203 95 292 156 356 225L617 225C689 142 806 69 915 32C926 50 946 76 962 90C868 116 768 166 700 225L955 225L955 282L401 282C411 296 420 311 428 326L836 326L836 640L732 640L781 658C772 675 756 696 739 717L939 717L939 773L626 773C638 791 648 809 657 827ZM470 640L290 640L347 659C340 675 327 697 312 717L489 717C469 698 447 681 424 666C436 660 455 650 470 640ZM506 640C533 662 560 688 584 717L652 717C675 693 696 663 709 640ZM564 91C594 72 626 48 657 24L381 10C420 64 463 132 498 192L430 213C400 151 349 65 305 6L178 1L185-61L715-24C738-45 758-64 772-81L830-45C785 7 693 77 618 124Z"/><animate attributeName="opacity" values="0;1;1;0;0;0;0" dur="3s" repeatCount="indefinite"/></svg><svg id="U7BE1sc" viewBox="0 0 1000 1000"><path transform="translate(0, 900) scale(1,-1)" d="M253 509L762 509L762 459L253 459ZM253 421L762 421L762 370L253 370ZM253 595L762 595L762 547L253 547ZM593 849C572 783 534 721 486 679C503 670 530 652 543 640L330 640L383 662C377 678 365 700 353 721L492 721L492 775L247 775C257 793 266 811 274 830L206 849C176 776 121 707 61 662C76 650 102 624 114 612C148 641 183 679 213 721L276 721C292 695 309 662 316 640L181 640L181 326L362 326C353 310 342 293 329 277L47 277L47 221L276 221C218 169 140 123 41 89C57 76 76 51 85 34C211 83 304 148 370 221L610 221C683 144 802 77 912 45C922 63 943 89 959 103C867 126 769 169 699 221L955 221L955 277L414 277C425 293 435 309 443 326L836 326L836 640L741 640L796 666C789 681 776 702 762 723L945 723L945 778L642 778C651 796 658 814 664 832ZM550 640C572 663 594 691 613 723L683 723C701 695 721 662 730 640ZM233-58C261-47 302-43 698-13C723-37 745-60 760-79L818-45C775 5 689 78 620 129L567 99C590 81 615 61 640 39L339 19C402 62 465 115 521 172L463 210C400 135 307 61 279 43C253 23 232 10 213 7C221-11 230-43 233-58Z"/><animate attributeName="opacity" values="0;0;0;1;1;0;0" dur="3s" repeatCount="indefinite"/></svg></svg>