<svg id="U7B43" viewBox="0 0 1000 1000"><svg id="U7B43hk" viewBox="0 0 1000 1000"><path transform="translate(0, 900) scale(1,-1)" d="M460 484L460 386L460 378L245 378L245 315L454 315C438 240 388 160 234 97C248 84 265 59 274 44C419 104 483 182 510 260C590 194 677 113 723 59L767 111C718 166 624 250 541 315L756 315L756 378L528 378L528 384L528 484ZM125 572L125-80L196-80L196-41L804-41L804-80L879-80L879 572ZM196 24L196 508L804 508L804 24ZM243 659C292 638 357 605 391 582L421 633C389 654 331 682 283 701L489 701L489 763L233 763C244 783 253 803 261 824L191 844C156 756 98 670 33 613C49 601 78 575 90 563C128 599 166 648 199 701L270 701ZM686 662C736 638 803 602 836 578L868 629C838 648 779 678 732 700L951 700L951 762L658 762C668 784 677 806 684 828L611 844C587 762 540 684 483 633C501 623 532 602 545 590C574 619 602 657 627 700L714 700Z"/><animate attributeName="opacity" values="1;0;0;1;1" dur="2s" repeatCount="indefinite"/></svg><svg id="U7B43sc" viewBox="0 0 1000 1000"><path transform="translate(0, 900) scale(1,-1)" d="M183 844C151 756 96 668 33 611C51 601 82 581 95 570C127 602 158 644 186 690L247 690C268 655 288 614 296 586L363 607C356 629 339 661 322 690L487 690L487 754L221 754C233 777 244 801 253 825ZM576 844C556 789 525 735 487 690C466 665 443 643 419 624C438 615 469 597 485 586C516 614 548 650 576 690L667 690C695 656 722 615 734 587L801 609C791 632 771 662 748 690L936 690L936 754L615 754C627 777 639 802 648 826ZM460 484L460 378L245 378L245 317L457 317C447 240 403 160 234 100C247 87 265 62 273 47C422 101 485 173 511 248C588 181 668 103 711 49L760 99C711 157 611 247 526 317L756 317L756 378L528 378L528 484ZM125 572L125-80L196-80L196-41L804-41L804-80L879-80L879 572ZM196 24L196 508L804 508L804 24Z"/><animate attributeName="opacity" values="0;1;1;0;0" dur="2s" repeatCount="indefinite"/></svg></svg>