<svg id="U7B60" viewBox="0 0 1000 1000"><svg id="U7B60hk" viewBox="0 0 1000 1000"><path transform="translate(0, 900) scale(1,-1)" d="M495 322L495 263L745 263L745 322ZM450 169L450 110L771 110L771 169ZM689 651C723 618 765 572 785 543L836 586C815 615 773 659 738 690ZM612 847C585 761 535 679 475 625C485 619 498 609 510 600L505 601C470 497 411 395 344 328C361 318 391 297 404 286C440 326 476 378 508 436L851 436C837 145 821 31 794 3C784-8 772-10 753-10C731-10 675-10 615-4C629-24 637-55 639-77C696-80 752-81 782-78C817-75 838-68 859-42C895-2 911 122 928 464C928 475 929 501 929 501L540 501C553 528 564 556 574 584L544 591C570 619 595 653 617 691L960 691L960 756L652 756C663 780 673 805 682 831ZM40 71L58 1C152 30 276 70 393 108L384 172L258 134L258 357L370 357L370 425L258 425L258 576L187 576L187 425L55 425L55 357L187 357L187 113ZM196 848C162 766 105 686 42 633C58 621 84 595 95 582C127 612 159 650 188 692L501 692L501 757L228 757C241 780 253 804 263 828ZM252 654C288 622 333 577 356 549L405 592C382 620 335 662 298 692Z"/><animate attributeName="opacity" values="1;0;0;0;0;1;1" dur="3s" repeatCount="indefinite"/></svg><svg id="U7B60jp" viewBox="0 0 1000 1000"><path transform="translate(0, 900) scale(1,-1)" d="M452 337L452 276L717 276L717 337ZM395 120L415 55C503 75 623 104 734 131L729 193C605 165 478 137 395 120ZM578 845C545 755 485 671 414 616C432 607 463 585 476 573L490 586C463 506 422 428 375 367L375 425L258 425L258 576L187 576L187 425L55 425L55 357L187 357L187 113L40 71L58 1C152 30 276 70 393 108L384 172L258 134L258 357L367 357L341 328C359 318 389 297 402 286C437 326 471 378 501 436L846 436C832 145 816 31 789 3C779-8 767-10 748-10C726-10 670-10 610-4C623-24 632-55 633-77C690-80 747-81 777-78C812-75 833-68 854-42C890-2 906 122 922 464C923 475 924 501 924 501L532 501C544 528 555 556 564 584L503 599C529 626 554 656 577 690L648 690C680 648 711 598 724 563L790 590C778 618 754 656 728 690L950 690L950 752L615 752C628 776 639 801 649 827ZM184 845C152 756 98 667 36 608C54 599 84 579 98 568C129 601 160 643 188 690L229 690C256 648 281 598 293 564L357 589C347 616 326 655 304 690L486 690L486 752L222 752C234 777 245 802 254 827Z"/><animate attributeName="opacity" values="0;1;1;0;0;0;0" dur="3s" repeatCount="indefinite"/></svg><svg id="U7B60sc" viewBox="0 0 1000 1000"><path transform="translate(0, 900) scale(1,-1)" d="M506 342C552 300 611 240 641 204L693 245C663 280 604 335 555 376ZM424 83L444 17C539 53 662 103 779 152L768 208C642 160 511 111 424 83ZM593 845C569 763 523 682 466 630C483 622 511 605 526 595C490 491 426 389 355 323C373 313 402 291 415 279C455 321 494 375 529 436L846 436C832 145 816 31 789 3C778-8 766-10 747-10C725-10 670-10 610-4C623-24 631-55 633-77C690-79 746-80 776-77C811-74 832-68 853-42C888-2 905 122 922 465C922 476 923 501 923 501L563 501C575 526 586 552 596 578L531 595C557 622 582 655 604 692L685 692C713 654 743 607 759 577L824 604C811 626 787 660 764 692L942 692L942 752L635 752C647 777 658 804 666 830ZM40 71L58 1C153 30 278 70 396 108L387 173L256 133L256 357L376 357L376 425L256 425L256 576L184 576L184 425L50 425L50 357L184 357L184 112ZM205 845C172 749 114 657 44 597C62 589 93 571 107 560C145 595 181 641 212 692L260 692C279 652 300 606 311 575L377 599C367 623 350 659 333 692L490 692L490 752L245 752C257 777 268 803 278 830Z"/><animate attributeName="opacity" values="0;0;0;1;1;0;0" dur="3s" repeatCount="indefinite"/></svg></svg>