<svg id="U7BEB" viewBox="0 0 1000 1000"><svg id="U7BEBhk" viewBox="0 0 1000 1000"><path transform="translate(0, 900) scale(1,-1)" d="M54 382L63 324C162 338 297 358 428 378L426 433L293 414L293 538L423 538L423 591L93 591L93 538L224 538L224 404ZM672 691C713 662 763 623 787 597L458 597L458 545L567 545L567 480L474 506L453 463L567 428L567 332L632 332L632 407C671 393 707 380 733 369L753 419C722 431 679 446 632 460L632 545L761 545C771 429 810 314 894 314C927 314 950 354 956 454C944 457 924 467 911 478C909 408 900 381 890 381C847 382 822 491 823 597L789 597L833 637C809 661 761 697 723 723L956 723L956 783L644 783C652 799 659 815 665 831L597 847C569 771 518 700 457 652C475 643 503 625 517 613C549 642 582 680 610 723L710 723ZM762 333C632 310 366 303 157 307C163 294 170 273 171 260C264 258 369 258 470 261L470 209L132 209L132 158L470 158L470 106L69 106L69 56L470 56L470-2C470-16 465-21 448-21C432-22 369-23 307-21C317-37 328-59 332-76C417-76 469-76 501-67C533-58 544-43 544-4L544 56L934 56L934 106L544 106L544 158L876 158L876 209L544 209L544 264C647 269 743 278 815 291ZM240 693C278 664 326 624 350 598L394 640C371 664 328 697 292 723L494 723L494 783L237 783C246 798 254 814 262 830L196 848C162 775 105 703 42 654C58 644 86 623 98 612C132 642 167 680 198 723L274 723Z"/><animate attributeName="opacity" values="1;0;0;0;0;1;1" dur="3s" repeatCount="indefinite"/></svg><svg id="U7BEBsc" viewBox="0 0 1000 1000"><path transform="translate(0, 900) scale(1,-1)" d="M571 484C615 453 665 407 689 375L736 417C712 447 660 490 616 521ZM63 403L74 344C174 361 309 383 438 406L434 461L293 438L293 543L433 543L433 596L91 596L91 543L224 543L224 427ZM493 602L493 516C493 463 475 407 369 364C383 354 409 330 419 316C536 367 562 444 562 514L562 551L747 551L747 436C747 386 751 370 765 358C779 347 801 342 820 342C831 342 856 342 868 342C883 342 902 344 913 351C926 356 935 366 941 381C946 395 949 435 951 472C933 477 911 487 899 497C898 462 897 435 895 422C893 411 889 405 885 402C880 400 872 399 865 399C856 399 844 399 837 399C831 399 825 399 822 402C818 406 817 415 817 433L817 602ZM183 845C152 770 98 695 38 646C56 637 86 618 100 607C129 634 158 669 185 708L253 708C273 675 291 637 299 611L362 628C355 649 339 680 322 708L485 708L485 766L222 766C233 786 244 807 253 828ZM578 845C547 767 487 694 421 646C439 638 471 621 486 611C518 637 551 670 579 708L673 708C698 678 722 641 733 617L797 637C787 658 770 684 750 708L941 708L941 766L618 766C630 786 641 808 650 829ZM762 338C632 314 366 306 157 308C164 296 170 274 172 262C265 260 369 261 470 264L470 212L132 212L132 159L470 159L470 107L69 107L69 54L470 54L470-2C470-14 465-19 448-19C432-21 370-21 307-19C317-34 328-56 332-73C417-73 469-73 501-64C533-55 544-40 544-3L544 54L934 54L934 107L544 107L544 159L876 159L876 212L544 212L544 268C647 273 743 282 816 296Z"/><animate attributeName="opacity" values="0;1;1;0;0;0;0" dur="3s" repeatCount="indefinite"/></svg><svg id="U7BEBtc" viewBox="0 0 1000 1000"><path transform="translate(0, 900) scale(1,-1)" d="M63 401L73 341C166 355 291 374 414 393L412 445L283 428L283 543L408 543L408 596L91 596L91 543L214 543L214 419ZM448 602L448 550L563 550L563 521C563 511 562 500 560 490L457 526L434 482C466 471 501 458 537 444C515 417 476 392 411 370C424 361 447 335 456 322C530 348 574 383 598 420C636 404 670 390 695 378L717 428C692 439 658 453 620 467C625 485 627 502 627 519L627 550L747 550L747 442C747 392 751 376 764 364C777 352 799 348 817 348C827 348 853 348 864 348C878 348 897 350 907 356C920 362 929 372 934 387C940 401 943 442 944 479C928 484 908 494 897 504C896 467 895 440 893 426C890 415 886 409 881 407C877 404 868 403 861 403C852 403 838 403 831 403C825 403 819 403 815 407C811 410 811 420 811 438L811 602ZM684 692C713 665 749 627 765 602L818 642C802 665 769 698 741 723L956 723L956 783L645 783C653 798 660 814 666 829L597 847C569 773 518 704 457 657C474 646 502 623 514 611C548 640 582 679 610 723L730 723ZM762 333C632 310 366 303 157 307C163 294 170 273 171 260C264 258 369 258 470 261L470 209L132 209L132 158L470 158L470 106L69 106L69 56L470 56L470 2C470-11 465-16 448-16C432-17 370-17 307-15C317-31 328-54 332-71C417-71 469-71 501-62C533-53 544-38 544 1L544 56L934 56L934 106L544 106L544 158L876 158L876 209L544 209L544 264C647 269 743 278 815 291ZM247 692C276 663 313 622 330 597L382 637C364 661 329 696 301 723L494 723L494 783L239 783C248 798 256 813 263 828L196 848C162 776 104 706 42 660C58 647 84 622 95 609C130 640 167 679 199 723L291 723Z"/><animate attributeName="opacity" values="0;0;0;1;1;0;0" dur="3s" repeatCount="indefinite"/></svg></svg>