<svg id="U7B44" viewBox="0 0 1000 1000"><path transform="translate(0, 900) scale(1,-1)" d="M107 429C175 391 256 332 295 290L342 339C302 381 219 437 151 472ZM687 651C725 615 774 566 797 535L844 581C820 611 771 657 734 690ZM815 479C768 442 695 395 629 359L629 534L556 534L556 44C556-43 581-66 675-66C695-66 826-66 847-66C924-66 945-35 954 66C933 71 904 82 888 93C884 16 877 0 842 0C814 0 704 0 683 0C637 0 629 8 629 43L629 195C715 157 813 110 866 77L906 137C842 173 722 227 629 263L629 292C705 327 802 382 874 433ZM65 155L93 90C165 118 254 154 342 190C318 104 250 28 73-24C88-38 108-66 117-83C390 0 428 143 428 300L428 534L355 534L355 301L354 259C246 219 138 179 65 155ZM246 655C285 620 336 569 361 539L408 583C384 612 334 658 295 691L490 691L490 754L237 754C248 777 257 801 266 825L196 844C163 748 107 653 43 590C60 578 87 552 100 539C137 579 174 633 205 691L288 691ZM611 843C591 749 555 656 506 595C522 585 552 562 565 550C593 588 618 637 640 691L954 691L954 753L662 753C670 778 677 803 683 828Z"/></svg>