<svg id="U7CE1" viewBox="0 0 1000 1000"><path transform="translate(0, 900) scale(1,-1)" d="M528 303L841 303L841 235L528 235ZM528 418L841 418L841 352L528 352ZM52 762C76 692 97 600 102 540L157 556C151 616 129 707 104 777ZM341 780C328 712 302 613 279 553L326 537C350 593 380 687 401 763ZM623 828C632 809 642 787 650 766L443 766L443 706L935 706L935 766L725 766C716 790 702 819 690 843ZM526 684C541 653 555 611 559 584L624 600C618 627 603 668 588 698ZM784 696C775 664 757 618 741 584L415 584L415 523L959 523L959 584L808 584L854 680ZM463 470L463 183L561 183C550 60 511 8 347-25C361-38 380-66 387-83C571-41 620 31 633 183L720 183L720 25C720-29 726-45 742-58C758-70 784-75 805-75C818-75 852-75 867-75C884-75 909-73 921-68C937-61 950-51 956-34C963-18 966 24 968 64C948 71 921 84 906 96C906 55 905 24 902 10C900-2 895-10 888-12C883-15 870-16 860-16C848-16 829-16 820-16C809-16 802-15 797-12C792-8 790 1 790 18L790 183L909 183L909 470ZM46 504L46 434L174 434C142 324 84 192 31 121C42 101 59 69 66 46C110 111 155 215 188 319L188-79L253-79L253 313C286 258 325 189 341 154L386 214C367 244 285 358 253 399L253 434L391 434L391 504L253 504L253 837L188 837L188 504Z"/></svg>