<svg id="U7CF7" viewBox="0 0 1000 1000"><svg id="U7CF7hk" viewBox="0 0 1000 1000"><path transform="translate(0, 900) scale(1,-1)" d="M560 221C570 199 578 168 581 148L617 159C614 178 605 209 594 231ZM728 232C721 213 707 180 695 159L726 145C738 165 751 189 765 216ZM45 766C67 697 89 606 97 547L149 561C140 619 117 708 94 778ZM740 499L881 499L881 441L740 441ZM740 546L740 595L881 595L881 546ZM580 499L580 440L444 440L444 499ZM580 546L444 546L444 595L580 595ZM496 280L496 102L597 102C561 62 511 24 467 3C475-12 488-35 492-52C541-25 592 21 630 70L630-71L692-71L692 69C730 38 770 2 793-23L832 11C809 36 766 72 726 102L827 102L827 280L692 280L692 312L839 312L839 359L692 359L692 391L881 391L881-11C881-23 877-26 866-27C855-28 818-28 779-26C787-41 795-63 798-77C855-77 891-77 914-68C935-59 944-44 944-11L944 646L681 646L681 400L638 400L638 646L383 646L383-79L444-79L444 389L632 389L632 359L479 359L479 312L632 312L632 280ZM541 239L641 239L641 142L541 142ZM683 239L782 239L782 142L683 142ZM305 777C293 713 266 617 245 561L290 546C313 598 339 683 361 753L361 719L481 719L481 663L548 663L548 719L650 719L650 778L548 778L548 840L481 840L481 778L361 778L361 761ZM675 778L675 719L776 719L776 663L844 663L844 719L959 719L959 778L844 778L844 840L776 840L776 778ZM43 504L43 434L145 434C121 320 76 183 33 107C44 90 62 61 69 41C106 106 142 213 169 317L169-79L231-79L231 349C262 284 300 200 315 160L362 206C346 241 274 374 241 434L348 434L348 504L231 504L231 840L169 840L169 504Z"/><animate attributeName="opacity" values="1;0;0;0;0;1;1" dur="3s" repeatCount="indefinite"/></svg><svg id="U7CF7sc" viewBox="0 0 1000 1000"><path transform="translate(0, 900) scale(1,-1)" d="M560 221C570 199 577 168 580 148L616 159C612 178 603 209 593 231ZM733 232C727 213 712 180 701 159L731 145C743 165 756 189 769 216ZM51 762C72 692 91 600 95 540L146 556C140 616 121 707 97 777ZM301 779C288 711 264 612 244 552L287 535C309 591 336 685 357 760ZM373 773L373 718L516 718L516 661L578 661L578 718L737 718L737 664L799 664L799 718L954 718L954 773L799 773L799 841L737 841L737 773L578 773L578 841L516 841L516 773ZM740 499L885 499L885 441L740 441ZM740 546L740 595L885 595L885 546ZM583 499L583 440L446 440L446 499ZM583 546L446 546L446 595L583 595ZM491 280L491 102L595 102C560 63 510 26 468 6C477-8 487-32 492-48C542-20 595 29 634 80L634-61L692-61L692 74C733 43 775 4 797-25L836 9C815 37 774 73 734 102L838 102L838 280L690 280L690 312L860 312L860 359L690 359L690 391L885 391L885-11C885-23 881-26 870-27C859-28 823-28 785-26C792-41 800-63 803-77C858-77 893-77 915-68C936-59 944-44 944-11L944 646L685 646L685 400L637 400L637 646L389 646L389-79L446-79L446 389L633 389L633 359L468 359L468 312L633 312L633 280ZM536 239L640 239L640 142L536 142ZM686 239L792 239L792 142L686 142ZM45 504L45 434L159 434C132 328 81 202 35 134C44 114 60 80 67 57C105 120 144 220 173 319L173-78L231-78L231 318C261 271 296 211 311 180L351 240C333 266 259 365 231 399L231 434L347 434L347 504L231 504L231 837L173 837L173 504Z"/><animate attributeName="opacity" values="0;1;1;0;0;0;0" dur="3s" repeatCount="indefinite"/></svg><svg id="U7CF7tc" viewBox="0 0 1000 1000"><path transform="translate(0, 900) scale(1,-1)" d="M565 221C575 199 583 168 586 148L623 159C619 178 610 209 599 231ZM734 232C727 213 712 180 701 159L731 145C744 165 757 189 771 216ZM113 372C100 283 66 165 34 105C45 87 60 58 67 38C108 111 143 253 159 357ZM279 373L239 347C257 311 298 201 312 155L361 204C349 232 293 348 279 373ZM50 764C69 697 90 607 98 550L150 563C142 620 120 707 99 776ZM305 777C293 713 266 617 245 561L290 546C314 600 341 688 363 760ZM744 499L887 499L887 441L744 441ZM744 546L744 595L887 595L887 546ZM586 499L586 440L449 440L449 499ZM586 546L449 546L449 595L586 595ZM501 280L501 102L602 102C566 62 516 24 472 3C481-12 492-35 497-52C546-25 598 22 636 72L636-71L697-71L697 69C735 38 776 3 798-23L838 12C815 37 773 73 733 102L832 102L832 280L698 280L698 312L843 312L843 359L698 359L698 391L887 391L887-11C887-23 883-26 871-27C860-28 823-28 784-26C792-41 801-63 804-77C860-77 897-77 919-68C941-59 949-44 949-11L949 646L686 646L686 400L643 400L643 646L389 646L389-79L449-79L449 389L636 389L636 359L483 359L483 312L636 312L636 280ZM548 239L644 239L644 142L548 142ZM690 239L783 239L783 142L690 142ZM481 840L481 778L366 778L366 719L481 719L481 663L548 663L548 719L649 719L649 778L548 778L548 840ZM675 778L675 719L776 719L776 663L844 663L844 719L959 719L959 778L844 778L844 840L776 840L776 778ZM43 504L43 434L169 434L169-79L231-79L231 434L348 434L348 504L231 504L231 840L169 840L169 504Z"/><animate attributeName="opacity" values="0;0;0;1;1;0;0" dur="3s" repeatCount="indefinite"/></svg></svg>