<svg id="U7C46" viewBox="0 0 1000 1000"><svg id="U7C46jp" viewBox="0 0 1000 1000"><path transform="translate(0, 900) scale(1,-1)" d="M572 847C552 803 523 760 487 725L487 767L217 767C229 786 241 805 251 825L180 845C148 778 91 712 30 668C48 657 78 638 91 626C120 650 150 680 178 714L220 714C238 687 256 654 263 633L328 654C322 671 310 693 297 714L476 714C462 701 447 689 432 678C451 670 483 651 497 640C522 660 548 686 571 714L666 714C693 688 721 656 734 633L801 657C790 674 773 695 754 714L953 714L953 767L610 767C623 787 634 808 643 829ZM489 356L489 312L272 312L272 356ZM489 400L272 400L272 442L489 442ZM252 547C214 484 144 410 48 355C65 346 88 326 99 311C137 335 172 362 202 390L202 173L924 173L924 222L558 222L558 267L833 267L833 312L558 312L558 356L832 356L832 400L558 400L558 442L889 442L889 490L553 490C564 505 574 521 583 538L504 550C497 533 487 511 476 490L293 490L323 534ZM489 267L489 222L272 222L272 267ZM720 86C665 59 595 38 517 21C441 38 374 59 325 86ZM113 132L113 86L290 86L262 71C301 44 352 21 409 2C295-15 173-24 59-27C68-42 78-65 81-80C224-73 380-58 519-28C644-57 789-73 925-80C932-65 946-41 958-27C849-24 736-15 632 1C718 27 792 61 845 105L807 135L796 132ZM608 674L608 623L403 623L403 674L335 674L335 623L81 623L81 570L335 570L335 526L403 526L403 570L608 570L608 527L676 527L676 570L927 570L927 623L676 623L676 674Z"/><animate attributeName="opacity" values="1;0;0;1;1" dur="2s" repeatCount="indefinite"/></svg><svg id="U7C46sc" viewBox="0 0 1000 1000"><path transform="translate(0, 900) scale(1,-1)" d="M572 846C552 802 523 759 487 723L487 767L217 767C229 786 241 805 251 825L180 845C148 778 91 712 30 668C48 657 78 638 91 626C120 650 150 680 178 714L221 714C239 686 256 654 264 631L330 653C324 670 311 693 297 714L477 714C463 700 448 688 432 677C451 668 483 650 497 638C523 659 549 685 573 714L666 714C693 688 721 656 734 633L801 657C790 674 773 695 754 714L934 714L934 767L611 767C623 786 634 807 643 827ZM502 356L502 312L271 312L271 356ZM502 400L271 400L271 442L502 442ZM462 534C474 521 486 505 496 490L293 490L323 534L252 547C214 484 144 410 48 355C65 346 88 326 99 311C137 335 172 362 202 390L202 148L271 147L271 175L924 175L924 225L571 225L571 267L847 267L847 312L571 312L571 356L848 356L848 400L571 400L571 442L889 442L889 490L563 490C553 511 531 540 510 561ZM502 267L502 225L271 225L271 267ZM720 86C669 61 605 41 533 25C462 41 399 61 350 86ZM113 132L113 86L262 86C305 54 362 27 427 5C308-14 179-23 59-27C68-42 78-65 81-80C229-73 391-57 532-25C653-55 791-72 923-79C931-63 945-40 957-26C851-22 743-12 642 4C724 30 794 63 845 105L807 135L796 132ZM608 672L608 623L403 623L403 672L335 672L335 623L81 623L81 570L335 570L335 523L403 523L403 570L608 570L608 525L676 525L676 570L927 570L927 623L676 623L676 672Z"/><animate attributeName="opacity" values="0;1;1;0;0" dur="2s" repeatCount="indefinite"/></svg></svg>