<svg id="U7C38" viewBox="0 0 1000 1000"><svg id="U7C38hk" viewBox="0 0 1000 1000"><path transform="translate(0, 900) scale(1,-1)" d="M314 69C347 37 385-7 402-37L458-7C440 23 401 66 368 96ZM268 682C287 655 308 619 316 595L381 622C371 644 349 680 330 705ZM165 99C140 51 94-3 51-36C67-47 88-65 100-76C145-41 194 17 226 72ZM695 464L695 343L586 343L586 464ZM519 524L519 293C519 190 512 55 447-43C462-50 490-71 502-83C572 20 586 173 586 286L594 286C622 205 661 132 711 72C663 28 606-4 542-27C556-39 578-66 587-81C649-56 707-22 756 25C805-21 861-57 924-81C934-63 955-36 971-22C907-1 850 31 802 73C856 139 897 222 922 328L882 345L869 343L764 343L764 464L875 464C868 430 859 397 850 373L913 363C930 401 946 464 956 518L908 526L895 524L764 524L764 607L695 607L695 524ZM843 286C823 220 793 165 756 119C713 167 680 224 656 286ZM358 606L358 530L200 530L200 606L133 606L133 530L56 530L56 473L133 473L133 171L45 171L45 114L495 114L495 171L425 171L425 473L493 473L493 530L425 530L425 606ZM200 473L358 473L358 411L200 411ZM200 171L200 239L358 239L358 171ZM200 358L358 358L358 292L200 292ZM184 845C153 766 97 688 36 636C53 627 84 606 98 595C130 626 162 666 192 710L492 710L492 768L227 768C237 787 247 807 255 826ZM628 842C598 759 543 680 479 628C497 621 529 603 543 591C577 622 611 662 640 708L958 708L958 766L673 766C683 786 692 806 699 826ZM728 686C749 658 770 618 779 593L847 617C838 642 815 680 793 708Z"/><animate attributeName="opacity" values="1;0;0;1;1" dur="2s" repeatCount="indefinite"/></svg><svg id="U7C38jp" viewBox="0 0 1000 1000"><path transform="translate(0, 900) scale(1,-1)" d="M314 69C347 37 385-7 402-37L458-7C440 23 401 66 368 96ZM165 99C140 51 94-3 51-36C67-47 88-65 100-76C145-41 194 17 226 72ZM695 464L695 343L586 343L586 464ZM519 524L519 293C519 190 512 55 447-43C462-50 490-71 502-83C572 20 586 173 586 286L594 286C622 205 661 132 711 72C663 28 606-4 542-27C556-39 578-66 587-81C649-56 707-22 756 25C805-21 861-57 924-81C934-63 955-36 971-22C907-1 850 31 802 73C856 139 897 222 922 328L882 345L869 343L764 343L764 464L875 464C868 430 859 397 850 373L913 363C930 401 946 464 956 518L908 526L895 524L764 524L764 607L695 607L695 524ZM843 286C823 220 793 165 756 119C713 167 680 224 656 286ZM358 606L358 530L200 530L200 606L133 606L133 530L56 530L56 473L133 473L133 171L45 171L45 114L495 114L495 171L425 171L425 473L493 473L493 530L425 530L425 606ZM200 473L358 473L358 411L200 411ZM200 171L200 239L358 239L358 171ZM200 358L358 358L358 292L200 292ZM184 845C153 766 97 688 36 636C53 627 84 606 98 595C127 623 157 660 185 700L241 700C262 668 284 628 294 602L359 628C351 648 335 675 318 700L487 700L487 762L223 762C235 783 246 804 255 826ZM576 845C546 762 491 682 427 630C446 623 477 605 492 594C523 622 554 659 582 700L659 700C684 671 708 637 720 613L786 639C777 657 762 679 745 700L944 700L944 762L618 762C629 783 639 806 647 828Z"/><animate attributeName="opacity" values="0;1;1;0;0" dur="2s" repeatCount="indefinite"/></svg></svg>