<svg id="U7C5D" viewBox="0 0 1000 1000"><svg id="U7C5Dhk" viewBox="0 0 1000 1000"><path transform="translate(0, 900) scale(1,-1)" d="M240 428L777 428L777 381L240 381ZM172 472L172 338L848 338L848 472ZM356 248L356 199L417 199C406 159 394 121 382 92C411 76 442 57 472 38C442 9 401-18 345-42C357-51 372-68 379-81C439-54 483-24 515 9C552-16 584-41 606-62L637-16C616 4 585 27 550 50C583 99 594 151 598 199L634 199L634 248L599 248L599 295L549 295L549 248L483 248L496 309L442 314C439 293 434 271 429 248ZM445 114C453 139 462 168 470 199L547 199C544 161 534 119 506 78ZM285 111C241 97 203 85 170 78L189 31L285 71L285-8C285-17 282-19 273-20C264-20 236-20 202-20C210-34 218-56 219-72C266-72 297-71 316-62C336-52 341-37 341-8L341 302L123 302L123 175C123 105 113 20 43-46C55-52 79-69 89-79C135-35 159 22 170 78C177 111 179 144 179 174L179 180C207 168 240 150 259 137L283 176C265 188 230 206 203 215L179 181L179 253L285 253ZM262 722C288 700 321 666 338 646L388 679C373 695 346 720 322 741L499 741L499 790L239 790L262 829L196 848C160 779 100 711 35 667C53 657 81 638 94 627L101 633L101 595L174 595L174 584C174 527 194 506 287 506C319 506 653 506 711 506C774 506 836 507 863 512C860 523 858 537 854 557C827 552 746 549 698 549C642 549 344 549 292 549C244 549 238 556 238 583L238 595L913 595L913 640L538 640C529 658 515 681 502 700L437 685L462 640L110 640C143 668 176 703 205 741L293 741ZM702 723C727 699 758 663 773 640L826 674C813 692 787 720 763 742L958 742L958 791L672 791C679 804 685 817 690 830L622 845C600 786 559 731 509 693C526 685 557 669 571 658C596 680 621 709 643 742L736 742ZM616 153C638 136 661 117 684 96L684-73L738-73L738 45C755 28 771 12 782-2L812 44C795 64 768 90 738 116L738 252L812 252L812 29C812-27 815-41 826-53C837-64 855-68 870-68C878-68 895-68 905-68C916-68 930-66 939-60C950-54 957-44 962-30C966-16 969 25 970 61C956 65 938 74 926 83C926 46 925 19 923 6C921-5 918-12 915-15C912-17 907-18 901-18C895-18 888-18 883-18C878-18 875-17 872-14C870-10 869 2 869 23L869 302L636 302L636 252L684 252L684 161L643 192Z"/><animate attributeName="opacity" values="1;0;0;0;0;1;1" dur="3s" repeatCount="indefinite"/></svg><svg id="U7C5Djp" viewBox="0 0 1000 1000"><path transform="translate(0, 900) scale(1,-1)" d="M231 450L768 450L768 403L231 403ZM164 493L164 358L839 358L839 493ZM131 659L131 607C131 551 154 524 259 524C295 524 660 524 725 524C797 524 869 524 901 531C898 541 895 555 891 578C861 572 762 569 708 569C645 569 323 569 263 569C208 569 199 577 199 607L199 613L921 613L921 659L547 659L547 703L545 703L567 726L656 726C674 703 692 677 701 659L767 681C761 694 750 710 737 726L956 726L956 780L609 780C620 795 629 812 636 828L568 845C549 805 520 767 484 736L484 780L223 780C233 796 241 811 249 827L181 846C151 780 99 715 42 671C60 662 88 642 101 631C130 656 159 690 186 726L234 726C250 704 265 678 272 659L339 679C333 692 323 709 311 726L472 726L449 709L474 697L474 659ZM445 357L424 277L353 277L353 226L410 226C394 169 377 114 362 73L409 51L418 76L464 43C437 6 404-22 365-40C377-50 389-68 396-81C439-59 475-29 504 11C524-5 541-21 553-35L583 9C570 23 552 39 531 55C560 111 579 182 588 274L558 278L547 277L479 277L499 350ZM433 124L465 226L531 226C522 171 508 125 489 86ZM274 271L274 220L181 220L181 271ZM123 320L123 185C123 113 115 22 51-48C64-54 89-70 99-81C139-38 160 18 171 73L274 73L274-13C274-23 272-25 263-25C254-26 225-26 192-25C200-40 208-63 210-78C257-78 287-78 307-68C328-59 333-43 333-14L333 320ZM274 173L274 121L178 121C180 139 181 157 181 173ZM604 182L604 133L670 133C665 72 644 5 570-45C583-52 606-70 615-80C696-24 721 59 726 133L789 133L789 182L727 182L727 270L804 270L804 31C804-27 807-42 819-53C830-64 847-68 864-68C871-68 887-68 897-68C910-68 923-66 932-60C942-54 951-43 954-27C959-13 962 33 962 73C948 77 930 86 918 95C918 55 917 24 915 9C914-4 911-11 908-14C905-17 899-19 893-19C887-19 880-19 876-19C871-19 867-17 864-15C862-10 861 3 861 25L861 320L609 320L609 270L671 270L671 182Z"/><animate attributeName="opacity" values="0;1;1;0;0;0;0" dur="3s" repeatCount="indefinite"/></svg><svg id="U7C5Dsc" viewBox="0 0 1000 1000"><path transform="translate(0, 900) scale(1,-1)" d="M231 445L768 445L768 398L231 398ZM164 489L164 354L839 354L839 489ZM358 277L358 226L414 226C402 178 387 131 373 96C400 78 431 57 459 35C433 3 402-21 366-38C377-49 389-67 396-79C436-59 470-33 498 3C516-13 532-27 543-40L574 5C562 17 546 32 528 46C560 103 582 177 592 274L561 278L551 277L480 277L494 345L441 350C437 327 432 302 427 277ZM487 78L435 113C445 145 457 185 468 226L535 226C525 167 509 118 487 78ZM274 271L274 220L181 220L181 271ZM123 320L123 185C123 113 115 22 51-48C64-54 89-70 99-81C139-38 160 18 171 73L274 73L274-13C274-23 272-25 263-25C254-26 225-26 192-25C200-40 208-63 210-78C257-78 287-78 307-68C328-59 333-43 333-14L333 320ZM274 173L274 121L178 121C180 139 181 157 181 173ZM187 727L249 727C266 703 283 674 291 654L125 654C146 675 168 700 187 727ZM437 698L463 654L294 654L358 673C351 688 340 708 327 727L484 727L484 781L224 781C233 796 241 812 249 827L181 846C151 780 99 715 42 671C60 662 88 642 101 631L101 609L165 609L165 522L858 522L858 566L228 566L228 609L908 609L908 654L727 654L788 674C780 689 767 709 752 727L948 727L948 781L624 781C633 797 641 813 648 829L579 845C558 793 517 743 471 709L477 706ZM586 727L671 727C691 704 711 674 720 654L545 654L531 677L535 675C552 690 570 707 586 727ZM805 270L805 91C788 136 754 200 723 248L698 238L698 270ZM641 320L641 176C641 105 633 13 577-55C591-61 616-75 627-84C687-12 698 96 698 175L698 201C725 154 751 98 763 60L805 78L805 30C805-27 808-42 819-54C830-64 847-69 864-69C871-69 888-69 898-69C910-69 923-67 933-61C942-55 950-45 954-30C959-17 962 25 962 60C948 65 931 73 919 82C919 46 918 18 916 5C914-5 911-12 908-14C905-17 900-19 894-19C888-19 880-19 877-19C871-19 867-18 865-15C862-11 862 2 862 23L862 320Z"/><animate attributeName="opacity" values="0;0;0;1;1;0;0" dur="3s" repeatCount="indefinite"/></svg></svg>