<svg id="U7C70" viewBox="0 0 1000 1000"><svg id="U7C70hk" viewBox="0 0 1000 1000"><path transform="translate(0, 900) scale(1,-1)" d="M188 576L397 576L397 547L188 547ZM188 515L397 515L397 485L188 485ZM188 635L397 635L397 608L188 608ZM601 576L821 576L821 547L601 547ZM601 515L821 515L821 485L601 485ZM601 635L821 635L821 608L601 608ZM494 301L494 272L272 272L272 301ZM494 338L272 338L272 367L494 367ZM658 708C698 697 751 680 780 667L536 667L536 462L523 479L463 459L463 667L362 667L387 700C367 711 332 724 300 735L483 735L483 785L230 785C239 799 248 814 255 828L192 847C160 786 110 723 57 680C73 672 101 654 114 643L124 653L124 453L245 453C206 398 143 338 62 293C78 284 100 263 111 247C145 268 175 290 202 314L202 146L272 146L272 161L914 161L914 204L563 204L563 235L844 235L844 272L563 272L563 301L842 301L842 338L563 338L563 367L883 367L883 410L567 410C560 423 552 439 542 453L888 453L888 667L783 667L814 704C789 715 747 727 710 736L940 736L940 785L613 785C621 800 628 814 634 829L570 846C548 791 512 735 470 696C486 690 514 675 528 665C547 685 566 709 584 736L684 736ZM494 235L494 204L272 204L272 235ZM710 85C654 57 582 35 501 18C418 35 346 57 293 85ZM113 130L113 85L252 85L226 71C268 42 323 18 385-2C281-16 170-24 67-28C76-42 85-65 89-80C222-73 367-58 498-31C625-59 769-74 905-80C912-65 926-40 938-27C831-24 720-15 617-1C704 25 778 59 830 103L792 132L781 130ZM324 453L463 453C472 440 481 425 489 410L294 410C305 424 315 439 324 453ZM242 710C275 698 317 681 345 667L138 667C157 687 177 710 196 735L265 735Z"/><animate attributeName="opacity" values="1;0;0;0;0;1;1" dur="3s" repeatCount="indefinite"/></svg><svg id="U7C70jp" viewBox="0 0 1000 1000"><path transform="translate(0, 900) scale(1,-1)" d="M188 576L397 576L397 547L188 547ZM188 515L397 515L397 485L188 485ZM188 635L397 635L397 608L188 608ZM611 576L822 576L822 547L611 547ZM611 515L822 515L822 485L611 485ZM611 635L822 635L822 608L611 608ZM489 301L489 272L272 272L272 301ZM489 338L272 338L272 367L489 367ZM576 845C549 784 500 729 443 690C462 681 494 663 509 652C535 672 561 697 584 726L652 726C668 708 684 686 695 667L547 667L547 466L504 475C497 457 486 432 474 410L294 410C305 424 315 439 324 453L463 453L463 667L330 667C325 683 314 705 302 726L488 726L488 775L221 775C232 791 242 808 250 825L179 845C149 781 96 717 38 674C56 665 85 644 99 632L124 655L124 453L245 453C206 398 143 338 62 293C78 284 100 263 111 247C145 268 175 290 202 314L202 161L924 161L924 204L558 204L558 235L844 235L844 272L558 272L558 301L842 301L842 338L558 338L558 367L883 367L883 410L551 410L578 453L889 453L889 667L763 667L769 669C762 685 747 706 731 726L944 726L944 775L620 775C630 792 640 809 648 827ZM489 235L489 204L272 204L272 235ZM710 85C657 58 590 38 514 21C438 38 371 59 322 85ZM113 130L113 85L280 85L255 72C295 44 347 21 406 1C296-15 177-24 67-28C76-42 85-65 89-80C227-72 378-57 512-28C638-57 783-73 919-80C926-64 940-40 952-27C843-24 729-14 625 1C708 27 779 60 830 103L792 132L781 130ZM136 667C154 685 171 705 187 726L229 726C240 707 251 686 258 667Z"/><animate attributeName="opacity" values="0;1;1;0;0;0;0" dur="3s" repeatCount="indefinite"/></svg><svg id="U7C70sc" viewBox="0 0 1000 1000"><path transform="translate(0, 900) scale(1,-1)" d="M188 576L397 576L397 547L188 547ZM188 515L397 515L397 485L188 485ZM188 635L397 635L397 608L188 608ZM601 576L821 576L821 547L601 547ZM601 515L821 515L821 485L601 485ZM601 635L821 635L821 608L601 608ZM494 301L494 272L272 272L272 301ZM494 338L272 338L272 367L494 367ZM576 845C549 784 500 729 443 690C462 681 494 663 509 652C535 672 561 697 584 726L677 726C692 707 708 685 716 667L536 667L536 463L522 479L463 459L463 667L307 667L355 681C351 694 344 710 335 726L488 726L488 775L221 775C232 791 242 808 250 825L179 845C149 781 96 717 38 674C56 665 85 644 99 632L124 655L124 453L245 453C206 398 143 338 62 293C78 284 100 263 111 247C145 268 175 290 202 314L202 146L272 146L272 161L914 161L914 204L563 204L563 235L844 235L844 272L563 272L563 301L842 301L842 338L563 338L563 367L883 367L883 410L568 410C562 424 553 439 543 453L888 453L888 667L729 667L781 685C776 697 766 712 755 726L944 726L944 775L620 775C630 792 640 809 648 827ZM494 235L494 204L272 204L272 235ZM710 85C656 58 586 37 509 20C430 37 361 58 311 85ZM113 130L113 85L269 85L244 72C285 44 338 20 398 0C290-16 175-24 67-28C76-42 85-65 89-80C226-73 374-58 507-29C631-58 773-74 908-80C915-64 929-40 941-27C834-24 723-15 621 0C706 26 779 60 830 103L792 132L781 130ZM136 667C154 685 171 705 187 726L261 726C272 707 283 684 288 667ZM324 453L463 454C473 441 483 425 491 410L294 410C305 424 315 439 324 453Z"/><animate attributeName="opacity" values="0;0;0;1;1;0;0" dur="3s" repeatCount="indefinite"/></svg></svg>