<svg id="U7D2F" viewBox="0 0 1000 1000"><svg id="U7D2Fhk" viewBox="0 0 1000 1000"><path transform="translate(0, 900) scale(1,-1)" d="M623 86C709 44 817-20 870-63L928-18C871 26 761 87 677 126ZM282 126C224 75 132 24 50-9C67-21 95-46 108-60C187-22 285 39 350 98ZM211 607L462 607L462 523L211 523ZM535 607L795 607L795 523L535 523ZM211 746L462 746L462 664L211 664ZM535 746L795 746L795 664L535 664ZM172 295C191 303 219 307 407 319C329 283 263 257 231 246C174 226 132 213 100 211C107 191 117 158 119 143C148 154 186 157 464 171L464 3C464-9 461-12 448-12C433-13 387-13 335-12C346-31 358-59 362-80C429-80 475-80 505-69C535-58 543-39 543 1L543 175L801 188C822 166 840 145 854 127L909 171C870 222 789 299 718 351L664 314C690 294 717 270 744 245L332 226C458 273 585 332 712 405L654 450C616 426 575 403 535 382L312 371C361 397 411 428 459 463L869 463L869 806L139 806L139 463L351 463C296 425 241 394 219 385C193 372 170 364 152 362C159 343 169 310 172 295Z"/><animate attributeName="opacity" values="1;0;0;1;1" dur="2s" repeatCount="indefinite"/></svg><svg id="U7D2Fjp" viewBox="0 0 1000 1000"><path transform="translate(0, 900) scale(1,-1)" d="M632 77C718 36 825-28 878-72L936-27C878 17 770 78 687 117ZM286 114C229 62 136 12 51-21C68-33 95-58 107-72C191-33 289 27 354 88ZM204 602L462 602L462 515L204 515ZM535 602L798 602L798 515L535 515ZM204 746L462 746L462 660L204 660ZM535 746L798 746L798 660L535 660ZM133 806L133 455L384 455C350 424 309 390 272 363C247 376 222 389 199 400L147 359C213 326 291 279 343 240L271 202L68 200L71 137L461 145L461-80L535-80L535 147L826 154C851 135 872 117 888 101L946 143C890 196 780 267 691 312L636 274C672 256 710 233 747 209L393 203C503 261 625 335 718 403L652 440C589 390 498 330 408 277C385 294 356 313 325 332C376 366 436 411 485 453L481 455L872 455L872 806Z"/><animate attributeName="opacity" values="0;1;1;0;0" dur="2s" repeatCount="indefinite"/></svg></svg>