<svg id="U7DFB" viewBox="0 0 1000 1000"><svg id="U7DFBhk" viewBox="0 0 1000 1000"><path transform="translate(0, 900) scale(1,-1)" d="M164 192C175 121 185 31 187-29L243-16C241 44 229 133 216 203ZM78 206C69 117 54 20 31-47C45-51 73-60 86-66C107 0 124 102 136 196ZM252 204C270 152 291 85 299 41L353 60C344 102 322 169 302 219ZM465 430L465 319L360 319L360 257L465 257L465 88C415 73 369 60 333 51L354-19C440 9 552 46 658 82L649 143L528 107L528 257L643 257L643 319L528 319L528 430ZM353 433C370 444 397 452 576 489L585 448L639 467C625 438 609 411 592 387C608 378 637 356 647 344C668 375 687 409 705 447C720 358 739 273 764 198C713 96 649 18 574-36C590-44 615-65 627-78C690-30 745 36 793 120C825 44 866-21 917-69C928-50 951-24 968-11C910 37 865 107 830 193C882 310 920 455 940 630L901 642L889 639L772 639C788 699 801 762 812 826L744 836C723 702 690 572 640 470C630 521 603 596 574 654L521 636C534 608 547 576 558 544L422 520C452 578 481 648 502 715L659 715L659 779L325 779L325 715L434 715C413 638 380 563 369 541C357 516 345 498 332 495C339 478 350 447 353 433ZM752 571L871 571C856 460 831 363 799 279C774 359 756 449 743 543ZM62 235C78 246 106 254 287 292L298 240L351 257C342 306 318 389 293 453L243 440C254 411 264 378 274 345L143 322C216 418 286 539 343 659L282 689C263 643 241 595 217 551L124 542C171 620 217 720 250 814L184 840C154 732 97 616 79 587C63 556 48 535 32 531C40 513 51 480 55 466C68 472 89 477 184 490C150 432 120 386 106 368C80 330 59 303 40 298C48 281 58 249 62 235Z"/><animate attributeName="opacity" values="1;0;0;0;0;0;0;1;1" dur="4s" repeatCount="indefinite"/></svg><svg id="U7DFBjp" viewBox="0 0 1000 1000"><path transform="translate(0, 900) scale(1,-1)" d="M260 256C282 196 304 117 310 66L365 84C358 134 336 212 312 271ZM76 268C69 181 56 91 28 30C43 24 71 12 83 4C109 68 127 165 137 258ZM726 836C713 709 692 587 656 489C638 538 611 595 583 641L528 620C545 590 563 555 577 520L445 510C467 569 491 647 510 715L669 715L669 779L336 779L336 715L435 715C422 647 401 564 380 505L329 501L340 436L599 463L612 420L629 427L608 390C623 377 648 352 659 339C677 368 693 401 707 436C721 347 740 263 765 188C740 135 709 88 673 49L670 99L539 79L539 232L656 232L656 297L539 297L539 421L473 421L473 297L353 297L353 232L473 232L473 69L321 47L338-24L660 35C634 10 606-12 574-29C592-43 613-67 623-84C695-40 751 25 796 107C829 30 870-34 922-82C934-63 958-38 974-25C914 23 867 94 832 182C877 292 906 425 923 571L966 571L966 639L764 639C777 699 786 762 794 827ZM29 398L36 330L170 340L170-80L234-80L234 345L294 350C301 328 307 308 310 291L366 315C356 368 320 452 284 515L230 496C245 469 259 439 271 409L154 403C214 489 281 605 331 698L270 724C248 674 218 614 185 555C173 574 157 594 139 615C170 670 204 750 234 817L168 839C153 787 126 715 100 660L73 687L39 637C79 596 124 540 150 495C130 461 110 428 91 401ZM749 571L862 571C849 461 829 361 799 274C774 358 756 451 744 550Z"/><animate attributeName="opacity" values="0;1;1;0;0;0;0;0;0" dur="4s" repeatCount="indefinite"/></svg><svg id="U7DFBsc" viewBox="0 0 1000 1000"><path transform="translate(0, 900) scale(1,-1)" d="M164 191C175 127 185 44 187-12L242 1C239 56 228 138 216 202ZM78 205C69 123 55 34 30-27C45-32 72-41 84-47C105 15 123 109 134 195ZM252 203C269 155 289 93 296 53L348 71C340 109 319 171 301 218ZM468 429L468 325L361 325L361 260L468 260L468 86C416 71 368 58 330 48L351-22C438 7 553 45 662 82L652 142L534 106L534 260L647 260L647 325L534 325L534 429ZM357 433C373 443 401 450 579 475L586 447L636 467C625 441 612 417 598 396C614 386 642 364 653 352C668 376 682 402 694 430C710 346 729 268 754 197C710 105 653 31 581-17C599-29 622-51 634-67C695-22 745 40 787 117C821 42 864-21 917-68C929-49 952-23 968-10C908 36 860 106 822 190C869 300 901 431 921 571L966 571L966 639L761 639C775 699 786 761 795 826L726 836C710 703 683 575 640 475C628 525 599 596 569 652L517 633C532 603 547 568 560 534L424 517C453 575 482 647 502 715L661 715L661 779L328 779L328 715L431 715C412 639 381 566 372 544C359 518 348 500 334 497C342 480 353 448 357 433ZM744 571L860 571C845 465 821 365 789 277C763 354 744 440 731 529ZM62 240C78 251 106 259 287 296L298 244L350 260C341 309 317 390 293 453L243 440C254 412 264 381 272 350L144 327C214 420 283 539 338 654L277 684C259 639 237 594 215 551L124 542C171 620 217 720 250 814L184 840C154 732 97 616 79 587C63 556 48 535 32 531C40 513 51 480 55 466C68 472 88 477 181 489C149 433 119 389 106 371C79 334 59 307 40 303C48 286 58 254 62 240Z"/><animate attributeName="opacity" values="0;0;0;1;1;0;0;0;0" dur="4s" repeatCount="indefinite"/></svg><svg id="U7DFBtc" viewBox="0 0 1000 1000"><path transform="translate(0, 900) scale(1,-1)" d="M164 191C174 128 184 48 186-6L241 7C238 60 228 139 216 202ZM78 205C69 125 55 40 31-21C46-24 73-33 85-39C105 20 123 112 134 195ZM252 207C269 162 287 102 294 63L346 81C338 118 319 178 301 223ZM62 240C77 250 104 258 276 294L286 244L339 260C330 309 306 390 282 453L231 440C242 412 252 379 261 348L142 326C210 421 276 539 328 654L266 684C249 639 228 592 206 549L122 542C166 620 209 721 240 814L173 840C147 732 94 616 77 587C62 556 48 534 32 531C40 513 51 480 55 466C68 472 87 476 174 488C143 432 116 389 103 371C77 334 59 307 40 303C48 286 58 254 62 240ZM456 427L456 325L341 325L341 260L456 260L456 86C403 72 355 60 317 51L335-19C423 7 537 40 645 73L637 134L519 102L519 260L623 260L623 325L519 325L519 427ZM353 433C368 443 395 450 568 484L581 439L636 462C624 512 593 588 563 647L511 628C524 600 538 567 550 536L411 512C446 571 480 644 504 715L661 715L661 779L329 779L329 715L431 715C409 640 379 568 368 547C355 521 343 503 329 500C338 482 349 448 353 433ZM770 578L868 578C851 452 822 340 783 244C761 298 742 356 726 416C743 467 758 521 770 578ZM682 625L635 616C645 553 657 491 670 432C659 399 645 369 630 342C641 326 658 293 663 276C674 295 685 316 695 337C711 280 729 225 750 174C704 83 646 13 582-31C597-44 618-69 627-86C687-41 740 22 784 100C821 28 864-33 914-79C926-62 948-40 964-28C907 19 859 86 818 166C876 289 916 445 935 632L895 643L884 640L783 640C793 697 802 756 809 816L749 825C738 720 723 618 700 528C693 560 687 592 682 625Z"/><animate attributeName="opacity" values="0;0;0;0;0;1;1;0;0" dur="4s" repeatCount="indefinite"/></svg></svg>