<svg id="U7DAB" viewBox="0 0 1000 1000"><svg id="U7DABhk" viewBox="0 0 1000 1000"><path transform="translate(0, 900) scale(1,-1)" d="M674 804C723 785 787 749 819 724L867 766C834 790 771 823 720 841ZM648 381C699 361 762 323 797 296L844 337C810 363 745 397 694 418ZM181 189C193 121 205 33 207-26L266-12C263 46 251 133 239 201ZM80 197C70 116 56 26 32-35C48-40 78-50 91-57C112 5 131 100 142 186ZM277 206C299 144 324 63 334 10L391 29C380 81 353 161 330 222ZM522 840C530 790 541 742 556 697L404 686L409 625L577 638C593 599 612 563 633 532C559 502 475 479 396 463C409 448 428 419 434 404C512 424 595 450 672 484C725 425 793 390 874 387C915 386 942 418 960 508C944 514 921 528 906 543C900 483 888 458 868 458C821 460 777 481 739 516C794 545 843 579 880 617L818 641C787 611 746 584 699 561C681 585 664 612 650 643L945 665L940 725L626 702C611 744 600 791 592 840ZM506 405C513 358 523 313 535 270L404 261L409 199L554 210C573 158 596 110 623 70C552 36 472 11 392-7C405-22 425-54 432-69C511-47 591-18 664 18C720-43 791-80 878-83C923-84 952-49 970 48C954 54 929 69 913 84C906 17 894-12 872-11C819-9 771 15 729 55C794 94 849 140 889 194L825 219C792 175 744 136 687 103C664 135 644 173 627 215L957 239L953 300L606 275C594 316 584 359 578 405ZM63 240C82 250 112 256 322 289C326 271 330 253 332 239L392 260C384 313 356 398 327 465L270 447C283 415 296 379 307 344L149 323C229 417 309 536 373 655L311 691C289 644 262 596 235 552L133 544C189 620 244 718 287 813L220 842C179 733 110 617 89 588C68 557 51 537 34 532C42 514 53 480 57 466C71 472 92 477 196 489C160 435 128 392 113 375C83 337 61 312 40 307C49 288 60 255 63 240Z"/><animate attributeName="opacity" values="1;0;0;1;1" dur="2s" repeatCount="indefinite"/></svg><svg id="U7DABjp" viewBox="0 0 1000 1000"><path transform="translate(0, 900) scale(1,-1)" d="M680 802C729 781 793 746 826 721L874 764C840 786 777 820 727 839ZM650 376C701 353 768 315 803 288L851 330C815 354 748 390 696 412ZM296 255C320 197 341 121 346 71L405 90C398 139 377 214 351 271ZM89 268C77 181 59 91 26 30C42 24 71 11 84 2C115 66 139 163 152 258ZM519 840C527 790 538 741 552 696L397 685L401 623L574 636C591 597 610 561 632 529C559 500 477 478 399 462C411 448 429 418 437 403C514 422 596 449 671 481C725 426 792 393 873 390C915 390 942 420 960 509C944 515 919 530 905 544C898 486 887 461 868 462C821 464 778 483 741 515C797 544 846 579 884 617L823 642C791 611 748 583 699 558C680 583 663 611 648 642L939 664L934 724L624 701C609 744 598 790 590 840ZM516 414C523 364 533 316 546 271L399 261L404 199L566 210C584 158 607 111 634 71C550 32 455 3 359-17C371-32 391-64 399-79C493-55 588-22 673 20C729-42 798-80 883-83C927-85 956-49 973 47C958 54 933 69 918 83C910 17 899-12 877-11C825-9 778 16 738 56C801 95 856 140 896 193L832 219C799 175 752 137 697 104C675 136 655 173 638 215L958 237L953 298L617 276C604 319 594 365 587 414ZM28 398L37 331L195 341L195-80L261-80L261 345L340 350C349 326 357 304 361 285L421 313C406 367 366 454 324 519L269 497C285 471 300 442 314 412L170 405C237 490 314 604 371 696L308 726C280 672 242 606 201 543C186 564 168 586 147 609C184 665 228 747 262 815L196 840C175 784 139 708 107 651L76 679L37 631C82 588 132 531 162 485C140 455 119 426 99 401Z"/><animate attributeName="opacity" values="0;1;1;0;0" dur="2s" repeatCount="indefinite"/></svg></svg>