<svg id="U7DE0" viewBox="0 0 1000 1000"><svg id="U7DE0hk" viewBox="0 0 1000 1000"><path transform="translate(0, 900) scale(1,-1)" d="M185 189C197 116 208 22 210-41L267-30C265 32 253 125 240 198ZM84 197C74 110 59 15 34-50C50-55 78-64 91-71C113-6 132 95 144 187ZM282 208C303 144 327 61 336 7L391 24C381 77 356 159 334 222ZM603 825C614 801 625 774 632 748L413 748L413 683L777 683C766 642 746 584 728 542L553 542L600 555C593 588 576 642 557 682L499 668C514 629 531 575 537 542L397 542L397 382L462 382L462 483L882 483L882 383L949 383L949 542L794 542C811 579 829 625 845 665L781 683L937 683L937 748L704 748C696 778 682 814 666 843ZM443 346L443 17L508 17L508 282L632 282L632-79L701-79L701 282L837 282L837 89C837 80 835 77 824 77C814 76 784 76 746 77C754 58 763 32 766 13C817 13 852 14 875 25C899 36 904 55 904 88L904 346L701 346L701 452L632 452L632 346ZM66 240C84 250 115 257 327 288L338 229L396 247C389 300 364 390 339 459L283 446C294 416 304 381 313 347L156 327C235 420 314 537 377 652L316 688C295 643 269 598 244 556L137 547C192 623 245 721 288 815L222 843C182 733 113 616 91 587C71 556 54 535 37 531C45 513 55 480 59 466C74 472 96 477 202 490C165 434 132 391 117 373C86 336 64 311 43 306C51 288 62 254 66 240Z"/><animate attributeName="opacity" values="1;0;0;1;1" dur="2s" repeatCount="indefinite"/></svg><svg id="U7DE0jp" viewBox="0 0 1000 1000"><path transform="translate(0, 900) scale(1,-1)" d="M283 256C307 198 326 122 330 72L387 90C381 139 361 214 337 272ZM89 268C77 181 59 91 26 30C42 24 70 11 82 3C113 67 137 163 150 258ZM394 557L394 385L462 385L462 494L881 494L881 385L951 385L951 557L797 557C816 593 836 639 854 683L941 683L941 748L706 748L706 840L632 840L632 748L402 748L402 683L504 683L496 681C513 643 529 595 537 557ZM449 367L449 18L516 18L516 303L635 303L635-79L704-79L704 303L832 303L832 99C832 90 829 87 819 86C809 86 779 86 742 86C752 68 762 40 764 21C815 21 848 22 871 34C894 45 899 65 899 98L899 367L704 367L704 461L635 461L635 367ZM774 683C760 643 740 593 723 557L609 557C603 592 586 642 568 683ZM28 398L35 331L189 340L189-80L254-80L254 344L329 350C337 326 343 303 346 285L403 309C392 365 355 453 318 520L265 499C279 472 293 442 305 412L171 405C236 490 309 604 364 698L302 726C276 672 239 606 200 543C186 563 168 585 148 607C184 663 226 746 261 815L196 840C176 784 140 707 108 649L76 680L37 633C83 590 134 531 163 485C143 454 123 426 104 401Z"/><animate attributeName="opacity" values="0;1;1;0;0" dur="2s" repeatCount="indefinite"/></svg></svg>