<svg id="U7E64" viewBox="0 0 1000 1000"><path transform="translate(0, 900) scale(1,-1)" d="M248 550L759 550L759 515L248 515ZM248 478L759 478L759 441L248 441ZM248 621L759 621L759 586L248 586ZM311 50C264 21 181-6 108-24C123-35 145-57 155-68C227-46 317-8 370 30ZM617 23C690 1 785-39 837-66L882-26C829-1 734 36 662 59ZM628 840L628 778L368 778L368 840L294 840L294 778L62 778L62 721L294 721L294 676L368 676L368 721L628 721L628 676L702 676L702 721L943 721L943 778L702 778L702 840ZM203 59L204 60C226 68 259 71 480 84L480-16C480-26 477-30 463-30C451-31 409-31 361-30C370-45 382-65 387-81C449-81 490-82 517-73C545-65 552-52 552-18L552 88L755 99C776 82 795 65 808 51L857 86C821 122 753 172 692 208L645 179C662 168 681 156 699 143L407 128C498 158 589 194 679 240L640 278C611 263 580 248 549 234L405 231C448 249 491 273 533 300L509 317L638 317C710 254 825 198 925 171C934 186 952 210 966 221C883 239 792 274 725 317L950 317L950 370L426 370L451 401L833 401L833 662L176 662L176 401L372 401C364 391 354 380 344 370L55 370L55 317L280 317C218 274 138 235 41 206C54 195 72 173 80 157C205 200 301 254 373 317L466 317C411 280 347 251 326 243C304 235 284 230 268 229C272 215 281 187 283 175L284 176C298 181 321 183 438 187C376 163 324 145 299 138C254 125 216 116 188 114C194 99 201 71 203 59Z"/></svg>