<svg id="U7E9B" viewBox="0 0 1000 1000"><svg id="U7E9Bhk" viewBox="0 0 1000 1000"><path transform="translate(0, 900) scale(1,-1)" d="M141 58C118 25 78-7 38-31C51-38 74-57 84-67C124-39 169 4 196 43ZM351 34C382 7 421-32 440-58L484-27C466-2 426 35 394 61ZM597 73C570 34 527-4 483-32C496-39 518-55 528-64C571-34 620 14 649 59ZM794 52C834 17 882-31 905-63L950-32C927-1 878 46 838 78ZM145 390L145 146L457 146L457 390ZM801 189C816 176 832 161 847 146L652 133C726 168 800 212 874 266L829 294C808 277 785 261 762 246L644 238C681 257 719 281 755 308L732 324C786 338 837 353 878 369L837 406C762 373 624 338 507 315C512 305 520 288 523 277C577 287 635 300 691 313C647 279 598 251 580 243C562 234 546 231 531 229C536 217 543 193 546 183C558 188 578 192 692 202C651 177 617 159 600 152C569 137 542 128 521 127C527 113 535 87 537 76C551 81 571 85 697 95L697-12C697-20 695-23 685-23C675-24 647-24 611-23C618-37 627-56 631-72C679-72 711-72 732-63C754-55 758-43 758-13L758 101L879 110C895 92 908 75 916 60L958 90C935 127 885 180 841 216ZM213 599L198 531L52 531L52 494L188 494L169 425L705 425C703 419 700 416 698 413C692 406 685 405 672 405C659 405 626 406 589 409C595 399 601 382 601 374C641 370 681 369 701 371C724 371 744 376 758 390C765 397 771 408 776 425L893 425L893 463L785 463L789 494L950 494L950 531L793 531L797 574C798 583 799 599 799 599ZM256 494L414 494L443 463L248 463ZM265 531L272 562L448 562L478 531ZM719 494L715 463L506 463L477 494ZM723 531L542 531L513 562L726 562ZM462 840L462 801L131 801L131 763L462 763L462 734L182 734L182 699L462 699L462 668L67 668L67 629L935 629L935 668L534 668L534 699L827 699L827 734L534 734L534 763L873 763L873 801L534 801L534 840ZM402 285L402 255L198 255L198 285ZM198 351L402 351L402 322L198 322ZM402 219L402 185L198 185L198 219ZM54 325L54 74L253 74L253-25C253-33 250-35 241-36C232-36 206-36 173-35C180-50 188-67 190-82C236-82 267-82 287-74C307-66 312-54 312-26L312 74L498 74L498 117L108 117L108 325Z"/><animate attributeName="opacity" values="1;0;0;0;0;0;0;0;0;1;1" dur="5s" repeatCount="indefinite"/></svg><svg id="U7E9Bjp" viewBox="0 0 1000 1000"><path transform="translate(0, 900) scale(1,-1)" d="M246 290L404 290L404 261L246 261ZM246 227L404 227L404 195L246 195ZM246 352L404 352L404 324L246 324ZM189 387L189 161L462 161L462 387ZM161 62C136 25 92-12 49-39C62-47 84-65 95-74C138-44 187 2 216 47ZM596 71C570 32 527-6 483-35C497-43 520-60 530-69C573-38 621 11 651 56ZM355 37C386 12 421-23 439-46L484-14C466 8 429 41 399 64ZM792 48C835 15 882-33 903-67L950-35C928-2 879 45 837 76ZM462 840L462 801L131 801L131 763L462 763L462 734L182 734L182 699L462 699L462 668L67 668L67 629L935 629L935 668L534 668L534 699L827 699L827 734L534 734L534 763L873 763L873 801L534 801L534 840ZM213 597L198 529L52 529L52 492L189 492C182 464 174 437 167 415L234 409L238 423L705 423C702 417 700 413 697 410C691 403 684 402 670 402C656 402 619 403 579 407C585 396 591 380 591 371C637 367 680 366 702 367C725 368 744 373 758 387C765 395 771 406 776 423L893 423L893 461L785 461L789 492L950 492L950 529L793 529L797 572C798 581 799 597 799 597ZM256 492L444 492L438 461L248 461ZM265 529L272 560L454 560L450 529ZM513 492L719 492L715 461L506 461ZM519 529L524 560L726 560L723 529ZM83 367L83 79L263 79L263-80L330-80L330 79L489 79L489 129L142 129L142 367ZM790 185C805 174 821 162 836 148L682 145C740 189 804 243 853 291L806 320C774 285 729 242 682 202C670 215 652 229 634 243C663 266 696 296 725 325C794 332 861 341 913 353L873 391C788 373 632 357 503 349C509 338 515 320 517 310C558 312 602 314 646 317C631 301 613 284 597 269L568 288L530 256C568 231 613 195 642 169L608 143L506 142L517 92L692 99L692-79L760-79L760 102L881 107C894 93 904 80 912 69L958 101C934 135 880 182 834 214Z"/><animate attributeName="opacity" values="0;1;1;0;0;0;0;0;0;0;0" dur="5s" repeatCount="indefinite"/></svg><svg id="U7E9Bkr" viewBox="0 0 1000 1000"><path transform="translate(0, 900) scale(1,-1)" d="M246 290L404 290L404 261L246 261ZM246 227L404 227L404 195L246 195ZM246 352L404 352L404 324L246 324ZM189 387L189 161L462 161L462 387ZM161 62C136 25 92-12 49-39C62-47 84-65 95-74C138-44 187 2 216 47ZM596 71C570 32 527-6 483-35C497-43 520-60 530-69C573-38 621 11 651 56ZM355 37C386 12 421-23 439-46L484-14C466 8 429 41 399 64ZM792 48C835 15 882-33 903-67L950-35C928-2 879 45 837 76ZM462 840L462 801L131 801L131 763L462 763L462 734L182 734L182 699L462 699L462 668L67 668L67 629L935 629L935 668L534 668L534 699L827 699L827 734L534 734L534 763L873 763L873 801L534 801L534 840ZM389 550C421 545 459 537 491 528L264 528L272 561L398 561ZM52 533L52 489L188 489L167 415L234 409L238 423L705 423C702 417 700 413 697 410C691 403 684 402 670 402C656 402 619 403 579 407C585 396 591 380 591 371C637 367 680 366 702 367C725 368 744 373 758 387C765 395 771 406 776 423L893 423L893 460L785 460L789 489L950 489L950 533L794 533L797 572C798 581 799 597 799 597L213 597L199 533ZM367 478C400 476 438 469 471 460L248 460L256 494L379 494ZM726 561L723 528L548 528L558 541C541 548 516 555 490 561ZM714 460L534 460L543 472C523 480 493 488 462 494L720 494ZM83 367L83 79L263 79L263-80L330-80L330 79L489 79L489 129L142 129L142 367ZM790 185C805 174 821 162 836 148L682 145C740 189 804 243 853 291L806 320C774 285 729 242 682 202C670 215 652 229 634 243C663 266 696 296 725 325C794 332 861 341 913 353L873 391C788 373 632 357 503 349C509 338 515 320 517 310C558 312 602 314 646 317C631 301 613 284 597 269L568 288L530 256C568 231 613 195 642 169L608 143L506 142L517 92L692 99L692-79L760-79L760 102L881 107C894 93 904 80 912 69L958 101C934 135 880 182 834 214Z"/><animate attributeName="opacity" values="0;0;0;1;1;0;0;0;0;0;0" dur="5s" repeatCount="indefinite"/></svg><svg id="U7E9Bsc" viewBox="0 0 1000 1000"><path transform="translate(0, 900) scale(1,-1)" d="M159 62C134 26 90-8 47-34C60-42 84-60 93-70C136-41 186 5 214 47ZM353 34C382 10 418-24 435-47L480-16C462 7 426 39 396 61ZM598 73C570 34 527-4 484-32C497-40 519-55 529-65C570-33 618 14 649 57ZM796 53C838 19 885-29 906-62L949-32C928 0 880 47 837 78ZM462 840L462 801L131 801L131 763L462 763L462 735L182 735L182 700L462 700L462 670L67 670L67 631L935 631L935 670L534 670L534 700L827 700L827 735L534 735L534 763L873 763L873 801L534 801L534 840ZM213 601L196 520L52 520L52 482L186 482C179 452 171 423 164 400L725 400L718 375L786 370L794 400L891 400L891 437L803 437L813 482L951 482L951 520L821 520L838 601ZM387 460C417 455 451 446 481 437L242 437L253 482L404 482ZM426 543C456 537 489 529 519 520L262 520L272 564L441 564ZM746 482L735 437L552 437L558 446C528 460 477 474 431 482ZM755 520L591 520L596 529C568 542 520 556 475 564L764 564ZM802 180L837 146L645 133C712 167 779 209 844 259L800 286C781 270 760 254 739 239L630 233C659 252 688 276 714 302L700 310C776 318 848 329 903 342L866 380C783 359 628 343 503 336C509 325 515 308 518 297C561 299 606 302 652 306C621 274 584 247 572 240C558 231 546 228 533 227C538 214 546 189 548 179C560 184 578 187 672 194C636 172 607 156 593 149C565 135 541 126 523 125C528 111 535 85 538 74C552 80 573 84 699 94L699-11C699-20 696-23 686-23C675-24 645-24 606-22C615-37 625-56 629-72C679-72 711-73 733-64C755-56 761-42 761-12L761 99L873 108C888 89 902 71 911 56L956 86C933 120 886 169 843 205ZM64 104L64 68L263 68L263-14C263-22 261-25 250-25C240-26 209-26 171-25C178-39 189-59 193-75C243-75 276-75 298-66C320-57 326-44 326-15L326 68L507 68L507 104L447 104L447 365L127 365L127 104ZM188 260L385 260L385 232L188 232ZM188 294L188 323L385 323L385 294ZM188 198L385 198L385 169L188 169ZM188 134L385 134L385 104L188 104Z"/><animate attributeName="opacity" values="0;0;0;0;0;1;1;0;0;0;0" dur="5s" repeatCount="indefinite"/></svg><svg id="U7E9Btc" viewBox="0 0 1000 1000"><path transform="translate(0, 900) scale(1,-1)" d="M153 59C129 26 90-6 50-30C63-38 86-56 95-66C136-38 181 4 208 43ZM351 34C382 7 421-32 440-58L484-27C466-2 426 35 394 61ZM597 73C570 34 527-4 483-32C496-39 518-55 528-64C571-34 620 14 649 59ZM794 52C834 17 882-31 905-63L950-32C927-1 878 46 838 78ZM109 363L109 106L58 106L58 68L247 68L247-77L306-77L306 68L496 68L496 106L445 106L445 363L428 363C447 381 463 402 477 425L705 425C703 419 700 416 698 413C693 406 686 405 674 405C662 405 632 406 599 409C605 399 611 382 612 374C650 370 687 369 705 371C727 371 745 376 759 390C766 397 772 408 777 425L893 425L893 463L785 463L790 494L950 494L950 531L793 531L797 575C798 583 799 599 799 599L213 599L198 531L52 531L52 494L188 494L169 425L403 425C389 408 373 393 356 380C367 377 384 370 398 363ZM169 106L169 134L383 134L383 106ZM801 189C816 176 832 161 847 146L652 133C726 168 800 212 874 266L829 294C808 277 785 261 762 246L644 238C681 257 719 281 755 308L732 324C786 338 837 353 878 369L837 406C762 373 624 338 507 315C512 305 520 288 523 277C577 287 635 300 691 313C647 279 598 251 580 243C562 234 546 231 531 229C536 217 543 193 546 183C558 188 578 192 692 202C651 177 617 159 600 152C569 137 542 128 521 127C527 113 535 87 537 76C551 81 571 85 695 95L695-7C695-15 693-18 683-19C673-19 645-19 609-18C616-33 622-51 624-67C675-67 708-67 730-59C752-51 756-38 756-8L756 100L879 110C895 92 908 75 916 60L958 90C935 127 885 180 841 216ZM445 494L429 463L248 463L256 494ZM459 531L265 531L272 562L467 562ZM512 494L719 494L715 463L498 463ZM525 531L534 562L726 562L723 531ZM462 840L462 801L131 801L131 763L462 763L462 734L182 734L182 699L462 699L462 668L67 668L67 629L935 629L935 668L534 668L534 699L827 699L827 734L534 734L534 763L873 763L873 801L534 801L534 840ZM169 260L383 260L383 231L169 231ZM169 294L169 321L383 321L383 294ZM169 197L383 197L383 169L169 169Z"/><animate attributeName="opacity" values="0;0;0;0;0;0;0;1;1;0;0" dur="5s" repeatCount="indefinite"/></svg></svg>