<svg id="U7E7D" viewBox="0 0 1000 1000"><svg id="U7E7Dhk" viewBox="0 0 1000 1000"><path transform="translate(0, 900) scale(1,-1)" d="M180 191C192 117 202 20 204-43L261-33C258 30 247 125 234 200ZM84 197C74 109 58 13 33-53C50-57 78-67 91-73C113-8 132 94 144 187ZM267 208C288 149 312 71 322 21L374 38C363 88 338 164 316 223ZM515 269L818 269L818 218L515 218ZM515 172L818 172L818 120L515 120ZM515 365L818 365L818 315L515 315ZM715 23C794-10 881-53 935-82L968-30C912-2 823 38 743 71ZM592 71C539 39 437-3 368-28C379-43 393-67 400-81C473-54 572-14 648 24ZM526 575C492 541 434 509 379 485C393 475 414 452 423 441C479 469 544 514 583 558ZM66 240C83 250 111 257 297 284C301 262 305 242 307 226L364 242C357 296 333 386 308 456L254 444C264 412 275 376 284 340L151 324C227 416 301 533 361 647L300 682C280 638 256 594 232 552L132 543C185 620 236 718 277 813L210 840C174 731 109 616 88 587C70 556 53 535 37 531C45 513 55 480 59 466C73 472 94 477 194 489C159 434 128 390 113 373C85 336 64 310 43 306C51 288 62 254 66 240ZM821 577C788 547 743 520 691 497L691 591L826 591L826 643L494 643L494 591L624 591L624 471C539 442 442 420 350 405C363 392 382 363 389 349L449 362L449 72L887 72L887 413L627 413C728 448 820 494 882 553ZM389 751L389 610L454 610L454 696L863 696L863 610L930 610L930 751L702 751C694 779 682 814 669 842L598 829C607 805 617 776 625 751Z"/><animate attributeName="opacity" values="1;0;0;1;1" dur="2s" repeatCount="indefinite"/></svg><svg id="U7E7Djp" viewBox="0 0 1000 1000"><path transform="translate(0, 900) scale(1,-1)" d="M504 586C480 547 440 509 399 480C414 471 440 453 451 443C491 474 537 523 566 568ZM533 272L838 272L838 217L533 217ZM533 171L838 171L838 115L533 115ZM533 373L838 373L838 319L533 319ZM286 257C306 205 325 137 332 92L387 110C380 153 360 221 339 272ZM87 268C76 181 59 91 27 30C42 24 71 11 84 3C114 67 136 163 149 258ZM391 759L391 607L457 607L457 703L876 703L876 607L945 607L945 759L699 759L699 841L624 841L624 759ZM734 28C798-4 868-46 907-79L970-39C925-6 851 35 783 66L907 66L907 422L647 422C743 458 832 502 895 556L834 583C798 553 749 526 694 502L694 602L834 602L834 653L496 653L496 602L626 602L626 475C548 447 463 425 383 410C398 397 420 370 430 356L466 365L466 66L564 66C519 30 432-10 357-31C372-44 393-66 404-80C482-56 574-12 631 33L576 66L780 66ZM36 394L44 328L191 337L191-80L256-80L256 341L328 346C334 326 339 308 342 293L399 316C387 370 351 456 312 521L260 502C276 473 292 439 305 406L171 399C235 485 307 604 362 699L298 726C273 672 238 606 201 544C187 565 167 588 146 611C183 667 226 748 260 816L194 840C174 785 138 710 106 653L79 678L40 630C85 587 135 527 163 482C143 451 123 422 104 396Z"/><animate attributeName="opacity" values="0;1;1;0;0" dur="2s" repeatCount="indefinite"/></svg></svg>