<svg id="U7E04" viewBox="0 0 1000 1000"><svg id="U7E04jp" viewBox="0 0 1000 1000"><path transform="translate(0, 900) scale(1,-1)" d="M296 255C320 197 341 121 346 71L405 90C398 139 377 214 351 271ZM89 268C77 181 59 91 26 30C42 24 71 11 84 2C115 66 139 163 152 258ZM638 212L638 127L495 127L495 212ZM707 212L863 212L863 127L707 127ZM638 268L495 268L495 352L638 352ZM707 268L707 352L863 352L863 268ZM505 605L638 605L638 524L505 524ZM707 605L845 605L845 524L707 524ZM505 738L638 738L638 658L505 658ZM707 738L845 738L845 658L707 658ZM427 409L427 15L495 15L495 70L638 70L638 27C638-60 660-82 741-82C758-82 865-82 883-82C949-82 969-53 976 36C957 41 931 50 915 62C911-6 906-23 879-23C857-23 767-23 751-23C713-23 707-15 707 26L707 70L932 70L932 409L707 409L707 469L913 469L913 793L439 793L439 469L638 469L638 409ZM28 398L34 331L195 340L195-80L261-80L261 345L340 350C349 326 357 304 361 285L421 313C406 367 366 454 324 519L269 497C285 471 300 442 314 412L170 405C237 490 314 604 371 696L308 726C280 672 242 606 201 543C186 564 168 586 147 609C184 665 228 747 262 815L196 840C175 784 139 708 107 651L76 679L37 631C82 588 132 531 162 485C140 455 119 426 99 401Z"/><animate attributeName="opacity" values="1;0;0;1;1" dur="2s" repeatCount="indefinite"/></svg><svg id="U7E04sc" viewBox="0 0 1000 1000"><path transform="translate(0, 900) scale(1,-1)" d="M186 187C198 120 210 31 213-26L266-15C262 44 249 130 236 198ZM94 197C82 115 65 26 38-35C53-39 79-48 90-54C113 8 134 101 147 186ZM291 204C313 143 337 64 346 12L396 29C386 80 361 158 339 219ZM63 238C81 249 111 257 327 298L340 242L391 260C382 309 355 390 329 453L279 440C290 413 301 382 311 352L149 324C228 418 304 535 367 652L309 683C289 640 264 595 240 554L129 544C180 620 230 717 268 811L204 838C169 730 106 614 85 585C67 554 51 534 35 530C43 512 53 480 57 466C70 472 92 477 201 492C163 433 129 386 113 367C83 330 62 304 42 300C50 283 60 252 63 238ZM629 227L629 149L488 149L488 227ZM696 227L850 227L850 149L696 149ZM629 283L488 283L488 358L629 358ZM696 283L696 358L850 358L850 283ZM503 611L629 611L629 532L503 532ZM696 611L826 611L826 532L696 532ZM503 739L629 739L629 662L503 662ZM696 739L826 739L826 662L696 662ZM423 414L423 34L488 34L488 92L629 92L629 39C629-42 650-64 732-64C749-64 860-64 878-64C944-64 962-39 969 39C950 43 926 52 911 62C907 4 902-10 874-10C852-10 757-10 740-10C701-10 696-2 696 38L696 92L916 92L916 414L696 414L696 477L892 477L892 793L437 793L437 477L629 477L629 414Z"/><animate attributeName="opacity" values="0;1;1;0;0" dur="2s" repeatCount="indefinite"/></svg></svg>