<svg id="U7E19" viewBox="0 0 1000 1000"><path transform="translate(0, 900) scale(1,-1)" d="M187 189C199 121 210 33 212-26L269-12C265 46 254 133 242 201ZM81 197C71 116 57 26 33-35C49-40 77-50 90-57C111 6 129 100 140 186ZM296 210C318 149 343 69 353 17L406 35C396 87 370 165 347 226ZM760 840L760 741L605 741L605 840L536 840L536 741L394 741L394 676L536 676L536 593L605 593L605 676L760 676L760 593L831 593L831 676L952 676L952 741L831 741L831 840ZM421 89L428 21L796 52L796-81L865-81L865 58L960 66L961 129L865 121L865 494L944 494L944 559L404 559L404 494L492 494L492 94ZM561 494L796 494L796 402L561 402ZM561 344L796 344L796 252L561 252ZM561 193L796 193L796 116L561 98ZM63 240C81 250 112 258 339 293C344 275 348 258 351 244L407 266C397 318 367 401 335 465L283 447C297 416 310 381 322 347L148 323C227 417 305 536 369 654L310 688C288 642 262 595 236 552L129 543C185 619 239 717 282 812L218 839C178 730 110 615 88 586C68 555 51 535 34 531C42 513 52 480 56 466C70 472 91 477 198 490C161 434 129 390 113 372C83 335 61 310 41 305C49 287 59 254 63 240Z"/></svg>