<svg id="U7EF3" viewBox="0 0 1000 1000"><path transform="translate(0, 900) scale(1,-1)" d="M513 734L818 734L818 632L513 632ZM42 53L58-19C145 9 258 43 367 78L355 141C238 107 121 73 42 53ZM450 795L450 571L628 571L628 498L413 498L413 60L484 60L484 121L628 121L628 35C628-46 652-67 732-67C748-67 847-67 864-67C934-67 953-33 960 79C941 83 915 94 899 105C896 10 891-10 859-10C839-10 758-10 741-10C705-10 699-3 699 35L699 121L920 121L920 498L699 498L699 571L884 571L884 795ZM484 436L628 436L628 340L484 340ZM484 184L484 280L628 280L628 184ZM699 436L851 436L851 340L699 340ZM699 184L699 280L851 280L851 184ZM60 423C74 430 98 436 217 452C174 388 135 337 117 317C86 280 64 255 43 251C51 232 62 197 66 182C87 194 120 203 361 252C359 268 360 296 362 316L170 281C246 370 321 480 384 590L320 628C302 591 281 554 259 518L137 506C197 592 257 701 301 806L228 839C187 719 115 590 92 558C71 523 52 501 34 496C43 476 56 438 60 423Z"/></svg>