<svg id="U7EE0" viewBox="0 0 1000 1000"><path transform="translate(0, 900) scale(1,-1)" d="M43 53L57-19C142 3 254 30 362 58L355 122C239 95 122 69 43 53ZM467 240L400 221C427 164 463 115 508 75C457 35 383 1 275-23C290-39 309-68 318-84C431-55 510-15 565 32C657-29 778-64 927-81C937-60 956-30 972-13C824-1 704 29 614 83C655 136 674 196 682 259L924 259L924 630L688 630L688 711L954 711L954 777L366 777L366 711L615 711L615 630L390 630L390 259L609 259C602 211 587 166 556 124C518 157 488 195 467 240ZM459 416L615 416L615 359L614 319L459 319ZM688 416L853 416L853 319L687 319L688 359ZM459 570L615 570L615 474L459 474ZM688 570L853 570L853 474L688 474ZM61 423C76 430 99 436 215 452C173 385 133 332 116 312C88 277 67 254 46 250C55 231 66 195 70 180C90 192 122 200 355 248C353 263 353 291 355 311L173 279C241 362 309 463 365 564L300 602C287 574 271 546 256 518L138 506C197 592 254 701 297 806L226 838C187 718 116 589 94 556C72 521 55 498 37 494C46 474 58 438 61 423Z"/></svg>