<svg id="U7E36" viewBox="0 0 1000 1000"><svg id="U7E36hk" viewBox="0 0 1000 1000"><path transform="translate(0, 900) scale(1,-1)" d="M617 78C698 41 801-18 856-57L914-14C857 22 754 78 674 115ZM286 105C228 62 143 13 68-20C84-30 110-52 122-64C194-28 283 30 348 79ZM535 585L609 539C586 489 551 451 496 423C509 412 527 390 534 376C595 408 635 450 662 505C691 485 716 467 735 453L771 501C749 517 718 538 683 559C694 595 701 635 706 679L793 679L784 452C782 395 805 378 853 378L887 378C954 378 961 421 967 526C950 531 931 539 915 554C912 460 907 433 887 433L864 433C851 433 845 438 846 460L858 737L711 737L715 840L651 840L647 737L533 737L533 679L643 679C639 648 635 619 628 593L571 627ZM154 626C162 610 172 590 179 573L91 573L91 524L250 524L250 474L66 474L66 426L250 426L250 362L315 362L315 426L484 426L484 474L315 474L315 524L461 524L461 573L388 573L427 627L373 644L502 644L502 691L319 691L319 738L460 738L460 787L319 787L319 843L252 843L252 787L96 787L96 738L252 738L252 691L53 691L53 644L363 644C355 623 339 595 325 573L226 573L239 578C233 595 219 624 206 644ZM157 232C175 239 203 244 402 261C327 229 266 206 235 196C176 176 132 163 99 160C105 144 113 117 116 102L116 96C142 106 180 111 472 132L472 3C472-9 467-12 452-13C436-14 381-14 320-12C330-29 343-52 348-70C423-70 472-70 504-61C536-51 545-36 545 1L545 137L789 154C821 123 850 93 870 71L926 106C881 155 792 234 728 290L675 260L740 201L324 174C458 220 593 278 725 351L679 399C628 369 573 340 519 314L301 298C360 323 420 354 478 389L432 424C353 368 246 320 215 307C185 296 161 289 141 288C147 273 155 244 157 232Z"/><animate attributeName="opacity" values="1;0;0;1;1" dur="2s" repeatCount="indefinite"/></svg><svg id="U7E36jp" viewBox="0 0 1000 1000"><path transform="translate(0, 900) scale(1,-1)" d="M631 76C715 38 821-22 872-62L930-21C872 21 767 77 685 113ZM296 110C236 61 141 14 54-17C70-28 97-53 109-66C193-29 295 27 361 85ZM65 174L69 113L461 121L461-80L535-80L535 123L817 130C842 111 865 93 881 77L936 116C883 166 778 231 693 272L641 236C674 220 709 200 743 179L456 176C533 221 616 278 682 328L617 362C568 319 495 265 424 219C405 232 382 247 357 261C404 291 457 329 501 367L440 399C407 366 353 322 306 289C279 303 252 316 228 327L177 287C239 259 314 216 362 181L351 175ZM521 576C549 562 579 546 608 528C584 473 546 431 485 401C498 391 517 368 524 353C591 387 633 433 661 492C689 473 712 453 729 436L767 486C747 506 717 528 683 550C694 588 701 630 705 677L794 677C795 465 801 355 894 355C942 355 956 388 962 481C949 490 930 506 918 520C916 457 912 415 898 415C856 415 858 523 859 736L710 736L714 840L649 840L646 736L527 736L527 677L641 677C638 643 633 612 626 584C603 597 579 610 557 620ZM143 621C154 604 165 583 171 564L68 564L68 514L254 514L254 466L93 466L93 416L254 416L254 349L323 349L323 416L485 416L485 466L323 466L323 514L508 514L508 564L397 564L436 624L400 635L521 635L521 684L323 684L323 732L479 732L479 782L323 782L323 839L254 839L254 782L96 782L96 732L254 732L254 684L53 684L53 635L181 635ZM199 635L371 635C362 614 348 584 336 564L235 564C229 584 215 613 199 635Z"/><animate attributeName="opacity" values="0;1;1;0;0" dur="2s" repeatCount="indefinite"/></svg></svg>