<svg id="U7E7A" viewBox="0 0 1000 1000"><svg id="U7E7Ahk" viewBox="0 0 1000 1000"><path transform="translate(0, 900) scale(1,-1)" d="M167 187C177 122 188 38 190-17L244-5C242 51 230 133 218 198ZM81 197C72 116 57 26 33-35C48-39 75-48 87-54C107 7 126 101 137 187ZM254 203C274 149 295 78 304 33L355 51C346 95 324 165 303 218ZM541 132C553 70 561-10 562-57L621-47C620-2 610 76 596 137ZM669 135C694 74 717-7 725-55L783-41C774 6 749 85 723 144ZM815 141C849 80 884-3 898-54L953-30C939 20 903 100 868 161ZM429 157C410 93 377 12 345-39L405-68C437-12 469 78 489 145ZM68 240C85 250 112 258 290 291L301 238L354 254C345 304 321 388 296 453L246 440C256 411 266 378 275 346L147 324C217 420 284 541 338 659L276 688C259 642 237 594 215 550L131 543C175 621 219 721 251 815L184 842C157 733 103 616 86 587C70 556 56 534 41 531C48 513 59 480 63 466C75 472 95 477 182 488C151 433 124 390 111 372C85 334 66 307 47 303C54 286 65 254 68 240ZM478 839C453 767 408 674 342 602C357 594 378 579 390 566L390 516L573 516L573 430L357 430L357 370L573 370L573 278L386 278L386 218L636 218L636 370L694 370L694 430L636 430L636 576L575 576C601 621 630 677 649 726L608 753L598 750L510 750C523 777 534 804 543 829ZM402 576C433 612 459 652 481 692L567 692C551 652 530 609 511 576ZM755 628L858 628C850 569 839 516 822 468C802 497 781 526 761 552L716 530C731 560 744 593 755 628ZM739 829C721 711 689 598 638 522C652 510 672 481 680 468C692 485 703 504 713 525C740 488 768 445 796 402C763 333 717 278 656 236C668 226 689 202 695 189C752 231 797 282 831 344C863 293 891 244 909 207L963 239C941 283 904 345 862 408C888 472 906 545 918 628L954 628L954 693L774 693C785 733 794 775 801 818Z"/><animate attributeName="opacity" values="1;0;0;1;1" dur="2s" repeatCount="indefinite"/></svg><svg id="U7E7Asc" viewBox="0 0 1000 1000"><path transform="translate(0, 900) scale(1,-1)" d="M164 187C175 122 185 38 188-17L238-5C236 50 225 132 213 197ZM80 197C70 116 56 26 32-35C46-39 72-48 83-54C103 8 122 102 132 187ZM250 203C270 149 290 78 299 33L348 50C339 95 317 164 296 217ZM541 132C553 70 561-10 562-57L621-47C620-2 610 76 596 137ZM669 135C694 74 717-7 725-55L783-41C774 6 749 85 723 144ZM815 141C849 80 884-3 898-54L953-30C939 20 903 100 868 161ZM429 157C410 93 377 12 345-39L405-68C437-12 469 78 489 145ZM68 240C85 250 111 258 289 293L301 238L353 255C344 305 320 388 295 453L246 440C256 411 266 379 275 347L146 325C216 418 284 537 339 652L281 682C264 638 242 593 221 551L131 543C177 620 222 718 255 812L193 838C164 730 106 614 88 585C71 554 57 533 41 530C49 512 59 480 63 466C76 472 96 477 187 489C155 432 126 387 112 369C86 332 66 306 48 302C55 285 65 254 68 240ZM478 839C453 767 408 674 342 602C358 594 379 578 391 565L391 516L574 516L574 425L404 425L404 365L574 365L574 278L384 278L384 218L636 218L636 576L575 576C601 621 630 677 649 726L608 753L598 750L510 750C523 777 534 804 543 829ZM402 576C433 612 459 652 481 692L567 692C551 652 530 609 511 576ZM756 628L858 628C849 558 834 495 812 440C785 502 766 567 755 624ZM739 829C721 710 691 595 640 519C653 507 674 478 681 465C696 487 710 512 722 539C736 486 756 429 782 375C750 319 709 272 656 236C668 226 689 202 695 189C743 224 783 266 814 316C842 272 874 231 913 200C922 216 941 239 954 250C911 281 875 324 846 373C881 445 904 529 918 628L954 628L954 693L775 693C785 733 794 776 801 818Z"/><animate attributeName="opacity" values="0;1;1;0;0" dur="2s" repeatCount="indefinite"/></svg></svg>