<svg id="U7E81" viewBox="0 0 1000 1000"><svg id="U7E81hk" viewBox="0 0 1000 1000"><path transform="translate(0, 900) scale(1,-1)" d="M179 191C191 117 202 21 203-42L259-33C256 31 245 126 232 200ZM84 197C74 109 58 13 33-53C49-57 78-66 91-73C113-7 132 94 143 187ZM270 207C289 148 311 71 319 21L370 36C361 85 339 162 317 220ZM446 107C427 54 391-7 344-42L396-75C447-35 479 28 500 85ZM797 80C841 30 891-39 912-82L967-53C945-10 893 58 849 106ZM547 77C560 30 571-32 573-73L631-62C629-22 617 40 601 87ZM523 497C540 467 558 427 564 401L604 419C597 444 580 483 561 513ZM667 76C695 30 721-30 731-71L786-50C776-12 748 49 720 93ZM768 516C759 488 741 446 728 419L763 404C778 428 796 463 813 498ZM66 240C84 250 113 256 314 286L325 225L383 241C375 296 350 387 325 458L271 444C281 413 291 378 300 343L151 324C228 418 302 538 364 655L303 690C282 643 257 596 232 552L132 543C185 621 236 719 277 815L212 842C175 732 109 616 89 586C70 555 54 534 37 530C45 513 55 480 59 466C72 472 94 477 194 489C159 434 129 391 114 373C85 336 64 310 43 305C51 287 62 254 66 240ZM424 576L424 342L630 342L630 291L422 291L422 237L630 237L630 176L376 176L376 116L956 116L956 176L698 176L698 237L920 237L920 291L698 291L698 342L913 342L913 576L698 576L698 629L949 629L949 687L698 687L698 750C777 758 852 769 909 783L864 832C761 807 566 792 408 786C415 772 424 749 425 734C490 736 560 739 630 744L630 687L380 687L380 629L630 629L630 576ZM482 530L637 530L637 389L482 389ZM691 530L852 530L852 389L691 389Z"/><animate attributeName="opacity" values="1;0;0;1;1" dur="2s" repeatCount="indefinite"/></svg><svg id="U7E81jp" viewBox="0 0 1000 1000"><path transform="translate(0, 900) scale(1,-1)" d="M444 109C426 54 392-9 345-46L399-80C448-38 479 28 500 87ZM808 85C848 34 892-36 911-80L970-51C950-8 904 60 864 110ZM546 85C562 34 573-31 573-75L634-63C632-20 620 45 602 95ZM520 497C537 468 554 428 560 403L601 422C595 446 578 485 559 514ZM674 82C703 34 732-30 742-73L797-51C786-9 757 54 727 101ZM783 518C772 490 751 446 734 419L771 403C788 429 809 465 829 500ZM283 256C307 198 326 122 330 72L387 90C381 139 361 214 337 272ZM89 268C77 181 59 91 26 30C42 24 70 11 82 3C113 67 137 163 150 258ZM427 579L427 347L637 347L637 295L424 295L424 243L637 243L637 180L396 180L396 123L950 123L950 180L706 180L706 243L926 243L926 295L706 295L706 347L921 347L921 579L706 579L706 636L950 636L950 687L706 687L706 750C788 757 865 766 925 779L881 828C772 804 568 791 403 787C410 773 417 751 420 737C488 737 563 740 636 745L636 687L385 687L385 636L636 636L636 579ZM488 531L643 531L643 395L488 395ZM700 531L856 531L856 395L700 395ZM28 398L37 331L189 340L189-80L254-80L254 344L329 350C337 326 343 303 346 285L403 309C392 365 355 453 318 520L265 499C279 472 293 442 305 412L171 405C236 490 309 604 364 698L302 726C276 672 239 606 200 543C186 563 168 585 148 607C184 663 226 746 261 815L196 840C176 784 140 707 108 649L76 680L37 633C83 590 134 531 163 485C143 454 123 426 104 401Z"/><animate attributeName="opacity" values="0;1;1;0;0" dur="2s" repeatCount="indefinite"/></svg></svg>