<svg id="U7E5A" viewBox="0 0 1000 1000"><svg id="U7E5Ahk" viewBox="0 0 1000 1000"><path transform="translate(0, 900) scale(1,-1)" d="M542 324L798 324L798 252L542 252ZM542 447L798 447L798 376L542 376ZM502 151C472 92 421 33 368-8C384-17 411-37 424-49C476-4 533 66 568 132ZM770 123C817 71 870-1 894-46L951-11C926 34 871 103 825 153ZM183 191C195 117 206 20 207-43L266-33C264 31 252 126 240 200ZM84 197C74 109 58 13 33-53C50-57 80-67 94-74C115-8 135 93 146 186ZM278 209C297 153 320 78 329 30L384 48C374 95 351 169 330 224ZM889 649C871 627 843 596 817 571C794 602 773 636 757 671L946 671L946 735L670 735C680 766 688 798 695 831L628 840C620 803 611 768 600 735L393 735L393 671L576 671C562 638 546 607 528 579C508 601 479 627 453 646L412 604C440 582 470 552 490 527C457 487 419 453 375 425C390 413 415 386 424 373C443 386 460 400 477 415L477 198L636 198L636-3C636-12 633-15 621-15C611-16 577-16 537-15C546-34 556-60 558-80C614-80 650-80 675-69C700-58 706-39 706-4L706 198L865 198L865 422C884 405 903 391 923 379C934 396 955 421 970 434C928 456 888 488 853 527C880 551 911 579 940 609ZM648 671L692 671C716 610 750 552 790 501L555 501C592 551 623 607 648 671ZM66 240C84 250 115 256 316 287L327 228L386 246C379 299 353 389 329 458L272 444C283 414 293 379 302 345L153 326C232 420 310 537 373 654L310 690C289 644 263 598 238 554L135 546C188 622 242 721 283 815L216 843C178 733 111 617 90 588C70 557 53 536 36 532C44 514 55 480 59 466C73 472 95 477 197 489C162 435 130 392 115 375C85 338 64 312 43 307C51 289 62 255 66 240Z"/><animate attributeName="opacity" values="1;0;0;1;1" dur="2s" repeatCount="indefinite"/></svg><svg id="U7E5Ajp" viewBox="0 0 1000 1000"><path transform="translate(0, 900) scale(1,-1)" d="M775 137C820 84 871 9 895-38L953-7C930 40 879 111 831 164ZM485 164C458 100 412 36 361-7C378-16 406-34 419-44C468 3 520 75 550 148ZM524 329L809 329L809 255L524 255ZM524 452L809 452L809 380L524 380ZM286 257C306 205 325 137 332 92L387 110C380 153 360 221 339 272ZM87 268C76 181 59 91 27 30C42 24 71 11 84 3C114 67 136 163 149 258ZM625 842C618 806 608 770 595 735L395 735L395 672L568 672C553 640 534 609 513 579C491 601 462 625 436 643L396 599C422 579 451 553 473 530C440 493 401 460 357 434C344 464 328 494 312 521L260 502C276 473 292 439 305 406L171 399C235 485 307 604 362 699L298 726C273 672 238 606 201 544C187 565 167 588 146 611C183 667 226 748 260 816L194 840C174 785 138 710 106 653L79 678L40 630C85 587 135 527 163 482C143 451 123 422 104 396L36 394L44 328L191 337L191-80L256-80L256 341L328 346C334 326 339 308 342 293L399 316C392 345 379 384 362 424C375 412 392 395 401 385C422 398 442 412 461 427L461 202L632 202L632-3C632-13 629-16 617-16C606-17 568-17 525-15C534-34 544-61 546-80C605-81 644-80 670-69C696-58 702-40 702-4L702 202L876 202L876 422C894 407 913 395 932 384C942 401 963 426 978 439C937 459 898 489 862 525C892 549 925 579 956 610L901 651C883 627 852 594 825 568C800 600 777 636 760 672L951 672L951 735L666 735C678 767 687 799 695 831ZM691 672C716 612 751 555 792 505L539 505C581 555 615 612 641 672Z"/><animate attributeName="opacity" values="0;1;1;0;0" dur="2s" repeatCount="indefinite"/></svg></svg>