<svg id="U7F38" viewBox="0 0 1000 1000"><svg id="U7F38hk" viewBox="0 0 1000 1000"><path transform="translate(0, 900) scale(1,-1)" d="M74 326L74 17L389 17L389-22L454-22L454 327L389 327L389 84L298 84L298 411L469 411L469 478L298 478L298 663L453 663L453 730L180 730C191 767 202 804 210 842L140 855C118 747 78 637 28 565C45 556 75 537 89 527C113 565 136 612 156 663L230 663L230 478L41 478L41 411L230 411L230 84L135 84L135 326ZM487 56L487-17L953-17L953 56L755 56L755 674L936 674L936 746L498 746L498 674L678 674L678 56Z"/><animate attributeName="opacity" values="1;0;0;0;0;1;1" dur="3s" repeatCount="indefinite"/></svg><svg id="U7F38jp" viewBox="0 0 1000 1000"><path transform="translate(0, 900) scale(1,-1)" d="M120 842C106 732 79 619 39 544C57 535 90 517 104 507C123 545 140 594 154 647L220 647L220 495L40 495L40 427L220 427L220 123L135 123L135 359L72 359L72-28L135-28L135 56L378 56L378 5L437 5L437-41L963-41L963 30L739 30L739 682L934 682L934 753L476 753L476 682L662 682L662 30L441 30L441 359L378 359L378 123L290 123L290 427L468 427L468 495L290 495L290 647L445 647L445 716L172 716C180 753 187 791 193 828Z"/><animate attributeName="opacity" values="0;1;1;0;0;0;0" dur="3s" repeatCount="indefinite"/></svg><svg id="U7F38sc" viewBox="0 0 1000 1000"><path transform="translate(0, 900) scale(1,-1)" d="M74 327L74-10L394 34L394-22L456-22L456 327L394 327L394 97L299 87L299 411L480 411L480 478L299 478L299 663L459 663L459 730L183 730C195 766 205 804 214 842L144 855C121 747 83 637 31 565C50 557 81 540 95 530C118 567 140 612 160 663L230 663L230 478L41 478L41 411L230 411L230 79L138 70L138 327ZM490 56L490-17L961-17L961 56L755 56L755 674L942 674L942 746L501 746L501 674L678 674L678 56Z"/><animate attributeName="opacity" values="0;0;0;1;1;0;0" dur="3s" repeatCount="indefinite"/></svg></svg>