<svg id="U7F9A" viewBox="0 0 1000 1000"><svg id="U7F9Ahk" viewBox="0 0 1000 1000"><path transform="translate(0, 900) scale(1,-1)" d="M88 812C110 761 137 692 147 648L212 675C200 718 174 784 150 835ZM49 265L49 198L200 198C185 113 145 28 48-25C64-39 87-65 96-81C210-12 256 93 273 198L439 198L439 265L281 265C282 289 283 312 283 335L283 393L405 393L405 459L283 459L283 578L432 578L432 645L346 645C369 695 395 761 416 817L344 839C330 782 304 700 281 645L57 645L57 578L211 578L211 459L79 459L79 393L211 393L211 336C211 314 211 290 209 265ZM665 838C616 716 521 579 409 490C425 479 449 454 461 440C491 466 521 495 548 527L548 466L829 466L829 531L553 532C602 589 646 654 683 721C724 654 776 588 829 531C859 499 891 470 921 447C933 466 955 492 971 506C882 563 777 677 715 783L730 817ZM478 371L478 304L826 304C782 238 719 159 667 106L580 185L530 144C605 76 705-22 754-78L807-30C784-5 753 26 719 58C787 133 876 246 925 341L878 375L867 371Z"/><animate attributeName="opacity" values="1;0;0;0;0;1;1" dur="3s" repeatCount="indefinite"/></svg><svg id="U7F9Ajp" viewBox="0 0 1000 1000"><path transform="translate(0, 900) scale(1,-1)" d="M527 535L527 470L828 470L828 535ZM681 761C738 655 840 540 940 471C950 493 966 521 981 540C881 598 777 716 714 836L643 836C596 724 495 596 387 528C401 511 418 484 427 464C534 538 631 657 681 761ZM78 813C104 761 128 692 135 646L201 669C193 715 167 782 141 834ZM346 841C332 789 304 714 281 667L340 647C363 691 392 760 417 820ZM446 369L446 300L586 300L586-81L659-81L659 300L835 300L835 102C835 92 832 88 819 88C806 87 767 87 719 89C729 69 739 39 742 18C806 18 848 18 876 31C902 43 909 65 909 101L909 369ZM29 239L39 168L192 185C175 103 135 24 41-25C56-39 79-65 89-81C202-13 248 90 266 194L428 213L427 278L274 262C275 285 276 308 276 330L276 387L403 387L403 453L276 453L276 578L421 578L421 645L54 645L54 578L204 578L204 453L67 453L67 387L204 387L204 330C204 306 204 281 202 255Z"/><animate attributeName="opacity" values="0;1;1;0;0;0;0" dur="3s" repeatCount="indefinite"/></svg><svg id="U7F9Asc" viewBox="0 0 1000 1000"><path transform="translate(0, 900) scale(1,-1)" d="M88 812C111 761 137 692 148 648L214 675C201 718 175 784 151 835ZM608 527C644 489 688 437 710 404L764 439C742 471 698 520 660 557ZM49 265L49 198L201 198C185 113 146 28 48-25C64-38 86-64 96-80C210-11 257 94 275 198L442 198L442 265L283 265C284 289 285 312 285 335L285 393L407 393L407 460L285 460L285 578L435 578L435 645L349 645C371 695 397 761 418 817L346 839C332 782 305 700 282 645L57 645L57 578L212 578L212 460L80 460L80 393L212 393L212 336C212 314 212 290 210 265ZM686 841C639 711 547 568 435 475C451 464 476 440 488 426C574 501 647 600 701 705C759 597 840 491 912 429C925 447 949 472 966 485C883 545 790 662 734 773L754 822ZM514 373L514 306L805 306C770 239 719 159 676 101C646 127 616 152 589 174L537 137C615 72 715-20 762-77L817-33C795-8 763 23 728 55C786 135 861 252 903 347L853 378L841 373Z"/><animate attributeName="opacity" values="0;0;0;1;1;0;0" dur="3s" repeatCount="indefinite"/></svg></svg>