<svg id="U7F7F" viewBox="0 0 1000 1000"><svg id="U7F7Fhk" viewBox="0 0 1000 1000"><path transform="translate(0, 900) scale(1,-1)" d="M647 758L814 758L814 695L647 695ZM413 758L578 758L578 695L413 695ZM186 758L344 758L344 695L186 695ZM432 637C441 624 450 608 458 593L132 593L132 543L339 543L283 530C295 513 306 491 315 472L75 472L75 420L929 420L929 472L696 472L733 528L663 543L870 543L870 593L538 593C529 611 516 631 504 648L888 648L888 805L115 805L115 648L483 648ZM248 243L460 243L460 193L248 193ZM533 243L753 243L753 193L533 193ZM248 333L460 333L460 285L248 285ZM533 333L753 333L753 285L533 285ZM57-2L57-56L946-56L946-2L533-2L533 51L870 51L870 102L533 102L533 149L825 149L825 377L178 377L178 149L460 149L460 102L133 102L133 51L460 51L460-2ZM354 543L653 543C645 523 631 496 617 472L394 472C386 492 370 521 354 543Z"/><animate attributeName="opacity" values="1;0;0;1;1" dur="2s" repeatCount="indefinite"/></svg><svg id="U7F7Fjp" viewBox="0 0 1000 1000"><path transform="translate(0, 900) scale(1,-1)" d="M647 758L814 758L814 696L647 696ZM413 758L578 758L578 696L413 696ZM186 758L344 758L344 696L186 696ZM281 536C294 517 308 493 317 472L75 472L75 420L929 420L929 472L688 472C704 493 720 518 736 543L870 543L870 595L532 595L532 645L888 645L888 810L115 810L115 645L460 645L460 595L132 595L132 543L311 543ZM248 243L460 243L460 193L248 193ZM533 243L753 243L753 193L533 193ZM248 333L460 333L460 285L248 285ZM533 333L753 333L753 285L533 285ZM57-2L57-56L946-56L946-2L533-2L533 51L870 51L870 102L533 102L533 149L825 149L825 377L178 377L178 149L460 149L460 102L133 102L133 51L460 51L460-2ZM357 543L650 543C639 520 624 493 611 472L396 472C389 493 373 521 357 543Z"/><animate attributeName="opacity" values="0;1;1;0;0" dur="2s" repeatCount="indefinite"/></svg></svg>