<svg id="U7F8C" viewBox="0 0 1000 1000"><svg id="U7F8Chk" viewBox="0 0 1000 1000"><path transform="translate(0, 900) scale(1,-1)" d="M697 841C676 798 636 736 604 697L631 688L355 688L387 702C371 741 333 799 295 840L231 814C263 776 296 727 313 688L101 688L101 619L460 619L460 527L153 527L153 460L460 460L460 366L52 366L52 297L311 297C293 148 247 39 43-17C60-32 80-63 89-82C312-13 370 116 391 297L575 297L575 39C575-42 600-65 693-65C713-65 828-65 849-65C931-65 952-28 962 117C940 123 908 135 892 148C888 23 882 5 843 5C816 5 721 5 701 5C659 5 652 10 652 40L652 297L949 297L949 366L536 366L536 460L849 460L849 527L536 527L536 619L900 619L900 688L677 688C709 724 746 773 778 818Z"/><animate attributeName="opacity" values="1;0;0;1;1" dur="2s" repeatCount="indefinite"/></svg><svg id="U7F8Csc" viewBox="0 0 1000 1000"><path transform="translate(0, 900) scale(1,-1)" d="M697 839C672 793 628 730 588 685L346 685L393 707C376 744 338 800 303 841L237 815C268 776 303 723 320 685L101 685L101 615L457 615L457 520L153 520L153 453L455 453C453 421 449 387 441 353L57 353L57 285L418 285C371 177 269 69 52-10C68-24 91-51 101-68C347 25 454 155 499 285L526 285L526 37C526-46 552-69 654-69C675-69 812-69 834-69C925-69 947-32 956 113C935 119 903 131 886 143C882 20 875 1 829 1C798 1 684 1 660 1C610 1 602 7 602 37L602 285L940 285L940 353L518 353C524 387 528 421 530 453L849 453L849 520L531 520L531 615L900 615L900 685L673 685C707 724 745 772 777 816Z"/><animate attributeName="opacity" values="0;1;1;0;0" dur="2s" repeatCount="indefinite"/></svg></svg>