<svg id="U7F03" viewBox="0 0 1000 1000"><path transform="translate(0, 900) scale(1,-1)" d="M52 53L69-13C146 18 241 58 334 97L321 156C222 116 121 76 52 53ZM463 835L463 621L347 621L347 552L457 552C426 421 374 284 319 213C334 202 357 179 368 162C404 216 436 296 463 385L463-79L528-79L528 396C555 345 584 286 597 254L640 318C625 346 559 452 528 499L528 552L627 552L627 621L528 621L528 835ZM709 486L864 486L864 304L709 304ZM709 553L709 731L864 731L864 553ZM709 237L864 237L864 53L709 53ZM644 799L644-76L709-76L709-16L864-16L864-69L931-69L931 799ZM68 430C82 437 103 442 203 455C167 387 133 332 118 312C93 275 73 248 55 245C63 228 73 196 77 182C93 194 122 206 315 260C312 274 309 301 309 318L171 283C232 372 291 482 338 587L279 619C266 586 252 552 236 520L135 509C185 594 233 703 267 805L202 834C172 717 113 589 95 556C76 523 62 499 45 495C54 478 65 444 68 430Z"/></svg>