<svg id="U7F39" viewBox="0 0 1000 1000"><svg id="U7F39hk" viewBox="0 0 1000 1000"><path transform="translate(0, 900) scale(1,-1)" d="M343 79C353 30 359-34 359-73L431-64C431-26 423 36 411 84ZM546 77C566 28 588-35 596-75L669-57C660-18 637 44 615 90ZM749 81C795 32 848-35 872-78L942-45C917-2 862 64 816 110ZM169 106C143 44 98-19 52-57L120-88C170-45 213 25 240 88ZM155 403L155 154L776 154L776 111L853 111L853 403L776 403L776 222L539 222L539 445L953 445L953 516L539 516L539 667L871 667L871 737L292 737C305 766 317 796 327 826L249 846C216 740 157 639 87 573C106 563 141 541 156 528C191 565 226 613 256 667L460 667L460 516L48 516L48 445L460 445L460 222L232 222L232 403Z"/><animate attributeName="opacity" values="1;0;0;1;1" dur="2s" repeatCount="indefinite"/></svg><svg id="U7F39sc" viewBox="0 0 1000 1000"><path transform="translate(0, 900) scale(1,-1)" d="M343 94C354 40 360-29 360-71L433-62C433-21 424 47 411 99ZM546 92C568 39 591-28 599-71L672-54C663-13 639 55 615 105ZM749 96C797 44 853-26 878-72L949-38C922 7 864 76 816 125ZM169 121C143 58 98-9 52-47L121-79C170-34 213 38 241 103ZM156 403L156 148L852 148L852 404L775 404L775 217L537 217L537 445L953 445L953 516L537 516L537 667L871 667L871 737L292 737C305 766 317 796 327 826L249 846C216 740 157 639 87 573C106 563 141 541 156 528C191 565 226 613 256 667L460 667L460 516L48 516L48 445L460 445L460 217L230 217L230 403Z"/><animate attributeName="opacity" values="0;1;1;0;0" dur="2s" repeatCount="indefinite"/></svg></svg>