<svg id="U7FAE" viewBox="0 0 1000 1000"><svg id="U7FAEhk" viewBox="0 0 1000 1000"><path transform="translate(0, 900) scale(1,-1)" d="M172 486C146 445 103 395 57 367L110 327C158 361 198 413 227 458ZM331 465C346 433 359 390 364 363L431 380C426 407 411 449 395 480ZM545 466C566 435 588 391 597 363L661 385C652 413 629 455 607 485ZM525 36C660 5 839-48 933-82L957-24C862 10 681 58 549 86ZM269 818C286 797 303 772 317 748L114 748L114 693L463 693L463 644L173 644L173 593L463 593L463 544L66 544L66 489L784 489L744 458C793 425 854 371 886 336L936 380C907 410 852 456 804 489L935 489L935 544L536 544L536 593L831 593L831 644L536 644L536 693L891 693L891 748L690 748C708 770 726 796 743 821L664 844C652 817 629 779 609 748L399 748C384 777 358 812 334 840ZM55 145L55 90L407 90C352 25 248-7 49-24C60-39 75-65 79-82C322-58 438-10 494 90L945 90L945 145L518 145C523 161 528 178 531 196L845 196L845 248L539 248L544 299L847 299L847 351L161 351L161 299L469 299L465 248L160 248L160 196L456 196C452 178 447 161 440 145Z"/><animate attributeName="opacity" values="1;0;0;1;1" dur="2s" repeatCount="indefinite"/></svg><svg id="U7FAEjp" viewBox="0 0 1000 1000"><path transform="translate(0, 900) scale(1,-1)" d="M172 486C146 445 103 395 57 367L108 328C157 362 196 414 225 458ZM331 465C347 433 360 390 364 363L426 379C422 407 407 448 390 479ZM545 465C567 435 589 392 597 363L657 384C648 413 626 454 602 484ZM269 818C287 797 305 771 319 747L114 747L114 693L463 693L463 644L173 644L173 593L463 593L463 543L66 543L66 489L785 489L744 458C795 425 856 373 886 337L935 379C907 410 850 457 800 489L935 489L935 543L536 543L536 593L831 593L831 644L536 644L536 693L891 693L891 747L687 747C706 770 725 796 743 823L664 846C651 818 628 778 607 747L400 747C386 777 359 814 333 841ZM55 145L55 90L407 90C352 25 248-7 49-24C60-39 75-65 79-82C319-58 435-11 492 86C572-19 718-64 920-78C927-59 944-31 959-17C780-10 641 19 567 90L945 90L945 145L518 145C523 161 528 178 531 196L845 196L845 248L539 248L544 299L847 299L847 351L161 351L161 299L469 299L465 248L160 248L160 196L456 196C452 178 447 161 440 145Z"/><animate attributeName="opacity" values="0;1;1;0;0" dur="2s" repeatCount="indefinite"/></svg></svg>