<svg id="U8005" viewBox="0 0 1000 1000"><svg id="U8005hk" viewBox="0 0 1000 1000"><path transform="translate(0, 900) scale(1,-1)" d="M837 806C802 760 764 715 722 673L722 714L473 714L473 840L399 840L399 714L142 714L142 648L399 648L399 519L54 519L54 451L446 451C319 369 178 302 32 252C47 236 70 205 80 189C142 213 204 239 264 269L264-80L339-80L339-47L746-47L746-76L823-76L823 346L408 346C463 379 517 414 569 451L946 451L946 519L657 519C748 595 831 679 901 771ZM473 519L473 648L697 648C650 602 599 559 544 519ZM339 123L746 123L746 18L339 18ZM339 183L339 282L746 282L746 183Z"/><animate attributeName="opacity" values="1;0;0;1;1" dur="2s" repeatCount="indefinite"/></svg><svg id="U8005kr" viewBox="0 0 1000 1000"><path transform="translate(0, 900) scale(1,-1)" d="M837 806C802 760 764 715 722 673L722 714L473 714L473 840L399 840L399 714L142 714L142 648L399 648L399 528L51 528L51 461L461 461C330 375 184 304 32 252C47 236 70 205 80 189C142 213 204 239 264 269L264-80L339-80L339-47L746-47L746-76L823-76L823 345L747 345L775 376C741 402 675 436 621 455L585 417C630 399 686 370 720 345L406 345C467 381 526 419 582 461L950 461L950 528L667 528C755 601 834 682 901 771ZM473 528L473 648L697 648C653 606 606 566 556 528ZM339 122L746 122L746 18L339 18ZM339 182L339 281L746 281L746 182Z"/><animate attributeName="opacity" values="0;1;1;0;0" dur="2s" repeatCount="indefinite"/></svg></svg>