<svg id="U80B8" viewBox="0 0 1000 1000"><svg id="U80B8hk" viewBox="0 0 1000 1000"><path transform="translate(0, 900) scale(1,-1)" d="M556 798C528 645 470 513 378 432C395 421 426 397 439 384C533 476 597 619 630 788ZM800 805L736 791C770 612 818 489 909 378C920 399 943 422 963 437C879 532 833 641 800 805ZM100 803L100 444C100 297 95 96 31-46C48-52 77-68 90-79C135 22 154 158 162 282L197 223L293 299L293 16C293 3 288-1 275-2C263-2 224-3 181-1C190-20 199-52 201-71C266-71 303-70 328-57C352-45 360-23 360 15L360 803ZM166 735L293 735L293 525C270 551 238 583 208 608L166 576ZM162 286C165 342 166 396 166 444L166 571C200 538 242 493 261 464L293 490L293 367C243 335 196 305 162 286ZM402 307L402 237L640 237L640-77L711-77L711 237L951 237L951 307L711 307L711 493L640 493L640 307Z"/><animate attributeName="opacity" values="1;0;0;0;0;0;0;1;1" dur="4s" repeatCount="indefinite"/></svg><svg id="U80B8jp" viewBox="0 0 1000 1000"><path transform="translate(0, 900) scale(1,-1)" d="M525 713C500 613 449 520 384 461C401 450 431 430 444 417C509 484 566 587 597 698ZM104 803L104 444C104 296 99 95 31-46C48-52 79-70 93-82C139 14 159 142 167 262L312 262L312 7C312-6 307-10 296-10C285-11 249-11 209-10C219-29 228-61 231-80C290-80 326-78 350-66C374-54 383-33 383 6L383 803ZM173 735L312 735L312 569L173 569ZM173 501L312 501L312 330L171 330C172 370 173 409 173 444ZM636 468L636 315L408 315L408 244L636 244L636-80L709-80L709 244L956 244L956 315L709 315L709 468ZM543 806L543 738L746 738C779 616 838 500 907 428C922 445 950 468 969 479C895 547 831 674 802 806Z"/><animate attributeName="opacity" values="0;1;1;0;0;0;0;0;0" dur="4s" repeatCount="indefinite"/></svg><svg id="U80B8sc" viewBox="0 0 1000 1000"><path transform="translate(0, 900) scale(1,-1)" d="M555 793C531 639 474 512 375 434C392 423 423 398 435 385C536 474 599 613 630 787ZM779 803L707 793C741 602 792 484 908 382C918 406 941 432 961 447C859 534 810 633 779 803ZM100 803L100 444C100 297 95 96 31-46C48-52 77-68 90-79C132 16 152 141 160 259L293 259L293 16C293 3 288-1 275-2C263-2 224-3 181-1C190-20 199-52 201-71C266-71 303-69 328-57C351-45 359-23 359 15L359 803ZM166 735L293 735L293 569L166 569ZM166 500L293 500L293 329L164 329C165 370 166 409 166 444ZM402 307L402 237L635 237L635-57L706-57L706 237L951 237L951 307L706 307L706 493L635 493L635 307Z"/><animate attributeName="opacity" values="0;0;0;1;1;0;0;0;0" dur="4s" repeatCount="indefinite"/></svg><svg id="U80B8tc" viewBox="0 0 1000 1000"><path transform="translate(0, 900) scale(1,-1)" d="M552 793C525 644 469 515 379 435C396 424 428 400 440 388C531 478 594 618 626 784ZM100 803L100 444C100 297 95 96 31-46C48-52 77-68 90-79C135 22 154 158 162 282L197 223L293 299L293 16C293 3 288-1 275-2C263-2 224-3 181-1C190-20 199-52 201-71C266-71 303-70 328-57C352-45 360-23 360 15L360 803ZM166 735L293 735L293 525C270 551 238 583 208 608L166 576ZM162 286C165 342 166 396 166 444L166 571C200 538 242 493 261 464L293 490L293 367C243 335 196 305 162 286ZM402 307L402 237L635 237L635-57L706-57L706 237L951 237L951 307L706 307L706 493L635 493L635 307ZM674 804L674 738L748 738C773 594 829 463 904 385C916 403 943 430 960 442C884 513 828 651 806 804Z"/><animate attributeName="opacity" values="0;0;0;0;0;1;1;0;0" dur="4s" repeatCount="indefinite"/></svg></svg>