<svg id="U80C8" viewBox="0 0 1000 1000"><svg id="U80C8hk" viewBox="0 0 1000 1000"><path transform="translate(0, 900) scale(1,-1)" d="M705 787C761 751 837 699 876 668L916 723C877 753 800 801 744 834ZM100 803L100 449C100 303 95 107 31-34C47-42 75-67 86-81C132 19 153 151 161 273L187 222L306 313L306 9C306-3 301-8 289-9C276-9 236-10 191-8C201-26 209-56 212-73C276-73 313-72 337-61C348-55 356-47 361-37C379-47 402-66 414-81C519 30 571 191 597 365C623 285 654 211 693 146C649 73 594 13 525-33C541-44 571-70 582-83C643-38 693 16 736 80C786 12 846-44 918-83C930-64 953-37 969-23C892 14 828 73 775 148C825 244 860 359 883 492L810 501C793 395 768 300 731 218C679 312 641 421 615 539L616 556L955 556L955 624L620 624C623 698 624 771 624 840L551 840C551 771 551 698 548 624L413 624L413 556L545 556C532 332 493 107 363-30C367-19 368-7 368 9L368 803ZM167 735L306 735L306 489C285 521 245 568 210 603L167 576ZM162 287C166 345 167 401 167 449L167 574C202 537 242 486 261 454L306 485L306 375C253 341 202 308 162 287Z"/><animate attributeName="opacity" values="1;0;0;0;0;1;1" dur="3s" repeatCount="indefinite"/></svg><svg id="U80C8jp" viewBox="0 0 1000 1000"><path transform="translate(0, 900) scale(1,-1)" d="M698 780C753 744 822 689 856 655L899 706C865 740 794 790 740 825ZM541 839C541 772 540 701 538 629L395 629L395 562L535 562C523 335 487 108 364-28C367-18 368-6 368 9L368 792L101 792L101 435C101 289 96 90 30-51C47-57 77-74 90-85C133 8 153 131 162 248L300 248L300 9C300-4 295-8 283-8C271-9 233-9 191-8C201-27 210-60 212-78C275-79 312-77 336-65C350-58 359-47 363-32C382-42 405-62 418-78C514 31 562 190 587 363C612 281 644 206 684 141C637 70 575 13 497-30C514-42 543-69 554-81C623-38 680 15 727 79C780 11 844-43 923-80C933-62 955-36 971-22C888 12 821 68 766 140C821 235 858 351 881 489L808 498C791 386 764 289 722 207C667 301 629 414 604 536L605 562L958 562L958 629L608 629C611 701 612 771 612 839ZM168 724L300 724L300 558L168 558ZM168 489L300 489L300 318L166 318C167 359 168 399 168 435Z"/><animate attributeName="opacity" values="0;1;1;0;0;0;0" dur="3s" repeatCount="indefinite"/></svg><svg id="U80C8sc" viewBox="0 0 1000 1000"><path transform="translate(0, 900) scale(1,-1)" d="M710 787C759 745 823 685 854 649L900 697C868 732 803 788 755 828ZM541 839C541 772 540 701 538 629L400 629L400 562L535 562C523 334 486 105 362-31C381-41 405-62 418-78C502 18 549 151 576 298C602 230 633 168 672 115C617 53 553 7 482-25C494-38 514-67 522-85C592-51 658-2 714 61C770-1 837-50 917-82C928-63 946-35 960-21C880 7 812 54 757 114C816 197 863 302 890 430L848 449L836 446L597 446C600 484 603 523 605 562L958 562L958 629L608 629C611 701 612 771 612 839ZM608 382L811 382C789 299 755 227 713 167C669 229 634 302 608 382ZM101 803L101 444C101 297 96 96 32-46C49-52 78-68 91-79C133 16 152 141 160 259L293 259L293 16C293 3 289-1 276-2C264-2 225-3 181-1C191-20 200-52 202-71C266-71 304-69 328-57C352-45 360-23 360 15L360 803ZM166 735L293 735L293 569L166 569ZM166 500L293 500L293 329L164 329C166 370 166 409 166 444Z"/><animate attributeName="opacity" values="0;0;0;1;1;0;0" dur="3s" repeatCount="indefinite"/></svg></svg>