<svg id="U8053" viewBox="0 0 1000 1000"><path transform="translate(0, 900) scale(1,-1)" d="M566 649C610 603 656 538 676 496L731 528C712 570 664 633 619 677ZM50 512L62 446C161 468 299 498 430 527L425 592L288 562L288 716L429 716L429 778L68 778L68 716L217 716L217 546ZM495 802L495 684C495 611 477 526 369 462C382 452 407 425 416 410C538 482 563 592 563 683L563 740L747 740L747 549C747 491 752 475 766 461C781 449 804 444 824 444C835 444 862 444 874 444C891 444 912 447 924 453C938 460 948 471 953 488C959 505 963 552 964 594C945 599 921 611 908 624C907 580 906 547 904 532C902 519 897 512 892 508C888 506 879 504 870 504C861 504 847 504 840 504C832 504 826 505 822 508C817 512 817 525 817 546L817 802ZM718 343L718 281L272 281L272 343ZM41 48L50-11C223-6 469 4 718 14L718-79L787-79L787 17L957 25L960 75L787 69L787 343L947 343L947 399L61 399L61 343L205 343L205 52ZM718 235L718 169L272 169L272 235ZM718 123L718 67L272 53L272 123Z"/></svg>