<svg id="U80C7" viewBox="0 0 1000 1000"><svg id="U80C7hk" viewBox="0 0 1000 1000"><path transform="translate(0, 900) scale(1,-1)" d="M549 840L549 703L399 703L399 637L549 637L549 504L408 504C400 421 385 312 371 243L538 243C520 135 476 41 369-34C386-44 411-66 422-80C541 6 588 117 605 243L709 243L709-77L775-77L775 243L896 243C891 142 885 103 876 93C870 85 864 84 854 84C843 84 820 84 793 87C802 71 808 45 808 27C838 25 868 25 884 27C906 29 919 35 931 50C949 72 956 131 962 282C963 291 963 309 963 309L775 309L775 439L937 439L937 703L775 703L775 839L709 839L709 703L615 703L615 840ZM463 439L549 439L549 416C549 379 548 344 546 309L446 309ZM709 439L709 309L612 309C614 344 615 379 615 416L615 439ZM709 637L709 504L615 504L615 637ZM775 637L872 637L872 504L775 504ZM100 803L100 444C100 297 95 96 31-46C48-52 76-67 89-78C133 21 152 153 159 276L191 223L288 299L288 16C288 3 283-1 270-2C258-2 219-3 176-1C184-20 193-51 196-69C260-69 297-68 322-56C345-44 353-22 353 15L353 803ZM164 735L288 735L288 522C264 549 231 582 202 608L164 579ZM160 288C163 344 164 397 164 444L164 567C199 533 239 488 260 459L288 482L288 367C240 337 195 308 160 288Z"/><animate attributeName="opacity" values="1;0;0;1;1" dur="2s" repeatCount="indefinite"/></svg><svg id="U80C7sc" viewBox="0 0 1000 1000"><path transform="translate(0, 900) scale(1,-1)" d="M551 840L551 703L399 703L399 637L551 637L551 504L408 504C400 420 385 312 371 243L539 243C521 135 476 41 369-34C385-45 410-67 421-81C541 5 589 116 606 243L709 243L709-78L775-78L775 243L895 243C891 143 885 104 876 93C870 85 863 84 854 84C843 84 820 84 793 87C801 71 808 45 808 26C838 24 868 25 884 26C905 29 919 34 931 50C948 72 955 131 961 282C962 291 962 309 962 309L775 309L775 439L936 439L936 703L775 703L775 839L709 839L709 703L616 703L616 840ZM463 439L551 439L551 417C551 380 550 344 547 309L446 309ZM709 439L709 309L613 309C615 344 616 380 616 417L616 439ZM709 637L709 504L616 504L616 637ZM775 637L871 637L871 504L775 504ZM100 803L100 444C100 297 95 96 31-46C48-52 77-68 90-79C132 16 150 141 158 259L287 259L287 16C287 3 283-1 270-2C258-2 219-3 176-1C185-20 194-52 196-71C260-71 297-69 322-57C345-45 353-23 353 15L353 803ZM164 735L287 735L287 569L164 569ZM164 500L287 500L287 329L162 329C164 370 164 409 164 444Z"/><animate attributeName="opacity" values="0;1;1;0;0" dur="2s" repeatCount="indefinite"/></svg></svg>