<svg id="U80F1" viewBox="0 0 1000 1000"><svg id="U80F1hk" viewBox="0 0 1000 1000"><path transform="translate(0, 900) scale(1,-1)" d="M434 762C469 682 501 576 509 508L577 527C567 596 535 700 497 780ZM850 789C830 709 791 596 760 527L821 506C854 574 894 679 925 767ZM634 833L634 454L407 454L407 383L544 383C536 196 510 54 363-24C380-37 402-65 411-83C573 8 606 171 616 383L710 383L710 35C710-42 727-65 795-65C809-65 866-65 880-65C943-65 960-25 967 125C947 130 917 142 901 156C899 23 894 3 873 3C860 3 816 3 806 3C785 3 782 8 782 35L782 383L951 383L951 454L707 454L707 833ZM101 803L101 418C101 277 97 88 39-46C56-52 86-68 99-80C141 18 158 153 165 275L195 223L290 299L290 11C290-1 286-5 274-6C264-6 228-6 188-4C197-23 206-54 208-72C267-72 302-71 325-59C348-47 355-26 355 11L355 803ZM168 736L290 736L290 523C268 549 235 581 206 608L168 579ZM165 289C167 334 168 378 168 418L168 567C201 536 238 494 257 467L290 494L290 366C243 336 199 307 165 289Z"/><animate attributeName="opacity" values="1;0;0;1;1" dur="2s" repeatCount="indefinite"/></svg><svg id="U80F1jp" viewBox="0 0 1000 1000"><path transform="translate(0, 900) scale(1,-1)" d="M434 762C469 682 501 575 509 506L576 526C566 595 533 700 496 780ZM847 789C828 709 788 596 758 527L817 506C851 573 890 679 921 767ZM634 833L634 454L407 454L407 383L543 383C534 196 509 52 364-25C380-38 402-65 411-84C572 6 603 169 613 383L710 383L710 36C710-42 727-65 794-65C808-65 866-65 880-65C942-65 960-25 966 125C947 130 917 142 902 156C900 24 895 3 873 3C861 3 815 3 805 3C784 3 781 8 781 36L781 383L953 383L953 454L705 454L705 833ZM101 803L101 418C101 277 97 88 39-46C56-52 86-68 99-80C140 15 157 142 164 261L290 261L290 11C290-1 286-5 274-6C264-6 228-6 188-4C197-23 206-54 208-72C267-72 302-71 325-59C348-47 355-26 355 11L355 803ZM168 736L290 736L290 569L168 569ZM168 502L290 502L290 329L167 329L168 418Z"/><animate attributeName="opacity" values="0;1;1;0;0" dur="2s" repeatCount="indefinite"/></svg></svg>