<svg id="U8031" viewBox="0 0 1000 1000"><svg id="U8031hk" viewBox="0 0 1000 1000"><path transform="translate(0, 900) scale(1,-1)" d="M401 767L401 444C401 299 392 105 303-33C316-42 340-67 349-81C448 68 462 289 462 444L462 705L958 705L958 767L735 767C723 792 706 822 691 846L620 831C631 812 643 788 653 767ZM482 337L482 276L585 276C550 206 492 135 428 90C437 77 451 52 455 37C489 61 521 91 550 124L550-79L611-79L611-33L843-33L843-77L906-77L906 194L603 194C621 221 637 249 650 276L944 276L944 337ZM611 24L611 137L843 137L843 24ZM337 787C314 776 285 765 252 754L252 840L186 840L186 736C137 723 85 713 37 704C45 689 54 665 57 650C98 656 142 663 186 673L186 577L60 577L60 512L186 512L186 397L42 397L42 332L175 332C142 241 83 137 31 80C43 62 60 32 68 12C110 59 152 133 186 210L186-79L252-79L252 266C280 223 312 171 326 144L370 195C356 217 302 292 271 332L373 332L373 397L252 397L252 512L365 512L365 577L252 577L252 688C302 701 349 716 387 733ZM578 676L578 619L487 619L487 569L561 569C540 513 506 456 470 428C482 419 498 402 506 390C533 416 559 458 578 503L578 365L627 365L627 516C649 493 673 466 683 452L715 492C701 505 654 549 629 569L698 569L698 619L627 619L627 676ZM799 676L799 621L720 621L720 571L787 571C760 513 719 453 680 422C692 414 707 397 717 384C745 411 775 455 799 501L799 366L850 366L850 510C879 474 914 427 929 404L962 446C945 467 879 543 852 571L948 571L948 621L850 621L850 676Z"/><animate attributeName="opacity" values="1;0;0;1;1" dur="2s" repeatCount="indefinite"/></svg><svg id="U8031sc" viewBox="0 0 1000 1000"><path transform="translate(0, 900) scale(1,-1)" d="M397 766L397 467C397 315 390 105 306-46C321-52 347-71 358-83C447 75 460 307 460 467L460 704L954 704L954 766L729 766C720 791 704 822 690 847L625 830C635 811 646 788 654 766ZM52 748L52 683L181 683L181 577L66 577L66 511L181 511L181 397L46 397L46 332L165 332C133 241 77 137 27 80C40 62 57 32 64 12C106 61 148 140 181 220L181-79L245-79L245 259C273 216 304 164 318 137L363 188C347 211 287 295 258 332L361 332L361 397L245 397L245 511L344 511L344 577L245 577L245 683L358 683L358 748L245 748L245 840L181 840L181 748ZM488 336L488 275L590 275C557 207 501 138 437 94C449 83 467 62 476 48C503 67 528 90 552 115L552-76L612-76L612-36L845-36L845-75L908-75L908 193L614 193C632 220 647 247 660 275L932 275L932 336ZM612 18L612 138L845 138L845 18ZM793 677L793 621L718 621L718 571L781 571C753 512 711 449 671 418C682 409 697 392 706 380C736 408 768 454 793 503L793 366L843 366L843 517C868 471 901 427 928 400C938 411 954 427 965 435C929 464 888 520 861 571L945 571L945 621L843 621L843 677ZM576 676L576 619L485 619L485 569L558 569C537 515 503 460 468 433C480 424 496 408 504 395C531 420 556 462 576 506L576 366L624 366L624 517C646 494 671 467 681 453L712 492C699 506 652 548 627 569L696 569L696 619L624 619L624 676Z"/><animate attributeName="opacity" values="0;1;1;0;0" dur="2s" repeatCount="indefinite"/></svg></svg>