<svg id="U81C8" viewBox="0 0 1000 1000"><svg id="U81C8hk" viewBox="0 0 1000 1000"><path transform="translate(0, 900) scale(1,-1)" d="M418 635L418 369L502 369C461 302 399 241 335 198L335 803L87 803L87 446C87 301 82 103 25-41C38-48 64-71 74-83C118 18 137 152 144 275L170 222L272 300L272 9C272-4 268-8 256-9C243-9 204-10 159-8C168-26 176-57 179-74C242-74 280-73 303-61C326-49 335-28 335 9L335 187C349 174 368 153 377 141L413 170L413 79C413 9 432-16 510-16C529-16 678-16 708-16C743-16 779-16 795-11C792 5 790 30 788 47C769 44 729 43 705 43C677 43 540 43 512 43C484 43 479 51 479 79L479 210L456 210C470 224 483 238 496 253L866 253C859 74 850 7 836-10C829-19 822-21 807-21C794-21 760-20 723-17C732-34 739-61 740-79C780-81 820-81 840-79C865-76 881-70 896-52C919-24 928 57 937 283C938 293 938 314 938 314L544 314C557 332 568 350 579 369L897 369L897 635ZM642 251C616 185 559 133 492 100C505 89 524 68 532 57C571 80 608 110 638 145C680 115 726 79 752 55L790 95C763 120 712 156 668 185C680 202 689 220 697 239ZM149 735L272 735L272 501C251 531 215 573 184 604L149 581ZM145 287C148 344 149 398 149 446L149 564C180 529 214 485 232 457L272 486L272 363C224 333 179 305 145 287ZM490 840L490 772L368 772L368 712L490 712L490 654L557 654L557 712L641 712L641 772L557 772L557 840ZM742 840L742 771L680 771L680 711L742 711L742 654L809 654L809 711L957 711L957 771L809 771L809 840ZM482 585L831 585L831 419L482 419L482 479L790 479L790 527L482 527Z"/><animate attributeName="opacity" values="1;0;0;0;0;1;1" dur="3s" repeatCount="indefinite"/></svg><svg id="U81C8jp" viewBox="0 0 1000 1000"><path transform="translate(0, 900) scale(1,-1)" d="M507 478L821 478L821 419L507 419ZM507 584L821 584L821 527L507 527ZM439 635L439 368L498 368C461 302 408 240 351 195L351 803L100 803L100 444C100 297 95 96 32-46C49-52 78-68 91-79C133 16 151 141 159 259L284 259L284 8C284-6 279-10 267-10C256-11 217-11 174-10C184-29 192-61 195-79C258-80 295-78 320-66C343-54 351-31 351 7L351 171C364 158 379 141 386 132C402 145 417 159 433 175L433-44L494-44L494 3L782 3L782 62L494 62L494 212L467 212L501 253L621 253C601 190 558 139 502 104C514 95 534 74 542 64C573 85 603 114 627 146C665 119 705 87 727 64L767 101C741 126 695 161 653 188C663 207 672 226 678 247L648 253L853 253C847 73 839 7 825-10C817-19 810-21 796-21C783-21 749-20 712-17C722-34 728-61 730-79C769-81 808-81 829-79C854-76 871-70 885-52C907-24 916 57 925 283C925 293 925 314 925 314L543 314C554 332 564 350 574 368L892 368L892 635ZM165 735L284 735L284 569L165 569ZM165 500L284 500L284 329L163 329C165 370 165 409 165 444ZM743 840L743 767L588 767L588 840L520 840L520 767L384 767L384 707L520 707L520 654L588 654L588 707L743 707L743 654L811 654L811 707L950 707L950 767L811 767L811 840Z"/><animate attributeName="opacity" values="0;1;1;0;0;0;0" dur="3s" repeatCount="indefinite"/></svg><svg id="U81C8sc" viewBox="0 0 1000 1000"><path transform="translate(0, 900) scale(1,-1)" d="M500 474L829 474L829 410L500 410ZM500 585L829 585L829 523L500 523ZM739 840L739 768L590 768L590 840L523 840L523 768L375 768L375 704L523 704L523 648L590 648L590 704L739 704L739 648L807 648L807 704L960 704L960 768L807 768L807 840ZM431 636L431 360L519 360C484 303 428 239 352 191C367 180 390 157 401 141L439 170L439-23L736-23C744-40 749-63 750-80C787-82 823-81 844-80C867-77 884-71 898-53C921-25 932 56 943 281C944 290 944 311 944 311L568 311C579 327 589 344 598 360L899 360L899 636ZM524 254L874 254C865 75 854 7 840-10C833-20 826-22 812-21L797-21L797 36L501 36L501 199L472 199C491 217 508 235 524 254ZM660 249C641 179 594 126 529 91C543 81 565 61 574 52C609 74 641 103 667 137C706 108 748 74 771 51L810 89C784 113 736 151 693 179C704 198 712 219 718 240ZM99 803L99 444C99 297 94 96 31-46C47-52 75-68 87-79C129 16 147 141 155 259L271 259L271 16C271 3 266-1 255-2C243-2 204-3 161-1C170-20 179-52 181-71C244-71 280-69 303-57C327-45 335-23 335 15L335 803ZM161 735L271 735L271 569L161 569ZM161 500L271 500L271 329L159 329C161 370 161 409 161 444Z"/><animate attributeName="opacity" values="0;0;0;1;1;0;0" dur="3s" repeatCount="indefinite"/></svg></svg>