<svg id="U8116" viewBox="0 0 1000 1000"><svg id="U8116hk" viewBox="0 0 1000 1000"><path transform="translate(0, 900) scale(1,-1)" d="M412 741L412 674L636 674L636 570L407 570L407 401L474 401L474 505L877 505L877 401L946 401L946 570L709 570L709 674L939 674L939 741L709 741L709 840L636 840L636 741ZM393 222L393 154L635 154L635 0C635-12 631-15 618-15C604-16 558-16 508-14C518-34 529-62 532-82C597-82 643-82 672-71C701-60 709-41 709-1L709 154L955 154L955 222L709 222L709 260C770 294 833 340 880 384L833 424L816 420L479 420L479 357L745 357C711 329 671 301 635 282L635 222ZM100 803L100 444C100 297 95 96 31-46C48-52 77-68 90-79C135 21 154 155 161 279L194 223L296 303L296 16C296 3 291-1 279-2C266-2 228-3 184-1C193-20 203-52 205-71C269-71 306-70 332-57C355-45 363-23 363 15L363 803ZM166 735L296 735L296 516C272 544 237 580 206 608L166 578ZM162 287C165 343 166 397 166 444L166 568C201 536 239 491 259 463L296 492L296 370C246 337 197 307 162 287Z"/><animate attributeName="opacity" values="1;0;0;0;0;1;1" dur="3s" repeatCount="indefinite"/></svg><svg id="U8116jp" viewBox="0 0 1000 1000"><path transform="translate(0, 900) scale(1,-1)" d="M416 737L416 670L628 670L628 577L396 577L396 402L463 402L463 512L876 512L876 402L947 402L947 577L704 577L704 670L935 670L935 737L704 737L704 840L628 840L628 737ZM390 220L390 151L632 151L632 3C632-9 628-12 614-13C600-14 553-14 500-12C511-32 521-61 524-81C592-81 639-81 669-70C699-59 707-39 707 1L707 151L950 151L950 220L707 220L707 242C762 282 823 336 866 386L817 425L800 420L478 420L478 357L741 357C717 331 688 304 660 283L632 283L632 220ZM100 793L100 436C100 290 95 91 32-50C49-56 78-72 91-83C132 10 151 132 159 248L293 248L293 6C293-8 288-12 275-12C263-12 226-13 182-11C192-31 201-63 203-81C267-81 303-80 328-67C352-55 360-34 360 5L360 793ZM165 724L293 724L293 558L165 558ZM165 489L293 489L293 318L163 318C164 360 165 400 165 436Z"/><animate attributeName="opacity" values="0;1;1;0;0;0;0" dur="3s" repeatCount="indefinite"/></svg><svg id="U8116sc" viewBox="0 0 1000 1000"><path transform="translate(0, 900) scale(1,-1)" d="M412 741L412 674L636 674L636 570L407 570L407 401L474 401L474 505L871 505L871 401L941 401L941 570L709 570L709 674L933 674L933 741L709 741L709 840L636 840L636 741ZM393 222L393 154L636 154L636 0C636-12 632-15 619-15C605-16 559-16 509-14C519-34 529-62 533-82C598-82 644-82 673-71C702-60 710-41 710-1L710 154L947 154L947 222L710 222L710 260C769 295 831 340 877 384L829 424L813 420L479 420L479 357L743 357C711 329 672 301 637 282L636 222ZM100 803L100 444C100 297 95 96 31-46C48-52 77-68 90-79C132 16 152 141 160 259L296 259L296 16C296 3 291-1 279-2C266-2 228-3 184-1C193-20 203-52 205-71C269-71 306-70 332-57C355-45 363-23 363 15L363 803ZM166 735L296 735L296 569L166 569ZM166 500L296 500L296 329L164 329C165 370 166 409 166 444Z"/><animate attributeName="opacity" values="0;0;0;1;1;0;0" dur="3s" repeatCount="indefinite"/></svg></svg>