<svg id="U8122" viewBox="0 0 1000 1000"><svg id="U8122hk" viewBox="0 0 1000 1000"><path transform="translate(0, 900) scale(1,-1)" d="M606 455C644 431 697 392 726 368L767 411C739 433 686 469 646 492ZM589 239C627 213 679 172 707 147L750 189C722 212 670 250 630 275ZM534 842C505 734 454 629 389 560C406 550 433 527 445 516C480 556 512 608 540 665L948 665L948 732L569 732C582 763 593 794 602 826ZM827 506L821 351L541 351L558 506ZM499 568C494 503 486 427 477 351L393 351L393 285L469 285C457 199 445 118 434 57L798 57C793 29 787 12 781 4C772-9 763-12 749-11C731-11 693-11 650-7C661-25 668-53 669-72C711-74 752-74 777-71C805-69 824-61 841-36C853-21 862 7 869 57L954 57L954 121L876 121C880 164 883 218 886 285L958 285L958 351L889 351L896 533C896 543 896 568 896 568ZM818 285C815 216 811 162 807 121L512 121L533 285ZM100 803L100 447C100 302 95 104 31-37C46-45 72-68 83-82C130 21 150 156 158 280L187 222L298 307L298 9C298-3 294-8 281-9C268-9 229-10 184-8C193-26 202-57 205-75C269-75 307-74 331-62C354-50 363-28 363 9L363 803ZM163 575C197 538 239 486 258 454L298 482L298 370C246 336 196 305 158 285C162 343 163 399 163 447L163 735L298 735L298 495C277 527 239 570 206 603Z"/><animate attributeName="opacity" values="1;0;0;1;1" dur="2s" repeatCount="indefinite"/></svg><svg id="U8122sc" viewBox="0 0 1000 1000"><path transform="translate(0, 900) scale(1,-1)" d="M594 469C632 438 682 396 707 369L753 406C728 431 677 473 638 502ZM576 244C617 208 669 159 696 129L742 166C716 196 661 242 620 276ZM162 735L279 735L279 569L162 569ZM100 805L100 446C100 298 95 97 31-44C47-50 75-66 88-77C130 18 148 141 156 259L279 259L279 16C279 3 274-1 262-2C251-2 214-3 173-1C182-20 190-51 192-70C254-70 289-68 313-57C335-44 342-22 342 14L342 803L162 803L162 805ZM162 500L279 500L279 329L160 329C162 370 162 410 162 446ZM825 522L820 357L537 357L555 522ZM491 583C485 515 476 436 466 357L370 357L370 295L459 295C447 205 434 119 422 55L797 55C791 27 785 10 778 2C768-11 757-13 740-12C719-13 668-12 613-8C625-26 633-53 634-71C685-74 738-75 769-72C801-69 822-62 841-36C853-21 863 6 870 55L944 55L944 117L878 117C882 163 886 221 889 295L964 295L964 357L892 357L898 547C899 558 899 583 899 583ZM805 117L505 117L529 295L817 295C814 219 810 161 805 117ZM513 840C479 733 422 626 357 555C375 545 406 523 419 511C455 554 490 610 522 671L939 671L939 738L553 738C565 766 576 794 586 822Z"/><animate attributeName="opacity" values="0;1;1;0;0" dur="2s" repeatCount="indefinite"/></svg></svg>