<svg id="U81B9" viewBox="0 0 1000 1000"><svg id="U81B9hk" viewBox="0 0 1000 1000"><path transform="translate(0, 900) scale(1,-1)" d="M508 310L826 310L826 246L508 246ZM508 197L826 197L826 132L508 132ZM508 422L826 422L826 359L508 359ZM442 474L442 80L894 80L894 474ZM716 38C784 0 859-50 902-85L962-44C914-8 834 40 763 77ZM546 73C504 33 431-5 367-32C381-45 407-71 418-84C484-53 563-1 613 49ZM100 803L100 444C100 297 95 96 30-46C47-51 74-67 86-78C132 24 151 159 159 284L194 223L287 298L287 16C287 3 282-1 270-2C258-2 219-3 176-1C184-19 192-50 195-67C259-67 295-66 320-55C342-43 351-21 351 15L351 803ZM163 736L287 736L287 523C266 549 235 581 207 608L163 576ZM159 285C162 342 163 396 163 444L163 571C195 539 234 494 253 466L287 494L287 365C238 334 192 304 159 285ZM634 834L634 765L411 765L411 711L634 711L634 651L700 651L700 711L925 711L925 765L700 765L700 834ZM772 678L772 616L564 616L564 679L502 679L502 616L381 616L381 561L502 561L502 492L564 492L564 561L772 561L772 492L836 492L836 561L959 561L959 616L836 616L836 678Z"/><animate attributeName="opacity" values="1;0;0;1;1" dur="2s" repeatCount="indefinite"/></svg><svg id="U81B9kr" viewBox="0 0 1000 1000"><path transform="translate(0, 900) scale(1,-1)" d="M488 309L823 309L823 247L488 247ZM488 197L823 197L823 134L488 134ZM488 420L823 420L823 359L488 359ZM530 79C486 38 412-2 344-28C360-41 387-66 399-80C466-48 549 4 600 54ZM101 791L101 435C101 289 96 90 33-50C50-56 79-72 92-83C134 11 152 134 160 250L280 250L280 3C280-9 276-13 265-13C254-14 221-14 183-12C192-30 201-61 204-78C259-78 293-76 316-66C337-54 345-34 345 3L345 791ZM166 724L280 724L280 556L166 556ZM166 490L280 490L280 316L164 316C165 358 166 398 166 435ZM618 840L618 764L391 764L391 709L618 709L618 634L688 634L688 709L923 709L923 764L688 764L688 840ZM759 673L759 609L549 609L549 673L482 673L482 609L363 609L363 552L482 552L482 493L549 493L549 552L759 552L759 493L828 493L828 552L955 552L955 609L828 609L828 673ZM700 43C774 6 854-43 902-78L964-37C913-2 828 45 752 82L897 82L897 473L417 473L417 82L746 82Z"/><animate attributeName="opacity" values="0;1;1;0;0" dur="2s" repeatCount="indefinite"/></svg></svg>