<svg id="U824A" viewBox="0 0 1000 1000"><path transform="translate(0, 900) scale(1,-1)" d="M533 555L847 555L847 473L533 473ZM533 691L847 691L847 610L533 610ZM197 592C220 547 245 487 255 448L305 471C295 509 269 568 244 612ZM195 284C223 236 254 172 266 130L316 154C302 194 272 258 242 306ZM446 334L446 8L516 8L516 266L652 266L652-79L722-79L722 266L866 266L866 89C866 80 863 78 854 77C843 76 814 76 778 77C788 58 797 30 801 10C852 10 886 11 909 23C932 34 938 55 938 88L938 334L722 334L722 415L919 415L919 749L697 749C709 773 722 800 734 826L653 840C647 814 635 780 622 749L465 749L465 415L652 415L652 334ZM332 655L332 404L171 404L171 655ZM40 404L40 342L108 342C108 218 102 62 34-46C50-53 78-73 89-84C161 30 171 209 171 342L332 342L332 12C332 0 327-3 315-4C304-4 267-5 225-3C234-21 243-50 245-69C306-69 341-67 365-56C388-44 395-24 395 12L395 716L258 716L298 828L225 843C219 806 206 755 194 716L108 716L108 404Z"/></svg>