<svg id="U827D" viewBox="0 0 1000 1000"><svg id="U827Dhk" viewBox="0 0 1000 1000"><path transform="translate(0, 900) scale(1,-1)" d="M390 591C388 542 387 496 383 452L119 452L119 380L376 380C352 194 284 56 54-20C71-35 93-63 101-83C352 4 428 165 455 380L666 380L666 45C666-39 688-62 762-62C777-62 847-62 862-62C933-62 952-18 959 131C938 137 906 150 889 164C886 32 881 9 855 9C840 9 786 9 775 9C748 9 744 14 744 45L744 452L462 452C466 496 468 543 470 591ZM265 837L265 734L54 734L54 666L265 666L265 572L341 572L341 666L468 666L468 734L341 734L341 837ZM525 734L525 667L669 667L669 572L744 572L744 667L940 667L940 734L744 734L744 837L669 837L669 734Z"/><animate attributeName="opacity" values="1;0;0;1;1" dur="2s" repeatCount="indefinite"/></svg><svg id="U827Djp" viewBox="0 0 1000 1000"><path transform="translate(0, 900) scale(1,-1)" d="M628 840L628 743L373 743L373 840L297 840L297 743L63 743L63 673L297 673L297 563L373 563L373 673L628 673L628 563L705 563L705 673L935 673L935 743L705 743L705 840ZM382 588C380 535 378 485 374 437L128 437L128 365L366 365C341 186 271 54 48-19C65-34 86-63 95-82C340 4 417 158 445 365L659 365L659 40C659-42 682-65 755-65C771-65 839-65 855-65C925-65 943-24 950 122C930 128 899 141 882 154C879 27 874 4 848 4C833 4 779 4 767 4C741 4 737 9 737 39L737 437L453 437C457 485 459 535 461 588Z"/><animate attributeName="opacity" values="0;1;1;0;0" dur="2s" repeatCount="indefinite"/></svg></svg>