<svg id="U828E" viewBox="0 0 1000 1000"><svg id="U828Ehk" viewBox="0 0 1000 1000"><path transform="translate(0, 900) scale(1,-1)" d="M193 396C176 320 151 223 129 159L809 159C797 60 782 12 761-4C748-12 731-12 701-12C666-12 555-11 456-3C474-24 486-55 489-77C583-83 672-84 717-83C770-82 799-76 825-53C859-24 877 44 893 191C896 202 898 227 898 227L234 227L260 326L838 326L838 573L137 573L137 503L763 503L763 396ZM277 840L277 755L62 755L62 687L277 687L277 597L351 597L351 687L474 687L474 755L351 755L351 840ZM531 755L531 687L644 687L644 597L718 597L718 687L941 687L941 755L718 755L718 840L644 840L644 755Z"/><animate attributeName="opacity" values="1;0;0;0;0;1;1" dur="3s" repeatCount="indefinite"/></svg><svg id="U828Ejp" viewBox="0 0 1000 1000"><path transform="translate(0, 900) scale(1,-1)" d="M188 396C167 308 133 195 105 122L184 110L201 160L804 160C784 64 761 16 737-3C724-12 711-12 688-12C660-12 587-11 517-4C531-24 541-54 542-76C612-80 677-81 710-79C748-78 771-73 795-54C834-22 860 47 888 193C892 204 894 227 894 227L221 227L250 329L838 329L838 573L137 573L137 506L763 506L763 396ZM635 840L635 755L361 755L361 840L287 840L287 755L62 755L62 687L287 687L287 597L361 597L361 687L635 687L635 597L709 597L709 687L941 687L941 755L709 755L709 840Z"/><animate attributeName="opacity" values="0;1;1;0;0;0;0" dur="3s" repeatCount="indefinite"/></svg><svg id="U828Esc" viewBox="0 0 1000 1000"><path transform="translate(0, 900) scale(1,-1)" d="M193 396C174 320 145 223 121 159L804 159C784 64 762 15 737-4C723-12 709-13 684-13C652-13 569-11 492-4C507-25 519-57 521-79C595-84 665-85 702-83C746-82 772-77 798-56C838-24 865 46 892 190C896 202 898 227 898 227L229 227L258 326L838 326L838 573L137 573L137 503L763 503L763 396ZM635 840L635 755L361 755L361 840L287 840L287 755L62 755L62 687L287 687L287 597L361 597L361 687L635 687L635 597L709 597L709 687L941 687L941 755L709 755L709 840Z"/><animate attributeName="opacity" values="0;0;0;1;1;0;0" dur="3s" repeatCount="indefinite"/></svg></svg>