<svg id="U82B5" viewBox="0 0 1000 1000"><path transform="translate(0, 900) scale(1,-1)" d="M548 153C663 83 818-17 896-76L945-18C864 41 707 136 595 202ZM187 505L187 438L446 438L446 350C446 327 445 305 442 282L79 282L79 212L422 212C384 123 285 41 37-16C53-32 74-61 83-78C362-9 467 96 504 212L941 212L941 282L795 282L795 505L522 505L522 624L446 624L446 505ZM518 282C521 304 522 327 522 350L522 438L720 438L720 282ZM265 840L265 750L54 750L54 683L265 683L265 597L340 597L340 683L468 683L468 750L340 750L340 840ZM525 750L525 684L666 684L666 597L740 597L740 684L940 684L940 750L740 750L740 840L666 840L666 750Z"/></svg>