<svg id="U8221" viewBox="0 0 1000 1000"><svg id="U8221hk" viewBox="0 0 1000 1000"><path transform="translate(0, 900) scale(1,-1)" d="M212 592C235 547 263 487 275 448L328 471C315 507 288 566 262 611ZM210 284C238 236 272 171 287 130L343 155C328 195 294 258 264 307ZM367 655L367 423L183 400L183 655ZM35 383L44 318L112 327C112 207 106 58 32-46C50-54 81-76 93-87C172 23 183 198 183 329L183 337L367 362L367 18C367 5 361 2 349 1C336 1 294 0 247 2C257-16 268-46 271-65C337-65 377-63 402-52C428-40 436-20 436 18L436 372L506 381L502 440L436 432L436 716L277 716L321 828L243 843C236 806 221 755 208 716L112 716L112 392ZM463 40L463-32L960-32L960 40L744 40L744 674L934 674L934 746L481 746L481 674L666 674L666 40Z"/><animate attributeName="opacity" values="1;0;0;0;0;1;1" dur="3s" repeatCount="indefinite"/></svg><svg id="U8221jp" viewBox="0 0 1000 1000"><path transform="translate(0, 900) scale(1,-1)" d="M207 579C237 536 265 478 275 439L327 462C316 500 287 558 254 600ZM243 311L243 73L292 73L292 311ZM472 30L472-41L960-41L960 30L748 30L748 676L932 676L932 747L498 747L498 676L671 676L671 30ZM367 638L367 407L177 396L177 638ZM235 841C228 799 214 742 201 699L114 699L114 392L37 388L46 322L114 327C114 207 106 58 39-46C55-53 83-70 95-82C165 30 177 202 177 331L367 345L367-1C367-14 363-17 352-18C339-19 302-19 259-18C268-35 278-63 280-80C341-80 378-79 401-68C425-57 433-37 433-1L433 350L494 355L493 416L433 412L433 699L270 699C284 736 300 782 315 824Z"/><animate attributeName="opacity" values="0;1;1;0;0;0;0" dur="3s" repeatCount="indefinite"/></svg><svg id="U8221sc" viewBox="0 0 1000 1000"><path transform="translate(0, 900) scale(1,-1)" d="M210 592C236 547 261 487 273 448L325 471C315 508 287 567 259 611ZM208 284C239 236 272 172 285 130L338 153C324 194 290 258 257 305ZM364 655L364 404L182 404L182 655ZM40 404L40 342L114 342C114 218 108 62 34-46C51-53 80-73 92-83C170 31 182 209 182 342L364 342L364 12C364 0 359-3 347-4C334-4 294-5 248-3C257-21 268-50 270-67C334-67 373-66 398-55C423-43 431-24 431 12L431 716L277 716L321 828L243 843C236 806 221 755 208 716L114 716L114 404ZM463 43L463-29L955-29L955 43L748 43L748 673L927 673L927 746L481 746L481 673L668 673L668 43Z"/><animate attributeName="opacity" values="0;0;0;1;1;0;0" dur="3s" repeatCount="indefinite"/></svg></svg>