<svg id="U82EF" viewBox="0 0 1000 1000"><svg id="U82EFhk" viewBox="0 0 1000 1000"><path transform="translate(0, 900) scale(1,-1)" d="M462 645L462 518L62 518L62 449L414 449C323 310 170 178 28 111C45 96 68 69 81 51C219 124 365 260 462 407L462 161L271 161L271 93L462 93L462-80L537-80L537 93L731 93L731 161L537 161L537 412C634 271 781 135 915 61C928 81 952 109 970 124C833 189 680 318 588 449L939 449L939 518L537 518L537 645ZM265 840L265 757L62 757L62 688L265 688L265 592L339 592L339 688L459 688L459 757L339 757L339 840ZM539 757L539 688L659 688L659 592L733 592L733 688L936 688L936 757L733 757L733 840L659 840L659 757Z"/><animate attributeName="opacity" values="1;0;0;1;1" dur="2s" repeatCount="indefinite"/></svg><svg id="U82EFjp" viewBox="0 0 1000 1000"><path transform="translate(0, 900) scale(1,-1)" d="M639 840L639 753L357 753L357 840L283 840L283 753L62 753L62 684L283 684L283 588L357 588L357 684L639 684L639 588L713 588L713 684L941 684L941 753L713 753L713 840ZM462 628L462 518L62 518L62 449L388 449C305 311 164 179 31 111C49 96 72 70 85 52C225 133 373 282 462 441L462 161L236 161L236 93L462 93L462-77L537-77L537 93L766 93L766 161L537 161L537 443C626 292 775 143 911 62C924 82 948 110 966 124C839 190 697 319 612 449L939 449L939 518L537 518L537 628Z"/><animate attributeName="opacity" values="0;1;1;0;0" dur="2s" repeatCount="indefinite"/></svg></svg>