<svg id="U8386" viewBox="0 0 1000 1000"><svg id="U8386hk" viewBox="0 0 1000 1000"><path transform="translate(0, 900) scale(1,-1)" d="M157 422L157-80L230-80L230 81L464 81L464-75L538-75L538 81L795 81L795 1C795-13 790-18 774-18C758-19 702-20 643-18C652-36 663-61 666-80C747-80 800-79 830-69C860-58 870-39 870 1L870 422L538 422L538 492L931 492L931 556L856 556L875 581C839 605 772 637 718 653L682 611C721 598 767 577 803 556L538 556L538 653L464 653L464 556L75 556L75 492L464 492L464 422ZM464 221L464 138L230 138L230 221ZM538 221L795 221L795 138L538 138ZM464 278L230 278L230 359L464 359ZM538 278L538 359L795 359L795 278ZM261 841L261 770L60 770L60 705L261 705L261 624L336 624L336 705L476 705L476 770L336 770L336 841ZM520 770L520 705L667 705L667 656L742 656L742 705L945 705L945 770L742 770L742 840L667 840L667 770Z"/><animate attributeName="opacity" values="1;0;0;1;1" dur="2s" repeatCount="indefinite"/></svg><svg id="U8386jp" viewBox="0 0 1000 1000"><path transform="translate(0, 900) scale(1,-1)" d="M154 422L154-80L228-80L228 81L474 81L474-75L549-75L549 81L792 81L792 3C792-11 787-15 771-16C756-17 699-17 640-15C649-33 660-59 663-77C744-77 797-77 827-67C857-56 867-37 867 3L867 422L549 422L549 491L930 491L930 551L856 551L884 590C844 609 771 639 716 659L706 647L706 706L947 706L947 772L706 772L706 840L632 840L632 772L361 772L361 840L287 840L287 772L56 772L56 706L287 706L287 627L361 627L361 706L632 706L632 632L694 632L682 618C731 600 793 572 835 551L549 551L549 653L474 653L474 556L75 556L75 492L474 492L474 422ZM474 221L474 138L228 138L228 221ZM549 221L792 221L792 138L549 138ZM474 278L228 278L228 359L474 359ZM549 278L549 359L792 359L792 278Z"/><animate attributeName="opacity" values="0;1;1;0;0" dur="2s" repeatCount="indefinite"/></svg></svg>