<svg id="U83A8" viewBox="0 0 1000 1000"><svg id="U83A8hk" viewBox="0 0 1000 1000"><path transform="translate(0, 900) scale(1,-1)" d="M766 380L766 289L256 289L256 380ZM766 435L256 435L256 520L766 520ZM839 229C778 192 696 150 629 120C587 152 552 188 524 229ZM157-68C179-55 215-52 543-3C539 12 534 42 531 61L256 26L256 229L446 229C537 68 705-37 920-79C931-59 951-29 968-13C862 4 767 36 688 81C767 114 858 159 927 202L872 250L839 229L839 579L551 579C541 607 523 643 505 671L437 649C449 628 461 603 471 579L182 579L182 60C182 19 153 7 136 4C144-11 154-47 157-68ZM246 841L246 769L60 769L60 702L246 702L246 626L320 626L320 702L476 702L476 769L320 769L320 841ZM520 769L520 702L677 702L677 626L751 626L751 702L945 702L945 769L751 769L751 840L677 840L677 769Z"/><animate attributeName="opacity" values="1;0;0;0;0;1;1" dur="3s" repeatCount="indefinite"/></svg><svg id="U83A8jp" viewBox="0 0 1000 1000"><path transform="translate(0, 900) scale(1,-1)" d="M766 380L766 289L259 289L259 380ZM766 435L259 435L259 520L766 520ZM883 257L839 229C777 192 697 151 633 124C596 154 564 190 540 229L839 229L839 579L533 579L533 657L459 657L459 579L185 579L185 29L64 17L76-57C206-42 396-20 576 2L574 72L259 37L259 229L465 229C550 65 708-39 924-80C934-60 954-31 971-14C862 2 766 35 689 83C769 116 865 163 938 208ZM62 769L62 702L288 702L288 618L361 618L361 702L633 702L633 618L706 618L706 702L940 702L940 769L706 769L706 840L633 840L633 769L361 769L361 840L288 840L288 769Z"/><animate attributeName="opacity" values="0;1;1;0;0;0;0" dur="3s" repeatCount="indefinite"/></svg><svg id="U83A8sc" viewBox="0 0 1000 1000"><path transform="translate(0, 900) scale(1,-1)" d="M766 380L766 290L258 290L258 380ZM766 435L258 435L258 521L766 521ZM181-79C205-66 244-56 565 10C560 26 554 53 552 72L258 15L258 231L447 231C535 72 703-24 923-63C933-42 953-12 969 4C868 17 778 44 702 82C776 114 862 157 928 200L872 249C813 207 716 154 638 119C591 151 552 188 523 231L839 231L839 581L555 581C543 611 523 648 504 676L435 659C449 635 463 607 474 581L184 581L184 51C184 10 164-8 148-17C160-32 176-62 181-79ZM62 764L62 697L283 697L283 618L356 618L356 697L640 697L640 618L713 618L713 697L940 697L940 764L713 764L713 840L640 840L640 764L356 764L356 840L283 840L283 764Z"/><animate attributeName="opacity" values="0;0;0;1;1;0;0" dur="3s" repeatCount="indefinite"/></svg></svg>