<svg id="U83C8" viewBox="0 0 1000 1000"><svg id="U83C8hk" viewBox="0 0 1000 1000"><path transform="translate(0, 900) scale(1,-1)" d="M486 379C512 273 532 133 533 42L604 55C600 147 580 284 552 392ZM38 215L58 144L185 179L185 5C185-7 181-11 169-11C158-12 119-12 77-10C87-29 97-58 100-77C161-77 198-76 224-65C250-53 258-34 258 4L258 200L381 236L373 300L258 270L258 398L375 398L375 464L258 464L258 598L185 598L185 464L53 464L53 398L185 398L185 251C130 237 79 224 38 215ZM611 590C625 558 639 517 649 482L425 482L425 414L927 414L927 482L724 482C714 519 695 569 677 609ZM366 22L366-46L961-46L961 22L779 22C807 123 837 264 859 377L783 394C768 282 738 125 711 22ZM246 841L246 764L60 764L60 696L246 696L246 616L320 616L320 696L476 696L476 764L320 764L320 841ZM520 764L520 696L677 696L677 615L751 615L751 696L945 696L945 764L751 764L751 840L677 840L677 764Z"/><animate attributeName="opacity" values="1;0;0;1;1" dur="2s" repeatCount="indefinite"/></svg><svg id="U83C8sc" viewBox="0 0 1000 1000"><path transform="translate(0, 900) scale(1,-1)" d="M486 379C512 273 532 133 533 42L604 55C600 147 580 284 552 392ZM629 840L629 757L368 757L368 840L294 840L294 757L56 757L56 692L294 692L294 613L368 613L368 692L629 692L629 615L702 615L702 692L947 692L947 757L702 757L702 840ZM38 215L58 144L185 179L185 4C185-8 181-12 169-12C158-13 119-13 77-12C87-30 97-60 100-78C160-78 198-76 223-66C248-54 257-35 257 3L257 200L381 236L373 300L257 269L257 398L375 398L375 464L257 464L257 598L185 598L185 464L53 464L53 398L185 398L185 251C130 237 79 224 38 215ZM611 590C625 558 639 517 649 482L425 482L425 414L927 414L927 482L724 482C714 519 695 569 677 609ZM366 22L366-46L961-46L961 22L779 22C807 123 837 264 859 377L783 394C768 282 738 125 711 22Z"/><animate attributeName="opacity" values="0;1;1;0;0" dur="2s" repeatCount="indefinite"/></svg></svg>