<svg id="U83E0" viewBox="0 0 1000 1000"><svg id="U83E0hk" viewBox="0 0 1000 1000"><path transform="translate(0, 900) scale(1,-1)" d="M91 584C148 554 217 508 250 475L294 530C258 563 189 606 132 633ZM38 387C96 358 168 313 202 280L245 336C209 368 137 411 79 437ZM59-27L118-75C166-2 219 92 261 173L211 219C163 132 102 32 59-27ZM62 767L62 704L292 704L292 625L366 625L366 704L469 704L469 767L366 767L366 840L292 840L292 767ZM532 767L532 704L631 704L631 627L598 627L598 541L361 541L361 352C361 234 348 74 241-41C258-48 290-68 302-80C398 24 426 173 432 295L456 295C492 213 542 141 604 82C536 36 456 2 373-18C387-34 405-63 414-81C504-56 588-18 661 35C732-18 815-57 911-81C922-61 942-33 958-17C867 2 786 35 717 80C790 147 847 232 881 341L834 360L820 357L671 357L671 477L854 477C844 445 832 415 822 392L885 371C906 411 929 474 947 529L894 544L883 541L671 541L671 625L705 625L705 704L946 704L946 767L705 767L705 840L631 840L631 767ZM598 477L598 357L433 357L433 477ZM786 295C757 228 713 171 659 124C603 172 559 230 527 295Z"/><animate attributeName="opacity" values="1;0;0;1;1" dur="2s" repeatCount="indefinite"/></svg><svg id="U83E0jp" viewBox="0 0 1000 1000"><path transform="translate(0, 900) scale(1,-1)" d="M91 584C146 553 217 507 250 475L294 530C258 562 188 605 132 632ZM38 387C94 357 167 311 202 280L245 336C208 367 136 410 80 437ZM59-27L118-75C166-2 219 92 261 173L211 219C163 132 102 32 59-27ZM356 541L356 352C356 234 343 74 235-41C253-48 284-68 297-80C393 24 420 173 426 295L446 295C484 212 537 140 603 82C531 35 447 2 359-18C373-34 390-63 399-82C495-57 585-19 663 35C735-14 820-51 917-73C928-53 948-24 964-9C873 9 791 40 721 82C794 148 852 232 887 341L840 360L826 357L676 357L676 477L855 477C846 446 836 417 828 394L890 373C909 413 930 476 947 529L894 544L883 541L676 541L676 625L710 625L710 704L945 704L945 770L710 770L710 840L636 840L636 770L361 770L361 840L288 840L288 770L58 770L58 704L288 704L288 625L361 625L361 704L636 704L636 627L603 627L603 541ZM603 477L603 357L427 357L427 477ZM792 295C761 227 716 170 660 124C600 171 551 229 517 295Z"/><animate attributeName="opacity" values="0;1;1;0;0" dur="2s" repeatCount="indefinite"/></svg></svg>