<svg id="U83BF" viewBox="0 0 1000 1000"><svg id="U83BFhk" viewBox="0 0 1000 1000"><path transform="translate(0, 900) scale(1,-1)" d="M627 556L627 123L698 123L698 556ZM839 599L839 10C839-4 835-7 820-8C805-9 756-9 703-7C713-29 724-61 727-82C797-82 844-80 873-68C903-56 912-35 912 10L912 599ZM97 407L97 171L164 171L164 346L289 346L289 232C234 145 133 58 41 15C53-2 68-31 75-51C152-11 229 59 289 135L289-81L361-81L361 111C421 70 501 13 537-17L574 46C541 69 416 148 361 180L361 346L490 346L490 239C490 230 488 227 478 226C467 226 438 226 400 227C408 211 417 190 420 173C473 173 507 174 529 182C552 192 557 208 557 239L557 407L361 407L361 475L576 475L576 539L361 539L361 607L289 607L289 539L65 539L65 475L289 475L289 407ZM265 840L265 768L54 768L54 703L265 703L265 632L342 632L342 703L468 703L468 768L342 768L342 840ZM525 768L525 703L665 703L665 632L741 632L741 703L940 703L940 768L741 768L741 840L665 840L665 768Z"/><animate attributeName="opacity" values="1;0;0;1;1" dur="2s" repeatCount="indefinite"/></svg><svg id="U83BFjp" viewBox="0 0 1000 1000"><path transform="translate(0, 900) scale(1,-1)" d="M627 556L627 123L698 123L698 556ZM839 599L839 10C839-4 835-7 820-8C805-9 756-9 703-7C713-29 724-61 727-82C797-82 844-80 873-68C903-56 912-35 912 10L912 599ZM97 407L97 171L164 171L164 346L289 346L289 226C234 139 133 53 41 9C53-8 68-37 75-56C152-17 229 53 289 130L289-80L359-80L359 108C419 67 501 8 537-22L574 40C541 63 413 145 359 175L359 346L490 346L490 239C490 230 488 227 478 226C467 226 438 226 400 227C408 211 417 190 420 173C473 173 507 174 529 182C552 192 557 208 557 239L557 407L359 407L359 475L576 475L576 539L359 539L359 611L289 611L289 539L65 539L65 475L289 475L289 407ZM62 764L62 697L288 697L288 630L361 630L361 697L633 697L633 625L706 625L706 697L941 697L941 764L706 764L706 840L633 840L633 764L361 764L361 840L288 840L288 764Z"/><animate attributeName="opacity" values="0;1;1;0;0" dur="2s" repeatCount="indefinite"/></svg></svg>