<svg id="U830F" viewBox="0 0 1000 1000"><path transform="translate(0, 900) scale(1,-1)" d="M777 348C731 293 668 240 597 191L597 396L944 396L944 466L780 466L810 509C767 534 684 570 623 591L587 546C644 524 716 491 760 466L438 466C444 503 449 541 453 582L377 587C373 544 368 504 362 466L58 466L58 396L348 396C304 200 215 70 38-8C55-22 81-54 91-70C280 26 376 171 425 396L524 396L524 145C454 104 380 68 309 41C328 25 349-1 360-19C414 4 470 31 524 62L524 57C524-28 551-51 653-51C675-51 826-51 849-51C935-51 957-18 966 103C946 108 916 119 899 132C894 33 888 16 844 16C811 16 684 16 658 16C606 16 597 23 597 57L597 107C692 168 779 239 845 314ZM637 840L637 746L365 746L365 840L292 840L292 746L61 746L61 677L292 677L292 599L365 599L365 677L637 677L637 602L711 602L711 677L942 677L942 746L711 746L711 840Z"/></svg>