<svg id="U83FD" viewBox="0 0 1000 1000"><svg id="U83FDhk" viewBox="0 0 1000 1000"><path transform="translate(0, 900) scale(1,-1)" d="M119 254C100 177 66 96 29 41C46 33 76 18 90 8C126 66 164 155 187 237ZM388 231C416 177 449 105 462 58L525 85C510 131 478 200 447 255ZM62 773L62 705L294 705L294 632L237 632L237 375L45 375L45 308L254 308L254-5C254-15 251-19 239-19C228-20 194-20 155-19C165-36 175-63 178-81C233-81 270-80 294-69C318-59 325-42 325-7L325 308L536 308L536 375L308 375L308 479L487 479L487 543L308 543L308 632L368 632L368 705L486 705L486 773L368 773L368 840L294 840L294 773ZM519 773L519 705L632 705L632 631L707 631L707 705L941 705L941 773L707 773L707 840L632 840L632 773ZM832 516C809 403 770 305 719 224C670 309 635 409 611 516ZM514 584L514 516L606 516L548 503C577 375 619 259 675 162C610 79 530 18 443-21C458-34 478-62 488-80C574-38 652 20 717 98C771 24 837-36 916-78C927-60 949-33 965-20C884 19 816 80 762 157C835 263 888 400 916 573L869 587L856 584Z"/><animate attributeName="opacity" values="1;0;0;1;1" dur="2s" repeatCount="indefinite"/></svg><svg id="U83FDjp" viewBox="0 0 1000 1000"><path transform="translate(0, 900) scale(1,-1)" d="M125 254C108 176 81 96 44 41C61 33 90 17 103 6C141 65 173 154 192 240ZM383 235C411 181 444 109 457 62L520 89C505 135 473 205 443 259ZM629 840L629 767L368 767L368 840L294 840L294 767L56 767L56 700L294 700L294 632L368 632L368 700L629 700L629 631L703 631L703 700L944 700L944 767L703 767L703 840ZM826 516C803 405 766 308 718 228C671 312 636 410 613 516ZM511 584L511 516L569 516L546 511C576 379 617 261 674 163C612 80 535 18 451-21C467-35 486-62 497-81C580-38 654 20 717 97C771 22 836-38 914-80C925-61 949-33 965-19C884 21 816 81 762 158C832 265 884 401 910 573L862 587L849 584ZM233 625L233 375L45 375L45 308L254 308L254-5C254-15 251-19 239-19C228-20 194-20 155-19C165-36 175-63 178-81C233-81 270-80 294-69C318-59 325-42 325-7L325 308L523 308L523 375L304 375L304 479L487 479L487 543L304 543L304 625Z"/><animate attributeName="opacity" values="0;1;1;0;0" dur="2s" repeatCount="indefinite"/></svg></svg>