<svg id="U8357" viewBox="0 0 1000 1000"><svg id="U8357hk" viewBox="0 0 1000 1000"><path transform="translate(0, 900) scale(1,-1)" d="M782 402C748 329 702 264 646 208C618 273 594 349 579 433L935 433L935 502L832 502L880 545C853 573 799 613 759 641L711 602C752 572 803 530 828 502L568 502C563 541 559 581 558 622L484 622C486 581 489 541 494 502L156 502L156 356C156 241 142 84 39-31C57-40 88-63 100-76C186 21 217 153 227 267C292 225 358 173 392 134L446 188C401 237 308 301 230 344L230 354L230 433L505 433C523 330 552 236 588 156C504 87 402 34 289-4C304-19 328-51 337-68C441-27 538 26 621 92C682-11 757-76 836-76C907-76 935-38 948 99C929 106 903 120 886 136C881 33 869-3 841-3C787-4 728 51 678 142C749 208 809 287 853 379ZM62 751L62 682L293 682L293 602L366 602L366 682L486 682L486 751L366 751L366 840L293 840L293 751ZM519 751L519 682L631 682L631 607L705 607L705 682L941 682L941 751L705 751L705 840L631 840L631 751Z"/><animate attributeName="opacity" values="1;0;0;0;0;1;1" dur="3s" repeatCount="indefinite"/></svg><svg id="U8357jp" viewBox="0 0 1000 1000"><path transform="translate(0, 900) scale(1,-1)" d="M232 303C302 253 384 179 421 127L476 178C437 229 353 300 284 347ZM786 402C751 327 703 261 645 204C616 270 592 348 577 433L947 433L947 502L848 502L889 541C861 569 803 612 759 641L711 600C753 570 804 531 834 502L566 502C561 541 558 580 557 621L482 621C484 581 487 541 492 502L145 502L145 354C145 240 132 80 34-36C51-45 82-67 95-81C200 44 219 226 219 353L219 433L502 433C520 329 549 233 587 153C497 81 388 26 268-13C283-29 306-62 316-77C428-36 531 19 620 89C683-16 762-82 849-82C922-82 951-44 964 94C945 101 918 115 902 130C895 27 884-9 853-9C793-10 730 46 678 138C750 205 811 285 857 379ZM631 840L631 755L366 755L366 840L293 840L293 755L62 755L62 686L293 686L293 582L366 582L366 686L631 686L631 588L705 588L705 686L941 686L941 755L705 755L705 840Z"/><animate attributeName="opacity" values="0;1;1;0;0;0;0" dur="3s" repeatCount="indefinite"/></svg><svg id="U8357sc" viewBox="0 0 1000 1000"><path transform="translate(0, 900) scale(1,-1)" d="M782 402C748 329 702 264 646 208C618 273 594 349 579 433L935 433L935 502L832 502L880 545C853 573 799 613 759 641L711 602C752 572 803 530 828 502L568 502C563 541 559 581 558 622L484 622C486 581 489 541 494 502L156 502L156 356C156 241 142 84 39-31C57-40 88-63 100-76C186 21 217 153 227 267C292 225 358 173 392 134L446 188C401 237 308 301 230 344L230 354L230 433L505 433C523 330 552 236 588 156C504 87 402 34 289-4C304-19 328-51 337-68C441-27 538 26 621 92C682-11 757-76 836-76C907-76 935-38 948 99C929 106 903 120 886 136C881 33 869-3 841-3C787-4 728 51 678 142C749 208 809 287 853 379ZM631 840L631 746L366 746L366 840L293 840L293 746L62 746L62 676L293 676L293 582L366 582L366 676L631 676L631 588L705 588L705 676L941 676L941 746L705 746L705 840Z"/><animate attributeName="opacity" values="0;0;0;1;1;0;0" dur="3s" repeatCount="indefinite"/></svg></svg>