<svg id="U84EC" viewBox="0 0 1000 1000"><svg id="U84EChk" viewBox="0 0 1000 1000"><path transform="translate(0, 900) scale(1,-1)" d="M99 640C135 603 180 551 203 518L266 551C243 581 199 629 160 665ZM519 560L770 560C745 534 714 511 678 491C619 511 559 530 505 547ZM547 674C506 614 428 543 323 492C334 484 353 464 362 450C395 468 426 486 453 506C502 491 554 474 607 455C514 416 403 391 296 378C307 364 320 341 325 326C449 344 575 376 679 430C773 395 862 359 920 331L958 383C904 408 827 438 744 468C794 501 836 541 867 589L827 612L815 610L568 610C583 627 597 645 609 663ZM600 378L600 322L384 322L384 275L600 275L600 226L403 226L403 180L600 180L600 128L347 128L347 80L600 80L600 17L670 17L670 80L924 80L924 128L670 128L670 180L868 180L868 226L670 226L670 275L882 275L882 322L670 322L670 378ZM249 841L249 773L60 773L60 709L249 709L249 636L323 636L323 709L479 709L479 773L323 773L323 841ZM520 773L520 710L671 710L671 658L745 658L745 710L945 710L945 773L745 773L745 840L671 840L671 773ZM88 223C95 231 122 237 146 237L235 237C195 120 119 26 32-27C46-38 68-66 76-82C130-47 180 2 222 65C300-51 425-72 628-72C736-72 859-69 952-64C956-44 965-10 976 6C876-4 732-8 628-8C444-7 319 8 254 118C279 166 300 221 315 281L281 299L269 297L168 297C219 355 283 438 320 486L273 509L259 504L62 504L62 443L211 443C174 393 126 333 107 315C89 298 74 292 61 288C68 274 84 240 88 223Z"/><animate attributeName="opacity" values="1;0;0;0;0;1;1" dur="3s" repeatCount="indefinite"/></svg><svg id="U84ECjp" viewBox="0 0 1000 1000"><path transform="translate(0, 900) scale(1,-1)" d="M91 628C142 594 199 545 226 509L278 553C250 588 191 636 141 668ZM50 468C102 437 162 389 190 355L242 401C211 435 149 480 98 510ZM252 302L49 302L49 237L182 237L182 94C134 57 81 19 39-9L73-75C125-35 176 5 223 46C281-27 364-61 485-65C600-69 827-67 942-63C946-42 956-11 965 4C841-3 598-6 484-2C377 2 295 35 252 103ZM632 840L632 773L363 773L363 840L289 840L289 773L56 773L56 709L289 709L289 634L363 634L363 709L632 709L632 636L707 636L707 709L945 709L945 773L707 773L707 840ZM493 559L728 559C699 528 662 502 619 479C567 501 523 526 489 556ZM515 675C475 615 399 545 295 496C309 487 329 465 338 450C379 472 415 496 447 521C477 494 513 470 553 449C470 415 373 393 279 381C290 367 304 343 310 327C418 345 527 373 621 418C710 382 814 359 921 346C928 364 946 389 960 403C864 412 769 429 687 455C745 491 794 536 828 590L786 613L774 610L542 610C557 627 571 645 583 663ZM578 382L578 324L369 324L369 277L578 277L578 226L387 226L387 180L578 180L578 127L319 127L319 78L578 78L578 18L646 18L646 78L919 78L919 127L646 127L646 180L844 180L844 226L646 226L646 277L858 277L858 324L646 324L646 382Z"/><animate attributeName="opacity" values="0;1;1;0;0;0;0" dur="3s" repeatCount="indefinite"/></svg><svg id="U84ECsc" viewBox="0 0 1000 1000"><path transform="translate(0, 900) scale(1,-1)" d="M76 607C121 558 178 490 206 448L269 486C240 527 181 592 135 639ZM632 840L632 773L363 773L363 840L289 840L289 773L56 773L56 709L289 709L289 634L363 634L363 709L632 709L632 636L707 636L707 709L945 709L945 773L707 773L707 840ZM493 559L741 559C709 527 667 499 619 476C565 497 519 522 485 552ZM515 675C475 615 399 545 295 496C309 487 329 465 338 450C377 471 411 493 442 517C473 490 509 467 550 447C465 415 368 395 273 384C284 370 297 346 303 330C413 346 524 373 620 416C711 381 816 358 924 346C932 364 949 390 963 404C868 412 774 428 691 452C753 488 806 534 842 590L801 613L788 610L542 610C557 627 571 645 583 663ZM580 382L580 324L361 324L361 277L580 277L580 227L380 227L380 181L580 181L580 130L325 130L325 81L580 81L580 16L649 16L649 81L899 81L899 130L649 130L649 181L841 181L841 227L649 227L649 277L859 277L859 324L649 324L649 382ZM254 361L59 361L59 296L184 296L184 83C139 66 89 28 39-17L88-75C142-17 194 33 232 33C255 33 287 6 329-17C398-54 484-65 599-65C694-65 862-60 940-55C941-36 951-4 960 14C861 4 713-1 600-1C492-1 408 5 344 39C303 61 279 82 254 89Z"/><animate attributeName="opacity" values="0;0;0;1;1;0;0" dur="3s" repeatCount="indefinite"/></svg></svg>