<svg id="U840A" viewBox="0 0 1000 1000"><svg id="U840Ahk" viewBox="0 0 1000 1000"><path transform="translate(0, 900) scale(1,-1)" d="M461 652L461 561L67 561L67 495L461 495L461 348C379 194 215 63 35 6C52-10 75-39 86-59C232-4 367 98 461 226L461-80L535-80L535 222C629 96 764-2 916-53C927-32 950-3 966 12C780 64 619 186 535 336L535 495L934 495L934 561L535 561L535 652ZM230 471C204 369 149 281 72 223C88 214 118 192 130 181C174 218 213 266 244 322C278 288 312 250 329 223L384 261C361 293 312 342 272 380C283 405 292 431 299 459ZM722 471C703 383 661 304 602 252C621 245 653 229 667 219C695 247 720 282 742 322C790 278 843 228 870 194L925 239C890 278 824 337 769 382C778 407 786 434 792 461ZM246 841L246 762L60 762L60 694L246 694L246 615L320 615L320 694L479 694L479 762L320 762L320 841ZM520 762L520 694L677 694L677 615L751 615L751 694L945 694L945 762L751 762L751 840L677 840L677 762Z"/><animate attributeName="opacity" values="1;0;0;1;1" dur="2s" repeatCount="indefinite"/></svg><svg id="U840Ajp" viewBox="0 0 1000 1000"><path transform="translate(0, 900) scale(1,-1)" d="M633 840L633 759L364 759L364 840L290 840L290 759L53 759L53 691L290 691L290 611L364 611L364 691L633 691L633 609L707 609L707 691L951 691L951 759L707 759L707 840ZM461 652L461 561L67 561L67 495L461 495L461 348C379 194 215 63 35 6C52-10 75-39 86-59C232-4 367 98 461 226L461-80L535-80L535 225C629 98 763-1 915-52C927-31 950-1 967 15C781 67 618 191 535 342L535 495L934 495L934 561L535 561L535 652ZM229 471C207 366 154 279 75 223C92 213 120 191 132 180C176 215 215 260 244 315C276 282 306 247 323 221L376 261C354 291 310 337 272 373C282 401 291 431 298 462ZM723 471C706 383 668 309 604 262C621 252 649 229 661 218C695 246 723 281 745 322C795 278 849 225 877 191L932 235C896 276 828 337 772 383C781 408 788 435 793 463Z"/><animate attributeName="opacity" values="0;1;1;0;0" dur="2s" repeatCount="indefinite"/></svg></svg>