<svg id="U8437" viewBox="0 0 1000 1000"><svg id="U8437hk" viewBox="0 0 1000 1000"><path transform="translate(0, 900) scale(1,-1)" d="M633 551L633 120L701 120L701 551ZM826 587L826 16C826 2 820-3 803-4C787-5 729-5 667-2C678-23 689-53 693-73C774-73 826-72 857-60C888-48 899-28 899 16L899 587ZM463 380L463 301L173 301L173 380ZM105 438L105-79L173-79L173 109L463 109L463 6C463-7 459-11 445-11C430-12 382-12 330-11C339-28 349-55 353-73C423-73 468-73 496-61C524-51 532-32 532 5L532 438L457 438C482 475 511 526 536 572L477 599C460 554 424 487 398 448L420 438L348 438L348 603L281 603L281 438ZM463 244L463 167L173 167L173 244ZM90 565C121 526 156 472 171 438L229 472C212 504 176 556 145 594ZM269 841L269 749L61 749L61 686L269 686L269 621L343 621L343 686L476 686L476 749L343 749L343 841ZM521 749L521 686L652 686L652 608L726 608L726 686L945 686L945 749L726 749L726 840L652 840L652 749Z"/><animate attributeName="opacity" values="1;0;0;0;0;1;1" dur="3s" repeatCount="indefinite"/></svg><svg id="U8437sc" viewBox="0 0 1000 1000"><path transform="translate(0, 900) scale(1,-1)" d="M641 540L641 109L710 109L710 540ZM826 597L826 26C826 11 822 7 804 7C789 6 733 5 672 7C682-14 694-44 698-65C777-65 826-64 857-52C887-40 898-19 898 26L898 597ZM628 840L628 763L368 763L368 840L294 840L294 763L59 763L59 699L294 699L294 625L368 625L368 699L628 699L628 623L703 623L703 699L942 699L942 763L703 763L703 840ZM486 380L486 309L157 309L157 380ZM481 593C463 548 428 483 399 438L354 438L354 607L287 607L287 438L194 438L231 462C216 495 179 548 146 587L95 558C124 522 156 473 173 438L93 438L93-77L157-77L157 119L486 119L486 6C486-5 483-8 472-8C463-9 429-9 394-8C402-26 412-53 415-73C466-73 500-72 522-61C545-49 551-31 551 6L551 438L464 438C489 477 516 525 539 568ZM157 177L157 252L486 252L486 177Z"/><animate attributeName="opacity" values="0;1;1;0;0;0;0" dur="3s" repeatCount="indefinite"/></svg><svg id="U8437tc" viewBox="0 0 1000 1000"><path transform="translate(0, 900) scale(1,-1)" d="M643 548L643 111L709 111L709 548ZM820 596L820 22C820 7 814 3 798 2C782 1 725 1 664 3C674-17 686-47 690-68C770-68 821-66 851-55C882-43 893-22 893 21L893 596ZM207 282C275 264 363 232 408 208L435 257C388 280 300 310 233 326ZM182 126L206 65L475 133L475 3C475-8 472-11 460-11C449-12 410-12 371-11C380-28 390-53 393-71C449-71 485-70 510-60C534-49 542-32 542 3L542 438L473 438C499 478 527 528 551 572L491 599C472 551 435 482 406 438L356 438L356 608L290 608L290 438L183 438L234 470C219 502 183 554 151 592L100 563C130 525 164 472 179 438L121 438L121 260C121 169 113 47 49-42C64-50 91-70 102-82C171 16 184 158 184 259L184 380L475 380L475 192C366 166 258 141 182 126ZM272 841L272 749L61 749L61 683L272 683L272 619L346 619L346 683L476 683L476 749L346 749L346 841ZM521 749L521 683L652 683L652 608L726 608L726 683L945 683L945 749L726 749L726 840L652 840L652 749Z"/><animate attributeName="opacity" values="0;0;0;1;1;0;0" dur="3s" repeatCount="indefinite"/></svg></svg>