<svg id="U844C" viewBox="0 0 1000 1000"><svg id="U844Chk" viewBox="0 0 1000 1000"><path transform="translate(0, 900) scale(1,-1)" d="M635 542C603 504 561 474 511 451C453 464 393 476 333 487L379 542ZM357 286L351 255L252 248C263 270 274 293 283 314L238 323C346 337 444 358 526 393C649 364 756 333 833 305L894 350C816 376 714 404 600 431C647 460 688 497 718 542L926 542L926 597L749 597L761 625L686 635C682 622 676 609 671 597L421 597C437 620 452 642 465 664L392 683C376 656 357 626 335 597L75 597L75 542L293 542C267 511 241 482 217 458C286 445 354 432 419 418C324 391 211 378 86 372C97 357 114 327 119 311L214 320C204 296 192 270 178 243L42 235L50 177L146 184C125 148 104 115 84 88C125 76 169 61 213 44C164 11 105-12 34-28C46-42 63-67 69-81C152-58 221-27 276 17C327-5 374-29 407-49L453-4C419 15 372 38 322 59C357 98 384 145 403 202L454 206L454 262L419 259L424 284ZM786 183C767 140 740 105 705 76C671 89 637 101 604 112L644 183ZM511 84C555 71 602 55 649 38C596 8 531-13 456-27C469-41 486-68 492-82C581-60 657-31 718 10C791-20 858-53 904-80L952-36C905-10 839 21 768 51C806 87 836 130 858 183L956 183L956 239L876 239L884 272L814 274L806 239L672 239C687 272 701 304 713 335L646 348C634 314 617 276 599 239L471 239L471 183L570 183C550 146 530 112 511 84ZM176 115C191 137 206 163 221 189L335 197C318 152 293 115 262 84C233 95 204 105 176 115ZM60 773L60 707L288 707L288 638L361 638L361 707L480 707L480 773L361 773L361 840L288 840L288 773ZM518 773L518 707L633 707L633 638L706 638L706 707L939 707L939 773L706 773L706 840L633 840L633 773Z"/><animate attributeName="opacity" values="1;0;0;1;1" dur="2s" repeatCount="indefinite"/></svg><svg id="U844Csc" viewBox="0 0 1000 1000"><path transform="translate(0, 900) scale(1,-1)" d="M365 194C347 146 321 108 289 76C253 90 216 104 181 115C196 139 212 166 228 194ZM217 458C296 443 374 427 448 411C348 382 224 369 90 364C102 349 120 322 125 306L215 314C206 294 196 273 185 251L52 251L52 194L153 194C130 155 106 117 84 88C133 74 187 56 238 35C185 1 120-21 44-36C59-46 84-70 94-85C176-66 248-38 306 7C351-14 392-34 422-51L471-5C439 11 398 31 353 50C397 98 429 160 449 240L407 252L394 251L258 251C269 273 279 294 288 315L263 320C370 333 467 353 548 387C659 360 756 332 828 306L890 356C820 379 730 404 629 429C678 460 718 499 746 548L922 548L922 606L429 606C445 627 459 648 471 668L400 685C385 660 367 633 346 606L83 606L83 548L301 548C273 515 244 483 217 458ZM660 548C633 506 594 474 545 449C477 464 407 479 336 492C351 509 368 528 384 548ZM802 193C786 143 757 103 718 71C681 86 642 99 605 111C620 136 636 164 651 193ZM511 84C559 70 610 52 661 33C604 3 534-17 453-30C466-42 485-69 491-82C584-62 665-35 729 5C795-23 855-52 897-77L947-33C904-10 846 18 782 45C825 84 858 132 877 193L957 193L957 250L679 250C692 277 704 305 714 331L647 344C636 315 622 282 606 250L473 250L473 193L577 193C555 152 532 114 511 84ZM62 773L62 707L288 707L288 638L361 638L361 707L633 707L633 638L706 638L706 707L941 707L941 773L706 773L706 840L633 840L633 773L361 773L361 840L288 840L288 773Z"/><animate attributeName="opacity" values="0;1;1;0;0" dur="2s" repeatCount="indefinite"/></svg></svg>