<svg id="U8430" viewBox="0 0 1000 1000"><svg id="U8430hk" viewBox="0 0 1000 1000"><path transform="translate(0, 900) scale(1,-1)" d="M662 402C645 366 611 312 585 279L634 261C661 292 694 339 723 381ZM275 384C304 348 330 299 340 266L394 285C385 317 356 366 328 400ZM142 470L142 202L415 202C324 114 173 36 37-1C54-17 77-45 89-63C218-21 362 59 460 153L460-80L538-80L538 155C633 59 777-23 910-65C922-45 945-17 963-1C822 35 670 113 581 202L863 202L863 470L538 470L538 533L941 533L941 597L538 597L538 653L460 653L460 597L71 597L71 533L460 533L460 470ZM212 412L460 412L460 260L212 260ZM538 412L791 412L791 260L538 260ZM265 840L265 773L54 773L54 711L265 711L265 657L339 657L339 711L468 711L468 773L339 773L339 840ZM525 773L525 711L672 711L672 657L745 657L745 711L940 711L940 773L745 773L745 840L672 840L672 773Z"/><animate attributeName="opacity" values="1;0;0;1;1" dur="2s" repeatCount="indefinite"/></svg><svg id="U8430sc" viewBox="0 0 1000 1000"><path transform="translate(0, 900) scale(1,-1)" d="M628 840L628 767L368 767L368 840L294 840L294 767L62 767L62 704L294 704L294 629L368 629L368 704L628 704L628 635L702 635L702 704L943 704L943 767L702 767L702 840ZM142 470L142 202L416 202C325 112 174 31 37-7C54-23 77-51 90-69C219-25 362 56 460 152L460-80L538-80L538 155C633 56 776-27 910-71C922-51 945-23 963-7C822 30 669 111 581 202L863 202L863 470L538 470L538 533L941 533L941 597L538 597L538 653L460 653L460 597L71 597L71 533L460 533L460 470ZM212 412L460 412L460 260L212 260ZM662 402C645 363 611 306 585 270L612 260L538 260L538 412L791 412L791 260L640 260C666 293 696 339 723 382ZM275 384C305 346 332 294 342 260L397 279C387 313 357 364 328 400Z"/><animate attributeName="opacity" values="0;1;1;0;0" dur="2s" repeatCount="indefinite"/></svg></svg>