<svg id="U84BE" viewBox="0 0 1000 1000"><svg id="U84BEhk" viewBox="0 0 1000 1000"><path transform="translate(0, 900) scale(1,-1)" d="M381 562C419 515 457 450 471 407L533 439C518 481 478 543 439 589ZM823 593C801 545 758 476 726 434L783 409C816 449 857 511 891 566ZM111 636C150 597 198 543 223 508L281 545C256 576 208 627 167 666ZM295 840L295 769L62 769L62 704L295 704L295 632L368 632L368 704L486 704L486 769L368 769L368 840ZM628 840L628 769L519 769L519 704L628 704L628 634L701 634L701 704L941 704L941 769L701 769L701 840ZM594 616L594 404L335 404L335 339L548 339C494 256 408 176 326 136C342 123 363 98 375 81C454 126 537 210 594 300L594 41L666 41L666 275C744 216 829 144 875 96L924 148C871 199 770 278 686 339L939 339L939 404L666 404L666 616ZM88 214C95 222 122 228 146 228L237 228C196 115 118 26 29-24C43-35 65-64 73-81C129-47 181 2 225 63C302-49 424-71 622-71C728-71 851-68 941-63C945-44 953-12 964 4C866-6 725-10 622-9C443-9 321 6 257 112C284 159 306 212 322 270L286 292L273 289L172 289C223 344 288 421 325 468L276 492L261 486L63 486L63 424L209 424C172 378 126 325 108 308C90 291 74 284 61 281C68 266 84 231 88 214Z"/><animate attributeName="opacity" values="1;0;0;0;0;1;1" dur="3s" repeatCount="indefinite"/></svg><svg id="U84BEjp" viewBox="0 0 1000 1000"><path transform="translate(0, 900) scale(1,-1)" d="M366 566C404 518 444 452 458 409L521 441C505 484 464 548 425 594ZM813 599C789 551 746 481 712 438L764 413C801 453 847 515 886 570ZM62 435C114 403 175 354 202 317L253 367C224 404 162 450 110 480ZM113 590C164 557 223 508 251 472L301 522C272 557 211 604 160 634ZM628 840L628 768L368 768L368 840L295 840L295 768L58 768L58 703L295 703L295 625L368 625L368 703L628 703L628 627L701 627L701 703L948 703L948 768L701 768L701 840ZM582 612L582 403L311 403L311 339L537 339C477 255 382 177 293 138C309 124 331 98 342 80C429 126 520 209 582 300L582 53L655 53L655 302C720 212 814 129 903 85C915 104 937 130 953 144C861 181 762 257 701 339L938 339L938 403L655 403L655 612ZM253 281L49 281L49 213L182 213L182 99C135 63 83 27 40 2L75-70C127-31 176 7 224 46C288-26 380-56 505-60C615-63 830-62 940-57C944-36 955-3 964 14C845 6 613 4 504 7C393 11 302 40 253 106Z"/><animate attributeName="opacity" values="0;1;1;0;0;0;0" dur="3s" repeatCount="indefinite"/></svg><svg id="U84BEsc" viewBox="0 0 1000 1000"><path transform="translate(0, 900) scale(1,-1)" d="M366 579C404 532 442 467 456 425L519 456C504 498 464 562 425 607ZM103 594C155 560 216 510 244 474L295 524C265 560 202 607 150 638ZM628 840L628 766L368 766L368 840L295 840L295 766L58 766L58 702L295 702L295 636L368 636L368 702L628 702L628 637L701 637L701 702L948 702L948 766L701 766L701 840ZM816 608C791 553 745 477 710 430L741 417L655 417L655 624L582 624L582 417L313 417L313 353L537 353C478 269 382 190 293 151C309 137 331 111 342 93C429 139 520 222 582 313L582 57L655 57L655 277C740 221 834 152 884 107L933 158C870 211 749 293 655 349L655 353L940 353L940 417L777 417C812 461 853 524 885 581ZM257 434L60 434L60 367L185 367L185 91C142 74 94 36 47-9L93-70C145-11 196 40 231 40C253 40 284 12 325-12C391-49 477-59 593-59C691-59 865-54 943-49C945-28 955 5 963 23C864 12 711 6 595 6C488 6 402 11 340 48C301 69 279 88 257 97Z"/><animate attributeName="opacity" values="0;0;0;1;1;0;0" dur="3s" repeatCount="indefinite"/></svg></svg>