<svg id="U85D0" viewBox="0 0 1000 1000"><svg id="U85D0hk" viewBox="0 0 1000 1000"><path transform="translate(0, 900) scale(1,-1)" d="M546 356L835 356L835 268L546 268ZM546 494L835 494L835 409L546 409ZM62 759L62 694L287 694L287 635L334 635C269 589 146 546 47 530C60 517 74 493 81 477C188 502 319 558 388 612L354 635L361 635L361 694L486 694L486 759L361 759L361 840L287 840L287 759ZM519 759L519 694L638 694L638 632L660 632C654 608 643 577 632 550L476 550L476 213L584 213C575 95 542 19 414-23C428-35 447-60 455-76C600-25 641 69 653 213L730 213L730 17C730-49 745-68 809-68C822-68 874-68 887-68C938-68 956-44 962 51C944 56 916 66 902 77C900 4 897-5 879-5C868-5 828-5 820-5C800-5 798-2 798 18L798 213L907 213L907 550L706 550L740 622L679 632L712 632L712 694L941 694L941 759L712 759L712 840L638 840L638 759ZM409 508C393 492 373 476 350 461C334 487 310 516 286 538L237 511C261 488 285 457 301 430C279 418 257 406 233 395C216 424 187 458 159 482L110 459C136 434 162 401 180 372C138 356 96 343 56 334C69 319 84 295 92 278C146 294 204 317 259 345C271 332 282 318 291 304C233 257 130 207 52 184C64 171 80 149 87 134C160 163 252 212 315 260C323 243 329 226 334 208C266 144 141 76 41 45C53 31 69 6 75-10C165 25 271 87 346 149C354 83 341 26 318 7C304-10 287-11 266-11C248-11 220-11 190-7C201-26 207-53 208-70C235-72 260-73 279-73C318-72 342-65 368-39C435 18 437 239 311 372C368 404 420 440 456 475Z"/><animate attributeName="opacity" values="1;0;0;0;0;1;1" dur="3s" repeatCount="indefinite"/></svg><svg id="U85D0jp" viewBox="0 0 1000 1000"><path transform="translate(0, 900) scale(1,-1)" d="M539 356L836 356L836 268L539 268ZM539 494L836 494L836 409L539 409ZM470 550L470 213L557 213C547 94 516 16 389-27C403-39 423-66 430-81C575-28 614 68 626 213L728 213L728 18C728-49 744-67 809-67C822-67 876-67 889-67C940-67 958-43 965 51C946 56 918 66 904 77C902 4 898-5 881-5C869-5 827-5 819-5C799-5 796-1 796 18L796 213L908 213L908 550L704 550L740 625L700 632L703 632L703 695L943 695L943 762L703 762L703 840L629 840L629 762L367 762L367 840L293 840L293 762L56 762L56 695L293 695L293 632L311 632C243 596 137 558 41 532C50 519 60 496 63 483C178 512 307 555 396 602L353 632L367 632L367 695L629 695L629 632L659 632C652 608 641 577 631 550ZM207 507C233 478 260 440 269 412C239 394 208 378 175 362L208 383C196 414 163 455 131 485L82 457C113 427 145 385 157 354C120 337 81 322 43 308C51 295 63 274 67 260C132 283 198 310 260 341C272 329 282 315 292 301C232 254 127 204 46 181C59 169 74 146 81 131C156 161 251 210 316 258C324 242 330 225 335 208C267 140 142 67 39 35C51 21 67-4 73-20C165 16 272 81 348 147C356 78 344 19 319-1C305-18 288-19 266-19C248-19 220-19 189-15C201-33 206-61 208-78C235-79 260-80 280-80C319-79 343-73 370-47C437 10 439 234 312 369C369 401 420 436 459 474L398 512C377 489 351 466 320 444C309 472 283 508 257 533Z"/><animate attributeName="opacity" values="0;1;1;0;0;0;0" dur="3s" repeatCount="indefinite"/></svg><svg id="U85D0sc" viewBox="0 0 1000 1000"><path transform="translate(0, 900) scale(1,-1)" d="M546 356L835 356L835 268L546 268ZM546 494L835 494L835 409L546 409ZM476 550L476 213L584 213C575 95 542 19 414-23C428-35 447-60 455-76C600-25 641 69 653 213L730 213L730 17C730-47 745-65 809-65C822-65 874-65 887-65C938-65 955-41 961 52C943 57 916 67 902 77C900 5 897-5 879-5C868-5 828-5 820-5C800-5 798-2 798 18L798 213L907 213L907 550L706 550L740 622L679 632L712 632L712 696L947 696L947 762L712 762L712 840L638 840L638 762L361 762L361 840L287 840L287 762L53 762L53 696L287 696L287 635L333 635C268 591 146 550 47 535C60 522 74 498 81 482C187 506 319 559 388 612L354 635L361 635L361 696L638 696L638 632L660 632C654 608 643 577 632 550ZM409 508C393 492 373 476 350 461C334 487 310 516 286 538L237 511C261 488 285 457 301 430C279 418 257 406 233 395C216 424 187 458 159 482L110 459C136 434 162 401 180 372C138 356 96 343 56 334C69 319 84 295 92 278C146 294 204 317 259 345C271 332 282 318 291 304C233 257 130 207 52 184C64 171 80 149 87 134C160 163 252 212 315 260C323 243 329 226 334 208C266 144 141 76 41 45C53 31 69 6 75-10C165 25 271 87 346 149C354 83 341 26 318 7C304-10 287-11 266-11C248-11 220-11 190-7C201-26 207-53 208-70C235-72 260-73 279-73C318-72 342-65 368-39C435 18 437 239 311 372C368 404 420 440 456 475Z"/><animate attributeName="opacity" values="0;0;0;1;1;0;0" dur="3s" repeatCount="indefinite"/></svg></svg>