<svg id="U8533" viewBox="0 0 1000 1000"><svg id="U8533hk" viewBox="0 0 1000 1000"><path transform="translate(0, 900) scale(1,-1)" d="M56-23L113-74C172 1 240 100 294 184L245 232C185 141 109 38 56-23ZM89 586C152 559 230 514 269 481L312 539C272 572 193 613 131 637ZM38 386C100 362 174 320 212 289L254 345C215 377 139 415 78 437ZM591 649L591 604L342 604L342 551L591 551L591 501L367 501L367 451L591 451L591 399L303 399L303 346L954 346L954 399L663 399L663 451L901 451L901 501L663 501L663 551L920 551L920 604L663 604L663 649ZM261 841L261 780L60 780L60 717L261 717L261 653L336 653L336 717L476 717L476 780L336 780L336 841ZM667 840L667 780L520 780L520 717L667 717L667 658L742 658L742 717L945 717L945 780L742 780L742 840ZM389 306L389-79L459-79L459 45L807 45L807-6C807-18 803-21 790-22C779-23 736-23 689-21C698-36 708-58 712-74C778-74 818-74 844-65C869-55 877-40 877-6L877 306ZM459 95L459 149L807 149L807 95ZM807 254L807 198L459 198L459 254Z"/><animate attributeName="opacity" values="1;0;0;0;0;1;1" dur="3s" repeatCount="indefinite"/></svg><svg id="U8533jp" viewBox="0 0 1000 1000"><path transform="translate(0, 900) scale(1,-1)" d="M68-20L126-71C180 1 242 93 292 173L242 221C187 134 117 38 68-20ZM89 586C152 559 230 514 268 481L312 539C272 572 193 613 131 637ZM41 388C106 363 185 320 223 287L266 346C226 378 146 418 83 441ZM629 840L629 764L368 764L368 840L294 840L294 764L58 764L58 701L294 701L294 634L368 634L368 701L629 701L629 642L703 642L703 701L945 701L945 764L703 764L703 840ZM592 640L592 595L352 595L352 542L592 542L592 492L382 492L382 442L592 442L592 390L312 390L312 337L950 337L950 390L664 390L664 442L892 442L892 492L664 492L664 542L917 542L917 595L664 595L664 640ZM594 152L463 152L463 235L594 235ZM662 152L662 235L799 235L799 152ZM391 291L391-80L463-80L463 96L799 96L799-8C799-19 795-22 782-23C771-23 727-23 681-22C690-39 701-62 704-79C770-79 812-80 837-69C863-59 871-43 871-7L871 291Z"/><animate attributeName="opacity" values="0;1;1;0;0;0;0" dur="3s" repeatCount="indefinite"/></svg><svg id="U8533sc" viewBox="0 0 1000 1000"><path transform="translate(0, 900) scale(1,-1)" d="M68-20L126-71C180 1 242 93 292 173L242 221C187 134 117 38 68-20ZM89 586C152 559 230 514 268 481L312 539C272 572 193 613 131 637ZM50 386C111 362 184 322 220 291L263 347C225 378 150 415 90 437ZM592 650L592 602L352 602L352 549L592 549L592 499L382 499L382 449L592 449L592 398L312 398L312 344L950 344L950 398L664 398L664 449L892 449L892 499L664 499L664 549L917 549L917 602L664 602L664 646L712 646L712 698L947 698L947 761L712 761L712 840L638 840L638 761L360 761L360 840L286 840L286 761L55 761L55 698L286 698L286 639L360 639L360 698L638 698L638 650ZM391 299L391-79L463-79L463 45L800 45L800 0C800-12 796-15 784-16C772-16 729-16 682-15C691-31 702-55 705-72C771-72 812-72 837-62C863-52 870-35 870-1L870 299ZM463 91L463 144L800 144L800 91ZM800 243L800 190L463 190L463 243Z"/><animate attributeName="opacity" values="0;0;0;1;1;0;0" dur="3s" repeatCount="indefinite"/></svg></svg>