<svg id="U85B1" viewBox="0 0 1000 1000"><svg id="U85B1hk" viewBox="0 0 1000 1000"><path transform="translate(0, 900) scale(1,-1)" d="M560 277C596 224 632 150 644 104L702 131C688 178 651 249 614 302ZM73 564C98 532 123 488 132 459L180 489C171 519 144 560 118 591ZM474 590C457 562 424 518 401 491L443 462C468 486 498 522 525 558ZM784 601L784 421L546 421L546 357L784 357L784 13C784-2 779-6 765-7C750-7 703-8 651-6C661-25 673-57 678-77C747-77 789-75 817-63C844-51 854-30 854 12L854 357L947 357L947 421L854 421L854 601ZM201 389L397 389C385 362 364 322 345 292L260 292C250 319 227 359 201 389ZM48 1L52-65C175-57 354-45 527-32L528 29L332 17L332 104L495 104L495 160L332 160L332 235L522 235L522 292L409 292C424 315 440 341 454 366L402 389L531 389L531 444L389 444L389 610L330 610L330 444L265 444L265 610L206 610L206 444L46 444L46 389L192 389L150 368C167 346 186 317 197 292L75 292L75 235L261 235L261 160L108 160L108 104L261 104L261 12ZM265 840L265 768L54 768L54 704L265 704L265 623L340 623L340 704L468 704L468 768L340 768L340 840ZM525 768L525 704L666 704L666 618L740 618L740 704L940 704L940 768L740 768L740 840L666 840L666 768Z"/><animate attributeName="opacity" values="1;0;0;1;1" dur="2s" repeatCount="indefinite"/></svg><svg id="U85B1sc" viewBox="0 0 1000 1000"><path transform="translate(0, 900) scale(1,-1)" d="M560 277C596 224 632 150 644 104L702 131C688 178 651 249 614 302ZM73 564C98 532 123 488 132 459L180 489C171 519 144 560 118 591ZM474 590C457 562 424 518 401 491L443 462C468 486 498 522 525 558ZM784 601L784 421L546 421L546 357L784 357L784 18C784 3 779-1 765-1C750-2 703-2 651 0C661-20 673-51 678-71C747-71 789-69 817-57C844-45 854-24 854 17L854 357L947 357L947 421L854 421L854 601ZM201 389L397 389C385 362 364 322 345 292L260 292C250 319 227 359 201 389ZM48 1L52-65C175-57 354-45 527-32L528 29L332 17L332 104L495 104L495 160L332 160L332 235L522 235L522 292L409 292C424 315 440 341 454 366L402 389L531 389L531 444L389 444L389 610L330 610L330 444L265 444L265 610L206 610L206 444L46 444L46 389L192 389L150 368C167 346 186 317 197 292L75 292L75 235L261 235L261 160L108 160L108 104L261 104L261 12ZM62 773L62 705L281 705L281 624L354 624L354 705L641 705L641 627L714 627L714 705L942 705L942 773L714 773L714 840L641 840L641 773L354 773L354 840L281 840L281 773Z"/><animate attributeName="opacity" values="0;1;1;0;0" dur="2s" repeatCount="indefinite"/></svg></svg>