<svg id="U855B" viewBox="0 0 1000 1000"><svg id="U855Bhk" viewBox="0 0 1000 1000"><path transform="translate(0, 900) scale(1,-1)" d="M335 635C268 604 146 577 44 560C52 545 61 521 65 507C107 513 153 520 198 530L198 430L55 430L55 365L189 365C154 274 93 170 39 114C50 96 67 66 73 47C117 95 162 172 198 252L198-78L268-78L268 270C297 231 330 184 343 159L385 219C368 240 294 318 268 343L268 365L386 365L386 430L268 430L268 545C311 556 352 569 385 583ZM439 376C429 310 414 228 400 173L591 173C528 102 429 36 337 2C354-10 378-34 390-50C471-15 555 45 620 113L620-78L692-78L692 173L864 173C858 92 852 59 843 48C837 43 828 41 815 41C802 41 771 41 736 45C746 30 752 5 754-12C793-14 831-14 850-12C873-10 887-5 902 9C921 28 929 80 936 205C937 214 937 231 937 231L692 231L692 317L901 317L901 520L776 520C797 551 820 588 840 622L765 643C751 607 727 557 704 520L556 520L602 541C592 569 565 612 541 643L480 619C501 589 524 549 535 520L412 520L412 462L620 462L620 376ZM620 231L482 231L498 317L620 317ZM692 462L830 462L830 376L692 376ZM261 841L261 781L60 781L60 720L261 720L261 656L336 656L336 720L479 720L479 781L336 781L336 841ZM520 781L520 720L667 720L667 656L742 656L742 720L945 720L945 781L742 781L742 840L667 840L667 781Z"/><animate attributeName="opacity" values="1;0;0;1;1" dur="2s" repeatCount="indefinite"/></svg><svg id="U855Bsc" viewBox="0 0 1000 1000"><path transform="translate(0, 900) scale(1,-1)" d="M335 635C268 605 147 580 45 564C54 548 63 525 67 510C109 516 154 523 198 531L198 430L55 430L55 365L189 365C154 274 93 170 39 114C50 96 67 66 73 47C117 95 162 172 198 252L198-78L268-78L268 270C297 231 330 184 343 159L385 219C368 240 294 318 268 343L268 365L386 365L386 430L268 430L268 546C311 557 352 569 385 583ZM637 840L637 774L357 774L357 840L284 840L284 774L59 774L59 713L284 713L284 655L357 655L357 713L637 713L637 655L711 655L711 713L943 713L943 774L711 774L711 840ZM432 391C422 323 407 239 392 184L436 184L577 183C516 109 425 40 341 4C358-10 380-36 391-54C470-14 553 54 616 131L616-76L689-76L689 183L866 183C861 101 854 68 846 56C840 50 831 48 818 48C806 48 775 48 739 52C749 35 755 7 757-13C795-15 833-15 852-13C875-11 889-5 903 11C922 31 930 87 936 216C937 226 938 244 938 244L689 244L689 329L901 329L901 540L784 540C803 568 823 600 842 631L767 656C754 623 730 576 709 540L594 540L606 546C596 576 569 622 545 655L484 628C501 602 520 568 533 540L408 540L408 479L616 479L616 391ZM616 244L474 244L491 329L616 329ZM689 479L831 479L831 391L689 391Z"/><animate attributeName="opacity" values="0;1;1;0;0" dur="2s" repeatCount="indefinite"/></svg></svg>