<svg id="U867B" viewBox="0 0 1000 1000"><svg id="U867Bhk" viewBox="0 0 1000 1000"><path transform="translate(0, 900) scale(1,-1)" d="M625 819C653 766 686 694 702 652L775 683C759 724 723 793 696 844ZM335 222C351 187 367 147 380 108L285 95L285 294L430 294L430 658L285 658L285 836L217 836L217 658L74 658L74 246L135 246L135 294L216 294L216 85L41 61L53-11L400 43C407 17 413-8 416-29L478-10C466 59 432 161 393 240ZM135 595L221 595L221 357L135 357ZM279 595L368 595L368 357L279 357ZM456 637L456 566L530 566L530 96C530-8 563-43 664-43C684-43 826-43 860-43C899-43 939-41 956-36C953-19 948 15 947 35C926 30 887 28 860 28C828 28 691 28 660 28C618 28 605 45 605 93L605 566L959 566L959 637Z"/><animate attributeName="opacity" values="1;0;0;0;0;0;0;1;1" dur="4s" repeatCount="indefinite"/></svg><svg id="U867Bjp" viewBox="0 0 1000 1000"><path transform="translate(0, 900) scale(1,-1)" d="M503 630L503 100C503-8 539-44 643-44C663-44 818-44 854-44C896-44 937-42 955-37C951-20 947 13 946 33C924 29 883 26 855 26C820 26 671 26 639 26C592 26 577 44 577 97L577 560L960 560L960 630L753 630L753 836L680 836L680 630ZM346 225C361 190 376 151 388 112L288 98L288 298L435 298L435 662L289 662L289 835L220 835L220 662L77 662L77 250L138 250L138 298L220 298L220 89L35 65L46-8L407 47C414 19 420-7 423-30L485-10C475 59 441 163 403 243ZM138 598L225 598L225 362L138 362ZM283 598L373 598L373 362L283 362Z"/><animate attributeName="opacity" values="0;1;1;0;0;0;0;0;0" dur="4s" repeatCount="indefinite"/></svg><svg id="U867Bkr" viewBox="0 0 1000 1000"><path transform="translate(0, 900) scale(1,-1)" d="M478 630L478 560L550 560L550 96C550-9 581-44 681-44C700-44 834-44 865-44C903-44 941-42 957-37C954-20 951 13 948 33C928 29 892 26 866 26C835 26 706 26 678 26C637 26 624 43 624 93L624 560L962 560L962 630L753 630L753 836L680 836L680 630ZM346 225C361 190 376 151 388 112L288 98L288 298L435 298L435 662L289 662L289 835L220 835L220 662L77 662L77 250L138 250L138 298L220 298L220 89L35 65L46-8L407 47C414 19 420-7 423-30L485-10C475 59 441 163 403 243ZM138 598L225 598L225 362L138 362ZM283 598L373 598L373 362L283 362Z"/><animate attributeName="opacity" values="0;0;0;1;1;0;0;0;0" dur="4s" repeatCount="indefinite"/></svg><svg id="U867Bsc" viewBox="0 0 1000 1000"><path transform="translate(0, 900) scale(1,-1)" d="M627 790C668 743 714 678 734 636L797 674C776 715 728 778 687 823ZM335 222C351 187 367 147 380 108L285 95L285 294L430 294L430 658L285 658L285 836L217 836L217 658L74 658L74 246L135 246L135 294L216 294L216 85L41 61L53-11L400 43C407 17 413-8 416-29L478-10C466 59 432 161 393 240ZM135 595L221 595L221 357L135 357ZM279 595L368 595L368 357L279 357ZM468 623L468 552L547 552L547-33L941-33L941 39L620 39L620 552L962 552L962 623Z"/><animate attributeName="opacity" values="0;0;0;0;0;1;1;0;0" dur="4s" repeatCount="indefinite"/></svg></svg>