<svg id="U8660" viewBox="0 0 1000 1000"><svg id="U8660jp" viewBox="0 0 1000 1000"><path transform="translate(0, 900) scale(1,-1)" d="M609 269C602 137 579 28 487-32C502-42 522-65 530-81C636-9 663 115 673 269ZM744 270L744 35C744-21 749-37 764-50C778-61 802-66 822-66C832-66 862-66 875-66C891-66 914-63 925-57C940-51 950-40 956-23C961-7 965 39 966 81C949 87 926 98 913 110C913 66 912 33 909 18C907 4 902-3 896-6C892-10 880-11 871-11C860-11 843-11 836-11C826-11 819-9 815-6C809-2 808 9 808 27L808 270ZM287 581C324 528 362 458 377 414L436 441C421 486 381 555 343 605ZM136 600C114 527 74 456 27 406C42 397 71 379 83 368C131 421 175 504 202 585ZM469 642L469 400C469 272 459 101 369-22C383-30 410-53 420-67C518 65 535 261 535 399L535 582L884 582C878 548 871 513 865 488L922 475C934 515 947 579 958 633L913 645L901 642L721 642L721 710L910 710L910 769L721 769L721 840L653 840L653 642ZM653 572L653 486L554 476L561 422L653 432L653 389C653 325 670 309 741 309C756 309 834 309 850 309C902 309 920 329 927 406C909 410 883 419 870 428C867 372 863 365 841 365C825 365 762 365 749 365C722 365 718 368 718 389L718 438L856 453L849 505L718 492L718 572ZM214 838L214 696L46 696L46 629L445 629L445 696L283 696L283 838ZM291 423C279 373 264 325 246 279C211 313 174 345 139 373L93 331C134 296 178 256 218 214C170 115 108 30 31-31C47-43 71-69 82-81C155-17 216 65 266 163C298 126 325 91 344 61L394 111C372 146 337 187 296 229C320 286 341 346 357 410Z"/><animate attributeName="opacity" values="1;0;0;1;1" dur="2s" repeatCount="indefinite"/></svg><svg id="U8660sc" viewBox="0 0 1000 1000"><path transform="translate(0, 900) scale(1,-1)" d="M295 563C334 501 379 414 401 362L451 402C430 452 382 535 342 597ZM150 594C124 527 84 454 44 403C57 391 79 364 87 352C129 409 175 496 206 574ZM470 642L470 388C470 260 460 86 376-39C391-46 417-67 428-79C518 52 533 248 533 387L533 581L895 581C888 541 879 499 871 470L927 456C940 501 956 572 969 632L924 645L913 642L719 642L719 707L918 707L918 769L719 769L719 840L652 840L652 642ZM645 573L645 495L560 486L567 429L645 437L645 390C645 326 663 310 735 310C749 310 832 310 848 310C901 310 919 330 925 407C907 411 883 420 870 429C867 373 863 365 840 365C823 365 755 365 742 365C713 365 709 369 709 390L709 444L835 457L828 514L709 502L709 573ZM609 261C603 123 583 28 490-27C504-38 523-61 531-77C623-20 655 72 666 200L757 200L757 31C757-15 761-29 774-42C788-54 811-58 829-58C840-58 869-58 880-58C897-58 917-54 928-48C941-40 951-29 957-11C961 6 965 54 966 99C949 105 926 118 914 130C914 86 912 50 910 34C909 24 904 16 899 12C895 9 883 8 874 8C865 8 851 8 844 8C835 8 829 9 824 13C819 16 818 22 818 29L818 261ZM171 820C195 781 222 728 236 694L51 694L51 627L441 627L441 694L238 694L291 721C278 754 249 805 224 844ZM126 341C157 303 190 259 221 216C175 121 113 40 36-19C50-31 72-58 82-73C156-14 217 63 264 153C292 111 316 72 332 40L382 87C362 124 331 171 295 221C321 281 342 346 357 414L294 432C283 380 269 330 250 282C224 317 198 351 173 381Z"/><animate attributeName="opacity" values="0;1;1;0;0" dur="2s" repeatCount="indefinite"/></svg></svg>