<svg id="U86D4" viewBox="0 0 1000 1000"><path transform="translate(0, 900) scale(1,-1)" d="M630 534L739 534L739 244L630 244ZM579 587L579 189L791 189L791 587ZM449 786L449-80L514-80L514-15L857-15L857-76L924-76L924 786ZM514 51L514 722L857 722L857 51ZM321 235C330 197 339 154 347 111L270 100L270 305L402 305L402 658L270 658L270 838L205 838L205 658L75 658L75 252L134 252L134 305L204 305L204 90C140 80 81 72 34 66L46-6L358 46L367-27L426-12C419 59 398 165 377 248ZM134 595L210 595L210 367L134 367ZM264 595L344 595L344 367L264 367Z"/></svg>