<svg id="U8693" viewBox="0 0 1000 1000"><svg id="U8693hk" viewBox="0 0 1000 1000"><path transform="translate(0, 900) scale(1,-1)" d="M838 825L838-68L907-68L907 825ZM474 576C469 482 458 360 447 283L670 283C658 99 645 26 627 7C618-2 609-3 595-3C578-3 538-3 495 1C507-17 514-44 516-65C557-67 599-67 621-65C648-63 666-56 683-37C711-6 725 82 738 320C739 329 740 350 740 350L522 350C527 399 532 455 536 508L732 508L732 799L451 799L451 731L662 731L662 576ZM312 225C324 190 336 149 348 109L261 96L261 292L393 292L393 658L262 658L262 829L199 829L199 658L70 658L70 246L127 246L127 292L198 292L198 86L35 62L46-8L365 46C371 19 377-6 380-27L439-9C426 59 395 161 367 241ZM127 595L203 595L203 355L127 355ZM256 595L336 595L336 355L256 355Z"/><animate attributeName="opacity" values="1;0;0;1;1" dur="2s" repeatCount="indefinite"/></svg><svg id="U8693jp" viewBox="0 0 1000 1000"><path transform="translate(0, 900) scale(1,-1)" d="M834 825L834-81L904-81L904 825ZM427 795L427 728L654 728L654 559L461 559C454 461 440 329 428 248L492 244L497 282L660 282C650 89 640 14 621-5C613-15 604-16 589-16C571-16 528-16 482-11C494-29 501-58 503-77C548-79 593-80 617-77C645-75 663-69 679-49C706-18 718 72 729 316C730 326 730 347 730 347L505 347L519 494L654 494L654 465L722 465L722 795ZM312 225C325 190 338 149 347 109L261 96L261 292L393 292L393 658L262 658L262 829L199 829L199 658L70 658L70 246L127 246L127 292L198 292L198 86L35 62L46-8L361 45C365 24 368 4 369-13L429 4C422 68 397 165 367 240ZM127 595L203 595L203 355L127 355ZM256 595L336 595L336 355L256 355Z"/><animate attributeName="opacity" values="0;1;1;0;0" dur="2s" repeatCount="indefinite"/></svg></svg>