<svg id="U8692" viewBox="0 0 1000 1000"><path transform="translate(0, 900) scale(1,-1)" d="M596 645C634 587 680 508 701 458L752 490C731 538 685 615 645 671ZM484 799L484 423L401 423L401 352L484 352C482 224 467 75 387-32C402-39 430-60 441-73C527 41 545 212 548 352L809 352L809 12C809 0 804-4 793-4C782-5 746-5 705-4C714-22 724-53 726-71C784-71 820-70 843-58C866-46 875-26 875 12L875 352L957 352L957 423L875 423L875 799ZM809 423L548 423L548 731L809 731ZM291 213L320 131L245 109L245 284L370 284L370 661L246 661L246 836L187 836L187 661L68 661L68 231L126 231L126 284L187 284L187 93C131 77 80 63 40 54L51-16L339 72C347 45 354 19 358-2L412 21C399 79 371 166 343 233ZM126 597L191 597L191 348L126 348ZM241 597L312 597L312 348L241 348Z"/></svg>