<svg id="U8702" viewBox="0 0 1000 1000"><path transform="translate(0, 900) scale(1,-1)" d="M480 236L480 181L645 181L645 109L424 109L424 50L645 50L645-78L715-78L715 50L949 50L949 109L715 109L715 181L885 181L885 236L715 236L715 304L904 304L904 361L715 361L715 438L645 438L645 361L461 361L461 304L645 304L645 236ZM786 694C759 648 723 607 681 571C641 604 607 642 583 682L591 694ZM312 216C322 181 332 142 341 102L261 88L261 288L394 288L394 408C404 395 413 379 419 368C511 394 602 434 681 490C753 437 838 397 932 374C942 391 962 419 977 433C887 452 803 486 734 532C796 587 848 653 881 734L836 756L824 753L631 753C644 776 657 799 667 823L601 841C558 741 482 653 394 595L394 654L262 654L262 828L198 828L198 654L72 654L72 242L129 242L129 288L198 288L198 77C137 66 82 57 37 51L52-19L354 39L366-32L425-16C416 51 392 152 368 231ZM630 532C559 484 477 448 394 426L394 593C411 583 438 562 449 550C481 574 512 602 541 634C566 597 596 563 630 532ZM129 591L203 591L203 352L129 352ZM256 591L338 591L338 352L256 352Z"/></svg>