<svg id="U873A" viewBox="0 0 1000 1000"><svg id="U873Ahk" viewBox="0 0 1000 1000"><path transform="translate(0, 900) scale(1,-1)" d="M464 748L464 314L570 314C561 151 534 33 402-32C417-43 437-67 445-84C595-7 628 128 639 314L712 314L712 25C712-45 728-65 795-65C808-65 868-65 883-65C939-65 956-34 963 88C944 93 916 103 902 114C900 11 896-4 875-4C862-4 815-4 805-4C783-4 779 0 779 25L779 314L916 314L916 768L703 768L703 705L848 705L848 577L717 577L717 515L848 515L848 376L534 376L534 517L656 517L656 579L534 579L534 719C580 740 629 765 668 792L614 843C579 811 518 774 464 748ZM311 229C325 197 338 161 350 125L275 109L275 294L407 294L407 658L278 658L278 836L210 836L210 658L74 658L74 246L135 246L135 294L210 294L210 95C146 81 87 69 41 61L55-11L368 61C374 38 378 17 381-2L439 17C430 79 399 173 364 246ZM135 595L215 595L215 357L135 357ZM270 595L345 595L345 357L270 357Z"/><animate attributeName="opacity" values="1;0;0;1;1" dur="2s" repeatCount="indefinite"/></svg><svg id="U873Ajp" viewBox="0 0 1000 1000"><path transform="translate(0, 900) scale(1,-1)" d="M465 372L465 308L557 308C547 147 516 33 367-29C381-41 400-66 408-81C575-9 614 122 627 308L706 308L706 19C706-53 722-73 791-73C805-73 866-73 879-73C939-73 957-39 964 96C945 101 916 112 902 124C899 7 896-12 873-12C859-12 812-12 801-12C779-12 775-8 775 19L775 308L915 308L915 772L702 772L702 708L845 708L845 577L709 577L709 515L845 515L845 372L534 372L534 515L660 515L660 577L534 577L534 703C586 727 643 757 688 788L632 840C602 812 551 779 502 753L465 764ZM315 241C330 208 345 169 358 131L268 114L268 308L402 308L402 662L268 662L268 835L203 835L203 662L69 662L69 258L128 258L128 308L203 308L203 101L34 71L46 1L376 70C381 51 385 33 387 17L446 37C436 97 404 190 369 259ZM128 600L208 600L208 370L128 370ZM263 600L343 600L343 370L263 370Z"/><animate attributeName="opacity" values="0;1;1;0;0" dur="2s" repeatCount="indefinite"/></svg></svg>