<svg id="U87C5" viewBox="0 0 1000 1000"><path transform="translate(0, 900) scale(1,-1)" d="M538 165C527 102 506 20 477-28L528-57C557-4 577 81 590 147ZM621 143C636 84 646 7 647-44L698-36C696 13 685 90 668 150ZM724 151C748 93 769 18 776-32L827-17C819 32 796 106 772 163ZM825 165C860 101 897 16 910-40L964-16C949 39 913 122 876 186ZM284 213C292 184 299 151 306 118L239 101L239 284L359 284L359 661L240 661L240 836L183 836L183 661L67 661L67 231L122 231L122 284L183 284L183 87C128 74 78 62 39 54L50-16L318 57L328-8L372 5C365-13 356-30 347-46C364-53 391-71 402-82C484 60 497 272 497 420L497 660L956 660L956 729L748 729C737 762 716 807 694 841L631 815C646 789 661 758 672 729L433 729L433 420C433 303 428 151 381 25C372 84 354 163 336 227ZM605 625L605 503L519 503L519 437L605 437L605 223L863 223L863 437L956 437L956 503L863 503L863 625L800 625L800 503L667 503L667 625ZM800 437L800 289L667 289L667 437ZM122 597L187 597L187 348L122 348ZM235 597L305 597L305 348L235 348Z"/></svg>