<svg id="U87B4" viewBox="0 0 1000 1000"><path transform="translate(0, 900) scale(1,-1)" d="M403 693L403 461L553 461C495 417 411 379 331 360C347 348 368 327 378 313C462 338 552 387 613 442L613 298L684 298L684 450C743 393 833 340 915 314C926 328 947 350 963 361C888 381 804 418 748 461L889 461L889 693L684 693L684 733L931 733L931 785L684 785L684 839L613 839L613 785L372 785L372 733L613 733L613 693ZM470 556L613 556L613 506L470 506ZM684 556L818 556L818 506L684 506ZM470 648L613 648L613 599L470 599ZM684 648L818 648L818 599L684 599ZM81 808L81 296L149 296L149 753L269 753C249 711 222 661 194 617C265 570 287 530 288 495C289 474 281 459 267 452C260 448 249 446 238 445C222 444 200 444 174 447C185 432 193 410 194 394C219 392 245 393 265 395C283 397 299 402 314 409C341 424 355 452 355 491C354 531 333 577 264 625C296 675 331 735 361 787L313 811L301 808ZM235 213L458 213L458 133L235 133ZM532 213L757 213L757 133L532 133ZM94-2L99-61C279-56 557-45 819-34C839-52 856-70 868-84L916-49C883-12 820 42 764 80L833 80L833 266L532 266L532 322L458 322L458 266L162 266L162 80L458 80L458 5C317 2 189-1 94-2ZM712 53C728 42 746 29 763 15L532 7L532 80L752 80Z"/></svg>