<svg id="U87E3" viewBox="0 0 1000 1000"><svg id="U87E3hk" viewBox="0 0 1000 1000"><path transform="translate(0, 900) scale(1,-1)" d="M290 226C299 198 309 167 317 136L243 113L243 284L352 284L352 661L243 661L243 836L182 836L182 661L70 661L70 231L126 231L126 284L182 284L182 94C128 78 79 64 39 53L52-14L331 77L339 28L393 43C385 96 363 176 342 238ZM126 597L187 597L187 348L126 348ZM239 597L296 597L296 348L239 348ZM721 407C730 411 743 415 800 424L765 392C791 371 823 344 845 323L714 323C692 461 680 636 676 833L615 833C620 640 631 466 652 323L383 323L383 262L466 262L466 248C466 165 443 51 341-35C355-43 382-68 391-81C469-14 506 72 522 151C558 119 594 85 615 62L658 110C629 140 575 186 530 222L531 246L531 262L662 262C676 190 692 128 714 77C669 39 618 8 561-16C573-29 591-52 599-66C650-42 698-13 741 21C777-40 823-75 882-79C919-82 948-46 967 66C954 73 931 90 919 106C911 34 899-4 880-3C845 0 816 24 791 66C839 113 877 167 905 228L845 252C825 206 798 163 763 125C748 163 736 209 725 262L955 262L955 323L869 323L894 349C874 370 835 402 804 425L896 438L909 395L955 413C945 449 922 514 900 562L857 549L881 483L780 471C831 533 883 615 926 698L872 720C863 697 851 674 840 652L768 645C799 694 831 757 855 819L801 837C779 765 739 690 728 671C716 652 705 639 693 636C700 621 708 591 711 579C721 584 738 589 810 600C785 556 761 522 751 509C733 484 717 467 703 464C709 448 718 419 721 407ZM396 387C409 394 432 399 573 419L586 373L631 390C622 427 601 493 581 542L536 530L559 465L460 452C513 514 568 596 615 679L561 701C550 678 538 655 526 633L446 624C482 676 518 744 546 811L492 830C466 753 420 674 407 653C393 632 381 619 369 616C376 600 385 571 388 559C398 564 415 569 494 580C466 537 440 503 429 490C411 465 393 448 379 444C385 430 394 400 396 387Z"/><animate attributeName="opacity" values="1;0;0;0;0;1;1" dur="3s" repeatCount="indefinite"/></svg><svg id="U87E3jp" viewBox="0 0 1000 1000"><path transform="translate(0, 900) scale(1,-1)" d="M407 328L407 235C407 179 400 110 369 45C363 102 341 186 316 250L266 237C278 203 290 163 299 125L239 113L239 300L352 300L352 654L239 654L239 839L178 839L178 654L68 654L68 258L123 258L123 300L179 300L179 101L40 75L52 11L311 67L316 26L366 39C353 12 335-14 311-38C325-46 350-68 361-80C429-10 457 82 466 163C512 131 562 88 585 58L632 102C603 136 544 183 494 213L469 190L470 234L470 268L661 268C675 199 691 137 711 86C652 37 578-3 496-32C509-44 528-67 536-79C611-51 678-15 737 29C774-42 820-82 875-82C936-82 958-49 970 54C955 60 933 74 920 88C915 4 905-19 881-19C847-19 815 13 787 70C837 116 878 168 908 227L844 251C824 208 796 168 762 132C748 171 736 217 725 268L961 268L961 328L884 328L907 352C884 372 840 398 806 414L769 379C797 365 829 346 852 328L714 328C689 469 676 645 677 839L612 839C614 652 626 476 650 328ZM123 594L184 594L184 360L123 360ZM234 594L297 594L297 360L234 360ZM547 719C534 686 517 647 497 607C486 621 472 636 456 650C482 694 512 756 537 810L480 830C466 788 441 728 419 682L398 698L368 656C405 628 446 588 471 555C451 516 429 479 410 449L368 446L377 391C435 397 503 405 574 413C578 399 582 386 584 375L630 397C624 434 598 494 572 540L527 524C537 505 547 484 556 463L468 455C513 524 563 619 602 697ZM874 727C859 691 839 649 818 606C806 620 790 636 773 652C799 695 830 757 856 810L797 831C784 789 758 729 736 683L715 699L685 658C723 628 765 588 790 555C772 522 754 491 737 465L705 463L714 406L904 430C909 415 914 400 916 388L964 410C956 448 929 508 901 553L856 535C866 518 876 498 885 478L798 470C842 539 892 629 929 704Z"/><animate attributeName="opacity" values="0;1;1;0;0;0;0" dur="3s" repeatCount="indefinite"/></svg><svg id="U87E3sc" viewBox="0 0 1000 1000"><path transform="translate(0, 900) scale(1,-1)" d="M290 226C298 200 307 170 314 140L248 118L248 284L361 284L361 661L249 661L249 836L188 836L188 661L70 661L70 231L125 231L125 284L188 284L188 99C132 81 80 65 39 53L52-14L327 81L336 28L391 44C383 97 363 177 342 239ZM125 597L193 597L193 348L125 348ZM244 597L306 597L306 348L244 348ZM718 407C727 411 741 415 800 424L765 392C791 371 823 344 845 323L714 323C692 461 680 636 676 833L615 833C620 640 631 466 652 323L526 323L526 383L464 383L464 323L380 323L380 262L463 262C458 169 430 57 333-30C347-38 371-63 380-77C454-10 493 77 511 160C550 126 592 87 615 62L658 110C627 142 568 191 522 228L525 262L662 262C676 190 692 128 714 77C669 39 618 8 561-16C573-29 591-52 599-66C650-42 698-13 741 21C777-40 823-75 882-79C919-82 948-46 967 66C954 73 931 90 919 106C911 34 899-4 880-3C845 0 816 24 791 66C839 113 877 167 905 228L845 252C825 206 798 163 763 125C748 163 736 209 725 262L957 262L957 323L869 323L894 349C874 370 834 402 803 425L896 438L909 395L954 413C944 449 921 514 900 562L857 549L881 483L778 471C828 533 879 614 922 696L870 717C861 695 850 673 839 652L766 645C797 693 829 754 854 816L803 833C780 762 739 687 727 668C714 649 703 636 691 634C698 619 706 591 708 579C718 584 736 589 810 600C784 555 760 519 749 506C731 481 716 464 701 461C708 446 716 418 718 407ZM396 387C409 394 432 399 574 419L586 373L632 390C623 427 601 493 581 542L536 530L560 465L459 452C513 513 567 595 613 677L562 697C552 676 540 654 528 633L447 624C482 675 518 739 547 804L496 823C468 748 421 670 409 650C394 629 382 616 370 613C377 598 385 571 388 559C398 564 416 570 496 581C468 536 441 500 429 487C411 462 394 445 379 442C385 428 394 399 396 387Z"/><animate attributeName="opacity" values="0;0;0;1;1;0;0" dur="3s" repeatCount="indefinite"/></svg></svg>