<svg id="U8734" viewBox="0 0 1000 1000"><path transform="translate(0, 900) scale(1,-1)" d="M529 588L821 588L821 496L529 496ZM529 737L821 737L821 646L529 646ZM463 798L463 434L544 434C508 353 453 278 389 227C404 217 429 196 440 185C472 213 504 249 533 289L608 289C567 188 500 99 421 39C407 98 386 167 365 224L310 213C322 179 334 141 344 103L261 89L261 284L390 284L390 661L260 661L260 837L195 837L195 661L67 661L67 231L122 231L122 284L193 284L193 78C135 68 82 60 39 54L52-16L360 41C367 13 372-13 375-35L434-22L423 32C437 22 456 4 464-6C547 65 624 170 671 289L745 289C709 154 646 36 557-40C572-49 595-69 605-80C696 7 767 136 807 289L871 289C860 88 849 11 833-8C825-17 818-19 804-19C790-19 760-19 725-15C734-33 741-59 743-78C778-80 813-80 833-78C857-76 874-69 888-50C914-20 926 70 937 321C938 330 938 351 938 351L572 351C588 378 601 406 613 434L890 434L890 798ZM122 598L200 598L200 348L122 348ZM253 598L331 598L331 348L253 348Z"/></svg>