<svg id="U875A" viewBox="0 0 1000 1000"><svg id="U875Ahk" viewBox="0 0 1000 1000"><path transform="translate(0, 900) scale(1,-1)" d="M407 266L407 202L595 202C535 119 442 40 354-1C370-14 392-39 404-57C486-12 574 67 637 155L637-80L708-80L708 160C769 78 852-2 923-47C935-29 957-5 973 8C897 48 808 125 748 202L949 202L949 266L708 266L708 361L637 361L637 266ZM530 694C573 675 623 648 665 621L415 621L415 560L594 560C539 501 461 447 393 417C408 404 428 381 439 365C517 406 606 483 664 560L673 560L673 441C673 432 669 429 658 428C646 428 607 428 564 429C572 411 580 389 584 370C644 370 684 370 710 380C736 389 742 406 742 439L742 560L865 560C846 521 825 483 807 455L868 435C897 479 932 547 964 608L912 624L900 621L769 621L723 652C785 687 849 735 896 783L850 816L835 813L461 813L461 754L770 754C740 729 704 703 669 684C637 702 604 719 573 732ZM288 222C297 194 306 162 313 130L251 112L251 284L364 284L364 661L252 661L252 836L190 836L190 661L70 661L70 231L126 231L126 284L190 284L190 94C133 78 81 64 39 53L52-14L327 69L335 19L390 35C383 90 362 171 341 236ZM126 597L194 597L194 348L126 348ZM246 597L308 597L308 348L246 348Z"/><animate attributeName="opacity" values="1;0;0;1;1" dur="2s" repeatCount="indefinite"/></svg><svg id="U875Atc" viewBox="0 0 1000 1000"><path transform="translate(0, 900) scale(1,-1)" d="M552 164C511 89 431 14 356-22C372-34 393-59 404-75C482-31 564 57 609 143ZM721 134C788 70 867-18 904-74L958-36C919 20 839 105 771 167ZM407 266L407 202L637 202L637-80L708-80L708 202L949 202L949 266L708 266L708 361L637 361L637 266ZM526 694C569 675 619 648 661 621L414 621L414 560L595 560C541 501 464 447 397 417C412 404 433 381 443 365C520 406 609 483 665 560L675 560L675 441C675 432 672 428 661 428C650 428 612 428 569 429C577 412 586 390 589 372C648 372 686 372 711 382C736 391 742 407 742 439L742 560L864 560C846 524 825 489 808 463L868 444C896 486 930 551 961 609L912 624L900 621L765 621L722 650C785 684 849 733 896 781L850 814L835 811L461 811L461 752L770 752C740 727 703 701 669 682C636 700 601 718 569 732ZM68 332L68 240L118 240L118 294L181 294L181 88L37 62L51-11L325 53C330 27 334 4 336-16L390-2C381 66 357 167 334 247L282 234C292 197 303 155 312 113L244 100L244 294L362 294L362 659L244 659L244 836L182 836L182 659L68 659ZM123 596L189 596L189 358L123 358ZM237 596L306 596L306 358L237 358Z"/><animate attributeName="opacity" values="0;1;1;0;0" dur="2s" repeatCount="indefinite"/></svg></svg>