<svg id="U88CE" viewBox="0 0 1000 1000"><svg id="U88CEhk" viewBox="0 0 1000 1000"><path transform="translate(0, 900) scale(1,-1)" d="M135 810C164 769 200 713 216 677L274 718C256 752 221 804 190 844ZM471 727L798 727L798 535L471 535ZM397 791L397 470L875 470L875 791ZM52 663L52 594L276 594C221 469 123 342 33 269C45 255 63 217 70 196C106 228 143 268 179 313L179-79L250-79L250 319C282 274 318 222 334 193L378 253L306 342C333 367 365 402 396 435L349 478C332 449 299 409 274 380L250 407L250 412C295 482 335 558 363 636L323 666L311 663ZM826 435C724 406 543 383 391 371C399 355 409 329 411 311C471 314 535 320 599 327L599 213L375 213L375 146L599 146L599 11L328 11L328-59L953-59L953 11L674 11L674 146L901 146L901 213L674 213L674 337C748 347 818 360 874 375Z"/><animate attributeName="opacity" values="1;0;0;0;0;1;1" dur="3s" repeatCount="indefinite"/></svg><svg id="U88CEjp" viewBox="0 0 1000 1000"><path transform="translate(0, 900) scale(1,-1)" d="M522 723L829 723L829 533L522 533ZM452 788L452 467L901 467L901 788ZM375 464C359 435 331 393 306 360L268 402C315 473 354 550 382 630L341 656L328 653L255 653L255 835L184 835L184 653L54 653L54 585L293 585C234 449 128 313 26 236C37 224 57 190 65 171C106 204 147 245 187 293L187-80L258-80L258 330C295 283 339 224 358 192L404 244L338 323C365 354 396 393 422 430ZM865 434C765 406 579 387 426 378C434 363 443 337 445 321C505 324 570 328 634 334L634 216L438 216L438 151L634 151L634 12L382 12L382-55L961-55L961 12L708 12L708 151L914 151L914 216L708 216L708 342C785 351 858 363 915 379Z"/><animate attributeName="opacity" values="0;1;1;0;0;0;0" dur="3s" repeatCount="indefinite"/></svg><svg id="U88CEsc" viewBox="0 0 1000 1000"><path transform="translate(0, 900) scale(1,-1)" d="M120 810C152 768 192 711 211 674L271 709C251 743 211 798 177 839ZM516 741L827 741L827 574L516 574ZM446 806L446 509L899 509L899 806ZM57 663L57 594L270 594C215 471 119 344 29 271C41 259 61 223 68 204C104 236 141 276 177 321L177-79L248-79L248 327C283 282 323 227 341 198L385 253L311 339C333 364 359 397 386 427L337 467C323 442 298 404 277 377L248 409L248 420C292 488 331 563 358 638L319 666L306 663ZM448 224L448 156L642 156L642 16L381 16L381-53L949-53L949 16L716 16L716 156L905 156L905 224L716 224L716 354L928 354L928 423L425 423L425 354L642 354L642 224Z"/><animate attributeName="opacity" values="0;0;0;1;1;0;0" dur="3s" repeatCount="indefinite"/></svg></svg>