<svg id="U88E1" viewBox="0 0 1000 1000"><svg id="U88E1hk" viewBox="0 0 1000 1000"><path transform="translate(0, 900) scale(1,-1)" d="M149 808C178 767 213 711 230 675L286 716C268 750 233 802 202 842ZM498 537L634 537L634 402L498 402ZM705 537L844 537L844 402L705 402ZM498 731L634 731L634 598L498 598ZM705 731L844 731L844 598L705 598ZM388 12L388-55L959-55L959 12L705 12L705 159L923 159L923 226L705 226L705 337L916 337L916 796L430 796L430 337L634 337L634 226L430 226L430 159L634 159L634 12ZM48 663L48 594L281 594C222 467 118 338 22 264C32 250 50 213 57 192C98 226 140 270 181 319L181-79L250-79L250 325C287 278 330 219 350 187L392 247L316 336C345 362 378 397 408 429L362 472C343 443 310 403 284 373L250 410L250 411C298 481 340 558 369 636L329 666L317 663Z"/><animate attributeName="opacity" values="1;0;0;1;1" dur="2s" repeatCount="indefinite"/></svg><svg id="U88E1jp" viewBox="0 0 1000 1000"><path transform="translate(0, 900) scale(1,-1)" d="M429 789L429 354L639 354L639 239L423 239L423 170L639 170L639 20L363 20L363-49L962-49L962 20L710 20L710 170L929 170L929 239L710 239L710 354L925 354L925 789ZM498 541L639 541L639 421L498 421ZM710 541L852 541L852 421L710 421ZM498 723L639 723L639 604L498 604ZM710 723L852 723L852 604L710 604ZM375 464C359 435 331 393 306 360L268 402C315 473 354 550 382 630L341 656L328 653L255 653L255 835L184 835L184 653L54 653L54 585L293 585C234 449 128 313 26 236C37 224 57 190 65 171C106 204 147 245 187 293L187-80L258-80L258 330C295 283 339 224 358 192L404 244L338 323C365 354 396 393 422 430Z"/><animate attributeName="opacity" values="0;1;1;0;0" dur="2s" repeatCount="indefinite"/></svg></svg>