<svg id="U88DD" viewBox="0 0 1000 1000"><svg id="U88DDhk" viewBox="0 0 1000 1000"><path transform="translate(0, 900) scale(1,-1)" d="M437 371C449 351 460 327 470 305L52 305L52 246L391 246C296 189 159 143 37 119C51 106 70 81 80 64C139 77 203 96 264 120L264 50C264 6 233-16 214-25C225-40 240-69 245-85C265-73 298-64 570-2C569 13 571 39 573 57L337 9L337 151C396 179 450 211 492 246L495 246C577 83 725-28 923-77C932-57 951-29 967-15C872 5 787 40 717 88C776 116 843 153 895 190L839 230C797 197 727 156 668 126C628 161 594 201 568 246L949 246L949 305L555 305C544 333 526 366 509 392ZM636 840L636 701L419 701L419 636L636 636L636 471L442 471L442 406L915 406L915 471L710 471L710 636L935 636L935 701L710 701L710 840ZM103 824L103 633L305 633L305 574L56 574L56 514L127 514C118 452 94 405 33 377C47 366 66 343 74 328C154 367 185 430 197 514L305 514L305 346L376 346L376 840L305 840L305 696L168 696L168 824Z"/><animate attributeName="opacity" values="1;0;0;1;1" dur="2s" repeatCount="indefinite"/></svg><svg id="U88DDjp" viewBox="0 0 1000 1000"><path transform="translate(0, 900) scale(1,-1)" d="M52 305L52 246L391 246C296 189 159 143 37 119C51 106 70 81 80 64C142 78 209 98 273 124L273 10L148-6L159-70C274-54 439-29 595-6L593 55L345 20L345 155C401 182 452 213 492 246L494 246C576 79 722-33 920-84C929-64 948-37 964-22C867-2 782 35 712 85C772 114 842 151 895 190L839 230C796 197 724 154 665 124C626 160 593 200 567 246L949 246L949 305L539 305L539 384L464 384L464 305ZM636 840L636 701L419 701L419 636L636 636L636 472L441 472L441 408L914 408L914 472L710 472L710 636L935 636L935 701L710 701L710 840ZM56 572L56 512L128 512C118 450 94 403 33 374C47 364 66 340 74 325C154 364 185 428 197 512L305 512L305 346L376 346L376 840L305 840L305 705L172 705L172 827L107 827L107 622L172 622L172 645L305 645L305 572Z"/><animate attributeName="opacity" values="0;1;1;0;0" dur="2s" repeatCount="indefinite"/></svg></svg>