<svg id="U8898" viewBox="0 0 1000 1000"><svg id="U8898hk" viewBox="0 0 1000 1000"><path transform="translate(0, 900) scale(1,-1)" d="M146 808C173 767 207 711 222 675L278 716C260 750 227 802 198 842ZM49 663L49 594L276 594C220 467 120 338 29 264C40 250 58 213 64 192C102 226 143 269 181 317L181-79L248-79L248 324C283 277 324 219 342 187L382 247C371 262 341 299 311 335C338 361 370 397 399 429L353 472C336 443 305 403 280 373L248 409L248 411C294 481 333 558 361 636L322 666L311 663ZM526 841C496 713 442 589 373 511C390 500 417 474 429 462C466 509 500 570 530 638L955 638L955 706L557 706C571 744 583 784 593 824ZM490 536L490 366L383 321L403 258L490 295L490 47C490-51 519-76 623-76C644-76 818-76 844-76C933-76 954-39 964 88C946 92 919 103 903 116C898 12 890-8 840-8C803-8 653-8 625-8C564-8 553 2 553 46L553 322L665 369L665 92L729 92L729 396L845 445C843 348 840 237 833 169L889 157C901 246 907 392 909 503L912 515L862 530L848 518L729 467L729 603L665 603L665 440L553 393L553 536Z"/><animate attributeName="opacity" values="1;0;0;0;0;1;1" dur="3s" repeatCount="indefinite"/></svg><svg id="U8898jp" viewBox="0 0 1000 1000"><path transform="translate(0, 900) scale(1,-1)" d="M550 841C515 718 455 599 380 523C397 511 427 486 440 473C477 514 512 567 543 625L947 625L947 692L575 692C593 734 610 779 623 824ZM503 523L503 354L400 310L425 249L503 283L503 48C503-45 531-68 634-68C656-68 820-68 844-68C934-68 957-31 967 99C947 103 919 114 902 126C897 20 889-1 841-1C806-1 664-1 638-1C580-1 570 8 570 48L570 311L678 358L678 89L743 89L743 386L853 433C853 318 852 232 849 217C846 202 840 199 827 199C818 199 791 199 772 200C779 185 785 159 788 141C811 140 844 140 867 146C893 152 910 170 913 201C917 230 918 353 919 489L922 500L875 519L862 509L858 505L743 456L743 591L678 591L678 429L570 383L570 523ZM375 464C359 435 331 393 306 360L268 402C315 473 354 550 382 630L341 656L328 653L255 653L255 835L184 835L184 653L54 653L54 585L293 585C234 449 128 313 26 236C37 224 57 190 65 171C106 204 147 245 187 293L187-80L258-80L258 330C295 283 339 224 358 192L404 244L338 323C365 354 396 393 422 430Z"/><animate attributeName="opacity" values="0;1;1;0;0;0;0" dur="3s" repeatCount="indefinite"/></svg><svg id="U8898sc" viewBox="0 0 1000 1000"><path transform="translate(0, 900) scale(1,-1)" d="M146 808C173 767 207 711 222 675L278 716C260 750 227 802 198 842ZM49 663L49 594L276 594C220 467 120 338 29 264C40 250 58 213 64 192C102 226 143 269 181 317L181-79L248-79L248 324C283 277 324 219 342 187L382 247C371 262 341 299 311 335C338 361 370 397 399 429L353 472C336 443 305 403 280 373L248 409L248 411C294 481 333 558 361 636L322 666L311 663ZM526 841C496 713 442 589 373 511C390 500 417 474 429 462C466 509 500 570 530 638L955 638L955 706L557 706C571 744 583 784 593 824ZM490 536L490 366L383 321L403 258L490 295L490 47C490-51 519-76 623-76C644-76 818-76 844-76C933-76 954-39 964 88C946 92 919 103 903 116C898 12 890-8 840-8C803-8 653-8 625-8C564-8 553 2 553 46L553 322L665 369L665 92L729 92L729 396L845 445C845 324 843 235 840 219C838 204 832 201 821 201C813 201 788 200 771 202C778 186 783 158 786 138C807 138 837 139 857 145C881 152 896 170 898 203C902 232 903 359 904 499L906 511L863 530L851 519L729 467L729 603L665 603L665 440L553 393L553 536Z"/><animate attributeName="opacity" values="0;0;0;1;1;0;0" dur="3s" repeatCount="indefinite"/></svg></svg>