<svg id="U8808" viewBox="0 0 1000 1000"><path transform="translate(0, 900) scale(1,-1)" d="M160 446C134 406 90 368 45 341C62 333 88 317 101 307C145 337 196 384 224 430ZM256 425C284 393 314 347 328 318L386 344C370 373 339 416 309 449ZM151 658L312 658L312 602L151 602ZM151 558L312 558L312 500L151 500ZM151 757L312 757L312 702L151 702ZM88 803L88 454L378 454L378 803ZM774 817C801 793 829 761 841 737L732 737C729 769 727 802 726 837L654 837C655 803 658 769 661 737L398 737L398 681L668 681C679 599 698 527 721 468C679 430 631 398 579 373C593 362 616 338 624 327C668 350 710 378 748 411C780 353 819 319 863 319C916 319 938 349 949 452C932 458 910 470 896 484C893 416 886 385 868 385C845 385 821 412 798 459C847 511 888 572 916 641L850 654C832 606 805 563 773 523C759 568 747 621 738 681L949 681L949 737L850 737L902 758C890 780 858 815 831 838ZM504 657L504 574L409 574L409 520L500 520C491 474 464 423 395 387C411 377 435 359 446 347C530 392 559 459 567 520L655 520L655 574L570 574L570 657ZM250 228L464 228L464 141L250 141ZM537 228L757 228L757 141L537 141ZM94-1L99-61C281-56 557-45 817-34C835-52 851-70 862-85L916-46C886-10 827 46 775 87L833 87L833 281L537 281L537 341L464 341L464 281L177 281L177 87L464 87L464 7C321 3 191 0 94-1ZM717 57C733 45 749 31 766 16L537 9L537 87L762 87Z"/></svg>