<svg id="U88F8" viewBox="0 0 1000 1000"><svg id="U88F8hk" viewBox="0 0 1000 1000"><path transform="translate(0, 900) scale(1,-1)" d="M146 808C178 767 216 711 235 675L298 715C278 748 240 801 206 841ZM52 663L52 593L286 593C228 469 127 339 34 264C47 251 68 212 76 191C114 225 154 267 192 315L192-79L261-79L261 337C303 288 356 223 378 190L421 247L412 257L600 257C544 162 453 71 364 25C381 11 403-15 415-34C496 16 578 104 636 200L636-79L709-79L709 210C766 117 846 24 917-28C930-10 952 16 969 29C891 76 803 168 748 257L963 257L963 324L709 324L709 408L912 408L912 798L440 798L440 408L636 408L636 324L401 324L401 269L336 338C365 366 398 400 428 432L380 470C361 442 330 404 303 373L263 411C311 482 352 559 382 635L339 666L325 663ZM508 573L640 573L640 469L508 469ZM706 573L842 573L842 469L706 469ZM508 736L640 736L640 634L508 634ZM706 736L842 736L842 634L706 634Z"/><animate attributeName="opacity" values="1;0;0;1;1" dur="2s" repeatCount="indefinite"/></svg><svg id="U88F8jp" viewBox="0 0 1000 1000"><path transform="translate(0, 900) scale(1,-1)" d="M397 311L397 244L603 244C543 148 445 55 352 8C368-6 390-31 402-48C488 2 577 88 640 184L640-84L710-84L710 190C767 97 847 7 921-44C933-26 956-1 973 12C892 59 804 152 749 244L951 244L951 311L710 311L710 398L920 398L920 802L436 802L436 398L640 398L640 311ZM504 571L640 571L640 461L504 461ZM710 571L849 571L849 461L710 461ZM504 739L640 739L640 631L504 631ZM710 739L849 739L849 631L710 631ZM367 467C352 437 326 395 302 363L267 404C311 474 348 550 374 628L334 653L321 650L251 650L251 835L181 835L181 650L53 650L53 582L287 582C231 446 128 311 29 234C42 221 61 187 69 169C107 201 146 241 184 288L184-80L254-80L254 333C289 286 331 228 350 197L395 248L334 325C359 355 388 396 413 433Z"/><animate attributeName="opacity" values="0;1;1;0;0" dur="2s" repeatCount="indefinite"/></svg></svg>