<svg id="U88EB" viewBox="0 0 1000 1000"><svg id="U88EBhk" viewBox="0 0 1000 1000"><path transform="translate(0, 900) scale(1,-1)" d="M467 431L467 363L814 363L814 431ZM123 806C152 766 186 711 201 676L260 709C243 743 209 795 178 834ZM681 280L681-58L741-58L741 214L851 214L851-76L918-76L918 809L851 809L851 579L738 579L738 811L679 811L679 512L851 512L851 280ZM369 813L369 451L326 483C312 454 287 413 266 383L237 421C279 490 315 565 341 640L304 665L291 662L55 662L55 596L259 596C205 465 109 331 20 253C31 241 50 210 57 192C94 227 132 270 168 318L168-78L234-78L234 341C265 296 301 241 316 211L356 261L295 345C317 372 343 409 369 445L369-74L436-74L436 214L539 214L539-58L598-58L598 280L436 280L436 511L604 511L604 810L547 810L547 577L436 577L436 813Z"/><animate attributeName="opacity" values="1;0;0;1;1" dur="2s" repeatCount="indefinite"/></svg><svg id="U88EBsc" viewBox="0 0 1000 1000"><path transform="translate(0, 900) scale(1,-1)" d="M123 806C152 765 186 711 201 675L260 708C243 742 209 794 178 834ZM687 280L687-58L748-58L748 214L851 214L851-76L920-76L920 809L851 809L851 581L745 581L745 829L685 829L685 515L851 515L851 431L448 431L448 469L448 513L611 513L611 828L552 828L552 580L448 580L448 811L382 811L382 469C382 290 373 105 298-47C317-54 345-71 358-83C403 7 425 109 437 214L544 214L544-58L604-58L604 280L443 280L447 363L851 363L851 280ZM313 469C300 441 276 403 256 373L227 408C268 481 303 561 327 640L290 665L277 662L58 662L58 596L247 596C199 463 111 324 28 243C40 232 59 200 66 182C97 214 128 254 159 298L159-75L223-75L223 333C256 287 296 228 313 198L352 248C342 263 314 299 285 336C307 363 333 401 357 435Z"/><animate attributeName="opacity" values="0;1;1;0;0" dur="2s" repeatCount="indefinite"/></svg></svg>