<svg id="U88B3" viewBox="0 0 1000 1000"><path transform="translate(0, 900) scale(1,-1)" d="M142 808C168 767 202 711 216 675L270 716C253 750 221 802 193 842ZM589 195C625 170 665 136 692 106C603 42 494 0 382-22C395-38 411-65 418-84C657-27 875 100 960 366L915 388L902 385L728 385C748 410 765 436 780 462L723 474C801 538 864 620 903 723L859 747L847 744L669 744C689 771 708 798 724 825L651 840C606 758 519 662 395 594C412 583 433 560 443 543C511 584 567 631 615 681L811 681C782 626 743 578 698 537C669 563 630 593 597 614L546 576C579 553 619 522 646 495C575 444 495 407 414 384C426 370 443 344 451 328C534 355 615 393 687 445C634 363 540 276 411 215C426 204 446 179 456 163C543 207 614 261 671 320L868 320C839 253 797 197 746 150C717 179 678 211 643 233ZM47 663L47 594L272 594C217 467 120 338 31 264C41 250 58 213 64 192C102 226 141 269 179 318L179-79L244-79L244 325C278 278 318 219 336 187L376 247L306 335C332 361 363 395 391 427L347 470C330 443 300 403 276 372L244 409L244 411C288 481 327 558 355 636L317 666L306 663Z"/></svg>