<svg id="U897F" viewBox="0 0 976 1000"><path transform="translate(0, 900) scale(1,-1)" d="M800 740L848 801L930 736Q936 731 940 727L940 727Q934 712 913 711L913 711L624 711L624 543L796 543L829 583L902 525Q893 513 863 507L863 507L863-40Q863-46 840-55L840-55Q824-60 810-61L810-61L800-61L800 10L180 10L180-44Q180-51 159-59L159-59Q144-64 128-64L128-64L118-64L118 574L191 543L354 543L354 711L51 711L43 740L800 740ZM562 543L562 711L415 711L415 543L562 543ZM800 514L624 514L624 291Q624 274 637 272L637 272Q643 271 651 271L651 271L762 271Q774 271 777 272L777 272Q787 272 797 275L797 275L800 275L800 514ZM180 38L800 38L800 219Q772 214 702 214L702 214L636 214Q578 214 567 241L567 241Q562 254 562 274L562 274L562 514L415 514Q411 350 342 256L342 256Q288 185 194 137L194 137L184 149Q323 251 347 421L347 421Q353 463 354 514L354 514L180 514L180 38Z"/></svg>