<svg id="U8995" viewBox="0 0 1000 1000"><path transform="translate(0, 900) scale(1,-1)" d="M615 581L845 581L845 479L615 479ZM615 420L845 420L845 316L615 316ZM615 741L845 741L845 640L615 640ZM102 513C93 414 74 305 30 239L86 213C133 281 149 397 159 500ZM188 803C240 751 298 677 322 629L377 669C352 717 293 787 240 837ZM548 805L548 252L609 252C600 111 570 22 442-29C457-41 476-65 484-81C628-19 663 86 676 252L745 252L745 24C745-44 759-65 821-65C833-65 878-65 891-65C945-65 961-33 968 94C949 99 921 109 907 121C905 12 901-1 883-1C873-1 838-1 831-1C814-1 811 2 811 25L811 252L914 252L914 805ZM424 788C386 621 333 469 261 341L261 644L197 644L197 240C148 172 92 113 28 64C44 53 71 30 82 18C124 53 162 91 197 133L197 89C197 9 215-13 286-13C300-13 371-13 386-13C453-13 469 30 476 178C458 182 432 193 417 205C413 75 409 48 381 48C366 48 306 48 294 48C266 48 261 53 261 88L261 218C317 301 364 395 404 499C436 417 462 312 468 241L530 257C523 327 495 434 460 515L405 501C437 587 464 678 488 776Z"/></svg>