<svg id="U8AEE" viewBox="0 0 1000 1000"><svg id="U8AEEhk" viewBox="0 0 1000 1000"><path transform="translate(0, 900) scale(1,-1)" d="M372 468L394 404C441 430 493 462 545 492L537 549C474 517 414 486 372 468ZM403 744C440 722 486 687 507 660L542 710C519 736 473 770 436 789ZM86 538L86 478L356 478L356 538ZM86 406L86 347L356 347L356 406ZM47 670L47 608L387 608L387 670ZM148 814C174 774 205 716 220 680L278 712C262 747 231 800 202 841ZM496 291L496-82L564-82L564-39L818-39L818-78L889-78L889 291ZM564 28L564 226L818 226L818 28ZM620 842C598 747 556 657 503 599C518 588 544 565 555 551C580 583 603 623 624 668L867 668C853 626 836 584 821 555L873 532C897 579 925 651 947 717L904 735L894 732L650 732C661 761 670 792 678 823ZM676 639C654 512 604 392 420 332C433 319 450 293 457 276C593 325 665 403 705 498C753 400 829 323 925 283C933 302 951 329 965 343C854 379 770 467 730 575C736 596 740 617 744 639ZM86 273L86-67L147-67L147-19L362-19L362 273ZM147 210L300 210L300 44L147 44Z"/><animate attributeName="opacity" values="1;0;0;0;0;0;0;1;1" dur="4s" repeatCount="indefinite"/></svg><svg id="U8AEEjp" viewBox="0 0 1000 1000"><path transform="translate(0, 900) scale(1,-1)" d="M371 464L403 406C457 434 519 468 578 501L562 556C490 520 420 485 371 464ZM396 771C440 737 489 686 512 651L562 692C538 728 488 776 442 809ZM81 537L81 478L351 478L351 537ZM87 805L87 745L348 745L348 805ZM81 404L81 344L351 344L351 404ZM38 674L38 611L381 611L381 674ZM644 840C619 746 576 654 520 593C537 584 565 565 578 555C605 587 631 627 653 672L708 672L708 609C708 567 689 444 498 377C511 363 528 339 536 323C675 372 732 468 744 515C757 468 809 368 932 323C941 339 960 365 972 380C800 441 780 566 780 609L780 672L884 672C874 635 862 598 852 571L907 558C926 600 947 667 964 726L919 737L908 735L680 735C692 764 702 795 710 826ZM462 295L462-82L533-82L533-32L819-32L819-78L892-78L892 295ZM533 36L533 228L819 228L819 36ZM80 269L80-69L144-69L144-22L352-22L352 269ZM144 207L288 207L288 40L144 40Z"/><animate attributeName="opacity" values="0;1;1;0;0;0;0;0;0" dur="4s" repeatCount="indefinite"/></svg><svg id="U8AEEkr" viewBox="0 0 1000 1000"><path transform="translate(0, 900) scale(1,-1)" d="M372 471L403 411C457 435 517 462 576 490L562 547C490 518 421 489 372 471ZM395 730L395 668L560 668L560 730ZM81 537L81 478L351 478L351 537ZM87 805L87 745L348 745L348 805ZM81 404L81 344L351 344L351 404ZM38 674L38 611L374 611L374 674ZM641 840C618 742 579 645 526 582C543 573 572 554 584 543C611 578 635 623 657 672L708 672L708 609C708 567 689 444 498 377C511 363 528 339 536 323C675 372 732 468 744 515C757 468 809 368 932 323C941 339 960 365 972 380C800 441 780 566 780 609L780 672L884 672C874 635 862 598 852 571L907 558C926 600 947 667 964 726L919 737L908 735L681 735C691 765 700 795 708 826ZM80 269L80-69L144-69L144-22L352-22L352 269ZM144 207L288 207L288 40L144 40ZM462 295L462-82L533-82L533-32L819-32L819-78L892-78L892 295ZM533 36L533 228L819 228L819 36Z"/><animate attributeName="opacity" values="0;0;0;1;1;0;0;0;0" dur="4s" repeatCount="indefinite"/></svg><svg id="U8AEEtc" viewBox="0 0 1000 1000"><path transform="translate(0, 900) scale(1,-1)" d="M84 538L84 478L343 478L343 538ZM84 406L84 346L343 346L343 406ZM47 670L47 608L385 608L385 670ZM153 822C174 781 198 725 207 689L273 708C263 743 239 797 215 838ZM412 747L412 687L564 687L564 747ZM390 518L390 457L590 457L590 518ZM481 291L481-82L551-82L551-39L825-39L825-78L899-78L899 291ZM551 28L551 226L825 226L825 28ZM641 836C618 739 579 642 526 578C543 569 572 550 584 540C611 575 635 620 657 669L717 669C697 548 650 428 495 365C509 354 528 330 535 315C642 361 704 431 741 513C782 427 843 358 922 320C931 338 952 363 966 376C874 413 805 495 770 592C777 617 782 643 787 669L881 669C871 632 859 594 848 568L904 554C923 596 944 664 961 723L916 733L905 731L681 731C691 761 700 792 708 823ZM83 273L83-67L150-67L150-19L339-19L339 273ZM150 210L275 210L275 44L150 44Z"/><animate attributeName="opacity" values="0;0;0;0;0;1;1;0;0" dur="4s" repeatCount="indefinite"/></svg></svg>