<svg id="U8AC1" viewBox="0 0 1000 1000"><path transform="translate(0, 900) scale(1,-1)" d="M80 538L80 478L337 478L337 538ZM80 406L80 347L344 347L344 406ZM41 670L41 608L373 608L373 670ZM137 814C164 774 195 716 209 680L264 715C249 751 219 804 191 844ZM416 630C449 613 485 592 518 570C483 515 439 473 389 443C405 433 429 408 438 394C489 427 534 472 572 531C596 512 617 494 632 477L672 530C655 548 631 568 603 588C630 644 651 710 665 787L624 802L612 800L415 800L415 735L587 735C577 695 564 658 548 625C517 644 484 662 454 677ZM675 633C708 613 743 590 776 565C735 514 684 476 626 449C641 439 666 414 675 398C733 427 785 468 828 523C864 494 894 464 915 438L956 492C934 518 902 548 865 577C900 635 926 704 943 787L902 802L889 800L682 800L682 735L862 735C850 691 833 652 812 617C779 640 746 661 714 679ZM405 191C440 170 477 145 511 118C474 58 429 13 376-20C390-30 415-55 425-70C478-36 525 12 563 74C589 51 611 28 626 8L671 58C653 81 626 107 594 132C622 193 644 265 657 349L616 362L604 361L413 361L413 296L580 296C570 251 556 211 540 174C509 196 477 217 446 234ZM670 361L670 296L734 296L681 284C699 210 724 142 758 84C713 34 658-3 597-29C613-40 637-66 647-81C703-55 753-20 797 26C832-20 874-57 924-82C934-63 955-37 971-24C920-2 876 34 840 79C889 148 926 237 947 348L905 362L892 361ZM738 296L867 296C851 235 828 183 800 139C773 186 752 239 738 296ZM80 273L80-67L140-67L140-18L341-18L341 274L110 273ZM140 211L280 211L280 45L140 45Z"/></svg>