<svg id="U8A71" viewBox="0 0 1000 1000"><svg id="U8A71hk" viewBox="0 0 1000 1000"><path transform="translate(0, 900) scale(1,-1)" d="M82 538L82 478L375 478L375 538ZM82 406L82 347L375 347L375 406ZM41 670L41 608L409 608L409 670ZM154 814C181 774 214 716 228 680L289 715C273 751 241 804 211 844ZM475 293L475-80L544-80L544-39L833-39L833-76L905-76L905 293L724 293L724 461L958 461L958 532L724 532L724 725C792 739 856 755 908 774L859 833C763 796 590 765 443 746C451 729 460 702 463 685C524 692 590 701 655 712L655 532L436 532L436 461L655 461L655 293ZM544 29L544 224L833 224L833 29ZM82 273L82-67L148-67L148-19L382-19L382 273ZM148 210L315 210L315 44L148 44Z"/><animate attributeName="opacity" values="1;0;0;1;1" dur="2s" repeatCount="indefinite"/></svg><svg id="U8A71jp" viewBox="0 0 1000 1000"><path transform="translate(0, 900) scale(1,-1)" d="M86 532L86 472L379 472L379 532ZM92 805L92 745L377 745L377 805ZM86 395L86 336L379 336L379 395ZM38 671L38 609L411 609L411 671ZM418 548L418 477L653 477L653 308L477 308L477-80L548-80L548-30L843-30L843-75L918-75L918 308L729 308L729 477L965 477L965 548L729 548L729 720C803 731 873 745 929 762L874 824C773 792 594 766 442 752C451 735 462 707 464 689C524 694 589 700 653 709L653 548ZM548 39L548 240L843 240L843 39ZM84 258L84-79L150-79L150-33L382-33L382 258ZM150 196L315 196L315 28L150 28Z"/><animate attributeName="opacity" values="0;1;1;0;0" dur="2s" repeatCount="indefinite"/></svg></svg>