<svg id="U8A34" viewBox="0 0 1000 1000"><svg id="U8A34hk" viewBox="0 0 1000 1000"><path transform="translate(0, 900) scale(1,-1)" d="M84 538L84 478L368 478L368 538ZM84 406L84 347L369 347L369 406ZM44 670L44 608L409 608L409 670ZM156 819C180 779 208 722 221 685L287 712C274 748 245 801 218 842ZM86 273L86-67L152-67L152-19L368-19L368 273ZM152 210L305 210L305 44L152 44ZM467 746L467 404C467 269 459 93 373-31C391-40 421-65 434-78C527 54 541 258 541 403L541 443L702 443L702-79L774-79L774 254C827 206 882 155 914 120L959 176C918 217 838 286 774 339L774 443L955 443L955 513L541 513L541 695C670 715 812 746 911 783L846 839C759 803 602 768 467 746Z"/><animate attributeName="opacity" values="1;0;0;0;0;1;1" dur="3s" repeatCount="indefinite"/></svg><svg id="U8A34jp" viewBox="0 0 1000 1000"><path transform="translate(0, 900) scale(1,-1)" d="M86 537L86 478L398 478L398 537ZM91 805L91 745L399 745L399 805ZM86 404L86 344L398 344L398 404ZM38 674L38 611L436 611L436 674ZM84 269L84-69L151-69L151-23L395-23L395-17C413-28 437-51 446-66C548 72 562 270 562 410L562 446L743 446L743 300C697 321 651 340 609 356L572 297C626 276 686 249 743 220L743-78L817-78L817 180C860 156 898 131 925 110L966 177C929 203 876 234 817 264L817 446L961 446L961 517L562 517L562 674C687 698 827 734 923 776L856 831C783 796 656 759 539 734L488 750L488 412C488 282 479 119 395-4L395 269ZM151 206L328 206L328 39L151 39Z"/><animate attributeName="opacity" values="0;1;1;0;0;0;0" dur="3s" repeatCount="indefinite"/></svg><svg id="U8A34sc" viewBox="0 0 1000 1000"><path transform="translate(0, 900) scale(1,-1)" d="M84 538L84 478L368 478L368 538ZM84 406L84 347L369 347L369 406ZM44 670L44 608L409 608L409 670ZM157 814C184 774 216 716 231 680L292 715C276 751 244 804 215 844ZM487 727L486 455C486 315 475 128 368-7L368 273L86 273L86-67L152-67L152-19L358-19C375-28 408-51 420-65C506 35 542 171 556 296C611 275 673 248 731 220L731-78L812-78L812 178C855 154 893 131 921 110L966 177C928 203 873 233 812 263L812 446L960 446L960 517L564 517L564 678C689 702 825 736 921 776L848 831C766 793 616 753 487 727ZM731 300C684 321 637 340 594 356L557 302C562 353 564 402 564 446L731 446ZM152 210L305 210L305 44L152 44Z"/><animate attributeName="opacity" values="0;0;0;1;1;0;0" dur="3s" repeatCount="indefinite"/></svg></svg>