<svg id="U8B99" viewBox="0 0 1000 1000"><svg id="U8B99hk" viewBox="0 0 1000 1000"><path transform="translate(0, 900) scale(1,-1)" d="M457 581L574 581L574 489L457 489ZM742 581L863 581L863 489L742 489ZM682 633L682 436L926 436L926 633ZM81 545L81 485L324 485L324 545ZM82 408L82 348L325 348L325 408ZM40 672L40 610L353 610L353 672ZM131 819C150 776 171 719 181 683L246 707C237 742 214 798 194 839ZM658 191L658 131L504 131L504 191ZM76 271L76-67L137-67L137-21L325-21L325 221C341 210 365 189 376 177C396 194 416 213 435 234L435-80L504-80L504-37L961-37L961 19L726 19L726 81L907 81L907 131L726 131L726 191L907 191L907 240L726 240L726 300L937 300L937 356L744 356C728 381 700 414 673 439L618 411C634 395 651 375 664 356L529 356C542 377 554 399 565 421L511 436L635 436L635 633L398 633L398 436L498 436C459 355 394 277 325 224L325 271ZM658 240L504 240L504 300L658 300ZM658 81L658 19L504 19L504 81ZM540 840L540 761L366 761L366 703L540 703L540 652L607 652L607 840ZM710 840L710 654L778 654L778 702L967 702L967 760L778 760L778 840ZM137 208L263 208L263 41L137 41Z"/><animate attributeName="opacity" values="1;0;0;0;0;1;1" dur="3s" repeatCount="indefinite"/></svg><svg id="U8B99jp" viewBox="0 0 1000 1000"><path transform="translate(0, 900) scale(1,-1)" d="M461 581L578 581L578 489L461 489ZM744 581L864 581L864 489L744 489ZM79 537L79 478L336 478L336 537ZM86 805L86 745L334 745L334 805ZM79 404L79 344L336 344L336 404ZM38 674L38 611L362 611L362 674ZM656 191L656 131L507 131L507 191ZM78 269L78-69L140-69L140-22L335-22L335 237C351 226 377 203 388 191C405 206 423 223 440 241L440-80L507-80L507-37L961-37L961 19L723 19L723 81L907 81L907 131L723 131L723 191L907 191L907 240L723 240L723 300L937 300L937 356L730 356L768 425L733 436L926 436L926 633L685 633L685 436L698 436C689 412 677 382 665 356L529 356C546 382 561 409 574 436L638 436L638 633L404 633L404 436L498 436C458 360 399 288 335 239L335 269ZM656 240L507 240L507 300L656 300ZM656 81L656 19L507 19L507 81ZM743 841L743 766L580 766L580 841L513 841L513 766L372 766L372 706L513 706L513 650L580 650L580 706L743 706L743 650L811 650L811 706L952 706L952 766L811 766L811 841ZM140 207L273 207L273 40L140 40Z"/><animate attributeName="opacity" values="0;1;1;0;0;0;0" dur="3s" repeatCount="indefinite"/></svg><svg id="U8B99sc" viewBox="0 0 1000 1000"><path transform="translate(0, 900) scale(1,-1)" d="M461 581L578 581L578 489L461 489ZM744 581L864 581L864 489L744 489ZM685 633L685 436L926 436L926 633ZM79 537L79 478L336 478L336 537ZM79 404L79 344L336 344L336 404ZM38 674L38 611L362 611L362 674ZM125 809C164 771 204 717 221 680L280 714C261 750 221 801 180 838ZM661 191L661 131L507 131L507 191ZM621 411C637 395 654 375 667 356L532 356C546 377 557 399 568 421L516 436L638 436L638 633L404 633L404 436L503 436C464 356 402 278 334 225L334 269L78 269L78-58L140-58L140-13L334-13L334 219C349 208 372 188 381 177C401 194 421 213 440 234L440-80L507-80L507-37L961-37L961 19L728 19L728 81L907 81L907 131L728 131L728 191L907 191L907 240L728 240L728 300L937 300L937 356L745 356C729 381 702 414 675 439ZM661 240L507 240L507 300L661 300ZM661 81L661 19L507 19L507 81ZM743 841L743 766L580 766L580 841L513 841L513 766L372 766L372 706L513 706L513 650L580 650L580 706L743 706L743 650L811 650L811 706L952 706L952 766L811 766L811 841ZM140 207L271 207L271 49L140 49Z"/><animate attributeName="opacity" values="0;0;0;1;1;0;0" dur="3s" repeatCount="indefinite"/></svg></svg>