<svg id="U8B0C" viewBox="0 0 1000 1000"><svg id="U8B0Chk" viewBox="0 0 1000 1000"><path transform="translate(0, 900) scale(1,-1)" d="M81 537L81 478L351 478L351 537ZM81 404L81 344L351 344L351 404ZM396 382L396 316L800 316L800 1C800-12 796-15 782-15C768-17 720-17 666-15C675-34 686-62 689-81C761-81 807-80 835-69C863-59 871-39 871 0L871 316L959 316L959 382L862 382L862 726L948 726L948 790L406 790L406 726L792 726L792 382ZM456 664L456 451L465 451L721 450L721 664ZM518 610L655 610L655 504L518 504ZM453 245L453-14L516-14L516 30L720 30L720 245ZM516 190L654 190L654 86L516 86ZM155 814C179 771 201 714 208 674L38 674L38 611L381 611L381 674L221 674L267 693C260 731 236 790 210 835ZM80 269L80-69L144-69L144-22L352-22L352 269ZM144 207L288 207L288 40L144 40Z"/><animate attributeName="opacity" values="1;0;0;1;1" dur="2s" repeatCount="indefinite"/></svg><svg id="U8B0Cjp" viewBox="0 0 1000 1000"><path transform="translate(0, 900) scale(1,-1)" d="M81 537L81 478L351 478L351 537ZM87 805L87 745L348 745L348 805ZM81 404L81 344L351 344L351 404ZM38 674L38 611L381 611L381 674ZM406 792L406 727L802 727L802 468C802 456 799 453 786 453C774 452 735 452 690 453C698 436 708 411 711 392C772 392 814 392 839 403C865 413 872 430 872 466L872 727L948 727L948 792ZM457 671L457 436L520 436L520 471L717 471L717 671ZM520 618L652 618L652 525L520 525ZM396 373L396 306L800 306L800 1C800-12 796-15 782-15C768-17 720-17 666-15C675-34 686-62 689-81C761-81 807-80 835-69C863-59 871-39 871 0L871 306L959 306L959 373ZM453 245L453-14L516-14L516 30L720 30L720 245ZM516 190L654 190L654 86L516 86ZM80 269L80-69L144-69L144-22L352-22L352 269ZM144 207L288 207L288 40L144 40Z"/><animate attributeName="opacity" values="0;1;1;0;0" dur="2s" repeatCount="indefinite"/></svg></svg>