<svg id="U8B68" viewBox="0 0 1000 1000"><svg id="U8B68hk" viewBox="0 0 1000 1000"><path transform="translate(0, 900) scale(1,-1)" d="M77 538L77 478L350 478L350 538ZM77 406L77 347L350 347L350 406ZM39 670L39 608L384 608L384 670ZM136 814C164 774 196 716 210 680L271 715C255 751 223 804 194 844ZM79 273L79-67L144-67L144-19L358-19L358 273ZM144 210L293 210L293 44L144 44ZM519-85C534-74 560-65 716-23C712-11 708 12 707 28L587-1L587 182L663 182C709 56 797-38 923-82C932-67 949-44 963-32C901-14 848 16 806 57C840 78 880 105 912 134L872 168C847 146 806 116 773 94C752 120 734 150 721 182L948 182L948 233L469 233L469 259L469 284L885 284L885 334L469 334L469 385L939 385L939 440L405 440L405 260C405 168 400 41 346-52C362-57 392-72 404-83C446-8 462 93 467 182L527 182L527 33C527-7 506-24 490-32C501-45 514-70 519-85ZM478 610L576 610L576 535L478 535ZM629 610L712 610L712 535L629 535ZM765 610L851 610L851 535L765 535ZM478 732L576 732L576 658L478 658ZM629 732L712 732L712 658L629 658ZM765 732L851 732L851 658L765 658ZM712 839L712 782L629 782L629 839L576 839L576 782L419 782L419 485L912 485L912 782L765 782L765 839Z"/><animate attributeName="opacity" values="1;0;0;1;1" dur="2s" repeatCount="indefinite"/></svg><svg id="U8B68sc" viewBox="0 0 1000 1000"><path transform="translate(0, 900) scale(1,-1)" d="M512 334L512 284L889 284L889 334ZM77 538L77 478L350 478L350 538ZM77 406L77 347L350 347L350 406ZM39 670L39 608L384 608L384 670ZM136 814C164 774 196 716 210 680L271 715C255 751 223 804 194 844ZM524-85C540-74 564-65 712-24C708-13 704 10 702 26L592-1L592 182L661 182C707 54 796-39 923-83C932-68 949-44 963-32C898-14 843 19 799 62C832 81 870 106 900 133L861 167C837 147 800 120 767 99C747 124 731 152 718 182L938 182L938 233L476 233L476 259L476 385L930 385L930 440L413 440L413 259C413 167 406 40 350-53C366-59 396-73 408-83C452-9 468 93 474 182L535 182L535 37C535-1 514-17 499-23C509-39 520-69 524-85ZM484 610L578 610L578 535L484 535ZM630 610L712 610L712 535L630 535ZM764 610L846 610L846 535L764 535ZM484 732L578 732L578 658L484 658ZM630 732L712 732L712 658L630 658ZM764 732L846 732L846 658L764 658ZM712 839L712 782L630 782L630 839L578 839L578 782L426 782L426 485L906 485L906 782L764 782L764 839ZM79 273L79-67L144-67L144-19L358-19L358 273ZM144 210L293 210L293 44L144 44Z"/><animate attributeName="opacity" values="0;1;1;0;0" dur="2s" repeatCount="indefinite"/></svg></svg>