<svg id="U8BF8" viewBox="0 0 1000 1000"><path transform="translate(0, 900) scale(1,-1)" d="M96 769C151 722 219 657 251 615L303 667C270 708 201 771 146 814ZM335 539L335 469L596 469C503 392 400 328 290 279C306 264 330 230 341 213C385 235 428 259 470 285L470-78L542-78L542-33L822-33L822-75L895-75L895 369L590 369C630 400 669 434 706 469L960 469L960 539L774 539C840 612 898 693 946 781L875 808C822 709 753 619 673 539L632 539L632 661L778 661L778 727L632 727L632 840L557 840L557 727L376 727L376 661L557 661L557 539ZM542 139L822 139L822 31L542 31ZM542 201L542 305L822 305L822 201ZM44 526L44 454L185 454L185 107C185 54 149 15 129-1C143-12 167-37 176-52C190-33 216-14 379 106C371 121 359 150 353 170L258 103L258 526Z"/></svg>