<svg id="U8C51" viewBox="0 0 1000 1000"><svg id="U8C51hk" viewBox="0 0 1000 1000"><path transform="translate(0, 900) scale(1,-1)" d="M155 275L388 275L388 188L155 188ZM90 325L90 139L455 139L455 325ZM40 431L40 373L495 373L495 431ZM562 819C584 779 606 726 613 691L675 714C667 748 645 799 621 838ZM821 840C806 796 776 732 751 688L521 688L521 624L688 624L688 511L539 511C535 435 524 340 514 277L666 277C619 197 544 120 471 81C486 69 506 45 517 28C578 67 640 133 688 206L688-80L754-80L754 277L880 277C876 162 872 118 863 107C857 99 850 98 840 98C829 98 806 98 778 101C787 83 793 55 795 32C826 31 856 31 873 34C894 36 907 43 919 59C937 81 942 147 947 312C948 322 948 340 948 340L754 340L754 447L923 447L923 688L822 688C845 727 870 777 892 821ZM586 340L598 447L688 447L688 340ZM123 594L188 594L188 529L123 529ZM236 594L303 594L303 529L236 529ZM351 594L420 594L420 529L351 529ZM123 704L188 704L188 641L123 641ZM236 704L303 704L303 641L236 641ZM351 704L420 704L420 641L351 641ZM302 840L302 753L236 753L236 840L178 840L178 753L69 753L69 480L475 480L475 753L360 753L360 840ZM40 4L48-60C160-47 318-28 471-10L469 51L371 40L406 117L345 137C337 108 321 66 307 33L173 18L218 33C213 59 198 100 183 132L130 115C144 84 157 43 162 16ZM754 624L859 624L859 511L754 511Z"/><animate attributeName="opacity" values="1;0;0;1;1" dur="2s" repeatCount="indefinite"/></svg><svg id="U8C51jp" viewBox="0 0 1000 1000"><path transform="translate(0, 900) scale(1,-1)" d="M155 275L388 275L388 188L155 188ZM40 431L40 373L497 373L497 431ZM123 594L188 594L188 529L123 529ZM236 594L303 594L303 529L236 529ZM351 594L420 594L420 529L351 529ZM123 704L188 704L188 641L123 641ZM236 704L303 704L303 641L236 641ZM351 704L420 704L420 641L351 641ZM302 840L302 753L236 753L236 840L178 840L178 753L69 753L69 480L475 480L475 753L360 753L360 840ZM537 511C529 428 514 318 501 249L565 242L571 279L672 279C628 178 556 78 481 24L481 52L368 39C381 64 395 96 409 128L370 139L455 139L455 325L90 325L90 139L344 139C335 108 319 66 307 38L319 34L174 18L219 30C215 58 200 101 183 134L129 122C145 89 158 46 162 17L40 4L48-60C162-46 326-27 482-8L482 6C495-7 510-24 518-36C580 12 641 94 688 184L688-80L754-80L754 279L877 279C873 165 869 121 860 110C854 102 848 101 837 101C826 101 803 101 775 103C784 86 790 58 792 35C823 34 853 34 870 37C891 39 904 46 916 62C934 83 939 150 944 315C945 325 945 343 945 343L754 343L754 447L923 447L923 688L826 688C847 723 873 774 895 822L824 841C811 800 786 739 766 701L810 688L625 688L672 704C662 741 639 796 613 837L554 818C576 778 599 726 607 688L521 688L521 624L688 624L688 511ZM688 343L580 343L593 447L688 447ZM754 624L859 624L859 511L754 511Z"/><animate attributeName="opacity" values="0;1;1;0;0" dur="2s" repeatCount="indefinite"/></svg></svg>