<svg id="U8CD3" viewBox="0 0 1000 1000"><svg id="U8CD3hk" viewBox="0 0 1000 1000"><path transform="translate(0, 900) scale(1,-1)" d="M270 279L742 279L742 215L270 215ZM270 170L742 170L742 105L270 105ZM88 764L88 596L157 596L157 701L842 701L842 596L914 596L914 764L542 764C528 791 509 824 491 849L423 824C434 806 446 785 456 764ZM581 21C695-11 808-51 875-81L941-36C872-7 760 29 653 58L818 58L818 434L513 434C625 463 726 500 800 549L737 584C685 551 614 523 532 501L532 592L772 592L772 648L232 648L232 592L464 592L464 484C374 463 275 448 176 437C242 468 315 515 360 562L297 581C257 543 186 508 122 483C135 474 157 450 167 436C122 432 77 428 34 425C47 410 66 377 74 360L198 375L198 58L348 58C282 24 154-11 51-28C66-41 87-66 98-80C207-61 341-23 423 22L366 58L624 58ZM279 387L742 387L742 324L270 324L270 386Z"/><animate attributeName="opacity" values="1;0;0;0;0;1;1" dur="3s" repeatCount="indefinite"/></svg><svg id="U8CD3jp" viewBox="0 0 1000 1000"><path transform="translate(0, 900) scale(1,-1)" d="M301 584C254 541 175 501 101 474C115 463 140 438 149 425C224 457 310 510 364 565ZM676 553C741 518 822 464 861 429L911 472C869 507 787 558 724 591ZM272 274L730 274L730 222L272 222ZM272 175L730 175L730 121L272 121ZM85 764L85 596L154 596L154 701L843 701L843 596L915 596L915 764L536 764L536 840L461 840L461 764ZM203 422L200 422C144 413 88 406 35 401C48 385 69 354 77 338L200 357L200 72L364 72C300 31 162-10 47-30C62-44 83-68 94-83C213-61 355-17 433 34L374 72L805 72L805 422L480 422C563 447 639 478 697 514L633 546C605 529 570 514 532 500L532 595L775 595L775 651L225 651L225 595L464 595L464 478C385 454 294 436 203 422ZM283 373L730 373L730 321L272 321L272 371ZM565 29C689-6 812-48 884-81L950-36C870-3 738 40 616 72Z"/><animate attributeName="opacity" values="0;1;1;0;0;0;0" dur="3s" repeatCount="indefinite"/></svg><svg id="U8CD3kr" viewBox="0 0 1000 1000"><path transform="translate(0, 900) scale(1,-1)" d="M270 279L742 279L742 215L270 215ZM270 170L742 170L742 105L270 105ZM88 764L88 596L157 596L157 701L842 701L842 596L914 596L914 764L536 764L536 840L461 840L461 764ZM581 21C695-11 808-51 875-81L941-36C872-7 760 29 653 58L818 58L818 434L513 434C625 463 726 500 800 549L737 584C685 551 614 523 532 501L532 592L772 592L772 648L232 648L232 592L464 592L464 484C374 463 275 448 176 437C242 468 315 515 360 562L297 581C257 543 186 508 122 483C135 474 157 450 167 436C122 432 77 428 34 425C47 410 66 377 74 360L198 375L198 58L348 58C282 24 154-11 51-28C66-41 87-66 98-80C207-61 341-23 423 22L366 58L624 58ZM279 387L742 387L742 324L270 324L270 386Z"/><animate attributeName="opacity" values="0;0;0;1;1;0;0" dur="3s" repeatCount="indefinite"/></svg></svg>