<svg id="U8C6F" viewBox="0 0 1000 1000"><svg id="U8C6Fhk" viewBox="0 0 1000 1000"><path transform="translate(0, 900) scale(1,-1)" d="M610 701C633 660 656 604 664 570L725 594C717 628 692 682 668 722ZM892 836C776 804 570 780 401 769C409 753 418 726 420 710C592 719 802 741 934 777ZM426 682C451 642 474 588 482 554L543 579C535 613 509 664 484 703ZM856 734C838 690 804 623 777 583L831 564C857 603 890 661 917 713ZM677 76C762 33 864-35 916-82L954-34C902 13 798 78 714 119ZM429 238C448 245 475 249 631 263C629 236 626 212 621 189L400 189L400 127L602 127C569 52 502 5 361-24C375-37 392-64 399-80C567-41 642 23 677 127L956 127L956 189L693 189C697 214 701 240 703 269L863 282C877 262 888 242 896 226L948 259C924 308 865 380 811 432L762 403C783 382 805 358 825 333L568 315C662 366 757 430 846 500L794 543C755 508 710 474 668 444L535 440C581 473 628 515 671 560L612 591C567 533 500 479 480 465C462 451 444 443 429 441C436 424 446 392 450 378C462 383 484 387 590 392C553 367 522 349 505 341C466 319 435 305 410 302C418 284 427 252 429 238ZM348 595C326 564 292 523 260 489C245 536 225 580 200 616C227 646 251 679 270 713L372 713L372 780L46 780L46 713L198 713C155 649 90 594 23 557C34 543 52 510 57 496C91 517 125 543 157 572C172 547 184 518 195 488C152 432 80 374 20 344C32 330 47 303 53 288C107 321 167 373 213 425C220 395 225 363 229 332C184 252 102 170 27 129C39 115 54 88 60 71C122 111 187 175 237 243C241 131 227 34 206 8C192-13 179-17 158-17C144-17 117-16 93-13C102-32 107-59 107-78C130-79 157-80 173-80C213-79 239-67 261-36C307 19 322 234 279 421C312 377 342 324 357 287L404 315C388 357 349 416 311 462C339 489 368 520 396 549Z"/><animate attributeName="opacity" values="1;0;0;1;1" dur="2s" repeatCount="indefinite"/></svg><svg id="U8C6Fsc" viewBox="0 0 1000 1000"><path transform="translate(0, 900) scale(1,-1)" d="M620 701C642 660 665 604 673 570L733 594C724 628 701 682 676 722ZM895 836C783 804 583 780 419 769C425 753 434 727 436 709C603 719 807 741 935 777ZM441 682C465 642 490 588 498 554L557 578C548 612 522 664 498 704ZM857 734C840 689 807 623 781 583L833 564C858 602 890 661 918 713ZM351 621C330 580 297 526 266 484C250 534 230 580 205 618C230 648 253 680 271 714L390 714L390 781L46 781L46 714L204 714C163 653 104 602 44 567C54 552 70 517 75 503C105 523 136 548 165 576C180 552 192 525 202 496C164 437 95 376 37 344C48 329 62 300 67 284C119 319 178 377 220 433C229 400 235 366 239 332C192 249 107 166 29 127C40 111 53 80 59 63C125 104 195 172 247 244C252 135 241 41 221 14C208-9 194-12 174-12C162-12 136-11 113-8C121-27 126-55 126-74C148-76 173-76 188-76C224-75 249-65 270-31C313 25 325 236 283 421L292 432C320 388 347 334 360 297L401 325C389 365 355 424 322 469C350 505 379 547 405 585ZM447 238C466 246 491 250 644 264C641 237 638 213 633 190L421 190L421 129L615 129C582 52 515 5 371-24C383-37 400-63 406-79C561-45 637 12 676 101C722 7 804-51 934-77C942-57 960-31 975-16C852 0 771 49 729 129L962 129L962 190L702 190C706 214 710 240 712 268L688 268L865 283C878 263 889 243 897 227L951 260C927 312 869 387 815 442L765 412C786 390 808 363 828 337L579 317C664 368 748 430 828 498L781 540C748 509 712 478 677 451L561 448C603 478 645 515 684 555L629 587C584 532 517 479 497 465C478 451 463 443 447 441C454 424 463 392 467 378C480 383 500 386 596 391C561 367 532 349 516 340C480 318 451 304 428 301C435 283 444 252 447 238Z"/><animate attributeName="opacity" values="0;1;1;0;0" dur="2s" repeatCount="indefinite"/></svg></svg>