<svg id="U8DC4" viewBox="0 0 1000 1000"><path transform="translate(0, 900) scale(1,-1)" d="M150 732L317 732L317 556L150 556ZM647 848C590 710 491 581 383 500L383 797L86 797L86 491L212 491L212 81L147 64L147 390L86 390L86 49L35 37L53-34C153-6 287 31 414 67L405 133L279 99L279 281L397 281L397 347L279 347L279 491L376 491C389 474 411 439 419 424C514 499 602 606 668 726C733 608 828 493 916 428C929 448 954 475 972 489C873 550 763 676 702 794L717 827ZM497 489L497 57C497-34 526-56 625-56C646-56 794-56 817-56C909-56 930-17 941 127C921 132 891 144 874 157C869 34 861 11 813 11C781 11 655 11 631 11C578 11 568 18 568 57L568 419L772 419C767 292 761 243 750 230C743 222 734 221 718 221C703 221 658 221 611 226C621 208 628 182 630 163C678 160 726 161 750 162C778 164 793 170 809 188C830 213 836 281 842 461C842 470 842 489 842 489Z"/></svg>