<svg id="U8E4A" viewBox="0 0 1000 1000"><svg id="U8E4Ahk" viewBox="0 0 1000 1000"><path transform="translate(0, 900) scale(1,-1)" d="M143 732L282 732L282 562L143 562ZM610 701C633 660 656 604 664 570L725 594C717 628 692 682 668 722ZM892 836C776 804 570 780 401 769C409 753 418 726 420 710C592 719 802 741 934 777ZM426 682C451 642 474 588 482 554L543 579C535 613 509 664 484 703ZM856 734C838 690 804 623 777 583L831 564C857 603 890 661 917 713ZM677 76C762 33 864-35 916-82L954-34C902 13 798 78 714 119ZM38 38L54-28C144-1 263 33 377 67L368 128L267 99L267 282L367 282L367 346L267 346L267 498L350 498L350 796L78 796L78 498L201 498L201 81L136 63L136 396L73 396L73 46ZM429 238C448 245 475 249 631 263C629 236 626 212 621 189L400 189L400 127L602 127C569 52 502 5 361-24C375-37 392-64 399-80C567-41 642 23 677 127L956 127L956 189L693 189C697 214 701 240 703 269L863 282C877 262 888 242 896 226L948 259C924 308 865 380 811 432L762 403C783 382 805 358 825 333L568 315C662 366 757 430 846 500L794 543C755 508 710 474 668 444L535 440C581 473 628 515 671 560L612 591C567 533 500 479 480 465C462 451 444 443 429 441C436 424 446 392 450 378C462 383 484 387 590 392C553 367 522 349 505 341C466 319 435 305 410 302C418 284 427 252 429 238Z"/><animate attributeName="opacity" values="1;0;0;0;0;1;1" dur="3s" repeatCount="indefinite"/></svg><svg id="U8E4Ajp" viewBox="0 0 1000 1000"><path transform="translate(0, 900) scale(1,-1)" d="M149 733L314 733L314 553L149 553ZM780 723C833 667 886 588 906 534L965 568C941 622 889 697 835 752ZM449 478C496 454 551 417 592 385C570 366 548 347 528 330L411 327L417 260L639 269C635 241 631 215 624 191L397 191L397 135L273 104L273 281L400 281L400 347L273 347L273 489L381 489L381 562C399 552 423 533 435 523C471 573 506 642 532 714C662 729 807 753 908 787L850 838C776 812 650 789 532 773L480 786C459 708 424 629 381 573L381 797L84 797L84 489L208 489L208 89L145 74L145 395L83 395L83 60L37 51L52-19C151 6 285 40 413 71L407 129L601 129C563 56 491 5 349-25C362-39 381-64 387-80C552-42 633 23 675 119C722 19 807-49 931-80C940-61 960-33 976-18C864 1 784 53 740 129L955 129L955 191L699 191C705 216 709 243 713 271L690 271L883 279C896 263 907 247 915 233L969 270C938 320 871 391 810 441L760 410C784 389 809 365 832 340L613 332C683 392 760 466 820 530L760 562C728 522 685 475 639 431C619 445 596 462 571 477C599 506 630 542 658 576L721 598C716 632 698 685 678 723L617 704C632 673 645 635 652 603L612 621C591 588 556 542 525 505L490 524Z"/><animate attributeName="opacity" values="0;1;1;0;0;0;0" dur="3s" repeatCount="indefinite"/></svg><svg id="U8E4Asc" viewBox="0 0 1000 1000"><path transform="translate(0, 900) scale(1,-1)" d="M143 732L282 732L282 562L143 562ZM610 701C633 660 656 604 664 570L725 594C717 628 692 682 668 722ZM892 836C776 804 570 780 401 769C409 753 418 726 420 710C592 719 802 741 934 777ZM426 682C451 642 474 588 482 554L543 579C535 613 509 664 484 703ZM856 734C838 690 804 623 777 583L831 564C857 603 890 661 917 713ZM38 38L54-28C144-1 263 33 377 67L368 128L267 99L267 282L367 282L367 346L267 346L267 498L350 498L350 796L78 796L78 498L201 498L201 81L136 63L136 396L73 396L73 46ZM429 238C448 245 475 249 631 263C629 236 626 212 621 189L400 189L400 127L602 127C569 52 502 5 361-24C375-37 392-64 399-80C554-44 630 14 668 104C716 9 802-50 932-76C941-56 959-29 975-14C852 2 768 50 723 127L956 127L956 189L693 189C697 214 701 240 703 269L863 282C876 262 887 244 895 228L952 263C926 314 865 389 809 443L757 412C780 389 804 361 826 333L562 315C652 366 743 429 828 499L775 541C738 507 696 473 656 444L535 440C581 473 628 515 671 560L612 591C567 533 500 479 480 465C462 451 444 443 429 441C436 424 446 392 450 378C462 383 482 386 582 391C546 367 517 349 501 341C463 319 434 305 410 302C417 284 427 252 429 238Z"/><animate attributeName="opacity" values="0;0;0;1;1;0;0" dur="3s" repeatCount="indefinite"/></svg></svg>