<svg id="U8E2C" viewBox="0 0 1000 1000"><path transform="translate(0, 900) scale(1,-1)" d="M694 350C690 116 669 20 483-33C496-44 512-67 519-83C723-21 752 93 758 350ZM735 59C796 18 875-41 913-80L952-30C912 8 833 65 771 104ZM144 732L303 732L303 556L144 556ZM680 727L677 626L487 626L487 707C550 712 616 719 680 727ZM543 463L543 106L606 106L606 405L845 405L845 112L910 112L910 463L728 463L737 564L941 564L941 626L741 626L748 736C808 744 864 755 910 766L876 827C765 798 576 776 421 763L421 436C421 286 413 96 338-43C355-51 381-69 394-80C476 68 487 269 487 436L487 564L673 564L666 463ZM33 42L50-29C138-6 253 24 363 54L355 119L275 99L275 286L373 286L373 353L275 353L275 491L370 491L370 797L80 797L80 491L213 491L213 84L146 68L146 396L84 396L84 53Z"/></svg>