<svg id="U8ED8" viewBox="0 0 1000 1000"><path transform="translate(0, 900) scale(1,-1)" d="M493 542L493 202L671 202L671 65C671-22 681-41 700-55C719-69 747-74 769-74C784-74 830-74 846-74C868-74 895-71 912-65C930-58 942-46 950-25C957-6 962 42 963 83C942 88 918 102 901 117C901 73 898 39 895 24C893 10 884 3 876 0C868-3 854-4 840-4C823-4 795-4 782-4C770-4 760-2 751 2C741 8 738 27 738 57L738 202L861 202L861 135L927 135L927 543L861 543L861 272L738 272L738 636L966 636L966 706L738 706L738 838L671 838L671 706L471 706L471 636L671 636L671 272L556 272L556 542ZM74 592L74 233L211 233L211 155L43 155L43 90L211 90L211-79L283-79L283 90L445 90L445 155L283 155L283 233L426 233L426 592L283 592L283 668L443 668L443 734L283 734L283 840L211 840L211 734L53 734L53 668L211 668L211 592ZM136 386L217 386L217 290L136 290ZM277 386L361 386L361 290L277 290ZM136 536L217 536L217 440L136 440ZM277 536L361 536L361 440L277 440Z"/></svg>