<svg id="U8F80" viewBox="0 0 1000 1000"><path transform="translate(0, 900) scale(1,-1)" d="M612 587C648 544 685 485 700 445L753 479C737 518 699 575 662 616ZM611 282C655 229 698 154 715 105L771 136C752 185 708 258 663 310ZM670 840C660 803 642 753 623 712L496 712L496 414L423 414L423 347L496 347C493 220 474 70 375-39C391-46 418-68 429-81C535 34 559 207 562 347L816 347L816 4C816-10 811-14 798-15C786-15 744-15 697-14C706-31 716-60 719-78C785-78 825-77 850-65C875-55 884-35 884 4L884 347L959 347L959 414L884 414L884 712L696 712C713 746 731 787 748 825ZM816 414L562 414L562 645L816 645ZM85 332C93 340 122 346 155 346L249 346L249 203L46 167L62 94L249 132L249-75L315-75L315 146L415 167L412 233L315 215L315 346L398 346L398 414L315 414L315 568L249 568L249 414L150 414C177 483 204 565 227 650L431 650L431 722L245 722C253 756 260 791 266 825L196 840C191 801 184 761 175 722L53 722L53 650L159 650C139 570 118 504 109 479C92 435 79 403 64 398C71 380 82 346 85 332Z"/></svg>