<svg id="U8F34" viewBox="0 0 1000 1000"><svg id="U8F34hk" viewBox="0 0 1000 1000"><path transform="translate(0, 900) scale(1,-1)" d="M701 710L701 608L534 608L534 707C671 721 825 742 930 772L880 827C784 797 614 773 469 758L469 428C469 280 463 88 406-52C424-60 448-77 461-89C525 61 534 262 534 428L534 547L701 547L701 438L558 438L558-77L623-77L623-32L860-32L860-77L928-77L928 438L768 438L768 547L948 547L948 608L768 608L768 710ZM623 243L860 243L860 165L623 165ZM623 296L623 377L860 377L860 296ZM623 27L623 112L860 112L860 27ZM72 592L72 233L207 233L207 151L42 151L42 86L207 86L207-79L276-79L276 86L427 86L427 151L276 151L276 233L411 233L411 592L276 592L276 668L433 668L433 734L276 734L276 840L206 840L206 734L52 734L52 668L206 668L206 592ZM130 386L212 386L212 290L130 290ZM271 386L351 386L351 290L271 290ZM130 536L212 536L212 440L130 440ZM271 536L351 536L351 440L271 440Z"/><animate attributeName="opacity" values="1;0;0;0;0;1;1" dur="3s" repeatCount="indefinite"/></svg><svg id="U8F34jp" viewBox="0 0 1000 1000"><path transform="translate(0, 900) scale(1,-1)" d="M71 587L71 245L207 245L207 165L40 165L40 100L207 100L207-80L273-80L273 100L426 100C414 55 398 12 377-28C394-37 419-58 430-72C518 93 529 318 529 472L529 547L696 547L692 438L558 438L558-77L623-77L623-32L860-32L860-77L928-77L928 438L755 438L761 547L951 547L951 608L764 608L767 730C828 741 884 753 931 766L879 820C796 795 654 772 525 756L464 775L464 473C464 365 460 230 427 105L427 165L273 165L273 245L414 245L414 587L273 587L273 664L429 664L429 730L273 730L273 840L207 840L207 730L50 730L50 664L207 664L207 587ZM529 699C584 704 642 711 699 720L698 608L529 608ZM623 243L860 243L860 165L623 165ZM623 296L623 377L860 377L860 296ZM623 27L623 112L860 112L860 27ZM131 389L212 389L212 303L131 303ZM268 389L353 389L353 303L268 303ZM131 529L212 529L212 444L131 444ZM268 529L353 529L353 444L268 444Z"/><animate attributeName="opacity" values="0;1;1;0;0;0;0" dur="3s" repeatCount="indefinite"/></svg><svg id="U8F34sc" viewBox="0 0 1000 1000"><path transform="translate(0, 900) scale(1,-1)" d="M699 727L698 608L528 608L528 707C584 712 642 719 699 727ZM464 758L464 431C464 279 453 88 369-51C387-59 411-76 424-89C515 59 528 261 528 431L528 547L696 547L691 438L558 438L558-77L623-77L623-32L860-32L860-77L928-77L928 438L754 438L761 547L951 547L951 608L763 608L767 737C827 747 884 759 931 772L880 827C783 798 609 773 464 758ZM623 243L860 243L860 165L623 165ZM623 296L623 377L860 377L860 296ZM623 27L623 112L860 112L860 27ZM71 587L71 245L207 245L207 165L40 165L40 100L207 100L207-80L273-80L273 100L427 100L427 165L273 165L273 245L414 245L414 587L273 587L273 664L429 664L429 730L273 730L273 840L207 840L207 730L50 730L50 664L207 664L207 587ZM131 389L212 389L212 303L131 303ZM268 389L353 389L353 303L268 303ZM131 529L212 529L212 444L131 444ZM268 529L353 529L353 444L268 444Z"/><animate attributeName="opacity" values="0;0;0;1;1;0;0" dur="3s" repeatCount="indefinite"/></svg></svg>