<svg id="U8F17" viewBox="0 0 1000 1000"><svg id="U8F17hk" viewBox="0 0 1000 1000"><path transform="translate(0, 900) scale(1,-1)" d="M498 748L498 314L587 314C579 152 554 35 426-30C442-42 462-65 470-82C613-5 645 129 656 314L731 314L731 25C731-45 746-65 812-65C824-65 876-65 890-65C944-65 961-34 967 88C948 93 921 102 907 114C904 11 901-4 882-4C871-4 830-4 822-4C802-4 798 0 798 24L798 314L924 314L924 768L724 768L724 705L856 705L856 574L726 574L726 513L856 513L856 376L568 376L568 517L681 517L681 579L568 579L568 719C614 740 662 765 702 792L648 843C613 811 552 774 498 748ZM73 592L73 233L212 233L212 155L43 155L43 90L212 90L212-79L281-79L281 90L446 90L446 155L281 155L281 233L423 233L423 592L281 592L281 668L443 668L443 734L281 734L281 840L211 840L211 734L52 734L52 668L211 668L211 592ZM134 386L217 386L217 290L134 290ZM276 386L360 386L360 290L276 290ZM134 536L217 536L217 440L134 440ZM276 536L360 536L360 440L276 440Z"/><animate attributeName="opacity" values="1;0;0;1;1" dur="2s" repeatCount="indefinite"/></svg><svg id="U8F17jp" viewBox="0 0 1000 1000"><path transform="translate(0, 900) scale(1,-1)" d="M502 363L502 298L592 298C580 144 549 34 404-25C420-38 440-64 448-81C610-10 650 118 664 298L734 298L734 17C734-57 749-78 816-78C829-78 876-78 890-78C947-78 966-43 972 96C952 101 922 113 908 125C905 5 902-13 882-13C871-13 835-13 827-13C808-13 805-9 805 17L805 298L933 298L933 765L734 765L734 699L864 699L864 567L739 567L739 506L864 506L864 363L568 363L568 506L685 506L685 567L568 567L568 698C623 718 683 744 729 773L673 826C641 800 587 771 536 749L502 760ZM76 591L76 243L224 243L224 161L39 161L39 95L224 95L224-81L292-81L292 95L471 95L471 161L292 161L292 243L445 243L445 591L292 591L292 663L464 663L464 731L292 731L292 840L224 840L224 731L50 731L50 663L224 663L224 591ZM135 391L231 391L231 299L135 299ZM286 391L385 391L385 299L286 299ZM135 534L231 534L231 445L135 445ZM286 534L385 534L385 445L286 445Z"/><animate attributeName="opacity" values="0;1;1;0;0" dur="2s" repeatCount="indefinite"/></svg></svg>