<svg id="U8FB9" viewBox="0 0 1000 1000"><svg id="U8FB9hk" viewBox="0 0 1000 1000"><path transform="translate(0, 900) scale(1,-1)" d="M83 805C125 756 177 687 202 645L261 683C236 724 184 787 140 837ZM570 831C569 778 567 724 564 671L356 671L356 600L558 600C538 410 484 238 308 138C327 125 350 102 360 84C550 199 611 389 633 600L846 600C834 316 819 205 795 178C784 167 773 164 755 165C732 165 676 165 616 171C630 149 640 118 642 95C697 93 754 91 784 95C818 98 840 105 860 130C895 171 908 293 923 634C923 645 923 671 923 671L640 671C643 724 645 777 647 831ZM63 284C71 292 97 299 121 299L209 299C180 144 117 32 31-31C47-41 72-67 83-83C130-47 170 4 204 69C282-44 408-65 610-65C719-65 844-62 938-57C942-35 953 2 964 20C862 10 716 5 611 6C424 6 297 21 233 135C256 196 274 266 286 347L248 361L235 360L143 360C195 429 264 535 302 594L251 615L238 609L50 609L50 546L195 546C156 484 103 405 82 383C66 364 50 357 36 353C44 337 58 302 63 284Z"/><animate attributeName="opacity" values="1;0;0;1;1" dur="2s" repeatCount="indefinite"/></svg><svg id="U8FB9sc" viewBox="0 0 1000 1000"><path transform="translate(0, 900) scale(1,-1)" d="M82 784C137 732 204 659 236 612L297 660C264 705 195 775 140 825ZM553 825C552 769 551 714 548 661L342 661L342 589L543 589C526 397 476 237 313 140C333 127 356 103 367 85C544 197 600 375 621 589L843 589C830 308 816 198 791 171C781 160 770 158 751 159C728 159 672 159 613 164C627 142 637 110 639 87C694 85 751 83 781 86C815 89 837 97 858 123C892 164 906 285 920 625C921 635 921 661 921 661L626 661C629 714 631 769 632 825ZM248 501L42 501L42 427L173 427L173 116C129 98 78 51 24-9L80-82C129-12 176 52 208 52C230 52 264 16 306-12C378-58 463-69 593-69C694-69 879-63 950-58C952-35 964 5 974 26C873 15 720 6 596 6C479 6 391 13 325 56C290 78 267 98 248 110Z"/><animate attributeName="opacity" values="0;1;1;0;0" dur="2s" repeatCount="indefinite"/></svg></svg>