<svg id="U8F56" viewBox="0 0 1000 1000"><path transform="translate(0, 900) scale(1,-1)" d="M633 167L735 167L735 96L633 96ZM583 209L583 54L784 54L784 209ZM70 594L70 238L193 238L193 159L39 159L39 96L193 96L193-81L260-81L260 96L403 96L403 159L260 159L260 238L378 238L378 594L259 594L259 667L388 667L388 731L259 731L259 840L192 840L192 731L49 731L49 667L192 667L192 594ZM125 390L198 390L198 294L125 294ZM254 390L320 390L320 294L254 294ZM125 538L198 538L198 444L125 444ZM254 538L320 538L320 444L254 444ZM417 425L417 367L961 367L961 425L718 425L718 686L937 686L937 744L718 744L718 839L647 839L647 744L435 744L435 686L647 686L647 425ZM452 311L452-80L516-80L516-50L853-50L853-78L920-78L920 311ZM516 6L516 255L853 255L853 6ZM514 664C503 583 471 519 413 477C427 468 447 449 455 440C485 463 509 492 528 526C552 502 577 475 591 457L630 489C612 511 578 545 549 571C559 598 566 627 571 658ZM824 663C811 587 780 525 726 483C739 475 761 456 769 446C796 468 818 496 836 528C869 499 903 466 923 443L962 480C937 505 895 544 858 574C868 600 876 628 881 657Z"/></svg>