<svg id="U90F1" viewBox="0 0 1000 1000"><path transform="translate(0, 900) scale(1,-1)" d="M120 816C151 760 188 685 204 640L270 670C253 712 215 785 183 839ZM382 565L382 374L252 374L252 565ZM443 836C424 775 385 688 355 634L74 634L74 565L182 565L182 374L61 374L61 306L180 306C174 198 146 76 44-15C59-24 85-49 96-62C210 39 243 183 250 306L382 306L382-71L453-71L453 306L572 306L572 374L453 374L453 565L559 565L559 634L427 634C457 685 489 750 518 806ZM611 788L611-80L681-80L681 719L862 719C834 641 796 533 758 447C847 357 872 283 872 220C872 184 866 153 846 141C836 134 822 130 806 129C787 129 760 129 730 131C742 110 749 80 750 61C778 59 810 59 835 62C859 65 880 71 897 82C929 105 943 152 942 212C942 282 920 362 830 456C872 549 919 665 955 759L903 791L892 788Z"/></svg>