<svg id="U9009" viewBox="0 0 1000 1000"><path transform="translate(0, 900) scale(1,-1)" d="M61 765C119 716 187 646 216 597L278 644C246 692 177 760 118 806ZM446 810C422 721 380 633 326 574C344 565 376 545 390 534C413 562 435 597 455 636L603 636L603 490L320 490L320 423L501 423C484 292 443 197 293 144C309 130 331 102 339 83C507 149 557 264 576 423L679 423L679 191C679 115 696 93 771 93C786 93 854 93 869 93C932 93 952 125 959 252C938 257 907 268 893 282C890 177 886 163 861 163C847 163 792 163 782 163C756 163 753 166 753 191L753 423L951 423L951 490L678 490L678 636L909 636L909 701L678 701L678 836L603 836L603 701L485 701C498 731 509 763 518 795ZM251 456L56 456L56 386L179 386L179 83C136 63 90 27 45-15L95-80C152-18 206 34 243 34C265 34 296 5 335-19C401-58 484-68 600-68C698-68 867-63 945-58C946-36 958 1 966 20C867 10 715 3 601 3C495 3 411 9 349 46C301 74 278 98 251 100Z"/></svg>