<svg id="U900A" viewBox="0 0 1000 1000"><path transform="translate(0, 900) scale(1,-1)" d="M65 762C119 713 183 643 212 597L272 641C241 687 176 754 121 801ZM809 642C848 517 885 354 896 246L960 261C947 369 910 529 870 656ZM617 654C600 505 570 351 521 252C537 246 566 232 578 223C626 328 660 485 680 644ZM718 828L718 138C718 124 713 120 699 120C685 119 639 119 591 120C601 104 612 76 616 59C680 59 723 60 750 71C777 81 786 99 786 138L786 828ZM249 484L51 484L51 414L181 414L181 95C137 77 88 37 39-12L85-73C137-11 188 42 223 42C246 42 278 13 319-11C390-51 476-61 594-61C691-61 868-56 941-51C942-30 953 3 961 22C863 11 714 5 596 5C487 5 401 11 336 47C296 69 272 90 249 99ZM272 424L296 360L399 397L399 142C399 131 395 128 384 127C374 127 341 126 304 127C313 111 323 84 325 66C380 66 414 67 437 78C460 89 467 107 467 140L467 422L564 459L552 519L467 489L467 617C513 661 561 719 595 773L551 804L537 801L295 801L295 738L491 738C464 700 430 660 399 632L399 466C351 449 308 435 272 424Z"/></svg>