<svg id="U9020" viewBox="0 0 1000 1000"><svg id="U9020hk" viewBox="0 0 1000 1000"><path transform="translate(0, 900) scale(1,-1)" d="M83 805C128 756 183 687 211 645L268 686C241 726 186 790 140 839ZM479 307L808 307L808 148L479 148ZM408 369L408 86L883 86L883 369L675 369L675 466L948 466L948 530L675 530L675 648L911 648L911 710L675 710L675 835L605 835L605 710L490 710C505 741 518 774 529 807L461 823C433 732 384 642 325 582C343 575 373 558 387 547C411 575 435 610 457 648L605 648L605 530L327 530L327 466L605 466L605 369ZM61 284C69 292 95 299 120 299L227 299C194 142 123 31 26-31C41-42 68-68 78-85C129-50 174-1 211 62C291-47 416-67 616-67C725-67 851-64 945-59C949-37 959-2 970 15C868 6 721 1 616 1C434 1 308 16 242 122C270 185 292 260 306 347L267 361L254 360L145 360C202 427 278 531 320 591L267 615L253 609L47 609L47 546L204 546C162 486 104 410 81 387C64 368 47 361 32 357C40 341 56 303 61 284Z"/><animate attributeName="opacity" values="1;0;0;0;0;0;0;0;0;1;1" dur="5s" repeatCount="indefinite"/></svg><svg id="U9020jp" viewBox="0 0 1000 1000"><path transform="translate(0, 900) scale(1,-1)" d="M60 771C124 726 199 659 231 610L291 660C255 708 180 773 114 816ZM469 315L800 315L800 156L469 156ZM396 377L396 93L877 93L877 377ZM591 840L591 714L474 714C489 745 503 778 514 811L444 827C413 734 361 641 297 580C316 572 347 554 361 543C388 573 414 609 439 649L591 649L591 520L305 520L305 456L949 456L949 520L665 520L665 649L905 649L905 714L665 714L665 840ZM262 445L49 445L49 375L189 375L189 120C139 78 81 36 36 5L75-72C129-27 180 16 228 59C292-20 382-56 513-61C624-65 831-63 940-58C943-35 956 1 965 18C846 10 622 7 513 12C397 16 309 51 262 124Z"/><animate attributeName="opacity" values="0;1;1;0;0;0;0;0;0;0;0" dur="5s" repeatCount="indefinite"/></svg><svg id="U9020kr" viewBox="0 0 1000 1000"><path transform="translate(0, 900) scale(1,-1)" d="M90 781C150 748 220 695 253 656L306 707C272 746 200 796 140 828ZM51 578C114 546 189 496 224 457L276 511C239 549 163 597 100 627ZM591 840L591 714L474 714C489 745 503 778 514 811L444 827C413 734 361 641 297 580C316 572 347 554 361 543C388 573 414 609 439 649L591 649L591 520L305 520L305 456L949 456L949 520L665 520L665 649L905 649L905 714L665 714L665 840ZM396 376L396 93L874 93L874 376ZM468 158L468 314L799 314L799 158ZM251 375L46 375L46 305L178 305L178 117C130 75 77 34 33 3L72-72C124-28 173 15 219 58C283-21 374-56 506-61C618-65 828-63 939-58C943-36 955-1 964 17C844 9 616 6 505 10C388 15 300 49 251 122Z"/><animate attributeName="opacity" values="0;0;0;1;1;0;0;0;0;0;0" dur="5s" repeatCount="indefinite"/></svg><svg id="U9020sc" viewBox="0 0 1000 1000"><path transform="translate(0, 900) scale(1,-1)" d="M70 760C125 711 191 643 221 598L280 643C248 688 181 754 126 800ZM456 310L796 310L796 155L456 155ZM385 374L385 92L871 92L871 374ZM594 840L594 714L470 714C484 745 497 778 507 811L437 827C409 734 362 641 304 580C322 572 353 555 367 544C392 573 416 609 438 649L594 649L594 520L305 520L305 456L949 456L949 520L668 520L668 649L905 649L905 714L668 714L668 840ZM251 456L47 456L47 386L179 386L179 87C138 70 91 35 47-7L94-73C144-16 193 32 227 32C247 32 277 6 314-16C378-53 462-61 579-61C683-61 861-56 949-51C950-30 962 6 971 26C865 13 698 7 580 7C473 7 387 11 327 47C291 67 271 85 251 93Z"/><animate attributeName="opacity" values="0;0;0;0;0;1;1;0;0;0;0" dur="5s" repeatCount="indefinite"/></svg><svg id="U9020tc" viewBox="0 0 1000 1000"><path transform="translate(0, 900) scale(1,-1)" d="M83 805C128 756 183 687 211 645L268 686C241 726 186 790 140 839ZM470 314L797 314L797 152L470 152ZM398 376L398 90L873 90L873 376ZM599 840L599 714L486 714C501 745 514 778 525 811L456 827C426 734 375 641 315 580C333 572 363 555 377 544C403 573 428 609 451 649L599 649L599 520L318 520L318 456L940 456L940 520L673 520L673 649L900 649L900 714L673 714L673 840ZM61 284C69 292 95 299 120 299L227 299C194 142 123 31 28-31C42-41 68-67 78-82C129-47 174 2 210 65C290-45 415-65 616-65C726-65 852-63 945-57C949-36 959-1 970 15C868 6 721 1 616 1C432 2 306 17 240 124C268 187 289 261 303 347L266 361L253 360L141 360C197 428 269 533 310 592L260 614L249 609L47 609L47 546L202 546C160 484 103 405 81 382C64 363 48 356 33 351C42 337 56 302 61 284Z"/><animate attributeName="opacity" values="0;0;0;0;0;0;0;1;1;0;0" dur="5s" repeatCount="indefinite"/></svg></svg>