<svg id="U90CE" viewBox="0 0 1000 1000"><svg id="U90CEhk" viewBox="0 0 1000 1000"><path transform="translate(0, 900) scale(1,-1)" d="M418 485L418 376L181 376L181 485ZM418 551L181 551L181 649L418 649ZM582 775L582-78L654-78L654 705L824 705C795 629 759 543 718 450C813 351 855 279 855 215C855 179 846 145 823 131C812 125 797 121 779 120C757 119 719 120 682 123C696 104 705 73 706 54C740 51 779 51 807 54C832 57 856 64 873 75C909 99 927 152 926 212C926 282 886 362 793 462C841 561 885 659 923 747L870 778L859 775ZM225 814C248 784 274 745 289 714L108 714L108 103C108 57 88 32 73 20C85 7 105-22 112-38C133-20 167-4 403 95C424 54 442 15 453-15L519 18C493 84 431 192 375 272L316 245C334 217 353 186 371 155L181 80L181 311L489 311L489 714L330 714L361 729C346 761 315 807 286 841Z"/><animate attributeName="opacity" values="1;0;0;1;1" dur="2s" repeatCount="indefinite"/></svg><svg id="U90CEjp" viewBox="0 0 1000 1000"><path transform="translate(0, 900) scale(1,-1)" d="M177 475L420 475L420 367L177 367ZM177 538L177 645L420 645L420 538ZM305 233C329 201 353 165 376 128L177 76L177 297L490 297L490 716L336 716L336 837L263 837L263 716L107 716L107 59L37 42L57-36C155-9 289 27 415 64C434 29 451-4 461-31L527 4C498 74 429 182 366 263ZM571 777L571-83L644-83L644 705L851 705C816 625 768 517 722 434C833 347 866 272 866 210C867 173 859 145 836 133C822 125 805 122 787 120C765 119 734 119 701 123C714 100 722 68 724 47C755 44 791 44 818 48C846 51 870 58 888 70C926 94 942 140 942 202C942 273 914 352 803 444C854 535 911 648 955 743L898 780L886 777Z"/><animate attributeName="opacity" values="0;1;1;0;0" dur="2s" repeatCount="indefinite"/></svg></svg>