<svg id="U9088" viewBox="0 0 1000 1000"><svg id="U9088hk" viewBox="0 0 1000 1000"><path transform="translate(0, 900) scale(1,-1)" d="M498 842C445 801 346 754 259 721C267 708 277 688 281 676C374 709 479 754 551 800ZM646 538L839 538L839 443L646 443ZM646 682L839 682L839 589L646 589ZM68 807C109 757 161 688 185 645L245 684C219 726 168 790 124 840ZM584 736L584 651L537 679C527 667 517 655 505 644C487 669 464 700 445 724L401 701C422 673 448 637 465 608C449 595 432 582 414 570C395 600 364 642 339 673L294 651C320 618 351 572 369 541C333 519 293 499 254 482C268 471 285 451 294 438C338 458 382 481 424 507C434 493 444 477 452 460C406 417 332 372 276 348C288 337 304 315 311 301C362 329 424 372 470 413C477 392 482 371 486 351C433 290 339 223 264 190C277 179 293 157 301 142C363 176 437 231 493 285C496 216 485 157 467 139C455 124 442 122 424 122C411 122 387 122 363 125C372 108 377 82 378 65C399 64 423 64 438 64C473 64 496 73 517 100C572 159 575 404 469 538C513 570 553 604 584 640L584 389L654 389C648 246 626 156 533 102C546 92 565 70 572 56C680 119 707 224 715 389L766 389L766 157C766 92 781 74 834 74C845 74 883 74 894 74C940 74 956 103 962 226C945 230 920 239 908 250C906 146 903 132 886 132C877 132 849 132 842 132C827 132 824 135 824 158L824 389L903 389L903 736L753 736L788 830L714 842C708 811 697 770 686 736ZM61 284C69 292 95 299 118 299L195 299C169 146 112 34 31-30C46-40 72-66 82-80C126-44 165 8 196 74C275-43 402-64 608-64C720-64 847-62 941-56C944-36 954-2 965 15C862 5 715 1 610 1C415 2 286 18 222 139C244 199 260 269 270 348L236 361L224 360L137 360C184 428 246 536 280 594L230 614L219 609L46 609L46 546L180 546C145 484 97 402 78 381C63 362 48 356 33 351C42 337 57 302 61 284Z"/><animate attributeName="opacity" values="1;0;0;0;0;1;1" dur="3s" repeatCount="indefinite"/></svg><svg id="U9088jp" viewBox="0 0 1000 1000"><path transform="translate(0, 900) scale(1,-1)" d="M498 842C445 803 346 760 260 729C268 716 277 696 281 683C373 714 479 756 551 800ZM289 660C317 631 346 590 358 563L404 590C392 617 361 657 333 684ZM399 706C423 680 447 645 458 621L503 649C492 672 466 706 442 731ZM662 548L853 548L853 463L662 463ZM662 682L853 682L853 599L662 599ZM73 784C125 750 184 698 211 660L264 708C236 745 175 794 123 827ZM46 576C100 544 163 493 192 456L244 506C214 543 149 590 96 621ZM596 736L596 409L654 409C649 260 627 156 528 96C542 86 561 64 569 50C681 122 708 240 715 409L764 409L764 164C764 108 768 93 782 81C795 69 816 65 834 65C843 65 869 65 880 65C896 65 914 68 926 74C937 81 945 93 950 111C956 128 959 179 960 222C943 227 922 238 909 248C909 202 908 165 906 149C904 134 901 126 896 123C892 119 883 118 875 118C867 118 854 118 847 118C841 118 835 120 831 123C827 127 827 138 827 156L827 409L922 409L922 736L756 736L788 831L714 842C709 811 699 771 689 736ZM541 680C482 606 372 530 260 481C273 470 290 450 299 437C342 457 385 480 426 506C436 492 445 477 453 461C406 416 330 367 271 342C283 330 299 309 307 294C360 324 425 370 473 414C480 393 485 373 489 352C436 288 341 219 264 185C278 173 293 152 301 137C365 172 440 229 497 285C501 216 489 157 471 139C459 124 446 122 428 122C414 122 390 122 366 125C375 108 380 82 381 65C403 64 427 64 442 64C477 64 499 73 521 99C577 158 580 401 471 536C519 570 562 608 594 648ZM220 375L43 375L43 306L149 306L149 106C111 67 68 28 32-2L71-72C114-29 152 12 190 53C256-23 352-56 485-61C602-65 828-63 944-58C947-37 959-4 967 13C843 4 599 2 484 6C365 11 271 43 220 114Z"/><animate attributeName="opacity" values="0;1;1;0;0;0;0" dur="3s" repeatCount="indefinite"/></svg><svg id="U9088sc" viewBox="0 0 1000 1000"><path transform="translate(0, 900) scale(1,-1)" d="M495 843C440 804 337 760 246 729C255 717 264 697 268 684C364 715 473 757 548 801ZM651 548L841 548L841 463L651 463ZM651 682L841 682L841 599L651 599ZM75 787C116 721 161 633 180 579L248 612C228 665 180 750 139 814ZM584 736L584 644L533 675C524 663 513 651 501 639C484 664 460 695 440 720L396 697C418 669 445 631 462 604C447 592 431 579 415 568C394 597 363 637 338 669L293 646C319 614 351 570 370 538C333 515 293 494 252 476C265 465 282 446 291 433C337 454 383 478 425 506C436 492 445 477 453 461C405 417 330 370 271 345C283 334 299 312 306 298C360 327 424 372 472 414C479 393 484 372 488 351C434 290 341 224 265 192C278 180 293 158 301 144C364 177 439 231 496 286C499 216 488 157 469 139C457 124 445 122 426 122C413 122 389 122 365 125C374 108 379 82 380 65C402 64 425 64 440 64C475 64 498 73 520 99C575 158 578 401 470 537C514 569 554 604 584 641L584 409L654 409C648 250 628 151 530 93C544 83 562 61 569 47C682 115 707 231 714 409L767 409L767 164C767 109 771 95 783 83C796 72 815 68 831 68C841 68 864 68 874 68C889 68 906 71 916 78C926 84 935 95 939 113C944 130 946 181 947 223C932 227 912 238 901 248C900 202 899 165 897 149C895 134 892 126 887 123C884 119 876 118 868 118C861 118 851 118 845 118C838 118 834 120 830 123C827 127 826 138 826 156L826 409L910 409L910 736L753 736L788 830L714 842C708 812 697 770 686 736ZM233 501L44 501L44 431L160 431L160 113C120 94 74 48 27-10L81-80C124-11 166 53 195 53C217 53 251 16 293-11C366-57 451-68 583-68C686-68 874-62 946-57C948-34 960 4 970 24C868 14 713 5 586 5C466 5 379 11 311 55C275 78 253 98 233 110Z"/><animate attributeName="opacity" values="0;0;0;1;1;0;0" dur="3s" repeatCount="indefinite"/></svg></svg>