<svg id="U90A9" viewBox="0 0 1000 1000"><path transform="translate(0, 900) scale(1,-1)" d="M113 622C111 538 98 428 74 362L135 338C159 413 172 529 173 615ZM450 655C434 593 401 502 375 446L426 423C454 476 488 559 519 628ZM577 785L577-80L650-80L650 714L845 714C809 637 759 538 713 457C829 364 863 285 863 219C864 181 855 150 831 136C818 129 800 125 783 124C759 122 726 123 690 127C705 105 713 73 714 52C747 50 784 50 813 53C840 57 865 65 883 77C922 102 937 152 937 215C937 287 908 370 794 467C846 556 903 660 949 753L895 788L882 785ZM264 832L264 532C264 341 245 130 52-27C69-39 94-67 105-83C217 8 276 116 306 230C365 159 446 53 481 2L535 62C504 102 376 256 324 313C335 386 338 460 338 532L338 832Z"/></svg>