<svg id="U9171" viewBox="0 0 1000 1000"><path transform="translate(0, 900) scale(1,-1)" d="M88 772C128 731 175 674 197 636L250 672C228 709 180 763 138 802ZM124 299L124-80L192-80L192-38L808-38L808-80L880-80L880 299L619 299L619 351L940 351L940 408L62 408L62 351L373 351L373 299ZM192 9L192 50L808 50L808 9ZM192 94L192 246L369 246C357 212 319 181 207 165C219 153 234 132 241 119C377 146 421 193 430 246L558 246L558 203C558 150 577 139 652 139C667 139 775 139 791 139L808 140L808 94ZM433 351L558 351L558 299L433 299ZM808 184C805 180 800 180 782 180C761 180 673 180 658 180C625 180 619 183 619 203L619 246L808 246ZM604 843C566 771 483 690 402 642C415 631 434 607 445 593C492 623 539 662 580 705L854 705C819 640 767 595 699 563C674 596 632 636 597 666L546 636C579 608 615 571 639 539C571 517 491 504 402 497C414 483 432 453 438 436C685 464 872 533 945 748L905 766L891 764L631 764C645 783 659 802 670 821ZM57 522L85 460C152 490 234 529 314 567L314 437L384 437L384 839L314 839L314 632C218 589 122 548 57 522Z"/></svg>