<svg id="U9182" viewBox="0 0 1000 1000"><svg id="U9182hk" viewBox="0 0 1000 1000"><path transform="translate(0, 900) scale(1,-1)" d="M145 218L145 161L313 161L313 218ZM45 797L45 736L151 736L151 602L64 602L64-77L116-77L116-4L340-4L340-61L394-61L394 130C405 116 416 98 422 84C464 155 501 272 528 392L528-76L590-76L590 411C612 366 636 315 647 288L683 348C670 373 612 475 590 510L590 553L662 553L662 621L590 621L590 829L528 829L528 621L414 621L414 553L511 553C490 414 446 258 394 163L394 602L298 602L298 736L409 736L409 797ZM766 829L766 621L682 621L682 553L755 553C729 400 674 229 613 137C626 122 642 98 650 79C695 149 736 263 766 382L766-75L830-75L830 382C857 278 891 168 931 95C942 110 965 133 979 143C917 242 866 425 839 553L948 553L948 621L830 621L830 829ZM116 56L116 292C124 288 131 281 136 276C189 333 201 414 201 472L201 540L248 540L248 381C248 331 259 322 297 322C303 322 329 322 335 322L340 322L340 56ZM201 602L201 736L248 736L248 602ZM116 313L116 540L163 540L163 473C163 426 155 365 116 313ZM288 540L340 540L340 372C338 371 335 371 327 371C321 371 304 371 299 371C289 371 288 371 288 382Z"/><animate attributeName="opacity" values="1;0;0;1;1" dur="2s" repeatCount="indefinite"/></svg><svg id="U9182jp" viewBox="0 0 1000 1000"><path transform="translate(0, 900) scale(1,-1)" d="M45 797L45 736L151 736L151 602L64 602L64-77L116-77L116-4L340-4L340-61L394-61L394 120C405 105 416 88 423 74C464 142 500 249 528 362L528-78L590-78L590 374C613 339 637 301 649 279L684 342C671 360 618 428 590 461L590 545L662 545L662 612L590 612L590 833L528 833L528 612L414 612L414 545L514 545C492 406 447 249 394 153L394 602L298 602L298 736L409 736L409 797ZM769 833L769 612L682 612L682 545L757 545C731 389 672 216 608 120C620 105 638 82 646 63C694 134 737 248 769 368L769-78L832-78L832 376C856 272 889 160 926 86C937 100 960 124 974 134C916 233 869 418 845 545L946 545L946 612L832 612L832 833ZM116 161L340 161L340 56L116 56ZM116 218L116 292C124 288 131 281 136 276C189 333 201 414 201 472L201 540L248 540L248 383C248 337 260 328 296 328C302 328 329 328 335 328L340 328L340 218ZM201 602L201 736L248 736L248 602ZM116 313L116 540L163 540L163 473C163 426 155 365 116 313ZM288 540L340 540L340 372C338 371 335 371 327 371C321 371 304 371 299 371C289 371 288 372 288 383Z"/><animate attributeName="opacity" values="0;1;1;0;0" dur="2s" repeatCount="indefinite"/></svg></svg>