<svg id="U910F" viewBox="0 0 1000 1000"><svg id="U910Fhk" viewBox="0 0 1000 1000"><path transform="translate(0, 900) scale(1,-1)" d="M174 124C210 85 247 31 261-5L313 29C297 64 259 116 223 153ZM661 795L661-78L725-78L725 724L878 724C852 645 815 540 779 455C865 363 890 287 890 225C890 189 885 155 865 143C854 137 841 133 826 133C808 131 782 132 755 134C767 115 773 87 774 68C800 67 830 67 853 70C875 72 895 79 911 90C942 113 954 160 954 218C954 288 933 368 846 462C887 558 932 674 965 767L918 798L907 795ZM549 499C532 478 503 449 478 426L373 487L340 446C421 399 529 332 583 290L618 338C593 356 557 379 519 402C542 421 568 443 591 465ZM455 309L455 229L72 229L72 165L455 165L455-8C455-19 451-22 440-22C429-23 392-23 351-22C359-38 368-62 371-79C429-79 465-79 489-69C514-59 520-43 520-10L520 165L631 165L631 229L520 229L520 309ZM230 269C243 279 266 289 395 330C392 343 391 368 391 385L289 357L289 511L620 511L620 565L172 565L173 618L173 622L573 622L573 676L173 676L173 739L614 739L614 799L109 799L109 619C109 520 100 386 29 287C44 280 71 258 82 246C136 321 159 420 168 511L231 511L231 378C231 342 218 332 205 326C215 312 226 284 230 269Z"/><animate attributeName="opacity" values="1;0;0;0;0;1;1" dur="3s" repeatCount="indefinite"/></svg><svg id="U910Fsc" viewBox="0 0 1000 1000"><path transform="translate(0, 900) scale(1,-1)" d="M228 676L228 622L574 622L574 676ZM222 127C257 90 292 37 307 3L357 36C342 70 305 121 271 157ZM661 795L661-78L725-78L725 724L879 724C851 645 814 539 778 455C865 364 891 289 891 227C891 191 885 158 865 147C855 140 841 136 826 136C808 135 782 135 755 138C766 117 773 88 774 68C800 66 830 66 853 69C874 72 894 78 910 90C940 113 953 161 953 220C953 290 932 370 844 464C885 558 929 672 964 765L917 798L907 795ZM559 502C542 481 513 452 488 429L381 490L349 449C430 402 539 333 594 293L627 341C602 359 566 382 528 405C552 424 577 446 600 468ZM454 309L454 229L188 229L188 170L454 170L454-8C454-19 450-22 439-22C428-23 391-23 350-22C359-38 367-60 369-76C427-76 462-76 485-67C508-58 514-42 514-10L514 170L624 170L624 229L514 229L514 309ZM241 271C254 282 278 293 407 334C404 347 403 372 403 389L300 360L300 511L620 511L620 565L173 565L173 739L614 739L614 799L109 799L109 507C109 350 102 128 20-31C35-38 63-58 75-70C161 96 173 343 173 507L173 511L243 511L243 381C243 345 229 335 217 329C226 315 237 287 241 272Z"/><animate attributeName="opacity" values="0;1;1;0;0;0;0" dur="3s" repeatCount="indefinite"/></svg><svg id="U910Ftc" viewBox="0 0 1000 1000"><path transform="translate(0, 900) scale(1,-1)" d="M222 127C257 90 292 37 307 3L357 36C342 70 305 121 271 157ZM661 795L661-78L725-78L725 724L879 724C851 645 814 539 778 455C865 364 891 289 891 227C891 191 885 158 865 147C855 140 841 136 826 136C808 135 782 135 755 138C766 117 773 88 774 68C800 66 830 66 853 69C874 72 894 78 910 90C940 113 953 161 953 220C953 290 932 370 844 464C885 558 929 672 964 765L917 798L907 795ZM559 502C542 481 513 452 488 429L381 490L349 449C430 402 539 333 594 293L627 341C602 359 566 382 528 405C552 424 577 446 600 468ZM454 309L454 229L188 229L188 170L454 170L454-8C454-19 450-22 439-22C428-23 391-23 350-22C359-38 367-60 369-76C427-76 462-76 485-67C508-58 514-42 514-10L514 170L624 170L624 229L514 229L514 309ZM241 271C254 282 278 293 407 334C404 347 403 372 403 389L300 360L300 511L620 511L620 565L173 565L173 622L574 622L574 676L173 676L173 739L614 739L614 799L109 799L109 507C109 350 102 128 20-31C35-38 63-58 75-70C161 96 173 343 173 507L173 511L243 511L243 381C243 345 229 335 217 329C226 315 237 287 241 272Z"/><animate attributeName="opacity" values="0;0;0;1;1;0;0" dur="3s" repeatCount="indefinite"/></svg></svg>