<svg id="U91D3" viewBox="0 0 1000 1000"><svg id="U91D3hk" viewBox="0 0 1000 1000"><path transform="translate(0, 900) scale(1,-1)" d="M563 827L563 74C563-32 589-62 681-62C700-62 813-62 833-62C929-62 948 3 957 191C936 196 905 210 886 226C881 53 874 9 828 9C803 9 710 9 690 9C648 9 639 19 639 72L639 827ZM103 279C122 220 140 143 144 92L203 108C197 157 179 234 158 292ZM401 304C391 250 369 170 351 120L401 104C420 151 444 225 463 286ZM281 846C230 748 139 655 53 596C65 578 83 537 88 521C106 534 125 549 143 565L143 521L251 521L251 411L82 411L82 346L251 346L251 49L69 22L88-46C193-28 340-3 479 22L476 83L320 59L320 346L471 346L471 411L320 411L320 521L438 521L438 585L165 585C208 626 249 673 285 722C352 679 423 627 466 586L504 647C460 686 391 735 322 777L347 820Z"/><animate attributeName="opacity" values="1;0;0;1;1" dur="2s" repeatCount="indefinite"/></svg><svg id="U91D3jp" viewBox="0 0 1000 1000"><path transform="translate(0, 900) scale(1,-1)" d="M559 829L559 74C559-30 585-59 677-59C696-59 814-59 834-59C927-59 946 2 955 177C934 182 904 196 886 211C881 51 874 11 829 11C804 11 705 11 685 11C641 11 634 20 634 73L634 829ZM87 281C107 221 124 145 129 94L188 110C182 160 164 236 143 295ZM401 304C390 250 367 169 348 120L402 104C422 151 444 225 464 287ZM234 840C195 755 123 648 21 568C36 558 59 534 70 519C89 535 108 552 125 569L125 523L239 523L239 415L65 415L65 348L239 348L239 47L48 17L66-53C184-33 348-3 502 25L498 91L310 59L310 348L483 348L483 415L310 415L310 523L435 523L435 588L144 588C202 649 246 714 279 770C345 715 418 636 455 586L507 644C463 700 375 782 302 840Z"/><animate attributeName="opacity" values="0;1;1;0;0" dur="2s" repeatCount="indefinite"/></svg></svg>