<svg id="U9239" viewBox="0 0 1000 1000"><svg id="U9239hk" viewBox="0 0 1000 1000"><path transform="translate(0, 900) scale(1,-1)" d="M79 279C96 220 112 143 117 92L168 108C162 157 146 234 128 292ZM343 304C334 253 314 177 299 130L342 114C359 159 381 228 398 286ZM237 846C192 748 111 655 34 596C44 578 61 537 66 521C82 534 98 549 114 565L114 521L211 521L211 411L60 411L60 346L211 346L211 62L49 22L67-45C156-21 278 14 392 48L387 107L272 78L272 346L412 346L412 411L272 411L272 521L378 521L378 585L133 585C171 626 208 673 240 723C300 679 363 627 401 586L435 647C395 686 334 735 273 777L295 820ZM451 685L451 428C451 287 441 95 347-42C363-49 392-68 403-79C487 42 511 215 516 356C551 262 598 180 657 110C597 52 528 8 457-20C472-34 491-61 499-78C572-46 642 0 703 60C764 1 835-46 916-79C927-60 948-32 964-18C883 11 812 55 751 111C823 196 880 304 911 435L868 452L854 449L719 449L719 618L869 618C858 572 845 525 833 493L892 478C913 528 935 607 952 676L904 688L892 685L719 685L719 840L651 840L651 685ZM651 618L651 449L517 449L517 618ZM828 383C800 298 757 223 704 160C649 224 605 300 574 383Z"/><animate attributeName="opacity" values="1;0;0;1;1" dur="2s" repeatCount="indefinite"/></svg><svg id="U9239jp" viewBox="0 0 1000 1000"><path transform="translate(0, 900) scale(1,-1)" d="M77 290C97 229 112 151 114 99L170 113C166 164 150 241 129 302ZM355 311C347 258 328 179 313 131L362 116C379 163 397 235 414 296ZM208 840C175 760 110 658 20 582C34 572 56 549 67 534C81 547 95 560 108 573L108 529L211 529L211 421L55 421L55 355L211 355L211 52L45 20L61-49C156-29 279-1 401 27C390 2 378-22 363-45C380-52 410-69 423-81C506 50 529 233 534 380L540 380C572 279 616 190 672 114C614 53 547 6 478-24C494-38 514-65 523-83C593-49 660-2 719 59C775-1 843-50 921-83C932-63 955-34 972-20C893 9 824 56 767 115C834 200 887 305 917 431L870 449L857 446L729 446L729 630L867 630C856 584 843 536 830 503L892 488C913 539 936 620 954 688L903 700L892 698L729 698L729 839L659 839L659 698L466 698L466 450C466 345 461 209 423 87L422 96L278 65L278 355L421 355L421 421L278 421L278 529L395 529L395 594L127 594C182 654 223 718 253 772C306 721 365 647 394 601L445 658C410 709 337 786 278 840ZM535 630L659 630L659 446L535 446L535 449ZM829 380C804 302 766 231 720 170C674 231 637 302 611 380Z"/><animate attributeName="opacity" values="0;1;1;0;0" dur="2s" repeatCount="indefinite"/></svg></svg>