<svg id="U9209" viewBox="0 0 1000 1000"><svg id="U9209hk" viewBox="0 0 1000 1000"><path transform="translate(0, 900) scale(1,-1)" d="M76 279C94 220 110 143 114 92L168 107C163 157 147 233 128 292ZM340 304C330 250 310 170 293 120L340 105C358 152 379 225 397 287ZM865 549L865 213C794 283 753 400 731 549ZM531 812L531 744L650 744C652 701 655 659 659 619L440 619L440-81L507-81L507 185C521 172 536 153 543 138C612 198 659 305 687 431C714 310 757 212 823 145C832 161 850 184 865 198L865 7C865-7 860-11 846-12C832-13 786-13 736-11C746-30 756-61 758-80C826-80 870-79 898-67C926-56 933-34 933 6L933 619L722 619C715 679 711 744 709 812ZM507 201L507 549L649 549C626 396 582 267 507 201ZM230 842C185 746 108 654 29 594C41 578 59 541 65 527C81 540 96 555 112 570L112 521L206 521L206 410L57 410L57 345L206 345L206 53L46 22L64-45C160-25 288 5 411 34L406 94L272 66L272 345L394 345L394 410L272 410L272 521L368 521L368 585L127 585C166 626 204 673 236 723C291 680 349 628 385 588L425 643C388 682 328 733 269 775L293 821Z"/><animate attributeName="opacity" values="1;0;0;0;0;1;1" dur="3s" repeatCount="indefinite"/></svg><svg id="U9209jp" viewBox="0 0 1000 1000"><path transform="translate(0, 900) scale(1,-1)" d="M70 290C90 229 106 151 108 99L162 113C158 164 141 242 121 302ZM335 312C328 260 310 180 295 132L344 119C359 165 377 238 392 298ZM865 549L865 213C794 283 753 400 731 549ZM494 812L494 744L650 744C652 701 655 659 659 619L439 619L439-81L507-81L507 178C519 166 530 151 536 138C608 201 656 316 683 452C709 321 753 215 823 145C832 161 850 184 865 198L865 7C865-7 860-11 846-12C832-13 786-13 736-11C746-30 756-61 758-80C826-80 870-79 898-67C926-56 933-34 933 6L933 619L722 619C715 679 711 744 709 812ZM507 206L507 549L640 549C619 400 577 274 507 206ZM202 840C168 759 106 657 17 580C33 570 54 548 65 533L102 569L102 528L201 528L201 421L51 421L51 355L201 355L201 48L41 18L58-50C157-30 287-1 412 26L407 89L267 61L267 355L393 355L393 421L267 421L267 528L374 528L374 592L123 592C176 652 216 716 245 770C297 718 352 647 380 601L435 655C400 706 329 784 270 840Z"/><animate attributeName="opacity" values="0;1;1;0;0;0;0" dur="3s" repeatCount="indefinite"/></svg><svg id="U9209sc" viewBox="0 0 1000 1000"><path transform="translate(0, 900) scale(1,-1)" d="M76 279C93 220 109 143 113 92L164 108C159 157 143 234 125 292ZM340 304C331 250 312 170 296 120L340 104C357 151 378 225 395 286ZM650 839L650 706L648 619L439 619L439-79L509-79L509 169C527 159 551 142 563 130C619 201 656 279 679 357C722 277 762 192 784 135L847 170C819 240 757 359 702 452C707 485 711 518 714 550L849 550L849 18C849 4 844 0 830-1C814-1 763-1 709 1C720-20 729-53 732-73C806-73 853-72 882-59C911-47 920-24 920 18L920 619L718 619L720 705L720 839ZM509 176L509 550L644 550C632 426 599 292 509 176ZM234 846C188 748 108 655 31 596C42 578 58 537 63 521C79 534 95 549 111 565L111 521L208 521L208 411L57 411L57 346L208 346L208 55L46 22L62-46C156-24 285 6 407 36L403 96L268 68L268 346L404 346L404 411L268 411L268 521L374 521L374 585L130 585C168 626 205 673 237 723C297 679 360 627 398 586L432 647C393 686 332 735 270 777L292 820Z"/><animate attributeName="opacity" values="0;0;0;1;1;0;0" dur="3s" repeatCount="indefinite"/></svg></svg>