<svg id="U9250" viewBox="0 0 1000 1000"><svg id="U9250hk" viewBox="0 0 1000 1000"><path transform="translate(0, 900) scale(1,-1)" d="M81 279C100 220 117 143 121 92L178 108C172 157 154 234 134 292ZM255 846C204 748 117 655 31 596C43 578 61 537 66 521C84 535 102 550 120 566L120 521L226 521L226 411L60 411L60 346L226 346L226 55L47 22L65-46C167-24 307 5 439 34L434 95L293 68L293 346L435 346L435 411L293 411L293 521L396 521L396 585L140 585C182 626 223 673 258 723C325 680 393 627 435 586L472 647C430 686 361 736 294 778L318 820ZM441 775L441 704L610 704C573 512 510 337 413 224L433 286L372 304C362 250 340 170 323 120L371 104C383 134 396 174 410 215C427 200 455 173 465 159C490 189 512 221 533 257L533-86L604-86L604-33L843-33L843-81L916-81L916 419L609 419C642 506 668 603 689 704L951 704L951 775ZM604 38L604 349L843 349L843 38Z"/><animate attributeName="opacity" values="1;0;0;1;1" dur="2s" repeatCount="indefinite"/></svg><svg id="U9250jp" viewBox="0 0 1000 1000"><path transform="translate(0, 900) scale(1,-1)" d="M78 281C96 222 114 146 118 96L176 111C170 160 153 237 132 295ZM377 303C367 250 344 173 326 125L379 110C391 140 405 180 419 220C436 206 461 176 472 162C502 198 530 239 554 284L554-78L625-78L625-19L847-19L847-71L919-71L919 429L619 429C650 514 675 607 694 706L951 706L951 779L452 779L452 706L615 706C580 516 520 346 423 233L440 286ZM847 52L625 52L625 358L847 358ZM220 840C185 757 119 652 25 572C41 562 63 539 74 524L114 562L114 523L223 523L223 415L56 415L56 348L223 348L223 49L39 17L57-52C167-32 317-2 458 26L454 92L291 61L291 348L444 348L444 415L291 415L291 523L407 523L407 588L138 588C194 650 235 715 265 770C325 715 390 638 422 589L475 643C436 699 355 782 289 840Z"/><animate attributeName="opacity" values="0;1;1;0;0" dur="2s" repeatCount="indefinite"/></svg></svg>