<svg id="U92A8" viewBox="0 0 1000 1000"><svg id="U92A8hk" viewBox="0 0 1000 1000"><path transform="translate(0, 900) scale(1,-1)" d="M75 279C91 220 106 143 109 92L160 106C156 157 141 232 123 292ZM328 304C319 250 300 170 284 120L330 105C347 153 367 226 385 288ZM226 846C182 749 107 656 30 595C41 580 60 544 65 529C79 541 93 554 107 568L107 521L200 521L200 411L56 411L56 346L200 346L200 55L43 22L61-45C153-24 277 6 394 35L388 95L262 68L262 346L392 346L392 411L262 411L262 521L363 521L363 585L124 585C162 625 199 672 231 722C287 679 347 627 384 587L417 645C381 683 322 733 262 774L288 825ZM626 830C639 794 653 751 663 713L426 713L426 526L493 526L493 646L871 646L871 527L940 527L940 713L740 713C730 753 713 802 696 843ZM793 370C773 284 743 214 699 158C650 186 601 214 555 238C573 277 593 323 611 370ZM465 211C523 180 587 144 649 106C588 52 508 14 404-13C417-29 435-61 440-78C555-43 644 3 711 67C784 20 850-27 893-65L939-3C895 33 831 77 760 121C810 187 844 268 867 370L962 370L962 438L881 438L889 497L814 502L806 438L637 438C657 491 674 545 688 594L618 603C605 552 586 495 565 438L410 438L410 370L539 370C514 310 488 254 465 211Z"/><animate attributeName="opacity" values="1;0;0;0;0;1;1" dur="3s" repeatCount="indefinite"/></svg><svg id="U92A8jp" viewBox="0 0 1000 1000"><path transform="translate(0, 900) scale(1,-1)" d="M69 290C88 229 103 151 105 99L158 113C155 164 139 241 119 302ZM330 312C323 259 307 178 293 130L342 116C356 163 372 237 387 298ZM426 706L426 524L493 524L493 640L873 640L873 525L942 525L942 706L714 706L714 840L642 840L642 706ZM418 441L418 373L540 373C511 287 482 205 458 145L523 118L539 161C576 143 615 123 652 101C590 43 504 4 390-21C403-36 422-67 427-84C551-51 645-5 714 64C791 16 860-36 904-80L951-22C906 22 837 72 760 118C807 184 838 267 855 373L961 373L961 441L635 441L682 595L612 606C598 556 580 499 562 441ZM613 373L781 373C767 282 740 210 698 153C653 178 606 202 561 222ZM195 840C164 760 104 657 19 580C34 570 56 548 67 533L102 569L102 528L198 528L198 421L56 421L56 355L198 355L198 47L43 18L60-50C157-30 286-2 410 25L404 88L263 60L263 355L395 355L395 421L263 421L263 528L374 528L374 592L123 592C173 652 211 716 239 770C288 718 340 647 367 603L422 655C390 707 321 784 264 840Z"/><animate attributeName="opacity" values="0;1;1;0;0;0;0" dur="3s" repeatCount="indefinite"/></svg><svg id="U92A8sc" viewBox="0 0 1000 1000"><path transform="translate(0, 900) scale(1,-1)" d="M74 279C91 220 106 143 110 92L160 108C154 157 140 234 121 292ZM329 304C320 250 301 170 286 120L329 104C346 151 365 225 383 286ZM227 846C183 748 106 655 30 596C41 578 57 537 61 521C77 534 92 549 108 565L108 521L201 521L201 411L57 411L57 346L201 346L201 55L46 22L61-46C152-24 277 6 394 36L391 96L261 68L261 346L392 346L392 411L261 411L261 521L362 521L362 585L126 585C163 626 199 673 230 722C288 679 348 627 385 586L418 647C381 686 321 735 262 777L283 820ZM616 821C634 787 656 743 668 713L426 713L426 526L492 526L492 646L871 646L871 527L940 527L940 713L684 713L740 733C729 763 705 807 684 842ZM786 370C770 282 743 212 702 157C653 186 602 214 555 239C572 279 591 324 609 370ZM622 607C606 558 585 498 563 438L411 438L411 370L537 370C513 310 489 253 466 210L476 205L516 184L526 179C569 156 613 130 655 103C594 47 513 9 408-16C419-31 436-63 441-80C556-47 646-1 713 66C784 19 847-29 888-69L938-10C895 29 831 76 760 121C807 186 839 267 858 370L962 370L962 438L636 438L697 593Z"/><animate attributeName="opacity" values="0;0;0;1;1;0;0" dur="3s" repeatCount="indefinite"/></svg></svg>