<svg id="U934A" viewBox="0 0 1000 1000"><svg id="U934Ahk" viewBox="0 0 1000 1000"><path transform="translate(0, 900) scale(1,-1)" d="M539 485C561 442 581 384 587 347L630 360C623 398 602 454 580 496ZM778 501C767 460 743 396 725 358L763 343C782 380 805 437 825 486ZM76 279C93 220 109 143 112 92L164 108C158 157 143 234 124 292ZM330 304C321 250 301 170 285 120L330 104C347 151 368 225 386 286ZM234 846C188 748 108 655 31 596C41 578 58 537 62 521C78 534 95 549 111 566L111 521L202 521L202 411L57 411L57 346L202 346L202 53L46 22L62-46L372 27C389 12 406-13 416-31C498 22 583 115 640 209L640-82L708-82L708 222C768 127 853 29 924-27C935-9 958 16 975 30C900 79 812 171 755 260L919 260L919 586L708 586L708 667L940 667L940 734L708 734L708 837L640 837L640 734L430 734L430 667L640 667L640 586L445 586L445 260L598 260C550 176 473 94 397 44L394 94L262 66L262 346L393 346L393 411L262 411L262 521L364 521L364 585L130 585C168 626 205 673 237 722C292 681 352 630 387 591L421 653C386 690 328 737 270 777L292 820ZM505 524L644 524L644 321L505 321ZM704 524L855 524L855 321L704 321Z"/><animate attributeName="opacity" values="1;0;0;1;1" dur="2s" repeatCount="indefinite"/></svg><svg id="U934Ajp" viewBox="0 0 1000 1000"><path transform="translate(0, 900) scale(1,-1)" d="M541 482C561 438 577 380 582 342L625 355C620 393 602 450 582 494ZM791 499C780 457 756 394 737 356L777 341C796 378 818 434 838 483ZM77 290C97 229 112 151 114 99L170 113C166 164 150 241 129 302ZM355 311C347 258 328 179 313 131L362 116C379 163 397 235 414 296ZM448 584L448 259L610 259C569 179 503 101 433 48L429 95L278 64L278 355L421 355L421 421L278 421L278 528L390 528L390 592L126 592C181 653 222 716 252 771C305 720 363 647 392 601L443 658L431 675L650 675L650 584ZM208 840C175 760 110 658 20 582C34 572 56 549 67 534C81 547 95 560 108 573L108 528L211 528L211 421L55 421L55 355L211 355L211 51L45 20L61-49C154-30 277-4 397 24L373 10C389-4 412-30 423-48C509 6 593 100 650 205L650-80L720-80L720 210C773 113 850 15 920-40C933-22 956 3 973 17C897 68 811 165 760 259L930 259L930 584L720 584L720 675L948 675L948 741L720 741L720 840L650 840L650 741L429 741L429 677C391 727 328 792 276 840ZM509 526L658 526L658 317L509 317ZM712 526L866 526L866 317L712 317Z"/><animate attributeName="opacity" values="0;1;1;0;0" dur="2s" repeatCount="indefinite"/></svg></svg>