<svg id="U93D7" viewBox="0 0 1000 1000"><svg id="U93D7hk" viewBox="0 0 1000 1000"><path transform="translate(0, 900) scale(1,-1)" d="M77 279C91 220 105 143 108 92L155 109C150 158 136 235 121 294ZM319 304C311 250 295 170 281 120L321 103C336 149 353 222 369 285ZM218 846C177 747 106 655 39 596C47 578 61 537 66 520C83 536 99 554 116 574L116 521L197 521L197 411L59 411L59 346L197 346L197 55L58 22L72-46C155-24 269 8 377 38L374 99L251 68L251 346L363 346L363 411L251 411L251 521L339 521L339 585L125 585C159 626 191 674 220 724C271 681 325 627 357 586L386 648C354 687 301 738 248 780L266 819ZM528 645L451 645L451 741L528 741ZM647 801L388 801L388 305L661 305L661 364L586 364L586 460L656 460L656 645L586 645L586 741L647 741ZM528 460L528 364L451 364L451 460ZM451 593L595 593L595 512L451 512ZM878 721C864 651 843 586 817 530C787 588 762 654 745 721ZM666 783L666 721L690 721C712 630 744 542 783 467C751 415 714 373 673 346C686 334 702 310 710 293C750 322 786 360 818 408C849 361 884 322 922 293C932 311 952 336 967 348C925 376 887 418 854 467C897 550 929 654 946 776L909 785L897 783ZM620 285L620 202L407 202L407 138L620 138L620 9L356 9L356-54L962-54L962 9L690 9L690 138L906 138L906 202L690 202L690 285Z"/><animate attributeName="opacity" values="1;0;0;1;1" dur="2s" repeatCount="indefinite"/></svg><svg id="U93D7jp" viewBox="0 0 1000 1000"><path transform="translate(0, 900) scale(1,-1)" d="M70 291C88 230 102 152 103 100L157 113C154 164 139 242 121 302ZM328 312C320 261 303 180 289 132L338 118C353 166 369 237 385 298ZM483 614L621 614L621 531L483 531ZM483 479L547 479L547 402L483 402ZM483 667L483 739L547 739L547 667ZM640 304L640 203L450 203L450 139L640 139L640 10L383 10L383-54L961-54L961 10L711 10L711 139L910 139L910 203L711 203L711 304L698 304C740 332 779 367 812 410C844 358 883 315 931 284C940 302 961 326 975 339C924 367 883 411 850 466C899 547 933 652 951 783L912 793L901 791L700 791L700 732L751 732L709 724C724 631 747 545 780 472C754 434 724 402 692 377L692 402L601 402L601 479L680 479L680 667L601 667L601 739L680 739L680 797L423 797L423 297L483 297L483 345L646 345L629 336C637 328 648 316 656 304ZM881 732C867 656 845 590 816 534C791 593 773 660 761 732ZM197 840C165 759 104 657 17 580C32 570 53 548 64 533L98 566L98 527L196 527L196 423L52 423L52 357L196 357L196 48L40 18L57-50C152-30 280-3 401 22L395 87L259 60L259 357L382 357L382 423L259 423L259 527L364 527L364 591L120 591C173 651 212 715 240 769C288 717 340 645 366 600L420 655C388 707 321 784 264 840Z"/><animate attributeName="opacity" values="0;1;1;0;0" dur="2s" repeatCount="indefinite"/></svg></svg>