<svg id="U94A6" viewBox="0 0 1000 1000"><path transform="translate(0, 900) scale(1,-1)" d="M179 837C148 744 93 654 32 595C45 579 65 541 71 525C106 560 140 605 169 654L438 654L438 725L208 725C223 755 236 787 247 818ZM62 344L62 275L214 275L214 75C214 35 185 11 167 2C180-16 195-49 201-68C218-51 246-34 440 67C435 82 430 112 428 132L285 61L285 275L438 275L438 344L285 344L285 479L416 479L416 547L107 547L107 479L214 479L214 344ZM575 832C551 691 507 556 439 469C454 456 482 427 492 413C531 464 563 530 590 603L870 603C854 539 831 470 809 424L869 404C902 468 935 571 959 660L908 675L895 672L612 672C626 719 638 769 648 819ZM648 533L648 476C648 345 627 129 409-37C428-49 454-68 466-83C591 13 655 126 687 233C738 100 811-14 904-78C914-60 937-35 953-21C842 49 757 203 712 363C717 404 718 441 718 475L718 533Z"/></svg>