<svg id="U943E" viewBox="0 0 1000 1000"><path transform="translate(0, 900) scale(1,-1)" d="M224 523L394 523L394 443L224 443ZM802 715C794 690 779 653 765 626L636 626L657 632C652 654 635 689 618 713L563 700C576 677 590 648 597 626L475 626L475 571L678 571L678 506L500 506L500 452L678 452L678 365L748 365L748 452L931 452L931 506L748 506L748 571L952 571L952 626L827 626L865 701ZM660 829C669 811 677 789 683 769L501 769L501 715L932 715L932 769L759 769C752 793 740 822 728 845ZM103 803L103 654C103 582 95 491 35 422C50 415 77 394 89 382C149 449 165 548 168 629L441 629L441 803ZM168 753L375 753L375 680L168 680ZM79-3L79-55L923-55L923-3L697-3C714 24 732 55 749 86L686 104C674 74 650 29 629-3L536-3L536 111L822 111L822 164L536 164L536 224L695 224L695 269C772 243 851 223 931 206C940 227 957 250 972 266C822 291 669 324 545 391L571 411L513 443C496 429 476 416 455 403L455 573L165 573L165 392L436 392C327 331 174 285 33 259C48 243 64 218 72 200C148 216 227 238 301 265L301 224L463 224L463 164L159 164L159 111L463 111L463-3L372-3C361 28 337 72 314 105L253 87C270 61 288 26 300-3ZM330 276C391 300 448 327 497 358C554 325 613 298 675 276Z"/></svg>