<svg id="U94EF" viewBox="0 0 1000 1000"><path transform="translate(0, 900) scale(1,-1)" d="M665 492L665 308L536 308L536 492ZM731 492L857 492L857 308L731 308ZM762 674C743 633 717 589 693 558L505 558C532 593 558 632 581 674ZM60 344L60 275L205 275L205 73C205 26 171-4 152-17C165-30 184-57 192-73C208-57 236-41 425 59C419 74 413 103 411 122L277 56L277 275L422 275L422 344L277 344L277 479L398 479L398 537C415 525 439 505 451 493L467 511L467 57C467-39 499-63 607-63C631-63 811-63 836-63C933-63 955-24 966 107C946 111 917 123 900 136C894 26 885 4 833 4C795 4 640 4 610 4C548 4 536 13 536 57L536 243L928 243L928 558L770 558C803 604 837 661 862 712L815 744L801 740L616 740C631 770 644 801 656 832L586 851C544 736 475 622 398 547L112 547L112 479L205 479L205 344ZM180 837C150 744 96 654 36 595C48 579 68 541 75 525C110 561 143 606 173 656L426 656L426 725L210 725C224 755 237 787 248 818Z"/></svg>