<svg id="U9497" viewBox="0 0 1000 1000"><path transform="translate(0, 900) scale(1,-1)" d="M608 615C647 558 688 480 704 432L762 462C744 509 701 584 662 640ZM859 686C829 509 772 362 696 245C620 370 566 521 531 686ZM437 757L437 686L475 686L464 684C505 492 565 321 651 183C577 90 488 21 391-22C407-36 427-64 437-82C533-35 620 31 694 120C756 38 829-29 916-77C928-59 950-32 967-18C877 28 802 96 740 180C837 320 906 506 938 746L892 760L879 757ZM182 840C150 746 96 657 34 598C47 582 67 545 73 530C106 564 139 607 168 654L409 654L409 723L206 723C221 755 235 788 247 821ZM58 343L58 274L205 274L205 62C205 22 174-2 154-11C167-28 183-59 189-77C205-60 232-43 411 57C406 72 398 101 395 121L273 57L273 274L421 274L421 343L273 343L273 479L393 479L393 547L106 547L106 479L205 479L205 343Z"/></svg>