<svg id="U9534" viewBox="0 0 1000 1000"><path transform="translate(0, 900) scale(1,-1)" d="M181 838C148 746 92 657 29 598C41 582 61 544 68 528C104 563 139 608 170 658L410 658L410 726L209 726C224 756 237 787 249 818ZM55 344L55 275L200 275L200 62C200 18 169-8 152-20C164-32 180-60 186-76C201-60 230-44 405 49C400 64 394 94 392 114L268 52L268 275L406 275L406 344L268 344L268 479L380 479L380 547L104 547L104 479L200 479L200 344ZM445 385C463 397 490 408 671 452C668 467 666 495 665 514L520 484L520 637L661 637L661 699L520 699L520 834L452 834L452 513C452 472 429 452 414 444C424 430 440 402 445 385ZM902 755C868 731 815 697 767 671L767 835L700 835L700 500C700 430 717 411 786 411C799 411 867 411 882 411C937 411 955 438 962 534C943 538 916 549 901 560C899 485 896 472 875 472C861 472 805 472 795 472C771 472 767 476 767 500L767 614C822 637 895 672 952 707ZM473 326L473-80L544-80L544-37L829-37L829-76L901-76L901 326L680 326L719 405L639 423C633 395 621 358 609 326ZM544 116L829 116L829 24L544 24ZM544 174L544 264L829 264L829 174Z"/></svg>