<svg id="U95DC" viewBox="0 0 1000 1000"><svg id="U95DChk" viewBox="0 0 1000 1000"><path transform="translate(0, 900) scale(1,-1)" d="M239 210C253 216 277 221 435 236L448 204L410 204L410 116L409 96L315 96L315 190L263 190L263 48L397 48C382 18 350-9 285-29C298-40 315-60 321-74C447-30 465 39 465 114L465 204L454 204L491 220C480 247 456 293 436 329L396 316L417 276L317 268C368 306 420 354 467 406L424 435C411 418 396 400 380 384L305 381C332 406 360 438 384 472L349 490L454 490L454 797L87 797L87-81L159-81L159 490L331 490C308 448 270 408 260 398C248 388 238 382 227 380C234 367 241 340 244 329C253 333 270 336 338 341C311 316 287 296 277 289C256 272 238 262 223 260C229 247 237 222 239 211ZM683 189L683 96L586 96L586 204L530 204L530-65L586-65L586 48L683 48L683 17L735 17L735 189ZM383 617L383 545L159 545L159 617ZM383 668L159 668L159 742L383 742ZM846 617L846 545L615 545L615 617ZM846 668L615 668L615 742L846 742ZM513 210C527 216 551 221 709 236L725 201L766 220C754 247 729 294 708 329L669 315L690 275L591 267C643 306 695 354 742 407L699 436C685 418 670 401 655 384L580 381C606 405 634 437 658 471L621 490L846 490L846 15C846 1 842-3 829-4C816-4 774-4 729-3C740-23 749-57 753-77C815-77 858-76 884-64C911-51 919-28 919 15L919 797L543 797L543 490L606 490C582 448 544 408 533 397C523 387 512 381 500 380C507 366 515 339 518 328C528 332 544 335 612 340C585 315 562 296 551 288C531 272 513 261 498 260C503 246 511 221 513 210Z"/><animate attributeName="opacity" values="1;0;0;1;1" dur="2s" repeatCount="indefinite"/></svg><svg id="U95DCjp" viewBox="0 0 1000 1000"><path transform="translate(0, 900) scale(1,-1)" d="M87 797L87-81L159-81L159 490L351 490C336 466 314 436 295 412L267 433L236 403C270 378 309 342 331 313L288 269L224 266L230 218L448 233L458 205L500 221C492 252 467 297 441 330L400 316C409 304 418 290 426 277L343 272C386 312 434 364 472 409L428 430C411 406 387 376 361 347C352 359 339 373 325 386C350 411 378 446 403 479L377 490L454 490L454 797ZM683 190L683 96L585 96L585 204L530 204L530-62L585-62L585 48L734 48L734 190ZM883 797L543 797L543 490L598 490C583 466 562 435 542 411L512 434L480 405C514 379 553 342 576 312C559 296 543 281 528 268L492 266L503 219C568 224 644 227 723 234C729 222 733 211 736 201L779 218C769 251 741 300 712 335L670 322C680 308 690 293 700 277L588 271C633 311 682 362 722 406L677 427C659 404 635 375 609 347C599 358 586 371 573 384C598 411 628 447 654 481L633 490L846 490L846 15C846 1 842-3 829-4C816-4 774-4 729-3C740-23 749-57 753-77C815-77 858-76 884-64C911-51 919-28 919 15L919 797ZM410 204L410 116L409 96L315 96L315 190L263 190L263 48L397 48C382 18 350-9 285-29C297-40 314-60 321-74C446-29 464 40 464 114L464 204ZM383 617L383 545L159 545L159 617ZM383 668L159 668L159 742L383 742ZM846 617L846 545L615 545L615 617ZM846 668L615 668L615 742L846 742Z"/><animate attributeName="opacity" values="0;1;1;0;0" dur="2s" repeatCount="indefinite"/></svg></svg>