<svg id="U95D7" viewBox="0 0 1000 1000"><path transform="translate(0, 900) scale(1,-1)" d="M525 131C547 93 568 42 577 8L627 28C618 60 595 111 573 148ZM276 150C261 100 234 52 199 16C213 9 239-5 250-13C283 24 314 82 333 137ZM382 125C401 86 418 33 424-1L475 16C469 49 450 101 430 140ZM664 144C692 107 722 55 734 21L783 43C769 77 740 127 711 164ZM380 649L380 594L166 594L166 649ZM380 697L166 697L166 751L380 751ZM837 649L837 594L616 594L616 649ZM837 697L616 697L616 751L837 751ZM878 805L544 805L544 539L837 539L837 6C837-6 834-9 821-10C810-10 774-11 737-9C746-27 755-55 758-73C813-73 855-72 878-61C903-49 911-31 911 7L911 805ZM93 805L93-79L166-79L166 539L451 539L451 805ZM236 176C251 183 279 187 437 199C442 185 445 171 447 159L497 177C490 213 469 270 446 313L399 299C407 282 416 262 423 242L312 236C374 294 434 367 484 440L429 467C415 441 397 415 380 391L295 387C325 422 356 466 379 510L322 534C300 478 257 419 244 404C232 389 221 380 208 377C215 365 225 341 228 331C240 335 260 339 346 345C315 307 288 277 275 266C251 241 233 227 215 224C223 211 233 187 236 176ZM525 173C541 180 568 185 739 203C745 187 749 172 751 160L801 178C793 216 768 276 742 321L696 306C706 288 715 266 724 245L603 234C664 292 723 365 772 438L717 464C703 438 685 412 668 388L584 384C614 419 645 464 668 508L610 530C589 474 545 414 532 400C520 385 509 376 496 374C503 361 513 338 516 328C529 332 548 336 634 342C603 304 576 274 563 263C540 238 522 224 504 221C512 208 522 184 525 173Z"/></svg>