<svg id="U9540" viewBox="0 0 1000 1000"><path transform="translate(0, 900) scale(1,-1)" d="M646 830C658 805 670 776 678 749L440 749L440 450C440 302 432 97 344-48C362-54 391-71 403-81C494 69 507 294 507 450L507 516L597 516L597 365L857 365L857 516L948 516L948 579L857 579L857 656L792 656L792 579L659 579L659 656L597 656L597 579L507 579L507 684L955 684L955 749L753 749C743 779 728 814 712 843ZM792 516L792 421L659 421L659 516ZM831 241C806 192 771 149 730 112C690 150 658 193 634 241ZM521 304L521 241L565 241C593 178 631 121 679 72C619 32 550 3 479-15C493-30 510-60 517-78C594-55 668-22 731 25C788-20 853-55 926-78C936-61 956-35 972-21C902-2 838 28 784 68C845 125 894 198 924 289L879 306L866 304ZM170 837C142 744 91 653 34 593C47 577 66 539 73 523C107 559 139 605 167 656L391 656L391 726L201 726C215 756 227 787 237 818ZM183-72C196-58 222-42 380 49C375 64 369 93 367 113L264 59L264 275L387 275L387 344L264 344L264 479L378 479L378 547L106 547L106 479L195 479L195 344L56 344L56 275L195 275L195 65C195 24 167 2 150-7C162-23 177-54 183-72Z"/></svg>