<svg id="U9587" viewBox="0 0 1000 1000"><path transform="translate(0, 900) scale(1,-1)" d="M249 368L249 303L451 303L451-47L522-47L522 192C586 162 654 126 692 101L731 158C682 189 593 232 522 262L522 303L752 303L752 368ZM383 600L383 511L165 511L165 600ZM383 655L165 655L165 739L383 739ZM840 600L840 510L615 510L615 600ZM840 655L615 655L615 739L840 739ZM878 797L544 797L544 452L840 452L840 21C840 3 834-3 815-4C796-4 731-5 664-3C675-23 688-59 691-80C779-80 837-79 871-66C904-53 916-29 916 21L916 797ZM90 797L90-81L165-81L165 454L453 454L453 797Z"/></svg>