<svg id="U95C2" viewBox="0 0 1000 1000"><path transform="translate(0, 900) scale(1,-1)" d="M377 647L377 588L166 588L166 647ZM377 695L166 695L166 754L377 754ZM837 647L837 588L616 588L616 647ZM837 695L616 695L616 754L837 754ZM878 805L544 805L544 536L837 536L837 7C837-8 833-12 819-13C806-13 761-14 717-12C726-31 737-62 740-80C804-81 849-79 875-67C902-56 911-36 911 7L911 805ZM93 805L93-79L166-79L166 536L448 536L448 805ZM483 535C474 498 463 463 449 430L419 430C404 455 377 490 350 515L296 490C313 473 330 451 344 430L242 430L242 380L426 380C416 363 406 347 396 331L215 331L215 281L355 281C309 231 251 193 180 171C194 159 213 136 223 120C262 134 297 153 329 175L329 57C329 9 339-4 364-14C386-24 422-26 456-26C473-26 550-26 569-26C599-26 641-24 662-21C684-16 704-8 713 6C723 18 728 52 730 87C713 91 691 104 679 114C678 83 675 58 671 48C666 40 650 36 637 34C625 32 594 32 568 32C536 32 483 32 461 32C434 32 415 33 404 35C389 38 385 44 385 56L385 176L591 176C587 147 583 132 577 126C571 121 562 120 551 120C536 120 501 120 463 124C471 111 478 90 479 74C515 72 552 72 570 73C594 74 607 79 620 90C635 105 642 137 649 202L649 205C690 170 736 139 779 120C789 136 809 159 823 171C763 193 698 236 653 281L782 281L782 331L466 331C475 347 483 363 491 380L752 380L752 430L645 430C665 449 686 470 705 491L637 512C621 489 592 456 568 430L511 430C521 460 530 491 538 523ZM434 281L577 281C591 262 608 244 626 226L388 226C405 243 420 261 434 281Z"/></svg>