<svg id="U9518" viewBox="0 0 1000 1000"><path transform="translate(0, 900) scale(1,-1)" d="M769 840L769 740L595 740L595 840L526 840L526 740L420 740L420 674L526 674L526 574L595 574L595 674L769 674L769 574L839 574L839 674L954 674L954 740L839 740L839 840ZM620 593C612 554 603 517 592 481L412 481L412 412L567 412C525 307 464 221 382 161C398 148 424 121 434 106C463 130 490 157 514 187L514-80L580-80L580-36L846-36L846-77L915-77L915 274L575 274C600 316 622 362 641 412L963 412L963 481L664 481C673 513 682 546 689 581ZM580 30L580 207L846 207L846 30ZM179 837C149 744 95 654 35 595C47 579 67 541 74 525C110 561 144 607 173 658L387 658L387 726L209 726C224 756 236 787 247 818ZM59 344L59 275L193 275L193 69C193 22 161-7 142-20C154-32 174-58 180-74C196-57 224-39 403 60C398 76 391 105 388 124L262 58L262 275L386 275L386 344L262 344L262 479L368 479L368 547L111 547L111 479L193 479L193 344Z"/></svg>