<svg id="U966F" viewBox="0 0 1000 1000"><path transform="translate(0, 900) scale(1,-1)" d="M390 411L390-84L453-84L453 149L543 149L543-58L598-58L598 149L690 149L690-58L745-58L745 149L838 149L838-1C838-9 836-12 829-12C821-13 798-13 773-12C781-30 788-57 791-75C830-75 858-74 878-64C898-53 902-34 902-2L902 411ZM453 213L453 347L543 347L543 213ZM598 213L598 347L690 347L690 213ZM745 213L745 347L838 347L838 213ZM639 844C577 728 451 607 335 550C351 533 371 502 381 480C411 498 441 519 471 543L471 497L815 497L815 547C847 524 879 505 912 491C924 513 948 544 967 560C858 599 743 686 680 775L698 805ZM495 563C548 609 599 663 641 719C682 661 735 607 793 563ZM81 799L81-78L146-78L146 731L277 731C256 664 227 576 198 505C270 425 288 356 288 301C288 270 282 242 267 231C259 226 248 223 236 222C221 221 201 222 179 223C190 204 196 175 196 157C219 156 243 156 263 159C283 161 300 167 314 177C341 198 353 240 353 294C353 357 336 429 264 513C298 593 334 691 362 773L315 802L304 799Z"/></svg>