<svg id="U96DC" viewBox="0 0 1000 1000"><svg id="U96DChk" viewBox="0 0 1000 1000"><path transform="translate(0, 900) scale(1,-1)" d="M702 804C731 757 760 694 772 653L834 678C822 718 792 780 762 826ZM149 648C130 549 92 459 36 398C51 389 75 366 85 355C118 391 145 438 168 491C189 469 208 446 220 429L260 471C245 492 216 522 188 546C198 575 206 605 212 636ZM247 376L247 304L50 304L50 237L230 237C178 152 106 71 34 15C50 4 75-23 85-35C140 13 198 77 247 146L247-76L318-76L318 162C372 104 426 39 456-7L505 38C469 92 398 171 330 237L499 237L499 304L318 304L318 376L290 376C317 406 340 442 360 483C392 446 424 405 440 377L485 417C464 449 422 500 384 539C394 568 404 599 411 631L348 643C328 552 290 468 235 412C248 404 268 387 279 376ZM216 820C232 793 249 758 260 730L53 730L53 662L496 662L496 730L331 730L340 733C329 762 305 806 284 840ZM613 382L745 382L745 245L613 245ZM613 446L613 581L745 581L745 446ZM612 837C576 704 518 569 449 481C465 471 494 446 505 433C518 451 531 471 544 492L544-78L613-78L613-28L957-28L957 41L813 41L813 180L941 180L941 245L813 245L813 382L940 382L940 446L813 446L813 581L951 581L951 649L622 649C645 704 665 762 682 820ZM613 180L745 180L745 41L613 41Z"/><animate attributeName="opacity" values="1;0;0;0;0;0;0;1;1" dur="4s" repeatCount="indefinite"/></svg><svg id="U96DCjp" viewBox="0 0 1000 1000"><path transform="translate(0, 900) scale(1,-1)" d="M148 648C128 550 91 460 35 400C50 390 74 368 84 357C116 393 144 440 167 493C188 472 208 448 220 431L256 477C241 497 214 525 187 548C197 577 205 606 211 636ZM344 649C327 551 291 467 229 413C241 405 259 390 271 379L244 379L244 304L53 304L53 237L217 237C171 154 97 72 29 28C44 13 62-15 71-34C131 13 195 88 244 164L244-78L316-78L316 136C363 93 422 36 447 6L491 64C465 89 359 178 316 210L316 237L497 237L497 304L316 304L316 379L287 379C315 408 339 443 358 484C394 448 430 407 450 379L491 427C468 457 422 504 382 542C393 572 401 604 407 638ZM244 840L244 734L54 734L54 666L498 666L498 734L316 734L316 840ZM613 382L738 382L738 245L613 245ZM613 446L613 581L738 581L738 446ZM797 830C782 777 757 703 733 649L622 649C645 705 665 765 682 824L612 840C576 704 518 566 448 477C464 466 493 441 505 429C518 447 531 467 544 489L544-81L613-81L613-28L963-28L963 41L806 41L806 180L945 180L945 245L806 245L806 382L945 382L945 446L806 446L806 581L951 581L951 649L803 649C825 698 849 758 869 812ZM613 180L738 180L738 41L613 41Z"/><animate attributeName="opacity" values="0;1;1;0;0;0;0;0;0" dur="4s" repeatCount="indefinite"/></svg><svg id="U96DCsc" viewBox="0 0 1000 1000"><path transform="translate(0, 900) scale(1,-1)" d="M706 804C734 759 762 698 773 659L842 686C829 724 800 783 772 827ZM133 207C114 135 83 62 42 11C58 4 86-12 99-22C139 32 175 114 196 194ZM355 188C388 134 422 61 436 12L496 37C481 84 447 155 412 209ZM149 648C130 550 92 460 36 400C51 390 75 368 85 357C117 393 145 439 167 491C189 469 208 446 220 429L260 471C245 492 216 522 188 546C198 575 206 605 212 636ZM252 377L252 304L50 304L50 237L252 237L252-1C252-10 249-14 239-14C230-14 199-14 167-13C175-29 184-53 187-69C238-69 272-69 294-60C316-50 323-35 323-2L323 237L499 237L499 304L323 304L323 377L287 377C313 407 337 443 356 484C388 447 420 406 437 378L484 416C462 448 418 501 380 540C391 569 400 600 407 631L344 643C324 552 286 468 231 412C243 404 262 388 274 377ZM218 820C235 792 254 757 266 730L54 730L54 662L493 662L493 730L313 730L343 741C333 768 308 811 287 842ZM613 382L745 382L745 245L613 245ZM613 446L613 581L745 581L745 446ZM612 837C576 702 518 565 448 477C465 466 494 441 505 429C518 447 531 467 544 488L544-78L613-78L613-28L957-28L957 41L813 41L813 180L941 180L941 245L813 245L813 382L940 382L940 446L813 446L813 581L951 581L951 649L623 649C645 704 665 762 682 820ZM613 180L745 180L745 41L613 41Z"/><animate attributeName="opacity" values="0;0;0;1;1;0;0;0;0" dur="4s" repeatCount="indefinite"/></svg><svg id="U96DCtc" viewBox="0 0 1000 1000"><path transform="translate(0, 900) scale(1,-1)" d="M706 804C734 759 762 698 773 659L842 686C829 724 800 783 772 827ZM145 178C126 116 94 54 54 9C70 2 97-15 109-24C149 23 186 95 207 165ZM355 161C387 108 423 35 439-11L498 15C483 59 446 129 411 182ZM149 648C130 549 92 459 36 398C51 389 75 366 85 355C118 391 145 438 168 491C189 469 208 446 220 429L260 471C245 492 216 522 188 546C198 575 206 605 212 636ZM249 376L249 304L50 304L50 237L249 237L249-76L319-76L319 237L499 237L499 304L319 304L319 376L286 376C313 406 336 442 356 483C387 447 418 406 434 379L481 417C459 450 417 499 380 539C390 568 400 599 407 631L344 643C324 552 286 468 231 412C244 404 264 387 275 376ZM216 820C232 793 249 758 260 730L54 730L54 662L493 662L493 730L331 730L340 733C329 762 305 806 284 840ZM613 382L745 382L745 245L613 245ZM613 446L613 581L745 581L745 446ZM612 837C576 702 518 565 448 477C465 466 494 441 505 429C518 447 531 467 544 488L544-78L613-78L613-28L957-28L957 41L813 41L813 180L941 180L941 245L813 245L813 382L940 382L940 446L813 446L813 581L951 581L951 649L623 649C645 704 665 762 682 820ZM613 180L745 180L745 41L613 41Z"/><animate attributeName="opacity" values="0;0;0;0;0;1;1;0;0" dur="4s" repeatCount="indefinite"/></svg></svg>