<svg id="U9659" viewBox="0 0 1000 1000"><path transform="translate(0, 900) scale(1,-1)" d="M516 615L516 551L902 551L902 615ZM81 800L81-77L148-77L148 732L279 732C258 665 228 577 199 505C271 425 290 357 290 302C290 271 284 244 268 232C260 227 249 224 237 223C221 222 202 223 179 225C190 206 197 176 198 158C220 157 245 157 266 159C286 162 304 167 318 178C346 198 357 241 357 296C357 358 340 430 268 514C302 593 338 692 368 773L318 803L307 800ZM529-82C545-68 571-53 756 19C753 32 749 59 748 77L600 27L600 381L681 381C722 189 795 23 914-61C926-43 948-17 965-4C899 37 846 105 805 188C847 220 897 264 939 305L887 351C861 318 819 275 782 241C764 285 750 332 739 381L945 381L945 447L475 447L475 471L475 716L927 716L927 782L408 782L408 471C408 320 401 109 327-41C345-47 374-65 387-75C450 53 469 233 474 381L535 381L535 44C535 4 514-12 499-20C510-35 524-65 529-82Z"/></svg>