<svg id="U9648" viewBox="0 0 1000 1000"><path transform="translate(0, 900) scale(1,-1)" d="M777 220C821 145 874 42 899-18L964 16C937 74 882 174 837 248ZM459 244C433 170 381 77 327 17C342 6 367-14 380-27C439 39 495 139 530 224ZM79 797L79-80L148-80L148 729L275 729C256 661 228 570 202 497C268 419 284 351 285 299C285 269 279 241 265 231C258 225 248 222 235 222C221 221 203 221 182 223C194 204 201 173 202 154C223 153 247 154 265 156C285 159 302 164 316 174C343 194 355 236 354 290C354 351 339 422 271 505C303 585 338 688 364 770L313 800L302 797ZM366 706L366 637L500 637C476 559 452 495 440 471C420 425 404 393 386 388C395 368 407 331 411 316C420 325 453 330 500 330L620 330L620 11C620-2 617-5 604-6C590-7 548-7 499-5C509-27 519-57 522-77C588-77 632-76 658-64C685-52 693-30 693 10L693 330L911 330L912 399L693 399L693 553L620 553L620 399L482 399C516 468 549 551 578 637L945 637L945 706L600 706C613 749 625 793 636 836L554 848C545 801 534 752 521 706Z"/></svg>