<svg id="U966D" viewBox="0 0 1000 1000"><path transform="translate(0, 900) scale(1,-1)" d="M645 840C643 803 640 769 636 739L400 739L400 673L620 673C589 585 523 535 373 505C386 492 404 465 410 447C535 475 608 517 652 580C737 539 834 485 886 447L931 504C876 544 770 600 682 638L694 673L933 673L933 739L707 739C712 770 715 803 717 840ZM368 433L368 367L800 367L800 5C800-8 796-12 783-12C768-13 719-13 665-11C675-32 684-59 686-79C759-79 805-78 833-68C863-56 871-37 871 4L871 367L958 367L958 433ZM494 238L636 238L636 112L494 112ZM430 297L430-9L494-9L494 52L700 52L700 297ZM81 799L81-78L144-78L144 731L274 731C254 664 226 576 197 505C267 425 285 356 285 301C285 270 279 242 264 231C256 226 246 223 234 222C218 221 199 222 177 223C187 204 194 175 195 157C217 156 241 156 260 159C280 161 297 167 310 177C337 198 348 240 348 294C348 357 332 429 261 513C294 593 330 691 358 773L312 802L301 799Z"/></svg>