<svg id="U968B" viewBox="0 0 1000 1000"><svg id="U968Bhk" viewBox="0 0 1000 1000"><path transform="translate(0, 900) scale(1,-1)" d="M555 841C548 811 540 781 530 753L399 753L399 692L506 692C467 607 413 536 346 485C361 474 387 449 397 436C453 482 500 541 539 611L539 570L670 570L670 488L461 488L461 429L947 429L947 488L738 488L738 570L894 570L894 627L548 627C559 648 569 669 578 692L942 692L942 753L601 753C609 778 617 804 623 830ZM826 200L826 134L515 134L515 200ZM826 253L515 253L515 319L826 319ZM445 374L445-79L515-79L515 79L826 79L826 2C826-10 822-13 810-13C798-14 756-14 712-13C720-30 729-56 732-75C798-75 839-74 864-64C889-53 897-35 897 2L897 374ZM81 797L81-80L148-80L148 729L278 729C256 661 227 570 198 497C270 419 288 352 288 297C288 267 283 240 268 229C259 223 249 221 236 220C220 219 201 220 178 221C189 202 195 173 196 155C219 154 244 155 264 157C285 159 302 165 316 175C344 194 356 236 356 290C356 352 339 423 266 506C300 586 337 688 366 771L317 800L305 797Z"/><animate attributeName="opacity" values="1;0;0;0;0;1;1" dur="3s" repeatCount="indefinite"/></svg><svg id="U968Bjp" viewBox="0 0 1000 1000"><path transform="translate(0, 900) scale(1,-1)" d="M567 841C559 809 550 778 539 748L384 748L384 687L513 687C473 604 418 535 349 485C365 473 392 446 403 433C459 478 508 536 548 604L548 566L670 566L670 485L466 485L466 428L951 428L951 485L741 485L741 566L903 566L903 621L558 621C569 642 580 664 590 687L949 687L949 748L614 748C624 774 632 801 639 829ZM829 200L829 132L523 132L523 200ZM829 253L523 253L523 319L829 319ZM453 374L453-79L523-79L523 77L829 77L829-3C829-15 825-18 812-19C800-19 759-19 714-18C723-36 732-62 735-80C800-80 842-80 868-69C893-59 901-40 901-4L901 374ZM81 797L81-80L148-80L148 729L279 729C258 661 228 570 199 497C271 419 290 352 290 297C290 267 284 240 269 229C261 223 250 221 237 220C221 219 202 220 179 221C190 202 197 173 198 155C220 154 245 155 265 157C286 159 303 165 317 175C345 194 357 236 357 290C357 352 340 423 267 506C301 586 338 688 367 771L318 800L307 797Z"/><animate attributeName="opacity" values="0;1;1;0;0;0;0" dur="3s" repeatCount="indefinite"/></svg><svg id="U968Btc" viewBox="0 0 1000 1000"><path transform="translate(0, 900) scale(1,-1)" d="M571 262C625 235 695 192 731 165L764 210C728 235 660 272 601 300ZM81 797L81-80L148-80L148 729L278 729C256 661 227 570 198 497C270 419 288 352 288 297C288 267 283 240 268 229C259 223 249 221 236 220C220 219 201 220 178 221C189 202 195 173 196 155C219 154 244 155 264 157C285 159 302 165 316 175C344 194 356 236 356 290C356 352 339 423 266 506C300 586 337 688 366 771L317 800L305 797ZM540 112L562 53L818 120L818-1C818-12 814-16 801-16C790-17 748-17 702-16C711-33 720-58 723-75C788-75 831-75 857-66C883-55 891-37 891-1L891 378L470 378L470 202C470 126 464 28 410-44C425-52 454-72 467-84C526-6 537 113 537 201L537 320L818 320L818 168C713 146 611 125 540 112ZM472 482L472 423L946 423L946 482L751 482L751 563L911 563L911 620L540 620C550 638 559 657 567 677L940 677L940 742L592 742C602 769 610 798 618 827L549 840C541 806 531 773 519 742L381 742L381 677L492 677C450 588 394 513 324 459C340 447 366 420 376 407C436 458 487 522 529 598L529 563L682 563L682 482Z"/><animate attributeName="opacity" values="0;0;0;1;1;0;0" dur="3s" repeatCount="indefinite"/></svg></svg>