<svg id="U96C8" viewBox="0 0 1000 1000"><path transform="translate(0, 900) scale(1,-1)" d="M508 300L508 203L264 203L264 300ZM471 621C488 591 506 553 520 521L286 521C303 552 318 583 332 615L322 618L386 618L386 840L312 840L312 761L65 761L65 693L312 693L312 621L259 636C210 517 128 402 38 328C55 315 83 286 95 272C127 302 159 337 190 376L190-79L264-79L264-24L938-24L938 42L583 42L583 141L845 141L845 203L583 203L583 300L845 300L845 361L583 361L583 456L892 456L892 521L598 521C584 555 559 603 537 640ZM508 361L264 361L264 456L508 456ZM508 141L508 42L264 42L264 141ZM603 840L603 618L676 618L676 693L953 693L953 760L676 760L676 840Z"/></svg>