<svg id="U96FA" viewBox="0 0 1000 1000"><svg id="U96FAhk" viewBox="0 0 1000 1000"><path transform="translate(0, 900) scale(1,-1)" d="M172 505L192 451C259 463 334 478 413 494L411 538C321 525 235 512 172 505ZM202 599C264 585 342 559 384 540L405 582C362 602 284 624 223 636ZM779 638C731 619 647 590 590 576L614 542C672 554 753 574 810 598ZM580 503C659 491 761 467 815 448L831 495C776 514 674 535 597 544ZM280 301C335 282 397 257 453 231L55 231L55 172L395 172C300 103 161 44 39 15C54 1 75-24 85-42C223-2 387 79 487 172L493 172L493 3C493-8 489-12 474-13C460-14 408-14 352-12C361-29 371-52 375-70C447-70 495-71 526-61C555-52 564-36 564 1L564 172L825 172C796 130 764 89 736 60L803 35C847 79 896 150 940 216L882 234L869 231L582 231L569 238C651 274 756 323 835 368L787 415L770 410L147 410L147 357L683 357C623 326 550 293 496 273C439 298 376 323 321 341ZM76 695L76 504L150 504L150 645L460 645L460 438L534 438L534 645L851 645L851 504L927 504L927 695L534 695L534 750L885 750L885 800L117 800L117 750L460 750L460 695Z"/><animate attributeName="opacity" values="1;0;0;1;1" dur="2s" repeatCount="indefinite"/></svg><svg id="U96FAjp" viewBox="0 0 1000 1000"><path transform="translate(0, 900) scale(1,-1)" d="M191 606L191 561L404 561L404 606ZM585 606L585 561L806 561L806 606ZM191 515L191 472L404 472L404 515ZM585 515L585 471L806 471L806 515ZM280 301C335 282 397 257 453 231L55 231L55 172L395 172C300 103 161 44 39 15C54 1 75-24 85-42C223-2 387 79 487 172L493 172L493 3C493-8 489-12 474-13C460-14 408-14 352-12C361-29 371-52 375-70C447-70 495-71 526-61C555-52 564-36 564 1L564 172L825 172C796 130 764 89 736 60L803 35C847 79 896 150 940 216L882 234L869 231L583 231L569 238C651 274 756 323 835 368L787 415L773 411L147 411L147 358L685 358C625 326 551 294 496 273C440 298 376 323 321 341ZM76 703L76 518L144 518L144 653L458 653L458 439L532 439L532 653L851 653L851 517L922 517L922 703L532 703L532 759L868 759L868 812L128 812L128 759L458 759L458 703Z"/><animate attributeName="opacity" values="0;1;1;0;0" dur="2s" repeatCount="indefinite"/></svg></svg>