<svg id="U9761" viewBox="0 0 1000 1000"><svg id="U9761hk" viewBox="0 0 1000 1000"><path transform="translate(0, 900) scale(1,-1)" d="M614 351L614-79L683-79L683 23L950 23L950 77L683 77L683 136L910 136L910 187L683 187L683 244L930 244L930 295L683 295L683 351ZM437 349L437 295L212 295L212 245L437 245L437 193L437 187L227 187L227 139L434 139C432 121 428 103 423 85L180 70L189 15L401 34C382-1 353-34 309-62C327-69 355-83 369-93C484-18 504 100 504 192L504 349ZM473 824C481 805 491 783 499 762L105 762L105 461C105 315 99 110 35-37C50-44 81-67 93-80C163 76 174 306 174 461L174 699L952 699L952 762L583 762C573 787 558 819 546 845ZM358 678L358 615L215 615L215 560L340 560C302 496 241 433 185 401C198 391 216 371 225 357C271 389 320 442 358 500L358 353L416 353L416 507C450 476 491 438 510 417L545 466C527 482 465 533 430 560L538 560L538 615L416 615L416 678ZM701 675L701 614L572 614L572 559L676 559C637 498 579 437 528 406C541 395 559 376 569 362C613 395 663 453 701 513L701 352L760 352L760 519C805 475 872 407 897 376L940 420C917 442 834 520 789 559L933 559L933 614L760 614L760 675Z"/><animate attributeName="opacity" values="1;0;0;0;0;0;0;0;0;1;1" dur="5s" repeatCount="indefinite"/></svg><svg id="U9761jp" viewBox="0 0 1000 1000"><path transform="translate(0, 900) scale(1,-1)" d="M469 537L469 382L516 382L516 537ZM252 537L252 495C252 455 245 403 199 372C211 365 231 349 240 338C292 381 300 440 300 493L300 537ZM601 537L601 497C601 461 594 413 553 384C565 378 586 362 594 352C641 391 648 445 648 496L648 537ZM822 537L822 435C822 395 825 383 835 372C844 363 861 359 876 359C882 359 899 359 908 359C917 359 929 361 937 365C946 368 954 374 959 384C964 395 966 424 967 450C954 454 938 461 927 470C927 445 926 426 924 417C922 410 919 404 916 403C914 401 908 400 903 400C897 400 889 400 885 400C880 400 876 401 874 404C872 407 872 414 872 428L872 537ZM614 349L614-80L683-80L683 22L950 22L950 77L683 77L683 136L904 136L904 187L683 187L683 245L925 245L925 298L683 298L683 349ZM439 348L439 297L217 297L217 247L439 247L439 191L236 191L236 143L437 143C436 126 432 108 426 90C332 80 243 70 177 65L184 9L395 34C370 1 331-29 270-53C287-61 312-79 325-90C410-55 456-8 480 44L559 54L558 105L499 98C504 124 506 150 506 176L506 348ZM109 764L109 463C109 316 103 111 29-35C45-43 75-66 87-79C166 76 178 307 178 463L178 701L951 701L951 764L568 764L568 840L491 840L491 764ZM354 682L354 623L222 623L222 568L354 568L354 353L414 353L414 568L544 568L544 623L414 623L414 682ZM705 682L705 623L579 623L579 568L705 568L705 356L765 356L765 568L934 568L934 623L765 623L765 682Z"/><animate attributeName="opacity" values="0;1;1;0;0;0;0;0;0;0;0" dur="5s" repeatCount="indefinite"/></svg><svg id="U9761kr" viewBox="0 0 1000 1000"><path transform="translate(0, 900) scale(1,-1)" d="M469 537L469 382L516 382L516 537ZM252 537L252 495C252 455 245 403 199 372C211 365 231 349 240 338C292 381 300 440 300 493L300 537ZM601 537L601 497C601 461 594 413 553 384C565 378 586 362 594 352C641 391 648 445 648 496L648 537ZM822 537L822 435C822 395 825 383 835 372C844 363 861 359 876 359C882 359 899 359 908 359C917 359 929 361 937 365C946 368 954 374 959 384C964 395 966 424 967 450C954 454 938 461 927 470C927 445 926 426 924 417C922 410 919 404 916 403C914 401 908 400 903 400C897 400 889 400 885 400C880 400 876 401 874 404C872 407 872 414 872 428L872 537ZM614 349L614-80L683-80L683 22L950 22L950 77L683 77L683 136L904 136L904 187L683 187L683 245L925 245L925 298L683 298L683 349ZM439 348L439 297L217 297L217 247L439 247L439 191L236 191L236 143L437 143C436 125 432 108 426 90C338 80 253 71 191 66L197 10L396 35C371 2 331-29 270-53C287-61 312-79 325-90C479-27 506 79 506 176L506 348ZM109 764L109 463C109 316 103 111 29-35C45-43 75-66 87-79C166 76 178 307 178 463L178 701L951 701L951 764L568 764L568 840L491 840L491 764ZM354 682L354 623L222 623L222 568L354 568L354 353L414 353L414 568L544 568L544 623L414 623L414 682ZM705 682L705 623L579 623L579 568L705 568L705 356L765 356L765 568L934 568L934 623L765 623L765 682Z"/><animate attributeName="opacity" values="0;0;0;1;1;0;0;0;0;0;0" dur="5s" repeatCount="indefinite"/></svg><svg id="U9761sc" viewBox="0 0 1000 1000"><path transform="translate(0, 900) scale(1,-1)" d="M614 359L614-82L684-82L684 24L950 24L950 78L684 78L684 144L906 144L906 195L684 195L684 257L925 257L925 309L684 309L684 359ZM175 83L175 29L437 29L437-79L507-79L507 359L437 359L437 307L217 307L217 256L437 256L437 194L236 194L236 145L437 145L437 83ZM474 835C481 817 489 795 495 774L115 774L115 485C115 329 108 110 30-47C48-53 79-70 92-82C161 59 179 256 183 413L184 485L184 711L935 711L935 774L577 774C569 798 558 827 548 849ZM357 690L357 626L214 626L214 574L341 574C302 510 240 445 183 413C197 403 215 382 224 369C270 401 319 454 357 512L357 362L415 362L415 519C449 488 491 449 509 429L544 478C525 494 461 547 426 574L537 574L537 626L415 626L415 690ZM705 687L705 624L579 624L579 571L690 571C649 509 585 444 529 412C542 402 560 381 570 367C615 400 666 455 705 512L705 361L764 361L764 523C809 479 871 416 895 387L936 429C914 451 827 533 782 571L934 571L934 624L764 624L764 687Z"/><animate attributeName="opacity" values="0;0;0;0;0;1;1;0;0;0;0" dur="5s" repeatCount="indefinite"/></svg><svg id="U9761tc" viewBox="0 0 1000 1000"><path transform="translate(0, 900) scale(1,-1)" d="M252 544L252 501C252 459 245 404 199 370C211 364 231 347 240 337C292 382 300 443 300 498L300 544ZM604 545L604 502C604 461 596 407 546 375C558 369 578 354 586 343C642 386 650 446 650 500L650 545ZM461 542L461 446C461 405 468 388 506 388C515 388 518 388 524 388C536 388 548 389 556 390C555 402 554 416 553 426C544 424 530 423 523 423C519 423 521 423 518 423C509 423 508 428 508 445L508 542ZM805 545L805 423C805 379 813 362 855 362C865 362 889 362 899 362C913 362 930 362 937 365C936 376 935 390 934 402C925 399 907 398 897 398C890 398 873 398 866 398C854 398 853 404 853 422L853 545ZM614 351L614-79L683-79L683 23L950 23L950 77L683 77L683 136L904 136L904 187L683 187L683 244L925 244L925 295L683 295L683 351ZM437 349L437 295L217 295L217 245L437 245L437 200L437 187L236 187L236 139L433 139C430 121 426 103 420 85L180 70L193 15L398 34C378 2 350-30 309-56C327-63 355-77 369-86C485-10 504 107 504 199L504 349ZM473 824C481 805 491 783 499 762L105 762L105 461C105 315 99 110 35-37C50-44 81-67 93-80C163 76 174 306 174 461L174 699L952 699L952 762L583 762C573 787 558 819 546 845ZM350 677L350 625L217 625L217 574L350 574L350 349L410 349L410 574L542 574L542 625L410 625L410 677ZM701 677L701 625L571 625L571 574L701 574L701 352L761 352L761 574L917 574L917 625L761 625L761 677Z"/><animate attributeName="opacity" values="0;0;0;0;0;0;0;1;1;0;0" dur="5s" repeatCount="indefinite"/></svg></svg>