<svg id="U97AB" viewBox="0 0 1000 1000"><svg id="U97ABhk" viewBox="0 0 1000 1000"><path transform="translate(0, 900) scale(1,-1)" d="M482 439L482 387L794 387L794 439ZM480 329L480 277L792 277L792 329ZM576 624C590 603 604 576 615 551L469 551C495 584 521 624 545 668L869 668C864 203 858 37 836 4C827-10 819-13 804-13C785-13 744-13 697-9C707-27 715-57 716-76C759-77 802-78 830-75C859-72 878-63 895-34C926 13 929 173 935 693C935 703 935 732 935 732L576 732C589 764 602 796 612 829L547 846C516 745 465 645 404 581C418 573 442 558 455 548L455 497L825 497L825 551L685 551C672 581 651 619 631 648ZM544 167L732 167L732 83L544 83ZM794 218L510 217L480 217L480-11L544-11L544 33L794 33ZM69 480L69 238L206 238L206 159L41 159L41 94L206 94L206-81L275-81L275 94L436 94L436 159L275 159L275 238L412 238L412 480L275 480L275 548L368 548L368 684L439 684L439 747L368 747L368 839L304 839L304 747L171 747L171 839L110 839L110 747L43 747L43 684L110 684L110 548L206 548L206 480ZM126 421L212 421L212 298L126 298ZM268 421L353 421L353 298L268 298ZM304 684L304 606L171 606L171 684Z"/><animate attributeName="opacity" values="1;0;0;1;1" dur="2s" repeatCount="indefinite"/></svg><svg id="U97ABjp" viewBox="0 0 1000 1000"><path transform="translate(0, 900) scale(1,-1)" d="M522 585L522 536L753 536L753 585ZM501 394L501 345L762 345L762 394ZM501 299L501 251L762 251L762 299ZM447 490L447 440L819 440L819 490ZM69 484L69 239L207 239L207 167L39 167L39 103L207 103L207-81L275-81L275 103L451 103L451 167L275 167L275 239L417 239L417 484L275 484L275 550L371 550L371 683L443 683L443 746L371 746L371 839L304 839L304 746L179 746L179 839L115 839L115 746L46 746L46 683L115 683L115 550L207 550L207 484ZM304 683L304 608L179 608L179 683ZM129 427L212 427L212 296L129 296ZM270 427L356 427L356 296L270 296ZM549 840C519 725 466 614 398 543C414 533 443 511 456 499C491 539 524 589 552 646L871 646C866 189 858 37 840 6C832-9 824-13 811-13C796-13 767-12 733-9C745-29 752-59 753-79C787-81 821-81 845-77C870-73 887-65 902-38C930 5 933 162 939 672C939 682 939 711 939 711L581 711C596 748 609 787 619 826ZM554 155L707 155L707 59L554 59ZM495 205L495-33L554-33L554 8L766 8L766 205Z"/><animate attributeName="opacity" values="0;1;1;0;0" dur="2s" repeatCount="indefinite"/></svg></svg>