<svg id="U97B0" viewBox="0 0 1000 1000"><path transform="translate(0, 900) scale(1,-1)" d="M557 577L823 577L823 480L557 480ZM557 732L823 732L823 637L557 637ZM486 796L486 416L896 416L896 796ZM405 16L405-51L963-51L963 16L924 16L924 328L459 328L459 16ZM521 16L521 260L594 260L594 16ZM652 16L652 260L725 260L725 16ZM784 16L784 260L859 260L859 16ZM67 480L67 240L211 240L211 159L40 159L40 94L211 94L211-79L275-79L275 94L428 94L428 159L275 159L275 240L409 240L409 480L275 480L275 546L371 546L371 685L444 685L444 748L371 748L371 839L313 839L313 748L167 748L167 839L111 839L111 748L43 748L43 685L111 685L111 546L211 546L211 480ZM313 685L313 606L167 606L167 685ZM123 421L216 421L216 298L123 298ZM270 421L352 421L352 298L270 298Z"/></svg>