<svg id="U9781" viewBox="0 0 1000 1000"><path transform="translate(0, 900) scale(1,-1)" d="M570 622L687 622L687 449L570 449ZM74 480L74 232L225 232L225 150L40 150L40 84L225 84L225-81L294-81L294 84L464 84C450 41 432-1 408-38C425-45 453-67 465-79C551 52 568 242 570 385L572 385C603 280 648 185 705 105C655 50 597 7 535-21C551-35 570-63 579-80C641-49 699-6 750 49C800-6 857-50 922-82C934-63 955-36 971-22C904 6 845 50 795 104C858 191 906 302 932 437L887 452L875 449L757 449L757 622L883 622C876 578 866 533 857 501L917 486C933 534 951 614 964 680L915 692L903 690L757 690L757 832L687 832L687 690L502 690L502 408C502 331 499 239 481 150L294 150L294 232L455 232L455 480L295 480L295 546L398 546L398 682L477 682L477 745L398 745L398 830L330 830L330 745L191 745L191 830L124 830L124 745L44 745L44 682L124 682L124 546L225 546L225 480ZM850 385C828 299 793 224 749 161C701 226 664 303 638 385ZM330 682L330 604L191 604L191 682ZM138 423L231 423L231 289L138 289ZM289 423L391 423L391 289L289 289Z"/></svg>