<svg id="U971C" viewBox="0 0 1000 1000"><svg id="U971Chk" viewBox="0 0 1000 1000"><path transform="translate(0, 900) scale(1,-1)" d="M172 486L192 433C259 445 334 460 413 476L411 521C321 507 235 494 172 486ZM202 580C264 566 342 542 384 521L405 564C362 584 284 607 223 618ZM240 412L240 324L61 324L61 262L225 262C180 170 104 77 31 30C46 18 67-6 78-22C135 21 194 93 240 170L240-80L311-80L311 148C356 112 413 64 438 39L478 96C452 115 353 190 311 216L311 262L470 262L470 324L311 324L311 412ZM574 207L834 207L834 139L574 139ZM574 258L574 328L834 328L834 258ZM574 88L834 88L834 17L574 17ZM504 383L504-76L574-76L574-39L834-39L834-76L907-76L907 383ZM76 677L76 486L150 486L150 627L460 627L460 438L534 438L534 627L851 627L851 486L927 486L927 677L534 677L534 743L885 743L885 798L117 798L117 743L460 743L460 677ZM580 485C659 473 761 450 815 430L831 477C780 494 690 514 616 524C674 537 754 556 810 580L779 619C731 601 647 572 590 559L613 524L597 526Z"/><animate attributeName="opacity" values="1;0;0;1;1" dur="2s" repeatCount="indefinite"/></svg><svg id="U971Cjp" viewBox="0 0 1000 1000"><path transform="translate(0, 900) scale(1,-1)" d="M197 579L197 536L409 536L409 579ZM173 485L173 442L410 442L410 485ZM585 485L585 441L830 441L830 485ZM585 579L585 536L803 536L803 579ZM240 412L240 322L62 322L62 260L224 260C179 169 103 77 31 30C46 18 67-6 78-22C135 21 194 93 240 170L240-80L311-80L311 148C356 112 413 64 438 39L478 96C452 115 353 190 311 216L311 260L471 260L471 322L311 322L311 412ZM574 207L834 207L834 139L574 139ZM574 258L574 328L834 328L834 258ZM574 88L834 88L834 17L574 17ZM504 383L504-76L574-76L574-39L834-39L834-76L907-76L907 383ZM72 686L72 500L140 500L140 632L461 632L461 421L534 421L534 632L862 632L862 500L932 500L932 686L534 686L534 742L867 742L867 800L135 800L135 742L461 742L461 686Z"/><animate attributeName="opacity" values="0;1;1;0;0" dur="2s" repeatCount="indefinite"/></svg></svg>