<svg id="U9834" viewBox="0 0 1000 1000"><svg id="U9834hk" viewBox="0 0 1000 1000"><path transform="translate(0, 900) scale(1,-1)" d="M89 434L89 371L451 371L451 434ZM115 180C97 113 67 45 27-2C43-10 71-27 83-37C121 14 157 91 179 166ZM355 160C381 114 412 53 424 15L481 42C468 78 437 139 408 182ZM588 425L847 425L847 328L588 328ZM588 272L847 272L847 173L588 173ZM588 577L847 577L847 482L588 482ZM612 105C575 57 497 0 426-32C442-45 465-68 476-82C548-49 629 11 678 67ZM749 62C807 22 879-38 913-76L975-36C937 3 864 61 808 99ZM49 290L49 226L239 226L239-8C239-18 236-20 226-21C216-21 183-21 147-20C156-38 165-63 169-81C220-81 254-81 277-70C301-60 306-43 306-9L306 226L476 226L476 290ZM87 835L87 622C87 540 111 513 194 513C212 513 341 513 369 513C402 513 437 515 453 519C450 535 447 566 446 584C427 581 390 579 367 579C341 579 217 579 192 579C163 579 156 589 156 621L156 657C251 678 357 707 433 741L386 794C330 767 241 739 156 716L156 835ZM520 636L520 115L918 115L918 636L720 636L751 727L952 727L952 793L481 793L481 727L670 727C664 698 657 665 649 636Z"/><animate attributeName="opacity" values="1;0;0;1;1" dur="2s" repeatCount="indefinite"/></svg><svg id="U9834jp" viewBox="0 0 1000 1000"><path transform="translate(0, 900) scale(1,-1)" d="M90 435L90 372L450 372L450 435ZM110 190C93 129 67 65 30 20C46 13 74-5 86-14C121 33 153 106 173 176ZM364 168C389 125 417 66 429 30L486 57C474 91 444 149 418 191ZM582 423L852 423L852 326L582 326ZM582 270L852 270L852 172L582 172ZM582 575L852 575L852 479L582 479ZM606 92C566 48 484-3 411-32C428-44 449-67 461-82C535-51 620 2 671 54ZM753 50C811 12 886-45 921-81L979-40C940-2 866 51 807 88ZM48 291L48 228L239 228L239-7C239-17 236-20 224-21C213-21 177-21 136-20C145-38 154-63 158-81C214-81 251-81 276-70C300-60 306-43 306-9L306 228L485 228L485 291ZM381 796C327 768 240 738 157 714L157 837L88 837L88 595C88 520 111 500 204 500C223 500 351 500 371 500C442 500 463 524 472 622C452 627 423 636 408 647C405 574 399 563 364 563C337 563 230 563 209 563C164 563 157 568 157 595L157 654C252 677 357 708 432 744ZM513 634L513 113L924 113L924 634L720 634C731 663 741 695 751 727L950 727L950 793L481 793L481 727L670 727C665 697 657 663 650 634Z"/><animate attributeName="opacity" values="0;1;1;0;0" dur="2s" repeatCount="indefinite"/></svg></svg>