<svg id="U98FA" viewBox="0 0 1000 1000"><svg id="U98FAhk" viewBox="0 0 1000 1000"><path transform="translate(0, 900) scale(1,-1)" d="M202-82C221-71 252-65 510-12C511 1 513 27 516 43L291 3L291 108L778 108L778 352C824 336 870 322 913 313C924 331 944 358 960 373C819 399 646 460 553 523L569 538L517 575L508 566L506 624L343 602L343 690L503 690L503 750L343 750L343 840L273 840L273 592L176 579L176 769L110 769L110 571L42 563L49 496L505 564C405 471 215 392 39 367C52 350 65 321 71 302C120 311 170 325 219 341L219 44C219 5 191-13 173-21C184-36 197-65 202-82ZM852 794C797 768 707 740 619 719L619 840L546 840L546 623C546 551 571 533 667 533C687 533 826 533 847 533C917 533 938 554 946 632C926 636 898 645 882 656C879 601 872 592 839 592C810 592 695 592 674 592C627 592 619 597 619 623L619 662C719 682 830 711 907 744ZM707 209L707 158L291 158L291 209ZM707 254L291 254L291 303L707 303ZM776 353L252 353C302 371 350 392 395 416L395 384L617 384L617 420C667 395 721 372 776 353ZM482 63C622 29 798-33 889-80L922-30C884-11 833 10 776 30C813 56 852 87 886 117L830 151C803 122 758 82 717 50C649 73 577 93 514 108ZM506 484C534 464 568 445 605 426L414 426C447 444 478 464 506 484Z"/><animate attributeName="opacity" values="1;0;0;0;0;1;1" dur="3s" repeatCount="indefinite"/></svg><svg id="U98FAsc" viewBox="0 0 1000 1000"><path transform="translate(0, 900) scale(1,-1)" d="M207-80C227-69 261-62 521-18C520-4 521 22 523 40L293 5L293 114L777 114L777 340C828 324 878 310 925 300C935 318 956 346 972 361C824 387 640 446 541 508L558 523L507 561L504 622L343 599L343 685L503 685L503 747L343 747L343 833L273 833L273 589L176 575L176 760L110 760L110 566L42 557L50 489L504 561C408 472 212 392 39 365C51 347 63 315 68 296C118 306 169 321 220 338L220 30C220-7 199-16 183-22C192-35 204-64 207-80ZM852 793C797 764 707 734 619 710L619 833L546 833L546 618C546 544 570 524 667 524C688 524 820 524 842 524C917 524 939 551 947 655C927 659 898 669 883 680C878 599 872 587 834 587C805 587 695 587 674 587C628 587 619 592 619 618L619 652C719 675 830 707 907 743ZM705 215L705 165L293 165L293 215ZM705 260L293 260L293 312L705 312ZM444 422C454 404 465 382 472 362L284 362C360 393 432 430 491 470C551 431 631 393 715 362L551 362C542 384 528 414 513 437ZM490 62C628 30 811-27 904-67L937-10C897 6 844 25 785 43C822 66 861 92 896 119L839 154C810 127 762 91 719 63C652 82 582 99 522 112Z"/><animate attributeName="opacity" values="0;1;1;0;0;0;0" dur="3s" repeatCount="indefinite"/></svg><svg id="U98FAtc" viewBox="0 0 1000 1000"><path transform="translate(0, 900) scale(1,-1)" d="M206-82C225-71 255-64 517-10C517 3 519 30 522 46L295 5L295 109L772 109L772 352L251 352C303 371 354 393 401 417L401 384L605 384L605 423C700 376 812 336 910 314C922 332 946 358 963 373C821 400 650 459 556 521L576 539L517 575L508 566L506 623L343 601L343 690L503 690L503 750L343 750L343 840L273 840L273 592L176 579L176 769L110 769L110 571L42 563L50 497L505 564C406 471 218 393 41 366C53 349 67 320 72 302C122 312 173 326 223 342L223 56C223 14 195-5 178-13C188-30 202-63 206-82ZM546 840L546 623C546 551 570 533 667 533C688 533 825 533 847 533C917 533 938 554 947 631C926 635 898 645 882 655C878 601 872 593 839 593C810 593 695 593 674 593C627 593 619 597 619 623L619 691L898 691L898 750L619 750L619 840ZM700 209L700 158L295 158L295 209ZM700 253L295 253L295 303L700 303ZM484 63C620 30 791-29 880-75L912-25C874-6 822 15 765 35C807 59 852 88 890 117L835 151C803 122 751 84 704 55C640 76 574 94 515 108ZM505 480C533 462 565 443 599 426L418 426C449 443 478 461 505 480Z"/><animate attributeName="opacity" values="0;0;0;1;1;0;0" dur="3s" repeatCount="indefinite"/></svg></svg>