<svg id="U9879" viewBox="0 0 1000 1000"><path transform="translate(0, 900) scale(1,-1)" d="M618 500L618 289C618 184 591 56 319-19C335-34 357-61 366-77C649 12 693 158 693 289L693 500ZM689 91C766 41 864-31 911-79L961-26C913 21 813 90 736 138ZM29 184L48 106C140 137 262 179 379 219L369 284L247 247L247 650L363 650L363 722L46 722L46 650L172 650L172 225ZM417 624L417 153L490 153L490 556L816 556L816 155L891 155L891 624L655 624C670 655 686 692 702 728L957 728L957 796L381 796L381 728L613 728C603 694 591 656 578 624Z"/></svg>