<svg id="U9966" viewBox="0 0 1000 1000"><path transform="translate(0, 900) scale(1,-1)" d="M393 392L405 321L596 350L596 55C596-42 620-69 705-69C724-69 828-69 847-69C928-69 949-19 957 131C935 136 906 149 888 163C883 34 878 3 843 3C820 3 732 3 714 3C677 3 670 10 670 54L670 361L949 404L938 473L670 433L670 698C752 718 830 742 891 769L826 826C732 780 559 738 408 711C417 694 428 668 432 650C485 659 541 669 596 681L596 422ZM149 838C126 689 85 543 23 449C39 438 68 414 80 401C116 458 147 532 171 614L313 614C297 565 278 516 260 482L317 461C346 513 377 597 400 670L352 687L340 683L190 683C201 729 211 776 219 824ZM168 476L168 82C168 39 132 6 113-6C125-22 145-54 152-72L181-43C208-21 260 16 371 93C364 107 354 133 349 153L238 79L238 476Z"/></svg>