<svg id="U9910" viewBox="0 0 1000 1000"><svg id="U9910hk" viewBox="0 0 1000 1000"><path transform="translate(0, 900) scale(1,-1)" d="M195 726C165 678 112 622 38 580C52 572 71 554 82 540C100 551 118 564 133 576C164 558 199 534 224 514C170 484 111 461 55 446C69 434 86 411 93 396C242 441 401 533 473 673L430 697L417 694L327 694L327 742L501 742L501 792L327 792L327 840L261 840L261 694L243 694L256 715ZM540 668C580 649 623 626 665 602C631 582 595 566 559 555C572 542 590 518 598 501C642 517 685 539 726 566C781 530 831 494 864 464L911 513C878 541 831 574 779 606C832 653 876 711 902 781L859 800L848 797L541 797L541 742L813 742C790 704 758 669 721 640C674 666 627 690 583 710ZM207 647L382 647C355 609 317 575 274 545C248 566 208 591 173 611C185 623 197 635 207 647ZM702 213L702 163L307 163L307 213ZM702 250L307 250L307 299L702 299ZM229-76C250-66 282-58 525-21C524-6 525 19 527 38L307 7L307 117L774 117L774 334C825 313 875 296 922 283C932 300 952 326 967 339C819 374 638 448 537 526L559 551L500 581C405 466 219 376 42 330C58 315 75 289 85 272C135 287 185 305 234 326L234 43C234 3 217-12 202-19C213-31 226-60 229-76ZM748 345L275 345C313 363 350 383 385 405L385 380L624 380L624 405C664 384 706 363 748 345ZM488 74C617 33 783-32 867-78L905-30C869-12 820 10 766 31C803 56 844 87 878 117L822 152C794 123 749 84 708 53C646 76 581 98 524 115ZM496 487C524 465 557 444 592 423L412 423C442 443 470 465 496 487Z"/><animate attributeName="opacity" values="1;0;0;0;0;1;1" dur="3s" repeatCount="indefinite"/></svg><svg id="U9910jp" viewBox="0 0 1000 1000"><path transform="translate(0, 900) scale(1,-1)" d="M190 712C153 664 90 621 26 591C40 582 63 562 72 551C95 563 118 578 140 594C180 575 224 549 255 527C188 490 113 463 39 447C51 434 67 411 74 396C240 439 412 527 488 677L447 700L435 697L329 697L329 747L501 747L501 797L329 797L329 840L265 840L265 697L242 697ZM398 647C373 613 341 583 304 557C273 581 225 608 182 627L203 647ZM539 663C580 643 624 620 667 595C626 569 581 549 536 535C543 528 551 518 558 508L523 535L461 535C375 451 208 371 39 326C51 311 66 288 72 273C177 304 283 348 369 397L369 360L629 360L629 397C723 347 832 305 928 281C936 297 951 322 964 337C839 364 699 417 590 487C637 505 684 529 726 559C792 518 851 476 889 441L936 490C898 524 841 563 778 601C831 649 876 709 903 781L859 800L848 797L541 797L541 742L814 742C790 701 758 665 721 634C674 660 626 684 582 704ZM496 484C529 457 569 431 613 406L385 406C428 431 466 458 496 484ZM119-9L128-69C239-57 397-40 548-25L548 22C640-35 767-67 909-80C918-63 933-38 947-24C858-19 775-6 703 14C758 40 820 73 870 105L816 140L778 114L778 326L270 325L231 325L231 1ZM303 280L706 280L706 234L303 234ZM303 142L303 192L706 192L706 142ZM303 95L462 95C481 71 505 50 533 31L303 8ZM749 95C714 74 675 52 641 35C600 52 565 71 538 95Z"/><animate attributeName="opacity" values="0;1;1;0;0;0;0" dur="3s" repeatCount="indefinite"/></svg><svg id="U9910sc" viewBox="0 0 1000 1000"><path transform="translate(0, 900) scale(1,-1)" d="M152 566C176 552 204 533 227 516C172 485 112 461 55 446C69 434 86 411 93 396C242 441 401 533 473 673L430 697L417 694L327 694L327 742L501 742L501 792L327 792L327 840L261 840L261 694L243 694L256 715L195 726C165 678 112 622 38 580C52 572 71 554 82 540C133 572 174 608 207 647L382 647C355 610 318 576 276 547C252 565 220 585 193 599ZM540 666C580 647 623 624 665 600C631 580 595 564 559 553C572 540 590 516 598 499C642 515 685 537 726 564C781 528 831 492 864 462L911 511C878 539 831 572 779 604C832 651 876 709 902 779L859 798L852 796L541 796L541 740L813 740C790 702 758 667 721 638C674 664 627 688 583 708ZM701 214L701 162L306 162L306 214ZM701 256L306 256L306 307L701 307ZM443 410C457 393 473 372 486 353L297 353C372 390 442 434 499 484C560 434 639 389 724 353L559 353C545 377 523 405 503 426ZM214-76C233-66 266-61 523-21C523-7 527 19 530 35L306 4L306 115L516 115L482 76C607 34 768-32 850-77L891-27C856-9 810 12 759 32C797 58 838 91 874 121L819 156C791 127 744 86 703 55C645 77 586 98 533 115L773 115L773 333C823 314 874 298 923 287C932 305 952 332 967 346C814 376 639 443 540 523L560 545L501 576C407 463 220 375 44 330C60 314 78 289 88 271C137 286 185 303 233 323L233 43C233 3 205-12 187-19C198-33 210-60 214-76Z"/><animate attributeName="opacity" values="0;0;0;1;1;0;0" dur="3s" repeatCount="indefinite"/></svg></svg>