<svg id="U9914" viewBox="0 0 1000 1000"><svg id="U9914hk" viewBox="0 0 1000 1000"><path transform="translate(0, 900) scale(1,-1)" d="M782 807C826 781 877 742 901 712L948 754C924 782 871 820 828 844ZM664 840L664 703L445 703L445 639L664 639L664 550L479 550L479-77L547-77L547 141L668 141L668-73L733-73L733 141L861 141L861 3C861-7 858-10 849-11C839-11 810-11 777-10C787-29 796-58 798-76C847-76 880-74 902-64C925-52 929-31 929 3L929 550L737 550L737 639L958 639L958 703L737 703L737 840ZM547 316L668 316L668 205L547 205ZM547 380L547 485L668 485L668 380ZM861 316L861 205L733 205L733 316ZM861 380L733 380L733 485L861 485ZM341 346L341 256L169 256L169 346ZM341 402L169 402L169 478L341 478ZM86-79C104-64 134-50 340 32C352-3 363-36 370-61L430-36C414 15 379 105 347 174L292 155L319 86L169 30L169 198L403 198L403 536L103 536L103 45C103 7 77-8 60-15C71-31 82-61 86-79ZM254 846C206 757 121 676 38 624C49 608 67 571 73 555C109 580 146 610 180 644L180 595L351 595L351 647L183 647C211 675 237 705 261 737C312 702 372 658 403 629L441 684C409 712 347 754 296 787L317 823Z"/><animate attributeName="opacity" values="1;0;0;0;0;1;1" dur="3s" repeatCount="indefinite"/></svg><svg id="U9914jp" viewBox="0 0 1000 1000"><path transform="translate(0, 900) scale(1,-1)" d="M771 800C817 776 871 739 898 710L937 755C910 783 855 818 810 839ZM210 840C176 763 110 667 18 595C34 586 55 565 66 550C104 581 137 615 166 649L166 605L361 605L361 659L174 659C209 701 237 743 258 780C313 730 372 655 403 610L446 657L446 641L663 641L663 545L470 545L470-79L537-79L537 146L663 146L663-74L731-74L731 146L863 146L863 0C863-11 859-14 849-14C839-15 808-15 772-14C781-32 790-60 793-77C847-77 880-76 903-65C925-54 931-35 931-1L931 545L731 545L731 641L956 641L956 707L731 707L731 840L663 840L663 707L446 707L446 667C411 717 342 789 285 840ZM663 316L663 210L537 210L537 316ZM731 316L863 316L863 210L731 210ZM663 380L537 380L537 481L663 481ZM731 380L731 481L863 481L863 380ZM165 376L346 376L346 308L165 308ZM165 428L165 494L346 494L346 428ZM100 547L100-79L165-79L165 0L429 0L429 60L165 60L165 128L414 128L414 188L165 188L165 255L409 255L409 547Z"/><animate attributeName="opacity" values="0;1;1;0;0;0;0" dur="3s" repeatCount="indefinite"/></svg><svg id="U9914sc" viewBox="0 0 1000 1000"><path transform="translate(0, 900) scale(1,-1)" d="M782 807C826 781 877 742 901 712L948 754C924 782 871 820 828 844ZM244 846C195 757 109 677 26 625C36 609 53 571 58 556C126 602 195 668 249 742C311 693 382 631 418 589L457 639L664 639L664 550L479 550L479-77L547-77L547 141L668 141L668-73L733-73L733 141L861 141L861 3C861-7 858-10 849-11C839-11 810-11 777-10C787-29 796-58 798-76C847-76 880-74 902-64C925-52 929-31 929 3L929 550L737 550L737 639L958 639L958 703L737 703L737 840L664 840L664 703L445 703L445 659C405 701 340 754 285 795L301 823ZM547 316L668 316L668 205L547 205ZM547 380L547 485L668 485L668 380ZM861 316L861 205L733 205L733 316ZM861 380L733 380L733 485L861 485ZM347 359L347 273L169 273L169 359ZM347 416L169 416L169 493L347 493ZM284 170L316 105L169 45L169 215L411 215L411 550L303 550C294 581 278 624 263 657L208 638C219 611 230 579 238 550L104 550L104 74C104 35 75 13 58 4C70-15 83-51 89-69L100-59C121-44 169-21 340 55C355 21 369-12 378-37L433-7C414 44 373 130 337 194Z"/><animate attributeName="opacity" values="0;0;0;1;1;0;0" dur="3s" repeatCount="indefinite"/></svg></svg>