<svg id="U9920" viewBox="0 0 1000 1000"><path transform="translate(0, 900) scale(1,-1)" d="M420 299L445 232L527 267C523 150 500 46 390-33C407-45 433-68 446-84C577 14 597 147 597 297L678 332L678 274L781 274L781-80L853-80L853 274L961 274L961 343L853 343L853 561L947 561L947 628L823 628C850 683 880 758 906 820L828 841C812 778 783 688 756 628L697 628L697 561L781 561L781 343L682 343L670 397L597 368L597 561L673 561L673 628L577 628C602 684 629 758 652 820L575 841C562 778 536 688 513 628L435 628L435 561L527 561L527 340ZM163 384L346 384L346 319L163 319ZM163 433L163 496L346 496L346 433ZM100 548L100-79L163-79L163 20L416 20L416 80L163 80L163 146L407 146L407 204L163 204L163 266L409 266L409 548ZM211 840C177 763 111 667 19 595C34 586 56 565 67 551C105 582 138 615 166 649L166 605L363 605L363 660L176 660C210 702 237 744 259 781C314 729 373 653 404 606L450 658C416 709 344 785 285 840Z"/></svg>