<svg id="U991E" viewBox="0 0 1000 1000"><svg id="U991Ehk" viewBox="0 0 1000 1000"><path transform="translate(0, 900) scale(1,-1)" d="M710 796C756 777 813 747 842 725L879 772C849 793 791 821 746 837ZM699 354C750 337 814 309 848 288L884 336C850 356 784 382 734 397ZM169 652L169 598L339 598L339 652ZM826 641C801 610 766 582 726 557C710 581 695 610 683 641L950 663L944 724L663 701C652 744 645 790 642 839L574 839C577 788 585 740 596 696L458 685L463 623L614 635C628 594 646 557 667 525C596 491 514 466 434 447C448 434 469 406 478 392C554 413 632 441 702 477C749 424 805 393 865 393C923 393 947 420 958 519C941 524 919 534 904 547C900 481 893 457 868 457C832 457 795 476 762 511C812 542 856 578 889 619ZM826 202C798 164 761 130 716 100C698 129 681 163 667 201L959 227L954 288L648 261C636 305 629 353 626 404L556 404C559 352 567 302 579 255L449 244L454 182L597 195C614 146 634 102 659 65C587 26 505-4 422-25C436-39 458-67 466-81C544-56 623-24 694 16C745-45 806-80 870-80C931-80 956-49 967 62C949 67 927 77 912 91C908 14 899-15 874-15C834-15 791 9 753 52C807 89 854 131 889 180ZM319 344L319 257L166 257L166 344ZM319 400L166 400L166 480L319 480ZM88-79C106-65 134-50 334 32C346 3 357-24 364-45L423-20C404 29 363 116 329 180L274 161L311 84L166 29L166 200L386 200L386 537L98 537L98 44C98 8 76-6 61-13C72-30 84-62 88-79ZM240 848C194 763 112 684 32 634C43 618 61 582 66 568C130 611 195 673 246 741C300 708 364 664 397 637L432 695C397 720 334 760 281 792L301 826Z"/><animate attributeName="opacity" values="1;0;0;0;0;1;1" dur="3s" repeatCount="indefinite"/></svg><svg id="U991Ejp" viewBox="0 0 1000 1000"><path transform="translate(0, 900) scale(1,-1)" d="M656 375C702 354 761 323 793 301L828 350C797 370 737 399 691 418ZM205 840C170 766 108 671 22 598C37 588 59 569 71 554C104 584 134 616 160 648L160 605L355 605L355 660L170 660C203 703 231 745 252 781C308 730 369 654 402 607L441 650L442 644L573 656C592 610 617 569 645 535C576 504 499 480 424 462C438 449 459 420 467 407C541 428 617 455 687 489C741 440 803 411 862 411C921 411 947 435 958 526C940 532 918 543 903 555C899 495 892 476 865 476C829 475 788 492 750 523C802 554 848 589 882 630L820 653C791 620 752 591 706 566C682 593 661 625 643 662L938 688L932 747L799 735L829 774C800 794 746 821 705 838L669 797C708 780 755 754 784 734L619 720C607 757 598 797 595 839L528 839C532 795 540 753 552 714L436 704L439 671C402 722 335 790 279 840ZM820 217C790 173 747 134 697 101C672 136 650 177 632 223L955 252L949 311L613 282C602 322 594 365 591 409L522 409C525 363 533 319 544 277L420 266L426 204L562 216C582 160 608 110 638 67C566 29 483 0 400-20C414-35 436-64 444-79C524-55 605-23 678 17C734-44 800-80 865-80C928-80 954-50 966 64C948 68 924 80 909 93C904 14 895-14 867-14C825-15 779 10 737 53C797 93 848 140 885 195ZM162 384L335 384L335 319L162 319ZM162 433L162 496L335 496L335 433ZM99 548L99-79L162-79L162 19L408 19L408 79L162 79L162 146L398 146L398 204L162 204L162 266L398 266L398 548Z"/><animate attributeName="opacity" values="0;1;1;0;0;0;0" dur="3s" repeatCount="indefinite"/></svg><svg id="U991Esc" viewBox="0 0 1000 1000"><path transform="translate(0, 900) scale(1,-1)" d="M710 796C756 777 813 747 842 725L879 772C849 793 791 821 746 837ZM699 354C750 337 814 309 848 288L884 336C850 356 784 382 734 397ZM826 641C801 609 765 581 724 556C708 581 694 609 681 641L950 663L944 724L661 701C650 743 643 790 640 839L574 839C577 788 585 741 596 696L458 685L463 623L614 635C629 594 646 557 667 525C596 492 514 466 434 447C448 434 469 406 478 392C554 413 632 441 702 477C750 423 806 392 866 392C924 392 947 419 957 518C941 523 919 533 905 545C900 479 894 455 868 455C832 455 795 474 761 510C811 541 856 578 889 619ZM826 202C798 163 760 129 715 99C696 128 679 163 665 201L959 227L954 288L646 261C634 305 627 353 624 404L556 404C559 352 567 302 579 255L449 244L454 182L597 195C614 146 635 103 659 65C587 26 505-4 422-25C436-39 458-67 466-81C544-56 623-24 695 16C746-45 807-80 871-80C932-80 956-50 967 60C950 66 928 75 913 89C908 12 900-17 874-17C833-17 790 7 751 51C806 88 854 131 889 180ZM323 359L323 270L170 270L170 359ZM323 416L170 416L170 493L323 493ZM295 170L324 103L170 44L170 212L392 212L392 550L307 550C297 580 280 621 265 653L205 635C216 609 229 577 238 550L101 550L101 70C101 31 72 9 52 1C65-17 80-51 86-68C102-54 130-38 344 50C355 20 365-8 371-30L433-4C419 45 383 128 352 191ZM230 846C186 758 108 676 28 624C40 607 59 569 64 553C128 600 193 666 245 739C299 692 359 636 389 597L439 648C405 688 338 748 280 794L296 824Z"/><animate attributeName="opacity" values="0;0;0;1;1;0;0" dur="3s" repeatCount="indefinite"/></svg></svg>