<svg id="U9AAE" viewBox="0 0 1000 1000"><svg id="U9AAEjp" viewBox="0 0 1000 1000"><path transform="translate(0, 900) scale(1,-1)" d="M730 778C777 731 829 664 852 621L907 659C884 702 830 766 783 811ZM188 225L376 225L376 152L188 152ZM188 280L188 351L376 351L376 280ZM59 527L59 390L121 390L121-80L188-80L188 97L376 97L376-5C376-15 373-18 362-18C353-19 322-19 288-18C297-35 307-62 309-80C361-80 393-79 416-68C439-57 444-39 444-6L444 405L121 405L121 472L445 472L445 396L510 396L510 527L445 527L445 805L119 805L119 527ZM249 683L249 527L181 527L181 748L382 748L382 683ZM382 527L299 527L299 632L382 632ZM618 834C619 732 623 633 630 538L523 526L530 459L635 472C665 157 735-81 858-81C926-81 950-32 962 130C943 138 919 153 904 169C899 43 888-10 866-10C795-10 733 192 705 480L964 511L956 576L699 546C692 636 689 733 689 834Z"/><animate attributeName="opacity" values="1;0;0;1;1" dur="2s" repeatCount="indefinite"/></svg><svg id="U9AAEsc" viewBox="0 0 1000 1000"><path transform="translate(0, 900) scale(1,-1)" d="M732 770C779 723 831 657 853 613L909 651C886 695 832 758 785 804ZM188 225L376 225L376 152L188 152ZM188 280L188 351L376 351L376 280ZM59 527L59 390L121 390L121-80L188-80L188 97L376 97L376 2C376-8 373-11 362-11C353-12 322-12 288-11C297-28 307-55 309-72C360-73 393-72 416-61C438-50 444-32 444 1L444 405L121 405L121 472L445 472L445 396L510 396L510 527L445 527L445 805L119 805L119 527ZM181 527L181 631L260 631L260 527ZM382 527L310 527L310 682L181 682L181 748L382 748ZM618 834C619 732 623 633 630 538L523 526L530 459L635 472C665 157 735-81 858-81C926-81 950-32 962 130C943 138 919 153 904 169C899 43 888-10 866-10C795-10 733 192 705 480L964 511L956 576L699 546C692 636 689 733 689 834Z"/><animate attributeName="opacity" values="0;1;1;0;0" dur="2s" repeatCount="indefinite"/></svg></svg>