<svg id="U9AD1" viewBox="0 0 1000 1000"><svg id="U9AD1hk" viewBox="0 0 1000 1000"><path transform="translate(0, 900) scale(1,-1)" d="M783 745L861 745L861 623L783 623ZM655 745L732 745L732 623L655 623ZM531 745L604 745L604 623L531 623ZM180 225L329 225L329 152L180 152ZM180 280L180 351L329 351L329 280ZM605 408L605 339L486 339C511 367 534 398 555 433L872 433C866 121 859 14 844-10C837-22 830-24 817-24C804-24 774-23 740-20C749-36 755-62 757-79C791-81 826-81 847-78C871-75 888-69 902-47C926-12 932 100 938 459C938 468 939 492 939 492L587 492C598 516 609 542 618 567L923 567L923 801L471 801L471 567L549 567C526 506 492 448 452 401L452 528L393 528L393 805L118 805L118 528L61 528L61 383L118 383L118-80L180-80L180 97L329 97L329-10C329-20 326-23 316-23C307-24 276-24 241-23C249-39 258-64 261-80C313-80 345-79 366-69C388-59 393-42 393-11L393 405L118 405L118 472L394 472L394 383L436 383L409 356C425 346 449 322 459 310L471 322L471 154L605 154L605 62L440 50L451-8L759 24C765 10 770-4 774-15L821 5C809 41 777 99 747 141L702 126C713 110 724 92 735 73L663 67L663 154L802 154L802 339L663 339L663 408ZM226 683L226 528L173 528L173 748L336 748L336 683ZM336 528L271 528L271 636L336 636ZM524 291L605 291L605 203L524 203ZM663 291L748 291L748 203L663 203Z"/><animate attributeName="opacity" values="1;0;0;0;0;1;1" dur="3s" repeatCount="indefinite"/></svg><svg id="U9AD1sc" viewBox="0 0 1000 1000"><path transform="translate(0, 900) scale(1,-1)" d="M783 744L870 744L870 636L783 636ZM643 744L728 744L728 636L643 636ZM506 744L588 744L588 636L506 636ZM52 539L52 403L104 403L104-77L165-77L165 103L328 103L328-9C328-19 325-22 315-23C305-23 273-23 237-22C245-38 254-62 257-77C309-77 340-77 362-67C384-57 389-40 389-10L389 408L420 408L395 386C410 375 436 351 446 339C478 368 509 404 538 445L868 445C861 126 853 16 836-8C830-21 822-23 810-23C797-23 770-23 740-20C749-36 755-62 757-78C788-80 820-80 840-77C864-74 880-68 895-46C919-11 926 105 934 471C934 480 935 504 935 504L575 504C589 529 602 554 613 580L931 580L931 800L447 800L447 580L542 580C515 522 477 466 434 422L434 539L385 539L385 807L100 807L100 539ZM520 302L601 302L601 206L520 206ZM657 302L741 302L741 206L657 206ZM703 124L729 75L657 69L657 157L797 157L797 350L657 350L657 427L601 427L601 350L467 350L467 157L601 157L601 64L430 51L441-6L751 26L765-12L814 6C802 42 775 98 748 139ZM165 234L328 234L328 158L165 158ZM165 288L165 358L328 358L328 288ZM365 418L111 418L111 484L373 484L373 418ZM158 539L158 632L220 632L220 539ZM324 539L267 539L267 683L158 683L158 746L324 746Z"/><animate attributeName="opacity" values="0;1;1;0;0;0;0" dur="3s" repeatCount="indefinite"/></svg><svg id="U9AD1tc" viewBox="0 0 1000 1000"><path transform="translate(0, 900) scale(1,-1)" d="M786 741L873 741L873 634L786 634ZM646 741L731 741L731 634L646 634ZM510 741L591 741L591 634L510 634ZM172 279C209 254 256 215 278 191L316 232C292 255 246 289 206 315ZM161 101L189 47L324 129L324-2C324-13 320-16 310-16C299-17 265-17 225-16C233-32 243-57 246-74C302-74 337-73 359-63C382-53 388-35 388-3L388 382L399 382C414 371 438 348 449 336C481 365 512 401 541 442L872 442C865 124 857 15 841-10C834-22 827-24 815-24C801-24 775-24 744-21C753-37 759-62 761-79C793-80 824-81 844-78C868-75 885-69 899-46C923-12 930 103 939 469C939 477 939 501 939 501L578 501C592 526 605 551 616 577L935 577L935 797L450 797L450 577L545 577C517 517 478 461 434 416L434 527L391 527L391 805L94 805L94 527L53 527L53 382L102 382L102 218C102 137 96 34 43-43C59-51 85-71 96-83C155 2 165 126 165 217L165 352L324 352L324 181C262 149 203 119 161 101ZM523 299L604 299L604 203L523 203ZM660 299L744 299L744 203L660 203ZM706 122L731 75L660 69L660 154L800 154L800 347L660 347L660 401L604 401L604 347L469 347L469 154L604 154L604 65L437 52L448-5L753 27C759 11 764-3 768-15L817 3C805 39 777 95 751 136ZM362 405L110 405L110 472L374 472L374 405ZM217 683L217 527L155 527L155 748L327 748L327 683ZM327 527L262 527L262 635L327 635Z"/><animate attributeName="opacity" values="0;0;0;1;1;0;0" dur="3s" repeatCount="indefinite"/></svg></svg>