<svg id="U9A3A" viewBox="0 0 1000 1000"><path transform="translate(0, 900) scale(1,-1)" d="M162 83C139 47 103-3 69-33L132-64C165-31 198 18 222 56ZM291 58C304 23 315-24 317-55L383-43C379-14 367 33 353 68ZM458 57C479 26 500-16 508-43L569-25C559 1 538 41 515 72ZM621 62C647 38 675 6 687-17L742 7C728 29 699 59 673 82ZM160 651C170 636 180 618 187 602L103 602L103 558L266 558L266 517L73 517L73 471L266 471L266 414L334 414L334 471L508 471L508 517L334 517L334 558L490 558L490 602L415 602L448 653L416 661L533 661L533 706L333 706L333 750L487 750L487 794L333 794L333 838L266 838L266 794L116 794L116 750L266 750L266 706L63 706L63 661L200 661ZM534 608C560 597 588 583 615 568C591 524 555 490 498 465C512 454 530 432 537 417C600 447 642 486 669 537C700 518 727 499 746 483L780 531C759 549 727 570 692 590C702 622 709 657 714 697L804 697C805 510 812 409 906 409C956 409 969 448 975 547C962 555 943 570 930 583C929 513 925 466 909 466C865 466 867 564 868 754L719 754L723 835L660 835L657 754L545 754L545 697L651 697C648 669 643 643 636 620C613 631 590 642 568 651ZM214 661L385 661C378 644 367 621 356 602L247 602C240 620 227 643 214 661ZM253 272L487 272L487 229L253 229ZM253 313L253 356L487 356L487 313ZM180 403L180 96L842 96C833 25 822-6 809-17C803-23 794-24 781-24C767-24 731-23 693-20C702-35 709-57 710-73C753-75 793-75 813-74C837-73 853-68 868-55C890-36 903 11 916 117C917 126 919 143 919 143L559 143L559 188L815 188L815 229L559 229L559 272L813 272L813 313L559 313L559 356L850 356L850 403ZM253 188L487 188L487 143L253 143Z"/></svg>