<svg id="U9AAB" viewBox="0 0 1000 1000"><svg id="U9AABhk" viewBox="0 0 1000 1000"><path transform="translate(0, 900) scale(1,-1)" d="M461 632L461 562L559 562C551 310 523 99 412-31C430-42 455-63 467-80C547 17 588 152 609 313C650 274 694 231 719 202L758 256C726 289 666 345 617 387C622 443 625 502 627 562L765 562L765 63C765-13 770-31 786-45C800-57 820-62 839-62C850-62 874-62 886-62C906-62 923-59 936-50C949-40 957-25 962-1C966 21 969 87 970 139C952 144 931 155 917 167C917 107 915 61 914 40C912 21 908 11 904 7C900 3 891 1 883 1C875 1 863 1 857 1C849 1 844 2 840 6C835 11 834 28 834 56L834 632L629 632L631 839L562 839L561 632ZM53 527L53 382L108 382L108-78L169-78L169 92L329 92L329-5C329-14 326-17 316-17C307-18 275-18 239-17C248-33 258-57 261-75C312-75 343-74 365-63C386-53 392-36 392-5L392 382L450 382L450 527L396 527L396 805L99 805L99 527ZM222 683L222 527L160 527L160 748L332 748L332 683ZM332 527L267 527L267 635L332 635ZM110 406L110 472L391 472L391 406ZM169 224L329 224L329 146L169 146ZM169 278L169 352L329 352L329 278Z"/><animate attributeName="opacity" values="1;0;0;0;0;1;1" dur="3s" repeatCount="indefinite"/></svg><svg id="U9AABsc" viewBox="0 0 1000 1000"><path transform="translate(0, 900) scale(1,-1)" d="M633 840L631 634L497 634L497 564L629 564C627 501 623 439 616 381C586 406 556 429 527 449L488 398C526 370 566 337 603 302C578 165 529 49 436-31C453-43 477-67 487-85C579-3 631 112 660 247C692 214 720 181 738 153L780 211C756 247 718 288 675 329C686 403 692 482 695 564L787 564C789 175 810-71 906-71C931-72 960-41 976 69C964 76 940 96 930 112C925 55 918 20 909 20C865 21 849 266 854 634L697 634C699 701 699 770 699 840ZM181 230L338 230L338 155L181 155ZM181 284L181 355L338 355L338 284ZM63 537L63 400L117 400L117-84L181-84L181 101L338 101L338 4C338-6 335-10 325-10C316-10 286-10 254-9C262-27 271-55 274-74C322-74 353-74 375-63C396-52 402-32 402 4L402 406L459 406L459 537L406 537L406 805L112 805L112 537ZM366 416L124 416L124 482L395 482L395 416ZM173 537L173 629L238 629L238 537ZM344 537L283 537L283 681L173 681L173 743L344 743Z"/><animate attributeName="opacity" values="0;1;1;0;0;0;0" dur="3s" repeatCount="indefinite"/></svg><svg id="U9AABtc" viewBox="0 0 1000 1000"><path transform="translate(0, 900) scale(1,-1)" d="M176 279C214 254 260 215 283 191L320 232C296 255 251 289 211 315ZM461 632L461 562L559 562C551 310 523 99 412-31C430-42 455-63 467-80C547 17 588 152 609 313C650 274 694 231 719 202L758 256C726 289 666 345 617 387C622 443 625 502 627 562L765 562L765 63C765-13 770-31 786-45C800-57 820-62 839-62C850-62 874-62 886-62C906-62 923-59 936-50C949-40 957-25 962-1C966 21 969 87 970 139C952 144 931 155 917 167C917 107 915 61 914 40C912 21 908 11 904 7C900 3 891 1 883 1C875 1 863 1 857 1C849 1 844 2 840 6C835 11 834 28 834 56L834 632L629 632L631 839L562 839L561 632ZM165 101L194 47L328 129L328-2C328-13 325-16 314-16C304-17 269-17 229-16C238-32 247-57 250-74C307-74 341-73 364-63C386-53 392-35 392-3L392 382L450 382L450 527L396 527L396 805L99 805L99 527L53 527L53 382L107 382L107 218C107 137 101 34 47-43C63-51 90-71 100-83C159 2 170 126 170 217L170 352L328 352L328 181C266 149 208 119 165 101ZM366 405L110 405L110 472L391 472L391 405ZM222 683L222 527L160 527L160 748L332 748L332 683ZM332 527L267 527L267 635L332 635Z"/><animate attributeName="opacity" values="0;0;0;1;1;0;0" dur="3s" repeatCount="indefinite"/></svg></svg>