<svg id="U9A3C" viewBox="0 0 1000 1000"><svg id="U9A3Chk" viewBox="0 0 1000 1000"><path transform="translate(0, 900) scale(1,-1)" d="M189 217C204 165 219 97 224 53L261 62C255 105 239 173 224 224ZM132 206C139 148 144 74 144 24L182 29C181 78 176 152 168 211ZM72 225C66 159 51 62 35 4L78-13C93 46 105 145 112 210ZM592 684L592 580L502 580L502 684ZM647 684L735 684L735 580L647 580ZM643 826C652 802 661 774 668 749L438 749L438 401C438 265 434 81 378-50C394-55 423-70 436-81C486 34 499 200 501 335L937 335L937 580L789 580L789 684L951 684L951 749L741 749C733 778 720 814 707 843ZM527-87C543-76 568-65 720-20C716-6 711 18 710 36L597 7L597 157L709 157L709 212L597 212L597 313L536 313L536 19C536-13 521-19 506-23C515-39 525-69 527-87ZM592 518L592 397L502 397L502 401L502 518ZM647 518L735 518L735 397L647 397ZM789 518L878 518L878 397L789 397ZM734 314L734 14C734-53 749-70 809-70C822-70 879-70 891-70C942-70 959-43 965 66C947 70 923 80 910 90C908 1 904-12 885-12C872-12 827-12 818-12C798-12 794-8 794 14L794 157L937 157L937 212L794 212L794 314ZM218 580L218 491L135 491L135 580ZM383 795L76 795L76 273L329 273L322 116C314 150 295 203 278 243L245 232C263 191 280 137 289 101L322 114C318 36 312 2 304-10C298-19 291-21 280-21C268-21 243-21 213-18C222-34 228-60 229-78C259-80 288-80 306-77C329-75 342-69 355-52C376-23 383 61 390 307C390 316 390 337 390 337L274 337L274 432L369 432L369 491L274 491L274 580L370 580L370 639L274 639L274 732L383 732ZM218 639L135 639L135 732L218 732ZM218 432L218 337L135 337L135 432Z"/><animate attributeName="opacity" values="1;0;0;1;1" dur="2s" repeatCount="indefinite"/></svg><svg id="U9A3Csc" viewBox="0 0 1000 1000"><path transform="translate(0, 900) scale(1,-1)" d="M189 217C204 165 219 97 224 53L261 62C255 105 239 173 224 224ZM132 206C139 148 144 74 144 24L182 29C181 78 176 152 168 211ZM72 225C66 159 50 62 32 4L75-13C92 46 105 144 112 210ZM592 684L592 580L502 580L502 684ZM647 684L735 684L735 580L647 580ZM643 826C652 802 661 774 668 749L438 749L438 401C438 264 433 80 372-50C388-55 416-71 429-81C484 34 498 200 501 335L937 335L937 580L789 580L789 684L951 684L951 749L741 749C733 778 720 814 707 843ZM536 312L536 34C536-2 520-12 506-18C516-35 527-68 530-84L535-80C550-71 581-60 716-20C713-6 710 20 710 39L597 10L597 157L709 157L709 212L597 212L597 312ZM592 518L592 397L502 397L502 401L502 518ZM647 518L735 518L735 397L647 397ZM789 518L878 518L878 397L789 397ZM914 268C884 244 836 211 794 186L794 314L734 314L734 14C734-53 749-70 809-70C822-70 879-70 891-70C942-70 959-43 965 66C947 70 923 80 910 90C908 1 904-12 885-12C872-12 827-12 818-12C798-12 794-8 794 14L794 126C841 149 906 184 952 218ZM218 580L218 491L135 491L135 580ZM383 795L76 795L76 273L329 273L322 116C314 150 295 203 278 243L245 232C263 191 280 137 289 101L322 114C318 36 312 2 304-10C298-19 291-21 280-21C268-21 243-21 213-18C222-34 228-60 229-78C259-80 288-80 306-77C329-75 342-69 355-52C376-23 383 61 390 307C390 316 390 337 390 337L274 337L274 432L369 432L369 491L274 491L274 580L370 580L370 639L274 639L274 732L383 732ZM218 639L135 639L135 732L218 732ZM218 432L218 337L135 337L135 432Z"/><animate attributeName="opacity" values="0;1;1;0;0" dur="2s" repeatCount="indefinite"/></svg></svg>