<svg id="U9BE9" viewBox="0 0 1000 1000"><path transform="translate(0, 900) scale(1,-1)" d="M99 153C87 89 62 0 33-53L85-77C114-21 135 70 149 134ZM339 153C360 110 380 52 388 14L435 35C427 73 405 128 383 172ZM259 141C275 87 292 16 297-30L346-16C339 29 323 99 305 153ZM179 137C185 78 190 1 190-50L240-42C240 9 235 84 228 144ZM167 839C145 745 101 621 29 528C43 520 65 502 76 488L87 504L87 198L398 198L398 531C416 517 435 495 445 477C471 497 496 519 522 544L522 504L842 504L842 555C868 530 895 507 923 484C934 504 956 528 974 542C880 610 790 689 712 787L732 823L677 847C615 728 503 605 398 533L398 587L294 587C318 631 343 683 361 730L321 758L310 754L205 754C213 780 221 806 227 830ZM546 568C593 617 639 674 678 732C727 671 776 617 828 568ZM450 418L450-78L510-78L510 154L590 154L590-62L645-62L645 154L723 154L723-62L778-62L778 154L856 154L856 0C856-10 853-12 847-12C839-12 819-12 795-12C803-29 813-57 815-75C852-75 876-74 895-62C913-51 918-32 918-2L918 418ZM510 217L510 354L590 354L590 217ZM856 354L856 217L778 217L778 354ZM645 354L723 354L723 217L645 217ZM280 694C266 657 248 617 231 587L137 587C155 622 171 658 184 694ZM143 364L217 364L217 260L143 260ZM268 364L341 364L341 260L268 260ZM143 526L217 526L217 423L143 423ZM268 526L341 526L341 423L268 423Z"/></svg>