<svg id="U9BD8" viewBox="0 0 1000 1000"><svg id="U9BD8jp" viewBox="0 0 1000 1000"><path transform="translate(0, 900) scale(1,-1)" d="M370 154C394 111 420 53 430 15L479 36C468 72 442 129 416 172ZM280 146C301 92 319 20 323-27L374-15C369 32 350 103 328 157ZM193 145C204 86 209 11 205-39L259-30C261 18 255 94 243 152ZM107 154C99 75 79-5 34-51L84-81C134-30 151 56 161 141ZM308 690C294 654 276 616 258 587L153 587C171 621 187 655 200 690ZM178 840C156 746 110 624 36 531C52 523 76 503 89 488L99 501L99 200L444 200L444 587L326 587C352 629 377 679 396 725L353 754L340 750L223 750C232 777 240 804 247 830ZM159 365L241 365L241 262L159 262ZM295 365L381 365L381 262L295 262ZM159 525L241 525L241 424L159 424ZM295 525L381 525L381 424L295 424ZM644 384L598 284L462 284L462 221L567 221C542 172 518 126 497 90L560 67L572 89C604 77 637 63 669 49C615 14 544-9 451-24C463-38 476-63 482-81C591-59 674-28 736 18C803-15 865-50 906-79L951-29C910 0 850 33 785 63C823 106 849 158 866 221L961 221L961 284L673 284L714 370ZM642 221L795 221C779 169 755 126 722 92C680 109 639 126 600 139ZM858 829C774 799 613 777 480 764C487 750 497 725 500 709C553 713 610 719 666 727L666 642L466 642L466 580L630 580C584 518 513 460 448 431C463 417 482 393 491 376C553 411 619 469 666 530L666 389L737 389L737 545C790 481 862 417 921 381C932 397 952 420 967 431C905 463 830 522 779 580L954 580L954 642L737 642L737 737C803 748 866 762 915 778Z"/><animate attributeName="opacity" values="1;0;0;1;1" dur="2s" repeatCount="indefinite"/></svg><svg id="U9BD8sc" viewBox="0 0 1000 1000"><path transform="translate(0, 900) scale(1,-1)" d="M356 154C377 112 398 54 405 17L453 35C444 71 422 127 400 170ZM267 146C286 92 302 22 305-24L355-14C351 32 335 102 313 156ZM180 138C190 78 193 1 189-48L242-42C245 8 241 84 230 144ZM93 152C82 92 59 3 36-53L94-77C115-21 136 70 148 131ZM286 694C272 657 254 617 236 587L138 587C156 622 172 658 186 694ZM167 839C145 745 100 621 27 528C42 520 64 502 75 488L87 504L87 199L410 199L410 587L301 587C326 631 351 683 370 730L328 758L317 754L207 754L230 830ZM143 364L219 364L219 260L143 260ZM272 364L352 364L352 260L272 260ZM143 526L219 526L219 423L143 423ZM272 526L352 526L352 423L272 423ZM637 222L792 222C777 171 754 126 714 88C673 106 631 123 590 138C605 163 621 192 637 222ZM448 284L448 222L566 222C544 181 520 143 499 113L501 113C551 95 606 72 660 48C609 18 540-6 446-22C459-35 475-63 481-79C591-57 670-25 728 16C792-16 849-49 888-76L932-26C893 1 838 31 778 59C821 105 846 159 862 222L956 222L956 284L668 284C682 313 695 343 706 371L641 382C629 351 615 318 598 284ZM860 830C772 798 605 776 467 764C475 748 483 724 485 709C542 713 604 719 664 727L664 642L453 642L453 580L624 580C573 517 496 458 424 428C439 415 459 391 469 375C537 409 610 469 664 535L664 389L733 389L733 548C785 483 859 419 922 384C933 400 953 422 968 434C902 464 827 522 777 580L948 580L948 642L733 642L733 737C800 748 863 761 913 778Z"/><animate attributeName="opacity" values="0;1;1;0;0" dur="2s" repeatCount="indefinite"/></svg></svg>