<svg id="U9BCA" viewBox="0 0 1000 1000"><svg id="U9BCAhk" viewBox="0 0 1000 1000"><path transform="translate(0, 900) scale(1,-1)" d="M126 799C176 783 237 752 270 727L307 774C275 797 214 827 164 841ZM52 683C102 671 162 644 194 621L230 671C197 692 137 717 87 727ZM593 840L593 638C593 628 590 625 577 624C563 623 521 623 471 624C480 608 490 585 494 567C559 567 602 567 629 576C656 586 664 602 664 636L664 840ZM447 801C418 737 369 675 314 632C331 623 360 603 373 592C427 638 483 711 515 784ZM68 459L109 405C163 454 228 516 287 574L259 629C188 564 116 497 68 459ZM742 774C802 724 867 652 896 602L956 638C926 688 858 758 798 807ZM189 72C162 26 109-15 40-37L98-82C176-55 223-8 254 43ZM337 50C351 10 361-41 364-74L435-62C433-30 419 21 404 58ZM525 44C554 8 587-43 601-76L668-51C652-19 618 30 588 65ZM732 37C789 3 859-49 893-82L962-45C925-10 852 39 796 71ZM346 377L562 377C545 359 525 342 505 329L286 329C307 345 328 361 346 377ZM775 670C705 552 479 510 255 495C271 482 295 453 304 438L319 440C262 383 175 324 65 280C81 269 103 247 114 231C146 245 176 261 204 277L204 90L856 90L856 329L596 329C621 350 645 373 665 396L624 429L610 425L397 425L422 453L420 454C602 482 778 535 849 654ZM275 189L488 189L488 135L275 135ZM558 189L783 189L783 135L558 135ZM275 285L488 285L488 232L275 232ZM558 285L783 285L783 232L558 232Z"/><animate attributeName="opacity" values="1;0;0;1;1" dur="2s" repeatCount="indefinite"/></svg><svg id="U9BCAsc" viewBox="0 0 1000 1000"><path transform="translate(0, 900) scale(1,-1)" d="M112 786C171 770 250 742 295 722L325 778C282 795 203 821 143 836ZM51 661C111 647 191 621 236 603L259 660C214 677 135 700 74 713ZM447 801C420 749 373 699 324 664C340 653 366 628 378 616C429 657 482 720 515 783ZM57 516L87 455C154 481 237 512 316 543L305 599C212 567 120 535 57 516ZM740 779C799 741 870 683 904 646L957 692C922 730 849 784 790 820ZM589 840L589 650L658 650L658 840ZM174 67C143 31 99-20 54-50L119-87C163-54 204-4 237 33ZM330 42C350 2 370-52 376-85L453-67C446-34 425 18 404 57ZM540 42C566 4 594-47 605-80L679-60C666-27 637 23 610 59ZM777 39C809 2 848-50 866-82L935-56C917-23 877 27 844 62ZM347 524C291 453 187 375 47 320C62 308 82 282 91 265C120 278 148 291 174 305L174 80L855 80L855 360L702 360C732 388 762 419 785 449L744 481L730 478L398 478L423 508L401 513C552 530 752 564 840 631L776 657C698 604 505 578 349 568C362 556 383 528 393 514ZM346 426L686 426C667 403 645 379 623 360L263 360C293 381 321 403 346 426ZM248 198L471 198L471 132L248 132ZM545 198L778 198L778 132L545 132ZM248 309L471 309L471 243L248 243ZM545 309L778 309L778 243L545 243Z"/><animate attributeName="opacity" values="0;1;1;0;0" dur="2s" repeatCount="indefinite"/></svg></svg>