<svg id="U9B4C" viewBox="0 0 1000 1000"><svg id="U9B4Chk" viewBox="0 0 1000 1000"><path transform="translate(0, 900) scale(1,-1)" d="M752 210C790 164 834 101 854 60L908 94C887 133 843 193 804 238ZM628 237C605 183 556 112 508 71C523 61 547 43 558 32C605 75 657 148 688 210ZM482 316L482 254L940 254L940 316L857 316L857 668L933 668L933 730L857 730L857 836L790 836L790 730L636 730L636 836L568 836L568 730L491 730L491 668L568 668L568 316ZM636 668L790 668L790 592L636 592ZM636 533L790 533L790 454L636 454ZM636 396L790 396L790 316L636 316ZM127 512L233 512L233 405L127 405ZM291 512L394 512L394 405L291 405ZM127 672L233 672L233 567L127 567ZM291 672L394 672L394 567L291 567ZM241 844C235 812 220 768 208 733L66 733L66 343L150 343L150 315C150 220 136 77 26-33C41-45 63-67 73-84C194 38 213 206 213 314L213 343L275 343L275 58C275-34 313-55 463-55C494-55 788-55 821-55C932-55 957-30 969 64C950 67 921 77 905 87C898 20 887 7 819 7C756 7 504 7 459 7C357 7 341 17 341 58L341 343L458 343L458 733L278 733L315 833ZM362 90C372 96 392 100 475 113L482 75L522 86C517 122 501 185 487 233L448 226L467 153L400 146C418 190 439 248 449 307L399 319C395 253 373 185 368 167C361 150 357 138 346 136C352 125 359 101 362 90Z"/><animate attributeName="opacity" values="1;0;0;0;0;1;1" dur="3s" repeatCount="indefinite"/></svg><svg id="U9B4Cjp" viewBox="0 0 1000 1000"><path transform="translate(0, 900) scale(1,-1)" d="M774 210C811 168 855 109 875 72L928 106C908 142 864 197 825 239ZM640 237C616 182 565 108 514 67C530 57 553 39 565 27C614 71 668 146 700 210ZM394 325C388 274 375 199 361 146L340 144L340 343L466 343L466 733L280 733L318 833L244 844C237 812 223 768 210 733L66 733L66 343L149 343L149 315C149 220 134 77 25-33C40-44 61-67 71-83C191 39 211 206 211 314L211 343L275 343L275 47C275-46 314-67 461-67C493-67 786-67 820-67C932-67 958-41 969 58C950 61 922 71 906 81C899 8 887-5 818-5C756-5 504-5 458-5C357-5 340 5 340 47L340 130L352 90L497 120L505 91L550 111C543 145 520 200 496 242L453 227C463 207 473 185 482 162L408 152C421 200 436 262 450 314ZM127 512L233 512L233 405L127 405ZM292 512L403 512L403 405L292 405ZM127 672L233 672L233 567L127 567ZM292 672L403 672L403 567L292 567ZM503 316L503 254L957 254L957 316L874 316L874 668L949 668L949 730L874 730L874 836L806 836L806 730L652 730L652 836L585 836L585 730L513 730L513 668L585 668L585 316ZM652 668L806 668L806 592L652 592ZM652 533L806 533L806 454L652 454ZM652 396L806 396L806 316L652 316Z"/><animate attributeName="opacity" values="0;1;1;0;0;0;0" dur="3s" repeatCount="indefinite"/></svg><svg id="U9B4Csc" viewBox="0 0 1000 1000"><path transform="translate(0, 900) scale(1,-1)" d="M482 316L482 254L940 254L940 316L857 316L857 668L933 668L933 730L857 730L857 836L790 836L790 730L636 730L636 836L568 836L568 730L491 730L491 668L568 668L568 316ZM636 668L790 668L790 592L636 592ZM636 533L790 533L790 454L636 454ZM636 396L790 396L790 316L636 316ZM244 845C237 816 224 775 212 742L76 742L76 341L212 341C188 218 140 88 42-23C57-34 79-57 89-72C179 33 230 153 259 271L259 59C259-27 298-47 445-47C477-47 774-47 808-47C925-47 950-19 962 96C946 100 924 107 909 116C886 152 847 201 811 239L760 210C797 168 841 109 861 72L900 96C891 26 875 13 807 13C743 13 488 13 441 13C338 13 320 22 320 60L320 297L265 297L274 341L452 341L452 742L281 742L316 834ZM619 237C601 198 568 151 531 113C518 100 505 88 492 78C507 69 531 50 543 39C592 79 647 149 680 210ZM337 88L337 89C349 98 371 106 474 134C480 117 485 103 488 90L531 113C520 148 493 208 469 252L428 235C438 216 448 196 457 175L389 159C407 205 425 262 436 317L387 333C379 265 353 190 345 172C337 153 330 140 321 138C327 125 334 99 337 88ZM136 514L232 514C231 479 228 442 222 404L136 404ZM292 514L391 514L391 404L283 404C288 442 291 479 292 514ZM136 680L235 680L235 622L234 570L136 570ZM295 680L391 680L391 570L294 570L295 622Z"/><animate attributeName="opacity" values="0;0;0;1;1;0;0" dur="3s" repeatCount="indefinite"/></svg></svg>