<svg id="U9B0F" viewBox="0 0 1000 1000"><svg id="U9B0Fhk" viewBox="0 0 1000 1000"><path transform="translate(0, 900) scale(1,-1)" d="M864 358C845 303 807 225 777 177L830 155C860 201 897 273 927 334ZM823 833C755 793 631 759 537 739C553 726 571 705 581 690C680 713 801 754 881 805ZM858 722C793 675 670 638 567 618C582 604 599 583 608 568C719 593 842 637 918 694ZM890 607C818 547 676 506 538 487C553 473 569 449 578 432C727 460 872 507 953 582ZM476 337C504 278 537 198 552 150L607 180C593 223 558 299 528 359ZM405 433C327 413 189 398 75 390C82 375 89 353 92 338C139 340 190 343 241 348L241 278L61 278L61 218L217 218C172 142 102 62 41 22C55 11 75-11 86-26C138 14 196 81 241 153L241-80L310-80L310 152C346 116 390 69 409 45L450 95C429 116 341 193 310 216L310 218L454 218L454 278L310 278L310 356C361 363 409 372 448 382ZM94 429C115 438 148 441 439 459C448 447 455 436 460 426L510 453C495 478 462 516 433 544L547 544L547 588L212 588L212 623L491 623L491 661L212 661L212 694L491 694L491 734L212 734L212 769L519 769L519 811L145 811L145 588L56 588L56 544L171 544C146 523 122 507 113 501C99 494 86 490 75 488C82 473 91 442 94 429ZM376 529L403 502L182 491C206 506 231 524 254 544L407 544ZM657 432L657 294C657 185 634 59 415-25C428-38 447-65 454-81C598-24 666 50 698 129C742 30 812-43 916-79C925-61 945-34 960-20C833 14 756 107 722 228C724 250 725 272 725 293L725 432Z"/><animate attributeName="opacity" values="1;0;0;1;1" dur="2s" repeatCount="indefinite"/></svg><svg id="U9B0Fsc" viewBox="0 0 1000 1000"><path transform="translate(0, 900) scale(1,-1)" d="M864 358C846 305 809 227 780 181L834 158C863 204 898 274 927 334ZM530 351C520 291 495 221 464 180L521 156C555 204 578 279 589 340ZM823 833C755 794 631 760 538 741C553 729 569 708 580 694C678 717 799 757 879 806ZM858 722C793 676 670 639 567 620C581 607 597 586 606 572C716 597 840 639 915 696ZM890 607C818 548 676 508 538 489C552 475 567 453 576 436C724 463 870 510 950 583ZM405 433C327 413 189 398 75 390C82 375 89 353 92 338C139 340 190 343 241 348L241 278L61 278L61 218L217 218C172 142 102 62 41 22C55 11 75-11 86-26C138 14 196 81 241 153L241-80L310-80L310 153C347 118 393 73 412 51L452 102C430 122 344 191 310 215L310 218L451 218L451 278L310 278L310 356C361 363 409 372 448 382ZM94 429L95 431C116 439 152 442 438 460C447 448 455 436 460 426L510 453C495 478 462 516 433 544L547 544L547 588L212 588L212 623L491 623L491 661L212 661L212 695L491 695L491 734L212 734L212 769L519 769L519 811L145 811L145 588L56 588L56 544L171 544C146 523 122 507 113 501C99 494 86 490 75 488C82 473 91 442 94 429ZM376 529L402 503L184 492C208 507 232 524 254 544L407 544ZM657 432L657 294C657 185 634 59 419-25C432-38 451-65 458-81C600-24 668 52 699 132C743 31 813-43 918-79C927-61 947-34 962-20C833 14 755 110 722 234C724 254 725 273 725 293L725 432Z"/><animate attributeName="opacity" values="0;1;1;0;0" dur="2s" repeatCount="indefinite"/></svg></svg>