<svg id="U9B3A" viewBox="0 0 1000 1000"><svg id="U9B3Ahk" viewBox="0 0 1000 1000"><path transform="translate(0, 900) scale(1,-1)" d="M604 495L843 495L843 440L604 440ZM604 593L843 593L843 539L604 539ZM545 639L545 394L904 394L904 639ZM165 603L340 603L340 502L165 502ZM106 657L106 449L402 449L402 657ZM53 780L53 717L444 717L444 780ZM162 303C174 269 187 226 192 198L237 214C231 240 217 283 204 316ZM569 840C544 749 498 663 441 605C455 596 479 575 488 565C519 599 549 643 574 692L932 692L932 749L600 749C610 774 619 800 627 826ZM472 344L472 287L571 287C540 241 497 201 449 172C462 162 483 140 491 129C510 142 528 157 546 174L637 174C598 121 542 77 483 44C495 36 516 15 525 5C589 45 656 105 700 174L767 174C723 88 654 16 575-33C588-42 610-63 619-73C701-16 780 71 826 174L883 174C873 52 862 2 849-13C842-21 835-22 823-22C810-22 780-22 748-19C757-35 762-61 764-79C796-81 829-80 846-79C868-78 883-71 897-56C919-31 930 35 943 202C944 211 945 231 945 231L599 231C613 249 625 268 636 287L958 287L958 344ZM304 320C295 281 276 223 262 182L149 182L149 130L226 130L226-28L279-28L279 130L357 130L357 182L308 182C322 219 338 265 352 305ZM69 388L69-80L124-80L124 331L383 331L383-1C383-10 380-13 371-13C362-14 334-14 302-13C310-29 317-53 319-70C365-70 395-69 416-59C436-48 440-32 440-2L440 388Z"/><animate attributeName="opacity" values="1;0;0;1;1" dur="2s" repeatCount="indefinite"/></svg><svg id="U9B3Ajp" viewBox="0 0 1000 1000"><path transform="translate(0, 900) scale(1,-1)" d="M623 500L831 500L831 448L623 448ZM623 596L831 596L831 546L623 546ZM171 603L375 603L375 502L171 502ZM109 657L109 449L440 449L440 657ZM56 780L56 717L483 717L483 780ZM71 388L71-80L129-80L129 200C139 192 151 177 156 168C220 199 243 253 250 331L297 331L297 256C297 206 309 195 357 195C365 195 407 195 416 195L420 195L420-8C420-17 417-19 408-20C399-21 370-21 337-20C345-36 353-60 355-76C402-77 433-76 454-66C475-56 479-39 479-8L479 131C491 122 504 109 512 99C545 126 574 156 597 187L659 187C618 116 550 42 487 4C501-7 517-26 526-39C597 12 674 104 715 187L781 187C745 99 684 7 621-39C635-49 652-66 662-79C731-22 799 87 833 187L877 187C870 49 862-2 851-17C845-26 837-27 827-27C815-27 790-27 761-23C769-39 775-62 775-79C806-80 836-80 853-79C875-77 889-71 901-56C922-32 930 35 939 215C940 224 940 242 940 242L634 242C645 259 654 277 662 294L961 294L961 350L503 350L503 294L600 294C575 244 535 188 479 144L479 388ZM600 840C577 769 534 679 466 610C483 602 506 583 518 569C534 586 549 604 562 622L562 400L894 400L894 644L578 644C590 662 601 681 611 700L945 700L945 757L639 757C650 781 660 806 668 829ZM159 150L159 99L244 99L244-46L299-46L299 99L387 99L387 150ZM420 331L420 243C418 241 414 241 407 241C400 241 368 241 362 241C348 241 346 242 346 257L346 331ZM129 204L129 331L203 331C197 269 179 228 129 204Z"/><animate attributeName="opacity" values="0;1;1;0;0" dur="2s" repeatCount="indefinite"/></svg></svg>