<svg id="U9BAB" viewBox="0 0 1000 1000"><svg id="U9BABhk" viewBox="0 0 1000 1000"><path transform="translate(0, 900) scale(1,-1)" d="M757 569C808 503 873 412 904 358L965 401C932 452 866 539 815 604ZM573 602C538 530 486 450 436 396C454 386 484 364 496 351C544 409 603 501 644 579ZM359 153C381 110 403 51 410 13L460 34C450 72 427 128 404 172ZM270 141C287 87 304 16 309-30L358-16C352 29 335 99 318 153ZM184 137C191 78 195 1 195-50L247-42C246 9 241 84 234 144ZM96 152C84 91 61 2 38-54L91-80C113-23 133 69 146 130ZM620 817C644 779 671 729 686 697L452 697L452 628L947 628L947 697L688 697L751 729C738 760 708 808 683 845ZM775 420C758 349 732 284 697 226C660 284 631 348 609 415L544 397C572 312 608 233 654 163C593 85 514 22 416-26C431-39 454-65 463-81C557-33 635 28 697 103C760 25 835-38 923-78C935-58 957-30 974-16C883 22 805 85 742 164C788 234 822 313 846 403ZM145 362L227 362L227 259L145 259ZM282 362L360 362L360 259L282 259ZM145 523L227 523L227 422L145 422ZM282 523L360 523L360 422L282 422ZM244 586L146 586C165 621 181 658 195 694L293 694C279 657 261 616 244 586ZM173 839C151 745 107 621 34 528C49 520 72 501 83 486L86 490L86 196L420 196L420 586L309 586C333 630 357 681 375 728L335 759L322 755L216 755L238 830Z"/><animate attributeName="opacity" values="1;0;0;1;1" dur="2s" repeatCount="indefinite"/></svg><svg id="U9BABjp" viewBox="0 0 1000 1000"><path transform="translate(0, 900) scale(1,-1)" d="M370 154C394 111 420 53 430 15L479 36C468 72 442 129 416 172ZM280 146C301 92 319 20 323-27L374-15C369 32 350 103 328 157ZM193 145C204 86 209 11 205-39L259-30C261 18 255 94 243 152ZM107 154C99 75 79-5 34-51L84-81C134-30 151 56 161 141ZM764 570C816 513 876 434 901 384L962 421C935 471 875 547 821 603ZM308 690C295 654 278 616 262 587L152 587C172 621 189 655 204 690ZM577 597C546 531 497 465 444 419L444 587L329 587C353 630 378 680 395 725L352 754L339 750L229 750C239 777 247 804 255 830L187 840C161 746 110 623 29 531C46 523 69 502 81 488L99 510L99 200L444 200L444 416C461 405 487 384 499 373C552 423 609 502 646 577ZM159 365L241 365L241 262L159 262ZM295 365L381 365L381 262L295 262ZM159 525L241 525L241 424L159 424ZM295 525L381 525L381 424L295 424ZM610 414L546 398C573 305 611 220 658 148C598 76 521 20 425-20C440-34 464-65 472-81C564-38 640 18 702 88C762 15 836-43 924-81C935-62 957-33 974-19C883 15 808 73 747 146C798 219 836 305 863 406L788 418C769 338 740 268 702 208C663 270 632 339 610 414ZM451 698L451 630L959 630L959 698L735 698L735 840L662 840L662 698Z"/><animate attributeName="opacity" values="0;1;1;0;0" dur="2s" repeatCount="indefinite"/></svg></svg>