<svg id="U9C1E" viewBox="0 0 1000 1000"><path transform="translate(0, 900) scale(1,-1)" d="M365 156C384 118 404 67 412 33L459 51C450 83 430 134 409 171ZM275 146C295 94 311 25 315-19L364-7C360 37 343 105 322 157ZM189 145C200 86 204 11 200-39L253-31C255 18 250 93 239 152ZM104 154C96 75 77-5 34-51L84-81C132-30 148 57 157 141ZM497 157C489 91 471 18 437-24L490-50C524-4 539 73 548 143ZM581 150C596 99 606 33 606-10L658 0C657 42 645 109 630 159ZM671 160C693 119 714 66 721 31L767 46C759 80 737 133 715 173ZM294 690C281 654 264 616 249 587L147 587C165 621 180 655 193 690ZM171 839C149 745 105 621 32 528C48 520 72 501 84 486L96 503L96 200L427 200L427 587L314 587C338 629 362 680 380 725L337 754L324 750L214 750C223 777 231 804 238 830ZM155 365L232 365L232 260L155 260ZM286 365L366 365L366 260L286 260ZM155 527L232 527L232 423L155 423ZM286 527L366 527L366 423L286 423ZM654 841C647 812 633 771 619 738L492 738L492 218L868 218C865 171 862 132 859 101C846 129 821 167 796 195L757 177C782 145 808 102 820 72L858 91C851 27 844-3 834-14C828-22 820-24 807-24C795-24 765-24 732-20C740-36 747-62 748-78C783-81 818-81 836-79C860-77 876-70 889-54C913-27 924 48 935 251C936 261 936 281 936 281L561 281L561 355L961 355L961 418L561 418L561 492L884 492L884 738L690 738C704 765 718 796 732 827ZM561 676L815 676L815 554L561 554Z"/></svg>