<svg id="U9C56" viewBox="0 0 1000 1000"><svg id="U9C56hk" viewBox="0 0 1000 1000"><path transform="translate(0, 900) scale(1,-1)" d="M97 153C87 90 64 1 38-53L87-74C111-18 131 73 143 137ZM242 141C257 87 274 17 280-30L327-17C320 28 302 98 285 152ZM170 137C177 78 181 1 181-50L229-43C229 8 224 84 216 143ZM508 678C523 634 538 575 544 539L594 552C587 588 571 645 555 689ZM265 694C253 657 238 617 223 587L137 587C154 622 168 658 180 694ZM159 839C140 746 103 622 38 528C51 520 71 501 81 487L88 498L88 198L374 198L374 587L280 587C303 631 326 684 343 732L304 758L293 754L198 754C205 781 212 807 217 832ZM139 364L209 364L209 260L139 260ZM253 364L322 364L322 260L253 260ZM139 526L209 526L209 423L139 423ZM253 526L322 526L322 423L253 423ZM407 792L407 380C407 290 405 181 385 84C378 110 367 141 357 167L318 153C331 117 347 68 354 37L377 47C370 21 362-3 352-25C365-31 390-52 399-65C457 59 465 246 465 380L465 725L960 725L960 792ZM498 436L498 163L582 163C571 80 542 13 466-28C480-37 498-59 505-73C596-23 631 59 644 163L722 163L722 347C734 338 748 326 753 318C774 361 791 414 803 473L909 473C903 419 896 361 888 322L928 310C940 363 953 451 962 523L930 534L922 531L814 531C822 580 828 632 833 685L779 693C770 576 756 461 722 377L722 436L681 436L681 220L636 220L636 472L727 472L727 530L667 530C684 574 703 632 719 681L665 696C656 648 635 578 617 530L482 530L482 472L588 472L588 220L538 220L538 436ZM807 429C800 233 778 54 652-40C665-49 683-67 691-79C762-25 803 53 828 146C846 62 878-24 935-78C945-65 963-47 977-38C889 45 863 205 854 309C858 348 860 388 862 429Z"/><animate attributeName="opacity" values="1;0;0;1;1" dur="2s" repeatCount="indefinite"/></svg><svg id="U9C56jp" viewBox="0 0 1000 1000"><path transform="translate(0, 900) scale(1,-1)" d="M238 146C254 92 264 24 265-22L308-13C307 31 296 101 279 154ZM162 144C168 84 167 10 161-39L207-35C212 14 212 89 204 147ZM82 153C77 74 65-8 28-54L72-80C113-29 125 59 131 144ZM668 706C659 662 639 598 624 557L668 543C686 582 705 640 723 691ZM492 688C512 643 529 583 532 544L582 559C577 597 559 657 537 701ZM134 367L194 367L194 257L134 257ZM240 367L302 367L302 257L240 257ZM134 530L194 530L194 422L134 422ZM240 530L302 530L302 422L240 422ZM204 587L129 587C146 621 161 657 173 692L246 692C234 656 219 617 204 587ZM153 840C132 748 93 625 28 531C43 524 65 507 76 494L81 501L81 200L356 200L356 587L263 587C285 630 307 681 324 728L284 754L272 750L192 750C201 778 208 806 214 832ZM399 793L399 382C399 294 397 189 378 93C371 118 361 146 351 168L311 156C327 118 341 68 345 35L366 42C357 11 346-19 332-46C347-52 373-68 384-78C449 48 458 241 458 382L458 730L958 730L958 793ZM669 429L669 224L625 224L626 276L626 489L727 489L727 541L479 541L479 489L578 489L578 276L577 224L537 224L537 429L492 429L492 120L537 120L537 172L573 172C564 90 539 14 472-48C484-55 503-70 512-80C586-9 613 78 622 172L669 172L669 131L713 131L713 334C724 325 736 313 742 306C768 357 786 420 799 490L801 490L801 363C801 239 787 79 667-46C682-55 701-70 710-82C779-8 815 76 833 159C851 73 882-19 935-81C943-65 962-41 973-30C885 59 859 234 851 356L851 362L851 490L905 490C901 428 894 360 888 316L930 309C940 366 950 463 956 540L924 548L915 546L808 546C815 595 821 646 825 698L773 705C765 576 750 451 713 363L713 429Z"/><animate attributeName="opacity" values="0;1;1;0;0" dur="2s" repeatCount="indefinite"/></svg></svg>