<svg id="U9C87" viewBox="0 0 1000 1000"><path transform="translate(0, 900) scale(1,-1)" d="M48 37L58-31C170-18 324 0 473 18L472 79C315 62 153 46 48 37ZM343 694C325 655 303 614 281 583L141 583C165 619 185 657 204 694ZM195 841C164 753 110 637 35 547C51 538 75 520 87 507L90 511L90 148L453 148L453 583L346 583C377 627 408 680 432 727L390 757L376 753L231 753C242 779 253 805 262 830ZM150 338L243 338L243 208L150 208ZM296 338L392 338L392 208L296 208ZM150 523L243 523L243 395L150 395ZM296 523L392 523L392 395L296 395ZM660 838L660 401L520 401L520-80L587-80L587-20L844-20L844-77L914-77L914 401L733 401L733 582L954 582L954 653L733 653L733 838ZM587 50L587 333L844 333L844 50Z"/></svg>