<svg id="U9C61" viewBox="0 0 1000 1000"><svg id="U9C61jp" viewBox="0 0 1000 1000"><path transform="translate(0, 900) scale(1,-1)" d="M303 157C321 114 336 59 341 22L385 36C380 72 363 127 343 169ZM230 148C245 94 256 27 256-17L300-8C299 35 288 103 271 155ZM159 144C165 84 165 10 159-39L205-35C210 14 210 89 202 147ZM82 153C77 74 65-8 28-54L72-80C113-29 124 59 130 144ZM841 798C868 761 897 711 908 677L960 700C948 733 918 782 889 818ZM453 557L531 557L531 424L453 424ZM453 368L531 368L531 235L453 235ZM453 744L531 744L531 612L453 612ZM397 806L397 172L589 172L589 806ZM511 137C537 85 562 17 570-27L622-7C614 35 587 102 559 153ZM427 155C409 81 379 5 339-47C353-53 376-68 386-76C425-22 460 62 481 144ZM134 367L191 367L191 257L134 257ZM237 367L299 367L299 257L237 257ZM134 530L191 530L191 422L134 422ZM237 530L299 530L299 422L237 422ZM203 587L129 587C146 622 161 657 173 692L244 692C232 656 217 616 203 587ZM153 840C132 748 93 625 26 531C41 524 64 507 75 493L81 502L81 200L354 200L354 587L262 587C283 630 305 681 322 728L281 754L270 750L192 750C201 778 209 806 215 832ZM885 489C874 425 861 365 845 308C839 390 834 484 832 588L961 588L961 647L831 647C830 708 829 772 830 838L771 838L774 647L605 647L605 588L776 588C780 434 788 294 801 182C764 95 717 20 656-38C668-48 689-68 697-78C743-31 782 24 815 88C835-18 864-81 907-81C955-81 971-38 980 71C968 77 950 88 938 103C935 18 927-24 916-24C893-24 872 52 857 179C893 269 919 370 939 481ZM658 537L658 375L603 375L603 320L658 320L658 65L712 65L712 320L771 320L771 375L712 375L712 537Z"/><animate attributeName="opacity" values="1;0;0;1;1" dur="2s" repeatCount="indefinite"/></svg><svg id="U9C61sc" viewBox="0 0 1000 1000"><path transform="translate(0, 900) scale(1,-1)" d="M833 798C860 761 888 709 899 675L949 697C938 730 909 781 881 818ZM445 557L526 557L526 424L445 424ZM445 368L526 368L526 235L445 235ZM445 744L526 744L526 612L445 612ZM391 806L391 172L581 172L581 806ZM501 137C524 91 547 28 555-11L604 7C596 45 572 106 547 151ZM427 155C413 84 388 13 352-37C365-43 388-57 397-64C432-12 461 67 479 145ZM308 158C325 113 341 55 346 17L389 31C384 68 367 126 348 170ZM233 146C250 93 262 24 263-21L306-12C304 33 292 102 275 154ZM161 144C169 83 172 7 167-43L212-39C216 12 214 88 203 148ZM87 153C79 88 62 1 38-51L86-73C110-18 125 72 134 138ZM889 488C878 408 862 333 841 264C834 355 828 465 826 588L956 588L956 647L825 647L824 838L767 838L770 647L600 647L600 588L771 588C775 417 783 265 798 149C765 76 722 13 668-37C680-46 700-68 707-77C748-37 783 10 813 62C832-22 858-72 895-72C943-72 958-28 967 80C955 86 937 98 925 112C922 28 915-14 904-14C884-14 867 44 854 144C895 241 924 355 943 482ZM652 541L652 381L598 381L598 326L652 326C652 216 643 77 592-29C606-36 625-52 634-62C696 52 705 202 705 326L764 326L764 381L705 381L705 541ZM251 692C241 656 228 617 215 587L137 587C153 621 167 657 179 692ZM155 840C136 748 98 626 34 532C50 525 72 507 84 494L86 497L86 200L356 200L356 587L274 587C294 630 314 681 329 727L289 754L276 750L197 750C205 778 212 806 218 832ZM139 367L198 367L198 257L139 257ZM244 367L302 367L302 257L244 257ZM139 530L198 530L198 422L139 422ZM244 530L302 530L302 422L244 422Z"/><animate attributeName="opacity" values="0;1;1;0;0" dur="2s" repeatCount="indefinite"/></svg></svg>