<svg id="U9C91" viewBox="0 0 1000 1000"><path transform="translate(0, 900) scale(1,-1)" d="M48 37L60-31C163-13 304 11 439 37L435 97C292 74 145 50 48 37ZM679 389L679 262L495 262L495 194L679 194L679 24L450 24L450-46L962-46L962 24L755 24L755 194L926 194L926 262L755 262L755 389ZM680 838L680 706L505 706L505 638L680 638L680 490L477 490L477 421L947 421L947 490L755 490L755 638L921 638L921 706L755 706L755 838ZM338 694C321 656 298 614 277 583L145 583C168 619 189 657 206 694ZM193 841C166 752 114 635 36 547C53 538 76 520 88 506L90 508L90 148L433 148L433 583L343 583C375 627 406 679 429 726L387 757L374 753L232 753C243 780 253 806 261 831ZM148 338L238 338L238 208L148 208ZM290 338L374 338L374 208L290 208ZM148 523L238 523L238 395L148 395ZM290 523L374 523L374 395L290 395Z"/></svg>