<svg id="U9C65" viewBox="0 0 1000 1000"><path transform="translate(0, 900) scale(1,-1)" d="M535 247C525 191 507 137 477 97C490 91 510 80 519 73C548 115 570 177 583 238ZM253 146C270 93 283 24 285-21L334-11C331 34 317 102 297 155ZM171 145C179 85 182 10 177-39L228-33C232 16 229 91 219 151ZM92 154C85 78 68-6 31-53L79-79C120-27 135 62 143 142ZM334 156C351 119 369 70 375 37L403 48C393 14 380-19 363-50C377-56 403-72 413-83C485 44 498 223 498 342L498 417L732 417C741 287 756 182 776 102C740 44 694-5 640-43C654-52 678-71 687-82C728-50 765-12 797 32C824-42 857-79 895-79C941-79 962-55 970 65C956 70 938 82 926 94C922 7 915-19 899-19C880-19 857 18 836 93C878 166 910 252 930 350L871 359C859 294 841 235 817 181C806 244 797 323 791 417L961 417L961 475L895 475L932 507C914 525 879 550 850 566L810 535C835 520 869 495 886 475L788 475L786 569L960 569L960 627L738 627L738 702L905 702L905 757L738 757L738 840L673 840L673 627L568 627L568 787L505 787L505 627L415 627L415 569L725 569L729 475L439 475L439 343C439 269 435 173 413 81C404 110 390 143 376 170ZM686 230C677 193 664 160 648 130L648 306L723 306L723 355L520 355L520 306L600 306L600 61C567 23 527-7 481-31C492-40 510-59 516-69C622-8 703 87 737 221ZM266 690C254 654 238 616 223 587L135 587C152 621 166 656 179 690ZM160 840C139 747 97 623 28 529C43 522 66 503 77 490L87 504L87 200L392 200L392 587L284 587C307 630 330 681 347 727L306 754L295 750L199 750C208 778 216 806 223 832ZM143 366L212 366L212 259L143 259ZM262 366L334 366L334 259L262 259ZM143 528L212 528L212 423L143 423ZM262 528L334 528L334 423L262 423Z"/></svg>