<svg id="U9DEA" viewBox="0 0 1000 1000"><path transform="translate(0, 900) scale(1,-1)" d="M169 70C147 31 107-18 66-47L126-78C168-46 202 3 228 44ZM301 48C315 12 325-36 326-68L391-56C389-25 378 22 361 58ZM455 46C475 15 495-28 502-56L563-40C554-13 534 29 512 60ZM607 46C631 23 655-9 666-33L721-9C709 13 684 44 658 66ZM191 699L397 699L397 663L191 663ZM191 625L397 625L397 588L191 588ZM191 771L397 771L397 736L191 736ZM126 810L126 550L463 550L463 810ZM603 699L816 699L816 663L603 663ZM603 625L816 625L816 588L603 588ZM603 771L816 771L816 736L603 736ZM540 810L540 550L882 550L882 810ZM74 519L74 381L144 381L144 469L444 469L425 432L223 432L223 79L819 79C809 14 798-15 787-26C780-32 772-33 760-33C746-33 713-32 678-28C686-42 692-62 694-76C731-78 769-78 788-77C811-76 828-72 842-60C864-42 878 0 890 97C892 106 893 122 893 122L296 122L296 161L934 161L934 205L296 205L296 232L777 232L777 432L498 432C507 443 516 455 524 469L858 469L858 381L930 381L930 519ZM704 311L704 275L296 275L296 311ZM704 350L296 350L296 390L704 390Z"/></svg>