<svg id="U9D7D" viewBox="0 0 1000 1000"><path transform="translate(0, 900) scale(1,-1)" d="M568 177C558 117 538 33 516-17L567-41C589 11 607 95 618 156ZM640 149C651 96 659 28 660-16L704-8C704 37 695 104 683 156ZM718 159C736 115 754 57 760 20L802 33C796 70 777 127 758 170ZM70 649C100 626 130 599 159 570C128 522 90 484 47 457C61 447 83 423 93 410C134 438 171 476 203 524C225 499 243 476 256 455L299 502C284 525 261 552 235 580C263 638 286 707 300 789L262 803L252 801L66 801L66 738L229 738C219 696 205 659 189 625C163 648 136 671 111 691ZM308 646C339 625 371 599 401 572C367 522 325 483 277 456C291 446 313 421 323 407C370 436 412 476 447 529C475 500 499 472 515 449L558 499C539 525 511 555 479 585C507 641 529 709 543 789L507 803L495 801L315 801L315 738L471 738C461 697 448 659 432 626C404 649 375 671 348 690ZM60 217C93 189 127 156 157 123C125 64 86 19 40-12C53-22 76-46 85-60C129-28 167 16 199 72C219 46 236 22 248 0L294 44C279 71 256 102 229 133C256 196 276 271 289 359L253 371L242 370L58 370L58 306L220 306C211 261 199 219 185 182C158 209 130 235 103 257ZM304 370L304 306L463 306C454 263 442 224 427 188C403 211 378 233 353 252L308 214C338 190 370 161 398 131C363 68 317 21 265-12C278-22 300-46 310-60C360-26 404 21 440 83C460 60 476 37 487 17L535 59C520 84 498 113 471 143C499 204 520 275 534 359L497 371L486 370ZM839 576L839 509L639 509L639 576ZM839 627L639 627L639 692L839 692ZM793 180C813 144 836 95 845 63L879 79C872 27 865 1 856-9C849-18 842-19 828-19C815-19 783-19 747-15C755-31 762-56 762-73C798-76 833-75 853-74C876-72 890-66 904-49C927-22 938 52 950 250C951 260 952 279 952 279L639 279L639 339L955 339L955 395L639 395L639 454L901 454L901 747L740 747L776 829L705 842C700 815 689 778 677 747L576 747L576 221L891 221C888 167 884 124 880 91C869 122 850 163 829 195Z"/></svg>