<svg id="U9DDA" viewBox="0 0 1000 1000"><svg id="U9DDAhk" viewBox="0 0 1000 1000"><path transform="translate(0, 900) scale(1,-1)" d="M309 344C260 298 167 254 87 230C102 220 119 203 129 191C212 218 306 265 364 320ZM382 256C317 195 193 143 78 116C93 104 108 84 118 71C239 103 366 160 440 231ZM471 180C397 78 238 12 46-17C60-32 75-56 83-73C285-35 451 36 536 156ZM35 536L65 490C109 510 156 534 203 557L192 600C132 575 78 551 35 536ZM50 699C78 672 114 635 132 611L175 643C157 665 120 701 92 726ZM285 550L315 504C360 524 408 548 456 571L446 614C384 589 327 565 285 550ZM297 698C326 670 361 632 380 608L420 638C401 661 364 697 335 723ZM558 177C548 117 528 30 506-22L556-43C578 11 594 99 605 160ZM630 149C637 97 643 29 644-16L688-9C687 35 681 102 673 154ZM707 159C721 115 734 59 738 22L779 32C775 68 761 124 746 167ZM781 177C798 144 815 99 822 71L860 84C852 112 834 156 817 188ZM301 496C239 430 125 371 24 337C39 325 55 305 65 291C140 319 221 361 286 411C365 369 458 313 507 275L539 324C492 358 404 409 329 447L354 472ZM48 802L48 747L205 747L205 505C205 496 202 494 193 493C185 493 160 493 130 493C137 480 142 463 144 450C188 450 219 450 237 458C255 465 261 477 261 504L261 802ZM298 803L298 747L457 747L457 505C457 497 456 495 447 494C439 494 415 494 387 494C393 480 399 461 400 447C443 447 473 447 491 455C509 463 514 477 514 504L514 803ZM708 840C702 814 691 777 679 747L572 747L572 222L882 222C873 63 863 2 849-15C842-23 835-24 822-24C810-24 780-24 746-21C755-36 760-59 762-75C795-77 829-77 847-75C870-74 885-68 898-52C921-25 932 48 942 253C942 263 943 281 943 281L635 281L635 340L957 340L957 396L635 396L635 454L905 454L905 747L743 747L779 827ZM635 692L845 692L845 626L635 626ZM635 509L635 578L845 578L845 509Z"/><animate attributeName="opacity" values="1;0;0;0;0;1;1" dur="3s" repeatCount="indefinite"/></svg><svg id="U9DDAjp" viewBox="0 0 1000 1000"><path transform="translate(0, 900) scale(1,-1)" d="M531 172C523 98 505 21 467-24L514-52C557-3 574 81 582 160ZM622 153C631 100 638 32 637-12L681-6C681 38 674 106 663 158ZM705 161C722 117 739 60 744 22L786 33C780 70 762 127 743 170ZM782 177C804 146 826 103 836 75L874 93C863 120 840 161 818 192ZM301 331C258 282 177 233 107 205C121 195 137 178 146 167C222 199 305 252 355 311ZM373 245C320 185 217 131 121 100C136 89 152 72 161 60C261 94 365 153 426 223ZM430 149C364 61 227-2 75-33C88-47 104-68 113-84C275-45 416 24 492 125ZM712 840C706 815 694 777 682 747L559 747L559 221L888 221C879 61 867-1 852-18C845-26 838-28 824-28C811-28 780-27 745-23C753-39 759-62 760-78C796-80 831-80 850-79C874-77 889-71 903-55C927-28 938 46 951 251C952 261 952 279 952 279L625 279L625 339L960 339L960 395L625 395L625 454L907 454L907 747L749 747L786 827ZM625 692L841 692L841 627L625 627ZM625 509L625 576L841 576L841 509ZM175 610C142 563 87 517 34 485C47 476 68 456 77 447C119 476 166 518 203 561L203 468L265 468L265 804L56 804L56 746L203 746L203 713L156 728C126 691 81 654 36 626C49 617 70 598 79 589C121 619 169 663 203 705L203 601ZM423 613C392 569 343 528 293 496C306 488 327 468 335 459C375 485 418 525 452 565L452 466L514 466L514 804L304 804L304 746L452 746L452 715L404 731C377 695 334 660 292 632C305 623 326 605 334 596C375 624 421 668 452 709L452 604ZM260 466C213 406 130 338 21 289C35 279 53 257 62 242C165 294 241 355 294 408C364 362 444 293 486 249L533 297C484 346 391 417 316 466Z"/><animate attributeName="opacity" values="0;1;1;0;0;0;0" dur="3s" repeatCount="indefinite"/></svg><svg id="U9DDAsc" viewBox="0 0 1000 1000"><path transform="translate(0, 900) scale(1,-1)" d="M535 170C526 99 507 20 471-26L519-54C559-3 576 81 587 156ZM622 153C631 100 638 32 637-12L681-6C681 38 674 106 663 158ZM705 161C722 117 739 60 744 22L786 33C780 70 762 127 743 170ZM782 177C804 146 826 103 836 75L874 93C863 120 840 161 818 192ZM295 340C250 287 166 235 92 205C106 195 122 178 132 167C211 201 296 257 349 319ZM370 254C313 187 202 127 99 92C113 81 129 65 138 52C245 90 356 155 422 232ZM427 157C359 68 220-2 71-37C85-49 101-69 110-83C265-42 407 32 485 132ZM296 684C327 663 365 630 385 605L420 650C398 674 359 706 329 724ZM50 686C79 665 113 632 130 607L166 648C147 673 111 705 83 723ZM712 840C706 815 694 777 682 747L559 747L559 221L888 221C879 61 867-1 852-18C845-26 838-28 824-28C811-28 780-27 745-23C753-39 759-62 760-78C796-80 831-80 850-79C874-77 889-71 903-55C927-28 938 46 951 251C952 261 952 279 952 279L625 279L625 339L960 339L960 395L625 395L625 454L907 454L907 747L749 747L786 827ZM625 692L841 692L841 627L625 627ZM625 509L625 576L841 576L841 509ZM272 489L259 474L259 804L56 804L56 746L198 746L198 623C135 589 72 555 29 535L48 478L198 566L198 468L253 468C197 409 113 355 29 318C41 306 60 277 65 265C143 300 221 351 282 407C363 369 449 316 493 280L531 334C488 367 405 413 324 449L344 473L308 481C350 504 402 535 452 566L452 466L514 466L514 804L294 804L294 746L452 746L452 621C390 588 327 554 284 535L302 482Z"/><animate attributeName="opacity" values="0;0;0;1;1;0;0" dur="3s" repeatCount="indefinite"/></svg></svg>