<svg id="U9D31" viewBox="0 0 1000 1000"><svg id="U9D31hk" viewBox="0 0 1000 1000"><path transform="translate(0, 900) scale(1,-1)" d="M498 175C485 116 458 30 433-23L494-49C516 6 540 93 555 152ZM585 149C597 96 606 28 605-16L656-8C655 36 646 104 633 156ZM673 159C693 115 712 57 719 20L766 33C759 70 738 127 717 170ZM759 178C782 142 805 94 815 62L859 79C849 110 824 158 801 193ZM119 838L119 722L39 722L39 655L119 655L119 540L188 540L188 655L245 655L245 722L188 722L188 838ZM269 721L269 654L330 654L330 543L398 543L398 654L469 654L469 721L398 721L398 838L330 838L330 721ZM364 524C346 452 320 377 286 306C237 365 184 424 136 475L82 437C137 378 197 308 251 239C196 143 123 55 32-9C49-21 73-45 85-59C171 4 241 86 297 178C335 127 368 78 390 38L449 82C422 128 382 185 335 245C379 329 413 419 439 509ZM818 576L818 509L569 509L569 576ZM818 627L569 627L569 692L818 692ZM500 747L500 221L879 221C868 64 855 1 839-16C831-25 823-26 808-26C794-26 759-25 720-22C728-38 735-62 735-79C776-81 814-81 836-79C860-77 878-71 893-55C918-27 931 47 945 250C946 260 946 279 946 279L569 279L569 339L961 339L961 395L569 395L569 454L886 454L886 747L688 747C700 772 713 801 726 829L648 842C641 815 628 778 616 747Z"/><animate attributeName="opacity" values="1;0;0;1;1" dur="2s" repeatCount="indefinite"/></svg><svg id="U9D31sc" viewBox="0 0 1000 1000"><path transform="translate(0, 900) scale(1,-1)" d="M491 175C478 116 451 30 426-23L487-49C509 6 533 93 548 152ZM578 149C590 96 599 28 599-16L649-8C649 36 639 104 626 156ZM667 159C687 115 706 57 713 20L760 33C752 70 732 127 710 170ZM753 178C775 142 799 94 808 62L852 79C842 110 818 158 794 193ZM324 838L324 722L213 722L213 838L143 838L143 722L39 722L39 651L143 651L143 543L213 543L213 651L324 651L324 541L394 541L394 651L482 651L482 722L394 722L394 838ZM364 524C345 454 320 382 286 313C238 370 185 426 135 475L82 437C139 381 199 314 251 247C195 148 121 57 29-9C46-21 71-44 83-59C170 6 240 91 298 186C337 132 369 81 390 38L448 82C423 131 383 191 336 252C379 334 413 421 439 507ZM811 576L811 509L562 509L562 576ZM811 627L562 627L562 692L811 692ZM493 747L493 221L872 221C861 64 848 1 832-16C825-25 817-26 802-26C788-26 752-25 713-22C722-38 729-62 730-79C769-81 808-81 829-79C854-77 871-71 886-55C912-27 925 47 938 250C939 260 940 279 940 279L562 279L562 339L963 339L963 395L562 395L562 454L880 454L880 747L681 747L720 829L641 842C634 815 622 778 610 747Z"/><animate attributeName="opacity" values="0;1;1;0;0" dur="2s" repeatCount="indefinite"/></svg></svg>