<svg id="U9E46" viewBox="0 0 1000 1000"><path transform="translate(0, 900) scale(1,-1)" d="M191 808C159 727 100 648 39 598C53 585 78 556 88 542C155 602 221 695 259 789ZM309 775C362 722 427 648 458 601L512 644C481 689 413 762 360 813ZM631 612C666 579 709 530 731 501L778 541C756 569 712 614 675 647ZM501 192L501 132L816 132L816 192ZM272 621C224 498 129 376 24 307C42 295 64 274 75 259C95 273 115 289 134 305L134-61L201-61L201 3L394 3L394-54L463-54L463 319L474 304L513 363C475 416 394 497 324 562L341 599ZM173 343C219 390 260 446 294 504C347 452 403 392 444 343ZM201 68L201 276L394 276L394 68ZM856 746L709 746L746 831L671 844C665 817 654 778 643 746L533 746L533 281L865 281C858 84 849 10 833-9C824-18 816-20 801-19C785-19 745-19 701-15C712-33 719-59 721-78C762-80 806-80 828-78C856-76 874-69 890-51C915-20 924 65 933 309C934 319 934 340 934 340L598 340L598 688L840 688C834 538 827 480 813 465C807 457 799 456 785 456C770 456 730 456 688 460C698 444 704 421 706 404C746 402 787 402 808 403C835 405 851 411 865 427C887 452 894 523 902 718C902 727 903 746 903 746Z"/></svg>