<svg id="U9E15" viewBox="0 0 1000 1000"><svg id="U9E15hk" viewBox="0 0 1000 1000"><path transform="translate(0, 900) scale(1,-1)" d="M205 402L205 202L512 202L512 402ZM650 154C658 108 665 48 664 9L708 19C708 57 702 116 691 161ZM721 164C736 123 752 70 757 36L797 49C791 83 777 136 759 175ZM794 181C811 147 830 101 838 70L875 88C868 117 848 163 829 196ZM254 284L332 284L332 240L254 240ZM380 284L462 284L462 240L380 240ZM254 363L332 363L332 321L254 321ZM380 363L462 363L462 321L380 321ZM180 547L183 500L278 508L278 503C278 450 289 426 347 426C363 426 448 426 468 426C492 426 520 427 532 430C530 445 529 460 527 476C513 473 482 472 466 472C449 472 379 472 362 472C343 472 340 479 340 502L340 519L454 528L452 567L340 559L340 605L493 605C488 580 482 556 476 537L526 523C539 556 552 608 561 653L521 663L510 660L351 660L351 716L537 716L537 768L351 768L351 839L283 839L283 660L96 660L96 378C96 255 91 87 33-33C47-40 74-59 85-69C148 58 157 246 157 378L157 605L278 605L278 554ZM285 123L285 6L231 2L231 123ZM326 123L382 123L382 13L326 9ZM423 123L480 123L480 21L423 16ZM578 181C571 137 556 71 542 26L530 25L530 169L183 169L183-1L127-5L133-61C244-52 403-39 557-25L556 6L589-7C601 38 615 111 624 160ZM841 576L841 509L629 509L629 576ZM841 627L629 627L629 692L841 692ZM570 747L570 221L892 221C883 64 874 1 859-16C853-25 846-26 832-26C820-26 789-25 756-22C764-38 769-63 770-79C805-82 837-82 856-80C877-79 891-72 905-55C927-28 938 47 949 250C950 260 951 279 951 279L629 279L629 339L961 339L961 395L629 395L629 454L900 454L900 747L728 747C739 772 750 800 761 829L695 842C689 815 678 778 668 747Z"/><animate attributeName="opacity" values="1;0;0;1;1" dur="2s" repeatCount="indefinite"/></svg><svg id="U9E15jp" viewBox="0 0 1000 1000"><path transform="translate(0, 900) scale(1,-1)" d="M207 402L207 202L510 202L510 402ZM661 155C672 101 678 33 677-12L721-5C721 38 714 107 702 160ZM738 162C755 118 770 60 775 23L816 33C812 70 795 126 778 170ZM255 284L333 284L333 240L255 240ZM379 284L461 284L461 240L379 240ZM255 363L333 363L333 321L255 321ZM379 363L461 363L461 321L379 321ZM180 547L184 505L278 512L278 494C278 441 295 429 363 429C376 429 458 429 471 429C517 429 534 444 539 497C523 500 501 506 489 514C487 478 482 474 463 474C446 474 382 474 369 474C343 474 339 476 339 494L339 517L452 526L447 569L339 560L339 605L493 605C488 580 482 556 476 537L526 523C539 556 552 608 561 653L521 663L510 660L351 660L351 716L537 716L537 768L351 768L351 839L283 839L283 660L96 660L96 378C96 255 91 87 33-33C47-40 74-59 85-69C148 58 157 246 157 378L157 605L278 605L278 555ZM285 123L285 10L231 5L231 123ZM326 123L382 123L382 20L326 14ZM423 123L479 123L479 31L423 25ZM585 176C581 109 574 40 552-6L551 39L528 36L528 169L183 169L183 0L127-5L133-60L548-14L542-24L586-51C621 0 630 85 634 167ZM730 840C725 814 715 777 705 747L581 747L581 221L890 221L884 115C874 139 859 167 844 189L810 175C828 145 847 104 854 77L881 89C875 22 868-8 859-19C853-28 846-29 833-29C821-29 792-28 758-26C767-40 772-62 773-78C806-80 839-80 858-78C880-76 895-71 909-55C930-29 940 44 949 252C950 261 950 279 950 279L645 279L645 339L963 339L963 395L645 395L645 454L909 454L909 747L771 747L805 827ZM645 692L846 692L846 627L645 627ZM645 509L645 576L846 576L846 509Z"/><animate attributeName="opacity" values="0;1;1;0;0" dur="2s" repeatCount="indefinite"/></svg></svg>