<svg id="U9E66" viewBox="0 0 1000 1000"><path transform="translate(0, 900) scale(1,-1)" d="M173 698C171 478 158 401 33 349C44 340 60 319 65 306C199 368 217 462 219 698ZM191 422C224 395 265 357 286 333L328 367C307 391 264 427 231 452ZM354 795L354 458L404 458L404 742L536 742L536 458L588 458L588 795ZM699 604C737 572 783 526 807 498L848 537C825 563 778 605 739 637ZM571 180L571 115L844 115L844 180ZM75 796L75 459L125 459L125 743L260 743L260 459L311 459L311 796ZM61 267L61 209L194 209C169 166 142 124 117 92C168 78 225 59 280 39C214 7 136-12 53-22C64-37 76-63 82-79C184-63 277-36 354 10C416-15 472-42 511-64L565-21C524 2 469 26 409 49C471 100 517 167 545 258L506 270L493 267L296 267L324 325L259 338C250 315 238 291 226 267ZM208 117C226 144 246 176 265 209L460 209C432 153 392 109 342 74C297 90 251 105 208 117ZM447 699C446 478 434 397 325 342C336 333 351 312 358 299C409 327 441 361 461 410C498 377 542 331 565 303L605 337C581 366 533 411 496 443L465 420C488 483 492 571 493 699ZM884 748L770 748L810 828L743 841C735 815 721 779 707 748L626 748L626 278L889 278C879 86 867 11 849-9C840-18 831-20 815-19C798-19 756-19 709-14C719-31 726-55 727-73C772-75 816-75 839-73C867-72 885-66 901-47C928-16 940 70 953 311C954 320 955 340 955 340L688 340L688 687L866 687C861 530 854 472 842 457C836 449 828 447 816 448C803 448 770 448 734 451C743 436 749 413 750 396C786 394 823 394 842 395C865 397 880 404 893 420C913 444 921 517 928 721C929 729 929 748 929 748Z"/></svg>