<svg id="U9F46" viewBox="0 0 1000 1000"><path transform="translate(0, 900) scale(1,-1)" d="M177 643L387 643L387 601L177 601ZM177 560L387 560L387 517L177 517ZM177 724L387 724L387 684L177 684ZM79 435L79 219L489 219L489 435ZM618 535L835 535L835 457L618 457ZM556 588L556 404L900 404L900 588ZM580 838C562 806 532 761 501 721C542 677 576 631 595 598L648 620C631 648 600 688 567 722C591 753 616 788 638 824ZM727 838C710 806 680 761 650 721C690 677 724 631 743 598L797 621C780 648 748 688 716 722C739 753 764 788 786 824ZM879 838C860 806 829 761 797 721C839 677 875 631 894 598L949 621C930 649 898 689 864 722C888 753 916 788 938 823ZM40 179L40 119L162 119C152 44 122-5 40-34C54-45 72-70 79-85C180-45 215 19 227 119L334 119L334-80L401-80L401 119L516 119L516 179ZM142 307L252 307L252 262L142 262ZM311 307L424 307L424 262L311 262ZM142 391L252 391L252 348L142 348ZM311 391L424 391L424 348L311 348ZM250 842C245 821 235 792 225 767L111 767L111 474L456 474L456 767L296 767L326 832ZM697 299L697 195L599 195L599 299ZM755 299L859 299L859 195L755 195ZM534 353L534 39C534-43 561-62 657-62C677-62 832-62 854-62C931-62 953-35 962 70C942 75 915 85 900 96C896 15 890 3 849 3C817 3 685 3 661 3C607 3 599 8 599 39L599 140L924 140L924 353Z"/></svg>