<svg id="U9F3D" viewBox="0 0 1000 1000"><path transform="translate(0, 900) scale(1,-1)" d="M184 642L411 642L411 600L184 600ZM184 559L411 559L411 516L184 516ZM184 723L411 723L411 683L184 683ZM80 434L80 219L519 219L519 434ZM45 179L45 119L171 119C158 45 126-8 46-41C60-52 80-76 88-91C184-48 221 22 237 119L355 119L355-80L423-80L423 119L553 119L553 179ZM143 306L266 306L266 261L143 261ZM326 306L453 306L453 261L326 261ZM143 391L266 391L266 348L143 348ZM326 391L453 391L453 348L326 348ZM269 843C264 822 255 792 246 766L118 766L118 473L480 473L480 766L317 766C326 786 336 809 346 834ZM610 826L610 623L520 623L520 554L610 554L610 508C610 319 598 119 470-42C487-51 514-71 527-84C662 88 677 304 677 508L677 554L777 554L777 36C777-15 781-32 795-46C810-60 829-65 849-65C860-65 882-65 895-65C912-65 930-61 942-52C955-43 964-28 969-5C973 17 977 80 977 131C959 138 934 150 920 162C921 107 919 57 917 38C916 25 912 15 908 10C904 6 896 4 888 4C880 4 871 4 866 4C859 4 853 7 849 11C846 14 844 21 844 29L844 623L677 623L677 826Z"/></svg>