<svg id="U9FD0" viewBox="0 0 1000 1000"><path transform="translate(0, 900) scale(1,-1)" d="M365 775C400 728 441 663 460 624L512 662C492 699 450 761 415 806ZM372 526C406 483 448 422 467 386L517 424C497 459 454 516 420 558ZM364-43L424-68C452 28 485 162 506 274L454 299C430 182 393 41 364-43ZM617 215L617 157L841 157L841 215ZM94 153C84 91 61 2 35-53L82-72C106-17 127 74 138 138ZM293 160C313 116 336 58 346 20L388 37C378 74 354 131 333 176ZM225 147C240 93 258 23 264-23L308-13C301 33 284 102 267 156ZM157 142C164 82 169 4 169-48L214-41C214 10 208 87 200 147ZM509 792L509 730L645 730L645 604L534 604L534-76L589-76L589-9L868-9L868-63L926-63L926 604L813 604L813 730L951 730L951 792ZM589 52L589 287C600 281 615 267 622 259C685 318 698 402 698 465L698 541L759 541L759 359C759 309 771 299 814 299C821 299 856 299 863 299L868 299L868 52ZM698 604L698 730L759 730L759 604ZM589 292L589 541L653 541L653 467C653 413 643 347 589 292ZM804 541L868 541L868 347C866 346 863 345 855 345C848 345 823 345 818 345C806 345 804 347 804 360ZM267 695C255 658 240 617 225 587L132 587C148 622 163 659 175 695ZM153 839C134 746 97 622 32 528C46 520 66 501 75 487L81 496L81 198L364 198L364 587L279 587C302 632 325 685 342 734L305 758L294 755L193 755C201 781 207 807 212 832ZM132 364L197 364L197 259L132 259ZM240 364L312 364L312 259L240 259ZM132 526L197 526L197 422L132 422ZM240 526L312 526L312 422L240 422Z"/></svg>