<svg id="U9F71" viewBox="0 0 1000 1000"><svg id="U9F71hk" viewBox="0 0 1000 1000"><path transform="translate(0, 900) scale(1,-1)" d="M106 783L106 616L40 616L40 556L462 556L462 616L304 616L304 694L430 694L430 751L304 751L304 839L244 839L244 616L164 616L164 783ZM385 264L385 32L129 32L129 264ZM73 522L73-25L385-25L385-46L438-46L438 522L385 522L385 322L129 322L129 522ZM296 533C291 482 280 436 259 400C249 417 232 440 216 461C221 482 225 505 227 529L187 534C181 468 167 410 132 371C141 364 156 347 162 340C179 359 192 384 203 413C213 397 223 380 230 367L246 381L239 372C249 365 263 350 269 341C286 361 299 385 309 413C325 388 341 361 351 343L381 374C369 396 346 430 324 459C329 481 332 504 335 528ZM295 248C290 194 280 147 259 110C249 127 232 149 216 168C221 193 225 218 227 245L187 250C181 179 167 117 130 74C140 68 155 51 161 44C178 65 192 91 202 121C214 104 225 87 232 74L239 81C248 72 263 57 269 48C286 69 299 94 310 123C326 98 342 71 352 52L382 82C370 106 346 141 323 171C329 193 332 218 335 243ZM464 112L477 45L662 86L662-79L715-79L715 713L740 713L740 656L763 656C770 452 782 280 817 146C790 71 758 12 720-28C733-41 749-65 758-82C791-44 820 3 845 60C867 4 895-42 931-80C940-61 958-33 971-20C929 20 898 75 876 144C921 286 947 475 956 718L922 725L913 723L753 723L753 780L466 780L466 713L508 713L508 119ZM561 713L662 713L662 572L561 572ZM901 656C893 501 876 366 849 255C828 368 819 504 814 656ZM561 506L662 506L662 362L561 362ZM561 296L662 296L662 148L561 129Z"/><animate attributeName="opacity" values="1;0;0;0;0;1;1" dur="3s" repeatCount="indefinite"/></svg><svg id="U9F71jp" viewBox="0 0 1000 1000"><path transform="translate(0, 900) scale(1,-1)" d="M651 730L651 574L558 574L558 730ZM449 101L469 36L651 83L651-79L709-79L709-38C723-49 741-68 750-80C781-44 809 2 833 56C858 2 888-44 925-79C936-64 956-42 970-31C925 7 890 63 863 132C906 257 934 417 947 611L909 620L897 618L709 618L709 730L956 730L956 794L449 794L449 730L500 730L500 111ZM777 548L726 541C741 392 763 254 800 141C775 73 745 18 709-25L709 555L882 555C872 432 854 324 829 232C804 326 787 435 777 548ZM651 514L651 352L558 352L558 514ZM651 292L651 143L558 123L558 292ZM108 783L108 616L40 616L40 556L472 556L472 616L302 616L302 694L434 694L434 751L302 751L302 839L241 839L241 616L167 616L167 783ZM297 251C291 199 281 153 258 118C248 133 231 156 214 175C220 198 224 223 227 248L183 253C176 189 163 132 128 93L128 266L391 266L391 51L128 51L128 85C138 78 151 65 157 59C175 78 188 102 199 130C210 115 220 101 226 89L253 111L238 93C248 86 264 71 270 64C288 83 302 106 313 132C330 109 346 84 356 67L388 95C375 118 351 150 328 178C334 200 337 222 340 246ZM298 520C292 470 281 426 257 391C248 407 232 430 215 450C220 471 224 493 227 516L183 521C177 459 163 407 128 370L128 522L74 522L74-61L128-61L128-7L391-7L391-46L446-46L446 522L391 522L391 323L128 323L128 365C138 357 152 343 157 337C175 355 189 378 200 404C209 390 218 376 224 365L254 387L238 368C248 361 264 347 270 339C288 357 301 379 312 405C330 382 346 357 356 340L388 368C374 389 350 422 327 449C333 469 337 492 340 515Z"/><animate attributeName="opacity" values="0;1;1;0;0;0;0" dur="3s" repeatCount="indefinite"/></svg><svg id="U9F71sc" viewBox="0 0 1000 1000"><path transform="translate(0, 900) scale(1,-1)" d="M106 783L106 616L40 616L40 556L462 556L462 616L304 616L304 694L430 694L430 751L304 751L304 839L244 839L244 616L164 616L164 783ZM292 248C287 192 276 144 254 106C245 123 229 148 212 168C217 192 221 218 224 245L184 250C177 180 164 119 129 77L129 264L383 264L383 37L129 25L129 72C139 66 151 51 158 44C175 64 188 90 198 119C209 104 218 88 224 76L250 99L236 81C245 72 260 57 266 48C283 68 296 94 307 122C323 97 339 71 349 52L379 82C367 106 343 141 321 170C326 193 330 218 332 243ZM73 523L73-33L383-15L383-46L437-46L437 522L383 522L383 322L129 322L129 523ZM293 533C287 481 277 434 255 398C245 414 230 439 213 460C218 482 222 505 224 529L184 534C178 468 163 410 129 371C137 364 152 347 158 340C175 359 188 384 199 412C208 397 217 381 222 369L254 396C248 387 243 379 236 372C246 365 260 350 266 341C283 361 296 385 306 413C323 388 339 361 348 343L378 374C366 396 343 430 321 459C326 481 329 504 332 528ZM451 88L466 21L662 92L662-81L715-81L715 111L770 131L763 190L715 174L715 722L740 722L740 666L763 666C770 455 782 278 818 141C793 68 763 10 727-30C741-42 757-65 766-82C797-45 824 0 847 55C868 1 896-45 931-82C940-62 958-34 971-21C930 18 900 73 877 141C922 286 948 480 956 728L922 735L913 733L753 733L753 789L466 789L466 722L508 722L508 105ZM561 722L662 722L662 582L561 582ZM901 666C894 506 876 366 850 251C828 367 819 508 814 666ZM561 516L662 516L662 371L561 371ZM561 306L662 306L662 156L561 122Z"/><animate attributeName="opacity" values="0;0;0;1;1;0;0" dur="3s" repeatCount="indefinite"/></svg></svg>