<svg id="U9F41" viewBox="0 0 1000 1000"><path transform="translate(0, 900) scale(1,-1)" d="M75 434L75 219L507 219L507 434ZM170 642L404 642L404 600L170 600ZM170 559L404 559L404 516L170 516ZM170 723L404 723L404 683L170 683ZM134 306L261 306L261 261L134 261ZM320 306L446 306L446 261L320 261ZM134 391L261 391L261 348L134 348ZM320 391L446 391L446 348L320 348ZM39 177L39 116L168 116C155 44 123-9 43-41C57-52 77-76 85-91C181-48 218 21 234 116L360 116L360-80L428-80L428 116L534 116L534 177ZM617 840C592 741 540 618 469 539L469 766L306 766L336 831L259 842C254 821 245 791 236 766L108 766L108 473L469 473L469 534C485 524 508 504 519 492C554 530 586 579 613 632L869 632C856 202 839 42 808 6C798-8 788-11 770-11C748-11 699-11 644-6C657-25 664-55 666-76C715-78 765-79 795-76C828-73 849-65 870-36C909 13 923 175 939 664C939 673 939 702 939 702L645 702C663 743 677 785 689 824ZM618 461L724 461L724 242L618 242ZM564 522L564 123L618 123L618 182L780 182L780 522Z"/></svg>