<svg id="UA0BA" viewBox="0 0 569 1000"><path transform="translate(0, 900) scale(1,-1)" d="M140 774L140 774L102 813Q146 850 190.50 865Q235 880 282 880L282 880Q329 880 374 865Q419 850 462 813L462 813L424 774Q390 801 352.50 812.50Q315 824 282 824L282 824Q248 824 210.50 812.50Q173 801 140 774ZM379 254L379-13L135 115L165 169L311 97L311 727L529 615L500 561L379 624L379 509L528 430L500 374L379 439L379 323L528 244L500 188L379 254ZM193 530L193 201L39 290L67 336L129 300L129 630L288 538L262 491L193 530Z"/></svg>