<svg id="UA0A7" viewBox="0 0 639 1000"><path transform="translate(0, 900) scale(1,-1)" d="M176 774L176 774L138 813Q182 850 226.50 865Q271 880 318 880L318 880Q365 880 410 865Q455 850 498 813L498 813L460 774Q426 801 388.50 812.50Q351 824 318 824L318 824Q284 824 246.50 812.50Q209 801 176 774ZM319 372L319 372Q232 372 176 417Q120 462 92 539.50Q64 617 59 714L59 714L127 714Q131 634 152 570Q173 506 214 468.50Q255 431 319 431L319 431Q379 431 419.50 466.50Q460 502 483 566Q506 630 511 714L511 714L580 714Q575 609 542.50 532Q510 455 453.50 413.50Q397 372 319 372ZM351 500L288 500L288 698L351 698L351 500ZM238 0L174 0L174 288L238 288L238 0ZM469 0L406 0L406 288L469 288L469 0Z"/></svg>