<svg id="UA084" viewBox="0 0 637 1000"><path transform="translate(0, 900) scale(1,-1)" d="M206 397L206 397Q157 397 128.50 417.50Q100 438 87.50 472.50Q75 507 71.50 548Q68 589 68 630L68 630L68 714L137 714L137 640Q137 572 142 531.50Q147 491 162.50 473.50Q178 456 210 456L210 456Q244 456 264 483Q284 510 284 574L284 574L284 714L353 714L353 574Q353 510 373 483Q393 456 426 456L426 456Q459 456 474.50 473.50Q490 491 495 531.50Q500 572 500 640L500 640L500 714L568 714L568 630Q568 589 565 548Q562 507 549 472.50Q536 438 508.50 417.50Q481 397 431 397L431 397Q391 397 364 413Q337 429 318 457L318 457Q299 429 272.50 413Q246 397 206 397ZM350 135L287 135L287 354L350 354L350 135ZM318-13L318-13Q248-13 201.50 16Q155 45 128.50 92Q102 139 90 193L90 193L155 217Q167 139 206 92.50Q245 46 318 46L318 46Q387 46 426 91.50Q465 137 479 217L479 217L543 193Q521 94 464.50 40.50Q408-13 318-13Z"/></svg>