<svg id="UA089" viewBox="0 0 709 1000"><path transform="translate(0, 900) scale(1,-1)" d="M212 774L212 774L174 813Q218 850 262.50 865Q307 880 354 880L354 880Q401 880 446 865Q491 850 534 813L534 813L496 774Q462 801 424.50 812.50Q387 824 354 824L354 824Q320 824 282.50 812.50Q245 801 212 774ZM188-13L188-13Q132-13 106.50 28Q81 69 74.50 141Q68 213 68 307L68 307L68 417Q68 511 74.50 580.50Q81 650 106.50 688.50Q132 727 189 727L189 727Q246 727 271.50 689Q297 651 303 582Q309 513 309 418L309 418L309 397L400 397L400 418Q400 513 406.50 582Q413 651 438.50 689Q464 727 521 727L521 727Q578 727 603.50 688.50Q629 650 635 580.50Q641 511 641 417L641 417L641 307Q641 213 635 141Q629 69 603.50 28Q578-13 521-13L521-13Q478-13 453.50 10.50Q429 34 417.50 77Q406 120 403 178.50Q400 237 400 307L400 307L400 339L309 339L309 307Q309 237 306 178.50Q303 120 292 77Q281 34 256.50 10.50Q232-13 188-13ZM381 566L329 566L329 703L381 703L381 566ZM188 46L188 46Q220 46 230.50 97Q241 148 241 232L241 232L241 484Q241 568 230.50 618Q220 668 188 668L188 668Q157 668 147 620Q137 572 137 489L137 489L137 234Q137 150 147 98Q157 46 188 46ZM521 46L521 46Q553 46 563 98Q573 150 573 234L573 234L573 489Q573 572 563 620Q553 668 521 668L521 668Q489 668 479 618Q469 568 469 484L469 484L469 232Q469 148 479 97Q489 46 521 46ZM381 24L329 24L329 161L381 161L381 24Z"/></svg>