<svg id="UA146" viewBox="0 0 507 1000"><path transform="translate(0, 900) scale(1,-1)" d="M253 212L253 212Q186 212 143.50 237Q101 262 81.50 306Q62 350 62 406L62 406L62 714L130 714L130 527L222 527L222 714L285 714L285 527L376 527L376 714L445 714L445 406Q445 350 425 306Q405 262 363 237Q321 212 253 212ZM222 273L222 273L222 469L130 469L130 406Q130 341 157 311Q184 281 222 273ZM285 469L285 273Q323 281 349.50 311Q376 341 376 406L376 406L376 469L285 469ZM122 0L59 0L59 174L122 174L122 0ZM285 0L222 0L222 174L285 174L285 0ZM448 0L385 0L385 174L448 174L448 0Z"/></svg>