<svg id="UA279" viewBox="0 0 526 1000"><path transform="translate(0, 900) scale(1,-1)" d="M317 58L317 0Q241 1 183 22.50Q125 44 92 86Q59 128 59 189L59 189Q59 258 95.50 298Q132 338 182 357L182 357Q132 376 95.50 416Q59 456 59 525L59 525Q59 586 92 628Q125 670 183 691.50Q241 713 317 714L317 714L317 656Q229 656 178 623.50Q127 591 127 525L127 525Q127 484 145.50 456Q164 428 193.50 412Q223 396 255 389L255 389Q268 472 328 514.50Q388 557 473 568L473 568L473 508Q408 497 364.50 459Q321 421 321 350L321 350Q321 280 364.50 243.50Q408 207 473 197L473 197L473 138Q418 146 370.50 167.50Q323 189 292 227.50Q261 266 254 324L254 324Q222 317 192.50 301Q163 285 145 257.50Q127 230 127 189L127 189Q127 123 178 90.50Q229 58 317 58L317 58Z"/></svg>