<svg id="UA392" viewBox="0 0 553 1000"><path transform="translate(0, 900) scale(1,-1)" d="M123 774L123 774L85 813Q129 850 173.50 865Q218 880 265 880L265 880Q312 880 357 865Q402 850 445 813L445 813L407 774Q373 801 335.50 812.50Q298 824 265 824L265 824Q231 824 193.50 812.50Q156 801 123 774ZM308 0L244 0L244 279Q186 263 151 192Q116 121 111 15L111 15L44 29Q51 112 76 178Q101 244 142.50 286Q184 328 242 339L242 339L242 649L401 565L401 714L470 714L470 467L310 552L310 340Q371 331 413.50 289Q456 247 481.50 180Q507 113 514 29L514 29L447 15Q441 122 406 194.50Q371 267 308 281L308 281L308 0ZM154 416L93 416L93 496L39 496L39 549L93 549L93 631L154 631L154 549L208 549L208 496L154 496L154 416Z"/></svg>