<svg id="UA38B" viewBox="0 0 633 1000"><path transform="translate(0, 900) scale(1,-1)" d="M84-5L84-5L48 45Q76 64 99.50 85Q123 106 142 129L142 129Q87 220 84 346L84 346L39 346L39 405L86 405Q91 455 104.50 500Q118 545 142 585L142 585Q105 633 48 669L48 669L84 720Q139 682 180 637L180 637Q218 681 275 720L275 720L311 669Q255 635 217 585L217 585Q242 545 255.50 500Q269 455 273 405L273 405L365 405Q373 506 420 585L420 585Q402 610 378.50 631Q355 652 327 669L327 669L362 720Q391 701 415 680.50Q439 660 458 637L458 637Q478 660 502 680.50Q526 701 554 720L554 720L589 669Q534 635 496 585L496 585Q520 545 533.50 500Q547 455 551 405L551 405L594 405L594 346L553 346Q551 220 496 129L496 129Q534 83 589 45L589 45L554-5Q496 32 458 77L458 77Q439 54 414.50 33.50Q390 13 362-5L362-5L327 45Q383 83 420 129L420 129Q365 220 363 346L363 346L275 346Q272 220 217 129L217 129Q255 82 311 45L311 45L275-5Q247 13 223.50 33.50Q200 54 180 77L180 77Q141 32 84-5ZM150 405L150 405L209 405Q203 470 180 522L180 522Q156 471 150 405ZM428 405L428 405L487 405Q484 438 477 467.50Q470 497 458 522L458 522Q446 497 439 467.50Q432 438 428 405ZM180 191L180 191Q194 224 202 262.50Q210 301 211 346L211 346L148 346Q149 258 180 191ZM458 191L458 191Q487 255 490 346L490 346L426 346Q427 258 458 191Z"/></svg>