<svg id="UA35D" viewBox="0 0 560 1000"><path transform="translate(0, 900) scale(1,-1)" d="M314 0L246 0L246 202Q197 189 161 139Q125 89 109 11L109 11L49 30Q70 124 120.50 186.50Q171 249 246 262L246 262L246 453Q171 466 120.50 528.50Q70 591 49 685L49 685L109 704Q125 627 161 577Q197 527 246 513L246 513L246 714L314 714L314 514Q366 527 401 577Q436 627 451 704L451 704L511 686Q491 591 441 528.50Q391 466 314 453L314 453L314 262Q391 250 441 187.50Q491 125 511 30L511 30L451 11Q436 88 401 138.50Q366 189 314 202L314 202L314 0ZM451 310L388 310L388 441L451 441L451 310Z"/></svg>