<svg id="UA3FC" viewBox="0 0 598 1000"><path transform="translate(0, 900) scale(1,-1)" d="M463 619L463 0Q376 2 310 27Q244 52 207 103Q170 154 169 233L169 233Q138 225 125 202Q112 179 112 162L112 162Q112 127 130.50 108.50Q149 90 190 87L190 87L190 32Q127 34 88 67Q49 100 49 157L49 157Q49 192 69 221Q89 250 126 263L126 263Q77 284 63 313Q49 342 49 369L49 369Q49 425 88 458.50Q127 492 190 493L190 493L190 438Q149 436 130.50 417.50Q112 399 112 364L112 364Q112 345 126 321.50Q140 298 175 291L175 291Q191 372 251.50 418Q312 464 395 477L395 477L395 729L559 642L530 587L463 619ZM395 65L395 65L395 415Q351 408 315 388Q279 368 258.50 331Q238 294 238 236L238 236Q238 179 258.50 143.50Q279 108 315 90Q351 72 395 65ZM350 175L292 175L292 296L350 296L350 175Z"/></svg>