<svg id="UA42B" viewBox="0 0 561 1000"><path transform="translate(0, 900) scale(1,-1)" d="M135 774L135 774L97 813Q141 850 185.50 865Q230 880 277 880L277 880Q324 880 369 865Q414 850 457 813L457 813L419 774Q385 801 347.50 812.50Q310 824 277 824L277 824Q243 824 205.50 812.50Q168 801 135 774ZM315 0L247 0L247 211Q198 198 162 148.50Q126 99 110 21L110 21L50 40Q71 134 121.50 196.50Q172 259 247 271L247 271L247 331Q159 331 104 373.50Q49 416 49 498L49 498Q49 555 77.50 592Q106 629 151.50 647.50Q197 666 247 666L247 666L247 714L315 714L315 666L493 666L493 607L315 607L315 389L493 389L493 331L315 331L315 271Q392 259 442 197Q492 135 512 40L512 40L452 21Q437 98 402 148Q367 198 315 211L315 211L315 0ZM241 389L241 389L247 389L247 607L241 607Q208 607 178.50 595Q149 583 130.50 559Q112 535 112 498L112 498Q112 461 130.50 437Q149 413 179 401Q209 389 241 389Z"/></svg>