<svg id="UA485" viewBox="0 0 542 1000"><path transform="translate(0, 900) scale(1,-1)" d="M122 774L122 774L84 813Q128 850 172.50 865Q217 880 264 880L264 880Q311 880 356 865Q401 850 444 813L444 813L406 774Q372 801 334.50 812.50Q297 824 264 824L264 824Q230 824 192.50 812.50Q155 801 122 774ZM309 238L309-13L59 126L88 181L241 99L241 238L97 238L97 292L241 292L241 445L131 485L131 366L63 366L63 573L241 507L241 727L448 630L418 575L309 628L309 482L415 443L415 549L483 549L483 356L309 420L309 292L449 292L449 238L309 238Z"/></svg>