<svg id="UA427" viewBox="0 0 582 1000"><path transform="translate(0, 900) scale(1,-1)" d="M287-13L287-13Q215-13 164 12Q113 37 86 79Q59 121 59 170L59 170Q59 215 80.50 254Q102 293 146 319.50Q190 346 258 351L258 351L258 406Q155 414 107 459.50Q59 505 59 566L59 566Q59 610 83.50 646.50Q108 683 160 705Q212 727 292 727L292 727Q372 727 423 705Q474 683 498.50 646.50Q523 610 523 566L523 566Q523 505 475.50 459.50Q428 414 326 406L326 406L326 295L287 295Q205 295 166 258Q127 221 127 170L127 170Q127 119 166 82.50Q205 46 287 46L287 46Q361 46 412 78Q463 110 481 150L481 150L533 110Q502 59 436 23Q370-13 287-13ZM292 459L292 459Q378 459 419 489Q460 519 460 566L460 566Q460 613 419 643Q378 673 292 673L292 673Q205 673 163.50 643Q122 613 122 566L122 566Q122 519 163.50 489Q205 459 292 459Z"/></svg>