<svg id="UA458" viewBox="0 0 568 1000"><path transform="translate(0, 900) scale(1,-1)" d="M196-13L196-13Q143-13 114 13Q85 39 74 80Q63 121 63 166L63 166Q63 213 67.50 272Q72 331 82 394Q92 457 109 516.50Q126 576 150.50 623.50Q175 671 208 699Q241 727 284 727L284 727Q325 727 356.50 700.50Q388 674 411 630Q434 586 450.50 531.50Q467 477 477.50 420.50Q488 364 494 312.50Q500 261 502.50 222Q505 183 505 166L505 166Q505 121 493 80Q481 39 452 13Q423-13 373-13L373-13Q344-13 319.50 0.50Q295 14 284 42L284 42Q269 14 245 0.50Q221-13 196-13ZM196 46L196 46Q222 46 237 73Q252 100 252 164L252 164L252 205L316 205L316 164Q316 100 331.50 73Q347 46 373 46L373 46Q403 46 421 70Q439 94 439 166L439 166Q439 228 432.50 297.50Q426 367 413 432.50Q400 498 381.50 551.50Q363 605 338.50 636.50Q314 668 284 668L284 668Q253 668 228 633Q203 598 184.50 541Q166 484 153.50 416.50Q141 349 135 283.50Q129 218 129 166L129 166Q129 99 145.50 72.50Q162 46 196 46Z"/></svg>