<svg id="UA47E" viewBox="0 0 561 1000"><path transform="translate(0, 900) scale(1,-1)" d="M128 774L128 774L90 813Q134 850 178.50 865Q223 880 270 880L270 880Q317 880 362 865Q407 850 450 813L450 813L412 774Q378 801 340.50 812.50Q303 824 270 824L270 824Q236 824 198.50 812.50Q161 801 128 774ZM284-13L284-13Q181-13 124.50 75Q68 163 68 323L68 323Q68 484 124.50 566Q181 648 284 648L284 648Q343 648 375 631Q407 614 420 597L420 597L420 714L483 714L483 503L420 503Q398 556 360 573Q322 590 283 590L283 590Q150 590 138 371L138 371L429 371L429 317L137 317Q138 186 174.50 116Q211 46 283 46L283 46Q330 46 361 61.50Q392 77 413.50 101.50Q435 126 451 154L451 154L502 124Q466 61 413 24Q360-13 284-13Z"/></svg>