<svg id="UA5E2" viewBox="0 0 1256 1000"><path transform="translate(0, 900) scale(1,-1)" d="M283 157L283 157Q225 157 175.50 184Q126 211 96 258.50Q66 306 66 369L66 369Q66 433 96 480.50Q126 528 175.50 555Q225 582 283 582L283 582Q338 582 385 558Q432 534 462.50 490.50Q493 447 498 389L498 389Q556 389 587 417Q618 445 619 512L619 512L697 512Q698 445 723 417Q748 389 789 389L789 389Q829 389 854 417Q879 445 881 512L881 512L959 512Q961 445 1000 417Q1039 389 1101 389L1101 389L1101 581L1179 581L1179 158L1101 158L1101 323Q1029 324 985 344Q941 364 919 413L919 413L915 413Q898 361 862.50 342Q827 323 789 323L789 323Q764 323 737.50 331Q711 339 690 358.50Q669 378 658 413L658 413L654 413Q632 364 589 344Q546 324 494 323L494 323Q484 273 453.50 235.50Q423 198 378.50 177.50Q334 157 283 157ZM283 223L283 223Q322 223 353.50 241Q385 259 404 292Q423 325 423 369L423 369Q423 413 404 446Q385 479 353.50 497.50Q322 516 283 516L283 516Q244 516 212 497.50Q180 479 161 446Q142 413 142 369L142 369Q142 325 161 292Q180 259 212 241Q244 223 283 223Z"/></svg>