<svg id="UA549" viewBox="0 0 546 1000"><path transform="translate(0, 900) scale(1,-1)" d="M311 0L233 0L233 289Q156 301 106 357.50Q56 414 56 502L56 502Q56 568 86.50 617.50Q117 667 166.50 694.50Q216 722 273 722L273 722Q330 722 379.50 694.50Q429 667 459.50 617.50Q490 568 490 502L490 502Q490 443 466 398Q442 353 401.50 325Q361 297 311 289L311 289L311 0ZM273 354L273 354Q310 354 341.50 372Q373 390 392.50 423.50Q412 457 412 502L412 502Q412 548 392 582Q372 616 340 635Q308 654 273 654L273 654Q238 654 206 635Q174 616 154 582Q134 548 134 502L134 502Q134 434 174.50 394Q215 354 273 354ZM137 175L137 175Q87 175 87 225L87 225Q87 248 101 261.50Q115 275 137 275L137 275Q159 275 173 261.50Q187 248 187 225L187 225Q187 201 173.50 188Q160 175 137 175ZM408 175L408 175Q358 175 358 225L358 225Q358 248 372 261.50Q386 275 408 275L408 275Q430 275 444 261.50Q458 248 458 225L458 225Q458 201 444.50 188Q431 175 408 175ZM137 40L137 40Q87 40 87 90L87 90Q87 113 101 126.50Q115 140 137 140L137 140Q159 140 173 126.50Q187 113 187 90L187 90Q187 66 173.50 53Q160 40 137 40ZM408 40L408 40Q358 40 358 90L358 90Q358 113 372 126.50Q386 140 408 140L408 140Q430 140 444 126.50Q458 113 458 90L458 90Q458 66 444.50 53Q431 40 408 40Z"/></svg>