<svg id="UA561" viewBox="0 0 878 1000"><path transform="translate(0, 900) scale(1,-1)" d="M629 0L111 0L111 506L629 506Q700 506 728 526.50Q756 547 756 578L756 578Q756 609 731.50 630Q707 651 640 651L640 651L640 714Q747 714 790.50 677Q834 640 834 578L834 578Q834 516 785.50 476.50Q737 437 629 437L629 437L629 0ZM533 574L533 574Q483 574 483 624L483 624Q483 647 497 660.50Q511 674 533 674L533 674Q555 674 569 660.50Q583 647 583 624L583 624Q583 600 569.50 587Q556 574 533 574ZM189 437L189 69L331 69L331 437L189 437ZM409 437L409 69L551 69L551 437L409 437ZM753 284L753 284Q703 284 703 334L703 334Q703 357 717 370.50Q731 384 753 384L753 384Q775 384 789 370.50Q803 357 803 334L803 334Q803 310 789.50 297Q776 284 753 284Z"/></svg>