<svg id="UA5FD" viewBox="0 0 905 1000"><path transform="translate(0, 900) scale(1,-1)" d="M489 0L411 0L411 309Q383 317 358 337Q333 357 322 395L322 395L318 395Q296 344 259.50 324.50Q223 305 191 305L191 305Q143 305 111.50 322.50Q80 340 63.50 381Q47 422 44 494L44 494L122 494Q124 435 143.50 403Q163 371 201 371L201 371Q237 371 259.50 399Q282 427 283 494L283 494L361 494Q361 445 374.50 412.50Q388 380 411 369L411 369L411 714L489 714L489 367Q540 389 545 494L545 494L623 494Q625 427 649 399Q673 371 705 371L705 371Q747 371 764 401Q781 431 783 494L783 494L861 494Q858 422 840 381Q822 340 790.50 322.50Q759 305 715 305L715 305Q684 305 645 324.50Q606 344 583 395L583 395L579 395Q566 355 542 335Q518 315 489 308L489 308L489 0ZM191 515L191 515Q141 515 141 565L141 565Q141 588 155 601.50Q169 615 191 615L191 615Q213 615 227 601.50Q241 588 241 565L241 565Q241 541 227.50 528Q214 515 191 515ZM714 515L714 515Q664 515 664 565L664 565Q664 588 678 601.50Q692 615 714 615L714 615Q736 615 750 601.50Q764 588 764 565L764 565Q764 541 750.50 528Q737 515 714 515ZM191 165L191 165Q141 165 141 215L141 215Q141 238 155 251.50Q169 265 191 265L191 265Q213 265 227 251.50Q241 238 241 215L241 215Q241 191 227.50 178Q214 165 191 165ZM714 165L714 165Q664 165 664 215L664 215Q664 238 678 251.50Q692 265 714 265L714 265Q736 265 750 251.50Q764 238 764 215L764 215Q764 191 750.50 178Q737 165 714 165Z"/></svg>