<svg id="UA553" viewBox="0 0 894 1000"><path transform="translate(0, 900) scale(1,-1)" d="M673 0L673 0L673 63Q702 63 720.50 79Q739 95 739 126L739 126Q739 147 728.50 160.50Q718 174 691 181Q664 188 612 188L612 188L111 188L111 714L611 714Q694 714 738.50 698.50Q783 683 800 654Q817 625 817 583L817 583Q817 521 779.50 489Q742 457 673 457L673 457L673 520Q702 520 720.50 536Q739 552 739 583L739 583Q739 604 728.50 617.50Q718 631 691 638Q664 645 612 645L612 645L549 645L549 257L611 257Q694 257 738.50 241.50Q783 226 800 197Q817 168 817 126L817 126Q817 64 779.50 32Q742 0 673 0ZM189 645L189 257L471 257L471 645L189 645ZM327 409L327 409Q277 409 277 459L277 459Q277 482 291 495.50Q305 509 327 509L327 509Q349 509 363 495.50Q377 482 377 459L377 459Q377 435 363.50 422Q350 409 327 409Z"/></svg>