<svg id="UA5C4" viewBox="0 0 702 1000"><path transform="translate(0, 900) scale(1,-1)" d="M508 242L255-12L3 239L400 637Q450 687 486 706Q522 725 556 725L556 725Q588 725 616 712.50Q644 700 661.50 675Q679 650 679 612L679 612Q679 581 665 552.50Q651 524 613 486L613 486L568 530Q588 550 598.50 565Q609 580 609 599L609 599Q609 629 591.50 643Q574 657 546 657L546 657Q514 657 448 590L448 590L304 445L508 242ZM104 415L104 415Q54 415 54 465L54 465Q54 488 68 501.50Q82 515 104 515L104 515Q126 515 140 501.50Q154 488 154 465L154 465Q154 441 140.50 428Q127 415 104 415ZM460 415L460 415Q410 415 410 465L410 465Q410 488 424 501.50Q438 515 460 515L460 515Q482 515 496 501.50Q510 488 510 465L510 465Q510 441 496.50 428Q483 415 460 415Z"/></svg>