<svg id="UA5F0" viewBox="0 0 873 1000"><path transform="translate(0, 900) scale(1,-1)" d="M433 310L123 69L77 90L77 525L123 546L440 394L750 636L796 615L796 180L750 159L433 310ZM439 495L439 495Q389 495 389 545L389 545Q389 568 403 581.50Q417 595 439 595L439 595Q461 595 475 581.50Q489 568 489 545L489 545Q489 521 475.50 508Q462 495 439 495ZM512 360L720 263L720 521L512 360ZM153 442L153 184L361 345L153 442ZM439 103L439 103Q389 103 389 153L389 153Q389 176 403 189.50Q417 203 439 203L439 203Q461 203 475 189.50Q489 176 489 153L489 153Q489 129 475.50 116Q462 103 439 103Z"/></svg>