<svg id="UA64A" viewBox="0 0 777 1000"><path transform="translate(0, 900) scale(1,-1)" d="M206 714L391 436L576 714L673 714L478 430Q597 414 656.50 356.50Q716 299 716 214L716 214Q716 114 634 52Q552-10 388-10L388-10Q225-10 143 52Q61 114 61 214L61 214Q61 299 120.50 356.50Q180 414 299 430L299 430L107 714L206 714ZM157 216L157 216Q157 149 213 109Q269 69 389 69L389 69Q510 69 565 109Q620 149 620 216L620 216Q620 279 573.50 316Q527 353 435 360L435 360L435 226L345 226L345 360Q248 353 202.50 314.50Q157 276 157 216Z"/></svg>