<svg id="UA682" viewBox="0 0 547 1000"><path transform="translate(0, 900) scale(1,-1)" d="M250-240L250-240Q189-240 139-227Q89-214 51-193L51-193L51-107Q91-131 140.50-147Q190-163 245-163L245-163Q319-163 365-119Q411-75 411 6L411 6Q411 56 388 91.50Q365 127 327 156Q289 185 243 215L243 215Q197 246 155 280Q113 314 86.50 363Q60 412 60 486L60 486Q60 560 91 613.50Q122 667 174.50 695.50Q227 724 291 724L291 724Q350 724 398 710Q446 696 489 673L489 673L459 600Q416 623 377 635.50Q338 648 297 648L297 648Q232 648 191 606Q150 564 150 487L150 487Q150 434 171 399Q192 364 228 337.50Q264 311 308 281L308 281Q357 248 401.50 212.50Q446 177 474 130.50Q502 84 502 16L502 16Q502-66 470-123.50Q438-181 381.50-210.50Q325-240 250-240Z"/></svg>