<svg id="UA6EF" viewBox="0 0 549 1000"><path transform="translate(0, 900) scale(1,-1)" d="M275-9L275-9Q166-9 108.50 37.50Q51 84 51 176L51 176Q51 262 101 312Q151 362 234 395L234 395Q289 417 324.50 436.50Q360 456 377.50 480.50Q395 505 395 542L395 542Q395 592 365 618Q335 644 284 644L284 644Q240 644 207 621.50Q174 599 174 551L174 551Q174 548 174.50 541Q175 534 176 528L176 528L86 528Q85 534 84.50 541Q84 548 84 552L84 552Q84 598 106 637Q128 676 172.50 700Q217 724 284 724L284 724Q342 724 387.50 703.50Q433 683 459 643Q485 603 485 543L485 543Q485 461 435.50 412Q386 363 299 328L299 328Q239 304 204.50 284.50Q170 265 155.50 241.50Q141 218 141 182L141 182Q141 128 175 98.50Q209 69 276 69L276 69Q313 69 345 81.50Q377 94 397 122.50Q417 151 417 198L417 198Q417 209 415.50 217Q414 225 412 234L412 234L502 234Q504 224 505.50 213.50Q507 203 507 190L507 190Q507 102 447.50 46.50Q388-9 275-9Z"/></svg>