<svg id="UA7A9" viewBox="0 0 478 1000"><path transform="translate(0, 900) scale(1,-1)" d="M3 198L3 261L126 285Q90 306 70.50 333.50Q51 361 51 404L51 404Q51 472 106.50 509Q162 546 252 546L252 546Q301 546 343.50 536.50Q386 527 423 510L423 510L393 440Q359 454 322 464Q285 474 246 474L246 474Q192 474 163.50 456.50Q135 439 135 409L135 409Q135 377 163 357.50Q191 338 262 311L262 311L476 353L476 290L361 268Q396 247 415 219Q434 191 434 148L434 148Q434 70 376 30Q318-10 220-10L220-10Q164-10 123.50-1Q83 8 52 24L52 24L52 104Q84 88 129.50 74.50Q175 61 222 61L222 61Q289 61 319 82.50Q349 104 349 140L349 140Q349 170 323.50 191.50Q298 213 225 241L225 241L3 198Z"/></svg>