<svg id="UA796" viewBox="0 0 721 1000"><path transform="translate(0, 900) scale(1,-1)" d="M96 229L21 229Q17 240 13.50 256Q10 272 10 284L10 284Q10 349 44.50 379.50Q79 410 151 410L151 410L168 410L168 714L372 714Q506 714 574.50 674.50Q643 635 643 537L643 537Q643 474 608 432.50Q573 391 507 379L507 379L507 374Q552 367 588.50 348Q625 329 646 294Q667 259 667 203L667 203Q667 106 600.50 53Q534 0 419 0L419 0L168 0L168 335L147 335Q116 335 101 321Q86 307 86 283L86 283Q86 267 89.50 251.50Q93 236 96 229L96 229ZM258 410L390 410Q482 410 516 439.50Q550 469 550 527L550 527Q550 586 508.50 611.50Q467 637 376 637L376 637L258 637L258 410ZM395 335L258 335L258 76L402 76Q497 76 534 113Q571 150 571 210L571 210Q571 266 532.50 300.50Q494 335 395 335L395 335Z"/></svg>