<svg id="UA8FD" viewBox="0 0 609 1000"><path transform="translate(0, 900) scale(1,-1)" d="M275-69L275-69Q194-69 127.50-34.50Q61 0 7 58L7 58L64 106Q108 58 159 30.50Q210 3 272 3L272 3Q318 3 345.50 13Q373 23 391 39L391 39Q416 62 427.50 97.50Q439 133 439 200L439 200L439 298L259 298L259 244Q259 216 244.50 202Q230 188 207 188L207 188Q183 188 156 209Q129 230 110 260Q91 290 91 318L91 318Q91 341 104.50 355Q118 369 152 369L152 369L439 369L439 551L0 551L0 622L435 622Q431 647 428.50 672.50Q426 698 426 723L426 723Q426 809 471 852.50Q516 896 588 896L588 896Q620 896 646 890.50Q672 885 692 876L692 876L674 807Q640 825 595 825L595 825Q555 825 531 801.50Q507 778 507 714L507 714Q507 694 509 670Q511 646 516 622L516 622L623 622L623 551L520 551L520 183Q520 107 501.50 65Q483 23 455-5L455-5Q424-36 376-52.50Q328-69 275-69ZM242 681L242 681Q175 681 128.50 722Q82 763 53 851L53 851L117 873Q140 807 167.50 775Q195 743 244 743L244 743Q297 743 319.50 777.50Q342 812 356 874L356 874L424 851Q404 757 358.50 719Q313 681 242 681ZM241 785L241 785Q222 785 209 798Q196 811 196 830L196 830Q196 848 209 861Q222 874 241 874L241 874Q260 874 273 861Q286 848 286 830L286 830Q286 811 273 798Q260 785 241 785Z"/></svg>