<svg id="UA875" viewBox="0 0 626 1000"><path transform="translate(0, 900) scale(1,-1)" d="M159 460L101 411Q50 459 50 525L50 525Q50 596 96 638Q142 680 215 680L215 680Q270 680 307.50 657Q345 634 364.50 596Q384 558 384 512L384 512Q384 425 319 358L319 358Q351 335 367.50 297.50Q384 260 384 214L384 214Q384 149 350.50 84Q317 19 241-66L241-66L145-66Q195-9 227 31.50Q259 72 276 102.50Q293 133 299.50 157.50Q306 182 306 206L306 206Q306 257 282.50 283Q259 309 215 309L215 309Q175 309 151.50 288.50Q128 268 128 231L128 231Q128 204 142.50 185.50Q157 167 190 151L190 151L150 83Q50 127 50 231L50 231Q50 305 96 347Q142 389 215 389L215 389Q223 389 231.50 388.50Q240 388 247 387L247 387Q276 410 291 439Q306 468 306 504L306 504Q306 549 282.50 574.50Q259 600 215 600L215 600Q175 600 151.50 579.50Q128 559 128 523L128 523Q128 504 136 489Q144 474 159 460L159 460ZM439-33L355-33Q408 20 438 78Q468 136 468 207L468 207Q468 256 450 292.50Q432 329 395 358L395 358Q432 388 450 423.50Q468 459 468 505L468 505Q468 594 395 649L395 649L479 649Q509 624 527.50 588Q546 552 546 505L546 505Q546 458 527.50 422.50Q509 387 479 358L479 358Q509 333 527.50 295Q546 257 546 207L546 207Q546 133 516.50 75Q487 17 439-33L439-33Z"/></svg>