<svg id="UA9CD" viewBox="0 0 294 1000"><path transform="translate(0, 900) scale(1,-1)" d="M185-452L98-452L98 772Q98 844 29 844L29 844L29 917Q185 917 185 766L185 766L185-452ZM140-857L140-857Q127-857 114.50-855Q102-853 90-850L90-850L90-792Q104-794 115.50-795Q127-796 135-796L135-796Q190-796 190-767L190-767Q190-747 174.50-737Q159-727 123-711L123-711Q82-693 64-672.50Q46-652 46-624L46-624Q46-579 83-546Q120-513 172-482L172-482L208-524Q171-552 146-574Q121-596 121-615L121-615Q121-632 131.50-638.50Q142-645 160-653L160-653Q214-675 239.50-699Q265-723 265-759L265-759Q265-810 227.50-833.50Q190-857 140-857Z"/></svg>