<svg id="UA9D2" viewBox="0 0 977 1000"><path transform="translate(0, 900) scale(1,-1)" d="M596-830L596-830Q501-830 427.50-795Q354-760 312.50-694Q271-628 271-534L271-534Q271-335 417-216L417-216Q563-97 840-97L840-97L840 394Q840 470 783 470L783 470Q726 470 715 384L715 384L647 384Q643 427 625.50 450Q608 473 579 473L579 473Q559 473 547 462Q535 451 535 428L535 428Q535 380 603 360L603 360L574 301Q455 327 455 435L455 435Q455 488 488 518Q521 548 581 548L581 548Q652 548 686 485L686 485Q713 546 792 546L792 546Q927 546 927 391L927 391L927-98L1086-98L1086-177L927-177L927-534Q927-830 596-830ZM240 68L222 0Q155 8 116.50 44Q78 80 78 150L78 150L78 388Q78 546 238 546L238 546Q396 546 396 393L396 393L396 131Q396 68 455 68L455 68L575 68L469 219L563 219L693 30L676 0L450 0Q310 0 310 133L310 133L310 394Q310 470 238 470L238 470Q165 470 165 391L165 391L165 154Q165 80 240 68L240 68ZM608-740L608-740Q719-740 779-684.50Q839-629 839-523L839-523L839-177Q600-179 483-275L483-275Q365-373 365-525L365-525Q365-631 430.50-685.50Q496-740 608-740Z"/></svg>