<svg id="UA9E4" viewBox="0 0 1124 1000"><path transform="translate(0, 900) scale(1,-1)" d="M344-10L344-10Q259-10 194 25.50Q129 61 92 123.50Q55 186 55 268L55 268Q55 353 89.50 415Q124 477 184.50 511.50Q245 546 323 546L323 546Q370 546 405 540Q440 534 469 520L469 520L437 454Q397 472 337 472L337 472Q250 472 198 417Q146 362 146 270L146 270Q146 210 170 163.50Q194 117 237.50 91Q281 65 341 65L341 65Q389 65 424.50 82.50Q460 100 488.50 128.50Q517 157 543 192L543 192Q532 231 532 273L532 273Q532 351 565.50 413Q599 475 663.50 510.50Q728 546 819 546L819 546Q877 546 928 525.50Q979 505 1017.50 468.50Q1056 432 1074 383L1074 383L1004 347Q976 409 926.50 440.50Q877 472 817 472L817 472Q760 472 716 448Q672 424 647.50 379.50Q623 335 623 274L623 274Q623 249 627 225L627 225Q667 245 716.50 257Q766 269 825 269L825 269Q890 269 951.50 248.50Q1013 228 1082 182L1082 182Q1067 123 1027.50 80Q988 37 932 13.50Q876-10 809-10L809-10Q735-10 676 22.50Q617 55 580 109L580 109Q535 51 477 20.50Q419-10 344-10ZM828 196L828 196Q771 196 728 185Q685 174 651 155L651 155Q673 116 711 90Q749 64 806 64L806 64Q864 64 910.50 86.50Q957 109 987 154L987 154Q953 171 913 183.50Q873 196 828 196Z"/></svg>