<svg id="UA919" viewBox="0 0 772 1000"><path transform="translate(0, 900) scale(1,-1)" d="M548-10L548-10Q472-10 443.50 23Q415 56 415 107L415 107Q415 159 444 191.50Q473 224 546 224L546 224Q562 224 575.50 220.50Q589 217 598 213L598 213L598 479Q549 479 491.50 464Q434 449 378 418Q322 387 276 336.50Q230 286 202 216Q174 146 174 53L174 53L174 0L88 0L88 536L174 536L174 391Q174 348 170.50 321.50Q167 295 165 282L165 282L170 281Q181 321 196 344.50Q211 368 233 391L233 391Q280 441 341.50 475.50Q403 510 472 528Q541 546 607 546L607 546L684 546L684 152Q684-10 548-10ZM486 107L486 107Q486 76 506 62.50Q526 49 547 49L547 49Q570 49 584 68.50Q598 88 598 137L598 137L598 153Q590 157 577 161Q564 165 547 165L547 165Q524 165 505 151Q486 137 486 107Z"/></svg>