<svg id="UA9A6" viewBox="0 0 1027 1000"><path transform="translate(0, 900) scale(1,-1)" d="M240 68L222 0Q155 8 116.50 44Q78 80 78 150L78 150L78 388Q78 546 238 546L238 546Q396 546 396 393L396 393L396 132Q396 72 452 72L452 72Q507 72 507 132L507 132L507 213L594 213L594 132Q594 72 649 72L649 72Q704 72 704 132L704 132L704 259Q626 288 580 329.50Q534 371 534 436L534 436Q534 490 564.50 517.50Q595 545 644 545L644 545Q716 545 755 479.50Q794 414 794 307L794 307L794 301Q885 272 931.50 211Q978 150 978 61L978 61L978 0L891 0L891 74Q891 179 791 219L791 219L791 156Q791 78 754.50 39Q718 0 649 0L649 0Q580 0 550 63L550 63Q520 0 452 0L452 0Q383 0 346.50 39Q310 78 310 156L310 156L310 394Q310 470 238 470L238 470Q165 470 165 391L165 391L165 154Q165 80 240 68L240 68ZM610 432L610 432Q610 371 707 333L707 333Q698 469 645 469L645 469Q610 469 610 432Z"/></svg>