<svg id="UAA16" viewBox="0 0 1047 1000"><path transform="translate(0, 900) scale(1,-1)" d="M994 421L994 421Q994 381 978.50 343.50Q963 306 931 276L931 276L868 324Q887 344 898.50 368.50Q910 393 910 421L910 421Q910 470 881 497.50Q852 525 802 525L802 525Q752 525 724.50 498.50Q697 472 697 428L697 428Q697 404 703.50 381.50Q710 359 710 335L710 335Q710 294 694 268Q678 242 654.50 224Q631 206 607 191Q583 176 567 157.50Q551 139 551 111L551 111Q551 89 559.50 73.50Q568 58 586 37L586 37L564-16Q551-17 534-17Q517-17 499-17L499-17Q435-17 387 7Q339 31 313 73Q287 115 287 170L287 170Q287 205 297 235.50Q307 266 320 295Q333 324 343 353Q353 382 353 414L353 414Q353 464 325.50 494.50Q298 525 248 525L248 525Q198 525 167.50 497.50Q137 470 137 421L137 421Q137 393 148.50 368Q160 343 178 323L178 323L116 275Q85 306 69 343.50Q53 381 53 419L53 419Q53 499 107 546.50Q161 594 249 594L249 594Q333 594 386 546.50Q439 499 439 417L439 417Q439 380 429 348Q419 316 406 287Q393 258 383 229Q373 200 373 170L373 170Q373 118 403 85Q433 52 484 52L484 52L491 52Q478 69 473 85Q468 101 468 122L468 122Q468 158 484 181Q500 204 523 221Q546 238 569 254Q592 270 608 291.50Q624 313 624 346L624 346Q624 363 617.50 387.50Q611 412 611 439L611 439Q611 508 663 551Q715 594 803 594L803 594Q889 594 941.50 546.50Q994 499 994 421Z"/></svg>