<svg id="UAA57" viewBox="0 0 914 1000"><path transform="translate(0, 900) scale(1,-1)" d="M829 333L829 333Q829 250 811.50 185.50Q794 121 750.50 69Q707 17 629-28L629-28Q569-63 540.50-91.50Q512-120 503-141.50Q494-163 494-177L494-177Q494-196 506-210Q518-224 540-224L540-224Q560-224 576-209Q592-194 607.50-172Q623-150 641.50-128Q660-106 685.50-91Q711-76 748-76L748-76Q792-76 820.50-104Q849-132 849-172L849-172Q849-189 842.50-211.50Q836-234 822-253L822-253L754-222Q768-202 768-183L768-183Q768-149 733-149L733-149Q714-149 699-164Q684-179 669-201.50Q654-224 635.50-246.50Q617-269 591.50-284Q566-299 529-299L529-299Q480-299 445-266.50Q410-234 410-184L410-184Q410-152 423.50-120.50Q437-89 472.50-54Q508-19 574 21L574 21Q635 58 672 98.50Q709 139 726 194.50Q743 250 743 331L743 331Q743 422 710.50 473.50Q678 525 611 525L611 525Q559 525 529.50 495.50Q500 466 500 418L500 418Q500 381 510 346.50Q520 312 530 275Q540 238 540 191L540 191Q540 97 478 40Q416-17 304-17L304-17Q228-17 171.50 6Q115 29 84 70Q53 111 53 165L53 165Q53 230 96 273.50Q139 317 214 317L214 317Q285 317 329.50 275.50Q374 234 374 163L374 163Q374 131 365.50 102.50Q357 74 348 54L348 54Q400 66 427.50 102Q455 138 455 196L455 196Q455 237 445 272.50Q435 308 425 344.50Q415 381 415 424L415 424Q415 475 439.50 513.50Q464 552 508 573Q552 594 609 594L609 594Q717 594 773 523Q829 452 829 333ZM132 166L132 166Q132 116 172 84Q212 52 279 48L279 48Q288 69 295.50 98Q303 127 303 152L303 152Q303 199 280 225Q257 251 217 251L217 251Q177 251 154.50 227.50Q132 204 132 166Z"/></svg>