<svg id="UAB63" viewBox="0 0 990 1000"><path transform="translate(0, 900) scale(1,-1)" d="M443 537L531 537L531 496Q593 547 691 547L691 547Q768 547 823 512.50Q878 478 907 415.50Q936 353 936 269L936 269Q936 142 872 66Q808-10 688-10L688-10Q619-10 565 21.50Q511 53 480 109L480 109Q457 57 408 23.50Q359-10 281-10L281-10Q178-10 128.50 38.50Q79 87 79 187L79 187L79 537L167 537L167 205Q167 132 196 97.50Q225 63 295 63L295 63Q362 63 402.50 107.50Q443 152 443 249L443 249L443 537ZM534 269L534 269Q534 175 571.50 118Q609 61 690 61L690 61Q770 61 807.50 118.50Q845 176 845 269L845 269Q845 363 807 419.50Q769 476 689 476L689 476Q613 476 573.50 422.50Q534 369 534 269Z"/></svg>