<svg id="UABBD" viewBox="0 0 506 1000"><path transform="translate(0, 900) scale(1,-1)" d="M229-8L229-8Q141-8 94.50 35Q48 78 48 157L48 157Q48 167 48.50 174.50Q49 182 50 187L50 187L120 187Q120 183 119.50 175.50Q119 168 119 160L119 160Q119 104 148 79.50Q177 55 232 55L232 55Q276 55 307.50 81Q339 107 353 150L353 150Q271 179 211.50 211.50Q152 244 119.50 286Q87 328 87 384L87 384Q87 456 136 499.50Q185 543 264 543L264 543Q358 543 406.50 482.50Q455 422 455 299L455 299Q455 242 442.50 187.50Q430 133 403 88.50Q376 44 333 18Q290-8 229-8ZM368 212L368 212Q372 234 374 257Q376 280 376 302L376 302Q376 397 348 440Q320 483 263 483L263 483Q221 483 193 456Q165 429 165 386L165 386Q165 350 184.50 321Q204 292 248.50 266Q293 240 368 212Z"/></svg>