<svg id="UABC8" viewBox="0 0 715 1000"><path transform="translate(0, 900) scale(1,-1)" d="M53 0L53 0L30 72Q120 95 157 149.50Q194 204 194 274L194 274Q194 321 174.50 376Q155 431 119.50 486Q84 541 35 586L35 586L35 659L695 659L695 586L130 586Q174 534 210 473.50Q246 413 258 350L258 350Q286 406 329 429.50Q372 453 426 453L426 453Q468 453 506 437Q544 421 568 388.50Q592 356 592 306L592 306Q592 275 582.50 244Q573 213 573 184L573 184Q573 153 602 153L602 153Q611 153 621.50 158Q632 163 642 173L642 173L689 117Q669 97 645 88.50Q621 80 598 80L598 80Q558 80 525.50 105Q493 130 493 184L493 184Q493 193 495.50 211Q498 229 501.50 249Q505 269 507.50 285Q510 301 510 306L510 306Q510 339 486.50 360.50Q463 382 423 382L423 382Q389 382 360 365.50Q331 349 308 310Q285 271 267 201L267 201Q247 121 193 69.50Q139 18 53 0Z"/></svg>