<svg id="UADCD" viewBox="0 0 920 1000"><path transform="translate(0, 900) scale(1,-1)" d="M703 826L703 342L786 342L786 826ZM152-5L152-68L200-68C313-68 380-67 466-51L458 11C384-2 325-5 233-5L233 94L440 94L440 296L379 296L379 434C467 440 556 449 642 463L637 523C602 518 566 514 529 511C547 620 547 702 547 749L547 783L133 783L133 716L466 716C465 667 462 598 446 504C306 495 166 494 51 493L62 425C132 425 212 426 296 430L296 296L151 296L151 235L361 235L361 153L152 153ZM498 296L498-68L804-68L804-4L578-4L578 88L781 88L781 149L578 149L578 234L794 234L794 296Z"/></svg>