<svg id="UAD07" viewBox="0 0 920 1000"><path transform="translate(0, 900) scale(1,-1)" d="M470 293L470-68L754-68L754 293L678 293L678 171L545 171L545 293ZM545 110L678 110L678-6L545-6ZM132-5L132-68L178-68C303-68 363-67 441-51L434 12C366-2 312-5 212-5L212 86L417 86L417 286L130 286L130 224L337 224L337 144L132 144ZM99 777L99 710L465 710C465 662 462 597 443 511L524 502C547 604 547 683 547 733L547 777ZM53 368C213 368 426 370 616 402L610 461C517 448 415 442 316 439L316 598L235 598L235 436L44 435ZM670 827L670 332L754 332L754 538L883 538L883 607L754 607L754 827Z"/></svg>