<svg id="UAECB" viewBox="0 0 920 1000"><path transform="translate(0, 900) scale(1,-1)" d="M642 150C553 150 488 105 488 33C488-38 553-83 642-83C731-83 797-38 797 33C797 105 731 150 642 150ZM642 93C692 93 725 71 725 33C725-4 692-27 642-27C592-27 558-4 558 33C558 71 592 93 642 93ZM65 778L65 709L222 709C207 590 144 522 48 456L107 403C235 498 304 605 304 778ZM707 826L707 630L539 630C549 675 554 725 554 778L334 778L334 709L470 709C459 577 406 491 303 409L369 360C452 430 504 507 531 599L531 561L707 561L707 363L790 363L790 826ZM145-5L145-70L193-70C313-70 378-68 460-52L453 12C381-2 323-5 225-5L225 90L428 90L428 297L143 297L143 234L348 234L348 150L145 150ZM603 339L603 243L456 243L456 181L835 181L835 243L683 243L683 339Z"/></svg>