<svg id="UAE3F" viewBox="0 0 920 1000"><path transform="translate(0, 900) scale(1,-1)" d="M708 828L708 367L791 367L791 828ZM654 166C563 166 495 118 495 45C495-29 563-76 654-76C745-76 813-29 813 45C813 118 745 166 654 166ZM654 107C704 107 740 84 740 45C740 6 704-18 654-18C604-18 568 6 568 45C568 84 604 107 654 107ZM109 784L109 716L432 716C417 574 286 468 65 422L96 355C358 413 522 556 522 784ZM614 349L614 265L472 265L472 202L840 202L840 265L695 265L695 349ZM152 1L152-65L201-65C326-65 392-63 479-47L470 18C394 3 334 1 232 1L232 102L436 102L436 311L150 311L150 246L356 246L356 162L152 162Z"/></svg>