<svg id="UAEE2" viewBox="0 0 920 1000"><path transform="translate(0, 900) scale(1,-1)" d="M511 305L511-79L819-79L819 305ZM747 243L747-16L582-16L582 243ZM744 826L744 352L819 352L819 826ZM146-10L146-74L197-74C310-74 383-73 480-59L473 5C389-9 322-10 228-10L228 87L453 87L453 305L144 305L144 240L371 240L371 146L146 146ZM69 776L69 707L197 707C185 588 135 522 50 451L111 404C224 506 273 609 273 776ZM586 808L586 622L474 622C483 670 486 721 486 776L298 776L298 707L410 707C402 576 363 484 268 392L330 348C396 412 436 480 459 555L586 555L586 361L661 361L661 808Z"/></svg>