<svg id="UAF91" viewBox="0 0 920 1000"><path transform="translate(0, 900) scale(1,-1)" d="M193 276L193-66L791-66L791 276L709 276L709 176L275 176L275 276ZM275 111L709 111L709 1L275 1ZM708 826L708 307L791 307L791 826ZM60 329C233 330 455 336 652 367L647 428C568 418 484 412 400 407L400 571L323 571L323 404C227 400 134 398 53 398ZM89 768L89 701L220 701C219 650 213 579 184 481L261 471C297 591 297 683 297 734L297 768ZM349 768L349 701L523 701C523 647 520 577 497 481L573 471C599 580 599 664 599 720L599 768Z"/></svg>