<svg id="UAF1C" viewBox="0 0 920 1000"><path transform="translate(0, 900) scale(1,-1)" d="M744 826L744 351L819 351L819 826ZM162-7L162-74L211-74C340-74 403-73 484-55L480-31L522-87C597-53 648 7 676 81C702 12 750-46 822-78L869-16C766 29 716 123 716 219L716 311L634 311L634 228C634 123 583 25 479-22L474 10C404-5 347-7 243-7L243 90L463 90L463 304L161 304L161 239L383 239L383 151L162 151ZM69 776L69 707L196 707C184 588 136 522 51 450L111 404C225 506 271 610 271 776ZM458 523L458 457L587 457L587 357L661 357L661 810L587 810L587 689L482 689C484 717 485 746 485 776L297 776L297 707L409 707C401 576 362 484 267 392L330 348C414 431 456 520 473 623L587 623L587 523Z"/></svg>