<svg id="UAF69" viewBox="0 0 920 1000"><path transform="translate(0, 900) scale(1,-1)" d="M54 314C183 314 379 319 529 344L524 404C467 397 401 392 335 389L335 564L263 564L263 386C183 383 105 382 43 382ZM566 809L566 280L644 280L644 511L738 511L738 274L817 274L817 827L738 827L738 580L644 580L644 809ZM65 767L65 699L175 699C173 649 167 579 140 482L210 465C245 590 245 686 245 736L245 767ZM287 767L287 699L426 699C426 643 424 572 406 474L477 467C496 576 496 659 496 718L496 767ZM459 237L459 169L608 169C606 96 542 16 437-17L476-80C558-53 616 2 647 65C679 2 737-53 818-80L858-17C754 19 688 99 686 169L835 169L835 237ZM159 16L159-53L205-53C259-53 370-45 455-7L435 61C380 32 292 21 239 17L239 232L159 232Z"/></svg>