<svg id="UAF99" viewBox="0 0 920 1000"><path transform="translate(0, 900) scale(1,-1)" d="M708 827L708 332L791 332L791 827ZM87 778L87 710L218 710C216 662 211 596 183 504L261 494C295 608 295 697 295 744L295 778ZM349 778L349 710L521 710C521 660 518 595 497 506L573 496C597 599 597 679 597 731L597 778ZM60 359C231 360 450 364 651 396L645 455C566 444 482 438 398 434L398 590L321 590L321 430C225 427 131 426 49 426ZM204-3L204-68L816-68L816-3L289-3L289 79L783 79L783 140L289 140L289 223L798 223L798 287L204 287Z"/></svg>