<svg id="UB08B" viewBox="0 0 920 1000"><path transform="translate(0, 900) scale(1,-1)" d="M705 826L705 360L788 360L788 826ZM642 150C553 150 488 105 488 33C488-38 553-83 642-83C731-83 797-38 797 33C797 105 731 150 642 150ZM642 93C692 93 725 71 725 33C725-4 692-27 642-27C592-27 558-4 558 33C558 71 592 93 642 93ZM74 776L74 708L235 708C220 587 157 519 59 452L118 400C247 495 317 601 317 776ZM352 777L352 709L493 709C481 577 429 492 327 410L392 361C524 471 576 599 576 777ZM145-5L145-70L193-70C313-70 378-68 460-52L453 12C381-2 323-5 225-5L225 90L428 90L428 297L143 297L143 234L348 234L348 150L145 150ZM603 339L603 243L456 243L456 181L835 181L835 243L683 243L683 339Z"/></svg>