<svg id="UB06B" viewBox="0 0 920 1000"><path transform="translate(0, 900) scale(1,-1)" d="M491 290L491-71L792-71L792 290L715 290L715 176L567 176L567 290ZM567 110L715 110L715-4L567-4ZM709 826L709 340L791 340L791 826ZM59 381C240 382 458 393 646 413L638 476L570 471C588 574 588 653 588 712L588 766L360 766L360 698L507 698C507 640 505 565 487 466C419 462 350 459 281 456C306 573 306 659 306 718L306 766L91 766L91 698L227 698C227 639 224 561 200 454L47 451ZM136-6L136-72L186-72C304-72 373-70 462-55L457 10C378-4 314-6 215-6L215 85L436 85L436 290L134 290L134 227L358 227L358 145L136 145Z"/></svg>