<svg id="UB171" viewBox="0 0 920 1000"><path transform="translate(0, 900) scale(1,-1)" d="M736 826L736 265L815 265L815 826ZM518 250C329 250 215 191 215 87C215-17 329-77 518-77C705-77 819-17 819 87C819 191 705 250 518 250ZM518 186C654 186 737 149 737 87C737 24 654-13 518-13C380-13 297 24 297 87C297 149 380 186 518 186ZM372 551L372 484L556 484L556 295L634 295L634 808L556 808L556 705L372 705L372 639L556 639L556 551ZM98 390L98 321L155 321C273 321 364 325 477 347L466 415C366 396 282 391 180 390L180 761L98 761Z"/></svg>