<svg id="UB29F" viewBox="0 0 920 1000"><path transform="translate(0, 900) scale(1,-1)" d="M43 446L43 378L862 378L862 446ZM629 152C542 152 476 108 476 36C476-34 542-78 629-78C716-78 782-34 782 36C782 108 716 152 629 152ZM629 96C677 96 710 74 710 36C710 0 677-22 629-22C580-22 547 0 547 36C547 74 580 96 629 96ZM152 811L152 533L768 533L768 601L235 601L235 811ZM122-8L122-73L173-73C308-73 372-71 455-56L447 8C373-6 314-8 201-8L201 90L415 90L415 297L120 297L120 238L336 238L336 149L122 149ZM588 330L588 248L439 248L439 185L820 185L820 248L668 248L668 330Z"/></svg>