<svg id="UB246" viewBox="0 0 920 1000"><path transform="translate(0, 900) scale(1,-1)" d="M741 826L741 289L821 289L821 826ZM515 260L515-79L821-79L821 260ZM748 201L748-20L587-20L587 201ZM108 629L108 562L480 562L480 629L191 629L191 790L108 790ZM63 425C117 425 183 427 251 430L251 295L330 295L330 435C400 440 469 447 529 456L524 515C386 498 186 493 53 492ZM416 393L416 339L577 339L577 292L655 292L655 811L577 811L577 393ZM151-15L151-74L200-74C337-74 402-72 484-56L476 2C405-13 347-15 234-15L234 65L458 65L458 260L149 260L149 198L375 198L375 121L151 121Z"/></svg>