<svg id="UB476" viewBox="0 0 920 1000"><path transform="translate(0, 900) scale(1,-1)" d="M496 262L496-79L788-79L788 262ZM715 202L715-20L568-20L568 202ZM142-15L142-74L190-74C325-74 386-72 466-57L458 1C389-13 333-15 224-15L224 67L438 67L438 261L140 261L140 200L355 200L355 123L142 123ZM128 791L128 542L556 542L556 606L212 606L212 727L546 727L546 791ZM54 412C126 412 205 413 286 416L286 295L369 295L369 419C457 423 546 430 631 440L624 500C435 483 220 481 42 481ZM516 390L516 335L705 335L705 293L788 293L788 826L705 826L705 390Z"/></svg>