<svg id="UB5F3" viewBox="0 0 920 1000"><path transform="translate(0, 900) scale(1,-1)" d="M484 168C323 168 229 126 229 46C229-33 323-76 484-76C646-76 739-33 739 46C739 126 646 168 484 168ZM484 110C590 110 653 89 653 46C653 4 590-18 484-18C378-18 316 4 316 46C316 89 378 110 484 110ZM62 443L62 377L102 377C158 377 224 378 309 395L300 461C239 449 187 445 142 444L142 711L282 711L282 775L62 775ZM330 442L330 376L374 376C453 376 523 378 615 396L606 461C535 446 476 443 416 442L416 711L576 711L576 775L330 775ZM578 537L578 470L710 470L710 328L792 328L792 826L710 826L710 699L578 699L578 632L710 632L710 537ZM444 340L444 269L162 269L162 204L807 204L807 269L527 269L527 340Z"/></svg>