<svg id="UB5C9" viewBox="0 0 920 1000"><path transform="translate(0, 900) scale(1,-1)" d="M744 826L744 346L819 346L819 826ZM71 457L71 389L105 389C158 389 210 389 274 405L265 474C223 462 183 458 146 457L146 706L253 706L253 770L71 770ZM462 624L462 556L586 556L586 355L661 355L661 808L586 808L586 624ZM295 458L295 388L334 388C404 388 462 389 535 407L525 476C472 462 422 459 371 458L371 706L500 706L500 770L295 770ZM155-9L155-74L206-74C319-74 394-73 491-57L486 8C399-8 330-9 232-9L232 88L468 88L468 305L153 305L153 241L391 241L391 147L155 147ZM514 305L514-71L841-71L841-8L593-8L593 89L818 89L818 148L593 148L593 241L828 241L828 305Z"/></svg>