<svg id="UB5F7" viewBox="0 0 920 1000"><path transform="translate(0, 900) scale(1,-1)" d="M153 259L153 190L378 190L378-79L461-79L461 259ZM745 826L745 307L820 307L820 826ZM636 276L636 209C636 117 579 22 470-22L518-85C595-53 648 5 678 75C707 5 760-53 839-85L883-20C773 22 719 119 719 216L719 276ZM71 412L71 346L105 346C157 346 208 346 273 362L264 428C222 416 181 413 144 412L144 700L252 700L252 764L71 764ZM470 524L470 457L589 457L589 315L662 315L662 810L589 810L589 679L472 679L472 612L589 612L589 524ZM293 413L293 346L331 346C393 346 452 347 524 364L515 431C463 418 414 414 367 413L367 700L492 700L492 764L293 764Z"/></svg>