<svg id="UB67F" viewBox="0 0 920 1000"><path transform="translate(0, 900) scale(1,-1)" d="M709 826L709 296L789 296L789 826ZM494 138C326 138 236 103 236 31C236-41 326-76 494-76C661-76 751-41 751 31C751 103 661 138 494 138ZM494 82C612 82 671 65 671 31C671-3 612-19 494-19C375-19 316-3 316 31C316 65 375 82 494 82ZM58 351C224 351 444 355 645 390L639 449C560 437 475 429 391 425L391 512L611 512L611 579L442 579L442 707L602 707L602 774L362 774L362 526L327 526L337 528L329 593C266 580 211 577 161 576L161 706L316 706L316 773L87 773L87 510L127 510C182 510 238 511 305 522L305 421C212 417 123 417 46 417ZM452 319L452 237L178 237L178 174L810 174L810 237L535 237L535 319Z"/></svg>