<svg id="UB615" viewBox="0 0 920 1000"><path transform="translate(0, 900) scale(1,-1)" d="M119 559L119 491L168 491C249 491 335 494 442 513L433 581C347 565 272 560 204 559L204 725L423 725L423 794L119 794ZM409 499L409 380L43 380L43 313L862 313L862 380L494 380L494 495L791 495L791 564L556 564L556 726L782 726L782 795L473 795L473 499ZM412 244L412 176L557 176L557 162C557 91 505 22 418-15L398 57C342 30 255 19 204 15L204 231L123 231L123-65L170-65C213-65 307-59 389-32L428-89C510-62 569-8 599 58C629-7 688-60 769-85L811-23C709 8 643 79 643 157L643 176L786 176L786 244Z"/></svg>