<svg id="UB66F" viewBox="0 0 920 1000"><path transform="translate(0, 900) scale(1,-1)" d="M709 826L709 332L788 332L788 826ZM492 284L492-77L788-77L788 284L712 284L712 169L568 169L568 284ZM568 106L712 106L712-15L568-15ZM60 352C239 352 456 362 647 385L641 447C562 440 477 434 391 430L391 519L611 519L611 585L442 585L442 711L602 711L602 778L362 778L362 531L311 531L337 536L329 601C266 589 211 586 161 585L161 710L316 710L316 777L87 777L87 518L127 518C182 518 238 519 305 530L305 427C216 424 129 422 48 422ZM136-12L136-73L185-73C322-73 382-72 458-56L448 5C382-10 329-12 218-12L218 81L435 81L435 284L134 284L134 221L353 221L353 137L136 137Z"/></svg>