<svg id="UB6C4" viewBox="0 0 920 1000"><path transform="translate(0, 900) scale(1,-1)" d="M88 601L88 538L127 538C192 538 256 538 338 556L329 619C267 605 213 602 162 601L162 724L315 724L315 787L88 787ZM362 601L362 538L609 538L609 601L442 601L442 725L598 725L598 788L362 788ZM54 410C126 410 205 412 286 414L286 291L369 291L369 418C460 423 552 430 639 441L632 502C441 483 223 480 42 480ZM516 384L516 329L713 329L713 293L793 293L793 826L713 826L713 384ZM150-12L150-74L198-74C329-74 395-73 477-56L474-33L513-86C589-53 641 7 668 81C694 11 743-46 816-77L862-16C759 27 709 118 709 214L709 266L627 266L627 216C627 117 576 23 472-22L468 5C396-10 337-12 231-12L231 68L457 68L457 259L147 259L147 197L377 197L377 127L150 127Z"/></svg>