<svg id="UB6BF" viewBox="0 0 920 1000"><path transform="translate(0, 900) scale(1,-1)" d="M91 586L91 521L131 521C195 521 259 522 342 539L332 603C269 590 215 587 165 586L165 722L319 722L319 788L91 788ZM366 587L366 521L619 521L619 587L445 587L445 723L606 723L606 789L366 789ZM56 376C128 376 206 377 286 380L286 246L369 246L369 383C463 388 558 395 649 405L641 469C448 452 231 449 43 448ZM516 346L516 286L713 286L713 240L792 240L792 826L713 826L713 346ZM178 215L178-68L811-68L811 0L263 0L263 149L803 149L803 215Z"/></svg>