<svg id="UB6E0" viewBox="0 0 920 1000"><path transform="translate(0, 900) scale(1,-1)" d="M748 826L748 289L826 289L826 826ZM70 610L70 548L105 548C158 548 214 548 285 565L275 627C227 614 183 611 144 610L144 717L265 717L265 779L70 779ZM307 612L307 549L514 549L514 612L381 612L381 718L509 718L509 780L307 780ZM61 422C118 422 186 423 256 426L256 295L335 295L335 430C408 435 482 442 547 452L542 510C394 493 192 489 51 488ZM425 390L425 335L590 335L590 292L666 292L666 813L590 813L590 390ZM160-12L160-74L209-74C341-74 405-73 488-56L485-33L523-86C599-53 650 6 677 79C703 10 751-46 823-78L869-17C767 26 718 118 718 214L718 266L636 266L636 216C636 117 585 23 483-22L479 5C408-11 349-12 241-12L241 68L468 68L468 259L158 259L158 197L387 197L387 127L160 127Z"/></svg>