<svg id="UB601" viewBox="0 0 920 1000"><path transform="translate(0, 900) scale(1,-1)" d="M745 826L745 351L819 351L819 826ZM71 453L71 385L105 385C157 385 208 385 273 401L264 469C221 457 181 454 144 453L144 706L252 706L252 770L71 770ZM475 540L475 473L596 473L596 356L669 356L669 809L596 809L596 701L475 701L475 634L596 634L596 540ZM293 454L293 385L331 385C395 385 454 387 524 404L515 472C464 459 414 455 367 454L367 706L492 706L492 770L293 770ZM155-9L155-74L206-74C319-74 394-73 491-57L486 8C399-8 330-9 232-9L232 88L468 88L468 305L153 305L153 241L391 241L391 147L155 147ZM514 305L514-71L841-71L841-8L593-8L593 89L818 89L818 148L593 148L593 241L828 241L828 305Z"/></svg>