<svg id="UB65B" viewBox="0 0 920 1000"><path transform="translate(0, 900) scale(1,-1)" d="M68 545L68 478L104 478C142 478 206 478 285 495L276 562C226 551 178 547 143 546L143 698L263 698L263 765L68 765ZM58 300C181 300 374 302 527 333L521 393C464 384 398 378 332 375L332 478L507 478L507 545L379 545L379 700L498 700L498 766L305 766L305 488L252 488L252 371C176 368 104 368 48 368ZM748 826L748 574L643 574L643 813L567 813L567 276L643 276L643 505L748 505L748 212L825 212L825 826ZM474 236L474 202C474 97 330 11 165-10L194-75C336-56 462 7 517 98C572 6 699-56 841-75L870-10C704 11 560 95 560 202L560 236Z"/></svg>