<svg id="UB732" viewBox="0 0 920 1000"><path transform="translate(0, 900) scale(1,-1)" d="M43 446L43 378L862 378L862 446ZM482 301L482-78L782-78L782 301ZM708 239L708-16L557-16L557 239ZM119 586L119 518L168 518C249 518 335 520 442 540L433 608C347 592 272 587 204 586L204 736L423 736L423 805L119 805ZM473 590L473 523L791 523L791 590L556 590L556 737L782 737L782 806L473 806ZM132-11L132-74L180-74C300-74 367-73 452-57L445 6C371-9 312-11 215-11L215 85L427 85L427 301L130 301L130 236L344 236L344 143L132 143Z"/></svg>