<svg id="UB74E" viewBox="0 0 920 1000"><path transform="translate(0, 900) scale(1,-1)" d="M709 826L709 331L788 331L788 826ZM59 362C236 362 451 370 645 395L640 457C451 438 231 432 47 432ZM496 284L496-78L788-78L788 284ZM715 223L715-18L567-18L567 223ZM87 585L87 518L127 518C190 518 254 519 337 536L328 601C266 589 211 586 161 585L161 710L316 710L316 777L87 777ZM362 585L362 518L611 518L611 585L442 585L442 710L600 710L600 778L362 778ZM140-13L140-74L188-74C324-74 386-73 466-57L458 3C389-11 333-13 223-13L223 81L440 81L440 284L138 284L138 221L357 221L357 137L140 137Z"/></svg>