<svg id="UB703" viewBox="0 0 920 1000"><path transform="translate(0, 900) scale(1,-1)" d="M709 826L709 198L793 198L793 826ZM90 573L90 508L130 508C194 508 258 508 340 524L331 590C271 577 219 574 170 573L170 717L319 717L319 784L90 784ZM365 574L365 508L618 508L618 574L446 574L446 719L606 719L606 785L365 785ZM50 357C126 357 207 358 291 361L291 197L374 197L374 365C468 369 563 376 655 387L649 451C448 434 229 430 38 429ZM461 238L461 214C461 96 325 14 150-8L183-74C325-53 448 4 504 98C559 5 679-55 814-76L851-11C681 12 546 98 546 214L546 238Z"/></svg>