<svg id="UB749" viewBox="0 0 920 1000"><path transform="translate(0, 900) scale(1,-1)" d="M709 826L709 269L788 269L788 826ZM63 325C240 325 454 331 648 354L643 418C450 400 234 397 51 396ZM90 564L90 496L130 496C194 496 258 497 340 514L331 580C268 568 214 565 164 564L164 715L319 715L319 784L90 784ZM365 564L365 496L618 496L618 564L445 564L445 716L606 716L606 785L365 785ZM439 240L439 171L588 171L588 159C588 89 536 22 446-15L426 57C369 28 279 18 225 15L225 231L144 231L144-65L193-65C244-65 337-59 417-32L457-87C539-62 599-10 630 53C660-10 718-59 794-83L838-21C735 10 670 80 670 161L670 171L816 171L816 240Z"/></svg>