<svg id="UB88F" viewBox="0 0 920 1000"><path transform="translate(0, 900) scale(1,-1)" d="M669 826L669 256L752 256L752 523L884 523L884 592L752 592L752 826ZM58 318C218 318 428 322 617 352L613 408C538 398 458 392 377 389L377 469L555 469L555 529L203 529L203 604L540 604L540 790L116 790L116 732L456 732L456 660L119 660L119 469L291 469L291 385C204 383 120 382 47 382ZM412 284L412 193L142 193L142 126L407 126C383 50 256-13 107-27L134-89C273-73 398-20 453 60C508-19 633-72 773-88L799-25C651-12 523 50 500 126L765 126L765 193L494 193L494 284Z"/></svg>