<svg id="UB9D7" viewBox="0 0 920 1000"><path transform="translate(0, 900) scale(1,-1)" d="M83 774L83 404L502 404L502 774ZM419 708L419 469L166 469L166 708ZM615 163C526 163 460 116 460 42C460-32 526-78 615-78C704-78 769-32 769 42C769 116 704 163 615 163ZM615 106C665 106 698 81 698 42C698 3 665-22 615-22C565-22 531 3 531 42C531 81 565 106 615 106ZM662 826L662 370L745 370L745 558L882 558L882 628L745 628L745 826ZM118-4L118-68L166-68C286-68 351-66 433-50L426 14C353-1 295-4 197-4L197 92L401 92L401 299L116 299L116 236L321 236L321 152L118 152ZM576 344L576 261L429 261L429 199L807 199L807 261L656 261L656 344Z"/></svg>