<svg id="UB932" viewBox="0 0 920 1000"><path transform="translate(0, 900) scale(1,-1)" d="M741 826L741 260L821 260L821 826ZM239 73L406 73L406-11L239-11ZM104 791L104 731L386 731L386 673L107 673L107 500L482 500L482 561L189 561L189 622L468 622L468 791ZM577 811L577 362L416 362L416 303L577 303L577 261L655 261L655 811ZM63 380C118 380 183 382 251 385L251 258L330 258L330 390C400 394 469 400 529 408L525 468C390 454 189 448 53 447ZM160 226L160-73L484-73L484-20L528-81C604-51 657 5 687 72C716 6 767-50 840-81L886-16C787 25 728 115 728 195L728 230L645 230L645 201C645 115 587 25 484-15L484 226L406 226L406 134L239 134L239 226Z"/></svg>