<svg id="UBB7E" viewBox="0 0 920 1000"><path transform="translate(0, 900) scale(1,-1)" d="M114 785L114 539L460 539L460 785ZM379 721L379 603L194 603L194 721ZM741 826L741 269L821 269L821 826ZM243 79L407 79L407-6L243-6ZM62 409C117 409 183 411 251 414L251 274L330 274L330 419C400 424 469 431 530 440L525 499C385 484 185 478 53 478ZM416 374L416 316L577 316L577 271L655 271L655 811L577 811L577 374ZM165 234L165-71L485-71L485-18L528-78C604-48 659 8 688 74C717 10 769-47 843-77L887-11C787 30 728 120 728 200L728 239L645 239L645 196C645 115 587 29 485-10L485 234L407 234L407 142L243 142L243 234Z"/></svg>