<svg id="UBCC2" viewBox="0 0 920 1000"><path transform="translate(0, 900) scale(1,-1)" d="M166 578L414 578L414 433L166 433ZM615 133C517 133 447 92 447 26C447-39 517-80 615-80C712-80 782-39 782 26C782 92 712 133 615 133ZM615 77C670 77 709 58 709 26C709-6 670-24 615-24C560-24 521-6 521 26C521 58 560 77 615 77ZM497 629L703 629L703 511L497 511ZM703 826L703 696L497 696L497 782L414 782L414 644L166 644L166 782L83 782L83 365L497 365L497 444L703 444L703 337L786 337L786 826ZM140 253L140-56L185-56C252-56 339-50 429-22L415 47C350 24 278 16 222 14L222 253ZM579 310L579 232L392 232L392 169L840 169L840 232L660 232L660 310Z"/></svg>