<svg id="UBC20" viewBox="0 0 920 1000"><path transform="translate(0, 900) scale(1,-1)" d="M85 786L85 394L502 394L502 786L419 786L419 658L167 658L167 786ZM167 593L419 593L419 464L167 464ZM662 826L662 351L747 351L747 558L882 558L882 629L747 629L747 826ZM145-8L145-74L192-74C315-74 378-73 457-57L452-27L497-85C572-52 622 8 649 82C675 12 724-45 796-78L843-15C739 28 690 123 690 221L690 312L609 312L609 224C609 120 558 22 452-23L447 8C379-6 324-8 225-8L225 91L435 91L435 306L142 306L142 241L355 241L355 151L145 151Z"/></svg>