<svg id="UBD25" viewBox="0 0 920 1000"><path transform="translate(0, 900) scale(1,-1)" d="M207 630L458 630L458 537L207 537ZM458 245C265 245 151 188 151 83C151-21 265-79 458-79C652-79 765-21 765 83C765 188 652 245 458 245ZM458 178C598 178 679 144 679 83C679 22 598-13 458-13C319-13 238 22 238 83C238 144 319 178 458 178ZM57 302C226 303 441 315 618 336L611 401C538 394 458 388 377 384L377 471L540 471L540 787L458 787L458 693L207 693L207 787L125 787L125 471L292 471L292 380C207 377 123 375 47 374ZM669 826L669 260L753 260L753 500L884 500L884 571L753 571L753 826Z"/></svg>