<svg id="UBD38" viewBox="0 0 920 1000"><path transform="translate(0, 900) scale(1,-1)" d="M189 648L382 648L382 559L189 559ZM60 343C191 344 382 354 517 371L511 433C458 429 393 425 327 421L327 497L465 497L465 795L382 795L382 707L189 707L189 795L106 795L106 497L247 497L247 418C176 415 107 414 50 414ZM741 826L741 604L633 604L633 811L554 811L554 335L633 335L633 536L741 536L741 332L821 332L821 826ZM162-10L162-74L211-74C340-74 405-73 487-56L484-36L521-85C598-51 649 9 677 83C703 13 752-45 828-77L872-15C767 28 717 122 717 220L717 289L636 289L636 221C636 120 585 24 482-21L478 7C408-9 349-10 242-10L242 80L467 80L467 282L160 282L160 220L386 220L386 137L162 137Z"/></svg>