<svg id="UBD7F" viewBox="0 0 920 1000"><path transform="translate(0, 900) scale(1,-1)" d="M232 668L671 668L671 576L232 576ZM447 134C281 134 184 94 184 20C184-55 281-94 447-94C613-94 710-55 710 20C710 94 613 134 447 134ZM447 82C559 82 625 59 625 20C625-19 559-41 447-41C335-41 270-19 270 20C270 59 335 82 447 82ZM150 819L150 510L267 510L267 418L43 418L43 354L862 354L862 418L635 418L635 510L753 510L753 819L671 819L671 732L232 732L232 819ZM349 418L349 510L552 510L552 418ZM406 324L406 246L113 246L113 181L782 181L782 246L489 246L489 324Z"/></svg>