<svg id="UBDCC" viewBox="0 0 920 1000"><path transform="translate(0, 900) scale(1,-1)" d="M741 826L741 247L821 247L821 826ZM99 776L99 511L470 511L470 776L389 776L389 706L182 706L182 776ZM182 644L389 644L389 573L182 573ZM59 375C112 375 176 376 243 380L243 250L322 250L322 384C391 389 460 396 521 405L516 465C378 449 178 444 49 443ZM411 342L411 283L572 283L572 249L650 249L650 807L572 807L572 342ZM617 221L617 200C617 122 576 38 494-12C411 37 371 121 371 200L371 221L291 221L291 200C291 110 221 17 104-21L146-81C232-51 296 7 329 77C356 3 411-61 494-95C577-61 632 5 659 79C692 8 755-51 843-81L885-21C767 16 698 108 698 200L698 221Z"/></svg>