<svg id="UBE86" viewBox="0 0 920 1000"><path transform="translate(0, 900) scale(1,-1)" d="M61 776L61 387L275 387L275 776L213 776L213 649L122 649L122 776ZM122 582L213 582L213 455L122 455ZM318 776L318 388L529 388L529 776L469 776L469 649L379 649L379 776ZM379 582L469 582L469 455L379 455ZM511 305L511-79L819-79L819 305ZM748 243L748-16L583-16L583 243ZM749 826L749 620L661 620L661 809L591 809L591 353L661 353L661 552L749 552L749 349L819 349L819 826ZM145-10L145-74L196-74C316-74 387-73 480-57L473 5C391-9 327-10 227-10L227 86L454 86L454 305L143 305L143 240L372 240L372 146L145 146Z"/></svg>