<svg id="UBE05" viewBox="0 0 920 1000"><path transform="translate(0, 900) scale(1,-1)" d="M458 175C599 175 683 142 683 82C683 22 599-12 458-12C316-12 232 22 232 82C232 142 316 175 458 175ZM158 805L158 472L760 472L760 805L678 805L678 705L240 705L240 805ZM240 640L678 640L678 538L240 538ZM50 393L50 326L254 326L254 209C186 183 149 139 149 82C149-20 264-76 458-76C651-76 767-20 767 82C767 140 729 183 661 209L661 326L867 326L867 393ZM458 240C413 240 373 237 337 231L337 326L578 326L578 231C542 237 502 240 458 240Z"/></svg>