<svg id="UBE90" viewBox="0 0 920 1000"><path transform="translate(0, 900) scale(1,-1)" d="M67 767L67 346L280 346L280 767L216 767L216 621L132 621L132 767ZM132 555L216 555L216 412L132 412ZM329 767L329 346L541 346L541 767L477 767L477 621L393 621L393 767ZM393 555L477 555L477 412L393 412ZM630 262L630 215C630 146 587 55 502 2C417 51 377 136 377 215L377 262L296 262L296 215C296 129 228 32 114-8L156-70C241-38 303 24 335 96C362 21 416-44 503-78C587-42 642 26 669 98C701 24 764-38 852-70L893-8C779 30 711 123 711 215L711 262ZM605 809L605 304L677 304L677 526L764 526L764 297L836 297L836 826L764 826L764 594L677 594L677 809Z"/></svg>