<svg id="UBFCA" viewBox="0 0 920 1000"><path transform="translate(0, 900) scale(1,-1)" d="M120 805L120 482L421 482L421 805L342 805L342 709L198 709L198 805ZM198 650L342 650L342 545L198 545ZM481 805L481 482L785 482L785 805L706 805L706 709L560 709L560 805ZM560 650L706 650L706 545L560 545ZM562 477L562 372L342 372L342 477L260 477L260 372L43 372L43 305L860 305L860 372L645 372L645 477ZM129-3L129-69L784-69L784-3L636-3L636 160L776 160L776 225L137 225L137 160L277 160L277-3ZM359 160L553 160L553-3L359-3Z"/></svg>