<svg id="UBFD8" viewBox="0 0 920 1000"><path transform="translate(0, 900) scale(1,-1)" d="M120 814L120 511L421 511L421 814L342 814L342 725L198 725L198 814ZM198 665L342 665L342 571L198 571ZM481 814L481 512L786 512L786 814L707 814L707 725L561 725L561 814ZM561 666L707 666L707 572L561 572ZM124-9L124-74L173-74C300-74 363-73 445-56L440-26L485-84C560-51 611 8 638 81C664 12 713-46 787-77L833-15C729 27 679 119 679 214L679 294L598 294L598 218C598 116 545 21 440-24L435 8C365-7 308-9 204-9L204 81L424 81L424 267L494 267L494 376L862 376L862 444L43 444L43 376L409 376L409 287L122 287L122 223L344 223L344 141L124 141Z"/></svg>