<svg id="UC07F" viewBox="0 0 920 1000"><path transform="translate(0, 900) scale(1,-1)" d="M708 826L708 322L788 322L788 826ZM59 344C238 346 455 355 644 377L638 440C450 423 233 417 47 416ZM87 791L87 491L325 491L325 791L258 791L258 703L154 703L154 791ZM154 643L258 643L258 552L154 552ZM368 791L368 491L605 491L605 791L539 791L539 702L434 702L434 791ZM434 642L539 642L539 552L434 552ZM486 284L486-78L788-78L788 284L711 284L711 168L562 168L562 284ZM562 106L711 106L711-14L562-14ZM137-11L137-73L186-73C308-73 376-72 464-57L454 5C379-9 318-11 219-11L219 76L433 76L433 283L135 283L135 220L351 220L351 132L137 132Z"/></svg>