<svg id="UC1FB" viewBox="0 0 920 1000"><path transform="translate(0, 900) scale(1,-1)" d="M700 826L700 306L784 306L784 826ZM489 139C328 139 234 101 234 30C234-41 328-78 489-78C649-78 743-41 743 30C743 101 649 139 489 139ZM489 83C594 83 656 65 656 30C656-4 594-22 489-22C383-22 321-4 321 30C321 65 383 83 489 83ZM56 357C228 358 447 363 646 394L641 452C560 442 473 435 387 431L387 533L301 533L301 428C211 424 123 423 45 423ZM296 805L296 775C296 674 214 591 82 561L126 495C229 523 305 581 342 661C381 591 458 542 560 519L601 586C468 611 384 683 384 772L384 805ZM448 329L448 249L166 249L166 184L810 184L810 249L530 249L530 329Z"/></svg>