<svg id="UC1A7" viewBox="0 0 920 1000"><path transform="translate(0, 900) scale(1,-1)" d="M451 153C277 153 179 112 179 33C179-46 277-87 451-87C625-87 722-46 722 33C722 112 625 153 451 153ZM451 96C569 96 636 74 636 33C636-9 569-29 451-29C332-29 265-9 265 33C265 74 332 96 451 96ZM43 434L43 367L860 367L860 434L493 434L493 538L408 538L408 434ZM409 816L409 795C409 666 270 586 89 565L122 497C267 518 395 574 453 671C511 576 638 520 779 500L813 566C636 586 494 667 494 792L494 816ZM409 343L409 263L119 263L119 198L783 198L783 263L492 263L492 343Z"/></svg>