<svg id="UC176" viewBox="0 0 920 1000"><path transform="translate(0, 900) scale(1,-1)" d="M734 826L734 307L814 307L814 826ZM630 132C533 132 462 91 462 26C462-40 533-81 630-81C726-81 797-40 797 26C797 91 726 132 630 132ZM630 75C684 75 723 57 723 26C723-7 684-25 630-25C574-25 535-7 535 26C535 57 574 75 630 75ZM437 560L437 495L566 495L566 339L644 339L644 809L566 809L566 711L437 711L437 646L566 646L566 560ZM236 779L236 675C236 562 167 441 48 388L97 325C183 366 245 442 277 532C308 451 366 383 449 346L495 408C383 455 318 563 318 667L318 779ZM154 252L154-57L200-57C267-57 354-52 443-23L430 45C364 22 293 15 237 13L237 252ZM590 301L590 228L406 228L406 165L855 165L855 228L671 228L671 301Z"/></svg>