<svg id="UC264" viewBox="0 0 920 1000"><path transform="translate(0, 900) scale(1,-1)" d="M741 826L741 247L821 247L821 826ZM245 791L245 748C245 660 178 594 64 568L109 502C195 525 257 571 289 636C323 584 384 544 467 525L507 591C400 612 330 669 330 731L330 791ZM60 387C113 387 176 388 243 391L243 250L322 250L322 395C391 400 460 407 521 417L516 476C378 459 178 454 50 454ZM572 807L572 355L412 355L412 296L572 296L572 252L651 252L651 807ZM616 218L616 197C616 119 575 35 493-15C411 34 371 118 371 197L371 218L290 218L290 197C290 108 220 15 103-24L146-84C232-54 295 5 329 76C356 0 410-64 494-97C577-64 631 1 658 76C691 4 754-54 842-84L884-24C766 14 697 106 697 197L697 218Z"/></svg>