<svg id="UC3C5" viewBox="0 0 920 1000"><path transform="translate(0, 900) scale(1,-1)" d="M525 306L525 238L744 238L744-76L826-76L826 306ZM748 828L748 340L826 340L826 828ZM168-8L168-74L224-74C351-74 439-72 551-54L544 11C443-6 362-8 251-8L251 92L484 92L484 306L166 306L166 240L402 240L402 153L168 153ZM352 771L352 688C352 631 344 537 291 471C235 542 229 640 229 688L229 771L155 771L155 688C155 611 120 497 27 441L70 383C129 418 166 475 188 536C204 473 234 410 291 372C348 410 378 470 393 533C415 472 451 417 509 383L552 441C460 496 426 608 426 688L426 771ZM504 569L504 502L588 502L588 347L665 347L665 810L588 810L588 713L504 713L504 646L588 646L588 569Z"/></svg>