<svg id="UC395" viewBox="0 0 920 1000"><path transform="translate(0, 900) scale(1,-1)" d="M748 827L748 330L826 330L826 827ZM220 287L220-68L826-68L826 287L744 287L744 183L303 183L303 287ZM303 117L744 117L744-1L303-1ZM484 648L484 579L588 579L588 335L665 335L665 809L588 809L588 648ZM364 784L364 690C364 622 353 516 295 443C235 521 225 633 225 690L225 784L152 784L152 690C152 609 127 479 33 413L76 354C134 392 168 455 187 521C205 453 237 386 295 345C354 385 385 450 402 518C422 453 455 392 513 354L556 413C462 477 438 605 438 690L438 784Z"/></svg>