<svg id="UC390" viewBox="0 0 920 1000"><path transform="translate(0, 900) scale(1,-1)" d="M748 827L748 346L826 346L826 827ZM491 660L491 591L588 591L588 351L665 351L665 809L588 809L588 660ZM170-8L170-74L219-74C347-74 411-73 492-56L487-23L529-80C604-47 655 11 682 83C709 12 758-46 833-78L879-15C773 28 724 122 724 220L724 311L643 311L643 222C643 121 591 27 486-17L482 10C412-6 355-8 250-8L250 90L470 90L470 304L168 304L168 239L390 239L390 150L170 150ZM356 773L356 690C356 632 348 538 294 472C236 543 229 642 229 690L229 773L155 773L155 690C155 613 120 499 27 442L70 384C129 419 166 477 188 538C204 476 235 413 293 374C350 411 381 471 397 533C419 472 456 417 516 384L559 442C465 495 431 603 431 690L431 773Z"/></svg>