<svg id="UC39F" viewBox="0 0 920 1000"><path transform="translate(0, 900) scale(1,-1)" d="M748 826L748 318L826 318L826 826ZM524 155C361 155 267 114 267 37C267-41 361-82 524-82C688-82 782-41 782 37C782 114 688 155 524 155ZM524 98C633 98 695 77 695 37C695-4 633-25 524-25C416-25 354-4 354 37C354 77 416 98 524 98ZM492 659L492 590L589 590L589 352L666 352L666 808L589 808L589 659ZM356 772L356 689C356 631 348 537 294 471C236 542 229 641 229 689L229 772L155 772L155 689C155 613 120 498 27 442L70 384C129 419 166 476 188 538C204 475 235 412 293 373C350 410 381 471 397 533C419 471 456 416 516 383L559 442C465 495 431 603 431 689L431 772ZM483 338L483 258L209 258L209 193L839 193L839 258L566 258L566 338Z"/></svg>