<svg id="UC389" viewBox="0 0 920 1000"><path transform="translate(0, 900) scale(1,-1)" d="M748 826L748 290L826 290L826 826ZM490 618L490 549L589 549L589 293L667 293L667 809L589 809L589 618ZM464 256L464 188L615 188L615 173C615 95 563 26 472-12L452 51C392 23 304 12 249 9L249 241L169 241L169-62L216-62C265-62 357-56 439-30L479-86C564-60 625-7 657 61C687-6 745-57 827-83L870-20C762 10 699 84 699 173L699 188L851 188L851 256ZM356 759L356 659C356 595 349 493 294 421C236 498 229 606 229 659L229 759L155 759L155 659C155 575 122 451 27 390L71 332C130 369 167 430 189 495C205 428 235 362 293 320C350 360 381 423 397 489C419 423 456 365 517 330L558 390C463 446 431 564 431 659L431 759Z"/></svg>