<svg id="UC336" viewBox="0 0 920 1000"><path transform="translate(0, 900) scale(1,-1)" d="M611 146C514 146 443 103 443 34C443-36 514-80 611-80C708-80 779-36 779 34C779 103 708 146 611 146ZM611 91C666 91 705 69 705 34C705-3 666-25 611-25C556-25 517-3 517 34C517 69 556 91 611 91ZM417 773L417 682C417 609 401 506 335 436C268 508 252 614 252 682L252 773L173 773L173 682C173 590 133 466 30 409L78 349C145 388 188 454 211 527C230 454 267 382 334 339C401 381 438 450 458 522C481 450 524 386 592 348L639 409C536 464 497 581 497 682L497 773ZM675 827L675 328L758 328L758 422L874 422L874 492L758 492L758 621L875 621L875 691L758 691L758 827ZM130 259L130-57L175-57C242-57 330-52 419-24L404 45C340 22 268 14 212 12L212 259ZM571 315L571 238L384 238L384 176L838 176L838 238L652 238L652 315Z"/></svg>