<svg id="UC424" viewBox="0 0 920 1000"><path transform="translate(0, 900) scale(1,-1)" d="M53 304C180 305 374 307 529 336L524 395C464 386 396 381 328 377L328 463L250 463L250 374C174 371 101 371 43 371ZM614 233L614 210C614 137 571 53 486 5C402 52 360 136 360 210L360 233L280 233L280 210C280 121 213 32 98-4L137-66C226-36 288 23 320 95C347 22 402-42 487-74C572-41 626 24 653 96C685 23 748-36 837-66L876-4C762 31 694 120 694 210L694 233ZM566 809L566 274L644 274L644 513L738 513L738 269L817 269L817 827L738 827L738 580L644 580L644 809ZM354 783L354 730C354 680 342 609 290 559C238 609 225 680 225 730L225 783L151 783L151 730C151 662 126 569 41 526L83 468C139 497 171 545 189 598C206 549 236 503 290 475C344 503 374 549 391 598C409 545 442 497 499 467L539 526C454 569 429 662 429 730L429 783Z"/></svg>