<svg id="UC421" viewBox="0 0 920 1000"><path transform="translate(0, 900) scale(1,-1)" d="M189 262L189-69L811-69L811 262L728 262L728 162L271 162L271 262ZM271 96L728 96L728-4L271-4ZM348 783L348 744C348 694 336 622 284 573C232 622 219 694 219 744L219 783L145 783L145 744C145 675 120 582 35 539L77 481C133 511 165 559 183 611C198 566 225 523 272 495L244 495L244 390C170 388 98 387 42 387L53 318C176 318 368 324 513 348L507 408C452 401 388 396 324 393L324 495L296 495C343 524 370 567 385 613C403 559 435 510 493 481L533 539C448 583 423 675 423 744L423 783ZM548 811L548 303L626 303L626 526L731 526L731 298L811 298L811 827L731 827L731 594L626 594L626 811Z"/></svg>