<svg id="UC463" viewBox="0 0 920 1000"><path transform="translate(0, 900) scale(1,-1)" d="M458 134C292 134 195 94 195 20C195-55 292-94 458-94C624-94 721-55 721 20C721 94 624 134 458 134ZM458 82C570 82 636 59 636 20C636-19 570-41 458-41C346-41 280-19 280 20C280 59 346 82 458 82ZM590 817L590 764C590 706 543 632 459 592C373 633 325 709 325 764L325 817L243 817L243 764C243 696 182 607 74 569L113 508C199 539 257 599 286 665C315 602 371 542 458 513C544 542 601 600 630 663C658 595 716 537 803 508L842 569C732 604 673 687 673 764L673 817ZM559 546L559 422L356 422L356 546L273 546L273 422L49 422L49 356L869 356L869 422L642 422L642 546ZM416 320L416 242L123 242L123 177L793 177L793 242L498 242L498 320Z"/></svg>