<svg id="UC49D" viewBox="0 0 920 1000"><path transform="translate(0, 900) scale(1,-1)" d="M747 826L747 247L826 247L826 826ZM188 208L188 140L742 140L742-80L826-80L826 208ZM415 341L415 284L583 284L583 252L661 252L661 808L583 808L583 341ZM57 374C113 374 179 376 248 379L248 251L327 251L327 384C400 389 473 396 537 406L532 469C385 451 182 445 46 444ZM359 786L359 752C359 708 350 630 299 575C244 634 237 717 237 752L237 786L163 786L163 752C163 678 130 591 44 551L87 494C143 522 178 569 198 622C214 570 244 518 298 485C353 516 383 568 399 621C419 569 454 521 511 492L551 551C465 594 433 685 433 752L433 786Z"/></svg>