<svg id="UC5A3" viewBox="0 0 920 1000"><path transform="translate(0, 900) scale(1,-1)" d="M266 783C145 783 59 703 59 584C59 467 145 387 266 387C387 387 473 467 473 584C473 703 387 783 266 783ZM266 712C341 712 393 660 393 584C393 509 341 458 266 458C192 458 139 509 139 584C139 660 192 712 266 712ZM500 308L500-73L812-73L812 308L738 308L738 177L575 177L575 308ZM575 113L738 113L738-7L575-7ZM615 640L735 640L735 529L615 529ZM735 826L735 708L615 708L615 809L537 809L537 366L615 366L615 461L735 461L735 359L813 359L813 826ZM146-10L146-73L196-73C328-73 392-72 475-55L466 8C393-8 335-10 226-10L226 87L447 87L447 306L144 306L144 240L367 240L367 147L146 147Z"/></svg>