<svg id="UC5FA" viewBox="0 0 920 1000"><path transform="translate(0, 900) scale(1,-1)" d="M288 725C375 725 437 672 437 592C437 512 375 459 288 459C201 459 139 512 139 592C139 672 201 725 288 725ZM512 647L697 647L697 525L509 525C515 546 519 568 519 592C519 611 517 630 512 647ZM697 826L697 714L479 714C439 766 372 796 288 796C151 796 56 715 56 592C56 469 151 388 288 388C365 388 429 414 469 458L697 458L697 343L782 343L782 826ZM146-7L146-73L196-73C312-73 380-72 467-55L458 10C383-4 322-7 228-7L228 94L447 94L447 304L144 304L144 238L365 238L365 150L146 150ZM481-6L481-73L813-73L813-6L751-6L751 237L810 237L810 304L486 304L486 237L546 237L546-6ZM613 237L684 237L684-6L613-6Z"/></svg>