<svg id="UC5E5" viewBox="0 0 920 1000"><path transform="translate(0, 900) scale(1,-1)" d="M264 691C339 691 395 631 395 547C395 464 339 404 264 404C189 404 134 464 134 547C134 631 189 691 264 691ZM733 826L733 271L813 271L813 826ZM515 254C328 254 213 192 213 89C213-15 328-76 515-76C701-76 817-15 817 89C817 192 701 254 515 254ZM515 189C650 189 734 152 734 89C734 26 650-11 515-11C379-11 295 26 295 89C295 152 379 189 515 189ZM562 808L562 582L468 582C453 689 372 760 264 760C145 760 59 673 59 547C59 422 145 334 264 334C372 334 453 406 468 513L562 513L562 302L640 302L640 808Z"/></svg>