<svg id="UC6C2" viewBox="0 0 920 1000"><path transform="translate(0, 900) scale(1,-1)" d="M452 814C258 814 133 751 133 649C133 548 258 483 452 483C644 483 769 548 769 649C769 751 644 814 452 814ZM452 746C586 746 677 709 677 649C677 589 586 551 452 551C317 551 225 589 225 649C225 709 317 746 452 746ZM202 92L365 92L365-6L202-6ZM123 254L123-72L443-72L443-16L486-78C562-47 615 11 644 80C672 13 724-46 799-78L843-13C742 30 684 124 684 208L684 260L602 260L602 213C602 125 545 32 443-11L443 231L494 231L494 356L860 356L860 424L43 424L43 356L409 356L409 254L365 254L365 157L202 157L202 254Z"/></svg>