<svg id="UC627" viewBox="0 0 920 1000"><path transform="translate(0, 900) scale(1,-1)" d="M452 744C586 744 679 702 679 637C679 573 586 531 452 531C316 531 224 573 224 637C224 702 316 744 452 744ZM121 243L121 175L341 175L341-81L424-81L424 243ZM452 811C260 811 132 744 132 637C132 540 241 474 409 464L409 380L43 380L43 313L860 313L860 380L494 380L494 464C661 474 770 540 770 637C770 744 642 811 452 811ZM588 249L588 191C588 112 533 16 426-27L471-89C547-58 599 1 628 67C655 0 705-56 781-86L826-22C722 17 671 108 671 196L671 249Z"/></svg>