<svg id="UC6FD" viewBox="0 0 920 1000"><path transform="translate(0, 900) scale(1,-1)" d="M503 223C303 223 186 170 186 74C186-24 303-76 503-76C703-76 820-24 820 74C820 170 703 223 503 223ZM503 161C651 161 735 130 735 74C735 18 651-14 503-14C356-14 271 18 271 74C271 130 356 161 503 161ZM731 827L731 227L811 227L811 827ZM288 790C170 790 91 737 91 653C91 568 170 515 288 515C405 515 484 568 484 653C484 737 405 790 288 790ZM288 730C361 730 409 701 409 653C409 605 361 575 288 575C214 575 167 605 167 653C167 701 214 730 288 730ZM411 361L411 300L569 300L569 258L648 258L648 811L569 811L569 361ZM54 393C109 393 177 394 250 397L250 244L330 244L330 401C397 406 465 414 526 426L520 484C370 460 168 459 45 459Z"/></svg>