<svg id="UC7F8" viewBox="0 0 920 1000"><path transform="translate(0, 900) scale(1,-1)" d="M68 753L68 682L236 682L236 643C236 540 168 424 52 375L98 313C183 350 244 423 276 506C308 433 366 370 449 338L491 404C379 447 315 546 315 642L315 682L471 682L471 753ZM615 625L735 625L735 498L615 498ZM735 826L735 696L615 696L615 809L537 809L537 304L615 304L615 428L735 428L735 296L813 296L813 826ZM616 270L616 218C616 136 577 49 494-3C412 48 372 135 372 218L372 270L293 270L293 216C293 122 224 26 107-12L149-74C236-43 298 17 331 90C358 14 411-52 494-87C578-52 631 15 658 91C691 18 754-43 841-74L884-12C766 26 698 122 698 216L698 270Z"/></svg>