<svg id="UC74E" viewBox="0 0 920 1000"><path transform="translate(0, 900) scale(1,-1)" d="M43 424L43 356L860 356L860 424ZM452 819C259 819 132 756 132 654C132 554 259 490 452 490C644 490 770 554 770 654C770 756 644 819 452 819ZM452 751C587 751 679 714 679 654C679 595 587 558 452 558C316 558 224 595 224 654C224 714 316 751 452 751ZM204 107L365 107L365-5L204-5ZM125 275L125-71L443-71L443-15L488-79C564-48 618 11 647 80C676 14 727-44 801-77L844-11C744 33 686 128 686 212L686 279L604 279L604 211C604 123 547 30 443-11L443 275L365 275L365 170L204 170L204 275Z"/></svg>