<svg id="UC7AF" viewBox="0 0 920 1000"><path transform="translate(0, 900) scale(1,-1)" d="M154 258L154 189L378 189L378-80L461-80L461 258ZM68 752L68 682L236 682L236 643C236 540 168 424 52 375L98 313C183 350 244 423 276 506C308 433 366 370 449 338L491 404C379 447 315 546 315 642L315 682L471 682L471 752ZM734 826L734 594L616 594L616 809L537 809L537 298L616 298L616 525L734 525L734 291L813 291L813 826ZM636 270L636 197C636 112 577 20 465-22L509-85C591-54 648 6 678 75C706 7 759-50 837-82L881-18C774 22 720 116 720 203L720 270Z"/></svg>