<svg id="UC7F6" viewBox="0 0 920 1000"><path transform="translate(0, 900) scale(1,-1)" d="M244 115L406 115L406-3L244-3ZM615 638L735 638L735 515L615 515ZM735 826L735 708L615 708L615 809L537 809L537 341L615 341L615 446L735 446L735 333L814 333L814 826ZM68 765L68 695L234 695L234 659C234 559 166 448 52 401L96 338C183 376 245 448 276 531C307 457 365 395 450 362L490 428C381 468 316 564 316 657L316 695L471 695L471 765ZM165 287L165-69L484-69L484-19L526-79C605-47 660 13 689 83C717 15 769-45 843-78L887-13C784 33 728 131 728 218L728 291L645 291L645 212C645 124 588 30 484-11L484 287L406 287L406 179L244 179L244 287Z"/></svg>