<svg id="UC701" viewBox="0 0 920 1000"><path transform="translate(0, 900) scale(1,-1)" d="M741 826L741 297L821 297L821 826ZM295 804C173 804 95 751 95 664C95 576 173 524 295 524C418 524 496 576 496 664C496 751 418 804 295 804ZM295 738C371 738 418 711 418 664C418 617 371 590 295 590C219 590 172 617 172 664C172 711 219 738 295 738ZM417 393L417 339L577 339L577 304L656 304L656 811L577 811L577 393ZM62 413C117 413 184 414 254 417L254 295L333 295L333 422C401 427 470 434 530 445L523 502C382 483 182 479 52 479ZM196 259L196-70L848-70L848-8L281-8L281 66L817 66L817 123L281 123L281 197L828 197L828 259Z"/></svg>