<svg id="UC729" viewBox="0 0 920 1000"><path transform="translate(0, 900) scale(1,-1)" d="M452 816C253 816 133 759 133 659C133 559 253 502 452 502C650 502 769 559 769 659C769 759 650 816 452 816ZM452 749C594 749 678 715 678 659C678 603 594 568 452 568C309 568 225 603 225 659C225 715 309 749 452 749ZM133-9L133-74L188-74C321-74 402-71 502-53L495 12C405-6 331-9 218-9L218 83L436 83L436 288L347 288L347 387L556 387L556 288L475 288L475 222L689 222L689-77L774-77L774 288L641 288L641 387L860 387L860 453L43 453L43 387L263 387L263 288L131 288L131 224L352 224L352 143L133 143Z"/></svg>