<svg id="UC87E" viewBox="0 0 920 1000"><path transform="translate(0, 900) scale(1,-1)" d="M117 803L117 737L400 737C383 634 254 576 89 561L117 493C264 511 395 560 450 656C503 562 634 510 783 494L813 562C645 575 514 639 502 737L785 737L785 803ZM121-4L121-67L169-67C298-67 361-67 441-51L432 12C362-2 305-4 199-4L199 84L411 84L411 277L119 277L119 215L334 215L334 141L121 141ZM454-2L454-69L791-69L791-2L724-2L724 210L784 210L784 277L460 277L460 210L520 210L520-2ZM587 210L657 210L657-2L587-2ZM410 550L410 430L44 430L44 363L860 363L860 430L494 430L494 550Z"/></svg>