<svg id="UC9D4" viewBox="0 0 920 1000"><path transform="translate(0, 900) scale(1,-1)" d="M699 826L699 306L784 306L784 826ZM73 768L73 698L274 698L274 689C274 553 185 440 45 393L92 324C200 363 281 441 319 543C359 454 437 384 538 349L582 415C448 458 360 566 360 683L360 698L561 698L561 768ZM607 269L607 216C607 134 568 46 486-8C404 45 366 133 366 216L366 269L285 269L285 216C285 119 218 20 99-19L143-81C229-49 290 12 323 85C351 9 404-56 486-92C568-56 622 11 649 88C682 13 743-48 830-81L874-19C756 20 688 119 688 216L688 269Z"/></svg>