<svg id="UC994" viewBox="0 0 920 1000"><path transform="translate(0, 900) scale(1,-1)" d="M43 447L43 379L860 379L860 447ZM117 803L117 737L400 737C380 633 255 577 88 562L119 492C262 511 392 557 450 651C506 558 637 511 783 494L817 563C646 577 518 637 503 737L785 737L785 803ZM124-8L124-74L173-74C300-74 364-73 445-56L440-25L486-85C561-52 612 7 638 80C665 11 713-46 786-77L833-15C729 27 679 120 679 216L679 307L598 307L598 219C598 116 545 21 440-23L435 10C365-6 308-8 204-8L204 88L424 88L424 300L122 300L122 236L344 236L344 148L124 148Z"/></svg>