<svg id="UC923" viewBox="0 0 920 1000"><path transform="translate(0, 900) scale(1,-1)" d="M489 263L489-74L787-74L787 263L711 263L711 155L565 155L565 263ZM565 94L711 94L711-12L565-12ZM516 390L516 335L705 335L705 293L787 293L787 826L705 826L705 390ZM54 410C127 410 205 412 286 415L286 294L369 294L369 419C458 424 547 430 631 439L625 501C439 486 225 481 42 480ZM101 801L101 741L294 741C290 662 202 600 75 579L106 519C217 541 302 591 338 663C377 598 460 556 568 538L600 599C474 615 388 668 382 741L575 741L575 801ZM136-14L136-73L184-73C306-73 374-72 462-57L453 2C377-12 317-14 218-14L218 67L434 67L434 261L134 261L134 199L353 199L353 124L136 124Z"/></svg>