<svg id="UCA54" viewBox="0 0 920 1000"><path transform="translate(0, 900) scale(1,-1)" d="M200 0L200-66L831-66L831 0L283 0L283 97L807 97L807 311L198 311L198 246L725 246L725 159L200 159ZM592 631L592 564L724 564L724 354L807 354L807 827L724 827L724 631ZM365 781L365 713L428 713L428 657C428 599 408 510 346 451C282 511 263 603 263 657L263 713L327 713L327 781L72 781L72 713L185 713L185 657C185 585 140 480 41 431L82 371C152 405 197 466 222 531C241 466 278 400 345 362C414 399 451 464 470 530C494 465 539 404 610 371L651 431C551 479 507 582 507 657L507 713L616 713L616 781Z"/></svg>