<svg id="UCA46" viewBox="0 0 920 1000"><path transform="translate(0, 900) scale(1,-1)" d="M652 632L751 632L751 508L652 508ZM751 827L751 700L652 700L652 809L575 809L575 305L652 305L652 439L751 439L751 301L829 301L829 827ZM311 763L311 695L362 695L362 655C362 593 355 492 298 421C239 497 233 604 233 655L233 695L284 695L284 763L63 763L63 695L159 695L159 655C159 576 127 455 33 396L77 340C135 377 171 437 192 501C208 434 238 366 297 325C356 364 386 429 402 494C423 431 459 374 519 339L560 396C467 452 435 566 435 655L435 695L525 695L525 763ZM203 255L203 188L468 188C468 86 333 5 169-15L200-80C339-61 460-1 513 88C564-4 688-60 828-80L861-16C691 3 560 81 560 188L830 188L830 255Z"/></svg>