<svg id="UCA1D" viewBox="0 0 920 1000"><path transform="translate(0, 900) scale(1,-1)" d="M485 307L485 239L688 239L688-77L770-77L770 307ZM365 780L365 712L428 712L428 663C428 604 408 515 346 456C282 517 263 608 263 663L263 712L327 712L327 780L72 780L72 712L185 712L185 663C185 589 140 484 41 437L86 378C154 413 198 473 222 537C241 472 278 405 345 368C413 404 450 469 469 535C492 469 537 411 606 378L651 437C551 481 507 579 507 663L507 712L616 712L616 780ZM688 827L688 355L770 355L770 473L880 473L880 541L770 541L770 650L880 650L880 719L770 719L770 827ZM139 307L139 242L361 242L361 153L142 153L142-74L196-74C337-74 413-72 509-55L502 10C415-6 345-8 225-8L225 93L444 93L444 307Z"/></svg>