<svg id="UCAA6" viewBox="0 0 920 1000"><path transform="translate(0, 900) scale(1,-1)" d="M754 827L754 317L832 317L832 827ZM634 121C537 121 467 82 467 18C467-45 537-84 634-84C731-84 802-45 802 18C802 82 731 121 634 121ZM634 68C690 68 728 50 728 18C728-13 690-31 634-31C580-31 541-13 541 18C541 50 580 68 634 68ZM309 761L309 694L360 694L360 642C360 581 353 480 297 409C239 485 233 590 233 642L233 694L284 694L284 761L63 761L63 694L159 694L159 645C159 565 127 445 33 385L77 330C135 366 171 426 192 489C207 422 237 354 296 313C355 353 385 418 400 484C421 421 457 364 517 328L558 385C464 441 433 555 433 645L433 694L523 694L523 761ZM509 525L509 457L595 457L595 320L672 320L672 809L595 809L595 665L509 665L509 597L595 597L595 525ZM155 229L155-61L200-61C267-61 355-56 444-27L430 42C365 19 293 11 237 9L237 229ZM594 288L594 216L407 216L407 153L855 153L855 216L675 216L675 288Z"/></svg>