<svg id="UCA7C" viewBox="0 0 920 1000"><path transform="translate(0, 900) scale(1,-1)" d="M754 827L754 286L832 286L832 827ZM311 761L311 694L362 694L362 642C362 580 355 480 298 408C239 484 233 590 233 642L233 694L284 694L284 761L63 761L63 694L159 694L159 645C159 555 128 441 34 385L76 328C135 363 172 421 193 485C208 420 239 353 297 313C357 353 387 419 403 485C423 422 460 364 519 328L560 385C466 441 435 555 435 645L435 694L525 694L525 761ZM492 606L492 537L593 537L593 289L671 289L671 809L593 809L593 606ZM629 265L629 210C629 140 586 49 501-5C416 44 375 130 375 210L375 265L296 265L296 210C296 122 227 25 113-16L156-78C241-46 302 16 334 89C361 14 416-51 502-85C587-50 641 20 669 93C700 17 762-46 850-78L893-16C777 23 710 116 710 210L710 265Z"/></svg>