<svg id="UCBB0" viewBox="0 0 920 1000"><path transform="translate(0, 900) scale(1,-1)" d="M707 827L707 268L789 268L789 827ZM43 362C125 362 214 363 306 366L306 256L390 256L390 370C478 375 568 382 655 393L649 454C445 434 219 432 32 431ZM363 790L363 725L425 725L425 707C425 663 406 597 347 559C290 597 270 663 270 707L270 725L338 725L338 790L80 790L80 725L192 725L192 707C192 650 141 581 51 553L86 495C156 518 203 564 228 615C245 563 279 511 348 484C417 511 451 563 467 615C492 564 539 518 612 495L645 553C554 581 504 649 504 707L504 725L618 725L618 790ZM603 219L603 195C603 123 560 42 476-5C392 41 349 122 349 195L349 219L270 219L270 195C270 108 201 22 87-14L126-75C214-46 277 12 309 82C336 11 391-51 476-82C561-51 616 12 644 83C675 11 739-46 828-75L866-14C752 21 684 107 684 195L684 219Z"/></svg>