<svg id="UCB2D" viewBox="0 0 920 1000"><path transform="translate(0, 900) scale(1,-1)" d="M139 211L139 143L681 143L681-83L764-83L764 211ZM476 792L476 725L590 725L590 711C590 658 541 590 459 554C375 591 325 661 325 711L325 725L440 725L440 792L102 792L102 725L243 725L243 706C243 645 182 563 76 529L114 468C201 498 259 556 287 619C316 561 372 505 458 479C543 504 600 558 629 616C656 551 715 495 803 468L840 529C734 560 673 637 673 706L673 725L813 725L813 792ZM560 494L560 377L359 377L359 494L276 494L276 377L50 377L50 309L869 309L869 377L643 377L643 494Z"/></svg>