<svg id="UCBF7" viewBox="0 0 920 1000"><path transform="translate(0, 900) scale(1,-1)" d="M710 825L710 270L792 270L792 825ZM60 316C240 317 459 322 661 351L655 412C459 389 234 386 49 385ZM380 779L380 711L439 711L439 698C439 651 420 580 364 537C307 580 288 651 288 698L288 711L354 711L354 779L96 779L96 711L209 711L209 698C209 635 159 561 67 531L104 470C174 495 221 542 246 595C263 540 298 486 364 456C430 486 465 541 482 596C507 543 554 495 625 470L661 531C568 561 519 635 519 698L519 711L634 711L634 779ZM194 227L194-67L808-67L808 0L280 0L280 162L801 162L801 227Z"/></svg>