<svg id="UCB24" viewBox="0 0 920 1000"><path transform="translate(0, 900) scale(1,-1)" d="M710 825L710 270L792 270L792 825ZM380 779L380 711L440 711L440 698C440 654 421 588 364 548C307 588 288 654 288 698L288 711L354 711L354 779L96 779L96 711L209 711L209 698C209 629 161 550 68 517L106 457C178 485 224 536 248 594C267 544 301 496 364 469C428 496 462 545 480 596C505 538 552 487 625 460L661 520C568 552 520 631 520 698L520 711L634 711L634 779ZM323 463L323 368C228 365 134 364 49 364L60 295C240 296 459 302 661 330L655 391C575 382 490 376 405 372L405 463ZM600 230L600 207C600 126 560 40 477-12C395 39 355 126 355 207L355 230L276 230L276 207C276 113 211 17 95-22L139-83C223-51 283 8 314 79C341 4 394-61 478-95C562-60 615 6 642 81C674 9 734-51 819-83L862-22C747 17 681 113 681 207L681 230Z"/></svg>