<svg id="UCC5A" viewBox="0 0 920 1000"><path transform="translate(0, 900) scale(1,-1)" d="M734 826L734 594L616 594L616 809L537 809L537 299L616 299L616 525L734 525L734 294L814 294L814 826ZM213 239L213 172L473 172C459 78 327 8 175-10L204-74C343-55 467 4 518 93C570 5 694-55 832-74L861-10C712 8 577 80 563 172L822 172L822 239ZM238 819L238 715L75 715L75 648L238 648C237 541 168 436 56 389L96 326C185 363 248 436 279 522C312 443 375 377 462 343L500 406C389 449 318 548 317 648L477 648L477 715L317 715L317 819Z"/></svg>