<svg id="UCC58" viewBox="0 0 920 1000"><path transform="translate(0, 900) scale(1,-1)" d="M540 809L540 299L619 299L619 524L733 524L733 292L812 292L812 826L733 826L733 593L619 593L619 809ZM238 813L238 707L75 707L75 640L238 640L238 638C238 527 171 415 57 367L97 305C185 343 248 417 279 505C311 424 373 356 460 321L499 384C386 428 317 534 317 638L317 640L477 640L477 707L317 707L317 813ZM620 257L620 218C620 148 577 59 493 6C409 54 368 138 368 218L368 257L288 257L288 218C288 131 220 36 106-5L147-67C233-35 294 27 326 99C353 23 408-42 494-75C578-40 633 30 660 103C691 27 754-35 843-67L883-5C769 33 702 125 702 218L702 257Z"/></svg>