<svg id="UCC24" viewBox="0 0 920 1000"><path transform="translate(0, 900) scale(1,-1)" d="M718 827L718 297L801 297L801 827ZM367 763L367 695L433 695L433 654C433 585 416 487 350 420C284 488 266 589 266 654L266 695L333 695L333 763L72 763L72 695L188 695L188 654C188 567 145 451 43 396L89 336C158 374 201 439 225 510C244 438 282 367 350 326C417 366 454 435 474 505C497 434 541 372 611 335L657 396C553 447 512 558 512 654L512 695L624 695L624 763ZM182 253L182 185L719 185L719 102L163 83L175 14L719 41L719-79L801-79L801 253Z"/></svg>