<svg id="UCCBA" viewBox="0 0 920 1000"><path transform="translate(0, 900) scale(1,-1)" d="M735 827L735 299L814 299L814 827ZM630 120C533 120 462 81 462 19C462-44 533-83 630-83C727-83 798-44 798 19C798 81 727 120 630 120ZM630 67C685 67 724 49 724 19C724-12 685-30 630-30C575-30 536-12 536 19C536 49 575 67 630 67ZM427 576L427 508L559 508L559 305L638 305L638 810L559 810L559 576ZM155 237L155-57L200-57C267-57 355-52 444-23L430 45C364 22 293 15 237 13L237 237ZM594 282L594 215L407 215L407 154L856 154L856 215L675 215L675 282ZM238 819L238 717L75 717L75 650L238 650L238 641C238 532 170 422 56 374L97 312C186 350 248 423 279 510C312 430 374 363 461 329L500 391C387 435 317 538 317 641L317 650L477 650L477 717L317 717L317 819Z"/></svg>