<svg id="UCD23" viewBox="0 0 920 1000"><path transform="translate(0, 900) scale(1,-1)" d="M458 141C286 141 187 102 187 26C187-49 286-88 458-88C631-88 730-49 730 26C730 102 631 141 458 141ZM458 86C573 86 641 66 641 26C641-13 573-34 458-34C344-34 276-13 276 26C276 66 344 86 458 86ZM51 403L51 341L866 341L866 403L499 403L499 503L417 503L417 403ZM134 746L134 682L416 682C404 592 269 535 97 523L127 460C271 473 400 516 458 596C516 516 645 473 789 460L819 523C648 535 512 592 500 682L784 682L784 746L499 746L499 832L417 832L417 746ZM417 313L417 244L126 244L126 181L791 181L791 244L500 244L500 313Z"/></svg>