<svg id="UCDB2" viewBox="0 0 920 1000"><path transform="translate(0, 900) scale(1,-1)" d="M494 198L494 132L706 132L706-80L789-80L789 198ZM151 198L151 132L369 132L369-80L452-80L452 198ZM302 830L302 746L107 746L107 683L302 683C302 611 208 553 77 535L108 475C219 493 307 539 346 604C385 544 470 502 577 486L607 546C480 562 386 616 386 683L581 683L581 746L385 746L385 830ZM55 366C127 366 206 367 289 370L289 239L371 239L371 373C460 377 551 384 638 396L632 452C440 433 220 431 45 431ZM517 339L517 281L706 281L706 226L789 226L789 826L706 826L706 339Z"/></svg>