<svg id="UCDEA" viewBox="0 0 920 1000"><path transform="translate(0, 900) scale(1,-1)" d="M706 826L706 248L789 248L789 826ZM494 198L494 132L706 132L706-80L789-80L789 198ZM302 811L302 719L107 719L107 656L302 656L302 651C302 580 208 522 77 505L108 444C219 462 307 508 346 573C385 513 470 471 577 455L607 516C480 531 386 586 386 651L386 656L581 656L581 719L385 719L385 811ZM151 198L151 132L369 132L369-80L452-80L452 198L372 198L372 328C461 332 552 339 638 351L632 410C440 391 220 388 45 388L55 321C127 321 206 322 289 324L289 198Z"/></svg>