<svg id="UCDA0" viewBox="0 0 920 1000"><path transform="translate(0, 900) scale(1,-1)" d="M130-11L130-74L179-74C311-74 376-72 459-55L456-40L491-86C567-52 618 7 645 80C671 11 720-46 793-78L838-16C735 27 685 121 685 218L685 268L604 268L604 218C604 118 554 24 453-20L449 7C378-9 319-11 210-11L210 75L425 75L425 243L500 243L500 356L866 356L866 419L51 419L51 356L417 356L417 267L128 267L128 204L346 204L346 131L130 131ZM134 745L134 682L416 682C405 591 269 533 97 521L127 458C271 471 400 515 458 595C516 515 645 471 789 458L819 521C647 533 511 591 500 682L784 682L784 745L499 745L499 832L417 832L417 745Z"/></svg>