<svg id="UCD2F" viewBox="0 0 920 1000"><path transform="translate(0, 900) scale(1,-1)" d="M457 263L457-75L753-75L753 263L676 263L676 158L534 158L534 263ZM534 96L676 96L676-11L534-11ZM291 829L291 750L93 750L93 688L291 688L291 686C291 604 199 542 73 521L104 461C212 481 296 530 333 599C372 535 453 490 558 473L589 534C465 553 373 610 373 686L373 688L567 688L567 750L373 750L373 829ZM56 327C221 327 433 331 622 362L617 419C540 409 456 403 373 399L373 501L291 501L291 395C204 393 120 392 46 392ZM670 827L670 310L754 310L754 526L883 526L883 595L754 595L754 827ZM120-12L120-74L168-74C284-74 349-73 434-58L426 3C353-10 295-12 202-12L202 70L408 70L408 262L119 262L119 199L327 199L327 125L120 125Z"/></svg>