<svg id="UCED2" viewBox="0 0 920 1000"><path transform="translate(0, 900) scale(1,-1)" d="M508 306L508-78L813-78L813 306ZM742 244L742-15L580-15L580 244ZM150-10L150-74L199-74C319-74 389-73 478-57L471 6C393-8 330-10 231-10L231 88L451 88L451 306L148 306L148 241L369 241L369 147L150 147ZM100 783L100 717L372 717C369 684 362 652 350 622L58 605L72 536L321 565C271 487 186 422 62 377L104 316C340 407 459 564 459 783ZM735 826L735 714L615 714L615 809L537 809L537 361L615 361L615 461L735 461L735 357L813 357L813 826ZM615 529L615 645L735 645L735 529Z"/></svg>