<svg id="UCE10" viewBox="0 0 920 1000"><path transform="translate(0, 900) scale(1,-1)" d="M123-10L123-72L172-72C299-72 363-71 444-54L440-24L485-85C561-53 612 7 639 80C665 11 714-45 787-77L833-15C729 27 679 120 679 217L679 276L649 276L649 358L866 358L866 421L51 421L51 358L269 358L269 271L121 271L121 209L344 209L344 133L123 133ZM351 358L567 358L567 245L598 245L598 217C598 115 545 20 439-23L435 8C365-8 307-10 203-10L203 75L424 75L424 271L351 271ZM134 745L134 682L416 682C404 591 268 533 97 521L127 459C271 472 401 516 458 597C516 516 645 472 789 459L819 521C649 533 512 591 500 682L784 682L784 745L499 745L499 832L417 832L417 745Z"/></svg>