<svg id="UCFD8" viewBox="0 0 920 1000"><path transform="translate(0, 900) scale(1,-1)" d="M142 788L142 720L686 720L685 636L115 618L128 550L681 576C678 536 672 491 662 440L748 429C772 554 772 647 772 722L772 788ZM484 509L484 382L342 382L342 509L259 509L259 382L43 382L43 314L861 314L861 382L567 382L567 509ZM581 255L581 206C581 127 541 40 458-12C376 39 337 126 337 206L337 255L257 255L257 206C257 115 196 15 79-28L125-88C207-55 265 6 295 79C323 4 377-61 459-96C540-61 594 4 622 78C652 5 710-57 793-89L839-30C723 13 662 112 662 206L662 255Z"/></svg>