<svg id="UCF31" viewBox="0 0 920 1000"><path transform="translate(0, 900) scale(1,-1)" d="M500 263C316 263 200 199 200 93C200-12 316-76 500-76C683-76 799-12 799 93C799 199 683 263 500 263ZM500 197C633 197 717 158 717 93C717 28 633-10 500-10C367-10 282 28 282 93C282 158 367 197 500 197ZM711 826L711 665L508 665C513 697 516 730 516 765L114 765L114 697L428 697C425 661 418 626 406 594L69 579L83 511L375 533C321 446 224 376 74 328L107 263C320 333 442 447 491 597L711 597L711 479L480 479L480 411L711 411L711 272L794 272L794 826Z"/></svg>