<svg id="UCFE6" viewBox="0 0 920 1000"><path transform="translate(0, 900) scale(1,-1)" d="M608 122C510 122 440 81 440 17C440-47 510-87 608-87C704-87 775-47 775 17C775 81 704 122 608 122ZM608 67C662 67 701 48 701 17C701-14 662-33 608-33C553-33 514-14 514 17C514 48 553 67 608 67ZM146 792L146 727L677 727C677 699 676 665 674 626L120 607L134 543L670 569C666 531 661 489 654 442L43 442L43 377L409 377L409 267L492 267L492 377L861 377L861 442L740 442C763 583 763 685 763 749L763 792ZM124 247L124-62L169-62C237-62 324-57 414-29L400 40C334 17 263 9 206 7L206 247ZM565 302L565 221L382 221L382 159L825 159L825 221L646 221L646 302Z"/></svg>