<svg id="UD05E" viewBox="0 0 920 1000"><path transform="translate(0, 900) scale(1,-1)" d="M464-6L464-73L794-73L794-6L730-6L730 243L787 243L787 309L640 309L640 400L861 400L861 467L742 467C763 591 763 683 763 741L763 786L146 786L146 721L677 721C677 696 676 666 674 632L120 613L133 550L670 575C666 542 661 506 654 467L43 467L43 400L264 400L264 308L125 308L125 241L344 241L344 149L128 149L128-73L177-73C292-73 359-72 445-55L437 11C362-4 302-6 208-6L208 93L424 93L424 308L346 308L346 400L557 400L557 309L469 309L469 243L525 243L525-6ZM591 243L663 243L663-6L591-6Z"/></svg>