<svg id="UD08B" viewBox="0 0 920 1000"><path transform="translate(0, 900) scale(1,-1)" d="M701 826L701 286L784 286L784 826ZM148 244L148 175L368 175L368-80L451-80L451 244ZM66 326C235 327 449 331 638 356L632 417L550 410C567 537 567 631 567 700L567 759L131 759L131 691L486 691C486 662 486 628 484 589L107 569L117 501L481 530C478 492 474 450 467 404C325 397 179 395 55 395ZM623 253L623 206C623 117 565 18 455-24L501-87C578-55 632 3 662 71C690 4 742-52 819-83L865-18C759 19 705 111 705 198L705 253Z"/></svg>