<svg id="UD196" viewBox="0 0 920 1000"><path transform="translate(0, 900) scale(1,-1)" d="M734 826L734 310L814 310L814 826ZM243 110L404 110L404-6L243-6ZM91 420L91 351L148 351C281 351 364 354 463 374L455 444C364 425 288 421 172 420L172 534L394 534L394 602L172 602L172 703L419 703L419 770L91 770ZM444 523L444 456L563 456L563 314L642 314L642 810L563 810L563 697L444 697L444 631L563 631L563 523ZM165 278L165-70L482-70L482-17L527-79C605-47 660 12 689 83C718 15 769-45 843-79L888-13C785 34 729 132 729 217L729 282L646 282L646 214C646 125 590 30 482-13L482 278L404 278L404 173L243 173L243 278Z"/></svg>