<svg id="UD1ED" viewBox="0 0 920 1000"><path transform="translate(0, 900) scale(1,-1)" d="M513 228C310 228 197 176 197 76C197-25 310-75 513-75C716-75 829-25 829 76C829 176 716 228 513 228ZM513 164C664 164 744 134 744 76C744 18 664-12 513-12C362-12 282 18 282 76C282 134 362 164 513 164ZM61 280C184 281 371 285 517 310L513 368C458 361 393 356 328 353L328 441L473 441L473 504L180 504L180 584L453 584L453 642L180 642L180 716L468 716L468 779L98 779L98 441L247 441L247 350C175 348 106 348 50 348ZM741 826L741 564L633 564L633 811L554 811L554 271L633 271L633 495L741 495L741 238L821 238L821 826Z"/></svg>