<svg id="UD1D1" viewBox="0 0 920 1000"><path transform="translate(0, 900) scale(1,-1)" d="M458 235C265 235 152 180 152 79C152-23 265-79 458-79C652-79 764-23 764 79C764 180 652 235 458 235ZM458 171C599 171 679 138 679 79C679 19 599-14 458-14C317-14 238 19 238 79C238 138 317 171 458 171ZM57 280C224 281 437 288 618 313L611 377C538 370 458 364 377 360L377 439L561 439L561 504L201 504L201 584L539 584L539 643L201 643L201 719L554 719L554 783L117 783L117 439L292 439L292 356C206 353 122 351 46 351ZM669 826L669 243L753 243L753 487L883 487L883 558L753 558L753 826Z"/></svg>