<svg id="UD2B7" viewBox="0 0 920 1000"><path transform="translate(0, 900) scale(1,-1)" d="M448 113C280 113 185 79 185 12C185-55 280-88 448-88C615-88 711-55 711 12C711 79 615 113 448 113ZM448 62C560 62 626 44 626 12C626-20 560-37 448-37C335-37 270-20 270 12C270 44 335 62 448 62ZM43 426L43 363L246 363L246 262L328 262L328 363L577 363L577 262L660 262L660 363L860 363L860 426ZM147 543L147 483L761 483L761 543L229 543L229 617L734 617L734 672L229 672L229 742L757 742L757 803L147 803ZM406 286L406 213L112 213L112 152L784 152L784 213L488 213L488 286Z"/></svg>