<svg id="UD2E6" viewBox="0 0 920 1000"><path transform="translate(0, 900) scale(1,-1)" d="M701 826L701 287L785 287L785 826ZM62 307C235 309 447 316 634 339L629 403C445 386 230 380 50 380ZM231 94L392 94L392-6L231-6ZM125 517L125 453L565 453L565 517L211 517L211 590L544 590L544 649L211 649L211 718L557 718L557 782L125 782ZM152 246L152-71L470-71L470-14L515-79C592-49 647 7 676 74C705 10 756-46 827-77L872-12C772 30 715 121 715 201L715 252L632 252L632 199C632 113 572 26 470-13L470 246L392 246L392 153L231 153L231 246Z"/></svg>