<svg id="UD3EB" viewBox="0 0 920 1000"><path transform="translate(0, 900) scale(1,-1)" d="M733 826L733 318L812 318L812 826ZM504 153C341 153 247 113 247 38C247-38 341-78 504-78C667-78 760-38 760 38C760 113 667 153 504 153ZM504 96C618 96 681 75 681 38C681-1 618-21 504-21C390-21 326-1 326 38C326 75 390 96 504 96ZM57 359C172 359 357 363 493 385L488 447C461 444 430 441 399 439L399 697L470 697L470 765L63 765L63 697L136 697L136 429L48 429ZM210 697L325 697L325 434L210 431ZM564 808L564 678L456 678L456 614L564 614L564 534L455 534L455 469L564 469L564 356L643 356L643 808ZM463 335L463 255L181 255L181 192L825 192L825 255L546 255L546 335Z"/></svg>