<svg id="UD4C3" viewBox="0 0 920 1000"><path transform="translate(0, 900) scale(1,-1)" d="M731 827L731 174L811 174L811 827ZM83 575L83 510L483 510L483 575L412 575L412 710L488 710L488 774L82 774L82 710L156 710L156 575ZM234 710L335 710L335 575L234 575ZM410 344L410 285L569 285L569 236L647 236L647 811L569 811L569 344ZM54 376C108 376 175 377 246 380L246 206L326 206L326 385C393 391 461 398 522 410L517 467C370 444 169 441 45 441ZM455 209L455 190C455 84 316 9 149-10L177-74C317-55 442-1 496 87C551-1 674-55 812-74L840-10C675 9 537 84 537 190L537 209Z"/></svg>