<svg id="UD503" viewBox="0 0 920 1000"><path transform="translate(0, 900) scale(1,-1)" d="M452 119C285 119 189 85 189 16C189-53 285-87 452-87C620-87 716-53 716 16C716 85 620 119 452 119ZM452 67C565 67 630 49 630 16C630-17 565-35 452-35C340-35 275-17 275 16C275 49 340 67 452 67ZM124 573L124 509L780 509L780 573L648 573L648 738L784 738L784 802L121 802L121 738L257 738L257 573ZM340 738L565 738L565 573L340 573ZM44 443L44 379L248 379L248 284L332 284L332 379L574 379L574 284L657 284L657 379L861 379L861 443ZM410 300L410 222L117 222L117 161L789 161L789 222L493 222L493 300Z"/></svg>