<svg id="UD641" viewBox="0 0 920 1000"><path transform="translate(0, 900) scale(1,-1)" d="M458 607C593 607 663 586 663 546C663 506 593 485 458 485C323 485 254 506 254 546C254 586 323 607 458 607ZM491 248L491 182L699 182L699-88L782-88L782 248ZM417 838L417 761L93 761L93 700L820 700L820 761L500 761L500 838ZM50 370L50 308L867 308L867 370L500 370L500 430C663 435 750 474 750 546C750 625 648 663 458 663C268 663 166 625 166 546C166 474 253 435 417 430L417 370ZM140-11L140-75L194-75C336-75 410-74 503-57L494 8C410-9 342-11 219-11L219 66L448 66L448 247L138 247L138 188L369 188L369 120L140 120Z"/></svg>