<svg id="UD6B6" viewBox="0 0 920 1000"><path transform="translate(0, 900) scale(1,-1)" d="M458 602C587 602 654 580 654 539C654 499 587 477 458 477C330 477 263 499 263 539C263 580 330 602 458 602ZM417 838L417 750L93 750L93 688L820 688L820 750L500 750L500 838ZM50 366L50 303L867 303L867 366L639 366L639 441C705 459 740 492 740 539C740 619 641 658 458 658C275 658 176 619 176 539C176 492 210 460 276 441L276 366ZM358 426C388 423 421 421 458 421C494 421 527 423 556 426L556 366L358 366ZM136-11L136-75L183-75C309-75 368-74 448-59L439 4C371-10 317-11 215-11L215 66L424 66L424 248L134 248L134 189L345 189L345 121L136 121ZM469-8L469-74L800-74L800-8L739-8L739 181L794 181L794 248L475 248L475 181L535 181L535-8ZM602 181L672 181L672-8L602-8Z"/></svg>