<svg id="UD606" viewBox="0 0 920 1000"><path transform="translate(0, 900) scale(1,-1)" d="M313 615C191 615 104 547 104 447C104 347 191 278 313 278C435 278 521 347 521 447C521 547 435 615 313 615ZM313 550C388 550 442 508 442 447C442 385 388 343 313 343C237 343 183 385 183 447C183 508 237 550 313 550ZM628 121C532 121 461 81 461 17C461-46 532-86 628-86C726-86 796-46 796 17C796 81 726 121 628 121ZM628 66C683 66 722 48 722 17C722-14 683-31 628-31C574-31 535-14 535 17C535 48 574 66 628 66ZM272 831L272 723L51 723L51 657L574 657L574 723L354 723L354 831ZM557 440L557 373L712 373L712 285L794 285L794 827L712 827L712 603L557 603L557 536L712 536L712 440ZM154 226L154-64L198-64C265-64 353-58 442-29L428 39C363 16 290 9 234 7L234 226ZM588 288L588 212L405 212L405 150L849 150L849 212L669 212L669 288Z"/></svg>