<svg id="UD739" viewBox="0 0 920 1000"><path transform="translate(0, 900) scale(1,-1)" d="M458 645C272 645 166 599 166 511C166 425 272 378 458 378C644 378 750 425 750 511C750 599 644 645 458 645ZM458 586C588 586 662 559 662 511C662 465 588 438 458 438C328 438 254 465 254 511C254 559 328 586 458 586ZM419 196L419 130L564 130C560 71 509 12 425-19L406 45C348 19 260 8 210 5L210 179L129 179L129-69L176-69C213-69 311-63 397-36L432-90C515-66 574-18 604 40C634-19 693-64 776-87L815-26C713-3 650 58 645 130L795 130L795 196L645 196L645 268L867 268L867 334L50 334L50 268L269 268L269 147L351 147L351 268L564 268L564 196ZM417 836L417 749L93 749L93 684L820 684L820 749L500 749L500 836Z"/></svg>