<svg id="UE0A3" viewBox="0 0 1107 2048"><path transform="translate(0, 1843.2) scale(1,-1)" d="M1085 1434L1085 1434Q1085 1258 970.50 1125.50Q856 993 684 969L684 969L684 846L987 1073Q1005 1087 1024 1087L1024 1087Q1049 1087 1067 1067Q1085 1047 1085 1022L1085 1022Q1085 993 1061 975L1061 975L684 692L684 438L1085 43Q1103 25 1104 0L1104 0Q1104-25 1085.50-44Q1067-63 1040-63L1040-63Q1017-63 999-43L999-43L623 326L248-43Q230-63 205-63L205-63Q180-63 160.50-44Q141-25 141 0L141 0Q141 25 162 43L162 43L561 438L561 600L242 360Q224 346 205 346L205 346Q180 346 161.50 366.50Q143 387 143 412L143 412Q143 441 168 459L168 459L561 754L561 965Q385 985 264 1119Q143 1253 143 1434L143 1434Q143 1495 205 1495L205 1495Q266 1495 266 1434L266 1434Q266 1291 368.50 1188Q471 1085 614 1085L614 1085Q757 1085 860 1187.50Q963 1290 963 1434L963 1434Q963 1495 1024 1495L1024 1495Q1085 1495 1085 1434Z"/></svg>