<svg id="UE011" viewBox="0 0 800 1000"><path transform="translate(0, 900) scale(1,-1)" d="M317-120L317-120L272-63Q335-12 392 39L392 39L262 230Q282 248 302 266L302 266Q290 263 277 263L277 263Q231 263 195.50 294Q160 325 160 380L160 380Q160 420 181 450L181 450L152 487Q229 548 294 613L294 613L268 686Q206 621 137 566L137 566L90 623Q128 654 165.50 690Q203 726 238 765L238 765L182 919L257 946L298 836Q364 921 405 1000L405 1000L470 966Q440 911 404.50 858Q369 805 328 755L328 755L356 678Q413 741 464 813L464 813L524 771Q475 700 411 629L411 629Q450 626 490 620L490 620Q510 671 526 725L526 725L594 705Q587 682 578.50 658Q570 634 561 610L561 610Q615 601 662 590L662 590L647 525Q621 530 592.50 535Q564 540 535 545L535 545Q518 508 501 476L501 476L559 478L710 259Q655 197 601 141.50Q547 86 491 33L491 33L564-72L501-120L433-21Q378-70 317-120ZM389 380L389 380Q389 363 385 347L385 347Q433 397 475 449L475 449L420 476Q442 515 461 555L461 555Q420 561 382 564L382 564L386 602Q336 549 280 499L280 499Q323 498 356 466.50Q389 435 389 380ZM277 336L277 336Q292 336 301.50 348Q311 360 311 380L311 380Q311 400 301.50 413Q292 426 277 426L277 426Q259 426 249 413Q239 400 239 380L239 380Q239 360 249 348Q259 336 277 336ZM359 223L359 223L385 185Q472 263 549 352L549 352L523 390Q484 346 443 304.50Q402 263 359 223ZM423 130L423 130L450 92Q492 132 532.50 173.50Q573 215 612 259L612 259L587 296Q548 253 507 211.50Q466 170 423 130Z"/></svg>