<svg id="UE0AE" viewBox="0 0 2123 2048"><path transform="translate(0, 1843.2) scale(1,-1)" d="M2124 717L2124 717Q2124 606 2046 528.50Q1968 451 1858 451L1858 451L205 451Q144 451 143 512L143 512L143 922Q143 983 205 983L205 983L901 983L901 1229Q901 1290 963 1290L963 1290Q1024 1290 1024 1229L1024 1229L1024 983L1147 983L1147 1229Q1147 1290 1208 1290L1208 1290Q1269 1290 1270 1229L1270 1229L1270 983L1858 983Q1969 983 2046.50 905.50Q2124 828 2124 717ZM2001 717L2001 717Q2001 776 1959 818Q1917 860 1858 860L1858 860L1270 860L1270 573L1858 573Q1917 573 1959 615.50Q2001 658 2001 717ZM1024 573L1147 573L1147 860L1024 860L1024 573ZM266 573L901 573L901 860L266 860L266 573Z"/></svg>