<svg id="UE0EA" viewBox="0 0 1060 2048"><path transform="translate(0, 1843.2) scale(1,-1)" d="M1001 1167L1001 1167L735 1167L735 0Q735-61 674-61L674-61Q613-61 612 0L612 0L612 319Q569 309 524 309L524 309Q370 309 256.50 408.50Q143 508 143 651L143 651Q143 796 257 895.50Q371 995 524 995L524 995Q569 995 612 985L612 985L612 1167L346 1167Q285 1167 285 1229L285 1229Q285 1290 346 1290L346 1290L612 1290L612 1436Q612 1497 674 1497L674 1497Q735 1497 735 1436L735 1436L735 1290L1001 1290Q1062 1290 1063 1229L1063 1229Q1062 1167 1001 1167ZM612 446L612 446L612 858Q571 872 524 872L524 872Q415 872 340.50 805.50Q266 739 266 651L266 651Q266 565 341 498.50Q416 432 524 432L524 432Q571 432 612 446Z"/></svg>