<svg id="UE05E" viewBox="0 0 2007 2048"><path transform="translate(0, 1843.2) scale(1,-1)" d="M2007 719L2007 719Q2007 608 1929 530.50Q1851 453 1741 453L1741 453Q1649 453 1576 511Q1503 569 1481 657L1481 657L266 657L266 274L567 274Q628 274 629 213L629 213Q629 152 567 152L567 152L205 152Q144 152 143 213L143 213L143 719Q143 780 205 780L205 780L655 780L655 1208Q655 1286 710.50 1341.50Q766 1397 844 1397L844 1397Q922 1397 977 1341.50Q1032 1286 1032 1208L1032 1208Q1032 1147 971 1147L971 1147Q910 1147 909.50 1210.50Q909 1274 844 1274L844 1274Q778 1274 778 1208L778 1208L778 780L1481 780Q1504 868 1575.50 926.50Q1647 985 1741 985L1741 985Q1852 985 1929.50 907.50Q2007 830 2007 719ZM1884 719L1884 719Q1884 778 1842 820Q1800 862 1741 862L1741 862Q1682 862 1639.50 820Q1597 778 1597 719L1597 719Q1597 660 1639 617.50Q1681 575 1741 575L1741 575Q1800 575 1842 617.50Q1884 660 1884 719Z"/></svg>