<svg id="UE191" viewBox="0 0 1024 1024"><path transform="translate(0, 921.6) scale(1,-1)" d="M399-50L367-90L339-120L312-138L292-144L298-130L325-88L348-52L387 5L445 102L464 142L438 190L404 254L350 353L339 339L313 322L297 314L307 342L366 444L398 505L432 575L459 641L486 716L497 764L505 791L505 826L494 855L503 855L528 849L547 838L565 814L564 794L554 758L537 702L524 663L486 574L451 500L405 425L369 375L368 374L428 283L486 188L500 218L536 310L557 377L559 401L558 430L541 458L557 458L578 451L597 438L609 428L621 410L612 373L600 337L582 288L570 252L543 189L516 138L568 53L618-16L654-61L697-103L732-133L731-141L690-128L640-119L599-102L551-12L506 66L491 93L443 12L399-50ZM686 597L683 587L668 579L653 579L639 586L626 603L619 617L612 632L603 644L597 655L589 664L584 673L595 677L611 675L625 670L641 663L655 653L668 643L677 630L686 614L686 597ZM719 391L712 382L698 377L686 383L674 394L669 407L662 426L656 443L650 459L644 468L643 473L640 483L654 484L671 480L687 471L700 461L714 445L718 428L724 416L722 401L719 391ZM366 377L366 376L369 375L366 377Z"/></svg>