<svg id="UE107" viewBox="0 0 2150 2048"><path transform="translate(0, 1843.2) scale(1,-1)" d="M2150 942L2150 492Q2150 431 2089 430L2089 430Q2028 430 2028 492L2028 492L2028 655L1696 655Q1673 438 1510.50 290.50Q1348 143 1126 143L1126 143L410 143Q299 143 221 221Q143 299 143 410L143 410Q143 521 221 598.50Q299 676 410 676L410 676Q521 676 598.50 598Q676 520 676 410L676 410Q676 332 635 266L635 266L1126 266Q1296 266 1423 377.50Q1550 489 1573 655L1573 655L1085 655L1085 492Q1085 431 1024 430L1024 430Q963 430 963 492L963 492L963 942Q963 1003 1024 1004L1024 1004Q1085 1004 1085 942L1085 942L1085 778L1573 778Q1550 944 1423 1055.50Q1296 1167 1126 1167L1126 1167L635 1167Q676 1101 676 1024L676 1024Q676 913 598 835.50Q520 758 410 758L410 758Q299 758 221 835.50Q143 913 143 1024L143 1024Q143 1135 221 1212.50Q299 1290 410 1290L410 1290L1126 1290Q1347 1290 1510 1142.50Q1673 995 1696 778L1696 778L2028 778L2028 942Q2028 1003 2089 1004L2089 1004Q2150 1004 2150 942L2150 942ZM553 1024L553 1024Q553 1083 511 1125Q469 1167 410 1167L410 1167Q351 1167 308.50 1125Q266 1083 266 1024L266 1024Q266 965 308 923Q350 881 410 881L410 881Q469 881 511 923Q553 965 553 1024ZM553 410L553 410Q553 469 511 511Q469 553 410 553L410 553Q351 553 308.50 511Q266 469 266 410L266 410Q266 351 308 308.50Q350 266 410 266L410 266Q469 266 511 308.50Q553 351 553 410Z"/></svg>