<svg id="UE30F" viewBox="0 0 1024 1024"><path transform="translate(0, 921.6) scale(1,-1)" d="M668-108L666-129L657-145L645-172L632-157L616-113L614-82L614 11L613 47L613 224L544 215L492 208L493 98L491-20L494-60L487-92L484-127L470-147L464-147L456-138L446-122L438-99L431-80L430-55L435-29L436-2L438 104L436 200L430 199L410 191L377 202L354 219L358 235L378 238L408 241L436 245L437 348L438 411L433 440L446 460L466 460L488 458L513 464L548 473L596 483L611 495L626 495L635 488L645 480L657 468L671 461L677 451L672 444L664 425L666 410L666 280L704 287L719 284L736 273L753 263L763 243L751 232L730 233L710 232L666 231L666-7L673-52L671-84L668-108ZM282 92L282 396L273 431L262 457L269 474L290 477L318 460L337 439L342 419L334 373L334 179L335-57L335-146L330-166L324-167L313-159L294-137L281-116L272-86L278-56L282-8L281 35L282 92ZM537 428L485 417L491 253L564 265L613 272L614 351L611 408L610 428L606 435L593 440L537 428ZM647 582L559 574L386 552L339 548L321 545L307 548L287 549L268 561L263 575L268 583L293 588L329 590L445 605L578 621L600 710L612 760L574 755L441 737L388 729L365 728L352 727L336 733L324 743L313 753L310 763L328 769L385 775L494 786L611 803L627 810L640 809L656 802L669 791L681 777L665 754L654 730L633 689L613 625L632 628L669 635L680 636L698 631L714 617L723 609L728 598L720 587L711 584L694 586L671 581L647 582Z"/></svg>