<svg id="UE57B" viewBox="0 0 1024 1024"><path transform="translate(0, 921.6) scale(1,-1)" d="M770 360L783 357L797 347L812 339L816 323L810 317L796 313L776 310L731 308L647 296L649 223L647 128L651 130L705 159L739 189L755 209L753 227L770 216L783 201L792 178L791 160L753 137L692 105L647 83L647-50L659-85L672-105L697-116L733-116L750-113L768-87L766-33L770 63L775 69L815-104L834-124L809-145L783-160L754-165L720-169L690-169L657-163L640-151L619-138L605-107L599-83L600-36L600 65L574 58L543 48L518 47L517 51L529 65L568 85L600 102L600 288L568 283L546 281L526 289L501 305L505 315L526 319L568 325L600 330L600 396L591 414L588 430L561 425L542 436L525 447L535 457L556 462L579 468L649 481L683 488L703 494L728 496L741 495L757 488L770 479L771 462L765 456L756 452L742 449L704 444L662 440L629 435L640 431L648 419L654 406L648 377L647 338L671 343L741 356L770 360ZM436 451L447 450L461 443L475 431L476 417L470 411L460 407L448 404L419 399L379 396L382 395L395 385L400 364L396 347L396 316L397 274L397 252L442 262L453 263L472 259L492 252L509 242L509 226L503 220L491 216L474 213L397 202L397-134L395-152L384-170L371-162L362-150L349-130L341-105L340-117L338-88L342-68L344-45L344 100L343 195L281 187L262 188L244 195L222 211L227 222L244 226L274 231L340 244L343 244L343 316L344 359L338 375L331 388L299 382L280 380L258 391L242 402L251 412L270 417L294 423L339 433L398 443L421 449L436 451ZM660 716L653 728L656 733L666 732L688 725L701 716L711 711L725 695L728 687L721 674L717 660L704 632L741 637L768 640L791 626L811 611L825 590L810 582L790 585L757 582L685 582L675 581L671 573L653 540L634 517L611 491L602 485L600 486L601 493L609 519L623 556L630 576L532 567L411 553L420 517L427 485L425 468L411 470L397 491L369 546L265 530L243 534L218 544L203 554L190 571L218 577L320 584L350 588L330 623L324 633L314 648L295 655L276 664L279 669L293 675L313 682L332 682L347 681L362 682L374 674L373 680L380 658L390 622L399 594L427 598L544 611L647 624L660 670L664 692L660 716ZM669 797L677 777L659 754L624 717L587 680L554 646L531 626L520 621L519 631L536 661L562 701L590 752L601 784L595 806L575 821L585 826L609 831L632 827L653 813L669 797ZM383 764L384 783L398 781L410 770L421 763L441 747L453 747L514 782L486 721L467 672L459 655L443 650L434 653L420 669L407 696L396 712L389 738L383 764Z"/></svg>