<svg id="UE54D" viewBox="0 0 1024 1024"><path transform="translate(0, 921.6) scale(1,-1)" d="M597 851L611 856L620 855L633 849L644 839L652 825L647 812L637 791L621 757L596 695L616 699L657 705L683 705L700 696L711 691L721 682L730 669L727 659L712 659L692 660L670 659L639 657L504 643L426 630L395 627L372 624L349 622L330 627L317 639L307 650L316 657L339 660L369 664L520 682L564 690L595 807L569 804L547 799L477 788L449 786L430 782L414 781L396 787L382 795L377 804L376 814L395 824L435 826L520 837L597 851ZM628 519L651 521L674 506L688 494L696 484L690 474L674 473L645 472L612 472L509 459L508 459L527 455L543 442L554 426L562 406L551 388L512 356L478 329L429 295L383 270L356 258L329 248L313 248L325 263L347 280L382 306L419 333L456 367L485 392L504 417L511 441L504 458L398 442L374 439L347 445L326 456L318 469L341 476L387 481L480 495L510 501L508 516L502 551L494 581L490 593L485 601L481 607L476 618L485 623L499 626L527 623L543 609L547 604L544 587L540 556L532 509L531 505L594 513L628 519ZM398 272L411 273L433 267L471 250L533 289L560 312L565 326L559 337L543 356L577 355L603 345L620 332L629 315L618 301L594 280L551 249L518 229L571 208L631 184L672 172L696 164L721 159L741 156L765 150L765 140L718 135L678 129L639 128L602 145L540 179L484 210L453 193L410 171L350 145L305 131L278 124L260 124L271 137L388 200L445 234L418 253L408 264L398 272ZM527-50L530-94L530-115L527-132L523-139L514-144L499-137L488-130L482-120L476-112L474-97L473-82L477-67L477-50L475-25L476-6L476 82L475 116L475 143L474 160L466 173L472 178L483 183L498 185L511 178L523 171L528 161L528 140L526 124L527 78L527-50Z"/></svg>