<svg id="UE531" viewBox="0 0 1024 1024"><path transform="translate(0, 921.6) scale(1,-1)" d="M484 36L462 30L460 30L459-17L459-48L455-86L452-120L442-147L431-150L424-137L415-117L407-95L402-77L404-63L405-38L409 14L409 21L383 16L366 16L354 19L339 26L324 38L330 48L342 52L370 59L402 63L413 65L415 83L413 168L410 168L380 160L363 160L350 162L333 171L321 182L326 192L347 196L367 203L413 210L413 281L409 330L410 348L421 358L441 364L459 356L502 364L575 383L589 387L605 394L620 391L636 382L657 361L666 350L658 340L654 333L650 333L648 322L648 281L653 221L655 104L657 21L657-57L656-93L652-135L637-166L627-168L621-157L614-141L607-113L605-89L606-54L606-20L607 31L607 55L584 51L551 46L484 36ZM639 829L655 834L671 833L692 813L696 800L679 780L665 743L641 669L654 665L664 662L671 654L673 640L663 631L640 623L600 622L497 609L424 595L398 594L379 597L363 606L353 621L361 629L387 635L445 643L563 659L605 663L618 723L635 784L563 772L525 764L435 750L408 746L390 747L377 753L365 760L357 769L350 782L366 785L426 795L565 813L639 829ZM551 471L512 466L478 460L436 453L401 450L378 450L364 457L348 469L341 479L350 488L380 492L424 496L506 510L573 518L608 524L633 531L651 531L666 524L679 519L688 509L702 493L695 482L671 484L630 479L551 471ZM488 181L461 175L462 75L462 73L487 78L544 86L573 94L582 94L600 91L607 85L607 97L604 196L581 195L548 190L488 181ZM529 326L463 313L461 216L492 220L545 230L569 234L584 233L597 235L602 231L600 269L600 282L594 317L593 332L582 335L566 333L529 326Z"/></svg>