<svg id="UE528" viewBox="0 0 1024 1024"><path transform="translate(0, 921.6) scale(1,-1)" d="M575 448L510 439L463 432L408 423L378 416L364 423L348 429L337 440L331 449L346 458L370 461L410 467L491 479L555 489L577 492L577 493L578 500L584 528L595 574L610 620L507 608L403 597L397 596L403 536L406 501L402 484L391 489L379 527L371 555L360 590L305 581L283 587L262 593L248 599L233 613L231 622L251 622L280 628L324 635L345 637L334 666L329 681L319 690L305 704L298 712L294 716L304 727L323 730L341 733L354 729L369 726L377 719L377 712L381 695L388 654L390 641L449 647L484 652L495 668L517 705L545 751L552 767L536 766L516 763L485 755L442 747L408 741L388 744L373 752L362 766L356 777L366 788L387 787L417 789L482 796L530 802L545 808L567 814L579 817L592 806L601 797L611 783L611 768L600 752L582 731L543 679L524 658L600 669L624 672L631 703L634 725L632 753L625 769L629 773L637 772L656 765L667 758L680 752L693 739L689 721L684 707L676 689L673 679L717 685L741 685L771 670L785 657L793 644L780 638L759 635L730 631L687 630L652 625L638 589L619 543L602 516L587 498L580 493L598 496L620 500L627 502L648 499L664 488L675 478L685 463L678 452L652 451L623 452L575 448ZM344-169L321-168L335-153L388-107L431-76L483-30L529 12L562 46L590 73L624 121L612 121L593 119L548 113L474 106L443 101L419 101L401 109L389 117L386 134L397 150L442 188L507 246L554 297L585 327L504 310L419 295L394 301L375 313L364 319L367 331L377 339L437 346L524 360L570 364L608 373L622 376L633 368L644 356L653 337L640 318L622 298L600 279L567 247L532 216L494 182L472 164L449 152L466 147L602 168L632 170L647 170L663 166L677 154L687 142L688 119L671 91L647 67L609 25L539-40L464-101L390-148L344-169Z"/></svg>