<svg id="UE587" viewBox="0 0 1024 1024"><path transform="translate(0, 921.6) scale(1,-1)" d="M686 215L678 213L664 213L651 220L642 232L640 236L635 237L562 227L516 221L515 190L515 167L517 168L602 179L623 185L645 183L656 174L665 162L678 146L674 138L662 135L631 136L586 133L515 122L515 61L517 62L614 75L642 83L662 79L675 69L690 56L701 39L694 30L670 28L603 28L515 17L515-80L517-108L516-132L512-151L514-166L508-169L490-158L475-140L465-124L466-113L465-96L467-76L468-58L467-13L467 11L458 10L360-8L339-7L314 1L287 14L278 27L296 33L345 39L421 50L467 55L467 114L395 101L380 100L355 106L332 119L324 134L340 141L379 145L445 154L467 158L467 215L434 211L343 199L318 207L305 219L308 238L322 258L346 270L439 328L518 382L566 417L549 412L472 398L397 386L382 389L361 396L350 400L342 411L339 420L363 426L395 428L443 435L549 448L569 452L583 456L603 453L614 435L629 418L628 406L572 368L540 350L514 330L500 321L514 315L522 303L519 289L517 274L517 263L619 277L630 275L622 283L608 310L609 325L626 322L643 316L661 307L673 297L688 281L695 264L699 241L699 229L686 215ZM480 754L499 781L509 808L508 827L528 823L544 811L562 784L564 766L551 749L517 719L480 687L430 653L396 626L428 608L458 593L476 583L524 620L557 655L569 685L568 704L555 722L578 718L595 710L612 695L625 685L636 668L613 641L573 603L521 562L612 525L670 507L715 493L778 476L777 472L742 465L697 459L646 455L617 468L585 485L533 513L485 537L458 520L389 481L336 456L279 440L245 440L267 454L283 466L320 486L413 542L443 560L407 579L359 604L321 625L363 654L452 725L480 754ZM467 287L463 298L432 279L366 241L361 240L467 256L467 287Z"/></svg>