<svg id="UE525" viewBox="0 0 1024 1024"><path transform="translate(0, 921.6) scale(1,-1)" d="M429 17L428-91L425-114L421-144L417-159L408-170L405-168L392-156L383-141L374-120L374-108L377-88L378-67L377-34L376 17L376 357L375 380L367 389L362 403L376 411L406 407L404 410L421 395L431 384L431 340L568 365L605 374L624 376L635 382L652 380L669 373L685 368L699 358L694 348L678 341L645 337L621 332L544 322L502 316L427 308L427 302L429 233L429 222L565 243L601 253L620 262L637 257L651 251L661 242L673 232L680 223L679 215L671 206L669 206L666 197L665 173L668 125L670 47L669-13L668-30L665-91L659-124L652-152L644-159L637-169L627-159L623-140L621-121L613-98L615-77L618-46L617-19L619 32L616 108L617 161L617 163L619 196L616 213L591 210L531 197L429 186L429 17ZM621 781L645 789L674 776L687 766L698 749L681 734L658 690L630 625L638 626L655 624L666 620L672 613L677 599L664 585L639 581L599 580L514 570L422 558L385 552L363 557L345 567L333 582L343 589L370 595L440 602L566 618L596 621L617 692L632 738L575 726L490 715L425 705L403 702L380 704L366 711L360 717L347 722L347 733L364 743L430 749L542 766L621 781ZM604 474L506 461L445 453L383 445L359 441L335 438L314 446L293 456L281 467L290 478L325 483L382 488L508 504L592 515L637 522L679 530L702 527L721 517L736 504L743 492L730 485L700 481L665 481L604 474Z"/></svg>