<svg id="UF006E" viewBox="0 0 1024 1024"><path transform="translate(0, 921.6) scale(1,-1)" d="M530-107L520-132L508-150L493-135L486-121L479-98L477-81L478-55L477-1L477 289L478 349L473 370L467 373L459 375L423 367L347 354L347-122L341-163L335-169L320-155L301-126L290-105L288-78L292-56L291-24L292 10L292 467L274 466L163 451L128 457L100 474L105 491L116 502L134 511L187 536L271 574L292 584L292 636L249 630L200 622L175 618L151 622L137 626L123 638L115 650L133 658L138 658L163 662L236 668L292 676L292 753L283 774L278 792L282 803L300 807L338 787L352 774L352 756L347 721L347 684L422 695L459 705L472 702L493 691L513 671L515 656L506 644L479 630L433 608L368 576L347 566L347 516L363 519L435 532L474 537L494 540L503 541L522 535L540 522L549 513L541 503L534 495L514 493L469 491L415 483L362 474L347 472L347 396L422 412L461 422L484 432L504 423L516 411L527 399L538 390L546 376L543 380L538 373L532 363L533 339L533 298L532 246L531 118L531 42L533-13L531-48L531-84L530-107ZM630 770L614 801L616 813L630 817L655 812L682 790L692 768L689 740L690 698L690 426L729 475L774 536L824 604L841 642L838 665L823 682L846 686L872 675L883 665L898 646L905 628L888 603L855 560L815 507L766 451L699 386L689 378L688 205L689-15L688-45L696-63L703-81L722-100L754-110L791-116L833-110L862-106L877-91L881-55L882 21L885 161L890 159L926-28L943-88L963-112L947-124L922-140L879-157L826-164L791-165L750-165L717-159L683-146L666-128L650-113L638-85L631-65L632-35L630 89L630 770ZM124-89L124-23L121 21L111 75L98 113L84 142L75 154L61 157L68 164L66 167L69 166L90 189L121 226L154 265L173 308L183 338L182 363L171 384L161 397L179 399L202 393L226 381L237 370L245 363L249 345L241 328L222 298L199 263L165 221L112 175L91 160L101 153L127 118L147 86L160 47L165 14L168 12L168 11L181 23L195 44L213 66L224 87L242 107L252 119L256 115L256 99L239 48L217 11L200-38L184-71L170-99L162-109L148-115L129-108L124-89ZM190 500L176 490L292 508L292 542L190 500ZM361 646L347 644L347 610L377 625L436 656L437 658L361 646Z"/></svg>