<svg id="UF0611" viewBox="0 0 1024 1024"><path transform="translate(0, 921.6) scale(1,-1)" d="M174-71L139-106L108-135L84-146L61-150L74-134L90-105L115-78L176-1L216 47L252 102L225 141L173 206L157 232L134 214L99 194L80 192L92 213L130 253L196 326L259 401L291 447L314 488L333 521L338 543L336 564L334 584L350 581L371 568L384 556L399 532L387 511L366 475L336 427L294 369L245 312L183 253L175 247L241 185L280 143L306 183L338 236L354 274L366 308L367 326L355 348L338 370L354 370L380 363L400 356L419 341L430 327L427 307L415 275L393 233L376 196L340 138L317 103L361 52L404-9L431-54L448-93L458-131L451-143L435-145L419-137L405-113L361-48L334-8L308 28L285 57L223-20L174-71ZM289 695L306 743L309 761L310 781L307 799L323 798L342 789L366 773L377 750L361 712L349 690L321 641L280 580L233 514L183 453L148 419L119 392L90 376L64 367L80 396L121 448L162 495L219 576L257 641L289 695ZM544-155L499-172L511-152L594-81L664-22L730 48L772 101L794 134L755 131L703 123L667 114L639 111L609 116L600 126L593 143L607 164L637 194L673 239L709 288L753 348L675 334L633 322L609 321L591 327L575 342L579 356L599 358L631 365L663 369L690 375L719 382L739 386L755 391L772 394L790 383L803 371L811 355L776 309L761 284L711 225L678 189L643 153L698 162L770 175L804 182L819 185L841 175L852 158L850 144L839 116L821 93L798 55L768 22L721-25L676-67L650-87L616-112L578-138L544-155ZM728 594L749 625L757 659L753 689L770 681L790 666L803 648L813 626L807 612L789 590L766 561L728 525L754 505L798 478L829 459L860 443L908 422L939 414L964 407L962 397L926 395L836 391L814 406L774 438L741 463L697 497L653 462L592 420L551 394L514 375L484 363L465 362L480 381L543 429L605 477L663 529L626 556L588 585L554 607L600 649L635 686L665 722L689 753L703 781L709 800L709 828L723 823L736 808L750 792L759 769L750 750L719 712L679 669L640 633L614 610L638 594L682 560L690 554L728 594Z"/></svg>