<svg id="UF054C" viewBox="0 0 1024 1024"><path transform="translate(0, 921.6) scale(1,-1)" d="M227 197L305 133L325 111L351 166L378 242L388 290L388 322L376 347L390 345L406 340L427 325L439 309L449 296L439 264L427 231L412 190L391 142L366 83L361 74L380 55L408 20L438-23L455-60L471-93L483-121L482-149L472-166L453-156L438-128L401-65L337 32L315-8L281-59L257-88L234-118L206-144L175-156L180-136L200-108L221-71L261-11L306 72L268 117L210 187L203 181L167 167L174 183L208 233L236 276L268 330L296 381L316 424L331 465L341 495L348 528L342 545L359 534L375 519L388 504L397 493L392 473L381 443L355 394L323 335L288 277L230 205L222 198L227 197ZM464 801L470 787L450 765L415 729L377 691L332 649L302 632L291 627L290 637L303 659L340 707L379 765L389 787L377 806L362 824L374 829L398 828L424 827L450 814L464 801ZM126 753L129 773L140 771L154 759L163 752L183 737L197 737L263 765L222 691L214 671L206 657L201 648L184 640L177 643L162 659L149 686L145 686L133 727L126 753ZM99 307L99 388L97 460L94 477L84 495L92 513L112 517L134 506L145 492L159 472L156 454L154 414L154 373L152 303L153 229L152 102L153 38L154-66L154-101L150-137L139-168L136-169L123-158L113-146L100-125L90-102L90-82L97-55L97-27L96 28L98 96L98 184L99 307ZM121 542L92 543L79 547L62 560L44 574L56 584L127 593L214 604L290 617L400 635L422 642L449 637L466 628L486 611L495 597L482 589L458 585L419 586L361 579L223 560L121 542ZM693 114L719 88L757 38L777 18L819 76L848 126L870 170L846 169L817 166L765 161L719 156L671 150L679 163L663 152L643 152L668 180L701 214L750 269L795 322L829 369L852 410L779 391L715 373L678 372L661 371L638 382L631 394L646 402L675 409L717 415L764 426L834 441L856 448L870 455L885 452L900 445L913 434L914 419L898 395L873 359L844 321L782 253L723 197L707 183L723 186L809 202L850 209L879 217L895 218L909 213L925 196L927 175L903 136L865 71L843 43L806-13L846-57L898-106L941-135L970-151L982-158L981-164L947-161L892-151L859-146L822-98L786-53L779-44L752-73L709-113L672-146L645-162L620-172L630-148L645-134L679-100L717-56L754-12L731 18L699 62L671 104L654 131L666 134L693 114ZM554 223L552 309L553 361L547 398L549 414L554 419L579 417L596 403L604 391L601 364L601 343L600 321L602 281L601 149L600 36L602-48L600-93L602-115L599-137L598-160L591-167L571-148L566-136L560-122L550-104L552-75L552 107L554 223ZM693 684L738 734L763 770L781 800L779 832L790 830L804 817L815 804L822 790L830 772L826 758L789 721L762 687L713 646L670 613L604 566L556 541L531 529L510 528L531 555L574 588L630 630L693 684ZM691 531L752 572L794 607L821 637L830 670L835 666L842 662L853 646L860 630L865 613L861 598L836 580L802 555L763 527L702 493L654 466L600 439L550 418L513 409L490 411L512 429L568 458L624 491L691 531Z"/></svg>