<svg id="UF0133" viewBox="0 0 1024 1024"><path transform="translate(0, 921.6) scale(1,-1)" d="M187 644L203 697L206 746L200 781L216 779L232 771L249 755L262 735L254 699L239 650L214 565L185 481L158 408L129 349L120 336L122 335L179 251L207 203L228 267L250 350L257 392L257 426L250 447L261 446L274 440L293 428L310 412L312 398L297 338L276 266L249 185L236 151L266 94L289 36L301 1L315-45L329-93L337-137L326-162L307-152L290-119L257-20L223 71L214 89L203 57L151-50L100-136L74-163L60-167L61-152L73-119L101-56L151 51L188 149L152 232L105 316L84 285L67 278L73 304L109 398L142 494L164 551L187 644ZM670-73L619-132L595-154L561-170L561-156L586-116L634-49L682 23L723 91L700 137L675 189L646 251L643 248L635 244L615 233L589 227L612 262L649 307L696 371L741 435L769 479L789 524L799 559L799 597L817 588L833 578L849 564L853 550L842 517L822 481L801 441L781 414L746 362L716 327L685 291L664 271L693 224L735 153L746 133L770 178L803 255L819 300L823 334L811 364L829 362L852 351L864 339L880 322L872 300L857 263L843 222L819 173L803 137L781 96L773 84L813 18L845-30L864-60L884-86L909-113L930-137L961-163L963-170L936-168L884-147L838-125L817-88L782-21L748 44L737 27L706-22L670-73ZM476 757L471 785L464 803L465 819L478 822L511 810L525 794L530 775L528 713L528-70L525-119L518-163L511-167L495-146L481-120L472-103L466-82L477-58L477-14L475 40L476 81L476 757ZM717 676L737 741L750 782L753 808L743 831L760 825L781 814L803 797L806 777L798 752L781 707L766 670L749 641L715 570L678 508L652 474L631 449L604 424L573 408L588 441L619 482L652 545L687 612L717 676ZM426 303L440 324L466 355L472 359L475 342L462 310L448 281L432 251L419 227L399 194L384 169L376 156L362 152L335 157L320 170L303 182L321 189L341 206L366 223L383 247L402 269L426 303ZM443 488L431 477L420 475L405 481L397 491L388 507L377 523L362 540L347 561L339 574L334 581L348 583L370 579L393 570L414 556L428 542L440 524L443 503L443 488Z"/></svg>