<svg id="UF0106" viewBox="0 0 1024 1024"><path transform="translate(0, 921.6) scale(1,-1)" d="M497 291L500 401L498 434L306 407L261 400L233 411L208 422L197 441L210 458L267 481L413 532L542 579L658 623L698 641L482 604L328 582L290 577L269 576L252 577L230 584L212 600L203 615L209 617L226 625L262 625L337 629L582 660L688 675L712 679L734 682L755 679L773 665L787 652L795 638L794 631L778 624L759 617L722 603L685 588L636 569L571 546L505 525L512 525L541 519L556 500L561 488L560 483L687 501L769 514L786 518L782 532L777 543L777 557L783 561L802 557L825 548L834 537L848 528L857 517L862 505L870 491L868 475L866 460L856 455L846 452L832 451L811 466L811 473L791 475L733 465L554 442L554 427L552 386L552 361L567 366L634 379L698 391L737 401L760 406L785 404L806 394L820 381L825 367L818 363L791 356L764 356L717 348L642 337L598 329L574 326L553 326L553 236L650 253L697 264L729 268L749 274L766 285L783 281L803 270L816 260L829 245L840 236L834 239L842 232L837 222L836 222L825 212L826 181L829 142L832 110L835 46L835-28L834-75L832-99L829-134L818-155L807-165L793-152L787-136L781-113L777-89L781-65L780-27L781 3L781 4L767-1L756-1L717-4L650-14L596-21L570-22L553-20L553-107L555-143L552-161L545-169L525-156L515-145L495-115L493-98L492-73L500-40L497 23L497 291ZM299 191L229 158L192 144L198 133L231 107L265 71L293 26L303-4L309-20L326-5L341 12L358 31L379 62L429 116L437 110L434 98L343-72L325-111L308-134L291-142L270-138L260-121L261-101L261-67L255-15L233 46L205 97L189 119L168 140L165 146L154 146L259 212L315 256L352 294L361 324L356 342L336 364L356 366L395 343L422 317L427 291L418 280L365 234L299 191ZM719 733L680 734L619 729L581 725L516 721L446 713L445 712L304 699L279 698L260 694L241 698L225 704L204 714L185 730L180 744L179 744L187 747L237 747L288 749L376 756L638 779L700 786L731 792L753 793L776 787L794 779L815 765L833 750L837 739L834 731L814 727L795 730L766 733L747 734L719 733ZM741 44L761 42L776 32L782 25L784 52L780 114L772 111L758 111L716 109L635 101L592 94L567 92L552 94L552 14L570 18L614 24L685 34L725 41L741 44ZM744 156L764 154L776 144L773 176L773 179L766 210L758 229L758 226L731 223L637 209L552 191L552 128L565 132L642 139L694 147L724 152L744 156ZM278 448L277 446L496 474L493 492L489 512L492 521L408 494L278 448Z"/></svg>