<svg id="UF0522" viewBox="0 0 1024 1024"><path transform="translate(0, 921.6) scale(1,-1)" d="M232 492L107 474L88 475L68 480L53 494L40 508L52 516L117 523L202 535L232 540L232 746L226 772L215 801L221 816L241 817L265 807L288 783L293 763L287 731L287 682L286 625L287 548L373 564L415 574L437 568L455 557L473 544L483 534L473 526L456 520L435 520L368 512L287 500L287 414L308 418L336 427L358 432L373 437L403 422L416 412L424 400L435 388L435 387L430 377L423 369L421 369L422 356L423 324L421 263L424 263L425 163L425 65L424-2L421-41L418-60L416-80L407-99L392-108L381-92L372-58L370-29L371 5L370 36L372 79L372 141L371 239L371 310L369 310L366 355L364 380L349 376L335 376L287 369L286 218L287 59L287-95L283-131L278-150L271-163L255-148L243-127L231-105L228-87L228-68L231-41L232 24L232 361L154 350L154 226L152 117L154 18L149-29L148-57L141-84L128-104L118-100L111-83L109-83L99-48L96-27L99-3L102 44L101 115L101 207L102 305L103 351L100 372L103 389L114 393L122 396L141 395L149 392L232 406L232 492ZM448 715L455 697L437 678L404 645L363 612L330 583L307 566L294 563L293 570L311 597L336 629L372 678L384 701L375 723L350 741L364 745L384 744L409 740L430 733L448 715ZM74 676L75 695L88 693L103 682L113 675L133 660L146 660L212 694L181 633L161 586L153 570L137 565L128 568L113 586L99 604L89 623L81 651L74 676ZM872 251L891 249L907 238L928 222L936 207L928 200L901 199L856 198L805 191L805 113L806 19L805-50L811-81L829-103L856-114L883-104L895-79L899-21L902 77L909 76L944-93L963-123L941-144L913-156L884-160L850-162L822-158L800-149L781-132L765-111L755-71L755-18L756 48L754 121L754 183L623 161L624 77L621-22L618-75L616-98L611-130L605-151L599-165L582-146L572-120L565-97L556-67L560-41L563-7L568 38L572 107L572 151L527 143L504 145L488 150L473 158L454 173L465 183L543 193L572 198L569 309L566 362L563 385L574 403L587 409L610 407L615 403L738 432L755 443L770 445L788 438L803 427L811 413L822 400L810 374L806 342L805 273L805 239L845 246L872 251ZM721 614L738 644L752 674L734 707L764 703L782 693L803 673L815 651L805 638L791 617L765 589L728 554L752 542L794 519L844 500L885 484L913 473L958 462L983 459L984 450L935 441L849 428L825 441L782 468L737 499L695 526L659 499L615 472L569 442L514 415L482 406L465 408L482 429L530 466L594 510L653 553L604 588L582 611L556 597L526 583L493 576L510 597L541 625L574 652L610 685L642 722L670 753L688 780L694 808L696 821L712 818L725 800L740 783L747 761L729 739L659 669L618 637L602 625L616 616L664 590L683 578L721 614ZM692 375L622 358L623 223L623 207L647 211L753 230L754 230L754 274L753 358L749 376L747 389L692 375Z"/></svg>