<svg id="UF02F8" viewBox="0 0 1024 1024"><path transform="translate(0, 921.6) scale(1,-1)" d="M423 278L423-32L424-73L421-93L421-123L412-149L402-153L393-141L385-124L377-109L369-84L367-64L369-37L370 14L370 68L371 115L369 197L369 327L363 390L363 410L374 423L395 431L413 424L415 422L471 433L529 438L561 446L578 454L595 450L610 443L622 435L637 422L644 408L644 407L641 400L632 389L632 391L629 372L631 303L633 237L634-2L632-57L631-98L628-130L619-151L607-165L596-150L587-128L583-105L578-82L579-33L578 2L580 52L578 91L578 138L580 231L580 319L575 374L564 396L540 398L476 392L424 383L423 278ZM812 469L811 531L760 518L746 516L735 518L725 523L715 529L703 537L698 551L708 557L717 559L743 565L811 575L811 728L799 760L795 784L795 800L800 809L819 809L834 801L855 787L871 769L866 747L863 691L862 612L862 586L894 593L912 599L929 596L947 586L960 569L958 554L938 546L920 546L886 544L863 540L863 423L897 430L919 436L935 431L952 422L965 407L958 392L940 385L923 385L891 383L864 378L864 245L909 252L928 255L947 252L969 241L981 228L979 213L954 205L934 205L896 203L864 199L864-33L862-117L863-146L850-167L838-159L826-138L816-111L812-92L813-67L811-27L811 18L812 70L812 193L764 184L741 180L727 177L709 182L702 188L689 199L684 210L694 216L707 218L728 221L803 235L812 236L813 284L812 368L768 359L747 354L736 356L722 361L716 367L704 375L699 389L711 395L718 397L741 400L801 411L812 413L812 469ZM221 472L221 632L220 731L216 760L208 779L209 794L231 801L263 785L280 764L275 744L274 714L274 662L273 601L274 519L274 385L273 203L274 51L274-85L271-119L268-150L262-167L253-165L241-149L231-134L220-113L213-96L216-79L216-56L219-4L220 98L220 188L219 306L221 472ZM132 172L112 78L94 16L73-41L54-61L44-54L42-30L60 62L84 198L96 355L94 521L95 621L82 655L72 673L79 682L105 682L133 668L148 654L146 641L146 488L145 384L139 254L132 172ZM606 768L622 773L635 774L648 765L663 753L677 738L664 706L651 671L626 596L631 596L639 585L643 573L639 557L623 547L601 545L555 542L479 531L440 524L421 521L402 519L389 518L375 523L358 532L352 546L357 560L370 565L439 574L536 585L585 594L587 594L605 663L616 724L401 688L382 687L370 692L360 693L356 698L348 706L346 718L355 728L376 733L423 738L490 748L564 758L606 768Z"/></svg>