<svg id="UF04C5" viewBox="0 0 1024 1024"><path transform="translate(0, 921.6) scale(1,-1)" d="M709 358L554 336L553 315L553 239L570 241L738 263L739 334L738 362L737 364L709 358ZM554 121L554 105L555 105L665 115L729 126L734 126L738 123L738 214L615 200L553 192L554 121ZM282 476L282 633L281 734L273 765L263 780L264 795L289 799L324 786L343 765L344 748L337 715L337-84L335-130L331-152L324-166L314-164L303-148L293-132L285-116L277-95L277-75L282-52L280-19L282 99L281 192L280 303L282 476ZM736-33L739 36L738 82L733 81L710 78L655 70L568 64L554 61L554 8L553-54L554-103L550-139L537-163L522-147L510-129L500-103L495-83L497-67L498-33L503 15L503 86L501 185L472 180L426 172L408 175L390 184L375 193L369 204L376 216L412 222L501 232L501 233L500 282L495 340L493 368L501 389L513 395L534 395L554 383L554 382L620 395L709 406L731 414L749 425L770 419L788 404L804 387L806 374L796 362L793 338L794 299L793 270L845 277L874 285L888 287L906 279L918 270L927 263L941 248L944 238L933 230L910 231L886 229L855 229L792 221L792 170L793 97L792 35L791-54L792-103L788-139L775-163L760-147L748-129L738-103L733-83L735-67L736-33ZM368 203L368 206L369 204L368 203ZM787 492L658 476L530 461L478 451L461 448L443 448L419 452L394 465L379 481L382 492L413 497L449 499L574 516L732 538L838 552L871 561L897 546L916 533L929 519L927 505L911 498L882 500L850 499L787 492ZM518 569L496 576L478 586L467 603L476 612L503 618L585 626L696 645L734 651L750 703L763 759L684 744L635 733L553 721L533 717L514 718L499 724L485 729L473 741L473 751L489 764L530 768L655 785L757 801L780 810L799 802L823 785L833 769L823 752L805 721L776 651L787 648L792 640L797 623L786 611L773 605L742 601L635 589L553 577L518 569ZM176 145L155 54L136-8L114-63L94-82L83-75L81-53L101 38L125 171L135 312L136 486L138 584L123 617L113 636L120 643L149 643L177 630L194 616L192 603L192 454L191 352L184 225L176 145Z"/></svg>