<svg id="UF02D" viewBox="0 0 2048 2048"><path transform="translate(1024, 1843.2) scale(1,-1)" d="M-882 1664L-945 1664Q-943 1744-894.50 1786Q-846 1828-759 1828L-759 1828Q-744 1828-728.50 1826.50Q-713 1825-697 1821L-697 1821Q-669 1814-605 1789L-605 1789Q-597 1786-587.50 1782.50Q-578 1779-568 1775L-568 1775Q-505 1753-465 1753L-465 1753Q-458 1753-450 1755L-450 1755Q-400 1762-386 1829L-386 1829L-323 1829Q-325 1725-406 1686L-406 1686Q-449 1664-507 1664L-507 1664Q-568 1664-661 1703L-661 1703Q-669 1706-677.50 1709.50Q-686 1713-694 1717L-694 1717Q-726 1731-753 1737Q-780 1743-801 1743L-801 1743Q-840 1743-860 1723L-860 1723Q-876 1707-882 1664L-882 1664Z"/></svg>