<svg id="UF052F" viewBox="0 0 1024 1024"><path transform="translate(0, 921.6) scale(1,-1)" d="M818 486L795 486L738 478L686 474L616 466L556 459L500 450L457 444L440 445L420 454L402 463L391 475L392 480L400 484L419 486L437 490L460 490L493 496L556 501L759 526L759 527L764 551L777 585L790 627L661 613L661 607L659 591L656 559L650 529L644 518L644 517L635 522L629 548L624 609L542 600L502 594L508 545L511 516L507 501L496 512L491 530L483 550L466 589L431 585L408 582L384 580L359 590L343 600L338 612L346 618L379 623L428 628L451 630L441 654L433 663L424 680L411 690L402 692L398 696L409 705L427 707L447 709L460 707L470 708L483 703L485 704L487 678L494 635L532 640L619 650L616 678L611 697L604 709L602 709L597 716L597 723L596 723L601 729L611 730L625 730L644 723L658 716L664 709L664 691L663 669L666 675L684 714L698 742L702 756L683 756L633 750L608 745L505 732L485 732L474 736L459 743L447 751L443 767L457 776L492 774L554 782L619 788L662 795L700 799L719 802L733 807L750 796L765 782L767 776L754 755L744 742L732 725L718 705L685 658L761 667L803 673L808 693L811 711L807 735L799 746L803 750L812 749L833 744L846 736L858 732L869 725L873 712L859 680L900 686L920 686L938 672L955 657L963 651L952 641L933 637L904 637L867 635L835 631L824 610L806 573L789 547L771 528L780 529L827 538L833 541L849 540L859 537L871 528L885 518L892 504L887 497L880 494L870 489L838 489L818 486ZM743 191L835 213L849 217L858 218L868 213L878 205L887 198L897 189L892 174L886 153L885 107L885 10L886-51L885-93L893-108L910-120L923-119L940-111L939-86L942-48L946 57L951 56L988-114L997-132L985-146L961-157L940-162L915-163L894-163L879-158L855-146L850-131L841-106L839-78L840-31L841 15L841 162L838 161L837 169L811 168L743 152L743 87L744-16L744-75L745-108L740-123L737-145L735-156L727-165L716-151L707-134L699-121L697-105L701-83L699-62L701-37L701 62L699 133L696 164L694 179L703 191L715 194L735 193L743 191ZM568 140L567 218L567 261L556 282L556 292L562 301L568 305L576 305L588 303L595 300L611 290L618 266L617 247L615 206L617 163L615 96L615-68L617-109L617-126L616-148L608-168L593-158L579-146L572-132L564-121L568-103L567-91L569-69L567-41L567 59L568 140ZM867 442L884 447L903 444L918 432L927 424L917 399L903 352L892 324L895 323L900 316L902 300L897 290L881 286L855 281L807 275L727 263L713 263L699 267L687 273L679 286L693 294L707 299L842 319L860 320L861 320L866 347L875 405L844 401L798 392L737 383L719 379L699 381L687 385L677 395L677 404L687 412L707 416L751 424L819 432L867 442ZM436 224L411 211L381 197L358 189L330 186L345 203L362 214L411 246L464 284L533 334L583 377L601 399L598 411L589 424L577 434L589 438L607 438L618 435L636 431L649 424L658 417L663 404L661 393L648 374L608 341L575 314L530 282L492 258L436 224ZM405 417L412 410L426 392L438 389L503 415L442 320L432 312L419 314L407 332L397 353L391 384L387 406L388 416L391 424L405 417ZM286-138L279-155L270-168L255-154L249-134L244-114L244-93L247-64L250 3L250 205L203 198L146 192L145 105L138-15L138-86L128-123L122-143L116-143L107-135L101-113L94-100L86-76L86-53L88-25L93 33L100 121L101 184L74 180L63 181L43 188L34 196L27 209L48 215L78 220L101 225L102 240L101 345L97 406L94 432L102 447L117 453L139 450L159 455L217 469L232 477L245 477L258 471L277 462L289 451L299 444L306 432L300 425L293 405L293 389L288 349L293 278L293 251L309 255L327 254L337 246L354 234L346 218L336 211L319 209L305 207L293 208L294 162L294 12L293-59L291-101L286-138ZM255 819L273 825L283 831L299 821L311 811L325 795L316 775L306 726L298 691L279 617L283 618L298 616L306 607L307 597L303 583L293 575L277 573L243 571L219 567L161 559L126 553L111 551L97 553L88 557L77 566L70 574L74 584L84 589L142 599L227 607L246 610L263 730L272 781L133 754L114 753L95 749L82 752L74 757L64 772L66 780L83 791L114 796L155 804L201 806L241 818L255 819ZM147 254L146 234L151 235L214 239L250 244L250 253L247 332L246 332L244 390L243 409L240 416L226 422L148 409L144 407L147 254ZM438 50L437 128L437 171L426 192L426 202L432 211L438 215L446 215L458 213L465 210L481 200L488 176L487 157L485 116L487 73L485 6L485-68L487-109L487-126L486-148L478-168L463-158L449-146L442-132L434-121L438-103L437-91L439-69L437-41L437 9L438 50Z"/></svg>