<svg id="UF006F" viewBox="0 0 1024 1024"><path transform="translate(0, 921.6) scale(1,-1)" d="M924 233L968-63L997-109L970-124L931-144L893-156L853-154L818-154L794-149L772-139L754-121L743-104L730-69L729 17L730 90L730 175L729 256L723 254L694 248L669 246L614 238L615 66L614-8L613-98L606-125L592-148L577-128L567-94L563-72L560-40L559-22L562 49L562 125L563 230L546 228L513 220L497 229L483 238L478 257L493 263L526 267L562 274L561 359L562 462L526 454L509 456L493 462L478 474L474 486L486 492L523 496L562 505L563 593L562 691L556 735L552 760L567 767L586 769L591 767L603 770L664 777L717 791L737 799L756 793L770 785L790 769L809 744L792 717L784 678L785 615L786 529L786 413L785 303L786 154L785 13L787-46L796-78L816-94L852-104L883-105L904-98L917-66L916-31L915 230L924 233ZM343 527L298 519L298 419L360 433L388 442L405 449L418 443L429 436L441 427L451 411L457 399L456 389L450 381L449 381L447 366L448 332L448 274L451 176L452 89L453 49L451-10L445-50L441-78L428-104L418-107L411-96L401-72L399-50L398-28L397 13L397 49L399 96L398 163L397 252L399 321L398 341L396 365L390 390L375 392L351 388L298 376L298 371L299 188L298 4L298-70L297-113L295-138L284-163L269-151L257-134L248-115L238-97L233-74L241-52L243 13L243 509L194 500L156 492L126 488L97 487L70 495L59 510L56 522L61 522L60 526L67 541L85 581L109 618L133 679L137 708L133 740L150 740L167 727L186 717L195 703L202 690L182 654L132 571L97 527L109 530L207 548L243 555L243 756L238 772L230 795L238 799L256 806L277 793L300 773L303 756L299 726L297 665L297 566L342 575L403 587L421 593L449 584L468 570L479 557L481 545L467 534L445 535L408 533L343 527ZM80-34L81-14L81 10L78 59L71 108L62 154L50 196L41 208L27 212L33 219L32 221L34 221L56 249L82 279L110 314L127 349L137 376L139 400L130 419L106 439L143 439L161 432L174 423L186 414L208 386L196 365L175 333L151 300L118 264L81 231L57 214L81 184L95 155L110 130L120 90L124 67L127 56L127 53L141 71L153 83L170 104L179 116L197 135L211 156L226 160L211 121L201 99L182 59L165 26L150-3L135-30L124-48L102-60L87-53L80-34ZM703 534L718 527L729 519L729 536L731 620L729 730L726 740L683 733L614 723L614 515L616 516L689 529L703 534ZM704 301L715 298L726 288L729 285L729 491L718 487L684 483L660 480L614 472L614 282L622 283L673 295L704 301Z"/></svg>