<svg id="UF02F" viewBox="0 0 2048 2048"><path transform="translate(1024, 1843.2) scale(1,-1)" d="M-1009 1664L-1072 1664Q-1070 1744-1021 1786L-1021 1786Q-972 1828-886 1828L-886 1828Q-852 1828-823 1821L-823 1821Q-804 1816-772 1804Q-740 1792-695 1775L-695 1775Q-632 1753-591 1753L-591 1753Q-586 1753-576 1755L-576 1755Q-526 1762-512 1829L-512 1829L-450 1829Q-452 1725-533 1686L-533 1686Q-574 1664-633 1664L-633 1664Q-694 1664-787 1703L-787 1703Q-803 1709-821 1717L-821 1717Q-883 1743-929 1743L-929 1743Q-967 1743-987 1723L-987 1723Q-1001 1709-1009 1664L-1009 1664Z"/></svg>