<svg id="UF0165" viewBox="0 0 1024 1024"><path transform="translate(0, 921.6) scale(1,-1)" d="M832 643L781 645L703 636L685 590L684 589L666 546L641 516L631 503L630 503L629 516L634 541L649 597L659 632L554 625L524 621L521 556L514 510L507 491L507 489L498 507L491 533L490 559L484 617L411 609L372 606L359 604L363 586L367 534L368 532L367 497L363 486L362 485L355 495L342 522L326 581L322 600L219 589L186 584L168 582L149 583L127 588L103 600L82 611L74 625L93 630L136 631L194 635L285 641L309 643L302 661L287 708L279 726L272 738L257 755L256 754L248 763L249 772L248 772L255 777L276 783L318 774L329 767L338 742L338 741L343 705L354 647L383 650L478 659L475 724L474 724L470 758L461 775L460 775L454 784L453 797L452 797L457 802L469 807L487 806L507 797L525 784L531 771L531 750L524 702L525 663L622 673L671 677L681 723L687 765L677 787L676 787L669 802L671 807L670 807L683 809L710 804L710 803L725 791L742 779L752 769L751 755L741 729L728 700L721 682L833 694L859 695L875 693L887 686L901 679L923 661L934 650L941 639L936 628L915 627L899 631L879 638L863 640L832 643ZM842 290L848 305L842 319L830 332L843 338L866 337L879 330L891 320L905 307L909 299L889 276L843 230L800 194L744 157L744-64L748-97L761-113L797-127L831-127L862-122L873-108L881-64L887 20L892 19L932-122L949-139L923-151L892-160L845-167L797-168L757-165L731-154L710-139L694-113L692-80L691-8L692 108L692 376L681 396L681 399L667 394L642 385L609 385L647 407L658 417L736 466L777 493L816 527L826 540L821 556L809 572L826 575L851 570L865 561L877 547L890 532L892 522L868 502L801 463L751 434L716 415L737 403L748 392L746 373L744 341L744 183L782 220L813 254L842 290ZM339-132L333-148L324-163L311-165L304-145L296-124L298-95L299-65L299-24L302 12L302 225L304 233L302 274L302 297L297 296L292 296L250 287L181 277L183 168L182 51L174-32L173-81L167-102L163-120L151-137L145-134L135-121L126-115L125-102L114-88L118-75L120-57L123-3L131 66L132 154L132 284L123 307L138 316L156 319L183 316L181 312L205 316L232 322L254 327L283 334L311 338L325 344L339 338L355 323L368 308L366 300L366 299L364 296L356 281L356 285L354 270L355 239L355-38L351-71L346-106L339-132ZM467 166L497 134L525 97L545 137L563 180L573 210L578 244L565 274L586 272L609 263L629 246L639 235L624 194L609 167L596 140L579 102L555 57L574 33L609-30L626-66L641-104L650-138L643-161L628-162L610-144L595-116L560-42L529 12L506-25L472-69L435-120L397-153L375-161L385-135L400-109L429-66L444-41L490 30L504 57L477 110L446 158L442 152L411 131L393 124L403 144L411 167L429 197L462 263L486 312L503 346L512 374L524 425L520 446L487 469L521 468L557 456L577 446L586 430L566 375L544 328L514 271L500 242L466 193L454 173L467 166ZM374 469L404 458L415 451L429 441L431 429L420 420L403 416L372 415L327 410L241 399L168 388L153 387L124 391L104 404L100 414L119 426L161 432L227 440L278 449L343 459L374 469Z"/></svg>