<svg id="UF0023" viewBox="0 0 1024 1024"><path transform="translate(0, 921.6) scale(1,-1)" d="M857 747L849 759L852 764L861 765L881 761L904 748L918 738L922 728L918 714L914 695L911 682L920 685L943 684L959 672L973 658L983 646L981 637L962 633L937 632L899 630L889 590L876 548L865 518L848 485L842 477L839 477L838 485L842 512L848 560L858 627L803 618L803 586L794 521L790 483L783 465L783 463L776 473L772 504L766 596L767 599L765 611L729 603L710 598L713 581L718 516L720 479L717 460L717 459L707 466L696 495L676 580L674 580L671 589L644 582L627 582L610 586L594 600L585 610L600 620L638 627L660 631L654 655L652 667L641 684L629 699L621 705L615 715L628 721L646 725L662 722L677 721L686 718L696 714L697 704L699 687L704 646L705 640L742 648L761 651L758 678L753 708L744 722L745 722L738 733L738 741L740 748L673 736L641 731L616 737L592 748L586 761L601 775L644 778L732 794L784 804L877 823L904 831L926 830L946 816L963 800L973 788L963 782L945 777L915 779L860 769L754 751L753 751L767 747L783 741L798 733L809 727L811 718L805 698L803 659L821 663L864 671L866 683L866 724L857 747ZM417-84L386-121L360-146L331-165L316-169L322-148L342-120L376-70L418-7L459 66L467 80L428 147L386 212L384 210L357 191L337 185L347 209L367 241L417 311L457 377L488 436L509 474L518 497L523 541L523 562L519 577L539 572L558 557L573 543L581 525L569 498L553 460L528 413L494 353L459 301L419 246L401 228L429 196L490 120L500 138L514 181L536 235L546 276L547 311L540 330L521 353L546 352L570 344L584 338L597 322L607 309L605 288L589 236L576 202L558 163L518 79L535 54L567 2L589-46L601-85L609-127L604-156L593-166L581-154L565-125L531-36L495 31L492 35L485 22L450-33L417-84ZM720-158L699-166L702-151L726-131L748-110L778-82L842-18L873 16L891 38L893 49L875 44L852 39L800 30L754 19L727 16L711 20L702 25L689 35L689 43L691 52L723 78L772 117L817 158L853 191L752 171L715 163L699 163L682 169L670 180L673 192L698 196L742 202L818 215L842 220L865 229L878 228L891 219L905 210L906 194L895 181L876 162L850 141L825 118L783 88L762 70L735 52L820 67L879 82L908 91L923 86L937 74L944 61L948 50L944 40L913 2L885-32L840-74L802-108L761-139L720-158ZM70-156L41-164L57-139L107-80L144-27L174 20L203 67L224 108L241 144L259 199L267 233L230 217L202 201L162 180L135 167L113 156L97 149L81 151L63 156L50 162L47 174L60 184L95 194L201 242L249 270L268 280L282 292L288 295L304 287L315 279L329 263L316 237L304 192L289 150L266 97L219 12L176-53L117-117L70-156ZM112 344L116 367L116 400L112 471L98 536L79 599L69 627L55 660L47 670L59 679L69 680L69 679L136 712L190 746L219 773L230 799L223 816L214 828L237 820L254 803L266 787L273 768L277 748L262 735L234 723L189 702L140 682L75 663L112 602L129 562L139 525L151 489L156 453L160 409L170 424L262 500L273 510L288 523L297 523L292 507L279 487L163 342L149 324L132 315L120 315L110 326L112 344ZM704 272L687 278L676 284L664 296L672 304L694 308L734 316L820 329L850 333L872 399L876 423L823 413L782 404L725 394L711 392L695 391L685 396L674 403L666 409L663 418L677 430L723 433L824 447L879 461L896 467L911 457L924 446L926 435L914 413L899 373L884 339L896 338L905 334L908 327L913 313L904 303L884 297L857 294L770 283L723 272L704 272ZM480 685L493 729L496 766L490 780L482 798L503 797L521 787L543 770L555 749L546 723L531 682L510 635L476 562L442 502L416 461L395 431L357 394L328 375L326 383L343 413L365 447L397 502L430 567L464 641L480 685Z"/></svg>