<svg id="UF0310" viewBox="0 0 1024 1024"><path transform="translate(0, 921.6) scale(1,-1)" d="M328 318L351 353L366 384L374 401L372 417L392 411L408 397L422 377L429 360L410 340L367 285L322 239L282 202L239 162L198 139L182 131L175 127L196 125L257 87L296 58L315 82L343 119L362 154L373 182L378 198L368 221L356 238L385 237L411 222L429 206L442 185L426 155L413 132L397 110L373 75L334 29L365 5L396-27L421-63L437-85L452-117L460-148L448-169L430-161L405-134L352-59L301-8L249-61L207-98L184-118L135-150L103-165L68-168L82-150L112-124L150-89L207-37L254 13L267 27L229 66L176 117L170 124L157 116L136 108L117 106L127 123L182 171L234 217L290 276L328 318ZM844 623L803 622L631 602L537 588L448 577L362 564L235 544L181 533L161 531L140 535L124 540L100 551L79 572L92 580L129 583L165 586L277 602L406 618L638 650L795 673L851 683L869 683L885 679L901 670L916 659L930 646L941 635L947 623L941 616L927 614L908 618L890 620L865 625L844 623ZM544 39L543-66L543-105L544-129L541-152L537-163L528-177L516-170L501-150L486-121L481-109L484-88L487-65L492-18L492 423L490 513L477 536L476 546L477 558L493 560L524 548L537 540L548 527L544 501L544 474L543 457L544 408L543 324L544 158L544 39ZM289 448L300 473L308 504L309 525L325 519L345 504L357 490L365 471L333 424L281 355L231 306L192 265L145 238L117 221L92 221L104 239L142 275L193 326L245 389L289 448ZM717 798L712 786L680 757L629 715L601 692L572 670L529 646L516 640L511 636L511 644L527 664L552 695L601 745L631 789L621 808L592 826L604 831L637 833L671 828L692 821L708 809L717 798ZM328 774L328 786L344 782L354 775L377 757L398 744L409 750L479 789L436 710L425 686L415 663L415 662L399 653L385 656L375 669L366 680L357 700L347 723L334 751L331 761L328 774ZM706-50L669-94L632-128L601-152L574-161L579-146L613-101L665-38L738 61L781 130L811 184L800 184L767 179L730 178L704 176L677 176L658 183L652 193L648 205L656 215L679 237L729 279L795 337L835 379L814 374L736 359L665 346L633 340L614 348L601 357L597 370L596 376L612 380L631 384L701 394L741 398L811 409L830 414L851 419L863 423L876 420L889 409L899 398L902 388L895 379L882 361L861 342L824 310L805 292L758 255L731 232L704 214L747 214L808 220L830 222L848 261L856 281L860 304L855 321L872 320L890 312L906 297L913 284L907 262L896 243L885 223L908 224L930 218L938 213L947 205L953 193L955 177L950 141L939 101L919 47L900 0L863-70L824-132L807-151L783-167L768-161L758-150L757-126L754-106L750-76L750-31L755-29L774-60L784-77L798-98L810-74L835-30L860 23L879 66L898 124L902 164L897 176L885 184L865 186L841 141L822 110L798 67L763 20L706-50ZM945 547L934 539L925 525L901 499L860 462L839 444L810 422L789 414L786 414L786 418L800 438L840 489L857 517L869 542L864 560L847 574L852 579L867 580L884 578L904 577L923 566L938 558L945 547ZM668 515L668 532L675 531L687 523L698 513L710 501L725 496L795 532L746 460L735 436L728 424L726 424L718 417L710 423L708 423L701 426L692 442L681 466L674 494L668 515Z"/></svg>