<svg id="UF0192" viewBox="0 0 1024 1024"><path transform="translate(0, 921.6) scale(1,-1)" d="M577 390L548 392L566 407L590 422L630 445L671 471L727 504L770 532L815 562L847 588L845 594L828 591L796 588L754 584L705 580L641 572L609 573L589 576L575 587L570 607L590 623L641 655L701 695L759 733L787 751L675 731L621 722L599 724L580 731L564 739L557 753L565 763L624 769L720 778L805 791L821 793L829 792L847 783L860 770L865 753L856 746L844 736L814 716L782 697L729 666L681 635L664 625L642 615L757 628L845 639L864 640L886 639L897 631L910 616L909 589L899 571L880 555L842 525L764 478L700 442L600 398L577 390ZM668 5L636 1L647 14L670 34L694 56L726 82L765 113L807 145L838 171L866 199L874 216L861 215L793 205L741 195L702 190L681 189L656 193L639 205L634 220L639 235L682 265L738 307L791 350L833 385L727 372L689 366L664 368L647 379L634 385L634 396L665 405L698 411L737 414L816 418L849 426L865 429L881 426L899 413L908 398L899 385L868 363L846 345L811 317L778 288L746 265L731 256L717 246L699 231L837 248L883 258L897 261L913 251L927 242L934 233L937 217L930 202L919 185L874 143L817 94L758 53L696 17L668 5ZM97 320L97 515L92 533L79 554L81 566L104 567L132 554L152 537L158 523L152 502L153 467L153 422L151 351L151 253L153 118L152-21L153-71L151-101L150-124L143-145L135-159L128-157L116-142L96-112L92-98L92-78L98-60L98-33L96 36L96 121L98 194L97 320ZM344 767L340 742L334 719L325 663L319 645L422 662L447 668L466 672L489 660L505 644L513 632L505 620L489 617L456 614L401 608L254 590L123 570L104 568L85 578L72 590L58 604L73 611L128 617L220 632L300 642L295 673L293 727L288 763L283 788L270 799L261 816L275 821L294 819L307 821L326 810L340 803L350 792L344 767ZM464-10L392 44L379 28L366 14L334-26L286-75L232-123L198-142L173-152L184-128L198-113L220-87L295-6L353 70L354 71L288 123L212 189L211 201L236 196L308 147L377 102L413 161L435 210L447 236L419 237L390 233L368 229L312 227L263 223L239 224L239 229L230 223L209 223L238 257L269 288L328 352L376 419L407 462L433 500L325 475L278 463L235 459L211 461L192 472L180 487L190 496L207 499L246 504L337 515L421 534L444 546L454 547L472 541L491 522L497 509L492 497L476 478L456 449L424 411L363 335L299 271L280 255L290 257L400 273L439 283L456 284L479 285L495 277L508 257L504 240L483 204L462 156L432 103L416 78L469 43L561-15L620-46L701-81L771-106L875-128L922-139L966-146L966-155L883-155L795-157L706-154L626-116L547-68L464-10Z"/></svg>