<svg id="UF061E" viewBox="0 0 1024 1024"><path transform="translate(0, 921.6) scale(1,-1)" d="M739 806L737 826L751 833L774 826L790 818L799 808L806 789L799 770L799 363L804 375L844 438L889 520L915 578L919 596L915 610L905 625L915 628L927 628L937 624L953 614L967 601L976 583L959 553L927 497L905 461L884 433L853 391L829 357L810 340L799 325L799 9L800-58L807-92L830-114L867-117L893-115L906-107L915-84L914 6L914 92L918 95L948-46L964-97L982-124L964-142L933-155L889-164L841-166L803-157L777-141L760-110L747-70L747-17L748 105L747 291L747 778L739 806ZM618 216L602 214L603 97L603-74L604-104L604-128L599-153L595-160L584-146L574-128L564-115L555-97L552-82L557-51L554-22L556 4L556 30L557 112L557 207L511 198L477 193L458 189L439 196L428 203L415 213L413 222L423 226L445 227L469 234L518 240L556 247L556 391L521 385L495 381L481 381L466 384L457 387L444 396L441 407L452 414L467 416L551 433L556 434L556 478L557 534L548 556L543 574L553 581L562 582L580 579L600 560L606 550L608 524L603 482L603 441L620 444L649 452L664 454L685 448L697 438L703 425L696 415L674 409L641 406L605 401L603 400L603 347L602 256L627 261L665 269L680 272L701 264L717 252L728 234L716 224L689 225L662 222L618 216ZM396 476L405 490L422 510L447 536L484 576L517 610L568 671L605 724L633 767L612 757L588 752L515 735L490 730L466 728L448 730L426 735L416 748L418 758L430 764L452 770L497 776L568 787L596 794L620 799L639 806L649 812L665 804L680 792L690 776L677 751L649 706L616 662L582 619L544 579L497 533L463 510L422 481L396 476ZM303 761L249 752L200 742L159 734L135 730L115 732L98 740L87 745L82 760L89 766L105 771L128 774L202 787L320 809L348 819L366 817L384 809L402 797L408 788L400 774L378 769L352 768L303 761ZM204 361L159 324L122 294L169 255L204 218L227 192L251 162L259 177L282 226L289 268L290 286L285 306L294 304L305 298L322 284L330 272L341 255L314 191L286 128L276 112L297 79L330 26L349-17L367-57L384-108L387-153L375-168L357-154L339-113L290 0L253 71L238 41L201-17L165-64L138-98L104-131L67-161L42-171L51-152L167 11L220 101L229 118L176 186L105 254L63 286L89 311L129 347L208 426L172 450L120 477L78 495L111 529L154 575L199 628L226 669L248 717L246 750L257 749L272 735L285 718L298 697L292 680L266 645L222 590L166 529L144 508L202 475L232 454L252 478L276 517L293 555L294 587L287 617L306 609L326 591L341 574L351 557L340 539L312 490L286 452L269 431L289 419L348 379L381 346L400 325L413 302L412 283L401 277L380 287L351 310L305 351L264 384L243 399L204 361Z"/></svg>