<svg id="UF0615" viewBox="0 0 1024 1024"><path transform="translate(0, 921.6) scale(1,-1)" d="M876 82L886 80L924-106L936-120L920-148L904-156L885-163L861-168L812-169L781-165L753-149L737-128L726-90L721-25L722 41L721 188L696 185L624 177L624 31L626-26L626-72L623-97L619-129L614-151L607-159L599-151L593-139L582-124L571-98L572-71L574-40L574-4L575 91L574 169L573 169L543 167L527 175L503 190L511 205L532 210L574 216L574 350L571 426L567 450L585 463L602 467L621 461L650 467L696 474L721 483L733 487L742 482L757 474L772 467L782 453L786 442L774 428L774 285L773 246L785 248L807 252L826 253L844 244L861 230L870 212L862 204L847 203L828 199L794 197L773 194L773 130L772 34L774-39L778-73L782-91L788-106L799-115L816-122L863-114L873-95L875-46L876 82ZM624 253L624 223L634 225L719 236L721 236L722 280L722 430L723 434L719 432L625 418L624 253ZM677 784L671 802L673 807L685 809L709 804L709 803L728 791L740 785L756 769L748 750L739 722L727 690L716 659L719 660L844 673L871 674L887 672L900 665L914 658L937 641L948 629L955 618L950 608L928 607L912 611L891 614L874 619L859 619L842 618L738 613L699 610L687 572L686 571L665 530L645 490L635 477L634 477L633 490L639 518L652 578L659 607L630 605L527 596L524 541L518 494L511 475L511 473L501 491L494 518L493 544L488 592L473 591L405 585L354 580L354 579L358 527L359 525L358 490L354 479L353 478L346 488L333 515L317 574L316 576L237 569L182 564L164 562L145 563L122 568L98 579L76 590L68 605L87 610L131 611L188 614L284 620L306 622L293 654L278 701L270 718L263 731L248 748L247 747L239 755L240 765L239 765L246 770L267 776L309 767L320 759L329 735L329 734L334 698L345 639L346 625L385 629L483 638L482 643L479 714L478 714L474 749L464 767L463 767L457 776L456 790L455 790L460 795L473 799L490 798L511 790L528 776L534 763L534 741L527 692L528 642L615 650L671 655L673 662L683 715L689 761L678 784L677 784ZM250 212L198 147L168 120L199 94L238 52L249 69L271 111L279 135L279 161L269 184L287 184L307 173L318 163L331 143L325 125L310 93L299 68L279 34L268 17L278 6L318-45L346-91L358-123L361-141L360-159L347-165L333-158L316-137L273-66L241-20L216-52L175-100L150-122L129-145L113-157L86-163L99-135L115-113L134-87L176-38L215 16L174 74L151 104L127 84L97 69L87 69L91 83L105 99L146 145L181 186L210 223L231 259L248 287L260 312L262 330L258 350L273 351L292 341L303 331L315 310L300 282L283 258L250 212ZM206 315L179 273L152 233L120 199L94 183L72 173L76 188L92 215L107 235L134 279L167 333L186 374L194 396L203 417L204 444L202 460L218 459L235 451L247 440L261 427L255 402L233 365L206 315ZM412 231L411 341L411 407L404 432L400 447L403 457L412 465L421 465L434 462L443 456L463 436L468 418L463 388L462 330L463 264L464 166L464-37L462-109L462-138L460-165L451-173L438-168L425-148L415-130L408-122L409-101L411-80L413-42L411 0L411 115L412 231Z"/></svg>