<svg id="UF023D" viewBox="0 0 1024 1024"><path transform="translate(0, 921.6) scale(1,-1)" d="M875-105L873-129L864-153L850-169L837-148L828-113L826-78L826-44L829 22L835 76L835 130L775 124L674 113L674 112L672-13L668-62L666-84L657-122L652-143L643-143L635-134L627-117L620-98L611-73L612-55L617-31L624 25L624 106L592 99L568 98L553 105L538 115L521 127L525 134L547 138L622 146L624 146L624 272L599 268L583 265L570 267L549 272L531 281L514 294L518 301L540 306L614 315L624 316L624 363L620 425L617 460L628 470L646 477L670 472L670 468L689 474L759 487L800 497L820 503L845 513L854 507L866 497L888 475L893 466L889 457L878 437L882 442L875 414L876 379L876 351L917 359L937 355L952 348L965 335L978 323L971 313L943 311L920 311L878 305L878 304L881 268L883 185L883 183L919 190L938 184L955 176L970 166L985 154L978 144L950 142L923 142L883 135L883 6L878-50L878-79L875-105ZM673 153L748 163L835 175L835 277L833 301L758 292L673 280L673 153ZM673 323L726 330L830 345L829 361L828 361L826 422L828 445L818 455L808 454L743 443L675 429L673 323ZM887 642L916 637L929 628L952 611L960 597L951 589L916 588L883 586L827 579L696 560L597 542L579 541L556 547L540 560L523 574L535 584L686 604L759 617L866 635L887 642ZM938 801L944 787L924 765L889 729L851 691L806 649L776 632L765 627L764 637L777 659L814 707L853 758L864 787L851 806L836 824L848 829L898 827L924 817L938 801ZM600 753L603 773L615 771L628 759L637 752L658 737L671 737L738 765L697 691L688 671L680 657L675 648L659 640L652 643L636 659L623 686L620 686L608 727L600 753ZM432 686L433 782L423 804L414 825L424 838L440 834L466 825L487 801L482 778L482 737L484 682L482 524L482 187L483 8L482-73L482-120L476-161L467-176L457-158L445-141L435-113L429-97L428-80L432-51L432 686ZM309 374L311 518L309 580L304 602L295 619L305 627L316 628L340 618L353 604L363 594L363 521L362 467L362-43L360-87L362-118L362-144L356-162L349-169L337-149L325-137L312-113L308-95L306-83L308-61L309-33L311 4L309 38L310 123L309 223L309 374ZM38 447L49 465L75 490L103 513L146 551L199 598L271 673L323 738L338 768L319 761L276 752L191 736L144 728L114 724L95 728L78 733L66 742L66 756L79 763L94 765L132 772L166 775L249 787L296 796L323 803L344 809L355 809L370 810L391 798L402 777L386 746L358 709L320 662L274 611L218 558L170 517L98 469L65 453L38 447ZM162 294L161 423L162 465L157 481L151 491L162 499L173 499L194 491L205 482L216 471L213 459L213 426L212 389L212-85L215-113L212-136L209-157L205-170L201-171L191-160L178-147L168-132L162-118L163-104L163-89L161-71L161-54L162 49L162 294Z"/></svg>