<svg id="UF05A0" viewBox="0 0 1024 1024"><path transform="translate(0, 921.6) scale(1,-1)" d="M635-106L630-129L619-151L609-163L596-141L583-110L584-72L582-23L583 19L583 169L582 232L583 287L578 294L574 299L560 294L497 284L448 278L449 153L449-101L444-125L436-152L424-149L414-132L407-122L399-112L395-94L398-75L396-54L400-10L400 56L401 136L401 237L396 279L396 303L405 313L423 319L451 315L477 319L507 325L539 333L566 344L586 347L599 341L612 334L623 325L636 320L642 311L637 305L633 281L635 239L635 154L634 97L634 3L635-67L635-106ZM525 552L524 492L521 461L521 460L585 474L616 484L635 479L652 470L671 458L676 442L667 435L653 433L637 433L591 430L529 419L403 397L389 398L373 400L352 411L346 420L359 431L398 436L460 447L498 455L495 462L493 499L492 540L472 525L430 500L396 481L354 458L324 448L343 476L386 509L428 538L472 574L490 588L490 597L493 600L488 710L488 733L486 766L486 782L479 794L470 804L469 814L468 817L478 823L495 823L512 819L524 814L540 804L547 788L542 770L540 749L537 723L535 691L531 621L558 649L586 684L598 706L590 725L572 746L593 747L613 742L626 738L637 731L646 724L658 714L664 705L660 688L648 675L630 658L604 633L579 611L551 587L526 567L525 552ZM381 717L395 704L411 686L424 681L472 711L436 617L431 603L417 591L402 598L392 614L382 640L373 679L369 702L370 717L373 723L381 717ZM726 583L728 589L706 587L692 591L673 608L673 619L693 625L736 632L793 644L856 655L897 665L914 671L932 668L955 657L970 642L969 631L963 624L942 622L913 617L880 615L799 601L749 592L759 591L779 571L791 551L786 522L787 487L786 327L786 291L799 309L847 374L881 429L889 452L884 469L875 485L888 488L896 487L916 479L927 470L942 456L953 442L944 422L909 381L867 332L807 271L788 258L786 256L787 150L786 69L787-36L797-84L804-104L839-120L879-121L910-112L918-79L917-24L921 118L928 114L973-96L989-120L971-144L947-156L905-165L850-167L807-166L773-151L753-130L743-100L733-55L735 42L733 181L733 533L724 567L726 583ZM889 802L906 797L918 787L928 776L936 761L929 754L912 753L895 753L859 749L793 736L745 727L727 726L709 733L691 750L692 761L719 769L761 776L791 782L843 793L875 799L889 802ZM158 550L154 551L163 528L199 447L223 384L239 333L249 373L264 483L275 583L267 582L250 580L232 575L188 559L158 550ZM167 454L142 553L137 554L126 564L119 570L131 585L188 599L212 605L240 617L264 626L277 632L292 628L304 621L313 611L324 601L331 591L322 560L315 520L308 476L297 406L279 302L266 248L310 107L324 45L340-19L359-92L358-124L354-148L342-156L326-138L306-79L261 95L243 162L239 145L226 92L208 35L193-2L177-42L156-87L140-120L127-143L113-154L97-158L102-140L111-108L128-56L146-9L158 29L179 89L210 211L220 254L215 274L167 454ZM84 688L62 691L42 705L35 717L54 729L100 735L151 745L218 759L260 767L273 773L298 765L312 753L324 742L329 735L318 725L301 721L275 718L230 712L175 704L106 690L84 688ZM119 77L117 36L115 22L112-7L104-26L98-28L84-25L78-16L67 12L62 30L64 52L66 79L68 110L66 154L66 585L58 610L54 629L62 639L75 641L100 630L121 611L122 593L119 574L119 77Z"/></svg>