<svg id="UF02CF" viewBox="0 0 1024 1024"><path transform="translate(0, 921.6) scale(1,-1)" d="M850 400L860 423L860 440L848 462L859 464L872 461L886 458L909 442L916 425L901 401L877 357L848 312L809 259L789 237L778 224L779 120L779-83L793-109L819-121L852-121L879-114L883-91L882-42L884 64L887 64L931-97L949-120L940-133L926-148L905-155L886-158L843-164L807-164L780-158L757-146L738-117L728-67L730 25L728 153L730 276L730 525L718 554L715 580L732 586L768 573L780 558L778 536L779 514L779 388L777 295L777 259L791 284L811 324L850 400ZM330 47L328-64L329-111L326-140L322-159L316-170L307-162L300-149L292-130L286-119L282-105L281-79L281-57L282-31L280 28L282 123L282 356L233 349L194 344L162 336L143 334L123 339L108 345L98 352L93 364L105 369L120 374L157 376L245 388L282 395L282 499L271 513L275 527L286 533L303 527L314 522L323 514L331 503L331 473L328 478L330 429L329 405L354 410L372 410L385 407L406 392L413 376L397 371L374 368L339 365L329 363L328 297L330 173L330 47ZM478 32L478-87L476-114L476-150L467-173L451-162L438-143L426-119L428-100L428-76L427-56L429-16L429 129L427 207L429 271L424 289L421 303L424 306L407 301L390 301L397 314L414 330L478 375L525 412L590 471L625 505L639 527L640 543L636 553L617 566L630 571L646 571L663 564L676 558L689 545L698 529L698 518L691 508L677 495L652 467L618 435L577 400L543 377L483 337L460 323L433 309L457 305L472 296L483 280L480 264L479 244L476 222L476 100L478 32ZM575-90L546-132L509-166L500-168L502-154L514-127L536-89L570-30L598 27L557 91L531 129L529 138L520 130L505 124L505 138L523 165L537 189L562 231L585 268L599 296L613 327L618 349L621 363L613 378L614 391L634 384L653 374L664 361L669 350L660 325L647 298L611 237L571 178L548 154L539 146L564 125L599 87L615 66L638 130L646 153L652 194L649 221L644 233L664 233L681 222L693 212L704 203L699 175L694 160L684 127L667 86L642 28L670-20L683-46L702-89L707-128L707-157L693-164L684-160L667-124L642-67L620-17L605-48L575-90ZM144-113L139-98L139-9L128 50L117 78L109 97L101 107L97 110L87 106L74 108L82 123L110 145L155 182L189 215L201 237L202 263L192 287L210 284L227 272L237 263L248 244L251 223L224 193L192 166L141 132L111 117L133 95L153 63L166 27L175-5L179-26L204 4L222 28L235 52L245 60L255 75L261 66L255 43L246 16L236-2L226-23L213-46L201-71L183-99L171-115L153-119L144-113ZM451 537L461 530L475 513L487 507L547 543L490 427L480 417L469 420L456 440L447 472L439 504L438 522L440 537L441 533L451 537ZM852 619L810 618L634 599L537 585L445 574L364 562L191 536L171 532L149 530L129 534L111 539L87 549L77 559L65 570L79 577L118 580L154 583L270 599L402 614L641 645L802 668L859 677L878 677L894 673L910 665L927 654L941 641L952 631L958 619L952 612L938 610L918 614L899 616L874 621L852 619ZM712 787L707 775L675 747L631 718L603 696L574 674L531 651L518 645L513 641L513 649L529 669L554 699L603 747L626 778L616 797L587 814L599 819L632 821L666 816L687 809L703 798L712 787ZM316 763L319 771L334 771L345 764L368 746L391 734L403 739L477 777L431 695L420 677L408 655L408 654L392 645L377 648L366 661L357 671L348 691L337 709L322 740L319 750L316 763Z"/></svg>