<svg id="UF0052" viewBox="0 0 1024 1024"><path transform="translate(0, 921.6) scale(1,-1)" d="M173 646L185 702L182 736L165 770L191 768L209 759L227 745L249 724L239 684L222 625L195 552L162 467L132 398L106 348L160 268L192 213L219 283L244 382L248 427L240 453L224 482L249 481L269 472L292 458L308 446L311 424L296 361L273 286L243 206L224 159L250 105L276 57L296 10L313-48L326-91L330-132L320-160L304-153L285-118L266-68L249-21L226 38L200 98L191 75L122-50L74-125L44-158L29-165L30-149L40-124L76-49L131 62L172 161L140 231L93 321L92 319L55 279L36 270L42 296L85 392L127 498L148 564L173 646ZM449 389L462 408L540 471L580 500L639 547L698 595L757 650L805 700L841 747L809 738L740 723L652 706L607 697L586 699L559 700L541 703L514 725L517 735L533 741L549 744L599 750L635 754L717 767L784 778L822 786L844 794L862 804L886 789L904 770L911 747L904 734L857 682L817 639L766 588L657 498L587 452L559 437L566 437L584 435L612 419L622 398L616 384L616-72L615-94L616-119L615-135L613-157L606-165L589-157L578-144L565-126L560-109L554-89L553-74L556-54L557-32L560-5L560 371L553 405L543 425L545 429L512 411L480 394L449 389ZM840 381L829 379L829 235L839 237L935 257L951 260L966 251L982 237L995 219L984 204L947 204L918 201L869 194L829 190L829 113L830-43L831-82L832-120L832-140L827-156L820-169L804-155L791-140L782-124L776-109L774-92L776-64L774-28L776-2L774 27L776 106L774 183L721 172L688 168L670 170L652 175L633 183L622 191L620 198L635 207L657 213L695 216L754 223L774 226L774 369L715 360L701 356L681 356L667 359L651 365L639 373L638 386L651 395L681 399L775 413L776 491L771 537L762 561L766 574L771 575L783 576L800 573L826 555L835 528L829 511L829 475L830 437L830 423L853 428L897 439L913 439L929 431L944 418L959 401L945 390L925 390L886 385L840 381ZM370 744L361 776L358 789L363 806L385 806L406 794L427 777L432 756L425 722L425-18L427-67L426-109L425-141L419-163L411-180L396-161L377-130L367-112L366-93L370-62L368-26L370 8L370 744ZM635 384L638 389L638 386L635 384Z"/></svg>