<svg id="UF0071" viewBox="0 0 1024 1024"><path transform="translate(0, 921.6) scale(1,-1)" d="M149-103L115-131L86-146L62-148L61-139L77-123L112-85L168-26L242 63L271 106L266 114L217 182L162 248L151 238L116 214L82 201L94 229L114 251L146 284L181 325L216 369L257 431L278 473L294 513L295 524L294 530L201 516L147 509L134 505L113 508L97 514L78 525L70 537L82 544L104 550L118 551L214 565L376 594L392 596L411 601L434 587L451 574L467 558L459 546L439 545L412 545L387 543L322 534L325 531L341 514L351 500L350 488L333 459L299 404L244 328L198 283L177 263L210 240L282 167L299 147L319 177L347 222L364 270L364 295L355 318L374 316L394 308L406 294L420 282L426 274L424 254L402 218L377 172L348 129L333 106L359 75L400 19L428-26L448-64L460-106L461-131L447-141L430-128L302 62L254 2L209-45L149-103ZM826 747L821 760L825 765L833 761L855 754L866 743L875 738L886 724L888 712L881 702L872 687L871 685L910 691L922 688L936 679L954 661L962 644L953 638L915 639L870 640L839 635L824 612L806 591L785 557L761 534L752 532L751 533L752 538L759 562L780 607L790 630L756 628L644 610L651 561L654 530L650 516L640 520L628 541L613 591L607 604L578 600L545 591L529 591L510 598L492 606L484 620L495 629L554 640L591 645L582 667L579 675L559 699L539 704L535 707L555 716L574 718L591 721L606 715L617 710L631 706L625 704L630 689L637 657L637 652L681 658L707 698L732 740L752 769L748 775L738 774L707 768L672 761L633 755L613 748L589 752L576 756L564 761L556 779L563 788L579 793L622 796L681 806L737 816L764 824L774 828L786 826L799 817L813 801L819 787L808 771L795 757L777 734L765 718L747 692L722 664L787 674L812 677L823 703L827 722L826 747ZM854-127L849-148L842-161L827-165L817-151L808-130L802-118L804-89L802-57L803-20L804 25L803 98L801 174L801 214L794 232L799 235L767 227L730 220L626 205L627 190L628 117L627 25L627-82L626-113L623-141L615-157L611-156L597-145L580-124L574-111L577-95L576-73L580-52L578-32L578 19L580 112L580 177L575 225L577 239L587 248L611 253L626 247L626 242L738 263L776 271L789 275L798 277L811 280L826 274L844 263L857 249L860 239L858 239L858 235L854 227L852 206L852 184L851 139L851 120L854 52L854-14L856-54L854-81L856-105L854-127ZM593 320L570 323L554 334L539 348L548 357L576 362L633 371L752 387L795 394L816 454L825 489L745 478L705 470L630 459L605 455L586 454L572 457L554 466L543 476L546 484L564 496L621 500L742 518L830 533L849 541L866 532L879 517L886 502L879 491L867 467L834 399L835 399L851 396L865 393L868 384L874 368L864 356L835 350L815 349L689 333L613 324L593 320ZM341 699L273 689L222 681L192 678L160 670L144 672L132 679L114 689L107 702L116 709L137 714L146 715L224 730L344 750L370 757L387 756L411 744L427 733L434 714L422 705L405 705L371 703L341 699Z"/></svg>