<svg id="UF153" viewBox="0 0 1024 1024"><path transform="translate(0, 921.6) scale(1,-1)" d="M872-2L824 27L779 57L736 89L696 123L658 158L623 195L591 234L563 275L544 307L544-45L480-77L480 257L449 219L410 178L369 139L325 103L278 69L228 38L176 9L121-16L62-39L58-30L111 2L161 34L209 67L253 102L295 138L335 176L371 215L404 256L435 299L445 315L66 315L66 337L480 337L480 707L136 707L136 729L480 729L480 863L544 853L560 842L544 832L544 729L770 729L824 783L888 729L888 707L544 707L544 337L845 337L899 390L964 337L964 315L555 315L615 255L651 223L688 191L727 162L768 133L811 106L903 58L982 21L922-28L872-2ZM695 686L759 675L775 664L759 655L759 535L786 535L840 589L904 535L904 514L759 514L759 380L695 347L695 514L566 514L566 535L695 535L695 686ZM254 686L318 675L335 664L318 655L318 535L335 535L388 589L453 535L453 514L318 514L318 380L254 347L254 514L114 514L114 535L254 535L254 686Z"/></svg>