<svg id="UF158" viewBox="0 0 1024 1024"><path transform="translate(0, 921.6) scale(1,-1)" d="M910 868L911 862L971 812L973 796L949 809L837 793L669 773L542 760L542 627L835 627L888 681L953 627L953 605L542 605L542-46L482-76L482 605L71 605L71 627L482 627L482 755L321 742L231 737L141 732L50 730L49 739L577 814L828 854L910 868ZM376 540L430 492L430 470L296 470L289 460L269 434L246 410L238 403L237 402L338 402L371 429L430 381L403 359L403 58L338 26L338 90L185 90L185 26L121-6L121 434L185 402L220 402L220 403L222 413L224 423L225 433L228 443L232 470L94 470L94 492L332 492L376 540ZM860 540L914 492L914 470L780 470L773 460L753 434L730 410L722 403L721 402L822 402L854 429L914 381L887 359L887 58L822 26L822 90L666 90L666 26L607-4L607 432L666 402L704 402L704 403L706 413L708 423L709 433L711 443L716 470L578 470L578 492L816 492L860 540ZM822 240L666 240L666 112L822 112L822 240ZM338 240L185 240L185 112L338 112L338 240ZM822 381L666 381L666 261L822 261L822 381ZM338 381L185 381L185 261L338 261L338 381Z"/></svg>