<svg id="UF1B7" viewBox="0 0 1024 1024"><path transform="translate(0, 921.6) scale(1,-1)" d="M620-18L620-2L727-2L733-2L738-1L743 1L745 3L747 8L748 13L749 19L749 159L270 159L270-34L206-67L206 159L55 159L55 181L206 181L206 621L270 589L480 589L480 799L71 799L71 820L829 820L883 874L947 820L947 799L544 799L544 589L749 589L781 616L840 568L813 546L813 181L856 181L910 234L974 181L974 159L813 159L813 19L812 6L810-8L806-20L799-33L790-44L779-52L767-59L754-63L740-66L727-67L727-34L620-18ZM480 363L270 363L270 181L480 181L480 363ZM749 363L544 363L544 181L749 181L749 363ZM480 568L270 568L270 385L480 385L480 568ZM749 568L544 568L544 385L749 385L749 568ZM880 602L832 630L807 643L751 669L689 695L586 734L588 744L627 740L663 735L699 728L733 721L766 712L797 703L857 682L911 658L926 638L924 614L904 599L880 602ZM410 765L421 747L452 714L452 696L433 704L413 694L381 680L348 666L314 654L279 642L206 624L168 616L129 610L88 606L86 616L230 671L295 700L355 732L383 748L406 762L410 765Z"/></svg>