<svg id="UF2C9" viewBox="0 0 1024 1024"><path transform="translate(0, 921.6) scale(1,-1)" d="M544 138L544-40L480-72L480 138L66 138L66 159L318 159L318 315L125 315L125 337L318 337L318 492L259 492L259 428L195 396L195 842L259 810L765 810L797 837L856 788L829 767L829 460L765 428L765 492L706 492L706 337L781 337L835 390L899 337L899 315L706 315L706 159L840 159L894 213L958 159L958 138L544 138ZM480 315L383 315L383 159L480 159L480 315ZM641 315L544 315L544 159L641 159L641 315ZM480 492L383 492L383 337L480 337L480 492ZM641 492L544 492L544 337L641 337L641 492ZM480 638L259 638L259 514L480 514L480 638ZM765 638L544 638L544 514L765 514L765 638ZM480 788L259 788L259 659L480 659L480 788ZM765 788L544 788L544 659L765 659L765 788Z"/></svg>