<svg id="UF393" viewBox="0 0 1024 1024"><path transform="translate(0, 921.6) scale(1,-1)" d="M922-17L921 1L918 19L915 39L914 46L858 24L707-23L592-53L576-57L568-76L554-62L531-1L580 8L605 11L802 280L915 446L920 454L971 413L978 395L958 396L875 291L806 208L730 122L647 35L626 15L735 33L851 53L891 58L911 60L906 81L899 104L883 154L874 180L882 184L915 140L929 118L952 74L961 53L969 32L976 12L982-9L986-28L978-52L956-63L933-55L922-33L922-17ZM438-17L437 1L435 19L432 39L430 46L376 24L227-23L114-53L98-57L90-76L76-62L53-1L101 8L126 11L350 324L437 454L487 413L494 396L475 397L393 291L324 208L210 79L147 15L369 53L408 58L427 60L422 82L400 154L391 180L400 184L432 140L458 96L468 74L478 53L486 32L493 11L498-9L502-28L494-52L472-63L449-55L438-33L438-17ZM676 241L666 261L655 280L628 318L612 338L555 397L533 418L538 426L566 413L592 399L615 384L693 514L718 560L738 600L746 618L748 622L270 622L322 588L331 571L310 570L282 531L250 488L211 443L165 395L146 377L160 367L181 349L200 331L218 312L234 292L249 271L262 251L263 226L247 208L222 206L204 223L196 242L186 261L163 299L132 338L96 377L55 418L60 426L88 413L114 399L136 385L225 538L248 580L267 622L39 622L39 644L578 644L676 780L717 845L729 865L732 869L783 829L790 811L770 812L715 749L674 708L630 668L599 644L867 644L921 697L985 644L985 622L752 622L803 588L813 571L791 570L747 510L690 443L644 395L625 377L660 349L698 312L729 272L742 251L743 226L728 208L703 206L684 223L676 241ZM325 697L319 710L311 724L301 739L277 771L231 825L212 845L218 852L264 825L303 798L337 771L365 743L377 729L387 714L389 690L374 671L350 669L330 684L325 697Z"/></svg>