<svg id="UF336" viewBox="0 0 1024 1024"><path transform="translate(0, 921.6) scale(1,-1)" d="M787-32L778-41L768-49L758-57L746-63L735-68L723-72L710-75L697-76L684-77L684-45L577-29L577-13L684-13L692-12L699-11L712-8L718-5L724-2L729 2L734 6L739 11L744 17L751 29L759 47L765 72L772 103L777 140L781 183L784 232L786 286L786 346L786 401L270 401L270 337L206 304L206 869L270 858L286 847L270 838L270 423L786 423L818 449L878 401L851 385L850 385L851 346L850 285L849 229L845 178L841 133L835 92L828 57L820 27L809 1L796-22L787-32Z"/></svg>