<svg id="UF34E" viewBox="0 0 1024 1024"><path transform="translate(0, 921.6) scale(1,-1)" d="M593 863L657 853L673 842L657 832L657 636L829 636L861 663L920 614L893 593L893 274L829 242L829 306L657 306L657-40L593-72L593 306L412 306L408 275L394 210L374 149L349 96L318 47L282 6L241-29L194-56L143-76L139-67L184-39L222-6L256 30L285 70L309 116L328 166L342 222L351 283L353 306L195 306L195 242L130 210L130 668L195 636L356 636L356 863L421 853L437 842L421 832L421 636L593 636L593 863ZM356 614L195 614L195 328L354 328L356 350L356 614ZM420 422L417 346L415 328L593 328L593 614L421 614L421 423L420 422ZM829 614L657 614L657 328L829 328L829 614Z"/></svg>