<svg id="UF307" viewBox="0 0 1024 1024"><path transform="translate(0, 921.6) scale(1,-1)" d="M651 190L651 206L758 206L765 206L770 208L774 209L776 211L778 216L779 221L780 227L780 519L534 519L534 49L535 45L536 41L536 39L537 38L538 38L540 37L543 35L548 35L555 34L921 34L953 169L964 169L953 34L972 22L985 2L972-17L953-30L555-30L541-30L528-27L515-23L502-16L492-7L483 4L476 16L472 28L470 42L469 56L469 519L223 519L223 181L158 148L158 573L223 540L469 540L469 686L50 686L50 707L469 707L469 860L534 849L550 839L534 829L534 707L856 707L910 761L974 707L974 686L534 686L534 540L780 540L812 567L871 519L844 497L844 227L843 214L841 201L837 188L830 175L821 165L810 156L798 149L785 145L772 142L758 141L758 174L651 190Z"/></svg>