<svg id="UF445" viewBox="0 0 1024 1024"><path transform="translate(0, 921.6) scale(1,-1)" d="M769 867L770 860L827 813L829 797L805 809L782 804L667 785L608 777L549 769L544 769L544 654L851 654L904 707L969 654L969 632L544 632L544 517L790 517L822 544L881 496L854 474L854 134L790 102L790 167L544 167L544-40L480-72L480 167L234 167L234 102L169 70L169 549L234 517L480 517L480 632L55 632L55 654L480 654L480 762L427 757L365 752L302 748L238 746L173 746L173 755L299 777L422 797L599 830L713 854L769 867ZM480 336L234 336L234 188L480 188L480 336ZM790 336L544 336L544 188L790 188L790 336ZM480 496L234 496L234 358L480 358L480 496ZM790 496L544 496L544 358L790 358L790 496Z"/></svg>