<svg id="UF45C" viewBox="0 0 1024 1024"><path transform="translate(0, 921.6) scale(1,-1)" d="M515 216L495 245L472 272L448 298L422 322L422-46L358-78L358 259L328 203L304 166L280 131L254 98L227 69L197 42L190 48L251 150L287 224L303 262L319 303L334 346L358 431L358 432L207 432L207 454L358 454L358 647L422 636L438 625L422 616L422 454L450 454L504 507L568 454L568 432L422 432L422 346L434 342L451 335L469 327L486 318L519 296L550 270L565 256L572 233L560 211L537 204L515 216ZM903 79L878 114L855 150L834 188L816 226L800 267L787 308L783 322L783-46L719-78L719 303L690 247L665 206L638 167L609 130L578 96L544 65L509 38L502 45L530 79L580 151L604 189L625 228L646 270L665 314L682 359L697 406L706 436L590 436L590 457L719 457L719 651L783 640L800 630L783 620L783 457L847 457L901 511L965 457L965 436L783 436L783 419L807 360L823 321L842 284L861 249L882 215L904 183L929 152L954 123L988 88L931 46L903 79ZM117 741L181 709L493 709L493 869L557 859L573 848L557 838L557 709L851 709L905 763L969 709L969 688L181 688L181 398L178 331L173 268L166 210L156 155L143 106L128 61L111 20L91-16L67-46L41-70L34-63L50-34L65-2L78 33L89 73L99 117L107 164L112 216L116 273L117 333L117 398L117 741Z"/></svg>