<svg id="UF5D5" viewBox="0 0 1024 1024"><path transform="translate(0, 921.6) scale(1,-1)" d="M873 43L824 70L779 100L736 133L695 168L657 207L622 248L590 292L561 340L544 376L544-47L480-79L480 321L451 282L412 237L370 194L325 155L277 120L225 88L170 59L113 34L51 15L48 23L103 53L157 84L206 118L252 153L295 190L335 230L372 271L404 316L435 363L448 387L71 387L71 408L480 408L480 577L544 566L560 555L544 546L544 408L835 408L888 462L953 408L953 387L552 387L615 312L651 274L689 239L728 206L768 177L811 150L855 126L901 104L985 71L923 19L873 43ZM874 507L826 531L779 559L734 588L690 621L648 656L608 694L570 734L534 778L522 794L506 773L464 726L419 681L372 639L322 600L270 565L215 532L158 503L98 478L35 457L31 466L89 497L144 529L196 563L246 598L294 637L339 676L381 719L421 764L458 811L490 856L495 864L546 824L553 806L535 807L592 757L634 723L677 691L720 661L764 634L808 610L854 588L901 569L986 538L924 485L874 507Z"/></svg>