<svg id="UF562" viewBox="0 0 1024 1024"><path transform="translate(0, 921.6) scale(1,-1)" d="M672 340L673 340L665 279L652 223L635 169L613 120L586 75L556 34L521-2L481-34L438-60L391-82L386-73L427-43L463-11L495 23L523 59L547 98L567 141L584 187L596 236L604 288L609 345L609 863L673 853L689 842L673 832L673 342L672 340ZM384 311L360 320L351 343L360 366L377 382L392 400L404 419L415 441L424 464L431 490L435 518L438 548L439 581L438 616L447 618L459 583L467 549L471 517L471 485L468 454L463 425L453 396L441 369L425 344L406 320L384 311Z"/></svg>