<svg id="UF591" viewBox="0 0 1024 1024"><path transform="translate(0, 921.6) scale(1,-1)" d="M347 756L636 756L640 762L642 761L668 783L727 734L700 718L682 711L653 676L637 660L621 644L586 614L566 600L557 595L813 595L867 648L931 595L931 573L254 573L254 337L253 335L248 281L239 230L228 181L213 134L194 91L172 51L148 14L119-20L87-49L52-75L46-68L73-35L96-2L118 33L136 70L152 109L165 150L175 194L182 239L187 288L189 338L189 586L143 552L101 527L57 505L52 513L125 575L159 607L191 640L220 674L248 709L273 745L295 783L316 821L334 860L338 868L393 834L403 818L383 816L370 792L347 756ZM626 734L331 734L316 713L286 677L254 643L220 611L254 595L530 595L588 673L611 708L626 734Z"/></svg>