<svg id="UF69F" viewBox="0 0 1024 1024"><path transform="translate(0, 921.6) scale(1,-1)" d="M278 715L306 785L311 797L367 766L378 749L358 747L329 690L285 613L261 575L207 499L178 461L146 424L125 401L362 401L484 599L544 716L580 798L636 765L646 749L626 746L595 689L549 613L495 537L434 461L401 424L378 401L626 401L727 560L750 599L791 677L809 715L840 790L843 797L900 766L910 749L890 747L861 689L815 613L761 537L699 461L665 424L642 401L856 401L910 455L974 401L974 380L651 380L673 366L711 337L746 304L779 268L808 230L835 189L858 145L879 99L896 51L911-1L906-25L886-39L862-34L847-15L837 33L824 80L809 123L790 165L770 205L746 244L720 281L691 316L660 350L630 380L387 380L410 366L448 337L484 304L517 268L547 230L574 189L599 146L621 99L640 51L657 1L653-24L634-39L610-35L595-16L582 32L568 78L551 123L531 165L509 205L485 244L458 281L428 316L396 350L366 380L133 380L154 365L191 336L224 303L255 268L284 230L310 189L335 146L356 99L376 52L393 1L390-24L371-39L346-35L331-17L318 32L303 78L286 123L266 165L245 205L222 244L196 281L170 316L113 380L50 380L50 401L109 401L222 598L278 715Z"/></svg>