<svg id="UF684" viewBox="0 0 1024 1024"><path transform="translate(0, 921.6) scale(1,-1)" d="M864-46L813-20L706 27L592 70L573 77L514 39L444 5L365-21L279-40L185-52L83-56L82-47L182-32L273-12L355 13L427 42L490 78L516 96L305 160L254 97L205 138L252 197L318 292L330 310L50 310L50 331L343 331L379 394L415 464L418 471L473 437L483 420L464 419L418 331L855 331L909 385L973 331L973 310L737 310L711 244L675 182L630 127L613 112L725 77L837 35L891 12L907-6L907-31L888-47L864-46ZM669 310L405 310L373 257L328 190L315 173L348 169L415 158L480 145L544 130L554 127L590 163L627 213L656 269L669 310ZM209 845L273 812L750 812L782 839L842 791L815 769L815 449L750 417L750 481L273 481L273 417L209 384L209 845ZM750 641L273 641L273 503L750 503L750 641ZM750 791L273 791L273 662L750 662L750 791Z"/></svg>