<svg id="UF64A" viewBox="0 0 1024 1024"><path transform="translate(0, 921.6) scale(1,-1)" d="M73 95L37 149L88 170L155 203L257 261L257 552L55 552L55 573L257 573L257 869L316 858L330 847L316 838L316-35L257-65L257 233L224 202L180 165L137 133L94 106L93 106L89 84L73 95ZM382 784L442 754L598 754L628 781L684 733L657 714L657 27L598-3L598 59L442 59L442-5L382-35L382 784ZM933 66L965 200L976 200L965 66L985 53L997 33L985 14L965 1L806 1L792 2L779 5L766 10L754 16L744 25L736 36L729 48L725 61L723 74L723 87L723 871L782 860L797 849L782 840L782 477L839 539L875 584L910 636L928 664L930 668L981 628L989 610L968 611L938 574L894 527L849 488L826 471L803 457L782 447L782 87L782 81L783 75L786 70L788 69L791 67L794 67L800 66L806 66L933 66ZM598 733L442 733L442 81L598 81L598 733Z"/></svg>