<svg id="UF662" viewBox="0 0 1024 1024"><path transform="translate(0, 921.6) scale(1,-1)" d="M729-24L729-8L836-8L843-7L847-6L852-4L854-2L856 3L857 8L858 14L858 863L922 853L938 842L922 832L922 14L921 1L919-13L915-26L908-38L899-49L888-58L876-65L863-69L850-71L836-72L836-40L729-24ZM94 277L158 245L424 245L457 272L516 224L489 202L489-8L424-40L424 25L158 25L158-40L94-72L94 277ZM424 224L158 224L158 46L424 46L424 224ZM630 783L695 772L711 761L695 752L695 138L630 105L630 783ZM423 433L487 380L487 358L95 358L95 380L369 380L423 433ZM423 568L487 514L487 492L95 492L95 514L369 514L423 568ZM478 713L543 659L543 638L40 638L40 659L424 659L478 713ZM429 847L494 793L494 772L89 772L89 793L375 793L429 847Z"/></svg>