<svg id="UF681" viewBox="0 0 1024 1024"><path transform="translate(0, 921.6) scale(1,-1)" d="M861-46L810-19L761 12L716 50L674 92L636 139L600 192L567 249L539 311L534 326L527 293L501 219L466 153L422 95L368 44L305 2L234-33L154-59L66-76L65-67L148-39L222-6L286 32L341 75L387 124L423 179L451 240L471 307L482 380L485 460L485 643L93 643L93 664L485 664L485 863L550 853L566 842L550 832L550 664L818 664L872 718L937 664L937 643L550 643L550 460L543 373L540 355L559 321L595 265L632 214L670 168L710 127L752 92L795 61L840 36L887 16L978-13L915-68L861-46ZM374 332L365 361L353 390L339 420L322 449L315 439L299 420L259 381L211 344L184 325L154 307L122 290L116 298L209 392L243 433L256 453L267 472L277 490L283 504L251 544L191 609L196 617L235 591L271 564L303 536L332 507L358 477L381 446L401 415L418 383L432 350L443 317L438 292L418 278L394 283L380 303L374 332ZM847 332L838 361L826 390L812 420L794 451L794 452L786 440L753 402L735 382L713 363L690 344L664 325L637 308L606 290L600 298L666 370L684 391L715 433L727 452L737 470L745 488L751 505L758 502L724 544L664 609L670 617L708 591L744 564L776 536L806 507L831 477L854 446L874 415L892 383L906 350L916 317L911 292L892 278L867 283L853 303L847 332Z"/></svg>