<svg id="UF9ED" viewBox="0 0 1024 1024"><path transform="translate(0, 921.6) scale(1,-1)" d="M815 325L732 348L656 374L586 405L523 440L513 447L492 434L420 398L342 366L257 338L246 335L295 310L729 310L761 337L821 289L794 267L794-8L729-40L729 25L295 25L295-40L230-72L230 331L165 313L66 295L65 304L159 333L247 364L328 398L402 434L468 474L471 476L416 523L373 571L338 623L320 659L286 619L259 589L235 566L236 544L218 550L171 597L242 640L329 698L334 702L73 702L73 723L480 723L480 876L544 865L560 854L544 845L544 723L832 723L886 777L951 723L951 702L716 702L752 676L761 659L740 659L714 620L668 567L616 519L561 478L609 455L677 430L750 409L829 391L968 369L904 307L815 325ZM729 289L295 289L295 46L729 46L729 289ZM692 702L352 702L329 671L356 636L396 592L442 552L492 516L513 504L528 515L580 560L626 606L664 656L692 702Z"/></svg>