<svg id="UF953" viewBox="0 0 1024 1024"><path transform="translate(0, 921.6) scale(1,-1)" d="M867-12L858-22L849-31L838-39L828-46L816-52L803-56L791-59L778-60L765-61L765-29L679-13L679 3L765 3L772 4L779 5L792 8L797 11L802 14L807 18L811 22L816 27L821 34L830 53L840 81L850 117L858 161L865 213L870 273L875 341L878 416L880 499L881 578L717 578L713 495L702 401L685 314L662 235L632 163L596 99L554 42L506-6L451-45L391-76L386-68L439-28L486 15L526 65L561 120L590 182L614 251L632 326L645 409L652 498L653 578L477 578L477 600L653 600L653 842L718 831L734 820L718 811L718 600L881 600L913 627L972 578L945 562L945 498L943 414L939 338L935 268L929 206L921 151L913 103L902 62L889 27L874-2L867-12ZM108 853L172 820L343 820L375 847L435 799L408 777L408 19L407 6L404-8L400-20L394-33L385-44L374-52L361-59L349-63L335-66L322-67L322-34L225-18L225-2L322-2L328-2L333-1L338 1L340 3L341 5L342 8L343 13L343 19L343 326L172 326L172 304L170 247L165 193L158 143L150 98L139 57L125 20L110-11L92-38L72-60L49-75L43-68L56-47L67-24L78 3L87 34L94 68L101 107L105 150L108 197L109 248L108 304L108 853ZM343 568L172 568L172 347L343 347L343 568ZM343 799L172 799L172 589L343 589L343 799Z"/></svg>