<svg id="UF913" viewBox="0 0 1024 1024"><path transform="translate(0, 921.6) scale(1,-1)" d="M816-53L691-54L580-49L484-39L402-24L334-3L280 24L241 57L220 96L219 101L216 100L192 63L154 16L112-28L114-51L95-45L46-2L55 5L173 88L173 353L60 353L60 374L173 374L206 401L265 353L238 331L238 111L240 105L264 80L299 58L348 40L412 25L490 16L584 10L691 10L814 14L950 23L1009 27L955-48L816-53ZM682 104L682 67L618 34L618 451L595 430L572 412L549 396L542 404L603 494L617 517L618 519L618 540L627 536L654 590L678 649L734 617L745 600L724 598L705 563L672 514L671 514L682 508L780 508L784 516L797 547L809 576L825 614L829 626L832 632L836 641L889 603L897 586L873 586L832 542L808 519L795 508L851 508L904 562L969 508L969 487L832 487L832 387L863 387L907 435L961 387L961 366L832 366L832 263L863 263L907 312L961 263L961 242L832 242L832 126L867 126L921 180L985 126L985 104L682 104ZM521 314L520 326L516 339L493 330L469 321L465 320L465 84L400 52L400 243L381 235L375 218L368 200L359 182L350 165L338 148L327 132L313 116L284 85L275 91L285 110L300 147L311 182L315 199L318 216L321 232L323 249L323 265L325 276L387 256L400 245L400 303L371 296L317 285L307 266L294 281L277 345L288 346L314 346L338 347L354 348L460 502L505 571L511 579L560 538L567 519L547 521L482 446L418 380L395 359L385 350L388 351L414 352L487 356L511 357L507 369L495 391L482 414L472 423L478 431L490 424L503 418L515 410L527 402L538 393L548 383L567 361L575 348L582 335L580 310L561 294L537 296L521 314ZM767 242L682 242L682 126L767 126L767 242ZM517 171L515 184L513 196L509 208L501 231L490 254L484 266L475 276L481 283L493 275L506 268L517 260L529 251L549 229L566 204L574 190L580 176L577 152L558 137L533 140L518 159L517 171ZM767 366L682 366L682 263L767 263L767 366ZM767 487L682 487L682 387L767 387L767 487ZM350 447L346 456L342 466L337 475L331 485L324 495L315 505L295 526L282 534L286 543L301 537L316 533L331 527L345 521L350 518L352 521L359 537L395 609L413 646L412 646L418 655L470 616L478 598L455 599L425 568L389 533L363 512L361 511L381 497L392 488L401 477L410 465L411 441L395 423L370 421L352 438L350 447ZM159 506L146 530L130 552L113 574L92 596L79 604L83 613L98 607L114 603L129 597L143 590L157 582L171 573L184 563L207 541L218 529L222 505L209 484L185 481L164 494L159 506ZM384 667L384 651L320 619L320 869L384 837L876 837L908 863L967 815L940 793L940 667L876 635L876 667L384 667ZM187 699L182 712L178 724L172 737L158 761L132 798L121 808L127 816L141 808L156 802L170 793L196 775L208 764L219 753L240 728L249 714L250 690L234 671L209 671L191 687L187 699ZM505 815L384 815L384 689L505 689L505 815ZM690 815L570 815L570 689L690 689L690 815ZM876 815L755 815L755 689L876 689L876 815Z"/></svg>