<svg id="UF9F2" viewBox="0 0 1024 1024"><path transform="translate(0, 921.6) scale(1,-1)" d="M641 73L641 95L714 95L714 278L695 267L687 263L679 233L660 183L639 136L614 93L587 54L557 18L523-13L487-41L448-63L407-82L402-73L437-46L469-18L499 12L525 45L550 80L571 118L581 139L573 129L549 127L529 142L529 148L527 154L525 161L522 169L514 184L502 202L500 205L471 169L448 146L424 124L417 130L461 213L475 240L499 294L509 321L518 349L526 377L532 400L531 400L536 414L595 387L608 373L588 367L572 328L560 304L630 304L663 331L714 289L714 312L773 283L826 283L826 401L886 390L900 380L886 370L886 283L918 283L942 315L974 283L974 261L886 261L886 95L914 95L947 132L990 95L990 73L886 73L886-52L826-81L826 73L641 73ZM80-78L56-75L42-54L46-30L55-19L63-6L70 8L78 25L91 64L96 87L107 137L111 165L121 165L124 136L127 109L128 83L128 58L127 35L124 12L120-9L115-28L108-47L100-65L80-78ZM280 19L279 33L277 47L274 62L271 76L262 104L250 133L241 147L248 153L260 142L274 132L286 120L297 107L317 78L325 63L332 47L339 31L344 13L337-11L316-23L292-17L280 4L280 19ZM224-38L201-45L179-33L172-10L177 16L179 29L180 59L179 75L178 92L176 110L174 128L170 147L179 151L188 133L198 117L206 100L214 83L220 67L225 50L229 33L232 17L235 1L236-16L224-38ZM383 44L380 58L376 72L366 97L360 110L346 134L338 147L328 158L334 166L347 158L361 150L374 141L387 131L399 120L421 95L430 81L447 51L445 26L427 10L402 12L386 30L383 44ZM826 261L773 261L773 95L826 95L826 261ZM627 283L549 283L528 246L510 219L509 218L524 213L535 209L544 204L562 194L579 181L586 173L588 154L606 203L620 250L627 283ZM154 229L95 199L95 585L73 557L51 533L43 538L106 688L129 753L141 787L164 866L223 838L235 823L215 818L194 767L192 761L295 761L327 788L386 740L359 724L345 718L323 685L298 654L267 621L250 605L240 595L345 595L374 621L431 573L404 554L404 229L345 199L345 229L154 229ZM223 401L154 401L154 251L223 251L223 401ZM345 401L277 401L277 251L345 251L345 401ZM925 419L878 451L835 487L794 526L775 548L757 570L741 594L732 609L732 390L668 358L668 569L636 535L611 512L585 490L556 470L525 451L493 433L459 417L423 403L418 411L505 480L554 525L577 548L615 595L629 616L442 616L442 638L668 638L668 853L732 842L749 831L732 821L732 638L856 638L910 691L974 638L974 616L748 616L824 560L868 530L913 504L985 467L925 419ZM223 573L154 573L154 423L223 423L223 573ZM345 573L277 573L277 423L345 423L345 573ZM292 740L182 740L164 700L130 639L115 614L154 595L225 595L237 614L259 656L282 708L288 723L292 737L292 740ZM861 827L913 788L920 770L897 771L877 748L851 722L824 697L779 661L772 668L782 684L843 793L858 823L861 827ZM557 688L554 699L546 721L540 733L527 756L509 780L499 792L487 803L492 811L507 803L522 797L537 789L564 771L576 761L587 750L597 739L607 727L616 714L616 689L599 671L574 671L557 688Z"/></svg>