<svg id="UF97B" viewBox="0 0 1024 1024"><path transform="translate(0, 921.6) scale(1,-1)" d="M331 239L323 255L304 289L282 323L259 354L259-34L195-67L195 298L185 268L167 224L147 182L125 142L102 104L75 70L48 38L39 44L77 119L94 158L110 198L124 240L137 284L149 329L159 376L168 425L172 460L48 460L48 482L195 482L195 863L259 853L275 842L259 832L259 482L305 482L349 530L369 512L902 512L936 550L979 512L979 491L393 491L403 482L403 460L259 460L259 386L274 376L293 362L327 333L342 318L357 303L383 270L395 254L397 229L382 210L358 208L338 223L331 239ZM368-39L368-18L643-18L643 72L427 72L427 93L643 93L643 176L507 176L507 160L442 127L442 450L507 418L843 418L875 445L935 396L908 375L908 165L843 133L843 176L707 176L707 93L825 93L869 141L923 93L923 72L707 72L707-18L863-18L917 36L981-18L981-39L368-39ZM643 286L507 286L507 197L643 197L643 286ZM843 286L707 286L707 197L843 197L843 286ZM643 396L507 396L507 308L643 308L643 396ZM843 396L707 396L707 308L843 308L843 396ZM336 791L395 763L407 747L387 742L368 702L335 635L308 588L277 539L268 543L291 625L312 698L329 762L333 777L332 777L336 791ZM114 585L113 603L110 621L107 640L98 682L81 751L74 776L82 780L110 737L123 716L152 654L160 635L174 597L179 578L173 554L152 541L128 547L115 568L114 585ZM441 840L506 807L840 807L873 834L932 786L905 764L905 585L840 553L840 585L506 585L441 553L441 840ZM840 689L506 689L506 606L840 606L840 689ZM840 786L506 786L506 710L840 710L840 786Z"/></svg>