<svg id="UFA72" viewBox="0 0 1024 1024"><path transform="translate(0, 921.6) scale(1,-1)" d="M77-24L77-2L480-2L480 218L206 218L206 240L480 240L480 444L270 444L270 466L636 466L689 519L754 466L754 444L544 444L544 240L700 240L754 294L818 240L818 218L544 218L544-2L829-2L883 52L947-2L947-24L77-24ZM872 436L823 466L776 499L731 536L688 576L646 619L606 665L568 714L532 768L521 787L508 766L466 706L421 650L374 598L324 550L272 505L216 464L159 427L99 394L36 366L31 375L88 412L143 451L195 492L245 536L292 582L337 632L379 684L420 740L457 799L492 861L495 866L548 829L557 812L537 811L532 803L593 734L635 691L678 650L721 613L766 579L811 548L857 520L903 496L983 460L922 409L872 436Z"/></svg>