<svg id="UFA37" viewBox="0 0 1000 1000"><path transform="translate(0, 900) scale(1,-1)" d="M454 480L608 480L608 384L454 384ZM678 480L840 480L840 384L678 384ZM475 840L475 761L341 761L341 701L475 701L475 581L608 581L608 533L385 533L385 331L608 331L608 276L381 276L381 217L605 217C603 195 599 174 592 154L331 154L331 96L560 96C519 44 445 1 309-23C324-38 343-66 351-81C517-43 601 20 642 96L645 96C700 3 797-56 927-83C936-63 956-36 972-22C859-4 771 34 719 96L960 96L960 154L664 154C670 174 674 196 676 217L914 217L914 276L678 276L678 331L910 331L910 533L678 533L678 581L815 581L815 701L955 701L955 761L815 761L815 840L743 840L743 761L545 761L545 840ZM743 701L743 633L545 633L545 701ZM75 735L75 117L139 117L139 200L326 200L326 735ZM139 667L260 667L260 268L139 268Z"/></svg>