<svg id="UFA05" viewBox="0 0 1024 1024"><path transform="translate(0, 921.6) scale(1,-1)" d="M776-13L776 3L873 3L880 4L885 5L889 6L892 9L893 10L894 13L894 18L895 25L895 777L424 777L424-34L360-67L360 831L424 799L895 799L927 826L986 777L959 756L959 25L958 11L956-2L952-15L945-27L936-38L925-47L913-54L900-58L887-60L873-61L873-29L776-13ZM188-58L165-66L143-55L135-32L138 6L139 41L136 72L131 100L124 125L118 140L115 140L116 143L114 147L102 167L86 185L67 202L45 218L48 227L77 220L103 209L127 192L133 186L257 445L327 581L336 577L207 225L186 161L180 139L178 125L174 126L179 115L189 82L196 46L200 6L200-37L188-58ZM522 496L587 463L732 463L765 490L824 442L797 420L797 151L732 119L732 183L587 183L587 119L522 87L522 496ZM732 442L587 442L587 205L732 205L732 442ZM143 481L137 491L131 502L113 524L87 546L72 557L56 568L37 578L40 587L61 582L82 577L101 571L119 565L136 557L152 548L167 538L180 527L193 514L203 501L206 476L190 457L166 455L146 470L143 481ZM776 675L841 621L841 600L478 600L478 621L723 621L776 675ZM215 727L209 738L202 749L184 771L160 793L131 816L113 825L117 834L136 828L156 824L174 819L192 812L223 795L238 785L251 774L264 762L274 749L278 724L263 705L239 702L219 716L215 727Z"/></svg>