<svg id="UFACA" viewBox="0 0 1024 1024"><path transform="translate(0, 921.6) scale(1,-1)" d="M254 179L318 147L706 147L738 174L797 125L770 104L770-55L706-87L706-44L318-44L318-60L254-92L254 179ZM706 44L318 44L318-23L706-23L706 44ZM706 125L318 125L318 65L706 65L706 125ZM366 226L363 234L358 244L352 253L343 263L322 283L295 304L279 313L282 322L301 317L319 313L336 308L352 302L367 295L381 288L394 279L406 269L416 259L426 247L427 222L416 209L577 209L657 280L682 304L700 325L700 326L136 326L136 347L480 347L480 421L544 410L560 399L544 390L544 347L770 347L824 401L888 347L888 326L715 326L751 287L754 268L731 274L699 255L663 236L622 216L605 209L877 209L921 258L974 209L974 188L50 188L50 209L379 209L368 218L366 226ZM759 834L904 834L909 840L910 839L937 861L996 813L969 797L949 789L942 780L902 737L870 709L825 673L861 667L897 653L925 635L948 616L964 594L975 573L981 552L983 532L982 514L976 497L923 532L925 535L926 545L925 557L921 572L913 589L900 606L880 625L852 645L815 666L808 672L822 691L878 780L895 811L896 813L759 813L759 403L695 370L695 867L759 834ZM37 583L47 585L92 589L112 591L185 682L229 745L254 785L257 789L308 749L315 731L294 732L257 690L218 651L151 593L207 597L231 598L254 598L257 598L264 621L270 662L332 642L346 629L326 621L322 605L308 570L289 537L265 506L237 478L206 453L169 430L129 409L85 391L36 376L32 385L76 410L115 434L150 459L180 484L205 511L226 537L243 564L248 577L213 565L146 545L80 527L71 507L58 521L37 583ZM595 452L588 462L581 473L567 490L526 475L429 445L368 428L303 411L295 392L281 405L258 467L269 469L367 483L367 853L431 821L560 821L593 848L652 799L625 778L625 627L560 595L560 627L431 627L431 491L452 495L520 503L552 507L514 545L498 556L503 565L521 557L539 551L572 535L615 511L628 502L651 483L657 459L645 438L622 431L600 442L595 452ZM813 485L813 502L867 502L881 503L887 504L893 506L899 509L903 512L908 516L913 520L917 526L922 532L976 497L960 476L951 467L940 459L930 453L918 447L906 442L893 439L880 438L867 437L867 469L813 485ZM560 716L431 716L431 649L560 649L560 716ZM110 687L109 694L107 700L103 709L97 717L90 726L72 745L60 754L46 762L50 771L65 766L81 762L95 758L102 756L157 826L184 864L188 872L188 873L193 879L241 835L246 816L223 820L189 793L146 764L130 755L118 749L134 741L144 733L154 725L163 714L171 703L170 679L152 662L127 663L110 681L110 687ZM560 799L431 799L431 738L560 738L560 799Z"/></svg>