<svg id="UFA55" viewBox="0 0 1000 1000"><path transform="translate(0, 900) scale(1,-1)" d="M595 371C666 348 754 310 799 280L843 333C795 362 706 398 638 419ZM458 422C454 369 448 320 438 277L56 277L56 207L416 207C369 97 270 26 41-12C56-29 74-59 80-78C342-30 450 63 500 207C567 40 695-46 912-80C922-57 944-24 960-7C763 15 639 82 575 207L945 207L945 277L518 277C528 321 534 370 538 422ZM78 745L78 565L153 565L153 677L342 677C324 540 275 461 65 420C79 405 98 377 105 359C337 410 400 509 421 677L571 677L571 522C571 451 592 433 680 433C697 433 805 433 824 433C888 433 909 455 916 542C896 546 867 556 852 567C848 504 843 495 816 495C793 495 705 495 688 495C651 495 645 499 645 522L645 677L852 677L852 581L930 581L930 745L538 745L538 840L461 840L461 745Z"/></svg>