<svg id="UFB6C" viewBox="0 0 447 1000"><path transform="translate(0, 900) scale(1,-1)" d="M0-5L0-5L10 77Q43 77 85.50 77.50Q128 78 168 81.50Q208 85 231 93L231 93Q263 104 282.50 121.50Q302 139 312 167L312 167Q294 161 273.50 158.50Q253 156 233 156L233 156Q157 156 115.50 192Q74 228 74 283L74 283Q74 321 86 359.50Q98 398 120 430Q142 462 173 481.50Q204 501 242 501L242 501Q296 501 331.50 466Q367 431 384.50 374.50Q402 318 402 255L402 255Q402 180 376.50 126.50Q351 73 292 38L292 38Q261 20 214.50 10.50Q168 1 113-2Q58-5 0-5ZM153 303L153 303Q153 272 173 253.50Q193 235 242 235L242 235Q285 235 324 247L324 247Q324 253 324 261L324 261Q324 303 313 339Q302 375 282 397Q262 419 234 419L234 419Q211 419 192.50 401.50Q174 384 163.50 357Q153 330 153 303ZM225 714L225 714Q204 714 189.50 728.50Q175 743 175 763L175 763Q175 783 189.50 798Q204 813 225 813L225 813Q245 813 259.50 798Q274 783 274 763L274 763Q274 743 259.50 728.50Q245 714 225 714ZM157 604L157 604Q136 604 121.50 618.50Q107 633 107 653L107 653Q107 673 121.50 688Q136 703 157 703L157 703Q177 703 191.50 688Q206 673 206 653L206 653Q206 633 191.50 618.50Q177 604 157 604ZM293 604L293 604Q272 604 257.50 618.50Q243 633 243 653L243 653Q243 673 257.50 688Q272 703 293 703L293 703Q313 703 327.50 688Q342 673 342 653L342 653Q342 633 327.50 618.50Q313 604 293 604Z"/></svg>