<svg id="UFB9D" viewBox="0 0 508 1000"><path transform="translate(0, 900) scale(1,-1)" d="M182 799L182 799Q161 799 146.50 813.50Q132 828 132 848L132 848Q132 868 146.50 883Q161 898 182 898L182 898Q202 898 216.50 883Q231 868 231 848L231 848Q231 828 216.50 813.50Q202 799 182 799ZM67 746L67 746Q46 746 31.50 760.50Q17 775 17 795L17 795Q17 815 31.50 830Q46 845 67 845L67 845Q87 845 101.50 830Q116 815 116 795L116 795Q116 775 101.50 760.50Q87 746 67 746ZM-1 550L-1 550L-38 606Q20 641 114.50 697.50Q209 754 338 821L338 821L366 760Q236 691 148 639.50Q60 588-1 550ZM83-5L0-5L10 77L87 77Q170 77 210 86Q250 95 262.50 110Q275 125 275 141L275 141Q275 165 257 194Q239 223 211 253.50Q183 284 151.50 314Q120 344 92 369Q64 394 46 412.50Q28 431 28 439L28 439Q28 462 33.50 482Q39 502 49 513L49 513Q76 542 128.50 573.50Q181 605 249 638.50Q317 672 388 707L388 707L422 633Q334 589 249.50 548Q165 507 102 463L102 463Q157 416 205 372Q253 328 294 277.50Q335 227 369 163L369 163Q390 124 418 106Q446 88 473.50 82.50Q501 77 518 77L518 77Q539 77 548.50 65.50Q558 54 558 38L558 38Q558 22 544 8.50Q530-5 508-5L508-5Q484-5 452.50 1.50Q421 8 389 26.50Q357 45 333 81L333 81Q313 52 283 33Q253 14 205 4.50Q157-5 83-5L83-5Z"/></svg>