<svg id="UFCC0" viewBox="0 0 1084 1000"><path transform="translate(0, 900) scale(1,-1)" d="M637-5L637-5L647 77Q680 77 722.50 77.50Q765 78 805 81.50Q845 85 868 93L868 93Q900 104 919.50 121.50Q939 139 949 167L949 167Q931 161 910.50 158.50Q890 156 870 156L870 156Q794 156 752.50 192Q711 228 711 283L711 283Q711 321 723 359.50Q735 398 757 430Q779 462 810 481.50Q841 501 879 501L879 501Q933 501 968.50 466Q1004 431 1021.50 374.50Q1039 318 1039 255L1039 255Q1039 180 1013.50 126.50Q988 73 929 38L929 38Q898 20 851.50 10.50Q805 1 750-2Q695-5 637-5ZM790 303L790 303Q790 272 810 253.50Q830 235 879 235L879 235Q922 235 961 247L961 247Q961 253 961 261L961 261Q961 303 950 339Q939 375 919 397Q899 419 871 419L871 419Q848 419 829.50 401.50Q811 384 800.50 357Q790 330 790 303ZM860 604L860 604Q839 604 824.50 618.50Q810 633 810 653L810 653Q810 673 824.50 688Q839 703 860 703L860 703Q880 703 894.50 688Q909 673 909 653L909 653Q909 633 894.50 618.50Q880 604 860 604ZM0-5L0-5L9 77Q113 77 209.50 108Q306 139 386 194L386 194Q347 229 290.50 249.50Q234 270 166 270L166 270Q141 270 122 267.50Q103 265 76 259L76 259L60 335Q116 352 166 352L166 352Q218 352 260 339.50Q302 327 336.50 309Q371 291 401.50 273Q432 255 461 242.50Q490 230 521 230L521 230L542 230L549 158Q518 158 489 151L489 151Q508 106 543 91.50Q578 77 647 77L647 77Q668 77 677.50 65.50Q687 54 687 38L687 38Q687 22 673 8.50Q659-5 637-5L637-5Q583-5 540.50 4.50Q498 14 468 42.50Q438 71 424 128L424 128Q386 110 346.50 87.50Q307 65 259 44Q211 23 148 9Q85-5 0-5ZM157 455L157 455Q136 455 121.50 469.50Q107 484 107 504L107 504Q107 524 121.50 539Q136 554 157 554L157 554Q177 554 191.50 539Q206 524 206 504L206 504Q206 484 191.50 469.50Q177 455 157 455Z"/></svg>