<svg id="UFCE3" viewBox="0 0 951 1000"><path transform="translate(0, 900) scale(1,-1)" d="M845 386L845 386Q824 386 809.50 400.50Q795 415 795 435L795 435Q795 455 809.50 470Q824 485 845 485L845 485Q865 485 879.50 470Q894 455 894 435L894 435Q894 415 879.50 400.50Q865 386 845 386ZM708 386L708 386Q687 386 672.50 400.50Q658 415 658 435L658 435Q658 455 672.50 470Q687 485 708 485L708 485Q728 485 742.50 470Q757 455 757 435L757 435Q757 415 742.50 400.50Q728 386 708 386ZM578-5L578-5L588 77Q638 77 666 84.50Q694 92 708.50 113.50Q723 135 732 176Q741 217 754 283L754 283L832 268Q826 241 818.50 206Q811 171 811 147L811 147Q811 132 813 119Q815 106 828 97Q841 88 872 82.50Q903 77 961 77L961 77Q982 77 991.50 65.50Q1001 54 1001 38L1001 38Q1001 22 987 8.50Q973-5 951-5L951-5Q886-5 849.50 2.50Q813 10 795.50 24.50Q778 39 770 61L770 61Q741 20 698.50 7.50Q656-5 578-5ZM0-5L0-5L10 77Q38 77 54.50 89Q71 101 86.50 129Q102 157 126 204L126 204Q158 268 190.50 302Q223 336 253 349Q283 362 306 362L306 362Q339 362 365 347.50Q391 333 414 298.50Q437 264 461 204L461 204Q484 149 502.50 121.50Q521 94 541.50 85.50Q562 77 588 77L588 77Q609 77 618.50 65.50Q628 54 628 38L628 38Q628 22 614 8.50Q600-5 578-5L578-5Q539-5 506.50 7.50Q474 20 455 46L455 46Q436 12 407.50-3.50Q379-19 346-19L346-19Q297-19 244.50 12.50Q192 44 156 96L156 96Q130 50 106.50 28.50Q83 7 58 1Q33-5 0-5ZM194 172L194 172Q228 115 270 88.50Q312 62 345 62L345 62Q380 62 396.50 87Q413 112 395 157L395 157Q383 187 370 216Q357 245 340 264Q323 283 300 282L300 282Q278 281 252 258Q226 235 194 172Z"/></svg>