<svg id="UFDF6" viewBox="0 0 2318 1000"><path transform="translate(0, 900) scale(1,-1)" d="M1955-230L1955-230L1926-154Q2027-122 2081.50-77.50Q2136-33 2156.50 15Q2177 63 2177 107L2177 107Q2177 135 2171 161Q2165 187 2150 220Q2135 253 2108 302L2108 302L2181 339Q2219 274 2235.50 216Q2252 158 2252 114L2252 114Q2252 51 2231.50 0Q2211-51 2177.50-90.50Q2144-130 2104.50-158Q2065-186 2025.50-204Q1986-222 1955-230ZM1167-5L1167-5L1177 77Q1209 77 1229 81.50Q1249 86 1262.50 104.50Q1276 123 1288 163Q1300 203 1316 275L1316 275L1391 254Q1385 229 1377 194Q1369 159 1369 130L1369 130Q1369 105 1388 91Q1407 77 1457 77L1457 77Q1487 77 1506 82Q1525 87 1537.50 106Q1550 125 1560 167Q1570 209 1581 282L1581 282L1657 268Q1654 250 1650 224Q1646 198 1642.50 172.50Q1639 147 1639 130L1639 130Q1639 116 1645.50 103.50Q1652 91 1671.50 84Q1691 77 1730 77L1730 77Q1774 77 1799.50 94Q1825 111 1825 163L1825 163Q1825 201 1807.50 258.50Q1790 316 1768 373L1768 373L1849 403Q1862 371 1873.50 330Q1885 289 1893 249Q1901 209 1901 179L1901 179Q1901 86 1855 40.50Q1809-5 1729-5L1729-5Q1674-5 1642.50 9.50Q1611 24 1597 55L1597 55Q1573 18 1539.50 6.50Q1506-5 1445-5L1445-5Q1424-5 1400.50 0Q1377 5 1357 19.50Q1337 34 1326 63L1326 63Q1300 19 1261.50 7Q1223-5 1167-5ZM753-230L753-230L735-148Q797-140 848.50-124.50Q900-109 937-81Q974-53 992-5L992-5L928-5Q883-5 844.50 8Q806 21 782.50 48.50Q759 76 759 121L759 121Q759 177 781 226Q803 275 841.50 306Q880 337 927 337L927 337Q996 337 1041.50 276.50Q1087 216 1087 91L1087 91Q1087 84 1087 77L1087 77L1177 77Q1198 77 1207.50 65.50Q1217 54 1217 38L1217 38Q1217 22 1203 8.50Q1189-5 1167-5L1167-5L1075-5Q1024-199 753-230ZM966 77L966 77L1008 77Q1009 87 1009 97L1009 97Q1009 165 984 210Q959 255 919 255L919 255Q898 255 880 239Q862 223 850.50 196Q839 169 839 137L839 137Q839 102 870.50 89.50Q902 77 966 77ZM30-1L30-1Q30 35 40 79Q50 123 72 176L72 176L144 148Q128 106 120 71Q112 36 112 6L112 6Q112-67 167.50-108.50Q223-150 313-150L313-150Q411-150 463.50-112.50Q516-75 535 3Q554 81 549 201L549 201L530 714L613 714L630 180Q633 96 619.50 21.50Q606-53 570.50-110Q535-167 471.50-199.50Q408-232 310-232L310-232Q257-232 207-218Q157-204 117-176Q77-148 53.50-104.50Q30-61 30-1Z"/></svg>