<svg id="UFECD" viewBox="0 0 507 1000"><path transform="translate(0, 900) scale(1,-1)" d="M343-394L343-394Q289-394 231-381.50Q173-369 123-338.50Q73-308 41.50-256.50Q10-205 10-127L10-127Q10-46 47 23.50Q84 93 149 146L149 146Q99 167 68 212Q37 257 37 310L37 310Q37 373 66.50 415Q96 457 142.50 478Q189 499 241 499L241 499Q289 499 340 483L340 483L323 406Q281 417 241 417L241 417Q186 417 151.50 388.50Q117 360 117 316L117 316Q117 286 136.50 262.50Q156 239 184 223.50Q212 208 238 203L238 203Q316 242 409 258L409 258L430 180Q333 162 256.50 122Q180 82 136 22.50Q92-37 92-115L92-115Q92-174 116-212.50Q140-251 178.50-272.50Q217-294 260.50-303Q304-312 343-312L343-312Q396-312 451-302.50Q506-293 551-274L551-274L577-344Q553-356 513.50-367.50Q474-379 429-386.50Q384-394 343-394ZM242 602L242 602Q221 602 206.50 616.50Q192 631 192 651L192 651Q192 671 206.50 686Q221 701 242 701L242 701Q262 701 276.50 686Q291 671 291 651L291 651Q291 631 276.50 616.50Q262 602 242 602Z"/></svg>