<svg id="UFECA" viewBox="0 0 531 1000"><path transform="translate(0, 900) scale(1,-1)" d="M297-394L297-394Q252-394 202-385.50Q152-377 108.50-353.50Q65-330 37.50-287.50Q10-245 10-178L10-178Q10-105 40-51Q70 3 116 42.50Q162 82 209 114L209 114Q185 142 156 170Q127 198 92 223L92 223Q86 228 80 241Q74 254 70 268Q66 282 66 289L66 289Q66 304 85 325Q104 346 136 365.50Q168 385 209 398Q250 411 294 411L294 411Q365 411 404 376Q443 341 443 294L443 294Q443 237 411.50 195Q380 153 335 117L335 117Q373 98 420 87.50Q467 77 541 77L541 77Q562 77 571.50 65.50Q581 54 581 38L581 38Q581 22 567 8.50Q553-5 531-5L531-5Q462-5 413.50 4Q365 13 330 28.50Q295 44 265 65L265 65Q221 33 181.50 0Q142-33 117-73Q92-113 92-165L92-165Q92-211 114-240Q136-269 169-284.50Q202-300 237-306Q272-312 297-312L297-312Q349-312 406-300.50Q463-289 524-264L524-264L550-328Q521-345 479-360.50Q437-376 390-385Q343-394 297-394ZM138 284L138 284Q174 254 205.50 225.50Q237 197 274 158L274 158Q313 185 338.50 212Q364 239 364 272L364 272Q364 292 345 311Q326 330 279 330L279 330Q245 330 203.50 317Q162 304 138 284Z"/></svg>