<svg id="UFF4D" viewBox="0 0 1000 1000"><path transform="translate(0, 900) scale(1,-1)" d="M893 43L981 35L981 0L715 0L715 35L802 43Q804 157 804 235L804 235L804 344Q803 485 696 486L696 486Q618 485 548 407L548 407Q551 385 551 359L551 359L551 235Q551 157 553 43L553 43L639 35L639 0L376 0L376 35L462 43Q464 157 464 235L464 235L464 350Q463 485 355 486L355 486Q281 486 218 412L218 412Q214 407 210 402L210 402L210 235Q210 157 212 43L212 43L300 35L300 0L37 0L37 35L122 43Q124 157 124 235L124 235L124 292Q124 395 121 473L121 473L34 475L34 507L193 539L206 531L209 441Q285 544 391 545L391 545Q510 544 540 442L540 442Q626 545 726 545L726 545Q865 545 887 410L887 410Q891 382 891 350L891 350L891 235Q891 157 893 43L893 43Z"/></svg>