<svg id="U1014D5" viewBox="0 0 128 128" xmlns="http://www.w3.org/2000/svg">
<path d="M351 354 344 380 310 366 281 355 267 350V-45L203 -77V331L159 320L95 306L85 304L75 285L63 300L44 363L86 367L132 371L294 662L335 740L338 746L391 709L400 692L380 691L320 595L243 484L188 413L155 374L211 381L303 394L334 397L339 398L335 411L321 446L304 480L294 497L284 512L290 519L323 496L338 482L352 466L365 450L378 432L389 413L399 393L408 372L417 349L413 325L393 310L369 314L354 334ZM172 247 187 235 168 226 166 217 159 188 151 159 142 130 130 101 117 73 103 46 88 19 70 -6 50 -31 42 -26 71 60 80 88 87 116 99 171 103 199 106 226 107 249 109 266ZM882 65 857 93 832 123 808 156 766 225 772 170V118L767 72L759 34L750 4L740 -18L732 -29L723 -39L714 -48L703 -55L692 -62L681 -68L668 -72L656 -75L643 -76L629 -77V-45L543 -29V-13H629L637 -12L644 -11L657 -8L662 -5L672 2L677 6L686 18L693 28L702 51L711 83L718 123L722 169L721 181L708 166L677 136L644 108L609 81L572 56L534 34L493 15L451 -3L406 -17L402 -8L479 40L515 65L549 90L581 117L610 145L638 174L664 204L688 236L710 269L711 268L710 275L694 327L666 301L640 278L581 237L550 217L517 199L482 183L445 168L406 155L402 164L499 230L554 273L604 318L626 341L665 389L666 388L633 446L603 423L571 401L537 381L501 361L461 343L420 327L415 336L486 385L547 434L574 458L598 482L620 506L638 531L653 552H421V573H755V681H485V702H755V788H478V810H755L787 837L846 788L820 767V573H833L887 627L952 573V552H728L705 519L683 494L659 469L643 455L688 409L716 363L769 287L854 442L869 473H868L874 482L926 445L935 427H914L859 359L808 303L779 275L822 218L848 187L874 159L900 134L925 112L950 92L994 63L935 17L908 40ZM344 126 339 147 334 167 328 187 321 205 314 224 297 259 287 276 294 282 310 270 325 256 341 241 354 224 366 205 388 165 397 143 406 120 414 96 409 72 389 58 365 62 351 83 347 105ZM217 857 220 862 223 868 278 834 287 817 267 815 225 750 182 691 150 653 141 644 157 627 171 611 184 594 195 576 204 556 203 532 186 515 161 517 144 534 139 551 134 568 127 584 119 600 100 631 77 661 63 676 48 690 53 698 92 680 110 669 127 656 130 653 143 686 202 818 218 857Z" transform="translate(0, 112) scale(0.125000, -0.125000)"/>
</svg>