<svg id="U2A7E1" viewBox="0 0 128 128" xmlns="http://www.w3.org/2000/svg">
<path d="M737 -13H844L851 -12L856 -11L859 -10H861V-9L863 -8L864 -6L865 -3V2L866 9V740H534V761H874L928 815L993 761V740H930V9V-5L927 -18L923 -31L916 -44L907 -54L896 -63L885 -70L871 -74L858 -76L844 -77V-45L737 -29ZM453 -8 445 -18 436 -28 426 -37 415 -44 402 -49 389 -53 376 -55 363 -56V-24L255 -8V9H363H370L375 10L380 12L385 13L388 16L392 18L397 26L400 31L403 38L411 68L415 88L418 109L425 160L428 189L432 254L433 277H301L298 262L282 199L261 141L236 90L206 44L172 5L133 -27L91 -53L44 -71L41 -62L80 -35L115 -5L145 28L172 67L195 111L214 159L230 213L242 273V277H56V299H245L250 338L253 409L254 420L318 405L334 394L316 384L310 331L305 299H434L466 326L525 277L498 261H497L496 250L494 216L489 153L486 125L478 76L474 54L469 35L464 17L459 5ZM637 573H729L761 600L820 552L793 530V240L729 208V272H637V208L572 175V605ZM637 552V294H729V552ZM151 378 86 346V835L151 803H413L445 830L504 781L478 760V410L413 378V442H151ZM151 612V464H250V612ZM314 612V464H413V612ZM151 781V633H250V781ZM314 781V633H413V781Z" transform="translate(0, 112) scale(0.125000, -0.125000)"/>
</svg>