<svg id="U2A791" viewBox="0 0 128 128" xmlns="http://www.w3.org/2000/svg">
<path d="M544 527 560 517 544 507V395H829L861 421L921 373L894 352V117L829 85V149H544V-47L480 -80V149H195V85L130 53V427L195 395H480V538ZM195 373V171H480V373ZM544 373V171H829V373ZM456 761 468 746 448 741 439 718 417 678 391 642 360 609 324 578 285 551 241 527 193 507 140 490 83 477 80 486 133 509 181 533 224 559 261 585 295 613 324 643 347 674 367 707 382 742 393 778 396 787ZM931 733H942L931 598L951 585L964 566L951 547L931 534H673H659L646 537L633 541L621 548L610 556L601 567L594 580L590 592L588 606L587 620V785L652 774L668 763L652 754V613L653 608L654 603L656 602H657L658 600L661 599L666 598H899ZM888 810 893 815 894 814 921 837 980 788 953 772 932 763 894 723 850 681 816 650 809 657 822 676 876 777 881 788H153V772L151 746L148 721L141 699L132 677L122 658L108 641L91 626L67 622L46 636L43 660L57 681L67 687L78 695L88 705L98 718L106 735L114 754L121 777L127 802L132 830L136 861H146L150 830L152 810Z" transform="translate(0, 112) scale(0.125000, -0.125000)"/>
</svg>