<svg id="U308D" viewBox="0 0 128 128" xmlns="http://www.w3.org/2000/svg">
<path d="M837 196 813 149 780 108 741 72 696 42 646 18 591 0 531 -13 468 -20 400 -22 329 -17V-8L399 -2L421 2L448 7L516 25L577 46L628 70L671 98L706 128L732 161L752 197L764 237L769 272L768 274L767 292L763 309L758 325L750 340L740 354L727 368L711 382L692 395L681 400L647 411L589 417L522 412L447 395L433 390L333 325L307 306L284 287L264 269L248 252L236 237L227 222L220 226L218 220L198 207L173 213L164 224L157 235L152 247L150 260L152 272L157 283L164 290L170 294L322 455L524 660L604 739L592 733L523 706L451 685L415 677L378 670L341 664L321 662L316 659L308 660H304V661L292 663L281 675L271 687L264 699L258 712L254 725L252 738L253 750L256 762L260 774L264 784L273 782L272 772L275 762L279 754L284 747L289 741L295 735L302 731L313 724L336 725L371 727L407 730L442 734L477 739L547 753L576 759L573 763L586 770L597 778L609 784L621 788L634 790L647 788L661 783L673 774L683 763L692 750L691 726L673 709H666L368 410L328 368L382 392L396 397L437 421L515 448L588 460L656 457L715 442L766 416L807 377L834 328L846 273L842 211L833 198Z" transform="translate(0, 112) scale(0.125000, -0.125000)"/>
</svg>