<svg id="U3005D" viewBox="0 0 128 128" xmlns="http://www.w3.org/2000/svg">
<path d="M211 461H410L442 488L501 440L474 418V14L473 1L471 -13L467 -26L460 -38L451 -49L440 -58L428 -65L415 -69L402 -71L388 -72V-40L281 -24V-8H388L395 -7L400 -6L404 -4L407 -2L408 3L409 8L410 14V440H211V186L208 146L202 109L194 74L183 42L170 15L153 -10L134 -31L112 -48L88 -60L62 -67L58 -58L78 -42L94 -26L107 -8L118 12L128 34L136 59L142 86L145 116L146 150V494ZM657 461H861L894 488L953 440L926 418V14L925 1L923 -13L918 -26L911 -38L903 -49L892 -58L880 -65L867 -69L853 -71L840 -72V-40L754 -24V-8H840L846 -7L851 -6L856 -4L858 -2L860 3L861 8V14V440H657V186L654 146L649 109L642 75L631 44L618 17L603 -8L585 -27L565 -44L543 -54L519 -60L515 -51L532 -37L546 -22L559 -5L568 14L577 35L584 59L588 86L592 116L593 149V186V494ZM774 153 753 169 729 185 700 200 684 208 667 213 668 223 687 221H705L723 220L740 218L757 215L773 211L788 206L817 194L831 186L843 165L836 141L815 129L791 135ZM315 162 306 170 283 187 242 210 225 216 228 225 245 223H263L279 221L295 218L311 215L327 211L341 206L355 200L381 185L392 163L384 140L362 130L338 137L332 146ZM332 276 316 292 295 308 271 324 242 339 225 345 228 354 245 352H263L279 351L311 345L340 337L354 331L367 325L380 318L391 296L385 273L363 261L339 268ZM792 269 765 292 754 300 729 314 715 322 684 337 667 342 668 352 687 350 705 351 723 349 739 348 756 345 772 342 787 338 801 333 815 328 829 322 842 301 837 277 816 264ZM921 561 912 548 899 539H187L175 540L163 543L151 548L141 555L131 564L124 576L119 588L116 601L114 614V793L179 761H480V870L544 860L560 849L544 839V761H835L888 814L953 761V739H179V614L178 608V599V596L179 594L180 591L186 586L192 584L200 582H899L912 574Z" transform="translate(0, 112) scale(0.125000, -0.125000)"/>
</svg>