<svg id="U30919" viewBox="0 0 128 128" xmlns="http://www.w3.org/2000/svg">
<path d="M589 792 780 833 835 847 858 853 874 858V859L875 858L879 860L881 853L937 806L938 790L915 802L894 797L845 790L817 787L787 784L755 781L720 779L683 776L644 775L601 774H589V672H858L911 726L976 672V650H820V394L755 362V650H589V597L585 561L578 528L566 497L551 469L531 444L508 421L492 409L544 376L554 360L529 358L520 346L491 314L469 292L458 283H792L824 310L883 262L856 240V-30L792 -62V-9H232V-46L168 -78V316L232 283H442L446 290L467 346L480 382L483 394L484 399L485 404H486L453 386L421 374L385 365L382 374L412 392L438 411L461 430L480 450L495 471L507 493L516 517L521 541L524 568V825ZM232 129V13H792V129ZM232 262V151H792V262ZM151 423H232L237 424L241 425L242 426H243L244 427L246 432L247 437L248 444V567L167 547L102 532L94 513L81 527L58 589L69 591L200 611L243 618H248V738H65V760H248V868L312 857L328 846L312 837V760H381L435 813L500 760V738H312V628L414 642L456 647L499 651L501 641L420 614L337 590L312 584V444L311 430L309 417L304 404L297 391L289 381L278 372L266 366L253 361L239 359L226 358V390L151 406Z" transform="translate(0, 112) scale(0.125000, -0.125000)"/>
</svg>