<svg id="U8E56" viewBox="0 0 128 128" xmlns="http://www.w3.org/2000/svg">
<path d="M41 27 82 39V396L141 385L156 374L141 365V55L203 74V509H144V492L79 460V820L144 788H309L341 815L400 767L373 745V509L309 476V509H262V310H313L346 347L389 310V288H262V93L395 137L400 128L337 88L272 54L206 23L103 -19L90 -24L84 -44L69 -31ZM620 363 623 367 625 369 670 323 675 304 650 310 636 302 610 290 596 284 582 280 566 275H565V159H581L614 197L657 159V138H565V17H781V138H689V159H781V280H685V301H781L814 328L822 321L804 346L781 384L761 423L745 463H608L570 393L529 335L507 310L551 289L568 304L597 332L612 350L618 359L620 362ZM863 272 846 258V-26L781 -58V-4H565V-42L500 -74V302L484 283L432 238L377 199L371 207L419 253L462 303L500 356L535 413L558 463H381V484H567L588 542L603 596H446V617H609L624 690L629 728H422V750H632L635 772L640 853L641 870L705 854L721 843L703 834L695 764L693 750H806L860 804L924 750V728H689L680 680L665 617H802L846 666L900 617V596H727L760 519L778 484H847L901 538L966 484V463H790L824 410L848 378L875 349L903 321L933 296L982 260L924 216L889 245ZM659 596 635 525 617 484H738L730 508L720 553L715 596ZM144 767V530H309V767Z" transform="translate(0, 112) scale(0.125000, -0.125000)"/>
</svg>