<svg id="UB828" viewBox="0 0 128 128" xmlns="http://www.w3.org/2000/svg">
<path d="M345 159 344 142 347 99 353 72 360 58 361 56 370 48 388 42 396 41H749L801 63L810 66L815 64L817 65L832 66H846L861 65L876 61L893 43L892 18L874 2H856V-2H388L362 4L360 5L353 6L325 22L304 49L292 84L290 89L283 123L280 160L282 164V175H281V202L277 209L272 217L258 233L250 240L239 248L228 255L214 262L199 267L201 276H217L233 277L249 276L264 275L279 271L292 267L309 261L321 255L331 248L341 240H345V175L344 160ZM666 443 620 463 606 471 581 489 571 498 561 509 553 519 545 528 551 536 561 530 573 526 610 516 623 513 647 510 792 513V644L754 637L718 632L699 630L679 627V628L666 626L650 632L620 646L606 654L581 671L571 681L561 691L553 702L545 711L551 719L561 712L573 709L610 699L623 696L647 692L792 695V799L789 809V811L785 817L778 826L762 845L743 863L722 882L709 890L712 899L720 897L723 904L738 899L754 896L770 892L785 887L799 880L811 873L824 864L829 859L838 853L850 844L852 842H856V245L792 213V462L754 454L718 449L699 447L679 444V445ZM457 595 474 609V729H296L280 726L247 718L194 705L183 708L177 706L161 713L136 724H131V727L117 735L92 752L81 762L72 772L64 783L56 792L62 799L72 793L84 789L121 780L134 777L161 773L176 771L191 770L192 769H204H224H229L249 770V772H423L447 782L466 790L475 795L482 799L494 797L498 798H511L523 796L536 792L550 772L547 748L544 746L539 732V616L543 614L557 594L552 570L531 556L512 560V557H499L496 555L493 557H179V497L183 455L189 428L197 414L207 405L225 399L239 397L656 428L658 407H657L658 396L228 348V350H222L195 356L171 368L150 388L135 412L123 442L116 477L114 515L116 521V525H114V556L113 559L107 565L94 578L85 584L75 591L65 595L66 604H71L72 609L83 607H95H106L117 606L128 605L138 603L148 600L158 597L163 595Z" transform="translate(0, 112) scale(0.125000, -0.125000)"/>
</svg>