<svg id="UC451" viewBox="0 0 128 128" xmlns="http://www.w3.org/2000/svg">
<path d="M815 255H828L840 253L853 249L867 229L864 205L861 203L852 176L851 172V-77L786 -110V186H770L753 183L720 175L667 162L656 165L650 163L634 170L608 182L604 181V183L590 192L565 209L554 219L545 229L537 240L529 249L535 256L545 250L557 246L594 237L607 234L635 230L639 229H741L765 239L783 247L792 252L800 256L811 254ZM426 205 414 206 369 203 361 201 349 197 336 194 279 178 264 173 252 176 246 175 232 182 220 189 215 192H211V194L198 204L187 212L178 221L170 231L158 251L151 260L159 266L166 260L186 252L196 249L207 246L228 242L251 239L263 238V237H287H291L391 239L418 253L432 262L439 266L451 265L457 266H468L480 263L491 259L503 238L501 228L503 218L490 193V125H491L503 104L497 80L477 68L457 72L447 66L433 72L286 59V25H284L285 4L289 -18L294 -35L302 -49L304 -51L564 -8L567 -24H568L573 -45L436 -75V-76L412 -81L361 -98L333 -106L304 -109L273 -100L246 -75L229 -37L221 17V48L171 89L164 96L155 99L158 109L167 106L177 107H205L233 105H409L426 120ZM123 314 83 331H77V334L63 342L38 360L28 369L18 380L10 390L2 399L8 407L18 401L30 397L67 387L80 384L108 380L122 378H136V380L156 378L168 377L270 379V380H345V419L341 426L326 442L318 451L299 466L277 482L263 487L265 496L276 495V496L286 495H295H299H307L321 494L335 492L349 488L362 484L374 478L386 471L397 462L399 461L402 459L406 455H410V380H609V419L604 426L589 442L581 451L562 466L540 482L527 487L529 496L539 495V496L549 495H558H562H570L585 494L599 492L613 488L625 484L638 478L650 471L661 462L662 461L666 459L670 455H673V380H830L882 402L890 405L896 403L898 404L913 405H927L942 403L957 400L973 382V357L954 340L931 341V337H313V331H243L211 325L175 320L156 318L136 315V316ZM840 515 839 514 643 670 617 639 589 611 560 583 529 557 496 533 462 511 425 491 420 499 424 504 420 510 477 564 481 569 345 681 304 638 273 610 240 582 204 556 165 533 124 511 81 491 76 500 84 506 75 502 71 510 144 565 178 592 209 620 265 677 289 706 304 726H303L316 744L330 765L327 776L317 797L306 817L295 835L259 859L271 877L274 875L277 881L292 875L307 870L321 864L335 857L361 841L373 831L384 820L404 796L406 772L404 769L406 768L385 733L365 706L382 693L388 689L397 685L411 681L438 675L451 672L464 670L477 669L496 654L497 649L503 645L510 638L517 630L522 622L525 621L527 617L576 676L618 736L635 765L631 776L622 797L611 817L600 835L564 859L575 877L579 875L582 881L596 875L611 870L626 864L640 857L666 841L678 831L689 820L709 796L711 772L709 769L711 768L690 734L672 707L749 647L819 617L850 606L852 603L861 598L870 592L877 585L884 576L890 567L895 557L899 547L897 540L899 537L893 512L872 500L848 506L841 514Z" transform="translate(0, 112) scale(0.125000, -0.125000)"/>
</svg>